<?xml version="1.0" encoding="utf-8" standalone="no"?>
<!DOCTYPE svg PUBLIC "-//W3C//DTD SVG 1.1//EN"
  "http://www.w3.org/Graphics/SVG/1.1/DTD/svg11.dtd">
<svg xmlns:xlink="http://www.w3.org/1999/xlink" width="414.46375pt" height="339.291975pt" viewBox="0 0 414.46375 339.291975" xmlns="http://www.w3.org/2000/svg" version="1.1">
 <metadata>
  <rdf:RDF xmlns:dc="http://purl.org/dc/elements/1.1/" xmlns:cc="http://creativecommons.org/ns#" xmlns:rdf="http://www.w3.org/1999/02/22-rdf-syntax-ns#">
   <cc:Work>
    <dc:type rdf:resource="http://purl.org/dc/dcmitype/StillImage"/>
    <dc:date>2025-09-12T12:34:47.596710</dc:date>
    <dc:format>image/svg+xml</dc:format>
    <dc:creator>
     <cc:Agent>
      <dc:title>Matplotlib v3.10.6, https://matplotlib.org/</dc:title>
     </cc:Agent>
    </dc:creator>
   </cc:Work>
  </rdf:RDF>
 </metadata>
 <defs>
  <style type="text/css">*{stroke-linejoin: round; stroke-linecap: butt}</style>
 </defs>
 <g id="figure_1">
  <g id="patch_1">
   <path d="M 0 339.291975 
L 414.46375 339.291975 
L 414.46375 0 
L 0 0 
z
" style="fill: #ffffff"/>
  </g>
  <g id="axes_1">
   <g id="patch_2">
    <path d="M 50.14375 301.735725 
L 407.26375 301.735725 
L 407.26375 35.623725 
L 50.14375 35.623725 
z
" style="fill: #ffffff"/>
   </g>
   <g id="matplotlib.axis_1">
    <g id="xtick_1">
     <g id="line2d_1">
      <path d="M 63.820142 301.735725 
L 63.820142 35.623725 
" clip-path="url(#pe996ea9f11)" style="fill: none; stroke: #cccccc; stroke-width: 0.8; stroke-linecap: round"/>
     </g>
     <g id="text_1">
      <!-- 0 -->
      <g style="fill: #262626" transform="translate(60.638892 316.334162) scale(0.1 -0.1)">
       <defs>
        <path id="DejaVuSans-30" d="M 2034 4250 
Q 1547 4250 1301 3770 
Q 1056 3291 1056 2328 
Q 1056 1369 1301 889 
Q 1547 409 2034 409 
Q 2525 409 2770 889 
Q 3016 1369 3016 2328 
Q 3016 3291 2770 3770 
Q 2525 4250 2034 4250 
z
M 2034 4750 
Q 2819 4750 3233 4129 
Q 3647 3509 3647 2328 
Q 3647 1150 3233 529 
Q 2819 -91 2034 -91 
Q 1250 -91 836 529 
Q 422 1150 422 2328 
Q 422 3509 836 4129 
Q 1250 4750 2034 4750 
z
" transform="scale(0.015625)"/>
       </defs>
       <use xlink:href="#DejaVuSans-30"/>
      </g>
     </g>
    </g>
    <g id="xtick_2">
     <g id="line2d_2">
      <path d="M 127.728517 301.735725 
L 127.728517 35.623725 
" clip-path="url(#pe996ea9f11)" style="fill: none; stroke: #cccccc; stroke-width: 0.8; stroke-linecap: round"/>
     </g>
     <g id="text_2">
      <!-- 200 -->
      <g style="fill: #262626" transform="translate(118.184767 316.334162) scale(0.1 -0.1)">
       <defs>
        <path id="DejaVuSans-32" d="M 1228 531 
L 3431 531 
L 3431 0 
L 469 0 
L 469 531 
Q 828 903 1448 1529 
Q 2069 2156 2228 2338 
Q 2531 2678 2651 2914 
Q 2772 3150 2772 3378 
Q 2772 3750 2511 3984 
Q 2250 4219 1831 4219 
Q 1534 4219 1204 4116 
Q 875 4013 500 3803 
L 500 4441 
Q 881 4594 1212 4672 
Q 1544 4750 1819 4750 
Q 2544 4750 2975 4387 
Q 3406 4025 3406 3419 
Q 3406 3131 3298 2873 
Q 3191 2616 2906 2266 
Q 2828 2175 2409 1742 
Q 1991 1309 1228 531 
z
" transform="scale(0.015625)"/>
       </defs>
       <use xlink:href="#DejaVuSans-32"/>
       <use xlink:href="#DejaVuSans-30" transform="translate(63.623047 0)"/>
       <use xlink:href="#DejaVuSans-30" transform="translate(127.246094 0)"/>
      </g>
     </g>
    </g>
    <g id="xtick_3">
     <g id="line2d_3">
      <path d="M 191.636892 301.735725 
L 191.636892 35.623725 
" clip-path="url(#pe996ea9f11)" style="fill: none; stroke: #cccccc; stroke-width: 0.8; stroke-linecap: round"/>
     </g>
     <g id="text_3">
      <!-- 400 -->
      <g style="fill: #262626" transform="translate(182.093142 316.334162) scale(0.1 -0.1)">
       <defs>
        <path id="DejaVuSans-34" d="M 2419 4116 
L 825 1625 
L 2419 1625 
L 2419 4116 
z
M 2253 4666 
L 3047 4666 
L 3047 1625 
L 3713 1625 
L 3713 1100 
L 3047 1100 
L 3047 0 
L 2419 0 
L 2419 1100 
L 313 1100 
L 313 1709 
L 2253 4666 
z
" transform="scale(0.015625)"/>
       </defs>
       <use xlink:href="#DejaVuSans-34"/>
       <use xlink:href="#DejaVuSans-30" transform="translate(63.623047 0)"/>
       <use xlink:href="#DejaVuSans-30" transform="translate(127.246094 0)"/>
      </g>
     </g>
    </g>
    <g id="xtick_4">
     <g id="line2d_4">
      <path d="M 255.545268 301.735725 
L 255.545268 35.623725 
" clip-path="url(#pe996ea9f11)" style="fill: none; stroke: #cccccc; stroke-width: 0.8; stroke-linecap: round"/>
     </g>
     <g id="text_4">
      <!-- 600 -->
      <g style="fill: #262626" transform="translate(246.001518 316.334162) scale(0.1 -0.1)">
       <defs>
        <path id="DejaVuSans-36" d="M 2113 2584 
Q 1688 2584 1439 2293 
Q 1191 2003 1191 1497 
Q 1191 994 1439 701 
Q 1688 409 2113 409 
Q 2538 409 2786 701 
Q 3034 994 3034 1497 
Q 3034 2003 2786 2293 
Q 2538 2584 2113 2584 
z
M 3366 4563 
L 3366 3988 
Q 3128 4100 2886 4159 
Q 2644 4219 2406 4219 
Q 1781 4219 1451 3797 
Q 1122 3375 1075 2522 
Q 1259 2794 1537 2939 
Q 1816 3084 2150 3084 
Q 2853 3084 3261 2657 
Q 3669 2231 3669 1497 
Q 3669 778 3244 343 
Q 2819 -91 2113 -91 
Q 1303 -91 875 529 
Q 447 1150 447 2328 
Q 447 3434 972 4092 
Q 1497 4750 2381 4750 
Q 2619 4750 2861 4703 
Q 3103 4656 3366 4563 
z
" transform="scale(0.015625)"/>
       </defs>
       <use xlink:href="#DejaVuSans-36"/>
       <use xlink:href="#DejaVuSans-30" transform="translate(63.623047 0)"/>
       <use xlink:href="#DejaVuSans-30" transform="translate(127.246094 0)"/>
      </g>
     </g>
    </g>
    <g id="xtick_5">
     <g id="line2d_5">
      <path d="M 319.453643 301.735725 
L 319.453643 35.623725 
" clip-path="url(#pe996ea9f11)" style="fill: none; stroke: #cccccc; stroke-width: 0.8; stroke-linecap: round"/>
     </g>
     <g id="text_5">
      <!-- 800 -->
      <g style="fill: #262626" transform="translate(309.909893 316.334162) scale(0.1 -0.1)">
       <defs>
        <path id="DejaVuSans-38" d="M 2034 2216 
Q 1584 2216 1326 1975 
Q 1069 1734 1069 1313 
Q 1069 891 1326 650 
Q 1584 409 2034 409 
Q 2484 409 2743 651 
Q 3003 894 3003 1313 
Q 3003 1734 2745 1975 
Q 2488 2216 2034 2216 
z
M 1403 2484 
Q 997 2584 770 2862 
Q 544 3141 544 3541 
Q 544 4100 942 4425 
Q 1341 4750 2034 4750 
Q 2731 4750 3128 4425 
Q 3525 4100 3525 3541 
Q 3525 3141 3298 2862 
Q 3072 2584 2669 2484 
Q 3125 2378 3379 2068 
Q 3634 1759 3634 1313 
Q 3634 634 3220 271 
Q 2806 -91 2034 -91 
Q 1263 -91 848 271 
Q 434 634 434 1313 
Q 434 1759 690 2068 
Q 947 2378 1403 2484 
z
M 1172 3481 
Q 1172 3119 1398 2916 
Q 1625 2713 2034 2713 
Q 2441 2713 2670 2916 
Q 2900 3119 2900 3481 
Q 2900 3844 2670 4047 
Q 2441 4250 2034 4250 
Q 1625 4250 1398 4047 
Q 1172 3844 1172 3481 
z
" transform="scale(0.015625)"/>
       </defs>
       <use xlink:href="#DejaVuSans-38"/>
       <use xlink:href="#DejaVuSans-30" transform="translate(63.623047 0)"/>
       <use xlink:href="#DejaVuSans-30" transform="translate(127.246094 0)"/>
      </g>
     </g>
    </g>
    <g id="xtick_6">
     <g id="line2d_6">
      <path d="M 383.362018 301.735725 
L 383.362018 35.623725 
" clip-path="url(#pe996ea9f11)" style="fill: none; stroke: #cccccc; stroke-width: 0.8; stroke-linecap: round"/>
     </g>
     <g id="text_6">
      <!-- 1000 -->
      <g style="fill: #262626" transform="translate(370.637018 316.334162) scale(0.1 -0.1)">
       <defs>
        <path id="DejaVuSans-31" d="M 794 531 
L 1825 531 
L 1825 4091 
L 703 3866 
L 703 4441 
L 1819 4666 
L 2450 4666 
L 2450 531 
L 3481 531 
L 3481 0 
L 794 0 
L 794 531 
z
" transform="scale(0.015625)"/>
       </defs>
       <use xlink:href="#DejaVuSans-31"/>
       <use xlink:href="#DejaVuSans-30" transform="translate(63.623047 0)"/>
       <use xlink:href="#DejaVuSans-30" transform="translate(127.246094 0)"/>
       <use xlink:href="#DejaVuSans-30" transform="translate(190.869141 0)"/>
      </g>
     </g>
    </g>
    <g id="text_7">
     <!-- Number of Tasks -->
     <g style="fill: #262626" transform="translate(187.2225 330.012287) scale(0.1 -0.1)">
      <defs>
       <path id="DejaVuSans-4e" d="M 628 4666 
L 1478 4666 
L 3547 763 
L 3547 4666 
L 4159 4666 
L 4159 0 
L 3309 0 
L 1241 3903 
L 1241 0 
L 628 0 
L 628 4666 
z
" transform="scale(0.015625)"/>
       <path id="DejaVuSans-75" d="M 544 1381 
L 544 3500 
L 1119 3500 
L 1119 1403 
Q 1119 906 1312 657 
Q 1506 409 1894 409 
Q 2359 409 2629 706 
Q 2900 1003 2900 1516 
L 2900 3500 
L 3475 3500 
L 3475 0 
L 2900 0 
L 2900 538 
Q 2691 219 2414 64 
Q 2138 -91 1772 -91 
Q 1169 -91 856 284 
Q 544 659 544 1381 
z
M 1991 3584 
L 1991 3584 
z
" transform="scale(0.015625)"/>
       <path id="DejaVuSans-6d" d="M 3328 2828 
Q 3544 3216 3844 3400 
Q 4144 3584 4550 3584 
Q 5097 3584 5394 3201 
Q 5691 2819 5691 2113 
L 5691 0 
L 5113 0 
L 5113 2094 
Q 5113 2597 4934 2840 
Q 4756 3084 4391 3084 
Q 3944 3084 3684 2787 
Q 3425 2491 3425 1978 
L 3425 0 
L 2847 0 
L 2847 2094 
Q 2847 2600 2669 2842 
Q 2491 3084 2119 3084 
Q 1678 3084 1418 2786 
Q 1159 2488 1159 1978 
L 1159 0 
L 581 0 
L 581 3500 
L 1159 3500 
L 1159 2956 
Q 1356 3278 1631 3431 
Q 1906 3584 2284 3584 
Q 2666 3584 2933 3390 
Q 3200 3197 3328 2828 
z
" transform="scale(0.015625)"/>
       <path id="DejaVuSans-62" d="M 3116 1747 
Q 3116 2381 2855 2742 
Q 2594 3103 2138 3103 
Q 1681 3103 1420 2742 
Q 1159 2381 1159 1747 
Q 1159 1113 1420 752 
Q 1681 391 2138 391 
Q 2594 391 2855 752 
Q 3116 1113 3116 1747 
z
M 1159 2969 
Q 1341 3281 1617 3432 
Q 1894 3584 2278 3584 
Q 2916 3584 3314 3078 
Q 3713 2572 3713 1747 
Q 3713 922 3314 415 
Q 2916 -91 2278 -91 
Q 1894 -91 1617 61 
Q 1341 213 1159 525 
L 1159 0 
L 581 0 
L 581 4863 
L 1159 4863 
L 1159 2969 
z
" transform="scale(0.015625)"/>
       <path id="DejaVuSans-65" d="M 3597 1894 
L 3597 1613 
L 953 1613 
Q 991 1019 1311 708 
Q 1631 397 2203 397 
Q 2534 397 2845 478 
Q 3156 559 3463 722 
L 3463 178 
Q 3153 47 2828 -22 
Q 2503 -91 2169 -91 
Q 1331 -91 842 396 
Q 353 884 353 1716 
Q 353 2575 817 3079 
Q 1281 3584 2069 3584 
Q 2775 3584 3186 3129 
Q 3597 2675 3597 1894 
z
M 3022 2063 
Q 3016 2534 2758 2815 
Q 2500 3097 2075 3097 
Q 1594 3097 1305 2825 
Q 1016 2553 972 2059 
L 3022 2063 
z
" transform="scale(0.015625)"/>
       <path id="DejaVuSans-72" d="M 2631 2963 
Q 2534 3019 2420 3045 
Q 2306 3072 2169 3072 
Q 1681 3072 1420 2755 
Q 1159 2438 1159 1844 
L 1159 0 
L 581 0 
L 581 3500 
L 1159 3500 
L 1159 2956 
Q 1341 3275 1631 3429 
Q 1922 3584 2338 3584 
Q 2397 3584 2469 3576 
Q 2541 3569 2628 3553 
L 2631 2963 
z
" transform="scale(0.015625)"/>
       <path id="DejaVuSans-20" transform="scale(0.015625)"/>
       <path id="DejaVuSans-6f" d="M 1959 3097 
Q 1497 3097 1228 2736 
Q 959 2375 959 1747 
Q 959 1119 1226 758 
Q 1494 397 1959 397 
Q 2419 397 2687 759 
Q 2956 1122 2956 1747 
Q 2956 2369 2687 2733 
Q 2419 3097 1959 3097 
z
M 1959 3584 
Q 2709 3584 3137 3096 
Q 3566 2609 3566 1747 
Q 3566 888 3137 398 
Q 2709 -91 1959 -91 
Q 1206 -91 779 398 
Q 353 888 353 1747 
Q 353 2609 779 3096 
Q 1206 3584 1959 3584 
z
" transform="scale(0.015625)"/>
       <path id="DejaVuSans-66" d="M 2375 4863 
L 2375 4384 
L 1825 4384 
Q 1516 4384 1395 4259 
Q 1275 4134 1275 3809 
L 1275 3500 
L 2222 3500 
L 2222 3053 
L 1275 3053 
L 1275 0 
L 697 0 
L 697 3053 
L 147 3053 
L 147 3500 
L 697 3500 
L 697 3744 
Q 697 4328 969 4595 
Q 1241 4863 1831 4863 
L 2375 4863 
z
" transform="scale(0.015625)"/>
       <path id="DejaVuSans-54" d="M -19 4666 
L 3928 4666 
L 3928 4134 
L 2272 4134 
L 2272 0 
L 1638 0 
L 1638 4134 
L -19 4134 
L -19 4666 
z
" transform="scale(0.015625)"/>
       <path id="DejaVuSans-61" d="M 2194 1759 
Q 1497 1759 1228 1600 
Q 959 1441 959 1056 
Q 959 750 1161 570 
Q 1363 391 1709 391 
Q 2188 391 2477 730 
Q 2766 1069 2766 1631 
L 2766 1759 
L 2194 1759 
z
M 3341 1997 
L 3341 0 
L 2766 0 
L 2766 531 
Q 2569 213 2275 61 
Q 1981 -91 1556 -91 
Q 1019 -91 701 211 
Q 384 513 384 1019 
Q 384 1609 779 1909 
Q 1175 2209 1959 2209 
L 2766 2209 
L 2766 2266 
Q 2766 2663 2505 2880 
Q 2244 3097 1772 3097 
Q 1472 3097 1187 3025 
Q 903 2953 641 2809 
L 641 3341 
Q 956 3463 1253 3523 
Q 1550 3584 1831 3584 
Q 2591 3584 2966 3190 
Q 3341 2797 3341 1997 
z
" transform="scale(0.015625)"/>
       <path id="DejaVuSans-73" d="M 2834 3397 
L 2834 2853 
Q 2591 2978 2328 3040 
Q 2066 3103 1784 3103 
Q 1356 3103 1142 2972 
Q 928 2841 928 2578 
Q 928 2378 1081 2264 
Q 1234 2150 1697 2047 
L 1894 2003 
Q 2506 1872 2764 1633 
Q 3022 1394 3022 966 
Q 3022 478 2636 193 
Q 2250 -91 1575 -91 
Q 1294 -91 989 -36 
Q 684 19 347 128 
L 347 722 
Q 666 556 975 473 
Q 1284 391 1588 391 
Q 1994 391 2212 530 
Q 2431 669 2431 922 
Q 2431 1156 2273 1281 
Q 2116 1406 1581 1522 
L 1381 1569 
Q 847 1681 609 1914 
Q 372 2147 372 2553 
Q 372 3047 722 3315 
Q 1072 3584 1716 3584 
Q 2034 3584 2315 3537 
Q 2597 3491 2834 3397 
z
" transform="scale(0.015625)"/>
       <path id="DejaVuSans-6b" d="M 581 4863 
L 1159 4863 
L 1159 1991 
L 2875 3500 
L 3609 3500 
L 1753 1863 
L 3688 0 
L 2938 0 
L 1159 1709 
L 1159 0 
L 581 0 
L 581 4863 
z
" transform="scale(0.015625)"/>
      </defs>
      <use xlink:href="#DejaVuSans-4e"/>
      <use xlink:href="#DejaVuSans-75" transform="translate(74.804688 0)"/>
      <use xlink:href="#DejaVuSans-6d" transform="translate(138.183594 0)"/>
      <use xlink:href="#DejaVuSans-62" transform="translate(235.595703 0)"/>
      <use xlink:href="#DejaVuSans-65" transform="translate(299.072266 0)"/>
      <use xlink:href="#DejaVuSans-72" transform="translate(360.595703 0)"/>
      <use xlink:href="#DejaVuSans-20" transform="translate(401.708984 0)"/>
      <use xlink:href="#DejaVuSans-6f" transform="translate(433.496094 0)"/>
      <use xlink:href="#DejaVuSans-66" transform="translate(494.677734 0)"/>
      <use xlink:href="#DejaVuSans-20" transform="translate(529.882812 0)"/>
      <use xlink:href="#DejaVuSans-54" transform="translate(561.669922 0)"/>
      <use xlink:href="#DejaVuSans-61" transform="translate(606.253906 0)"/>
      <use xlink:href="#DejaVuSans-73" transform="translate(667.533203 0)"/>
      <use xlink:href="#DejaVuSans-6b" transform="translate(719.632812 0)"/>
      <use xlink:href="#DejaVuSans-73" transform="translate(777.542969 0)"/>
     </g>
    </g>
   </g>
   <g id="matplotlib.axis_2">
    <g id="ytick_1">
     <g id="line2d_7">
      <path d="M 50.14375 290.176133 
L 407.26375 290.176133 
" clip-path="url(#pe996ea9f11)" style="fill: none; stroke: #cccccc; stroke-width: 0.8; stroke-linecap: round"/>
     </g>
     <g id="text_8">
      <!-- 0.00 -->
      <g style="fill: #262626" transform="translate(20.878125 293.975352) scale(0.1 -0.1)">
       <defs>
        <path id="DejaVuSans-2e" d="M 684 794 
L 1344 794 
L 1344 0 
L 684 0 
L 684 794 
z
" transform="scale(0.015625)"/>
       </defs>
       <use xlink:href="#DejaVuSans-30"/>
       <use xlink:href="#DejaVuSans-2e" transform="translate(63.623047 0)"/>
       <use xlink:href="#DejaVuSans-30" transform="translate(95.410156 0)"/>
       <use xlink:href="#DejaVuSans-30" transform="translate(159.033203 0)"/>
      </g>
     </g>
    </g>
    <g id="ytick_2">
     <g id="line2d_8">
      <path d="M 50.14375 236.535335 
L 407.26375 236.535335 
" clip-path="url(#pe996ea9f11)" style="fill: none; stroke: #cccccc; stroke-width: 0.8; stroke-linecap: round"/>
     </g>
     <g id="text_9">
      <!-- 0.01 -->
      <g style="fill: #262626" transform="translate(20.878125 240.334554) scale(0.1 -0.1)">
       <use xlink:href="#DejaVuSans-30"/>
       <use xlink:href="#DejaVuSans-2e" transform="translate(63.623047 0)"/>
       <use xlink:href="#DejaVuSans-30" transform="translate(95.410156 0)"/>
       <use xlink:href="#DejaVuSans-31" transform="translate(159.033203 0)"/>
      </g>
     </g>
    </g>
    <g id="ytick_3">
     <g id="line2d_9">
      <path d="M 50.14375 182.894537 
L 407.26375 182.894537 
" clip-path="url(#pe996ea9f11)" style="fill: none; stroke: #cccccc; stroke-width: 0.8; stroke-linecap: round"/>
     </g>
     <g id="text_10">
      <!-- 0.02 -->
      <g style="fill: #262626" transform="translate(20.878125 186.693755) scale(0.1 -0.1)">
       <use xlink:href="#DejaVuSans-30"/>
       <use xlink:href="#DejaVuSans-2e" transform="translate(63.623047 0)"/>
       <use xlink:href="#DejaVuSans-30" transform="translate(95.410156 0)"/>
       <use xlink:href="#DejaVuSans-32" transform="translate(159.033203 0)"/>
      </g>
     </g>
    </g>
    <g id="ytick_4">
     <g id="line2d_10">
      <path d="M 50.14375 129.253738 
L 407.26375 129.253738 
" clip-path="url(#pe996ea9f11)" style="fill: none; stroke: #cccccc; stroke-width: 0.8; stroke-linecap: round"/>
     </g>
     <g id="text_11">
      <!-- 0.03 -->
      <g style="fill: #262626" transform="translate(20.878125 133.052957) scale(0.1 -0.1)">
       <defs>
        <path id="DejaVuSans-33" d="M 2597 2516 
Q 3050 2419 3304 2112 
Q 3559 1806 3559 1356 
Q 3559 666 3084 287 
Q 2609 -91 1734 -91 
Q 1441 -91 1130 -33 
Q 819 25 488 141 
L 488 750 
Q 750 597 1062 519 
Q 1375 441 1716 441 
Q 2309 441 2620 675 
Q 2931 909 2931 1356 
Q 2931 1769 2642 2001 
Q 2353 2234 1838 2234 
L 1294 2234 
L 1294 2753 
L 1863 2753 
Q 2328 2753 2575 2939 
Q 2822 3125 2822 3475 
Q 2822 3834 2567 4026 
Q 2313 4219 1838 4219 
Q 1578 4219 1281 4162 
Q 984 4106 628 3988 
L 628 4550 
Q 988 4650 1302 4700 
Q 1616 4750 1894 4750 
Q 2613 4750 3031 4423 
Q 3450 4097 3450 3541 
Q 3450 3153 3228 2886 
Q 3006 2619 2597 2516 
z
" transform="scale(0.015625)"/>
       </defs>
       <use xlink:href="#DejaVuSans-30"/>
       <use xlink:href="#DejaVuSans-2e" transform="translate(63.623047 0)"/>
       <use xlink:href="#DejaVuSans-30" transform="translate(95.410156 0)"/>
       <use xlink:href="#DejaVuSans-33" transform="translate(159.033203 0)"/>
      </g>
     </g>
    </g>
    <g id="ytick_5">
     <g id="line2d_11">
      <path d="M 50.14375 75.61294 
L 407.26375 75.61294 
" clip-path="url(#pe996ea9f11)" style="fill: none; stroke: #cccccc; stroke-width: 0.8; stroke-linecap: round"/>
     </g>
     <g id="text_12">
      <!-- 0.04 -->
      <g style="fill: #262626" transform="translate(20.878125 79.412159) scale(0.1 -0.1)">
       <use xlink:href="#DejaVuSans-30"/>
       <use xlink:href="#DejaVuSans-2e" transform="translate(63.623047 0)"/>
       <use xlink:href="#DejaVuSans-30" transform="translate(95.410156 0)"/>
       <use xlink:href="#DejaVuSans-34" transform="translate(159.033203 0)"/>
      </g>
     </g>
    </g>
    <g id="text_13">
     <!-- Latency -->
     <g style="fill: #262626" transform="translate(14.798438 188.443787) rotate(-90) scale(0.1 -0.1)">
      <defs>
       <path id="DejaVuSans-4c" d="M 628 4666 
L 1259 4666 
L 1259 531 
L 3531 531 
L 3531 0 
L 628 0 
L 628 4666 
z
" transform="scale(0.015625)"/>
       <path id="DejaVuSans-74" d="M 1172 4494 
L 1172 3500 
L 2356 3500 
L 2356 3053 
L 1172 3053 
L 1172 1153 
Q 1172 725 1289 603 
Q 1406 481 1766 481 
L 2356 481 
L 2356 0 
L 1766 0 
Q 1100 0 847 248 
Q 594 497 594 1153 
L 594 3053 
L 172 3053 
L 172 3500 
L 594 3500 
L 594 4494 
L 1172 4494 
z
" transform="scale(0.015625)"/>
       <path id="DejaVuSans-6e" d="M 3513 2113 
L 3513 0 
L 2938 0 
L 2938 2094 
Q 2938 2591 2744 2837 
Q 2550 3084 2163 3084 
Q 1697 3084 1428 2787 
Q 1159 2491 1159 1978 
L 1159 0 
L 581 0 
L 581 3500 
L 1159 3500 
L 1159 2956 
Q 1366 3272 1645 3428 
Q 1925 3584 2291 3584 
Q 2894 3584 3203 3211 
Q 3513 2838 3513 2113 
z
" transform="scale(0.015625)"/>
       <path id="DejaVuSans-63" d="M 3122 3366 
L 3122 2828 
Q 2878 2963 2633 3030 
Q 2388 3097 2138 3097 
Q 1578 3097 1268 2742 
Q 959 2388 959 1747 
Q 959 1106 1268 751 
Q 1578 397 2138 397 
Q 2388 397 2633 464 
Q 2878 531 3122 666 
L 3122 134 
Q 2881 22 2623 -34 
Q 2366 -91 2075 -91 
Q 1284 -91 818 406 
Q 353 903 353 1747 
Q 353 2603 823 3093 
Q 1294 3584 2113 3584 
Q 2378 3584 2631 3529 
Q 2884 3475 3122 3366 
z
" transform="scale(0.015625)"/>
       <path id="DejaVuSans-79" d="M 2059 -325 
Q 1816 -950 1584 -1140 
Q 1353 -1331 966 -1331 
L 506 -1331 
L 506 -850 
L 844 -850 
Q 1081 -850 1212 -737 
Q 1344 -625 1503 -206 
L 1606 56 
L 191 3500 
L 800 3500 
L 1894 763 
L 2988 3500 
L 3597 3500 
L 2059 -325 
z
" transform="scale(0.015625)"/>
      </defs>
      <use xlink:href="#DejaVuSans-4c"/>
      <use xlink:href="#DejaVuSans-61" transform="translate(55.712891 0)"/>
      <use xlink:href="#DejaVuSans-74" transform="translate(116.992188 0)"/>
      <use xlink:href="#DejaVuSans-65" transform="translate(156.201172 0)"/>
      <use xlink:href="#DejaVuSans-6e" transform="translate(217.724609 0)"/>
      <use xlink:href="#DejaVuSans-63" transform="translate(281.103516 0)"/>
      <use xlink:href="#DejaVuSans-79" transform="translate(336.083984 0)"/>
     </g>
    </g>
   </g>
   <g id="FillBetweenPolyCollection_1">
    <path d="M 71.489147 288.566909 
L 71.489147 289.639725 
L 74.045482 289.639725 
L 79.158152 289.639725 
L 84.270822 289.639725 
L 94.496162 289.103317 
L 94.496162 284.946155 
L 94.496162 284.946155 
L 84.270822 288.030501 
L 79.158152 287.494093 
L 74.045482 288.030501 
L 71.489147 288.566909 
z
" clip-path="url(#pe996ea9f11)" style="fill: #3b0f70; fill-opacity: 0.2; stroke: #3b0f70; stroke-opacity: 0.2"/>
    <path d="M 104.721502 279.984381 
L 104.721502 288.030501 
L 125.172182 288.209304 
L 125.172182 284.275645 
L 125.172182 284.275645 
L 104.721502 279.984381 
z
" clip-path="url(#pe996ea9f11)" style="fill: #3b0f70; fill-opacity: 0.2; stroke: #3b0f70; stroke-opacity: 0.2"/>
    <path d="M 145.622862 281.593605 
L 145.622862 288.030501 
L 186.524222 287.494093 
L 186.524222 284.275645 
L 186.524222 284.275645 
L 145.622862 281.593605 
z
" clip-path="url(#pe996ea9f11)" style="fill: #3b0f70; fill-opacity: 0.2; stroke: #3b0f70; stroke-opacity: 0.2"/>
   </g>
   <g id="FillBetweenPolyCollection_2">
    <path d="M 71.489147 285.348461 
L 71.489147 288.030501 
L 74.045482 286.957685 
L 79.158152 288.030501 
L 84.270822 288.030501 
L 94.496162 286.689481 
L 94.496162 270.060834 
L 94.496162 270.060834 
L 84.270822 282.130013 
L 79.158152 280.520789 
L 74.045482 281.593605 
L 71.489147 285.348461 
z
" clip-path="url(#pe996ea9f11)" style="fill: #8c2981; fill-opacity: 0.2; stroke: #8c2981; stroke-opacity: 0.2"/>
    <path d="M 104.721502 254.773206 
L 104.721502 282.666421 
L 125.172182 284.812053 
L 125.172182 268.719814 
L 125.172182 268.719814 
L 104.721502 254.773206 
z
" clip-path="url(#pe996ea9f11)" style="fill: #8c2981; fill-opacity: 0.2; stroke: #8c2981; stroke-opacity: 0.2"/>
    <path d="M 145.622862 262.282918 
L 145.622862 283.202829 
L 186.524222 281.057197 
L 186.524222 269.79263 
L 186.524222 269.79263 
L 145.622862 262.282918 
z
" clip-path="url(#pe996ea9f11)" style="fill: #8c2981; fill-opacity: 0.2; stroke: #8c2981; stroke-opacity: 0.2"/>
   </g>
   <g id="FillBetweenPolyCollection_3">
    <path d="M 71.489147 284.812053 
L 71.489147 287.494093 
L 74.045482 286.957685 
L 79.158152 287.494093 
L 84.270822 286.957685 
L 94.496162 286.421277 
L 94.496162 271.670058 
L 94.496162 271.670058 
L 84.270822 282.666421 
L 79.158152 282.130013 
L 74.045482 283.739237 
L 71.489147 284.812053 
z
" clip-path="url(#pe996ea9f11)" style="fill: #de4968; fill-opacity: 0.2; stroke: #de4968; stroke-opacity: 0.2"/>
    <path d="M 104.721502 269.256222 
L 104.721502 284.275645 
L 125.172182 284.812053 
L 125.172182 274.083894 
L 125.172182 274.083894 
L 104.721502 269.256222 
z
" clip-path="url(#pe996ea9f11)" style="fill: #de4968; fill-opacity: 0.2; stroke: #de4968; stroke-opacity: 0.2"/>
    <path d="M 145.622862 269.256222 
L 145.622862 281.593605 
L 186.524222 281.593605 
L 186.524222 273.547486 
L 186.524222 273.547486 
L 145.622862 269.256222 
z
" clip-path="url(#pe996ea9f11)" style="fill: #de4968; fill-opacity: 0.2; stroke: #de4968; stroke-opacity: 0.2"/>
   </g>
   <g id="FillBetweenPolyCollection_4">
    <path d="M 71.489147 267.11059 
L 71.489147 278.911565 
L 74.045482 278.375157 
L 79.158152 278.911565 
L 84.270822 277.838749 
L 94.496162 270.597242 
L 94.496162 180.614803 
L 94.496162 180.614803 
L 84.270822 255.309614 
L 79.158152 235.462519 
L 74.045482 263.355734 
L 71.489147 267.11059 
z
" clip-path="url(#pe996ea9f11)" style="fill: #fe9f6d; fill-opacity: 0.2; stroke: #fe9f6d; stroke-opacity: 0.2"/>
    <path d="M 104.721502 98.678483 
L 104.721502 258.528062 
L 125.172182 267.11059 
L 125.172182 152.319282 
L 125.172182 152.319282 
L 104.721502 98.678483 
z
" clip-path="url(#pe996ea9f11)" style="fill: #fe9f6d; fill-opacity: 0.2; stroke: #fe9f6d; stroke-opacity: 0.2"/>
    <path d="M 145.622862 111.552275 
L 145.622862 259.600878 
L 186.524222 240.826599 
L 186.524222 162.511033 
L 186.524222 162.511033 
L 145.622862 111.552275 
z
" clip-path="url(#pe996ea9f11)" style="fill: #fe9f6d; fill-opacity: 0.2; stroke: #fe9f6d; stroke-opacity: 0.2"/>
   </g>
   <g id="line2d_12">
    <path d="M 66.376477 289.639725 
L 67.654645 289.639725 
L 68.932812 289.639725 
L 71.489147 289.103317 
L 74.045482 288.835113 
L 79.158152 288.566909 
L 84.270822 288.835113 
L 94.496162 287.359991 
L 98.330665 281.593605 
L 104.721502 284.007441 
L 125.172182 286.778882 
L 132.841187 282.130013 
L 145.622862 284.812053 
L 186.524222 285.884869 
L 201.862232 283.739237 
L 227.425582 282.130013 
L 309.228303 284.812053 
L 339.904323 283.739237 
L 391.031023 282.666421 
" clip-path="url(#pe996ea9f11)" style="fill: none; stroke: #3b0f70; stroke-width: 1.5; stroke-linecap: round"/>
   </g>
   <g id="line2d_13">
    <path d="M 66.376477 287.494093 
L 67.654645 288.030501 
L 68.932812 286.421277 
L 71.489147 286.689481 
L 74.045482 284.275645 
L 79.158152 284.454448 
L 84.270822 285.080257 
L 94.496162 279.716177 
L 98.330665 267.11059 
L 104.721502 268.719814 
L 125.172182 278.196355 
L 132.841187 263.355734 
L 145.622862 272.742874 
L 186.524222 275.424913 
L 201.862232 267.646998 
L 227.425582 262.282918 
L 309.228303 269.79263 
L 339.904323 266.574182 
L 391.031023 262.282918 
" clip-path="url(#pe996ea9f11)" style="fill: none; stroke: #8c2981; stroke-width: 1.5; stroke-linecap: round"/>
   </g>
   <g id="line2d_14">
    <path d="M 66.376477 286.421277 
L 67.654645 287.494093 
L 68.932812 286.957685 
L 71.489147 286.153073 
L 74.045482 285.348461 
L 79.158152 284.990856 
L 84.270822 284.812053 
L 94.496162 280.386687 
L 98.330665 273.547486 
L 104.721502 276.765933 
L 125.172182 279.805579 
L 132.841187 275.156709 
L 145.622862 275.424913 
L 186.524222 277.570545 
L 201.862232 273.011078 
L 227.425582 266.037774 
L 309.228303 271.938262 
L 339.904323 273.547486 
L 391.031023 266.574182 
" clip-path="url(#pe996ea9f11)" style="fill: none; stroke: #de4968; stroke-width: 1.5; stroke-linecap: round"/>
   </g>
   <g id="line2d_15">
    <path d="M 66.376477 277.302341 
L 67.654645 275.693117 
L 68.932812 278.911565 
L 71.489147 273.011078 
L 74.045482 270.865446 
L 79.158152 260.852497 
L 84.270822 266.574182 
L 94.496162 233.585091 
L 98.330665 142.663938 
L 104.721502 178.603273 
L 125.172182 221.158306 
L 132.841187 143.736754 
L 145.622862 185.576576 
L 186.524222 201.668816 
L 201.862232 142.12753 
L 227.425582 47.719725 
L 309.228303 149.100834 
L 339.904323 148.028018 
L 391.031023 97.069259 
" clip-path="url(#pe996ea9f11)" style="fill: none; stroke: #fe9f6d; stroke-width: 1.5; stroke-linecap: round"/>
   </g>
   <g id="line2d_16"/>
   <g id="line2d_17"/>
   <g id="line2d_18"/>
   <g id="line2d_19"/>
   <g id="text_14">
    <path d="M 126.097746 288.474367 
L 127.475337 287.639285 
L 124.591836 282.882519 
L 123.274897 284.091946 
L 122.809163 283.323648 
L 124.118085 282.119081 
L 124.961209 281.607988 
L 128.310444 287.133053 
L 129.688036 286.297971 
L 130.118131 287.007478 
L 126.527841 289.183873 
L 126.097746 288.474367 
z
M 131.638 281.36475 
Q 131.070128 281.708988 130.973123 282.299497 
Q 130.876645 282.887859 131.286491 283.563962 
Q 131.693907 284.236055 132.262599 284.42668 
Q 132.831817 284.615159 133.39969 284.270921 
Q 133.967562 283.926682 134.062421 283.335647 
Q 134.156469 282.743276 133.749053 282.071183 
Q 133.339207 281.395081 132.772945 281.208464 
Q 132.205873 281.020512 131.638 281.36475 
z
M 131.709287 277.705574 
L 132.175021 278.473872 
Q 131.766295 278.516994 131.395154 278.634173 
Q 131.023202 278.750016 130.705193 278.94279 
Q 129.870087 279.449022 129.770959 280.280177 
Q 129.673167 281.110522 130.301274 282.288344 
Q 130.326817 281.775871 130.580826 281.356954 
Q 130.836171 280.937227 131.282452 280.666696 
Q 132.22178 280.097285 133.112796 280.337361 
Q 134.003001 280.576101 134.597521 281.55685 
Q 135.179891 282.517557 134.964357 283.443029 
Q 134.748012 284.367165 133.804676 284.939006 
Q 132.722378 285.595083 131.648314 285.113326 
Q 130.573441 284.630232 129.619293 283.056223 
Q 128.723464 281.578419 128.891992 280.273983 
Q 129.060519 278.969548 130.241694 278.253532 
Q 130.559702 278.060759 130.921124 277.927546 
Q 131.282546 277.794333 131.709287 277.705574 
z
M 133.408144 276.487546 
L 134.251267 275.976454 
L 135.848532 278.611382 
L 137.049208 274.280372 
L 138.135514 273.621865 
L 136.802633 278.403931 
L 142.135313 279.72279 
L 141.024955 280.395877 
L 136.21059 279.20865 
L 138.030598 282.211025 
L 137.187474 282.722117 
L 133.408144 276.487546 
z
" clip-path="url(#pe996ea9f11)" style="fill: #3b0f70; stroke: #ffffff; stroke-width: 5"/>
    <path d="M 126.097746 288.474367 
L 127.475337 287.639285 
L 124.591836 282.882519 
L 123.274897 284.091946 
L 122.809163 283.323648 
L 124.118085 282.119081 
L 124.961209 281.607988 
L 128.310444 287.133053 
L 129.688036 286.297971 
L 130.118131 287.007478 
L 126.527841 289.183873 
L 126.097746 288.474367 
z
M 131.638 281.36475 
Q 131.070128 281.708988 130.973123 282.299497 
Q 130.876645 282.887859 131.286491 283.563962 
Q 131.693907 284.236055 132.262599 284.42668 
Q 132.831817 284.615159 133.39969 284.270921 
Q 133.967562 283.926682 134.062421 283.335647 
Q 134.156469 282.743276 133.749053 282.071183 
Q 133.339207 281.395081 132.772945 281.208464 
Q 132.205873 281.020512 131.638 281.36475 
z
M 131.709287 277.705574 
L 132.175021 278.473872 
Q 131.766295 278.516994 131.395154 278.634173 
Q 131.023202 278.750016 130.705193 278.94279 
Q 129.870087 279.449022 129.770959 280.280177 
Q 129.673167 281.110522 130.301274 282.288344 
Q 130.326817 281.775871 130.580826 281.356954 
Q 130.836171 280.937227 131.282452 280.666696 
Q 132.22178 280.097285 133.112796 280.337361 
Q 134.003001 280.576101 134.597521 281.55685 
Q 135.179891 282.517557 134.964357 283.443029 
Q 134.748012 284.367165 133.804676 284.939006 
Q 132.722378 285.595083 131.648314 285.113326 
Q 130.573441 284.630232 129.619293 283.056223 
Q 128.723464 281.578419 128.891992 280.273983 
Q 129.060519 278.969548 130.241694 278.253532 
Q 130.559702 278.060759 130.921124 277.927546 
Q 131.282546 277.794333 131.709287 277.705574 
z
M 133.408144 276.487546 
L 134.251267 275.976454 
L 135.848532 278.611382 
L 137.049208 274.280372 
L 138.135514 273.621865 
L 136.802633 278.403931 
L 142.135313 279.72279 
L 141.024955 280.395877 
L 136.21059 279.20865 
L 138.030598 282.211025 
L 137.187474 282.722117 
L 133.408144 276.487546 
z
" clip-path="url(#pe996ea9f11)" style="fill: #3b0f70"/>
   </g>
   <g id="text_15">
    <path d="M 191.857267 274.884142 
L 193.294029 274.155558 
L 190.778262 269.194478 
L 189.373687 270.30092 
L 188.967348 269.499622 
L 190.363561 268.39742 
L 191.242899 267.951507 
L 194.165005 273.713886 
L 195.601768 272.985303 
L 195.977013 273.725284 
L 192.232512 275.624123 
L 191.857267 274.884142 
z
M 194.378239 266.361574 
L 195.689581 265.696592 
L 199.591617 269.280206 
L 199.016013 264.009755 
L 200.327355 263.344773 
L 203.624707 269.847133 
L 202.766272 270.282446 
L 199.87102 264.573022 
L 200.455929 269.882552 
L 199.57241 270.330585 
L 195.634591 266.721318 
L 198.529844 272.430741 
L 197.675591 272.863934 
L 194.378239 266.361574 
z
" clip-path="url(#pe996ea9f11)" style="fill: #8c2981; stroke: #ffffff; stroke-width: 5"/>
    <path d="M 191.857267 274.884142 
L 193.294029 274.155558 
L 190.778262 269.194478 
L 189.373687 270.30092 
L 188.967348 269.499622 
L 190.363561 268.39742 
L 191.242899 267.951507 
L 194.165005 273.713886 
L 195.601768 272.985303 
L 195.977013 273.725284 
L 192.232512 275.624123 
L 191.857267 274.884142 
z
M 194.378239 266.361574 
L 195.689581 265.696592 
L 199.591617 269.280206 
L 199.016013 264.009755 
L 200.327355 263.344773 
L 203.624707 269.847133 
L 202.766272 270.282446 
L 199.87102 264.573022 
L 200.455929 269.882552 
L 199.57241 270.330585 
L 195.634591 266.721318 
L 198.529844 272.430741 
L 197.675591 272.863934 
L 194.378239 266.361574 
z
" clip-path="url(#pe996ea9f11)" style="fill: #8c2981"/>
   </g>
   <g id="text_16">
    <path d="M 255.143609 269.971795 
L 258.576877 270.219439 
L 258.517186 271.046977 
L 253.901054 270.714012 
L 253.960745 269.886475 
Q 254.562046 269.347087 255.598656 268.441192 
Q 256.636936 267.533851 256.905189 267.268087 
Q 257.41562 266.772274 257.629163 266.417969 
Q 257.844265 266.063776 257.869895 265.70845 
Q 257.911712 265.128706 257.531261 264.734689 
Q 257.150922 264.339113 256.497931 264.292012 
Q 256.035071 264.258626 255.509204 264.38205 
Q 254.984895 264.505587 254.376869 264.790707 
L 254.448588 263.796416 
Q 255.059557 263.600802 255.584173 263.516451 
Q 256.110347 263.432213 256.538921 263.463126 
Q 257.668798 263.544625 258.299684 264.158792 
Q 258.930684 264.771401 258.862562 265.715822 
Q 258.830187 266.164656 258.632872 266.554596 
Q 258.437228 266.94309 257.953725 267.45651 
Q 257.821936 267.589561 257.120271 268.21727 
Q 256.420164 268.845091 255.143609 269.971795 
z
M 261.019181 263.917881 
L 262.485683 264.023661 
L 263.983331 269.105514 
L 266.205706 264.291989 
L 267.672208 264.397769 
L 267.147693 271.669502 
L 266.187687 271.600256 
L 266.64824 265.215282 
L 264.413704 270.067093 
L 263.425646 269.995824 
L 261.910549 264.873549 
L 261.449996 271.258523 
L 260.494666 271.189614 
L 261.019181 263.917881 
z
" clip-path="url(#pe996ea9f11)" style="fill: #de4968; stroke: #ffffff; stroke-width: 5"/>
    <path d="M 255.143609 269.971795 
L 258.576877 270.219439 
L 258.517186 271.046977 
L 253.901054 270.714012 
L 253.960745 269.886475 
Q 254.562046 269.347087 255.598656 268.441192 
Q 256.636936 267.533851 256.905189 267.268087 
Q 257.41562 266.772274 257.629163 266.417969 
Q 257.844265 266.063776 257.869895 265.70845 
Q 257.911712 265.128706 257.531261 264.734689 
Q 257.150922 264.339113 256.497931 264.292012 
Q 256.035071 264.258626 255.509204 264.38205 
Q 254.984895 264.505587 254.376869 264.790707 
L 254.448588 263.796416 
Q 255.059557 263.600802 255.584173 263.516451 
Q 256.110347 263.432213 256.538921 263.463126 
Q 257.668798 263.544625 258.299684 264.158792 
Q 258.930684 264.771401 258.862562 265.715822 
Q 258.830187 266.164656 258.632872 266.554596 
Q 258.437228 266.94309 257.953725 267.45651 
Q 257.821936 267.589561 257.120271 268.21727 
Q 256.420164 268.845091 255.143609 269.971795 
z
M 261.019181 263.917881 
L 262.485683 264.023661 
L 263.983331 269.105514 
L 266.205706 264.291989 
L 267.672208 264.397769 
L 267.147693 271.669502 
L 266.187687 271.600256 
L 266.64824 265.215282 
L 264.413704 270.067093 
L 263.425646 269.995824 
L 261.910549 264.873549 
L 261.449996 271.258523 
L 260.494666 271.189614 
L 261.019181 263.917881 
z
" clip-path="url(#pe996ea9f11)" style="fill: #de4968"/>
   </g>
   <g id="text_17">
    <path d="M 321.284459 145.00508 
L 318.931392 148.98194 
L 321.420495 148.89489 
L 321.284459 145.00508 
z
M 320.995206 144.155296 
L 322.235073 144.111935 
L 322.401146 148.860594 
L 323.441135 148.824223 
L 323.469806 149.644034 
L 322.429817 149.680405 
L 322.489889 151.398105 
L 321.509238 151.432401 
L 321.449166 149.714701 
L 318.160552 149.829712 
L 318.127293 148.878731 
L 320.995206 144.155296 
z
M 324.816113 144.021669 
L 326.285527 143.97028 
L 328.317156 148.8632 
L 330.012936 143.839924 
L 331.48235 143.788535 
L 331.737165 151.074705 
L 330.775253 151.108346 
L 330.551512 144.710694 
L 328.847728 149.773337 
L 327.857708 149.80796 
L 325.804414 144.876712 
L 326.028155 151.274363 
L 325.070928 151.30784 
L 324.816113 144.021669 
z
" clip-path="url(#pe996ea9f11)" style="fill: #fe9f6d; stroke: #ffffff; stroke-width: 5"/>
    <path d="M 321.284459 145.00508 
L 318.931392 148.98194 
L 321.420495 148.89489 
L 321.284459 145.00508 
z
M 320.995206 144.155296 
L 322.235073 144.111935 
L 322.401146 148.860594 
L 323.441135 148.824223 
L 323.469806 149.644034 
L 322.429817 149.680405 
L 322.489889 151.398105 
L 321.509238 151.432401 
L 321.449166 149.714701 
L 318.160552 149.829712 
L 318.127293 148.878731 
L 320.995206 144.155296 
z
M 324.816113 144.021669 
L 326.285527 143.97028 
L 328.317156 148.8632 
L 330.012936 143.839924 
L 331.48235 143.788535 
L 331.737165 151.074705 
L 330.775253 151.108346 
L 330.551512 144.710694 
L 328.847728 149.773337 
L 327.857708 149.80796 
L 325.804414 144.876712 
L 326.028155 151.274363 
L 325.070928 151.30784 
L 324.816113 144.021669 
z
" clip-path="url(#pe996ea9f11)" style="fill: #fe9f6d"/>
   </g>
   <g id="patch_3">
    <path d="M 50.14375 301.735725 
L 50.14375 35.623725 
" style="fill: none; stroke: #cccccc; stroke-width: 0.8; stroke-linejoin: miter; stroke-linecap: square"/>
   </g>
   <g id="patch_4">
    <path d="M 407.26375 301.735725 
L 407.26375 35.623725 
" style="fill: none; stroke: #cccccc; stroke-width: 0.8; stroke-linejoin: miter; stroke-linecap: square"/>
   </g>
   <g id="patch_5">
    <path d="M 50.14375 301.735725 
L 407.26375 301.735725 
" style="fill: none; stroke: #cccccc; stroke-width: 0.8; stroke-linejoin: miter; stroke-linecap: square"/>
   </g>
   <g id="patch_6">
    <path d="M 50.14375 35.623725 
L 407.26375 35.623725 
" style="fill: none; stroke: #cccccc; stroke-width: 0.8; stroke-linejoin: miter; stroke-linecap: square"/>
   </g>
   <g id="text_18">
    <!-- b = [131072], s = [1] -->
    <g style="fill: #262626; opacity: 0.75" transform="translate(174.938906 30.882918) scale(0.1 -0.1)">
     <defs>
      <path id="DejaVuSans-3d" d="M 678 2906 
L 4684 2906 
L 4684 2381 
L 678 2381 
L 678 2906 
z
M 678 1631 
L 4684 1631 
L 4684 1100 
L 678 1100 
L 678 1631 
z
" transform="scale(0.015625)"/>
      <path id="DejaVuSans-5b" d="M 550 4863 
L 1875 4863 
L 1875 4416 
L 1125 4416 
L 1125 -397 
L 1875 -397 
L 1875 -844 
L 550 -844 
L 550 4863 
z
" transform="scale(0.015625)"/>
      <path id="DejaVuSans-37" d="M 525 4666 
L 3525 4666 
L 3525 4397 
L 1831 0 
L 1172 0 
L 2766 4134 
L 525 4134 
L 525 4666 
z
" transform="scale(0.015625)"/>
      <path id="DejaVuSans-5d" d="M 1947 4863 
L 1947 -844 
L 622 -844 
L 622 -397 
L 1369 -397 
L 1369 4416 
L 622 4416 
L 622 4863 
L 1947 4863 
z
" transform="scale(0.015625)"/>
      <path id="DejaVuSans-2c" d="M 750 794 
L 1409 794 
L 1409 256 
L 897 -744 
L 494 -744 
L 750 256 
L 750 794 
z
" transform="scale(0.015625)"/>
     </defs>
     <use xlink:href="#DejaVuSans-62"/>
     <use xlink:href="#DejaVuSans-20" transform="translate(63.476562 0)"/>
     <use xlink:href="#DejaVuSans-3d" transform="translate(95.263672 0)"/>
     <use xlink:href="#DejaVuSans-20" transform="translate(179.052734 0)"/>
     <use xlink:href="#DejaVuSans-5b" transform="translate(210.839844 0)"/>
     <use xlink:href="#DejaVuSans-31" transform="translate(249.853516 0)"/>
     <use xlink:href="#DejaVuSans-33" transform="translate(313.476562 0)"/>
     <use xlink:href="#DejaVuSans-31" transform="translate(377.099609 0)"/>
     <use xlink:href="#DejaVuSans-30" transform="translate(440.722656 0)"/>
     <use xlink:href="#DejaVuSans-37" transform="translate(504.345703 0)"/>
     <use xlink:href="#DejaVuSans-32" transform="translate(567.96875 0)"/>
     <use xlink:href="#DejaVuSans-5d" transform="translate(631.591797 0)"/>
     <use xlink:href="#DejaVuSans-2c" transform="translate(670.605469 0)"/>
     <use xlink:href="#DejaVuSans-20" transform="translate(702.392578 0)"/>
     <use xlink:href="#DejaVuSans-73" transform="translate(734.179688 0)"/>
     <use xlink:href="#DejaVuSans-20" transform="translate(786.279297 0)"/>
     <use xlink:href="#DejaVuSans-3d" transform="translate(818.066406 0)"/>
     <use xlink:href="#DejaVuSans-20" transform="translate(901.855469 0)"/>
     <use xlink:href="#DejaVuSans-5b" transform="translate(933.642578 0)"/>
     <use xlink:href="#DejaVuSans-31" transform="translate(972.65625 0)"/>
     <use xlink:href="#DejaVuSans-5d" transform="translate(1036.279297 0)"/>
    </g>
   </g>
   <g id="text_19">
    <!-- Latency vs Number of Tasks -->
    <g style="fill: #262626" transform="translate(134.215938 16.318125) scale(0.12 -0.12)">
     <defs>
      <path id="DejaVuSans-Bold-4c" d="M 588 4666 
L 1791 4666 
L 1791 909 
L 3903 909 
L 3903 0 
L 588 0 
L 588 4666 
z
" transform="scale(0.015625)"/>
      <path id="DejaVuSans-Bold-61" d="M 2106 1575 
Q 1756 1575 1579 1456 
Q 1403 1338 1403 1106 
Q 1403 894 1545 773 
Q 1688 653 1941 653 
Q 2256 653 2472 879 
Q 2688 1106 2688 1447 
L 2688 1575 
L 2106 1575 
z
M 3816 1997 
L 3816 0 
L 2688 0 
L 2688 519 
Q 2463 200 2181 54 
Q 1900 -91 1497 -91 
Q 953 -91 614 226 
Q 275 544 275 1050 
Q 275 1666 698 1953 
Q 1122 2241 2028 2241 
L 2688 2241 
L 2688 2328 
Q 2688 2594 2478 2717 
Q 2269 2841 1825 2841 
Q 1466 2841 1156 2769 
Q 847 2697 581 2553 
L 581 3406 
Q 941 3494 1303 3539 
Q 1666 3584 2028 3584 
Q 2975 3584 3395 3211 
Q 3816 2838 3816 1997 
z
" transform="scale(0.015625)"/>
      <path id="DejaVuSans-Bold-74" d="M 1759 4494 
L 1759 3500 
L 2913 3500 
L 2913 2700 
L 1759 2700 
L 1759 1216 
Q 1759 972 1856 886 
Q 1953 800 2241 800 
L 2816 800 
L 2816 0 
L 1856 0 
Q 1194 0 917 276 
Q 641 553 641 1216 
L 641 2700 
L 84 2700 
L 84 3500 
L 641 3500 
L 641 4494 
L 1759 4494 
z
" transform="scale(0.015625)"/>
      <path id="DejaVuSans-Bold-65" d="M 4031 1759 
L 4031 1441 
L 1416 1441 
Q 1456 1047 1700 850 
Q 1944 653 2381 653 
Q 2734 653 3104 758 
Q 3475 863 3866 1075 
L 3866 213 
Q 3469 63 3072 -14 
Q 2675 -91 2278 -91 
Q 1328 -91 801 392 
Q 275 875 275 1747 
Q 275 2603 792 3093 
Q 1309 3584 2216 3584 
Q 3041 3584 3536 3087 
Q 4031 2591 4031 1759 
z
M 2881 2131 
Q 2881 2450 2695 2645 
Q 2509 2841 2209 2841 
Q 1884 2841 1681 2658 
Q 1478 2475 1428 2131 
L 2881 2131 
z
" transform="scale(0.015625)"/>
      <path id="DejaVuSans-Bold-6e" d="M 4056 2131 
L 4056 0 
L 2931 0 
L 2931 347 
L 2931 1631 
Q 2931 2084 2911 2256 
Q 2891 2428 2841 2509 
Q 2775 2619 2662 2680 
Q 2550 2741 2406 2741 
Q 2056 2741 1856 2470 
Q 1656 2200 1656 1722 
L 1656 0 
L 538 0 
L 538 3500 
L 1656 3500 
L 1656 2988 
Q 1909 3294 2193 3439 
Q 2478 3584 2822 3584 
Q 3428 3584 3742 3212 
Q 4056 2841 4056 2131 
z
" transform="scale(0.015625)"/>
      <path id="DejaVuSans-Bold-63" d="M 3366 3391 
L 3366 2478 
Q 3138 2634 2908 2709 
Q 2678 2784 2431 2784 
Q 1963 2784 1702 2511 
Q 1441 2238 1441 1747 
Q 1441 1256 1702 982 
Q 1963 709 2431 709 
Q 2694 709 2930 787 
Q 3166 866 3366 1019 
L 3366 103 
Q 3103 6 2833 -42 
Q 2563 -91 2291 -91 
Q 1344 -91 809 395 
Q 275 881 275 1747 
Q 275 2613 809 3098 
Q 1344 3584 2291 3584 
Q 2566 3584 2833 3536 
Q 3100 3488 3366 3391 
z
" transform="scale(0.015625)"/>
      <path id="DejaVuSans-Bold-79" d="M 78 3500 
L 1197 3500 
L 2138 1125 
L 2938 3500 
L 4056 3500 
L 2584 -331 
Q 2363 -916 2067 -1148 
Q 1772 -1381 1288 -1381 
L 641 -1381 
L 641 -647 
L 991 -647 
Q 1275 -647 1404 -556 
Q 1534 -466 1606 -231 
L 1638 -134 
L 78 3500 
z
" transform="scale(0.015625)"/>
      <path id="DejaVuSans-Bold-20" transform="scale(0.015625)"/>
      <path id="DejaVuSans-Bold-76" d="M 97 3500 
L 1216 3500 
L 2088 1081 
L 2956 3500 
L 4078 3500 
L 2700 0 
L 1472 0 
L 97 3500 
z
" transform="scale(0.015625)"/>
      <path id="DejaVuSans-Bold-73" d="M 3272 3391 
L 3272 2541 
Q 2913 2691 2578 2766 
Q 2244 2841 1947 2841 
Q 1628 2841 1473 2761 
Q 1319 2681 1319 2516 
Q 1319 2381 1436 2309 
Q 1553 2238 1856 2203 
L 2053 2175 
Q 2913 2066 3209 1816 
Q 3506 1566 3506 1031 
Q 3506 472 3093 190 
Q 2681 -91 1863 -91 
Q 1516 -91 1145 -36 
Q 775 19 384 128 
L 384 978 
Q 719 816 1070 734 
Q 1422 653 1784 653 
Q 2113 653 2278 743 
Q 2444 834 2444 1013 
Q 2444 1163 2330 1236 
Q 2216 1309 1875 1350 
L 1678 1375 
Q 931 1469 631 1722 
Q 331 1975 331 2491 
Q 331 3047 712 3315 
Q 1094 3584 1881 3584 
Q 2191 3584 2531 3537 
Q 2872 3491 3272 3391 
z
" transform="scale(0.015625)"/>
      <path id="DejaVuSans-Bold-4e" d="M 588 4666 
L 1931 4666 
L 3628 1466 
L 3628 4666 
L 4769 4666 
L 4769 0 
L 3425 0 
L 1728 3200 
L 1728 0 
L 588 0 
L 588 4666 
z
" transform="scale(0.015625)"/>
      <path id="DejaVuSans-Bold-75" d="M 500 1363 
L 500 3500 
L 1625 3500 
L 1625 3150 
Q 1625 2866 1622 2436 
Q 1619 2006 1619 1863 
Q 1619 1441 1641 1255 
Q 1663 1069 1716 984 
Q 1784 875 1895 815 
Q 2006 756 2150 756 
Q 2500 756 2700 1025 
Q 2900 1294 2900 1772 
L 2900 3500 
L 4019 3500 
L 4019 0 
L 2900 0 
L 2900 506 
Q 2647 200 2364 54 
Q 2081 -91 1741 -91 
Q 1134 -91 817 281 
Q 500 653 500 1363 
z
" transform="scale(0.015625)"/>
      <path id="DejaVuSans-Bold-6d" d="M 3781 2919 
Q 3994 3244 4286 3414 
Q 4578 3584 4928 3584 
Q 5531 3584 5847 3212 
Q 6163 2841 6163 2131 
L 6163 0 
L 5038 0 
L 5038 1825 
Q 5041 1866 5042 1909 
Q 5044 1953 5044 2034 
Q 5044 2406 4934 2573 
Q 4825 2741 4581 2741 
Q 4263 2741 4089 2478 
Q 3916 2216 3909 1719 
L 3909 0 
L 2784 0 
L 2784 1825 
Q 2784 2406 2684 2573 
Q 2584 2741 2328 2741 
Q 2006 2741 1831 2477 
Q 1656 2213 1656 1722 
L 1656 0 
L 531 0 
L 531 3500 
L 1656 3500 
L 1656 2988 
Q 1863 3284 2130 3434 
Q 2397 3584 2719 3584 
Q 3081 3584 3359 3409 
Q 3638 3234 3781 2919 
z
" transform="scale(0.015625)"/>
      <path id="DejaVuSans-Bold-62" d="M 2400 722 
Q 2759 722 2948 984 
Q 3138 1247 3138 1747 
Q 3138 2247 2948 2509 
Q 2759 2772 2400 2772 
Q 2041 2772 1848 2508 
Q 1656 2244 1656 1747 
Q 1656 1250 1848 986 
Q 2041 722 2400 722 
z
M 1656 2988 
Q 1888 3294 2169 3439 
Q 2450 3584 2816 3584 
Q 3463 3584 3878 3070 
Q 4294 2556 4294 1747 
Q 4294 938 3878 423 
Q 3463 -91 2816 -91 
Q 2450 -91 2169 54 
Q 1888 200 1656 506 
L 1656 0 
L 538 0 
L 538 4863 
L 1656 4863 
L 1656 2988 
z
" transform="scale(0.015625)"/>
      <path id="DejaVuSans-Bold-72" d="M 3138 2547 
Q 2991 2616 2845 2648 
Q 2700 2681 2553 2681 
Q 2122 2681 1889 2404 
Q 1656 2128 1656 1613 
L 1656 0 
L 538 0 
L 538 3500 
L 1656 3500 
L 1656 2925 
Q 1872 3269 2151 3426 
Q 2431 3584 2822 3584 
Q 2878 3584 2943 3579 
Q 3009 3575 3134 3559 
L 3138 2547 
z
" transform="scale(0.015625)"/>
      <path id="DejaVuSans-Bold-6f" d="M 2203 2784 
Q 1831 2784 1636 2517 
Q 1441 2250 1441 1747 
Q 1441 1244 1636 976 
Q 1831 709 2203 709 
Q 2569 709 2762 976 
Q 2956 1244 2956 1747 
Q 2956 2250 2762 2517 
Q 2569 2784 2203 2784 
z
M 2203 3584 
Q 3106 3584 3614 3096 
Q 4122 2609 4122 1747 
Q 4122 884 3614 396 
Q 3106 -91 2203 -91 
Q 1297 -91 786 396 
Q 275 884 275 1747 
Q 275 2609 786 3096 
Q 1297 3584 2203 3584 
z
" transform="scale(0.015625)"/>
      <path id="DejaVuSans-Bold-66" d="M 2841 4863 
L 2841 4128 
L 2222 4128 
Q 1984 4128 1890 4042 
Q 1797 3956 1797 3744 
L 1797 3500 
L 2753 3500 
L 2753 2700 
L 1797 2700 
L 1797 0 
L 678 0 
L 678 2700 
L 122 2700 
L 122 3500 
L 678 3500 
L 678 3744 
Q 678 4316 997 4589 
Q 1316 4863 1984 4863 
L 2841 4863 
z
" transform="scale(0.015625)"/>
      <path id="DejaVuSans-Bold-54" d="M 31 4666 
L 4331 4666 
L 4331 3756 
L 2784 3756 
L 2784 0 
L 1581 0 
L 1581 3756 
L 31 3756 
L 31 4666 
z
" transform="scale(0.015625)"/>
      <path id="DejaVuSans-Bold-6b" d="M 538 4863 
L 1656 4863 
L 1656 2216 
L 2944 3500 
L 4244 3500 
L 2534 1894 
L 4378 0 
L 3022 0 
L 1656 1459 
L 1656 0 
L 538 0 
L 538 4863 
z
" transform="scale(0.015625)"/>
     </defs>
     <use xlink:href="#DejaVuSans-Bold-4c"/>
     <use xlink:href="#DejaVuSans-Bold-61" transform="translate(63.720703 0)"/>
     <use xlink:href="#DejaVuSans-Bold-74" transform="translate(131.201172 0)"/>
     <use xlink:href="#DejaVuSans-Bold-65" transform="translate(179.003906 0)"/>
     <use xlink:href="#DejaVuSans-Bold-6e" transform="translate(246.826172 0)"/>
     <use xlink:href="#DejaVuSans-Bold-63" transform="translate(318.017578 0)"/>
     <use xlink:href="#DejaVuSans-Bold-79" transform="translate(377.294922 0)"/>
     <use xlink:href="#DejaVuSans-Bold-20" transform="translate(442.480469 0)"/>
     <use xlink:href="#DejaVuSans-Bold-76" transform="translate(477.294922 0)"/>
     <use xlink:href="#DejaVuSans-Bold-73" transform="translate(542.480469 0)"/>
     <use xlink:href="#DejaVuSans-Bold-20" transform="translate(602.001953 0)"/>
     <use xlink:href="#DejaVuSans-Bold-4e" transform="translate(636.816406 0)"/>
     <use xlink:href="#DejaVuSans-Bold-75" transform="translate(720.507812 0)"/>
     <use xlink:href="#DejaVuSans-Bold-6d" transform="translate(791.699219 0)"/>
     <use xlink:href="#DejaVuSans-Bold-62" transform="translate(895.898438 0)"/>
     <use xlink:href="#DejaVuSans-Bold-65" transform="translate(967.480469 0)"/>
     <use xlink:href="#DejaVuSans-Bold-72" transform="translate(1035.302734 0)"/>
     <use xlink:href="#DejaVuSans-Bold-20" transform="translate(1084.619141 0)"/>
     <use xlink:href="#DejaVuSans-Bold-6f" transform="translate(1119.433594 0)"/>
     <use xlink:href="#DejaVuSans-Bold-66" transform="translate(1188.134766 0)"/>
     <use xlink:href="#DejaVuSans-Bold-20" transform="translate(1231.640625 0)"/>
     <use xlink:href="#DejaVuSans-Bold-54" transform="translate(1266.455078 0)"/>
     <use xlink:href="#DejaVuSans-Bold-61" transform="translate(1321.792969 0)"/>
     <use xlink:href="#DejaVuSans-Bold-73" transform="translate(1389.273438 0)"/>
     <use xlink:href="#DejaVuSans-Bold-6b" transform="translate(1448.794922 0)"/>
     <use xlink:href="#DejaVuSans-Bold-73" transform="translate(1515.298828 0)"/>
    </g>
   </g>
   <g id="legend_1">
    <g id="patch_7">
     <path d="M 348.980938 207.0141 
L 400.26375 207.0141 
Q 402.26375 207.0141 402.26375 205.0141 
L 402.26375 132.34535 
Q 402.26375 130.34535 400.26375 130.34535 
L 348.980938 130.34535 
Q 346.980938 130.34535 346.980938 132.34535 
L 346.980938 205.0141 
Q 346.980938 207.0141 348.980938 207.0141 
z
" style="fill: #ffffff; opacity: 0.8; stroke: #cccccc; stroke-linejoin: miter"/>
    </g>
    <g id="text_20">
     <!-- xfer_str -->
     <g style="fill: #262626" transform="translate(355.650469 141.943787) scale(0.1 -0.1)">
      <defs>
       <path id="DejaVuSans-78" d="M 3513 3500 
L 2247 1797 
L 3578 0 
L 2900 0 
L 1881 1375 
L 863 0 
L 184 0 
L 1544 1831 
L 300 3500 
L 978 3500 
L 1906 2253 
L 2834 3500 
L 3513 3500 
z
" transform="scale(0.015625)"/>
       <path id="DejaVuSans-5f" d="M 3263 -1063 
L 3263 -1509 
L -63 -1509 
L -63 -1063 
L 3263 -1063 
z
" transform="scale(0.015625)"/>
      </defs>
      <use xlink:href="#DejaVuSans-78"/>
      <use xlink:href="#DejaVuSans-66" transform="translate(59.179688 0)"/>
      <use xlink:href="#DejaVuSans-65" transform="translate(94.384766 0)"/>
      <use xlink:href="#DejaVuSans-72" transform="translate(155.908203 0)"/>
      <use xlink:href="#DejaVuSans-5f" transform="translate(197.021484 0)"/>
      <use xlink:href="#DejaVuSans-73" transform="translate(247.021484 0)"/>
      <use xlink:href="#DejaVuSans-74" transform="translate(299.121094 0)"/>
      <use xlink:href="#DejaVuSans-72" transform="translate(338.330078 0)"/>
     </g>
    </g>
    <g id="line2d_20">
     <path d="M 350.980938 153.400037 
L 360.980938 153.400037 
L 370.980938 153.400037 
" style="fill: none; stroke: #3b0f70; stroke-width: 1.5; stroke-linecap: round"/>
    </g>
    <g id="text_21">
     <!-- 16K -->
     <g style="fill: #262626" transform="translate(378.980938 156.900037) scale(0.1 -0.1)">
      <defs>
       <path id="DejaVuSans-4b" d="M 628 4666 
L 1259 4666 
L 1259 2694 
L 3353 4666 
L 4166 4666 
L 1850 2491 
L 4331 0 
L 3500 0 
L 1259 2247 
L 1259 0 
L 628 0 
L 628 4666 
z
" transform="scale(0.015625)"/>
      </defs>
      <use xlink:href="#DejaVuSans-31"/>
      <use xlink:href="#DejaVuSans-36" transform="translate(63.623047 0)"/>
      <use xlink:href="#DejaVuSans-4b" transform="translate(127.246094 0)"/>
     </g>
    </g>
    <g id="line2d_21">
     <path d="M 350.980938 168.078162 
L 360.980938 168.078162 
L 370.980938 168.078162 
" style="fill: none; stroke: #8c2981; stroke-width: 1.5; stroke-linecap: round"/>
    </g>
    <g id="text_22">
     <!-- 1M -->
     <g style="fill: #262626" transform="translate(378.980938 171.578162) scale(0.1 -0.1)">
      <defs>
       <path id="DejaVuSans-4d" d="M 628 4666 
L 1569 4666 
L 2759 1491 
L 3956 4666 
L 4897 4666 
L 4897 0 
L 4281 0 
L 4281 4097 
L 3078 897 
L 2444 897 
L 1241 4097 
L 1241 0 
L 628 0 
L 628 4666 
z
" transform="scale(0.015625)"/>
      </defs>
      <use xlink:href="#DejaVuSans-31"/>
      <use xlink:href="#DejaVuSans-4d" transform="translate(63.623047 0)"/>
     </g>
    </g>
    <g id="line2d_22">
     <path d="M 350.980938 182.756287 
L 360.980938 182.756287 
L 370.980938 182.756287 
" style="fill: none; stroke: #de4968; stroke-width: 1.5; stroke-linecap: round"/>
    </g>
    <g id="text_23">
     <!-- 2M -->
     <g style="fill: #262626" transform="translate(378.980938 186.256287) scale(0.1 -0.1)">
      <use xlink:href="#DejaVuSans-32"/>
      <use xlink:href="#DejaVuSans-4d" transform="translate(63.623047 0)"/>
     </g>
    </g>
    <g id="line2d_23">
     <path d="M 350.980938 197.434413 
L 360.980938 197.434413 
L 370.980938 197.434413 
" style="fill: none; stroke: #fe9f6d; stroke-width: 1.5; stroke-linecap: round"/>
    </g>
    <g id="text_24">
     <!-- 4M -->
     <g style="fill: #262626" transform="translate(378.980938 200.934413) scale(0.1 -0.1)">
      <use xlink:href="#DejaVuSans-34"/>
      <use xlink:href="#DejaVuSans-4d" transform="translate(63.623047 0)"/>
     </g>
    </g>
   </g>
  </g>
 </g>
 <defs>
  <clipPath id="pe996ea9f11">
   <rect x="50.14375" y="35.623725" width="357.12" height="266.112"/>
  </clipPath>
 </defs>
</svg>
