<?xml version="1.0" encoding="utf-8" standalone="no"?>
<!DOCTYPE svg PUBLIC "-//W3C//DTD SVG 1.1//EN"
  "http://www.w3.org/Graphics/SVG/1.1/DTD/svg11.dtd">
<svg xmlns:xlink="http://www.w3.org/1999/xlink" width="418.832757pt" height="339.291975pt" viewBox="0 0 418.832757 339.291975" xmlns="http://www.w3.org/2000/svg" version="1.1">
 <metadata>
  <rdf:RDF xmlns:dc="http://purl.org/dc/elements/1.1/" xmlns:cc="http://creativecommons.org/ns#" xmlns:rdf="http://www.w3.org/1999/02/22-rdf-syntax-ns#">
   <cc:Work>
    <dc:type rdf:resource="http://purl.org/dc/dcmitype/StillImage"/>
    <dc:date>2025-10-10T16:11:48.271526</dc:date>
    <dc:format>image/svg+xml</dc:format>
    <dc:creator>
     <cc:Agent>
      <dc:title>Matplotlib v3.10.6, https://matplotlib.org/</dc:title>
     </cc:Agent>
    </dc:creator>
   </cc:Work>
  </rdf:RDF>
 </metadata>
 <defs>
  <style type="text/css">*{stroke-linejoin: round; stroke-linecap: butt}</style>
 </defs>
 <g id="figure_1">
  <g id="patch_1">
   <path d="M 0 339.291975 
L 418.832757 339.291975 
L 418.832757 0 
L 0 0 
z
" style="fill: #ffffff"/>
  </g>
  <g id="axes_1">
   <g id="patch_2">
    <path d="M 43.78125 301.735725 
L 400.90125 301.735725 
L 400.90125 35.623725 
L 43.78125 35.623725 
z
" style="fill: #ffffff"/>
   </g>
   <g id="matplotlib.axis_1">
    <g id="xtick_1">
     <g id="line2d_1">
      <path d="M 114.123068 301.735725 
L 114.123068 35.623725 
" clip-path="url(#p42b8b0f61f)" style="fill: none; stroke: #cccccc; stroke-width: 0.8; stroke-linecap: round"/>
     </g>
     <g id="text_1">
      <!-- 200 -->
      <g style="fill: #262626" transform="translate(104.579318 316.334162) scale(0.1 -0.1)">
       <defs>
        <path id="DejaVuSans-32" d="M 1228 531 
L 3431 531 
L 3431 0 
L 469 0 
L 469 531 
Q 828 903 1448 1529 
Q 2069 2156 2228 2338 
Q 2531 2678 2651 2914 
Q 2772 3150 2772 3378 
Q 2772 3750 2511 3984 
Q 2250 4219 1831 4219 
Q 1534 4219 1204 4116 
Q 875 4013 500 3803 
L 500 4441 
Q 881 4594 1212 4672 
Q 1544 4750 1819 4750 
Q 2544 4750 2975 4387 
Q 3406 4025 3406 3419 
Q 3406 3131 3298 2873 
Q 3191 2616 2906 2266 
Q 2828 2175 2409 1742 
Q 1991 1309 1228 531 
z
" transform="scale(0.015625)"/>
        <path id="DejaVuSans-30" d="M 2034 4250 
Q 1547 4250 1301 3770 
Q 1056 3291 1056 2328 
Q 1056 1369 1301 889 
Q 1547 409 2034 409 
Q 2525 409 2770 889 
Q 3016 1369 3016 2328 
Q 3016 3291 2770 3770 
Q 2525 4250 2034 4250 
z
M 2034 4750 
Q 2819 4750 3233 4129 
Q 3647 3509 3647 2328 
Q 3647 1150 3233 529 
Q 2819 -91 2034 -91 
Q 1250 -91 836 529 
Q 422 1150 422 2328 
Q 422 3509 836 4129 
Q 1250 4750 2034 4750 
z
" transform="scale(0.015625)"/>
       </defs>
       <use xlink:href="#DejaVuSans-32"/>
       <use xlink:href="#DejaVuSans-30" transform="translate(63.623047 0)"/>
       <use xlink:href="#DejaVuSans-30" transform="translate(127.246094 0)"/>
      </g>
     </g>
    </g>
    <g id="xtick_2">
     <g id="line2d_2">
      <path d="M 185.31924 301.735725 
L 185.31924 35.623725 
" clip-path="url(#p42b8b0f61f)" style="fill: none; stroke: #cccccc; stroke-width: 0.8; stroke-linecap: round"/>
     </g>
     <g id="text_2">
      <!-- 400 -->
      <g style="fill: #262626" transform="translate(175.77549 316.334162) scale(0.1 -0.1)">
       <defs>
        <path id="DejaVuSans-34" d="M 2419 4116 
L 825 1625 
L 2419 1625 
L 2419 4116 
z
M 2253 4666 
L 3047 4666 
L 3047 1625 
L 3713 1625 
L 3713 1100 
L 3047 1100 
L 3047 0 
L 2419 0 
L 2419 1100 
L 313 1100 
L 313 1709 
L 2253 4666 
z
" transform="scale(0.015625)"/>
       </defs>
       <use xlink:href="#DejaVuSans-34"/>
       <use xlink:href="#DejaVuSans-30" transform="translate(63.623047 0)"/>
       <use xlink:href="#DejaVuSans-30" transform="translate(127.246094 0)"/>
      </g>
     </g>
    </g>
    <g id="xtick_3">
     <g id="line2d_3">
      <path d="M 256.515413 301.735725 
L 256.515413 35.623725 
" clip-path="url(#p42b8b0f61f)" style="fill: none; stroke: #cccccc; stroke-width: 0.8; stroke-linecap: round"/>
     </g>
     <g id="text_3">
      <!-- 600 -->
      <g style="fill: #262626" transform="translate(246.971663 316.334162) scale(0.1 -0.1)">
       <defs>
        <path id="DejaVuSans-36" d="M 2113 2584 
Q 1688 2584 1439 2293 
Q 1191 2003 1191 1497 
Q 1191 994 1439 701 
Q 1688 409 2113 409 
Q 2538 409 2786 701 
Q 3034 994 3034 1497 
Q 3034 2003 2786 2293 
Q 2538 2584 2113 2584 
z
M 3366 4563 
L 3366 3988 
Q 3128 4100 2886 4159 
Q 2644 4219 2406 4219 
Q 1781 4219 1451 3797 
Q 1122 3375 1075 2522 
Q 1259 2794 1537 2939 
Q 1816 3084 2150 3084 
Q 2853 3084 3261 2657 
Q 3669 2231 3669 1497 
Q 3669 778 3244 343 
Q 2819 -91 2113 -91 
Q 1303 -91 875 529 
Q 447 1150 447 2328 
Q 447 3434 972 4092 
Q 1497 4750 2381 4750 
Q 2619 4750 2861 4703 
Q 3103 4656 3366 4563 
z
" transform="scale(0.015625)"/>
       </defs>
       <use xlink:href="#DejaVuSans-36"/>
       <use xlink:href="#DejaVuSans-30" transform="translate(63.623047 0)"/>
       <use xlink:href="#DejaVuSans-30" transform="translate(127.246094 0)"/>
      </g>
     </g>
    </g>
    <g id="xtick_4">
     <g id="line2d_4">
      <path d="M 327.711585 301.735725 
L 327.711585 35.623725 
" clip-path="url(#p42b8b0f61f)" style="fill: none; stroke: #cccccc; stroke-width: 0.8; stroke-linecap: round"/>
     </g>
     <g id="text_4">
      <!-- 800 -->
      <g style="fill: #262626" transform="translate(318.167835 316.334162) scale(0.1 -0.1)">
       <defs>
        <path id="DejaVuSans-38" d="M 2034 2216 
Q 1584 2216 1326 1975 
Q 1069 1734 1069 1313 
Q 1069 891 1326 650 
Q 1584 409 2034 409 
Q 2484 409 2743 651 
Q 3003 894 3003 1313 
Q 3003 1734 2745 1975 
Q 2488 2216 2034 2216 
z
M 1403 2484 
Q 997 2584 770 2862 
Q 544 3141 544 3541 
Q 544 4100 942 4425 
Q 1341 4750 2034 4750 
Q 2731 4750 3128 4425 
Q 3525 4100 3525 3541 
Q 3525 3141 3298 2862 
Q 3072 2584 2669 2484 
Q 3125 2378 3379 2068 
Q 3634 1759 3634 1313 
Q 3634 634 3220 271 
Q 2806 -91 2034 -91 
Q 1263 -91 848 271 
Q 434 634 434 1313 
Q 434 1759 690 2068 
Q 947 2378 1403 2484 
z
M 1172 3481 
Q 1172 3119 1398 2916 
Q 1625 2713 2034 2713 
Q 2441 2713 2670 2916 
Q 2900 3119 2900 3481 
Q 2900 3844 2670 4047 
Q 2441 4250 2034 4250 
Q 1625 4250 1398 4047 
Q 1172 3844 1172 3481 
z
" transform="scale(0.015625)"/>
       </defs>
       <use xlink:href="#DejaVuSans-38"/>
       <use xlink:href="#DejaVuSans-30" transform="translate(63.623047 0)"/>
       <use xlink:href="#DejaVuSans-30" transform="translate(127.246094 0)"/>
      </g>
     </g>
    </g>
    <g id="xtick_5">
     <g id="line2d_5">
      <path d="M 398.907757 301.735725 
L 398.907757 35.623725 
" clip-path="url(#p42b8b0f61f)" style="fill: none; stroke: #cccccc; stroke-width: 0.8; stroke-linecap: round"/>
     </g>
     <g id="text_5">
      <!-- 1000 -->
      <g style="fill: #262626" transform="translate(386.182757 316.334162) scale(0.1 -0.1)">
       <defs>
        <path id="DejaVuSans-31" d="M 794 531 
L 1825 531 
L 1825 4091 
L 703 3866 
L 703 4441 
L 1819 4666 
L 2450 4666 
L 2450 531 
L 3481 531 
L 3481 0 
L 794 0 
L 794 531 
z
" transform="scale(0.015625)"/>
       </defs>
       <use xlink:href="#DejaVuSans-31"/>
       <use xlink:href="#DejaVuSans-30" transform="translate(63.623047 0)"/>
       <use xlink:href="#DejaVuSans-30" transform="translate(127.246094 0)"/>
       <use xlink:href="#DejaVuSans-30" transform="translate(190.869141 0)"/>
      </g>
     </g>
    </g>
    <g id="text_6">
     <!-- Number of Tasks -->
     <g style="fill: #262626" transform="translate(180.86 330.012287) scale(0.1 -0.1)">
      <defs>
       <path id="DejaVuSans-4e" d="M 628 4666 
L 1478 4666 
L 3547 763 
L 3547 4666 
L 4159 4666 
L 4159 0 
L 3309 0 
L 1241 3903 
L 1241 0 
L 628 0 
L 628 4666 
z
" transform="scale(0.015625)"/>
       <path id="DejaVuSans-75" d="M 544 1381 
L 544 3500 
L 1119 3500 
L 1119 1403 
Q 1119 906 1312 657 
Q 1506 409 1894 409 
Q 2359 409 2629 706 
Q 2900 1003 2900 1516 
L 2900 3500 
L 3475 3500 
L 3475 0 
L 2900 0 
L 2900 538 
Q 2691 219 2414 64 
Q 2138 -91 1772 -91 
Q 1169 -91 856 284 
Q 544 659 544 1381 
z
M 1991 3584 
L 1991 3584 
z
" transform="scale(0.015625)"/>
       <path id="DejaVuSans-6d" d="M 3328 2828 
Q 3544 3216 3844 3400 
Q 4144 3584 4550 3584 
Q 5097 3584 5394 3201 
Q 5691 2819 5691 2113 
L 5691 0 
L 5113 0 
L 5113 2094 
Q 5113 2597 4934 2840 
Q 4756 3084 4391 3084 
Q 3944 3084 3684 2787 
Q 3425 2491 3425 1978 
L 3425 0 
L 2847 0 
L 2847 2094 
Q 2847 2600 2669 2842 
Q 2491 3084 2119 3084 
Q 1678 3084 1418 2786 
Q 1159 2488 1159 1978 
L 1159 0 
L 581 0 
L 581 3500 
L 1159 3500 
L 1159 2956 
Q 1356 3278 1631 3431 
Q 1906 3584 2284 3584 
Q 2666 3584 2933 3390 
Q 3200 3197 3328 2828 
z
" transform="scale(0.015625)"/>
       <path id="DejaVuSans-62" d="M 3116 1747 
Q 3116 2381 2855 2742 
Q 2594 3103 2138 3103 
Q 1681 3103 1420 2742 
Q 1159 2381 1159 1747 
Q 1159 1113 1420 752 
Q 1681 391 2138 391 
Q 2594 391 2855 752 
Q 3116 1113 3116 1747 
z
M 1159 2969 
Q 1341 3281 1617 3432 
Q 1894 3584 2278 3584 
Q 2916 3584 3314 3078 
Q 3713 2572 3713 1747 
Q 3713 922 3314 415 
Q 2916 -91 2278 -91 
Q 1894 -91 1617 61 
Q 1341 213 1159 525 
L 1159 0 
L 581 0 
L 581 4863 
L 1159 4863 
L 1159 2969 
z
" transform="scale(0.015625)"/>
       <path id="DejaVuSans-65" d="M 3597 1894 
L 3597 1613 
L 953 1613 
Q 991 1019 1311 708 
Q 1631 397 2203 397 
Q 2534 397 2845 478 
Q 3156 559 3463 722 
L 3463 178 
Q 3153 47 2828 -22 
Q 2503 -91 2169 -91 
Q 1331 -91 842 396 
Q 353 884 353 1716 
Q 353 2575 817 3079 
Q 1281 3584 2069 3584 
Q 2775 3584 3186 3129 
Q 3597 2675 3597 1894 
z
M 3022 2063 
Q 3016 2534 2758 2815 
Q 2500 3097 2075 3097 
Q 1594 3097 1305 2825 
Q 1016 2553 972 2059 
L 3022 2063 
z
" transform="scale(0.015625)"/>
       <path id="DejaVuSans-72" d="M 2631 2963 
Q 2534 3019 2420 3045 
Q 2306 3072 2169 3072 
Q 1681 3072 1420 2755 
Q 1159 2438 1159 1844 
L 1159 0 
L 581 0 
L 581 3500 
L 1159 3500 
L 1159 2956 
Q 1341 3275 1631 3429 
Q 1922 3584 2338 3584 
Q 2397 3584 2469 3576 
Q 2541 3569 2628 3553 
L 2631 2963 
z
" transform="scale(0.015625)"/>
       <path id="DejaVuSans-20" transform="scale(0.015625)"/>
       <path id="DejaVuSans-6f" d="M 1959 3097 
Q 1497 3097 1228 2736 
Q 959 2375 959 1747 
Q 959 1119 1226 758 
Q 1494 397 1959 397 
Q 2419 397 2687 759 
Q 2956 1122 2956 1747 
Q 2956 2369 2687 2733 
Q 2419 3097 1959 3097 
z
M 1959 3584 
Q 2709 3584 3137 3096 
Q 3566 2609 3566 1747 
Q 3566 888 3137 398 
Q 2709 -91 1959 -91 
Q 1206 -91 779 398 
Q 353 888 353 1747 
Q 353 2609 779 3096 
Q 1206 3584 1959 3584 
z
" transform="scale(0.015625)"/>
       <path id="DejaVuSans-66" d="M 2375 4863 
L 2375 4384 
L 1825 4384 
Q 1516 4384 1395 4259 
Q 1275 4134 1275 3809 
L 1275 3500 
L 2222 3500 
L 2222 3053 
L 1275 3053 
L 1275 0 
L 697 0 
L 697 3053 
L 147 3053 
L 147 3500 
L 697 3500 
L 697 3744 
Q 697 4328 969 4595 
Q 1241 4863 1831 4863 
L 2375 4863 
z
" transform="scale(0.015625)"/>
       <path id="DejaVuSans-54" d="M -19 4666 
L 3928 4666 
L 3928 4134 
L 2272 4134 
L 2272 0 
L 1638 0 
L 1638 4134 
L -19 4134 
L -19 4666 
z
" transform="scale(0.015625)"/>
       <path id="DejaVuSans-61" d="M 2194 1759 
Q 1497 1759 1228 1600 
Q 959 1441 959 1056 
Q 959 750 1161 570 
Q 1363 391 1709 391 
Q 2188 391 2477 730 
Q 2766 1069 2766 1631 
L 2766 1759 
L 2194 1759 
z
M 3341 1997 
L 3341 0 
L 2766 0 
L 2766 531 
Q 2569 213 2275 61 
Q 1981 -91 1556 -91 
Q 1019 -91 701 211 
Q 384 513 384 1019 
Q 384 1609 779 1909 
Q 1175 2209 1959 2209 
L 2766 2209 
L 2766 2266 
Q 2766 2663 2505 2880 
Q 2244 3097 1772 3097 
Q 1472 3097 1187 3025 
Q 903 2953 641 2809 
L 641 3341 
Q 956 3463 1253 3523 
Q 1550 3584 1831 3584 
Q 2591 3584 2966 3190 
Q 3341 2797 3341 1997 
z
" transform="scale(0.015625)"/>
       <path id="DejaVuSans-73" d="M 2834 3397 
L 2834 2853 
Q 2591 2978 2328 3040 
Q 2066 3103 1784 3103 
Q 1356 3103 1142 2972 
Q 928 2841 928 2578 
Q 928 2378 1081 2264 
Q 1234 2150 1697 2047 
L 1894 2003 
Q 2506 1872 2764 1633 
Q 3022 1394 3022 966 
Q 3022 478 2636 193 
Q 2250 -91 1575 -91 
Q 1294 -91 989 -36 
Q 684 19 347 128 
L 347 722 
Q 666 556 975 473 
Q 1284 391 1588 391 
Q 1994 391 2212 530 
Q 2431 669 2431 922 
Q 2431 1156 2273 1281 
Q 2116 1406 1581 1522 
L 1381 1569 
Q 847 1681 609 1914 
Q 372 2147 372 2553 
Q 372 3047 722 3315 
Q 1072 3584 1716 3584 
Q 2034 3584 2315 3537 
Q 2597 3491 2834 3397 
z
" transform="scale(0.015625)"/>
       <path id="DejaVuSans-6b" d="M 581 4863 
L 1159 4863 
L 1159 1991 
L 2875 3500 
L 3609 3500 
L 1753 1863 
L 3688 0 
L 2938 0 
L 1159 1709 
L 1159 0 
L 581 0 
L 581 4863 
z
" transform="scale(0.015625)"/>
      </defs>
      <use xlink:href="#DejaVuSans-4e"/>
      <use xlink:href="#DejaVuSans-75" transform="translate(74.804688 0)"/>
      <use xlink:href="#DejaVuSans-6d" transform="translate(138.183594 0)"/>
      <use xlink:href="#DejaVuSans-62" transform="translate(235.595703 0)"/>
      <use xlink:href="#DejaVuSans-65" transform="translate(299.072266 0)"/>
      <use xlink:href="#DejaVuSans-72" transform="translate(360.595703 0)"/>
      <use xlink:href="#DejaVuSans-20" transform="translate(401.708984 0)"/>
      <use xlink:href="#DejaVuSans-6f" transform="translate(433.496094 0)"/>
      <use xlink:href="#DejaVuSans-66" transform="translate(494.677734 0)"/>
      <use xlink:href="#DejaVuSans-20" transform="translate(529.882812 0)"/>
      <use xlink:href="#DejaVuSans-54" transform="translate(561.669922 0)"/>
      <use xlink:href="#DejaVuSans-61" transform="translate(606.253906 0)"/>
      <use xlink:href="#DejaVuSans-73" transform="translate(667.533203 0)"/>
      <use xlink:href="#DejaVuSans-6b" transform="translate(719.632812 0)"/>
      <use xlink:href="#DejaVuSans-73" transform="translate(777.542969 0)"/>
     </g>
    </g>
   </g>
   <g id="matplotlib.axis_2">
    <g id="ytick_1">
     <g id="line2d_6">
      <path d="M 43.78125 290.761141 
L 400.90125 290.761141 
" clip-path="url(#p42b8b0f61f)" style="fill: none; stroke: #cccccc; stroke-width: 0.8; stroke-linecap: round"/>
     </g>
     <g id="text_7">
      <!-- 0.0 -->
      <g style="fill: #262626" transform="translate(20.878125 294.56036) scale(0.1 -0.1)">
       <defs>
        <path id="DejaVuSans-2e" d="M 684 794 
L 1344 794 
L 1344 0 
L 684 0 
L 684 794 
z
" transform="scale(0.015625)"/>
       </defs>
       <use xlink:href="#DejaVuSans-30"/>
       <use xlink:href="#DejaVuSans-2e" transform="translate(63.623047 0)"/>
       <use xlink:href="#DejaVuSans-30" transform="translate(95.410156 0)"/>
      </g>
     </g>
    </g>
    <g id="ytick_2">
     <g id="line2d_7">
      <path d="M 43.78125 239.78769 
L 400.90125 239.78769 
" clip-path="url(#p42b8b0f61f)" style="fill: none; stroke: #cccccc; stroke-width: 0.8; stroke-linecap: round"/>
     </g>
     <g id="text_8">
      <!-- 0.2 -->
      <g style="fill: #262626" transform="translate(20.878125 243.586908) scale(0.1 -0.1)">
       <use xlink:href="#DejaVuSans-30"/>
       <use xlink:href="#DejaVuSans-2e" transform="translate(63.623047 0)"/>
       <use xlink:href="#DejaVuSans-32" transform="translate(95.410156 0)"/>
      </g>
     </g>
    </g>
    <g id="ytick_3">
     <g id="line2d_8">
      <path d="M 43.78125 188.814238 
L 400.90125 188.814238 
" clip-path="url(#p42b8b0f61f)" style="fill: none; stroke: #cccccc; stroke-width: 0.8; stroke-linecap: round"/>
     </g>
     <g id="text_9">
      <!-- 0.4 -->
      <g style="fill: #262626" transform="translate(20.878125 192.613457) scale(0.1 -0.1)">
       <use xlink:href="#DejaVuSans-30"/>
       <use xlink:href="#DejaVuSans-2e" transform="translate(63.623047 0)"/>
       <use xlink:href="#DejaVuSans-34" transform="translate(95.410156 0)"/>
      </g>
     </g>
    </g>
    <g id="ytick_4">
     <g id="line2d_9">
      <path d="M 43.78125 137.840787 
L 400.90125 137.840787 
" clip-path="url(#p42b8b0f61f)" style="fill: none; stroke: #cccccc; stroke-width: 0.8; stroke-linecap: round"/>
     </g>
     <g id="text_10">
      <!-- 0.6 -->
      <g style="fill: #262626" transform="translate(20.878125 141.640006) scale(0.1 -0.1)">
       <use xlink:href="#DejaVuSans-30"/>
       <use xlink:href="#DejaVuSans-2e" transform="translate(63.623047 0)"/>
       <use xlink:href="#DejaVuSans-36" transform="translate(95.410156 0)"/>
      </g>
     </g>
    </g>
    <g id="ytick_5">
     <g id="line2d_10">
      <path d="M 43.78125 86.867336 
L 400.90125 86.867336 
" clip-path="url(#p42b8b0f61f)" style="fill: none; stroke: #cccccc; stroke-width: 0.8; stroke-linecap: round"/>
     </g>
     <g id="text_11">
      <!-- 0.8 -->
      <g style="fill: #262626" transform="translate(20.878125 90.666554) scale(0.1 -0.1)">
       <use xlink:href="#DejaVuSans-30"/>
       <use xlink:href="#DejaVuSans-2e" transform="translate(63.623047 0)"/>
       <use xlink:href="#DejaVuSans-38" transform="translate(95.410156 0)"/>
      </g>
     </g>
    </g>
    <g id="ytick_6">
     <g id="line2d_11">
      <path d="M 43.78125 35.893884 
L 400.90125 35.893884 
" clip-path="url(#p42b8b0f61f)" style="fill: none; stroke: #cccccc; stroke-width: 0.8; stroke-linecap: round"/>
     </g>
     <g id="text_12">
      <!-- 1.0 -->
      <g style="fill: #262626" transform="translate(20.878125 39.693103) scale(0.1 -0.1)">
       <use xlink:href="#DejaVuSans-31"/>
       <use xlink:href="#DejaVuSans-2e" transform="translate(63.623047 0)"/>
       <use xlink:href="#DejaVuSans-30" transform="translate(95.410156 0)"/>
      </g>
     </g>
    </g>
    <g id="text_13">
     <!-- Latency -->
     <g style="fill: #262626" transform="translate(14.798438 188.443787) rotate(-90) scale(0.1 -0.1)">
      <defs>
       <path id="DejaVuSans-4c" d="M 628 4666 
L 1259 4666 
L 1259 531 
L 3531 531 
L 3531 0 
L 628 0 
L 628 4666 
z
" transform="scale(0.015625)"/>
       <path id="DejaVuSans-74" d="M 1172 4494 
L 1172 3500 
L 2356 3500 
L 2356 3053 
L 1172 3053 
L 1172 1153 
Q 1172 725 1289 603 
Q 1406 481 1766 481 
L 2356 481 
L 2356 0 
L 1766 0 
Q 1100 0 847 248 
Q 594 497 594 1153 
L 594 3053 
L 172 3053 
L 172 3500 
L 594 3500 
L 594 4494 
L 1172 4494 
z
" transform="scale(0.015625)"/>
       <path id="DejaVuSans-6e" d="M 3513 2113 
L 3513 0 
L 2938 0 
L 2938 2094 
Q 2938 2591 2744 2837 
Q 2550 3084 2163 3084 
Q 1697 3084 1428 2787 
Q 1159 2491 1159 1978 
L 1159 0 
L 581 0 
L 581 3500 
L 1159 3500 
L 1159 2956 
Q 1366 3272 1645 3428 
Q 1925 3584 2291 3584 
Q 2894 3584 3203 3211 
Q 3513 2838 3513 2113 
z
" transform="scale(0.015625)"/>
       <path id="DejaVuSans-63" d="M 3122 3366 
L 3122 2828 
Q 2878 2963 2633 3030 
Q 2388 3097 2138 3097 
Q 1578 3097 1268 2742 
Q 959 2388 959 1747 
Q 959 1106 1268 751 
Q 1578 397 2138 397 
Q 2388 397 2633 464 
Q 2878 531 3122 666 
L 3122 134 
Q 2881 22 2623 -34 
Q 2366 -91 2075 -91 
Q 1284 -91 818 406 
Q 353 903 353 1747 
Q 353 2603 823 3093 
Q 1294 3584 2113 3584 
Q 2378 3584 2631 3529 
Q 2884 3475 3122 3366 
z
" transform="scale(0.015625)"/>
       <path id="DejaVuSans-79" d="M 2059 -325 
Q 1816 -950 1584 -1140 
Q 1353 -1331 966 -1331 
L 506 -1331 
L 506 -850 
L 844 -850 
Q 1081 -850 1212 -737 
Q 1344 -625 1503 -206 
L 1606 56 
L 191 3500 
L 800 3500 
L 1894 763 
L 2988 3500 
L 3597 3500 
L 2059 -325 
z
" transform="scale(0.015625)"/>
      </defs>
      <use xlink:href="#DejaVuSans-4c"/>
      <use xlink:href="#DejaVuSans-61" transform="translate(55.712891 0)"/>
      <use xlink:href="#DejaVuSans-74" transform="translate(116.992188 0)"/>
      <use xlink:href="#DejaVuSans-65" transform="translate(156.201172 0)"/>
      <use xlink:href="#DejaVuSans-6e" transform="translate(217.724609 0)"/>
      <use xlink:href="#DejaVuSans-63" transform="translate(281.103516 0)"/>
      <use xlink:href="#DejaVuSans-79" transform="translate(336.083984 0)"/>
     </g>
    </g>
   </g>
   <g id="FillBetweenPolyCollection_1"/>
   <g id="FillBetweenPolyCollection_2"/>
   <g id="FillBetweenPolyCollection_3"/>
   <g id="FillBetweenPolyCollection_4"/>
   <g id="line2d_12">
    <path d="M 60.013977 289.614238 
L 65.709671 289.639725 
L 77.101059 289.639725 
L 88.492446 288.569283 
L 111.275221 288.569283 
L 134.057996 287.447867 
L 179.623547 286.453884 
L 247.971872 284.363973 
L 316.320197 282.223088 
L 384.668523 279.980256 
" clip-path="url(#p42b8b0f61f)" style="fill: none; stroke: #2c115f; stroke-width: 1.5; stroke-linecap: round"/>
   </g>
   <g id="line2d_13">
    <path d="M 60.013977 287.600787 
L 65.709671 287.524327 
L 77.101059 287.549813 
L 88.492446 284.185566 
L 111.275221 283.879725 
L 134.057996 279.929283 
L 179.623547 276.768929 
L 247.971872 267.848575 
L 316.320197 260.890698 
L 384.668523 251.791937 
" clip-path="url(#p42b8b0f61f)" style="fill: none; stroke: #721f81; stroke-width: 1.5; stroke-linecap: round"/>
   </g>
   <g id="line2d_14">
    <path d="M 60.013977 286.759725 
L 65.709671 286.887159 
L 77.101059 286.606805 
L 88.492446 283.599371 
L 111.275221 283.420964 
L 134.057996 280.566451 
L 179.623547 276.437601 
L 247.971872 269.912999 
L 316.320197 264.356893 
L 384.668523 259.234061 
" clip-path="url(#p42b8b0f61f)" style="fill: none; stroke: #b73779; stroke-width: 1.5; stroke-linecap: round"/>
   </g>
   <g id="line2d_15">
    <path d="M 60.013977 274.551583 
L 65.709671 273.685035 
L 77.101059 273.965389 
L 88.492446 258.46946 
L 111.275221 255.512999 
L 134.057996 230.867336 
L 179.623547 209.8153 
L 247.971872 157.618486 
L 316.320197 99.04999 
L 384.668523 47.719725 
" clip-path="url(#p42b8b0f61f)" style="fill: none; stroke: #f1605d; stroke-width: 1.5; stroke-linecap: round"/>
   </g>
   <g id="line2d_16"/>
   <g id="line2d_17"/>
   <g id="line2d_18"/>
   <g id="line2d_19"/>
   <g id="text_14">
    <path d="M 117.623095 290.188851 
L 119.232085 290.109653 
L 118.958618 284.553879 
L 117.224897 284.991205 
L 117.180727 284.093853 
L 118.905085 283.656989 
L 119.88983 283.608518 
L 120.207467 290.061642 
L 121.816456 289.982445 
L 121.857246 290.811129 
L 117.663885 291.017535 
L 117.623095 290.188851 
z
M 125.878448 286.570809 
Q 125.215188 286.603456 124.84895 287.076721 
Q 124.484195 287.548348 124.523064 288.338017 
Q 124.561703 289.123004 124.971242 289.561213 
Q 125.382264 289.997784 126.045524 289.965137 
Q 126.708783 289.93249 127.073384 289.457741 
Q 127.437909 288.981432 127.39927 288.196444 
Q 127.360401 287.406775 126.951092 286.973249 
Q 126.541707 286.538162 125.878448 286.570809 
z
M 127.681873 283.386109 
L 127.726043 284.28346 
Q 127.346014 284.126954 126.963814 284.053468 
Q 126.581537 283.978421 126.210112 283.996703 
Q 125.23473 284.044713 124.752145 284.728641 
Q 124.271121 285.412491 124.263297 286.747302 
Q 124.529555 286.308682 124.952266 286.061038 
Q 125.376538 285.813318 125.897782 285.787661 
Q 126.994891 285.733659 127.664421 286.368699 
Q 128.333874 287.002178 128.390258 288.147666 
Q 128.445489 289.269745 127.815644 289.981258 
Q 127.185723 290.69121 126.083932 290.745442 
Q 124.819837 290.807663 124.10427 289.872962 
Q 123.388625 288.936701 123.298136 287.098301 
Q 123.213177 285.372266 123.981952 284.305056 
Q 124.750727 283.237845 126.130307 283.169939 
Q 126.501732 283.151657 126.88301 283.206416 
Q 127.264289 283.261175 127.681873 283.386109 
z
M 129.75562 283.122903 
L 130.740366 283.074431 
L 130.891848 286.151956 
L 134.008284 282.913578 
L 135.277061 282.851126 
L 131.829763 286.423361 
L 135.892987 290.12026 
L 134.59612 290.184095 
L 130.926185 286.849549 
L 131.098792 290.356241 
L 130.114046 290.404712 
L 129.75562 283.122903 
z
" clip-path="url(#p42b8b0f61f)" style="fill: #2c115f; stroke: #ffffff; stroke-width: 5"/>
    <path d="M 117.623095 290.188851 
L 119.232085 290.109653 
L 118.958618 284.553879 
L 117.224897 284.991205 
L 117.180727 284.093853 
L 118.905085 283.656989 
L 119.88983 283.608518 
L 120.207467 290.061642 
L 121.816456 289.982445 
L 121.857246 290.811129 
L 117.663885 291.017535 
L 117.623095 290.188851 
z
M 125.878448 286.570809 
Q 125.215188 286.603456 124.84895 287.076721 
Q 124.484195 287.548348 124.523064 288.338017 
Q 124.561703 289.123004 124.971242 289.561213 
Q 125.382264 289.997784 126.045524 289.965137 
Q 126.708783 289.93249 127.073384 289.457741 
Q 127.437909 288.981432 127.39927 288.196444 
Q 127.360401 287.406775 126.951092 286.973249 
Q 126.541707 286.538162 125.878448 286.570809 
z
M 127.681873 283.386109 
L 127.726043 284.28346 
Q 127.346014 284.126954 126.963814 284.053468 
Q 126.581537 283.978421 126.210112 283.996703 
Q 125.23473 284.044713 124.752145 284.728641 
Q 124.271121 285.412491 124.263297 286.747302 
Q 124.529555 286.308682 124.952266 286.061038 
Q 125.376538 285.813318 125.897782 285.787661 
Q 126.994891 285.733659 127.664421 286.368699 
Q 128.333874 287.002178 128.390258 288.147666 
Q 128.445489 289.269745 127.815644 289.981258 
Q 127.185723 290.69121 126.083932 290.745442 
Q 124.819837 290.807663 124.10427 289.872962 
Q 123.388625 288.936701 123.298136 287.098301 
Q 123.213177 285.372266 123.981952 284.305056 
Q 124.750727 283.237845 126.130307 283.169939 
Q 126.501732 283.151657 126.88301 283.206416 
Q 127.264289 283.261175 127.681873 283.386109 
z
M 129.75562 283.122903 
L 130.740366 283.074431 
L 130.891848 286.151956 
L 134.008284 282.913578 
L 135.277061 282.851126 
L 131.829763 286.423361 
L 135.892987 290.12026 
L 134.59612 290.184095 
L 130.926185 286.849549 
L 131.098792 290.356241 
L 130.114046 290.404712 
L 129.75562 283.122903 
z
" clip-path="url(#p42b8b0f61f)" style="fill: #2c115f"/>
   </g>
   <g id="text_15">
    <path d="M 184.248093 278.111417 
L 185.845483 277.902937 
L 185.125609 272.387215 
L 183.432725 272.962703 
L 183.316453 272.071821 
L 185.000041 271.497546 
L 185.977688 271.369951 
L 186.813834 277.776555 
L 188.411224 277.568074 
L 188.518598 278.390784 
L 184.355468 278.934128 
L 184.248093 278.111417 
z
M 189.463554 270.914999 
L 190.921502 270.724718 
L 193.407263 275.403304 
L 194.619824 270.242038 
L 196.077772 270.051757 
L 197.021293 277.281071 
L 196.066887 277.405634 
L 195.238425 271.057905 
L 194.021623 276.259118 
L 193.039328 276.387321 
L 190.52837 271.672629 
L 191.356832 278.020358 
L 190.407075 278.144313 
L 189.463554 270.914999 
z
" clip-path="url(#p42b8b0f61f)" style="fill: #721f81; stroke: #ffffff; stroke-width: 5"/>
    <path d="M 184.248093 278.111417 
L 185.845483 277.902937 
L 185.125609 272.387215 
L 183.432725 272.962703 
L 183.316453 272.071821 
L 185.000041 271.497546 
L 185.977688 271.369951 
L 186.813834 277.776555 
L 188.411224 277.568074 
L 188.518598 278.390784 
L 184.355468 278.934128 
L 184.248093 278.111417 
z
M 189.463554 270.914999 
L 190.921502 270.724718 
L 193.407263 275.403304 
L 194.619824 270.242038 
L 196.077772 270.051757 
L 197.021293 277.281071 
L 196.066887 277.405634 
L 195.238425 271.057905 
L 194.021623 276.259118 
L 193.039328 276.387321 
L 190.52837 271.672629 
L 191.356832 278.020358 
L 190.407075 278.144313 
L 189.463554 270.914999 
z
" clip-path="url(#p42b8b0f61f)" style="fill: #721f81"/>
   </g>
   <g id="text_16">
    <path d="M 249.080173 271.758957 
L 252.511043 271.480058 
L 252.578267 272.307018 
L 247.965359 272.682006 
L 247.898134 271.855046 
Q 248.410133 271.230258 249.296446 270.176857 
Q 250.184191 269.121773 250.40877 268.818203 
Q 250.837607 268.25034 250.994613 267.867611 
Q 251.153177 267.484754 251.124312 267.129676 
Q 251.077217 266.550337 250.641121 266.218956 
Q 250.204898 265.886019 249.552363 265.939064 
Q 249.089826 265.976664 248.588936 266.17885 
Q 248.089604 266.38091 247.532179 266.755431 
L 247.451408 265.761833 
Q 248.025394 265.475322 248.531006 265.311944 
Q 249.038176 265.148438 249.46645 265.113623 
Q 250.595538 265.021839 251.312717 265.532597 
Q 252.02977 266.041798 252.106489 266.98556 
Q 252.14295 267.43408 252.007417 267.849552 
Q 251.873316 268.263341 251.473777 268.844499 
Q 251.363823 268.996094 250.766106 269.723477 
Q 250.169946 270.450734 249.080173 271.758957 
z
M 253.963652 264.879724 
L 255.429131 264.760594 
L 257.684346 269.554567 
L 259.146555 264.458401 
L 260.612034 264.33927 
L 261.202748 271.605925 
L 260.243412 271.68391 
L 259.724734 265.303395 
L 258.256345 270.439255 
L 257.268977 270.51952 
L 254.990351 265.688258 
L 255.509029 272.068773 
L 254.554366 272.146379 
L 253.963652 264.879724 
z
" clip-path="url(#p42b8b0f61f)" style="fill: #b73779; stroke: #ffffff; stroke-width: 5"/>
    <path d="M 249.080173 271.758957 
L 252.511043 271.480058 
L 252.578267 272.307018 
L 247.965359 272.682006 
L 247.898134 271.855046 
Q 248.410133 271.230258 249.296446 270.176857 
Q 250.184191 269.121773 250.40877 268.818203 
Q 250.837607 268.25034 250.994613 267.867611 
Q 251.153177 267.484754 251.124312 267.129676 
Q 251.077217 266.550337 250.641121 266.218956 
Q 250.204898 265.886019 249.552363 265.939064 
Q 249.089826 265.976664 248.588936 266.17885 
Q 248.089604 266.38091 247.532179 266.755431 
L 247.451408 265.761833 
Q 248.025394 265.475322 248.531006 265.311944 
Q 249.038176 265.148438 249.46645 265.113623 
Q 250.595538 265.021839 251.312717 265.532597 
Q 252.02977 266.041798 252.106489 266.98556 
Q 252.14295 267.43408 252.007417 267.849552 
Q 251.873316 268.263341 251.473777 268.844499 
Q 251.363823 268.996094 250.766106 269.723477 
Q 250.169946 270.450734 249.080173 271.758957 
z
M 253.963652 264.879724 
L 255.429131 264.760594 
L 257.684346 269.554567 
L 259.146555 264.458401 
L 260.612034 264.33927 
L 261.202748 271.605925 
L 260.243412 271.68391 
L 259.724734 265.303395 
L 258.256345 270.439255 
L 257.268977 270.51952 
L 254.990351 265.688258 
L 255.509029 272.068773 
L 254.554366 272.146379 
L 253.963652 264.879724 
z
" clip-path="url(#p42b8b0f61f)" style="fill: #b73779"/>
   </g>
   <g id="text_17">
    <path d="M 313.587569 96.510152 
L 313.933358 101.118055 
L 315.924892 99.622393 
L 313.587569 96.510152 
z
M 312.8641 95.978744 
L 313.856119 95.233728 
L 316.709512 99.033136 
L 317.541608 98.408223 
L 318.034219 99.064155 
L 317.202123 99.689068 
L 318.234261 101.063401 
L 317.449641 101.652658 
L 316.417503 100.278325 
L 313.786279 102.2544 
L 313.21485 101.493519 
L 312.8641 95.978744 
z
M 315.921211 93.682824 
L 317.096891 92.799876 
L 321.562796 95.650117 
L 320.079195 90.560137 
L 321.254875 89.67719 
L 325.633017 95.506863 
L 324.86339 96.08486 
L 321.019145 90.966092 
L 322.518707 96.092937 
L 321.726591 96.687824 
L 317.220987 93.818547 
L 321.065232 98.937314 
L 320.299353 99.512497 
L 315.921211 93.682824 
z
" clip-path="url(#p42b8b0f61f)" style="fill: #f1605d; stroke: #ffffff; stroke-width: 5"/>
    <path d="M 313.587569 96.510152 
L 313.933358 101.118055 
L 315.924892 99.622393 
L 313.587569 96.510152 
z
M 312.8641 95.978744 
L 313.856119 95.233728 
L 316.709512 99.033136 
L 317.541608 98.408223 
L 318.034219 99.064155 
L 317.202123 99.689068 
L 318.234261 101.063401 
L 317.449641 101.652658 
L 316.417503 100.278325 
L 313.786279 102.2544 
L 313.21485 101.493519 
L 312.8641 95.978744 
z
M 315.921211 93.682824 
L 317.096891 92.799876 
L 321.562796 95.650117 
L 320.079195 90.560137 
L 321.254875 89.67719 
L 325.633017 95.506863 
L 324.86339 96.08486 
L 321.019145 90.966092 
L 322.518707 96.092937 
L 321.726591 96.687824 
L 317.220987 93.818547 
L 321.065232 98.937314 
L 320.299353 99.512497 
L 315.921211 93.682824 
z
" clip-path="url(#p42b8b0f61f)" style="fill: #f1605d"/>
   </g>
   <g id="patch_3">
    <path d="M 43.78125 301.735725 
L 43.78125 35.623725 
" style="fill: none; stroke: #cccccc; stroke-width: 0.8; stroke-linejoin: miter; stroke-linecap: square"/>
   </g>
   <g id="patch_4">
    <path d="M 400.90125 301.735725 
L 400.90125 35.623725 
" style="fill: none; stroke: #cccccc; stroke-width: 0.8; stroke-linejoin: miter; stroke-linecap: square"/>
   </g>
   <g id="patch_5">
    <path d="M 43.78125 301.735725 
L 400.90125 301.735725 
" style="fill: none; stroke: #cccccc; stroke-width: 0.8; stroke-linejoin: miter; stroke-linecap: square"/>
   </g>
   <g id="patch_6">
    <path d="M 43.78125 35.623725 
L 400.90125 35.623725 
" style="fill: none; stroke: #cccccc; stroke-width: 0.8; stroke-linejoin: miter; stroke-linecap: square"/>
   </g>
   <g id="text_18">
    <!-- b = [131072], s=[32] -->
    <g style="fill: #262626; opacity: 0.75" transform="translate(168.573281 30.882918) scale(0.1 -0.1)">
     <defs>
      <path id="DejaVuSans-3d" d="M 678 2906 
L 4684 2906 
L 4684 2381 
L 678 2381 
L 678 2906 
z
M 678 1631 
L 4684 1631 
L 4684 1100 
L 678 1100 
L 678 1631 
z
" transform="scale(0.015625)"/>
      <path id="DejaVuSans-5b" d="M 550 4863 
L 1875 4863 
L 1875 4416 
L 1125 4416 
L 1125 -397 
L 1875 -397 
L 1875 -844 
L 550 -844 
L 550 4863 
z
" transform="scale(0.015625)"/>
      <path id="DejaVuSans-33" d="M 2597 2516 
Q 3050 2419 3304 2112 
Q 3559 1806 3559 1356 
Q 3559 666 3084 287 
Q 2609 -91 1734 -91 
Q 1441 -91 1130 -33 
Q 819 25 488 141 
L 488 750 
Q 750 597 1062 519 
Q 1375 441 1716 441 
Q 2309 441 2620 675 
Q 2931 909 2931 1356 
Q 2931 1769 2642 2001 
Q 2353 2234 1838 2234 
L 1294 2234 
L 1294 2753 
L 1863 2753 
Q 2328 2753 2575 2939 
Q 2822 3125 2822 3475 
Q 2822 3834 2567 4026 
Q 2313 4219 1838 4219 
Q 1578 4219 1281 4162 
Q 984 4106 628 3988 
L 628 4550 
Q 988 4650 1302 4700 
Q 1616 4750 1894 4750 
Q 2613 4750 3031 4423 
Q 3450 4097 3450 3541 
Q 3450 3153 3228 2886 
Q 3006 2619 2597 2516 
z
" transform="scale(0.015625)"/>
      <path id="DejaVuSans-37" d="M 525 4666 
L 3525 4666 
L 3525 4397 
L 1831 0 
L 1172 0 
L 2766 4134 
L 525 4134 
L 525 4666 
z
" transform="scale(0.015625)"/>
      <path id="DejaVuSans-5d" d="M 1947 4863 
L 1947 -844 
L 622 -844 
L 622 -397 
L 1369 -397 
L 1369 4416 
L 622 4416 
L 622 4863 
L 1947 4863 
z
" transform="scale(0.015625)"/>
      <path id="DejaVuSans-2c" d="M 750 794 
L 1409 794 
L 1409 256 
L 897 -744 
L 494 -744 
L 750 256 
L 750 794 
z
" transform="scale(0.015625)"/>
     </defs>
     <use xlink:href="#DejaVuSans-62"/>
     <use xlink:href="#DejaVuSans-20" transform="translate(63.476562 0)"/>
     <use xlink:href="#DejaVuSans-3d" transform="translate(95.263672 0)"/>
     <use xlink:href="#DejaVuSans-20" transform="translate(179.052734 0)"/>
     <use xlink:href="#DejaVuSans-5b" transform="translate(210.839844 0)"/>
     <use xlink:href="#DejaVuSans-31" transform="translate(249.853516 0)"/>
     <use xlink:href="#DejaVuSans-33" transform="translate(313.476562 0)"/>
     <use xlink:href="#DejaVuSans-31" transform="translate(377.099609 0)"/>
     <use xlink:href="#DejaVuSans-30" transform="translate(440.722656 0)"/>
     <use xlink:href="#DejaVuSans-37" transform="translate(504.345703 0)"/>
     <use xlink:href="#DejaVuSans-32" transform="translate(567.96875 0)"/>
     <use xlink:href="#DejaVuSans-5d" transform="translate(631.591797 0)"/>
     <use xlink:href="#DejaVuSans-2c" transform="translate(670.605469 0)"/>
     <use xlink:href="#DejaVuSans-20" transform="translate(702.392578 0)"/>
     <use xlink:href="#DejaVuSans-73" transform="translate(734.179688 0)"/>
     <use xlink:href="#DejaVuSans-3d" transform="translate(786.279297 0)"/>
     <use xlink:href="#DejaVuSans-5b" transform="translate(870.068359 0)"/>
     <use xlink:href="#DejaVuSans-33" transform="translate(909.082031 0)"/>
     <use xlink:href="#DejaVuSans-32" transform="translate(972.705078 0)"/>
     <use xlink:href="#DejaVuSans-5d" transform="translate(1036.328125 0)"/>
    </g>
   </g>
   <g id="text_19">
    <!-- Latency vs Number of Tasks -->
    <g style="fill: #262626" transform="translate(127.853438 16.318125) scale(0.12 -0.12)">
     <defs>
      <path id="DejaVuSans-Bold-4c" d="M 588 4666 
L 1791 4666 
L 1791 909 
L 3903 909 
L 3903 0 
L 588 0 
L 588 4666 
z
" transform="scale(0.015625)"/>
      <path id="DejaVuSans-Bold-61" d="M 2106 1575 
Q 1756 1575 1579 1456 
Q 1403 1338 1403 1106 
Q 1403 894 1545 773 
Q 1688 653 1941 653 
Q 2256 653 2472 879 
Q 2688 1106 2688 1447 
L 2688 1575 
L 2106 1575 
z
M 3816 1997 
L 3816 0 
L 2688 0 
L 2688 519 
Q 2463 200 2181 54 
Q 1900 -91 1497 -91 
Q 953 -91 614 226 
Q 275 544 275 1050 
Q 275 1666 698 1953 
Q 1122 2241 2028 2241 
L 2688 2241 
L 2688 2328 
Q 2688 2594 2478 2717 
Q 2269 2841 1825 2841 
Q 1466 2841 1156 2769 
Q 847 2697 581 2553 
L 581 3406 
Q 941 3494 1303 3539 
Q 1666 3584 2028 3584 
Q 2975 3584 3395 3211 
Q 3816 2838 3816 1997 
z
" transform="scale(0.015625)"/>
      <path id="DejaVuSans-Bold-74" d="M 1759 4494 
L 1759 3500 
L 2913 3500 
L 2913 2700 
L 1759 2700 
L 1759 1216 
Q 1759 972 1856 886 
Q 1953 800 2241 800 
L 2816 800 
L 2816 0 
L 1856 0 
Q 1194 0 917 276 
Q 641 553 641 1216 
L 641 2700 
L 84 2700 
L 84 3500 
L 641 3500 
L 641 4494 
L 1759 4494 
z
" transform="scale(0.015625)"/>
      <path id="DejaVuSans-Bold-65" d="M 4031 1759 
L 4031 1441 
L 1416 1441 
Q 1456 1047 1700 850 
Q 1944 653 2381 653 
Q 2734 653 3104 758 
Q 3475 863 3866 1075 
L 3866 213 
Q 3469 63 3072 -14 
Q 2675 -91 2278 -91 
Q 1328 -91 801 392 
Q 275 875 275 1747 
Q 275 2603 792 3093 
Q 1309 3584 2216 3584 
Q 3041 3584 3536 3087 
Q 4031 2591 4031 1759 
z
M 2881 2131 
Q 2881 2450 2695 2645 
Q 2509 2841 2209 2841 
Q 1884 2841 1681 2658 
Q 1478 2475 1428 2131 
L 2881 2131 
z
" transform="scale(0.015625)"/>
      <path id="DejaVuSans-Bold-6e" d="M 4056 2131 
L 4056 0 
L 2931 0 
L 2931 347 
L 2931 1631 
Q 2931 2084 2911 2256 
Q 2891 2428 2841 2509 
Q 2775 2619 2662 2680 
Q 2550 2741 2406 2741 
Q 2056 2741 1856 2470 
Q 1656 2200 1656 1722 
L 1656 0 
L 538 0 
L 538 3500 
L 1656 3500 
L 1656 2988 
Q 1909 3294 2193 3439 
Q 2478 3584 2822 3584 
Q 3428 3584 3742 3212 
Q 4056 2841 4056 2131 
z
" transform="scale(0.015625)"/>
      <path id="DejaVuSans-Bold-63" d="M 3366 3391 
L 3366 2478 
Q 3138 2634 2908 2709 
Q 2678 2784 2431 2784 
Q 1963 2784 1702 2511 
Q 1441 2238 1441 1747 
Q 1441 1256 1702 982 
Q 1963 709 2431 709 
Q 2694 709 2930 787 
Q 3166 866 3366 1019 
L 3366 103 
Q 3103 6 2833 -42 
Q 2563 -91 2291 -91 
Q 1344 -91 809 395 
Q 275 881 275 1747 
Q 275 2613 809 3098 
Q 1344 3584 2291 3584 
Q 2566 3584 2833 3536 
Q 3100 3488 3366 3391 
z
" transform="scale(0.015625)"/>
      <path id="DejaVuSans-Bold-79" d="M 78 3500 
L 1197 3500 
L 2138 1125 
L 2938 3500 
L 4056 3500 
L 2584 -331 
Q 2363 -916 2067 -1148 
Q 1772 -1381 1288 -1381 
L 641 -1381 
L 641 -647 
L 991 -647 
Q 1275 -647 1404 -556 
Q 1534 -466 1606 -231 
L 1638 -134 
L 78 3500 
z
" transform="scale(0.015625)"/>
      <path id="DejaVuSans-Bold-20" transform="scale(0.015625)"/>
      <path id="DejaVuSans-Bold-76" d="M 97 3500 
L 1216 3500 
L 2088 1081 
L 2956 3500 
L 4078 3500 
L 2700 0 
L 1472 0 
L 97 3500 
z
" transform="scale(0.015625)"/>
      <path id="DejaVuSans-Bold-73" d="M 3272 3391 
L 3272 2541 
Q 2913 2691 2578 2766 
Q 2244 2841 1947 2841 
Q 1628 2841 1473 2761 
Q 1319 2681 1319 2516 
Q 1319 2381 1436 2309 
Q 1553 2238 1856 2203 
L 2053 2175 
Q 2913 2066 3209 1816 
Q 3506 1566 3506 1031 
Q 3506 472 3093 190 
Q 2681 -91 1863 -91 
Q 1516 -91 1145 -36 
Q 775 19 384 128 
L 384 978 
Q 719 816 1070 734 
Q 1422 653 1784 653 
Q 2113 653 2278 743 
Q 2444 834 2444 1013 
Q 2444 1163 2330 1236 
Q 2216 1309 1875 1350 
L 1678 1375 
Q 931 1469 631 1722 
Q 331 1975 331 2491 
Q 331 3047 712 3315 
Q 1094 3584 1881 3584 
Q 2191 3584 2531 3537 
Q 2872 3491 3272 3391 
z
" transform="scale(0.015625)"/>
      <path id="DejaVuSans-Bold-4e" d="M 588 4666 
L 1931 4666 
L 3628 1466 
L 3628 4666 
L 4769 4666 
L 4769 0 
L 3425 0 
L 1728 3200 
L 1728 0 
L 588 0 
L 588 4666 
z
" transform="scale(0.015625)"/>
      <path id="DejaVuSans-Bold-75" d="M 500 1363 
L 500 3500 
L 1625 3500 
L 1625 3150 
Q 1625 2866 1622 2436 
Q 1619 2006 1619 1863 
Q 1619 1441 1641 1255 
Q 1663 1069 1716 984 
Q 1784 875 1895 815 
Q 2006 756 2150 756 
Q 2500 756 2700 1025 
Q 2900 1294 2900 1772 
L 2900 3500 
L 4019 3500 
L 4019 0 
L 2900 0 
L 2900 506 
Q 2647 200 2364 54 
Q 2081 -91 1741 -91 
Q 1134 -91 817 281 
Q 500 653 500 1363 
z
" transform="scale(0.015625)"/>
      <path id="DejaVuSans-Bold-6d" d="M 3781 2919 
Q 3994 3244 4286 3414 
Q 4578 3584 4928 3584 
Q 5531 3584 5847 3212 
Q 6163 2841 6163 2131 
L 6163 0 
L 5038 0 
L 5038 1825 
Q 5041 1866 5042 1909 
Q 5044 1953 5044 2034 
Q 5044 2406 4934 2573 
Q 4825 2741 4581 2741 
Q 4263 2741 4089 2478 
Q 3916 2216 3909 1719 
L 3909 0 
L 2784 0 
L 2784 1825 
Q 2784 2406 2684 2573 
Q 2584 2741 2328 2741 
Q 2006 2741 1831 2477 
Q 1656 2213 1656 1722 
L 1656 0 
L 531 0 
L 531 3500 
L 1656 3500 
L 1656 2988 
Q 1863 3284 2130 3434 
Q 2397 3584 2719 3584 
Q 3081 3584 3359 3409 
Q 3638 3234 3781 2919 
z
" transform="scale(0.015625)"/>
      <path id="DejaVuSans-Bold-62" d="M 2400 722 
Q 2759 722 2948 984 
Q 3138 1247 3138 1747 
Q 3138 2247 2948 2509 
Q 2759 2772 2400 2772 
Q 2041 2772 1848 2508 
Q 1656 2244 1656 1747 
Q 1656 1250 1848 986 
Q 2041 722 2400 722 
z
M 1656 2988 
Q 1888 3294 2169 3439 
Q 2450 3584 2816 3584 
Q 3463 3584 3878 3070 
Q 4294 2556 4294 1747 
Q 4294 938 3878 423 
Q 3463 -91 2816 -91 
Q 2450 -91 2169 54 
Q 1888 200 1656 506 
L 1656 0 
L 538 0 
L 538 4863 
L 1656 4863 
L 1656 2988 
z
" transform="scale(0.015625)"/>
      <path id="DejaVuSans-Bold-72" d="M 3138 2547 
Q 2991 2616 2845 2648 
Q 2700 2681 2553 2681 
Q 2122 2681 1889 2404 
Q 1656 2128 1656 1613 
L 1656 0 
L 538 0 
L 538 3500 
L 1656 3500 
L 1656 2925 
Q 1872 3269 2151 3426 
Q 2431 3584 2822 3584 
Q 2878 3584 2943 3579 
Q 3009 3575 3134 3559 
L 3138 2547 
z
" transform="scale(0.015625)"/>
      <path id="DejaVuSans-Bold-6f" d="M 2203 2784 
Q 1831 2784 1636 2517 
Q 1441 2250 1441 1747 
Q 1441 1244 1636 976 
Q 1831 709 2203 709 
Q 2569 709 2762 976 
Q 2956 1244 2956 1747 
Q 2956 2250 2762 2517 
Q 2569 2784 2203 2784 
z
M 2203 3584 
Q 3106 3584 3614 3096 
Q 4122 2609 4122 1747 
Q 4122 884 3614 396 
Q 3106 -91 2203 -91 
Q 1297 -91 786 396 
Q 275 884 275 1747 
Q 275 2609 786 3096 
Q 1297 3584 2203 3584 
z
" transform="scale(0.015625)"/>
      <path id="DejaVuSans-Bold-66" d="M 2841 4863 
L 2841 4128 
L 2222 4128 
Q 1984 4128 1890 4042 
Q 1797 3956 1797 3744 
L 1797 3500 
L 2753 3500 
L 2753 2700 
L 1797 2700 
L 1797 0 
L 678 0 
L 678 2700 
L 122 2700 
L 122 3500 
L 678 3500 
L 678 3744 
Q 678 4316 997 4589 
Q 1316 4863 1984 4863 
L 2841 4863 
z
" transform="scale(0.015625)"/>
      <path id="DejaVuSans-Bold-54" d="M 31 4666 
L 4331 4666 
L 4331 3756 
L 2784 3756 
L 2784 0 
L 1581 0 
L 1581 3756 
L 31 3756 
L 31 4666 
z
" transform="scale(0.015625)"/>
      <path id="DejaVuSans-Bold-6b" d="M 538 4863 
L 1656 4863 
L 1656 2216 
L 2944 3500 
L 4244 3500 
L 2534 1894 
L 4378 0 
L 3022 0 
L 1656 1459 
L 1656 0 
L 538 0 
L 538 4863 
z
" transform="scale(0.015625)"/>
     </defs>
     <use xlink:href="#DejaVuSans-Bold-4c"/>
     <use xlink:href="#DejaVuSans-Bold-61" transform="translate(63.720703 0)"/>
     <use xlink:href="#DejaVuSans-Bold-74" transform="translate(131.201172 0)"/>
     <use xlink:href="#DejaVuSans-Bold-65" transform="translate(179.003906 0)"/>
     <use xlink:href="#DejaVuSans-Bold-6e" transform="translate(246.826172 0)"/>
     <use xlink:href="#DejaVuSans-Bold-63" transform="translate(318.017578 0)"/>
     <use xlink:href="#DejaVuSans-Bold-79" transform="translate(377.294922 0)"/>
     <use xlink:href="#DejaVuSans-Bold-20" transform="translate(442.480469 0)"/>
     <use xlink:href="#DejaVuSans-Bold-76" transform="translate(477.294922 0)"/>
     <use xlink:href="#DejaVuSans-Bold-73" transform="translate(542.480469 0)"/>
     <use xlink:href="#DejaVuSans-Bold-20" transform="translate(602.001953 0)"/>
     <use xlink:href="#DejaVuSans-Bold-4e" transform="translate(636.816406 0)"/>
     <use xlink:href="#DejaVuSans-Bold-75" transform="translate(720.507812 0)"/>
     <use xlink:href="#DejaVuSans-Bold-6d" transform="translate(791.699219 0)"/>
     <use xlink:href="#DejaVuSans-Bold-62" transform="translate(895.898438 0)"/>
     <use xlink:href="#DejaVuSans-Bold-65" transform="translate(967.480469 0)"/>
     <use xlink:href="#DejaVuSans-Bold-72" transform="translate(1035.302734 0)"/>
     <use xlink:href="#DejaVuSans-Bold-20" transform="translate(1084.619141 0)"/>
     <use xlink:href="#DejaVuSans-Bold-6f" transform="translate(1119.433594 0)"/>
     <use xlink:href="#DejaVuSans-Bold-66" transform="translate(1188.134766 0)"/>
     <use xlink:href="#DejaVuSans-Bold-20" transform="translate(1231.640625 0)"/>
     <use xlink:href="#DejaVuSans-Bold-54" transform="translate(1266.455078 0)"/>
     <use xlink:href="#DejaVuSans-Bold-61" transform="translate(1321.792969 0)"/>
     <use xlink:href="#DejaVuSans-Bold-73" transform="translate(1389.273438 0)"/>
     <use xlink:href="#DejaVuSans-Bold-6b" transform="translate(1448.794922 0)"/>
     <use xlink:href="#DejaVuSans-Bold-73" transform="translate(1515.298828 0)"/>
    </g>
   </g>
   <g id="legend_1">
    <g id="patch_7">
     <path d="M 50.78125 117.292475 
L 102.064063 117.292475 
Q 104.064063 117.292475 104.064063 115.292475 
L 104.064063 42.623725 
Q 104.064063 40.623725 102.064063 40.623725 
L 50.78125 40.623725 
Q 48.78125 40.623725 48.78125 42.623725 
L 48.78125 115.292475 
Q 48.78125 117.292475 50.78125 117.292475 
z
" style="fill: #ffffff; opacity: 0.8; stroke: #cccccc; stroke-linejoin: miter"/>
    </g>
    <g id="text_20">
     <!-- xfer_str -->
     <g style="fill: #262626" transform="translate(57.450781 52.222162) scale(0.1 -0.1)">
      <defs>
       <path id="DejaVuSans-78" d="M 3513 3500 
L 2247 1797 
L 3578 0 
L 2900 0 
L 1881 1375 
L 863 0 
L 184 0 
L 1544 1831 
L 300 3500 
L 978 3500 
L 1906 2253 
L 2834 3500 
L 3513 3500 
z
" transform="scale(0.015625)"/>
       <path id="DejaVuSans-5f" d="M 3263 -1063 
L 3263 -1509 
L -63 -1509 
L -63 -1063 
L 3263 -1063 
z
" transform="scale(0.015625)"/>
      </defs>
      <use xlink:href="#DejaVuSans-78"/>
      <use xlink:href="#DejaVuSans-66" transform="translate(59.179688 0)"/>
      <use xlink:href="#DejaVuSans-65" transform="translate(94.384766 0)"/>
      <use xlink:href="#DejaVuSans-72" transform="translate(155.908203 0)"/>
      <use xlink:href="#DejaVuSans-5f" transform="translate(197.021484 0)"/>
      <use xlink:href="#DejaVuSans-73" transform="translate(247.021484 0)"/>
      <use xlink:href="#DejaVuSans-74" transform="translate(299.121094 0)"/>
      <use xlink:href="#DejaVuSans-72" transform="translate(338.330078 0)"/>
     </g>
    </g>
    <g id="line2d_20">
     <path d="M 52.78125 63.678412 
L 62.78125 63.678412 
L 72.78125 63.678412 
" style="fill: none; stroke: #2c115f; stroke-width: 1.5; stroke-linecap: round"/>
    </g>
    <g id="text_21">
     <!-- 16K -->
     <g style="fill: #262626" transform="translate(80.78125 67.178412) scale(0.1 -0.1)">
      <defs>
       <path id="DejaVuSans-4b" d="M 628 4666 
L 1259 4666 
L 1259 2694 
L 3353 4666 
L 4166 4666 
L 1850 2491 
L 4331 0 
L 3500 0 
L 1259 2247 
L 1259 0 
L 628 0 
L 628 4666 
z
" transform="scale(0.015625)"/>
      </defs>
      <use xlink:href="#DejaVuSans-31"/>
      <use xlink:href="#DejaVuSans-36" transform="translate(63.623047 0)"/>
      <use xlink:href="#DejaVuSans-4b" transform="translate(127.246094 0)"/>
     </g>
    </g>
    <g id="line2d_21">
     <path d="M 52.78125 78.356538 
L 62.78125 78.356538 
L 72.78125 78.356538 
" style="fill: none; stroke: #721f81; stroke-width: 1.5; stroke-linecap: round"/>
    </g>
    <g id="text_22">
     <!-- 1M -->
     <g style="fill: #262626" transform="translate(80.78125 81.856538) scale(0.1 -0.1)">
      <defs>
       <path id="DejaVuSans-4d" d="M 628 4666 
L 1569 4666 
L 2759 1491 
L 3956 4666 
L 4897 4666 
L 4897 0 
L 4281 0 
L 4281 4097 
L 3078 897 
L 2444 897 
L 1241 4097 
L 1241 0 
L 628 0 
L 628 4666 
z
" transform="scale(0.015625)"/>
      </defs>
      <use xlink:href="#DejaVuSans-31"/>
      <use xlink:href="#DejaVuSans-4d" transform="translate(63.623047 0)"/>
     </g>
    </g>
    <g id="line2d_22">
     <path d="M 52.78125 93.034662 
L 62.78125 93.034662 
L 72.78125 93.034662 
" style="fill: none; stroke: #b73779; stroke-width: 1.5; stroke-linecap: round"/>
    </g>
    <g id="text_23">
     <!-- 2M -->
     <g style="fill: #262626" transform="translate(80.78125 96.534662) scale(0.1 -0.1)">
      <use xlink:href="#DejaVuSans-32"/>
      <use xlink:href="#DejaVuSans-4d" transform="translate(63.623047 0)"/>
     </g>
    </g>
    <g id="line2d_23">
     <path d="M 52.78125 107.712787 
L 62.78125 107.712787 
L 72.78125 107.712787 
" style="fill: none; stroke: #f1605d; stroke-width: 1.5; stroke-linecap: round"/>
    </g>
    <g id="text_24">
     <!-- 4M -->
     <g style="fill: #262626" transform="translate(80.78125 111.212787) scale(0.1 -0.1)">
      <use xlink:href="#DejaVuSans-34"/>
      <use xlink:href="#DejaVuSans-4d" transform="translate(63.623047 0)"/>
     </g>
    </g>
   </g>
  </g>
 </g>
 <defs>
  <clipPath id="p42b8b0f61f">
   <rect x="43.78125" y="35.623725" width="357.12" height="266.112"/>
  </clipPath>
 </defs>
</svg>
