<?xml version="1.0" encoding="utf-8" standalone="no"?>
<!DOCTYPE svg PUBLIC "-//W3C//DTD SVG 1.1//EN"
  "http://www.w3.org/Graphics/SVG/1.1/DTD/svg11.dtd">
<svg xmlns:xlink="http://www.w3.org/1999/xlink" width="492.38125pt" height="339.291975pt" viewBox="0 0 492.38125 339.291975" xmlns="http://www.w3.org/2000/svg" version="1.1">
 <metadata>
  <rdf:RDF xmlns:dc="http://purl.org/dc/elements/1.1/" xmlns:cc="http://creativecommons.org/ns#" xmlns:rdf="http://www.w3.org/1999/02/22-rdf-syntax-ns#">
   <cc:Work>
    <dc:type rdf:resource="http://purl.org/dc/dcmitype/StillImage"/>
    <dc:date>2025-09-11T11:47:22.958949</dc:date>
    <dc:format>image/svg+xml</dc:format>
    <dc:creator>
     <cc:Agent>
      <dc:title>Matplotlib v3.10.6, https://matplotlib.org/</dc:title>
     </cc:Agent>
    </dc:creator>
   </cc:Work>
  </rdf:RDF>
 </metadata>
 <defs>
  <style type="text/css">*{stroke-linejoin: round; stroke-linecap: butt}</style>
 </defs>
 <g id="figure_1">
  <g id="patch_1">
   <path d="M 0 339.291975 
L 492.38125 339.291975 
L 492.38125 0 
L 0 0 
z
" style="fill: #ffffff"/>
  </g>
  <g id="axes_1">
   <g id="patch_2">
    <path d="M 43.78125 301.735725 
L 400.90125 301.735725 
L 400.90125 35.623725 
L 43.78125 35.623725 
z
" style="fill: #ffffff"/>
   </g>
   <g id="matplotlib.axis_1">
    <g id="xtick_1">
     <g id="line2d_1">
      <path d="M 106.393198 301.735725 
L 106.393198 35.623725 
" clip-path="url(#paca8cf6047)" style="fill: none; stroke: #cccccc; stroke-width: 0.8; stroke-linecap: round"/>
     </g>
     <g id="text_1">
      <!-- 32 -->
      <g style="fill: #262626" transform="translate(100.030698 316.334162) scale(0.1 -0.1)">
       <defs>
        <path id="DejaVuSans-33" d="M 2597 2516 
Q 3050 2419 3304 2112 
Q 3559 1806 3559 1356 
Q 3559 666 3084 287 
Q 2609 -91 1734 -91 
Q 1441 -91 1130 -33 
Q 819 25 488 141 
L 488 750 
Q 750 597 1062 519 
Q 1375 441 1716 441 
Q 2309 441 2620 675 
Q 2931 909 2931 1356 
Q 2931 1769 2642 2001 
Q 2353 2234 1838 2234 
L 1294 2234 
L 1294 2753 
L 1863 2753 
Q 2328 2753 2575 2939 
Q 2822 3125 2822 3475 
Q 2822 3834 2567 4026 
Q 2313 4219 1838 4219 
Q 1578 4219 1281 4162 
Q 984 4106 628 3988 
L 628 4550 
Q 988 4650 1302 4700 
Q 1616 4750 1894 4750 
Q 2613 4750 3031 4423 
Q 3450 4097 3450 3541 
Q 3450 3153 3228 2886 
Q 3006 2619 2597 2516 
z
" transform="scale(0.015625)"/>
        <path id="DejaVuSans-32" d="M 1228 531 
L 3431 531 
L 3431 0 
L 469 0 
L 469 531 
Q 828 903 1448 1529 
Q 2069 2156 2228 2338 
Q 2531 2678 2651 2914 
Q 2772 3150 2772 3378 
Q 2772 3750 2511 3984 
Q 2250 4219 1831 4219 
Q 1534 4219 1204 4116 
Q 875 4013 500 3803 
L 500 4441 
Q 881 4594 1212 4672 
Q 1544 4750 1819 4750 
Q 2544 4750 2975 4387 
Q 3406 4025 3406 3419 
Q 3406 3131 3298 2873 
Q 3191 2616 2906 2266 
Q 2828 2175 2409 1742 
Q 1991 1309 1228 531 
z
" transform="scale(0.015625)"/>
       </defs>
       <use xlink:href="#DejaVuSans-33"/>
       <use xlink:href="#DejaVuSans-32" transform="translate(63.623047 0)"/>
      </g>
     </g>
    </g>
    <g id="xtick_2">
     <g id="line2d_2">
      <path d="M 384.668523 301.735725 
L 384.668523 35.623725 
" clip-path="url(#paca8cf6047)" style="fill: none; stroke: #cccccc; stroke-width: 0.8; stroke-linecap: round"/>
     </g>
     <g id="text_2">
      <!-- 128 -->
      <g style="fill: #262626" transform="translate(375.124773 316.334162) scale(0.1 -0.1)">
       <defs>
        <path id="DejaVuSans-31" d="M 794 531 
L 1825 531 
L 1825 4091 
L 703 3866 
L 703 4441 
L 1819 4666 
L 2450 4666 
L 2450 531 
L 3481 531 
L 3481 0 
L 794 0 
L 794 531 
z
" transform="scale(0.015625)"/>
        <path id="DejaVuSans-38" d="M 2034 2216 
Q 1584 2216 1326 1975 
Q 1069 1734 1069 1313 
Q 1069 891 1326 650 
Q 1584 409 2034 409 
Q 2484 409 2743 651 
Q 3003 894 3003 1313 
Q 3003 1734 2745 1975 
Q 2488 2216 2034 2216 
z
M 1403 2484 
Q 997 2584 770 2862 
Q 544 3141 544 3541 
Q 544 4100 942 4425 
Q 1341 4750 2034 4750 
Q 2731 4750 3128 4425 
Q 3525 4100 3525 3541 
Q 3525 3141 3298 2862 
Q 3072 2584 2669 2484 
Q 3125 2378 3379 2068 
Q 3634 1759 3634 1313 
Q 3634 634 3220 271 
Q 2806 -91 2034 -91 
Q 1263 -91 848 271 
Q 434 634 434 1313 
Q 434 1759 690 2068 
Q 947 2378 1403 2484 
z
M 1172 3481 
Q 1172 3119 1398 2916 
Q 1625 2713 2034 2713 
Q 2441 2713 2670 2916 
Q 2900 3119 2900 3481 
Q 2900 3844 2670 4047 
Q 2441 4250 2034 4250 
Q 1625 4250 1398 4047 
Q 1172 3844 1172 3481 
z
" transform="scale(0.015625)"/>
       </defs>
       <use xlink:href="#DejaVuSans-31"/>
       <use xlink:href="#DejaVuSans-32" transform="translate(63.623047 0)"/>
       <use xlink:href="#DejaVuSans-38" transform="translate(127.246094 0)"/>
      </g>
     </g>
    </g>
    <g id="xtick_3">
     <g id="line2d_3">
      <path d="M 60.013977 301.735725 
L 60.013977 35.623725 
" clip-path="url(#paca8cf6047)" style="fill: none; stroke: #cccccc; stroke-width: 0.8; stroke-linecap: round"/>
     </g>
     <g id="text_3">
      <!-- 16 -->
      <g style="fill: #262626" transform="translate(53.651477 316.334162) scale(0.1 -0.1)">
       <defs>
        <path id="DejaVuSans-36" d="M 2113 2584 
Q 1688 2584 1439 2293 
Q 1191 2003 1191 1497 
Q 1191 994 1439 701 
Q 1688 409 2113 409 
Q 2538 409 2786 701 
Q 3034 994 3034 1497 
Q 3034 2003 2786 2293 
Q 2538 2584 2113 2584 
z
M 3366 4563 
L 3366 3988 
Q 3128 4100 2886 4159 
Q 2644 4219 2406 4219 
Q 1781 4219 1451 3797 
Q 1122 3375 1075 2522 
Q 1259 2794 1537 2939 
Q 1816 3084 2150 3084 
Q 2853 3084 3261 2657 
Q 3669 2231 3669 1497 
Q 3669 778 3244 343 
Q 2819 -91 2113 -91 
Q 1303 -91 875 529 
Q 447 1150 447 2328 
Q 447 3434 972 4092 
Q 1497 4750 2381 4750 
Q 2619 4750 2861 4703 
Q 3103 4656 3366 4563 
z
" transform="scale(0.015625)"/>
       </defs>
       <use xlink:href="#DejaVuSans-31"/>
       <use xlink:href="#DejaVuSans-36" transform="translate(63.623047 0)"/>
      </g>
     </g>
    </g>
    <g id="xtick_4">
     <g id="line2d_4">
      <path d="M 199.15164 301.735725 
L 199.15164 35.623725 
" clip-path="url(#paca8cf6047)" style="fill: none; stroke: #cccccc; stroke-width: 0.8; stroke-linecap: round"/>
     </g>
     <g id="text_4">
      <!-- 64 -->
      <g style="fill: #262626" transform="translate(192.78914 316.334162) scale(0.1 -0.1)">
       <defs>
        <path id="DejaVuSans-34" d="M 2419 4116 
L 825 1625 
L 2419 1625 
L 2419 4116 
z
M 2253 4666 
L 3047 4666 
L 3047 1625 
L 3713 1625 
L 3713 1100 
L 3047 1100 
L 3047 0 
L 2419 0 
L 2419 1100 
L 313 1100 
L 313 1709 
L 2253 4666 
z
" transform="scale(0.015625)"/>
       </defs>
       <use xlink:href="#DejaVuSans-36"/>
       <use xlink:href="#DejaVuSans-34" transform="translate(63.623047 0)"/>
      </g>
     </g>
    </g>
    <g id="text_5">
     <!-- Number of Jobs -->
     <g style="fill: #262626" transform="translate(183.944375 330.012287) scale(0.1 -0.1)">
      <defs>
       <path id="DejaVuSans-4e" d="M 628 4666 
L 1478 4666 
L 3547 763 
L 3547 4666 
L 4159 4666 
L 4159 0 
L 3309 0 
L 1241 3903 
L 1241 0 
L 628 0 
L 628 4666 
z
" transform="scale(0.015625)"/>
       <path id="DejaVuSans-75" d="M 544 1381 
L 544 3500 
L 1119 3500 
L 1119 1403 
Q 1119 906 1312 657 
Q 1506 409 1894 409 
Q 2359 409 2629 706 
Q 2900 1003 2900 1516 
L 2900 3500 
L 3475 3500 
L 3475 0 
L 2900 0 
L 2900 538 
Q 2691 219 2414 64 
Q 2138 -91 1772 -91 
Q 1169 -91 856 284 
Q 544 659 544 1381 
z
M 1991 3584 
L 1991 3584 
z
" transform="scale(0.015625)"/>
       <path id="DejaVuSans-6d" d="M 3328 2828 
Q 3544 3216 3844 3400 
Q 4144 3584 4550 3584 
Q 5097 3584 5394 3201 
Q 5691 2819 5691 2113 
L 5691 0 
L 5113 0 
L 5113 2094 
Q 5113 2597 4934 2840 
Q 4756 3084 4391 3084 
Q 3944 3084 3684 2787 
Q 3425 2491 3425 1978 
L 3425 0 
L 2847 0 
L 2847 2094 
Q 2847 2600 2669 2842 
Q 2491 3084 2119 3084 
Q 1678 3084 1418 2786 
Q 1159 2488 1159 1978 
L 1159 0 
L 581 0 
L 581 3500 
L 1159 3500 
L 1159 2956 
Q 1356 3278 1631 3431 
Q 1906 3584 2284 3584 
Q 2666 3584 2933 3390 
Q 3200 3197 3328 2828 
z
" transform="scale(0.015625)"/>
       <path id="DejaVuSans-62" d="M 3116 1747 
Q 3116 2381 2855 2742 
Q 2594 3103 2138 3103 
Q 1681 3103 1420 2742 
Q 1159 2381 1159 1747 
Q 1159 1113 1420 752 
Q 1681 391 2138 391 
Q 2594 391 2855 752 
Q 3116 1113 3116 1747 
z
M 1159 2969 
Q 1341 3281 1617 3432 
Q 1894 3584 2278 3584 
Q 2916 3584 3314 3078 
Q 3713 2572 3713 1747 
Q 3713 922 3314 415 
Q 2916 -91 2278 -91 
Q 1894 -91 1617 61 
Q 1341 213 1159 525 
L 1159 0 
L 581 0 
L 581 4863 
L 1159 4863 
L 1159 2969 
z
" transform="scale(0.015625)"/>
       <path id="DejaVuSans-65" d="M 3597 1894 
L 3597 1613 
L 953 1613 
Q 991 1019 1311 708 
Q 1631 397 2203 397 
Q 2534 397 2845 478 
Q 3156 559 3463 722 
L 3463 178 
Q 3153 47 2828 -22 
Q 2503 -91 2169 -91 
Q 1331 -91 842 396 
Q 353 884 353 1716 
Q 353 2575 817 3079 
Q 1281 3584 2069 3584 
Q 2775 3584 3186 3129 
Q 3597 2675 3597 1894 
z
M 3022 2063 
Q 3016 2534 2758 2815 
Q 2500 3097 2075 3097 
Q 1594 3097 1305 2825 
Q 1016 2553 972 2059 
L 3022 2063 
z
" transform="scale(0.015625)"/>
       <path id="DejaVuSans-72" d="M 2631 2963 
Q 2534 3019 2420 3045 
Q 2306 3072 2169 3072 
Q 1681 3072 1420 2755 
Q 1159 2438 1159 1844 
L 1159 0 
L 581 0 
L 581 3500 
L 1159 3500 
L 1159 2956 
Q 1341 3275 1631 3429 
Q 1922 3584 2338 3584 
Q 2397 3584 2469 3576 
Q 2541 3569 2628 3553 
L 2631 2963 
z
" transform="scale(0.015625)"/>
       <path id="DejaVuSans-20" transform="scale(0.015625)"/>
       <path id="DejaVuSans-6f" d="M 1959 3097 
Q 1497 3097 1228 2736 
Q 959 2375 959 1747 
Q 959 1119 1226 758 
Q 1494 397 1959 397 
Q 2419 397 2687 759 
Q 2956 1122 2956 1747 
Q 2956 2369 2687 2733 
Q 2419 3097 1959 3097 
z
M 1959 3584 
Q 2709 3584 3137 3096 
Q 3566 2609 3566 1747 
Q 3566 888 3137 398 
Q 2709 -91 1959 -91 
Q 1206 -91 779 398 
Q 353 888 353 1747 
Q 353 2609 779 3096 
Q 1206 3584 1959 3584 
z
" transform="scale(0.015625)"/>
       <path id="DejaVuSans-66" d="M 2375 4863 
L 2375 4384 
L 1825 4384 
Q 1516 4384 1395 4259 
Q 1275 4134 1275 3809 
L 1275 3500 
L 2222 3500 
L 2222 3053 
L 1275 3053 
L 1275 0 
L 697 0 
L 697 3053 
L 147 3053 
L 147 3500 
L 697 3500 
L 697 3744 
Q 697 4328 969 4595 
Q 1241 4863 1831 4863 
L 2375 4863 
z
" transform="scale(0.015625)"/>
       <path id="DejaVuSans-4a" d="M 628 4666 
L 1259 4666 
L 1259 325 
Q 1259 -519 939 -900 
Q 619 -1281 -91 -1281 
L -331 -1281 
L -331 -750 
L -134 -750 
Q 284 -750 456 -515 
Q 628 -281 628 325 
L 628 4666 
z
" transform="scale(0.015625)"/>
       <path id="DejaVuSans-73" d="M 2834 3397 
L 2834 2853 
Q 2591 2978 2328 3040 
Q 2066 3103 1784 3103 
Q 1356 3103 1142 2972 
Q 928 2841 928 2578 
Q 928 2378 1081 2264 
Q 1234 2150 1697 2047 
L 1894 2003 
Q 2506 1872 2764 1633 
Q 3022 1394 3022 966 
Q 3022 478 2636 193 
Q 2250 -91 1575 -91 
Q 1294 -91 989 -36 
Q 684 19 347 128 
L 347 722 
Q 666 556 975 473 
Q 1284 391 1588 391 
Q 1994 391 2212 530 
Q 2431 669 2431 922 
Q 2431 1156 2273 1281 
Q 2116 1406 1581 1522 
L 1381 1569 
Q 847 1681 609 1914 
Q 372 2147 372 2553 
Q 372 3047 722 3315 
Q 1072 3584 1716 3584 
Q 2034 3584 2315 3537 
Q 2597 3491 2834 3397 
z
" transform="scale(0.015625)"/>
      </defs>
      <use xlink:href="#DejaVuSans-4e"/>
      <use xlink:href="#DejaVuSans-75" transform="translate(74.804688 0)"/>
      <use xlink:href="#DejaVuSans-6d" transform="translate(138.183594 0)"/>
      <use xlink:href="#DejaVuSans-62" transform="translate(235.595703 0)"/>
      <use xlink:href="#DejaVuSans-65" transform="translate(299.072266 0)"/>
      <use xlink:href="#DejaVuSans-72" transform="translate(360.595703 0)"/>
      <use xlink:href="#DejaVuSans-20" transform="translate(401.708984 0)"/>
      <use xlink:href="#DejaVuSans-6f" transform="translate(433.496094 0)"/>
      <use xlink:href="#DejaVuSans-66" transform="translate(494.677734 0)"/>
      <use xlink:href="#DejaVuSans-20" transform="translate(529.882812 0)"/>
      <use xlink:href="#DejaVuSans-4a" transform="translate(561.669922 0)"/>
      <use xlink:href="#DejaVuSans-6f" transform="translate(591.162109 0)"/>
      <use xlink:href="#DejaVuSans-62" transform="translate(652.34375 0)"/>
      <use xlink:href="#DejaVuSans-73" transform="translate(715.820312 0)"/>
     </g>
    </g>
   </g>
   <g id="matplotlib.axis_2">
    <g id="ytick_1">
     <g id="line2d_5">
      <path d="M 43.78125 271.262224 
L 400.90125 271.262224 
" clip-path="url(#paca8cf6047)" style="fill: none; stroke: #cccccc; stroke-width: 0.8; stroke-linecap: round"/>
     </g>
     <g id="text_6">
      <!-- 0.5 -->
      <g style="fill: #262626" transform="translate(20.878125 275.061442) scale(0.1 -0.1)">
       <defs>
        <path id="DejaVuSans-30" d="M 2034 4250 
Q 1547 4250 1301 3770 
Q 1056 3291 1056 2328 
Q 1056 1369 1301 889 
Q 1547 409 2034 409 
Q 2525 409 2770 889 
Q 3016 1369 3016 2328 
Q 3016 3291 2770 3770 
Q 2525 4250 2034 4250 
z
M 2034 4750 
Q 2819 4750 3233 4129 
Q 3647 3509 3647 2328 
Q 3647 1150 3233 529 
Q 2819 -91 2034 -91 
Q 1250 -91 836 529 
Q 422 1150 422 2328 
Q 422 3509 836 4129 
Q 1250 4750 2034 4750 
z
" transform="scale(0.015625)"/>
        <path id="DejaVuSans-2e" d="M 684 794 
L 1344 794 
L 1344 0 
L 684 0 
L 684 794 
z
" transform="scale(0.015625)"/>
        <path id="DejaVuSans-35" d="M 691 4666 
L 3169 4666 
L 3169 4134 
L 1269 4134 
L 1269 2991 
Q 1406 3038 1543 3061 
Q 1681 3084 1819 3084 
Q 2600 3084 3056 2656 
Q 3513 2228 3513 1497 
Q 3513 744 3044 326 
Q 2575 -91 1722 -91 
Q 1428 -91 1123 -41 
Q 819 9 494 109 
L 494 744 
Q 775 591 1075 516 
Q 1375 441 1709 441 
Q 2250 441 2565 725 
Q 2881 1009 2881 1497 
Q 2881 1984 2565 2268 
Q 2250 2553 1709 2553 
Q 1456 2553 1204 2497 
Q 953 2441 691 2322 
L 691 4666 
z
" transform="scale(0.015625)"/>
       </defs>
       <use xlink:href="#DejaVuSans-30"/>
       <use xlink:href="#DejaVuSans-2e" transform="translate(63.623047 0)"/>
       <use xlink:href="#DejaVuSans-35" transform="translate(95.410156 0)"/>
      </g>
     </g>
    </g>
    <g id="ytick_2">
     <g id="line2d_6">
      <path d="M 43.78125 227.328351 
L 400.90125 227.328351 
" clip-path="url(#paca8cf6047)" style="fill: none; stroke: #cccccc; stroke-width: 0.8; stroke-linecap: round"/>
     </g>
     <g id="text_7">
      <!-- 1.0 -->
      <g style="fill: #262626" transform="translate(20.878125 231.12757) scale(0.1 -0.1)">
       <use xlink:href="#DejaVuSans-31"/>
       <use xlink:href="#DejaVuSans-2e" transform="translate(63.623047 0)"/>
       <use xlink:href="#DejaVuSans-30" transform="translate(95.410156 0)"/>
      </g>
     </g>
    </g>
    <g id="ytick_3">
     <g id="line2d_7">
      <path d="M 43.78125 183.394479 
L 400.90125 183.394479 
" clip-path="url(#paca8cf6047)" style="fill: none; stroke: #cccccc; stroke-width: 0.8; stroke-linecap: round"/>
     </g>
     <g id="text_8">
      <!-- 1.5 -->
      <g style="fill: #262626" transform="translate(20.878125 187.193698) scale(0.1 -0.1)">
       <use xlink:href="#DejaVuSans-31"/>
       <use xlink:href="#DejaVuSans-2e" transform="translate(63.623047 0)"/>
       <use xlink:href="#DejaVuSans-35" transform="translate(95.410156 0)"/>
      </g>
     </g>
    </g>
    <g id="ytick_4">
     <g id="line2d_8">
      <path d="M 43.78125 139.460607 
L 400.90125 139.460607 
" clip-path="url(#paca8cf6047)" style="fill: none; stroke: #cccccc; stroke-width: 0.8; stroke-linecap: round"/>
     </g>
     <g id="text_9">
      <!-- 2.0 -->
      <g style="fill: #262626" transform="translate(20.878125 143.259826) scale(0.1 -0.1)">
       <use xlink:href="#DejaVuSans-32"/>
       <use xlink:href="#DejaVuSans-2e" transform="translate(63.623047 0)"/>
       <use xlink:href="#DejaVuSans-30" transform="translate(95.410156 0)"/>
      </g>
     </g>
    </g>
    <g id="ytick_5">
     <g id="line2d_9">
      <path d="M 43.78125 95.526735 
L 400.90125 95.526735 
" clip-path="url(#paca8cf6047)" style="fill: none; stroke: #cccccc; stroke-width: 0.8; stroke-linecap: round"/>
     </g>
     <g id="text_10">
      <!-- 2.5 -->
      <g style="fill: #262626" transform="translate(20.878125 99.325954) scale(0.1 -0.1)">
       <use xlink:href="#DejaVuSans-32"/>
       <use xlink:href="#DejaVuSans-2e" transform="translate(63.623047 0)"/>
       <use xlink:href="#DejaVuSans-35" transform="translate(95.410156 0)"/>
      </g>
     </g>
    </g>
    <g id="ytick_6">
     <g id="line2d_10">
      <path d="M 43.78125 51.592863 
L 400.90125 51.592863 
" clip-path="url(#paca8cf6047)" style="fill: none; stroke: #cccccc; stroke-width: 0.8; stroke-linecap: round"/>
     </g>
     <g id="text_11">
      <!-- 3.0 -->
      <g style="fill: #262626" transform="translate(20.878125 55.392082) scale(0.1 -0.1)">
       <use xlink:href="#DejaVuSans-33"/>
       <use xlink:href="#DejaVuSans-2e" transform="translate(63.623047 0)"/>
       <use xlink:href="#DejaVuSans-30" transform="translate(95.410156 0)"/>
      </g>
     </g>
    </g>
    <g id="text_12">
     <!-- Mean Latency (ns) -->
     <g style="fill: #262626" transform="translate(14.798438 214.92035) rotate(-90) scale(0.1 -0.1)">
      <defs>
       <path id="DejaVuSans-4d" d="M 628 4666 
L 1569 4666 
L 2759 1491 
L 3956 4666 
L 4897 4666 
L 4897 0 
L 4281 0 
L 4281 4097 
L 3078 897 
L 2444 897 
L 1241 4097 
L 1241 0 
L 628 0 
L 628 4666 
z
" transform="scale(0.015625)"/>
       <path id="DejaVuSans-61" d="M 2194 1759 
Q 1497 1759 1228 1600 
Q 959 1441 959 1056 
Q 959 750 1161 570 
Q 1363 391 1709 391 
Q 2188 391 2477 730 
Q 2766 1069 2766 1631 
L 2766 1759 
L 2194 1759 
z
M 3341 1997 
L 3341 0 
L 2766 0 
L 2766 531 
Q 2569 213 2275 61 
Q 1981 -91 1556 -91 
Q 1019 -91 701 211 
Q 384 513 384 1019 
Q 384 1609 779 1909 
Q 1175 2209 1959 2209 
L 2766 2209 
L 2766 2266 
Q 2766 2663 2505 2880 
Q 2244 3097 1772 3097 
Q 1472 3097 1187 3025 
Q 903 2953 641 2809 
L 641 3341 
Q 956 3463 1253 3523 
Q 1550 3584 1831 3584 
Q 2591 3584 2966 3190 
Q 3341 2797 3341 1997 
z
" transform="scale(0.015625)"/>
       <path id="DejaVuSans-6e" d="M 3513 2113 
L 3513 0 
L 2938 0 
L 2938 2094 
Q 2938 2591 2744 2837 
Q 2550 3084 2163 3084 
Q 1697 3084 1428 2787 
Q 1159 2491 1159 1978 
L 1159 0 
L 581 0 
L 581 3500 
L 1159 3500 
L 1159 2956 
Q 1366 3272 1645 3428 
Q 1925 3584 2291 3584 
Q 2894 3584 3203 3211 
Q 3513 2838 3513 2113 
z
" transform="scale(0.015625)"/>
       <path id="DejaVuSans-4c" d="M 628 4666 
L 1259 4666 
L 1259 531 
L 3531 531 
L 3531 0 
L 628 0 
L 628 4666 
z
" transform="scale(0.015625)"/>
       <path id="DejaVuSans-74" d="M 1172 4494 
L 1172 3500 
L 2356 3500 
L 2356 3053 
L 1172 3053 
L 1172 1153 
Q 1172 725 1289 603 
Q 1406 481 1766 481 
L 2356 481 
L 2356 0 
L 1766 0 
Q 1100 0 847 248 
Q 594 497 594 1153 
L 594 3053 
L 172 3053 
L 172 3500 
L 594 3500 
L 594 4494 
L 1172 4494 
z
" transform="scale(0.015625)"/>
       <path id="DejaVuSans-63" d="M 3122 3366 
L 3122 2828 
Q 2878 2963 2633 3030 
Q 2388 3097 2138 3097 
Q 1578 3097 1268 2742 
Q 959 2388 959 1747 
Q 959 1106 1268 751 
Q 1578 397 2138 397 
Q 2388 397 2633 464 
Q 2878 531 3122 666 
L 3122 134 
Q 2881 22 2623 -34 
Q 2366 -91 2075 -91 
Q 1284 -91 818 406 
Q 353 903 353 1747 
Q 353 2603 823 3093 
Q 1294 3584 2113 3584 
Q 2378 3584 2631 3529 
Q 2884 3475 3122 3366 
z
" transform="scale(0.015625)"/>
       <path id="DejaVuSans-79" d="M 2059 -325 
Q 1816 -950 1584 -1140 
Q 1353 -1331 966 -1331 
L 506 -1331 
L 506 -850 
L 844 -850 
Q 1081 -850 1212 -737 
Q 1344 -625 1503 -206 
L 1606 56 
L 191 3500 
L 800 3500 
L 1894 763 
L 2988 3500 
L 3597 3500 
L 2059 -325 
z
" transform="scale(0.015625)"/>
       <path id="DejaVuSans-28" d="M 1984 4856 
Q 1566 4138 1362 3434 
Q 1159 2731 1159 2009 
Q 1159 1288 1364 580 
Q 1569 -128 1984 -844 
L 1484 -844 
Q 1016 -109 783 600 
Q 550 1309 550 2009 
Q 550 2706 781 3412 
Q 1013 4119 1484 4856 
L 1984 4856 
z
" transform="scale(0.015625)"/>
       <path id="DejaVuSans-29" d="M 513 4856 
L 1013 4856 
Q 1481 4119 1714 3412 
Q 1947 2706 1947 2009 
Q 1947 1309 1714 600 
Q 1481 -109 1013 -844 
L 513 -844 
Q 928 -128 1133 580 
Q 1338 1288 1338 2009 
Q 1338 2731 1133 3434 
Q 928 4138 513 4856 
z
" transform="scale(0.015625)"/>
      </defs>
      <use xlink:href="#DejaVuSans-4d"/>
      <use xlink:href="#DejaVuSans-65" transform="translate(86.279297 0)"/>
      <use xlink:href="#DejaVuSans-61" transform="translate(147.802734 0)"/>
      <use xlink:href="#DejaVuSans-6e" transform="translate(209.082031 0)"/>
      <use xlink:href="#DejaVuSans-20" transform="translate(272.460938 0)"/>
      <use xlink:href="#DejaVuSans-4c" transform="translate(304.248047 0)"/>
      <use xlink:href="#DejaVuSans-61" transform="translate(359.960938 0)"/>
      <use xlink:href="#DejaVuSans-74" transform="translate(421.240234 0)"/>
      <use xlink:href="#DejaVuSans-65" transform="translate(460.449219 0)"/>
      <use xlink:href="#DejaVuSans-6e" transform="translate(521.972656 0)"/>
      <use xlink:href="#DejaVuSans-63" transform="translate(585.351562 0)"/>
      <use xlink:href="#DejaVuSans-79" transform="translate(640.332031 0)"/>
      <use xlink:href="#DejaVuSans-20" transform="translate(699.511719 0)"/>
      <use xlink:href="#DejaVuSans-28" transform="translate(731.298828 0)"/>
      <use xlink:href="#DejaVuSans-6e" transform="translate(770.3125 0)"/>
      <use xlink:href="#DejaVuSans-73" transform="translate(833.691406 0)"/>
      <use xlink:href="#DejaVuSans-29" transform="translate(885.791016 0)"/>
     </g>
    </g>
    <g id="text_13">
     <!-- 1e6 -->
     <g style="fill: #262626" transform="translate(43.78125 32.623725) scale(0.1 -0.1)">
      <use xlink:href="#DejaVuSans-31"/>
      <use xlink:href="#DejaVuSans-65" transform="translate(63.623047 0)"/>
      <use xlink:href="#DejaVuSans-36" transform="translate(125.146484 0)"/>
     </g>
    </g>
   </g>
   <g id="FillBetweenPolyCollection_1"/>
   <g id="FillBetweenPolyCollection_2"/>
   <g id="FillBetweenPolyCollection_3"/>
   <g id="FillBetweenPolyCollection_4"/>
   <g id="FillBetweenPolyCollection_5"/>
   <g id="FillBetweenPolyCollection_6"/>
   <g id="FillBetweenPolyCollection_7"/>
   <g id="line2d_11">
    <path d="M 60.013977 279.73809 
L 106.393198 259.091533 
L 199.15164 187.395302 
L 384.668523 47.719725 
" clip-path="url(#paca8cf6047)" style="fill: none; stroke: #4c02a1; stroke-width: 1.5; stroke-linecap: round"/>
   </g>
   <g id="line2d_12">
    <path d="M 60.013977 289.639725 
L 106.393198 261.701594 
L 199.15164 212.470998 
L 384.668523 89.920397 
" clip-path="url(#paca8cf6047)" style="fill: none; stroke: #7e03a8; stroke-width: 1.5; stroke-linecap: round"/>
   </g>
   <g id="line2d_13">
    <path d="M 60.013977 279.569254 
L 106.393198 261.094025 
L 199.15164 186.088901 
L 384.668523 54.982755 
" clip-path="url(#paca8cf6047)" style="fill: none; stroke: #aa2395; stroke-width: 1.5; stroke-linecap: round"/>
   </g>
   <g id="line2d_14">
    <path d="M 60.013977 285.880985 
L 106.393198 256.829288 
L 199.15164 214.962558 
L 384.668523 90.001389 
" clip-path="url(#paca8cf6047)" style="fill: none; stroke: #cc4778; stroke-width: 1.5; stroke-linecap: round"/>
   </g>
   <g id="line2d_15">
    <path d="M 60.013977 284.057415 
L 106.393198 256.18735 
L 199.15164 209.125409 
L 384.668523 84.320601 
" clip-path="url(#paca8cf6047)" style="fill: none; stroke: #e66c5c; stroke-width: 1.5; stroke-linecap: round"/>
   </g>
   <g id="line2d_16">
    <path d="M 60.013977 287.889269 
L 106.393198 264.00007 
L 199.15164 210.897709 
L 384.668523 83.402058 
" clip-path="url(#paca8cf6047)" style="fill: none; stroke: #f89540; stroke-width: 1.5; stroke-linecap: round"/>
   </g>
   <g id="line2d_17">
    <path d="M 60.013977 280.754314 
L 106.393198 265.749278 
L 199.15164 212.697186 
L 384.668523 87.457644 
" clip-path="url(#paca8cf6047)" style="fill: none; stroke: #fdc527; stroke-width: 1.5; stroke-linecap: round"/>
   </g>
   <g id="line2d_18"/>
   <g id="line2d_19"/>
   <g id="line2d_20"/>
   <g id="line2d_21"/>
   <g id="line2d_22"/>
   <g id="line2d_23"/>
   <g id="line2d_24"/>
   <g id="text_14">
    <path d="M 100.825147 263.682511 
L 102.296844 263.027358 
L 100.034628 257.945647 
L 98.57601 258.979802 
L 98.210624 258.15902 
L 99.660677 257.128678 
L 100.561396 256.727707 
L 103.188999 262.630199 
L 104.660696 261.975046 
L 104.998122 262.73302 
L 101.162573 264.440485 
L 100.825147 263.682511 
z
" clip-path="url(#paca8cf6047)" style="fill: #4c02a1; stroke: #ffffff; stroke-width: 5"/>
    <path d="M 100.825147 263.682511 
L 102.296844 263.027358 
L 100.034628 257.945647 
L 98.57601 258.979802 
L 98.210624 258.15902 
L 99.660677 257.128678 
L 100.561396 256.727707 
L 103.188999 262.630199 
L 104.660696 261.975046 
L 104.998122 262.73302 
L 101.162573 264.440485 
L 100.825147 263.682511 
z
" clip-path="url(#paca8cf6047)" style="fill: #4c02a1"/>
   </g>
   <g id="text_15">
    <path d="M 140.796463 239.285427 
L 140.42116 243.89102 
L 142.621135 242.723405 
L 140.796463 239.285427 
z
M 140.164478 238.647935 
L 141.260325 238.066325 
L 143.487875 242.263392 
L 144.407062 241.775543 
L 144.791627 242.500127 
L 143.872441 242.987976 
L 144.678197 244.506152 
L 143.811457 244.966165 
L 143.0057 243.447989 
L 140.099083 244.990646 
L 139.652987 244.150129 
L 140.164478 238.647935 
z
" clip-path="url(#paca8cf6047)" style="fill: #7e03a8; stroke: #ffffff; stroke-width: 5"/>
    <path d="M 140.796463 239.285427 
L 140.42116 243.89102 
L 142.621135 242.723405 
L 140.796463 239.285427 
z
M 140.164478 238.647935 
L 141.260325 238.066325 
L 143.487875 242.263392 
L 144.407062 241.775543 
L 144.791627 242.500127 
L 143.872441 242.987976 
L 144.678197 244.506152 
L 143.811457 244.966165 
L 143.0057 243.447989 
L 140.099083 244.990646 
L 139.652987 244.150129 
L 140.164478 238.647935 
z
" clip-path="url(#paca8cf6047)" style="fill: #7e03a8"/>
   </g>
   <g id="text_16">
    <path d="M 181.720718 199.279434 
Q 181.173973 199.721536 181.097275 200.26782 
Q 181.021793 200.813122 181.435404 201.324633 
Q 181.849998 201.837359 182.399021 201.877682 
Q 182.949258 201.917022 183.496004 201.47492 
Q 184.042749 201.032818 184.119679 200.484336 
Q 184.196841 199.933657 183.785194 199.424576 
Q 183.371583 198.913066 182.821346 198.873725 
Q 182.272323 198.833402 181.720718 199.279434 
z
M 180.690763 199.573742 
Q 180.099232 199.851117 179.550309 199.736366 
Q 179.001618 199.619418 178.608638 199.133422 
Q 178.059449 198.454243 178.223719 197.668356 
Q 178.389204 196.881487 179.231192 196.20065 
Q 180.07804 195.515883 180.879686 195.520722 
Q 181.681333 195.525562 182.230522 196.204741 
Q 182.623502 196.690737 182.621803 197.252735 
Q 182.620336 197.812535 182.22894 198.329961 
Q 182.887115 198.010754 183.500282 198.137858 
Q 184.113681 198.262766 184.551853 198.804651 
Q 185.218936 199.629629 185.072559 200.477404 
Q 184.9252 201.323964 183.987228 202.082415 
Q 183.050471 202.839883 182.190604 202.807773 
Q 181.330969 202.773466 180.663886 201.948488 
Q 180.225714 201.406603 180.233174 200.779664 
Q 180.240867 200.150528 180.690763 199.573742 
z
M 179.430599 198.589343 
Q 179.786245 199.029169 180.26027 199.053779 
Q 180.73551 199.077406 181.232441 198.675584 
Q 181.726941 198.275727 181.805737 197.804103 
Q 181.885747 197.331497 181.530101 196.891671 
Q 181.173472 196.45063 180.694587 196.42995 
Q 180.216917 196.408288 179.722416 196.808145 
Q 179.225486 197.209967 179.14912 197.679625 
Q 179.07397 198.148302 179.430599 198.589343 
z
" clip-path="url(#paca8cf6047)" style="fill: #aa2395; stroke: #ffffff; stroke-width: 5"/>
    <path d="M 181.720718 199.279434 
Q 181.173973 199.721536 181.097275 200.26782 
Q 181.021793 200.813122 181.435404 201.324633 
Q 181.849998 201.837359 182.399021 201.877682 
Q 182.949258 201.917022 183.496004 201.47492 
Q 184.042749 201.032818 184.119679 200.484336 
Q 184.196841 199.933657 183.785194 199.424576 
Q 183.371583 198.913066 182.821346 198.873725 
Q 182.272323 198.833402 181.720718 199.279434 
z
M 180.690763 199.573742 
Q 180.099232 199.851117 179.550309 199.736366 
Q 179.001618 199.619418 178.608638 199.133422 
Q 178.059449 198.454243 178.223719 197.668356 
Q 178.389204 196.881487 179.231192 196.20065 
Q 180.07804 195.515883 180.879686 195.520722 
Q 181.681333 195.525562 182.230522 196.204741 
Q 182.623502 196.690737 182.621803 197.252735 
Q 182.620336 197.812535 182.22894 198.329961 
Q 182.887115 198.010754 183.500282 198.137858 
Q 184.113681 198.262766 184.551853 198.804651 
Q 185.218936 199.629629 185.072559 200.477404 
Q 184.9252 201.323964 183.987228 202.082415 
Q 183.050471 202.839883 182.190604 202.807773 
Q 181.330969 202.773466 180.663886 201.948488 
Q 180.225714 201.406603 180.233174 200.779664 
Q 180.240867 200.150528 180.690763 199.573742 
z
M 179.430599 198.589343 
Q 179.786245 199.029169 180.26027 199.053779 
Q 180.73551 199.077406 181.232441 198.675584 
Q 181.726941 198.275727 181.805737 197.804103 
Q 181.885747 197.331497 181.530101 196.891671 
Q 181.173472 196.45063 180.694587 196.42995 
Q 180.216917 196.408288 179.722416 196.808145 
Q 179.225486 197.209967 179.14912 197.679625 
Q 179.07397 198.148302 179.430599 198.589343 
z
" clip-path="url(#paca8cf6047)" style="fill: #aa2395"/>
   </g>
   <g id="text_17">
    <path d="M 219.171253 203.804297 
L 220.507353 202.904321 
L 217.399776 198.290823 
L 216.142152 199.561817 
L 215.640226 198.81666 
L 216.890074 197.550903 
L 217.707803 197.000093 
L 221.317307 202.358749 
L 222.653408 201.458774 
L 223.116926 202.146911 
L 219.634771 204.492434 
L 219.171253 203.804297 
z
M 224.365336 196.437984 
Q 223.814567 196.808972 223.7459 197.403443 
Q 223.677656 197.995745 224.119351 198.651483 
Q 224.558427 199.303334 225.135581 199.466558 
Q 225.713158 199.627613 226.263926 199.256624 
Q 226.814695 198.885635 226.881194 198.290741 
Q 226.946819 197.694552 226.507743 197.042701 
Q 226.066048 196.386962 225.491513 196.227626 
Q 224.916105 196.066995 224.365336 196.437984 
z
M 224.261633 192.779582 
L 224.763559 193.52474 
Q 224.357362 193.58735 223.992246 193.722136 
Q 223.626257 193.855626 223.317826 194.06338 
Q 222.507872 194.608952 222.448587 195.443894 
Q 222.390597 196.277965 223.074285 197.424417 
Q 223.075303 196.911308 223.308998 196.480729 
Q 223.543988 196.049276 223.976828 195.757722 
Q 224.887864 195.144063 225.789337 195.341274 
Q 226.689937 195.53719 227.330656 196.4884 
Q 227.958282 197.420171 227.787232 198.354888 
Q 227.615308 199.288309 226.700384 199.904587 
Q 225.650684 200.611648 224.55482 200.181781 
Q 223.458083 199.750619 222.429789 198.224017 
Q 221.464345 196.790723 221.570328 195.479723 
Q 221.676311 194.168722 222.82191 193.397065 
Q 223.130341 193.189312 223.484982 193.038975 
Q 223.839623 192.888638 224.261633 192.779582 
z
" clip-path="url(#paca8cf6047)" style="fill: #cc4778; stroke: #ffffff; stroke-width: 5"/>
    <path d="M 219.171253 203.804297 
L 220.507353 202.904321 
L 217.399776 198.290823 
L 216.142152 199.561817 
L 215.640226 198.81666 
L 216.890074 197.550903 
L 217.707803 197.000093 
L 221.317307 202.358749 
L 222.653408 201.458774 
L 223.116926 202.146911 
L 219.634771 204.492434 
L 219.171253 203.804297 
z
M 224.365336 196.437984 
Q 223.814567 196.808972 223.7459 197.403443 
Q 223.677656 197.995745 224.119351 198.651483 
Q 224.558427 199.303334 225.135581 199.466558 
Q 225.713158 199.627613 226.263926 199.256624 
Q 226.814695 198.885635 226.881194 198.290741 
Q 226.946819 197.694552 226.507743 197.042701 
Q 226.066048 196.386962 225.491513 196.227626 
Q 224.916105 196.066995 224.365336 196.437984 
z
M 224.261633 192.779582 
L 224.763559 193.52474 
Q 224.357362 193.58735 223.992246 193.722136 
Q 223.626257 193.855626 223.317826 194.06338 
Q 222.507872 194.608952 222.448587 195.443894 
Q 222.390597 196.277965 223.074285 197.424417 
Q 223.075303 196.911308 223.308998 196.480729 
Q 223.543988 196.049276 223.976828 195.757722 
Q 224.887864 195.144063 225.789337 195.341274 
Q 226.689937 195.53719 227.330656 196.4884 
Q 227.958282 197.420171 227.787232 198.354888 
Q 227.615308 199.288309 226.700384 199.904587 
Q 225.650684 200.611648 224.55482 200.181781 
Q 223.458083 199.750619 222.429789 198.224017 
Q 221.464345 196.790723 221.570328 195.479723 
Q 221.676311 194.168722 222.82191 193.397065 
Q 223.130341 193.189312 223.484982 193.038975 
Q 223.839623 192.888638 224.261633 192.779582 
z
" clip-path="url(#paca8cf6047)" style="fill: #cc4778"/>
   </g>
   <g id="text_18">
    <path d="M 259.950889 166.810883 
Q 260.622773 166.541547 261.219821 166.718022 
Q 261.817294 166.892329 262.209767 167.475724 
Q 262.81156 168.370262 262.526304 169.275888 
Q 262.240176 170.180217 261.105798 170.94336 
Q 260.725943 171.198904 260.272167 171.394953 
Q 259.818391 171.591003 259.288101 171.729303 
L 258.756954 170.939775 
Q 259.23006 170.909623 259.702576 170.73863 
Q 260.176388 170.566764 260.618471 170.269356 
Q 261.387256 169.752164 261.58636 169.177556 
Q 261.785464 168.602948 261.395607 168.023442 
Q 261.035404 167.488016 260.458393 167.439298 
Q 259.88051 167.389285 259.212847 167.838449 
L 258.507588 168.312906 
L 258.054935 167.640057 
L 258.792605 167.143796 
Q 259.395446 166.73824 259.553443 166.28168 
Q 259.711439 165.825119 259.406182 165.371367 
Q 259.093076 164.905948 258.59503 164.879435 
Q 258.097409 164.850753 257.481603 165.26503 
Q 257.144531 165.491793 256.809203 165.824722 
Q 256.473004 166.156355 256.114389 166.619824 
L 255.624234 165.891229 
Q 256.003733 165.447607 256.367205 165.108926 
Q 256.730676 164.770245 257.091085 164.527783 
Q 258.02322 163.900698 258.850326 163.960067 
Q 259.677856 164.017268 260.162779 164.738084 
Q 260.501178 165.2411 260.446238 165.780868 
Q 260.391298 166.320636 259.950889 166.810883 
z
M 265.186229 167.026953 
L 268.04227 165.105578 
L 268.505389 165.793983 
L 264.665355 168.377331 
L 264.202237 167.688925 
Q 264.343211 166.893546 264.601025 165.541238 
Q 264.859263 164.186761 264.906662 163.812136 
Q 265.002946 163.107084 264.952687 162.696466 
Q 264.903725 162.284976 264.704872 161.98939 
Q 264.380427 161.507117 263.837972 161.431386 
Q 263.294645 161.354359 262.751439 161.719795 
Q 262.366399 161.978828 262.028409 162.400174 
Q 261.691715 162.820649 261.388708 163.419961 
L 260.832267 162.592837 
Q 261.192767 162.062188 261.553858 161.672381 
Q 261.916245 161.281701 262.272763 161.041856 
Q 263.212677 160.409537 264.088035 160.50424 
Q 264.96252 160.597646 265.491051 161.383284 
Q 265.742234 161.756657 265.827238 162.18533 
Q 265.912665 162.611835 265.848439 163.314153 
Q 265.826684 163.500157 265.661126 164.426949 
Q 265.496864 165.352868 265.186229 167.026953 
z
" clip-path="url(#paca8cf6047)" style="fill: #e66c5c; stroke: #ffffff; stroke-width: 5"/>
    <path d="M 259.950889 166.810883 
Q 260.622773 166.541547 261.219821 166.718022 
Q 261.817294 166.892329 262.209767 167.475724 
Q 262.81156 168.370262 262.526304 169.275888 
Q 262.240176 170.180217 261.105798 170.94336 
Q 260.725943 171.198904 260.272167 171.394953 
Q 259.818391 171.591003 259.288101 171.729303 
L 258.756954 170.939775 
Q 259.23006 170.909623 259.702576 170.73863 
Q 260.176388 170.566764 260.618471 170.269356 
Q 261.387256 169.752164 261.58636 169.177556 
Q 261.785464 168.602948 261.395607 168.023442 
Q 261.035404 167.488016 260.458393 167.439298 
Q 259.88051 167.389285 259.212847 167.838449 
L 258.507588 168.312906 
L 258.054935 167.640057 
L 258.792605 167.143796 
Q 259.395446 166.73824 259.553443 166.28168 
Q 259.711439 165.825119 259.406182 165.371367 
Q 259.093076 164.905948 258.59503 164.879435 
Q 258.097409 164.850753 257.481603 165.26503 
Q 257.144531 165.491793 256.809203 165.824722 
Q 256.473004 166.156355 256.114389 166.619824 
L 255.624234 165.891229 
Q 256.003733 165.447607 256.367205 165.108926 
Q 256.730676 164.770245 257.091085 164.527783 
Q 258.02322 163.900698 258.850326 163.960067 
Q 259.677856 164.017268 260.162779 164.738084 
Q 260.501178 165.2411 260.446238 165.780868 
Q 260.391298 166.320636 259.950889 166.810883 
z
M 265.186229 167.026953 
L 268.04227 165.105578 
L 268.505389 165.793983 
L 264.665355 168.377331 
L 264.202237 167.688925 
Q 264.343211 166.893546 264.601025 165.541238 
Q 264.859263 164.186761 264.906662 163.812136 
Q 265.002946 163.107084 264.952687 162.696466 
Q 264.903725 162.284976 264.704872 161.98939 
Q 264.380427 161.507117 263.837972 161.431386 
Q 263.294645 161.354359 262.751439 161.719795 
Q 262.366399 161.978828 262.028409 162.400174 
Q 261.691715 162.820649 261.388708 163.419961 
L 260.832267 162.592837 
Q 261.192767 162.062188 261.553858 161.672381 
Q 261.916245 161.281701 262.272763 161.041856 
Q 263.212677 160.409537 264.088035 160.50424 
Q 264.96252 160.597646 265.491051 161.383284 
Q 265.742234 161.756657 265.827238 162.18533 
Q 265.912665 162.611835 265.848439 163.314153 
Q 265.826684 163.500157 265.661126 164.426949 
Q 265.496864 165.352868 265.186229 167.026953 
z
" clip-path="url(#paca8cf6047)" style="fill: #e66c5c"/>
   </g>
   <g id="text_19">
    <path d="M 299.446697 140.419519 
Q 298.899417 140.795635 298.836303 141.39072 
Q 298.773593 141.983633 299.221392 142.635219 
Q 299.666537 143.282941 300.24519 143.440768 
Q 300.824245 143.596422 301.371526 143.220306 
Q 301.918806 142.84419 301.979746 142.248702 
Q 302.039802 141.651925 301.594658 141.004203 
Q 301.146858 140.352618 300.57086 140.198654 
Q 299.993977 140.043403 299.446697 140.419519 
z
M 299.308835 136.762245 
L 299.817698 137.502683 
Q 299.412103 137.569084 299.048262 137.707273 
Q 298.683535 137.844175 298.377058 138.0548 
Q 297.572234 138.607912 297.520748 139.443372 
Q 297.47055 140.277947 298.164914 141.417965 
Q 298.16114 140.90487 298.390804 140.472126 
Q 298.621755 140.038498 299.051853 139.742915 
Q 299.957119 139.120775 300.860394 139.309559 
Q 301.762784 139.497056 302.412359 140.442242 
Q 303.048658 141.368111 302.886344 142.304385 
Q 302.723144 143.23937 301.814015 143.864165 
Q 300.770963 144.580998 299.671133 144.161384 
Q 298.570418 143.740481 297.527913 142.223549 
Q 296.549126 140.799332 296.642862 139.4874 
Q 296.736598 138.175467 297.874941 137.393146 
Q 298.181418 137.182521 298.53464 137.028879 
Q 298.887862 136.875237 299.308835 136.762245 
z
M 303.72838 134.572407 
L 303.880239 139.19077 
L 305.932862 137.780114 
L 303.72838 134.572407 
z
M 303.02788 134.011069 
L 304.050329 133.308396 
L 306.741549 137.224347 
L 307.59917 136.634952 
L 308.063784 137.311004 
L 307.206163 137.9004 
L 308.17964 139.31689 
L 307.370952 139.872657 
L 306.397476 138.456166 
L 303.685541 140.319932 
L 303.146589 139.535711 
L 303.02788 134.011069 
z
" clip-path="url(#paca8cf6047)" style="fill: #f89540; stroke: #ffffff; stroke-width: 5"/>
    <path d="M 299.446697 140.419519 
Q 298.899417 140.795635 298.836303 141.39072 
Q 298.773593 141.983633 299.221392 142.635219 
Q 299.666537 143.282941 300.24519 143.440768 
Q 300.824245 143.596422 301.371526 143.220306 
Q 301.918806 142.84419 301.979746 142.248702 
Q 302.039802 141.651925 301.594658 141.004203 
Q 301.146858 140.352618 300.57086 140.198654 
Q 299.993977 140.043403 299.446697 140.419519 
z
M 299.308835 136.762245 
L 299.817698 137.502683 
Q 299.412103 137.569084 299.048262 137.707273 
Q 298.683535 137.844175 298.377058 138.0548 
Q 297.572234 138.607912 297.520748 139.443372 
Q 297.47055 140.277947 298.164914 141.417965 
Q 298.16114 140.90487 298.390804 140.472126 
Q 298.621755 140.038498 299.051853 139.742915 
Q 299.957119 139.120775 300.860394 139.309559 
Q 301.762784 139.497056 302.412359 140.442242 
Q 303.048658 141.368111 302.886344 142.304385 
Q 302.723144 143.23937 301.814015 143.864165 
Q 300.770963 144.580998 299.671133 144.161384 
Q 298.570418 143.740481 297.527913 142.223549 
Q 296.549126 140.799332 296.642862 139.4874 
Q 296.736598 138.175467 297.874941 137.393146 
Q 298.181418 137.182521 298.53464 137.028879 
Q 298.887862 136.875237 299.308835 136.762245 
z
M 303.72838 134.572407 
L 303.880239 139.19077 
L 305.932862 137.780114 
L 303.72838 134.572407 
z
M 303.02788 134.011069 
L 304.050329 133.308396 
L 306.741549 137.224347 
L 307.59917 136.634952 
L 308.063784 137.311004 
L 307.206163 137.9004 
L 308.17964 139.31689 
L 307.370952 139.872657 
L 306.397476 138.456166 
L 303.685541 140.319932 
L 303.146589 139.535711 
L 303.02788 134.011069 
z
" clip-path="url(#paca8cf6047)" style="fill: #f89540"/>
   </g>
   <g id="text_20">
    <path d="M 337.067185 121.920806 
L 338.402357 121.019453 
L 335.290022 116.409163 
L 334.03371 117.681454 
L 333.531015 116.936814 
L 334.779557 115.669769 
L 335.596718 115.118116 
L 339.211747 120.473046 
L 340.546919 119.571693 
L 341.011146 120.259351 
L 337.531413 122.608465 
L 337.067185 121.920806 
z
M 342.902408 117.981539 
L 345.755349 116.055563 
L 346.219576 116.743222 
L 342.383711 119.332754 
L 341.919484 118.645096 
Q 342.059176 117.84949 342.314811 116.496768 
Q 342.570866 115.141877 342.617661 114.767177 
Q 342.712808 114.06197 342.661888 113.651434 
Q 342.612263 113.240023 342.412934 112.944758 
Q 342.087712 112.463008 341.545136 112.388152 
Q 341.001685 112.312 340.459069 112.678312 
Q 340.074447 112.937964 339.737136 113.359855 
Q 339.401121 113.780871 339.099079 114.380671 
L 338.541307 113.554445 
Q 338.900951 113.023216 339.261413 112.632827 
Q 339.62317 112.241563 339.979302 112.001144 
Q 340.918195 111.367312 341.793704 111.460604 
Q 342.668339 111.552601 343.198135 112.337386 
Q 343.44992 112.710353 343.535614 113.138889 
Q 343.621729 113.565256 343.558635 114.267676 
Q 343.537179 114.453715 343.373115 115.380772 
Q 343.210345 116.306955 342.902408 117.981539 
z
M 347.746267 111.534932 
Q 347.163505 111.928345 347.040083 112.466003 
Q 346.917956 113.002787 347.286016 113.547993 
Q 347.65495 114.094494 348.198466 114.181912 
Q 348.743277 114.268456 349.326039 113.875043 
Q 349.9088 113.48163 350.032643 112.941803 
Q 350.156906 112.399806 349.790595 111.857191 
Q 349.422535 111.311985 348.877724 111.225441 
Q 348.334208 111.138022 347.746267 111.534932 
z
M 346.694806 111.739518 
Q 346.081601 111.964962 345.544588 111.8034 
Q 345.007996 111.639668 344.658296 111.121658 
Q 344.169589 110.397739 344.400878 109.628904 
Q 344.633461 108.859194 345.530914 108.253338 
Q 346.433546 107.643985 347.231803 107.71779 
Q 348.03006 107.791596 348.518766 108.515515 
Q 348.868467 109.033525 348.818412 109.593292 
Q 348.768778 110.15089 348.334308 110.632716 
Q 349.017511 110.37133 349.617465 110.550728 
Q 350.21784 110.727957 350.607756 111.305538 
Q 351.201373 112.18486 350.982586 113.016895 
Q 350.762924 113.847634 349.763164 114.522556 
Q 348.7647 115.196604 347.910785 115.090619 
Q 347.057292 114.982465 346.463675 114.103142 
Q 346.073759 113.525561 346.135142 112.90159 
Q 346.196945 112.275449 346.694806 111.739518 
z
M 345.524027 110.65033 
Q 345.840506 111.119129 346.310654 111.184438 
Q 346.782098 111.248874 347.311764 110.891305 
Q 347.838839 110.535484 347.957927 110.072391 
Q 348.07831 109.608423 347.761831 109.139624 
Q 347.444477 108.669529 346.969148 108.607717 
Q 346.495115 108.54503 345.968039 108.900851 
Q 345.438374 109.258419 345.321876 109.719765 
Q 345.206673 110.180236 345.524027 110.65033 
z
" clip-path="url(#paca8cf6047)" style="fill: #fdc527; stroke: #ffffff; stroke-width: 5"/>
    <path d="M 337.067185 121.920806 
L 338.402357 121.019453 
L 335.290022 116.409163 
L 334.03371 117.681454 
L 333.531015 116.936814 
L 334.779557 115.669769 
L 335.596718 115.118116 
L 339.211747 120.473046 
L 340.546919 119.571693 
L 341.011146 120.259351 
L 337.531413 122.608465 
L 337.067185 121.920806 
z
M 342.902408 117.981539 
L 345.755349 116.055563 
L 346.219576 116.743222 
L 342.383711 119.332754 
L 341.919484 118.645096 
Q 342.059176 117.84949 342.314811 116.496768 
Q 342.570866 115.141877 342.617661 114.767177 
Q 342.712808 114.06197 342.661888 113.651434 
Q 342.612263 113.240023 342.412934 112.944758 
Q 342.087712 112.463008 341.545136 112.388152 
Q 341.001685 112.312 340.459069 112.678312 
Q 340.074447 112.937964 339.737136 113.359855 
Q 339.401121 113.780871 339.099079 114.380671 
L 338.541307 113.554445 
Q 338.900951 113.023216 339.261413 112.632827 
Q 339.62317 112.241563 339.979302 112.001144 
Q 340.918195 111.367312 341.793704 111.460604 
Q 342.668339 111.552601 343.198135 112.337386 
Q 343.44992 112.710353 343.535614 113.138889 
Q 343.621729 113.565256 343.558635 114.267676 
Q 343.537179 114.453715 343.373115 115.380772 
Q 343.210345 116.306955 342.902408 117.981539 
z
M 347.746267 111.534932 
Q 347.163505 111.928345 347.040083 112.466003 
Q 346.917956 113.002787 347.286016 113.547993 
Q 347.65495 114.094494 348.198466 114.181912 
Q 348.743277 114.268456 349.326039 113.875043 
Q 349.9088 113.48163 350.032643 112.941803 
Q 350.156906 112.399806 349.790595 111.857191 
Q 349.422535 111.311985 348.877724 111.225441 
Q 348.334208 111.138022 347.746267 111.534932 
z
M 346.694806 111.739518 
Q 346.081601 111.964962 345.544588 111.8034 
Q 345.007996 111.639668 344.658296 111.121658 
Q 344.169589 110.397739 344.400878 109.628904 
Q 344.633461 108.859194 345.530914 108.253338 
Q 346.433546 107.643985 347.231803 107.71779 
Q 348.03006 107.791596 348.518766 108.515515 
Q 348.868467 109.033525 348.818412 109.593292 
Q 348.768778 110.15089 348.334308 110.632716 
Q 349.017511 110.37133 349.617465 110.550728 
Q 350.21784 110.727957 350.607756 111.305538 
Q 351.201373 112.18486 350.982586 113.016895 
Q 350.762924 113.847634 349.763164 114.522556 
Q 348.7647 115.196604 347.910785 115.090619 
Q 347.057292 114.982465 346.463675 114.103142 
Q 346.073759 113.525561 346.135142 112.90159 
Q 346.196945 112.275449 346.694806 111.739518 
z
M 345.524027 110.65033 
Q 345.840506 111.119129 346.310654 111.184438 
Q 346.782098 111.248874 347.311764 110.891305 
Q 347.838839 110.535484 347.957927 110.072391 
Q 348.07831 109.608423 347.761831 109.139624 
Q 347.444477 108.669529 346.969148 108.607717 
Q 346.495115 108.54503 345.968039 108.900851 
Q 345.438374 109.258419 345.321876 109.719765 
Q 345.206673 110.180236 345.524027 110.65033 
z
" clip-path="url(#paca8cf6047)" style="fill: #fdc527"/>
   </g>
   <g id="patch_3">
    <path d="M 43.78125 301.735725 
L 43.78125 35.623725 
" style="fill: none; stroke: #cccccc; stroke-width: 0.8; stroke-linejoin: miter; stroke-linecap: square"/>
   </g>
   <g id="patch_4">
    <path d="M 400.90125 301.735725 
L 400.90125 35.623725 
" style="fill: none; stroke: #cccccc; stroke-width: 0.8; stroke-linejoin: miter; stroke-linecap: square"/>
   </g>
   <g id="patch_5">
    <path d="M 43.78125 301.735725 
L 400.90125 301.735725 
" style="fill: none; stroke: #cccccc; stroke-width: 0.8; stroke-linejoin: miter; stroke-linecap: square"/>
   </g>
   <g id="patch_6">
    <path d="M 43.78125 35.623725 
L 400.90125 35.623725 
" style="fill: none; stroke: #cccccc; stroke-width: 0.8; stroke-linejoin: miter; stroke-linecap: square"/>
   </g>
   <g id="text_21">
    <!-- Block Size = 16K, Read-Write Type = Random Balanced 1:1 -->
    <g style="fill: #262626; opacity: 0.75" transform="translate(73.929531 30.882918) scale(0.1 -0.1)">
     <defs>
      <path id="DejaVuSans-42" d="M 1259 2228 
L 1259 519 
L 2272 519 
Q 2781 519 3026 730 
Q 3272 941 3272 1375 
Q 3272 1813 3026 2020 
Q 2781 2228 2272 2228 
L 1259 2228 
z
M 1259 4147 
L 1259 2741 
L 2194 2741 
Q 2656 2741 2882 2914 
Q 3109 3088 3109 3444 
Q 3109 3797 2882 3972 
Q 2656 4147 2194 4147 
L 1259 4147 
z
M 628 4666 
L 2241 4666 
Q 2963 4666 3353 4366 
Q 3744 4066 3744 3513 
Q 3744 3084 3544 2831 
Q 3344 2578 2956 2516 
Q 3422 2416 3680 2098 
Q 3938 1781 3938 1306 
Q 3938 681 3513 340 
Q 3088 0 2303 0 
L 628 0 
L 628 4666 
z
" transform="scale(0.015625)"/>
      <path id="DejaVuSans-6c" d="M 603 4863 
L 1178 4863 
L 1178 0 
L 603 0 
L 603 4863 
z
" transform="scale(0.015625)"/>
      <path id="DejaVuSans-6b" d="M 581 4863 
L 1159 4863 
L 1159 1991 
L 2875 3500 
L 3609 3500 
L 1753 1863 
L 3688 0 
L 2938 0 
L 1159 1709 
L 1159 0 
L 581 0 
L 581 4863 
z
" transform="scale(0.015625)"/>
      <path id="DejaVuSans-53" d="M 3425 4513 
L 3425 3897 
Q 3066 4069 2747 4153 
Q 2428 4238 2131 4238 
Q 1616 4238 1336 4038 
Q 1056 3838 1056 3469 
Q 1056 3159 1242 3001 
Q 1428 2844 1947 2747 
L 2328 2669 
Q 3034 2534 3370 2195 
Q 3706 1856 3706 1288 
Q 3706 609 3251 259 
Q 2797 -91 1919 -91 
Q 1588 -91 1214 -16 
Q 841 59 441 206 
L 441 856 
Q 825 641 1194 531 
Q 1563 422 1919 422 
Q 2459 422 2753 634 
Q 3047 847 3047 1241 
Q 3047 1584 2836 1778 
Q 2625 1972 2144 2069 
L 1759 2144 
Q 1053 2284 737 2584 
Q 422 2884 422 3419 
Q 422 4038 858 4394 
Q 1294 4750 2059 4750 
Q 2388 4750 2728 4690 
Q 3069 4631 3425 4513 
z
" transform="scale(0.015625)"/>
      <path id="DejaVuSans-69" d="M 603 3500 
L 1178 3500 
L 1178 0 
L 603 0 
L 603 3500 
z
M 603 4863 
L 1178 4863 
L 1178 4134 
L 603 4134 
L 603 4863 
z
" transform="scale(0.015625)"/>
      <path id="DejaVuSans-7a" d="M 353 3500 
L 3084 3500 
L 3084 2975 
L 922 459 
L 3084 459 
L 3084 0 
L 275 0 
L 275 525 
L 2438 3041 
L 353 3041 
L 353 3500 
z
" transform="scale(0.015625)"/>
      <path id="DejaVuSans-3d" d="M 678 2906 
L 4684 2906 
L 4684 2381 
L 678 2381 
L 678 2906 
z
M 678 1631 
L 4684 1631 
L 4684 1100 
L 678 1100 
L 678 1631 
z
" transform="scale(0.015625)"/>
      <path id="DejaVuSans-4b" d="M 628 4666 
L 1259 4666 
L 1259 2694 
L 3353 4666 
L 4166 4666 
L 1850 2491 
L 4331 0 
L 3500 0 
L 1259 2247 
L 1259 0 
L 628 0 
L 628 4666 
z
" transform="scale(0.015625)"/>
      <path id="DejaVuSans-2c" d="M 750 794 
L 1409 794 
L 1409 256 
L 897 -744 
L 494 -744 
L 750 256 
L 750 794 
z
" transform="scale(0.015625)"/>
      <path id="DejaVuSans-52" d="M 2841 2188 
Q 3044 2119 3236 1894 
Q 3428 1669 3622 1275 
L 4263 0 
L 3584 0 
L 2988 1197 
Q 2756 1666 2539 1819 
Q 2322 1972 1947 1972 
L 1259 1972 
L 1259 0 
L 628 0 
L 628 4666 
L 2053 4666 
Q 2853 4666 3247 4331 
Q 3641 3997 3641 3322 
Q 3641 2881 3436 2590 
Q 3231 2300 2841 2188 
z
M 1259 4147 
L 1259 2491 
L 2053 2491 
Q 2509 2491 2742 2702 
Q 2975 2913 2975 3322 
Q 2975 3731 2742 3939 
Q 2509 4147 2053 4147 
L 1259 4147 
z
" transform="scale(0.015625)"/>
      <path id="DejaVuSans-64" d="M 2906 2969 
L 2906 4863 
L 3481 4863 
L 3481 0 
L 2906 0 
L 2906 525 
Q 2725 213 2448 61 
Q 2172 -91 1784 -91 
Q 1150 -91 751 415 
Q 353 922 353 1747 
Q 353 2572 751 3078 
Q 1150 3584 1784 3584 
Q 2172 3584 2448 3432 
Q 2725 3281 2906 2969 
z
M 947 1747 
Q 947 1113 1208 752 
Q 1469 391 1925 391 
Q 2381 391 2643 752 
Q 2906 1113 2906 1747 
Q 2906 2381 2643 2742 
Q 2381 3103 1925 3103 
Q 1469 3103 1208 2742 
Q 947 2381 947 1747 
z
" transform="scale(0.015625)"/>
      <path id="DejaVuSans-2d" d="M 313 2009 
L 1997 2009 
L 1997 1497 
L 313 1497 
L 313 2009 
z
" transform="scale(0.015625)"/>
      <path id="DejaVuSans-57" d="M 213 4666 
L 850 4666 
L 1831 722 
L 2809 4666 
L 3519 4666 
L 4500 722 
L 5478 4666 
L 6119 4666 
L 4947 0 
L 4153 0 
L 3169 4050 
L 2175 0 
L 1381 0 
L 213 4666 
z
" transform="scale(0.015625)"/>
      <path id="DejaVuSans-54" d="M -19 4666 
L 3928 4666 
L 3928 4134 
L 2272 4134 
L 2272 0 
L 1638 0 
L 1638 4134 
L -19 4134 
L -19 4666 
z
" transform="scale(0.015625)"/>
      <path id="DejaVuSans-70" d="M 1159 525 
L 1159 -1331 
L 581 -1331 
L 581 3500 
L 1159 3500 
L 1159 2969 
Q 1341 3281 1617 3432 
Q 1894 3584 2278 3584 
Q 2916 3584 3314 3078 
Q 3713 2572 3713 1747 
Q 3713 922 3314 415 
Q 2916 -91 2278 -91 
Q 1894 -91 1617 61 
Q 1341 213 1159 525 
z
M 3116 1747 
Q 3116 2381 2855 2742 
Q 2594 3103 2138 3103 
Q 1681 3103 1420 2742 
Q 1159 2381 1159 1747 
Q 1159 1113 1420 752 
Q 1681 391 2138 391 
Q 2594 391 2855 752 
Q 3116 1113 3116 1747 
z
" transform="scale(0.015625)"/>
      <path id="DejaVuSans-3a" d="M 750 794 
L 1409 794 
L 1409 0 
L 750 0 
L 750 794 
z
M 750 3309 
L 1409 3309 
L 1409 2516 
L 750 2516 
L 750 3309 
z
" transform="scale(0.015625)"/>
     </defs>
     <use xlink:href="#DejaVuSans-42"/>
     <use xlink:href="#DejaVuSans-6c" transform="translate(68.603516 0)"/>
     <use xlink:href="#DejaVuSans-6f" transform="translate(96.386719 0)"/>
     <use xlink:href="#DejaVuSans-63" transform="translate(157.568359 0)"/>
     <use xlink:href="#DejaVuSans-6b" transform="translate(212.548828 0)"/>
     <use xlink:href="#DejaVuSans-20" transform="translate(270.458984 0)"/>
     <use xlink:href="#DejaVuSans-53" transform="translate(302.246094 0)"/>
     <use xlink:href="#DejaVuSans-69" transform="translate(365.722656 0)"/>
     <use xlink:href="#DejaVuSans-7a" transform="translate(393.505859 0)"/>
     <use xlink:href="#DejaVuSans-65" transform="translate(445.996094 0)"/>
     <use xlink:href="#DejaVuSans-20" transform="translate(507.519531 0)"/>
     <use xlink:href="#DejaVuSans-3d" transform="translate(539.306641 0)"/>
     <use xlink:href="#DejaVuSans-20" transform="translate(623.095703 0)"/>
     <use xlink:href="#DejaVuSans-31" transform="translate(654.882812 0)"/>
     <use xlink:href="#DejaVuSans-36" transform="translate(718.505859 0)"/>
     <use xlink:href="#DejaVuSans-4b" transform="translate(782.128906 0)"/>
     <use xlink:href="#DejaVuSans-2c" transform="translate(847.705078 0)"/>
     <use xlink:href="#DejaVuSans-20" transform="translate(879.492188 0)"/>
     <use xlink:href="#DejaVuSans-52" transform="translate(911.279297 0)"/>
     <use xlink:href="#DejaVuSans-65" transform="translate(976.261719 0)"/>
     <use xlink:href="#DejaVuSans-61" transform="translate(1037.785156 0)"/>
     <use xlink:href="#DejaVuSans-64" transform="translate(1099.064453 0)"/>
     <use xlink:href="#DejaVuSans-2d" transform="translate(1162.541016 0)"/>
     <use xlink:href="#DejaVuSans-57" transform="translate(1194.625 0)"/>
     <use xlink:href="#DejaVuSans-72" transform="translate(1289.001953 0)"/>
     <use xlink:href="#DejaVuSans-69" transform="translate(1330.115234 0)"/>
     <use xlink:href="#DejaVuSans-74" transform="translate(1357.898438 0)"/>
     <use xlink:href="#DejaVuSans-65" transform="translate(1397.107422 0)"/>
     <use xlink:href="#DejaVuSans-20" transform="translate(1458.630859 0)"/>
     <use xlink:href="#DejaVuSans-54" transform="translate(1490.417969 0)"/>
     <use xlink:href="#DejaVuSans-79" transform="translate(1535.876953 0)"/>
     <use xlink:href="#DejaVuSans-70" transform="translate(1595.056641 0)"/>
     <use xlink:href="#DejaVuSans-65" transform="translate(1658.533203 0)"/>
     <use xlink:href="#DejaVuSans-20" transform="translate(1720.056641 0)"/>
     <use xlink:href="#DejaVuSans-3d" transform="translate(1751.84375 0)"/>
     <use xlink:href="#DejaVuSans-20" transform="translate(1835.632812 0)"/>
     <use xlink:href="#DejaVuSans-52" transform="translate(1867.419922 0)"/>
     <use xlink:href="#DejaVuSans-61" transform="translate(1934.652344 0)"/>
     <use xlink:href="#DejaVuSans-6e" transform="translate(1995.931641 0)"/>
     <use xlink:href="#DejaVuSans-64" transform="translate(2059.310547 0)"/>
     <use xlink:href="#DejaVuSans-6f" transform="translate(2122.787109 0)"/>
     <use xlink:href="#DejaVuSans-6d" transform="translate(2183.96875 0)"/>
     <use xlink:href="#DejaVuSans-20" transform="translate(2281.380859 0)"/>
     <use xlink:href="#DejaVuSans-42" transform="translate(2313.167969 0)"/>
     <use xlink:href="#DejaVuSans-61" transform="translate(2381.771484 0)"/>
     <use xlink:href="#DejaVuSans-6c" transform="translate(2443.050781 0)"/>
     <use xlink:href="#DejaVuSans-61" transform="translate(2470.833984 0)"/>
     <use xlink:href="#DejaVuSans-6e" transform="translate(2532.113281 0)"/>
     <use xlink:href="#DejaVuSans-63" transform="translate(2595.492188 0)"/>
     <use xlink:href="#DejaVuSans-65" transform="translate(2650.472656 0)"/>
     <use xlink:href="#DejaVuSans-64" transform="translate(2711.996094 0)"/>
     <use xlink:href="#DejaVuSans-20" transform="translate(2775.472656 0)"/>
     <use xlink:href="#DejaVuSans-31" transform="translate(2807.259766 0)"/>
     <use xlink:href="#DejaVuSans-3a" transform="translate(2870.882812 0)"/>
     <use xlink:href="#DejaVuSans-31" transform="translate(2904.574219 0)"/>
    </g>
   </g>
   <g id="text_22">
    <!-- Mean Latency vs Number of Jobs -->
    <g style="fill: #262626" transform="translate(111.685313 16.318125) scale(0.12 -0.12)">
     <defs>
      <path id="DejaVuSans-Bold-4d" d="M 588 4666 
L 2119 4666 
L 3181 2169 
L 4250 4666 
L 5778 4666 
L 5778 0 
L 4641 0 
L 4641 3413 
L 3566 897 
L 2803 897 
L 1728 3413 
L 1728 0 
L 588 0 
L 588 4666 
z
" transform="scale(0.015625)"/>
      <path id="DejaVuSans-Bold-65" d="M 4031 1759 
L 4031 1441 
L 1416 1441 
Q 1456 1047 1700 850 
Q 1944 653 2381 653 
Q 2734 653 3104 758 
Q 3475 863 3866 1075 
L 3866 213 
Q 3469 63 3072 -14 
Q 2675 -91 2278 -91 
Q 1328 -91 801 392 
Q 275 875 275 1747 
Q 275 2603 792 3093 
Q 1309 3584 2216 3584 
Q 3041 3584 3536 3087 
Q 4031 2591 4031 1759 
z
M 2881 2131 
Q 2881 2450 2695 2645 
Q 2509 2841 2209 2841 
Q 1884 2841 1681 2658 
Q 1478 2475 1428 2131 
L 2881 2131 
z
" transform="scale(0.015625)"/>
      <path id="DejaVuSans-Bold-61" d="M 2106 1575 
Q 1756 1575 1579 1456 
Q 1403 1338 1403 1106 
Q 1403 894 1545 773 
Q 1688 653 1941 653 
Q 2256 653 2472 879 
Q 2688 1106 2688 1447 
L 2688 1575 
L 2106 1575 
z
M 3816 1997 
L 3816 0 
L 2688 0 
L 2688 519 
Q 2463 200 2181 54 
Q 1900 -91 1497 -91 
Q 953 -91 614 226 
Q 275 544 275 1050 
Q 275 1666 698 1953 
Q 1122 2241 2028 2241 
L 2688 2241 
L 2688 2328 
Q 2688 2594 2478 2717 
Q 2269 2841 1825 2841 
Q 1466 2841 1156 2769 
Q 847 2697 581 2553 
L 581 3406 
Q 941 3494 1303 3539 
Q 1666 3584 2028 3584 
Q 2975 3584 3395 3211 
Q 3816 2838 3816 1997 
z
" transform="scale(0.015625)"/>
      <path id="DejaVuSans-Bold-6e" d="M 4056 2131 
L 4056 0 
L 2931 0 
L 2931 347 
L 2931 1631 
Q 2931 2084 2911 2256 
Q 2891 2428 2841 2509 
Q 2775 2619 2662 2680 
Q 2550 2741 2406 2741 
Q 2056 2741 1856 2470 
Q 1656 2200 1656 1722 
L 1656 0 
L 538 0 
L 538 3500 
L 1656 3500 
L 1656 2988 
Q 1909 3294 2193 3439 
Q 2478 3584 2822 3584 
Q 3428 3584 3742 3212 
Q 4056 2841 4056 2131 
z
" transform="scale(0.015625)"/>
      <path id="DejaVuSans-Bold-20" transform="scale(0.015625)"/>
      <path id="DejaVuSans-Bold-4c" d="M 588 4666 
L 1791 4666 
L 1791 909 
L 3903 909 
L 3903 0 
L 588 0 
L 588 4666 
z
" transform="scale(0.015625)"/>
      <path id="DejaVuSans-Bold-74" d="M 1759 4494 
L 1759 3500 
L 2913 3500 
L 2913 2700 
L 1759 2700 
L 1759 1216 
Q 1759 972 1856 886 
Q 1953 800 2241 800 
L 2816 800 
L 2816 0 
L 1856 0 
Q 1194 0 917 276 
Q 641 553 641 1216 
L 641 2700 
L 84 2700 
L 84 3500 
L 641 3500 
L 641 4494 
L 1759 4494 
z
" transform="scale(0.015625)"/>
      <path id="DejaVuSans-Bold-63" d="M 3366 3391 
L 3366 2478 
Q 3138 2634 2908 2709 
Q 2678 2784 2431 2784 
Q 1963 2784 1702 2511 
Q 1441 2238 1441 1747 
Q 1441 1256 1702 982 
Q 1963 709 2431 709 
Q 2694 709 2930 787 
Q 3166 866 3366 1019 
L 3366 103 
Q 3103 6 2833 -42 
Q 2563 -91 2291 -91 
Q 1344 -91 809 395 
Q 275 881 275 1747 
Q 275 2613 809 3098 
Q 1344 3584 2291 3584 
Q 2566 3584 2833 3536 
Q 3100 3488 3366 3391 
z
" transform="scale(0.015625)"/>
      <path id="DejaVuSans-Bold-79" d="M 78 3500 
L 1197 3500 
L 2138 1125 
L 2938 3500 
L 4056 3500 
L 2584 -331 
Q 2363 -916 2067 -1148 
Q 1772 -1381 1288 -1381 
L 641 -1381 
L 641 -647 
L 991 -647 
Q 1275 -647 1404 -556 
Q 1534 -466 1606 -231 
L 1638 -134 
L 78 3500 
z
" transform="scale(0.015625)"/>
      <path id="DejaVuSans-Bold-76" d="M 97 3500 
L 1216 3500 
L 2088 1081 
L 2956 3500 
L 4078 3500 
L 2700 0 
L 1472 0 
L 97 3500 
z
" transform="scale(0.015625)"/>
      <path id="DejaVuSans-Bold-73" d="M 3272 3391 
L 3272 2541 
Q 2913 2691 2578 2766 
Q 2244 2841 1947 2841 
Q 1628 2841 1473 2761 
Q 1319 2681 1319 2516 
Q 1319 2381 1436 2309 
Q 1553 2238 1856 2203 
L 2053 2175 
Q 2913 2066 3209 1816 
Q 3506 1566 3506 1031 
Q 3506 472 3093 190 
Q 2681 -91 1863 -91 
Q 1516 -91 1145 -36 
Q 775 19 384 128 
L 384 978 
Q 719 816 1070 734 
Q 1422 653 1784 653 
Q 2113 653 2278 743 
Q 2444 834 2444 1013 
Q 2444 1163 2330 1236 
Q 2216 1309 1875 1350 
L 1678 1375 
Q 931 1469 631 1722 
Q 331 1975 331 2491 
Q 331 3047 712 3315 
Q 1094 3584 1881 3584 
Q 2191 3584 2531 3537 
Q 2872 3491 3272 3391 
z
" transform="scale(0.015625)"/>
      <path id="DejaVuSans-Bold-4e" d="M 588 4666 
L 1931 4666 
L 3628 1466 
L 3628 4666 
L 4769 4666 
L 4769 0 
L 3425 0 
L 1728 3200 
L 1728 0 
L 588 0 
L 588 4666 
z
" transform="scale(0.015625)"/>
      <path id="DejaVuSans-Bold-75" d="M 500 1363 
L 500 3500 
L 1625 3500 
L 1625 3150 
Q 1625 2866 1622 2436 
Q 1619 2006 1619 1863 
Q 1619 1441 1641 1255 
Q 1663 1069 1716 984 
Q 1784 875 1895 815 
Q 2006 756 2150 756 
Q 2500 756 2700 1025 
Q 2900 1294 2900 1772 
L 2900 3500 
L 4019 3500 
L 4019 0 
L 2900 0 
L 2900 506 
Q 2647 200 2364 54 
Q 2081 -91 1741 -91 
Q 1134 -91 817 281 
Q 500 653 500 1363 
z
" transform="scale(0.015625)"/>
      <path id="DejaVuSans-Bold-6d" d="M 3781 2919 
Q 3994 3244 4286 3414 
Q 4578 3584 4928 3584 
Q 5531 3584 5847 3212 
Q 6163 2841 6163 2131 
L 6163 0 
L 5038 0 
L 5038 1825 
Q 5041 1866 5042 1909 
Q 5044 1953 5044 2034 
Q 5044 2406 4934 2573 
Q 4825 2741 4581 2741 
Q 4263 2741 4089 2478 
Q 3916 2216 3909 1719 
L 3909 0 
L 2784 0 
L 2784 1825 
Q 2784 2406 2684 2573 
Q 2584 2741 2328 2741 
Q 2006 2741 1831 2477 
Q 1656 2213 1656 1722 
L 1656 0 
L 531 0 
L 531 3500 
L 1656 3500 
L 1656 2988 
Q 1863 3284 2130 3434 
Q 2397 3584 2719 3584 
Q 3081 3584 3359 3409 
Q 3638 3234 3781 2919 
z
" transform="scale(0.015625)"/>
      <path id="DejaVuSans-Bold-62" d="M 2400 722 
Q 2759 722 2948 984 
Q 3138 1247 3138 1747 
Q 3138 2247 2948 2509 
Q 2759 2772 2400 2772 
Q 2041 2772 1848 2508 
Q 1656 2244 1656 1747 
Q 1656 1250 1848 986 
Q 2041 722 2400 722 
z
M 1656 2988 
Q 1888 3294 2169 3439 
Q 2450 3584 2816 3584 
Q 3463 3584 3878 3070 
Q 4294 2556 4294 1747 
Q 4294 938 3878 423 
Q 3463 -91 2816 -91 
Q 2450 -91 2169 54 
Q 1888 200 1656 506 
L 1656 0 
L 538 0 
L 538 4863 
L 1656 4863 
L 1656 2988 
z
" transform="scale(0.015625)"/>
      <path id="DejaVuSans-Bold-72" d="M 3138 2547 
Q 2991 2616 2845 2648 
Q 2700 2681 2553 2681 
Q 2122 2681 1889 2404 
Q 1656 2128 1656 1613 
L 1656 0 
L 538 0 
L 538 3500 
L 1656 3500 
L 1656 2925 
Q 1872 3269 2151 3426 
Q 2431 3584 2822 3584 
Q 2878 3584 2943 3579 
Q 3009 3575 3134 3559 
L 3138 2547 
z
" transform="scale(0.015625)"/>
      <path id="DejaVuSans-Bold-6f" d="M 2203 2784 
Q 1831 2784 1636 2517 
Q 1441 2250 1441 1747 
Q 1441 1244 1636 976 
Q 1831 709 2203 709 
Q 2569 709 2762 976 
Q 2956 1244 2956 1747 
Q 2956 2250 2762 2517 
Q 2569 2784 2203 2784 
z
M 2203 3584 
Q 3106 3584 3614 3096 
Q 4122 2609 4122 1747 
Q 4122 884 3614 396 
Q 3106 -91 2203 -91 
Q 1297 -91 786 396 
Q 275 884 275 1747 
Q 275 2609 786 3096 
Q 1297 3584 2203 3584 
z
" transform="scale(0.015625)"/>
      <path id="DejaVuSans-Bold-66" d="M 2841 4863 
L 2841 4128 
L 2222 4128 
Q 1984 4128 1890 4042 
Q 1797 3956 1797 3744 
L 1797 3500 
L 2753 3500 
L 2753 2700 
L 1797 2700 
L 1797 0 
L 678 0 
L 678 2700 
L 122 2700 
L 122 3500 
L 678 3500 
L 678 3744 
Q 678 4316 997 4589 
Q 1316 4863 1984 4863 
L 2841 4863 
z
" transform="scale(0.015625)"/>
      <path id="DejaVuSans-Bold-4a" d="M 588 4666 
L 1791 4666 
L 1791 453 
Q 1791 -419 1317 -850 
Q 844 -1281 -116 -1281 
L -359 -1281 
L -359 -372 
L -172 -372 
Q 203 -372 395 -162 
Q 588 47 588 453 
L 588 4666 
z
" transform="scale(0.015625)"/>
     </defs>
     <use xlink:href="#DejaVuSans-Bold-4d"/>
     <use xlink:href="#DejaVuSans-Bold-65" transform="translate(99.511719 0)"/>
     <use xlink:href="#DejaVuSans-Bold-61" transform="translate(167.333984 0)"/>
     <use xlink:href="#DejaVuSans-Bold-6e" transform="translate(234.814453 0)"/>
     <use xlink:href="#DejaVuSans-Bold-20" transform="translate(306.005859 0)"/>
     <use xlink:href="#DejaVuSans-Bold-4c" transform="translate(340.820312 0)"/>
     <use xlink:href="#DejaVuSans-Bold-61" transform="translate(404.541016 0)"/>
     <use xlink:href="#DejaVuSans-Bold-74" transform="translate(472.021484 0)"/>
     <use xlink:href="#DejaVuSans-Bold-65" transform="translate(519.824219 0)"/>
     <use xlink:href="#DejaVuSans-Bold-6e" transform="translate(587.646484 0)"/>
     <use xlink:href="#DejaVuSans-Bold-63" transform="translate(658.837891 0)"/>
     <use xlink:href="#DejaVuSans-Bold-79" transform="translate(718.115234 0)"/>
     <use xlink:href="#DejaVuSans-Bold-20" transform="translate(783.300781 0)"/>
     <use xlink:href="#DejaVuSans-Bold-76" transform="translate(818.115234 0)"/>
     <use xlink:href="#DejaVuSans-Bold-73" transform="translate(883.300781 0)"/>
     <use xlink:href="#DejaVuSans-Bold-20" transform="translate(942.822266 0)"/>
     <use xlink:href="#DejaVuSans-Bold-4e" transform="translate(977.636719 0)"/>
     <use xlink:href="#DejaVuSans-Bold-75" transform="translate(1061.328125 0)"/>
     <use xlink:href="#DejaVuSans-Bold-6d" transform="translate(1132.519531 0)"/>
     <use xlink:href="#DejaVuSans-Bold-62" transform="translate(1236.71875 0)"/>
     <use xlink:href="#DejaVuSans-Bold-65" transform="translate(1308.300781 0)"/>
     <use xlink:href="#DejaVuSans-Bold-72" transform="translate(1376.123047 0)"/>
     <use xlink:href="#DejaVuSans-Bold-20" transform="translate(1425.439453 0)"/>
     <use xlink:href="#DejaVuSans-Bold-6f" transform="translate(1460.253906 0)"/>
     <use xlink:href="#DejaVuSans-Bold-66" transform="translate(1528.955078 0)"/>
     <use xlink:href="#DejaVuSans-Bold-20" transform="translate(1572.460938 0)"/>
     <use xlink:href="#DejaVuSans-Bold-4a" transform="translate(1607.275391 0)"/>
     <use xlink:href="#DejaVuSans-Bold-6f" transform="translate(1644.482422 0)"/>
     <use xlink:href="#DejaVuSans-Bold-62" transform="translate(1713.183594 0)"/>
     <use xlink:href="#DejaVuSans-Bold-73" transform="translate(1784.765625 0)"/>
    </g>
   </g>
   <g id="legend_1">
    <g id="text_23">
     <!-- IO Depth -->
     <g style="fill: #262626" transform="translate(435.407813 120.065663) scale(0.1 -0.1)">
      <defs>
       <path id="DejaVuSans-49" d="M 628 4666 
L 1259 4666 
L 1259 0 
L 628 0 
L 628 4666 
z
" transform="scale(0.015625)"/>
       <path id="DejaVuSans-4f" d="M 2522 4238 
Q 1834 4238 1429 3725 
Q 1025 3213 1025 2328 
Q 1025 1447 1429 934 
Q 1834 422 2522 422 
Q 3209 422 3611 934 
Q 4013 1447 4013 2328 
Q 4013 3213 3611 3725 
Q 3209 4238 2522 4238 
z
M 2522 4750 
Q 3503 4750 4090 4092 
Q 4678 3434 4678 2328 
Q 4678 1225 4090 567 
Q 3503 -91 2522 -91 
Q 1538 -91 948 565 
Q 359 1222 359 2328 
Q 359 3434 948 4092 
Q 1538 4750 2522 4750 
z
" transform="scale(0.015625)"/>
       <path id="DejaVuSans-44" d="M 1259 4147 
L 1259 519 
L 2022 519 
Q 2988 519 3436 956 
Q 3884 1394 3884 2338 
Q 3884 3275 3436 3711 
Q 2988 4147 2022 4147 
L 1259 4147 
z
M 628 4666 
L 1925 4666 
Q 3281 4666 3915 4102 
Q 4550 3538 4550 2338 
Q 4550 1131 3912 565 
Q 3275 0 1925 0 
L 628 0 
L 628 4666 
z
" transform="scale(0.015625)"/>
       <path id="DejaVuSans-68" d="M 3513 2113 
L 3513 0 
L 2938 0 
L 2938 2094 
Q 2938 2591 2744 2837 
Q 2550 3084 2163 3084 
Q 1697 3084 1428 2787 
Q 1159 2491 1159 1978 
L 1159 0 
L 581 0 
L 581 4863 
L 1159 4863 
L 1159 2956 
Q 1366 3272 1645 3428 
Q 1925 3584 2291 3584 
Q 2894 3584 3203 3211 
Q 3513 2838 3513 2113 
z
" transform="scale(0.015625)"/>
      </defs>
      <use xlink:href="#DejaVuSans-49"/>
      <use xlink:href="#DejaVuSans-4f" transform="translate(29.492188 0)"/>
      <use xlink:href="#DejaVuSans-20" transform="translate(108.203125 0)"/>
      <use xlink:href="#DejaVuSans-44" transform="translate(139.990234 0)"/>
      <use xlink:href="#DejaVuSans-65" transform="translate(216.992188 0)"/>
      <use xlink:href="#DejaVuSans-70" transform="translate(278.515625 0)"/>
      <use xlink:href="#DejaVuSans-74" transform="translate(341.992188 0)"/>
      <use xlink:href="#DejaVuSans-68" transform="translate(381.201172 0)"/>
     </g>
    </g>
    <g id="line2d_25">
     <path d="M 434.09375 131.243787 
L 444.09375 131.243787 
L 454.09375 131.243787 
" style="fill: none; stroke: #4c02a1; stroke-width: 1.5; stroke-linecap: round"/>
    </g>
    <g id="text_24">
     <!-- 1 -->
     <g style="fill: #262626" transform="translate(462.09375 134.743787) scale(0.1 -0.1)">
      <use xlink:href="#DejaVuSans-31"/>
     </g>
    </g>
    <g id="line2d_26">
     <path d="M 434.09375 145.921913 
L 444.09375 145.921913 
L 454.09375 145.921913 
" style="fill: none; stroke: #7e03a8; stroke-width: 1.5; stroke-linecap: round"/>
    </g>
    <g id="text_25">
     <!-- 4 -->
     <g style="fill: #262626" transform="translate(462.09375 149.421913) scale(0.1 -0.1)">
      <use xlink:href="#DejaVuSans-34"/>
     </g>
    </g>
    <g id="line2d_27">
     <path d="M 434.09375 160.600037 
L 444.09375 160.600037 
L 454.09375 160.600037 
" style="fill: none; stroke: #aa2395; stroke-width: 1.5; stroke-linecap: round"/>
    </g>
    <g id="text_26">
     <!-- 8 -->
     <g style="fill: #262626" transform="translate(462.09375 164.100037) scale(0.1 -0.1)">
      <use xlink:href="#DejaVuSans-38"/>
     </g>
    </g>
    <g id="line2d_28">
     <path d="M 434.09375 175.278163 
L 444.09375 175.278163 
L 454.09375 175.278163 
" style="fill: none; stroke: #cc4778; stroke-width: 1.5; stroke-linecap: round"/>
    </g>
    <g id="text_27">
     <!-- 16 -->
     <g style="fill: #262626" transform="translate(462.09375 178.778163) scale(0.1 -0.1)">
      <use xlink:href="#DejaVuSans-31"/>
      <use xlink:href="#DejaVuSans-36" transform="translate(63.623047 0)"/>
     </g>
    </g>
    <g id="line2d_29">
     <path d="M 434.09375 189.956288 
L 444.09375 189.956288 
L 454.09375 189.956288 
" style="fill: none; stroke: #e66c5c; stroke-width: 1.5; stroke-linecap: round"/>
    </g>
    <g id="text_28">
     <!-- 32 -->
     <g style="fill: #262626" transform="translate(462.09375 193.456288) scale(0.1 -0.1)">
      <use xlink:href="#DejaVuSans-33"/>
      <use xlink:href="#DejaVuSans-32" transform="translate(63.623047 0)"/>
     </g>
    </g>
    <g id="line2d_30">
     <path d="M 434.09375 204.634412 
L 444.09375 204.634412 
L 454.09375 204.634412 
" style="fill: none; stroke: #f89540; stroke-width: 1.5; stroke-linecap: round"/>
    </g>
    <g id="text_29">
     <!-- 64 -->
     <g style="fill: #262626" transform="translate(462.09375 208.134412) scale(0.1 -0.1)">
      <use xlink:href="#DejaVuSans-36"/>
      <use xlink:href="#DejaVuSans-34" transform="translate(63.623047 0)"/>
     </g>
    </g>
    <g id="line2d_31">
     <path d="M 434.09375 219.312537 
L 444.09375 219.312537 
L 454.09375 219.312537 
" style="fill: none; stroke: #fdc527; stroke-width: 1.5; stroke-linecap: round"/>
    </g>
    <g id="text_30">
     <!-- 128 -->
     <g style="fill: #262626" transform="translate(462.09375 222.812537) scale(0.1 -0.1)">
      <use xlink:href="#DejaVuSans-31"/>
      <use xlink:href="#DejaVuSans-32" transform="translate(63.623047 0)"/>
      <use xlink:href="#DejaVuSans-38" transform="translate(127.246094 0)"/>
     </g>
    </g>
   </g>
  </g>
 </g>
 <defs>
  <clipPath id="paca8cf6047">
   <rect x="43.78125" y="35.623725" width="357.12" height="266.112"/>
  </clipPath>
 </defs>
</svg>
