<?xml version="1.0" encoding="utf-8" standalone="no"?>
<!DOCTYPE svg PUBLIC "-//W3C//DTD SVG 1.1//EN"
  "http://www.w3.org/Graphics/SVG/1.1/DTD/svg11.dtd">
<svg xmlns:xlink="http://www.w3.org/1999/xlink" width="492.38125pt" height="339.291975pt" viewBox="0 0 492.38125 339.291975" xmlns="http://www.w3.org/2000/svg" version="1.1">
 <metadata>
  <rdf:RDF xmlns:dc="http://purl.org/dc/elements/1.1/" xmlns:cc="http://creativecommons.org/ns#" xmlns:rdf="http://www.w3.org/1999/02/22-rdf-syntax-ns#">
   <cc:Work>
    <dc:type rdf:resource="http://purl.org/dc/dcmitype/StillImage"/>
    <dc:date>2025-09-11T11:47:33.941153</dc:date>
    <dc:format>image/svg+xml</dc:format>
    <dc:creator>
     <cc:Agent>
      <dc:title>Matplotlib v3.10.6, https://matplotlib.org/</dc:title>
     </cc:Agent>
    </dc:creator>
   </cc:Work>
  </rdf:RDF>
 </metadata>
 <defs>
  <style type="text/css">*{stroke-linejoin: round; stroke-linecap: butt}</style>
 </defs>
 <g id="figure_1">
  <g id="patch_1">
   <path d="M 0 339.291975 
L 492.38125 339.291975 
L 492.38125 0 
L 0 0 
z
" style="fill: #ffffff"/>
  </g>
  <g id="axes_1">
   <g id="patch_2">
    <path d="M 43.78125 301.735725 
L 400.90125 301.735725 
L 400.90125 35.623725 
L 43.78125 35.623725 
z
" style="fill: #ffffff"/>
   </g>
   <g id="matplotlib.axis_1">
    <g id="xtick_1">
     <g id="line2d_1">
      <path d="M 384.668523 301.735725 
L 384.668523 35.623725 
" clip-path="url(#p1f74be1b42)" style="fill: none; stroke: #cccccc; stroke-width: 0.8; stroke-linecap: round"/>
     </g>
     <g id="text_1">
      <!-- 128 -->
      <g style="fill: #262626" transform="translate(375.124773 316.334162) scale(0.1 -0.1)">
       <defs>
        <path id="DejaVuSans-31" d="M 794 531 
L 1825 531 
L 1825 4091 
L 703 3866 
L 703 4441 
L 1819 4666 
L 2450 4666 
L 2450 531 
L 3481 531 
L 3481 0 
L 794 0 
L 794 531 
z
" transform="scale(0.015625)"/>
        <path id="DejaVuSans-32" d="M 1228 531 
L 3431 531 
L 3431 0 
L 469 0 
L 469 531 
Q 828 903 1448 1529 
Q 2069 2156 2228 2338 
Q 2531 2678 2651 2914 
Q 2772 3150 2772 3378 
Q 2772 3750 2511 3984 
Q 2250 4219 1831 4219 
Q 1534 4219 1204 4116 
Q 875 4013 500 3803 
L 500 4441 
Q 881 4594 1212 4672 
Q 1544 4750 1819 4750 
Q 2544 4750 2975 4387 
Q 3406 4025 3406 3419 
Q 3406 3131 3298 2873 
Q 3191 2616 2906 2266 
Q 2828 2175 2409 1742 
Q 1991 1309 1228 531 
z
" transform="scale(0.015625)"/>
        <path id="DejaVuSans-38" d="M 2034 2216 
Q 1584 2216 1326 1975 
Q 1069 1734 1069 1313 
Q 1069 891 1326 650 
Q 1584 409 2034 409 
Q 2484 409 2743 651 
Q 3003 894 3003 1313 
Q 3003 1734 2745 1975 
Q 2488 2216 2034 2216 
z
M 1403 2484 
Q 997 2584 770 2862 
Q 544 3141 544 3541 
Q 544 4100 942 4425 
Q 1341 4750 2034 4750 
Q 2731 4750 3128 4425 
Q 3525 4100 3525 3541 
Q 3525 3141 3298 2862 
Q 3072 2584 2669 2484 
Q 3125 2378 3379 2068 
Q 3634 1759 3634 1313 
Q 3634 634 3220 271 
Q 2806 -91 2034 -91 
Q 1263 -91 848 271 
Q 434 634 434 1313 
Q 434 1759 690 2068 
Q 947 2378 1403 2484 
z
M 1172 3481 
Q 1172 3119 1398 2916 
Q 1625 2713 2034 2713 
Q 2441 2713 2670 2916 
Q 2900 3119 2900 3481 
Q 2900 3844 2670 4047 
Q 2441 4250 2034 4250 
Q 1625 4250 1398 4047 
Q 1172 3844 1172 3481 
z
" transform="scale(0.015625)"/>
       </defs>
       <use xlink:href="#DejaVuSans-31"/>
       <use xlink:href="#DejaVuSans-32" transform="translate(63.623047 0)"/>
       <use xlink:href="#DejaVuSans-38" transform="translate(127.246094 0)"/>
      </g>
     </g>
    </g>
    <g id="xtick_2">
     <g id="line2d_2">
      <path d="M 106.393198 301.735725 
L 106.393198 35.623725 
" clip-path="url(#p1f74be1b42)" style="fill: none; stroke: #cccccc; stroke-width: 0.8; stroke-linecap: round"/>
     </g>
     <g id="text_2">
      <!-- 32 -->
      <g style="fill: #262626" transform="translate(100.030698 316.334162) scale(0.1 -0.1)">
       <defs>
        <path id="DejaVuSans-33" d="M 2597 2516 
Q 3050 2419 3304 2112 
Q 3559 1806 3559 1356 
Q 3559 666 3084 287 
Q 2609 -91 1734 -91 
Q 1441 -91 1130 -33 
Q 819 25 488 141 
L 488 750 
Q 750 597 1062 519 
Q 1375 441 1716 441 
Q 2309 441 2620 675 
Q 2931 909 2931 1356 
Q 2931 1769 2642 2001 
Q 2353 2234 1838 2234 
L 1294 2234 
L 1294 2753 
L 1863 2753 
Q 2328 2753 2575 2939 
Q 2822 3125 2822 3475 
Q 2822 3834 2567 4026 
Q 2313 4219 1838 4219 
Q 1578 4219 1281 4162 
Q 984 4106 628 3988 
L 628 4550 
Q 988 4650 1302 4700 
Q 1616 4750 1894 4750 
Q 2613 4750 3031 4423 
Q 3450 4097 3450 3541 
Q 3450 3153 3228 2886 
Q 3006 2619 2597 2516 
z
" transform="scale(0.015625)"/>
       </defs>
       <use xlink:href="#DejaVuSans-33"/>
       <use xlink:href="#DejaVuSans-32" transform="translate(63.623047 0)"/>
      </g>
     </g>
    </g>
    <g id="xtick_3">
     <g id="line2d_3">
      <path d="M 199.15164 301.735725 
L 199.15164 35.623725 
" clip-path="url(#p1f74be1b42)" style="fill: none; stroke: #cccccc; stroke-width: 0.8; stroke-linecap: round"/>
     </g>
     <g id="text_3">
      <!-- 64 -->
      <g style="fill: #262626" transform="translate(192.78914 316.334162) scale(0.1 -0.1)">
       <defs>
        <path id="DejaVuSans-36" d="M 2113 2584 
Q 1688 2584 1439 2293 
Q 1191 2003 1191 1497 
Q 1191 994 1439 701 
Q 1688 409 2113 409 
Q 2538 409 2786 701 
Q 3034 994 3034 1497 
Q 3034 2003 2786 2293 
Q 2538 2584 2113 2584 
z
M 3366 4563 
L 3366 3988 
Q 3128 4100 2886 4159 
Q 2644 4219 2406 4219 
Q 1781 4219 1451 3797 
Q 1122 3375 1075 2522 
Q 1259 2794 1537 2939 
Q 1816 3084 2150 3084 
Q 2853 3084 3261 2657 
Q 3669 2231 3669 1497 
Q 3669 778 3244 343 
Q 2819 -91 2113 -91 
Q 1303 -91 875 529 
Q 447 1150 447 2328 
Q 447 3434 972 4092 
Q 1497 4750 2381 4750 
Q 2619 4750 2861 4703 
Q 3103 4656 3366 4563 
z
" transform="scale(0.015625)"/>
        <path id="DejaVuSans-34" d="M 2419 4116 
L 825 1625 
L 2419 1625 
L 2419 4116 
z
M 2253 4666 
L 3047 4666 
L 3047 1625 
L 3713 1625 
L 3713 1100 
L 3047 1100 
L 3047 0 
L 2419 0 
L 2419 1100 
L 313 1100 
L 313 1709 
L 2253 4666 
z
" transform="scale(0.015625)"/>
       </defs>
       <use xlink:href="#DejaVuSans-36"/>
       <use xlink:href="#DejaVuSans-34" transform="translate(63.623047 0)"/>
      </g>
     </g>
    </g>
    <g id="xtick_4">
     <g id="line2d_4">
      <path d="M 60.013977 301.735725 
L 60.013977 35.623725 
" clip-path="url(#p1f74be1b42)" style="fill: none; stroke: #cccccc; stroke-width: 0.8; stroke-linecap: round"/>
     </g>
     <g id="text_4">
      <!-- 16 -->
      <g style="fill: #262626" transform="translate(53.651477 316.334162) scale(0.1 -0.1)">
       <use xlink:href="#DejaVuSans-31"/>
       <use xlink:href="#DejaVuSans-36" transform="translate(63.623047 0)"/>
      </g>
     </g>
    </g>
    <g id="text_5">
     <!-- Number of Jobs -->
     <g style="fill: #262626" transform="translate(183.944375 330.012287) scale(0.1 -0.1)">
      <defs>
       <path id="DejaVuSans-4e" d="M 628 4666 
L 1478 4666 
L 3547 763 
L 3547 4666 
L 4159 4666 
L 4159 0 
L 3309 0 
L 1241 3903 
L 1241 0 
L 628 0 
L 628 4666 
z
" transform="scale(0.015625)"/>
       <path id="DejaVuSans-75" d="M 544 1381 
L 544 3500 
L 1119 3500 
L 1119 1403 
Q 1119 906 1312 657 
Q 1506 409 1894 409 
Q 2359 409 2629 706 
Q 2900 1003 2900 1516 
L 2900 3500 
L 3475 3500 
L 3475 0 
L 2900 0 
L 2900 538 
Q 2691 219 2414 64 
Q 2138 -91 1772 -91 
Q 1169 -91 856 284 
Q 544 659 544 1381 
z
M 1991 3584 
L 1991 3584 
z
" transform="scale(0.015625)"/>
       <path id="DejaVuSans-6d" d="M 3328 2828 
Q 3544 3216 3844 3400 
Q 4144 3584 4550 3584 
Q 5097 3584 5394 3201 
Q 5691 2819 5691 2113 
L 5691 0 
L 5113 0 
L 5113 2094 
Q 5113 2597 4934 2840 
Q 4756 3084 4391 3084 
Q 3944 3084 3684 2787 
Q 3425 2491 3425 1978 
L 3425 0 
L 2847 0 
L 2847 2094 
Q 2847 2600 2669 2842 
Q 2491 3084 2119 3084 
Q 1678 3084 1418 2786 
Q 1159 2488 1159 1978 
L 1159 0 
L 581 0 
L 581 3500 
L 1159 3500 
L 1159 2956 
Q 1356 3278 1631 3431 
Q 1906 3584 2284 3584 
Q 2666 3584 2933 3390 
Q 3200 3197 3328 2828 
z
" transform="scale(0.015625)"/>
       <path id="DejaVuSans-62" d="M 3116 1747 
Q 3116 2381 2855 2742 
Q 2594 3103 2138 3103 
Q 1681 3103 1420 2742 
Q 1159 2381 1159 1747 
Q 1159 1113 1420 752 
Q 1681 391 2138 391 
Q 2594 391 2855 752 
Q 3116 1113 3116 1747 
z
M 1159 2969 
Q 1341 3281 1617 3432 
Q 1894 3584 2278 3584 
Q 2916 3584 3314 3078 
Q 3713 2572 3713 1747 
Q 3713 922 3314 415 
Q 2916 -91 2278 -91 
Q 1894 -91 1617 61 
Q 1341 213 1159 525 
L 1159 0 
L 581 0 
L 581 4863 
L 1159 4863 
L 1159 2969 
z
" transform="scale(0.015625)"/>
       <path id="DejaVuSans-65" d="M 3597 1894 
L 3597 1613 
L 953 1613 
Q 991 1019 1311 708 
Q 1631 397 2203 397 
Q 2534 397 2845 478 
Q 3156 559 3463 722 
L 3463 178 
Q 3153 47 2828 -22 
Q 2503 -91 2169 -91 
Q 1331 -91 842 396 
Q 353 884 353 1716 
Q 353 2575 817 3079 
Q 1281 3584 2069 3584 
Q 2775 3584 3186 3129 
Q 3597 2675 3597 1894 
z
M 3022 2063 
Q 3016 2534 2758 2815 
Q 2500 3097 2075 3097 
Q 1594 3097 1305 2825 
Q 1016 2553 972 2059 
L 3022 2063 
z
" transform="scale(0.015625)"/>
       <path id="DejaVuSans-72" d="M 2631 2963 
Q 2534 3019 2420 3045 
Q 2306 3072 2169 3072 
Q 1681 3072 1420 2755 
Q 1159 2438 1159 1844 
L 1159 0 
L 581 0 
L 581 3500 
L 1159 3500 
L 1159 2956 
Q 1341 3275 1631 3429 
Q 1922 3584 2338 3584 
Q 2397 3584 2469 3576 
Q 2541 3569 2628 3553 
L 2631 2963 
z
" transform="scale(0.015625)"/>
       <path id="DejaVuSans-20" transform="scale(0.015625)"/>
       <path id="DejaVuSans-6f" d="M 1959 3097 
Q 1497 3097 1228 2736 
Q 959 2375 959 1747 
Q 959 1119 1226 758 
Q 1494 397 1959 397 
Q 2419 397 2687 759 
Q 2956 1122 2956 1747 
Q 2956 2369 2687 2733 
Q 2419 3097 1959 3097 
z
M 1959 3584 
Q 2709 3584 3137 3096 
Q 3566 2609 3566 1747 
Q 3566 888 3137 398 
Q 2709 -91 1959 -91 
Q 1206 -91 779 398 
Q 353 888 353 1747 
Q 353 2609 779 3096 
Q 1206 3584 1959 3584 
z
" transform="scale(0.015625)"/>
       <path id="DejaVuSans-66" d="M 2375 4863 
L 2375 4384 
L 1825 4384 
Q 1516 4384 1395 4259 
Q 1275 4134 1275 3809 
L 1275 3500 
L 2222 3500 
L 2222 3053 
L 1275 3053 
L 1275 0 
L 697 0 
L 697 3053 
L 147 3053 
L 147 3500 
L 697 3500 
L 697 3744 
Q 697 4328 969 4595 
Q 1241 4863 1831 4863 
L 2375 4863 
z
" transform="scale(0.015625)"/>
       <path id="DejaVuSans-4a" d="M 628 4666 
L 1259 4666 
L 1259 325 
Q 1259 -519 939 -900 
Q 619 -1281 -91 -1281 
L -331 -1281 
L -331 -750 
L -134 -750 
Q 284 -750 456 -515 
Q 628 -281 628 325 
L 628 4666 
z
" transform="scale(0.015625)"/>
       <path id="DejaVuSans-73" d="M 2834 3397 
L 2834 2853 
Q 2591 2978 2328 3040 
Q 2066 3103 1784 3103 
Q 1356 3103 1142 2972 
Q 928 2841 928 2578 
Q 928 2378 1081 2264 
Q 1234 2150 1697 2047 
L 1894 2003 
Q 2506 1872 2764 1633 
Q 3022 1394 3022 966 
Q 3022 478 2636 193 
Q 2250 -91 1575 -91 
Q 1294 -91 989 -36 
Q 684 19 347 128 
L 347 722 
Q 666 556 975 473 
Q 1284 391 1588 391 
Q 1994 391 2212 530 
Q 2431 669 2431 922 
Q 2431 1156 2273 1281 
Q 2116 1406 1581 1522 
L 1381 1569 
Q 847 1681 609 1914 
Q 372 2147 372 2553 
Q 372 3047 722 3315 
Q 1072 3584 1716 3584 
Q 2034 3584 2315 3537 
Q 2597 3491 2834 3397 
z
" transform="scale(0.015625)"/>
      </defs>
      <use xlink:href="#DejaVuSans-4e"/>
      <use xlink:href="#DejaVuSans-75" transform="translate(74.804688 0)"/>
      <use xlink:href="#DejaVuSans-6d" transform="translate(138.183594 0)"/>
      <use xlink:href="#DejaVuSans-62" transform="translate(235.595703 0)"/>
      <use xlink:href="#DejaVuSans-65" transform="translate(299.072266 0)"/>
      <use xlink:href="#DejaVuSans-72" transform="translate(360.595703 0)"/>
      <use xlink:href="#DejaVuSans-20" transform="translate(401.708984 0)"/>
      <use xlink:href="#DejaVuSans-6f" transform="translate(433.496094 0)"/>
      <use xlink:href="#DejaVuSans-66" transform="translate(494.677734 0)"/>
      <use xlink:href="#DejaVuSans-20" transform="translate(529.882812 0)"/>
      <use xlink:href="#DejaVuSans-4a" transform="translate(561.669922 0)"/>
      <use xlink:href="#DejaVuSans-6f" transform="translate(591.162109 0)"/>
      <use xlink:href="#DejaVuSans-62" transform="translate(652.34375 0)"/>
      <use xlink:href="#DejaVuSans-73" transform="translate(715.820312 0)"/>
     </g>
    </g>
   </g>
   <g id="matplotlib.axis_2">
    <g id="ytick_1">
     <g id="line2d_5">
      <path d="M 43.78125 260.553856 
L 400.90125 260.553856 
" clip-path="url(#p1f74be1b42)" style="fill: none; stroke: #cccccc; stroke-width: 0.8; stroke-linecap: round"/>
     </g>
     <g id="text_6">
      <!-- 0.5 -->
      <g style="fill: #262626" transform="translate(20.878125 264.353074) scale(0.1 -0.1)">
       <defs>
        <path id="DejaVuSans-30" d="M 2034 4250 
Q 1547 4250 1301 3770 
Q 1056 3291 1056 2328 
Q 1056 1369 1301 889 
Q 1547 409 2034 409 
Q 2525 409 2770 889 
Q 3016 1369 3016 2328 
Q 3016 3291 2770 3770 
Q 2525 4250 2034 4250 
z
M 2034 4750 
Q 2819 4750 3233 4129 
Q 3647 3509 3647 2328 
Q 3647 1150 3233 529 
Q 2819 -91 2034 -91 
Q 1250 -91 836 529 
Q 422 1150 422 2328 
Q 422 3509 836 4129 
Q 1250 4750 2034 4750 
z
" transform="scale(0.015625)"/>
        <path id="DejaVuSans-2e" d="M 684 794 
L 1344 794 
L 1344 0 
L 684 0 
L 684 794 
z
" transform="scale(0.015625)"/>
        <path id="DejaVuSans-35" d="M 691 4666 
L 3169 4666 
L 3169 4134 
L 1269 4134 
L 1269 2991 
Q 1406 3038 1543 3061 
Q 1681 3084 1819 3084 
Q 2600 3084 3056 2656 
Q 3513 2228 3513 1497 
Q 3513 744 3044 326 
Q 2575 -91 1722 -91 
Q 1428 -91 1123 -41 
Q 819 9 494 109 
L 494 744 
Q 775 591 1075 516 
Q 1375 441 1709 441 
Q 2250 441 2565 725 
Q 2881 1009 2881 1497 
Q 2881 1984 2565 2268 
Q 2250 2553 1709 2553 
Q 1456 2553 1204 2497 
Q 953 2441 691 2322 
L 691 4666 
z
" transform="scale(0.015625)"/>
       </defs>
       <use xlink:href="#DejaVuSans-30"/>
       <use xlink:href="#DejaVuSans-2e" transform="translate(63.623047 0)"/>
       <use xlink:href="#DejaVuSans-35" transform="translate(95.410156 0)"/>
      </g>
     </g>
    </g>
    <g id="ytick_2">
     <g id="line2d_6">
      <path d="M 43.78125 204.771372 
L 400.90125 204.771372 
" clip-path="url(#p1f74be1b42)" style="fill: none; stroke: #cccccc; stroke-width: 0.8; stroke-linecap: round"/>
     </g>
     <g id="text_7">
      <!-- 1.0 -->
      <g style="fill: #262626" transform="translate(20.878125 208.570591) scale(0.1 -0.1)">
       <use xlink:href="#DejaVuSans-31"/>
       <use xlink:href="#DejaVuSans-2e" transform="translate(63.623047 0)"/>
       <use xlink:href="#DejaVuSans-30" transform="translate(95.410156 0)"/>
      </g>
     </g>
    </g>
    <g id="ytick_3">
     <g id="line2d_7">
      <path d="M 43.78125 148.988889 
L 400.90125 148.988889 
" clip-path="url(#p1f74be1b42)" style="fill: none; stroke: #cccccc; stroke-width: 0.8; stroke-linecap: round"/>
     </g>
     <g id="text_8">
      <!-- 1.5 -->
      <g style="fill: #262626" transform="translate(20.878125 152.788107) scale(0.1 -0.1)">
       <use xlink:href="#DejaVuSans-31"/>
       <use xlink:href="#DejaVuSans-2e" transform="translate(63.623047 0)"/>
       <use xlink:href="#DejaVuSans-35" transform="translate(95.410156 0)"/>
      </g>
     </g>
    </g>
    <g id="ytick_4">
     <g id="line2d_8">
      <path d="M 43.78125 93.206405 
L 400.90125 93.206405 
" clip-path="url(#p1f74be1b42)" style="fill: none; stroke: #cccccc; stroke-width: 0.8; stroke-linecap: round"/>
     </g>
     <g id="text_9">
      <!-- 2.0 -->
      <g style="fill: #262626" transform="translate(20.878125 97.005624) scale(0.1 -0.1)">
       <use xlink:href="#DejaVuSans-32"/>
       <use xlink:href="#DejaVuSans-2e" transform="translate(63.623047 0)"/>
       <use xlink:href="#DejaVuSans-30" transform="translate(95.410156 0)"/>
      </g>
     </g>
    </g>
    <g id="ytick_5">
     <g id="line2d_9">
      <path d="M 43.78125 37.423921 
L 400.90125 37.423921 
" clip-path="url(#p1f74be1b42)" style="fill: none; stroke: #cccccc; stroke-width: 0.8; stroke-linecap: round"/>
     </g>
     <g id="text_10">
      <!-- 2.5 -->
      <g style="fill: #262626" transform="translate(20.878125 41.22314) scale(0.1 -0.1)">
       <use xlink:href="#DejaVuSans-32"/>
       <use xlink:href="#DejaVuSans-2e" transform="translate(63.623047 0)"/>
       <use xlink:href="#DejaVuSans-35" transform="translate(95.410156 0)"/>
      </g>
     </g>
    </g>
    <g id="text_11">
     <!-- Mean Latency (ns) -->
     <g style="fill: #262626" transform="translate(14.798438 214.92035) rotate(-90) scale(0.1 -0.1)">
      <defs>
       <path id="DejaVuSans-4d" d="M 628 4666 
L 1569 4666 
L 2759 1491 
L 3956 4666 
L 4897 4666 
L 4897 0 
L 4281 0 
L 4281 4097 
L 3078 897 
L 2444 897 
L 1241 4097 
L 1241 0 
L 628 0 
L 628 4666 
z
" transform="scale(0.015625)"/>
       <path id="DejaVuSans-61" d="M 2194 1759 
Q 1497 1759 1228 1600 
Q 959 1441 959 1056 
Q 959 750 1161 570 
Q 1363 391 1709 391 
Q 2188 391 2477 730 
Q 2766 1069 2766 1631 
L 2766 1759 
L 2194 1759 
z
M 3341 1997 
L 3341 0 
L 2766 0 
L 2766 531 
Q 2569 213 2275 61 
Q 1981 -91 1556 -91 
Q 1019 -91 701 211 
Q 384 513 384 1019 
Q 384 1609 779 1909 
Q 1175 2209 1959 2209 
L 2766 2209 
L 2766 2266 
Q 2766 2663 2505 2880 
Q 2244 3097 1772 3097 
Q 1472 3097 1187 3025 
Q 903 2953 641 2809 
L 641 3341 
Q 956 3463 1253 3523 
Q 1550 3584 1831 3584 
Q 2591 3584 2966 3190 
Q 3341 2797 3341 1997 
z
" transform="scale(0.015625)"/>
       <path id="DejaVuSans-6e" d="M 3513 2113 
L 3513 0 
L 2938 0 
L 2938 2094 
Q 2938 2591 2744 2837 
Q 2550 3084 2163 3084 
Q 1697 3084 1428 2787 
Q 1159 2491 1159 1978 
L 1159 0 
L 581 0 
L 581 3500 
L 1159 3500 
L 1159 2956 
Q 1366 3272 1645 3428 
Q 1925 3584 2291 3584 
Q 2894 3584 3203 3211 
Q 3513 2838 3513 2113 
z
" transform="scale(0.015625)"/>
       <path id="DejaVuSans-4c" d="M 628 4666 
L 1259 4666 
L 1259 531 
L 3531 531 
L 3531 0 
L 628 0 
L 628 4666 
z
" transform="scale(0.015625)"/>
       <path id="DejaVuSans-74" d="M 1172 4494 
L 1172 3500 
L 2356 3500 
L 2356 3053 
L 1172 3053 
L 1172 1153 
Q 1172 725 1289 603 
Q 1406 481 1766 481 
L 2356 481 
L 2356 0 
L 1766 0 
Q 1100 0 847 248 
Q 594 497 594 1153 
L 594 3053 
L 172 3053 
L 172 3500 
L 594 3500 
L 594 4494 
L 1172 4494 
z
" transform="scale(0.015625)"/>
       <path id="DejaVuSans-63" d="M 3122 3366 
L 3122 2828 
Q 2878 2963 2633 3030 
Q 2388 3097 2138 3097 
Q 1578 3097 1268 2742 
Q 959 2388 959 1747 
Q 959 1106 1268 751 
Q 1578 397 2138 397 
Q 2388 397 2633 464 
Q 2878 531 3122 666 
L 3122 134 
Q 2881 22 2623 -34 
Q 2366 -91 2075 -91 
Q 1284 -91 818 406 
Q 353 903 353 1747 
Q 353 2603 823 3093 
Q 1294 3584 2113 3584 
Q 2378 3584 2631 3529 
Q 2884 3475 3122 3366 
z
" transform="scale(0.015625)"/>
       <path id="DejaVuSans-79" d="M 2059 -325 
Q 1816 -950 1584 -1140 
Q 1353 -1331 966 -1331 
L 506 -1331 
L 506 -850 
L 844 -850 
Q 1081 -850 1212 -737 
Q 1344 -625 1503 -206 
L 1606 56 
L 191 3500 
L 800 3500 
L 1894 763 
L 2988 3500 
L 3597 3500 
L 2059 -325 
z
" transform="scale(0.015625)"/>
       <path id="DejaVuSans-28" d="M 1984 4856 
Q 1566 4138 1362 3434 
Q 1159 2731 1159 2009 
Q 1159 1288 1364 580 
Q 1569 -128 1984 -844 
L 1484 -844 
Q 1016 -109 783 600 
Q 550 1309 550 2009 
Q 550 2706 781 3412 
Q 1013 4119 1484 4856 
L 1984 4856 
z
" transform="scale(0.015625)"/>
       <path id="DejaVuSans-29" d="M 513 4856 
L 1013 4856 
Q 1481 4119 1714 3412 
Q 1947 2706 1947 2009 
Q 1947 1309 1714 600 
Q 1481 -109 1013 -844 
L 513 -844 
Q 928 -128 1133 580 
Q 1338 1288 1338 2009 
Q 1338 2731 1133 3434 
Q 928 4138 513 4856 
z
" transform="scale(0.015625)"/>
      </defs>
      <use xlink:href="#DejaVuSans-4d"/>
      <use xlink:href="#DejaVuSans-65" transform="translate(86.279297 0)"/>
      <use xlink:href="#DejaVuSans-61" transform="translate(147.802734 0)"/>
      <use xlink:href="#DejaVuSans-6e" transform="translate(209.082031 0)"/>
      <use xlink:href="#DejaVuSans-20" transform="translate(272.460938 0)"/>
      <use xlink:href="#DejaVuSans-4c" transform="translate(304.248047 0)"/>
      <use xlink:href="#DejaVuSans-61" transform="translate(359.960938 0)"/>
      <use xlink:href="#DejaVuSans-74" transform="translate(421.240234 0)"/>
      <use xlink:href="#DejaVuSans-65" transform="translate(460.449219 0)"/>
      <use xlink:href="#DejaVuSans-6e" transform="translate(521.972656 0)"/>
      <use xlink:href="#DejaVuSans-63" transform="translate(585.351562 0)"/>
      <use xlink:href="#DejaVuSans-79" transform="translate(640.332031 0)"/>
      <use xlink:href="#DejaVuSans-20" transform="translate(699.511719 0)"/>
      <use xlink:href="#DejaVuSans-28" transform="translate(731.298828 0)"/>
      <use xlink:href="#DejaVuSans-6e" transform="translate(770.3125 0)"/>
      <use xlink:href="#DejaVuSans-73" transform="translate(833.691406 0)"/>
      <use xlink:href="#DejaVuSans-29" transform="translate(885.791016 0)"/>
     </g>
    </g>
    <g id="text_12">
     <!-- 1e7 -->
     <g style="fill: #262626" transform="translate(43.78125 32.623725) scale(0.1 -0.1)">
      <defs>
       <path id="DejaVuSans-37" d="M 525 4666 
L 3525 4666 
L 3525 4397 
L 1831 0 
L 1172 0 
L 2766 4134 
L 525 4134 
L 525 4666 
z
" transform="scale(0.015625)"/>
      </defs>
      <use xlink:href="#DejaVuSans-31"/>
      <use xlink:href="#DejaVuSans-65" transform="translate(63.623047 0)"/>
      <use xlink:href="#DejaVuSans-37" transform="translate(125.146484 0)"/>
     </g>
    </g>
   </g>
   <g id="FillBetweenPolyCollection_1"/>
   <g id="FillBetweenPolyCollection_2"/>
   <g id="FillBetweenPolyCollection_3"/>
   <g id="FillBetweenPolyCollection_4"/>
   <g id="FillBetweenPolyCollection_5"/>
   <g id="FillBetweenPolyCollection_6"/>
   <g id="FillBetweenPolyCollection_7"/>
   <g id="line2d_10">
    <path d="M 60.013977 285.229039 
L 106.393198 250.765009 
L 199.15164 166.312836 
L 384.668523 49.024641 
" clip-path="url(#p1f74be1b42)" style="fill: none; stroke: #4c02a1; stroke-width: 1.5; stroke-linecap: round"/>
   </g>
   <g id="line2d_11">
    <path d="M 60.013977 289.639725 
L 106.393198 256.430873 
L 199.15164 214.868743 
L 384.668523 127.24715 
" clip-path="url(#p1f74be1b42)" style="fill: none; stroke: #7e03a8; stroke-width: 1.5; stroke-linecap: round"/>
   </g>
   <g id="line2d_12">
    <path d="M 60.013977 286.918184 
L 106.393198 250.298969 
L 199.15164 172.682554 
L 384.668523 47.719725 
" clip-path="url(#p1f74be1b42)" style="fill: none; stroke: #aa2395; stroke-width: 1.5; stroke-linecap: round"/>
   </g>
   <g id="line2d_13">
    <path d="M 60.013977 287.509386 
L 106.393198 250.187555 
L 199.15164 172.817277 
L 384.668523 130.399786 
" clip-path="url(#p1f74be1b42)" style="fill: none; stroke: #cc4778; stroke-width: 1.5; stroke-linecap: round"/>
   </g>
   <g id="line2d_14">
    <path d="M 60.013977 286.049778 
L 106.393198 251.782327 
L 199.15164 172.087259 
L 384.668523 129.24529 
" clip-path="url(#p1f74be1b42)" style="fill: none; stroke: #e66c5c; stroke-width: 1.5; stroke-linecap: round"/>
   </g>
   <g id="line2d_15">
    <path d="M 60.013977 285.170739 
L 106.393198 248.919425 
L 199.15164 169.035421 
L 384.668523 123.353384 
" clip-path="url(#p1f74be1b42)" style="fill: none; stroke: #f89540; stroke-width: 1.5; stroke-linecap: round"/>
   </g>
   <g id="line2d_16">
    <path d="M 60.013977 285.574313 
L 106.393198 231.055157 
L 199.15164 168.319311 
L 384.668523 126.271975 
" clip-path="url(#p1f74be1b42)" style="fill: none; stroke: #fdc527; stroke-width: 1.5; stroke-linecap: round"/>
   </g>
   <g id="line2d_17"/>
   <g id="line2d_18"/>
   <g id="line2d_19"/>
   <g id="line2d_20"/>
   <g id="line2d_21"/>
   <g id="line2d_22"/>
   <g id="line2d_23"/>
   <g id="text_13">
    <path d="M 101.406554 256.87468 
L 102.699579 255.913843 
L 99.38185 251.449083 
L 98.184386 252.776909 
L 97.648517 252.055775 
L 98.838457 250.73354 
L 99.629823 250.145482 
L 103.48342 255.331377 
L 104.776445 254.370541 
L 105.271308 255.036492 
L 101.901417 257.540631 
L 101.406554 256.87468 
z
" clip-path="url(#p1f74be1b42)" style="fill: #4c02a1; stroke: #ffffff; stroke-width: 5"/>
    <path d="M 101.406554 256.87468 
L 102.699579 255.913843 
L 99.38185 251.449083 
L 98.184386 252.776909 
L 97.648517 252.055775 
L 98.838457 250.73354 
L 99.629823 250.145482 
L 103.48342 255.331377 
L 104.776445 254.370541 
L 105.271308 255.036492 
L 101.901417 257.540631 
L 101.406554 256.87468 
z
" clip-path="url(#p1f74be1b42)" style="fill: #4c02a1"/>
   </g>
   <g id="text_14">
    <path d="M 141.033949 236.885826 
L 140.352563 241.456171 
L 142.625457 240.437758 
L 141.033949 236.885826 
z
M 140.445851 236.207636 
L 141.578021 235.700346 
L 143.520927 240.036527 
L 144.47058 239.611017 
L 144.806004 240.359618 
L 143.856351 240.785128 
L 144.559145 242.353624 
L 143.663676 242.754856 
L 142.960882 241.186359 
L 139.957923 242.53189 
L 139.568831 241.663513 
L 140.445851 236.207636 
z
" clip-path="url(#p1f74be1b42)" style="fill: #7e03a8; stroke: #ffffff; stroke-width: 5"/>
    <path d="M 141.033949 236.885826 
L 140.352563 241.456171 
L 142.625457 240.437758 
L 141.033949 236.885826 
z
M 140.445851 236.207636 
L 141.578021 235.700346 
L 143.520927 240.036527 
L 144.47058 239.611017 
L 144.806004 240.359618 
L 143.856351 240.785128 
L 144.559145 242.353624 
L 143.663676 242.754856 
L 142.960882 241.186359 
L 139.957923 242.53189 
L 139.568831 241.663513 
L 140.445851 236.207636 
z
" clip-path="url(#p1f74be1b42)" style="fill: #7e03a8"/>
   </g>
   <g id="text_15">
    <path d="M 181.711635 186.35882 
Q 181.172388 186.810038 181.104873 187.357533 
Q 181.038557 187.904026 181.460697 188.40852 
Q 181.88384 188.914213 182.433462 188.945314 
Q 182.984283 188.975411 183.523529 188.524192 
Q 184.062775 188.072974 184.130485 187.523278 
Q 184.198392 186.97138 183.778257 186.469282 
Q 183.356117 185.964788 182.805296 185.93469 
Q 182.255674 185.90359 181.711635 186.35882 
z
M 180.686766 186.670378 
Q 180.099975 186.957645 179.549203 186.852125 
Q 178.998625 186.744405 178.597542 186.265075 
Q 178.037028 185.595211 178.188081 184.806678 
Q 178.340332 184.017142 179.170772 183.322265 
Q 180.006004 182.623377 180.807619 182.614757 
Q 181.609234 182.606138 182.169748 183.276001 
Q 182.570831 183.755331 182.578567 184.317278 
Q 182.586499 184.877025 182.203845 185.400949 
Q 182.856568 185.070736 183.471782 185.187529 
Q 184.087192 185.302121 184.5344 185.836573 
Q 185.215239 186.650236 185.083116 187.500349 
Q 184.94999 188.349264 184.024883 189.123355 
Q 183.100974 189.896443 182.240689 189.878773 
Q 181.3806 189.858903 180.699761 189.04524 
Q 180.252553 188.510787 180.249487 187.883812 
Q 180.246617 187.254635 180.686766 186.670378 
z
M 179.410253 185.707273 
Q 179.773233 186.141067 180.247604 186.157715 
Q 180.723174 186.17336 181.213289 185.763252 
Q 181.701007 185.35515 181.771873 184.88227 
Q 181.843938 184.408387 181.480958 183.974593 
Q 181.116975 183.539601 180.63781 183.526964 
Q 180.159844 183.513325 179.672126 183.921427 
Q 179.182011 184.331535 179.113541 184.80241 
Q 179.046269 185.272282 179.410253 185.707273 
z
" clip-path="url(#p1f74be1b42)" style="fill: #aa2395; stroke: #ffffff; stroke-width: 5"/>
    <path d="M 181.711635 186.35882 
Q 181.172388 186.810038 181.104873 187.357533 
Q 181.038557 187.904026 181.460697 188.40852 
Q 181.88384 188.914213 182.433462 188.945314 
Q 182.984283 188.975411 183.523529 188.524192 
Q 184.062775 188.072974 184.130485 187.523278 
Q 184.198392 186.97138 183.778257 186.469282 
Q 183.356117 185.964788 182.805296 185.93469 
Q 182.255674 185.90359 181.711635 186.35882 
z
M 180.686766 186.670378 
Q 180.099975 186.957645 179.549203 186.852125 
Q 178.998625 186.744405 178.597542 186.265075 
Q 178.037028 185.595211 178.188081 184.806678 
Q 178.340332 184.017142 179.170772 183.322265 
Q 180.006004 182.623377 180.807619 182.614757 
Q 181.609234 182.606138 182.169748 183.276001 
Q 182.570831 183.755331 182.578567 184.317278 
Q 182.586499 184.877025 182.203845 185.400949 
Q 182.856568 185.070736 183.471782 185.187529 
Q 184.087192 185.302121 184.5344 185.836573 
Q 185.215239 186.650236 185.083116 187.500349 
Q 184.94999 188.349264 184.024883 189.123355 
Q 183.100974 189.896443 182.240689 189.878773 
Q 181.3806 189.858903 180.699761 189.04524 
Q 180.252553 188.510787 180.249487 187.883812 
Q 180.246617 187.254635 180.686766 186.670378 
z
M 179.410253 185.707273 
Q 179.773233 186.141067 180.247604 186.157715 
Q 180.723174 186.17336 181.213289 185.763252 
Q 181.701007 185.35515 181.771873 184.88227 
Q 181.843938 184.408387 181.480958 183.974593 
Q 181.116975 183.539601 180.63781 183.526964 
Q 180.159844 183.513325 179.672126 183.921427 
Q 179.182011 184.331535 179.113541 184.80241 
Q 179.046269 185.272282 179.410253 185.707273 
z
" clip-path="url(#p1f74be1b42)" style="fill: #aa2395"/>
   </g>
   <g id="text_16">
    <path d="M 217.77834 170.537862 
L 219.348751 170.178795 
L 218.108909 164.756232 
L 216.478249 165.489709 
L 216.277993 164.613873 
L 217.899515 163.882486 
L 218.860649 163.662727 
L 220.300746 169.961127 
L 221.871157 169.60206 
L 222.056089 170.410875 
L 217.963271 171.346677 
L 217.77834 170.537862 
z
M 225.27468 165.533268 
Q 224.627323 165.681283 224.349395 166.211251 
Q 224.072641 166.739348 224.248866 167.510083 
Q 224.424046 168.276248 224.903841 168.636173 
Q 225.38481 168.994225 226.032167 168.846211 
Q 226.679524 168.698196 226.95558 168.167053 
Q 227.231289 167.634387 227.056109 166.868221 
Q 226.879884 166.097486 226.401134 165.742131 
Q 225.922036 165.385253 225.27468 165.533268 
z
M 226.494013 162.082488 
L 226.694268 162.958324 
Q 226.292742 162.870614 225.903582 162.865027 
Q 225.514073 162.857917 225.151553 162.940806 
Q 224.199558 163.158474 223.843875 163.916191 
Q 223.489715 164.673559 223.715199 165.98921 
Q 223.900737 165.51082 224.273685 165.193138 
Q 224.648156 164.875108 225.156903 164.758786 
Q 226.227707 164.513952 226.99788 165.022261 
Q 227.767706 165.529046 228.023336 166.647069 
Q 228.273742 167.742244 227.777883 168.552848 
Q 227.281676 169.361928 226.206302 169.607807 
Q 224.972517 169.889906 224.104663 169.094586 
Q 223.236461 168.297743 222.826199 166.503423 
Q 222.441012 164.818773 223.011526 163.63367 
Q 223.58204 162.448568 224.928542 162.140697 
Q 225.291062 162.057809 225.676043 162.045118 
Q 226.061024 162.032426 226.494013 162.082488 
z
" clip-path="url(#p1f74be1b42)" style="fill: #cc4778; stroke: #ffffff; stroke-width: 5"/>
    <path d="M 217.77834 170.537862 
L 219.348751 170.178795 
L 218.108909 164.756232 
L 216.478249 165.489709 
L 216.277993 164.613873 
L 217.899515 163.882486 
L 218.860649 163.662727 
L 220.300746 169.961127 
L 221.871157 169.60206 
L 222.056089 170.410875 
L 217.963271 171.346677 
L 217.77834 170.537862 
z
M 225.27468 165.533268 
Q 224.627323 165.681283 224.349395 166.211251 
Q 224.072641 166.739348 224.248866 167.510083 
Q 224.424046 168.276248 224.903841 168.636173 
Q 225.38481 168.994225 226.032167 168.846211 
Q 226.679524 168.698196 226.95558 168.167053 
Q 227.231289 167.634387 227.056109 166.868221 
Q 226.879884 166.097486 226.401134 165.742131 
Q 225.922036 165.385253 225.27468 165.533268 
z
M 226.494013 162.082488 
L 226.694268 162.958324 
Q 226.292742 162.870614 225.903582 162.865027 
Q 225.514073 162.857917 225.151553 162.940806 
Q 224.199558 163.158474 223.843875 163.916191 
Q 223.489715 164.673559 223.715199 165.98921 
Q 223.900737 165.51082 224.273685 165.193138 
Q 224.648156 164.875108 225.156903 164.758786 
Q 226.227707 164.513952 226.99788 165.022261 
Q 227.767706 165.529046 228.023336 166.647069 
Q 228.273742 167.742244 227.777883 168.552848 
Q 227.281676 169.361928 226.206302 169.607807 
Q 224.972517 169.889906 224.104663 169.094586 
Q 223.236461 168.297743 222.826199 166.503423 
Q 222.441012 164.818773 223.011526 163.63367 
Q 223.58204 162.448568 224.928542 162.140697 
Q 225.291062 162.057809 225.676043 162.045118 
Q 226.061024 162.032426 226.494013 162.082488 
z
" clip-path="url(#p1f74be1b42)" style="fill: #cc4778"/>
   </g>
   <g id="text_17">
    <path d="M 260.007979 156.830805 
Q 260.731743 156.819215 261.226376 157.197301 
Q 261.722179 157.573512 261.88039 158.258606 
Q 262.12298 159.309084 261.533074 160.053086 
Q 260.942816 160.795565 259.610688 161.103198 
Q 259.164616 161.206211 258.670748 161.227251 
Q 258.17688 161.248291 257.632172 161.188062 
L 257.41806 160.260901 
Q 257.870729 160.401719 258.373151 160.410776 
Q 258.877095 160.419481 259.396244 160.299592 
Q 260.299046 160.091106 260.690253 159.625515 
Q 261.081459 159.159925 260.924303 158.479398 
Q 260.779101 157.850634 260.257552 157.599036 
Q 259.735651 157.345916 258.951599 157.52698 
L 258.123396 157.718239 
L 257.940926 156.928097 
L 258.807189 156.728048 
Q 259.51512 156.564564 259.825767 156.194551 
Q 260.136414 155.824539 260.013361 155.291688 
Q 259.887144 154.745135 259.43142 154.542481 
Q 258.976868 154.337953 258.253713 154.504953 
Q 257.857881 154.596364 257.425758 154.787562 
Q 256.993285 154.977237 256.492786 155.282046 
L 256.295198 154.42644 
Q 256.808115 154.147628 257.26858 153.96111 
Q 257.729044 153.774593 258.15228 153.676854 
Q 259.246909 153.424068 259.998251 153.774943 
Q 260.750765 154.123943 260.946244 154.970415 
Q 261.082657 155.561119 260.838548 156.045659 
Q 260.59444 156.530199 260.007979 156.830805 
z
M 264.820807 158.902556 
L 268.174723 158.128026 
L 268.361412 158.936437 
L 263.85197 159.977816 
L 263.665281 159.169405 
Q 264.081046 158.476843 264.804865 157.305822 
Q 265.529855 156.132926 265.707934 155.799942 
Q 266.049693 155.175787 266.149412 154.774304 
Q 266.250654 154.372469 266.170494 154.025354 
Q 266.039706 153.45901 265.560082 153.194523 
Q 265.080106 152.928514 264.442207 153.075826 
Q 263.990045 153.180245 263.523855 153.453077 
Q 263.059188 153.725557 262.562108 154.17711 
L 262.3378 153.205798 
Q 262.864055 152.838915 263.340556 152.603792 
Q 263.81858 152.368318 264.237249 152.271634 
Q 265.341012 152.016738 266.124803 152.41785 
Q 266.908243 152.817439 267.121301 153.740033 
Q 267.222555 154.178493 267.14884 154.609251 
Q 267.076296 155.038135 266.765456 155.671186 
Q 266.6787 155.837151 266.193035 156.643676 
Q 265.708893 157.449849 264.820807 158.902556 
z
" clip-path="url(#p1f74be1b42)" style="fill: #e66c5c; stroke: #ffffff; stroke-width: 5"/>
    <path d="M 260.007979 156.830805 
Q 260.731743 156.819215 261.226376 157.197301 
Q 261.722179 157.573512 261.88039 158.258606 
Q 262.12298 159.309084 261.533074 160.053086 
Q 260.942816 160.795565 259.610688 161.103198 
Q 259.164616 161.206211 258.670748 161.227251 
Q 258.17688 161.248291 257.632172 161.188062 
L 257.41806 160.260901 
Q 257.870729 160.401719 258.373151 160.410776 
Q 258.877095 160.419481 259.396244 160.299592 
Q 260.299046 160.091106 260.690253 159.625515 
Q 261.081459 159.159925 260.924303 158.479398 
Q 260.779101 157.850634 260.257552 157.599036 
Q 259.735651 157.345916 258.951599 157.52698 
L 258.123396 157.718239 
L 257.940926 156.928097 
L 258.807189 156.728048 
Q 259.51512 156.564564 259.825767 156.194551 
Q 260.136414 155.824539 260.013361 155.291688 
Q 259.887144 154.745135 259.43142 154.542481 
Q 258.976868 154.337953 258.253713 154.504953 
Q 257.857881 154.596364 257.425758 154.787562 
Q 256.993285 154.977237 256.492786 155.282046 
L 256.295198 154.42644 
Q 256.808115 154.147628 257.26858 153.96111 
Q 257.729044 153.774593 258.15228 153.676854 
Q 259.246909 153.424068 259.998251 153.774943 
Q 260.750765 154.123943 260.946244 154.970415 
Q 261.082657 155.561119 260.838548 156.045659 
Q 260.59444 156.530199 260.007979 156.830805 
z
M 264.820807 158.902556 
L 268.174723 158.128026 
L 268.361412 158.936437 
L 263.85197 159.977816 
L 263.665281 159.169405 
Q 264.081046 158.476843 264.804865 157.305822 
Q 265.529855 156.132926 265.707934 155.799942 
Q 266.049693 155.175787 266.149412 154.774304 
Q 266.250654 154.372469 266.170494 154.025354 
Q 266.039706 153.45901 265.560082 153.194523 
Q 265.080106 152.928514 264.442207 153.075826 
Q 263.990045 153.180245 263.523855 153.453077 
Q 263.059188 153.725557 262.562108 154.17711 
L 262.3378 153.205798 
Q 262.864055 152.838915 263.340556 152.603792 
Q 263.81858 152.368318 264.237249 152.271634 
Q 265.341012 152.016738 266.124803 152.41785 
Q 266.908243 152.817439 267.121301 153.740033 
Q 267.222555 154.178493 267.14884 154.609251 
Q 267.076296 155.038135 266.765456 155.671186 
Q 266.6787 155.837151 266.193035 156.643676 
Q 265.708893 157.449849 264.820807 158.902556 
z
" clip-path="url(#p1f74be1b42)" style="fill: #e66c5c"/>
   </g>
   <g id="text_18">
    <path d="M 299.415496 143.02995 
Q 298.770694 143.188728 298.501632 143.723252 
Q 298.233714 144.255885 298.422752 145.023578 
Q 298.610669 145.786719 299.096393 146.138602 
Q 299.58326 146.488593 300.228061 146.329816 
Q 300.872862 146.171039 301.140034 145.635372 
Q 301.406831 145.098187 301.218914 144.335045 
Q 301.029876 143.567352 300.545273 143.220021 
Q 300.060297 142.871173 299.415496 143.02995 
z
M 300.577181 139.559339 
L 300.791997 140.431718 
Q 300.389066 140.350709 299.999866 140.351605 
Q 299.610293 140.350983 299.249204 140.439899 
Q 298.300967 140.673394 297.957954 141.43693 
Q 297.616458 142.200092 297.863826 143.511805 
Q 298.04137 143.030391 298.408974 142.706541 
Q 298.778097 142.382318 299.284835 142.257538 
Q 300.351412 141.994901 301.129946 142.490311 
Q 301.908106 142.984204 302.182323 144.097814 
Q 302.450937 145.188666 301.968648 146.007416 
Q 301.485987 146.824649 300.414858 147.088406 
Q 299.185942 147.391017 298.304961 146.610263 
Q 297.423607 145.827992 296.983514 144.040755 
Q 296.57032 142.362754 297.121015 141.168313 
Q 297.67171 139.973873 299.012897 139.643616 
Q 299.373986 139.554701 299.758702 139.535599 
Q 300.143418 139.516497 300.577181 139.559339 
z
M 305.485174 139.070086 
L 303.99741 143.444889 
L 306.415795 142.849381 
L 305.485174 139.070086 
z
M 305.027846 138.297654 
L 306.232486 138.001021 
L 307.368584 142.614764 
L 308.379025 142.365951 
L 308.575162 143.162471 
L 307.56472 143.411284 
L 307.975673 145.080182 
L 307.022884 145.314798 
L 306.611931 143.6459 
L 303.416751 144.432688 
L 303.189232 143.508725 
L 305.027846 138.297654 
z
" clip-path="url(#p1f74be1b42)" style="fill: #f89540; stroke: #ffffff; stroke-width: 5"/>
    <path d="M 299.415496 143.02995 
Q 298.770694 143.188728 298.501632 143.723252 
Q 298.233714 144.255885 298.422752 145.023578 
Q 298.610669 145.786719 299.096393 146.138602 
Q 299.58326 146.488593 300.228061 146.329816 
Q 300.872862 146.171039 301.140034 145.635372 
Q 301.406831 145.098187 301.218914 144.335045 
Q 301.029876 143.567352 300.545273 143.220021 
Q 300.060297 142.871173 299.415496 143.02995 
z
M 300.577181 139.559339 
L 300.791997 140.431718 
Q 300.389066 140.350709 299.999866 140.351605 
Q 299.610293 140.350983 299.249204 140.439899 
Q 298.300967 140.673394 297.957954 141.43693 
Q 297.616458 142.200092 297.863826 143.511805 
Q 298.04137 143.030391 298.408974 142.706541 
Q 298.778097 142.382318 299.284835 142.257538 
Q 300.351412 141.994901 301.129946 142.490311 
Q 301.908106 142.984204 302.182323 144.097814 
Q 302.450937 145.188666 301.968648 146.007416 
Q 301.485987 146.824649 300.414858 147.088406 
Q 299.185942 147.391017 298.304961 146.610263 
Q 297.423607 145.827992 296.983514 144.040755 
Q 296.57032 142.362754 297.121015 141.168313 
Q 297.67171 139.973873 299.012897 139.643616 
Q 299.373986 139.554701 299.758702 139.535599 
Q 300.143418 139.516497 300.577181 139.559339 
z
M 305.485174 139.070086 
L 303.99741 143.444889 
L 306.415795 142.849381 
L 305.485174 139.070086 
z
M 305.027846 138.297654 
L 306.232486 138.001021 
L 307.368584 142.614764 
L 308.379025 142.365951 
L 308.575162 143.162471 
L 307.56472 143.411284 
L 307.975673 145.080182 
L 307.022884 145.314798 
L 306.611931 143.6459 
L 303.416751 144.432688 
L 303.189232 143.508725 
L 305.027846 138.297654 
z
" clip-path="url(#p1f74be1b42)" style="fill: #f89540"/>
   </g>
   <g id="text_19">
    <path d="M 335.198055 139.46307 
L 336.769145 139.106983 
L 335.539592 133.682077 
L 333.907543 134.41246 
L 333.708949 133.536246 
L 335.331855 132.807936 
L 336.293404 132.590001 
L 337.721551 138.891121 
L 339.29264 138.535034 
L 339.476037 139.344198 
L 335.381452 140.272235 
L 335.198055 139.46307 
z
M 342.064333 137.906831 
L 345.421375 137.145958 
L 345.604771 137.955123 
L 341.091128 138.978139 
L 340.907731 138.168974 
Q 341.326312 137.478111 342.054891 136.310045 
Q 342.784648 135.14011 342.964081 134.807854 
Q 343.308379 134.185095 343.409731 133.78402 
Q 343.512607 133.382601 343.43386 133.035163 
Q 343.305379 132.468291 342.826835 132.201854 
Q 342.347946 131.933894 341.709453 132.078608 
Q 341.25687 132.181186 340.789573 132.452118 
Q 340.323801 132.722704 339.824887 133.17223 
L 339.604534 132.200014 
Q 340.132278 131.835275 340.609733 131.602094 
Q 341.088711 131.368567 341.50777 131.273588 
Q 342.612561 131.023187 343.394714 131.427486 
Q 344.17652 131.830261 344.385821 132.753714 
Q 344.48529 133.192583 344.409823 133.623037 
Q 344.335533 134.051622 344.022119 134.683403 
Q 343.934688 134.849013 343.445745 135.653555 
Q 342.958325 136.45775 342.064333 137.906831 
z
M 348.915518 133.654423 
Q 348.229785 133.809844 347.919868 134.2662 
Q 347.611475 134.72221 347.75688 135.363751 
Q 347.902631 136.006816 348.377497 136.285301 
Q 348.853887 136.563441 349.539619 136.40802 
Q 350.225352 136.252599 350.536447 135.794374 
Q 350.848721 135.334279 350.704006 134.695786 
Q 350.558601 134.054245 350.082212 133.776105 
Q 349.607345 133.49762 348.915518 133.654423 
z
M 347.861406 133.463966 
Q 347.208185 133.451805 346.766256 133.106576 
Q 346.325504 132.759478 346.187352 132.149938 
Q 345.994285 131.298106 346.488529 130.665393 
Q 346.984296 130.032335 348.040324 129.792987 
Q 349.102448 129.552257 349.819665 129.910392 
Q 350.536882 130.268528 350.729949 131.12036 
Q 350.868101 131.7299 350.618548 132.233455 
Q 350.370174 132.735141 349.7906 133.026715 
Q 350.522086 133.030749 351.016212 133.415416 
Q 351.511516 133.798214 351.665556 134.477851 
Q 351.900069 135.512545 351.394568 136.20869 
Q 350.888722 136.903311 349.712309 137.169945 
Q 348.537421 137.436233 347.779996 137.027932 
Q 347.023749 136.617762 346.789236 135.583067 
Q 346.635196 134.90343 346.918579 134.344143 
Q 347.203141 133.782987 347.861406 133.463966 
z
M 347.165053 132.02447 
Q 347.290081 132.576104 347.704583 132.807389 
Q 348.120609 133.03833 348.743864 132.897069 
Q 349.364071 132.7565 349.64292 132.368066 
Q 349.923293 131.979287 349.798266 131.427653 
Q 349.672893 130.874496 349.252295 130.644592 
Q 348.833221 130.414342 348.213015 130.554912 
Q 347.58976 130.696172 347.313958 131.083915 
Q 347.03968 131.471313 347.165053 132.02447 
z
" clip-path="url(#p1f74be1b42)" style="fill: #fdc527; stroke: #ffffff; stroke-width: 5"/>
    <path d="M 335.198055 139.46307 
L 336.769145 139.106983 
L 335.539592 133.682077 
L 333.907543 134.41246 
L 333.708949 133.536246 
L 335.331855 132.807936 
L 336.293404 132.590001 
L 337.721551 138.891121 
L 339.29264 138.535034 
L 339.476037 139.344198 
L 335.381452 140.272235 
L 335.198055 139.46307 
z
M 342.064333 137.906831 
L 345.421375 137.145958 
L 345.604771 137.955123 
L 341.091128 138.978139 
L 340.907731 138.168974 
Q 341.326312 137.478111 342.054891 136.310045 
Q 342.784648 135.14011 342.964081 134.807854 
Q 343.308379 134.185095 343.409731 133.78402 
Q 343.512607 133.382601 343.43386 133.035163 
Q 343.305379 132.468291 342.826835 132.201854 
Q 342.347946 131.933894 341.709453 132.078608 
Q 341.25687 132.181186 340.789573 132.452118 
Q 340.323801 132.722704 339.824887 133.17223 
L 339.604534 132.200014 
Q 340.132278 131.835275 340.609733 131.602094 
Q 341.088711 131.368567 341.50777 131.273588 
Q 342.612561 131.023187 343.394714 131.427486 
Q 344.17652 131.830261 344.385821 132.753714 
Q 344.48529 133.192583 344.409823 133.623037 
Q 344.335533 134.051622 344.022119 134.683403 
Q 343.934688 134.849013 343.445745 135.653555 
Q 342.958325 136.45775 342.064333 137.906831 
z
M 348.915518 133.654423 
Q 348.229785 133.809844 347.919868 134.2662 
Q 347.611475 134.72221 347.75688 135.363751 
Q 347.902631 136.006816 348.377497 136.285301 
Q 348.853887 136.563441 349.539619 136.40802 
Q 350.225352 136.252599 350.536447 135.794374 
Q 350.848721 135.334279 350.704006 134.695786 
Q 350.558601 134.054245 350.082212 133.776105 
Q 349.607345 133.49762 348.915518 133.654423 
z
M 347.861406 133.463966 
Q 347.208185 133.451805 346.766256 133.106576 
Q 346.325504 132.759478 346.187352 132.149938 
Q 345.994285 131.298106 346.488529 130.665393 
Q 346.984296 130.032335 348.040324 129.792987 
Q 349.102448 129.552257 349.819665 129.910392 
Q 350.536882 130.268528 350.729949 131.12036 
Q 350.868101 131.7299 350.618548 132.233455 
Q 350.370174 132.735141 349.7906 133.026715 
Q 350.522086 133.030749 351.016212 133.415416 
Q 351.511516 133.798214 351.665556 134.477851 
Q 351.900069 135.512545 351.394568 136.20869 
Q 350.888722 136.903311 349.712309 137.169945 
Q 348.537421 137.436233 347.779996 137.027932 
Q 347.023749 136.617762 346.789236 135.583067 
Q 346.635196 134.90343 346.918579 134.344143 
Q 347.203141 133.782987 347.861406 133.463966 
z
M 347.165053 132.02447 
Q 347.290081 132.576104 347.704583 132.807389 
Q 348.120609 133.03833 348.743864 132.897069 
Q 349.364071 132.7565 349.64292 132.368066 
Q 349.923293 131.979287 349.798266 131.427653 
Q 349.672893 130.874496 349.252295 130.644592 
Q 348.833221 130.414342 348.213015 130.554912 
Q 347.58976 130.696172 347.313958 131.083915 
Q 347.03968 131.471313 347.165053 132.02447 
z
" clip-path="url(#p1f74be1b42)" style="fill: #fdc527"/>
   </g>
   <g id="patch_3">
    <path d="M 43.78125 301.735725 
L 43.78125 35.623725 
" style="fill: none; stroke: #cccccc; stroke-width: 0.8; stroke-linejoin: miter; stroke-linecap: square"/>
   </g>
   <g id="patch_4">
    <path d="M 400.90125 301.735725 
L 400.90125 35.623725 
" style="fill: none; stroke: #cccccc; stroke-width: 0.8; stroke-linejoin: miter; stroke-linecap: square"/>
   </g>
   <g id="patch_5">
    <path d="M 43.78125 301.735725 
L 400.90125 301.735725 
" style="fill: none; stroke: #cccccc; stroke-width: 0.8; stroke-linejoin: miter; stroke-linecap: square"/>
   </g>
   <g id="patch_6">
    <path d="M 43.78125 35.623725 
L 400.90125 35.623725 
" style="fill: none; stroke: #cccccc; stroke-width: 0.8; stroke-linejoin: miter; stroke-linecap: square"/>
   </g>
   <g id="text_20">
    <!-- Block Size = 2M, Read-Write Type = Sequential Write-only -->
    <g style="fill: #262626; opacity: 0.75" transform="translate(77.210781 30.882918) scale(0.1 -0.1)">
     <defs>
      <path id="DejaVuSans-42" d="M 1259 2228 
L 1259 519 
L 2272 519 
Q 2781 519 3026 730 
Q 3272 941 3272 1375 
Q 3272 1813 3026 2020 
Q 2781 2228 2272 2228 
L 1259 2228 
z
M 1259 4147 
L 1259 2741 
L 2194 2741 
Q 2656 2741 2882 2914 
Q 3109 3088 3109 3444 
Q 3109 3797 2882 3972 
Q 2656 4147 2194 4147 
L 1259 4147 
z
M 628 4666 
L 2241 4666 
Q 2963 4666 3353 4366 
Q 3744 4066 3744 3513 
Q 3744 3084 3544 2831 
Q 3344 2578 2956 2516 
Q 3422 2416 3680 2098 
Q 3938 1781 3938 1306 
Q 3938 681 3513 340 
Q 3088 0 2303 0 
L 628 0 
L 628 4666 
z
" transform="scale(0.015625)"/>
      <path id="DejaVuSans-6c" d="M 603 4863 
L 1178 4863 
L 1178 0 
L 603 0 
L 603 4863 
z
" transform="scale(0.015625)"/>
      <path id="DejaVuSans-6b" d="M 581 4863 
L 1159 4863 
L 1159 1991 
L 2875 3500 
L 3609 3500 
L 1753 1863 
L 3688 0 
L 2938 0 
L 1159 1709 
L 1159 0 
L 581 0 
L 581 4863 
z
" transform="scale(0.015625)"/>
      <path id="DejaVuSans-53" d="M 3425 4513 
L 3425 3897 
Q 3066 4069 2747 4153 
Q 2428 4238 2131 4238 
Q 1616 4238 1336 4038 
Q 1056 3838 1056 3469 
Q 1056 3159 1242 3001 
Q 1428 2844 1947 2747 
L 2328 2669 
Q 3034 2534 3370 2195 
Q 3706 1856 3706 1288 
Q 3706 609 3251 259 
Q 2797 -91 1919 -91 
Q 1588 -91 1214 -16 
Q 841 59 441 206 
L 441 856 
Q 825 641 1194 531 
Q 1563 422 1919 422 
Q 2459 422 2753 634 
Q 3047 847 3047 1241 
Q 3047 1584 2836 1778 
Q 2625 1972 2144 2069 
L 1759 2144 
Q 1053 2284 737 2584 
Q 422 2884 422 3419 
Q 422 4038 858 4394 
Q 1294 4750 2059 4750 
Q 2388 4750 2728 4690 
Q 3069 4631 3425 4513 
z
" transform="scale(0.015625)"/>
      <path id="DejaVuSans-69" d="M 603 3500 
L 1178 3500 
L 1178 0 
L 603 0 
L 603 3500 
z
M 603 4863 
L 1178 4863 
L 1178 4134 
L 603 4134 
L 603 4863 
z
" transform="scale(0.015625)"/>
      <path id="DejaVuSans-7a" d="M 353 3500 
L 3084 3500 
L 3084 2975 
L 922 459 
L 3084 459 
L 3084 0 
L 275 0 
L 275 525 
L 2438 3041 
L 353 3041 
L 353 3500 
z
" transform="scale(0.015625)"/>
      <path id="DejaVuSans-3d" d="M 678 2906 
L 4684 2906 
L 4684 2381 
L 678 2381 
L 678 2906 
z
M 678 1631 
L 4684 1631 
L 4684 1100 
L 678 1100 
L 678 1631 
z
" transform="scale(0.015625)"/>
      <path id="DejaVuSans-2c" d="M 750 794 
L 1409 794 
L 1409 256 
L 897 -744 
L 494 -744 
L 750 256 
L 750 794 
z
" transform="scale(0.015625)"/>
      <path id="DejaVuSans-52" d="M 2841 2188 
Q 3044 2119 3236 1894 
Q 3428 1669 3622 1275 
L 4263 0 
L 3584 0 
L 2988 1197 
Q 2756 1666 2539 1819 
Q 2322 1972 1947 1972 
L 1259 1972 
L 1259 0 
L 628 0 
L 628 4666 
L 2053 4666 
Q 2853 4666 3247 4331 
Q 3641 3997 3641 3322 
Q 3641 2881 3436 2590 
Q 3231 2300 2841 2188 
z
M 1259 4147 
L 1259 2491 
L 2053 2491 
Q 2509 2491 2742 2702 
Q 2975 2913 2975 3322 
Q 2975 3731 2742 3939 
Q 2509 4147 2053 4147 
L 1259 4147 
z
" transform="scale(0.015625)"/>
      <path id="DejaVuSans-64" d="M 2906 2969 
L 2906 4863 
L 3481 4863 
L 3481 0 
L 2906 0 
L 2906 525 
Q 2725 213 2448 61 
Q 2172 -91 1784 -91 
Q 1150 -91 751 415 
Q 353 922 353 1747 
Q 353 2572 751 3078 
Q 1150 3584 1784 3584 
Q 2172 3584 2448 3432 
Q 2725 3281 2906 2969 
z
M 947 1747 
Q 947 1113 1208 752 
Q 1469 391 1925 391 
Q 2381 391 2643 752 
Q 2906 1113 2906 1747 
Q 2906 2381 2643 2742 
Q 2381 3103 1925 3103 
Q 1469 3103 1208 2742 
Q 947 2381 947 1747 
z
" transform="scale(0.015625)"/>
      <path id="DejaVuSans-2d" d="M 313 2009 
L 1997 2009 
L 1997 1497 
L 313 1497 
L 313 2009 
z
" transform="scale(0.015625)"/>
      <path id="DejaVuSans-57" d="M 213 4666 
L 850 4666 
L 1831 722 
L 2809 4666 
L 3519 4666 
L 4500 722 
L 5478 4666 
L 6119 4666 
L 4947 0 
L 4153 0 
L 3169 4050 
L 2175 0 
L 1381 0 
L 213 4666 
z
" transform="scale(0.015625)"/>
      <path id="DejaVuSans-54" d="M -19 4666 
L 3928 4666 
L 3928 4134 
L 2272 4134 
L 2272 0 
L 1638 0 
L 1638 4134 
L -19 4134 
L -19 4666 
z
" transform="scale(0.015625)"/>
      <path id="DejaVuSans-70" d="M 1159 525 
L 1159 -1331 
L 581 -1331 
L 581 3500 
L 1159 3500 
L 1159 2969 
Q 1341 3281 1617 3432 
Q 1894 3584 2278 3584 
Q 2916 3584 3314 3078 
Q 3713 2572 3713 1747 
Q 3713 922 3314 415 
Q 2916 -91 2278 -91 
Q 1894 -91 1617 61 
Q 1341 213 1159 525 
z
M 3116 1747 
Q 3116 2381 2855 2742 
Q 2594 3103 2138 3103 
Q 1681 3103 1420 2742 
Q 1159 2381 1159 1747 
Q 1159 1113 1420 752 
Q 1681 391 2138 391 
Q 2594 391 2855 752 
Q 3116 1113 3116 1747 
z
" transform="scale(0.015625)"/>
      <path id="DejaVuSans-71" d="M 947 1747 
Q 947 1113 1208 752 
Q 1469 391 1925 391 
Q 2381 391 2643 752 
Q 2906 1113 2906 1747 
Q 2906 2381 2643 2742 
Q 2381 3103 1925 3103 
Q 1469 3103 1208 2742 
Q 947 2381 947 1747 
z
M 2906 525 
Q 2725 213 2448 61 
Q 2172 -91 1784 -91 
Q 1150 -91 751 415 
Q 353 922 353 1747 
Q 353 2572 751 3078 
Q 1150 3584 1784 3584 
Q 2172 3584 2448 3432 
Q 2725 3281 2906 2969 
L 2906 3500 
L 3481 3500 
L 3481 -1331 
L 2906 -1331 
L 2906 525 
z
" transform="scale(0.015625)"/>
     </defs>
     <use xlink:href="#DejaVuSans-42"/>
     <use xlink:href="#DejaVuSans-6c" transform="translate(68.603516 0)"/>
     <use xlink:href="#DejaVuSans-6f" transform="translate(96.386719 0)"/>
     <use xlink:href="#DejaVuSans-63" transform="translate(157.568359 0)"/>
     <use xlink:href="#DejaVuSans-6b" transform="translate(212.548828 0)"/>
     <use xlink:href="#DejaVuSans-20" transform="translate(270.458984 0)"/>
     <use xlink:href="#DejaVuSans-53" transform="translate(302.246094 0)"/>
     <use xlink:href="#DejaVuSans-69" transform="translate(365.722656 0)"/>
     <use xlink:href="#DejaVuSans-7a" transform="translate(393.505859 0)"/>
     <use xlink:href="#DejaVuSans-65" transform="translate(445.996094 0)"/>
     <use xlink:href="#DejaVuSans-20" transform="translate(507.519531 0)"/>
     <use xlink:href="#DejaVuSans-3d" transform="translate(539.306641 0)"/>
     <use xlink:href="#DejaVuSans-20" transform="translate(623.095703 0)"/>
     <use xlink:href="#DejaVuSans-32" transform="translate(654.882812 0)"/>
     <use xlink:href="#DejaVuSans-4d" transform="translate(718.505859 0)"/>
     <use xlink:href="#DejaVuSans-2c" transform="translate(804.785156 0)"/>
     <use xlink:href="#DejaVuSans-20" transform="translate(836.572266 0)"/>
     <use xlink:href="#DejaVuSans-52" transform="translate(868.359375 0)"/>
     <use xlink:href="#DejaVuSans-65" transform="translate(933.341797 0)"/>
     <use xlink:href="#DejaVuSans-61" transform="translate(994.865234 0)"/>
     <use xlink:href="#DejaVuSans-64" transform="translate(1056.144531 0)"/>
     <use xlink:href="#DejaVuSans-2d" transform="translate(1119.621094 0)"/>
     <use xlink:href="#DejaVuSans-57" transform="translate(1151.705078 0)"/>
     <use xlink:href="#DejaVuSans-72" transform="translate(1246.082031 0)"/>
     <use xlink:href="#DejaVuSans-69" transform="translate(1287.195312 0)"/>
     <use xlink:href="#DejaVuSans-74" transform="translate(1314.978516 0)"/>
     <use xlink:href="#DejaVuSans-65" transform="translate(1354.1875 0)"/>
     <use xlink:href="#DejaVuSans-20" transform="translate(1415.710938 0)"/>
     <use xlink:href="#DejaVuSans-54" transform="translate(1447.498047 0)"/>
     <use xlink:href="#DejaVuSans-79" transform="translate(1492.957031 0)"/>
     <use xlink:href="#DejaVuSans-70" transform="translate(1552.136719 0)"/>
     <use xlink:href="#DejaVuSans-65" transform="translate(1615.613281 0)"/>
     <use xlink:href="#DejaVuSans-20" transform="translate(1677.136719 0)"/>
     <use xlink:href="#DejaVuSans-3d" transform="translate(1708.923828 0)"/>
     <use xlink:href="#DejaVuSans-20" transform="translate(1792.712891 0)"/>
     <use xlink:href="#DejaVuSans-53" transform="translate(1824.5 0)"/>
     <use xlink:href="#DejaVuSans-65" transform="translate(1887.976562 0)"/>
     <use xlink:href="#DejaVuSans-71" transform="translate(1949.5 0)"/>
     <use xlink:href="#DejaVuSans-75" transform="translate(2012.976562 0)"/>
     <use xlink:href="#DejaVuSans-65" transform="translate(2076.355469 0)"/>
     <use xlink:href="#DejaVuSans-6e" transform="translate(2137.878906 0)"/>
     <use xlink:href="#DejaVuSans-74" transform="translate(2201.257812 0)"/>
     <use xlink:href="#DejaVuSans-69" transform="translate(2240.466797 0)"/>
     <use xlink:href="#DejaVuSans-61" transform="translate(2268.25 0)"/>
     <use xlink:href="#DejaVuSans-6c" transform="translate(2329.529297 0)"/>
     <use xlink:href="#DejaVuSans-20" transform="translate(2357.3125 0)"/>
     <use xlink:href="#DejaVuSans-57" transform="translate(2389.099609 0)"/>
     <use xlink:href="#DejaVuSans-72" transform="translate(2483.476562 0)"/>
     <use xlink:href="#DejaVuSans-69" transform="translate(2524.589844 0)"/>
     <use xlink:href="#DejaVuSans-74" transform="translate(2552.373047 0)"/>
     <use xlink:href="#DejaVuSans-65" transform="translate(2591.582031 0)"/>
     <use xlink:href="#DejaVuSans-2d" transform="translate(2653.105469 0)"/>
     <use xlink:href="#DejaVuSans-6f" transform="translate(2691.064453 0)"/>
     <use xlink:href="#DejaVuSans-6e" transform="translate(2752.246094 0)"/>
     <use xlink:href="#DejaVuSans-6c" transform="translate(2815.625 0)"/>
     <use xlink:href="#DejaVuSans-79" transform="translate(2843.408203 0)"/>
    </g>
   </g>
   <g id="text_21">
    <!-- Mean Latency vs Number of Jobs -->
    <g style="fill: #262626" transform="translate(111.685313 16.318125) scale(0.12 -0.12)">
     <defs>
      <path id="DejaVuSans-Bold-4d" d="M 588 4666 
L 2119 4666 
L 3181 2169 
L 4250 4666 
L 5778 4666 
L 5778 0 
L 4641 0 
L 4641 3413 
L 3566 897 
L 2803 897 
L 1728 3413 
L 1728 0 
L 588 0 
L 588 4666 
z
" transform="scale(0.015625)"/>
      <path id="DejaVuSans-Bold-65" d="M 4031 1759 
L 4031 1441 
L 1416 1441 
Q 1456 1047 1700 850 
Q 1944 653 2381 653 
Q 2734 653 3104 758 
Q 3475 863 3866 1075 
L 3866 213 
Q 3469 63 3072 -14 
Q 2675 -91 2278 -91 
Q 1328 -91 801 392 
Q 275 875 275 1747 
Q 275 2603 792 3093 
Q 1309 3584 2216 3584 
Q 3041 3584 3536 3087 
Q 4031 2591 4031 1759 
z
M 2881 2131 
Q 2881 2450 2695 2645 
Q 2509 2841 2209 2841 
Q 1884 2841 1681 2658 
Q 1478 2475 1428 2131 
L 2881 2131 
z
" transform="scale(0.015625)"/>
      <path id="DejaVuSans-Bold-61" d="M 2106 1575 
Q 1756 1575 1579 1456 
Q 1403 1338 1403 1106 
Q 1403 894 1545 773 
Q 1688 653 1941 653 
Q 2256 653 2472 879 
Q 2688 1106 2688 1447 
L 2688 1575 
L 2106 1575 
z
M 3816 1997 
L 3816 0 
L 2688 0 
L 2688 519 
Q 2463 200 2181 54 
Q 1900 -91 1497 -91 
Q 953 -91 614 226 
Q 275 544 275 1050 
Q 275 1666 698 1953 
Q 1122 2241 2028 2241 
L 2688 2241 
L 2688 2328 
Q 2688 2594 2478 2717 
Q 2269 2841 1825 2841 
Q 1466 2841 1156 2769 
Q 847 2697 581 2553 
L 581 3406 
Q 941 3494 1303 3539 
Q 1666 3584 2028 3584 
Q 2975 3584 3395 3211 
Q 3816 2838 3816 1997 
z
" transform="scale(0.015625)"/>
      <path id="DejaVuSans-Bold-6e" d="M 4056 2131 
L 4056 0 
L 2931 0 
L 2931 347 
L 2931 1631 
Q 2931 2084 2911 2256 
Q 2891 2428 2841 2509 
Q 2775 2619 2662 2680 
Q 2550 2741 2406 2741 
Q 2056 2741 1856 2470 
Q 1656 2200 1656 1722 
L 1656 0 
L 538 0 
L 538 3500 
L 1656 3500 
L 1656 2988 
Q 1909 3294 2193 3439 
Q 2478 3584 2822 3584 
Q 3428 3584 3742 3212 
Q 4056 2841 4056 2131 
z
" transform="scale(0.015625)"/>
      <path id="DejaVuSans-Bold-20" transform="scale(0.015625)"/>
      <path id="DejaVuSans-Bold-4c" d="M 588 4666 
L 1791 4666 
L 1791 909 
L 3903 909 
L 3903 0 
L 588 0 
L 588 4666 
z
" transform="scale(0.015625)"/>
      <path id="DejaVuSans-Bold-74" d="M 1759 4494 
L 1759 3500 
L 2913 3500 
L 2913 2700 
L 1759 2700 
L 1759 1216 
Q 1759 972 1856 886 
Q 1953 800 2241 800 
L 2816 800 
L 2816 0 
L 1856 0 
Q 1194 0 917 276 
Q 641 553 641 1216 
L 641 2700 
L 84 2700 
L 84 3500 
L 641 3500 
L 641 4494 
L 1759 4494 
z
" transform="scale(0.015625)"/>
      <path id="DejaVuSans-Bold-63" d="M 3366 3391 
L 3366 2478 
Q 3138 2634 2908 2709 
Q 2678 2784 2431 2784 
Q 1963 2784 1702 2511 
Q 1441 2238 1441 1747 
Q 1441 1256 1702 982 
Q 1963 709 2431 709 
Q 2694 709 2930 787 
Q 3166 866 3366 1019 
L 3366 103 
Q 3103 6 2833 -42 
Q 2563 -91 2291 -91 
Q 1344 -91 809 395 
Q 275 881 275 1747 
Q 275 2613 809 3098 
Q 1344 3584 2291 3584 
Q 2566 3584 2833 3536 
Q 3100 3488 3366 3391 
z
" transform="scale(0.015625)"/>
      <path id="DejaVuSans-Bold-79" d="M 78 3500 
L 1197 3500 
L 2138 1125 
L 2938 3500 
L 4056 3500 
L 2584 -331 
Q 2363 -916 2067 -1148 
Q 1772 -1381 1288 -1381 
L 641 -1381 
L 641 -647 
L 991 -647 
Q 1275 -647 1404 -556 
Q 1534 -466 1606 -231 
L 1638 -134 
L 78 3500 
z
" transform="scale(0.015625)"/>
      <path id="DejaVuSans-Bold-76" d="M 97 3500 
L 1216 3500 
L 2088 1081 
L 2956 3500 
L 4078 3500 
L 2700 0 
L 1472 0 
L 97 3500 
z
" transform="scale(0.015625)"/>
      <path id="DejaVuSans-Bold-73" d="M 3272 3391 
L 3272 2541 
Q 2913 2691 2578 2766 
Q 2244 2841 1947 2841 
Q 1628 2841 1473 2761 
Q 1319 2681 1319 2516 
Q 1319 2381 1436 2309 
Q 1553 2238 1856 2203 
L 2053 2175 
Q 2913 2066 3209 1816 
Q 3506 1566 3506 1031 
Q 3506 472 3093 190 
Q 2681 -91 1863 -91 
Q 1516 -91 1145 -36 
Q 775 19 384 128 
L 384 978 
Q 719 816 1070 734 
Q 1422 653 1784 653 
Q 2113 653 2278 743 
Q 2444 834 2444 1013 
Q 2444 1163 2330 1236 
Q 2216 1309 1875 1350 
L 1678 1375 
Q 931 1469 631 1722 
Q 331 1975 331 2491 
Q 331 3047 712 3315 
Q 1094 3584 1881 3584 
Q 2191 3584 2531 3537 
Q 2872 3491 3272 3391 
z
" transform="scale(0.015625)"/>
      <path id="DejaVuSans-Bold-4e" d="M 588 4666 
L 1931 4666 
L 3628 1466 
L 3628 4666 
L 4769 4666 
L 4769 0 
L 3425 0 
L 1728 3200 
L 1728 0 
L 588 0 
L 588 4666 
z
" transform="scale(0.015625)"/>
      <path id="DejaVuSans-Bold-75" d="M 500 1363 
L 500 3500 
L 1625 3500 
L 1625 3150 
Q 1625 2866 1622 2436 
Q 1619 2006 1619 1863 
Q 1619 1441 1641 1255 
Q 1663 1069 1716 984 
Q 1784 875 1895 815 
Q 2006 756 2150 756 
Q 2500 756 2700 1025 
Q 2900 1294 2900 1772 
L 2900 3500 
L 4019 3500 
L 4019 0 
L 2900 0 
L 2900 506 
Q 2647 200 2364 54 
Q 2081 -91 1741 -91 
Q 1134 -91 817 281 
Q 500 653 500 1363 
z
" transform="scale(0.015625)"/>
      <path id="DejaVuSans-Bold-6d" d="M 3781 2919 
Q 3994 3244 4286 3414 
Q 4578 3584 4928 3584 
Q 5531 3584 5847 3212 
Q 6163 2841 6163 2131 
L 6163 0 
L 5038 0 
L 5038 1825 
Q 5041 1866 5042 1909 
Q 5044 1953 5044 2034 
Q 5044 2406 4934 2573 
Q 4825 2741 4581 2741 
Q 4263 2741 4089 2478 
Q 3916 2216 3909 1719 
L 3909 0 
L 2784 0 
L 2784 1825 
Q 2784 2406 2684 2573 
Q 2584 2741 2328 2741 
Q 2006 2741 1831 2477 
Q 1656 2213 1656 1722 
L 1656 0 
L 531 0 
L 531 3500 
L 1656 3500 
L 1656 2988 
Q 1863 3284 2130 3434 
Q 2397 3584 2719 3584 
Q 3081 3584 3359 3409 
Q 3638 3234 3781 2919 
z
" transform="scale(0.015625)"/>
      <path id="DejaVuSans-Bold-62" d="M 2400 722 
Q 2759 722 2948 984 
Q 3138 1247 3138 1747 
Q 3138 2247 2948 2509 
Q 2759 2772 2400 2772 
Q 2041 2772 1848 2508 
Q 1656 2244 1656 1747 
Q 1656 1250 1848 986 
Q 2041 722 2400 722 
z
M 1656 2988 
Q 1888 3294 2169 3439 
Q 2450 3584 2816 3584 
Q 3463 3584 3878 3070 
Q 4294 2556 4294 1747 
Q 4294 938 3878 423 
Q 3463 -91 2816 -91 
Q 2450 -91 2169 54 
Q 1888 200 1656 506 
L 1656 0 
L 538 0 
L 538 4863 
L 1656 4863 
L 1656 2988 
z
" transform="scale(0.015625)"/>
      <path id="DejaVuSans-Bold-72" d="M 3138 2547 
Q 2991 2616 2845 2648 
Q 2700 2681 2553 2681 
Q 2122 2681 1889 2404 
Q 1656 2128 1656 1613 
L 1656 0 
L 538 0 
L 538 3500 
L 1656 3500 
L 1656 2925 
Q 1872 3269 2151 3426 
Q 2431 3584 2822 3584 
Q 2878 3584 2943 3579 
Q 3009 3575 3134 3559 
L 3138 2547 
z
" transform="scale(0.015625)"/>
      <path id="DejaVuSans-Bold-6f" d="M 2203 2784 
Q 1831 2784 1636 2517 
Q 1441 2250 1441 1747 
Q 1441 1244 1636 976 
Q 1831 709 2203 709 
Q 2569 709 2762 976 
Q 2956 1244 2956 1747 
Q 2956 2250 2762 2517 
Q 2569 2784 2203 2784 
z
M 2203 3584 
Q 3106 3584 3614 3096 
Q 4122 2609 4122 1747 
Q 4122 884 3614 396 
Q 3106 -91 2203 -91 
Q 1297 -91 786 396 
Q 275 884 275 1747 
Q 275 2609 786 3096 
Q 1297 3584 2203 3584 
z
" transform="scale(0.015625)"/>
      <path id="DejaVuSans-Bold-66" d="M 2841 4863 
L 2841 4128 
L 2222 4128 
Q 1984 4128 1890 4042 
Q 1797 3956 1797 3744 
L 1797 3500 
L 2753 3500 
L 2753 2700 
L 1797 2700 
L 1797 0 
L 678 0 
L 678 2700 
L 122 2700 
L 122 3500 
L 678 3500 
L 678 3744 
Q 678 4316 997 4589 
Q 1316 4863 1984 4863 
L 2841 4863 
z
" transform="scale(0.015625)"/>
      <path id="DejaVuSans-Bold-4a" d="M 588 4666 
L 1791 4666 
L 1791 453 
Q 1791 -419 1317 -850 
Q 844 -1281 -116 -1281 
L -359 -1281 
L -359 -372 
L -172 -372 
Q 203 -372 395 -162 
Q 588 47 588 453 
L 588 4666 
z
" transform="scale(0.015625)"/>
     </defs>
     <use xlink:href="#DejaVuSans-Bold-4d"/>
     <use xlink:href="#DejaVuSans-Bold-65" transform="translate(99.511719 0)"/>
     <use xlink:href="#DejaVuSans-Bold-61" transform="translate(167.333984 0)"/>
     <use xlink:href="#DejaVuSans-Bold-6e" transform="translate(234.814453 0)"/>
     <use xlink:href="#DejaVuSans-Bold-20" transform="translate(306.005859 0)"/>
     <use xlink:href="#DejaVuSans-Bold-4c" transform="translate(340.820312 0)"/>
     <use xlink:href="#DejaVuSans-Bold-61" transform="translate(404.541016 0)"/>
     <use xlink:href="#DejaVuSans-Bold-74" transform="translate(472.021484 0)"/>
     <use xlink:href="#DejaVuSans-Bold-65" transform="translate(519.824219 0)"/>
     <use xlink:href="#DejaVuSans-Bold-6e" transform="translate(587.646484 0)"/>
     <use xlink:href="#DejaVuSans-Bold-63" transform="translate(658.837891 0)"/>
     <use xlink:href="#DejaVuSans-Bold-79" transform="translate(718.115234 0)"/>
     <use xlink:href="#DejaVuSans-Bold-20" transform="translate(783.300781 0)"/>
     <use xlink:href="#DejaVuSans-Bold-76" transform="translate(818.115234 0)"/>
     <use xlink:href="#DejaVuSans-Bold-73" transform="translate(883.300781 0)"/>
     <use xlink:href="#DejaVuSans-Bold-20" transform="translate(942.822266 0)"/>
     <use xlink:href="#DejaVuSans-Bold-4e" transform="translate(977.636719 0)"/>
     <use xlink:href="#DejaVuSans-Bold-75" transform="translate(1061.328125 0)"/>
     <use xlink:href="#DejaVuSans-Bold-6d" transform="translate(1132.519531 0)"/>
     <use xlink:href="#DejaVuSans-Bold-62" transform="translate(1236.71875 0)"/>
     <use xlink:href="#DejaVuSans-Bold-65" transform="translate(1308.300781 0)"/>
     <use xlink:href="#DejaVuSans-Bold-72" transform="translate(1376.123047 0)"/>
     <use xlink:href="#DejaVuSans-Bold-20" transform="translate(1425.439453 0)"/>
     <use xlink:href="#DejaVuSans-Bold-6f" transform="translate(1460.253906 0)"/>
     <use xlink:href="#DejaVuSans-Bold-66" transform="translate(1528.955078 0)"/>
     <use xlink:href="#DejaVuSans-Bold-20" transform="translate(1572.460938 0)"/>
     <use xlink:href="#DejaVuSans-Bold-4a" transform="translate(1607.275391 0)"/>
     <use xlink:href="#DejaVuSans-Bold-6f" transform="translate(1644.482422 0)"/>
     <use xlink:href="#DejaVuSans-Bold-62" transform="translate(1713.183594 0)"/>
     <use xlink:href="#DejaVuSans-Bold-73" transform="translate(1784.765625 0)"/>
    </g>
   </g>
   <g id="legend_1">
    <g id="text_22">
     <!-- IO Depth -->
     <g style="fill: #262626" transform="translate(435.407813 120.065663) scale(0.1 -0.1)">
      <defs>
       <path id="DejaVuSans-49" d="M 628 4666 
L 1259 4666 
L 1259 0 
L 628 0 
L 628 4666 
z
" transform="scale(0.015625)"/>
       <path id="DejaVuSans-4f" d="M 2522 4238 
Q 1834 4238 1429 3725 
Q 1025 3213 1025 2328 
Q 1025 1447 1429 934 
Q 1834 422 2522 422 
Q 3209 422 3611 934 
Q 4013 1447 4013 2328 
Q 4013 3213 3611 3725 
Q 3209 4238 2522 4238 
z
M 2522 4750 
Q 3503 4750 4090 4092 
Q 4678 3434 4678 2328 
Q 4678 1225 4090 567 
Q 3503 -91 2522 -91 
Q 1538 -91 948 565 
Q 359 1222 359 2328 
Q 359 3434 948 4092 
Q 1538 4750 2522 4750 
z
" transform="scale(0.015625)"/>
       <path id="DejaVuSans-44" d="M 1259 4147 
L 1259 519 
L 2022 519 
Q 2988 519 3436 956 
Q 3884 1394 3884 2338 
Q 3884 3275 3436 3711 
Q 2988 4147 2022 4147 
L 1259 4147 
z
M 628 4666 
L 1925 4666 
Q 3281 4666 3915 4102 
Q 4550 3538 4550 2338 
Q 4550 1131 3912 565 
Q 3275 0 1925 0 
L 628 0 
L 628 4666 
z
" transform="scale(0.015625)"/>
       <path id="DejaVuSans-68" d="M 3513 2113 
L 3513 0 
L 2938 0 
L 2938 2094 
Q 2938 2591 2744 2837 
Q 2550 3084 2163 3084 
Q 1697 3084 1428 2787 
Q 1159 2491 1159 1978 
L 1159 0 
L 581 0 
L 581 4863 
L 1159 4863 
L 1159 2956 
Q 1366 3272 1645 3428 
Q 1925 3584 2291 3584 
Q 2894 3584 3203 3211 
Q 3513 2838 3513 2113 
z
" transform="scale(0.015625)"/>
      </defs>
      <use xlink:href="#DejaVuSans-49"/>
      <use xlink:href="#DejaVuSans-4f" transform="translate(29.492188 0)"/>
      <use xlink:href="#DejaVuSans-20" transform="translate(108.203125 0)"/>
      <use xlink:href="#DejaVuSans-44" transform="translate(139.990234 0)"/>
      <use xlink:href="#DejaVuSans-65" transform="translate(216.992188 0)"/>
      <use xlink:href="#DejaVuSans-70" transform="translate(278.515625 0)"/>
      <use xlink:href="#DejaVuSans-74" transform="translate(341.992188 0)"/>
      <use xlink:href="#DejaVuSans-68" transform="translate(381.201172 0)"/>
     </g>
    </g>
    <g id="line2d_24">
     <path d="M 434.09375 131.243787 
L 444.09375 131.243787 
L 454.09375 131.243787 
" style="fill: none; stroke: #4c02a1; stroke-width: 1.5; stroke-linecap: round"/>
    </g>
    <g id="text_23">
     <!-- 1 -->
     <g style="fill: #262626" transform="translate(462.09375 134.743787) scale(0.1 -0.1)">
      <use xlink:href="#DejaVuSans-31"/>
     </g>
    </g>
    <g id="line2d_25">
     <path d="M 434.09375 145.921913 
L 444.09375 145.921913 
L 454.09375 145.921913 
" style="fill: none; stroke: #7e03a8; stroke-width: 1.5; stroke-linecap: round"/>
    </g>
    <g id="text_24">
     <!-- 4 -->
     <g style="fill: #262626" transform="translate(462.09375 149.421913) scale(0.1 -0.1)">
      <use xlink:href="#DejaVuSans-34"/>
     </g>
    </g>
    <g id="line2d_26">
     <path d="M 434.09375 160.600037 
L 444.09375 160.600037 
L 454.09375 160.600037 
" style="fill: none; stroke: #aa2395; stroke-width: 1.5; stroke-linecap: round"/>
    </g>
    <g id="text_25">
     <!-- 8 -->
     <g style="fill: #262626" transform="translate(462.09375 164.100037) scale(0.1 -0.1)">
      <use xlink:href="#DejaVuSans-38"/>
     </g>
    </g>
    <g id="line2d_27">
     <path d="M 434.09375 175.278163 
L 444.09375 175.278163 
L 454.09375 175.278163 
" style="fill: none; stroke: #cc4778; stroke-width: 1.5; stroke-linecap: round"/>
    </g>
    <g id="text_26">
     <!-- 16 -->
     <g style="fill: #262626" transform="translate(462.09375 178.778163) scale(0.1 -0.1)">
      <use xlink:href="#DejaVuSans-31"/>
      <use xlink:href="#DejaVuSans-36" transform="translate(63.623047 0)"/>
     </g>
    </g>
    <g id="line2d_28">
     <path d="M 434.09375 189.956288 
L 444.09375 189.956288 
L 454.09375 189.956288 
" style="fill: none; stroke: #e66c5c; stroke-width: 1.5; stroke-linecap: round"/>
    </g>
    <g id="text_27">
     <!-- 32 -->
     <g style="fill: #262626" transform="translate(462.09375 193.456288) scale(0.1 -0.1)">
      <use xlink:href="#DejaVuSans-33"/>
      <use xlink:href="#DejaVuSans-32" transform="translate(63.623047 0)"/>
     </g>
    </g>
    <g id="line2d_29">
     <path d="M 434.09375 204.634412 
L 444.09375 204.634412 
L 454.09375 204.634412 
" style="fill: none; stroke: #f89540; stroke-width: 1.5; stroke-linecap: round"/>
    </g>
    <g id="text_28">
     <!-- 64 -->
     <g style="fill: #262626" transform="translate(462.09375 208.134412) scale(0.1 -0.1)">
      <use xlink:href="#DejaVuSans-36"/>
      <use xlink:href="#DejaVuSans-34" transform="translate(63.623047 0)"/>
     </g>
    </g>
    <g id="line2d_30">
     <path d="M 434.09375 219.312537 
L 444.09375 219.312537 
L 454.09375 219.312537 
" style="fill: none; stroke: #fdc527; stroke-width: 1.5; stroke-linecap: round"/>
    </g>
    <g id="text_29">
     <!-- 128 -->
     <g style="fill: #262626" transform="translate(462.09375 222.812537) scale(0.1 -0.1)">
      <use xlink:href="#DejaVuSans-31"/>
      <use xlink:href="#DejaVuSans-32" transform="translate(63.623047 0)"/>
      <use xlink:href="#DejaVuSans-38" transform="translate(127.246094 0)"/>
     </g>
    </g>
   </g>
  </g>
 </g>
 <defs>
  <clipPath id="p1f74be1b42">
   <rect x="43.78125" y="35.623725" width="357.12" height="266.112"/>
  </clipPath>
 </defs>
</svg>
