<?xml version="1.0" encoding="utf-8" standalone="no"?>
<!DOCTYPE svg PUBLIC "-//W3C//DTD SVG 1.1//EN"
  "http://www.w3.org/Graphics/SVG/1.1/DTD/svg11.dtd">
<svg xmlns:xlink="http://www.w3.org/1999/xlink" width="498.74375pt" height="339.291975pt" viewBox="0 0 498.74375 339.291975" xmlns="http://www.w3.org/2000/svg" version="1.1">
 <metadata>
  <rdf:RDF xmlns:dc="http://purl.org/dc/elements/1.1/" xmlns:cc="http://creativecommons.org/ns#" xmlns:rdf="http://www.w3.org/1999/02/22-rdf-syntax-ns#">
   <cc:Work>
    <dc:type rdf:resource="http://purl.org/dc/dcmitype/StillImage"/>
    <dc:date>2025-09-11T11:47:33.209327</dc:date>
    <dc:format>image/svg+xml</dc:format>
    <dc:creator>
     <cc:Agent>
      <dc:title>Matplotlib v3.10.6, https://matplotlib.org/</dc:title>
     </cc:Agent>
    </dc:creator>
   </cc:Work>
  </rdf:RDF>
 </metadata>
 <defs>
  <style type="text/css">*{stroke-linejoin: round; stroke-linecap: butt}</style>
 </defs>
 <g id="figure_1">
  <g id="patch_1">
   <path d="M 0 339.291975 
L 498.74375 339.291975 
L 498.74375 0 
L 0 0 
z
" style="fill: #ffffff"/>
  </g>
  <g id="axes_1">
   <g id="patch_2">
    <path d="M 50.14375 301.735725 
L 407.26375 301.735725 
L 407.26375 35.623725 
L 50.14375 35.623725 
z
" style="fill: #ffffff"/>
   </g>
   <g id="matplotlib.axis_1">
    <g id="xtick_1">
     <g id="line2d_1">
      <path d="M 66.376477 301.735725 
L 66.376477 35.623725 
" clip-path="url(#pad0f2122e8)" style="fill: none; stroke: #cccccc; stroke-width: 0.8; stroke-linecap: round"/>
     </g>
     <g id="text_1">
      <!-- 16 -->
      <g style="fill: #262626" transform="translate(60.013977 316.334162) scale(0.1 -0.1)">
       <defs>
        <path id="DejaVuSans-31" d="M 794 531 
L 1825 531 
L 1825 4091 
L 703 3866 
L 703 4441 
L 1819 4666 
L 2450 4666 
L 2450 531 
L 3481 531 
L 3481 0 
L 794 0 
L 794 531 
z
" transform="scale(0.015625)"/>
        <path id="DejaVuSans-36" d="M 2113 2584 
Q 1688 2584 1439 2293 
Q 1191 2003 1191 1497 
Q 1191 994 1439 701 
Q 1688 409 2113 409 
Q 2538 409 2786 701 
Q 3034 994 3034 1497 
Q 3034 2003 2786 2293 
Q 2538 2584 2113 2584 
z
M 3366 4563 
L 3366 3988 
Q 3128 4100 2886 4159 
Q 2644 4219 2406 4219 
Q 1781 4219 1451 3797 
Q 1122 3375 1075 2522 
Q 1259 2794 1537 2939 
Q 1816 3084 2150 3084 
Q 2853 3084 3261 2657 
Q 3669 2231 3669 1497 
Q 3669 778 3244 343 
Q 2819 -91 2113 -91 
Q 1303 -91 875 529 
Q 447 1150 447 2328 
Q 447 3434 972 4092 
Q 1497 4750 2381 4750 
Q 2619 4750 2861 4703 
Q 3103 4656 3366 4563 
z
" transform="scale(0.015625)"/>
       </defs>
       <use xlink:href="#DejaVuSans-31"/>
       <use xlink:href="#DejaVuSans-36" transform="translate(63.623047 0)"/>
      </g>
     </g>
    </g>
    <g id="xtick_2">
     <g id="line2d_2">
      <path d="M 391.031023 301.735725 
L 391.031023 35.623725 
" clip-path="url(#pad0f2122e8)" style="fill: none; stroke: #cccccc; stroke-width: 0.8; stroke-linecap: round"/>
     </g>
     <g id="text_2">
      <!-- 128 -->
      <g style="fill: #262626" transform="translate(381.487273 316.334162) scale(0.1 -0.1)">
       <defs>
        <path id="DejaVuSans-32" d="M 1228 531 
L 3431 531 
L 3431 0 
L 469 0 
L 469 531 
Q 828 903 1448 1529 
Q 2069 2156 2228 2338 
Q 2531 2678 2651 2914 
Q 2772 3150 2772 3378 
Q 2772 3750 2511 3984 
Q 2250 4219 1831 4219 
Q 1534 4219 1204 4116 
Q 875 4013 500 3803 
L 500 4441 
Q 881 4594 1212 4672 
Q 1544 4750 1819 4750 
Q 2544 4750 2975 4387 
Q 3406 4025 3406 3419 
Q 3406 3131 3298 2873 
Q 3191 2616 2906 2266 
Q 2828 2175 2409 1742 
Q 1991 1309 1228 531 
z
" transform="scale(0.015625)"/>
        <path id="DejaVuSans-38" d="M 2034 2216 
Q 1584 2216 1326 1975 
Q 1069 1734 1069 1313 
Q 1069 891 1326 650 
Q 1584 409 2034 409 
Q 2484 409 2743 651 
Q 3003 894 3003 1313 
Q 3003 1734 2745 1975 
Q 2488 2216 2034 2216 
z
M 1403 2484 
Q 997 2584 770 2862 
Q 544 3141 544 3541 
Q 544 4100 942 4425 
Q 1341 4750 2034 4750 
Q 2731 4750 3128 4425 
Q 3525 4100 3525 3541 
Q 3525 3141 3298 2862 
Q 3072 2584 2669 2484 
Q 3125 2378 3379 2068 
Q 3634 1759 3634 1313 
Q 3634 634 3220 271 
Q 2806 -91 2034 -91 
Q 1263 -91 848 271 
Q 434 634 434 1313 
Q 434 1759 690 2068 
Q 947 2378 1403 2484 
z
M 1172 3481 
Q 1172 3119 1398 2916 
Q 1625 2713 2034 2713 
Q 2441 2713 2670 2916 
Q 2900 3119 2900 3481 
Q 2900 3844 2670 4047 
Q 2441 4250 2034 4250 
Q 1625 4250 1398 4047 
Q 1172 3844 1172 3481 
z
" transform="scale(0.015625)"/>
       </defs>
       <use xlink:href="#DejaVuSans-31"/>
       <use xlink:href="#DejaVuSans-32" transform="translate(63.623047 0)"/>
       <use xlink:href="#DejaVuSans-38" transform="translate(127.246094 0)"/>
      </g>
     </g>
    </g>
    <g id="xtick_3">
     <g id="line2d_3">
      <path d="M 112.755698 301.735725 
L 112.755698 35.623725 
" clip-path="url(#pad0f2122e8)" style="fill: none; stroke: #cccccc; stroke-width: 0.8; stroke-linecap: round"/>
     </g>
     <g id="text_3">
      <!-- 32 -->
      <g style="fill: #262626" transform="translate(106.393198 316.334162) scale(0.1 -0.1)">
       <defs>
        <path id="DejaVuSans-33" d="M 2597 2516 
Q 3050 2419 3304 2112 
Q 3559 1806 3559 1356 
Q 3559 666 3084 287 
Q 2609 -91 1734 -91 
Q 1441 -91 1130 -33 
Q 819 25 488 141 
L 488 750 
Q 750 597 1062 519 
Q 1375 441 1716 441 
Q 2309 441 2620 675 
Q 2931 909 2931 1356 
Q 2931 1769 2642 2001 
Q 2353 2234 1838 2234 
L 1294 2234 
L 1294 2753 
L 1863 2753 
Q 2328 2753 2575 2939 
Q 2822 3125 2822 3475 
Q 2822 3834 2567 4026 
Q 2313 4219 1838 4219 
Q 1578 4219 1281 4162 
Q 984 4106 628 3988 
L 628 4550 
Q 988 4650 1302 4700 
Q 1616 4750 1894 4750 
Q 2613 4750 3031 4423 
Q 3450 4097 3450 3541 
Q 3450 3153 3228 2886 
Q 3006 2619 2597 2516 
z
" transform="scale(0.015625)"/>
       </defs>
       <use xlink:href="#DejaVuSans-33"/>
       <use xlink:href="#DejaVuSans-32" transform="translate(63.623047 0)"/>
      </g>
     </g>
    </g>
    <g id="xtick_4">
     <g id="line2d_4">
      <path d="M 205.51414 301.735725 
L 205.51414 35.623725 
" clip-path="url(#pad0f2122e8)" style="fill: none; stroke: #cccccc; stroke-width: 0.8; stroke-linecap: round"/>
     </g>
     <g id="text_4">
      <!-- 64 -->
      <g style="fill: #262626" transform="translate(199.15164 316.334162) scale(0.1 -0.1)">
       <defs>
        <path id="DejaVuSans-34" d="M 2419 4116 
L 825 1625 
L 2419 1625 
L 2419 4116 
z
M 2253 4666 
L 3047 4666 
L 3047 1625 
L 3713 1625 
L 3713 1100 
L 3047 1100 
L 3047 0 
L 2419 0 
L 2419 1100 
L 313 1100 
L 313 1709 
L 2253 4666 
z
" transform="scale(0.015625)"/>
       </defs>
       <use xlink:href="#DejaVuSans-36"/>
       <use xlink:href="#DejaVuSans-34" transform="translate(63.623047 0)"/>
      </g>
     </g>
    </g>
    <g id="text_5">
     <!-- Number of Jobs -->
     <g style="fill: #262626" transform="translate(190.306875 330.012287) scale(0.1 -0.1)">
      <defs>
       <path id="DejaVuSans-4e" d="M 628 4666 
L 1478 4666 
L 3547 763 
L 3547 4666 
L 4159 4666 
L 4159 0 
L 3309 0 
L 1241 3903 
L 1241 0 
L 628 0 
L 628 4666 
z
" transform="scale(0.015625)"/>
       <path id="DejaVuSans-75" d="M 544 1381 
L 544 3500 
L 1119 3500 
L 1119 1403 
Q 1119 906 1312 657 
Q 1506 409 1894 409 
Q 2359 409 2629 706 
Q 2900 1003 2900 1516 
L 2900 3500 
L 3475 3500 
L 3475 0 
L 2900 0 
L 2900 538 
Q 2691 219 2414 64 
Q 2138 -91 1772 -91 
Q 1169 -91 856 284 
Q 544 659 544 1381 
z
M 1991 3584 
L 1991 3584 
z
" transform="scale(0.015625)"/>
       <path id="DejaVuSans-6d" d="M 3328 2828 
Q 3544 3216 3844 3400 
Q 4144 3584 4550 3584 
Q 5097 3584 5394 3201 
Q 5691 2819 5691 2113 
L 5691 0 
L 5113 0 
L 5113 2094 
Q 5113 2597 4934 2840 
Q 4756 3084 4391 3084 
Q 3944 3084 3684 2787 
Q 3425 2491 3425 1978 
L 3425 0 
L 2847 0 
L 2847 2094 
Q 2847 2600 2669 2842 
Q 2491 3084 2119 3084 
Q 1678 3084 1418 2786 
Q 1159 2488 1159 1978 
L 1159 0 
L 581 0 
L 581 3500 
L 1159 3500 
L 1159 2956 
Q 1356 3278 1631 3431 
Q 1906 3584 2284 3584 
Q 2666 3584 2933 3390 
Q 3200 3197 3328 2828 
z
" transform="scale(0.015625)"/>
       <path id="DejaVuSans-62" d="M 3116 1747 
Q 3116 2381 2855 2742 
Q 2594 3103 2138 3103 
Q 1681 3103 1420 2742 
Q 1159 2381 1159 1747 
Q 1159 1113 1420 752 
Q 1681 391 2138 391 
Q 2594 391 2855 752 
Q 3116 1113 3116 1747 
z
M 1159 2969 
Q 1341 3281 1617 3432 
Q 1894 3584 2278 3584 
Q 2916 3584 3314 3078 
Q 3713 2572 3713 1747 
Q 3713 922 3314 415 
Q 2916 -91 2278 -91 
Q 1894 -91 1617 61 
Q 1341 213 1159 525 
L 1159 0 
L 581 0 
L 581 4863 
L 1159 4863 
L 1159 2969 
z
" transform="scale(0.015625)"/>
       <path id="DejaVuSans-65" d="M 3597 1894 
L 3597 1613 
L 953 1613 
Q 991 1019 1311 708 
Q 1631 397 2203 397 
Q 2534 397 2845 478 
Q 3156 559 3463 722 
L 3463 178 
Q 3153 47 2828 -22 
Q 2503 -91 2169 -91 
Q 1331 -91 842 396 
Q 353 884 353 1716 
Q 353 2575 817 3079 
Q 1281 3584 2069 3584 
Q 2775 3584 3186 3129 
Q 3597 2675 3597 1894 
z
M 3022 2063 
Q 3016 2534 2758 2815 
Q 2500 3097 2075 3097 
Q 1594 3097 1305 2825 
Q 1016 2553 972 2059 
L 3022 2063 
z
" transform="scale(0.015625)"/>
       <path id="DejaVuSans-72" d="M 2631 2963 
Q 2534 3019 2420 3045 
Q 2306 3072 2169 3072 
Q 1681 3072 1420 2755 
Q 1159 2438 1159 1844 
L 1159 0 
L 581 0 
L 581 3500 
L 1159 3500 
L 1159 2956 
Q 1341 3275 1631 3429 
Q 1922 3584 2338 3584 
Q 2397 3584 2469 3576 
Q 2541 3569 2628 3553 
L 2631 2963 
z
" transform="scale(0.015625)"/>
       <path id="DejaVuSans-20" transform="scale(0.015625)"/>
       <path id="DejaVuSans-6f" d="M 1959 3097 
Q 1497 3097 1228 2736 
Q 959 2375 959 1747 
Q 959 1119 1226 758 
Q 1494 397 1959 397 
Q 2419 397 2687 759 
Q 2956 1122 2956 1747 
Q 2956 2369 2687 2733 
Q 2419 3097 1959 3097 
z
M 1959 3584 
Q 2709 3584 3137 3096 
Q 3566 2609 3566 1747 
Q 3566 888 3137 398 
Q 2709 -91 1959 -91 
Q 1206 -91 779 398 
Q 353 888 353 1747 
Q 353 2609 779 3096 
Q 1206 3584 1959 3584 
z
" transform="scale(0.015625)"/>
       <path id="DejaVuSans-66" d="M 2375 4863 
L 2375 4384 
L 1825 4384 
Q 1516 4384 1395 4259 
Q 1275 4134 1275 3809 
L 1275 3500 
L 2222 3500 
L 2222 3053 
L 1275 3053 
L 1275 0 
L 697 0 
L 697 3053 
L 147 3053 
L 147 3500 
L 697 3500 
L 697 3744 
Q 697 4328 969 4595 
Q 1241 4863 1831 4863 
L 2375 4863 
z
" transform="scale(0.015625)"/>
       <path id="DejaVuSans-4a" d="M 628 4666 
L 1259 4666 
L 1259 325 
Q 1259 -519 939 -900 
Q 619 -1281 -91 -1281 
L -331 -1281 
L -331 -750 
L -134 -750 
Q 284 -750 456 -515 
Q 628 -281 628 325 
L 628 4666 
z
" transform="scale(0.015625)"/>
       <path id="DejaVuSans-73" d="M 2834 3397 
L 2834 2853 
Q 2591 2978 2328 3040 
Q 2066 3103 1784 3103 
Q 1356 3103 1142 2972 
Q 928 2841 928 2578 
Q 928 2378 1081 2264 
Q 1234 2150 1697 2047 
L 1894 2003 
Q 2506 1872 2764 1633 
Q 3022 1394 3022 966 
Q 3022 478 2636 193 
Q 2250 -91 1575 -91 
Q 1294 -91 989 -36 
Q 684 19 347 128 
L 347 722 
Q 666 556 975 473 
Q 1284 391 1588 391 
Q 1994 391 2212 530 
Q 2431 669 2431 922 
Q 2431 1156 2273 1281 
Q 2116 1406 1581 1522 
L 1381 1569 
Q 847 1681 609 1914 
Q 372 2147 372 2553 
Q 372 3047 722 3315 
Q 1072 3584 1716 3584 
Q 2034 3584 2315 3537 
Q 2597 3491 2834 3397 
z
" transform="scale(0.015625)"/>
      </defs>
      <use xlink:href="#DejaVuSans-4e"/>
      <use xlink:href="#DejaVuSans-75" transform="translate(74.804688 0)"/>
      <use xlink:href="#DejaVuSans-6d" transform="translate(138.183594 0)"/>
      <use xlink:href="#DejaVuSans-62" transform="translate(235.595703 0)"/>
      <use xlink:href="#DejaVuSans-65" transform="translate(299.072266 0)"/>
      <use xlink:href="#DejaVuSans-72" transform="translate(360.595703 0)"/>
      <use xlink:href="#DejaVuSans-20" transform="translate(401.708984 0)"/>
      <use xlink:href="#DejaVuSans-6f" transform="translate(433.496094 0)"/>
      <use xlink:href="#DejaVuSans-66" transform="translate(494.677734 0)"/>
      <use xlink:href="#DejaVuSans-20" transform="translate(529.882812 0)"/>
      <use xlink:href="#DejaVuSans-4a" transform="translate(561.669922 0)"/>
      <use xlink:href="#DejaVuSans-6f" transform="translate(591.162109 0)"/>
      <use xlink:href="#DejaVuSans-62" transform="translate(652.34375 0)"/>
      <use xlink:href="#DejaVuSans-73" transform="translate(715.820312 0)"/>
     </g>
    </g>
   </g>
   <g id="matplotlib.axis_2">
    <g id="ytick_1">
     <g id="line2d_5">
      <path d="M 50.14375 285.70364 
L 407.26375 285.70364 
" clip-path="url(#pad0f2122e8)" style="fill: none; stroke: #cccccc; stroke-width: 0.8; stroke-linecap: round"/>
     </g>
     <g id="text_6">
      <!-- 0.25 -->
      <g style="fill: #262626" transform="translate(20.878125 289.502859) scale(0.1 -0.1)">
       <defs>
        <path id="DejaVuSans-30" d="M 2034 4250 
Q 1547 4250 1301 3770 
Q 1056 3291 1056 2328 
Q 1056 1369 1301 889 
Q 1547 409 2034 409 
Q 2525 409 2770 889 
Q 3016 1369 3016 2328 
Q 3016 3291 2770 3770 
Q 2525 4250 2034 4250 
z
M 2034 4750 
Q 2819 4750 3233 4129 
Q 3647 3509 3647 2328 
Q 3647 1150 3233 529 
Q 2819 -91 2034 -91 
Q 1250 -91 836 529 
Q 422 1150 422 2328 
Q 422 3509 836 4129 
Q 1250 4750 2034 4750 
z
" transform="scale(0.015625)"/>
        <path id="DejaVuSans-2e" d="M 684 794 
L 1344 794 
L 1344 0 
L 684 0 
L 684 794 
z
" transform="scale(0.015625)"/>
        <path id="DejaVuSans-35" d="M 691 4666 
L 3169 4666 
L 3169 4134 
L 1269 4134 
L 1269 2991 
Q 1406 3038 1543 3061 
Q 1681 3084 1819 3084 
Q 2600 3084 3056 2656 
Q 3513 2228 3513 1497 
Q 3513 744 3044 326 
Q 2575 -91 1722 -91 
Q 1428 -91 1123 -41 
Q 819 9 494 109 
L 494 744 
Q 775 591 1075 516 
Q 1375 441 1709 441 
Q 2250 441 2565 725 
Q 2881 1009 2881 1497 
Q 2881 1984 2565 2268 
Q 2250 2553 1709 2553 
Q 1456 2553 1204 2497 
Q 953 2441 691 2322 
L 691 4666 
z
" transform="scale(0.015625)"/>
       </defs>
       <use xlink:href="#DejaVuSans-30"/>
       <use xlink:href="#DejaVuSans-2e" transform="translate(63.623047 0)"/>
       <use xlink:href="#DejaVuSans-32" transform="translate(95.410156 0)"/>
       <use xlink:href="#DejaVuSans-35" transform="translate(159.033203 0)"/>
      </g>
     </g>
    </g>
    <g id="ytick_2">
     <g id="line2d_6">
      <path d="M 50.14375 254.932911 
L 407.26375 254.932911 
" clip-path="url(#pad0f2122e8)" style="fill: none; stroke: #cccccc; stroke-width: 0.8; stroke-linecap: round"/>
     </g>
     <g id="text_7">
      <!-- 0.50 -->
      <g style="fill: #262626" transform="translate(20.878125 258.732129) scale(0.1 -0.1)">
       <use xlink:href="#DejaVuSans-30"/>
       <use xlink:href="#DejaVuSans-2e" transform="translate(63.623047 0)"/>
       <use xlink:href="#DejaVuSans-35" transform="translate(95.410156 0)"/>
       <use xlink:href="#DejaVuSans-30" transform="translate(159.033203 0)"/>
      </g>
     </g>
    </g>
    <g id="ytick_3">
     <g id="line2d_7">
      <path d="M 50.14375 224.162181 
L 407.26375 224.162181 
" clip-path="url(#pad0f2122e8)" style="fill: none; stroke: #cccccc; stroke-width: 0.8; stroke-linecap: round"/>
     </g>
     <g id="text_8">
      <!-- 0.75 -->
      <g style="fill: #262626" transform="translate(20.878125 227.9614) scale(0.1 -0.1)">
       <defs>
        <path id="DejaVuSans-37" d="M 525 4666 
L 3525 4666 
L 3525 4397 
L 1831 0 
L 1172 0 
L 2766 4134 
L 525 4134 
L 525 4666 
z
" transform="scale(0.015625)"/>
       </defs>
       <use xlink:href="#DejaVuSans-30"/>
       <use xlink:href="#DejaVuSans-2e" transform="translate(63.623047 0)"/>
       <use xlink:href="#DejaVuSans-37" transform="translate(95.410156 0)"/>
       <use xlink:href="#DejaVuSans-35" transform="translate(159.033203 0)"/>
      </g>
     </g>
    </g>
    <g id="ytick_4">
     <g id="line2d_8">
      <path d="M 50.14375 193.391452 
L 407.26375 193.391452 
" clip-path="url(#pad0f2122e8)" style="fill: none; stroke: #cccccc; stroke-width: 0.8; stroke-linecap: round"/>
     </g>
     <g id="text_9">
      <!-- 1.00 -->
      <g style="fill: #262626" transform="translate(20.878125 197.19067) scale(0.1 -0.1)">
       <use xlink:href="#DejaVuSans-31"/>
       <use xlink:href="#DejaVuSans-2e" transform="translate(63.623047 0)"/>
       <use xlink:href="#DejaVuSans-30" transform="translate(95.410156 0)"/>
       <use xlink:href="#DejaVuSans-30" transform="translate(159.033203 0)"/>
      </g>
     </g>
    </g>
    <g id="ytick_5">
     <g id="line2d_9">
      <path d="M 50.14375 162.620722 
L 407.26375 162.620722 
" clip-path="url(#pad0f2122e8)" style="fill: none; stroke: #cccccc; stroke-width: 0.8; stroke-linecap: round"/>
     </g>
     <g id="text_10">
      <!-- 1.25 -->
      <g style="fill: #262626" transform="translate(20.878125 166.419941) scale(0.1 -0.1)">
       <use xlink:href="#DejaVuSans-31"/>
       <use xlink:href="#DejaVuSans-2e" transform="translate(63.623047 0)"/>
       <use xlink:href="#DejaVuSans-32" transform="translate(95.410156 0)"/>
       <use xlink:href="#DejaVuSans-35" transform="translate(159.033203 0)"/>
      </g>
     </g>
    </g>
    <g id="ytick_6">
     <g id="line2d_10">
      <path d="M 50.14375 131.849993 
L 407.26375 131.849993 
" clip-path="url(#pad0f2122e8)" style="fill: none; stroke: #cccccc; stroke-width: 0.8; stroke-linecap: round"/>
     </g>
     <g id="text_11">
      <!-- 1.50 -->
      <g style="fill: #262626" transform="translate(20.878125 135.649212) scale(0.1 -0.1)">
       <use xlink:href="#DejaVuSans-31"/>
       <use xlink:href="#DejaVuSans-2e" transform="translate(63.623047 0)"/>
       <use xlink:href="#DejaVuSans-35" transform="translate(95.410156 0)"/>
       <use xlink:href="#DejaVuSans-30" transform="translate(159.033203 0)"/>
      </g>
     </g>
    </g>
    <g id="ytick_7">
     <g id="line2d_11">
      <path d="M 50.14375 101.079263 
L 407.26375 101.079263 
" clip-path="url(#pad0f2122e8)" style="fill: none; stroke: #cccccc; stroke-width: 0.8; stroke-linecap: round"/>
     </g>
     <g id="text_12">
      <!-- 1.75 -->
      <g style="fill: #262626" transform="translate(20.878125 104.878482) scale(0.1 -0.1)">
       <use xlink:href="#DejaVuSans-31"/>
       <use xlink:href="#DejaVuSans-2e" transform="translate(63.623047 0)"/>
       <use xlink:href="#DejaVuSans-37" transform="translate(95.410156 0)"/>
       <use xlink:href="#DejaVuSans-35" transform="translate(159.033203 0)"/>
      </g>
     </g>
    </g>
    <g id="ytick_8">
     <g id="line2d_12">
      <path d="M 50.14375 70.308534 
L 407.26375 70.308534 
" clip-path="url(#pad0f2122e8)" style="fill: none; stroke: #cccccc; stroke-width: 0.8; stroke-linecap: round"/>
     </g>
     <g id="text_13">
      <!-- 2.00 -->
      <g style="fill: #262626" transform="translate(20.878125 74.107753) scale(0.1 -0.1)">
       <use xlink:href="#DejaVuSans-32"/>
       <use xlink:href="#DejaVuSans-2e" transform="translate(63.623047 0)"/>
       <use xlink:href="#DejaVuSans-30" transform="translate(95.410156 0)"/>
       <use xlink:href="#DejaVuSans-30" transform="translate(159.033203 0)"/>
      </g>
     </g>
    </g>
    <g id="ytick_9">
     <g id="line2d_13">
      <path d="M 50.14375 39.537804 
L 407.26375 39.537804 
" clip-path="url(#pad0f2122e8)" style="fill: none; stroke: #cccccc; stroke-width: 0.8; stroke-linecap: round"/>
     </g>
     <g id="text_14">
      <!-- 2.25 -->
      <g style="fill: #262626" transform="translate(20.878125 43.337023) scale(0.1 -0.1)">
       <use xlink:href="#DejaVuSans-32"/>
       <use xlink:href="#DejaVuSans-2e" transform="translate(63.623047 0)"/>
       <use xlink:href="#DejaVuSans-32" transform="translate(95.410156 0)"/>
       <use xlink:href="#DejaVuSans-35" transform="translate(159.033203 0)"/>
      </g>
     </g>
    </g>
    <g id="text_15">
     <!-- Mean Latency (ns) -->
     <g style="fill: #262626" transform="translate(14.798438 214.92035) rotate(-90) scale(0.1 -0.1)">
      <defs>
       <path id="DejaVuSans-4d" d="M 628 4666 
L 1569 4666 
L 2759 1491 
L 3956 4666 
L 4897 4666 
L 4897 0 
L 4281 0 
L 4281 4097 
L 3078 897 
L 2444 897 
L 1241 4097 
L 1241 0 
L 628 0 
L 628 4666 
z
" transform="scale(0.015625)"/>
       <path id="DejaVuSans-61" d="M 2194 1759 
Q 1497 1759 1228 1600 
Q 959 1441 959 1056 
Q 959 750 1161 570 
Q 1363 391 1709 391 
Q 2188 391 2477 730 
Q 2766 1069 2766 1631 
L 2766 1759 
L 2194 1759 
z
M 3341 1997 
L 3341 0 
L 2766 0 
L 2766 531 
Q 2569 213 2275 61 
Q 1981 -91 1556 -91 
Q 1019 -91 701 211 
Q 384 513 384 1019 
Q 384 1609 779 1909 
Q 1175 2209 1959 2209 
L 2766 2209 
L 2766 2266 
Q 2766 2663 2505 2880 
Q 2244 3097 1772 3097 
Q 1472 3097 1187 3025 
Q 903 2953 641 2809 
L 641 3341 
Q 956 3463 1253 3523 
Q 1550 3584 1831 3584 
Q 2591 3584 2966 3190 
Q 3341 2797 3341 1997 
z
" transform="scale(0.015625)"/>
       <path id="DejaVuSans-6e" d="M 3513 2113 
L 3513 0 
L 2938 0 
L 2938 2094 
Q 2938 2591 2744 2837 
Q 2550 3084 2163 3084 
Q 1697 3084 1428 2787 
Q 1159 2491 1159 1978 
L 1159 0 
L 581 0 
L 581 3500 
L 1159 3500 
L 1159 2956 
Q 1366 3272 1645 3428 
Q 1925 3584 2291 3584 
Q 2894 3584 3203 3211 
Q 3513 2838 3513 2113 
z
" transform="scale(0.015625)"/>
       <path id="DejaVuSans-4c" d="M 628 4666 
L 1259 4666 
L 1259 531 
L 3531 531 
L 3531 0 
L 628 0 
L 628 4666 
z
" transform="scale(0.015625)"/>
       <path id="DejaVuSans-74" d="M 1172 4494 
L 1172 3500 
L 2356 3500 
L 2356 3053 
L 1172 3053 
L 1172 1153 
Q 1172 725 1289 603 
Q 1406 481 1766 481 
L 2356 481 
L 2356 0 
L 1766 0 
Q 1100 0 847 248 
Q 594 497 594 1153 
L 594 3053 
L 172 3053 
L 172 3500 
L 594 3500 
L 594 4494 
L 1172 4494 
z
" transform="scale(0.015625)"/>
       <path id="DejaVuSans-63" d="M 3122 3366 
L 3122 2828 
Q 2878 2963 2633 3030 
Q 2388 3097 2138 3097 
Q 1578 3097 1268 2742 
Q 959 2388 959 1747 
Q 959 1106 1268 751 
Q 1578 397 2138 397 
Q 2388 397 2633 464 
Q 2878 531 3122 666 
L 3122 134 
Q 2881 22 2623 -34 
Q 2366 -91 2075 -91 
Q 1284 -91 818 406 
Q 353 903 353 1747 
Q 353 2603 823 3093 
Q 1294 3584 2113 3584 
Q 2378 3584 2631 3529 
Q 2884 3475 3122 3366 
z
" transform="scale(0.015625)"/>
       <path id="DejaVuSans-79" d="M 2059 -325 
Q 1816 -950 1584 -1140 
Q 1353 -1331 966 -1331 
L 506 -1331 
L 506 -850 
L 844 -850 
Q 1081 -850 1212 -737 
Q 1344 -625 1503 -206 
L 1606 56 
L 191 3500 
L 800 3500 
L 1894 763 
L 2988 3500 
L 3597 3500 
L 2059 -325 
z
" transform="scale(0.015625)"/>
       <path id="DejaVuSans-28" d="M 1984 4856 
Q 1566 4138 1362 3434 
Q 1159 2731 1159 2009 
Q 1159 1288 1364 580 
Q 1569 -128 1984 -844 
L 1484 -844 
Q 1016 -109 783 600 
Q 550 1309 550 2009 
Q 550 2706 781 3412 
Q 1013 4119 1484 4856 
L 1984 4856 
z
" transform="scale(0.015625)"/>
       <path id="DejaVuSans-29" d="M 513 4856 
L 1013 4856 
Q 1481 4119 1714 3412 
Q 1947 2706 1947 2009 
Q 1947 1309 1714 600 
Q 1481 -109 1013 -844 
L 513 -844 
Q 928 -128 1133 580 
Q 1338 1288 1338 2009 
Q 1338 2731 1133 3434 
Q 928 4138 513 4856 
z
" transform="scale(0.015625)"/>
      </defs>
      <use xlink:href="#DejaVuSans-4d"/>
      <use xlink:href="#DejaVuSans-65" transform="translate(86.279297 0)"/>
      <use xlink:href="#DejaVuSans-61" transform="translate(147.802734 0)"/>
      <use xlink:href="#DejaVuSans-6e" transform="translate(209.082031 0)"/>
      <use xlink:href="#DejaVuSans-20" transform="translate(272.460938 0)"/>
      <use xlink:href="#DejaVuSans-4c" transform="translate(304.248047 0)"/>
      <use xlink:href="#DejaVuSans-61" transform="translate(359.960938 0)"/>
      <use xlink:href="#DejaVuSans-74" transform="translate(421.240234 0)"/>
      <use xlink:href="#DejaVuSans-65" transform="translate(460.449219 0)"/>
      <use xlink:href="#DejaVuSans-6e" transform="translate(521.972656 0)"/>
      <use xlink:href="#DejaVuSans-63" transform="translate(585.351562 0)"/>
      <use xlink:href="#DejaVuSans-79" transform="translate(640.332031 0)"/>
      <use xlink:href="#DejaVuSans-20" transform="translate(699.511719 0)"/>
      <use xlink:href="#DejaVuSans-28" transform="translate(731.298828 0)"/>
      <use xlink:href="#DejaVuSans-6e" transform="translate(770.3125 0)"/>
      <use xlink:href="#DejaVuSans-73" transform="translate(833.691406 0)"/>
      <use xlink:href="#DejaVuSans-29" transform="translate(885.791016 0)"/>
     </g>
    </g>
    <g id="text_16">
     <!-- 1e6 -->
     <g style="fill: #262626" transform="translate(50.14375 32.623725) scale(0.1 -0.1)">
      <use xlink:href="#DejaVuSans-31"/>
      <use xlink:href="#DejaVuSans-65" transform="translate(63.623047 0)"/>
      <use xlink:href="#DejaVuSans-36" transform="translate(125.146484 0)"/>
     </g>
    </g>
   </g>
   <g id="FillBetweenPolyCollection_1"/>
   <g id="FillBetweenPolyCollection_2"/>
   <g id="FillBetweenPolyCollection_3"/>
   <g id="FillBetweenPolyCollection_4"/>
   <g id="FillBetweenPolyCollection_5"/>
   <g id="FillBetweenPolyCollection_6"/>
   <g id="FillBetweenPolyCollection_7"/>
   <g id="line2d_14">
    <path d="M 66.376477 283.693263 
L 112.755698 258.938407 
L 205.51414 195.731588 
L 391.031023 47.719725 
" clip-path="url(#pad0f2122e8)" style="fill: none; stroke: #4c02a1; stroke-width: 1.5; stroke-linecap: round"/>
   </g>
   <g id="line2d_15">
    <path d="M 66.376477 286.192138 
L 112.755698 265.863481 
L 205.51414 208.212209 
L 391.031023 94.667224 
" clip-path="url(#pad0f2122e8)" style="fill: none; stroke: #7e03a8; stroke-width: 1.5; stroke-linecap: round"/>
   </g>
   <g id="line2d_16">
    <path d="M 66.376477 286.430667 
L 112.755698 264.681942 
L 205.51414 202.657372 
L 391.031023 57.946757 
" clip-path="url(#pad0f2122e8)" style="fill: none; stroke: #aa2395; stroke-width: 1.5; stroke-linecap: round"/>
   </g>
   <g id="line2d_17">
    <path d="M 66.376477 283.352548 
L 112.755698 259.965714 
L 205.51414 194.817353 
L 391.031023 66.471838 
" clip-path="url(#pad0f2122e8)" style="fill: none; stroke: #cc4778; stroke-width: 1.5; stroke-linecap: round"/>
   </g>
   <g id="line2d_18">
    <path d="M 66.376477 289.639725 
L 112.755698 267.513492 
L 205.51414 194.962097 
L 391.031023 88.678914 
" clip-path="url(#pad0f2122e8)" style="fill: none; stroke: #e66c5c; stroke-width: 1.5; stroke-linecap: round"/>
   </g>
   <g id="line2d_19">
    <path d="M 66.376477 289.038596 
L 112.755698 262.071988 
L 205.51414 197.942288 
L 391.031023 84.725407 
" clip-path="url(#pad0f2122e8)" style="fill: none; stroke: #f89540; stroke-width: 1.5; stroke-linecap: round"/>
   </g>
   <g id="line2d_20">
    <path d="M 66.376477 284.502011 
L 112.755698 263.09947 
L 205.51414 193.534856 
L 391.031023 101.662168 
" clip-path="url(#pad0f2122e8)" style="fill: none; stroke: #fdc527; stroke-width: 1.5; stroke-linecap: round"/>
   </g>
   <g id="line2d_21"/>
   <g id="line2d_22"/>
   <g id="line2d_23"/>
   <g id="line2d_24"/>
   <g id="line2d_25"/>
   <g id="line2d_26"/>
   <g id="line2d_27"/>
   <g id="text_17">
    <path d="M 107.372368 263.99911 
L 108.793538 263.240562 
L 106.174304 258.333321 
L 104.793237 259.46897 
L 104.370187 258.676367 
L 105.742983 257.545133 
L 106.612778 257.080881 
L 109.655062 262.780725 
L 111.076233 262.022177 
L 111.466911 262.754127 
L 107.763046 264.731061 
L 107.372368 263.99911 
z
" clip-path="url(#pad0f2122e8)" style="fill: #4c02a1; stroke: #ffffff; stroke-width: 5"/>
    <path d="M 107.372368 263.99911 
L 108.793538 263.240562 
L 106.174304 258.333321 
L 104.793237 259.46897 
L 104.370187 258.676367 
L 105.742983 257.545133 
L 106.612778 257.080881 
L 109.655062 262.780725 
L 111.076233 262.022177 
L 111.466911 262.754127 
L 107.763046 264.731061 
L 107.372368 263.99911 
z
" clip-path="url(#pad0f2122e8)" style="fill: #4c02a1"/>
   </g>
   <g id="text_18">
    <path d="M 146.921737 240.305296 
L 146.860967 244.925755 
L 148.976314 243.611023 
L 146.921737 240.305296 
z
M 146.247803 239.712325 
L 147.301495 239.057433 
L 149.809713 243.093049 
L 150.693541 242.543732 
L 151.126561 243.240443 
L 150.242733 243.78976 
L 151.150014 245.249535 
L 150.316614 245.76751 
L 149.409334 244.307734 
L 146.614528 246.044764 
L 146.112225 245.236579 
L 146.247803 239.712325 
z
" clip-path="url(#pad0f2122e8)" style="fill: #7e03a8; stroke: #ffffff; stroke-width: 5"/>
    <path d="M 146.921737 240.305296 
L 146.860967 244.925755 
L 148.976314 243.611023 
L 146.921737 240.305296 
z
M 146.247803 239.712325 
L 147.301495 239.057433 
L 149.809713 243.093049 
L 150.693541 242.543732 
L 151.126561 243.240443 
L 150.242733 243.78976 
L 151.150014 245.249535 
L 150.316614 245.76751 
L 149.409334 244.307734 
L 146.614528 246.044764 
L 146.112225 245.236579 
L 146.247803 239.712325 
z
" clip-path="url(#pad0f2122e8)" style="fill: #7e03a8"/>
   </g>
   <g id="text_19">
    <path d="M 188.134319 213.432863 
Q 187.549824 213.823696 187.424027 214.360803 
Q 187.299528 214.897042 187.665174 215.443869 
Q 188.031688 215.991996 188.574812 216.081816 
Q 189.119236 216.170768 189.703731 215.779935 
Q 190.288226 215.389102 190.414454 214.849828 
Q 190.541112 214.308386 190.177203 213.764156 
Q 189.811557 213.217329 189.267134 213.128377 
Q 188.72401 213.038556 188.134319 213.432863 
z
M 187.081965 213.632798 
Q 186.467769 213.855529 185.931475 213.691594 
Q 185.395613 213.525492 185.048206 213.005941 
Q 184.562704 212.279869 184.797389 211.512063 
Q 185.033374 210.74339 185.933496 210.141507 
Q 186.838814 209.53615 187.636736 209.613484 
Q 188.434659 209.690818 188.92016 210.41689 
Q 189.267567 210.936441 189.215038 211.495982 
Q 189.16294 212.053355 188.726344 212.533255 
Q 189.410695 212.274892 190.009851 212.456941 
Q 190.609436 212.636822 190.996795 213.216122 
Q 191.586519 214.09806 191.364055 214.929119 
Q 191.140723 215.758879 190.137989 216.429374 
Q 189.136555 217.099001 188.283117 216.989242 
Q 187.43011 216.877316 186.840386 215.995378 
Q 186.453027 215.416078 186.517168 214.792385 
Q 186.581739 214.166524 187.081965 213.632798 
z
M 185.916012 212.538445 
Q 186.230415 213.008639 186.700271 213.076026 
Q 187.171425 213.142545 187.702666 212.787321 
Q 188.231309 212.433834 188.352443 211.971272 
Q 188.474876 211.50784 188.160473 211.037647 
Q 187.845201 210.566154 187.37015 210.502241 
Q 186.896398 210.437459 186.367755 210.790946 
Q 185.836514 211.146169 185.717977 211.606995 
Q 185.60074 212.066952 185.916012 212.538445 
z
" clip-path="url(#pad0f2122e8)" style="fill: #aa2395; stroke: #ffffff; stroke-width: 5"/>
    <path d="M 188.134319 213.432863 
Q 187.549824 213.823696 187.424027 214.360803 
Q 187.299528 214.897042 187.665174 215.443869 
Q 188.031688 215.991996 188.574812 216.081816 
Q 189.119236 216.170768 189.703731 215.779935 
Q 190.288226 215.389102 190.414454 214.849828 
Q 190.541112 214.308386 190.177203 213.764156 
Q 189.811557 213.217329 189.267134 213.128377 
Q 188.72401 213.038556 188.134319 213.432863 
z
M 187.081965 213.632798 
Q 186.467769 213.855529 185.931475 213.691594 
Q 185.395613 213.525492 185.048206 213.005941 
Q 184.562704 212.279869 184.797389 211.512063 
Q 185.033374 210.74339 185.933496 210.141507 
Q 186.838814 209.53615 187.636736 209.613484 
Q 188.434659 209.690818 188.92016 210.41689 
Q 189.267567 210.936441 189.215038 211.495982 
Q 189.16294 212.053355 188.726344 212.533255 
Q 189.410695 212.274892 190.009851 212.456941 
Q 190.609436 212.636822 190.996795 213.216122 
Q 191.586519 214.09806 191.364055 214.929119 
Q 191.140723 215.758879 190.137989 216.429374 
Q 189.136555 217.099001 188.283117 216.989242 
Q 187.43011 216.877316 186.840386 215.995378 
Q 186.453027 215.416078 186.517168 214.792385 
Q 186.581739 214.166524 187.081965 213.632798 
z
M 185.916012 212.538445 
Q 186.230415 213.008639 186.700271 213.076026 
Q 187.171425 213.142545 187.702666 212.787321 
Q 188.231309 212.433834 188.352443 211.971272 
Q 188.474876 211.50784 188.160473 211.037647 
Q 187.845201 210.566154 187.37015 210.502241 
Q 186.896398 210.437459 186.367755 210.790946 
Q 185.836514 211.146169 185.717977 211.606995 
Q 185.60074 212.066952 185.916012 212.538445 
z
" clip-path="url(#pad0f2122e8)" style="fill: #aa2395"/>
   </g>
   <g id="text_20">
    <path d="M 225.589517 183.275148 
L 226.914316 182.358617 
L 223.749573 177.784143 
L 222.507862 179.070687 
L 221.996703 178.331833 
L 223.230704 177.050622 
L 224.041517 176.489681 
L 227.717419 181.803009 
L 229.042217 180.886478 
L 229.514262 181.568794 
L 226.061562 183.957464 
L 225.589517 183.275148 
z
M 230.69154 175.844775 
Q 230.14543 176.222588 230.084165 176.817867 
Q 230.023296 177.410972 230.473116 178.061164 
Q 230.920269 178.707501 231.499409 178.863531 
Q 232.078945 179.017386 232.625055 178.639573 
Q 233.171165 178.261759 233.230256 177.666085 
Q 233.288459 177.069125 232.841305 176.422788 
Q 232.391485 175.772596 231.815012 175.620421 
Q 231.23765 175.466962 230.69154 175.844775 
z
M 230.542323 172.187947 
L 231.053483 172.926802 
Q 230.648096 172.994461 230.284685 173.13378 
Q 229.920386 173.271813 229.614564 173.483389 
Q 228.811461 174.038997 228.762569 174.874613 
Q 228.714963 175.70934 229.412863 176.847196 
Q 229.407496 176.334115 229.635815 175.900661 
Q 229.865419 175.466318 230.294597 175.169401 
Q 231.197927 174.544453 232.101784 174.730432 
Q 233.004752 174.915126 233.657258 175.85829 
Q 234.296429 176.782179 234.137022 177.718952 
Q 233.976727 178.65444 233.069542 179.282055 
Q 232.02872 180.002123 230.927593 179.585925 
Q 229.825576 179.168443 228.778366 177.654754 
Q 227.795162 176.233584 227.884825 174.921366 
Q 227.974487 173.609149 229.110396 172.823297 
Q 229.416217 172.611722 229.76896 172.456984 
Q 230.121703 172.302245 230.542323 172.187947 
z
" clip-path="url(#pad0f2122e8)" style="fill: #cc4778; stroke: #ffffff; stroke-width: 5"/>
    <path d="M 225.589517 183.275148 
L 226.914316 182.358617 
L 223.749573 177.784143 
L 222.507862 179.070687 
L 221.996703 178.331833 
L 223.230704 177.050622 
L 224.041517 176.489681 
L 227.717419 181.803009 
L 229.042217 180.886478 
L 229.514262 181.568794 
L 226.061562 183.957464 
L 225.589517 183.275148 
z
M 230.69154 175.844775 
Q 230.14543 176.222588 230.084165 176.817867 
Q 230.023296 177.410972 230.473116 178.061164 
Q 230.920269 178.707501 231.499409 178.863531 
Q 232.078945 179.017386 232.625055 178.639573 
Q 233.171165 178.261759 233.230256 177.666085 
Q 233.288459 177.069125 232.841305 176.422788 
Q 232.391485 175.772596 231.815012 175.620421 
Q 231.23765 175.466962 230.69154 175.844775 
z
M 230.542323 172.187947 
L 231.053483 172.926802 
Q 230.648096 172.994461 230.284685 173.13378 
Q 229.920386 173.271813 229.614564 173.483389 
Q 228.811461 174.038997 228.762569 174.874613 
Q 228.714963 175.70934 229.412863 176.847196 
Q 229.407496 176.334115 229.635815 175.900661 
Q 229.865419 175.466318 230.294597 175.169401 
Q 231.197927 174.544453 232.101784 174.730432 
Q 233.004752 174.915126 233.657258 175.85829 
Q 234.296429 176.782179 234.137022 177.718952 
Q 233.976727 178.65444 233.069542 179.282055 
Q 232.02872 180.002123 230.927593 179.585925 
Q 229.825576 179.168443 228.778366 177.654754 
Q 227.795162 176.233584 227.884825 174.921366 
Q 227.974487 173.609149 229.110396 172.823297 
Q 229.416217 172.611722 229.76896 172.456984 
Q 230.121703 172.302245 230.542323 172.187947 
z
" clip-path="url(#pad0f2122e8)" style="fill: #cc4778"/>
   </g>
   <g id="text_21">
    <path d="M 266.29745 158.788589 
Q 266.986955 158.568242 267.569774 158.787175 
Q 268.153172 159.003976 268.502698 159.614072 
Q 269.038637 160.549551 268.689025 161.432331 
Q 268.338637 162.313755 267.15234 162.993388 
Q 266.7551 163.220968 266.288406 163.383895 
Q 265.821713 163.546821 265.282853 163.646648 
L 264.809829 162.820985 
Q 265.283879 162.824916 265.767463 162.688328 
Q 266.252403 162.550963 266.714719 162.286101 
Q 267.51869 161.825504 267.75858 161.266693 
Q 267.998471 160.707882 267.651275 160.101854 
Q 267.330489 159.541922 266.758472 159.451857 
Q 266.185678 159.360436 265.487458 159.760449 
L 264.74992 160.182986 
L 264.3468 159.479343 
L 265.118232 159.037387 
Q 265.748665 158.67621 265.939069 158.232187 
Q 266.129473 157.788163 265.857619 157.313645 
Q 265.578776 156.826924 265.083924 156.764681 
Q 264.589651 156.700305 263.945661 157.069249 
Q 263.593162 157.271197 263.234772 157.579163 
Q 262.875605 157.885773 262.484605 158.322267 
L 262.048087 157.560325 
Q 262.458491 157.145128 262.845366 156.833449 
Q 263.232241 156.521769 263.609144 156.30584 
Q 264.583941 155.747376 265.404641 155.866041 
Q 266.22592 155.982574 266.657778 156.736381 
Q 266.959147 157.262419 266.865551 157.796842 
Q 266.771956 158.331265 266.29745 158.788589 
z
M 271.503717 159.380401 
L 274.490474 157.669279 
L 274.902914 158.389192 
L 270.88713 160.689847 
L 270.474689 159.969935 
Q 270.672469 159.186745 271.026816 157.856466 
Q 271.381742 156.524054 271.455946 156.153805 
Q 271.602657 155.457497 271.582043 155.044329 
Q 271.562784 154.630384 271.385691 154.321269 
Q 271.09675 153.816923 270.561141 153.702398 
Q 270.024756 153.586518 269.456689 153.911965 
Q 269.054026 154.142652 268.686625 154.538615 
Q 268.32058 154.933801 267.975279 155.509783 
L 267.479729 154.644804 
Q 267.877438 154.141439 268.265613 153.778594 
Q 268.655143 153.414972 269.027979 153.201373 
Q 270.010911 152.638248 270.877198 152.795624 
Q 271.742708 152.951644 272.213402 153.77324 
Q 272.437099 154.163701 272.49107 154.597375 
Q 272.545621 155.028917 272.43108 155.724802 
Q 272.396012 155.908761 272.164267 156.821256 
Q 271.933877 157.732974 271.503717 159.380401 
z
" clip-path="url(#pad0f2122e8)" style="fill: #e66c5c; stroke: #ffffff; stroke-width: 5"/>
    <path d="M 266.29745 158.788589 
Q 266.986955 158.568242 267.569774 158.787175 
Q 268.153172 159.003976 268.502698 159.614072 
Q 269.038637 160.549551 268.689025 161.432331 
Q 268.338637 162.313755 267.15234 162.993388 
Q 266.7551 163.220968 266.288406 163.383895 
Q 265.821713 163.546821 265.282853 163.646648 
L 264.809829 162.820985 
Q 265.283879 162.824916 265.767463 162.688328 
Q 266.252403 162.550963 266.714719 162.286101 
Q 267.51869 161.825504 267.75858 161.266693 
Q 267.998471 160.707882 267.651275 160.101854 
Q 267.330489 159.541922 266.758472 159.451857 
Q 266.185678 159.360436 265.487458 159.760449 
L 264.74992 160.182986 
L 264.3468 159.479343 
L 265.118232 159.037387 
Q 265.748665 158.67621 265.939069 158.232187 
Q 266.129473 157.788163 265.857619 157.313645 
Q 265.578776 156.826924 265.083924 156.764681 
Q 264.589651 156.700305 263.945661 157.069249 
Q 263.593162 157.271197 263.234772 157.579163 
Q 262.875605 157.885773 262.484605 158.322267 
L 262.048087 157.560325 
Q 262.458491 157.145128 262.845366 156.833449 
Q 263.232241 156.521769 263.609144 156.30584 
Q 264.583941 155.747376 265.404641 155.866041 
Q 266.22592 155.982574 266.657778 156.736381 
Q 266.959147 157.262419 266.865551 157.796842 
Q 266.771956 158.331265 266.29745 158.788589 
z
M 271.503717 159.380401 
L 274.490474 157.669279 
L 274.902914 158.389192 
L 270.88713 160.689847 
L 270.474689 159.969935 
Q 270.672469 159.186745 271.026816 157.856466 
Q 271.381742 156.524054 271.455946 156.153805 
Q 271.602657 155.457497 271.582043 155.044329 
Q 271.562784 154.630384 271.385691 154.321269 
Q 271.09675 153.816923 270.561141 153.702398 
Q 270.024756 153.586518 269.456689 153.911965 
Q 269.054026 154.142652 268.686625 154.538615 
Q 268.32058 154.933801 267.975279 155.509783 
L 267.479729 154.644804 
Q 267.877438 154.141439 268.265613 153.778594 
Q 268.655143 153.414972 269.027979 153.201373 
Q 270.010911 152.638248 270.877198 152.795624 
Q 271.742708 152.951644 272.213402 153.77324 
Q 272.437099 154.163701 272.49107 154.597375 
Q 272.545621 155.028917 272.43108 155.724802 
Q 272.396012 155.908761 272.164267 156.821256 
Q 271.933877 157.732974 271.503717 159.380401 
z
" clip-path="url(#pad0f2122e8)" style="fill: #e66c5c"/>
   </g>
   <g id="text_22">
    <path d="M 305.777123 135.256652 
Q 305.210281 135.602583 305.115039 136.193379 
Q 305.020317 136.782027 305.432179 137.456903 
Q 305.841599 138.127777 306.410858 138.316704 
Q 306.980636 138.503483 307.547479 138.157552 
Q 308.114321 137.81162 308.207415 137.220305 
Q 308.299695 136.627656 307.890275 135.956781 
Q 307.478413 135.281905 306.911596 135.096979 
Q 306.343966 134.91072 305.777123 135.256652 
z
M 305.837488 131.597279 
L 306.305513 132.364184 
Q 305.896918 132.408526 305.526128 132.526812 
Q 305.154524 132.643765 304.837092 132.837486 
Q 304.0035 133.346209 303.906853 134.177656 
Q 303.81154 135.008289 304.443159 136.184231 
Q 304.467172 135.671684 304.71993 135.252011 
Q 304.974022 134.831523 305.419494 134.559662 
Q 306.357118 133.987451 307.248846 134.224866 
Q 308.13976 134.460948 308.737204 135.439918 
Q 309.322439 136.398883 309.109668 137.324994 
Q 308.896082 138.249772 307.954457 138.824425 
Q 306.874122 139.48373 305.798625 139.00518 
Q 304.722314 138.525297 303.763474 136.954143 
Q 302.863238 135.479018 303.027871 134.174086 
Q 303.192505 132.869153 304.371538 132.149616 
Q 304.688969 131.955894 305.049992 131.821602 
Q 305.411015 131.687311 305.837488 131.597279 
z
M 310.369119 129.649952 
L 310.270692 134.269762 
L 312.396685 132.972315 
L 310.369119 129.649952 
z
M 309.700041 129.051508 
L 310.759036 128.405226 
L 313.234278 132.461151 
L 314.122554 131.919056 
L 314.549881 132.619273 
L 313.661605 133.161368 
L 314.556958 134.62849 
L 313.719364 135.139654 
L 312.824012 133.672533 
L 310.015141 135.386725 
L 309.519442 134.574473 
L 309.700041 129.051508 
z
" clip-path="url(#pad0f2122e8)" style="fill: #f89540; stroke: #ffffff; stroke-width: 5"/>
    <path d="M 305.777123 135.256652 
Q 305.210281 135.602583 305.115039 136.193379 
Q 305.020317 136.782027 305.432179 137.456903 
Q 305.841599 138.127777 306.410858 138.316704 
Q 306.980636 138.503483 307.547479 138.157552 
Q 308.114321 137.81162 308.207415 137.220305 
Q 308.299695 136.627656 307.890275 135.956781 
Q 307.478413 135.281905 306.911596 135.096979 
Q 306.343966 134.91072 305.777123 135.256652 
z
M 305.837488 131.597279 
L 306.305513 132.364184 
Q 305.896918 132.408526 305.526128 132.526812 
Q 305.154524 132.643765 304.837092 132.837486 
Q 304.0035 133.346209 303.906853 134.177656 
Q 303.81154 135.008289 304.443159 136.184231 
Q 304.467172 135.671684 304.71993 135.252011 
Q 304.974022 134.831523 305.419494 134.559662 
Q 306.357118 133.987451 307.248846 134.224866 
Q 308.13976 134.460948 308.737204 135.439918 
Q 309.322439 136.398883 309.109668 137.324994 
Q 308.896082 138.249772 307.954457 138.824425 
Q 306.874122 139.48373 305.798625 139.00518 
Q 304.722314 138.525297 303.763474 136.954143 
Q 302.863238 135.479018 303.027871 134.174086 
Q 303.192505 132.869153 304.371538 132.149616 
Q 304.688969 131.955894 305.049992 131.821602 
Q 305.411015 131.687311 305.837488 131.597279 
z
M 310.369119 129.649952 
L 310.270692 134.269762 
L 312.396685 132.972315 
L 310.369119 129.649952 
z
M 309.700041 129.051508 
L 310.759036 128.405226 
L 313.234278 132.461151 
L 314.122554 131.919056 
L 314.549881 132.619273 
L 313.661605 133.161368 
L 314.556958 134.62849 
L 313.719364 135.139654 
L 312.824012 133.672533 
L 310.015141 135.386725 
L 309.519442 134.574473 
L 309.700041 129.051508 
z
" clip-path="url(#pad0f2122e8)" style="fill: #f89540"/>
   </g>
   <g id="text_23">
    <path d="M 342.647424 127.776311 
L 344.091037 127.061397 
L 341.62247 122.076662 
L 340.207457 123.169724 
L 339.808742 122.364605 
L 341.215353 121.275704 
L 342.098883 120.838157 
L 344.966166 126.628011 
L 346.409779 125.913097 
L 346.777984 126.656607 
L 343.015629 128.51982 
L 342.647424 127.776311 
z
M 348.956579 124.651857 
L 352.041234 123.124257 
L 352.409439 123.867767 
L 348.262028 125.92167 
L 347.893823 125.178161 
Q 348.138545 124.408347 348.572594 123.101899 
Q 349.007349 121.793357 349.10378 121.428266 
Q 349.29228 120.74209 349.296658 120.328431 
Q 349.302437 119.914079 349.144337 119.594832 
Q 348.886386 119.073955 348.358672 118.927289 
Q 347.830265 118.779222 347.243579 119.069764 
Q 346.827717 119.27571 346.437071 119.648759 
Q 346.047825 120.021114 345.668366 120.575189 
L 345.225965 119.681858 
Q 345.653351 119.203434 346.062733 118.864697 
Q 346.473514 118.525266 346.858571 118.334576 
Q 347.873721 117.831848 348.728921 118.04126 
Q 349.583427 118.249271 350.003638 119.097796 
Q 350.203342 119.501056 350.231022 119.937198 
Q 350.259408 120.371247 350.103046 121.058943 
Q 350.056931 121.240449 349.770494 122.13728 
Q 349.485458 123.033418 348.956579 124.651857 
z
M 354.618202 118.910103 
Q 353.988109 119.222141 353.793969 119.738493 
Q 353.60123 120.254151 353.893159 120.843638 
Q 354.185781 121.434525 354.712748 121.593766 
Q 355.241115 121.752314 355.871208 121.440276 
Q 356.501301 121.128238 356.696147 120.609793 
Q 356.8917 120.089254 356.601158 119.502568 
Q 356.309229 118.913081 355.780862 118.754533 
Q 355.253896 118.595291 354.618202 118.910103 
z
M 353.548836 118.972394 
Q 352.91101 119.113901 352.400393 118.88205 
Q 351.890483 118.648105 351.613116 118.088022 
Q 351.225495 117.305307 351.557416 116.57426 
Q 351.890738 115.842519 352.861081 115.36198 
Q 353.837025 114.878668 354.618268 115.058448 
Q 355.39951 115.238228 355.787131 116.020944 
Q 356.064498 116.581026 355.940115 117.12909 
Q 355.816438 117.675059 355.321497 118.094527 
Q 356.033493 117.926751 356.604105 118.184687 
Q 357.175424 118.440529 357.484688 119.065021 
Q 357.955519 120.015761 357.627544 120.811111 
Q 357.298876 121.605061 356.217917 122.140379 
Q 355.138358 122.675004 354.306255 122.455898 
Q 353.474859 122.234698 353.004028 121.283958 
Q 352.694764 120.659466 352.83895 120.049287 
Q 352.983844 119.437015 353.548836 118.972394 
z
M 352.53405 117.736568 
Q 352.785068 118.243443 353.242278 118.370972 
Q 353.700889 118.497808 354.273573 118.2142 
Q 354.843457 117.931979 355.023341 117.488945 
Q 355.204624 117.045217 354.953607 116.538342 
Q 354.701896 116.030067 354.239085 115.905311 
Q 353.777674 115.779862 353.20779 116.062083 
Q 352.635105 116.345691 352.458022 116.787339 
Q 352.28234 117.228293 352.53405 117.736568 
z
" clip-path="url(#pad0f2122e8)" style="fill: #fdc527; stroke: #ffffff; stroke-width: 5"/>
    <path d="M 342.647424 127.776311 
L 344.091037 127.061397 
L 341.62247 122.076662 
L 340.207457 123.169724 
L 339.808742 122.364605 
L 341.215353 121.275704 
L 342.098883 120.838157 
L 344.966166 126.628011 
L 346.409779 125.913097 
L 346.777984 126.656607 
L 343.015629 128.51982 
L 342.647424 127.776311 
z
M 348.956579 124.651857 
L 352.041234 123.124257 
L 352.409439 123.867767 
L 348.262028 125.92167 
L 347.893823 125.178161 
Q 348.138545 124.408347 348.572594 123.101899 
Q 349.007349 121.793357 349.10378 121.428266 
Q 349.29228 120.74209 349.296658 120.328431 
Q 349.302437 119.914079 349.144337 119.594832 
Q 348.886386 119.073955 348.358672 118.927289 
Q 347.830265 118.779222 347.243579 119.069764 
Q 346.827717 119.27571 346.437071 119.648759 
Q 346.047825 120.021114 345.668366 120.575189 
L 345.225965 119.681858 
Q 345.653351 119.203434 346.062733 118.864697 
Q 346.473514 118.525266 346.858571 118.334576 
Q 347.873721 117.831848 348.728921 118.04126 
Q 349.583427 118.249271 350.003638 119.097796 
Q 350.203342 119.501056 350.231022 119.937198 
Q 350.259408 120.371247 350.103046 121.058943 
Q 350.056931 121.240449 349.770494 122.13728 
Q 349.485458 123.033418 348.956579 124.651857 
z
M 354.618202 118.910103 
Q 353.988109 119.222141 353.793969 119.738493 
Q 353.60123 120.254151 353.893159 120.843638 
Q 354.185781 121.434525 354.712748 121.593766 
Q 355.241115 121.752314 355.871208 121.440276 
Q 356.501301 121.128238 356.696147 120.609793 
Q 356.8917 120.089254 356.601158 119.502568 
Q 356.309229 118.913081 355.780862 118.754533 
Q 355.253896 118.595291 354.618202 118.910103 
z
M 353.548836 118.972394 
Q 352.91101 119.113901 352.400393 118.88205 
Q 351.890483 118.648105 351.613116 118.088022 
Q 351.225495 117.305307 351.557416 116.57426 
Q 351.890738 115.842519 352.861081 115.36198 
Q 353.837025 114.878668 354.618268 115.058448 
Q 355.39951 115.238228 355.787131 116.020944 
Q 356.064498 116.581026 355.940115 117.12909 
Q 355.816438 117.675059 355.321497 118.094527 
Q 356.033493 117.926751 356.604105 118.184687 
Q 357.175424 118.440529 357.484688 119.065021 
Q 357.955519 120.015761 357.627544 120.811111 
Q 357.298876 121.605061 356.217917 122.140379 
Q 355.138358 122.675004 354.306255 122.455898 
Q 353.474859 122.234698 353.004028 121.283958 
Q 352.694764 120.659466 352.83895 120.049287 
Q 352.983844 119.437015 353.548836 118.972394 
z
M 352.53405 117.736568 
Q 352.785068 118.243443 353.242278 118.370972 
Q 353.700889 118.497808 354.273573 118.2142 
Q 354.843457 117.931979 355.023341 117.488945 
Q 355.204624 117.045217 354.953607 116.538342 
Q 354.701896 116.030067 354.239085 115.905311 
Q 353.777674 115.779862 353.20779 116.062083 
Q 352.635105 116.345691 352.458022 116.787339 
Q 352.28234 117.228293 352.53405 117.736568 
z
" clip-path="url(#pad0f2122e8)" style="fill: #fdc527"/>
   </g>
   <g id="patch_3">
    <path d="M 50.14375 301.735725 
L 50.14375 35.623725 
" style="fill: none; stroke: #cccccc; stroke-width: 0.8; stroke-linejoin: miter; stroke-linecap: square"/>
   </g>
   <g id="patch_4">
    <path d="M 407.26375 301.735725 
L 407.26375 35.623725 
" style="fill: none; stroke: #cccccc; stroke-width: 0.8; stroke-linejoin: miter; stroke-linecap: square"/>
   </g>
   <g id="patch_5">
    <path d="M 50.14375 301.735725 
L 407.26375 301.735725 
" style="fill: none; stroke: #cccccc; stroke-width: 0.8; stroke-linejoin: miter; stroke-linecap: square"/>
   </g>
   <g id="patch_6">
    <path d="M 50.14375 35.623725 
L 407.26375 35.623725 
" style="fill: none; stroke: #cccccc; stroke-width: 0.8; stroke-linejoin: miter; stroke-linecap: square"/>
   </g>
   <g id="text_24">
    <!-- Block Size = 4K, Read-Write Type = Sequential Write-only -->
    <g style="fill: #262626; opacity: 0.75" transform="translate(84.608438 30.882918) scale(0.1 -0.1)">
     <defs>
      <path id="DejaVuSans-42" d="M 1259 2228 
L 1259 519 
L 2272 519 
Q 2781 519 3026 730 
Q 3272 941 3272 1375 
Q 3272 1813 3026 2020 
Q 2781 2228 2272 2228 
L 1259 2228 
z
M 1259 4147 
L 1259 2741 
L 2194 2741 
Q 2656 2741 2882 2914 
Q 3109 3088 3109 3444 
Q 3109 3797 2882 3972 
Q 2656 4147 2194 4147 
L 1259 4147 
z
M 628 4666 
L 2241 4666 
Q 2963 4666 3353 4366 
Q 3744 4066 3744 3513 
Q 3744 3084 3544 2831 
Q 3344 2578 2956 2516 
Q 3422 2416 3680 2098 
Q 3938 1781 3938 1306 
Q 3938 681 3513 340 
Q 3088 0 2303 0 
L 628 0 
L 628 4666 
z
" transform="scale(0.015625)"/>
      <path id="DejaVuSans-6c" d="M 603 4863 
L 1178 4863 
L 1178 0 
L 603 0 
L 603 4863 
z
" transform="scale(0.015625)"/>
      <path id="DejaVuSans-6b" d="M 581 4863 
L 1159 4863 
L 1159 1991 
L 2875 3500 
L 3609 3500 
L 1753 1863 
L 3688 0 
L 2938 0 
L 1159 1709 
L 1159 0 
L 581 0 
L 581 4863 
z
" transform="scale(0.015625)"/>
      <path id="DejaVuSans-53" d="M 3425 4513 
L 3425 3897 
Q 3066 4069 2747 4153 
Q 2428 4238 2131 4238 
Q 1616 4238 1336 4038 
Q 1056 3838 1056 3469 
Q 1056 3159 1242 3001 
Q 1428 2844 1947 2747 
L 2328 2669 
Q 3034 2534 3370 2195 
Q 3706 1856 3706 1288 
Q 3706 609 3251 259 
Q 2797 -91 1919 -91 
Q 1588 -91 1214 -16 
Q 841 59 441 206 
L 441 856 
Q 825 641 1194 531 
Q 1563 422 1919 422 
Q 2459 422 2753 634 
Q 3047 847 3047 1241 
Q 3047 1584 2836 1778 
Q 2625 1972 2144 2069 
L 1759 2144 
Q 1053 2284 737 2584 
Q 422 2884 422 3419 
Q 422 4038 858 4394 
Q 1294 4750 2059 4750 
Q 2388 4750 2728 4690 
Q 3069 4631 3425 4513 
z
" transform="scale(0.015625)"/>
      <path id="DejaVuSans-69" d="M 603 3500 
L 1178 3500 
L 1178 0 
L 603 0 
L 603 3500 
z
M 603 4863 
L 1178 4863 
L 1178 4134 
L 603 4134 
L 603 4863 
z
" transform="scale(0.015625)"/>
      <path id="DejaVuSans-7a" d="M 353 3500 
L 3084 3500 
L 3084 2975 
L 922 459 
L 3084 459 
L 3084 0 
L 275 0 
L 275 525 
L 2438 3041 
L 353 3041 
L 353 3500 
z
" transform="scale(0.015625)"/>
      <path id="DejaVuSans-3d" d="M 678 2906 
L 4684 2906 
L 4684 2381 
L 678 2381 
L 678 2906 
z
M 678 1631 
L 4684 1631 
L 4684 1100 
L 678 1100 
L 678 1631 
z
" transform="scale(0.015625)"/>
      <path id="DejaVuSans-4b" d="M 628 4666 
L 1259 4666 
L 1259 2694 
L 3353 4666 
L 4166 4666 
L 1850 2491 
L 4331 0 
L 3500 0 
L 1259 2247 
L 1259 0 
L 628 0 
L 628 4666 
z
" transform="scale(0.015625)"/>
      <path id="DejaVuSans-2c" d="M 750 794 
L 1409 794 
L 1409 256 
L 897 -744 
L 494 -744 
L 750 256 
L 750 794 
z
" transform="scale(0.015625)"/>
      <path id="DejaVuSans-52" d="M 2841 2188 
Q 3044 2119 3236 1894 
Q 3428 1669 3622 1275 
L 4263 0 
L 3584 0 
L 2988 1197 
Q 2756 1666 2539 1819 
Q 2322 1972 1947 1972 
L 1259 1972 
L 1259 0 
L 628 0 
L 628 4666 
L 2053 4666 
Q 2853 4666 3247 4331 
Q 3641 3997 3641 3322 
Q 3641 2881 3436 2590 
Q 3231 2300 2841 2188 
z
M 1259 4147 
L 1259 2491 
L 2053 2491 
Q 2509 2491 2742 2702 
Q 2975 2913 2975 3322 
Q 2975 3731 2742 3939 
Q 2509 4147 2053 4147 
L 1259 4147 
z
" transform="scale(0.015625)"/>
      <path id="DejaVuSans-64" d="M 2906 2969 
L 2906 4863 
L 3481 4863 
L 3481 0 
L 2906 0 
L 2906 525 
Q 2725 213 2448 61 
Q 2172 -91 1784 -91 
Q 1150 -91 751 415 
Q 353 922 353 1747 
Q 353 2572 751 3078 
Q 1150 3584 1784 3584 
Q 2172 3584 2448 3432 
Q 2725 3281 2906 2969 
z
M 947 1747 
Q 947 1113 1208 752 
Q 1469 391 1925 391 
Q 2381 391 2643 752 
Q 2906 1113 2906 1747 
Q 2906 2381 2643 2742 
Q 2381 3103 1925 3103 
Q 1469 3103 1208 2742 
Q 947 2381 947 1747 
z
" transform="scale(0.015625)"/>
      <path id="DejaVuSans-2d" d="M 313 2009 
L 1997 2009 
L 1997 1497 
L 313 1497 
L 313 2009 
z
" transform="scale(0.015625)"/>
      <path id="DejaVuSans-57" d="M 213 4666 
L 850 4666 
L 1831 722 
L 2809 4666 
L 3519 4666 
L 4500 722 
L 5478 4666 
L 6119 4666 
L 4947 0 
L 4153 0 
L 3169 4050 
L 2175 0 
L 1381 0 
L 213 4666 
z
" transform="scale(0.015625)"/>
      <path id="DejaVuSans-54" d="M -19 4666 
L 3928 4666 
L 3928 4134 
L 2272 4134 
L 2272 0 
L 1638 0 
L 1638 4134 
L -19 4134 
L -19 4666 
z
" transform="scale(0.015625)"/>
      <path id="DejaVuSans-70" d="M 1159 525 
L 1159 -1331 
L 581 -1331 
L 581 3500 
L 1159 3500 
L 1159 2969 
Q 1341 3281 1617 3432 
Q 1894 3584 2278 3584 
Q 2916 3584 3314 3078 
Q 3713 2572 3713 1747 
Q 3713 922 3314 415 
Q 2916 -91 2278 -91 
Q 1894 -91 1617 61 
Q 1341 213 1159 525 
z
M 3116 1747 
Q 3116 2381 2855 2742 
Q 2594 3103 2138 3103 
Q 1681 3103 1420 2742 
Q 1159 2381 1159 1747 
Q 1159 1113 1420 752 
Q 1681 391 2138 391 
Q 2594 391 2855 752 
Q 3116 1113 3116 1747 
z
" transform="scale(0.015625)"/>
      <path id="DejaVuSans-71" d="M 947 1747 
Q 947 1113 1208 752 
Q 1469 391 1925 391 
Q 2381 391 2643 752 
Q 2906 1113 2906 1747 
Q 2906 2381 2643 2742 
Q 2381 3103 1925 3103 
Q 1469 3103 1208 2742 
Q 947 2381 947 1747 
z
M 2906 525 
Q 2725 213 2448 61 
Q 2172 -91 1784 -91 
Q 1150 -91 751 415 
Q 353 922 353 1747 
Q 353 2572 751 3078 
Q 1150 3584 1784 3584 
Q 2172 3584 2448 3432 
Q 2725 3281 2906 2969 
L 2906 3500 
L 3481 3500 
L 3481 -1331 
L 2906 -1331 
L 2906 525 
z
" transform="scale(0.015625)"/>
     </defs>
     <use xlink:href="#DejaVuSans-42"/>
     <use xlink:href="#DejaVuSans-6c" transform="translate(68.603516 0)"/>
     <use xlink:href="#DejaVuSans-6f" transform="translate(96.386719 0)"/>
     <use xlink:href="#DejaVuSans-63" transform="translate(157.568359 0)"/>
     <use xlink:href="#DejaVuSans-6b" transform="translate(212.548828 0)"/>
     <use xlink:href="#DejaVuSans-20" transform="translate(270.458984 0)"/>
     <use xlink:href="#DejaVuSans-53" transform="translate(302.246094 0)"/>
     <use xlink:href="#DejaVuSans-69" transform="translate(365.722656 0)"/>
     <use xlink:href="#DejaVuSans-7a" transform="translate(393.505859 0)"/>
     <use xlink:href="#DejaVuSans-65" transform="translate(445.996094 0)"/>
     <use xlink:href="#DejaVuSans-20" transform="translate(507.519531 0)"/>
     <use xlink:href="#DejaVuSans-3d" transform="translate(539.306641 0)"/>
     <use xlink:href="#DejaVuSans-20" transform="translate(623.095703 0)"/>
     <use xlink:href="#DejaVuSans-34" transform="translate(654.882812 0)"/>
     <use xlink:href="#DejaVuSans-4b" transform="translate(718.505859 0)"/>
     <use xlink:href="#DejaVuSans-2c" transform="translate(784.082031 0)"/>
     <use xlink:href="#DejaVuSans-20" transform="translate(815.869141 0)"/>
     <use xlink:href="#DejaVuSans-52" transform="translate(847.65625 0)"/>
     <use xlink:href="#DejaVuSans-65" transform="translate(912.638672 0)"/>
     <use xlink:href="#DejaVuSans-61" transform="translate(974.162109 0)"/>
     <use xlink:href="#DejaVuSans-64" transform="translate(1035.441406 0)"/>
     <use xlink:href="#DejaVuSans-2d" transform="translate(1098.917969 0)"/>
     <use xlink:href="#DejaVuSans-57" transform="translate(1131.001953 0)"/>
     <use xlink:href="#DejaVuSans-72" transform="translate(1225.378906 0)"/>
     <use xlink:href="#DejaVuSans-69" transform="translate(1266.492188 0)"/>
     <use xlink:href="#DejaVuSans-74" transform="translate(1294.275391 0)"/>
     <use xlink:href="#DejaVuSans-65" transform="translate(1333.484375 0)"/>
     <use xlink:href="#DejaVuSans-20" transform="translate(1395.007812 0)"/>
     <use xlink:href="#DejaVuSans-54" transform="translate(1426.794922 0)"/>
     <use xlink:href="#DejaVuSans-79" transform="translate(1472.253906 0)"/>
     <use xlink:href="#DejaVuSans-70" transform="translate(1531.433594 0)"/>
     <use xlink:href="#DejaVuSans-65" transform="translate(1594.910156 0)"/>
     <use xlink:href="#DejaVuSans-20" transform="translate(1656.433594 0)"/>
     <use xlink:href="#DejaVuSans-3d" transform="translate(1688.220703 0)"/>
     <use xlink:href="#DejaVuSans-20" transform="translate(1772.009766 0)"/>
     <use xlink:href="#DejaVuSans-53" transform="translate(1803.796875 0)"/>
     <use xlink:href="#DejaVuSans-65" transform="translate(1867.273438 0)"/>
     <use xlink:href="#DejaVuSans-71" transform="translate(1928.796875 0)"/>
     <use xlink:href="#DejaVuSans-75" transform="translate(1992.273438 0)"/>
     <use xlink:href="#DejaVuSans-65" transform="translate(2055.652344 0)"/>
     <use xlink:href="#DejaVuSans-6e" transform="translate(2117.175781 0)"/>
     <use xlink:href="#DejaVuSans-74" transform="translate(2180.554688 0)"/>
     <use xlink:href="#DejaVuSans-69" transform="translate(2219.763672 0)"/>
     <use xlink:href="#DejaVuSans-61" transform="translate(2247.546875 0)"/>
     <use xlink:href="#DejaVuSans-6c" transform="translate(2308.826172 0)"/>
     <use xlink:href="#DejaVuSans-20" transform="translate(2336.609375 0)"/>
     <use xlink:href="#DejaVuSans-57" transform="translate(2368.396484 0)"/>
     <use xlink:href="#DejaVuSans-72" transform="translate(2462.773438 0)"/>
     <use xlink:href="#DejaVuSans-69" transform="translate(2503.886719 0)"/>
     <use xlink:href="#DejaVuSans-74" transform="translate(2531.669922 0)"/>
     <use xlink:href="#DejaVuSans-65" transform="translate(2570.878906 0)"/>
     <use xlink:href="#DejaVuSans-2d" transform="translate(2632.402344 0)"/>
     <use xlink:href="#DejaVuSans-6f" transform="translate(2670.361328 0)"/>
     <use xlink:href="#DejaVuSans-6e" transform="translate(2731.542969 0)"/>
     <use xlink:href="#DejaVuSans-6c" transform="translate(2794.921875 0)"/>
     <use xlink:href="#DejaVuSans-79" transform="translate(2822.705078 0)"/>
    </g>
   </g>
   <g id="text_25">
    <!-- Mean Latency vs Number of Jobs -->
    <g style="fill: #262626" transform="translate(118.047813 16.318125) scale(0.12 -0.12)">
     <defs>
      <path id="DejaVuSans-Bold-4d" d="M 588 4666 
L 2119 4666 
L 3181 2169 
L 4250 4666 
L 5778 4666 
L 5778 0 
L 4641 0 
L 4641 3413 
L 3566 897 
L 2803 897 
L 1728 3413 
L 1728 0 
L 588 0 
L 588 4666 
z
" transform="scale(0.015625)"/>
      <path id="DejaVuSans-Bold-65" d="M 4031 1759 
L 4031 1441 
L 1416 1441 
Q 1456 1047 1700 850 
Q 1944 653 2381 653 
Q 2734 653 3104 758 
Q 3475 863 3866 1075 
L 3866 213 
Q 3469 63 3072 -14 
Q 2675 -91 2278 -91 
Q 1328 -91 801 392 
Q 275 875 275 1747 
Q 275 2603 792 3093 
Q 1309 3584 2216 3584 
Q 3041 3584 3536 3087 
Q 4031 2591 4031 1759 
z
M 2881 2131 
Q 2881 2450 2695 2645 
Q 2509 2841 2209 2841 
Q 1884 2841 1681 2658 
Q 1478 2475 1428 2131 
L 2881 2131 
z
" transform="scale(0.015625)"/>
      <path id="DejaVuSans-Bold-61" d="M 2106 1575 
Q 1756 1575 1579 1456 
Q 1403 1338 1403 1106 
Q 1403 894 1545 773 
Q 1688 653 1941 653 
Q 2256 653 2472 879 
Q 2688 1106 2688 1447 
L 2688 1575 
L 2106 1575 
z
M 3816 1997 
L 3816 0 
L 2688 0 
L 2688 519 
Q 2463 200 2181 54 
Q 1900 -91 1497 -91 
Q 953 -91 614 226 
Q 275 544 275 1050 
Q 275 1666 698 1953 
Q 1122 2241 2028 2241 
L 2688 2241 
L 2688 2328 
Q 2688 2594 2478 2717 
Q 2269 2841 1825 2841 
Q 1466 2841 1156 2769 
Q 847 2697 581 2553 
L 581 3406 
Q 941 3494 1303 3539 
Q 1666 3584 2028 3584 
Q 2975 3584 3395 3211 
Q 3816 2838 3816 1997 
z
" transform="scale(0.015625)"/>
      <path id="DejaVuSans-Bold-6e" d="M 4056 2131 
L 4056 0 
L 2931 0 
L 2931 347 
L 2931 1631 
Q 2931 2084 2911 2256 
Q 2891 2428 2841 2509 
Q 2775 2619 2662 2680 
Q 2550 2741 2406 2741 
Q 2056 2741 1856 2470 
Q 1656 2200 1656 1722 
L 1656 0 
L 538 0 
L 538 3500 
L 1656 3500 
L 1656 2988 
Q 1909 3294 2193 3439 
Q 2478 3584 2822 3584 
Q 3428 3584 3742 3212 
Q 4056 2841 4056 2131 
z
" transform="scale(0.015625)"/>
      <path id="DejaVuSans-Bold-20" transform="scale(0.015625)"/>
      <path id="DejaVuSans-Bold-4c" d="M 588 4666 
L 1791 4666 
L 1791 909 
L 3903 909 
L 3903 0 
L 588 0 
L 588 4666 
z
" transform="scale(0.015625)"/>
      <path id="DejaVuSans-Bold-74" d="M 1759 4494 
L 1759 3500 
L 2913 3500 
L 2913 2700 
L 1759 2700 
L 1759 1216 
Q 1759 972 1856 886 
Q 1953 800 2241 800 
L 2816 800 
L 2816 0 
L 1856 0 
Q 1194 0 917 276 
Q 641 553 641 1216 
L 641 2700 
L 84 2700 
L 84 3500 
L 641 3500 
L 641 4494 
L 1759 4494 
z
" transform="scale(0.015625)"/>
      <path id="DejaVuSans-Bold-63" d="M 3366 3391 
L 3366 2478 
Q 3138 2634 2908 2709 
Q 2678 2784 2431 2784 
Q 1963 2784 1702 2511 
Q 1441 2238 1441 1747 
Q 1441 1256 1702 982 
Q 1963 709 2431 709 
Q 2694 709 2930 787 
Q 3166 866 3366 1019 
L 3366 103 
Q 3103 6 2833 -42 
Q 2563 -91 2291 -91 
Q 1344 -91 809 395 
Q 275 881 275 1747 
Q 275 2613 809 3098 
Q 1344 3584 2291 3584 
Q 2566 3584 2833 3536 
Q 3100 3488 3366 3391 
z
" transform="scale(0.015625)"/>
      <path id="DejaVuSans-Bold-79" d="M 78 3500 
L 1197 3500 
L 2138 1125 
L 2938 3500 
L 4056 3500 
L 2584 -331 
Q 2363 -916 2067 -1148 
Q 1772 -1381 1288 -1381 
L 641 -1381 
L 641 -647 
L 991 -647 
Q 1275 -647 1404 -556 
Q 1534 -466 1606 -231 
L 1638 -134 
L 78 3500 
z
" transform="scale(0.015625)"/>
      <path id="DejaVuSans-Bold-76" d="M 97 3500 
L 1216 3500 
L 2088 1081 
L 2956 3500 
L 4078 3500 
L 2700 0 
L 1472 0 
L 97 3500 
z
" transform="scale(0.015625)"/>
      <path id="DejaVuSans-Bold-73" d="M 3272 3391 
L 3272 2541 
Q 2913 2691 2578 2766 
Q 2244 2841 1947 2841 
Q 1628 2841 1473 2761 
Q 1319 2681 1319 2516 
Q 1319 2381 1436 2309 
Q 1553 2238 1856 2203 
L 2053 2175 
Q 2913 2066 3209 1816 
Q 3506 1566 3506 1031 
Q 3506 472 3093 190 
Q 2681 -91 1863 -91 
Q 1516 -91 1145 -36 
Q 775 19 384 128 
L 384 978 
Q 719 816 1070 734 
Q 1422 653 1784 653 
Q 2113 653 2278 743 
Q 2444 834 2444 1013 
Q 2444 1163 2330 1236 
Q 2216 1309 1875 1350 
L 1678 1375 
Q 931 1469 631 1722 
Q 331 1975 331 2491 
Q 331 3047 712 3315 
Q 1094 3584 1881 3584 
Q 2191 3584 2531 3537 
Q 2872 3491 3272 3391 
z
" transform="scale(0.015625)"/>
      <path id="DejaVuSans-Bold-4e" d="M 588 4666 
L 1931 4666 
L 3628 1466 
L 3628 4666 
L 4769 4666 
L 4769 0 
L 3425 0 
L 1728 3200 
L 1728 0 
L 588 0 
L 588 4666 
z
" transform="scale(0.015625)"/>
      <path id="DejaVuSans-Bold-75" d="M 500 1363 
L 500 3500 
L 1625 3500 
L 1625 3150 
Q 1625 2866 1622 2436 
Q 1619 2006 1619 1863 
Q 1619 1441 1641 1255 
Q 1663 1069 1716 984 
Q 1784 875 1895 815 
Q 2006 756 2150 756 
Q 2500 756 2700 1025 
Q 2900 1294 2900 1772 
L 2900 3500 
L 4019 3500 
L 4019 0 
L 2900 0 
L 2900 506 
Q 2647 200 2364 54 
Q 2081 -91 1741 -91 
Q 1134 -91 817 281 
Q 500 653 500 1363 
z
" transform="scale(0.015625)"/>
      <path id="DejaVuSans-Bold-6d" d="M 3781 2919 
Q 3994 3244 4286 3414 
Q 4578 3584 4928 3584 
Q 5531 3584 5847 3212 
Q 6163 2841 6163 2131 
L 6163 0 
L 5038 0 
L 5038 1825 
Q 5041 1866 5042 1909 
Q 5044 1953 5044 2034 
Q 5044 2406 4934 2573 
Q 4825 2741 4581 2741 
Q 4263 2741 4089 2478 
Q 3916 2216 3909 1719 
L 3909 0 
L 2784 0 
L 2784 1825 
Q 2784 2406 2684 2573 
Q 2584 2741 2328 2741 
Q 2006 2741 1831 2477 
Q 1656 2213 1656 1722 
L 1656 0 
L 531 0 
L 531 3500 
L 1656 3500 
L 1656 2988 
Q 1863 3284 2130 3434 
Q 2397 3584 2719 3584 
Q 3081 3584 3359 3409 
Q 3638 3234 3781 2919 
z
" transform="scale(0.015625)"/>
      <path id="DejaVuSans-Bold-62" d="M 2400 722 
Q 2759 722 2948 984 
Q 3138 1247 3138 1747 
Q 3138 2247 2948 2509 
Q 2759 2772 2400 2772 
Q 2041 2772 1848 2508 
Q 1656 2244 1656 1747 
Q 1656 1250 1848 986 
Q 2041 722 2400 722 
z
M 1656 2988 
Q 1888 3294 2169 3439 
Q 2450 3584 2816 3584 
Q 3463 3584 3878 3070 
Q 4294 2556 4294 1747 
Q 4294 938 3878 423 
Q 3463 -91 2816 -91 
Q 2450 -91 2169 54 
Q 1888 200 1656 506 
L 1656 0 
L 538 0 
L 538 4863 
L 1656 4863 
L 1656 2988 
z
" transform="scale(0.015625)"/>
      <path id="DejaVuSans-Bold-72" d="M 3138 2547 
Q 2991 2616 2845 2648 
Q 2700 2681 2553 2681 
Q 2122 2681 1889 2404 
Q 1656 2128 1656 1613 
L 1656 0 
L 538 0 
L 538 3500 
L 1656 3500 
L 1656 2925 
Q 1872 3269 2151 3426 
Q 2431 3584 2822 3584 
Q 2878 3584 2943 3579 
Q 3009 3575 3134 3559 
L 3138 2547 
z
" transform="scale(0.015625)"/>
      <path id="DejaVuSans-Bold-6f" d="M 2203 2784 
Q 1831 2784 1636 2517 
Q 1441 2250 1441 1747 
Q 1441 1244 1636 976 
Q 1831 709 2203 709 
Q 2569 709 2762 976 
Q 2956 1244 2956 1747 
Q 2956 2250 2762 2517 
Q 2569 2784 2203 2784 
z
M 2203 3584 
Q 3106 3584 3614 3096 
Q 4122 2609 4122 1747 
Q 4122 884 3614 396 
Q 3106 -91 2203 -91 
Q 1297 -91 786 396 
Q 275 884 275 1747 
Q 275 2609 786 3096 
Q 1297 3584 2203 3584 
z
" transform="scale(0.015625)"/>
      <path id="DejaVuSans-Bold-66" d="M 2841 4863 
L 2841 4128 
L 2222 4128 
Q 1984 4128 1890 4042 
Q 1797 3956 1797 3744 
L 1797 3500 
L 2753 3500 
L 2753 2700 
L 1797 2700 
L 1797 0 
L 678 0 
L 678 2700 
L 122 2700 
L 122 3500 
L 678 3500 
L 678 3744 
Q 678 4316 997 4589 
Q 1316 4863 1984 4863 
L 2841 4863 
z
" transform="scale(0.015625)"/>
      <path id="DejaVuSans-Bold-4a" d="M 588 4666 
L 1791 4666 
L 1791 453 
Q 1791 -419 1317 -850 
Q 844 -1281 -116 -1281 
L -359 -1281 
L -359 -372 
L -172 -372 
Q 203 -372 395 -162 
Q 588 47 588 453 
L 588 4666 
z
" transform="scale(0.015625)"/>
     </defs>
     <use xlink:href="#DejaVuSans-Bold-4d"/>
     <use xlink:href="#DejaVuSans-Bold-65" transform="translate(99.511719 0)"/>
     <use xlink:href="#DejaVuSans-Bold-61" transform="translate(167.333984 0)"/>
     <use xlink:href="#DejaVuSans-Bold-6e" transform="translate(234.814453 0)"/>
     <use xlink:href="#DejaVuSans-Bold-20" transform="translate(306.005859 0)"/>
     <use xlink:href="#DejaVuSans-Bold-4c" transform="translate(340.820312 0)"/>
     <use xlink:href="#DejaVuSans-Bold-61" transform="translate(404.541016 0)"/>
     <use xlink:href="#DejaVuSans-Bold-74" transform="translate(472.021484 0)"/>
     <use xlink:href="#DejaVuSans-Bold-65" transform="translate(519.824219 0)"/>
     <use xlink:href="#DejaVuSans-Bold-6e" transform="translate(587.646484 0)"/>
     <use xlink:href="#DejaVuSans-Bold-63" transform="translate(658.837891 0)"/>
     <use xlink:href="#DejaVuSans-Bold-79" transform="translate(718.115234 0)"/>
     <use xlink:href="#DejaVuSans-Bold-20" transform="translate(783.300781 0)"/>
     <use xlink:href="#DejaVuSans-Bold-76" transform="translate(818.115234 0)"/>
     <use xlink:href="#DejaVuSans-Bold-73" transform="translate(883.300781 0)"/>
     <use xlink:href="#DejaVuSans-Bold-20" transform="translate(942.822266 0)"/>
     <use xlink:href="#DejaVuSans-Bold-4e" transform="translate(977.636719 0)"/>
     <use xlink:href="#DejaVuSans-Bold-75" transform="translate(1061.328125 0)"/>
     <use xlink:href="#DejaVuSans-Bold-6d" transform="translate(1132.519531 0)"/>
     <use xlink:href="#DejaVuSans-Bold-62" transform="translate(1236.71875 0)"/>
     <use xlink:href="#DejaVuSans-Bold-65" transform="translate(1308.300781 0)"/>
     <use xlink:href="#DejaVuSans-Bold-72" transform="translate(1376.123047 0)"/>
     <use xlink:href="#DejaVuSans-Bold-20" transform="translate(1425.439453 0)"/>
     <use xlink:href="#DejaVuSans-Bold-6f" transform="translate(1460.253906 0)"/>
     <use xlink:href="#DejaVuSans-Bold-66" transform="translate(1528.955078 0)"/>
     <use xlink:href="#DejaVuSans-Bold-20" transform="translate(1572.460938 0)"/>
     <use xlink:href="#DejaVuSans-Bold-4a" transform="translate(1607.275391 0)"/>
     <use xlink:href="#DejaVuSans-Bold-6f" transform="translate(1644.482422 0)"/>
     <use xlink:href="#DejaVuSans-Bold-62" transform="translate(1713.183594 0)"/>
     <use xlink:href="#DejaVuSans-Bold-73" transform="translate(1784.765625 0)"/>
    </g>
   </g>
   <g id="legend_1">
    <g id="text_26">
     <!-- IO Depth -->
     <g style="fill: #262626" transform="translate(441.770312 120.065663) scale(0.1 -0.1)">
      <defs>
       <path id="DejaVuSans-49" d="M 628 4666 
L 1259 4666 
L 1259 0 
L 628 0 
L 628 4666 
z
" transform="scale(0.015625)"/>
       <path id="DejaVuSans-4f" d="M 2522 4238 
Q 1834 4238 1429 3725 
Q 1025 3213 1025 2328 
Q 1025 1447 1429 934 
Q 1834 422 2522 422 
Q 3209 422 3611 934 
Q 4013 1447 4013 2328 
Q 4013 3213 3611 3725 
Q 3209 4238 2522 4238 
z
M 2522 4750 
Q 3503 4750 4090 4092 
Q 4678 3434 4678 2328 
Q 4678 1225 4090 567 
Q 3503 -91 2522 -91 
Q 1538 -91 948 565 
Q 359 1222 359 2328 
Q 359 3434 948 4092 
Q 1538 4750 2522 4750 
z
" transform="scale(0.015625)"/>
       <path id="DejaVuSans-44" d="M 1259 4147 
L 1259 519 
L 2022 519 
Q 2988 519 3436 956 
Q 3884 1394 3884 2338 
Q 3884 3275 3436 3711 
Q 2988 4147 2022 4147 
L 1259 4147 
z
M 628 4666 
L 1925 4666 
Q 3281 4666 3915 4102 
Q 4550 3538 4550 2338 
Q 4550 1131 3912 565 
Q 3275 0 1925 0 
L 628 0 
L 628 4666 
z
" transform="scale(0.015625)"/>
       <path id="DejaVuSans-68" d="M 3513 2113 
L 3513 0 
L 2938 0 
L 2938 2094 
Q 2938 2591 2744 2837 
Q 2550 3084 2163 3084 
Q 1697 3084 1428 2787 
Q 1159 2491 1159 1978 
L 1159 0 
L 581 0 
L 581 4863 
L 1159 4863 
L 1159 2956 
Q 1366 3272 1645 3428 
Q 1925 3584 2291 3584 
Q 2894 3584 3203 3211 
Q 3513 2838 3513 2113 
z
" transform="scale(0.015625)"/>
      </defs>
      <use xlink:href="#DejaVuSans-49"/>
      <use xlink:href="#DejaVuSans-4f" transform="translate(29.492188 0)"/>
      <use xlink:href="#DejaVuSans-20" transform="translate(108.203125 0)"/>
      <use xlink:href="#DejaVuSans-44" transform="translate(139.990234 0)"/>
      <use xlink:href="#DejaVuSans-65" transform="translate(216.992188 0)"/>
      <use xlink:href="#DejaVuSans-70" transform="translate(278.515625 0)"/>
      <use xlink:href="#DejaVuSans-74" transform="translate(341.992188 0)"/>
      <use xlink:href="#DejaVuSans-68" transform="translate(381.201172 0)"/>
     </g>
    </g>
    <g id="line2d_28">
     <path d="M 440.45625 131.243787 
L 450.45625 131.243787 
L 460.45625 131.243787 
" style="fill: none; stroke: #4c02a1; stroke-width: 1.5; stroke-linecap: round"/>
    </g>
    <g id="text_27">
     <!-- 1 -->
     <g style="fill: #262626" transform="translate(468.45625 134.743787) scale(0.1 -0.1)">
      <use xlink:href="#DejaVuSans-31"/>
     </g>
    </g>
    <g id="line2d_29">
     <path d="M 440.45625 145.921913 
L 450.45625 145.921913 
L 460.45625 145.921913 
" style="fill: none; stroke: #7e03a8; stroke-width: 1.5; stroke-linecap: round"/>
    </g>
    <g id="text_28">
     <!-- 4 -->
     <g style="fill: #262626" transform="translate(468.45625 149.421913) scale(0.1 -0.1)">
      <use xlink:href="#DejaVuSans-34"/>
     </g>
    </g>
    <g id="line2d_30">
     <path d="M 440.45625 160.600037 
L 450.45625 160.600037 
L 460.45625 160.600037 
" style="fill: none; stroke: #aa2395; stroke-width: 1.5; stroke-linecap: round"/>
    </g>
    <g id="text_29">
     <!-- 8 -->
     <g style="fill: #262626" transform="translate(468.45625 164.100037) scale(0.1 -0.1)">
      <use xlink:href="#DejaVuSans-38"/>
     </g>
    </g>
    <g id="line2d_31">
     <path d="M 440.45625 175.278163 
L 450.45625 175.278163 
L 460.45625 175.278163 
" style="fill: none; stroke: #cc4778; stroke-width: 1.5; stroke-linecap: round"/>
    </g>
    <g id="text_30">
     <!-- 16 -->
     <g style="fill: #262626" transform="translate(468.45625 178.778163) scale(0.1 -0.1)">
      <use xlink:href="#DejaVuSans-31"/>
      <use xlink:href="#DejaVuSans-36" transform="translate(63.623047 0)"/>
     </g>
    </g>
    <g id="line2d_32">
     <path d="M 440.45625 189.956288 
L 450.45625 189.956288 
L 460.45625 189.956288 
" style="fill: none; stroke: #e66c5c; stroke-width: 1.5; stroke-linecap: round"/>
    </g>
    <g id="text_31">
     <!-- 32 -->
     <g style="fill: #262626" transform="translate(468.45625 193.456288) scale(0.1 -0.1)">
      <use xlink:href="#DejaVuSans-33"/>
      <use xlink:href="#DejaVuSans-32" transform="translate(63.623047 0)"/>
     </g>
    </g>
    <g id="line2d_33">
     <path d="M 440.45625 204.634412 
L 450.45625 204.634412 
L 460.45625 204.634412 
" style="fill: none; stroke: #f89540; stroke-width: 1.5; stroke-linecap: round"/>
    </g>
    <g id="text_32">
     <!-- 64 -->
     <g style="fill: #262626" transform="translate(468.45625 208.134412) scale(0.1 -0.1)">
      <use xlink:href="#DejaVuSans-36"/>
      <use xlink:href="#DejaVuSans-34" transform="translate(63.623047 0)"/>
     </g>
    </g>
    <g id="line2d_34">
     <path d="M 440.45625 219.312537 
L 450.45625 219.312537 
L 460.45625 219.312537 
" style="fill: none; stroke: #fdc527; stroke-width: 1.5; stroke-linecap: round"/>
    </g>
    <g id="text_33">
     <!-- 128 -->
     <g style="fill: #262626" transform="translate(468.45625 222.812537) scale(0.1 -0.1)">
      <use xlink:href="#DejaVuSans-31"/>
      <use xlink:href="#DejaVuSans-32" transform="translate(63.623047 0)"/>
      <use xlink:href="#DejaVuSans-38" transform="translate(127.246094 0)"/>
     </g>
    </g>
   </g>
  </g>
 </g>
 <defs>
  <clipPath id="pad0f2122e8">
   <rect x="50.14375" y="35.623725" width="357.12" height="266.112"/>
  </clipPath>
 </defs>
</svg>
