<?xml version="1.0" encoding="utf-8" standalone="no"?>
<!DOCTYPE svg PUBLIC "-//W3C//DTD SVG 1.1//EN"
  "http://www.w3.org/Graphics/SVG/1.1/DTD/svg11.dtd">
<svg xmlns:xlink="http://www.w3.org/1999/xlink" width="482.840625pt" height="339.291975pt" viewBox="0 0 482.840625 339.291975" xmlns="http://www.w3.org/2000/svg" version="1.1">
 <metadata>
  <rdf:RDF xmlns:dc="http://purl.org/dc/elements/1.1/" xmlns:cc="http://creativecommons.org/ns#" xmlns:rdf="http://www.w3.org/1999/02/22-rdf-syntax-ns#">
   <cc:Work>
    <dc:type rdf:resource="http://purl.org/dc/dcmitype/StillImage"/>
    <dc:date>2025-09-11T11:47:24.698300</dc:date>
    <dc:format>image/svg+xml</dc:format>
    <dc:creator>
     <cc:Agent>
      <dc:title>Matplotlib v3.10.6, https://matplotlib.org/</dc:title>
     </cc:Agent>
    </dc:creator>
   </cc:Work>
  </rdf:RDF>
 </metadata>
 <defs>
  <style type="text/css">*{stroke-linejoin: round; stroke-linecap: butt}</style>
 </defs>
 <g id="figure_1">
  <g id="patch_1">
   <path d="M 0 339.291975 
L 482.840625 339.291975 
L 482.840625 0 
L 0 0 
z
" style="fill: #ffffff"/>
  </g>
  <g id="axes_1">
   <g id="patch_2">
    <path d="M 34.240625 301.735725 
L 391.360625 301.735725 
L 391.360625 35.623725 
L 34.240625 35.623725 
z
" style="fill: #ffffff"/>
   </g>
   <g id="matplotlib.axis_1">
    <g id="xtick_1">
     <g id="line2d_1">
      <path d="M 189.611015 301.735725 
L 189.611015 35.623725 
" clip-path="url(#p9b17723e12)" style="fill: none; stroke: #cccccc; stroke-width: 0.8; stroke-linecap: round"/>
     </g>
     <g id="text_1">
      <!-- 64 -->
      <g style="fill: #262626" transform="translate(183.248515 316.334162) scale(0.1 -0.1)">
       <defs>
        <path id="DejaVuSans-36" d="M 2113 2584 
Q 1688 2584 1439 2293 
Q 1191 2003 1191 1497 
Q 1191 994 1439 701 
Q 1688 409 2113 409 
Q 2538 409 2786 701 
Q 3034 994 3034 1497 
Q 3034 2003 2786 2293 
Q 2538 2584 2113 2584 
z
M 3366 4563 
L 3366 3988 
Q 3128 4100 2886 4159 
Q 2644 4219 2406 4219 
Q 1781 4219 1451 3797 
Q 1122 3375 1075 2522 
Q 1259 2794 1537 2939 
Q 1816 3084 2150 3084 
Q 2853 3084 3261 2657 
Q 3669 2231 3669 1497 
Q 3669 778 3244 343 
Q 2819 -91 2113 -91 
Q 1303 -91 875 529 
Q 447 1150 447 2328 
Q 447 3434 972 4092 
Q 1497 4750 2381 4750 
Q 2619 4750 2861 4703 
Q 3103 4656 3366 4563 
z
" transform="scale(0.015625)"/>
        <path id="DejaVuSans-34" d="M 2419 4116 
L 825 1625 
L 2419 1625 
L 2419 4116 
z
M 2253 4666 
L 3047 4666 
L 3047 1625 
L 3713 1625 
L 3713 1100 
L 3047 1100 
L 3047 0 
L 2419 0 
L 2419 1100 
L 313 1100 
L 313 1709 
L 2253 4666 
z
" transform="scale(0.015625)"/>
       </defs>
       <use xlink:href="#DejaVuSans-36"/>
       <use xlink:href="#DejaVuSans-34" transform="translate(63.623047 0)"/>
      </g>
     </g>
    </g>
    <g id="xtick_2">
     <g id="line2d_2">
      <path d="M 96.852573 301.735725 
L 96.852573 35.623725 
" clip-path="url(#p9b17723e12)" style="fill: none; stroke: #cccccc; stroke-width: 0.8; stroke-linecap: round"/>
     </g>
     <g id="text_2">
      <!-- 32 -->
      <g style="fill: #262626" transform="translate(90.490073 316.334162) scale(0.1 -0.1)">
       <defs>
        <path id="DejaVuSans-33" d="M 2597 2516 
Q 3050 2419 3304 2112 
Q 3559 1806 3559 1356 
Q 3559 666 3084 287 
Q 2609 -91 1734 -91 
Q 1441 -91 1130 -33 
Q 819 25 488 141 
L 488 750 
Q 750 597 1062 519 
Q 1375 441 1716 441 
Q 2309 441 2620 675 
Q 2931 909 2931 1356 
Q 2931 1769 2642 2001 
Q 2353 2234 1838 2234 
L 1294 2234 
L 1294 2753 
L 1863 2753 
Q 2328 2753 2575 2939 
Q 2822 3125 2822 3475 
Q 2822 3834 2567 4026 
Q 2313 4219 1838 4219 
Q 1578 4219 1281 4162 
Q 984 4106 628 3988 
L 628 4550 
Q 988 4650 1302 4700 
Q 1616 4750 1894 4750 
Q 2613 4750 3031 4423 
Q 3450 4097 3450 3541 
Q 3450 3153 3228 2886 
Q 3006 2619 2597 2516 
z
" transform="scale(0.015625)"/>
        <path id="DejaVuSans-32" d="M 1228 531 
L 3431 531 
L 3431 0 
L 469 0 
L 469 531 
Q 828 903 1448 1529 
Q 2069 2156 2228 2338 
Q 2531 2678 2651 2914 
Q 2772 3150 2772 3378 
Q 2772 3750 2511 3984 
Q 2250 4219 1831 4219 
Q 1534 4219 1204 4116 
Q 875 4013 500 3803 
L 500 4441 
Q 881 4594 1212 4672 
Q 1544 4750 1819 4750 
Q 2544 4750 2975 4387 
Q 3406 4025 3406 3419 
Q 3406 3131 3298 2873 
Q 3191 2616 2906 2266 
Q 2828 2175 2409 1742 
Q 1991 1309 1228 531 
z
" transform="scale(0.015625)"/>
       </defs>
       <use xlink:href="#DejaVuSans-33"/>
       <use xlink:href="#DejaVuSans-32" transform="translate(63.623047 0)"/>
      </g>
     </g>
    </g>
    <g id="xtick_3">
     <g id="line2d_3">
      <path d="M 50.473352 301.735725 
L 50.473352 35.623725 
" clip-path="url(#p9b17723e12)" style="fill: none; stroke: #cccccc; stroke-width: 0.8; stroke-linecap: round"/>
     </g>
     <g id="text_3">
      <!-- 16 -->
      <g style="fill: #262626" transform="translate(44.110852 316.334162) scale(0.1 -0.1)">
       <defs>
        <path id="DejaVuSans-31" d="M 794 531 
L 1825 531 
L 1825 4091 
L 703 3866 
L 703 4441 
L 1819 4666 
L 2450 4666 
L 2450 531 
L 3481 531 
L 3481 0 
L 794 0 
L 794 531 
z
" transform="scale(0.015625)"/>
       </defs>
       <use xlink:href="#DejaVuSans-31"/>
       <use xlink:href="#DejaVuSans-36" transform="translate(63.623047 0)"/>
      </g>
     </g>
    </g>
    <g id="xtick_4">
     <g id="line2d_4">
      <path d="M 375.127898 301.735725 
L 375.127898 35.623725 
" clip-path="url(#p9b17723e12)" style="fill: none; stroke: #cccccc; stroke-width: 0.8; stroke-linecap: round"/>
     </g>
     <g id="text_4">
      <!-- 128 -->
      <g style="fill: #262626" transform="translate(365.584148 316.334162) scale(0.1 -0.1)">
       <defs>
        <path id="DejaVuSans-38" d="M 2034 2216 
Q 1584 2216 1326 1975 
Q 1069 1734 1069 1313 
Q 1069 891 1326 650 
Q 1584 409 2034 409 
Q 2484 409 2743 651 
Q 3003 894 3003 1313 
Q 3003 1734 2745 1975 
Q 2488 2216 2034 2216 
z
M 1403 2484 
Q 997 2584 770 2862 
Q 544 3141 544 3541 
Q 544 4100 942 4425 
Q 1341 4750 2034 4750 
Q 2731 4750 3128 4425 
Q 3525 4100 3525 3541 
Q 3525 3141 3298 2862 
Q 3072 2584 2669 2484 
Q 3125 2378 3379 2068 
Q 3634 1759 3634 1313 
Q 3634 634 3220 271 
Q 2806 -91 2034 -91 
Q 1263 -91 848 271 
Q 434 634 434 1313 
Q 434 1759 690 2068 
Q 947 2378 1403 2484 
z
M 1172 3481 
Q 1172 3119 1398 2916 
Q 1625 2713 2034 2713 
Q 2441 2713 2670 2916 
Q 2900 3119 2900 3481 
Q 2900 3844 2670 4047 
Q 2441 4250 2034 4250 
Q 1625 4250 1398 4047 
Q 1172 3844 1172 3481 
z
" transform="scale(0.015625)"/>
       </defs>
       <use xlink:href="#DejaVuSans-31"/>
       <use xlink:href="#DejaVuSans-32" transform="translate(63.623047 0)"/>
       <use xlink:href="#DejaVuSans-38" transform="translate(127.246094 0)"/>
      </g>
     </g>
    </g>
    <g id="text_5">
     <!-- Number of Jobs -->
     <g style="fill: #262626" transform="translate(174.40375 330.012287) scale(0.1 -0.1)">
      <defs>
       <path id="DejaVuSans-4e" d="M 628 4666 
L 1478 4666 
L 3547 763 
L 3547 4666 
L 4159 4666 
L 4159 0 
L 3309 0 
L 1241 3903 
L 1241 0 
L 628 0 
L 628 4666 
z
" transform="scale(0.015625)"/>
       <path id="DejaVuSans-75" d="M 544 1381 
L 544 3500 
L 1119 3500 
L 1119 1403 
Q 1119 906 1312 657 
Q 1506 409 1894 409 
Q 2359 409 2629 706 
Q 2900 1003 2900 1516 
L 2900 3500 
L 3475 3500 
L 3475 0 
L 2900 0 
L 2900 538 
Q 2691 219 2414 64 
Q 2138 -91 1772 -91 
Q 1169 -91 856 284 
Q 544 659 544 1381 
z
M 1991 3584 
L 1991 3584 
z
" transform="scale(0.015625)"/>
       <path id="DejaVuSans-6d" d="M 3328 2828 
Q 3544 3216 3844 3400 
Q 4144 3584 4550 3584 
Q 5097 3584 5394 3201 
Q 5691 2819 5691 2113 
L 5691 0 
L 5113 0 
L 5113 2094 
Q 5113 2597 4934 2840 
Q 4756 3084 4391 3084 
Q 3944 3084 3684 2787 
Q 3425 2491 3425 1978 
L 3425 0 
L 2847 0 
L 2847 2094 
Q 2847 2600 2669 2842 
Q 2491 3084 2119 3084 
Q 1678 3084 1418 2786 
Q 1159 2488 1159 1978 
L 1159 0 
L 581 0 
L 581 3500 
L 1159 3500 
L 1159 2956 
Q 1356 3278 1631 3431 
Q 1906 3584 2284 3584 
Q 2666 3584 2933 3390 
Q 3200 3197 3328 2828 
z
" transform="scale(0.015625)"/>
       <path id="DejaVuSans-62" d="M 3116 1747 
Q 3116 2381 2855 2742 
Q 2594 3103 2138 3103 
Q 1681 3103 1420 2742 
Q 1159 2381 1159 1747 
Q 1159 1113 1420 752 
Q 1681 391 2138 391 
Q 2594 391 2855 752 
Q 3116 1113 3116 1747 
z
M 1159 2969 
Q 1341 3281 1617 3432 
Q 1894 3584 2278 3584 
Q 2916 3584 3314 3078 
Q 3713 2572 3713 1747 
Q 3713 922 3314 415 
Q 2916 -91 2278 -91 
Q 1894 -91 1617 61 
Q 1341 213 1159 525 
L 1159 0 
L 581 0 
L 581 4863 
L 1159 4863 
L 1159 2969 
z
" transform="scale(0.015625)"/>
       <path id="DejaVuSans-65" d="M 3597 1894 
L 3597 1613 
L 953 1613 
Q 991 1019 1311 708 
Q 1631 397 2203 397 
Q 2534 397 2845 478 
Q 3156 559 3463 722 
L 3463 178 
Q 3153 47 2828 -22 
Q 2503 -91 2169 -91 
Q 1331 -91 842 396 
Q 353 884 353 1716 
Q 353 2575 817 3079 
Q 1281 3584 2069 3584 
Q 2775 3584 3186 3129 
Q 3597 2675 3597 1894 
z
M 3022 2063 
Q 3016 2534 2758 2815 
Q 2500 3097 2075 3097 
Q 1594 3097 1305 2825 
Q 1016 2553 972 2059 
L 3022 2063 
z
" transform="scale(0.015625)"/>
       <path id="DejaVuSans-72" d="M 2631 2963 
Q 2534 3019 2420 3045 
Q 2306 3072 2169 3072 
Q 1681 3072 1420 2755 
Q 1159 2438 1159 1844 
L 1159 0 
L 581 0 
L 581 3500 
L 1159 3500 
L 1159 2956 
Q 1341 3275 1631 3429 
Q 1922 3584 2338 3584 
Q 2397 3584 2469 3576 
Q 2541 3569 2628 3553 
L 2631 2963 
z
" transform="scale(0.015625)"/>
       <path id="DejaVuSans-20" transform="scale(0.015625)"/>
       <path id="DejaVuSans-6f" d="M 1959 3097 
Q 1497 3097 1228 2736 
Q 959 2375 959 1747 
Q 959 1119 1226 758 
Q 1494 397 1959 397 
Q 2419 397 2687 759 
Q 2956 1122 2956 1747 
Q 2956 2369 2687 2733 
Q 2419 3097 1959 3097 
z
M 1959 3584 
Q 2709 3584 3137 3096 
Q 3566 2609 3566 1747 
Q 3566 888 3137 398 
Q 2709 -91 1959 -91 
Q 1206 -91 779 398 
Q 353 888 353 1747 
Q 353 2609 779 3096 
Q 1206 3584 1959 3584 
z
" transform="scale(0.015625)"/>
       <path id="DejaVuSans-66" d="M 2375 4863 
L 2375 4384 
L 1825 4384 
Q 1516 4384 1395 4259 
Q 1275 4134 1275 3809 
L 1275 3500 
L 2222 3500 
L 2222 3053 
L 1275 3053 
L 1275 0 
L 697 0 
L 697 3053 
L 147 3053 
L 147 3500 
L 697 3500 
L 697 3744 
Q 697 4328 969 4595 
Q 1241 4863 1831 4863 
L 2375 4863 
z
" transform="scale(0.015625)"/>
       <path id="DejaVuSans-4a" d="M 628 4666 
L 1259 4666 
L 1259 325 
Q 1259 -519 939 -900 
Q 619 -1281 -91 -1281 
L -331 -1281 
L -331 -750 
L -134 -750 
Q 284 -750 456 -515 
Q 628 -281 628 325 
L 628 4666 
z
" transform="scale(0.015625)"/>
       <path id="DejaVuSans-73" d="M 2834 3397 
L 2834 2853 
Q 2591 2978 2328 3040 
Q 2066 3103 1784 3103 
Q 1356 3103 1142 2972 
Q 928 2841 928 2578 
Q 928 2378 1081 2264 
Q 1234 2150 1697 2047 
L 1894 2003 
Q 2506 1872 2764 1633 
Q 3022 1394 3022 966 
Q 3022 478 2636 193 
Q 2250 -91 1575 -91 
Q 1294 -91 989 -36 
Q 684 19 347 128 
L 347 722 
Q 666 556 975 473 
Q 1284 391 1588 391 
Q 1994 391 2212 530 
Q 2431 669 2431 922 
Q 2431 1156 2273 1281 
Q 2116 1406 1581 1522 
L 1381 1569 
Q 847 1681 609 1914 
Q 372 2147 372 2553 
Q 372 3047 722 3315 
Q 1072 3584 1716 3584 
Q 2034 3584 2315 3537 
Q 2597 3491 2834 3397 
z
" transform="scale(0.015625)"/>
      </defs>
      <use xlink:href="#DejaVuSans-4e"/>
      <use xlink:href="#DejaVuSans-75" transform="translate(74.804688 0)"/>
      <use xlink:href="#DejaVuSans-6d" transform="translate(138.183594 0)"/>
      <use xlink:href="#DejaVuSans-62" transform="translate(235.595703 0)"/>
      <use xlink:href="#DejaVuSans-65" transform="translate(299.072266 0)"/>
      <use xlink:href="#DejaVuSans-72" transform="translate(360.595703 0)"/>
      <use xlink:href="#DejaVuSans-20" transform="translate(401.708984 0)"/>
      <use xlink:href="#DejaVuSans-6f" transform="translate(433.496094 0)"/>
      <use xlink:href="#DejaVuSans-66" transform="translate(494.677734 0)"/>
      <use xlink:href="#DejaVuSans-20" transform="translate(529.882812 0)"/>
      <use xlink:href="#DejaVuSans-4a" transform="translate(561.669922 0)"/>
      <use xlink:href="#DejaVuSans-6f" transform="translate(591.162109 0)"/>
      <use xlink:href="#DejaVuSans-62" transform="translate(652.34375 0)"/>
      <use xlink:href="#DejaVuSans-73" transform="translate(715.820312 0)"/>
     </g>
    </g>
   </g>
   <g id="matplotlib.axis_2">
    <g id="ytick_1">
     <g id="line2d_5">
      <path d="M 34.240625 259.577263 
L 391.360625 259.577263 
" clip-path="url(#p9b17723e12)" style="fill: none; stroke: #cccccc; stroke-width: 0.8; stroke-linecap: round"/>
     </g>
     <g id="text_6">
      <!-- 1 -->
      <g style="fill: #262626" transform="translate(20.878125 263.376481) scale(0.1 -0.1)">
       <use xlink:href="#DejaVuSans-31"/>
      </g>
     </g>
    </g>
    <g id="ytick_2">
     <g id="line2d_6">
      <path d="M 34.240625 203.899993 
L 391.360625 203.899993 
" clip-path="url(#p9b17723e12)" style="fill: none; stroke: #cccccc; stroke-width: 0.8; stroke-linecap: round"/>
     </g>
     <g id="text_7">
      <!-- 2 -->
      <g style="fill: #262626" transform="translate(20.878125 207.699211) scale(0.1 -0.1)">
       <use xlink:href="#DejaVuSans-32"/>
      </g>
     </g>
    </g>
    <g id="ytick_3">
     <g id="line2d_7">
      <path d="M 34.240625 148.222723 
L 391.360625 148.222723 
" clip-path="url(#p9b17723e12)" style="fill: none; stroke: #cccccc; stroke-width: 0.8; stroke-linecap: round"/>
     </g>
     <g id="text_8">
      <!-- 3 -->
      <g style="fill: #262626" transform="translate(20.878125 152.021942) scale(0.1 -0.1)">
       <use xlink:href="#DejaVuSans-33"/>
      </g>
     </g>
    </g>
    <g id="ytick_4">
     <g id="line2d_8">
      <path d="M 34.240625 92.545453 
L 391.360625 92.545453 
" clip-path="url(#p9b17723e12)" style="fill: none; stroke: #cccccc; stroke-width: 0.8; stroke-linecap: round"/>
     </g>
     <g id="text_9">
      <!-- 4 -->
      <g style="fill: #262626" transform="translate(20.878125 96.344672) scale(0.1 -0.1)">
       <use xlink:href="#DejaVuSans-34"/>
      </g>
     </g>
    </g>
    <g id="ytick_5">
     <g id="line2d_9">
      <path d="M 34.240625 36.868183 
L 391.360625 36.868183 
" clip-path="url(#p9b17723e12)" style="fill: none; stroke: #cccccc; stroke-width: 0.8; stroke-linecap: round"/>
     </g>
     <g id="text_10">
      <!-- 5 -->
      <g style="fill: #262626" transform="translate(20.878125 40.667402) scale(0.1 -0.1)">
       <defs>
        <path id="DejaVuSans-35" d="M 691 4666 
L 3169 4666 
L 3169 4134 
L 1269 4134 
L 1269 2991 
Q 1406 3038 1543 3061 
Q 1681 3084 1819 3084 
Q 2600 3084 3056 2656 
Q 3513 2228 3513 1497 
Q 3513 744 3044 326 
Q 2575 -91 1722 -91 
Q 1428 -91 1123 -41 
Q 819 9 494 109 
L 494 744 
Q 775 591 1075 516 
Q 1375 441 1709 441 
Q 2250 441 2565 725 
Q 2881 1009 2881 1497 
Q 2881 1984 2565 2268 
Q 2250 2553 1709 2553 
Q 1456 2553 1204 2497 
Q 953 2441 691 2322 
L 691 4666 
z
" transform="scale(0.015625)"/>
       </defs>
       <use xlink:href="#DejaVuSans-35"/>
      </g>
     </g>
    </g>
    <g id="text_11">
     <!-- Mean Latency (ns) -->
     <g style="fill: #262626" transform="translate(14.798438 214.92035) rotate(-90) scale(0.1 -0.1)">
      <defs>
       <path id="DejaVuSans-4d" d="M 628 4666 
L 1569 4666 
L 2759 1491 
L 3956 4666 
L 4897 4666 
L 4897 0 
L 4281 0 
L 4281 4097 
L 3078 897 
L 2444 897 
L 1241 4097 
L 1241 0 
L 628 0 
L 628 4666 
z
" transform="scale(0.015625)"/>
       <path id="DejaVuSans-61" d="M 2194 1759 
Q 1497 1759 1228 1600 
Q 959 1441 959 1056 
Q 959 750 1161 570 
Q 1363 391 1709 391 
Q 2188 391 2477 730 
Q 2766 1069 2766 1631 
L 2766 1759 
L 2194 1759 
z
M 3341 1997 
L 3341 0 
L 2766 0 
L 2766 531 
Q 2569 213 2275 61 
Q 1981 -91 1556 -91 
Q 1019 -91 701 211 
Q 384 513 384 1019 
Q 384 1609 779 1909 
Q 1175 2209 1959 2209 
L 2766 2209 
L 2766 2266 
Q 2766 2663 2505 2880 
Q 2244 3097 1772 3097 
Q 1472 3097 1187 3025 
Q 903 2953 641 2809 
L 641 3341 
Q 956 3463 1253 3523 
Q 1550 3584 1831 3584 
Q 2591 3584 2966 3190 
Q 3341 2797 3341 1997 
z
" transform="scale(0.015625)"/>
       <path id="DejaVuSans-6e" d="M 3513 2113 
L 3513 0 
L 2938 0 
L 2938 2094 
Q 2938 2591 2744 2837 
Q 2550 3084 2163 3084 
Q 1697 3084 1428 2787 
Q 1159 2491 1159 1978 
L 1159 0 
L 581 0 
L 581 3500 
L 1159 3500 
L 1159 2956 
Q 1366 3272 1645 3428 
Q 1925 3584 2291 3584 
Q 2894 3584 3203 3211 
Q 3513 2838 3513 2113 
z
" transform="scale(0.015625)"/>
       <path id="DejaVuSans-4c" d="M 628 4666 
L 1259 4666 
L 1259 531 
L 3531 531 
L 3531 0 
L 628 0 
L 628 4666 
z
" transform="scale(0.015625)"/>
       <path id="DejaVuSans-74" d="M 1172 4494 
L 1172 3500 
L 2356 3500 
L 2356 3053 
L 1172 3053 
L 1172 1153 
Q 1172 725 1289 603 
Q 1406 481 1766 481 
L 2356 481 
L 2356 0 
L 1766 0 
Q 1100 0 847 248 
Q 594 497 594 1153 
L 594 3053 
L 172 3053 
L 172 3500 
L 594 3500 
L 594 4494 
L 1172 4494 
z
" transform="scale(0.015625)"/>
       <path id="DejaVuSans-63" d="M 3122 3366 
L 3122 2828 
Q 2878 2963 2633 3030 
Q 2388 3097 2138 3097 
Q 1578 3097 1268 2742 
Q 959 2388 959 1747 
Q 959 1106 1268 751 
Q 1578 397 2138 397 
Q 2388 397 2633 464 
Q 2878 531 3122 666 
L 3122 134 
Q 2881 22 2623 -34 
Q 2366 -91 2075 -91 
Q 1284 -91 818 406 
Q 353 903 353 1747 
Q 353 2603 823 3093 
Q 1294 3584 2113 3584 
Q 2378 3584 2631 3529 
Q 2884 3475 3122 3366 
z
" transform="scale(0.015625)"/>
       <path id="DejaVuSans-79" d="M 2059 -325 
Q 1816 -950 1584 -1140 
Q 1353 -1331 966 -1331 
L 506 -1331 
L 506 -850 
L 844 -850 
Q 1081 -850 1212 -737 
Q 1344 -625 1503 -206 
L 1606 56 
L 191 3500 
L 800 3500 
L 1894 763 
L 2988 3500 
L 3597 3500 
L 2059 -325 
z
" transform="scale(0.015625)"/>
       <path id="DejaVuSans-28" d="M 1984 4856 
Q 1566 4138 1362 3434 
Q 1159 2731 1159 2009 
Q 1159 1288 1364 580 
Q 1569 -128 1984 -844 
L 1484 -844 
Q 1016 -109 783 600 
Q 550 1309 550 2009 
Q 550 2706 781 3412 
Q 1013 4119 1484 4856 
L 1984 4856 
z
" transform="scale(0.015625)"/>
       <path id="DejaVuSans-29" d="M 513 4856 
L 1013 4856 
Q 1481 4119 1714 3412 
Q 1947 2706 1947 2009 
Q 1947 1309 1714 600 
Q 1481 -109 1013 -844 
L 513 -844 
Q 928 -128 1133 580 
Q 1338 1288 1338 2009 
Q 1338 2731 1133 3434 
Q 928 4138 513 4856 
z
" transform="scale(0.015625)"/>
      </defs>
      <use xlink:href="#DejaVuSans-4d"/>
      <use xlink:href="#DejaVuSans-65" transform="translate(86.279297 0)"/>
      <use xlink:href="#DejaVuSans-61" transform="translate(147.802734 0)"/>
      <use xlink:href="#DejaVuSans-6e" transform="translate(209.082031 0)"/>
      <use xlink:href="#DejaVuSans-20" transform="translate(272.460938 0)"/>
      <use xlink:href="#DejaVuSans-4c" transform="translate(304.248047 0)"/>
      <use xlink:href="#DejaVuSans-61" transform="translate(359.960938 0)"/>
      <use xlink:href="#DejaVuSans-74" transform="translate(421.240234 0)"/>
      <use xlink:href="#DejaVuSans-65" transform="translate(460.449219 0)"/>
      <use xlink:href="#DejaVuSans-6e" transform="translate(521.972656 0)"/>
      <use xlink:href="#DejaVuSans-63" transform="translate(585.351562 0)"/>
      <use xlink:href="#DejaVuSans-79" transform="translate(640.332031 0)"/>
      <use xlink:href="#DejaVuSans-20" transform="translate(699.511719 0)"/>
      <use xlink:href="#DejaVuSans-28" transform="translate(731.298828 0)"/>
      <use xlink:href="#DejaVuSans-6e" transform="translate(770.3125 0)"/>
      <use xlink:href="#DejaVuSans-73" transform="translate(833.691406 0)"/>
      <use xlink:href="#DejaVuSans-29" transform="translate(885.791016 0)"/>
     </g>
    </g>
    <g id="text_12">
     <!-- 1e7 -->
     <g style="fill: #262626" transform="translate(34.240625 32.623725) scale(0.1 -0.1)">
      <defs>
       <path id="DejaVuSans-37" d="M 525 4666 
L 3525 4666 
L 3525 4397 
L 1831 0 
L 1172 0 
L 2766 4134 
L 525 4134 
L 525 4666 
z
" transform="scale(0.015625)"/>
      </defs>
      <use xlink:href="#DejaVuSans-31"/>
      <use xlink:href="#DejaVuSans-65" transform="translate(63.623047 0)"/>
      <use xlink:href="#DejaVuSans-37" transform="translate(125.146484 0)"/>
     </g>
    </g>
   </g>
   <g id="FillBetweenPolyCollection_1"/>
   <g id="FillBetweenPolyCollection_2"/>
   <g id="FillBetweenPolyCollection_3"/>
   <g id="FillBetweenPolyCollection_4"/>
   <g id="FillBetweenPolyCollection_5"/>
   <g id="FillBetweenPolyCollection_6"/>
   <g id="FillBetweenPolyCollection_7"/>
   <g id="line2d_10">
    <path d="M 50.473352 288.018137 
L 96.852573 251.097971 
L 189.611015 172.946209 
L 375.127898 55.478747 
" clip-path="url(#p9b17723e12)" style="fill: none; stroke: #4c02a1; stroke-width: 1.5; stroke-linecap: round"/>
   </g>
   <g id="line2d_11">
    <path d="M 50.473352 289.639725 
L 96.852573 257.032841 
L 189.611015 209.961784 
L 375.127898 127.350511 
" clip-path="url(#p9b17723e12)" style="fill: none; stroke: #7e03a8; stroke-width: 1.5; stroke-linecap: round"/>
   </g>
   <g id="line2d_12">
    <path d="M 50.473352 288.664015 
L 96.852573 250.717948 
L 189.611015 210.764069 
L 375.127898 47.719725 
" clip-path="url(#p9b17723e12)" style="fill: none; stroke: #aa2395; stroke-width: 1.5; stroke-linecap: round"/>
   </g>
   <g id="line2d_13">
    <path d="M 50.473352 289.547995 
L 96.852573 249.086907 
L 189.611015 210.18226 
L 375.127898 127.218285 
" clip-path="url(#p9b17723e12)" style="fill: none; stroke: #cc4778; stroke-width: 1.5; stroke-linecap: round"/>
   </g>
   <g id="line2d_14">
    <path d="M 50.473352 284.528667 
L 96.852573 250.305971 
L 189.611015 209.972853 
L 375.127898 127.767227 
" clip-path="url(#p9b17723e12)" style="fill: none; stroke: #e66c5c; stroke-width: 1.5; stroke-linecap: round"/>
   </g>
   <g id="line2d_15">
    <path d="M 50.473352 280.834063 
L 96.852573 250.526484 
L 189.611015 210.626045 
L 375.127898 128.86096 
" clip-path="url(#p9b17723e12)" style="fill: none; stroke: #f89540; stroke-width: 1.5; stroke-linecap: round"/>
   </g>
   <g id="line2d_16">
    <path d="M 50.473352 283.509343 
L 96.852573 257.467962 
L 189.611015 210.302681 
L 375.127898 129.378925 
" clip-path="url(#p9b17723e12)" style="fill: none; stroke: #fdc527; stroke-width: 1.5; stroke-linecap: round"/>
   </g>
   <g id="line2d_17"/>
   <g id="line2d_18"/>
   <g id="line2d_19"/>
   <g id="line2d_20"/>
   <g id="line2d_21"/>
   <g id="line2d_22"/>
   <g id="line2d_23"/>
   <g id="text_13">
    <path d="M 91.956156 257.462214 
L 93.216512 256.458908 
L 89.752139 252.106951 
L 88.599495 253.473866 
L 88.039941 252.770952 
L 89.185249 251.409876 
L 89.956621 250.795826 
L 93.980549 255.850696 
L 95.240905 254.84739 
L 95.757642 255.496516 
L 92.472893 258.11134 
L 91.956156 257.462214 
z
" clip-path="url(#p9b17723e12)" style="fill: #4c02a1; stroke: #ffffff; stroke-width: 5"/>
    <path d="M 91.956156 257.462214 
L 93.216512 256.458908 
L 89.752139 252.106951 
L 88.599495 253.473866 
L 88.039941 252.770952 
L 89.185249 251.409876 
L 89.956621 250.795826 
L 93.980549 255.850696 
L 95.240905 254.84739 
L 95.757642 255.496516 
L 92.472893 258.11134 
L 91.956156 257.462214 
z
" clip-path="url(#p9b17723e12)" style="fill: #4c02a1"/>
   </g>
   <g id="text_14">
    <path d="M 131.320661 235.424116 
L 130.860962 240.022052 
L 133.081979 238.894978 
L 131.320661 235.424116 
z
M 130.700473 234.775142 
L 131.806802 234.213726 
L 133.95701 238.450936 
L 134.884988 237.980026 
L 135.256202 238.71154 
L 134.328223 239.182451 
L 135.106003 240.715148 
L 134.230973 241.159189 
L 133.453193 239.626492 
L 130.518775 241.115588 
L 130.088167 240.267031 
L 130.700473 234.775142 
z
" clip-path="url(#p9b17723e12)" style="fill: #7e03a8; stroke: #ffffff; stroke-width: 5"/>
    <path d="M 131.320661 235.424116 
L 130.860962 240.022052 
L 133.081979 238.894978 
L 131.320661 235.424116 
z
M 130.700473 234.775142 
L 131.806802 234.213726 
L 133.95701 238.450936 
L 134.884988 237.980026 
L 135.256202 238.71154 
L 134.328223 239.182451 
L 135.106003 240.715148 
L 134.230973 241.159189 
L 133.453193 239.626492 
L 130.518775 241.115588 
L 130.088167 240.267031 
L 130.700473 234.775142 
z
" clip-path="url(#p9b17723e12)" style="fill: #7e03a8"/>
   </g>
   <g id="text_15">
    <path d="M 172.343603 217.436092 
Q 171.697835 217.714244 171.476561 218.219562 
Q 171.256721 218.724262 171.516948 219.328414 
Q 171.777792 219.934001 172.295563 220.12099 
Q 172.814769 220.307361 173.460537 220.029209 
Q 174.106305 219.751057 174.328397 219.243686 
Q 174.551305 218.734261 174.292315 218.132979 
Q 174.032088 217.528827 173.512882 217.342456 
Q 172.995111 217.155467 172.343603 217.436092 
z
M 171.272438 217.441532 
Q 170.628 217.548983 170.13041 217.290354 
Q 169.633637 217.029672 169.386391 216.455656 
Q 169.040864 215.653468 169.411123 214.94107 
Q 169.782816 214.228054 170.777299 213.7997 
Q 171.777522 213.368874 172.54812 213.58987 
Q 173.318718 213.810866 173.664245 214.613054 
Q 173.911491 215.18707 173.758191 215.727758 
Q 173.605708 216.266393 173.089199 216.658998 
Q 173.809097 216.529251 174.365213 216.817113 
Q 174.922146 217.10292 175.197825 217.742948 
Q 175.617525 218.71734 175.247795 219.49416 
Q 174.877446 220.269544 173.769595 220.746729 
Q 172.663179 221.223296 171.84388 220.960329 
Q 171.025398 220.695309 170.605697 219.720917 
Q 170.330018 219.080889 170.50639 218.479225 
Q 170.68358 217.875507 171.272438 217.441532 
z
M 170.324683 216.153582 
Q 170.54844 216.673066 170.998237 216.824685 
Q 171.449468 216.975686 172.0364 216.722877 
Q 172.620461 216.471304 172.823608 216.038442 
Q 173.02819 215.604963 172.804432 215.085478 
Q 172.580056 214.564559 172.124519 214.415412 
Q 171.670418 214.265647 171.086356 214.51722 
Q 170.499425 214.77003 170.299148 215.201655 
Q 170.100307 215.632662 170.324683 216.153582 
z
" clip-path="url(#p9b17723e12)" style="fill: #aa2395; stroke: #ffffff; stroke-width: 5"/>
    <path d="M 172.343603 217.436092 
Q 171.697835 217.714244 171.476561 218.219562 
Q 171.256721 218.724262 171.516948 219.328414 
Q 171.777792 219.934001 172.295563 220.12099 
Q 172.814769 220.307361 173.460537 220.029209 
Q 174.106305 219.751057 174.328397 219.243686 
Q 174.551305 218.734261 174.292315 218.132979 
Q 174.032088 217.528827 173.512882 217.342456 
Q 172.995111 217.155467 172.343603 217.436092 
z
M 171.272438 217.441532 
Q 170.628 217.548983 170.13041 217.290354 
Q 169.633637 217.029672 169.386391 216.455656 
Q 169.040864 215.653468 169.411123 214.94107 
Q 169.782816 214.228054 170.777299 213.7997 
Q 171.777522 213.368874 172.54812 213.58987 
Q 173.318718 213.810866 173.664245 214.613054 
Q 173.911491 215.18707 173.758191 215.727758 
Q 173.605708 216.266393 173.089199 216.658998 
Q 173.809097 216.529251 174.365213 216.817113 
Q 174.922146 217.10292 175.197825 217.742948 
Q 175.617525 218.71734 175.247795 219.49416 
Q 174.877446 220.269544 173.769595 220.746729 
Q 172.663179 221.223296 171.84388 220.960329 
Q 171.025398 220.695309 170.605697 219.720917 
Q 170.330018 219.080889 170.50639 218.479225 
Q 170.68358 217.875507 171.272438 217.441532 
z
M 170.324683 216.153582 
Q 170.54844 216.673066 170.998237 216.824685 
Q 171.449468 216.975686 172.0364 216.722877 
Q 172.620461 216.471304 172.823608 216.038442 
Q 173.02819 215.604963 172.804432 215.085478 
Q 172.580056 214.564559 172.124519 214.415412 
Q 171.670418 214.265647 171.086356 214.51722 
Q 170.499425 214.77003 170.299148 215.201655 
Q 170.100307 215.632662 170.324683 216.153582 
z
" clip-path="url(#p9b17723e12)" style="fill: #aa2395"/>
   </g>
   <g id="text_16">
    <path d="M 208.912776 203.664285 
L 210.383359 203.006634 
L 208.112517 197.928772 
L 206.655657 198.965403 
L 206.288878 198.145242 
L 207.73718 197.112439 
L 208.637216 196.709939 
L 211.274838 202.607961 
L 212.745421 201.95031 
L 213.084134 202.70771 
L 209.251489 204.421686 
L 208.912776 203.664285 
z
M 215.292574 197.297241 
Q 214.686369 197.568339 214.516826 198.142243 
Q 214.348071 198.714082 214.670837 199.435823 
Q 214.991689 200.153285 215.532326 200.413017 
Q 216.073751 200.670684 216.679957 200.399586 
Q 217.286162 200.128489 217.453641 199.553796 
Q 217.620481 198.977678 217.299629 198.260216 
Q 216.976863 197.538475 216.43814 197.283022 
Q 215.898779 197.026143 215.292574 197.297241 
z
M 215.817451 193.675203 
L 216.184231 194.495364 
Q 215.773313 194.487425 215.390498 194.557636 
Q 215.007045 194.62642 214.66757 194.778235 
Q 213.776092 195.176908 213.574575 195.989334 
Q 213.374485 196.801122 213.851555 198.047792 
Q 213.940503 197.542451 214.244541 197.158298 
Q 214.550005 196.773508 215.026411 196.560457 
Q 216.029146 196.112029 216.883477 196.460833 
Q 217.73717 196.808211 218.205371 197.855164 
Q 218.664005 198.880721 218.335276 199.772288 
Q 218.005909 200.662428 216.998895 201.112769 
Q 215.843539 201.62945 214.837571 201.018114 
Q 213.830964 200.405353 213.079545 198.725094 
Q 212.374053 197.147533 212.703172 195.874099 
Q 213.032291 194.600665 214.293198 194.036782 
Q 214.632673 193.884967 215.007834 193.79764 
Q 215.382995 193.710313 215.817451 193.675203 
z
" clip-path="url(#p9b17723e12)" style="fill: #cc4778; stroke: #ffffff; stroke-width: 5"/>
    <path d="M 208.912776 203.664285 
L 210.383359 203.006634 
L 208.112517 197.928772 
L 206.655657 198.965403 
L 206.288878 198.145242 
L 207.73718 197.112439 
L 208.637216 196.709939 
L 211.274838 202.607961 
L 212.745421 201.95031 
L 213.084134 202.70771 
L 209.251489 204.421686 
L 208.912776 203.664285 
z
M 215.292574 197.297241 
Q 214.686369 197.568339 214.516826 198.142243 
Q 214.348071 198.714082 214.670837 199.435823 
Q 214.991689 200.153285 215.532326 200.413017 
Q 216.073751 200.670684 216.679957 200.399586 
Q 217.286162 200.128489 217.453641 199.553796 
Q 217.620481 198.977678 217.299629 198.260216 
Q 216.976863 197.538475 216.43814 197.283022 
Q 215.898779 197.026143 215.292574 197.297241 
z
M 215.817451 193.675203 
L 216.184231 194.495364 
Q 215.773313 194.487425 215.390498 194.557636 
Q 215.007045 194.62642 214.66757 194.778235 
Q 213.776092 195.176908 213.574575 195.989334 
Q 213.374485 196.801122 213.851555 198.047792 
Q 213.940503 197.542451 214.244541 197.158298 
Q 214.550005 196.773508 215.026411 196.560457 
Q 216.029146 196.112029 216.883477 196.460833 
Q 217.73717 196.808211 218.205371 197.855164 
Q 218.664005 198.880721 218.335276 199.772288 
Q 218.005909 200.662428 216.998895 201.112769 
Q 215.843539 201.62945 214.837571 201.018114 
Q 213.830964 200.405353 213.079545 198.725094 
Q 212.374053 197.147533 212.703172 195.874099 
Q 213.032291 194.600665 214.293198 194.036782 
Q 214.632673 193.884967 215.007834 193.79764 
Q 215.382995 193.710313 215.817451 193.675203 
z
" clip-path="url(#p9b17723e12)" style="fill: #cc4778"/>
   </g>
   <g id="text_17">
    <path d="M 250.394783 181.756779 
Q 251.10331 181.608595 251.660491 181.886371 
Q 252.218467 182.162085 252.50332 182.804925 
Q 252.940095 183.790613 252.501451 184.632706 
Q 252.062174 185.47337 250.812208 186.027251 
Q 250.393647 186.212722 249.912659 186.326733 
Q 249.43167 186.440743 248.885397 186.484558 
L 248.499896 185.614581 
Q 248.971022 185.667299 249.466099 185.581227 
Q 249.962604 185.494521 250.449734 185.278666 
Q 251.296855 184.903292 251.593005 184.37215 
Q 251.889155 183.841008 251.606201 183.202454 
Q 251.344769 182.612469 250.785065 182.463989 
Q 250.224728 182.314079 249.489034 182.640078 
L 248.711911 182.984434 
L 248.383381 182.243025 
L 249.196216 181.882844 
Q 249.860484 181.588496 250.095593 181.166436 
Q 250.330701 180.744376 250.109149 180.244389 
Q 249.881899 179.731545 249.396086 179.618684 
Q 248.911068 179.50376 248.232515 179.804439 
Q 247.861096 179.969021 247.472903 180.23845 
Q 247.084077 180.506451 246.650213 180.900369 
L 246.294464 180.097533 
Q 246.745435 179.726797 247.162344 179.456606 
Q 247.579253 179.186415 247.976386 179.010439 
Q 249.003501 178.555307 249.807622 178.75784 
Q 250.612538 178.958312 250.96449 179.752577 
Q 251.210096 180.306848 251.061975 180.828794 
Q 250.913853 181.35074 250.394783 181.756779 
z
M 255.512449 182.881479 
L 258.659509 181.486965 
L 258.995636 182.245516 
L 254.764319 184.120483 
L 254.428192 183.361932 
Q 254.705557 182.603268 255.194986 181.316541 
Q 255.68521 180.027753 255.797139 179.667112 
Q 256.014763 178.989609 256.036797 178.576515 
Q 256.06026 178.162787 255.915934 177.837081 
Q 255.680456 177.305667 255.159485 177.136605 
Q 254.637881 176.966114 254.039325 177.231344 
Q 253.615051 177.419347 253.208834 177.775378 
Q 252.804046 178.130777 252.401278 178.668146 
L 251.997419 177.756742 
Q 252.444841 177.297001 252.868311 176.97605 
Q 253.293209 176.654466 253.686056 176.480389 
Q 254.721743 176.021459 255.567222 176.26719 
Q 256.412069 176.511493 256.795671 177.377185 
Q 256.977977 177.788603 256.987011 178.225529 
Q 256.996841 178.660394 256.811262 179.340788 
Q 256.75744 179.520159 256.432976 180.403944 
Q 256.109941 181.287096 255.512449 182.881479 
z
" clip-path="url(#p9b17723e12)" style="fill: #e66c5c; stroke: #ffffff; stroke-width: 5"/>
    <path d="M 250.394783 181.756779 
Q 251.10331 181.608595 251.660491 181.886371 
Q 252.218467 182.162085 252.50332 182.804925 
Q 252.940095 183.790613 252.501451 184.632706 
Q 252.062174 185.47337 250.812208 186.027251 
Q 250.393647 186.212722 249.912659 186.326733 
Q 249.43167 186.440743 248.885397 186.484558 
L 248.499896 185.614581 
Q 248.971022 185.667299 249.466099 185.581227 
Q 249.962604 185.494521 250.449734 185.278666 
Q 251.296855 184.903292 251.593005 184.37215 
Q 251.889155 183.841008 251.606201 183.202454 
Q 251.344769 182.612469 250.785065 182.463989 
Q 250.224728 182.314079 249.489034 182.640078 
L 248.711911 182.984434 
L 248.383381 182.243025 
L 249.196216 181.882844 
Q 249.860484 181.588496 250.095593 181.166436 
Q 250.330701 180.744376 250.109149 180.244389 
Q 249.881899 179.731545 249.396086 179.618684 
Q 248.911068 179.50376 248.232515 179.804439 
Q 247.861096 179.969021 247.472903 180.23845 
Q 247.084077 180.506451 246.650213 180.900369 
L 246.294464 180.097533 
Q 246.745435 179.726797 247.162344 179.456606 
Q 247.579253 179.186415 247.976386 179.010439 
Q 249.003501 178.555307 249.807622 178.75784 
Q 250.612538 178.958312 250.96449 179.752577 
Q 251.210096 180.306848 251.061975 180.828794 
Q 250.913853 181.35074 250.394783 181.756779 
z
M 255.512449 182.881479 
L 258.659509 181.486965 
L 258.995636 182.245516 
L 254.764319 184.120483 
L 254.428192 183.361932 
Q 254.705557 182.603268 255.194986 181.316541 
Q 255.68521 180.027753 255.797139 179.667112 
Q 256.014763 178.989609 256.036797 178.576515 
Q 256.06026 178.162787 255.915934 177.837081 
Q 255.680456 177.305667 255.159485 177.136605 
Q 254.637881 176.966114 254.039325 177.231344 
Q 253.615051 177.419347 253.208834 177.775378 
Q 252.804046 178.130777 252.401278 178.668146 
L 251.997419 177.756742 
Q 252.444841 177.297001 252.868311 176.97605 
Q 253.293209 176.654466 253.686056 176.480389 
Q 254.721743 176.021459 255.567222 176.26719 
Q 256.412069 176.511493 256.795671 177.377185 
Q 256.977977 177.788603 256.987011 178.225529 
Q 256.996841 178.660394 256.811262 179.340788 
Q 256.75744 179.520159 256.432976 180.403944 
Q 256.109941 181.287096 255.512449 182.881479 
z
" clip-path="url(#p9b17723e12)" style="fill: #e66c5c"/>
   </g>
   <g id="text_18">
    <path d="M 289.836192 165.055839 
Q 289.228532 165.32366 289.055894 165.89664 
Q 288.884055 166.46756 289.20292 167.191033 
Q 289.519894 167.910217 290.059121 168.172863 
Q 290.599147 168.43345 291.206807 168.165628 
Q 291.814467 167.897807 291.985046 167.324027 
Q 292.154994 166.748817 291.83802 166.029634 
Q 291.519155 165.306161 290.981819 165.047804 
Q 290.443852 164.788017 289.836192 165.055839 
z
M 290.380615 161.436687 
L 290.742962 162.258815 
Q 290.332093 162.248659 289.948904 162.316802 
Q 289.565086 162.383515 289.224796 162.533495 
Q 288.331178 162.92735 288.125279 163.738676 
Q 287.920809 164.549372 288.391142 165.7986 
Q 288.482818 165.293746 288.788925 164.91124 
Q 289.096461 164.528104 289.574011 164.317628 
Q 290.579152 163.87462 291.431587 164.228031 
Q 292.283392 164.580013 292.745935 165.629477 
Q 293.199026 166.657495 292.865489 167.547274 
Q 292.531322 168.435624 291.521891 168.880522 
Q 290.363763 169.390958 289.361109 168.774201 
Q 288.357826 168.156015 287.615488 166.471724 
Q 286.918522 164.890378 287.254511 163.618739 
Q 287.590499 162.3471 288.854432 161.790032 
Q 289.194722 161.640052 289.570348 161.554751 
Q 289.945975 161.469451 290.380615 161.436687 
z
M 295.13021 160.106607 
L 294.420875 164.672697 
L 296.699958 163.66821 
L 295.13021 160.106607 
z
M 294.546273 159.424831 
L 295.681525 158.924478 
L 297.597865 163.272464 
L 298.550104 162.852772 
L 298.880942 163.603411 
L 297.928703 164.023103 
L 298.621888 165.59587 
L 297.723981 165.991616 
L 297.030796 164.418849 
L 294.019662 165.745982 
L 293.63589 164.875241 
L 294.546273 159.424831 
z
" clip-path="url(#p9b17723e12)" style="fill: #f89540; stroke: #ffffff; stroke-width: 5"/>
    <path d="M 289.836192 165.055839 
Q 289.228532 165.32366 289.055894 165.89664 
Q 288.884055 166.46756 289.20292 167.191033 
Q 289.519894 167.910217 290.059121 168.172863 
Q 290.599147 168.43345 291.206807 168.165628 
Q 291.814467 167.897807 291.985046 167.324027 
Q 292.154994 166.748817 291.83802 166.029634 
Q 291.519155 165.306161 290.981819 165.047804 
Q 290.443852 164.788017 289.836192 165.055839 
z
M 290.380615 161.436687 
L 290.742962 162.258815 
Q 290.332093 162.248659 289.948904 162.316802 
Q 289.565086 162.383515 289.224796 162.533495 
Q 288.331178 162.92735 288.125279 163.738676 
Q 287.920809 164.549372 288.391142 165.7986 
Q 288.482818 165.293746 288.788925 164.91124 
Q 289.096461 164.528104 289.574011 164.317628 
Q 290.579152 163.87462 291.431587 164.228031 
Q 292.283392 164.580013 292.745935 165.629477 
Q 293.199026 166.657495 292.865489 167.547274 
Q 292.531322 168.435624 291.521891 168.880522 
Q 290.363763 169.390958 289.361109 168.774201 
Q 288.357826 168.156015 287.615488 166.471724 
Q 286.918522 164.890378 287.254511 163.618739 
Q 287.590499 162.3471 288.854432 161.790032 
Q 289.194722 161.640052 289.570348 161.554751 
Q 289.945975 161.469451 290.380615 161.436687 
z
M 295.13021 160.106607 
L 294.420875 164.672697 
L 296.699958 163.66821 
L 295.13021 160.106607 
z
M 294.546273 159.424831 
L 295.681525 158.924478 
L 297.597865 163.272464 
L 298.550104 162.852772 
L 298.880942 163.603411 
L 297.928703 164.023103 
L 298.621888 165.59587 
L 297.723981 165.991616 
L 297.030796 164.418849 
L 294.019662 165.745982 
L 293.63589 164.875241 
L 294.546273 159.424831 
z
" clip-path="url(#p9b17723e12)" style="fill: #f89540"/>
   </g>
   <g id="text_19">
    <path d="M 326.489582 152.700582 
L 327.966154 152.056491 
L 325.742134 146.957948 
L 324.275797 147.981129 
L 323.91658 147.157628 
L 325.374325 146.138196 
L 326.278027 145.743995 
L 328.861264 151.666038 
L 330.337836 151.021947 
L 330.669565 151.782432 
L 326.821311 153.461067 
L 326.489582 152.700582 
z
M 332.942784 149.885651 
L 336.097865 148.509382 
L 336.429594 149.269867 
L 332.187492 151.120302 
L 331.855763 150.359817 
Q 332.137516 149.602772 332.634387 148.318901 
Q 333.132065 147.032973 333.246081 146.672986 
Q 333.467624 145.996755 333.49205 145.583795 
Q 333.517908 145.17021 333.375471 144.843674 
Q 333.143073 144.310905 332.62309 144.138829 
Q 332.102482 143.965321 331.5024 144.22708 
Q 331.077044 144.412624 330.668773 144.766297 
Q 330.261934 145.119345 329.856061 145.654374 
L 329.457487 144.740646 
Q 329.907562 144.283503 330.332884 143.96501 
Q 330.759637 143.645891 331.153485 143.474092 
Q 332.191812 143.021167 333.035855 143.27179 
Q 333.879273 143.520981 334.257856 144.388879 
Q 334.437777 144.801345 334.444281 145.238317 
Q 334.451592 145.673231 334.262076 146.352539 
Q 334.207216 146.531596 333.877641 147.413487 
Q 333.549497 148.294754 332.942784 149.885651 
z
M 338.876093 144.425107 
Q 338.231614 144.706233 338.012672 145.212566 
Q 337.795162 145.718275 338.058171 146.32122 
Q 338.321805 146.925598 338.840432 147.110198 
Q 339.360492 147.294173 340.004971 147.013047 
Q 340.649449 146.731921 340.869199 146.223531 
Q 341.089757 145.713084 340.827997 145.113003 
Q 340.564988 144.510057 340.044928 144.326082 
Q 339.526301 144.141482 338.876093 144.425107 
z
M 337.804965 144.435485 
Q 337.161029 144.545906 336.662252 144.289574 
Q 336.164282 144.031185 335.914392 143.458315 
Q 335.565171 142.657729 335.932141 141.943632 
Q 336.300543 141.22891 337.293041 140.795975 
Q 338.291267 140.360542 339.062876 140.577983 
Q 339.834485 140.795425 340.183706 141.59601 
Q 340.433596 142.16888 340.28279 142.71027 
Q 340.132792 143.249602 339.618098 143.644584 
Q 340.337391 143.51152 340.894828 143.796814 
Q 341.453072 144.080051 341.7317 144.718801 
Q 342.155888 145.691248 341.789742 146.469764 
Q 341.422972 147.246847 340.317333 147.729135 
Q 339.213126 148.210797 338.392623 147.951611 
Q 337.572928 147.690367 337.14874 146.71792 
Q 336.870112 146.07917 337.043709 145.476699 
Q 337.218114 144.87217 337.804965 144.435485 
z
M 336.851282 143.151918 
Q 337.077432 143.670366 337.527923 143.819909 
Q 337.979845 143.968828 338.565605 143.713316 
Q 339.1485 143.459053 339.349649 143.025259 
Q 339.55223 142.590841 339.32608 142.072394 
Q 339.099305 141.552514 338.643086 141.40547 
Q 338.188298 141.2578 337.605403 141.512063 
Q 337.019644 141.767575 336.821359 142.200119 
Q 336.624506 142.632039 336.851282 143.151918 
z
" clip-path="url(#p9b17723e12)" style="fill: #fdc527; stroke: #ffffff; stroke-width: 5"/>
    <path d="M 326.489582 152.700582 
L 327.966154 152.056491 
L 325.742134 146.957948 
L 324.275797 147.981129 
L 323.91658 147.157628 
L 325.374325 146.138196 
L 326.278027 145.743995 
L 328.861264 151.666038 
L 330.337836 151.021947 
L 330.669565 151.782432 
L 326.821311 153.461067 
L 326.489582 152.700582 
z
M 332.942784 149.885651 
L 336.097865 148.509382 
L 336.429594 149.269867 
L 332.187492 151.120302 
L 331.855763 150.359817 
Q 332.137516 149.602772 332.634387 148.318901 
Q 333.132065 147.032973 333.246081 146.672986 
Q 333.467624 145.996755 333.49205 145.583795 
Q 333.517908 145.17021 333.375471 144.843674 
Q 333.143073 144.310905 332.62309 144.138829 
Q 332.102482 143.965321 331.5024 144.22708 
Q 331.077044 144.412624 330.668773 144.766297 
Q 330.261934 145.119345 329.856061 145.654374 
L 329.457487 144.740646 
Q 329.907562 144.283503 330.332884 143.96501 
Q 330.759637 143.645891 331.153485 143.474092 
Q 332.191812 143.021167 333.035855 143.27179 
Q 333.879273 143.520981 334.257856 144.388879 
Q 334.437777 144.801345 334.444281 145.238317 
Q 334.451592 145.673231 334.262076 146.352539 
Q 334.207216 146.531596 333.877641 147.413487 
Q 333.549497 148.294754 332.942784 149.885651 
z
M 338.876093 144.425107 
Q 338.231614 144.706233 338.012672 145.212566 
Q 337.795162 145.718275 338.058171 146.32122 
Q 338.321805 146.925598 338.840432 147.110198 
Q 339.360492 147.294173 340.004971 147.013047 
Q 340.649449 146.731921 340.869199 146.223531 
Q 341.089757 145.713084 340.827997 145.113003 
Q 340.564988 144.510057 340.044928 144.326082 
Q 339.526301 144.141482 338.876093 144.425107 
z
M 337.804965 144.435485 
Q 337.161029 144.545906 336.662252 144.289574 
Q 336.164282 144.031185 335.914392 143.458315 
Q 335.565171 142.657729 335.932141 141.943632 
Q 336.300543 141.22891 337.293041 140.795975 
Q 338.291267 140.360542 339.062876 140.577983 
Q 339.834485 140.795425 340.183706 141.59601 
Q 340.433596 142.16888 340.28279 142.71027 
Q 340.132792 143.249602 339.618098 143.644584 
Q 340.337391 143.51152 340.894828 143.796814 
Q 341.453072 144.080051 341.7317 144.718801 
Q 342.155888 145.691248 341.789742 146.469764 
Q 341.422972 147.246847 340.317333 147.729135 
Q 339.213126 148.210797 338.392623 147.951611 
Q 337.572928 147.690367 337.14874 146.71792 
Q 336.870112 146.07917 337.043709 145.476699 
Q 337.218114 144.87217 337.804965 144.435485 
z
M 336.851282 143.151918 
Q 337.077432 143.670366 337.527923 143.819909 
Q 337.979845 143.968828 338.565605 143.713316 
Q 339.1485 143.459053 339.349649 143.025259 
Q 339.55223 142.590841 339.32608 142.072394 
Q 339.099305 141.552514 338.643086 141.40547 
Q 338.188298 141.2578 337.605403 141.512063 
Q 337.019644 141.767575 336.821359 142.200119 
Q 336.624506 142.632039 336.851282 143.151918 
z
" clip-path="url(#p9b17723e12)" style="fill: #fdc527"/>
   </g>
   <g id="patch_3">
    <path d="M 34.240625 301.735725 
L 34.240625 35.623725 
" style="fill: none; stroke: #cccccc; stroke-width: 0.8; stroke-linejoin: miter; stroke-linecap: square"/>
   </g>
   <g id="patch_4">
    <path d="M 391.360625 301.735725 
L 391.360625 35.623725 
" style="fill: none; stroke: #cccccc; stroke-width: 0.8; stroke-linejoin: miter; stroke-linecap: square"/>
   </g>
   <g id="patch_5">
    <path d="M 34.240625 301.735725 
L 391.360625 301.735725 
" style="fill: none; stroke: #cccccc; stroke-width: 0.8; stroke-linejoin: miter; stroke-linecap: square"/>
   </g>
   <g id="patch_6">
    <path d="M 34.240625 35.623725 
L 391.360625 35.623725 
" style="fill: none; stroke: #cccccc; stroke-width: 0.8; stroke-linejoin: miter; stroke-linecap: square"/>
   </g>
   <g id="text_20">
    <!-- Block Size = 4M, Read-Write Type = Random Write-only -->
    <g style="fill: #262626; opacity: 0.75" transform="translate(73.613125 30.882918) scale(0.1 -0.1)">
     <defs>
      <path id="DejaVuSans-42" d="M 1259 2228 
L 1259 519 
L 2272 519 
Q 2781 519 3026 730 
Q 3272 941 3272 1375 
Q 3272 1813 3026 2020 
Q 2781 2228 2272 2228 
L 1259 2228 
z
M 1259 4147 
L 1259 2741 
L 2194 2741 
Q 2656 2741 2882 2914 
Q 3109 3088 3109 3444 
Q 3109 3797 2882 3972 
Q 2656 4147 2194 4147 
L 1259 4147 
z
M 628 4666 
L 2241 4666 
Q 2963 4666 3353 4366 
Q 3744 4066 3744 3513 
Q 3744 3084 3544 2831 
Q 3344 2578 2956 2516 
Q 3422 2416 3680 2098 
Q 3938 1781 3938 1306 
Q 3938 681 3513 340 
Q 3088 0 2303 0 
L 628 0 
L 628 4666 
z
" transform="scale(0.015625)"/>
      <path id="DejaVuSans-6c" d="M 603 4863 
L 1178 4863 
L 1178 0 
L 603 0 
L 603 4863 
z
" transform="scale(0.015625)"/>
      <path id="DejaVuSans-6b" d="M 581 4863 
L 1159 4863 
L 1159 1991 
L 2875 3500 
L 3609 3500 
L 1753 1863 
L 3688 0 
L 2938 0 
L 1159 1709 
L 1159 0 
L 581 0 
L 581 4863 
z
" transform="scale(0.015625)"/>
      <path id="DejaVuSans-53" d="M 3425 4513 
L 3425 3897 
Q 3066 4069 2747 4153 
Q 2428 4238 2131 4238 
Q 1616 4238 1336 4038 
Q 1056 3838 1056 3469 
Q 1056 3159 1242 3001 
Q 1428 2844 1947 2747 
L 2328 2669 
Q 3034 2534 3370 2195 
Q 3706 1856 3706 1288 
Q 3706 609 3251 259 
Q 2797 -91 1919 -91 
Q 1588 -91 1214 -16 
Q 841 59 441 206 
L 441 856 
Q 825 641 1194 531 
Q 1563 422 1919 422 
Q 2459 422 2753 634 
Q 3047 847 3047 1241 
Q 3047 1584 2836 1778 
Q 2625 1972 2144 2069 
L 1759 2144 
Q 1053 2284 737 2584 
Q 422 2884 422 3419 
Q 422 4038 858 4394 
Q 1294 4750 2059 4750 
Q 2388 4750 2728 4690 
Q 3069 4631 3425 4513 
z
" transform="scale(0.015625)"/>
      <path id="DejaVuSans-69" d="M 603 3500 
L 1178 3500 
L 1178 0 
L 603 0 
L 603 3500 
z
M 603 4863 
L 1178 4863 
L 1178 4134 
L 603 4134 
L 603 4863 
z
" transform="scale(0.015625)"/>
      <path id="DejaVuSans-7a" d="M 353 3500 
L 3084 3500 
L 3084 2975 
L 922 459 
L 3084 459 
L 3084 0 
L 275 0 
L 275 525 
L 2438 3041 
L 353 3041 
L 353 3500 
z
" transform="scale(0.015625)"/>
      <path id="DejaVuSans-3d" d="M 678 2906 
L 4684 2906 
L 4684 2381 
L 678 2381 
L 678 2906 
z
M 678 1631 
L 4684 1631 
L 4684 1100 
L 678 1100 
L 678 1631 
z
" transform="scale(0.015625)"/>
      <path id="DejaVuSans-2c" d="M 750 794 
L 1409 794 
L 1409 256 
L 897 -744 
L 494 -744 
L 750 256 
L 750 794 
z
" transform="scale(0.015625)"/>
      <path id="DejaVuSans-52" d="M 2841 2188 
Q 3044 2119 3236 1894 
Q 3428 1669 3622 1275 
L 4263 0 
L 3584 0 
L 2988 1197 
Q 2756 1666 2539 1819 
Q 2322 1972 1947 1972 
L 1259 1972 
L 1259 0 
L 628 0 
L 628 4666 
L 2053 4666 
Q 2853 4666 3247 4331 
Q 3641 3997 3641 3322 
Q 3641 2881 3436 2590 
Q 3231 2300 2841 2188 
z
M 1259 4147 
L 1259 2491 
L 2053 2491 
Q 2509 2491 2742 2702 
Q 2975 2913 2975 3322 
Q 2975 3731 2742 3939 
Q 2509 4147 2053 4147 
L 1259 4147 
z
" transform="scale(0.015625)"/>
      <path id="DejaVuSans-64" d="M 2906 2969 
L 2906 4863 
L 3481 4863 
L 3481 0 
L 2906 0 
L 2906 525 
Q 2725 213 2448 61 
Q 2172 -91 1784 -91 
Q 1150 -91 751 415 
Q 353 922 353 1747 
Q 353 2572 751 3078 
Q 1150 3584 1784 3584 
Q 2172 3584 2448 3432 
Q 2725 3281 2906 2969 
z
M 947 1747 
Q 947 1113 1208 752 
Q 1469 391 1925 391 
Q 2381 391 2643 752 
Q 2906 1113 2906 1747 
Q 2906 2381 2643 2742 
Q 2381 3103 1925 3103 
Q 1469 3103 1208 2742 
Q 947 2381 947 1747 
z
" transform="scale(0.015625)"/>
      <path id="DejaVuSans-2d" d="M 313 2009 
L 1997 2009 
L 1997 1497 
L 313 1497 
L 313 2009 
z
" transform="scale(0.015625)"/>
      <path id="DejaVuSans-57" d="M 213 4666 
L 850 4666 
L 1831 722 
L 2809 4666 
L 3519 4666 
L 4500 722 
L 5478 4666 
L 6119 4666 
L 4947 0 
L 4153 0 
L 3169 4050 
L 2175 0 
L 1381 0 
L 213 4666 
z
" transform="scale(0.015625)"/>
      <path id="DejaVuSans-54" d="M -19 4666 
L 3928 4666 
L 3928 4134 
L 2272 4134 
L 2272 0 
L 1638 0 
L 1638 4134 
L -19 4134 
L -19 4666 
z
" transform="scale(0.015625)"/>
      <path id="DejaVuSans-70" d="M 1159 525 
L 1159 -1331 
L 581 -1331 
L 581 3500 
L 1159 3500 
L 1159 2969 
Q 1341 3281 1617 3432 
Q 1894 3584 2278 3584 
Q 2916 3584 3314 3078 
Q 3713 2572 3713 1747 
Q 3713 922 3314 415 
Q 2916 -91 2278 -91 
Q 1894 -91 1617 61 
Q 1341 213 1159 525 
z
M 3116 1747 
Q 3116 2381 2855 2742 
Q 2594 3103 2138 3103 
Q 1681 3103 1420 2742 
Q 1159 2381 1159 1747 
Q 1159 1113 1420 752 
Q 1681 391 2138 391 
Q 2594 391 2855 752 
Q 3116 1113 3116 1747 
z
" transform="scale(0.015625)"/>
     </defs>
     <use xlink:href="#DejaVuSans-42"/>
     <use xlink:href="#DejaVuSans-6c" transform="translate(68.603516 0)"/>
     <use xlink:href="#DejaVuSans-6f" transform="translate(96.386719 0)"/>
     <use xlink:href="#DejaVuSans-63" transform="translate(157.568359 0)"/>
     <use xlink:href="#DejaVuSans-6b" transform="translate(212.548828 0)"/>
     <use xlink:href="#DejaVuSans-20" transform="translate(270.458984 0)"/>
     <use xlink:href="#DejaVuSans-53" transform="translate(302.246094 0)"/>
     <use xlink:href="#DejaVuSans-69" transform="translate(365.722656 0)"/>
     <use xlink:href="#DejaVuSans-7a" transform="translate(393.505859 0)"/>
     <use xlink:href="#DejaVuSans-65" transform="translate(445.996094 0)"/>
     <use xlink:href="#DejaVuSans-20" transform="translate(507.519531 0)"/>
     <use xlink:href="#DejaVuSans-3d" transform="translate(539.306641 0)"/>
     <use xlink:href="#DejaVuSans-20" transform="translate(623.095703 0)"/>
     <use xlink:href="#DejaVuSans-34" transform="translate(654.882812 0)"/>
     <use xlink:href="#DejaVuSans-4d" transform="translate(718.505859 0)"/>
     <use xlink:href="#DejaVuSans-2c" transform="translate(804.785156 0)"/>
     <use xlink:href="#DejaVuSans-20" transform="translate(836.572266 0)"/>
     <use xlink:href="#DejaVuSans-52" transform="translate(868.359375 0)"/>
     <use xlink:href="#DejaVuSans-65" transform="translate(933.341797 0)"/>
     <use xlink:href="#DejaVuSans-61" transform="translate(994.865234 0)"/>
     <use xlink:href="#DejaVuSans-64" transform="translate(1056.144531 0)"/>
     <use xlink:href="#DejaVuSans-2d" transform="translate(1119.621094 0)"/>
     <use xlink:href="#DejaVuSans-57" transform="translate(1151.705078 0)"/>
     <use xlink:href="#DejaVuSans-72" transform="translate(1246.082031 0)"/>
     <use xlink:href="#DejaVuSans-69" transform="translate(1287.195312 0)"/>
     <use xlink:href="#DejaVuSans-74" transform="translate(1314.978516 0)"/>
     <use xlink:href="#DejaVuSans-65" transform="translate(1354.1875 0)"/>
     <use xlink:href="#DejaVuSans-20" transform="translate(1415.710938 0)"/>
     <use xlink:href="#DejaVuSans-54" transform="translate(1447.498047 0)"/>
     <use xlink:href="#DejaVuSans-79" transform="translate(1492.957031 0)"/>
     <use xlink:href="#DejaVuSans-70" transform="translate(1552.136719 0)"/>
     <use xlink:href="#DejaVuSans-65" transform="translate(1615.613281 0)"/>
     <use xlink:href="#DejaVuSans-20" transform="translate(1677.136719 0)"/>
     <use xlink:href="#DejaVuSans-3d" transform="translate(1708.923828 0)"/>
     <use xlink:href="#DejaVuSans-20" transform="translate(1792.712891 0)"/>
     <use xlink:href="#DejaVuSans-52" transform="translate(1824.5 0)"/>
     <use xlink:href="#DejaVuSans-61" transform="translate(1891.732422 0)"/>
     <use xlink:href="#DejaVuSans-6e" transform="translate(1953.011719 0)"/>
     <use xlink:href="#DejaVuSans-64" transform="translate(2016.390625 0)"/>
     <use xlink:href="#DejaVuSans-6f" transform="translate(2079.867188 0)"/>
     <use xlink:href="#DejaVuSans-6d" transform="translate(2141.048828 0)"/>
     <use xlink:href="#DejaVuSans-20" transform="translate(2238.460938 0)"/>
     <use xlink:href="#DejaVuSans-57" transform="translate(2270.248047 0)"/>
     <use xlink:href="#DejaVuSans-72" transform="translate(2364.625 0)"/>
     <use xlink:href="#DejaVuSans-69" transform="translate(2405.738281 0)"/>
     <use xlink:href="#DejaVuSans-74" transform="translate(2433.521484 0)"/>
     <use xlink:href="#DejaVuSans-65" transform="translate(2472.730469 0)"/>
     <use xlink:href="#DejaVuSans-2d" transform="translate(2534.253906 0)"/>
     <use xlink:href="#DejaVuSans-6f" transform="translate(2572.212891 0)"/>
     <use xlink:href="#DejaVuSans-6e" transform="translate(2633.394531 0)"/>
     <use xlink:href="#DejaVuSans-6c" transform="translate(2696.773438 0)"/>
     <use xlink:href="#DejaVuSans-79" transform="translate(2724.556641 0)"/>
    </g>
   </g>
   <g id="text_21">
    <!-- Mean Latency vs Number of Jobs -->
    <g style="fill: #262626" transform="translate(102.144688 16.318125) scale(0.12 -0.12)">
     <defs>
      <path id="DejaVuSans-Bold-4d" d="M 588 4666 
L 2119 4666 
L 3181 2169 
L 4250 4666 
L 5778 4666 
L 5778 0 
L 4641 0 
L 4641 3413 
L 3566 897 
L 2803 897 
L 1728 3413 
L 1728 0 
L 588 0 
L 588 4666 
z
" transform="scale(0.015625)"/>
      <path id="DejaVuSans-Bold-65" d="M 4031 1759 
L 4031 1441 
L 1416 1441 
Q 1456 1047 1700 850 
Q 1944 653 2381 653 
Q 2734 653 3104 758 
Q 3475 863 3866 1075 
L 3866 213 
Q 3469 63 3072 -14 
Q 2675 -91 2278 -91 
Q 1328 -91 801 392 
Q 275 875 275 1747 
Q 275 2603 792 3093 
Q 1309 3584 2216 3584 
Q 3041 3584 3536 3087 
Q 4031 2591 4031 1759 
z
M 2881 2131 
Q 2881 2450 2695 2645 
Q 2509 2841 2209 2841 
Q 1884 2841 1681 2658 
Q 1478 2475 1428 2131 
L 2881 2131 
z
" transform="scale(0.015625)"/>
      <path id="DejaVuSans-Bold-61" d="M 2106 1575 
Q 1756 1575 1579 1456 
Q 1403 1338 1403 1106 
Q 1403 894 1545 773 
Q 1688 653 1941 653 
Q 2256 653 2472 879 
Q 2688 1106 2688 1447 
L 2688 1575 
L 2106 1575 
z
M 3816 1997 
L 3816 0 
L 2688 0 
L 2688 519 
Q 2463 200 2181 54 
Q 1900 -91 1497 -91 
Q 953 -91 614 226 
Q 275 544 275 1050 
Q 275 1666 698 1953 
Q 1122 2241 2028 2241 
L 2688 2241 
L 2688 2328 
Q 2688 2594 2478 2717 
Q 2269 2841 1825 2841 
Q 1466 2841 1156 2769 
Q 847 2697 581 2553 
L 581 3406 
Q 941 3494 1303 3539 
Q 1666 3584 2028 3584 
Q 2975 3584 3395 3211 
Q 3816 2838 3816 1997 
z
" transform="scale(0.015625)"/>
      <path id="DejaVuSans-Bold-6e" d="M 4056 2131 
L 4056 0 
L 2931 0 
L 2931 347 
L 2931 1631 
Q 2931 2084 2911 2256 
Q 2891 2428 2841 2509 
Q 2775 2619 2662 2680 
Q 2550 2741 2406 2741 
Q 2056 2741 1856 2470 
Q 1656 2200 1656 1722 
L 1656 0 
L 538 0 
L 538 3500 
L 1656 3500 
L 1656 2988 
Q 1909 3294 2193 3439 
Q 2478 3584 2822 3584 
Q 3428 3584 3742 3212 
Q 4056 2841 4056 2131 
z
" transform="scale(0.015625)"/>
      <path id="DejaVuSans-Bold-20" transform="scale(0.015625)"/>
      <path id="DejaVuSans-Bold-4c" d="M 588 4666 
L 1791 4666 
L 1791 909 
L 3903 909 
L 3903 0 
L 588 0 
L 588 4666 
z
" transform="scale(0.015625)"/>
      <path id="DejaVuSans-Bold-74" d="M 1759 4494 
L 1759 3500 
L 2913 3500 
L 2913 2700 
L 1759 2700 
L 1759 1216 
Q 1759 972 1856 886 
Q 1953 800 2241 800 
L 2816 800 
L 2816 0 
L 1856 0 
Q 1194 0 917 276 
Q 641 553 641 1216 
L 641 2700 
L 84 2700 
L 84 3500 
L 641 3500 
L 641 4494 
L 1759 4494 
z
" transform="scale(0.015625)"/>
      <path id="DejaVuSans-Bold-63" d="M 3366 3391 
L 3366 2478 
Q 3138 2634 2908 2709 
Q 2678 2784 2431 2784 
Q 1963 2784 1702 2511 
Q 1441 2238 1441 1747 
Q 1441 1256 1702 982 
Q 1963 709 2431 709 
Q 2694 709 2930 787 
Q 3166 866 3366 1019 
L 3366 103 
Q 3103 6 2833 -42 
Q 2563 -91 2291 -91 
Q 1344 -91 809 395 
Q 275 881 275 1747 
Q 275 2613 809 3098 
Q 1344 3584 2291 3584 
Q 2566 3584 2833 3536 
Q 3100 3488 3366 3391 
z
" transform="scale(0.015625)"/>
      <path id="DejaVuSans-Bold-79" d="M 78 3500 
L 1197 3500 
L 2138 1125 
L 2938 3500 
L 4056 3500 
L 2584 -331 
Q 2363 -916 2067 -1148 
Q 1772 -1381 1288 -1381 
L 641 -1381 
L 641 -647 
L 991 -647 
Q 1275 -647 1404 -556 
Q 1534 -466 1606 -231 
L 1638 -134 
L 78 3500 
z
" transform="scale(0.015625)"/>
      <path id="DejaVuSans-Bold-76" d="M 97 3500 
L 1216 3500 
L 2088 1081 
L 2956 3500 
L 4078 3500 
L 2700 0 
L 1472 0 
L 97 3500 
z
" transform="scale(0.015625)"/>
      <path id="DejaVuSans-Bold-73" d="M 3272 3391 
L 3272 2541 
Q 2913 2691 2578 2766 
Q 2244 2841 1947 2841 
Q 1628 2841 1473 2761 
Q 1319 2681 1319 2516 
Q 1319 2381 1436 2309 
Q 1553 2238 1856 2203 
L 2053 2175 
Q 2913 2066 3209 1816 
Q 3506 1566 3506 1031 
Q 3506 472 3093 190 
Q 2681 -91 1863 -91 
Q 1516 -91 1145 -36 
Q 775 19 384 128 
L 384 978 
Q 719 816 1070 734 
Q 1422 653 1784 653 
Q 2113 653 2278 743 
Q 2444 834 2444 1013 
Q 2444 1163 2330 1236 
Q 2216 1309 1875 1350 
L 1678 1375 
Q 931 1469 631 1722 
Q 331 1975 331 2491 
Q 331 3047 712 3315 
Q 1094 3584 1881 3584 
Q 2191 3584 2531 3537 
Q 2872 3491 3272 3391 
z
" transform="scale(0.015625)"/>
      <path id="DejaVuSans-Bold-4e" d="M 588 4666 
L 1931 4666 
L 3628 1466 
L 3628 4666 
L 4769 4666 
L 4769 0 
L 3425 0 
L 1728 3200 
L 1728 0 
L 588 0 
L 588 4666 
z
" transform="scale(0.015625)"/>
      <path id="DejaVuSans-Bold-75" d="M 500 1363 
L 500 3500 
L 1625 3500 
L 1625 3150 
Q 1625 2866 1622 2436 
Q 1619 2006 1619 1863 
Q 1619 1441 1641 1255 
Q 1663 1069 1716 984 
Q 1784 875 1895 815 
Q 2006 756 2150 756 
Q 2500 756 2700 1025 
Q 2900 1294 2900 1772 
L 2900 3500 
L 4019 3500 
L 4019 0 
L 2900 0 
L 2900 506 
Q 2647 200 2364 54 
Q 2081 -91 1741 -91 
Q 1134 -91 817 281 
Q 500 653 500 1363 
z
" transform="scale(0.015625)"/>
      <path id="DejaVuSans-Bold-6d" d="M 3781 2919 
Q 3994 3244 4286 3414 
Q 4578 3584 4928 3584 
Q 5531 3584 5847 3212 
Q 6163 2841 6163 2131 
L 6163 0 
L 5038 0 
L 5038 1825 
Q 5041 1866 5042 1909 
Q 5044 1953 5044 2034 
Q 5044 2406 4934 2573 
Q 4825 2741 4581 2741 
Q 4263 2741 4089 2478 
Q 3916 2216 3909 1719 
L 3909 0 
L 2784 0 
L 2784 1825 
Q 2784 2406 2684 2573 
Q 2584 2741 2328 2741 
Q 2006 2741 1831 2477 
Q 1656 2213 1656 1722 
L 1656 0 
L 531 0 
L 531 3500 
L 1656 3500 
L 1656 2988 
Q 1863 3284 2130 3434 
Q 2397 3584 2719 3584 
Q 3081 3584 3359 3409 
Q 3638 3234 3781 2919 
z
" transform="scale(0.015625)"/>
      <path id="DejaVuSans-Bold-62" d="M 2400 722 
Q 2759 722 2948 984 
Q 3138 1247 3138 1747 
Q 3138 2247 2948 2509 
Q 2759 2772 2400 2772 
Q 2041 2772 1848 2508 
Q 1656 2244 1656 1747 
Q 1656 1250 1848 986 
Q 2041 722 2400 722 
z
M 1656 2988 
Q 1888 3294 2169 3439 
Q 2450 3584 2816 3584 
Q 3463 3584 3878 3070 
Q 4294 2556 4294 1747 
Q 4294 938 3878 423 
Q 3463 -91 2816 -91 
Q 2450 -91 2169 54 
Q 1888 200 1656 506 
L 1656 0 
L 538 0 
L 538 4863 
L 1656 4863 
L 1656 2988 
z
" transform="scale(0.015625)"/>
      <path id="DejaVuSans-Bold-72" d="M 3138 2547 
Q 2991 2616 2845 2648 
Q 2700 2681 2553 2681 
Q 2122 2681 1889 2404 
Q 1656 2128 1656 1613 
L 1656 0 
L 538 0 
L 538 3500 
L 1656 3500 
L 1656 2925 
Q 1872 3269 2151 3426 
Q 2431 3584 2822 3584 
Q 2878 3584 2943 3579 
Q 3009 3575 3134 3559 
L 3138 2547 
z
" transform="scale(0.015625)"/>
      <path id="DejaVuSans-Bold-6f" d="M 2203 2784 
Q 1831 2784 1636 2517 
Q 1441 2250 1441 1747 
Q 1441 1244 1636 976 
Q 1831 709 2203 709 
Q 2569 709 2762 976 
Q 2956 1244 2956 1747 
Q 2956 2250 2762 2517 
Q 2569 2784 2203 2784 
z
M 2203 3584 
Q 3106 3584 3614 3096 
Q 4122 2609 4122 1747 
Q 4122 884 3614 396 
Q 3106 -91 2203 -91 
Q 1297 -91 786 396 
Q 275 884 275 1747 
Q 275 2609 786 3096 
Q 1297 3584 2203 3584 
z
" transform="scale(0.015625)"/>
      <path id="DejaVuSans-Bold-66" d="M 2841 4863 
L 2841 4128 
L 2222 4128 
Q 1984 4128 1890 4042 
Q 1797 3956 1797 3744 
L 1797 3500 
L 2753 3500 
L 2753 2700 
L 1797 2700 
L 1797 0 
L 678 0 
L 678 2700 
L 122 2700 
L 122 3500 
L 678 3500 
L 678 3744 
Q 678 4316 997 4589 
Q 1316 4863 1984 4863 
L 2841 4863 
z
" transform="scale(0.015625)"/>
      <path id="DejaVuSans-Bold-4a" d="M 588 4666 
L 1791 4666 
L 1791 453 
Q 1791 -419 1317 -850 
Q 844 -1281 -116 -1281 
L -359 -1281 
L -359 -372 
L -172 -372 
Q 203 -372 395 -162 
Q 588 47 588 453 
L 588 4666 
z
" transform="scale(0.015625)"/>
     </defs>
     <use xlink:href="#DejaVuSans-Bold-4d"/>
     <use xlink:href="#DejaVuSans-Bold-65" transform="translate(99.511719 0)"/>
     <use xlink:href="#DejaVuSans-Bold-61" transform="translate(167.333984 0)"/>
     <use xlink:href="#DejaVuSans-Bold-6e" transform="translate(234.814453 0)"/>
     <use xlink:href="#DejaVuSans-Bold-20" transform="translate(306.005859 0)"/>
     <use xlink:href="#DejaVuSans-Bold-4c" transform="translate(340.820312 0)"/>
     <use xlink:href="#DejaVuSans-Bold-61" transform="translate(404.541016 0)"/>
     <use xlink:href="#DejaVuSans-Bold-74" transform="translate(472.021484 0)"/>
     <use xlink:href="#DejaVuSans-Bold-65" transform="translate(519.824219 0)"/>
     <use xlink:href="#DejaVuSans-Bold-6e" transform="translate(587.646484 0)"/>
     <use xlink:href="#DejaVuSans-Bold-63" transform="translate(658.837891 0)"/>
     <use xlink:href="#DejaVuSans-Bold-79" transform="translate(718.115234 0)"/>
     <use xlink:href="#DejaVuSans-Bold-20" transform="translate(783.300781 0)"/>
     <use xlink:href="#DejaVuSans-Bold-76" transform="translate(818.115234 0)"/>
     <use xlink:href="#DejaVuSans-Bold-73" transform="translate(883.300781 0)"/>
     <use xlink:href="#DejaVuSans-Bold-20" transform="translate(942.822266 0)"/>
     <use xlink:href="#DejaVuSans-Bold-4e" transform="translate(977.636719 0)"/>
     <use xlink:href="#DejaVuSans-Bold-75" transform="translate(1061.328125 0)"/>
     <use xlink:href="#DejaVuSans-Bold-6d" transform="translate(1132.519531 0)"/>
     <use xlink:href="#DejaVuSans-Bold-62" transform="translate(1236.71875 0)"/>
     <use xlink:href="#DejaVuSans-Bold-65" transform="translate(1308.300781 0)"/>
     <use xlink:href="#DejaVuSans-Bold-72" transform="translate(1376.123047 0)"/>
     <use xlink:href="#DejaVuSans-Bold-20" transform="translate(1425.439453 0)"/>
     <use xlink:href="#DejaVuSans-Bold-6f" transform="translate(1460.253906 0)"/>
     <use xlink:href="#DejaVuSans-Bold-66" transform="translate(1528.955078 0)"/>
     <use xlink:href="#DejaVuSans-Bold-20" transform="translate(1572.460938 0)"/>
     <use xlink:href="#DejaVuSans-Bold-4a" transform="translate(1607.275391 0)"/>
     <use xlink:href="#DejaVuSans-Bold-6f" transform="translate(1644.482422 0)"/>
     <use xlink:href="#DejaVuSans-Bold-62" transform="translate(1713.183594 0)"/>
     <use xlink:href="#DejaVuSans-Bold-73" transform="translate(1784.765625 0)"/>
    </g>
   </g>
   <g id="legend_1">
    <g id="text_22">
     <!-- IO Depth -->
     <g style="fill: #262626" transform="translate(425.867188 120.065663) scale(0.1 -0.1)">
      <defs>
       <path id="DejaVuSans-49" d="M 628 4666 
L 1259 4666 
L 1259 0 
L 628 0 
L 628 4666 
z
" transform="scale(0.015625)"/>
       <path id="DejaVuSans-4f" d="M 2522 4238 
Q 1834 4238 1429 3725 
Q 1025 3213 1025 2328 
Q 1025 1447 1429 934 
Q 1834 422 2522 422 
Q 3209 422 3611 934 
Q 4013 1447 4013 2328 
Q 4013 3213 3611 3725 
Q 3209 4238 2522 4238 
z
M 2522 4750 
Q 3503 4750 4090 4092 
Q 4678 3434 4678 2328 
Q 4678 1225 4090 567 
Q 3503 -91 2522 -91 
Q 1538 -91 948 565 
Q 359 1222 359 2328 
Q 359 3434 948 4092 
Q 1538 4750 2522 4750 
z
" transform="scale(0.015625)"/>
       <path id="DejaVuSans-44" d="M 1259 4147 
L 1259 519 
L 2022 519 
Q 2988 519 3436 956 
Q 3884 1394 3884 2338 
Q 3884 3275 3436 3711 
Q 2988 4147 2022 4147 
L 1259 4147 
z
M 628 4666 
L 1925 4666 
Q 3281 4666 3915 4102 
Q 4550 3538 4550 2338 
Q 4550 1131 3912 565 
Q 3275 0 1925 0 
L 628 0 
L 628 4666 
z
" transform="scale(0.015625)"/>
       <path id="DejaVuSans-68" d="M 3513 2113 
L 3513 0 
L 2938 0 
L 2938 2094 
Q 2938 2591 2744 2837 
Q 2550 3084 2163 3084 
Q 1697 3084 1428 2787 
Q 1159 2491 1159 1978 
L 1159 0 
L 581 0 
L 581 4863 
L 1159 4863 
L 1159 2956 
Q 1366 3272 1645 3428 
Q 1925 3584 2291 3584 
Q 2894 3584 3203 3211 
Q 3513 2838 3513 2113 
z
" transform="scale(0.015625)"/>
      </defs>
      <use xlink:href="#DejaVuSans-49"/>
      <use xlink:href="#DejaVuSans-4f" transform="translate(29.492188 0)"/>
      <use xlink:href="#DejaVuSans-20" transform="translate(108.203125 0)"/>
      <use xlink:href="#DejaVuSans-44" transform="translate(139.990234 0)"/>
      <use xlink:href="#DejaVuSans-65" transform="translate(216.992188 0)"/>
      <use xlink:href="#DejaVuSans-70" transform="translate(278.515625 0)"/>
      <use xlink:href="#DejaVuSans-74" transform="translate(341.992188 0)"/>
      <use xlink:href="#DejaVuSans-68" transform="translate(381.201172 0)"/>
     </g>
    </g>
    <g id="line2d_24">
     <path d="M 424.553125 131.243787 
L 434.553125 131.243787 
L 444.553125 131.243787 
" style="fill: none; stroke: #4c02a1; stroke-width: 1.5; stroke-linecap: round"/>
    </g>
    <g id="text_23">
     <!-- 1 -->
     <g style="fill: #262626" transform="translate(452.553125 134.743787) scale(0.1 -0.1)">
      <use xlink:href="#DejaVuSans-31"/>
     </g>
    </g>
    <g id="line2d_25">
     <path d="M 424.553125 145.921913 
L 434.553125 145.921913 
L 444.553125 145.921913 
" style="fill: none; stroke: #7e03a8; stroke-width: 1.5; stroke-linecap: round"/>
    </g>
    <g id="text_24">
     <!-- 4 -->
     <g style="fill: #262626" transform="translate(452.553125 149.421913) scale(0.1 -0.1)">
      <use xlink:href="#DejaVuSans-34"/>
     </g>
    </g>
    <g id="line2d_26">
     <path d="M 424.553125 160.600037 
L 434.553125 160.600037 
L 444.553125 160.600037 
" style="fill: none; stroke: #aa2395; stroke-width: 1.5; stroke-linecap: round"/>
    </g>
    <g id="text_25">
     <!-- 8 -->
     <g style="fill: #262626" transform="translate(452.553125 164.100037) scale(0.1 -0.1)">
      <use xlink:href="#DejaVuSans-38"/>
     </g>
    </g>
    <g id="line2d_27">
     <path d="M 424.553125 175.278163 
L 434.553125 175.278163 
L 444.553125 175.278163 
" style="fill: none; stroke: #cc4778; stroke-width: 1.5; stroke-linecap: round"/>
    </g>
    <g id="text_26">
     <!-- 16 -->
     <g style="fill: #262626" transform="translate(452.553125 178.778163) scale(0.1 -0.1)">
      <use xlink:href="#DejaVuSans-31"/>
      <use xlink:href="#DejaVuSans-36" transform="translate(63.623047 0)"/>
     </g>
    </g>
    <g id="line2d_28">
     <path d="M 424.553125 189.956288 
L 434.553125 189.956288 
L 444.553125 189.956288 
" style="fill: none; stroke: #e66c5c; stroke-width: 1.5; stroke-linecap: round"/>
    </g>
    <g id="text_27">
     <!-- 32 -->
     <g style="fill: #262626" transform="translate(452.553125 193.456288) scale(0.1 -0.1)">
      <use xlink:href="#DejaVuSans-33"/>
      <use xlink:href="#DejaVuSans-32" transform="translate(63.623047 0)"/>
     </g>
    </g>
    <g id="line2d_29">
     <path d="M 424.553125 204.634412 
L 434.553125 204.634412 
L 444.553125 204.634412 
" style="fill: none; stroke: #f89540; stroke-width: 1.5; stroke-linecap: round"/>
    </g>
    <g id="text_28">
     <!-- 64 -->
     <g style="fill: #262626" transform="translate(452.553125 208.134412) scale(0.1 -0.1)">
      <use xlink:href="#DejaVuSans-36"/>
      <use xlink:href="#DejaVuSans-34" transform="translate(63.623047 0)"/>
     </g>
    </g>
    <g id="line2d_30">
     <path d="M 424.553125 219.312537 
L 434.553125 219.312537 
L 444.553125 219.312537 
" style="fill: none; stroke: #fdc527; stroke-width: 1.5; stroke-linecap: round"/>
    </g>
    <g id="text_29">
     <!-- 128 -->
     <g style="fill: #262626" transform="translate(452.553125 222.812537) scale(0.1 -0.1)">
      <use xlink:href="#DejaVuSans-31"/>
      <use xlink:href="#DejaVuSans-32" transform="translate(63.623047 0)"/>
      <use xlink:href="#DejaVuSans-38" transform="translate(127.246094 0)"/>
     </g>
    </g>
   </g>
  </g>
 </g>
 <defs>
  <clipPath id="p9b17723e12">
   <rect x="34.240625" y="35.623725" width="357.12" height="266.112"/>
  </clipPath>
 </defs>
</svg>
