<?xml version="1.0" encoding="utf-8" standalone="no"?>
<!DOCTYPE svg PUBLIC "-//W3C//DTD SVG 1.1//EN"
  "http://www.w3.org/Graphics/SVG/1.1/DTD/svg11.dtd">
<svg xmlns:xlink="http://www.w3.org/1999/xlink" width="492.38125pt" height="339.291975pt" viewBox="0 0 492.38125 339.291975" xmlns="http://www.w3.org/2000/svg" version="1.1">
 <metadata>
  <rdf:RDF xmlns:dc="http://purl.org/dc/elements/1.1/" xmlns:cc="http://creativecommons.org/ns#" xmlns:rdf="http://www.w3.org/1999/02/22-rdf-syntax-ns#">
   <cc:Work>
    <dc:type rdf:resource="http://purl.org/dc/dcmitype/StillImage"/>
    <dc:date>2025-09-11T11:47:27.564970</dc:date>
    <dc:format>image/svg+xml</dc:format>
    <dc:creator>
     <cc:Agent>
      <dc:title>Matplotlib v3.10.6, https://matplotlib.org/</dc:title>
     </cc:Agent>
    </dc:creator>
   </cc:Work>
  </rdf:RDF>
 </metadata>
 <defs>
  <style type="text/css">*{stroke-linejoin: round; stroke-linecap: butt}</style>
 </defs>
 <g id="figure_1">
  <g id="patch_1">
   <path d="M 0 339.291975 
L 492.38125 339.291975 
L 492.38125 0 
L 0 0 
z
" style="fill: #ffffff"/>
  </g>
  <g id="axes_1">
   <g id="patch_2">
    <path d="M 43.78125 301.735725 
L 400.90125 301.735725 
L 400.90125 35.623725 
L 43.78125 35.623725 
z
" style="fill: #ffffff"/>
   </g>
   <g id="matplotlib.axis_1">
    <g id="xtick_1">
     <g id="line2d_1">
      <path d="M 106.393198 301.735725 
L 106.393198 35.623725 
" clip-path="url(#p763a50ff5c)" style="fill: none; stroke: #cccccc; stroke-width: 0.8; stroke-linecap: round"/>
     </g>
     <g id="text_1">
      <!-- 32 -->
      <g style="fill: #262626" transform="translate(100.030698 316.334162) scale(0.1 -0.1)">
       <defs>
        <path id="DejaVuSans-33" d="M 2597 2516 
Q 3050 2419 3304 2112 
Q 3559 1806 3559 1356 
Q 3559 666 3084 287 
Q 2609 -91 1734 -91 
Q 1441 -91 1130 -33 
Q 819 25 488 141 
L 488 750 
Q 750 597 1062 519 
Q 1375 441 1716 441 
Q 2309 441 2620 675 
Q 2931 909 2931 1356 
Q 2931 1769 2642 2001 
Q 2353 2234 1838 2234 
L 1294 2234 
L 1294 2753 
L 1863 2753 
Q 2328 2753 2575 2939 
Q 2822 3125 2822 3475 
Q 2822 3834 2567 4026 
Q 2313 4219 1838 4219 
Q 1578 4219 1281 4162 
Q 984 4106 628 3988 
L 628 4550 
Q 988 4650 1302 4700 
Q 1616 4750 1894 4750 
Q 2613 4750 3031 4423 
Q 3450 4097 3450 3541 
Q 3450 3153 3228 2886 
Q 3006 2619 2597 2516 
z
" transform="scale(0.015625)"/>
        <path id="DejaVuSans-32" d="M 1228 531 
L 3431 531 
L 3431 0 
L 469 0 
L 469 531 
Q 828 903 1448 1529 
Q 2069 2156 2228 2338 
Q 2531 2678 2651 2914 
Q 2772 3150 2772 3378 
Q 2772 3750 2511 3984 
Q 2250 4219 1831 4219 
Q 1534 4219 1204 4116 
Q 875 4013 500 3803 
L 500 4441 
Q 881 4594 1212 4672 
Q 1544 4750 1819 4750 
Q 2544 4750 2975 4387 
Q 3406 4025 3406 3419 
Q 3406 3131 3298 2873 
Q 3191 2616 2906 2266 
Q 2828 2175 2409 1742 
Q 1991 1309 1228 531 
z
" transform="scale(0.015625)"/>
       </defs>
       <use xlink:href="#DejaVuSans-33"/>
       <use xlink:href="#DejaVuSans-32" transform="translate(63.623047 0)"/>
      </g>
     </g>
    </g>
    <g id="xtick_2">
     <g id="line2d_2">
      <path d="M 384.668523 301.735725 
L 384.668523 35.623725 
" clip-path="url(#p763a50ff5c)" style="fill: none; stroke: #cccccc; stroke-width: 0.8; stroke-linecap: round"/>
     </g>
     <g id="text_2">
      <!-- 128 -->
      <g style="fill: #262626" transform="translate(375.124773 316.334162) scale(0.1 -0.1)">
       <defs>
        <path id="DejaVuSans-31" d="M 794 531 
L 1825 531 
L 1825 4091 
L 703 3866 
L 703 4441 
L 1819 4666 
L 2450 4666 
L 2450 531 
L 3481 531 
L 3481 0 
L 794 0 
L 794 531 
z
" transform="scale(0.015625)"/>
        <path id="DejaVuSans-38" d="M 2034 2216 
Q 1584 2216 1326 1975 
Q 1069 1734 1069 1313 
Q 1069 891 1326 650 
Q 1584 409 2034 409 
Q 2484 409 2743 651 
Q 3003 894 3003 1313 
Q 3003 1734 2745 1975 
Q 2488 2216 2034 2216 
z
M 1403 2484 
Q 997 2584 770 2862 
Q 544 3141 544 3541 
Q 544 4100 942 4425 
Q 1341 4750 2034 4750 
Q 2731 4750 3128 4425 
Q 3525 4100 3525 3541 
Q 3525 3141 3298 2862 
Q 3072 2584 2669 2484 
Q 3125 2378 3379 2068 
Q 3634 1759 3634 1313 
Q 3634 634 3220 271 
Q 2806 -91 2034 -91 
Q 1263 -91 848 271 
Q 434 634 434 1313 
Q 434 1759 690 2068 
Q 947 2378 1403 2484 
z
M 1172 3481 
Q 1172 3119 1398 2916 
Q 1625 2713 2034 2713 
Q 2441 2713 2670 2916 
Q 2900 3119 2900 3481 
Q 2900 3844 2670 4047 
Q 2441 4250 2034 4250 
Q 1625 4250 1398 4047 
Q 1172 3844 1172 3481 
z
" transform="scale(0.015625)"/>
       </defs>
       <use xlink:href="#DejaVuSans-31"/>
       <use xlink:href="#DejaVuSans-32" transform="translate(63.623047 0)"/>
       <use xlink:href="#DejaVuSans-38" transform="translate(127.246094 0)"/>
      </g>
     </g>
    </g>
    <g id="xtick_3">
     <g id="line2d_3">
      <path d="M 199.15164 301.735725 
L 199.15164 35.623725 
" clip-path="url(#p763a50ff5c)" style="fill: none; stroke: #cccccc; stroke-width: 0.8; stroke-linecap: round"/>
     </g>
     <g id="text_3">
      <!-- 64 -->
      <g style="fill: #262626" transform="translate(192.78914 316.334162) scale(0.1 -0.1)">
       <defs>
        <path id="DejaVuSans-36" d="M 2113 2584 
Q 1688 2584 1439 2293 
Q 1191 2003 1191 1497 
Q 1191 994 1439 701 
Q 1688 409 2113 409 
Q 2538 409 2786 701 
Q 3034 994 3034 1497 
Q 3034 2003 2786 2293 
Q 2538 2584 2113 2584 
z
M 3366 4563 
L 3366 3988 
Q 3128 4100 2886 4159 
Q 2644 4219 2406 4219 
Q 1781 4219 1451 3797 
Q 1122 3375 1075 2522 
Q 1259 2794 1537 2939 
Q 1816 3084 2150 3084 
Q 2853 3084 3261 2657 
Q 3669 2231 3669 1497 
Q 3669 778 3244 343 
Q 2819 -91 2113 -91 
Q 1303 -91 875 529 
Q 447 1150 447 2328 
Q 447 3434 972 4092 
Q 1497 4750 2381 4750 
Q 2619 4750 2861 4703 
Q 3103 4656 3366 4563 
z
" transform="scale(0.015625)"/>
        <path id="DejaVuSans-34" d="M 2419 4116 
L 825 1625 
L 2419 1625 
L 2419 4116 
z
M 2253 4666 
L 3047 4666 
L 3047 1625 
L 3713 1625 
L 3713 1100 
L 3047 1100 
L 3047 0 
L 2419 0 
L 2419 1100 
L 313 1100 
L 313 1709 
L 2253 4666 
z
" transform="scale(0.015625)"/>
       </defs>
       <use xlink:href="#DejaVuSans-36"/>
       <use xlink:href="#DejaVuSans-34" transform="translate(63.623047 0)"/>
      </g>
     </g>
    </g>
    <g id="xtick_4">
     <g id="line2d_4">
      <path d="M 60.013977 301.735725 
L 60.013977 35.623725 
" clip-path="url(#p763a50ff5c)" style="fill: none; stroke: #cccccc; stroke-width: 0.8; stroke-linecap: round"/>
     </g>
     <g id="text_4">
      <!-- 16 -->
      <g style="fill: #262626" transform="translate(53.651477 316.334162) scale(0.1 -0.1)">
       <use xlink:href="#DejaVuSans-31"/>
       <use xlink:href="#DejaVuSans-36" transform="translate(63.623047 0)"/>
      </g>
     </g>
    </g>
    <g id="text_5">
     <!-- Number of Jobs -->
     <g style="fill: #262626" transform="translate(183.944375 330.012287) scale(0.1 -0.1)">
      <defs>
       <path id="DejaVuSans-4e" d="M 628 4666 
L 1478 4666 
L 3547 763 
L 3547 4666 
L 4159 4666 
L 4159 0 
L 3309 0 
L 1241 3903 
L 1241 0 
L 628 0 
L 628 4666 
z
" transform="scale(0.015625)"/>
       <path id="DejaVuSans-75" d="M 544 1381 
L 544 3500 
L 1119 3500 
L 1119 1403 
Q 1119 906 1312 657 
Q 1506 409 1894 409 
Q 2359 409 2629 706 
Q 2900 1003 2900 1516 
L 2900 3500 
L 3475 3500 
L 3475 0 
L 2900 0 
L 2900 538 
Q 2691 219 2414 64 
Q 2138 -91 1772 -91 
Q 1169 -91 856 284 
Q 544 659 544 1381 
z
M 1991 3584 
L 1991 3584 
z
" transform="scale(0.015625)"/>
       <path id="DejaVuSans-6d" d="M 3328 2828 
Q 3544 3216 3844 3400 
Q 4144 3584 4550 3584 
Q 5097 3584 5394 3201 
Q 5691 2819 5691 2113 
L 5691 0 
L 5113 0 
L 5113 2094 
Q 5113 2597 4934 2840 
Q 4756 3084 4391 3084 
Q 3944 3084 3684 2787 
Q 3425 2491 3425 1978 
L 3425 0 
L 2847 0 
L 2847 2094 
Q 2847 2600 2669 2842 
Q 2491 3084 2119 3084 
Q 1678 3084 1418 2786 
Q 1159 2488 1159 1978 
L 1159 0 
L 581 0 
L 581 3500 
L 1159 3500 
L 1159 2956 
Q 1356 3278 1631 3431 
Q 1906 3584 2284 3584 
Q 2666 3584 2933 3390 
Q 3200 3197 3328 2828 
z
" transform="scale(0.015625)"/>
       <path id="DejaVuSans-62" d="M 3116 1747 
Q 3116 2381 2855 2742 
Q 2594 3103 2138 3103 
Q 1681 3103 1420 2742 
Q 1159 2381 1159 1747 
Q 1159 1113 1420 752 
Q 1681 391 2138 391 
Q 2594 391 2855 752 
Q 3116 1113 3116 1747 
z
M 1159 2969 
Q 1341 3281 1617 3432 
Q 1894 3584 2278 3584 
Q 2916 3584 3314 3078 
Q 3713 2572 3713 1747 
Q 3713 922 3314 415 
Q 2916 -91 2278 -91 
Q 1894 -91 1617 61 
Q 1341 213 1159 525 
L 1159 0 
L 581 0 
L 581 4863 
L 1159 4863 
L 1159 2969 
z
" transform="scale(0.015625)"/>
       <path id="DejaVuSans-65" d="M 3597 1894 
L 3597 1613 
L 953 1613 
Q 991 1019 1311 708 
Q 1631 397 2203 397 
Q 2534 397 2845 478 
Q 3156 559 3463 722 
L 3463 178 
Q 3153 47 2828 -22 
Q 2503 -91 2169 -91 
Q 1331 -91 842 396 
Q 353 884 353 1716 
Q 353 2575 817 3079 
Q 1281 3584 2069 3584 
Q 2775 3584 3186 3129 
Q 3597 2675 3597 1894 
z
M 3022 2063 
Q 3016 2534 2758 2815 
Q 2500 3097 2075 3097 
Q 1594 3097 1305 2825 
Q 1016 2553 972 2059 
L 3022 2063 
z
" transform="scale(0.015625)"/>
       <path id="DejaVuSans-72" d="M 2631 2963 
Q 2534 3019 2420 3045 
Q 2306 3072 2169 3072 
Q 1681 3072 1420 2755 
Q 1159 2438 1159 1844 
L 1159 0 
L 581 0 
L 581 3500 
L 1159 3500 
L 1159 2956 
Q 1341 3275 1631 3429 
Q 1922 3584 2338 3584 
Q 2397 3584 2469 3576 
Q 2541 3569 2628 3553 
L 2631 2963 
z
" transform="scale(0.015625)"/>
       <path id="DejaVuSans-20" transform="scale(0.015625)"/>
       <path id="DejaVuSans-6f" d="M 1959 3097 
Q 1497 3097 1228 2736 
Q 959 2375 959 1747 
Q 959 1119 1226 758 
Q 1494 397 1959 397 
Q 2419 397 2687 759 
Q 2956 1122 2956 1747 
Q 2956 2369 2687 2733 
Q 2419 3097 1959 3097 
z
M 1959 3584 
Q 2709 3584 3137 3096 
Q 3566 2609 3566 1747 
Q 3566 888 3137 398 
Q 2709 -91 1959 -91 
Q 1206 -91 779 398 
Q 353 888 353 1747 
Q 353 2609 779 3096 
Q 1206 3584 1959 3584 
z
" transform="scale(0.015625)"/>
       <path id="DejaVuSans-66" d="M 2375 4863 
L 2375 4384 
L 1825 4384 
Q 1516 4384 1395 4259 
Q 1275 4134 1275 3809 
L 1275 3500 
L 2222 3500 
L 2222 3053 
L 1275 3053 
L 1275 0 
L 697 0 
L 697 3053 
L 147 3053 
L 147 3500 
L 697 3500 
L 697 3744 
Q 697 4328 969 4595 
Q 1241 4863 1831 4863 
L 2375 4863 
z
" transform="scale(0.015625)"/>
       <path id="DejaVuSans-4a" d="M 628 4666 
L 1259 4666 
L 1259 325 
Q 1259 -519 939 -900 
Q 619 -1281 -91 -1281 
L -331 -1281 
L -331 -750 
L -134 -750 
Q 284 -750 456 -515 
Q 628 -281 628 325 
L 628 4666 
z
" transform="scale(0.015625)"/>
       <path id="DejaVuSans-73" d="M 2834 3397 
L 2834 2853 
Q 2591 2978 2328 3040 
Q 2066 3103 1784 3103 
Q 1356 3103 1142 2972 
Q 928 2841 928 2578 
Q 928 2378 1081 2264 
Q 1234 2150 1697 2047 
L 1894 2003 
Q 2506 1872 2764 1633 
Q 3022 1394 3022 966 
Q 3022 478 2636 193 
Q 2250 -91 1575 -91 
Q 1294 -91 989 -36 
Q 684 19 347 128 
L 347 722 
Q 666 556 975 473 
Q 1284 391 1588 391 
Q 1994 391 2212 530 
Q 2431 669 2431 922 
Q 2431 1156 2273 1281 
Q 2116 1406 1581 1522 
L 1381 1569 
Q 847 1681 609 1914 
Q 372 2147 372 2553 
Q 372 3047 722 3315 
Q 1072 3584 1716 3584 
Q 2034 3584 2315 3537 
Q 2597 3491 2834 3397 
z
" transform="scale(0.015625)"/>
      </defs>
      <use xlink:href="#DejaVuSans-4e"/>
      <use xlink:href="#DejaVuSans-75" transform="translate(74.804688 0)"/>
      <use xlink:href="#DejaVuSans-6d" transform="translate(138.183594 0)"/>
      <use xlink:href="#DejaVuSans-62" transform="translate(235.595703 0)"/>
      <use xlink:href="#DejaVuSans-65" transform="translate(299.072266 0)"/>
      <use xlink:href="#DejaVuSans-72" transform="translate(360.595703 0)"/>
      <use xlink:href="#DejaVuSans-20" transform="translate(401.708984 0)"/>
      <use xlink:href="#DejaVuSans-6f" transform="translate(433.496094 0)"/>
      <use xlink:href="#DejaVuSans-66" transform="translate(494.677734 0)"/>
      <use xlink:href="#DejaVuSans-20" transform="translate(529.882812 0)"/>
      <use xlink:href="#DejaVuSans-4a" transform="translate(561.669922 0)"/>
      <use xlink:href="#DejaVuSans-6f" transform="translate(591.162109 0)"/>
      <use xlink:href="#DejaVuSans-62" transform="translate(652.34375 0)"/>
      <use xlink:href="#DejaVuSans-73" transform="translate(715.820312 0)"/>
     </g>
    </g>
   </g>
   <g id="matplotlib.axis_2">
    <g id="ytick_1">
     <g id="line2d_5">
      <path d="M 43.78125 269.254686 
L 400.90125 269.254686 
" clip-path="url(#p763a50ff5c)" style="fill: none; stroke: #cccccc; stroke-width: 0.8; stroke-linecap: round"/>
     </g>
     <g id="text_6">
      <!-- 0.5 -->
      <g style="fill: #262626" transform="translate(20.878125 273.053904) scale(0.1 -0.1)">
       <defs>
        <path id="DejaVuSans-30" d="M 2034 4250 
Q 1547 4250 1301 3770 
Q 1056 3291 1056 2328 
Q 1056 1369 1301 889 
Q 1547 409 2034 409 
Q 2525 409 2770 889 
Q 3016 1369 3016 2328 
Q 3016 3291 2770 3770 
Q 2525 4250 2034 4250 
z
M 2034 4750 
Q 2819 4750 3233 4129 
Q 3647 3509 3647 2328 
Q 3647 1150 3233 529 
Q 2819 -91 2034 -91 
Q 1250 -91 836 529 
Q 422 1150 422 2328 
Q 422 3509 836 4129 
Q 1250 4750 2034 4750 
z
" transform="scale(0.015625)"/>
        <path id="DejaVuSans-2e" d="M 684 794 
L 1344 794 
L 1344 0 
L 684 0 
L 684 794 
z
" transform="scale(0.015625)"/>
        <path id="DejaVuSans-35" d="M 691 4666 
L 3169 4666 
L 3169 4134 
L 1269 4134 
L 1269 2991 
Q 1406 3038 1543 3061 
Q 1681 3084 1819 3084 
Q 2600 3084 3056 2656 
Q 3513 2228 3513 1497 
Q 3513 744 3044 326 
Q 2575 -91 1722 -91 
Q 1428 -91 1123 -41 
Q 819 9 494 109 
L 494 744 
Q 775 591 1075 516 
Q 1375 441 1709 441 
Q 2250 441 2565 725 
Q 2881 1009 2881 1497 
Q 2881 1984 2565 2268 
Q 2250 2553 1709 2553 
Q 1456 2553 1204 2497 
Q 953 2441 691 2322 
L 691 4666 
z
" transform="scale(0.015625)"/>
       </defs>
       <use xlink:href="#DejaVuSans-30"/>
       <use xlink:href="#DejaVuSans-2e" transform="translate(63.623047 0)"/>
       <use xlink:href="#DejaVuSans-35" transform="translate(95.410156 0)"/>
      </g>
     </g>
    </g>
    <g id="ytick_2">
     <g id="line2d_6">
      <path d="M 43.78125 220.456188 
L 400.90125 220.456188 
" clip-path="url(#p763a50ff5c)" style="fill: none; stroke: #cccccc; stroke-width: 0.8; stroke-linecap: round"/>
     </g>
     <g id="text_7">
      <!-- 1.0 -->
      <g style="fill: #262626" transform="translate(20.878125 224.255407) scale(0.1 -0.1)">
       <use xlink:href="#DejaVuSans-31"/>
       <use xlink:href="#DejaVuSans-2e" transform="translate(63.623047 0)"/>
       <use xlink:href="#DejaVuSans-30" transform="translate(95.410156 0)"/>
      </g>
     </g>
    </g>
    <g id="ytick_3">
     <g id="line2d_7">
      <path d="M 43.78125 171.657691 
L 400.90125 171.657691 
" clip-path="url(#p763a50ff5c)" style="fill: none; stroke: #cccccc; stroke-width: 0.8; stroke-linecap: round"/>
     </g>
     <g id="text_8">
      <!-- 1.5 -->
      <g style="fill: #262626" transform="translate(20.878125 175.45691) scale(0.1 -0.1)">
       <use xlink:href="#DejaVuSans-31"/>
       <use xlink:href="#DejaVuSans-2e" transform="translate(63.623047 0)"/>
       <use xlink:href="#DejaVuSans-35" transform="translate(95.410156 0)"/>
      </g>
     </g>
    </g>
    <g id="ytick_4">
     <g id="line2d_8">
      <path d="M 43.78125 122.859194 
L 400.90125 122.859194 
" clip-path="url(#p763a50ff5c)" style="fill: none; stroke: #cccccc; stroke-width: 0.8; stroke-linecap: round"/>
     </g>
     <g id="text_9">
      <!-- 2.0 -->
      <g style="fill: #262626" transform="translate(20.878125 126.658413) scale(0.1 -0.1)">
       <use xlink:href="#DejaVuSans-32"/>
       <use xlink:href="#DejaVuSans-2e" transform="translate(63.623047 0)"/>
       <use xlink:href="#DejaVuSans-30" transform="translate(95.410156 0)"/>
      </g>
     </g>
    </g>
    <g id="ytick_5">
     <g id="line2d_9">
      <path d="M 43.78125 74.060697 
L 400.90125 74.060697 
" clip-path="url(#p763a50ff5c)" style="fill: none; stroke: #cccccc; stroke-width: 0.8; stroke-linecap: round"/>
     </g>
     <g id="text_10">
      <!-- 2.5 -->
      <g style="fill: #262626" transform="translate(20.878125 77.859916) scale(0.1 -0.1)">
       <use xlink:href="#DejaVuSans-32"/>
       <use xlink:href="#DejaVuSans-2e" transform="translate(63.623047 0)"/>
       <use xlink:href="#DejaVuSans-35" transform="translate(95.410156 0)"/>
      </g>
     </g>
    </g>
    <g id="text_11">
     <!-- Mean Latency (ns) -->
     <g style="fill: #262626" transform="translate(14.798438 214.92035) rotate(-90) scale(0.1 -0.1)">
      <defs>
       <path id="DejaVuSans-4d" d="M 628 4666 
L 1569 4666 
L 2759 1491 
L 3956 4666 
L 4897 4666 
L 4897 0 
L 4281 0 
L 4281 4097 
L 3078 897 
L 2444 897 
L 1241 4097 
L 1241 0 
L 628 0 
L 628 4666 
z
" transform="scale(0.015625)"/>
       <path id="DejaVuSans-61" d="M 2194 1759 
Q 1497 1759 1228 1600 
Q 959 1441 959 1056 
Q 959 750 1161 570 
Q 1363 391 1709 391 
Q 2188 391 2477 730 
Q 2766 1069 2766 1631 
L 2766 1759 
L 2194 1759 
z
M 3341 1997 
L 3341 0 
L 2766 0 
L 2766 531 
Q 2569 213 2275 61 
Q 1981 -91 1556 -91 
Q 1019 -91 701 211 
Q 384 513 384 1019 
Q 384 1609 779 1909 
Q 1175 2209 1959 2209 
L 2766 2209 
L 2766 2266 
Q 2766 2663 2505 2880 
Q 2244 3097 1772 3097 
Q 1472 3097 1187 3025 
Q 903 2953 641 2809 
L 641 3341 
Q 956 3463 1253 3523 
Q 1550 3584 1831 3584 
Q 2591 3584 2966 3190 
Q 3341 2797 3341 1997 
z
" transform="scale(0.015625)"/>
       <path id="DejaVuSans-6e" d="M 3513 2113 
L 3513 0 
L 2938 0 
L 2938 2094 
Q 2938 2591 2744 2837 
Q 2550 3084 2163 3084 
Q 1697 3084 1428 2787 
Q 1159 2491 1159 1978 
L 1159 0 
L 581 0 
L 581 3500 
L 1159 3500 
L 1159 2956 
Q 1366 3272 1645 3428 
Q 1925 3584 2291 3584 
Q 2894 3584 3203 3211 
Q 3513 2838 3513 2113 
z
" transform="scale(0.015625)"/>
       <path id="DejaVuSans-4c" d="M 628 4666 
L 1259 4666 
L 1259 531 
L 3531 531 
L 3531 0 
L 628 0 
L 628 4666 
z
" transform="scale(0.015625)"/>
       <path id="DejaVuSans-74" d="M 1172 4494 
L 1172 3500 
L 2356 3500 
L 2356 3053 
L 1172 3053 
L 1172 1153 
Q 1172 725 1289 603 
Q 1406 481 1766 481 
L 2356 481 
L 2356 0 
L 1766 0 
Q 1100 0 847 248 
Q 594 497 594 1153 
L 594 3053 
L 172 3053 
L 172 3500 
L 594 3500 
L 594 4494 
L 1172 4494 
z
" transform="scale(0.015625)"/>
       <path id="DejaVuSans-63" d="M 3122 3366 
L 3122 2828 
Q 2878 2963 2633 3030 
Q 2388 3097 2138 3097 
Q 1578 3097 1268 2742 
Q 959 2388 959 1747 
Q 959 1106 1268 751 
Q 1578 397 2138 397 
Q 2388 397 2633 464 
Q 2878 531 3122 666 
L 3122 134 
Q 2881 22 2623 -34 
Q 2366 -91 2075 -91 
Q 1284 -91 818 406 
Q 353 903 353 1747 
Q 353 2603 823 3093 
Q 1294 3584 2113 3584 
Q 2378 3584 2631 3529 
Q 2884 3475 3122 3366 
z
" transform="scale(0.015625)"/>
       <path id="DejaVuSans-79" d="M 2059 -325 
Q 1816 -950 1584 -1140 
Q 1353 -1331 966 -1331 
L 506 -1331 
L 506 -850 
L 844 -850 
Q 1081 -850 1212 -737 
Q 1344 -625 1503 -206 
L 1606 56 
L 191 3500 
L 800 3500 
L 1894 763 
L 2988 3500 
L 3597 3500 
L 2059 -325 
z
" transform="scale(0.015625)"/>
       <path id="DejaVuSans-28" d="M 1984 4856 
Q 1566 4138 1362 3434 
Q 1159 2731 1159 2009 
Q 1159 1288 1364 580 
Q 1569 -128 1984 -844 
L 1484 -844 
Q 1016 -109 783 600 
Q 550 1309 550 2009 
Q 550 2706 781 3412 
Q 1013 4119 1484 4856 
L 1984 4856 
z
" transform="scale(0.015625)"/>
       <path id="DejaVuSans-29" d="M 513 4856 
L 1013 4856 
Q 1481 4119 1714 3412 
Q 1947 2706 1947 2009 
Q 1947 1309 1714 600 
Q 1481 -109 1013 -844 
L 513 -844 
Q 928 -128 1133 580 
Q 1338 1288 1338 2009 
Q 1338 2731 1133 3434 
Q 928 4138 513 4856 
z
" transform="scale(0.015625)"/>
      </defs>
      <use xlink:href="#DejaVuSans-4d"/>
      <use xlink:href="#DejaVuSans-65" transform="translate(86.279297 0)"/>
      <use xlink:href="#DejaVuSans-61" transform="translate(147.802734 0)"/>
      <use xlink:href="#DejaVuSans-6e" transform="translate(209.082031 0)"/>
      <use xlink:href="#DejaVuSans-20" transform="translate(272.460938 0)"/>
      <use xlink:href="#DejaVuSans-4c" transform="translate(304.248047 0)"/>
      <use xlink:href="#DejaVuSans-61" transform="translate(359.960938 0)"/>
      <use xlink:href="#DejaVuSans-74" transform="translate(421.240234 0)"/>
      <use xlink:href="#DejaVuSans-65" transform="translate(460.449219 0)"/>
      <use xlink:href="#DejaVuSans-6e" transform="translate(521.972656 0)"/>
      <use xlink:href="#DejaVuSans-63" transform="translate(585.351562 0)"/>
      <use xlink:href="#DejaVuSans-79" transform="translate(640.332031 0)"/>
      <use xlink:href="#DejaVuSans-20" transform="translate(699.511719 0)"/>
      <use xlink:href="#DejaVuSans-28" transform="translate(731.298828 0)"/>
      <use xlink:href="#DejaVuSans-6e" transform="translate(770.3125 0)"/>
      <use xlink:href="#DejaVuSans-73" transform="translate(833.691406 0)"/>
      <use xlink:href="#DejaVuSans-29" transform="translate(885.791016 0)"/>
     </g>
    </g>
    <g id="text_12">
     <!-- 1e6 -->
     <g style="fill: #262626" transform="translate(43.78125 32.623725) scale(0.1 -0.1)">
      <use xlink:href="#DejaVuSans-31"/>
      <use xlink:href="#DejaVuSans-65" transform="translate(63.623047 0)"/>
      <use xlink:href="#DejaVuSans-36" transform="translate(125.146484 0)"/>
     </g>
    </g>
   </g>
   <g id="FillBetweenPolyCollection_1"/>
   <g id="FillBetweenPolyCollection_2"/>
   <g id="FillBetweenPolyCollection_3"/>
   <g id="FillBetweenPolyCollection_4"/>
   <g id="FillBetweenPolyCollection_5"/>
   <g id="FillBetweenPolyCollection_6"/>
   <g id="FillBetweenPolyCollection_7"/>
   <g id="line2d_10">
    <path d="M 60.013977 282.536693 
L 106.393198 264.172456 
L 199.15164 192.905642 
L 384.668523 47.719725 
" clip-path="url(#p763a50ff5c)" style="fill: none; stroke: #4c02a1; stroke-width: 1.5; stroke-linecap: round"/>
   </g>
   <g id="line2d_11">
    <path d="M 60.013977 289.639725 
L 106.393198 264.793161 
L 199.15164 212.256802 
L 384.668523 82.03736 
" clip-path="url(#p763a50ff5c)" style="fill: none; stroke: #7e03a8; stroke-width: 1.5; stroke-linecap: round"/>
   </g>
   <g id="line2d_12">
    <path d="M 60.013977 284.569366 
L 106.393198 262.30971 
L 199.15164 199.168693 
L 384.668523 49.645784 
" clip-path="url(#p763a50ff5c)" style="fill: none; stroke: #aa2395; stroke-width: 1.5; stroke-linecap: round"/>
   </g>
   <g id="line2d_13">
    <path d="M 60.013977 286.273099 
L 106.393198 259.712224 
L 199.15164 216.265972 
L 384.668523 82.888118 
" clip-path="url(#p763a50ff5c)" style="fill: none; stroke: #cc4778; stroke-width: 1.5; stroke-linecap: round"/>
   </g>
   <g id="line2d_14">
    <path d="M 60.013977 286.350403 
L 106.393198 258.403264 
L 199.15164 215.300824 
L 384.668523 96.428531 
" clip-path="url(#p763a50ff5c)" style="fill: none; stroke: #e66c5c; stroke-width: 1.5; stroke-linecap: round"/>
   </g>
   <g id="line2d_15">
    <path d="M 60.013977 284.671685 
L 106.393198 267.67911 
L 199.15164 210.350149 
L 384.668523 84.18419 
" clip-path="url(#p763a50ff5c)" style="fill: none; stroke: #f89540; stroke-width: 1.5; stroke-linecap: round"/>
   </g>
   <g id="line2d_16">
    <path d="M 60.013977 286.62629 
L 106.393198 268.861525 
L 199.15164 216.108743 
L 384.668523 81.484249 
" clip-path="url(#p763a50ff5c)" style="fill: none; stroke: #fdc527; stroke-width: 1.5; stroke-linecap: round"/>
   </g>
   <g id="line2d_17"/>
   <g id="line2d_18"/>
   <g id="line2d_19"/>
   <g id="line2d_20"/>
   <g id="line2d_21"/>
   <g id="line2d_22"/>
   <g id="line2d_23"/>
   <g id="text_13">
    <path d="M 100.719334 268.494523 
L 102.21713 267.901458 
L 100.169302 262.72963 
L 98.668731 263.701912 
L 98.337973 262.866575 
L 99.829826 261.897744 
L 100.746518 261.534772 
L 103.125105 267.541938 
L 104.622902 266.948873 
L 104.92835 267.720289 
L 101.024782 269.265939 
L 100.719334 268.494523 
z
" clip-path="url(#p763a50ff5c)" style="fill: #4c02a1; stroke: #ffffff; stroke-width: 5"/>
    <path d="M 100.719334 268.494523 
L 102.21713 267.901458 
L 100.169302 262.72963 
L 98.668731 263.701912 
L 98.337973 262.866575 
L 99.829826 261.897744 
L 100.746518 261.534772 
L 103.125105 267.541938 
L 104.622902 266.948873 
L 104.92835 267.720289 
L 101.024782 269.265939 
L 100.719334 268.494523 
z
" clip-path="url(#p763a50ff5c)" style="fill: #4c02a1"/>
   </g>
   <g id="text_14">
    <path d="M 140.700385 241.142401 
L 140.451376 245.756546 
L 142.618543 244.52911 
L 140.700385 241.142401 
z
M 140.051176 240.52246 
L 141.130681 239.911052 
L 143.472358 244.045528 
L 144.377837 243.532684 
L 144.782106 244.246463 
L 143.876627 244.759306 
L 144.723665 246.254842 
L 143.869851 246.738424 
L 143.022812 245.242888 
L 140.159541 246.864583 
L 139.690589 246.0366 
L 140.051176 240.52246 
z
" clip-path="url(#p763a50ff5c)" style="fill: #7e03a8; stroke: #ffffff; stroke-width: 5"/>
    <path d="M 140.700385 241.142401 
L 140.451376 245.756546 
L 142.618543 244.52911 
L 140.700385 241.142401 
z
M 140.051176 240.52246 
L 141.130681 239.911052 
L 143.472358 244.045528 
L 144.377837 243.532684 
L 144.782106 244.246463 
L 143.876627 244.759306 
L 144.723665 246.254842 
L 143.869851 246.738424 
L 143.022812 245.242888 
L 140.159541 246.864583 
L 139.690589 246.0366 
L 140.051176 240.52246 
z
" clip-path="url(#p763a50ff5c)" style="fill: #7e03a8"/>
   </g>
   <g id="text_15">
    <path d="M 181.767013 210.151908 
Q 181.18577 210.547561 181.064419 211.085691 
Q 180.94436 211.622941 181.314516 212.166725 
Q 181.685552 212.711801 182.2294 212.797127 
Q 182.774541 212.881573 183.355783 212.485919 
Q 183.937025 212.090265 184.058789 211.549965 
Q 184.180965 211.007494 183.812567 210.466293 
Q 183.442411 209.922508 182.89727 209.838062 
Q 182.353422 209.752737 181.767013 210.151908 
z
M 180.716348 210.36054 
Q 180.104015 210.588343 179.566384 210.42885 
Q 179.029166 210.267185 178.677474 209.750525 
Q 178.185984 209.028493 178.41431 208.258773 
Q 178.643928 207.488174 179.539042 206.878867 
Q 180.439322 206.266043 181.237857 206.336774 
Q 182.036392 206.407506 182.527882 207.129538 
Q 182.879574 207.646198 182.831675 208.206154 
Q 182.784188 208.763939 182.351577 209.247434 
Q 183.033767 208.983419 183.634408 209.160506 
Q 184.235461 209.335422 184.627598 209.911498 
Q 185.224596 210.788528 185.009014 211.621399 
Q 184.792552 212.452978 183.795398 213.131744 
Q 182.799536 213.809631 181.94522 213.706934 
Q 181.091316 213.602067 180.494319 212.725037 
Q 180.102182 212.148961 180.161162 211.524758 
Q 180.220554 210.898384 180.716348 210.36054 
z
M 179.541384 209.275867 
Q 179.859665 209.743445 180.330062 209.806943 
Q 180.80175 209.869563 181.330035 209.509958 
Q 181.855737 209.152111 181.973041 208.688562 
Q 182.091636 208.224134 181.773355 207.756557 
Q 181.454194 207.287688 180.97863 207.227706 
Q 180.504359 207.166845 179.978657 207.524692 
Q 179.450372 207.884297 179.335652 208.346087 
Q 179.222223 208.806999 179.541384 209.275867 
z
" clip-path="url(#p763a50ff5c)" style="fill: #aa2395; stroke: #ffffff; stroke-width: 5"/>
    <path d="M 181.767013 210.151908 
Q 181.18577 210.547561 181.064419 211.085691 
Q 180.94436 211.622941 181.314516 212.166725 
Q 181.685552 212.711801 182.2294 212.797127 
Q 182.774541 212.881573 183.355783 212.485919 
Q 183.937025 212.090265 184.058789 211.549965 
Q 184.180965 211.007494 183.812567 210.466293 
Q 183.442411 209.922508 182.89727 209.838062 
Q 182.353422 209.752737 181.767013 210.151908 
z
M 180.716348 210.36054 
Q 180.104015 210.588343 179.566384 210.42885 
Q 179.029166 210.267185 178.677474 209.750525 
Q 178.185984 209.028493 178.41431 208.258773 
Q 178.643928 207.488174 179.539042 206.878867 
Q 180.439322 206.266043 181.237857 206.336774 
Q 182.036392 206.407506 182.527882 207.129538 
Q 182.879574 207.646198 182.831675 208.206154 
Q 182.784188 208.763939 182.351577 209.247434 
Q 183.033767 208.983419 183.634408 209.160506 
Q 184.235461 209.335422 184.627598 209.911498 
Q 185.224596 210.788528 185.009014 211.621399 
Q 184.792552 212.452978 183.795398 213.131744 
Q 182.799536 213.809631 181.94522 213.706934 
Q 181.091316 213.602067 180.494319 212.725037 
Q 180.102182 212.148961 180.161162 211.524758 
Q 180.220554 210.898384 180.716348 210.36054 
z
M 179.541384 209.275867 
Q 179.859665 209.743445 180.330062 209.806943 
Q 180.80175 209.869563 181.330035 209.509958 
Q 181.855737 209.152111 181.973041 208.688562 
Q 182.091636 208.224134 181.773355 207.756557 
Q 181.454194 207.287688 180.97863 207.227706 
Q 180.504359 207.166845 179.978657 207.524692 
Q 179.450372 207.884297 179.335652 208.346087 
Q 179.222223 208.806999 179.541384 209.275867 
z
" clip-path="url(#p763a50ff5c)" style="fill: #aa2395"/>
   </g>
   <g id="text_16">
    <path d="M 219.309053 204.150392 
L 220.617033 203.210016 
L 217.369954 198.693614 
L 216.151749 200.002438 
L 215.627291 199.272963 
L 216.837884 197.969612 
L 217.638404 197.394076 
L 221.409941 202.639953 
L 222.717921 201.699577 
L 223.202247 202.373231 
L 219.793378 204.824046 
L 219.309053 204.150392 
z
M 224.275655 196.628827 
Q 223.736478 197.01647 223.686005 197.612761 
Q 223.635888 198.206871 224.097411 198.848809 
Q 224.556198 199.486941 225.138069 199.632455 
Q 225.720297 199.775789 226.259474 199.388146 
Q 226.798651 199.000503 226.846944 198.403856 
Q 226.894324 197.80594 226.435537 197.167807 
Q 225.974014 196.52587 225.394879 196.384161 
Q 224.814832 196.241185 224.275655 196.628827 
z
M 224.060229 192.975302 
L 224.584687 193.704777 
Q 224.180592 193.779768 223.819764 193.925646 
Q 223.458024 194.070256 223.156085 194.287336 
Q 222.363178 194.857399 222.329429 195.693763 
Q 222.296949 196.529216 223.015344 197.654245 
Q 223.000685 197.141345 223.221116 196.703826 
Q 223.442815 196.265395 223.866545 195.960754 
Q 224.758407 195.319547 225.665484 195.489124 
Q 226.571649 195.657433 227.241131 196.588623 
Q 227.896932 197.500784 227.754519 198.440291 
Q 227.611193 199.378529 226.715525 200.022472 
Q 225.687916 200.761274 224.579431 200.365088 
Q 223.470033 199.967635 222.395578 198.473162 
Q 221.386795 197.070033 221.452675 195.756407 
Q 221.518555 194.442781 222.640043 193.636484 
Q 222.941983 193.419404 223.291865 193.258302 
Q 223.641748 193.0972 224.060229 192.975302 
z
" clip-path="url(#p763a50ff5c)" style="fill: #cc4778; stroke: #ffffff; stroke-width: 5"/>
    <path d="M 219.309053 204.150392 
L 220.617033 203.210016 
L 217.369954 198.693614 
L 216.151749 200.002438 
L 215.627291 199.272963 
L 216.837884 197.969612 
L 217.638404 197.394076 
L 221.409941 202.639953 
L 222.717921 201.699577 
L 223.202247 202.373231 
L 219.793378 204.824046 
L 219.309053 204.150392 
z
M 224.275655 196.628827 
Q 223.736478 197.01647 223.686005 197.612761 
Q 223.635888 198.206871 224.097411 198.848809 
Q 224.556198 199.486941 225.138069 199.632455 
Q 225.720297 199.775789 226.259474 199.388146 
Q 226.798651 199.000503 226.846944 198.403856 
Q 226.894324 197.80594 226.435537 197.167807 
Q 225.974014 196.52587 225.394879 196.384161 
Q 224.814832 196.241185 224.275655 196.628827 
z
M 224.060229 192.975302 
L 224.584687 193.704777 
Q 224.180592 193.779768 223.819764 193.925646 
Q 223.458024 194.070256 223.156085 194.287336 
Q 222.363178 194.857399 222.329429 195.693763 
Q 222.296949 196.529216 223.015344 197.654245 
Q 223.000685 197.141345 223.221116 196.703826 
Q 223.442815 196.265395 223.866545 195.960754 
Q 224.758407 195.319547 225.665484 195.489124 
Q 226.571649 195.657433 227.241131 196.588623 
Q 227.896932 197.500784 227.754519 198.440291 
Q 227.611193 199.378529 226.715525 200.022472 
Q 225.687916 200.761274 224.579431 200.365088 
Q 223.470033 199.967635 222.395578 198.473162 
Q 221.386795 197.070033 221.452675 195.756407 
Q 221.518555 194.442781 222.640043 193.636484 
Q 222.941983 193.419404 223.291865 193.258302 
Q 223.641748 193.0972 224.060229 192.975302 
z
" clip-path="url(#p763a50ff5c)" style="fill: #cc4778"/>
   </g>
   <g id="text_17">
    <path d="M 259.944513 174.955211 
Q 260.622246 174.700953 261.215202 174.890722 
Q 261.808631 175.078333 262.187974 175.67035 
Q 262.769632 176.578109 262.464216 177.477136 
Q 262.157957 178.374847 261.006812 179.112458 
Q 260.621344 179.359452 260.163301 179.545315 
Q 259.705258 179.731178 259.172011 179.857597 
L 258.658634 179.0564 
Q 259.132296 179.036825 259.608514 178.87643 
Q 260.086047 178.715193 260.534665 178.427736 
Q 261.314812 177.927847 261.526703 177.35783 
Q 261.738595 176.787813 261.361781 176.199743 
Q 261.013629 175.656403 260.437851 175.594808 
Q 259.861229 175.531897 259.183698 175.966033 
L 258.468016 176.424616 
L 258.030507 175.741823 
L 258.77908 175.262165 
Q 259.390831 174.870178 259.558988 174.417261 
Q 259.727144 173.964344 259.4321 173.503886 
Q 259.129469 173.031588 258.63214 172.993955 
Q 258.135284 172.954163 257.510377 173.35458 
Q 257.168323 173.573756 256.825642 173.899111 
Q 256.482117 174.22315 256.113238 174.678492 
L 255.639482 173.939128 
Q 256.028797 173.504095 256.399744 173.173619 
Q 256.770691 172.843142 257.136426 172.608793 
Q 258.082338 172.002688 258.907911 172.08052 
Q 259.733957 172.156194 260.202656 172.887664 
Q 260.529733 173.398114 260.462748 173.93652 
Q 260.395763 174.474925 259.944513 174.955211 
z
M 265.173718 175.288186 
L 268.07197 173.431094 
L 268.519594 174.129675 
L 264.622807 176.62659 
L 264.175183 175.92801 
Q 264.333891 175.135979 264.621852 173.789768 
Q 264.910285 172.441398 264.966041 172.067926 
Q 265.078052 171.3652 265.036979 170.953562 
Q 264.997222 170.541081 264.805021 170.241126 
Q 264.491432 169.751725 263.950804 169.663895 
Q 263.409333 169.574749 262.858099 169.927959 
Q 262.467368 170.178325 262.12005 170.592016 
Q 261.774047 171.004863 261.457726 171.597257 
L 260.919902 170.757908 
Q 261.292167 170.235446 261.661876 169.853802 
Q 262.0329 169.471315 262.394688 169.239495 
Q 263.348493 168.628332 264.221517 168.742567 
Q 265.093698 168.855486 265.604545 169.652736 
Q 265.847324 170.031626 265.92273 170.462092 
Q 265.998608 170.890398 265.918708 171.591106 
Q 265.892803 171.776578 265.706581 172.69944 
Q 265.521675 173.621459 265.173718 175.288186 
z
" clip-path="url(#p763a50ff5c)" style="fill: #e66c5c; stroke: #ffffff; stroke-width: 5"/>
    <path d="M 259.944513 174.955211 
Q 260.622246 174.700953 261.215202 174.890722 
Q 261.808631 175.078333 262.187974 175.67035 
Q 262.769632 176.578109 262.464216 177.477136 
Q 262.157957 178.374847 261.006812 179.112458 
Q 260.621344 179.359452 260.163301 179.545315 
Q 259.705258 179.731178 259.172011 179.857597 
L 258.658634 179.0564 
Q 259.132296 179.036825 259.608514 178.87643 
Q 260.086047 178.715193 260.534665 178.427736 
Q 261.314812 177.927847 261.526703 177.35783 
Q 261.738595 176.787813 261.361781 176.199743 
Q 261.013629 175.656403 260.437851 175.594808 
Q 259.861229 175.531897 259.183698 175.966033 
L 258.468016 176.424616 
L 258.030507 175.741823 
L 258.77908 175.262165 
Q 259.390831 174.870178 259.558988 174.417261 
Q 259.727144 173.964344 259.4321 173.503886 
Q 259.129469 173.031588 258.63214 172.993955 
Q 258.135284 172.954163 257.510377 173.35458 
Q 257.168323 173.573756 256.825642 173.899111 
Q 256.482117 174.22315 256.113238 174.678492 
L 255.639482 173.939128 
Q 256.028797 173.504095 256.399744 173.173619 
Q 256.770691 172.843142 257.136426 172.608793 
Q 258.082338 172.002688 258.907911 172.08052 
Q 259.733957 172.156194 260.202656 172.887664 
Q 260.529733 173.398114 260.462748 173.93652 
Q 260.395763 174.474925 259.944513 174.955211 
z
M 265.173718 175.288186 
L 268.07197 173.431094 
L 268.519594 174.129675 
L 264.622807 176.62659 
L 264.175183 175.92801 
Q 264.333891 175.135979 264.621852 173.789768 
Q 264.910285 172.441398 264.966041 172.067926 
Q 265.078052 171.3652 265.036979 170.953562 
Q 264.997222 170.541081 264.805021 170.241126 
Q 264.491432 169.751725 263.950804 169.663895 
Q 263.409333 169.574749 262.858099 169.927959 
Q 262.467368 170.178325 262.12005 170.592016 
Q 261.774047 171.004863 261.457726 171.597257 
L 260.919902 170.757908 
Q 261.292167 170.235446 261.661876 169.853802 
Q 262.0329 169.471315 262.394688 169.239495 
Q 263.348493 168.628332 264.221517 168.742567 
Q 265.093698 168.855486 265.604545 169.652736 
Q 265.847324 170.031626 265.92273 170.462092 
Q 265.998608 170.890398 265.918708 171.591106 
Q 265.892803 171.776578 265.706581 172.69944 
Q 265.521675 173.621459 265.173718 175.288186 
z
" clip-path="url(#p763a50ff5c)" style="fill: #e66c5c"/>
   </g>
   <g id="text_18">
    <path d="M 299.443413 140.598227 
Q 298.894302 140.971665 298.828283 141.566436 
Q 298.762677 142.159036 299.207288 142.812801 
Q 299.649263 143.46269 300.227139 143.623341 
Q 300.805427 143.781821 301.354538 143.408383 
Q 301.903649 143.034945 301.967497 142.439761 
Q 302.030467 141.843285 301.588492 141.193396 
Q 301.14388 140.539631 300.568641 140.382856 
Q 299.992524 140.224789 299.443413 140.598227 
z
M 299.323416 136.940324 
L 299.828656 137.683239 
Q 299.422742 137.747658 299.05823 137.884068 
Q 298.692839 138.019187 298.385337 138.228312 
Q 297.577821 138.777486 297.522255 139.612685 
Q 297.46798 140.447005 298.156768 141.590401 
Q 298.1555 141.077293 298.387275 140.645677 
Q 298.620342 140.213182 299.051878 139.919703 
Q 299.960173 139.301992 300.862515 139.495187 
Q 301.763978 139.687089 302.408928 140.635436 
Q 303.040698 141.564402 302.873812 142.499872 
Q 302.706047 143.434049 301.793877 144.054396 
Q 300.747336 144.766126 299.649569 144.341144 
Q 298.550922 143.91487 297.515839 142.392864 
Q 296.544021 140.963883 296.644164 139.652424 
Q 296.744307 138.340965 297.886458 137.564214 
Q 298.19396 137.355088 298.547928 137.203173 
Q 298.901897 137.051258 299.323416 136.940324 
z
M 303.753605 134.7721 
L 303.882903 139.391149 
L 305.942392 137.990536 
L 303.753605 134.7721 
z
M 303.055855 134.207346 
L 304.081724 133.509675 
L 306.753785 137.438726 
L 307.614274 136.853526 
L 308.07558 137.53184 
L 307.215091 138.117039 
L 308.181637 139.538268 
L 307.370245 140.090078 
L 306.403699 138.668849 
L 303.682692 140.519346 
L 303.147577 139.732502 
L 303.055855 134.207346 
z
" clip-path="url(#p763a50ff5c)" style="fill: #f89540; stroke: #ffffff; stroke-width: 5"/>
    <path d="M 299.443413 140.598227 
Q 298.894302 140.971665 298.828283 141.566436 
Q 298.762677 142.159036 299.207288 142.812801 
Q 299.649263 143.46269 300.227139 143.623341 
Q 300.805427 143.781821 301.354538 143.408383 
Q 301.903649 143.034945 301.967497 142.439761 
Q 302.030467 141.843285 301.588492 141.193396 
Q 301.14388 140.539631 300.568641 140.382856 
Q 299.992524 140.224789 299.443413 140.598227 
z
M 299.323416 136.940324 
L 299.828656 137.683239 
Q 299.422742 137.747658 299.05823 137.884068 
Q 298.692839 138.019187 298.385337 138.228312 
Q 297.577821 138.777486 297.522255 139.612685 
Q 297.46798 140.447005 298.156768 141.590401 
Q 298.1555 141.077293 298.387275 140.645677 
Q 298.620342 140.213182 299.051878 139.919703 
Q 299.960173 139.301992 300.862515 139.495187 
Q 301.763978 139.687089 302.408928 140.635436 
Q 303.040698 141.564402 302.873812 142.499872 
Q 302.706047 143.434049 301.793877 144.054396 
Q 300.747336 144.766126 299.649569 144.341144 
Q 298.550922 143.91487 297.515839 142.392864 
Q 296.544021 140.963883 296.644164 139.652424 
Q 296.744307 138.340965 297.886458 137.564214 
Q 298.19396 137.355088 298.547928 137.203173 
Q 298.901897 137.051258 299.323416 136.940324 
z
M 303.753605 134.7721 
L 303.882903 139.391149 
L 305.942392 137.990536 
L 303.753605 134.7721 
z
M 303.055855 134.207346 
L 304.081724 133.509675 
L 306.753785 137.438726 
L 307.614274 136.853526 
L 308.07558 137.53184 
L 307.215091 138.117039 
L 308.181637 139.538268 
L 307.370245 140.090078 
L 306.403699 138.668849 
L 303.682692 140.519346 
L 303.147577 139.732502 
L 303.055855 134.207346 
z
" clip-path="url(#p763a50ff5c)" style="fill: #f89540"/>
   </g>
   <g id="text_19">
    <path d="M 337.282454 118.255253 
L 338.586269 117.30911 
L 335.319278 112.807091 
L 334.106864 114.121282 
L 333.57919 113.39413 
L 334.784016 112.085446 
L 335.581986 111.506381 
L 339.376651 116.735552 
L 340.680466 115.789409 
L 341.167762 116.460918 
L 337.769749 118.926762 
L 337.282454 118.255253 
z
M 342.980638 114.120238 
L 345.766578 112.098558 
L 346.253874 112.770067 
L 342.508093 115.488277 
L 342.020797 114.816768 
Q 342.133411 114.01688 342.342994 112.656262 
Q 342.552923 111.293463 342.586976 110.91739 
Q 342.658138 110.20936 342.593315 109.800789 
Q 342.529758 109.391299 342.320523 109.102968 
Q 341.979141 108.632532 341.434337 108.576131 
Q 340.888615 108.518465 340.358743 108.902979 
Q 339.983153 109.175534 339.660353 109.608628 
Q 339.338819 110.040805 339.057305 110.650509 
L 338.471816 109.843686 
Q 338.813226 109.300559 339.160232 108.898162 
Q 339.508503 108.494848 339.856272 108.242482 
Q 340.773115 107.577154 341.651286 107.640682 
Q 342.528539 107.702945 343.084662 108.4693 
Q 343.348958 108.833509 343.449145 109.25889 
Q 343.549679 109.682088 343.510457 110.386245 
Q 343.495328 110.572905 343.362817 111.504996 
Q 343.231571 112.436169 342.980638 114.120238 
z
M 347.602943 107.512969 
Q 347.033867 107.925932 346.928762 108.467468 
Q 346.824921 109.008087 347.21127 109.540489 
Q 347.598537 110.074155 348.144706 110.143079 
Q 348.692141 110.211086 349.261216 109.798123 
Q 349.830291 109.385161 349.935744 108.841442 
Q 350.041543 108.295541 349.65703 107.765668 
Q 349.27068 107.233267 348.723246 107.16526 
Q 348.177076 107.096336 347.602943 107.512969 
z
M 346.55903 107.753118 
Q 345.953828 107.999241 345.411643 107.855995 
Q 344.869804 107.710567 344.502726 107.204723 
Q 343.989735 106.497804 344.1948 105.721563 
Q 344.401129 104.944404 345.277506 104.308442 
Q 346.15894 103.668809 346.959242 103.715484 
Q 347.759543 103.762158 348.272534 104.469076 
Q 348.639612 104.974921 348.608582 105.536064 
Q 348.577898 106.095025 348.160029 106.591317 
Q 348.833968 106.306898 349.439665 106.465833 
Q 350.045708 106.622586 350.455 107.186603 
Q 351.078114 108.045275 350.887688 108.884254 
Q 350.696344 109.721969 349.720063 110.430429 
Q 348.745047 111.137971 347.888028 111.061025 
Q 347.031355 110.981896 346.408241 110.123225 
Q 345.99895 109.559208 346.039123 108.933513 
Q 346.079643 108.305636 346.55903 107.753118 
z
M 345.351964 106.704287 
Q 345.684169 107.162077 346.156263 107.211394 
Q 346.629622 107.259794 347.146849 106.884457 
Q 347.661546 106.510955 347.76485 106.044087 
Q 347.869419 105.576301 347.537214 105.118512 
Q 347.204091 104.659458 346.726938 104.613811 
Q 346.25105 104.567247 345.736353 104.940748 
Q 345.219126 105.316085 345.118351 105.781118 
Q 345.018841 106.245233 345.351964 106.704287 
z
" clip-path="url(#p763a50ff5c)" style="fill: #fdc527; stroke: #ffffff; stroke-width: 5"/>
    <path d="M 337.282454 118.255253 
L 338.586269 117.30911 
L 335.319278 112.807091 
L 334.106864 114.121282 
L 333.57919 113.39413 
L 334.784016 112.085446 
L 335.581986 111.506381 
L 339.376651 116.735552 
L 340.680466 115.789409 
L 341.167762 116.460918 
L 337.769749 118.926762 
L 337.282454 118.255253 
z
M 342.980638 114.120238 
L 345.766578 112.098558 
L 346.253874 112.770067 
L 342.508093 115.488277 
L 342.020797 114.816768 
Q 342.133411 114.01688 342.342994 112.656262 
Q 342.552923 111.293463 342.586976 110.91739 
Q 342.658138 110.20936 342.593315 109.800789 
Q 342.529758 109.391299 342.320523 109.102968 
Q 341.979141 108.632532 341.434337 108.576131 
Q 340.888615 108.518465 340.358743 108.902979 
Q 339.983153 109.175534 339.660353 109.608628 
Q 339.338819 110.040805 339.057305 110.650509 
L 338.471816 109.843686 
Q 338.813226 109.300559 339.160232 108.898162 
Q 339.508503 108.494848 339.856272 108.242482 
Q 340.773115 107.577154 341.651286 107.640682 
Q 342.528539 107.702945 343.084662 108.4693 
Q 343.348958 108.833509 343.449145 109.25889 
Q 343.549679 109.682088 343.510457 110.386245 
Q 343.495328 110.572905 343.362817 111.504996 
Q 343.231571 112.436169 342.980638 114.120238 
z
M 347.602943 107.512969 
Q 347.033867 107.925932 346.928762 108.467468 
Q 346.824921 109.008087 347.21127 109.540489 
Q 347.598537 110.074155 348.144706 110.143079 
Q 348.692141 110.211086 349.261216 109.798123 
Q 349.830291 109.385161 349.935744 108.841442 
Q 350.041543 108.295541 349.65703 107.765668 
Q 349.27068 107.233267 348.723246 107.16526 
Q 348.177076 107.096336 347.602943 107.512969 
z
M 346.55903 107.753118 
Q 345.953828 107.999241 345.411643 107.855995 
Q 344.869804 107.710567 344.502726 107.204723 
Q 343.989735 106.497804 344.1948 105.721563 
Q 344.401129 104.944404 345.277506 104.308442 
Q 346.15894 103.668809 346.959242 103.715484 
Q 347.759543 103.762158 348.272534 104.469076 
Q 348.639612 104.974921 348.608582 105.536064 
Q 348.577898 106.095025 348.160029 106.591317 
Q 348.833968 106.306898 349.439665 106.465833 
Q 350.045708 106.622586 350.455 107.186603 
Q 351.078114 108.045275 350.887688 108.884254 
Q 350.696344 109.721969 349.720063 110.430429 
Q 348.745047 111.137971 347.888028 111.061025 
Q 347.031355 110.981896 346.408241 110.123225 
Q 345.99895 109.559208 346.039123 108.933513 
Q 346.079643 108.305636 346.55903 107.753118 
z
M 345.351964 106.704287 
Q 345.684169 107.162077 346.156263 107.211394 
Q 346.629622 107.259794 347.146849 106.884457 
Q 347.661546 106.510955 347.76485 106.044087 
Q 347.869419 105.576301 347.537214 105.118512 
Q 347.204091 104.659458 346.726938 104.613811 
Q 346.25105 104.567247 345.736353 104.940748 
Q 345.219126 105.316085 345.118351 105.781118 
Q 345.018841 106.245233 345.351964 106.704287 
z
" clip-path="url(#p763a50ff5c)" style="fill: #fdc527"/>
   </g>
   <g id="patch_3">
    <path d="M 43.78125 301.735725 
L 43.78125 35.623725 
" style="fill: none; stroke: #cccccc; stroke-width: 0.8; stroke-linejoin: miter; stroke-linecap: square"/>
   </g>
   <g id="patch_4">
    <path d="M 400.90125 301.735725 
L 400.90125 35.623725 
" style="fill: none; stroke: #cccccc; stroke-width: 0.8; stroke-linejoin: miter; stroke-linecap: square"/>
   </g>
   <g id="patch_5">
    <path d="M 43.78125 301.735725 
L 400.90125 301.735725 
" style="fill: none; stroke: #cccccc; stroke-width: 0.8; stroke-linejoin: miter; stroke-linecap: square"/>
   </g>
   <g id="patch_6">
    <path d="M 43.78125 35.623725 
L 400.90125 35.623725 
" style="fill: none; stroke: #cccccc; stroke-width: 0.8; stroke-linejoin: miter; stroke-linecap: square"/>
   </g>
   <g id="text_20">
    <!-- Block Size = 16K, Read-Write Type = Random Write-heavy 1:4 -->
    <g style="fill: #262626; opacity: 0.75" transform="translate(66.813906 30.882918) scale(0.1 -0.1)">
     <defs>
      <path id="DejaVuSans-42" d="M 1259 2228 
L 1259 519 
L 2272 519 
Q 2781 519 3026 730 
Q 3272 941 3272 1375 
Q 3272 1813 3026 2020 
Q 2781 2228 2272 2228 
L 1259 2228 
z
M 1259 4147 
L 1259 2741 
L 2194 2741 
Q 2656 2741 2882 2914 
Q 3109 3088 3109 3444 
Q 3109 3797 2882 3972 
Q 2656 4147 2194 4147 
L 1259 4147 
z
M 628 4666 
L 2241 4666 
Q 2963 4666 3353 4366 
Q 3744 4066 3744 3513 
Q 3744 3084 3544 2831 
Q 3344 2578 2956 2516 
Q 3422 2416 3680 2098 
Q 3938 1781 3938 1306 
Q 3938 681 3513 340 
Q 3088 0 2303 0 
L 628 0 
L 628 4666 
z
" transform="scale(0.015625)"/>
      <path id="DejaVuSans-6c" d="M 603 4863 
L 1178 4863 
L 1178 0 
L 603 0 
L 603 4863 
z
" transform="scale(0.015625)"/>
      <path id="DejaVuSans-6b" d="M 581 4863 
L 1159 4863 
L 1159 1991 
L 2875 3500 
L 3609 3500 
L 1753 1863 
L 3688 0 
L 2938 0 
L 1159 1709 
L 1159 0 
L 581 0 
L 581 4863 
z
" transform="scale(0.015625)"/>
      <path id="DejaVuSans-53" d="M 3425 4513 
L 3425 3897 
Q 3066 4069 2747 4153 
Q 2428 4238 2131 4238 
Q 1616 4238 1336 4038 
Q 1056 3838 1056 3469 
Q 1056 3159 1242 3001 
Q 1428 2844 1947 2747 
L 2328 2669 
Q 3034 2534 3370 2195 
Q 3706 1856 3706 1288 
Q 3706 609 3251 259 
Q 2797 -91 1919 -91 
Q 1588 -91 1214 -16 
Q 841 59 441 206 
L 441 856 
Q 825 641 1194 531 
Q 1563 422 1919 422 
Q 2459 422 2753 634 
Q 3047 847 3047 1241 
Q 3047 1584 2836 1778 
Q 2625 1972 2144 2069 
L 1759 2144 
Q 1053 2284 737 2584 
Q 422 2884 422 3419 
Q 422 4038 858 4394 
Q 1294 4750 2059 4750 
Q 2388 4750 2728 4690 
Q 3069 4631 3425 4513 
z
" transform="scale(0.015625)"/>
      <path id="DejaVuSans-69" d="M 603 3500 
L 1178 3500 
L 1178 0 
L 603 0 
L 603 3500 
z
M 603 4863 
L 1178 4863 
L 1178 4134 
L 603 4134 
L 603 4863 
z
" transform="scale(0.015625)"/>
      <path id="DejaVuSans-7a" d="M 353 3500 
L 3084 3500 
L 3084 2975 
L 922 459 
L 3084 459 
L 3084 0 
L 275 0 
L 275 525 
L 2438 3041 
L 353 3041 
L 353 3500 
z
" transform="scale(0.015625)"/>
      <path id="DejaVuSans-3d" d="M 678 2906 
L 4684 2906 
L 4684 2381 
L 678 2381 
L 678 2906 
z
M 678 1631 
L 4684 1631 
L 4684 1100 
L 678 1100 
L 678 1631 
z
" transform="scale(0.015625)"/>
      <path id="DejaVuSans-4b" d="M 628 4666 
L 1259 4666 
L 1259 2694 
L 3353 4666 
L 4166 4666 
L 1850 2491 
L 4331 0 
L 3500 0 
L 1259 2247 
L 1259 0 
L 628 0 
L 628 4666 
z
" transform="scale(0.015625)"/>
      <path id="DejaVuSans-2c" d="M 750 794 
L 1409 794 
L 1409 256 
L 897 -744 
L 494 -744 
L 750 256 
L 750 794 
z
" transform="scale(0.015625)"/>
      <path id="DejaVuSans-52" d="M 2841 2188 
Q 3044 2119 3236 1894 
Q 3428 1669 3622 1275 
L 4263 0 
L 3584 0 
L 2988 1197 
Q 2756 1666 2539 1819 
Q 2322 1972 1947 1972 
L 1259 1972 
L 1259 0 
L 628 0 
L 628 4666 
L 2053 4666 
Q 2853 4666 3247 4331 
Q 3641 3997 3641 3322 
Q 3641 2881 3436 2590 
Q 3231 2300 2841 2188 
z
M 1259 4147 
L 1259 2491 
L 2053 2491 
Q 2509 2491 2742 2702 
Q 2975 2913 2975 3322 
Q 2975 3731 2742 3939 
Q 2509 4147 2053 4147 
L 1259 4147 
z
" transform="scale(0.015625)"/>
      <path id="DejaVuSans-64" d="M 2906 2969 
L 2906 4863 
L 3481 4863 
L 3481 0 
L 2906 0 
L 2906 525 
Q 2725 213 2448 61 
Q 2172 -91 1784 -91 
Q 1150 -91 751 415 
Q 353 922 353 1747 
Q 353 2572 751 3078 
Q 1150 3584 1784 3584 
Q 2172 3584 2448 3432 
Q 2725 3281 2906 2969 
z
M 947 1747 
Q 947 1113 1208 752 
Q 1469 391 1925 391 
Q 2381 391 2643 752 
Q 2906 1113 2906 1747 
Q 2906 2381 2643 2742 
Q 2381 3103 1925 3103 
Q 1469 3103 1208 2742 
Q 947 2381 947 1747 
z
" transform="scale(0.015625)"/>
      <path id="DejaVuSans-2d" d="M 313 2009 
L 1997 2009 
L 1997 1497 
L 313 1497 
L 313 2009 
z
" transform="scale(0.015625)"/>
      <path id="DejaVuSans-57" d="M 213 4666 
L 850 4666 
L 1831 722 
L 2809 4666 
L 3519 4666 
L 4500 722 
L 5478 4666 
L 6119 4666 
L 4947 0 
L 4153 0 
L 3169 4050 
L 2175 0 
L 1381 0 
L 213 4666 
z
" transform="scale(0.015625)"/>
      <path id="DejaVuSans-54" d="M -19 4666 
L 3928 4666 
L 3928 4134 
L 2272 4134 
L 2272 0 
L 1638 0 
L 1638 4134 
L -19 4134 
L -19 4666 
z
" transform="scale(0.015625)"/>
      <path id="DejaVuSans-70" d="M 1159 525 
L 1159 -1331 
L 581 -1331 
L 581 3500 
L 1159 3500 
L 1159 2969 
Q 1341 3281 1617 3432 
Q 1894 3584 2278 3584 
Q 2916 3584 3314 3078 
Q 3713 2572 3713 1747 
Q 3713 922 3314 415 
Q 2916 -91 2278 -91 
Q 1894 -91 1617 61 
Q 1341 213 1159 525 
z
M 3116 1747 
Q 3116 2381 2855 2742 
Q 2594 3103 2138 3103 
Q 1681 3103 1420 2742 
Q 1159 2381 1159 1747 
Q 1159 1113 1420 752 
Q 1681 391 2138 391 
Q 2594 391 2855 752 
Q 3116 1113 3116 1747 
z
" transform="scale(0.015625)"/>
      <path id="DejaVuSans-68" d="M 3513 2113 
L 3513 0 
L 2938 0 
L 2938 2094 
Q 2938 2591 2744 2837 
Q 2550 3084 2163 3084 
Q 1697 3084 1428 2787 
Q 1159 2491 1159 1978 
L 1159 0 
L 581 0 
L 581 4863 
L 1159 4863 
L 1159 2956 
Q 1366 3272 1645 3428 
Q 1925 3584 2291 3584 
Q 2894 3584 3203 3211 
Q 3513 2838 3513 2113 
z
" transform="scale(0.015625)"/>
      <path id="DejaVuSans-76" d="M 191 3500 
L 800 3500 
L 1894 563 
L 2988 3500 
L 3597 3500 
L 2284 0 
L 1503 0 
L 191 3500 
z
" transform="scale(0.015625)"/>
      <path id="DejaVuSans-3a" d="M 750 794 
L 1409 794 
L 1409 0 
L 750 0 
L 750 794 
z
M 750 3309 
L 1409 3309 
L 1409 2516 
L 750 2516 
L 750 3309 
z
" transform="scale(0.015625)"/>
     </defs>
     <use xlink:href="#DejaVuSans-42"/>
     <use xlink:href="#DejaVuSans-6c" transform="translate(68.603516 0)"/>
     <use xlink:href="#DejaVuSans-6f" transform="translate(96.386719 0)"/>
     <use xlink:href="#DejaVuSans-63" transform="translate(157.568359 0)"/>
     <use xlink:href="#DejaVuSans-6b" transform="translate(212.548828 0)"/>
     <use xlink:href="#DejaVuSans-20" transform="translate(270.458984 0)"/>
     <use xlink:href="#DejaVuSans-53" transform="translate(302.246094 0)"/>
     <use xlink:href="#DejaVuSans-69" transform="translate(365.722656 0)"/>
     <use xlink:href="#DejaVuSans-7a" transform="translate(393.505859 0)"/>
     <use xlink:href="#DejaVuSans-65" transform="translate(445.996094 0)"/>
     <use xlink:href="#DejaVuSans-20" transform="translate(507.519531 0)"/>
     <use xlink:href="#DejaVuSans-3d" transform="translate(539.306641 0)"/>
     <use xlink:href="#DejaVuSans-20" transform="translate(623.095703 0)"/>
     <use xlink:href="#DejaVuSans-31" transform="translate(654.882812 0)"/>
     <use xlink:href="#DejaVuSans-36" transform="translate(718.505859 0)"/>
     <use xlink:href="#DejaVuSans-4b" transform="translate(782.128906 0)"/>
     <use xlink:href="#DejaVuSans-2c" transform="translate(847.705078 0)"/>
     <use xlink:href="#DejaVuSans-20" transform="translate(879.492188 0)"/>
     <use xlink:href="#DejaVuSans-52" transform="translate(911.279297 0)"/>
     <use xlink:href="#DejaVuSans-65" transform="translate(976.261719 0)"/>
     <use xlink:href="#DejaVuSans-61" transform="translate(1037.785156 0)"/>
     <use xlink:href="#DejaVuSans-64" transform="translate(1099.064453 0)"/>
     <use xlink:href="#DejaVuSans-2d" transform="translate(1162.541016 0)"/>
     <use xlink:href="#DejaVuSans-57" transform="translate(1194.625 0)"/>
     <use xlink:href="#DejaVuSans-72" transform="translate(1289.001953 0)"/>
     <use xlink:href="#DejaVuSans-69" transform="translate(1330.115234 0)"/>
     <use xlink:href="#DejaVuSans-74" transform="translate(1357.898438 0)"/>
     <use xlink:href="#DejaVuSans-65" transform="translate(1397.107422 0)"/>
     <use xlink:href="#DejaVuSans-20" transform="translate(1458.630859 0)"/>
     <use xlink:href="#DejaVuSans-54" transform="translate(1490.417969 0)"/>
     <use xlink:href="#DejaVuSans-79" transform="translate(1535.876953 0)"/>
     <use xlink:href="#DejaVuSans-70" transform="translate(1595.056641 0)"/>
     <use xlink:href="#DejaVuSans-65" transform="translate(1658.533203 0)"/>
     <use xlink:href="#DejaVuSans-20" transform="translate(1720.056641 0)"/>
     <use xlink:href="#DejaVuSans-3d" transform="translate(1751.84375 0)"/>
     <use xlink:href="#DejaVuSans-20" transform="translate(1835.632812 0)"/>
     <use xlink:href="#DejaVuSans-52" transform="translate(1867.419922 0)"/>
     <use xlink:href="#DejaVuSans-61" transform="translate(1934.652344 0)"/>
     <use xlink:href="#DejaVuSans-6e" transform="translate(1995.931641 0)"/>
     <use xlink:href="#DejaVuSans-64" transform="translate(2059.310547 0)"/>
     <use xlink:href="#DejaVuSans-6f" transform="translate(2122.787109 0)"/>
     <use xlink:href="#DejaVuSans-6d" transform="translate(2183.96875 0)"/>
     <use xlink:href="#DejaVuSans-20" transform="translate(2281.380859 0)"/>
     <use xlink:href="#DejaVuSans-57" transform="translate(2313.167969 0)"/>
     <use xlink:href="#DejaVuSans-72" transform="translate(2407.544922 0)"/>
     <use xlink:href="#DejaVuSans-69" transform="translate(2448.658203 0)"/>
     <use xlink:href="#DejaVuSans-74" transform="translate(2476.441406 0)"/>
     <use xlink:href="#DejaVuSans-65" transform="translate(2515.650391 0)"/>
     <use xlink:href="#DejaVuSans-2d" transform="translate(2577.173828 0)"/>
     <use xlink:href="#DejaVuSans-68" transform="translate(2613.257812 0)"/>
     <use xlink:href="#DejaVuSans-65" transform="translate(2676.636719 0)"/>
     <use xlink:href="#DejaVuSans-61" transform="translate(2738.160156 0)"/>
     <use xlink:href="#DejaVuSans-76" transform="translate(2799.439453 0)"/>
     <use xlink:href="#DejaVuSans-79" transform="translate(2858.619141 0)"/>
     <use xlink:href="#DejaVuSans-20" transform="translate(2917.798828 0)"/>
     <use xlink:href="#DejaVuSans-31" transform="translate(2949.585938 0)"/>
     <use xlink:href="#DejaVuSans-3a" transform="translate(3013.208984 0)"/>
     <use xlink:href="#DejaVuSans-34" transform="translate(3046.900391 0)"/>
    </g>
   </g>
   <g id="text_21">
    <!-- Mean Latency vs Number of Jobs -->
    <g style="fill: #262626" transform="translate(111.685313 16.318125) scale(0.12 -0.12)">
     <defs>
      <path id="DejaVuSans-Bold-4d" d="M 588 4666 
L 2119 4666 
L 3181 2169 
L 4250 4666 
L 5778 4666 
L 5778 0 
L 4641 0 
L 4641 3413 
L 3566 897 
L 2803 897 
L 1728 3413 
L 1728 0 
L 588 0 
L 588 4666 
z
" transform="scale(0.015625)"/>
      <path id="DejaVuSans-Bold-65" d="M 4031 1759 
L 4031 1441 
L 1416 1441 
Q 1456 1047 1700 850 
Q 1944 653 2381 653 
Q 2734 653 3104 758 
Q 3475 863 3866 1075 
L 3866 213 
Q 3469 63 3072 -14 
Q 2675 -91 2278 -91 
Q 1328 -91 801 392 
Q 275 875 275 1747 
Q 275 2603 792 3093 
Q 1309 3584 2216 3584 
Q 3041 3584 3536 3087 
Q 4031 2591 4031 1759 
z
M 2881 2131 
Q 2881 2450 2695 2645 
Q 2509 2841 2209 2841 
Q 1884 2841 1681 2658 
Q 1478 2475 1428 2131 
L 2881 2131 
z
" transform="scale(0.015625)"/>
      <path id="DejaVuSans-Bold-61" d="M 2106 1575 
Q 1756 1575 1579 1456 
Q 1403 1338 1403 1106 
Q 1403 894 1545 773 
Q 1688 653 1941 653 
Q 2256 653 2472 879 
Q 2688 1106 2688 1447 
L 2688 1575 
L 2106 1575 
z
M 3816 1997 
L 3816 0 
L 2688 0 
L 2688 519 
Q 2463 200 2181 54 
Q 1900 -91 1497 -91 
Q 953 -91 614 226 
Q 275 544 275 1050 
Q 275 1666 698 1953 
Q 1122 2241 2028 2241 
L 2688 2241 
L 2688 2328 
Q 2688 2594 2478 2717 
Q 2269 2841 1825 2841 
Q 1466 2841 1156 2769 
Q 847 2697 581 2553 
L 581 3406 
Q 941 3494 1303 3539 
Q 1666 3584 2028 3584 
Q 2975 3584 3395 3211 
Q 3816 2838 3816 1997 
z
" transform="scale(0.015625)"/>
      <path id="DejaVuSans-Bold-6e" d="M 4056 2131 
L 4056 0 
L 2931 0 
L 2931 347 
L 2931 1631 
Q 2931 2084 2911 2256 
Q 2891 2428 2841 2509 
Q 2775 2619 2662 2680 
Q 2550 2741 2406 2741 
Q 2056 2741 1856 2470 
Q 1656 2200 1656 1722 
L 1656 0 
L 538 0 
L 538 3500 
L 1656 3500 
L 1656 2988 
Q 1909 3294 2193 3439 
Q 2478 3584 2822 3584 
Q 3428 3584 3742 3212 
Q 4056 2841 4056 2131 
z
" transform="scale(0.015625)"/>
      <path id="DejaVuSans-Bold-20" transform="scale(0.015625)"/>
      <path id="DejaVuSans-Bold-4c" d="M 588 4666 
L 1791 4666 
L 1791 909 
L 3903 909 
L 3903 0 
L 588 0 
L 588 4666 
z
" transform="scale(0.015625)"/>
      <path id="DejaVuSans-Bold-74" d="M 1759 4494 
L 1759 3500 
L 2913 3500 
L 2913 2700 
L 1759 2700 
L 1759 1216 
Q 1759 972 1856 886 
Q 1953 800 2241 800 
L 2816 800 
L 2816 0 
L 1856 0 
Q 1194 0 917 276 
Q 641 553 641 1216 
L 641 2700 
L 84 2700 
L 84 3500 
L 641 3500 
L 641 4494 
L 1759 4494 
z
" transform="scale(0.015625)"/>
      <path id="DejaVuSans-Bold-63" d="M 3366 3391 
L 3366 2478 
Q 3138 2634 2908 2709 
Q 2678 2784 2431 2784 
Q 1963 2784 1702 2511 
Q 1441 2238 1441 1747 
Q 1441 1256 1702 982 
Q 1963 709 2431 709 
Q 2694 709 2930 787 
Q 3166 866 3366 1019 
L 3366 103 
Q 3103 6 2833 -42 
Q 2563 -91 2291 -91 
Q 1344 -91 809 395 
Q 275 881 275 1747 
Q 275 2613 809 3098 
Q 1344 3584 2291 3584 
Q 2566 3584 2833 3536 
Q 3100 3488 3366 3391 
z
" transform="scale(0.015625)"/>
      <path id="DejaVuSans-Bold-79" d="M 78 3500 
L 1197 3500 
L 2138 1125 
L 2938 3500 
L 4056 3500 
L 2584 -331 
Q 2363 -916 2067 -1148 
Q 1772 -1381 1288 -1381 
L 641 -1381 
L 641 -647 
L 991 -647 
Q 1275 -647 1404 -556 
Q 1534 -466 1606 -231 
L 1638 -134 
L 78 3500 
z
" transform="scale(0.015625)"/>
      <path id="DejaVuSans-Bold-76" d="M 97 3500 
L 1216 3500 
L 2088 1081 
L 2956 3500 
L 4078 3500 
L 2700 0 
L 1472 0 
L 97 3500 
z
" transform="scale(0.015625)"/>
      <path id="DejaVuSans-Bold-73" d="M 3272 3391 
L 3272 2541 
Q 2913 2691 2578 2766 
Q 2244 2841 1947 2841 
Q 1628 2841 1473 2761 
Q 1319 2681 1319 2516 
Q 1319 2381 1436 2309 
Q 1553 2238 1856 2203 
L 2053 2175 
Q 2913 2066 3209 1816 
Q 3506 1566 3506 1031 
Q 3506 472 3093 190 
Q 2681 -91 1863 -91 
Q 1516 -91 1145 -36 
Q 775 19 384 128 
L 384 978 
Q 719 816 1070 734 
Q 1422 653 1784 653 
Q 2113 653 2278 743 
Q 2444 834 2444 1013 
Q 2444 1163 2330 1236 
Q 2216 1309 1875 1350 
L 1678 1375 
Q 931 1469 631 1722 
Q 331 1975 331 2491 
Q 331 3047 712 3315 
Q 1094 3584 1881 3584 
Q 2191 3584 2531 3537 
Q 2872 3491 3272 3391 
z
" transform="scale(0.015625)"/>
      <path id="DejaVuSans-Bold-4e" d="M 588 4666 
L 1931 4666 
L 3628 1466 
L 3628 4666 
L 4769 4666 
L 4769 0 
L 3425 0 
L 1728 3200 
L 1728 0 
L 588 0 
L 588 4666 
z
" transform="scale(0.015625)"/>
      <path id="DejaVuSans-Bold-75" d="M 500 1363 
L 500 3500 
L 1625 3500 
L 1625 3150 
Q 1625 2866 1622 2436 
Q 1619 2006 1619 1863 
Q 1619 1441 1641 1255 
Q 1663 1069 1716 984 
Q 1784 875 1895 815 
Q 2006 756 2150 756 
Q 2500 756 2700 1025 
Q 2900 1294 2900 1772 
L 2900 3500 
L 4019 3500 
L 4019 0 
L 2900 0 
L 2900 506 
Q 2647 200 2364 54 
Q 2081 -91 1741 -91 
Q 1134 -91 817 281 
Q 500 653 500 1363 
z
" transform="scale(0.015625)"/>
      <path id="DejaVuSans-Bold-6d" d="M 3781 2919 
Q 3994 3244 4286 3414 
Q 4578 3584 4928 3584 
Q 5531 3584 5847 3212 
Q 6163 2841 6163 2131 
L 6163 0 
L 5038 0 
L 5038 1825 
Q 5041 1866 5042 1909 
Q 5044 1953 5044 2034 
Q 5044 2406 4934 2573 
Q 4825 2741 4581 2741 
Q 4263 2741 4089 2478 
Q 3916 2216 3909 1719 
L 3909 0 
L 2784 0 
L 2784 1825 
Q 2784 2406 2684 2573 
Q 2584 2741 2328 2741 
Q 2006 2741 1831 2477 
Q 1656 2213 1656 1722 
L 1656 0 
L 531 0 
L 531 3500 
L 1656 3500 
L 1656 2988 
Q 1863 3284 2130 3434 
Q 2397 3584 2719 3584 
Q 3081 3584 3359 3409 
Q 3638 3234 3781 2919 
z
" transform="scale(0.015625)"/>
      <path id="DejaVuSans-Bold-62" d="M 2400 722 
Q 2759 722 2948 984 
Q 3138 1247 3138 1747 
Q 3138 2247 2948 2509 
Q 2759 2772 2400 2772 
Q 2041 2772 1848 2508 
Q 1656 2244 1656 1747 
Q 1656 1250 1848 986 
Q 2041 722 2400 722 
z
M 1656 2988 
Q 1888 3294 2169 3439 
Q 2450 3584 2816 3584 
Q 3463 3584 3878 3070 
Q 4294 2556 4294 1747 
Q 4294 938 3878 423 
Q 3463 -91 2816 -91 
Q 2450 -91 2169 54 
Q 1888 200 1656 506 
L 1656 0 
L 538 0 
L 538 4863 
L 1656 4863 
L 1656 2988 
z
" transform="scale(0.015625)"/>
      <path id="DejaVuSans-Bold-72" d="M 3138 2547 
Q 2991 2616 2845 2648 
Q 2700 2681 2553 2681 
Q 2122 2681 1889 2404 
Q 1656 2128 1656 1613 
L 1656 0 
L 538 0 
L 538 3500 
L 1656 3500 
L 1656 2925 
Q 1872 3269 2151 3426 
Q 2431 3584 2822 3584 
Q 2878 3584 2943 3579 
Q 3009 3575 3134 3559 
L 3138 2547 
z
" transform="scale(0.015625)"/>
      <path id="DejaVuSans-Bold-6f" d="M 2203 2784 
Q 1831 2784 1636 2517 
Q 1441 2250 1441 1747 
Q 1441 1244 1636 976 
Q 1831 709 2203 709 
Q 2569 709 2762 976 
Q 2956 1244 2956 1747 
Q 2956 2250 2762 2517 
Q 2569 2784 2203 2784 
z
M 2203 3584 
Q 3106 3584 3614 3096 
Q 4122 2609 4122 1747 
Q 4122 884 3614 396 
Q 3106 -91 2203 -91 
Q 1297 -91 786 396 
Q 275 884 275 1747 
Q 275 2609 786 3096 
Q 1297 3584 2203 3584 
z
" transform="scale(0.015625)"/>
      <path id="DejaVuSans-Bold-66" d="M 2841 4863 
L 2841 4128 
L 2222 4128 
Q 1984 4128 1890 4042 
Q 1797 3956 1797 3744 
L 1797 3500 
L 2753 3500 
L 2753 2700 
L 1797 2700 
L 1797 0 
L 678 0 
L 678 2700 
L 122 2700 
L 122 3500 
L 678 3500 
L 678 3744 
Q 678 4316 997 4589 
Q 1316 4863 1984 4863 
L 2841 4863 
z
" transform="scale(0.015625)"/>
      <path id="DejaVuSans-Bold-4a" d="M 588 4666 
L 1791 4666 
L 1791 453 
Q 1791 -419 1317 -850 
Q 844 -1281 -116 -1281 
L -359 -1281 
L -359 -372 
L -172 -372 
Q 203 -372 395 -162 
Q 588 47 588 453 
L 588 4666 
z
" transform="scale(0.015625)"/>
     </defs>
     <use xlink:href="#DejaVuSans-Bold-4d"/>
     <use xlink:href="#DejaVuSans-Bold-65" transform="translate(99.511719 0)"/>
     <use xlink:href="#DejaVuSans-Bold-61" transform="translate(167.333984 0)"/>
     <use xlink:href="#DejaVuSans-Bold-6e" transform="translate(234.814453 0)"/>
     <use xlink:href="#DejaVuSans-Bold-20" transform="translate(306.005859 0)"/>
     <use xlink:href="#DejaVuSans-Bold-4c" transform="translate(340.820312 0)"/>
     <use xlink:href="#DejaVuSans-Bold-61" transform="translate(404.541016 0)"/>
     <use xlink:href="#DejaVuSans-Bold-74" transform="translate(472.021484 0)"/>
     <use xlink:href="#DejaVuSans-Bold-65" transform="translate(519.824219 0)"/>
     <use xlink:href="#DejaVuSans-Bold-6e" transform="translate(587.646484 0)"/>
     <use xlink:href="#DejaVuSans-Bold-63" transform="translate(658.837891 0)"/>
     <use xlink:href="#DejaVuSans-Bold-79" transform="translate(718.115234 0)"/>
     <use xlink:href="#DejaVuSans-Bold-20" transform="translate(783.300781 0)"/>
     <use xlink:href="#DejaVuSans-Bold-76" transform="translate(818.115234 0)"/>
     <use xlink:href="#DejaVuSans-Bold-73" transform="translate(883.300781 0)"/>
     <use xlink:href="#DejaVuSans-Bold-20" transform="translate(942.822266 0)"/>
     <use xlink:href="#DejaVuSans-Bold-4e" transform="translate(977.636719 0)"/>
     <use xlink:href="#DejaVuSans-Bold-75" transform="translate(1061.328125 0)"/>
     <use xlink:href="#DejaVuSans-Bold-6d" transform="translate(1132.519531 0)"/>
     <use xlink:href="#DejaVuSans-Bold-62" transform="translate(1236.71875 0)"/>
     <use xlink:href="#DejaVuSans-Bold-65" transform="translate(1308.300781 0)"/>
     <use xlink:href="#DejaVuSans-Bold-72" transform="translate(1376.123047 0)"/>
     <use xlink:href="#DejaVuSans-Bold-20" transform="translate(1425.439453 0)"/>
     <use xlink:href="#DejaVuSans-Bold-6f" transform="translate(1460.253906 0)"/>
     <use xlink:href="#DejaVuSans-Bold-66" transform="translate(1528.955078 0)"/>
     <use xlink:href="#DejaVuSans-Bold-20" transform="translate(1572.460938 0)"/>
     <use xlink:href="#DejaVuSans-Bold-4a" transform="translate(1607.275391 0)"/>
     <use xlink:href="#DejaVuSans-Bold-6f" transform="translate(1644.482422 0)"/>
     <use xlink:href="#DejaVuSans-Bold-62" transform="translate(1713.183594 0)"/>
     <use xlink:href="#DejaVuSans-Bold-73" transform="translate(1784.765625 0)"/>
    </g>
   </g>
   <g id="legend_1">
    <g id="text_22">
     <!-- IO Depth -->
     <g style="fill: #262626" transform="translate(435.407813 120.065663) scale(0.1 -0.1)">
      <defs>
       <path id="DejaVuSans-49" d="M 628 4666 
L 1259 4666 
L 1259 0 
L 628 0 
L 628 4666 
z
" transform="scale(0.015625)"/>
       <path id="DejaVuSans-4f" d="M 2522 4238 
Q 1834 4238 1429 3725 
Q 1025 3213 1025 2328 
Q 1025 1447 1429 934 
Q 1834 422 2522 422 
Q 3209 422 3611 934 
Q 4013 1447 4013 2328 
Q 4013 3213 3611 3725 
Q 3209 4238 2522 4238 
z
M 2522 4750 
Q 3503 4750 4090 4092 
Q 4678 3434 4678 2328 
Q 4678 1225 4090 567 
Q 3503 -91 2522 -91 
Q 1538 -91 948 565 
Q 359 1222 359 2328 
Q 359 3434 948 4092 
Q 1538 4750 2522 4750 
z
" transform="scale(0.015625)"/>
       <path id="DejaVuSans-44" d="M 1259 4147 
L 1259 519 
L 2022 519 
Q 2988 519 3436 956 
Q 3884 1394 3884 2338 
Q 3884 3275 3436 3711 
Q 2988 4147 2022 4147 
L 1259 4147 
z
M 628 4666 
L 1925 4666 
Q 3281 4666 3915 4102 
Q 4550 3538 4550 2338 
Q 4550 1131 3912 565 
Q 3275 0 1925 0 
L 628 0 
L 628 4666 
z
" transform="scale(0.015625)"/>
      </defs>
      <use xlink:href="#DejaVuSans-49"/>
      <use xlink:href="#DejaVuSans-4f" transform="translate(29.492188 0)"/>
      <use xlink:href="#DejaVuSans-20" transform="translate(108.203125 0)"/>
      <use xlink:href="#DejaVuSans-44" transform="translate(139.990234 0)"/>
      <use xlink:href="#DejaVuSans-65" transform="translate(216.992188 0)"/>
      <use xlink:href="#DejaVuSans-70" transform="translate(278.515625 0)"/>
      <use xlink:href="#DejaVuSans-74" transform="translate(341.992188 0)"/>
      <use xlink:href="#DejaVuSans-68" transform="translate(381.201172 0)"/>
     </g>
    </g>
    <g id="line2d_24">
     <path d="M 434.09375 131.243787 
L 444.09375 131.243787 
L 454.09375 131.243787 
" style="fill: none; stroke: #4c02a1; stroke-width: 1.5; stroke-linecap: round"/>
    </g>
    <g id="text_23">
     <!-- 1 -->
     <g style="fill: #262626" transform="translate(462.09375 134.743787) scale(0.1 -0.1)">
      <use xlink:href="#DejaVuSans-31"/>
     </g>
    </g>
    <g id="line2d_25">
     <path d="M 434.09375 145.921913 
L 444.09375 145.921913 
L 454.09375 145.921913 
" style="fill: none; stroke: #7e03a8; stroke-width: 1.5; stroke-linecap: round"/>
    </g>
    <g id="text_24">
     <!-- 4 -->
     <g style="fill: #262626" transform="translate(462.09375 149.421913) scale(0.1 -0.1)">
      <use xlink:href="#DejaVuSans-34"/>
     </g>
    </g>
    <g id="line2d_26">
     <path d="M 434.09375 160.600037 
L 444.09375 160.600037 
L 454.09375 160.600037 
" style="fill: none; stroke: #aa2395; stroke-width: 1.5; stroke-linecap: round"/>
    </g>
    <g id="text_25">
     <!-- 8 -->
     <g style="fill: #262626" transform="translate(462.09375 164.100037) scale(0.1 -0.1)">
      <use xlink:href="#DejaVuSans-38"/>
     </g>
    </g>
    <g id="line2d_27">
     <path d="M 434.09375 175.278163 
L 444.09375 175.278163 
L 454.09375 175.278163 
" style="fill: none; stroke: #cc4778; stroke-width: 1.5; stroke-linecap: round"/>
    </g>
    <g id="text_26">
     <!-- 16 -->
     <g style="fill: #262626" transform="translate(462.09375 178.778163) scale(0.1 -0.1)">
      <use xlink:href="#DejaVuSans-31"/>
      <use xlink:href="#DejaVuSans-36" transform="translate(63.623047 0)"/>
     </g>
    </g>
    <g id="line2d_28">
     <path d="M 434.09375 189.956288 
L 444.09375 189.956288 
L 454.09375 189.956288 
" style="fill: none; stroke: #e66c5c; stroke-width: 1.5; stroke-linecap: round"/>
    </g>
    <g id="text_27">
     <!-- 32 -->
     <g style="fill: #262626" transform="translate(462.09375 193.456288) scale(0.1 -0.1)">
      <use xlink:href="#DejaVuSans-33"/>
      <use xlink:href="#DejaVuSans-32" transform="translate(63.623047 0)"/>
     </g>
    </g>
    <g id="line2d_29">
     <path d="M 434.09375 204.634412 
L 444.09375 204.634412 
L 454.09375 204.634412 
" style="fill: none; stroke: #f89540; stroke-width: 1.5; stroke-linecap: round"/>
    </g>
    <g id="text_28">
     <!-- 64 -->
     <g style="fill: #262626" transform="translate(462.09375 208.134412) scale(0.1 -0.1)">
      <use xlink:href="#DejaVuSans-36"/>
      <use xlink:href="#DejaVuSans-34" transform="translate(63.623047 0)"/>
     </g>
    </g>
    <g id="line2d_30">
     <path d="M 434.09375 219.312537 
L 444.09375 219.312537 
L 454.09375 219.312537 
" style="fill: none; stroke: #fdc527; stroke-width: 1.5; stroke-linecap: round"/>
    </g>
    <g id="text_29">
     <!-- 128 -->
     <g style="fill: #262626" transform="translate(462.09375 222.812537) scale(0.1 -0.1)">
      <use xlink:href="#DejaVuSans-31"/>
      <use xlink:href="#DejaVuSans-32" transform="translate(63.623047 0)"/>
      <use xlink:href="#DejaVuSans-38" transform="translate(127.246094 0)"/>
     </g>
    </g>
   </g>
  </g>
 </g>
 <defs>
  <clipPath id="p763a50ff5c">
   <rect x="43.78125" y="35.623725" width="357.12" height="266.112"/>
  </clipPath>
 </defs>
</svg>
