<?xml version="1.0" encoding="utf-8" standalone="no"?>
<!DOCTYPE svg PUBLIC "-//W3C//DTD SVG 1.1//EN"
  "http://www.w3.org/Graphics/SVG/1.1/DTD/svg11.dtd">
<svg xmlns:xlink="http://www.w3.org/1999/xlink" width="492.38125pt" height="339.291975pt" viewBox="0 0 492.38125 339.291975" xmlns="http://www.w3.org/2000/svg" version="1.1">
 <metadata>
  <rdf:RDF xmlns:dc="http://purl.org/dc/elements/1.1/" xmlns:cc="http://creativecommons.org/ns#" xmlns:rdf="http://www.w3.org/1999/02/22-rdf-syntax-ns#">
   <cc:Work>
    <dc:type rdf:resource="http://purl.org/dc/dcmitype/StillImage"/>
    <dc:date>2025-09-11T11:48:33.732956</dc:date>
    <dc:format>image/svg+xml</dc:format>
    <dc:creator>
     <cc:Agent>
      <dc:title>Matplotlib v3.10.6, https://matplotlib.org/</dc:title>
     </cc:Agent>
    </dc:creator>
   </cc:Work>
  </rdf:RDF>
 </metadata>
 <defs>
  <style type="text/css">*{stroke-linejoin: round; stroke-linecap: butt}</style>
 </defs>
 <g id="figure_1">
  <g id="patch_1">
   <path d="M 0 339.291975 
L 492.38125 339.291975 
L 492.38125 0 
L 0 0 
z
" style="fill: #ffffff"/>
  </g>
  <g id="axes_1">
   <g id="patch_2">
    <path d="M 43.78125 301.735725 
L 400.90125 301.735725 
L 400.90125 35.623725 
L 43.78125 35.623725 
z
" style="fill: #ffffff"/>
   </g>
   <g id="matplotlib.axis_1">
    <g id="xtick_1">
     <g id="line2d_1">
      <path d="M 67.682982 301.735725 
L 67.682982 35.623725 
" clip-path="url(#p83537b7233)" style="fill: none; stroke: #cccccc; stroke-width: 0.8; stroke-linecap: round"/>
     </g>
     <g id="text_1">
      <!-- 4 -->
      <g style="fill: #262626" transform="translate(64.501732 316.334162) scale(0.1 -0.1)">
       <defs>
        <path id="DejaVuSans-34" d="M 2419 4116 
L 825 1625 
L 2419 1625 
L 2419 4116 
z
M 2253 4666 
L 3047 4666 
L 3047 1625 
L 3713 1625 
L 3713 1100 
L 3047 1100 
L 3047 0 
L 2419 0 
L 2419 1100 
L 313 1100 
L 313 1709 
L 2253 4666 
z
" transform="scale(0.015625)"/>
       </defs>
       <use xlink:href="#DejaVuSans-34"/>
      </g>
     </g>
    </g>
    <g id="xtick_2">
     <g id="line2d_2">
      <path d="M 139.260362 301.735725 
L 139.260362 35.623725 
" clip-path="url(#p83537b7233)" style="fill: none; stroke: #cccccc; stroke-width: 0.8; stroke-linecap: round"/>
     </g>
     <g id="text_2">
      <!-- 32 -->
      <g style="fill: #262626" transform="translate(132.897862 316.334162) scale(0.1 -0.1)">
       <defs>
        <path id="DejaVuSans-33" d="M 2597 2516 
Q 3050 2419 3304 2112 
Q 3559 1806 3559 1356 
Q 3559 666 3084 287 
Q 2609 -91 1734 -91 
Q 1441 -91 1130 -33 
Q 819 25 488 141 
L 488 750 
Q 750 597 1062 519 
Q 1375 441 1716 441 
Q 2309 441 2620 675 
Q 2931 909 2931 1356 
Q 2931 1769 2642 2001 
Q 2353 2234 1838 2234 
L 1294 2234 
L 1294 2753 
L 1863 2753 
Q 2328 2753 2575 2939 
Q 2822 3125 2822 3475 
Q 2822 3834 2567 4026 
Q 2313 4219 1838 4219 
Q 1578 4219 1281 4162 
Q 984 4106 628 3988 
L 628 4550 
Q 988 4650 1302 4700 
Q 1616 4750 1894 4750 
Q 2613 4750 3031 4423 
Q 3450 4097 3450 3541 
Q 3450 3153 3228 2886 
Q 3006 2619 2597 2516 
z
" transform="scale(0.015625)"/>
        <path id="DejaVuSans-32" d="M 1228 531 
L 3431 531 
L 3431 0 
L 469 0 
L 469 531 
Q 828 903 1448 1529 
Q 2069 2156 2228 2338 
Q 2531 2678 2651 2914 
Q 2772 3150 2772 3378 
Q 2772 3750 2511 3984 
Q 2250 4219 1831 4219 
Q 1534 4219 1204 4116 
Q 875 4013 500 3803 
L 500 4441 
Q 881 4594 1212 4672 
Q 1544 4750 1819 4750 
Q 2544 4750 2975 4387 
Q 3406 4025 3406 3419 
Q 3406 3131 3298 2873 
Q 3191 2616 2906 2266 
Q 2828 2175 2409 1742 
Q 1991 1309 1228 531 
z
" transform="scale(0.015625)"/>
       </defs>
       <use xlink:href="#DejaVuSans-33"/>
       <use xlink:href="#DejaVuSans-32" transform="translate(63.623047 0)"/>
      </g>
     </g>
    </g>
    <g id="xtick_3">
     <g id="line2d_3">
      <path d="M 384.668523 301.735725 
L 384.668523 35.623725 
" clip-path="url(#p83537b7233)" style="fill: none; stroke: #cccccc; stroke-width: 0.8; stroke-linecap: round"/>
     </g>
     <g id="text_3">
      <!-- 128 -->
      <g style="fill: #262626" transform="translate(375.124773 316.334162) scale(0.1 -0.1)">
       <defs>
        <path id="DejaVuSans-31" d="M 794 531 
L 1825 531 
L 1825 4091 
L 703 3866 
L 703 4441 
L 1819 4666 
L 2450 4666 
L 2450 531 
L 3481 531 
L 3481 0 
L 794 0 
L 794 531 
z
" transform="scale(0.015625)"/>
        <path id="DejaVuSans-38" d="M 2034 2216 
Q 1584 2216 1326 1975 
Q 1069 1734 1069 1313 
Q 1069 891 1326 650 
Q 1584 409 2034 409 
Q 2484 409 2743 651 
Q 3003 894 3003 1313 
Q 3003 1734 2745 1975 
Q 2488 2216 2034 2216 
z
M 1403 2484 
Q 997 2584 770 2862 
Q 544 3141 544 3541 
Q 544 4100 942 4425 
Q 1341 4750 2034 4750 
Q 2731 4750 3128 4425 
Q 3525 4100 3525 3541 
Q 3525 3141 3298 2862 
Q 3072 2584 2669 2484 
Q 3125 2378 3379 2068 
Q 3634 1759 3634 1313 
Q 3634 634 3220 271 
Q 2806 -91 2034 -91 
Q 1263 -91 848 271 
Q 434 634 434 1313 
Q 434 1759 690 2068 
Q 947 2378 1403 2484 
z
M 1172 3481 
Q 1172 3119 1398 2916 
Q 1625 2713 2034 2713 
Q 2441 2713 2670 2916 
Q 2900 3119 2900 3481 
Q 2900 3844 2670 4047 
Q 2441 4250 2034 4250 
Q 1625 4250 1398 4047 
Q 1172 3844 1172 3481 
z
" transform="scale(0.015625)"/>
       </defs>
       <use xlink:href="#DejaVuSans-31"/>
       <use xlink:href="#DejaVuSans-32" transform="translate(63.623047 0)"/>
       <use xlink:href="#DejaVuSans-38" transform="translate(127.246094 0)"/>
      </g>
     </g>
    </g>
    <g id="xtick_4">
     <g id="line2d_4">
      <path d="M 98.359002 301.735725 
L 98.359002 35.623725 
" clip-path="url(#p83537b7233)" style="fill: none; stroke: #cccccc; stroke-width: 0.8; stroke-linecap: round"/>
     </g>
     <g id="text_4">
      <!-- 16 -->
      <g style="fill: #262626" transform="translate(91.996502 316.334162) scale(0.1 -0.1)">
       <defs>
        <path id="DejaVuSans-36" d="M 2113 2584 
Q 1688 2584 1439 2293 
Q 1191 2003 1191 1497 
Q 1191 994 1439 701 
Q 1688 409 2113 409 
Q 2538 409 2786 701 
Q 3034 994 3034 1497 
Q 3034 2003 2786 2293 
Q 2538 2584 2113 2584 
z
M 3366 4563 
L 3366 3988 
Q 3128 4100 2886 4159 
Q 2644 4219 2406 4219 
Q 1781 4219 1451 3797 
Q 1122 3375 1075 2522 
Q 1259 2794 1537 2939 
Q 1816 3084 2150 3084 
Q 2853 3084 3261 2657 
Q 3669 2231 3669 1497 
Q 3669 778 3244 343 
Q 2819 -91 2113 -91 
Q 1303 -91 875 529 
Q 447 1150 447 2328 
Q 447 3434 972 4092 
Q 1497 4750 2381 4750 
Q 2619 4750 2861 4703 
Q 3103 4656 3366 4563 
z
" transform="scale(0.015625)"/>
       </defs>
       <use xlink:href="#DejaVuSans-31"/>
       <use xlink:href="#DejaVuSans-36" transform="translate(63.623047 0)"/>
      </g>
     </g>
    </g>
    <g id="xtick_5">
     <g id="line2d_5">
      <path d="M 60.013977 301.735725 
L 60.013977 35.623725 
" clip-path="url(#p83537b7233)" style="fill: none; stroke: #cccccc; stroke-width: 0.8; stroke-linecap: round"/>
     </g>
     <g id="text_5">
      <!-- 1 -->
      <g style="fill: #262626" transform="translate(56.832727 316.334162) scale(0.1 -0.1)">
       <use xlink:href="#DejaVuSans-31"/>
      </g>
     </g>
    </g>
    <g id="xtick_6">
     <g id="line2d_6">
      <path d="M 221.063082 301.735725 
L 221.063082 35.623725 
" clip-path="url(#p83537b7233)" style="fill: none; stroke: #cccccc; stroke-width: 0.8; stroke-linecap: round"/>
     </g>
     <g id="text_6">
      <!-- 64 -->
      <g style="fill: #262626" transform="translate(214.700582 316.334162) scale(0.1 -0.1)">
       <use xlink:href="#DejaVuSans-36"/>
       <use xlink:href="#DejaVuSans-34" transform="translate(63.623047 0)"/>
      </g>
     </g>
    </g>
    <g id="xtick_7">
     <g id="line2d_7">
      <path d="M 77.908322 301.735725 
L 77.908322 35.623725 
" clip-path="url(#p83537b7233)" style="fill: none; stroke: #cccccc; stroke-width: 0.8; stroke-linecap: round"/>
     </g>
     <g id="text_7">
      <!-- 8 -->
      <g style="fill: #262626" transform="translate(74.727072 316.334162) scale(0.1 -0.1)">
       <use xlink:href="#DejaVuSans-38"/>
      </g>
     </g>
    </g>
    <g id="text_8">
     <!-- IO Depth -->
     <g style="fill: #262626" transform="translate(200.111563 330.012287) scale(0.1 -0.1)">
      <defs>
       <path id="DejaVuSans-49" d="M 628 4666 
L 1259 4666 
L 1259 0 
L 628 0 
L 628 4666 
z
" transform="scale(0.015625)"/>
       <path id="DejaVuSans-4f" d="M 2522 4238 
Q 1834 4238 1429 3725 
Q 1025 3213 1025 2328 
Q 1025 1447 1429 934 
Q 1834 422 2522 422 
Q 3209 422 3611 934 
Q 4013 1447 4013 2328 
Q 4013 3213 3611 3725 
Q 3209 4238 2522 4238 
z
M 2522 4750 
Q 3503 4750 4090 4092 
Q 4678 3434 4678 2328 
Q 4678 1225 4090 567 
Q 3503 -91 2522 -91 
Q 1538 -91 948 565 
Q 359 1222 359 2328 
Q 359 3434 948 4092 
Q 1538 4750 2522 4750 
z
" transform="scale(0.015625)"/>
       <path id="DejaVuSans-20" transform="scale(0.015625)"/>
       <path id="DejaVuSans-44" d="M 1259 4147 
L 1259 519 
L 2022 519 
Q 2988 519 3436 956 
Q 3884 1394 3884 2338 
Q 3884 3275 3436 3711 
Q 2988 4147 2022 4147 
L 1259 4147 
z
M 628 4666 
L 1925 4666 
Q 3281 4666 3915 4102 
Q 4550 3538 4550 2338 
Q 4550 1131 3912 565 
Q 3275 0 1925 0 
L 628 0 
L 628 4666 
z
" transform="scale(0.015625)"/>
       <path id="DejaVuSans-65" d="M 3597 1894 
L 3597 1613 
L 953 1613 
Q 991 1019 1311 708 
Q 1631 397 2203 397 
Q 2534 397 2845 478 
Q 3156 559 3463 722 
L 3463 178 
Q 3153 47 2828 -22 
Q 2503 -91 2169 -91 
Q 1331 -91 842 396 
Q 353 884 353 1716 
Q 353 2575 817 3079 
Q 1281 3584 2069 3584 
Q 2775 3584 3186 3129 
Q 3597 2675 3597 1894 
z
M 3022 2063 
Q 3016 2534 2758 2815 
Q 2500 3097 2075 3097 
Q 1594 3097 1305 2825 
Q 1016 2553 972 2059 
L 3022 2063 
z
" transform="scale(0.015625)"/>
       <path id="DejaVuSans-70" d="M 1159 525 
L 1159 -1331 
L 581 -1331 
L 581 3500 
L 1159 3500 
L 1159 2969 
Q 1341 3281 1617 3432 
Q 1894 3584 2278 3584 
Q 2916 3584 3314 3078 
Q 3713 2572 3713 1747 
Q 3713 922 3314 415 
Q 2916 -91 2278 -91 
Q 1894 -91 1617 61 
Q 1341 213 1159 525 
z
M 3116 1747 
Q 3116 2381 2855 2742 
Q 2594 3103 2138 3103 
Q 1681 3103 1420 2742 
Q 1159 2381 1159 1747 
Q 1159 1113 1420 752 
Q 1681 391 2138 391 
Q 2594 391 2855 752 
Q 3116 1113 3116 1747 
z
" transform="scale(0.015625)"/>
       <path id="DejaVuSans-74" d="M 1172 4494 
L 1172 3500 
L 2356 3500 
L 2356 3053 
L 1172 3053 
L 1172 1153 
Q 1172 725 1289 603 
Q 1406 481 1766 481 
L 2356 481 
L 2356 0 
L 1766 0 
Q 1100 0 847 248 
Q 594 497 594 1153 
L 594 3053 
L 172 3053 
L 172 3500 
L 594 3500 
L 594 4494 
L 1172 4494 
z
" transform="scale(0.015625)"/>
       <path id="DejaVuSans-68" d="M 3513 2113 
L 3513 0 
L 2938 0 
L 2938 2094 
Q 2938 2591 2744 2837 
Q 2550 3084 2163 3084 
Q 1697 3084 1428 2787 
Q 1159 2491 1159 1978 
L 1159 0 
L 581 0 
L 581 4863 
L 1159 4863 
L 1159 2956 
Q 1366 3272 1645 3428 
Q 1925 3584 2291 3584 
Q 2894 3584 3203 3211 
Q 3513 2838 3513 2113 
z
" transform="scale(0.015625)"/>
      </defs>
      <use xlink:href="#DejaVuSans-49"/>
      <use xlink:href="#DejaVuSans-4f" transform="translate(29.492188 0)"/>
      <use xlink:href="#DejaVuSans-20" transform="translate(108.203125 0)"/>
      <use xlink:href="#DejaVuSans-44" transform="translate(139.990234 0)"/>
      <use xlink:href="#DejaVuSans-65" transform="translate(216.992188 0)"/>
      <use xlink:href="#DejaVuSans-70" transform="translate(278.515625 0)"/>
      <use xlink:href="#DejaVuSans-74" transform="translate(341.992188 0)"/>
      <use xlink:href="#DejaVuSans-68" transform="translate(381.201172 0)"/>
     </g>
    </g>
   </g>
   <g id="matplotlib.axis_2">
    <g id="ytick_1">
     <g id="line2d_8">
      <path d="M 43.78125 266.922203 
L 400.90125 266.922203 
" clip-path="url(#p83537b7233)" style="fill: none; stroke: #cccccc; stroke-width: 0.8; stroke-linecap: round"/>
     </g>
     <g id="text_9">
      <!-- 0.5 -->
      <g style="fill: #262626" transform="translate(20.878125 270.721421) scale(0.1 -0.1)">
       <defs>
        <path id="DejaVuSans-30" d="M 2034 4250 
Q 1547 4250 1301 3770 
Q 1056 3291 1056 2328 
Q 1056 1369 1301 889 
Q 1547 409 2034 409 
Q 2525 409 2770 889 
Q 3016 1369 3016 2328 
Q 3016 3291 2770 3770 
Q 2525 4250 2034 4250 
z
M 2034 4750 
Q 2819 4750 3233 4129 
Q 3647 3509 3647 2328 
Q 3647 1150 3233 529 
Q 2819 -91 2034 -91 
Q 1250 -91 836 529 
Q 422 1150 422 2328 
Q 422 3509 836 4129 
Q 1250 4750 2034 4750 
z
" transform="scale(0.015625)"/>
        <path id="DejaVuSans-2e" d="M 684 794 
L 1344 794 
L 1344 0 
L 684 0 
L 684 794 
z
" transform="scale(0.015625)"/>
        <path id="DejaVuSans-35" d="M 691 4666 
L 3169 4666 
L 3169 4134 
L 1269 4134 
L 1269 2991 
Q 1406 3038 1543 3061 
Q 1681 3084 1819 3084 
Q 2600 3084 3056 2656 
Q 3513 2228 3513 1497 
Q 3513 744 3044 326 
Q 2575 -91 1722 -91 
Q 1428 -91 1123 -41 
Q 819 9 494 109 
L 494 744 
Q 775 591 1075 516 
Q 1375 441 1709 441 
Q 2250 441 2565 725 
Q 2881 1009 2881 1497 
Q 2881 1984 2565 2268 
Q 2250 2553 1709 2553 
Q 1456 2553 1204 2497 
Q 953 2441 691 2322 
L 691 4666 
z
" transform="scale(0.015625)"/>
       </defs>
       <use xlink:href="#DejaVuSans-30"/>
       <use xlink:href="#DejaVuSans-2e" transform="translate(63.623047 0)"/>
       <use xlink:href="#DejaVuSans-35" transform="translate(95.410156 0)"/>
      </g>
     </g>
    </g>
    <g id="ytick_2">
     <g id="line2d_9">
      <path d="M 43.78125 217.400832 
L 400.90125 217.400832 
" clip-path="url(#p83537b7233)" style="fill: none; stroke: #cccccc; stroke-width: 0.8; stroke-linecap: round"/>
     </g>
     <g id="text_10">
      <!-- 1.0 -->
      <g style="fill: #262626" transform="translate(20.878125 221.20005) scale(0.1 -0.1)">
       <use xlink:href="#DejaVuSans-31"/>
       <use xlink:href="#DejaVuSans-2e" transform="translate(63.623047 0)"/>
       <use xlink:href="#DejaVuSans-30" transform="translate(95.410156 0)"/>
      </g>
     </g>
    </g>
    <g id="ytick_3">
     <g id="line2d_10">
      <path d="M 43.78125 167.879461 
L 400.90125 167.879461 
" clip-path="url(#p83537b7233)" style="fill: none; stroke: #cccccc; stroke-width: 0.8; stroke-linecap: round"/>
     </g>
     <g id="text_11">
      <!-- 1.5 -->
      <g style="fill: #262626" transform="translate(20.878125 171.678679) scale(0.1 -0.1)">
       <use xlink:href="#DejaVuSans-31"/>
       <use xlink:href="#DejaVuSans-2e" transform="translate(63.623047 0)"/>
       <use xlink:href="#DejaVuSans-35" transform="translate(95.410156 0)"/>
      </g>
     </g>
    </g>
    <g id="ytick_4">
     <g id="line2d_11">
      <path d="M 43.78125 118.35809 
L 400.90125 118.35809 
" clip-path="url(#p83537b7233)" style="fill: none; stroke: #cccccc; stroke-width: 0.8; stroke-linecap: round"/>
     </g>
     <g id="text_12">
      <!-- 2.0 -->
      <g style="fill: #262626" transform="translate(20.878125 122.157309) scale(0.1 -0.1)">
       <use xlink:href="#DejaVuSans-32"/>
       <use xlink:href="#DejaVuSans-2e" transform="translate(63.623047 0)"/>
       <use xlink:href="#DejaVuSans-30" transform="translate(95.410156 0)"/>
      </g>
     </g>
    </g>
    <g id="ytick_5">
     <g id="line2d_12">
      <path d="M 43.78125 68.836719 
L 400.90125 68.836719 
" clip-path="url(#p83537b7233)" style="fill: none; stroke: #cccccc; stroke-width: 0.8; stroke-linecap: round"/>
     </g>
     <g id="text_13">
      <!-- 2.5 -->
      <g style="fill: #262626" transform="translate(20.878125 72.635938) scale(0.1 -0.1)">
       <use xlink:href="#DejaVuSans-32"/>
       <use xlink:href="#DejaVuSans-2e" transform="translate(63.623047 0)"/>
       <use xlink:href="#DejaVuSans-35" transform="translate(95.410156 0)"/>
      </g>
     </g>
    </g>
    <g id="text_14">
     <!-- Mean Latency (ns) -->
     <g style="fill: #262626" transform="translate(14.798438 214.92035) rotate(-90) scale(0.1 -0.1)">
      <defs>
       <path id="DejaVuSans-4d" d="M 628 4666 
L 1569 4666 
L 2759 1491 
L 3956 4666 
L 4897 4666 
L 4897 0 
L 4281 0 
L 4281 4097 
L 3078 897 
L 2444 897 
L 1241 4097 
L 1241 0 
L 628 0 
L 628 4666 
z
" transform="scale(0.015625)"/>
       <path id="DejaVuSans-61" d="M 2194 1759 
Q 1497 1759 1228 1600 
Q 959 1441 959 1056 
Q 959 750 1161 570 
Q 1363 391 1709 391 
Q 2188 391 2477 730 
Q 2766 1069 2766 1631 
L 2766 1759 
L 2194 1759 
z
M 3341 1997 
L 3341 0 
L 2766 0 
L 2766 531 
Q 2569 213 2275 61 
Q 1981 -91 1556 -91 
Q 1019 -91 701 211 
Q 384 513 384 1019 
Q 384 1609 779 1909 
Q 1175 2209 1959 2209 
L 2766 2209 
L 2766 2266 
Q 2766 2663 2505 2880 
Q 2244 3097 1772 3097 
Q 1472 3097 1187 3025 
Q 903 2953 641 2809 
L 641 3341 
Q 956 3463 1253 3523 
Q 1550 3584 1831 3584 
Q 2591 3584 2966 3190 
Q 3341 2797 3341 1997 
z
" transform="scale(0.015625)"/>
       <path id="DejaVuSans-6e" d="M 3513 2113 
L 3513 0 
L 2938 0 
L 2938 2094 
Q 2938 2591 2744 2837 
Q 2550 3084 2163 3084 
Q 1697 3084 1428 2787 
Q 1159 2491 1159 1978 
L 1159 0 
L 581 0 
L 581 3500 
L 1159 3500 
L 1159 2956 
Q 1366 3272 1645 3428 
Q 1925 3584 2291 3584 
Q 2894 3584 3203 3211 
Q 3513 2838 3513 2113 
z
" transform="scale(0.015625)"/>
       <path id="DejaVuSans-4c" d="M 628 4666 
L 1259 4666 
L 1259 531 
L 3531 531 
L 3531 0 
L 628 0 
L 628 4666 
z
" transform="scale(0.015625)"/>
       <path id="DejaVuSans-63" d="M 3122 3366 
L 3122 2828 
Q 2878 2963 2633 3030 
Q 2388 3097 2138 3097 
Q 1578 3097 1268 2742 
Q 959 2388 959 1747 
Q 959 1106 1268 751 
Q 1578 397 2138 397 
Q 2388 397 2633 464 
Q 2878 531 3122 666 
L 3122 134 
Q 2881 22 2623 -34 
Q 2366 -91 2075 -91 
Q 1284 -91 818 406 
Q 353 903 353 1747 
Q 353 2603 823 3093 
Q 1294 3584 2113 3584 
Q 2378 3584 2631 3529 
Q 2884 3475 3122 3366 
z
" transform="scale(0.015625)"/>
       <path id="DejaVuSans-79" d="M 2059 -325 
Q 1816 -950 1584 -1140 
Q 1353 -1331 966 -1331 
L 506 -1331 
L 506 -850 
L 844 -850 
Q 1081 -850 1212 -737 
Q 1344 -625 1503 -206 
L 1606 56 
L 191 3500 
L 800 3500 
L 1894 763 
L 2988 3500 
L 3597 3500 
L 2059 -325 
z
" transform="scale(0.015625)"/>
       <path id="DejaVuSans-28" d="M 1984 4856 
Q 1566 4138 1362 3434 
Q 1159 2731 1159 2009 
Q 1159 1288 1364 580 
Q 1569 -128 1984 -844 
L 1484 -844 
Q 1016 -109 783 600 
Q 550 1309 550 2009 
Q 550 2706 781 3412 
Q 1013 4119 1484 4856 
L 1984 4856 
z
" transform="scale(0.015625)"/>
       <path id="DejaVuSans-73" d="M 2834 3397 
L 2834 2853 
Q 2591 2978 2328 3040 
Q 2066 3103 1784 3103 
Q 1356 3103 1142 2972 
Q 928 2841 928 2578 
Q 928 2378 1081 2264 
Q 1234 2150 1697 2047 
L 1894 2003 
Q 2506 1872 2764 1633 
Q 3022 1394 3022 966 
Q 3022 478 2636 193 
Q 2250 -91 1575 -91 
Q 1294 -91 989 -36 
Q 684 19 347 128 
L 347 722 
Q 666 556 975 473 
Q 1284 391 1588 391 
Q 1994 391 2212 530 
Q 2431 669 2431 922 
Q 2431 1156 2273 1281 
Q 2116 1406 1581 1522 
L 1381 1569 
Q 847 1681 609 1914 
Q 372 2147 372 2553 
Q 372 3047 722 3315 
Q 1072 3584 1716 3584 
Q 2034 3584 2315 3537 
Q 2597 3491 2834 3397 
z
" transform="scale(0.015625)"/>
       <path id="DejaVuSans-29" d="M 513 4856 
L 1013 4856 
Q 1481 4119 1714 3412 
Q 1947 2706 1947 2009 
Q 1947 1309 1714 600 
Q 1481 -109 1013 -844 
L 513 -844 
Q 928 -128 1133 580 
Q 1338 1288 1338 2009 
Q 1338 2731 1133 3434 
Q 928 4138 513 4856 
z
" transform="scale(0.015625)"/>
      </defs>
      <use xlink:href="#DejaVuSans-4d"/>
      <use xlink:href="#DejaVuSans-65" transform="translate(86.279297 0)"/>
      <use xlink:href="#DejaVuSans-61" transform="translate(147.802734 0)"/>
      <use xlink:href="#DejaVuSans-6e" transform="translate(209.082031 0)"/>
      <use xlink:href="#DejaVuSans-20" transform="translate(272.460938 0)"/>
      <use xlink:href="#DejaVuSans-4c" transform="translate(304.248047 0)"/>
      <use xlink:href="#DejaVuSans-61" transform="translate(359.960938 0)"/>
      <use xlink:href="#DejaVuSans-74" transform="translate(421.240234 0)"/>
      <use xlink:href="#DejaVuSans-65" transform="translate(460.449219 0)"/>
      <use xlink:href="#DejaVuSans-6e" transform="translate(521.972656 0)"/>
      <use xlink:href="#DejaVuSans-63" transform="translate(585.351562 0)"/>
      <use xlink:href="#DejaVuSans-79" transform="translate(640.332031 0)"/>
      <use xlink:href="#DejaVuSans-20" transform="translate(699.511719 0)"/>
      <use xlink:href="#DejaVuSans-28" transform="translate(731.298828 0)"/>
      <use xlink:href="#DejaVuSans-6e" transform="translate(770.3125 0)"/>
      <use xlink:href="#DejaVuSans-73" transform="translate(833.691406 0)"/>
      <use xlink:href="#DejaVuSans-29" transform="translate(885.791016 0)"/>
     </g>
    </g>
    <g id="text_15">
     <!-- 1e6 -->
     <g style="fill: #262626" transform="translate(43.78125 32.623725) scale(0.1 -0.1)">
      <use xlink:href="#DejaVuSans-31"/>
      <use xlink:href="#DejaVuSans-65" transform="translate(63.623047 0)"/>
      <use xlink:href="#DejaVuSans-36" transform="translate(125.146484 0)"/>
     </g>
    </g>
   </g>
   <g id="FillBetweenPolyCollection_1"/>
   <g id="FillBetweenPolyCollection_2"/>
   <g id="FillBetweenPolyCollection_3"/>
   <g id="FillBetweenPolyCollection_4"/>
   <g id="line2d_13">
    <path d="M 60.013977 283.01982 
L 67.682982 289.639725 
L 77.908322 281.319831 
L 98.359002 281.660732 
L 139.260362 282.637997 
L 221.063082 286.393177 
L 384.668523 280.534524 
" clip-path="url(#p83537b7233)" style="fill: none; stroke: #3b0f70; stroke-width: 1.5; stroke-linecap: round"/>
   </g>
   <g id="line2d_14">
    <path d="M 60.013977 255.744991 
L 67.682982 257.931857 
L 77.908322 255.922364 
L 98.359002 255.231666 
L 139.260362 256.771152 
L 221.063082 254.776882 
L 384.668523 257.751827 
" clip-path="url(#p83537b7233)" style="fill: none; stroke: #8c2981; stroke-width: 1.5; stroke-linecap: round"/>
   </g>
   <g id="line2d_15">
    <path d="M 60.013977 193.266117 
L 67.682982 201.249104 
L 77.908322 188.673263 
L 98.359002 184.950605 
L 139.260362 192.598321 
L 221.063082 185.154776 
L 384.668523 186.20043 
" clip-path="url(#p83537b7233)" style="fill: none; stroke: #de4968; stroke-width: 1.5; stroke-linecap: round"/>
   </g>
   <g id="line2d_16">
    <path d="M 60.013977 51.974927 
L 67.682982 71.769411 
L 77.908322 47.719725 
L 98.359002 48.731409 
L 139.260362 70.136861 
L 221.063082 64.584373 
L 384.668523 72.261116 
" clip-path="url(#p83537b7233)" style="fill: none; stroke: #fe9f6d; stroke-width: 1.5; stroke-linecap: round"/>
   </g>
   <g id="line2d_17"/>
   <g id="line2d_18"/>
   <g id="line2d_19"/>
   <g id="line2d_20"/>
   <g id="text_16">
    <path d="M 120.752343 284.126019 
L 122.362821 284.164499 
L 122.495689 278.603586 
L 120.734667 278.913172 
L 120.756127 278.014991 
L 122.507777 277.705181 
L 123.493433 277.728731 
L 123.339105 284.187825 
L 124.949583 284.226305 
L 124.929764 285.055756 
L 120.732525 284.95547 
L 120.752343 284.126019 
z
M 129.249805 281.120323 
Q 128.585932 281.104461 128.18612 281.549725 
Q 127.787907 281.993465 127.769022 282.783865 
Q 127.750248 283.569578 128.126702 284.036516 
Q 128.504756 284.501929 129.168629 284.517791 
Q 129.832502 284.533653 130.230789 284.086789 
Q 130.629114 283.638363 130.647887 282.85265 
Q 130.666773 282.062251 130.290207 281.599999 
Q 129.913678 281.136185 129.249805 281.120323 
z
M 131.28092 278.075783 
L 131.25946 278.973964 
Q 130.891871 278.790131 130.516056 278.688938 
Q 130.140278 278.586183 129.768509 278.5773 
Q 128.792225 278.553973 128.260997 279.200844 
Q 127.731331 279.847752 127.626079 281.17843 
Q 127.923648 280.760418 128.363311 280.544296 
Q 128.804536 280.328211 129.326262 280.340677 
Q 130.424386 280.366915 131.045768 281.049139 
Q 131.667187 281.729802 131.639792 282.87635 
Q 131.612957 283.999467 130.932849 284.663098 
Q 130.252778 285.325168 129.149967 285.298818 
Q 127.884703 285.268587 127.239284 284.284139 
Q 126.593902 283.298129 126.637868 281.45803 
Q 126.679147 279.730398 127.523784 278.72216 
Q 128.36842 277.713923 129.749276 277.746916 
Q 130.121045 277.755799 130.497308 277.838247 
Q 130.873571 277.920696 131.28092 278.075783 
z
" clip-path="url(#p83537b7233)" style="fill: #3b0f70; stroke: #ffffff; stroke-width: 5"/>
    <path d="M 120.752343 284.126019 
L 122.362821 284.164499 
L 122.495689 278.603586 
L 120.734667 278.913172 
L 120.756127 278.014991 
L 122.507777 277.705181 
L 123.493433 277.728731 
L 123.339105 284.187825 
L 124.949583 284.226305 
L 124.929764 285.055756 
L 120.732525 284.95547 
L 120.752343 284.126019 
z
M 129.249805 281.120323 
Q 128.585932 281.104461 128.18612 281.549725 
Q 127.787907 281.993465 127.769022 282.783865 
Q 127.750248 283.569578 128.126702 284.036516 
Q 128.504756 284.501929 129.168629 284.517791 
Q 129.832502 284.533653 130.230789 284.086789 
Q 130.629114 283.638363 130.647887 282.85265 
Q 130.666773 282.062251 130.290207 281.599999 
Q 129.913678 281.136185 129.249805 281.120323 
z
M 131.28092 278.075783 
L 131.25946 278.973964 
Q 130.891871 278.790131 130.516056 278.688938 
Q 130.140278 278.586183 129.768509 278.5773 
Q 128.792225 278.553973 128.260997 279.200844 
Q 127.731331 279.847752 127.626079 281.17843 
Q 127.923648 280.760418 128.363311 280.544296 
Q 128.804536 280.328211 129.326262 280.340677 
Q 130.424386 280.366915 131.045768 281.049139 
Q 131.667187 281.729802 131.639792 282.87635 
Q 131.612957 283.999467 130.932849 284.663098 
Q 130.252778 285.325168 129.149967 285.298818 
Q 127.884703 285.268587 127.239284 284.284139 
Q 126.593902 283.298129 126.637868 281.45803 
Q 126.679147 279.730398 127.523784 278.72216 
Q 128.36842 277.713923 129.749276 277.746916 
Q 130.121045 277.755799 130.497308 277.838247 
Q 130.873571 277.920696 131.28092 278.075783 
z
" clip-path="url(#p83537b7233)" style="fill: #3b0f70"/>
   </g>
   <g id="text_17">
    <path d="M 187.867886 254.413925 
Q 188.579183 254.548192 188.98763 255.018065 
Q 189.397602 255.486337 189.414739 256.189253 
Q 189.441015 257.267058 188.71348 257.877158 
Q 187.985908 258.485696 186.619126 258.519017 
Q 186.16145 258.530174 185.673448 258.451419 
Q 185.185446 258.372665 184.663995 258.204073 
L 184.640804 257.252793 
Q 185.055883 257.481808 185.546209 257.591765 
Q 186.038096 257.701685 186.570751 257.688699 
Q 187.497038 257.666117 187.97392 257.288757 
Q 188.450802 256.911398 188.43378 256.213168 
Q 188.418053 255.568047 187.95779 255.21666 
Q 187.497488 254.863711 186.69304 254.883323 
L 185.843292 254.904039 
L 185.823528 254.093342 
L 186.712327 254.071674 
Q 187.438674 254.053967 187.817413 253.754022 
Q 188.196153 253.454077 188.182825 252.907365 
Q 188.169154 252.346594 187.763523 252.056394 
Q 187.359416 251.764593 186.617449 251.782682 
Q 186.21132 251.792583 185.749566 251.892929 
Q 185.287774 251.991713 184.736183 252.18959 
L 184.714781 251.311726 
Q 185.273306 251.141813 185.761881 251.051754 
Q 186.250456 250.961694 186.684702 250.951108 
Q 187.807806 250.923728 188.47319 251.418596 
Q 189.140097 251.911864 189.16127 252.780355 
Q 189.176045 253.386425 188.839441 253.811943 
Q 188.502837 254.237461 187.867886 254.413925 
z
M 192.165465 257.411639 
L 195.60663 257.327746 
L 195.626851 258.157187 
L 191.0001 258.269983 
L 190.979879 257.440542 
Q 191.526484 256.845794 192.471108 255.844349 
Q 193.417255 254.841304 193.658688 254.550959 
Q 194.119038 254.008328 194.297495 253.635118 
Q 194.477514 253.26187 194.468832 252.905726 
Q 194.454666 252.324648 194.038063 251.969071 
Q 193.621423 251.611932 192.96693 251.627887 
Q 192.503005 251.639198 191.991456 251.812654 
Q 191.481468 251.986072 190.903702 252.32838 
L 190.879406 251.331801 
Q 191.468716 251.078301 191.982779 250.943857 
Q 192.498405 250.809376 192.927965 250.798903 
Q 194.060441 250.771295 194.747501 251.321901 
Q 195.434524 251.870945 195.457601 252.817539 
Q 195.468569 253.267405 195.309694 253.674523 
Q 195.152342 254.080041 194.720491 254.637607 
Q 194.602117 254.782722 193.964113 255.47504 
Q 193.327671 256.167319 192.165465 257.411639 
z
" clip-path="url(#p83537b7233)" style="fill: #8c2981; stroke: #ffffff; stroke-width: 5"/>
    <path d="M 187.867886 254.413925 
Q 188.579183 254.548192 188.98763 255.018065 
Q 189.397602 255.486337 189.414739 256.189253 
Q 189.441015 257.267058 188.71348 257.877158 
Q 187.985908 258.485696 186.619126 258.519017 
Q 186.16145 258.530174 185.673448 258.451419 
Q 185.185446 258.372665 184.663995 258.204073 
L 184.640804 257.252793 
Q 185.055883 257.481808 185.546209 257.591765 
Q 186.038096 257.701685 186.570751 257.688699 
Q 187.497038 257.666117 187.97392 257.288757 
Q 188.450802 256.911398 188.43378 256.213168 
Q 188.418053 255.568047 187.95779 255.21666 
Q 187.497488 254.863711 186.69304 254.883323 
L 185.843292 254.904039 
L 185.823528 254.093342 
L 186.712327 254.071674 
Q 187.438674 254.053967 187.817413 253.754022 
Q 188.196153 253.454077 188.182825 252.907365 
Q 188.169154 252.346594 187.763523 252.056394 
Q 187.359416 251.764593 186.617449 251.782682 
Q 186.21132 251.792583 185.749566 251.892929 
Q 185.287774 251.991713 184.736183 252.18959 
L 184.714781 251.311726 
Q 185.273306 251.141813 185.761881 251.051754 
Q 186.250456 250.961694 186.684702 250.951108 
Q 187.807806 250.923728 188.47319 251.418596 
Q 189.140097 251.911864 189.16127 252.780355 
Q 189.176045 253.386425 188.839441 253.811943 
Q 188.502837 254.237461 187.867886 254.413925 
z
M 192.165465 257.411639 
L 195.60663 257.327746 
L 195.626851 258.157187 
L 191.0001 258.269983 
L 190.979879 257.440542 
Q 191.526484 256.845794 192.471108 255.844349 
Q 193.417255 254.841304 193.658688 254.550959 
Q 194.119038 254.008328 194.297495 253.635118 
Q 194.477514 253.26187 194.468832 252.905726 
Q 194.454666 252.324648 194.038063 251.969071 
Q 193.621423 251.611932 192.96693 251.627887 
Q 192.503005 251.639198 191.991456 251.812654 
Q 191.481468 251.986072 190.903702 252.32838 
L 190.879406 251.331801 
Q 191.468716 251.078301 191.982779 250.943857 
Q 192.498405 250.809376 192.927965 250.798903 
Q 194.060441 250.771295 194.747501 251.321901 
Q 195.434524 251.870945 195.457601 252.817539 
Q 195.468569 253.267405 195.309694 253.674523 
Q 195.152342 254.080041 194.720491 254.637607 
Q 194.602117 254.782722 193.964113 255.47504 
Q 193.327671 256.167319 192.165465 257.411639 
z
" clip-path="url(#p83537b7233)" style="fill: #8c2981"/>
   </g>
   <g id="text_18">
    <path d="M 251.429344 184.070705 
Q 250.765295 184.066461 250.373334 184.518653 
Q 249.982946 184.969292 249.977893 185.759901 
Q 249.97287 186.545822 250.357436 187.006102 
Q 250.743575 187.464829 251.407624 187.469073 
Q 252.071673 187.473318 252.462081 187.019553 
Q 252.852499 186.564227 252.857522 185.778305 
Q 252.862575 184.987697 252.477979 184.532104 
Q 252.093393 184.074949 251.429344 184.070705 
z
M 253.406879 180.991094 
L 253.401137 181.889513 
Q 253.030388 181.71214 252.65286 181.617537 
Q 252.275342 181.521373 251.903474 181.518996 
Q 250.926932 181.512755 250.407103 182.168821 
Q 249.888837 182.824897 249.806883 184.157213 
Q 250.097093 183.734059 250.532907 183.510277 
Q 250.970284 183.286505 251.492148 183.289841 
Q 252.590563 183.296861 253.223786 183.968109 
Q 253.857019 184.637795 253.849689 185.784647 
Q 253.842509 186.908061 253.174116 187.583491 
Q 252.505733 188.257358 251.402631 188.250307 
Q 250.137031 188.242219 249.474487 187.269214 
Q 248.811952 186.294648 248.823715 184.45406 
Q 248.83476 182.72597 249.661627 181.703109 
Q 250.488494 180.680248 251.869715 180.689076 
Q 252.241583 180.691452 252.619231 180.767305 
Q 252.996879 180.843158 253.406879 180.991094 
z
M 258.284933 181.720723 
L 255.769483 185.596913 
L 258.260057 185.612831 
L 258.284933 181.720723 
z
M 258.031055 180.859707 
L 259.271655 180.867637 
L 259.241287 185.619102 
L 260.281891 185.625753 
L 260.276648 186.446049 
L 259.236044 186.439398 
L 259.225059 188.158113 
L 258.243829 188.151841 
L 258.254814 186.433126 
L 254.964256 186.412095 
L 254.970338 185.460552 
L 258.031055 180.859707 
z
" clip-path="url(#p83537b7233)" style="fill: #de4968; stroke: #ffffff; stroke-width: 5"/>
    <path d="M 251.429344 184.070705 
Q 250.765295 184.066461 250.373334 184.518653 
Q 249.982946 184.969292 249.977893 185.759901 
Q 249.97287 186.545822 250.357436 187.006102 
Q 250.743575 187.464829 251.407624 187.469073 
Q 252.071673 187.473318 252.462081 187.019553 
Q 252.852499 186.564227 252.857522 185.778305 
Q 252.862575 184.987697 252.477979 184.532104 
Q 252.093393 184.074949 251.429344 184.070705 
z
M 253.406879 180.991094 
L 253.401137 181.889513 
Q 253.030388 181.71214 252.65286 181.617537 
Q 252.275342 181.521373 251.903474 181.518996 
Q 250.926932 181.512755 250.407103 182.168821 
Q 249.888837 182.824897 249.806883 184.157213 
Q 250.097093 183.734059 250.532907 183.510277 
Q 250.970284 183.286505 251.492148 183.289841 
Q 252.590563 183.296861 253.223786 183.968109 
Q 253.857019 184.637795 253.849689 185.784647 
Q 253.842509 186.908061 253.174116 187.583491 
Q 252.505733 188.257358 251.402631 188.250307 
Q 250.137031 188.242219 249.474487 187.269214 
Q 248.811952 186.294648 248.823715 184.45406 
Q 248.83476 182.72597 249.661627 181.703109 
Q 250.488494 180.680248 251.869715 180.689076 
Q 252.241583 180.691452 252.619231 180.767305 
Q 252.996879 180.843158 253.406879 180.991094 
z
M 258.284933 181.720723 
L 255.769483 185.596913 
L 258.260057 185.612831 
L 258.284933 181.720723 
z
M 258.031055 180.859707 
L 259.271655 180.867637 
L 259.241287 185.619102 
L 260.281891 185.625753 
L 260.276648 186.446049 
L 259.236044 186.439398 
L 259.225059 188.158113 
L 258.243829 188.151841 
L 258.254814 186.433126 
L 254.964256 186.412095 
L 254.970338 185.460552 
L 258.031055 180.859707 
z
" clip-path="url(#p83537b7233)" style="fill: #de4968"/>
   </g>
   <g id="text_19">
    <path d="M 310.379205 70.707101 
L 311.988372 70.782607 
L 312.24909 65.226221 
L 310.481414 65.495226 
L 310.523524 64.597776 
L 312.281836 64.328331 
L 313.26669 64.374543 
L 312.963861 70.828379 
L 314.573028 70.903885 
L 314.53414 71.732661 
L 310.340317 71.535877 
L 310.379205 70.707101 
z
M 317.411897 71.037091 
L 320.850301 71.198429 
L 320.811413 72.027205 
L 316.188374 71.810281 
L 316.227262 70.981506 
Q 316.814827 70.427186 317.828358 69.495542 
Q 318.843523 68.562411 319.105016 68.289992 
Q 319.602833 67.781517 319.807411 67.42196 
Q 320.013549 67.062477 320.030247 66.706619 
Q 320.05749 66.126007 319.667263 65.74167 
Q 319.277109 65.355771 318.623141 65.325086 
Q 318.159589 65.303335 317.636987 65.439928 
Q 317.115946 65.576594 316.515273 65.876895 
L 316.561998 64.881115 
Q 317.167861 64.670218 317.690192 64.572718 
Q 318.214085 64.475291 318.6433 64.495431 
Q 319.774867 64.548527 320.42098 65.146656 
Q 321.067166 65.743223 321.022786 66.689058 
Q 321.001694 67.138563 320.814234 67.533336 
Q 320.628409 67.926621 320.157954 68.452023 
Q 320.029548 68.588341 319.343869 69.233475 
Q 318.659751 69.878681 317.411897 71.037091 
z
M 325.148602 68.764406 
Q 324.446249 68.73145 324.025918 69.088704 
Q 323.607147 69.446031 323.576315 70.103121 
Q 323.545409 70.761771 323.928881 71.156741 
Q 324.313913 71.551785 325.016265 71.584741 
Q 325.718617 71.617697 326.140583 71.258955 
Q 326.564183 70.898726 326.594868 70.244758 
Q 326.625701 69.587669 326.240668 69.192625 
Q 325.857197 68.797655 325.148602 68.764406 
z
M 324.183375 68.299905 
Q 323.557021 68.114093 323.223082 67.663571 
Q 322.890778 67.211561 322.920072 66.587248 
Q 322.961011 65.714771 323.606004 65.236664 
Q 324.252558 64.75863 325.33418 64.809383 
Q 326.422046 64.860428 327.017875 65.396757 
Q 327.613704 65.933086 327.572766 66.805563 
Q 327.543472 67.429876 327.168741 67.84871 
Q 326.795645 68.266057 326.159326 68.392621 
Q 326.86328 68.591459 327.237016 69.093904 
Q 327.612385 69.594861 327.579722 70.29097 
Q 327.529995 71.350741 326.857247 71.886986 
Q 326.184572 72.42167 324.979647 72.365132 
Q 323.776284 72.308667 323.15507 71.713271 
Q 322.535491 71.116388 322.585218 70.056616 
Q 322.617881 69.360507 323.040071 68.896973 
Q 323.463895 68.431952 324.183375 68.299905 
z
M 323.89585 66.726887 
Q 323.869339 67.29189 324.207209 67.62528 
Q 324.54664 67.958744 325.185 67.988697 
Q 325.820238 68.018504 326.192524 67.718436 
Q 326.566371 67.418441 326.592882 66.853438 
Q 326.619467 66.286874 326.275354 65.953191 
Q 325.932801 65.619581 325.297563 65.589774 
Q 324.659202 65.559821 324.290038 65.860035 
Q 323.922434 66.160323 323.89585 66.726887 
z
" clip-path="url(#p83537b7233)" style="fill: #fe9f6d; stroke: #ffffff; stroke-width: 5"/>
    <path d="M 310.379205 70.707101 
L 311.988372 70.782607 
L 312.24909 65.226221 
L 310.481414 65.495226 
L 310.523524 64.597776 
L 312.281836 64.328331 
L 313.26669 64.374543 
L 312.963861 70.828379 
L 314.573028 70.903885 
L 314.53414 71.732661 
L 310.340317 71.535877 
L 310.379205 70.707101 
z
M 317.411897 71.037091 
L 320.850301 71.198429 
L 320.811413 72.027205 
L 316.188374 71.810281 
L 316.227262 70.981506 
Q 316.814827 70.427186 317.828358 69.495542 
Q 318.843523 68.562411 319.105016 68.289992 
Q 319.602833 67.781517 319.807411 67.42196 
Q 320.013549 67.062477 320.030247 66.706619 
Q 320.05749 66.126007 319.667263 65.74167 
Q 319.277109 65.355771 318.623141 65.325086 
Q 318.159589 65.303335 317.636987 65.439928 
Q 317.115946 65.576594 316.515273 65.876895 
L 316.561998 64.881115 
Q 317.167861 64.670218 317.690192 64.572718 
Q 318.214085 64.475291 318.6433 64.495431 
Q 319.774867 64.548527 320.42098 65.146656 
Q 321.067166 65.743223 321.022786 66.689058 
Q 321.001694 67.138563 320.814234 67.533336 
Q 320.628409 67.926621 320.157954 68.452023 
Q 320.029548 68.588341 319.343869 69.233475 
Q 318.659751 69.878681 317.411897 71.037091 
z
M 325.148602 68.764406 
Q 324.446249 68.73145 324.025918 69.088704 
Q 323.607147 69.446031 323.576315 70.103121 
Q 323.545409 70.761771 323.928881 71.156741 
Q 324.313913 71.551785 325.016265 71.584741 
Q 325.718617 71.617697 326.140583 71.258955 
Q 326.564183 70.898726 326.594868 70.244758 
Q 326.625701 69.587669 326.240668 69.192625 
Q 325.857197 68.797655 325.148602 68.764406 
z
M 324.183375 68.299905 
Q 323.557021 68.114093 323.223082 67.663571 
Q 322.890778 67.211561 322.920072 66.587248 
Q 322.961011 65.714771 323.606004 65.236664 
Q 324.252558 64.75863 325.33418 64.809383 
Q 326.422046 64.860428 327.017875 65.396757 
Q 327.613704 65.933086 327.572766 66.805563 
Q 327.543472 67.429876 327.168741 67.84871 
Q 326.795645 68.266057 326.159326 68.392621 
Q 326.86328 68.591459 327.237016 69.093904 
Q 327.612385 69.594861 327.579722 70.29097 
Q 327.529995 71.350741 326.857247 71.886986 
Q 326.184572 72.42167 324.979647 72.365132 
Q 323.776284 72.308667 323.15507 71.713271 
Q 322.535491 71.116388 322.585218 70.056616 
Q 322.617881 69.360507 323.040071 68.896973 
Q 323.463895 68.431952 324.183375 68.299905 
z
M 323.89585 66.726887 
Q 323.869339 67.29189 324.207209 67.62528 
Q 324.54664 67.958744 325.185 67.988697 
Q 325.820238 68.018504 326.192524 67.718436 
Q 326.566371 67.418441 326.592882 66.853438 
Q 326.619467 66.286874 326.275354 65.953191 
Q 325.932801 65.619581 325.297563 65.589774 
Q 324.659202 65.559821 324.290038 65.860035 
Q 323.922434 66.160323 323.89585 66.726887 
z
" clip-path="url(#p83537b7233)" style="fill: #fe9f6d"/>
   </g>
   <g id="patch_3">
    <path d="M 43.78125 301.735725 
L 43.78125 35.623725 
" style="fill: none; stroke: #cccccc; stroke-width: 0.8; stroke-linejoin: miter; stroke-linecap: square"/>
   </g>
   <g id="patch_4">
    <path d="M 400.90125 301.735725 
L 400.90125 35.623725 
" style="fill: none; stroke: #cccccc; stroke-width: 0.8; stroke-linejoin: miter; stroke-linecap: square"/>
   </g>
   <g id="patch_5">
    <path d="M 43.78125 301.735725 
L 400.90125 301.735725 
" style="fill: none; stroke: #cccccc; stroke-width: 0.8; stroke-linejoin: miter; stroke-linecap: square"/>
   </g>
   <g id="patch_6">
    <path d="M 43.78125 35.623725 
L 400.90125 35.623725 
" style="fill: none; stroke: #cccccc; stroke-width: 0.8; stroke-linejoin: miter; stroke-linecap: square"/>
   </g>
   <g id="text_20">
    <!-- Block Size = 16K, Read-Write Type = Sequential Balanced 1:1 -->
    <g style="fill: #262626; opacity: 0.75" transform="translate(67.986563 30.882918) scale(0.1 -0.1)">
     <defs>
      <path id="DejaVuSans-42" d="M 1259 2228 
L 1259 519 
L 2272 519 
Q 2781 519 3026 730 
Q 3272 941 3272 1375 
Q 3272 1813 3026 2020 
Q 2781 2228 2272 2228 
L 1259 2228 
z
M 1259 4147 
L 1259 2741 
L 2194 2741 
Q 2656 2741 2882 2914 
Q 3109 3088 3109 3444 
Q 3109 3797 2882 3972 
Q 2656 4147 2194 4147 
L 1259 4147 
z
M 628 4666 
L 2241 4666 
Q 2963 4666 3353 4366 
Q 3744 4066 3744 3513 
Q 3744 3084 3544 2831 
Q 3344 2578 2956 2516 
Q 3422 2416 3680 2098 
Q 3938 1781 3938 1306 
Q 3938 681 3513 340 
Q 3088 0 2303 0 
L 628 0 
L 628 4666 
z
" transform="scale(0.015625)"/>
      <path id="DejaVuSans-6c" d="M 603 4863 
L 1178 4863 
L 1178 0 
L 603 0 
L 603 4863 
z
" transform="scale(0.015625)"/>
      <path id="DejaVuSans-6f" d="M 1959 3097 
Q 1497 3097 1228 2736 
Q 959 2375 959 1747 
Q 959 1119 1226 758 
Q 1494 397 1959 397 
Q 2419 397 2687 759 
Q 2956 1122 2956 1747 
Q 2956 2369 2687 2733 
Q 2419 3097 1959 3097 
z
M 1959 3584 
Q 2709 3584 3137 3096 
Q 3566 2609 3566 1747 
Q 3566 888 3137 398 
Q 2709 -91 1959 -91 
Q 1206 -91 779 398 
Q 353 888 353 1747 
Q 353 2609 779 3096 
Q 1206 3584 1959 3584 
z
" transform="scale(0.015625)"/>
      <path id="DejaVuSans-6b" d="M 581 4863 
L 1159 4863 
L 1159 1991 
L 2875 3500 
L 3609 3500 
L 1753 1863 
L 3688 0 
L 2938 0 
L 1159 1709 
L 1159 0 
L 581 0 
L 581 4863 
z
" transform="scale(0.015625)"/>
      <path id="DejaVuSans-53" d="M 3425 4513 
L 3425 3897 
Q 3066 4069 2747 4153 
Q 2428 4238 2131 4238 
Q 1616 4238 1336 4038 
Q 1056 3838 1056 3469 
Q 1056 3159 1242 3001 
Q 1428 2844 1947 2747 
L 2328 2669 
Q 3034 2534 3370 2195 
Q 3706 1856 3706 1288 
Q 3706 609 3251 259 
Q 2797 -91 1919 -91 
Q 1588 -91 1214 -16 
Q 841 59 441 206 
L 441 856 
Q 825 641 1194 531 
Q 1563 422 1919 422 
Q 2459 422 2753 634 
Q 3047 847 3047 1241 
Q 3047 1584 2836 1778 
Q 2625 1972 2144 2069 
L 1759 2144 
Q 1053 2284 737 2584 
Q 422 2884 422 3419 
Q 422 4038 858 4394 
Q 1294 4750 2059 4750 
Q 2388 4750 2728 4690 
Q 3069 4631 3425 4513 
z
" transform="scale(0.015625)"/>
      <path id="DejaVuSans-69" d="M 603 3500 
L 1178 3500 
L 1178 0 
L 603 0 
L 603 3500 
z
M 603 4863 
L 1178 4863 
L 1178 4134 
L 603 4134 
L 603 4863 
z
" transform="scale(0.015625)"/>
      <path id="DejaVuSans-7a" d="M 353 3500 
L 3084 3500 
L 3084 2975 
L 922 459 
L 3084 459 
L 3084 0 
L 275 0 
L 275 525 
L 2438 3041 
L 353 3041 
L 353 3500 
z
" transform="scale(0.015625)"/>
      <path id="DejaVuSans-3d" d="M 678 2906 
L 4684 2906 
L 4684 2381 
L 678 2381 
L 678 2906 
z
M 678 1631 
L 4684 1631 
L 4684 1100 
L 678 1100 
L 678 1631 
z
" transform="scale(0.015625)"/>
      <path id="DejaVuSans-4b" d="M 628 4666 
L 1259 4666 
L 1259 2694 
L 3353 4666 
L 4166 4666 
L 1850 2491 
L 4331 0 
L 3500 0 
L 1259 2247 
L 1259 0 
L 628 0 
L 628 4666 
z
" transform="scale(0.015625)"/>
      <path id="DejaVuSans-2c" d="M 750 794 
L 1409 794 
L 1409 256 
L 897 -744 
L 494 -744 
L 750 256 
L 750 794 
z
" transform="scale(0.015625)"/>
      <path id="DejaVuSans-52" d="M 2841 2188 
Q 3044 2119 3236 1894 
Q 3428 1669 3622 1275 
L 4263 0 
L 3584 0 
L 2988 1197 
Q 2756 1666 2539 1819 
Q 2322 1972 1947 1972 
L 1259 1972 
L 1259 0 
L 628 0 
L 628 4666 
L 2053 4666 
Q 2853 4666 3247 4331 
Q 3641 3997 3641 3322 
Q 3641 2881 3436 2590 
Q 3231 2300 2841 2188 
z
M 1259 4147 
L 1259 2491 
L 2053 2491 
Q 2509 2491 2742 2702 
Q 2975 2913 2975 3322 
Q 2975 3731 2742 3939 
Q 2509 4147 2053 4147 
L 1259 4147 
z
" transform="scale(0.015625)"/>
      <path id="DejaVuSans-64" d="M 2906 2969 
L 2906 4863 
L 3481 4863 
L 3481 0 
L 2906 0 
L 2906 525 
Q 2725 213 2448 61 
Q 2172 -91 1784 -91 
Q 1150 -91 751 415 
Q 353 922 353 1747 
Q 353 2572 751 3078 
Q 1150 3584 1784 3584 
Q 2172 3584 2448 3432 
Q 2725 3281 2906 2969 
z
M 947 1747 
Q 947 1113 1208 752 
Q 1469 391 1925 391 
Q 2381 391 2643 752 
Q 2906 1113 2906 1747 
Q 2906 2381 2643 2742 
Q 2381 3103 1925 3103 
Q 1469 3103 1208 2742 
Q 947 2381 947 1747 
z
" transform="scale(0.015625)"/>
      <path id="DejaVuSans-2d" d="M 313 2009 
L 1997 2009 
L 1997 1497 
L 313 1497 
L 313 2009 
z
" transform="scale(0.015625)"/>
      <path id="DejaVuSans-57" d="M 213 4666 
L 850 4666 
L 1831 722 
L 2809 4666 
L 3519 4666 
L 4500 722 
L 5478 4666 
L 6119 4666 
L 4947 0 
L 4153 0 
L 3169 4050 
L 2175 0 
L 1381 0 
L 213 4666 
z
" transform="scale(0.015625)"/>
      <path id="DejaVuSans-72" d="M 2631 2963 
Q 2534 3019 2420 3045 
Q 2306 3072 2169 3072 
Q 1681 3072 1420 2755 
Q 1159 2438 1159 1844 
L 1159 0 
L 581 0 
L 581 3500 
L 1159 3500 
L 1159 2956 
Q 1341 3275 1631 3429 
Q 1922 3584 2338 3584 
Q 2397 3584 2469 3576 
Q 2541 3569 2628 3553 
L 2631 2963 
z
" transform="scale(0.015625)"/>
      <path id="DejaVuSans-54" d="M -19 4666 
L 3928 4666 
L 3928 4134 
L 2272 4134 
L 2272 0 
L 1638 0 
L 1638 4134 
L -19 4134 
L -19 4666 
z
" transform="scale(0.015625)"/>
      <path id="DejaVuSans-71" d="M 947 1747 
Q 947 1113 1208 752 
Q 1469 391 1925 391 
Q 2381 391 2643 752 
Q 2906 1113 2906 1747 
Q 2906 2381 2643 2742 
Q 2381 3103 1925 3103 
Q 1469 3103 1208 2742 
Q 947 2381 947 1747 
z
M 2906 525 
Q 2725 213 2448 61 
Q 2172 -91 1784 -91 
Q 1150 -91 751 415 
Q 353 922 353 1747 
Q 353 2572 751 3078 
Q 1150 3584 1784 3584 
Q 2172 3584 2448 3432 
Q 2725 3281 2906 2969 
L 2906 3500 
L 3481 3500 
L 3481 -1331 
L 2906 -1331 
L 2906 525 
z
" transform="scale(0.015625)"/>
      <path id="DejaVuSans-75" d="M 544 1381 
L 544 3500 
L 1119 3500 
L 1119 1403 
Q 1119 906 1312 657 
Q 1506 409 1894 409 
Q 2359 409 2629 706 
Q 2900 1003 2900 1516 
L 2900 3500 
L 3475 3500 
L 3475 0 
L 2900 0 
L 2900 538 
Q 2691 219 2414 64 
Q 2138 -91 1772 -91 
Q 1169 -91 856 284 
Q 544 659 544 1381 
z
M 1991 3584 
L 1991 3584 
z
" transform="scale(0.015625)"/>
      <path id="DejaVuSans-3a" d="M 750 794 
L 1409 794 
L 1409 0 
L 750 0 
L 750 794 
z
M 750 3309 
L 1409 3309 
L 1409 2516 
L 750 2516 
L 750 3309 
z
" transform="scale(0.015625)"/>
     </defs>
     <use xlink:href="#DejaVuSans-42"/>
     <use xlink:href="#DejaVuSans-6c" transform="translate(68.603516 0)"/>
     <use xlink:href="#DejaVuSans-6f" transform="translate(96.386719 0)"/>
     <use xlink:href="#DejaVuSans-63" transform="translate(157.568359 0)"/>
     <use xlink:href="#DejaVuSans-6b" transform="translate(212.548828 0)"/>
     <use xlink:href="#DejaVuSans-20" transform="translate(270.458984 0)"/>
     <use xlink:href="#DejaVuSans-53" transform="translate(302.246094 0)"/>
     <use xlink:href="#DejaVuSans-69" transform="translate(365.722656 0)"/>
     <use xlink:href="#DejaVuSans-7a" transform="translate(393.505859 0)"/>
     <use xlink:href="#DejaVuSans-65" transform="translate(445.996094 0)"/>
     <use xlink:href="#DejaVuSans-20" transform="translate(507.519531 0)"/>
     <use xlink:href="#DejaVuSans-3d" transform="translate(539.306641 0)"/>
     <use xlink:href="#DejaVuSans-20" transform="translate(623.095703 0)"/>
     <use xlink:href="#DejaVuSans-31" transform="translate(654.882812 0)"/>
     <use xlink:href="#DejaVuSans-36" transform="translate(718.505859 0)"/>
     <use xlink:href="#DejaVuSans-4b" transform="translate(782.128906 0)"/>
     <use xlink:href="#DejaVuSans-2c" transform="translate(847.705078 0)"/>
     <use xlink:href="#DejaVuSans-20" transform="translate(879.492188 0)"/>
     <use xlink:href="#DejaVuSans-52" transform="translate(911.279297 0)"/>
     <use xlink:href="#DejaVuSans-65" transform="translate(976.261719 0)"/>
     <use xlink:href="#DejaVuSans-61" transform="translate(1037.785156 0)"/>
     <use xlink:href="#DejaVuSans-64" transform="translate(1099.064453 0)"/>
     <use xlink:href="#DejaVuSans-2d" transform="translate(1162.541016 0)"/>
     <use xlink:href="#DejaVuSans-57" transform="translate(1194.625 0)"/>
     <use xlink:href="#DejaVuSans-72" transform="translate(1289.001953 0)"/>
     <use xlink:href="#DejaVuSans-69" transform="translate(1330.115234 0)"/>
     <use xlink:href="#DejaVuSans-74" transform="translate(1357.898438 0)"/>
     <use xlink:href="#DejaVuSans-65" transform="translate(1397.107422 0)"/>
     <use xlink:href="#DejaVuSans-20" transform="translate(1458.630859 0)"/>
     <use xlink:href="#DejaVuSans-54" transform="translate(1490.417969 0)"/>
     <use xlink:href="#DejaVuSans-79" transform="translate(1535.876953 0)"/>
     <use xlink:href="#DejaVuSans-70" transform="translate(1595.056641 0)"/>
     <use xlink:href="#DejaVuSans-65" transform="translate(1658.533203 0)"/>
     <use xlink:href="#DejaVuSans-20" transform="translate(1720.056641 0)"/>
     <use xlink:href="#DejaVuSans-3d" transform="translate(1751.84375 0)"/>
     <use xlink:href="#DejaVuSans-20" transform="translate(1835.632812 0)"/>
     <use xlink:href="#DejaVuSans-53" transform="translate(1867.419922 0)"/>
     <use xlink:href="#DejaVuSans-65" transform="translate(1930.896484 0)"/>
     <use xlink:href="#DejaVuSans-71" transform="translate(1992.419922 0)"/>
     <use xlink:href="#DejaVuSans-75" transform="translate(2055.896484 0)"/>
     <use xlink:href="#DejaVuSans-65" transform="translate(2119.275391 0)"/>
     <use xlink:href="#DejaVuSans-6e" transform="translate(2180.798828 0)"/>
     <use xlink:href="#DejaVuSans-74" transform="translate(2244.177734 0)"/>
     <use xlink:href="#DejaVuSans-69" transform="translate(2283.386719 0)"/>
     <use xlink:href="#DejaVuSans-61" transform="translate(2311.169922 0)"/>
     <use xlink:href="#DejaVuSans-6c" transform="translate(2372.449219 0)"/>
     <use xlink:href="#DejaVuSans-20" transform="translate(2400.232422 0)"/>
     <use xlink:href="#DejaVuSans-42" transform="translate(2432.019531 0)"/>
     <use xlink:href="#DejaVuSans-61" transform="translate(2500.623047 0)"/>
     <use xlink:href="#DejaVuSans-6c" transform="translate(2561.902344 0)"/>
     <use xlink:href="#DejaVuSans-61" transform="translate(2589.685547 0)"/>
     <use xlink:href="#DejaVuSans-6e" transform="translate(2650.964844 0)"/>
     <use xlink:href="#DejaVuSans-63" transform="translate(2714.34375 0)"/>
     <use xlink:href="#DejaVuSans-65" transform="translate(2769.324219 0)"/>
     <use xlink:href="#DejaVuSans-64" transform="translate(2830.847656 0)"/>
     <use xlink:href="#DejaVuSans-20" transform="translate(2894.324219 0)"/>
     <use xlink:href="#DejaVuSans-31" transform="translate(2926.111328 0)"/>
     <use xlink:href="#DejaVuSans-3a" transform="translate(2989.734375 0)"/>
     <use xlink:href="#DejaVuSans-31" transform="translate(3023.425781 0)"/>
    </g>
   </g>
   <g id="text_21">
    <!-- Mean Latency vs IO Depth -->
    <g style="fill: #262626" transform="translate(133.776563 16.318125) scale(0.12 -0.12)">
     <defs>
      <path id="DejaVuSans-Bold-4d" d="M 588 4666 
L 2119 4666 
L 3181 2169 
L 4250 4666 
L 5778 4666 
L 5778 0 
L 4641 0 
L 4641 3413 
L 3566 897 
L 2803 897 
L 1728 3413 
L 1728 0 
L 588 0 
L 588 4666 
z
" transform="scale(0.015625)"/>
      <path id="DejaVuSans-Bold-65" d="M 4031 1759 
L 4031 1441 
L 1416 1441 
Q 1456 1047 1700 850 
Q 1944 653 2381 653 
Q 2734 653 3104 758 
Q 3475 863 3866 1075 
L 3866 213 
Q 3469 63 3072 -14 
Q 2675 -91 2278 -91 
Q 1328 -91 801 392 
Q 275 875 275 1747 
Q 275 2603 792 3093 
Q 1309 3584 2216 3584 
Q 3041 3584 3536 3087 
Q 4031 2591 4031 1759 
z
M 2881 2131 
Q 2881 2450 2695 2645 
Q 2509 2841 2209 2841 
Q 1884 2841 1681 2658 
Q 1478 2475 1428 2131 
L 2881 2131 
z
" transform="scale(0.015625)"/>
      <path id="DejaVuSans-Bold-61" d="M 2106 1575 
Q 1756 1575 1579 1456 
Q 1403 1338 1403 1106 
Q 1403 894 1545 773 
Q 1688 653 1941 653 
Q 2256 653 2472 879 
Q 2688 1106 2688 1447 
L 2688 1575 
L 2106 1575 
z
M 3816 1997 
L 3816 0 
L 2688 0 
L 2688 519 
Q 2463 200 2181 54 
Q 1900 -91 1497 -91 
Q 953 -91 614 226 
Q 275 544 275 1050 
Q 275 1666 698 1953 
Q 1122 2241 2028 2241 
L 2688 2241 
L 2688 2328 
Q 2688 2594 2478 2717 
Q 2269 2841 1825 2841 
Q 1466 2841 1156 2769 
Q 847 2697 581 2553 
L 581 3406 
Q 941 3494 1303 3539 
Q 1666 3584 2028 3584 
Q 2975 3584 3395 3211 
Q 3816 2838 3816 1997 
z
" transform="scale(0.015625)"/>
      <path id="DejaVuSans-Bold-6e" d="M 4056 2131 
L 4056 0 
L 2931 0 
L 2931 347 
L 2931 1631 
Q 2931 2084 2911 2256 
Q 2891 2428 2841 2509 
Q 2775 2619 2662 2680 
Q 2550 2741 2406 2741 
Q 2056 2741 1856 2470 
Q 1656 2200 1656 1722 
L 1656 0 
L 538 0 
L 538 3500 
L 1656 3500 
L 1656 2988 
Q 1909 3294 2193 3439 
Q 2478 3584 2822 3584 
Q 3428 3584 3742 3212 
Q 4056 2841 4056 2131 
z
" transform="scale(0.015625)"/>
      <path id="DejaVuSans-Bold-20" transform="scale(0.015625)"/>
      <path id="DejaVuSans-Bold-4c" d="M 588 4666 
L 1791 4666 
L 1791 909 
L 3903 909 
L 3903 0 
L 588 0 
L 588 4666 
z
" transform="scale(0.015625)"/>
      <path id="DejaVuSans-Bold-74" d="M 1759 4494 
L 1759 3500 
L 2913 3500 
L 2913 2700 
L 1759 2700 
L 1759 1216 
Q 1759 972 1856 886 
Q 1953 800 2241 800 
L 2816 800 
L 2816 0 
L 1856 0 
Q 1194 0 917 276 
Q 641 553 641 1216 
L 641 2700 
L 84 2700 
L 84 3500 
L 641 3500 
L 641 4494 
L 1759 4494 
z
" transform="scale(0.015625)"/>
      <path id="DejaVuSans-Bold-63" d="M 3366 3391 
L 3366 2478 
Q 3138 2634 2908 2709 
Q 2678 2784 2431 2784 
Q 1963 2784 1702 2511 
Q 1441 2238 1441 1747 
Q 1441 1256 1702 982 
Q 1963 709 2431 709 
Q 2694 709 2930 787 
Q 3166 866 3366 1019 
L 3366 103 
Q 3103 6 2833 -42 
Q 2563 -91 2291 -91 
Q 1344 -91 809 395 
Q 275 881 275 1747 
Q 275 2613 809 3098 
Q 1344 3584 2291 3584 
Q 2566 3584 2833 3536 
Q 3100 3488 3366 3391 
z
" transform="scale(0.015625)"/>
      <path id="DejaVuSans-Bold-79" d="M 78 3500 
L 1197 3500 
L 2138 1125 
L 2938 3500 
L 4056 3500 
L 2584 -331 
Q 2363 -916 2067 -1148 
Q 1772 -1381 1288 -1381 
L 641 -1381 
L 641 -647 
L 991 -647 
Q 1275 -647 1404 -556 
Q 1534 -466 1606 -231 
L 1638 -134 
L 78 3500 
z
" transform="scale(0.015625)"/>
      <path id="DejaVuSans-Bold-76" d="M 97 3500 
L 1216 3500 
L 2088 1081 
L 2956 3500 
L 4078 3500 
L 2700 0 
L 1472 0 
L 97 3500 
z
" transform="scale(0.015625)"/>
      <path id="DejaVuSans-Bold-73" d="M 3272 3391 
L 3272 2541 
Q 2913 2691 2578 2766 
Q 2244 2841 1947 2841 
Q 1628 2841 1473 2761 
Q 1319 2681 1319 2516 
Q 1319 2381 1436 2309 
Q 1553 2238 1856 2203 
L 2053 2175 
Q 2913 2066 3209 1816 
Q 3506 1566 3506 1031 
Q 3506 472 3093 190 
Q 2681 -91 1863 -91 
Q 1516 -91 1145 -36 
Q 775 19 384 128 
L 384 978 
Q 719 816 1070 734 
Q 1422 653 1784 653 
Q 2113 653 2278 743 
Q 2444 834 2444 1013 
Q 2444 1163 2330 1236 
Q 2216 1309 1875 1350 
L 1678 1375 
Q 931 1469 631 1722 
Q 331 1975 331 2491 
Q 331 3047 712 3315 
Q 1094 3584 1881 3584 
Q 2191 3584 2531 3537 
Q 2872 3491 3272 3391 
z
" transform="scale(0.015625)"/>
      <path id="DejaVuSans-Bold-49" d="M 588 4666 
L 1791 4666 
L 1791 0 
L 588 0 
L 588 4666 
z
" transform="scale(0.015625)"/>
      <path id="DejaVuSans-Bold-4f" d="M 2719 3878 
Q 2169 3878 1866 3472 
Q 1563 3066 1563 2328 
Q 1563 1594 1866 1187 
Q 2169 781 2719 781 
Q 3272 781 3575 1187 
Q 3878 1594 3878 2328 
Q 3878 3066 3575 3472 
Q 3272 3878 2719 3878 
z
M 2719 4750 
Q 3844 4750 4481 4106 
Q 5119 3463 5119 2328 
Q 5119 1197 4481 553 
Q 3844 -91 2719 -91 
Q 1597 -91 958 553 
Q 319 1197 319 2328 
Q 319 3463 958 4106 
Q 1597 4750 2719 4750 
z
" transform="scale(0.015625)"/>
      <path id="DejaVuSans-Bold-44" d="M 1791 3756 
L 1791 909 
L 2222 909 
Q 2959 909 3348 1275 
Q 3738 1641 3738 2338 
Q 3738 3031 3350 3393 
Q 2963 3756 2222 3756 
L 1791 3756 
z
M 588 4666 
L 1856 4666 
Q 2919 4666 3439 4514 
Q 3959 4363 4331 4000 
Q 4659 3684 4818 3271 
Q 4978 2859 4978 2338 
Q 4978 1809 4818 1395 
Q 4659 981 4331 666 
Q 3956 303 3431 151 
Q 2906 0 1856 0 
L 588 0 
L 588 4666 
z
" transform="scale(0.015625)"/>
      <path id="DejaVuSans-Bold-70" d="M 1656 506 
L 1656 -1331 
L 538 -1331 
L 538 3500 
L 1656 3500 
L 1656 2988 
Q 1888 3294 2169 3439 
Q 2450 3584 2816 3584 
Q 3463 3584 3878 3070 
Q 4294 2556 4294 1747 
Q 4294 938 3878 423 
Q 3463 -91 2816 -91 
Q 2450 -91 2169 54 
Q 1888 200 1656 506 
z
M 2400 2772 
Q 2041 2772 1848 2508 
Q 1656 2244 1656 1747 
Q 1656 1250 1848 986 
Q 2041 722 2400 722 
Q 2759 722 2948 984 
Q 3138 1247 3138 1747 
Q 3138 2247 2948 2509 
Q 2759 2772 2400 2772 
z
" transform="scale(0.015625)"/>
      <path id="DejaVuSans-Bold-68" d="M 4056 2131 
L 4056 0 
L 2931 0 
L 2931 347 
L 2931 1625 
Q 2931 2084 2911 2256 
Q 2891 2428 2841 2509 
Q 2775 2619 2662 2680 
Q 2550 2741 2406 2741 
Q 2056 2741 1856 2470 
Q 1656 2200 1656 1722 
L 1656 0 
L 538 0 
L 538 4863 
L 1656 4863 
L 1656 2988 
Q 1909 3294 2193 3439 
Q 2478 3584 2822 3584 
Q 3428 3584 3742 3212 
Q 4056 2841 4056 2131 
z
" transform="scale(0.015625)"/>
     </defs>
     <use xlink:href="#DejaVuSans-Bold-4d"/>
     <use xlink:href="#DejaVuSans-Bold-65" transform="translate(99.511719 0)"/>
     <use xlink:href="#DejaVuSans-Bold-61" transform="translate(167.333984 0)"/>
     <use xlink:href="#DejaVuSans-Bold-6e" transform="translate(234.814453 0)"/>
     <use xlink:href="#DejaVuSans-Bold-20" transform="translate(306.005859 0)"/>
     <use xlink:href="#DejaVuSans-Bold-4c" transform="translate(340.820312 0)"/>
     <use xlink:href="#DejaVuSans-Bold-61" transform="translate(404.541016 0)"/>
     <use xlink:href="#DejaVuSans-Bold-74" transform="translate(472.021484 0)"/>
     <use xlink:href="#DejaVuSans-Bold-65" transform="translate(519.824219 0)"/>
     <use xlink:href="#DejaVuSans-Bold-6e" transform="translate(587.646484 0)"/>
     <use xlink:href="#DejaVuSans-Bold-63" transform="translate(658.837891 0)"/>
     <use xlink:href="#DejaVuSans-Bold-79" transform="translate(718.115234 0)"/>
     <use xlink:href="#DejaVuSans-Bold-20" transform="translate(783.300781 0)"/>
     <use xlink:href="#DejaVuSans-Bold-76" transform="translate(818.115234 0)"/>
     <use xlink:href="#DejaVuSans-Bold-73" transform="translate(883.300781 0)"/>
     <use xlink:href="#DejaVuSans-Bold-20" transform="translate(942.822266 0)"/>
     <use xlink:href="#DejaVuSans-Bold-49" transform="translate(977.636719 0)"/>
     <use xlink:href="#DejaVuSans-Bold-4f" transform="translate(1014.84375 0)"/>
     <use xlink:href="#DejaVuSans-Bold-20" transform="translate(1099.853516 0)"/>
     <use xlink:href="#DejaVuSans-Bold-44" transform="translate(1134.667969 0)"/>
     <use xlink:href="#DejaVuSans-Bold-65" transform="translate(1217.675781 0)"/>
     <use xlink:href="#DejaVuSans-Bold-70" transform="translate(1285.498047 0)"/>
     <use xlink:href="#DejaVuSans-Bold-74" transform="translate(1357.080078 0)"/>
     <use xlink:href="#DejaVuSans-Bold-68" transform="translate(1404.882812 0)"/>
    </g>
   </g>
   <g id="legend_1">
    <g id="text_22">
     <!-- Number of Jobs -->
     <g style="fill: #262626" transform="translate(404.3875 142.08285) scale(0.1 -0.1)">
      <defs>
       <path id="DejaVuSans-4e" d="M 628 4666 
L 1478 4666 
L 3547 763 
L 3547 4666 
L 4159 4666 
L 4159 0 
L 3309 0 
L 1241 3903 
L 1241 0 
L 628 0 
L 628 4666 
z
" transform="scale(0.015625)"/>
       <path id="DejaVuSans-6d" d="M 3328 2828 
Q 3544 3216 3844 3400 
Q 4144 3584 4550 3584 
Q 5097 3584 5394 3201 
Q 5691 2819 5691 2113 
L 5691 0 
L 5113 0 
L 5113 2094 
Q 5113 2597 4934 2840 
Q 4756 3084 4391 3084 
Q 3944 3084 3684 2787 
Q 3425 2491 3425 1978 
L 3425 0 
L 2847 0 
L 2847 2094 
Q 2847 2600 2669 2842 
Q 2491 3084 2119 3084 
Q 1678 3084 1418 2786 
Q 1159 2488 1159 1978 
L 1159 0 
L 581 0 
L 581 3500 
L 1159 3500 
L 1159 2956 
Q 1356 3278 1631 3431 
Q 1906 3584 2284 3584 
Q 2666 3584 2933 3390 
Q 3200 3197 3328 2828 
z
" transform="scale(0.015625)"/>
       <path id="DejaVuSans-62" d="M 3116 1747 
Q 3116 2381 2855 2742 
Q 2594 3103 2138 3103 
Q 1681 3103 1420 2742 
Q 1159 2381 1159 1747 
Q 1159 1113 1420 752 
Q 1681 391 2138 391 
Q 2594 391 2855 752 
Q 3116 1113 3116 1747 
z
M 1159 2969 
Q 1341 3281 1617 3432 
Q 1894 3584 2278 3584 
Q 2916 3584 3314 3078 
Q 3713 2572 3713 1747 
Q 3713 922 3314 415 
Q 2916 -91 2278 -91 
Q 1894 -91 1617 61 
Q 1341 213 1159 525 
L 1159 0 
L 581 0 
L 581 4863 
L 1159 4863 
L 1159 2969 
z
" transform="scale(0.015625)"/>
       <path id="DejaVuSans-66" d="M 2375 4863 
L 2375 4384 
L 1825 4384 
Q 1516 4384 1395 4259 
Q 1275 4134 1275 3809 
L 1275 3500 
L 2222 3500 
L 2222 3053 
L 1275 3053 
L 1275 0 
L 697 0 
L 697 3053 
L 147 3053 
L 147 3500 
L 697 3500 
L 697 3744 
Q 697 4328 969 4595 
Q 1241 4863 1831 4863 
L 2375 4863 
z
" transform="scale(0.015625)"/>
       <path id="DejaVuSans-4a" d="M 628 4666 
L 1259 4666 
L 1259 325 
Q 1259 -519 939 -900 
Q 619 -1281 -91 -1281 
L -331 -1281 
L -331 -750 
L -134 -750 
Q 284 -750 456 -515 
Q 628 -281 628 325 
L 628 4666 
z
" transform="scale(0.015625)"/>
      </defs>
      <use xlink:href="#DejaVuSans-4e"/>
      <use xlink:href="#DejaVuSans-75" transform="translate(74.804688 0)"/>
      <use xlink:href="#DejaVuSans-6d" transform="translate(138.183594 0)"/>
      <use xlink:href="#DejaVuSans-62" transform="translate(235.595703 0)"/>
      <use xlink:href="#DejaVuSans-65" transform="translate(299.072266 0)"/>
      <use xlink:href="#DejaVuSans-72" transform="translate(360.595703 0)"/>
      <use xlink:href="#DejaVuSans-20" transform="translate(401.708984 0)"/>
      <use xlink:href="#DejaVuSans-6f" transform="translate(433.496094 0)"/>
      <use xlink:href="#DejaVuSans-66" transform="translate(494.677734 0)"/>
      <use xlink:href="#DejaVuSans-20" transform="translate(529.882812 0)"/>
      <use xlink:href="#DejaVuSans-4a" transform="translate(561.669922 0)"/>
      <use xlink:href="#DejaVuSans-6f" transform="translate(591.162109 0)"/>
      <use xlink:href="#DejaVuSans-62" transform="translate(652.34375 0)"/>
      <use xlink:href="#DejaVuSans-73" transform="translate(715.820312 0)"/>
     </g>
    </g>
    <g id="line2d_21">
     <path d="M 419.240625 153.260975 
L 429.240625 153.260975 
L 439.240625 153.260975 
" style="fill: none; stroke: #3b0f70; stroke-width: 1.5; stroke-linecap: round"/>
    </g>
    <g id="text_23">
     <!-- 16 -->
     <g style="fill: #262626" transform="translate(447.240625 156.760975) scale(0.1 -0.1)">
      <use xlink:href="#DejaVuSans-31"/>
      <use xlink:href="#DejaVuSans-36" transform="translate(63.623047 0)"/>
     </g>
    </g>
    <g id="line2d_22">
     <path d="M 419.240625 167.9391 
L 429.240625 167.9391 
L 439.240625 167.9391 
" style="fill: none; stroke: #8c2981; stroke-width: 1.5; stroke-linecap: round"/>
    </g>
    <g id="text_24">
     <!-- 32 -->
     <g style="fill: #262626" transform="translate(447.240625 171.4391) scale(0.1 -0.1)">
      <use xlink:href="#DejaVuSans-33"/>
      <use xlink:href="#DejaVuSans-32" transform="translate(63.623047 0)"/>
     </g>
    </g>
    <g id="line2d_23">
     <path d="M 419.240625 182.617225 
L 429.240625 182.617225 
L 439.240625 182.617225 
" style="fill: none; stroke: #de4968; stroke-width: 1.5; stroke-linecap: round"/>
    </g>
    <g id="text_25">
     <!-- 64 -->
     <g style="fill: #262626" transform="translate(447.240625 186.117225) scale(0.1 -0.1)">
      <use xlink:href="#DejaVuSans-36"/>
      <use xlink:href="#DejaVuSans-34" transform="translate(63.623047 0)"/>
     </g>
    </g>
    <g id="line2d_24">
     <path d="M 419.240625 197.29535 
L 429.240625 197.29535 
L 439.240625 197.29535 
" style="fill: none; stroke: #fe9f6d; stroke-width: 1.5; stroke-linecap: round"/>
    </g>
    <g id="text_26">
     <!-- 128 -->
     <g style="fill: #262626" transform="translate(447.240625 200.79535) scale(0.1 -0.1)">
      <use xlink:href="#DejaVuSans-31"/>
      <use xlink:href="#DejaVuSans-32" transform="translate(63.623047 0)"/>
      <use xlink:href="#DejaVuSans-38" transform="translate(127.246094 0)"/>
     </g>
    </g>
   </g>
  </g>
 </g>
 <defs>
  <clipPath id="p83537b7233">
   <rect x="43.78125" y="35.623725" width="357.12" height="266.112"/>
  </clipPath>
 </defs>
</svg>
