<?xml version="1.0" encoding="utf-8" standalone="no"?>
<!DOCTYPE svg PUBLIC "-//W3C//DTD SVG 1.1//EN"
  "http://www.w3.org/Graphics/SVG/1.1/DTD/svg11.dtd">
<svg xmlns:xlink="http://www.w3.org/1999/xlink" width="482.840625pt" height="339.291975pt" viewBox="0 0 482.840625 339.291975" xmlns="http://www.w3.org/2000/svg" version="1.1">
 <metadata>
  <rdf:RDF xmlns:dc="http://purl.org/dc/elements/1.1/" xmlns:cc="http://creativecommons.org/ns#" xmlns:rdf="http://www.w3.org/1999/02/22-rdf-syntax-ns#">
   <cc:Work>
    <dc:type rdf:resource="http://purl.org/dc/dcmitype/StillImage"/>
    <dc:date>2025-09-11T11:47:29.892132</dc:date>
    <dc:format>image/svg+xml</dc:format>
    <dc:creator>
     <cc:Agent>
      <dc:title>Matplotlib v3.10.6, https://matplotlib.org/</dc:title>
     </cc:Agent>
    </dc:creator>
   </cc:Work>
  </rdf:RDF>
 </metadata>
 <defs>
  <style type="text/css">*{stroke-linejoin: round; stroke-linecap: butt}</style>
 </defs>
 <g id="figure_1">
  <g id="patch_1">
   <path d="M 0 339.291975 
L 482.840625 339.291975 
L 482.840625 0 
L 0 0 
z
" style="fill: #ffffff"/>
  </g>
  <g id="axes_1">
   <g id="patch_2">
    <path d="M 34.240625 301.735725 
L 391.360625 301.735725 
L 391.360625 35.623725 
L 34.240625 35.623725 
z
" style="fill: #ffffff"/>
   </g>
   <g id="matplotlib.axis_1">
    <g id="xtick_1">
     <g id="line2d_1">
      <path d="M 189.611015 301.735725 
L 189.611015 35.623725 
" clip-path="url(#pe9d0d84dc9)" style="fill: none; stroke: #cccccc; stroke-width: 0.8; stroke-linecap: round"/>
     </g>
     <g id="text_1">
      <!-- 64 -->
      <g style="fill: #262626" transform="translate(183.248515 316.334162) scale(0.1 -0.1)">
       <defs>
        <path id="DejaVuSans-36" d="M 2113 2584 
Q 1688 2584 1439 2293 
Q 1191 2003 1191 1497 
Q 1191 994 1439 701 
Q 1688 409 2113 409 
Q 2538 409 2786 701 
Q 3034 994 3034 1497 
Q 3034 2003 2786 2293 
Q 2538 2584 2113 2584 
z
M 3366 4563 
L 3366 3988 
Q 3128 4100 2886 4159 
Q 2644 4219 2406 4219 
Q 1781 4219 1451 3797 
Q 1122 3375 1075 2522 
Q 1259 2794 1537 2939 
Q 1816 3084 2150 3084 
Q 2853 3084 3261 2657 
Q 3669 2231 3669 1497 
Q 3669 778 3244 343 
Q 2819 -91 2113 -91 
Q 1303 -91 875 529 
Q 447 1150 447 2328 
Q 447 3434 972 4092 
Q 1497 4750 2381 4750 
Q 2619 4750 2861 4703 
Q 3103 4656 3366 4563 
z
" transform="scale(0.015625)"/>
        <path id="DejaVuSans-34" d="M 2419 4116 
L 825 1625 
L 2419 1625 
L 2419 4116 
z
M 2253 4666 
L 3047 4666 
L 3047 1625 
L 3713 1625 
L 3713 1100 
L 3047 1100 
L 3047 0 
L 2419 0 
L 2419 1100 
L 313 1100 
L 313 1709 
L 2253 4666 
z
" transform="scale(0.015625)"/>
       </defs>
       <use xlink:href="#DejaVuSans-36"/>
       <use xlink:href="#DejaVuSans-34" transform="translate(63.623047 0)"/>
      </g>
     </g>
    </g>
    <g id="xtick_2">
     <g id="line2d_2">
      <path d="M 96.852573 301.735725 
L 96.852573 35.623725 
" clip-path="url(#pe9d0d84dc9)" style="fill: none; stroke: #cccccc; stroke-width: 0.8; stroke-linecap: round"/>
     </g>
     <g id="text_2">
      <!-- 32 -->
      <g style="fill: #262626" transform="translate(90.490073 316.334162) scale(0.1 -0.1)">
       <defs>
        <path id="DejaVuSans-33" d="M 2597 2516 
Q 3050 2419 3304 2112 
Q 3559 1806 3559 1356 
Q 3559 666 3084 287 
Q 2609 -91 1734 -91 
Q 1441 -91 1130 -33 
Q 819 25 488 141 
L 488 750 
Q 750 597 1062 519 
Q 1375 441 1716 441 
Q 2309 441 2620 675 
Q 2931 909 2931 1356 
Q 2931 1769 2642 2001 
Q 2353 2234 1838 2234 
L 1294 2234 
L 1294 2753 
L 1863 2753 
Q 2328 2753 2575 2939 
Q 2822 3125 2822 3475 
Q 2822 3834 2567 4026 
Q 2313 4219 1838 4219 
Q 1578 4219 1281 4162 
Q 984 4106 628 3988 
L 628 4550 
Q 988 4650 1302 4700 
Q 1616 4750 1894 4750 
Q 2613 4750 3031 4423 
Q 3450 4097 3450 3541 
Q 3450 3153 3228 2886 
Q 3006 2619 2597 2516 
z
" transform="scale(0.015625)"/>
        <path id="DejaVuSans-32" d="M 1228 531 
L 3431 531 
L 3431 0 
L 469 0 
L 469 531 
Q 828 903 1448 1529 
Q 2069 2156 2228 2338 
Q 2531 2678 2651 2914 
Q 2772 3150 2772 3378 
Q 2772 3750 2511 3984 
Q 2250 4219 1831 4219 
Q 1534 4219 1204 4116 
Q 875 4013 500 3803 
L 500 4441 
Q 881 4594 1212 4672 
Q 1544 4750 1819 4750 
Q 2544 4750 2975 4387 
Q 3406 4025 3406 3419 
Q 3406 3131 3298 2873 
Q 3191 2616 2906 2266 
Q 2828 2175 2409 1742 
Q 1991 1309 1228 531 
z
" transform="scale(0.015625)"/>
       </defs>
       <use xlink:href="#DejaVuSans-33"/>
       <use xlink:href="#DejaVuSans-32" transform="translate(63.623047 0)"/>
      </g>
     </g>
    </g>
    <g id="xtick_3">
     <g id="line2d_3">
      <path d="M 375.127898 301.735725 
L 375.127898 35.623725 
" clip-path="url(#pe9d0d84dc9)" style="fill: none; stroke: #cccccc; stroke-width: 0.8; stroke-linecap: round"/>
     </g>
     <g id="text_3">
      <!-- 128 -->
      <g style="fill: #262626" transform="translate(365.584148 316.334162) scale(0.1 -0.1)">
       <defs>
        <path id="DejaVuSans-31" d="M 794 531 
L 1825 531 
L 1825 4091 
L 703 3866 
L 703 4441 
L 1819 4666 
L 2450 4666 
L 2450 531 
L 3481 531 
L 3481 0 
L 794 0 
L 794 531 
z
" transform="scale(0.015625)"/>
        <path id="DejaVuSans-38" d="M 2034 2216 
Q 1584 2216 1326 1975 
Q 1069 1734 1069 1313 
Q 1069 891 1326 650 
Q 1584 409 2034 409 
Q 2484 409 2743 651 
Q 3003 894 3003 1313 
Q 3003 1734 2745 1975 
Q 2488 2216 2034 2216 
z
M 1403 2484 
Q 997 2584 770 2862 
Q 544 3141 544 3541 
Q 544 4100 942 4425 
Q 1341 4750 2034 4750 
Q 2731 4750 3128 4425 
Q 3525 4100 3525 3541 
Q 3525 3141 3298 2862 
Q 3072 2584 2669 2484 
Q 3125 2378 3379 2068 
Q 3634 1759 3634 1313 
Q 3634 634 3220 271 
Q 2806 -91 2034 -91 
Q 1263 -91 848 271 
Q 434 634 434 1313 
Q 434 1759 690 2068 
Q 947 2378 1403 2484 
z
M 1172 3481 
Q 1172 3119 1398 2916 
Q 1625 2713 2034 2713 
Q 2441 2713 2670 2916 
Q 2900 3119 2900 3481 
Q 2900 3844 2670 4047 
Q 2441 4250 2034 4250 
Q 1625 4250 1398 4047 
Q 1172 3844 1172 3481 
z
" transform="scale(0.015625)"/>
       </defs>
       <use xlink:href="#DejaVuSans-31"/>
       <use xlink:href="#DejaVuSans-32" transform="translate(63.623047 0)"/>
       <use xlink:href="#DejaVuSans-38" transform="translate(127.246094 0)"/>
      </g>
     </g>
    </g>
    <g id="xtick_4">
     <g id="line2d_4">
      <path d="M 50.473352 301.735725 
L 50.473352 35.623725 
" clip-path="url(#pe9d0d84dc9)" style="fill: none; stroke: #cccccc; stroke-width: 0.8; stroke-linecap: round"/>
     </g>
     <g id="text_4">
      <!-- 16 -->
      <g style="fill: #262626" transform="translate(44.110852 316.334162) scale(0.1 -0.1)">
       <use xlink:href="#DejaVuSans-31"/>
       <use xlink:href="#DejaVuSans-36" transform="translate(63.623047 0)"/>
      </g>
     </g>
    </g>
    <g id="text_5">
     <!-- Number of Jobs -->
     <g style="fill: #262626" transform="translate(174.40375 330.012287) scale(0.1 -0.1)">
      <defs>
       <path id="DejaVuSans-4e" d="M 628 4666 
L 1478 4666 
L 3547 763 
L 3547 4666 
L 4159 4666 
L 4159 0 
L 3309 0 
L 1241 3903 
L 1241 0 
L 628 0 
L 628 4666 
z
" transform="scale(0.015625)"/>
       <path id="DejaVuSans-75" d="M 544 1381 
L 544 3500 
L 1119 3500 
L 1119 1403 
Q 1119 906 1312 657 
Q 1506 409 1894 409 
Q 2359 409 2629 706 
Q 2900 1003 2900 1516 
L 2900 3500 
L 3475 3500 
L 3475 0 
L 2900 0 
L 2900 538 
Q 2691 219 2414 64 
Q 2138 -91 1772 -91 
Q 1169 -91 856 284 
Q 544 659 544 1381 
z
M 1991 3584 
L 1991 3584 
z
" transform="scale(0.015625)"/>
       <path id="DejaVuSans-6d" d="M 3328 2828 
Q 3544 3216 3844 3400 
Q 4144 3584 4550 3584 
Q 5097 3584 5394 3201 
Q 5691 2819 5691 2113 
L 5691 0 
L 5113 0 
L 5113 2094 
Q 5113 2597 4934 2840 
Q 4756 3084 4391 3084 
Q 3944 3084 3684 2787 
Q 3425 2491 3425 1978 
L 3425 0 
L 2847 0 
L 2847 2094 
Q 2847 2600 2669 2842 
Q 2491 3084 2119 3084 
Q 1678 3084 1418 2786 
Q 1159 2488 1159 1978 
L 1159 0 
L 581 0 
L 581 3500 
L 1159 3500 
L 1159 2956 
Q 1356 3278 1631 3431 
Q 1906 3584 2284 3584 
Q 2666 3584 2933 3390 
Q 3200 3197 3328 2828 
z
" transform="scale(0.015625)"/>
       <path id="DejaVuSans-62" d="M 3116 1747 
Q 3116 2381 2855 2742 
Q 2594 3103 2138 3103 
Q 1681 3103 1420 2742 
Q 1159 2381 1159 1747 
Q 1159 1113 1420 752 
Q 1681 391 2138 391 
Q 2594 391 2855 752 
Q 3116 1113 3116 1747 
z
M 1159 2969 
Q 1341 3281 1617 3432 
Q 1894 3584 2278 3584 
Q 2916 3584 3314 3078 
Q 3713 2572 3713 1747 
Q 3713 922 3314 415 
Q 2916 -91 2278 -91 
Q 1894 -91 1617 61 
Q 1341 213 1159 525 
L 1159 0 
L 581 0 
L 581 4863 
L 1159 4863 
L 1159 2969 
z
" transform="scale(0.015625)"/>
       <path id="DejaVuSans-65" d="M 3597 1894 
L 3597 1613 
L 953 1613 
Q 991 1019 1311 708 
Q 1631 397 2203 397 
Q 2534 397 2845 478 
Q 3156 559 3463 722 
L 3463 178 
Q 3153 47 2828 -22 
Q 2503 -91 2169 -91 
Q 1331 -91 842 396 
Q 353 884 353 1716 
Q 353 2575 817 3079 
Q 1281 3584 2069 3584 
Q 2775 3584 3186 3129 
Q 3597 2675 3597 1894 
z
M 3022 2063 
Q 3016 2534 2758 2815 
Q 2500 3097 2075 3097 
Q 1594 3097 1305 2825 
Q 1016 2553 972 2059 
L 3022 2063 
z
" transform="scale(0.015625)"/>
       <path id="DejaVuSans-72" d="M 2631 2963 
Q 2534 3019 2420 3045 
Q 2306 3072 2169 3072 
Q 1681 3072 1420 2755 
Q 1159 2438 1159 1844 
L 1159 0 
L 581 0 
L 581 3500 
L 1159 3500 
L 1159 2956 
Q 1341 3275 1631 3429 
Q 1922 3584 2338 3584 
Q 2397 3584 2469 3576 
Q 2541 3569 2628 3553 
L 2631 2963 
z
" transform="scale(0.015625)"/>
       <path id="DejaVuSans-20" transform="scale(0.015625)"/>
       <path id="DejaVuSans-6f" d="M 1959 3097 
Q 1497 3097 1228 2736 
Q 959 2375 959 1747 
Q 959 1119 1226 758 
Q 1494 397 1959 397 
Q 2419 397 2687 759 
Q 2956 1122 2956 1747 
Q 2956 2369 2687 2733 
Q 2419 3097 1959 3097 
z
M 1959 3584 
Q 2709 3584 3137 3096 
Q 3566 2609 3566 1747 
Q 3566 888 3137 398 
Q 2709 -91 1959 -91 
Q 1206 -91 779 398 
Q 353 888 353 1747 
Q 353 2609 779 3096 
Q 1206 3584 1959 3584 
z
" transform="scale(0.015625)"/>
       <path id="DejaVuSans-66" d="M 2375 4863 
L 2375 4384 
L 1825 4384 
Q 1516 4384 1395 4259 
Q 1275 4134 1275 3809 
L 1275 3500 
L 2222 3500 
L 2222 3053 
L 1275 3053 
L 1275 0 
L 697 0 
L 697 3053 
L 147 3053 
L 147 3500 
L 697 3500 
L 697 3744 
Q 697 4328 969 4595 
Q 1241 4863 1831 4863 
L 2375 4863 
z
" transform="scale(0.015625)"/>
       <path id="DejaVuSans-4a" d="M 628 4666 
L 1259 4666 
L 1259 325 
Q 1259 -519 939 -900 
Q 619 -1281 -91 -1281 
L -331 -1281 
L -331 -750 
L -134 -750 
Q 284 -750 456 -515 
Q 628 -281 628 325 
L 628 4666 
z
" transform="scale(0.015625)"/>
       <path id="DejaVuSans-73" d="M 2834 3397 
L 2834 2853 
Q 2591 2978 2328 3040 
Q 2066 3103 1784 3103 
Q 1356 3103 1142 2972 
Q 928 2841 928 2578 
Q 928 2378 1081 2264 
Q 1234 2150 1697 2047 
L 1894 2003 
Q 2506 1872 2764 1633 
Q 3022 1394 3022 966 
Q 3022 478 2636 193 
Q 2250 -91 1575 -91 
Q 1294 -91 989 -36 
Q 684 19 347 128 
L 347 722 
Q 666 556 975 473 
Q 1284 391 1588 391 
Q 1994 391 2212 530 
Q 2431 669 2431 922 
Q 2431 1156 2273 1281 
Q 2116 1406 1581 1522 
L 1381 1569 
Q 847 1681 609 1914 
Q 372 2147 372 2553 
Q 372 3047 722 3315 
Q 1072 3584 1716 3584 
Q 2034 3584 2315 3537 
Q 2597 3491 2834 3397 
z
" transform="scale(0.015625)"/>
      </defs>
      <use xlink:href="#DejaVuSans-4e"/>
      <use xlink:href="#DejaVuSans-75" transform="translate(74.804688 0)"/>
      <use xlink:href="#DejaVuSans-6d" transform="translate(138.183594 0)"/>
      <use xlink:href="#DejaVuSans-62" transform="translate(235.595703 0)"/>
      <use xlink:href="#DejaVuSans-65" transform="translate(299.072266 0)"/>
      <use xlink:href="#DejaVuSans-72" transform="translate(360.595703 0)"/>
      <use xlink:href="#DejaVuSans-20" transform="translate(401.708984 0)"/>
      <use xlink:href="#DejaVuSans-6f" transform="translate(433.496094 0)"/>
      <use xlink:href="#DejaVuSans-66" transform="translate(494.677734 0)"/>
      <use xlink:href="#DejaVuSans-20" transform="translate(529.882812 0)"/>
      <use xlink:href="#DejaVuSans-4a" transform="translate(561.669922 0)"/>
      <use xlink:href="#DejaVuSans-6f" transform="translate(591.162109 0)"/>
      <use xlink:href="#DejaVuSans-62" transform="translate(652.34375 0)"/>
      <use xlink:href="#DejaVuSans-73" transform="translate(715.820312 0)"/>
     </g>
    </g>
   </g>
   <g id="matplotlib.axis_2">
    <g id="ytick_1">
     <g id="line2d_5">
      <path d="M 34.240625 300.605336 
L 391.360625 300.605336 
" clip-path="url(#pe9d0d84dc9)" style="fill: none; stroke: #cccccc; stroke-width: 0.8; stroke-linecap: round"/>
     </g>
     <g id="text_6">
      <!-- 0 -->
      <g style="fill: #262626" transform="translate(20.878125 304.404555) scale(0.1 -0.1)">
       <defs>
        <path id="DejaVuSans-30" d="M 2034 4250 
Q 1547 4250 1301 3770 
Q 1056 3291 1056 2328 
Q 1056 1369 1301 889 
Q 1547 409 2034 409 
Q 2525 409 2770 889 
Q 3016 1369 3016 2328 
Q 3016 3291 2770 3770 
Q 2525 4250 2034 4250 
z
M 2034 4750 
Q 2819 4750 3233 4129 
Q 3647 3509 3647 2328 
Q 3647 1150 3233 529 
Q 2819 -91 2034 -91 
Q 1250 -91 836 529 
Q 422 1150 422 2328 
Q 422 3509 836 4129 
Q 1250 4750 2034 4750 
z
" transform="scale(0.015625)"/>
       </defs>
       <use xlink:href="#DejaVuSans-30"/>
      </g>
     </g>
    </g>
    <g id="ytick_2">
     <g id="line2d_6">
      <path d="M 34.240625 267.311004 
L 391.360625 267.311004 
" clip-path="url(#pe9d0d84dc9)" style="fill: none; stroke: #cccccc; stroke-width: 0.8; stroke-linecap: round"/>
     </g>
     <g id="text_7">
      <!-- 1 -->
      <g style="fill: #262626" transform="translate(20.878125 271.110223) scale(0.1 -0.1)">
       <use xlink:href="#DejaVuSans-31"/>
      </g>
     </g>
    </g>
    <g id="ytick_3">
     <g id="line2d_7">
      <path d="M 34.240625 234.016672 
L 391.360625 234.016672 
" clip-path="url(#pe9d0d84dc9)" style="fill: none; stroke: #cccccc; stroke-width: 0.8; stroke-linecap: round"/>
     </g>
     <g id="text_8">
      <!-- 2 -->
      <g style="fill: #262626" transform="translate(20.878125 237.815891) scale(0.1 -0.1)">
       <use xlink:href="#DejaVuSans-32"/>
      </g>
     </g>
    </g>
    <g id="ytick_4">
     <g id="line2d_8">
      <path d="M 34.240625 200.72234 
L 391.360625 200.72234 
" clip-path="url(#pe9d0d84dc9)" style="fill: none; stroke: #cccccc; stroke-width: 0.8; stroke-linecap: round"/>
     </g>
     <g id="text_9">
      <!-- 3 -->
      <g style="fill: #262626" transform="translate(20.878125 204.521559) scale(0.1 -0.1)">
       <use xlink:href="#DejaVuSans-33"/>
      </g>
     </g>
    </g>
    <g id="ytick_5">
     <g id="line2d_9">
      <path d="M 34.240625 167.428009 
L 391.360625 167.428009 
" clip-path="url(#pe9d0d84dc9)" style="fill: none; stroke: #cccccc; stroke-width: 0.8; stroke-linecap: round"/>
     </g>
     <g id="text_10">
      <!-- 4 -->
      <g style="fill: #262626" transform="translate(20.878125 171.227227) scale(0.1 -0.1)">
       <use xlink:href="#DejaVuSans-34"/>
      </g>
     </g>
    </g>
    <g id="ytick_6">
     <g id="line2d_10">
      <path d="M 34.240625 134.133677 
L 391.360625 134.133677 
" clip-path="url(#pe9d0d84dc9)" style="fill: none; stroke: #cccccc; stroke-width: 0.8; stroke-linecap: round"/>
     </g>
     <g id="text_11">
      <!-- 5 -->
      <g style="fill: #262626" transform="translate(20.878125 137.932896) scale(0.1 -0.1)">
       <defs>
        <path id="DejaVuSans-35" d="M 691 4666 
L 3169 4666 
L 3169 4134 
L 1269 4134 
L 1269 2991 
Q 1406 3038 1543 3061 
Q 1681 3084 1819 3084 
Q 2600 3084 3056 2656 
Q 3513 2228 3513 1497 
Q 3513 744 3044 326 
Q 2575 -91 1722 -91 
Q 1428 -91 1123 -41 
Q 819 9 494 109 
L 494 744 
Q 775 591 1075 516 
Q 1375 441 1709 441 
Q 2250 441 2565 725 
Q 2881 1009 2881 1497 
Q 2881 1984 2565 2268 
Q 2250 2553 1709 2553 
Q 1456 2553 1204 2497 
Q 953 2441 691 2322 
L 691 4666 
z
" transform="scale(0.015625)"/>
       </defs>
       <use xlink:href="#DejaVuSans-35"/>
      </g>
     </g>
    </g>
    <g id="ytick_7">
     <g id="line2d_11">
      <path d="M 34.240625 100.839345 
L 391.360625 100.839345 
" clip-path="url(#pe9d0d84dc9)" style="fill: none; stroke: #cccccc; stroke-width: 0.8; stroke-linecap: round"/>
     </g>
     <g id="text_12">
      <!-- 6 -->
      <g style="fill: #262626" transform="translate(20.878125 104.638564) scale(0.1 -0.1)">
       <use xlink:href="#DejaVuSans-36"/>
      </g>
     </g>
    </g>
    <g id="ytick_8">
     <g id="line2d_12">
      <path d="M 34.240625 67.545013 
L 391.360625 67.545013 
" clip-path="url(#pe9d0d84dc9)" style="fill: none; stroke: #cccccc; stroke-width: 0.8; stroke-linecap: round"/>
     </g>
     <g id="text_13">
      <!-- 7 -->
      <g style="fill: #262626" transform="translate(20.878125 71.344232) scale(0.1 -0.1)">
       <defs>
        <path id="DejaVuSans-37" d="M 525 4666 
L 3525 4666 
L 3525 4397 
L 1831 0 
L 1172 0 
L 2766 4134 
L 525 4134 
L 525 4666 
z
" transform="scale(0.015625)"/>
       </defs>
       <use xlink:href="#DejaVuSans-37"/>
      </g>
     </g>
    </g>
    <g id="text_14">
     <!-- Mean Latency (ns) -->
     <g style="fill: #262626" transform="translate(14.798438 214.92035) rotate(-90) scale(0.1 -0.1)">
      <defs>
       <path id="DejaVuSans-4d" d="M 628 4666 
L 1569 4666 
L 2759 1491 
L 3956 4666 
L 4897 4666 
L 4897 0 
L 4281 0 
L 4281 4097 
L 3078 897 
L 2444 897 
L 1241 4097 
L 1241 0 
L 628 0 
L 628 4666 
z
" transform="scale(0.015625)"/>
       <path id="DejaVuSans-61" d="M 2194 1759 
Q 1497 1759 1228 1600 
Q 959 1441 959 1056 
Q 959 750 1161 570 
Q 1363 391 1709 391 
Q 2188 391 2477 730 
Q 2766 1069 2766 1631 
L 2766 1759 
L 2194 1759 
z
M 3341 1997 
L 3341 0 
L 2766 0 
L 2766 531 
Q 2569 213 2275 61 
Q 1981 -91 1556 -91 
Q 1019 -91 701 211 
Q 384 513 384 1019 
Q 384 1609 779 1909 
Q 1175 2209 1959 2209 
L 2766 2209 
L 2766 2266 
Q 2766 2663 2505 2880 
Q 2244 3097 1772 3097 
Q 1472 3097 1187 3025 
Q 903 2953 641 2809 
L 641 3341 
Q 956 3463 1253 3523 
Q 1550 3584 1831 3584 
Q 2591 3584 2966 3190 
Q 3341 2797 3341 1997 
z
" transform="scale(0.015625)"/>
       <path id="DejaVuSans-6e" d="M 3513 2113 
L 3513 0 
L 2938 0 
L 2938 2094 
Q 2938 2591 2744 2837 
Q 2550 3084 2163 3084 
Q 1697 3084 1428 2787 
Q 1159 2491 1159 1978 
L 1159 0 
L 581 0 
L 581 3500 
L 1159 3500 
L 1159 2956 
Q 1366 3272 1645 3428 
Q 1925 3584 2291 3584 
Q 2894 3584 3203 3211 
Q 3513 2838 3513 2113 
z
" transform="scale(0.015625)"/>
       <path id="DejaVuSans-4c" d="M 628 4666 
L 1259 4666 
L 1259 531 
L 3531 531 
L 3531 0 
L 628 0 
L 628 4666 
z
" transform="scale(0.015625)"/>
       <path id="DejaVuSans-74" d="M 1172 4494 
L 1172 3500 
L 2356 3500 
L 2356 3053 
L 1172 3053 
L 1172 1153 
Q 1172 725 1289 603 
Q 1406 481 1766 481 
L 2356 481 
L 2356 0 
L 1766 0 
Q 1100 0 847 248 
Q 594 497 594 1153 
L 594 3053 
L 172 3053 
L 172 3500 
L 594 3500 
L 594 4494 
L 1172 4494 
z
" transform="scale(0.015625)"/>
       <path id="DejaVuSans-63" d="M 3122 3366 
L 3122 2828 
Q 2878 2963 2633 3030 
Q 2388 3097 2138 3097 
Q 1578 3097 1268 2742 
Q 959 2388 959 1747 
Q 959 1106 1268 751 
Q 1578 397 2138 397 
Q 2388 397 2633 464 
Q 2878 531 3122 666 
L 3122 134 
Q 2881 22 2623 -34 
Q 2366 -91 2075 -91 
Q 1284 -91 818 406 
Q 353 903 353 1747 
Q 353 2603 823 3093 
Q 1294 3584 2113 3584 
Q 2378 3584 2631 3529 
Q 2884 3475 3122 3366 
z
" transform="scale(0.015625)"/>
       <path id="DejaVuSans-79" d="M 2059 -325 
Q 1816 -950 1584 -1140 
Q 1353 -1331 966 -1331 
L 506 -1331 
L 506 -850 
L 844 -850 
Q 1081 -850 1212 -737 
Q 1344 -625 1503 -206 
L 1606 56 
L 191 3500 
L 800 3500 
L 1894 763 
L 2988 3500 
L 3597 3500 
L 2059 -325 
z
" transform="scale(0.015625)"/>
       <path id="DejaVuSans-28" d="M 1984 4856 
Q 1566 4138 1362 3434 
Q 1159 2731 1159 2009 
Q 1159 1288 1364 580 
Q 1569 -128 1984 -844 
L 1484 -844 
Q 1016 -109 783 600 
Q 550 1309 550 2009 
Q 550 2706 781 3412 
Q 1013 4119 1484 4856 
L 1984 4856 
z
" transform="scale(0.015625)"/>
       <path id="DejaVuSans-29" d="M 513 4856 
L 1013 4856 
Q 1481 4119 1714 3412 
Q 1947 2706 1947 2009 
Q 1947 1309 1714 600 
Q 1481 -109 1013 -844 
L 513 -844 
Q 928 -128 1133 580 
Q 1338 1288 1338 2009 
Q 1338 2731 1133 3434 
Q 928 4138 513 4856 
z
" transform="scale(0.015625)"/>
      </defs>
      <use xlink:href="#DejaVuSans-4d"/>
      <use xlink:href="#DejaVuSans-65" transform="translate(86.279297 0)"/>
      <use xlink:href="#DejaVuSans-61" transform="translate(147.802734 0)"/>
      <use xlink:href="#DejaVuSans-6e" transform="translate(209.082031 0)"/>
      <use xlink:href="#DejaVuSans-20" transform="translate(272.460938 0)"/>
      <use xlink:href="#DejaVuSans-4c" transform="translate(304.248047 0)"/>
      <use xlink:href="#DejaVuSans-61" transform="translate(359.960938 0)"/>
      <use xlink:href="#DejaVuSans-74" transform="translate(421.240234 0)"/>
      <use xlink:href="#DejaVuSans-65" transform="translate(460.449219 0)"/>
      <use xlink:href="#DejaVuSans-6e" transform="translate(521.972656 0)"/>
      <use xlink:href="#DejaVuSans-63" transform="translate(585.351562 0)"/>
      <use xlink:href="#DejaVuSans-79" transform="translate(640.332031 0)"/>
      <use xlink:href="#DejaVuSans-20" transform="translate(699.511719 0)"/>
      <use xlink:href="#DejaVuSans-28" transform="translate(731.298828 0)"/>
      <use xlink:href="#DejaVuSans-6e" transform="translate(770.3125 0)"/>
      <use xlink:href="#DejaVuSans-73" transform="translate(833.691406 0)"/>
      <use xlink:href="#DejaVuSans-29" transform="translate(885.791016 0)"/>
     </g>
    </g>
    <g id="text_15">
     <!-- 1e7 -->
     <g style="fill: #262626" transform="translate(34.240625 32.623725) scale(0.1 -0.1)">
      <use xlink:href="#DejaVuSans-31"/>
      <use xlink:href="#DejaVuSans-65" transform="translate(63.623047 0)"/>
      <use xlink:href="#DejaVuSans-37" transform="translate(125.146484 0)"/>
     </g>
    </g>
   </g>
   <g id="FillBetweenPolyCollection_1"/>
   <g id="FillBetweenPolyCollection_2"/>
   <g id="FillBetweenPolyCollection_3"/>
   <g id="FillBetweenPolyCollection_4"/>
   <g id="FillBetweenPolyCollection_5"/>
   <g id="FillBetweenPolyCollection_6"/>
   <g id="FillBetweenPolyCollection_7"/>
   <g id="line2d_13">
    <path d="M 50.473352 288.575262 
L 96.852573 273.552434 
L 189.611015 190.02793 
L 375.127898 85.251984 
" clip-path="url(#pe9d0d84dc9)" style="fill: none; stroke: #4c02a1; stroke-width: 1.5; stroke-linecap: round"/>
   </g>
   <g id="line2d_14">
    <path d="M 50.473352 289.639725 
L 96.852573 272.394027 
L 189.611015 217.347294 
L 375.127898 123.595705 
" clip-path="url(#pe9d0d84dc9)" style="fill: none; stroke: #7e03a8; stroke-width: 1.5; stroke-linecap: round"/>
   </g>
   <g id="line2d_15">
    <path d="M 50.473352 285.043103 
L 96.852573 275.460042 
L 189.611015 207.374797 
L 375.127898 47.719725 
" clip-path="url(#pe9d0d84dc9)" style="fill: none; stroke: #aa2395; stroke-width: 1.5; stroke-linecap: round"/>
   </g>
   <g id="line2d_16">
    <path d="M 50.473352 286.075807 
L 96.852573 269.82039 
L 189.611015 203.084309 
L 375.127898 134.879807 
" clip-path="url(#pe9d0d84dc9)" style="fill: none; stroke: #cc4778; stroke-width: 1.5; stroke-linecap: round"/>
   </g>
   <g id="line2d_17">
    <path d="M 50.473352 287.04918 
L 96.852573 269.813752 
L 189.611015 216.84453 
L 375.127898 115.010006 
" clip-path="url(#pe9d0d84dc9)" style="fill: none; stroke: #e66c5c; stroke-width: 1.5; stroke-linecap: round"/>
   </g>
   <g id="line2d_18">
    <path d="M 50.473352 288.201972 
L 96.852573 269.257494 
L 189.611015 208.398589 
L 375.127898 90.910434 
" clip-path="url(#pe9d0d84dc9)" style="fill: none; stroke: #f89540; stroke-width: 1.5; stroke-linecap: round"/>
   </g>
   <g id="line2d_19">
    <path d="M 50.473352 287.521562 
L 96.852573 271.766991 
L 189.611015 213.843991 
L 375.127898 93.767632 
" clip-path="url(#pe9d0d84dc9)" style="fill: none; stroke: #fdc527; stroke-width: 1.5; stroke-linecap: round"/>
   </g>
   <g id="line2d_20"/>
   <g id="line2d_21"/>
   <g id="line2d_22"/>
   <g id="line2d_23"/>
   <g id="line2d_24"/>
   <g id="line2d_25"/>
   <g id="line2d_26"/>
   <g id="text_16">
    <path d="M 91.02107 277.469728 
L 92.553615 276.973316 
L 90.839528 271.681501 
L 89.280048 272.556182 
L 89.003194 271.701464 
L 90.553755 270.829672 
L 91.491714 270.525855 
L 93.482656 276.672388 
L 95.015201 276.175977 
L 95.27087 276.96529 
L 91.276738 278.25904 
L 91.02107 277.469728 
z
" clip-path="url(#pe9d0d84dc9)" style="fill: #4c02a1; stroke: #ffffff; stroke-width: 5"/>
    <path d="M 91.02107 277.469728 
L 92.553615 276.973316 
L 90.839528 271.681501 
L 89.280048 272.556182 
L 89.003194 271.701464 
L 90.553755 270.829672 
L 91.491714 270.525855 
L 93.482656 276.672388 
L 95.015201 276.175977 
L 95.27087 276.96529 
L 91.276738 278.25904 
L 91.02107 277.469728 
z
" clip-path="url(#pe9d0d84dc9)" style="fill: #4c02a1"/>
   </g>
   <g id="text_17">
    <path d="M 131.089349 247.806728 
L 130.933833 252.424969 
L 133.075699 251.153897 
L 131.089349 247.806728 
z
M 130.427718 247.200061 
L 131.49462 246.566917 
L 133.919545 250.653123 
L 134.814453 250.122048 
L 135.233093 250.827493 
L 134.338186 251.358568 
L 135.215338 252.836644 
L 134.371491 253.337417 
L 133.494339 251.859342 
L 130.664497 253.538689 
L 130.178874 252.720372 
L 130.427718 247.200061 
z
" clip-path="url(#pe9d0d84dc9)" style="fill: #7e03a8; stroke: #ffffff; stroke-width: 5"/>
    <path d="M 131.089349 247.806728 
L 130.933833 252.424969 
L 133.075699 251.153897 
L 131.089349 247.806728 
z
M 130.427718 247.200061 
L 131.49462 246.566917 
L 133.919545 250.653123 
L 134.814453 250.122048 
L 135.233093 250.827493 
L 134.338186 251.358568 
L 135.215338 252.836644 
L 134.371491 253.337417 
L 133.494339 251.859342 
L 130.664497 253.538689 
L 130.178874 252.720372 
L 130.427718 247.200061 
z
" clip-path="url(#pe9d0d84dc9)" style="fill: #7e03a8"/>
   </g>
   <g id="text_18">
    <path d="M 172.206055 219.277935 
Q 171.639234 219.693985 171.537074 220.236086 
Q 171.436174 220.777261 171.825412 221.307554 
Q 172.215575 221.839107 172.762111 221.90506 
Q 173.309907 221.970089 173.876729 221.554039 
Q 174.443551 221.137988 174.546045 220.593704 
Q 174.648875 220.047236 174.261486 219.519462 
Q 173.872248 218.989169 173.324452 218.92414 
Q 172.777915 218.858186 172.206055 219.277935 
z
M 171.163464 219.523756 
Q 170.55961 219.773166 170.016653 219.632871 
Q 169.474031 219.490391 169.104208 218.986549 
Q 168.587381 218.282431 168.788223 217.505086 
Q 168.990324 216.726817 169.863229 216.086099 
Q 170.741173 215.441683 171.541716 215.484006 
Q 172.34226 215.526328 172.859087 216.230446 
Q 173.22891 216.734288 173.200931 217.295592 
Q 173.173287 217.854711 172.758123 218.353268 
Q 173.430505 218.065188 174.037057 218.220828 
Q 174.643944 218.374283 175.056296 218.936067 
Q 175.68407 219.791338 175.498208 220.63134 
Q 175.311421 221.470083 174.339007 222.183841 
Q 173.367853 222.896674 172.510428 222.824388 
Q 171.653338 222.749919 171.025564 221.894648 
Q 170.613212 221.332864 170.649982 220.70696 
Q 170.687088 220.078872 171.163464 219.523756 
z
M 169.950713 218.481504 
Q 170.285402 218.937481 170.757758 218.98423 
Q 171.231373 219.030056 171.746551 218.651912 
Q 172.259209 218.275617 172.359974 217.808194 
Q 172.461998 217.339847 172.127308 216.88387 
Q 171.791694 216.426634 171.3143 216.383583 
Q 170.838166 216.339607 170.325507 216.715901 
Q 169.810329 217.094045 169.712084 217.559619 
Q 169.615099 218.024268 169.950713 218.481504 
z
" clip-path="url(#pe9d0d84dc9)" style="fill: #aa2395; stroke: #ffffff; stroke-width: 5"/>
    <path d="M 172.206055 219.277935 
Q 171.639234 219.693985 171.537074 220.236086 
Q 171.436174 220.777261 171.825412 221.307554 
Q 172.215575 221.839107 172.762111 221.90506 
Q 173.309907 221.970089 173.876729 221.554039 
Q 174.443551 221.137988 174.546045 220.593704 
Q 174.648875 220.047236 174.261486 219.519462 
Q 173.872248 218.989169 173.324452 218.92414 
Q 172.777915 218.858186 172.206055 219.277935 
z
M 171.163464 219.523756 
Q 170.55961 219.773166 170.016653 219.632871 
Q 169.474031 219.490391 169.104208 218.986549 
Q 168.587381 218.282431 168.788223 217.505086 
Q 168.990324 216.726817 169.863229 216.086099 
Q 170.741173 215.441683 171.541716 215.484006 
Q 172.34226 215.526328 172.859087 216.230446 
Q 173.22891 216.734288 173.200931 217.295592 
Q 173.173287 217.854711 172.758123 218.353268 
Q 173.430505 218.065188 174.037057 218.220828 
Q 174.643944 218.374283 175.056296 218.936067 
Q 175.68407 219.791338 175.498208 220.63134 
Q 175.311421 221.470083 174.339007 222.183841 
Q 173.367853 222.896674 172.510428 222.824388 
Q 171.653338 222.749919 171.025564 221.894648 
Q 170.613212 221.332864 170.649982 220.70696 
Q 170.687088 220.078872 171.163464 219.523756 
z
M 169.950713 218.481504 
Q 170.285402 218.937481 170.757758 218.98423 
Q 171.231373 219.030056 171.746551 218.651912 
Q 172.259209 218.275617 172.359974 217.808194 
Q 172.461998 217.339847 172.127308 216.88387 
Q 171.791694 216.426634 171.3143 216.383583 
Q 170.838166 216.339607 170.325507 216.715901 
Q 169.810329 217.094045 169.712084 217.559619 
Q 169.615099 218.024268 169.950713 218.481504 
z
" clip-path="url(#pe9d0d84dc9)" style="fill: #aa2395"/>
   </g>
   <g id="text_19">
    <path d="M 208.659208 198.137288 
L 210.1712 197.581411 
L 208.251778 192.360565 
L 206.727644 193.295476 
L 206.417625 192.452221 
L 207.93296 191.520546 
L 208.85834 191.180334 
L 211.087781 197.244433 
L 212.599773 196.688556 
L 212.886069 197.467283 
L 208.945504 198.916015 
L 208.659208 198.137288 
z
M 215.458183 192.21994 
Q 214.834908 192.449085 214.626639 193.010096 
Q 214.419297 193.569102 214.692113 194.311166 
Q 214.963313 195.048831 215.484987 195.344811 
Q 216.007588 195.638786 216.630863 195.409642 
Q 217.254139 195.180497 217.460402 194.618558 
Q 217.666127 194.055153 217.394927 193.317488 
Q 217.122111 192.575424 216.602054 192.283843 
Q 216.081458 191.990796 215.458183 192.21994 
z
M 216.22874 188.642106 
L 216.538759 189.485361 
Q 216.129339 189.44943 215.742628 189.493383 
Q 215.355378 189.535868 215.006344 189.664189 
Q 214.089763 190.001166 213.833335 190.797966 
Q 213.578374 191.594226 213.969353 192.870517 
Q 214.092542 192.372414 214.422059 192.00988 
Q 214.753042 191.646807 215.242863 191.466726 
Q 216.273833 191.087694 217.1024 191.493924 
Q 217.930428 191.898687 218.326174 192.975119 
Q 218.713832 194.029554 218.325093 194.896639 
Q 217.935815 195.762257 216.900445 196.142907 
Q 215.712556 196.579629 214.7506 195.901143 
Q 213.788105 195.22119 213.152971 193.493618 
Q 212.556656 191.871636 212.971814 190.623599 
Q 213.386973 189.375562 214.683385 188.898941 
Q 215.032419 188.77062 215.41266 188.70907 
Q 215.792901 188.647519 216.22874 188.642106 
z
" clip-path="url(#pe9d0d84dc9)" style="fill: #cc4778; stroke: #ffffff; stroke-width: 5"/>
    <path d="M 208.659208 198.137288 
L 210.1712 197.581411 
L 208.251778 192.360565 
L 206.727644 193.295476 
L 206.417625 192.452221 
L 207.93296 191.520546 
L 208.85834 191.180334 
L 211.087781 197.244433 
L 212.599773 196.688556 
L 212.886069 197.467283 
L 208.945504 198.916015 
L 208.659208 198.137288 
z
M 215.458183 192.21994 
Q 214.834908 192.449085 214.626639 193.010096 
Q 214.419297 193.569102 214.692113 194.311166 
Q 214.963313 195.048831 215.484987 195.344811 
Q 216.007588 195.638786 216.630863 195.409642 
Q 217.254139 195.180497 217.460402 194.618558 
Q 217.666127 194.055153 217.394927 193.317488 
Q 217.122111 192.575424 216.602054 192.283843 
Q 216.081458 191.990796 215.458183 192.21994 
z
M 216.22874 188.642106 
L 216.538759 189.485361 
Q 216.129339 189.44943 215.742628 189.493383 
Q 215.355378 189.535868 215.006344 189.664189 
Q 214.089763 190.001166 213.833335 190.797966 
Q 213.578374 191.594226 213.969353 192.870517 
Q 214.092542 192.372414 214.422059 192.00988 
Q 214.753042 191.646807 215.242863 191.466726 
Q 216.273833 191.087694 217.1024 191.493924 
Q 217.930428 191.898687 218.326174 192.975119 
Q 218.713832 194.029554 218.325093 194.896639 
Q 217.935815 195.762257 216.900445 196.142907 
Q 215.712556 196.579629 214.7506 195.901143 
Q 213.788105 195.22119 213.152971 193.493618 
Q 212.556656 191.871636 212.971814 190.623599 
Q 213.386973 189.375562 214.683385 188.898941 
Q 215.032419 188.77062 215.41266 188.70907 
Q 215.792901 188.647519 216.22874 188.642106 
z
" clip-path="url(#pe9d0d84dc9)" style="fill: #cc4778"/>
   </g>
   <g id="text_20">
    <path d="M 250.392404 182.143395 
Q 251.085814 181.935661 251.664543 182.165189 
Q 252.243889 182.392594 252.582229 183.008963 
Q 253.101016 183.954063 252.735361 184.830319 
Q 252.368954 185.705205 251.170458 186.363088 
Q 250.769133 186.583384 250.299545 186.737771 
Q 249.829957 186.892158 249.289367 186.982139 
L 248.831481 186.147986 
Q 249.30538 186.160563 249.791375 186.032818 
Q 250.27874 185.904322 250.745811 185.647936 
Q 251.558049 185.20208 251.808092 184.647737 
Q 252.058135 184.093395 251.722051 183.481135 
Q 251.411531 182.915445 250.841252 182.814961 
Q 250.270221 182.713108 249.564821 183.100319 
L 248.819698 183.509333 
L 248.42948 182.798454 
L 249.208845 182.370643 
Q 249.84576 182.021025 250.044231 181.580549 
Q 250.242703 181.140072 249.97955 180.660673 
Q 249.70963 180.168948 249.215996 180.097689 
Q 248.72298 180.024309 248.072368 180.381445 
Q 247.716243 180.57693 247.352296 180.878307 
Q 246.987596 181.178315 246.5887 181.607605 
L 246.166151 180.837828 
Q 246.58406 180.430186 246.976556 180.125615 
Q 247.369052 179.821043 247.749831 179.612025 
Q 248.734652 179.071433 249.553051 179.205049 
Q 250.372067 179.336542 250.790104 180.098101 
Q 251.081828 180.629548 250.978501 181.162175 
Q 250.875173 181.694802 250.392404 182.143395 
z
M 255.587011 182.83007 
L 258.604482 181.173711 
L 259.003722 181.901026 
L 254.946642 184.128052 
L 254.547401 183.400736 
Q 254.759433 182.621284 255.137986 181.297689 
Q 255.517156 179.971973 255.5981 179.603139 
Q 255.757488 178.909623 255.744413 178.496147 
Q 255.732707 178.08192 255.561282 177.769626 
Q 255.281588 177.260094 254.748157 177.135819 
Q 254.213975 177.010174 253.640066 177.325206 
Q 253.233263 177.54851 252.8587 177.937706 
Q 252.485508 178.32615 252.129759 178.895738 
L 251.650069 178.021863 
Q 252.056893 177.525837 252.451621 177.170132 
Q 252.847719 176.813675 253.224389 176.606912 
Q 254.217429 176.06181 255.080701 176.234961 
Q 255.943221 176.406742 256.398851 177.236786 
Q 256.615389 177.631262 256.661441 178.065849 
Q 256.708112 178.498314 256.580897 179.191994 
Q 256.54248 179.375283 256.294129 180.283399 
Q 256.047148 181.190763 255.587011 182.83007 
z
" clip-path="url(#pe9d0d84dc9)" style="fill: #e66c5c; stroke: #ffffff; stroke-width: 5"/>
    <path d="M 250.392404 182.143395 
Q 251.085814 181.935661 251.664543 182.165189 
Q 252.243889 182.392594 252.582229 183.008963 
Q 253.101016 183.954063 252.735361 184.830319 
Q 252.368954 185.705205 251.170458 186.363088 
Q 250.769133 186.583384 250.299545 186.737771 
Q 249.829957 186.892158 249.289367 186.982139 
L 248.831481 186.147986 
Q 249.30538 186.160563 249.791375 186.032818 
Q 250.27874 185.904322 250.745811 185.647936 
Q 251.558049 185.20208 251.808092 184.647737 
Q 252.058135 184.093395 251.722051 183.481135 
Q 251.411531 182.915445 250.841252 182.814961 
Q 250.270221 182.713108 249.564821 183.100319 
L 248.819698 183.509333 
L 248.42948 182.798454 
L 249.208845 182.370643 
Q 249.84576 182.021025 250.044231 181.580549 
Q 250.242703 181.140072 249.97955 180.660673 
Q 249.70963 180.168948 249.215996 180.097689 
Q 248.72298 180.024309 248.072368 180.381445 
Q 247.716243 180.57693 247.352296 180.878307 
Q 246.987596 181.178315 246.5887 181.607605 
L 246.166151 180.837828 
Q 246.58406 180.430186 246.976556 180.125615 
Q 247.369052 179.821043 247.749831 179.612025 
Q 248.734652 179.071433 249.553051 179.205049 
Q 250.372067 179.336542 250.790104 180.098101 
Q 251.081828 180.629548 250.978501 181.162175 
Q 250.875173 181.694802 250.392404 182.143395 
z
M 255.587011 182.83007 
L 258.604482 181.173711 
L 259.003722 181.901026 
L 254.946642 184.128052 
L 254.547401 183.400736 
Q 254.759433 182.621284 255.137986 181.297689 
Q 255.517156 179.971973 255.5981 179.603139 
Q 255.757488 178.909623 255.744413 178.496147 
Q 255.732707 178.08192 255.561282 177.769626 
Q 255.281588 177.260094 254.748157 177.135819 
Q 254.213975 177.010174 253.640066 177.325206 
Q 253.233263 177.54851 252.8587 177.937706 
Q 252.485508 178.32615 252.129759 178.895738 
L 251.650069 178.021863 
Q 252.056893 177.525837 252.451621 177.170132 
Q 252.847719 176.813675 253.224389 176.606912 
Q 254.217429 176.06181 255.080701 176.234961 
Q 255.943221 176.406742 256.398851 177.236786 
Q 256.615389 177.631262 256.661441 178.065849 
Q 256.708112 178.498314 256.580897 179.191994 
Q 256.54248 179.375283 256.294129 180.283399 
Q 256.047148 181.190763 255.587011 182.83007 
z
" clip-path="url(#pe9d0d84dc9)" style="fill: #e66c5c"/>
   </g>
   <g id="text_21">
    <path d="M 289.882811 143.383415 
Q 289.32179 143.738711 289.236371 144.331006 
Q 289.151435 144.921146 289.574446 145.58909 
Q 289.994948 146.253075 290.567265 146.432524 
Q 291.140066 146.609817 291.701087 146.254521 
Q 292.262107 145.899226 292.345371 145.306446 
Q 292.427798 144.712347 292.007296 144.048362 
Q 291.584285 143.380418 291.014476 143.204929 
Q 290.443831 143.02812 289.882811 143.383415 
z
M 289.882409 139.723545 
L 290.363103 140.482573 
Q 289.955301 140.533693 289.586525 140.658119 
Q 289.216914 140.781226 288.902743 140.980191 
Q 288.077712 141.502684 287.994884 142.335621 
Q 287.913375 143.167722 288.564431 144.333015 
Q 288.579931 143.82014 288.825686 143.396328 
Q 289.072762 142.97168 289.513658 142.69246 
Q 290.441652 142.104759 291.337199 142.327336 
Q 292.23191 142.548594 292.845526 143.517509 
Q 293.446603 144.466624 293.249237 145.396141 
Q 293.051036 146.324337 292.119081 146.914546 
Q 291.049842 147.591697 289.966548 147.13107 
Q 288.882418 146.669123 287.897623 145.114106 
Q 286.973019 143.654132 287.115964 142.346646 
Q 287.258908 141.039159 288.425831 140.300145 
Q 288.740003 140.10118 289.098746 139.960912 
Q 289.457489 139.820645 289.882409 139.723545 
z
M 294.381083 137.701245 
L 294.359375 142.322053 
L 296.463532 140.989487 
L 294.381083 137.701245 
z
M 293.702161 137.113993 
L 294.75028 136.450217 
L 297.292523 140.464485 
L 298.171675 139.907717 
L 298.610569 140.600742 
L 297.731417 141.157511 
L 298.651005 142.609565 
L 297.822014 143.134566 
L 296.902426 141.682512 
L 294.122404 143.443105 
L 293.613287 142.639195 
L 293.702161 137.113993 
z
" clip-path="url(#pe9d0d84dc9)" style="fill: #f89540; stroke: #ffffff; stroke-width: 5"/>
    <path d="M 289.882811 143.383415 
Q 289.32179 143.738711 289.236371 144.331006 
Q 289.151435 144.921146 289.574446 145.58909 
Q 289.994948 146.253075 290.567265 146.432524 
Q 291.140066 146.609817 291.701087 146.254521 
Q 292.262107 145.899226 292.345371 145.306446 
Q 292.427798 144.712347 292.007296 144.048362 
Q 291.584285 143.380418 291.014476 143.204929 
Q 290.443831 143.02812 289.882811 143.383415 
z
M 289.882409 139.723545 
L 290.363103 140.482573 
Q 289.955301 140.533693 289.586525 140.658119 
Q 289.216914 140.781226 288.902743 140.980191 
Q 288.077712 141.502684 287.994884 142.335621 
Q 287.913375 143.167722 288.564431 144.333015 
Q 288.579931 143.82014 288.825686 143.396328 
Q 289.072762 142.97168 289.513658 142.69246 
Q 290.441652 142.104759 291.337199 142.327336 
Q 292.23191 142.548594 292.845526 143.517509 
Q 293.446603 144.466624 293.249237 145.396141 
Q 293.051036 146.324337 292.119081 146.914546 
Q 291.049842 147.591697 289.966548 147.13107 
Q 288.882418 146.669123 287.897623 145.114106 
Q 286.973019 143.654132 287.115964 142.346646 
Q 287.258908 141.039159 288.425831 140.300145 
Q 288.740003 140.10118 289.098746 139.960912 
Q 289.457489 139.820645 289.882409 139.723545 
z
M 294.381083 137.701245 
L 294.359375 142.322053 
L 296.463532 140.989487 
L 294.381083 137.701245 
z
M 293.702161 137.113993 
L 294.75028 136.450217 
L 297.292523 140.464485 
L 298.171675 139.907717 
L 298.610569 140.600742 
L 297.731417 141.157511 
L 298.651005 142.609565 
L 297.822014 143.134566 
L 296.902426 141.682512 
L 294.122404 143.443105 
L 293.613287 142.639195 
L 293.702161 137.113993 
z
" clip-path="url(#pe9d0d84dc9)" style="fill: #f89540"/>
   </g>
   <g id="text_22">
    <path d="M 327.406713 126.953938 
L 328.759089 126.078609 
L 325.736614 121.408914 
L 324.4559 122.656638 
L 323.96772 121.902404 
L 325.240563 120.659774 
L 326.068254 120.124049 
L 329.578909 125.547978 
L 330.931284 124.672649 
L 331.382108 125.369169 
L 327.857537 127.650458 
L 327.406713 126.953938 
z
M 333.317125 123.128407 
L 336.206826 121.258039 
L 336.657651 121.954558 
L 332.772359 124.469325 
L 332.321535 123.772805 
Q 332.476608 122.980054 332.75839 121.632536 
Q 333.040634 120.282858 333.094676 119.909133 
Q 333.203462 119.205901 333.160501 118.794456 
Q 333.118852 118.382162 332.925278 118.083092 
Q 332.609446 117.595135 332.068421 117.509786 
Q 331.526547 117.423125 330.976939 117.77886 
Q 330.587361 118.031016 330.241944 118.446295 
Q 329.897839 118.860726 329.584238 119.454564 
L 329.04257 118.617691 
Q 329.412434 118.093527 329.780388 117.710191 
Q 330.149654 117.326006 330.510375 117.092529 
Q 331.461366 116.476997 332.334904 116.587225 
Q 333.207594 116.696142 333.722094 117.491039 
Q 333.966609 117.868812 334.043988 118.298927 
Q 334.12183 118.726881 334.045146 119.427948 
Q 334.020092 119.613537 333.838106 120.537243 
Q 333.657431 121.460101 333.317125 123.128407 
z
M 338.284911 116.776809 
Q 337.694641 117.158863 337.56083 117.694031 
Q 337.428332 118.228349 337.785765 118.78058 
Q 338.144047 119.334122 338.685768 119.432049 
Q 339.228801 119.529127 339.819072 119.147073 
Q 340.409342 118.765019 340.543615 118.227691 
Q 340.678351 117.688202 340.322616 117.138595 
Q 339.965183 116.586364 339.42215 116.489286 
Q 338.880429 116.391359 338.284911 116.776809 
z
M 337.229686 116.960995 
Q 336.61223 117.174522 336.078447 117.002591 
Q 335.545126 116.8285 335.205522 116.303815 
Q 334.730926 115.570568 334.977059 114.806355 
Q 335.224504 114.041294 336.133521 113.45293 
Q 337.047784 112.861171 337.844462 112.95042 
Q 338.64114 113.03967 339.115736 113.772917 
Q 339.45534 114.297602 339.394455 114.856295 
Q 339.334033 115.412827 338.890314 115.886149 
Q 339.57845 115.638042 340.174818 115.829025 
Q 340.771648 116.017846 341.150307 116.60287 
Q 341.726784 117.493522 341.491926 118.321164 
Q 341.256218 119.147494 340.243577 119.802929 
Q 339.232247 120.457516 338.380544 120.335015 
Q 337.529305 120.210353 336.952828 119.319701 
Q 336.574169 118.734677 336.647624 118.112011 
Q 336.721541 117.487185 337.229686 116.960995 
z
M 336.080218 115.849339 
Q 336.38756 116.324179 336.856356 116.398581 
Q 337.326463 116.472133 337.862954 116.124888 
Q 338.39682 115.779341 338.524854 115.31864 
Q 338.654198 114.857091 338.346857 114.382251 
Q 338.038666 113.906099 337.564624 113.835094 
Q 337.091893 113.76324 336.558026 114.108787 
Q 336.021535 114.456031 335.896126 114.915034 
Q 335.772028 115.373188 336.080218 115.849339 
z
" clip-path="url(#pe9d0d84dc9)" style="fill: #fdc527; stroke: #ffffff; stroke-width: 5"/>
    <path d="M 327.406713 126.953938 
L 328.759089 126.078609 
L 325.736614 121.408914 
L 324.4559 122.656638 
L 323.96772 121.902404 
L 325.240563 120.659774 
L 326.068254 120.124049 
L 329.578909 125.547978 
L 330.931284 124.672649 
L 331.382108 125.369169 
L 327.857537 127.650458 
L 327.406713 126.953938 
z
M 333.317125 123.128407 
L 336.206826 121.258039 
L 336.657651 121.954558 
L 332.772359 124.469325 
L 332.321535 123.772805 
Q 332.476608 122.980054 332.75839 121.632536 
Q 333.040634 120.282858 333.094676 119.909133 
Q 333.203462 119.205901 333.160501 118.794456 
Q 333.118852 118.382162 332.925278 118.083092 
Q 332.609446 117.595135 332.068421 117.509786 
Q 331.526547 117.423125 330.976939 117.77886 
Q 330.587361 118.031016 330.241944 118.446295 
Q 329.897839 118.860726 329.584238 119.454564 
L 329.04257 118.617691 
Q 329.412434 118.093527 329.780388 117.710191 
Q 330.149654 117.326006 330.510375 117.092529 
Q 331.461366 116.476997 332.334904 116.587225 
Q 333.207594 116.696142 333.722094 117.491039 
Q 333.966609 117.868812 334.043988 118.298927 
Q 334.12183 118.726881 334.045146 119.427948 
Q 334.020092 119.613537 333.838106 120.537243 
Q 333.657431 121.460101 333.317125 123.128407 
z
M 338.284911 116.776809 
Q 337.694641 117.158863 337.56083 117.694031 
Q 337.428332 118.228349 337.785765 118.78058 
Q 338.144047 119.334122 338.685768 119.432049 
Q 339.228801 119.529127 339.819072 119.147073 
Q 340.409342 118.765019 340.543615 118.227691 
Q 340.678351 117.688202 340.322616 117.138595 
Q 339.965183 116.586364 339.42215 116.489286 
Q 338.880429 116.391359 338.284911 116.776809 
z
M 337.229686 116.960995 
Q 336.61223 117.174522 336.078447 117.002591 
Q 335.545126 116.8285 335.205522 116.303815 
Q 334.730926 115.570568 334.977059 114.806355 
Q 335.224504 114.041294 336.133521 113.45293 
Q 337.047784 112.861171 337.844462 112.95042 
Q 338.64114 113.03967 339.115736 113.772917 
Q 339.45534 114.297602 339.394455 114.856295 
Q 339.334033 115.412827 338.890314 115.886149 
Q 339.57845 115.638042 340.174818 115.829025 
Q 340.771648 116.017846 341.150307 116.60287 
Q 341.726784 117.493522 341.491926 118.321164 
Q 341.256218 119.147494 340.243577 119.802929 
Q 339.232247 120.457516 338.380544 120.335015 
Q 337.529305 120.210353 336.952828 119.319701 
Q 336.574169 118.734677 336.647624 118.112011 
Q 336.721541 117.487185 337.229686 116.960995 
z
M 336.080218 115.849339 
Q 336.38756 116.324179 336.856356 116.398581 
Q 337.326463 116.472133 337.862954 116.124888 
Q 338.39682 115.779341 338.524854 115.31864 
Q 338.654198 114.857091 338.346857 114.382251 
Q 338.038666 113.906099 337.564624 113.835094 
Q 337.091893 113.76324 336.558026 114.108787 
Q 336.021535 114.456031 335.896126 114.915034 
Q 335.772028 115.373188 336.080218 115.849339 
z
" clip-path="url(#pe9d0d84dc9)" style="fill: #fdc527"/>
   </g>
   <g id="patch_3">
    <path d="M 34.240625 301.735725 
L 34.240625 35.623725 
" style="fill: none; stroke: #cccccc; stroke-width: 0.8; stroke-linejoin: miter; stroke-linecap: square"/>
   </g>
   <g id="patch_4">
    <path d="M 391.360625 301.735725 
L 391.360625 35.623725 
" style="fill: none; stroke: #cccccc; stroke-width: 0.8; stroke-linejoin: miter; stroke-linecap: square"/>
   </g>
   <g id="patch_5">
    <path d="M 34.240625 301.735725 
L 391.360625 301.735725 
" style="fill: none; stroke: #cccccc; stroke-width: 0.8; stroke-linejoin: miter; stroke-linecap: square"/>
   </g>
   <g id="patch_6">
    <path d="M 34.240625 35.623725 
L 391.360625 35.623725 
" style="fill: none; stroke: #cccccc; stroke-width: 0.8; stroke-linejoin: miter; stroke-linecap: square"/>
   </g>
   <g id="text_23">
    <!-- Block Size = 1M, Read-Write Type = Sequential Read-only -->
    <g style="fill: #262626; opacity: 0.75" transform="translate(68.306094 30.882918) scale(0.1 -0.1)">
     <defs>
      <path id="DejaVuSans-42" d="M 1259 2228 
L 1259 519 
L 2272 519 
Q 2781 519 3026 730 
Q 3272 941 3272 1375 
Q 3272 1813 3026 2020 
Q 2781 2228 2272 2228 
L 1259 2228 
z
M 1259 4147 
L 1259 2741 
L 2194 2741 
Q 2656 2741 2882 2914 
Q 3109 3088 3109 3444 
Q 3109 3797 2882 3972 
Q 2656 4147 2194 4147 
L 1259 4147 
z
M 628 4666 
L 2241 4666 
Q 2963 4666 3353 4366 
Q 3744 4066 3744 3513 
Q 3744 3084 3544 2831 
Q 3344 2578 2956 2516 
Q 3422 2416 3680 2098 
Q 3938 1781 3938 1306 
Q 3938 681 3513 340 
Q 3088 0 2303 0 
L 628 0 
L 628 4666 
z
" transform="scale(0.015625)"/>
      <path id="DejaVuSans-6c" d="M 603 4863 
L 1178 4863 
L 1178 0 
L 603 0 
L 603 4863 
z
" transform="scale(0.015625)"/>
      <path id="DejaVuSans-6b" d="M 581 4863 
L 1159 4863 
L 1159 1991 
L 2875 3500 
L 3609 3500 
L 1753 1863 
L 3688 0 
L 2938 0 
L 1159 1709 
L 1159 0 
L 581 0 
L 581 4863 
z
" transform="scale(0.015625)"/>
      <path id="DejaVuSans-53" d="M 3425 4513 
L 3425 3897 
Q 3066 4069 2747 4153 
Q 2428 4238 2131 4238 
Q 1616 4238 1336 4038 
Q 1056 3838 1056 3469 
Q 1056 3159 1242 3001 
Q 1428 2844 1947 2747 
L 2328 2669 
Q 3034 2534 3370 2195 
Q 3706 1856 3706 1288 
Q 3706 609 3251 259 
Q 2797 -91 1919 -91 
Q 1588 -91 1214 -16 
Q 841 59 441 206 
L 441 856 
Q 825 641 1194 531 
Q 1563 422 1919 422 
Q 2459 422 2753 634 
Q 3047 847 3047 1241 
Q 3047 1584 2836 1778 
Q 2625 1972 2144 2069 
L 1759 2144 
Q 1053 2284 737 2584 
Q 422 2884 422 3419 
Q 422 4038 858 4394 
Q 1294 4750 2059 4750 
Q 2388 4750 2728 4690 
Q 3069 4631 3425 4513 
z
" transform="scale(0.015625)"/>
      <path id="DejaVuSans-69" d="M 603 3500 
L 1178 3500 
L 1178 0 
L 603 0 
L 603 3500 
z
M 603 4863 
L 1178 4863 
L 1178 4134 
L 603 4134 
L 603 4863 
z
" transform="scale(0.015625)"/>
      <path id="DejaVuSans-7a" d="M 353 3500 
L 3084 3500 
L 3084 2975 
L 922 459 
L 3084 459 
L 3084 0 
L 275 0 
L 275 525 
L 2438 3041 
L 353 3041 
L 353 3500 
z
" transform="scale(0.015625)"/>
      <path id="DejaVuSans-3d" d="M 678 2906 
L 4684 2906 
L 4684 2381 
L 678 2381 
L 678 2906 
z
M 678 1631 
L 4684 1631 
L 4684 1100 
L 678 1100 
L 678 1631 
z
" transform="scale(0.015625)"/>
      <path id="DejaVuSans-2c" d="M 750 794 
L 1409 794 
L 1409 256 
L 897 -744 
L 494 -744 
L 750 256 
L 750 794 
z
" transform="scale(0.015625)"/>
      <path id="DejaVuSans-52" d="M 2841 2188 
Q 3044 2119 3236 1894 
Q 3428 1669 3622 1275 
L 4263 0 
L 3584 0 
L 2988 1197 
Q 2756 1666 2539 1819 
Q 2322 1972 1947 1972 
L 1259 1972 
L 1259 0 
L 628 0 
L 628 4666 
L 2053 4666 
Q 2853 4666 3247 4331 
Q 3641 3997 3641 3322 
Q 3641 2881 3436 2590 
Q 3231 2300 2841 2188 
z
M 1259 4147 
L 1259 2491 
L 2053 2491 
Q 2509 2491 2742 2702 
Q 2975 2913 2975 3322 
Q 2975 3731 2742 3939 
Q 2509 4147 2053 4147 
L 1259 4147 
z
" transform="scale(0.015625)"/>
      <path id="DejaVuSans-64" d="M 2906 2969 
L 2906 4863 
L 3481 4863 
L 3481 0 
L 2906 0 
L 2906 525 
Q 2725 213 2448 61 
Q 2172 -91 1784 -91 
Q 1150 -91 751 415 
Q 353 922 353 1747 
Q 353 2572 751 3078 
Q 1150 3584 1784 3584 
Q 2172 3584 2448 3432 
Q 2725 3281 2906 2969 
z
M 947 1747 
Q 947 1113 1208 752 
Q 1469 391 1925 391 
Q 2381 391 2643 752 
Q 2906 1113 2906 1747 
Q 2906 2381 2643 2742 
Q 2381 3103 1925 3103 
Q 1469 3103 1208 2742 
Q 947 2381 947 1747 
z
" transform="scale(0.015625)"/>
      <path id="DejaVuSans-2d" d="M 313 2009 
L 1997 2009 
L 1997 1497 
L 313 1497 
L 313 2009 
z
" transform="scale(0.015625)"/>
      <path id="DejaVuSans-57" d="M 213 4666 
L 850 4666 
L 1831 722 
L 2809 4666 
L 3519 4666 
L 4500 722 
L 5478 4666 
L 6119 4666 
L 4947 0 
L 4153 0 
L 3169 4050 
L 2175 0 
L 1381 0 
L 213 4666 
z
" transform="scale(0.015625)"/>
      <path id="DejaVuSans-54" d="M -19 4666 
L 3928 4666 
L 3928 4134 
L 2272 4134 
L 2272 0 
L 1638 0 
L 1638 4134 
L -19 4134 
L -19 4666 
z
" transform="scale(0.015625)"/>
      <path id="DejaVuSans-70" d="M 1159 525 
L 1159 -1331 
L 581 -1331 
L 581 3500 
L 1159 3500 
L 1159 2969 
Q 1341 3281 1617 3432 
Q 1894 3584 2278 3584 
Q 2916 3584 3314 3078 
Q 3713 2572 3713 1747 
Q 3713 922 3314 415 
Q 2916 -91 2278 -91 
Q 1894 -91 1617 61 
Q 1341 213 1159 525 
z
M 3116 1747 
Q 3116 2381 2855 2742 
Q 2594 3103 2138 3103 
Q 1681 3103 1420 2742 
Q 1159 2381 1159 1747 
Q 1159 1113 1420 752 
Q 1681 391 2138 391 
Q 2594 391 2855 752 
Q 3116 1113 3116 1747 
z
" transform="scale(0.015625)"/>
      <path id="DejaVuSans-71" d="M 947 1747 
Q 947 1113 1208 752 
Q 1469 391 1925 391 
Q 2381 391 2643 752 
Q 2906 1113 2906 1747 
Q 2906 2381 2643 2742 
Q 2381 3103 1925 3103 
Q 1469 3103 1208 2742 
Q 947 2381 947 1747 
z
M 2906 525 
Q 2725 213 2448 61 
Q 2172 -91 1784 -91 
Q 1150 -91 751 415 
Q 353 922 353 1747 
Q 353 2572 751 3078 
Q 1150 3584 1784 3584 
Q 2172 3584 2448 3432 
Q 2725 3281 2906 2969 
L 2906 3500 
L 3481 3500 
L 3481 -1331 
L 2906 -1331 
L 2906 525 
z
" transform="scale(0.015625)"/>
     </defs>
     <use xlink:href="#DejaVuSans-42"/>
     <use xlink:href="#DejaVuSans-6c" transform="translate(68.603516 0)"/>
     <use xlink:href="#DejaVuSans-6f" transform="translate(96.386719 0)"/>
     <use xlink:href="#DejaVuSans-63" transform="translate(157.568359 0)"/>
     <use xlink:href="#DejaVuSans-6b" transform="translate(212.548828 0)"/>
     <use xlink:href="#DejaVuSans-20" transform="translate(270.458984 0)"/>
     <use xlink:href="#DejaVuSans-53" transform="translate(302.246094 0)"/>
     <use xlink:href="#DejaVuSans-69" transform="translate(365.722656 0)"/>
     <use xlink:href="#DejaVuSans-7a" transform="translate(393.505859 0)"/>
     <use xlink:href="#DejaVuSans-65" transform="translate(445.996094 0)"/>
     <use xlink:href="#DejaVuSans-20" transform="translate(507.519531 0)"/>
     <use xlink:href="#DejaVuSans-3d" transform="translate(539.306641 0)"/>
     <use xlink:href="#DejaVuSans-20" transform="translate(623.095703 0)"/>
     <use xlink:href="#DejaVuSans-31" transform="translate(654.882812 0)"/>
     <use xlink:href="#DejaVuSans-4d" transform="translate(718.505859 0)"/>
     <use xlink:href="#DejaVuSans-2c" transform="translate(804.785156 0)"/>
     <use xlink:href="#DejaVuSans-20" transform="translate(836.572266 0)"/>
     <use xlink:href="#DejaVuSans-52" transform="translate(868.359375 0)"/>
     <use xlink:href="#DejaVuSans-65" transform="translate(933.341797 0)"/>
     <use xlink:href="#DejaVuSans-61" transform="translate(994.865234 0)"/>
     <use xlink:href="#DejaVuSans-64" transform="translate(1056.144531 0)"/>
     <use xlink:href="#DejaVuSans-2d" transform="translate(1119.621094 0)"/>
     <use xlink:href="#DejaVuSans-57" transform="translate(1151.705078 0)"/>
     <use xlink:href="#DejaVuSans-72" transform="translate(1246.082031 0)"/>
     <use xlink:href="#DejaVuSans-69" transform="translate(1287.195312 0)"/>
     <use xlink:href="#DejaVuSans-74" transform="translate(1314.978516 0)"/>
     <use xlink:href="#DejaVuSans-65" transform="translate(1354.1875 0)"/>
     <use xlink:href="#DejaVuSans-20" transform="translate(1415.710938 0)"/>
     <use xlink:href="#DejaVuSans-54" transform="translate(1447.498047 0)"/>
     <use xlink:href="#DejaVuSans-79" transform="translate(1492.957031 0)"/>
     <use xlink:href="#DejaVuSans-70" transform="translate(1552.136719 0)"/>
     <use xlink:href="#DejaVuSans-65" transform="translate(1615.613281 0)"/>
     <use xlink:href="#DejaVuSans-20" transform="translate(1677.136719 0)"/>
     <use xlink:href="#DejaVuSans-3d" transform="translate(1708.923828 0)"/>
     <use xlink:href="#DejaVuSans-20" transform="translate(1792.712891 0)"/>
     <use xlink:href="#DejaVuSans-53" transform="translate(1824.5 0)"/>
     <use xlink:href="#DejaVuSans-65" transform="translate(1887.976562 0)"/>
     <use xlink:href="#DejaVuSans-71" transform="translate(1949.5 0)"/>
     <use xlink:href="#DejaVuSans-75" transform="translate(2012.976562 0)"/>
     <use xlink:href="#DejaVuSans-65" transform="translate(2076.355469 0)"/>
     <use xlink:href="#DejaVuSans-6e" transform="translate(2137.878906 0)"/>
     <use xlink:href="#DejaVuSans-74" transform="translate(2201.257812 0)"/>
     <use xlink:href="#DejaVuSans-69" transform="translate(2240.466797 0)"/>
     <use xlink:href="#DejaVuSans-61" transform="translate(2268.25 0)"/>
     <use xlink:href="#DejaVuSans-6c" transform="translate(2329.529297 0)"/>
     <use xlink:href="#DejaVuSans-20" transform="translate(2357.3125 0)"/>
     <use xlink:href="#DejaVuSans-52" transform="translate(2389.099609 0)"/>
     <use xlink:href="#DejaVuSans-65" transform="translate(2454.082031 0)"/>
     <use xlink:href="#DejaVuSans-61" transform="translate(2515.605469 0)"/>
     <use xlink:href="#DejaVuSans-64" transform="translate(2576.884766 0)"/>
     <use xlink:href="#DejaVuSans-2d" transform="translate(2640.361328 0)"/>
     <use xlink:href="#DejaVuSans-6f" transform="translate(2678.320312 0)"/>
     <use xlink:href="#DejaVuSans-6e" transform="translate(2739.501953 0)"/>
     <use xlink:href="#DejaVuSans-6c" transform="translate(2802.880859 0)"/>
     <use xlink:href="#DejaVuSans-79" transform="translate(2830.664062 0)"/>
    </g>
   </g>
   <g id="text_24">
    <!-- Mean Latency vs Number of Jobs -->
    <g style="fill: #262626" transform="translate(102.144688 16.318125) scale(0.12 -0.12)">
     <defs>
      <path id="DejaVuSans-Bold-4d" d="M 588 4666 
L 2119 4666 
L 3181 2169 
L 4250 4666 
L 5778 4666 
L 5778 0 
L 4641 0 
L 4641 3413 
L 3566 897 
L 2803 897 
L 1728 3413 
L 1728 0 
L 588 0 
L 588 4666 
z
" transform="scale(0.015625)"/>
      <path id="DejaVuSans-Bold-65" d="M 4031 1759 
L 4031 1441 
L 1416 1441 
Q 1456 1047 1700 850 
Q 1944 653 2381 653 
Q 2734 653 3104 758 
Q 3475 863 3866 1075 
L 3866 213 
Q 3469 63 3072 -14 
Q 2675 -91 2278 -91 
Q 1328 -91 801 392 
Q 275 875 275 1747 
Q 275 2603 792 3093 
Q 1309 3584 2216 3584 
Q 3041 3584 3536 3087 
Q 4031 2591 4031 1759 
z
M 2881 2131 
Q 2881 2450 2695 2645 
Q 2509 2841 2209 2841 
Q 1884 2841 1681 2658 
Q 1478 2475 1428 2131 
L 2881 2131 
z
" transform="scale(0.015625)"/>
      <path id="DejaVuSans-Bold-61" d="M 2106 1575 
Q 1756 1575 1579 1456 
Q 1403 1338 1403 1106 
Q 1403 894 1545 773 
Q 1688 653 1941 653 
Q 2256 653 2472 879 
Q 2688 1106 2688 1447 
L 2688 1575 
L 2106 1575 
z
M 3816 1997 
L 3816 0 
L 2688 0 
L 2688 519 
Q 2463 200 2181 54 
Q 1900 -91 1497 -91 
Q 953 -91 614 226 
Q 275 544 275 1050 
Q 275 1666 698 1953 
Q 1122 2241 2028 2241 
L 2688 2241 
L 2688 2328 
Q 2688 2594 2478 2717 
Q 2269 2841 1825 2841 
Q 1466 2841 1156 2769 
Q 847 2697 581 2553 
L 581 3406 
Q 941 3494 1303 3539 
Q 1666 3584 2028 3584 
Q 2975 3584 3395 3211 
Q 3816 2838 3816 1997 
z
" transform="scale(0.015625)"/>
      <path id="DejaVuSans-Bold-6e" d="M 4056 2131 
L 4056 0 
L 2931 0 
L 2931 347 
L 2931 1631 
Q 2931 2084 2911 2256 
Q 2891 2428 2841 2509 
Q 2775 2619 2662 2680 
Q 2550 2741 2406 2741 
Q 2056 2741 1856 2470 
Q 1656 2200 1656 1722 
L 1656 0 
L 538 0 
L 538 3500 
L 1656 3500 
L 1656 2988 
Q 1909 3294 2193 3439 
Q 2478 3584 2822 3584 
Q 3428 3584 3742 3212 
Q 4056 2841 4056 2131 
z
" transform="scale(0.015625)"/>
      <path id="DejaVuSans-Bold-20" transform="scale(0.015625)"/>
      <path id="DejaVuSans-Bold-4c" d="M 588 4666 
L 1791 4666 
L 1791 909 
L 3903 909 
L 3903 0 
L 588 0 
L 588 4666 
z
" transform="scale(0.015625)"/>
      <path id="DejaVuSans-Bold-74" d="M 1759 4494 
L 1759 3500 
L 2913 3500 
L 2913 2700 
L 1759 2700 
L 1759 1216 
Q 1759 972 1856 886 
Q 1953 800 2241 800 
L 2816 800 
L 2816 0 
L 1856 0 
Q 1194 0 917 276 
Q 641 553 641 1216 
L 641 2700 
L 84 2700 
L 84 3500 
L 641 3500 
L 641 4494 
L 1759 4494 
z
" transform="scale(0.015625)"/>
      <path id="DejaVuSans-Bold-63" d="M 3366 3391 
L 3366 2478 
Q 3138 2634 2908 2709 
Q 2678 2784 2431 2784 
Q 1963 2784 1702 2511 
Q 1441 2238 1441 1747 
Q 1441 1256 1702 982 
Q 1963 709 2431 709 
Q 2694 709 2930 787 
Q 3166 866 3366 1019 
L 3366 103 
Q 3103 6 2833 -42 
Q 2563 -91 2291 -91 
Q 1344 -91 809 395 
Q 275 881 275 1747 
Q 275 2613 809 3098 
Q 1344 3584 2291 3584 
Q 2566 3584 2833 3536 
Q 3100 3488 3366 3391 
z
" transform="scale(0.015625)"/>
      <path id="DejaVuSans-Bold-79" d="M 78 3500 
L 1197 3500 
L 2138 1125 
L 2938 3500 
L 4056 3500 
L 2584 -331 
Q 2363 -916 2067 -1148 
Q 1772 -1381 1288 -1381 
L 641 -1381 
L 641 -647 
L 991 -647 
Q 1275 -647 1404 -556 
Q 1534 -466 1606 -231 
L 1638 -134 
L 78 3500 
z
" transform="scale(0.015625)"/>
      <path id="DejaVuSans-Bold-76" d="M 97 3500 
L 1216 3500 
L 2088 1081 
L 2956 3500 
L 4078 3500 
L 2700 0 
L 1472 0 
L 97 3500 
z
" transform="scale(0.015625)"/>
      <path id="DejaVuSans-Bold-73" d="M 3272 3391 
L 3272 2541 
Q 2913 2691 2578 2766 
Q 2244 2841 1947 2841 
Q 1628 2841 1473 2761 
Q 1319 2681 1319 2516 
Q 1319 2381 1436 2309 
Q 1553 2238 1856 2203 
L 2053 2175 
Q 2913 2066 3209 1816 
Q 3506 1566 3506 1031 
Q 3506 472 3093 190 
Q 2681 -91 1863 -91 
Q 1516 -91 1145 -36 
Q 775 19 384 128 
L 384 978 
Q 719 816 1070 734 
Q 1422 653 1784 653 
Q 2113 653 2278 743 
Q 2444 834 2444 1013 
Q 2444 1163 2330 1236 
Q 2216 1309 1875 1350 
L 1678 1375 
Q 931 1469 631 1722 
Q 331 1975 331 2491 
Q 331 3047 712 3315 
Q 1094 3584 1881 3584 
Q 2191 3584 2531 3537 
Q 2872 3491 3272 3391 
z
" transform="scale(0.015625)"/>
      <path id="DejaVuSans-Bold-4e" d="M 588 4666 
L 1931 4666 
L 3628 1466 
L 3628 4666 
L 4769 4666 
L 4769 0 
L 3425 0 
L 1728 3200 
L 1728 0 
L 588 0 
L 588 4666 
z
" transform="scale(0.015625)"/>
      <path id="DejaVuSans-Bold-75" d="M 500 1363 
L 500 3500 
L 1625 3500 
L 1625 3150 
Q 1625 2866 1622 2436 
Q 1619 2006 1619 1863 
Q 1619 1441 1641 1255 
Q 1663 1069 1716 984 
Q 1784 875 1895 815 
Q 2006 756 2150 756 
Q 2500 756 2700 1025 
Q 2900 1294 2900 1772 
L 2900 3500 
L 4019 3500 
L 4019 0 
L 2900 0 
L 2900 506 
Q 2647 200 2364 54 
Q 2081 -91 1741 -91 
Q 1134 -91 817 281 
Q 500 653 500 1363 
z
" transform="scale(0.015625)"/>
      <path id="DejaVuSans-Bold-6d" d="M 3781 2919 
Q 3994 3244 4286 3414 
Q 4578 3584 4928 3584 
Q 5531 3584 5847 3212 
Q 6163 2841 6163 2131 
L 6163 0 
L 5038 0 
L 5038 1825 
Q 5041 1866 5042 1909 
Q 5044 1953 5044 2034 
Q 5044 2406 4934 2573 
Q 4825 2741 4581 2741 
Q 4263 2741 4089 2478 
Q 3916 2216 3909 1719 
L 3909 0 
L 2784 0 
L 2784 1825 
Q 2784 2406 2684 2573 
Q 2584 2741 2328 2741 
Q 2006 2741 1831 2477 
Q 1656 2213 1656 1722 
L 1656 0 
L 531 0 
L 531 3500 
L 1656 3500 
L 1656 2988 
Q 1863 3284 2130 3434 
Q 2397 3584 2719 3584 
Q 3081 3584 3359 3409 
Q 3638 3234 3781 2919 
z
" transform="scale(0.015625)"/>
      <path id="DejaVuSans-Bold-62" d="M 2400 722 
Q 2759 722 2948 984 
Q 3138 1247 3138 1747 
Q 3138 2247 2948 2509 
Q 2759 2772 2400 2772 
Q 2041 2772 1848 2508 
Q 1656 2244 1656 1747 
Q 1656 1250 1848 986 
Q 2041 722 2400 722 
z
M 1656 2988 
Q 1888 3294 2169 3439 
Q 2450 3584 2816 3584 
Q 3463 3584 3878 3070 
Q 4294 2556 4294 1747 
Q 4294 938 3878 423 
Q 3463 -91 2816 -91 
Q 2450 -91 2169 54 
Q 1888 200 1656 506 
L 1656 0 
L 538 0 
L 538 4863 
L 1656 4863 
L 1656 2988 
z
" transform="scale(0.015625)"/>
      <path id="DejaVuSans-Bold-72" d="M 3138 2547 
Q 2991 2616 2845 2648 
Q 2700 2681 2553 2681 
Q 2122 2681 1889 2404 
Q 1656 2128 1656 1613 
L 1656 0 
L 538 0 
L 538 3500 
L 1656 3500 
L 1656 2925 
Q 1872 3269 2151 3426 
Q 2431 3584 2822 3584 
Q 2878 3584 2943 3579 
Q 3009 3575 3134 3559 
L 3138 2547 
z
" transform="scale(0.015625)"/>
      <path id="DejaVuSans-Bold-6f" d="M 2203 2784 
Q 1831 2784 1636 2517 
Q 1441 2250 1441 1747 
Q 1441 1244 1636 976 
Q 1831 709 2203 709 
Q 2569 709 2762 976 
Q 2956 1244 2956 1747 
Q 2956 2250 2762 2517 
Q 2569 2784 2203 2784 
z
M 2203 3584 
Q 3106 3584 3614 3096 
Q 4122 2609 4122 1747 
Q 4122 884 3614 396 
Q 3106 -91 2203 -91 
Q 1297 -91 786 396 
Q 275 884 275 1747 
Q 275 2609 786 3096 
Q 1297 3584 2203 3584 
z
" transform="scale(0.015625)"/>
      <path id="DejaVuSans-Bold-66" d="M 2841 4863 
L 2841 4128 
L 2222 4128 
Q 1984 4128 1890 4042 
Q 1797 3956 1797 3744 
L 1797 3500 
L 2753 3500 
L 2753 2700 
L 1797 2700 
L 1797 0 
L 678 0 
L 678 2700 
L 122 2700 
L 122 3500 
L 678 3500 
L 678 3744 
Q 678 4316 997 4589 
Q 1316 4863 1984 4863 
L 2841 4863 
z
" transform="scale(0.015625)"/>
      <path id="DejaVuSans-Bold-4a" d="M 588 4666 
L 1791 4666 
L 1791 453 
Q 1791 -419 1317 -850 
Q 844 -1281 -116 -1281 
L -359 -1281 
L -359 -372 
L -172 -372 
Q 203 -372 395 -162 
Q 588 47 588 453 
L 588 4666 
z
" transform="scale(0.015625)"/>
     </defs>
     <use xlink:href="#DejaVuSans-Bold-4d"/>
     <use xlink:href="#DejaVuSans-Bold-65" transform="translate(99.511719 0)"/>
     <use xlink:href="#DejaVuSans-Bold-61" transform="translate(167.333984 0)"/>
     <use xlink:href="#DejaVuSans-Bold-6e" transform="translate(234.814453 0)"/>
     <use xlink:href="#DejaVuSans-Bold-20" transform="translate(306.005859 0)"/>
     <use xlink:href="#DejaVuSans-Bold-4c" transform="translate(340.820312 0)"/>
     <use xlink:href="#DejaVuSans-Bold-61" transform="translate(404.541016 0)"/>
     <use xlink:href="#DejaVuSans-Bold-74" transform="translate(472.021484 0)"/>
     <use xlink:href="#DejaVuSans-Bold-65" transform="translate(519.824219 0)"/>
     <use xlink:href="#DejaVuSans-Bold-6e" transform="translate(587.646484 0)"/>
     <use xlink:href="#DejaVuSans-Bold-63" transform="translate(658.837891 0)"/>
     <use xlink:href="#DejaVuSans-Bold-79" transform="translate(718.115234 0)"/>
     <use xlink:href="#DejaVuSans-Bold-20" transform="translate(783.300781 0)"/>
     <use xlink:href="#DejaVuSans-Bold-76" transform="translate(818.115234 0)"/>
     <use xlink:href="#DejaVuSans-Bold-73" transform="translate(883.300781 0)"/>
     <use xlink:href="#DejaVuSans-Bold-20" transform="translate(942.822266 0)"/>
     <use xlink:href="#DejaVuSans-Bold-4e" transform="translate(977.636719 0)"/>
     <use xlink:href="#DejaVuSans-Bold-75" transform="translate(1061.328125 0)"/>
     <use xlink:href="#DejaVuSans-Bold-6d" transform="translate(1132.519531 0)"/>
     <use xlink:href="#DejaVuSans-Bold-62" transform="translate(1236.71875 0)"/>
     <use xlink:href="#DejaVuSans-Bold-65" transform="translate(1308.300781 0)"/>
     <use xlink:href="#DejaVuSans-Bold-72" transform="translate(1376.123047 0)"/>
     <use xlink:href="#DejaVuSans-Bold-20" transform="translate(1425.439453 0)"/>
     <use xlink:href="#DejaVuSans-Bold-6f" transform="translate(1460.253906 0)"/>
     <use xlink:href="#DejaVuSans-Bold-66" transform="translate(1528.955078 0)"/>
     <use xlink:href="#DejaVuSans-Bold-20" transform="translate(1572.460938 0)"/>
     <use xlink:href="#DejaVuSans-Bold-4a" transform="translate(1607.275391 0)"/>
     <use xlink:href="#DejaVuSans-Bold-6f" transform="translate(1644.482422 0)"/>
     <use xlink:href="#DejaVuSans-Bold-62" transform="translate(1713.183594 0)"/>
     <use xlink:href="#DejaVuSans-Bold-73" transform="translate(1784.765625 0)"/>
    </g>
   </g>
   <g id="legend_1">
    <g id="text_25">
     <!-- IO Depth -->
     <g style="fill: #262626" transform="translate(425.867188 120.065663) scale(0.1 -0.1)">
      <defs>
       <path id="DejaVuSans-49" d="M 628 4666 
L 1259 4666 
L 1259 0 
L 628 0 
L 628 4666 
z
" transform="scale(0.015625)"/>
       <path id="DejaVuSans-4f" d="M 2522 4238 
Q 1834 4238 1429 3725 
Q 1025 3213 1025 2328 
Q 1025 1447 1429 934 
Q 1834 422 2522 422 
Q 3209 422 3611 934 
Q 4013 1447 4013 2328 
Q 4013 3213 3611 3725 
Q 3209 4238 2522 4238 
z
M 2522 4750 
Q 3503 4750 4090 4092 
Q 4678 3434 4678 2328 
Q 4678 1225 4090 567 
Q 3503 -91 2522 -91 
Q 1538 -91 948 565 
Q 359 1222 359 2328 
Q 359 3434 948 4092 
Q 1538 4750 2522 4750 
z
" transform="scale(0.015625)"/>
       <path id="DejaVuSans-44" d="M 1259 4147 
L 1259 519 
L 2022 519 
Q 2988 519 3436 956 
Q 3884 1394 3884 2338 
Q 3884 3275 3436 3711 
Q 2988 4147 2022 4147 
L 1259 4147 
z
M 628 4666 
L 1925 4666 
Q 3281 4666 3915 4102 
Q 4550 3538 4550 2338 
Q 4550 1131 3912 565 
Q 3275 0 1925 0 
L 628 0 
L 628 4666 
z
" transform="scale(0.015625)"/>
       <path id="DejaVuSans-68" d="M 3513 2113 
L 3513 0 
L 2938 0 
L 2938 2094 
Q 2938 2591 2744 2837 
Q 2550 3084 2163 3084 
Q 1697 3084 1428 2787 
Q 1159 2491 1159 1978 
L 1159 0 
L 581 0 
L 581 4863 
L 1159 4863 
L 1159 2956 
Q 1366 3272 1645 3428 
Q 1925 3584 2291 3584 
Q 2894 3584 3203 3211 
Q 3513 2838 3513 2113 
z
" transform="scale(0.015625)"/>
      </defs>
      <use xlink:href="#DejaVuSans-49"/>
      <use xlink:href="#DejaVuSans-4f" transform="translate(29.492188 0)"/>
      <use xlink:href="#DejaVuSans-20" transform="translate(108.203125 0)"/>
      <use xlink:href="#DejaVuSans-44" transform="translate(139.990234 0)"/>
      <use xlink:href="#DejaVuSans-65" transform="translate(216.992188 0)"/>
      <use xlink:href="#DejaVuSans-70" transform="translate(278.515625 0)"/>
      <use xlink:href="#DejaVuSans-74" transform="translate(341.992188 0)"/>
      <use xlink:href="#DejaVuSans-68" transform="translate(381.201172 0)"/>
     </g>
    </g>
    <g id="line2d_27">
     <path d="M 424.553125 131.243787 
L 434.553125 131.243787 
L 444.553125 131.243787 
" style="fill: none; stroke: #4c02a1; stroke-width: 1.5; stroke-linecap: round"/>
    </g>
    <g id="text_26">
     <!-- 1 -->
     <g style="fill: #262626" transform="translate(452.553125 134.743787) scale(0.1 -0.1)">
      <use xlink:href="#DejaVuSans-31"/>
     </g>
    </g>
    <g id="line2d_28">
     <path d="M 424.553125 145.921913 
L 434.553125 145.921913 
L 444.553125 145.921913 
" style="fill: none; stroke: #7e03a8; stroke-width: 1.5; stroke-linecap: round"/>
    </g>
    <g id="text_27">
     <!-- 4 -->
     <g style="fill: #262626" transform="translate(452.553125 149.421913) scale(0.1 -0.1)">
      <use xlink:href="#DejaVuSans-34"/>
     </g>
    </g>
    <g id="line2d_29">
     <path d="M 424.553125 160.600037 
L 434.553125 160.600037 
L 444.553125 160.600037 
" style="fill: none; stroke: #aa2395; stroke-width: 1.5; stroke-linecap: round"/>
    </g>
    <g id="text_28">
     <!-- 8 -->
     <g style="fill: #262626" transform="translate(452.553125 164.100037) scale(0.1 -0.1)">
      <use xlink:href="#DejaVuSans-38"/>
     </g>
    </g>
    <g id="line2d_30">
     <path d="M 424.553125 175.278163 
L 434.553125 175.278163 
L 444.553125 175.278163 
" style="fill: none; stroke: #cc4778; stroke-width: 1.5; stroke-linecap: round"/>
    </g>
    <g id="text_29">
     <!-- 16 -->
     <g style="fill: #262626" transform="translate(452.553125 178.778163) scale(0.1 -0.1)">
      <use xlink:href="#DejaVuSans-31"/>
      <use xlink:href="#DejaVuSans-36" transform="translate(63.623047 0)"/>
     </g>
    </g>
    <g id="line2d_31">
     <path d="M 424.553125 189.956288 
L 434.553125 189.956288 
L 444.553125 189.956288 
" style="fill: none; stroke: #e66c5c; stroke-width: 1.5; stroke-linecap: round"/>
    </g>
    <g id="text_30">
     <!-- 32 -->
     <g style="fill: #262626" transform="translate(452.553125 193.456288) scale(0.1 -0.1)">
      <use xlink:href="#DejaVuSans-33"/>
      <use xlink:href="#DejaVuSans-32" transform="translate(63.623047 0)"/>
     </g>
    </g>
    <g id="line2d_32">
     <path d="M 424.553125 204.634412 
L 434.553125 204.634412 
L 444.553125 204.634412 
" style="fill: none; stroke: #f89540; stroke-width: 1.5; stroke-linecap: round"/>
    </g>
    <g id="text_31">
     <!-- 64 -->
     <g style="fill: #262626" transform="translate(452.553125 208.134412) scale(0.1 -0.1)">
      <use xlink:href="#DejaVuSans-36"/>
      <use xlink:href="#DejaVuSans-34" transform="translate(63.623047 0)"/>
     </g>
    </g>
    <g id="line2d_33">
     <path d="M 424.553125 219.312537 
L 434.553125 219.312537 
L 444.553125 219.312537 
" style="fill: none; stroke: #fdc527; stroke-width: 1.5; stroke-linecap: round"/>
    </g>
    <g id="text_32">
     <!-- 128 -->
     <g style="fill: #262626" transform="translate(452.553125 222.812537) scale(0.1 -0.1)">
      <use xlink:href="#DejaVuSans-31"/>
      <use xlink:href="#DejaVuSans-32" transform="translate(63.623047 0)"/>
      <use xlink:href="#DejaVuSans-38" transform="translate(127.246094 0)"/>
     </g>
    </g>
   </g>
  </g>
 </g>
 <defs>
  <clipPath id="pe9d0d84dc9">
   <rect x="34.240625" y="35.623725" width="357.12" height="266.112"/>
  </clipPath>
 </defs>
</svg>
