<?xml version="1.0" encoding="utf-8" standalone="no"?>
<!DOCTYPE svg PUBLIC "-//W3C//DTD SVG 1.1//EN"
  "http://www.w3.org/Graphics/SVG/1.1/DTD/svg11.dtd">
<svg xmlns:xlink="http://www.w3.org/1999/xlink" width="482.840625pt" height="339.291975pt" viewBox="0 0 482.840625 339.291975" xmlns="http://www.w3.org/2000/svg" version="1.1">
 <metadata>
  <rdf:RDF xmlns:dc="http://purl.org/dc/elements/1.1/" xmlns:cc="http://creativecommons.org/ns#" xmlns:rdf="http://www.w3.org/1999/02/22-rdf-syntax-ns#">
   <cc:Work>
    <dc:type rdf:resource="http://purl.org/dc/dcmitype/StillImage"/>
    <dc:date>2025-09-11T11:48:47.644522</dc:date>
    <dc:format>image/svg+xml</dc:format>
    <dc:creator>
     <cc:Agent>
      <dc:title>Matplotlib v3.10.6, https://matplotlib.org/</dc:title>
     </cc:Agent>
    </dc:creator>
   </cc:Work>
  </rdf:RDF>
 </metadata>
 <defs>
  <style type="text/css">*{stroke-linejoin: round; stroke-linecap: butt}</style>
 </defs>
 <g id="figure_1">
  <g id="patch_1">
   <path d="M 0 339.291975 
L 482.840625 339.291975 
L 482.840625 0 
L 0 0 
z
" style="fill: #ffffff"/>
  </g>
  <g id="axes_1">
   <g id="patch_2">
    <path d="M 34.240625 301.735725 
L 391.360625 301.735725 
L 391.360625 35.623725 
L 34.240625 35.623725 
z
" style="fill: #ffffff"/>
   </g>
   <g id="matplotlib.axis_1">
    <g id="xtick_1">
     <g id="line2d_1">
      <path d="M 129.719737 301.735725 
L 129.719737 35.623725 
" clip-path="url(#p514e4dbc11)" style="fill: none; stroke: #cccccc; stroke-width: 0.8; stroke-linecap: round"/>
     </g>
     <g id="text_1">
      <!-- 32 -->
      <g style="fill: #262626" transform="translate(123.357237 316.334162) scale(0.1 -0.1)">
       <defs>
        <path id="DejaVuSans-33" d="M 2597 2516 
Q 3050 2419 3304 2112 
Q 3559 1806 3559 1356 
Q 3559 666 3084 287 
Q 2609 -91 1734 -91 
Q 1441 -91 1130 -33 
Q 819 25 488 141 
L 488 750 
Q 750 597 1062 519 
Q 1375 441 1716 441 
Q 2309 441 2620 675 
Q 2931 909 2931 1356 
Q 2931 1769 2642 2001 
Q 2353 2234 1838 2234 
L 1294 2234 
L 1294 2753 
L 1863 2753 
Q 2328 2753 2575 2939 
Q 2822 3125 2822 3475 
Q 2822 3834 2567 4026 
Q 2313 4219 1838 4219 
Q 1578 4219 1281 4162 
Q 984 4106 628 3988 
L 628 4550 
Q 988 4650 1302 4700 
Q 1616 4750 1894 4750 
Q 2613 4750 3031 4423 
Q 3450 4097 3450 3541 
Q 3450 3153 3228 2886 
Q 3006 2619 2597 2516 
z
" transform="scale(0.015625)"/>
        <path id="DejaVuSans-32" d="M 1228 531 
L 3431 531 
L 3431 0 
L 469 0 
L 469 531 
Q 828 903 1448 1529 
Q 2069 2156 2228 2338 
Q 2531 2678 2651 2914 
Q 2772 3150 2772 3378 
Q 2772 3750 2511 3984 
Q 2250 4219 1831 4219 
Q 1534 4219 1204 4116 
Q 875 4013 500 3803 
L 500 4441 
Q 881 4594 1212 4672 
Q 1544 4750 1819 4750 
Q 2544 4750 2975 4387 
Q 3406 4025 3406 3419 
Q 3406 3131 3298 2873 
Q 3191 2616 2906 2266 
Q 2828 2175 2409 1742 
Q 1991 1309 1228 531 
z
" transform="scale(0.015625)"/>
       </defs>
       <use xlink:href="#DejaVuSans-33"/>
       <use xlink:href="#DejaVuSans-32" transform="translate(63.623047 0)"/>
      </g>
     </g>
    </g>
    <g id="xtick_2">
     <g id="line2d_2">
      <path d="M 68.367697 301.735725 
L 68.367697 35.623725 
" clip-path="url(#p514e4dbc11)" style="fill: none; stroke: #cccccc; stroke-width: 0.8; stroke-linecap: round"/>
     </g>
     <g id="text_2">
      <!-- 8 -->
      <g style="fill: #262626" transform="translate(65.186447 316.334162) scale(0.1 -0.1)">
       <defs>
        <path id="DejaVuSans-38" d="M 2034 2216 
Q 1584 2216 1326 1975 
Q 1069 1734 1069 1313 
Q 1069 891 1326 650 
Q 1584 409 2034 409 
Q 2484 409 2743 651 
Q 3003 894 3003 1313 
Q 3003 1734 2745 1975 
Q 2488 2216 2034 2216 
z
M 1403 2484 
Q 997 2584 770 2862 
Q 544 3141 544 3541 
Q 544 4100 942 4425 
Q 1341 4750 2034 4750 
Q 2731 4750 3128 4425 
Q 3525 4100 3525 3541 
Q 3525 3141 3298 2862 
Q 3072 2584 2669 2484 
Q 3125 2378 3379 2068 
Q 3634 1759 3634 1313 
Q 3634 634 3220 271 
Q 2806 -91 2034 -91 
Q 1263 -91 848 271 
Q 434 634 434 1313 
Q 434 1759 690 2068 
Q 947 2378 1403 2484 
z
M 1172 3481 
Q 1172 3119 1398 2916 
Q 1625 2713 2034 2713 
Q 2441 2713 2670 2916 
Q 2900 3119 2900 3481 
Q 2900 3844 2670 4047 
Q 2441 4250 2034 4250 
Q 1625 4250 1398 4047 
Q 1172 3844 1172 3481 
z
" transform="scale(0.015625)"/>
       </defs>
       <use xlink:href="#DejaVuSans-38"/>
      </g>
     </g>
    </g>
    <g id="xtick_3">
     <g id="line2d_3">
      <path d="M 88.818377 301.735725 
L 88.818377 35.623725 
" clip-path="url(#p514e4dbc11)" style="fill: none; stroke: #cccccc; stroke-width: 0.8; stroke-linecap: round"/>
     </g>
     <g id="text_3">
      <!-- 16 -->
      <g style="fill: #262626" transform="translate(82.455877 316.334162) scale(0.1 -0.1)">
       <defs>
        <path id="DejaVuSans-31" d="M 794 531 
L 1825 531 
L 1825 4091 
L 703 3866 
L 703 4441 
L 1819 4666 
L 2450 4666 
L 2450 531 
L 3481 531 
L 3481 0 
L 794 0 
L 794 531 
z
" transform="scale(0.015625)"/>
        <path id="DejaVuSans-36" d="M 2113 2584 
Q 1688 2584 1439 2293 
Q 1191 2003 1191 1497 
Q 1191 994 1439 701 
Q 1688 409 2113 409 
Q 2538 409 2786 701 
Q 3034 994 3034 1497 
Q 3034 2003 2786 2293 
Q 2538 2584 2113 2584 
z
M 3366 4563 
L 3366 3988 
Q 3128 4100 2886 4159 
Q 2644 4219 2406 4219 
Q 1781 4219 1451 3797 
Q 1122 3375 1075 2522 
Q 1259 2794 1537 2939 
Q 1816 3084 2150 3084 
Q 2853 3084 3261 2657 
Q 3669 2231 3669 1497 
Q 3669 778 3244 343 
Q 2819 -91 2113 -91 
Q 1303 -91 875 529 
Q 447 1150 447 2328 
Q 447 3434 972 4092 
Q 1497 4750 2381 4750 
Q 2619 4750 2861 4703 
Q 3103 4656 3366 4563 
z
" transform="scale(0.015625)"/>
       </defs>
       <use xlink:href="#DejaVuSans-31"/>
       <use xlink:href="#DejaVuSans-36" transform="translate(63.623047 0)"/>
      </g>
     </g>
    </g>
    <g id="xtick_4">
     <g id="line2d_4">
      <path d="M 58.142357 301.735725 
L 58.142357 35.623725 
" clip-path="url(#p514e4dbc11)" style="fill: none; stroke: #cccccc; stroke-width: 0.8; stroke-linecap: round"/>
     </g>
     <g id="text_4">
      <!-- 4 -->
      <g style="fill: #262626" transform="translate(54.961107 316.334162) scale(0.1 -0.1)">
       <defs>
        <path id="DejaVuSans-34" d="M 2419 4116 
L 825 1625 
L 2419 1625 
L 2419 4116 
z
M 2253 4666 
L 3047 4666 
L 3047 1625 
L 3713 1625 
L 3713 1100 
L 3047 1100 
L 3047 0 
L 2419 0 
L 2419 1100 
L 313 1100 
L 313 1709 
L 2253 4666 
z
" transform="scale(0.015625)"/>
       </defs>
       <use xlink:href="#DejaVuSans-34"/>
      </g>
     </g>
    </g>
    <g id="xtick_5">
     <g id="line2d_5">
      <path d="M 50.473352 301.735725 
L 50.473352 35.623725 
" clip-path="url(#p514e4dbc11)" style="fill: none; stroke: #cccccc; stroke-width: 0.8; stroke-linecap: round"/>
     </g>
     <g id="text_5">
      <!-- 1 -->
      <g style="fill: #262626" transform="translate(47.292102 316.334162) scale(0.1 -0.1)">
       <use xlink:href="#DejaVuSans-31"/>
      </g>
     </g>
    </g>
    <g id="xtick_6">
     <g id="line2d_6">
      <path d="M 211.522457 301.735725 
L 211.522457 35.623725 
" clip-path="url(#p514e4dbc11)" style="fill: none; stroke: #cccccc; stroke-width: 0.8; stroke-linecap: round"/>
     </g>
     <g id="text_6">
      <!-- 64 -->
      <g style="fill: #262626" transform="translate(205.159957 316.334162) scale(0.1 -0.1)">
       <use xlink:href="#DejaVuSans-36"/>
       <use xlink:href="#DejaVuSans-34" transform="translate(63.623047 0)"/>
      </g>
     </g>
    </g>
    <g id="xtick_7">
     <g id="line2d_7">
      <path d="M 375.127898 301.735725 
L 375.127898 35.623725 
" clip-path="url(#p514e4dbc11)" style="fill: none; stroke: #cccccc; stroke-width: 0.8; stroke-linecap: round"/>
     </g>
     <g id="text_7">
      <!-- 128 -->
      <g style="fill: #262626" transform="translate(365.584148 316.334162) scale(0.1 -0.1)">
       <use xlink:href="#DejaVuSans-31"/>
       <use xlink:href="#DejaVuSans-32" transform="translate(63.623047 0)"/>
       <use xlink:href="#DejaVuSans-38" transform="translate(127.246094 0)"/>
      </g>
     </g>
    </g>
    <g id="text_8">
     <!-- IO Depth -->
     <g style="fill: #262626" transform="translate(190.570938 330.012287) scale(0.1 -0.1)">
      <defs>
       <path id="DejaVuSans-49" d="M 628 4666 
L 1259 4666 
L 1259 0 
L 628 0 
L 628 4666 
z
" transform="scale(0.015625)"/>
       <path id="DejaVuSans-4f" d="M 2522 4238 
Q 1834 4238 1429 3725 
Q 1025 3213 1025 2328 
Q 1025 1447 1429 934 
Q 1834 422 2522 422 
Q 3209 422 3611 934 
Q 4013 1447 4013 2328 
Q 4013 3213 3611 3725 
Q 3209 4238 2522 4238 
z
M 2522 4750 
Q 3503 4750 4090 4092 
Q 4678 3434 4678 2328 
Q 4678 1225 4090 567 
Q 3503 -91 2522 -91 
Q 1538 -91 948 565 
Q 359 1222 359 2328 
Q 359 3434 948 4092 
Q 1538 4750 2522 4750 
z
" transform="scale(0.015625)"/>
       <path id="DejaVuSans-20" transform="scale(0.015625)"/>
       <path id="DejaVuSans-44" d="M 1259 4147 
L 1259 519 
L 2022 519 
Q 2988 519 3436 956 
Q 3884 1394 3884 2338 
Q 3884 3275 3436 3711 
Q 2988 4147 2022 4147 
L 1259 4147 
z
M 628 4666 
L 1925 4666 
Q 3281 4666 3915 4102 
Q 4550 3538 4550 2338 
Q 4550 1131 3912 565 
Q 3275 0 1925 0 
L 628 0 
L 628 4666 
z
" transform="scale(0.015625)"/>
       <path id="DejaVuSans-65" d="M 3597 1894 
L 3597 1613 
L 953 1613 
Q 991 1019 1311 708 
Q 1631 397 2203 397 
Q 2534 397 2845 478 
Q 3156 559 3463 722 
L 3463 178 
Q 3153 47 2828 -22 
Q 2503 -91 2169 -91 
Q 1331 -91 842 396 
Q 353 884 353 1716 
Q 353 2575 817 3079 
Q 1281 3584 2069 3584 
Q 2775 3584 3186 3129 
Q 3597 2675 3597 1894 
z
M 3022 2063 
Q 3016 2534 2758 2815 
Q 2500 3097 2075 3097 
Q 1594 3097 1305 2825 
Q 1016 2553 972 2059 
L 3022 2063 
z
" transform="scale(0.015625)"/>
       <path id="DejaVuSans-70" d="M 1159 525 
L 1159 -1331 
L 581 -1331 
L 581 3500 
L 1159 3500 
L 1159 2969 
Q 1341 3281 1617 3432 
Q 1894 3584 2278 3584 
Q 2916 3584 3314 3078 
Q 3713 2572 3713 1747 
Q 3713 922 3314 415 
Q 2916 -91 2278 -91 
Q 1894 -91 1617 61 
Q 1341 213 1159 525 
z
M 3116 1747 
Q 3116 2381 2855 2742 
Q 2594 3103 2138 3103 
Q 1681 3103 1420 2742 
Q 1159 2381 1159 1747 
Q 1159 1113 1420 752 
Q 1681 391 2138 391 
Q 2594 391 2855 752 
Q 3116 1113 3116 1747 
z
" transform="scale(0.015625)"/>
       <path id="DejaVuSans-74" d="M 1172 4494 
L 1172 3500 
L 2356 3500 
L 2356 3053 
L 1172 3053 
L 1172 1153 
Q 1172 725 1289 603 
Q 1406 481 1766 481 
L 2356 481 
L 2356 0 
L 1766 0 
Q 1100 0 847 248 
Q 594 497 594 1153 
L 594 3053 
L 172 3053 
L 172 3500 
L 594 3500 
L 594 4494 
L 1172 4494 
z
" transform="scale(0.015625)"/>
       <path id="DejaVuSans-68" d="M 3513 2113 
L 3513 0 
L 2938 0 
L 2938 2094 
Q 2938 2591 2744 2837 
Q 2550 3084 2163 3084 
Q 1697 3084 1428 2787 
Q 1159 2491 1159 1978 
L 1159 0 
L 581 0 
L 581 4863 
L 1159 4863 
L 1159 2956 
Q 1366 3272 1645 3428 
Q 1925 3584 2291 3584 
Q 2894 3584 3203 3211 
Q 3513 2838 3513 2113 
z
" transform="scale(0.015625)"/>
      </defs>
      <use xlink:href="#DejaVuSans-49"/>
      <use xlink:href="#DejaVuSans-4f" transform="translate(29.492188 0)"/>
      <use xlink:href="#DejaVuSans-20" transform="translate(108.203125 0)"/>
      <use xlink:href="#DejaVuSans-44" transform="translate(139.990234 0)"/>
      <use xlink:href="#DejaVuSans-65" transform="translate(216.992188 0)"/>
      <use xlink:href="#DejaVuSans-70" transform="translate(278.515625 0)"/>
      <use xlink:href="#DejaVuSans-74" transform="translate(341.992188 0)"/>
      <use xlink:href="#DejaVuSans-68" transform="translate(381.201172 0)"/>
     </g>
    </g>
   </g>
   <g id="matplotlib.axis_2">
    <g id="ytick_1">
     <g id="line2d_8">
      <path d="M 34.240625 261.087048 
L 391.360625 261.087048 
" clip-path="url(#p514e4dbc11)" style="fill: none; stroke: #cccccc; stroke-width: 0.8; stroke-linecap: round"/>
     </g>
     <g id="text_9">
      <!-- 1 -->
      <g style="fill: #262626" transform="translate(20.878125 264.886267) scale(0.1 -0.1)">
       <use xlink:href="#DejaVuSans-31"/>
      </g>
     </g>
    </g>
    <g id="ytick_2">
     <g id="line2d_9">
      <path d="M 34.240625 205.842206 
L 391.360625 205.842206 
" clip-path="url(#p514e4dbc11)" style="fill: none; stroke: #cccccc; stroke-width: 0.8; stroke-linecap: round"/>
     </g>
     <g id="text_10">
      <!-- 2 -->
      <g style="fill: #262626" transform="translate(20.878125 209.641425) scale(0.1 -0.1)">
       <use xlink:href="#DejaVuSans-32"/>
      </g>
     </g>
    </g>
    <g id="ytick_3">
     <g id="line2d_10">
      <path d="M 34.240625 150.597364 
L 391.360625 150.597364 
" clip-path="url(#p514e4dbc11)" style="fill: none; stroke: #cccccc; stroke-width: 0.8; stroke-linecap: round"/>
     </g>
     <g id="text_11">
      <!-- 3 -->
      <g style="fill: #262626" transform="translate(20.878125 154.396583) scale(0.1 -0.1)">
       <use xlink:href="#DejaVuSans-33"/>
      </g>
     </g>
    </g>
    <g id="ytick_4">
     <g id="line2d_11">
      <path d="M 34.240625 95.352522 
L 391.360625 95.352522 
" clip-path="url(#p514e4dbc11)" style="fill: none; stroke: #cccccc; stroke-width: 0.8; stroke-linecap: round"/>
     </g>
     <g id="text_12">
      <!-- 4 -->
      <g style="fill: #262626" transform="translate(20.878125 99.15174) scale(0.1 -0.1)">
       <use xlink:href="#DejaVuSans-34"/>
      </g>
     </g>
    </g>
    <g id="ytick_5">
     <g id="line2d_12">
      <path d="M 34.240625 40.107679 
L 391.360625 40.107679 
" clip-path="url(#p514e4dbc11)" style="fill: none; stroke: #cccccc; stroke-width: 0.8; stroke-linecap: round"/>
     </g>
     <g id="text_13">
      <!-- 5 -->
      <g style="fill: #262626" transform="translate(20.878125 43.906898) scale(0.1 -0.1)">
       <defs>
        <path id="DejaVuSans-35" d="M 691 4666 
L 3169 4666 
L 3169 4134 
L 1269 4134 
L 1269 2991 
Q 1406 3038 1543 3061 
Q 1681 3084 1819 3084 
Q 2600 3084 3056 2656 
Q 3513 2228 3513 1497 
Q 3513 744 3044 326 
Q 2575 -91 1722 -91 
Q 1428 -91 1123 -41 
Q 819 9 494 109 
L 494 744 
Q 775 591 1075 516 
Q 1375 441 1709 441 
Q 2250 441 2565 725 
Q 2881 1009 2881 1497 
Q 2881 1984 2565 2268 
Q 2250 2553 1709 2553 
Q 1456 2553 1204 2497 
Q 953 2441 691 2322 
L 691 4666 
z
" transform="scale(0.015625)"/>
       </defs>
       <use xlink:href="#DejaVuSans-35"/>
      </g>
     </g>
    </g>
    <g id="text_14">
     <!-- Mean Latency (ns) -->
     <g style="fill: #262626" transform="translate(14.798438 214.92035) rotate(-90) scale(0.1 -0.1)">
      <defs>
       <path id="DejaVuSans-4d" d="M 628 4666 
L 1569 4666 
L 2759 1491 
L 3956 4666 
L 4897 4666 
L 4897 0 
L 4281 0 
L 4281 4097 
L 3078 897 
L 2444 897 
L 1241 4097 
L 1241 0 
L 628 0 
L 628 4666 
z
" transform="scale(0.015625)"/>
       <path id="DejaVuSans-61" d="M 2194 1759 
Q 1497 1759 1228 1600 
Q 959 1441 959 1056 
Q 959 750 1161 570 
Q 1363 391 1709 391 
Q 2188 391 2477 730 
Q 2766 1069 2766 1631 
L 2766 1759 
L 2194 1759 
z
M 3341 1997 
L 3341 0 
L 2766 0 
L 2766 531 
Q 2569 213 2275 61 
Q 1981 -91 1556 -91 
Q 1019 -91 701 211 
Q 384 513 384 1019 
Q 384 1609 779 1909 
Q 1175 2209 1959 2209 
L 2766 2209 
L 2766 2266 
Q 2766 2663 2505 2880 
Q 2244 3097 1772 3097 
Q 1472 3097 1187 3025 
Q 903 2953 641 2809 
L 641 3341 
Q 956 3463 1253 3523 
Q 1550 3584 1831 3584 
Q 2591 3584 2966 3190 
Q 3341 2797 3341 1997 
z
" transform="scale(0.015625)"/>
       <path id="DejaVuSans-6e" d="M 3513 2113 
L 3513 0 
L 2938 0 
L 2938 2094 
Q 2938 2591 2744 2837 
Q 2550 3084 2163 3084 
Q 1697 3084 1428 2787 
Q 1159 2491 1159 1978 
L 1159 0 
L 581 0 
L 581 3500 
L 1159 3500 
L 1159 2956 
Q 1366 3272 1645 3428 
Q 1925 3584 2291 3584 
Q 2894 3584 3203 3211 
Q 3513 2838 3513 2113 
z
" transform="scale(0.015625)"/>
       <path id="DejaVuSans-4c" d="M 628 4666 
L 1259 4666 
L 1259 531 
L 3531 531 
L 3531 0 
L 628 0 
L 628 4666 
z
" transform="scale(0.015625)"/>
       <path id="DejaVuSans-63" d="M 3122 3366 
L 3122 2828 
Q 2878 2963 2633 3030 
Q 2388 3097 2138 3097 
Q 1578 3097 1268 2742 
Q 959 2388 959 1747 
Q 959 1106 1268 751 
Q 1578 397 2138 397 
Q 2388 397 2633 464 
Q 2878 531 3122 666 
L 3122 134 
Q 2881 22 2623 -34 
Q 2366 -91 2075 -91 
Q 1284 -91 818 406 
Q 353 903 353 1747 
Q 353 2603 823 3093 
Q 1294 3584 2113 3584 
Q 2378 3584 2631 3529 
Q 2884 3475 3122 3366 
z
" transform="scale(0.015625)"/>
       <path id="DejaVuSans-79" d="M 2059 -325 
Q 1816 -950 1584 -1140 
Q 1353 -1331 966 -1331 
L 506 -1331 
L 506 -850 
L 844 -850 
Q 1081 -850 1212 -737 
Q 1344 -625 1503 -206 
L 1606 56 
L 191 3500 
L 800 3500 
L 1894 763 
L 2988 3500 
L 3597 3500 
L 2059 -325 
z
" transform="scale(0.015625)"/>
       <path id="DejaVuSans-28" d="M 1984 4856 
Q 1566 4138 1362 3434 
Q 1159 2731 1159 2009 
Q 1159 1288 1364 580 
Q 1569 -128 1984 -844 
L 1484 -844 
Q 1016 -109 783 600 
Q 550 1309 550 2009 
Q 550 2706 781 3412 
Q 1013 4119 1484 4856 
L 1984 4856 
z
" transform="scale(0.015625)"/>
       <path id="DejaVuSans-73" d="M 2834 3397 
L 2834 2853 
Q 2591 2978 2328 3040 
Q 2066 3103 1784 3103 
Q 1356 3103 1142 2972 
Q 928 2841 928 2578 
Q 928 2378 1081 2264 
Q 1234 2150 1697 2047 
L 1894 2003 
Q 2506 1872 2764 1633 
Q 3022 1394 3022 966 
Q 3022 478 2636 193 
Q 2250 -91 1575 -91 
Q 1294 -91 989 -36 
Q 684 19 347 128 
L 347 722 
Q 666 556 975 473 
Q 1284 391 1588 391 
Q 1994 391 2212 530 
Q 2431 669 2431 922 
Q 2431 1156 2273 1281 
Q 2116 1406 1581 1522 
L 1381 1569 
Q 847 1681 609 1914 
Q 372 2147 372 2553 
Q 372 3047 722 3315 
Q 1072 3584 1716 3584 
Q 2034 3584 2315 3537 
Q 2597 3491 2834 3397 
z
" transform="scale(0.015625)"/>
       <path id="DejaVuSans-29" d="M 513 4856 
L 1013 4856 
Q 1481 4119 1714 3412 
Q 1947 2706 1947 2009 
Q 1947 1309 1714 600 
Q 1481 -109 1013 -844 
L 513 -844 
Q 928 -128 1133 580 
Q 1338 1288 1338 2009 
Q 1338 2731 1133 3434 
Q 928 4138 513 4856 
z
" transform="scale(0.015625)"/>
      </defs>
      <use xlink:href="#DejaVuSans-4d"/>
      <use xlink:href="#DejaVuSans-65" transform="translate(86.279297 0)"/>
      <use xlink:href="#DejaVuSans-61" transform="translate(147.802734 0)"/>
      <use xlink:href="#DejaVuSans-6e" transform="translate(209.082031 0)"/>
      <use xlink:href="#DejaVuSans-20" transform="translate(272.460938 0)"/>
      <use xlink:href="#DejaVuSans-4c" transform="translate(304.248047 0)"/>
      <use xlink:href="#DejaVuSans-61" transform="translate(359.960938 0)"/>
      <use xlink:href="#DejaVuSans-74" transform="translate(421.240234 0)"/>
      <use xlink:href="#DejaVuSans-65" transform="translate(460.449219 0)"/>
      <use xlink:href="#DejaVuSans-6e" transform="translate(521.972656 0)"/>
      <use xlink:href="#DejaVuSans-63" transform="translate(585.351562 0)"/>
      <use xlink:href="#DejaVuSans-79" transform="translate(640.332031 0)"/>
      <use xlink:href="#DejaVuSans-20" transform="translate(699.511719 0)"/>
      <use xlink:href="#DejaVuSans-28" transform="translate(731.298828 0)"/>
      <use xlink:href="#DejaVuSans-6e" transform="translate(770.3125 0)"/>
      <use xlink:href="#DejaVuSans-73" transform="translate(833.691406 0)"/>
      <use xlink:href="#DejaVuSans-29" transform="translate(885.791016 0)"/>
     </g>
    </g>
    <g id="text_15">
     <!-- 1e7 -->
     <g style="fill: #262626" transform="translate(34.240625 32.623725) scale(0.1 -0.1)">
      <defs>
       <path id="DejaVuSans-37" d="M 525 4666 
L 3525 4666 
L 3525 4397 
L 1831 0 
L 1172 0 
L 2766 4134 
L 525 4134 
L 525 4666 
z
" transform="scale(0.015625)"/>
      </defs>
      <use xlink:href="#DejaVuSans-31"/>
      <use xlink:href="#DejaVuSans-65" transform="translate(63.623047 0)"/>
      <use xlink:href="#DejaVuSans-37" transform="translate(125.146484 0)"/>
     </g>
    </g>
   </g>
   <g id="FillBetweenPolyCollection_1"/>
   <g id="FillBetweenPolyCollection_2"/>
   <g id="FillBetweenPolyCollection_3"/>
   <g id="FillBetweenPolyCollection_4"/>
   <g id="line2d_13">
    <path d="M 50.473352 286.657713 
L 58.142357 289.639725 
L 68.367697 286.612294 
L 88.818377 286.376474 
L 129.719737 287.292806 
L 211.522457 286.878709 
L 375.127898 284.341343 
" clip-path="url(#p514e4dbc11)" style="fill: none; stroke: #3b0f70; stroke-width: 1.5; stroke-linecap: round"/>
   </g>
   <g id="line2d_14">
    <path d="M 50.473352 257.620771 
L 58.142357 258.646436 
L 68.367697 252.932153 
L 88.818377 256.819129 
L 129.719737 255.082749 
L 211.522457 159.50534 
L 375.127898 232.543703 
" clip-path="url(#p514e4dbc11)" style="fill: none; stroke: #8c2981; stroke-width: 1.5; stroke-linecap: round"/>
   </g>
   <g id="line2d_15">
    <path d="M 50.473352 163.28905 
L 58.142357 212.784786 
L 68.367697 169.747031 
L 88.818377 169.910356 
L 129.719737 167.020791 
L 211.522457 175.126044 
L 375.127898 168.365292 
" clip-path="url(#p514e4dbc11)" style="fill: none; stroke: #de4968; stroke-width: 1.5; stroke-linecap: round"/>
   </g>
   <g id="line2d_16">
    <path d="M 50.473352 57.155324 
L 58.142357 129.210133 
L 68.367697 47.719725 
L 88.818377 128.265977 
L 129.719737 128.588743 
L 211.522457 130.186334 
L 375.127898 131.525401 
" clip-path="url(#p514e4dbc11)" style="fill: none; stroke: #fe9f6d; stroke-width: 1.5; stroke-linecap: round"/>
   </g>
   <g id="line2d_17"/>
   <g id="line2d_18"/>
   <g id="line2d_19"/>
   <g id="line2d_20"/>
   <g id="text_16">
    <path d="M 111.214414 288.808395 
L 112.824947 288.844476 
L 112.949535 283.283372 
L 111.188976 283.59558 
L 111.209099 282.697368 
L 112.960286 282.38495 
L 113.945976 282.407032 
L 113.801265 288.866349 
L 115.411798 288.902431 
L 115.393215 289.73191 
L 111.195831 289.637874 
L 111.214414 288.808395 
z
M 119.707391 285.790049 
Q 119.043495 285.775176 118.644346 286.221035 
Q 118.246795 286.665367 118.229086 287.455794 
Q 118.211483 288.241534 118.588632 288.707911 
Q 118.967378 289.172761 119.631274 289.187634 
Q 120.295169 289.202508 120.692791 288.755051 
Q 121.090448 288.306033 121.108051 287.520293 
Q 121.12576 286.729866 120.748506 286.268175 
Q 120.371287 285.804923 119.707391 285.790049 
z
M 121.733971 282.742488 
L 121.713848 283.6407 
Q 121.345986 283.457415 120.97002 283.356782 
Q 120.59409 283.254586 120.222308 283.246257 
Q 119.245991 283.224384 118.715727 283.872045 
Q 118.187025 284.51974 118.083753 285.850574 
Q 118.3807 285.43212 118.820041 285.215343 
Q 119.260943 284.998601 119.782688 285.01029 
Q 120.880849 285.034893 121.503246 285.716192 
Q 122.125678 286.395928 122.09999 287.542515 
Q 122.074827 288.665671 121.395708 289.330315 
Q 120.716624 289.993396 119.613775 289.968688 
Q 118.348468 289.940341 117.701583 288.956856 
Q 117.054734 287.971808 117.09596 286.131645 
Q 117.134666 284.403953 117.977801 283.394459 
Q 118.820935 282.384965 120.201839 282.415902 
Q 120.573621 282.424232 120.950006 282.50612 
Q 121.326391 282.588008 121.733971 282.742488 
z
" clip-path="url(#p514e4dbc11)" style="fill: #3b0f70; stroke: #ffffff; stroke-width: 5"/>
    <path d="M 111.214414 288.808395 
L 112.824947 288.844476 
L 112.949535 283.283372 
L 111.188976 283.59558 
L 111.209099 282.697368 
L 112.960286 282.38495 
L 113.945976 282.407032 
L 113.801265 288.866349 
L 115.411798 288.902431 
L 115.393215 289.73191 
L 111.195831 289.637874 
L 111.214414 288.808395 
z
M 119.707391 285.790049 
Q 119.043495 285.775176 118.644346 286.221035 
Q 118.246795 286.665367 118.229086 287.455794 
Q 118.211483 288.241534 118.588632 288.707911 
Q 118.967378 289.172761 119.631274 289.187634 
Q 120.295169 289.202508 120.692791 288.755051 
Q 121.090448 288.306033 121.108051 287.520293 
Q 121.12576 286.729866 120.748506 286.268175 
Q 120.371287 285.804923 119.707391 285.790049 
z
M 121.733971 282.742488 
L 121.713848 283.6407 
Q 121.345986 283.457415 120.97002 283.356782 
Q 120.59409 283.254586 120.222308 283.246257 
Q 119.245991 283.224384 118.715727 283.872045 
Q 118.187025 284.51974 118.083753 285.850574 
Q 118.3807 285.43212 118.820041 285.215343 
Q 119.260943 284.998601 119.782688 285.01029 
Q 120.880849 285.034893 121.503246 285.716192 
Q 122.125678 286.395928 122.09999 287.542515 
Q 122.074827 288.665671 121.395708 289.330315 
Q 120.716624 289.993396 119.613775 289.968688 
Q 118.348468 289.940341 117.701583 288.956856 
Q 117.054734 287.971808 117.09596 286.131645 
Q 117.134666 284.403953 117.977801 283.394459 
Q 118.820935 282.384965 120.201839 282.415902 
Q 120.573621 282.424232 120.950006 282.50612 
Q 121.326391 282.588008 121.733971 282.742488 
z
" clip-path="url(#p514e4dbc11)" style="fill: #3b0f70"/>
   </g>
   <g id="text_17">
    <path d="M 178.270921 196.553849 
Q 178.846314 196.114654 179.46881 196.125047 
Q 180.091136 196.133237 180.625321 196.590435 
Q 181.444406 197.291473 181.411711 198.240398 
Q 181.377828 199.188307 180.488831 200.227002 
Q 180.191144 200.574816 179.806319 200.88507 
Q 179.421493 201.195324 178.947497 201.470391 
L 178.224566 200.851649 
Q 178.67238 200.696082 179.081963 200.404961 
Q 179.492562 200.112653 179.839017 199.707859 
Q 180.441503 199.003921 180.479702 198.396996 
Q 180.5179 197.790071 179.987275 197.335921 
Q 179.497012 196.916314 178.927986 197.023669 
Q 178.357774 197.130008 177.834536 197.741354 
L 177.281834 198.387125 
L 176.665739 197.859822 
L 177.243841 197.184374 
Q 177.71628 196.632382 177.746434 196.150198 
Q 177.776589 195.668015 177.361111 195.312416 
Q 176.934949 194.947673 176.447951 195.055307 
Q 175.960782 195.160738 175.478183 195.7246 
Q 175.214024 196.033241 174.979937 196.443715 
Q 174.744662 196.853174 174.523043 197.395662 
L 173.855904 196.824671 
Q 174.102955 196.295723 174.362624 195.872181 
Q 174.622293 195.448638 174.90474 195.11863 
Q 175.635241 194.26512 176.448103 194.101151 
Q 177.260793 193.93498 177.920809 194.499874 
Q 178.381396 194.894081 178.472795 195.428884 
Q 178.564194 195.963686 178.270921 196.553849 
z
M 183.373385 195.362075 
L 185.611625 192.74694 
L 186.241964 193.286434 
L 183.232582 196.802563 
L 182.602243 196.263069 
Q 182.525393 195.458956 182.412199 194.086953 
Q 182.298834 192.712747 182.244329 192.33909 
Q 182.148569 191.633967 181.990338 191.251742 
Q 181.833123 190.86833 181.562469 190.636683 
Q 181.120875 190.258732 180.577923 190.330817 
Q 180.033785 190.401885 179.608082 190.899271 
Q 179.306331 191.251834 179.093321 191.748218 
Q 178.881328 192.243414 178.749616 192.901928 
L 177.992259 192.253723 
Q 178.197731 191.645998 178.441433 191.173827 
Q 178.686152 190.700469 178.965551 190.374022 
Q 179.702149 189.51339 180.570953 189.370565 
Q 181.43857 189.226725 182.15794 189.842419 
Q 182.499819 190.135026 182.696358 190.525357 
Q 182.892726 190.913486 183.018644 191.607402 
Q 183.047421 191.79245 183.135724 192.729763 
Q 183.225042 193.665889 183.373385 195.362075 
z
" clip-path="url(#p514e4dbc11)" style="fill: #8c2981; stroke: #ffffff; stroke-width: 5"/>
    <path d="M 178.270921 196.553849 
Q 178.846314 196.114654 179.46881 196.125047 
Q 180.091136 196.133237 180.625321 196.590435 
Q 181.444406 197.291473 181.411711 198.240398 
Q 181.377828 199.188307 180.488831 200.227002 
Q 180.191144 200.574816 179.806319 200.88507 
Q 179.421493 201.195324 178.947497 201.470391 
L 178.224566 200.851649 
Q 178.67238 200.696082 179.081963 200.404961 
Q 179.492562 200.112653 179.839017 199.707859 
Q 180.441503 199.003921 180.479702 198.396996 
Q 180.5179 197.790071 179.987275 197.335921 
Q 179.497012 196.916314 178.927986 197.023669 
Q 178.357774 197.130008 177.834536 197.741354 
L 177.281834 198.387125 
L 176.665739 197.859822 
L 177.243841 197.184374 
Q 177.71628 196.632382 177.746434 196.150198 
Q 177.776589 195.668015 177.361111 195.312416 
Q 176.934949 194.947673 176.447951 195.055307 
Q 175.960782 195.160738 175.478183 195.7246 
Q 175.214024 196.033241 174.979937 196.443715 
Q 174.744662 196.853174 174.523043 197.395662 
L 173.855904 196.824671 
Q 174.102955 196.295723 174.362624 195.872181 
Q 174.622293 195.448638 174.90474 195.11863 
Q 175.635241 194.26512 176.448103 194.101151 
Q 177.260793 193.93498 177.920809 194.499874 
Q 178.381396 194.894081 178.472795 195.428884 
Q 178.564194 195.963686 178.270921 196.553849 
z
M 183.373385 195.362075 
L 185.611625 192.74694 
L 186.241964 193.286434 
L 183.232582 196.802563 
L 182.602243 196.263069 
Q 182.525393 195.458956 182.412199 194.086953 
Q 182.298834 192.712747 182.244329 192.33909 
Q 182.148569 191.633967 181.990338 191.251742 
Q 181.833123 190.86833 181.562469 190.636683 
Q 181.120875 190.258732 180.577923 190.330817 
Q 180.033785 190.401885 179.608082 190.899271 
Q 179.306331 191.251834 179.093321 191.748218 
Q 178.881328 192.243414 178.749616 192.901928 
L 177.992259 192.253723 
Q 178.197731 191.645998 178.441433 191.173827 
Q 178.686152 190.700469 178.965551 190.374022 
Q 179.702149 189.51339 180.570953 189.370565 
Q 181.43857 189.226725 182.15794 189.842419 
Q 182.499819 190.135026 182.696358 190.525357 
Q 182.892726 190.913486 183.018644 191.607402 
Q 183.047421 191.79245 183.135724 192.729763 
Q 183.225042 193.665889 183.373385 195.362075 
z
" clip-path="url(#p514e4dbc11)" style="fill: #8c2981"/>
   </g>
   <g id="text_18">
    <path d="M 241.830326 172.5944 
Q 241.16683 172.621818 240.796872 173.092182 
Q 240.428412 173.56092 240.461055 174.35087 
Q 240.493505 175.136138 240.899577 175.577561 
Q 241.307145 176.017358 241.970642 175.98994 
Q 242.634138 175.962522 243.00247 175.490662 
Q 243.370737 175.01724 243.338287 174.231973 
Q 243.305643 173.442022 242.899765 173.005283 
Q 242.493822 172.566982 241.830326 172.5944 
z
M 243.658798 169.424015 
L 243.695893 170.321686 
Q 243.31711 170.16219 242.935501 170.085693 
Q 242.553827 170.007635 242.18227 170.022989 
Q 241.20654 170.06331 240.718579 170.743412 
Q 240.232179 171.423449 240.213834 172.758157 
Q 240.483541 172.321649 240.908191 172.077345 
Q 241.334403 171.832977 241.855833 171.811429 
Q 242.953334 171.766077 243.617837 172.406374 
Q 244.282276 173.04511 244.329628 174.191007 
Q 244.376013 175.313487 243.74058 176.020013 
Q 243.105082 176.724978 242.002898 176.770524 
Q 240.738352 176.822779 240.030175 175.882467 
Q 239.321932 174.940593 239.245936 173.101538 
Q 239.174585 171.374886 239.951748 170.313769 
Q 240.728912 169.252651 242.108984 169.195622 
Q 242.480542 169.180268 242.861377 169.23803 
Q 243.242211 169.295793 243.658798 169.424015 
z
M 248.566089 169.920262 
L 246.238289 173.911964 
L 248.726791 173.80913 
L 248.566089 169.920262 
z
M 248.271453 169.072329 
L 249.51102 169.021106 
L 249.707204 173.768616 
L 250.746942 173.725651 
L 250.780811 174.545264 
L 249.741073 174.588229 
L 249.812037 176.305514 
L 248.831624 176.346028 
L 248.76066 174.628743 
L 245.472841 174.764608 
L 245.433553 173.813857 
L 248.271453 169.072329 
z
" clip-path="url(#p514e4dbc11)" style="fill: #de4968; stroke: #ffffff; stroke-width: 5"/>
    <path d="M 241.830326 172.5944 
Q 241.16683 172.621818 240.796872 173.092182 
Q 240.428412 173.56092 240.461055 174.35087 
Q 240.493505 175.136138 240.899577 175.577561 
Q 241.307145 176.017358 241.970642 175.98994 
Q 242.634138 175.962522 243.00247 175.490662 
Q 243.370737 175.01724 243.338287 174.231973 
Q 243.305643 173.442022 242.899765 173.005283 
Q 242.493822 172.566982 241.830326 172.5944 
z
M 243.658798 169.424015 
L 243.695893 170.321686 
Q 243.31711 170.16219 242.935501 170.085693 
Q 242.553827 170.007635 242.18227 170.022989 
Q 241.20654 170.06331 240.718579 170.743412 
Q 240.232179 171.423449 240.213834 172.758157 
Q 240.483541 172.321649 240.908191 172.077345 
Q 241.334403 171.832977 241.855833 171.811429 
Q 242.953334 171.766077 243.617837 172.406374 
Q 244.282276 173.04511 244.329628 174.191007 
Q 244.376013 175.313487 243.74058 176.020013 
Q 243.105082 176.724978 242.002898 176.770524 
Q 240.738352 176.822779 240.030175 175.882467 
Q 239.321932 174.940593 239.245936 173.101538 
Q 239.174585 171.374886 239.951748 170.313769 
Q 240.728912 169.252651 242.108984 169.195622 
Q 242.480542 169.180268 242.861377 169.23803 
Q 243.242211 169.295793 243.658798 169.424015 
z
M 248.566089 169.920262 
L 246.238289 173.911964 
L 248.726791 173.80913 
L 248.566089 169.920262 
z
M 248.271453 169.072329 
L 249.51102 169.021106 
L 249.707204 173.768616 
L 250.746942 173.725651 
L 250.780811 174.545264 
L 249.741073 174.588229 
L 249.812037 176.305514 
L 248.831624 176.346028 
L 248.76066 174.628743 
L 245.472841 174.764608 
L 245.433553 173.813857 
L 248.271453 169.072329 
z
" clip-path="url(#p514e4dbc11)" style="fill: #de4968"/>
   </g>
   <g id="text_19">
    <path d="M 300.904385 132.847653 
L 302.515268 132.860838 
L 302.560794 127.298524 
L 300.804851 127.635727 
L 300.812204 126.737319 
L 302.558773 126.40004 
L 303.544677 126.40811 
L 303.491798 132.868831 
L 305.102682 132.882015 
L 305.095891 133.711675 
L 300.897594 133.677313 
L 300.904385 132.847653 
z
M 307.944579 132.905275 
L 311.386651 132.933448 
L 311.37986 133.763108 
L 306.75189 133.725229 
L 306.758681 132.895569 
Q 307.324357 132.31893 308.30108 131.348766 
Q 309.279378 130.377053 309.530135 130.094721 
Q 310.007904 129.567363 310.198416 129.20016 
Q 310.39049 128.83297 310.393406 128.476732 
Q 310.398163 127.895501 309.993357 127.526551 
Q 309.588563 127.156038 308.933897 127.15068 
Q 308.46985 127.146882 307.952926 127.303594 
Q 307.437563 127.460318 306.84896 127.783637 
L 306.857119 126.786795 
Q 307.454368 126.552613 307.972535 126.434975 
Q 308.492265 126.31735 308.921939 126.320867 
Q 310.054713 126.330138 310.723486 126.902818 
Q 311.392272 127.473936 311.384522 128.420779 
Q 311.380839 128.870764 311.208795 129.272495 
Q 311.038327 129.672675 310.588553 130.215887 
Q 310.465519 130.357073 309.805316 131.028254 
Q 309.146675 131.699449 307.944579 132.905275 
z
M 315.587551 130.33493 
Q 314.88445 130.329176 314.478256 130.702426 
Q 314.073625 131.07569 314.068241 131.73348 
Q 314.062845 132.392833 314.461312 132.772669 
Q 314.861341 133.152519 315.564443 133.158273 
Q 316.267544 133.164028 316.675313 132.789228 
Q 317.084657 132.412878 317.090015 131.758213 
Q 317.095399 131.100422 316.695369 130.720573 
Q 316.296902 130.340736 315.587551 130.33493 
z
M 314.605074 129.908125 
Q 313.971999 129.746688 313.620878 129.309425 
Q 313.271333 128.870612 313.276448 128.245633 
Q 313.283597 127.372225 313.909607 126.869519 
Q 314.53718 126.366826 315.619956 126.375688 
Q 316.708982 126.384601 317.325118 126.897474 
Q 317.941254 127.410346 317.934105 128.283755 
Q 317.92899 128.908734 317.570746 129.341754 
Q 317.214078 129.773224 316.583133 129.924315 
Q 317.294253 130.095766 317.687151 130.583373 
Q 318.081623 131.06943 318.07592 131.766282 
Q 318.067236 132.827184 317.415741 133.389058 
Q 316.764258 133.94937 315.558049 133.939497 
Q 314.353402 133.929638 313.709615 133.358724 
Q 313.067404 132.786262 313.076087 131.72536 
Q 313.081791 131.028508 313.485729 130.548985 
Q 313.891242 130.067913 314.605074 129.908125 
z
M 314.256898 128.347411 
Q 314.252269 128.913017 314.602786 129.233084 
Q 314.954866 129.553164 315.593907 129.558394 
Q 316.229823 129.563599 316.59022 129.24935 
Q 316.952179 128.935115 316.956808 128.369509 
Q 316.96145 127.80234 316.604683 127.482222 
Q 316.249479 127.162117 315.613562 127.156912 
Q 314.974521 127.151682 314.61725 127.465956 
Q 314.26154 127.780242 314.256898 128.347411 
z
" clip-path="url(#p514e4dbc11)" style="fill: #fe9f6d; stroke: #ffffff; stroke-width: 5"/>
    <path d="M 300.904385 132.847653 
L 302.515268 132.860838 
L 302.560794 127.298524 
L 300.804851 127.635727 
L 300.812204 126.737319 
L 302.558773 126.40004 
L 303.544677 126.40811 
L 303.491798 132.868831 
L 305.102682 132.882015 
L 305.095891 133.711675 
L 300.897594 133.677313 
L 300.904385 132.847653 
z
M 307.944579 132.905275 
L 311.386651 132.933448 
L 311.37986 133.763108 
L 306.75189 133.725229 
L 306.758681 132.895569 
Q 307.324357 132.31893 308.30108 131.348766 
Q 309.279378 130.377053 309.530135 130.094721 
Q 310.007904 129.567363 310.198416 129.20016 
Q 310.39049 128.83297 310.393406 128.476732 
Q 310.398163 127.895501 309.993357 127.526551 
Q 309.588563 127.156038 308.933897 127.15068 
Q 308.46985 127.146882 307.952926 127.303594 
Q 307.437563 127.460318 306.84896 127.783637 
L 306.857119 126.786795 
Q 307.454368 126.552613 307.972535 126.434975 
Q 308.492265 126.31735 308.921939 126.320867 
Q 310.054713 126.330138 310.723486 126.902818 
Q 311.392272 127.473936 311.384522 128.420779 
Q 311.380839 128.870764 311.208795 129.272495 
Q 311.038327 129.672675 310.588553 130.215887 
Q 310.465519 130.357073 309.805316 131.028254 
Q 309.146675 131.699449 307.944579 132.905275 
z
M 315.587551 130.33493 
Q 314.88445 130.329176 314.478256 130.702426 
Q 314.073625 131.07569 314.068241 131.73348 
Q 314.062845 132.392833 314.461312 132.772669 
Q 314.861341 133.152519 315.564443 133.158273 
Q 316.267544 133.164028 316.675313 132.789228 
Q 317.084657 132.412878 317.090015 131.758213 
Q 317.095399 131.100422 316.695369 130.720573 
Q 316.296902 130.340736 315.587551 130.33493 
z
M 314.605074 129.908125 
Q 313.971999 129.746688 313.620878 129.309425 
Q 313.271333 128.870612 313.276448 128.245633 
Q 313.283597 127.372225 313.909607 126.869519 
Q 314.53718 126.366826 315.619956 126.375688 
Q 316.708982 126.384601 317.325118 126.897474 
Q 317.941254 127.410346 317.934105 128.283755 
Q 317.92899 128.908734 317.570746 129.341754 
Q 317.214078 129.773224 316.583133 129.924315 
Q 317.294253 130.095766 317.687151 130.583373 
Q 318.081623 131.06943 318.07592 131.766282 
Q 318.067236 132.827184 317.415741 133.389058 
Q 316.764258 133.94937 315.558049 133.939497 
Q 314.353402 133.929638 313.709615 133.358724 
Q 313.067404 132.786262 313.076087 131.72536 
Q 313.081791 131.028508 313.485729 130.548985 
Q 313.891242 130.067913 314.605074 129.908125 
z
M 314.256898 128.347411 
Q 314.252269 128.913017 314.602786 129.233084 
Q 314.954866 129.553164 315.593907 129.558394 
Q 316.229823 129.563599 316.59022 129.24935 
Q 316.952179 128.935115 316.956808 128.369509 
Q 316.96145 127.80234 316.604683 127.482222 
Q 316.249479 127.162117 315.613562 127.156912 
Q 314.974521 127.151682 314.61725 127.465956 
Q 314.26154 127.780242 314.256898 128.347411 
z
" clip-path="url(#p514e4dbc11)" style="fill: #fe9f6d"/>
   </g>
   <g id="patch_3">
    <path d="M 34.240625 301.735725 
L 34.240625 35.623725 
" style="fill: none; stroke: #cccccc; stroke-width: 0.8; stroke-linejoin: miter; stroke-linecap: square"/>
   </g>
   <g id="patch_4">
    <path d="M 391.360625 301.735725 
L 391.360625 35.623725 
" style="fill: none; stroke: #cccccc; stroke-width: 0.8; stroke-linejoin: miter; stroke-linecap: square"/>
   </g>
   <g id="patch_5">
    <path d="M 34.240625 301.735725 
L 391.360625 301.735725 
" style="fill: none; stroke: #cccccc; stroke-width: 0.8; stroke-linejoin: miter; stroke-linecap: square"/>
   </g>
   <g id="patch_6">
    <path d="M 34.240625 35.623725 
L 391.360625 35.623725 
" style="fill: none; stroke: #cccccc; stroke-width: 0.8; stroke-linejoin: miter; stroke-linecap: square"/>
   </g>
   <g id="text_20">
    <!-- Block Size = 4M, Read-Write Type = Sequential Write-only -->
    <g style="fill: #262626; opacity: 0.75" transform="translate(67.670156 30.882918) scale(0.1 -0.1)">
     <defs>
      <path id="DejaVuSans-42" d="M 1259 2228 
L 1259 519 
L 2272 519 
Q 2781 519 3026 730 
Q 3272 941 3272 1375 
Q 3272 1813 3026 2020 
Q 2781 2228 2272 2228 
L 1259 2228 
z
M 1259 4147 
L 1259 2741 
L 2194 2741 
Q 2656 2741 2882 2914 
Q 3109 3088 3109 3444 
Q 3109 3797 2882 3972 
Q 2656 4147 2194 4147 
L 1259 4147 
z
M 628 4666 
L 2241 4666 
Q 2963 4666 3353 4366 
Q 3744 4066 3744 3513 
Q 3744 3084 3544 2831 
Q 3344 2578 2956 2516 
Q 3422 2416 3680 2098 
Q 3938 1781 3938 1306 
Q 3938 681 3513 340 
Q 3088 0 2303 0 
L 628 0 
L 628 4666 
z
" transform="scale(0.015625)"/>
      <path id="DejaVuSans-6c" d="M 603 4863 
L 1178 4863 
L 1178 0 
L 603 0 
L 603 4863 
z
" transform="scale(0.015625)"/>
      <path id="DejaVuSans-6f" d="M 1959 3097 
Q 1497 3097 1228 2736 
Q 959 2375 959 1747 
Q 959 1119 1226 758 
Q 1494 397 1959 397 
Q 2419 397 2687 759 
Q 2956 1122 2956 1747 
Q 2956 2369 2687 2733 
Q 2419 3097 1959 3097 
z
M 1959 3584 
Q 2709 3584 3137 3096 
Q 3566 2609 3566 1747 
Q 3566 888 3137 398 
Q 2709 -91 1959 -91 
Q 1206 -91 779 398 
Q 353 888 353 1747 
Q 353 2609 779 3096 
Q 1206 3584 1959 3584 
z
" transform="scale(0.015625)"/>
      <path id="DejaVuSans-6b" d="M 581 4863 
L 1159 4863 
L 1159 1991 
L 2875 3500 
L 3609 3500 
L 1753 1863 
L 3688 0 
L 2938 0 
L 1159 1709 
L 1159 0 
L 581 0 
L 581 4863 
z
" transform="scale(0.015625)"/>
      <path id="DejaVuSans-53" d="M 3425 4513 
L 3425 3897 
Q 3066 4069 2747 4153 
Q 2428 4238 2131 4238 
Q 1616 4238 1336 4038 
Q 1056 3838 1056 3469 
Q 1056 3159 1242 3001 
Q 1428 2844 1947 2747 
L 2328 2669 
Q 3034 2534 3370 2195 
Q 3706 1856 3706 1288 
Q 3706 609 3251 259 
Q 2797 -91 1919 -91 
Q 1588 -91 1214 -16 
Q 841 59 441 206 
L 441 856 
Q 825 641 1194 531 
Q 1563 422 1919 422 
Q 2459 422 2753 634 
Q 3047 847 3047 1241 
Q 3047 1584 2836 1778 
Q 2625 1972 2144 2069 
L 1759 2144 
Q 1053 2284 737 2584 
Q 422 2884 422 3419 
Q 422 4038 858 4394 
Q 1294 4750 2059 4750 
Q 2388 4750 2728 4690 
Q 3069 4631 3425 4513 
z
" transform="scale(0.015625)"/>
      <path id="DejaVuSans-69" d="M 603 3500 
L 1178 3500 
L 1178 0 
L 603 0 
L 603 3500 
z
M 603 4863 
L 1178 4863 
L 1178 4134 
L 603 4134 
L 603 4863 
z
" transform="scale(0.015625)"/>
      <path id="DejaVuSans-7a" d="M 353 3500 
L 3084 3500 
L 3084 2975 
L 922 459 
L 3084 459 
L 3084 0 
L 275 0 
L 275 525 
L 2438 3041 
L 353 3041 
L 353 3500 
z
" transform="scale(0.015625)"/>
      <path id="DejaVuSans-3d" d="M 678 2906 
L 4684 2906 
L 4684 2381 
L 678 2381 
L 678 2906 
z
M 678 1631 
L 4684 1631 
L 4684 1100 
L 678 1100 
L 678 1631 
z
" transform="scale(0.015625)"/>
      <path id="DejaVuSans-2c" d="M 750 794 
L 1409 794 
L 1409 256 
L 897 -744 
L 494 -744 
L 750 256 
L 750 794 
z
" transform="scale(0.015625)"/>
      <path id="DejaVuSans-52" d="M 2841 2188 
Q 3044 2119 3236 1894 
Q 3428 1669 3622 1275 
L 4263 0 
L 3584 0 
L 2988 1197 
Q 2756 1666 2539 1819 
Q 2322 1972 1947 1972 
L 1259 1972 
L 1259 0 
L 628 0 
L 628 4666 
L 2053 4666 
Q 2853 4666 3247 4331 
Q 3641 3997 3641 3322 
Q 3641 2881 3436 2590 
Q 3231 2300 2841 2188 
z
M 1259 4147 
L 1259 2491 
L 2053 2491 
Q 2509 2491 2742 2702 
Q 2975 2913 2975 3322 
Q 2975 3731 2742 3939 
Q 2509 4147 2053 4147 
L 1259 4147 
z
" transform="scale(0.015625)"/>
      <path id="DejaVuSans-64" d="M 2906 2969 
L 2906 4863 
L 3481 4863 
L 3481 0 
L 2906 0 
L 2906 525 
Q 2725 213 2448 61 
Q 2172 -91 1784 -91 
Q 1150 -91 751 415 
Q 353 922 353 1747 
Q 353 2572 751 3078 
Q 1150 3584 1784 3584 
Q 2172 3584 2448 3432 
Q 2725 3281 2906 2969 
z
M 947 1747 
Q 947 1113 1208 752 
Q 1469 391 1925 391 
Q 2381 391 2643 752 
Q 2906 1113 2906 1747 
Q 2906 2381 2643 2742 
Q 2381 3103 1925 3103 
Q 1469 3103 1208 2742 
Q 947 2381 947 1747 
z
" transform="scale(0.015625)"/>
      <path id="DejaVuSans-2d" d="M 313 2009 
L 1997 2009 
L 1997 1497 
L 313 1497 
L 313 2009 
z
" transform="scale(0.015625)"/>
      <path id="DejaVuSans-57" d="M 213 4666 
L 850 4666 
L 1831 722 
L 2809 4666 
L 3519 4666 
L 4500 722 
L 5478 4666 
L 6119 4666 
L 4947 0 
L 4153 0 
L 3169 4050 
L 2175 0 
L 1381 0 
L 213 4666 
z
" transform="scale(0.015625)"/>
      <path id="DejaVuSans-72" d="M 2631 2963 
Q 2534 3019 2420 3045 
Q 2306 3072 2169 3072 
Q 1681 3072 1420 2755 
Q 1159 2438 1159 1844 
L 1159 0 
L 581 0 
L 581 3500 
L 1159 3500 
L 1159 2956 
Q 1341 3275 1631 3429 
Q 1922 3584 2338 3584 
Q 2397 3584 2469 3576 
Q 2541 3569 2628 3553 
L 2631 2963 
z
" transform="scale(0.015625)"/>
      <path id="DejaVuSans-54" d="M -19 4666 
L 3928 4666 
L 3928 4134 
L 2272 4134 
L 2272 0 
L 1638 0 
L 1638 4134 
L -19 4134 
L -19 4666 
z
" transform="scale(0.015625)"/>
      <path id="DejaVuSans-71" d="M 947 1747 
Q 947 1113 1208 752 
Q 1469 391 1925 391 
Q 2381 391 2643 752 
Q 2906 1113 2906 1747 
Q 2906 2381 2643 2742 
Q 2381 3103 1925 3103 
Q 1469 3103 1208 2742 
Q 947 2381 947 1747 
z
M 2906 525 
Q 2725 213 2448 61 
Q 2172 -91 1784 -91 
Q 1150 -91 751 415 
Q 353 922 353 1747 
Q 353 2572 751 3078 
Q 1150 3584 1784 3584 
Q 2172 3584 2448 3432 
Q 2725 3281 2906 2969 
L 2906 3500 
L 3481 3500 
L 3481 -1331 
L 2906 -1331 
L 2906 525 
z
" transform="scale(0.015625)"/>
      <path id="DejaVuSans-75" d="M 544 1381 
L 544 3500 
L 1119 3500 
L 1119 1403 
Q 1119 906 1312 657 
Q 1506 409 1894 409 
Q 2359 409 2629 706 
Q 2900 1003 2900 1516 
L 2900 3500 
L 3475 3500 
L 3475 0 
L 2900 0 
L 2900 538 
Q 2691 219 2414 64 
Q 2138 -91 1772 -91 
Q 1169 -91 856 284 
Q 544 659 544 1381 
z
M 1991 3584 
L 1991 3584 
z
" transform="scale(0.015625)"/>
     </defs>
     <use xlink:href="#DejaVuSans-42"/>
     <use xlink:href="#DejaVuSans-6c" transform="translate(68.603516 0)"/>
     <use xlink:href="#DejaVuSans-6f" transform="translate(96.386719 0)"/>
     <use xlink:href="#DejaVuSans-63" transform="translate(157.568359 0)"/>
     <use xlink:href="#DejaVuSans-6b" transform="translate(212.548828 0)"/>
     <use xlink:href="#DejaVuSans-20" transform="translate(270.458984 0)"/>
     <use xlink:href="#DejaVuSans-53" transform="translate(302.246094 0)"/>
     <use xlink:href="#DejaVuSans-69" transform="translate(365.722656 0)"/>
     <use xlink:href="#DejaVuSans-7a" transform="translate(393.505859 0)"/>
     <use xlink:href="#DejaVuSans-65" transform="translate(445.996094 0)"/>
     <use xlink:href="#DejaVuSans-20" transform="translate(507.519531 0)"/>
     <use xlink:href="#DejaVuSans-3d" transform="translate(539.306641 0)"/>
     <use xlink:href="#DejaVuSans-20" transform="translate(623.095703 0)"/>
     <use xlink:href="#DejaVuSans-34" transform="translate(654.882812 0)"/>
     <use xlink:href="#DejaVuSans-4d" transform="translate(718.505859 0)"/>
     <use xlink:href="#DejaVuSans-2c" transform="translate(804.785156 0)"/>
     <use xlink:href="#DejaVuSans-20" transform="translate(836.572266 0)"/>
     <use xlink:href="#DejaVuSans-52" transform="translate(868.359375 0)"/>
     <use xlink:href="#DejaVuSans-65" transform="translate(933.341797 0)"/>
     <use xlink:href="#DejaVuSans-61" transform="translate(994.865234 0)"/>
     <use xlink:href="#DejaVuSans-64" transform="translate(1056.144531 0)"/>
     <use xlink:href="#DejaVuSans-2d" transform="translate(1119.621094 0)"/>
     <use xlink:href="#DejaVuSans-57" transform="translate(1151.705078 0)"/>
     <use xlink:href="#DejaVuSans-72" transform="translate(1246.082031 0)"/>
     <use xlink:href="#DejaVuSans-69" transform="translate(1287.195312 0)"/>
     <use xlink:href="#DejaVuSans-74" transform="translate(1314.978516 0)"/>
     <use xlink:href="#DejaVuSans-65" transform="translate(1354.1875 0)"/>
     <use xlink:href="#DejaVuSans-20" transform="translate(1415.710938 0)"/>
     <use xlink:href="#DejaVuSans-54" transform="translate(1447.498047 0)"/>
     <use xlink:href="#DejaVuSans-79" transform="translate(1492.957031 0)"/>
     <use xlink:href="#DejaVuSans-70" transform="translate(1552.136719 0)"/>
     <use xlink:href="#DejaVuSans-65" transform="translate(1615.613281 0)"/>
     <use xlink:href="#DejaVuSans-20" transform="translate(1677.136719 0)"/>
     <use xlink:href="#DejaVuSans-3d" transform="translate(1708.923828 0)"/>
     <use xlink:href="#DejaVuSans-20" transform="translate(1792.712891 0)"/>
     <use xlink:href="#DejaVuSans-53" transform="translate(1824.5 0)"/>
     <use xlink:href="#DejaVuSans-65" transform="translate(1887.976562 0)"/>
     <use xlink:href="#DejaVuSans-71" transform="translate(1949.5 0)"/>
     <use xlink:href="#DejaVuSans-75" transform="translate(2012.976562 0)"/>
     <use xlink:href="#DejaVuSans-65" transform="translate(2076.355469 0)"/>
     <use xlink:href="#DejaVuSans-6e" transform="translate(2137.878906 0)"/>
     <use xlink:href="#DejaVuSans-74" transform="translate(2201.257812 0)"/>
     <use xlink:href="#DejaVuSans-69" transform="translate(2240.466797 0)"/>
     <use xlink:href="#DejaVuSans-61" transform="translate(2268.25 0)"/>
     <use xlink:href="#DejaVuSans-6c" transform="translate(2329.529297 0)"/>
     <use xlink:href="#DejaVuSans-20" transform="translate(2357.3125 0)"/>
     <use xlink:href="#DejaVuSans-57" transform="translate(2389.099609 0)"/>
     <use xlink:href="#DejaVuSans-72" transform="translate(2483.476562 0)"/>
     <use xlink:href="#DejaVuSans-69" transform="translate(2524.589844 0)"/>
     <use xlink:href="#DejaVuSans-74" transform="translate(2552.373047 0)"/>
     <use xlink:href="#DejaVuSans-65" transform="translate(2591.582031 0)"/>
     <use xlink:href="#DejaVuSans-2d" transform="translate(2653.105469 0)"/>
     <use xlink:href="#DejaVuSans-6f" transform="translate(2691.064453 0)"/>
     <use xlink:href="#DejaVuSans-6e" transform="translate(2752.246094 0)"/>
     <use xlink:href="#DejaVuSans-6c" transform="translate(2815.625 0)"/>
     <use xlink:href="#DejaVuSans-79" transform="translate(2843.408203 0)"/>
    </g>
   </g>
   <g id="text_21">
    <!-- Mean Latency vs IO Depth -->
    <g style="fill: #262626" transform="translate(124.235938 16.318125) scale(0.12 -0.12)">
     <defs>
      <path id="DejaVuSans-Bold-4d" d="M 588 4666 
L 2119 4666 
L 3181 2169 
L 4250 4666 
L 5778 4666 
L 5778 0 
L 4641 0 
L 4641 3413 
L 3566 897 
L 2803 897 
L 1728 3413 
L 1728 0 
L 588 0 
L 588 4666 
z
" transform="scale(0.015625)"/>
      <path id="DejaVuSans-Bold-65" d="M 4031 1759 
L 4031 1441 
L 1416 1441 
Q 1456 1047 1700 850 
Q 1944 653 2381 653 
Q 2734 653 3104 758 
Q 3475 863 3866 1075 
L 3866 213 
Q 3469 63 3072 -14 
Q 2675 -91 2278 -91 
Q 1328 -91 801 392 
Q 275 875 275 1747 
Q 275 2603 792 3093 
Q 1309 3584 2216 3584 
Q 3041 3584 3536 3087 
Q 4031 2591 4031 1759 
z
M 2881 2131 
Q 2881 2450 2695 2645 
Q 2509 2841 2209 2841 
Q 1884 2841 1681 2658 
Q 1478 2475 1428 2131 
L 2881 2131 
z
" transform="scale(0.015625)"/>
      <path id="DejaVuSans-Bold-61" d="M 2106 1575 
Q 1756 1575 1579 1456 
Q 1403 1338 1403 1106 
Q 1403 894 1545 773 
Q 1688 653 1941 653 
Q 2256 653 2472 879 
Q 2688 1106 2688 1447 
L 2688 1575 
L 2106 1575 
z
M 3816 1997 
L 3816 0 
L 2688 0 
L 2688 519 
Q 2463 200 2181 54 
Q 1900 -91 1497 -91 
Q 953 -91 614 226 
Q 275 544 275 1050 
Q 275 1666 698 1953 
Q 1122 2241 2028 2241 
L 2688 2241 
L 2688 2328 
Q 2688 2594 2478 2717 
Q 2269 2841 1825 2841 
Q 1466 2841 1156 2769 
Q 847 2697 581 2553 
L 581 3406 
Q 941 3494 1303 3539 
Q 1666 3584 2028 3584 
Q 2975 3584 3395 3211 
Q 3816 2838 3816 1997 
z
" transform="scale(0.015625)"/>
      <path id="DejaVuSans-Bold-6e" d="M 4056 2131 
L 4056 0 
L 2931 0 
L 2931 347 
L 2931 1631 
Q 2931 2084 2911 2256 
Q 2891 2428 2841 2509 
Q 2775 2619 2662 2680 
Q 2550 2741 2406 2741 
Q 2056 2741 1856 2470 
Q 1656 2200 1656 1722 
L 1656 0 
L 538 0 
L 538 3500 
L 1656 3500 
L 1656 2988 
Q 1909 3294 2193 3439 
Q 2478 3584 2822 3584 
Q 3428 3584 3742 3212 
Q 4056 2841 4056 2131 
z
" transform="scale(0.015625)"/>
      <path id="DejaVuSans-Bold-20" transform="scale(0.015625)"/>
      <path id="DejaVuSans-Bold-4c" d="M 588 4666 
L 1791 4666 
L 1791 909 
L 3903 909 
L 3903 0 
L 588 0 
L 588 4666 
z
" transform="scale(0.015625)"/>
      <path id="DejaVuSans-Bold-74" d="M 1759 4494 
L 1759 3500 
L 2913 3500 
L 2913 2700 
L 1759 2700 
L 1759 1216 
Q 1759 972 1856 886 
Q 1953 800 2241 800 
L 2816 800 
L 2816 0 
L 1856 0 
Q 1194 0 917 276 
Q 641 553 641 1216 
L 641 2700 
L 84 2700 
L 84 3500 
L 641 3500 
L 641 4494 
L 1759 4494 
z
" transform="scale(0.015625)"/>
      <path id="DejaVuSans-Bold-63" d="M 3366 3391 
L 3366 2478 
Q 3138 2634 2908 2709 
Q 2678 2784 2431 2784 
Q 1963 2784 1702 2511 
Q 1441 2238 1441 1747 
Q 1441 1256 1702 982 
Q 1963 709 2431 709 
Q 2694 709 2930 787 
Q 3166 866 3366 1019 
L 3366 103 
Q 3103 6 2833 -42 
Q 2563 -91 2291 -91 
Q 1344 -91 809 395 
Q 275 881 275 1747 
Q 275 2613 809 3098 
Q 1344 3584 2291 3584 
Q 2566 3584 2833 3536 
Q 3100 3488 3366 3391 
z
" transform="scale(0.015625)"/>
      <path id="DejaVuSans-Bold-79" d="M 78 3500 
L 1197 3500 
L 2138 1125 
L 2938 3500 
L 4056 3500 
L 2584 -331 
Q 2363 -916 2067 -1148 
Q 1772 -1381 1288 -1381 
L 641 -1381 
L 641 -647 
L 991 -647 
Q 1275 -647 1404 -556 
Q 1534 -466 1606 -231 
L 1638 -134 
L 78 3500 
z
" transform="scale(0.015625)"/>
      <path id="DejaVuSans-Bold-76" d="M 97 3500 
L 1216 3500 
L 2088 1081 
L 2956 3500 
L 4078 3500 
L 2700 0 
L 1472 0 
L 97 3500 
z
" transform="scale(0.015625)"/>
      <path id="DejaVuSans-Bold-73" d="M 3272 3391 
L 3272 2541 
Q 2913 2691 2578 2766 
Q 2244 2841 1947 2841 
Q 1628 2841 1473 2761 
Q 1319 2681 1319 2516 
Q 1319 2381 1436 2309 
Q 1553 2238 1856 2203 
L 2053 2175 
Q 2913 2066 3209 1816 
Q 3506 1566 3506 1031 
Q 3506 472 3093 190 
Q 2681 -91 1863 -91 
Q 1516 -91 1145 -36 
Q 775 19 384 128 
L 384 978 
Q 719 816 1070 734 
Q 1422 653 1784 653 
Q 2113 653 2278 743 
Q 2444 834 2444 1013 
Q 2444 1163 2330 1236 
Q 2216 1309 1875 1350 
L 1678 1375 
Q 931 1469 631 1722 
Q 331 1975 331 2491 
Q 331 3047 712 3315 
Q 1094 3584 1881 3584 
Q 2191 3584 2531 3537 
Q 2872 3491 3272 3391 
z
" transform="scale(0.015625)"/>
      <path id="DejaVuSans-Bold-49" d="M 588 4666 
L 1791 4666 
L 1791 0 
L 588 0 
L 588 4666 
z
" transform="scale(0.015625)"/>
      <path id="DejaVuSans-Bold-4f" d="M 2719 3878 
Q 2169 3878 1866 3472 
Q 1563 3066 1563 2328 
Q 1563 1594 1866 1187 
Q 2169 781 2719 781 
Q 3272 781 3575 1187 
Q 3878 1594 3878 2328 
Q 3878 3066 3575 3472 
Q 3272 3878 2719 3878 
z
M 2719 4750 
Q 3844 4750 4481 4106 
Q 5119 3463 5119 2328 
Q 5119 1197 4481 553 
Q 3844 -91 2719 -91 
Q 1597 -91 958 553 
Q 319 1197 319 2328 
Q 319 3463 958 4106 
Q 1597 4750 2719 4750 
z
" transform="scale(0.015625)"/>
      <path id="DejaVuSans-Bold-44" d="M 1791 3756 
L 1791 909 
L 2222 909 
Q 2959 909 3348 1275 
Q 3738 1641 3738 2338 
Q 3738 3031 3350 3393 
Q 2963 3756 2222 3756 
L 1791 3756 
z
M 588 4666 
L 1856 4666 
Q 2919 4666 3439 4514 
Q 3959 4363 4331 4000 
Q 4659 3684 4818 3271 
Q 4978 2859 4978 2338 
Q 4978 1809 4818 1395 
Q 4659 981 4331 666 
Q 3956 303 3431 151 
Q 2906 0 1856 0 
L 588 0 
L 588 4666 
z
" transform="scale(0.015625)"/>
      <path id="DejaVuSans-Bold-70" d="M 1656 506 
L 1656 -1331 
L 538 -1331 
L 538 3500 
L 1656 3500 
L 1656 2988 
Q 1888 3294 2169 3439 
Q 2450 3584 2816 3584 
Q 3463 3584 3878 3070 
Q 4294 2556 4294 1747 
Q 4294 938 3878 423 
Q 3463 -91 2816 -91 
Q 2450 -91 2169 54 
Q 1888 200 1656 506 
z
M 2400 2772 
Q 2041 2772 1848 2508 
Q 1656 2244 1656 1747 
Q 1656 1250 1848 986 
Q 2041 722 2400 722 
Q 2759 722 2948 984 
Q 3138 1247 3138 1747 
Q 3138 2247 2948 2509 
Q 2759 2772 2400 2772 
z
" transform="scale(0.015625)"/>
      <path id="DejaVuSans-Bold-68" d="M 4056 2131 
L 4056 0 
L 2931 0 
L 2931 347 
L 2931 1625 
Q 2931 2084 2911 2256 
Q 2891 2428 2841 2509 
Q 2775 2619 2662 2680 
Q 2550 2741 2406 2741 
Q 2056 2741 1856 2470 
Q 1656 2200 1656 1722 
L 1656 0 
L 538 0 
L 538 4863 
L 1656 4863 
L 1656 2988 
Q 1909 3294 2193 3439 
Q 2478 3584 2822 3584 
Q 3428 3584 3742 3212 
Q 4056 2841 4056 2131 
z
" transform="scale(0.015625)"/>
     </defs>
     <use xlink:href="#DejaVuSans-Bold-4d"/>
     <use xlink:href="#DejaVuSans-Bold-65" transform="translate(99.511719 0)"/>
     <use xlink:href="#DejaVuSans-Bold-61" transform="translate(167.333984 0)"/>
     <use xlink:href="#DejaVuSans-Bold-6e" transform="translate(234.814453 0)"/>
     <use xlink:href="#DejaVuSans-Bold-20" transform="translate(306.005859 0)"/>
     <use xlink:href="#DejaVuSans-Bold-4c" transform="translate(340.820312 0)"/>
     <use xlink:href="#DejaVuSans-Bold-61" transform="translate(404.541016 0)"/>
     <use xlink:href="#DejaVuSans-Bold-74" transform="translate(472.021484 0)"/>
     <use xlink:href="#DejaVuSans-Bold-65" transform="translate(519.824219 0)"/>
     <use xlink:href="#DejaVuSans-Bold-6e" transform="translate(587.646484 0)"/>
     <use xlink:href="#DejaVuSans-Bold-63" transform="translate(658.837891 0)"/>
     <use xlink:href="#DejaVuSans-Bold-79" transform="translate(718.115234 0)"/>
     <use xlink:href="#DejaVuSans-Bold-20" transform="translate(783.300781 0)"/>
     <use xlink:href="#DejaVuSans-Bold-76" transform="translate(818.115234 0)"/>
     <use xlink:href="#DejaVuSans-Bold-73" transform="translate(883.300781 0)"/>
     <use xlink:href="#DejaVuSans-Bold-20" transform="translate(942.822266 0)"/>
     <use xlink:href="#DejaVuSans-Bold-49" transform="translate(977.636719 0)"/>
     <use xlink:href="#DejaVuSans-Bold-4f" transform="translate(1014.84375 0)"/>
     <use xlink:href="#DejaVuSans-Bold-20" transform="translate(1099.853516 0)"/>
     <use xlink:href="#DejaVuSans-Bold-44" transform="translate(1134.667969 0)"/>
     <use xlink:href="#DejaVuSans-Bold-65" transform="translate(1217.675781 0)"/>
     <use xlink:href="#DejaVuSans-Bold-70" transform="translate(1285.498047 0)"/>
     <use xlink:href="#DejaVuSans-Bold-74" transform="translate(1357.080078 0)"/>
     <use xlink:href="#DejaVuSans-Bold-68" transform="translate(1404.882812 0)"/>
    </g>
   </g>
   <g id="legend_1">
    <g id="text_22">
     <!-- Number of Jobs -->
     <g style="fill: #262626" transform="translate(394.846875 142.08285) scale(0.1 -0.1)">
      <defs>
       <path id="DejaVuSans-4e" d="M 628 4666 
L 1478 4666 
L 3547 763 
L 3547 4666 
L 4159 4666 
L 4159 0 
L 3309 0 
L 1241 3903 
L 1241 0 
L 628 0 
L 628 4666 
z
" transform="scale(0.015625)"/>
       <path id="DejaVuSans-6d" d="M 3328 2828 
Q 3544 3216 3844 3400 
Q 4144 3584 4550 3584 
Q 5097 3584 5394 3201 
Q 5691 2819 5691 2113 
L 5691 0 
L 5113 0 
L 5113 2094 
Q 5113 2597 4934 2840 
Q 4756 3084 4391 3084 
Q 3944 3084 3684 2787 
Q 3425 2491 3425 1978 
L 3425 0 
L 2847 0 
L 2847 2094 
Q 2847 2600 2669 2842 
Q 2491 3084 2119 3084 
Q 1678 3084 1418 2786 
Q 1159 2488 1159 1978 
L 1159 0 
L 581 0 
L 581 3500 
L 1159 3500 
L 1159 2956 
Q 1356 3278 1631 3431 
Q 1906 3584 2284 3584 
Q 2666 3584 2933 3390 
Q 3200 3197 3328 2828 
z
" transform="scale(0.015625)"/>
       <path id="DejaVuSans-62" d="M 3116 1747 
Q 3116 2381 2855 2742 
Q 2594 3103 2138 3103 
Q 1681 3103 1420 2742 
Q 1159 2381 1159 1747 
Q 1159 1113 1420 752 
Q 1681 391 2138 391 
Q 2594 391 2855 752 
Q 3116 1113 3116 1747 
z
M 1159 2969 
Q 1341 3281 1617 3432 
Q 1894 3584 2278 3584 
Q 2916 3584 3314 3078 
Q 3713 2572 3713 1747 
Q 3713 922 3314 415 
Q 2916 -91 2278 -91 
Q 1894 -91 1617 61 
Q 1341 213 1159 525 
L 1159 0 
L 581 0 
L 581 4863 
L 1159 4863 
L 1159 2969 
z
" transform="scale(0.015625)"/>
       <path id="DejaVuSans-66" d="M 2375 4863 
L 2375 4384 
L 1825 4384 
Q 1516 4384 1395 4259 
Q 1275 4134 1275 3809 
L 1275 3500 
L 2222 3500 
L 2222 3053 
L 1275 3053 
L 1275 0 
L 697 0 
L 697 3053 
L 147 3053 
L 147 3500 
L 697 3500 
L 697 3744 
Q 697 4328 969 4595 
Q 1241 4863 1831 4863 
L 2375 4863 
z
" transform="scale(0.015625)"/>
       <path id="DejaVuSans-4a" d="M 628 4666 
L 1259 4666 
L 1259 325 
Q 1259 -519 939 -900 
Q 619 -1281 -91 -1281 
L -331 -1281 
L -331 -750 
L -134 -750 
Q 284 -750 456 -515 
Q 628 -281 628 325 
L 628 4666 
z
" transform="scale(0.015625)"/>
      </defs>
      <use xlink:href="#DejaVuSans-4e"/>
      <use xlink:href="#DejaVuSans-75" transform="translate(74.804688 0)"/>
      <use xlink:href="#DejaVuSans-6d" transform="translate(138.183594 0)"/>
      <use xlink:href="#DejaVuSans-62" transform="translate(235.595703 0)"/>
      <use xlink:href="#DejaVuSans-65" transform="translate(299.072266 0)"/>
      <use xlink:href="#DejaVuSans-72" transform="translate(360.595703 0)"/>
      <use xlink:href="#DejaVuSans-20" transform="translate(401.708984 0)"/>
      <use xlink:href="#DejaVuSans-6f" transform="translate(433.496094 0)"/>
      <use xlink:href="#DejaVuSans-66" transform="translate(494.677734 0)"/>
      <use xlink:href="#DejaVuSans-20" transform="translate(529.882812 0)"/>
      <use xlink:href="#DejaVuSans-4a" transform="translate(561.669922 0)"/>
      <use xlink:href="#DejaVuSans-6f" transform="translate(591.162109 0)"/>
      <use xlink:href="#DejaVuSans-62" transform="translate(652.34375 0)"/>
      <use xlink:href="#DejaVuSans-73" transform="translate(715.820312 0)"/>
     </g>
    </g>
    <g id="line2d_21">
     <path d="M 409.7 153.260975 
L 419.7 153.260975 
L 429.7 153.260975 
" style="fill: none; stroke: #3b0f70; stroke-width: 1.5; stroke-linecap: round"/>
    </g>
    <g id="text_23">
     <!-- 16 -->
     <g style="fill: #262626" transform="translate(437.7 156.760975) scale(0.1 -0.1)">
      <use xlink:href="#DejaVuSans-31"/>
      <use xlink:href="#DejaVuSans-36" transform="translate(63.623047 0)"/>
     </g>
    </g>
    <g id="line2d_22">
     <path d="M 409.7 167.9391 
L 419.7 167.9391 
L 429.7 167.9391 
" style="fill: none; stroke: #8c2981; stroke-width: 1.5; stroke-linecap: round"/>
    </g>
    <g id="text_24">
     <!-- 32 -->
     <g style="fill: #262626" transform="translate(437.7 171.4391) scale(0.1 -0.1)">
      <use xlink:href="#DejaVuSans-33"/>
      <use xlink:href="#DejaVuSans-32" transform="translate(63.623047 0)"/>
     </g>
    </g>
    <g id="line2d_23">
     <path d="M 409.7 182.617225 
L 419.7 182.617225 
L 429.7 182.617225 
" style="fill: none; stroke: #de4968; stroke-width: 1.5; stroke-linecap: round"/>
    </g>
    <g id="text_25">
     <!-- 64 -->
     <g style="fill: #262626" transform="translate(437.7 186.117225) scale(0.1 -0.1)">
      <use xlink:href="#DejaVuSans-36"/>
      <use xlink:href="#DejaVuSans-34" transform="translate(63.623047 0)"/>
     </g>
    </g>
    <g id="line2d_24">
     <path d="M 409.7 197.29535 
L 419.7 197.29535 
L 429.7 197.29535 
" style="fill: none; stroke: #fe9f6d; stroke-width: 1.5; stroke-linecap: round"/>
    </g>
    <g id="text_26">
     <!-- 128 -->
     <g style="fill: #262626" transform="translate(437.7 200.79535) scale(0.1 -0.1)">
      <use xlink:href="#DejaVuSans-31"/>
      <use xlink:href="#DejaVuSans-32" transform="translate(63.623047 0)"/>
      <use xlink:href="#DejaVuSans-38" transform="translate(127.246094 0)"/>
     </g>
    </g>
   </g>
  </g>
 </g>
 <defs>
  <clipPath id="p514e4dbc11">
   <rect x="34.240625" y="35.623725" width="357.12" height="266.112"/>
  </clipPath>
 </defs>
</svg>
