<?xml version="1.0" encoding="utf-8" standalone="no"?>
<!DOCTYPE svg PUBLIC "-//W3C//DTD SVG 1.1//EN"
  "http://www.w3.org/Graphics/SVG/1.1/DTD/svg11.dtd">
<svg xmlns:xlink="http://www.w3.org/1999/xlink" width="482.840625pt" height="339.291975pt" viewBox="0 0 482.840625 339.291975" xmlns="http://www.w3.org/2000/svg" version="1.1">
 <metadata>
  <rdf:RDF xmlns:dc="http://purl.org/dc/elements/1.1/" xmlns:cc="http://creativecommons.org/ns#" xmlns:rdf="http://www.w3.org/1999/02/22-rdf-syntax-ns#">
   <cc:Work>
    <dc:type rdf:resource="http://purl.org/dc/dcmitype/StillImage"/>
    <dc:date>2025-09-11T11:47:28.447564</dc:date>
    <dc:format>image/svg+xml</dc:format>
    <dc:creator>
     <cc:Agent>
      <dc:title>Matplotlib v3.10.6, https://matplotlib.org/</dc:title>
     </cc:Agent>
    </dc:creator>
   </cc:Work>
  </rdf:RDF>
 </metadata>
 <defs>
  <style type="text/css">*{stroke-linejoin: round; stroke-linecap: butt}</style>
 </defs>
 <g id="figure_1">
  <g id="patch_1">
   <path d="M 0 339.291975 
L 482.840625 339.291975 
L 482.840625 0 
L 0 0 
z
" style="fill: #ffffff"/>
  </g>
  <g id="axes_1">
   <g id="patch_2">
    <path d="M 34.240625 301.735725 
L 391.360625 301.735725 
L 391.360625 35.623725 
L 34.240625 35.623725 
z
" style="fill: #ffffff"/>
   </g>
   <g id="matplotlib.axis_1">
    <g id="xtick_1">
     <g id="line2d_1">
      <path d="M 375.127898 301.735725 
L 375.127898 35.623725 
" clip-path="url(#pd1e722dce4)" style="fill: none; stroke: #cccccc; stroke-width: 0.8; stroke-linecap: round"/>
     </g>
     <g id="text_1">
      <!-- 128 -->
      <g style="fill: #262626" transform="translate(365.584148 316.334162) scale(0.1 -0.1)">
       <defs>
        <path id="DejaVuSans-31" d="M 794 531 
L 1825 531 
L 1825 4091 
L 703 3866 
L 703 4441 
L 1819 4666 
L 2450 4666 
L 2450 531 
L 3481 531 
L 3481 0 
L 794 0 
L 794 531 
z
" transform="scale(0.015625)"/>
        <path id="DejaVuSans-32" d="M 1228 531 
L 3431 531 
L 3431 0 
L 469 0 
L 469 531 
Q 828 903 1448 1529 
Q 2069 2156 2228 2338 
Q 2531 2678 2651 2914 
Q 2772 3150 2772 3378 
Q 2772 3750 2511 3984 
Q 2250 4219 1831 4219 
Q 1534 4219 1204 4116 
Q 875 4013 500 3803 
L 500 4441 
Q 881 4594 1212 4672 
Q 1544 4750 1819 4750 
Q 2544 4750 2975 4387 
Q 3406 4025 3406 3419 
Q 3406 3131 3298 2873 
Q 3191 2616 2906 2266 
Q 2828 2175 2409 1742 
Q 1991 1309 1228 531 
z
" transform="scale(0.015625)"/>
        <path id="DejaVuSans-38" d="M 2034 2216 
Q 1584 2216 1326 1975 
Q 1069 1734 1069 1313 
Q 1069 891 1326 650 
Q 1584 409 2034 409 
Q 2484 409 2743 651 
Q 3003 894 3003 1313 
Q 3003 1734 2745 1975 
Q 2488 2216 2034 2216 
z
M 1403 2484 
Q 997 2584 770 2862 
Q 544 3141 544 3541 
Q 544 4100 942 4425 
Q 1341 4750 2034 4750 
Q 2731 4750 3128 4425 
Q 3525 4100 3525 3541 
Q 3525 3141 3298 2862 
Q 3072 2584 2669 2484 
Q 3125 2378 3379 2068 
Q 3634 1759 3634 1313 
Q 3634 634 3220 271 
Q 2806 -91 2034 -91 
Q 1263 -91 848 271 
Q 434 634 434 1313 
Q 434 1759 690 2068 
Q 947 2378 1403 2484 
z
M 1172 3481 
Q 1172 3119 1398 2916 
Q 1625 2713 2034 2713 
Q 2441 2713 2670 2916 
Q 2900 3119 2900 3481 
Q 2900 3844 2670 4047 
Q 2441 4250 2034 4250 
Q 1625 4250 1398 4047 
Q 1172 3844 1172 3481 
z
" transform="scale(0.015625)"/>
       </defs>
       <use xlink:href="#DejaVuSans-31"/>
       <use xlink:href="#DejaVuSans-32" transform="translate(63.623047 0)"/>
       <use xlink:href="#DejaVuSans-38" transform="translate(127.246094 0)"/>
      </g>
     </g>
    </g>
    <g id="xtick_2">
     <g id="line2d_2">
      <path d="M 50.473352 301.735725 
L 50.473352 35.623725 
" clip-path="url(#pd1e722dce4)" style="fill: none; stroke: #cccccc; stroke-width: 0.8; stroke-linecap: round"/>
     </g>
     <g id="text_2">
      <!-- 16 -->
      <g style="fill: #262626" transform="translate(44.110852 316.334162) scale(0.1 -0.1)">
       <defs>
        <path id="DejaVuSans-36" d="M 2113 2584 
Q 1688 2584 1439 2293 
Q 1191 2003 1191 1497 
Q 1191 994 1439 701 
Q 1688 409 2113 409 
Q 2538 409 2786 701 
Q 3034 994 3034 1497 
Q 3034 2003 2786 2293 
Q 2538 2584 2113 2584 
z
M 3366 4563 
L 3366 3988 
Q 3128 4100 2886 4159 
Q 2644 4219 2406 4219 
Q 1781 4219 1451 3797 
Q 1122 3375 1075 2522 
Q 1259 2794 1537 2939 
Q 1816 3084 2150 3084 
Q 2853 3084 3261 2657 
Q 3669 2231 3669 1497 
Q 3669 778 3244 343 
Q 2819 -91 2113 -91 
Q 1303 -91 875 529 
Q 447 1150 447 2328 
Q 447 3434 972 4092 
Q 1497 4750 2381 4750 
Q 2619 4750 2861 4703 
Q 3103 4656 3366 4563 
z
" transform="scale(0.015625)"/>
       </defs>
       <use xlink:href="#DejaVuSans-31"/>
       <use xlink:href="#DejaVuSans-36" transform="translate(63.623047 0)"/>
      </g>
     </g>
    </g>
    <g id="xtick_3">
     <g id="line2d_3">
      <path d="M 189.611015 301.735725 
L 189.611015 35.623725 
" clip-path="url(#pd1e722dce4)" style="fill: none; stroke: #cccccc; stroke-width: 0.8; stroke-linecap: round"/>
     </g>
     <g id="text_3">
      <!-- 64 -->
      <g style="fill: #262626" transform="translate(183.248515 316.334162) scale(0.1 -0.1)">
       <defs>
        <path id="DejaVuSans-34" d="M 2419 4116 
L 825 1625 
L 2419 1625 
L 2419 4116 
z
M 2253 4666 
L 3047 4666 
L 3047 1625 
L 3713 1625 
L 3713 1100 
L 3047 1100 
L 3047 0 
L 2419 0 
L 2419 1100 
L 313 1100 
L 313 1709 
L 2253 4666 
z
" transform="scale(0.015625)"/>
       </defs>
       <use xlink:href="#DejaVuSans-36"/>
       <use xlink:href="#DejaVuSans-34" transform="translate(63.623047 0)"/>
      </g>
     </g>
    </g>
    <g id="xtick_4">
     <g id="line2d_4">
      <path d="M 96.852573 301.735725 
L 96.852573 35.623725 
" clip-path="url(#pd1e722dce4)" style="fill: none; stroke: #cccccc; stroke-width: 0.8; stroke-linecap: round"/>
     </g>
     <g id="text_4">
      <!-- 32 -->
      <g style="fill: #262626" transform="translate(90.490073 316.334162) scale(0.1 -0.1)">
       <defs>
        <path id="DejaVuSans-33" d="M 2597 2516 
Q 3050 2419 3304 2112 
Q 3559 1806 3559 1356 
Q 3559 666 3084 287 
Q 2609 -91 1734 -91 
Q 1441 -91 1130 -33 
Q 819 25 488 141 
L 488 750 
Q 750 597 1062 519 
Q 1375 441 1716 441 
Q 2309 441 2620 675 
Q 2931 909 2931 1356 
Q 2931 1769 2642 2001 
Q 2353 2234 1838 2234 
L 1294 2234 
L 1294 2753 
L 1863 2753 
Q 2328 2753 2575 2939 
Q 2822 3125 2822 3475 
Q 2822 3834 2567 4026 
Q 2313 4219 1838 4219 
Q 1578 4219 1281 4162 
Q 984 4106 628 3988 
L 628 4550 
Q 988 4650 1302 4700 
Q 1616 4750 1894 4750 
Q 2613 4750 3031 4423 
Q 3450 4097 3450 3541 
Q 3450 3153 3228 2886 
Q 3006 2619 2597 2516 
z
" transform="scale(0.015625)"/>
       </defs>
       <use xlink:href="#DejaVuSans-33"/>
       <use xlink:href="#DejaVuSans-32" transform="translate(63.623047 0)"/>
      </g>
     </g>
    </g>
    <g id="text_5">
     <!-- Number of Jobs -->
     <g style="fill: #262626" transform="translate(174.40375 330.012287) scale(0.1 -0.1)">
      <defs>
       <path id="DejaVuSans-4e" d="M 628 4666 
L 1478 4666 
L 3547 763 
L 3547 4666 
L 4159 4666 
L 4159 0 
L 3309 0 
L 1241 3903 
L 1241 0 
L 628 0 
L 628 4666 
z
" transform="scale(0.015625)"/>
       <path id="DejaVuSans-75" d="M 544 1381 
L 544 3500 
L 1119 3500 
L 1119 1403 
Q 1119 906 1312 657 
Q 1506 409 1894 409 
Q 2359 409 2629 706 
Q 2900 1003 2900 1516 
L 2900 3500 
L 3475 3500 
L 3475 0 
L 2900 0 
L 2900 538 
Q 2691 219 2414 64 
Q 2138 -91 1772 -91 
Q 1169 -91 856 284 
Q 544 659 544 1381 
z
M 1991 3584 
L 1991 3584 
z
" transform="scale(0.015625)"/>
       <path id="DejaVuSans-6d" d="M 3328 2828 
Q 3544 3216 3844 3400 
Q 4144 3584 4550 3584 
Q 5097 3584 5394 3201 
Q 5691 2819 5691 2113 
L 5691 0 
L 5113 0 
L 5113 2094 
Q 5113 2597 4934 2840 
Q 4756 3084 4391 3084 
Q 3944 3084 3684 2787 
Q 3425 2491 3425 1978 
L 3425 0 
L 2847 0 
L 2847 2094 
Q 2847 2600 2669 2842 
Q 2491 3084 2119 3084 
Q 1678 3084 1418 2786 
Q 1159 2488 1159 1978 
L 1159 0 
L 581 0 
L 581 3500 
L 1159 3500 
L 1159 2956 
Q 1356 3278 1631 3431 
Q 1906 3584 2284 3584 
Q 2666 3584 2933 3390 
Q 3200 3197 3328 2828 
z
" transform="scale(0.015625)"/>
       <path id="DejaVuSans-62" d="M 3116 1747 
Q 3116 2381 2855 2742 
Q 2594 3103 2138 3103 
Q 1681 3103 1420 2742 
Q 1159 2381 1159 1747 
Q 1159 1113 1420 752 
Q 1681 391 2138 391 
Q 2594 391 2855 752 
Q 3116 1113 3116 1747 
z
M 1159 2969 
Q 1341 3281 1617 3432 
Q 1894 3584 2278 3584 
Q 2916 3584 3314 3078 
Q 3713 2572 3713 1747 
Q 3713 922 3314 415 
Q 2916 -91 2278 -91 
Q 1894 -91 1617 61 
Q 1341 213 1159 525 
L 1159 0 
L 581 0 
L 581 4863 
L 1159 4863 
L 1159 2969 
z
" transform="scale(0.015625)"/>
       <path id="DejaVuSans-65" d="M 3597 1894 
L 3597 1613 
L 953 1613 
Q 991 1019 1311 708 
Q 1631 397 2203 397 
Q 2534 397 2845 478 
Q 3156 559 3463 722 
L 3463 178 
Q 3153 47 2828 -22 
Q 2503 -91 2169 -91 
Q 1331 -91 842 396 
Q 353 884 353 1716 
Q 353 2575 817 3079 
Q 1281 3584 2069 3584 
Q 2775 3584 3186 3129 
Q 3597 2675 3597 1894 
z
M 3022 2063 
Q 3016 2534 2758 2815 
Q 2500 3097 2075 3097 
Q 1594 3097 1305 2825 
Q 1016 2553 972 2059 
L 3022 2063 
z
" transform="scale(0.015625)"/>
       <path id="DejaVuSans-72" d="M 2631 2963 
Q 2534 3019 2420 3045 
Q 2306 3072 2169 3072 
Q 1681 3072 1420 2755 
Q 1159 2438 1159 1844 
L 1159 0 
L 581 0 
L 581 3500 
L 1159 3500 
L 1159 2956 
Q 1341 3275 1631 3429 
Q 1922 3584 2338 3584 
Q 2397 3584 2469 3576 
Q 2541 3569 2628 3553 
L 2631 2963 
z
" transform="scale(0.015625)"/>
       <path id="DejaVuSans-20" transform="scale(0.015625)"/>
       <path id="DejaVuSans-6f" d="M 1959 3097 
Q 1497 3097 1228 2736 
Q 959 2375 959 1747 
Q 959 1119 1226 758 
Q 1494 397 1959 397 
Q 2419 397 2687 759 
Q 2956 1122 2956 1747 
Q 2956 2369 2687 2733 
Q 2419 3097 1959 3097 
z
M 1959 3584 
Q 2709 3584 3137 3096 
Q 3566 2609 3566 1747 
Q 3566 888 3137 398 
Q 2709 -91 1959 -91 
Q 1206 -91 779 398 
Q 353 888 353 1747 
Q 353 2609 779 3096 
Q 1206 3584 1959 3584 
z
" transform="scale(0.015625)"/>
       <path id="DejaVuSans-66" d="M 2375 4863 
L 2375 4384 
L 1825 4384 
Q 1516 4384 1395 4259 
Q 1275 4134 1275 3809 
L 1275 3500 
L 2222 3500 
L 2222 3053 
L 1275 3053 
L 1275 0 
L 697 0 
L 697 3053 
L 147 3053 
L 147 3500 
L 697 3500 
L 697 3744 
Q 697 4328 969 4595 
Q 1241 4863 1831 4863 
L 2375 4863 
z
" transform="scale(0.015625)"/>
       <path id="DejaVuSans-4a" d="M 628 4666 
L 1259 4666 
L 1259 325 
Q 1259 -519 939 -900 
Q 619 -1281 -91 -1281 
L -331 -1281 
L -331 -750 
L -134 -750 
Q 284 -750 456 -515 
Q 628 -281 628 325 
L 628 4666 
z
" transform="scale(0.015625)"/>
       <path id="DejaVuSans-73" d="M 2834 3397 
L 2834 2853 
Q 2591 2978 2328 3040 
Q 2066 3103 1784 3103 
Q 1356 3103 1142 2972 
Q 928 2841 928 2578 
Q 928 2378 1081 2264 
Q 1234 2150 1697 2047 
L 1894 2003 
Q 2506 1872 2764 1633 
Q 3022 1394 3022 966 
Q 3022 478 2636 193 
Q 2250 -91 1575 -91 
Q 1294 -91 989 -36 
Q 684 19 347 128 
L 347 722 
Q 666 556 975 473 
Q 1284 391 1588 391 
Q 1994 391 2212 530 
Q 2431 669 2431 922 
Q 2431 1156 2273 1281 
Q 2116 1406 1581 1522 
L 1381 1569 
Q 847 1681 609 1914 
Q 372 2147 372 2553 
Q 372 3047 722 3315 
Q 1072 3584 1716 3584 
Q 2034 3584 2315 3537 
Q 2597 3491 2834 3397 
z
" transform="scale(0.015625)"/>
      </defs>
      <use xlink:href="#DejaVuSans-4e"/>
      <use xlink:href="#DejaVuSans-75" transform="translate(74.804688 0)"/>
      <use xlink:href="#DejaVuSans-6d" transform="translate(138.183594 0)"/>
      <use xlink:href="#DejaVuSans-62" transform="translate(235.595703 0)"/>
      <use xlink:href="#DejaVuSans-65" transform="translate(299.072266 0)"/>
      <use xlink:href="#DejaVuSans-72" transform="translate(360.595703 0)"/>
      <use xlink:href="#DejaVuSans-20" transform="translate(401.708984 0)"/>
      <use xlink:href="#DejaVuSans-6f" transform="translate(433.496094 0)"/>
      <use xlink:href="#DejaVuSans-66" transform="translate(494.677734 0)"/>
      <use xlink:href="#DejaVuSans-20" transform="translate(529.882812 0)"/>
      <use xlink:href="#DejaVuSans-4a" transform="translate(561.669922 0)"/>
      <use xlink:href="#DejaVuSans-6f" transform="translate(591.162109 0)"/>
      <use xlink:href="#DejaVuSans-62" transform="translate(652.34375 0)"/>
      <use xlink:href="#DejaVuSans-73" transform="translate(715.820312 0)"/>
     </g>
    </g>
   </g>
   <g id="matplotlib.axis_2">
    <g id="ytick_1">
     <g id="line2d_5">
      <path d="M 34.240625 262.736849 
L 391.360625 262.736849 
" clip-path="url(#pd1e722dce4)" style="fill: none; stroke: #cccccc; stroke-width: 0.8; stroke-linecap: round"/>
     </g>
     <g id="text_6">
      <!-- 1 -->
      <g style="fill: #262626" transform="translate(20.878125 266.536068) scale(0.1 -0.1)">
       <use xlink:href="#DejaVuSans-31"/>
      </g>
     </g>
    </g>
    <g id="ytick_2">
     <g id="line2d_6">
      <path d="M 34.240625 223.10073 
L 391.360625 223.10073 
" clip-path="url(#pd1e722dce4)" style="fill: none; stroke: #cccccc; stroke-width: 0.8; stroke-linecap: round"/>
     </g>
     <g id="text_7">
      <!-- 2 -->
      <g style="fill: #262626" transform="translate(20.878125 226.899948) scale(0.1 -0.1)">
       <use xlink:href="#DejaVuSans-32"/>
      </g>
     </g>
    </g>
    <g id="ytick_3">
     <g id="line2d_7">
      <path d="M 34.240625 183.46461 
L 391.360625 183.46461 
" clip-path="url(#pd1e722dce4)" style="fill: none; stroke: #cccccc; stroke-width: 0.8; stroke-linecap: round"/>
     </g>
     <g id="text_8">
      <!-- 3 -->
      <g style="fill: #262626" transform="translate(20.878125 187.263829) scale(0.1 -0.1)">
       <use xlink:href="#DejaVuSans-33"/>
      </g>
     </g>
    </g>
    <g id="ytick_4">
     <g id="line2d_8">
      <path d="M 34.240625 143.82849 
L 391.360625 143.82849 
" clip-path="url(#pd1e722dce4)" style="fill: none; stroke: #cccccc; stroke-width: 0.8; stroke-linecap: round"/>
     </g>
     <g id="text_9">
      <!-- 4 -->
      <g style="fill: #262626" transform="translate(20.878125 147.627709) scale(0.1 -0.1)">
       <use xlink:href="#DejaVuSans-34"/>
      </g>
     </g>
    </g>
    <g id="ytick_5">
     <g id="line2d_9">
      <path d="M 34.240625 104.192371 
L 391.360625 104.192371 
" clip-path="url(#pd1e722dce4)" style="fill: none; stroke: #cccccc; stroke-width: 0.8; stroke-linecap: round"/>
     </g>
     <g id="text_10">
      <!-- 5 -->
      <g style="fill: #262626" transform="translate(20.878125 107.99159) scale(0.1 -0.1)">
       <defs>
        <path id="DejaVuSans-35" d="M 691 4666 
L 3169 4666 
L 3169 4134 
L 1269 4134 
L 1269 2991 
Q 1406 3038 1543 3061 
Q 1681 3084 1819 3084 
Q 2600 3084 3056 2656 
Q 3513 2228 3513 1497 
Q 3513 744 3044 326 
Q 2575 -91 1722 -91 
Q 1428 -91 1123 -41 
Q 819 9 494 109 
L 494 744 
Q 775 591 1075 516 
Q 1375 441 1709 441 
Q 2250 441 2565 725 
Q 2881 1009 2881 1497 
Q 2881 1984 2565 2268 
Q 2250 2553 1709 2553 
Q 1456 2553 1204 2497 
Q 953 2441 691 2322 
L 691 4666 
z
" transform="scale(0.015625)"/>
       </defs>
       <use xlink:href="#DejaVuSans-35"/>
      </g>
     </g>
    </g>
    <g id="ytick_6">
     <g id="line2d_10">
      <path d="M 34.240625 64.556251 
L 391.360625 64.556251 
" clip-path="url(#pd1e722dce4)" style="fill: none; stroke: #cccccc; stroke-width: 0.8; stroke-linecap: round"/>
     </g>
     <g id="text_11">
      <!-- 6 -->
      <g style="fill: #262626" transform="translate(20.878125 68.35547) scale(0.1 -0.1)">
       <use xlink:href="#DejaVuSans-36"/>
      </g>
     </g>
    </g>
    <g id="text_12">
     <!-- Mean Latency (ns) -->
     <g style="fill: #262626" transform="translate(14.798438 214.92035) rotate(-90) scale(0.1 -0.1)">
      <defs>
       <path id="DejaVuSans-4d" d="M 628 4666 
L 1569 4666 
L 2759 1491 
L 3956 4666 
L 4897 4666 
L 4897 0 
L 4281 0 
L 4281 4097 
L 3078 897 
L 2444 897 
L 1241 4097 
L 1241 0 
L 628 0 
L 628 4666 
z
" transform="scale(0.015625)"/>
       <path id="DejaVuSans-61" d="M 2194 1759 
Q 1497 1759 1228 1600 
Q 959 1441 959 1056 
Q 959 750 1161 570 
Q 1363 391 1709 391 
Q 2188 391 2477 730 
Q 2766 1069 2766 1631 
L 2766 1759 
L 2194 1759 
z
M 3341 1997 
L 3341 0 
L 2766 0 
L 2766 531 
Q 2569 213 2275 61 
Q 1981 -91 1556 -91 
Q 1019 -91 701 211 
Q 384 513 384 1019 
Q 384 1609 779 1909 
Q 1175 2209 1959 2209 
L 2766 2209 
L 2766 2266 
Q 2766 2663 2505 2880 
Q 2244 3097 1772 3097 
Q 1472 3097 1187 3025 
Q 903 2953 641 2809 
L 641 3341 
Q 956 3463 1253 3523 
Q 1550 3584 1831 3584 
Q 2591 3584 2966 3190 
Q 3341 2797 3341 1997 
z
" transform="scale(0.015625)"/>
       <path id="DejaVuSans-6e" d="M 3513 2113 
L 3513 0 
L 2938 0 
L 2938 2094 
Q 2938 2591 2744 2837 
Q 2550 3084 2163 3084 
Q 1697 3084 1428 2787 
Q 1159 2491 1159 1978 
L 1159 0 
L 581 0 
L 581 3500 
L 1159 3500 
L 1159 2956 
Q 1366 3272 1645 3428 
Q 1925 3584 2291 3584 
Q 2894 3584 3203 3211 
Q 3513 2838 3513 2113 
z
" transform="scale(0.015625)"/>
       <path id="DejaVuSans-4c" d="M 628 4666 
L 1259 4666 
L 1259 531 
L 3531 531 
L 3531 0 
L 628 0 
L 628 4666 
z
" transform="scale(0.015625)"/>
       <path id="DejaVuSans-74" d="M 1172 4494 
L 1172 3500 
L 2356 3500 
L 2356 3053 
L 1172 3053 
L 1172 1153 
Q 1172 725 1289 603 
Q 1406 481 1766 481 
L 2356 481 
L 2356 0 
L 1766 0 
Q 1100 0 847 248 
Q 594 497 594 1153 
L 594 3053 
L 172 3053 
L 172 3500 
L 594 3500 
L 594 4494 
L 1172 4494 
z
" transform="scale(0.015625)"/>
       <path id="DejaVuSans-63" d="M 3122 3366 
L 3122 2828 
Q 2878 2963 2633 3030 
Q 2388 3097 2138 3097 
Q 1578 3097 1268 2742 
Q 959 2388 959 1747 
Q 959 1106 1268 751 
Q 1578 397 2138 397 
Q 2388 397 2633 464 
Q 2878 531 3122 666 
L 3122 134 
Q 2881 22 2623 -34 
Q 2366 -91 2075 -91 
Q 1284 -91 818 406 
Q 353 903 353 1747 
Q 353 2603 823 3093 
Q 1294 3584 2113 3584 
Q 2378 3584 2631 3529 
Q 2884 3475 3122 3366 
z
" transform="scale(0.015625)"/>
       <path id="DejaVuSans-79" d="M 2059 -325 
Q 1816 -950 1584 -1140 
Q 1353 -1331 966 -1331 
L 506 -1331 
L 506 -850 
L 844 -850 
Q 1081 -850 1212 -737 
Q 1344 -625 1503 -206 
L 1606 56 
L 191 3500 
L 800 3500 
L 1894 763 
L 2988 3500 
L 3597 3500 
L 2059 -325 
z
" transform="scale(0.015625)"/>
       <path id="DejaVuSans-28" d="M 1984 4856 
Q 1566 4138 1362 3434 
Q 1159 2731 1159 2009 
Q 1159 1288 1364 580 
Q 1569 -128 1984 -844 
L 1484 -844 
Q 1016 -109 783 600 
Q 550 1309 550 2009 
Q 550 2706 781 3412 
Q 1013 4119 1484 4856 
L 1984 4856 
z
" transform="scale(0.015625)"/>
       <path id="DejaVuSans-29" d="M 513 4856 
L 1013 4856 
Q 1481 4119 1714 3412 
Q 1947 2706 1947 2009 
Q 1947 1309 1714 600 
Q 1481 -109 1013 -844 
L 513 -844 
Q 928 -128 1133 580 
Q 1338 1288 1338 2009 
Q 1338 2731 1133 3434 
Q 928 4138 513 4856 
z
" transform="scale(0.015625)"/>
      </defs>
      <use xlink:href="#DejaVuSans-4d"/>
      <use xlink:href="#DejaVuSans-65" transform="translate(86.279297 0)"/>
      <use xlink:href="#DejaVuSans-61" transform="translate(147.802734 0)"/>
      <use xlink:href="#DejaVuSans-6e" transform="translate(209.082031 0)"/>
      <use xlink:href="#DejaVuSans-20" transform="translate(272.460938 0)"/>
      <use xlink:href="#DejaVuSans-4c" transform="translate(304.248047 0)"/>
      <use xlink:href="#DejaVuSans-61" transform="translate(359.960938 0)"/>
      <use xlink:href="#DejaVuSans-74" transform="translate(421.240234 0)"/>
      <use xlink:href="#DejaVuSans-65" transform="translate(460.449219 0)"/>
      <use xlink:href="#DejaVuSans-6e" transform="translate(521.972656 0)"/>
      <use xlink:href="#DejaVuSans-63" transform="translate(585.351562 0)"/>
      <use xlink:href="#DejaVuSans-79" transform="translate(640.332031 0)"/>
      <use xlink:href="#DejaVuSans-20" transform="translate(699.511719 0)"/>
      <use xlink:href="#DejaVuSans-28" transform="translate(731.298828 0)"/>
      <use xlink:href="#DejaVuSans-6e" transform="translate(770.3125 0)"/>
      <use xlink:href="#DejaVuSans-73" transform="translate(833.691406 0)"/>
      <use xlink:href="#DejaVuSans-29" transform="translate(885.791016 0)"/>
     </g>
    </g>
    <g id="text_13">
     <!-- 1e7 -->
     <g style="fill: #262626" transform="translate(34.240625 32.623725) scale(0.1 -0.1)">
      <defs>
       <path id="DejaVuSans-37" d="M 525 4666 
L 3525 4666 
L 3525 4397 
L 1831 0 
L 1172 0 
L 2766 4134 
L 525 4134 
L 525 4666 
z
" transform="scale(0.015625)"/>
      </defs>
      <use xlink:href="#DejaVuSans-31"/>
      <use xlink:href="#DejaVuSans-65" transform="translate(63.623047 0)"/>
      <use xlink:href="#DejaVuSans-37" transform="translate(125.146484 0)"/>
     </g>
    </g>
   </g>
   <g id="FillBetweenPolyCollection_1"/>
   <g id="FillBetweenPolyCollection_2"/>
   <g id="FillBetweenPolyCollection_3"/>
   <g id="FillBetweenPolyCollection_4"/>
   <g id="FillBetweenPolyCollection_5"/>
   <g id="FillBetweenPolyCollection_6"/>
   <g id="FillBetweenPolyCollection_7"/>
   <g id="line2d_11">
    <path d="M 50.473352 287.899242 
L 96.852573 271.610204 
L 189.611015 190.057844 
L 375.127898 84.854461 
" clip-path="url(#pd1e722dce4)" style="fill: none; stroke: #4c02a1; stroke-width: 1.5; stroke-linecap: round"/>
   </g>
   <g id="line2d_12">
    <path d="M 50.473352 289.639725 
L 96.852573 273.741802 
L 189.611015 194.154484 
L 375.127898 69.211587 
" clip-path="url(#pd1e722dce4)" style="fill: none; stroke: #7e03a8; stroke-width: 1.5; stroke-linecap: round"/>
   </g>
   <g id="line2d_13">
    <path d="M 50.473352 281.761224 
L 96.852573 264.324179 
L 189.611015 209.993006 
L 375.127898 47.719725 
" clip-path="url(#pd1e722dce4)" style="fill: none; stroke: #aa2395; stroke-width: 1.5; stroke-linecap: round"/>
   </g>
   <g id="line2d_14">
    <path d="M 50.473352 283.294951 
L 96.852573 268.086108 
L 189.611015 198.679946 
L 375.127898 84.471609 
" clip-path="url(#pd1e722dce4)" style="fill: none; stroke: #cc4778; stroke-width: 1.5; stroke-linecap: round"/>
   </g>
   <g id="line2d_15">
    <path d="M 50.473352 288.57981 
L 96.852573 263.919129 
L 189.611015 210.46353 
L 375.127898 99.096565 
" clip-path="url(#pd1e722dce4)" style="fill: none; stroke: #e66c5c; stroke-width: 1.5; stroke-linecap: round"/>
   </g>
   <g id="line2d_16">
    <path d="M 50.473352 283.721081 
L 96.852573 266.592596 
L 189.611015 210.483023 
L 375.127898 92.046719 
" clip-path="url(#pd1e722dce4)" style="fill: none; stroke: #f89540; stroke-width: 1.5; stroke-linecap: round"/>
   </g>
   <g id="line2d_17">
    <path d="M 50.473352 288.407673 
L 96.852573 262.66971 
L 189.611015 203.913878 
L 375.127898 96.5797 
" clip-path="url(#pd1e722dce4)" style="fill: none; stroke: #fdc527; stroke-width: 1.5; stroke-linecap: round"/>
   </g>
   <g id="line2d_18"/>
   <g id="line2d_19"/>
   <g id="line2d_20"/>
   <g id="line2d_21"/>
   <g id="line2d_22"/>
   <g id="line2d_23"/>
   <g id="line2d_24"/>
   <g id="text_14">
    <path d="M 91.081086 275.682474 
L 92.601007 275.148656 
L 90.757757 269.900434 
L 89.22018 270.813068 
L 88.922464 269.965392 
L 90.451196 269.055864 
L 91.381428 268.729154 
L 93.522394 274.825052 
L 95.042315 274.291235 
L 95.317249 275.074045 
L 91.35602 276.465285 
L 91.081086 275.682474 
z
" clip-path="url(#pd1e722dce4)" style="fill: #4c02a1; stroke: #ffffff; stroke-width: 5"/>
    <path d="M 91.081086 275.682474 
L 92.601007 275.148656 
L 90.757757 269.900434 
L 89.22018 270.813068 
L 88.922464 269.965392 
L 90.451196 269.055864 
L 91.381428 268.729154 
L 93.522394 274.825052 
L 95.042315 274.291235 
L 95.317249 275.074045 
L 91.35602 276.465285 
L 91.081086 275.682474 
z
" clip-path="url(#pd1e722dce4)" style="fill: #4c02a1"/>
   </g>
   <g id="text_15">
    <path d="M 130.511788 240.023779 
L 131.156043 244.599505 
L 133.046259 242.977687 
L 130.511788 240.023779 
z
M 129.755341 239.540468 
L 130.696892 238.732611 
L 133.790962 242.338728 
L 134.580727 241.661105 
L 135.114889 242.283667 
L 134.325124 242.96129 
L 135.444321 244.265705 
L 134.699618 244.904665 
L 133.580422 243.600249 
L 131.083058 245.743002 
L 130.46343 245.02083 
L 129.755341 239.540468 
z
" clip-path="url(#pd1e722dce4)" style="fill: #7e03a8; stroke: #ffffff; stroke-width: 5"/>
    <path d="M 130.511788 240.023779 
L 131.156043 244.599505 
L 133.046259 242.977687 
L 130.511788 240.023779 
z
M 129.755341 239.540468 
L 130.696892 238.732611 
L 133.790962 242.338728 
L 134.580727 241.661105 
L 135.114889 242.283667 
L 134.325124 242.96129 
L 135.444321 244.265705 
L 134.699618 244.904665 
L 133.580422 243.600249 
L 131.083058 245.743002 
L 130.46343 245.02083 
L 129.755341 239.540468 
z
" clip-path="url(#pd1e722dce4)" style="fill: #7e03a8"/>
   </g>
   <g id="text_16">
    <path d="M 172.266561 219.33727 
Q 171.65985 219.692638 171.502321 220.221309 
Q 171.34614 220.749191 171.678606 221.316803 
Q 172.011862 221.885764 172.548681 222.007737 
Q 173.086848 222.128921 173.693559 221.773553 
Q 174.30027 221.418186 174.458358 220.887376 
Q 174.617004 220.354428 174.286117 219.789513 
Q 173.953651 219.221901 173.415484 219.100717 
Q 172.878665 218.978744 172.266561 219.33727 
z
M 171.204176 219.474244 
Q 170.577817 219.66004 170.052226 219.46449 
Q 169.527195 219.266803 169.211312 218.727504 
Q 168.769867 217.973833 169.049815 217.22135 
Q 169.331111 216.468077 170.265447 215.920811 
Q 171.205175 215.370386 171.997084 215.495053 
Q 172.788992 215.619721 173.230438 216.373391 
Q 173.54632 216.91269 173.460596 217.468114 
Q 173.37543 218.021401 172.911057 218.474477 
Q 173.609567 218.257285 174.19683 218.474657 
Q 174.784652 218.68989 175.136861 219.291208 
Q 175.673071 220.206669 175.40156 221.02302 
Q 175.129259 221.838024 174.088412 222.447677 
Q 173.048913 223.05654 172.203517 222.896202 
Q 171.358679 222.733727 170.822469 221.818267 
Q 170.47026 221.216948 170.571393 220.598175 
Q 170.673084 219.977264 171.204176 219.474244 
z
M 170.105394 218.312463 
Q 170.391267 218.800529 170.856282 218.89575 
Q 171.322644 218.990181 171.874077 218.667191 
Q 172.422814 218.345781 172.571252 217.891244 
Q 172.721039 217.435918 172.435166 216.947852 
Q 172.148502 216.458438 171.678095 216.366376 
Q 171.209036 216.273525 170.6603 216.594935 
Q 170.108866 216.917924 169.963125 217.370882 
Q 169.818731 217.823049 170.105394 218.312463 
z
" clip-path="url(#pd1e722dce4)" style="fill: #aa2395; stroke: #ffffff; stroke-width: 5"/>
    <path d="M 172.266561 219.33727 
Q 171.65985 219.692638 171.502321 220.221309 
Q 171.34614 220.749191 171.678606 221.316803 
Q 172.011862 221.885764 172.548681 222.007737 
Q 173.086848 222.128921 173.693559 221.773553 
Q 174.30027 221.418186 174.458358 220.887376 
Q 174.617004 220.354428 174.286117 219.789513 
Q 173.953651 219.221901 173.415484 219.100717 
Q 172.878665 218.978744 172.266561 219.33727 
z
M 171.204176 219.474244 
Q 170.577817 219.66004 170.052226 219.46449 
Q 169.527195 219.266803 169.211312 218.727504 
Q 168.769867 217.973833 169.049815 217.22135 
Q 169.331111 216.468077 170.265447 215.920811 
Q 171.205175 215.370386 171.997084 215.495053 
Q 172.788992 215.619721 173.230438 216.373391 
Q 173.54632 216.91269 173.460596 217.468114 
Q 173.37543 218.021401 172.911057 218.474477 
Q 173.609567 218.257285 174.19683 218.474657 
Q 174.784652 218.68989 175.136861 219.291208 
Q 175.673071 220.206669 175.40156 221.02302 
Q 175.129259 221.838024 174.088412 222.447677 
Q 173.048913 223.05654 172.203517 222.896202 
Q 171.358679 222.733727 170.822469 221.818267 
Q 170.47026 221.216948 170.571393 220.598175 
Q 170.673084 219.977264 171.204176 219.474244 
z
M 170.105394 218.312463 
Q 170.391267 218.800529 170.856282 218.89575 
Q 171.322644 218.990181 171.874077 218.667191 
Q 172.422814 218.345781 172.571252 217.891244 
Q 172.721039 217.435918 172.435166 216.947852 
Q 172.148502 216.458438 171.678095 216.366376 
Q 171.209036 216.273525 170.6603 216.594935 
Q 170.108866 216.917924 169.963125 217.370882 
Q 169.818731 217.823049 170.105394 218.312463 
z
" clip-path="url(#pd1e722dce4)" style="fill: #aa2395"/>
   </g>
   <g id="text_17">
    <path d="M 209.450628 188.732277 
L 210.822451 187.887753 
L 207.906342 183.150906 
L 206.597742 184.369351 
L 206.126741 183.604271 
L 207.427358 182.39074 
L 208.266951 181.873868 
L 211.65406 187.375795 
L 213.025883 186.531271 
L 213.460842 187.237806 
L 209.885587 189.438813 
L 209.450628 188.732277 
z
M 214.941914 181.584771 
Q 214.376419 181.932902 214.283474 182.524063 
Q 214.191039 183.113074 214.60552 183.786345 
Q 215.017543 184.455624 215.587531 184.642338 
Q 216.158031 184.826902 216.723525 184.478771 
Q 217.289019 184.13064 217.379816 183.538968 
Q 217.469793 182.945965 217.057769 182.276686 
Q 216.643289 181.603415 216.075758 181.420693 
Q 215.507408 181.23664 214.941914 181.584771 
z
M 214.988063 177.925191 
L 215.459063 178.690272 
Q 215.050644 178.736201 214.680316 178.855927 
Q 214.309169 178.974322 213.992492 179.169275 
Q 213.160883 179.681233 213.067467 180.513049 
Q 212.975381 181.344046 213.611563 182.517525 
Q 213.633585 182.004889 213.884711 181.584237 
Q 214.137167 181.162766 214.581579 180.889176 
Q 215.516973 180.313326 216.409617 180.547276 
Q 217.301442 180.779895 217.902684 181.756537 
Q 218.49164 182.71322 218.282468 183.640151 
Q 218.072477 184.565752 217.133091 185.144059 
Q 216.055325 185.807555 214.977978 185.333187 
Q 213.899811 184.857489 212.934874 183.290071 
Q 212.028914 181.818456 212.188477 180.512893 
Q 212.348041 179.207331 213.524269 178.483218 
Q 213.840946 178.288265 214.201444 178.152572 
Q 214.561942 178.016879 214.988063 177.925191 
z
" clip-path="url(#pd1e722dce4)" style="fill: #cc4778; stroke: #ffffff; stroke-width: 5"/>
    <path d="M 209.450628 188.732277 
L 210.822451 187.887753 
L 207.906342 183.150906 
L 206.597742 184.369351 
L 206.126741 183.604271 
L 207.427358 182.39074 
L 208.266951 181.873868 
L 211.65406 187.375795 
L 213.025883 186.531271 
L 213.460842 187.237806 
L 209.885587 189.438813 
L 209.450628 188.732277 
z
M 214.941914 181.584771 
Q 214.376419 181.932902 214.283474 182.524063 
Q 214.191039 183.113074 214.60552 183.786345 
Q 215.017543 184.455624 215.587531 184.642338 
Q 216.158031 184.826902 216.723525 184.478771 
Q 217.289019 184.13064 217.379816 183.538968 
Q 217.469793 182.945965 217.057769 182.276686 
Q 216.643289 181.603415 216.075758 181.420693 
Q 215.507408 181.23664 214.941914 181.584771 
z
M 214.988063 177.925191 
L 215.459063 178.690272 
Q 215.050644 178.736201 214.680316 178.855927 
Q 214.309169 178.974322 213.992492 179.169275 
Q 213.160883 179.681233 213.067467 180.513049 
Q 212.975381 181.344046 213.611563 182.517525 
Q 213.633585 182.004889 213.884711 181.584237 
Q 214.137167 181.162766 214.581579 180.889176 
Q 215.516973 180.313326 216.409617 180.547276 
Q 217.301442 180.779895 217.902684 181.756537 
Q 218.49164 182.71322 218.282468 183.640151 
Q 218.072477 184.565752 217.133091 185.144059 
Q 216.055325 185.807555 214.977978 185.333187 
Q 213.899811 184.857489 212.934874 183.290071 
Q 212.028914 181.818456 212.188477 180.512893 
Q 212.348041 179.207331 213.524269 178.483218 
Q 213.840946 178.288265 214.201444 178.152572 
Q 214.561942 178.016879 214.988063 177.925191 
z
" clip-path="url(#pd1e722dce4)" style="fill: #cc4778"/>
   </g>
   <g id="text_18">
    <path d="M 250.397488 172.606209 
Q 251.082358 172.371852 251.669519 172.578858 
Q 252.257216 172.78372 252.619106 173.386563 
Q 253.174005 174.310923 252.842463 175.200646 
Q 252.510117 176.08903 251.337922 176.792707 
Q 250.945404 177.028338 250.482128 177.200744 
Q 250.018853 177.373151 249.482141 177.483942 
L 248.992382 176.668095 
Q 249.466414 176.66236 249.947113 176.515942 
Q 250.429151 176.36872 250.885973 176.094488 
Q 251.680386 175.617596 251.908835 175.054011 
Q 252.137283 174.490426 251.777805 173.891602 
Q 251.44567 173.338326 250.871936 173.259941 
Q 250.297398 173.180216 249.607477 173.59438 
L 248.878707 174.031865 
L 248.461326 173.336586 
L 249.223588 172.878996 
Q 249.846526 172.505042 250.027838 172.057229 
Q 250.209151 171.609416 249.92768 171.140538 
Q 249.638972 170.659603 249.142954 170.607461 
Q 248.647472 170.553176 248.011137 170.935171 
Q 247.662828 171.144264 247.310791 171.459472 
Q 246.95795 171.77334 246.575929 172.217714 
L 246.123968 171.46483 
Q 246.525823 171.041353 246.906263 170.721851 
Q 247.286704 170.402349 247.659127 170.178781 
Q 248.622336 169.60056 249.445285 169.70247 
Q 250.268768 169.802236 250.715904 170.547082 
Q 251.027934 171.066867 250.945254 171.603087 
Q 250.862573 172.139307 250.397488 172.606209 
z
M 255.614738 173.091762 
L 258.565991 171.320106 
L 258.993022 172.031461 
L 255.024974 174.413506 
L 254.597943 173.702151 
Q 254.779715 172.915092 255.106869 171.577865 
Q 255.434558 170.238495 255.501198 169.86681 
Q 255.633684 169.167655 255.604651 168.754993 
Q 255.576957 168.341527 255.393599 168.036087 
Q 255.094436 167.537736 254.556604 167.434154 
Q 254.017968 167.329233 253.456654 167.666193 
Q 253.058777 167.905041 252.699525 168.308412 
Q 252.341612 168.710978 252.008125 169.29388 
L 251.495045 168.439183 
Q 251.882409 167.927815 252.263106 167.557132 
Q 252.645143 167.185644 253.013547 166.964489 
Q 253.984794 166.381443 254.854109 166.521125 
Q 255.72262 166.659468 256.209966 167.471297 
Q 256.441576 167.857117 256.504378 168.289601 
Q 256.567715 168.719941 256.467384 169.418016 
Q 256.436074 169.602652 256.222979 170.519682 
Q 256.011224 171.435907 255.614738 173.091762 
z
" clip-path="url(#pd1e722dce4)" style="fill: #e66c5c; stroke: #ffffff; stroke-width: 5"/>
    <path d="M 250.397488 172.606209 
Q 251.082358 172.371852 251.669519 172.578858 
Q 252.257216 172.78372 252.619106 173.386563 
Q 253.174005 174.310923 252.842463 175.200646 
Q 252.510117 176.08903 251.337922 176.792707 
Q 250.945404 177.028338 250.482128 177.200744 
Q 250.018853 177.373151 249.482141 177.483942 
L 248.992382 176.668095 
Q 249.466414 176.66236 249.947113 176.515942 
Q 250.429151 176.36872 250.885973 176.094488 
Q 251.680386 175.617596 251.908835 175.054011 
Q 252.137283 174.490426 251.777805 173.891602 
Q 251.44567 173.338326 250.871936 173.259941 
Q 250.297398 173.180216 249.607477 173.59438 
L 248.878707 174.031865 
L 248.461326 173.336586 
L 249.223588 172.878996 
Q 249.846526 172.505042 250.027838 172.057229 
Q 250.209151 171.609416 249.92768 171.140538 
Q 249.638972 170.659603 249.142954 170.607461 
Q 248.647472 170.553176 248.011137 170.935171 
Q 247.662828 171.144264 247.310791 171.459472 
Q 246.95795 171.77334 246.575929 172.217714 
L 246.123968 171.46483 
Q 246.525823 171.041353 246.906263 170.721851 
Q 247.286704 170.402349 247.659127 170.178781 
Q 248.622336 169.60056 249.445285 169.70247 
Q 250.268768 169.802236 250.715904 170.547082 
Q 251.027934 171.066867 250.945254 171.603087 
Q 250.862573 172.139307 250.397488 172.606209 
z
M 255.614738 173.091762 
L 258.565991 171.320106 
L 258.993022 172.031461 
L 255.024974 174.413506 
L 254.597943 173.702151 
Q 254.779715 172.915092 255.106869 171.577865 
Q 255.434558 170.238495 255.501198 169.86681 
Q 255.633684 169.167655 255.604651 168.754993 
Q 255.576957 168.341527 255.393599 168.036087 
Q 255.094436 167.537736 254.556604 167.434154 
Q 254.017968 167.329233 253.456654 167.666193 
Q 253.058777 167.905041 252.699525 168.308412 
Q 252.341612 168.710978 252.008125 169.29388 
L 251.495045 168.439183 
Q 251.882409 167.927815 252.263106 167.557132 
Q 252.645143 167.185644 253.013547 166.964489 
Q 253.984794 166.381443 254.854109 166.521125 
Q 255.72262 166.659468 256.209966 167.471297 
Q 256.441576 167.857117 256.504378 168.289601 
Q 256.567715 168.719941 256.467384 169.418016 
Q 256.436074 169.602652 256.222979 170.519682 
Q 256.011224 171.435907 255.614738 173.091762 
z
" clip-path="url(#pd1e722dce4)" style="fill: #e66c5c"/>
   </g>
   <g id="text_19">
    <path d="M 289.884863 144.95056 
Q 289.325139 145.307895 289.241876 145.900498 
Q 289.159089 146.490942 289.584527 147.157343 
Q 290.007443 147.819793 290.58041 147.997158 
Q 291.153852 148.172365 291.713576 147.81503 
Q 292.2733 147.457695 292.354405 146.864617 
Q 292.43467 146.270221 292.011754 145.607771 
Q 291.586315 144.94137 291.015871 144.767957 
Q 290.444587 144.593226 289.884863 144.95056 
z
M 289.871142 141.290715 
L 290.354595 142.047989 
Q 289.946981 142.100593 289.578661 142.226361 
Q 289.2095 142.350811 288.896055 142.550919 
Q 288.072932 143.076411 287.993135 143.909644 
Q 287.914655 144.742036 288.569948 145.904952 
Q 288.583581 145.392024 288.827792 144.96732 
Q 289.073321 144.541776 289.513198 144.260953 
Q 290.439047 143.669879 291.335398 143.889195 
Q 292.230909 144.107195 292.848047 145.073871 
Q 293.452573 146.020792 293.258592 146.951021 
Q 293.06377 147.879933 292.13397 148.473529 
Q 291.067202 149.154567 289.982238 148.697885 
Q 288.896434 148.239887 287.905987 146.688464 
Q 286.976075 145.231865 287.114261 143.923867 
Q 287.252446 142.615869 288.416672 141.872613 
Q 288.730117 141.672505 289.088348 141.530934 
Q 289.446578 141.389362 289.871142 141.290715 
z
M 294.362426 139.252057 
L 294.357534 143.872913 
L 296.456828 142.532698 
L 294.362426 139.252057 
z
M 293.681371 138.667279 
L 294.727067 137.999694 
L 297.283903 142.004683 
L 298.161023 141.444718 
L 298.602437 142.136142 
L 297.725316 142.696107 
L 298.650183 144.144804 
L 297.823108 144.672818 
L 296.898242 143.224121 
L 294.124645 144.99482 
L 293.612605 144.192769 
L 293.681371 138.667279 
z
" clip-path="url(#pd1e722dce4)" style="fill: #f89540; stroke: #ffffff; stroke-width: 5"/>
    <path d="M 289.884863 144.95056 
Q 289.325139 145.307895 289.241876 145.900498 
Q 289.159089 146.490942 289.584527 147.157343 
Q 290.007443 147.819793 290.58041 147.997158 
Q 291.153852 148.172365 291.713576 147.81503 
Q 292.2733 147.457695 292.354405 146.864617 
Q 292.43467 146.270221 292.011754 145.607771 
Q 291.586315 144.94137 291.015871 144.767957 
Q 290.444587 144.593226 289.884863 144.95056 
z
M 289.871142 141.290715 
L 290.354595 142.047989 
Q 289.946981 142.100593 289.578661 142.226361 
Q 289.2095 142.350811 288.896055 142.550919 
Q 288.072932 143.076411 287.993135 143.909644 
Q 287.914655 144.742036 288.569948 145.904952 
Q 288.583581 145.392024 288.827792 144.96732 
Q 289.073321 144.541776 289.513198 144.260953 
Q 290.439047 143.669879 291.335398 143.889195 
Q 292.230909 144.107195 292.848047 145.073871 
Q 293.452573 146.020792 293.258592 146.951021 
Q 293.06377 147.879933 292.13397 148.473529 
Q 291.067202 149.154567 289.982238 148.697885 
Q 288.896434 148.239887 287.905987 146.688464 
Q 286.976075 145.231865 287.114261 143.923867 
Q 287.252446 142.615869 288.416672 141.872613 
Q 288.730117 141.672505 289.088348 141.530934 
Q 289.446578 141.389362 289.871142 141.290715 
z
M 294.362426 139.252057 
L 294.357534 143.872913 
L 296.456828 142.532698 
L 294.362426 139.252057 
z
M 293.681371 138.667279 
L 294.727067 137.999694 
L 297.283903 142.004683 
L 298.161023 141.444718 
L 298.602437 142.136142 
L 297.725316 142.696107 
L 298.650183 144.144804 
L 297.823108 144.672818 
L 296.898242 143.224121 
L 294.124645 144.99482 
L 293.612605 144.192769 
L 293.681371 138.667279 
z
" clip-path="url(#pd1e722dce4)" style="fill: #f89540"/>
   </g>
   <g id="text_20">
    <path d="M 327.10807 126.591835 
L 328.502447 125.785093 
L 325.7168 120.970368 
L 324.375409 122.152617 
L 323.92548 121.374958 
L 325.258756 120.197403 
L 326.112153 119.703655 
L 329.347729 125.296039 
L 330.742106 124.489297 
L 331.157605 125.207449 
L 327.52357 127.309986 
L 327.10807 126.591835 
z
M 333.202045 123.066055 
L 336.181494 121.34224 
L 336.596994 122.060391 
L 332.591034 124.378112 
L 332.175535 123.659961 
Q 332.36998 122.875937 332.718664 121.544162 
Q 333.067918 120.210252 333.140545 119.839691 
Q 333.284293 119.142765 333.26192 118.729688 
Q 333.2409 118.315829 333.062494 118.00747 
Q 332.771409 117.504358 332.235318 117.392113 
Q 331.698444 117.278516 331.131768 117.606377 
Q 330.73009 117.838775 330.364377 118.236298 
Q 330.000016 118.633038 329.657169 119.210485 
L 329.157944 118.347621 
Q 329.553507 117.842569 329.940135 117.478075 
Q 330.328115 117.112799 330.700039 116.897616 
Q 331.680565 116.330314 332.547514 116.484003 
Q 333.41368 116.636339 333.887866 117.455924 
Q 334.113221 117.84543 334.169038 118.278871 
Q 334.225424 118.710176 334.113846 119.406542 
Q 334.079561 119.590649 333.8517 120.504122 
Q 333.625191 121.416812 333.202045 123.066055 
z
M 338.480644 116.97031 
Q 337.872041 117.322429 337.711687 117.85025 
Q 337.552686 118.37729 337.882113 118.946672 
Q 338.212321 119.517406 338.74848 119.642248 
Q 339.285991 119.766307 339.894594 119.414189 
Q 340.503197 119.062071 340.66412 118.532114 
Q 340.825614 118.000022 340.497752 117.433345 
Q 340.168326 116.863964 339.630815 116.739904 
Q 339.094656 116.615062 338.480644 116.97031 
z
M 337.417541 117.101602 
Q 336.790197 117.284045 336.26566 117.085688 
Q 335.741693 116.885196 335.428699 116.344216 
Q 334.99129 115.588196 335.275258 114.83722 
Q 335.560578 114.085462 336.497826 113.5432 
Q 337.440484 112.997808 338.231715 113.126708 
Q 339.022946 113.255608 339.460355 114.011628 
Q 339.773349 114.552608 339.684656 115.107566 
Q 339.596533 115.660389 339.129744 116.110975 
Q 339.829405 115.897522 340.415498 116.118031 
Q 341.002161 116.336404 341.351149 116.939597 
Q 341.882456 117.857911 341.606584 118.6728 
Q 341.329929 119.486336 340.285837 120.090414 
Q 339.243097 120.69371 338.39857 120.528855 
Q 337.554614 120.361864 337.023306 119.44355 
Q 336.674318 118.840357 336.778757 118.222133 
Q 336.883767 117.601775 337.417541 117.101602 
z
M 336.324987 115.933962 
Q 336.608247 116.423549 337.072745 116.521255 
Q 337.538596 116.618179 338.091748 116.298142 
Q 338.642196 115.979671 338.793063 115.525934 
Q 338.945282 115.071415 338.662022 114.581828 
Q 338.37798 114.090888 337.908072 113.996312 
Q 337.439516 113.900954 336.889069 114.219425 
Q 336.335916 114.539462 336.187755 114.991633 
Q 336.040945 115.443023 336.324987 115.933962 
z
" clip-path="url(#pd1e722dce4)" style="fill: #fdc527; stroke: #ffffff; stroke-width: 5"/>
    <path d="M 327.10807 126.591835 
L 328.502447 125.785093 
L 325.7168 120.970368 
L 324.375409 122.152617 
L 323.92548 121.374958 
L 325.258756 120.197403 
L 326.112153 119.703655 
L 329.347729 125.296039 
L 330.742106 124.489297 
L 331.157605 125.207449 
L 327.52357 127.309986 
L 327.10807 126.591835 
z
M 333.202045 123.066055 
L 336.181494 121.34224 
L 336.596994 122.060391 
L 332.591034 124.378112 
L 332.175535 123.659961 
Q 332.36998 122.875937 332.718664 121.544162 
Q 333.067918 120.210252 333.140545 119.839691 
Q 333.284293 119.142765 333.26192 118.729688 
Q 333.2409 118.315829 333.062494 118.00747 
Q 332.771409 117.504358 332.235318 117.392113 
Q 331.698444 117.278516 331.131768 117.606377 
Q 330.73009 117.838775 330.364377 118.236298 
Q 330.000016 118.633038 329.657169 119.210485 
L 329.157944 118.347621 
Q 329.553507 117.842569 329.940135 117.478075 
Q 330.328115 117.112799 330.700039 116.897616 
Q 331.680565 116.330314 332.547514 116.484003 
Q 333.41368 116.636339 333.887866 117.455924 
Q 334.113221 117.84543 334.169038 118.278871 
Q 334.225424 118.710176 334.113846 119.406542 
Q 334.079561 119.590649 333.8517 120.504122 
Q 333.625191 121.416812 333.202045 123.066055 
z
M 338.480644 116.97031 
Q 337.872041 117.322429 337.711687 117.85025 
Q 337.552686 118.37729 337.882113 118.946672 
Q 338.212321 119.517406 338.74848 119.642248 
Q 339.285991 119.766307 339.894594 119.414189 
Q 340.503197 119.062071 340.66412 118.532114 
Q 340.825614 118.000022 340.497752 117.433345 
Q 340.168326 116.863964 339.630815 116.739904 
Q 339.094656 116.615062 338.480644 116.97031 
z
M 337.417541 117.101602 
Q 336.790197 117.284045 336.26566 117.085688 
Q 335.741693 116.885196 335.428699 116.344216 
Q 334.99129 115.588196 335.275258 114.83722 
Q 335.560578 114.085462 336.497826 113.5432 
Q 337.440484 112.997808 338.231715 113.126708 
Q 339.022946 113.255608 339.460355 114.011628 
Q 339.773349 114.552608 339.684656 115.107566 
Q 339.596533 115.660389 339.129744 116.110975 
Q 339.829405 115.897522 340.415498 116.118031 
Q 341.002161 116.336404 341.351149 116.939597 
Q 341.882456 117.857911 341.606584 118.6728 
Q 341.329929 119.486336 340.285837 120.090414 
Q 339.243097 120.69371 338.39857 120.528855 
Q 337.554614 120.361864 337.023306 119.44355 
Q 336.674318 118.840357 336.778757 118.222133 
Q 336.883767 117.601775 337.417541 117.101602 
z
M 336.324987 115.933962 
Q 336.608247 116.423549 337.072745 116.521255 
Q 337.538596 116.618179 338.091748 116.298142 
Q 338.642196 115.979671 338.793063 115.525934 
Q 338.945282 115.071415 338.662022 114.581828 
Q 338.37798 114.090888 337.908072 113.996312 
Q 337.439516 113.900954 336.889069 114.219425 
Q 336.335916 114.539462 336.187755 114.991633 
Q 336.040945 115.443023 336.324987 115.933962 
z
" clip-path="url(#pd1e722dce4)" style="fill: #fdc527"/>
   </g>
   <g id="patch_3">
    <path d="M 34.240625 301.735725 
L 34.240625 35.623725 
" style="fill: none; stroke: #cccccc; stroke-width: 0.8; stroke-linejoin: miter; stroke-linecap: square"/>
   </g>
   <g id="patch_4">
    <path d="M 391.360625 301.735725 
L 391.360625 35.623725 
" style="fill: none; stroke: #cccccc; stroke-width: 0.8; stroke-linejoin: miter; stroke-linecap: square"/>
   </g>
   <g id="patch_5">
    <path d="M 34.240625 301.735725 
L 391.360625 301.735725 
" style="fill: none; stroke: #cccccc; stroke-width: 0.8; stroke-linejoin: miter; stroke-linecap: square"/>
   </g>
   <g id="patch_6">
    <path d="M 34.240625 35.623725 
L 391.360625 35.623725 
" style="fill: none; stroke: #cccccc; stroke-width: 0.8; stroke-linejoin: miter; stroke-linecap: square"/>
   </g>
   <g id="text_21">
    <!-- Block Size = 1M, Read-Write Type = Random Read-heavy 4:1 -->
    <g style="fill: #262626; opacity: 0.75" transform="translate(60.055313 30.882918) scale(0.1 -0.1)">
     <defs>
      <path id="DejaVuSans-42" d="M 1259 2228 
L 1259 519 
L 2272 519 
Q 2781 519 3026 730 
Q 3272 941 3272 1375 
Q 3272 1813 3026 2020 
Q 2781 2228 2272 2228 
L 1259 2228 
z
M 1259 4147 
L 1259 2741 
L 2194 2741 
Q 2656 2741 2882 2914 
Q 3109 3088 3109 3444 
Q 3109 3797 2882 3972 
Q 2656 4147 2194 4147 
L 1259 4147 
z
M 628 4666 
L 2241 4666 
Q 2963 4666 3353 4366 
Q 3744 4066 3744 3513 
Q 3744 3084 3544 2831 
Q 3344 2578 2956 2516 
Q 3422 2416 3680 2098 
Q 3938 1781 3938 1306 
Q 3938 681 3513 340 
Q 3088 0 2303 0 
L 628 0 
L 628 4666 
z
" transform="scale(0.015625)"/>
      <path id="DejaVuSans-6c" d="M 603 4863 
L 1178 4863 
L 1178 0 
L 603 0 
L 603 4863 
z
" transform="scale(0.015625)"/>
      <path id="DejaVuSans-6b" d="M 581 4863 
L 1159 4863 
L 1159 1991 
L 2875 3500 
L 3609 3500 
L 1753 1863 
L 3688 0 
L 2938 0 
L 1159 1709 
L 1159 0 
L 581 0 
L 581 4863 
z
" transform="scale(0.015625)"/>
      <path id="DejaVuSans-53" d="M 3425 4513 
L 3425 3897 
Q 3066 4069 2747 4153 
Q 2428 4238 2131 4238 
Q 1616 4238 1336 4038 
Q 1056 3838 1056 3469 
Q 1056 3159 1242 3001 
Q 1428 2844 1947 2747 
L 2328 2669 
Q 3034 2534 3370 2195 
Q 3706 1856 3706 1288 
Q 3706 609 3251 259 
Q 2797 -91 1919 -91 
Q 1588 -91 1214 -16 
Q 841 59 441 206 
L 441 856 
Q 825 641 1194 531 
Q 1563 422 1919 422 
Q 2459 422 2753 634 
Q 3047 847 3047 1241 
Q 3047 1584 2836 1778 
Q 2625 1972 2144 2069 
L 1759 2144 
Q 1053 2284 737 2584 
Q 422 2884 422 3419 
Q 422 4038 858 4394 
Q 1294 4750 2059 4750 
Q 2388 4750 2728 4690 
Q 3069 4631 3425 4513 
z
" transform="scale(0.015625)"/>
      <path id="DejaVuSans-69" d="M 603 3500 
L 1178 3500 
L 1178 0 
L 603 0 
L 603 3500 
z
M 603 4863 
L 1178 4863 
L 1178 4134 
L 603 4134 
L 603 4863 
z
" transform="scale(0.015625)"/>
      <path id="DejaVuSans-7a" d="M 353 3500 
L 3084 3500 
L 3084 2975 
L 922 459 
L 3084 459 
L 3084 0 
L 275 0 
L 275 525 
L 2438 3041 
L 353 3041 
L 353 3500 
z
" transform="scale(0.015625)"/>
      <path id="DejaVuSans-3d" d="M 678 2906 
L 4684 2906 
L 4684 2381 
L 678 2381 
L 678 2906 
z
M 678 1631 
L 4684 1631 
L 4684 1100 
L 678 1100 
L 678 1631 
z
" transform="scale(0.015625)"/>
      <path id="DejaVuSans-2c" d="M 750 794 
L 1409 794 
L 1409 256 
L 897 -744 
L 494 -744 
L 750 256 
L 750 794 
z
" transform="scale(0.015625)"/>
      <path id="DejaVuSans-52" d="M 2841 2188 
Q 3044 2119 3236 1894 
Q 3428 1669 3622 1275 
L 4263 0 
L 3584 0 
L 2988 1197 
Q 2756 1666 2539 1819 
Q 2322 1972 1947 1972 
L 1259 1972 
L 1259 0 
L 628 0 
L 628 4666 
L 2053 4666 
Q 2853 4666 3247 4331 
Q 3641 3997 3641 3322 
Q 3641 2881 3436 2590 
Q 3231 2300 2841 2188 
z
M 1259 4147 
L 1259 2491 
L 2053 2491 
Q 2509 2491 2742 2702 
Q 2975 2913 2975 3322 
Q 2975 3731 2742 3939 
Q 2509 4147 2053 4147 
L 1259 4147 
z
" transform="scale(0.015625)"/>
      <path id="DejaVuSans-64" d="M 2906 2969 
L 2906 4863 
L 3481 4863 
L 3481 0 
L 2906 0 
L 2906 525 
Q 2725 213 2448 61 
Q 2172 -91 1784 -91 
Q 1150 -91 751 415 
Q 353 922 353 1747 
Q 353 2572 751 3078 
Q 1150 3584 1784 3584 
Q 2172 3584 2448 3432 
Q 2725 3281 2906 2969 
z
M 947 1747 
Q 947 1113 1208 752 
Q 1469 391 1925 391 
Q 2381 391 2643 752 
Q 2906 1113 2906 1747 
Q 2906 2381 2643 2742 
Q 2381 3103 1925 3103 
Q 1469 3103 1208 2742 
Q 947 2381 947 1747 
z
" transform="scale(0.015625)"/>
      <path id="DejaVuSans-2d" d="M 313 2009 
L 1997 2009 
L 1997 1497 
L 313 1497 
L 313 2009 
z
" transform="scale(0.015625)"/>
      <path id="DejaVuSans-57" d="M 213 4666 
L 850 4666 
L 1831 722 
L 2809 4666 
L 3519 4666 
L 4500 722 
L 5478 4666 
L 6119 4666 
L 4947 0 
L 4153 0 
L 3169 4050 
L 2175 0 
L 1381 0 
L 213 4666 
z
" transform="scale(0.015625)"/>
      <path id="DejaVuSans-54" d="M -19 4666 
L 3928 4666 
L 3928 4134 
L 2272 4134 
L 2272 0 
L 1638 0 
L 1638 4134 
L -19 4134 
L -19 4666 
z
" transform="scale(0.015625)"/>
      <path id="DejaVuSans-70" d="M 1159 525 
L 1159 -1331 
L 581 -1331 
L 581 3500 
L 1159 3500 
L 1159 2969 
Q 1341 3281 1617 3432 
Q 1894 3584 2278 3584 
Q 2916 3584 3314 3078 
Q 3713 2572 3713 1747 
Q 3713 922 3314 415 
Q 2916 -91 2278 -91 
Q 1894 -91 1617 61 
Q 1341 213 1159 525 
z
M 3116 1747 
Q 3116 2381 2855 2742 
Q 2594 3103 2138 3103 
Q 1681 3103 1420 2742 
Q 1159 2381 1159 1747 
Q 1159 1113 1420 752 
Q 1681 391 2138 391 
Q 2594 391 2855 752 
Q 3116 1113 3116 1747 
z
" transform="scale(0.015625)"/>
      <path id="DejaVuSans-68" d="M 3513 2113 
L 3513 0 
L 2938 0 
L 2938 2094 
Q 2938 2591 2744 2837 
Q 2550 3084 2163 3084 
Q 1697 3084 1428 2787 
Q 1159 2491 1159 1978 
L 1159 0 
L 581 0 
L 581 4863 
L 1159 4863 
L 1159 2956 
Q 1366 3272 1645 3428 
Q 1925 3584 2291 3584 
Q 2894 3584 3203 3211 
Q 3513 2838 3513 2113 
z
" transform="scale(0.015625)"/>
      <path id="DejaVuSans-76" d="M 191 3500 
L 800 3500 
L 1894 563 
L 2988 3500 
L 3597 3500 
L 2284 0 
L 1503 0 
L 191 3500 
z
" transform="scale(0.015625)"/>
      <path id="DejaVuSans-3a" d="M 750 794 
L 1409 794 
L 1409 0 
L 750 0 
L 750 794 
z
M 750 3309 
L 1409 3309 
L 1409 2516 
L 750 2516 
L 750 3309 
z
" transform="scale(0.015625)"/>
     </defs>
     <use xlink:href="#DejaVuSans-42"/>
     <use xlink:href="#DejaVuSans-6c" transform="translate(68.603516 0)"/>
     <use xlink:href="#DejaVuSans-6f" transform="translate(96.386719 0)"/>
     <use xlink:href="#DejaVuSans-63" transform="translate(157.568359 0)"/>
     <use xlink:href="#DejaVuSans-6b" transform="translate(212.548828 0)"/>
     <use xlink:href="#DejaVuSans-20" transform="translate(270.458984 0)"/>
     <use xlink:href="#DejaVuSans-53" transform="translate(302.246094 0)"/>
     <use xlink:href="#DejaVuSans-69" transform="translate(365.722656 0)"/>
     <use xlink:href="#DejaVuSans-7a" transform="translate(393.505859 0)"/>
     <use xlink:href="#DejaVuSans-65" transform="translate(445.996094 0)"/>
     <use xlink:href="#DejaVuSans-20" transform="translate(507.519531 0)"/>
     <use xlink:href="#DejaVuSans-3d" transform="translate(539.306641 0)"/>
     <use xlink:href="#DejaVuSans-20" transform="translate(623.095703 0)"/>
     <use xlink:href="#DejaVuSans-31" transform="translate(654.882812 0)"/>
     <use xlink:href="#DejaVuSans-4d" transform="translate(718.505859 0)"/>
     <use xlink:href="#DejaVuSans-2c" transform="translate(804.785156 0)"/>
     <use xlink:href="#DejaVuSans-20" transform="translate(836.572266 0)"/>
     <use xlink:href="#DejaVuSans-52" transform="translate(868.359375 0)"/>
     <use xlink:href="#DejaVuSans-65" transform="translate(933.341797 0)"/>
     <use xlink:href="#DejaVuSans-61" transform="translate(994.865234 0)"/>
     <use xlink:href="#DejaVuSans-64" transform="translate(1056.144531 0)"/>
     <use xlink:href="#DejaVuSans-2d" transform="translate(1119.621094 0)"/>
     <use xlink:href="#DejaVuSans-57" transform="translate(1151.705078 0)"/>
     <use xlink:href="#DejaVuSans-72" transform="translate(1246.082031 0)"/>
     <use xlink:href="#DejaVuSans-69" transform="translate(1287.195312 0)"/>
     <use xlink:href="#DejaVuSans-74" transform="translate(1314.978516 0)"/>
     <use xlink:href="#DejaVuSans-65" transform="translate(1354.1875 0)"/>
     <use xlink:href="#DejaVuSans-20" transform="translate(1415.710938 0)"/>
     <use xlink:href="#DejaVuSans-54" transform="translate(1447.498047 0)"/>
     <use xlink:href="#DejaVuSans-79" transform="translate(1492.957031 0)"/>
     <use xlink:href="#DejaVuSans-70" transform="translate(1552.136719 0)"/>
     <use xlink:href="#DejaVuSans-65" transform="translate(1615.613281 0)"/>
     <use xlink:href="#DejaVuSans-20" transform="translate(1677.136719 0)"/>
     <use xlink:href="#DejaVuSans-3d" transform="translate(1708.923828 0)"/>
     <use xlink:href="#DejaVuSans-20" transform="translate(1792.712891 0)"/>
     <use xlink:href="#DejaVuSans-52" transform="translate(1824.5 0)"/>
     <use xlink:href="#DejaVuSans-61" transform="translate(1891.732422 0)"/>
     <use xlink:href="#DejaVuSans-6e" transform="translate(1953.011719 0)"/>
     <use xlink:href="#DejaVuSans-64" transform="translate(2016.390625 0)"/>
     <use xlink:href="#DejaVuSans-6f" transform="translate(2079.867188 0)"/>
     <use xlink:href="#DejaVuSans-6d" transform="translate(2141.048828 0)"/>
     <use xlink:href="#DejaVuSans-20" transform="translate(2238.460938 0)"/>
     <use xlink:href="#DejaVuSans-52" transform="translate(2270.248047 0)"/>
     <use xlink:href="#DejaVuSans-65" transform="translate(2335.230469 0)"/>
     <use xlink:href="#DejaVuSans-61" transform="translate(2396.753906 0)"/>
     <use xlink:href="#DejaVuSans-64" transform="translate(2458.033203 0)"/>
     <use xlink:href="#DejaVuSans-2d" transform="translate(2521.509766 0)"/>
     <use xlink:href="#DejaVuSans-68" transform="translate(2557.59375 0)"/>
     <use xlink:href="#DejaVuSans-65" transform="translate(2620.972656 0)"/>
     <use xlink:href="#DejaVuSans-61" transform="translate(2682.496094 0)"/>
     <use xlink:href="#DejaVuSans-76" transform="translate(2743.775391 0)"/>
     <use xlink:href="#DejaVuSans-79" transform="translate(2802.955078 0)"/>
     <use xlink:href="#DejaVuSans-20" transform="translate(2862.134766 0)"/>
     <use xlink:href="#DejaVuSans-34" transform="translate(2893.921875 0)"/>
     <use xlink:href="#DejaVuSans-3a" transform="translate(2957.544922 0)"/>
     <use xlink:href="#DejaVuSans-31" transform="translate(2991.236328 0)"/>
    </g>
   </g>
   <g id="text_22">
    <!-- Mean Latency vs Number of Jobs -->
    <g style="fill: #262626" transform="translate(102.144688 16.318125) scale(0.12 -0.12)">
     <defs>
      <path id="DejaVuSans-Bold-4d" d="M 588 4666 
L 2119 4666 
L 3181 2169 
L 4250 4666 
L 5778 4666 
L 5778 0 
L 4641 0 
L 4641 3413 
L 3566 897 
L 2803 897 
L 1728 3413 
L 1728 0 
L 588 0 
L 588 4666 
z
" transform="scale(0.015625)"/>
      <path id="DejaVuSans-Bold-65" d="M 4031 1759 
L 4031 1441 
L 1416 1441 
Q 1456 1047 1700 850 
Q 1944 653 2381 653 
Q 2734 653 3104 758 
Q 3475 863 3866 1075 
L 3866 213 
Q 3469 63 3072 -14 
Q 2675 -91 2278 -91 
Q 1328 -91 801 392 
Q 275 875 275 1747 
Q 275 2603 792 3093 
Q 1309 3584 2216 3584 
Q 3041 3584 3536 3087 
Q 4031 2591 4031 1759 
z
M 2881 2131 
Q 2881 2450 2695 2645 
Q 2509 2841 2209 2841 
Q 1884 2841 1681 2658 
Q 1478 2475 1428 2131 
L 2881 2131 
z
" transform="scale(0.015625)"/>
      <path id="DejaVuSans-Bold-61" d="M 2106 1575 
Q 1756 1575 1579 1456 
Q 1403 1338 1403 1106 
Q 1403 894 1545 773 
Q 1688 653 1941 653 
Q 2256 653 2472 879 
Q 2688 1106 2688 1447 
L 2688 1575 
L 2106 1575 
z
M 3816 1997 
L 3816 0 
L 2688 0 
L 2688 519 
Q 2463 200 2181 54 
Q 1900 -91 1497 -91 
Q 953 -91 614 226 
Q 275 544 275 1050 
Q 275 1666 698 1953 
Q 1122 2241 2028 2241 
L 2688 2241 
L 2688 2328 
Q 2688 2594 2478 2717 
Q 2269 2841 1825 2841 
Q 1466 2841 1156 2769 
Q 847 2697 581 2553 
L 581 3406 
Q 941 3494 1303 3539 
Q 1666 3584 2028 3584 
Q 2975 3584 3395 3211 
Q 3816 2838 3816 1997 
z
" transform="scale(0.015625)"/>
      <path id="DejaVuSans-Bold-6e" d="M 4056 2131 
L 4056 0 
L 2931 0 
L 2931 347 
L 2931 1631 
Q 2931 2084 2911 2256 
Q 2891 2428 2841 2509 
Q 2775 2619 2662 2680 
Q 2550 2741 2406 2741 
Q 2056 2741 1856 2470 
Q 1656 2200 1656 1722 
L 1656 0 
L 538 0 
L 538 3500 
L 1656 3500 
L 1656 2988 
Q 1909 3294 2193 3439 
Q 2478 3584 2822 3584 
Q 3428 3584 3742 3212 
Q 4056 2841 4056 2131 
z
" transform="scale(0.015625)"/>
      <path id="DejaVuSans-Bold-20" transform="scale(0.015625)"/>
      <path id="DejaVuSans-Bold-4c" d="M 588 4666 
L 1791 4666 
L 1791 909 
L 3903 909 
L 3903 0 
L 588 0 
L 588 4666 
z
" transform="scale(0.015625)"/>
      <path id="DejaVuSans-Bold-74" d="M 1759 4494 
L 1759 3500 
L 2913 3500 
L 2913 2700 
L 1759 2700 
L 1759 1216 
Q 1759 972 1856 886 
Q 1953 800 2241 800 
L 2816 800 
L 2816 0 
L 1856 0 
Q 1194 0 917 276 
Q 641 553 641 1216 
L 641 2700 
L 84 2700 
L 84 3500 
L 641 3500 
L 641 4494 
L 1759 4494 
z
" transform="scale(0.015625)"/>
      <path id="DejaVuSans-Bold-63" d="M 3366 3391 
L 3366 2478 
Q 3138 2634 2908 2709 
Q 2678 2784 2431 2784 
Q 1963 2784 1702 2511 
Q 1441 2238 1441 1747 
Q 1441 1256 1702 982 
Q 1963 709 2431 709 
Q 2694 709 2930 787 
Q 3166 866 3366 1019 
L 3366 103 
Q 3103 6 2833 -42 
Q 2563 -91 2291 -91 
Q 1344 -91 809 395 
Q 275 881 275 1747 
Q 275 2613 809 3098 
Q 1344 3584 2291 3584 
Q 2566 3584 2833 3536 
Q 3100 3488 3366 3391 
z
" transform="scale(0.015625)"/>
      <path id="DejaVuSans-Bold-79" d="M 78 3500 
L 1197 3500 
L 2138 1125 
L 2938 3500 
L 4056 3500 
L 2584 -331 
Q 2363 -916 2067 -1148 
Q 1772 -1381 1288 -1381 
L 641 -1381 
L 641 -647 
L 991 -647 
Q 1275 -647 1404 -556 
Q 1534 -466 1606 -231 
L 1638 -134 
L 78 3500 
z
" transform="scale(0.015625)"/>
      <path id="DejaVuSans-Bold-76" d="M 97 3500 
L 1216 3500 
L 2088 1081 
L 2956 3500 
L 4078 3500 
L 2700 0 
L 1472 0 
L 97 3500 
z
" transform="scale(0.015625)"/>
      <path id="DejaVuSans-Bold-73" d="M 3272 3391 
L 3272 2541 
Q 2913 2691 2578 2766 
Q 2244 2841 1947 2841 
Q 1628 2841 1473 2761 
Q 1319 2681 1319 2516 
Q 1319 2381 1436 2309 
Q 1553 2238 1856 2203 
L 2053 2175 
Q 2913 2066 3209 1816 
Q 3506 1566 3506 1031 
Q 3506 472 3093 190 
Q 2681 -91 1863 -91 
Q 1516 -91 1145 -36 
Q 775 19 384 128 
L 384 978 
Q 719 816 1070 734 
Q 1422 653 1784 653 
Q 2113 653 2278 743 
Q 2444 834 2444 1013 
Q 2444 1163 2330 1236 
Q 2216 1309 1875 1350 
L 1678 1375 
Q 931 1469 631 1722 
Q 331 1975 331 2491 
Q 331 3047 712 3315 
Q 1094 3584 1881 3584 
Q 2191 3584 2531 3537 
Q 2872 3491 3272 3391 
z
" transform="scale(0.015625)"/>
      <path id="DejaVuSans-Bold-4e" d="M 588 4666 
L 1931 4666 
L 3628 1466 
L 3628 4666 
L 4769 4666 
L 4769 0 
L 3425 0 
L 1728 3200 
L 1728 0 
L 588 0 
L 588 4666 
z
" transform="scale(0.015625)"/>
      <path id="DejaVuSans-Bold-75" d="M 500 1363 
L 500 3500 
L 1625 3500 
L 1625 3150 
Q 1625 2866 1622 2436 
Q 1619 2006 1619 1863 
Q 1619 1441 1641 1255 
Q 1663 1069 1716 984 
Q 1784 875 1895 815 
Q 2006 756 2150 756 
Q 2500 756 2700 1025 
Q 2900 1294 2900 1772 
L 2900 3500 
L 4019 3500 
L 4019 0 
L 2900 0 
L 2900 506 
Q 2647 200 2364 54 
Q 2081 -91 1741 -91 
Q 1134 -91 817 281 
Q 500 653 500 1363 
z
" transform="scale(0.015625)"/>
      <path id="DejaVuSans-Bold-6d" d="M 3781 2919 
Q 3994 3244 4286 3414 
Q 4578 3584 4928 3584 
Q 5531 3584 5847 3212 
Q 6163 2841 6163 2131 
L 6163 0 
L 5038 0 
L 5038 1825 
Q 5041 1866 5042 1909 
Q 5044 1953 5044 2034 
Q 5044 2406 4934 2573 
Q 4825 2741 4581 2741 
Q 4263 2741 4089 2478 
Q 3916 2216 3909 1719 
L 3909 0 
L 2784 0 
L 2784 1825 
Q 2784 2406 2684 2573 
Q 2584 2741 2328 2741 
Q 2006 2741 1831 2477 
Q 1656 2213 1656 1722 
L 1656 0 
L 531 0 
L 531 3500 
L 1656 3500 
L 1656 2988 
Q 1863 3284 2130 3434 
Q 2397 3584 2719 3584 
Q 3081 3584 3359 3409 
Q 3638 3234 3781 2919 
z
" transform="scale(0.015625)"/>
      <path id="DejaVuSans-Bold-62" d="M 2400 722 
Q 2759 722 2948 984 
Q 3138 1247 3138 1747 
Q 3138 2247 2948 2509 
Q 2759 2772 2400 2772 
Q 2041 2772 1848 2508 
Q 1656 2244 1656 1747 
Q 1656 1250 1848 986 
Q 2041 722 2400 722 
z
M 1656 2988 
Q 1888 3294 2169 3439 
Q 2450 3584 2816 3584 
Q 3463 3584 3878 3070 
Q 4294 2556 4294 1747 
Q 4294 938 3878 423 
Q 3463 -91 2816 -91 
Q 2450 -91 2169 54 
Q 1888 200 1656 506 
L 1656 0 
L 538 0 
L 538 4863 
L 1656 4863 
L 1656 2988 
z
" transform="scale(0.015625)"/>
      <path id="DejaVuSans-Bold-72" d="M 3138 2547 
Q 2991 2616 2845 2648 
Q 2700 2681 2553 2681 
Q 2122 2681 1889 2404 
Q 1656 2128 1656 1613 
L 1656 0 
L 538 0 
L 538 3500 
L 1656 3500 
L 1656 2925 
Q 1872 3269 2151 3426 
Q 2431 3584 2822 3584 
Q 2878 3584 2943 3579 
Q 3009 3575 3134 3559 
L 3138 2547 
z
" transform="scale(0.015625)"/>
      <path id="DejaVuSans-Bold-6f" d="M 2203 2784 
Q 1831 2784 1636 2517 
Q 1441 2250 1441 1747 
Q 1441 1244 1636 976 
Q 1831 709 2203 709 
Q 2569 709 2762 976 
Q 2956 1244 2956 1747 
Q 2956 2250 2762 2517 
Q 2569 2784 2203 2784 
z
M 2203 3584 
Q 3106 3584 3614 3096 
Q 4122 2609 4122 1747 
Q 4122 884 3614 396 
Q 3106 -91 2203 -91 
Q 1297 -91 786 396 
Q 275 884 275 1747 
Q 275 2609 786 3096 
Q 1297 3584 2203 3584 
z
" transform="scale(0.015625)"/>
      <path id="DejaVuSans-Bold-66" d="M 2841 4863 
L 2841 4128 
L 2222 4128 
Q 1984 4128 1890 4042 
Q 1797 3956 1797 3744 
L 1797 3500 
L 2753 3500 
L 2753 2700 
L 1797 2700 
L 1797 0 
L 678 0 
L 678 2700 
L 122 2700 
L 122 3500 
L 678 3500 
L 678 3744 
Q 678 4316 997 4589 
Q 1316 4863 1984 4863 
L 2841 4863 
z
" transform="scale(0.015625)"/>
      <path id="DejaVuSans-Bold-4a" d="M 588 4666 
L 1791 4666 
L 1791 453 
Q 1791 -419 1317 -850 
Q 844 -1281 -116 -1281 
L -359 -1281 
L -359 -372 
L -172 -372 
Q 203 -372 395 -162 
Q 588 47 588 453 
L 588 4666 
z
" transform="scale(0.015625)"/>
     </defs>
     <use xlink:href="#DejaVuSans-Bold-4d"/>
     <use xlink:href="#DejaVuSans-Bold-65" transform="translate(99.511719 0)"/>
     <use xlink:href="#DejaVuSans-Bold-61" transform="translate(167.333984 0)"/>
     <use xlink:href="#DejaVuSans-Bold-6e" transform="translate(234.814453 0)"/>
     <use xlink:href="#DejaVuSans-Bold-20" transform="translate(306.005859 0)"/>
     <use xlink:href="#DejaVuSans-Bold-4c" transform="translate(340.820312 0)"/>
     <use xlink:href="#DejaVuSans-Bold-61" transform="translate(404.541016 0)"/>
     <use xlink:href="#DejaVuSans-Bold-74" transform="translate(472.021484 0)"/>
     <use xlink:href="#DejaVuSans-Bold-65" transform="translate(519.824219 0)"/>
     <use xlink:href="#DejaVuSans-Bold-6e" transform="translate(587.646484 0)"/>
     <use xlink:href="#DejaVuSans-Bold-63" transform="translate(658.837891 0)"/>
     <use xlink:href="#DejaVuSans-Bold-79" transform="translate(718.115234 0)"/>
     <use xlink:href="#DejaVuSans-Bold-20" transform="translate(783.300781 0)"/>
     <use xlink:href="#DejaVuSans-Bold-76" transform="translate(818.115234 0)"/>
     <use xlink:href="#DejaVuSans-Bold-73" transform="translate(883.300781 0)"/>
     <use xlink:href="#DejaVuSans-Bold-20" transform="translate(942.822266 0)"/>
     <use xlink:href="#DejaVuSans-Bold-4e" transform="translate(977.636719 0)"/>
     <use xlink:href="#DejaVuSans-Bold-75" transform="translate(1061.328125 0)"/>
     <use xlink:href="#DejaVuSans-Bold-6d" transform="translate(1132.519531 0)"/>
     <use xlink:href="#DejaVuSans-Bold-62" transform="translate(1236.71875 0)"/>
     <use xlink:href="#DejaVuSans-Bold-65" transform="translate(1308.300781 0)"/>
     <use xlink:href="#DejaVuSans-Bold-72" transform="translate(1376.123047 0)"/>
     <use xlink:href="#DejaVuSans-Bold-20" transform="translate(1425.439453 0)"/>
     <use xlink:href="#DejaVuSans-Bold-6f" transform="translate(1460.253906 0)"/>
     <use xlink:href="#DejaVuSans-Bold-66" transform="translate(1528.955078 0)"/>
     <use xlink:href="#DejaVuSans-Bold-20" transform="translate(1572.460938 0)"/>
     <use xlink:href="#DejaVuSans-Bold-4a" transform="translate(1607.275391 0)"/>
     <use xlink:href="#DejaVuSans-Bold-6f" transform="translate(1644.482422 0)"/>
     <use xlink:href="#DejaVuSans-Bold-62" transform="translate(1713.183594 0)"/>
     <use xlink:href="#DejaVuSans-Bold-73" transform="translate(1784.765625 0)"/>
    </g>
   </g>
   <g id="legend_1">
    <g id="text_23">
     <!-- IO Depth -->
     <g style="fill: #262626" transform="translate(425.867188 120.065663) scale(0.1 -0.1)">
      <defs>
       <path id="DejaVuSans-49" d="M 628 4666 
L 1259 4666 
L 1259 0 
L 628 0 
L 628 4666 
z
" transform="scale(0.015625)"/>
       <path id="DejaVuSans-4f" d="M 2522 4238 
Q 1834 4238 1429 3725 
Q 1025 3213 1025 2328 
Q 1025 1447 1429 934 
Q 1834 422 2522 422 
Q 3209 422 3611 934 
Q 4013 1447 4013 2328 
Q 4013 3213 3611 3725 
Q 3209 4238 2522 4238 
z
M 2522 4750 
Q 3503 4750 4090 4092 
Q 4678 3434 4678 2328 
Q 4678 1225 4090 567 
Q 3503 -91 2522 -91 
Q 1538 -91 948 565 
Q 359 1222 359 2328 
Q 359 3434 948 4092 
Q 1538 4750 2522 4750 
z
" transform="scale(0.015625)"/>
       <path id="DejaVuSans-44" d="M 1259 4147 
L 1259 519 
L 2022 519 
Q 2988 519 3436 956 
Q 3884 1394 3884 2338 
Q 3884 3275 3436 3711 
Q 2988 4147 2022 4147 
L 1259 4147 
z
M 628 4666 
L 1925 4666 
Q 3281 4666 3915 4102 
Q 4550 3538 4550 2338 
Q 4550 1131 3912 565 
Q 3275 0 1925 0 
L 628 0 
L 628 4666 
z
" transform="scale(0.015625)"/>
      </defs>
      <use xlink:href="#DejaVuSans-49"/>
      <use xlink:href="#DejaVuSans-4f" transform="translate(29.492188 0)"/>
      <use xlink:href="#DejaVuSans-20" transform="translate(108.203125 0)"/>
      <use xlink:href="#DejaVuSans-44" transform="translate(139.990234 0)"/>
      <use xlink:href="#DejaVuSans-65" transform="translate(216.992188 0)"/>
      <use xlink:href="#DejaVuSans-70" transform="translate(278.515625 0)"/>
      <use xlink:href="#DejaVuSans-74" transform="translate(341.992188 0)"/>
      <use xlink:href="#DejaVuSans-68" transform="translate(381.201172 0)"/>
     </g>
    </g>
    <g id="line2d_25">
     <path d="M 424.553125 131.243787 
L 434.553125 131.243787 
L 444.553125 131.243787 
" style="fill: none; stroke: #4c02a1; stroke-width: 1.5; stroke-linecap: round"/>
    </g>
    <g id="text_24">
     <!-- 1 -->
     <g style="fill: #262626" transform="translate(452.553125 134.743787) scale(0.1 -0.1)">
      <use xlink:href="#DejaVuSans-31"/>
     </g>
    </g>
    <g id="line2d_26">
     <path d="M 424.553125 145.921913 
L 434.553125 145.921913 
L 444.553125 145.921913 
" style="fill: none; stroke: #7e03a8; stroke-width: 1.5; stroke-linecap: round"/>
    </g>
    <g id="text_25">
     <!-- 4 -->
     <g style="fill: #262626" transform="translate(452.553125 149.421913) scale(0.1 -0.1)">
      <use xlink:href="#DejaVuSans-34"/>
     </g>
    </g>
    <g id="line2d_27">
     <path d="M 424.553125 160.600037 
L 434.553125 160.600037 
L 444.553125 160.600037 
" style="fill: none; stroke: #aa2395; stroke-width: 1.5; stroke-linecap: round"/>
    </g>
    <g id="text_26">
     <!-- 8 -->
     <g style="fill: #262626" transform="translate(452.553125 164.100037) scale(0.1 -0.1)">
      <use xlink:href="#DejaVuSans-38"/>
     </g>
    </g>
    <g id="line2d_28">
     <path d="M 424.553125 175.278163 
L 434.553125 175.278163 
L 444.553125 175.278163 
" style="fill: none; stroke: #cc4778; stroke-width: 1.5; stroke-linecap: round"/>
    </g>
    <g id="text_27">
     <!-- 16 -->
     <g style="fill: #262626" transform="translate(452.553125 178.778163) scale(0.1 -0.1)">
      <use xlink:href="#DejaVuSans-31"/>
      <use xlink:href="#DejaVuSans-36" transform="translate(63.623047 0)"/>
     </g>
    </g>
    <g id="line2d_29">
     <path d="M 424.553125 189.956288 
L 434.553125 189.956288 
L 444.553125 189.956288 
" style="fill: none; stroke: #e66c5c; stroke-width: 1.5; stroke-linecap: round"/>
    </g>
    <g id="text_28">
     <!-- 32 -->
     <g style="fill: #262626" transform="translate(452.553125 193.456288) scale(0.1 -0.1)">
      <use xlink:href="#DejaVuSans-33"/>
      <use xlink:href="#DejaVuSans-32" transform="translate(63.623047 0)"/>
     </g>
    </g>
    <g id="line2d_30">
     <path d="M 424.553125 204.634412 
L 434.553125 204.634412 
L 444.553125 204.634412 
" style="fill: none; stroke: #f89540; stroke-width: 1.5; stroke-linecap: round"/>
    </g>
    <g id="text_29">
     <!-- 64 -->
     <g style="fill: #262626" transform="translate(452.553125 208.134412) scale(0.1 -0.1)">
      <use xlink:href="#DejaVuSans-36"/>
      <use xlink:href="#DejaVuSans-34" transform="translate(63.623047 0)"/>
     </g>
    </g>
    <g id="line2d_31">
     <path d="M 424.553125 219.312537 
L 434.553125 219.312537 
L 444.553125 219.312537 
" style="fill: none; stroke: #fdc527; stroke-width: 1.5; stroke-linecap: round"/>
    </g>
    <g id="text_30">
     <!-- 128 -->
     <g style="fill: #262626" transform="translate(452.553125 222.812537) scale(0.1 -0.1)">
      <use xlink:href="#DejaVuSans-31"/>
      <use xlink:href="#DejaVuSans-32" transform="translate(63.623047 0)"/>
      <use xlink:href="#DejaVuSans-38" transform="translate(127.246094 0)"/>
     </g>
    </g>
   </g>
  </g>
 </g>
 <defs>
  <clipPath id="pd1e722dce4">
   <rect x="34.240625" y="35.623725" width="357.12" height="266.112"/>
  </clipPath>
 </defs>
</svg>
