<?xml version="1.0" encoding="utf-8" standalone="no"?>
<!DOCTYPE svg PUBLIC "-//W3C//DTD SVG 1.1//EN"
  "http://www.w3.org/Graphics/SVG/1.1/DTD/svg11.dtd">
<svg xmlns:xlink="http://www.w3.org/1999/xlink" width="498.74375pt" height="339.291975pt" viewBox="0 0 498.74375 339.291975" xmlns="http://www.w3.org/2000/svg" version="1.1">
 <metadata>
  <rdf:RDF xmlns:dc="http://purl.org/dc/elements/1.1/" xmlns:cc="http://creativecommons.org/ns#" xmlns:rdf="http://www.w3.org/1999/02/22-rdf-syntax-ns#">
   <cc:Work>
    <dc:type rdf:resource="http://purl.org/dc/dcmitype/StillImage"/>
    <dc:date>2025-09-11T11:47:18.326740</dc:date>
    <dc:format>image/svg+xml</dc:format>
    <dc:creator>
     <cc:Agent>
      <dc:title>Matplotlib v3.10.6, https://matplotlib.org/</dc:title>
     </cc:Agent>
    </dc:creator>
   </cc:Work>
  </rdf:RDF>
 </metadata>
 <defs>
  <style type="text/css">*{stroke-linejoin: round; stroke-linecap: butt}</style>
 </defs>
 <g id="figure_1">
  <g id="patch_1">
   <path d="M 0 339.291975 
L 498.74375 339.291975 
L 498.74375 0 
L 0 0 
z
" style="fill: #ffffff"/>
  </g>
  <g id="axes_1">
   <g id="patch_2">
    <path d="M 50.14375 301.735725 
L 407.26375 301.735725 
L 407.26375 35.623725 
L 50.14375 35.623725 
z
" style="fill: #ffffff"/>
   </g>
   <g id="matplotlib.axis_1">
    <g id="xtick_1">
     <g id="line2d_1">
      <path d="M 112.755698 301.735725 
L 112.755698 35.623725 
" clip-path="url(#pc41997e80d)" style="fill: none; stroke: #cccccc; stroke-width: 0.8; stroke-linecap: round"/>
     </g>
     <g id="text_1">
      <!-- 32 -->
      <g style="fill: #262626" transform="translate(106.393198 316.334162) scale(0.1 -0.1)">
       <defs>
        <path id="DejaVuSans-33" d="M 2597 2516 
Q 3050 2419 3304 2112 
Q 3559 1806 3559 1356 
Q 3559 666 3084 287 
Q 2609 -91 1734 -91 
Q 1441 -91 1130 -33 
Q 819 25 488 141 
L 488 750 
Q 750 597 1062 519 
Q 1375 441 1716 441 
Q 2309 441 2620 675 
Q 2931 909 2931 1356 
Q 2931 1769 2642 2001 
Q 2353 2234 1838 2234 
L 1294 2234 
L 1294 2753 
L 1863 2753 
Q 2328 2753 2575 2939 
Q 2822 3125 2822 3475 
Q 2822 3834 2567 4026 
Q 2313 4219 1838 4219 
Q 1578 4219 1281 4162 
Q 984 4106 628 3988 
L 628 4550 
Q 988 4650 1302 4700 
Q 1616 4750 1894 4750 
Q 2613 4750 3031 4423 
Q 3450 4097 3450 3541 
Q 3450 3153 3228 2886 
Q 3006 2619 2597 2516 
z
" transform="scale(0.015625)"/>
        <path id="DejaVuSans-32" d="M 1228 531 
L 3431 531 
L 3431 0 
L 469 0 
L 469 531 
Q 828 903 1448 1529 
Q 2069 2156 2228 2338 
Q 2531 2678 2651 2914 
Q 2772 3150 2772 3378 
Q 2772 3750 2511 3984 
Q 2250 4219 1831 4219 
Q 1534 4219 1204 4116 
Q 875 4013 500 3803 
L 500 4441 
Q 881 4594 1212 4672 
Q 1544 4750 1819 4750 
Q 2544 4750 2975 4387 
Q 3406 4025 3406 3419 
Q 3406 3131 3298 2873 
Q 3191 2616 2906 2266 
Q 2828 2175 2409 1742 
Q 1991 1309 1228 531 
z
" transform="scale(0.015625)"/>
       </defs>
       <use xlink:href="#DejaVuSans-33"/>
       <use xlink:href="#DejaVuSans-32" transform="translate(63.623047 0)"/>
      </g>
     </g>
    </g>
    <g id="xtick_2">
     <g id="line2d_2">
      <path d="M 391.031023 301.735725 
L 391.031023 35.623725 
" clip-path="url(#pc41997e80d)" style="fill: none; stroke: #cccccc; stroke-width: 0.8; stroke-linecap: round"/>
     </g>
     <g id="text_2">
      <!-- 128 -->
      <g style="fill: #262626" transform="translate(381.487273 316.334162) scale(0.1 -0.1)">
       <defs>
        <path id="DejaVuSans-31" d="M 794 531 
L 1825 531 
L 1825 4091 
L 703 3866 
L 703 4441 
L 1819 4666 
L 2450 4666 
L 2450 531 
L 3481 531 
L 3481 0 
L 794 0 
L 794 531 
z
" transform="scale(0.015625)"/>
        <path id="DejaVuSans-38" d="M 2034 2216 
Q 1584 2216 1326 1975 
Q 1069 1734 1069 1313 
Q 1069 891 1326 650 
Q 1584 409 2034 409 
Q 2484 409 2743 651 
Q 3003 894 3003 1313 
Q 3003 1734 2745 1975 
Q 2488 2216 2034 2216 
z
M 1403 2484 
Q 997 2584 770 2862 
Q 544 3141 544 3541 
Q 544 4100 942 4425 
Q 1341 4750 2034 4750 
Q 2731 4750 3128 4425 
Q 3525 4100 3525 3541 
Q 3525 3141 3298 2862 
Q 3072 2584 2669 2484 
Q 3125 2378 3379 2068 
Q 3634 1759 3634 1313 
Q 3634 634 3220 271 
Q 2806 -91 2034 -91 
Q 1263 -91 848 271 
Q 434 634 434 1313 
Q 434 1759 690 2068 
Q 947 2378 1403 2484 
z
M 1172 3481 
Q 1172 3119 1398 2916 
Q 1625 2713 2034 2713 
Q 2441 2713 2670 2916 
Q 2900 3119 2900 3481 
Q 2900 3844 2670 4047 
Q 2441 4250 2034 4250 
Q 1625 4250 1398 4047 
Q 1172 3844 1172 3481 
z
" transform="scale(0.015625)"/>
       </defs>
       <use xlink:href="#DejaVuSans-31"/>
       <use xlink:href="#DejaVuSans-32" transform="translate(63.623047 0)"/>
       <use xlink:href="#DejaVuSans-38" transform="translate(127.246094 0)"/>
      </g>
     </g>
    </g>
    <g id="xtick_3">
     <g id="line2d_3">
      <path d="M 66.376477 301.735725 
L 66.376477 35.623725 
" clip-path="url(#pc41997e80d)" style="fill: none; stroke: #cccccc; stroke-width: 0.8; stroke-linecap: round"/>
     </g>
     <g id="text_3">
      <!-- 16 -->
      <g style="fill: #262626" transform="translate(60.013977 316.334162) scale(0.1 -0.1)">
       <defs>
        <path id="DejaVuSans-36" d="M 2113 2584 
Q 1688 2584 1439 2293 
Q 1191 2003 1191 1497 
Q 1191 994 1439 701 
Q 1688 409 2113 409 
Q 2538 409 2786 701 
Q 3034 994 3034 1497 
Q 3034 2003 2786 2293 
Q 2538 2584 2113 2584 
z
M 3366 4563 
L 3366 3988 
Q 3128 4100 2886 4159 
Q 2644 4219 2406 4219 
Q 1781 4219 1451 3797 
Q 1122 3375 1075 2522 
Q 1259 2794 1537 2939 
Q 1816 3084 2150 3084 
Q 2853 3084 3261 2657 
Q 3669 2231 3669 1497 
Q 3669 778 3244 343 
Q 2819 -91 2113 -91 
Q 1303 -91 875 529 
Q 447 1150 447 2328 
Q 447 3434 972 4092 
Q 1497 4750 2381 4750 
Q 2619 4750 2861 4703 
Q 3103 4656 3366 4563 
z
" transform="scale(0.015625)"/>
       </defs>
       <use xlink:href="#DejaVuSans-31"/>
       <use xlink:href="#DejaVuSans-36" transform="translate(63.623047 0)"/>
      </g>
     </g>
    </g>
    <g id="xtick_4">
     <g id="line2d_4">
      <path d="M 205.51414 301.735725 
L 205.51414 35.623725 
" clip-path="url(#pc41997e80d)" style="fill: none; stroke: #cccccc; stroke-width: 0.8; stroke-linecap: round"/>
     </g>
     <g id="text_4">
      <!-- 64 -->
      <g style="fill: #262626" transform="translate(199.15164 316.334162) scale(0.1 -0.1)">
       <defs>
        <path id="DejaVuSans-34" d="M 2419 4116 
L 825 1625 
L 2419 1625 
L 2419 4116 
z
M 2253 4666 
L 3047 4666 
L 3047 1625 
L 3713 1625 
L 3713 1100 
L 3047 1100 
L 3047 0 
L 2419 0 
L 2419 1100 
L 313 1100 
L 313 1709 
L 2253 4666 
z
" transform="scale(0.015625)"/>
       </defs>
       <use xlink:href="#DejaVuSans-36"/>
       <use xlink:href="#DejaVuSans-34" transform="translate(63.623047 0)"/>
      </g>
     </g>
    </g>
    <g id="text_5">
     <!-- Number of Jobs -->
     <g style="fill: #262626" transform="translate(190.306875 330.012287) scale(0.1 -0.1)">
      <defs>
       <path id="DejaVuSans-4e" d="M 628 4666 
L 1478 4666 
L 3547 763 
L 3547 4666 
L 4159 4666 
L 4159 0 
L 3309 0 
L 1241 3903 
L 1241 0 
L 628 0 
L 628 4666 
z
" transform="scale(0.015625)"/>
       <path id="DejaVuSans-75" d="M 544 1381 
L 544 3500 
L 1119 3500 
L 1119 1403 
Q 1119 906 1312 657 
Q 1506 409 1894 409 
Q 2359 409 2629 706 
Q 2900 1003 2900 1516 
L 2900 3500 
L 3475 3500 
L 3475 0 
L 2900 0 
L 2900 538 
Q 2691 219 2414 64 
Q 2138 -91 1772 -91 
Q 1169 -91 856 284 
Q 544 659 544 1381 
z
M 1991 3584 
L 1991 3584 
z
" transform="scale(0.015625)"/>
       <path id="DejaVuSans-6d" d="M 3328 2828 
Q 3544 3216 3844 3400 
Q 4144 3584 4550 3584 
Q 5097 3584 5394 3201 
Q 5691 2819 5691 2113 
L 5691 0 
L 5113 0 
L 5113 2094 
Q 5113 2597 4934 2840 
Q 4756 3084 4391 3084 
Q 3944 3084 3684 2787 
Q 3425 2491 3425 1978 
L 3425 0 
L 2847 0 
L 2847 2094 
Q 2847 2600 2669 2842 
Q 2491 3084 2119 3084 
Q 1678 3084 1418 2786 
Q 1159 2488 1159 1978 
L 1159 0 
L 581 0 
L 581 3500 
L 1159 3500 
L 1159 2956 
Q 1356 3278 1631 3431 
Q 1906 3584 2284 3584 
Q 2666 3584 2933 3390 
Q 3200 3197 3328 2828 
z
" transform="scale(0.015625)"/>
       <path id="DejaVuSans-62" d="M 3116 1747 
Q 3116 2381 2855 2742 
Q 2594 3103 2138 3103 
Q 1681 3103 1420 2742 
Q 1159 2381 1159 1747 
Q 1159 1113 1420 752 
Q 1681 391 2138 391 
Q 2594 391 2855 752 
Q 3116 1113 3116 1747 
z
M 1159 2969 
Q 1341 3281 1617 3432 
Q 1894 3584 2278 3584 
Q 2916 3584 3314 3078 
Q 3713 2572 3713 1747 
Q 3713 922 3314 415 
Q 2916 -91 2278 -91 
Q 1894 -91 1617 61 
Q 1341 213 1159 525 
L 1159 0 
L 581 0 
L 581 4863 
L 1159 4863 
L 1159 2969 
z
" transform="scale(0.015625)"/>
       <path id="DejaVuSans-65" d="M 3597 1894 
L 3597 1613 
L 953 1613 
Q 991 1019 1311 708 
Q 1631 397 2203 397 
Q 2534 397 2845 478 
Q 3156 559 3463 722 
L 3463 178 
Q 3153 47 2828 -22 
Q 2503 -91 2169 -91 
Q 1331 -91 842 396 
Q 353 884 353 1716 
Q 353 2575 817 3079 
Q 1281 3584 2069 3584 
Q 2775 3584 3186 3129 
Q 3597 2675 3597 1894 
z
M 3022 2063 
Q 3016 2534 2758 2815 
Q 2500 3097 2075 3097 
Q 1594 3097 1305 2825 
Q 1016 2553 972 2059 
L 3022 2063 
z
" transform="scale(0.015625)"/>
       <path id="DejaVuSans-72" d="M 2631 2963 
Q 2534 3019 2420 3045 
Q 2306 3072 2169 3072 
Q 1681 3072 1420 2755 
Q 1159 2438 1159 1844 
L 1159 0 
L 581 0 
L 581 3500 
L 1159 3500 
L 1159 2956 
Q 1341 3275 1631 3429 
Q 1922 3584 2338 3584 
Q 2397 3584 2469 3576 
Q 2541 3569 2628 3553 
L 2631 2963 
z
" transform="scale(0.015625)"/>
       <path id="DejaVuSans-20" transform="scale(0.015625)"/>
       <path id="DejaVuSans-6f" d="M 1959 3097 
Q 1497 3097 1228 2736 
Q 959 2375 959 1747 
Q 959 1119 1226 758 
Q 1494 397 1959 397 
Q 2419 397 2687 759 
Q 2956 1122 2956 1747 
Q 2956 2369 2687 2733 
Q 2419 3097 1959 3097 
z
M 1959 3584 
Q 2709 3584 3137 3096 
Q 3566 2609 3566 1747 
Q 3566 888 3137 398 
Q 2709 -91 1959 -91 
Q 1206 -91 779 398 
Q 353 888 353 1747 
Q 353 2609 779 3096 
Q 1206 3584 1959 3584 
z
" transform="scale(0.015625)"/>
       <path id="DejaVuSans-66" d="M 2375 4863 
L 2375 4384 
L 1825 4384 
Q 1516 4384 1395 4259 
Q 1275 4134 1275 3809 
L 1275 3500 
L 2222 3500 
L 2222 3053 
L 1275 3053 
L 1275 0 
L 697 0 
L 697 3053 
L 147 3053 
L 147 3500 
L 697 3500 
L 697 3744 
Q 697 4328 969 4595 
Q 1241 4863 1831 4863 
L 2375 4863 
z
" transform="scale(0.015625)"/>
       <path id="DejaVuSans-4a" d="M 628 4666 
L 1259 4666 
L 1259 325 
Q 1259 -519 939 -900 
Q 619 -1281 -91 -1281 
L -331 -1281 
L -331 -750 
L -134 -750 
Q 284 -750 456 -515 
Q 628 -281 628 325 
L 628 4666 
z
" transform="scale(0.015625)"/>
       <path id="DejaVuSans-73" d="M 2834 3397 
L 2834 2853 
Q 2591 2978 2328 3040 
Q 2066 3103 1784 3103 
Q 1356 3103 1142 2972 
Q 928 2841 928 2578 
Q 928 2378 1081 2264 
Q 1234 2150 1697 2047 
L 1894 2003 
Q 2506 1872 2764 1633 
Q 3022 1394 3022 966 
Q 3022 478 2636 193 
Q 2250 -91 1575 -91 
Q 1294 -91 989 -36 
Q 684 19 347 128 
L 347 722 
Q 666 556 975 473 
Q 1284 391 1588 391 
Q 1994 391 2212 530 
Q 2431 669 2431 922 
Q 2431 1156 2273 1281 
Q 2116 1406 1581 1522 
L 1381 1569 
Q 847 1681 609 1914 
Q 372 2147 372 2553 
Q 372 3047 722 3315 
Q 1072 3584 1716 3584 
Q 2034 3584 2315 3537 
Q 2597 3491 2834 3397 
z
" transform="scale(0.015625)"/>
      </defs>
      <use xlink:href="#DejaVuSans-4e"/>
      <use xlink:href="#DejaVuSans-75" transform="translate(74.804688 0)"/>
      <use xlink:href="#DejaVuSans-6d" transform="translate(138.183594 0)"/>
      <use xlink:href="#DejaVuSans-62" transform="translate(235.595703 0)"/>
      <use xlink:href="#DejaVuSans-65" transform="translate(299.072266 0)"/>
      <use xlink:href="#DejaVuSans-72" transform="translate(360.595703 0)"/>
      <use xlink:href="#DejaVuSans-20" transform="translate(401.708984 0)"/>
      <use xlink:href="#DejaVuSans-6f" transform="translate(433.496094 0)"/>
      <use xlink:href="#DejaVuSans-66" transform="translate(494.677734 0)"/>
      <use xlink:href="#DejaVuSans-20" transform="translate(529.882812 0)"/>
      <use xlink:href="#DejaVuSans-4a" transform="translate(561.669922 0)"/>
      <use xlink:href="#DejaVuSans-6f" transform="translate(591.162109 0)"/>
      <use xlink:href="#DejaVuSans-62" transform="translate(652.34375 0)"/>
      <use xlink:href="#DejaVuSans-73" transform="translate(715.820312 0)"/>
     </g>
    </g>
   </g>
   <g id="matplotlib.axis_2">
    <g id="ytick_1">
     <g id="line2d_5">
      <path d="M 50.14375 273.119552 
L 407.26375 273.119552 
" clip-path="url(#pc41997e80d)" style="fill: none; stroke: #cccccc; stroke-width: 0.8; stroke-linecap: round"/>
     </g>
     <g id="text_6">
      <!-- 0.25 -->
      <g style="fill: #262626" transform="translate(20.878125 276.918771) scale(0.1 -0.1)">
       <defs>
        <path id="DejaVuSans-30" d="M 2034 4250 
Q 1547 4250 1301 3770 
Q 1056 3291 1056 2328 
Q 1056 1369 1301 889 
Q 1547 409 2034 409 
Q 2525 409 2770 889 
Q 3016 1369 3016 2328 
Q 3016 3291 2770 3770 
Q 2525 4250 2034 4250 
z
M 2034 4750 
Q 2819 4750 3233 4129 
Q 3647 3509 3647 2328 
Q 3647 1150 3233 529 
Q 2819 -91 2034 -91 
Q 1250 -91 836 529 
Q 422 1150 422 2328 
Q 422 3509 836 4129 
Q 1250 4750 2034 4750 
z
" transform="scale(0.015625)"/>
        <path id="DejaVuSans-2e" d="M 684 794 
L 1344 794 
L 1344 0 
L 684 0 
L 684 794 
z
" transform="scale(0.015625)"/>
        <path id="DejaVuSans-35" d="M 691 4666 
L 3169 4666 
L 3169 4134 
L 1269 4134 
L 1269 2991 
Q 1406 3038 1543 3061 
Q 1681 3084 1819 3084 
Q 2600 3084 3056 2656 
Q 3513 2228 3513 1497 
Q 3513 744 3044 326 
Q 2575 -91 1722 -91 
Q 1428 -91 1123 -41 
Q 819 9 494 109 
L 494 744 
Q 775 591 1075 516 
Q 1375 441 1709 441 
Q 2250 441 2565 725 
Q 2881 1009 2881 1497 
Q 2881 1984 2565 2268 
Q 2250 2553 1709 2553 
Q 1456 2553 1204 2497 
Q 953 2441 691 2322 
L 691 4666 
z
" transform="scale(0.015625)"/>
       </defs>
       <use xlink:href="#DejaVuSans-30"/>
       <use xlink:href="#DejaVuSans-2e" transform="translate(63.623047 0)"/>
       <use xlink:href="#DejaVuSans-32" transform="translate(95.410156 0)"/>
       <use xlink:href="#DejaVuSans-35" transform="translate(159.033203 0)"/>
      </g>
     </g>
    </g>
    <g id="ytick_2">
     <g id="line2d_6">
      <path d="M 50.14375 239.642523 
L 407.26375 239.642523 
" clip-path="url(#pc41997e80d)" style="fill: none; stroke: #cccccc; stroke-width: 0.8; stroke-linecap: round"/>
     </g>
     <g id="text_7">
      <!-- 0.50 -->
      <g style="fill: #262626" transform="translate(20.878125 243.441742) scale(0.1 -0.1)">
       <use xlink:href="#DejaVuSans-30"/>
       <use xlink:href="#DejaVuSans-2e" transform="translate(63.623047 0)"/>
       <use xlink:href="#DejaVuSans-35" transform="translate(95.410156 0)"/>
       <use xlink:href="#DejaVuSans-30" transform="translate(159.033203 0)"/>
      </g>
     </g>
    </g>
    <g id="ytick_3">
     <g id="line2d_7">
      <path d="M 50.14375 206.165494 
L 407.26375 206.165494 
" clip-path="url(#pc41997e80d)" style="fill: none; stroke: #cccccc; stroke-width: 0.8; stroke-linecap: round"/>
     </g>
     <g id="text_8">
      <!-- 0.75 -->
      <g style="fill: #262626" transform="translate(20.878125 209.964713) scale(0.1 -0.1)">
       <defs>
        <path id="DejaVuSans-37" d="M 525 4666 
L 3525 4666 
L 3525 4397 
L 1831 0 
L 1172 0 
L 2766 4134 
L 525 4134 
L 525 4666 
z
" transform="scale(0.015625)"/>
       </defs>
       <use xlink:href="#DejaVuSans-30"/>
       <use xlink:href="#DejaVuSans-2e" transform="translate(63.623047 0)"/>
       <use xlink:href="#DejaVuSans-37" transform="translate(95.410156 0)"/>
       <use xlink:href="#DejaVuSans-35" transform="translate(159.033203 0)"/>
      </g>
     </g>
    </g>
    <g id="ytick_4">
     <g id="line2d_8">
      <path d="M 50.14375 172.688465 
L 407.26375 172.688465 
" clip-path="url(#pc41997e80d)" style="fill: none; stroke: #cccccc; stroke-width: 0.8; stroke-linecap: round"/>
     </g>
     <g id="text_9">
      <!-- 1.00 -->
      <g style="fill: #262626" transform="translate(20.878125 176.487684) scale(0.1 -0.1)">
       <use xlink:href="#DejaVuSans-31"/>
       <use xlink:href="#DejaVuSans-2e" transform="translate(63.623047 0)"/>
       <use xlink:href="#DejaVuSans-30" transform="translate(95.410156 0)"/>
       <use xlink:href="#DejaVuSans-30" transform="translate(159.033203 0)"/>
      </g>
     </g>
    </g>
    <g id="ytick_5">
     <g id="line2d_9">
      <path d="M 50.14375 139.211437 
L 407.26375 139.211437 
" clip-path="url(#pc41997e80d)" style="fill: none; stroke: #cccccc; stroke-width: 0.8; stroke-linecap: round"/>
     </g>
     <g id="text_10">
      <!-- 1.25 -->
      <g style="fill: #262626" transform="translate(20.878125 143.010655) scale(0.1 -0.1)">
       <use xlink:href="#DejaVuSans-31"/>
       <use xlink:href="#DejaVuSans-2e" transform="translate(63.623047 0)"/>
       <use xlink:href="#DejaVuSans-32" transform="translate(95.410156 0)"/>
       <use xlink:href="#DejaVuSans-35" transform="translate(159.033203 0)"/>
      </g>
     </g>
    </g>
    <g id="ytick_6">
     <g id="line2d_10">
      <path d="M 50.14375 105.734408 
L 407.26375 105.734408 
" clip-path="url(#pc41997e80d)" style="fill: none; stroke: #cccccc; stroke-width: 0.8; stroke-linecap: round"/>
     </g>
     <g id="text_11">
      <!-- 1.50 -->
      <g style="fill: #262626" transform="translate(20.878125 109.533627) scale(0.1 -0.1)">
       <use xlink:href="#DejaVuSans-31"/>
       <use xlink:href="#DejaVuSans-2e" transform="translate(63.623047 0)"/>
       <use xlink:href="#DejaVuSans-35" transform="translate(95.410156 0)"/>
       <use xlink:href="#DejaVuSans-30" transform="translate(159.033203 0)"/>
      </g>
     </g>
    </g>
    <g id="ytick_7">
     <g id="line2d_11">
      <path d="M 50.14375 72.257379 
L 407.26375 72.257379 
" clip-path="url(#pc41997e80d)" style="fill: none; stroke: #cccccc; stroke-width: 0.8; stroke-linecap: round"/>
     </g>
     <g id="text_12">
      <!-- 1.75 -->
      <g style="fill: #262626" transform="translate(20.878125 76.056598) scale(0.1 -0.1)">
       <use xlink:href="#DejaVuSans-31"/>
       <use xlink:href="#DejaVuSans-2e" transform="translate(63.623047 0)"/>
       <use xlink:href="#DejaVuSans-37" transform="translate(95.410156 0)"/>
       <use xlink:href="#DejaVuSans-35" transform="translate(159.033203 0)"/>
      </g>
     </g>
    </g>
    <g id="ytick_8">
     <g id="line2d_12">
      <path d="M 50.14375 38.78035 
L 407.26375 38.78035 
" clip-path="url(#pc41997e80d)" style="fill: none; stroke: #cccccc; stroke-width: 0.8; stroke-linecap: round"/>
     </g>
     <g id="text_13">
      <!-- 2.00 -->
      <g style="fill: #262626" transform="translate(20.878125 42.579569) scale(0.1 -0.1)">
       <use xlink:href="#DejaVuSans-32"/>
       <use xlink:href="#DejaVuSans-2e" transform="translate(63.623047 0)"/>
       <use xlink:href="#DejaVuSans-30" transform="translate(95.410156 0)"/>
       <use xlink:href="#DejaVuSans-30" transform="translate(159.033203 0)"/>
      </g>
     </g>
    </g>
    <g id="text_14">
     <!-- Mean Latency (ns) -->
     <g style="fill: #262626" transform="translate(14.798438 214.92035) rotate(-90) scale(0.1 -0.1)">
      <defs>
       <path id="DejaVuSans-4d" d="M 628 4666 
L 1569 4666 
L 2759 1491 
L 3956 4666 
L 4897 4666 
L 4897 0 
L 4281 0 
L 4281 4097 
L 3078 897 
L 2444 897 
L 1241 4097 
L 1241 0 
L 628 0 
L 628 4666 
z
" transform="scale(0.015625)"/>
       <path id="DejaVuSans-61" d="M 2194 1759 
Q 1497 1759 1228 1600 
Q 959 1441 959 1056 
Q 959 750 1161 570 
Q 1363 391 1709 391 
Q 2188 391 2477 730 
Q 2766 1069 2766 1631 
L 2766 1759 
L 2194 1759 
z
M 3341 1997 
L 3341 0 
L 2766 0 
L 2766 531 
Q 2569 213 2275 61 
Q 1981 -91 1556 -91 
Q 1019 -91 701 211 
Q 384 513 384 1019 
Q 384 1609 779 1909 
Q 1175 2209 1959 2209 
L 2766 2209 
L 2766 2266 
Q 2766 2663 2505 2880 
Q 2244 3097 1772 3097 
Q 1472 3097 1187 3025 
Q 903 2953 641 2809 
L 641 3341 
Q 956 3463 1253 3523 
Q 1550 3584 1831 3584 
Q 2591 3584 2966 3190 
Q 3341 2797 3341 1997 
z
" transform="scale(0.015625)"/>
       <path id="DejaVuSans-6e" d="M 3513 2113 
L 3513 0 
L 2938 0 
L 2938 2094 
Q 2938 2591 2744 2837 
Q 2550 3084 2163 3084 
Q 1697 3084 1428 2787 
Q 1159 2491 1159 1978 
L 1159 0 
L 581 0 
L 581 3500 
L 1159 3500 
L 1159 2956 
Q 1366 3272 1645 3428 
Q 1925 3584 2291 3584 
Q 2894 3584 3203 3211 
Q 3513 2838 3513 2113 
z
" transform="scale(0.015625)"/>
       <path id="DejaVuSans-4c" d="M 628 4666 
L 1259 4666 
L 1259 531 
L 3531 531 
L 3531 0 
L 628 0 
L 628 4666 
z
" transform="scale(0.015625)"/>
       <path id="DejaVuSans-74" d="M 1172 4494 
L 1172 3500 
L 2356 3500 
L 2356 3053 
L 1172 3053 
L 1172 1153 
Q 1172 725 1289 603 
Q 1406 481 1766 481 
L 2356 481 
L 2356 0 
L 1766 0 
Q 1100 0 847 248 
Q 594 497 594 1153 
L 594 3053 
L 172 3053 
L 172 3500 
L 594 3500 
L 594 4494 
L 1172 4494 
z
" transform="scale(0.015625)"/>
       <path id="DejaVuSans-63" d="M 3122 3366 
L 3122 2828 
Q 2878 2963 2633 3030 
Q 2388 3097 2138 3097 
Q 1578 3097 1268 2742 
Q 959 2388 959 1747 
Q 959 1106 1268 751 
Q 1578 397 2138 397 
Q 2388 397 2633 464 
Q 2878 531 3122 666 
L 3122 134 
Q 2881 22 2623 -34 
Q 2366 -91 2075 -91 
Q 1284 -91 818 406 
Q 353 903 353 1747 
Q 353 2603 823 3093 
Q 1294 3584 2113 3584 
Q 2378 3584 2631 3529 
Q 2884 3475 3122 3366 
z
" transform="scale(0.015625)"/>
       <path id="DejaVuSans-79" d="M 2059 -325 
Q 1816 -950 1584 -1140 
Q 1353 -1331 966 -1331 
L 506 -1331 
L 506 -850 
L 844 -850 
Q 1081 -850 1212 -737 
Q 1344 -625 1503 -206 
L 1606 56 
L 191 3500 
L 800 3500 
L 1894 763 
L 2988 3500 
L 3597 3500 
L 2059 -325 
z
" transform="scale(0.015625)"/>
       <path id="DejaVuSans-28" d="M 1984 4856 
Q 1566 4138 1362 3434 
Q 1159 2731 1159 2009 
Q 1159 1288 1364 580 
Q 1569 -128 1984 -844 
L 1484 -844 
Q 1016 -109 783 600 
Q 550 1309 550 2009 
Q 550 2706 781 3412 
Q 1013 4119 1484 4856 
L 1984 4856 
z
" transform="scale(0.015625)"/>
       <path id="DejaVuSans-29" d="M 513 4856 
L 1013 4856 
Q 1481 4119 1714 3412 
Q 1947 2706 1947 2009 
Q 1947 1309 1714 600 
Q 1481 -109 1013 -844 
L 513 -844 
Q 928 -128 1133 580 
Q 1338 1288 1338 2009 
Q 1338 2731 1133 3434 
Q 928 4138 513 4856 
z
" transform="scale(0.015625)"/>
      </defs>
      <use xlink:href="#DejaVuSans-4d"/>
      <use xlink:href="#DejaVuSans-65" transform="translate(86.279297 0)"/>
      <use xlink:href="#DejaVuSans-61" transform="translate(147.802734 0)"/>
      <use xlink:href="#DejaVuSans-6e" transform="translate(209.082031 0)"/>
      <use xlink:href="#DejaVuSans-20" transform="translate(272.460938 0)"/>
      <use xlink:href="#DejaVuSans-4c" transform="translate(304.248047 0)"/>
      <use xlink:href="#DejaVuSans-61" transform="translate(359.960938 0)"/>
      <use xlink:href="#DejaVuSans-74" transform="translate(421.240234 0)"/>
      <use xlink:href="#DejaVuSans-65" transform="translate(460.449219 0)"/>
      <use xlink:href="#DejaVuSans-6e" transform="translate(521.972656 0)"/>
      <use xlink:href="#DejaVuSans-63" transform="translate(585.351562 0)"/>
      <use xlink:href="#DejaVuSans-79" transform="translate(640.332031 0)"/>
      <use xlink:href="#DejaVuSans-20" transform="translate(699.511719 0)"/>
      <use xlink:href="#DejaVuSans-28" transform="translate(731.298828 0)"/>
      <use xlink:href="#DejaVuSans-6e" transform="translate(770.3125 0)"/>
      <use xlink:href="#DejaVuSans-73" transform="translate(833.691406 0)"/>
      <use xlink:href="#DejaVuSans-29" transform="translate(885.791016 0)"/>
     </g>
    </g>
    <g id="text_15">
     <!-- 1e8 -->
     <g style="fill: #262626" transform="translate(50.14375 32.623725) scale(0.1 -0.1)">
      <use xlink:href="#DejaVuSans-31"/>
      <use xlink:href="#DejaVuSans-65" transform="translate(63.623047 0)"/>
      <use xlink:href="#DejaVuSans-38" transform="translate(125.146484 0)"/>
     </g>
    </g>
   </g>
   <g id="FillBetweenPolyCollection_1"/>
   <g id="FillBetweenPolyCollection_2"/>
   <g id="FillBetweenPolyCollection_3"/>
   <g id="FillBetweenPolyCollection_4"/>
   <g id="FillBetweenPolyCollection_5"/>
   <g id="FillBetweenPolyCollection_6"/>
   <g id="FillBetweenPolyCollection_7"/>
   <g id="line2d_13">
    <path d="M 66.376477 283.66221 
L 112.755698 262.948758 
L 205.51414 196.152169 
L 391.031023 47.719725 
" clip-path="url(#pc41997e80d)" style="fill: none; stroke: #4c02a1; stroke-width: 1.5; stroke-linecap: round"/>
   </g>
   <g id="line2d_14">
    <path d="M 66.376477 289.639725 
L 112.755698 260.988319 
L 205.51414 199.815394 
L 391.031023 116.818058 
" clip-path="url(#pc41997e80d)" style="fill: none; stroke: #7e03a8; stroke-width: 1.5; stroke-linecap: round"/>
   </g>
   <g id="line2d_15">
    <path d="M 66.376477 285.734419 
L 112.755698 259.537438 
L 205.51414 167.794398 
L 391.031023 63.212728 
" clip-path="url(#pc41997e80d)" style="fill: none; stroke: #aa2395; stroke-width: 1.5; stroke-linecap: round"/>
   </g>
   <g id="line2d_16">
    <path d="M 66.376477 286.475292 
L 112.755698 265.102849 
L 205.51414 199.015905 
L 391.031023 98.042342 
" clip-path="url(#pc41997e80d)" style="fill: none; stroke: #cc4778; stroke-width: 1.5; stroke-linecap: round"/>
   </g>
   <g id="line2d_17">
    <path d="M 66.376477 284.657166 
L 112.755698 259.278887 
L 205.51414 198.536915 
L 391.031023 96.971265 
" clip-path="url(#pc41997e80d)" style="fill: none; stroke: #e66c5c; stroke-width: 1.5; stroke-linecap: round"/>
   </g>
   <g id="line2d_18">
    <path d="M 66.376477 285.864496 
L 112.755698 259.124521 
L 205.51414 185.946128 
L 391.031023 88.418396 
" clip-path="url(#pc41997e80d)" style="fill: none; stroke: #f89540; stroke-width: 1.5; stroke-linecap: round"/>
   </g>
   <g id="line2d_19">
    <path d="M 66.376477 285.850525 
L 112.755698 253.009233 
L 205.51414 177.583899 
L 391.031023 140.665142 
" clip-path="url(#pc41997e80d)" style="fill: none; stroke: #fdc527; stroke-width: 1.5; stroke-linecap: round"/>
   </g>
   <g id="line2d_20"/>
   <g id="line2d_21"/>
   <g id="line2d_22"/>
   <g id="line2d_23"/>
   <g id="line2d_24"/>
   <g id="line2d_25"/>
   <g id="line2d_26"/>
   <g id="text_16">
    <path d="M 107.190718 267.547529 
L 108.661626 266.890606 
L 106.393298 261.811621 
L 104.935925 262.84753 
L 104.569552 262.027188 
L 106.018364 260.995102 
L 106.9186 260.593047 
L 109.553302 266.492374 
L 111.024211 265.835451 
L 111.362548 266.593019 
L 107.529056 268.305097 
L 107.190718 267.547529 
z
" clip-path="url(#pc41997e80d)" style="fill: #4c02a1; stroke: #ffffff; stroke-width: 5"/>
    <path d="M 107.190718 267.547529 
L 108.661626 266.890606 
L 106.393298 261.811621 
L 104.935925 262.84753 
L 104.569552 262.027188 
L 106.018364 260.995102 
L 106.9186 260.593047 
L 109.553302 266.492374 
L 111.024211 265.835451 
L 111.362548 266.593019 
L 107.529056 268.305097 
L 107.190718 267.547529 
z
" clip-path="url(#pc41997e80d)" style="fill: #4c02a1"/>
   </g>
   <g id="text_17">
    <path d="M 146.829803 234.118438 
L 146.893431 238.738859 
L 148.972621 237.367661 
L 146.829803 234.118438 
z
M 146.140151 233.543823 
L 147.175833 232.860805 
L 149.791775 236.82744 
L 150.660496 236.254531 
L 151.112113 236.939333 
L 150.243393 237.512243 
L 151.189639 238.947066 
L 150.370485 239.487287 
L 149.424239 238.052463 
L 146.677204 239.864096 
L 146.153327 239.069725 
L 146.140151 233.543823 
z
" clip-path="url(#pc41997e80d)" style="fill: #7e03a8; stroke: #ffffff; stroke-width: 5"/>
    <path d="M 146.829803 234.118438 
L 146.893431 238.738859 
L 148.972621 237.367661 
L 146.829803 234.118438 
z
M 146.140151 233.543823 
L 147.175833 232.860805 
L 149.791775 236.82744 
L 150.660496 236.254531 
L 151.112113 236.939333 
L 150.243393 237.512243 
L 151.189639 238.947066 
L 150.370485 239.487287 
L 149.424239 238.052463 
L 146.677204 239.864096 
L 146.153327 239.069725 
L 146.140151 233.543823 
z
" clip-path="url(#pc41997e80d)" style="fill: #7e03a8"/>
   </g>
   <g id="text_18">
    <path d="M 188.031087 184.097126 
Q 187.531174 184.591567 187.509358 185.142778 
Q 187.488652 185.692889 187.951229 186.160586 
Q 188.414905 186.629393 188.965211 186.614744 
Q 189.516628 186.598996 190.016542 186.104555 
Q 190.516455 185.610114 190.538283 185.056694 
Q 190.560124 184.501064 190.099745 184.03559 
Q 189.637168 183.567893 189.085751 183.583641 
Q 188.535444 183.59829 188.031087 184.097126 
z
M 187.035631 184.492716 
Q 186.474723 184.82772 185.91709 184.768302 
Q 185.359469 184.706675 184.919966 184.262308 
Q 184.305761 183.641305 184.39081 182.842951 
Q 184.476971 182.043499 185.246837 181.28206 
Q 186.021147 180.516226 186.819277 180.441068 
Q 187.617408 180.36591 188.231613 180.986913 
Q 188.671116 181.43128 188.725491 181.990644 
Q 188.779878 182.547798 188.442054 183.101689 
Q 189.0651 182.718413 189.687888 182.783714 
Q 190.310688 182.846804 190.800734 183.342274 
Q 191.54679 184.096587 191.485719 184.954736 
Q 191.423549 185.811774 190.56592 186.660014 
Q 189.709402 187.507156 188.850621 187.560988 
Q 187.991852 187.61261 187.245796 186.858297 
Q 186.755751 186.362827 186.70063 185.738272 
Q 186.645521 185.111507 187.035631 184.492716 
z
M 185.683548 183.638944 
Q 186.081298 184.041096 186.555414 184.018293 
Q 187.03064 183.994392 187.485005 183.545 
Q 187.937149 183.097806 187.968501 182.620674 
Q 188.000965 182.142444 187.603215 181.740291 
Q 187.204366 181.337028 186.725807 181.364226 
Q 186.248359 181.390325 185.796215 181.837519 
Q 185.34185 182.286911 185.312719 182.761845 
Q 185.284699 183.23568 185.683548 183.638944 
z
" clip-path="url(#pc41997e80d)" style="fill: #aa2395; stroke: #ffffff; stroke-width: 5"/>
    <path d="M 188.031087 184.097126 
Q 187.531174 184.591567 187.509358 185.142778 
Q 187.488652 185.692889 187.951229 186.160586 
Q 188.414905 186.629393 188.965211 186.614744 
Q 189.516628 186.598996 190.016542 186.104555 
Q 190.516455 185.610114 190.538283 185.056694 
Q 190.560124 184.501064 190.099745 184.03559 
Q 189.637168 183.567893 189.085751 183.583641 
Q 188.535444 183.59829 188.031087 184.097126 
z
M 187.035631 184.492716 
Q 186.474723 184.82772 185.91709 184.768302 
Q 185.359469 184.706675 184.919966 184.262308 
Q 184.305761 183.641305 184.39081 182.842951 
Q 184.476971 182.043499 185.246837 181.28206 
Q 186.021147 180.516226 186.819277 180.441068 
Q 187.617408 180.36591 188.231613 180.986913 
Q 188.671116 181.43128 188.725491 181.990644 
Q 188.779878 182.547798 188.442054 183.101689 
Q 189.0651 182.718413 189.687888 182.783714 
Q 190.310688 182.846804 190.800734 183.342274 
Q 191.54679 184.096587 191.485719 184.954736 
Q 191.423549 185.811774 190.56592 186.660014 
Q 189.709402 187.507156 188.850621 187.560988 
Q 187.991852 187.61261 187.245796 186.858297 
Q 186.755751 186.362827 186.70063 185.738272 
Q 186.645521 185.111507 187.035631 184.492716 
z
M 185.683548 183.638944 
Q 186.081298 184.041096 186.555414 184.018293 
Q 187.03064 183.994392 187.485005 183.545 
Q 187.937149 183.097806 187.968501 182.620674 
Q 188.000965 182.142444 187.603215 181.740291 
Q 187.204366 181.337028 186.725807 181.364226 
Q 186.248359 181.390325 185.796215 181.837519 
Q 185.34185 182.286911 185.312719 182.761845 
Q 185.284699 183.23568 185.683548 183.638944 
z
" clip-path="url(#pc41997e80d)" style="fill: #aa2395"/>
   </g>
   <g id="text_19">
    <path d="M 225.127567 190.537664 
L 226.542499 189.767541 
L 223.883299 184.881842 
L 222.511547 186.028725 
L 222.082041 185.239602 
L 223.445559 184.097201 
L 224.311535 183.625865 
L 227.400241 189.300687 
L 228.815172 188.530565 
L 229.211811 189.259303 
L 225.524206 191.266401 
L 225.127567 190.537664 
z
M 230.992415 183.69335 
Q 230.40915 184.010811 230.284793 184.59617 
Q 230.161061 185.17941 230.539026 185.873838 
Q 230.91475 186.564149 231.473963 186.781011 
Q 232.033802 186.995754 232.617067 186.678293 
Q 233.200331 186.360832 233.322569 185.774847 
Q 233.44406 185.18749 233.068336 184.497179 
Q 232.690371 183.802751 232.133399 183.590006 
Q 231.57568 183.375889 230.992415 183.69335 
z
M 231.23377 180.041446 
L 231.663276 180.830569 
Q 231.252987 180.85464 230.876799 180.954435 
Q 230.499863 181.052857 230.173235 181.230635 
Q 229.315492 181.697489 229.177824 182.523136 
Q 229.041528 183.348035 229.614189 184.553789 
Q 229.663533 184.043058 229.936747 183.636405 
Q 230.211333 183.229005 230.66971 182.979518 
Q 231.634499 182.454401 232.513387 182.735648 
Q 233.391529 183.015523 233.939802 184.022856 
Q 234.476871 185.009602 234.218537 185.924052 
Q 233.959455 186.837128 232.99055 187.364487 
Q 231.878916 187.969529 230.828415 187.438351 
Q 229.777167 186.9058 228.897241 185.289127 
Q 228.071096 183.771266 228.300096 182.476078 
Q 228.529095 181.18089 229.742286 180.520572 
Q 230.068914 180.342794 230.436139 180.22653 
Q 230.803364 180.110266 231.23377 180.041446 
z
" clip-path="url(#pc41997e80d)" style="fill: #cc4778; stroke: #ffffff; stroke-width: 5"/>
    <path d="M 225.127567 190.537664 
L 226.542499 189.767541 
L 223.883299 184.881842 
L 222.511547 186.028725 
L 222.082041 185.239602 
L 223.445559 184.097201 
L 224.311535 183.625865 
L 227.400241 189.300687 
L 228.815172 188.530565 
L 229.211811 189.259303 
L 225.524206 191.266401 
L 225.127567 190.537664 
z
M 230.992415 183.69335 
Q 230.40915 184.010811 230.284793 184.59617 
Q 230.161061 185.17941 230.539026 185.873838 
Q 230.91475 186.564149 231.473963 186.781011 
Q 232.033802 186.995754 232.617067 186.678293 
Q 233.200331 186.360832 233.322569 185.774847 
Q 233.44406 185.18749 233.068336 184.497179 
Q 232.690371 183.802751 232.133399 183.590006 
Q 231.57568 183.375889 230.992415 183.69335 
z
M 231.23377 180.041446 
L 231.663276 180.830569 
Q 231.252987 180.85464 230.876799 180.954435 
Q 230.499863 181.052857 230.173235 181.230635 
Q 229.315492 181.697489 229.177824 182.523136 
Q 229.041528 183.348035 229.614189 184.553789 
Q 229.663533 184.043058 229.936747 183.636405 
Q 230.211333 183.229005 230.66971 182.979518 
Q 231.634499 182.454401 232.513387 182.735648 
Q 233.391529 183.015523 233.939802 184.022856 
Q 234.476871 185.009602 234.218537 185.924052 
Q 233.959455 186.837128 232.99055 187.364487 
Q 231.878916 187.969529 230.828415 187.438351 
Q 229.777167 186.9058 228.897241 185.289127 
Q 228.071096 183.771266 228.300096 182.476078 
Q 228.529095 181.18089 229.742286 180.520572 
Q 230.068914 180.342794 230.436139 180.22653 
Q 230.803364 180.110266 231.23377 180.041446 
z
" clip-path="url(#pc41997e80d)" style="fill: #cc4778"/>
   </g>
   <g id="text_20">
    <path d="M 266.29544 163.924737 
Q 266.98908 163.717777 267.567553 163.947948 
Q 268.146646 164.175999 268.484298 164.792745 
Q 269.002032 165.738423 268.635401 166.614271 
Q 268.268019 167.488748 267.06879 168.145294 
Q 266.66722 168.365144 266.197461 168.519007 
Q 265.727701 168.672871 265.187011 168.762249 
L 264.730055 167.927586 
Q 265.20394 167.940691 265.690077 167.813488 
Q 266.177584 167.685535 266.64494 167.42967 
Q 267.457675 166.984719 267.708336 166.430656 
Q 267.958996 165.876592 267.623595 165.263958 
Q 267.313705 164.697922 266.743539 164.596803 
Q 266.172622 164.494314 265.46679 164.880738 
L 264.721213 165.288922 
L 264.331787 164.577608 
L 265.111628 164.150666 
Q 265.748932 163.801758 265.947894 163.361503 
Q 266.146857 162.921248 265.884238 162.441556 
Q 265.614866 161.94953 265.121312 161.877722 
Q 264.628378 161.803792 263.977368 162.160203 
Q 263.621026 162.355291 263.256743 162.656263 
Q 262.89171 162.955864 262.492335 163.384709 
L 262.070645 162.614461 
Q 262.489008 162.207285 262.881842 161.903151 
Q 263.274677 161.599018 263.655689 161.390424 
Q 264.641112 160.85093 265.459361 160.985457 
Q 266.278231 161.117864 266.695419 161.879888 
Q 266.98655 162.41166 266.882629 162.944171 
Q 266.778708 163.476682 266.29544 163.924737 
z
M 271.489278 164.617201 
L 274.508593 162.964205 
L 274.907022 163.691965 
L 270.847463 165.914468 
L 270.449033 165.186708 
Q 270.661934 164.407493 271.041961 163.084321 
Q 271.422608 161.759028 271.503963 161.390284 
Q 271.664124 160.696946 271.651509 160.283456 
Q 271.640266 159.869216 271.469188 159.556732 
Q 271.190063 159.046888 270.656771 158.922019 
Q 270.122728 158.795779 269.548469 159.11017 
Q 269.141417 159.333021 268.766421 159.721799 
Q 268.392796 160.109827 268.036412 160.679018 
L 267.557696 159.80461 
Q 267.965073 159.309037 268.360197 158.953772 
Q 268.756693 158.597757 269.133593 158.391414 
Q 270.127239 157.847419 270.990318 158.021531 
Q 271.852646 158.194273 272.307351 159.024825 
Q 272.523449 159.419542 272.569017 159.85418 
Q 272.615206 160.286696 272.487218 160.980234 
Q 272.448596 161.16348 272.199234 162.071319 
Q 271.951242 162.978407 271.489278 164.617201 
z
" clip-path="url(#pc41997e80d)" style="fill: #e66c5c; stroke: #ffffff; stroke-width: 5"/>
    <path d="M 266.29544 163.924737 
Q 266.98908 163.717777 267.567553 163.947948 
Q 268.146646 164.175999 268.484298 164.792745 
Q 269.002032 165.738423 268.635401 166.614271 
Q 268.268019 167.488748 267.06879 168.145294 
Q 266.66722 168.365144 266.197461 168.519007 
Q 265.727701 168.672871 265.187011 168.762249 
L 264.730055 167.927586 
Q 265.20394 167.940691 265.690077 167.813488 
Q 266.177584 167.685535 266.64494 167.42967 
Q 267.457675 166.984719 267.708336 166.430656 
Q 267.958996 165.876592 267.623595 165.263958 
Q 267.313705 164.697922 266.743539 164.596803 
Q 266.172622 164.494314 265.46679 164.880738 
L 264.721213 165.288922 
L 264.331787 164.577608 
L 265.111628 164.150666 
Q 265.748932 163.801758 265.947894 163.361503 
Q 266.146857 162.921248 265.884238 162.441556 
Q 265.614866 161.94953 265.121312 161.877722 
Q 264.628378 161.803792 263.977368 162.160203 
Q 263.621026 162.355291 263.256743 162.656263 
Q 262.89171 162.955864 262.492335 163.384709 
L 262.070645 162.614461 
Q 262.489008 162.207285 262.881842 161.903151 
Q 263.274677 161.599018 263.655689 161.390424 
Q 264.641112 160.85093 265.459361 160.985457 
Q 266.278231 161.117864 266.695419 161.879888 
Q 266.98655 162.41166 266.882629 162.944171 
Q 266.778708 163.476682 266.29544 163.924737 
z
M 271.489278 164.617201 
L 274.508593 162.964205 
L 274.907022 163.691965 
L 270.847463 165.914468 
L 270.449033 165.186708 
Q 270.661934 164.407493 271.041961 163.084321 
Q 271.422608 161.759028 271.503963 161.390284 
Q 271.664124 160.696946 271.651509 160.283456 
Q 271.640266 159.869216 271.469188 159.556732 
Q 271.190063 159.046888 270.656771 158.922019 
Q 270.122728 158.795779 269.548469 159.11017 
Q 269.141417 159.333021 268.766421 159.721799 
Q 268.392796 160.109827 268.036412 160.679018 
L 267.557696 159.80461 
Q 267.965073 159.309037 268.360197 158.953772 
Q 268.756693 158.597757 269.133593 158.391414 
Q 270.127239 157.847419 270.990318 158.021531 
Q 271.852646 158.194273 272.307351 159.024825 
Q 272.523449 159.419542 272.569017 159.85418 
Q 272.615206 160.286696 272.487218 160.980234 
Q 272.448596 161.16348 272.199234 162.071319 
Q 271.951242 162.978407 271.489278 164.617201 
z
" clip-path="url(#pc41997e80d)" style="fill: #e66c5c"/>
   </g>
   <g id="text_21">
    <path d="M 305.751649 131.806474 
Q 305.16386 132.115479 305.031063 132.698982 
Q 304.898922 133.280374 305.26682 133.980188 
Q 305.632536 134.675853 306.18856 134.900767 
Q 306.745239 135.123572 307.333027 134.814567 
Q 307.920815 134.505562 308.051502 133.921403 
Q 308.181462 133.335862 307.815746 132.640197 
Q 307.447848 131.940383 306.894006 131.719618 
Q 306.339437 131.497469 305.751649 131.806474 
z
M 306.045714 128.158437 
L 306.463779 128.953679 
Q 306.053186 128.971823 305.675595 129.066175 
Q 305.297278 129.159144 304.968116 129.332187 
Q 304.103722 129.786606 303.954146 130.610179 
Q 303.805952 131.433024 304.361141 132.646922 
Q 304.417855 132.136956 304.696913 131.734291 
Q 304.977353 131.330899 305.439285 131.088057 
Q 306.411556 130.576927 307.286292 130.870836 
Q 308.160301 131.163362 308.693971 132.178507 
Q 309.216734 133.172906 308.945222 134.08353 
Q 308.672982 134.99277 307.696562 135.506082 
Q 306.576307 136.095009 305.533586 135.548716 
Q 304.490138 135.00104 303.633649 133.37183 
Q 302.829509 131.842198 303.077188 130.550451 
Q 303.324867 129.258705 304.547466 128.615974 
Q 304.876627 128.442932 305.245493 128.331983 
Q 305.614359 128.221034 306.045714 128.158437 
z
M 310.692513 126.504647 
L 310.299095 131.108727 
L 312.503646 129.949777 
L 310.692513 126.504647 
z
M 310.063041 125.864673 
L 311.161168 125.287379 
L 313.372189 129.493177 
L 314.293288 129.008948 
L 314.675 129.735039 
L 313.753901 130.219268 
L 314.553679 131.740602 
L 313.685136 132.197202 
L 312.885358 130.675868 
L 309.972695 132.207079 
L 309.529909 131.364813 
L 310.063041 125.864673 
z
" clip-path="url(#pc41997e80d)" style="fill: #f89540; stroke: #ffffff; stroke-width: 5"/>
    <path d="M 305.751649 131.806474 
Q 305.16386 132.115479 305.031063 132.698982 
Q 304.898922 133.280374 305.26682 133.980188 
Q 305.632536 134.675853 306.18856 134.900767 
Q 306.745239 135.123572 307.333027 134.814567 
Q 307.920815 134.505562 308.051502 133.921403 
Q 308.181462 133.335862 307.815746 132.640197 
Q 307.447848 131.940383 306.894006 131.719618 
Q 306.339437 131.497469 305.751649 131.806474 
z
M 306.045714 128.158437 
L 306.463779 128.953679 
Q 306.053186 128.971823 305.675595 129.066175 
Q 305.297278 129.159144 304.968116 129.332187 
Q 304.103722 129.786606 303.954146 130.610179 
Q 303.805952 131.433024 304.361141 132.646922 
Q 304.417855 132.136956 304.696913 131.734291 
Q 304.977353 131.330899 305.439285 131.088057 
Q 306.411556 130.576927 307.286292 130.870836 
Q 308.160301 131.163362 308.693971 132.178507 
Q 309.216734 133.172906 308.945222 134.08353 
Q 308.672982 134.99277 307.696562 135.506082 
Q 306.576307 136.095009 305.533586 135.548716 
Q 304.490138 135.00104 303.633649 133.37183 
Q 302.829509 131.842198 303.077188 130.550451 
Q 303.324867 129.258705 304.547466 128.615974 
Q 304.876627 128.442932 305.245493 128.331983 
Q 305.614359 128.221034 306.045714 128.158437 
z
M 310.692513 126.504647 
L 310.299095 131.108727 
L 312.503646 129.949777 
L 310.692513 126.504647 
z
M 310.063041 125.864673 
L 311.161168 125.287379 
L 313.372189 129.493177 
L 314.293288 129.008948 
L 314.675 129.735039 
L 313.753901 130.219268 
L 314.553679 131.740602 
L 313.685136 132.197202 
L 312.885358 130.675868 
L 309.972695 132.207079 
L 309.529909 131.364813 
L 310.063041 125.864673 
z
" clip-path="url(#pc41997e80d)" style="fill: #f89540"/>
   </g>
   <g id="text_22">
    <path d="M 341.464943 152.496559 
L 343.044899 152.18214 
L 341.959224 146.726618 
L 340.308432 147.41359 
L 340.133077 146.532431 
L 341.774674 145.847289 
L 342.74165 145.654856 
L 344.00268 151.991537 
L 345.582636 151.677118 
L 345.744572 152.490849 
L 341.626879 153.310289 
L 341.464943 152.496559 
z
M 348.369971 151.122425 
L 351.745958 150.450587 
L 351.907894 151.264318 
L 347.368778 152.167624 
L 347.206841 151.353893 
Q 347.643544 150.674339 348.402755 149.525947 
Q 349.163193 148.375718 349.351349 148.048323 
Q 349.711993 147.434885 349.823915 147.036631 
Q 349.93737 146.638073 349.867838 146.288674 
Q 349.754391 145.718603 349.28306 145.439605 
Q 348.811424 145.159075 348.169327 145.286856 
Q 347.71419 145.37743 347.239893 145.635911 
Q 346.767128 145.894087 346.256502 146.330263 
L 346.061934 145.35256 
Q 346.599138 145.001904 347.082592 144.781429 
Q 347.567578 144.56065 347.989001 144.476784 
Q 349.100028 144.255685 349.871216 144.680524 
Q 350.642099 145.103831 350.826908 146.032496 
Q 350.914738 146.473841 350.827914 146.90215 
Q 350.742318 147.32862 350.412307 147.951893 
Q 350.320528 148.115133 349.810481 148.906464 
Q 349.301967 149.69749 348.369971 151.122425 
z
M 355.331204 147.052666 
Q 354.641601 147.1899 354.319726 147.637901 
Q 353.999383 148.085598 354.127773 148.730759 
Q 354.256468 149.377453 354.723804 149.668397 
Q 355.192673 149.959037 355.882275 149.821803 
Q 356.571878 149.684568 356.894981 149.23473 
Q 357.219311 148.783053 357.091531 148.140957 
Q 356.963141 147.495796 356.494272 147.205156 
Q 356.026936 146.914212 355.331204 147.052666 
z
M 354.282497 146.834402 
Q 353.629826 146.804973 353.19718 146.448179 
Q 352.765761 146.089547 352.643775 145.476567 
Q 352.473299 144.619928 352.984101 144.000506 
Q 353.496435 143.380778 354.558423 143.169438 
Q 355.62654 142.956877 356.334036 143.333852 
Q 357.041533 143.710827 357.212008 144.567467 
Q 357.333994 145.180447 357.071213 145.677227 
Q 356.80966 146.172171 356.222579 146.448316 
Q 356.953702 146.471692 357.437484 146.86929 
Q 357.922492 147.265051 358.058507 147.948524 
Q 358.265578 148.989058 357.741846 149.671592 
Q 357.217809 150.352595 356.034758 150.588028 
Q 354.853239 150.823156 354.106875 150.394969 
Q 353.361738 149.964945 353.154667 148.924412 
Q 353.018653 148.240939 353.316726 147.689341 
Q 353.616026 147.135906 354.282497 146.834402 
z
M 353.624451 145.376996 
Q 353.734849 145.931743 354.14309 146.173909 
Q 354.552864 146.415769 355.179636 146.291038 
Q 355.803343 146.166917 356.092366 145.785993 
Q 356.382922 145.404764 356.272525 144.850017 
Q 356.161822 144.293738 355.747451 144.052792 
Q 355.334612 143.811542 354.710905 143.935663 
Q 354.084133 144.060393 353.798175 144.440708 
Q 353.513749 144.820717 353.624451 145.376996 
z
" clip-path="url(#pc41997e80d)" style="fill: #fdc527; stroke: #ffffff; stroke-width: 5"/>
    <path d="M 341.464943 152.496559 
L 343.044899 152.18214 
L 341.959224 146.726618 
L 340.308432 147.41359 
L 340.133077 146.532431 
L 341.774674 145.847289 
L 342.74165 145.654856 
L 344.00268 151.991537 
L 345.582636 151.677118 
L 345.744572 152.490849 
L 341.626879 153.310289 
L 341.464943 152.496559 
z
M 348.369971 151.122425 
L 351.745958 150.450587 
L 351.907894 151.264318 
L 347.368778 152.167624 
L 347.206841 151.353893 
Q 347.643544 150.674339 348.402755 149.525947 
Q 349.163193 148.375718 349.351349 148.048323 
Q 349.711993 147.434885 349.823915 147.036631 
Q 349.93737 146.638073 349.867838 146.288674 
Q 349.754391 145.718603 349.28306 145.439605 
Q 348.811424 145.159075 348.169327 145.286856 
Q 347.71419 145.37743 347.239893 145.635911 
Q 346.767128 145.894087 346.256502 146.330263 
L 346.061934 145.35256 
Q 346.599138 145.001904 347.082592 144.781429 
Q 347.567578 144.56065 347.989001 144.476784 
Q 349.100028 144.255685 349.871216 144.680524 
Q 350.642099 145.103831 350.826908 146.032496 
Q 350.914738 146.473841 350.827914 146.90215 
Q 350.742318 147.32862 350.412307 147.951893 
Q 350.320528 148.115133 349.810481 148.906464 
Q 349.301967 149.69749 348.369971 151.122425 
z
M 355.331204 147.052666 
Q 354.641601 147.1899 354.319726 147.637901 
Q 353.999383 148.085598 354.127773 148.730759 
Q 354.256468 149.377453 354.723804 149.668397 
Q 355.192673 149.959037 355.882275 149.821803 
Q 356.571878 149.684568 356.894981 149.23473 
Q 357.219311 148.783053 357.091531 148.140957 
Q 356.963141 147.495796 356.494272 147.205156 
Q 356.026936 146.914212 355.331204 147.052666 
z
M 354.282497 146.834402 
Q 353.629826 146.804973 353.19718 146.448179 
Q 352.765761 146.089547 352.643775 145.476567 
Q 352.473299 144.619928 352.984101 144.000506 
Q 353.496435 143.380778 354.558423 143.169438 
Q 355.62654 142.956877 356.334036 143.333852 
Q 357.041533 143.710827 357.212008 144.567467 
Q 357.333994 145.180447 357.071213 145.677227 
Q 356.80966 146.172171 356.222579 146.448316 
Q 356.953702 146.471692 357.437484 146.86929 
Q 357.922492 147.265051 358.058507 147.948524 
Q 358.265578 148.989058 357.741846 149.671592 
Q 357.217809 150.352595 356.034758 150.588028 
Q 354.853239 150.823156 354.106875 150.394969 
Q 353.361738 149.964945 353.154667 148.924412 
Q 353.018653 148.240939 353.316726 147.689341 
Q 353.616026 147.135906 354.282497 146.834402 
z
M 353.624451 145.376996 
Q 353.734849 145.931743 354.14309 146.173909 
Q 354.552864 146.415769 355.179636 146.291038 
Q 355.803343 146.166917 356.092366 145.785993 
Q 356.382922 145.404764 356.272525 144.850017 
Q 356.161822 144.293738 355.747451 144.052792 
Q 355.334612 143.811542 354.710905 143.935663 
Q 354.084133 144.060393 353.798175 144.440708 
Q 353.513749 144.820717 353.624451 145.376996 
z
" clip-path="url(#pc41997e80d)" style="fill: #fdc527"/>
   </g>
   <g id="patch_3">
    <path d="M 50.14375 301.735725 
L 50.14375 35.623725 
" style="fill: none; stroke: #cccccc; stroke-width: 0.8; stroke-linejoin: miter; stroke-linecap: square"/>
   </g>
   <g id="patch_4">
    <path d="M 407.26375 301.735725 
L 407.26375 35.623725 
" style="fill: none; stroke: #cccccc; stroke-width: 0.8; stroke-linejoin: miter; stroke-linecap: square"/>
   </g>
   <g id="patch_5">
    <path d="M 50.14375 301.735725 
L 407.26375 301.735725 
" style="fill: none; stroke: #cccccc; stroke-width: 0.8; stroke-linejoin: miter; stroke-linecap: square"/>
   </g>
   <g id="patch_6">
    <path d="M 50.14375 35.623725 
L 407.26375 35.623725 
" style="fill: none; stroke: #cccccc; stroke-width: 0.8; stroke-linejoin: miter; stroke-linecap: square"/>
   </g>
   <g id="text_23">
    <!-- Block Size = 4M, Read-Write Type = Sequential Balanced 1:1 -->
    <g style="fill: #262626; opacity: 0.75" transform="translate(76.495156 30.882918) scale(0.1 -0.1)">
     <defs>
      <path id="DejaVuSans-42" d="M 1259 2228 
L 1259 519 
L 2272 519 
Q 2781 519 3026 730 
Q 3272 941 3272 1375 
Q 3272 1813 3026 2020 
Q 2781 2228 2272 2228 
L 1259 2228 
z
M 1259 4147 
L 1259 2741 
L 2194 2741 
Q 2656 2741 2882 2914 
Q 3109 3088 3109 3444 
Q 3109 3797 2882 3972 
Q 2656 4147 2194 4147 
L 1259 4147 
z
M 628 4666 
L 2241 4666 
Q 2963 4666 3353 4366 
Q 3744 4066 3744 3513 
Q 3744 3084 3544 2831 
Q 3344 2578 2956 2516 
Q 3422 2416 3680 2098 
Q 3938 1781 3938 1306 
Q 3938 681 3513 340 
Q 3088 0 2303 0 
L 628 0 
L 628 4666 
z
" transform="scale(0.015625)"/>
      <path id="DejaVuSans-6c" d="M 603 4863 
L 1178 4863 
L 1178 0 
L 603 0 
L 603 4863 
z
" transform="scale(0.015625)"/>
      <path id="DejaVuSans-6b" d="M 581 4863 
L 1159 4863 
L 1159 1991 
L 2875 3500 
L 3609 3500 
L 1753 1863 
L 3688 0 
L 2938 0 
L 1159 1709 
L 1159 0 
L 581 0 
L 581 4863 
z
" transform="scale(0.015625)"/>
      <path id="DejaVuSans-53" d="M 3425 4513 
L 3425 3897 
Q 3066 4069 2747 4153 
Q 2428 4238 2131 4238 
Q 1616 4238 1336 4038 
Q 1056 3838 1056 3469 
Q 1056 3159 1242 3001 
Q 1428 2844 1947 2747 
L 2328 2669 
Q 3034 2534 3370 2195 
Q 3706 1856 3706 1288 
Q 3706 609 3251 259 
Q 2797 -91 1919 -91 
Q 1588 -91 1214 -16 
Q 841 59 441 206 
L 441 856 
Q 825 641 1194 531 
Q 1563 422 1919 422 
Q 2459 422 2753 634 
Q 3047 847 3047 1241 
Q 3047 1584 2836 1778 
Q 2625 1972 2144 2069 
L 1759 2144 
Q 1053 2284 737 2584 
Q 422 2884 422 3419 
Q 422 4038 858 4394 
Q 1294 4750 2059 4750 
Q 2388 4750 2728 4690 
Q 3069 4631 3425 4513 
z
" transform="scale(0.015625)"/>
      <path id="DejaVuSans-69" d="M 603 3500 
L 1178 3500 
L 1178 0 
L 603 0 
L 603 3500 
z
M 603 4863 
L 1178 4863 
L 1178 4134 
L 603 4134 
L 603 4863 
z
" transform="scale(0.015625)"/>
      <path id="DejaVuSans-7a" d="M 353 3500 
L 3084 3500 
L 3084 2975 
L 922 459 
L 3084 459 
L 3084 0 
L 275 0 
L 275 525 
L 2438 3041 
L 353 3041 
L 353 3500 
z
" transform="scale(0.015625)"/>
      <path id="DejaVuSans-3d" d="M 678 2906 
L 4684 2906 
L 4684 2381 
L 678 2381 
L 678 2906 
z
M 678 1631 
L 4684 1631 
L 4684 1100 
L 678 1100 
L 678 1631 
z
" transform="scale(0.015625)"/>
      <path id="DejaVuSans-2c" d="M 750 794 
L 1409 794 
L 1409 256 
L 897 -744 
L 494 -744 
L 750 256 
L 750 794 
z
" transform="scale(0.015625)"/>
      <path id="DejaVuSans-52" d="M 2841 2188 
Q 3044 2119 3236 1894 
Q 3428 1669 3622 1275 
L 4263 0 
L 3584 0 
L 2988 1197 
Q 2756 1666 2539 1819 
Q 2322 1972 1947 1972 
L 1259 1972 
L 1259 0 
L 628 0 
L 628 4666 
L 2053 4666 
Q 2853 4666 3247 4331 
Q 3641 3997 3641 3322 
Q 3641 2881 3436 2590 
Q 3231 2300 2841 2188 
z
M 1259 4147 
L 1259 2491 
L 2053 2491 
Q 2509 2491 2742 2702 
Q 2975 2913 2975 3322 
Q 2975 3731 2742 3939 
Q 2509 4147 2053 4147 
L 1259 4147 
z
" transform="scale(0.015625)"/>
      <path id="DejaVuSans-64" d="M 2906 2969 
L 2906 4863 
L 3481 4863 
L 3481 0 
L 2906 0 
L 2906 525 
Q 2725 213 2448 61 
Q 2172 -91 1784 -91 
Q 1150 -91 751 415 
Q 353 922 353 1747 
Q 353 2572 751 3078 
Q 1150 3584 1784 3584 
Q 2172 3584 2448 3432 
Q 2725 3281 2906 2969 
z
M 947 1747 
Q 947 1113 1208 752 
Q 1469 391 1925 391 
Q 2381 391 2643 752 
Q 2906 1113 2906 1747 
Q 2906 2381 2643 2742 
Q 2381 3103 1925 3103 
Q 1469 3103 1208 2742 
Q 947 2381 947 1747 
z
" transform="scale(0.015625)"/>
      <path id="DejaVuSans-2d" d="M 313 2009 
L 1997 2009 
L 1997 1497 
L 313 1497 
L 313 2009 
z
" transform="scale(0.015625)"/>
      <path id="DejaVuSans-57" d="M 213 4666 
L 850 4666 
L 1831 722 
L 2809 4666 
L 3519 4666 
L 4500 722 
L 5478 4666 
L 6119 4666 
L 4947 0 
L 4153 0 
L 3169 4050 
L 2175 0 
L 1381 0 
L 213 4666 
z
" transform="scale(0.015625)"/>
      <path id="DejaVuSans-54" d="M -19 4666 
L 3928 4666 
L 3928 4134 
L 2272 4134 
L 2272 0 
L 1638 0 
L 1638 4134 
L -19 4134 
L -19 4666 
z
" transform="scale(0.015625)"/>
      <path id="DejaVuSans-70" d="M 1159 525 
L 1159 -1331 
L 581 -1331 
L 581 3500 
L 1159 3500 
L 1159 2969 
Q 1341 3281 1617 3432 
Q 1894 3584 2278 3584 
Q 2916 3584 3314 3078 
Q 3713 2572 3713 1747 
Q 3713 922 3314 415 
Q 2916 -91 2278 -91 
Q 1894 -91 1617 61 
Q 1341 213 1159 525 
z
M 3116 1747 
Q 3116 2381 2855 2742 
Q 2594 3103 2138 3103 
Q 1681 3103 1420 2742 
Q 1159 2381 1159 1747 
Q 1159 1113 1420 752 
Q 1681 391 2138 391 
Q 2594 391 2855 752 
Q 3116 1113 3116 1747 
z
" transform="scale(0.015625)"/>
      <path id="DejaVuSans-71" d="M 947 1747 
Q 947 1113 1208 752 
Q 1469 391 1925 391 
Q 2381 391 2643 752 
Q 2906 1113 2906 1747 
Q 2906 2381 2643 2742 
Q 2381 3103 1925 3103 
Q 1469 3103 1208 2742 
Q 947 2381 947 1747 
z
M 2906 525 
Q 2725 213 2448 61 
Q 2172 -91 1784 -91 
Q 1150 -91 751 415 
Q 353 922 353 1747 
Q 353 2572 751 3078 
Q 1150 3584 1784 3584 
Q 2172 3584 2448 3432 
Q 2725 3281 2906 2969 
L 2906 3500 
L 3481 3500 
L 3481 -1331 
L 2906 -1331 
L 2906 525 
z
" transform="scale(0.015625)"/>
      <path id="DejaVuSans-3a" d="M 750 794 
L 1409 794 
L 1409 0 
L 750 0 
L 750 794 
z
M 750 3309 
L 1409 3309 
L 1409 2516 
L 750 2516 
L 750 3309 
z
" transform="scale(0.015625)"/>
     </defs>
     <use xlink:href="#DejaVuSans-42"/>
     <use xlink:href="#DejaVuSans-6c" transform="translate(68.603516 0)"/>
     <use xlink:href="#DejaVuSans-6f" transform="translate(96.386719 0)"/>
     <use xlink:href="#DejaVuSans-63" transform="translate(157.568359 0)"/>
     <use xlink:href="#DejaVuSans-6b" transform="translate(212.548828 0)"/>
     <use xlink:href="#DejaVuSans-20" transform="translate(270.458984 0)"/>
     <use xlink:href="#DejaVuSans-53" transform="translate(302.246094 0)"/>
     <use xlink:href="#DejaVuSans-69" transform="translate(365.722656 0)"/>
     <use xlink:href="#DejaVuSans-7a" transform="translate(393.505859 0)"/>
     <use xlink:href="#DejaVuSans-65" transform="translate(445.996094 0)"/>
     <use xlink:href="#DejaVuSans-20" transform="translate(507.519531 0)"/>
     <use xlink:href="#DejaVuSans-3d" transform="translate(539.306641 0)"/>
     <use xlink:href="#DejaVuSans-20" transform="translate(623.095703 0)"/>
     <use xlink:href="#DejaVuSans-34" transform="translate(654.882812 0)"/>
     <use xlink:href="#DejaVuSans-4d" transform="translate(718.505859 0)"/>
     <use xlink:href="#DejaVuSans-2c" transform="translate(804.785156 0)"/>
     <use xlink:href="#DejaVuSans-20" transform="translate(836.572266 0)"/>
     <use xlink:href="#DejaVuSans-52" transform="translate(868.359375 0)"/>
     <use xlink:href="#DejaVuSans-65" transform="translate(933.341797 0)"/>
     <use xlink:href="#DejaVuSans-61" transform="translate(994.865234 0)"/>
     <use xlink:href="#DejaVuSans-64" transform="translate(1056.144531 0)"/>
     <use xlink:href="#DejaVuSans-2d" transform="translate(1119.621094 0)"/>
     <use xlink:href="#DejaVuSans-57" transform="translate(1151.705078 0)"/>
     <use xlink:href="#DejaVuSans-72" transform="translate(1246.082031 0)"/>
     <use xlink:href="#DejaVuSans-69" transform="translate(1287.195312 0)"/>
     <use xlink:href="#DejaVuSans-74" transform="translate(1314.978516 0)"/>
     <use xlink:href="#DejaVuSans-65" transform="translate(1354.1875 0)"/>
     <use xlink:href="#DejaVuSans-20" transform="translate(1415.710938 0)"/>
     <use xlink:href="#DejaVuSans-54" transform="translate(1447.498047 0)"/>
     <use xlink:href="#DejaVuSans-79" transform="translate(1492.957031 0)"/>
     <use xlink:href="#DejaVuSans-70" transform="translate(1552.136719 0)"/>
     <use xlink:href="#DejaVuSans-65" transform="translate(1615.613281 0)"/>
     <use xlink:href="#DejaVuSans-20" transform="translate(1677.136719 0)"/>
     <use xlink:href="#DejaVuSans-3d" transform="translate(1708.923828 0)"/>
     <use xlink:href="#DejaVuSans-20" transform="translate(1792.712891 0)"/>
     <use xlink:href="#DejaVuSans-53" transform="translate(1824.5 0)"/>
     <use xlink:href="#DejaVuSans-65" transform="translate(1887.976562 0)"/>
     <use xlink:href="#DejaVuSans-71" transform="translate(1949.5 0)"/>
     <use xlink:href="#DejaVuSans-75" transform="translate(2012.976562 0)"/>
     <use xlink:href="#DejaVuSans-65" transform="translate(2076.355469 0)"/>
     <use xlink:href="#DejaVuSans-6e" transform="translate(2137.878906 0)"/>
     <use xlink:href="#DejaVuSans-74" transform="translate(2201.257812 0)"/>
     <use xlink:href="#DejaVuSans-69" transform="translate(2240.466797 0)"/>
     <use xlink:href="#DejaVuSans-61" transform="translate(2268.25 0)"/>
     <use xlink:href="#DejaVuSans-6c" transform="translate(2329.529297 0)"/>
     <use xlink:href="#DejaVuSans-20" transform="translate(2357.3125 0)"/>
     <use xlink:href="#DejaVuSans-42" transform="translate(2389.099609 0)"/>
     <use xlink:href="#DejaVuSans-61" transform="translate(2457.703125 0)"/>
     <use xlink:href="#DejaVuSans-6c" transform="translate(2518.982422 0)"/>
     <use xlink:href="#DejaVuSans-61" transform="translate(2546.765625 0)"/>
     <use xlink:href="#DejaVuSans-6e" transform="translate(2608.044922 0)"/>
     <use xlink:href="#DejaVuSans-63" transform="translate(2671.423828 0)"/>
     <use xlink:href="#DejaVuSans-65" transform="translate(2726.404297 0)"/>
     <use xlink:href="#DejaVuSans-64" transform="translate(2787.927734 0)"/>
     <use xlink:href="#DejaVuSans-20" transform="translate(2851.404297 0)"/>
     <use xlink:href="#DejaVuSans-31" transform="translate(2883.191406 0)"/>
     <use xlink:href="#DejaVuSans-3a" transform="translate(2946.814453 0)"/>
     <use xlink:href="#DejaVuSans-31" transform="translate(2980.505859 0)"/>
    </g>
   </g>
   <g id="text_24">
    <!-- Mean Latency vs Number of Jobs -->
    <g style="fill: #262626" transform="translate(118.047813 16.318125) scale(0.12 -0.12)">
     <defs>
      <path id="DejaVuSans-Bold-4d" d="M 588 4666 
L 2119 4666 
L 3181 2169 
L 4250 4666 
L 5778 4666 
L 5778 0 
L 4641 0 
L 4641 3413 
L 3566 897 
L 2803 897 
L 1728 3413 
L 1728 0 
L 588 0 
L 588 4666 
z
" transform="scale(0.015625)"/>
      <path id="DejaVuSans-Bold-65" d="M 4031 1759 
L 4031 1441 
L 1416 1441 
Q 1456 1047 1700 850 
Q 1944 653 2381 653 
Q 2734 653 3104 758 
Q 3475 863 3866 1075 
L 3866 213 
Q 3469 63 3072 -14 
Q 2675 -91 2278 -91 
Q 1328 -91 801 392 
Q 275 875 275 1747 
Q 275 2603 792 3093 
Q 1309 3584 2216 3584 
Q 3041 3584 3536 3087 
Q 4031 2591 4031 1759 
z
M 2881 2131 
Q 2881 2450 2695 2645 
Q 2509 2841 2209 2841 
Q 1884 2841 1681 2658 
Q 1478 2475 1428 2131 
L 2881 2131 
z
" transform="scale(0.015625)"/>
      <path id="DejaVuSans-Bold-61" d="M 2106 1575 
Q 1756 1575 1579 1456 
Q 1403 1338 1403 1106 
Q 1403 894 1545 773 
Q 1688 653 1941 653 
Q 2256 653 2472 879 
Q 2688 1106 2688 1447 
L 2688 1575 
L 2106 1575 
z
M 3816 1997 
L 3816 0 
L 2688 0 
L 2688 519 
Q 2463 200 2181 54 
Q 1900 -91 1497 -91 
Q 953 -91 614 226 
Q 275 544 275 1050 
Q 275 1666 698 1953 
Q 1122 2241 2028 2241 
L 2688 2241 
L 2688 2328 
Q 2688 2594 2478 2717 
Q 2269 2841 1825 2841 
Q 1466 2841 1156 2769 
Q 847 2697 581 2553 
L 581 3406 
Q 941 3494 1303 3539 
Q 1666 3584 2028 3584 
Q 2975 3584 3395 3211 
Q 3816 2838 3816 1997 
z
" transform="scale(0.015625)"/>
      <path id="DejaVuSans-Bold-6e" d="M 4056 2131 
L 4056 0 
L 2931 0 
L 2931 347 
L 2931 1631 
Q 2931 2084 2911 2256 
Q 2891 2428 2841 2509 
Q 2775 2619 2662 2680 
Q 2550 2741 2406 2741 
Q 2056 2741 1856 2470 
Q 1656 2200 1656 1722 
L 1656 0 
L 538 0 
L 538 3500 
L 1656 3500 
L 1656 2988 
Q 1909 3294 2193 3439 
Q 2478 3584 2822 3584 
Q 3428 3584 3742 3212 
Q 4056 2841 4056 2131 
z
" transform="scale(0.015625)"/>
      <path id="DejaVuSans-Bold-20" transform="scale(0.015625)"/>
      <path id="DejaVuSans-Bold-4c" d="M 588 4666 
L 1791 4666 
L 1791 909 
L 3903 909 
L 3903 0 
L 588 0 
L 588 4666 
z
" transform="scale(0.015625)"/>
      <path id="DejaVuSans-Bold-74" d="M 1759 4494 
L 1759 3500 
L 2913 3500 
L 2913 2700 
L 1759 2700 
L 1759 1216 
Q 1759 972 1856 886 
Q 1953 800 2241 800 
L 2816 800 
L 2816 0 
L 1856 0 
Q 1194 0 917 276 
Q 641 553 641 1216 
L 641 2700 
L 84 2700 
L 84 3500 
L 641 3500 
L 641 4494 
L 1759 4494 
z
" transform="scale(0.015625)"/>
      <path id="DejaVuSans-Bold-63" d="M 3366 3391 
L 3366 2478 
Q 3138 2634 2908 2709 
Q 2678 2784 2431 2784 
Q 1963 2784 1702 2511 
Q 1441 2238 1441 1747 
Q 1441 1256 1702 982 
Q 1963 709 2431 709 
Q 2694 709 2930 787 
Q 3166 866 3366 1019 
L 3366 103 
Q 3103 6 2833 -42 
Q 2563 -91 2291 -91 
Q 1344 -91 809 395 
Q 275 881 275 1747 
Q 275 2613 809 3098 
Q 1344 3584 2291 3584 
Q 2566 3584 2833 3536 
Q 3100 3488 3366 3391 
z
" transform="scale(0.015625)"/>
      <path id="DejaVuSans-Bold-79" d="M 78 3500 
L 1197 3500 
L 2138 1125 
L 2938 3500 
L 4056 3500 
L 2584 -331 
Q 2363 -916 2067 -1148 
Q 1772 -1381 1288 -1381 
L 641 -1381 
L 641 -647 
L 991 -647 
Q 1275 -647 1404 -556 
Q 1534 -466 1606 -231 
L 1638 -134 
L 78 3500 
z
" transform="scale(0.015625)"/>
      <path id="DejaVuSans-Bold-76" d="M 97 3500 
L 1216 3500 
L 2088 1081 
L 2956 3500 
L 4078 3500 
L 2700 0 
L 1472 0 
L 97 3500 
z
" transform="scale(0.015625)"/>
      <path id="DejaVuSans-Bold-73" d="M 3272 3391 
L 3272 2541 
Q 2913 2691 2578 2766 
Q 2244 2841 1947 2841 
Q 1628 2841 1473 2761 
Q 1319 2681 1319 2516 
Q 1319 2381 1436 2309 
Q 1553 2238 1856 2203 
L 2053 2175 
Q 2913 2066 3209 1816 
Q 3506 1566 3506 1031 
Q 3506 472 3093 190 
Q 2681 -91 1863 -91 
Q 1516 -91 1145 -36 
Q 775 19 384 128 
L 384 978 
Q 719 816 1070 734 
Q 1422 653 1784 653 
Q 2113 653 2278 743 
Q 2444 834 2444 1013 
Q 2444 1163 2330 1236 
Q 2216 1309 1875 1350 
L 1678 1375 
Q 931 1469 631 1722 
Q 331 1975 331 2491 
Q 331 3047 712 3315 
Q 1094 3584 1881 3584 
Q 2191 3584 2531 3537 
Q 2872 3491 3272 3391 
z
" transform="scale(0.015625)"/>
      <path id="DejaVuSans-Bold-4e" d="M 588 4666 
L 1931 4666 
L 3628 1466 
L 3628 4666 
L 4769 4666 
L 4769 0 
L 3425 0 
L 1728 3200 
L 1728 0 
L 588 0 
L 588 4666 
z
" transform="scale(0.015625)"/>
      <path id="DejaVuSans-Bold-75" d="M 500 1363 
L 500 3500 
L 1625 3500 
L 1625 3150 
Q 1625 2866 1622 2436 
Q 1619 2006 1619 1863 
Q 1619 1441 1641 1255 
Q 1663 1069 1716 984 
Q 1784 875 1895 815 
Q 2006 756 2150 756 
Q 2500 756 2700 1025 
Q 2900 1294 2900 1772 
L 2900 3500 
L 4019 3500 
L 4019 0 
L 2900 0 
L 2900 506 
Q 2647 200 2364 54 
Q 2081 -91 1741 -91 
Q 1134 -91 817 281 
Q 500 653 500 1363 
z
" transform="scale(0.015625)"/>
      <path id="DejaVuSans-Bold-6d" d="M 3781 2919 
Q 3994 3244 4286 3414 
Q 4578 3584 4928 3584 
Q 5531 3584 5847 3212 
Q 6163 2841 6163 2131 
L 6163 0 
L 5038 0 
L 5038 1825 
Q 5041 1866 5042 1909 
Q 5044 1953 5044 2034 
Q 5044 2406 4934 2573 
Q 4825 2741 4581 2741 
Q 4263 2741 4089 2478 
Q 3916 2216 3909 1719 
L 3909 0 
L 2784 0 
L 2784 1825 
Q 2784 2406 2684 2573 
Q 2584 2741 2328 2741 
Q 2006 2741 1831 2477 
Q 1656 2213 1656 1722 
L 1656 0 
L 531 0 
L 531 3500 
L 1656 3500 
L 1656 2988 
Q 1863 3284 2130 3434 
Q 2397 3584 2719 3584 
Q 3081 3584 3359 3409 
Q 3638 3234 3781 2919 
z
" transform="scale(0.015625)"/>
      <path id="DejaVuSans-Bold-62" d="M 2400 722 
Q 2759 722 2948 984 
Q 3138 1247 3138 1747 
Q 3138 2247 2948 2509 
Q 2759 2772 2400 2772 
Q 2041 2772 1848 2508 
Q 1656 2244 1656 1747 
Q 1656 1250 1848 986 
Q 2041 722 2400 722 
z
M 1656 2988 
Q 1888 3294 2169 3439 
Q 2450 3584 2816 3584 
Q 3463 3584 3878 3070 
Q 4294 2556 4294 1747 
Q 4294 938 3878 423 
Q 3463 -91 2816 -91 
Q 2450 -91 2169 54 
Q 1888 200 1656 506 
L 1656 0 
L 538 0 
L 538 4863 
L 1656 4863 
L 1656 2988 
z
" transform="scale(0.015625)"/>
      <path id="DejaVuSans-Bold-72" d="M 3138 2547 
Q 2991 2616 2845 2648 
Q 2700 2681 2553 2681 
Q 2122 2681 1889 2404 
Q 1656 2128 1656 1613 
L 1656 0 
L 538 0 
L 538 3500 
L 1656 3500 
L 1656 2925 
Q 1872 3269 2151 3426 
Q 2431 3584 2822 3584 
Q 2878 3584 2943 3579 
Q 3009 3575 3134 3559 
L 3138 2547 
z
" transform="scale(0.015625)"/>
      <path id="DejaVuSans-Bold-6f" d="M 2203 2784 
Q 1831 2784 1636 2517 
Q 1441 2250 1441 1747 
Q 1441 1244 1636 976 
Q 1831 709 2203 709 
Q 2569 709 2762 976 
Q 2956 1244 2956 1747 
Q 2956 2250 2762 2517 
Q 2569 2784 2203 2784 
z
M 2203 3584 
Q 3106 3584 3614 3096 
Q 4122 2609 4122 1747 
Q 4122 884 3614 396 
Q 3106 -91 2203 -91 
Q 1297 -91 786 396 
Q 275 884 275 1747 
Q 275 2609 786 3096 
Q 1297 3584 2203 3584 
z
" transform="scale(0.015625)"/>
      <path id="DejaVuSans-Bold-66" d="M 2841 4863 
L 2841 4128 
L 2222 4128 
Q 1984 4128 1890 4042 
Q 1797 3956 1797 3744 
L 1797 3500 
L 2753 3500 
L 2753 2700 
L 1797 2700 
L 1797 0 
L 678 0 
L 678 2700 
L 122 2700 
L 122 3500 
L 678 3500 
L 678 3744 
Q 678 4316 997 4589 
Q 1316 4863 1984 4863 
L 2841 4863 
z
" transform="scale(0.015625)"/>
      <path id="DejaVuSans-Bold-4a" d="M 588 4666 
L 1791 4666 
L 1791 453 
Q 1791 -419 1317 -850 
Q 844 -1281 -116 -1281 
L -359 -1281 
L -359 -372 
L -172 -372 
Q 203 -372 395 -162 
Q 588 47 588 453 
L 588 4666 
z
" transform="scale(0.015625)"/>
     </defs>
     <use xlink:href="#DejaVuSans-Bold-4d"/>
     <use xlink:href="#DejaVuSans-Bold-65" transform="translate(99.511719 0)"/>
     <use xlink:href="#DejaVuSans-Bold-61" transform="translate(167.333984 0)"/>
     <use xlink:href="#DejaVuSans-Bold-6e" transform="translate(234.814453 0)"/>
     <use xlink:href="#DejaVuSans-Bold-20" transform="translate(306.005859 0)"/>
     <use xlink:href="#DejaVuSans-Bold-4c" transform="translate(340.820312 0)"/>
     <use xlink:href="#DejaVuSans-Bold-61" transform="translate(404.541016 0)"/>
     <use xlink:href="#DejaVuSans-Bold-74" transform="translate(472.021484 0)"/>
     <use xlink:href="#DejaVuSans-Bold-65" transform="translate(519.824219 0)"/>
     <use xlink:href="#DejaVuSans-Bold-6e" transform="translate(587.646484 0)"/>
     <use xlink:href="#DejaVuSans-Bold-63" transform="translate(658.837891 0)"/>
     <use xlink:href="#DejaVuSans-Bold-79" transform="translate(718.115234 0)"/>
     <use xlink:href="#DejaVuSans-Bold-20" transform="translate(783.300781 0)"/>
     <use xlink:href="#DejaVuSans-Bold-76" transform="translate(818.115234 0)"/>
     <use xlink:href="#DejaVuSans-Bold-73" transform="translate(883.300781 0)"/>
     <use xlink:href="#DejaVuSans-Bold-20" transform="translate(942.822266 0)"/>
     <use xlink:href="#DejaVuSans-Bold-4e" transform="translate(977.636719 0)"/>
     <use xlink:href="#DejaVuSans-Bold-75" transform="translate(1061.328125 0)"/>
     <use xlink:href="#DejaVuSans-Bold-6d" transform="translate(1132.519531 0)"/>
     <use xlink:href="#DejaVuSans-Bold-62" transform="translate(1236.71875 0)"/>
     <use xlink:href="#DejaVuSans-Bold-65" transform="translate(1308.300781 0)"/>
     <use xlink:href="#DejaVuSans-Bold-72" transform="translate(1376.123047 0)"/>
     <use xlink:href="#DejaVuSans-Bold-20" transform="translate(1425.439453 0)"/>
     <use xlink:href="#DejaVuSans-Bold-6f" transform="translate(1460.253906 0)"/>
     <use xlink:href="#DejaVuSans-Bold-66" transform="translate(1528.955078 0)"/>
     <use xlink:href="#DejaVuSans-Bold-20" transform="translate(1572.460938 0)"/>
     <use xlink:href="#DejaVuSans-Bold-4a" transform="translate(1607.275391 0)"/>
     <use xlink:href="#DejaVuSans-Bold-6f" transform="translate(1644.482422 0)"/>
     <use xlink:href="#DejaVuSans-Bold-62" transform="translate(1713.183594 0)"/>
     <use xlink:href="#DejaVuSans-Bold-73" transform="translate(1784.765625 0)"/>
    </g>
   </g>
   <g id="legend_1">
    <g id="text_25">
     <!-- IO Depth -->
     <g style="fill: #262626" transform="translate(441.770312 120.065663) scale(0.1 -0.1)">
      <defs>
       <path id="DejaVuSans-49" d="M 628 4666 
L 1259 4666 
L 1259 0 
L 628 0 
L 628 4666 
z
" transform="scale(0.015625)"/>
       <path id="DejaVuSans-4f" d="M 2522 4238 
Q 1834 4238 1429 3725 
Q 1025 3213 1025 2328 
Q 1025 1447 1429 934 
Q 1834 422 2522 422 
Q 3209 422 3611 934 
Q 4013 1447 4013 2328 
Q 4013 3213 3611 3725 
Q 3209 4238 2522 4238 
z
M 2522 4750 
Q 3503 4750 4090 4092 
Q 4678 3434 4678 2328 
Q 4678 1225 4090 567 
Q 3503 -91 2522 -91 
Q 1538 -91 948 565 
Q 359 1222 359 2328 
Q 359 3434 948 4092 
Q 1538 4750 2522 4750 
z
" transform="scale(0.015625)"/>
       <path id="DejaVuSans-44" d="M 1259 4147 
L 1259 519 
L 2022 519 
Q 2988 519 3436 956 
Q 3884 1394 3884 2338 
Q 3884 3275 3436 3711 
Q 2988 4147 2022 4147 
L 1259 4147 
z
M 628 4666 
L 1925 4666 
Q 3281 4666 3915 4102 
Q 4550 3538 4550 2338 
Q 4550 1131 3912 565 
Q 3275 0 1925 0 
L 628 0 
L 628 4666 
z
" transform="scale(0.015625)"/>
       <path id="DejaVuSans-68" d="M 3513 2113 
L 3513 0 
L 2938 0 
L 2938 2094 
Q 2938 2591 2744 2837 
Q 2550 3084 2163 3084 
Q 1697 3084 1428 2787 
Q 1159 2491 1159 1978 
L 1159 0 
L 581 0 
L 581 4863 
L 1159 4863 
L 1159 2956 
Q 1366 3272 1645 3428 
Q 1925 3584 2291 3584 
Q 2894 3584 3203 3211 
Q 3513 2838 3513 2113 
z
" transform="scale(0.015625)"/>
      </defs>
      <use xlink:href="#DejaVuSans-49"/>
      <use xlink:href="#DejaVuSans-4f" transform="translate(29.492188 0)"/>
      <use xlink:href="#DejaVuSans-20" transform="translate(108.203125 0)"/>
      <use xlink:href="#DejaVuSans-44" transform="translate(139.990234 0)"/>
      <use xlink:href="#DejaVuSans-65" transform="translate(216.992188 0)"/>
      <use xlink:href="#DejaVuSans-70" transform="translate(278.515625 0)"/>
      <use xlink:href="#DejaVuSans-74" transform="translate(341.992188 0)"/>
      <use xlink:href="#DejaVuSans-68" transform="translate(381.201172 0)"/>
     </g>
    </g>
    <g id="line2d_27">
     <path d="M 440.45625 131.243787 
L 450.45625 131.243787 
L 460.45625 131.243787 
" style="fill: none; stroke: #4c02a1; stroke-width: 1.5; stroke-linecap: round"/>
    </g>
    <g id="text_26">
     <!-- 1 -->
     <g style="fill: #262626" transform="translate(468.45625 134.743787) scale(0.1 -0.1)">
      <use xlink:href="#DejaVuSans-31"/>
     </g>
    </g>
    <g id="line2d_28">
     <path d="M 440.45625 145.921913 
L 450.45625 145.921913 
L 460.45625 145.921913 
" style="fill: none; stroke: #7e03a8; stroke-width: 1.5; stroke-linecap: round"/>
    </g>
    <g id="text_27">
     <!-- 4 -->
     <g style="fill: #262626" transform="translate(468.45625 149.421913) scale(0.1 -0.1)">
      <use xlink:href="#DejaVuSans-34"/>
     </g>
    </g>
    <g id="line2d_29">
     <path d="M 440.45625 160.600037 
L 450.45625 160.600037 
L 460.45625 160.600037 
" style="fill: none; stroke: #aa2395; stroke-width: 1.5; stroke-linecap: round"/>
    </g>
    <g id="text_28">
     <!-- 8 -->
     <g style="fill: #262626" transform="translate(468.45625 164.100037) scale(0.1 -0.1)">
      <use xlink:href="#DejaVuSans-38"/>
     </g>
    </g>
    <g id="line2d_30">
     <path d="M 440.45625 175.278163 
L 450.45625 175.278163 
L 460.45625 175.278163 
" style="fill: none; stroke: #cc4778; stroke-width: 1.5; stroke-linecap: round"/>
    </g>
    <g id="text_29">
     <!-- 16 -->
     <g style="fill: #262626" transform="translate(468.45625 178.778163) scale(0.1 -0.1)">
      <use xlink:href="#DejaVuSans-31"/>
      <use xlink:href="#DejaVuSans-36" transform="translate(63.623047 0)"/>
     </g>
    </g>
    <g id="line2d_31">
     <path d="M 440.45625 189.956288 
L 450.45625 189.956288 
L 460.45625 189.956288 
" style="fill: none; stroke: #e66c5c; stroke-width: 1.5; stroke-linecap: round"/>
    </g>
    <g id="text_30">
     <!-- 32 -->
     <g style="fill: #262626" transform="translate(468.45625 193.456288) scale(0.1 -0.1)">
      <use xlink:href="#DejaVuSans-33"/>
      <use xlink:href="#DejaVuSans-32" transform="translate(63.623047 0)"/>
     </g>
    </g>
    <g id="line2d_32">
     <path d="M 440.45625 204.634412 
L 450.45625 204.634412 
L 460.45625 204.634412 
" style="fill: none; stroke: #f89540; stroke-width: 1.5; stroke-linecap: round"/>
    </g>
    <g id="text_31">
     <!-- 64 -->
     <g style="fill: #262626" transform="translate(468.45625 208.134412) scale(0.1 -0.1)">
      <use xlink:href="#DejaVuSans-36"/>
      <use xlink:href="#DejaVuSans-34" transform="translate(63.623047 0)"/>
     </g>
    </g>
    <g id="line2d_33">
     <path d="M 440.45625 219.312537 
L 450.45625 219.312537 
L 460.45625 219.312537 
" style="fill: none; stroke: #fdc527; stroke-width: 1.5; stroke-linecap: round"/>
    </g>
    <g id="text_32">
     <!-- 128 -->
     <g style="fill: #262626" transform="translate(468.45625 222.812537) scale(0.1 -0.1)">
      <use xlink:href="#DejaVuSans-31"/>
      <use xlink:href="#DejaVuSans-32" transform="translate(63.623047 0)"/>
      <use xlink:href="#DejaVuSans-38" transform="translate(127.246094 0)"/>
     </g>
    </g>
   </g>
  </g>
 </g>
 <defs>
  <clipPath id="pc41997e80d">
   <rect x="50.14375" y="35.623725" width="357.12" height="266.112"/>
  </clipPath>
 </defs>
</svg>
