<?xml version="1.0" encoding="utf-8" standalone="no"?>
<!DOCTYPE svg PUBLIC "-//W3C//DTD SVG 1.1//EN"
  "http://www.w3.org/Graphics/SVG/1.1/DTD/svg11.dtd">
<svg xmlns:xlink="http://www.w3.org/1999/xlink" width="492.38125pt" height="339.291975pt" viewBox="0 0 492.38125 339.291975" xmlns="http://www.w3.org/2000/svg" version="1.1">
 <metadata>
  <rdf:RDF xmlns:dc="http://purl.org/dc/elements/1.1/" xmlns:cc="http://creativecommons.org/ns#" xmlns:rdf="http://www.w3.org/1999/02/22-rdf-syntax-ns#">
   <cc:Work>
    <dc:type rdf:resource="http://purl.org/dc/dcmitype/StillImage"/>
    <dc:date>2025-09-11T11:47:18.579069</dc:date>
    <dc:format>image/svg+xml</dc:format>
    <dc:creator>
     <cc:Agent>
      <dc:title>Matplotlib v3.10.6, https://matplotlib.org/</dc:title>
     </cc:Agent>
    </dc:creator>
   </cc:Work>
  </rdf:RDF>
 </metadata>
 <defs>
  <style type="text/css">*{stroke-linejoin: round; stroke-linecap: butt}</style>
 </defs>
 <g id="figure_1">
  <g id="patch_1">
   <path d="M 0 339.291975 
L 492.38125 339.291975 
L 492.38125 0 
L 0 0 
z
" style="fill: #ffffff"/>
  </g>
  <g id="axes_1">
   <g id="patch_2">
    <path d="M 43.78125 301.735725 
L 400.90125 301.735725 
L 400.90125 35.623725 
L 43.78125 35.623725 
z
" style="fill: #ffffff"/>
   </g>
   <g id="matplotlib.axis_1">
    <g id="xtick_1">
     <g id="line2d_1">
      <path d="M 60.013977 301.735725 
L 60.013977 35.623725 
" clip-path="url(#p10ef688122)" style="fill: none; stroke: #cccccc; stroke-width: 0.8; stroke-linecap: round"/>
     </g>
     <g id="text_1">
      <!-- 16 -->
      <g style="fill: #262626" transform="translate(53.651477 316.334162) scale(0.1 -0.1)">
       <defs>
        <path id="DejaVuSans-31" d="M 794 531 
L 1825 531 
L 1825 4091 
L 703 3866 
L 703 4441 
L 1819 4666 
L 2450 4666 
L 2450 531 
L 3481 531 
L 3481 0 
L 794 0 
L 794 531 
z
" transform="scale(0.015625)"/>
        <path id="DejaVuSans-36" d="M 2113 2584 
Q 1688 2584 1439 2293 
Q 1191 2003 1191 1497 
Q 1191 994 1439 701 
Q 1688 409 2113 409 
Q 2538 409 2786 701 
Q 3034 994 3034 1497 
Q 3034 2003 2786 2293 
Q 2538 2584 2113 2584 
z
M 3366 4563 
L 3366 3988 
Q 3128 4100 2886 4159 
Q 2644 4219 2406 4219 
Q 1781 4219 1451 3797 
Q 1122 3375 1075 2522 
Q 1259 2794 1537 2939 
Q 1816 3084 2150 3084 
Q 2853 3084 3261 2657 
Q 3669 2231 3669 1497 
Q 3669 778 3244 343 
Q 2819 -91 2113 -91 
Q 1303 -91 875 529 
Q 447 1150 447 2328 
Q 447 3434 972 4092 
Q 1497 4750 2381 4750 
Q 2619 4750 2861 4703 
Q 3103 4656 3366 4563 
z
" transform="scale(0.015625)"/>
       </defs>
       <use xlink:href="#DejaVuSans-31"/>
       <use xlink:href="#DejaVuSans-36" transform="translate(63.623047 0)"/>
      </g>
     </g>
    </g>
    <g id="xtick_2">
     <g id="line2d_2">
      <path d="M 384.668523 301.735725 
L 384.668523 35.623725 
" clip-path="url(#p10ef688122)" style="fill: none; stroke: #cccccc; stroke-width: 0.8; stroke-linecap: round"/>
     </g>
     <g id="text_2">
      <!-- 128 -->
      <g style="fill: #262626" transform="translate(375.124773 316.334162) scale(0.1 -0.1)">
       <defs>
        <path id="DejaVuSans-32" d="M 1228 531 
L 3431 531 
L 3431 0 
L 469 0 
L 469 531 
Q 828 903 1448 1529 
Q 2069 2156 2228 2338 
Q 2531 2678 2651 2914 
Q 2772 3150 2772 3378 
Q 2772 3750 2511 3984 
Q 2250 4219 1831 4219 
Q 1534 4219 1204 4116 
Q 875 4013 500 3803 
L 500 4441 
Q 881 4594 1212 4672 
Q 1544 4750 1819 4750 
Q 2544 4750 2975 4387 
Q 3406 4025 3406 3419 
Q 3406 3131 3298 2873 
Q 3191 2616 2906 2266 
Q 2828 2175 2409 1742 
Q 1991 1309 1228 531 
z
" transform="scale(0.015625)"/>
        <path id="DejaVuSans-38" d="M 2034 2216 
Q 1584 2216 1326 1975 
Q 1069 1734 1069 1313 
Q 1069 891 1326 650 
Q 1584 409 2034 409 
Q 2484 409 2743 651 
Q 3003 894 3003 1313 
Q 3003 1734 2745 1975 
Q 2488 2216 2034 2216 
z
M 1403 2484 
Q 997 2584 770 2862 
Q 544 3141 544 3541 
Q 544 4100 942 4425 
Q 1341 4750 2034 4750 
Q 2731 4750 3128 4425 
Q 3525 4100 3525 3541 
Q 3525 3141 3298 2862 
Q 3072 2584 2669 2484 
Q 3125 2378 3379 2068 
Q 3634 1759 3634 1313 
Q 3634 634 3220 271 
Q 2806 -91 2034 -91 
Q 1263 -91 848 271 
Q 434 634 434 1313 
Q 434 1759 690 2068 
Q 947 2378 1403 2484 
z
M 1172 3481 
Q 1172 3119 1398 2916 
Q 1625 2713 2034 2713 
Q 2441 2713 2670 2916 
Q 2900 3119 2900 3481 
Q 2900 3844 2670 4047 
Q 2441 4250 2034 4250 
Q 1625 4250 1398 4047 
Q 1172 3844 1172 3481 
z
" transform="scale(0.015625)"/>
       </defs>
       <use xlink:href="#DejaVuSans-31"/>
       <use xlink:href="#DejaVuSans-32" transform="translate(63.623047 0)"/>
       <use xlink:href="#DejaVuSans-38" transform="translate(127.246094 0)"/>
      </g>
     </g>
    </g>
    <g id="xtick_3">
     <g id="line2d_3">
      <path d="M 106.393198 301.735725 
L 106.393198 35.623725 
" clip-path="url(#p10ef688122)" style="fill: none; stroke: #cccccc; stroke-width: 0.8; stroke-linecap: round"/>
     </g>
     <g id="text_3">
      <!-- 32 -->
      <g style="fill: #262626" transform="translate(100.030698 316.334162) scale(0.1 -0.1)">
       <defs>
        <path id="DejaVuSans-33" d="M 2597 2516 
Q 3050 2419 3304 2112 
Q 3559 1806 3559 1356 
Q 3559 666 3084 287 
Q 2609 -91 1734 -91 
Q 1441 -91 1130 -33 
Q 819 25 488 141 
L 488 750 
Q 750 597 1062 519 
Q 1375 441 1716 441 
Q 2309 441 2620 675 
Q 2931 909 2931 1356 
Q 2931 1769 2642 2001 
Q 2353 2234 1838 2234 
L 1294 2234 
L 1294 2753 
L 1863 2753 
Q 2328 2753 2575 2939 
Q 2822 3125 2822 3475 
Q 2822 3834 2567 4026 
Q 2313 4219 1838 4219 
Q 1578 4219 1281 4162 
Q 984 4106 628 3988 
L 628 4550 
Q 988 4650 1302 4700 
Q 1616 4750 1894 4750 
Q 2613 4750 3031 4423 
Q 3450 4097 3450 3541 
Q 3450 3153 3228 2886 
Q 3006 2619 2597 2516 
z
" transform="scale(0.015625)"/>
       </defs>
       <use xlink:href="#DejaVuSans-33"/>
       <use xlink:href="#DejaVuSans-32" transform="translate(63.623047 0)"/>
      </g>
     </g>
    </g>
    <g id="xtick_4">
     <g id="line2d_4">
      <path d="M 199.15164 301.735725 
L 199.15164 35.623725 
" clip-path="url(#p10ef688122)" style="fill: none; stroke: #cccccc; stroke-width: 0.8; stroke-linecap: round"/>
     </g>
     <g id="text_4">
      <!-- 64 -->
      <g style="fill: #262626" transform="translate(192.78914 316.334162) scale(0.1 -0.1)">
       <defs>
        <path id="DejaVuSans-34" d="M 2419 4116 
L 825 1625 
L 2419 1625 
L 2419 4116 
z
M 2253 4666 
L 3047 4666 
L 3047 1625 
L 3713 1625 
L 3713 1100 
L 3047 1100 
L 3047 0 
L 2419 0 
L 2419 1100 
L 313 1100 
L 313 1709 
L 2253 4666 
z
" transform="scale(0.015625)"/>
       </defs>
       <use xlink:href="#DejaVuSans-36"/>
       <use xlink:href="#DejaVuSans-34" transform="translate(63.623047 0)"/>
      </g>
     </g>
    </g>
    <g id="text_5">
     <!-- Number of Jobs -->
     <g style="fill: #262626" transform="translate(183.944375 330.012287) scale(0.1 -0.1)">
      <defs>
       <path id="DejaVuSans-4e" d="M 628 4666 
L 1478 4666 
L 3547 763 
L 3547 4666 
L 4159 4666 
L 4159 0 
L 3309 0 
L 1241 3903 
L 1241 0 
L 628 0 
L 628 4666 
z
" transform="scale(0.015625)"/>
       <path id="DejaVuSans-75" d="M 544 1381 
L 544 3500 
L 1119 3500 
L 1119 1403 
Q 1119 906 1312 657 
Q 1506 409 1894 409 
Q 2359 409 2629 706 
Q 2900 1003 2900 1516 
L 2900 3500 
L 3475 3500 
L 3475 0 
L 2900 0 
L 2900 538 
Q 2691 219 2414 64 
Q 2138 -91 1772 -91 
Q 1169 -91 856 284 
Q 544 659 544 1381 
z
M 1991 3584 
L 1991 3584 
z
" transform="scale(0.015625)"/>
       <path id="DejaVuSans-6d" d="M 3328 2828 
Q 3544 3216 3844 3400 
Q 4144 3584 4550 3584 
Q 5097 3584 5394 3201 
Q 5691 2819 5691 2113 
L 5691 0 
L 5113 0 
L 5113 2094 
Q 5113 2597 4934 2840 
Q 4756 3084 4391 3084 
Q 3944 3084 3684 2787 
Q 3425 2491 3425 1978 
L 3425 0 
L 2847 0 
L 2847 2094 
Q 2847 2600 2669 2842 
Q 2491 3084 2119 3084 
Q 1678 3084 1418 2786 
Q 1159 2488 1159 1978 
L 1159 0 
L 581 0 
L 581 3500 
L 1159 3500 
L 1159 2956 
Q 1356 3278 1631 3431 
Q 1906 3584 2284 3584 
Q 2666 3584 2933 3390 
Q 3200 3197 3328 2828 
z
" transform="scale(0.015625)"/>
       <path id="DejaVuSans-62" d="M 3116 1747 
Q 3116 2381 2855 2742 
Q 2594 3103 2138 3103 
Q 1681 3103 1420 2742 
Q 1159 2381 1159 1747 
Q 1159 1113 1420 752 
Q 1681 391 2138 391 
Q 2594 391 2855 752 
Q 3116 1113 3116 1747 
z
M 1159 2969 
Q 1341 3281 1617 3432 
Q 1894 3584 2278 3584 
Q 2916 3584 3314 3078 
Q 3713 2572 3713 1747 
Q 3713 922 3314 415 
Q 2916 -91 2278 -91 
Q 1894 -91 1617 61 
Q 1341 213 1159 525 
L 1159 0 
L 581 0 
L 581 4863 
L 1159 4863 
L 1159 2969 
z
" transform="scale(0.015625)"/>
       <path id="DejaVuSans-65" d="M 3597 1894 
L 3597 1613 
L 953 1613 
Q 991 1019 1311 708 
Q 1631 397 2203 397 
Q 2534 397 2845 478 
Q 3156 559 3463 722 
L 3463 178 
Q 3153 47 2828 -22 
Q 2503 -91 2169 -91 
Q 1331 -91 842 396 
Q 353 884 353 1716 
Q 353 2575 817 3079 
Q 1281 3584 2069 3584 
Q 2775 3584 3186 3129 
Q 3597 2675 3597 1894 
z
M 3022 2063 
Q 3016 2534 2758 2815 
Q 2500 3097 2075 3097 
Q 1594 3097 1305 2825 
Q 1016 2553 972 2059 
L 3022 2063 
z
" transform="scale(0.015625)"/>
       <path id="DejaVuSans-72" d="M 2631 2963 
Q 2534 3019 2420 3045 
Q 2306 3072 2169 3072 
Q 1681 3072 1420 2755 
Q 1159 2438 1159 1844 
L 1159 0 
L 581 0 
L 581 3500 
L 1159 3500 
L 1159 2956 
Q 1341 3275 1631 3429 
Q 1922 3584 2338 3584 
Q 2397 3584 2469 3576 
Q 2541 3569 2628 3553 
L 2631 2963 
z
" transform="scale(0.015625)"/>
       <path id="DejaVuSans-20" transform="scale(0.015625)"/>
       <path id="DejaVuSans-6f" d="M 1959 3097 
Q 1497 3097 1228 2736 
Q 959 2375 959 1747 
Q 959 1119 1226 758 
Q 1494 397 1959 397 
Q 2419 397 2687 759 
Q 2956 1122 2956 1747 
Q 2956 2369 2687 2733 
Q 2419 3097 1959 3097 
z
M 1959 3584 
Q 2709 3584 3137 3096 
Q 3566 2609 3566 1747 
Q 3566 888 3137 398 
Q 2709 -91 1959 -91 
Q 1206 -91 779 398 
Q 353 888 353 1747 
Q 353 2609 779 3096 
Q 1206 3584 1959 3584 
z
" transform="scale(0.015625)"/>
       <path id="DejaVuSans-66" d="M 2375 4863 
L 2375 4384 
L 1825 4384 
Q 1516 4384 1395 4259 
Q 1275 4134 1275 3809 
L 1275 3500 
L 2222 3500 
L 2222 3053 
L 1275 3053 
L 1275 0 
L 697 0 
L 697 3053 
L 147 3053 
L 147 3500 
L 697 3500 
L 697 3744 
Q 697 4328 969 4595 
Q 1241 4863 1831 4863 
L 2375 4863 
z
" transform="scale(0.015625)"/>
       <path id="DejaVuSans-4a" d="M 628 4666 
L 1259 4666 
L 1259 325 
Q 1259 -519 939 -900 
Q 619 -1281 -91 -1281 
L -331 -1281 
L -331 -750 
L -134 -750 
Q 284 -750 456 -515 
Q 628 -281 628 325 
L 628 4666 
z
" transform="scale(0.015625)"/>
       <path id="DejaVuSans-73" d="M 2834 3397 
L 2834 2853 
Q 2591 2978 2328 3040 
Q 2066 3103 1784 3103 
Q 1356 3103 1142 2972 
Q 928 2841 928 2578 
Q 928 2378 1081 2264 
Q 1234 2150 1697 2047 
L 1894 2003 
Q 2506 1872 2764 1633 
Q 3022 1394 3022 966 
Q 3022 478 2636 193 
Q 2250 -91 1575 -91 
Q 1294 -91 989 -36 
Q 684 19 347 128 
L 347 722 
Q 666 556 975 473 
Q 1284 391 1588 391 
Q 1994 391 2212 530 
Q 2431 669 2431 922 
Q 2431 1156 2273 1281 
Q 2116 1406 1581 1522 
L 1381 1569 
Q 847 1681 609 1914 
Q 372 2147 372 2553 
Q 372 3047 722 3315 
Q 1072 3584 1716 3584 
Q 2034 3584 2315 3537 
Q 2597 3491 2834 3397 
z
" transform="scale(0.015625)"/>
      </defs>
      <use xlink:href="#DejaVuSans-4e"/>
      <use xlink:href="#DejaVuSans-75" transform="translate(74.804688 0)"/>
      <use xlink:href="#DejaVuSans-6d" transform="translate(138.183594 0)"/>
      <use xlink:href="#DejaVuSans-62" transform="translate(235.595703 0)"/>
      <use xlink:href="#DejaVuSans-65" transform="translate(299.072266 0)"/>
      <use xlink:href="#DejaVuSans-72" transform="translate(360.595703 0)"/>
      <use xlink:href="#DejaVuSans-20" transform="translate(401.708984 0)"/>
      <use xlink:href="#DejaVuSans-6f" transform="translate(433.496094 0)"/>
      <use xlink:href="#DejaVuSans-66" transform="translate(494.677734 0)"/>
      <use xlink:href="#DejaVuSans-20" transform="translate(529.882812 0)"/>
      <use xlink:href="#DejaVuSans-4a" transform="translate(561.669922 0)"/>
      <use xlink:href="#DejaVuSans-6f" transform="translate(591.162109 0)"/>
      <use xlink:href="#DejaVuSans-62" transform="translate(652.34375 0)"/>
      <use xlink:href="#DejaVuSans-73" transform="translate(715.820312 0)"/>
     </g>
    </g>
   </g>
   <g id="matplotlib.axis_2">
    <g id="ytick_1">
     <g id="line2d_5">
      <path d="M 43.78125 256.210587 
L 400.90125 256.210587 
" clip-path="url(#p10ef688122)" style="fill: none; stroke: #cccccc; stroke-width: 0.8; stroke-linecap: round"/>
     </g>
     <g id="text_6">
      <!-- 0.2 -->
      <g style="fill: #262626" transform="translate(20.878125 260.009806) scale(0.1 -0.1)">
       <defs>
        <path id="DejaVuSans-30" d="M 2034 4250 
Q 1547 4250 1301 3770 
Q 1056 3291 1056 2328 
Q 1056 1369 1301 889 
Q 1547 409 2034 409 
Q 2525 409 2770 889 
Q 3016 1369 3016 2328 
Q 3016 3291 2770 3770 
Q 2525 4250 2034 4250 
z
M 2034 4750 
Q 2819 4750 3233 4129 
Q 3647 3509 3647 2328 
Q 3647 1150 3233 529 
Q 2819 -91 2034 -91 
Q 1250 -91 836 529 
Q 422 1150 422 2328 
Q 422 3509 836 4129 
Q 1250 4750 2034 4750 
z
" transform="scale(0.015625)"/>
        <path id="DejaVuSans-2e" d="M 684 794 
L 1344 794 
L 1344 0 
L 684 0 
L 684 794 
z
" transform="scale(0.015625)"/>
       </defs>
       <use xlink:href="#DejaVuSans-30"/>
       <use xlink:href="#DejaVuSans-2e" transform="translate(63.623047 0)"/>
       <use xlink:href="#DejaVuSans-32" transform="translate(95.410156 0)"/>
      </g>
     </g>
    </g>
    <g id="ytick_2">
     <g id="line2d_6">
      <path d="M 43.78125 208.259573 
L 400.90125 208.259573 
" clip-path="url(#p10ef688122)" style="fill: none; stroke: #cccccc; stroke-width: 0.8; stroke-linecap: round"/>
     </g>
     <g id="text_7">
      <!-- 0.4 -->
      <g style="fill: #262626" transform="translate(20.878125 212.058791) scale(0.1 -0.1)">
       <use xlink:href="#DejaVuSans-30"/>
       <use xlink:href="#DejaVuSans-2e" transform="translate(63.623047 0)"/>
       <use xlink:href="#DejaVuSans-34" transform="translate(95.410156 0)"/>
      </g>
     </g>
    </g>
    <g id="ytick_3">
     <g id="line2d_7">
      <path d="M 43.78125 160.308558 
L 400.90125 160.308558 
" clip-path="url(#p10ef688122)" style="fill: none; stroke: #cccccc; stroke-width: 0.8; stroke-linecap: round"/>
     </g>
     <g id="text_8">
      <!-- 0.6 -->
      <g style="fill: #262626" transform="translate(20.878125 164.107777) scale(0.1 -0.1)">
       <use xlink:href="#DejaVuSans-30"/>
       <use xlink:href="#DejaVuSans-2e" transform="translate(63.623047 0)"/>
       <use xlink:href="#DejaVuSans-36" transform="translate(95.410156 0)"/>
      </g>
     </g>
    </g>
    <g id="ytick_4">
     <g id="line2d_8">
      <path d="M 43.78125 112.357544 
L 400.90125 112.357544 
" clip-path="url(#p10ef688122)" style="fill: none; stroke: #cccccc; stroke-width: 0.8; stroke-linecap: round"/>
     </g>
     <g id="text_9">
      <!-- 0.8 -->
      <g style="fill: #262626" transform="translate(20.878125 116.156763) scale(0.1 -0.1)">
       <use xlink:href="#DejaVuSans-30"/>
       <use xlink:href="#DejaVuSans-2e" transform="translate(63.623047 0)"/>
       <use xlink:href="#DejaVuSans-38" transform="translate(95.410156 0)"/>
      </g>
     </g>
    </g>
    <g id="ytick_5">
     <g id="line2d_9">
      <path d="M 43.78125 64.40653 
L 400.90125 64.40653 
" clip-path="url(#p10ef688122)" style="fill: none; stroke: #cccccc; stroke-width: 0.8; stroke-linecap: round"/>
     </g>
     <g id="text_10">
      <!-- 1.0 -->
      <g style="fill: #262626" transform="translate(20.878125 68.205749) scale(0.1 -0.1)">
       <use xlink:href="#DejaVuSans-31"/>
       <use xlink:href="#DejaVuSans-2e" transform="translate(63.623047 0)"/>
       <use xlink:href="#DejaVuSans-30" transform="translate(95.410156 0)"/>
      </g>
     </g>
    </g>
    <g id="text_11">
     <!-- Mean Latency (ns) -->
     <g style="fill: #262626" transform="translate(14.798438 214.92035) rotate(-90) scale(0.1 -0.1)">
      <defs>
       <path id="DejaVuSans-4d" d="M 628 4666 
L 1569 4666 
L 2759 1491 
L 3956 4666 
L 4897 4666 
L 4897 0 
L 4281 0 
L 4281 4097 
L 3078 897 
L 2444 897 
L 1241 4097 
L 1241 0 
L 628 0 
L 628 4666 
z
" transform="scale(0.015625)"/>
       <path id="DejaVuSans-61" d="M 2194 1759 
Q 1497 1759 1228 1600 
Q 959 1441 959 1056 
Q 959 750 1161 570 
Q 1363 391 1709 391 
Q 2188 391 2477 730 
Q 2766 1069 2766 1631 
L 2766 1759 
L 2194 1759 
z
M 3341 1997 
L 3341 0 
L 2766 0 
L 2766 531 
Q 2569 213 2275 61 
Q 1981 -91 1556 -91 
Q 1019 -91 701 211 
Q 384 513 384 1019 
Q 384 1609 779 1909 
Q 1175 2209 1959 2209 
L 2766 2209 
L 2766 2266 
Q 2766 2663 2505 2880 
Q 2244 3097 1772 3097 
Q 1472 3097 1187 3025 
Q 903 2953 641 2809 
L 641 3341 
Q 956 3463 1253 3523 
Q 1550 3584 1831 3584 
Q 2591 3584 2966 3190 
Q 3341 2797 3341 1997 
z
" transform="scale(0.015625)"/>
       <path id="DejaVuSans-6e" d="M 3513 2113 
L 3513 0 
L 2938 0 
L 2938 2094 
Q 2938 2591 2744 2837 
Q 2550 3084 2163 3084 
Q 1697 3084 1428 2787 
Q 1159 2491 1159 1978 
L 1159 0 
L 581 0 
L 581 3500 
L 1159 3500 
L 1159 2956 
Q 1366 3272 1645 3428 
Q 1925 3584 2291 3584 
Q 2894 3584 3203 3211 
Q 3513 2838 3513 2113 
z
" transform="scale(0.015625)"/>
       <path id="DejaVuSans-4c" d="M 628 4666 
L 1259 4666 
L 1259 531 
L 3531 531 
L 3531 0 
L 628 0 
L 628 4666 
z
" transform="scale(0.015625)"/>
       <path id="DejaVuSans-74" d="M 1172 4494 
L 1172 3500 
L 2356 3500 
L 2356 3053 
L 1172 3053 
L 1172 1153 
Q 1172 725 1289 603 
Q 1406 481 1766 481 
L 2356 481 
L 2356 0 
L 1766 0 
Q 1100 0 847 248 
Q 594 497 594 1153 
L 594 3053 
L 172 3053 
L 172 3500 
L 594 3500 
L 594 4494 
L 1172 4494 
z
" transform="scale(0.015625)"/>
       <path id="DejaVuSans-63" d="M 3122 3366 
L 3122 2828 
Q 2878 2963 2633 3030 
Q 2388 3097 2138 3097 
Q 1578 3097 1268 2742 
Q 959 2388 959 1747 
Q 959 1106 1268 751 
Q 1578 397 2138 397 
Q 2388 397 2633 464 
Q 2878 531 3122 666 
L 3122 134 
Q 2881 22 2623 -34 
Q 2366 -91 2075 -91 
Q 1284 -91 818 406 
Q 353 903 353 1747 
Q 353 2603 823 3093 
Q 1294 3584 2113 3584 
Q 2378 3584 2631 3529 
Q 2884 3475 3122 3366 
z
" transform="scale(0.015625)"/>
       <path id="DejaVuSans-79" d="M 2059 -325 
Q 1816 -950 1584 -1140 
Q 1353 -1331 966 -1331 
L 506 -1331 
L 506 -850 
L 844 -850 
Q 1081 -850 1212 -737 
Q 1344 -625 1503 -206 
L 1606 56 
L 191 3500 
L 800 3500 
L 1894 763 
L 2988 3500 
L 3597 3500 
L 2059 -325 
z
" transform="scale(0.015625)"/>
       <path id="DejaVuSans-28" d="M 1984 4856 
Q 1566 4138 1362 3434 
Q 1159 2731 1159 2009 
Q 1159 1288 1364 580 
Q 1569 -128 1984 -844 
L 1484 -844 
Q 1016 -109 783 600 
Q 550 1309 550 2009 
Q 550 2706 781 3412 
Q 1013 4119 1484 4856 
L 1984 4856 
z
" transform="scale(0.015625)"/>
       <path id="DejaVuSans-29" d="M 513 4856 
L 1013 4856 
Q 1481 4119 1714 3412 
Q 1947 2706 1947 2009 
Q 1947 1309 1714 600 
Q 1481 -109 1013 -844 
L 513 -844 
Q 928 -128 1133 580 
Q 1338 1288 1338 2009 
Q 1338 2731 1133 3434 
Q 928 4138 513 4856 
z
" transform="scale(0.015625)"/>
      </defs>
      <use xlink:href="#DejaVuSans-4d"/>
      <use xlink:href="#DejaVuSans-65" transform="translate(86.279297 0)"/>
      <use xlink:href="#DejaVuSans-61" transform="translate(147.802734 0)"/>
      <use xlink:href="#DejaVuSans-6e" transform="translate(209.082031 0)"/>
      <use xlink:href="#DejaVuSans-20" transform="translate(272.460938 0)"/>
      <use xlink:href="#DejaVuSans-4c" transform="translate(304.248047 0)"/>
      <use xlink:href="#DejaVuSans-61" transform="translate(359.960938 0)"/>
      <use xlink:href="#DejaVuSans-74" transform="translate(421.240234 0)"/>
      <use xlink:href="#DejaVuSans-65" transform="translate(460.449219 0)"/>
      <use xlink:href="#DejaVuSans-6e" transform="translate(521.972656 0)"/>
      <use xlink:href="#DejaVuSans-63" transform="translate(585.351562 0)"/>
      <use xlink:href="#DejaVuSans-79" transform="translate(640.332031 0)"/>
      <use xlink:href="#DejaVuSans-20" transform="translate(699.511719 0)"/>
      <use xlink:href="#DejaVuSans-28" transform="translate(731.298828 0)"/>
      <use xlink:href="#DejaVuSans-6e" transform="translate(770.3125 0)"/>
      <use xlink:href="#DejaVuSans-73" transform="translate(833.691406 0)"/>
      <use xlink:href="#DejaVuSans-29" transform="translate(885.791016 0)"/>
     </g>
    </g>
    <g id="text_12">
     <!-- 1e8 -->
     <g style="fill: #262626" transform="translate(43.78125 32.623725) scale(0.1 -0.1)">
      <use xlink:href="#DejaVuSans-31"/>
      <use xlink:href="#DejaVuSans-65" transform="translate(63.623047 0)"/>
      <use xlink:href="#DejaVuSans-38" transform="translate(125.146484 0)"/>
     </g>
    </g>
   </g>
   <g id="FillBetweenPolyCollection_1"/>
   <g id="FillBetweenPolyCollection_2"/>
   <g id="FillBetweenPolyCollection_3"/>
   <g id="FillBetweenPolyCollection_4"/>
   <g id="FillBetweenPolyCollection_5"/>
   <g id="FillBetweenPolyCollection_6"/>
   <g id="FillBetweenPolyCollection_7"/>
   <g id="line2d_10">
    <path d="M 60.013977 285.739848 
L 106.393198 261.154917 
L 199.15164 210.585721 
L 384.668523 98.193625 
" clip-path="url(#p10ef688122)" style="fill: none; stroke: #4c02a1; stroke-width: 1.5; stroke-linecap: round"/>
   </g>
   <g id="line2d_11">
    <path d="M 60.013977 287.777309 
L 106.393198 270.837411 
L 199.15164 231.726668 
L 384.668523 133.977881 
" clip-path="url(#p10ef688122)" style="fill: none; stroke: #7e03a8; stroke-width: 1.5; stroke-linecap: round"/>
   </g>
   <g id="line2d_12">
    <path d="M 60.013977 289.555767 
L 106.393198 266.752514 
L 199.15164 186.212495 
L 384.668523 47.719725 
" clip-path="url(#p10ef688122)" style="fill: none; stroke: #aa2395; stroke-width: 1.5; stroke-linecap: round"/>
   </g>
   <g id="line2d_13">
    <path d="M 60.013977 288.957841 
L 106.393198 267.206088 
L 199.15164 190.741425 
L 384.668523 103.988743 
" clip-path="url(#p10ef688122)" style="fill: none; stroke: #cc4778; stroke-width: 1.5; stroke-linecap: round"/>
   </g>
   <g id="line2d_14">
    <path d="M 60.013977 289.639725 
L 106.393198 264.741867 
L 199.15164 199.826527 
L 384.668523 136.122437 
" clip-path="url(#p10ef688122)" style="fill: none; stroke: #e66c5c; stroke-width: 1.5; stroke-linecap: round"/>
   </g>
   <g id="line2d_15">
    <path d="M 60.013977 287.496181 
L 106.393198 248.510886 
L 199.15164 194.526221 
L 384.668523 117.42316 
" clip-path="url(#p10ef688122)" style="fill: none; stroke: #f89540; stroke-width: 1.5; stroke-linecap: round"/>
   </g>
   <g id="line2d_16">
    <path d="M 60.013977 288.4596 
L 106.393198 255.815435 
L 199.15164 194.042069 
L 384.668523 107.312799 
" clip-path="url(#p10ef688122)" style="fill: none; stroke: #fdc527; stroke-width: 1.5; stroke-linecap: round"/>
   </g>
   <g id="line2d_17"/>
   <g id="line2d_18"/>
   <g id="line2d_19"/>
   <g id="line2d_20"/>
   <g id="line2d_21"/>
   <g id="line2d_22"/>
   <g id="line2d_23"/>
   <g id="text_13">
    <path d="M 101.0024 266.196534 
L 102.425731 265.442048 
L 99.820521 260.527347 
L 98.436217 261.659047 
L 98.015432 260.86524 
L 99.391453 259.737931 
L 100.26257 259.276164 
L 103.288565 264.984673 
L 104.711895 264.230187 
L 105.100481 264.96325 
L 101.390986 266.929598 
L 101.0024 266.196534 
z
" clip-path="url(#p10ef688122)" style="fill: #4c02a1; stroke: #ffffff; stroke-width: 5"/>
    <path d="M 101.0024 266.196534 
L 102.425731 265.442048 
L 99.820521 260.527347 
L 98.436217 261.659047 
L 98.015432 260.86524 
L 99.391453 259.737931 
L 100.26257 259.276164 
L 103.288565 264.984673 
L 104.711895 264.230187 
L 105.100481 264.96325 
L 101.390986 266.929598 
L 101.0024 266.196534 
z
" clip-path="url(#p10ef688122)" style="fill: #4c02a1"/>
   </g>
   <g id="text_14">
    <path d="M 141.114088 252.212742 
L 140.331305 256.766816 
L 142.62627 255.799165 
L 141.114088 252.212742 
z
M 140.541207 251.52165 
L 141.684371 251.039646 
L 143.530435 255.417933 
L 144.48931 255.013632 
L 144.808015 255.769502 
L 143.84914 256.173803 
L 144.516904 257.75753 
L 143.61274 258.138763 
L 142.944976 256.555035 
L 139.912858 257.8335 
L 139.543159 256.956691 
L 140.541207 251.52165 
z
" clip-path="url(#p10ef688122)" style="fill: #7e03a8; stroke: #ffffff; stroke-width: 5"/>
    <path d="M 141.114088 252.212742 
L 140.331305 256.766816 
L 142.62627 255.799165 
L 141.114088 252.212742 
z
M 140.541207 251.52165 
L 141.684371 251.039646 
L 143.530435 255.417933 
L 144.48931 255.013632 
L 144.808015 255.769502 
L 143.84914 256.173803 
L 144.516904 257.75753 
L 143.61274 258.138763 
L 142.944976 256.555035 
L 139.912858 257.8335 
L 139.543159 256.956691 
L 140.541207 251.52165 
z
" clip-path="url(#p10ef688122)" style="fill: #7e03a8"/>
   </g>
   <g id="text_15">
    <path d="M 181.701904 200.432514 
Q 181.170984 200.8935 181.113473 201.442136 
Q 181.057142 201.989748 181.48842 202.486454 
Q 181.920723 202.984339 182.470821 203.005402 
Q 183.022099 203.025441 183.553019 202.564455 
Q 184.08394 202.103469 184.141606 201.552629 
Q 184.199428 200.999584 183.770199 200.505238 
Q 183.33892 200.008532 182.787642 199.988494 
Q 182.237544 199.96743 181.701904 200.432514 
z
M 180.682893 200.762726 
Q 180.101443 201.060656 179.548836 200.965207 
Q 178.996385 200.867554 178.58662 200.395624 
Q 178.013972 199.736103 178.150608 198.944944 
Q 178.288423 198.15276 179.10604 197.442842 
Q 179.928377 196.728825 180.729702 196.705576 
Q 181.531026 196.682326 182.103673 197.341848 
Q 182.513438 197.813777 182.53143 198.37549 
Q 182.549577 198.934998 182.176549 199.465819 
Q 182.823137 199.123748 183.44038 199.229292 
Q 184.057779 199.332632 184.514667 199.858833 
Q 185.210244 200.659933 185.093659 201.512316 
Q 184.97605 202.363519 184.065226 203.154367 
Q 183.155582 203.944189 182.295118 203.942225 
Q 181.434809 203.938056 180.739232 203.136956 
Q 180.282344 202.610755 180.267835 201.98394 
Q 180.253481 201.35492 180.682893 200.762726 
z
M 179.389013 199.823082 
Q 179.759851 200.250178 180.234447 200.258165 
Q 180.710223 200.265127 181.192771 199.846142 
Q 181.672959 199.429206 181.735183 198.955111 
Q 181.798586 198.479991 181.427748 198.052895 
Q 181.055886 197.624619 180.576571 197.62073 
Q 180.098435 197.615817 179.618247 198.032753 
Q 179.135699 198.451738 179.075835 198.923784 
Q 179.017151 199.394806 179.389013 199.823082 
z
" clip-path="url(#p10ef688122)" style="fill: #aa2395; stroke: #ffffff; stroke-width: 5"/>
    <path d="M 181.701904 200.432514 
Q 181.170984 200.8935 181.113473 201.442136 
Q 181.057142 201.989748 181.48842 202.486454 
Q 181.920723 202.984339 182.470821 203.005402 
Q 183.022099 203.025441 183.553019 202.564455 
Q 184.08394 202.103469 184.141606 201.552629 
Q 184.199428 200.999584 183.770199 200.505238 
Q 183.33892 200.008532 182.787642 199.988494 
Q 182.237544 199.96743 181.701904 200.432514 
z
M 180.682893 200.762726 
Q 180.101443 201.060656 179.548836 200.965207 
Q 178.996385 200.867554 178.58662 200.395624 
Q 178.013972 199.736103 178.150608 198.944944 
Q 178.288423 198.15276 179.10604 197.442842 
Q 179.928377 196.728825 180.729702 196.705576 
Q 181.531026 196.682326 182.103673 197.341848 
Q 182.513438 197.813777 182.53143 198.37549 
Q 182.549577 198.934998 182.176549 199.465819 
Q 182.823137 199.123748 183.44038 199.229292 
Q 184.057779 199.332632 184.514667 199.858833 
Q 185.210244 200.659933 185.093659 201.512316 
Q 184.97605 202.363519 184.065226 203.154367 
Q 183.155582 203.944189 182.295118 203.942225 
Q 181.434809 203.938056 180.739232 203.136956 
Q 180.282344 202.610755 180.267835 201.98394 
Q 180.253481 201.35492 180.682893 200.762726 
z
M 179.389013 199.823082 
Q 179.759851 200.250178 180.234447 200.258165 
Q 180.710223 200.265127 181.192771 199.846142 
Q 181.672959 199.429206 181.735183 198.955111 
Q 181.798586 198.479991 181.427748 198.052895 
Q 181.055886 197.624619 180.576571 197.62073 
Q 180.098435 197.615817 179.618247 198.032753 
Q 179.135699 198.451738 179.075835 198.923784 
Q 179.017151 199.394806 179.389013 199.823082 
z
" clip-path="url(#p10ef688122)" style="fill: #aa2395"/>
   </g>
   <g id="text_16">
    <path d="M 218.519017 183.81497 
L 219.978284 183.132578 
L 217.622011 178.09379 
L 216.182865 179.154876 
L 215.802287 178.341026 
L 217.232941 177.283912 
L 218.126052 176.866269 
L 220.862902 182.718906 
L 222.322169 182.036514 
L 222.673625 182.788086 
L 218.870472 184.566542 
L 218.519017 183.81497 
z
M 224.790379 177.341093 
Q 224.188838 177.62239 224.029011 178.199075 
Q 223.869938 178.773683 224.204847 179.48987 
Q 224.537769 180.201811 225.082715 180.452375 
Q 225.628415 180.700863 226.229955 180.419566 
Q 226.831496 180.138269 226.989246 179.560831 
Q 227.146333 178.981977 226.81341 178.270035 
Q 226.478502 177.553848 225.935542 177.30753 
Q 225.391919 177.059796 224.790379 177.341093 
z
M 225.254013 173.710708 
L 225.634591 174.524557 
Q 225.223598 174.523559 224.842023 174.600225 
Q 224.459786 174.675475 224.122923 174.833001 
Q 223.238305 175.246673 223.050537 176.062386 
Q 222.864185 176.877437 223.36224 178.115873 
Q 223.442642 177.609102 223.740149 177.219869 
Q 224.039071 176.829975 224.511811 176.608909 
Q 225.50683 176.143611 226.366929 176.477938 
Q 227.226367 176.810849 227.712183 177.849745 
Q 228.18807 178.867411 227.874445 179.764402 
Q 227.560158 180.659978 226.560893 181.127261 
Q 225.414427 181.663379 224.398278 181.06912 
Q 223.381467 180.473445 222.601779 178.806115 
Q 221.869746 177.240694 222.177312 175.961884 
Q 222.484879 174.683073 223.736083 174.097976 
Q 224.072946 173.94045 224.446579 173.8468 
Q 224.820211 173.753149 225.254013 173.710708 
z
" clip-path="url(#p10ef688122)" style="fill: #cc4778; stroke: #ffffff; stroke-width: 5"/>
    <path d="M 218.519017 183.81497 
L 219.978284 183.132578 
L 217.622011 178.09379 
L 216.182865 179.154876 
L 215.802287 178.341026 
L 217.232941 177.283912 
L 218.126052 176.866269 
L 220.862902 182.718906 
L 222.322169 182.036514 
L 222.673625 182.788086 
L 218.870472 184.566542 
L 218.519017 183.81497 
z
M 224.790379 177.341093 
Q 224.188838 177.62239 224.029011 178.199075 
Q 223.869938 178.773683 224.204847 179.48987 
Q 224.537769 180.201811 225.082715 180.452375 
Q 225.628415 180.700863 226.229955 180.419566 
Q 226.831496 180.138269 226.989246 179.560831 
Q 227.146333 178.981977 226.81341 178.270035 
Q 226.478502 177.553848 225.935542 177.30753 
Q 225.391919 177.059796 224.790379 177.341093 
z
M 225.254013 173.710708 
L 225.634591 174.524557 
Q 225.223598 174.523559 224.842023 174.600225 
Q 224.459786 174.675475 224.122923 174.833001 
Q 223.238305 175.246673 223.050537 176.062386 
Q 222.864185 176.877437 223.36224 178.115873 
Q 223.442642 177.609102 223.740149 177.219869 
Q 224.039071 176.829975 224.511811 176.608909 
Q 225.50683 176.143611 226.366929 176.477938 
Q 227.226367 176.810849 227.712183 177.849745 
Q 228.18807 178.867411 227.874445 179.764402 
Q 227.560158 180.659978 226.560893 181.127261 
Q 225.414427 181.663379 224.398278 181.06912 
Q 223.381467 180.473445 222.601779 178.806115 
Q 221.869746 177.240694 222.177312 175.961884 
Q 222.484879 174.683073 223.736083 174.097976 
Q 224.072946 173.94045 224.446579 173.8468 
Q 224.820211 173.753149 225.254013 173.710708 
z
" clip-path="url(#p10ef688122)" style="fill: #cc4778"/>
   </g>
   <g id="text_17">
    <path d="M 259.956902 177.707748 
Q 260.675569 177.621217 261.206719 177.946007 
Q 261.73884 178.268812 261.967196 178.933823 
Q 262.317342 179.953505 261.807713 180.754633 
Q 261.297577 181.554284 260.004502 181.998309 
Q 259.571506 182.146994 259.082478 182.219101 
Q 258.593449 182.291208 258.045433 182.287751 
L 257.736391 181.387771 
Q 258.201216 181.480921 258.701871 181.437862 
Q 259.204004 181.394297 259.707934 181.221254 
Q 260.584269 180.920331 260.92512 180.416707 
Q 261.265971 179.913082 261.039138 179.252506 
Q 260.829558 178.642174 260.284743 178.44598 
Q 259.739422 178.248308 258.978354 178.509648 
L 258.174431 178.785705 
L 257.911061 178.018727 
L 258.751929 177.729983 
Q 259.439106 177.494016 259.709736 177.093803 
Q 259.980365 176.69359 259.802755 176.17636 
Q 259.620578 175.64583 259.146307 175.491494 
Q 258.673007 175.335173 257.971052 175.576215 
Q 257.586823 175.708154 257.176842 175.943103 
Q 256.766353 176.176575 256.300136 176.53161 
L 256.014945 175.701086 
Q 256.496207 175.370622 256.934864 175.13739 
Q 257.37352 174.904159 257.784348 174.763085 
Q 258.846887 174.398224 259.630546 174.669347 
Q 260.415175 174.938485 260.697321 175.760142 
Q 260.894215 176.333529 260.701634 176.840757 
Q 260.509054 177.347985 259.956902 177.707748 
z
M 264.958514 179.269588 
L 268.214107 178.151659 
L 268.483567 178.936371 
L 264.106323 180.43946 
L 263.836863 179.654748 
Q 264.17862 178.922829 264.777187 177.683103 
Q 265.376725 176.441391 265.519338 176.091746 
Q 265.794576 175.435534 265.852152 175.025878 
Q 265.911206 174.615715 265.795506 174.278777 
Q 265.606732 173.729035 265.102281 173.515676 
Q 264.597323 173.300839 263.978124 173.513464 
Q 263.539218 173.664179 263.103812 173.983853 
Q 262.669884 174.30302 262.222275 174.803655 
L 261.898517 173.860818 
Q 262.383918 173.441373 262.833488 173.158137 
Q 263.284536 172.874392 263.690931 172.734842 
Q 264.762336 172.366935 265.583475 172.684662 
Q 266.404106 173.000912 266.711625 173.896459 
Q 266.857773 174.322065 266.829095 174.758143 
Q 266.801387 175.192236 266.557824 175.854091 
Q 266.488734 176.028152 266.089265 176.880665 
Q 265.691273 177.732669 264.958514 179.269588 
z
" clip-path="url(#p10ef688122)" style="fill: #e66c5c; stroke: #ffffff; stroke-width: 5"/>
    <path d="M 259.956902 177.707748 
Q 260.675569 177.621217 261.206719 177.946007 
Q 261.73884 178.268812 261.967196 178.933823 
Q 262.317342 179.953505 261.807713 180.754633 
Q 261.297577 181.554284 260.004502 181.998309 
Q 259.571506 182.146994 259.082478 182.219101 
Q 258.593449 182.291208 258.045433 182.287751 
L 257.736391 181.387771 
Q 258.201216 181.480921 258.701871 181.437862 
Q 259.204004 181.394297 259.707934 181.221254 
Q 260.584269 180.920331 260.92512 180.416707 
Q 261.265971 179.913082 261.039138 179.252506 
Q 260.829558 178.642174 260.284743 178.44598 
Q 259.739422 178.248308 258.978354 178.509648 
L 258.174431 178.785705 
L 257.911061 178.018727 
L 258.751929 177.729983 
Q 259.439106 177.494016 259.709736 177.093803 
Q 259.980365 176.69359 259.802755 176.17636 
Q 259.620578 175.64583 259.146307 175.491494 
Q 258.673007 175.335173 257.971052 175.576215 
Q 257.586823 175.708154 257.176842 175.943103 
Q 256.766353 176.176575 256.300136 176.53161 
L 256.014945 175.701086 
Q 256.496207 175.370622 256.934864 175.13739 
Q 257.37352 174.904159 257.784348 174.763085 
Q 258.846887 174.398224 259.630546 174.669347 
Q 260.415175 174.938485 260.697321 175.760142 
Q 260.894215 176.333529 260.701634 176.840757 
Q 260.509054 177.347985 259.956902 177.707748 
z
M 264.958514 179.269588 
L 268.214107 178.151659 
L 268.483567 178.936371 
L 264.106323 180.43946 
L 263.836863 179.654748 
Q 264.17862 178.922829 264.777187 177.683103 
Q 265.376725 176.441391 265.519338 176.091746 
Q 265.794576 175.435534 265.852152 175.025878 
Q 265.911206 174.615715 265.795506 174.278777 
Q 265.606732 173.729035 265.102281 173.515676 
Q 264.597323 173.300839 263.978124 173.513464 
Q 263.539218 173.664179 263.103812 173.983853 
Q 262.669884 174.30302 262.222275 174.803655 
L 261.898517 173.860818 
Q 262.383918 173.441373 262.833488 173.158137 
Q 263.284536 172.874392 263.690931 172.734842 
Q 264.762336 172.366935 265.583475 172.684662 
Q 266.404106 173.000912 266.711625 173.896459 
Q 266.857773 174.322065 266.829095 174.758143 
Q 266.801387 175.192236 266.557824 175.854091 
Q 266.488734 176.028152 266.089265 176.880665 
Q 265.691273 177.732669 264.958514 179.269588 
z
" clip-path="url(#p10ef688122)" style="fill: #e66c5c"/>
   </g>
   <g id="text_18">
    <path d="M 299.376186 151.487569 
Q 298.762976 151.742427 298.57821 152.311612 
Q 298.394286 152.878755 298.697717 153.608835 
Q 298.999348 154.334587 299.532876 154.608625 
Q 300.067247 154.88062 300.680457 154.625762 
Q 301.293667 154.370905 301.476391 153.800876 
Q 301.658516 153.229405 301.356884 152.503653 
Q 301.053454 151.773572 300.521725 151.503863 
Q 299.989396 151.232712 299.376186 151.487569 
z
M 299.997337 147.880794 
L 300.342145 148.710432 
Q 299.931584 148.691553 299.547035 148.751544 
Q 299.161886 148.810092 298.818489 148.952812 
Q 297.916709 149.327603 297.693628 150.134374 
Q 297.47199 150.940545 297.91569 152.199478 
Q 298.018065 151.696685 298.332225 151.320765 
Q 298.647828 150.944246 299.129739 150.743958 
Q 300.144061 150.322394 300.988799 150.693826 
Q 301.832938 151.063816 302.273092 152.122866 
Q 302.704251 153.160273 302.351895 154.042769 
Q 301.99894 154.923823 300.98029 155.347186 
Q 299.811583 155.832914 298.822252 155.195006 
Q 297.832322 154.555654 297.125917 152.85598 
Q 296.462688 151.260191 296.825603 149.995973 
Q 297.188518 148.731756 298.463995 148.201652 
Q 298.807393 148.058932 299.184746 147.981627 
Q 299.5621 147.904322 299.997337 147.880794 
z
M 304.774105 146.65187 
L 303.967971 151.201868 
L 306.26787 150.246002 
L 304.774105 146.65187 
z
M 304.204777 145.957848 
L 305.350398 145.481714 
L 307.173978 149.869413 
L 308.134914 149.470036 
L 308.449738 150.227531 
L 307.488802 150.626908 
L 308.148433 152.21404 
L 307.242325 152.590629 
L 306.582694 151.003497 
L 303.544058 152.266391 
L 303.178862 151.387697 
L 304.204777 145.957848 
z
" clip-path="url(#p10ef688122)" style="fill: #f89540; stroke: #ffffff; stroke-width: 5"/>
    <path d="M 299.376186 151.487569 
Q 298.762976 151.742427 298.57821 152.311612 
Q 298.394286 152.878755 298.697717 153.608835 
Q 298.999348 154.334587 299.532876 154.608625 
Q 300.067247 154.88062 300.680457 154.625762 
Q 301.293667 154.370905 301.476391 153.800876 
Q 301.658516 153.229405 301.356884 152.503653 
Q 301.053454 151.773572 300.521725 151.503863 
Q 299.989396 151.232712 299.376186 151.487569 
z
M 299.997337 147.880794 
L 300.342145 148.710432 
Q 299.931584 148.691553 299.547035 148.751544 
Q 299.161886 148.810092 298.818489 148.952812 
Q 297.916709 149.327603 297.693628 150.134374 
Q 297.47199 150.940545 297.91569 152.199478 
Q 298.018065 151.696685 298.332225 151.320765 
Q 298.647828 150.944246 299.129739 150.743958 
Q 300.144061 150.322394 300.988799 150.693826 
Q 301.832938 151.063816 302.273092 152.122866 
Q 302.704251 153.160273 302.351895 154.042769 
Q 301.99894 154.923823 300.98029 155.347186 
Q 299.811583 155.832914 298.822252 155.195006 
Q 297.832322 154.555654 297.125917 152.85598 
Q 296.462688 151.260191 296.825603 149.995973 
Q 297.188518 148.731756 298.463995 148.201652 
Q 298.807393 148.058932 299.184746 147.981627 
Q 299.5621 147.904322 299.997337 147.880794 
z
M 304.774105 146.65187 
L 303.967971 151.201868 
L 306.26787 150.246002 
L 304.774105 146.65187 
z
M 304.204777 145.957848 
L 305.350398 145.481714 
L 307.173978 149.869413 
L 308.134914 149.470036 
L 308.449738 150.227531 
L 307.488802 150.626908 
L 308.148433 152.21404 
L 307.242325 152.590629 
L 306.582694 151.003497 
L 303.544058 152.266391 
L 303.178862 151.387697 
L 304.204777 145.957848 
z
" clip-path="url(#p10ef688122)" style="fill: #f89540"/>
   </g>
   <g id="text_19">
    <path d="M 336.164738 132.1185 
L 337.624075 131.436259 
L 335.268324 126.397227 
L 333.829069 127.458164 
L 333.448575 126.644275 
L 334.879338 125.587309 
L 335.772492 125.169758 
L 338.508737 131.022679 
L 339.968075 130.340438 
L 340.319452 131.092046 
L 336.516115 132.870109 
L 336.164738 132.1185 
z
M 342.542616 129.136837 
L 345.660871 127.679051 
L 346.012249 128.43066 
L 341.819661 130.390697 
L 341.468284 129.639089 
Q 341.73027 128.874978 342.193613 127.57863 
Q 342.657709 126.280204 342.762333 125.917376 
Q 342.966229 125.235617 342.979917 124.822161 
Q 342.995019 124.408044 342.844145 124.08532 
Q 342.597983 123.558769 342.073704 123.400263 
Q 341.548763 123.240341 340.955686 123.517605 
Q 340.535295 123.714138 340.136351 124.0783 
Q 339.738823 124.441801 339.346989 124.987195 
L 338.924807 124.084133 
Q 339.362852 123.615449 339.779754 123.286012 
Q 340.198072 122.955912 340.587323 122.773937 
Q 341.61353 122.294185 342.4638 122.522791 
Q 343.313408 122.749983 343.714415 123.60775 
Q 343.904993 124.015402 343.922849 124.452057 
Q 343.941459 124.886635 343.769658 125.570638 
Q 343.719469 125.751059 343.412921 126.641217 
Q 343.107787 127.530712 342.542616 129.136837 
z
M 348.332034 123.523965 
Q 347.695078 123.821742 347.489366 124.333593 
Q 347.28507 124.844783 347.563657 125.440691 
Q 347.842906 126.038014 348.366156 126.209076 
Q 348.89082 126.379475 349.527777 126.081698 
Q 350.164733 125.78392 350.371198 125.269992 
Q 350.578418 124.753986 350.301154 124.160909 
Q 350.022566 123.565001 349.497902 123.394602 
Q 348.974653 123.22354 348.332034 123.523965 
z
M 347.261537 123.562172 
Q 346.620688 123.689288 346.115419 123.446002 
Q 345.610903 123.20064 345.346212 122.634457 
Q 344.976306 121.843215 345.324597 121.119824 
Q 345.674304 120.39577 346.655216 119.937193 
Q 347.641791 119.475969 348.418789 119.673287 
Q 349.195788 119.870605 349.565694 120.661846 
Q 349.830385 121.228029 349.693698 121.773154 
Q 349.557764 122.316202 349.053508 122.724425 
Q 349.7691 122.572715 350.333762 122.843429 
Q 350.899178 123.112065 351.194308 123.743359 
Q 351.643621 124.704455 351.297829 125.492222 
Q 350.951374 126.278573 349.85864 126.789427 
Q 348.767322 127.299619 347.940361 127.06184 
Q 347.114154 126.821984 346.664841 125.860888 
Q 346.369711 125.229594 346.527594 124.622815 
Q 346.686231 124.013958 347.261537 123.562172 
z
M 346.274824 122.303819 
Q 346.514369 122.816215 346.968593 122.954003 
Q 347.424233 123.091128 348.003156 122.820482 
Q 348.579247 122.551159 348.769057 122.112285 
Q 348.960281 121.672749 348.720736 121.160353 
Q 348.480529 120.646542 348.020642 120.511401 
Q 347.562172 120.375599 346.98608 120.644922 
Q 346.407158 120.915569 346.220179 121.353119 
Q 346.034616 121.790008 346.274824 122.303819 
z
" clip-path="url(#p10ef688122)" style="fill: #fdc527; stroke: #ffffff; stroke-width: 5"/>
    <path d="M 336.164738 132.1185 
L 337.624075 131.436259 
L 335.268324 126.397227 
L 333.829069 127.458164 
L 333.448575 126.644275 
L 334.879338 125.587309 
L 335.772492 125.169758 
L 338.508737 131.022679 
L 339.968075 130.340438 
L 340.319452 131.092046 
L 336.516115 132.870109 
L 336.164738 132.1185 
z
M 342.542616 129.136837 
L 345.660871 127.679051 
L 346.012249 128.43066 
L 341.819661 130.390697 
L 341.468284 129.639089 
Q 341.73027 128.874978 342.193613 127.57863 
Q 342.657709 126.280204 342.762333 125.917376 
Q 342.966229 125.235617 342.979917 124.822161 
Q 342.995019 124.408044 342.844145 124.08532 
Q 342.597983 123.558769 342.073704 123.400263 
Q 341.548763 123.240341 340.955686 123.517605 
Q 340.535295 123.714138 340.136351 124.0783 
Q 339.738823 124.441801 339.346989 124.987195 
L 338.924807 124.084133 
Q 339.362852 123.615449 339.779754 123.286012 
Q 340.198072 122.955912 340.587323 122.773937 
Q 341.61353 122.294185 342.4638 122.522791 
Q 343.313408 122.749983 343.714415 123.60775 
Q 343.904993 124.015402 343.922849 124.452057 
Q 343.941459 124.886635 343.769658 125.570638 
Q 343.719469 125.751059 343.412921 126.641217 
Q 343.107787 127.530712 342.542616 129.136837 
z
M 348.332034 123.523965 
Q 347.695078 123.821742 347.489366 124.333593 
Q 347.28507 124.844783 347.563657 125.440691 
Q 347.842906 126.038014 348.366156 126.209076 
Q 348.89082 126.379475 349.527777 126.081698 
Q 350.164733 125.78392 350.371198 125.269992 
Q 350.578418 124.753986 350.301154 124.160909 
Q 350.022566 123.565001 349.497902 123.394602 
Q 348.974653 123.22354 348.332034 123.523965 
z
M 347.261537 123.562172 
Q 346.620688 123.689288 346.115419 123.446002 
Q 345.610903 123.20064 345.346212 122.634457 
Q 344.976306 121.843215 345.324597 121.119824 
Q 345.674304 120.39577 346.655216 119.937193 
Q 347.641791 119.475969 348.418789 119.673287 
Q 349.195788 119.870605 349.565694 120.661846 
Q 349.830385 121.228029 349.693698 121.773154 
Q 349.557764 122.316202 349.053508 122.724425 
Q 349.7691 122.572715 350.333762 122.843429 
Q 350.899178 123.112065 351.194308 123.743359 
Q 351.643621 124.704455 351.297829 125.492222 
Q 350.951374 126.278573 349.85864 126.789427 
Q 348.767322 127.299619 347.940361 127.06184 
Q 347.114154 126.821984 346.664841 125.860888 
Q 346.369711 125.229594 346.527594 124.622815 
Q 346.686231 124.013958 347.261537 123.562172 
z
M 346.274824 122.303819 
Q 346.514369 122.816215 346.968593 122.954003 
Q 347.424233 123.091128 348.003156 122.820482 
Q 348.579247 122.551159 348.769057 122.112285 
Q 348.960281 121.672749 348.720736 121.160353 
Q 348.480529 120.646542 348.020642 120.511401 
Q 347.562172 120.375599 346.98608 120.644922 
Q 346.407158 120.915569 346.220179 121.353119 
Q 346.034616 121.790008 346.274824 122.303819 
z
" clip-path="url(#p10ef688122)" style="fill: #fdc527"/>
   </g>
   <g id="patch_3">
    <path d="M 43.78125 301.735725 
L 43.78125 35.623725 
" style="fill: none; stroke: #cccccc; stroke-width: 0.8; stroke-linejoin: miter; stroke-linecap: square"/>
   </g>
   <g id="patch_4">
    <path d="M 400.90125 301.735725 
L 400.90125 35.623725 
" style="fill: none; stroke: #cccccc; stroke-width: 0.8; stroke-linejoin: miter; stroke-linecap: square"/>
   </g>
   <g id="patch_5">
    <path d="M 43.78125 301.735725 
L 400.90125 301.735725 
" style="fill: none; stroke: #cccccc; stroke-width: 0.8; stroke-linejoin: miter; stroke-linecap: square"/>
   </g>
   <g id="patch_6">
    <path d="M 43.78125 35.623725 
L 400.90125 35.623725 
" style="fill: none; stroke: #cccccc; stroke-width: 0.8; stroke-linejoin: miter; stroke-linecap: square"/>
   </g>
   <g id="text_20">
    <!-- Block Size = 2M, Read-Write Type = Sequential Balanced 1:1 -->
    <g style="fill: #262626; opacity: 0.75" transform="translate(70.132656 30.882918) scale(0.1 -0.1)">
     <defs>
      <path id="DejaVuSans-42" d="M 1259 2228 
L 1259 519 
L 2272 519 
Q 2781 519 3026 730 
Q 3272 941 3272 1375 
Q 3272 1813 3026 2020 
Q 2781 2228 2272 2228 
L 1259 2228 
z
M 1259 4147 
L 1259 2741 
L 2194 2741 
Q 2656 2741 2882 2914 
Q 3109 3088 3109 3444 
Q 3109 3797 2882 3972 
Q 2656 4147 2194 4147 
L 1259 4147 
z
M 628 4666 
L 2241 4666 
Q 2963 4666 3353 4366 
Q 3744 4066 3744 3513 
Q 3744 3084 3544 2831 
Q 3344 2578 2956 2516 
Q 3422 2416 3680 2098 
Q 3938 1781 3938 1306 
Q 3938 681 3513 340 
Q 3088 0 2303 0 
L 628 0 
L 628 4666 
z
" transform="scale(0.015625)"/>
      <path id="DejaVuSans-6c" d="M 603 4863 
L 1178 4863 
L 1178 0 
L 603 0 
L 603 4863 
z
" transform="scale(0.015625)"/>
      <path id="DejaVuSans-6b" d="M 581 4863 
L 1159 4863 
L 1159 1991 
L 2875 3500 
L 3609 3500 
L 1753 1863 
L 3688 0 
L 2938 0 
L 1159 1709 
L 1159 0 
L 581 0 
L 581 4863 
z
" transform="scale(0.015625)"/>
      <path id="DejaVuSans-53" d="M 3425 4513 
L 3425 3897 
Q 3066 4069 2747 4153 
Q 2428 4238 2131 4238 
Q 1616 4238 1336 4038 
Q 1056 3838 1056 3469 
Q 1056 3159 1242 3001 
Q 1428 2844 1947 2747 
L 2328 2669 
Q 3034 2534 3370 2195 
Q 3706 1856 3706 1288 
Q 3706 609 3251 259 
Q 2797 -91 1919 -91 
Q 1588 -91 1214 -16 
Q 841 59 441 206 
L 441 856 
Q 825 641 1194 531 
Q 1563 422 1919 422 
Q 2459 422 2753 634 
Q 3047 847 3047 1241 
Q 3047 1584 2836 1778 
Q 2625 1972 2144 2069 
L 1759 2144 
Q 1053 2284 737 2584 
Q 422 2884 422 3419 
Q 422 4038 858 4394 
Q 1294 4750 2059 4750 
Q 2388 4750 2728 4690 
Q 3069 4631 3425 4513 
z
" transform="scale(0.015625)"/>
      <path id="DejaVuSans-69" d="M 603 3500 
L 1178 3500 
L 1178 0 
L 603 0 
L 603 3500 
z
M 603 4863 
L 1178 4863 
L 1178 4134 
L 603 4134 
L 603 4863 
z
" transform="scale(0.015625)"/>
      <path id="DejaVuSans-7a" d="M 353 3500 
L 3084 3500 
L 3084 2975 
L 922 459 
L 3084 459 
L 3084 0 
L 275 0 
L 275 525 
L 2438 3041 
L 353 3041 
L 353 3500 
z
" transform="scale(0.015625)"/>
      <path id="DejaVuSans-3d" d="M 678 2906 
L 4684 2906 
L 4684 2381 
L 678 2381 
L 678 2906 
z
M 678 1631 
L 4684 1631 
L 4684 1100 
L 678 1100 
L 678 1631 
z
" transform="scale(0.015625)"/>
      <path id="DejaVuSans-2c" d="M 750 794 
L 1409 794 
L 1409 256 
L 897 -744 
L 494 -744 
L 750 256 
L 750 794 
z
" transform="scale(0.015625)"/>
      <path id="DejaVuSans-52" d="M 2841 2188 
Q 3044 2119 3236 1894 
Q 3428 1669 3622 1275 
L 4263 0 
L 3584 0 
L 2988 1197 
Q 2756 1666 2539 1819 
Q 2322 1972 1947 1972 
L 1259 1972 
L 1259 0 
L 628 0 
L 628 4666 
L 2053 4666 
Q 2853 4666 3247 4331 
Q 3641 3997 3641 3322 
Q 3641 2881 3436 2590 
Q 3231 2300 2841 2188 
z
M 1259 4147 
L 1259 2491 
L 2053 2491 
Q 2509 2491 2742 2702 
Q 2975 2913 2975 3322 
Q 2975 3731 2742 3939 
Q 2509 4147 2053 4147 
L 1259 4147 
z
" transform="scale(0.015625)"/>
      <path id="DejaVuSans-64" d="M 2906 2969 
L 2906 4863 
L 3481 4863 
L 3481 0 
L 2906 0 
L 2906 525 
Q 2725 213 2448 61 
Q 2172 -91 1784 -91 
Q 1150 -91 751 415 
Q 353 922 353 1747 
Q 353 2572 751 3078 
Q 1150 3584 1784 3584 
Q 2172 3584 2448 3432 
Q 2725 3281 2906 2969 
z
M 947 1747 
Q 947 1113 1208 752 
Q 1469 391 1925 391 
Q 2381 391 2643 752 
Q 2906 1113 2906 1747 
Q 2906 2381 2643 2742 
Q 2381 3103 1925 3103 
Q 1469 3103 1208 2742 
Q 947 2381 947 1747 
z
" transform="scale(0.015625)"/>
      <path id="DejaVuSans-2d" d="M 313 2009 
L 1997 2009 
L 1997 1497 
L 313 1497 
L 313 2009 
z
" transform="scale(0.015625)"/>
      <path id="DejaVuSans-57" d="M 213 4666 
L 850 4666 
L 1831 722 
L 2809 4666 
L 3519 4666 
L 4500 722 
L 5478 4666 
L 6119 4666 
L 4947 0 
L 4153 0 
L 3169 4050 
L 2175 0 
L 1381 0 
L 213 4666 
z
" transform="scale(0.015625)"/>
      <path id="DejaVuSans-54" d="M -19 4666 
L 3928 4666 
L 3928 4134 
L 2272 4134 
L 2272 0 
L 1638 0 
L 1638 4134 
L -19 4134 
L -19 4666 
z
" transform="scale(0.015625)"/>
      <path id="DejaVuSans-70" d="M 1159 525 
L 1159 -1331 
L 581 -1331 
L 581 3500 
L 1159 3500 
L 1159 2969 
Q 1341 3281 1617 3432 
Q 1894 3584 2278 3584 
Q 2916 3584 3314 3078 
Q 3713 2572 3713 1747 
Q 3713 922 3314 415 
Q 2916 -91 2278 -91 
Q 1894 -91 1617 61 
Q 1341 213 1159 525 
z
M 3116 1747 
Q 3116 2381 2855 2742 
Q 2594 3103 2138 3103 
Q 1681 3103 1420 2742 
Q 1159 2381 1159 1747 
Q 1159 1113 1420 752 
Q 1681 391 2138 391 
Q 2594 391 2855 752 
Q 3116 1113 3116 1747 
z
" transform="scale(0.015625)"/>
      <path id="DejaVuSans-71" d="M 947 1747 
Q 947 1113 1208 752 
Q 1469 391 1925 391 
Q 2381 391 2643 752 
Q 2906 1113 2906 1747 
Q 2906 2381 2643 2742 
Q 2381 3103 1925 3103 
Q 1469 3103 1208 2742 
Q 947 2381 947 1747 
z
M 2906 525 
Q 2725 213 2448 61 
Q 2172 -91 1784 -91 
Q 1150 -91 751 415 
Q 353 922 353 1747 
Q 353 2572 751 3078 
Q 1150 3584 1784 3584 
Q 2172 3584 2448 3432 
Q 2725 3281 2906 2969 
L 2906 3500 
L 3481 3500 
L 3481 -1331 
L 2906 -1331 
L 2906 525 
z
" transform="scale(0.015625)"/>
      <path id="DejaVuSans-3a" d="M 750 794 
L 1409 794 
L 1409 0 
L 750 0 
L 750 794 
z
M 750 3309 
L 1409 3309 
L 1409 2516 
L 750 2516 
L 750 3309 
z
" transform="scale(0.015625)"/>
     </defs>
     <use xlink:href="#DejaVuSans-42"/>
     <use xlink:href="#DejaVuSans-6c" transform="translate(68.603516 0)"/>
     <use xlink:href="#DejaVuSans-6f" transform="translate(96.386719 0)"/>
     <use xlink:href="#DejaVuSans-63" transform="translate(157.568359 0)"/>
     <use xlink:href="#DejaVuSans-6b" transform="translate(212.548828 0)"/>
     <use xlink:href="#DejaVuSans-20" transform="translate(270.458984 0)"/>
     <use xlink:href="#DejaVuSans-53" transform="translate(302.246094 0)"/>
     <use xlink:href="#DejaVuSans-69" transform="translate(365.722656 0)"/>
     <use xlink:href="#DejaVuSans-7a" transform="translate(393.505859 0)"/>
     <use xlink:href="#DejaVuSans-65" transform="translate(445.996094 0)"/>
     <use xlink:href="#DejaVuSans-20" transform="translate(507.519531 0)"/>
     <use xlink:href="#DejaVuSans-3d" transform="translate(539.306641 0)"/>
     <use xlink:href="#DejaVuSans-20" transform="translate(623.095703 0)"/>
     <use xlink:href="#DejaVuSans-32" transform="translate(654.882812 0)"/>
     <use xlink:href="#DejaVuSans-4d" transform="translate(718.505859 0)"/>
     <use xlink:href="#DejaVuSans-2c" transform="translate(804.785156 0)"/>
     <use xlink:href="#DejaVuSans-20" transform="translate(836.572266 0)"/>
     <use xlink:href="#DejaVuSans-52" transform="translate(868.359375 0)"/>
     <use xlink:href="#DejaVuSans-65" transform="translate(933.341797 0)"/>
     <use xlink:href="#DejaVuSans-61" transform="translate(994.865234 0)"/>
     <use xlink:href="#DejaVuSans-64" transform="translate(1056.144531 0)"/>
     <use xlink:href="#DejaVuSans-2d" transform="translate(1119.621094 0)"/>
     <use xlink:href="#DejaVuSans-57" transform="translate(1151.705078 0)"/>
     <use xlink:href="#DejaVuSans-72" transform="translate(1246.082031 0)"/>
     <use xlink:href="#DejaVuSans-69" transform="translate(1287.195312 0)"/>
     <use xlink:href="#DejaVuSans-74" transform="translate(1314.978516 0)"/>
     <use xlink:href="#DejaVuSans-65" transform="translate(1354.1875 0)"/>
     <use xlink:href="#DejaVuSans-20" transform="translate(1415.710938 0)"/>
     <use xlink:href="#DejaVuSans-54" transform="translate(1447.498047 0)"/>
     <use xlink:href="#DejaVuSans-79" transform="translate(1492.957031 0)"/>
     <use xlink:href="#DejaVuSans-70" transform="translate(1552.136719 0)"/>
     <use xlink:href="#DejaVuSans-65" transform="translate(1615.613281 0)"/>
     <use xlink:href="#DejaVuSans-20" transform="translate(1677.136719 0)"/>
     <use xlink:href="#DejaVuSans-3d" transform="translate(1708.923828 0)"/>
     <use xlink:href="#DejaVuSans-20" transform="translate(1792.712891 0)"/>
     <use xlink:href="#DejaVuSans-53" transform="translate(1824.5 0)"/>
     <use xlink:href="#DejaVuSans-65" transform="translate(1887.976562 0)"/>
     <use xlink:href="#DejaVuSans-71" transform="translate(1949.5 0)"/>
     <use xlink:href="#DejaVuSans-75" transform="translate(2012.976562 0)"/>
     <use xlink:href="#DejaVuSans-65" transform="translate(2076.355469 0)"/>
     <use xlink:href="#DejaVuSans-6e" transform="translate(2137.878906 0)"/>
     <use xlink:href="#DejaVuSans-74" transform="translate(2201.257812 0)"/>
     <use xlink:href="#DejaVuSans-69" transform="translate(2240.466797 0)"/>
     <use xlink:href="#DejaVuSans-61" transform="translate(2268.25 0)"/>
     <use xlink:href="#DejaVuSans-6c" transform="translate(2329.529297 0)"/>
     <use xlink:href="#DejaVuSans-20" transform="translate(2357.3125 0)"/>
     <use xlink:href="#DejaVuSans-42" transform="translate(2389.099609 0)"/>
     <use xlink:href="#DejaVuSans-61" transform="translate(2457.703125 0)"/>
     <use xlink:href="#DejaVuSans-6c" transform="translate(2518.982422 0)"/>
     <use xlink:href="#DejaVuSans-61" transform="translate(2546.765625 0)"/>
     <use xlink:href="#DejaVuSans-6e" transform="translate(2608.044922 0)"/>
     <use xlink:href="#DejaVuSans-63" transform="translate(2671.423828 0)"/>
     <use xlink:href="#DejaVuSans-65" transform="translate(2726.404297 0)"/>
     <use xlink:href="#DejaVuSans-64" transform="translate(2787.927734 0)"/>
     <use xlink:href="#DejaVuSans-20" transform="translate(2851.404297 0)"/>
     <use xlink:href="#DejaVuSans-31" transform="translate(2883.191406 0)"/>
     <use xlink:href="#DejaVuSans-3a" transform="translate(2946.814453 0)"/>
     <use xlink:href="#DejaVuSans-31" transform="translate(2980.505859 0)"/>
    </g>
   </g>
   <g id="text_21">
    <!-- Mean Latency vs Number of Jobs -->
    <g style="fill: #262626" transform="translate(111.685313 16.318125) scale(0.12 -0.12)">
     <defs>
      <path id="DejaVuSans-Bold-4d" d="M 588 4666 
L 2119 4666 
L 3181 2169 
L 4250 4666 
L 5778 4666 
L 5778 0 
L 4641 0 
L 4641 3413 
L 3566 897 
L 2803 897 
L 1728 3413 
L 1728 0 
L 588 0 
L 588 4666 
z
" transform="scale(0.015625)"/>
      <path id="DejaVuSans-Bold-65" d="M 4031 1759 
L 4031 1441 
L 1416 1441 
Q 1456 1047 1700 850 
Q 1944 653 2381 653 
Q 2734 653 3104 758 
Q 3475 863 3866 1075 
L 3866 213 
Q 3469 63 3072 -14 
Q 2675 -91 2278 -91 
Q 1328 -91 801 392 
Q 275 875 275 1747 
Q 275 2603 792 3093 
Q 1309 3584 2216 3584 
Q 3041 3584 3536 3087 
Q 4031 2591 4031 1759 
z
M 2881 2131 
Q 2881 2450 2695 2645 
Q 2509 2841 2209 2841 
Q 1884 2841 1681 2658 
Q 1478 2475 1428 2131 
L 2881 2131 
z
" transform="scale(0.015625)"/>
      <path id="DejaVuSans-Bold-61" d="M 2106 1575 
Q 1756 1575 1579 1456 
Q 1403 1338 1403 1106 
Q 1403 894 1545 773 
Q 1688 653 1941 653 
Q 2256 653 2472 879 
Q 2688 1106 2688 1447 
L 2688 1575 
L 2106 1575 
z
M 3816 1997 
L 3816 0 
L 2688 0 
L 2688 519 
Q 2463 200 2181 54 
Q 1900 -91 1497 -91 
Q 953 -91 614 226 
Q 275 544 275 1050 
Q 275 1666 698 1953 
Q 1122 2241 2028 2241 
L 2688 2241 
L 2688 2328 
Q 2688 2594 2478 2717 
Q 2269 2841 1825 2841 
Q 1466 2841 1156 2769 
Q 847 2697 581 2553 
L 581 3406 
Q 941 3494 1303 3539 
Q 1666 3584 2028 3584 
Q 2975 3584 3395 3211 
Q 3816 2838 3816 1997 
z
" transform="scale(0.015625)"/>
      <path id="DejaVuSans-Bold-6e" d="M 4056 2131 
L 4056 0 
L 2931 0 
L 2931 347 
L 2931 1631 
Q 2931 2084 2911 2256 
Q 2891 2428 2841 2509 
Q 2775 2619 2662 2680 
Q 2550 2741 2406 2741 
Q 2056 2741 1856 2470 
Q 1656 2200 1656 1722 
L 1656 0 
L 538 0 
L 538 3500 
L 1656 3500 
L 1656 2988 
Q 1909 3294 2193 3439 
Q 2478 3584 2822 3584 
Q 3428 3584 3742 3212 
Q 4056 2841 4056 2131 
z
" transform="scale(0.015625)"/>
      <path id="DejaVuSans-Bold-20" transform="scale(0.015625)"/>
      <path id="DejaVuSans-Bold-4c" d="M 588 4666 
L 1791 4666 
L 1791 909 
L 3903 909 
L 3903 0 
L 588 0 
L 588 4666 
z
" transform="scale(0.015625)"/>
      <path id="DejaVuSans-Bold-74" d="M 1759 4494 
L 1759 3500 
L 2913 3500 
L 2913 2700 
L 1759 2700 
L 1759 1216 
Q 1759 972 1856 886 
Q 1953 800 2241 800 
L 2816 800 
L 2816 0 
L 1856 0 
Q 1194 0 917 276 
Q 641 553 641 1216 
L 641 2700 
L 84 2700 
L 84 3500 
L 641 3500 
L 641 4494 
L 1759 4494 
z
" transform="scale(0.015625)"/>
      <path id="DejaVuSans-Bold-63" d="M 3366 3391 
L 3366 2478 
Q 3138 2634 2908 2709 
Q 2678 2784 2431 2784 
Q 1963 2784 1702 2511 
Q 1441 2238 1441 1747 
Q 1441 1256 1702 982 
Q 1963 709 2431 709 
Q 2694 709 2930 787 
Q 3166 866 3366 1019 
L 3366 103 
Q 3103 6 2833 -42 
Q 2563 -91 2291 -91 
Q 1344 -91 809 395 
Q 275 881 275 1747 
Q 275 2613 809 3098 
Q 1344 3584 2291 3584 
Q 2566 3584 2833 3536 
Q 3100 3488 3366 3391 
z
" transform="scale(0.015625)"/>
      <path id="DejaVuSans-Bold-79" d="M 78 3500 
L 1197 3500 
L 2138 1125 
L 2938 3500 
L 4056 3500 
L 2584 -331 
Q 2363 -916 2067 -1148 
Q 1772 -1381 1288 -1381 
L 641 -1381 
L 641 -647 
L 991 -647 
Q 1275 -647 1404 -556 
Q 1534 -466 1606 -231 
L 1638 -134 
L 78 3500 
z
" transform="scale(0.015625)"/>
      <path id="DejaVuSans-Bold-76" d="M 97 3500 
L 1216 3500 
L 2088 1081 
L 2956 3500 
L 4078 3500 
L 2700 0 
L 1472 0 
L 97 3500 
z
" transform="scale(0.015625)"/>
      <path id="DejaVuSans-Bold-73" d="M 3272 3391 
L 3272 2541 
Q 2913 2691 2578 2766 
Q 2244 2841 1947 2841 
Q 1628 2841 1473 2761 
Q 1319 2681 1319 2516 
Q 1319 2381 1436 2309 
Q 1553 2238 1856 2203 
L 2053 2175 
Q 2913 2066 3209 1816 
Q 3506 1566 3506 1031 
Q 3506 472 3093 190 
Q 2681 -91 1863 -91 
Q 1516 -91 1145 -36 
Q 775 19 384 128 
L 384 978 
Q 719 816 1070 734 
Q 1422 653 1784 653 
Q 2113 653 2278 743 
Q 2444 834 2444 1013 
Q 2444 1163 2330 1236 
Q 2216 1309 1875 1350 
L 1678 1375 
Q 931 1469 631 1722 
Q 331 1975 331 2491 
Q 331 3047 712 3315 
Q 1094 3584 1881 3584 
Q 2191 3584 2531 3537 
Q 2872 3491 3272 3391 
z
" transform="scale(0.015625)"/>
      <path id="DejaVuSans-Bold-4e" d="M 588 4666 
L 1931 4666 
L 3628 1466 
L 3628 4666 
L 4769 4666 
L 4769 0 
L 3425 0 
L 1728 3200 
L 1728 0 
L 588 0 
L 588 4666 
z
" transform="scale(0.015625)"/>
      <path id="DejaVuSans-Bold-75" d="M 500 1363 
L 500 3500 
L 1625 3500 
L 1625 3150 
Q 1625 2866 1622 2436 
Q 1619 2006 1619 1863 
Q 1619 1441 1641 1255 
Q 1663 1069 1716 984 
Q 1784 875 1895 815 
Q 2006 756 2150 756 
Q 2500 756 2700 1025 
Q 2900 1294 2900 1772 
L 2900 3500 
L 4019 3500 
L 4019 0 
L 2900 0 
L 2900 506 
Q 2647 200 2364 54 
Q 2081 -91 1741 -91 
Q 1134 -91 817 281 
Q 500 653 500 1363 
z
" transform="scale(0.015625)"/>
      <path id="DejaVuSans-Bold-6d" d="M 3781 2919 
Q 3994 3244 4286 3414 
Q 4578 3584 4928 3584 
Q 5531 3584 5847 3212 
Q 6163 2841 6163 2131 
L 6163 0 
L 5038 0 
L 5038 1825 
Q 5041 1866 5042 1909 
Q 5044 1953 5044 2034 
Q 5044 2406 4934 2573 
Q 4825 2741 4581 2741 
Q 4263 2741 4089 2478 
Q 3916 2216 3909 1719 
L 3909 0 
L 2784 0 
L 2784 1825 
Q 2784 2406 2684 2573 
Q 2584 2741 2328 2741 
Q 2006 2741 1831 2477 
Q 1656 2213 1656 1722 
L 1656 0 
L 531 0 
L 531 3500 
L 1656 3500 
L 1656 2988 
Q 1863 3284 2130 3434 
Q 2397 3584 2719 3584 
Q 3081 3584 3359 3409 
Q 3638 3234 3781 2919 
z
" transform="scale(0.015625)"/>
      <path id="DejaVuSans-Bold-62" d="M 2400 722 
Q 2759 722 2948 984 
Q 3138 1247 3138 1747 
Q 3138 2247 2948 2509 
Q 2759 2772 2400 2772 
Q 2041 2772 1848 2508 
Q 1656 2244 1656 1747 
Q 1656 1250 1848 986 
Q 2041 722 2400 722 
z
M 1656 2988 
Q 1888 3294 2169 3439 
Q 2450 3584 2816 3584 
Q 3463 3584 3878 3070 
Q 4294 2556 4294 1747 
Q 4294 938 3878 423 
Q 3463 -91 2816 -91 
Q 2450 -91 2169 54 
Q 1888 200 1656 506 
L 1656 0 
L 538 0 
L 538 4863 
L 1656 4863 
L 1656 2988 
z
" transform="scale(0.015625)"/>
      <path id="DejaVuSans-Bold-72" d="M 3138 2547 
Q 2991 2616 2845 2648 
Q 2700 2681 2553 2681 
Q 2122 2681 1889 2404 
Q 1656 2128 1656 1613 
L 1656 0 
L 538 0 
L 538 3500 
L 1656 3500 
L 1656 2925 
Q 1872 3269 2151 3426 
Q 2431 3584 2822 3584 
Q 2878 3584 2943 3579 
Q 3009 3575 3134 3559 
L 3138 2547 
z
" transform="scale(0.015625)"/>
      <path id="DejaVuSans-Bold-6f" d="M 2203 2784 
Q 1831 2784 1636 2517 
Q 1441 2250 1441 1747 
Q 1441 1244 1636 976 
Q 1831 709 2203 709 
Q 2569 709 2762 976 
Q 2956 1244 2956 1747 
Q 2956 2250 2762 2517 
Q 2569 2784 2203 2784 
z
M 2203 3584 
Q 3106 3584 3614 3096 
Q 4122 2609 4122 1747 
Q 4122 884 3614 396 
Q 3106 -91 2203 -91 
Q 1297 -91 786 396 
Q 275 884 275 1747 
Q 275 2609 786 3096 
Q 1297 3584 2203 3584 
z
" transform="scale(0.015625)"/>
      <path id="DejaVuSans-Bold-66" d="M 2841 4863 
L 2841 4128 
L 2222 4128 
Q 1984 4128 1890 4042 
Q 1797 3956 1797 3744 
L 1797 3500 
L 2753 3500 
L 2753 2700 
L 1797 2700 
L 1797 0 
L 678 0 
L 678 2700 
L 122 2700 
L 122 3500 
L 678 3500 
L 678 3744 
Q 678 4316 997 4589 
Q 1316 4863 1984 4863 
L 2841 4863 
z
" transform="scale(0.015625)"/>
      <path id="DejaVuSans-Bold-4a" d="M 588 4666 
L 1791 4666 
L 1791 453 
Q 1791 -419 1317 -850 
Q 844 -1281 -116 -1281 
L -359 -1281 
L -359 -372 
L -172 -372 
Q 203 -372 395 -162 
Q 588 47 588 453 
L 588 4666 
z
" transform="scale(0.015625)"/>
     </defs>
     <use xlink:href="#DejaVuSans-Bold-4d"/>
     <use xlink:href="#DejaVuSans-Bold-65" transform="translate(99.511719 0)"/>
     <use xlink:href="#DejaVuSans-Bold-61" transform="translate(167.333984 0)"/>
     <use xlink:href="#DejaVuSans-Bold-6e" transform="translate(234.814453 0)"/>
     <use xlink:href="#DejaVuSans-Bold-20" transform="translate(306.005859 0)"/>
     <use xlink:href="#DejaVuSans-Bold-4c" transform="translate(340.820312 0)"/>
     <use xlink:href="#DejaVuSans-Bold-61" transform="translate(404.541016 0)"/>
     <use xlink:href="#DejaVuSans-Bold-74" transform="translate(472.021484 0)"/>
     <use xlink:href="#DejaVuSans-Bold-65" transform="translate(519.824219 0)"/>
     <use xlink:href="#DejaVuSans-Bold-6e" transform="translate(587.646484 0)"/>
     <use xlink:href="#DejaVuSans-Bold-63" transform="translate(658.837891 0)"/>
     <use xlink:href="#DejaVuSans-Bold-79" transform="translate(718.115234 0)"/>
     <use xlink:href="#DejaVuSans-Bold-20" transform="translate(783.300781 0)"/>
     <use xlink:href="#DejaVuSans-Bold-76" transform="translate(818.115234 0)"/>
     <use xlink:href="#DejaVuSans-Bold-73" transform="translate(883.300781 0)"/>
     <use xlink:href="#DejaVuSans-Bold-20" transform="translate(942.822266 0)"/>
     <use xlink:href="#DejaVuSans-Bold-4e" transform="translate(977.636719 0)"/>
     <use xlink:href="#DejaVuSans-Bold-75" transform="translate(1061.328125 0)"/>
     <use xlink:href="#DejaVuSans-Bold-6d" transform="translate(1132.519531 0)"/>
     <use xlink:href="#DejaVuSans-Bold-62" transform="translate(1236.71875 0)"/>
     <use xlink:href="#DejaVuSans-Bold-65" transform="translate(1308.300781 0)"/>
     <use xlink:href="#DejaVuSans-Bold-72" transform="translate(1376.123047 0)"/>
     <use xlink:href="#DejaVuSans-Bold-20" transform="translate(1425.439453 0)"/>
     <use xlink:href="#DejaVuSans-Bold-6f" transform="translate(1460.253906 0)"/>
     <use xlink:href="#DejaVuSans-Bold-66" transform="translate(1528.955078 0)"/>
     <use xlink:href="#DejaVuSans-Bold-20" transform="translate(1572.460938 0)"/>
     <use xlink:href="#DejaVuSans-Bold-4a" transform="translate(1607.275391 0)"/>
     <use xlink:href="#DejaVuSans-Bold-6f" transform="translate(1644.482422 0)"/>
     <use xlink:href="#DejaVuSans-Bold-62" transform="translate(1713.183594 0)"/>
     <use xlink:href="#DejaVuSans-Bold-73" transform="translate(1784.765625 0)"/>
    </g>
   </g>
   <g id="legend_1">
    <g id="text_22">
     <!-- IO Depth -->
     <g style="fill: #262626" transform="translate(435.407813 120.065663) scale(0.1 -0.1)">
      <defs>
       <path id="DejaVuSans-49" d="M 628 4666 
L 1259 4666 
L 1259 0 
L 628 0 
L 628 4666 
z
" transform="scale(0.015625)"/>
       <path id="DejaVuSans-4f" d="M 2522 4238 
Q 1834 4238 1429 3725 
Q 1025 3213 1025 2328 
Q 1025 1447 1429 934 
Q 1834 422 2522 422 
Q 3209 422 3611 934 
Q 4013 1447 4013 2328 
Q 4013 3213 3611 3725 
Q 3209 4238 2522 4238 
z
M 2522 4750 
Q 3503 4750 4090 4092 
Q 4678 3434 4678 2328 
Q 4678 1225 4090 567 
Q 3503 -91 2522 -91 
Q 1538 -91 948 565 
Q 359 1222 359 2328 
Q 359 3434 948 4092 
Q 1538 4750 2522 4750 
z
" transform="scale(0.015625)"/>
       <path id="DejaVuSans-44" d="M 1259 4147 
L 1259 519 
L 2022 519 
Q 2988 519 3436 956 
Q 3884 1394 3884 2338 
Q 3884 3275 3436 3711 
Q 2988 4147 2022 4147 
L 1259 4147 
z
M 628 4666 
L 1925 4666 
Q 3281 4666 3915 4102 
Q 4550 3538 4550 2338 
Q 4550 1131 3912 565 
Q 3275 0 1925 0 
L 628 0 
L 628 4666 
z
" transform="scale(0.015625)"/>
       <path id="DejaVuSans-68" d="M 3513 2113 
L 3513 0 
L 2938 0 
L 2938 2094 
Q 2938 2591 2744 2837 
Q 2550 3084 2163 3084 
Q 1697 3084 1428 2787 
Q 1159 2491 1159 1978 
L 1159 0 
L 581 0 
L 581 4863 
L 1159 4863 
L 1159 2956 
Q 1366 3272 1645 3428 
Q 1925 3584 2291 3584 
Q 2894 3584 3203 3211 
Q 3513 2838 3513 2113 
z
" transform="scale(0.015625)"/>
      </defs>
      <use xlink:href="#DejaVuSans-49"/>
      <use xlink:href="#DejaVuSans-4f" transform="translate(29.492188 0)"/>
      <use xlink:href="#DejaVuSans-20" transform="translate(108.203125 0)"/>
      <use xlink:href="#DejaVuSans-44" transform="translate(139.990234 0)"/>
      <use xlink:href="#DejaVuSans-65" transform="translate(216.992188 0)"/>
      <use xlink:href="#DejaVuSans-70" transform="translate(278.515625 0)"/>
      <use xlink:href="#DejaVuSans-74" transform="translate(341.992188 0)"/>
      <use xlink:href="#DejaVuSans-68" transform="translate(381.201172 0)"/>
     </g>
    </g>
    <g id="line2d_24">
     <path d="M 434.09375 131.243787 
L 444.09375 131.243787 
L 454.09375 131.243787 
" style="fill: none; stroke: #4c02a1; stroke-width: 1.5; stroke-linecap: round"/>
    </g>
    <g id="text_23">
     <!-- 1 -->
     <g style="fill: #262626" transform="translate(462.09375 134.743787) scale(0.1 -0.1)">
      <use xlink:href="#DejaVuSans-31"/>
     </g>
    </g>
    <g id="line2d_25">
     <path d="M 434.09375 145.921913 
L 444.09375 145.921913 
L 454.09375 145.921913 
" style="fill: none; stroke: #7e03a8; stroke-width: 1.5; stroke-linecap: round"/>
    </g>
    <g id="text_24">
     <!-- 4 -->
     <g style="fill: #262626" transform="translate(462.09375 149.421913) scale(0.1 -0.1)">
      <use xlink:href="#DejaVuSans-34"/>
     </g>
    </g>
    <g id="line2d_26">
     <path d="M 434.09375 160.600037 
L 444.09375 160.600037 
L 454.09375 160.600037 
" style="fill: none; stroke: #aa2395; stroke-width: 1.5; stroke-linecap: round"/>
    </g>
    <g id="text_25">
     <!-- 8 -->
     <g style="fill: #262626" transform="translate(462.09375 164.100037) scale(0.1 -0.1)">
      <use xlink:href="#DejaVuSans-38"/>
     </g>
    </g>
    <g id="line2d_27">
     <path d="M 434.09375 175.278163 
L 444.09375 175.278163 
L 454.09375 175.278163 
" style="fill: none; stroke: #cc4778; stroke-width: 1.5; stroke-linecap: round"/>
    </g>
    <g id="text_26">
     <!-- 16 -->
     <g style="fill: #262626" transform="translate(462.09375 178.778163) scale(0.1 -0.1)">
      <use xlink:href="#DejaVuSans-31"/>
      <use xlink:href="#DejaVuSans-36" transform="translate(63.623047 0)"/>
     </g>
    </g>
    <g id="line2d_28">
     <path d="M 434.09375 189.956288 
L 444.09375 189.956288 
L 454.09375 189.956288 
" style="fill: none; stroke: #e66c5c; stroke-width: 1.5; stroke-linecap: round"/>
    </g>
    <g id="text_27">
     <!-- 32 -->
     <g style="fill: #262626" transform="translate(462.09375 193.456288) scale(0.1 -0.1)">
      <use xlink:href="#DejaVuSans-33"/>
      <use xlink:href="#DejaVuSans-32" transform="translate(63.623047 0)"/>
     </g>
    </g>
    <g id="line2d_29">
     <path d="M 434.09375 204.634412 
L 444.09375 204.634412 
L 454.09375 204.634412 
" style="fill: none; stroke: #f89540; stroke-width: 1.5; stroke-linecap: round"/>
    </g>
    <g id="text_28">
     <!-- 64 -->
     <g style="fill: #262626" transform="translate(462.09375 208.134412) scale(0.1 -0.1)">
      <use xlink:href="#DejaVuSans-36"/>
      <use xlink:href="#DejaVuSans-34" transform="translate(63.623047 0)"/>
     </g>
    </g>
    <g id="line2d_30">
     <path d="M 434.09375 219.312537 
L 444.09375 219.312537 
L 454.09375 219.312537 
" style="fill: none; stroke: #fdc527; stroke-width: 1.5; stroke-linecap: round"/>
    </g>
    <g id="text_29">
     <!-- 128 -->
     <g style="fill: #262626" transform="translate(462.09375 222.812537) scale(0.1 -0.1)">
      <use xlink:href="#DejaVuSans-31"/>
      <use xlink:href="#DejaVuSans-32" transform="translate(63.623047 0)"/>
      <use xlink:href="#DejaVuSans-38" transform="translate(127.246094 0)"/>
     </g>
    </g>
   </g>
  </g>
 </g>
 <defs>
  <clipPath id="p10ef688122">
   <rect x="43.78125" y="35.623725" width="357.12" height="266.112"/>
  </clipPath>
 </defs>
</svg>
