<?xml version="1.0" encoding="utf-8" standalone="no"?>
<!DOCTYPE svg PUBLIC "-//W3C//DTD SVG 1.1//EN"
  "http://www.w3.org/Graphics/SVG/1.1/DTD/svg11.dtd">
<svg xmlns:xlink="http://www.w3.org/1999/xlink" width="498.74375pt" height="339.291975pt" viewBox="0 0 498.74375 339.291975" xmlns="http://www.w3.org/2000/svg" version="1.1">
 <metadata>
  <rdf:RDF xmlns:dc="http://purl.org/dc/elements/1.1/" xmlns:cc="http://creativecommons.org/ns#" xmlns:rdf="http://www.w3.org/1999/02/22-rdf-syntax-ns#">
   <cc:Work>
    <dc:type rdf:resource="http://purl.org/dc/dcmitype/StillImage"/>
    <dc:date>2025-09-11T11:48:47.208630</dc:date>
    <dc:format>image/svg+xml</dc:format>
    <dc:creator>
     <cc:Agent>
      <dc:title>Matplotlib v3.10.6, https://matplotlib.org/</dc:title>
     </cc:Agent>
    </dc:creator>
   </cc:Work>
  </rdf:RDF>
 </metadata>
 <defs>
  <style type="text/css">*{stroke-linejoin: round; stroke-linecap: butt}</style>
 </defs>
 <g id="figure_1">
  <g id="patch_1">
   <path d="M 0 339.291975 
L 498.74375 339.291975 
L 498.74375 0 
L 0 0 
z
" style="fill: #ffffff"/>
  </g>
  <g id="axes_1">
   <g id="patch_2">
    <path d="M 50.14375 301.735725 
L 407.26375 301.735725 
L 407.26375 35.623725 
L 50.14375 35.623725 
z
" style="fill: #ffffff"/>
   </g>
   <g id="matplotlib.axis_1">
    <g id="xtick_1">
     <g id="line2d_1">
      <path d="M 74.045482 301.735725 
L 74.045482 35.623725 
" clip-path="url(#p165fa84a6a)" style="fill: none; stroke: #cccccc; stroke-width: 0.8; stroke-linecap: round"/>
     </g>
     <g id="text_1">
      <!-- 4 -->
      <g style="fill: #262626" transform="translate(70.864232 316.334162) scale(0.1 -0.1)">
       <defs>
        <path id="DejaVuSans-34" d="M 2419 4116 
L 825 1625 
L 2419 1625 
L 2419 4116 
z
M 2253 4666 
L 3047 4666 
L 3047 1625 
L 3713 1625 
L 3713 1100 
L 3047 1100 
L 3047 0 
L 2419 0 
L 2419 1100 
L 313 1100 
L 313 1709 
L 2253 4666 
z
" transform="scale(0.015625)"/>
       </defs>
       <use xlink:href="#DejaVuSans-34"/>
      </g>
     </g>
    </g>
    <g id="xtick_2">
     <g id="line2d_2">
      <path d="M 391.031023 301.735725 
L 391.031023 35.623725 
" clip-path="url(#p165fa84a6a)" style="fill: none; stroke: #cccccc; stroke-width: 0.8; stroke-linecap: round"/>
     </g>
     <g id="text_2">
      <!-- 128 -->
      <g style="fill: #262626" transform="translate(381.487273 316.334162) scale(0.1 -0.1)">
       <defs>
        <path id="DejaVuSans-31" d="M 794 531 
L 1825 531 
L 1825 4091 
L 703 3866 
L 703 4441 
L 1819 4666 
L 2450 4666 
L 2450 531 
L 3481 531 
L 3481 0 
L 794 0 
L 794 531 
z
" transform="scale(0.015625)"/>
        <path id="DejaVuSans-32" d="M 1228 531 
L 3431 531 
L 3431 0 
L 469 0 
L 469 531 
Q 828 903 1448 1529 
Q 2069 2156 2228 2338 
Q 2531 2678 2651 2914 
Q 2772 3150 2772 3378 
Q 2772 3750 2511 3984 
Q 2250 4219 1831 4219 
Q 1534 4219 1204 4116 
Q 875 4013 500 3803 
L 500 4441 
Q 881 4594 1212 4672 
Q 1544 4750 1819 4750 
Q 2544 4750 2975 4387 
Q 3406 4025 3406 3419 
Q 3406 3131 3298 2873 
Q 3191 2616 2906 2266 
Q 2828 2175 2409 1742 
Q 1991 1309 1228 531 
z
" transform="scale(0.015625)"/>
        <path id="DejaVuSans-38" d="M 2034 2216 
Q 1584 2216 1326 1975 
Q 1069 1734 1069 1313 
Q 1069 891 1326 650 
Q 1584 409 2034 409 
Q 2484 409 2743 651 
Q 3003 894 3003 1313 
Q 3003 1734 2745 1975 
Q 2488 2216 2034 2216 
z
M 1403 2484 
Q 997 2584 770 2862 
Q 544 3141 544 3541 
Q 544 4100 942 4425 
Q 1341 4750 2034 4750 
Q 2731 4750 3128 4425 
Q 3525 4100 3525 3541 
Q 3525 3141 3298 2862 
Q 3072 2584 2669 2484 
Q 3125 2378 3379 2068 
Q 3634 1759 3634 1313 
Q 3634 634 3220 271 
Q 2806 -91 2034 -91 
Q 1263 -91 848 271 
Q 434 634 434 1313 
Q 434 1759 690 2068 
Q 947 2378 1403 2484 
z
M 1172 3481 
Q 1172 3119 1398 2916 
Q 1625 2713 2034 2713 
Q 2441 2713 2670 2916 
Q 2900 3119 2900 3481 
Q 2900 3844 2670 4047 
Q 2441 4250 2034 4250 
Q 1625 4250 1398 4047 
Q 1172 3844 1172 3481 
z
" transform="scale(0.015625)"/>
       </defs>
       <use xlink:href="#DejaVuSans-31"/>
       <use xlink:href="#DejaVuSans-32" transform="translate(63.623047 0)"/>
       <use xlink:href="#DejaVuSans-38" transform="translate(127.246094 0)"/>
      </g>
     </g>
    </g>
    <g id="xtick_3">
     <g id="line2d_3">
      <path d="M 104.721502 301.735725 
L 104.721502 35.623725 
" clip-path="url(#p165fa84a6a)" style="fill: none; stroke: #cccccc; stroke-width: 0.8; stroke-linecap: round"/>
     </g>
     <g id="text_3">
      <!-- 16 -->
      <g style="fill: #262626" transform="translate(98.359002 316.334162) scale(0.1 -0.1)">
       <defs>
        <path id="DejaVuSans-36" d="M 2113 2584 
Q 1688 2584 1439 2293 
Q 1191 2003 1191 1497 
Q 1191 994 1439 701 
Q 1688 409 2113 409 
Q 2538 409 2786 701 
Q 3034 994 3034 1497 
Q 3034 2003 2786 2293 
Q 2538 2584 2113 2584 
z
M 3366 4563 
L 3366 3988 
Q 3128 4100 2886 4159 
Q 2644 4219 2406 4219 
Q 1781 4219 1451 3797 
Q 1122 3375 1075 2522 
Q 1259 2794 1537 2939 
Q 1816 3084 2150 3084 
Q 2853 3084 3261 2657 
Q 3669 2231 3669 1497 
Q 3669 778 3244 343 
Q 2819 -91 2113 -91 
Q 1303 -91 875 529 
Q 447 1150 447 2328 
Q 447 3434 972 4092 
Q 1497 4750 2381 4750 
Q 2619 4750 2861 4703 
Q 3103 4656 3366 4563 
z
" transform="scale(0.015625)"/>
       </defs>
       <use xlink:href="#DejaVuSans-31"/>
       <use xlink:href="#DejaVuSans-36" transform="translate(63.623047 0)"/>
      </g>
     </g>
    </g>
    <g id="xtick_4">
     <g id="line2d_4">
      <path d="M 145.622862 301.735725 
L 145.622862 35.623725 
" clip-path="url(#p165fa84a6a)" style="fill: none; stroke: #cccccc; stroke-width: 0.8; stroke-linecap: round"/>
     </g>
     <g id="text_4">
      <!-- 32 -->
      <g style="fill: #262626" transform="translate(139.260362 316.334162) scale(0.1 -0.1)">
       <defs>
        <path id="DejaVuSans-33" d="M 2597 2516 
Q 3050 2419 3304 2112 
Q 3559 1806 3559 1356 
Q 3559 666 3084 287 
Q 2609 -91 1734 -91 
Q 1441 -91 1130 -33 
Q 819 25 488 141 
L 488 750 
Q 750 597 1062 519 
Q 1375 441 1716 441 
Q 2309 441 2620 675 
Q 2931 909 2931 1356 
Q 2931 1769 2642 2001 
Q 2353 2234 1838 2234 
L 1294 2234 
L 1294 2753 
L 1863 2753 
Q 2328 2753 2575 2939 
Q 2822 3125 2822 3475 
Q 2822 3834 2567 4026 
Q 2313 4219 1838 4219 
Q 1578 4219 1281 4162 
Q 984 4106 628 3988 
L 628 4550 
Q 988 4650 1302 4700 
Q 1616 4750 1894 4750 
Q 2613 4750 3031 4423 
Q 3450 4097 3450 3541 
Q 3450 3153 3228 2886 
Q 3006 2619 2597 2516 
z
" transform="scale(0.015625)"/>
       </defs>
       <use xlink:href="#DejaVuSans-33"/>
       <use xlink:href="#DejaVuSans-32" transform="translate(63.623047 0)"/>
      </g>
     </g>
    </g>
    <g id="xtick_5">
     <g id="line2d_5">
      <path d="M 84.270822 301.735725 
L 84.270822 35.623725 
" clip-path="url(#p165fa84a6a)" style="fill: none; stroke: #cccccc; stroke-width: 0.8; stroke-linecap: round"/>
     </g>
     <g id="text_5">
      <!-- 8 -->
      <g style="fill: #262626" transform="translate(81.089572 316.334162) scale(0.1 -0.1)">
       <use xlink:href="#DejaVuSans-38"/>
      </g>
     </g>
    </g>
    <g id="xtick_6">
     <g id="line2d_6">
      <path d="M 227.425582 301.735725 
L 227.425582 35.623725 
" clip-path="url(#p165fa84a6a)" style="fill: none; stroke: #cccccc; stroke-width: 0.8; stroke-linecap: round"/>
     </g>
     <g id="text_6">
      <!-- 64 -->
      <g style="fill: #262626" transform="translate(221.063082 316.334162) scale(0.1 -0.1)">
       <use xlink:href="#DejaVuSans-36"/>
       <use xlink:href="#DejaVuSans-34" transform="translate(63.623047 0)"/>
      </g>
     </g>
    </g>
    <g id="xtick_7">
     <g id="line2d_7">
      <path d="M 66.376477 301.735725 
L 66.376477 35.623725 
" clip-path="url(#p165fa84a6a)" style="fill: none; stroke: #cccccc; stroke-width: 0.8; stroke-linecap: round"/>
     </g>
     <g id="text_7">
      <!-- 1 -->
      <g style="fill: #262626" transform="translate(63.195227 316.334162) scale(0.1 -0.1)">
       <use xlink:href="#DejaVuSans-31"/>
      </g>
     </g>
    </g>
    <g id="text_8">
     <!-- IO Depth -->
     <g style="fill: #262626" transform="translate(206.474063 330.012287) scale(0.1 -0.1)">
      <defs>
       <path id="DejaVuSans-49" d="M 628 4666 
L 1259 4666 
L 1259 0 
L 628 0 
L 628 4666 
z
" transform="scale(0.015625)"/>
       <path id="DejaVuSans-4f" d="M 2522 4238 
Q 1834 4238 1429 3725 
Q 1025 3213 1025 2328 
Q 1025 1447 1429 934 
Q 1834 422 2522 422 
Q 3209 422 3611 934 
Q 4013 1447 4013 2328 
Q 4013 3213 3611 3725 
Q 3209 4238 2522 4238 
z
M 2522 4750 
Q 3503 4750 4090 4092 
Q 4678 3434 4678 2328 
Q 4678 1225 4090 567 
Q 3503 -91 2522 -91 
Q 1538 -91 948 565 
Q 359 1222 359 2328 
Q 359 3434 948 4092 
Q 1538 4750 2522 4750 
z
" transform="scale(0.015625)"/>
       <path id="DejaVuSans-20" transform="scale(0.015625)"/>
       <path id="DejaVuSans-44" d="M 1259 4147 
L 1259 519 
L 2022 519 
Q 2988 519 3436 956 
Q 3884 1394 3884 2338 
Q 3884 3275 3436 3711 
Q 2988 4147 2022 4147 
L 1259 4147 
z
M 628 4666 
L 1925 4666 
Q 3281 4666 3915 4102 
Q 4550 3538 4550 2338 
Q 4550 1131 3912 565 
Q 3275 0 1925 0 
L 628 0 
L 628 4666 
z
" transform="scale(0.015625)"/>
       <path id="DejaVuSans-65" d="M 3597 1894 
L 3597 1613 
L 953 1613 
Q 991 1019 1311 708 
Q 1631 397 2203 397 
Q 2534 397 2845 478 
Q 3156 559 3463 722 
L 3463 178 
Q 3153 47 2828 -22 
Q 2503 -91 2169 -91 
Q 1331 -91 842 396 
Q 353 884 353 1716 
Q 353 2575 817 3079 
Q 1281 3584 2069 3584 
Q 2775 3584 3186 3129 
Q 3597 2675 3597 1894 
z
M 3022 2063 
Q 3016 2534 2758 2815 
Q 2500 3097 2075 3097 
Q 1594 3097 1305 2825 
Q 1016 2553 972 2059 
L 3022 2063 
z
" transform="scale(0.015625)"/>
       <path id="DejaVuSans-70" d="M 1159 525 
L 1159 -1331 
L 581 -1331 
L 581 3500 
L 1159 3500 
L 1159 2969 
Q 1341 3281 1617 3432 
Q 1894 3584 2278 3584 
Q 2916 3584 3314 3078 
Q 3713 2572 3713 1747 
Q 3713 922 3314 415 
Q 2916 -91 2278 -91 
Q 1894 -91 1617 61 
Q 1341 213 1159 525 
z
M 3116 1747 
Q 3116 2381 2855 2742 
Q 2594 3103 2138 3103 
Q 1681 3103 1420 2742 
Q 1159 2381 1159 1747 
Q 1159 1113 1420 752 
Q 1681 391 2138 391 
Q 2594 391 2855 752 
Q 3116 1113 3116 1747 
z
" transform="scale(0.015625)"/>
       <path id="DejaVuSans-74" d="M 1172 4494 
L 1172 3500 
L 2356 3500 
L 2356 3053 
L 1172 3053 
L 1172 1153 
Q 1172 725 1289 603 
Q 1406 481 1766 481 
L 2356 481 
L 2356 0 
L 1766 0 
Q 1100 0 847 248 
Q 594 497 594 1153 
L 594 3053 
L 172 3053 
L 172 3500 
L 594 3500 
L 594 4494 
L 1172 4494 
z
" transform="scale(0.015625)"/>
       <path id="DejaVuSans-68" d="M 3513 2113 
L 3513 0 
L 2938 0 
L 2938 2094 
Q 2938 2591 2744 2837 
Q 2550 3084 2163 3084 
Q 1697 3084 1428 2787 
Q 1159 2491 1159 1978 
L 1159 0 
L 581 0 
L 581 4863 
L 1159 4863 
L 1159 2956 
Q 1366 3272 1645 3428 
Q 1925 3584 2291 3584 
Q 2894 3584 3203 3211 
Q 3513 2838 3513 2113 
z
" transform="scale(0.015625)"/>
      </defs>
      <use xlink:href="#DejaVuSans-49"/>
      <use xlink:href="#DejaVuSans-4f" transform="translate(29.492188 0)"/>
      <use xlink:href="#DejaVuSans-20" transform="translate(108.203125 0)"/>
      <use xlink:href="#DejaVuSans-44" transform="translate(139.990234 0)"/>
      <use xlink:href="#DejaVuSans-65" transform="translate(216.992188 0)"/>
      <use xlink:href="#DejaVuSans-70" transform="translate(278.515625 0)"/>
      <use xlink:href="#DejaVuSans-74" transform="translate(341.992188 0)"/>
      <use xlink:href="#DejaVuSans-68" transform="translate(381.201172 0)"/>
     </g>
    </g>
   </g>
   <g id="matplotlib.axis_2">
    <g id="ytick_1">
     <g id="line2d_8">
      <path d="M 50.14375 285.70364 
L 407.26375 285.70364 
" clip-path="url(#p165fa84a6a)" style="fill: none; stroke: #cccccc; stroke-width: 0.8; stroke-linecap: round"/>
     </g>
     <g id="text_9">
      <!-- 0.25 -->
      <g style="fill: #262626" transform="translate(20.878125 289.502859) scale(0.1 -0.1)">
       <defs>
        <path id="DejaVuSans-30" d="M 2034 4250 
Q 1547 4250 1301 3770 
Q 1056 3291 1056 2328 
Q 1056 1369 1301 889 
Q 1547 409 2034 409 
Q 2525 409 2770 889 
Q 3016 1369 3016 2328 
Q 3016 3291 2770 3770 
Q 2525 4250 2034 4250 
z
M 2034 4750 
Q 2819 4750 3233 4129 
Q 3647 3509 3647 2328 
Q 3647 1150 3233 529 
Q 2819 -91 2034 -91 
Q 1250 -91 836 529 
Q 422 1150 422 2328 
Q 422 3509 836 4129 
Q 1250 4750 2034 4750 
z
" transform="scale(0.015625)"/>
        <path id="DejaVuSans-2e" d="M 684 794 
L 1344 794 
L 1344 0 
L 684 0 
L 684 794 
z
" transform="scale(0.015625)"/>
        <path id="DejaVuSans-35" d="M 691 4666 
L 3169 4666 
L 3169 4134 
L 1269 4134 
L 1269 2991 
Q 1406 3038 1543 3061 
Q 1681 3084 1819 3084 
Q 2600 3084 3056 2656 
Q 3513 2228 3513 1497 
Q 3513 744 3044 326 
Q 2575 -91 1722 -91 
Q 1428 -91 1123 -41 
Q 819 9 494 109 
L 494 744 
Q 775 591 1075 516 
Q 1375 441 1709 441 
Q 2250 441 2565 725 
Q 2881 1009 2881 1497 
Q 2881 1984 2565 2268 
Q 2250 2553 1709 2553 
Q 1456 2553 1204 2497 
Q 953 2441 691 2322 
L 691 4666 
z
" transform="scale(0.015625)"/>
       </defs>
       <use xlink:href="#DejaVuSans-30"/>
       <use xlink:href="#DejaVuSans-2e" transform="translate(63.623047 0)"/>
       <use xlink:href="#DejaVuSans-32" transform="translate(95.410156 0)"/>
       <use xlink:href="#DejaVuSans-35" transform="translate(159.033203 0)"/>
      </g>
     </g>
    </g>
    <g id="ytick_2">
     <g id="line2d_9">
      <path d="M 50.14375 254.932911 
L 407.26375 254.932911 
" clip-path="url(#p165fa84a6a)" style="fill: none; stroke: #cccccc; stroke-width: 0.8; stroke-linecap: round"/>
     </g>
     <g id="text_10">
      <!-- 0.50 -->
      <g style="fill: #262626" transform="translate(20.878125 258.732129) scale(0.1 -0.1)">
       <use xlink:href="#DejaVuSans-30"/>
       <use xlink:href="#DejaVuSans-2e" transform="translate(63.623047 0)"/>
       <use xlink:href="#DejaVuSans-35" transform="translate(95.410156 0)"/>
       <use xlink:href="#DejaVuSans-30" transform="translate(159.033203 0)"/>
      </g>
     </g>
    </g>
    <g id="ytick_3">
     <g id="line2d_10">
      <path d="M 50.14375 224.162181 
L 407.26375 224.162181 
" clip-path="url(#p165fa84a6a)" style="fill: none; stroke: #cccccc; stroke-width: 0.8; stroke-linecap: round"/>
     </g>
     <g id="text_11">
      <!-- 0.75 -->
      <g style="fill: #262626" transform="translate(20.878125 227.9614) scale(0.1 -0.1)">
       <defs>
        <path id="DejaVuSans-37" d="M 525 4666 
L 3525 4666 
L 3525 4397 
L 1831 0 
L 1172 0 
L 2766 4134 
L 525 4134 
L 525 4666 
z
" transform="scale(0.015625)"/>
       </defs>
       <use xlink:href="#DejaVuSans-30"/>
       <use xlink:href="#DejaVuSans-2e" transform="translate(63.623047 0)"/>
       <use xlink:href="#DejaVuSans-37" transform="translate(95.410156 0)"/>
       <use xlink:href="#DejaVuSans-35" transform="translate(159.033203 0)"/>
      </g>
     </g>
    </g>
    <g id="ytick_4">
     <g id="line2d_11">
      <path d="M 50.14375 193.391452 
L 407.26375 193.391452 
" clip-path="url(#p165fa84a6a)" style="fill: none; stroke: #cccccc; stroke-width: 0.8; stroke-linecap: round"/>
     </g>
     <g id="text_12">
      <!-- 1.00 -->
      <g style="fill: #262626" transform="translate(20.878125 197.19067) scale(0.1 -0.1)">
       <use xlink:href="#DejaVuSans-31"/>
       <use xlink:href="#DejaVuSans-2e" transform="translate(63.623047 0)"/>
       <use xlink:href="#DejaVuSans-30" transform="translate(95.410156 0)"/>
       <use xlink:href="#DejaVuSans-30" transform="translate(159.033203 0)"/>
      </g>
     </g>
    </g>
    <g id="ytick_5">
     <g id="line2d_12">
      <path d="M 50.14375 162.620722 
L 407.26375 162.620722 
" clip-path="url(#p165fa84a6a)" style="fill: none; stroke: #cccccc; stroke-width: 0.8; stroke-linecap: round"/>
     </g>
     <g id="text_13">
      <!-- 1.25 -->
      <g style="fill: #262626" transform="translate(20.878125 166.419941) scale(0.1 -0.1)">
       <use xlink:href="#DejaVuSans-31"/>
       <use xlink:href="#DejaVuSans-2e" transform="translate(63.623047 0)"/>
       <use xlink:href="#DejaVuSans-32" transform="translate(95.410156 0)"/>
       <use xlink:href="#DejaVuSans-35" transform="translate(159.033203 0)"/>
      </g>
     </g>
    </g>
    <g id="ytick_6">
     <g id="line2d_13">
      <path d="M 50.14375 131.849993 
L 407.26375 131.849993 
" clip-path="url(#p165fa84a6a)" style="fill: none; stroke: #cccccc; stroke-width: 0.8; stroke-linecap: round"/>
     </g>
     <g id="text_14">
      <!-- 1.50 -->
      <g style="fill: #262626" transform="translate(20.878125 135.649212) scale(0.1 -0.1)">
       <use xlink:href="#DejaVuSans-31"/>
       <use xlink:href="#DejaVuSans-2e" transform="translate(63.623047 0)"/>
       <use xlink:href="#DejaVuSans-35" transform="translate(95.410156 0)"/>
       <use xlink:href="#DejaVuSans-30" transform="translate(159.033203 0)"/>
      </g>
     </g>
    </g>
    <g id="ytick_7">
     <g id="line2d_14">
      <path d="M 50.14375 101.079263 
L 407.26375 101.079263 
" clip-path="url(#p165fa84a6a)" style="fill: none; stroke: #cccccc; stroke-width: 0.8; stroke-linecap: round"/>
     </g>
     <g id="text_15">
      <!-- 1.75 -->
      <g style="fill: #262626" transform="translate(20.878125 104.878482) scale(0.1 -0.1)">
       <use xlink:href="#DejaVuSans-31"/>
       <use xlink:href="#DejaVuSans-2e" transform="translate(63.623047 0)"/>
       <use xlink:href="#DejaVuSans-37" transform="translate(95.410156 0)"/>
       <use xlink:href="#DejaVuSans-35" transform="translate(159.033203 0)"/>
      </g>
     </g>
    </g>
    <g id="ytick_8">
     <g id="line2d_15">
      <path d="M 50.14375 70.308534 
L 407.26375 70.308534 
" clip-path="url(#p165fa84a6a)" style="fill: none; stroke: #cccccc; stroke-width: 0.8; stroke-linecap: round"/>
     </g>
     <g id="text_16">
      <!-- 2.00 -->
      <g style="fill: #262626" transform="translate(20.878125 74.107753) scale(0.1 -0.1)">
       <use xlink:href="#DejaVuSans-32"/>
       <use xlink:href="#DejaVuSans-2e" transform="translate(63.623047 0)"/>
       <use xlink:href="#DejaVuSans-30" transform="translate(95.410156 0)"/>
       <use xlink:href="#DejaVuSans-30" transform="translate(159.033203 0)"/>
      </g>
     </g>
    </g>
    <g id="ytick_9">
     <g id="line2d_16">
      <path d="M 50.14375 39.537804 
L 407.26375 39.537804 
" clip-path="url(#p165fa84a6a)" style="fill: none; stroke: #cccccc; stroke-width: 0.8; stroke-linecap: round"/>
     </g>
     <g id="text_17">
      <!-- 2.25 -->
      <g style="fill: #262626" transform="translate(20.878125 43.337023) scale(0.1 -0.1)">
       <use xlink:href="#DejaVuSans-32"/>
       <use xlink:href="#DejaVuSans-2e" transform="translate(63.623047 0)"/>
       <use xlink:href="#DejaVuSans-32" transform="translate(95.410156 0)"/>
       <use xlink:href="#DejaVuSans-35" transform="translate(159.033203 0)"/>
      </g>
     </g>
    </g>
    <g id="text_18">
     <!-- Mean Latency (ns) -->
     <g style="fill: #262626" transform="translate(14.798438 214.92035) rotate(-90) scale(0.1 -0.1)">
      <defs>
       <path id="DejaVuSans-4d" d="M 628 4666 
L 1569 4666 
L 2759 1491 
L 3956 4666 
L 4897 4666 
L 4897 0 
L 4281 0 
L 4281 4097 
L 3078 897 
L 2444 897 
L 1241 4097 
L 1241 0 
L 628 0 
L 628 4666 
z
" transform="scale(0.015625)"/>
       <path id="DejaVuSans-61" d="M 2194 1759 
Q 1497 1759 1228 1600 
Q 959 1441 959 1056 
Q 959 750 1161 570 
Q 1363 391 1709 391 
Q 2188 391 2477 730 
Q 2766 1069 2766 1631 
L 2766 1759 
L 2194 1759 
z
M 3341 1997 
L 3341 0 
L 2766 0 
L 2766 531 
Q 2569 213 2275 61 
Q 1981 -91 1556 -91 
Q 1019 -91 701 211 
Q 384 513 384 1019 
Q 384 1609 779 1909 
Q 1175 2209 1959 2209 
L 2766 2209 
L 2766 2266 
Q 2766 2663 2505 2880 
Q 2244 3097 1772 3097 
Q 1472 3097 1187 3025 
Q 903 2953 641 2809 
L 641 3341 
Q 956 3463 1253 3523 
Q 1550 3584 1831 3584 
Q 2591 3584 2966 3190 
Q 3341 2797 3341 1997 
z
" transform="scale(0.015625)"/>
       <path id="DejaVuSans-6e" d="M 3513 2113 
L 3513 0 
L 2938 0 
L 2938 2094 
Q 2938 2591 2744 2837 
Q 2550 3084 2163 3084 
Q 1697 3084 1428 2787 
Q 1159 2491 1159 1978 
L 1159 0 
L 581 0 
L 581 3500 
L 1159 3500 
L 1159 2956 
Q 1366 3272 1645 3428 
Q 1925 3584 2291 3584 
Q 2894 3584 3203 3211 
Q 3513 2838 3513 2113 
z
" transform="scale(0.015625)"/>
       <path id="DejaVuSans-4c" d="M 628 4666 
L 1259 4666 
L 1259 531 
L 3531 531 
L 3531 0 
L 628 0 
L 628 4666 
z
" transform="scale(0.015625)"/>
       <path id="DejaVuSans-63" d="M 3122 3366 
L 3122 2828 
Q 2878 2963 2633 3030 
Q 2388 3097 2138 3097 
Q 1578 3097 1268 2742 
Q 959 2388 959 1747 
Q 959 1106 1268 751 
Q 1578 397 2138 397 
Q 2388 397 2633 464 
Q 2878 531 3122 666 
L 3122 134 
Q 2881 22 2623 -34 
Q 2366 -91 2075 -91 
Q 1284 -91 818 406 
Q 353 903 353 1747 
Q 353 2603 823 3093 
Q 1294 3584 2113 3584 
Q 2378 3584 2631 3529 
Q 2884 3475 3122 3366 
z
" transform="scale(0.015625)"/>
       <path id="DejaVuSans-79" d="M 2059 -325 
Q 1816 -950 1584 -1140 
Q 1353 -1331 966 -1331 
L 506 -1331 
L 506 -850 
L 844 -850 
Q 1081 -850 1212 -737 
Q 1344 -625 1503 -206 
L 1606 56 
L 191 3500 
L 800 3500 
L 1894 763 
L 2988 3500 
L 3597 3500 
L 2059 -325 
z
" transform="scale(0.015625)"/>
       <path id="DejaVuSans-28" d="M 1984 4856 
Q 1566 4138 1362 3434 
Q 1159 2731 1159 2009 
Q 1159 1288 1364 580 
Q 1569 -128 1984 -844 
L 1484 -844 
Q 1016 -109 783 600 
Q 550 1309 550 2009 
Q 550 2706 781 3412 
Q 1013 4119 1484 4856 
L 1984 4856 
z
" transform="scale(0.015625)"/>
       <path id="DejaVuSans-73" d="M 2834 3397 
L 2834 2853 
Q 2591 2978 2328 3040 
Q 2066 3103 1784 3103 
Q 1356 3103 1142 2972 
Q 928 2841 928 2578 
Q 928 2378 1081 2264 
Q 1234 2150 1697 2047 
L 1894 2003 
Q 2506 1872 2764 1633 
Q 3022 1394 3022 966 
Q 3022 478 2636 193 
Q 2250 -91 1575 -91 
Q 1294 -91 989 -36 
Q 684 19 347 128 
L 347 722 
Q 666 556 975 473 
Q 1284 391 1588 391 
Q 1994 391 2212 530 
Q 2431 669 2431 922 
Q 2431 1156 2273 1281 
Q 2116 1406 1581 1522 
L 1381 1569 
Q 847 1681 609 1914 
Q 372 2147 372 2553 
Q 372 3047 722 3315 
Q 1072 3584 1716 3584 
Q 2034 3584 2315 3537 
Q 2597 3491 2834 3397 
z
" transform="scale(0.015625)"/>
       <path id="DejaVuSans-29" d="M 513 4856 
L 1013 4856 
Q 1481 4119 1714 3412 
Q 1947 2706 1947 2009 
Q 1947 1309 1714 600 
Q 1481 -109 1013 -844 
L 513 -844 
Q 928 -128 1133 580 
Q 1338 1288 1338 2009 
Q 1338 2731 1133 3434 
Q 928 4138 513 4856 
z
" transform="scale(0.015625)"/>
      </defs>
      <use xlink:href="#DejaVuSans-4d"/>
      <use xlink:href="#DejaVuSans-65" transform="translate(86.279297 0)"/>
      <use xlink:href="#DejaVuSans-61" transform="translate(147.802734 0)"/>
      <use xlink:href="#DejaVuSans-6e" transform="translate(209.082031 0)"/>
      <use xlink:href="#DejaVuSans-20" transform="translate(272.460938 0)"/>
      <use xlink:href="#DejaVuSans-4c" transform="translate(304.248047 0)"/>
      <use xlink:href="#DejaVuSans-61" transform="translate(359.960938 0)"/>
      <use xlink:href="#DejaVuSans-74" transform="translate(421.240234 0)"/>
      <use xlink:href="#DejaVuSans-65" transform="translate(460.449219 0)"/>
      <use xlink:href="#DejaVuSans-6e" transform="translate(521.972656 0)"/>
      <use xlink:href="#DejaVuSans-63" transform="translate(585.351562 0)"/>
      <use xlink:href="#DejaVuSans-79" transform="translate(640.332031 0)"/>
      <use xlink:href="#DejaVuSans-20" transform="translate(699.511719 0)"/>
      <use xlink:href="#DejaVuSans-28" transform="translate(731.298828 0)"/>
      <use xlink:href="#DejaVuSans-6e" transform="translate(770.3125 0)"/>
      <use xlink:href="#DejaVuSans-73" transform="translate(833.691406 0)"/>
      <use xlink:href="#DejaVuSans-29" transform="translate(885.791016 0)"/>
     </g>
    </g>
    <g id="text_19">
     <!-- 1e6 -->
     <g style="fill: #262626" transform="translate(50.14375 32.623725) scale(0.1 -0.1)">
      <use xlink:href="#DejaVuSans-31"/>
      <use xlink:href="#DejaVuSans-65" transform="translate(63.623047 0)"/>
      <use xlink:href="#DejaVuSans-36" transform="translate(125.146484 0)"/>
     </g>
    </g>
   </g>
   <g id="FillBetweenPolyCollection_1"/>
   <g id="FillBetweenPolyCollection_2"/>
   <g id="FillBetweenPolyCollection_3"/>
   <g id="FillBetweenPolyCollection_4"/>
   <g id="line2d_17">
    <path d="M 66.376477 283.693263 
L 74.045482 286.192138 
L 84.270822 286.430667 
L 104.721502 283.352548 
L 145.622862 289.639725 
L 227.425582 289.038596 
L 391.031023 284.502011 
" clip-path="url(#p165fa84a6a)" style="fill: none; stroke: #3b0f70; stroke-width: 1.5; stroke-linecap: round"/>
   </g>
   <g id="line2d_18">
    <path d="M 66.376477 258.938407 
L 74.045482 265.863481 
L 84.270822 264.681942 
L 104.721502 259.965714 
L 145.622862 267.513492 
L 227.425582 262.071988 
L 391.031023 263.09947 
" clip-path="url(#p165fa84a6a)" style="fill: none; stroke: #8c2981; stroke-width: 1.5; stroke-linecap: round"/>
   </g>
   <g id="line2d_19">
    <path d="M 66.376477 195.731588 
L 74.045482 208.212209 
L 84.270822 202.657372 
L 104.721502 194.817353 
L 145.622862 194.962097 
L 227.425582 197.942288 
L 391.031023 193.534856 
" clip-path="url(#p165fa84a6a)" style="fill: none; stroke: #de4968; stroke-width: 1.5; stroke-linecap: round"/>
   </g>
   <g id="line2d_20">
    <path d="M 66.376477 47.719725 
L 74.045482 94.667224 
L 84.270822 57.946757 
L 104.721502 66.471838 
L 145.622862 88.678914 
L 227.425582 84.725407 
L 391.031023 101.662168 
" clip-path="url(#p165fa84a6a)" style="fill: none; stroke: #fe9f6d; stroke-width: 1.5; stroke-linecap: round"/>
   </g>
   <g id="line2d_21"/>
   <g id="line2d_22"/>
   <g id="line2d_23"/>
   <g id="line2d_24"/>
   <g id="text_20">
    <path d="M 126.925755 288.71804 
L 128.517991 288.962792 
L 129.363108 283.464866 
L 127.576922 283.545993 
L 127.713422 282.657986 
L 129.490342 282.575434 
L 130.464834 282.725229 
L 129.483217 289.111162 
L 131.075453 289.355914 
L 130.949398 290.175969 
L 126.799699 289.538096 
L 126.925755 288.71804 
z
M 135.738579 286.82722 
Q 135.082225 286.726328 134.628598 287.116626 
Q 134.176753 287.505618 134.056632 288.287064 
Q 133.937224 289.063878 134.25067 289.575249 
Q 134.565897 290.085313 135.22225 290.186205 
Q 135.878604 290.287097 136.330924 289.895017 
Q 136.783482 289.501392 136.90289 288.724578 
Q 137.02301 287.943132 136.708853 287.436394 
Q 136.394932 286.928111 135.738579 286.82722 
z
M 138.143463 284.068382 
L 138.006962 284.956389 
Q 137.665992 284.726921 137.306263 284.578355 
Q 136.946771 284.428245 136.579213 284.371745 
Q 135.613988 284.223375 135.004169 284.796756 
Q 134.395894 285.370374 134.120814 286.676557 
Q 134.469547 286.300171 134.933301 286.142233 
Q 135.3986 285.984533 135.914416 286.063823 
Q 137.000102 286.230709 137.528835 286.987008 
Q 138.057805 287.741762 137.883559 288.875323 
Q 137.712874 289.985718 136.953255 290.556623 
Q 136.193873 291.125984 135.103554 290.958385 
Q 133.852622 290.766098 133.338819 289.70699 
Q 132.825253 288.646338 133.104901 286.82708 
Q 133.367457 285.119017 134.334451 284.227458 
Q 135.301444 283.3359 136.66666 283.545755 
Q 137.034217 283.602254 137.396795 283.732288 
Q 137.759373 283.862322 138.143463 284.068382 
z
" clip-path="url(#p165fa84a6a)" style="fill: #3b0f70; stroke: #ffffff; stroke-width: 5"/>
    <path d="M 126.925755 288.71804 
L 128.517991 288.962792 
L 129.363108 283.464866 
L 127.576922 283.545993 
L 127.713422 282.657986 
L 129.490342 282.575434 
L 130.464834 282.725229 
L 129.483217 289.111162 
L 131.075453 289.355914 
L 130.949398 290.175969 
L 126.799699 289.538096 
L 126.925755 288.71804 
z
M 135.738579 286.82722 
Q 135.082225 286.726328 134.628598 287.116626 
Q 134.176753 287.505618 134.056632 288.287064 
Q 133.937224 289.063878 134.25067 289.575249 
Q 134.565897 290.085313 135.22225 290.186205 
Q 135.878604 290.287097 136.330924 289.895017 
Q 136.783482 289.501392 136.90289 288.724578 
Q 137.02301 287.943132 136.708853 287.436394 
Q 136.394932 286.928111 135.738579 286.82722 
z
M 138.143463 284.068382 
L 138.006962 284.956389 
Q 137.665992 284.726921 137.306263 284.578355 
Q 136.946771 284.428245 136.579213 284.371745 
Q 135.613988 284.223375 135.004169 284.796756 
Q 134.395894 285.370374 134.120814 286.676557 
Q 134.469547 286.300171 134.933301 286.142233 
Q 135.3986 285.984533 135.914416 286.063823 
Q 137.000102 286.230709 137.528835 286.987008 
Q 138.057805 287.741762 137.883559 288.875323 
Q 137.712874 289.985718 136.953255 290.556623 
Q 136.193873 291.125984 135.103554 290.958385 
Q 133.852622 290.766098 133.338819 289.70699 
Q 132.825253 288.646338 133.104901 286.82708 
Q 133.367457 285.119017 134.334451 284.227458 
Q 135.301444 283.3359 136.66666 283.545755 
Q 137.034217 283.602254 137.396795 283.732288 
Q 137.759373 283.862322 138.143463 284.068382 
z
" clip-path="url(#p165fa84a6a)" style="fill: #3b0f70"/>
   </g>
   <g id="text_21">
    <path d="M 194.185564 263.108644 
Q 194.901875 263.212892 195.329713 263.66518 
Q 195.759007 264.115805 195.805675 264.81738 
Q 195.877234 265.893127 195.175988 266.53327 
Q 194.474639 267.171854 193.110466 267.262599 
Q 192.653664 267.292985 192.162783 267.234813 
Q 191.671901 267.176642 191.143824 267.030119 
L 191.080666 266.080654 
Q 191.505006 266.292018 191.99952 266.381268 
Q 192.495593 266.470413 193.027231 266.435049 
Q 193.95175 266.37355 194.412348 265.976478 
Q 194.872947 265.579406 194.826589 264.882509 
Q 194.783758 264.238619 194.309131 263.90689 
Q 193.8344 263.573602 193.031487 263.627012 
L 192.183361 263.683429 
L 192.129537 262.87428 
L 193.016639 262.81527 
Q 193.741599 262.767045 194.107396 262.451445 
Q 194.473193 262.135845 194.436895 261.590176 
Q 194.399664 261.030476 193.982193 260.757583 
Q 193.566177 260.483027 192.825626 260.532288 
Q 192.420272 260.559253 191.963144 260.67892 
Q 191.505913 260.797028 190.963127 261.017917 
L 190.904843 260.141728 
Q 191.455732 259.948488 191.94009 259.837971 
Q 192.424447 259.727454 192.857864 259.698623 
Q 193.978825 259.624057 194.664422 260.090518 
Q 195.351475 260.555316 195.409136 261.42215 
Q 195.449375 262.027063 195.130955 262.466354 
Q 194.812535 262.905645 194.185564 263.108644 
z
M 198.605353 265.923057 
L 202.039951 265.694588 
L 202.095019 266.522446 
L 197.4771 266.829629 
L 197.422031 266.001771 
Q 197.943152 265.384572 198.844845 264.344305 
Q 199.747993 263.302375 199.977007 263.002138 
Q 200.41414 262.440635 200.576752 262.060254 
Q 200.740922 261.679768 200.717277 261.324304 
Q 200.678697 260.744335 200.247516 260.406584 
Q 199.816232 260.067274 199.162988 260.110728 
Q 198.699949 260.141529 198.196143 260.336336 
Q 197.693896 260.531038 197.131029 260.89733 
L 197.064863 259.902654 
Q 197.642996 259.624605 198.150954 259.468672 
Q 198.66047 259.312634 199.08921 259.284115 
Q 200.219525 259.208926 200.929123 259.730165 
Q 201.638618 260.249845 201.701465 261.194632 
Q 201.731333 261.643639 201.589712 262.057076 
Q 201.449546 262.46885 201.041513 263.044075 
Q 200.929345 263.194039 200.321006 263.912563 
Q 199.714227 264.630983 198.605353 265.923057 
z
" clip-path="url(#p165fa84a6a)" style="fill: #8c2981; stroke: #ffffff; stroke-width: 5"/>
    <path d="M 194.185564 263.108644 
Q 194.901875 263.212892 195.329713 263.66518 
Q 195.759007 264.115805 195.805675 264.81738 
Q 195.877234 265.893127 195.175988 266.53327 
Q 194.474639 267.171854 193.110466 267.262599 
Q 192.653664 267.292985 192.162783 267.234813 
Q 191.671901 267.176642 191.143824 267.030119 
L 191.080666 266.080654 
Q 191.505006 266.292018 191.99952 266.381268 
Q 192.495593 266.470413 193.027231 266.435049 
Q 193.95175 266.37355 194.412348 265.976478 
Q 194.872947 265.579406 194.826589 264.882509 
Q 194.783758 264.238619 194.309131 263.90689 
Q 193.8344 263.573602 193.031487 263.627012 
L 192.183361 263.683429 
L 192.129537 262.87428 
L 193.016639 262.81527 
Q 193.741599 262.767045 194.107396 262.451445 
Q 194.473193 262.135845 194.436895 261.590176 
Q 194.399664 261.030476 193.982193 260.757583 
Q 193.566177 260.483027 192.825626 260.532288 
Q 192.420272 260.559253 191.963144 260.67892 
Q 191.505913 260.797028 190.963127 261.017917 
L 190.904843 260.141728 
Q 191.455732 259.948488 191.94009 259.837971 
Q 192.424447 259.727454 192.857864 259.698623 
Q 193.978825 259.624057 194.664422 260.090518 
Q 195.351475 260.555316 195.409136 261.42215 
Q 195.449375 262.027063 195.130955 262.466354 
Q 194.812535 262.905645 194.185564 263.108644 
z
M 198.605353 265.923057 
L 202.039951 265.694588 
L 202.095019 266.522446 
L 197.4771 266.829629 
L 197.422031 266.001771 
Q 197.943152 265.384572 198.844845 264.344305 
Q 199.747993 263.302375 199.977007 263.002138 
Q 200.41414 262.440635 200.576752 262.060254 
Q 200.740922 261.679768 200.717277 261.324304 
Q 200.678697 260.744335 200.247516 260.406584 
Q 199.816232 260.067274 199.162988 260.110728 
Q 198.699949 260.141529 198.196143 260.336336 
Q 197.693896 260.531038 197.131029 260.89733 
L 197.064863 259.902654 
Q 197.642996 259.624605 198.150954 259.468672 
Q 198.66047 259.312634 199.08921 259.284115 
Q 200.219525 259.208926 200.929123 259.730165 
Q 201.638618 260.249845 201.701465 261.194632 
Q 201.731333 261.643639 201.589712 262.057076 
Q 201.449546 262.46885 201.041513 263.044075 
Q 200.929345 263.194039 200.321006 263.912563 
Q 199.714227 264.630983 198.605353 265.923057 
z
" clip-path="url(#p165fa84a6a)" style="fill: #8c2981"/>
   </g>
   <g id="text_22">
    <path d="M 257.750303 195.84677 
Q 257.086482 195.864653 256.709805 196.329652 
Q 256.334648 196.793048 256.355939 197.583387 
Q 256.377104 198.369039 256.776792 198.81625 
Q 257.178 199.261858 257.841822 199.243975 
Q 258.505643 199.226092 258.880716 198.759572 
Q 259.255747 198.29149 259.234582 197.505838 
Q 259.213291 196.715499 258.813729 196.272974 
Q 258.414125 195.828887 257.750303 195.84677 
z
M 259.624134 192.70298 
L 259.648329 193.601092 
Q 259.271876 193.43617 258.891406 193.354199 
Q 258.510893 193.270665 258.139153 193.28068 
Q 257.162945 193.306978 256.665263 193.98 
Q 256.169144 194.652979 256.131625 195.987286 
Q 256.407576 195.554698 256.835692 195.31652 
Q 257.26537 195.0783 257.787056 195.064246 
Q 258.885095 195.034666 259.540331 195.684443 
Q 260.195525 196.332659 260.22641 197.479118 
Q 260.256663 198.602148 259.611146 199.299472 
Q 258.965586 199.995234 257.862861 200.024941 
Q 256.597695 200.059024 255.903099 199.108635 
Q 255.208461 198.156683 255.158894 196.316726 
Q 255.112356 194.589227 255.904684 193.539385 
Q 256.697012 192.489542 258.077761 192.452345 
Q 258.449501 192.442331 258.829467 192.505559 
Q 259.209433 192.568787 259.624134 192.70298 
z
M 264.523789 193.269677 
L 262.138883 197.227525 
L 264.628604 197.160453 
L 264.523789 193.269677 
z
M 264.241366 192.417599 
L 265.481541 192.384189 
L 265.609499 197.134029 
L 266.649746 197.106005 
L 266.671837 197.92602 
L 265.631589 197.954044 
L 265.677875 199.67217 
L 264.69698 199.698595 
L 264.650695 197.980468 
L 261.361264 198.069084 
L 261.335638 197.117866 
L 264.241366 192.417599 
z
" clip-path="url(#p165fa84a6a)" style="fill: #de4968; stroke: #ffffff; stroke-width: 5"/>
    <path d="M 257.750303 195.84677 
Q 257.086482 195.864653 256.709805 196.329652 
Q 256.334648 196.793048 256.355939 197.583387 
Q 256.377104 198.369039 256.776792 198.81625 
Q 257.178 199.261858 257.841822 199.243975 
Q 258.505643 199.226092 258.880716 198.759572 
Q 259.255747 198.29149 259.234582 197.505838 
Q 259.213291 196.715499 258.813729 196.272974 
Q 258.414125 195.828887 257.750303 195.84677 
z
M 259.624134 192.70298 
L 259.648329 193.601092 
Q 259.271876 193.43617 258.891406 193.354199 
Q 258.510893 193.270665 258.139153 193.28068 
Q 257.162945 193.306978 256.665263 193.98 
Q 256.169144 194.652979 256.131625 195.987286 
Q 256.407576 195.554698 256.835692 195.31652 
Q 257.26537 195.0783 257.787056 195.064246 
Q 258.885095 195.034666 259.540331 195.684443 
Q 260.195525 196.332659 260.22641 197.479118 
Q 260.256663 198.602148 259.611146 199.299472 
Q 258.965586 199.995234 257.862861 200.024941 
Q 256.597695 200.059024 255.903099 199.108635 
Q 255.208461 198.156683 255.158894 196.316726 
Q 255.112356 194.589227 255.904684 193.539385 
Q 256.697012 192.489542 258.077761 192.452345 
Q 258.449501 192.442331 258.829467 192.505559 
Q 259.209433 192.568787 259.624134 192.70298 
z
M 264.523789 193.269677 
L 262.138883 197.227525 
L 264.628604 197.160453 
L 264.523789 193.269677 
z
M 264.241366 192.417599 
L 265.481541 192.384189 
L 265.609499 197.134029 
L 266.649746 197.106005 
L 266.671837 197.92602 
L 265.631589 197.954044 
L 265.677875 199.67217 
L 264.69698 199.698595 
L 264.650695 197.980468 
L 261.361264 198.069084 
L 261.335638 197.117866 
L 264.241366 192.417599 
z
" clip-path="url(#p165fa84a6a)" style="fill: #de4968"/>
   </g>
   <g id="text_23">
    <path d="M 316.668459 95.904007 
L 318.270833 96.069888 
L 318.843613 90.536957 
L 317.063606 90.706128 
L 317.15612 89.812467 
L 318.926802 89.64233 
L 319.907498 89.743854 
L 319.242204 96.170447 
L 320.844579 96.336328 
L 320.759144 97.161605 
L 316.583024 96.729284 
L 316.668459 95.904007 
z
M 323.671464 96.628972 
L 327.095353 96.98342 
L 327.009919 97.808697 
L 322.406396 97.332131 
L 322.49183 96.506854 
Q 323.109638 95.986455 324.173958 95.113283 
Q 325.239993 94.238718 325.516392 93.981437 
Q 326.042017 93.501761 326.266491 93.154279 
Q 326.492519 92.806957 326.529203 92.452601 
Q 326.589055 91.87444 326.221059 91.468766 
Q 325.853225 91.061537 325.202017 90.994123 
Q 324.740421 90.946338 324.210965 91.053325 
Q 323.683063 91.160473 323.066453 91.426519 
L 323.169103 90.434943 
Q 323.785868 90.258451 324.312856 90.19048 
Q 324.841398 90.122669 325.268801 90.166915 
Q 326.395592 90.283563 327.007045 90.91708 
Q 327.61866 91.549043 327.521158 92.490885 
Q 327.474821 92.938493 327.265458 93.322099 
Q 327.057809 93.704311 326.558551 94.202424 
Q 326.422683 94.331306 325.701809 94.936858 
Q 324.982489 95.542571 323.671464 96.628972 
z
M 331.523734 94.794972 
Q 330.824346 94.722571 330.384589 95.055621 
Q 329.946386 95.388832 329.87865 96.043148 
Q 329.810753 96.699018 330.171405 97.114928 
Q 330.533612 97.530999 331.233 97.603401 
Q 331.932387 97.675803 332.37386 97.34136 
Q 332.817047 97.005523 332.884461 96.354315 
Q 332.952197 95.7 332.589991 95.283928 
Q 332.229338 94.868018 331.523734 94.794972 
z
M 330.586157 94.276925 
Q 329.971243 94.056183 329.663169 93.587594 
Q 329.356811 93.117612 329.421168 92.495934 
Q 329.511107 91.62714 330.181967 91.186062 
Q 330.854381 90.745145 331.931437 90.856644 
Q 333.014711 90.968787 333.579436 91.537775 
Q 334.14416 92.106763 334.054221 92.975557 
Q 333.989864 93.597235 333.592172 93.994332 
Q 333.196196 94.390036 332.553767 94.480616 
Q 333.245424 94.718728 333.590313 95.241395 
Q 333.936916 95.762668 333.865158 96.455839 
Q 333.755911 97.511137 333.054071 98.0087 
Q 332.352391 98.504708 331.152553 98.380498 
Q 329.954269 98.25645 329.367522 97.627061 
Q 328.78249 96.996278 328.891736 95.940981 
Q 328.963495 95.24781 329.411085 94.808753 
Q 329.860389 94.368302 330.586157 94.276925 
z
M 330.387548 92.690227 
Q 330.329305 93.252845 330.647892 93.604708 
Q 330.968032 93.956733 331.603698 94.022538 
Q 332.236255 94.088022 332.624827 93.809365 
Q 333.014953 93.530869 333.073196 92.96825 
Q 333.1316 92.404078 332.806797 92.051571 
Q 332.483548 91.699225 331.850991 91.633741 
Q 331.215325 91.567936 330.829862 91.846915 
Q 330.445953 92.126054 330.387548 92.690227 
z
" clip-path="url(#p165fa84a6a)" style="fill: #fe9f6d; stroke: #ffffff; stroke-width: 5"/>
    <path d="M 316.668459 95.904007 
L 318.270833 96.069888 
L 318.843613 90.536957 
L 317.063606 90.706128 
L 317.15612 89.812467 
L 318.926802 89.64233 
L 319.907498 89.743854 
L 319.242204 96.170447 
L 320.844579 96.336328 
L 320.759144 97.161605 
L 316.583024 96.729284 
L 316.668459 95.904007 
z
M 323.671464 96.628972 
L 327.095353 96.98342 
L 327.009919 97.808697 
L 322.406396 97.332131 
L 322.49183 96.506854 
Q 323.109638 95.986455 324.173958 95.113283 
Q 325.239993 94.238718 325.516392 93.981437 
Q 326.042017 93.501761 326.266491 93.154279 
Q 326.492519 92.806957 326.529203 92.452601 
Q 326.589055 91.87444 326.221059 91.468766 
Q 325.853225 91.061537 325.202017 90.994123 
Q 324.740421 90.946338 324.210965 91.053325 
Q 323.683063 91.160473 323.066453 91.426519 
L 323.169103 90.434943 
Q 323.785868 90.258451 324.312856 90.19048 
Q 324.841398 90.122669 325.268801 90.166915 
Q 326.395592 90.283563 327.007045 90.91708 
Q 327.61866 91.549043 327.521158 92.490885 
Q 327.474821 92.938493 327.265458 93.322099 
Q 327.057809 93.704311 326.558551 94.202424 
Q 326.422683 94.331306 325.701809 94.936858 
Q 324.982489 95.542571 323.671464 96.628972 
z
M 331.523734 94.794972 
Q 330.824346 94.722571 330.384589 95.055621 
Q 329.946386 95.388832 329.87865 96.043148 
Q 329.810753 96.699018 330.171405 97.114928 
Q 330.533612 97.530999 331.233 97.603401 
Q 331.932387 97.675803 332.37386 97.34136 
Q 332.817047 97.005523 332.884461 96.354315 
Q 332.952197 95.7 332.589991 95.283928 
Q 332.229338 94.868018 331.523734 94.794972 
z
M 330.586157 94.276925 
Q 329.971243 94.056183 329.663169 93.587594 
Q 329.356811 93.117612 329.421168 92.495934 
Q 329.511107 91.62714 330.181967 91.186062 
Q 330.854381 90.745145 331.931437 90.856644 
Q 333.014711 90.968787 333.579436 91.537775 
Q 334.14416 92.106763 334.054221 92.975557 
Q 333.989864 93.597235 333.592172 93.994332 
Q 333.196196 94.390036 332.553767 94.480616 
Q 333.245424 94.718728 333.590313 95.241395 
Q 333.936916 95.762668 333.865158 96.455839 
Q 333.755911 97.511137 333.054071 98.0087 
Q 332.352391 98.504708 331.152553 98.380498 
Q 329.954269 98.25645 329.367522 97.627061 
Q 328.78249 96.996278 328.891736 95.940981 
Q 328.963495 95.24781 329.411085 94.808753 
Q 329.860389 94.368302 330.586157 94.276925 
z
M 330.387548 92.690227 
Q 330.329305 93.252845 330.647892 93.604708 
Q 330.968032 93.956733 331.603698 94.022538 
Q 332.236255 94.088022 332.624827 93.809365 
Q 333.014953 93.530869 333.073196 92.96825 
Q 333.1316 92.404078 332.806797 92.051571 
Q 332.483548 91.699225 331.850991 91.633741 
Q 331.215325 91.567936 330.829862 91.846915 
Q 330.445953 92.126054 330.387548 92.690227 
z
" clip-path="url(#p165fa84a6a)" style="fill: #fe9f6d"/>
   </g>
   <g id="patch_3">
    <path d="M 50.14375 301.735725 
L 50.14375 35.623725 
" style="fill: none; stroke: #cccccc; stroke-width: 0.8; stroke-linejoin: miter; stroke-linecap: square"/>
   </g>
   <g id="patch_4">
    <path d="M 407.26375 301.735725 
L 407.26375 35.623725 
" style="fill: none; stroke: #cccccc; stroke-width: 0.8; stroke-linejoin: miter; stroke-linecap: square"/>
   </g>
   <g id="patch_5">
    <path d="M 50.14375 301.735725 
L 407.26375 301.735725 
" style="fill: none; stroke: #cccccc; stroke-width: 0.8; stroke-linejoin: miter; stroke-linecap: square"/>
   </g>
   <g id="patch_6">
    <path d="M 50.14375 35.623725 
L 407.26375 35.623725 
" style="fill: none; stroke: #cccccc; stroke-width: 0.8; stroke-linejoin: miter; stroke-linecap: square"/>
   </g>
   <g id="text_24">
    <!-- Block Size = 4K, Read-Write Type = Sequential Write-only -->
    <g style="fill: #262626; opacity: 0.75" transform="translate(84.608438 30.882918) scale(0.1 -0.1)">
     <defs>
      <path id="DejaVuSans-42" d="M 1259 2228 
L 1259 519 
L 2272 519 
Q 2781 519 3026 730 
Q 3272 941 3272 1375 
Q 3272 1813 3026 2020 
Q 2781 2228 2272 2228 
L 1259 2228 
z
M 1259 4147 
L 1259 2741 
L 2194 2741 
Q 2656 2741 2882 2914 
Q 3109 3088 3109 3444 
Q 3109 3797 2882 3972 
Q 2656 4147 2194 4147 
L 1259 4147 
z
M 628 4666 
L 2241 4666 
Q 2963 4666 3353 4366 
Q 3744 4066 3744 3513 
Q 3744 3084 3544 2831 
Q 3344 2578 2956 2516 
Q 3422 2416 3680 2098 
Q 3938 1781 3938 1306 
Q 3938 681 3513 340 
Q 3088 0 2303 0 
L 628 0 
L 628 4666 
z
" transform="scale(0.015625)"/>
      <path id="DejaVuSans-6c" d="M 603 4863 
L 1178 4863 
L 1178 0 
L 603 0 
L 603 4863 
z
" transform="scale(0.015625)"/>
      <path id="DejaVuSans-6f" d="M 1959 3097 
Q 1497 3097 1228 2736 
Q 959 2375 959 1747 
Q 959 1119 1226 758 
Q 1494 397 1959 397 
Q 2419 397 2687 759 
Q 2956 1122 2956 1747 
Q 2956 2369 2687 2733 
Q 2419 3097 1959 3097 
z
M 1959 3584 
Q 2709 3584 3137 3096 
Q 3566 2609 3566 1747 
Q 3566 888 3137 398 
Q 2709 -91 1959 -91 
Q 1206 -91 779 398 
Q 353 888 353 1747 
Q 353 2609 779 3096 
Q 1206 3584 1959 3584 
z
" transform="scale(0.015625)"/>
      <path id="DejaVuSans-6b" d="M 581 4863 
L 1159 4863 
L 1159 1991 
L 2875 3500 
L 3609 3500 
L 1753 1863 
L 3688 0 
L 2938 0 
L 1159 1709 
L 1159 0 
L 581 0 
L 581 4863 
z
" transform="scale(0.015625)"/>
      <path id="DejaVuSans-53" d="M 3425 4513 
L 3425 3897 
Q 3066 4069 2747 4153 
Q 2428 4238 2131 4238 
Q 1616 4238 1336 4038 
Q 1056 3838 1056 3469 
Q 1056 3159 1242 3001 
Q 1428 2844 1947 2747 
L 2328 2669 
Q 3034 2534 3370 2195 
Q 3706 1856 3706 1288 
Q 3706 609 3251 259 
Q 2797 -91 1919 -91 
Q 1588 -91 1214 -16 
Q 841 59 441 206 
L 441 856 
Q 825 641 1194 531 
Q 1563 422 1919 422 
Q 2459 422 2753 634 
Q 3047 847 3047 1241 
Q 3047 1584 2836 1778 
Q 2625 1972 2144 2069 
L 1759 2144 
Q 1053 2284 737 2584 
Q 422 2884 422 3419 
Q 422 4038 858 4394 
Q 1294 4750 2059 4750 
Q 2388 4750 2728 4690 
Q 3069 4631 3425 4513 
z
" transform="scale(0.015625)"/>
      <path id="DejaVuSans-69" d="M 603 3500 
L 1178 3500 
L 1178 0 
L 603 0 
L 603 3500 
z
M 603 4863 
L 1178 4863 
L 1178 4134 
L 603 4134 
L 603 4863 
z
" transform="scale(0.015625)"/>
      <path id="DejaVuSans-7a" d="M 353 3500 
L 3084 3500 
L 3084 2975 
L 922 459 
L 3084 459 
L 3084 0 
L 275 0 
L 275 525 
L 2438 3041 
L 353 3041 
L 353 3500 
z
" transform="scale(0.015625)"/>
      <path id="DejaVuSans-3d" d="M 678 2906 
L 4684 2906 
L 4684 2381 
L 678 2381 
L 678 2906 
z
M 678 1631 
L 4684 1631 
L 4684 1100 
L 678 1100 
L 678 1631 
z
" transform="scale(0.015625)"/>
      <path id="DejaVuSans-4b" d="M 628 4666 
L 1259 4666 
L 1259 2694 
L 3353 4666 
L 4166 4666 
L 1850 2491 
L 4331 0 
L 3500 0 
L 1259 2247 
L 1259 0 
L 628 0 
L 628 4666 
z
" transform="scale(0.015625)"/>
      <path id="DejaVuSans-2c" d="M 750 794 
L 1409 794 
L 1409 256 
L 897 -744 
L 494 -744 
L 750 256 
L 750 794 
z
" transform="scale(0.015625)"/>
      <path id="DejaVuSans-52" d="M 2841 2188 
Q 3044 2119 3236 1894 
Q 3428 1669 3622 1275 
L 4263 0 
L 3584 0 
L 2988 1197 
Q 2756 1666 2539 1819 
Q 2322 1972 1947 1972 
L 1259 1972 
L 1259 0 
L 628 0 
L 628 4666 
L 2053 4666 
Q 2853 4666 3247 4331 
Q 3641 3997 3641 3322 
Q 3641 2881 3436 2590 
Q 3231 2300 2841 2188 
z
M 1259 4147 
L 1259 2491 
L 2053 2491 
Q 2509 2491 2742 2702 
Q 2975 2913 2975 3322 
Q 2975 3731 2742 3939 
Q 2509 4147 2053 4147 
L 1259 4147 
z
" transform="scale(0.015625)"/>
      <path id="DejaVuSans-64" d="M 2906 2969 
L 2906 4863 
L 3481 4863 
L 3481 0 
L 2906 0 
L 2906 525 
Q 2725 213 2448 61 
Q 2172 -91 1784 -91 
Q 1150 -91 751 415 
Q 353 922 353 1747 
Q 353 2572 751 3078 
Q 1150 3584 1784 3584 
Q 2172 3584 2448 3432 
Q 2725 3281 2906 2969 
z
M 947 1747 
Q 947 1113 1208 752 
Q 1469 391 1925 391 
Q 2381 391 2643 752 
Q 2906 1113 2906 1747 
Q 2906 2381 2643 2742 
Q 2381 3103 1925 3103 
Q 1469 3103 1208 2742 
Q 947 2381 947 1747 
z
" transform="scale(0.015625)"/>
      <path id="DejaVuSans-2d" d="M 313 2009 
L 1997 2009 
L 1997 1497 
L 313 1497 
L 313 2009 
z
" transform="scale(0.015625)"/>
      <path id="DejaVuSans-57" d="M 213 4666 
L 850 4666 
L 1831 722 
L 2809 4666 
L 3519 4666 
L 4500 722 
L 5478 4666 
L 6119 4666 
L 4947 0 
L 4153 0 
L 3169 4050 
L 2175 0 
L 1381 0 
L 213 4666 
z
" transform="scale(0.015625)"/>
      <path id="DejaVuSans-72" d="M 2631 2963 
Q 2534 3019 2420 3045 
Q 2306 3072 2169 3072 
Q 1681 3072 1420 2755 
Q 1159 2438 1159 1844 
L 1159 0 
L 581 0 
L 581 3500 
L 1159 3500 
L 1159 2956 
Q 1341 3275 1631 3429 
Q 1922 3584 2338 3584 
Q 2397 3584 2469 3576 
Q 2541 3569 2628 3553 
L 2631 2963 
z
" transform="scale(0.015625)"/>
      <path id="DejaVuSans-54" d="M -19 4666 
L 3928 4666 
L 3928 4134 
L 2272 4134 
L 2272 0 
L 1638 0 
L 1638 4134 
L -19 4134 
L -19 4666 
z
" transform="scale(0.015625)"/>
      <path id="DejaVuSans-71" d="M 947 1747 
Q 947 1113 1208 752 
Q 1469 391 1925 391 
Q 2381 391 2643 752 
Q 2906 1113 2906 1747 
Q 2906 2381 2643 2742 
Q 2381 3103 1925 3103 
Q 1469 3103 1208 2742 
Q 947 2381 947 1747 
z
M 2906 525 
Q 2725 213 2448 61 
Q 2172 -91 1784 -91 
Q 1150 -91 751 415 
Q 353 922 353 1747 
Q 353 2572 751 3078 
Q 1150 3584 1784 3584 
Q 2172 3584 2448 3432 
Q 2725 3281 2906 2969 
L 2906 3500 
L 3481 3500 
L 3481 -1331 
L 2906 -1331 
L 2906 525 
z
" transform="scale(0.015625)"/>
      <path id="DejaVuSans-75" d="M 544 1381 
L 544 3500 
L 1119 3500 
L 1119 1403 
Q 1119 906 1312 657 
Q 1506 409 1894 409 
Q 2359 409 2629 706 
Q 2900 1003 2900 1516 
L 2900 3500 
L 3475 3500 
L 3475 0 
L 2900 0 
L 2900 538 
Q 2691 219 2414 64 
Q 2138 -91 1772 -91 
Q 1169 -91 856 284 
Q 544 659 544 1381 
z
M 1991 3584 
L 1991 3584 
z
" transform="scale(0.015625)"/>
     </defs>
     <use xlink:href="#DejaVuSans-42"/>
     <use xlink:href="#DejaVuSans-6c" transform="translate(68.603516 0)"/>
     <use xlink:href="#DejaVuSans-6f" transform="translate(96.386719 0)"/>
     <use xlink:href="#DejaVuSans-63" transform="translate(157.568359 0)"/>
     <use xlink:href="#DejaVuSans-6b" transform="translate(212.548828 0)"/>
     <use xlink:href="#DejaVuSans-20" transform="translate(270.458984 0)"/>
     <use xlink:href="#DejaVuSans-53" transform="translate(302.246094 0)"/>
     <use xlink:href="#DejaVuSans-69" transform="translate(365.722656 0)"/>
     <use xlink:href="#DejaVuSans-7a" transform="translate(393.505859 0)"/>
     <use xlink:href="#DejaVuSans-65" transform="translate(445.996094 0)"/>
     <use xlink:href="#DejaVuSans-20" transform="translate(507.519531 0)"/>
     <use xlink:href="#DejaVuSans-3d" transform="translate(539.306641 0)"/>
     <use xlink:href="#DejaVuSans-20" transform="translate(623.095703 0)"/>
     <use xlink:href="#DejaVuSans-34" transform="translate(654.882812 0)"/>
     <use xlink:href="#DejaVuSans-4b" transform="translate(718.505859 0)"/>
     <use xlink:href="#DejaVuSans-2c" transform="translate(784.082031 0)"/>
     <use xlink:href="#DejaVuSans-20" transform="translate(815.869141 0)"/>
     <use xlink:href="#DejaVuSans-52" transform="translate(847.65625 0)"/>
     <use xlink:href="#DejaVuSans-65" transform="translate(912.638672 0)"/>
     <use xlink:href="#DejaVuSans-61" transform="translate(974.162109 0)"/>
     <use xlink:href="#DejaVuSans-64" transform="translate(1035.441406 0)"/>
     <use xlink:href="#DejaVuSans-2d" transform="translate(1098.917969 0)"/>
     <use xlink:href="#DejaVuSans-57" transform="translate(1131.001953 0)"/>
     <use xlink:href="#DejaVuSans-72" transform="translate(1225.378906 0)"/>
     <use xlink:href="#DejaVuSans-69" transform="translate(1266.492188 0)"/>
     <use xlink:href="#DejaVuSans-74" transform="translate(1294.275391 0)"/>
     <use xlink:href="#DejaVuSans-65" transform="translate(1333.484375 0)"/>
     <use xlink:href="#DejaVuSans-20" transform="translate(1395.007812 0)"/>
     <use xlink:href="#DejaVuSans-54" transform="translate(1426.794922 0)"/>
     <use xlink:href="#DejaVuSans-79" transform="translate(1472.253906 0)"/>
     <use xlink:href="#DejaVuSans-70" transform="translate(1531.433594 0)"/>
     <use xlink:href="#DejaVuSans-65" transform="translate(1594.910156 0)"/>
     <use xlink:href="#DejaVuSans-20" transform="translate(1656.433594 0)"/>
     <use xlink:href="#DejaVuSans-3d" transform="translate(1688.220703 0)"/>
     <use xlink:href="#DejaVuSans-20" transform="translate(1772.009766 0)"/>
     <use xlink:href="#DejaVuSans-53" transform="translate(1803.796875 0)"/>
     <use xlink:href="#DejaVuSans-65" transform="translate(1867.273438 0)"/>
     <use xlink:href="#DejaVuSans-71" transform="translate(1928.796875 0)"/>
     <use xlink:href="#DejaVuSans-75" transform="translate(1992.273438 0)"/>
     <use xlink:href="#DejaVuSans-65" transform="translate(2055.652344 0)"/>
     <use xlink:href="#DejaVuSans-6e" transform="translate(2117.175781 0)"/>
     <use xlink:href="#DejaVuSans-74" transform="translate(2180.554688 0)"/>
     <use xlink:href="#DejaVuSans-69" transform="translate(2219.763672 0)"/>
     <use xlink:href="#DejaVuSans-61" transform="translate(2247.546875 0)"/>
     <use xlink:href="#DejaVuSans-6c" transform="translate(2308.826172 0)"/>
     <use xlink:href="#DejaVuSans-20" transform="translate(2336.609375 0)"/>
     <use xlink:href="#DejaVuSans-57" transform="translate(2368.396484 0)"/>
     <use xlink:href="#DejaVuSans-72" transform="translate(2462.773438 0)"/>
     <use xlink:href="#DejaVuSans-69" transform="translate(2503.886719 0)"/>
     <use xlink:href="#DejaVuSans-74" transform="translate(2531.669922 0)"/>
     <use xlink:href="#DejaVuSans-65" transform="translate(2570.878906 0)"/>
     <use xlink:href="#DejaVuSans-2d" transform="translate(2632.402344 0)"/>
     <use xlink:href="#DejaVuSans-6f" transform="translate(2670.361328 0)"/>
     <use xlink:href="#DejaVuSans-6e" transform="translate(2731.542969 0)"/>
     <use xlink:href="#DejaVuSans-6c" transform="translate(2794.921875 0)"/>
     <use xlink:href="#DejaVuSans-79" transform="translate(2822.705078 0)"/>
    </g>
   </g>
   <g id="text_25">
    <!-- Mean Latency vs IO Depth -->
    <g style="fill: #262626" transform="translate(140.139063 16.318125) scale(0.12 -0.12)">
     <defs>
      <path id="DejaVuSans-Bold-4d" d="M 588 4666 
L 2119 4666 
L 3181 2169 
L 4250 4666 
L 5778 4666 
L 5778 0 
L 4641 0 
L 4641 3413 
L 3566 897 
L 2803 897 
L 1728 3413 
L 1728 0 
L 588 0 
L 588 4666 
z
" transform="scale(0.015625)"/>
      <path id="DejaVuSans-Bold-65" d="M 4031 1759 
L 4031 1441 
L 1416 1441 
Q 1456 1047 1700 850 
Q 1944 653 2381 653 
Q 2734 653 3104 758 
Q 3475 863 3866 1075 
L 3866 213 
Q 3469 63 3072 -14 
Q 2675 -91 2278 -91 
Q 1328 -91 801 392 
Q 275 875 275 1747 
Q 275 2603 792 3093 
Q 1309 3584 2216 3584 
Q 3041 3584 3536 3087 
Q 4031 2591 4031 1759 
z
M 2881 2131 
Q 2881 2450 2695 2645 
Q 2509 2841 2209 2841 
Q 1884 2841 1681 2658 
Q 1478 2475 1428 2131 
L 2881 2131 
z
" transform="scale(0.015625)"/>
      <path id="DejaVuSans-Bold-61" d="M 2106 1575 
Q 1756 1575 1579 1456 
Q 1403 1338 1403 1106 
Q 1403 894 1545 773 
Q 1688 653 1941 653 
Q 2256 653 2472 879 
Q 2688 1106 2688 1447 
L 2688 1575 
L 2106 1575 
z
M 3816 1997 
L 3816 0 
L 2688 0 
L 2688 519 
Q 2463 200 2181 54 
Q 1900 -91 1497 -91 
Q 953 -91 614 226 
Q 275 544 275 1050 
Q 275 1666 698 1953 
Q 1122 2241 2028 2241 
L 2688 2241 
L 2688 2328 
Q 2688 2594 2478 2717 
Q 2269 2841 1825 2841 
Q 1466 2841 1156 2769 
Q 847 2697 581 2553 
L 581 3406 
Q 941 3494 1303 3539 
Q 1666 3584 2028 3584 
Q 2975 3584 3395 3211 
Q 3816 2838 3816 1997 
z
" transform="scale(0.015625)"/>
      <path id="DejaVuSans-Bold-6e" d="M 4056 2131 
L 4056 0 
L 2931 0 
L 2931 347 
L 2931 1631 
Q 2931 2084 2911 2256 
Q 2891 2428 2841 2509 
Q 2775 2619 2662 2680 
Q 2550 2741 2406 2741 
Q 2056 2741 1856 2470 
Q 1656 2200 1656 1722 
L 1656 0 
L 538 0 
L 538 3500 
L 1656 3500 
L 1656 2988 
Q 1909 3294 2193 3439 
Q 2478 3584 2822 3584 
Q 3428 3584 3742 3212 
Q 4056 2841 4056 2131 
z
" transform="scale(0.015625)"/>
      <path id="DejaVuSans-Bold-20" transform="scale(0.015625)"/>
      <path id="DejaVuSans-Bold-4c" d="M 588 4666 
L 1791 4666 
L 1791 909 
L 3903 909 
L 3903 0 
L 588 0 
L 588 4666 
z
" transform="scale(0.015625)"/>
      <path id="DejaVuSans-Bold-74" d="M 1759 4494 
L 1759 3500 
L 2913 3500 
L 2913 2700 
L 1759 2700 
L 1759 1216 
Q 1759 972 1856 886 
Q 1953 800 2241 800 
L 2816 800 
L 2816 0 
L 1856 0 
Q 1194 0 917 276 
Q 641 553 641 1216 
L 641 2700 
L 84 2700 
L 84 3500 
L 641 3500 
L 641 4494 
L 1759 4494 
z
" transform="scale(0.015625)"/>
      <path id="DejaVuSans-Bold-63" d="M 3366 3391 
L 3366 2478 
Q 3138 2634 2908 2709 
Q 2678 2784 2431 2784 
Q 1963 2784 1702 2511 
Q 1441 2238 1441 1747 
Q 1441 1256 1702 982 
Q 1963 709 2431 709 
Q 2694 709 2930 787 
Q 3166 866 3366 1019 
L 3366 103 
Q 3103 6 2833 -42 
Q 2563 -91 2291 -91 
Q 1344 -91 809 395 
Q 275 881 275 1747 
Q 275 2613 809 3098 
Q 1344 3584 2291 3584 
Q 2566 3584 2833 3536 
Q 3100 3488 3366 3391 
z
" transform="scale(0.015625)"/>
      <path id="DejaVuSans-Bold-79" d="M 78 3500 
L 1197 3500 
L 2138 1125 
L 2938 3500 
L 4056 3500 
L 2584 -331 
Q 2363 -916 2067 -1148 
Q 1772 -1381 1288 -1381 
L 641 -1381 
L 641 -647 
L 991 -647 
Q 1275 -647 1404 -556 
Q 1534 -466 1606 -231 
L 1638 -134 
L 78 3500 
z
" transform="scale(0.015625)"/>
      <path id="DejaVuSans-Bold-76" d="M 97 3500 
L 1216 3500 
L 2088 1081 
L 2956 3500 
L 4078 3500 
L 2700 0 
L 1472 0 
L 97 3500 
z
" transform="scale(0.015625)"/>
      <path id="DejaVuSans-Bold-73" d="M 3272 3391 
L 3272 2541 
Q 2913 2691 2578 2766 
Q 2244 2841 1947 2841 
Q 1628 2841 1473 2761 
Q 1319 2681 1319 2516 
Q 1319 2381 1436 2309 
Q 1553 2238 1856 2203 
L 2053 2175 
Q 2913 2066 3209 1816 
Q 3506 1566 3506 1031 
Q 3506 472 3093 190 
Q 2681 -91 1863 -91 
Q 1516 -91 1145 -36 
Q 775 19 384 128 
L 384 978 
Q 719 816 1070 734 
Q 1422 653 1784 653 
Q 2113 653 2278 743 
Q 2444 834 2444 1013 
Q 2444 1163 2330 1236 
Q 2216 1309 1875 1350 
L 1678 1375 
Q 931 1469 631 1722 
Q 331 1975 331 2491 
Q 331 3047 712 3315 
Q 1094 3584 1881 3584 
Q 2191 3584 2531 3537 
Q 2872 3491 3272 3391 
z
" transform="scale(0.015625)"/>
      <path id="DejaVuSans-Bold-49" d="M 588 4666 
L 1791 4666 
L 1791 0 
L 588 0 
L 588 4666 
z
" transform="scale(0.015625)"/>
      <path id="DejaVuSans-Bold-4f" d="M 2719 3878 
Q 2169 3878 1866 3472 
Q 1563 3066 1563 2328 
Q 1563 1594 1866 1187 
Q 2169 781 2719 781 
Q 3272 781 3575 1187 
Q 3878 1594 3878 2328 
Q 3878 3066 3575 3472 
Q 3272 3878 2719 3878 
z
M 2719 4750 
Q 3844 4750 4481 4106 
Q 5119 3463 5119 2328 
Q 5119 1197 4481 553 
Q 3844 -91 2719 -91 
Q 1597 -91 958 553 
Q 319 1197 319 2328 
Q 319 3463 958 4106 
Q 1597 4750 2719 4750 
z
" transform="scale(0.015625)"/>
      <path id="DejaVuSans-Bold-44" d="M 1791 3756 
L 1791 909 
L 2222 909 
Q 2959 909 3348 1275 
Q 3738 1641 3738 2338 
Q 3738 3031 3350 3393 
Q 2963 3756 2222 3756 
L 1791 3756 
z
M 588 4666 
L 1856 4666 
Q 2919 4666 3439 4514 
Q 3959 4363 4331 4000 
Q 4659 3684 4818 3271 
Q 4978 2859 4978 2338 
Q 4978 1809 4818 1395 
Q 4659 981 4331 666 
Q 3956 303 3431 151 
Q 2906 0 1856 0 
L 588 0 
L 588 4666 
z
" transform="scale(0.015625)"/>
      <path id="DejaVuSans-Bold-70" d="M 1656 506 
L 1656 -1331 
L 538 -1331 
L 538 3500 
L 1656 3500 
L 1656 2988 
Q 1888 3294 2169 3439 
Q 2450 3584 2816 3584 
Q 3463 3584 3878 3070 
Q 4294 2556 4294 1747 
Q 4294 938 3878 423 
Q 3463 -91 2816 -91 
Q 2450 -91 2169 54 
Q 1888 200 1656 506 
z
M 2400 2772 
Q 2041 2772 1848 2508 
Q 1656 2244 1656 1747 
Q 1656 1250 1848 986 
Q 2041 722 2400 722 
Q 2759 722 2948 984 
Q 3138 1247 3138 1747 
Q 3138 2247 2948 2509 
Q 2759 2772 2400 2772 
z
" transform="scale(0.015625)"/>
      <path id="DejaVuSans-Bold-68" d="M 4056 2131 
L 4056 0 
L 2931 0 
L 2931 347 
L 2931 1625 
Q 2931 2084 2911 2256 
Q 2891 2428 2841 2509 
Q 2775 2619 2662 2680 
Q 2550 2741 2406 2741 
Q 2056 2741 1856 2470 
Q 1656 2200 1656 1722 
L 1656 0 
L 538 0 
L 538 4863 
L 1656 4863 
L 1656 2988 
Q 1909 3294 2193 3439 
Q 2478 3584 2822 3584 
Q 3428 3584 3742 3212 
Q 4056 2841 4056 2131 
z
" transform="scale(0.015625)"/>
     </defs>
     <use xlink:href="#DejaVuSans-Bold-4d"/>
     <use xlink:href="#DejaVuSans-Bold-65" transform="translate(99.511719 0)"/>
     <use xlink:href="#DejaVuSans-Bold-61" transform="translate(167.333984 0)"/>
     <use xlink:href="#DejaVuSans-Bold-6e" transform="translate(234.814453 0)"/>
     <use xlink:href="#DejaVuSans-Bold-20" transform="translate(306.005859 0)"/>
     <use xlink:href="#DejaVuSans-Bold-4c" transform="translate(340.820312 0)"/>
     <use xlink:href="#DejaVuSans-Bold-61" transform="translate(404.541016 0)"/>
     <use xlink:href="#DejaVuSans-Bold-74" transform="translate(472.021484 0)"/>
     <use xlink:href="#DejaVuSans-Bold-65" transform="translate(519.824219 0)"/>
     <use xlink:href="#DejaVuSans-Bold-6e" transform="translate(587.646484 0)"/>
     <use xlink:href="#DejaVuSans-Bold-63" transform="translate(658.837891 0)"/>
     <use xlink:href="#DejaVuSans-Bold-79" transform="translate(718.115234 0)"/>
     <use xlink:href="#DejaVuSans-Bold-20" transform="translate(783.300781 0)"/>
     <use xlink:href="#DejaVuSans-Bold-76" transform="translate(818.115234 0)"/>
     <use xlink:href="#DejaVuSans-Bold-73" transform="translate(883.300781 0)"/>
     <use xlink:href="#DejaVuSans-Bold-20" transform="translate(942.822266 0)"/>
     <use xlink:href="#DejaVuSans-Bold-49" transform="translate(977.636719 0)"/>
     <use xlink:href="#DejaVuSans-Bold-4f" transform="translate(1014.84375 0)"/>
     <use xlink:href="#DejaVuSans-Bold-20" transform="translate(1099.853516 0)"/>
     <use xlink:href="#DejaVuSans-Bold-44" transform="translate(1134.667969 0)"/>
     <use xlink:href="#DejaVuSans-Bold-65" transform="translate(1217.675781 0)"/>
     <use xlink:href="#DejaVuSans-Bold-70" transform="translate(1285.498047 0)"/>
     <use xlink:href="#DejaVuSans-Bold-74" transform="translate(1357.080078 0)"/>
     <use xlink:href="#DejaVuSans-Bold-68" transform="translate(1404.882812 0)"/>
    </g>
   </g>
   <g id="legend_1">
    <g id="text_26">
     <!-- Number of Jobs -->
     <g style="fill: #262626" transform="translate(410.75 142.08285) scale(0.1 -0.1)">
      <defs>
       <path id="DejaVuSans-4e" d="M 628 4666 
L 1478 4666 
L 3547 763 
L 3547 4666 
L 4159 4666 
L 4159 0 
L 3309 0 
L 1241 3903 
L 1241 0 
L 628 0 
L 628 4666 
z
" transform="scale(0.015625)"/>
       <path id="DejaVuSans-6d" d="M 3328 2828 
Q 3544 3216 3844 3400 
Q 4144 3584 4550 3584 
Q 5097 3584 5394 3201 
Q 5691 2819 5691 2113 
L 5691 0 
L 5113 0 
L 5113 2094 
Q 5113 2597 4934 2840 
Q 4756 3084 4391 3084 
Q 3944 3084 3684 2787 
Q 3425 2491 3425 1978 
L 3425 0 
L 2847 0 
L 2847 2094 
Q 2847 2600 2669 2842 
Q 2491 3084 2119 3084 
Q 1678 3084 1418 2786 
Q 1159 2488 1159 1978 
L 1159 0 
L 581 0 
L 581 3500 
L 1159 3500 
L 1159 2956 
Q 1356 3278 1631 3431 
Q 1906 3584 2284 3584 
Q 2666 3584 2933 3390 
Q 3200 3197 3328 2828 
z
" transform="scale(0.015625)"/>
       <path id="DejaVuSans-62" d="M 3116 1747 
Q 3116 2381 2855 2742 
Q 2594 3103 2138 3103 
Q 1681 3103 1420 2742 
Q 1159 2381 1159 1747 
Q 1159 1113 1420 752 
Q 1681 391 2138 391 
Q 2594 391 2855 752 
Q 3116 1113 3116 1747 
z
M 1159 2969 
Q 1341 3281 1617 3432 
Q 1894 3584 2278 3584 
Q 2916 3584 3314 3078 
Q 3713 2572 3713 1747 
Q 3713 922 3314 415 
Q 2916 -91 2278 -91 
Q 1894 -91 1617 61 
Q 1341 213 1159 525 
L 1159 0 
L 581 0 
L 581 4863 
L 1159 4863 
L 1159 2969 
z
" transform="scale(0.015625)"/>
       <path id="DejaVuSans-66" d="M 2375 4863 
L 2375 4384 
L 1825 4384 
Q 1516 4384 1395 4259 
Q 1275 4134 1275 3809 
L 1275 3500 
L 2222 3500 
L 2222 3053 
L 1275 3053 
L 1275 0 
L 697 0 
L 697 3053 
L 147 3053 
L 147 3500 
L 697 3500 
L 697 3744 
Q 697 4328 969 4595 
Q 1241 4863 1831 4863 
L 2375 4863 
z
" transform="scale(0.015625)"/>
       <path id="DejaVuSans-4a" d="M 628 4666 
L 1259 4666 
L 1259 325 
Q 1259 -519 939 -900 
Q 619 -1281 -91 -1281 
L -331 -1281 
L -331 -750 
L -134 -750 
Q 284 -750 456 -515 
Q 628 -281 628 325 
L 628 4666 
z
" transform="scale(0.015625)"/>
      </defs>
      <use xlink:href="#DejaVuSans-4e"/>
      <use xlink:href="#DejaVuSans-75" transform="translate(74.804688 0)"/>
      <use xlink:href="#DejaVuSans-6d" transform="translate(138.183594 0)"/>
      <use xlink:href="#DejaVuSans-62" transform="translate(235.595703 0)"/>
      <use xlink:href="#DejaVuSans-65" transform="translate(299.072266 0)"/>
      <use xlink:href="#DejaVuSans-72" transform="translate(360.595703 0)"/>
      <use xlink:href="#DejaVuSans-20" transform="translate(401.708984 0)"/>
      <use xlink:href="#DejaVuSans-6f" transform="translate(433.496094 0)"/>
      <use xlink:href="#DejaVuSans-66" transform="translate(494.677734 0)"/>
      <use xlink:href="#DejaVuSans-20" transform="translate(529.882812 0)"/>
      <use xlink:href="#DejaVuSans-4a" transform="translate(561.669922 0)"/>
      <use xlink:href="#DejaVuSans-6f" transform="translate(591.162109 0)"/>
      <use xlink:href="#DejaVuSans-62" transform="translate(652.34375 0)"/>
      <use xlink:href="#DejaVuSans-73" transform="translate(715.820312 0)"/>
     </g>
    </g>
    <g id="line2d_25">
     <path d="M 425.603125 153.260975 
L 435.603125 153.260975 
L 445.603125 153.260975 
" style="fill: none; stroke: #3b0f70; stroke-width: 1.5; stroke-linecap: round"/>
    </g>
    <g id="text_27">
     <!-- 16 -->
     <g style="fill: #262626" transform="translate(453.603125 156.760975) scale(0.1 -0.1)">
      <use xlink:href="#DejaVuSans-31"/>
      <use xlink:href="#DejaVuSans-36" transform="translate(63.623047 0)"/>
     </g>
    </g>
    <g id="line2d_26">
     <path d="M 425.603125 167.9391 
L 435.603125 167.9391 
L 445.603125 167.9391 
" style="fill: none; stroke: #8c2981; stroke-width: 1.5; stroke-linecap: round"/>
    </g>
    <g id="text_28">
     <!-- 32 -->
     <g style="fill: #262626" transform="translate(453.603125 171.4391) scale(0.1 -0.1)">
      <use xlink:href="#DejaVuSans-33"/>
      <use xlink:href="#DejaVuSans-32" transform="translate(63.623047 0)"/>
     </g>
    </g>
    <g id="line2d_27">
     <path d="M 425.603125 182.617225 
L 435.603125 182.617225 
L 445.603125 182.617225 
" style="fill: none; stroke: #de4968; stroke-width: 1.5; stroke-linecap: round"/>
    </g>
    <g id="text_29">
     <!-- 64 -->
     <g style="fill: #262626" transform="translate(453.603125 186.117225) scale(0.1 -0.1)">
      <use xlink:href="#DejaVuSans-36"/>
      <use xlink:href="#DejaVuSans-34" transform="translate(63.623047 0)"/>
     </g>
    </g>
    <g id="line2d_28">
     <path d="M 425.603125 197.29535 
L 435.603125 197.29535 
L 445.603125 197.29535 
" style="fill: none; stroke: #fe9f6d; stroke-width: 1.5; stroke-linecap: round"/>
    </g>
    <g id="text_30">
     <!-- 128 -->
     <g style="fill: #262626" transform="translate(453.603125 200.79535) scale(0.1 -0.1)">
      <use xlink:href="#DejaVuSans-31"/>
      <use xlink:href="#DejaVuSans-32" transform="translate(63.623047 0)"/>
      <use xlink:href="#DejaVuSans-38" transform="translate(127.246094 0)"/>
     </g>
    </g>
   </g>
  </g>
 </g>
 <defs>
  <clipPath id="p165fa84a6a">
   <rect x="50.14375" y="35.623725" width="357.12" height="266.112"/>
  </clipPath>
 </defs>
</svg>
