<?xml version="1.0" encoding="utf-8" standalone="no"?>
<!DOCTYPE svg PUBLIC "-//W3C//DTD SVG 1.1//EN"
  "http://www.w3.org/Graphics/SVG/1.1/DTD/svg11.dtd">
<svg xmlns:xlink="http://www.w3.org/1999/xlink" width="482.840625pt" height="339.291975pt" viewBox="0 0 482.840625 339.291975" xmlns="http://www.w3.org/2000/svg" version="1.1">
 <metadata>
  <rdf:RDF xmlns:dc="http://purl.org/dc/elements/1.1/" xmlns:cc="http://creativecommons.org/ns#" xmlns:rdf="http://www.w3.org/1999/02/22-rdf-syntax-ns#">
   <cc:Work>
    <dc:type rdf:resource="http://purl.org/dc/dcmitype/StillImage"/>
    <dc:date>2025-09-11T11:47:33.701516</dc:date>
    <dc:format>image/svg+xml</dc:format>
    <dc:creator>
     <cc:Agent>
      <dc:title>Matplotlib v3.10.6, https://matplotlib.org/</dc:title>
     </cc:Agent>
    </dc:creator>
   </cc:Work>
  </rdf:RDF>
 </metadata>
 <defs>
  <style type="text/css">*{stroke-linejoin: round; stroke-linecap: butt}</style>
 </defs>
 <g id="figure_1">
  <g id="patch_1">
   <path d="M 0 339.291975 
L 482.840625 339.291975 
L 482.840625 0 
L 0 0 
z
" style="fill: #ffffff"/>
  </g>
  <g id="axes_1">
   <g id="patch_2">
    <path d="M 34.240625 301.735725 
L 391.360625 301.735725 
L 391.360625 35.623725 
L 34.240625 35.623725 
z
" style="fill: #ffffff"/>
   </g>
   <g id="matplotlib.axis_1">
    <g id="xtick_1">
     <g id="line2d_1">
      <path d="M 375.127898 301.735725 
L 375.127898 35.623725 
" clip-path="url(#pf8a35592a5)" style="fill: none; stroke: #cccccc; stroke-width: 0.8; stroke-linecap: round"/>
     </g>
     <g id="text_1">
      <!-- 128 -->
      <g style="fill: #262626" transform="translate(365.584148 316.334162) scale(0.1 -0.1)">
       <defs>
        <path id="DejaVuSans-31" d="M 794 531 
L 1825 531 
L 1825 4091 
L 703 3866 
L 703 4441 
L 1819 4666 
L 2450 4666 
L 2450 531 
L 3481 531 
L 3481 0 
L 794 0 
L 794 531 
z
" transform="scale(0.015625)"/>
        <path id="DejaVuSans-32" d="M 1228 531 
L 3431 531 
L 3431 0 
L 469 0 
L 469 531 
Q 828 903 1448 1529 
Q 2069 2156 2228 2338 
Q 2531 2678 2651 2914 
Q 2772 3150 2772 3378 
Q 2772 3750 2511 3984 
Q 2250 4219 1831 4219 
Q 1534 4219 1204 4116 
Q 875 4013 500 3803 
L 500 4441 
Q 881 4594 1212 4672 
Q 1544 4750 1819 4750 
Q 2544 4750 2975 4387 
Q 3406 4025 3406 3419 
Q 3406 3131 3298 2873 
Q 3191 2616 2906 2266 
Q 2828 2175 2409 1742 
Q 1991 1309 1228 531 
z
" transform="scale(0.015625)"/>
        <path id="DejaVuSans-38" d="M 2034 2216 
Q 1584 2216 1326 1975 
Q 1069 1734 1069 1313 
Q 1069 891 1326 650 
Q 1584 409 2034 409 
Q 2484 409 2743 651 
Q 3003 894 3003 1313 
Q 3003 1734 2745 1975 
Q 2488 2216 2034 2216 
z
M 1403 2484 
Q 997 2584 770 2862 
Q 544 3141 544 3541 
Q 544 4100 942 4425 
Q 1341 4750 2034 4750 
Q 2731 4750 3128 4425 
Q 3525 4100 3525 3541 
Q 3525 3141 3298 2862 
Q 3072 2584 2669 2484 
Q 3125 2378 3379 2068 
Q 3634 1759 3634 1313 
Q 3634 634 3220 271 
Q 2806 -91 2034 -91 
Q 1263 -91 848 271 
Q 434 634 434 1313 
Q 434 1759 690 2068 
Q 947 2378 1403 2484 
z
M 1172 3481 
Q 1172 3119 1398 2916 
Q 1625 2713 2034 2713 
Q 2441 2713 2670 2916 
Q 2900 3119 2900 3481 
Q 2900 3844 2670 4047 
Q 2441 4250 2034 4250 
Q 1625 4250 1398 4047 
Q 1172 3844 1172 3481 
z
" transform="scale(0.015625)"/>
       </defs>
       <use xlink:href="#DejaVuSans-31"/>
       <use xlink:href="#DejaVuSans-32" transform="translate(63.623047 0)"/>
       <use xlink:href="#DejaVuSans-38" transform="translate(127.246094 0)"/>
      </g>
     </g>
    </g>
    <g id="xtick_2">
     <g id="line2d_2">
      <path d="M 189.611015 301.735725 
L 189.611015 35.623725 
" clip-path="url(#pf8a35592a5)" style="fill: none; stroke: #cccccc; stroke-width: 0.8; stroke-linecap: round"/>
     </g>
     <g id="text_2">
      <!-- 64 -->
      <g style="fill: #262626" transform="translate(183.248515 316.334162) scale(0.1 -0.1)">
       <defs>
        <path id="DejaVuSans-36" d="M 2113 2584 
Q 1688 2584 1439 2293 
Q 1191 2003 1191 1497 
Q 1191 994 1439 701 
Q 1688 409 2113 409 
Q 2538 409 2786 701 
Q 3034 994 3034 1497 
Q 3034 2003 2786 2293 
Q 2538 2584 2113 2584 
z
M 3366 4563 
L 3366 3988 
Q 3128 4100 2886 4159 
Q 2644 4219 2406 4219 
Q 1781 4219 1451 3797 
Q 1122 3375 1075 2522 
Q 1259 2794 1537 2939 
Q 1816 3084 2150 3084 
Q 2853 3084 3261 2657 
Q 3669 2231 3669 1497 
Q 3669 778 3244 343 
Q 2819 -91 2113 -91 
Q 1303 -91 875 529 
Q 447 1150 447 2328 
Q 447 3434 972 4092 
Q 1497 4750 2381 4750 
Q 2619 4750 2861 4703 
Q 3103 4656 3366 4563 
z
" transform="scale(0.015625)"/>
        <path id="DejaVuSans-34" d="M 2419 4116 
L 825 1625 
L 2419 1625 
L 2419 4116 
z
M 2253 4666 
L 3047 4666 
L 3047 1625 
L 3713 1625 
L 3713 1100 
L 3047 1100 
L 3047 0 
L 2419 0 
L 2419 1100 
L 313 1100 
L 313 1709 
L 2253 4666 
z
" transform="scale(0.015625)"/>
       </defs>
       <use xlink:href="#DejaVuSans-36"/>
       <use xlink:href="#DejaVuSans-34" transform="translate(63.623047 0)"/>
      </g>
     </g>
    </g>
    <g id="xtick_3">
     <g id="line2d_3">
      <path d="M 96.852573 301.735725 
L 96.852573 35.623725 
" clip-path="url(#pf8a35592a5)" style="fill: none; stroke: #cccccc; stroke-width: 0.8; stroke-linecap: round"/>
     </g>
     <g id="text_3">
      <!-- 32 -->
      <g style="fill: #262626" transform="translate(90.490073 316.334162) scale(0.1 -0.1)">
       <defs>
        <path id="DejaVuSans-33" d="M 2597 2516 
Q 3050 2419 3304 2112 
Q 3559 1806 3559 1356 
Q 3559 666 3084 287 
Q 2609 -91 1734 -91 
Q 1441 -91 1130 -33 
Q 819 25 488 141 
L 488 750 
Q 750 597 1062 519 
Q 1375 441 1716 441 
Q 2309 441 2620 675 
Q 2931 909 2931 1356 
Q 2931 1769 2642 2001 
Q 2353 2234 1838 2234 
L 1294 2234 
L 1294 2753 
L 1863 2753 
Q 2328 2753 2575 2939 
Q 2822 3125 2822 3475 
Q 2822 3834 2567 4026 
Q 2313 4219 1838 4219 
Q 1578 4219 1281 4162 
Q 984 4106 628 3988 
L 628 4550 
Q 988 4650 1302 4700 
Q 1616 4750 1894 4750 
Q 2613 4750 3031 4423 
Q 3450 4097 3450 3541 
Q 3450 3153 3228 2886 
Q 3006 2619 2597 2516 
z
" transform="scale(0.015625)"/>
       </defs>
       <use xlink:href="#DejaVuSans-33"/>
       <use xlink:href="#DejaVuSans-32" transform="translate(63.623047 0)"/>
      </g>
     </g>
    </g>
    <g id="xtick_4">
     <g id="line2d_4">
      <path d="M 50.473352 301.735725 
L 50.473352 35.623725 
" clip-path="url(#pf8a35592a5)" style="fill: none; stroke: #cccccc; stroke-width: 0.8; stroke-linecap: round"/>
     </g>
     <g id="text_4">
      <!-- 16 -->
      <g style="fill: #262626" transform="translate(44.110852 316.334162) scale(0.1 -0.1)">
       <use xlink:href="#DejaVuSans-31"/>
       <use xlink:href="#DejaVuSans-36" transform="translate(63.623047 0)"/>
      </g>
     </g>
    </g>
    <g id="text_5">
     <!-- Number of Jobs -->
     <g style="fill: #262626" transform="translate(174.40375 330.012287) scale(0.1 -0.1)">
      <defs>
       <path id="DejaVuSans-4e" d="M 628 4666 
L 1478 4666 
L 3547 763 
L 3547 4666 
L 4159 4666 
L 4159 0 
L 3309 0 
L 1241 3903 
L 1241 0 
L 628 0 
L 628 4666 
z
" transform="scale(0.015625)"/>
       <path id="DejaVuSans-75" d="M 544 1381 
L 544 3500 
L 1119 3500 
L 1119 1403 
Q 1119 906 1312 657 
Q 1506 409 1894 409 
Q 2359 409 2629 706 
Q 2900 1003 2900 1516 
L 2900 3500 
L 3475 3500 
L 3475 0 
L 2900 0 
L 2900 538 
Q 2691 219 2414 64 
Q 2138 -91 1772 -91 
Q 1169 -91 856 284 
Q 544 659 544 1381 
z
M 1991 3584 
L 1991 3584 
z
" transform="scale(0.015625)"/>
       <path id="DejaVuSans-6d" d="M 3328 2828 
Q 3544 3216 3844 3400 
Q 4144 3584 4550 3584 
Q 5097 3584 5394 3201 
Q 5691 2819 5691 2113 
L 5691 0 
L 5113 0 
L 5113 2094 
Q 5113 2597 4934 2840 
Q 4756 3084 4391 3084 
Q 3944 3084 3684 2787 
Q 3425 2491 3425 1978 
L 3425 0 
L 2847 0 
L 2847 2094 
Q 2847 2600 2669 2842 
Q 2491 3084 2119 3084 
Q 1678 3084 1418 2786 
Q 1159 2488 1159 1978 
L 1159 0 
L 581 0 
L 581 3500 
L 1159 3500 
L 1159 2956 
Q 1356 3278 1631 3431 
Q 1906 3584 2284 3584 
Q 2666 3584 2933 3390 
Q 3200 3197 3328 2828 
z
" transform="scale(0.015625)"/>
       <path id="DejaVuSans-62" d="M 3116 1747 
Q 3116 2381 2855 2742 
Q 2594 3103 2138 3103 
Q 1681 3103 1420 2742 
Q 1159 2381 1159 1747 
Q 1159 1113 1420 752 
Q 1681 391 2138 391 
Q 2594 391 2855 752 
Q 3116 1113 3116 1747 
z
M 1159 2969 
Q 1341 3281 1617 3432 
Q 1894 3584 2278 3584 
Q 2916 3584 3314 3078 
Q 3713 2572 3713 1747 
Q 3713 922 3314 415 
Q 2916 -91 2278 -91 
Q 1894 -91 1617 61 
Q 1341 213 1159 525 
L 1159 0 
L 581 0 
L 581 4863 
L 1159 4863 
L 1159 2969 
z
" transform="scale(0.015625)"/>
       <path id="DejaVuSans-65" d="M 3597 1894 
L 3597 1613 
L 953 1613 
Q 991 1019 1311 708 
Q 1631 397 2203 397 
Q 2534 397 2845 478 
Q 3156 559 3463 722 
L 3463 178 
Q 3153 47 2828 -22 
Q 2503 -91 2169 -91 
Q 1331 -91 842 396 
Q 353 884 353 1716 
Q 353 2575 817 3079 
Q 1281 3584 2069 3584 
Q 2775 3584 3186 3129 
Q 3597 2675 3597 1894 
z
M 3022 2063 
Q 3016 2534 2758 2815 
Q 2500 3097 2075 3097 
Q 1594 3097 1305 2825 
Q 1016 2553 972 2059 
L 3022 2063 
z
" transform="scale(0.015625)"/>
       <path id="DejaVuSans-72" d="M 2631 2963 
Q 2534 3019 2420 3045 
Q 2306 3072 2169 3072 
Q 1681 3072 1420 2755 
Q 1159 2438 1159 1844 
L 1159 0 
L 581 0 
L 581 3500 
L 1159 3500 
L 1159 2956 
Q 1341 3275 1631 3429 
Q 1922 3584 2338 3584 
Q 2397 3584 2469 3576 
Q 2541 3569 2628 3553 
L 2631 2963 
z
" transform="scale(0.015625)"/>
       <path id="DejaVuSans-20" transform="scale(0.015625)"/>
       <path id="DejaVuSans-6f" d="M 1959 3097 
Q 1497 3097 1228 2736 
Q 959 2375 959 1747 
Q 959 1119 1226 758 
Q 1494 397 1959 397 
Q 2419 397 2687 759 
Q 2956 1122 2956 1747 
Q 2956 2369 2687 2733 
Q 2419 3097 1959 3097 
z
M 1959 3584 
Q 2709 3584 3137 3096 
Q 3566 2609 3566 1747 
Q 3566 888 3137 398 
Q 2709 -91 1959 -91 
Q 1206 -91 779 398 
Q 353 888 353 1747 
Q 353 2609 779 3096 
Q 1206 3584 1959 3584 
z
" transform="scale(0.015625)"/>
       <path id="DejaVuSans-66" d="M 2375 4863 
L 2375 4384 
L 1825 4384 
Q 1516 4384 1395 4259 
Q 1275 4134 1275 3809 
L 1275 3500 
L 2222 3500 
L 2222 3053 
L 1275 3053 
L 1275 0 
L 697 0 
L 697 3053 
L 147 3053 
L 147 3500 
L 697 3500 
L 697 3744 
Q 697 4328 969 4595 
Q 1241 4863 1831 4863 
L 2375 4863 
z
" transform="scale(0.015625)"/>
       <path id="DejaVuSans-4a" d="M 628 4666 
L 1259 4666 
L 1259 325 
Q 1259 -519 939 -900 
Q 619 -1281 -91 -1281 
L -331 -1281 
L -331 -750 
L -134 -750 
Q 284 -750 456 -515 
Q 628 -281 628 325 
L 628 4666 
z
" transform="scale(0.015625)"/>
       <path id="DejaVuSans-73" d="M 2834 3397 
L 2834 2853 
Q 2591 2978 2328 3040 
Q 2066 3103 1784 3103 
Q 1356 3103 1142 2972 
Q 928 2841 928 2578 
Q 928 2378 1081 2264 
Q 1234 2150 1697 2047 
L 1894 2003 
Q 2506 1872 2764 1633 
Q 3022 1394 3022 966 
Q 3022 478 2636 193 
Q 2250 -91 1575 -91 
Q 1294 -91 989 -36 
Q 684 19 347 128 
L 347 722 
Q 666 556 975 473 
Q 1284 391 1588 391 
Q 1994 391 2212 530 
Q 2431 669 2431 922 
Q 2431 1156 2273 1281 
Q 2116 1406 1581 1522 
L 1381 1569 
Q 847 1681 609 1914 
Q 372 2147 372 2553 
Q 372 3047 722 3315 
Q 1072 3584 1716 3584 
Q 2034 3584 2315 3537 
Q 2597 3491 2834 3397 
z
" transform="scale(0.015625)"/>
      </defs>
      <use xlink:href="#DejaVuSans-4e"/>
      <use xlink:href="#DejaVuSans-75" transform="translate(74.804688 0)"/>
      <use xlink:href="#DejaVuSans-6d" transform="translate(138.183594 0)"/>
      <use xlink:href="#DejaVuSans-62" transform="translate(235.595703 0)"/>
      <use xlink:href="#DejaVuSans-65" transform="translate(299.072266 0)"/>
      <use xlink:href="#DejaVuSans-72" transform="translate(360.595703 0)"/>
      <use xlink:href="#DejaVuSans-20" transform="translate(401.708984 0)"/>
      <use xlink:href="#DejaVuSans-6f" transform="translate(433.496094 0)"/>
      <use xlink:href="#DejaVuSans-66" transform="translate(494.677734 0)"/>
      <use xlink:href="#DejaVuSans-20" transform="translate(529.882812 0)"/>
      <use xlink:href="#DejaVuSans-4a" transform="translate(561.669922 0)"/>
      <use xlink:href="#DejaVuSans-6f" transform="translate(591.162109 0)"/>
      <use xlink:href="#DejaVuSans-62" transform="translate(652.34375 0)"/>
      <use xlink:href="#DejaVuSans-73" transform="translate(715.820312 0)"/>
     </g>
    </g>
   </g>
   <g id="matplotlib.axis_2">
    <g id="ytick_1">
     <g id="line2d_5">
      <path d="M 34.240625 261.087048 
L 391.360625 261.087048 
" clip-path="url(#pf8a35592a5)" style="fill: none; stroke: #cccccc; stroke-width: 0.8; stroke-linecap: round"/>
     </g>
     <g id="text_6">
      <!-- 1 -->
      <g style="fill: #262626" transform="translate(20.878125 264.886267) scale(0.1 -0.1)">
       <use xlink:href="#DejaVuSans-31"/>
      </g>
     </g>
    </g>
    <g id="ytick_2">
     <g id="line2d_6">
      <path d="M 34.240625 205.842206 
L 391.360625 205.842206 
" clip-path="url(#pf8a35592a5)" style="fill: none; stroke: #cccccc; stroke-width: 0.8; stroke-linecap: round"/>
     </g>
     <g id="text_7">
      <!-- 2 -->
      <g style="fill: #262626" transform="translate(20.878125 209.641425) scale(0.1 -0.1)">
       <use xlink:href="#DejaVuSans-32"/>
      </g>
     </g>
    </g>
    <g id="ytick_3">
     <g id="line2d_7">
      <path d="M 34.240625 150.597364 
L 391.360625 150.597364 
" clip-path="url(#pf8a35592a5)" style="fill: none; stroke: #cccccc; stroke-width: 0.8; stroke-linecap: round"/>
     </g>
     <g id="text_8">
      <!-- 3 -->
      <g style="fill: #262626" transform="translate(20.878125 154.396583) scale(0.1 -0.1)">
       <use xlink:href="#DejaVuSans-33"/>
      </g>
     </g>
    </g>
    <g id="ytick_4">
     <g id="line2d_8">
      <path d="M 34.240625 95.352522 
L 391.360625 95.352522 
" clip-path="url(#pf8a35592a5)" style="fill: none; stroke: #cccccc; stroke-width: 0.8; stroke-linecap: round"/>
     </g>
     <g id="text_9">
      <!-- 4 -->
      <g style="fill: #262626" transform="translate(20.878125 99.15174) scale(0.1 -0.1)">
       <use xlink:href="#DejaVuSans-34"/>
      </g>
     </g>
    </g>
    <g id="ytick_5">
     <g id="line2d_9">
      <path d="M 34.240625 40.107679 
L 391.360625 40.107679 
" clip-path="url(#pf8a35592a5)" style="fill: none; stroke: #cccccc; stroke-width: 0.8; stroke-linecap: round"/>
     </g>
     <g id="text_10">
      <!-- 5 -->
      <g style="fill: #262626" transform="translate(20.878125 43.906898) scale(0.1 -0.1)">
       <defs>
        <path id="DejaVuSans-35" d="M 691 4666 
L 3169 4666 
L 3169 4134 
L 1269 4134 
L 1269 2991 
Q 1406 3038 1543 3061 
Q 1681 3084 1819 3084 
Q 2600 3084 3056 2656 
Q 3513 2228 3513 1497 
Q 3513 744 3044 326 
Q 2575 -91 1722 -91 
Q 1428 -91 1123 -41 
Q 819 9 494 109 
L 494 744 
Q 775 591 1075 516 
Q 1375 441 1709 441 
Q 2250 441 2565 725 
Q 2881 1009 2881 1497 
Q 2881 1984 2565 2268 
Q 2250 2553 1709 2553 
Q 1456 2553 1204 2497 
Q 953 2441 691 2322 
L 691 4666 
z
" transform="scale(0.015625)"/>
       </defs>
       <use xlink:href="#DejaVuSans-35"/>
      </g>
     </g>
    </g>
    <g id="text_11">
     <!-- Mean Latency (ns) -->
     <g style="fill: #262626" transform="translate(14.798438 214.92035) rotate(-90) scale(0.1 -0.1)">
      <defs>
       <path id="DejaVuSans-4d" d="M 628 4666 
L 1569 4666 
L 2759 1491 
L 3956 4666 
L 4897 4666 
L 4897 0 
L 4281 0 
L 4281 4097 
L 3078 897 
L 2444 897 
L 1241 4097 
L 1241 0 
L 628 0 
L 628 4666 
z
" transform="scale(0.015625)"/>
       <path id="DejaVuSans-61" d="M 2194 1759 
Q 1497 1759 1228 1600 
Q 959 1441 959 1056 
Q 959 750 1161 570 
Q 1363 391 1709 391 
Q 2188 391 2477 730 
Q 2766 1069 2766 1631 
L 2766 1759 
L 2194 1759 
z
M 3341 1997 
L 3341 0 
L 2766 0 
L 2766 531 
Q 2569 213 2275 61 
Q 1981 -91 1556 -91 
Q 1019 -91 701 211 
Q 384 513 384 1019 
Q 384 1609 779 1909 
Q 1175 2209 1959 2209 
L 2766 2209 
L 2766 2266 
Q 2766 2663 2505 2880 
Q 2244 3097 1772 3097 
Q 1472 3097 1187 3025 
Q 903 2953 641 2809 
L 641 3341 
Q 956 3463 1253 3523 
Q 1550 3584 1831 3584 
Q 2591 3584 2966 3190 
Q 3341 2797 3341 1997 
z
" transform="scale(0.015625)"/>
       <path id="DejaVuSans-6e" d="M 3513 2113 
L 3513 0 
L 2938 0 
L 2938 2094 
Q 2938 2591 2744 2837 
Q 2550 3084 2163 3084 
Q 1697 3084 1428 2787 
Q 1159 2491 1159 1978 
L 1159 0 
L 581 0 
L 581 3500 
L 1159 3500 
L 1159 2956 
Q 1366 3272 1645 3428 
Q 1925 3584 2291 3584 
Q 2894 3584 3203 3211 
Q 3513 2838 3513 2113 
z
" transform="scale(0.015625)"/>
       <path id="DejaVuSans-4c" d="M 628 4666 
L 1259 4666 
L 1259 531 
L 3531 531 
L 3531 0 
L 628 0 
L 628 4666 
z
" transform="scale(0.015625)"/>
       <path id="DejaVuSans-74" d="M 1172 4494 
L 1172 3500 
L 2356 3500 
L 2356 3053 
L 1172 3053 
L 1172 1153 
Q 1172 725 1289 603 
Q 1406 481 1766 481 
L 2356 481 
L 2356 0 
L 1766 0 
Q 1100 0 847 248 
Q 594 497 594 1153 
L 594 3053 
L 172 3053 
L 172 3500 
L 594 3500 
L 594 4494 
L 1172 4494 
z
" transform="scale(0.015625)"/>
       <path id="DejaVuSans-63" d="M 3122 3366 
L 3122 2828 
Q 2878 2963 2633 3030 
Q 2388 3097 2138 3097 
Q 1578 3097 1268 2742 
Q 959 2388 959 1747 
Q 959 1106 1268 751 
Q 1578 397 2138 397 
Q 2388 397 2633 464 
Q 2878 531 3122 666 
L 3122 134 
Q 2881 22 2623 -34 
Q 2366 -91 2075 -91 
Q 1284 -91 818 406 
Q 353 903 353 1747 
Q 353 2603 823 3093 
Q 1294 3584 2113 3584 
Q 2378 3584 2631 3529 
Q 2884 3475 3122 3366 
z
" transform="scale(0.015625)"/>
       <path id="DejaVuSans-79" d="M 2059 -325 
Q 1816 -950 1584 -1140 
Q 1353 -1331 966 -1331 
L 506 -1331 
L 506 -850 
L 844 -850 
Q 1081 -850 1212 -737 
Q 1344 -625 1503 -206 
L 1606 56 
L 191 3500 
L 800 3500 
L 1894 763 
L 2988 3500 
L 3597 3500 
L 2059 -325 
z
" transform="scale(0.015625)"/>
       <path id="DejaVuSans-28" d="M 1984 4856 
Q 1566 4138 1362 3434 
Q 1159 2731 1159 2009 
Q 1159 1288 1364 580 
Q 1569 -128 1984 -844 
L 1484 -844 
Q 1016 -109 783 600 
Q 550 1309 550 2009 
Q 550 2706 781 3412 
Q 1013 4119 1484 4856 
L 1984 4856 
z
" transform="scale(0.015625)"/>
       <path id="DejaVuSans-29" d="M 513 4856 
L 1013 4856 
Q 1481 4119 1714 3412 
Q 1947 2706 1947 2009 
Q 1947 1309 1714 600 
Q 1481 -109 1013 -844 
L 513 -844 
Q 928 -128 1133 580 
Q 1338 1288 1338 2009 
Q 1338 2731 1133 3434 
Q 928 4138 513 4856 
z
" transform="scale(0.015625)"/>
      </defs>
      <use xlink:href="#DejaVuSans-4d"/>
      <use xlink:href="#DejaVuSans-65" transform="translate(86.279297 0)"/>
      <use xlink:href="#DejaVuSans-61" transform="translate(147.802734 0)"/>
      <use xlink:href="#DejaVuSans-6e" transform="translate(209.082031 0)"/>
      <use xlink:href="#DejaVuSans-20" transform="translate(272.460938 0)"/>
      <use xlink:href="#DejaVuSans-4c" transform="translate(304.248047 0)"/>
      <use xlink:href="#DejaVuSans-61" transform="translate(359.960938 0)"/>
      <use xlink:href="#DejaVuSans-74" transform="translate(421.240234 0)"/>
      <use xlink:href="#DejaVuSans-65" transform="translate(460.449219 0)"/>
      <use xlink:href="#DejaVuSans-6e" transform="translate(521.972656 0)"/>
      <use xlink:href="#DejaVuSans-63" transform="translate(585.351562 0)"/>
      <use xlink:href="#DejaVuSans-79" transform="translate(640.332031 0)"/>
      <use xlink:href="#DejaVuSans-20" transform="translate(699.511719 0)"/>
      <use xlink:href="#DejaVuSans-28" transform="translate(731.298828 0)"/>
      <use xlink:href="#DejaVuSans-6e" transform="translate(770.3125 0)"/>
      <use xlink:href="#DejaVuSans-73" transform="translate(833.691406 0)"/>
      <use xlink:href="#DejaVuSans-29" transform="translate(885.791016 0)"/>
     </g>
    </g>
    <g id="text_12">
     <!-- 1e7 -->
     <g style="fill: #262626" transform="translate(34.240625 32.623725) scale(0.1 -0.1)">
      <defs>
       <path id="DejaVuSans-37" d="M 525 4666 
L 3525 4666 
L 3525 4397 
L 1831 0 
L 1172 0 
L 2766 4134 
L 525 4134 
L 525 4666 
z
" transform="scale(0.015625)"/>
      </defs>
      <use xlink:href="#DejaVuSans-31"/>
      <use xlink:href="#DejaVuSans-65" transform="translate(63.623047 0)"/>
      <use xlink:href="#DejaVuSans-37" transform="translate(125.146484 0)"/>
     </g>
    </g>
   </g>
   <g id="FillBetweenPolyCollection_1"/>
   <g id="FillBetweenPolyCollection_2"/>
   <g id="FillBetweenPolyCollection_3"/>
   <g id="FillBetweenPolyCollection_4"/>
   <g id="FillBetweenPolyCollection_5"/>
   <g id="FillBetweenPolyCollection_6"/>
   <g id="FillBetweenPolyCollection_7"/>
   <g id="line2d_10">
    <path d="M 50.473352 286.657713 
L 96.852573 257.620771 
L 189.611015 163.28905 
L 375.127898 57.155324 
" clip-path="url(#pf8a35592a5)" style="fill: none; stroke: #4c02a1; stroke-width: 1.5; stroke-linecap: round"/>
   </g>
   <g id="line2d_11">
    <path d="M 50.473352 289.639725 
L 96.852573 258.646436 
L 189.611015 212.784786 
L 375.127898 129.210133 
" clip-path="url(#pf8a35592a5)" style="fill: none; stroke: #7e03a8; stroke-width: 1.5; stroke-linecap: round"/>
   </g>
   <g id="line2d_12">
    <path d="M 50.473352 286.612294 
L 96.852573 252.932153 
L 189.611015 169.747031 
L 375.127898 47.719725 
" clip-path="url(#pf8a35592a5)" style="fill: none; stroke: #aa2395; stroke-width: 1.5; stroke-linecap: round"/>
   </g>
   <g id="line2d_13">
    <path d="M 50.473352 286.376474 
L 96.852573 256.819129 
L 189.611015 169.910356 
L 375.127898 128.265977 
" clip-path="url(#pf8a35592a5)" style="fill: none; stroke: #cc4778; stroke-width: 1.5; stroke-linecap: round"/>
   </g>
   <g id="line2d_14">
    <path d="M 50.473352 287.292806 
L 96.852573 255.082749 
L 189.611015 167.020791 
L 375.127898 128.588743 
" clip-path="url(#pf8a35592a5)" style="fill: none; stroke: #e66c5c; stroke-width: 1.5; stroke-linecap: round"/>
   </g>
   <g id="line2d_15">
    <path d="M 50.473352 286.878709 
L 96.852573 159.50534 
L 189.611015 175.126044 
L 375.127898 130.186334 
" clip-path="url(#pf8a35592a5)" style="fill: none; stroke: #f89540; stroke-width: 1.5; stroke-linecap: round"/>
   </g>
   <g id="line2d_16">
    <path d="M 50.473352 284.341343 
L 96.852573 232.543703 
L 189.611015 168.365292 
L 375.127898 131.525401 
" clip-path="url(#pf8a35592a5)" style="fill: none; stroke: #fdc527; stroke-width: 1.5; stroke-linecap: round"/>
   </g>
   <g id="line2d_17"/>
   <g id="line2d_18"/>
   <g id="line2d_19"/>
   <g id="line2d_20"/>
   <g id="line2d_21"/>
   <g id="line2d_22"/>
   <g id="line2d_23"/>
   <g id="text_13">
    <path d="M 91.651773 263.153551 
L 93.017184 262.298699 
L 90.065416 257.583991 
L 88.766047 258.812276 
L 88.289286 258.050771 
L 89.58071 256.827462 
L 90.416378 256.304269 
L 93.844907 261.780482 
L 95.210318 260.92563 
L 95.650596 261.628863 
L 92.092051 263.856785 
L 91.651773 263.153551 
z
" clip-path="url(#pf8a35592a5)" style="fill: #4c02a1; stroke: #ffffff; stroke-width: 5"/>
    <path d="M 91.651773 263.153551 
L 93.017184 262.298699 
L 90.065416 257.583991 
L 88.766047 258.812276 
L 88.289286 258.050771 
L 89.58071 256.827462 
L 90.416378 256.304269 
L 93.844907 261.780482 
L 95.210318 260.92563 
L 95.650596 261.628863 
L 92.092051 263.856785 
L 91.651773 263.153551 
z
" clip-path="url(#pf8a35592a5)" style="fill: #4c02a1"/>
   </g>
   <g id="text_14">
    <path d="M 131.357673 237.490257 
L 130.850076 242.083152 
L 133.08272 240.979288 
L 131.357673 237.490257 
z
M 130.744282 236.834854 
L 131.856402 236.285 
L 133.962331 240.54439 
L 134.895167 240.083177 
L 135.258736 240.818521 
L 134.3259 241.279734 
L 135.087663 242.820454 
L 134.208052 243.255352 
L 133.446289 241.714632 
L 130.49651 243.173062 
L 130.07477 242.320063 
L 130.744282 236.834854 
z
" clip-path="url(#pf8a35592a5)" style="fill: #7e03a8; stroke: #ffffff; stroke-width: 5"/>
    <path d="M 131.357673 237.490257 
L 130.850076 242.083152 
L 133.08272 240.979288 
L 131.357673 237.490257 
z
M 130.744282 236.834854 
L 131.856402 236.285 
L 133.962331 240.54439 
L 134.895167 240.083177 
L 135.258736 240.818521 
L 134.3259 241.279734 
L 135.087663 242.820454 
L 134.208052 243.255352 
L 133.446289 241.714632 
L 130.49651 243.173062 
L 130.07477 242.320063 
L 130.744282 236.834854 
z
" clip-path="url(#pf8a35592a5)" style="fill: #7e03a8"/>
   </g>
   <g id="text_15">
    <path d="M 172.152861 184.45893 
Q 171.629398 184.928368 171.58069 185.477855 
Q 171.533144 186.026299 171.972329 186.516028 
Q 172.412557 187.006919 172.962923 187.019162 
Q 173.514451 187.030361 174.037914 186.560923 
Q 174.561376 186.091485 174.610205 185.539791 
Q 174.659154 184.985891 174.222055 184.498489 
Q 173.78287 184.008761 173.231342 183.997562 
Q 172.680977 183.98532 172.152861 184.45893 
z
M 171.139274 184.805435 
Q 170.562675 185.112647 170.008609 185.026068 
Q 169.454663 184.937284 169.037385 184.471983 
Q 168.454239 183.821727 168.578175 183.028479 
Q 168.703273 182.234188 169.509406 181.511254 
Q 170.320191 180.784147 171.12104 180.748055 
Q 171.921888 180.711963 172.505034 181.36222 
Q 172.922312 181.82752 172.949305 182.388872 
Q 172.976419 182.948018 172.611949 183.48475 
Q 173.252969 183.132358 173.871825 183.227994 
Q 174.490801 183.321424 174.956066 183.840233 
Q 175.664395 184.63008 175.561489 185.484223 
Q 175.45754 186.337202 174.559511 187.142548 
Q 173.662645 187.946851 172.80226 187.958681 
Q 171.941995 187.968303 171.233665 187.178456 
Q 170.7684 186.659647 170.743845 186.033145 
Q 170.71941 185.404436 171.139274 184.805435 
z
M 169.830498 183.886652 
Q 170.208134 184.307749 170.682797 184.308127 
Q 171.158624 184.307461 171.634393 183.880795 
Q 172.107836 183.456214 172.162452 182.981183 
Q 172.218231 182.505108 171.840594 182.084012 
Q 171.461915 181.661752 170.982599 181.665547 
Q 170.504446 181.668299 170.031003 182.092879 
Q 169.555234 182.519546 169.502944 182.992491 
Q 169.451818 183.464392 169.830498 183.886652 
z
" clip-path="url(#pf8a35592a5)" style="fill: #aa2395; stroke: #ffffff; stroke-width: 5"/>
    <path d="M 172.152861 184.45893 
Q 171.629398 184.928368 171.58069 185.477855 
Q 171.533144 186.026299 171.972329 186.516028 
Q 172.412557 187.006919 172.962923 187.019162 
Q 173.514451 187.030361 174.037914 186.560923 
Q 174.561376 186.091485 174.610205 185.539791 
Q 174.659154 184.985891 174.222055 184.498489 
Q 173.78287 184.008761 173.231342 183.997562 
Q 172.680977 183.98532 172.152861 184.45893 
z
M 171.139274 184.805435 
Q 170.562675 185.112647 170.008609 185.026068 
Q 169.454663 184.937284 169.037385 184.471983 
Q 168.454239 183.821727 168.578175 183.028479 
Q 168.703273 182.234188 169.509406 181.511254 
Q 170.320191 180.784147 171.12104 180.748055 
Q 171.921888 180.711963 172.505034 181.36222 
Q 172.922312 181.82752 172.949305 182.388872 
Q 172.976419 182.948018 172.611949 183.48475 
Q 173.252969 183.132358 173.871825 183.227994 
Q 174.490801 183.321424 174.956066 183.840233 
Q 175.664395 184.63008 175.561489 185.484223 
Q 175.45754 186.337202 174.559511 187.142548 
Q 173.662645 187.946851 172.80226 187.958681 
Q 171.941995 187.968303 171.233665 187.178456 
Q 170.7684 186.659647 170.743845 186.033145 
Q 170.71941 185.404436 171.139274 184.805435 
z
M 169.830498 183.886652 
Q 170.208134 184.307749 170.682797 184.308127 
Q 171.158624 184.307461 171.634393 183.880795 
Q 172.107836 183.456214 172.162452 182.981183 
Q 172.218231 182.505108 171.840594 182.084012 
Q 171.461915 181.661752 170.982599 181.665547 
Q 170.504446 181.668299 170.031003 182.092879 
Q 169.555234 182.519546 169.502944 182.992491 
Q 169.451818 183.464392 169.830498 183.886652 
z
" clip-path="url(#pf8a35592a5)" style="fill: #aa2395"/>
   </g>
   <g id="text_16">
    <path d="M 208.225769 167.70947 
L 209.797591 167.356631 
L 208.579253 161.929195 
L 206.945698 162.656203 
L 206.748916 161.779581 
L 208.373324 161.054626 
L 209.335322 160.838679 
L 210.750441 167.142737 
L 212.322263 166.789899 
L 212.503987 167.59944 
L 208.407493 168.519011 
L 208.225769 167.70947 
z
M 215.741887 162.734629 
Q 215.093949 162.880077 214.813922 163.408939 
Q 214.535078 163.935935 214.708246 164.707363 
Q 214.880387 165.474217 215.358752 165.83604 
Q 215.838298 166.195996 216.486237 166.050549 
Q 217.134175 165.905101 217.412335 165.375056 
Q 217.690153 164.843487 217.518011 164.076633 
Q 217.344843 163.305206 216.867505 162.947956 
Q 216.389825 162.589182 215.741887 162.734629 
z
M 216.974889 159.28871 
L 217.171671 160.165332 
Q 216.770496 160.076032 216.381361 160.068903 
Q 215.991883 160.060249 215.629038 160.141699 
Q 214.676188 160.355593 214.317503 161.111893 
Q 213.960344 161.867852 214.180611 163.184387 
Q 214.368044 162.706736 214.742249 162.390535 
Q 215.117978 162.073991 215.627181 161.959687 
Q 216.698947 161.719099 217.4671 162.230457 
Q 218.234911 162.74029 218.486107 163.859317 
Q 218.73217 164.955476 218.233102 165.764108 
Q 217.733691 166.571215 216.657352 166.812829 
Q 215.422457 167.090035 214.557763 166.291282 
Q 213.692727 165.491004 213.28958 163.695072 
Q 212.911074 162.008907 213.486281 160.826076 
Q 214.061488 159.643245 215.4092 159.340713 
Q 215.772045 159.259263 216.157074 159.248098 
Q 216.542102 159.236932 216.974889 159.28871 
z
" clip-path="url(#pf8a35592a5)" style="fill: #cc4778; stroke: #ffffff; stroke-width: 5"/>
    <path d="M 208.225769 167.70947 
L 209.797591 167.356631 
L 208.579253 161.929195 
L 206.945698 162.656203 
L 206.748916 161.779581 
L 208.373324 161.054626 
L 209.335322 160.838679 
L 210.750441 167.142737 
L 212.322263 166.789899 
L 212.503987 167.59944 
L 208.407493 168.519011 
L 208.225769 167.70947 
z
M 215.741887 162.734629 
Q 215.093949 162.880077 214.813922 163.408939 
Q 214.535078 163.935935 214.708246 164.707363 
Q 214.880387 165.474217 215.358752 165.83604 
Q 215.838298 166.195996 216.486237 166.050549 
Q 217.134175 165.905101 217.412335 165.375056 
Q 217.690153 164.843487 217.518011 164.076633 
Q 217.344843 163.305206 216.867505 162.947956 
Q 216.389825 162.589182 215.741887 162.734629 
z
M 216.974889 159.28871 
L 217.171671 160.165332 
Q 216.770496 160.076032 216.381361 160.068903 
Q 215.991883 160.060249 215.629038 160.141699 
Q 214.676188 160.355593 214.317503 161.111893 
Q 213.960344 161.867852 214.180611 163.184387 
Q 214.368044 162.706736 214.742249 162.390535 
Q 215.117978 162.073991 215.627181 161.959687 
Q 216.698947 161.719099 217.4671 162.230457 
Q 218.234911 162.74029 218.486107 163.859317 
Q 218.73217 164.955476 218.233102 165.764108 
Q 217.733691 166.571215 216.657352 166.812829 
Q 215.422457 167.090035 214.557763 166.291282 
Q 213.692727 165.491004 213.28958 163.695072 
Q 212.911074 162.008907 213.486281 160.826076 
Q 214.061488 159.643245 215.4092 159.340713 
Q 215.772045 159.259263 216.157074 159.248098 
Q 216.542102 159.236932 216.974889 159.28871 
z
" clip-path="url(#pf8a35592a5)" style="fill: #cc4778"/>
   </g>
   <g id="text_17">
    <path d="M 250.482134 153.213851 
Q 251.205976 153.218679 251.691906 153.607886 
Q 252.17905 153.995245 252.321682 154.683751 
Q 252.540385 155.739461 251.933756 156.469892 
Q 251.326811 157.198794 249.988049 157.476134 
Q 249.539755 157.569004 249.045537 157.578838 
Q 248.551319 157.588672 248.008117 157.516104 
L 247.815088 156.584326 
Q 248.264446 156.735374 248.766534 156.755824 
Q 249.270151 156.775956 249.791885 156.667872 
Q 250.699184 156.479915 251.100849 156.023317 
Q 251.502515 155.566719 251.360833 154.882802 
Q 251.229928 154.250907 250.71422 153.987545 
Q 250.198194 153.722654 249.410237 153.885888 
L 248.577909 154.058315 
L 248.413407 153.264238 
L 249.283984 153.083887 
Q 249.995441 152.9365 250.314399 152.573629 
Q 250.633358 152.210757 250.522422 151.675252 
Q 250.408633 151.125977 249.957623 150.913039 
Q 249.507826 150.698255 248.78107 150.848811 
Q 248.383266 150.931221 247.946919 151.112569 
Q 247.510254 151.292387 247.002971 151.585767 
L 246.824839 150.725899 
Q 247.343948 150.458792 247.808524 150.282765 
Q 248.2731 150.106739 248.698444 150.018624 
Q 249.798524 149.790729 250.541716 150.158554 
Q 251.286121 150.524532 251.462351 151.37522 
Q 251.585332 151.968865 251.330297 152.447744 
Q 251.075263 152.926623 250.482134 153.213851 
z
M 255.246737 155.394223 
L 258.617357 154.695959 
L 258.785664 155.508396 
L 254.253763 156.447234 
L 254.085457 155.634797 
Q 254.516822 154.951843 255.267013 153.797538 
Q 256.018418 152.641387 256.204003 152.312528 
Q 256.55983 151.696284 256.668629 151.297166 
Q 256.778958 150.89773 256.706691 150.548887 
Q 256.588782 149.979722 256.11528 149.704425 
Q 255.64146 149.427599 255.000384 149.560405 
Q 254.54597 149.654543 254.073713 149.916731 
Q 253.602985 150.178603 253.095792 150.618766 
L 252.893571 149.642617 
Q 253.428011 149.287763 253.909723 149.063508 
Q 254.392964 148.838936 254.813718 148.751772 
Q 255.922978 148.521975 256.697471 148.94076 
Q 257.471646 149.358015 257.663725 150.285203 
Q 257.755009 150.725847 257.671544 151.154823 
Q 257.589291 151.581951 257.264173 152.20779 
Q 257.173676 152.371744 256.669844 153.167046 
Q 256.167542 153.962032 255.246737 155.394223 
z
" clip-path="url(#pf8a35592a5)" style="fill: #e66c5c; stroke: #ffffff; stroke-width: 5"/>
    <path d="M 250.482134 153.213851 
Q 251.205976 153.218679 251.691906 153.607886 
Q 252.17905 153.995245 252.321682 154.683751 
Q 252.540385 155.739461 251.933756 156.469892 
Q 251.326811 157.198794 249.988049 157.476134 
Q 249.539755 157.569004 249.045537 157.578838 
Q 248.551319 157.588672 248.008117 157.516104 
L 247.815088 156.584326 
Q 248.264446 156.735374 248.766534 156.755824 
Q 249.270151 156.775956 249.791885 156.667872 
Q 250.699184 156.479915 251.100849 156.023317 
Q 251.502515 155.566719 251.360833 154.882802 
Q 251.229928 154.250907 250.71422 153.987545 
Q 250.198194 153.722654 249.410237 153.885888 
L 248.577909 154.058315 
L 248.413407 153.264238 
L 249.283984 153.083887 
Q 249.995441 152.9365 250.314399 152.573629 
Q 250.633358 152.210757 250.522422 151.675252 
Q 250.408633 151.125977 249.957623 150.913039 
Q 249.507826 150.698255 248.78107 150.848811 
Q 248.383266 150.931221 247.946919 151.112569 
Q 247.510254 151.292387 247.002971 151.585767 
L 246.824839 150.725899 
Q 247.343948 150.458792 247.808524 150.282765 
Q 248.2731 150.106739 248.698444 150.018624 
Q 249.798524 149.790729 250.541716 150.158554 
Q 251.286121 150.524532 251.462351 151.37522 
Q 251.585332 151.968865 251.330297 152.447744 
Q 251.075263 152.926623 250.482134 153.213851 
z
M 255.246737 155.394223 
L 258.617357 154.695959 
L 258.785664 155.508396 
L 254.253763 156.447234 
L 254.085457 155.634797 
Q 254.516822 154.951843 255.267013 153.797538 
Q 256.018418 152.641387 256.204003 152.312528 
Q 256.55983 151.696284 256.668629 151.297166 
Q 256.778958 150.89773 256.706691 150.548887 
Q 256.588782 149.979722 256.11528 149.704425 
Q 255.64146 149.427599 255.000384 149.560405 
Q 254.54597 149.654543 254.073713 149.916731 
Q 253.602985 150.178603 253.095792 150.618766 
L 252.893571 149.642617 
Q 253.428011 149.287763 253.909723 149.063508 
Q 254.392964 148.838936 254.813718 148.751772 
Q 255.922978 148.521975 256.697471 148.94076 
Q 257.471646 149.358015 257.663725 150.285203 
Q 257.755009 150.725847 257.671544 151.154823 
Q 257.589291 151.581951 257.264173 152.20779 
Q 257.173676 152.371744 256.669844 153.167046 
Q 256.167542 153.962032 255.246737 155.394223 
z
" clip-path="url(#pf8a35592a5)" style="fill: #e66c5c"/>
   </g>
   <g id="text_18">
    <path d="M 289.876817 149.522511 
Q 289.23142 149.678852 288.960342 150.212356 
Q 288.690414 150.743974 288.876552 151.512375 
Q 289.061586 152.276221 289.545977 152.629935 
Q 290.031519 152.981763 290.676916 152.825422 
Q 291.322312 152.66908 291.591504 152.134425 
Q 291.860328 151.598252 291.675294 150.834406 
Q 291.489156 150.066005 291.005869 149.716847 
Q 290.522213 149.36617 289.876817 149.522511 
z
M 291.051599 146.056311 
L 291.263119 146.929495 
Q 290.860497 146.846965 290.471297 146.846391 
Q 290.081729 146.844299 289.720307 146.93185 
Q 288.771195 147.161763 288.425301 147.923998 
Q 288.080926 148.685865 288.323338 149.998503 
Q 288.502699 149.517763 288.871524 149.195303 
Q 289.241868 148.872476 289.749073 148.74961 
Q 290.816635 148.491003 291.593292 148.989349 
Q 292.369582 149.486177 292.639592 150.600814 
Q 292.904085 151.692673 292.418708 152.509596 
Q 291.932964 153.325001 290.860846 153.584711 
Q 289.630797 153.882679 288.752771 153.098605 
Q 287.874377 152.313011 287.441036 150.524125 
Q 287.034181 148.844576 287.589382 147.652223 
Q 288.144584 146.45987 289.487008 146.13468 
Q 289.84843 146.047129 290.233216 146.02948 
Q 290.618001 146.011831 291.051599 146.056311 
z
M 295.961405 145.585595 
L 294.457132 149.954748 
L 296.877748 149.368377 
L 295.961405 145.585595 
z
M 295.506997 144.811441 
L 296.712749 144.519359 
L 297.831416 149.13736 
L 298.84279 148.892364 
L 299.035917 149.689618 
L 298.024543 149.934614 
L 298.429191 151.605052 
L 297.475523 151.836069 
L 297.070875 150.165631 
L 293.872746 150.940348 
L 293.648719 150.015533 
L 295.506997 144.811441 
z
" clip-path="url(#pf8a35592a5)" style="fill: #f89540; stroke: #ffffff; stroke-width: 5"/>
    <path d="M 289.876817 149.522511 
Q 289.23142 149.678852 288.960342 150.212356 
Q 288.690414 150.743974 288.876552 151.512375 
Q 289.061586 152.276221 289.545977 152.629935 
Q 290.031519 152.981763 290.676916 152.825422 
Q 291.322312 152.66908 291.591504 152.134425 
Q 291.860328 151.598252 291.675294 150.834406 
Q 291.489156 150.066005 291.005869 149.716847 
Q 290.522213 149.36617 289.876817 149.522511 
z
M 291.051599 146.056311 
L 291.263119 146.929495 
Q 290.860497 146.846965 290.471297 146.846391 
Q 290.081729 146.844299 289.720307 146.93185 
Q 288.771195 147.161763 288.425301 147.923998 
Q 288.080926 148.685865 288.323338 149.998503 
Q 288.502699 149.517763 288.871524 149.195303 
Q 289.241868 148.872476 289.749073 148.74961 
Q 290.816635 148.491003 291.593292 148.989349 
Q 292.369582 149.486177 292.639592 150.600814 
Q 292.904085 151.692673 292.418708 152.509596 
Q 291.932964 153.325001 290.860846 153.584711 
Q 289.630797 153.882679 288.752771 153.098605 
Q 287.874377 152.313011 287.441036 150.524125 
Q 287.034181 148.844576 287.589382 147.652223 
Q 288.144584 146.45987 289.487008 146.13468 
Q 289.84843 146.047129 290.233216 146.02948 
Q 290.618001 146.011831 291.051599 146.056311 
z
M 295.961405 145.585595 
L 294.457132 149.954748 
L 296.877748 149.368377 
L 295.961405 145.585595 
z
M 295.506997 144.811441 
L 296.712749 144.519359 
L 297.831416 149.13736 
L 298.84279 148.892364 
L 299.035917 149.689618 
L 298.024543 149.934614 
L 298.429191 151.605052 
L 297.475523 151.836069 
L 297.070875 150.165631 
L 293.872746 150.940348 
L 293.648719 150.015533 
L 295.506997 144.811441 
z
" clip-path="url(#pf8a35592a5)" style="fill: #f89540"/>
   </g>
   <g id="text_19">
    <path d="M 325.560382 143.335872 
L 327.140466 143.022099 
L 326.057022 137.566134 
L 324.40595 138.252431 
L 324.230955 137.3712 
L 325.872832 136.68673 
L 326.839887 136.494692 
L 328.098325 142.831888 
L 329.67841 142.518115 
L 329.840013 143.331912 
L 325.721986 144.149669 
L 325.560382 143.335872 
z
M 332.465971 141.964562 
L 335.842233 141.294105 
L 336.003836 142.107902 
L 331.464351 143.009351 
L 331.302747 142.195554 
Q 331.739727 141.516179 332.499408 140.368098 
Q 333.260316 139.21818 333.448606 138.890861 
Q 333.809501 138.277572 333.921586 137.879363 
Q 334.035204 137.480851 333.965815 137.131424 
Q 333.852601 136.561306 333.381384 136.282116 
Q 332.909863 136.001393 332.267714 136.128911 
Q 331.812539 136.2193 331.338137 136.477586 
Q 330.865267 136.735569 330.354462 137.171536 
L 330.160294 136.193754 
Q 330.697641 135.843317 331.181185 135.62304 
Q 331.666262 135.402459 332.08772 135.318766 
Q 333.198836 135.098121 333.96985 135.523276 
Q 334.74056 135.946898 334.924989 136.875638 
Q 335.012639 137.317019 334.92564 137.745292 
Q 334.839869 138.171728 334.509604 138.794865 
Q 334.417758 138.958068 333.907388 139.749191 
Q 333.39855 140.540009 332.465971 141.964562 
z
M 339.428868 137.89765 
Q 338.739209 138.034602 338.417151 138.482472 
Q 338.096624 138.930037 338.224751 139.575251 
Q 338.353182 140.221997 338.820399 140.513133 
Q 339.289148 140.803964 339.978807 140.667012 
Q 340.668465 140.53006 340.991752 140.080353 
Q 341.316268 139.62881 341.18875 138.986661 
Q 341.060623 138.341447 340.591874 138.050616 
Q 340.124657 137.75948 339.428868 137.89765 
z
M 338.380251 137.678957 
Q 337.727592 137.649261 337.295091 137.29229 
Q 336.863819 136.933483 336.742084 136.320453 
Q 336.571959 135.463744 337.083013 134.84453 
Q 337.595601 134.225013 338.657675 134.014106 
Q 339.725879 133.801983 340.433221 134.179247 
Q 341.140563 134.556511 341.310688 135.413221 
Q 341.432423 136.02625 341.169439 136.522923 
Q 340.907684 137.017759 340.32049 137.293665 
Q 341.051604 137.31734 341.535222 137.715136 
Q 342.020069 138.111095 342.155804 138.794624 
Q 342.36245 139.835242 341.838439 140.517562 
Q 341.314123 141.19835 340.130976 141.433299 
Q 338.949361 141.667944 338.203172 141.239452 
Q 337.458212 140.809124 337.251566 139.768506 
Q 337.115831 139.084978 337.41413 138.533502 
Q 337.713657 137.980189 338.380251 137.678957 
z
M 337.722801 136.221283 
Q 337.832971 136.776075 338.241114 137.018407 
Q 338.650789 137.260435 339.277612 137.13596 
Q 339.901369 137.012095 340.190548 136.631289 
Q 340.48126 136.250178 340.371089 135.695386 
Q 340.260615 135.139062 339.846342 134.897947 
Q 339.433602 134.656528 338.809844 134.780393 
Q 338.183021 134.904868 337.896907 135.285065 
Q 337.612326 135.664958 337.722801 136.221283 
z
" clip-path="url(#pf8a35592a5)" style="fill: #fdc527; stroke: #ffffff; stroke-width: 5"/>
    <path d="M 325.560382 143.335872 
L 327.140466 143.022099 
L 326.057022 137.566134 
L 324.40595 138.252431 
L 324.230955 137.3712 
L 325.872832 136.68673 
L 326.839887 136.494692 
L 328.098325 142.831888 
L 329.67841 142.518115 
L 329.840013 143.331912 
L 325.721986 144.149669 
L 325.560382 143.335872 
z
M 332.465971 141.964562 
L 335.842233 141.294105 
L 336.003836 142.107902 
L 331.464351 143.009351 
L 331.302747 142.195554 
Q 331.739727 141.516179 332.499408 140.368098 
Q 333.260316 139.21818 333.448606 138.890861 
Q 333.809501 138.277572 333.921586 137.879363 
Q 334.035204 137.480851 333.965815 137.131424 
Q 333.852601 136.561306 333.381384 136.282116 
Q 332.909863 136.001393 332.267714 136.128911 
Q 331.812539 136.2193 331.338137 136.477586 
Q 330.865267 136.735569 330.354462 137.171536 
L 330.160294 136.193754 
Q 330.697641 135.843317 331.181185 135.62304 
Q 331.666262 135.402459 332.08772 135.318766 
Q 333.198836 135.098121 333.96985 135.523276 
Q 334.74056 135.946898 334.924989 136.875638 
Q 335.012639 137.317019 334.92564 137.745292 
Q 334.839869 138.171728 334.509604 138.794865 
Q 334.417758 138.958068 333.907388 139.749191 
Q 333.39855 140.540009 332.465971 141.964562 
z
M 339.428868 137.89765 
Q 338.739209 138.034602 338.417151 138.482472 
Q 338.096624 138.930037 338.224751 139.575251 
Q 338.353182 140.221997 338.820399 140.513133 
Q 339.289148 140.803964 339.978807 140.667012 
Q 340.668465 140.53006 340.991752 140.080353 
Q 341.316268 139.62881 341.18875 138.986661 
Q 341.060623 138.341447 340.591874 138.050616 
Q 340.124657 137.75948 339.428868 137.89765 
z
M 338.380251 137.678957 
Q 337.727592 137.649261 337.295091 137.29229 
Q 336.863819 136.933483 336.742084 136.320453 
Q 336.571959 135.463744 337.083013 134.84453 
Q 337.595601 134.225013 338.657675 134.014106 
Q 339.725879 133.801983 340.433221 134.179247 
Q 341.140563 134.556511 341.310688 135.413221 
Q 341.432423 136.02625 341.169439 136.522923 
Q 340.907684 137.017759 340.32049 137.293665 
Q 341.051604 137.31734 341.535222 137.715136 
Q 342.020069 138.111095 342.155804 138.794624 
Q 342.36245 139.835242 341.838439 140.517562 
Q 341.314123 141.19835 340.130976 141.433299 
Q 338.949361 141.667944 338.203172 141.239452 
Q 337.458212 140.809124 337.251566 139.768506 
Q 337.115831 139.084978 337.41413 138.533502 
Q 337.713657 137.980189 338.380251 137.678957 
z
M 337.722801 136.221283 
Q 337.832971 136.776075 338.241114 137.018407 
Q 338.650789 137.260435 339.277612 137.13596 
Q 339.901369 137.012095 340.190548 136.631289 
Q 340.48126 136.250178 340.371089 135.695386 
Q 340.260615 135.139062 339.846342 134.897947 
Q 339.433602 134.656528 338.809844 134.780393 
Q 338.183021 134.904868 337.896907 135.285065 
Q 337.612326 135.664958 337.722801 136.221283 
z
" clip-path="url(#pf8a35592a5)" style="fill: #fdc527"/>
   </g>
   <g id="patch_3">
    <path d="M 34.240625 301.735725 
L 34.240625 35.623725 
" style="fill: none; stroke: #cccccc; stroke-width: 0.8; stroke-linejoin: miter; stroke-linecap: square"/>
   </g>
   <g id="patch_4">
    <path d="M 391.360625 301.735725 
L 391.360625 35.623725 
" style="fill: none; stroke: #cccccc; stroke-width: 0.8; stroke-linejoin: miter; stroke-linecap: square"/>
   </g>
   <g id="patch_5">
    <path d="M 34.240625 301.735725 
L 391.360625 301.735725 
" style="fill: none; stroke: #cccccc; stroke-width: 0.8; stroke-linejoin: miter; stroke-linecap: square"/>
   </g>
   <g id="patch_6">
    <path d="M 34.240625 35.623725 
L 391.360625 35.623725 
" style="fill: none; stroke: #cccccc; stroke-width: 0.8; stroke-linejoin: miter; stroke-linecap: square"/>
   </g>
   <g id="text_20">
    <!-- Block Size = 4M, Read-Write Type = Sequential Write-only -->
    <g style="fill: #262626; opacity: 0.75" transform="translate(67.670156 30.882918) scale(0.1 -0.1)">
     <defs>
      <path id="DejaVuSans-42" d="M 1259 2228 
L 1259 519 
L 2272 519 
Q 2781 519 3026 730 
Q 3272 941 3272 1375 
Q 3272 1813 3026 2020 
Q 2781 2228 2272 2228 
L 1259 2228 
z
M 1259 4147 
L 1259 2741 
L 2194 2741 
Q 2656 2741 2882 2914 
Q 3109 3088 3109 3444 
Q 3109 3797 2882 3972 
Q 2656 4147 2194 4147 
L 1259 4147 
z
M 628 4666 
L 2241 4666 
Q 2963 4666 3353 4366 
Q 3744 4066 3744 3513 
Q 3744 3084 3544 2831 
Q 3344 2578 2956 2516 
Q 3422 2416 3680 2098 
Q 3938 1781 3938 1306 
Q 3938 681 3513 340 
Q 3088 0 2303 0 
L 628 0 
L 628 4666 
z
" transform="scale(0.015625)"/>
      <path id="DejaVuSans-6c" d="M 603 4863 
L 1178 4863 
L 1178 0 
L 603 0 
L 603 4863 
z
" transform="scale(0.015625)"/>
      <path id="DejaVuSans-6b" d="M 581 4863 
L 1159 4863 
L 1159 1991 
L 2875 3500 
L 3609 3500 
L 1753 1863 
L 3688 0 
L 2938 0 
L 1159 1709 
L 1159 0 
L 581 0 
L 581 4863 
z
" transform="scale(0.015625)"/>
      <path id="DejaVuSans-53" d="M 3425 4513 
L 3425 3897 
Q 3066 4069 2747 4153 
Q 2428 4238 2131 4238 
Q 1616 4238 1336 4038 
Q 1056 3838 1056 3469 
Q 1056 3159 1242 3001 
Q 1428 2844 1947 2747 
L 2328 2669 
Q 3034 2534 3370 2195 
Q 3706 1856 3706 1288 
Q 3706 609 3251 259 
Q 2797 -91 1919 -91 
Q 1588 -91 1214 -16 
Q 841 59 441 206 
L 441 856 
Q 825 641 1194 531 
Q 1563 422 1919 422 
Q 2459 422 2753 634 
Q 3047 847 3047 1241 
Q 3047 1584 2836 1778 
Q 2625 1972 2144 2069 
L 1759 2144 
Q 1053 2284 737 2584 
Q 422 2884 422 3419 
Q 422 4038 858 4394 
Q 1294 4750 2059 4750 
Q 2388 4750 2728 4690 
Q 3069 4631 3425 4513 
z
" transform="scale(0.015625)"/>
      <path id="DejaVuSans-69" d="M 603 3500 
L 1178 3500 
L 1178 0 
L 603 0 
L 603 3500 
z
M 603 4863 
L 1178 4863 
L 1178 4134 
L 603 4134 
L 603 4863 
z
" transform="scale(0.015625)"/>
      <path id="DejaVuSans-7a" d="M 353 3500 
L 3084 3500 
L 3084 2975 
L 922 459 
L 3084 459 
L 3084 0 
L 275 0 
L 275 525 
L 2438 3041 
L 353 3041 
L 353 3500 
z
" transform="scale(0.015625)"/>
      <path id="DejaVuSans-3d" d="M 678 2906 
L 4684 2906 
L 4684 2381 
L 678 2381 
L 678 2906 
z
M 678 1631 
L 4684 1631 
L 4684 1100 
L 678 1100 
L 678 1631 
z
" transform="scale(0.015625)"/>
      <path id="DejaVuSans-2c" d="M 750 794 
L 1409 794 
L 1409 256 
L 897 -744 
L 494 -744 
L 750 256 
L 750 794 
z
" transform="scale(0.015625)"/>
      <path id="DejaVuSans-52" d="M 2841 2188 
Q 3044 2119 3236 1894 
Q 3428 1669 3622 1275 
L 4263 0 
L 3584 0 
L 2988 1197 
Q 2756 1666 2539 1819 
Q 2322 1972 1947 1972 
L 1259 1972 
L 1259 0 
L 628 0 
L 628 4666 
L 2053 4666 
Q 2853 4666 3247 4331 
Q 3641 3997 3641 3322 
Q 3641 2881 3436 2590 
Q 3231 2300 2841 2188 
z
M 1259 4147 
L 1259 2491 
L 2053 2491 
Q 2509 2491 2742 2702 
Q 2975 2913 2975 3322 
Q 2975 3731 2742 3939 
Q 2509 4147 2053 4147 
L 1259 4147 
z
" transform="scale(0.015625)"/>
      <path id="DejaVuSans-64" d="M 2906 2969 
L 2906 4863 
L 3481 4863 
L 3481 0 
L 2906 0 
L 2906 525 
Q 2725 213 2448 61 
Q 2172 -91 1784 -91 
Q 1150 -91 751 415 
Q 353 922 353 1747 
Q 353 2572 751 3078 
Q 1150 3584 1784 3584 
Q 2172 3584 2448 3432 
Q 2725 3281 2906 2969 
z
M 947 1747 
Q 947 1113 1208 752 
Q 1469 391 1925 391 
Q 2381 391 2643 752 
Q 2906 1113 2906 1747 
Q 2906 2381 2643 2742 
Q 2381 3103 1925 3103 
Q 1469 3103 1208 2742 
Q 947 2381 947 1747 
z
" transform="scale(0.015625)"/>
      <path id="DejaVuSans-2d" d="M 313 2009 
L 1997 2009 
L 1997 1497 
L 313 1497 
L 313 2009 
z
" transform="scale(0.015625)"/>
      <path id="DejaVuSans-57" d="M 213 4666 
L 850 4666 
L 1831 722 
L 2809 4666 
L 3519 4666 
L 4500 722 
L 5478 4666 
L 6119 4666 
L 4947 0 
L 4153 0 
L 3169 4050 
L 2175 0 
L 1381 0 
L 213 4666 
z
" transform="scale(0.015625)"/>
      <path id="DejaVuSans-54" d="M -19 4666 
L 3928 4666 
L 3928 4134 
L 2272 4134 
L 2272 0 
L 1638 0 
L 1638 4134 
L -19 4134 
L -19 4666 
z
" transform="scale(0.015625)"/>
      <path id="DejaVuSans-70" d="M 1159 525 
L 1159 -1331 
L 581 -1331 
L 581 3500 
L 1159 3500 
L 1159 2969 
Q 1341 3281 1617 3432 
Q 1894 3584 2278 3584 
Q 2916 3584 3314 3078 
Q 3713 2572 3713 1747 
Q 3713 922 3314 415 
Q 2916 -91 2278 -91 
Q 1894 -91 1617 61 
Q 1341 213 1159 525 
z
M 3116 1747 
Q 3116 2381 2855 2742 
Q 2594 3103 2138 3103 
Q 1681 3103 1420 2742 
Q 1159 2381 1159 1747 
Q 1159 1113 1420 752 
Q 1681 391 2138 391 
Q 2594 391 2855 752 
Q 3116 1113 3116 1747 
z
" transform="scale(0.015625)"/>
      <path id="DejaVuSans-71" d="M 947 1747 
Q 947 1113 1208 752 
Q 1469 391 1925 391 
Q 2381 391 2643 752 
Q 2906 1113 2906 1747 
Q 2906 2381 2643 2742 
Q 2381 3103 1925 3103 
Q 1469 3103 1208 2742 
Q 947 2381 947 1747 
z
M 2906 525 
Q 2725 213 2448 61 
Q 2172 -91 1784 -91 
Q 1150 -91 751 415 
Q 353 922 353 1747 
Q 353 2572 751 3078 
Q 1150 3584 1784 3584 
Q 2172 3584 2448 3432 
Q 2725 3281 2906 2969 
L 2906 3500 
L 3481 3500 
L 3481 -1331 
L 2906 -1331 
L 2906 525 
z
" transform="scale(0.015625)"/>
     </defs>
     <use xlink:href="#DejaVuSans-42"/>
     <use xlink:href="#DejaVuSans-6c" transform="translate(68.603516 0)"/>
     <use xlink:href="#DejaVuSans-6f" transform="translate(96.386719 0)"/>
     <use xlink:href="#DejaVuSans-63" transform="translate(157.568359 0)"/>
     <use xlink:href="#DejaVuSans-6b" transform="translate(212.548828 0)"/>
     <use xlink:href="#DejaVuSans-20" transform="translate(270.458984 0)"/>
     <use xlink:href="#DejaVuSans-53" transform="translate(302.246094 0)"/>
     <use xlink:href="#DejaVuSans-69" transform="translate(365.722656 0)"/>
     <use xlink:href="#DejaVuSans-7a" transform="translate(393.505859 0)"/>
     <use xlink:href="#DejaVuSans-65" transform="translate(445.996094 0)"/>
     <use xlink:href="#DejaVuSans-20" transform="translate(507.519531 0)"/>
     <use xlink:href="#DejaVuSans-3d" transform="translate(539.306641 0)"/>
     <use xlink:href="#DejaVuSans-20" transform="translate(623.095703 0)"/>
     <use xlink:href="#DejaVuSans-34" transform="translate(654.882812 0)"/>
     <use xlink:href="#DejaVuSans-4d" transform="translate(718.505859 0)"/>
     <use xlink:href="#DejaVuSans-2c" transform="translate(804.785156 0)"/>
     <use xlink:href="#DejaVuSans-20" transform="translate(836.572266 0)"/>
     <use xlink:href="#DejaVuSans-52" transform="translate(868.359375 0)"/>
     <use xlink:href="#DejaVuSans-65" transform="translate(933.341797 0)"/>
     <use xlink:href="#DejaVuSans-61" transform="translate(994.865234 0)"/>
     <use xlink:href="#DejaVuSans-64" transform="translate(1056.144531 0)"/>
     <use xlink:href="#DejaVuSans-2d" transform="translate(1119.621094 0)"/>
     <use xlink:href="#DejaVuSans-57" transform="translate(1151.705078 0)"/>
     <use xlink:href="#DejaVuSans-72" transform="translate(1246.082031 0)"/>
     <use xlink:href="#DejaVuSans-69" transform="translate(1287.195312 0)"/>
     <use xlink:href="#DejaVuSans-74" transform="translate(1314.978516 0)"/>
     <use xlink:href="#DejaVuSans-65" transform="translate(1354.1875 0)"/>
     <use xlink:href="#DejaVuSans-20" transform="translate(1415.710938 0)"/>
     <use xlink:href="#DejaVuSans-54" transform="translate(1447.498047 0)"/>
     <use xlink:href="#DejaVuSans-79" transform="translate(1492.957031 0)"/>
     <use xlink:href="#DejaVuSans-70" transform="translate(1552.136719 0)"/>
     <use xlink:href="#DejaVuSans-65" transform="translate(1615.613281 0)"/>
     <use xlink:href="#DejaVuSans-20" transform="translate(1677.136719 0)"/>
     <use xlink:href="#DejaVuSans-3d" transform="translate(1708.923828 0)"/>
     <use xlink:href="#DejaVuSans-20" transform="translate(1792.712891 0)"/>
     <use xlink:href="#DejaVuSans-53" transform="translate(1824.5 0)"/>
     <use xlink:href="#DejaVuSans-65" transform="translate(1887.976562 0)"/>
     <use xlink:href="#DejaVuSans-71" transform="translate(1949.5 0)"/>
     <use xlink:href="#DejaVuSans-75" transform="translate(2012.976562 0)"/>
     <use xlink:href="#DejaVuSans-65" transform="translate(2076.355469 0)"/>
     <use xlink:href="#DejaVuSans-6e" transform="translate(2137.878906 0)"/>
     <use xlink:href="#DejaVuSans-74" transform="translate(2201.257812 0)"/>
     <use xlink:href="#DejaVuSans-69" transform="translate(2240.466797 0)"/>
     <use xlink:href="#DejaVuSans-61" transform="translate(2268.25 0)"/>
     <use xlink:href="#DejaVuSans-6c" transform="translate(2329.529297 0)"/>
     <use xlink:href="#DejaVuSans-20" transform="translate(2357.3125 0)"/>
     <use xlink:href="#DejaVuSans-57" transform="translate(2389.099609 0)"/>
     <use xlink:href="#DejaVuSans-72" transform="translate(2483.476562 0)"/>
     <use xlink:href="#DejaVuSans-69" transform="translate(2524.589844 0)"/>
     <use xlink:href="#DejaVuSans-74" transform="translate(2552.373047 0)"/>
     <use xlink:href="#DejaVuSans-65" transform="translate(2591.582031 0)"/>
     <use xlink:href="#DejaVuSans-2d" transform="translate(2653.105469 0)"/>
     <use xlink:href="#DejaVuSans-6f" transform="translate(2691.064453 0)"/>
     <use xlink:href="#DejaVuSans-6e" transform="translate(2752.246094 0)"/>
     <use xlink:href="#DejaVuSans-6c" transform="translate(2815.625 0)"/>
     <use xlink:href="#DejaVuSans-79" transform="translate(2843.408203 0)"/>
    </g>
   </g>
   <g id="text_21">
    <!-- Mean Latency vs Number of Jobs -->
    <g style="fill: #262626" transform="translate(102.144688 16.318125) scale(0.12 -0.12)">
     <defs>
      <path id="DejaVuSans-Bold-4d" d="M 588 4666 
L 2119 4666 
L 3181 2169 
L 4250 4666 
L 5778 4666 
L 5778 0 
L 4641 0 
L 4641 3413 
L 3566 897 
L 2803 897 
L 1728 3413 
L 1728 0 
L 588 0 
L 588 4666 
z
" transform="scale(0.015625)"/>
      <path id="DejaVuSans-Bold-65" d="M 4031 1759 
L 4031 1441 
L 1416 1441 
Q 1456 1047 1700 850 
Q 1944 653 2381 653 
Q 2734 653 3104 758 
Q 3475 863 3866 1075 
L 3866 213 
Q 3469 63 3072 -14 
Q 2675 -91 2278 -91 
Q 1328 -91 801 392 
Q 275 875 275 1747 
Q 275 2603 792 3093 
Q 1309 3584 2216 3584 
Q 3041 3584 3536 3087 
Q 4031 2591 4031 1759 
z
M 2881 2131 
Q 2881 2450 2695 2645 
Q 2509 2841 2209 2841 
Q 1884 2841 1681 2658 
Q 1478 2475 1428 2131 
L 2881 2131 
z
" transform="scale(0.015625)"/>
      <path id="DejaVuSans-Bold-61" d="M 2106 1575 
Q 1756 1575 1579 1456 
Q 1403 1338 1403 1106 
Q 1403 894 1545 773 
Q 1688 653 1941 653 
Q 2256 653 2472 879 
Q 2688 1106 2688 1447 
L 2688 1575 
L 2106 1575 
z
M 3816 1997 
L 3816 0 
L 2688 0 
L 2688 519 
Q 2463 200 2181 54 
Q 1900 -91 1497 -91 
Q 953 -91 614 226 
Q 275 544 275 1050 
Q 275 1666 698 1953 
Q 1122 2241 2028 2241 
L 2688 2241 
L 2688 2328 
Q 2688 2594 2478 2717 
Q 2269 2841 1825 2841 
Q 1466 2841 1156 2769 
Q 847 2697 581 2553 
L 581 3406 
Q 941 3494 1303 3539 
Q 1666 3584 2028 3584 
Q 2975 3584 3395 3211 
Q 3816 2838 3816 1997 
z
" transform="scale(0.015625)"/>
      <path id="DejaVuSans-Bold-6e" d="M 4056 2131 
L 4056 0 
L 2931 0 
L 2931 347 
L 2931 1631 
Q 2931 2084 2911 2256 
Q 2891 2428 2841 2509 
Q 2775 2619 2662 2680 
Q 2550 2741 2406 2741 
Q 2056 2741 1856 2470 
Q 1656 2200 1656 1722 
L 1656 0 
L 538 0 
L 538 3500 
L 1656 3500 
L 1656 2988 
Q 1909 3294 2193 3439 
Q 2478 3584 2822 3584 
Q 3428 3584 3742 3212 
Q 4056 2841 4056 2131 
z
" transform="scale(0.015625)"/>
      <path id="DejaVuSans-Bold-20" transform="scale(0.015625)"/>
      <path id="DejaVuSans-Bold-4c" d="M 588 4666 
L 1791 4666 
L 1791 909 
L 3903 909 
L 3903 0 
L 588 0 
L 588 4666 
z
" transform="scale(0.015625)"/>
      <path id="DejaVuSans-Bold-74" d="M 1759 4494 
L 1759 3500 
L 2913 3500 
L 2913 2700 
L 1759 2700 
L 1759 1216 
Q 1759 972 1856 886 
Q 1953 800 2241 800 
L 2816 800 
L 2816 0 
L 1856 0 
Q 1194 0 917 276 
Q 641 553 641 1216 
L 641 2700 
L 84 2700 
L 84 3500 
L 641 3500 
L 641 4494 
L 1759 4494 
z
" transform="scale(0.015625)"/>
      <path id="DejaVuSans-Bold-63" d="M 3366 3391 
L 3366 2478 
Q 3138 2634 2908 2709 
Q 2678 2784 2431 2784 
Q 1963 2784 1702 2511 
Q 1441 2238 1441 1747 
Q 1441 1256 1702 982 
Q 1963 709 2431 709 
Q 2694 709 2930 787 
Q 3166 866 3366 1019 
L 3366 103 
Q 3103 6 2833 -42 
Q 2563 -91 2291 -91 
Q 1344 -91 809 395 
Q 275 881 275 1747 
Q 275 2613 809 3098 
Q 1344 3584 2291 3584 
Q 2566 3584 2833 3536 
Q 3100 3488 3366 3391 
z
" transform="scale(0.015625)"/>
      <path id="DejaVuSans-Bold-79" d="M 78 3500 
L 1197 3500 
L 2138 1125 
L 2938 3500 
L 4056 3500 
L 2584 -331 
Q 2363 -916 2067 -1148 
Q 1772 -1381 1288 -1381 
L 641 -1381 
L 641 -647 
L 991 -647 
Q 1275 -647 1404 -556 
Q 1534 -466 1606 -231 
L 1638 -134 
L 78 3500 
z
" transform="scale(0.015625)"/>
      <path id="DejaVuSans-Bold-76" d="M 97 3500 
L 1216 3500 
L 2088 1081 
L 2956 3500 
L 4078 3500 
L 2700 0 
L 1472 0 
L 97 3500 
z
" transform="scale(0.015625)"/>
      <path id="DejaVuSans-Bold-73" d="M 3272 3391 
L 3272 2541 
Q 2913 2691 2578 2766 
Q 2244 2841 1947 2841 
Q 1628 2841 1473 2761 
Q 1319 2681 1319 2516 
Q 1319 2381 1436 2309 
Q 1553 2238 1856 2203 
L 2053 2175 
Q 2913 2066 3209 1816 
Q 3506 1566 3506 1031 
Q 3506 472 3093 190 
Q 2681 -91 1863 -91 
Q 1516 -91 1145 -36 
Q 775 19 384 128 
L 384 978 
Q 719 816 1070 734 
Q 1422 653 1784 653 
Q 2113 653 2278 743 
Q 2444 834 2444 1013 
Q 2444 1163 2330 1236 
Q 2216 1309 1875 1350 
L 1678 1375 
Q 931 1469 631 1722 
Q 331 1975 331 2491 
Q 331 3047 712 3315 
Q 1094 3584 1881 3584 
Q 2191 3584 2531 3537 
Q 2872 3491 3272 3391 
z
" transform="scale(0.015625)"/>
      <path id="DejaVuSans-Bold-4e" d="M 588 4666 
L 1931 4666 
L 3628 1466 
L 3628 4666 
L 4769 4666 
L 4769 0 
L 3425 0 
L 1728 3200 
L 1728 0 
L 588 0 
L 588 4666 
z
" transform="scale(0.015625)"/>
      <path id="DejaVuSans-Bold-75" d="M 500 1363 
L 500 3500 
L 1625 3500 
L 1625 3150 
Q 1625 2866 1622 2436 
Q 1619 2006 1619 1863 
Q 1619 1441 1641 1255 
Q 1663 1069 1716 984 
Q 1784 875 1895 815 
Q 2006 756 2150 756 
Q 2500 756 2700 1025 
Q 2900 1294 2900 1772 
L 2900 3500 
L 4019 3500 
L 4019 0 
L 2900 0 
L 2900 506 
Q 2647 200 2364 54 
Q 2081 -91 1741 -91 
Q 1134 -91 817 281 
Q 500 653 500 1363 
z
" transform="scale(0.015625)"/>
      <path id="DejaVuSans-Bold-6d" d="M 3781 2919 
Q 3994 3244 4286 3414 
Q 4578 3584 4928 3584 
Q 5531 3584 5847 3212 
Q 6163 2841 6163 2131 
L 6163 0 
L 5038 0 
L 5038 1825 
Q 5041 1866 5042 1909 
Q 5044 1953 5044 2034 
Q 5044 2406 4934 2573 
Q 4825 2741 4581 2741 
Q 4263 2741 4089 2478 
Q 3916 2216 3909 1719 
L 3909 0 
L 2784 0 
L 2784 1825 
Q 2784 2406 2684 2573 
Q 2584 2741 2328 2741 
Q 2006 2741 1831 2477 
Q 1656 2213 1656 1722 
L 1656 0 
L 531 0 
L 531 3500 
L 1656 3500 
L 1656 2988 
Q 1863 3284 2130 3434 
Q 2397 3584 2719 3584 
Q 3081 3584 3359 3409 
Q 3638 3234 3781 2919 
z
" transform="scale(0.015625)"/>
      <path id="DejaVuSans-Bold-62" d="M 2400 722 
Q 2759 722 2948 984 
Q 3138 1247 3138 1747 
Q 3138 2247 2948 2509 
Q 2759 2772 2400 2772 
Q 2041 2772 1848 2508 
Q 1656 2244 1656 1747 
Q 1656 1250 1848 986 
Q 2041 722 2400 722 
z
M 1656 2988 
Q 1888 3294 2169 3439 
Q 2450 3584 2816 3584 
Q 3463 3584 3878 3070 
Q 4294 2556 4294 1747 
Q 4294 938 3878 423 
Q 3463 -91 2816 -91 
Q 2450 -91 2169 54 
Q 1888 200 1656 506 
L 1656 0 
L 538 0 
L 538 4863 
L 1656 4863 
L 1656 2988 
z
" transform="scale(0.015625)"/>
      <path id="DejaVuSans-Bold-72" d="M 3138 2547 
Q 2991 2616 2845 2648 
Q 2700 2681 2553 2681 
Q 2122 2681 1889 2404 
Q 1656 2128 1656 1613 
L 1656 0 
L 538 0 
L 538 3500 
L 1656 3500 
L 1656 2925 
Q 1872 3269 2151 3426 
Q 2431 3584 2822 3584 
Q 2878 3584 2943 3579 
Q 3009 3575 3134 3559 
L 3138 2547 
z
" transform="scale(0.015625)"/>
      <path id="DejaVuSans-Bold-6f" d="M 2203 2784 
Q 1831 2784 1636 2517 
Q 1441 2250 1441 1747 
Q 1441 1244 1636 976 
Q 1831 709 2203 709 
Q 2569 709 2762 976 
Q 2956 1244 2956 1747 
Q 2956 2250 2762 2517 
Q 2569 2784 2203 2784 
z
M 2203 3584 
Q 3106 3584 3614 3096 
Q 4122 2609 4122 1747 
Q 4122 884 3614 396 
Q 3106 -91 2203 -91 
Q 1297 -91 786 396 
Q 275 884 275 1747 
Q 275 2609 786 3096 
Q 1297 3584 2203 3584 
z
" transform="scale(0.015625)"/>
      <path id="DejaVuSans-Bold-66" d="M 2841 4863 
L 2841 4128 
L 2222 4128 
Q 1984 4128 1890 4042 
Q 1797 3956 1797 3744 
L 1797 3500 
L 2753 3500 
L 2753 2700 
L 1797 2700 
L 1797 0 
L 678 0 
L 678 2700 
L 122 2700 
L 122 3500 
L 678 3500 
L 678 3744 
Q 678 4316 997 4589 
Q 1316 4863 1984 4863 
L 2841 4863 
z
" transform="scale(0.015625)"/>
      <path id="DejaVuSans-Bold-4a" d="M 588 4666 
L 1791 4666 
L 1791 453 
Q 1791 -419 1317 -850 
Q 844 -1281 -116 -1281 
L -359 -1281 
L -359 -372 
L -172 -372 
Q 203 -372 395 -162 
Q 588 47 588 453 
L 588 4666 
z
" transform="scale(0.015625)"/>
     </defs>
     <use xlink:href="#DejaVuSans-Bold-4d"/>
     <use xlink:href="#DejaVuSans-Bold-65" transform="translate(99.511719 0)"/>
     <use xlink:href="#DejaVuSans-Bold-61" transform="translate(167.333984 0)"/>
     <use xlink:href="#DejaVuSans-Bold-6e" transform="translate(234.814453 0)"/>
     <use xlink:href="#DejaVuSans-Bold-20" transform="translate(306.005859 0)"/>
     <use xlink:href="#DejaVuSans-Bold-4c" transform="translate(340.820312 0)"/>
     <use xlink:href="#DejaVuSans-Bold-61" transform="translate(404.541016 0)"/>
     <use xlink:href="#DejaVuSans-Bold-74" transform="translate(472.021484 0)"/>
     <use xlink:href="#DejaVuSans-Bold-65" transform="translate(519.824219 0)"/>
     <use xlink:href="#DejaVuSans-Bold-6e" transform="translate(587.646484 0)"/>
     <use xlink:href="#DejaVuSans-Bold-63" transform="translate(658.837891 0)"/>
     <use xlink:href="#DejaVuSans-Bold-79" transform="translate(718.115234 0)"/>
     <use xlink:href="#DejaVuSans-Bold-20" transform="translate(783.300781 0)"/>
     <use xlink:href="#DejaVuSans-Bold-76" transform="translate(818.115234 0)"/>
     <use xlink:href="#DejaVuSans-Bold-73" transform="translate(883.300781 0)"/>
     <use xlink:href="#DejaVuSans-Bold-20" transform="translate(942.822266 0)"/>
     <use xlink:href="#DejaVuSans-Bold-4e" transform="translate(977.636719 0)"/>
     <use xlink:href="#DejaVuSans-Bold-75" transform="translate(1061.328125 0)"/>
     <use xlink:href="#DejaVuSans-Bold-6d" transform="translate(1132.519531 0)"/>
     <use xlink:href="#DejaVuSans-Bold-62" transform="translate(1236.71875 0)"/>
     <use xlink:href="#DejaVuSans-Bold-65" transform="translate(1308.300781 0)"/>
     <use xlink:href="#DejaVuSans-Bold-72" transform="translate(1376.123047 0)"/>
     <use xlink:href="#DejaVuSans-Bold-20" transform="translate(1425.439453 0)"/>
     <use xlink:href="#DejaVuSans-Bold-6f" transform="translate(1460.253906 0)"/>
     <use xlink:href="#DejaVuSans-Bold-66" transform="translate(1528.955078 0)"/>
     <use xlink:href="#DejaVuSans-Bold-20" transform="translate(1572.460938 0)"/>
     <use xlink:href="#DejaVuSans-Bold-4a" transform="translate(1607.275391 0)"/>
     <use xlink:href="#DejaVuSans-Bold-6f" transform="translate(1644.482422 0)"/>
     <use xlink:href="#DejaVuSans-Bold-62" transform="translate(1713.183594 0)"/>
     <use xlink:href="#DejaVuSans-Bold-73" transform="translate(1784.765625 0)"/>
    </g>
   </g>
   <g id="legend_1">
    <g id="text_22">
     <!-- IO Depth -->
     <g style="fill: #262626" transform="translate(425.867188 120.065663) scale(0.1 -0.1)">
      <defs>
       <path id="DejaVuSans-49" d="M 628 4666 
L 1259 4666 
L 1259 0 
L 628 0 
L 628 4666 
z
" transform="scale(0.015625)"/>
       <path id="DejaVuSans-4f" d="M 2522 4238 
Q 1834 4238 1429 3725 
Q 1025 3213 1025 2328 
Q 1025 1447 1429 934 
Q 1834 422 2522 422 
Q 3209 422 3611 934 
Q 4013 1447 4013 2328 
Q 4013 3213 3611 3725 
Q 3209 4238 2522 4238 
z
M 2522 4750 
Q 3503 4750 4090 4092 
Q 4678 3434 4678 2328 
Q 4678 1225 4090 567 
Q 3503 -91 2522 -91 
Q 1538 -91 948 565 
Q 359 1222 359 2328 
Q 359 3434 948 4092 
Q 1538 4750 2522 4750 
z
" transform="scale(0.015625)"/>
       <path id="DejaVuSans-44" d="M 1259 4147 
L 1259 519 
L 2022 519 
Q 2988 519 3436 956 
Q 3884 1394 3884 2338 
Q 3884 3275 3436 3711 
Q 2988 4147 2022 4147 
L 1259 4147 
z
M 628 4666 
L 1925 4666 
Q 3281 4666 3915 4102 
Q 4550 3538 4550 2338 
Q 4550 1131 3912 565 
Q 3275 0 1925 0 
L 628 0 
L 628 4666 
z
" transform="scale(0.015625)"/>
       <path id="DejaVuSans-68" d="M 3513 2113 
L 3513 0 
L 2938 0 
L 2938 2094 
Q 2938 2591 2744 2837 
Q 2550 3084 2163 3084 
Q 1697 3084 1428 2787 
Q 1159 2491 1159 1978 
L 1159 0 
L 581 0 
L 581 4863 
L 1159 4863 
L 1159 2956 
Q 1366 3272 1645 3428 
Q 1925 3584 2291 3584 
Q 2894 3584 3203 3211 
Q 3513 2838 3513 2113 
z
" transform="scale(0.015625)"/>
      </defs>
      <use xlink:href="#DejaVuSans-49"/>
      <use xlink:href="#DejaVuSans-4f" transform="translate(29.492188 0)"/>
      <use xlink:href="#DejaVuSans-20" transform="translate(108.203125 0)"/>
      <use xlink:href="#DejaVuSans-44" transform="translate(139.990234 0)"/>
      <use xlink:href="#DejaVuSans-65" transform="translate(216.992188 0)"/>
      <use xlink:href="#DejaVuSans-70" transform="translate(278.515625 0)"/>
      <use xlink:href="#DejaVuSans-74" transform="translate(341.992188 0)"/>
      <use xlink:href="#DejaVuSans-68" transform="translate(381.201172 0)"/>
     </g>
    </g>
    <g id="line2d_24">
     <path d="M 424.553125 131.243787 
L 434.553125 131.243787 
L 444.553125 131.243787 
" style="fill: none; stroke: #4c02a1; stroke-width: 1.5; stroke-linecap: round"/>
    </g>
    <g id="text_23">
     <!-- 1 -->
     <g style="fill: #262626" transform="translate(452.553125 134.743787) scale(0.1 -0.1)">
      <use xlink:href="#DejaVuSans-31"/>
     </g>
    </g>
    <g id="line2d_25">
     <path d="M 424.553125 145.921913 
L 434.553125 145.921913 
L 444.553125 145.921913 
" style="fill: none; stroke: #7e03a8; stroke-width: 1.5; stroke-linecap: round"/>
    </g>
    <g id="text_24">
     <!-- 4 -->
     <g style="fill: #262626" transform="translate(452.553125 149.421913) scale(0.1 -0.1)">
      <use xlink:href="#DejaVuSans-34"/>
     </g>
    </g>
    <g id="line2d_26">
     <path d="M 424.553125 160.600037 
L 434.553125 160.600037 
L 444.553125 160.600037 
" style="fill: none; stroke: #aa2395; stroke-width: 1.5; stroke-linecap: round"/>
    </g>
    <g id="text_25">
     <!-- 8 -->
     <g style="fill: #262626" transform="translate(452.553125 164.100037) scale(0.1 -0.1)">
      <use xlink:href="#DejaVuSans-38"/>
     </g>
    </g>
    <g id="line2d_27">
     <path d="M 424.553125 175.278163 
L 434.553125 175.278163 
L 444.553125 175.278163 
" style="fill: none; stroke: #cc4778; stroke-width: 1.5; stroke-linecap: round"/>
    </g>
    <g id="text_26">
     <!-- 16 -->
     <g style="fill: #262626" transform="translate(452.553125 178.778163) scale(0.1 -0.1)">
      <use xlink:href="#DejaVuSans-31"/>
      <use xlink:href="#DejaVuSans-36" transform="translate(63.623047 0)"/>
     </g>
    </g>
    <g id="line2d_28">
     <path d="M 424.553125 189.956288 
L 434.553125 189.956288 
L 444.553125 189.956288 
" style="fill: none; stroke: #e66c5c; stroke-width: 1.5; stroke-linecap: round"/>
    </g>
    <g id="text_27">
     <!-- 32 -->
     <g style="fill: #262626" transform="translate(452.553125 193.456288) scale(0.1 -0.1)">
      <use xlink:href="#DejaVuSans-33"/>
      <use xlink:href="#DejaVuSans-32" transform="translate(63.623047 0)"/>
     </g>
    </g>
    <g id="line2d_29">
     <path d="M 424.553125 204.634412 
L 434.553125 204.634412 
L 444.553125 204.634412 
" style="fill: none; stroke: #f89540; stroke-width: 1.5; stroke-linecap: round"/>
    </g>
    <g id="text_28">
     <!-- 64 -->
     <g style="fill: #262626" transform="translate(452.553125 208.134412) scale(0.1 -0.1)">
      <use xlink:href="#DejaVuSans-36"/>
      <use xlink:href="#DejaVuSans-34" transform="translate(63.623047 0)"/>
     </g>
    </g>
    <g id="line2d_30">
     <path d="M 424.553125 219.312537 
L 434.553125 219.312537 
L 444.553125 219.312537 
" style="fill: none; stroke: #fdc527; stroke-width: 1.5; stroke-linecap: round"/>
    </g>
    <g id="text_29">
     <!-- 128 -->
     <g style="fill: #262626" transform="translate(452.553125 222.812537) scale(0.1 -0.1)">
      <use xlink:href="#DejaVuSans-31"/>
      <use xlink:href="#DejaVuSans-32" transform="translate(63.623047 0)"/>
      <use xlink:href="#DejaVuSans-38" transform="translate(127.246094 0)"/>
     </g>
    </g>
   </g>
  </g>
 </g>
 <defs>
  <clipPath id="pf8a35592a5">
   <rect x="34.240625" y="35.623725" width="357.12" height="266.112"/>
  </clipPath>
 </defs>
</svg>
