<?xml version="1.0" encoding="utf-8" standalone="no"?>
<!DOCTYPE svg PUBLIC "-//W3C//DTD SVG 1.1//EN"
  "http://www.w3.org/Graphics/SVG/1.1/DTD/svg11.dtd">
<svg xmlns:xlink="http://www.w3.org/1999/xlink" width="492.38125pt" height="339.291975pt" viewBox="0 0 492.38125 339.291975" xmlns="http://www.w3.org/2000/svg" version="1.1">
 <metadata>
  <rdf:RDF xmlns:dc="http://purl.org/dc/elements/1.1/" xmlns:cc="http://creativecommons.org/ns#" xmlns:rdf="http://www.w3.org/1999/02/22-rdf-syntax-ns#">
   <cc:Work>
    <dc:type rdf:resource="http://purl.org/dc/dcmitype/StillImage"/>
    <dc:date>2025-09-11T11:47:30.434849</dc:date>
    <dc:format>image/svg+xml</dc:format>
    <dc:creator>
     <cc:Agent>
      <dc:title>Matplotlib v3.10.6, https://matplotlib.org/</dc:title>
     </cc:Agent>
    </dc:creator>
   </cc:Work>
  </rdf:RDF>
 </metadata>
 <defs>
  <style type="text/css">*{stroke-linejoin: round; stroke-linecap: butt}</style>
 </defs>
 <g id="figure_1">
  <g id="patch_1">
   <path d="M 0 339.291975 
L 492.38125 339.291975 
L 492.38125 0 
L 0 0 
z
" style="fill: #ffffff"/>
  </g>
  <g id="axes_1">
   <g id="patch_2">
    <path d="M 43.78125 301.735725 
L 400.90125 301.735725 
L 400.90125 35.623725 
L 43.78125 35.623725 
z
" style="fill: #ffffff"/>
   </g>
   <g id="matplotlib.axis_1">
    <g id="xtick_1">
     <g id="line2d_1">
      <path d="M 199.15164 301.735725 
L 199.15164 35.623725 
" clip-path="url(#p0374fb5fef)" style="fill: none; stroke: #cccccc; stroke-width: 0.8; stroke-linecap: round"/>
     </g>
     <g id="text_1">
      <!-- 64 -->
      <g style="fill: #262626" transform="translate(192.78914 316.334162) scale(0.1 -0.1)">
       <defs>
        <path id="DejaVuSans-36" d="M 2113 2584 
Q 1688 2584 1439 2293 
Q 1191 2003 1191 1497 
Q 1191 994 1439 701 
Q 1688 409 2113 409 
Q 2538 409 2786 701 
Q 3034 994 3034 1497 
Q 3034 2003 2786 2293 
Q 2538 2584 2113 2584 
z
M 3366 4563 
L 3366 3988 
Q 3128 4100 2886 4159 
Q 2644 4219 2406 4219 
Q 1781 4219 1451 3797 
Q 1122 3375 1075 2522 
Q 1259 2794 1537 2939 
Q 1816 3084 2150 3084 
Q 2853 3084 3261 2657 
Q 3669 2231 3669 1497 
Q 3669 778 3244 343 
Q 2819 -91 2113 -91 
Q 1303 -91 875 529 
Q 447 1150 447 2328 
Q 447 3434 972 4092 
Q 1497 4750 2381 4750 
Q 2619 4750 2861 4703 
Q 3103 4656 3366 4563 
z
" transform="scale(0.015625)"/>
        <path id="DejaVuSans-34" d="M 2419 4116 
L 825 1625 
L 2419 1625 
L 2419 4116 
z
M 2253 4666 
L 3047 4666 
L 3047 1625 
L 3713 1625 
L 3713 1100 
L 3047 1100 
L 3047 0 
L 2419 0 
L 2419 1100 
L 313 1100 
L 313 1709 
L 2253 4666 
z
" transform="scale(0.015625)"/>
       </defs>
       <use xlink:href="#DejaVuSans-36"/>
       <use xlink:href="#DejaVuSans-34" transform="translate(63.623047 0)"/>
      </g>
     </g>
    </g>
    <g id="xtick_2">
     <g id="line2d_2">
      <path d="M 106.393198 301.735725 
L 106.393198 35.623725 
" clip-path="url(#p0374fb5fef)" style="fill: none; stroke: #cccccc; stroke-width: 0.8; stroke-linecap: round"/>
     </g>
     <g id="text_2">
      <!-- 32 -->
      <g style="fill: #262626" transform="translate(100.030698 316.334162) scale(0.1 -0.1)">
       <defs>
        <path id="DejaVuSans-33" d="M 2597 2516 
Q 3050 2419 3304 2112 
Q 3559 1806 3559 1356 
Q 3559 666 3084 287 
Q 2609 -91 1734 -91 
Q 1441 -91 1130 -33 
Q 819 25 488 141 
L 488 750 
Q 750 597 1062 519 
Q 1375 441 1716 441 
Q 2309 441 2620 675 
Q 2931 909 2931 1356 
Q 2931 1769 2642 2001 
Q 2353 2234 1838 2234 
L 1294 2234 
L 1294 2753 
L 1863 2753 
Q 2328 2753 2575 2939 
Q 2822 3125 2822 3475 
Q 2822 3834 2567 4026 
Q 2313 4219 1838 4219 
Q 1578 4219 1281 4162 
Q 984 4106 628 3988 
L 628 4550 
Q 988 4650 1302 4700 
Q 1616 4750 1894 4750 
Q 2613 4750 3031 4423 
Q 3450 4097 3450 3541 
Q 3450 3153 3228 2886 
Q 3006 2619 2597 2516 
z
" transform="scale(0.015625)"/>
        <path id="DejaVuSans-32" d="M 1228 531 
L 3431 531 
L 3431 0 
L 469 0 
L 469 531 
Q 828 903 1448 1529 
Q 2069 2156 2228 2338 
Q 2531 2678 2651 2914 
Q 2772 3150 2772 3378 
Q 2772 3750 2511 3984 
Q 2250 4219 1831 4219 
Q 1534 4219 1204 4116 
Q 875 4013 500 3803 
L 500 4441 
Q 881 4594 1212 4672 
Q 1544 4750 1819 4750 
Q 2544 4750 2975 4387 
Q 3406 4025 3406 3419 
Q 3406 3131 3298 2873 
Q 3191 2616 2906 2266 
Q 2828 2175 2409 1742 
Q 1991 1309 1228 531 
z
" transform="scale(0.015625)"/>
       </defs>
       <use xlink:href="#DejaVuSans-33"/>
       <use xlink:href="#DejaVuSans-32" transform="translate(63.623047 0)"/>
      </g>
     </g>
    </g>
    <g id="xtick_3">
     <g id="line2d_3">
      <path d="M 60.013977 301.735725 
L 60.013977 35.623725 
" clip-path="url(#p0374fb5fef)" style="fill: none; stroke: #cccccc; stroke-width: 0.8; stroke-linecap: round"/>
     </g>
     <g id="text_3">
      <!-- 16 -->
      <g style="fill: #262626" transform="translate(53.651477 316.334162) scale(0.1 -0.1)">
       <defs>
        <path id="DejaVuSans-31" d="M 794 531 
L 1825 531 
L 1825 4091 
L 703 3866 
L 703 4441 
L 1819 4666 
L 2450 4666 
L 2450 531 
L 3481 531 
L 3481 0 
L 794 0 
L 794 531 
z
" transform="scale(0.015625)"/>
       </defs>
       <use xlink:href="#DejaVuSans-31"/>
       <use xlink:href="#DejaVuSans-36" transform="translate(63.623047 0)"/>
      </g>
     </g>
    </g>
    <g id="xtick_4">
     <g id="line2d_4">
      <path d="M 384.668523 301.735725 
L 384.668523 35.623725 
" clip-path="url(#p0374fb5fef)" style="fill: none; stroke: #cccccc; stroke-width: 0.8; stroke-linecap: round"/>
     </g>
     <g id="text_4">
      <!-- 128 -->
      <g style="fill: #262626" transform="translate(375.124773 316.334162) scale(0.1 -0.1)">
       <defs>
        <path id="DejaVuSans-38" d="M 2034 2216 
Q 1584 2216 1326 1975 
Q 1069 1734 1069 1313 
Q 1069 891 1326 650 
Q 1584 409 2034 409 
Q 2484 409 2743 651 
Q 3003 894 3003 1313 
Q 3003 1734 2745 1975 
Q 2488 2216 2034 2216 
z
M 1403 2484 
Q 997 2584 770 2862 
Q 544 3141 544 3541 
Q 544 4100 942 4425 
Q 1341 4750 2034 4750 
Q 2731 4750 3128 4425 
Q 3525 4100 3525 3541 
Q 3525 3141 3298 2862 
Q 3072 2584 2669 2484 
Q 3125 2378 3379 2068 
Q 3634 1759 3634 1313 
Q 3634 634 3220 271 
Q 2806 -91 2034 -91 
Q 1263 -91 848 271 
Q 434 634 434 1313 
Q 434 1759 690 2068 
Q 947 2378 1403 2484 
z
M 1172 3481 
Q 1172 3119 1398 2916 
Q 1625 2713 2034 2713 
Q 2441 2713 2670 2916 
Q 2900 3119 2900 3481 
Q 2900 3844 2670 4047 
Q 2441 4250 2034 4250 
Q 1625 4250 1398 4047 
Q 1172 3844 1172 3481 
z
" transform="scale(0.015625)"/>
       </defs>
       <use xlink:href="#DejaVuSans-31"/>
       <use xlink:href="#DejaVuSans-32" transform="translate(63.623047 0)"/>
       <use xlink:href="#DejaVuSans-38" transform="translate(127.246094 0)"/>
      </g>
     </g>
    </g>
    <g id="text_5">
     <!-- Number of Jobs -->
     <g style="fill: #262626" transform="translate(183.944375 330.012287) scale(0.1 -0.1)">
      <defs>
       <path id="DejaVuSans-4e" d="M 628 4666 
L 1478 4666 
L 3547 763 
L 3547 4666 
L 4159 4666 
L 4159 0 
L 3309 0 
L 1241 3903 
L 1241 0 
L 628 0 
L 628 4666 
z
" transform="scale(0.015625)"/>
       <path id="DejaVuSans-75" d="M 544 1381 
L 544 3500 
L 1119 3500 
L 1119 1403 
Q 1119 906 1312 657 
Q 1506 409 1894 409 
Q 2359 409 2629 706 
Q 2900 1003 2900 1516 
L 2900 3500 
L 3475 3500 
L 3475 0 
L 2900 0 
L 2900 538 
Q 2691 219 2414 64 
Q 2138 -91 1772 -91 
Q 1169 -91 856 284 
Q 544 659 544 1381 
z
M 1991 3584 
L 1991 3584 
z
" transform="scale(0.015625)"/>
       <path id="DejaVuSans-6d" d="M 3328 2828 
Q 3544 3216 3844 3400 
Q 4144 3584 4550 3584 
Q 5097 3584 5394 3201 
Q 5691 2819 5691 2113 
L 5691 0 
L 5113 0 
L 5113 2094 
Q 5113 2597 4934 2840 
Q 4756 3084 4391 3084 
Q 3944 3084 3684 2787 
Q 3425 2491 3425 1978 
L 3425 0 
L 2847 0 
L 2847 2094 
Q 2847 2600 2669 2842 
Q 2491 3084 2119 3084 
Q 1678 3084 1418 2786 
Q 1159 2488 1159 1978 
L 1159 0 
L 581 0 
L 581 3500 
L 1159 3500 
L 1159 2956 
Q 1356 3278 1631 3431 
Q 1906 3584 2284 3584 
Q 2666 3584 2933 3390 
Q 3200 3197 3328 2828 
z
" transform="scale(0.015625)"/>
       <path id="DejaVuSans-62" d="M 3116 1747 
Q 3116 2381 2855 2742 
Q 2594 3103 2138 3103 
Q 1681 3103 1420 2742 
Q 1159 2381 1159 1747 
Q 1159 1113 1420 752 
Q 1681 391 2138 391 
Q 2594 391 2855 752 
Q 3116 1113 3116 1747 
z
M 1159 2969 
Q 1341 3281 1617 3432 
Q 1894 3584 2278 3584 
Q 2916 3584 3314 3078 
Q 3713 2572 3713 1747 
Q 3713 922 3314 415 
Q 2916 -91 2278 -91 
Q 1894 -91 1617 61 
Q 1341 213 1159 525 
L 1159 0 
L 581 0 
L 581 4863 
L 1159 4863 
L 1159 2969 
z
" transform="scale(0.015625)"/>
       <path id="DejaVuSans-65" d="M 3597 1894 
L 3597 1613 
L 953 1613 
Q 991 1019 1311 708 
Q 1631 397 2203 397 
Q 2534 397 2845 478 
Q 3156 559 3463 722 
L 3463 178 
Q 3153 47 2828 -22 
Q 2503 -91 2169 -91 
Q 1331 -91 842 396 
Q 353 884 353 1716 
Q 353 2575 817 3079 
Q 1281 3584 2069 3584 
Q 2775 3584 3186 3129 
Q 3597 2675 3597 1894 
z
M 3022 2063 
Q 3016 2534 2758 2815 
Q 2500 3097 2075 3097 
Q 1594 3097 1305 2825 
Q 1016 2553 972 2059 
L 3022 2063 
z
" transform="scale(0.015625)"/>
       <path id="DejaVuSans-72" d="M 2631 2963 
Q 2534 3019 2420 3045 
Q 2306 3072 2169 3072 
Q 1681 3072 1420 2755 
Q 1159 2438 1159 1844 
L 1159 0 
L 581 0 
L 581 3500 
L 1159 3500 
L 1159 2956 
Q 1341 3275 1631 3429 
Q 1922 3584 2338 3584 
Q 2397 3584 2469 3576 
Q 2541 3569 2628 3553 
L 2631 2963 
z
" transform="scale(0.015625)"/>
       <path id="DejaVuSans-20" transform="scale(0.015625)"/>
       <path id="DejaVuSans-6f" d="M 1959 3097 
Q 1497 3097 1228 2736 
Q 959 2375 959 1747 
Q 959 1119 1226 758 
Q 1494 397 1959 397 
Q 2419 397 2687 759 
Q 2956 1122 2956 1747 
Q 2956 2369 2687 2733 
Q 2419 3097 1959 3097 
z
M 1959 3584 
Q 2709 3584 3137 3096 
Q 3566 2609 3566 1747 
Q 3566 888 3137 398 
Q 2709 -91 1959 -91 
Q 1206 -91 779 398 
Q 353 888 353 1747 
Q 353 2609 779 3096 
Q 1206 3584 1959 3584 
z
" transform="scale(0.015625)"/>
       <path id="DejaVuSans-66" d="M 2375 4863 
L 2375 4384 
L 1825 4384 
Q 1516 4384 1395 4259 
Q 1275 4134 1275 3809 
L 1275 3500 
L 2222 3500 
L 2222 3053 
L 1275 3053 
L 1275 0 
L 697 0 
L 697 3053 
L 147 3053 
L 147 3500 
L 697 3500 
L 697 3744 
Q 697 4328 969 4595 
Q 1241 4863 1831 4863 
L 2375 4863 
z
" transform="scale(0.015625)"/>
       <path id="DejaVuSans-4a" d="M 628 4666 
L 1259 4666 
L 1259 325 
Q 1259 -519 939 -900 
Q 619 -1281 -91 -1281 
L -331 -1281 
L -331 -750 
L -134 -750 
Q 284 -750 456 -515 
Q 628 -281 628 325 
L 628 4666 
z
" transform="scale(0.015625)"/>
       <path id="DejaVuSans-73" d="M 2834 3397 
L 2834 2853 
Q 2591 2978 2328 3040 
Q 2066 3103 1784 3103 
Q 1356 3103 1142 2972 
Q 928 2841 928 2578 
Q 928 2378 1081 2264 
Q 1234 2150 1697 2047 
L 1894 2003 
Q 2506 1872 2764 1633 
Q 3022 1394 3022 966 
Q 3022 478 2636 193 
Q 2250 -91 1575 -91 
Q 1294 -91 989 -36 
Q 684 19 347 128 
L 347 722 
Q 666 556 975 473 
Q 1284 391 1588 391 
Q 1994 391 2212 530 
Q 2431 669 2431 922 
Q 2431 1156 2273 1281 
Q 2116 1406 1581 1522 
L 1381 1569 
Q 847 1681 609 1914 
Q 372 2147 372 2553 
Q 372 3047 722 3315 
Q 1072 3584 1716 3584 
Q 2034 3584 2315 3537 
Q 2597 3491 2834 3397 
z
" transform="scale(0.015625)"/>
      </defs>
      <use xlink:href="#DejaVuSans-4e"/>
      <use xlink:href="#DejaVuSans-75" transform="translate(74.804688 0)"/>
      <use xlink:href="#DejaVuSans-6d" transform="translate(138.183594 0)"/>
      <use xlink:href="#DejaVuSans-62" transform="translate(235.595703 0)"/>
      <use xlink:href="#DejaVuSans-65" transform="translate(299.072266 0)"/>
      <use xlink:href="#DejaVuSans-72" transform="translate(360.595703 0)"/>
      <use xlink:href="#DejaVuSans-20" transform="translate(401.708984 0)"/>
      <use xlink:href="#DejaVuSans-6f" transform="translate(433.496094 0)"/>
      <use xlink:href="#DejaVuSans-66" transform="translate(494.677734 0)"/>
      <use xlink:href="#DejaVuSans-20" transform="translate(529.882812 0)"/>
      <use xlink:href="#DejaVuSans-4a" transform="translate(561.669922 0)"/>
      <use xlink:href="#DejaVuSans-6f" transform="translate(591.162109 0)"/>
      <use xlink:href="#DejaVuSans-62" transform="translate(652.34375 0)"/>
      <use xlink:href="#DejaVuSans-73" transform="translate(715.820312 0)"/>
     </g>
    </g>
   </g>
   <g id="matplotlib.axis_2">
    <g id="ytick_1">
     <g id="line2d_5">
      <path d="M 43.78125 275.431222 
L 400.90125 275.431222 
" clip-path="url(#p0374fb5fef)" style="fill: none; stroke: #cccccc; stroke-width: 0.8; stroke-linecap: round"/>
     </g>
     <g id="text_6">
      <!-- 0.5 -->
      <g style="fill: #262626" transform="translate(20.878125 279.230441) scale(0.1 -0.1)">
       <defs>
        <path id="DejaVuSans-30" d="M 2034 4250 
Q 1547 4250 1301 3770 
Q 1056 3291 1056 2328 
Q 1056 1369 1301 889 
Q 1547 409 2034 409 
Q 2525 409 2770 889 
Q 3016 1369 3016 2328 
Q 3016 3291 2770 3770 
Q 2525 4250 2034 4250 
z
M 2034 4750 
Q 2819 4750 3233 4129 
Q 3647 3509 3647 2328 
Q 3647 1150 3233 529 
Q 2819 -91 2034 -91 
Q 1250 -91 836 529 
Q 422 1150 422 2328 
Q 422 3509 836 4129 
Q 1250 4750 2034 4750 
z
" transform="scale(0.015625)"/>
        <path id="DejaVuSans-2e" d="M 684 794 
L 1344 794 
L 1344 0 
L 684 0 
L 684 794 
z
" transform="scale(0.015625)"/>
        <path id="DejaVuSans-35" d="M 691 4666 
L 3169 4666 
L 3169 4134 
L 1269 4134 
L 1269 2991 
Q 1406 3038 1543 3061 
Q 1681 3084 1819 3084 
Q 2600 3084 3056 2656 
Q 3513 2228 3513 1497 
Q 3513 744 3044 326 
Q 2575 -91 1722 -91 
Q 1428 -91 1123 -41 
Q 819 9 494 109 
L 494 744 
Q 775 591 1075 516 
Q 1375 441 1709 441 
Q 2250 441 2565 725 
Q 2881 1009 2881 1497 
Q 2881 1984 2565 2268 
Q 2250 2553 1709 2553 
Q 1456 2553 1204 2497 
Q 953 2441 691 2322 
L 691 4666 
z
" transform="scale(0.015625)"/>
       </defs>
       <use xlink:href="#DejaVuSans-30"/>
       <use xlink:href="#DejaVuSans-2e" transform="translate(63.623047 0)"/>
       <use xlink:href="#DejaVuSans-35" transform="translate(95.410156 0)"/>
      </g>
     </g>
    </g>
    <g id="ytick_2">
     <g id="line2d_6">
      <path d="M 43.78125 235.078004 
L 400.90125 235.078004 
" clip-path="url(#p0374fb5fef)" style="fill: none; stroke: #cccccc; stroke-width: 0.8; stroke-linecap: round"/>
     </g>
     <g id="text_7">
      <!-- 1.0 -->
      <g style="fill: #262626" transform="translate(20.878125 238.877223) scale(0.1 -0.1)">
       <use xlink:href="#DejaVuSans-31"/>
       <use xlink:href="#DejaVuSans-2e" transform="translate(63.623047 0)"/>
       <use xlink:href="#DejaVuSans-30" transform="translate(95.410156 0)"/>
      </g>
     </g>
    </g>
    <g id="ytick_3">
     <g id="line2d_7">
      <path d="M 43.78125 194.724786 
L 400.90125 194.724786 
" clip-path="url(#p0374fb5fef)" style="fill: none; stroke: #cccccc; stroke-width: 0.8; stroke-linecap: round"/>
     </g>
     <g id="text_8">
      <!-- 1.5 -->
      <g style="fill: #262626" transform="translate(20.878125 198.524005) scale(0.1 -0.1)">
       <use xlink:href="#DejaVuSans-31"/>
       <use xlink:href="#DejaVuSans-2e" transform="translate(63.623047 0)"/>
       <use xlink:href="#DejaVuSans-35" transform="translate(95.410156 0)"/>
      </g>
     </g>
    </g>
    <g id="ytick_4">
     <g id="line2d_8">
      <path d="M 43.78125 154.371568 
L 400.90125 154.371568 
" clip-path="url(#p0374fb5fef)" style="fill: none; stroke: #cccccc; stroke-width: 0.8; stroke-linecap: round"/>
     </g>
     <g id="text_9">
      <!-- 2.0 -->
      <g style="fill: #262626" transform="translate(20.878125 158.170787) scale(0.1 -0.1)">
       <use xlink:href="#DejaVuSans-32"/>
       <use xlink:href="#DejaVuSans-2e" transform="translate(63.623047 0)"/>
       <use xlink:href="#DejaVuSans-30" transform="translate(95.410156 0)"/>
      </g>
     </g>
    </g>
    <g id="ytick_5">
     <g id="line2d_9">
      <path d="M 43.78125 114.01835 
L 400.90125 114.01835 
" clip-path="url(#p0374fb5fef)" style="fill: none; stroke: #cccccc; stroke-width: 0.8; stroke-linecap: round"/>
     </g>
     <g id="text_10">
      <!-- 2.5 -->
      <g style="fill: #262626" transform="translate(20.878125 117.817569) scale(0.1 -0.1)">
       <use xlink:href="#DejaVuSans-32"/>
       <use xlink:href="#DejaVuSans-2e" transform="translate(63.623047 0)"/>
       <use xlink:href="#DejaVuSans-35" transform="translate(95.410156 0)"/>
      </g>
     </g>
    </g>
    <g id="ytick_6">
     <g id="line2d_10">
      <path d="M 43.78125 73.665132 
L 400.90125 73.665132 
" clip-path="url(#p0374fb5fef)" style="fill: none; stroke: #cccccc; stroke-width: 0.8; stroke-linecap: round"/>
     </g>
     <g id="text_11">
      <!-- 3.0 -->
      <g style="fill: #262626" transform="translate(20.878125 77.464351) scale(0.1 -0.1)">
       <use xlink:href="#DejaVuSans-33"/>
       <use xlink:href="#DejaVuSans-2e" transform="translate(63.623047 0)"/>
       <use xlink:href="#DejaVuSans-30" transform="translate(95.410156 0)"/>
      </g>
     </g>
    </g>
    <g id="text_12">
     <!-- Mean Latency (ns) -->
     <g style="fill: #262626" transform="translate(14.798438 214.92035) rotate(-90) scale(0.1 -0.1)">
      <defs>
       <path id="DejaVuSans-4d" d="M 628 4666 
L 1569 4666 
L 2759 1491 
L 3956 4666 
L 4897 4666 
L 4897 0 
L 4281 0 
L 4281 4097 
L 3078 897 
L 2444 897 
L 1241 4097 
L 1241 0 
L 628 0 
L 628 4666 
z
" transform="scale(0.015625)"/>
       <path id="DejaVuSans-61" d="M 2194 1759 
Q 1497 1759 1228 1600 
Q 959 1441 959 1056 
Q 959 750 1161 570 
Q 1363 391 1709 391 
Q 2188 391 2477 730 
Q 2766 1069 2766 1631 
L 2766 1759 
L 2194 1759 
z
M 3341 1997 
L 3341 0 
L 2766 0 
L 2766 531 
Q 2569 213 2275 61 
Q 1981 -91 1556 -91 
Q 1019 -91 701 211 
Q 384 513 384 1019 
Q 384 1609 779 1909 
Q 1175 2209 1959 2209 
L 2766 2209 
L 2766 2266 
Q 2766 2663 2505 2880 
Q 2244 3097 1772 3097 
Q 1472 3097 1187 3025 
Q 903 2953 641 2809 
L 641 3341 
Q 956 3463 1253 3523 
Q 1550 3584 1831 3584 
Q 2591 3584 2966 3190 
Q 3341 2797 3341 1997 
z
" transform="scale(0.015625)"/>
       <path id="DejaVuSans-6e" d="M 3513 2113 
L 3513 0 
L 2938 0 
L 2938 2094 
Q 2938 2591 2744 2837 
Q 2550 3084 2163 3084 
Q 1697 3084 1428 2787 
Q 1159 2491 1159 1978 
L 1159 0 
L 581 0 
L 581 3500 
L 1159 3500 
L 1159 2956 
Q 1366 3272 1645 3428 
Q 1925 3584 2291 3584 
Q 2894 3584 3203 3211 
Q 3513 2838 3513 2113 
z
" transform="scale(0.015625)"/>
       <path id="DejaVuSans-4c" d="M 628 4666 
L 1259 4666 
L 1259 531 
L 3531 531 
L 3531 0 
L 628 0 
L 628 4666 
z
" transform="scale(0.015625)"/>
       <path id="DejaVuSans-74" d="M 1172 4494 
L 1172 3500 
L 2356 3500 
L 2356 3053 
L 1172 3053 
L 1172 1153 
Q 1172 725 1289 603 
Q 1406 481 1766 481 
L 2356 481 
L 2356 0 
L 1766 0 
Q 1100 0 847 248 
Q 594 497 594 1153 
L 594 3053 
L 172 3053 
L 172 3500 
L 594 3500 
L 594 4494 
L 1172 4494 
z
" transform="scale(0.015625)"/>
       <path id="DejaVuSans-63" d="M 3122 3366 
L 3122 2828 
Q 2878 2963 2633 3030 
Q 2388 3097 2138 3097 
Q 1578 3097 1268 2742 
Q 959 2388 959 1747 
Q 959 1106 1268 751 
Q 1578 397 2138 397 
Q 2388 397 2633 464 
Q 2878 531 3122 666 
L 3122 134 
Q 2881 22 2623 -34 
Q 2366 -91 2075 -91 
Q 1284 -91 818 406 
Q 353 903 353 1747 
Q 353 2603 823 3093 
Q 1294 3584 2113 3584 
Q 2378 3584 2631 3529 
Q 2884 3475 3122 3366 
z
" transform="scale(0.015625)"/>
       <path id="DejaVuSans-79" d="M 2059 -325 
Q 1816 -950 1584 -1140 
Q 1353 -1331 966 -1331 
L 506 -1331 
L 506 -850 
L 844 -850 
Q 1081 -850 1212 -737 
Q 1344 -625 1503 -206 
L 1606 56 
L 191 3500 
L 800 3500 
L 1894 763 
L 2988 3500 
L 3597 3500 
L 2059 -325 
z
" transform="scale(0.015625)"/>
       <path id="DejaVuSans-28" d="M 1984 4856 
Q 1566 4138 1362 3434 
Q 1159 2731 1159 2009 
Q 1159 1288 1364 580 
Q 1569 -128 1984 -844 
L 1484 -844 
Q 1016 -109 783 600 
Q 550 1309 550 2009 
Q 550 2706 781 3412 
Q 1013 4119 1484 4856 
L 1984 4856 
z
" transform="scale(0.015625)"/>
       <path id="DejaVuSans-29" d="M 513 4856 
L 1013 4856 
Q 1481 4119 1714 3412 
Q 1947 2706 1947 2009 
Q 1947 1309 1714 600 
Q 1481 -109 1013 -844 
L 513 -844 
Q 928 -128 1133 580 
Q 1338 1288 1338 2009 
Q 1338 2731 1133 3434 
Q 928 4138 513 4856 
z
" transform="scale(0.015625)"/>
      </defs>
      <use xlink:href="#DejaVuSans-4d"/>
      <use xlink:href="#DejaVuSans-65" transform="translate(86.279297 0)"/>
      <use xlink:href="#DejaVuSans-61" transform="translate(147.802734 0)"/>
      <use xlink:href="#DejaVuSans-6e" transform="translate(209.082031 0)"/>
      <use xlink:href="#DejaVuSans-20" transform="translate(272.460938 0)"/>
      <use xlink:href="#DejaVuSans-4c" transform="translate(304.248047 0)"/>
      <use xlink:href="#DejaVuSans-61" transform="translate(359.960938 0)"/>
      <use xlink:href="#DejaVuSans-74" transform="translate(421.240234 0)"/>
      <use xlink:href="#DejaVuSans-65" transform="translate(460.449219 0)"/>
      <use xlink:href="#DejaVuSans-6e" transform="translate(521.972656 0)"/>
      <use xlink:href="#DejaVuSans-63" transform="translate(585.351562 0)"/>
      <use xlink:href="#DejaVuSans-79" transform="translate(640.332031 0)"/>
      <use xlink:href="#DejaVuSans-20" transform="translate(699.511719 0)"/>
      <use xlink:href="#DejaVuSans-28" transform="translate(731.298828 0)"/>
      <use xlink:href="#DejaVuSans-6e" transform="translate(770.3125 0)"/>
      <use xlink:href="#DejaVuSans-73" transform="translate(833.691406 0)"/>
      <use xlink:href="#DejaVuSans-29" transform="translate(885.791016 0)"/>
     </g>
    </g>
    <g id="text_13">
     <!-- 1e6 -->
     <g style="fill: #262626" transform="translate(43.78125 32.623725) scale(0.1 -0.1)">
      <use xlink:href="#DejaVuSans-31"/>
      <use xlink:href="#DejaVuSans-65" transform="translate(63.623047 0)"/>
      <use xlink:href="#DejaVuSans-36" transform="translate(125.146484 0)"/>
     </g>
    </g>
   </g>
   <g id="FillBetweenPolyCollection_1"/>
   <g id="FillBetweenPolyCollection_2"/>
   <g id="FillBetweenPolyCollection_3"/>
   <g id="FillBetweenPolyCollection_4"/>
   <g id="FillBetweenPolyCollection_5"/>
   <g id="FillBetweenPolyCollection_6"/>
   <g id="FillBetweenPolyCollection_7"/>
   <g id="line2d_11">
    <path d="M 60.013977 289.639725 
L 106.393198 264.827638 
L 199.15164 193.84466 
L 384.668523 47.719725 
" clip-path="url(#p0374fb5fef)" style="fill: none; stroke: #4c02a1; stroke-width: 1.5; stroke-linecap: round"/>
   </g>
   <g id="line2d_12">
    <path d="M 60.013977 261.875566 
L 106.393198 249.881677 
L 199.15164 200.904232 
L 384.668523 90.432248 
" clip-path="url(#p0374fb5fef)" style="fill: none; stroke: #7e03a8; stroke-width: 1.5; stroke-linecap: round"/>
   </g>
   <g id="line2d_13">
    <path d="M 60.013977 287.818786 
L 106.393198 259.729638 
L 199.15164 195.679689 
L 384.668523 71.351017 
" clip-path="url(#p0374fb5fef)" style="fill: none; stroke: #aa2395; stroke-width: 1.5; stroke-linecap: round"/>
   </g>
   <g id="line2d_14">
    <path d="M 60.013977 283.848059 
L 106.393198 259.931925 
L 199.15164 201.050949 
L 384.668523 58.292969 
" clip-path="url(#p0374fb5fef)" style="fill: none; stroke: #cc4778; stroke-width: 1.5; stroke-linecap: round"/>
   </g>
   <g id="line2d_15">
    <path d="M 60.013977 287.767951 
L 106.393198 260.033017 
L 199.15164 194.403109 
L 384.668523 83.714296 
" clip-path="url(#p0374fb5fef)" style="fill: none; stroke: #e66c5c; stroke-width: 1.5; stroke-linecap: round"/>
   </g>
   <g id="line2d_16">
    <path d="M 60.013977 283.663702 
L 106.393198 258.038732 
L 199.15164 195.597947 
L 384.668523 89.715215 
" clip-path="url(#p0374fb5fef)" style="fill: none; stroke: #f89540; stroke-width: 1.5; stroke-linecap: round"/>
   </g>
   <g id="line2d_17">
    <path d="M 60.013977 289.547468 
L 106.393198 257.457793 
L 199.15164 192.83527 
L 384.668523 93.997573 
" clip-path="url(#p0374fb5fef)" style="fill: none; stroke: #fdc527; stroke-width: 1.5; stroke-linecap: round"/>
   </g>
   <g id="line2d_18"/>
   <g id="line2d_19"/>
   <g id="line2d_20"/>
   <g id="line2d_21"/>
   <g id="line2d_22"/>
   <g id="line2d_23"/>
   <g id="line2d_24"/>
   <g id="text_14">
    <path d="M 101.01238 269.894763 
L 102.432821 269.134851 
L 99.808878 264.230126 
L 98.428902 265.3671 
L 98.005091 264.574904 
L 99.3768 263.442353 
L 100.246149 262.977266 
L 103.293903 268.674187 
L 104.714345 267.914275 
L 105.105725 268.64585 
L 101.40376 270.626338 
L 101.01238 269.894763 
z
" clip-path="url(#p0374fb5fef)" style="fill: #4c02a1; stroke: #ffffff; stroke-width: 5"/>
    <path d="M 101.01238 269.894763 
L 102.432821 269.134851 
L 99.808878 264.230126 
L 98.428902 265.3671 
L 98.005091 264.574904 
L 99.3768 263.442353 
L 100.246149 262.977266 
L 103.293903 268.674187 
L 104.714345 267.914275 
L 105.105725 268.64585 
L 101.40376 270.626338 
L 101.01238 269.894763 
z
" clip-path="url(#p0374fb5fef)" style="fill: #4c02a1"/>
   </g>
   <g id="text_15">
    <path d="M 140.803977 227.560122 
L 140.418857 232.164905 
L 142.621316 231.001983 
L 140.803977 227.560122 
z
M 140.173353 226.921285 
L 141.270437 226.342012 
L 143.489035 230.543818 
L 144.40926 230.057929 
L 144.79228 230.783332 
L 143.872056 231.26922 
L 144.674574 232.78911 
L 143.806855 233.247275 
L 143.004336 231.727385 
L 140.094438 233.263842 
L 139.650134 232.422376 
L 140.173353 226.921285 
z
" clip-path="url(#p0374fb5fef)" style="fill: #7e03a8; stroke: #ffffff; stroke-width: 5"/>
    <path d="M 140.803977 227.560122 
L 140.418857 232.164905 
L 142.621316 231.001983 
L 140.803977 227.560122 
z
M 140.173353 226.921285 
L 141.270437 226.342012 
L 143.489035 230.543818 
L 144.40926 230.057929 
L 144.79228 230.783332 
L 143.872056 231.26922 
L 144.674574 232.78911 
L 143.806855 233.247275 
L 143.004336 231.727385 
L 140.094438 233.263842 
L 139.650134 232.422376 
L 140.173353 226.921285 
z
" clip-path="url(#p0374fb5fef)" style="fill: #7e03a8"/>
   </g>
   <g id="text_16">
    <path d="M 181.763159 206.832019 
Q 181.184567 207.231539 181.066805 207.770465 
Q 180.95033 208.308503 181.324103 208.849808 
Q 181.698763 209.392399 182.243168 209.474098 
Q 182.788859 209.554908 183.367452 209.155389 
Q 183.946044 208.755869 184.064203 208.21477 
Q 184.18276 207.671496 183.810763 207.132763 
Q 183.436991 206.591457 182.8913 206.510647 
Q 182.346894 206.428949 181.763159 206.832019 
z
M 180.713908 207.047651 
Q 180.103107 207.27953 179.564425 207.123624 
Q 179.026141 206.965544 178.671013 206.45124 
Q 178.174721 205.7325 178.397912 204.961275 
Q 178.622389 204.189162 179.513421 203.573902 
Q 180.409596 202.955091 181.208584 203.020498 
Q 182.007573 203.085905 182.503865 203.804646 
Q 182.858993 204.31895 182.814828 204.879212 
Q 182.77106 205.437301 182.341681 205.923669 
Q 183.022097 205.655114 183.623904 205.828193 
Q 184.22611 205.999098 184.622078 206.572548 
Q 185.224909 207.445579 185.014883 208.279868 
Q 184.803969 209.112871 183.811362 209.798269 
Q 182.820041 210.482779 181.965059 210.385779 
Q 181.110475 210.286606 180.507645 209.413575 
Q 180.111676 208.840126 180.166494 208.215543 
Q 180.22171 207.588788 180.713908 207.047651 
z
M 179.53174 205.970834 
Q 179.853131 206.436279 180.323941 206.496641 
Q 180.796036 206.556115 181.321912 206.192996 
Q 181.845216 205.831653 181.959428 205.367333 
Q 182.074925 204.902125 181.753534 204.436679 
Q 181.431255 203.969948 180.955302 203.913138 
Q 180.480636 203.855439 179.957331 204.216783 
Q 179.431455 204.579901 179.319815 205.042446 
Q 179.209461 205.504103 179.53174 205.970834 
z
" clip-path="url(#p0374fb5fef)" style="fill: #aa2395; stroke: #ffffff; stroke-width: 5"/>
    <path d="M 181.763159 206.832019 
Q 181.184567 207.231539 181.066805 207.770465 
Q 180.95033 208.308503 181.324103 208.849808 
Q 181.698763 209.392399 182.243168 209.474098 
Q 182.788859 209.554908 183.367452 209.155389 
Q 183.946044 208.755869 184.064203 208.21477 
Q 184.18276 207.671496 183.810763 207.132763 
Q 183.436991 206.591457 182.8913 206.510647 
Q 182.346894 206.428949 181.763159 206.832019 
z
M 180.713908 207.047651 
Q 180.103107 207.27953 179.564425 207.123624 
Q 179.026141 206.965544 178.671013 206.45124 
Q 178.174721 205.7325 178.397912 204.961275 
Q 178.622389 204.189162 179.513421 203.573902 
Q 180.409596 202.955091 181.208584 203.020498 
Q 182.007573 203.085905 182.503865 203.804646 
Q 182.858993 204.31895 182.814828 204.879212 
Q 182.77106 205.437301 182.341681 205.923669 
Q 183.022097 205.655114 183.623904 205.828193 
Q 184.22611 205.999098 184.622078 206.572548 
Q 185.224909 207.445579 185.014883 208.279868 
Q 184.803969 209.112871 183.811362 209.798269 
Q 182.820041 210.482779 181.965059 210.385779 
Q 181.110475 210.286606 180.507645 209.413575 
Q 180.111676 208.840126 180.166494 208.215543 
Q 180.22171 207.588788 180.713908 207.047651 
z
M 179.53174 205.970834 
Q 179.853131 206.436279 180.323941 206.496641 
Q 180.796036 206.556115 181.321912 206.192996 
Q 181.845216 205.831653 181.959428 205.367333 
Q 182.074925 204.902125 181.753534 204.436679 
Q 181.431255 203.969948 180.955302 203.913138 
Q 180.480636 203.855439 179.957331 204.216783 
Q 179.431455 204.579901 179.319815 205.042446 
Q 179.209461 205.504103 179.53174 205.970834 
z
" clip-path="url(#p0374fb5fef)" style="fill: #aa2395"/>
   </g>
   <g id="text_17">
    <path d="M 219.45891 187.859095 
L 220.735603 186.876661 
L 217.3433 182.468295 
L 216.168323 183.816061 
L 215.620409 183.104035 
L 216.787956 181.761987 
L 217.569327 181.160711 
L 221.509543 186.281102 
L 222.786236 185.298668 
L 223.292223 185.956208 
L 219.964897 188.516635 
L 219.45891 187.859095 
z
M 224.178166 180.179922 
Q 223.651887 180.584902 223.620841 181.182519 
Q 223.590081 181.777945 224.072245 182.404528 
Q 224.551551 183.027395 225.137848 183.153901 
Q 225.724431 183.278215 226.250711 182.873235 
Q 226.77699 182.468255 226.805845 181.870353 
Q 226.833747 181.271212 226.354441 180.648344 
Q 225.872277 180.021762 225.288838 179.898971 
Q 224.704446 179.774942 224.178166 180.179922 
z
M 223.843985 176.53534 
L 224.391899 177.247366 
Q 223.990459 177.335464 223.634568 177.493005 
Q 223.277725 177.649307 222.983008 177.876095 
Q 222.209067 178.471654 222.202548 179.308674 
Q 222.197267 180.144741 222.951885 181.245801 
Q 222.920546 180.733649 223.126625 180.289191 
Q 223.333943 179.843779 223.747537 179.525512 
Q 224.618065 178.855628 225.530179 178.995603 
Q 226.441341 179.134341 227.140765 180.043256 
Q 227.825896 180.933598 227.714125 181.87724 
Q 227.601401 182.819645 226.727158 183.492388 
Q 225.724131 184.264232 224.603342 183.904322 
Q 223.4816 183.543173 222.359091 182.084449 
Q 221.30519 180.714884 221.328296 179.39981 
Q 221.351402 178.084736 222.446064 177.242378 
Q 222.74078 177.015589 223.085236 176.843189 
Q 223.429692 176.670789 223.843985 176.53534 
z
" clip-path="url(#p0374fb5fef)" style="fill: #cc4778; stroke: #ffffff; stroke-width: 5"/>
    <path d="M 219.45891 187.859095 
L 220.735603 186.876661 
L 217.3433 182.468295 
L 216.168323 183.816061 
L 215.620409 183.104035 
L 216.787956 181.761987 
L 217.569327 181.160711 
L 221.509543 186.281102 
L 222.786236 185.298668 
L 223.292223 185.956208 
L 219.964897 188.516635 
L 219.45891 187.859095 
z
M 224.178166 180.179922 
Q 223.651887 180.584902 223.620841 181.182519 
Q 223.590081 181.777945 224.072245 182.404528 
Q 224.551551 183.027395 225.137848 183.153901 
Q 225.724431 183.278215 226.250711 182.873235 
Q 226.77699 182.468255 226.805845 181.870353 
Q 226.833747 181.271212 226.354441 180.648344 
Q 225.872277 180.021762 225.288838 179.898971 
Q 224.704446 179.774942 224.178166 180.179922 
z
M 223.843985 176.53534 
L 224.391899 177.247366 
Q 223.990459 177.335464 223.634568 177.493005 
Q 223.277725 177.649307 222.983008 177.876095 
Q 222.209067 178.471654 222.202548 179.308674 
Q 222.197267 180.144741 222.951885 181.245801 
Q 222.920546 180.733649 223.126625 180.289191 
Q 223.333943 179.843779 223.747537 179.525512 
Q 224.618065 178.855628 225.530179 178.995603 
Q 226.441341 179.134341 227.140765 180.043256 
Q 227.825896 180.933598 227.714125 181.87724 
Q 227.601401 182.819645 226.727158 183.492388 
Q 225.724131 184.264232 224.603342 183.904322 
Q 223.4816 183.543173 222.359091 182.084449 
Q 221.30519 180.714884 221.328296 179.39981 
Q 221.351402 178.084736 222.446064 177.242378 
Q 222.74078 177.015589 223.085236 176.843189 
Q 223.429692 176.670789 223.843985 176.53534 
z
" clip-path="url(#p0374fb5fef)" style="fill: #cc4778"/>
   </g>
   <g id="text_18">
    <path d="M 259.937634 156.770478 
Q 260.623132 156.537965 261.209734 156.74655 
Q 261.796877 156.952993 262.157144 157.556808 
Q 262.709553 158.482658 262.375617 159.371486 
Q 262.040881 160.258972 260.866796 160.959491 
Q 260.473646 161.194065 260.009908 161.365224 
Q 259.54617 161.536383 259.009162 161.64573 
L 258.521601 160.828567 
Q 258.995646 160.824108 259.476738 160.678985 
Q 259.959171 160.53306 260.416728 160.260058 
Q 261.212422 159.785307 261.442387 159.222338 
Q 261.672351 158.65937 261.314486 158.059581 
Q 260.983842 157.505413 260.410321 157.425484 
Q 259.835999 157.344213 259.144966 157.756518 
L 258.415021 158.192041 
L 257.999513 157.495641 
L 258.763004 157.040104 
Q 259.386946 156.667828 259.569463 156.220505 
Q 259.75198 155.773181 259.471773 155.303547 
Q 259.18436 154.821837 258.688484 154.768361 
Q 258.19315 154.712742 257.555789 155.093023 
Q 257.206919 155.301177 256.854034 155.615437 
Q 256.50035 155.928354 256.117135 156.371699 
L 255.667202 155.617601 
Q 256.070194 155.195206 256.451494 154.87673 
Q 256.832793 154.558253 257.205816 154.335688 
Q 258.170578 153.760062 258.993249 153.864186 
Q 259.816461 153.966168 260.261591 154.712215 
Q 260.572221 155.232838 260.488097 155.768833 
Q 260.403974 156.304829 259.937634 156.770478 
z
M 265.153559 157.270071 
L 268.109569 155.506364 
L 268.534684 156.218866 
L 264.560239 158.590222 
L 264.135124 157.87772 
Q 264.319014 157.091154 264.649765 155.754813 
Q 264.981058 154.416329 265.048699 154.044825 
Q 265.183066 153.346029 265.155143 152.933291 
Q 265.128562 152.519752 264.946027 152.213819 
Q 264.648207 151.714665 264.110655 151.609636 
Q 263.572303 151.503265 263.010084 151.838713 
Q 262.611566 152.076489 262.25123 152.478892 
Q 261.892235 152.880493 261.55718 153.462496 
L 261.046402 152.60642 
Q 261.435141 152.096097 261.816835 151.72644 
Q 262.19987 151.355982 262.568868 151.135819 
Q 263.541681 150.555389 264.410617 150.697411 
Q 265.278752 150.838091 265.763911 151.651229 
Q 265.994482 152.03767 266.056119 152.470321 
Q 266.118298 152.90083 266.016089 153.598633 
Q 265.984282 153.783184 265.76872 154.699637 
Q 265.554499 155.615289 265.153559 157.270071 
z
" clip-path="url(#p0374fb5fef)" style="fill: #e66c5c; stroke: #ffffff; stroke-width: 5"/>
    <path d="M 259.937634 156.770478 
Q 260.623132 156.537965 261.209734 156.74655 
Q 261.796877 156.952993 262.157144 157.556808 
Q 262.709553 158.482658 262.375617 159.371486 
Q 262.040881 160.258972 260.866796 160.959491 
Q 260.473646 161.194065 260.009908 161.365224 
Q 259.54617 161.536383 259.009162 161.64573 
L 258.521601 160.828567 
Q 258.995646 160.824108 259.476738 160.678985 
Q 259.959171 160.53306 260.416728 160.260058 
Q 261.212422 159.785307 261.442387 159.222338 
Q 261.672351 158.65937 261.314486 158.059581 
Q 260.983842 157.505413 260.410321 157.425484 
Q 259.835999 157.344213 259.144966 157.756518 
L 258.415021 158.192041 
L 257.999513 157.495641 
L 258.763004 157.040104 
Q 259.386946 156.667828 259.569463 156.220505 
Q 259.75198 155.773181 259.471773 155.303547 
Q 259.18436 154.821837 258.688484 154.768361 
Q 258.19315 154.712742 257.555789 155.093023 
Q 257.206919 155.301177 256.854034 155.615437 
Q 256.50035 155.928354 256.117135 156.371699 
L 255.667202 155.617601 
Q 256.070194 155.195206 256.451494 154.87673 
Q 256.832793 154.558253 257.205816 154.335688 
Q 258.170578 153.760062 258.993249 153.864186 
Q 259.816461 153.966168 260.261591 154.712215 
Q 260.572221 155.232838 260.488097 155.768833 
Q 260.403974 156.304829 259.937634 156.770478 
z
M 265.153559 157.270071 
L 268.109569 155.506364 
L 268.534684 156.218866 
L 264.560239 158.590222 
L 264.135124 157.87772 
Q 264.319014 157.091154 264.649765 155.754813 
Q 264.981058 154.416329 265.048699 154.044825 
Q 265.183066 153.346029 265.155143 152.933291 
Q 265.128562 152.519752 264.946027 152.213819 
Q 264.648207 151.714665 264.110655 151.609636 
Q 263.572303 151.503265 263.010084 151.838713 
Q 262.611566 152.076489 262.25123 152.478892 
Q 261.892235 152.880493 261.55718 153.462496 
L 261.046402 152.60642 
Q 261.435141 152.096097 261.816835 151.72644 
Q 262.19987 151.355982 262.568868 151.135819 
Q 263.541681 150.555389 264.410617 150.697411 
Q 265.278752 150.838091 265.763911 151.651229 
Q 265.994482 152.03767 266.056119 152.470321 
Q 266.118298 152.90083 266.016089 153.598633 
Q 265.984282 153.783184 265.76872 154.699637 
Q 265.554499 155.615289 265.153559 157.270071 
z
" clip-path="url(#p0374fb5fef)" style="fill: #e66c5c"/>
   </g>
   <g id="text_19">
    <path d="M 299.401274 136.909376 
Q 298.824536 137.238545 298.71202 137.826296 
Q 298.600087 138.411915 298.991993 139.098572 
Q 299.381575 139.781158 299.945052 139.986687 
Q 300.509111 140.190085 301.085849 139.860915 
Q 301.662586 139.531745 301.772971 138.943412 
Q 301.88258 138.353723 301.492998 137.671137 
Q 301.101093 136.98448 300.539939 136.783021 
Q 299.978012 136.580206 299.401274 136.909376 
z
M 299.568863 133.253344 
L 300.01421 134.033636 
Q 299.604491 134.065984 299.230393 134.173352 
Q 298.855521 134.279364 298.532548 134.463699 
Q 297.684405 134.947772 297.563431 135.776029 
Q 297.443814 136.603512 298.040697 137.79746 
Q 298.079722 137.285837 298.344671 136.873752 
Q 298.610978 136.460892 299.064225 136.202204 
Q 300.018217 135.657718 300.902604 135.921167 
Q 301.786217 136.183258 302.354712 137.179318 
Q 302.91159 138.155023 302.671767 139.0745 
Q 302.43117 139.992621 301.473107 140.53943 
Q 300.373913 141.166789 299.312904 140.656924 
Q 298.25112 140.145702 297.338739 138.547121 
Q 296.482123 137.046246 296.684931 135.746699 
Q 296.88774 134.447152 298.087354 133.762479 
Q 298.410327 133.578144 298.77513 133.454491 
Q 299.139934 133.330838 299.568863 133.253344 
z
M 304.15562 131.439667 
L 303.921837 136.054608 
L 306.084942 134.820028 
L 304.15562 131.439667 
z
M 303.504368 130.821871 
L 304.58185 130.206904 
L 306.937157 134.333631 
L 307.840938 133.817803 
L 308.24756 134.530243 
L 307.343778 135.046072 
L 308.195747 136.538804 
L 307.343532 137.025201 
L 306.491563 135.532468 
L 303.633659 137.163602 
L 303.161978 136.33717 
L 303.504368 130.821871 
z
" clip-path="url(#p0374fb5fef)" style="fill: #f89540; stroke: #ffffff; stroke-width: 5"/>
    <path d="M 299.401274 136.909376 
Q 298.824536 137.238545 298.71202 137.826296 
Q 298.600087 138.411915 298.991993 139.098572 
Q 299.381575 139.781158 299.945052 139.986687 
Q 300.509111 140.190085 301.085849 139.860915 
Q 301.662586 139.531745 301.772971 138.943412 
Q 301.88258 138.353723 301.492998 137.671137 
Q 301.101093 136.98448 300.539939 136.783021 
Q 299.978012 136.580206 299.401274 136.909376 
z
M 299.568863 133.253344 
L 300.01421 134.033636 
Q 299.604491 134.065984 299.230393 134.173352 
Q 298.855521 134.279364 298.532548 134.463699 
Q 297.684405 134.947772 297.563431 135.776029 
Q 297.443814 136.603512 298.040697 137.79746 
Q 298.079722 137.285837 298.344671 136.873752 
Q 298.610978 136.460892 299.064225 136.202204 
Q 300.018217 135.657718 300.902604 135.921167 
Q 301.786217 136.183258 302.354712 137.179318 
Q 302.91159 138.155023 302.671767 139.0745 
Q 302.43117 139.992621 301.473107 140.53943 
Q 300.373913 141.166789 299.312904 140.656924 
Q 298.25112 140.145702 297.338739 138.547121 
Q 296.482123 137.046246 296.684931 135.746699 
Q 296.88774 134.447152 298.087354 133.762479 
Q 298.410327 133.578144 298.77513 133.454491 
Q 299.139934 133.330838 299.568863 133.253344 
z
M 304.15562 131.439667 
L 303.921837 136.054608 
L 306.084942 134.820028 
L 304.15562 131.439667 
z
M 303.504368 130.821871 
L 304.58185 130.206904 
L 306.937157 134.333631 
L 307.840938 133.817803 
L 308.24756 134.530243 
L 307.343778 135.046072 
L 308.195747 136.538804 
L 307.343532 137.025201 
L 306.491563 135.532468 
L 303.633659 137.163602 
L 303.161978 136.33717 
L 303.504368 130.821871 
z
" clip-path="url(#p0374fb5fef)" style="fill: #f89540"/>
   </g>
   <g id="text_20">
    <path d="M 336.448588 121.874141 
L 337.870336 121.116677 
L 335.254845 116.207439 
L 333.872913 117.342035 
L 333.450467 116.54911 
L 334.824125 115.418923 
L 335.694274 114.955334 
L 338.732211 120.657496 
L 340.153959 119.900033 
L 340.544079 120.632281 
L 336.838708 122.606389 
L 336.448588 121.874141 
z
M 342.662186 118.563726 
L 345.700122 116.945207 
L 346.090242 117.677456 
L 342.005646 119.853603 
L 341.615526 119.121355 
Q 341.837283 118.344614 342.232347 117.025853 
Q 342.628056 115.704979 342.713604 115.337186 
Q 342.881646 114.645716 342.87374 114.232109 
Q 342.867212 113.817768 342.699703 113.503356 
Q 342.426399 112.990368 341.894563 112.859436 
Q 341.361993 112.727125 340.784192 113.03496 
Q 340.374629 113.253162 339.995232 113.637646 
Q 339.617214 114.021396 339.254374 114.586494 
L 338.785643 113.706692 
Q 339.198634 113.215789 339.597777 112.865045 
Q 339.9983 112.513566 340.377524 112.311527 
Q 341.377299 111.778878 342.238339 111.962804 
Q 343.098645 112.145351 343.543867 112.981025 
Q 343.755457 113.378176 343.796075 113.813305 
Q 343.837337 114.246319 343.701463 114.938355 
Q 343.660757 115.12115 343.401077 116.026091 
Q 343.142775 116.930297 342.662186 118.563726 
z
M 348.150823 112.656394 
Q 347.530273 112.987004 347.351551 113.508892 
Q 347.174208 114.030046 347.483512 114.610605 
Q 347.793551 115.192542 348.325013 115.336066 
Q 348.857855 115.478855 349.478405 115.148246 
Q 350.098954 114.817636 350.278321 114.293634 
Q 350.458331 113.767518 350.150497 113.189717 
Q 349.841193 112.609158 349.308351 112.466369 
Q 348.776888 112.322845 348.150823 112.656394 
z
M 347.083778 112.75041 
Q 346.450435 112.910794 345.933159 112.694206 
Q 345.416527 112.475505 345.122651 111.923905 
Q 344.711961 111.153045 345.022029 110.412464 
Q 345.333476 109.671149 346.289122 109.16201 
Q 347.250285 108.649932 348.036521 108.806435 
Q 348.822758 108.962939 349.233448 109.733799 
Q 349.527324 110.285399 349.419269 110.836914 
Q 349.311859 111.386315 348.829591 111.820295 
Q 349.536291 111.631451 350.114311 111.87233 
Q 350.692974 112.111095 351.020645 112.726129 
Q 351.519499 113.662469 351.215285 114.467207 
Q 350.910336 115.270566 349.845749 115.837745 
Q 348.78254 116.40419 347.944299 116.209888 
Q 347.106701 116.013472 346.607847 115.077132 
Q 346.280176 114.462098 346.406181 113.847907 
Q 346.532831 113.231602 347.083778 112.75041 
z
M 346.032744 111.545261 
Q 346.298702 112.044459 346.759497 112.158356 
Q 347.221672 112.271519 347.785682 111.971031 
Q 348.346935 111.672013 348.513584 111.223832 
Q 348.681612 110.774917 348.415655 110.275719 
Q 348.148963 109.775143 347.682652 109.664184 
Q 347.217719 109.552491 346.656466 109.851509 
Q 346.092456 110.151997 345.928564 110.598708 
Q 345.766052 111.044684 346.032744 111.545261 
z
" clip-path="url(#p0374fb5fef)" style="fill: #fdc527; stroke: #ffffff; stroke-width: 5"/>
    <path d="M 336.448588 121.874141 
L 337.870336 121.116677 
L 335.254845 116.207439 
L 333.872913 117.342035 
L 333.450467 116.54911 
L 334.824125 115.418923 
L 335.694274 114.955334 
L 338.732211 120.657496 
L 340.153959 119.900033 
L 340.544079 120.632281 
L 336.838708 122.606389 
L 336.448588 121.874141 
z
M 342.662186 118.563726 
L 345.700122 116.945207 
L 346.090242 117.677456 
L 342.005646 119.853603 
L 341.615526 119.121355 
Q 341.837283 118.344614 342.232347 117.025853 
Q 342.628056 115.704979 342.713604 115.337186 
Q 342.881646 114.645716 342.87374 114.232109 
Q 342.867212 113.817768 342.699703 113.503356 
Q 342.426399 112.990368 341.894563 112.859436 
Q 341.361993 112.727125 340.784192 113.03496 
Q 340.374629 113.253162 339.995232 113.637646 
Q 339.617214 114.021396 339.254374 114.586494 
L 338.785643 113.706692 
Q 339.198634 113.215789 339.597777 112.865045 
Q 339.9983 112.513566 340.377524 112.311527 
Q 341.377299 111.778878 342.238339 111.962804 
Q 343.098645 112.145351 343.543867 112.981025 
Q 343.755457 113.378176 343.796075 113.813305 
Q 343.837337 114.246319 343.701463 114.938355 
Q 343.660757 115.12115 343.401077 116.026091 
Q 343.142775 116.930297 342.662186 118.563726 
z
M 348.150823 112.656394 
Q 347.530273 112.987004 347.351551 113.508892 
Q 347.174208 114.030046 347.483512 114.610605 
Q 347.793551 115.192542 348.325013 115.336066 
Q 348.857855 115.478855 349.478405 115.148246 
Q 350.098954 114.817636 350.278321 114.293634 
Q 350.458331 113.767518 350.150497 113.189717 
Q 349.841193 112.609158 349.308351 112.466369 
Q 348.776888 112.322845 348.150823 112.656394 
z
M 347.083778 112.75041 
Q 346.450435 112.910794 345.933159 112.694206 
Q 345.416527 112.475505 345.122651 111.923905 
Q 344.711961 111.153045 345.022029 110.412464 
Q 345.333476 109.671149 346.289122 109.16201 
Q 347.250285 108.649932 348.036521 108.806435 
Q 348.822758 108.962939 349.233448 109.733799 
Q 349.527324 110.285399 349.419269 110.836914 
Q 349.311859 111.386315 348.829591 111.820295 
Q 349.536291 111.631451 350.114311 111.87233 
Q 350.692974 112.111095 351.020645 112.726129 
Q 351.519499 113.662469 351.215285 114.467207 
Q 350.910336 115.270566 349.845749 115.837745 
Q 348.78254 116.40419 347.944299 116.209888 
Q 347.106701 116.013472 346.607847 115.077132 
Q 346.280176 114.462098 346.406181 113.847907 
Q 346.532831 113.231602 347.083778 112.75041 
z
M 346.032744 111.545261 
Q 346.298702 112.044459 346.759497 112.158356 
Q 347.221672 112.271519 347.785682 111.971031 
Q 348.346935 111.672013 348.513584 111.223832 
Q 348.681612 110.774917 348.415655 110.275719 
Q 348.148963 109.775143 347.682652 109.664184 
Q 347.217719 109.552491 346.656466 109.851509 
Q 346.092456 110.151997 345.928564 110.598708 
Q 345.766052 111.044684 346.032744 111.545261 
z
" clip-path="url(#p0374fb5fef)" style="fill: #fdc527"/>
   </g>
   <g id="patch_3">
    <path d="M 43.78125 301.735725 
L 43.78125 35.623725 
" style="fill: none; stroke: #cccccc; stroke-width: 0.8; stroke-linejoin: miter; stroke-linecap: square"/>
   </g>
   <g id="patch_4">
    <path d="M 400.90125 301.735725 
L 400.90125 35.623725 
" style="fill: none; stroke: #cccccc; stroke-width: 0.8; stroke-linejoin: miter; stroke-linecap: square"/>
   </g>
   <g id="patch_5">
    <path d="M 43.78125 301.735725 
L 400.90125 301.735725 
" style="fill: none; stroke: #cccccc; stroke-width: 0.8; stroke-linejoin: miter; stroke-linecap: square"/>
   </g>
   <g id="patch_6">
    <path d="M 43.78125 35.623725 
L 400.90125 35.623725 
" style="fill: none; stroke: #cccccc; stroke-width: 0.8; stroke-linejoin: miter; stroke-linecap: square"/>
   </g>
   <g id="text_21">
    <!-- Block Size = 16K, Read-Write Type = Sequential Read-only -->
    <g style="fill: #262626; opacity: 0.75" transform="translate(75.700625 30.882918) scale(0.1 -0.1)">
     <defs>
      <path id="DejaVuSans-42" d="M 1259 2228 
L 1259 519 
L 2272 519 
Q 2781 519 3026 730 
Q 3272 941 3272 1375 
Q 3272 1813 3026 2020 
Q 2781 2228 2272 2228 
L 1259 2228 
z
M 1259 4147 
L 1259 2741 
L 2194 2741 
Q 2656 2741 2882 2914 
Q 3109 3088 3109 3444 
Q 3109 3797 2882 3972 
Q 2656 4147 2194 4147 
L 1259 4147 
z
M 628 4666 
L 2241 4666 
Q 2963 4666 3353 4366 
Q 3744 4066 3744 3513 
Q 3744 3084 3544 2831 
Q 3344 2578 2956 2516 
Q 3422 2416 3680 2098 
Q 3938 1781 3938 1306 
Q 3938 681 3513 340 
Q 3088 0 2303 0 
L 628 0 
L 628 4666 
z
" transform="scale(0.015625)"/>
      <path id="DejaVuSans-6c" d="M 603 4863 
L 1178 4863 
L 1178 0 
L 603 0 
L 603 4863 
z
" transform="scale(0.015625)"/>
      <path id="DejaVuSans-6b" d="M 581 4863 
L 1159 4863 
L 1159 1991 
L 2875 3500 
L 3609 3500 
L 1753 1863 
L 3688 0 
L 2938 0 
L 1159 1709 
L 1159 0 
L 581 0 
L 581 4863 
z
" transform="scale(0.015625)"/>
      <path id="DejaVuSans-53" d="M 3425 4513 
L 3425 3897 
Q 3066 4069 2747 4153 
Q 2428 4238 2131 4238 
Q 1616 4238 1336 4038 
Q 1056 3838 1056 3469 
Q 1056 3159 1242 3001 
Q 1428 2844 1947 2747 
L 2328 2669 
Q 3034 2534 3370 2195 
Q 3706 1856 3706 1288 
Q 3706 609 3251 259 
Q 2797 -91 1919 -91 
Q 1588 -91 1214 -16 
Q 841 59 441 206 
L 441 856 
Q 825 641 1194 531 
Q 1563 422 1919 422 
Q 2459 422 2753 634 
Q 3047 847 3047 1241 
Q 3047 1584 2836 1778 
Q 2625 1972 2144 2069 
L 1759 2144 
Q 1053 2284 737 2584 
Q 422 2884 422 3419 
Q 422 4038 858 4394 
Q 1294 4750 2059 4750 
Q 2388 4750 2728 4690 
Q 3069 4631 3425 4513 
z
" transform="scale(0.015625)"/>
      <path id="DejaVuSans-69" d="M 603 3500 
L 1178 3500 
L 1178 0 
L 603 0 
L 603 3500 
z
M 603 4863 
L 1178 4863 
L 1178 4134 
L 603 4134 
L 603 4863 
z
" transform="scale(0.015625)"/>
      <path id="DejaVuSans-7a" d="M 353 3500 
L 3084 3500 
L 3084 2975 
L 922 459 
L 3084 459 
L 3084 0 
L 275 0 
L 275 525 
L 2438 3041 
L 353 3041 
L 353 3500 
z
" transform="scale(0.015625)"/>
      <path id="DejaVuSans-3d" d="M 678 2906 
L 4684 2906 
L 4684 2381 
L 678 2381 
L 678 2906 
z
M 678 1631 
L 4684 1631 
L 4684 1100 
L 678 1100 
L 678 1631 
z
" transform="scale(0.015625)"/>
      <path id="DejaVuSans-4b" d="M 628 4666 
L 1259 4666 
L 1259 2694 
L 3353 4666 
L 4166 4666 
L 1850 2491 
L 4331 0 
L 3500 0 
L 1259 2247 
L 1259 0 
L 628 0 
L 628 4666 
z
" transform="scale(0.015625)"/>
      <path id="DejaVuSans-2c" d="M 750 794 
L 1409 794 
L 1409 256 
L 897 -744 
L 494 -744 
L 750 256 
L 750 794 
z
" transform="scale(0.015625)"/>
      <path id="DejaVuSans-52" d="M 2841 2188 
Q 3044 2119 3236 1894 
Q 3428 1669 3622 1275 
L 4263 0 
L 3584 0 
L 2988 1197 
Q 2756 1666 2539 1819 
Q 2322 1972 1947 1972 
L 1259 1972 
L 1259 0 
L 628 0 
L 628 4666 
L 2053 4666 
Q 2853 4666 3247 4331 
Q 3641 3997 3641 3322 
Q 3641 2881 3436 2590 
Q 3231 2300 2841 2188 
z
M 1259 4147 
L 1259 2491 
L 2053 2491 
Q 2509 2491 2742 2702 
Q 2975 2913 2975 3322 
Q 2975 3731 2742 3939 
Q 2509 4147 2053 4147 
L 1259 4147 
z
" transform="scale(0.015625)"/>
      <path id="DejaVuSans-64" d="M 2906 2969 
L 2906 4863 
L 3481 4863 
L 3481 0 
L 2906 0 
L 2906 525 
Q 2725 213 2448 61 
Q 2172 -91 1784 -91 
Q 1150 -91 751 415 
Q 353 922 353 1747 
Q 353 2572 751 3078 
Q 1150 3584 1784 3584 
Q 2172 3584 2448 3432 
Q 2725 3281 2906 2969 
z
M 947 1747 
Q 947 1113 1208 752 
Q 1469 391 1925 391 
Q 2381 391 2643 752 
Q 2906 1113 2906 1747 
Q 2906 2381 2643 2742 
Q 2381 3103 1925 3103 
Q 1469 3103 1208 2742 
Q 947 2381 947 1747 
z
" transform="scale(0.015625)"/>
      <path id="DejaVuSans-2d" d="M 313 2009 
L 1997 2009 
L 1997 1497 
L 313 1497 
L 313 2009 
z
" transform="scale(0.015625)"/>
      <path id="DejaVuSans-57" d="M 213 4666 
L 850 4666 
L 1831 722 
L 2809 4666 
L 3519 4666 
L 4500 722 
L 5478 4666 
L 6119 4666 
L 4947 0 
L 4153 0 
L 3169 4050 
L 2175 0 
L 1381 0 
L 213 4666 
z
" transform="scale(0.015625)"/>
      <path id="DejaVuSans-54" d="M -19 4666 
L 3928 4666 
L 3928 4134 
L 2272 4134 
L 2272 0 
L 1638 0 
L 1638 4134 
L -19 4134 
L -19 4666 
z
" transform="scale(0.015625)"/>
      <path id="DejaVuSans-70" d="M 1159 525 
L 1159 -1331 
L 581 -1331 
L 581 3500 
L 1159 3500 
L 1159 2969 
Q 1341 3281 1617 3432 
Q 1894 3584 2278 3584 
Q 2916 3584 3314 3078 
Q 3713 2572 3713 1747 
Q 3713 922 3314 415 
Q 2916 -91 2278 -91 
Q 1894 -91 1617 61 
Q 1341 213 1159 525 
z
M 3116 1747 
Q 3116 2381 2855 2742 
Q 2594 3103 2138 3103 
Q 1681 3103 1420 2742 
Q 1159 2381 1159 1747 
Q 1159 1113 1420 752 
Q 1681 391 2138 391 
Q 2594 391 2855 752 
Q 3116 1113 3116 1747 
z
" transform="scale(0.015625)"/>
      <path id="DejaVuSans-71" d="M 947 1747 
Q 947 1113 1208 752 
Q 1469 391 1925 391 
Q 2381 391 2643 752 
Q 2906 1113 2906 1747 
Q 2906 2381 2643 2742 
Q 2381 3103 1925 3103 
Q 1469 3103 1208 2742 
Q 947 2381 947 1747 
z
M 2906 525 
Q 2725 213 2448 61 
Q 2172 -91 1784 -91 
Q 1150 -91 751 415 
Q 353 922 353 1747 
Q 353 2572 751 3078 
Q 1150 3584 1784 3584 
Q 2172 3584 2448 3432 
Q 2725 3281 2906 2969 
L 2906 3500 
L 3481 3500 
L 3481 -1331 
L 2906 -1331 
L 2906 525 
z
" transform="scale(0.015625)"/>
     </defs>
     <use xlink:href="#DejaVuSans-42"/>
     <use xlink:href="#DejaVuSans-6c" transform="translate(68.603516 0)"/>
     <use xlink:href="#DejaVuSans-6f" transform="translate(96.386719 0)"/>
     <use xlink:href="#DejaVuSans-63" transform="translate(157.568359 0)"/>
     <use xlink:href="#DejaVuSans-6b" transform="translate(212.548828 0)"/>
     <use xlink:href="#DejaVuSans-20" transform="translate(270.458984 0)"/>
     <use xlink:href="#DejaVuSans-53" transform="translate(302.246094 0)"/>
     <use xlink:href="#DejaVuSans-69" transform="translate(365.722656 0)"/>
     <use xlink:href="#DejaVuSans-7a" transform="translate(393.505859 0)"/>
     <use xlink:href="#DejaVuSans-65" transform="translate(445.996094 0)"/>
     <use xlink:href="#DejaVuSans-20" transform="translate(507.519531 0)"/>
     <use xlink:href="#DejaVuSans-3d" transform="translate(539.306641 0)"/>
     <use xlink:href="#DejaVuSans-20" transform="translate(623.095703 0)"/>
     <use xlink:href="#DejaVuSans-31" transform="translate(654.882812 0)"/>
     <use xlink:href="#DejaVuSans-36" transform="translate(718.505859 0)"/>
     <use xlink:href="#DejaVuSans-4b" transform="translate(782.128906 0)"/>
     <use xlink:href="#DejaVuSans-2c" transform="translate(847.705078 0)"/>
     <use xlink:href="#DejaVuSans-20" transform="translate(879.492188 0)"/>
     <use xlink:href="#DejaVuSans-52" transform="translate(911.279297 0)"/>
     <use xlink:href="#DejaVuSans-65" transform="translate(976.261719 0)"/>
     <use xlink:href="#DejaVuSans-61" transform="translate(1037.785156 0)"/>
     <use xlink:href="#DejaVuSans-64" transform="translate(1099.064453 0)"/>
     <use xlink:href="#DejaVuSans-2d" transform="translate(1162.541016 0)"/>
     <use xlink:href="#DejaVuSans-57" transform="translate(1194.625 0)"/>
     <use xlink:href="#DejaVuSans-72" transform="translate(1289.001953 0)"/>
     <use xlink:href="#DejaVuSans-69" transform="translate(1330.115234 0)"/>
     <use xlink:href="#DejaVuSans-74" transform="translate(1357.898438 0)"/>
     <use xlink:href="#DejaVuSans-65" transform="translate(1397.107422 0)"/>
     <use xlink:href="#DejaVuSans-20" transform="translate(1458.630859 0)"/>
     <use xlink:href="#DejaVuSans-54" transform="translate(1490.417969 0)"/>
     <use xlink:href="#DejaVuSans-79" transform="translate(1535.876953 0)"/>
     <use xlink:href="#DejaVuSans-70" transform="translate(1595.056641 0)"/>
     <use xlink:href="#DejaVuSans-65" transform="translate(1658.533203 0)"/>
     <use xlink:href="#DejaVuSans-20" transform="translate(1720.056641 0)"/>
     <use xlink:href="#DejaVuSans-3d" transform="translate(1751.84375 0)"/>
     <use xlink:href="#DejaVuSans-20" transform="translate(1835.632812 0)"/>
     <use xlink:href="#DejaVuSans-53" transform="translate(1867.419922 0)"/>
     <use xlink:href="#DejaVuSans-65" transform="translate(1930.896484 0)"/>
     <use xlink:href="#DejaVuSans-71" transform="translate(1992.419922 0)"/>
     <use xlink:href="#DejaVuSans-75" transform="translate(2055.896484 0)"/>
     <use xlink:href="#DejaVuSans-65" transform="translate(2119.275391 0)"/>
     <use xlink:href="#DejaVuSans-6e" transform="translate(2180.798828 0)"/>
     <use xlink:href="#DejaVuSans-74" transform="translate(2244.177734 0)"/>
     <use xlink:href="#DejaVuSans-69" transform="translate(2283.386719 0)"/>
     <use xlink:href="#DejaVuSans-61" transform="translate(2311.169922 0)"/>
     <use xlink:href="#DejaVuSans-6c" transform="translate(2372.449219 0)"/>
     <use xlink:href="#DejaVuSans-20" transform="translate(2400.232422 0)"/>
     <use xlink:href="#DejaVuSans-52" transform="translate(2432.019531 0)"/>
     <use xlink:href="#DejaVuSans-65" transform="translate(2497.001953 0)"/>
     <use xlink:href="#DejaVuSans-61" transform="translate(2558.525391 0)"/>
     <use xlink:href="#DejaVuSans-64" transform="translate(2619.804688 0)"/>
     <use xlink:href="#DejaVuSans-2d" transform="translate(2683.28125 0)"/>
     <use xlink:href="#DejaVuSans-6f" transform="translate(2721.240234 0)"/>
     <use xlink:href="#DejaVuSans-6e" transform="translate(2782.421875 0)"/>
     <use xlink:href="#DejaVuSans-6c" transform="translate(2845.800781 0)"/>
     <use xlink:href="#DejaVuSans-79" transform="translate(2873.583984 0)"/>
    </g>
   </g>
   <g id="text_22">
    <!-- Mean Latency vs Number of Jobs -->
    <g style="fill: #262626" transform="translate(111.685313 16.318125) scale(0.12 -0.12)">
     <defs>
      <path id="DejaVuSans-Bold-4d" d="M 588 4666 
L 2119 4666 
L 3181 2169 
L 4250 4666 
L 5778 4666 
L 5778 0 
L 4641 0 
L 4641 3413 
L 3566 897 
L 2803 897 
L 1728 3413 
L 1728 0 
L 588 0 
L 588 4666 
z
" transform="scale(0.015625)"/>
      <path id="DejaVuSans-Bold-65" d="M 4031 1759 
L 4031 1441 
L 1416 1441 
Q 1456 1047 1700 850 
Q 1944 653 2381 653 
Q 2734 653 3104 758 
Q 3475 863 3866 1075 
L 3866 213 
Q 3469 63 3072 -14 
Q 2675 -91 2278 -91 
Q 1328 -91 801 392 
Q 275 875 275 1747 
Q 275 2603 792 3093 
Q 1309 3584 2216 3584 
Q 3041 3584 3536 3087 
Q 4031 2591 4031 1759 
z
M 2881 2131 
Q 2881 2450 2695 2645 
Q 2509 2841 2209 2841 
Q 1884 2841 1681 2658 
Q 1478 2475 1428 2131 
L 2881 2131 
z
" transform="scale(0.015625)"/>
      <path id="DejaVuSans-Bold-61" d="M 2106 1575 
Q 1756 1575 1579 1456 
Q 1403 1338 1403 1106 
Q 1403 894 1545 773 
Q 1688 653 1941 653 
Q 2256 653 2472 879 
Q 2688 1106 2688 1447 
L 2688 1575 
L 2106 1575 
z
M 3816 1997 
L 3816 0 
L 2688 0 
L 2688 519 
Q 2463 200 2181 54 
Q 1900 -91 1497 -91 
Q 953 -91 614 226 
Q 275 544 275 1050 
Q 275 1666 698 1953 
Q 1122 2241 2028 2241 
L 2688 2241 
L 2688 2328 
Q 2688 2594 2478 2717 
Q 2269 2841 1825 2841 
Q 1466 2841 1156 2769 
Q 847 2697 581 2553 
L 581 3406 
Q 941 3494 1303 3539 
Q 1666 3584 2028 3584 
Q 2975 3584 3395 3211 
Q 3816 2838 3816 1997 
z
" transform="scale(0.015625)"/>
      <path id="DejaVuSans-Bold-6e" d="M 4056 2131 
L 4056 0 
L 2931 0 
L 2931 347 
L 2931 1631 
Q 2931 2084 2911 2256 
Q 2891 2428 2841 2509 
Q 2775 2619 2662 2680 
Q 2550 2741 2406 2741 
Q 2056 2741 1856 2470 
Q 1656 2200 1656 1722 
L 1656 0 
L 538 0 
L 538 3500 
L 1656 3500 
L 1656 2988 
Q 1909 3294 2193 3439 
Q 2478 3584 2822 3584 
Q 3428 3584 3742 3212 
Q 4056 2841 4056 2131 
z
" transform="scale(0.015625)"/>
      <path id="DejaVuSans-Bold-20" transform="scale(0.015625)"/>
      <path id="DejaVuSans-Bold-4c" d="M 588 4666 
L 1791 4666 
L 1791 909 
L 3903 909 
L 3903 0 
L 588 0 
L 588 4666 
z
" transform="scale(0.015625)"/>
      <path id="DejaVuSans-Bold-74" d="M 1759 4494 
L 1759 3500 
L 2913 3500 
L 2913 2700 
L 1759 2700 
L 1759 1216 
Q 1759 972 1856 886 
Q 1953 800 2241 800 
L 2816 800 
L 2816 0 
L 1856 0 
Q 1194 0 917 276 
Q 641 553 641 1216 
L 641 2700 
L 84 2700 
L 84 3500 
L 641 3500 
L 641 4494 
L 1759 4494 
z
" transform="scale(0.015625)"/>
      <path id="DejaVuSans-Bold-63" d="M 3366 3391 
L 3366 2478 
Q 3138 2634 2908 2709 
Q 2678 2784 2431 2784 
Q 1963 2784 1702 2511 
Q 1441 2238 1441 1747 
Q 1441 1256 1702 982 
Q 1963 709 2431 709 
Q 2694 709 2930 787 
Q 3166 866 3366 1019 
L 3366 103 
Q 3103 6 2833 -42 
Q 2563 -91 2291 -91 
Q 1344 -91 809 395 
Q 275 881 275 1747 
Q 275 2613 809 3098 
Q 1344 3584 2291 3584 
Q 2566 3584 2833 3536 
Q 3100 3488 3366 3391 
z
" transform="scale(0.015625)"/>
      <path id="DejaVuSans-Bold-79" d="M 78 3500 
L 1197 3500 
L 2138 1125 
L 2938 3500 
L 4056 3500 
L 2584 -331 
Q 2363 -916 2067 -1148 
Q 1772 -1381 1288 -1381 
L 641 -1381 
L 641 -647 
L 991 -647 
Q 1275 -647 1404 -556 
Q 1534 -466 1606 -231 
L 1638 -134 
L 78 3500 
z
" transform="scale(0.015625)"/>
      <path id="DejaVuSans-Bold-76" d="M 97 3500 
L 1216 3500 
L 2088 1081 
L 2956 3500 
L 4078 3500 
L 2700 0 
L 1472 0 
L 97 3500 
z
" transform="scale(0.015625)"/>
      <path id="DejaVuSans-Bold-73" d="M 3272 3391 
L 3272 2541 
Q 2913 2691 2578 2766 
Q 2244 2841 1947 2841 
Q 1628 2841 1473 2761 
Q 1319 2681 1319 2516 
Q 1319 2381 1436 2309 
Q 1553 2238 1856 2203 
L 2053 2175 
Q 2913 2066 3209 1816 
Q 3506 1566 3506 1031 
Q 3506 472 3093 190 
Q 2681 -91 1863 -91 
Q 1516 -91 1145 -36 
Q 775 19 384 128 
L 384 978 
Q 719 816 1070 734 
Q 1422 653 1784 653 
Q 2113 653 2278 743 
Q 2444 834 2444 1013 
Q 2444 1163 2330 1236 
Q 2216 1309 1875 1350 
L 1678 1375 
Q 931 1469 631 1722 
Q 331 1975 331 2491 
Q 331 3047 712 3315 
Q 1094 3584 1881 3584 
Q 2191 3584 2531 3537 
Q 2872 3491 3272 3391 
z
" transform="scale(0.015625)"/>
      <path id="DejaVuSans-Bold-4e" d="M 588 4666 
L 1931 4666 
L 3628 1466 
L 3628 4666 
L 4769 4666 
L 4769 0 
L 3425 0 
L 1728 3200 
L 1728 0 
L 588 0 
L 588 4666 
z
" transform="scale(0.015625)"/>
      <path id="DejaVuSans-Bold-75" d="M 500 1363 
L 500 3500 
L 1625 3500 
L 1625 3150 
Q 1625 2866 1622 2436 
Q 1619 2006 1619 1863 
Q 1619 1441 1641 1255 
Q 1663 1069 1716 984 
Q 1784 875 1895 815 
Q 2006 756 2150 756 
Q 2500 756 2700 1025 
Q 2900 1294 2900 1772 
L 2900 3500 
L 4019 3500 
L 4019 0 
L 2900 0 
L 2900 506 
Q 2647 200 2364 54 
Q 2081 -91 1741 -91 
Q 1134 -91 817 281 
Q 500 653 500 1363 
z
" transform="scale(0.015625)"/>
      <path id="DejaVuSans-Bold-6d" d="M 3781 2919 
Q 3994 3244 4286 3414 
Q 4578 3584 4928 3584 
Q 5531 3584 5847 3212 
Q 6163 2841 6163 2131 
L 6163 0 
L 5038 0 
L 5038 1825 
Q 5041 1866 5042 1909 
Q 5044 1953 5044 2034 
Q 5044 2406 4934 2573 
Q 4825 2741 4581 2741 
Q 4263 2741 4089 2478 
Q 3916 2216 3909 1719 
L 3909 0 
L 2784 0 
L 2784 1825 
Q 2784 2406 2684 2573 
Q 2584 2741 2328 2741 
Q 2006 2741 1831 2477 
Q 1656 2213 1656 1722 
L 1656 0 
L 531 0 
L 531 3500 
L 1656 3500 
L 1656 2988 
Q 1863 3284 2130 3434 
Q 2397 3584 2719 3584 
Q 3081 3584 3359 3409 
Q 3638 3234 3781 2919 
z
" transform="scale(0.015625)"/>
      <path id="DejaVuSans-Bold-62" d="M 2400 722 
Q 2759 722 2948 984 
Q 3138 1247 3138 1747 
Q 3138 2247 2948 2509 
Q 2759 2772 2400 2772 
Q 2041 2772 1848 2508 
Q 1656 2244 1656 1747 
Q 1656 1250 1848 986 
Q 2041 722 2400 722 
z
M 1656 2988 
Q 1888 3294 2169 3439 
Q 2450 3584 2816 3584 
Q 3463 3584 3878 3070 
Q 4294 2556 4294 1747 
Q 4294 938 3878 423 
Q 3463 -91 2816 -91 
Q 2450 -91 2169 54 
Q 1888 200 1656 506 
L 1656 0 
L 538 0 
L 538 4863 
L 1656 4863 
L 1656 2988 
z
" transform="scale(0.015625)"/>
      <path id="DejaVuSans-Bold-72" d="M 3138 2547 
Q 2991 2616 2845 2648 
Q 2700 2681 2553 2681 
Q 2122 2681 1889 2404 
Q 1656 2128 1656 1613 
L 1656 0 
L 538 0 
L 538 3500 
L 1656 3500 
L 1656 2925 
Q 1872 3269 2151 3426 
Q 2431 3584 2822 3584 
Q 2878 3584 2943 3579 
Q 3009 3575 3134 3559 
L 3138 2547 
z
" transform="scale(0.015625)"/>
      <path id="DejaVuSans-Bold-6f" d="M 2203 2784 
Q 1831 2784 1636 2517 
Q 1441 2250 1441 1747 
Q 1441 1244 1636 976 
Q 1831 709 2203 709 
Q 2569 709 2762 976 
Q 2956 1244 2956 1747 
Q 2956 2250 2762 2517 
Q 2569 2784 2203 2784 
z
M 2203 3584 
Q 3106 3584 3614 3096 
Q 4122 2609 4122 1747 
Q 4122 884 3614 396 
Q 3106 -91 2203 -91 
Q 1297 -91 786 396 
Q 275 884 275 1747 
Q 275 2609 786 3096 
Q 1297 3584 2203 3584 
z
" transform="scale(0.015625)"/>
      <path id="DejaVuSans-Bold-66" d="M 2841 4863 
L 2841 4128 
L 2222 4128 
Q 1984 4128 1890 4042 
Q 1797 3956 1797 3744 
L 1797 3500 
L 2753 3500 
L 2753 2700 
L 1797 2700 
L 1797 0 
L 678 0 
L 678 2700 
L 122 2700 
L 122 3500 
L 678 3500 
L 678 3744 
Q 678 4316 997 4589 
Q 1316 4863 1984 4863 
L 2841 4863 
z
" transform="scale(0.015625)"/>
      <path id="DejaVuSans-Bold-4a" d="M 588 4666 
L 1791 4666 
L 1791 453 
Q 1791 -419 1317 -850 
Q 844 -1281 -116 -1281 
L -359 -1281 
L -359 -372 
L -172 -372 
Q 203 -372 395 -162 
Q 588 47 588 453 
L 588 4666 
z
" transform="scale(0.015625)"/>
     </defs>
     <use xlink:href="#DejaVuSans-Bold-4d"/>
     <use xlink:href="#DejaVuSans-Bold-65" transform="translate(99.511719 0)"/>
     <use xlink:href="#DejaVuSans-Bold-61" transform="translate(167.333984 0)"/>
     <use xlink:href="#DejaVuSans-Bold-6e" transform="translate(234.814453 0)"/>
     <use xlink:href="#DejaVuSans-Bold-20" transform="translate(306.005859 0)"/>
     <use xlink:href="#DejaVuSans-Bold-4c" transform="translate(340.820312 0)"/>
     <use xlink:href="#DejaVuSans-Bold-61" transform="translate(404.541016 0)"/>
     <use xlink:href="#DejaVuSans-Bold-74" transform="translate(472.021484 0)"/>
     <use xlink:href="#DejaVuSans-Bold-65" transform="translate(519.824219 0)"/>
     <use xlink:href="#DejaVuSans-Bold-6e" transform="translate(587.646484 0)"/>
     <use xlink:href="#DejaVuSans-Bold-63" transform="translate(658.837891 0)"/>
     <use xlink:href="#DejaVuSans-Bold-79" transform="translate(718.115234 0)"/>
     <use xlink:href="#DejaVuSans-Bold-20" transform="translate(783.300781 0)"/>
     <use xlink:href="#DejaVuSans-Bold-76" transform="translate(818.115234 0)"/>
     <use xlink:href="#DejaVuSans-Bold-73" transform="translate(883.300781 0)"/>
     <use xlink:href="#DejaVuSans-Bold-20" transform="translate(942.822266 0)"/>
     <use xlink:href="#DejaVuSans-Bold-4e" transform="translate(977.636719 0)"/>
     <use xlink:href="#DejaVuSans-Bold-75" transform="translate(1061.328125 0)"/>
     <use xlink:href="#DejaVuSans-Bold-6d" transform="translate(1132.519531 0)"/>
     <use xlink:href="#DejaVuSans-Bold-62" transform="translate(1236.71875 0)"/>
     <use xlink:href="#DejaVuSans-Bold-65" transform="translate(1308.300781 0)"/>
     <use xlink:href="#DejaVuSans-Bold-72" transform="translate(1376.123047 0)"/>
     <use xlink:href="#DejaVuSans-Bold-20" transform="translate(1425.439453 0)"/>
     <use xlink:href="#DejaVuSans-Bold-6f" transform="translate(1460.253906 0)"/>
     <use xlink:href="#DejaVuSans-Bold-66" transform="translate(1528.955078 0)"/>
     <use xlink:href="#DejaVuSans-Bold-20" transform="translate(1572.460938 0)"/>
     <use xlink:href="#DejaVuSans-Bold-4a" transform="translate(1607.275391 0)"/>
     <use xlink:href="#DejaVuSans-Bold-6f" transform="translate(1644.482422 0)"/>
     <use xlink:href="#DejaVuSans-Bold-62" transform="translate(1713.183594 0)"/>
     <use xlink:href="#DejaVuSans-Bold-73" transform="translate(1784.765625 0)"/>
    </g>
   </g>
   <g id="legend_1">
    <g id="text_23">
     <!-- IO Depth -->
     <g style="fill: #262626" transform="translate(435.407813 120.065663) scale(0.1 -0.1)">
      <defs>
       <path id="DejaVuSans-49" d="M 628 4666 
L 1259 4666 
L 1259 0 
L 628 0 
L 628 4666 
z
" transform="scale(0.015625)"/>
       <path id="DejaVuSans-4f" d="M 2522 4238 
Q 1834 4238 1429 3725 
Q 1025 3213 1025 2328 
Q 1025 1447 1429 934 
Q 1834 422 2522 422 
Q 3209 422 3611 934 
Q 4013 1447 4013 2328 
Q 4013 3213 3611 3725 
Q 3209 4238 2522 4238 
z
M 2522 4750 
Q 3503 4750 4090 4092 
Q 4678 3434 4678 2328 
Q 4678 1225 4090 567 
Q 3503 -91 2522 -91 
Q 1538 -91 948 565 
Q 359 1222 359 2328 
Q 359 3434 948 4092 
Q 1538 4750 2522 4750 
z
" transform="scale(0.015625)"/>
       <path id="DejaVuSans-44" d="M 1259 4147 
L 1259 519 
L 2022 519 
Q 2988 519 3436 956 
Q 3884 1394 3884 2338 
Q 3884 3275 3436 3711 
Q 2988 4147 2022 4147 
L 1259 4147 
z
M 628 4666 
L 1925 4666 
Q 3281 4666 3915 4102 
Q 4550 3538 4550 2338 
Q 4550 1131 3912 565 
Q 3275 0 1925 0 
L 628 0 
L 628 4666 
z
" transform="scale(0.015625)"/>
       <path id="DejaVuSans-68" d="M 3513 2113 
L 3513 0 
L 2938 0 
L 2938 2094 
Q 2938 2591 2744 2837 
Q 2550 3084 2163 3084 
Q 1697 3084 1428 2787 
Q 1159 2491 1159 1978 
L 1159 0 
L 581 0 
L 581 4863 
L 1159 4863 
L 1159 2956 
Q 1366 3272 1645 3428 
Q 1925 3584 2291 3584 
Q 2894 3584 3203 3211 
Q 3513 2838 3513 2113 
z
" transform="scale(0.015625)"/>
      </defs>
      <use xlink:href="#DejaVuSans-49"/>
      <use xlink:href="#DejaVuSans-4f" transform="translate(29.492188 0)"/>
      <use xlink:href="#DejaVuSans-20" transform="translate(108.203125 0)"/>
      <use xlink:href="#DejaVuSans-44" transform="translate(139.990234 0)"/>
      <use xlink:href="#DejaVuSans-65" transform="translate(216.992188 0)"/>
      <use xlink:href="#DejaVuSans-70" transform="translate(278.515625 0)"/>
      <use xlink:href="#DejaVuSans-74" transform="translate(341.992188 0)"/>
      <use xlink:href="#DejaVuSans-68" transform="translate(381.201172 0)"/>
     </g>
    </g>
    <g id="line2d_25">
     <path d="M 434.09375 131.243787 
L 444.09375 131.243787 
L 454.09375 131.243787 
" style="fill: none; stroke: #4c02a1; stroke-width: 1.5; stroke-linecap: round"/>
    </g>
    <g id="text_24">
     <!-- 1 -->
     <g style="fill: #262626" transform="translate(462.09375 134.743787) scale(0.1 -0.1)">
      <use xlink:href="#DejaVuSans-31"/>
     </g>
    </g>
    <g id="line2d_26">
     <path d="M 434.09375 145.921913 
L 444.09375 145.921913 
L 454.09375 145.921913 
" style="fill: none; stroke: #7e03a8; stroke-width: 1.5; stroke-linecap: round"/>
    </g>
    <g id="text_25">
     <!-- 4 -->
     <g style="fill: #262626" transform="translate(462.09375 149.421913) scale(0.1 -0.1)">
      <use xlink:href="#DejaVuSans-34"/>
     </g>
    </g>
    <g id="line2d_27">
     <path d="M 434.09375 160.600037 
L 444.09375 160.600037 
L 454.09375 160.600037 
" style="fill: none; stroke: #aa2395; stroke-width: 1.5; stroke-linecap: round"/>
    </g>
    <g id="text_26">
     <!-- 8 -->
     <g style="fill: #262626" transform="translate(462.09375 164.100037) scale(0.1 -0.1)">
      <use xlink:href="#DejaVuSans-38"/>
     </g>
    </g>
    <g id="line2d_28">
     <path d="M 434.09375 175.278163 
L 444.09375 175.278163 
L 454.09375 175.278163 
" style="fill: none; stroke: #cc4778; stroke-width: 1.5; stroke-linecap: round"/>
    </g>
    <g id="text_27">
     <!-- 16 -->
     <g style="fill: #262626" transform="translate(462.09375 178.778163) scale(0.1 -0.1)">
      <use xlink:href="#DejaVuSans-31"/>
      <use xlink:href="#DejaVuSans-36" transform="translate(63.623047 0)"/>
     </g>
    </g>
    <g id="line2d_29">
     <path d="M 434.09375 189.956288 
L 444.09375 189.956288 
L 454.09375 189.956288 
" style="fill: none; stroke: #e66c5c; stroke-width: 1.5; stroke-linecap: round"/>
    </g>
    <g id="text_28">
     <!-- 32 -->
     <g style="fill: #262626" transform="translate(462.09375 193.456288) scale(0.1 -0.1)">
      <use xlink:href="#DejaVuSans-33"/>
      <use xlink:href="#DejaVuSans-32" transform="translate(63.623047 0)"/>
     </g>
    </g>
    <g id="line2d_30">
     <path d="M 434.09375 204.634412 
L 444.09375 204.634412 
L 454.09375 204.634412 
" style="fill: none; stroke: #f89540; stroke-width: 1.5; stroke-linecap: round"/>
    </g>
    <g id="text_29">
     <!-- 64 -->
     <g style="fill: #262626" transform="translate(462.09375 208.134412) scale(0.1 -0.1)">
      <use xlink:href="#DejaVuSans-36"/>
      <use xlink:href="#DejaVuSans-34" transform="translate(63.623047 0)"/>
     </g>
    </g>
    <g id="line2d_31">
     <path d="M 434.09375 219.312537 
L 444.09375 219.312537 
L 454.09375 219.312537 
" style="fill: none; stroke: #fdc527; stroke-width: 1.5; stroke-linecap: round"/>
    </g>
    <g id="text_30">
     <!-- 128 -->
     <g style="fill: #262626" transform="translate(462.09375 222.812537) scale(0.1 -0.1)">
      <use xlink:href="#DejaVuSans-31"/>
      <use xlink:href="#DejaVuSans-32" transform="translate(63.623047 0)"/>
      <use xlink:href="#DejaVuSans-38" transform="translate(127.246094 0)"/>
     </g>
    </g>
   </g>
  </g>
 </g>
 <defs>
  <clipPath id="p0374fb5fef">
   <rect x="43.78125" y="35.623725" width="357.12" height="266.112"/>
  </clipPath>
 </defs>
</svg>
