<?xml version="1.0" encoding="utf-8" standalone="no"?>
<!DOCTYPE svg PUBLIC "-//W3C//DTD SVG 1.1//EN"
  "http://www.w3.org/Graphics/SVG/1.1/DTD/svg11.dtd">
<svg xmlns:xlink="http://www.w3.org/1999/xlink" width="492.38125pt" height="339.291975pt" viewBox="0 0 492.38125 339.291975" xmlns="http://www.w3.org/2000/svg" version="1.1">
 <metadata>
  <rdf:RDF xmlns:dc="http://purl.org/dc/elements/1.1/" xmlns:cc="http://creativecommons.org/ns#" xmlns:rdf="http://www.w3.org/1999/02/22-rdf-syntax-ns#">
   <cc:Work>
    <dc:type rdf:resource="http://purl.org/dc/dcmitype/StillImage"/>
    <dc:date>2025-09-11T11:47:28.706783</dc:date>
    <dc:format>image/svg+xml</dc:format>
    <dc:creator>
     <cc:Agent>
      <dc:title>Matplotlib v3.10.6, https://matplotlib.org/</dc:title>
     </cc:Agent>
    </dc:creator>
   </cc:Work>
  </rdf:RDF>
 </metadata>
 <defs>
  <style type="text/css">*{stroke-linejoin: round; stroke-linecap: butt}</style>
 </defs>
 <g id="figure_1">
  <g id="patch_1">
   <path d="M 0 339.291975 
L 492.38125 339.291975 
L 492.38125 0 
L 0 0 
z
" style="fill: #ffffff"/>
  </g>
  <g id="axes_1">
   <g id="patch_2">
    <path d="M 43.78125 301.735725 
L 400.90125 301.735725 
L 400.90125 35.623725 
L 43.78125 35.623725 
z
" style="fill: #ffffff"/>
   </g>
   <g id="matplotlib.axis_1">
    <g id="xtick_1">
     <g id="line2d_1">
      <path d="M 199.15164 301.735725 
L 199.15164 35.623725 
" clip-path="url(#p30a4bac0ff)" style="fill: none; stroke: #cccccc; stroke-width: 0.8; stroke-linecap: round"/>
     </g>
     <g id="text_1">
      <!-- 64 -->
      <g style="fill: #262626" transform="translate(192.78914 316.334162) scale(0.1 -0.1)">
       <defs>
        <path id="DejaVuSans-36" d="M 2113 2584 
Q 1688 2584 1439 2293 
Q 1191 2003 1191 1497 
Q 1191 994 1439 701 
Q 1688 409 2113 409 
Q 2538 409 2786 701 
Q 3034 994 3034 1497 
Q 3034 2003 2786 2293 
Q 2538 2584 2113 2584 
z
M 3366 4563 
L 3366 3988 
Q 3128 4100 2886 4159 
Q 2644 4219 2406 4219 
Q 1781 4219 1451 3797 
Q 1122 3375 1075 2522 
Q 1259 2794 1537 2939 
Q 1816 3084 2150 3084 
Q 2853 3084 3261 2657 
Q 3669 2231 3669 1497 
Q 3669 778 3244 343 
Q 2819 -91 2113 -91 
Q 1303 -91 875 529 
Q 447 1150 447 2328 
Q 447 3434 972 4092 
Q 1497 4750 2381 4750 
Q 2619 4750 2861 4703 
Q 3103 4656 3366 4563 
z
" transform="scale(0.015625)"/>
        <path id="DejaVuSans-34" d="M 2419 4116 
L 825 1625 
L 2419 1625 
L 2419 4116 
z
M 2253 4666 
L 3047 4666 
L 3047 1625 
L 3713 1625 
L 3713 1100 
L 3047 1100 
L 3047 0 
L 2419 0 
L 2419 1100 
L 313 1100 
L 313 1709 
L 2253 4666 
z
" transform="scale(0.015625)"/>
       </defs>
       <use xlink:href="#DejaVuSans-36"/>
       <use xlink:href="#DejaVuSans-34" transform="translate(63.623047 0)"/>
      </g>
     </g>
    </g>
    <g id="xtick_2">
     <g id="line2d_2">
      <path d="M 60.013977 301.735725 
L 60.013977 35.623725 
" clip-path="url(#p30a4bac0ff)" style="fill: none; stroke: #cccccc; stroke-width: 0.8; stroke-linecap: round"/>
     </g>
     <g id="text_2">
      <!-- 16 -->
      <g style="fill: #262626" transform="translate(53.651477 316.334162) scale(0.1 -0.1)">
       <defs>
        <path id="DejaVuSans-31" d="M 794 531 
L 1825 531 
L 1825 4091 
L 703 3866 
L 703 4441 
L 1819 4666 
L 2450 4666 
L 2450 531 
L 3481 531 
L 3481 0 
L 794 0 
L 794 531 
z
" transform="scale(0.015625)"/>
       </defs>
       <use xlink:href="#DejaVuSans-31"/>
       <use xlink:href="#DejaVuSans-36" transform="translate(63.623047 0)"/>
      </g>
     </g>
    </g>
    <g id="xtick_3">
     <g id="line2d_3">
      <path d="M 384.668523 301.735725 
L 384.668523 35.623725 
" clip-path="url(#p30a4bac0ff)" style="fill: none; stroke: #cccccc; stroke-width: 0.8; stroke-linecap: round"/>
     </g>
     <g id="text_3">
      <!-- 128 -->
      <g style="fill: #262626" transform="translate(375.124773 316.334162) scale(0.1 -0.1)">
       <defs>
        <path id="DejaVuSans-32" d="M 1228 531 
L 3431 531 
L 3431 0 
L 469 0 
L 469 531 
Q 828 903 1448 1529 
Q 2069 2156 2228 2338 
Q 2531 2678 2651 2914 
Q 2772 3150 2772 3378 
Q 2772 3750 2511 3984 
Q 2250 4219 1831 4219 
Q 1534 4219 1204 4116 
Q 875 4013 500 3803 
L 500 4441 
Q 881 4594 1212 4672 
Q 1544 4750 1819 4750 
Q 2544 4750 2975 4387 
Q 3406 4025 3406 3419 
Q 3406 3131 3298 2873 
Q 3191 2616 2906 2266 
Q 2828 2175 2409 1742 
Q 1991 1309 1228 531 
z
" transform="scale(0.015625)"/>
        <path id="DejaVuSans-38" d="M 2034 2216 
Q 1584 2216 1326 1975 
Q 1069 1734 1069 1313 
Q 1069 891 1326 650 
Q 1584 409 2034 409 
Q 2484 409 2743 651 
Q 3003 894 3003 1313 
Q 3003 1734 2745 1975 
Q 2488 2216 2034 2216 
z
M 1403 2484 
Q 997 2584 770 2862 
Q 544 3141 544 3541 
Q 544 4100 942 4425 
Q 1341 4750 2034 4750 
Q 2731 4750 3128 4425 
Q 3525 4100 3525 3541 
Q 3525 3141 3298 2862 
Q 3072 2584 2669 2484 
Q 3125 2378 3379 2068 
Q 3634 1759 3634 1313 
Q 3634 634 3220 271 
Q 2806 -91 2034 -91 
Q 1263 -91 848 271 
Q 434 634 434 1313 
Q 434 1759 690 2068 
Q 947 2378 1403 2484 
z
M 1172 3481 
Q 1172 3119 1398 2916 
Q 1625 2713 2034 2713 
Q 2441 2713 2670 2916 
Q 2900 3119 2900 3481 
Q 2900 3844 2670 4047 
Q 2441 4250 2034 4250 
Q 1625 4250 1398 4047 
Q 1172 3844 1172 3481 
z
" transform="scale(0.015625)"/>
       </defs>
       <use xlink:href="#DejaVuSans-31"/>
       <use xlink:href="#DejaVuSans-32" transform="translate(63.623047 0)"/>
       <use xlink:href="#DejaVuSans-38" transform="translate(127.246094 0)"/>
      </g>
     </g>
    </g>
    <g id="xtick_4">
     <g id="line2d_4">
      <path d="M 106.393198 301.735725 
L 106.393198 35.623725 
" clip-path="url(#p30a4bac0ff)" style="fill: none; stroke: #cccccc; stroke-width: 0.8; stroke-linecap: round"/>
     </g>
     <g id="text_4">
      <!-- 32 -->
      <g style="fill: #262626" transform="translate(100.030698 316.334162) scale(0.1 -0.1)">
       <defs>
        <path id="DejaVuSans-33" d="M 2597 2516 
Q 3050 2419 3304 2112 
Q 3559 1806 3559 1356 
Q 3559 666 3084 287 
Q 2609 -91 1734 -91 
Q 1441 -91 1130 -33 
Q 819 25 488 141 
L 488 750 
Q 750 597 1062 519 
Q 1375 441 1716 441 
Q 2309 441 2620 675 
Q 2931 909 2931 1356 
Q 2931 1769 2642 2001 
Q 2353 2234 1838 2234 
L 1294 2234 
L 1294 2753 
L 1863 2753 
Q 2328 2753 2575 2939 
Q 2822 3125 2822 3475 
Q 2822 3834 2567 4026 
Q 2313 4219 1838 4219 
Q 1578 4219 1281 4162 
Q 984 4106 628 3988 
L 628 4550 
Q 988 4650 1302 4700 
Q 1616 4750 1894 4750 
Q 2613 4750 3031 4423 
Q 3450 4097 3450 3541 
Q 3450 3153 3228 2886 
Q 3006 2619 2597 2516 
z
" transform="scale(0.015625)"/>
       </defs>
       <use xlink:href="#DejaVuSans-33"/>
       <use xlink:href="#DejaVuSans-32" transform="translate(63.623047 0)"/>
      </g>
     </g>
    </g>
    <g id="text_5">
     <!-- Number of Jobs -->
     <g style="fill: #262626" transform="translate(183.944375 330.012287) scale(0.1 -0.1)">
      <defs>
       <path id="DejaVuSans-4e" d="M 628 4666 
L 1478 4666 
L 3547 763 
L 3547 4666 
L 4159 4666 
L 4159 0 
L 3309 0 
L 1241 3903 
L 1241 0 
L 628 0 
L 628 4666 
z
" transform="scale(0.015625)"/>
       <path id="DejaVuSans-75" d="M 544 1381 
L 544 3500 
L 1119 3500 
L 1119 1403 
Q 1119 906 1312 657 
Q 1506 409 1894 409 
Q 2359 409 2629 706 
Q 2900 1003 2900 1516 
L 2900 3500 
L 3475 3500 
L 3475 0 
L 2900 0 
L 2900 538 
Q 2691 219 2414 64 
Q 2138 -91 1772 -91 
Q 1169 -91 856 284 
Q 544 659 544 1381 
z
M 1991 3584 
L 1991 3584 
z
" transform="scale(0.015625)"/>
       <path id="DejaVuSans-6d" d="M 3328 2828 
Q 3544 3216 3844 3400 
Q 4144 3584 4550 3584 
Q 5097 3584 5394 3201 
Q 5691 2819 5691 2113 
L 5691 0 
L 5113 0 
L 5113 2094 
Q 5113 2597 4934 2840 
Q 4756 3084 4391 3084 
Q 3944 3084 3684 2787 
Q 3425 2491 3425 1978 
L 3425 0 
L 2847 0 
L 2847 2094 
Q 2847 2600 2669 2842 
Q 2491 3084 2119 3084 
Q 1678 3084 1418 2786 
Q 1159 2488 1159 1978 
L 1159 0 
L 581 0 
L 581 3500 
L 1159 3500 
L 1159 2956 
Q 1356 3278 1631 3431 
Q 1906 3584 2284 3584 
Q 2666 3584 2933 3390 
Q 3200 3197 3328 2828 
z
" transform="scale(0.015625)"/>
       <path id="DejaVuSans-62" d="M 3116 1747 
Q 3116 2381 2855 2742 
Q 2594 3103 2138 3103 
Q 1681 3103 1420 2742 
Q 1159 2381 1159 1747 
Q 1159 1113 1420 752 
Q 1681 391 2138 391 
Q 2594 391 2855 752 
Q 3116 1113 3116 1747 
z
M 1159 2969 
Q 1341 3281 1617 3432 
Q 1894 3584 2278 3584 
Q 2916 3584 3314 3078 
Q 3713 2572 3713 1747 
Q 3713 922 3314 415 
Q 2916 -91 2278 -91 
Q 1894 -91 1617 61 
Q 1341 213 1159 525 
L 1159 0 
L 581 0 
L 581 4863 
L 1159 4863 
L 1159 2969 
z
" transform="scale(0.015625)"/>
       <path id="DejaVuSans-65" d="M 3597 1894 
L 3597 1613 
L 953 1613 
Q 991 1019 1311 708 
Q 1631 397 2203 397 
Q 2534 397 2845 478 
Q 3156 559 3463 722 
L 3463 178 
Q 3153 47 2828 -22 
Q 2503 -91 2169 -91 
Q 1331 -91 842 396 
Q 353 884 353 1716 
Q 353 2575 817 3079 
Q 1281 3584 2069 3584 
Q 2775 3584 3186 3129 
Q 3597 2675 3597 1894 
z
M 3022 2063 
Q 3016 2534 2758 2815 
Q 2500 3097 2075 3097 
Q 1594 3097 1305 2825 
Q 1016 2553 972 2059 
L 3022 2063 
z
" transform="scale(0.015625)"/>
       <path id="DejaVuSans-72" d="M 2631 2963 
Q 2534 3019 2420 3045 
Q 2306 3072 2169 3072 
Q 1681 3072 1420 2755 
Q 1159 2438 1159 1844 
L 1159 0 
L 581 0 
L 581 3500 
L 1159 3500 
L 1159 2956 
Q 1341 3275 1631 3429 
Q 1922 3584 2338 3584 
Q 2397 3584 2469 3576 
Q 2541 3569 2628 3553 
L 2631 2963 
z
" transform="scale(0.015625)"/>
       <path id="DejaVuSans-20" transform="scale(0.015625)"/>
       <path id="DejaVuSans-6f" d="M 1959 3097 
Q 1497 3097 1228 2736 
Q 959 2375 959 1747 
Q 959 1119 1226 758 
Q 1494 397 1959 397 
Q 2419 397 2687 759 
Q 2956 1122 2956 1747 
Q 2956 2369 2687 2733 
Q 2419 3097 1959 3097 
z
M 1959 3584 
Q 2709 3584 3137 3096 
Q 3566 2609 3566 1747 
Q 3566 888 3137 398 
Q 2709 -91 1959 -91 
Q 1206 -91 779 398 
Q 353 888 353 1747 
Q 353 2609 779 3096 
Q 1206 3584 1959 3584 
z
" transform="scale(0.015625)"/>
       <path id="DejaVuSans-66" d="M 2375 4863 
L 2375 4384 
L 1825 4384 
Q 1516 4384 1395 4259 
Q 1275 4134 1275 3809 
L 1275 3500 
L 2222 3500 
L 2222 3053 
L 1275 3053 
L 1275 0 
L 697 0 
L 697 3053 
L 147 3053 
L 147 3500 
L 697 3500 
L 697 3744 
Q 697 4328 969 4595 
Q 1241 4863 1831 4863 
L 2375 4863 
z
" transform="scale(0.015625)"/>
       <path id="DejaVuSans-4a" d="M 628 4666 
L 1259 4666 
L 1259 325 
Q 1259 -519 939 -900 
Q 619 -1281 -91 -1281 
L -331 -1281 
L -331 -750 
L -134 -750 
Q 284 -750 456 -515 
Q 628 -281 628 325 
L 628 4666 
z
" transform="scale(0.015625)"/>
       <path id="DejaVuSans-73" d="M 2834 3397 
L 2834 2853 
Q 2591 2978 2328 3040 
Q 2066 3103 1784 3103 
Q 1356 3103 1142 2972 
Q 928 2841 928 2578 
Q 928 2378 1081 2264 
Q 1234 2150 1697 2047 
L 1894 2003 
Q 2506 1872 2764 1633 
Q 3022 1394 3022 966 
Q 3022 478 2636 193 
Q 2250 -91 1575 -91 
Q 1294 -91 989 -36 
Q 684 19 347 128 
L 347 722 
Q 666 556 975 473 
Q 1284 391 1588 391 
Q 1994 391 2212 530 
Q 2431 669 2431 922 
Q 2431 1156 2273 1281 
Q 2116 1406 1581 1522 
L 1381 1569 
Q 847 1681 609 1914 
Q 372 2147 372 2553 
Q 372 3047 722 3315 
Q 1072 3584 1716 3584 
Q 2034 3584 2315 3537 
Q 2597 3491 2834 3397 
z
" transform="scale(0.015625)"/>
      </defs>
      <use xlink:href="#DejaVuSans-4e"/>
      <use xlink:href="#DejaVuSans-75" transform="translate(74.804688 0)"/>
      <use xlink:href="#DejaVuSans-6d" transform="translate(138.183594 0)"/>
      <use xlink:href="#DejaVuSans-62" transform="translate(235.595703 0)"/>
      <use xlink:href="#DejaVuSans-65" transform="translate(299.072266 0)"/>
      <use xlink:href="#DejaVuSans-72" transform="translate(360.595703 0)"/>
      <use xlink:href="#DejaVuSans-20" transform="translate(401.708984 0)"/>
      <use xlink:href="#DejaVuSans-6f" transform="translate(433.496094 0)"/>
      <use xlink:href="#DejaVuSans-66" transform="translate(494.677734 0)"/>
      <use xlink:href="#DejaVuSans-20" transform="translate(529.882812 0)"/>
      <use xlink:href="#DejaVuSans-4a" transform="translate(561.669922 0)"/>
      <use xlink:href="#DejaVuSans-6f" transform="translate(591.162109 0)"/>
      <use xlink:href="#DejaVuSans-62" transform="translate(652.34375 0)"/>
      <use xlink:href="#DejaVuSans-73" transform="translate(715.820312 0)"/>
     </g>
    </g>
   </g>
   <g id="matplotlib.axis_2">
    <g id="ytick_1">
     <g id="line2d_5">
      <path d="M 43.78125 272.513105 
L 400.90125 272.513105 
" clip-path="url(#p30a4bac0ff)" style="fill: none; stroke: #cccccc; stroke-width: 0.8; stroke-linecap: round"/>
     </g>
     <g id="text_6">
      <!-- 0.5 -->
      <g style="fill: #262626" transform="translate(20.878125 276.312323) scale(0.1 -0.1)">
       <defs>
        <path id="DejaVuSans-30" d="M 2034 4250 
Q 1547 4250 1301 3770 
Q 1056 3291 1056 2328 
Q 1056 1369 1301 889 
Q 1547 409 2034 409 
Q 2525 409 2770 889 
Q 3016 1369 3016 2328 
Q 3016 3291 2770 3770 
Q 2525 4250 2034 4250 
z
M 2034 4750 
Q 2819 4750 3233 4129 
Q 3647 3509 3647 2328 
Q 3647 1150 3233 529 
Q 2819 -91 2034 -91 
Q 1250 -91 836 529 
Q 422 1150 422 2328 
Q 422 3509 836 4129 
Q 1250 4750 2034 4750 
z
" transform="scale(0.015625)"/>
        <path id="DejaVuSans-2e" d="M 684 794 
L 1344 794 
L 1344 0 
L 684 0 
L 684 794 
z
" transform="scale(0.015625)"/>
        <path id="DejaVuSans-35" d="M 691 4666 
L 3169 4666 
L 3169 4134 
L 1269 4134 
L 1269 2991 
Q 1406 3038 1543 3061 
Q 1681 3084 1819 3084 
Q 2600 3084 3056 2656 
Q 3513 2228 3513 1497 
Q 3513 744 3044 326 
Q 2575 -91 1722 -91 
Q 1428 -91 1123 -41 
Q 819 9 494 109 
L 494 744 
Q 775 591 1075 516 
Q 1375 441 1709 441 
Q 2250 441 2565 725 
Q 2881 1009 2881 1497 
Q 2881 1984 2565 2268 
Q 2250 2553 1709 2553 
Q 1456 2553 1204 2497 
Q 953 2441 691 2322 
L 691 4666 
z
" transform="scale(0.015625)"/>
       </defs>
       <use xlink:href="#DejaVuSans-30"/>
       <use xlink:href="#DejaVuSans-2e" transform="translate(63.623047 0)"/>
       <use xlink:href="#DejaVuSans-35" transform="translate(95.410156 0)"/>
      </g>
     </g>
    </g>
    <g id="ytick_2">
     <g id="line2d_6">
      <path d="M 43.78125 228.213348 
L 400.90125 228.213348 
" clip-path="url(#p30a4bac0ff)" style="fill: none; stroke: #cccccc; stroke-width: 0.8; stroke-linecap: round"/>
     </g>
     <g id="text_7">
      <!-- 1.0 -->
      <g style="fill: #262626" transform="translate(20.878125 232.012566) scale(0.1 -0.1)">
       <use xlink:href="#DejaVuSans-31"/>
       <use xlink:href="#DejaVuSans-2e" transform="translate(63.623047 0)"/>
       <use xlink:href="#DejaVuSans-30" transform="translate(95.410156 0)"/>
      </g>
     </g>
    </g>
    <g id="ytick_3">
     <g id="line2d_7">
      <path d="M 43.78125 183.913591 
L 400.90125 183.913591 
" clip-path="url(#p30a4bac0ff)" style="fill: none; stroke: #cccccc; stroke-width: 0.8; stroke-linecap: round"/>
     </g>
     <g id="text_8">
      <!-- 1.5 -->
      <g style="fill: #262626" transform="translate(20.878125 187.71281) scale(0.1 -0.1)">
       <use xlink:href="#DejaVuSans-31"/>
       <use xlink:href="#DejaVuSans-2e" transform="translate(63.623047 0)"/>
       <use xlink:href="#DejaVuSans-35" transform="translate(95.410156 0)"/>
      </g>
     </g>
    </g>
    <g id="ytick_4">
     <g id="line2d_8">
      <path d="M 43.78125 139.613834 
L 400.90125 139.613834 
" clip-path="url(#p30a4bac0ff)" style="fill: none; stroke: #cccccc; stroke-width: 0.8; stroke-linecap: round"/>
     </g>
     <g id="text_9">
      <!-- 2.0 -->
      <g style="fill: #262626" transform="translate(20.878125 143.413053) scale(0.1 -0.1)">
       <use xlink:href="#DejaVuSans-32"/>
       <use xlink:href="#DejaVuSans-2e" transform="translate(63.623047 0)"/>
       <use xlink:href="#DejaVuSans-30" transform="translate(95.410156 0)"/>
      </g>
     </g>
    </g>
    <g id="ytick_5">
     <g id="line2d_9">
      <path d="M 43.78125 95.314077 
L 400.90125 95.314077 
" clip-path="url(#p30a4bac0ff)" style="fill: none; stroke: #cccccc; stroke-width: 0.8; stroke-linecap: round"/>
     </g>
     <g id="text_10">
      <!-- 2.5 -->
      <g style="fill: #262626" transform="translate(20.878125 99.113296) scale(0.1 -0.1)">
       <use xlink:href="#DejaVuSans-32"/>
       <use xlink:href="#DejaVuSans-2e" transform="translate(63.623047 0)"/>
       <use xlink:href="#DejaVuSans-35" transform="translate(95.410156 0)"/>
      </g>
     </g>
    </g>
    <g id="ytick_6">
     <g id="line2d_10">
      <path d="M 43.78125 51.014321 
L 400.90125 51.014321 
" clip-path="url(#p30a4bac0ff)" style="fill: none; stroke: #cccccc; stroke-width: 0.8; stroke-linecap: round"/>
     </g>
     <g id="text_11">
      <!-- 3.0 -->
      <g style="fill: #262626" transform="translate(20.878125 54.813539) scale(0.1 -0.1)">
       <use xlink:href="#DejaVuSans-33"/>
       <use xlink:href="#DejaVuSans-2e" transform="translate(63.623047 0)"/>
       <use xlink:href="#DejaVuSans-30" transform="translate(95.410156 0)"/>
      </g>
     </g>
    </g>
    <g id="text_12">
     <!-- Mean Latency (ns) -->
     <g style="fill: #262626" transform="translate(14.798438 214.92035) rotate(-90) scale(0.1 -0.1)">
      <defs>
       <path id="DejaVuSans-4d" d="M 628 4666 
L 1569 4666 
L 2759 1491 
L 3956 4666 
L 4897 4666 
L 4897 0 
L 4281 0 
L 4281 4097 
L 3078 897 
L 2444 897 
L 1241 4097 
L 1241 0 
L 628 0 
L 628 4666 
z
" transform="scale(0.015625)"/>
       <path id="DejaVuSans-61" d="M 2194 1759 
Q 1497 1759 1228 1600 
Q 959 1441 959 1056 
Q 959 750 1161 570 
Q 1363 391 1709 391 
Q 2188 391 2477 730 
Q 2766 1069 2766 1631 
L 2766 1759 
L 2194 1759 
z
M 3341 1997 
L 3341 0 
L 2766 0 
L 2766 531 
Q 2569 213 2275 61 
Q 1981 -91 1556 -91 
Q 1019 -91 701 211 
Q 384 513 384 1019 
Q 384 1609 779 1909 
Q 1175 2209 1959 2209 
L 2766 2209 
L 2766 2266 
Q 2766 2663 2505 2880 
Q 2244 3097 1772 3097 
Q 1472 3097 1187 3025 
Q 903 2953 641 2809 
L 641 3341 
Q 956 3463 1253 3523 
Q 1550 3584 1831 3584 
Q 2591 3584 2966 3190 
Q 3341 2797 3341 1997 
z
" transform="scale(0.015625)"/>
       <path id="DejaVuSans-6e" d="M 3513 2113 
L 3513 0 
L 2938 0 
L 2938 2094 
Q 2938 2591 2744 2837 
Q 2550 3084 2163 3084 
Q 1697 3084 1428 2787 
Q 1159 2491 1159 1978 
L 1159 0 
L 581 0 
L 581 3500 
L 1159 3500 
L 1159 2956 
Q 1366 3272 1645 3428 
Q 1925 3584 2291 3584 
Q 2894 3584 3203 3211 
Q 3513 2838 3513 2113 
z
" transform="scale(0.015625)"/>
       <path id="DejaVuSans-4c" d="M 628 4666 
L 1259 4666 
L 1259 531 
L 3531 531 
L 3531 0 
L 628 0 
L 628 4666 
z
" transform="scale(0.015625)"/>
       <path id="DejaVuSans-74" d="M 1172 4494 
L 1172 3500 
L 2356 3500 
L 2356 3053 
L 1172 3053 
L 1172 1153 
Q 1172 725 1289 603 
Q 1406 481 1766 481 
L 2356 481 
L 2356 0 
L 1766 0 
Q 1100 0 847 248 
Q 594 497 594 1153 
L 594 3053 
L 172 3053 
L 172 3500 
L 594 3500 
L 594 4494 
L 1172 4494 
z
" transform="scale(0.015625)"/>
       <path id="DejaVuSans-63" d="M 3122 3366 
L 3122 2828 
Q 2878 2963 2633 3030 
Q 2388 3097 2138 3097 
Q 1578 3097 1268 2742 
Q 959 2388 959 1747 
Q 959 1106 1268 751 
Q 1578 397 2138 397 
Q 2388 397 2633 464 
Q 2878 531 3122 666 
L 3122 134 
Q 2881 22 2623 -34 
Q 2366 -91 2075 -91 
Q 1284 -91 818 406 
Q 353 903 353 1747 
Q 353 2603 823 3093 
Q 1294 3584 2113 3584 
Q 2378 3584 2631 3529 
Q 2884 3475 3122 3366 
z
" transform="scale(0.015625)"/>
       <path id="DejaVuSans-79" d="M 2059 -325 
Q 1816 -950 1584 -1140 
Q 1353 -1331 966 -1331 
L 506 -1331 
L 506 -850 
L 844 -850 
Q 1081 -850 1212 -737 
Q 1344 -625 1503 -206 
L 1606 56 
L 191 3500 
L 800 3500 
L 1894 763 
L 2988 3500 
L 3597 3500 
L 2059 -325 
z
" transform="scale(0.015625)"/>
       <path id="DejaVuSans-28" d="M 1984 4856 
Q 1566 4138 1362 3434 
Q 1159 2731 1159 2009 
Q 1159 1288 1364 580 
Q 1569 -128 1984 -844 
L 1484 -844 
Q 1016 -109 783 600 
Q 550 1309 550 2009 
Q 550 2706 781 3412 
Q 1013 4119 1484 4856 
L 1984 4856 
z
" transform="scale(0.015625)"/>
       <path id="DejaVuSans-29" d="M 513 4856 
L 1013 4856 
Q 1481 4119 1714 3412 
Q 1947 2706 1947 2009 
Q 1947 1309 1714 600 
Q 1481 -109 1013 -844 
L 513 -844 
Q 928 -128 1133 580 
Q 1338 1288 1338 2009 
Q 1338 2731 1133 3434 
Q 928 4138 513 4856 
z
" transform="scale(0.015625)"/>
      </defs>
      <use xlink:href="#DejaVuSans-4d"/>
      <use xlink:href="#DejaVuSans-65" transform="translate(86.279297 0)"/>
      <use xlink:href="#DejaVuSans-61" transform="translate(147.802734 0)"/>
      <use xlink:href="#DejaVuSans-6e" transform="translate(209.082031 0)"/>
      <use xlink:href="#DejaVuSans-20" transform="translate(272.460938 0)"/>
      <use xlink:href="#DejaVuSans-4c" transform="translate(304.248047 0)"/>
      <use xlink:href="#DejaVuSans-61" transform="translate(359.960938 0)"/>
      <use xlink:href="#DejaVuSans-74" transform="translate(421.240234 0)"/>
      <use xlink:href="#DejaVuSans-65" transform="translate(460.449219 0)"/>
      <use xlink:href="#DejaVuSans-6e" transform="translate(521.972656 0)"/>
      <use xlink:href="#DejaVuSans-63" transform="translate(585.351562 0)"/>
      <use xlink:href="#DejaVuSans-79" transform="translate(640.332031 0)"/>
      <use xlink:href="#DejaVuSans-20" transform="translate(699.511719 0)"/>
      <use xlink:href="#DejaVuSans-28" transform="translate(731.298828 0)"/>
      <use xlink:href="#DejaVuSans-6e" transform="translate(770.3125 0)"/>
      <use xlink:href="#DejaVuSans-73" transform="translate(833.691406 0)"/>
      <use xlink:href="#DejaVuSans-29" transform="translate(885.791016 0)"/>
     </g>
    </g>
    <g id="text_13">
     <!-- 1e6 -->
     <g style="fill: #262626" transform="translate(43.78125 32.623725) scale(0.1 -0.1)">
      <use xlink:href="#DejaVuSans-31"/>
      <use xlink:href="#DejaVuSans-65" transform="translate(63.623047 0)"/>
      <use xlink:href="#DejaVuSans-36" transform="translate(125.146484 0)"/>
     </g>
    </g>
   </g>
   <g id="FillBetweenPolyCollection_1"/>
   <g id="FillBetweenPolyCollection_2"/>
   <g id="FillBetweenPolyCollection_3"/>
   <g id="FillBetweenPolyCollection_4"/>
   <g id="FillBetweenPolyCollection_5"/>
   <g id="FillBetweenPolyCollection_6"/>
   <g id="FillBetweenPolyCollection_7"/>
   <g id="line2d_11">
    <path d="M 60.013977 287.237066 
L 106.393198 255.415056 
L 199.15164 180.294868 
L 384.668523 62.239263 
" clip-path="url(#p30a4bac0ff)" style="fill: none; stroke: #4c02a1; stroke-width: 1.5; stroke-linecap: round"/>
   </g>
   <g id="line2d_12">
    <path d="M 60.013977 289.639725 
L 106.393198 258.91332 
L 199.15164 202.878323 
L 384.668523 75.443939 
" clip-path="url(#p30a4bac0ff)" style="fill: none; stroke: #7e03a8; stroke-width: 1.5; stroke-linecap: round"/>
   </g>
   <g id="line2d_13">
    <path d="M 60.013977 279.922848 
L 106.393198 254.675911 
L 199.15164 186.055057 
L 384.668523 47.719725 
" clip-path="url(#p30a4bac0ff)" style="fill: none; stroke: #aa2395; stroke-width: 1.5; stroke-linecap: round"/>
   </g>
   <g id="line2d_14">
    <path d="M 60.013977 286.827365 
L 106.393198 255.160144 
L 199.15164 201.619168 
L 384.668523 51.652663 
" clip-path="url(#p30a4bac0ff)" style="fill: none; stroke: #cc4778; stroke-width: 1.5; stroke-linecap: round"/>
   </g>
   <g id="line2d_15">
    <path d="M 60.013977 280.389536 
L 106.393198 260.277101 
L 199.15164 203.838662 
L 384.668523 86.061164 
" clip-path="url(#p30a4bac0ff)" style="fill: none; stroke: #e66c5c; stroke-width: 1.5; stroke-linecap: round"/>
   </g>
   <g id="line2d_16">
    <path d="M 60.013977 285.627536 
L 106.393198 256.099852 
L 199.15164 204.12075 
L 384.668523 84.534231 
" clip-path="url(#p30a4bac0ff)" style="fill: none; stroke: #f89540; stroke-width: 1.5; stroke-linecap: round"/>
   </g>
   <g id="line2d_17">
    <path d="M 60.013977 288.952497 
L 106.393198 252.871904 
L 199.15164 200.501237 
L 384.668523 84.941341 
" clip-path="url(#p30a4bac0ff)" style="fill: none; stroke: #fdc527; stroke-width: 1.5; stroke-linecap: round"/>
   </g>
   <g id="line2d_18"/>
   <g id="line2d_19"/>
   <g id="line2d_20"/>
   <g id="line2d_21"/>
   <g id="line2d_22"/>
   <g id="line2d_23"/>
   <g id="line2d_24"/>
   <g id="text_14">
    <path d="M 101.304807 261.24657 
L 102.633139 260.335167 
L 99.486101 255.748494 
L 98.239426 257.03023 
L 97.731127 256.289405 
L 98.970071 255.012974 
L 99.783046 254.45517 
L 103.438383 259.782667 
L 104.766714 258.871264 
L 105.236118 259.5554 
L 101.774211 261.930706 
L 101.304807 261.24657 
z
" clip-path="url(#p30a4bac0ff)" style="fill: #4c02a1; stroke: #ffffff; stroke-width: 5"/>
    <path d="M 101.304807 261.24657 
L 102.633139 260.335167 
L 99.486101 255.748494 
L 98.239426 257.03023 
L 97.731127 256.289405 
L 98.970071 255.012974 
L 99.783046 254.45517 
L 103.438383 259.782667 
L 104.766714 258.871264 
L 105.236118 259.5554 
L 101.774211 261.930706 
L 101.304807 261.24657 
z
" clip-path="url(#p30a4bac0ff)" style="fill: #4c02a1"/>
   </g>
   <g id="text_15">
    <path d="M 140.602857 233.957542 
L 140.483564 238.576861 
L 142.615395 237.28903 
L 140.602857 233.957542 
z
M 139.936489 233.356082 
L 140.998392 232.71459 
L 143.455289 236.781654 
L 144.346004 236.243577 
L 144.770164 236.945717 
L 143.879449 237.483794 
L 144.768165 238.954945 
L 143.928272 239.462321 
L 143.039555 237.99117 
L 140.22297 239.692658 
L 139.730944 238.878175 
L 139.936489 233.356082 
z
" clip-path="url(#p30a4bac0ff)" style="fill: #7e03a8; stroke: #ffffff; stroke-width: 5"/>
    <path d="M 140.602857 233.957542 
L 140.483564 238.576861 
L 142.615395 237.28903 
L 140.602857 233.957542 
z
M 139.936489 233.356082 
L 140.998392 232.71459 
L 143.455289 236.781654 
L 144.346004 236.243577 
L 144.770164 236.945717 
L 143.879449 237.483794 
L 144.768165 238.954945 
L 143.928272 239.462321 
L 143.039555 237.99117 
L 140.22297 239.692658 
L 139.730944 238.878175 
L 139.936489 233.356082 
z
" clip-path="url(#p30a4bac0ff)" style="fill: #7e03a8"/>
   </g>
   <g id="text_16">
    <path d="M 181.744569 198.057849 
Q 181.179308 198.476018 181.079178 199.018496 
Q 180.980304 199.560046 181.371524 200.088878 
Q 181.763673 200.618967 182.310452 200.682875 
Q 182.858488 200.745854 183.423749 200.327685 
Q 183.989009 199.909516 184.089467 199.364852 
Q 184.190251 198.818003 183.800889 198.291682 
Q 183.409669 197.762849 182.861634 197.699871 
Q 182.314854 197.635963 181.744569 198.057849 
z
M 180.702905 198.30757 
Q 180.099988 198.559238 179.55651 198.420975 
Q 179.013359 198.280527 178.641653 197.778073 
Q 178.122195 197.075894 178.320126 196.297803 
Q 178.519313 195.518783 179.389815 194.874803 
Q 180.265341 194.227106 181.066037 194.266432 
Q 181.866733 194.305758 182.386192 195.007938 
Q 182.757897 195.510392 182.732019 196.071796 
Q 182.706468 196.631016 182.293172 197.131122 
Q 182.964472 196.840528 183.571602 196.993897 
Q 184.179059 197.145081 184.59351 197.705317 
Q 185.22448 198.558233 185.041763 199.398925 
Q 184.858117 200.238361 183.888381 200.955752 
Q 182.9199 201.672215 182.062211 201.603138 
Q 181.204848 201.531877 180.573878 200.678961 
Q 180.159427 200.118725 180.193855 199.492687 
Q 180.22861 198.864465 180.702905 198.30757 
z
M 179.486262 197.269864 
Q 179.822656 197.724584 180.295183 197.769566 
Q 180.768966 197.813619 181.282725 197.43355 
Q 181.793972 197.05534 181.892986 196.587543 
Q 181.993257 196.118817 181.656863 195.664096 
Q 181.319541 195.208119 180.841989 195.166854 
Q 180.365694 195.12466 179.854447 195.50287 
Q 179.340687 195.882939 179.244185 196.348878 
Q 179.148939 196.813887 179.486262 197.269864 
z
" clip-path="url(#p30a4bac0ff)" style="fill: #aa2395; stroke: #ffffff; stroke-width: 5"/>
    <path d="M 181.744569 198.057849 
Q 181.179308 198.476018 181.079178 199.018496 
Q 180.980304 199.560046 181.371524 200.088878 
Q 181.763673 200.618967 182.310452 200.682875 
Q 182.858488 200.745854 183.423749 200.327685 
Q 183.989009 199.909516 184.089467 199.364852 
Q 184.190251 198.818003 183.800889 198.291682 
Q 183.409669 197.762849 182.861634 197.699871 
Q 182.314854 197.635963 181.744569 198.057849 
z
M 180.702905 198.30757 
Q 180.099988 198.559238 179.55651 198.420975 
Q 179.013359 198.280527 178.641653 197.778073 
Q 178.122195 197.075894 178.320126 196.297803 
Q 178.519313 195.518783 179.389815 194.874803 
Q 180.265341 194.227106 181.066037 194.266432 
Q 181.866733 194.305758 182.386192 195.007938 
Q 182.757897 195.510392 182.732019 196.071796 
Q 182.706468 196.631016 182.293172 197.131122 
Q 182.964472 196.840528 183.571602 196.993897 
Q 184.179059 197.145081 184.59351 197.705317 
Q 185.22448 198.558233 185.041763 199.398925 
Q 184.858117 200.238361 183.888381 200.955752 
Q 182.9199 201.672215 182.062211 201.603138 
Q 181.204848 201.531877 180.573878 200.678961 
Q 180.159427 200.118725 180.193855 199.492687 
Q 180.22861 198.864465 180.702905 198.30757 
z
M 179.486262 197.269864 
Q 179.822656 197.724584 180.295183 197.769566 
Q 180.768966 197.813619 181.282725 197.43355 
Q 181.793972 197.05534 181.892986 196.587543 
Q 181.993257 196.118817 181.656863 195.664096 
Q 181.319541 195.208119 180.841989 195.166854 
Q 180.365694 195.12466 179.854447 195.50287 
Q 179.340687 195.882939 179.244185 196.348878 
Q 179.148939 196.813887 179.486262 197.269864 
z
" clip-path="url(#p30a4bac0ff)" style="fill: #aa2395"/>
   </g>
   <g id="text_17">
    <path d="M 219.571165 187.59394 
L 220.823964 186.581214 
L 217.327062 182.255352 
L 216.184698 183.63087 
L 215.61989 182.93217 
L 216.754963 181.562546 
L 217.521709 180.94273 
L 221.58342 185.967292 
L 222.836219 184.954565 
L 223.357808 185.599799 
L 220.092754 188.239174 
L 219.571165 187.59394 
z
M 224.105166 179.803953 
Q 223.588735 180.22142 223.57201 180.819609 
Q 223.555518 181.415601 224.05255 182.030457 
Q 224.546635 182.641667 225.135794 182.754096 
Q 225.725186 182.864327 226.241616 182.44686 
Q 226.758046 182.029392 226.772573 181.43097 
Q 226.786119 180.831333 226.292034 180.220122 
Q 225.795002 179.605267 225.20879 179.496484 
Q 224.621596 179.386485 224.105166 179.803953 
z
M 223.683799 176.168419 
L 224.248608 176.867119 
Q 223.849392 176.964806 223.497376 177.130824 
Q 223.144378 177.295627 222.855178 177.529409 
Q 222.095721 178.143331 222.109249 178.980267 
Q 222.123992 179.81622 222.904762 180.898893 
Q 222.861167 180.387639 223.056543 179.938372 
Q 223.253134 179.488124 223.658987 179.160043 
Q 224.513224 178.469503 225.428428 178.587595 
Q 226.342651 178.704472 227.063641 179.596377 
Q 227.769898 180.470056 227.680758 181.416104 
Q 227.590635 182.360938 226.732754 183.054425 
Q 225.748499 183.850068 224.619412 183.517102 
Q 223.489343 183.18292 222.332222 181.751497 
Q 221.245825 180.407564 221.237431 179.092314 
Q 221.229036 177.777063 222.303211 176.908732 
Q 222.592412 176.67495 222.93264 176.49435 
Q 223.272868 176.313751 223.683799 176.168419 
z
" clip-path="url(#p30a4bac0ff)" style="fill: #cc4778; stroke: #ffffff; stroke-width: 5"/>
    <path d="M 219.571165 187.59394 
L 220.823964 186.581214 
L 217.327062 182.255352 
L 216.184698 183.63087 
L 215.61989 182.93217 
L 216.754963 181.562546 
L 217.521709 180.94273 
L 221.58342 185.967292 
L 222.836219 184.954565 
L 223.357808 185.599799 
L 220.092754 188.239174 
L 219.571165 187.59394 
z
M 224.105166 179.803953 
Q 223.588735 180.22142 223.57201 180.819609 
Q 223.555518 181.415601 224.05255 182.030457 
Q 224.546635 182.641667 225.135794 182.754096 
Q 225.725186 182.864327 226.241616 182.44686 
Q 226.758046 182.029392 226.772573 181.43097 
Q 226.786119 180.831333 226.292034 180.220122 
Q 225.795002 179.605267 225.20879 179.496484 
Q 224.621596 179.386485 224.105166 179.803953 
z
M 223.683799 176.168419 
L 224.248608 176.867119 
Q 223.849392 176.964806 223.497376 177.130824 
Q 223.144378 177.295627 222.855178 177.529409 
Q 222.095721 178.143331 222.109249 178.980267 
Q 222.123992 179.81622 222.904762 180.898893 
Q 222.861167 180.387639 223.056543 179.938372 
Q 223.253134 179.488124 223.658987 179.160043 
Q 224.513224 178.469503 225.428428 178.587595 
Q 226.342651 178.704472 227.063641 179.596377 
Q 227.769898 180.470056 227.680758 181.416104 
Q 227.590635 182.360938 226.732754 183.054425 
Q 225.748499 183.850068 224.619412 183.517102 
Q 223.489343 183.18292 222.332222 181.751497 
Q 221.245825 180.407564 221.237431 179.092314 
Q 221.229036 177.777063 222.303211 176.908732 
Q 222.592412 176.67495 222.93264 176.49435 
Q 223.272868 176.313751 223.683799 176.168419 
z
" clip-path="url(#p30a4bac0ff)" style="fill: #cc4778"/>
   </g>
   <g id="text_18">
    <path d="M 259.943458 163.856196 
Q 260.622252 163.604782 261.214407 163.797037 
Q 261.807044 163.987136 262.1839 164.580739 
Q 262.761745 165.49093 262.45256 166.388668 
Q 262.142538 167.285087 260.98831 168.017862 
Q 260.601808 168.263237 260.14299 168.447177 
Q 259.684172 168.631117 259.150399 168.755298 
L 258.640388 167.951955 
Q 259.114127 167.934366 259.591014 167.775971 
Q 260.069219 167.616738 260.519039 167.331165 
Q 261.301276 166.834553 261.515556 166.26543 
Q 261.729837 165.696308 261.355494 165.106662 
Q 261.009624 164.561866 260.434109 164.497856 
Q 259.857756 164.432527 259.178411 164.863817 
L 258.460811 165.319394 
L 258.02617 164.634771 
L 258.776748 164.158258 
Q 259.390138 163.768841 259.560193 163.316633 
Q 259.730249 162.864425 259.437139 162.402734 
Q 259.136492 161.929171 258.639325 161.889452 
Q 258.14264 161.847576 257.516059 162.245368 
Q 257.173088 162.463107 256.829045 162.787021 
Q 256.484165 163.109617 256.113379 163.563407 
L 255.642728 162.822063 
Q 256.033864 162.388667 256.406195 162.059749 
Q 256.778525 161.730832 257.14524 161.498019 
Q 258.093685 160.895887 258.918925 160.977182 
Q 259.744646 161.05632 260.210273 161.789749 
Q 260.535206 162.301567 260.465963 162.839687 
Q 260.39672 163.377807 259.943458 163.856196 
z
M 265.171221 164.211103 
L 268.077238 162.366186 
L 268.521928 163.066637 
L 264.6147 165.547185 
L 264.170011 164.846733 
Q 264.33204 164.055374 264.625645 162.710383 
Q 264.919732 161.363236 264.977054 160.99 
Q 265.092012 160.287751 265.052666 159.875944 
Q 265.01464 159.4633 264.823699 159.162541 
Q 264.512165 158.671829 263.971911 158.581732 
Q 263.430818 158.490316 262.878108 158.84121 
Q 262.48633 159.089935 262.137279 159.502165 
Q 261.789547 159.913557 261.470744 160.504618 
L 260.936447 159.663021 
Q 261.3109 159.142125 261.682206 158.762035 
Q 262.054832 158.381109 262.417589 158.150808 
Q 263.373949 157.543652 264.246486 157.661547 
Q 265.118185 157.778124 265.625684 158.57751 
Q 265.866872 158.957416 265.940471 159.388193 
Q 266.014552 159.816815 265.931713 160.517181 
Q 265.905031 160.702542 265.714939 161.624615 
Q 265.526167 162.54585 265.171221 164.211103 
z
" clip-path="url(#p30a4bac0ff)" style="fill: #e66c5c; stroke: #ffffff; stroke-width: 5"/>
    <path d="M 259.943458 163.856196 
Q 260.622252 163.604782 261.214407 163.797037 
Q 261.807044 163.987136 262.1839 164.580739 
Q 262.761745 165.49093 262.45256 166.388668 
Q 262.142538 167.285087 260.98831 168.017862 
Q 260.601808 168.263237 260.14299 168.447177 
Q 259.684172 168.631117 259.150399 168.755298 
L 258.640388 167.951955 
Q 259.114127 167.934366 259.591014 167.775971 
Q 260.069219 167.616738 260.519039 167.331165 
Q 261.301276 166.834553 261.515556 166.26543 
Q 261.729837 165.696308 261.355494 165.106662 
Q 261.009624 164.561866 260.434109 164.497856 
Q 259.857756 164.432527 259.178411 164.863817 
L 258.460811 165.319394 
L 258.02617 164.634771 
L 258.776748 164.158258 
Q 259.390138 163.768841 259.560193 163.316633 
Q 259.730249 162.864425 259.437139 162.402734 
Q 259.136492 161.929171 258.639325 161.889452 
Q 258.14264 161.847576 257.516059 162.245368 
Q 257.173088 162.463107 256.829045 162.787021 
Q 256.484165 163.109617 256.113379 163.563407 
L 255.642728 162.822063 
Q 256.033864 162.388667 256.406195 162.059749 
Q 256.778525 161.730832 257.14524 161.498019 
Q 258.093685 160.895887 258.918925 160.977182 
Q 259.744646 161.05632 260.210273 161.789749 
Q 260.535206 162.301567 260.465963 162.839687 
Q 260.39672 163.377807 259.943458 163.856196 
z
M 265.171221 164.211103 
L 268.077238 162.366186 
L 268.521928 163.066637 
L 264.6147 165.547185 
L 264.170011 164.846733 
Q 264.33204 164.055374 264.625645 162.710383 
Q 264.919732 161.363236 264.977054 160.99 
Q 265.092012 160.287751 265.052666 159.875944 
Q 265.01464 159.4633 264.823699 159.162541 
Q 264.512165 158.671829 263.971911 158.581732 
Q 263.430818 158.490316 262.878108 158.84121 
Q 262.48633 159.089935 262.137279 159.502165 
Q 261.789547 159.913557 261.470744 160.504618 
L 260.936447 159.663021 
Q 261.3109 159.142125 261.682206 158.762035 
Q 262.054832 158.381109 262.417589 158.150808 
Q 263.373949 157.543652 264.246486 157.661547 
Q 265.118185 157.778124 265.625684 158.57751 
Q 265.866872 158.957416 265.940471 159.388193 
Q 266.014552 159.816815 265.931713 160.517181 
Q 265.905031 160.702542 265.714939 161.624615 
Q 265.526167 162.54585 265.171221 164.211103 
z
" clip-path="url(#p30a4bac0ff)" style="fill: #e66c5c"/>
   </g>
   <g id="text_19">
    <path d="M 299.428022 137.960671 
Q 298.869873 138.320461 298.789214 138.913423 
Q 298.709021 139.504226 299.137382 140.168751 
Q 299.563204 140.829337 300.136944 141.004183 
Q 300.71115 141.17687 301.269299 140.81708 
Q 301.827448 140.45729 301.905948 139.863861 
Q 301.983601 139.269119 301.557779 138.608533 
Q 301.129417 137.944008 300.558217 137.773101 
Q 299.986171 137.600881 299.428022 137.960671 
z
M 299.398226 134.300921 
L 299.885 135.056064 
Q 299.477621 135.110458 299.109858 135.237842 
Q 298.741247 135.363913 298.428684 135.565396 
Q 297.607876 136.094498 297.53174 136.928074 
Q 297.456917 137.760802 298.117312 138.920829 
Q 298.128692 138.407846 298.371036 137.982073 
Q 298.614692 137.555455 299.053332 137.272702 
Q 299.976576 136.677567 300.873882 136.892945 
Q 301.770341 137.107009 302.391719 138.070965 
Q 303.000399 139.015221 302.810506 139.946293 
Q 302.619766 140.876052 301.692582 141.473726 
Q 300.628815 142.159443 299.541857 141.707532 
Q 298.454051 141.254307 297.456798 139.70725 
Q 296.520498 138.254749 296.652937 136.946157 
Q 296.785376 135.637565 297.946326 134.889202 
Q 298.258889 134.687719 298.616494 134.544576 
Q 298.974099 134.401432 299.398226 134.300921 
z
M 303.880512 132.242555 
L 303.895917 136.863388 
L 305.989304 135.513965 
L 303.880512 132.242555 
z
M 303.196895 131.660774 
L 304.239649 130.988602 
L 306.814051 134.982322 
L 307.688703 134.41851 
L 308.13315 135.107988 
L 307.258497 135.6718 
L 308.189718 137.116421 
L 307.364971 137.648064 
L 306.43375 136.203443 
L 303.667958 137.986307 
L 303.1524 137.186513 
L 303.196895 131.660774 
z
" clip-path="url(#p30a4bac0ff)" style="fill: #f89540; stroke: #ffffff; stroke-width: 5"/>
    <path d="M 299.428022 137.960671 
Q 298.869873 138.320461 298.789214 138.913423 
Q 298.709021 139.504226 299.137382 140.168751 
Q 299.563204 140.829337 300.136944 141.004183 
Q 300.71115 141.17687 301.269299 140.81708 
Q 301.827448 140.45729 301.905948 139.863861 
Q 301.983601 139.269119 301.557779 138.608533 
Q 301.129417 137.944008 300.558217 137.773101 
Q 299.986171 137.600881 299.428022 137.960671 
z
M 299.398226 134.300921 
L 299.885 135.056064 
Q 299.477621 135.110458 299.109858 135.237842 
Q 298.741247 135.363913 298.428684 135.565396 
Q 297.607876 136.094498 297.53174 136.928074 
Q 297.456917 137.760802 298.117312 138.920829 
Q 298.128692 138.407846 298.371036 137.982073 
Q 298.614692 137.555455 299.053332 137.272702 
Q 299.976576 136.677567 300.873882 136.892945 
Q 301.770341 137.107009 302.391719 138.070965 
Q 303.000399 139.015221 302.810506 139.946293 
Q 302.619766 140.876052 301.692582 141.473726 
Q 300.628815 142.159443 299.541857 141.707532 
Q 298.454051 141.254307 297.456798 139.70725 
Q 296.520498 138.254749 296.652937 136.946157 
Q 296.785376 135.637565 297.946326 134.889202 
Q 298.258889 134.687719 298.616494 134.544576 
Q 298.974099 134.401432 299.398226 134.300921 
z
M 303.880512 132.242555 
L 303.895917 136.863388 
L 305.989304 135.513965 
L 303.880512 132.242555 
z
M 303.196895 131.660774 
L 304.239649 130.988602 
L 306.814051 134.982322 
L 307.688703 134.41851 
L 308.13315 135.107988 
L 307.258497 135.6718 
L 308.189718 137.116421 
L 307.364971 137.648064 
L 306.43375 136.203443 
L 303.667958 137.986307 
L 303.1524 137.186513 
L 303.196895 131.660774 
z
" clip-path="url(#p30a4bac0ff)" style="fill: #f89540"/>
   </g>
   <g id="text_20">
    <path d="M 336.841862 117.006379 
L 338.209218 116.154642 
L 335.268206 111.433217 
L 333.96604 112.658536 
L 333.491017 111.895947 
L 334.785226 110.675584 
L 335.622085 110.154298 
L 339.03812 115.638313 
L 340.405476 114.786576 
L 340.84415 115.490811 
L 337.280535 117.710614 
L 336.841862 117.006379 
z
M 342.817747 113.283954 
L 345.73946 111.463996 
L 346.178133 112.168232 
L 342.249802 114.61522 
L 341.811128 113.910985 
Q 341.97993 113.121043 342.285045 111.778616 
Q 342.590661 110.434037 342.651178 110.061306 
Q 342.772147 109.360067 342.73633 108.947938 
Q 342.701839 108.534984 342.513482 108.2326 
Q 342.206163 107.739238 341.6667 107.644516 
Q 341.126411 107.548468 340.570715 107.894616 
Q 340.176821 108.139975 339.824252 108.5492 
Q 339.473009 108.957599 339.149154 109.545908 
L 338.622085 108.699765 
Q 339.000986 108.182095 339.375535 107.8052 
Q 339.75141 107.427479 340.116127 107.200294 
Q 341.077653 106.601352 341.949148 106.726717 
Q 342.819816 106.850757 343.320449 107.65446 
Q 343.558374 108.036418 343.62828 108.46781 
Q 343.698687 108.89705 343.609852 109.596682 
Q 343.581583 109.781808 343.3836 110.702218 
Q 343.186943 111.621802 342.817747 113.283954 
z
M 347.89497 107.019491 
Q 347.298161 107.391248 347.155087 107.924013 
Q 347.013339 108.455952 347.361138 109.014301 
Q 347.709764 109.573975 348.249705 109.681285 
Q 348.790972 109.787769 349.387782 109.416012 
Q 349.984591 109.044255 350.128165 108.509337 
Q 350.27224 107.972267 349.926092 107.416571 
Q 349.578293 106.858223 349.037026 106.751739 
Q 348.497085 106.644429 347.89497 107.019491 
z
M 346.836709 107.185344 
Q 346.215642 107.388127 345.684921 107.206962 
Q 345.154701 107.023645 344.82425 106.493148 
Q 344.362445 105.751778 344.621798 104.991951 
Q 344.882478 104.231297 345.801564 103.658791 
Q 346.725956 103.08298 347.520966 103.186037 
Q 348.315975 103.289094 348.77778 104.030463 
Q 349.108231 104.560961 349.037663 105.118513 
Q 348.967596 105.673913 348.515733 106.139467 
Q 349.208069 105.903335 349.801034 106.104634 
Q 350.394499 106.303781 350.762952 106.895285 
Q 351.323892 107.795804 351.074711 108.619247 
Q 350.824705 109.441363 349.800845 110.079133 
Q 348.778312 110.716077 347.928863 110.57882 
Q 347.079914 110.43941 346.518974 109.538891 
Q 346.150522 108.947387 346.234766 108.326089 
Q 346.319512 107.702639 346.836709 107.185344 
z
M 345.706698 106.053915 
Q 346.005756 106.534015 346.473191 106.616537 
Q 346.941952 106.698234 347.484385 106.360348 
Q 348.024166 106.024114 348.160172 105.565704 
Q 348.297504 105.106467 347.998446 104.626367 
Q 347.698562 104.144941 347.225822 104.065723 
Q 346.754409 103.985679 346.214628 104.321912 
Q 345.672195 104.659798 345.538841 105.116556 
Q 345.406814 105.572489 345.706698 106.053915 
z
" clip-path="url(#p30a4bac0ff)" style="fill: #fdc527; stroke: #ffffff; stroke-width: 5"/>
    <path d="M 336.841862 117.006379 
L 338.209218 116.154642 
L 335.268206 111.433217 
L 333.96604 112.658536 
L 333.491017 111.895947 
L 334.785226 110.675584 
L 335.622085 110.154298 
L 339.03812 115.638313 
L 340.405476 114.786576 
L 340.84415 115.490811 
L 337.280535 117.710614 
L 336.841862 117.006379 
z
M 342.817747 113.283954 
L 345.73946 111.463996 
L 346.178133 112.168232 
L 342.249802 114.61522 
L 341.811128 113.910985 
Q 341.97993 113.121043 342.285045 111.778616 
Q 342.590661 110.434037 342.651178 110.061306 
Q 342.772147 109.360067 342.73633 108.947938 
Q 342.701839 108.534984 342.513482 108.2326 
Q 342.206163 107.739238 341.6667 107.644516 
Q 341.126411 107.548468 340.570715 107.894616 
Q 340.176821 108.139975 339.824252 108.5492 
Q 339.473009 108.957599 339.149154 109.545908 
L 338.622085 108.699765 
Q 339.000986 108.182095 339.375535 107.8052 
Q 339.75141 107.427479 340.116127 107.200294 
Q 341.077653 106.601352 341.949148 106.726717 
Q 342.819816 106.850757 343.320449 107.65446 
Q 343.558374 108.036418 343.62828 108.46781 
Q 343.698687 108.89705 343.609852 109.596682 
Q 343.581583 109.781808 343.3836 110.702218 
Q 343.186943 111.621802 342.817747 113.283954 
z
M 347.89497 107.019491 
Q 347.298161 107.391248 347.155087 107.924013 
Q 347.013339 108.455952 347.361138 109.014301 
Q 347.709764 109.573975 348.249705 109.681285 
Q 348.790972 109.787769 349.387782 109.416012 
Q 349.984591 109.044255 350.128165 108.509337 
Q 350.27224 107.972267 349.926092 107.416571 
Q 349.578293 106.858223 349.037026 106.751739 
Q 348.497085 106.644429 347.89497 107.019491 
z
M 346.836709 107.185344 
Q 346.215642 107.388127 345.684921 107.206962 
Q 345.154701 107.023645 344.82425 106.493148 
Q 344.362445 105.751778 344.621798 104.991951 
Q 344.882478 104.231297 345.801564 103.658791 
Q 346.725956 103.08298 347.520966 103.186037 
Q 348.315975 103.289094 348.77778 104.030463 
Q 349.108231 104.560961 349.037663 105.118513 
Q 348.967596 105.673913 348.515733 106.139467 
Q 349.208069 105.903335 349.801034 106.104634 
Q 350.394499 106.303781 350.762952 106.895285 
Q 351.323892 107.795804 351.074711 108.619247 
Q 350.824705 109.441363 349.800845 110.079133 
Q 348.778312 110.716077 347.928863 110.57882 
Q 347.079914 110.43941 346.518974 109.538891 
Q 346.150522 108.947387 346.234766 108.326089 
Q 346.319512 107.702639 346.836709 107.185344 
z
M 345.706698 106.053915 
Q 346.005756 106.534015 346.473191 106.616537 
Q 346.941952 106.698234 347.484385 106.360348 
Q 348.024166 106.024114 348.160172 105.565704 
Q 348.297504 105.106467 347.998446 104.626367 
Q 347.698562 104.144941 347.225822 104.065723 
Q 346.754409 103.985679 346.214628 104.321912 
Q 345.672195 104.659798 345.538841 105.116556 
Q 345.406814 105.572489 345.706698 106.053915 
z
" clip-path="url(#p30a4bac0ff)" style="fill: #fdc527"/>
   </g>
   <g id="patch_3">
    <path d="M 43.78125 301.735725 
L 43.78125 35.623725 
" style="fill: none; stroke: #cccccc; stroke-width: 0.8; stroke-linejoin: miter; stroke-linecap: square"/>
   </g>
   <g id="patch_4">
    <path d="M 400.90125 301.735725 
L 400.90125 35.623725 
" style="fill: none; stroke: #cccccc; stroke-width: 0.8; stroke-linejoin: miter; stroke-linecap: square"/>
   </g>
   <g id="patch_5">
    <path d="M 43.78125 301.735725 
L 400.90125 301.735725 
" style="fill: none; stroke: #cccccc; stroke-width: 0.8; stroke-linejoin: miter; stroke-linecap: square"/>
   </g>
   <g id="patch_6">
    <path d="M 43.78125 35.623725 
L 400.90125 35.623725 
" style="fill: none; stroke: #cccccc; stroke-width: 0.8; stroke-linejoin: miter; stroke-linecap: square"/>
   </g>
   <g id="text_21">
    <!-- Block Size = 4K, Read-Write Type = Random Read-heavy 4:1 -->
    <g style="fill: #262626; opacity: 0.75" transform="translate(70.631094 30.882918) scale(0.1 -0.1)">
     <defs>
      <path id="DejaVuSans-42" d="M 1259 2228 
L 1259 519 
L 2272 519 
Q 2781 519 3026 730 
Q 3272 941 3272 1375 
Q 3272 1813 3026 2020 
Q 2781 2228 2272 2228 
L 1259 2228 
z
M 1259 4147 
L 1259 2741 
L 2194 2741 
Q 2656 2741 2882 2914 
Q 3109 3088 3109 3444 
Q 3109 3797 2882 3972 
Q 2656 4147 2194 4147 
L 1259 4147 
z
M 628 4666 
L 2241 4666 
Q 2963 4666 3353 4366 
Q 3744 4066 3744 3513 
Q 3744 3084 3544 2831 
Q 3344 2578 2956 2516 
Q 3422 2416 3680 2098 
Q 3938 1781 3938 1306 
Q 3938 681 3513 340 
Q 3088 0 2303 0 
L 628 0 
L 628 4666 
z
" transform="scale(0.015625)"/>
      <path id="DejaVuSans-6c" d="M 603 4863 
L 1178 4863 
L 1178 0 
L 603 0 
L 603 4863 
z
" transform="scale(0.015625)"/>
      <path id="DejaVuSans-6b" d="M 581 4863 
L 1159 4863 
L 1159 1991 
L 2875 3500 
L 3609 3500 
L 1753 1863 
L 3688 0 
L 2938 0 
L 1159 1709 
L 1159 0 
L 581 0 
L 581 4863 
z
" transform="scale(0.015625)"/>
      <path id="DejaVuSans-53" d="M 3425 4513 
L 3425 3897 
Q 3066 4069 2747 4153 
Q 2428 4238 2131 4238 
Q 1616 4238 1336 4038 
Q 1056 3838 1056 3469 
Q 1056 3159 1242 3001 
Q 1428 2844 1947 2747 
L 2328 2669 
Q 3034 2534 3370 2195 
Q 3706 1856 3706 1288 
Q 3706 609 3251 259 
Q 2797 -91 1919 -91 
Q 1588 -91 1214 -16 
Q 841 59 441 206 
L 441 856 
Q 825 641 1194 531 
Q 1563 422 1919 422 
Q 2459 422 2753 634 
Q 3047 847 3047 1241 
Q 3047 1584 2836 1778 
Q 2625 1972 2144 2069 
L 1759 2144 
Q 1053 2284 737 2584 
Q 422 2884 422 3419 
Q 422 4038 858 4394 
Q 1294 4750 2059 4750 
Q 2388 4750 2728 4690 
Q 3069 4631 3425 4513 
z
" transform="scale(0.015625)"/>
      <path id="DejaVuSans-69" d="M 603 3500 
L 1178 3500 
L 1178 0 
L 603 0 
L 603 3500 
z
M 603 4863 
L 1178 4863 
L 1178 4134 
L 603 4134 
L 603 4863 
z
" transform="scale(0.015625)"/>
      <path id="DejaVuSans-7a" d="M 353 3500 
L 3084 3500 
L 3084 2975 
L 922 459 
L 3084 459 
L 3084 0 
L 275 0 
L 275 525 
L 2438 3041 
L 353 3041 
L 353 3500 
z
" transform="scale(0.015625)"/>
      <path id="DejaVuSans-3d" d="M 678 2906 
L 4684 2906 
L 4684 2381 
L 678 2381 
L 678 2906 
z
M 678 1631 
L 4684 1631 
L 4684 1100 
L 678 1100 
L 678 1631 
z
" transform="scale(0.015625)"/>
      <path id="DejaVuSans-4b" d="M 628 4666 
L 1259 4666 
L 1259 2694 
L 3353 4666 
L 4166 4666 
L 1850 2491 
L 4331 0 
L 3500 0 
L 1259 2247 
L 1259 0 
L 628 0 
L 628 4666 
z
" transform="scale(0.015625)"/>
      <path id="DejaVuSans-2c" d="M 750 794 
L 1409 794 
L 1409 256 
L 897 -744 
L 494 -744 
L 750 256 
L 750 794 
z
" transform="scale(0.015625)"/>
      <path id="DejaVuSans-52" d="M 2841 2188 
Q 3044 2119 3236 1894 
Q 3428 1669 3622 1275 
L 4263 0 
L 3584 0 
L 2988 1197 
Q 2756 1666 2539 1819 
Q 2322 1972 1947 1972 
L 1259 1972 
L 1259 0 
L 628 0 
L 628 4666 
L 2053 4666 
Q 2853 4666 3247 4331 
Q 3641 3997 3641 3322 
Q 3641 2881 3436 2590 
Q 3231 2300 2841 2188 
z
M 1259 4147 
L 1259 2491 
L 2053 2491 
Q 2509 2491 2742 2702 
Q 2975 2913 2975 3322 
Q 2975 3731 2742 3939 
Q 2509 4147 2053 4147 
L 1259 4147 
z
" transform="scale(0.015625)"/>
      <path id="DejaVuSans-64" d="M 2906 2969 
L 2906 4863 
L 3481 4863 
L 3481 0 
L 2906 0 
L 2906 525 
Q 2725 213 2448 61 
Q 2172 -91 1784 -91 
Q 1150 -91 751 415 
Q 353 922 353 1747 
Q 353 2572 751 3078 
Q 1150 3584 1784 3584 
Q 2172 3584 2448 3432 
Q 2725 3281 2906 2969 
z
M 947 1747 
Q 947 1113 1208 752 
Q 1469 391 1925 391 
Q 2381 391 2643 752 
Q 2906 1113 2906 1747 
Q 2906 2381 2643 2742 
Q 2381 3103 1925 3103 
Q 1469 3103 1208 2742 
Q 947 2381 947 1747 
z
" transform="scale(0.015625)"/>
      <path id="DejaVuSans-2d" d="M 313 2009 
L 1997 2009 
L 1997 1497 
L 313 1497 
L 313 2009 
z
" transform="scale(0.015625)"/>
      <path id="DejaVuSans-57" d="M 213 4666 
L 850 4666 
L 1831 722 
L 2809 4666 
L 3519 4666 
L 4500 722 
L 5478 4666 
L 6119 4666 
L 4947 0 
L 4153 0 
L 3169 4050 
L 2175 0 
L 1381 0 
L 213 4666 
z
" transform="scale(0.015625)"/>
      <path id="DejaVuSans-54" d="M -19 4666 
L 3928 4666 
L 3928 4134 
L 2272 4134 
L 2272 0 
L 1638 0 
L 1638 4134 
L -19 4134 
L -19 4666 
z
" transform="scale(0.015625)"/>
      <path id="DejaVuSans-70" d="M 1159 525 
L 1159 -1331 
L 581 -1331 
L 581 3500 
L 1159 3500 
L 1159 2969 
Q 1341 3281 1617 3432 
Q 1894 3584 2278 3584 
Q 2916 3584 3314 3078 
Q 3713 2572 3713 1747 
Q 3713 922 3314 415 
Q 2916 -91 2278 -91 
Q 1894 -91 1617 61 
Q 1341 213 1159 525 
z
M 3116 1747 
Q 3116 2381 2855 2742 
Q 2594 3103 2138 3103 
Q 1681 3103 1420 2742 
Q 1159 2381 1159 1747 
Q 1159 1113 1420 752 
Q 1681 391 2138 391 
Q 2594 391 2855 752 
Q 3116 1113 3116 1747 
z
" transform="scale(0.015625)"/>
      <path id="DejaVuSans-68" d="M 3513 2113 
L 3513 0 
L 2938 0 
L 2938 2094 
Q 2938 2591 2744 2837 
Q 2550 3084 2163 3084 
Q 1697 3084 1428 2787 
Q 1159 2491 1159 1978 
L 1159 0 
L 581 0 
L 581 4863 
L 1159 4863 
L 1159 2956 
Q 1366 3272 1645 3428 
Q 1925 3584 2291 3584 
Q 2894 3584 3203 3211 
Q 3513 2838 3513 2113 
z
" transform="scale(0.015625)"/>
      <path id="DejaVuSans-76" d="M 191 3500 
L 800 3500 
L 1894 563 
L 2988 3500 
L 3597 3500 
L 2284 0 
L 1503 0 
L 191 3500 
z
" transform="scale(0.015625)"/>
      <path id="DejaVuSans-3a" d="M 750 794 
L 1409 794 
L 1409 0 
L 750 0 
L 750 794 
z
M 750 3309 
L 1409 3309 
L 1409 2516 
L 750 2516 
L 750 3309 
z
" transform="scale(0.015625)"/>
     </defs>
     <use xlink:href="#DejaVuSans-42"/>
     <use xlink:href="#DejaVuSans-6c" transform="translate(68.603516 0)"/>
     <use xlink:href="#DejaVuSans-6f" transform="translate(96.386719 0)"/>
     <use xlink:href="#DejaVuSans-63" transform="translate(157.568359 0)"/>
     <use xlink:href="#DejaVuSans-6b" transform="translate(212.548828 0)"/>
     <use xlink:href="#DejaVuSans-20" transform="translate(270.458984 0)"/>
     <use xlink:href="#DejaVuSans-53" transform="translate(302.246094 0)"/>
     <use xlink:href="#DejaVuSans-69" transform="translate(365.722656 0)"/>
     <use xlink:href="#DejaVuSans-7a" transform="translate(393.505859 0)"/>
     <use xlink:href="#DejaVuSans-65" transform="translate(445.996094 0)"/>
     <use xlink:href="#DejaVuSans-20" transform="translate(507.519531 0)"/>
     <use xlink:href="#DejaVuSans-3d" transform="translate(539.306641 0)"/>
     <use xlink:href="#DejaVuSans-20" transform="translate(623.095703 0)"/>
     <use xlink:href="#DejaVuSans-34" transform="translate(654.882812 0)"/>
     <use xlink:href="#DejaVuSans-4b" transform="translate(718.505859 0)"/>
     <use xlink:href="#DejaVuSans-2c" transform="translate(784.082031 0)"/>
     <use xlink:href="#DejaVuSans-20" transform="translate(815.869141 0)"/>
     <use xlink:href="#DejaVuSans-52" transform="translate(847.65625 0)"/>
     <use xlink:href="#DejaVuSans-65" transform="translate(912.638672 0)"/>
     <use xlink:href="#DejaVuSans-61" transform="translate(974.162109 0)"/>
     <use xlink:href="#DejaVuSans-64" transform="translate(1035.441406 0)"/>
     <use xlink:href="#DejaVuSans-2d" transform="translate(1098.917969 0)"/>
     <use xlink:href="#DejaVuSans-57" transform="translate(1131.001953 0)"/>
     <use xlink:href="#DejaVuSans-72" transform="translate(1225.378906 0)"/>
     <use xlink:href="#DejaVuSans-69" transform="translate(1266.492188 0)"/>
     <use xlink:href="#DejaVuSans-74" transform="translate(1294.275391 0)"/>
     <use xlink:href="#DejaVuSans-65" transform="translate(1333.484375 0)"/>
     <use xlink:href="#DejaVuSans-20" transform="translate(1395.007812 0)"/>
     <use xlink:href="#DejaVuSans-54" transform="translate(1426.794922 0)"/>
     <use xlink:href="#DejaVuSans-79" transform="translate(1472.253906 0)"/>
     <use xlink:href="#DejaVuSans-70" transform="translate(1531.433594 0)"/>
     <use xlink:href="#DejaVuSans-65" transform="translate(1594.910156 0)"/>
     <use xlink:href="#DejaVuSans-20" transform="translate(1656.433594 0)"/>
     <use xlink:href="#DejaVuSans-3d" transform="translate(1688.220703 0)"/>
     <use xlink:href="#DejaVuSans-20" transform="translate(1772.009766 0)"/>
     <use xlink:href="#DejaVuSans-52" transform="translate(1803.796875 0)"/>
     <use xlink:href="#DejaVuSans-61" transform="translate(1871.029297 0)"/>
     <use xlink:href="#DejaVuSans-6e" transform="translate(1932.308594 0)"/>
     <use xlink:href="#DejaVuSans-64" transform="translate(1995.6875 0)"/>
     <use xlink:href="#DejaVuSans-6f" transform="translate(2059.164062 0)"/>
     <use xlink:href="#DejaVuSans-6d" transform="translate(2120.345703 0)"/>
     <use xlink:href="#DejaVuSans-20" transform="translate(2217.757812 0)"/>
     <use xlink:href="#DejaVuSans-52" transform="translate(2249.544922 0)"/>
     <use xlink:href="#DejaVuSans-65" transform="translate(2314.527344 0)"/>
     <use xlink:href="#DejaVuSans-61" transform="translate(2376.050781 0)"/>
     <use xlink:href="#DejaVuSans-64" transform="translate(2437.330078 0)"/>
     <use xlink:href="#DejaVuSans-2d" transform="translate(2500.806641 0)"/>
     <use xlink:href="#DejaVuSans-68" transform="translate(2536.890625 0)"/>
     <use xlink:href="#DejaVuSans-65" transform="translate(2600.269531 0)"/>
     <use xlink:href="#DejaVuSans-61" transform="translate(2661.792969 0)"/>
     <use xlink:href="#DejaVuSans-76" transform="translate(2723.072266 0)"/>
     <use xlink:href="#DejaVuSans-79" transform="translate(2782.251953 0)"/>
     <use xlink:href="#DejaVuSans-20" transform="translate(2841.431641 0)"/>
     <use xlink:href="#DejaVuSans-34" transform="translate(2873.21875 0)"/>
     <use xlink:href="#DejaVuSans-3a" transform="translate(2936.841797 0)"/>
     <use xlink:href="#DejaVuSans-31" transform="translate(2970.533203 0)"/>
    </g>
   </g>
   <g id="text_22">
    <!-- Mean Latency vs Number of Jobs -->
    <g style="fill: #262626" transform="translate(111.685313 16.318125) scale(0.12 -0.12)">
     <defs>
      <path id="DejaVuSans-Bold-4d" d="M 588 4666 
L 2119 4666 
L 3181 2169 
L 4250 4666 
L 5778 4666 
L 5778 0 
L 4641 0 
L 4641 3413 
L 3566 897 
L 2803 897 
L 1728 3413 
L 1728 0 
L 588 0 
L 588 4666 
z
" transform="scale(0.015625)"/>
      <path id="DejaVuSans-Bold-65" d="M 4031 1759 
L 4031 1441 
L 1416 1441 
Q 1456 1047 1700 850 
Q 1944 653 2381 653 
Q 2734 653 3104 758 
Q 3475 863 3866 1075 
L 3866 213 
Q 3469 63 3072 -14 
Q 2675 -91 2278 -91 
Q 1328 -91 801 392 
Q 275 875 275 1747 
Q 275 2603 792 3093 
Q 1309 3584 2216 3584 
Q 3041 3584 3536 3087 
Q 4031 2591 4031 1759 
z
M 2881 2131 
Q 2881 2450 2695 2645 
Q 2509 2841 2209 2841 
Q 1884 2841 1681 2658 
Q 1478 2475 1428 2131 
L 2881 2131 
z
" transform="scale(0.015625)"/>
      <path id="DejaVuSans-Bold-61" d="M 2106 1575 
Q 1756 1575 1579 1456 
Q 1403 1338 1403 1106 
Q 1403 894 1545 773 
Q 1688 653 1941 653 
Q 2256 653 2472 879 
Q 2688 1106 2688 1447 
L 2688 1575 
L 2106 1575 
z
M 3816 1997 
L 3816 0 
L 2688 0 
L 2688 519 
Q 2463 200 2181 54 
Q 1900 -91 1497 -91 
Q 953 -91 614 226 
Q 275 544 275 1050 
Q 275 1666 698 1953 
Q 1122 2241 2028 2241 
L 2688 2241 
L 2688 2328 
Q 2688 2594 2478 2717 
Q 2269 2841 1825 2841 
Q 1466 2841 1156 2769 
Q 847 2697 581 2553 
L 581 3406 
Q 941 3494 1303 3539 
Q 1666 3584 2028 3584 
Q 2975 3584 3395 3211 
Q 3816 2838 3816 1997 
z
" transform="scale(0.015625)"/>
      <path id="DejaVuSans-Bold-6e" d="M 4056 2131 
L 4056 0 
L 2931 0 
L 2931 347 
L 2931 1631 
Q 2931 2084 2911 2256 
Q 2891 2428 2841 2509 
Q 2775 2619 2662 2680 
Q 2550 2741 2406 2741 
Q 2056 2741 1856 2470 
Q 1656 2200 1656 1722 
L 1656 0 
L 538 0 
L 538 3500 
L 1656 3500 
L 1656 2988 
Q 1909 3294 2193 3439 
Q 2478 3584 2822 3584 
Q 3428 3584 3742 3212 
Q 4056 2841 4056 2131 
z
" transform="scale(0.015625)"/>
      <path id="DejaVuSans-Bold-20" transform="scale(0.015625)"/>
      <path id="DejaVuSans-Bold-4c" d="M 588 4666 
L 1791 4666 
L 1791 909 
L 3903 909 
L 3903 0 
L 588 0 
L 588 4666 
z
" transform="scale(0.015625)"/>
      <path id="DejaVuSans-Bold-74" d="M 1759 4494 
L 1759 3500 
L 2913 3500 
L 2913 2700 
L 1759 2700 
L 1759 1216 
Q 1759 972 1856 886 
Q 1953 800 2241 800 
L 2816 800 
L 2816 0 
L 1856 0 
Q 1194 0 917 276 
Q 641 553 641 1216 
L 641 2700 
L 84 2700 
L 84 3500 
L 641 3500 
L 641 4494 
L 1759 4494 
z
" transform="scale(0.015625)"/>
      <path id="DejaVuSans-Bold-63" d="M 3366 3391 
L 3366 2478 
Q 3138 2634 2908 2709 
Q 2678 2784 2431 2784 
Q 1963 2784 1702 2511 
Q 1441 2238 1441 1747 
Q 1441 1256 1702 982 
Q 1963 709 2431 709 
Q 2694 709 2930 787 
Q 3166 866 3366 1019 
L 3366 103 
Q 3103 6 2833 -42 
Q 2563 -91 2291 -91 
Q 1344 -91 809 395 
Q 275 881 275 1747 
Q 275 2613 809 3098 
Q 1344 3584 2291 3584 
Q 2566 3584 2833 3536 
Q 3100 3488 3366 3391 
z
" transform="scale(0.015625)"/>
      <path id="DejaVuSans-Bold-79" d="M 78 3500 
L 1197 3500 
L 2138 1125 
L 2938 3500 
L 4056 3500 
L 2584 -331 
Q 2363 -916 2067 -1148 
Q 1772 -1381 1288 -1381 
L 641 -1381 
L 641 -647 
L 991 -647 
Q 1275 -647 1404 -556 
Q 1534 -466 1606 -231 
L 1638 -134 
L 78 3500 
z
" transform="scale(0.015625)"/>
      <path id="DejaVuSans-Bold-76" d="M 97 3500 
L 1216 3500 
L 2088 1081 
L 2956 3500 
L 4078 3500 
L 2700 0 
L 1472 0 
L 97 3500 
z
" transform="scale(0.015625)"/>
      <path id="DejaVuSans-Bold-73" d="M 3272 3391 
L 3272 2541 
Q 2913 2691 2578 2766 
Q 2244 2841 1947 2841 
Q 1628 2841 1473 2761 
Q 1319 2681 1319 2516 
Q 1319 2381 1436 2309 
Q 1553 2238 1856 2203 
L 2053 2175 
Q 2913 2066 3209 1816 
Q 3506 1566 3506 1031 
Q 3506 472 3093 190 
Q 2681 -91 1863 -91 
Q 1516 -91 1145 -36 
Q 775 19 384 128 
L 384 978 
Q 719 816 1070 734 
Q 1422 653 1784 653 
Q 2113 653 2278 743 
Q 2444 834 2444 1013 
Q 2444 1163 2330 1236 
Q 2216 1309 1875 1350 
L 1678 1375 
Q 931 1469 631 1722 
Q 331 1975 331 2491 
Q 331 3047 712 3315 
Q 1094 3584 1881 3584 
Q 2191 3584 2531 3537 
Q 2872 3491 3272 3391 
z
" transform="scale(0.015625)"/>
      <path id="DejaVuSans-Bold-4e" d="M 588 4666 
L 1931 4666 
L 3628 1466 
L 3628 4666 
L 4769 4666 
L 4769 0 
L 3425 0 
L 1728 3200 
L 1728 0 
L 588 0 
L 588 4666 
z
" transform="scale(0.015625)"/>
      <path id="DejaVuSans-Bold-75" d="M 500 1363 
L 500 3500 
L 1625 3500 
L 1625 3150 
Q 1625 2866 1622 2436 
Q 1619 2006 1619 1863 
Q 1619 1441 1641 1255 
Q 1663 1069 1716 984 
Q 1784 875 1895 815 
Q 2006 756 2150 756 
Q 2500 756 2700 1025 
Q 2900 1294 2900 1772 
L 2900 3500 
L 4019 3500 
L 4019 0 
L 2900 0 
L 2900 506 
Q 2647 200 2364 54 
Q 2081 -91 1741 -91 
Q 1134 -91 817 281 
Q 500 653 500 1363 
z
" transform="scale(0.015625)"/>
      <path id="DejaVuSans-Bold-6d" d="M 3781 2919 
Q 3994 3244 4286 3414 
Q 4578 3584 4928 3584 
Q 5531 3584 5847 3212 
Q 6163 2841 6163 2131 
L 6163 0 
L 5038 0 
L 5038 1825 
Q 5041 1866 5042 1909 
Q 5044 1953 5044 2034 
Q 5044 2406 4934 2573 
Q 4825 2741 4581 2741 
Q 4263 2741 4089 2478 
Q 3916 2216 3909 1719 
L 3909 0 
L 2784 0 
L 2784 1825 
Q 2784 2406 2684 2573 
Q 2584 2741 2328 2741 
Q 2006 2741 1831 2477 
Q 1656 2213 1656 1722 
L 1656 0 
L 531 0 
L 531 3500 
L 1656 3500 
L 1656 2988 
Q 1863 3284 2130 3434 
Q 2397 3584 2719 3584 
Q 3081 3584 3359 3409 
Q 3638 3234 3781 2919 
z
" transform="scale(0.015625)"/>
      <path id="DejaVuSans-Bold-62" d="M 2400 722 
Q 2759 722 2948 984 
Q 3138 1247 3138 1747 
Q 3138 2247 2948 2509 
Q 2759 2772 2400 2772 
Q 2041 2772 1848 2508 
Q 1656 2244 1656 1747 
Q 1656 1250 1848 986 
Q 2041 722 2400 722 
z
M 1656 2988 
Q 1888 3294 2169 3439 
Q 2450 3584 2816 3584 
Q 3463 3584 3878 3070 
Q 4294 2556 4294 1747 
Q 4294 938 3878 423 
Q 3463 -91 2816 -91 
Q 2450 -91 2169 54 
Q 1888 200 1656 506 
L 1656 0 
L 538 0 
L 538 4863 
L 1656 4863 
L 1656 2988 
z
" transform="scale(0.015625)"/>
      <path id="DejaVuSans-Bold-72" d="M 3138 2547 
Q 2991 2616 2845 2648 
Q 2700 2681 2553 2681 
Q 2122 2681 1889 2404 
Q 1656 2128 1656 1613 
L 1656 0 
L 538 0 
L 538 3500 
L 1656 3500 
L 1656 2925 
Q 1872 3269 2151 3426 
Q 2431 3584 2822 3584 
Q 2878 3584 2943 3579 
Q 3009 3575 3134 3559 
L 3138 2547 
z
" transform="scale(0.015625)"/>
      <path id="DejaVuSans-Bold-6f" d="M 2203 2784 
Q 1831 2784 1636 2517 
Q 1441 2250 1441 1747 
Q 1441 1244 1636 976 
Q 1831 709 2203 709 
Q 2569 709 2762 976 
Q 2956 1244 2956 1747 
Q 2956 2250 2762 2517 
Q 2569 2784 2203 2784 
z
M 2203 3584 
Q 3106 3584 3614 3096 
Q 4122 2609 4122 1747 
Q 4122 884 3614 396 
Q 3106 -91 2203 -91 
Q 1297 -91 786 396 
Q 275 884 275 1747 
Q 275 2609 786 3096 
Q 1297 3584 2203 3584 
z
" transform="scale(0.015625)"/>
      <path id="DejaVuSans-Bold-66" d="M 2841 4863 
L 2841 4128 
L 2222 4128 
Q 1984 4128 1890 4042 
Q 1797 3956 1797 3744 
L 1797 3500 
L 2753 3500 
L 2753 2700 
L 1797 2700 
L 1797 0 
L 678 0 
L 678 2700 
L 122 2700 
L 122 3500 
L 678 3500 
L 678 3744 
Q 678 4316 997 4589 
Q 1316 4863 1984 4863 
L 2841 4863 
z
" transform="scale(0.015625)"/>
      <path id="DejaVuSans-Bold-4a" d="M 588 4666 
L 1791 4666 
L 1791 453 
Q 1791 -419 1317 -850 
Q 844 -1281 -116 -1281 
L -359 -1281 
L -359 -372 
L -172 -372 
Q 203 -372 395 -162 
Q 588 47 588 453 
L 588 4666 
z
" transform="scale(0.015625)"/>
     </defs>
     <use xlink:href="#DejaVuSans-Bold-4d"/>
     <use xlink:href="#DejaVuSans-Bold-65" transform="translate(99.511719 0)"/>
     <use xlink:href="#DejaVuSans-Bold-61" transform="translate(167.333984 0)"/>
     <use xlink:href="#DejaVuSans-Bold-6e" transform="translate(234.814453 0)"/>
     <use xlink:href="#DejaVuSans-Bold-20" transform="translate(306.005859 0)"/>
     <use xlink:href="#DejaVuSans-Bold-4c" transform="translate(340.820312 0)"/>
     <use xlink:href="#DejaVuSans-Bold-61" transform="translate(404.541016 0)"/>
     <use xlink:href="#DejaVuSans-Bold-74" transform="translate(472.021484 0)"/>
     <use xlink:href="#DejaVuSans-Bold-65" transform="translate(519.824219 0)"/>
     <use xlink:href="#DejaVuSans-Bold-6e" transform="translate(587.646484 0)"/>
     <use xlink:href="#DejaVuSans-Bold-63" transform="translate(658.837891 0)"/>
     <use xlink:href="#DejaVuSans-Bold-79" transform="translate(718.115234 0)"/>
     <use xlink:href="#DejaVuSans-Bold-20" transform="translate(783.300781 0)"/>
     <use xlink:href="#DejaVuSans-Bold-76" transform="translate(818.115234 0)"/>
     <use xlink:href="#DejaVuSans-Bold-73" transform="translate(883.300781 0)"/>
     <use xlink:href="#DejaVuSans-Bold-20" transform="translate(942.822266 0)"/>
     <use xlink:href="#DejaVuSans-Bold-4e" transform="translate(977.636719 0)"/>
     <use xlink:href="#DejaVuSans-Bold-75" transform="translate(1061.328125 0)"/>
     <use xlink:href="#DejaVuSans-Bold-6d" transform="translate(1132.519531 0)"/>
     <use xlink:href="#DejaVuSans-Bold-62" transform="translate(1236.71875 0)"/>
     <use xlink:href="#DejaVuSans-Bold-65" transform="translate(1308.300781 0)"/>
     <use xlink:href="#DejaVuSans-Bold-72" transform="translate(1376.123047 0)"/>
     <use xlink:href="#DejaVuSans-Bold-20" transform="translate(1425.439453 0)"/>
     <use xlink:href="#DejaVuSans-Bold-6f" transform="translate(1460.253906 0)"/>
     <use xlink:href="#DejaVuSans-Bold-66" transform="translate(1528.955078 0)"/>
     <use xlink:href="#DejaVuSans-Bold-20" transform="translate(1572.460938 0)"/>
     <use xlink:href="#DejaVuSans-Bold-4a" transform="translate(1607.275391 0)"/>
     <use xlink:href="#DejaVuSans-Bold-6f" transform="translate(1644.482422 0)"/>
     <use xlink:href="#DejaVuSans-Bold-62" transform="translate(1713.183594 0)"/>
     <use xlink:href="#DejaVuSans-Bold-73" transform="translate(1784.765625 0)"/>
    </g>
   </g>
   <g id="legend_1">
    <g id="text_23">
     <!-- IO Depth -->
     <g style="fill: #262626" transform="translate(435.407813 120.065663) scale(0.1 -0.1)">
      <defs>
       <path id="DejaVuSans-49" d="M 628 4666 
L 1259 4666 
L 1259 0 
L 628 0 
L 628 4666 
z
" transform="scale(0.015625)"/>
       <path id="DejaVuSans-4f" d="M 2522 4238 
Q 1834 4238 1429 3725 
Q 1025 3213 1025 2328 
Q 1025 1447 1429 934 
Q 1834 422 2522 422 
Q 3209 422 3611 934 
Q 4013 1447 4013 2328 
Q 4013 3213 3611 3725 
Q 3209 4238 2522 4238 
z
M 2522 4750 
Q 3503 4750 4090 4092 
Q 4678 3434 4678 2328 
Q 4678 1225 4090 567 
Q 3503 -91 2522 -91 
Q 1538 -91 948 565 
Q 359 1222 359 2328 
Q 359 3434 948 4092 
Q 1538 4750 2522 4750 
z
" transform="scale(0.015625)"/>
       <path id="DejaVuSans-44" d="M 1259 4147 
L 1259 519 
L 2022 519 
Q 2988 519 3436 956 
Q 3884 1394 3884 2338 
Q 3884 3275 3436 3711 
Q 2988 4147 2022 4147 
L 1259 4147 
z
M 628 4666 
L 1925 4666 
Q 3281 4666 3915 4102 
Q 4550 3538 4550 2338 
Q 4550 1131 3912 565 
Q 3275 0 1925 0 
L 628 0 
L 628 4666 
z
" transform="scale(0.015625)"/>
      </defs>
      <use xlink:href="#DejaVuSans-49"/>
      <use xlink:href="#DejaVuSans-4f" transform="translate(29.492188 0)"/>
      <use xlink:href="#DejaVuSans-20" transform="translate(108.203125 0)"/>
      <use xlink:href="#DejaVuSans-44" transform="translate(139.990234 0)"/>
      <use xlink:href="#DejaVuSans-65" transform="translate(216.992188 0)"/>
      <use xlink:href="#DejaVuSans-70" transform="translate(278.515625 0)"/>
      <use xlink:href="#DejaVuSans-74" transform="translate(341.992188 0)"/>
      <use xlink:href="#DejaVuSans-68" transform="translate(381.201172 0)"/>
     </g>
    </g>
    <g id="line2d_25">
     <path d="M 434.09375 131.243787 
L 444.09375 131.243787 
L 454.09375 131.243787 
" style="fill: none; stroke: #4c02a1; stroke-width: 1.5; stroke-linecap: round"/>
    </g>
    <g id="text_24">
     <!-- 1 -->
     <g style="fill: #262626" transform="translate(462.09375 134.743787) scale(0.1 -0.1)">
      <use xlink:href="#DejaVuSans-31"/>
     </g>
    </g>
    <g id="line2d_26">
     <path d="M 434.09375 145.921913 
L 444.09375 145.921913 
L 454.09375 145.921913 
" style="fill: none; stroke: #7e03a8; stroke-width: 1.5; stroke-linecap: round"/>
    </g>
    <g id="text_25">
     <!-- 4 -->
     <g style="fill: #262626" transform="translate(462.09375 149.421913) scale(0.1 -0.1)">
      <use xlink:href="#DejaVuSans-34"/>
     </g>
    </g>
    <g id="line2d_27">
     <path d="M 434.09375 160.600037 
L 444.09375 160.600037 
L 454.09375 160.600037 
" style="fill: none; stroke: #aa2395; stroke-width: 1.5; stroke-linecap: round"/>
    </g>
    <g id="text_26">
     <!-- 8 -->
     <g style="fill: #262626" transform="translate(462.09375 164.100037) scale(0.1 -0.1)">
      <use xlink:href="#DejaVuSans-38"/>
     </g>
    </g>
    <g id="line2d_28">
     <path d="M 434.09375 175.278163 
L 444.09375 175.278163 
L 454.09375 175.278163 
" style="fill: none; stroke: #cc4778; stroke-width: 1.5; stroke-linecap: round"/>
    </g>
    <g id="text_27">
     <!-- 16 -->
     <g style="fill: #262626" transform="translate(462.09375 178.778163) scale(0.1 -0.1)">
      <use xlink:href="#DejaVuSans-31"/>
      <use xlink:href="#DejaVuSans-36" transform="translate(63.623047 0)"/>
     </g>
    </g>
    <g id="line2d_29">
     <path d="M 434.09375 189.956288 
L 444.09375 189.956288 
L 454.09375 189.956288 
" style="fill: none; stroke: #e66c5c; stroke-width: 1.5; stroke-linecap: round"/>
    </g>
    <g id="text_28">
     <!-- 32 -->
     <g style="fill: #262626" transform="translate(462.09375 193.456288) scale(0.1 -0.1)">
      <use xlink:href="#DejaVuSans-33"/>
      <use xlink:href="#DejaVuSans-32" transform="translate(63.623047 0)"/>
     </g>
    </g>
    <g id="line2d_30">
     <path d="M 434.09375 204.634412 
L 444.09375 204.634412 
L 454.09375 204.634412 
" style="fill: none; stroke: #f89540; stroke-width: 1.5; stroke-linecap: round"/>
    </g>
    <g id="text_29">
     <!-- 64 -->
     <g style="fill: #262626" transform="translate(462.09375 208.134412) scale(0.1 -0.1)">
      <use xlink:href="#DejaVuSans-36"/>
      <use xlink:href="#DejaVuSans-34" transform="translate(63.623047 0)"/>
     </g>
    </g>
    <g id="line2d_31">
     <path d="M 434.09375 219.312537 
L 444.09375 219.312537 
L 454.09375 219.312537 
" style="fill: none; stroke: #fdc527; stroke-width: 1.5; stroke-linecap: round"/>
    </g>
    <g id="text_30">
     <!-- 128 -->
     <g style="fill: #262626" transform="translate(462.09375 222.812537) scale(0.1 -0.1)">
      <use xlink:href="#DejaVuSans-31"/>
      <use xlink:href="#DejaVuSans-32" transform="translate(63.623047 0)"/>
      <use xlink:href="#DejaVuSans-38" transform="translate(127.246094 0)"/>
     </g>
    </g>
   </g>
  </g>
 </g>
 <defs>
  <clipPath id="p30a4bac0ff">
   <rect x="43.78125" y="35.623725" width="357.12" height="266.112"/>
  </clipPath>
 </defs>
</svg>
