<?xml version="1.0" encoding="utf-8" standalone="no"?>
<!DOCTYPE svg PUBLIC "-//W3C//DTD SVG 1.1//EN"
  "http://www.w3.org/Graphics/SVG/1.1/DTD/svg11.dtd">
<svg xmlns:xlink="http://www.w3.org/1999/xlink" width="492.38125pt" height="339.291975pt" viewBox="0 0 492.38125 339.291975" xmlns="http://www.w3.org/2000/svg" version="1.1">
 <metadata>
  <rdf:RDF xmlns:dc="http://purl.org/dc/elements/1.1/" xmlns:cc="http://creativecommons.org/ns#" xmlns:rdf="http://www.w3.org/1999/02/22-rdf-syntax-ns#">
   <cc:Work>
    <dc:type rdf:resource="http://purl.org/dc/dcmitype/StillImage"/>
    <dc:date>2025-09-11T11:48:36.689194</dc:date>
    <dc:format>image/svg+xml</dc:format>
    <dc:creator>
     <cc:Agent>
      <dc:title>Matplotlib v3.10.6, https://matplotlib.org/</dc:title>
     </cc:Agent>
    </dc:creator>
   </cc:Work>
  </rdf:RDF>
 </metadata>
 <defs>
  <style type="text/css">*{stroke-linejoin: round; stroke-linecap: butt}</style>
 </defs>
 <g id="figure_1">
  <g id="patch_1">
   <path d="M 0 339.291975 
L 492.38125 339.291975 
L 492.38125 0 
L 0 0 
z
" style="fill: #ffffff"/>
  </g>
  <g id="axes_1">
   <g id="patch_2">
    <path d="M 43.78125 301.735725 
L 400.90125 301.735725 
L 400.90125 35.623725 
L 43.78125 35.623725 
z
" style="fill: #ffffff"/>
   </g>
   <g id="matplotlib.axis_1">
    <g id="xtick_1">
     <g id="line2d_1">
      <path d="M 98.359002 301.735725 
L 98.359002 35.623725 
" clip-path="url(#p82c791ac67)" style="fill: none; stroke: #cccccc; stroke-width: 0.8; stroke-linecap: round"/>
     </g>
     <g id="text_1">
      <!-- 16 -->
      <g style="fill: #262626" transform="translate(91.996502 316.334162) scale(0.1 -0.1)">
       <defs>
        <path id="DejaVuSans-31" d="M 794 531 
L 1825 531 
L 1825 4091 
L 703 3866 
L 703 4441 
L 1819 4666 
L 2450 4666 
L 2450 531 
L 3481 531 
L 3481 0 
L 794 0 
L 794 531 
z
" transform="scale(0.015625)"/>
        <path id="DejaVuSans-36" d="M 2113 2584 
Q 1688 2584 1439 2293 
Q 1191 2003 1191 1497 
Q 1191 994 1439 701 
Q 1688 409 2113 409 
Q 2538 409 2786 701 
Q 3034 994 3034 1497 
Q 3034 2003 2786 2293 
Q 2538 2584 2113 2584 
z
M 3366 4563 
L 3366 3988 
Q 3128 4100 2886 4159 
Q 2644 4219 2406 4219 
Q 1781 4219 1451 3797 
Q 1122 3375 1075 2522 
Q 1259 2794 1537 2939 
Q 1816 3084 2150 3084 
Q 2853 3084 3261 2657 
Q 3669 2231 3669 1497 
Q 3669 778 3244 343 
Q 2819 -91 2113 -91 
Q 1303 -91 875 529 
Q 447 1150 447 2328 
Q 447 3434 972 4092 
Q 1497 4750 2381 4750 
Q 2619 4750 2861 4703 
Q 3103 4656 3366 4563 
z
" transform="scale(0.015625)"/>
       </defs>
       <use xlink:href="#DejaVuSans-31"/>
       <use xlink:href="#DejaVuSans-36" transform="translate(63.623047 0)"/>
      </g>
     </g>
    </g>
    <g id="xtick_2">
     <g id="line2d_2">
      <path d="M 67.682982 301.735725 
L 67.682982 35.623725 
" clip-path="url(#p82c791ac67)" style="fill: none; stroke: #cccccc; stroke-width: 0.8; stroke-linecap: round"/>
     </g>
     <g id="text_2">
      <!-- 4 -->
      <g style="fill: #262626" transform="translate(64.501732 316.334162) scale(0.1 -0.1)">
       <defs>
        <path id="DejaVuSans-34" d="M 2419 4116 
L 825 1625 
L 2419 1625 
L 2419 4116 
z
M 2253 4666 
L 3047 4666 
L 3047 1625 
L 3713 1625 
L 3713 1100 
L 3047 1100 
L 3047 0 
L 2419 0 
L 2419 1100 
L 313 1100 
L 313 1709 
L 2253 4666 
z
" transform="scale(0.015625)"/>
       </defs>
       <use xlink:href="#DejaVuSans-34"/>
      </g>
     </g>
    </g>
    <g id="xtick_3">
     <g id="line2d_3">
      <path d="M 384.668523 301.735725 
L 384.668523 35.623725 
" clip-path="url(#p82c791ac67)" style="fill: none; stroke: #cccccc; stroke-width: 0.8; stroke-linecap: round"/>
     </g>
     <g id="text_3">
      <!-- 128 -->
      <g style="fill: #262626" transform="translate(375.124773 316.334162) scale(0.1 -0.1)">
       <defs>
        <path id="DejaVuSans-32" d="M 1228 531 
L 3431 531 
L 3431 0 
L 469 0 
L 469 531 
Q 828 903 1448 1529 
Q 2069 2156 2228 2338 
Q 2531 2678 2651 2914 
Q 2772 3150 2772 3378 
Q 2772 3750 2511 3984 
Q 2250 4219 1831 4219 
Q 1534 4219 1204 4116 
Q 875 4013 500 3803 
L 500 4441 
Q 881 4594 1212 4672 
Q 1544 4750 1819 4750 
Q 2544 4750 2975 4387 
Q 3406 4025 3406 3419 
Q 3406 3131 3298 2873 
Q 3191 2616 2906 2266 
Q 2828 2175 2409 1742 
Q 1991 1309 1228 531 
z
" transform="scale(0.015625)"/>
        <path id="DejaVuSans-38" d="M 2034 2216 
Q 1584 2216 1326 1975 
Q 1069 1734 1069 1313 
Q 1069 891 1326 650 
Q 1584 409 2034 409 
Q 2484 409 2743 651 
Q 3003 894 3003 1313 
Q 3003 1734 2745 1975 
Q 2488 2216 2034 2216 
z
M 1403 2484 
Q 997 2584 770 2862 
Q 544 3141 544 3541 
Q 544 4100 942 4425 
Q 1341 4750 2034 4750 
Q 2731 4750 3128 4425 
Q 3525 4100 3525 3541 
Q 3525 3141 3298 2862 
Q 3072 2584 2669 2484 
Q 3125 2378 3379 2068 
Q 3634 1759 3634 1313 
Q 3634 634 3220 271 
Q 2806 -91 2034 -91 
Q 1263 -91 848 271 
Q 434 634 434 1313 
Q 434 1759 690 2068 
Q 947 2378 1403 2484 
z
M 1172 3481 
Q 1172 3119 1398 2916 
Q 1625 2713 2034 2713 
Q 2441 2713 2670 2916 
Q 2900 3119 2900 3481 
Q 2900 3844 2670 4047 
Q 2441 4250 2034 4250 
Q 1625 4250 1398 4047 
Q 1172 3844 1172 3481 
z
" transform="scale(0.015625)"/>
       </defs>
       <use xlink:href="#DejaVuSans-31"/>
       <use xlink:href="#DejaVuSans-32" transform="translate(63.623047 0)"/>
       <use xlink:href="#DejaVuSans-38" transform="translate(127.246094 0)"/>
      </g>
     </g>
    </g>
    <g id="xtick_4">
     <g id="line2d_4">
      <path d="M 60.013977 301.735725 
L 60.013977 35.623725 
" clip-path="url(#p82c791ac67)" style="fill: none; stroke: #cccccc; stroke-width: 0.8; stroke-linecap: round"/>
     </g>
     <g id="text_4">
      <!-- 1 -->
      <g style="fill: #262626" transform="translate(56.832727 316.334162) scale(0.1 -0.1)">
       <use xlink:href="#DejaVuSans-31"/>
      </g>
     </g>
    </g>
    <g id="xtick_5">
     <g id="line2d_5">
      <path d="M 139.260362 301.735725 
L 139.260362 35.623725 
" clip-path="url(#p82c791ac67)" style="fill: none; stroke: #cccccc; stroke-width: 0.8; stroke-linecap: round"/>
     </g>
     <g id="text_5">
      <!-- 32 -->
      <g style="fill: #262626" transform="translate(132.897862 316.334162) scale(0.1 -0.1)">
       <defs>
        <path id="DejaVuSans-33" d="M 2597 2516 
Q 3050 2419 3304 2112 
Q 3559 1806 3559 1356 
Q 3559 666 3084 287 
Q 2609 -91 1734 -91 
Q 1441 -91 1130 -33 
Q 819 25 488 141 
L 488 750 
Q 750 597 1062 519 
Q 1375 441 1716 441 
Q 2309 441 2620 675 
Q 2931 909 2931 1356 
Q 2931 1769 2642 2001 
Q 2353 2234 1838 2234 
L 1294 2234 
L 1294 2753 
L 1863 2753 
Q 2328 2753 2575 2939 
Q 2822 3125 2822 3475 
Q 2822 3834 2567 4026 
Q 2313 4219 1838 4219 
Q 1578 4219 1281 4162 
Q 984 4106 628 3988 
L 628 4550 
Q 988 4650 1302 4700 
Q 1616 4750 1894 4750 
Q 2613 4750 3031 4423 
Q 3450 4097 3450 3541 
Q 3450 3153 3228 2886 
Q 3006 2619 2597 2516 
z
" transform="scale(0.015625)"/>
       </defs>
       <use xlink:href="#DejaVuSans-33"/>
       <use xlink:href="#DejaVuSans-32" transform="translate(63.623047 0)"/>
      </g>
     </g>
    </g>
    <g id="xtick_6">
     <g id="line2d_6">
      <path d="M 77.908322 301.735725 
L 77.908322 35.623725 
" clip-path="url(#p82c791ac67)" style="fill: none; stroke: #cccccc; stroke-width: 0.8; stroke-linecap: round"/>
     </g>
     <g id="text_6">
      <!-- 8 -->
      <g style="fill: #262626" transform="translate(74.727072 316.334162) scale(0.1 -0.1)">
       <use xlink:href="#DejaVuSans-38"/>
      </g>
     </g>
    </g>
    <g id="xtick_7">
     <g id="line2d_7">
      <path d="M 221.063082 301.735725 
L 221.063082 35.623725 
" clip-path="url(#p82c791ac67)" style="fill: none; stroke: #cccccc; stroke-width: 0.8; stroke-linecap: round"/>
     </g>
     <g id="text_7">
      <!-- 64 -->
      <g style="fill: #262626" transform="translate(214.700582 316.334162) scale(0.1 -0.1)">
       <use xlink:href="#DejaVuSans-36"/>
       <use xlink:href="#DejaVuSans-34" transform="translate(63.623047 0)"/>
      </g>
     </g>
    </g>
    <g id="text_8">
     <!-- IO Depth -->
     <g style="fill: #262626" transform="translate(200.111563 330.012287) scale(0.1 -0.1)">
      <defs>
       <path id="DejaVuSans-49" d="M 628 4666 
L 1259 4666 
L 1259 0 
L 628 0 
L 628 4666 
z
" transform="scale(0.015625)"/>
       <path id="DejaVuSans-4f" d="M 2522 4238 
Q 1834 4238 1429 3725 
Q 1025 3213 1025 2328 
Q 1025 1447 1429 934 
Q 1834 422 2522 422 
Q 3209 422 3611 934 
Q 4013 1447 4013 2328 
Q 4013 3213 3611 3725 
Q 3209 4238 2522 4238 
z
M 2522 4750 
Q 3503 4750 4090 4092 
Q 4678 3434 4678 2328 
Q 4678 1225 4090 567 
Q 3503 -91 2522 -91 
Q 1538 -91 948 565 
Q 359 1222 359 2328 
Q 359 3434 948 4092 
Q 1538 4750 2522 4750 
z
" transform="scale(0.015625)"/>
       <path id="DejaVuSans-20" transform="scale(0.015625)"/>
       <path id="DejaVuSans-44" d="M 1259 4147 
L 1259 519 
L 2022 519 
Q 2988 519 3436 956 
Q 3884 1394 3884 2338 
Q 3884 3275 3436 3711 
Q 2988 4147 2022 4147 
L 1259 4147 
z
M 628 4666 
L 1925 4666 
Q 3281 4666 3915 4102 
Q 4550 3538 4550 2338 
Q 4550 1131 3912 565 
Q 3275 0 1925 0 
L 628 0 
L 628 4666 
z
" transform="scale(0.015625)"/>
       <path id="DejaVuSans-65" d="M 3597 1894 
L 3597 1613 
L 953 1613 
Q 991 1019 1311 708 
Q 1631 397 2203 397 
Q 2534 397 2845 478 
Q 3156 559 3463 722 
L 3463 178 
Q 3153 47 2828 -22 
Q 2503 -91 2169 -91 
Q 1331 -91 842 396 
Q 353 884 353 1716 
Q 353 2575 817 3079 
Q 1281 3584 2069 3584 
Q 2775 3584 3186 3129 
Q 3597 2675 3597 1894 
z
M 3022 2063 
Q 3016 2534 2758 2815 
Q 2500 3097 2075 3097 
Q 1594 3097 1305 2825 
Q 1016 2553 972 2059 
L 3022 2063 
z
" transform="scale(0.015625)"/>
       <path id="DejaVuSans-70" d="M 1159 525 
L 1159 -1331 
L 581 -1331 
L 581 3500 
L 1159 3500 
L 1159 2969 
Q 1341 3281 1617 3432 
Q 1894 3584 2278 3584 
Q 2916 3584 3314 3078 
Q 3713 2572 3713 1747 
Q 3713 922 3314 415 
Q 2916 -91 2278 -91 
Q 1894 -91 1617 61 
Q 1341 213 1159 525 
z
M 3116 1747 
Q 3116 2381 2855 2742 
Q 2594 3103 2138 3103 
Q 1681 3103 1420 2742 
Q 1159 2381 1159 1747 
Q 1159 1113 1420 752 
Q 1681 391 2138 391 
Q 2594 391 2855 752 
Q 3116 1113 3116 1747 
z
" transform="scale(0.015625)"/>
       <path id="DejaVuSans-74" d="M 1172 4494 
L 1172 3500 
L 2356 3500 
L 2356 3053 
L 1172 3053 
L 1172 1153 
Q 1172 725 1289 603 
Q 1406 481 1766 481 
L 2356 481 
L 2356 0 
L 1766 0 
Q 1100 0 847 248 
Q 594 497 594 1153 
L 594 3053 
L 172 3053 
L 172 3500 
L 594 3500 
L 594 4494 
L 1172 4494 
z
" transform="scale(0.015625)"/>
       <path id="DejaVuSans-68" d="M 3513 2113 
L 3513 0 
L 2938 0 
L 2938 2094 
Q 2938 2591 2744 2837 
Q 2550 3084 2163 3084 
Q 1697 3084 1428 2787 
Q 1159 2491 1159 1978 
L 1159 0 
L 581 0 
L 581 4863 
L 1159 4863 
L 1159 2956 
Q 1366 3272 1645 3428 
Q 1925 3584 2291 3584 
Q 2894 3584 3203 3211 
Q 3513 2838 3513 2113 
z
" transform="scale(0.015625)"/>
      </defs>
      <use xlink:href="#DejaVuSans-49"/>
      <use xlink:href="#DejaVuSans-4f" transform="translate(29.492188 0)"/>
      <use xlink:href="#DejaVuSans-20" transform="translate(108.203125 0)"/>
      <use xlink:href="#DejaVuSans-44" transform="translate(139.990234 0)"/>
      <use xlink:href="#DejaVuSans-65" transform="translate(216.992188 0)"/>
      <use xlink:href="#DejaVuSans-70" transform="translate(278.515625 0)"/>
      <use xlink:href="#DejaVuSans-74" transform="translate(341.992188 0)"/>
      <use xlink:href="#DejaVuSans-68" transform="translate(381.201172 0)"/>
     </g>
    </g>
   </g>
   <g id="matplotlib.axis_2">
    <g id="ytick_1">
     <g id="line2d_8">
      <path d="M 43.78125 278.962393 
L 400.90125 278.962393 
" clip-path="url(#p82c791ac67)" style="fill: none; stroke: #cccccc; stroke-width: 0.8; stroke-linecap: round"/>
     </g>
     <g id="text_9">
      <!-- 0.2 -->
      <g style="fill: #262626" transform="translate(20.878125 282.761612) scale(0.1 -0.1)">
       <defs>
        <path id="DejaVuSans-30" d="M 2034 4250 
Q 1547 4250 1301 3770 
Q 1056 3291 1056 2328 
Q 1056 1369 1301 889 
Q 1547 409 2034 409 
Q 2525 409 2770 889 
Q 3016 1369 3016 2328 
Q 3016 3291 2770 3770 
Q 2525 4250 2034 4250 
z
M 2034 4750 
Q 2819 4750 3233 4129 
Q 3647 3509 3647 2328 
Q 3647 1150 3233 529 
Q 2819 -91 2034 -91 
Q 1250 -91 836 529 
Q 422 1150 422 2328 
Q 422 3509 836 4129 
Q 1250 4750 2034 4750 
z
" transform="scale(0.015625)"/>
        <path id="DejaVuSans-2e" d="M 684 794 
L 1344 794 
L 1344 0 
L 684 0 
L 684 794 
z
" transform="scale(0.015625)"/>
       </defs>
       <use xlink:href="#DejaVuSans-30"/>
       <use xlink:href="#DejaVuSans-2e" transform="translate(63.623047 0)"/>
       <use xlink:href="#DejaVuSans-32" transform="translate(95.410156 0)"/>
      </g>
     </g>
    </g>
    <g id="ytick_2">
     <g id="line2d_9">
      <path d="M 43.78125 249.159719 
L 400.90125 249.159719 
" clip-path="url(#p82c791ac67)" style="fill: none; stroke: #cccccc; stroke-width: 0.8; stroke-linecap: round"/>
     </g>
     <g id="text_10">
      <!-- 0.4 -->
      <g style="fill: #262626" transform="translate(20.878125 252.958938) scale(0.1 -0.1)">
       <use xlink:href="#DejaVuSans-30"/>
       <use xlink:href="#DejaVuSans-2e" transform="translate(63.623047 0)"/>
       <use xlink:href="#DejaVuSans-34" transform="translate(95.410156 0)"/>
      </g>
     </g>
    </g>
    <g id="ytick_3">
     <g id="line2d_10">
      <path d="M 43.78125 219.357046 
L 400.90125 219.357046 
" clip-path="url(#p82c791ac67)" style="fill: none; stroke: #cccccc; stroke-width: 0.8; stroke-linecap: round"/>
     </g>
     <g id="text_11">
      <!-- 0.6 -->
      <g style="fill: #262626" transform="translate(20.878125 223.156265) scale(0.1 -0.1)">
       <use xlink:href="#DejaVuSans-30"/>
       <use xlink:href="#DejaVuSans-2e" transform="translate(63.623047 0)"/>
       <use xlink:href="#DejaVuSans-36" transform="translate(95.410156 0)"/>
      </g>
     </g>
    </g>
    <g id="ytick_4">
     <g id="line2d_11">
      <path d="M 43.78125 189.554372 
L 400.90125 189.554372 
" clip-path="url(#p82c791ac67)" style="fill: none; stroke: #cccccc; stroke-width: 0.8; stroke-linecap: round"/>
     </g>
     <g id="text_12">
      <!-- 0.8 -->
      <g style="fill: #262626" transform="translate(20.878125 193.353591) scale(0.1 -0.1)">
       <use xlink:href="#DejaVuSans-30"/>
       <use xlink:href="#DejaVuSans-2e" transform="translate(63.623047 0)"/>
       <use xlink:href="#DejaVuSans-38" transform="translate(95.410156 0)"/>
      </g>
     </g>
    </g>
    <g id="ytick_5">
     <g id="line2d_12">
      <path d="M 43.78125 159.751699 
L 400.90125 159.751699 
" clip-path="url(#p82c791ac67)" style="fill: none; stroke: #cccccc; stroke-width: 0.8; stroke-linecap: round"/>
     </g>
     <g id="text_13">
      <!-- 1.0 -->
      <g style="fill: #262626" transform="translate(20.878125 163.550918) scale(0.1 -0.1)">
       <use xlink:href="#DejaVuSans-31"/>
       <use xlink:href="#DejaVuSans-2e" transform="translate(63.623047 0)"/>
       <use xlink:href="#DejaVuSans-30" transform="translate(95.410156 0)"/>
      </g>
     </g>
    </g>
    <g id="ytick_6">
     <g id="line2d_13">
      <path d="M 43.78125 129.949025 
L 400.90125 129.949025 
" clip-path="url(#p82c791ac67)" style="fill: none; stroke: #cccccc; stroke-width: 0.8; stroke-linecap: round"/>
     </g>
     <g id="text_14">
      <!-- 1.2 -->
      <g style="fill: #262626" transform="translate(20.878125 133.748244) scale(0.1 -0.1)">
       <use xlink:href="#DejaVuSans-31"/>
       <use xlink:href="#DejaVuSans-2e" transform="translate(63.623047 0)"/>
       <use xlink:href="#DejaVuSans-32" transform="translate(95.410156 0)"/>
      </g>
     </g>
    </g>
    <g id="ytick_7">
     <g id="line2d_14">
      <path d="M 43.78125 100.146352 
L 400.90125 100.146352 
" clip-path="url(#p82c791ac67)" style="fill: none; stroke: #cccccc; stroke-width: 0.8; stroke-linecap: round"/>
     </g>
     <g id="text_15">
      <!-- 1.4 -->
      <g style="fill: #262626" transform="translate(20.878125 103.945571) scale(0.1 -0.1)">
       <use xlink:href="#DejaVuSans-31"/>
       <use xlink:href="#DejaVuSans-2e" transform="translate(63.623047 0)"/>
       <use xlink:href="#DejaVuSans-34" transform="translate(95.410156 0)"/>
      </g>
     </g>
    </g>
    <g id="ytick_8">
     <g id="line2d_15">
      <path d="M 43.78125 70.343678 
L 400.90125 70.343678 
" clip-path="url(#p82c791ac67)" style="fill: none; stroke: #cccccc; stroke-width: 0.8; stroke-linecap: round"/>
     </g>
     <g id="text_16">
      <!-- 1.6 -->
      <g style="fill: #262626" transform="translate(20.878125 74.142897) scale(0.1 -0.1)">
       <use xlink:href="#DejaVuSans-31"/>
       <use xlink:href="#DejaVuSans-2e" transform="translate(63.623047 0)"/>
       <use xlink:href="#DejaVuSans-36" transform="translate(95.410156 0)"/>
      </g>
     </g>
    </g>
    <g id="ytick_9">
     <g id="line2d_16">
      <path d="M 43.78125 40.541005 
L 400.90125 40.541005 
" clip-path="url(#p82c791ac67)" style="fill: none; stroke: #cccccc; stroke-width: 0.8; stroke-linecap: round"/>
     </g>
     <g id="text_17">
      <!-- 1.8 -->
      <g style="fill: #262626" transform="translate(20.878125 44.340223) scale(0.1 -0.1)">
       <use xlink:href="#DejaVuSans-31"/>
       <use xlink:href="#DejaVuSans-2e" transform="translate(63.623047 0)"/>
       <use xlink:href="#DejaVuSans-38" transform="translate(95.410156 0)"/>
      </g>
     </g>
    </g>
    <g id="text_18">
     <!-- Mean Latency (ns) -->
     <g style="fill: #262626" transform="translate(14.798438 214.92035) rotate(-90) scale(0.1 -0.1)">
      <defs>
       <path id="DejaVuSans-4d" d="M 628 4666 
L 1569 4666 
L 2759 1491 
L 3956 4666 
L 4897 4666 
L 4897 0 
L 4281 0 
L 4281 4097 
L 3078 897 
L 2444 897 
L 1241 4097 
L 1241 0 
L 628 0 
L 628 4666 
z
" transform="scale(0.015625)"/>
       <path id="DejaVuSans-61" d="M 2194 1759 
Q 1497 1759 1228 1600 
Q 959 1441 959 1056 
Q 959 750 1161 570 
Q 1363 391 1709 391 
Q 2188 391 2477 730 
Q 2766 1069 2766 1631 
L 2766 1759 
L 2194 1759 
z
M 3341 1997 
L 3341 0 
L 2766 0 
L 2766 531 
Q 2569 213 2275 61 
Q 1981 -91 1556 -91 
Q 1019 -91 701 211 
Q 384 513 384 1019 
Q 384 1609 779 1909 
Q 1175 2209 1959 2209 
L 2766 2209 
L 2766 2266 
Q 2766 2663 2505 2880 
Q 2244 3097 1772 3097 
Q 1472 3097 1187 3025 
Q 903 2953 641 2809 
L 641 3341 
Q 956 3463 1253 3523 
Q 1550 3584 1831 3584 
Q 2591 3584 2966 3190 
Q 3341 2797 3341 1997 
z
" transform="scale(0.015625)"/>
       <path id="DejaVuSans-6e" d="M 3513 2113 
L 3513 0 
L 2938 0 
L 2938 2094 
Q 2938 2591 2744 2837 
Q 2550 3084 2163 3084 
Q 1697 3084 1428 2787 
Q 1159 2491 1159 1978 
L 1159 0 
L 581 0 
L 581 3500 
L 1159 3500 
L 1159 2956 
Q 1366 3272 1645 3428 
Q 1925 3584 2291 3584 
Q 2894 3584 3203 3211 
Q 3513 2838 3513 2113 
z
" transform="scale(0.015625)"/>
       <path id="DejaVuSans-4c" d="M 628 4666 
L 1259 4666 
L 1259 531 
L 3531 531 
L 3531 0 
L 628 0 
L 628 4666 
z
" transform="scale(0.015625)"/>
       <path id="DejaVuSans-63" d="M 3122 3366 
L 3122 2828 
Q 2878 2963 2633 3030 
Q 2388 3097 2138 3097 
Q 1578 3097 1268 2742 
Q 959 2388 959 1747 
Q 959 1106 1268 751 
Q 1578 397 2138 397 
Q 2388 397 2633 464 
Q 2878 531 3122 666 
L 3122 134 
Q 2881 22 2623 -34 
Q 2366 -91 2075 -91 
Q 1284 -91 818 406 
Q 353 903 353 1747 
Q 353 2603 823 3093 
Q 1294 3584 2113 3584 
Q 2378 3584 2631 3529 
Q 2884 3475 3122 3366 
z
" transform="scale(0.015625)"/>
       <path id="DejaVuSans-79" d="M 2059 -325 
Q 1816 -950 1584 -1140 
Q 1353 -1331 966 -1331 
L 506 -1331 
L 506 -850 
L 844 -850 
Q 1081 -850 1212 -737 
Q 1344 -625 1503 -206 
L 1606 56 
L 191 3500 
L 800 3500 
L 1894 763 
L 2988 3500 
L 3597 3500 
L 2059 -325 
z
" transform="scale(0.015625)"/>
       <path id="DejaVuSans-28" d="M 1984 4856 
Q 1566 4138 1362 3434 
Q 1159 2731 1159 2009 
Q 1159 1288 1364 580 
Q 1569 -128 1984 -844 
L 1484 -844 
Q 1016 -109 783 600 
Q 550 1309 550 2009 
Q 550 2706 781 3412 
Q 1013 4119 1484 4856 
L 1984 4856 
z
" transform="scale(0.015625)"/>
       <path id="DejaVuSans-73" d="M 2834 3397 
L 2834 2853 
Q 2591 2978 2328 3040 
Q 2066 3103 1784 3103 
Q 1356 3103 1142 2972 
Q 928 2841 928 2578 
Q 928 2378 1081 2264 
Q 1234 2150 1697 2047 
L 1894 2003 
Q 2506 1872 2764 1633 
Q 3022 1394 3022 966 
Q 3022 478 2636 193 
Q 2250 -91 1575 -91 
Q 1294 -91 989 -36 
Q 684 19 347 128 
L 347 722 
Q 666 556 975 473 
Q 1284 391 1588 391 
Q 1994 391 2212 530 
Q 2431 669 2431 922 
Q 2431 1156 2273 1281 
Q 2116 1406 1581 1522 
L 1381 1569 
Q 847 1681 609 1914 
Q 372 2147 372 2553 
Q 372 3047 722 3315 
Q 1072 3584 1716 3584 
Q 2034 3584 2315 3537 
Q 2597 3491 2834 3397 
z
" transform="scale(0.015625)"/>
       <path id="DejaVuSans-29" d="M 513 4856 
L 1013 4856 
Q 1481 4119 1714 3412 
Q 1947 2706 1947 2009 
Q 1947 1309 1714 600 
Q 1481 -109 1013 -844 
L 513 -844 
Q 928 -128 1133 580 
Q 1338 1288 1338 2009 
Q 1338 2731 1133 3434 
Q 928 4138 513 4856 
z
" transform="scale(0.015625)"/>
      </defs>
      <use xlink:href="#DejaVuSans-4d"/>
      <use xlink:href="#DejaVuSans-65" transform="translate(86.279297 0)"/>
      <use xlink:href="#DejaVuSans-61" transform="translate(147.802734 0)"/>
      <use xlink:href="#DejaVuSans-6e" transform="translate(209.082031 0)"/>
      <use xlink:href="#DejaVuSans-20" transform="translate(272.460938 0)"/>
      <use xlink:href="#DejaVuSans-4c" transform="translate(304.248047 0)"/>
      <use xlink:href="#DejaVuSans-61" transform="translate(359.960938 0)"/>
      <use xlink:href="#DejaVuSans-74" transform="translate(421.240234 0)"/>
      <use xlink:href="#DejaVuSans-65" transform="translate(460.449219 0)"/>
      <use xlink:href="#DejaVuSans-6e" transform="translate(521.972656 0)"/>
      <use xlink:href="#DejaVuSans-63" transform="translate(585.351562 0)"/>
      <use xlink:href="#DejaVuSans-79" transform="translate(640.332031 0)"/>
      <use xlink:href="#DejaVuSans-20" transform="translate(699.511719 0)"/>
      <use xlink:href="#DejaVuSans-28" transform="translate(731.298828 0)"/>
      <use xlink:href="#DejaVuSans-6e" transform="translate(770.3125 0)"/>
      <use xlink:href="#DejaVuSans-73" transform="translate(833.691406 0)"/>
      <use xlink:href="#DejaVuSans-29" transform="translate(885.791016 0)"/>
     </g>
    </g>
    <g id="text_19">
     <!-- 1e8 -->
     <g style="fill: #262626" transform="translate(43.78125 32.623725) scale(0.1 -0.1)">
      <use xlink:href="#DejaVuSans-31"/>
      <use xlink:href="#DejaVuSans-65" transform="translate(63.623047 0)"/>
      <use xlink:href="#DejaVuSans-38" transform="translate(125.146484 0)"/>
     </g>
    </g>
   </g>
   <g id="FillBetweenPolyCollection_1"/>
   <g id="FillBetweenPolyCollection_2"/>
   <g id="FillBetweenPolyCollection_3"/>
   <g id="FillBetweenPolyCollection_4"/>
   <g id="line2d_17">
    <path d="M 60.013977 287.490576 
L 67.682982 289.639725 
L 77.908322 289.414659 
L 98.359002 289.450883 
L 139.260362 285.148038 
L 221.063082 284.929832 
L 384.668523 284.045098 
" clip-path="url(#p82c791ac67)" style="fill: none; stroke: #3b0f70; stroke-width: 1.5; stroke-linecap: round"/>
   </g>
   <g id="line2d_18">
    <path d="M 60.013977 250.306165 
L 67.682982 255.136225 
L 77.908322 250.491506 
L 98.359002 252.977747 
L 139.260362 254.21285 
L 221.063082 251.501272 
L 384.668523 259.018515 
" clip-path="url(#p82c791ac67)" style="fill: none; stroke: #8c2981; stroke-width: 1.5; stroke-linecap: round"/>
   </g>
   <g id="line2d_19">
    <path d="M 60.013977 155.783667 
L 67.682982 205.254069 
L 77.908322 206.3671 
L 98.359002 206.691984 
L 139.260362 197.231048 
L 221.063082 204.449168 
L 384.668523 211.248644 
" clip-path="url(#p82c791ac67)" style="fill: none; stroke: #de4968; stroke-width: 1.5; stroke-linecap: round"/>
   </g>
   <g id="line2d_20">
    <path d="M 60.013977 47.719725 
L 67.682982 80.565221 
L 77.908322 54.831806 
L 98.359002 78.856988 
L 139.260362 74.160735 
L 221.063082 107.674042 
L 384.668523 88.538344 
" clip-path="url(#p82c791ac67)" style="fill: none; stroke: #fe9f6d; stroke-width: 1.5; stroke-linecap: round"/>
   </g>
   <g id="line2d_21"/>
   <g id="line2d_22"/>
   <g id="line2d_23"/>
   <g id="line2d_24"/>
   <g id="text_20">
    <path d="M 121.026974 289.006537 
L 122.629071 288.837995 
L 122.047104 283.306023 
L 120.340382 283.839073 
L 120.246385 282.945566 
L 121.943783 282.413497 
L 122.92431 282.310345 
L 123.600274 288.735824 
L 125.20237 288.567283 
L 125.289175 289.392417 
L 121.113779 289.831671 
L 121.026974 289.006537 
z
M 129.068378 284.935062 
Q 128.407959 285.004539 128.068603 285.497436 
Q 127.730637 285.988616 127.813355 286.774902 
Q 127.895582 287.556526 128.328853 287.971284 
Q 128.763515 288.384325 129.423933 288.314849 
Q 130.084351 288.245373 130.42199 287.751085 
Q 130.759466 287.255244 130.677238 286.473619 
Q 130.594521 285.687333 130.16174 285.277237 
Q 129.728796 284.865586 129.068378 284.935062 
z
M 130.691931 281.655012 
L 130.785928 282.548519 
Q 130.397785 282.413386 130.01209 282.361266 
Q 129.626232 282.307591 129.256398 282.346497 
Q 128.285195 282.448668 127.841386 283.158371 
Q 127.39913 283.86791 127.465539 285.201092 
Q 127.706996 284.748345 128.115284 284.47758 
Q 128.525125 284.206652 129.044136 284.152051 
Q 130.136545 284.037129 130.84035 284.633958 
Q 131.543991 285.229233 131.663981 286.369814 
Q 131.781518 287.487086 131.192211 288.232519 
Q 130.602741 288.976399 129.50567 289.091812 
Q 128.246991 289.224225 127.480557 288.330759 
Q 126.71396 287.435738 126.521388 285.605214 
Q 126.340586 283.886574 127.048831 282.778267 
Q 127.757076 281.669961 129.130745 281.52545 
Q 129.500579 281.486543 129.884313 281.520017 
Q 130.268046 281.553491 130.691931 281.655012 
z
" clip-path="url(#p82c791ac67)" style="fill: #3b0f70; stroke: #ffffff; stroke-width: 5"/>
    <path d="M 121.026974 289.006537 
L 122.629071 288.837995 
L 122.047104 283.306023 
L 120.340382 283.839073 
L 120.246385 282.945566 
L 121.943783 282.413497 
L 122.92431 282.310345 
L 123.600274 288.735824 
L 125.20237 288.567283 
L 125.289175 289.392417 
L 121.113779 289.831671 
L 121.026974 289.006537 
z
M 129.068378 284.935062 
Q 128.407959 285.004539 128.068603 285.497436 
Q 127.730637 285.988616 127.813355 286.774902 
Q 127.895582 287.556526 128.328853 287.971284 
Q 128.763515 288.384325 129.423933 288.314849 
Q 130.084351 288.245373 130.42199 287.751085 
Q 130.759466 287.255244 130.677238 286.473619 
Q 130.594521 285.687333 130.16174 285.277237 
Q 129.728796 284.865586 129.068378 284.935062 
z
M 130.691931 281.655012 
L 130.785928 282.548519 
Q 130.397785 282.413386 130.01209 282.361266 
Q 129.626232 282.307591 129.256398 282.346497 
Q 128.285195 282.448668 127.841386 283.158371 
Q 127.39913 283.86791 127.465539 285.201092 
Q 127.706996 284.748345 128.115284 284.47758 
Q 128.525125 284.206652 129.044136 284.152051 
Q 130.136545 284.037129 130.84035 284.633958 
Q 131.543991 285.229233 131.663981 286.369814 
Q 131.781518 287.487086 131.192211 288.232519 
Q 130.602741 288.976399 129.50567 289.091812 
Q 128.246991 289.224225 127.480557 288.330759 
Q 126.71396 287.435738 126.521388 285.605214 
Q 126.340586 283.886574 127.048831 282.778267 
Q 127.757076 281.669961 129.130745 281.52545 
Q 129.500579 281.486543 129.884313 281.520017 
Q 130.268046 281.553491 130.691931 281.655012 
z
" clip-path="url(#p82c791ac67)" style="fill: #3b0f70"/>
   </g>
   <g id="text_21">
    <path d="M 187.858204 251.429421 
Q 188.570649 251.557451 188.983198 252.023727 
Q 189.397257 252.48839 189.420551 253.191129 
Q 189.456269 254.268662 188.734108 254.885113 
Q 188.011895 255.500002 186.645458 255.545296 
Q 186.187897 255.560463 185.699224 255.485987 
Q 185.21055 255.41151 184.687642 255.247494 
L 184.656117 254.296454 
Q 185.073188 254.521823 185.564458 254.62748 
Q 186.057289 254.733086 186.589809 254.715434 
Q 187.515863 254.684737 187.989421 254.303214 
Q 188.462979 253.921691 188.43984 253.223637 
Q 188.418461 252.578679 187.955137 252.231338 
Q 187.491761 251.882435 186.687515 251.909094 
L 185.837982 251.937254 
L 185.811116 251.126762 
L 186.69969 251.097308 
Q 187.425854 251.073237 187.801951 250.769986 
Q 188.178049 250.466734 188.159931 249.920159 
Q 188.141347 249.35953 187.73319 249.072894 
Q 187.326542 248.784646 186.584762 248.809234 
Q 186.178735 248.822693 185.717878 248.927081 
Q 185.256969 249.029907 184.707132 249.232609 
L 184.67804 248.354966 
Q 185.235055 248.180167 185.722822 248.08583 
Q 186.21059 247.991494 186.644726 247.977103 
Q 187.767547 247.939884 188.437241 248.428904 
Q 189.108444 248.916309 189.137226 249.784583 
Q 189.157311 250.3905 188.824447 250.81895 
Q 188.491584 251.2474 187.858204 251.429421 
z
M 192.181881 254.389367 
L 195.622179 254.275329 
L 195.649666 255.104561 
L 191.024082 255.257889 
L 190.996595 254.428657 
Q 191.537968 253.829142 192.473781 252.81946 
Q 193.411104 251.808164 193.649984 251.515715 
Q 194.105562 250.969071 194.280742 250.594312 
Q 194.457485 250.219501 194.445682 249.863446 
Q 194.426426 249.282515 194.006724 248.930602 
Q 193.586971 248.577127 192.932642 248.598816 
Q 192.468835 248.61419 191.958824 248.792122 
Q 191.450376 248.970002 190.875631 249.317358 
L 190.842605 248.321031 
Q 191.42967 248.062377 191.942536 247.923435 
Q 192.456964 247.784441 192.886415 247.770205 
Q 194.018606 247.732676 194.710465 248.277241 
Q 195.402271 248.820245 195.433641 249.7666 
Q 195.448549 250.216353 195.293247 250.624847 
Q 195.139455 251.031728 194.712505 251.593056 
Q 194.595407 251.739203 193.963493 252.437084 
Q 193.333141 253.134913 192.181881 254.389367 
z
" clip-path="url(#p82c791ac67)" style="fill: #8c2981; stroke: #ffffff; stroke-width: 5"/>
    <path d="M 187.858204 251.429421 
Q 188.570649 251.557451 188.983198 252.023727 
Q 189.397257 252.48839 189.420551 253.191129 
Q 189.456269 254.268662 188.734108 254.885113 
Q 188.011895 255.500002 186.645458 255.545296 
Q 186.187897 255.560463 185.699224 255.485987 
Q 185.21055 255.41151 184.687642 255.247494 
L 184.656117 254.296454 
Q 185.073188 254.521823 185.564458 254.62748 
Q 186.057289 254.733086 186.589809 254.715434 
Q 187.515863 254.684737 187.989421 254.303214 
Q 188.462979 253.921691 188.43984 253.223637 
Q 188.418461 252.578679 187.955137 252.231338 
Q 187.491761 251.882435 186.687515 251.909094 
L 185.837982 251.937254 
L 185.811116 251.126762 
L 186.69969 251.097308 
Q 187.425854 251.073237 187.801951 250.769986 
Q 188.178049 250.466734 188.159931 249.920159 
Q 188.141347 249.35953 187.73319 249.072894 
Q 187.326542 248.784646 186.584762 248.809234 
Q 186.178735 248.822693 185.717878 248.927081 
Q 185.256969 249.029907 184.707132 249.232609 
L 184.67804 248.354966 
Q 185.235055 248.180167 185.722822 248.08583 
Q 186.21059 247.991494 186.644726 247.977103 
Q 187.767547 247.939884 188.437241 248.428904 
Q 189.108444 248.916309 189.137226 249.784583 
Q 189.157311 250.3905 188.824447 250.81895 
Q 188.491584 251.2474 187.858204 251.429421 
z
M 192.181881 254.389367 
L 195.622179 254.275329 
L 195.649666 255.104561 
L 191.024082 255.257889 
L 190.996595 254.428657 
Q 191.537968 253.829142 192.473781 252.81946 
Q 193.411104 251.808164 193.649984 251.515715 
Q 194.105562 250.969071 194.280742 250.594312 
Q 194.457485 250.219501 194.445682 249.863446 
Q 194.426426 249.282515 194.006724 248.930602 
Q 193.586971 248.577127 192.932642 248.598816 
Q 192.468835 248.61419 191.958824 248.792122 
Q 191.450376 248.970002 190.875631 249.317358 
L 190.842605 248.321031 
Q 191.42967 248.062377 191.942536 247.923435 
Q 192.456964 247.784441 192.886415 247.770205 
Q 194.018606 247.732676 194.710465 248.277241 
Q 195.402271 248.820245 195.433641 249.7666 
Q 195.448549 250.216353 195.293247 250.624847 
Q 195.139455 251.031728 194.712505 251.593056 
Q 194.595407 251.739203 193.963493 252.437084 
Q 193.333141 253.134913 192.181881 254.389367 
z
" clip-path="url(#p82c791ac67)" style="fill: #8c2981"/>
   </g>
   <g id="text_22">
    <path d="M 251.476826 204.433942 
Q 250.813336 204.406367 250.405729 204.844507 
Q 249.999747 205.28115 249.966917 206.071093 
Q 249.934281 206.856353 250.302437 207.329861 
Q 250.672218 207.801873 251.335708 207.829448 
Q 251.999198 207.857023 252.405309 207.417257 
Q 252.811485 206.97593 252.844121 206.19067 
Q 252.876951 205.400727 252.508601 204.931902 
Q 252.140316 204.461516 251.476826 204.433942 
z
M 253.561351 201.425718 
L 253.524044 202.323381 
Q 253.159756 202.13309 252.785786 202.02528 
Q 252.41188 201.91591 252.040325 201.900468 
Q 251.064605 201.859917 250.522045 202.497312 
Q 249.981045 203.134772 249.852327 204.463386 
Q 250.157227 204.050691 250.600635 203.842361 
Q 251.045605 203.634096 251.567029 203.655766 
Q 252.66452 203.701378 253.273765 204.394462 
Q 253.883076 205.085984 253.835452 206.23187 
Q 253.788802 207.354339 253.097089 208.005865 
Q 252.405441 208.655831 251.303267 208.610024 
Q 250.038734 208.55747 249.410787 207.561786 
Q 248.782906 206.564541 248.859336 204.725503 
Q 248.931096 202.998869 249.793393 202.005694 
Q 250.65569 201.012518 252.035749 201.069874 
Q 252.407303 201.085316 252.782052 201.174391 
Q 253.156802 201.263467 253.561351 201.425718 
z
M 258.410755 202.326301 
L 255.760657 206.11171 
L 258.249134 206.215131 
L 258.410755 202.326301 
z
M 258.187288 201.456897 
L 259.426843 201.508413 
L 259.229538 206.255877 
L 260.269265 206.299088 
L 260.235202 207.118693 
L 259.195475 207.075482 
L 259.124105 208.792749 
L 258.143701 208.752004 
L 258.215071 207.034736 
L 254.927284 206.898095 
L 254.966797 205.947353 
L 258.187288 201.456897 
z
" clip-path="url(#p82c791ac67)" style="fill: #de4968; stroke: #ffffff; stroke-width: 5"/>
    <path d="M 251.476826 204.433942 
Q 250.813336 204.406367 250.405729 204.844507 
Q 249.999747 205.28115 249.966917 206.071093 
Q 249.934281 206.856353 250.302437 207.329861 
Q 250.672218 207.801873 251.335708 207.829448 
Q 251.999198 207.857023 252.405309 207.417257 
Q 252.811485 206.97593 252.844121 206.19067 
Q 252.876951 205.400727 252.508601 204.931902 
Q 252.140316 204.461516 251.476826 204.433942 
z
M 253.561351 201.425718 
L 253.524044 202.323381 
Q 253.159756 202.13309 252.785786 202.02528 
Q 252.41188 201.91591 252.040325 201.900468 
Q 251.064605 201.859917 250.522045 202.497312 
Q 249.981045 203.134772 249.852327 204.463386 
Q 250.157227 204.050691 250.600635 203.842361 
Q 251.045605 203.634096 251.567029 203.655766 
Q 252.66452 203.701378 253.273765 204.394462 
Q 253.883076 205.085984 253.835452 206.23187 
Q 253.788802 207.354339 253.097089 208.005865 
Q 252.405441 208.655831 251.303267 208.610024 
Q 250.038734 208.55747 249.410787 207.561786 
Q 248.782906 206.564541 248.859336 204.725503 
Q 248.931096 202.998869 249.793393 202.005694 
Q 250.65569 201.012518 252.035749 201.069874 
Q 252.407303 201.085316 252.782052 201.174391 
Q 253.156802 201.263467 253.561351 201.425718 
z
M 258.410755 202.326301 
L 255.760657 206.11171 
L 258.249134 206.215131 
L 258.410755 202.326301 
z
M 258.187288 201.456897 
L 259.426843 201.508413 
L 259.229538 206.255877 
L 260.269265 206.299088 
L 260.235202 207.118693 
L 259.195475 207.075482 
L 259.124105 208.792749 
L 258.143701 208.752004 
L 258.215071 207.034736 
L 254.927284 206.898095 
L 254.966797 205.947353 
L 258.187288 201.456897 
z
" clip-path="url(#p82c791ac67)" style="fill: #de4968"/>
   </g>
   <g id="text_23">
    <path d="M 310.740916 99.127942 
L 312.340946 98.940799 
L 311.694748 93.415961 
L 309.994334 93.968805 
L 309.889962 93.07645 
L 311.581064 92.524696 
L 312.560326 92.410159 
L 313.310897 98.827351 
L 314.910927 98.640208 
L 315.007312 99.464277 
L 310.837301 99.952012 
L 310.740916 99.127942 
z
M 317.733677 98.310052 
L 321.152558 97.910171 
L 321.248944 98.734241 
L 316.652154 99.271893 
L 316.555769 98.447823 
Q 317.045384 97.805344 317.893946 96.721301 
Q 318.743878 95.635525 318.957597 95.324214 
Q 319.366114 94.741562 319.509506 94.353527 
Q 319.654451 93.96531 319.613065 93.611472 
Q 319.545541 93.034157 319.098015 92.718384 
Q 318.650307 92.401058 318.000052 92.477114 
Q 317.539132 92.531024 317.045694 92.750772 
Q 316.553808 92.970339 316.009957 93.364311 
L 315.894149 92.374186 
Q 316.457659 92.067584 316.957186 91.886452 
Q 317.458266 91.705139 317.885044 91.655222 
Q 319.010187 91.523622 319.744955 92.008736 
Q 320.479542 92.492298 320.589541 93.432762 
Q 320.641817 93.879715 320.521041 94.299714 
Q 320.401635 94.71798 320.022869 95.312885 
Q 319.918337 95.468268 319.346679 96.216305 
Q 318.776573 96.96416 317.733677 98.310052 
z
M 324.997897 94.809651 
Q 324.299533 94.891333 323.942883 95.312177 
Q 323.587784 95.73284 323.664203 96.386198 
Q 323.740803 97.041109 324.183392 97.368472 
Q 324.627533 97.695654 325.325897 97.613971 
Q 326.024262 97.532289 326.382282 97.109711 
Q 326.741673 96.6854 326.665618 96.035145 
Q 326.589199 95.381787 326.145058 95.054605 
Q 325.702469 94.727242 324.997897 94.809651 
z
M 323.969989 94.508273 
Q 323.321757 94.426776 322.91901 94.036547 
Q 322.517632 93.644583 322.445026 93.023815 
Q 322.343558 92.156291 322.90223 91.579674 
Q 323.462453 91.002874 324.537934 90.877083 
Q 325.619623 90.750566 326.294728 91.182879 
Q 326.969834 91.615191 327.071302 92.482714 
Q 327.143908 93.103483 326.842265 93.577673 
Q 326.541993 94.05013 325.93472 94.278473 
Q 326.661637 94.360205 327.112095 94.795195 
Q 327.563923 95.228452 327.64488 95.920609 
Q 327.768129 96.974363 327.191525 97.612858 
Q 326.614738 98.249801 325.416656 98.389932 
Q 324.220125 98.529881 323.510369 98.043415 
Q 322.801983 97.555216 322.678733 96.501461 
Q 322.597777 95.809305 322.93898 95.283293 
Q 323.281554 94.755548 323.969989 94.508273 
z
M 323.430523 93.002938 
Q 323.496232 93.564733 323.883814 93.83875 
Q 324.272948 94.112586 324.907683 94.038346 
Q 325.539315 93.964469 325.857857 93.607861 
Q 326.177951 93.251073 326.112242 92.689277 
Q 326.046352 92.12593 325.652562 91.852639 
Q 325.260324 91.579166 324.628692 91.653044 
Q 323.993957 91.727284 323.678519 92.083528 
Q 323.364633 92.439591 323.430523 93.002938 
z
" clip-path="url(#p82c791ac67)" style="fill: #fe9f6d; stroke: #ffffff; stroke-width: 5"/>
    <path d="M 310.740916 99.127942 
L 312.340946 98.940799 
L 311.694748 93.415961 
L 309.994334 93.968805 
L 309.889962 93.07645 
L 311.581064 92.524696 
L 312.560326 92.410159 
L 313.310897 98.827351 
L 314.910927 98.640208 
L 315.007312 99.464277 
L 310.837301 99.952012 
L 310.740916 99.127942 
z
M 317.733677 98.310052 
L 321.152558 97.910171 
L 321.248944 98.734241 
L 316.652154 99.271893 
L 316.555769 98.447823 
Q 317.045384 97.805344 317.893946 96.721301 
Q 318.743878 95.635525 318.957597 95.324214 
Q 319.366114 94.741562 319.509506 94.353527 
Q 319.654451 93.96531 319.613065 93.611472 
Q 319.545541 93.034157 319.098015 92.718384 
Q 318.650307 92.401058 318.000052 92.477114 
Q 317.539132 92.531024 317.045694 92.750772 
Q 316.553808 92.970339 316.009957 93.364311 
L 315.894149 92.374186 
Q 316.457659 92.067584 316.957186 91.886452 
Q 317.458266 91.705139 317.885044 91.655222 
Q 319.010187 91.523622 319.744955 92.008736 
Q 320.479542 92.492298 320.589541 93.432762 
Q 320.641817 93.879715 320.521041 94.299714 
Q 320.401635 94.71798 320.022869 95.312885 
Q 319.918337 95.468268 319.346679 96.216305 
Q 318.776573 96.96416 317.733677 98.310052 
z
M 324.997897 94.809651 
Q 324.299533 94.891333 323.942883 95.312177 
Q 323.587784 95.73284 323.664203 96.386198 
Q 323.740803 97.041109 324.183392 97.368472 
Q 324.627533 97.695654 325.325897 97.613971 
Q 326.024262 97.532289 326.382282 97.109711 
Q 326.741673 96.6854 326.665618 96.035145 
Q 326.589199 95.381787 326.145058 95.054605 
Q 325.702469 94.727242 324.997897 94.809651 
z
M 323.969989 94.508273 
Q 323.321757 94.426776 322.91901 94.036547 
Q 322.517632 93.644583 322.445026 93.023815 
Q 322.343558 92.156291 322.90223 91.579674 
Q 323.462453 91.002874 324.537934 90.877083 
Q 325.619623 90.750566 326.294728 91.182879 
Q 326.969834 91.615191 327.071302 92.482714 
Q 327.143908 93.103483 326.842265 93.577673 
Q 326.541993 94.05013 325.93472 94.278473 
Q 326.661637 94.360205 327.112095 94.795195 
Q 327.563923 95.228452 327.64488 95.920609 
Q 327.768129 96.974363 327.191525 97.612858 
Q 326.614738 98.249801 325.416656 98.389932 
Q 324.220125 98.529881 323.510369 98.043415 
Q 322.801983 97.555216 322.678733 96.501461 
Q 322.597777 95.809305 322.93898 95.283293 
Q 323.281554 94.755548 323.969989 94.508273 
z
M 323.430523 93.002938 
Q 323.496232 93.564733 323.883814 93.83875 
Q 324.272948 94.112586 324.907683 94.038346 
Q 325.539315 93.964469 325.857857 93.607861 
Q 326.177951 93.251073 326.112242 92.689277 
Q 326.046352 92.12593 325.652562 91.852639 
Q 325.260324 91.579166 324.628692 91.653044 
Q 323.993957 91.727284 323.678519 92.083528 
Q 323.364633 92.439591 323.430523 93.002938 
z
" clip-path="url(#p82c791ac67)" style="fill: #fe9f6d"/>
   </g>
   <g id="patch_3">
    <path d="M 43.78125 301.735725 
L 43.78125 35.623725 
" style="fill: none; stroke: #cccccc; stroke-width: 0.8; stroke-linejoin: miter; stroke-linecap: square"/>
   </g>
   <g id="patch_4">
    <path d="M 400.90125 301.735725 
L 400.90125 35.623725 
" style="fill: none; stroke: #cccccc; stroke-width: 0.8; stroke-linejoin: miter; stroke-linecap: square"/>
   </g>
   <g id="patch_5">
    <path d="M 43.78125 301.735725 
L 400.90125 301.735725 
" style="fill: none; stroke: #cccccc; stroke-width: 0.8; stroke-linejoin: miter; stroke-linecap: square"/>
   </g>
   <g id="patch_6">
    <path d="M 43.78125 35.623725 
L 400.90125 35.623725 
" style="fill: none; stroke: #cccccc; stroke-width: 0.8; stroke-linejoin: miter; stroke-linecap: square"/>
   </g>
   <g id="text_24">
    <!-- Block Size = 4M, Read-Write Type = Random Balanced 1:1 -->
    <g style="fill: #262626; opacity: 0.75" transform="translate(76.075625 30.882918) scale(0.1 -0.1)">
     <defs>
      <path id="DejaVuSans-42" d="M 1259 2228 
L 1259 519 
L 2272 519 
Q 2781 519 3026 730 
Q 3272 941 3272 1375 
Q 3272 1813 3026 2020 
Q 2781 2228 2272 2228 
L 1259 2228 
z
M 1259 4147 
L 1259 2741 
L 2194 2741 
Q 2656 2741 2882 2914 
Q 3109 3088 3109 3444 
Q 3109 3797 2882 3972 
Q 2656 4147 2194 4147 
L 1259 4147 
z
M 628 4666 
L 2241 4666 
Q 2963 4666 3353 4366 
Q 3744 4066 3744 3513 
Q 3744 3084 3544 2831 
Q 3344 2578 2956 2516 
Q 3422 2416 3680 2098 
Q 3938 1781 3938 1306 
Q 3938 681 3513 340 
Q 3088 0 2303 0 
L 628 0 
L 628 4666 
z
" transform="scale(0.015625)"/>
      <path id="DejaVuSans-6c" d="M 603 4863 
L 1178 4863 
L 1178 0 
L 603 0 
L 603 4863 
z
" transform="scale(0.015625)"/>
      <path id="DejaVuSans-6f" d="M 1959 3097 
Q 1497 3097 1228 2736 
Q 959 2375 959 1747 
Q 959 1119 1226 758 
Q 1494 397 1959 397 
Q 2419 397 2687 759 
Q 2956 1122 2956 1747 
Q 2956 2369 2687 2733 
Q 2419 3097 1959 3097 
z
M 1959 3584 
Q 2709 3584 3137 3096 
Q 3566 2609 3566 1747 
Q 3566 888 3137 398 
Q 2709 -91 1959 -91 
Q 1206 -91 779 398 
Q 353 888 353 1747 
Q 353 2609 779 3096 
Q 1206 3584 1959 3584 
z
" transform="scale(0.015625)"/>
      <path id="DejaVuSans-6b" d="M 581 4863 
L 1159 4863 
L 1159 1991 
L 2875 3500 
L 3609 3500 
L 1753 1863 
L 3688 0 
L 2938 0 
L 1159 1709 
L 1159 0 
L 581 0 
L 581 4863 
z
" transform="scale(0.015625)"/>
      <path id="DejaVuSans-53" d="M 3425 4513 
L 3425 3897 
Q 3066 4069 2747 4153 
Q 2428 4238 2131 4238 
Q 1616 4238 1336 4038 
Q 1056 3838 1056 3469 
Q 1056 3159 1242 3001 
Q 1428 2844 1947 2747 
L 2328 2669 
Q 3034 2534 3370 2195 
Q 3706 1856 3706 1288 
Q 3706 609 3251 259 
Q 2797 -91 1919 -91 
Q 1588 -91 1214 -16 
Q 841 59 441 206 
L 441 856 
Q 825 641 1194 531 
Q 1563 422 1919 422 
Q 2459 422 2753 634 
Q 3047 847 3047 1241 
Q 3047 1584 2836 1778 
Q 2625 1972 2144 2069 
L 1759 2144 
Q 1053 2284 737 2584 
Q 422 2884 422 3419 
Q 422 4038 858 4394 
Q 1294 4750 2059 4750 
Q 2388 4750 2728 4690 
Q 3069 4631 3425 4513 
z
" transform="scale(0.015625)"/>
      <path id="DejaVuSans-69" d="M 603 3500 
L 1178 3500 
L 1178 0 
L 603 0 
L 603 3500 
z
M 603 4863 
L 1178 4863 
L 1178 4134 
L 603 4134 
L 603 4863 
z
" transform="scale(0.015625)"/>
      <path id="DejaVuSans-7a" d="M 353 3500 
L 3084 3500 
L 3084 2975 
L 922 459 
L 3084 459 
L 3084 0 
L 275 0 
L 275 525 
L 2438 3041 
L 353 3041 
L 353 3500 
z
" transform="scale(0.015625)"/>
      <path id="DejaVuSans-3d" d="M 678 2906 
L 4684 2906 
L 4684 2381 
L 678 2381 
L 678 2906 
z
M 678 1631 
L 4684 1631 
L 4684 1100 
L 678 1100 
L 678 1631 
z
" transform="scale(0.015625)"/>
      <path id="DejaVuSans-2c" d="M 750 794 
L 1409 794 
L 1409 256 
L 897 -744 
L 494 -744 
L 750 256 
L 750 794 
z
" transform="scale(0.015625)"/>
      <path id="DejaVuSans-52" d="M 2841 2188 
Q 3044 2119 3236 1894 
Q 3428 1669 3622 1275 
L 4263 0 
L 3584 0 
L 2988 1197 
Q 2756 1666 2539 1819 
Q 2322 1972 1947 1972 
L 1259 1972 
L 1259 0 
L 628 0 
L 628 4666 
L 2053 4666 
Q 2853 4666 3247 4331 
Q 3641 3997 3641 3322 
Q 3641 2881 3436 2590 
Q 3231 2300 2841 2188 
z
M 1259 4147 
L 1259 2491 
L 2053 2491 
Q 2509 2491 2742 2702 
Q 2975 2913 2975 3322 
Q 2975 3731 2742 3939 
Q 2509 4147 2053 4147 
L 1259 4147 
z
" transform="scale(0.015625)"/>
      <path id="DejaVuSans-64" d="M 2906 2969 
L 2906 4863 
L 3481 4863 
L 3481 0 
L 2906 0 
L 2906 525 
Q 2725 213 2448 61 
Q 2172 -91 1784 -91 
Q 1150 -91 751 415 
Q 353 922 353 1747 
Q 353 2572 751 3078 
Q 1150 3584 1784 3584 
Q 2172 3584 2448 3432 
Q 2725 3281 2906 2969 
z
M 947 1747 
Q 947 1113 1208 752 
Q 1469 391 1925 391 
Q 2381 391 2643 752 
Q 2906 1113 2906 1747 
Q 2906 2381 2643 2742 
Q 2381 3103 1925 3103 
Q 1469 3103 1208 2742 
Q 947 2381 947 1747 
z
" transform="scale(0.015625)"/>
      <path id="DejaVuSans-2d" d="M 313 2009 
L 1997 2009 
L 1997 1497 
L 313 1497 
L 313 2009 
z
" transform="scale(0.015625)"/>
      <path id="DejaVuSans-57" d="M 213 4666 
L 850 4666 
L 1831 722 
L 2809 4666 
L 3519 4666 
L 4500 722 
L 5478 4666 
L 6119 4666 
L 4947 0 
L 4153 0 
L 3169 4050 
L 2175 0 
L 1381 0 
L 213 4666 
z
" transform="scale(0.015625)"/>
      <path id="DejaVuSans-72" d="M 2631 2963 
Q 2534 3019 2420 3045 
Q 2306 3072 2169 3072 
Q 1681 3072 1420 2755 
Q 1159 2438 1159 1844 
L 1159 0 
L 581 0 
L 581 3500 
L 1159 3500 
L 1159 2956 
Q 1341 3275 1631 3429 
Q 1922 3584 2338 3584 
Q 2397 3584 2469 3576 
Q 2541 3569 2628 3553 
L 2631 2963 
z
" transform="scale(0.015625)"/>
      <path id="DejaVuSans-54" d="M -19 4666 
L 3928 4666 
L 3928 4134 
L 2272 4134 
L 2272 0 
L 1638 0 
L 1638 4134 
L -19 4134 
L -19 4666 
z
" transform="scale(0.015625)"/>
      <path id="DejaVuSans-6d" d="M 3328 2828 
Q 3544 3216 3844 3400 
Q 4144 3584 4550 3584 
Q 5097 3584 5394 3201 
Q 5691 2819 5691 2113 
L 5691 0 
L 5113 0 
L 5113 2094 
Q 5113 2597 4934 2840 
Q 4756 3084 4391 3084 
Q 3944 3084 3684 2787 
Q 3425 2491 3425 1978 
L 3425 0 
L 2847 0 
L 2847 2094 
Q 2847 2600 2669 2842 
Q 2491 3084 2119 3084 
Q 1678 3084 1418 2786 
Q 1159 2488 1159 1978 
L 1159 0 
L 581 0 
L 581 3500 
L 1159 3500 
L 1159 2956 
Q 1356 3278 1631 3431 
Q 1906 3584 2284 3584 
Q 2666 3584 2933 3390 
Q 3200 3197 3328 2828 
z
" transform="scale(0.015625)"/>
      <path id="DejaVuSans-3a" d="M 750 794 
L 1409 794 
L 1409 0 
L 750 0 
L 750 794 
z
M 750 3309 
L 1409 3309 
L 1409 2516 
L 750 2516 
L 750 3309 
z
" transform="scale(0.015625)"/>
     </defs>
     <use xlink:href="#DejaVuSans-42"/>
     <use xlink:href="#DejaVuSans-6c" transform="translate(68.603516 0)"/>
     <use xlink:href="#DejaVuSans-6f" transform="translate(96.386719 0)"/>
     <use xlink:href="#DejaVuSans-63" transform="translate(157.568359 0)"/>
     <use xlink:href="#DejaVuSans-6b" transform="translate(212.548828 0)"/>
     <use xlink:href="#DejaVuSans-20" transform="translate(270.458984 0)"/>
     <use xlink:href="#DejaVuSans-53" transform="translate(302.246094 0)"/>
     <use xlink:href="#DejaVuSans-69" transform="translate(365.722656 0)"/>
     <use xlink:href="#DejaVuSans-7a" transform="translate(393.505859 0)"/>
     <use xlink:href="#DejaVuSans-65" transform="translate(445.996094 0)"/>
     <use xlink:href="#DejaVuSans-20" transform="translate(507.519531 0)"/>
     <use xlink:href="#DejaVuSans-3d" transform="translate(539.306641 0)"/>
     <use xlink:href="#DejaVuSans-20" transform="translate(623.095703 0)"/>
     <use xlink:href="#DejaVuSans-34" transform="translate(654.882812 0)"/>
     <use xlink:href="#DejaVuSans-4d" transform="translate(718.505859 0)"/>
     <use xlink:href="#DejaVuSans-2c" transform="translate(804.785156 0)"/>
     <use xlink:href="#DejaVuSans-20" transform="translate(836.572266 0)"/>
     <use xlink:href="#DejaVuSans-52" transform="translate(868.359375 0)"/>
     <use xlink:href="#DejaVuSans-65" transform="translate(933.341797 0)"/>
     <use xlink:href="#DejaVuSans-61" transform="translate(994.865234 0)"/>
     <use xlink:href="#DejaVuSans-64" transform="translate(1056.144531 0)"/>
     <use xlink:href="#DejaVuSans-2d" transform="translate(1119.621094 0)"/>
     <use xlink:href="#DejaVuSans-57" transform="translate(1151.705078 0)"/>
     <use xlink:href="#DejaVuSans-72" transform="translate(1246.082031 0)"/>
     <use xlink:href="#DejaVuSans-69" transform="translate(1287.195312 0)"/>
     <use xlink:href="#DejaVuSans-74" transform="translate(1314.978516 0)"/>
     <use xlink:href="#DejaVuSans-65" transform="translate(1354.1875 0)"/>
     <use xlink:href="#DejaVuSans-20" transform="translate(1415.710938 0)"/>
     <use xlink:href="#DejaVuSans-54" transform="translate(1447.498047 0)"/>
     <use xlink:href="#DejaVuSans-79" transform="translate(1492.957031 0)"/>
     <use xlink:href="#DejaVuSans-70" transform="translate(1552.136719 0)"/>
     <use xlink:href="#DejaVuSans-65" transform="translate(1615.613281 0)"/>
     <use xlink:href="#DejaVuSans-20" transform="translate(1677.136719 0)"/>
     <use xlink:href="#DejaVuSans-3d" transform="translate(1708.923828 0)"/>
     <use xlink:href="#DejaVuSans-20" transform="translate(1792.712891 0)"/>
     <use xlink:href="#DejaVuSans-52" transform="translate(1824.5 0)"/>
     <use xlink:href="#DejaVuSans-61" transform="translate(1891.732422 0)"/>
     <use xlink:href="#DejaVuSans-6e" transform="translate(1953.011719 0)"/>
     <use xlink:href="#DejaVuSans-64" transform="translate(2016.390625 0)"/>
     <use xlink:href="#DejaVuSans-6f" transform="translate(2079.867188 0)"/>
     <use xlink:href="#DejaVuSans-6d" transform="translate(2141.048828 0)"/>
     <use xlink:href="#DejaVuSans-20" transform="translate(2238.460938 0)"/>
     <use xlink:href="#DejaVuSans-42" transform="translate(2270.248047 0)"/>
     <use xlink:href="#DejaVuSans-61" transform="translate(2338.851562 0)"/>
     <use xlink:href="#DejaVuSans-6c" transform="translate(2400.130859 0)"/>
     <use xlink:href="#DejaVuSans-61" transform="translate(2427.914062 0)"/>
     <use xlink:href="#DejaVuSans-6e" transform="translate(2489.193359 0)"/>
     <use xlink:href="#DejaVuSans-63" transform="translate(2552.572266 0)"/>
     <use xlink:href="#DejaVuSans-65" transform="translate(2607.552734 0)"/>
     <use xlink:href="#DejaVuSans-64" transform="translate(2669.076172 0)"/>
     <use xlink:href="#DejaVuSans-20" transform="translate(2732.552734 0)"/>
     <use xlink:href="#DejaVuSans-31" transform="translate(2764.339844 0)"/>
     <use xlink:href="#DejaVuSans-3a" transform="translate(2827.962891 0)"/>
     <use xlink:href="#DejaVuSans-31" transform="translate(2861.654297 0)"/>
    </g>
   </g>
   <g id="text_25">
    <!-- Mean Latency vs IO Depth -->
    <g style="fill: #262626" transform="translate(133.776563 16.318125) scale(0.12 -0.12)">
     <defs>
      <path id="DejaVuSans-Bold-4d" d="M 588 4666 
L 2119 4666 
L 3181 2169 
L 4250 4666 
L 5778 4666 
L 5778 0 
L 4641 0 
L 4641 3413 
L 3566 897 
L 2803 897 
L 1728 3413 
L 1728 0 
L 588 0 
L 588 4666 
z
" transform="scale(0.015625)"/>
      <path id="DejaVuSans-Bold-65" d="M 4031 1759 
L 4031 1441 
L 1416 1441 
Q 1456 1047 1700 850 
Q 1944 653 2381 653 
Q 2734 653 3104 758 
Q 3475 863 3866 1075 
L 3866 213 
Q 3469 63 3072 -14 
Q 2675 -91 2278 -91 
Q 1328 -91 801 392 
Q 275 875 275 1747 
Q 275 2603 792 3093 
Q 1309 3584 2216 3584 
Q 3041 3584 3536 3087 
Q 4031 2591 4031 1759 
z
M 2881 2131 
Q 2881 2450 2695 2645 
Q 2509 2841 2209 2841 
Q 1884 2841 1681 2658 
Q 1478 2475 1428 2131 
L 2881 2131 
z
" transform="scale(0.015625)"/>
      <path id="DejaVuSans-Bold-61" d="M 2106 1575 
Q 1756 1575 1579 1456 
Q 1403 1338 1403 1106 
Q 1403 894 1545 773 
Q 1688 653 1941 653 
Q 2256 653 2472 879 
Q 2688 1106 2688 1447 
L 2688 1575 
L 2106 1575 
z
M 3816 1997 
L 3816 0 
L 2688 0 
L 2688 519 
Q 2463 200 2181 54 
Q 1900 -91 1497 -91 
Q 953 -91 614 226 
Q 275 544 275 1050 
Q 275 1666 698 1953 
Q 1122 2241 2028 2241 
L 2688 2241 
L 2688 2328 
Q 2688 2594 2478 2717 
Q 2269 2841 1825 2841 
Q 1466 2841 1156 2769 
Q 847 2697 581 2553 
L 581 3406 
Q 941 3494 1303 3539 
Q 1666 3584 2028 3584 
Q 2975 3584 3395 3211 
Q 3816 2838 3816 1997 
z
" transform="scale(0.015625)"/>
      <path id="DejaVuSans-Bold-6e" d="M 4056 2131 
L 4056 0 
L 2931 0 
L 2931 347 
L 2931 1631 
Q 2931 2084 2911 2256 
Q 2891 2428 2841 2509 
Q 2775 2619 2662 2680 
Q 2550 2741 2406 2741 
Q 2056 2741 1856 2470 
Q 1656 2200 1656 1722 
L 1656 0 
L 538 0 
L 538 3500 
L 1656 3500 
L 1656 2988 
Q 1909 3294 2193 3439 
Q 2478 3584 2822 3584 
Q 3428 3584 3742 3212 
Q 4056 2841 4056 2131 
z
" transform="scale(0.015625)"/>
      <path id="DejaVuSans-Bold-20" transform="scale(0.015625)"/>
      <path id="DejaVuSans-Bold-4c" d="M 588 4666 
L 1791 4666 
L 1791 909 
L 3903 909 
L 3903 0 
L 588 0 
L 588 4666 
z
" transform="scale(0.015625)"/>
      <path id="DejaVuSans-Bold-74" d="M 1759 4494 
L 1759 3500 
L 2913 3500 
L 2913 2700 
L 1759 2700 
L 1759 1216 
Q 1759 972 1856 886 
Q 1953 800 2241 800 
L 2816 800 
L 2816 0 
L 1856 0 
Q 1194 0 917 276 
Q 641 553 641 1216 
L 641 2700 
L 84 2700 
L 84 3500 
L 641 3500 
L 641 4494 
L 1759 4494 
z
" transform="scale(0.015625)"/>
      <path id="DejaVuSans-Bold-63" d="M 3366 3391 
L 3366 2478 
Q 3138 2634 2908 2709 
Q 2678 2784 2431 2784 
Q 1963 2784 1702 2511 
Q 1441 2238 1441 1747 
Q 1441 1256 1702 982 
Q 1963 709 2431 709 
Q 2694 709 2930 787 
Q 3166 866 3366 1019 
L 3366 103 
Q 3103 6 2833 -42 
Q 2563 -91 2291 -91 
Q 1344 -91 809 395 
Q 275 881 275 1747 
Q 275 2613 809 3098 
Q 1344 3584 2291 3584 
Q 2566 3584 2833 3536 
Q 3100 3488 3366 3391 
z
" transform="scale(0.015625)"/>
      <path id="DejaVuSans-Bold-79" d="M 78 3500 
L 1197 3500 
L 2138 1125 
L 2938 3500 
L 4056 3500 
L 2584 -331 
Q 2363 -916 2067 -1148 
Q 1772 -1381 1288 -1381 
L 641 -1381 
L 641 -647 
L 991 -647 
Q 1275 -647 1404 -556 
Q 1534 -466 1606 -231 
L 1638 -134 
L 78 3500 
z
" transform="scale(0.015625)"/>
      <path id="DejaVuSans-Bold-76" d="M 97 3500 
L 1216 3500 
L 2088 1081 
L 2956 3500 
L 4078 3500 
L 2700 0 
L 1472 0 
L 97 3500 
z
" transform="scale(0.015625)"/>
      <path id="DejaVuSans-Bold-73" d="M 3272 3391 
L 3272 2541 
Q 2913 2691 2578 2766 
Q 2244 2841 1947 2841 
Q 1628 2841 1473 2761 
Q 1319 2681 1319 2516 
Q 1319 2381 1436 2309 
Q 1553 2238 1856 2203 
L 2053 2175 
Q 2913 2066 3209 1816 
Q 3506 1566 3506 1031 
Q 3506 472 3093 190 
Q 2681 -91 1863 -91 
Q 1516 -91 1145 -36 
Q 775 19 384 128 
L 384 978 
Q 719 816 1070 734 
Q 1422 653 1784 653 
Q 2113 653 2278 743 
Q 2444 834 2444 1013 
Q 2444 1163 2330 1236 
Q 2216 1309 1875 1350 
L 1678 1375 
Q 931 1469 631 1722 
Q 331 1975 331 2491 
Q 331 3047 712 3315 
Q 1094 3584 1881 3584 
Q 2191 3584 2531 3537 
Q 2872 3491 3272 3391 
z
" transform="scale(0.015625)"/>
      <path id="DejaVuSans-Bold-49" d="M 588 4666 
L 1791 4666 
L 1791 0 
L 588 0 
L 588 4666 
z
" transform="scale(0.015625)"/>
      <path id="DejaVuSans-Bold-4f" d="M 2719 3878 
Q 2169 3878 1866 3472 
Q 1563 3066 1563 2328 
Q 1563 1594 1866 1187 
Q 2169 781 2719 781 
Q 3272 781 3575 1187 
Q 3878 1594 3878 2328 
Q 3878 3066 3575 3472 
Q 3272 3878 2719 3878 
z
M 2719 4750 
Q 3844 4750 4481 4106 
Q 5119 3463 5119 2328 
Q 5119 1197 4481 553 
Q 3844 -91 2719 -91 
Q 1597 -91 958 553 
Q 319 1197 319 2328 
Q 319 3463 958 4106 
Q 1597 4750 2719 4750 
z
" transform="scale(0.015625)"/>
      <path id="DejaVuSans-Bold-44" d="M 1791 3756 
L 1791 909 
L 2222 909 
Q 2959 909 3348 1275 
Q 3738 1641 3738 2338 
Q 3738 3031 3350 3393 
Q 2963 3756 2222 3756 
L 1791 3756 
z
M 588 4666 
L 1856 4666 
Q 2919 4666 3439 4514 
Q 3959 4363 4331 4000 
Q 4659 3684 4818 3271 
Q 4978 2859 4978 2338 
Q 4978 1809 4818 1395 
Q 4659 981 4331 666 
Q 3956 303 3431 151 
Q 2906 0 1856 0 
L 588 0 
L 588 4666 
z
" transform="scale(0.015625)"/>
      <path id="DejaVuSans-Bold-70" d="M 1656 506 
L 1656 -1331 
L 538 -1331 
L 538 3500 
L 1656 3500 
L 1656 2988 
Q 1888 3294 2169 3439 
Q 2450 3584 2816 3584 
Q 3463 3584 3878 3070 
Q 4294 2556 4294 1747 
Q 4294 938 3878 423 
Q 3463 -91 2816 -91 
Q 2450 -91 2169 54 
Q 1888 200 1656 506 
z
M 2400 2772 
Q 2041 2772 1848 2508 
Q 1656 2244 1656 1747 
Q 1656 1250 1848 986 
Q 2041 722 2400 722 
Q 2759 722 2948 984 
Q 3138 1247 3138 1747 
Q 3138 2247 2948 2509 
Q 2759 2772 2400 2772 
z
" transform="scale(0.015625)"/>
      <path id="DejaVuSans-Bold-68" d="M 4056 2131 
L 4056 0 
L 2931 0 
L 2931 347 
L 2931 1625 
Q 2931 2084 2911 2256 
Q 2891 2428 2841 2509 
Q 2775 2619 2662 2680 
Q 2550 2741 2406 2741 
Q 2056 2741 1856 2470 
Q 1656 2200 1656 1722 
L 1656 0 
L 538 0 
L 538 4863 
L 1656 4863 
L 1656 2988 
Q 1909 3294 2193 3439 
Q 2478 3584 2822 3584 
Q 3428 3584 3742 3212 
Q 4056 2841 4056 2131 
z
" transform="scale(0.015625)"/>
     </defs>
     <use xlink:href="#DejaVuSans-Bold-4d"/>
     <use xlink:href="#DejaVuSans-Bold-65" transform="translate(99.511719 0)"/>
     <use xlink:href="#DejaVuSans-Bold-61" transform="translate(167.333984 0)"/>
     <use xlink:href="#DejaVuSans-Bold-6e" transform="translate(234.814453 0)"/>
     <use xlink:href="#DejaVuSans-Bold-20" transform="translate(306.005859 0)"/>
     <use xlink:href="#DejaVuSans-Bold-4c" transform="translate(340.820312 0)"/>
     <use xlink:href="#DejaVuSans-Bold-61" transform="translate(404.541016 0)"/>
     <use xlink:href="#DejaVuSans-Bold-74" transform="translate(472.021484 0)"/>
     <use xlink:href="#DejaVuSans-Bold-65" transform="translate(519.824219 0)"/>
     <use xlink:href="#DejaVuSans-Bold-6e" transform="translate(587.646484 0)"/>
     <use xlink:href="#DejaVuSans-Bold-63" transform="translate(658.837891 0)"/>
     <use xlink:href="#DejaVuSans-Bold-79" transform="translate(718.115234 0)"/>
     <use xlink:href="#DejaVuSans-Bold-20" transform="translate(783.300781 0)"/>
     <use xlink:href="#DejaVuSans-Bold-76" transform="translate(818.115234 0)"/>
     <use xlink:href="#DejaVuSans-Bold-73" transform="translate(883.300781 0)"/>
     <use xlink:href="#DejaVuSans-Bold-20" transform="translate(942.822266 0)"/>
     <use xlink:href="#DejaVuSans-Bold-49" transform="translate(977.636719 0)"/>
     <use xlink:href="#DejaVuSans-Bold-4f" transform="translate(1014.84375 0)"/>
     <use xlink:href="#DejaVuSans-Bold-20" transform="translate(1099.853516 0)"/>
     <use xlink:href="#DejaVuSans-Bold-44" transform="translate(1134.667969 0)"/>
     <use xlink:href="#DejaVuSans-Bold-65" transform="translate(1217.675781 0)"/>
     <use xlink:href="#DejaVuSans-Bold-70" transform="translate(1285.498047 0)"/>
     <use xlink:href="#DejaVuSans-Bold-74" transform="translate(1357.080078 0)"/>
     <use xlink:href="#DejaVuSans-Bold-68" transform="translate(1404.882812 0)"/>
    </g>
   </g>
   <g id="legend_1">
    <g id="text_26">
     <!-- Number of Jobs -->
     <g style="fill: #262626" transform="translate(404.3875 142.08285) scale(0.1 -0.1)">
      <defs>
       <path id="DejaVuSans-4e" d="M 628 4666 
L 1478 4666 
L 3547 763 
L 3547 4666 
L 4159 4666 
L 4159 0 
L 3309 0 
L 1241 3903 
L 1241 0 
L 628 0 
L 628 4666 
z
" transform="scale(0.015625)"/>
       <path id="DejaVuSans-75" d="M 544 1381 
L 544 3500 
L 1119 3500 
L 1119 1403 
Q 1119 906 1312 657 
Q 1506 409 1894 409 
Q 2359 409 2629 706 
Q 2900 1003 2900 1516 
L 2900 3500 
L 3475 3500 
L 3475 0 
L 2900 0 
L 2900 538 
Q 2691 219 2414 64 
Q 2138 -91 1772 -91 
Q 1169 -91 856 284 
Q 544 659 544 1381 
z
M 1991 3584 
L 1991 3584 
z
" transform="scale(0.015625)"/>
       <path id="DejaVuSans-62" d="M 3116 1747 
Q 3116 2381 2855 2742 
Q 2594 3103 2138 3103 
Q 1681 3103 1420 2742 
Q 1159 2381 1159 1747 
Q 1159 1113 1420 752 
Q 1681 391 2138 391 
Q 2594 391 2855 752 
Q 3116 1113 3116 1747 
z
M 1159 2969 
Q 1341 3281 1617 3432 
Q 1894 3584 2278 3584 
Q 2916 3584 3314 3078 
Q 3713 2572 3713 1747 
Q 3713 922 3314 415 
Q 2916 -91 2278 -91 
Q 1894 -91 1617 61 
Q 1341 213 1159 525 
L 1159 0 
L 581 0 
L 581 4863 
L 1159 4863 
L 1159 2969 
z
" transform="scale(0.015625)"/>
       <path id="DejaVuSans-66" d="M 2375 4863 
L 2375 4384 
L 1825 4384 
Q 1516 4384 1395 4259 
Q 1275 4134 1275 3809 
L 1275 3500 
L 2222 3500 
L 2222 3053 
L 1275 3053 
L 1275 0 
L 697 0 
L 697 3053 
L 147 3053 
L 147 3500 
L 697 3500 
L 697 3744 
Q 697 4328 969 4595 
Q 1241 4863 1831 4863 
L 2375 4863 
z
" transform="scale(0.015625)"/>
       <path id="DejaVuSans-4a" d="M 628 4666 
L 1259 4666 
L 1259 325 
Q 1259 -519 939 -900 
Q 619 -1281 -91 -1281 
L -331 -1281 
L -331 -750 
L -134 -750 
Q 284 -750 456 -515 
Q 628 -281 628 325 
L 628 4666 
z
" transform="scale(0.015625)"/>
      </defs>
      <use xlink:href="#DejaVuSans-4e"/>
      <use xlink:href="#DejaVuSans-75" transform="translate(74.804688 0)"/>
      <use xlink:href="#DejaVuSans-6d" transform="translate(138.183594 0)"/>
      <use xlink:href="#DejaVuSans-62" transform="translate(235.595703 0)"/>
      <use xlink:href="#DejaVuSans-65" transform="translate(299.072266 0)"/>
      <use xlink:href="#DejaVuSans-72" transform="translate(360.595703 0)"/>
      <use xlink:href="#DejaVuSans-20" transform="translate(401.708984 0)"/>
      <use xlink:href="#DejaVuSans-6f" transform="translate(433.496094 0)"/>
      <use xlink:href="#DejaVuSans-66" transform="translate(494.677734 0)"/>
      <use xlink:href="#DejaVuSans-20" transform="translate(529.882812 0)"/>
      <use xlink:href="#DejaVuSans-4a" transform="translate(561.669922 0)"/>
      <use xlink:href="#DejaVuSans-6f" transform="translate(591.162109 0)"/>
      <use xlink:href="#DejaVuSans-62" transform="translate(652.34375 0)"/>
      <use xlink:href="#DejaVuSans-73" transform="translate(715.820312 0)"/>
     </g>
    </g>
    <g id="line2d_25">
     <path d="M 419.240625 153.260975 
L 429.240625 153.260975 
L 439.240625 153.260975 
" style="fill: none; stroke: #3b0f70; stroke-width: 1.5; stroke-linecap: round"/>
    </g>
    <g id="text_27">
     <!-- 16 -->
     <g style="fill: #262626" transform="translate(447.240625 156.760975) scale(0.1 -0.1)">
      <use xlink:href="#DejaVuSans-31"/>
      <use xlink:href="#DejaVuSans-36" transform="translate(63.623047 0)"/>
     </g>
    </g>
    <g id="line2d_26">
     <path d="M 419.240625 167.9391 
L 429.240625 167.9391 
L 439.240625 167.9391 
" style="fill: none; stroke: #8c2981; stroke-width: 1.5; stroke-linecap: round"/>
    </g>
    <g id="text_28">
     <!-- 32 -->
     <g style="fill: #262626" transform="translate(447.240625 171.4391) scale(0.1 -0.1)">
      <use xlink:href="#DejaVuSans-33"/>
      <use xlink:href="#DejaVuSans-32" transform="translate(63.623047 0)"/>
     </g>
    </g>
    <g id="line2d_27">
     <path d="M 419.240625 182.617225 
L 429.240625 182.617225 
L 439.240625 182.617225 
" style="fill: none; stroke: #de4968; stroke-width: 1.5; stroke-linecap: round"/>
    </g>
    <g id="text_29">
     <!-- 64 -->
     <g style="fill: #262626" transform="translate(447.240625 186.117225) scale(0.1 -0.1)">
      <use xlink:href="#DejaVuSans-36"/>
      <use xlink:href="#DejaVuSans-34" transform="translate(63.623047 0)"/>
     </g>
    </g>
    <g id="line2d_28">
     <path d="M 419.240625 197.29535 
L 429.240625 197.29535 
L 439.240625 197.29535 
" style="fill: none; stroke: #fe9f6d; stroke-width: 1.5; stroke-linecap: round"/>
    </g>
    <g id="text_30">
     <!-- 128 -->
     <g style="fill: #262626" transform="translate(447.240625 200.79535) scale(0.1 -0.1)">
      <use xlink:href="#DejaVuSans-31"/>
      <use xlink:href="#DejaVuSans-32" transform="translate(63.623047 0)"/>
      <use xlink:href="#DejaVuSans-38" transform="translate(127.246094 0)"/>
     </g>
    </g>
   </g>
  </g>
 </g>
 <defs>
  <clipPath id="p82c791ac67">
   <rect x="43.78125" y="35.623725" width="357.12" height="266.112"/>
  </clipPath>
 </defs>
</svg>
