<?xml version="1.0" encoding="utf-8" standalone="no"?>
<!DOCTYPE svg PUBLIC "-//W3C//DTD SVG 1.1//EN"
  "http://www.w3.org/Graphics/SVG/1.1/DTD/svg11.dtd">
<svg xmlns:xlink="http://www.w3.org/1999/xlink" width="482.840625pt" height="339.291975pt" viewBox="0 0 482.840625 339.291975" xmlns="http://www.w3.org/2000/svg" version="1.1">
 <metadata>
  <rdf:RDF xmlns:dc="http://purl.org/dc/elements/1.1/" xmlns:cc="http://creativecommons.org/ns#" xmlns:rdf="http://www.w3.org/1999/02/22-rdf-syntax-ns#">
   <cc:Work>
    <dc:type rdf:resource="http://purl.org/dc/dcmitype/StillImage"/>
    <dc:date>2025-10-03T11:14:39.512762</dc:date>
    <dc:format>image/svg+xml</dc:format>
    <dc:creator>
     <cc:Agent>
      <dc:title>Matplotlib v3.10.6, https://matplotlib.org/</dc:title>
     </cc:Agent>
    </dc:creator>
   </cc:Work>
  </rdf:RDF>
 </metadata>
 <defs>
  <style type="text/css">*{stroke-linejoin: round; stroke-linecap: butt}</style>
 </defs>
 <g id="figure_1">
  <g id="patch_1">
   <path d="M 0 339.291975 
L 482.840625 339.291975 
L 482.840625 0 
L 0 0 
z
" style="fill: #ffffff"/>
  </g>
  <g id="axes_1">
   <g id="patch_2">
    <path d="M 34.240625 301.735725 
L 391.360625 301.735725 
L 391.360625 35.623725 
L 34.240625 35.623725 
z
" style="fill: #ffffff"/>
   </g>
   <g id="matplotlib.axis_1">
    <g id="xtick_1">
     <g id="line2d_1">
      <path d="M 375.127898 301.735725 
L 375.127898 35.623725 
" clip-path="url(#p555399f5f5)" style="fill: none; stroke: #cccccc; stroke-width: 0.8; stroke-linecap: round"/>
     </g>
     <g id="text_1">
      <!-- 128 -->
      <g style="fill: #262626" transform="translate(365.584148 316.334162) scale(0.1 -0.1)">
       <defs>
        <path id="DejaVuSans-31" d="M 794 531 
L 1825 531 
L 1825 4091 
L 703 3866 
L 703 4441 
L 1819 4666 
L 2450 4666 
L 2450 531 
L 3481 531 
L 3481 0 
L 794 0 
L 794 531 
z
" transform="scale(0.015625)"/>
        <path id="DejaVuSans-32" d="M 1228 531 
L 3431 531 
L 3431 0 
L 469 0 
L 469 531 
Q 828 903 1448 1529 
Q 2069 2156 2228 2338 
Q 2531 2678 2651 2914 
Q 2772 3150 2772 3378 
Q 2772 3750 2511 3984 
Q 2250 4219 1831 4219 
Q 1534 4219 1204 4116 
Q 875 4013 500 3803 
L 500 4441 
Q 881 4594 1212 4672 
Q 1544 4750 1819 4750 
Q 2544 4750 2975 4387 
Q 3406 4025 3406 3419 
Q 3406 3131 3298 2873 
Q 3191 2616 2906 2266 
Q 2828 2175 2409 1742 
Q 1991 1309 1228 531 
z
" transform="scale(0.015625)"/>
        <path id="DejaVuSans-38" d="M 2034 2216 
Q 1584 2216 1326 1975 
Q 1069 1734 1069 1313 
Q 1069 891 1326 650 
Q 1584 409 2034 409 
Q 2484 409 2743 651 
Q 3003 894 3003 1313 
Q 3003 1734 2745 1975 
Q 2488 2216 2034 2216 
z
M 1403 2484 
Q 997 2584 770 2862 
Q 544 3141 544 3541 
Q 544 4100 942 4425 
Q 1341 4750 2034 4750 
Q 2731 4750 3128 4425 
Q 3525 4100 3525 3541 
Q 3525 3141 3298 2862 
Q 3072 2584 2669 2484 
Q 3125 2378 3379 2068 
Q 3634 1759 3634 1313 
Q 3634 634 3220 271 
Q 2806 -91 2034 -91 
Q 1263 -91 848 271 
Q 434 634 434 1313 
Q 434 1759 690 2068 
Q 947 2378 1403 2484 
z
M 1172 3481 
Q 1172 3119 1398 2916 
Q 1625 2713 2034 2713 
Q 2441 2713 2670 2916 
Q 2900 3119 2900 3481 
Q 2900 3844 2670 4047 
Q 2441 4250 2034 4250 
Q 1625 4250 1398 4047 
Q 1172 3844 1172 3481 
z
" transform="scale(0.015625)"/>
       </defs>
       <use xlink:href="#DejaVuSans-31"/>
       <use xlink:href="#DejaVuSans-32" transform="translate(63.623047 0)"/>
       <use xlink:href="#DejaVuSans-38" transform="translate(127.246094 0)"/>
      </g>
     </g>
    </g>
    <g id="xtick_2">
     <g id="line2d_2">
      <path d="M 58.142357 301.735725 
L 58.142357 35.623725 
" clip-path="url(#p555399f5f5)" style="fill: none; stroke: #cccccc; stroke-width: 0.8; stroke-linecap: round"/>
     </g>
     <g id="text_2">
      <!-- 4 -->
      <g style="fill: #262626" transform="translate(54.961107 316.334162) scale(0.1 -0.1)">
       <defs>
        <path id="DejaVuSans-34" d="M 2419 4116 
L 825 1625 
L 2419 1625 
L 2419 4116 
z
M 2253 4666 
L 3047 4666 
L 3047 1625 
L 3713 1625 
L 3713 1100 
L 3047 1100 
L 3047 0 
L 2419 0 
L 2419 1100 
L 313 1100 
L 313 1709 
L 2253 4666 
z
" transform="scale(0.015625)"/>
       </defs>
       <use xlink:href="#DejaVuSans-34"/>
      </g>
     </g>
    </g>
    <g id="xtick_3">
     <g id="line2d_3">
      <path d="M 68.367697 301.735725 
L 68.367697 35.623725 
" clip-path="url(#p555399f5f5)" style="fill: none; stroke: #cccccc; stroke-width: 0.8; stroke-linecap: round"/>
     </g>
     <g id="text_3">
      <!-- 8 -->
      <g style="fill: #262626" transform="translate(65.186447 316.334162) scale(0.1 -0.1)">
       <use xlink:href="#DejaVuSans-38"/>
      </g>
     </g>
    </g>
    <g id="xtick_4">
     <g id="line2d_4">
      <path d="M 129.719737 301.735725 
L 129.719737 35.623725 
" clip-path="url(#p555399f5f5)" style="fill: none; stroke: #cccccc; stroke-width: 0.8; stroke-linecap: round"/>
     </g>
     <g id="text_4">
      <!-- 32 -->
      <g style="fill: #262626" transform="translate(123.357237 316.334162) scale(0.1 -0.1)">
       <defs>
        <path id="DejaVuSans-33" d="M 2597 2516 
Q 3050 2419 3304 2112 
Q 3559 1806 3559 1356 
Q 3559 666 3084 287 
Q 2609 -91 1734 -91 
Q 1441 -91 1130 -33 
Q 819 25 488 141 
L 488 750 
Q 750 597 1062 519 
Q 1375 441 1716 441 
Q 2309 441 2620 675 
Q 2931 909 2931 1356 
Q 2931 1769 2642 2001 
Q 2353 2234 1838 2234 
L 1294 2234 
L 1294 2753 
L 1863 2753 
Q 2328 2753 2575 2939 
Q 2822 3125 2822 3475 
Q 2822 3834 2567 4026 
Q 2313 4219 1838 4219 
Q 1578 4219 1281 4162 
Q 984 4106 628 3988 
L 628 4550 
Q 988 4650 1302 4700 
Q 1616 4750 1894 4750 
Q 2613 4750 3031 4423 
Q 3450 4097 3450 3541 
Q 3450 3153 3228 2886 
Q 3006 2619 2597 2516 
z
" transform="scale(0.015625)"/>
       </defs>
       <use xlink:href="#DejaVuSans-33"/>
       <use xlink:href="#DejaVuSans-32" transform="translate(63.623047 0)"/>
      </g>
     </g>
    </g>
    <g id="xtick_5">
     <g id="line2d_5">
      <path d="M 88.818377 301.735725 
L 88.818377 35.623725 
" clip-path="url(#p555399f5f5)" style="fill: none; stroke: #cccccc; stroke-width: 0.8; stroke-linecap: round"/>
     </g>
     <g id="text_5">
      <!-- 16 -->
      <g style="fill: #262626" transform="translate(82.455877 316.334162) scale(0.1 -0.1)">
       <defs>
        <path id="DejaVuSans-36" d="M 2113 2584 
Q 1688 2584 1439 2293 
Q 1191 2003 1191 1497 
Q 1191 994 1439 701 
Q 1688 409 2113 409 
Q 2538 409 2786 701 
Q 3034 994 3034 1497 
Q 3034 2003 2786 2293 
Q 2538 2584 2113 2584 
z
M 3366 4563 
L 3366 3988 
Q 3128 4100 2886 4159 
Q 2644 4219 2406 4219 
Q 1781 4219 1451 3797 
Q 1122 3375 1075 2522 
Q 1259 2794 1537 2939 
Q 1816 3084 2150 3084 
Q 2853 3084 3261 2657 
Q 3669 2231 3669 1497 
Q 3669 778 3244 343 
Q 2819 -91 2113 -91 
Q 1303 -91 875 529 
Q 447 1150 447 2328 
Q 447 3434 972 4092 
Q 1497 4750 2381 4750 
Q 2619 4750 2861 4703 
Q 3103 4656 3366 4563 
z
" transform="scale(0.015625)"/>
       </defs>
       <use xlink:href="#DejaVuSans-31"/>
       <use xlink:href="#DejaVuSans-36" transform="translate(63.623047 0)"/>
      </g>
     </g>
    </g>
    <g id="xtick_6">
     <g id="line2d_6">
      <path d="M 50.473352 301.735725 
L 50.473352 35.623725 
" clip-path="url(#p555399f5f5)" style="fill: none; stroke: #cccccc; stroke-width: 0.8; stroke-linecap: round"/>
     </g>
     <g id="text_6">
      <!-- 1 -->
      <g style="fill: #262626" transform="translate(47.292102 316.334162) scale(0.1 -0.1)">
       <use xlink:href="#DejaVuSans-31"/>
      </g>
     </g>
    </g>
    <g id="xtick_7">
     <g id="line2d_7">
      <path d="M 211.522457 301.735725 
L 211.522457 35.623725 
" clip-path="url(#p555399f5f5)" style="fill: none; stroke: #cccccc; stroke-width: 0.8; stroke-linecap: round"/>
     </g>
     <g id="text_7">
      <!-- 64 -->
      <g style="fill: #262626" transform="translate(205.159957 316.334162) scale(0.1 -0.1)">
       <use xlink:href="#DejaVuSans-36"/>
       <use xlink:href="#DejaVuSans-34" transform="translate(63.623047 0)"/>
      </g>
     </g>
    </g>
    <g id="text_8">
     <!-- IO Depth -->
     <g style="fill: #262626" transform="translate(190.570938 330.012287) scale(0.1 -0.1)">
      <defs>
       <path id="DejaVuSans-49" d="M 628 4666 
L 1259 4666 
L 1259 0 
L 628 0 
L 628 4666 
z
" transform="scale(0.015625)"/>
       <path id="DejaVuSans-4f" d="M 2522 4238 
Q 1834 4238 1429 3725 
Q 1025 3213 1025 2328 
Q 1025 1447 1429 934 
Q 1834 422 2522 422 
Q 3209 422 3611 934 
Q 4013 1447 4013 2328 
Q 4013 3213 3611 3725 
Q 3209 4238 2522 4238 
z
M 2522 4750 
Q 3503 4750 4090 4092 
Q 4678 3434 4678 2328 
Q 4678 1225 4090 567 
Q 3503 -91 2522 -91 
Q 1538 -91 948 565 
Q 359 1222 359 2328 
Q 359 3434 948 4092 
Q 1538 4750 2522 4750 
z
" transform="scale(0.015625)"/>
       <path id="DejaVuSans-20" transform="scale(0.015625)"/>
       <path id="DejaVuSans-44" d="M 1259 4147 
L 1259 519 
L 2022 519 
Q 2988 519 3436 956 
Q 3884 1394 3884 2338 
Q 3884 3275 3436 3711 
Q 2988 4147 2022 4147 
L 1259 4147 
z
M 628 4666 
L 1925 4666 
Q 3281 4666 3915 4102 
Q 4550 3538 4550 2338 
Q 4550 1131 3912 565 
Q 3275 0 1925 0 
L 628 0 
L 628 4666 
z
" transform="scale(0.015625)"/>
       <path id="DejaVuSans-65" d="M 3597 1894 
L 3597 1613 
L 953 1613 
Q 991 1019 1311 708 
Q 1631 397 2203 397 
Q 2534 397 2845 478 
Q 3156 559 3463 722 
L 3463 178 
Q 3153 47 2828 -22 
Q 2503 -91 2169 -91 
Q 1331 -91 842 396 
Q 353 884 353 1716 
Q 353 2575 817 3079 
Q 1281 3584 2069 3584 
Q 2775 3584 3186 3129 
Q 3597 2675 3597 1894 
z
M 3022 2063 
Q 3016 2534 2758 2815 
Q 2500 3097 2075 3097 
Q 1594 3097 1305 2825 
Q 1016 2553 972 2059 
L 3022 2063 
z
" transform="scale(0.015625)"/>
       <path id="DejaVuSans-70" d="M 1159 525 
L 1159 -1331 
L 581 -1331 
L 581 3500 
L 1159 3500 
L 1159 2969 
Q 1341 3281 1617 3432 
Q 1894 3584 2278 3584 
Q 2916 3584 3314 3078 
Q 3713 2572 3713 1747 
Q 3713 922 3314 415 
Q 2916 -91 2278 -91 
Q 1894 -91 1617 61 
Q 1341 213 1159 525 
z
M 3116 1747 
Q 3116 2381 2855 2742 
Q 2594 3103 2138 3103 
Q 1681 3103 1420 2742 
Q 1159 2381 1159 1747 
Q 1159 1113 1420 752 
Q 1681 391 2138 391 
Q 2594 391 2855 752 
Q 3116 1113 3116 1747 
z
" transform="scale(0.015625)"/>
       <path id="DejaVuSans-74" d="M 1172 4494 
L 1172 3500 
L 2356 3500 
L 2356 3053 
L 1172 3053 
L 1172 1153 
Q 1172 725 1289 603 
Q 1406 481 1766 481 
L 2356 481 
L 2356 0 
L 1766 0 
Q 1100 0 847 248 
Q 594 497 594 1153 
L 594 3053 
L 172 3053 
L 172 3500 
L 594 3500 
L 594 4494 
L 1172 4494 
z
" transform="scale(0.015625)"/>
       <path id="DejaVuSans-68" d="M 3513 2113 
L 3513 0 
L 2938 0 
L 2938 2094 
Q 2938 2591 2744 2837 
Q 2550 3084 2163 3084 
Q 1697 3084 1428 2787 
Q 1159 2491 1159 1978 
L 1159 0 
L 581 0 
L 581 4863 
L 1159 4863 
L 1159 2956 
Q 1366 3272 1645 3428 
Q 1925 3584 2291 3584 
Q 2894 3584 3203 3211 
Q 3513 2838 3513 2113 
z
" transform="scale(0.015625)"/>
      </defs>
      <use xlink:href="#DejaVuSans-49"/>
      <use xlink:href="#DejaVuSans-4f" transform="translate(29.492188 0)"/>
      <use xlink:href="#DejaVuSans-20" transform="translate(108.203125 0)"/>
      <use xlink:href="#DejaVuSans-44" transform="translate(139.990234 0)"/>
      <use xlink:href="#DejaVuSans-65" transform="translate(216.992188 0)"/>
      <use xlink:href="#DejaVuSans-70" transform="translate(278.515625 0)"/>
      <use xlink:href="#DejaVuSans-74" transform="translate(341.992188 0)"/>
      <use xlink:href="#DejaVuSans-68" transform="translate(381.201172 0)"/>
     </g>
    </g>
   </g>
   <g id="matplotlib.axis_2">
    <g id="ytick_1">
     <g id="line2d_8">
      <path d="M 34.240625 250.373775 
L 391.360625 250.373775 
" clip-path="url(#p555399f5f5)" style="fill: none; stroke: #cccccc; stroke-width: 0.8; stroke-linecap: round"/>
     </g>
     <g id="text_9">
      <!-- 1 -->
      <g style="fill: #262626" transform="translate(20.878125 254.172993) scale(0.1 -0.1)">
       <use xlink:href="#DejaVuSans-31"/>
      </g>
     </g>
    </g>
    <g id="ytick_2">
     <g id="line2d_9">
      <path d="M 34.240625 194.920404 
L 391.360625 194.920404 
" clip-path="url(#p555399f5f5)" style="fill: none; stroke: #cccccc; stroke-width: 0.8; stroke-linecap: round"/>
     </g>
     <g id="text_10">
      <!-- 2 -->
      <g style="fill: #262626" transform="translate(20.878125 198.719623) scale(0.1 -0.1)">
       <use xlink:href="#DejaVuSans-32"/>
      </g>
     </g>
    </g>
    <g id="ytick_3">
     <g id="line2d_10">
      <path d="M 34.240625 139.467034 
L 391.360625 139.467034 
" clip-path="url(#p555399f5f5)" style="fill: none; stroke: #cccccc; stroke-width: 0.8; stroke-linecap: round"/>
     </g>
     <g id="text_11">
      <!-- 3 -->
      <g style="fill: #262626" transform="translate(20.878125 143.266253) scale(0.1 -0.1)">
       <use xlink:href="#DejaVuSans-33"/>
      </g>
     </g>
    </g>
    <g id="ytick_4">
     <g id="line2d_11">
      <path d="M 34.240625 84.013663 
L 391.360625 84.013663 
" clip-path="url(#p555399f5f5)" style="fill: none; stroke: #cccccc; stroke-width: 0.8; stroke-linecap: round"/>
     </g>
     <g id="text_12">
      <!-- 4 -->
      <g style="fill: #262626" transform="translate(20.878125 87.812882) scale(0.1 -0.1)">
       <use xlink:href="#DejaVuSans-34"/>
      </g>
     </g>
    </g>
    <g id="text_13">
     <!-- Mean Latency (ns) -->
     <g style="fill: #262626" transform="translate(14.798438 214.92035) rotate(-90) scale(0.1 -0.1)">
      <defs>
       <path id="DejaVuSans-4d" d="M 628 4666 
L 1569 4666 
L 2759 1491 
L 3956 4666 
L 4897 4666 
L 4897 0 
L 4281 0 
L 4281 4097 
L 3078 897 
L 2444 897 
L 1241 4097 
L 1241 0 
L 628 0 
L 628 4666 
z
" transform="scale(0.015625)"/>
       <path id="DejaVuSans-61" d="M 2194 1759 
Q 1497 1759 1228 1600 
Q 959 1441 959 1056 
Q 959 750 1161 570 
Q 1363 391 1709 391 
Q 2188 391 2477 730 
Q 2766 1069 2766 1631 
L 2766 1759 
L 2194 1759 
z
M 3341 1997 
L 3341 0 
L 2766 0 
L 2766 531 
Q 2569 213 2275 61 
Q 1981 -91 1556 -91 
Q 1019 -91 701 211 
Q 384 513 384 1019 
Q 384 1609 779 1909 
Q 1175 2209 1959 2209 
L 2766 2209 
L 2766 2266 
Q 2766 2663 2505 2880 
Q 2244 3097 1772 3097 
Q 1472 3097 1187 3025 
Q 903 2953 641 2809 
L 641 3341 
Q 956 3463 1253 3523 
Q 1550 3584 1831 3584 
Q 2591 3584 2966 3190 
Q 3341 2797 3341 1997 
z
" transform="scale(0.015625)"/>
       <path id="DejaVuSans-6e" d="M 3513 2113 
L 3513 0 
L 2938 0 
L 2938 2094 
Q 2938 2591 2744 2837 
Q 2550 3084 2163 3084 
Q 1697 3084 1428 2787 
Q 1159 2491 1159 1978 
L 1159 0 
L 581 0 
L 581 3500 
L 1159 3500 
L 1159 2956 
Q 1366 3272 1645 3428 
Q 1925 3584 2291 3584 
Q 2894 3584 3203 3211 
Q 3513 2838 3513 2113 
z
" transform="scale(0.015625)"/>
       <path id="DejaVuSans-4c" d="M 628 4666 
L 1259 4666 
L 1259 531 
L 3531 531 
L 3531 0 
L 628 0 
L 628 4666 
z
" transform="scale(0.015625)"/>
       <path id="DejaVuSans-63" d="M 3122 3366 
L 3122 2828 
Q 2878 2963 2633 3030 
Q 2388 3097 2138 3097 
Q 1578 3097 1268 2742 
Q 959 2388 959 1747 
Q 959 1106 1268 751 
Q 1578 397 2138 397 
Q 2388 397 2633 464 
Q 2878 531 3122 666 
L 3122 134 
Q 2881 22 2623 -34 
Q 2366 -91 2075 -91 
Q 1284 -91 818 406 
Q 353 903 353 1747 
Q 353 2603 823 3093 
Q 1294 3584 2113 3584 
Q 2378 3584 2631 3529 
Q 2884 3475 3122 3366 
z
" transform="scale(0.015625)"/>
       <path id="DejaVuSans-79" d="M 2059 -325 
Q 1816 -950 1584 -1140 
Q 1353 -1331 966 -1331 
L 506 -1331 
L 506 -850 
L 844 -850 
Q 1081 -850 1212 -737 
Q 1344 -625 1503 -206 
L 1606 56 
L 191 3500 
L 800 3500 
L 1894 763 
L 2988 3500 
L 3597 3500 
L 2059 -325 
z
" transform="scale(0.015625)"/>
       <path id="DejaVuSans-28" d="M 1984 4856 
Q 1566 4138 1362 3434 
Q 1159 2731 1159 2009 
Q 1159 1288 1364 580 
Q 1569 -128 1984 -844 
L 1484 -844 
Q 1016 -109 783 600 
Q 550 1309 550 2009 
Q 550 2706 781 3412 
Q 1013 4119 1484 4856 
L 1984 4856 
z
" transform="scale(0.015625)"/>
       <path id="DejaVuSans-73" d="M 2834 3397 
L 2834 2853 
Q 2591 2978 2328 3040 
Q 2066 3103 1784 3103 
Q 1356 3103 1142 2972 
Q 928 2841 928 2578 
Q 928 2378 1081 2264 
Q 1234 2150 1697 2047 
L 1894 2003 
Q 2506 1872 2764 1633 
Q 3022 1394 3022 966 
Q 3022 478 2636 193 
Q 2250 -91 1575 -91 
Q 1294 -91 989 -36 
Q 684 19 347 128 
L 347 722 
Q 666 556 975 473 
Q 1284 391 1588 391 
Q 1994 391 2212 530 
Q 2431 669 2431 922 
Q 2431 1156 2273 1281 
Q 2116 1406 1581 1522 
L 1381 1569 
Q 847 1681 609 1914 
Q 372 2147 372 2553 
Q 372 3047 722 3315 
Q 1072 3584 1716 3584 
Q 2034 3584 2315 3537 
Q 2597 3491 2834 3397 
z
" transform="scale(0.015625)"/>
       <path id="DejaVuSans-29" d="M 513 4856 
L 1013 4856 
Q 1481 4119 1714 3412 
Q 1947 2706 1947 2009 
Q 1947 1309 1714 600 
Q 1481 -109 1013 -844 
L 513 -844 
Q 928 -128 1133 580 
Q 1338 1288 1338 2009 
Q 1338 2731 1133 3434 
Q 928 4138 513 4856 
z
" transform="scale(0.015625)"/>
      </defs>
      <use xlink:href="#DejaVuSans-4d"/>
      <use xlink:href="#DejaVuSans-65" transform="translate(86.279297 0)"/>
      <use xlink:href="#DejaVuSans-61" transform="translate(147.802734 0)"/>
      <use xlink:href="#DejaVuSans-6e" transform="translate(209.082031 0)"/>
      <use xlink:href="#DejaVuSans-20" transform="translate(272.460938 0)"/>
      <use xlink:href="#DejaVuSans-4c" transform="translate(304.248047 0)"/>
      <use xlink:href="#DejaVuSans-61" transform="translate(359.960938 0)"/>
      <use xlink:href="#DejaVuSans-74" transform="translate(421.240234 0)"/>
      <use xlink:href="#DejaVuSans-65" transform="translate(460.449219 0)"/>
      <use xlink:href="#DejaVuSans-6e" transform="translate(521.972656 0)"/>
      <use xlink:href="#DejaVuSans-63" transform="translate(585.351562 0)"/>
      <use xlink:href="#DejaVuSans-79" transform="translate(640.332031 0)"/>
      <use xlink:href="#DejaVuSans-20" transform="translate(699.511719 0)"/>
      <use xlink:href="#DejaVuSans-28" transform="translate(731.298828 0)"/>
      <use xlink:href="#DejaVuSans-6e" transform="translate(770.3125 0)"/>
      <use xlink:href="#DejaVuSans-73" transform="translate(833.691406 0)"/>
      <use xlink:href="#DejaVuSans-29" transform="translate(885.791016 0)"/>
     </g>
    </g>
    <g id="text_14">
     <!-- 1e7 -->
     <g style="fill: #262626" transform="translate(34.240625 32.623725) scale(0.1 -0.1)">
      <defs>
       <path id="DejaVuSans-37" d="M 525 4666 
L 3525 4666 
L 3525 4397 
L 1831 0 
L 1172 0 
L 2766 4134 
L 525 4134 
L 525 4666 
z
" transform="scale(0.015625)"/>
      </defs>
      <use xlink:href="#DejaVuSans-31"/>
      <use xlink:href="#DejaVuSans-65" transform="translate(63.623047 0)"/>
      <use xlink:href="#DejaVuSans-37" transform="translate(125.146484 0)"/>
     </g>
    </g>
   </g>
   <g id="FillBetweenPolyCollection_1"/>
   <g id="FillBetweenPolyCollection_2"/>
   <g id="FillBetweenPolyCollection_3"/>
   <g id="FillBetweenPolyCollection_4"/>
   <g id="line2d_12">
    <path d="M 50.473352 285.938765 
L 58.142357 289.639725 
L 68.367697 286.856834 
L 88.818377 286.448802 
L 129.719737 289.488744 
L 211.522457 285.006077 
L 375.127898 287.070088 
" clip-path="url(#p555399f5f5)" style="fill: none; stroke: #3b0f70; stroke-width: 1.5; stroke-linecap: round"/>
   </g>
   <g id="line2d_13">
    <path d="M 50.473352 262.175193 
L 58.142357 272.262568 
L 68.367697 257.483095 
L 88.818377 265.666113 
L 129.719737 264.237931 
L 211.522457 268.809648 
L 375.127898 254.286095 
" clip-path="url(#p555399f5f5)" style="fill: none; stroke: #8c2981; stroke-width: 1.5; stroke-linecap: round"/>
   </g>
   <g id="line2d_14">
    <path d="M 50.473352 182.141655 
L 58.142357 208.626352 
L 68.367697 193.95961 
L 88.818377 185.635072 
L 129.719737 193.241982 
L 211.522457 189.661819 
L 375.127898 187.604017 
" clip-path="url(#p555399f5f5)" style="fill: none; stroke: #de4968; stroke-width: 1.5; stroke-linecap: round"/>
   </g>
   <g id="line2d_15">
    <path d="M 50.473352 71.192085 
L 58.142357 120.949127 
L 68.367697 47.719725 
L 88.818377 74.528228 
L 129.719737 124.5376 
L 211.522457 106.232001 
L 375.127898 87.465524 
" clip-path="url(#p555399f5f5)" style="fill: none; stroke: #fe9f6d; stroke-width: 1.5; stroke-linecap: round"/>
   </g>
   <g id="line2d_16"/>
   <g id="line2d_17"/>
   <g id="line2d_18"/>
   <g id="line2d_19"/>
   <g id="text_15">
    <path d="M 111.127411 290.041903 
L 112.733918 290.161305 
L 113.146206 284.614105 
L 111.371846 284.83476 
L 111.438437 283.938794 
L 113.203449 283.717444 
L 114.186674 283.790521 
L 113.707794 290.233687 
L 115.3143 290.353088 
L 115.252805 291.180494 
L 111.065915 290.869308 
L 111.127411 290.041903 
z
M 119.765245 287.467239 
Q 119.103009 287.418019 118.681316 287.842619 
Q 118.261296 288.265776 118.202696 289.054226 
Q 118.144443 289.838002 118.496944 290.323276 
Q 118.851119 290.807109 119.513355 290.856328 
Q 120.175591 290.905548 120.595842 290.479274 
Q 121.016209 290.051442 121.074462 289.267667 
Q 121.133063 288.479216 120.780214 287.998617 
Q 120.427481 287.516459 119.765245 287.467239 
z
M 121.946863 284.528668 
L 121.880272 285.424635 
Q 121.52239 285.222553 121.152138 285.102593 
Q 120.782002 284.981074 120.41115 284.953511 
Q 119.437274 284.881129 118.874195 285.500472 
Q 118.312674 286.119932 118.140651 287.443635 
Q 118.458861 287.041113 118.908834 286.84737 
Q 119.360365 286.653742 119.880804 286.692423 
Q 120.97622 286.773838 121.562515 287.486441 
Q 122.148926 288.197487 122.063921 289.341207 
Q 121.980652 290.461554 121.268038 291.090152 
Q 120.55554 291.717192 119.45545 291.635429 
Q 118.193306 291.541622 117.598198 290.52597 
Q 117.003207 289.508759 117.139633 287.673197 
Q 117.26772 285.949825 118.16198 284.985329 
Q 119.05624 284.020833 120.433691 284.12321 
Q 120.804543 284.150773 121.176185 284.252035 
Q 121.547826 284.353297 121.946863 284.528668 
z
" clip-path="url(#p555399f5f5)" style="fill: #3b0f70; stroke: #ffffff; stroke-width: 5"/>
    <path d="M 111.127411 290.041903 
L 112.733918 290.161305 
L 113.146206 284.614105 
L 111.371846 284.83476 
L 111.438437 283.938794 
L 113.203449 283.717444 
L 114.186674 283.790521 
L 113.707794 290.233687 
L 115.3143 290.353088 
L 115.252805 291.180494 
L 111.065915 290.869308 
L 111.127411 290.041903 
z
M 119.765245 287.467239 
Q 119.103009 287.418019 118.681316 287.842619 
Q 118.261296 288.265776 118.202696 289.054226 
Q 118.144443 289.838002 118.496944 290.323276 
Q 118.851119 290.807109 119.513355 290.856328 
Q 120.175591 290.905548 120.595842 290.479274 
Q 121.016209 290.051442 121.074462 289.267667 
Q 121.133063 288.479216 120.780214 287.998617 
Q 120.427481 287.516459 119.765245 287.467239 
z
M 121.946863 284.528668 
L 121.880272 285.424635 
Q 121.52239 285.222553 121.152138 285.102593 
Q 120.782002 284.981074 120.41115 284.953511 
Q 119.437274 284.881129 118.874195 285.500472 
Q 118.312674 286.119932 118.140651 287.443635 
Q 118.458861 287.041113 118.908834 286.84737 
Q 119.360365 286.653742 119.880804 286.692423 
Q 120.97622 286.773838 121.562515 287.486441 
Q 122.148926 288.197487 122.063921 289.341207 
Q 121.980652 290.461554 121.268038 291.090152 
Q 120.55554 291.717192 119.45545 291.635429 
Q 118.193306 291.541622 117.598198 290.52597 
Q 117.003207 289.508759 117.139633 287.673197 
Q 117.26772 285.949825 118.16198 284.985329 
Q 119.05624 284.020833 120.433691 284.12321 
Q 120.804543 284.150773 121.176185 284.252035 
Q 121.547826 284.353297 121.946863 284.528668 
z
" clip-path="url(#p555399f5f5)" style="fill: #3b0f70"/>
   </g>
   <g id="text_16">
    <path d="M 178.424119 265.786174 
Q 179.122371 265.976996 179.491862 266.478082 
Q 179.862999 266.977695 179.823764 267.679724 
Q 179.763605 268.75617 178.98953 269.30602 
Q 178.215542 269.854311 176.850484 269.778022 
Q 176.393385 269.752476 175.913262 269.634877 
Q 175.433138 269.517278 174.92687 269.307451 
L 174.979967 268.357371 
Q 175.375365 268.618904 175.855305 268.767792 
Q 176.336805 268.916767 176.868787 268.946498 
Q 177.793906 268.9982 178.299488 268.66026 
Q 178.80507 268.32232 178.844043 267.624971 
Q 178.880052 266.980664 178.44942 266.593531 
Q 178.018876 266.204839 177.215442 266.159937 
L 176.366767 266.112507 
L 176.412017 265.302833 
L 177.299694 265.352443 
Q 178.025125 265.392985 178.426678 265.124348 
Q 178.828231 264.855711 178.858747 264.309688 
Q 178.890047 263.749625 178.50897 263.427859 
Q 178.129541 263.104621 177.38851 263.063207 
Q 176.982893 263.040538 176.514583 263.103567 
Q 176.046361 263.165036 175.48069 263.318085 
L 175.529689 262.441328 
Q 176.100032 262.316709 176.594252 262.266083 
Q 177.088472 262.215456 177.52217 262.239695 
Q 178.643857 262.302382 179.267454 262.848968 
Q 179.892698 263.394081 179.844222 264.261478 
Q 179.810393 264.866783 179.44078 265.263965 
Q 179.071166 265.661147 178.424119 265.786174 
z
M 182.467714 269.118561 
L 185.904538 269.310635 
L 185.858242 270.13903 
L 181.237328 269.880781 
L 181.283624 269.052386 
Q 181.876121 268.503342 182.897941 267.580797 
Q 183.921409 266.656779 184.185327 266.38671 
Q 184.687671 265.882706 184.895455 265.524993 
Q 185.104799 265.167367 185.124678 264.811672 
Q 185.157112 264.231328 184.770337 263.843516 
Q 184.383649 263.454145 183.729981 263.417613 
Q 183.266642 263.391719 182.74284 263.523634 
Q 182.220598 263.655636 181.617264 263.950554 
L 181.672889 262.955232 
Q 182.280614 262.749761 182.803796 262.656935 
Q 183.328539 262.564196 183.757557 262.588172 
Q 184.888604 262.651383 185.529344 263.255265 
Q 186.17017 263.857587 186.117334 264.802986 
Q 186.092224 265.252285 185.901243 265.645366 
Q 185.711909 266.036974 185.236774 266.558148 
Q 185.107155 266.693313 184.415735 267.33229 
Q 183.725876 267.971354 182.467714 269.118561 
z
" clip-path="url(#p555399f5f5)" style="fill: #8c2981; stroke: #ffffff; stroke-width: 5"/>
    <path d="M 178.424119 265.786174 
Q 179.122371 265.976996 179.491862 266.478082 
Q 179.862999 266.977695 179.823764 267.679724 
Q 179.763605 268.75617 178.98953 269.30602 
Q 178.215542 269.854311 176.850484 269.778022 
Q 176.393385 269.752476 175.913262 269.634877 
Q 175.433138 269.517278 174.92687 269.307451 
L 174.979967 268.357371 
Q 175.375365 268.618904 175.855305 268.767792 
Q 176.336805 268.916767 176.868787 268.946498 
Q 177.793906 268.9982 178.299488 268.66026 
Q 178.80507 268.32232 178.844043 267.624971 
Q 178.880052 266.980664 178.44942 266.593531 
Q 178.018876 266.204839 177.215442 266.159937 
L 176.366767 266.112507 
L 176.412017 265.302833 
L 177.299694 265.352443 
Q 178.025125 265.392985 178.426678 265.124348 
Q 178.828231 264.855711 178.858747 264.309688 
Q 178.890047 263.749625 178.50897 263.427859 
Q 178.129541 263.104621 177.38851 263.063207 
Q 176.982893 263.040538 176.514583 263.103567 
Q 176.046361 263.165036 175.48069 263.318085 
L 175.529689 262.441328 
Q 176.100032 262.316709 176.594252 262.266083 
Q 177.088472 262.215456 177.52217 262.239695 
Q 178.643857 262.302382 179.267454 262.848968 
Q 179.892698 263.394081 179.844222 264.261478 
Q 179.810393 264.866783 179.44078 265.263965 
Q 179.071166 265.661147 178.424119 265.786174 
z
M 182.467714 269.118561 
L 185.904538 269.310635 
L 185.858242 270.13903 
L 181.237328 269.880781 
L 181.283624 269.052386 
Q 181.876121 268.503342 182.897941 267.580797 
Q 183.921409 266.656779 184.185327 266.38671 
Q 184.687671 265.882706 184.895455 265.524993 
Q 185.104799 265.167367 185.124678 264.811672 
Q 185.157112 264.231328 184.770337 263.843516 
Q 184.383649 263.454145 183.729981 263.417613 
Q 183.266642 263.391719 182.74284 263.523634 
Q 182.220598 263.655636 181.617264 263.950554 
L 181.672889 262.955232 
Q 182.280614 262.749761 182.803796 262.656935 
Q 183.328539 262.564196 183.757557 262.588172 
Q 184.888604 262.651383 185.529344 263.255265 
Q 186.17017 263.857587 186.117334 264.802986 
Q 186.092224 265.252285 185.901243 265.645366 
Q 185.711909 266.036974 185.236774 266.558148 
Q 185.107155 266.693313 184.415735 267.33229 
Q 183.725876 267.971354 182.467714 269.118561 
z
" clip-path="url(#p555399f5f5)" style="fill: #8c2981"/>
   </g>
   <g id="text_17">
    <path d="M 241.864655 188.001954 
Q 241.200645 188.010306 240.817332 188.469851 
Q 240.435561 188.927813 240.445505 189.718376 
Q 240.455389 190.504251 240.848617 190.957154 
Q 241.243386 191.408475 241.907396 191.400123 
Q 242.571406 191.391771 242.953138 190.930684 
Q 243.334849 190.468034 243.324964 189.682158 
Q 243.315021 188.891596 242.921853 188.44338 
Q 242.528665 187.993602 241.864655 188.001954 
z
M 243.783423 184.885388 
L 243.794722 185.783755 
Q 243.420675 185.613445 243.041421 185.526021 
Q 242.662147 185.437034 242.290301 185.441711 
Q 241.313816 185.453993 240.806525 186.119801 
Q 240.300796 186.785589 240.244126 188.11922 
Q 240.526259 187.690637 240.95775 187.45863 
Q 241.390803 187.226602 241.912637 187.220039 
Q 243.010988 187.206224 243.656828 187.865341 
Q 244.302649 188.522896 244.317074 189.66968 
Q 244.331203 190.793029 243.675741 191.481014 
Q 243.02026 192.167437 241.917222 192.181311 
Q 240.651697 192.197229 239.970816 191.236966 
Q 239.289916 190.275141 239.266766 188.434662 
Q 239.245032 186.706673 240.052349 185.668313 
Q 240.859666 184.629952 242.240807 184.61258 
Q 242.612653 184.607903 242.991671 184.676579 
Q 243.37069 184.745255 243.783423 184.885388 
z
M 248.674438 185.522363 
L 246.232961 189.445566 
L 248.723389 189.414242 
L 248.674438 185.522363 
z
M 248.404275 184.666318 
L 249.644802 184.650714 
L 249.704561 189.401901 
L 250.745104 189.388813 
L 250.755421 190.209061 
L 249.714878 190.222149 
L 249.736495 191.940763 
L 248.755322 191.953104 
L 248.733706 190.23449 
L 245.443341 190.275875 
L 245.431374 189.324388 
L 248.404275 184.666318 
z
" clip-path="url(#p555399f5f5)" style="fill: #de4968; stroke: #ffffff; stroke-width: 5"/>
    <path d="M 241.864655 188.001954 
Q 241.200645 188.010306 240.817332 188.469851 
Q 240.435561 188.927813 240.445505 189.718376 
Q 240.455389 190.504251 240.848617 190.957154 
Q 241.243386 191.408475 241.907396 191.400123 
Q 242.571406 191.391771 242.953138 190.930684 
Q 243.334849 190.468034 243.324964 189.682158 
Q 243.315021 188.891596 242.921853 188.44338 
Q 242.528665 187.993602 241.864655 188.001954 
z
M 243.783423 184.885388 
L 243.794722 185.783755 
Q 243.420675 185.613445 243.041421 185.526021 
Q 242.662147 185.437034 242.290301 185.441711 
Q 241.313816 185.453993 240.806525 186.119801 
Q 240.300796 186.785589 240.244126 188.11922 
Q 240.526259 187.690637 240.95775 187.45863 
Q 241.390803 187.226602 241.912637 187.220039 
Q 243.010988 187.206224 243.656828 187.865341 
Q 244.302649 188.522896 244.317074 189.66968 
Q 244.331203 190.793029 243.675741 191.481014 
Q 243.02026 192.167437 241.917222 192.181311 
Q 240.651697 192.197229 239.970816 191.236966 
Q 239.289916 190.275141 239.266766 188.434662 
Q 239.245032 186.706673 240.052349 185.668313 
Q 240.859666 184.629952 242.240807 184.61258 
Q 242.612653 184.607903 242.991671 184.676579 
Q 243.37069 184.745255 243.783423 184.885388 
z
M 248.674438 185.522363 
L 246.232961 189.445566 
L 248.723389 189.414242 
L 248.674438 185.522363 
z
M 248.404275 184.666318 
L 249.644802 184.650714 
L 249.704561 189.401901 
L 250.745104 189.388813 
L 250.755421 190.209061 
L 249.714878 190.222149 
L 249.736495 191.940763 
L 248.755322 191.953104 
L 248.733706 190.23449 
L 245.443341 190.275875 
L 245.431374 189.324388 
L 248.404275 184.666318 
z
" clip-path="url(#p555399f5f5)" style="fill: #de4968"/>
   </g>
   <g id="text_18">
    <path d="M 301.193895 97.888517 
L 302.794338 97.704937 
L 302.160444 92.178673 
L 300.458803 92.727729 
L 300.356419 91.835144 
L 302.048745 91.287157 
L 303.02826 91.174801 
L 303.764539 97.593649 
L 305.364982 97.410069 
L 305.459532 98.234352 
L 301.288445 98.712799 
L 301.193895 97.888517 
z
M 308.18846 97.0862 
L 311.608223 96.693934 
L 311.702773 97.518216 
L 307.104798 98.04563 
L 307.010248 97.221348 
Q 307.501293 96.579961 308.352266 95.49781 
Q 309.204614 94.41393 309.419026 94.103096 
Q 309.828839 93.521354 309.973095 93.133639 
Q 310.118904 92.745746 310.078306 92.391817 
Q 310.012068 91.814354 309.565246 91.497584 
Q 309.118246 91.179262 308.467824 91.25387 
Q 308.006784 91.306753 307.512859 91.525402 
Q 307.020485 91.743873 306.475757 92.136633 
L 306.362155 91.146252 
Q 306.926346 90.840906 307.426276 90.660887 
Q 307.927758 90.48069 308.354646 90.431724 
Q 309.480079 90.30263 310.213765 90.789379 
Q 310.947273 91.274575 311.055178 92.215282 
Q 311.106459 92.66235 310.984748 93.08208 
Q 310.864411 93.500079 310.48432 94.094138 
Q 310.379443 94.249288 309.80612 94.99605 
Q 309.23435 95.742634 308.18846 97.0862 
z
M 315.460457 93.601984 
Q 314.761912 93.682111 314.404326 94.10216 
Q 314.048292 94.522031 314.123255 95.175558 
Q 314.198397 95.830638 314.640256 96.158986 
Q 315.083667 96.487155 315.782211 96.407028 
Q 316.480756 96.326901 316.839717 95.905122 
Q 317.200051 95.481612 317.125444 94.83119 
Q 317.050481 94.177663 316.60707 93.849493 
Q 316.165211 93.521145 315.460457 93.601984 
z
M 314.433222 93.298318 
Q 313.785174 93.215378 313.383296 92.824253 
Q 312.982793 92.431397 312.911569 91.810468 
Q 312.812033 90.942721 313.371987 90.367348 
Q 313.933494 89.791798 315.009253 89.668402 
Q 316.09122 89.544295 316.765361 89.978109 
Q 317.439502 90.411924 317.539038 91.279671 
Q 317.610262 91.9006 317.307564 92.374117 
Q 317.00624 92.845904 316.398461 93.072894 
Q 317.125193 93.156245 317.574682 93.592237 
Q 318.025544 94.026499 318.104959 94.718834 
Q 318.225862 95.77286 317.647837 96.410069 
Q 317.069633 97.045727 315.871241 97.183189 
Q 314.674402 97.320473 313.965731 96.832428 
Q 313.258434 96.342652 313.137531 95.288626 
Q 313.058117 94.596291 313.40049 94.07104 
Q 313.744238 93.544059 314.433222 93.298318 
z
M 313.89711 91.791786 
Q 313.961568 92.353726 314.348539 92.628606 
Q 314.737062 92.903307 315.371961 92.830481 
Q 316.003756 92.75801 316.323091 92.402113 
Q 316.643979 92.046038 316.579521 91.484098 
Q 316.514885 90.920605 316.121705 90.646438 
Q 315.730077 90.372093 315.098283 90.444563 
Q 314.463383 90.51739 314.147153 90.87293 
Q 313.832474 91.228293 313.89711 91.791786 
z
" clip-path="url(#p555399f5f5)" style="fill: #fe9f6d; stroke: #ffffff; stroke-width: 5"/>
    <path d="M 301.193895 97.888517 
L 302.794338 97.704937 
L 302.160444 92.178673 
L 300.458803 92.727729 
L 300.356419 91.835144 
L 302.048745 91.287157 
L 303.02826 91.174801 
L 303.764539 97.593649 
L 305.364982 97.410069 
L 305.459532 98.234352 
L 301.288445 98.712799 
L 301.193895 97.888517 
z
M 308.18846 97.0862 
L 311.608223 96.693934 
L 311.702773 97.518216 
L 307.104798 98.04563 
L 307.010248 97.221348 
Q 307.501293 96.579961 308.352266 95.49781 
Q 309.204614 94.41393 309.419026 94.103096 
Q 309.828839 93.521354 309.973095 93.133639 
Q 310.118904 92.745746 310.078306 92.391817 
Q 310.012068 91.814354 309.565246 91.497584 
Q 309.118246 91.179262 308.467824 91.25387 
Q 308.006784 91.306753 307.512859 91.525402 
Q 307.020485 91.743873 306.475757 92.136633 
L 306.362155 91.146252 
Q 306.926346 90.840906 307.426276 90.660887 
Q 307.927758 90.48069 308.354646 90.431724 
Q 309.480079 90.30263 310.213765 90.789379 
Q 310.947273 91.274575 311.055178 92.215282 
Q 311.106459 92.66235 310.984748 93.08208 
Q 310.864411 93.500079 310.48432 94.094138 
Q 310.379443 94.249288 309.80612 94.99605 
Q 309.23435 95.742634 308.18846 97.0862 
z
M 315.460457 93.601984 
Q 314.761912 93.682111 314.404326 94.10216 
Q 314.048292 94.522031 314.123255 95.175558 
Q 314.198397 95.830638 314.640256 96.158986 
Q 315.083667 96.487155 315.782211 96.407028 
Q 316.480756 96.326901 316.839717 95.905122 
Q 317.200051 95.481612 317.125444 94.83119 
Q 317.050481 94.177663 316.60707 93.849493 
Q 316.165211 93.521145 315.460457 93.601984 
z
M 314.433222 93.298318 
Q 313.785174 93.215378 313.383296 92.824253 
Q 312.982793 92.431397 312.911569 91.810468 
Q 312.812033 90.942721 313.371987 90.367348 
Q 313.933494 89.791798 315.009253 89.668402 
Q 316.09122 89.544295 316.765361 89.978109 
Q 317.439502 90.411924 317.539038 91.279671 
Q 317.610262 91.9006 317.307564 92.374117 
Q 317.00624 92.845904 316.398461 93.072894 
Q 317.125193 93.156245 317.574682 93.592237 
Q 318.025544 94.026499 318.104959 94.718834 
Q 318.225862 95.77286 317.647837 96.410069 
Q 317.069633 97.045727 315.871241 97.183189 
Q 314.674402 97.320473 313.965731 96.832428 
Q 313.258434 96.342652 313.137531 95.288626 
Q 313.058117 94.596291 313.40049 94.07104 
Q 313.744238 93.544059 314.433222 93.298318 
z
M 313.89711 91.791786 
Q 313.961568 92.353726 314.348539 92.628606 
Q 314.737062 92.903307 315.371961 92.830481 
Q 316.003756 92.75801 316.323091 92.402113 
Q 316.643979 92.046038 316.579521 91.484098 
Q 316.514885 90.920605 316.121705 90.646438 
Q 315.730077 90.372093 315.098283 90.444563 
Q 314.463383 90.51739 314.147153 90.87293 
Q 313.832474 91.228293 313.89711 91.791786 
z
" clip-path="url(#p555399f5f5)" style="fill: #fe9f6d"/>
   </g>
   <g id="patch_3">
    <path d="M 34.240625 301.735725 
L 34.240625 35.623725 
" style="fill: none; stroke: #cccccc; stroke-width: 0.8; stroke-linejoin: miter; stroke-linecap: square"/>
   </g>
   <g id="patch_4">
    <path d="M 391.360625 301.735725 
L 391.360625 35.623725 
" style="fill: none; stroke: #cccccc; stroke-width: 0.8; stroke-linejoin: miter; stroke-linecap: square"/>
   </g>
   <g id="patch_5">
    <path d="M 34.240625 301.735725 
L 391.360625 301.735725 
" style="fill: none; stroke: #cccccc; stroke-width: 0.8; stroke-linejoin: miter; stroke-linecap: square"/>
   </g>
   <g id="patch_6">
    <path d="M 34.240625 35.623725 
L 391.360625 35.623725 
" style="fill: none; stroke: #cccccc; stroke-width: 0.8; stroke-linejoin: miter; stroke-linecap: square"/>
   </g>
   <g id="text_19">
    <!-- Block Size = 1M, Read-Write Type = Sequential Balanced 1:1 -->
    <g style="fill: #262626; opacity: 0.75" transform="translate(60.592031 30.882918) scale(0.1 -0.1)">
     <defs>
      <path id="DejaVuSans-42" d="M 1259 2228 
L 1259 519 
L 2272 519 
Q 2781 519 3026 730 
Q 3272 941 3272 1375 
Q 3272 1813 3026 2020 
Q 2781 2228 2272 2228 
L 1259 2228 
z
M 1259 4147 
L 1259 2741 
L 2194 2741 
Q 2656 2741 2882 2914 
Q 3109 3088 3109 3444 
Q 3109 3797 2882 3972 
Q 2656 4147 2194 4147 
L 1259 4147 
z
M 628 4666 
L 2241 4666 
Q 2963 4666 3353 4366 
Q 3744 4066 3744 3513 
Q 3744 3084 3544 2831 
Q 3344 2578 2956 2516 
Q 3422 2416 3680 2098 
Q 3938 1781 3938 1306 
Q 3938 681 3513 340 
Q 3088 0 2303 0 
L 628 0 
L 628 4666 
z
" transform="scale(0.015625)"/>
      <path id="DejaVuSans-6c" d="M 603 4863 
L 1178 4863 
L 1178 0 
L 603 0 
L 603 4863 
z
" transform="scale(0.015625)"/>
      <path id="DejaVuSans-6f" d="M 1959 3097 
Q 1497 3097 1228 2736 
Q 959 2375 959 1747 
Q 959 1119 1226 758 
Q 1494 397 1959 397 
Q 2419 397 2687 759 
Q 2956 1122 2956 1747 
Q 2956 2369 2687 2733 
Q 2419 3097 1959 3097 
z
M 1959 3584 
Q 2709 3584 3137 3096 
Q 3566 2609 3566 1747 
Q 3566 888 3137 398 
Q 2709 -91 1959 -91 
Q 1206 -91 779 398 
Q 353 888 353 1747 
Q 353 2609 779 3096 
Q 1206 3584 1959 3584 
z
" transform="scale(0.015625)"/>
      <path id="DejaVuSans-6b" d="M 581 4863 
L 1159 4863 
L 1159 1991 
L 2875 3500 
L 3609 3500 
L 1753 1863 
L 3688 0 
L 2938 0 
L 1159 1709 
L 1159 0 
L 581 0 
L 581 4863 
z
" transform="scale(0.015625)"/>
      <path id="DejaVuSans-53" d="M 3425 4513 
L 3425 3897 
Q 3066 4069 2747 4153 
Q 2428 4238 2131 4238 
Q 1616 4238 1336 4038 
Q 1056 3838 1056 3469 
Q 1056 3159 1242 3001 
Q 1428 2844 1947 2747 
L 2328 2669 
Q 3034 2534 3370 2195 
Q 3706 1856 3706 1288 
Q 3706 609 3251 259 
Q 2797 -91 1919 -91 
Q 1588 -91 1214 -16 
Q 841 59 441 206 
L 441 856 
Q 825 641 1194 531 
Q 1563 422 1919 422 
Q 2459 422 2753 634 
Q 3047 847 3047 1241 
Q 3047 1584 2836 1778 
Q 2625 1972 2144 2069 
L 1759 2144 
Q 1053 2284 737 2584 
Q 422 2884 422 3419 
Q 422 4038 858 4394 
Q 1294 4750 2059 4750 
Q 2388 4750 2728 4690 
Q 3069 4631 3425 4513 
z
" transform="scale(0.015625)"/>
      <path id="DejaVuSans-69" d="M 603 3500 
L 1178 3500 
L 1178 0 
L 603 0 
L 603 3500 
z
M 603 4863 
L 1178 4863 
L 1178 4134 
L 603 4134 
L 603 4863 
z
" transform="scale(0.015625)"/>
      <path id="DejaVuSans-7a" d="M 353 3500 
L 3084 3500 
L 3084 2975 
L 922 459 
L 3084 459 
L 3084 0 
L 275 0 
L 275 525 
L 2438 3041 
L 353 3041 
L 353 3500 
z
" transform="scale(0.015625)"/>
      <path id="DejaVuSans-3d" d="M 678 2906 
L 4684 2906 
L 4684 2381 
L 678 2381 
L 678 2906 
z
M 678 1631 
L 4684 1631 
L 4684 1100 
L 678 1100 
L 678 1631 
z
" transform="scale(0.015625)"/>
      <path id="DejaVuSans-2c" d="M 750 794 
L 1409 794 
L 1409 256 
L 897 -744 
L 494 -744 
L 750 256 
L 750 794 
z
" transform="scale(0.015625)"/>
      <path id="DejaVuSans-52" d="M 2841 2188 
Q 3044 2119 3236 1894 
Q 3428 1669 3622 1275 
L 4263 0 
L 3584 0 
L 2988 1197 
Q 2756 1666 2539 1819 
Q 2322 1972 1947 1972 
L 1259 1972 
L 1259 0 
L 628 0 
L 628 4666 
L 2053 4666 
Q 2853 4666 3247 4331 
Q 3641 3997 3641 3322 
Q 3641 2881 3436 2590 
Q 3231 2300 2841 2188 
z
M 1259 4147 
L 1259 2491 
L 2053 2491 
Q 2509 2491 2742 2702 
Q 2975 2913 2975 3322 
Q 2975 3731 2742 3939 
Q 2509 4147 2053 4147 
L 1259 4147 
z
" transform="scale(0.015625)"/>
      <path id="DejaVuSans-64" d="M 2906 2969 
L 2906 4863 
L 3481 4863 
L 3481 0 
L 2906 0 
L 2906 525 
Q 2725 213 2448 61 
Q 2172 -91 1784 -91 
Q 1150 -91 751 415 
Q 353 922 353 1747 
Q 353 2572 751 3078 
Q 1150 3584 1784 3584 
Q 2172 3584 2448 3432 
Q 2725 3281 2906 2969 
z
M 947 1747 
Q 947 1113 1208 752 
Q 1469 391 1925 391 
Q 2381 391 2643 752 
Q 2906 1113 2906 1747 
Q 2906 2381 2643 2742 
Q 2381 3103 1925 3103 
Q 1469 3103 1208 2742 
Q 947 2381 947 1747 
z
" transform="scale(0.015625)"/>
      <path id="DejaVuSans-2d" d="M 313 2009 
L 1997 2009 
L 1997 1497 
L 313 1497 
L 313 2009 
z
" transform="scale(0.015625)"/>
      <path id="DejaVuSans-57" d="M 213 4666 
L 850 4666 
L 1831 722 
L 2809 4666 
L 3519 4666 
L 4500 722 
L 5478 4666 
L 6119 4666 
L 4947 0 
L 4153 0 
L 3169 4050 
L 2175 0 
L 1381 0 
L 213 4666 
z
" transform="scale(0.015625)"/>
      <path id="DejaVuSans-72" d="M 2631 2963 
Q 2534 3019 2420 3045 
Q 2306 3072 2169 3072 
Q 1681 3072 1420 2755 
Q 1159 2438 1159 1844 
L 1159 0 
L 581 0 
L 581 3500 
L 1159 3500 
L 1159 2956 
Q 1341 3275 1631 3429 
Q 1922 3584 2338 3584 
Q 2397 3584 2469 3576 
Q 2541 3569 2628 3553 
L 2631 2963 
z
" transform="scale(0.015625)"/>
      <path id="DejaVuSans-54" d="M -19 4666 
L 3928 4666 
L 3928 4134 
L 2272 4134 
L 2272 0 
L 1638 0 
L 1638 4134 
L -19 4134 
L -19 4666 
z
" transform="scale(0.015625)"/>
      <path id="DejaVuSans-71" d="M 947 1747 
Q 947 1113 1208 752 
Q 1469 391 1925 391 
Q 2381 391 2643 752 
Q 2906 1113 2906 1747 
Q 2906 2381 2643 2742 
Q 2381 3103 1925 3103 
Q 1469 3103 1208 2742 
Q 947 2381 947 1747 
z
M 2906 525 
Q 2725 213 2448 61 
Q 2172 -91 1784 -91 
Q 1150 -91 751 415 
Q 353 922 353 1747 
Q 353 2572 751 3078 
Q 1150 3584 1784 3584 
Q 2172 3584 2448 3432 
Q 2725 3281 2906 2969 
L 2906 3500 
L 3481 3500 
L 3481 -1331 
L 2906 -1331 
L 2906 525 
z
" transform="scale(0.015625)"/>
      <path id="DejaVuSans-75" d="M 544 1381 
L 544 3500 
L 1119 3500 
L 1119 1403 
Q 1119 906 1312 657 
Q 1506 409 1894 409 
Q 2359 409 2629 706 
Q 2900 1003 2900 1516 
L 2900 3500 
L 3475 3500 
L 3475 0 
L 2900 0 
L 2900 538 
Q 2691 219 2414 64 
Q 2138 -91 1772 -91 
Q 1169 -91 856 284 
Q 544 659 544 1381 
z
M 1991 3584 
L 1991 3584 
z
" transform="scale(0.015625)"/>
      <path id="DejaVuSans-3a" d="M 750 794 
L 1409 794 
L 1409 0 
L 750 0 
L 750 794 
z
M 750 3309 
L 1409 3309 
L 1409 2516 
L 750 2516 
L 750 3309 
z
" transform="scale(0.015625)"/>
     </defs>
     <use xlink:href="#DejaVuSans-42"/>
     <use xlink:href="#DejaVuSans-6c" transform="translate(68.603516 0)"/>
     <use xlink:href="#DejaVuSans-6f" transform="translate(96.386719 0)"/>
     <use xlink:href="#DejaVuSans-63" transform="translate(157.568359 0)"/>
     <use xlink:href="#DejaVuSans-6b" transform="translate(212.548828 0)"/>
     <use xlink:href="#DejaVuSans-20" transform="translate(270.458984 0)"/>
     <use xlink:href="#DejaVuSans-53" transform="translate(302.246094 0)"/>
     <use xlink:href="#DejaVuSans-69" transform="translate(365.722656 0)"/>
     <use xlink:href="#DejaVuSans-7a" transform="translate(393.505859 0)"/>
     <use xlink:href="#DejaVuSans-65" transform="translate(445.996094 0)"/>
     <use xlink:href="#DejaVuSans-20" transform="translate(507.519531 0)"/>
     <use xlink:href="#DejaVuSans-3d" transform="translate(539.306641 0)"/>
     <use xlink:href="#DejaVuSans-20" transform="translate(623.095703 0)"/>
     <use xlink:href="#DejaVuSans-31" transform="translate(654.882812 0)"/>
     <use xlink:href="#DejaVuSans-4d" transform="translate(718.505859 0)"/>
     <use xlink:href="#DejaVuSans-2c" transform="translate(804.785156 0)"/>
     <use xlink:href="#DejaVuSans-20" transform="translate(836.572266 0)"/>
     <use xlink:href="#DejaVuSans-52" transform="translate(868.359375 0)"/>
     <use xlink:href="#DejaVuSans-65" transform="translate(933.341797 0)"/>
     <use xlink:href="#DejaVuSans-61" transform="translate(994.865234 0)"/>
     <use xlink:href="#DejaVuSans-64" transform="translate(1056.144531 0)"/>
     <use xlink:href="#DejaVuSans-2d" transform="translate(1119.621094 0)"/>
     <use xlink:href="#DejaVuSans-57" transform="translate(1151.705078 0)"/>
     <use xlink:href="#DejaVuSans-72" transform="translate(1246.082031 0)"/>
     <use xlink:href="#DejaVuSans-69" transform="translate(1287.195312 0)"/>
     <use xlink:href="#DejaVuSans-74" transform="translate(1314.978516 0)"/>
     <use xlink:href="#DejaVuSans-65" transform="translate(1354.1875 0)"/>
     <use xlink:href="#DejaVuSans-20" transform="translate(1415.710938 0)"/>
     <use xlink:href="#DejaVuSans-54" transform="translate(1447.498047 0)"/>
     <use xlink:href="#DejaVuSans-79" transform="translate(1492.957031 0)"/>
     <use xlink:href="#DejaVuSans-70" transform="translate(1552.136719 0)"/>
     <use xlink:href="#DejaVuSans-65" transform="translate(1615.613281 0)"/>
     <use xlink:href="#DejaVuSans-20" transform="translate(1677.136719 0)"/>
     <use xlink:href="#DejaVuSans-3d" transform="translate(1708.923828 0)"/>
     <use xlink:href="#DejaVuSans-20" transform="translate(1792.712891 0)"/>
     <use xlink:href="#DejaVuSans-53" transform="translate(1824.5 0)"/>
     <use xlink:href="#DejaVuSans-65" transform="translate(1887.976562 0)"/>
     <use xlink:href="#DejaVuSans-71" transform="translate(1949.5 0)"/>
     <use xlink:href="#DejaVuSans-75" transform="translate(2012.976562 0)"/>
     <use xlink:href="#DejaVuSans-65" transform="translate(2076.355469 0)"/>
     <use xlink:href="#DejaVuSans-6e" transform="translate(2137.878906 0)"/>
     <use xlink:href="#DejaVuSans-74" transform="translate(2201.257812 0)"/>
     <use xlink:href="#DejaVuSans-69" transform="translate(2240.466797 0)"/>
     <use xlink:href="#DejaVuSans-61" transform="translate(2268.25 0)"/>
     <use xlink:href="#DejaVuSans-6c" transform="translate(2329.529297 0)"/>
     <use xlink:href="#DejaVuSans-20" transform="translate(2357.3125 0)"/>
     <use xlink:href="#DejaVuSans-42" transform="translate(2389.099609 0)"/>
     <use xlink:href="#DejaVuSans-61" transform="translate(2457.703125 0)"/>
     <use xlink:href="#DejaVuSans-6c" transform="translate(2518.982422 0)"/>
     <use xlink:href="#DejaVuSans-61" transform="translate(2546.765625 0)"/>
     <use xlink:href="#DejaVuSans-6e" transform="translate(2608.044922 0)"/>
     <use xlink:href="#DejaVuSans-63" transform="translate(2671.423828 0)"/>
     <use xlink:href="#DejaVuSans-65" transform="translate(2726.404297 0)"/>
     <use xlink:href="#DejaVuSans-64" transform="translate(2787.927734 0)"/>
     <use xlink:href="#DejaVuSans-20" transform="translate(2851.404297 0)"/>
     <use xlink:href="#DejaVuSans-31" transform="translate(2883.191406 0)"/>
     <use xlink:href="#DejaVuSans-3a" transform="translate(2946.814453 0)"/>
     <use xlink:href="#DejaVuSans-31" transform="translate(2980.505859 0)"/>
    </g>
   </g>
   <g id="text_20">
    <!-- Mean Latency vs IO Depth -->
    <g style="fill: #262626" transform="translate(124.235938 16.318125) scale(0.12 -0.12)">
     <defs>
      <path id="DejaVuSans-Bold-4d" d="M 588 4666 
L 2119 4666 
L 3181 2169 
L 4250 4666 
L 5778 4666 
L 5778 0 
L 4641 0 
L 4641 3413 
L 3566 897 
L 2803 897 
L 1728 3413 
L 1728 0 
L 588 0 
L 588 4666 
z
" transform="scale(0.015625)"/>
      <path id="DejaVuSans-Bold-65" d="M 4031 1759 
L 4031 1441 
L 1416 1441 
Q 1456 1047 1700 850 
Q 1944 653 2381 653 
Q 2734 653 3104 758 
Q 3475 863 3866 1075 
L 3866 213 
Q 3469 63 3072 -14 
Q 2675 -91 2278 -91 
Q 1328 -91 801 392 
Q 275 875 275 1747 
Q 275 2603 792 3093 
Q 1309 3584 2216 3584 
Q 3041 3584 3536 3087 
Q 4031 2591 4031 1759 
z
M 2881 2131 
Q 2881 2450 2695 2645 
Q 2509 2841 2209 2841 
Q 1884 2841 1681 2658 
Q 1478 2475 1428 2131 
L 2881 2131 
z
" transform="scale(0.015625)"/>
      <path id="DejaVuSans-Bold-61" d="M 2106 1575 
Q 1756 1575 1579 1456 
Q 1403 1338 1403 1106 
Q 1403 894 1545 773 
Q 1688 653 1941 653 
Q 2256 653 2472 879 
Q 2688 1106 2688 1447 
L 2688 1575 
L 2106 1575 
z
M 3816 1997 
L 3816 0 
L 2688 0 
L 2688 519 
Q 2463 200 2181 54 
Q 1900 -91 1497 -91 
Q 953 -91 614 226 
Q 275 544 275 1050 
Q 275 1666 698 1953 
Q 1122 2241 2028 2241 
L 2688 2241 
L 2688 2328 
Q 2688 2594 2478 2717 
Q 2269 2841 1825 2841 
Q 1466 2841 1156 2769 
Q 847 2697 581 2553 
L 581 3406 
Q 941 3494 1303 3539 
Q 1666 3584 2028 3584 
Q 2975 3584 3395 3211 
Q 3816 2838 3816 1997 
z
" transform="scale(0.015625)"/>
      <path id="DejaVuSans-Bold-6e" d="M 4056 2131 
L 4056 0 
L 2931 0 
L 2931 347 
L 2931 1631 
Q 2931 2084 2911 2256 
Q 2891 2428 2841 2509 
Q 2775 2619 2662 2680 
Q 2550 2741 2406 2741 
Q 2056 2741 1856 2470 
Q 1656 2200 1656 1722 
L 1656 0 
L 538 0 
L 538 3500 
L 1656 3500 
L 1656 2988 
Q 1909 3294 2193 3439 
Q 2478 3584 2822 3584 
Q 3428 3584 3742 3212 
Q 4056 2841 4056 2131 
z
" transform="scale(0.015625)"/>
      <path id="DejaVuSans-Bold-20" transform="scale(0.015625)"/>
      <path id="DejaVuSans-Bold-4c" d="M 588 4666 
L 1791 4666 
L 1791 909 
L 3903 909 
L 3903 0 
L 588 0 
L 588 4666 
z
" transform="scale(0.015625)"/>
      <path id="DejaVuSans-Bold-74" d="M 1759 4494 
L 1759 3500 
L 2913 3500 
L 2913 2700 
L 1759 2700 
L 1759 1216 
Q 1759 972 1856 886 
Q 1953 800 2241 800 
L 2816 800 
L 2816 0 
L 1856 0 
Q 1194 0 917 276 
Q 641 553 641 1216 
L 641 2700 
L 84 2700 
L 84 3500 
L 641 3500 
L 641 4494 
L 1759 4494 
z
" transform="scale(0.015625)"/>
      <path id="DejaVuSans-Bold-63" d="M 3366 3391 
L 3366 2478 
Q 3138 2634 2908 2709 
Q 2678 2784 2431 2784 
Q 1963 2784 1702 2511 
Q 1441 2238 1441 1747 
Q 1441 1256 1702 982 
Q 1963 709 2431 709 
Q 2694 709 2930 787 
Q 3166 866 3366 1019 
L 3366 103 
Q 3103 6 2833 -42 
Q 2563 -91 2291 -91 
Q 1344 -91 809 395 
Q 275 881 275 1747 
Q 275 2613 809 3098 
Q 1344 3584 2291 3584 
Q 2566 3584 2833 3536 
Q 3100 3488 3366 3391 
z
" transform="scale(0.015625)"/>
      <path id="DejaVuSans-Bold-79" d="M 78 3500 
L 1197 3500 
L 2138 1125 
L 2938 3500 
L 4056 3500 
L 2584 -331 
Q 2363 -916 2067 -1148 
Q 1772 -1381 1288 -1381 
L 641 -1381 
L 641 -647 
L 991 -647 
Q 1275 -647 1404 -556 
Q 1534 -466 1606 -231 
L 1638 -134 
L 78 3500 
z
" transform="scale(0.015625)"/>
      <path id="DejaVuSans-Bold-76" d="M 97 3500 
L 1216 3500 
L 2088 1081 
L 2956 3500 
L 4078 3500 
L 2700 0 
L 1472 0 
L 97 3500 
z
" transform="scale(0.015625)"/>
      <path id="DejaVuSans-Bold-73" d="M 3272 3391 
L 3272 2541 
Q 2913 2691 2578 2766 
Q 2244 2841 1947 2841 
Q 1628 2841 1473 2761 
Q 1319 2681 1319 2516 
Q 1319 2381 1436 2309 
Q 1553 2238 1856 2203 
L 2053 2175 
Q 2913 2066 3209 1816 
Q 3506 1566 3506 1031 
Q 3506 472 3093 190 
Q 2681 -91 1863 -91 
Q 1516 -91 1145 -36 
Q 775 19 384 128 
L 384 978 
Q 719 816 1070 734 
Q 1422 653 1784 653 
Q 2113 653 2278 743 
Q 2444 834 2444 1013 
Q 2444 1163 2330 1236 
Q 2216 1309 1875 1350 
L 1678 1375 
Q 931 1469 631 1722 
Q 331 1975 331 2491 
Q 331 3047 712 3315 
Q 1094 3584 1881 3584 
Q 2191 3584 2531 3537 
Q 2872 3491 3272 3391 
z
" transform="scale(0.015625)"/>
      <path id="DejaVuSans-Bold-49" d="M 588 4666 
L 1791 4666 
L 1791 0 
L 588 0 
L 588 4666 
z
" transform="scale(0.015625)"/>
      <path id="DejaVuSans-Bold-4f" d="M 2719 3878 
Q 2169 3878 1866 3472 
Q 1563 3066 1563 2328 
Q 1563 1594 1866 1187 
Q 2169 781 2719 781 
Q 3272 781 3575 1187 
Q 3878 1594 3878 2328 
Q 3878 3066 3575 3472 
Q 3272 3878 2719 3878 
z
M 2719 4750 
Q 3844 4750 4481 4106 
Q 5119 3463 5119 2328 
Q 5119 1197 4481 553 
Q 3844 -91 2719 -91 
Q 1597 -91 958 553 
Q 319 1197 319 2328 
Q 319 3463 958 4106 
Q 1597 4750 2719 4750 
z
" transform="scale(0.015625)"/>
      <path id="DejaVuSans-Bold-44" d="M 1791 3756 
L 1791 909 
L 2222 909 
Q 2959 909 3348 1275 
Q 3738 1641 3738 2338 
Q 3738 3031 3350 3393 
Q 2963 3756 2222 3756 
L 1791 3756 
z
M 588 4666 
L 1856 4666 
Q 2919 4666 3439 4514 
Q 3959 4363 4331 4000 
Q 4659 3684 4818 3271 
Q 4978 2859 4978 2338 
Q 4978 1809 4818 1395 
Q 4659 981 4331 666 
Q 3956 303 3431 151 
Q 2906 0 1856 0 
L 588 0 
L 588 4666 
z
" transform="scale(0.015625)"/>
      <path id="DejaVuSans-Bold-70" d="M 1656 506 
L 1656 -1331 
L 538 -1331 
L 538 3500 
L 1656 3500 
L 1656 2988 
Q 1888 3294 2169 3439 
Q 2450 3584 2816 3584 
Q 3463 3584 3878 3070 
Q 4294 2556 4294 1747 
Q 4294 938 3878 423 
Q 3463 -91 2816 -91 
Q 2450 -91 2169 54 
Q 1888 200 1656 506 
z
M 2400 2772 
Q 2041 2772 1848 2508 
Q 1656 2244 1656 1747 
Q 1656 1250 1848 986 
Q 2041 722 2400 722 
Q 2759 722 2948 984 
Q 3138 1247 3138 1747 
Q 3138 2247 2948 2509 
Q 2759 2772 2400 2772 
z
" transform="scale(0.015625)"/>
      <path id="DejaVuSans-Bold-68" d="M 4056 2131 
L 4056 0 
L 2931 0 
L 2931 347 
L 2931 1625 
Q 2931 2084 2911 2256 
Q 2891 2428 2841 2509 
Q 2775 2619 2662 2680 
Q 2550 2741 2406 2741 
Q 2056 2741 1856 2470 
Q 1656 2200 1656 1722 
L 1656 0 
L 538 0 
L 538 4863 
L 1656 4863 
L 1656 2988 
Q 1909 3294 2193 3439 
Q 2478 3584 2822 3584 
Q 3428 3584 3742 3212 
Q 4056 2841 4056 2131 
z
" transform="scale(0.015625)"/>
     </defs>
     <use xlink:href="#DejaVuSans-Bold-4d"/>
     <use xlink:href="#DejaVuSans-Bold-65" transform="translate(99.511719 0)"/>
     <use xlink:href="#DejaVuSans-Bold-61" transform="translate(167.333984 0)"/>
     <use xlink:href="#DejaVuSans-Bold-6e" transform="translate(234.814453 0)"/>
     <use xlink:href="#DejaVuSans-Bold-20" transform="translate(306.005859 0)"/>
     <use xlink:href="#DejaVuSans-Bold-4c" transform="translate(340.820312 0)"/>
     <use xlink:href="#DejaVuSans-Bold-61" transform="translate(404.541016 0)"/>
     <use xlink:href="#DejaVuSans-Bold-74" transform="translate(472.021484 0)"/>
     <use xlink:href="#DejaVuSans-Bold-65" transform="translate(519.824219 0)"/>
     <use xlink:href="#DejaVuSans-Bold-6e" transform="translate(587.646484 0)"/>
     <use xlink:href="#DejaVuSans-Bold-63" transform="translate(658.837891 0)"/>
     <use xlink:href="#DejaVuSans-Bold-79" transform="translate(718.115234 0)"/>
     <use xlink:href="#DejaVuSans-Bold-20" transform="translate(783.300781 0)"/>
     <use xlink:href="#DejaVuSans-Bold-76" transform="translate(818.115234 0)"/>
     <use xlink:href="#DejaVuSans-Bold-73" transform="translate(883.300781 0)"/>
     <use xlink:href="#DejaVuSans-Bold-20" transform="translate(942.822266 0)"/>
     <use xlink:href="#DejaVuSans-Bold-49" transform="translate(977.636719 0)"/>
     <use xlink:href="#DejaVuSans-Bold-4f" transform="translate(1014.84375 0)"/>
     <use xlink:href="#DejaVuSans-Bold-20" transform="translate(1099.853516 0)"/>
     <use xlink:href="#DejaVuSans-Bold-44" transform="translate(1134.667969 0)"/>
     <use xlink:href="#DejaVuSans-Bold-65" transform="translate(1217.675781 0)"/>
     <use xlink:href="#DejaVuSans-Bold-70" transform="translate(1285.498047 0)"/>
     <use xlink:href="#DejaVuSans-Bold-74" transform="translate(1357.080078 0)"/>
     <use xlink:href="#DejaVuSans-Bold-68" transform="translate(1404.882812 0)"/>
    </g>
   </g>
   <g id="legend_1">
    <g id="text_21">
     <!-- Number of Jobs -->
     <g style="fill: #262626" transform="translate(394.846875 142.08285) scale(0.1 -0.1)">
      <defs>
       <path id="DejaVuSans-4e" d="M 628 4666 
L 1478 4666 
L 3547 763 
L 3547 4666 
L 4159 4666 
L 4159 0 
L 3309 0 
L 1241 3903 
L 1241 0 
L 628 0 
L 628 4666 
z
" transform="scale(0.015625)"/>
       <path id="DejaVuSans-6d" d="M 3328 2828 
Q 3544 3216 3844 3400 
Q 4144 3584 4550 3584 
Q 5097 3584 5394 3201 
Q 5691 2819 5691 2113 
L 5691 0 
L 5113 0 
L 5113 2094 
Q 5113 2597 4934 2840 
Q 4756 3084 4391 3084 
Q 3944 3084 3684 2787 
Q 3425 2491 3425 1978 
L 3425 0 
L 2847 0 
L 2847 2094 
Q 2847 2600 2669 2842 
Q 2491 3084 2119 3084 
Q 1678 3084 1418 2786 
Q 1159 2488 1159 1978 
L 1159 0 
L 581 0 
L 581 3500 
L 1159 3500 
L 1159 2956 
Q 1356 3278 1631 3431 
Q 1906 3584 2284 3584 
Q 2666 3584 2933 3390 
Q 3200 3197 3328 2828 
z
" transform="scale(0.015625)"/>
       <path id="DejaVuSans-62" d="M 3116 1747 
Q 3116 2381 2855 2742 
Q 2594 3103 2138 3103 
Q 1681 3103 1420 2742 
Q 1159 2381 1159 1747 
Q 1159 1113 1420 752 
Q 1681 391 2138 391 
Q 2594 391 2855 752 
Q 3116 1113 3116 1747 
z
M 1159 2969 
Q 1341 3281 1617 3432 
Q 1894 3584 2278 3584 
Q 2916 3584 3314 3078 
Q 3713 2572 3713 1747 
Q 3713 922 3314 415 
Q 2916 -91 2278 -91 
Q 1894 -91 1617 61 
Q 1341 213 1159 525 
L 1159 0 
L 581 0 
L 581 4863 
L 1159 4863 
L 1159 2969 
z
" transform="scale(0.015625)"/>
       <path id="DejaVuSans-66" d="M 2375 4863 
L 2375 4384 
L 1825 4384 
Q 1516 4384 1395 4259 
Q 1275 4134 1275 3809 
L 1275 3500 
L 2222 3500 
L 2222 3053 
L 1275 3053 
L 1275 0 
L 697 0 
L 697 3053 
L 147 3053 
L 147 3500 
L 697 3500 
L 697 3744 
Q 697 4328 969 4595 
Q 1241 4863 1831 4863 
L 2375 4863 
z
" transform="scale(0.015625)"/>
       <path id="DejaVuSans-4a" d="M 628 4666 
L 1259 4666 
L 1259 325 
Q 1259 -519 939 -900 
Q 619 -1281 -91 -1281 
L -331 -1281 
L -331 -750 
L -134 -750 
Q 284 -750 456 -515 
Q 628 -281 628 325 
L 628 4666 
z
" transform="scale(0.015625)"/>
      </defs>
      <use xlink:href="#DejaVuSans-4e"/>
      <use xlink:href="#DejaVuSans-75" transform="translate(74.804688 0)"/>
      <use xlink:href="#DejaVuSans-6d" transform="translate(138.183594 0)"/>
      <use xlink:href="#DejaVuSans-62" transform="translate(235.595703 0)"/>
      <use xlink:href="#DejaVuSans-65" transform="translate(299.072266 0)"/>
      <use xlink:href="#DejaVuSans-72" transform="translate(360.595703 0)"/>
      <use xlink:href="#DejaVuSans-20" transform="translate(401.708984 0)"/>
      <use xlink:href="#DejaVuSans-6f" transform="translate(433.496094 0)"/>
      <use xlink:href="#DejaVuSans-66" transform="translate(494.677734 0)"/>
      <use xlink:href="#DejaVuSans-20" transform="translate(529.882812 0)"/>
      <use xlink:href="#DejaVuSans-4a" transform="translate(561.669922 0)"/>
      <use xlink:href="#DejaVuSans-6f" transform="translate(591.162109 0)"/>
      <use xlink:href="#DejaVuSans-62" transform="translate(652.34375 0)"/>
      <use xlink:href="#DejaVuSans-73" transform="translate(715.820312 0)"/>
     </g>
    </g>
    <g id="line2d_20">
     <path d="M 409.7 153.260975 
L 419.7 153.260975 
L 429.7 153.260975 
" style="fill: none; stroke: #3b0f70; stroke-width: 1.5; stroke-linecap: round"/>
    </g>
    <g id="text_22">
     <!-- 16 -->
     <g style="fill: #262626" transform="translate(437.7 156.760975) scale(0.1 -0.1)">
      <use xlink:href="#DejaVuSans-31"/>
      <use xlink:href="#DejaVuSans-36" transform="translate(63.623047 0)"/>
     </g>
    </g>
    <g id="line2d_21">
     <path d="M 409.7 167.9391 
L 419.7 167.9391 
L 429.7 167.9391 
" style="fill: none; stroke: #8c2981; stroke-width: 1.5; stroke-linecap: round"/>
    </g>
    <g id="text_23">
     <!-- 32 -->
     <g style="fill: #262626" transform="translate(437.7 171.4391) scale(0.1 -0.1)">
      <use xlink:href="#DejaVuSans-33"/>
      <use xlink:href="#DejaVuSans-32" transform="translate(63.623047 0)"/>
     </g>
    </g>
    <g id="line2d_22">
     <path d="M 409.7 182.617225 
L 419.7 182.617225 
L 429.7 182.617225 
" style="fill: none; stroke: #de4968; stroke-width: 1.5; stroke-linecap: round"/>
    </g>
    <g id="text_24">
     <!-- 64 -->
     <g style="fill: #262626" transform="translate(437.7 186.117225) scale(0.1 -0.1)">
      <use xlink:href="#DejaVuSans-36"/>
      <use xlink:href="#DejaVuSans-34" transform="translate(63.623047 0)"/>
     </g>
    </g>
    <g id="line2d_23">
     <path d="M 409.7 197.29535 
L 419.7 197.29535 
L 429.7 197.29535 
" style="fill: none; stroke: #fe9f6d; stroke-width: 1.5; stroke-linecap: round"/>
    </g>
    <g id="text_25">
     <!-- 128 -->
     <g style="fill: #262626" transform="translate(437.7 200.79535) scale(0.1 -0.1)">
      <use xlink:href="#DejaVuSans-31"/>
      <use xlink:href="#DejaVuSans-32" transform="translate(63.623047 0)"/>
      <use xlink:href="#DejaVuSans-38" transform="translate(127.246094 0)"/>
     </g>
    </g>
   </g>
  </g>
 </g>
 <defs>
  <clipPath id="p555399f5f5">
   <rect x="34.240625" y="35.623725" width="357.12" height="266.112"/>
  </clipPath>
 </defs>
</svg>
