<?xml version="1.0" encoding="utf-8" standalone="no"?>
<!DOCTYPE svg PUBLIC "-//W3C//DTD SVG 1.1//EN"
  "http://www.w3.org/Graphics/SVG/1.1/DTD/svg11.dtd">
<svg xmlns:xlink="http://www.w3.org/1999/xlink" width="492.38125pt" height="339.291975pt" viewBox="0 0 492.38125 339.291975" xmlns="http://www.w3.org/2000/svg" version="1.1">
 <metadata>
  <rdf:RDF xmlns:dc="http://purl.org/dc/elements/1.1/" xmlns:cc="http://creativecommons.org/ns#" xmlns:rdf="http://www.w3.org/1999/02/22-rdf-syntax-ns#">
   <cc:Work>
    <dc:type rdf:resource="http://purl.org/dc/dcmitype/StillImage"/>
    <dc:date>2025-09-11T11:47:24.459278</dc:date>
    <dc:format>image/svg+xml</dc:format>
    <dc:creator>
     <cc:Agent>
      <dc:title>Matplotlib v3.10.6, https://matplotlib.org/</dc:title>
     </cc:Agent>
    </dc:creator>
   </cc:Work>
  </rdf:RDF>
 </metadata>
 <defs>
  <style type="text/css">*{stroke-linejoin: round; stroke-linecap: butt}</style>
 </defs>
 <g id="figure_1">
  <g id="patch_1">
   <path d="M 0 339.291975 
L 492.38125 339.291975 
L 492.38125 0 
L 0 0 
z
" style="fill: #ffffff"/>
  </g>
  <g id="axes_1">
   <g id="patch_2">
    <path d="M 43.78125 301.735725 
L 400.90125 301.735725 
L 400.90125 35.623725 
L 43.78125 35.623725 
z
" style="fill: #ffffff"/>
   </g>
   <g id="matplotlib.axis_1">
    <g id="xtick_1">
     <g id="line2d_1">
      <path d="M 384.668523 301.735725 
L 384.668523 35.623725 
" clip-path="url(#p0c792d4a20)" style="fill: none; stroke: #cccccc; stroke-width: 0.8; stroke-linecap: round"/>
     </g>
     <g id="text_1">
      <!-- 128 -->
      <g style="fill: #262626" transform="translate(375.124773 316.334162) scale(0.1 -0.1)">
       <defs>
        <path id="DejaVuSans-31" d="M 794 531 
L 1825 531 
L 1825 4091 
L 703 3866 
L 703 4441 
L 1819 4666 
L 2450 4666 
L 2450 531 
L 3481 531 
L 3481 0 
L 794 0 
L 794 531 
z
" transform="scale(0.015625)"/>
        <path id="DejaVuSans-32" d="M 1228 531 
L 3431 531 
L 3431 0 
L 469 0 
L 469 531 
Q 828 903 1448 1529 
Q 2069 2156 2228 2338 
Q 2531 2678 2651 2914 
Q 2772 3150 2772 3378 
Q 2772 3750 2511 3984 
Q 2250 4219 1831 4219 
Q 1534 4219 1204 4116 
Q 875 4013 500 3803 
L 500 4441 
Q 881 4594 1212 4672 
Q 1544 4750 1819 4750 
Q 2544 4750 2975 4387 
Q 3406 4025 3406 3419 
Q 3406 3131 3298 2873 
Q 3191 2616 2906 2266 
Q 2828 2175 2409 1742 
Q 1991 1309 1228 531 
z
" transform="scale(0.015625)"/>
        <path id="DejaVuSans-38" d="M 2034 2216 
Q 1584 2216 1326 1975 
Q 1069 1734 1069 1313 
Q 1069 891 1326 650 
Q 1584 409 2034 409 
Q 2484 409 2743 651 
Q 3003 894 3003 1313 
Q 3003 1734 2745 1975 
Q 2488 2216 2034 2216 
z
M 1403 2484 
Q 997 2584 770 2862 
Q 544 3141 544 3541 
Q 544 4100 942 4425 
Q 1341 4750 2034 4750 
Q 2731 4750 3128 4425 
Q 3525 4100 3525 3541 
Q 3525 3141 3298 2862 
Q 3072 2584 2669 2484 
Q 3125 2378 3379 2068 
Q 3634 1759 3634 1313 
Q 3634 634 3220 271 
Q 2806 -91 2034 -91 
Q 1263 -91 848 271 
Q 434 634 434 1313 
Q 434 1759 690 2068 
Q 947 2378 1403 2484 
z
M 1172 3481 
Q 1172 3119 1398 2916 
Q 1625 2713 2034 2713 
Q 2441 2713 2670 2916 
Q 2900 3119 2900 3481 
Q 2900 3844 2670 4047 
Q 2441 4250 2034 4250 
Q 1625 4250 1398 4047 
Q 1172 3844 1172 3481 
z
" transform="scale(0.015625)"/>
       </defs>
       <use xlink:href="#DejaVuSans-31"/>
       <use xlink:href="#DejaVuSans-32" transform="translate(63.623047 0)"/>
       <use xlink:href="#DejaVuSans-38" transform="translate(127.246094 0)"/>
      </g>
     </g>
    </g>
    <g id="xtick_2">
     <g id="line2d_2">
      <path d="M 60.013977 301.735725 
L 60.013977 35.623725 
" clip-path="url(#p0c792d4a20)" style="fill: none; stroke: #cccccc; stroke-width: 0.8; stroke-linecap: round"/>
     </g>
     <g id="text_2">
      <!-- 16 -->
      <g style="fill: #262626" transform="translate(53.651477 316.334162) scale(0.1 -0.1)">
       <defs>
        <path id="DejaVuSans-36" d="M 2113 2584 
Q 1688 2584 1439 2293 
Q 1191 2003 1191 1497 
Q 1191 994 1439 701 
Q 1688 409 2113 409 
Q 2538 409 2786 701 
Q 3034 994 3034 1497 
Q 3034 2003 2786 2293 
Q 2538 2584 2113 2584 
z
M 3366 4563 
L 3366 3988 
Q 3128 4100 2886 4159 
Q 2644 4219 2406 4219 
Q 1781 4219 1451 3797 
Q 1122 3375 1075 2522 
Q 1259 2794 1537 2939 
Q 1816 3084 2150 3084 
Q 2853 3084 3261 2657 
Q 3669 2231 3669 1497 
Q 3669 778 3244 343 
Q 2819 -91 2113 -91 
Q 1303 -91 875 529 
Q 447 1150 447 2328 
Q 447 3434 972 4092 
Q 1497 4750 2381 4750 
Q 2619 4750 2861 4703 
Q 3103 4656 3366 4563 
z
" transform="scale(0.015625)"/>
       </defs>
       <use xlink:href="#DejaVuSans-31"/>
       <use xlink:href="#DejaVuSans-36" transform="translate(63.623047 0)"/>
      </g>
     </g>
    </g>
    <g id="xtick_3">
     <g id="line2d_3">
      <path d="M 106.393198 301.735725 
L 106.393198 35.623725 
" clip-path="url(#p0c792d4a20)" style="fill: none; stroke: #cccccc; stroke-width: 0.8; stroke-linecap: round"/>
     </g>
     <g id="text_3">
      <!-- 32 -->
      <g style="fill: #262626" transform="translate(100.030698 316.334162) scale(0.1 -0.1)">
       <defs>
        <path id="DejaVuSans-33" d="M 2597 2516 
Q 3050 2419 3304 2112 
Q 3559 1806 3559 1356 
Q 3559 666 3084 287 
Q 2609 -91 1734 -91 
Q 1441 -91 1130 -33 
Q 819 25 488 141 
L 488 750 
Q 750 597 1062 519 
Q 1375 441 1716 441 
Q 2309 441 2620 675 
Q 2931 909 2931 1356 
Q 2931 1769 2642 2001 
Q 2353 2234 1838 2234 
L 1294 2234 
L 1294 2753 
L 1863 2753 
Q 2328 2753 2575 2939 
Q 2822 3125 2822 3475 
Q 2822 3834 2567 4026 
Q 2313 4219 1838 4219 
Q 1578 4219 1281 4162 
Q 984 4106 628 3988 
L 628 4550 
Q 988 4650 1302 4700 
Q 1616 4750 1894 4750 
Q 2613 4750 3031 4423 
Q 3450 4097 3450 3541 
Q 3450 3153 3228 2886 
Q 3006 2619 2597 2516 
z
" transform="scale(0.015625)"/>
       </defs>
       <use xlink:href="#DejaVuSans-33"/>
       <use xlink:href="#DejaVuSans-32" transform="translate(63.623047 0)"/>
      </g>
     </g>
    </g>
    <g id="xtick_4">
     <g id="line2d_4">
      <path d="M 199.15164 301.735725 
L 199.15164 35.623725 
" clip-path="url(#p0c792d4a20)" style="fill: none; stroke: #cccccc; stroke-width: 0.8; stroke-linecap: round"/>
     </g>
     <g id="text_4">
      <!-- 64 -->
      <g style="fill: #262626" transform="translate(192.78914 316.334162) scale(0.1 -0.1)">
       <defs>
        <path id="DejaVuSans-34" d="M 2419 4116 
L 825 1625 
L 2419 1625 
L 2419 4116 
z
M 2253 4666 
L 3047 4666 
L 3047 1625 
L 3713 1625 
L 3713 1100 
L 3047 1100 
L 3047 0 
L 2419 0 
L 2419 1100 
L 313 1100 
L 313 1709 
L 2253 4666 
z
" transform="scale(0.015625)"/>
       </defs>
       <use xlink:href="#DejaVuSans-36"/>
       <use xlink:href="#DejaVuSans-34" transform="translate(63.623047 0)"/>
      </g>
     </g>
    </g>
    <g id="text_5">
     <!-- Number of Jobs -->
     <g style="fill: #262626" transform="translate(183.944375 330.012287) scale(0.1 -0.1)">
      <defs>
       <path id="DejaVuSans-4e" d="M 628 4666 
L 1478 4666 
L 3547 763 
L 3547 4666 
L 4159 4666 
L 4159 0 
L 3309 0 
L 1241 3903 
L 1241 0 
L 628 0 
L 628 4666 
z
" transform="scale(0.015625)"/>
       <path id="DejaVuSans-75" d="M 544 1381 
L 544 3500 
L 1119 3500 
L 1119 1403 
Q 1119 906 1312 657 
Q 1506 409 1894 409 
Q 2359 409 2629 706 
Q 2900 1003 2900 1516 
L 2900 3500 
L 3475 3500 
L 3475 0 
L 2900 0 
L 2900 538 
Q 2691 219 2414 64 
Q 2138 -91 1772 -91 
Q 1169 -91 856 284 
Q 544 659 544 1381 
z
M 1991 3584 
L 1991 3584 
z
" transform="scale(0.015625)"/>
       <path id="DejaVuSans-6d" d="M 3328 2828 
Q 3544 3216 3844 3400 
Q 4144 3584 4550 3584 
Q 5097 3584 5394 3201 
Q 5691 2819 5691 2113 
L 5691 0 
L 5113 0 
L 5113 2094 
Q 5113 2597 4934 2840 
Q 4756 3084 4391 3084 
Q 3944 3084 3684 2787 
Q 3425 2491 3425 1978 
L 3425 0 
L 2847 0 
L 2847 2094 
Q 2847 2600 2669 2842 
Q 2491 3084 2119 3084 
Q 1678 3084 1418 2786 
Q 1159 2488 1159 1978 
L 1159 0 
L 581 0 
L 581 3500 
L 1159 3500 
L 1159 2956 
Q 1356 3278 1631 3431 
Q 1906 3584 2284 3584 
Q 2666 3584 2933 3390 
Q 3200 3197 3328 2828 
z
" transform="scale(0.015625)"/>
       <path id="DejaVuSans-62" d="M 3116 1747 
Q 3116 2381 2855 2742 
Q 2594 3103 2138 3103 
Q 1681 3103 1420 2742 
Q 1159 2381 1159 1747 
Q 1159 1113 1420 752 
Q 1681 391 2138 391 
Q 2594 391 2855 752 
Q 3116 1113 3116 1747 
z
M 1159 2969 
Q 1341 3281 1617 3432 
Q 1894 3584 2278 3584 
Q 2916 3584 3314 3078 
Q 3713 2572 3713 1747 
Q 3713 922 3314 415 
Q 2916 -91 2278 -91 
Q 1894 -91 1617 61 
Q 1341 213 1159 525 
L 1159 0 
L 581 0 
L 581 4863 
L 1159 4863 
L 1159 2969 
z
" transform="scale(0.015625)"/>
       <path id="DejaVuSans-65" d="M 3597 1894 
L 3597 1613 
L 953 1613 
Q 991 1019 1311 708 
Q 1631 397 2203 397 
Q 2534 397 2845 478 
Q 3156 559 3463 722 
L 3463 178 
Q 3153 47 2828 -22 
Q 2503 -91 2169 -91 
Q 1331 -91 842 396 
Q 353 884 353 1716 
Q 353 2575 817 3079 
Q 1281 3584 2069 3584 
Q 2775 3584 3186 3129 
Q 3597 2675 3597 1894 
z
M 3022 2063 
Q 3016 2534 2758 2815 
Q 2500 3097 2075 3097 
Q 1594 3097 1305 2825 
Q 1016 2553 972 2059 
L 3022 2063 
z
" transform="scale(0.015625)"/>
       <path id="DejaVuSans-72" d="M 2631 2963 
Q 2534 3019 2420 3045 
Q 2306 3072 2169 3072 
Q 1681 3072 1420 2755 
Q 1159 2438 1159 1844 
L 1159 0 
L 581 0 
L 581 3500 
L 1159 3500 
L 1159 2956 
Q 1341 3275 1631 3429 
Q 1922 3584 2338 3584 
Q 2397 3584 2469 3576 
Q 2541 3569 2628 3553 
L 2631 2963 
z
" transform="scale(0.015625)"/>
       <path id="DejaVuSans-20" transform="scale(0.015625)"/>
       <path id="DejaVuSans-6f" d="M 1959 3097 
Q 1497 3097 1228 2736 
Q 959 2375 959 1747 
Q 959 1119 1226 758 
Q 1494 397 1959 397 
Q 2419 397 2687 759 
Q 2956 1122 2956 1747 
Q 2956 2369 2687 2733 
Q 2419 3097 1959 3097 
z
M 1959 3584 
Q 2709 3584 3137 3096 
Q 3566 2609 3566 1747 
Q 3566 888 3137 398 
Q 2709 -91 1959 -91 
Q 1206 -91 779 398 
Q 353 888 353 1747 
Q 353 2609 779 3096 
Q 1206 3584 1959 3584 
z
" transform="scale(0.015625)"/>
       <path id="DejaVuSans-66" d="M 2375 4863 
L 2375 4384 
L 1825 4384 
Q 1516 4384 1395 4259 
Q 1275 4134 1275 3809 
L 1275 3500 
L 2222 3500 
L 2222 3053 
L 1275 3053 
L 1275 0 
L 697 0 
L 697 3053 
L 147 3053 
L 147 3500 
L 697 3500 
L 697 3744 
Q 697 4328 969 4595 
Q 1241 4863 1831 4863 
L 2375 4863 
z
" transform="scale(0.015625)"/>
       <path id="DejaVuSans-4a" d="M 628 4666 
L 1259 4666 
L 1259 325 
Q 1259 -519 939 -900 
Q 619 -1281 -91 -1281 
L -331 -1281 
L -331 -750 
L -134 -750 
Q 284 -750 456 -515 
Q 628 -281 628 325 
L 628 4666 
z
" transform="scale(0.015625)"/>
       <path id="DejaVuSans-73" d="M 2834 3397 
L 2834 2853 
Q 2591 2978 2328 3040 
Q 2066 3103 1784 3103 
Q 1356 3103 1142 2972 
Q 928 2841 928 2578 
Q 928 2378 1081 2264 
Q 1234 2150 1697 2047 
L 1894 2003 
Q 2506 1872 2764 1633 
Q 3022 1394 3022 966 
Q 3022 478 2636 193 
Q 2250 -91 1575 -91 
Q 1294 -91 989 -36 
Q 684 19 347 128 
L 347 722 
Q 666 556 975 473 
Q 1284 391 1588 391 
Q 1994 391 2212 530 
Q 2431 669 2431 922 
Q 2431 1156 2273 1281 
Q 2116 1406 1581 1522 
L 1381 1569 
Q 847 1681 609 1914 
Q 372 2147 372 2553 
Q 372 3047 722 3315 
Q 1072 3584 1716 3584 
Q 2034 3584 2315 3537 
Q 2597 3491 2834 3397 
z
" transform="scale(0.015625)"/>
      </defs>
      <use xlink:href="#DejaVuSans-4e"/>
      <use xlink:href="#DejaVuSans-75" transform="translate(74.804688 0)"/>
      <use xlink:href="#DejaVuSans-6d" transform="translate(138.183594 0)"/>
      <use xlink:href="#DejaVuSans-62" transform="translate(235.595703 0)"/>
      <use xlink:href="#DejaVuSans-65" transform="translate(299.072266 0)"/>
      <use xlink:href="#DejaVuSans-72" transform="translate(360.595703 0)"/>
      <use xlink:href="#DejaVuSans-20" transform="translate(401.708984 0)"/>
      <use xlink:href="#DejaVuSans-6f" transform="translate(433.496094 0)"/>
      <use xlink:href="#DejaVuSans-66" transform="translate(494.677734 0)"/>
      <use xlink:href="#DejaVuSans-20" transform="translate(529.882812 0)"/>
      <use xlink:href="#DejaVuSans-4a" transform="translate(561.669922 0)"/>
      <use xlink:href="#DejaVuSans-6f" transform="translate(591.162109 0)"/>
      <use xlink:href="#DejaVuSans-62" transform="translate(652.34375 0)"/>
      <use xlink:href="#DejaVuSans-73" transform="translate(715.820312 0)"/>
     </g>
    </g>
   </g>
   <g id="matplotlib.axis_2">
    <g id="ytick_1">
     <g id="line2d_5">
      <path d="M 43.78125 264.634864 
L 400.90125 264.634864 
" clip-path="url(#p0c792d4a20)" style="fill: none; stroke: #cccccc; stroke-width: 0.8; stroke-linecap: round"/>
     </g>
     <g id="text_6">
      <!-- 0.5 -->
      <g style="fill: #262626" transform="translate(20.878125 268.434083) scale(0.1 -0.1)">
       <defs>
        <path id="DejaVuSans-30" d="M 2034 4250 
Q 1547 4250 1301 3770 
Q 1056 3291 1056 2328 
Q 1056 1369 1301 889 
Q 1547 409 2034 409 
Q 2525 409 2770 889 
Q 3016 1369 3016 2328 
Q 3016 3291 2770 3770 
Q 2525 4250 2034 4250 
z
M 2034 4750 
Q 2819 4750 3233 4129 
Q 3647 3509 3647 2328 
Q 3647 1150 3233 529 
Q 2819 -91 2034 -91 
Q 1250 -91 836 529 
Q 422 1150 422 2328 
Q 422 3509 836 4129 
Q 1250 4750 2034 4750 
z
" transform="scale(0.015625)"/>
        <path id="DejaVuSans-2e" d="M 684 794 
L 1344 794 
L 1344 0 
L 684 0 
L 684 794 
z
" transform="scale(0.015625)"/>
        <path id="DejaVuSans-35" d="M 691 4666 
L 3169 4666 
L 3169 4134 
L 1269 4134 
L 1269 2991 
Q 1406 3038 1543 3061 
Q 1681 3084 1819 3084 
Q 2600 3084 3056 2656 
Q 3513 2228 3513 1497 
Q 3513 744 3044 326 
Q 2575 -91 1722 -91 
Q 1428 -91 1123 -41 
Q 819 9 494 109 
L 494 744 
Q 775 591 1075 516 
Q 1375 441 1709 441 
Q 2250 441 2565 725 
Q 2881 1009 2881 1497 
Q 2881 1984 2565 2268 
Q 2250 2553 1709 2553 
Q 1456 2553 1204 2497 
Q 953 2441 691 2322 
L 691 4666 
z
" transform="scale(0.015625)"/>
       </defs>
       <use xlink:href="#DejaVuSans-30"/>
       <use xlink:href="#DejaVuSans-2e" transform="translate(63.623047 0)"/>
       <use xlink:href="#DejaVuSans-35" transform="translate(95.410156 0)"/>
      </g>
     </g>
    </g>
    <g id="ytick_2">
     <g id="line2d_6">
      <path d="M 43.78125 215.176325 
L 400.90125 215.176325 
" clip-path="url(#p0c792d4a20)" style="fill: none; stroke: #cccccc; stroke-width: 0.8; stroke-linecap: round"/>
     </g>
     <g id="text_7">
      <!-- 1.0 -->
      <g style="fill: #262626" transform="translate(20.878125 218.975544) scale(0.1 -0.1)">
       <use xlink:href="#DejaVuSans-31"/>
       <use xlink:href="#DejaVuSans-2e" transform="translate(63.623047 0)"/>
       <use xlink:href="#DejaVuSans-30" transform="translate(95.410156 0)"/>
      </g>
     </g>
    </g>
    <g id="ytick_3">
     <g id="line2d_7">
      <path d="M 43.78125 165.717786 
L 400.90125 165.717786 
" clip-path="url(#p0c792d4a20)" style="fill: none; stroke: #cccccc; stroke-width: 0.8; stroke-linecap: round"/>
     </g>
     <g id="text_8">
      <!-- 1.5 -->
      <g style="fill: #262626" transform="translate(20.878125 169.517005) scale(0.1 -0.1)">
       <use xlink:href="#DejaVuSans-31"/>
       <use xlink:href="#DejaVuSans-2e" transform="translate(63.623047 0)"/>
       <use xlink:href="#DejaVuSans-35" transform="translate(95.410156 0)"/>
      </g>
     </g>
    </g>
    <g id="ytick_4">
     <g id="line2d_8">
      <path d="M 43.78125 116.259247 
L 400.90125 116.259247 
" clip-path="url(#p0c792d4a20)" style="fill: none; stroke: #cccccc; stroke-width: 0.8; stroke-linecap: round"/>
     </g>
     <g id="text_9">
      <!-- 2.0 -->
      <g style="fill: #262626" transform="translate(20.878125 120.058465) scale(0.1 -0.1)">
       <use xlink:href="#DejaVuSans-32"/>
       <use xlink:href="#DejaVuSans-2e" transform="translate(63.623047 0)"/>
       <use xlink:href="#DejaVuSans-30" transform="translate(95.410156 0)"/>
      </g>
     </g>
    </g>
    <g id="ytick_5">
     <g id="line2d_9">
      <path d="M 43.78125 66.800708 
L 400.90125 66.800708 
" clip-path="url(#p0c792d4a20)" style="fill: none; stroke: #cccccc; stroke-width: 0.8; stroke-linecap: round"/>
     </g>
     <g id="text_10">
      <!-- 2.5 -->
      <g style="fill: #262626" transform="translate(20.878125 70.599926) scale(0.1 -0.1)">
       <use xlink:href="#DejaVuSans-32"/>
       <use xlink:href="#DejaVuSans-2e" transform="translate(63.623047 0)"/>
       <use xlink:href="#DejaVuSans-35" transform="translate(95.410156 0)"/>
      </g>
     </g>
    </g>
    <g id="text_11">
     <!-- Mean Latency (ns) -->
     <g style="fill: #262626" transform="translate(14.798438 214.92035) rotate(-90) scale(0.1 -0.1)">
      <defs>
       <path id="DejaVuSans-4d" d="M 628 4666 
L 1569 4666 
L 2759 1491 
L 3956 4666 
L 4897 4666 
L 4897 0 
L 4281 0 
L 4281 4097 
L 3078 897 
L 2444 897 
L 1241 4097 
L 1241 0 
L 628 0 
L 628 4666 
z
" transform="scale(0.015625)"/>
       <path id="DejaVuSans-61" d="M 2194 1759 
Q 1497 1759 1228 1600 
Q 959 1441 959 1056 
Q 959 750 1161 570 
Q 1363 391 1709 391 
Q 2188 391 2477 730 
Q 2766 1069 2766 1631 
L 2766 1759 
L 2194 1759 
z
M 3341 1997 
L 3341 0 
L 2766 0 
L 2766 531 
Q 2569 213 2275 61 
Q 1981 -91 1556 -91 
Q 1019 -91 701 211 
Q 384 513 384 1019 
Q 384 1609 779 1909 
Q 1175 2209 1959 2209 
L 2766 2209 
L 2766 2266 
Q 2766 2663 2505 2880 
Q 2244 3097 1772 3097 
Q 1472 3097 1187 3025 
Q 903 2953 641 2809 
L 641 3341 
Q 956 3463 1253 3523 
Q 1550 3584 1831 3584 
Q 2591 3584 2966 3190 
Q 3341 2797 3341 1997 
z
" transform="scale(0.015625)"/>
       <path id="DejaVuSans-6e" d="M 3513 2113 
L 3513 0 
L 2938 0 
L 2938 2094 
Q 2938 2591 2744 2837 
Q 2550 3084 2163 3084 
Q 1697 3084 1428 2787 
Q 1159 2491 1159 1978 
L 1159 0 
L 581 0 
L 581 3500 
L 1159 3500 
L 1159 2956 
Q 1366 3272 1645 3428 
Q 1925 3584 2291 3584 
Q 2894 3584 3203 3211 
Q 3513 2838 3513 2113 
z
" transform="scale(0.015625)"/>
       <path id="DejaVuSans-4c" d="M 628 4666 
L 1259 4666 
L 1259 531 
L 3531 531 
L 3531 0 
L 628 0 
L 628 4666 
z
" transform="scale(0.015625)"/>
       <path id="DejaVuSans-74" d="M 1172 4494 
L 1172 3500 
L 2356 3500 
L 2356 3053 
L 1172 3053 
L 1172 1153 
Q 1172 725 1289 603 
Q 1406 481 1766 481 
L 2356 481 
L 2356 0 
L 1766 0 
Q 1100 0 847 248 
Q 594 497 594 1153 
L 594 3053 
L 172 3053 
L 172 3500 
L 594 3500 
L 594 4494 
L 1172 4494 
z
" transform="scale(0.015625)"/>
       <path id="DejaVuSans-63" d="M 3122 3366 
L 3122 2828 
Q 2878 2963 2633 3030 
Q 2388 3097 2138 3097 
Q 1578 3097 1268 2742 
Q 959 2388 959 1747 
Q 959 1106 1268 751 
Q 1578 397 2138 397 
Q 2388 397 2633 464 
Q 2878 531 3122 666 
L 3122 134 
Q 2881 22 2623 -34 
Q 2366 -91 2075 -91 
Q 1284 -91 818 406 
Q 353 903 353 1747 
Q 353 2603 823 3093 
Q 1294 3584 2113 3584 
Q 2378 3584 2631 3529 
Q 2884 3475 3122 3366 
z
" transform="scale(0.015625)"/>
       <path id="DejaVuSans-79" d="M 2059 -325 
Q 1816 -950 1584 -1140 
Q 1353 -1331 966 -1331 
L 506 -1331 
L 506 -850 
L 844 -850 
Q 1081 -850 1212 -737 
Q 1344 -625 1503 -206 
L 1606 56 
L 191 3500 
L 800 3500 
L 1894 763 
L 2988 3500 
L 3597 3500 
L 2059 -325 
z
" transform="scale(0.015625)"/>
       <path id="DejaVuSans-28" d="M 1984 4856 
Q 1566 4138 1362 3434 
Q 1159 2731 1159 2009 
Q 1159 1288 1364 580 
Q 1569 -128 1984 -844 
L 1484 -844 
Q 1016 -109 783 600 
Q 550 1309 550 2009 
Q 550 2706 781 3412 
Q 1013 4119 1484 4856 
L 1984 4856 
z
" transform="scale(0.015625)"/>
       <path id="DejaVuSans-29" d="M 513 4856 
L 1013 4856 
Q 1481 4119 1714 3412 
Q 1947 2706 1947 2009 
Q 1947 1309 1714 600 
Q 1481 -109 1013 -844 
L 513 -844 
Q 928 -128 1133 580 
Q 1338 1288 1338 2009 
Q 1338 2731 1133 3434 
Q 928 4138 513 4856 
z
" transform="scale(0.015625)"/>
      </defs>
      <use xlink:href="#DejaVuSans-4d"/>
      <use xlink:href="#DejaVuSans-65" transform="translate(86.279297 0)"/>
      <use xlink:href="#DejaVuSans-61" transform="translate(147.802734 0)"/>
      <use xlink:href="#DejaVuSans-6e" transform="translate(209.082031 0)"/>
      <use xlink:href="#DejaVuSans-20" transform="translate(272.460938 0)"/>
      <use xlink:href="#DejaVuSans-4c" transform="translate(304.248047 0)"/>
      <use xlink:href="#DejaVuSans-61" transform="translate(359.960938 0)"/>
      <use xlink:href="#DejaVuSans-74" transform="translate(421.240234 0)"/>
      <use xlink:href="#DejaVuSans-65" transform="translate(460.449219 0)"/>
      <use xlink:href="#DejaVuSans-6e" transform="translate(521.972656 0)"/>
      <use xlink:href="#DejaVuSans-63" transform="translate(585.351562 0)"/>
      <use xlink:href="#DejaVuSans-79" transform="translate(640.332031 0)"/>
      <use xlink:href="#DejaVuSans-20" transform="translate(699.511719 0)"/>
      <use xlink:href="#DejaVuSans-28" transform="translate(731.298828 0)"/>
      <use xlink:href="#DejaVuSans-6e" transform="translate(770.3125 0)"/>
      <use xlink:href="#DejaVuSans-73" transform="translate(833.691406 0)"/>
      <use xlink:href="#DejaVuSans-29" transform="translate(885.791016 0)"/>
     </g>
    </g>
    <g id="text_12">
     <!-- 1e6 -->
     <g style="fill: #262626" transform="translate(43.78125 32.623725) scale(0.1 -0.1)">
      <use xlink:href="#DejaVuSans-31"/>
      <use xlink:href="#DejaVuSans-65" transform="translate(63.623047 0)"/>
      <use xlink:href="#DejaVuSans-36" transform="translate(125.146484 0)"/>
     </g>
    </g>
   </g>
   <g id="FillBetweenPolyCollection_1"/>
   <g id="FillBetweenPolyCollection_2"/>
   <g id="FillBetweenPolyCollection_3"/>
   <g id="FillBetweenPolyCollection_4"/>
   <g id="FillBetweenPolyCollection_5"/>
   <g id="FillBetweenPolyCollection_6"/>
   <g id="FillBetweenPolyCollection_7"/>
   <g id="line2d_10">
    <path d="M 60.013977 289.639725 
L 106.393198 266.837644 
L 199.15164 211.942126 
L 384.668523 47.719725 
" clip-path="url(#p0c792d4a20)" style="fill: none; stroke: #4c02a1; stroke-width: 1.5; stroke-linecap: round"/>
   </g>
   <g id="line2d_11">
    <path d="M 60.013977 288.217187 
L 106.393198 267.201908 
L 199.15164 226.091116 
L 384.668523 107.510996 
" clip-path="url(#p0c792d4a20)" style="fill: none; stroke: #7e03a8; stroke-width: 1.5; stroke-linecap: round"/>
   </g>
   <g id="line2d_12">
    <path d="M 60.013977 283.761349 
L 106.393198 275.134843 
L 199.15164 194.202275 
L 384.668523 55.93845 
" clip-path="url(#p0c792d4a20)" style="fill: none; stroke: #aa2395; stroke-width: 1.5; stroke-linecap: round"/>
   </g>
   <g id="line2d_13">
    <path d="M 60.013977 283.573092 
L 106.393198 264.912933 
L 199.15164 225.98812 
L 384.668523 110.531407 
" clip-path="url(#p0c792d4a20)" style="fill: none; stroke: #cc4778; stroke-width: 1.5; stroke-linecap: round"/>
   </g>
   <g id="line2d_14">
    <path d="M 60.013977 285.989686 
L 106.393198 274.378066 
L 199.15164 226.745711 
L 384.668523 107.111906 
" clip-path="url(#p0c792d4a20)" style="fill: none; stroke: #e66c5c; stroke-width: 1.5; stroke-linecap: round"/>
   </g>
   <g id="line2d_15">
    <path d="M 60.013977 286.021882 
L 106.393198 271.606416 
L 199.15164 222.065697 
L 384.668523 106.751975 
" clip-path="url(#p0c792d4a20)" style="fill: none; stroke: #f89540; stroke-width: 1.5; stroke-linecap: round"/>
   </g>
   <g id="line2d_16">
    <path d="M 60.013977 287.42481 
L 106.393198 259.450079 
L 199.15164 223.171072 
L 384.668523 109.688611 
" clip-path="url(#p0c792d4a20)" style="fill: none; stroke: #fdc527; stroke-width: 1.5; stroke-linecap: round"/>
   </g>
   <g id="line2d_17"/>
   <g id="line2d_18"/>
   <g id="line2d_19"/>
   <g id="line2d_20"/>
   <g id="line2d_21"/>
   <g id="line2d_22"/>
   <g id="line2d_23"/>
   <g id="text_13">
    <path d="M 100.923108 271.677277 
L 102.368774 270.966523 
L 99.914572 265.9747 
L 98.496417 267.063681 
L 98.100022 266.257418 
L 99.509764 265.172573 
L 100.394551 264.737572 
L 103.245147 270.535659 
L 104.690813 269.824906 
L 105.056875 270.569473 
L 101.28917 272.421843 
L 100.923108 271.677277 
z
" clip-path="url(#p0c792d4a20)" style="fill: #4c02a1; stroke: #ffffff; stroke-width: 5"/>
    <path d="M 100.923108 271.677277 
L 102.368774 270.966523 
L 99.914572 265.9747 
L 98.496417 267.063681 
L 98.100022 266.257418 
L 99.509764 265.172573 
L 100.394551 264.737572 
L 103.245147 270.535659 
L 104.690813 269.824906 
L 105.056875 270.569473 
L 101.28917 272.421843 
L 100.923108 271.677277 
z
" clip-path="url(#p0c792d4a20)" style="fill: #4c02a1"/>
   </g>
   <g id="text_14">
    <path d="M 141.048553 247.826213 
L 140.348619 252.393754 
L 142.625629 251.384577 
L 141.048553 247.826213 
z
M 140.463214 247.145641 
L 141.597433 246.642952 
L 143.52272 250.986984 
L 144.474093 250.565333 
L 144.806476 251.315289 
L 143.855103 251.73694 
L 144.551523 253.308277 
L 143.654433 253.70587 
L 142.958012 252.134533 
L 139.949616 253.467863 
L 139.564052 252.597913 
L 140.463214 247.145641 
z
" clip-path="url(#p0c792d4a20)" style="fill: #7e03a8; stroke: #ffffff; stroke-width: 5"/>
    <path d="M 141.048553 247.826213 
L 140.348619 252.393754 
L 142.625629 251.384577 
L 141.048553 247.826213 
z
M 140.463214 247.145641 
L 141.597433 246.642952 
L 143.52272 250.986984 
L 144.474093 250.565333 
L 144.806476 251.315289 
L 143.855103 251.73694 
L 144.551523 253.308277 
L 143.654433 253.70587 
L 142.958012 252.134533 
L 139.949616 253.467863 
L 139.564052 252.597913 
L 140.463214 247.145641 
z
" clip-path="url(#p0c792d4a20)" style="fill: #7e03a8"/>
   </g>
   <g id="text_15">
    <path d="M 181.700632 208.495297 
Q 181.170823 208.95756 181.114634 209.506333 
Q 181.059621 210.054079 181.492094 210.549745 
Q 181.925594 211.046588 182.475742 211.066327 
Q 183.027066 211.085038 183.556875 210.622775 
Q 184.086684 210.160512 184.143024 209.609534 
Q 184.199514 209.056352 183.769096 208.563041 
Q 183.336623 208.067375 182.785298 208.048664 
Q 182.235151 208.028925 181.700632 208.495297 
z
M 180.682419 208.827962 
Q 180.101688 209.127291 179.548853 209.033173 
Q 178.996168 208.93685 178.585268 208.465908 
Q 178.011034 207.807768 178.145764 207.016282 
Q 178.281671 206.223769 179.097577 205.511884 
Q 179.918193 204.79589 180.719459 204.770711 
Q 181.520725 204.745532 182.094958 205.403672 
Q 182.505859 205.874614 182.525203 206.436281 
Q 182.544697 206.995744 182.172948 207.527462 
Q 182.81871 207.183835 183.436206 207.287893 
Q 184.053851 207.389746 184.512006 207.914845 
Q 185.209509 208.714268 185.094977 209.56693 
Q 184.979418 210.418413 184.070501 211.211451 
Q 183.162762 212.003462 182.302295 212.00357 
Q 181.441978 212.001472 180.744475 211.202049 
Q 180.286321 210.67695 180.270302 210.050171 
Q 180.254434 209.421188 180.682419 208.827962 
z
M 179.386281 207.891436 
Q 179.758146 208.317638 180.23276 208.324482 
Q 180.708551 208.330298 181.190088 207.910153 
Q 181.669271 207.492061 181.730353 207.017818 
Q 181.792612 206.542548 181.420747 206.116346 
Q 181.047855 205.688966 180.568532 205.686231 
Q 180.090386 205.682469 179.611203 206.10056 
Q 179.129665 206.520706 179.070938 206.992895 
Q 179.013388 207.464057 179.386281 207.891436 
z
" clip-path="url(#p0c792d4a20)" style="fill: #aa2395; stroke: #ffffff; stroke-width: 5"/>
    <path d="M 181.700632 208.495297 
Q 181.170823 208.95756 181.114634 209.506333 
Q 181.059621 210.054079 181.492094 210.549745 
Q 181.925594 211.046588 182.475742 211.066327 
Q 183.027066 211.085038 183.556875 210.622775 
Q 184.086684 210.160512 184.143024 209.609534 
Q 184.199514 209.056352 183.769096 208.563041 
Q 183.336623 208.067375 182.785298 208.048664 
Q 182.235151 208.028925 181.700632 208.495297 
z
M 180.682419 208.827962 
Q 180.101688 209.127291 179.548853 209.033173 
Q 178.996168 208.93685 178.585268 208.465908 
Q 178.011034 207.807768 178.145764 207.016282 
Q 178.281671 206.223769 179.097577 205.511884 
Q 179.918193 204.79589 180.719459 204.770711 
Q 181.520725 204.745532 182.094958 205.403672 
Q 182.505859 205.874614 182.525203 206.436281 
Q 182.544697 206.995744 182.172948 207.527462 
Q 182.81871 207.183835 183.436206 207.287893 
Q 184.053851 207.389746 184.512006 207.914845 
Q 185.209509 208.714268 185.094977 209.56693 
Q 184.979418 210.418413 184.070501 211.211451 
Q 183.162762 212.003462 182.302295 212.00357 
Q 181.441978 212.001472 180.744475 211.202049 
Q 180.286321 210.67695 180.270302 210.050171 
Q 180.254434 209.421188 180.682419 208.827962 
z
M 179.386281 207.891436 
Q 179.758146 208.317638 180.23276 208.324482 
Q 180.708551 208.330298 181.190088 207.910153 
Q 181.669271 207.492061 181.730353 207.017818 
Q 181.792612 206.542548 181.420747 206.116346 
Q 181.047855 205.688966 180.568532 205.686231 
Q 180.090386 205.682469 179.611203 206.10056 
Q 179.129665 206.520706 179.070938 206.992895 
Q 179.013388 207.464057 179.386281 207.891436 
z
" clip-path="url(#p0c792d4a20)" style="fill: #aa2395"/>
   </g>
   <g id="text_16">
    <path d="M 219.012351 215.900651 
L 220.380048 215.049462 
L 217.440929 210.326859 
L 216.138272 211.551656 
L 215.663555 210.788876 
L 216.958252 209.569032 
L 217.79532 209.048082 
L 221.209157 214.533465 
L 222.576855 213.682276 
L 223.015246 214.386687 
L 219.450742 216.605062 
L 219.012351 215.900651 
z
M 224.468798 208.726513 
Q 223.905004 209.077391 223.814935 209.668998 
Q 223.725368 210.258452 224.143119 210.929698 
Q 224.558393 211.596965 225.129283 211.780903 
Q 225.700674 211.96269 226.264468 211.611812 
Q 226.828262 211.260934 226.916178 210.668826 
Q 227.003269 210.075393 226.587995 209.408126 
Q 226.170244 208.736879 225.601831 208.556921 
Q 225.032592 208.375635 224.468798 208.726513 
z
M 224.497142 205.066752 
L 224.971859 205.829532 
Q 224.563668 205.877448 224.193927 205.998974 
Q 223.82336 206.119174 223.507636 206.315665 
Q 222.678527 206.831662 222.589159 207.663923 
Q 222.501117 208.495358 223.143001 209.665729 
Q 223.162529 209.152991 223.411605 208.731122 
Q 223.662008 208.308428 224.105084 208.032679 
Q 225.037665 207.452286 225.931437 207.68189 
Q 226.824382 207.910168 227.430369 208.883873 
Q 228.023972 209.83768 227.819312 210.765617 
Q 227.613827 211.692228 226.677266 212.275099 
Q 225.602741 212.943831 224.523098 212.47471 
Q 223.442629 212.004262 222.470078 210.441558 
Q 221.55697 208.974367 221.710179 207.668044 
Q 221.863389 206.361721 223.03608 205.631894 
Q 223.351805 205.435403 223.711639 205.297958 
Q 224.071473 205.160513 224.497142 205.066752 
z
" clip-path="url(#p0c792d4a20)" style="fill: #cc4778; stroke: #ffffff; stroke-width: 5"/>
    <path d="M 219.012351 215.900651 
L 220.380048 215.049462 
L 217.440929 210.326859 
L 216.138272 211.551656 
L 215.663555 210.788876 
L 216.958252 209.569032 
L 217.79532 209.048082 
L 221.209157 214.533465 
L 222.576855 213.682276 
L 223.015246 214.386687 
L 219.450742 216.605062 
L 219.012351 215.900651 
z
M 224.468798 208.726513 
Q 223.905004 209.077391 223.814935 209.668998 
Q 223.725368 210.258452 224.143119 210.929698 
Q 224.558393 211.596965 225.129283 211.780903 
Q 225.700674 211.96269 226.264468 211.611812 
Q 226.828262 211.260934 226.916178 210.668826 
Q 227.003269 210.075393 226.587995 209.408126 
Q 226.170244 208.736879 225.601831 208.556921 
Q 225.032592 208.375635 224.468798 208.726513 
z
M 224.497142 205.066752 
L 224.971859 205.829532 
Q 224.563668 205.877448 224.193927 205.998974 
Q 223.82336 206.119174 223.507636 206.315665 
Q 222.678527 206.831662 222.589159 207.663923 
Q 222.501117 208.495358 223.143001 209.665729 
Q 223.162529 209.152991 223.411605 208.731122 
Q 223.662008 208.308428 224.105084 208.032679 
Q 225.037665 207.452286 225.931437 207.68189 
Q 226.824382 207.910168 227.430369 208.883873 
Q 228.023972 209.83768 227.819312 210.765617 
Q 227.613827 211.692228 226.677266 212.275099 
Q 225.602741 212.943831 224.523098 212.47471 
Q 223.442629 212.004262 222.470078 210.441558 
Q 221.55697 208.974367 221.710179 207.668044 
Q 221.863389 206.361721 223.03608 205.631894 
Q 223.351805 205.435403 223.711639 205.297958 
Q 224.071473 205.160513 224.497142 205.066752 
z
" clip-path="url(#p0c792d4a20)" style="fill: #cc4778"/>
   </g>
   <g id="text_17">
    <path d="M 259.945269 186.147466 
Q 260.622261 185.89124 261.215766 186.079286 
Q 261.809738 186.265173 262.190798 186.856086 
Q 262.77509 187.762152 262.472287 188.662062 
Q 262.168636 189.560659 261.01964 190.301609 
Q 260.63489 190.549722 260.177389 190.736915 
Q 259.719888 190.924108 259.18701 191.052075 
L 258.671309 190.252373 
Q 259.144912 190.231422 259.620661 190.069645 
Q 260.097725 189.907021 260.545505 189.618262 
Q 261.324197 189.116109 261.534431 188.545479 
Q 261.744666 187.97485 261.366146 187.387876 
Q 261.016418 186.84555 260.440463 186.785627 
Q 259.863661 186.724391 259.187394 187.160493 
L 258.473046 187.621153 
L 258.033557 186.939634 
L 258.780733 186.457804 
Q 259.391343 186.064042 259.558183 185.610638 
Q 259.725024 185.157234 259.428643 184.697636 
Q 259.124642 184.226219 258.627206 184.19003 
Q 258.130236 184.151682 257.506495 184.553912 
Q 257.165078 184.77408 256.823344 185.100429 
Q 256.480762 185.425465 256.113207 185.881876 
L 255.637305 185.143892 
Q 256.025355 184.70773 256.395341 184.376177 
Q 256.765326 184.044625 257.130379 183.809214 
Q 258.074526 183.200365 258.900322 183.275798 
Q 259.726585 183.349072 260.197406 184.079178 
Q 260.525965 184.588676 260.460544 185.127274 
Q 260.395122 185.665872 259.945269 186.147466 
z
M 265.17542 186.465251 
L 268.068266 184.599749 
L 268.517917 185.297026 
L 264.628398 187.80525 
L 264.178747 187.107973 
Q 264.335154 186.315484 264.619203 184.968442 
Q 264.903719 183.61924 264.95839 183.245608 
Q 265.068359 182.54256 265.026091 182.131043 
Q 264.985136 181.718679 264.792065 181.419283 
Q 264.477055 180.930795 263.936174 180.844536 
Q 263.394447 180.756963 262.844241 181.111773 
Q 262.454239 181.363273 262.108124 181.77797 
Q 261.763321 182.191821 261.448722 182.78513 
L 260.908463 181.947348 
Q 261.279209 181.423806 261.647808 181.04109 
Q 262.017719 180.657528 262.378833 180.424657 
Q 263.330859 179.810727 264.20421 179.922425 
Q 265.076715 180.03281 265.589876 180.828573 
Q 265.833755 181.206757 265.910411 181.637001 
Q 265.987533 182.065086 265.909668 182.766023 
Q 265.884302 182.951569 265.700762 183.874968 
Q 265.518534 184.79752 265.17542 186.465251 
z
" clip-path="url(#p0c792d4a20)" style="fill: #e66c5c; stroke: #ffffff; stroke-width: 5"/>
    <path d="M 259.945269 186.147466 
Q 260.622261 185.89124 261.215766 186.079286 
Q 261.809738 186.265173 262.190798 186.856086 
Q 262.77509 187.762152 262.472287 188.662062 
Q 262.168636 189.560659 261.01964 190.301609 
Q 260.63489 190.549722 260.177389 190.736915 
Q 259.719888 190.924108 259.18701 191.052075 
L 258.671309 190.252373 
Q 259.144912 190.231422 259.620661 190.069645 
Q 260.097725 189.907021 260.545505 189.618262 
Q 261.324197 189.116109 261.534431 188.545479 
Q 261.744666 187.97485 261.366146 187.387876 
Q 261.016418 186.84555 260.440463 186.785627 
Q 259.863661 186.724391 259.187394 187.160493 
L 258.473046 187.621153 
L 258.033557 186.939634 
L 258.780733 186.457804 
Q 259.391343 186.064042 259.558183 185.610638 
Q 259.725024 185.157234 259.428643 184.697636 
Q 259.124642 184.226219 258.627206 184.19003 
Q 258.130236 184.151682 257.506495 184.553912 
Q 257.165078 184.77408 256.823344 185.100429 
Q 256.480762 185.425465 256.113207 185.881876 
L 255.637305 185.143892 
Q 256.025355 184.70773 256.395341 184.376177 
Q 256.765326 184.044625 257.130379 183.809214 
Q 258.074526 183.200365 258.900322 183.275798 
Q 259.726585 183.349072 260.197406 184.079178 
Q 260.525965 184.588676 260.460544 185.127274 
Q 260.395122 185.665872 259.945269 186.147466 
z
M 265.17542 186.465251 
L 268.068266 184.599749 
L 268.517917 185.297026 
L 264.628398 187.80525 
L 264.178747 187.107973 
Q 264.335154 186.315484 264.619203 184.968442 
Q 264.903719 183.61924 264.95839 183.245608 
Q 265.068359 182.54256 265.026091 182.131043 
Q 264.985136 181.718679 264.792065 181.419283 
Q 264.477055 180.930795 263.936174 180.844536 
Q 263.394447 180.756963 262.844241 181.111773 
Q 262.454239 181.363273 262.108124 181.77797 
Q 261.763321 182.191821 261.448722 182.78513 
L 260.908463 181.947348 
Q 261.279209 181.423806 261.647808 181.04109 
Q 262.017719 180.657528 262.378833 180.424657 
Q 263.330859 179.810727 264.20421 179.922425 
Q 265.076715 180.03281 265.589876 180.828573 
Q 265.833755 181.206757 265.910411 181.637001 
Q 265.987533 182.065086 265.909668 182.766023 
Q 265.884302 182.951569 265.700762 183.874968 
Q 265.518534 184.79752 265.17542 186.465251 
z
" clip-path="url(#p0c792d4a20)" style="fill: #e66c5c"/>
   </g>
   <g id="text_18">
    <path d="M 299.418859 158.23661 
Q 298.85487 158.587175 298.764473 159.178731 
Q 298.674578 159.768135 299.091956 160.439613 
Q 299.506859 161.107111 300.077647 161.291367 
Q 300.648936 161.473471 301.212925 161.122906 
Q 301.776914 160.772341 301.86516 160.180283 
Q 301.95258 159.586898 301.537677 158.9194 
Q 301.120299 158.247922 300.551986 158.067647 
Q 299.982848 157.886045 299.418859 158.23661 
z
M 299.449237 154.576865 
L 299.923531 155.339909 
Q 299.515313 155.387598 299.145504 155.508918 
Q 298.774871 155.628912 298.459037 155.825228 
Q 297.629642 156.340764 297.539811 157.172975 
Q 297.451307 158.004361 298.092541 159.175088 
Q 298.112353 158.662362 298.361664 158.240631 
Q 298.612302 157.818076 299.055531 157.542574 
Q 299.988434 156.962699 300.882078 157.1928 
Q 301.774897 157.421573 302.380343 158.395615 
Q 302.973415 159.349752 302.76824 160.277576 
Q 302.562239 161.204073 301.625354 161.786422 
Q 300.550458 162.454557 299.471076 161.984836 
Q 298.390869 161.513788 297.419187 159.950544 
Q 296.506894 158.482845 296.660829 157.176608 
Q 296.814765 155.87037 297.987862 155.141195 
Q 298.303695 154.944879 298.663606 154.807634 
Q 299.023516 154.670389 299.449237 154.576865 
z
M 303.96476 152.592471 
L 303.904191 157.212933 
L 306.019481 155.898109 
L 303.96476 152.592471 
z
M 303.290801 151.999529 
L 304.344465 151.344592 
L 306.852858 155.380098 
L 307.736661 154.830743 
L 308.169712 155.527435 
L 307.285908 156.076791 
L 308.193252 157.536527 
L 307.359875 158.054537 
L 306.452531 156.594801 
L 303.657801 158.331952 
L 303.155462 157.523789 
L 303.290801 151.999529 
z
" clip-path="url(#p0c792d4a20)" style="fill: #f89540; stroke: #ffffff; stroke-width: 5"/>
    <path d="M 299.418859 158.23661 
Q 298.85487 158.587175 298.764473 159.178731 
Q 298.674578 159.768135 299.091956 160.439613 
Q 299.506859 161.107111 300.077647 161.291367 
Q 300.648936 161.473471 301.212925 161.122906 
Q 301.776914 160.772341 301.86516 160.180283 
Q 301.95258 159.586898 301.537677 158.9194 
Q 301.120299 158.247922 300.551986 158.067647 
Q 299.982848 157.886045 299.418859 158.23661 
z
M 299.449237 154.576865 
L 299.923531 155.339909 
Q 299.515313 155.387598 299.145504 155.508918 
Q 298.774871 155.628912 298.459037 155.825228 
Q 297.629642 156.340764 297.539811 157.172975 
Q 297.451307 158.004361 298.092541 159.175088 
Q 298.112353 158.662362 298.361664 158.240631 
Q 298.612302 157.818076 299.055531 157.542574 
Q 299.988434 156.962699 300.882078 157.1928 
Q 301.774897 157.421573 302.380343 158.395615 
Q 302.973415 159.349752 302.76824 160.277576 
Q 302.562239 161.204073 301.625354 161.786422 
Q 300.550458 162.454557 299.471076 161.984836 
Q 298.390869 161.513788 297.419187 159.950544 
Q 296.506894 158.482845 296.660829 157.176608 
Q 296.814765 155.87037 297.987862 155.141195 
Q 298.303695 154.944879 298.663606 154.807634 
Q 299.023516 154.670389 299.449237 154.576865 
z
M 303.96476 152.592471 
L 303.904191 157.212933 
L 306.019481 155.898109 
L 303.96476 152.592471 
z
M 303.290801 151.999529 
L 304.344465 151.344592 
L 306.852858 155.380098 
L 307.736661 154.830743 
L 308.169712 155.527435 
L 307.285908 156.076791 
L 308.193252 157.536527 
L 307.359875 158.054537 
L 306.452531 156.594801 
L 303.657801 158.331952 
L 303.155462 157.523789 
L 303.290801 151.999529 
z
" clip-path="url(#p0c792d4a20)" style="fill: #f89540"/>
   </g>
   <g id="text_19">
    <path d="M 336.793184 141.236508 
L 338.167402 140.395886 
L 335.264768 135.65077 
L 333.95271 136.86549 
L 333.483886 136.099074 
L 334.787947 134.889246 
L 335.629005 134.374762 
L 339.000463 139.886294 
L 340.37468 139.045672 
L 340.807629 139.753441 
L 337.226133 141.944277 
L 336.793184 141.236508 
z
M 342.799055 137.562659 
L 345.735429 135.766451 
L 346.168378 136.47422 
L 342.220334 138.889276 
L 341.787385 138.181507 
Q 341.962587 137.39296 342.278577 136.053051 
Q 342.595084 134.710994 342.658622 134.338766 
Q 342.785272 133.638531 342.752798 133.226126 
Q 342.721657 132.812905 342.535758 132.509004 
Q 342.232449 132.013166 341.693772 131.914074 
Q 341.154279 131.813648 340.595795 132.155278 
Q 340.199924 132.397436 339.844048 132.803789 
Q 339.489506 133.209326 339.160892 133.79499 
L 338.640701 132.944601 
Q 339.023787 132.43002 339.401379 132.056175 
Q 339.780304 131.681514 340.146851 131.457294 
Q 341.113202 130.866167 341.983652 130.998595 
Q 342.853286 131.12969 343.347386 131.937426 
Q 343.582206 132.3213 343.648612 132.753245 
Q 343.715536 133.183042 343.621031 133.88193 
Q 343.591262 134.066821 343.385823 134.985596 
Q 343.181716 135.903555 342.799055 137.562659 
z
M 347.926905 131.339568 
Q 347.327101 131.706474 347.179712 132.238062 
Q 347.033655 132.768834 347.376916 133.329984 
Q 347.720992 133.892467 348.260046 134.004152 
Q 348.800432 134.115021 349.400236 133.748115 
Q 350.00004 133.381209 350.147947 132.847473 
Q 350.296371 132.311589 349.954741 131.753105 
Q 349.61148 131.191955 349.071094 131.081086 
Q 348.53204 130.969401 347.926905 131.339568 
z
M 346.867334 131.496835 
Q 346.244642 131.694576 345.715408 131.509114 
Q 345.186692 131.321504 344.860553 130.788345 
Q 344.404775 130.043255 344.67028 129.285555 
Q 344.937119 128.527041 345.860817 127.962005 
Q 346.789847 127.393709 347.583995 127.503208 
Q 348.378143 127.612708 348.833922 128.357797 
Q 349.16006 128.890957 349.084974 129.447919 
Q 349.010405 130.002733 348.554782 130.464607 
Q 349.24901 130.234096 349.840324 130.440196 
Q 350.432155 130.644149 350.795799 131.238621 
Q 351.349419 132.143659 351.09357 132.965054 
Q 350.836906 133.785116 349.807909 134.414564 
Q 348.780245 135.043196 347.931937 134.899055 
Q 347.084146 134.752767 346.530526 133.847729 
Q 346.166882 133.253257 346.256162 132.632663 
Q 346.345959 132.009921 346.867334 131.496835 
z
M 345.746534 130.356281 
Q 346.041689 130.83879 346.508439 130.9251 
Q 346.976523 131.010595 347.521678 130.677118 
Q 348.064167 130.345272 348.203885 129.88798 
Q 348.344937 129.429872 348.049781 128.947363 
Q 347.75381 128.463521 347.281729 128.380472 
Q 346.81098 128.296608 346.26849 128.628454 
Q 345.723335 128.961931 345.586283 129.417593 
Q 345.450563 129.872439 345.746534 130.356281 
z
" clip-path="url(#p0c792d4a20)" style="fill: #fdc527; stroke: #ffffff; stroke-width: 5"/>
    <path d="M 336.793184 141.236508 
L 338.167402 140.395886 
L 335.264768 135.65077 
L 333.95271 136.86549 
L 333.483886 136.099074 
L 334.787947 134.889246 
L 335.629005 134.374762 
L 339.000463 139.886294 
L 340.37468 139.045672 
L 340.807629 139.753441 
L 337.226133 141.944277 
L 336.793184 141.236508 
z
M 342.799055 137.562659 
L 345.735429 135.766451 
L 346.168378 136.47422 
L 342.220334 138.889276 
L 341.787385 138.181507 
Q 341.962587 137.39296 342.278577 136.053051 
Q 342.595084 134.710994 342.658622 134.338766 
Q 342.785272 133.638531 342.752798 133.226126 
Q 342.721657 132.812905 342.535758 132.509004 
Q 342.232449 132.013166 341.693772 131.914074 
Q 341.154279 131.813648 340.595795 132.155278 
Q 340.199924 132.397436 339.844048 132.803789 
Q 339.489506 133.209326 339.160892 133.79499 
L 338.640701 132.944601 
Q 339.023787 132.43002 339.401379 132.056175 
Q 339.780304 131.681514 340.146851 131.457294 
Q 341.113202 130.866167 341.983652 130.998595 
Q 342.853286 131.12969 343.347386 131.937426 
Q 343.582206 132.3213 343.648612 132.753245 
Q 343.715536 133.183042 343.621031 133.88193 
Q 343.591262 134.066821 343.385823 134.985596 
Q 343.181716 135.903555 342.799055 137.562659 
z
M 347.926905 131.339568 
Q 347.327101 131.706474 347.179712 132.238062 
Q 347.033655 132.768834 347.376916 133.329984 
Q 347.720992 133.892467 348.260046 134.004152 
Q 348.800432 134.115021 349.400236 133.748115 
Q 350.00004 133.381209 350.147947 132.847473 
Q 350.296371 132.311589 349.954741 131.753105 
Q 349.61148 131.191955 349.071094 131.081086 
Q 348.53204 130.969401 347.926905 131.339568 
z
M 346.867334 131.496835 
Q 346.244642 131.694576 345.715408 131.509114 
Q 345.186692 131.321504 344.860553 130.788345 
Q 344.404775 130.043255 344.67028 129.285555 
Q 344.937119 128.527041 345.860817 127.962005 
Q 346.789847 127.393709 347.583995 127.503208 
Q 348.378143 127.612708 348.833922 128.357797 
Q 349.16006 128.890957 349.084974 129.447919 
Q 349.010405 130.002733 348.554782 130.464607 
Q 349.24901 130.234096 349.840324 130.440196 
Q 350.432155 130.644149 350.795799 131.238621 
Q 351.349419 132.143659 351.09357 132.965054 
Q 350.836906 133.785116 349.807909 134.414564 
Q 348.780245 135.043196 347.931937 134.899055 
Q 347.084146 134.752767 346.530526 133.847729 
Q 346.166882 133.253257 346.256162 132.632663 
Q 346.345959 132.009921 346.867334 131.496835 
z
M 345.746534 130.356281 
Q 346.041689 130.83879 346.508439 130.9251 
Q 346.976523 131.010595 347.521678 130.677118 
Q 348.064167 130.345272 348.203885 129.88798 
Q 348.344937 129.429872 348.049781 128.947363 
Q 347.75381 128.463521 347.281729 128.380472 
Q 346.81098 128.296608 346.26849 128.628454 
Q 345.723335 128.961931 345.586283 129.417593 
Q 345.450563 129.872439 345.746534 130.356281 
z
" clip-path="url(#p0c792d4a20)" style="fill: #fdc527"/>
   </g>
   <g id="patch_3">
    <path d="M 43.78125 301.735725 
L 43.78125 35.623725 
" style="fill: none; stroke: #cccccc; stroke-width: 0.8; stroke-linejoin: miter; stroke-linecap: square"/>
   </g>
   <g id="patch_4">
    <path d="M 400.90125 301.735725 
L 400.90125 35.623725 
" style="fill: none; stroke: #cccccc; stroke-width: 0.8; stroke-linejoin: miter; stroke-linecap: square"/>
   </g>
   <g id="patch_5">
    <path d="M 43.78125 301.735725 
L 400.90125 301.735725 
" style="fill: none; stroke: #cccccc; stroke-width: 0.8; stroke-linejoin: miter; stroke-linecap: square"/>
   </g>
   <g id="patch_6">
    <path d="M 43.78125 35.623725 
L 400.90125 35.623725 
" style="fill: none; stroke: #cccccc; stroke-width: 0.8; stroke-linejoin: miter; stroke-linecap: square"/>
   </g>
   <g id="text_20">
    <!-- Block Size = 16K, Read-Write Type = Random Write-only -->
    <g style="fill: #262626; opacity: 0.75" transform="translate(81.007656 30.882918) scale(0.1 -0.1)">
     <defs>
      <path id="DejaVuSans-42" d="M 1259 2228 
L 1259 519 
L 2272 519 
Q 2781 519 3026 730 
Q 3272 941 3272 1375 
Q 3272 1813 3026 2020 
Q 2781 2228 2272 2228 
L 1259 2228 
z
M 1259 4147 
L 1259 2741 
L 2194 2741 
Q 2656 2741 2882 2914 
Q 3109 3088 3109 3444 
Q 3109 3797 2882 3972 
Q 2656 4147 2194 4147 
L 1259 4147 
z
M 628 4666 
L 2241 4666 
Q 2963 4666 3353 4366 
Q 3744 4066 3744 3513 
Q 3744 3084 3544 2831 
Q 3344 2578 2956 2516 
Q 3422 2416 3680 2098 
Q 3938 1781 3938 1306 
Q 3938 681 3513 340 
Q 3088 0 2303 0 
L 628 0 
L 628 4666 
z
" transform="scale(0.015625)"/>
      <path id="DejaVuSans-6c" d="M 603 4863 
L 1178 4863 
L 1178 0 
L 603 0 
L 603 4863 
z
" transform="scale(0.015625)"/>
      <path id="DejaVuSans-6b" d="M 581 4863 
L 1159 4863 
L 1159 1991 
L 2875 3500 
L 3609 3500 
L 1753 1863 
L 3688 0 
L 2938 0 
L 1159 1709 
L 1159 0 
L 581 0 
L 581 4863 
z
" transform="scale(0.015625)"/>
      <path id="DejaVuSans-53" d="M 3425 4513 
L 3425 3897 
Q 3066 4069 2747 4153 
Q 2428 4238 2131 4238 
Q 1616 4238 1336 4038 
Q 1056 3838 1056 3469 
Q 1056 3159 1242 3001 
Q 1428 2844 1947 2747 
L 2328 2669 
Q 3034 2534 3370 2195 
Q 3706 1856 3706 1288 
Q 3706 609 3251 259 
Q 2797 -91 1919 -91 
Q 1588 -91 1214 -16 
Q 841 59 441 206 
L 441 856 
Q 825 641 1194 531 
Q 1563 422 1919 422 
Q 2459 422 2753 634 
Q 3047 847 3047 1241 
Q 3047 1584 2836 1778 
Q 2625 1972 2144 2069 
L 1759 2144 
Q 1053 2284 737 2584 
Q 422 2884 422 3419 
Q 422 4038 858 4394 
Q 1294 4750 2059 4750 
Q 2388 4750 2728 4690 
Q 3069 4631 3425 4513 
z
" transform="scale(0.015625)"/>
      <path id="DejaVuSans-69" d="M 603 3500 
L 1178 3500 
L 1178 0 
L 603 0 
L 603 3500 
z
M 603 4863 
L 1178 4863 
L 1178 4134 
L 603 4134 
L 603 4863 
z
" transform="scale(0.015625)"/>
      <path id="DejaVuSans-7a" d="M 353 3500 
L 3084 3500 
L 3084 2975 
L 922 459 
L 3084 459 
L 3084 0 
L 275 0 
L 275 525 
L 2438 3041 
L 353 3041 
L 353 3500 
z
" transform="scale(0.015625)"/>
      <path id="DejaVuSans-3d" d="M 678 2906 
L 4684 2906 
L 4684 2381 
L 678 2381 
L 678 2906 
z
M 678 1631 
L 4684 1631 
L 4684 1100 
L 678 1100 
L 678 1631 
z
" transform="scale(0.015625)"/>
      <path id="DejaVuSans-4b" d="M 628 4666 
L 1259 4666 
L 1259 2694 
L 3353 4666 
L 4166 4666 
L 1850 2491 
L 4331 0 
L 3500 0 
L 1259 2247 
L 1259 0 
L 628 0 
L 628 4666 
z
" transform="scale(0.015625)"/>
      <path id="DejaVuSans-2c" d="M 750 794 
L 1409 794 
L 1409 256 
L 897 -744 
L 494 -744 
L 750 256 
L 750 794 
z
" transform="scale(0.015625)"/>
      <path id="DejaVuSans-52" d="M 2841 2188 
Q 3044 2119 3236 1894 
Q 3428 1669 3622 1275 
L 4263 0 
L 3584 0 
L 2988 1197 
Q 2756 1666 2539 1819 
Q 2322 1972 1947 1972 
L 1259 1972 
L 1259 0 
L 628 0 
L 628 4666 
L 2053 4666 
Q 2853 4666 3247 4331 
Q 3641 3997 3641 3322 
Q 3641 2881 3436 2590 
Q 3231 2300 2841 2188 
z
M 1259 4147 
L 1259 2491 
L 2053 2491 
Q 2509 2491 2742 2702 
Q 2975 2913 2975 3322 
Q 2975 3731 2742 3939 
Q 2509 4147 2053 4147 
L 1259 4147 
z
" transform="scale(0.015625)"/>
      <path id="DejaVuSans-64" d="M 2906 2969 
L 2906 4863 
L 3481 4863 
L 3481 0 
L 2906 0 
L 2906 525 
Q 2725 213 2448 61 
Q 2172 -91 1784 -91 
Q 1150 -91 751 415 
Q 353 922 353 1747 
Q 353 2572 751 3078 
Q 1150 3584 1784 3584 
Q 2172 3584 2448 3432 
Q 2725 3281 2906 2969 
z
M 947 1747 
Q 947 1113 1208 752 
Q 1469 391 1925 391 
Q 2381 391 2643 752 
Q 2906 1113 2906 1747 
Q 2906 2381 2643 2742 
Q 2381 3103 1925 3103 
Q 1469 3103 1208 2742 
Q 947 2381 947 1747 
z
" transform="scale(0.015625)"/>
      <path id="DejaVuSans-2d" d="M 313 2009 
L 1997 2009 
L 1997 1497 
L 313 1497 
L 313 2009 
z
" transform="scale(0.015625)"/>
      <path id="DejaVuSans-57" d="M 213 4666 
L 850 4666 
L 1831 722 
L 2809 4666 
L 3519 4666 
L 4500 722 
L 5478 4666 
L 6119 4666 
L 4947 0 
L 4153 0 
L 3169 4050 
L 2175 0 
L 1381 0 
L 213 4666 
z
" transform="scale(0.015625)"/>
      <path id="DejaVuSans-54" d="M -19 4666 
L 3928 4666 
L 3928 4134 
L 2272 4134 
L 2272 0 
L 1638 0 
L 1638 4134 
L -19 4134 
L -19 4666 
z
" transform="scale(0.015625)"/>
      <path id="DejaVuSans-70" d="M 1159 525 
L 1159 -1331 
L 581 -1331 
L 581 3500 
L 1159 3500 
L 1159 2969 
Q 1341 3281 1617 3432 
Q 1894 3584 2278 3584 
Q 2916 3584 3314 3078 
Q 3713 2572 3713 1747 
Q 3713 922 3314 415 
Q 2916 -91 2278 -91 
Q 1894 -91 1617 61 
Q 1341 213 1159 525 
z
M 3116 1747 
Q 3116 2381 2855 2742 
Q 2594 3103 2138 3103 
Q 1681 3103 1420 2742 
Q 1159 2381 1159 1747 
Q 1159 1113 1420 752 
Q 1681 391 2138 391 
Q 2594 391 2855 752 
Q 3116 1113 3116 1747 
z
" transform="scale(0.015625)"/>
     </defs>
     <use xlink:href="#DejaVuSans-42"/>
     <use xlink:href="#DejaVuSans-6c" transform="translate(68.603516 0)"/>
     <use xlink:href="#DejaVuSans-6f" transform="translate(96.386719 0)"/>
     <use xlink:href="#DejaVuSans-63" transform="translate(157.568359 0)"/>
     <use xlink:href="#DejaVuSans-6b" transform="translate(212.548828 0)"/>
     <use xlink:href="#DejaVuSans-20" transform="translate(270.458984 0)"/>
     <use xlink:href="#DejaVuSans-53" transform="translate(302.246094 0)"/>
     <use xlink:href="#DejaVuSans-69" transform="translate(365.722656 0)"/>
     <use xlink:href="#DejaVuSans-7a" transform="translate(393.505859 0)"/>
     <use xlink:href="#DejaVuSans-65" transform="translate(445.996094 0)"/>
     <use xlink:href="#DejaVuSans-20" transform="translate(507.519531 0)"/>
     <use xlink:href="#DejaVuSans-3d" transform="translate(539.306641 0)"/>
     <use xlink:href="#DejaVuSans-20" transform="translate(623.095703 0)"/>
     <use xlink:href="#DejaVuSans-31" transform="translate(654.882812 0)"/>
     <use xlink:href="#DejaVuSans-36" transform="translate(718.505859 0)"/>
     <use xlink:href="#DejaVuSans-4b" transform="translate(782.128906 0)"/>
     <use xlink:href="#DejaVuSans-2c" transform="translate(847.705078 0)"/>
     <use xlink:href="#DejaVuSans-20" transform="translate(879.492188 0)"/>
     <use xlink:href="#DejaVuSans-52" transform="translate(911.279297 0)"/>
     <use xlink:href="#DejaVuSans-65" transform="translate(976.261719 0)"/>
     <use xlink:href="#DejaVuSans-61" transform="translate(1037.785156 0)"/>
     <use xlink:href="#DejaVuSans-64" transform="translate(1099.064453 0)"/>
     <use xlink:href="#DejaVuSans-2d" transform="translate(1162.541016 0)"/>
     <use xlink:href="#DejaVuSans-57" transform="translate(1194.625 0)"/>
     <use xlink:href="#DejaVuSans-72" transform="translate(1289.001953 0)"/>
     <use xlink:href="#DejaVuSans-69" transform="translate(1330.115234 0)"/>
     <use xlink:href="#DejaVuSans-74" transform="translate(1357.898438 0)"/>
     <use xlink:href="#DejaVuSans-65" transform="translate(1397.107422 0)"/>
     <use xlink:href="#DejaVuSans-20" transform="translate(1458.630859 0)"/>
     <use xlink:href="#DejaVuSans-54" transform="translate(1490.417969 0)"/>
     <use xlink:href="#DejaVuSans-79" transform="translate(1535.876953 0)"/>
     <use xlink:href="#DejaVuSans-70" transform="translate(1595.056641 0)"/>
     <use xlink:href="#DejaVuSans-65" transform="translate(1658.533203 0)"/>
     <use xlink:href="#DejaVuSans-20" transform="translate(1720.056641 0)"/>
     <use xlink:href="#DejaVuSans-3d" transform="translate(1751.84375 0)"/>
     <use xlink:href="#DejaVuSans-20" transform="translate(1835.632812 0)"/>
     <use xlink:href="#DejaVuSans-52" transform="translate(1867.419922 0)"/>
     <use xlink:href="#DejaVuSans-61" transform="translate(1934.652344 0)"/>
     <use xlink:href="#DejaVuSans-6e" transform="translate(1995.931641 0)"/>
     <use xlink:href="#DejaVuSans-64" transform="translate(2059.310547 0)"/>
     <use xlink:href="#DejaVuSans-6f" transform="translate(2122.787109 0)"/>
     <use xlink:href="#DejaVuSans-6d" transform="translate(2183.96875 0)"/>
     <use xlink:href="#DejaVuSans-20" transform="translate(2281.380859 0)"/>
     <use xlink:href="#DejaVuSans-57" transform="translate(2313.167969 0)"/>
     <use xlink:href="#DejaVuSans-72" transform="translate(2407.544922 0)"/>
     <use xlink:href="#DejaVuSans-69" transform="translate(2448.658203 0)"/>
     <use xlink:href="#DejaVuSans-74" transform="translate(2476.441406 0)"/>
     <use xlink:href="#DejaVuSans-65" transform="translate(2515.650391 0)"/>
     <use xlink:href="#DejaVuSans-2d" transform="translate(2577.173828 0)"/>
     <use xlink:href="#DejaVuSans-6f" transform="translate(2615.132812 0)"/>
     <use xlink:href="#DejaVuSans-6e" transform="translate(2676.314453 0)"/>
     <use xlink:href="#DejaVuSans-6c" transform="translate(2739.693359 0)"/>
     <use xlink:href="#DejaVuSans-79" transform="translate(2767.476562 0)"/>
    </g>
   </g>
   <g id="text_21">
    <!-- Mean Latency vs Number of Jobs -->
    <g style="fill: #262626" transform="translate(111.685313 16.318125) scale(0.12 -0.12)">
     <defs>
      <path id="DejaVuSans-Bold-4d" d="M 588 4666 
L 2119 4666 
L 3181 2169 
L 4250 4666 
L 5778 4666 
L 5778 0 
L 4641 0 
L 4641 3413 
L 3566 897 
L 2803 897 
L 1728 3413 
L 1728 0 
L 588 0 
L 588 4666 
z
" transform="scale(0.015625)"/>
      <path id="DejaVuSans-Bold-65" d="M 4031 1759 
L 4031 1441 
L 1416 1441 
Q 1456 1047 1700 850 
Q 1944 653 2381 653 
Q 2734 653 3104 758 
Q 3475 863 3866 1075 
L 3866 213 
Q 3469 63 3072 -14 
Q 2675 -91 2278 -91 
Q 1328 -91 801 392 
Q 275 875 275 1747 
Q 275 2603 792 3093 
Q 1309 3584 2216 3584 
Q 3041 3584 3536 3087 
Q 4031 2591 4031 1759 
z
M 2881 2131 
Q 2881 2450 2695 2645 
Q 2509 2841 2209 2841 
Q 1884 2841 1681 2658 
Q 1478 2475 1428 2131 
L 2881 2131 
z
" transform="scale(0.015625)"/>
      <path id="DejaVuSans-Bold-61" d="M 2106 1575 
Q 1756 1575 1579 1456 
Q 1403 1338 1403 1106 
Q 1403 894 1545 773 
Q 1688 653 1941 653 
Q 2256 653 2472 879 
Q 2688 1106 2688 1447 
L 2688 1575 
L 2106 1575 
z
M 3816 1997 
L 3816 0 
L 2688 0 
L 2688 519 
Q 2463 200 2181 54 
Q 1900 -91 1497 -91 
Q 953 -91 614 226 
Q 275 544 275 1050 
Q 275 1666 698 1953 
Q 1122 2241 2028 2241 
L 2688 2241 
L 2688 2328 
Q 2688 2594 2478 2717 
Q 2269 2841 1825 2841 
Q 1466 2841 1156 2769 
Q 847 2697 581 2553 
L 581 3406 
Q 941 3494 1303 3539 
Q 1666 3584 2028 3584 
Q 2975 3584 3395 3211 
Q 3816 2838 3816 1997 
z
" transform="scale(0.015625)"/>
      <path id="DejaVuSans-Bold-6e" d="M 4056 2131 
L 4056 0 
L 2931 0 
L 2931 347 
L 2931 1631 
Q 2931 2084 2911 2256 
Q 2891 2428 2841 2509 
Q 2775 2619 2662 2680 
Q 2550 2741 2406 2741 
Q 2056 2741 1856 2470 
Q 1656 2200 1656 1722 
L 1656 0 
L 538 0 
L 538 3500 
L 1656 3500 
L 1656 2988 
Q 1909 3294 2193 3439 
Q 2478 3584 2822 3584 
Q 3428 3584 3742 3212 
Q 4056 2841 4056 2131 
z
" transform="scale(0.015625)"/>
      <path id="DejaVuSans-Bold-20" transform="scale(0.015625)"/>
      <path id="DejaVuSans-Bold-4c" d="M 588 4666 
L 1791 4666 
L 1791 909 
L 3903 909 
L 3903 0 
L 588 0 
L 588 4666 
z
" transform="scale(0.015625)"/>
      <path id="DejaVuSans-Bold-74" d="M 1759 4494 
L 1759 3500 
L 2913 3500 
L 2913 2700 
L 1759 2700 
L 1759 1216 
Q 1759 972 1856 886 
Q 1953 800 2241 800 
L 2816 800 
L 2816 0 
L 1856 0 
Q 1194 0 917 276 
Q 641 553 641 1216 
L 641 2700 
L 84 2700 
L 84 3500 
L 641 3500 
L 641 4494 
L 1759 4494 
z
" transform="scale(0.015625)"/>
      <path id="DejaVuSans-Bold-63" d="M 3366 3391 
L 3366 2478 
Q 3138 2634 2908 2709 
Q 2678 2784 2431 2784 
Q 1963 2784 1702 2511 
Q 1441 2238 1441 1747 
Q 1441 1256 1702 982 
Q 1963 709 2431 709 
Q 2694 709 2930 787 
Q 3166 866 3366 1019 
L 3366 103 
Q 3103 6 2833 -42 
Q 2563 -91 2291 -91 
Q 1344 -91 809 395 
Q 275 881 275 1747 
Q 275 2613 809 3098 
Q 1344 3584 2291 3584 
Q 2566 3584 2833 3536 
Q 3100 3488 3366 3391 
z
" transform="scale(0.015625)"/>
      <path id="DejaVuSans-Bold-79" d="M 78 3500 
L 1197 3500 
L 2138 1125 
L 2938 3500 
L 4056 3500 
L 2584 -331 
Q 2363 -916 2067 -1148 
Q 1772 -1381 1288 -1381 
L 641 -1381 
L 641 -647 
L 991 -647 
Q 1275 -647 1404 -556 
Q 1534 -466 1606 -231 
L 1638 -134 
L 78 3500 
z
" transform="scale(0.015625)"/>
      <path id="DejaVuSans-Bold-76" d="M 97 3500 
L 1216 3500 
L 2088 1081 
L 2956 3500 
L 4078 3500 
L 2700 0 
L 1472 0 
L 97 3500 
z
" transform="scale(0.015625)"/>
      <path id="DejaVuSans-Bold-73" d="M 3272 3391 
L 3272 2541 
Q 2913 2691 2578 2766 
Q 2244 2841 1947 2841 
Q 1628 2841 1473 2761 
Q 1319 2681 1319 2516 
Q 1319 2381 1436 2309 
Q 1553 2238 1856 2203 
L 2053 2175 
Q 2913 2066 3209 1816 
Q 3506 1566 3506 1031 
Q 3506 472 3093 190 
Q 2681 -91 1863 -91 
Q 1516 -91 1145 -36 
Q 775 19 384 128 
L 384 978 
Q 719 816 1070 734 
Q 1422 653 1784 653 
Q 2113 653 2278 743 
Q 2444 834 2444 1013 
Q 2444 1163 2330 1236 
Q 2216 1309 1875 1350 
L 1678 1375 
Q 931 1469 631 1722 
Q 331 1975 331 2491 
Q 331 3047 712 3315 
Q 1094 3584 1881 3584 
Q 2191 3584 2531 3537 
Q 2872 3491 3272 3391 
z
" transform="scale(0.015625)"/>
      <path id="DejaVuSans-Bold-4e" d="M 588 4666 
L 1931 4666 
L 3628 1466 
L 3628 4666 
L 4769 4666 
L 4769 0 
L 3425 0 
L 1728 3200 
L 1728 0 
L 588 0 
L 588 4666 
z
" transform="scale(0.015625)"/>
      <path id="DejaVuSans-Bold-75" d="M 500 1363 
L 500 3500 
L 1625 3500 
L 1625 3150 
Q 1625 2866 1622 2436 
Q 1619 2006 1619 1863 
Q 1619 1441 1641 1255 
Q 1663 1069 1716 984 
Q 1784 875 1895 815 
Q 2006 756 2150 756 
Q 2500 756 2700 1025 
Q 2900 1294 2900 1772 
L 2900 3500 
L 4019 3500 
L 4019 0 
L 2900 0 
L 2900 506 
Q 2647 200 2364 54 
Q 2081 -91 1741 -91 
Q 1134 -91 817 281 
Q 500 653 500 1363 
z
" transform="scale(0.015625)"/>
      <path id="DejaVuSans-Bold-6d" d="M 3781 2919 
Q 3994 3244 4286 3414 
Q 4578 3584 4928 3584 
Q 5531 3584 5847 3212 
Q 6163 2841 6163 2131 
L 6163 0 
L 5038 0 
L 5038 1825 
Q 5041 1866 5042 1909 
Q 5044 1953 5044 2034 
Q 5044 2406 4934 2573 
Q 4825 2741 4581 2741 
Q 4263 2741 4089 2478 
Q 3916 2216 3909 1719 
L 3909 0 
L 2784 0 
L 2784 1825 
Q 2784 2406 2684 2573 
Q 2584 2741 2328 2741 
Q 2006 2741 1831 2477 
Q 1656 2213 1656 1722 
L 1656 0 
L 531 0 
L 531 3500 
L 1656 3500 
L 1656 2988 
Q 1863 3284 2130 3434 
Q 2397 3584 2719 3584 
Q 3081 3584 3359 3409 
Q 3638 3234 3781 2919 
z
" transform="scale(0.015625)"/>
      <path id="DejaVuSans-Bold-62" d="M 2400 722 
Q 2759 722 2948 984 
Q 3138 1247 3138 1747 
Q 3138 2247 2948 2509 
Q 2759 2772 2400 2772 
Q 2041 2772 1848 2508 
Q 1656 2244 1656 1747 
Q 1656 1250 1848 986 
Q 2041 722 2400 722 
z
M 1656 2988 
Q 1888 3294 2169 3439 
Q 2450 3584 2816 3584 
Q 3463 3584 3878 3070 
Q 4294 2556 4294 1747 
Q 4294 938 3878 423 
Q 3463 -91 2816 -91 
Q 2450 -91 2169 54 
Q 1888 200 1656 506 
L 1656 0 
L 538 0 
L 538 4863 
L 1656 4863 
L 1656 2988 
z
" transform="scale(0.015625)"/>
      <path id="DejaVuSans-Bold-72" d="M 3138 2547 
Q 2991 2616 2845 2648 
Q 2700 2681 2553 2681 
Q 2122 2681 1889 2404 
Q 1656 2128 1656 1613 
L 1656 0 
L 538 0 
L 538 3500 
L 1656 3500 
L 1656 2925 
Q 1872 3269 2151 3426 
Q 2431 3584 2822 3584 
Q 2878 3584 2943 3579 
Q 3009 3575 3134 3559 
L 3138 2547 
z
" transform="scale(0.015625)"/>
      <path id="DejaVuSans-Bold-6f" d="M 2203 2784 
Q 1831 2784 1636 2517 
Q 1441 2250 1441 1747 
Q 1441 1244 1636 976 
Q 1831 709 2203 709 
Q 2569 709 2762 976 
Q 2956 1244 2956 1747 
Q 2956 2250 2762 2517 
Q 2569 2784 2203 2784 
z
M 2203 3584 
Q 3106 3584 3614 3096 
Q 4122 2609 4122 1747 
Q 4122 884 3614 396 
Q 3106 -91 2203 -91 
Q 1297 -91 786 396 
Q 275 884 275 1747 
Q 275 2609 786 3096 
Q 1297 3584 2203 3584 
z
" transform="scale(0.015625)"/>
      <path id="DejaVuSans-Bold-66" d="M 2841 4863 
L 2841 4128 
L 2222 4128 
Q 1984 4128 1890 4042 
Q 1797 3956 1797 3744 
L 1797 3500 
L 2753 3500 
L 2753 2700 
L 1797 2700 
L 1797 0 
L 678 0 
L 678 2700 
L 122 2700 
L 122 3500 
L 678 3500 
L 678 3744 
Q 678 4316 997 4589 
Q 1316 4863 1984 4863 
L 2841 4863 
z
" transform="scale(0.015625)"/>
      <path id="DejaVuSans-Bold-4a" d="M 588 4666 
L 1791 4666 
L 1791 453 
Q 1791 -419 1317 -850 
Q 844 -1281 -116 -1281 
L -359 -1281 
L -359 -372 
L -172 -372 
Q 203 -372 395 -162 
Q 588 47 588 453 
L 588 4666 
z
" transform="scale(0.015625)"/>
     </defs>
     <use xlink:href="#DejaVuSans-Bold-4d"/>
     <use xlink:href="#DejaVuSans-Bold-65" transform="translate(99.511719 0)"/>
     <use xlink:href="#DejaVuSans-Bold-61" transform="translate(167.333984 0)"/>
     <use xlink:href="#DejaVuSans-Bold-6e" transform="translate(234.814453 0)"/>
     <use xlink:href="#DejaVuSans-Bold-20" transform="translate(306.005859 0)"/>
     <use xlink:href="#DejaVuSans-Bold-4c" transform="translate(340.820312 0)"/>
     <use xlink:href="#DejaVuSans-Bold-61" transform="translate(404.541016 0)"/>
     <use xlink:href="#DejaVuSans-Bold-74" transform="translate(472.021484 0)"/>
     <use xlink:href="#DejaVuSans-Bold-65" transform="translate(519.824219 0)"/>
     <use xlink:href="#DejaVuSans-Bold-6e" transform="translate(587.646484 0)"/>
     <use xlink:href="#DejaVuSans-Bold-63" transform="translate(658.837891 0)"/>
     <use xlink:href="#DejaVuSans-Bold-79" transform="translate(718.115234 0)"/>
     <use xlink:href="#DejaVuSans-Bold-20" transform="translate(783.300781 0)"/>
     <use xlink:href="#DejaVuSans-Bold-76" transform="translate(818.115234 0)"/>
     <use xlink:href="#DejaVuSans-Bold-73" transform="translate(883.300781 0)"/>
     <use xlink:href="#DejaVuSans-Bold-20" transform="translate(942.822266 0)"/>
     <use xlink:href="#DejaVuSans-Bold-4e" transform="translate(977.636719 0)"/>
     <use xlink:href="#DejaVuSans-Bold-75" transform="translate(1061.328125 0)"/>
     <use xlink:href="#DejaVuSans-Bold-6d" transform="translate(1132.519531 0)"/>
     <use xlink:href="#DejaVuSans-Bold-62" transform="translate(1236.71875 0)"/>
     <use xlink:href="#DejaVuSans-Bold-65" transform="translate(1308.300781 0)"/>
     <use xlink:href="#DejaVuSans-Bold-72" transform="translate(1376.123047 0)"/>
     <use xlink:href="#DejaVuSans-Bold-20" transform="translate(1425.439453 0)"/>
     <use xlink:href="#DejaVuSans-Bold-6f" transform="translate(1460.253906 0)"/>
     <use xlink:href="#DejaVuSans-Bold-66" transform="translate(1528.955078 0)"/>
     <use xlink:href="#DejaVuSans-Bold-20" transform="translate(1572.460938 0)"/>
     <use xlink:href="#DejaVuSans-Bold-4a" transform="translate(1607.275391 0)"/>
     <use xlink:href="#DejaVuSans-Bold-6f" transform="translate(1644.482422 0)"/>
     <use xlink:href="#DejaVuSans-Bold-62" transform="translate(1713.183594 0)"/>
     <use xlink:href="#DejaVuSans-Bold-73" transform="translate(1784.765625 0)"/>
    </g>
   </g>
   <g id="legend_1">
    <g id="text_22">
     <!-- IO Depth -->
     <g style="fill: #262626" transform="translate(435.407813 120.065663) scale(0.1 -0.1)">
      <defs>
       <path id="DejaVuSans-49" d="M 628 4666 
L 1259 4666 
L 1259 0 
L 628 0 
L 628 4666 
z
" transform="scale(0.015625)"/>
       <path id="DejaVuSans-4f" d="M 2522 4238 
Q 1834 4238 1429 3725 
Q 1025 3213 1025 2328 
Q 1025 1447 1429 934 
Q 1834 422 2522 422 
Q 3209 422 3611 934 
Q 4013 1447 4013 2328 
Q 4013 3213 3611 3725 
Q 3209 4238 2522 4238 
z
M 2522 4750 
Q 3503 4750 4090 4092 
Q 4678 3434 4678 2328 
Q 4678 1225 4090 567 
Q 3503 -91 2522 -91 
Q 1538 -91 948 565 
Q 359 1222 359 2328 
Q 359 3434 948 4092 
Q 1538 4750 2522 4750 
z
" transform="scale(0.015625)"/>
       <path id="DejaVuSans-44" d="M 1259 4147 
L 1259 519 
L 2022 519 
Q 2988 519 3436 956 
Q 3884 1394 3884 2338 
Q 3884 3275 3436 3711 
Q 2988 4147 2022 4147 
L 1259 4147 
z
M 628 4666 
L 1925 4666 
Q 3281 4666 3915 4102 
Q 4550 3538 4550 2338 
Q 4550 1131 3912 565 
Q 3275 0 1925 0 
L 628 0 
L 628 4666 
z
" transform="scale(0.015625)"/>
       <path id="DejaVuSans-68" d="M 3513 2113 
L 3513 0 
L 2938 0 
L 2938 2094 
Q 2938 2591 2744 2837 
Q 2550 3084 2163 3084 
Q 1697 3084 1428 2787 
Q 1159 2491 1159 1978 
L 1159 0 
L 581 0 
L 581 4863 
L 1159 4863 
L 1159 2956 
Q 1366 3272 1645 3428 
Q 1925 3584 2291 3584 
Q 2894 3584 3203 3211 
Q 3513 2838 3513 2113 
z
" transform="scale(0.015625)"/>
      </defs>
      <use xlink:href="#DejaVuSans-49"/>
      <use xlink:href="#DejaVuSans-4f" transform="translate(29.492188 0)"/>
      <use xlink:href="#DejaVuSans-20" transform="translate(108.203125 0)"/>
      <use xlink:href="#DejaVuSans-44" transform="translate(139.990234 0)"/>
      <use xlink:href="#DejaVuSans-65" transform="translate(216.992188 0)"/>
      <use xlink:href="#DejaVuSans-70" transform="translate(278.515625 0)"/>
      <use xlink:href="#DejaVuSans-74" transform="translate(341.992188 0)"/>
      <use xlink:href="#DejaVuSans-68" transform="translate(381.201172 0)"/>
     </g>
    </g>
    <g id="line2d_24">
     <path d="M 434.09375 131.243787 
L 444.09375 131.243787 
L 454.09375 131.243787 
" style="fill: none; stroke: #4c02a1; stroke-width: 1.5; stroke-linecap: round"/>
    </g>
    <g id="text_23">
     <!-- 1 -->
     <g style="fill: #262626" transform="translate(462.09375 134.743787) scale(0.1 -0.1)">
      <use xlink:href="#DejaVuSans-31"/>
     </g>
    </g>
    <g id="line2d_25">
     <path d="M 434.09375 145.921913 
L 444.09375 145.921913 
L 454.09375 145.921913 
" style="fill: none; stroke: #7e03a8; stroke-width: 1.5; stroke-linecap: round"/>
    </g>
    <g id="text_24">
     <!-- 4 -->
     <g style="fill: #262626" transform="translate(462.09375 149.421913) scale(0.1 -0.1)">
      <use xlink:href="#DejaVuSans-34"/>
     </g>
    </g>
    <g id="line2d_26">
     <path d="M 434.09375 160.600037 
L 444.09375 160.600037 
L 454.09375 160.600037 
" style="fill: none; stroke: #aa2395; stroke-width: 1.5; stroke-linecap: round"/>
    </g>
    <g id="text_25">
     <!-- 8 -->
     <g style="fill: #262626" transform="translate(462.09375 164.100037) scale(0.1 -0.1)">
      <use xlink:href="#DejaVuSans-38"/>
     </g>
    </g>
    <g id="line2d_27">
     <path d="M 434.09375 175.278163 
L 444.09375 175.278163 
L 454.09375 175.278163 
" style="fill: none; stroke: #cc4778; stroke-width: 1.5; stroke-linecap: round"/>
    </g>
    <g id="text_26">
     <!-- 16 -->
     <g style="fill: #262626" transform="translate(462.09375 178.778163) scale(0.1 -0.1)">
      <use xlink:href="#DejaVuSans-31"/>
      <use xlink:href="#DejaVuSans-36" transform="translate(63.623047 0)"/>
     </g>
    </g>
    <g id="line2d_28">
     <path d="M 434.09375 189.956288 
L 444.09375 189.956288 
L 454.09375 189.956288 
" style="fill: none; stroke: #e66c5c; stroke-width: 1.5; stroke-linecap: round"/>
    </g>
    <g id="text_27">
     <!-- 32 -->
     <g style="fill: #262626" transform="translate(462.09375 193.456288) scale(0.1 -0.1)">
      <use xlink:href="#DejaVuSans-33"/>
      <use xlink:href="#DejaVuSans-32" transform="translate(63.623047 0)"/>
     </g>
    </g>
    <g id="line2d_29">
     <path d="M 434.09375 204.634412 
L 444.09375 204.634412 
L 454.09375 204.634412 
" style="fill: none; stroke: #f89540; stroke-width: 1.5; stroke-linecap: round"/>
    </g>
    <g id="text_28">
     <!-- 64 -->
     <g style="fill: #262626" transform="translate(462.09375 208.134412) scale(0.1 -0.1)">
      <use xlink:href="#DejaVuSans-36"/>
      <use xlink:href="#DejaVuSans-34" transform="translate(63.623047 0)"/>
     </g>
    </g>
    <g id="line2d_30">
     <path d="M 434.09375 219.312537 
L 444.09375 219.312537 
L 454.09375 219.312537 
" style="fill: none; stroke: #fdc527; stroke-width: 1.5; stroke-linecap: round"/>
    </g>
    <g id="text_29">
     <!-- 128 -->
     <g style="fill: #262626" transform="translate(462.09375 222.812537) scale(0.1 -0.1)">
      <use xlink:href="#DejaVuSans-31"/>
      <use xlink:href="#DejaVuSans-32" transform="translate(63.623047 0)"/>
      <use xlink:href="#DejaVuSans-38" transform="translate(127.246094 0)"/>
     </g>
    </g>
   </g>
  </g>
 </g>
 <defs>
  <clipPath id="p0c792d4a20">
   <rect x="43.78125" y="35.623725" width="357.12" height="266.112"/>
  </clipPath>
 </defs>
</svg>
