<?xml version="1.0" encoding="utf-8" standalone="no"?>
<!DOCTYPE svg PUBLIC "-//W3C//DTD SVG 1.1//EN"
  "http://www.w3.org/Graphics/SVG/1.1/DTD/svg11.dtd">
<svg xmlns:xlink="http://www.w3.org/1999/xlink" width="492.38125pt" height="339.291975pt" viewBox="0 0 492.38125 339.291975" xmlns="http://www.w3.org/2000/svg" version="1.1">
 <metadata>
  <rdf:RDF xmlns:dc="http://purl.org/dc/elements/1.1/" xmlns:cc="http://creativecommons.org/ns#" xmlns:rdf="http://www.w3.org/1999/02/22-rdf-syntax-ns#">
   <cc:Work>
    <dc:type rdf:resource="http://purl.org/dc/dcmitype/StillImage"/>
    <dc:date>2025-09-11T11:47:32.948023</dc:date>
    <dc:format>image/svg+xml</dc:format>
    <dc:creator>
     <cc:Agent>
      <dc:title>Matplotlib v3.10.6, https://matplotlib.org/</dc:title>
     </cc:Agent>
    </dc:creator>
   </cc:Work>
  </rdf:RDF>
 </metadata>
 <defs>
  <style type="text/css">*{stroke-linejoin: round; stroke-linecap: butt}</style>
 </defs>
 <g id="figure_1">
  <g id="patch_1">
   <path d="M 0 339.291975 
L 492.38125 339.291975 
L 492.38125 0 
L 0 0 
z
" style="fill: #ffffff"/>
  </g>
  <g id="axes_1">
   <g id="patch_2">
    <path d="M 43.78125 301.735725 
L 400.90125 301.735725 
L 400.90125 35.623725 
L 43.78125 35.623725 
z
" style="fill: #ffffff"/>
   </g>
   <g id="matplotlib.axis_1">
    <g id="xtick_1">
     <g id="line2d_1">
      <path d="M 106.393198 301.735725 
L 106.393198 35.623725 
" clip-path="url(#p20651e0cc6)" style="fill: none; stroke: #cccccc; stroke-width: 0.8; stroke-linecap: round"/>
     </g>
     <g id="text_1">
      <!-- 32 -->
      <g style="fill: #262626" transform="translate(100.030698 316.334162) scale(0.1 -0.1)">
       <defs>
        <path id="DejaVuSans-33" d="M 2597 2516 
Q 3050 2419 3304 2112 
Q 3559 1806 3559 1356 
Q 3559 666 3084 287 
Q 2609 -91 1734 -91 
Q 1441 -91 1130 -33 
Q 819 25 488 141 
L 488 750 
Q 750 597 1062 519 
Q 1375 441 1716 441 
Q 2309 441 2620 675 
Q 2931 909 2931 1356 
Q 2931 1769 2642 2001 
Q 2353 2234 1838 2234 
L 1294 2234 
L 1294 2753 
L 1863 2753 
Q 2328 2753 2575 2939 
Q 2822 3125 2822 3475 
Q 2822 3834 2567 4026 
Q 2313 4219 1838 4219 
Q 1578 4219 1281 4162 
Q 984 4106 628 3988 
L 628 4550 
Q 988 4650 1302 4700 
Q 1616 4750 1894 4750 
Q 2613 4750 3031 4423 
Q 3450 4097 3450 3541 
Q 3450 3153 3228 2886 
Q 3006 2619 2597 2516 
z
" transform="scale(0.015625)"/>
        <path id="DejaVuSans-32" d="M 1228 531 
L 3431 531 
L 3431 0 
L 469 0 
L 469 531 
Q 828 903 1448 1529 
Q 2069 2156 2228 2338 
Q 2531 2678 2651 2914 
Q 2772 3150 2772 3378 
Q 2772 3750 2511 3984 
Q 2250 4219 1831 4219 
Q 1534 4219 1204 4116 
Q 875 4013 500 3803 
L 500 4441 
Q 881 4594 1212 4672 
Q 1544 4750 1819 4750 
Q 2544 4750 2975 4387 
Q 3406 4025 3406 3419 
Q 3406 3131 3298 2873 
Q 3191 2616 2906 2266 
Q 2828 2175 2409 1742 
Q 1991 1309 1228 531 
z
" transform="scale(0.015625)"/>
       </defs>
       <use xlink:href="#DejaVuSans-33"/>
       <use xlink:href="#DejaVuSans-32" transform="translate(63.623047 0)"/>
      </g>
     </g>
    </g>
    <g id="xtick_2">
     <g id="line2d_2">
      <path d="M 60.013977 301.735725 
L 60.013977 35.623725 
" clip-path="url(#p20651e0cc6)" style="fill: none; stroke: #cccccc; stroke-width: 0.8; stroke-linecap: round"/>
     </g>
     <g id="text_2">
      <!-- 16 -->
      <g style="fill: #262626" transform="translate(53.651477 316.334162) scale(0.1 -0.1)">
       <defs>
        <path id="DejaVuSans-31" d="M 794 531 
L 1825 531 
L 1825 4091 
L 703 3866 
L 703 4441 
L 1819 4666 
L 2450 4666 
L 2450 531 
L 3481 531 
L 3481 0 
L 794 0 
L 794 531 
z
" transform="scale(0.015625)"/>
        <path id="DejaVuSans-36" d="M 2113 2584 
Q 1688 2584 1439 2293 
Q 1191 2003 1191 1497 
Q 1191 994 1439 701 
Q 1688 409 2113 409 
Q 2538 409 2786 701 
Q 3034 994 3034 1497 
Q 3034 2003 2786 2293 
Q 2538 2584 2113 2584 
z
M 3366 4563 
L 3366 3988 
Q 3128 4100 2886 4159 
Q 2644 4219 2406 4219 
Q 1781 4219 1451 3797 
Q 1122 3375 1075 2522 
Q 1259 2794 1537 2939 
Q 1816 3084 2150 3084 
Q 2853 3084 3261 2657 
Q 3669 2231 3669 1497 
Q 3669 778 3244 343 
Q 2819 -91 2113 -91 
Q 1303 -91 875 529 
Q 447 1150 447 2328 
Q 447 3434 972 4092 
Q 1497 4750 2381 4750 
Q 2619 4750 2861 4703 
Q 3103 4656 3366 4563 
z
" transform="scale(0.015625)"/>
       </defs>
       <use xlink:href="#DejaVuSans-31"/>
       <use xlink:href="#DejaVuSans-36" transform="translate(63.623047 0)"/>
      </g>
     </g>
    </g>
    <g id="xtick_3">
     <g id="line2d_3">
      <path d="M 384.668523 301.735725 
L 384.668523 35.623725 
" clip-path="url(#p20651e0cc6)" style="fill: none; stroke: #cccccc; stroke-width: 0.8; stroke-linecap: round"/>
     </g>
     <g id="text_3">
      <!-- 128 -->
      <g style="fill: #262626" transform="translate(375.124773 316.334162) scale(0.1 -0.1)">
       <defs>
        <path id="DejaVuSans-38" d="M 2034 2216 
Q 1584 2216 1326 1975 
Q 1069 1734 1069 1313 
Q 1069 891 1326 650 
Q 1584 409 2034 409 
Q 2484 409 2743 651 
Q 3003 894 3003 1313 
Q 3003 1734 2745 1975 
Q 2488 2216 2034 2216 
z
M 1403 2484 
Q 997 2584 770 2862 
Q 544 3141 544 3541 
Q 544 4100 942 4425 
Q 1341 4750 2034 4750 
Q 2731 4750 3128 4425 
Q 3525 4100 3525 3541 
Q 3525 3141 3298 2862 
Q 3072 2584 2669 2484 
Q 3125 2378 3379 2068 
Q 3634 1759 3634 1313 
Q 3634 634 3220 271 
Q 2806 -91 2034 -91 
Q 1263 -91 848 271 
Q 434 634 434 1313 
Q 434 1759 690 2068 
Q 947 2378 1403 2484 
z
M 1172 3481 
Q 1172 3119 1398 2916 
Q 1625 2713 2034 2713 
Q 2441 2713 2670 2916 
Q 2900 3119 2900 3481 
Q 2900 3844 2670 4047 
Q 2441 4250 2034 4250 
Q 1625 4250 1398 4047 
Q 1172 3844 1172 3481 
z
" transform="scale(0.015625)"/>
       </defs>
       <use xlink:href="#DejaVuSans-31"/>
       <use xlink:href="#DejaVuSans-32" transform="translate(63.623047 0)"/>
       <use xlink:href="#DejaVuSans-38" transform="translate(127.246094 0)"/>
      </g>
     </g>
    </g>
    <g id="xtick_4">
     <g id="line2d_4">
      <path d="M 199.15164 301.735725 
L 199.15164 35.623725 
" clip-path="url(#p20651e0cc6)" style="fill: none; stroke: #cccccc; stroke-width: 0.8; stroke-linecap: round"/>
     </g>
     <g id="text_4">
      <!-- 64 -->
      <g style="fill: #262626" transform="translate(192.78914 316.334162) scale(0.1 -0.1)">
       <defs>
        <path id="DejaVuSans-34" d="M 2419 4116 
L 825 1625 
L 2419 1625 
L 2419 4116 
z
M 2253 4666 
L 3047 4666 
L 3047 1625 
L 3713 1625 
L 3713 1100 
L 3047 1100 
L 3047 0 
L 2419 0 
L 2419 1100 
L 313 1100 
L 313 1709 
L 2253 4666 
z
" transform="scale(0.015625)"/>
       </defs>
       <use xlink:href="#DejaVuSans-36"/>
       <use xlink:href="#DejaVuSans-34" transform="translate(63.623047 0)"/>
      </g>
     </g>
    </g>
    <g id="text_5">
     <!-- Number of Jobs -->
     <g style="fill: #262626" transform="translate(183.944375 330.012287) scale(0.1 -0.1)">
      <defs>
       <path id="DejaVuSans-4e" d="M 628 4666 
L 1478 4666 
L 3547 763 
L 3547 4666 
L 4159 4666 
L 4159 0 
L 3309 0 
L 1241 3903 
L 1241 0 
L 628 0 
L 628 4666 
z
" transform="scale(0.015625)"/>
       <path id="DejaVuSans-75" d="M 544 1381 
L 544 3500 
L 1119 3500 
L 1119 1403 
Q 1119 906 1312 657 
Q 1506 409 1894 409 
Q 2359 409 2629 706 
Q 2900 1003 2900 1516 
L 2900 3500 
L 3475 3500 
L 3475 0 
L 2900 0 
L 2900 538 
Q 2691 219 2414 64 
Q 2138 -91 1772 -91 
Q 1169 -91 856 284 
Q 544 659 544 1381 
z
M 1991 3584 
L 1991 3584 
z
" transform="scale(0.015625)"/>
       <path id="DejaVuSans-6d" d="M 3328 2828 
Q 3544 3216 3844 3400 
Q 4144 3584 4550 3584 
Q 5097 3584 5394 3201 
Q 5691 2819 5691 2113 
L 5691 0 
L 5113 0 
L 5113 2094 
Q 5113 2597 4934 2840 
Q 4756 3084 4391 3084 
Q 3944 3084 3684 2787 
Q 3425 2491 3425 1978 
L 3425 0 
L 2847 0 
L 2847 2094 
Q 2847 2600 2669 2842 
Q 2491 3084 2119 3084 
Q 1678 3084 1418 2786 
Q 1159 2488 1159 1978 
L 1159 0 
L 581 0 
L 581 3500 
L 1159 3500 
L 1159 2956 
Q 1356 3278 1631 3431 
Q 1906 3584 2284 3584 
Q 2666 3584 2933 3390 
Q 3200 3197 3328 2828 
z
" transform="scale(0.015625)"/>
       <path id="DejaVuSans-62" d="M 3116 1747 
Q 3116 2381 2855 2742 
Q 2594 3103 2138 3103 
Q 1681 3103 1420 2742 
Q 1159 2381 1159 1747 
Q 1159 1113 1420 752 
Q 1681 391 2138 391 
Q 2594 391 2855 752 
Q 3116 1113 3116 1747 
z
M 1159 2969 
Q 1341 3281 1617 3432 
Q 1894 3584 2278 3584 
Q 2916 3584 3314 3078 
Q 3713 2572 3713 1747 
Q 3713 922 3314 415 
Q 2916 -91 2278 -91 
Q 1894 -91 1617 61 
Q 1341 213 1159 525 
L 1159 0 
L 581 0 
L 581 4863 
L 1159 4863 
L 1159 2969 
z
" transform="scale(0.015625)"/>
       <path id="DejaVuSans-65" d="M 3597 1894 
L 3597 1613 
L 953 1613 
Q 991 1019 1311 708 
Q 1631 397 2203 397 
Q 2534 397 2845 478 
Q 3156 559 3463 722 
L 3463 178 
Q 3153 47 2828 -22 
Q 2503 -91 2169 -91 
Q 1331 -91 842 396 
Q 353 884 353 1716 
Q 353 2575 817 3079 
Q 1281 3584 2069 3584 
Q 2775 3584 3186 3129 
Q 3597 2675 3597 1894 
z
M 3022 2063 
Q 3016 2534 2758 2815 
Q 2500 3097 2075 3097 
Q 1594 3097 1305 2825 
Q 1016 2553 972 2059 
L 3022 2063 
z
" transform="scale(0.015625)"/>
       <path id="DejaVuSans-72" d="M 2631 2963 
Q 2534 3019 2420 3045 
Q 2306 3072 2169 3072 
Q 1681 3072 1420 2755 
Q 1159 2438 1159 1844 
L 1159 0 
L 581 0 
L 581 3500 
L 1159 3500 
L 1159 2956 
Q 1341 3275 1631 3429 
Q 1922 3584 2338 3584 
Q 2397 3584 2469 3576 
Q 2541 3569 2628 3553 
L 2631 2963 
z
" transform="scale(0.015625)"/>
       <path id="DejaVuSans-20" transform="scale(0.015625)"/>
       <path id="DejaVuSans-6f" d="M 1959 3097 
Q 1497 3097 1228 2736 
Q 959 2375 959 1747 
Q 959 1119 1226 758 
Q 1494 397 1959 397 
Q 2419 397 2687 759 
Q 2956 1122 2956 1747 
Q 2956 2369 2687 2733 
Q 2419 3097 1959 3097 
z
M 1959 3584 
Q 2709 3584 3137 3096 
Q 3566 2609 3566 1747 
Q 3566 888 3137 398 
Q 2709 -91 1959 -91 
Q 1206 -91 779 398 
Q 353 888 353 1747 
Q 353 2609 779 3096 
Q 1206 3584 1959 3584 
z
" transform="scale(0.015625)"/>
       <path id="DejaVuSans-66" d="M 2375 4863 
L 2375 4384 
L 1825 4384 
Q 1516 4384 1395 4259 
Q 1275 4134 1275 3809 
L 1275 3500 
L 2222 3500 
L 2222 3053 
L 1275 3053 
L 1275 0 
L 697 0 
L 697 3053 
L 147 3053 
L 147 3500 
L 697 3500 
L 697 3744 
Q 697 4328 969 4595 
Q 1241 4863 1831 4863 
L 2375 4863 
z
" transform="scale(0.015625)"/>
       <path id="DejaVuSans-4a" d="M 628 4666 
L 1259 4666 
L 1259 325 
Q 1259 -519 939 -900 
Q 619 -1281 -91 -1281 
L -331 -1281 
L -331 -750 
L -134 -750 
Q 284 -750 456 -515 
Q 628 -281 628 325 
L 628 4666 
z
" transform="scale(0.015625)"/>
       <path id="DejaVuSans-73" d="M 2834 3397 
L 2834 2853 
Q 2591 2978 2328 3040 
Q 2066 3103 1784 3103 
Q 1356 3103 1142 2972 
Q 928 2841 928 2578 
Q 928 2378 1081 2264 
Q 1234 2150 1697 2047 
L 1894 2003 
Q 2506 1872 2764 1633 
Q 3022 1394 3022 966 
Q 3022 478 2636 193 
Q 2250 -91 1575 -91 
Q 1294 -91 989 -36 
Q 684 19 347 128 
L 347 722 
Q 666 556 975 473 
Q 1284 391 1588 391 
Q 1994 391 2212 530 
Q 2431 669 2431 922 
Q 2431 1156 2273 1281 
Q 2116 1406 1581 1522 
L 1381 1569 
Q 847 1681 609 1914 
Q 372 2147 372 2553 
Q 372 3047 722 3315 
Q 1072 3584 1716 3584 
Q 2034 3584 2315 3537 
Q 2597 3491 2834 3397 
z
" transform="scale(0.015625)"/>
      </defs>
      <use xlink:href="#DejaVuSans-4e"/>
      <use xlink:href="#DejaVuSans-75" transform="translate(74.804688 0)"/>
      <use xlink:href="#DejaVuSans-6d" transform="translate(138.183594 0)"/>
      <use xlink:href="#DejaVuSans-62" transform="translate(235.595703 0)"/>
      <use xlink:href="#DejaVuSans-65" transform="translate(299.072266 0)"/>
      <use xlink:href="#DejaVuSans-72" transform="translate(360.595703 0)"/>
      <use xlink:href="#DejaVuSans-20" transform="translate(401.708984 0)"/>
      <use xlink:href="#DejaVuSans-6f" transform="translate(433.496094 0)"/>
      <use xlink:href="#DejaVuSans-66" transform="translate(494.677734 0)"/>
      <use xlink:href="#DejaVuSans-20" transform="translate(529.882812 0)"/>
      <use xlink:href="#DejaVuSans-4a" transform="translate(561.669922 0)"/>
      <use xlink:href="#DejaVuSans-6f" transform="translate(591.162109 0)"/>
      <use xlink:href="#DejaVuSans-62" transform="translate(652.34375 0)"/>
      <use xlink:href="#DejaVuSans-73" transform="translate(715.820312 0)"/>
     </g>
    </g>
   </g>
   <g id="matplotlib.axis_2">
    <g id="ytick_1">
     <g id="line2d_5">
      <path d="M 43.78125 273.636326 
L 400.90125 273.636326 
" clip-path="url(#p20651e0cc6)" style="fill: none; stroke: #cccccc; stroke-width: 0.8; stroke-linecap: round"/>
     </g>
     <g id="text_6">
      <!-- 0.2 -->
      <g style="fill: #262626" transform="translate(20.878125 277.435545) scale(0.1 -0.1)">
       <defs>
        <path id="DejaVuSans-30" d="M 2034 4250 
Q 1547 4250 1301 3770 
Q 1056 3291 1056 2328 
Q 1056 1369 1301 889 
Q 1547 409 2034 409 
Q 2525 409 2770 889 
Q 3016 1369 3016 2328 
Q 3016 3291 2770 3770 
Q 2525 4250 2034 4250 
z
M 2034 4750 
Q 2819 4750 3233 4129 
Q 3647 3509 3647 2328 
Q 3647 1150 3233 529 
Q 2819 -91 2034 -91 
Q 1250 -91 836 529 
Q 422 1150 422 2328 
Q 422 3509 836 4129 
Q 1250 4750 2034 4750 
z
" transform="scale(0.015625)"/>
        <path id="DejaVuSans-2e" d="M 684 794 
L 1344 794 
L 1344 0 
L 684 0 
L 684 794 
z
" transform="scale(0.015625)"/>
       </defs>
       <use xlink:href="#DejaVuSans-30"/>
       <use xlink:href="#DejaVuSans-2e" transform="translate(63.623047 0)"/>
       <use xlink:href="#DejaVuSans-32" transform="translate(95.410156 0)"/>
      </g>
     </g>
    </g>
    <g id="ytick_2">
     <g id="line2d_6">
      <path d="M 43.78125 233.600866 
L 400.90125 233.600866 
" clip-path="url(#p20651e0cc6)" style="fill: none; stroke: #cccccc; stroke-width: 0.8; stroke-linecap: round"/>
     </g>
     <g id="text_7">
      <!-- 0.4 -->
      <g style="fill: #262626" transform="translate(20.878125 237.400085) scale(0.1 -0.1)">
       <use xlink:href="#DejaVuSans-30"/>
       <use xlink:href="#DejaVuSans-2e" transform="translate(63.623047 0)"/>
       <use xlink:href="#DejaVuSans-34" transform="translate(95.410156 0)"/>
      </g>
     </g>
    </g>
    <g id="ytick_3">
     <g id="line2d_7">
      <path d="M 43.78125 193.565407 
L 400.90125 193.565407 
" clip-path="url(#p20651e0cc6)" style="fill: none; stroke: #cccccc; stroke-width: 0.8; stroke-linecap: round"/>
     </g>
     <g id="text_8">
      <!-- 0.6 -->
      <g style="fill: #262626" transform="translate(20.878125 197.364626) scale(0.1 -0.1)">
       <use xlink:href="#DejaVuSans-30"/>
       <use xlink:href="#DejaVuSans-2e" transform="translate(63.623047 0)"/>
       <use xlink:href="#DejaVuSans-36" transform="translate(95.410156 0)"/>
      </g>
     </g>
    </g>
    <g id="ytick_4">
     <g id="line2d_8">
      <path d="M 43.78125 153.529948 
L 400.90125 153.529948 
" clip-path="url(#p20651e0cc6)" style="fill: none; stroke: #cccccc; stroke-width: 0.8; stroke-linecap: round"/>
     </g>
     <g id="text_9">
      <!-- 0.8 -->
      <g style="fill: #262626" transform="translate(20.878125 157.329166) scale(0.1 -0.1)">
       <use xlink:href="#DejaVuSans-30"/>
       <use xlink:href="#DejaVuSans-2e" transform="translate(63.623047 0)"/>
       <use xlink:href="#DejaVuSans-38" transform="translate(95.410156 0)"/>
      </g>
     </g>
    </g>
    <g id="ytick_5">
     <g id="line2d_9">
      <path d="M 43.78125 113.494488 
L 400.90125 113.494488 
" clip-path="url(#p20651e0cc6)" style="fill: none; stroke: #cccccc; stroke-width: 0.8; stroke-linecap: round"/>
     </g>
     <g id="text_10">
      <!-- 1.0 -->
      <g style="fill: #262626" transform="translate(20.878125 117.293707) scale(0.1 -0.1)">
       <use xlink:href="#DejaVuSans-31"/>
       <use xlink:href="#DejaVuSans-2e" transform="translate(63.623047 0)"/>
       <use xlink:href="#DejaVuSans-30" transform="translate(95.410156 0)"/>
      </g>
     </g>
    </g>
    <g id="ytick_6">
     <g id="line2d_10">
      <path d="M 43.78125 73.459029 
L 400.90125 73.459029 
" clip-path="url(#p20651e0cc6)" style="fill: none; stroke: #cccccc; stroke-width: 0.8; stroke-linecap: round"/>
     </g>
     <g id="text_11">
      <!-- 1.2 -->
      <g style="fill: #262626" transform="translate(20.878125 77.258247) scale(0.1 -0.1)">
       <use xlink:href="#DejaVuSans-31"/>
       <use xlink:href="#DejaVuSans-2e" transform="translate(63.623047 0)"/>
       <use xlink:href="#DejaVuSans-32" transform="translate(95.410156 0)"/>
      </g>
     </g>
    </g>
    <g id="text_12">
     <!-- Mean Latency (ns) -->
     <g style="fill: #262626" transform="translate(14.798438 214.92035) rotate(-90) scale(0.1 -0.1)">
      <defs>
       <path id="DejaVuSans-4d" d="M 628 4666 
L 1569 4666 
L 2759 1491 
L 3956 4666 
L 4897 4666 
L 4897 0 
L 4281 0 
L 4281 4097 
L 3078 897 
L 2444 897 
L 1241 4097 
L 1241 0 
L 628 0 
L 628 4666 
z
" transform="scale(0.015625)"/>
       <path id="DejaVuSans-61" d="M 2194 1759 
Q 1497 1759 1228 1600 
Q 959 1441 959 1056 
Q 959 750 1161 570 
Q 1363 391 1709 391 
Q 2188 391 2477 730 
Q 2766 1069 2766 1631 
L 2766 1759 
L 2194 1759 
z
M 3341 1997 
L 3341 0 
L 2766 0 
L 2766 531 
Q 2569 213 2275 61 
Q 1981 -91 1556 -91 
Q 1019 -91 701 211 
Q 384 513 384 1019 
Q 384 1609 779 1909 
Q 1175 2209 1959 2209 
L 2766 2209 
L 2766 2266 
Q 2766 2663 2505 2880 
Q 2244 3097 1772 3097 
Q 1472 3097 1187 3025 
Q 903 2953 641 2809 
L 641 3341 
Q 956 3463 1253 3523 
Q 1550 3584 1831 3584 
Q 2591 3584 2966 3190 
Q 3341 2797 3341 1997 
z
" transform="scale(0.015625)"/>
       <path id="DejaVuSans-6e" d="M 3513 2113 
L 3513 0 
L 2938 0 
L 2938 2094 
Q 2938 2591 2744 2837 
Q 2550 3084 2163 3084 
Q 1697 3084 1428 2787 
Q 1159 2491 1159 1978 
L 1159 0 
L 581 0 
L 581 3500 
L 1159 3500 
L 1159 2956 
Q 1366 3272 1645 3428 
Q 1925 3584 2291 3584 
Q 2894 3584 3203 3211 
Q 3513 2838 3513 2113 
z
" transform="scale(0.015625)"/>
       <path id="DejaVuSans-4c" d="M 628 4666 
L 1259 4666 
L 1259 531 
L 3531 531 
L 3531 0 
L 628 0 
L 628 4666 
z
" transform="scale(0.015625)"/>
       <path id="DejaVuSans-74" d="M 1172 4494 
L 1172 3500 
L 2356 3500 
L 2356 3053 
L 1172 3053 
L 1172 1153 
Q 1172 725 1289 603 
Q 1406 481 1766 481 
L 2356 481 
L 2356 0 
L 1766 0 
Q 1100 0 847 248 
Q 594 497 594 1153 
L 594 3053 
L 172 3053 
L 172 3500 
L 594 3500 
L 594 4494 
L 1172 4494 
z
" transform="scale(0.015625)"/>
       <path id="DejaVuSans-63" d="M 3122 3366 
L 3122 2828 
Q 2878 2963 2633 3030 
Q 2388 3097 2138 3097 
Q 1578 3097 1268 2742 
Q 959 2388 959 1747 
Q 959 1106 1268 751 
Q 1578 397 2138 397 
Q 2388 397 2633 464 
Q 2878 531 3122 666 
L 3122 134 
Q 2881 22 2623 -34 
Q 2366 -91 2075 -91 
Q 1284 -91 818 406 
Q 353 903 353 1747 
Q 353 2603 823 3093 
Q 1294 3584 2113 3584 
Q 2378 3584 2631 3529 
Q 2884 3475 3122 3366 
z
" transform="scale(0.015625)"/>
       <path id="DejaVuSans-79" d="M 2059 -325 
Q 1816 -950 1584 -1140 
Q 1353 -1331 966 -1331 
L 506 -1331 
L 506 -850 
L 844 -850 
Q 1081 -850 1212 -737 
Q 1344 -625 1503 -206 
L 1606 56 
L 191 3500 
L 800 3500 
L 1894 763 
L 2988 3500 
L 3597 3500 
L 2059 -325 
z
" transform="scale(0.015625)"/>
       <path id="DejaVuSans-28" d="M 1984 4856 
Q 1566 4138 1362 3434 
Q 1159 2731 1159 2009 
Q 1159 1288 1364 580 
Q 1569 -128 1984 -844 
L 1484 -844 
Q 1016 -109 783 600 
Q 550 1309 550 2009 
Q 550 2706 781 3412 
Q 1013 4119 1484 4856 
L 1984 4856 
z
" transform="scale(0.015625)"/>
       <path id="DejaVuSans-29" d="M 513 4856 
L 1013 4856 
Q 1481 4119 1714 3412 
Q 1947 2706 1947 2009 
Q 1947 1309 1714 600 
Q 1481 -109 1013 -844 
L 513 -844 
Q 928 -128 1133 580 
Q 1338 1288 1338 2009 
Q 1338 2731 1133 3434 
Q 928 4138 513 4856 
z
" transform="scale(0.015625)"/>
      </defs>
      <use xlink:href="#DejaVuSans-4d"/>
      <use xlink:href="#DejaVuSans-65" transform="translate(86.279297 0)"/>
      <use xlink:href="#DejaVuSans-61" transform="translate(147.802734 0)"/>
      <use xlink:href="#DejaVuSans-6e" transform="translate(209.082031 0)"/>
      <use xlink:href="#DejaVuSans-20" transform="translate(272.460938 0)"/>
      <use xlink:href="#DejaVuSans-4c" transform="translate(304.248047 0)"/>
      <use xlink:href="#DejaVuSans-61" transform="translate(359.960938 0)"/>
      <use xlink:href="#DejaVuSans-74" transform="translate(421.240234 0)"/>
      <use xlink:href="#DejaVuSans-65" transform="translate(460.449219 0)"/>
      <use xlink:href="#DejaVuSans-6e" transform="translate(521.972656 0)"/>
      <use xlink:href="#DejaVuSans-63" transform="translate(585.351562 0)"/>
      <use xlink:href="#DejaVuSans-79" transform="translate(640.332031 0)"/>
      <use xlink:href="#DejaVuSans-20" transform="translate(699.511719 0)"/>
      <use xlink:href="#DejaVuSans-28" transform="translate(731.298828 0)"/>
      <use xlink:href="#DejaVuSans-6e" transform="translate(770.3125 0)"/>
      <use xlink:href="#DejaVuSans-73" transform="translate(833.691406 0)"/>
      <use xlink:href="#DejaVuSans-29" transform="translate(885.791016 0)"/>
     </g>
    </g>
    <g id="text_13">
     <!-- 1e7 -->
     <g style="fill: #262626" transform="translate(43.78125 32.623725) scale(0.1 -0.1)">
      <defs>
       <path id="DejaVuSans-37" d="M 525 4666 
L 3525 4666 
L 3525 4397 
L 1831 0 
L 1172 0 
L 2766 4134 
L 525 4134 
L 525 4666 
z
" transform="scale(0.015625)"/>
      </defs>
      <use xlink:href="#DejaVuSans-31"/>
      <use xlink:href="#DejaVuSans-65" transform="translate(63.623047 0)"/>
      <use xlink:href="#DejaVuSans-37" transform="translate(125.146484 0)"/>
     </g>
    </g>
   </g>
   <g id="FillBetweenPolyCollection_1"/>
   <g id="FillBetweenPolyCollection_2"/>
   <g id="FillBetweenPolyCollection_3"/>
   <g id="FillBetweenPolyCollection_4"/>
   <g id="FillBetweenPolyCollection_5"/>
   <g id="FillBetweenPolyCollection_6"/>
   <g id="FillBetweenPolyCollection_7"/>
   <g id="line2d_11">
    <path d="M 60.013977 286.4687 
L 106.393198 249.231876 
L 199.15164 176.209467 
L 384.668523 62.216319 
" clip-path="url(#p20651e0cc6)" style="fill: none; stroke: #4c02a1; stroke-width: 1.5; stroke-linecap: round"/>
   </g>
   <g id="line2d_12">
    <path d="M 60.013977 289.639725 
L 106.393198 256.898066 
L 199.15164 221.164123 
L 384.668523 144.58671 
" clip-path="url(#p20651e0cc6)" style="fill: none; stroke: #7e03a8; stroke-width: 1.5; stroke-linecap: round"/>
   </g>
   <g id="line2d_13">
    <path d="M 60.013977 286.024578 
L 106.393198 248.328906 
L 199.15164 174.781526 
L 384.668523 47.719725 
" clip-path="url(#p20651e0cc6)" style="fill: none; stroke: #aa2395; stroke-width: 1.5; stroke-linecap: round"/>
   </g>
   <g id="line2d_14">
    <path d="M 60.013977 285.948188 
L 106.393198 247.20136 
L 199.15164 164.673062 
L 384.668523 144.918954 
" clip-path="url(#p20651e0cc6)" style="fill: none; stroke: #cc4778; stroke-width: 1.5; stroke-linecap: round"/>
   </g>
   <g id="line2d_15">
    <path d="M 60.013977 287.508739 
L 106.393198 246.621391 
L 199.15164 176.154559 
L 384.668523 141.557087 
" clip-path="url(#p20651e0cc6)" style="fill: none; stroke: #e66c5c; stroke-width: 1.5; stroke-linecap: round"/>
   </g>
   <g id="line2d_16">
    <path d="M 60.013977 286.222547 
L 106.393198 245.679312 
L 199.15164 172.114816 
L 384.668523 142.303901 
" clip-path="url(#p20651e0cc6)" style="fill: none; stroke: #f89540; stroke-width: 1.5; stroke-linecap: round"/>
   </g>
   <g id="line2d_17">
    <path d="M 60.013977 286.439132 
L 106.393198 237.190928 
L 199.15164 177.571128 
L 384.668523 144.058464 
" clip-path="url(#p20651e0cc6)" style="fill: none; stroke: #fdc527; stroke-width: 1.5; stroke-linecap: round"/>
   </g>
   <g id="line2d_18"/>
   <g id="line2d_19"/>
   <g id="line2d_20"/>
   <g id="line2d_21"/>
   <g id="line2d_22"/>
   <g id="line2d_23"/>
   <g id="line2d_24"/>
   <g id="text_14">
    <path d="M 101.508107 255.628682 
L 102.764273 254.620135 
L 99.281802 250.282647 
L 98.134862 251.654351 
L 97.572385 250.953774 
L 98.712014 249.587939 
L 99.480822 248.970681 
L 103.52577 254.008747 
L 104.781936 253.000199 
L 105.301372 253.647168 
L 102.027543 256.27565 
L 101.508107 255.628682 
z
" clip-path="url(#p20651e0cc6)" style="fill: #4c02a1; stroke: #ffffff; stroke-width: 5"/>
    <path d="M 101.508107 255.628682 
L 102.764273 254.620135 
L 99.281802 250.282647 
L 98.134862 251.654351 
L 97.572385 250.953774 
L 98.712014 249.587939 
L 99.480822 248.970681 
L 103.52577 254.008747 
L 104.781936 253.000199 
L 105.301372 253.647168 
L 102.027543 256.27565 
L 101.508107 255.628682 
z
" clip-path="url(#p20651e0cc6)" style="fill: #4c02a1"/>
   </g>
   <g id="text_15">
    <path d="M 141.227702 239.543622 
L 140.302752 244.070961 
L 142.626882 243.175622 
L 141.227702 239.543622 
z
M 140.676735 238.834936 
L 141.834426 238.388951 
L 143.542536 242.822878 
L 144.513597 242.44879 
L 144.808486 243.214266 
L 143.837425 243.588354 
L 144.455288 245.192207 
L 143.539634 245.544951 
L 142.921771 243.941097 
L 139.85112 245.124024 
L 139.509048 244.236072 
L 140.676735 238.834936 
z
" clip-path="url(#p20651e0cc6)" style="fill: #7e03a8; stroke: #ffffff; stroke-width: 5"/>
    <path d="M 141.227702 239.543622 
L 140.302752 244.070961 
L 142.626882 243.175622 
L 141.227702 239.543622 
z
M 140.676735 238.834936 
L 141.834426 238.388951 
L 143.542536 242.822878 
L 144.513597 242.44879 
L 144.808486 243.214266 
L 143.837425 243.588354 
L 144.455288 245.192207 
L 143.539634 245.544951 
L 142.921771 243.941097 
L 139.85112 245.124024 
L 139.509048 244.236072 
L 140.676735 238.834936 
z
" clip-path="url(#p20651e0cc6)" style="fill: #7e03a8"/>
   </g>
   <g id="text_16">
    <path d="M 181.725955 187.700878 
Q 181.175001 188.137724 181.093077 188.683249 
Q 181.012376 189.227803 181.421071 189.743251 
Q 181.830736 190.259923 182.379347 190.305501 
Q 182.929182 190.350109 183.480136 189.913263 
Q 184.03109 189.476416 184.113268 188.928696 
Q 184.1957 188.378781 183.788947 187.865782 
Q 183.380253 187.350334 182.830417 187.305726 
Q 182.281806 187.260148 181.725955 187.700878 
z
M 180.693229 187.98531 
Q 180.099069 188.257008 179.55127 188.137006 
Q 179.003724 188.014809 178.615416 187.525072 
Q 178.072756 186.840666 178.244543 186.056388 
Q 178.417555 185.27114 179.266024 184.598396 
Q 180.11939 183.92177 180.920954 183.934285 
Q 181.722517 183.9468 182.265178 184.631207 
Q 182.653486 185.120944 182.646405 185.6829 
Q 182.639578 186.242661 182.243245 186.756315 
Q 182.904447 186.443424 183.516368 186.576395 
Q 184.128543 186.70717 184.561506 187.253226 
Q 185.220659 188.084554 185.066171 188.930889 
Q 184.910713 189.775999 183.965521 190.525433 
Q 183.021554 191.273897 182.162033 191.233555 
Q 181.302767 191.191018 180.643614 190.35969 
Q 180.21065 189.813634 180.224114 189.186795 
Q 180.237831 188.557761 180.693229 187.98531 
z
M 179.442549 186.988889 
Q 179.793967 187.432101 180.267735 187.461248 
Q 180.742727 187.489425 181.243482 187.09238 
Q 181.741789 186.697277 181.825097 186.226429 
Q 181.909629 185.754611 181.558211 185.311399 
Q 181.205821 184.866963 180.727156 184.841699 
Q 180.249716 184.815464 179.751409 185.210567 
Q 179.250653 185.607612 179.169794 186.076518 
Q 179.090159 186.544453 179.442549 186.988889 
z
" clip-path="url(#p20651e0cc6)" style="fill: #aa2395; stroke: #ffffff; stroke-width: 5"/>
    <path d="M 181.725955 187.700878 
Q 181.175001 188.137724 181.093077 188.683249 
Q 181.012376 189.227803 181.421071 189.743251 
Q 181.830736 190.259923 182.379347 190.305501 
Q 182.929182 190.350109 183.480136 189.913263 
Q 184.03109 189.476416 184.113268 188.928696 
Q 184.1957 188.378781 183.788947 187.865782 
Q 183.380253 187.350334 182.830417 187.305726 
Q 182.281806 187.260148 181.725955 187.700878 
z
M 180.693229 187.98531 
Q 180.099069 188.257008 179.55127 188.137006 
Q 179.003724 188.014809 178.615416 187.525072 
Q 178.072756 186.840666 178.244543 186.056388 
Q 178.417555 185.27114 179.266024 184.598396 
Q 180.11939 183.92177 180.920954 183.934285 
Q 181.722517 183.9468 182.265178 184.631207 
Q 182.653486 185.120944 182.646405 185.6829 
Q 182.639578 186.242661 182.243245 186.756315 
Q 182.904447 186.443424 183.516368 186.576395 
Q 184.128543 186.70717 184.561506 187.253226 
Q 185.220659 188.084554 185.066171 188.930889 
Q 184.910713 189.775999 183.965521 190.525433 
Q 183.021554 191.273897 182.162033 191.233555 
Q 181.302767 191.191018 180.643614 190.35969 
Q 180.21065 189.813634 180.224114 189.186795 
Q 180.237831 188.557761 180.693229 187.98531 
z
M 179.442549 186.988889 
Q 179.793967 187.432101 180.267735 187.461248 
Q 180.742727 187.489425 181.243482 187.09238 
Q 181.741789 186.697277 181.825097 186.226429 
Q 181.909629 185.754611 181.558211 185.311399 
Q 181.205821 184.866963 180.727156 184.841699 
Q 180.249716 184.815464 179.751409 185.210567 
Q 179.250653 185.607612 179.169794 186.076518 
Q 179.090159 186.544453 179.442549 186.988889 
z
" clip-path="url(#p20651e0cc6)" style="fill: #aa2395"/>
   </g>
   <g id="text_17">
    <path d="M 217.452488 164.664958 
L 219.05437 164.494387 
L 218.465396 158.963156 
L 216.759351 159.498368 
L 216.664221 158.604981 
L 218.360945 158.070761 
L 219.34134 157.966368 
L 220.025443 164.390986 
L 221.627324 164.220415 
L 221.715174 165.045438 
L 217.540338 165.489981 
L 217.452488 164.664958 
z
M 225.488727 160.5833 
Q 224.828398 160.653613 224.489666 161.14694 
Q 224.152322 161.638547 224.236036 162.424728 
Q 224.319253 163.206247 224.75305 163.620456 
Q 225.188234 164.032947 225.848564 163.962634 
Q 226.508893 163.892321 226.845906 163.397606 
Q 227.182753 162.901337 227.099536 162.119818 
Q 227.015822 161.333637 226.582522 160.924089 
Q 226.149057 160.512987 225.488727 160.5833 
z
M 227.108124 157.301196 
L 227.203254 158.194583 
Q 226.81494 158.059942 226.429179 158.00831 
Q 226.043253 157.955124 225.673469 157.994499 
Q 224.702396 158.0979 224.259486 158.808165 
Q 223.81813 159.518263 223.886227 160.851359 
Q 224.127111 160.398307 224.535055 160.127025 
Q 224.944553 159.855578 225.463494 159.800321 
Q 226.555757 159.684015 227.260317 160.279951 
Q 227.964711 160.874334 228.086146 162.014762 
Q 228.205099 163.131885 227.616736 163.878064 
Q 227.028209 164.62269 225.931285 164.739492 
Q 224.672774 164.8735 223.90521 163.981005 
Q 223.137479 163.086956 222.942589 161.256678 
Q 222.75961 159.538267 223.46645 158.429065 
Q 224.173291 157.319862 225.546776 157.173612 
Q 225.916561 157.134236 226.300336 157.167224 
Q 226.684111 157.200212 227.108124 157.301196 
z
" clip-path="url(#p20651e0cc6)" style="fill: #cc4778; stroke: #ffffff; stroke-width: 5"/>
    <path d="M 217.452488 164.664958 
L 219.05437 164.494387 
L 218.465396 158.963156 
L 216.759351 159.498368 
L 216.664221 158.604981 
L 218.360945 158.070761 
L 219.34134 157.966368 
L 220.025443 164.390986 
L 221.627324 164.220415 
L 221.715174 165.045438 
L 217.540338 165.489981 
L 217.452488 164.664958 
z
M 225.488727 160.5833 
Q 224.828398 160.653613 224.489666 161.14694 
Q 224.152322 161.638547 224.236036 162.424728 
Q 224.319253 163.206247 224.75305 163.620456 
Q 225.188234 164.032947 225.848564 163.962634 
Q 226.508893 163.892321 226.845906 163.397606 
Q 227.182753 162.901337 227.099536 162.119818 
Q 227.015822 161.333637 226.582522 160.924089 
Q 226.149057 160.512987 225.488727 160.5833 
z
M 227.108124 157.301196 
L 227.203254 158.194583 
Q 226.81494 158.059942 226.429179 158.00831 
Q 226.043253 157.955124 225.673469 157.994499 
Q 224.702396 158.0979 224.259486 158.808165 
Q 223.81813 159.518263 223.886227 160.851359 
Q 224.127111 160.398307 224.535055 160.127025 
Q 224.944553 159.855578 225.463494 159.800321 
Q 226.555757 159.684015 227.260317 160.279951 
Q 227.964711 160.874334 228.086146 162.014762 
Q 228.205099 163.131885 227.616736 163.878064 
Q 227.028209 164.62269 225.931285 164.739492 
Q 224.672774 164.8735 223.90521 163.981005 
Q 223.137479 163.086956 222.942589 161.256678 
Q 222.75961 159.538267 223.46645 158.429065 
Q 224.173291 157.319862 225.546776 157.173612 
Q 225.916561 157.134236 226.300336 157.167224 
Q 226.684111 157.200212 227.108124 157.301196 
z
" clip-path="url(#p20651e0cc6)" style="fill: #cc4778"/>
   </g>
   <g id="text_18">
    <path d="M 260.036783 163.607869 
Q 260.760385 163.627098 261.238475 164.025896 
Q 261.717815 164.422871 261.84672 165.114079 
Q 262.044374 166.173931 261.423332 166.892148 
Q 260.802004 167.608829 259.457989 167.859477 
Q 259.007936 167.943409 258.51362 167.943407 
Q 258.019304 167.943406 257.477654 167.860045 
L 257.303202 166.92461 
Q 257.749467 167.084569 258.251047 167.115005 
Q 258.754164 167.145153 259.277946 167.047472 
Q 260.188805 166.877604 260.599476 166.429088 
Q 261.010146 165.980573 260.882101 165.293973 
Q 260.763795 164.659598 260.253428 164.386027 
Q 259.742775 164.110921 258.951726 164.258445 
L 258.116132 164.414277 
L 257.967462 163.617084 
L 258.841456 163.454091 
Q 259.555704 163.320889 259.88182 162.964435 
Q 260.207935 162.607982 260.107676 162.070376 
Q 260.004838 161.518945 259.558154 161.297076 
Q 259.11272 161.073384 258.383112 161.209451 
Q 257.983747 161.283929 257.543878 161.456559 
Q 257.103722 161.627654 256.590702 161.910882 
L 256.429714 161.04764 
Q 256.954035 160.790914 257.422021 160.624166 
Q 257.890008 160.457419 258.317021 160.377784 
Q 259.421418 160.171823 260.157144 160.554362 
Q 260.89412 160.935079 261.053389 161.789104 
Q 261.164533 162.385079 260.900021 162.858789 
Q 260.635509 163.332499 260.036783 163.607869 
z
M 264.75706 165.88261 
L 268.140906 165.251549 
L 268.293014 166.067174 
L 263.74333 166.915655 
L 263.591223 166.10003 
Q 264.036091 165.425794 264.809101 164.286644 
Q 265.58336 163.145673 265.775452 162.820571 
Q 266.143471 162.211529 266.260189 161.814654 
Q 266.378444 161.417493 266.313132 161.067281 
Q 266.206571 160.495883 265.73864 160.21122 
Q 265.270422 159.92502 264.626831 160.045045 
Q 264.170634 160.130122 263.693253 160.382863 
Q 263.217408 160.635316 262.701557 161.065301 
L 262.518798 160.085321 
Q 263.060193 159.741171 263.546272 159.526545 
Q 264.033886 159.311633 264.456291 159.232857 
Q 265.569903 159.025177 266.33591 159.459289 
Q 267.101631 159.891865 267.275223 160.822692 
Q 267.357722 161.265065 267.265737 161.692294 
Q 267.175002 162.117702 266.837497 162.736948 
Q 266.743755 162.899069 266.224199 163.684189 
Q 265.706179 164.469023 264.75706 165.88261 
z
" clip-path="url(#p20651e0cc6)" style="fill: #e66c5c; stroke: #ffffff; stroke-width: 5"/>
    <path d="M 260.036783 163.607869 
Q 260.760385 163.627098 261.238475 164.025896 
Q 261.717815 164.422871 261.84672 165.114079 
Q 262.044374 166.173931 261.423332 166.892148 
Q 260.802004 167.608829 259.457989 167.859477 
Q 259.007936 167.943409 258.51362 167.943407 
Q 258.019304 167.943406 257.477654 167.860045 
L 257.303202 166.92461 
Q 257.749467 167.084569 258.251047 167.115005 
Q 258.754164 167.145153 259.277946 167.047472 
Q 260.188805 166.877604 260.599476 166.429088 
Q 261.010146 165.980573 260.882101 165.293973 
Q 260.763795 164.659598 260.253428 164.386027 
Q 259.742775 164.110921 258.951726 164.258445 
L 258.116132 164.414277 
L 257.967462 163.617084 
L 258.841456 163.454091 
Q 259.555704 163.320889 259.88182 162.964435 
Q 260.207935 162.607982 260.107676 162.070376 
Q 260.004838 161.518945 259.558154 161.297076 
Q 259.11272 161.073384 258.383112 161.209451 
Q 257.983747 161.283929 257.543878 161.456559 
Q 257.103722 161.627654 256.590702 161.910882 
L 256.429714 161.04764 
Q 256.954035 160.790914 257.422021 160.624166 
Q 257.890008 160.457419 258.317021 160.377784 
Q 259.421418 160.171823 260.157144 160.554362 
Q 260.89412 160.935079 261.053389 161.789104 
Q 261.164533 162.385079 260.900021 162.858789 
Q 260.635509 163.332499 260.036783 163.607869 
z
M 264.75706 165.88261 
L 268.140906 165.251549 
L 268.293014 166.067174 
L 263.74333 166.915655 
L 263.591223 166.10003 
Q 264.036091 165.425794 264.809101 164.286644 
Q 265.58336 163.145673 265.775452 162.820571 
Q 266.143471 162.211529 266.260189 161.814654 
Q 266.378444 161.417493 266.313132 161.067281 
Q 266.206571 160.495883 265.73864 160.21122 
Q 265.270422 159.92502 264.626831 160.045045 
Q 264.170634 160.130122 263.693253 160.382863 
Q 263.217408 160.635316 262.701557 161.065301 
L 262.518798 160.085321 
Q 263.060193 159.741171 263.546272 159.526545 
Q 264.033886 159.311633 264.456291 159.232857 
Q 265.569903 159.025177 266.33591 159.459289 
Q 267.101631 159.891865 267.275223 160.822692 
Q 267.357722 161.265065 267.265737 161.692294 
Q 267.175002 162.117702 266.837497 162.736948 
Q 266.743755 162.899069 266.224199 163.684189 
Q 265.706179 164.469023 264.75706 165.88261 
z
" clip-path="url(#p20651e0cc6)" style="fill: #e66c5c"/>
   </g>
   <g id="text_19">
    <path d="M 299.468301 154.700299 
Q 298.812649 154.805656 298.500653 155.316311 
Q 298.189952 155.825176 298.31539 156.605787 
Q 298.440083 157.38177 298.89531 157.772305 
Q 299.351831 158.161049 300.007482 158.055691 
Q 300.663134 157.950334 300.973339 157.438384 
Q 301.283296 156.924891 301.158603 156.148908 
Q 301.033166 155.368297 300.578683 154.982391 
Q 300.123952 154.594941 299.468301 154.700299 
z
M 300.910722 151.336659 
L 301.053264 152.223716 
Q 300.658335 152.109933 300.270373 152.078905 
Q 299.882163 152.046334 299.514998 152.105334 
Q 298.550805 152.260272 298.146325 152.993102 
Q 297.743387 153.725684 297.882338 155.053266 
Q 298.098768 154.588036 298.491696 154.295427 
Q 298.886166 154.00257 299.401431 153.919772 
Q 300.485956 153.745498 301.221234 154.303092 
Q 301.956265 154.859143 302.138223 155.991492 
Q 302.316463 157.1007 301.768648 157.877136 
Q 301.220585 158.652029 300.131432 158.827046 
Q 298.881838 159.027845 298.06786 158.177466 
Q 297.253635 157.325545 296.961609 155.508233 
Q 296.687432 153.801997 297.334236 152.656747 
Q 297.981041 151.511496 299.344796 151.292353 
Q 299.711961 151.233353 300.096948 151.245869 
Q 300.481935 151.258384 300.910722 151.336659 
z
M 305.842307 151.251594 
L 304.000746 155.489635 
L 306.459825 155.094483 
L 305.842307 151.251594 
z
M 305.449872 150.444255 
L 306.674783 150.247423 
L 307.428646 154.938802 
L 308.456091 154.773701 
L 308.586238 155.583623 
L 307.558794 155.748724 
L 307.831483 157.445705 
L 306.862662 157.601386 
L 306.589972 155.904405 
L 303.341026 156.426482 
L 303.190055 155.486972 
L 305.449872 150.444255 
z
" clip-path="url(#p20651e0cc6)" style="fill: #f89540; stroke: #ffffff; stroke-width: 5"/>
    <path d="M 299.468301 154.700299 
Q 298.812649 154.805656 298.500653 155.316311 
Q 298.189952 155.825176 298.31539 156.605787 
Q 298.440083 157.38177 298.89531 157.772305 
Q 299.351831 158.161049 300.007482 158.055691 
Q 300.663134 157.950334 300.973339 157.438384 
Q 301.283296 156.924891 301.158603 156.148908 
Q 301.033166 155.368297 300.578683 154.982391 
Q 300.123952 154.594941 299.468301 154.700299 
z
M 300.910722 151.336659 
L 301.053264 152.223716 
Q 300.658335 152.109933 300.270373 152.078905 
Q 299.882163 152.046334 299.514998 152.105334 
Q 298.550805 152.260272 298.146325 152.993102 
Q 297.743387 153.725684 297.882338 155.053266 
Q 298.098768 154.588036 298.491696 154.295427 
Q 298.886166 154.00257 299.401431 153.919772 
Q 300.485956 153.745498 301.221234 154.303092 
Q 301.956265 154.859143 302.138223 155.991492 
Q 302.316463 157.1007 301.768648 157.877136 
Q 301.220585 158.652029 300.131432 158.827046 
Q 298.881838 159.027845 298.06786 158.177466 
Q 297.253635 157.325545 296.961609 155.508233 
Q 296.687432 153.801997 297.334236 152.656747 
Q 297.981041 151.511496 299.344796 151.292353 
Q 299.711961 151.233353 300.096948 151.245869 
Q 300.481935 151.258384 300.910722 151.336659 
z
M 305.842307 151.251594 
L 304.000746 155.489635 
L 306.459825 155.094483 
L 305.842307 151.251594 
z
M 305.449872 150.444255 
L 306.674783 150.247423 
L 307.428646 154.938802 
L 308.456091 154.773701 
L 308.586238 155.583623 
L 307.558794 155.748724 
L 307.831483 157.445705 
L 306.862662 157.601386 
L 306.589972 155.904405 
L 303.341026 156.426482 
L 303.190055 155.486972 
L 305.449872 150.444255 
z
" clip-path="url(#p20651e0cc6)" style="fill: #f89540"/>
   </g>
   <g id="text_20">
    <path d="M 335.041409 154.984265 
L 336.626688 154.697893 
L 335.637856 149.22399 
L 333.97515 149.881601 
L 333.815437 148.997474 
L 335.468917 148.341529 
L 336.439151 148.166261 
L 337.587697 154.524292 
L 339.172976 154.237919 
L 339.320467 155.054392 
L 335.188901 155.800738 
L 335.041409 154.984265 
z
M 341.969702 153.732705 
L 345.357064 153.120796 
L 345.504556 153.937268 
L 340.950145 154.759999 
L 340.802654 153.943526 
Q 341.251329 153.271818 342.030771 152.137059 
Q 342.811472 151.000486 343.0054 150.676476 
Q 343.376858 150.069526 343.495819 149.673317 
Q 343.616319 149.276832 343.552989 148.926256 
Q 343.449662 148.354264 342.983348 148.066958 
Q 342.516757 147.778115 341.872497 147.894497 
Q 341.415826 147.976992 340.937023 148.227028 
Q 340.459758 148.476786 339.941483 148.903845 
L 339.764271 147.922848 
Q 340.307604 147.581766 340.794888 147.369893 
Q 341.283711 147.157742 341.706554 147.081357 
Q 342.821324 146.87998 343.584863 147.318418 
Q 344.348124 147.755319 344.516448 148.687113 
Q 344.596443 149.129945 344.502043 149.556648 
Q 344.408904 149.981535 344.0679 150.598862 
Q 343.973243 150.76045 343.449254 151.542619 
Q 342.926802 152.32451 341.969702 153.732705 
z
M 349.001959 149.786939 
Q 348.310033 149.911932 347.980269 150.354159 
Q 347.652043 150.796109 347.768981 151.443444 
Q 347.886196 152.092317 348.348304 152.391497 
Q 348.811949 152.690399 349.503874 152.565406 
Q 350.1958 152.440413 350.526824 151.996371 
Q 350.859107 151.550513 350.742725 150.906253 
Q 350.625787 150.258917 350.162142 149.960015 
Q 349.700035 149.660835 349.001959 149.786939 
z
M 347.957285 149.550126 
Q 347.305237 149.509136 346.878981 149.144732 
Q 346.453985 148.778512 346.342881 148.163467 
Q 346.187612 147.303941 346.709309 146.693667 
Q 347.232544 146.083116 348.29811 145.890627 
Q 349.369827 145.697027 350.070532 146.08648 
Q 350.771237 146.475933 350.926506 147.335458 
Q 351.03761 147.950504 350.766068 148.44255 
Q 350.495785 148.932781 349.903903 149.19848 
Q 350.634497 149.234807 351.111157 149.640916 
Q 351.589077 150.045209 351.712959 150.730985 
Q 351.901559 151.775024 351.365815 152.448171 
Q 350.829793 153.119781 349.642755 153.334213 
Q 348.457256 153.548367 347.718596 153.107022 
Q 346.981197 152.663862 346.792597 151.619823 
Q 346.668715 150.934047 346.976515 150.387818 
Q 347.285576 149.839773 347.957285 149.550126 
z
M 347.325167 148.081289 
Q 347.425717 148.637905 347.829603 148.887266 
Q 348.235027 149.13635 348.863911 149.022745 
Q 349.48972 148.909696 349.785448 148.533953 
Q 350.082713 148.157932 349.982163 147.601316 
Q 349.881336 147.043163 349.471299 146.794913 
Q 349.0628 146.546385 348.436991 146.659434 
Q 347.808107 146.773038 347.515455 147.148226 
Q 347.22434 147.523135 347.325167 148.081289 
z
" clip-path="url(#p20651e0cc6)" style="fill: #fdc527; stroke: #ffffff; stroke-width: 5"/>
    <path d="M 335.041409 154.984265 
L 336.626688 154.697893 
L 335.637856 149.22399 
L 333.97515 149.881601 
L 333.815437 148.997474 
L 335.468917 148.341529 
L 336.439151 148.166261 
L 337.587697 154.524292 
L 339.172976 154.237919 
L 339.320467 155.054392 
L 335.188901 155.800738 
L 335.041409 154.984265 
z
M 341.969702 153.732705 
L 345.357064 153.120796 
L 345.504556 153.937268 
L 340.950145 154.759999 
L 340.802654 153.943526 
Q 341.251329 153.271818 342.030771 152.137059 
Q 342.811472 151.000486 343.0054 150.676476 
Q 343.376858 150.069526 343.495819 149.673317 
Q 343.616319 149.276832 343.552989 148.926256 
Q 343.449662 148.354264 342.983348 148.066958 
Q 342.516757 147.778115 341.872497 147.894497 
Q 341.415826 147.976992 340.937023 148.227028 
Q 340.459758 148.476786 339.941483 148.903845 
L 339.764271 147.922848 
Q 340.307604 147.581766 340.794888 147.369893 
Q 341.283711 147.157742 341.706554 147.081357 
Q 342.821324 146.87998 343.584863 147.318418 
Q 344.348124 147.755319 344.516448 148.687113 
Q 344.596443 149.129945 344.502043 149.556648 
Q 344.408904 149.981535 344.0679 150.598862 
Q 343.973243 150.76045 343.449254 151.542619 
Q 342.926802 152.32451 341.969702 153.732705 
z
M 349.001959 149.786939 
Q 348.310033 149.911932 347.980269 150.354159 
Q 347.652043 150.796109 347.768981 151.443444 
Q 347.886196 152.092317 348.348304 152.391497 
Q 348.811949 152.690399 349.503874 152.565406 
Q 350.1958 152.440413 350.526824 151.996371 
Q 350.859107 151.550513 350.742725 150.906253 
Q 350.625787 150.258917 350.162142 149.960015 
Q 349.700035 149.660835 349.001959 149.786939 
z
M 347.957285 149.550126 
Q 347.305237 149.509136 346.878981 149.144732 
Q 346.453985 148.778512 346.342881 148.163467 
Q 346.187612 147.303941 346.709309 146.693667 
Q 347.232544 146.083116 348.29811 145.890627 
Q 349.369827 145.697027 350.070532 146.08648 
Q 350.771237 146.475933 350.926506 147.335458 
Q 351.03761 147.950504 350.766068 148.44255 
Q 350.495785 148.932781 349.903903 149.19848 
Q 350.634497 149.234807 351.111157 149.640916 
Q 351.589077 150.045209 351.712959 150.730985 
Q 351.901559 151.775024 351.365815 152.448171 
Q 350.829793 153.119781 349.642755 153.334213 
Q 348.457256 153.548367 347.718596 153.107022 
Q 346.981197 152.663862 346.792597 151.619823 
Q 346.668715 150.934047 346.976515 150.387818 
Q 347.285576 149.839773 347.957285 149.550126 
z
M 347.325167 148.081289 
Q 347.425717 148.637905 347.829603 148.887266 
Q 348.235027 149.13635 348.863911 149.022745 
Q 349.48972 148.909696 349.785448 148.533953 
Q 350.082713 148.157932 349.982163 147.601316 
Q 349.881336 147.043163 349.471299 146.794913 
Q 349.0628 146.546385 348.436991 146.659434 
Q 347.808107 146.773038 347.515455 147.148226 
Q 347.22434 147.523135 347.325167 148.081289 
z
" clip-path="url(#p20651e0cc6)" style="fill: #fdc527"/>
   </g>
   <g id="patch_3">
    <path d="M 43.78125 301.735725 
L 43.78125 35.623725 
" style="fill: none; stroke: #cccccc; stroke-width: 0.8; stroke-linejoin: miter; stroke-linecap: square"/>
   </g>
   <g id="patch_4">
    <path d="M 400.90125 301.735725 
L 400.90125 35.623725 
" style="fill: none; stroke: #cccccc; stroke-width: 0.8; stroke-linejoin: miter; stroke-linecap: square"/>
   </g>
   <g id="patch_5">
    <path d="M 43.78125 301.735725 
L 400.90125 301.735725 
" style="fill: none; stroke: #cccccc; stroke-width: 0.8; stroke-linejoin: miter; stroke-linecap: square"/>
   </g>
   <g id="patch_6">
    <path d="M 43.78125 35.623725 
L 400.90125 35.623725 
" style="fill: none; stroke: #cccccc; stroke-width: 0.8; stroke-linejoin: miter; stroke-linecap: square"/>
   </g>
   <g id="text_21">
    <!-- Block Size = 1M, Read-Write Type = Sequential Write-only -->
    <g style="fill: #262626; opacity: 0.75" transform="translate(77.210781 30.882918) scale(0.1 -0.1)">
     <defs>
      <path id="DejaVuSans-42" d="M 1259 2228 
L 1259 519 
L 2272 519 
Q 2781 519 3026 730 
Q 3272 941 3272 1375 
Q 3272 1813 3026 2020 
Q 2781 2228 2272 2228 
L 1259 2228 
z
M 1259 4147 
L 1259 2741 
L 2194 2741 
Q 2656 2741 2882 2914 
Q 3109 3088 3109 3444 
Q 3109 3797 2882 3972 
Q 2656 4147 2194 4147 
L 1259 4147 
z
M 628 4666 
L 2241 4666 
Q 2963 4666 3353 4366 
Q 3744 4066 3744 3513 
Q 3744 3084 3544 2831 
Q 3344 2578 2956 2516 
Q 3422 2416 3680 2098 
Q 3938 1781 3938 1306 
Q 3938 681 3513 340 
Q 3088 0 2303 0 
L 628 0 
L 628 4666 
z
" transform="scale(0.015625)"/>
      <path id="DejaVuSans-6c" d="M 603 4863 
L 1178 4863 
L 1178 0 
L 603 0 
L 603 4863 
z
" transform="scale(0.015625)"/>
      <path id="DejaVuSans-6b" d="M 581 4863 
L 1159 4863 
L 1159 1991 
L 2875 3500 
L 3609 3500 
L 1753 1863 
L 3688 0 
L 2938 0 
L 1159 1709 
L 1159 0 
L 581 0 
L 581 4863 
z
" transform="scale(0.015625)"/>
      <path id="DejaVuSans-53" d="M 3425 4513 
L 3425 3897 
Q 3066 4069 2747 4153 
Q 2428 4238 2131 4238 
Q 1616 4238 1336 4038 
Q 1056 3838 1056 3469 
Q 1056 3159 1242 3001 
Q 1428 2844 1947 2747 
L 2328 2669 
Q 3034 2534 3370 2195 
Q 3706 1856 3706 1288 
Q 3706 609 3251 259 
Q 2797 -91 1919 -91 
Q 1588 -91 1214 -16 
Q 841 59 441 206 
L 441 856 
Q 825 641 1194 531 
Q 1563 422 1919 422 
Q 2459 422 2753 634 
Q 3047 847 3047 1241 
Q 3047 1584 2836 1778 
Q 2625 1972 2144 2069 
L 1759 2144 
Q 1053 2284 737 2584 
Q 422 2884 422 3419 
Q 422 4038 858 4394 
Q 1294 4750 2059 4750 
Q 2388 4750 2728 4690 
Q 3069 4631 3425 4513 
z
" transform="scale(0.015625)"/>
      <path id="DejaVuSans-69" d="M 603 3500 
L 1178 3500 
L 1178 0 
L 603 0 
L 603 3500 
z
M 603 4863 
L 1178 4863 
L 1178 4134 
L 603 4134 
L 603 4863 
z
" transform="scale(0.015625)"/>
      <path id="DejaVuSans-7a" d="M 353 3500 
L 3084 3500 
L 3084 2975 
L 922 459 
L 3084 459 
L 3084 0 
L 275 0 
L 275 525 
L 2438 3041 
L 353 3041 
L 353 3500 
z
" transform="scale(0.015625)"/>
      <path id="DejaVuSans-3d" d="M 678 2906 
L 4684 2906 
L 4684 2381 
L 678 2381 
L 678 2906 
z
M 678 1631 
L 4684 1631 
L 4684 1100 
L 678 1100 
L 678 1631 
z
" transform="scale(0.015625)"/>
      <path id="DejaVuSans-2c" d="M 750 794 
L 1409 794 
L 1409 256 
L 897 -744 
L 494 -744 
L 750 256 
L 750 794 
z
" transform="scale(0.015625)"/>
      <path id="DejaVuSans-52" d="M 2841 2188 
Q 3044 2119 3236 1894 
Q 3428 1669 3622 1275 
L 4263 0 
L 3584 0 
L 2988 1197 
Q 2756 1666 2539 1819 
Q 2322 1972 1947 1972 
L 1259 1972 
L 1259 0 
L 628 0 
L 628 4666 
L 2053 4666 
Q 2853 4666 3247 4331 
Q 3641 3997 3641 3322 
Q 3641 2881 3436 2590 
Q 3231 2300 2841 2188 
z
M 1259 4147 
L 1259 2491 
L 2053 2491 
Q 2509 2491 2742 2702 
Q 2975 2913 2975 3322 
Q 2975 3731 2742 3939 
Q 2509 4147 2053 4147 
L 1259 4147 
z
" transform="scale(0.015625)"/>
      <path id="DejaVuSans-64" d="M 2906 2969 
L 2906 4863 
L 3481 4863 
L 3481 0 
L 2906 0 
L 2906 525 
Q 2725 213 2448 61 
Q 2172 -91 1784 -91 
Q 1150 -91 751 415 
Q 353 922 353 1747 
Q 353 2572 751 3078 
Q 1150 3584 1784 3584 
Q 2172 3584 2448 3432 
Q 2725 3281 2906 2969 
z
M 947 1747 
Q 947 1113 1208 752 
Q 1469 391 1925 391 
Q 2381 391 2643 752 
Q 2906 1113 2906 1747 
Q 2906 2381 2643 2742 
Q 2381 3103 1925 3103 
Q 1469 3103 1208 2742 
Q 947 2381 947 1747 
z
" transform="scale(0.015625)"/>
      <path id="DejaVuSans-2d" d="M 313 2009 
L 1997 2009 
L 1997 1497 
L 313 1497 
L 313 2009 
z
" transform="scale(0.015625)"/>
      <path id="DejaVuSans-57" d="M 213 4666 
L 850 4666 
L 1831 722 
L 2809 4666 
L 3519 4666 
L 4500 722 
L 5478 4666 
L 6119 4666 
L 4947 0 
L 4153 0 
L 3169 4050 
L 2175 0 
L 1381 0 
L 213 4666 
z
" transform="scale(0.015625)"/>
      <path id="DejaVuSans-54" d="M -19 4666 
L 3928 4666 
L 3928 4134 
L 2272 4134 
L 2272 0 
L 1638 0 
L 1638 4134 
L -19 4134 
L -19 4666 
z
" transform="scale(0.015625)"/>
      <path id="DejaVuSans-70" d="M 1159 525 
L 1159 -1331 
L 581 -1331 
L 581 3500 
L 1159 3500 
L 1159 2969 
Q 1341 3281 1617 3432 
Q 1894 3584 2278 3584 
Q 2916 3584 3314 3078 
Q 3713 2572 3713 1747 
Q 3713 922 3314 415 
Q 2916 -91 2278 -91 
Q 1894 -91 1617 61 
Q 1341 213 1159 525 
z
M 3116 1747 
Q 3116 2381 2855 2742 
Q 2594 3103 2138 3103 
Q 1681 3103 1420 2742 
Q 1159 2381 1159 1747 
Q 1159 1113 1420 752 
Q 1681 391 2138 391 
Q 2594 391 2855 752 
Q 3116 1113 3116 1747 
z
" transform="scale(0.015625)"/>
      <path id="DejaVuSans-71" d="M 947 1747 
Q 947 1113 1208 752 
Q 1469 391 1925 391 
Q 2381 391 2643 752 
Q 2906 1113 2906 1747 
Q 2906 2381 2643 2742 
Q 2381 3103 1925 3103 
Q 1469 3103 1208 2742 
Q 947 2381 947 1747 
z
M 2906 525 
Q 2725 213 2448 61 
Q 2172 -91 1784 -91 
Q 1150 -91 751 415 
Q 353 922 353 1747 
Q 353 2572 751 3078 
Q 1150 3584 1784 3584 
Q 2172 3584 2448 3432 
Q 2725 3281 2906 2969 
L 2906 3500 
L 3481 3500 
L 3481 -1331 
L 2906 -1331 
L 2906 525 
z
" transform="scale(0.015625)"/>
     </defs>
     <use xlink:href="#DejaVuSans-42"/>
     <use xlink:href="#DejaVuSans-6c" transform="translate(68.603516 0)"/>
     <use xlink:href="#DejaVuSans-6f" transform="translate(96.386719 0)"/>
     <use xlink:href="#DejaVuSans-63" transform="translate(157.568359 0)"/>
     <use xlink:href="#DejaVuSans-6b" transform="translate(212.548828 0)"/>
     <use xlink:href="#DejaVuSans-20" transform="translate(270.458984 0)"/>
     <use xlink:href="#DejaVuSans-53" transform="translate(302.246094 0)"/>
     <use xlink:href="#DejaVuSans-69" transform="translate(365.722656 0)"/>
     <use xlink:href="#DejaVuSans-7a" transform="translate(393.505859 0)"/>
     <use xlink:href="#DejaVuSans-65" transform="translate(445.996094 0)"/>
     <use xlink:href="#DejaVuSans-20" transform="translate(507.519531 0)"/>
     <use xlink:href="#DejaVuSans-3d" transform="translate(539.306641 0)"/>
     <use xlink:href="#DejaVuSans-20" transform="translate(623.095703 0)"/>
     <use xlink:href="#DejaVuSans-31" transform="translate(654.882812 0)"/>
     <use xlink:href="#DejaVuSans-4d" transform="translate(718.505859 0)"/>
     <use xlink:href="#DejaVuSans-2c" transform="translate(804.785156 0)"/>
     <use xlink:href="#DejaVuSans-20" transform="translate(836.572266 0)"/>
     <use xlink:href="#DejaVuSans-52" transform="translate(868.359375 0)"/>
     <use xlink:href="#DejaVuSans-65" transform="translate(933.341797 0)"/>
     <use xlink:href="#DejaVuSans-61" transform="translate(994.865234 0)"/>
     <use xlink:href="#DejaVuSans-64" transform="translate(1056.144531 0)"/>
     <use xlink:href="#DejaVuSans-2d" transform="translate(1119.621094 0)"/>
     <use xlink:href="#DejaVuSans-57" transform="translate(1151.705078 0)"/>
     <use xlink:href="#DejaVuSans-72" transform="translate(1246.082031 0)"/>
     <use xlink:href="#DejaVuSans-69" transform="translate(1287.195312 0)"/>
     <use xlink:href="#DejaVuSans-74" transform="translate(1314.978516 0)"/>
     <use xlink:href="#DejaVuSans-65" transform="translate(1354.1875 0)"/>
     <use xlink:href="#DejaVuSans-20" transform="translate(1415.710938 0)"/>
     <use xlink:href="#DejaVuSans-54" transform="translate(1447.498047 0)"/>
     <use xlink:href="#DejaVuSans-79" transform="translate(1492.957031 0)"/>
     <use xlink:href="#DejaVuSans-70" transform="translate(1552.136719 0)"/>
     <use xlink:href="#DejaVuSans-65" transform="translate(1615.613281 0)"/>
     <use xlink:href="#DejaVuSans-20" transform="translate(1677.136719 0)"/>
     <use xlink:href="#DejaVuSans-3d" transform="translate(1708.923828 0)"/>
     <use xlink:href="#DejaVuSans-20" transform="translate(1792.712891 0)"/>
     <use xlink:href="#DejaVuSans-53" transform="translate(1824.5 0)"/>
     <use xlink:href="#DejaVuSans-65" transform="translate(1887.976562 0)"/>
     <use xlink:href="#DejaVuSans-71" transform="translate(1949.5 0)"/>
     <use xlink:href="#DejaVuSans-75" transform="translate(2012.976562 0)"/>
     <use xlink:href="#DejaVuSans-65" transform="translate(2076.355469 0)"/>
     <use xlink:href="#DejaVuSans-6e" transform="translate(2137.878906 0)"/>
     <use xlink:href="#DejaVuSans-74" transform="translate(2201.257812 0)"/>
     <use xlink:href="#DejaVuSans-69" transform="translate(2240.466797 0)"/>
     <use xlink:href="#DejaVuSans-61" transform="translate(2268.25 0)"/>
     <use xlink:href="#DejaVuSans-6c" transform="translate(2329.529297 0)"/>
     <use xlink:href="#DejaVuSans-20" transform="translate(2357.3125 0)"/>
     <use xlink:href="#DejaVuSans-57" transform="translate(2389.099609 0)"/>
     <use xlink:href="#DejaVuSans-72" transform="translate(2483.476562 0)"/>
     <use xlink:href="#DejaVuSans-69" transform="translate(2524.589844 0)"/>
     <use xlink:href="#DejaVuSans-74" transform="translate(2552.373047 0)"/>
     <use xlink:href="#DejaVuSans-65" transform="translate(2591.582031 0)"/>
     <use xlink:href="#DejaVuSans-2d" transform="translate(2653.105469 0)"/>
     <use xlink:href="#DejaVuSans-6f" transform="translate(2691.064453 0)"/>
     <use xlink:href="#DejaVuSans-6e" transform="translate(2752.246094 0)"/>
     <use xlink:href="#DejaVuSans-6c" transform="translate(2815.625 0)"/>
     <use xlink:href="#DejaVuSans-79" transform="translate(2843.408203 0)"/>
    </g>
   </g>
   <g id="text_22">
    <!-- Mean Latency vs Number of Jobs -->
    <g style="fill: #262626" transform="translate(111.685313 16.318125) scale(0.12 -0.12)">
     <defs>
      <path id="DejaVuSans-Bold-4d" d="M 588 4666 
L 2119 4666 
L 3181 2169 
L 4250 4666 
L 5778 4666 
L 5778 0 
L 4641 0 
L 4641 3413 
L 3566 897 
L 2803 897 
L 1728 3413 
L 1728 0 
L 588 0 
L 588 4666 
z
" transform="scale(0.015625)"/>
      <path id="DejaVuSans-Bold-65" d="M 4031 1759 
L 4031 1441 
L 1416 1441 
Q 1456 1047 1700 850 
Q 1944 653 2381 653 
Q 2734 653 3104 758 
Q 3475 863 3866 1075 
L 3866 213 
Q 3469 63 3072 -14 
Q 2675 -91 2278 -91 
Q 1328 -91 801 392 
Q 275 875 275 1747 
Q 275 2603 792 3093 
Q 1309 3584 2216 3584 
Q 3041 3584 3536 3087 
Q 4031 2591 4031 1759 
z
M 2881 2131 
Q 2881 2450 2695 2645 
Q 2509 2841 2209 2841 
Q 1884 2841 1681 2658 
Q 1478 2475 1428 2131 
L 2881 2131 
z
" transform="scale(0.015625)"/>
      <path id="DejaVuSans-Bold-61" d="M 2106 1575 
Q 1756 1575 1579 1456 
Q 1403 1338 1403 1106 
Q 1403 894 1545 773 
Q 1688 653 1941 653 
Q 2256 653 2472 879 
Q 2688 1106 2688 1447 
L 2688 1575 
L 2106 1575 
z
M 3816 1997 
L 3816 0 
L 2688 0 
L 2688 519 
Q 2463 200 2181 54 
Q 1900 -91 1497 -91 
Q 953 -91 614 226 
Q 275 544 275 1050 
Q 275 1666 698 1953 
Q 1122 2241 2028 2241 
L 2688 2241 
L 2688 2328 
Q 2688 2594 2478 2717 
Q 2269 2841 1825 2841 
Q 1466 2841 1156 2769 
Q 847 2697 581 2553 
L 581 3406 
Q 941 3494 1303 3539 
Q 1666 3584 2028 3584 
Q 2975 3584 3395 3211 
Q 3816 2838 3816 1997 
z
" transform="scale(0.015625)"/>
      <path id="DejaVuSans-Bold-6e" d="M 4056 2131 
L 4056 0 
L 2931 0 
L 2931 347 
L 2931 1631 
Q 2931 2084 2911 2256 
Q 2891 2428 2841 2509 
Q 2775 2619 2662 2680 
Q 2550 2741 2406 2741 
Q 2056 2741 1856 2470 
Q 1656 2200 1656 1722 
L 1656 0 
L 538 0 
L 538 3500 
L 1656 3500 
L 1656 2988 
Q 1909 3294 2193 3439 
Q 2478 3584 2822 3584 
Q 3428 3584 3742 3212 
Q 4056 2841 4056 2131 
z
" transform="scale(0.015625)"/>
      <path id="DejaVuSans-Bold-20" transform="scale(0.015625)"/>
      <path id="DejaVuSans-Bold-4c" d="M 588 4666 
L 1791 4666 
L 1791 909 
L 3903 909 
L 3903 0 
L 588 0 
L 588 4666 
z
" transform="scale(0.015625)"/>
      <path id="DejaVuSans-Bold-74" d="M 1759 4494 
L 1759 3500 
L 2913 3500 
L 2913 2700 
L 1759 2700 
L 1759 1216 
Q 1759 972 1856 886 
Q 1953 800 2241 800 
L 2816 800 
L 2816 0 
L 1856 0 
Q 1194 0 917 276 
Q 641 553 641 1216 
L 641 2700 
L 84 2700 
L 84 3500 
L 641 3500 
L 641 4494 
L 1759 4494 
z
" transform="scale(0.015625)"/>
      <path id="DejaVuSans-Bold-63" d="M 3366 3391 
L 3366 2478 
Q 3138 2634 2908 2709 
Q 2678 2784 2431 2784 
Q 1963 2784 1702 2511 
Q 1441 2238 1441 1747 
Q 1441 1256 1702 982 
Q 1963 709 2431 709 
Q 2694 709 2930 787 
Q 3166 866 3366 1019 
L 3366 103 
Q 3103 6 2833 -42 
Q 2563 -91 2291 -91 
Q 1344 -91 809 395 
Q 275 881 275 1747 
Q 275 2613 809 3098 
Q 1344 3584 2291 3584 
Q 2566 3584 2833 3536 
Q 3100 3488 3366 3391 
z
" transform="scale(0.015625)"/>
      <path id="DejaVuSans-Bold-79" d="M 78 3500 
L 1197 3500 
L 2138 1125 
L 2938 3500 
L 4056 3500 
L 2584 -331 
Q 2363 -916 2067 -1148 
Q 1772 -1381 1288 -1381 
L 641 -1381 
L 641 -647 
L 991 -647 
Q 1275 -647 1404 -556 
Q 1534 -466 1606 -231 
L 1638 -134 
L 78 3500 
z
" transform="scale(0.015625)"/>
      <path id="DejaVuSans-Bold-76" d="M 97 3500 
L 1216 3500 
L 2088 1081 
L 2956 3500 
L 4078 3500 
L 2700 0 
L 1472 0 
L 97 3500 
z
" transform="scale(0.015625)"/>
      <path id="DejaVuSans-Bold-73" d="M 3272 3391 
L 3272 2541 
Q 2913 2691 2578 2766 
Q 2244 2841 1947 2841 
Q 1628 2841 1473 2761 
Q 1319 2681 1319 2516 
Q 1319 2381 1436 2309 
Q 1553 2238 1856 2203 
L 2053 2175 
Q 2913 2066 3209 1816 
Q 3506 1566 3506 1031 
Q 3506 472 3093 190 
Q 2681 -91 1863 -91 
Q 1516 -91 1145 -36 
Q 775 19 384 128 
L 384 978 
Q 719 816 1070 734 
Q 1422 653 1784 653 
Q 2113 653 2278 743 
Q 2444 834 2444 1013 
Q 2444 1163 2330 1236 
Q 2216 1309 1875 1350 
L 1678 1375 
Q 931 1469 631 1722 
Q 331 1975 331 2491 
Q 331 3047 712 3315 
Q 1094 3584 1881 3584 
Q 2191 3584 2531 3537 
Q 2872 3491 3272 3391 
z
" transform="scale(0.015625)"/>
      <path id="DejaVuSans-Bold-4e" d="M 588 4666 
L 1931 4666 
L 3628 1466 
L 3628 4666 
L 4769 4666 
L 4769 0 
L 3425 0 
L 1728 3200 
L 1728 0 
L 588 0 
L 588 4666 
z
" transform="scale(0.015625)"/>
      <path id="DejaVuSans-Bold-75" d="M 500 1363 
L 500 3500 
L 1625 3500 
L 1625 3150 
Q 1625 2866 1622 2436 
Q 1619 2006 1619 1863 
Q 1619 1441 1641 1255 
Q 1663 1069 1716 984 
Q 1784 875 1895 815 
Q 2006 756 2150 756 
Q 2500 756 2700 1025 
Q 2900 1294 2900 1772 
L 2900 3500 
L 4019 3500 
L 4019 0 
L 2900 0 
L 2900 506 
Q 2647 200 2364 54 
Q 2081 -91 1741 -91 
Q 1134 -91 817 281 
Q 500 653 500 1363 
z
" transform="scale(0.015625)"/>
      <path id="DejaVuSans-Bold-6d" d="M 3781 2919 
Q 3994 3244 4286 3414 
Q 4578 3584 4928 3584 
Q 5531 3584 5847 3212 
Q 6163 2841 6163 2131 
L 6163 0 
L 5038 0 
L 5038 1825 
Q 5041 1866 5042 1909 
Q 5044 1953 5044 2034 
Q 5044 2406 4934 2573 
Q 4825 2741 4581 2741 
Q 4263 2741 4089 2478 
Q 3916 2216 3909 1719 
L 3909 0 
L 2784 0 
L 2784 1825 
Q 2784 2406 2684 2573 
Q 2584 2741 2328 2741 
Q 2006 2741 1831 2477 
Q 1656 2213 1656 1722 
L 1656 0 
L 531 0 
L 531 3500 
L 1656 3500 
L 1656 2988 
Q 1863 3284 2130 3434 
Q 2397 3584 2719 3584 
Q 3081 3584 3359 3409 
Q 3638 3234 3781 2919 
z
" transform="scale(0.015625)"/>
      <path id="DejaVuSans-Bold-62" d="M 2400 722 
Q 2759 722 2948 984 
Q 3138 1247 3138 1747 
Q 3138 2247 2948 2509 
Q 2759 2772 2400 2772 
Q 2041 2772 1848 2508 
Q 1656 2244 1656 1747 
Q 1656 1250 1848 986 
Q 2041 722 2400 722 
z
M 1656 2988 
Q 1888 3294 2169 3439 
Q 2450 3584 2816 3584 
Q 3463 3584 3878 3070 
Q 4294 2556 4294 1747 
Q 4294 938 3878 423 
Q 3463 -91 2816 -91 
Q 2450 -91 2169 54 
Q 1888 200 1656 506 
L 1656 0 
L 538 0 
L 538 4863 
L 1656 4863 
L 1656 2988 
z
" transform="scale(0.015625)"/>
      <path id="DejaVuSans-Bold-72" d="M 3138 2547 
Q 2991 2616 2845 2648 
Q 2700 2681 2553 2681 
Q 2122 2681 1889 2404 
Q 1656 2128 1656 1613 
L 1656 0 
L 538 0 
L 538 3500 
L 1656 3500 
L 1656 2925 
Q 1872 3269 2151 3426 
Q 2431 3584 2822 3584 
Q 2878 3584 2943 3579 
Q 3009 3575 3134 3559 
L 3138 2547 
z
" transform="scale(0.015625)"/>
      <path id="DejaVuSans-Bold-6f" d="M 2203 2784 
Q 1831 2784 1636 2517 
Q 1441 2250 1441 1747 
Q 1441 1244 1636 976 
Q 1831 709 2203 709 
Q 2569 709 2762 976 
Q 2956 1244 2956 1747 
Q 2956 2250 2762 2517 
Q 2569 2784 2203 2784 
z
M 2203 3584 
Q 3106 3584 3614 3096 
Q 4122 2609 4122 1747 
Q 4122 884 3614 396 
Q 3106 -91 2203 -91 
Q 1297 -91 786 396 
Q 275 884 275 1747 
Q 275 2609 786 3096 
Q 1297 3584 2203 3584 
z
" transform="scale(0.015625)"/>
      <path id="DejaVuSans-Bold-66" d="M 2841 4863 
L 2841 4128 
L 2222 4128 
Q 1984 4128 1890 4042 
Q 1797 3956 1797 3744 
L 1797 3500 
L 2753 3500 
L 2753 2700 
L 1797 2700 
L 1797 0 
L 678 0 
L 678 2700 
L 122 2700 
L 122 3500 
L 678 3500 
L 678 3744 
Q 678 4316 997 4589 
Q 1316 4863 1984 4863 
L 2841 4863 
z
" transform="scale(0.015625)"/>
      <path id="DejaVuSans-Bold-4a" d="M 588 4666 
L 1791 4666 
L 1791 453 
Q 1791 -419 1317 -850 
Q 844 -1281 -116 -1281 
L -359 -1281 
L -359 -372 
L -172 -372 
Q 203 -372 395 -162 
Q 588 47 588 453 
L 588 4666 
z
" transform="scale(0.015625)"/>
     </defs>
     <use xlink:href="#DejaVuSans-Bold-4d"/>
     <use xlink:href="#DejaVuSans-Bold-65" transform="translate(99.511719 0)"/>
     <use xlink:href="#DejaVuSans-Bold-61" transform="translate(167.333984 0)"/>
     <use xlink:href="#DejaVuSans-Bold-6e" transform="translate(234.814453 0)"/>
     <use xlink:href="#DejaVuSans-Bold-20" transform="translate(306.005859 0)"/>
     <use xlink:href="#DejaVuSans-Bold-4c" transform="translate(340.820312 0)"/>
     <use xlink:href="#DejaVuSans-Bold-61" transform="translate(404.541016 0)"/>
     <use xlink:href="#DejaVuSans-Bold-74" transform="translate(472.021484 0)"/>
     <use xlink:href="#DejaVuSans-Bold-65" transform="translate(519.824219 0)"/>
     <use xlink:href="#DejaVuSans-Bold-6e" transform="translate(587.646484 0)"/>
     <use xlink:href="#DejaVuSans-Bold-63" transform="translate(658.837891 0)"/>
     <use xlink:href="#DejaVuSans-Bold-79" transform="translate(718.115234 0)"/>
     <use xlink:href="#DejaVuSans-Bold-20" transform="translate(783.300781 0)"/>
     <use xlink:href="#DejaVuSans-Bold-76" transform="translate(818.115234 0)"/>
     <use xlink:href="#DejaVuSans-Bold-73" transform="translate(883.300781 0)"/>
     <use xlink:href="#DejaVuSans-Bold-20" transform="translate(942.822266 0)"/>
     <use xlink:href="#DejaVuSans-Bold-4e" transform="translate(977.636719 0)"/>
     <use xlink:href="#DejaVuSans-Bold-75" transform="translate(1061.328125 0)"/>
     <use xlink:href="#DejaVuSans-Bold-6d" transform="translate(1132.519531 0)"/>
     <use xlink:href="#DejaVuSans-Bold-62" transform="translate(1236.71875 0)"/>
     <use xlink:href="#DejaVuSans-Bold-65" transform="translate(1308.300781 0)"/>
     <use xlink:href="#DejaVuSans-Bold-72" transform="translate(1376.123047 0)"/>
     <use xlink:href="#DejaVuSans-Bold-20" transform="translate(1425.439453 0)"/>
     <use xlink:href="#DejaVuSans-Bold-6f" transform="translate(1460.253906 0)"/>
     <use xlink:href="#DejaVuSans-Bold-66" transform="translate(1528.955078 0)"/>
     <use xlink:href="#DejaVuSans-Bold-20" transform="translate(1572.460938 0)"/>
     <use xlink:href="#DejaVuSans-Bold-4a" transform="translate(1607.275391 0)"/>
     <use xlink:href="#DejaVuSans-Bold-6f" transform="translate(1644.482422 0)"/>
     <use xlink:href="#DejaVuSans-Bold-62" transform="translate(1713.183594 0)"/>
     <use xlink:href="#DejaVuSans-Bold-73" transform="translate(1784.765625 0)"/>
    </g>
   </g>
   <g id="legend_1">
    <g id="text_23">
     <!-- IO Depth -->
     <g style="fill: #262626" transform="translate(435.407813 120.065663) scale(0.1 -0.1)">
      <defs>
       <path id="DejaVuSans-49" d="M 628 4666 
L 1259 4666 
L 1259 0 
L 628 0 
L 628 4666 
z
" transform="scale(0.015625)"/>
       <path id="DejaVuSans-4f" d="M 2522 4238 
Q 1834 4238 1429 3725 
Q 1025 3213 1025 2328 
Q 1025 1447 1429 934 
Q 1834 422 2522 422 
Q 3209 422 3611 934 
Q 4013 1447 4013 2328 
Q 4013 3213 3611 3725 
Q 3209 4238 2522 4238 
z
M 2522 4750 
Q 3503 4750 4090 4092 
Q 4678 3434 4678 2328 
Q 4678 1225 4090 567 
Q 3503 -91 2522 -91 
Q 1538 -91 948 565 
Q 359 1222 359 2328 
Q 359 3434 948 4092 
Q 1538 4750 2522 4750 
z
" transform="scale(0.015625)"/>
       <path id="DejaVuSans-44" d="M 1259 4147 
L 1259 519 
L 2022 519 
Q 2988 519 3436 956 
Q 3884 1394 3884 2338 
Q 3884 3275 3436 3711 
Q 2988 4147 2022 4147 
L 1259 4147 
z
M 628 4666 
L 1925 4666 
Q 3281 4666 3915 4102 
Q 4550 3538 4550 2338 
Q 4550 1131 3912 565 
Q 3275 0 1925 0 
L 628 0 
L 628 4666 
z
" transform="scale(0.015625)"/>
       <path id="DejaVuSans-68" d="M 3513 2113 
L 3513 0 
L 2938 0 
L 2938 2094 
Q 2938 2591 2744 2837 
Q 2550 3084 2163 3084 
Q 1697 3084 1428 2787 
Q 1159 2491 1159 1978 
L 1159 0 
L 581 0 
L 581 4863 
L 1159 4863 
L 1159 2956 
Q 1366 3272 1645 3428 
Q 1925 3584 2291 3584 
Q 2894 3584 3203 3211 
Q 3513 2838 3513 2113 
z
" transform="scale(0.015625)"/>
      </defs>
      <use xlink:href="#DejaVuSans-49"/>
      <use xlink:href="#DejaVuSans-4f" transform="translate(29.492188 0)"/>
      <use xlink:href="#DejaVuSans-20" transform="translate(108.203125 0)"/>
      <use xlink:href="#DejaVuSans-44" transform="translate(139.990234 0)"/>
      <use xlink:href="#DejaVuSans-65" transform="translate(216.992188 0)"/>
      <use xlink:href="#DejaVuSans-70" transform="translate(278.515625 0)"/>
      <use xlink:href="#DejaVuSans-74" transform="translate(341.992188 0)"/>
      <use xlink:href="#DejaVuSans-68" transform="translate(381.201172 0)"/>
     </g>
    </g>
    <g id="line2d_25">
     <path d="M 434.09375 131.243787 
L 444.09375 131.243787 
L 454.09375 131.243787 
" style="fill: none; stroke: #4c02a1; stroke-width: 1.5; stroke-linecap: round"/>
    </g>
    <g id="text_24">
     <!-- 1 -->
     <g style="fill: #262626" transform="translate(462.09375 134.743787) scale(0.1 -0.1)">
      <use xlink:href="#DejaVuSans-31"/>
     </g>
    </g>
    <g id="line2d_26">
     <path d="M 434.09375 145.921913 
L 444.09375 145.921913 
L 454.09375 145.921913 
" style="fill: none; stroke: #7e03a8; stroke-width: 1.5; stroke-linecap: round"/>
    </g>
    <g id="text_25">
     <!-- 4 -->
     <g style="fill: #262626" transform="translate(462.09375 149.421913) scale(0.1 -0.1)">
      <use xlink:href="#DejaVuSans-34"/>
     </g>
    </g>
    <g id="line2d_27">
     <path d="M 434.09375 160.600037 
L 444.09375 160.600037 
L 454.09375 160.600037 
" style="fill: none; stroke: #aa2395; stroke-width: 1.5; stroke-linecap: round"/>
    </g>
    <g id="text_26">
     <!-- 8 -->
     <g style="fill: #262626" transform="translate(462.09375 164.100037) scale(0.1 -0.1)">
      <use xlink:href="#DejaVuSans-38"/>
     </g>
    </g>
    <g id="line2d_28">
     <path d="M 434.09375 175.278163 
L 444.09375 175.278163 
L 454.09375 175.278163 
" style="fill: none; stroke: #cc4778; stroke-width: 1.5; stroke-linecap: round"/>
    </g>
    <g id="text_27">
     <!-- 16 -->
     <g style="fill: #262626" transform="translate(462.09375 178.778163) scale(0.1 -0.1)">
      <use xlink:href="#DejaVuSans-31"/>
      <use xlink:href="#DejaVuSans-36" transform="translate(63.623047 0)"/>
     </g>
    </g>
    <g id="line2d_29">
     <path d="M 434.09375 189.956288 
L 444.09375 189.956288 
L 454.09375 189.956288 
" style="fill: none; stroke: #e66c5c; stroke-width: 1.5; stroke-linecap: round"/>
    </g>
    <g id="text_28">
     <!-- 32 -->
     <g style="fill: #262626" transform="translate(462.09375 193.456288) scale(0.1 -0.1)">
      <use xlink:href="#DejaVuSans-33"/>
      <use xlink:href="#DejaVuSans-32" transform="translate(63.623047 0)"/>
     </g>
    </g>
    <g id="line2d_30">
     <path d="M 434.09375 204.634412 
L 444.09375 204.634412 
L 454.09375 204.634412 
" style="fill: none; stroke: #f89540; stroke-width: 1.5; stroke-linecap: round"/>
    </g>
    <g id="text_29">
     <!-- 64 -->
     <g style="fill: #262626" transform="translate(462.09375 208.134412) scale(0.1 -0.1)">
      <use xlink:href="#DejaVuSans-36"/>
      <use xlink:href="#DejaVuSans-34" transform="translate(63.623047 0)"/>
     </g>
    </g>
    <g id="line2d_31">
     <path d="M 434.09375 219.312537 
L 444.09375 219.312537 
L 454.09375 219.312537 
" style="fill: none; stroke: #fdc527; stroke-width: 1.5; stroke-linecap: round"/>
    </g>
    <g id="text_30">
     <!-- 128 -->
     <g style="fill: #262626" transform="translate(462.09375 222.812537) scale(0.1 -0.1)">
      <use xlink:href="#DejaVuSans-31"/>
      <use xlink:href="#DejaVuSans-32" transform="translate(63.623047 0)"/>
      <use xlink:href="#DejaVuSans-38" transform="translate(127.246094 0)"/>
     </g>
    </g>
   </g>
  </g>
 </g>
 <defs>
  <clipPath id="p20651e0cc6">
   <rect x="43.78125" y="35.623725" width="357.12" height="266.112"/>
  </clipPath>
 </defs>
</svg>
