<?xml version="1.0" encoding="utf-8" standalone="no"?>
<!DOCTYPE svg PUBLIC "-//W3C//DTD SVG 1.1//EN"
  "http://www.w3.org/Graphics/SVG/1.1/DTD/svg11.dtd">
<svg xmlns:xlink="http://www.w3.org/1999/xlink" width="492.38125pt" height="339.291975pt" viewBox="0 0 492.38125 339.291975" xmlns="http://www.w3.org/2000/svg" version="1.1">
 <metadata>
  <rdf:RDF xmlns:dc="http://purl.org/dc/elements/1.1/" xmlns:cc="http://creativecommons.org/ns#" xmlns:rdf="http://www.w3.org/1999/02/22-rdf-syntax-ns#">
   <cc:Work>
    <dc:type rdf:resource="http://purl.org/dc/dcmitype/StillImage"/>
    <dc:date>2025-09-11T11:47:21.770404</dc:date>
    <dc:format>image/svg+xml</dc:format>
    <dc:creator>
     <cc:Agent>
      <dc:title>Matplotlib v3.10.6, https://matplotlib.org/</dc:title>
     </cc:Agent>
    </dc:creator>
   </cc:Work>
  </rdf:RDF>
 </metadata>
 <defs>
  <style type="text/css">*{stroke-linejoin: round; stroke-linecap: butt}</style>
 </defs>
 <g id="figure_1">
  <g id="patch_1">
   <path d="M 0 339.291975 
L 492.38125 339.291975 
L 492.38125 0 
L 0 0 
z
" style="fill: #ffffff"/>
  </g>
  <g id="axes_1">
   <g id="patch_2">
    <path d="M 43.78125 301.735725 
L 400.90125 301.735725 
L 400.90125 35.623725 
L 43.78125 35.623725 
z
" style="fill: #ffffff"/>
   </g>
   <g id="matplotlib.axis_1">
    <g id="xtick_1">
     <g id="line2d_1">
      <path d="M 60.013977 301.735725 
L 60.013977 35.623725 
" clip-path="url(#p23279d2f82)" style="fill: none; stroke: #cccccc; stroke-width: 0.8; stroke-linecap: round"/>
     </g>
     <g id="text_1">
      <!-- 16 -->
      <g style="fill: #262626" transform="translate(53.651477 316.334162) scale(0.1 -0.1)">
       <defs>
        <path id="DejaVuSans-31" d="M 794 531 
L 1825 531 
L 1825 4091 
L 703 3866 
L 703 4441 
L 1819 4666 
L 2450 4666 
L 2450 531 
L 3481 531 
L 3481 0 
L 794 0 
L 794 531 
z
" transform="scale(0.015625)"/>
        <path id="DejaVuSans-36" d="M 2113 2584 
Q 1688 2584 1439 2293 
Q 1191 2003 1191 1497 
Q 1191 994 1439 701 
Q 1688 409 2113 409 
Q 2538 409 2786 701 
Q 3034 994 3034 1497 
Q 3034 2003 2786 2293 
Q 2538 2584 2113 2584 
z
M 3366 4563 
L 3366 3988 
Q 3128 4100 2886 4159 
Q 2644 4219 2406 4219 
Q 1781 4219 1451 3797 
Q 1122 3375 1075 2522 
Q 1259 2794 1537 2939 
Q 1816 3084 2150 3084 
Q 2853 3084 3261 2657 
Q 3669 2231 3669 1497 
Q 3669 778 3244 343 
Q 2819 -91 2113 -91 
Q 1303 -91 875 529 
Q 447 1150 447 2328 
Q 447 3434 972 4092 
Q 1497 4750 2381 4750 
Q 2619 4750 2861 4703 
Q 3103 4656 3366 4563 
z
" transform="scale(0.015625)"/>
       </defs>
       <use xlink:href="#DejaVuSans-31"/>
       <use xlink:href="#DejaVuSans-36" transform="translate(63.623047 0)"/>
      </g>
     </g>
    </g>
    <g id="xtick_2">
     <g id="line2d_2">
      <path d="M 106.393198 301.735725 
L 106.393198 35.623725 
" clip-path="url(#p23279d2f82)" style="fill: none; stroke: #cccccc; stroke-width: 0.8; stroke-linecap: round"/>
     </g>
     <g id="text_2">
      <!-- 32 -->
      <g style="fill: #262626" transform="translate(100.030698 316.334162) scale(0.1 -0.1)">
       <defs>
        <path id="DejaVuSans-33" d="M 2597 2516 
Q 3050 2419 3304 2112 
Q 3559 1806 3559 1356 
Q 3559 666 3084 287 
Q 2609 -91 1734 -91 
Q 1441 -91 1130 -33 
Q 819 25 488 141 
L 488 750 
Q 750 597 1062 519 
Q 1375 441 1716 441 
Q 2309 441 2620 675 
Q 2931 909 2931 1356 
Q 2931 1769 2642 2001 
Q 2353 2234 1838 2234 
L 1294 2234 
L 1294 2753 
L 1863 2753 
Q 2328 2753 2575 2939 
Q 2822 3125 2822 3475 
Q 2822 3834 2567 4026 
Q 2313 4219 1838 4219 
Q 1578 4219 1281 4162 
Q 984 4106 628 3988 
L 628 4550 
Q 988 4650 1302 4700 
Q 1616 4750 1894 4750 
Q 2613 4750 3031 4423 
Q 3450 4097 3450 3541 
Q 3450 3153 3228 2886 
Q 3006 2619 2597 2516 
z
" transform="scale(0.015625)"/>
        <path id="DejaVuSans-32" d="M 1228 531 
L 3431 531 
L 3431 0 
L 469 0 
L 469 531 
Q 828 903 1448 1529 
Q 2069 2156 2228 2338 
Q 2531 2678 2651 2914 
Q 2772 3150 2772 3378 
Q 2772 3750 2511 3984 
Q 2250 4219 1831 4219 
Q 1534 4219 1204 4116 
Q 875 4013 500 3803 
L 500 4441 
Q 881 4594 1212 4672 
Q 1544 4750 1819 4750 
Q 2544 4750 2975 4387 
Q 3406 4025 3406 3419 
Q 3406 3131 3298 2873 
Q 3191 2616 2906 2266 
Q 2828 2175 2409 1742 
Q 1991 1309 1228 531 
z
" transform="scale(0.015625)"/>
       </defs>
       <use xlink:href="#DejaVuSans-33"/>
       <use xlink:href="#DejaVuSans-32" transform="translate(63.623047 0)"/>
      </g>
     </g>
    </g>
    <g id="xtick_3">
     <g id="line2d_3">
      <path d="M 199.15164 301.735725 
L 199.15164 35.623725 
" clip-path="url(#p23279d2f82)" style="fill: none; stroke: #cccccc; stroke-width: 0.8; stroke-linecap: round"/>
     </g>
     <g id="text_3">
      <!-- 64 -->
      <g style="fill: #262626" transform="translate(192.78914 316.334162) scale(0.1 -0.1)">
       <defs>
        <path id="DejaVuSans-34" d="M 2419 4116 
L 825 1625 
L 2419 1625 
L 2419 4116 
z
M 2253 4666 
L 3047 4666 
L 3047 1625 
L 3713 1625 
L 3713 1100 
L 3047 1100 
L 3047 0 
L 2419 0 
L 2419 1100 
L 313 1100 
L 313 1709 
L 2253 4666 
z
" transform="scale(0.015625)"/>
       </defs>
       <use xlink:href="#DejaVuSans-36"/>
       <use xlink:href="#DejaVuSans-34" transform="translate(63.623047 0)"/>
      </g>
     </g>
    </g>
    <g id="xtick_4">
     <g id="line2d_4">
      <path d="M 384.668523 301.735725 
L 384.668523 35.623725 
" clip-path="url(#p23279d2f82)" style="fill: none; stroke: #cccccc; stroke-width: 0.8; stroke-linecap: round"/>
     </g>
     <g id="text_4">
      <!-- 128 -->
      <g style="fill: #262626" transform="translate(375.124773 316.334162) scale(0.1 -0.1)">
       <defs>
        <path id="DejaVuSans-38" d="M 2034 2216 
Q 1584 2216 1326 1975 
Q 1069 1734 1069 1313 
Q 1069 891 1326 650 
Q 1584 409 2034 409 
Q 2484 409 2743 651 
Q 3003 894 3003 1313 
Q 3003 1734 2745 1975 
Q 2488 2216 2034 2216 
z
M 1403 2484 
Q 997 2584 770 2862 
Q 544 3141 544 3541 
Q 544 4100 942 4425 
Q 1341 4750 2034 4750 
Q 2731 4750 3128 4425 
Q 3525 4100 3525 3541 
Q 3525 3141 3298 2862 
Q 3072 2584 2669 2484 
Q 3125 2378 3379 2068 
Q 3634 1759 3634 1313 
Q 3634 634 3220 271 
Q 2806 -91 2034 -91 
Q 1263 -91 848 271 
Q 434 634 434 1313 
Q 434 1759 690 2068 
Q 947 2378 1403 2484 
z
M 1172 3481 
Q 1172 3119 1398 2916 
Q 1625 2713 2034 2713 
Q 2441 2713 2670 2916 
Q 2900 3119 2900 3481 
Q 2900 3844 2670 4047 
Q 2441 4250 2034 4250 
Q 1625 4250 1398 4047 
Q 1172 3844 1172 3481 
z
" transform="scale(0.015625)"/>
       </defs>
       <use xlink:href="#DejaVuSans-31"/>
       <use xlink:href="#DejaVuSans-32" transform="translate(63.623047 0)"/>
       <use xlink:href="#DejaVuSans-38" transform="translate(127.246094 0)"/>
      </g>
     </g>
    </g>
    <g id="text_5">
     <!-- Number of Jobs -->
     <g style="fill: #262626" transform="translate(183.944375 330.012287) scale(0.1 -0.1)">
      <defs>
       <path id="DejaVuSans-4e" d="M 628 4666 
L 1478 4666 
L 3547 763 
L 3547 4666 
L 4159 4666 
L 4159 0 
L 3309 0 
L 1241 3903 
L 1241 0 
L 628 0 
L 628 4666 
z
" transform="scale(0.015625)"/>
       <path id="DejaVuSans-75" d="M 544 1381 
L 544 3500 
L 1119 3500 
L 1119 1403 
Q 1119 906 1312 657 
Q 1506 409 1894 409 
Q 2359 409 2629 706 
Q 2900 1003 2900 1516 
L 2900 3500 
L 3475 3500 
L 3475 0 
L 2900 0 
L 2900 538 
Q 2691 219 2414 64 
Q 2138 -91 1772 -91 
Q 1169 -91 856 284 
Q 544 659 544 1381 
z
M 1991 3584 
L 1991 3584 
z
" transform="scale(0.015625)"/>
       <path id="DejaVuSans-6d" d="M 3328 2828 
Q 3544 3216 3844 3400 
Q 4144 3584 4550 3584 
Q 5097 3584 5394 3201 
Q 5691 2819 5691 2113 
L 5691 0 
L 5113 0 
L 5113 2094 
Q 5113 2597 4934 2840 
Q 4756 3084 4391 3084 
Q 3944 3084 3684 2787 
Q 3425 2491 3425 1978 
L 3425 0 
L 2847 0 
L 2847 2094 
Q 2847 2600 2669 2842 
Q 2491 3084 2119 3084 
Q 1678 3084 1418 2786 
Q 1159 2488 1159 1978 
L 1159 0 
L 581 0 
L 581 3500 
L 1159 3500 
L 1159 2956 
Q 1356 3278 1631 3431 
Q 1906 3584 2284 3584 
Q 2666 3584 2933 3390 
Q 3200 3197 3328 2828 
z
" transform="scale(0.015625)"/>
       <path id="DejaVuSans-62" d="M 3116 1747 
Q 3116 2381 2855 2742 
Q 2594 3103 2138 3103 
Q 1681 3103 1420 2742 
Q 1159 2381 1159 1747 
Q 1159 1113 1420 752 
Q 1681 391 2138 391 
Q 2594 391 2855 752 
Q 3116 1113 3116 1747 
z
M 1159 2969 
Q 1341 3281 1617 3432 
Q 1894 3584 2278 3584 
Q 2916 3584 3314 3078 
Q 3713 2572 3713 1747 
Q 3713 922 3314 415 
Q 2916 -91 2278 -91 
Q 1894 -91 1617 61 
Q 1341 213 1159 525 
L 1159 0 
L 581 0 
L 581 4863 
L 1159 4863 
L 1159 2969 
z
" transform="scale(0.015625)"/>
       <path id="DejaVuSans-65" d="M 3597 1894 
L 3597 1613 
L 953 1613 
Q 991 1019 1311 708 
Q 1631 397 2203 397 
Q 2534 397 2845 478 
Q 3156 559 3463 722 
L 3463 178 
Q 3153 47 2828 -22 
Q 2503 -91 2169 -91 
Q 1331 -91 842 396 
Q 353 884 353 1716 
Q 353 2575 817 3079 
Q 1281 3584 2069 3584 
Q 2775 3584 3186 3129 
Q 3597 2675 3597 1894 
z
M 3022 2063 
Q 3016 2534 2758 2815 
Q 2500 3097 2075 3097 
Q 1594 3097 1305 2825 
Q 1016 2553 972 2059 
L 3022 2063 
z
" transform="scale(0.015625)"/>
       <path id="DejaVuSans-72" d="M 2631 2963 
Q 2534 3019 2420 3045 
Q 2306 3072 2169 3072 
Q 1681 3072 1420 2755 
Q 1159 2438 1159 1844 
L 1159 0 
L 581 0 
L 581 3500 
L 1159 3500 
L 1159 2956 
Q 1341 3275 1631 3429 
Q 1922 3584 2338 3584 
Q 2397 3584 2469 3576 
Q 2541 3569 2628 3553 
L 2631 2963 
z
" transform="scale(0.015625)"/>
       <path id="DejaVuSans-20" transform="scale(0.015625)"/>
       <path id="DejaVuSans-6f" d="M 1959 3097 
Q 1497 3097 1228 2736 
Q 959 2375 959 1747 
Q 959 1119 1226 758 
Q 1494 397 1959 397 
Q 2419 397 2687 759 
Q 2956 1122 2956 1747 
Q 2956 2369 2687 2733 
Q 2419 3097 1959 3097 
z
M 1959 3584 
Q 2709 3584 3137 3096 
Q 3566 2609 3566 1747 
Q 3566 888 3137 398 
Q 2709 -91 1959 -91 
Q 1206 -91 779 398 
Q 353 888 353 1747 
Q 353 2609 779 3096 
Q 1206 3584 1959 3584 
z
" transform="scale(0.015625)"/>
       <path id="DejaVuSans-66" d="M 2375 4863 
L 2375 4384 
L 1825 4384 
Q 1516 4384 1395 4259 
Q 1275 4134 1275 3809 
L 1275 3500 
L 2222 3500 
L 2222 3053 
L 1275 3053 
L 1275 0 
L 697 0 
L 697 3053 
L 147 3053 
L 147 3500 
L 697 3500 
L 697 3744 
Q 697 4328 969 4595 
Q 1241 4863 1831 4863 
L 2375 4863 
z
" transform="scale(0.015625)"/>
       <path id="DejaVuSans-4a" d="M 628 4666 
L 1259 4666 
L 1259 325 
Q 1259 -519 939 -900 
Q 619 -1281 -91 -1281 
L -331 -1281 
L -331 -750 
L -134 -750 
Q 284 -750 456 -515 
Q 628 -281 628 325 
L 628 4666 
z
" transform="scale(0.015625)"/>
       <path id="DejaVuSans-73" d="M 2834 3397 
L 2834 2853 
Q 2591 2978 2328 3040 
Q 2066 3103 1784 3103 
Q 1356 3103 1142 2972 
Q 928 2841 928 2578 
Q 928 2378 1081 2264 
Q 1234 2150 1697 2047 
L 1894 2003 
Q 2506 1872 2764 1633 
Q 3022 1394 3022 966 
Q 3022 478 2636 193 
Q 2250 -91 1575 -91 
Q 1294 -91 989 -36 
Q 684 19 347 128 
L 347 722 
Q 666 556 975 473 
Q 1284 391 1588 391 
Q 1994 391 2212 530 
Q 2431 669 2431 922 
Q 2431 1156 2273 1281 
Q 2116 1406 1581 1522 
L 1381 1569 
Q 847 1681 609 1914 
Q 372 2147 372 2553 
Q 372 3047 722 3315 
Q 1072 3584 1716 3584 
Q 2034 3584 2315 3537 
Q 2597 3491 2834 3397 
z
" transform="scale(0.015625)"/>
      </defs>
      <use xlink:href="#DejaVuSans-4e"/>
      <use xlink:href="#DejaVuSans-75" transform="translate(74.804688 0)"/>
      <use xlink:href="#DejaVuSans-6d" transform="translate(138.183594 0)"/>
      <use xlink:href="#DejaVuSans-62" transform="translate(235.595703 0)"/>
      <use xlink:href="#DejaVuSans-65" transform="translate(299.072266 0)"/>
      <use xlink:href="#DejaVuSans-72" transform="translate(360.595703 0)"/>
      <use xlink:href="#DejaVuSans-20" transform="translate(401.708984 0)"/>
      <use xlink:href="#DejaVuSans-6f" transform="translate(433.496094 0)"/>
      <use xlink:href="#DejaVuSans-66" transform="translate(494.677734 0)"/>
      <use xlink:href="#DejaVuSans-20" transform="translate(529.882812 0)"/>
      <use xlink:href="#DejaVuSans-4a" transform="translate(561.669922 0)"/>
      <use xlink:href="#DejaVuSans-6f" transform="translate(591.162109 0)"/>
      <use xlink:href="#DejaVuSans-62" transform="translate(652.34375 0)"/>
      <use xlink:href="#DejaVuSans-73" transform="translate(715.820312 0)"/>
     </g>
    </g>
   </g>
   <g id="matplotlib.axis_2">
    <g id="ytick_1">
     <g id="line2d_5">
      <path d="M 43.78125 257.802741 
L 400.90125 257.802741 
" clip-path="url(#p23279d2f82)" style="fill: none; stroke: #cccccc; stroke-width: 0.8; stroke-linecap: round"/>
     </g>
     <g id="text_6">
      <!-- 0.5 -->
      <g style="fill: #262626" transform="translate(20.878125 261.60196) scale(0.1 -0.1)">
       <defs>
        <path id="DejaVuSans-30" d="M 2034 4250 
Q 1547 4250 1301 3770 
Q 1056 3291 1056 2328 
Q 1056 1369 1301 889 
Q 1547 409 2034 409 
Q 2525 409 2770 889 
Q 3016 1369 3016 2328 
Q 3016 3291 2770 3770 
Q 2525 4250 2034 4250 
z
M 2034 4750 
Q 2819 4750 3233 4129 
Q 3647 3509 3647 2328 
Q 3647 1150 3233 529 
Q 2819 -91 2034 -91 
Q 1250 -91 836 529 
Q 422 1150 422 2328 
Q 422 3509 836 4129 
Q 1250 4750 2034 4750 
z
" transform="scale(0.015625)"/>
        <path id="DejaVuSans-2e" d="M 684 794 
L 1344 794 
L 1344 0 
L 684 0 
L 684 794 
z
" transform="scale(0.015625)"/>
        <path id="DejaVuSans-35" d="M 691 4666 
L 3169 4666 
L 3169 4134 
L 1269 4134 
L 1269 2991 
Q 1406 3038 1543 3061 
Q 1681 3084 1819 3084 
Q 2600 3084 3056 2656 
Q 3513 2228 3513 1497 
Q 3513 744 3044 326 
Q 2575 -91 1722 -91 
Q 1428 -91 1123 -41 
Q 819 9 494 109 
L 494 744 
Q 775 591 1075 516 
Q 1375 441 1709 441 
Q 2250 441 2565 725 
Q 2881 1009 2881 1497 
Q 2881 1984 2565 2268 
Q 2250 2553 1709 2553 
Q 1456 2553 1204 2497 
Q 953 2441 691 2322 
L 691 4666 
z
" transform="scale(0.015625)"/>
       </defs>
       <use xlink:href="#DejaVuSans-30"/>
       <use xlink:href="#DejaVuSans-2e" transform="translate(63.623047 0)"/>
       <use xlink:href="#DejaVuSans-35" transform="translate(95.410156 0)"/>
      </g>
     </g>
    </g>
    <g id="ytick_2">
     <g id="line2d_6">
      <path d="M 43.78125 211.276858 
L 400.90125 211.276858 
" clip-path="url(#p23279d2f82)" style="fill: none; stroke: #cccccc; stroke-width: 0.8; stroke-linecap: round"/>
     </g>
     <g id="text_7">
      <!-- 1.0 -->
      <g style="fill: #262626" transform="translate(20.878125 215.076077) scale(0.1 -0.1)">
       <use xlink:href="#DejaVuSans-31"/>
       <use xlink:href="#DejaVuSans-2e" transform="translate(63.623047 0)"/>
       <use xlink:href="#DejaVuSans-30" transform="translate(95.410156 0)"/>
      </g>
     </g>
    </g>
    <g id="ytick_3">
     <g id="line2d_7">
      <path d="M 43.78125 164.750975 
L 400.90125 164.750975 
" clip-path="url(#p23279d2f82)" style="fill: none; stroke: #cccccc; stroke-width: 0.8; stroke-linecap: round"/>
     </g>
     <g id="text_8">
      <!-- 1.5 -->
      <g style="fill: #262626" transform="translate(20.878125 168.550194) scale(0.1 -0.1)">
       <use xlink:href="#DejaVuSans-31"/>
       <use xlink:href="#DejaVuSans-2e" transform="translate(63.623047 0)"/>
       <use xlink:href="#DejaVuSans-35" transform="translate(95.410156 0)"/>
      </g>
     </g>
    </g>
    <g id="ytick_4">
     <g id="line2d_8">
      <path d="M 43.78125 118.225093 
L 400.90125 118.225093 
" clip-path="url(#p23279d2f82)" style="fill: none; stroke: #cccccc; stroke-width: 0.8; stroke-linecap: round"/>
     </g>
     <g id="text_9">
      <!-- 2.0 -->
      <g style="fill: #262626" transform="translate(20.878125 122.024311) scale(0.1 -0.1)">
       <use xlink:href="#DejaVuSans-32"/>
       <use xlink:href="#DejaVuSans-2e" transform="translate(63.623047 0)"/>
       <use xlink:href="#DejaVuSans-30" transform="translate(95.410156 0)"/>
      </g>
     </g>
    </g>
    <g id="ytick_5">
     <g id="line2d_9">
      <path d="M 43.78125 71.69921 
L 400.90125 71.69921 
" clip-path="url(#p23279d2f82)" style="fill: none; stroke: #cccccc; stroke-width: 0.8; stroke-linecap: round"/>
     </g>
     <g id="text_10">
      <!-- 2.5 -->
      <g style="fill: #262626" transform="translate(20.878125 75.498429) scale(0.1 -0.1)">
       <use xlink:href="#DejaVuSans-32"/>
       <use xlink:href="#DejaVuSans-2e" transform="translate(63.623047 0)"/>
       <use xlink:href="#DejaVuSans-35" transform="translate(95.410156 0)"/>
      </g>
     </g>
    </g>
    <g id="text_11">
     <!-- Mean Latency (ns) -->
     <g style="fill: #262626" transform="translate(14.798438 214.92035) rotate(-90) scale(0.1 -0.1)">
      <defs>
       <path id="DejaVuSans-4d" d="M 628 4666 
L 1569 4666 
L 2759 1491 
L 3956 4666 
L 4897 4666 
L 4897 0 
L 4281 0 
L 4281 4097 
L 3078 897 
L 2444 897 
L 1241 4097 
L 1241 0 
L 628 0 
L 628 4666 
z
" transform="scale(0.015625)"/>
       <path id="DejaVuSans-61" d="M 2194 1759 
Q 1497 1759 1228 1600 
Q 959 1441 959 1056 
Q 959 750 1161 570 
Q 1363 391 1709 391 
Q 2188 391 2477 730 
Q 2766 1069 2766 1631 
L 2766 1759 
L 2194 1759 
z
M 3341 1997 
L 3341 0 
L 2766 0 
L 2766 531 
Q 2569 213 2275 61 
Q 1981 -91 1556 -91 
Q 1019 -91 701 211 
Q 384 513 384 1019 
Q 384 1609 779 1909 
Q 1175 2209 1959 2209 
L 2766 2209 
L 2766 2266 
Q 2766 2663 2505 2880 
Q 2244 3097 1772 3097 
Q 1472 3097 1187 3025 
Q 903 2953 641 2809 
L 641 3341 
Q 956 3463 1253 3523 
Q 1550 3584 1831 3584 
Q 2591 3584 2966 3190 
Q 3341 2797 3341 1997 
z
" transform="scale(0.015625)"/>
       <path id="DejaVuSans-6e" d="M 3513 2113 
L 3513 0 
L 2938 0 
L 2938 2094 
Q 2938 2591 2744 2837 
Q 2550 3084 2163 3084 
Q 1697 3084 1428 2787 
Q 1159 2491 1159 1978 
L 1159 0 
L 581 0 
L 581 3500 
L 1159 3500 
L 1159 2956 
Q 1366 3272 1645 3428 
Q 1925 3584 2291 3584 
Q 2894 3584 3203 3211 
Q 3513 2838 3513 2113 
z
" transform="scale(0.015625)"/>
       <path id="DejaVuSans-4c" d="M 628 4666 
L 1259 4666 
L 1259 531 
L 3531 531 
L 3531 0 
L 628 0 
L 628 4666 
z
" transform="scale(0.015625)"/>
       <path id="DejaVuSans-74" d="M 1172 4494 
L 1172 3500 
L 2356 3500 
L 2356 3053 
L 1172 3053 
L 1172 1153 
Q 1172 725 1289 603 
Q 1406 481 1766 481 
L 2356 481 
L 2356 0 
L 1766 0 
Q 1100 0 847 248 
Q 594 497 594 1153 
L 594 3053 
L 172 3053 
L 172 3500 
L 594 3500 
L 594 4494 
L 1172 4494 
z
" transform="scale(0.015625)"/>
       <path id="DejaVuSans-63" d="M 3122 3366 
L 3122 2828 
Q 2878 2963 2633 3030 
Q 2388 3097 2138 3097 
Q 1578 3097 1268 2742 
Q 959 2388 959 1747 
Q 959 1106 1268 751 
Q 1578 397 2138 397 
Q 2388 397 2633 464 
Q 2878 531 3122 666 
L 3122 134 
Q 2881 22 2623 -34 
Q 2366 -91 2075 -91 
Q 1284 -91 818 406 
Q 353 903 353 1747 
Q 353 2603 823 3093 
Q 1294 3584 2113 3584 
Q 2378 3584 2631 3529 
Q 2884 3475 3122 3366 
z
" transform="scale(0.015625)"/>
       <path id="DejaVuSans-79" d="M 2059 -325 
Q 1816 -950 1584 -1140 
Q 1353 -1331 966 -1331 
L 506 -1331 
L 506 -850 
L 844 -850 
Q 1081 -850 1212 -737 
Q 1344 -625 1503 -206 
L 1606 56 
L 191 3500 
L 800 3500 
L 1894 763 
L 2988 3500 
L 3597 3500 
L 2059 -325 
z
" transform="scale(0.015625)"/>
       <path id="DejaVuSans-28" d="M 1984 4856 
Q 1566 4138 1362 3434 
Q 1159 2731 1159 2009 
Q 1159 1288 1364 580 
Q 1569 -128 1984 -844 
L 1484 -844 
Q 1016 -109 783 600 
Q 550 1309 550 2009 
Q 550 2706 781 3412 
Q 1013 4119 1484 4856 
L 1984 4856 
z
" transform="scale(0.015625)"/>
       <path id="DejaVuSans-29" d="M 513 4856 
L 1013 4856 
Q 1481 4119 1714 3412 
Q 1947 2706 1947 2009 
Q 1947 1309 1714 600 
Q 1481 -109 1013 -844 
L 513 -844 
Q 928 -128 1133 580 
Q 1338 1288 1338 2009 
Q 1338 2731 1133 3434 
Q 928 4138 513 4856 
z
" transform="scale(0.015625)"/>
      </defs>
      <use xlink:href="#DejaVuSans-4d"/>
      <use xlink:href="#DejaVuSans-65" transform="translate(86.279297 0)"/>
      <use xlink:href="#DejaVuSans-61" transform="translate(147.802734 0)"/>
      <use xlink:href="#DejaVuSans-6e" transform="translate(209.082031 0)"/>
      <use xlink:href="#DejaVuSans-20" transform="translate(272.460938 0)"/>
      <use xlink:href="#DejaVuSans-4c" transform="translate(304.248047 0)"/>
      <use xlink:href="#DejaVuSans-61" transform="translate(359.960938 0)"/>
      <use xlink:href="#DejaVuSans-74" transform="translate(421.240234 0)"/>
      <use xlink:href="#DejaVuSans-65" transform="translate(460.449219 0)"/>
      <use xlink:href="#DejaVuSans-6e" transform="translate(521.972656 0)"/>
      <use xlink:href="#DejaVuSans-63" transform="translate(585.351562 0)"/>
      <use xlink:href="#DejaVuSans-79" transform="translate(640.332031 0)"/>
      <use xlink:href="#DejaVuSans-20" transform="translate(699.511719 0)"/>
      <use xlink:href="#DejaVuSans-28" transform="translate(731.298828 0)"/>
      <use xlink:href="#DejaVuSans-6e" transform="translate(770.3125 0)"/>
      <use xlink:href="#DejaVuSans-73" transform="translate(833.691406 0)"/>
      <use xlink:href="#DejaVuSans-29" transform="translate(885.791016 0)"/>
     </g>
    </g>
    <g id="text_12">
     <!-- 1e8 -->
     <g style="fill: #262626" transform="translate(43.78125 32.623725) scale(0.1 -0.1)">
      <use xlink:href="#DejaVuSans-31"/>
      <use xlink:href="#DejaVuSans-65" transform="translate(63.623047 0)"/>
      <use xlink:href="#DejaVuSans-38" transform="translate(125.146484 0)"/>
     </g>
    </g>
   </g>
   <g id="FillBetweenPolyCollection_1"/>
   <g id="FillBetweenPolyCollection_2"/>
   <g id="FillBetweenPolyCollection_3"/>
   <g id="FillBetweenPolyCollection_4"/>
   <g id="FillBetweenPolyCollection_5"/>
   <g id="FillBetweenPolyCollection_6"/>
   <g id="FillBetweenPolyCollection_7"/>
   <g id="line2d_10">
    <path d="M 60.013977 287.218519 
L 106.393198 261.369623 
L 199.15164 163.342396 
L 384.668523 47.719725 
" clip-path="url(#p23279d2f82)" style="fill: none; stroke: #4c02a1; stroke-width: 1.5; stroke-linecap: round"/>
   </g>
   <g id="line2d_11">
    <path d="M 60.013977 289.639725 
L 106.393198 255.652785 
L 199.15164 220.59025 
L 384.668523 107.521294 
" clip-path="url(#p23279d2f82)" style="fill: none; stroke: #7e03a8; stroke-width: 1.5; stroke-linecap: round"/>
   </g>
   <g id="line2d_12">
    <path d="M 60.013977 284.045074 
L 106.393198 264.371976 
L 199.15164 168.72809 
L 384.668523 82.437699 
" clip-path="url(#p23279d2f82)" style="fill: none; stroke: #aa2395; stroke-width: 1.5; stroke-linecap: round"/>
   </g>
   <g id="line2d_13">
    <path d="M 60.013977 286.131975 
L 106.393198 256.315899 
L 199.15164 191.114467 
L 384.668523 87.531607 
" clip-path="url(#p23279d2f82)" style="fill: none; stroke: #cc4778; stroke-width: 1.5; stroke-linecap: round"/>
   </g>
   <g id="line2d_14">
    <path d="M 60.013977 286.58085 
L 106.393198 257.929291 
L 199.15164 184.756 
L 384.668523 77.131901 
" clip-path="url(#p23279d2f82)" style="fill: none; stroke: #e66c5c; stroke-width: 1.5; stroke-linecap: round"/>
   </g>
   <g id="line2d_15">
    <path d="M 60.013977 285.897719 
L 106.393198 258.473364 
L 199.15164 186.023028 
L 384.668523 78.413807 
" clip-path="url(#p23279d2f82)" style="fill: none; stroke: #f89540; stroke-width: 1.5; stroke-linecap: round"/>
   </g>
   <g id="line2d_16">
    <path d="M 60.013977 284.108973 
L 106.393198 250.80707 
L 199.15164 172.720193 
L 384.668523 81.283632 
" clip-path="url(#p23279d2f82)" style="fill: none; stroke: #fdc527; stroke-width: 1.5; stroke-linecap: round"/>
   </g>
   <g id="line2d_17"/>
   <g id="line2d_18"/>
   <g id="line2d_19"/>
   <g id="line2d_20"/>
   <g id="line2d_21"/>
   <g id="line2d_22"/>
   <g id="line2d_23"/>
   <g id="text_13">
    <path d="M 101.057557 266.552534 
L 102.464703 265.768278 
L 99.7567 260.909459 
L 98.396505 262.070025 
L 97.959116 261.285243 
L 99.311122 260.129242 
L 100.172334 259.649256 
L 103.317726 265.292856 
L 104.724873 264.5086 
L 105.128792 265.233328 
L 101.461475 267.277262 
L 101.057557 266.552534 
z
" clip-path="url(#p23279d2f82)" style="fill: #4c02a1; stroke: #ffffff; stroke-width: 5"/>
    <path d="M 101.057557 266.552534 
L 102.464703 265.768278 
L 99.7567 260.909459 
L 98.396505 262.070025 
L 97.959116 261.285243 
L 99.311122 260.129242 
L 100.172334 259.649256 
L 103.317726 265.292856 
L 104.724873 264.5086 
L 105.128792 265.233328 
L 101.461475 267.277262 
L 101.057557 266.552534 
z
" clip-path="url(#p23279d2f82)" style="fill: #4c02a1"/>
   </g>
   <g id="text_14">
    <path d="M 141.250725 238.551255 
L 140.297189 243.07266 
L 142.626929 242.192022 
L 141.250725 238.551255 
z
M 140.704246 237.839102 
L 141.864731 237.400441 
L 143.544794 241.845071 
L 144.518199 241.477125 
L 144.808246 242.244449 
L 143.834841 242.612394 
L 144.442559 244.22012 
L 143.524694 244.567071 
L 142.916976 242.959346 
L 139.838913 244.122849 
L 139.502458 243.232753 
L 140.704246 237.839102 
z
" clip-path="url(#p23279d2f82)" style="fill: #7e03a8; stroke: #ffffff; stroke-width: 5"/>
    <path d="M 141.250725 238.551255 
L 140.297189 243.07266 
L 142.626929 242.192022 
L 141.250725 238.551255 
z
M 140.704246 237.839102 
L 141.864731 237.400441 
L 143.544794 241.845071 
L 144.518199 241.477125 
L 144.808246 242.244449 
L 143.834841 242.612394 
L 144.442559 244.22012 
L 143.524694 244.567071 
L 142.916976 242.959346 
L 139.838913 244.122849 
L 139.502458 243.232753 
L 140.704246 237.839102 
z
" clip-path="url(#p23279d2f82)" style="fill: #7e03a8"/>
   </g>
   <g id="text_15">
    <path d="M 181.658335 185.755608 
Q 181.168822 186.260347 181.158484 186.811893 
Q 181.149235 187.362316 181.621447 187.820283 
Q 182.094781 188.279336 182.644663 188.253235 
Q 183.195633 188.226012 183.685145 187.721272 
Q 184.174658 187.216532 184.184962 186.662778 
Q 184.195232 186.106814 183.725263 185.651023 
Q 183.253051 185.193057 182.702081 185.22028 
Q 182.152198 185.246381 181.658335 185.755608 
z
M 180.671329 186.171833 
Q 180.117515 186.51844 179.558766 186.470643 
Q 178.999984 186.420637 178.551326 185.985515 
Q 177.924327 185.377432 177.992739 184.57748 
Q 178.062239 183.776408 178.816089 182.999108 
Q 179.574289 182.217322 180.370682 182.125567 
Q 181.167075 182.033811 181.794074 182.641894 
Q 182.242732 183.077016 182.308739 183.635127 
Q 182.374712 184.191029 182.048491 184.751832 
Q 182.663424 184.355669 183.287436 184.407992 
Q 183.911415 184.458104 184.411668 184.943266 
Q 185.173264 185.681886 185.13007 186.54112 
Q 185.085753 187.399266 184.245967 188.265175 
Q 183.407269 189.129963 182.549795 189.201659 
Q 181.692287 189.271146 180.93069 188.532526 
Q 180.430437 188.047365 180.362327 187.424092 
Q 180.294184 186.79861 180.671329 186.171833 
z
M 179.301767 185.346391 
Q 179.707802 185.740176 180.181339 185.707509 
Q 180.655965 185.673721 181.100878 185.214968 
Q 181.543614 184.758459 181.565028 184.280778 
Q 181.58753 183.801975 181.181495 183.40819 
Q 180.774338 183.013316 180.296449 183.05047 
Q 179.819648 183.086502 179.376911 183.543011 
Q 178.931998 184.001763 178.91276 184.477201 
Q 178.89461 184.951517 179.301767 185.346391 
z
" clip-path="url(#p23279d2f82)" style="fill: #aa2395; stroke: #ffffff; stroke-width: 5"/>
    <path d="M 181.658335 185.755608 
Q 181.168822 186.260347 181.158484 186.811893 
Q 181.149235 187.362316 181.621447 187.820283 
Q 182.094781 188.279336 182.644663 188.253235 
Q 183.195633 188.226012 183.685145 187.721272 
Q 184.174658 187.216532 184.184962 186.662778 
Q 184.195232 186.106814 183.725263 185.651023 
Q 183.253051 185.193057 182.702081 185.22028 
Q 182.152198 185.246381 181.658335 185.755608 
z
M 180.671329 186.171833 
Q 180.117515 186.51844 179.558766 186.470643 
Q 178.999984 186.420637 178.551326 185.985515 
Q 177.924327 185.377432 177.992739 184.57748 
Q 178.062239 183.776408 178.816089 182.999108 
Q 179.574289 182.217322 180.370682 182.125567 
Q 181.167075 182.033811 181.794074 182.641894 
Q 182.242732 183.077016 182.308739 183.635127 
Q 182.374712 184.191029 182.048491 184.751832 
Q 182.663424 184.355669 183.287436 184.407992 
Q 183.911415 184.458104 184.411668 184.943266 
Q 185.173264 185.681886 185.13007 186.54112 
Q 185.085753 187.399266 184.245967 188.265175 
Q 183.407269 189.129963 182.549795 189.201659 
Q 181.692287 189.271146 180.93069 188.532526 
Q 180.430437 188.047365 180.362327 187.424092 
Q 180.294184 186.79861 180.671329 186.171833 
z
M 179.301767 185.346391 
Q 179.707802 185.740176 180.181339 185.707509 
Q 180.655965 185.673721 181.100878 185.214968 
Q 181.543614 184.758459 181.565028 184.280778 
Q 181.58753 183.801975 181.181495 183.40819 
Q 180.774338 183.013316 180.296449 183.05047 
Q 179.819648 183.086502 179.376911 183.543011 
Q 178.931998 184.001763 178.91276 184.477201 
Q 178.89461 184.951517 179.301767 185.346391 
z
" clip-path="url(#p23279d2f82)" style="fill: #aa2395"/>
   </g>
   <g id="text_16">
    <path d="M 218.809967 182.348397 
L 220.21651 181.563057 
L 217.504766 176.706325 
L 216.145465 177.867937 
L 215.707473 177.083493 
L 217.058588 175.926451 
L 217.919431 175.445802 
L 221.069167 181.086979 
L 222.475709 180.301639 
L 222.880186 181.026056 
L 219.214444 183.072814 
L 218.809967 182.348397 
z
M 224.60065 175.441221 
Q 224.020843 175.764955 223.902807 176.351621 
Q 223.785373 176.936162 224.170806 177.626473 
Q 224.553954 178.312691 225.115474 178.523509 
Q 225.677597 178.7322 226.257403 178.408467 
Q 226.83721 178.084733 226.95312 177.497464 
Q 227.068269 176.908831 226.68512 176.222612 
Q 226.299687 175.532302 225.740453 175.325577 
Q 225.180456 175.117488 224.60065 175.441221 
z
M 224.8026 171.786927 
L 225.240593 172.571371 
Q 224.830588 172.599865 224.455497 172.703712 
Q 224.079645 172.806195 223.754953 172.987486 
Q 222.902297 173.463564 222.773542 174.290648 
Q 222.646152 175.116969 223.231784 176.316476 
Q 223.275617 175.805242 223.544429 175.395666 
Q 223.814604 174.985328 224.270264 174.730912 
Q 225.229332 174.195419 226.111203 174.46717 
Q 226.992313 174.737556 227.55142 175.738917 
Q 228.099101 176.719813 227.850645 177.636995 
Q 227.601427 178.552814 226.638266 179.090592 
Q 225.533223 179.70759 224.477054 179.187773 
Q 223.420123 178.666592 222.52281 177.059505 
Q 221.680341 175.550643 221.895357 174.25306 
Q 222.110373 172.955477 223.316371 172.282112 
Q 223.641062 172.100821 224.007012 171.980603 
Q 224.372962 171.860385 224.8026 171.786927 
z
" clip-path="url(#p23279d2f82)" style="fill: #cc4778; stroke: #ffffff; stroke-width: 5"/>
    <path d="M 218.809967 182.348397 
L 220.21651 181.563057 
L 217.504766 176.706325 
L 216.145465 177.867937 
L 215.707473 177.083493 
L 217.058588 175.926451 
L 217.919431 175.445802 
L 221.069167 181.086979 
L 222.475709 180.301639 
L 222.880186 181.026056 
L 219.214444 183.072814 
L 218.809967 182.348397 
z
M 224.60065 175.441221 
Q 224.020843 175.764955 223.902807 176.351621 
Q 223.785373 176.936162 224.170806 177.626473 
Q 224.553954 178.312691 225.115474 178.523509 
Q 225.677597 178.7322 226.257403 178.408467 
Q 226.83721 178.084733 226.95312 177.497464 
Q 227.068269 176.908831 226.68512 176.222612 
Q 226.299687 175.532302 225.740453 175.325577 
Q 225.180456 175.117488 224.60065 175.441221 
z
M 224.8026 171.786927 
L 225.240593 172.571371 
Q 224.830588 172.599865 224.455497 172.703712 
Q 224.079645 172.806195 223.754953 172.987486 
Q 222.902297 173.463564 222.773542 174.290648 
Q 222.646152 175.116969 223.231784 176.316476 
Q 223.275617 175.805242 223.544429 175.395666 
Q 223.814604 174.985328 224.270264 174.730912 
Q 225.229332 174.195419 226.111203 174.46717 
Q 226.992313 174.737556 227.55142 175.738917 
Q 228.099101 176.719813 227.850645 177.636995 
Q 227.601427 178.552814 226.638266 179.090592 
Q 225.533223 179.70759 224.477054 179.187773 
Q 223.420123 178.666592 222.52281 177.059505 
Q 221.680341 175.550643 221.895357 174.25306 
Q 222.110373 172.955477 223.316371 172.282112 
Q 223.641062 172.100821 224.007012 171.980603 
Q 224.372962 171.860385 224.8026 171.786927 
z
" clip-path="url(#p23279d2f82)" style="fill: #cc4778"/>
   </g>
   <g id="text_17">
    <path d="M 259.935687 148.138492 
Q 260.623986 147.914408 261.207984 148.130176 
Q 261.79255 148.343809 262.14538 148.951999 
Q 262.686387 149.884558 262.341569 150.769221 
Q 261.995968 151.652533 260.813375 152.338592 
Q 260.417376 152.568323 259.951572 152.733779 
Q 259.485769 152.899235 258.94746 153.001983 
L 258.469963 152.178899 
Q 258.944027 152.180258 259.426863 152.041049 
Q 259.911051 151.901055 260.371924 151.633688 
Q 261.173384 151.168737 261.410239 150.608633 
Q 261.647095 150.048529 261.296617 149.444393 
Q 260.972797 148.886209 260.4003 148.799249 
Q 259.827019 148.710937 259.130979 149.114731 
L 258.395744 149.541264 
L 257.988813 148.839817 
L 258.757836 148.393683 
Q 259.3863 148.029092 259.574292 147.584042 
Q 259.762285 147.138992 259.487862 146.665955 
Q 259.206381 146.180754 258.711199 146.121197 
Q 258.216585 146.059504 257.574606 146.431935 
Q 257.223207 146.635793 256.866493 146.945698 
Q 256.508995 147.254252 256.120369 147.692861 
L 255.679723 146.933299 
Q 256.087869 146.515881 256.473047 146.202107 
Q 256.858226 145.888334 257.233952 145.670363 
Q 258.205705 145.106619 259.027037 145.22083 
Q 259.848935 145.332907 260.284877 146.08436 
Q 260.589095 146.608755 260.4984 147.143678 
Q 260.407705 147.6786 259.935687 148.138492 
z
M 265.145088 148.702052 
L 268.122518 146.974753 
L 268.538858 147.692417 
L 264.535613 150.014824 
L 264.119273 149.297159 
Q 264.312801 148.512908 264.659927 147.180726 
Q 265.00762 145.846408 265.079813 145.475763 
Q 265.222745 144.778669 265.19989 144.365618 
Q 265.178386 143.951784 264.999618 143.643634 
Q 264.707945 143.140864 264.171723 143.029246 
Q 263.634717 142.916277 263.068424 143.244801 
Q 262.667018 143.477669 262.301771 143.875619 
Q 261.937875 144.272785 261.595704 144.850633 
L 261.095469 143.988354 
Q 261.490441 143.482839 261.876642 143.117893 
Q 262.264194 142.752164 262.635866 142.536545 
Q 263.615729 141.968096 264.482856 142.120771 
Q 265.3492 142.272093 265.824344 143.091123 
Q 266.050156 143.480365 266.106479 143.91374 
Q 266.16337 144.344979 266.052606 145.041476 
Q 266.018537 145.225622 265.791745 146.139361 
Q 265.566305 147.052315 265.145088 148.702052 
z
" clip-path="url(#p23279d2f82)" style="fill: #e66c5c; stroke: #ffffff; stroke-width: 5"/>
    <path d="M 259.935687 148.138492 
Q 260.623986 147.914408 261.207984 148.130176 
Q 261.79255 148.343809 262.14538 148.951999 
Q 262.686387 149.884558 262.341569 150.769221 
Q 261.995968 151.652533 260.813375 152.338592 
Q 260.417376 152.568323 259.951572 152.733779 
Q 259.485769 152.899235 258.94746 153.001983 
L 258.469963 152.178899 
Q 258.944027 152.180258 259.426863 152.041049 
Q 259.911051 151.901055 260.371924 151.633688 
Q 261.173384 151.168737 261.410239 150.608633 
Q 261.647095 150.048529 261.296617 149.444393 
Q 260.972797 148.886209 260.4003 148.799249 
Q 259.827019 148.710937 259.130979 149.114731 
L 258.395744 149.541264 
L 257.988813 148.839817 
L 258.757836 148.393683 
Q 259.3863 148.029092 259.574292 147.584042 
Q 259.762285 147.138992 259.487862 146.665955 
Q 259.206381 146.180754 258.711199 146.121197 
Q 258.216585 146.059504 257.574606 146.431935 
Q 257.223207 146.635793 256.866493 146.945698 
Q 256.508995 147.254252 256.120369 147.692861 
L 255.679723 146.933299 
Q 256.087869 146.515881 256.473047 146.202107 
Q 256.858226 145.888334 257.233952 145.670363 
Q 258.205705 145.106619 259.027037 145.22083 
Q 259.848935 145.332907 260.284877 146.08436 
Q 260.589095 146.608755 260.4984 147.143678 
Q 260.407705 147.6786 259.935687 148.138492 
z
M 265.145088 148.702052 
L 268.122518 146.974753 
L 268.538858 147.692417 
L 264.535613 150.014824 
L 264.119273 149.297159 
Q 264.312801 148.512908 264.659927 147.180726 
Q 265.00762 145.846408 265.079813 145.475763 
Q 265.222745 144.778669 265.19989 144.365618 
Q 265.178386 143.951784 264.999618 143.643634 
Q 264.707945 143.140864 264.171723 143.029246 
Q 263.634717 142.916277 263.068424 143.244801 
Q 262.667018 143.477669 262.301771 143.875619 
Q 261.937875 144.272785 261.595704 144.850633 
L 261.095469 143.988354 
Q 261.490441 143.482839 261.876642 143.117893 
Q 262.264194 142.752164 262.635866 142.536545 
Q 263.615729 141.968096 264.482856 142.120771 
Q 265.3492 142.272093 265.824344 143.091123 
Q 266.050156 143.480365 266.106479 143.91374 
Q 266.16337 144.344979 266.052606 145.041476 
Q 266.018537 145.225622 265.791745 146.139361 
Q 265.566305 147.052315 265.145088 148.702052 
z
" clip-path="url(#p23279d2f82)" style="fill: #e66c5c"/>
   </g>
   <g id="text_18">
    <path d="M 299.404202 126.393867 
Q 298.829779 126.727061 298.721376 127.315583 
Q 298.613539 127.90197 299.010236 128.585871 
Q 299.404581 129.265716 299.969481 129.467301 
Q 300.534949 129.66675 301.109371 129.333556 
Q 301.683793 129.000362 301.790061 128.411272 
Q 301.895546 127.82083 301.501201 127.140985 
Q 301.104504 126.457084 300.541956 126.259554 
Q 299.978624 126.060673 299.404202 126.393867 
z
M 299.546225 122.736753 
L 299.997017 123.513912 
Q 299.587534 123.549124 299.214196 123.659105 
Q 298.840074 123.767734 298.518398 123.954323 
Q 297.67366 124.444314 297.55848 125.273397 
Q 297.444651 126.101696 298.049867 127.291442 
Q 298.085314 126.779559 298.347376 126.365631 
Q 298.610789 125.95092 299.062217 125.689068 
Q 300.012379 125.137926 300.898586 125.395185 
Q 301.784009 125.651093 302.359455 126.643154 
Q 302.923141 127.614941 302.689753 128.536073 
Q 302.45558 129.455853 301.501364 130.009347 
Q 300.406583 130.644376 299.342035 130.141941 
Q 298.276703 129.638155 297.353167 128.045992 
Q 296.486079 126.551143 296.679796 125.25021 
Q 296.873514 123.949277 298.068312 123.256233 
Q 298.389988 123.069644 298.753918 122.943444 
Q 299.117848 122.817244 299.546225 122.736753 
z
M 304.12019 120.891052 
L 303.918678 125.507514 
L 306.073099 124.257841 
L 304.12019 120.891052 
z
M 303.464635 120.277823 
L 304.53779 119.655339 
L 306.921892 123.765498 
L 307.822045 123.243363 
L 308.233637 123.952943 
L 307.333484 124.475078 
L 308.195869 125.961818 
L 307.347076 126.454161 
L 306.484691 124.967421 
L 303.638261 126.618495 
L 303.160813 125.795382 
L 303.464635 120.277823 
z
" clip-path="url(#p23279d2f82)" style="fill: #f89540; stroke: #ffffff; stroke-width: 5"/>
    <path d="M 299.404202 126.393867 
Q 298.829779 126.727061 298.721376 127.315583 
Q 298.613539 127.90197 299.010236 128.585871 
Q 299.404581 129.265716 299.969481 129.467301 
Q 300.534949 129.66675 301.109371 129.333556 
Q 301.683793 129.000362 301.790061 128.411272 
Q 301.895546 127.82083 301.501201 127.140985 
Q 301.104504 126.457084 300.541956 126.259554 
Q 299.978624 126.060673 299.404202 126.393867 
z
M 299.546225 122.736753 
L 299.997017 123.513912 
Q 299.587534 123.549124 299.214196 123.659105 
Q 298.840074 123.767734 298.518398 123.954323 
Q 297.67366 124.444314 297.55848 125.273397 
Q 297.444651 126.101696 298.049867 127.291442 
Q 298.085314 126.779559 298.347376 126.365631 
Q 298.610789 125.95092 299.062217 125.689068 
Q 300.012379 125.137926 300.898586 125.395185 
Q 301.784009 125.651093 302.359455 126.643154 
Q 302.923141 127.614941 302.689753 128.536073 
Q 302.45558 129.455853 301.501364 130.009347 
Q 300.406583 130.644376 299.342035 130.141941 
Q 298.276703 129.638155 297.353167 128.045992 
Q 296.486079 126.551143 296.679796 125.25021 
Q 296.873514 123.949277 298.068312 123.256233 
Q 298.389988 123.069644 298.753918 122.943444 
Q 299.117848 122.817244 299.546225 122.736753 
z
M 304.12019 120.891052 
L 303.918678 125.507514 
L 306.073099 124.257841 
L 304.12019 120.891052 
z
M 303.464635 120.277823 
L 304.53779 119.655339 
L 306.921892 123.765498 
L 307.822045 123.243363 
L 308.233637 123.952943 
L 307.333484 124.475078 
L 308.195869 125.961818 
L 307.347076 126.454161 
L 306.484691 124.967421 
L 303.638261 126.618495 
L 303.160813 125.795382 
L 303.464635 120.277823 
z
" clip-path="url(#p23279d2f82)" style="fill: #f89540"/>
   </g>
   <g id="text_19">
    <path d="M 336.274706 107.287058 
L 337.719667 106.574873 
L 335.260523 101.585483 
L 333.843447 102.675868 
L 333.446254 101.869998 
L 334.85492 100.783757 
L 335.739276 100.34788 
L 338.595613 106.143142 
L 340.040574 105.430957 
L 340.407373 106.175161 
L 336.641505 108.031262 
L 336.274706 107.287058 
z
M 342.589753 104.174531 
L 345.677289 102.652763 
L 346.044088 103.396967 
L 341.892803 105.44303 
L 341.526004 104.698826 
Q 341.772181 103.929476 342.208697 102.623851 
Q 342.645924 101.316133 342.743045 100.951224 
Q 342.932841 100.265406 342.938001 99.851756 
Q 342.944563 99.437416 342.787067 99.11787 
Q 342.5301 98.596507 342.002665 98.448844 
Q 341.474538 98.299779 340.887304 98.589212 
Q 340.471054 98.794371 340.079704 99.166681 
Q 339.689755 99.538301 339.309249 100.091658 
L 338.868537 99.197492 
Q 339.296826 98.719877 339.706847 98.381913 
Q 340.11827 98.043259 340.503686 97.853297 
Q 341.519784 97.352489 342.374586 97.563516 
Q 343.228698 97.773142 343.647305 98.62246 
Q 343.846247 99.026096 343.873102 99.46229 
Q 343.900669 99.896391 343.743007 100.583791 
Q 343.696549 100.765209 343.408418 101.661497 
Q 343.121689 102.557095 342.589753 104.174531 
z
M 348.262216 98.443486 
Q 347.631534 98.754333 347.436419 99.270317 
Q 347.242706 99.78561 347.53352 100.375648 
Q 347.825026 100.967087 348.35169 101.127323 
Q 348.879757 101.286869 349.510438 100.976023 
Q 350.14112 100.665176 350.336945 100.1471 
Q 350.533482 99.626931 350.244049 99.039697 
Q 349.953234 98.449659 349.425168 98.290113 
Q 348.898503 98.129877 348.262216 98.443486 
z
M 347.192733 98.503757 
Q 346.554642 98.644059 346.044464 98.411243 
Q 345.534996 98.176334 345.258688 97.615729 
Q 344.872547 96.832282 345.205849 96.101863 
Q 345.540553 95.370754 346.511802 94.89205 
Q 347.488658 94.410582 348.269559 94.591838 
Q 349.050461 94.773095 349.436602 95.556541 
Q 349.71291 96.117147 349.587492 96.664974 
Q 349.462784 97.210709 348.96705 97.629241 
Q 349.679363 97.46281 350.249486 97.721824 
Q 350.82032 97.978745 351.128404 98.603821 
Q 351.597438 99.555449 351.26796 100.350177 
Q 350.937793 101.143505 349.855824 101.67678 
Q 348.775256 102.209364 347.943569 101.988686 
Q 347.112592 101.765915 346.643559 100.814287 
Q 346.335475 100.189212 346.480815 99.579306 
Q 346.626865 98.967309 347.192733 98.503757 
z
M 346.180285 97.266015 
Q 346.430344 97.773364 346.887313 97.901757 
Q 347.345683 98.029459 347.918902 97.746934 
Q 348.489319 97.46579 348.670039 97.023096 
Q 348.852161 96.579712 348.602102 96.072364 
Q 348.351352 95.563614 347.888777 95.437984 
Q 347.427604 95.311663 346.857188 95.592807 
Q 346.283968 95.875332 346.106051 96.316644 
Q 345.929535 96.757266 346.180285 97.266015 
z
" clip-path="url(#p23279d2f82)" style="fill: #fdc527; stroke: #ffffff; stroke-width: 5"/>
    <path d="M 336.274706 107.287058 
L 337.719667 106.574873 
L 335.260523 101.585483 
L 333.843447 102.675868 
L 333.446254 101.869998 
L 334.85492 100.783757 
L 335.739276 100.34788 
L 338.595613 106.143142 
L 340.040574 105.430957 
L 340.407373 106.175161 
L 336.641505 108.031262 
L 336.274706 107.287058 
z
M 342.589753 104.174531 
L 345.677289 102.652763 
L 346.044088 103.396967 
L 341.892803 105.44303 
L 341.526004 104.698826 
Q 341.772181 103.929476 342.208697 102.623851 
Q 342.645924 101.316133 342.743045 100.951224 
Q 342.932841 100.265406 342.938001 99.851756 
Q 342.944563 99.437416 342.787067 99.11787 
Q 342.5301 98.596507 342.002665 98.448844 
Q 341.474538 98.299779 340.887304 98.589212 
Q 340.471054 98.794371 340.079704 99.166681 
Q 339.689755 99.538301 339.309249 100.091658 
L 338.868537 99.197492 
Q 339.296826 98.719877 339.706847 98.381913 
Q 340.11827 98.043259 340.503686 97.853297 
Q 341.519784 97.352489 342.374586 97.563516 
Q 343.228698 97.773142 343.647305 98.62246 
Q 343.846247 99.026096 343.873102 99.46229 
Q 343.900669 99.896391 343.743007 100.583791 
Q 343.696549 100.765209 343.408418 101.661497 
Q 343.121689 102.557095 342.589753 104.174531 
z
M 348.262216 98.443486 
Q 347.631534 98.754333 347.436419 99.270317 
Q 347.242706 99.78561 347.53352 100.375648 
Q 347.825026 100.967087 348.35169 101.127323 
Q 348.879757 101.286869 349.510438 100.976023 
Q 350.14112 100.665176 350.336945 100.1471 
Q 350.533482 99.626931 350.244049 99.039697 
Q 349.953234 98.449659 349.425168 98.290113 
Q 348.898503 98.129877 348.262216 98.443486 
z
M 347.192733 98.503757 
Q 346.554642 98.644059 346.044464 98.411243 
Q 345.534996 98.176334 345.258688 97.615729 
Q 344.872547 96.832282 345.205849 96.101863 
Q 345.540553 95.370754 346.511802 94.89205 
Q 347.488658 94.410582 348.269559 94.591838 
Q 349.050461 94.773095 349.436602 95.556541 
Q 349.71291 96.117147 349.587492 96.664974 
Q 349.462784 97.210709 348.96705 97.629241 
Q 349.679363 97.46281 350.249486 97.721824 
Q 350.82032 97.978745 351.128404 98.603821 
Q 351.597438 99.555449 351.26796 100.350177 
Q 350.937793 101.143505 349.855824 101.67678 
Q 348.775256 102.209364 347.943569 101.988686 
Q 347.112592 101.765915 346.643559 100.814287 
Q 346.335475 100.189212 346.480815 99.579306 
Q 346.626865 98.967309 347.192733 98.503757 
z
M 346.180285 97.266015 
Q 346.430344 97.773364 346.887313 97.901757 
Q 347.345683 98.029459 347.918902 97.746934 
Q 348.489319 97.46579 348.670039 97.023096 
Q 348.852161 96.579712 348.602102 96.072364 
Q 348.351352 95.563614 347.888777 95.437984 
Q 347.427604 95.311663 346.857188 95.592807 
Q 346.283968 95.875332 346.106051 96.316644 
Q 345.929535 96.757266 346.180285 97.266015 
z
" clip-path="url(#p23279d2f82)" style="fill: #fdc527"/>
   </g>
   <g id="patch_3">
    <path d="M 43.78125 301.735725 
L 43.78125 35.623725 
" style="fill: none; stroke: #cccccc; stroke-width: 0.8; stroke-linejoin: miter; stroke-linecap: square"/>
   </g>
   <g id="patch_4">
    <path d="M 400.90125 301.735725 
L 400.90125 35.623725 
" style="fill: none; stroke: #cccccc; stroke-width: 0.8; stroke-linejoin: miter; stroke-linecap: square"/>
   </g>
   <g id="patch_5">
    <path d="M 43.78125 301.735725 
L 400.90125 301.735725 
" style="fill: none; stroke: #cccccc; stroke-width: 0.8; stroke-linejoin: miter; stroke-linecap: square"/>
   </g>
   <g id="patch_6">
    <path d="M 43.78125 35.623725 
L 400.90125 35.623725 
" style="fill: none; stroke: #cccccc; stroke-width: 0.8; stroke-linejoin: miter; stroke-linecap: square"/>
   </g>
   <g id="text_20">
    <!-- Block Size = 4M, Read-Write Type = Sequential Read-heavy 4:1 -->
    <g style="fill: #262626; opacity: 0.75" transform="translate(63.652969 30.882918) scale(0.1 -0.1)">
     <defs>
      <path id="DejaVuSans-42" d="M 1259 2228 
L 1259 519 
L 2272 519 
Q 2781 519 3026 730 
Q 3272 941 3272 1375 
Q 3272 1813 3026 2020 
Q 2781 2228 2272 2228 
L 1259 2228 
z
M 1259 4147 
L 1259 2741 
L 2194 2741 
Q 2656 2741 2882 2914 
Q 3109 3088 3109 3444 
Q 3109 3797 2882 3972 
Q 2656 4147 2194 4147 
L 1259 4147 
z
M 628 4666 
L 2241 4666 
Q 2963 4666 3353 4366 
Q 3744 4066 3744 3513 
Q 3744 3084 3544 2831 
Q 3344 2578 2956 2516 
Q 3422 2416 3680 2098 
Q 3938 1781 3938 1306 
Q 3938 681 3513 340 
Q 3088 0 2303 0 
L 628 0 
L 628 4666 
z
" transform="scale(0.015625)"/>
      <path id="DejaVuSans-6c" d="M 603 4863 
L 1178 4863 
L 1178 0 
L 603 0 
L 603 4863 
z
" transform="scale(0.015625)"/>
      <path id="DejaVuSans-6b" d="M 581 4863 
L 1159 4863 
L 1159 1991 
L 2875 3500 
L 3609 3500 
L 1753 1863 
L 3688 0 
L 2938 0 
L 1159 1709 
L 1159 0 
L 581 0 
L 581 4863 
z
" transform="scale(0.015625)"/>
      <path id="DejaVuSans-53" d="M 3425 4513 
L 3425 3897 
Q 3066 4069 2747 4153 
Q 2428 4238 2131 4238 
Q 1616 4238 1336 4038 
Q 1056 3838 1056 3469 
Q 1056 3159 1242 3001 
Q 1428 2844 1947 2747 
L 2328 2669 
Q 3034 2534 3370 2195 
Q 3706 1856 3706 1288 
Q 3706 609 3251 259 
Q 2797 -91 1919 -91 
Q 1588 -91 1214 -16 
Q 841 59 441 206 
L 441 856 
Q 825 641 1194 531 
Q 1563 422 1919 422 
Q 2459 422 2753 634 
Q 3047 847 3047 1241 
Q 3047 1584 2836 1778 
Q 2625 1972 2144 2069 
L 1759 2144 
Q 1053 2284 737 2584 
Q 422 2884 422 3419 
Q 422 4038 858 4394 
Q 1294 4750 2059 4750 
Q 2388 4750 2728 4690 
Q 3069 4631 3425 4513 
z
" transform="scale(0.015625)"/>
      <path id="DejaVuSans-69" d="M 603 3500 
L 1178 3500 
L 1178 0 
L 603 0 
L 603 3500 
z
M 603 4863 
L 1178 4863 
L 1178 4134 
L 603 4134 
L 603 4863 
z
" transform="scale(0.015625)"/>
      <path id="DejaVuSans-7a" d="M 353 3500 
L 3084 3500 
L 3084 2975 
L 922 459 
L 3084 459 
L 3084 0 
L 275 0 
L 275 525 
L 2438 3041 
L 353 3041 
L 353 3500 
z
" transform="scale(0.015625)"/>
      <path id="DejaVuSans-3d" d="M 678 2906 
L 4684 2906 
L 4684 2381 
L 678 2381 
L 678 2906 
z
M 678 1631 
L 4684 1631 
L 4684 1100 
L 678 1100 
L 678 1631 
z
" transform="scale(0.015625)"/>
      <path id="DejaVuSans-2c" d="M 750 794 
L 1409 794 
L 1409 256 
L 897 -744 
L 494 -744 
L 750 256 
L 750 794 
z
" transform="scale(0.015625)"/>
      <path id="DejaVuSans-52" d="M 2841 2188 
Q 3044 2119 3236 1894 
Q 3428 1669 3622 1275 
L 4263 0 
L 3584 0 
L 2988 1197 
Q 2756 1666 2539 1819 
Q 2322 1972 1947 1972 
L 1259 1972 
L 1259 0 
L 628 0 
L 628 4666 
L 2053 4666 
Q 2853 4666 3247 4331 
Q 3641 3997 3641 3322 
Q 3641 2881 3436 2590 
Q 3231 2300 2841 2188 
z
M 1259 4147 
L 1259 2491 
L 2053 2491 
Q 2509 2491 2742 2702 
Q 2975 2913 2975 3322 
Q 2975 3731 2742 3939 
Q 2509 4147 2053 4147 
L 1259 4147 
z
" transform="scale(0.015625)"/>
      <path id="DejaVuSans-64" d="M 2906 2969 
L 2906 4863 
L 3481 4863 
L 3481 0 
L 2906 0 
L 2906 525 
Q 2725 213 2448 61 
Q 2172 -91 1784 -91 
Q 1150 -91 751 415 
Q 353 922 353 1747 
Q 353 2572 751 3078 
Q 1150 3584 1784 3584 
Q 2172 3584 2448 3432 
Q 2725 3281 2906 2969 
z
M 947 1747 
Q 947 1113 1208 752 
Q 1469 391 1925 391 
Q 2381 391 2643 752 
Q 2906 1113 2906 1747 
Q 2906 2381 2643 2742 
Q 2381 3103 1925 3103 
Q 1469 3103 1208 2742 
Q 947 2381 947 1747 
z
" transform="scale(0.015625)"/>
      <path id="DejaVuSans-2d" d="M 313 2009 
L 1997 2009 
L 1997 1497 
L 313 1497 
L 313 2009 
z
" transform="scale(0.015625)"/>
      <path id="DejaVuSans-57" d="M 213 4666 
L 850 4666 
L 1831 722 
L 2809 4666 
L 3519 4666 
L 4500 722 
L 5478 4666 
L 6119 4666 
L 4947 0 
L 4153 0 
L 3169 4050 
L 2175 0 
L 1381 0 
L 213 4666 
z
" transform="scale(0.015625)"/>
      <path id="DejaVuSans-54" d="M -19 4666 
L 3928 4666 
L 3928 4134 
L 2272 4134 
L 2272 0 
L 1638 0 
L 1638 4134 
L -19 4134 
L -19 4666 
z
" transform="scale(0.015625)"/>
      <path id="DejaVuSans-70" d="M 1159 525 
L 1159 -1331 
L 581 -1331 
L 581 3500 
L 1159 3500 
L 1159 2969 
Q 1341 3281 1617 3432 
Q 1894 3584 2278 3584 
Q 2916 3584 3314 3078 
Q 3713 2572 3713 1747 
Q 3713 922 3314 415 
Q 2916 -91 2278 -91 
Q 1894 -91 1617 61 
Q 1341 213 1159 525 
z
M 3116 1747 
Q 3116 2381 2855 2742 
Q 2594 3103 2138 3103 
Q 1681 3103 1420 2742 
Q 1159 2381 1159 1747 
Q 1159 1113 1420 752 
Q 1681 391 2138 391 
Q 2594 391 2855 752 
Q 3116 1113 3116 1747 
z
" transform="scale(0.015625)"/>
      <path id="DejaVuSans-71" d="M 947 1747 
Q 947 1113 1208 752 
Q 1469 391 1925 391 
Q 2381 391 2643 752 
Q 2906 1113 2906 1747 
Q 2906 2381 2643 2742 
Q 2381 3103 1925 3103 
Q 1469 3103 1208 2742 
Q 947 2381 947 1747 
z
M 2906 525 
Q 2725 213 2448 61 
Q 2172 -91 1784 -91 
Q 1150 -91 751 415 
Q 353 922 353 1747 
Q 353 2572 751 3078 
Q 1150 3584 1784 3584 
Q 2172 3584 2448 3432 
Q 2725 3281 2906 2969 
L 2906 3500 
L 3481 3500 
L 3481 -1331 
L 2906 -1331 
L 2906 525 
z
" transform="scale(0.015625)"/>
      <path id="DejaVuSans-68" d="M 3513 2113 
L 3513 0 
L 2938 0 
L 2938 2094 
Q 2938 2591 2744 2837 
Q 2550 3084 2163 3084 
Q 1697 3084 1428 2787 
Q 1159 2491 1159 1978 
L 1159 0 
L 581 0 
L 581 4863 
L 1159 4863 
L 1159 2956 
Q 1366 3272 1645 3428 
Q 1925 3584 2291 3584 
Q 2894 3584 3203 3211 
Q 3513 2838 3513 2113 
z
" transform="scale(0.015625)"/>
      <path id="DejaVuSans-76" d="M 191 3500 
L 800 3500 
L 1894 563 
L 2988 3500 
L 3597 3500 
L 2284 0 
L 1503 0 
L 191 3500 
z
" transform="scale(0.015625)"/>
      <path id="DejaVuSans-3a" d="M 750 794 
L 1409 794 
L 1409 0 
L 750 0 
L 750 794 
z
M 750 3309 
L 1409 3309 
L 1409 2516 
L 750 2516 
L 750 3309 
z
" transform="scale(0.015625)"/>
     </defs>
     <use xlink:href="#DejaVuSans-42"/>
     <use xlink:href="#DejaVuSans-6c" transform="translate(68.603516 0)"/>
     <use xlink:href="#DejaVuSans-6f" transform="translate(96.386719 0)"/>
     <use xlink:href="#DejaVuSans-63" transform="translate(157.568359 0)"/>
     <use xlink:href="#DejaVuSans-6b" transform="translate(212.548828 0)"/>
     <use xlink:href="#DejaVuSans-20" transform="translate(270.458984 0)"/>
     <use xlink:href="#DejaVuSans-53" transform="translate(302.246094 0)"/>
     <use xlink:href="#DejaVuSans-69" transform="translate(365.722656 0)"/>
     <use xlink:href="#DejaVuSans-7a" transform="translate(393.505859 0)"/>
     <use xlink:href="#DejaVuSans-65" transform="translate(445.996094 0)"/>
     <use xlink:href="#DejaVuSans-20" transform="translate(507.519531 0)"/>
     <use xlink:href="#DejaVuSans-3d" transform="translate(539.306641 0)"/>
     <use xlink:href="#DejaVuSans-20" transform="translate(623.095703 0)"/>
     <use xlink:href="#DejaVuSans-34" transform="translate(654.882812 0)"/>
     <use xlink:href="#DejaVuSans-4d" transform="translate(718.505859 0)"/>
     <use xlink:href="#DejaVuSans-2c" transform="translate(804.785156 0)"/>
     <use xlink:href="#DejaVuSans-20" transform="translate(836.572266 0)"/>
     <use xlink:href="#DejaVuSans-52" transform="translate(868.359375 0)"/>
     <use xlink:href="#DejaVuSans-65" transform="translate(933.341797 0)"/>
     <use xlink:href="#DejaVuSans-61" transform="translate(994.865234 0)"/>
     <use xlink:href="#DejaVuSans-64" transform="translate(1056.144531 0)"/>
     <use xlink:href="#DejaVuSans-2d" transform="translate(1119.621094 0)"/>
     <use xlink:href="#DejaVuSans-57" transform="translate(1151.705078 0)"/>
     <use xlink:href="#DejaVuSans-72" transform="translate(1246.082031 0)"/>
     <use xlink:href="#DejaVuSans-69" transform="translate(1287.195312 0)"/>
     <use xlink:href="#DejaVuSans-74" transform="translate(1314.978516 0)"/>
     <use xlink:href="#DejaVuSans-65" transform="translate(1354.1875 0)"/>
     <use xlink:href="#DejaVuSans-20" transform="translate(1415.710938 0)"/>
     <use xlink:href="#DejaVuSans-54" transform="translate(1447.498047 0)"/>
     <use xlink:href="#DejaVuSans-79" transform="translate(1492.957031 0)"/>
     <use xlink:href="#DejaVuSans-70" transform="translate(1552.136719 0)"/>
     <use xlink:href="#DejaVuSans-65" transform="translate(1615.613281 0)"/>
     <use xlink:href="#DejaVuSans-20" transform="translate(1677.136719 0)"/>
     <use xlink:href="#DejaVuSans-3d" transform="translate(1708.923828 0)"/>
     <use xlink:href="#DejaVuSans-20" transform="translate(1792.712891 0)"/>
     <use xlink:href="#DejaVuSans-53" transform="translate(1824.5 0)"/>
     <use xlink:href="#DejaVuSans-65" transform="translate(1887.976562 0)"/>
     <use xlink:href="#DejaVuSans-71" transform="translate(1949.5 0)"/>
     <use xlink:href="#DejaVuSans-75" transform="translate(2012.976562 0)"/>
     <use xlink:href="#DejaVuSans-65" transform="translate(2076.355469 0)"/>
     <use xlink:href="#DejaVuSans-6e" transform="translate(2137.878906 0)"/>
     <use xlink:href="#DejaVuSans-74" transform="translate(2201.257812 0)"/>
     <use xlink:href="#DejaVuSans-69" transform="translate(2240.466797 0)"/>
     <use xlink:href="#DejaVuSans-61" transform="translate(2268.25 0)"/>
     <use xlink:href="#DejaVuSans-6c" transform="translate(2329.529297 0)"/>
     <use xlink:href="#DejaVuSans-20" transform="translate(2357.3125 0)"/>
     <use xlink:href="#DejaVuSans-52" transform="translate(2389.099609 0)"/>
     <use xlink:href="#DejaVuSans-65" transform="translate(2454.082031 0)"/>
     <use xlink:href="#DejaVuSans-61" transform="translate(2515.605469 0)"/>
     <use xlink:href="#DejaVuSans-64" transform="translate(2576.884766 0)"/>
     <use xlink:href="#DejaVuSans-2d" transform="translate(2640.361328 0)"/>
     <use xlink:href="#DejaVuSans-68" transform="translate(2676.445312 0)"/>
     <use xlink:href="#DejaVuSans-65" transform="translate(2739.824219 0)"/>
     <use xlink:href="#DejaVuSans-61" transform="translate(2801.347656 0)"/>
     <use xlink:href="#DejaVuSans-76" transform="translate(2862.626953 0)"/>
     <use xlink:href="#DejaVuSans-79" transform="translate(2921.806641 0)"/>
     <use xlink:href="#DejaVuSans-20" transform="translate(2980.986328 0)"/>
     <use xlink:href="#DejaVuSans-34" transform="translate(3012.773438 0)"/>
     <use xlink:href="#DejaVuSans-3a" transform="translate(3076.396484 0)"/>
     <use xlink:href="#DejaVuSans-31" transform="translate(3110.087891 0)"/>
    </g>
   </g>
   <g id="text_21">
    <!-- Mean Latency vs Number of Jobs -->
    <g style="fill: #262626" transform="translate(111.685313 16.318125) scale(0.12 -0.12)">
     <defs>
      <path id="DejaVuSans-Bold-4d" d="M 588 4666 
L 2119 4666 
L 3181 2169 
L 4250 4666 
L 5778 4666 
L 5778 0 
L 4641 0 
L 4641 3413 
L 3566 897 
L 2803 897 
L 1728 3413 
L 1728 0 
L 588 0 
L 588 4666 
z
" transform="scale(0.015625)"/>
      <path id="DejaVuSans-Bold-65" d="M 4031 1759 
L 4031 1441 
L 1416 1441 
Q 1456 1047 1700 850 
Q 1944 653 2381 653 
Q 2734 653 3104 758 
Q 3475 863 3866 1075 
L 3866 213 
Q 3469 63 3072 -14 
Q 2675 -91 2278 -91 
Q 1328 -91 801 392 
Q 275 875 275 1747 
Q 275 2603 792 3093 
Q 1309 3584 2216 3584 
Q 3041 3584 3536 3087 
Q 4031 2591 4031 1759 
z
M 2881 2131 
Q 2881 2450 2695 2645 
Q 2509 2841 2209 2841 
Q 1884 2841 1681 2658 
Q 1478 2475 1428 2131 
L 2881 2131 
z
" transform="scale(0.015625)"/>
      <path id="DejaVuSans-Bold-61" d="M 2106 1575 
Q 1756 1575 1579 1456 
Q 1403 1338 1403 1106 
Q 1403 894 1545 773 
Q 1688 653 1941 653 
Q 2256 653 2472 879 
Q 2688 1106 2688 1447 
L 2688 1575 
L 2106 1575 
z
M 3816 1997 
L 3816 0 
L 2688 0 
L 2688 519 
Q 2463 200 2181 54 
Q 1900 -91 1497 -91 
Q 953 -91 614 226 
Q 275 544 275 1050 
Q 275 1666 698 1953 
Q 1122 2241 2028 2241 
L 2688 2241 
L 2688 2328 
Q 2688 2594 2478 2717 
Q 2269 2841 1825 2841 
Q 1466 2841 1156 2769 
Q 847 2697 581 2553 
L 581 3406 
Q 941 3494 1303 3539 
Q 1666 3584 2028 3584 
Q 2975 3584 3395 3211 
Q 3816 2838 3816 1997 
z
" transform="scale(0.015625)"/>
      <path id="DejaVuSans-Bold-6e" d="M 4056 2131 
L 4056 0 
L 2931 0 
L 2931 347 
L 2931 1631 
Q 2931 2084 2911 2256 
Q 2891 2428 2841 2509 
Q 2775 2619 2662 2680 
Q 2550 2741 2406 2741 
Q 2056 2741 1856 2470 
Q 1656 2200 1656 1722 
L 1656 0 
L 538 0 
L 538 3500 
L 1656 3500 
L 1656 2988 
Q 1909 3294 2193 3439 
Q 2478 3584 2822 3584 
Q 3428 3584 3742 3212 
Q 4056 2841 4056 2131 
z
" transform="scale(0.015625)"/>
      <path id="DejaVuSans-Bold-20" transform="scale(0.015625)"/>
      <path id="DejaVuSans-Bold-4c" d="M 588 4666 
L 1791 4666 
L 1791 909 
L 3903 909 
L 3903 0 
L 588 0 
L 588 4666 
z
" transform="scale(0.015625)"/>
      <path id="DejaVuSans-Bold-74" d="M 1759 4494 
L 1759 3500 
L 2913 3500 
L 2913 2700 
L 1759 2700 
L 1759 1216 
Q 1759 972 1856 886 
Q 1953 800 2241 800 
L 2816 800 
L 2816 0 
L 1856 0 
Q 1194 0 917 276 
Q 641 553 641 1216 
L 641 2700 
L 84 2700 
L 84 3500 
L 641 3500 
L 641 4494 
L 1759 4494 
z
" transform="scale(0.015625)"/>
      <path id="DejaVuSans-Bold-63" d="M 3366 3391 
L 3366 2478 
Q 3138 2634 2908 2709 
Q 2678 2784 2431 2784 
Q 1963 2784 1702 2511 
Q 1441 2238 1441 1747 
Q 1441 1256 1702 982 
Q 1963 709 2431 709 
Q 2694 709 2930 787 
Q 3166 866 3366 1019 
L 3366 103 
Q 3103 6 2833 -42 
Q 2563 -91 2291 -91 
Q 1344 -91 809 395 
Q 275 881 275 1747 
Q 275 2613 809 3098 
Q 1344 3584 2291 3584 
Q 2566 3584 2833 3536 
Q 3100 3488 3366 3391 
z
" transform="scale(0.015625)"/>
      <path id="DejaVuSans-Bold-79" d="M 78 3500 
L 1197 3500 
L 2138 1125 
L 2938 3500 
L 4056 3500 
L 2584 -331 
Q 2363 -916 2067 -1148 
Q 1772 -1381 1288 -1381 
L 641 -1381 
L 641 -647 
L 991 -647 
Q 1275 -647 1404 -556 
Q 1534 -466 1606 -231 
L 1638 -134 
L 78 3500 
z
" transform="scale(0.015625)"/>
      <path id="DejaVuSans-Bold-76" d="M 97 3500 
L 1216 3500 
L 2088 1081 
L 2956 3500 
L 4078 3500 
L 2700 0 
L 1472 0 
L 97 3500 
z
" transform="scale(0.015625)"/>
      <path id="DejaVuSans-Bold-73" d="M 3272 3391 
L 3272 2541 
Q 2913 2691 2578 2766 
Q 2244 2841 1947 2841 
Q 1628 2841 1473 2761 
Q 1319 2681 1319 2516 
Q 1319 2381 1436 2309 
Q 1553 2238 1856 2203 
L 2053 2175 
Q 2913 2066 3209 1816 
Q 3506 1566 3506 1031 
Q 3506 472 3093 190 
Q 2681 -91 1863 -91 
Q 1516 -91 1145 -36 
Q 775 19 384 128 
L 384 978 
Q 719 816 1070 734 
Q 1422 653 1784 653 
Q 2113 653 2278 743 
Q 2444 834 2444 1013 
Q 2444 1163 2330 1236 
Q 2216 1309 1875 1350 
L 1678 1375 
Q 931 1469 631 1722 
Q 331 1975 331 2491 
Q 331 3047 712 3315 
Q 1094 3584 1881 3584 
Q 2191 3584 2531 3537 
Q 2872 3491 3272 3391 
z
" transform="scale(0.015625)"/>
      <path id="DejaVuSans-Bold-4e" d="M 588 4666 
L 1931 4666 
L 3628 1466 
L 3628 4666 
L 4769 4666 
L 4769 0 
L 3425 0 
L 1728 3200 
L 1728 0 
L 588 0 
L 588 4666 
z
" transform="scale(0.015625)"/>
      <path id="DejaVuSans-Bold-75" d="M 500 1363 
L 500 3500 
L 1625 3500 
L 1625 3150 
Q 1625 2866 1622 2436 
Q 1619 2006 1619 1863 
Q 1619 1441 1641 1255 
Q 1663 1069 1716 984 
Q 1784 875 1895 815 
Q 2006 756 2150 756 
Q 2500 756 2700 1025 
Q 2900 1294 2900 1772 
L 2900 3500 
L 4019 3500 
L 4019 0 
L 2900 0 
L 2900 506 
Q 2647 200 2364 54 
Q 2081 -91 1741 -91 
Q 1134 -91 817 281 
Q 500 653 500 1363 
z
" transform="scale(0.015625)"/>
      <path id="DejaVuSans-Bold-6d" d="M 3781 2919 
Q 3994 3244 4286 3414 
Q 4578 3584 4928 3584 
Q 5531 3584 5847 3212 
Q 6163 2841 6163 2131 
L 6163 0 
L 5038 0 
L 5038 1825 
Q 5041 1866 5042 1909 
Q 5044 1953 5044 2034 
Q 5044 2406 4934 2573 
Q 4825 2741 4581 2741 
Q 4263 2741 4089 2478 
Q 3916 2216 3909 1719 
L 3909 0 
L 2784 0 
L 2784 1825 
Q 2784 2406 2684 2573 
Q 2584 2741 2328 2741 
Q 2006 2741 1831 2477 
Q 1656 2213 1656 1722 
L 1656 0 
L 531 0 
L 531 3500 
L 1656 3500 
L 1656 2988 
Q 1863 3284 2130 3434 
Q 2397 3584 2719 3584 
Q 3081 3584 3359 3409 
Q 3638 3234 3781 2919 
z
" transform="scale(0.015625)"/>
      <path id="DejaVuSans-Bold-62" d="M 2400 722 
Q 2759 722 2948 984 
Q 3138 1247 3138 1747 
Q 3138 2247 2948 2509 
Q 2759 2772 2400 2772 
Q 2041 2772 1848 2508 
Q 1656 2244 1656 1747 
Q 1656 1250 1848 986 
Q 2041 722 2400 722 
z
M 1656 2988 
Q 1888 3294 2169 3439 
Q 2450 3584 2816 3584 
Q 3463 3584 3878 3070 
Q 4294 2556 4294 1747 
Q 4294 938 3878 423 
Q 3463 -91 2816 -91 
Q 2450 -91 2169 54 
Q 1888 200 1656 506 
L 1656 0 
L 538 0 
L 538 4863 
L 1656 4863 
L 1656 2988 
z
" transform="scale(0.015625)"/>
      <path id="DejaVuSans-Bold-72" d="M 3138 2547 
Q 2991 2616 2845 2648 
Q 2700 2681 2553 2681 
Q 2122 2681 1889 2404 
Q 1656 2128 1656 1613 
L 1656 0 
L 538 0 
L 538 3500 
L 1656 3500 
L 1656 2925 
Q 1872 3269 2151 3426 
Q 2431 3584 2822 3584 
Q 2878 3584 2943 3579 
Q 3009 3575 3134 3559 
L 3138 2547 
z
" transform="scale(0.015625)"/>
      <path id="DejaVuSans-Bold-6f" d="M 2203 2784 
Q 1831 2784 1636 2517 
Q 1441 2250 1441 1747 
Q 1441 1244 1636 976 
Q 1831 709 2203 709 
Q 2569 709 2762 976 
Q 2956 1244 2956 1747 
Q 2956 2250 2762 2517 
Q 2569 2784 2203 2784 
z
M 2203 3584 
Q 3106 3584 3614 3096 
Q 4122 2609 4122 1747 
Q 4122 884 3614 396 
Q 3106 -91 2203 -91 
Q 1297 -91 786 396 
Q 275 884 275 1747 
Q 275 2609 786 3096 
Q 1297 3584 2203 3584 
z
" transform="scale(0.015625)"/>
      <path id="DejaVuSans-Bold-66" d="M 2841 4863 
L 2841 4128 
L 2222 4128 
Q 1984 4128 1890 4042 
Q 1797 3956 1797 3744 
L 1797 3500 
L 2753 3500 
L 2753 2700 
L 1797 2700 
L 1797 0 
L 678 0 
L 678 2700 
L 122 2700 
L 122 3500 
L 678 3500 
L 678 3744 
Q 678 4316 997 4589 
Q 1316 4863 1984 4863 
L 2841 4863 
z
" transform="scale(0.015625)"/>
      <path id="DejaVuSans-Bold-4a" d="M 588 4666 
L 1791 4666 
L 1791 453 
Q 1791 -419 1317 -850 
Q 844 -1281 -116 -1281 
L -359 -1281 
L -359 -372 
L -172 -372 
Q 203 -372 395 -162 
Q 588 47 588 453 
L 588 4666 
z
" transform="scale(0.015625)"/>
     </defs>
     <use xlink:href="#DejaVuSans-Bold-4d"/>
     <use xlink:href="#DejaVuSans-Bold-65" transform="translate(99.511719 0)"/>
     <use xlink:href="#DejaVuSans-Bold-61" transform="translate(167.333984 0)"/>
     <use xlink:href="#DejaVuSans-Bold-6e" transform="translate(234.814453 0)"/>
     <use xlink:href="#DejaVuSans-Bold-20" transform="translate(306.005859 0)"/>
     <use xlink:href="#DejaVuSans-Bold-4c" transform="translate(340.820312 0)"/>
     <use xlink:href="#DejaVuSans-Bold-61" transform="translate(404.541016 0)"/>
     <use xlink:href="#DejaVuSans-Bold-74" transform="translate(472.021484 0)"/>
     <use xlink:href="#DejaVuSans-Bold-65" transform="translate(519.824219 0)"/>
     <use xlink:href="#DejaVuSans-Bold-6e" transform="translate(587.646484 0)"/>
     <use xlink:href="#DejaVuSans-Bold-63" transform="translate(658.837891 0)"/>
     <use xlink:href="#DejaVuSans-Bold-79" transform="translate(718.115234 0)"/>
     <use xlink:href="#DejaVuSans-Bold-20" transform="translate(783.300781 0)"/>
     <use xlink:href="#DejaVuSans-Bold-76" transform="translate(818.115234 0)"/>
     <use xlink:href="#DejaVuSans-Bold-73" transform="translate(883.300781 0)"/>
     <use xlink:href="#DejaVuSans-Bold-20" transform="translate(942.822266 0)"/>
     <use xlink:href="#DejaVuSans-Bold-4e" transform="translate(977.636719 0)"/>
     <use xlink:href="#DejaVuSans-Bold-75" transform="translate(1061.328125 0)"/>
     <use xlink:href="#DejaVuSans-Bold-6d" transform="translate(1132.519531 0)"/>
     <use xlink:href="#DejaVuSans-Bold-62" transform="translate(1236.71875 0)"/>
     <use xlink:href="#DejaVuSans-Bold-65" transform="translate(1308.300781 0)"/>
     <use xlink:href="#DejaVuSans-Bold-72" transform="translate(1376.123047 0)"/>
     <use xlink:href="#DejaVuSans-Bold-20" transform="translate(1425.439453 0)"/>
     <use xlink:href="#DejaVuSans-Bold-6f" transform="translate(1460.253906 0)"/>
     <use xlink:href="#DejaVuSans-Bold-66" transform="translate(1528.955078 0)"/>
     <use xlink:href="#DejaVuSans-Bold-20" transform="translate(1572.460938 0)"/>
     <use xlink:href="#DejaVuSans-Bold-4a" transform="translate(1607.275391 0)"/>
     <use xlink:href="#DejaVuSans-Bold-6f" transform="translate(1644.482422 0)"/>
     <use xlink:href="#DejaVuSans-Bold-62" transform="translate(1713.183594 0)"/>
     <use xlink:href="#DejaVuSans-Bold-73" transform="translate(1784.765625 0)"/>
    </g>
   </g>
   <g id="legend_1">
    <g id="text_22">
     <!-- IO Depth -->
     <g style="fill: #262626" transform="translate(435.407813 120.065663) scale(0.1 -0.1)">
      <defs>
       <path id="DejaVuSans-49" d="M 628 4666 
L 1259 4666 
L 1259 0 
L 628 0 
L 628 4666 
z
" transform="scale(0.015625)"/>
       <path id="DejaVuSans-4f" d="M 2522 4238 
Q 1834 4238 1429 3725 
Q 1025 3213 1025 2328 
Q 1025 1447 1429 934 
Q 1834 422 2522 422 
Q 3209 422 3611 934 
Q 4013 1447 4013 2328 
Q 4013 3213 3611 3725 
Q 3209 4238 2522 4238 
z
M 2522 4750 
Q 3503 4750 4090 4092 
Q 4678 3434 4678 2328 
Q 4678 1225 4090 567 
Q 3503 -91 2522 -91 
Q 1538 -91 948 565 
Q 359 1222 359 2328 
Q 359 3434 948 4092 
Q 1538 4750 2522 4750 
z
" transform="scale(0.015625)"/>
       <path id="DejaVuSans-44" d="M 1259 4147 
L 1259 519 
L 2022 519 
Q 2988 519 3436 956 
Q 3884 1394 3884 2338 
Q 3884 3275 3436 3711 
Q 2988 4147 2022 4147 
L 1259 4147 
z
M 628 4666 
L 1925 4666 
Q 3281 4666 3915 4102 
Q 4550 3538 4550 2338 
Q 4550 1131 3912 565 
Q 3275 0 1925 0 
L 628 0 
L 628 4666 
z
" transform="scale(0.015625)"/>
      </defs>
      <use xlink:href="#DejaVuSans-49"/>
      <use xlink:href="#DejaVuSans-4f" transform="translate(29.492188 0)"/>
      <use xlink:href="#DejaVuSans-20" transform="translate(108.203125 0)"/>
      <use xlink:href="#DejaVuSans-44" transform="translate(139.990234 0)"/>
      <use xlink:href="#DejaVuSans-65" transform="translate(216.992188 0)"/>
      <use xlink:href="#DejaVuSans-70" transform="translate(278.515625 0)"/>
      <use xlink:href="#DejaVuSans-74" transform="translate(341.992188 0)"/>
      <use xlink:href="#DejaVuSans-68" transform="translate(381.201172 0)"/>
     </g>
    </g>
    <g id="line2d_24">
     <path d="M 434.09375 131.243787 
L 444.09375 131.243787 
L 454.09375 131.243787 
" style="fill: none; stroke: #4c02a1; stroke-width: 1.5; stroke-linecap: round"/>
    </g>
    <g id="text_23">
     <!-- 1 -->
     <g style="fill: #262626" transform="translate(462.09375 134.743787) scale(0.1 -0.1)">
      <use xlink:href="#DejaVuSans-31"/>
     </g>
    </g>
    <g id="line2d_25">
     <path d="M 434.09375 145.921913 
L 444.09375 145.921913 
L 454.09375 145.921913 
" style="fill: none; stroke: #7e03a8; stroke-width: 1.5; stroke-linecap: round"/>
    </g>
    <g id="text_24">
     <!-- 4 -->
     <g style="fill: #262626" transform="translate(462.09375 149.421913) scale(0.1 -0.1)">
      <use xlink:href="#DejaVuSans-34"/>
     </g>
    </g>
    <g id="line2d_26">
     <path d="M 434.09375 160.600037 
L 444.09375 160.600037 
L 454.09375 160.600037 
" style="fill: none; stroke: #aa2395; stroke-width: 1.5; stroke-linecap: round"/>
    </g>
    <g id="text_25">
     <!-- 8 -->
     <g style="fill: #262626" transform="translate(462.09375 164.100037) scale(0.1 -0.1)">
      <use xlink:href="#DejaVuSans-38"/>
     </g>
    </g>
    <g id="line2d_27">
     <path d="M 434.09375 175.278163 
L 444.09375 175.278163 
L 454.09375 175.278163 
" style="fill: none; stroke: #cc4778; stroke-width: 1.5; stroke-linecap: round"/>
    </g>
    <g id="text_26">
     <!-- 16 -->
     <g style="fill: #262626" transform="translate(462.09375 178.778163) scale(0.1 -0.1)">
      <use xlink:href="#DejaVuSans-31"/>
      <use xlink:href="#DejaVuSans-36" transform="translate(63.623047 0)"/>
     </g>
    </g>
    <g id="line2d_28">
     <path d="M 434.09375 189.956288 
L 444.09375 189.956288 
L 454.09375 189.956288 
" style="fill: none; stroke: #e66c5c; stroke-width: 1.5; stroke-linecap: round"/>
    </g>
    <g id="text_27">
     <!-- 32 -->
     <g style="fill: #262626" transform="translate(462.09375 193.456288) scale(0.1 -0.1)">
      <use xlink:href="#DejaVuSans-33"/>
      <use xlink:href="#DejaVuSans-32" transform="translate(63.623047 0)"/>
     </g>
    </g>
    <g id="line2d_29">
     <path d="M 434.09375 204.634412 
L 444.09375 204.634412 
L 454.09375 204.634412 
" style="fill: none; stroke: #f89540; stroke-width: 1.5; stroke-linecap: round"/>
    </g>
    <g id="text_28">
     <!-- 64 -->
     <g style="fill: #262626" transform="translate(462.09375 208.134412) scale(0.1 -0.1)">
      <use xlink:href="#DejaVuSans-36"/>
      <use xlink:href="#DejaVuSans-34" transform="translate(63.623047 0)"/>
     </g>
    </g>
    <g id="line2d_30">
     <path d="M 434.09375 219.312537 
L 444.09375 219.312537 
L 454.09375 219.312537 
" style="fill: none; stroke: #fdc527; stroke-width: 1.5; stroke-linecap: round"/>
    </g>
    <g id="text_29">
     <!-- 128 -->
     <g style="fill: #262626" transform="translate(462.09375 222.812537) scale(0.1 -0.1)">
      <use xlink:href="#DejaVuSans-31"/>
      <use xlink:href="#DejaVuSans-32" transform="translate(63.623047 0)"/>
      <use xlink:href="#DejaVuSans-38" transform="translate(127.246094 0)"/>
     </g>
    </g>
   </g>
  </g>
 </g>
 <defs>
  <clipPath id="p23279d2f82">
   <rect x="43.78125" y="35.623725" width="357.12" height="266.112"/>
  </clipPath>
 </defs>
</svg>
