<?xml version="1.0" encoding="utf-8" standalone="no"?>
<!DOCTYPE svg PUBLIC "-//W3C//DTD SVG 1.1//EN"
  "http://www.w3.org/Graphics/SVG/1.1/DTD/svg11.dtd">
<svg xmlns:xlink="http://www.w3.org/1999/xlink" width="492.38125pt" height="339.291975pt" viewBox="0 0 492.38125 339.291975" xmlns="http://www.w3.org/2000/svg" version="1.1">
 <metadata>
  <rdf:RDF xmlns:dc="http://purl.org/dc/elements/1.1/" xmlns:cc="http://creativecommons.org/ns#" xmlns:rdf="http://www.w3.org/1999/02/22-rdf-syntax-ns#">
   <cc:Work>
    <dc:type rdf:resource="http://purl.org/dc/dcmitype/StillImage"/>
    <dc:date>2025-09-11T11:47:30.158295</dc:date>
    <dc:format>image/svg+xml</dc:format>
    <dc:creator>
     <cc:Agent>
      <dc:title>Matplotlib v3.10.6, https://matplotlib.org/</dc:title>
     </cc:Agent>
    </dc:creator>
   </cc:Work>
  </rdf:RDF>
 </metadata>
 <defs>
  <style type="text/css">*{stroke-linejoin: round; stroke-linecap: butt}</style>
 </defs>
 <g id="figure_1">
  <g id="patch_1">
   <path d="M 0 339.291975 
L 492.38125 339.291975 
L 492.38125 0 
L 0 0 
z
" style="fill: #ffffff"/>
  </g>
  <g id="axes_1">
   <g id="patch_2">
    <path d="M 43.78125 301.735725 
L 400.90125 301.735725 
L 400.90125 35.623725 
L 43.78125 35.623725 
z
" style="fill: #ffffff"/>
   </g>
   <g id="matplotlib.axis_1">
    <g id="xtick_1">
     <g id="line2d_1">
      <path d="M 384.668523 301.735725 
L 384.668523 35.623725 
" clip-path="url(#pac0f373f2f)" style="fill: none; stroke: #cccccc; stroke-width: 0.8; stroke-linecap: round"/>
     </g>
     <g id="text_1">
      <!-- 128 -->
      <g style="fill: #262626" transform="translate(375.124773 316.334162) scale(0.1 -0.1)">
       <defs>
        <path id="DejaVuSans-31" d="M 794 531 
L 1825 531 
L 1825 4091 
L 703 3866 
L 703 4441 
L 1819 4666 
L 2450 4666 
L 2450 531 
L 3481 531 
L 3481 0 
L 794 0 
L 794 531 
z
" transform="scale(0.015625)"/>
        <path id="DejaVuSans-32" d="M 1228 531 
L 3431 531 
L 3431 0 
L 469 0 
L 469 531 
Q 828 903 1448 1529 
Q 2069 2156 2228 2338 
Q 2531 2678 2651 2914 
Q 2772 3150 2772 3378 
Q 2772 3750 2511 3984 
Q 2250 4219 1831 4219 
Q 1534 4219 1204 4116 
Q 875 4013 500 3803 
L 500 4441 
Q 881 4594 1212 4672 
Q 1544 4750 1819 4750 
Q 2544 4750 2975 4387 
Q 3406 4025 3406 3419 
Q 3406 3131 3298 2873 
Q 3191 2616 2906 2266 
Q 2828 2175 2409 1742 
Q 1991 1309 1228 531 
z
" transform="scale(0.015625)"/>
        <path id="DejaVuSans-38" d="M 2034 2216 
Q 1584 2216 1326 1975 
Q 1069 1734 1069 1313 
Q 1069 891 1326 650 
Q 1584 409 2034 409 
Q 2484 409 2743 651 
Q 3003 894 3003 1313 
Q 3003 1734 2745 1975 
Q 2488 2216 2034 2216 
z
M 1403 2484 
Q 997 2584 770 2862 
Q 544 3141 544 3541 
Q 544 4100 942 4425 
Q 1341 4750 2034 4750 
Q 2731 4750 3128 4425 
Q 3525 4100 3525 3541 
Q 3525 3141 3298 2862 
Q 3072 2584 2669 2484 
Q 3125 2378 3379 2068 
Q 3634 1759 3634 1313 
Q 3634 634 3220 271 
Q 2806 -91 2034 -91 
Q 1263 -91 848 271 
Q 434 634 434 1313 
Q 434 1759 690 2068 
Q 947 2378 1403 2484 
z
M 1172 3481 
Q 1172 3119 1398 2916 
Q 1625 2713 2034 2713 
Q 2441 2713 2670 2916 
Q 2900 3119 2900 3481 
Q 2900 3844 2670 4047 
Q 2441 4250 2034 4250 
Q 1625 4250 1398 4047 
Q 1172 3844 1172 3481 
z
" transform="scale(0.015625)"/>
       </defs>
       <use xlink:href="#DejaVuSans-31"/>
       <use xlink:href="#DejaVuSans-32" transform="translate(63.623047 0)"/>
       <use xlink:href="#DejaVuSans-38" transform="translate(127.246094 0)"/>
      </g>
     </g>
    </g>
    <g id="xtick_2">
     <g id="line2d_2">
      <path d="M 60.013977 301.735725 
L 60.013977 35.623725 
" clip-path="url(#pac0f373f2f)" style="fill: none; stroke: #cccccc; stroke-width: 0.8; stroke-linecap: round"/>
     </g>
     <g id="text_2">
      <!-- 16 -->
      <g style="fill: #262626" transform="translate(53.651477 316.334162) scale(0.1 -0.1)">
       <defs>
        <path id="DejaVuSans-36" d="M 2113 2584 
Q 1688 2584 1439 2293 
Q 1191 2003 1191 1497 
Q 1191 994 1439 701 
Q 1688 409 2113 409 
Q 2538 409 2786 701 
Q 3034 994 3034 1497 
Q 3034 2003 2786 2293 
Q 2538 2584 2113 2584 
z
M 3366 4563 
L 3366 3988 
Q 3128 4100 2886 4159 
Q 2644 4219 2406 4219 
Q 1781 4219 1451 3797 
Q 1122 3375 1075 2522 
Q 1259 2794 1537 2939 
Q 1816 3084 2150 3084 
Q 2853 3084 3261 2657 
Q 3669 2231 3669 1497 
Q 3669 778 3244 343 
Q 2819 -91 2113 -91 
Q 1303 -91 875 529 
Q 447 1150 447 2328 
Q 447 3434 972 4092 
Q 1497 4750 2381 4750 
Q 2619 4750 2861 4703 
Q 3103 4656 3366 4563 
z
" transform="scale(0.015625)"/>
       </defs>
       <use xlink:href="#DejaVuSans-31"/>
       <use xlink:href="#DejaVuSans-36" transform="translate(63.623047 0)"/>
      </g>
     </g>
    </g>
    <g id="xtick_3">
     <g id="line2d_3">
      <path d="M 199.15164 301.735725 
L 199.15164 35.623725 
" clip-path="url(#pac0f373f2f)" style="fill: none; stroke: #cccccc; stroke-width: 0.8; stroke-linecap: round"/>
     </g>
     <g id="text_3">
      <!-- 64 -->
      <g style="fill: #262626" transform="translate(192.78914 316.334162) scale(0.1 -0.1)">
       <defs>
        <path id="DejaVuSans-34" d="M 2419 4116 
L 825 1625 
L 2419 1625 
L 2419 4116 
z
M 2253 4666 
L 3047 4666 
L 3047 1625 
L 3713 1625 
L 3713 1100 
L 3047 1100 
L 3047 0 
L 2419 0 
L 2419 1100 
L 313 1100 
L 313 1709 
L 2253 4666 
z
" transform="scale(0.015625)"/>
       </defs>
       <use xlink:href="#DejaVuSans-36"/>
       <use xlink:href="#DejaVuSans-34" transform="translate(63.623047 0)"/>
      </g>
     </g>
    </g>
    <g id="xtick_4">
     <g id="line2d_4">
      <path d="M 106.393198 301.735725 
L 106.393198 35.623725 
" clip-path="url(#pac0f373f2f)" style="fill: none; stroke: #cccccc; stroke-width: 0.8; stroke-linecap: round"/>
     </g>
     <g id="text_4">
      <!-- 32 -->
      <g style="fill: #262626" transform="translate(100.030698 316.334162) scale(0.1 -0.1)">
       <defs>
        <path id="DejaVuSans-33" d="M 2597 2516 
Q 3050 2419 3304 2112 
Q 3559 1806 3559 1356 
Q 3559 666 3084 287 
Q 2609 -91 1734 -91 
Q 1441 -91 1130 -33 
Q 819 25 488 141 
L 488 750 
Q 750 597 1062 519 
Q 1375 441 1716 441 
Q 2309 441 2620 675 
Q 2931 909 2931 1356 
Q 2931 1769 2642 2001 
Q 2353 2234 1838 2234 
L 1294 2234 
L 1294 2753 
L 1863 2753 
Q 2328 2753 2575 2939 
Q 2822 3125 2822 3475 
Q 2822 3834 2567 4026 
Q 2313 4219 1838 4219 
Q 1578 4219 1281 4162 
Q 984 4106 628 3988 
L 628 4550 
Q 988 4650 1302 4700 
Q 1616 4750 1894 4750 
Q 2613 4750 3031 4423 
Q 3450 4097 3450 3541 
Q 3450 3153 3228 2886 
Q 3006 2619 2597 2516 
z
" transform="scale(0.015625)"/>
       </defs>
       <use xlink:href="#DejaVuSans-33"/>
       <use xlink:href="#DejaVuSans-32" transform="translate(63.623047 0)"/>
      </g>
     </g>
    </g>
    <g id="text_5">
     <!-- Number of Jobs -->
     <g style="fill: #262626" transform="translate(183.944375 330.012287) scale(0.1 -0.1)">
      <defs>
       <path id="DejaVuSans-4e" d="M 628 4666 
L 1478 4666 
L 3547 763 
L 3547 4666 
L 4159 4666 
L 4159 0 
L 3309 0 
L 1241 3903 
L 1241 0 
L 628 0 
L 628 4666 
z
" transform="scale(0.015625)"/>
       <path id="DejaVuSans-75" d="M 544 1381 
L 544 3500 
L 1119 3500 
L 1119 1403 
Q 1119 906 1312 657 
Q 1506 409 1894 409 
Q 2359 409 2629 706 
Q 2900 1003 2900 1516 
L 2900 3500 
L 3475 3500 
L 3475 0 
L 2900 0 
L 2900 538 
Q 2691 219 2414 64 
Q 2138 -91 1772 -91 
Q 1169 -91 856 284 
Q 544 659 544 1381 
z
M 1991 3584 
L 1991 3584 
z
" transform="scale(0.015625)"/>
       <path id="DejaVuSans-6d" d="M 3328 2828 
Q 3544 3216 3844 3400 
Q 4144 3584 4550 3584 
Q 5097 3584 5394 3201 
Q 5691 2819 5691 2113 
L 5691 0 
L 5113 0 
L 5113 2094 
Q 5113 2597 4934 2840 
Q 4756 3084 4391 3084 
Q 3944 3084 3684 2787 
Q 3425 2491 3425 1978 
L 3425 0 
L 2847 0 
L 2847 2094 
Q 2847 2600 2669 2842 
Q 2491 3084 2119 3084 
Q 1678 3084 1418 2786 
Q 1159 2488 1159 1978 
L 1159 0 
L 581 0 
L 581 3500 
L 1159 3500 
L 1159 2956 
Q 1356 3278 1631 3431 
Q 1906 3584 2284 3584 
Q 2666 3584 2933 3390 
Q 3200 3197 3328 2828 
z
" transform="scale(0.015625)"/>
       <path id="DejaVuSans-62" d="M 3116 1747 
Q 3116 2381 2855 2742 
Q 2594 3103 2138 3103 
Q 1681 3103 1420 2742 
Q 1159 2381 1159 1747 
Q 1159 1113 1420 752 
Q 1681 391 2138 391 
Q 2594 391 2855 752 
Q 3116 1113 3116 1747 
z
M 1159 2969 
Q 1341 3281 1617 3432 
Q 1894 3584 2278 3584 
Q 2916 3584 3314 3078 
Q 3713 2572 3713 1747 
Q 3713 922 3314 415 
Q 2916 -91 2278 -91 
Q 1894 -91 1617 61 
Q 1341 213 1159 525 
L 1159 0 
L 581 0 
L 581 4863 
L 1159 4863 
L 1159 2969 
z
" transform="scale(0.015625)"/>
       <path id="DejaVuSans-65" d="M 3597 1894 
L 3597 1613 
L 953 1613 
Q 991 1019 1311 708 
Q 1631 397 2203 397 
Q 2534 397 2845 478 
Q 3156 559 3463 722 
L 3463 178 
Q 3153 47 2828 -22 
Q 2503 -91 2169 -91 
Q 1331 -91 842 396 
Q 353 884 353 1716 
Q 353 2575 817 3079 
Q 1281 3584 2069 3584 
Q 2775 3584 3186 3129 
Q 3597 2675 3597 1894 
z
M 3022 2063 
Q 3016 2534 2758 2815 
Q 2500 3097 2075 3097 
Q 1594 3097 1305 2825 
Q 1016 2553 972 2059 
L 3022 2063 
z
" transform="scale(0.015625)"/>
       <path id="DejaVuSans-72" d="M 2631 2963 
Q 2534 3019 2420 3045 
Q 2306 3072 2169 3072 
Q 1681 3072 1420 2755 
Q 1159 2438 1159 1844 
L 1159 0 
L 581 0 
L 581 3500 
L 1159 3500 
L 1159 2956 
Q 1341 3275 1631 3429 
Q 1922 3584 2338 3584 
Q 2397 3584 2469 3576 
Q 2541 3569 2628 3553 
L 2631 2963 
z
" transform="scale(0.015625)"/>
       <path id="DejaVuSans-20" transform="scale(0.015625)"/>
       <path id="DejaVuSans-6f" d="M 1959 3097 
Q 1497 3097 1228 2736 
Q 959 2375 959 1747 
Q 959 1119 1226 758 
Q 1494 397 1959 397 
Q 2419 397 2687 759 
Q 2956 1122 2956 1747 
Q 2956 2369 2687 2733 
Q 2419 3097 1959 3097 
z
M 1959 3584 
Q 2709 3584 3137 3096 
Q 3566 2609 3566 1747 
Q 3566 888 3137 398 
Q 2709 -91 1959 -91 
Q 1206 -91 779 398 
Q 353 888 353 1747 
Q 353 2609 779 3096 
Q 1206 3584 1959 3584 
z
" transform="scale(0.015625)"/>
       <path id="DejaVuSans-66" d="M 2375 4863 
L 2375 4384 
L 1825 4384 
Q 1516 4384 1395 4259 
Q 1275 4134 1275 3809 
L 1275 3500 
L 2222 3500 
L 2222 3053 
L 1275 3053 
L 1275 0 
L 697 0 
L 697 3053 
L 147 3053 
L 147 3500 
L 697 3500 
L 697 3744 
Q 697 4328 969 4595 
Q 1241 4863 1831 4863 
L 2375 4863 
z
" transform="scale(0.015625)"/>
       <path id="DejaVuSans-4a" d="M 628 4666 
L 1259 4666 
L 1259 325 
Q 1259 -519 939 -900 
Q 619 -1281 -91 -1281 
L -331 -1281 
L -331 -750 
L -134 -750 
Q 284 -750 456 -515 
Q 628 -281 628 325 
L 628 4666 
z
" transform="scale(0.015625)"/>
       <path id="DejaVuSans-73" d="M 2834 3397 
L 2834 2853 
Q 2591 2978 2328 3040 
Q 2066 3103 1784 3103 
Q 1356 3103 1142 2972 
Q 928 2841 928 2578 
Q 928 2378 1081 2264 
Q 1234 2150 1697 2047 
L 1894 2003 
Q 2506 1872 2764 1633 
Q 3022 1394 3022 966 
Q 3022 478 2636 193 
Q 2250 -91 1575 -91 
Q 1294 -91 989 -36 
Q 684 19 347 128 
L 347 722 
Q 666 556 975 473 
Q 1284 391 1588 391 
Q 1994 391 2212 530 
Q 2431 669 2431 922 
Q 2431 1156 2273 1281 
Q 2116 1406 1581 1522 
L 1381 1569 
Q 847 1681 609 1914 
Q 372 2147 372 2553 
Q 372 3047 722 3315 
Q 1072 3584 1716 3584 
Q 2034 3584 2315 3537 
Q 2597 3491 2834 3397 
z
" transform="scale(0.015625)"/>
      </defs>
      <use xlink:href="#DejaVuSans-4e"/>
      <use xlink:href="#DejaVuSans-75" transform="translate(74.804688 0)"/>
      <use xlink:href="#DejaVuSans-6d" transform="translate(138.183594 0)"/>
      <use xlink:href="#DejaVuSans-62" transform="translate(235.595703 0)"/>
      <use xlink:href="#DejaVuSans-65" transform="translate(299.072266 0)"/>
      <use xlink:href="#DejaVuSans-72" transform="translate(360.595703 0)"/>
      <use xlink:href="#DejaVuSans-20" transform="translate(401.708984 0)"/>
      <use xlink:href="#DejaVuSans-6f" transform="translate(433.496094 0)"/>
      <use xlink:href="#DejaVuSans-66" transform="translate(494.677734 0)"/>
      <use xlink:href="#DejaVuSans-20" transform="translate(529.882812 0)"/>
      <use xlink:href="#DejaVuSans-4a" transform="translate(561.669922 0)"/>
      <use xlink:href="#DejaVuSans-6f" transform="translate(591.162109 0)"/>
      <use xlink:href="#DejaVuSans-62" transform="translate(652.34375 0)"/>
      <use xlink:href="#DejaVuSans-73" transform="translate(715.820312 0)"/>
     </g>
    </g>
   </g>
   <g id="matplotlib.axis_2">
    <g id="ytick_1">
     <g id="line2d_5">
      <path d="M 43.78125 272.88831 
L 400.90125 272.88831 
" clip-path="url(#pac0f373f2f)" style="fill: none; stroke: #cccccc; stroke-width: 0.8; stroke-linecap: round"/>
     </g>
     <g id="text_6">
      <!-- 0.5 -->
      <g style="fill: #262626" transform="translate(20.878125 276.687529) scale(0.1 -0.1)">
       <defs>
        <path id="DejaVuSans-30" d="M 2034 4250 
Q 1547 4250 1301 3770 
Q 1056 3291 1056 2328 
Q 1056 1369 1301 889 
Q 1547 409 2034 409 
Q 2525 409 2770 889 
Q 3016 1369 3016 2328 
Q 3016 3291 2770 3770 
Q 2525 4250 2034 4250 
z
M 2034 4750 
Q 2819 4750 3233 4129 
Q 3647 3509 3647 2328 
Q 3647 1150 3233 529 
Q 2819 -91 2034 -91 
Q 1250 -91 836 529 
Q 422 1150 422 2328 
Q 422 3509 836 4129 
Q 1250 4750 2034 4750 
z
" transform="scale(0.015625)"/>
        <path id="DejaVuSans-2e" d="M 684 794 
L 1344 794 
L 1344 0 
L 684 0 
L 684 794 
z
" transform="scale(0.015625)"/>
        <path id="DejaVuSans-35" d="M 691 4666 
L 3169 4666 
L 3169 4134 
L 1269 4134 
L 1269 2991 
Q 1406 3038 1543 3061 
Q 1681 3084 1819 3084 
Q 2600 3084 3056 2656 
Q 3513 2228 3513 1497 
Q 3513 744 3044 326 
Q 2575 -91 1722 -91 
Q 1428 -91 1123 -41 
Q 819 9 494 109 
L 494 744 
Q 775 591 1075 516 
Q 1375 441 1709 441 
Q 2250 441 2565 725 
Q 2881 1009 2881 1497 
Q 2881 1984 2565 2268 
Q 2250 2553 1709 2553 
Q 1456 2553 1204 2497 
Q 953 2441 691 2322 
L 691 4666 
z
" transform="scale(0.015625)"/>
       </defs>
       <use xlink:href="#DejaVuSans-30"/>
       <use xlink:href="#DejaVuSans-2e" transform="translate(63.623047 0)"/>
       <use xlink:href="#DejaVuSans-35" transform="translate(95.410156 0)"/>
      </g>
     </g>
    </g>
    <g id="ytick_2">
     <g id="line2d_6">
      <path d="M 43.78125 228.489927 
L 400.90125 228.489927 
" clip-path="url(#pac0f373f2f)" style="fill: none; stroke: #cccccc; stroke-width: 0.8; stroke-linecap: round"/>
     </g>
     <g id="text_7">
      <!-- 1.0 -->
      <g style="fill: #262626" transform="translate(20.878125 232.289145) scale(0.1 -0.1)">
       <use xlink:href="#DejaVuSans-31"/>
       <use xlink:href="#DejaVuSans-2e" transform="translate(63.623047 0)"/>
       <use xlink:href="#DejaVuSans-30" transform="translate(95.410156 0)"/>
      </g>
     </g>
    </g>
    <g id="ytick_3">
     <g id="line2d_7">
      <path d="M 43.78125 184.091543 
L 400.90125 184.091543 
" clip-path="url(#pac0f373f2f)" style="fill: none; stroke: #cccccc; stroke-width: 0.8; stroke-linecap: round"/>
     </g>
     <g id="text_8">
      <!-- 1.5 -->
      <g style="fill: #262626" transform="translate(20.878125 187.890762) scale(0.1 -0.1)">
       <use xlink:href="#DejaVuSans-31"/>
       <use xlink:href="#DejaVuSans-2e" transform="translate(63.623047 0)"/>
       <use xlink:href="#DejaVuSans-35" transform="translate(95.410156 0)"/>
      </g>
     </g>
    </g>
    <g id="ytick_4">
     <g id="line2d_8">
      <path d="M 43.78125 139.69316 
L 400.90125 139.69316 
" clip-path="url(#pac0f373f2f)" style="fill: none; stroke: #cccccc; stroke-width: 0.8; stroke-linecap: round"/>
     </g>
     <g id="text_9">
      <!-- 2.0 -->
      <g style="fill: #262626" transform="translate(20.878125 143.492378) scale(0.1 -0.1)">
       <use xlink:href="#DejaVuSans-32"/>
       <use xlink:href="#DejaVuSans-2e" transform="translate(63.623047 0)"/>
       <use xlink:href="#DejaVuSans-30" transform="translate(95.410156 0)"/>
      </g>
     </g>
    </g>
    <g id="ytick_5">
     <g id="line2d_9">
      <path d="M 43.78125 95.294776 
L 400.90125 95.294776 
" clip-path="url(#pac0f373f2f)" style="fill: none; stroke: #cccccc; stroke-width: 0.8; stroke-linecap: round"/>
     </g>
     <g id="text_10">
      <!-- 2.5 -->
      <g style="fill: #262626" transform="translate(20.878125 99.093995) scale(0.1 -0.1)">
       <use xlink:href="#DejaVuSans-32"/>
       <use xlink:href="#DejaVuSans-2e" transform="translate(63.623047 0)"/>
       <use xlink:href="#DejaVuSans-35" transform="translate(95.410156 0)"/>
      </g>
     </g>
    </g>
    <g id="ytick_6">
     <g id="line2d_10">
      <path d="M 43.78125 50.896393 
L 400.90125 50.896393 
" clip-path="url(#pac0f373f2f)" style="fill: none; stroke: #cccccc; stroke-width: 0.8; stroke-linecap: round"/>
     </g>
     <g id="text_11">
      <!-- 3.0 -->
      <g style="fill: #262626" transform="translate(20.878125 54.695611) scale(0.1 -0.1)">
       <use xlink:href="#DejaVuSans-33"/>
       <use xlink:href="#DejaVuSans-2e" transform="translate(63.623047 0)"/>
       <use xlink:href="#DejaVuSans-30" transform="translate(95.410156 0)"/>
      </g>
     </g>
    </g>
    <g id="text_12">
     <!-- Mean Latency (ns) -->
     <g style="fill: #262626" transform="translate(14.798438 214.92035) rotate(-90) scale(0.1 -0.1)">
      <defs>
       <path id="DejaVuSans-4d" d="M 628 4666 
L 1569 4666 
L 2759 1491 
L 3956 4666 
L 4897 4666 
L 4897 0 
L 4281 0 
L 4281 4097 
L 3078 897 
L 2444 897 
L 1241 4097 
L 1241 0 
L 628 0 
L 628 4666 
z
" transform="scale(0.015625)"/>
       <path id="DejaVuSans-61" d="M 2194 1759 
Q 1497 1759 1228 1600 
Q 959 1441 959 1056 
Q 959 750 1161 570 
Q 1363 391 1709 391 
Q 2188 391 2477 730 
Q 2766 1069 2766 1631 
L 2766 1759 
L 2194 1759 
z
M 3341 1997 
L 3341 0 
L 2766 0 
L 2766 531 
Q 2569 213 2275 61 
Q 1981 -91 1556 -91 
Q 1019 -91 701 211 
Q 384 513 384 1019 
Q 384 1609 779 1909 
Q 1175 2209 1959 2209 
L 2766 2209 
L 2766 2266 
Q 2766 2663 2505 2880 
Q 2244 3097 1772 3097 
Q 1472 3097 1187 3025 
Q 903 2953 641 2809 
L 641 3341 
Q 956 3463 1253 3523 
Q 1550 3584 1831 3584 
Q 2591 3584 2966 3190 
Q 3341 2797 3341 1997 
z
" transform="scale(0.015625)"/>
       <path id="DejaVuSans-6e" d="M 3513 2113 
L 3513 0 
L 2938 0 
L 2938 2094 
Q 2938 2591 2744 2837 
Q 2550 3084 2163 3084 
Q 1697 3084 1428 2787 
Q 1159 2491 1159 1978 
L 1159 0 
L 581 0 
L 581 3500 
L 1159 3500 
L 1159 2956 
Q 1366 3272 1645 3428 
Q 1925 3584 2291 3584 
Q 2894 3584 3203 3211 
Q 3513 2838 3513 2113 
z
" transform="scale(0.015625)"/>
       <path id="DejaVuSans-4c" d="M 628 4666 
L 1259 4666 
L 1259 531 
L 3531 531 
L 3531 0 
L 628 0 
L 628 4666 
z
" transform="scale(0.015625)"/>
       <path id="DejaVuSans-74" d="M 1172 4494 
L 1172 3500 
L 2356 3500 
L 2356 3053 
L 1172 3053 
L 1172 1153 
Q 1172 725 1289 603 
Q 1406 481 1766 481 
L 2356 481 
L 2356 0 
L 1766 0 
Q 1100 0 847 248 
Q 594 497 594 1153 
L 594 3053 
L 172 3053 
L 172 3500 
L 594 3500 
L 594 4494 
L 1172 4494 
z
" transform="scale(0.015625)"/>
       <path id="DejaVuSans-63" d="M 3122 3366 
L 3122 2828 
Q 2878 2963 2633 3030 
Q 2388 3097 2138 3097 
Q 1578 3097 1268 2742 
Q 959 2388 959 1747 
Q 959 1106 1268 751 
Q 1578 397 2138 397 
Q 2388 397 2633 464 
Q 2878 531 3122 666 
L 3122 134 
Q 2881 22 2623 -34 
Q 2366 -91 2075 -91 
Q 1284 -91 818 406 
Q 353 903 353 1747 
Q 353 2603 823 3093 
Q 1294 3584 2113 3584 
Q 2378 3584 2631 3529 
Q 2884 3475 3122 3366 
z
" transform="scale(0.015625)"/>
       <path id="DejaVuSans-79" d="M 2059 -325 
Q 1816 -950 1584 -1140 
Q 1353 -1331 966 -1331 
L 506 -1331 
L 506 -850 
L 844 -850 
Q 1081 -850 1212 -737 
Q 1344 -625 1503 -206 
L 1606 56 
L 191 3500 
L 800 3500 
L 1894 763 
L 2988 3500 
L 3597 3500 
L 2059 -325 
z
" transform="scale(0.015625)"/>
       <path id="DejaVuSans-28" d="M 1984 4856 
Q 1566 4138 1362 3434 
Q 1159 2731 1159 2009 
Q 1159 1288 1364 580 
Q 1569 -128 1984 -844 
L 1484 -844 
Q 1016 -109 783 600 
Q 550 1309 550 2009 
Q 550 2706 781 3412 
Q 1013 4119 1484 4856 
L 1984 4856 
z
" transform="scale(0.015625)"/>
       <path id="DejaVuSans-29" d="M 513 4856 
L 1013 4856 
Q 1481 4119 1714 3412 
Q 1947 2706 1947 2009 
Q 1947 1309 1714 600 
Q 1481 -109 1013 -844 
L 513 -844 
Q 928 -128 1133 580 
Q 1338 1288 1338 2009 
Q 1338 2731 1133 3434 
Q 928 4138 513 4856 
z
" transform="scale(0.015625)"/>
      </defs>
      <use xlink:href="#DejaVuSans-4d"/>
      <use xlink:href="#DejaVuSans-65" transform="translate(86.279297 0)"/>
      <use xlink:href="#DejaVuSans-61" transform="translate(147.802734 0)"/>
      <use xlink:href="#DejaVuSans-6e" transform="translate(209.082031 0)"/>
      <use xlink:href="#DejaVuSans-20" transform="translate(272.460938 0)"/>
      <use xlink:href="#DejaVuSans-4c" transform="translate(304.248047 0)"/>
      <use xlink:href="#DejaVuSans-61" transform="translate(359.960938 0)"/>
      <use xlink:href="#DejaVuSans-74" transform="translate(421.240234 0)"/>
      <use xlink:href="#DejaVuSans-65" transform="translate(460.449219 0)"/>
      <use xlink:href="#DejaVuSans-6e" transform="translate(521.972656 0)"/>
      <use xlink:href="#DejaVuSans-63" transform="translate(585.351562 0)"/>
      <use xlink:href="#DejaVuSans-79" transform="translate(640.332031 0)"/>
      <use xlink:href="#DejaVuSans-20" transform="translate(699.511719 0)"/>
      <use xlink:href="#DejaVuSans-28" transform="translate(731.298828 0)"/>
      <use xlink:href="#DejaVuSans-6e" transform="translate(770.3125 0)"/>
      <use xlink:href="#DejaVuSans-73" transform="translate(833.691406 0)"/>
      <use xlink:href="#DejaVuSans-29" transform="translate(885.791016 0)"/>
     </g>
    </g>
    <g id="text_13">
     <!-- 1e6 -->
     <g style="fill: #262626" transform="translate(43.78125 32.623725) scale(0.1 -0.1)">
      <use xlink:href="#DejaVuSans-31"/>
      <use xlink:href="#DejaVuSans-65" transform="translate(63.623047 0)"/>
      <use xlink:href="#DejaVuSans-36" transform="translate(125.146484 0)"/>
     </g>
    </g>
   </g>
   <g id="FillBetweenPolyCollection_1"/>
   <g id="FillBetweenPolyCollection_2"/>
   <g id="FillBetweenPolyCollection_3"/>
   <g id="FillBetweenPolyCollection_4"/>
   <g id="FillBetweenPolyCollection_5"/>
   <g id="FillBetweenPolyCollection_6"/>
   <g id="FillBetweenPolyCollection_7"/>
   <g id="line2d_11">
    <path d="M 60.013977 286.957502 
L 106.393198 253.010517 
L 199.15164 191.672369 
L 384.668523 47.97458 
" clip-path="url(#pac0f373f2f)" style="fill: none; stroke: #4c02a1; stroke-width: 1.5; stroke-linecap: round"/>
   </g>
   <g id="line2d_12">
    <path d="M 60.013977 274.141049 
L 106.393198 244.363057 
L 199.15164 191.906713 
L 384.668523 63.862043 
" clip-path="url(#pac0f373f2f)" style="fill: none; stroke: #7e03a8; stroke-width: 1.5; stroke-linecap: round"/>
   </g>
   <g id="line2d_13">
    <path d="M 60.013977 283.26515 
L 106.393198 252.101176 
L 199.15164 183.432722 
L 384.668523 47.719725 
" clip-path="url(#pac0f373f2f)" style="fill: none; stroke: #aa2395; stroke-width: 1.5; stroke-linecap: round"/>
   </g>
   <g id="line2d_14">
    <path d="M 60.013977 282.852653 
L 106.393198 252.780983 
L 199.15164 185.202421 
L 384.668523 50.918025 
" clip-path="url(#pac0f373f2f)" style="fill: none; stroke: #cc4778; stroke-width: 1.5; stroke-linecap: round"/>
   </g>
   <g id="line2d_15">
    <path d="M 60.013977 283.337001 
L 106.393198 252.981637 
L 199.15164 184.567114 
L 384.668523 69.605558 
" clip-path="url(#pac0f373f2f)" style="fill: none; stroke: #e66c5c; stroke-width: 1.5; stroke-linecap: round"/>
   </g>
   <g id="line2d_16">
    <path d="M 60.013977 285.853312 
L 106.393198 254.972306 
L 199.15164 189.921241 
L 384.668523 69.644753 
" clip-path="url(#pac0f373f2f)" style="fill: none; stroke: #f89540; stroke-width: 1.5; stroke-linecap: round"/>
   </g>
   <g id="line2d_17">
    <path d="M 60.013977 289.639725 
L 106.393198 252.678965 
L 199.15164 185.011435 
L 384.668523 67.67165 
" clip-path="url(#pac0f373f2f)" style="fill: none; stroke: #fdc527; stroke-width: 1.5; stroke-linecap: round"/>
   </g>
   <g id="line2d_18"/>
   <g id="line2d_19"/>
   <g id="line2d_20"/>
   <g id="line2d_21"/>
   <g id="line2d_22"/>
   <g id="line2d_23"/>
   <g id="line2d_24"/>
   <g id="text_14">
    <path d="M 101.387023 259.066123 
L 102.686952 258.114648 
L 99.401549 253.626048 
L 98.194528 254.945193 
L 97.66388 254.220208 
L 98.863335 252.9066 
L 99.658927 252.324272 
L 103.474979 257.537856 
L 104.774907 256.586382 
L 105.264949 257.255889 
L 101.877065 259.73563 
L 101.387023 259.066123 
z
" clip-path="url(#pac0f373f2f)" style="fill: #4c02a1; stroke: #ffffff; stroke-width: 5"/>
    <path d="M 101.387023 259.066123 
L 102.686952 258.114648 
L 99.401549 253.626048 
L 98.194528 254.945193 
L 97.66388 254.220208 
L 98.863335 252.9066 
L 99.658927 252.324272 
L 103.474979 257.537856 
L 104.774907 256.586382 
L 105.264949 257.255889 
L 101.877065 259.73563 
L 101.387023 259.066123 
z
" clip-path="url(#pac0f373f2f)" style="fill: #4c02a1"/>
   </g>
   <g id="text_15">
    <path d="M 140.702666 220.742163 
L 140.450642 225.356144 
L 142.618611 224.130124 
L 140.702666 220.742163 
z
M 140.053862 220.121797 
L 141.133766 219.511094 
L 143.472741 223.647099 
L 144.378555 223.134848 
L 144.782357 223.84889 
L 143.876543 224.361142 
L 144.722605 225.85723 
L 143.868474 226.340255 
L 143.022413 224.844166 
L 140.158083 226.463989 
L 139.689672 225.6357 
L 140.053862 220.121797 
z
" clip-path="url(#pac0f373f2f)" style="fill: #7e03a8; stroke: #ffffff; stroke-width: 5"/>
    <path d="M 140.702666 220.742163 
L 140.450642 225.356144 
L 142.618611 224.130124 
L 140.702666 220.742163 
z
M 140.053862 220.121797 
L 141.133766 219.511094 
L 143.472741 223.647099 
L 144.378555 223.134848 
L 144.782357 223.84889 
L 143.876543 224.361142 
L 144.722605 225.85723 
L 143.868474 226.340255 
L 143.022413 224.844166 
L 140.158083 226.463989 
L 139.689672 225.6357 
L 140.053862 220.121797 
z
" clip-path="url(#pac0f373f2f)" style="fill: #7e03a8"/>
   </g>
   <g id="text_16">
    <path d="M 181.744382 195.44437 
Q 181.17926 195.862726 181.07931 196.405238 
Q 180.980615 196.94682 181.372011 197.475523 
Q 181.764336 198.005482 182.311136 198.069208 
Q 182.859192 198.132005 183.424314 197.713649 
Q 183.989436 197.295293 184.089713 196.750596 
Q 184.190316 196.203713 183.80078 195.677521 
Q 183.409384 195.148818 182.861328 195.086022 
Q 182.314528 195.022295 181.744382 195.44437 
z
M 180.702801 195.694437 
Q 180.099968 195.946304 179.556444 195.808222 
Q 179.013246 195.667954 178.641374 195.165623 
Q 178.121683 194.463616 178.319356 193.685459 
Q 178.518285 192.906373 179.388573 192.262105 
Q 180.263884 191.614118 181.064593 191.653178 
Q 181.865303 191.692239 182.384994 192.394246 
Q 182.756866 192.896577 182.731174 193.45799 
Q 182.705808 194.017218 182.292678 194.517461 
Q 182.963881 194.226645 183.571062 194.379812 
Q 184.178569 194.530794 184.593206 195.090893 
Q 185.224459 195.9436 185.042021 196.784352 
Q 184.858653 197.623849 183.889154 198.341562 
Q 182.920912 199.058346 182.0632 198.989554 
Q 181.205813 198.918576 180.574561 198.06587 
Q 180.159923 197.505771 180.194144 196.879722 
Q 180.22869 196.251488 180.702801 195.694437 
z
M 179.485814 194.657133 
Q 179.822358 195.111743 180.2949 195.156568 
Q 180.768698 195.200463 181.282331 194.820224 
Q 181.793453 194.441844 181.892312 193.974015 
Q 181.992427 193.505255 181.655883 193.050646 
Q 181.318409 192.594781 180.840844 192.553674 
Q 180.364534 192.511638 179.853413 192.890018 
Q 179.33978 193.270257 179.243432 193.736228 
Q 179.14834 194.201268 179.485814 194.657133 
z
" clip-path="url(#pac0f373f2f)" style="fill: #aa2395; stroke: #ffffff; stroke-width: 5"/>
    <path d="M 181.744382 195.44437 
Q 181.17926 195.862726 181.07931 196.405238 
Q 180.980615 196.94682 181.372011 197.475523 
Q 181.764336 198.005482 182.311136 198.069208 
Q 182.859192 198.132005 183.424314 197.713649 
Q 183.989436 197.295293 184.089713 196.750596 
Q 184.190316 196.203713 183.80078 195.677521 
Q 183.409384 195.148818 182.861328 195.086022 
Q 182.314528 195.022295 181.744382 195.44437 
z
M 180.702801 195.694437 
Q 180.099968 195.946304 179.556444 195.808222 
Q 179.013246 195.667954 178.641374 195.165623 
Q 178.121683 194.463616 178.319356 193.685459 
Q 178.518285 192.906373 179.388573 192.262105 
Q 180.263884 191.614118 181.064593 191.653178 
Q 181.865303 191.692239 182.384994 192.394246 
Q 182.756866 192.896577 182.731174 193.45799 
Q 182.705808 194.017218 182.292678 194.517461 
Q 182.963881 194.226645 183.571062 194.379812 
Q 184.178569 194.530794 184.593206 195.090893 
Q 185.224459 195.9436 185.042021 196.784352 
Q 184.858653 197.623849 183.889154 198.341562 
Q 182.920912 199.058346 182.0632 198.989554 
Q 181.205813 198.918576 180.574561 198.06587 
Q 180.159923 197.505771 180.194144 196.879722 
Q 180.22869 196.251488 180.702801 195.694437 
z
M 179.485814 194.657133 
Q 179.822358 195.111743 180.2949 195.156568 
Q 180.768698 195.200463 181.282331 194.820224 
Q 181.793453 194.441844 181.892312 193.974015 
Q 181.992427 193.505255 181.655883 193.050646 
Q 181.318409 192.594781 180.840844 192.553674 
Q 180.364534 192.511638 179.853413 192.890018 
Q 179.33978 193.270257 179.243432 193.736228 
Q 179.14834 194.201268 179.485814 194.657133 
z
" clip-path="url(#pac0f373f2f)" style="fill: #aa2395"/>
   </g>
   <g id="text_17">
    <path d="M 219.323713 172.983246 
L 220.628665 172.038671 
L 217.367087 167.532728 
L 216.153095 168.845461 
L 215.626295 168.117675 
L 216.832693 166.81044 
L 217.631358 166.232334 
L 221.419736 171.466062 
L 222.724687 170.521487 
L 223.211175 171.193582 
L 219.810202 173.65534 
L 219.323713 172.983246 
z
M 224.266116 165.445757 
Q 223.728187 165.835131 223.679631 166.431581 
Q 223.631424 167.025849 224.095008 167.666301 
Q 224.555843 168.302955 225.138179 168.446598 
Q 225.720865 168.588059 226.258793 168.198686 
Q 226.796722 167.809312 226.843096 167.212512 
Q 226.888554 166.614447 226.427719 165.977793 
Q 225.964135 165.337342 225.384548 165.197495 
Q 224.804044 165.056384 224.266116 165.445757 
z
M 224.038948 161.792944 
L 224.565748 162.520729 
Q 224.161897 162.597019 223.80154 162.744056 
Q 223.440266 162.889827 223.139026 163.107876 
Q 222.347955 163.680484 222.316895 164.516953 
Q 222.2871 165.352506 223.009107 166.47522 
Q 222.992799 165.96237 223.211823 165.524145 
Q 223.432112 165.085004 223.85486 164.779002 
Q 224.744658 164.134932 225.652275 164.301593 
Q 226.558976 164.466989 227.231448 165.396023 
Q 227.890176 166.306071 227.750783 167.246031 
Q 227.610474 168.184724 226.71688 168.831543 
Q 225.691652 169.573643 224.581898 169.181023 
Q 223.471229 168.787137 222.391976 167.296125 
Q 221.378689 165.896246 221.440346 164.582415 
Q 221.502004 163.268584 222.620895 162.458686 
Q 222.922135 162.240637 223.271498 162.078411 
Q 223.620861 161.916186 224.038948 161.792944 
z
" clip-path="url(#pac0f373f2f)" style="fill: #cc4778; stroke: #ffffff; stroke-width: 5"/>
    <path d="M 219.323713 172.983246 
L 220.628665 172.038671 
L 217.367087 167.532728 
L 216.153095 168.845461 
L 215.626295 168.117675 
L 216.832693 166.81044 
L 217.631358 166.232334 
L 221.419736 171.466062 
L 222.724687 170.521487 
L 223.211175 171.193582 
L 219.810202 173.65534 
L 219.323713 172.983246 
z
M 224.266116 165.445757 
Q 223.728187 165.835131 223.679631 166.431581 
Q 223.631424 167.025849 224.095008 167.666301 
Q 224.555843 168.302955 225.138179 168.446598 
Q 225.720865 168.588059 226.258793 168.198686 
Q 226.796722 167.809312 226.843096 167.212512 
Q 226.888554 166.614447 226.427719 165.977793 
Q 225.964135 165.337342 225.384548 165.197495 
Q 224.804044 165.056384 224.266116 165.445757 
z
M 224.038948 161.792944 
L 224.565748 162.520729 
Q 224.161897 162.597019 223.80154 162.744056 
Q 223.440266 162.889827 223.139026 163.107876 
Q 222.347955 163.680484 222.316895 164.516953 
Q 222.2871 165.352506 223.009107 166.47522 
Q 222.992799 165.96237 223.211823 165.524145 
Q 223.432112 165.085004 223.85486 164.779002 
Q 224.744658 164.134932 225.652275 164.301593 
Q 226.558976 164.466989 227.231448 165.396023 
Q 227.890176 166.306071 227.750783 167.246031 
Q 227.610474 168.184724 226.71688 168.831543 
Q 225.691652 169.573643 224.581898 169.181023 
Q 223.471229 168.787137 222.391976 167.296125 
Q 221.378689 165.896246 221.440346 164.582415 
Q 221.502004 163.268584 222.620895 162.458686 
Q 222.922135 162.240637 223.271498 162.078411 
Q 223.620861 161.916186 224.038948 161.792944 
z
" clip-path="url(#pac0f373f2f)" style="fill: #cc4778"/>
   </g>
   <g id="text_18">
    <path d="M 259.940932 145.518418 
Q 260.622424 145.274413 261.21245 145.473107 
Q 261.802981 145.66965 262.173349 146.267323 
Q 262.741245 147.183754 262.4223 148.078071 
Q 262.102532 148.97106 260.94039 149.691218 
Q 260.551239 149.932369 260.090444 150.1113 
Q 259.62965 150.290232 259.094556 150.408591 
L 258.593325 149.59974 
Q 259.067229 149.587313 259.545812 149.434122 
Q 260.025724 149.280107 260.478627 148.999451 
Q 261.266227 148.511389 261.486694 147.944634 
Q 261.707161 147.377879 261.339263 146.784191 
Q 260.999348 146.23566 260.424565 146.165385 
Q 259.848958 146.093781 259.164954 146.517646 
L 258.442434 146.965379 
L 258.015277 146.276063 
L 258.771002 145.807754 
Q 259.388597 145.425041 259.563568 144.974713 
Q 259.738538 144.524384 259.450475 144.059527 
Q 259.155004 143.582717 258.658299 143.537585 
Q 258.1621 143.490302 257.531223 143.881245 
Q 257.185901 144.095235 256.83835 144.415383 
Q 256.489976 144.734202 256.114269 145.183927 
L 255.651721 144.4375 
Q 256.047556 144.00839 256.423447 143.683548 
Q 256.799338 143.358706 257.168567 143.129901 
Q 258.123515 142.538136 258.94782 142.628415 
Q 259.77263 142.716542 260.23024 143.455 
Q 260.549579 143.970327 260.474478 144.507661 
Q 260.399378 145.044995 259.940932 145.518418 
z
M 265.164519 145.930249 
L 268.09046 144.117095 
L 268.527493 144.822349 
L 264.593478 147.260189 
L 264.156444 146.554935 
Q 264.327084 145.765388 264.635322 144.423675 
Q 264.944066 143.079811 265.00545 142.707222 
Q 265.12805 142.006266 265.093193 141.594056 
Q 265.059663 141.181022 264.87201 140.878201 
Q 264.56584 140.384125 264.026599 140.288148 
Q 263.486534 140.190843 262.930035 140.535696 
Q 262.535571 140.780139 262.18205 141.188542 
Q 261.829858 141.596122 261.504635 142.183676 
L 260.979537 141.336308 
Q 261.359641 140.819522 261.735066 140.4435 
Q 262.111819 140.066654 262.477063 139.840319 
Q 263.439981 139.243616 264.311181 139.371009 
Q 265.181559 139.497074 265.68032 140.30194 
Q 265.917355 140.68445 265.986258 141.116004 
Q 266.055666 141.545407 265.965203 142.24483 
Q 265.936503 142.429889 265.736379 143.349837 
Q 265.537583 144.268961 265.164519 145.930249 
z
" clip-path="url(#pac0f373f2f)" style="fill: #e66c5c; stroke: #ffffff; stroke-width: 5"/>
    <path d="M 259.940932 145.518418 
Q 260.622424 145.274413 261.21245 145.473107 
Q 261.802981 145.66965 262.173349 146.267323 
Q 262.741245 147.183754 262.4223 148.078071 
Q 262.102532 148.97106 260.94039 149.691218 
Q 260.551239 149.932369 260.090444 150.1113 
Q 259.62965 150.290232 259.094556 150.408591 
L 258.593325 149.59974 
Q 259.067229 149.587313 259.545812 149.434122 
Q 260.025724 149.280107 260.478627 148.999451 
Q 261.266227 148.511389 261.486694 147.944634 
Q 261.707161 147.377879 261.339263 146.784191 
Q 260.999348 146.23566 260.424565 146.165385 
Q 259.848958 146.093781 259.164954 146.517646 
L 258.442434 146.965379 
L 258.015277 146.276063 
L 258.771002 145.807754 
Q 259.388597 145.425041 259.563568 144.974713 
Q 259.738538 144.524384 259.450475 144.059527 
Q 259.155004 143.582717 258.658299 143.537585 
Q 258.1621 143.490302 257.531223 143.881245 
Q 257.185901 144.095235 256.83835 144.415383 
Q 256.489976 144.734202 256.114269 145.183927 
L 255.651721 144.4375 
Q 256.047556 144.00839 256.423447 143.683548 
Q 256.799338 143.358706 257.168567 143.129901 
Q 258.123515 142.538136 258.94782 142.628415 
Q 259.77263 142.716542 260.23024 143.455 
Q 260.549579 143.970327 260.474478 144.507661 
Q 260.399378 145.044995 259.940932 145.518418 
z
M 265.164519 145.930249 
L 268.09046 144.117095 
L 268.527493 144.822349 
L 264.593478 147.260189 
L 264.156444 146.554935 
Q 264.327084 145.765388 264.635322 144.423675 
Q 264.944066 143.079811 265.00545 142.707222 
Q 265.12805 142.006266 265.093193 141.594056 
Q 265.059663 141.181022 264.87201 140.878201 
Q 264.56584 140.384125 264.026599 140.288148 
Q 263.486534 140.190843 262.930035 140.535696 
Q 262.535571 140.780139 262.18205 141.188542 
Q 261.829858 141.596122 261.504635 142.183676 
L 260.979537 141.336308 
Q 261.359641 140.819522 261.735066 140.4435 
Q 262.111819 140.066654 262.477063 139.840319 
Q 263.439981 139.243616 264.311181 139.371009 
Q 265.181559 139.497074 265.68032 140.30194 
Q 265.917355 140.68445 265.986258 141.116004 
Q 266.055666 141.545407 265.965203 142.24483 
Q 265.936503 142.429889 265.736379 143.349837 
Q 265.537583 144.268961 265.164519 145.930249 
z
" clip-path="url(#pac0f373f2f)" style="fill: #e66c5c"/>
   </g>
   <g id="text_19">
    <path d="M 299.429565 123.384636 
Q 298.872362 123.745888 298.793258 124.33906 
Q 298.714615 124.930071 299.144719 125.593471 
Q 299.572272 126.252937 300.146468 126.426278 
Q 300.721125 126.597458 301.278329 126.236206 
Q 301.835532 125.874953 301.912475 125.28132 
Q 301.988568 124.686376 301.561014 124.02691 
Q 301.130911 123.36351 300.559265 123.194102 
Q 299.986769 123.023383 299.429565 123.384636 
z
M 299.39017 119.724977 
L 299.878923 120.47884 
Q 299.471689 120.534302 299.10426 120.662651 
Q 298.735982 120.789688 298.423948 120.99199 
Q 297.604531 121.523244 297.530582 122.357016 
Q 297.457943 123.189938 298.121379 124.348228 
Q 298.131413 123.835217 298.372639 123.408811 
Q 298.615176 122.981554 299.053072 122.697652 
Q 299.974752 122.100098 300.872619 122.313121 
Q 301.769637 122.524833 302.393542 123.487156 
Q 303.004696 124.429813 302.817246 125.361379 
Q 302.628945 126.291635 301.703332 126.891739 
Q 300.641368 127.580244 299.553228 127.131185 
Q 298.464237 126.680816 297.46293 125.136379 
Q 296.522823 123.686339 296.651829 122.377404 
Q 296.780835 121.068469 297.939818 120.317064 
Q 298.251852 120.114762 298.60908 119.970681 
Q 298.966309 119.8266 299.39017 119.724977 
z
M 303.867042 117.654861 
L 303.894567 122.275638 
L 305.984407 120.920728 
L 303.867042 117.654861 
z
M 303.181901 117.074875 
L 304.222888 116.39997 
L 306.807757 120.386924 
L 307.680927 119.82082 
L 308.127181 120.50913 
L 307.25401 121.075234 
L 308.189017 122.517407 
L 307.365667 123.051211 
L 306.43066 121.609038 
L 303.669554 123.399151 
L 303.1519 122.600711 
L 303.181901 117.074875 
z
" clip-path="url(#pac0f373f2f)" style="fill: #f89540; stroke: #ffffff; stroke-width: 5"/>
    <path d="M 299.429565 123.384636 
Q 298.872362 123.745888 298.793258 124.33906 
Q 298.714615 124.930071 299.144719 125.593471 
Q 299.572272 126.252937 300.146468 126.426278 
Q 300.721125 126.597458 301.278329 126.236206 
Q 301.835532 125.874953 301.912475 125.28132 
Q 301.988568 124.686376 301.561014 124.02691 
Q 301.130911 123.36351 300.559265 123.194102 
Q 299.986769 123.023383 299.429565 123.384636 
z
M 299.39017 119.724977 
L 299.878923 120.47884 
Q 299.471689 120.534302 299.10426 120.662651 
Q 298.735982 120.789688 298.423948 120.99199 
Q 297.604531 121.523244 297.530582 122.357016 
Q 297.457943 123.189938 298.121379 124.348228 
Q 298.131413 123.835217 298.372639 123.408811 
Q 298.615176 122.981554 299.053072 122.697652 
Q 299.974752 122.100098 300.872619 122.313121 
Q 301.769637 122.524833 302.393542 123.487156 
Q 303.004696 124.429813 302.817246 125.361379 
Q 302.628945 126.291635 301.703332 126.891739 
Q 300.641368 127.580244 299.553228 127.131185 
Q 298.464237 126.680816 297.46293 125.136379 
Q 296.522823 123.686339 296.651829 122.377404 
Q 296.780835 121.068469 297.939818 120.317064 
Q 298.251852 120.114762 298.60908 119.970681 
Q 298.966309 119.8266 299.39017 119.724977 
z
M 303.867042 117.654861 
L 303.894567 122.275638 
L 305.984407 120.920728 
L 303.867042 117.654861 
z
M 303.181901 117.074875 
L 304.222888 116.39997 
L 306.807757 120.386924 
L 307.680927 119.82082 
L 308.127181 120.50913 
L 307.25401 121.075234 
L 308.189017 122.517407 
L 307.365667 123.051211 
L 306.43066 121.609038 
L 303.669554 123.399151 
L 303.1519 122.600711 
L 303.181901 117.074875 
z
" clip-path="url(#pac0f373f2f)" style="fill: #f89540"/>
   </g>
   <g id="text_20">
    <path d="M 336.883491 100.179059 
L 338.244953 99.317932 
L 335.271516 94.61686 
L 333.977814 95.851112 
L 333.497554 95.091809 
L 334.783333 93.862569 
L 335.616585 93.335535 
L 339.070282 98.79591 
L 340.431744 97.934782 
L 340.875254 98.635982 
L 337.327001 100.880258 
L 336.883491 100.179059 
z
M 342.833615 96.415594 
L 345.742734 94.575571 
L 346.186244 95.27677 
L 342.274846 97.750737 
L 341.831336 97.049537 
Q 341.994698 96.258452 342.290566 94.913957 
Q 342.586921 93.567307 342.644871 93.194169 
Q 342.761011 92.492114 342.722358 92.080241 
Q 342.685027 91.667534 342.494593 91.366454 
Q 342.183885 90.875218 341.643783 90.784212 
Q 341.102846 90.691884 340.549545 91.041848 
Q 340.157349 91.289913 339.807605 91.701554 
Q 339.459181 92.112361 339.139383 92.702885 
L 338.606503 91.860389 
Q 338.981833 91.340124 339.353778 90.96066 
Q 339.727045 90.580361 340.090189 90.350672 
Q 341.04757 89.745126 341.919907 89.864491 
Q 342.791409 89.982535 343.297562 90.782773 
Q 343.538109 91.163085 343.610983 91.593986 
Q 343.684342 92.022731 343.600325 92.722957 
Q 343.57333 92.908273 343.381687 93.830025 
Q 343.191364 94.75094 342.833615 96.415594 
z
M 347.867604 90.116335 
Q 347.273368 90.492191 347.133964 91.025929 
Q 346.99588 91.558831 347.347514 92.114772 
Q 347.699983 92.672034 348.24065 92.775625 
Q 348.782638 92.878381 349.376874 92.502526 
Q 349.971111 92.12667 350.111 91.590777 
Q 350.251375 91.052728 349.901411 90.499427 
Q 349.549777 89.943486 349.00779 89.84073 
Q 348.467123 89.737139 347.867604 90.116335 
z
M 346.810509 90.289468 
Q 346.190852 90.496521 345.658898 90.319013 
Q 345.127428 90.139349 344.793334 89.611139 
Q 344.326438 88.872965 344.580556 88.111371 
Q 344.835994 87.348941 345.751118 86.770123 
Q 346.671525 86.187964 347.467225 86.285547 
Q 348.262925 86.383129 348.729822 87.121303 
Q 349.063916 87.649513 348.997187 88.207538 
Q 348.930944 88.763408 348.482295 89.23206 
Q 349.17299 88.991169 349.767326 89.188382 
Q 350.362148 89.383439 350.734663 89.972394 
Q 351.301788 90.869031 351.05828 91.694169 
Q 350.813938 92.517987 349.794492 93.162788 
Q 348.776366 93.806755 347.925993 93.675347 
Q 347.076105 93.541783 346.50898 92.645146 
Q 346.136465 92.056192 346.216432 91.434329 
Q 346.296885 90.810311 346.810509 90.289468 
z
M 345.672739 89.165843 
Q 345.975094 89.643873 346.443085 89.723177 
Q 346.912397 89.801645 347.452492 89.460034 
Q 347.989946 89.120093 348.122794 88.660758 
Q 348.256962 88.200587 347.954607 87.722557 
Q 347.651417 87.243206 347.178143 87.167243 
Q 346.70619 87.090445 346.168736 87.430386 
Q 345.628641 87.771997 345.498434 88.229662 
Q 345.369548 88.686492 345.672739 89.165843 
z
" clip-path="url(#pac0f373f2f)" style="fill: #fdc527; stroke: #ffffff; stroke-width: 5"/>
    <path d="M 336.883491 100.179059 
L 338.244953 99.317932 
L 335.271516 94.61686 
L 333.977814 95.851112 
L 333.497554 95.091809 
L 334.783333 93.862569 
L 335.616585 93.335535 
L 339.070282 98.79591 
L 340.431744 97.934782 
L 340.875254 98.635982 
L 337.327001 100.880258 
L 336.883491 100.179059 
z
M 342.833615 96.415594 
L 345.742734 94.575571 
L 346.186244 95.27677 
L 342.274846 97.750737 
L 341.831336 97.049537 
Q 341.994698 96.258452 342.290566 94.913957 
Q 342.586921 93.567307 342.644871 93.194169 
Q 342.761011 92.492114 342.722358 92.080241 
Q 342.685027 91.667534 342.494593 91.366454 
Q 342.183885 90.875218 341.643783 90.784212 
Q 341.102846 90.691884 340.549545 91.041848 
Q 340.157349 91.289913 339.807605 91.701554 
Q 339.459181 92.112361 339.139383 92.702885 
L 338.606503 91.860389 
Q 338.981833 91.340124 339.353778 90.96066 
Q 339.727045 90.580361 340.090189 90.350672 
Q 341.04757 89.745126 341.919907 89.864491 
Q 342.791409 89.982535 343.297562 90.782773 
Q 343.538109 91.163085 343.610983 91.593986 
Q 343.684342 92.022731 343.600325 92.722957 
Q 343.57333 92.908273 343.381687 93.830025 
Q 343.191364 94.75094 342.833615 96.415594 
z
M 347.867604 90.116335 
Q 347.273368 90.492191 347.133964 91.025929 
Q 346.99588 91.558831 347.347514 92.114772 
Q 347.699983 92.672034 348.24065 92.775625 
Q 348.782638 92.878381 349.376874 92.502526 
Q 349.971111 92.12667 350.111 91.590777 
Q 350.251375 91.052728 349.901411 90.499427 
Q 349.549777 89.943486 349.00779 89.84073 
Q 348.467123 89.737139 347.867604 90.116335 
z
M 346.810509 90.289468 
Q 346.190852 90.496521 345.658898 90.319013 
Q 345.127428 90.139349 344.793334 89.611139 
Q 344.326438 88.872965 344.580556 88.111371 
Q 344.835994 87.348941 345.751118 86.770123 
Q 346.671525 86.187964 347.467225 86.285547 
Q 348.262925 86.383129 348.729822 87.121303 
Q 349.063916 87.649513 348.997187 88.207538 
Q 348.930944 88.763408 348.482295 89.23206 
Q 349.17299 88.991169 349.767326 89.188382 
Q 350.362148 89.383439 350.734663 89.972394 
Q 351.301788 90.869031 351.05828 91.694169 
Q 350.813938 92.517987 349.794492 93.162788 
Q 348.776366 93.806755 347.925993 93.675347 
Q 347.076105 93.541783 346.50898 92.645146 
Q 346.136465 92.056192 346.216432 91.434329 
Q 346.296885 90.810311 346.810509 90.289468 
z
M 345.672739 89.165843 
Q 345.975094 89.643873 346.443085 89.723177 
Q 346.912397 89.801645 347.452492 89.460034 
Q 347.989946 89.120093 348.122794 88.660758 
Q 348.256962 88.200587 347.954607 87.722557 
Q 347.651417 87.243206 347.178143 87.167243 
Q 346.70619 87.090445 346.168736 87.430386 
Q 345.628641 87.771997 345.498434 88.229662 
Q 345.369548 88.686492 345.672739 89.165843 
z
" clip-path="url(#pac0f373f2f)" style="fill: #fdc527"/>
   </g>
   <g id="patch_3">
    <path d="M 43.78125 301.735725 
L 43.78125 35.623725 
" style="fill: none; stroke: #cccccc; stroke-width: 0.8; stroke-linejoin: miter; stroke-linecap: square"/>
   </g>
   <g id="patch_4">
    <path d="M 400.90125 301.735725 
L 400.90125 35.623725 
" style="fill: none; stroke: #cccccc; stroke-width: 0.8; stroke-linejoin: miter; stroke-linecap: square"/>
   </g>
   <g id="patch_5">
    <path d="M 43.78125 301.735725 
L 400.90125 301.735725 
" style="fill: none; stroke: #cccccc; stroke-width: 0.8; stroke-linejoin: miter; stroke-linecap: square"/>
   </g>
   <g id="patch_6">
    <path d="M 43.78125 35.623725 
L 400.90125 35.623725 
" style="fill: none; stroke: #cccccc; stroke-width: 0.8; stroke-linejoin: miter; stroke-linecap: square"/>
   </g>
   <g id="text_21">
    <!-- Block Size = 4K, Read-Write Type = Sequential Read-only -->
    <g style="fill: #262626; opacity: 0.75" transform="translate(78.881875 30.882918) scale(0.1 -0.1)">
     <defs>
      <path id="DejaVuSans-42" d="M 1259 2228 
L 1259 519 
L 2272 519 
Q 2781 519 3026 730 
Q 3272 941 3272 1375 
Q 3272 1813 3026 2020 
Q 2781 2228 2272 2228 
L 1259 2228 
z
M 1259 4147 
L 1259 2741 
L 2194 2741 
Q 2656 2741 2882 2914 
Q 3109 3088 3109 3444 
Q 3109 3797 2882 3972 
Q 2656 4147 2194 4147 
L 1259 4147 
z
M 628 4666 
L 2241 4666 
Q 2963 4666 3353 4366 
Q 3744 4066 3744 3513 
Q 3744 3084 3544 2831 
Q 3344 2578 2956 2516 
Q 3422 2416 3680 2098 
Q 3938 1781 3938 1306 
Q 3938 681 3513 340 
Q 3088 0 2303 0 
L 628 0 
L 628 4666 
z
" transform="scale(0.015625)"/>
      <path id="DejaVuSans-6c" d="M 603 4863 
L 1178 4863 
L 1178 0 
L 603 0 
L 603 4863 
z
" transform="scale(0.015625)"/>
      <path id="DejaVuSans-6b" d="M 581 4863 
L 1159 4863 
L 1159 1991 
L 2875 3500 
L 3609 3500 
L 1753 1863 
L 3688 0 
L 2938 0 
L 1159 1709 
L 1159 0 
L 581 0 
L 581 4863 
z
" transform="scale(0.015625)"/>
      <path id="DejaVuSans-53" d="M 3425 4513 
L 3425 3897 
Q 3066 4069 2747 4153 
Q 2428 4238 2131 4238 
Q 1616 4238 1336 4038 
Q 1056 3838 1056 3469 
Q 1056 3159 1242 3001 
Q 1428 2844 1947 2747 
L 2328 2669 
Q 3034 2534 3370 2195 
Q 3706 1856 3706 1288 
Q 3706 609 3251 259 
Q 2797 -91 1919 -91 
Q 1588 -91 1214 -16 
Q 841 59 441 206 
L 441 856 
Q 825 641 1194 531 
Q 1563 422 1919 422 
Q 2459 422 2753 634 
Q 3047 847 3047 1241 
Q 3047 1584 2836 1778 
Q 2625 1972 2144 2069 
L 1759 2144 
Q 1053 2284 737 2584 
Q 422 2884 422 3419 
Q 422 4038 858 4394 
Q 1294 4750 2059 4750 
Q 2388 4750 2728 4690 
Q 3069 4631 3425 4513 
z
" transform="scale(0.015625)"/>
      <path id="DejaVuSans-69" d="M 603 3500 
L 1178 3500 
L 1178 0 
L 603 0 
L 603 3500 
z
M 603 4863 
L 1178 4863 
L 1178 4134 
L 603 4134 
L 603 4863 
z
" transform="scale(0.015625)"/>
      <path id="DejaVuSans-7a" d="M 353 3500 
L 3084 3500 
L 3084 2975 
L 922 459 
L 3084 459 
L 3084 0 
L 275 0 
L 275 525 
L 2438 3041 
L 353 3041 
L 353 3500 
z
" transform="scale(0.015625)"/>
      <path id="DejaVuSans-3d" d="M 678 2906 
L 4684 2906 
L 4684 2381 
L 678 2381 
L 678 2906 
z
M 678 1631 
L 4684 1631 
L 4684 1100 
L 678 1100 
L 678 1631 
z
" transform="scale(0.015625)"/>
      <path id="DejaVuSans-4b" d="M 628 4666 
L 1259 4666 
L 1259 2694 
L 3353 4666 
L 4166 4666 
L 1850 2491 
L 4331 0 
L 3500 0 
L 1259 2247 
L 1259 0 
L 628 0 
L 628 4666 
z
" transform="scale(0.015625)"/>
      <path id="DejaVuSans-2c" d="M 750 794 
L 1409 794 
L 1409 256 
L 897 -744 
L 494 -744 
L 750 256 
L 750 794 
z
" transform="scale(0.015625)"/>
      <path id="DejaVuSans-52" d="M 2841 2188 
Q 3044 2119 3236 1894 
Q 3428 1669 3622 1275 
L 4263 0 
L 3584 0 
L 2988 1197 
Q 2756 1666 2539 1819 
Q 2322 1972 1947 1972 
L 1259 1972 
L 1259 0 
L 628 0 
L 628 4666 
L 2053 4666 
Q 2853 4666 3247 4331 
Q 3641 3997 3641 3322 
Q 3641 2881 3436 2590 
Q 3231 2300 2841 2188 
z
M 1259 4147 
L 1259 2491 
L 2053 2491 
Q 2509 2491 2742 2702 
Q 2975 2913 2975 3322 
Q 2975 3731 2742 3939 
Q 2509 4147 2053 4147 
L 1259 4147 
z
" transform="scale(0.015625)"/>
      <path id="DejaVuSans-64" d="M 2906 2969 
L 2906 4863 
L 3481 4863 
L 3481 0 
L 2906 0 
L 2906 525 
Q 2725 213 2448 61 
Q 2172 -91 1784 -91 
Q 1150 -91 751 415 
Q 353 922 353 1747 
Q 353 2572 751 3078 
Q 1150 3584 1784 3584 
Q 2172 3584 2448 3432 
Q 2725 3281 2906 2969 
z
M 947 1747 
Q 947 1113 1208 752 
Q 1469 391 1925 391 
Q 2381 391 2643 752 
Q 2906 1113 2906 1747 
Q 2906 2381 2643 2742 
Q 2381 3103 1925 3103 
Q 1469 3103 1208 2742 
Q 947 2381 947 1747 
z
" transform="scale(0.015625)"/>
      <path id="DejaVuSans-2d" d="M 313 2009 
L 1997 2009 
L 1997 1497 
L 313 1497 
L 313 2009 
z
" transform="scale(0.015625)"/>
      <path id="DejaVuSans-57" d="M 213 4666 
L 850 4666 
L 1831 722 
L 2809 4666 
L 3519 4666 
L 4500 722 
L 5478 4666 
L 6119 4666 
L 4947 0 
L 4153 0 
L 3169 4050 
L 2175 0 
L 1381 0 
L 213 4666 
z
" transform="scale(0.015625)"/>
      <path id="DejaVuSans-54" d="M -19 4666 
L 3928 4666 
L 3928 4134 
L 2272 4134 
L 2272 0 
L 1638 0 
L 1638 4134 
L -19 4134 
L -19 4666 
z
" transform="scale(0.015625)"/>
      <path id="DejaVuSans-70" d="M 1159 525 
L 1159 -1331 
L 581 -1331 
L 581 3500 
L 1159 3500 
L 1159 2969 
Q 1341 3281 1617 3432 
Q 1894 3584 2278 3584 
Q 2916 3584 3314 3078 
Q 3713 2572 3713 1747 
Q 3713 922 3314 415 
Q 2916 -91 2278 -91 
Q 1894 -91 1617 61 
Q 1341 213 1159 525 
z
M 3116 1747 
Q 3116 2381 2855 2742 
Q 2594 3103 2138 3103 
Q 1681 3103 1420 2742 
Q 1159 2381 1159 1747 
Q 1159 1113 1420 752 
Q 1681 391 2138 391 
Q 2594 391 2855 752 
Q 3116 1113 3116 1747 
z
" transform="scale(0.015625)"/>
      <path id="DejaVuSans-71" d="M 947 1747 
Q 947 1113 1208 752 
Q 1469 391 1925 391 
Q 2381 391 2643 752 
Q 2906 1113 2906 1747 
Q 2906 2381 2643 2742 
Q 2381 3103 1925 3103 
Q 1469 3103 1208 2742 
Q 947 2381 947 1747 
z
M 2906 525 
Q 2725 213 2448 61 
Q 2172 -91 1784 -91 
Q 1150 -91 751 415 
Q 353 922 353 1747 
Q 353 2572 751 3078 
Q 1150 3584 1784 3584 
Q 2172 3584 2448 3432 
Q 2725 3281 2906 2969 
L 2906 3500 
L 3481 3500 
L 3481 -1331 
L 2906 -1331 
L 2906 525 
z
" transform="scale(0.015625)"/>
     </defs>
     <use xlink:href="#DejaVuSans-42"/>
     <use xlink:href="#DejaVuSans-6c" transform="translate(68.603516 0)"/>
     <use xlink:href="#DejaVuSans-6f" transform="translate(96.386719 0)"/>
     <use xlink:href="#DejaVuSans-63" transform="translate(157.568359 0)"/>
     <use xlink:href="#DejaVuSans-6b" transform="translate(212.548828 0)"/>
     <use xlink:href="#DejaVuSans-20" transform="translate(270.458984 0)"/>
     <use xlink:href="#DejaVuSans-53" transform="translate(302.246094 0)"/>
     <use xlink:href="#DejaVuSans-69" transform="translate(365.722656 0)"/>
     <use xlink:href="#DejaVuSans-7a" transform="translate(393.505859 0)"/>
     <use xlink:href="#DejaVuSans-65" transform="translate(445.996094 0)"/>
     <use xlink:href="#DejaVuSans-20" transform="translate(507.519531 0)"/>
     <use xlink:href="#DejaVuSans-3d" transform="translate(539.306641 0)"/>
     <use xlink:href="#DejaVuSans-20" transform="translate(623.095703 0)"/>
     <use xlink:href="#DejaVuSans-34" transform="translate(654.882812 0)"/>
     <use xlink:href="#DejaVuSans-4b" transform="translate(718.505859 0)"/>
     <use xlink:href="#DejaVuSans-2c" transform="translate(784.082031 0)"/>
     <use xlink:href="#DejaVuSans-20" transform="translate(815.869141 0)"/>
     <use xlink:href="#DejaVuSans-52" transform="translate(847.65625 0)"/>
     <use xlink:href="#DejaVuSans-65" transform="translate(912.638672 0)"/>
     <use xlink:href="#DejaVuSans-61" transform="translate(974.162109 0)"/>
     <use xlink:href="#DejaVuSans-64" transform="translate(1035.441406 0)"/>
     <use xlink:href="#DejaVuSans-2d" transform="translate(1098.917969 0)"/>
     <use xlink:href="#DejaVuSans-57" transform="translate(1131.001953 0)"/>
     <use xlink:href="#DejaVuSans-72" transform="translate(1225.378906 0)"/>
     <use xlink:href="#DejaVuSans-69" transform="translate(1266.492188 0)"/>
     <use xlink:href="#DejaVuSans-74" transform="translate(1294.275391 0)"/>
     <use xlink:href="#DejaVuSans-65" transform="translate(1333.484375 0)"/>
     <use xlink:href="#DejaVuSans-20" transform="translate(1395.007812 0)"/>
     <use xlink:href="#DejaVuSans-54" transform="translate(1426.794922 0)"/>
     <use xlink:href="#DejaVuSans-79" transform="translate(1472.253906 0)"/>
     <use xlink:href="#DejaVuSans-70" transform="translate(1531.433594 0)"/>
     <use xlink:href="#DejaVuSans-65" transform="translate(1594.910156 0)"/>
     <use xlink:href="#DejaVuSans-20" transform="translate(1656.433594 0)"/>
     <use xlink:href="#DejaVuSans-3d" transform="translate(1688.220703 0)"/>
     <use xlink:href="#DejaVuSans-20" transform="translate(1772.009766 0)"/>
     <use xlink:href="#DejaVuSans-53" transform="translate(1803.796875 0)"/>
     <use xlink:href="#DejaVuSans-65" transform="translate(1867.273438 0)"/>
     <use xlink:href="#DejaVuSans-71" transform="translate(1928.796875 0)"/>
     <use xlink:href="#DejaVuSans-75" transform="translate(1992.273438 0)"/>
     <use xlink:href="#DejaVuSans-65" transform="translate(2055.652344 0)"/>
     <use xlink:href="#DejaVuSans-6e" transform="translate(2117.175781 0)"/>
     <use xlink:href="#DejaVuSans-74" transform="translate(2180.554688 0)"/>
     <use xlink:href="#DejaVuSans-69" transform="translate(2219.763672 0)"/>
     <use xlink:href="#DejaVuSans-61" transform="translate(2247.546875 0)"/>
     <use xlink:href="#DejaVuSans-6c" transform="translate(2308.826172 0)"/>
     <use xlink:href="#DejaVuSans-20" transform="translate(2336.609375 0)"/>
     <use xlink:href="#DejaVuSans-52" transform="translate(2368.396484 0)"/>
     <use xlink:href="#DejaVuSans-65" transform="translate(2433.378906 0)"/>
     <use xlink:href="#DejaVuSans-61" transform="translate(2494.902344 0)"/>
     <use xlink:href="#DejaVuSans-64" transform="translate(2556.181641 0)"/>
     <use xlink:href="#DejaVuSans-2d" transform="translate(2619.658203 0)"/>
     <use xlink:href="#DejaVuSans-6f" transform="translate(2657.617188 0)"/>
     <use xlink:href="#DejaVuSans-6e" transform="translate(2718.798828 0)"/>
     <use xlink:href="#DejaVuSans-6c" transform="translate(2782.177734 0)"/>
     <use xlink:href="#DejaVuSans-79" transform="translate(2809.960938 0)"/>
    </g>
   </g>
   <g id="text_22">
    <!-- Mean Latency vs Number of Jobs -->
    <g style="fill: #262626" transform="translate(111.685313 16.318125) scale(0.12 -0.12)">
     <defs>
      <path id="DejaVuSans-Bold-4d" d="M 588 4666 
L 2119 4666 
L 3181 2169 
L 4250 4666 
L 5778 4666 
L 5778 0 
L 4641 0 
L 4641 3413 
L 3566 897 
L 2803 897 
L 1728 3413 
L 1728 0 
L 588 0 
L 588 4666 
z
" transform="scale(0.015625)"/>
      <path id="DejaVuSans-Bold-65" d="M 4031 1759 
L 4031 1441 
L 1416 1441 
Q 1456 1047 1700 850 
Q 1944 653 2381 653 
Q 2734 653 3104 758 
Q 3475 863 3866 1075 
L 3866 213 
Q 3469 63 3072 -14 
Q 2675 -91 2278 -91 
Q 1328 -91 801 392 
Q 275 875 275 1747 
Q 275 2603 792 3093 
Q 1309 3584 2216 3584 
Q 3041 3584 3536 3087 
Q 4031 2591 4031 1759 
z
M 2881 2131 
Q 2881 2450 2695 2645 
Q 2509 2841 2209 2841 
Q 1884 2841 1681 2658 
Q 1478 2475 1428 2131 
L 2881 2131 
z
" transform="scale(0.015625)"/>
      <path id="DejaVuSans-Bold-61" d="M 2106 1575 
Q 1756 1575 1579 1456 
Q 1403 1338 1403 1106 
Q 1403 894 1545 773 
Q 1688 653 1941 653 
Q 2256 653 2472 879 
Q 2688 1106 2688 1447 
L 2688 1575 
L 2106 1575 
z
M 3816 1997 
L 3816 0 
L 2688 0 
L 2688 519 
Q 2463 200 2181 54 
Q 1900 -91 1497 -91 
Q 953 -91 614 226 
Q 275 544 275 1050 
Q 275 1666 698 1953 
Q 1122 2241 2028 2241 
L 2688 2241 
L 2688 2328 
Q 2688 2594 2478 2717 
Q 2269 2841 1825 2841 
Q 1466 2841 1156 2769 
Q 847 2697 581 2553 
L 581 3406 
Q 941 3494 1303 3539 
Q 1666 3584 2028 3584 
Q 2975 3584 3395 3211 
Q 3816 2838 3816 1997 
z
" transform="scale(0.015625)"/>
      <path id="DejaVuSans-Bold-6e" d="M 4056 2131 
L 4056 0 
L 2931 0 
L 2931 347 
L 2931 1631 
Q 2931 2084 2911 2256 
Q 2891 2428 2841 2509 
Q 2775 2619 2662 2680 
Q 2550 2741 2406 2741 
Q 2056 2741 1856 2470 
Q 1656 2200 1656 1722 
L 1656 0 
L 538 0 
L 538 3500 
L 1656 3500 
L 1656 2988 
Q 1909 3294 2193 3439 
Q 2478 3584 2822 3584 
Q 3428 3584 3742 3212 
Q 4056 2841 4056 2131 
z
" transform="scale(0.015625)"/>
      <path id="DejaVuSans-Bold-20" transform="scale(0.015625)"/>
      <path id="DejaVuSans-Bold-4c" d="M 588 4666 
L 1791 4666 
L 1791 909 
L 3903 909 
L 3903 0 
L 588 0 
L 588 4666 
z
" transform="scale(0.015625)"/>
      <path id="DejaVuSans-Bold-74" d="M 1759 4494 
L 1759 3500 
L 2913 3500 
L 2913 2700 
L 1759 2700 
L 1759 1216 
Q 1759 972 1856 886 
Q 1953 800 2241 800 
L 2816 800 
L 2816 0 
L 1856 0 
Q 1194 0 917 276 
Q 641 553 641 1216 
L 641 2700 
L 84 2700 
L 84 3500 
L 641 3500 
L 641 4494 
L 1759 4494 
z
" transform="scale(0.015625)"/>
      <path id="DejaVuSans-Bold-63" d="M 3366 3391 
L 3366 2478 
Q 3138 2634 2908 2709 
Q 2678 2784 2431 2784 
Q 1963 2784 1702 2511 
Q 1441 2238 1441 1747 
Q 1441 1256 1702 982 
Q 1963 709 2431 709 
Q 2694 709 2930 787 
Q 3166 866 3366 1019 
L 3366 103 
Q 3103 6 2833 -42 
Q 2563 -91 2291 -91 
Q 1344 -91 809 395 
Q 275 881 275 1747 
Q 275 2613 809 3098 
Q 1344 3584 2291 3584 
Q 2566 3584 2833 3536 
Q 3100 3488 3366 3391 
z
" transform="scale(0.015625)"/>
      <path id="DejaVuSans-Bold-79" d="M 78 3500 
L 1197 3500 
L 2138 1125 
L 2938 3500 
L 4056 3500 
L 2584 -331 
Q 2363 -916 2067 -1148 
Q 1772 -1381 1288 -1381 
L 641 -1381 
L 641 -647 
L 991 -647 
Q 1275 -647 1404 -556 
Q 1534 -466 1606 -231 
L 1638 -134 
L 78 3500 
z
" transform="scale(0.015625)"/>
      <path id="DejaVuSans-Bold-76" d="M 97 3500 
L 1216 3500 
L 2088 1081 
L 2956 3500 
L 4078 3500 
L 2700 0 
L 1472 0 
L 97 3500 
z
" transform="scale(0.015625)"/>
      <path id="DejaVuSans-Bold-73" d="M 3272 3391 
L 3272 2541 
Q 2913 2691 2578 2766 
Q 2244 2841 1947 2841 
Q 1628 2841 1473 2761 
Q 1319 2681 1319 2516 
Q 1319 2381 1436 2309 
Q 1553 2238 1856 2203 
L 2053 2175 
Q 2913 2066 3209 1816 
Q 3506 1566 3506 1031 
Q 3506 472 3093 190 
Q 2681 -91 1863 -91 
Q 1516 -91 1145 -36 
Q 775 19 384 128 
L 384 978 
Q 719 816 1070 734 
Q 1422 653 1784 653 
Q 2113 653 2278 743 
Q 2444 834 2444 1013 
Q 2444 1163 2330 1236 
Q 2216 1309 1875 1350 
L 1678 1375 
Q 931 1469 631 1722 
Q 331 1975 331 2491 
Q 331 3047 712 3315 
Q 1094 3584 1881 3584 
Q 2191 3584 2531 3537 
Q 2872 3491 3272 3391 
z
" transform="scale(0.015625)"/>
      <path id="DejaVuSans-Bold-4e" d="M 588 4666 
L 1931 4666 
L 3628 1466 
L 3628 4666 
L 4769 4666 
L 4769 0 
L 3425 0 
L 1728 3200 
L 1728 0 
L 588 0 
L 588 4666 
z
" transform="scale(0.015625)"/>
      <path id="DejaVuSans-Bold-75" d="M 500 1363 
L 500 3500 
L 1625 3500 
L 1625 3150 
Q 1625 2866 1622 2436 
Q 1619 2006 1619 1863 
Q 1619 1441 1641 1255 
Q 1663 1069 1716 984 
Q 1784 875 1895 815 
Q 2006 756 2150 756 
Q 2500 756 2700 1025 
Q 2900 1294 2900 1772 
L 2900 3500 
L 4019 3500 
L 4019 0 
L 2900 0 
L 2900 506 
Q 2647 200 2364 54 
Q 2081 -91 1741 -91 
Q 1134 -91 817 281 
Q 500 653 500 1363 
z
" transform="scale(0.015625)"/>
      <path id="DejaVuSans-Bold-6d" d="M 3781 2919 
Q 3994 3244 4286 3414 
Q 4578 3584 4928 3584 
Q 5531 3584 5847 3212 
Q 6163 2841 6163 2131 
L 6163 0 
L 5038 0 
L 5038 1825 
Q 5041 1866 5042 1909 
Q 5044 1953 5044 2034 
Q 5044 2406 4934 2573 
Q 4825 2741 4581 2741 
Q 4263 2741 4089 2478 
Q 3916 2216 3909 1719 
L 3909 0 
L 2784 0 
L 2784 1825 
Q 2784 2406 2684 2573 
Q 2584 2741 2328 2741 
Q 2006 2741 1831 2477 
Q 1656 2213 1656 1722 
L 1656 0 
L 531 0 
L 531 3500 
L 1656 3500 
L 1656 2988 
Q 1863 3284 2130 3434 
Q 2397 3584 2719 3584 
Q 3081 3584 3359 3409 
Q 3638 3234 3781 2919 
z
" transform="scale(0.015625)"/>
      <path id="DejaVuSans-Bold-62" d="M 2400 722 
Q 2759 722 2948 984 
Q 3138 1247 3138 1747 
Q 3138 2247 2948 2509 
Q 2759 2772 2400 2772 
Q 2041 2772 1848 2508 
Q 1656 2244 1656 1747 
Q 1656 1250 1848 986 
Q 2041 722 2400 722 
z
M 1656 2988 
Q 1888 3294 2169 3439 
Q 2450 3584 2816 3584 
Q 3463 3584 3878 3070 
Q 4294 2556 4294 1747 
Q 4294 938 3878 423 
Q 3463 -91 2816 -91 
Q 2450 -91 2169 54 
Q 1888 200 1656 506 
L 1656 0 
L 538 0 
L 538 4863 
L 1656 4863 
L 1656 2988 
z
" transform="scale(0.015625)"/>
      <path id="DejaVuSans-Bold-72" d="M 3138 2547 
Q 2991 2616 2845 2648 
Q 2700 2681 2553 2681 
Q 2122 2681 1889 2404 
Q 1656 2128 1656 1613 
L 1656 0 
L 538 0 
L 538 3500 
L 1656 3500 
L 1656 2925 
Q 1872 3269 2151 3426 
Q 2431 3584 2822 3584 
Q 2878 3584 2943 3579 
Q 3009 3575 3134 3559 
L 3138 2547 
z
" transform="scale(0.015625)"/>
      <path id="DejaVuSans-Bold-6f" d="M 2203 2784 
Q 1831 2784 1636 2517 
Q 1441 2250 1441 1747 
Q 1441 1244 1636 976 
Q 1831 709 2203 709 
Q 2569 709 2762 976 
Q 2956 1244 2956 1747 
Q 2956 2250 2762 2517 
Q 2569 2784 2203 2784 
z
M 2203 3584 
Q 3106 3584 3614 3096 
Q 4122 2609 4122 1747 
Q 4122 884 3614 396 
Q 3106 -91 2203 -91 
Q 1297 -91 786 396 
Q 275 884 275 1747 
Q 275 2609 786 3096 
Q 1297 3584 2203 3584 
z
" transform="scale(0.015625)"/>
      <path id="DejaVuSans-Bold-66" d="M 2841 4863 
L 2841 4128 
L 2222 4128 
Q 1984 4128 1890 4042 
Q 1797 3956 1797 3744 
L 1797 3500 
L 2753 3500 
L 2753 2700 
L 1797 2700 
L 1797 0 
L 678 0 
L 678 2700 
L 122 2700 
L 122 3500 
L 678 3500 
L 678 3744 
Q 678 4316 997 4589 
Q 1316 4863 1984 4863 
L 2841 4863 
z
" transform="scale(0.015625)"/>
      <path id="DejaVuSans-Bold-4a" d="M 588 4666 
L 1791 4666 
L 1791 453 
Q 1791 -419 1317 -850 
Q 844 -1281 -116 -1281 
L -359 -1281 
L -359 -372 
L -172 -372 
Q 203 -372 395 -162 
Q 588 47 588 453 
L 588 4666 
z
" transform="scale(0.015625)"/>
     </defs>
     <use xlink:href="#DejaVuSans-Bold-4d"/>
     <use xlink:href="#DejaVuSans-Bold-65" transform="translate(99.511719 0)"/>
     <use xlink:href="#DejaVuSans-Bold-61" transform="translate(167.333984 0)"/>
     <use xlink:href="#DejaVuSans-Bold-6e" transform="translate(234.814453 0)"/>
     <use xlink:href="#DejaVuSans-Bold-20" transform="translate(306.005859 0)"/>
     <use xlink:href="#DejaVuSans-Bold-4c" transform="translate(340.820312 0)"/>
     <use xlink:href="#DejaVuSans-Bold-61" transform="translate(404.541016 0)"/>
     <use xlink:href="#DejaVuSans-Bold-74" transform="translate(472.021484 0)"/>
     <use xlink:href="#DejaVuSans-Bold-65" transform="translate(519.824219 0)"/>
     <use xlink:href="#DejaVuSans-Bold-6e" transform="translate(587.646484 0)"/>
     <use xlink:href="#DejaVuSans-Bold-63" transform="translate(658.837891 0)"/>
     <use xlink:href="#DejaVuSans-Bold-79" transform="translate(718.115234 0)"/>
     <use xlink:href="#DejaVuSans-Bold-20" transform="translate(783.300781 0)"/>
     <use xlink:href="#DejaVuSans-Bold-76" transform="translate(818.115234 0)"/>
     <use xlink:href="#DejaVuSans-Bold-73" transform="translate(883.300781 0)"/>
     <use xlink:href="#DejaVuSans-Bold-20" transform="translate(942.822266 0)"/>
     <use xlink:href="#DejaVuSans-Bold-4e" transform="translate(977.636719 0)"/>
     <use xlink:href="#DejaVuSans-Bold-75" transform="translate(1061.328125 0)"/>
     <use xlink:href="#DejaVuSans-Bold-6d" transform="translate(1132.519531 0)"/>
     <use xlink:href="#DejaVuSans-Bold-62" transform="translate(1236.71875 0)"/>
     <use xlink:href="#DejaVuSans-Bold-65" transform="translate(1308.300781 0)"/>
     <use xlink:href="#DejaVuSans-Bold-72" transform="translate(1376.123047 0)"/>
     <use xlink:href="#DejaVuSans-Bold-20" transform="translate(1425.439453 0)"/>
     <use xlink:href="#DejaVuSans-Bold-6f" transform="translate(1460.253906 0)"/>
     <use xlink:href="#DejaVuSans-Bold-66" transform="translate(1528.955078 0)"/>
     <use xlink:href="#DejaVuSans-Bold-20" transform="translate(1572.460938 0)"/>
     <use xlink:href="#DejaVuSans-Bold-4a" transform="translate(1607.275391 0)"/>
     <use xlink:href="#DejaVuSans-Bold-6f" transform="translate(1644.482422 0)"/>
     <use xlink:href="#DejaVuSans-Bold-62" transform="translate(1713.183594 0)"/>
     <use xlink:href="#DejaVuSans-Bold-73" transform="translate(1784.765625 0)"/>
    </g>
   </g>
   <g id="legend_1">
    <g id="text_23">
     <!-- IO Depth -->
     <g style="fill: #262626" transform="translate(435.407813 120.065663) scale(0.1 -0.1)">
      <defs>
       <path id="DejaVuSans-49" d="M 628 4666 
L 1259 4666 
L 1259 0 
L 628 0 
L 628 4666 
z
" transform="scale(0.015625)"/>
       <path id="DejaVuSans-4f" d="M 2522 4238 
Q 1834 4238 1429 3725 
Q 1025 3213 1025 2328 
Q 1025 1447 1429 934 
Q 1834 422 2522 422 
Q 3209 422 3611 934 
Q 4013 1447 4013 2328 
Q 4013 3213 3611 3725 
Q 3209 4238 2522 4238 
z
M 2522 4750 
Q 3503 4750 4090 4092 
Q 4678 3434 4678 2328 
Q 4678 1225 4090 567 
Q 3503 -91 2522 -91 
Q 1538 -91 948 565 
Q 359 1222 359 2328 
Q 359 3434 948 4092 
Q 1538 4750 2522 4750 
z
" transform="scale(0.015625)"/>
       <path id="DejaVuSans-44" d="M 1259 4147 
L 1259 519 
L 2022 519 
Q 2988 519 3436 956 
Q 3884 1394 3884 2338 
Q 3884 3275 3436 3711 
Q 2988 4147 2022 4147 
L 1259 4147 
z
M 628 4666 
L 1925 4666 
Q 3281 4666 3915 4102 
Q 4550 3538 4550 2338 
Q 4550 1131 3912 565 
Q 3275 0 1925 0 
L 628 0 
L 628 4666 
z
" transform="scale(0.015625)"/>
       <path id="DejaVuSans-68" d="M 3513 2113 
L 3513 0 
L 2938 0 
L 2938 2094 
Q 2938 2591 2744 2837 
Q 2550 3084 2163 3084 
Q 1697 3084 1428 2787 
Q 1159 2491 1159 1978 
L 1159 0 
L 581 0 
L 581 4863 
L 1159 4863 
L 1159 2956 
Q 1366 3272 1645 3428 
Q 1925 3584 2291 3584 
Q 2894 3584 3203 3211 
Q 3513 2838 3513 2113 
z
" transform="scale(0.015625)"/>
      </defs>
      <use xlink:href="#DejaVuSans-49"/>
      <use xlink:href="#DejaVuSans-4f" transform="translate(29.492188 0)"/>
      <use xlink:href="#DejaVuSans-20" transform="translate(108.203125 0)"/>
      <use xlink:href="#DejaVuSans-44" transform="translate(139.990234 0)"/>
      <use xlink:href="#DejaVuSans-65" transform="translate(216.992188 0)"/>
      <use xlink:href="#DejaVuSans-70" transform="translate(278.515625 0)"/>
      <use xlink:href="#DejaVuSans-74" transform="translate(341.992188 0)"/>
      <use xlink:href="#DejaVuSans-68" transform="translate(381.201172 0)"/>
     </g>
    </g>
    <g id="line2d_25">
     <path d="M 434.09375 131.243787 
L 444.09375 131.243787 
L 454.09375 131.243787 
" style="fill: none; stroke: #4c02a1; stroke-width: 1.5; stroke-linecap: round"/>
    </g>
    <g id="text_24">
     <!-- 1 -->
     <g style="fill: #262626" transform="translate(462.09375 134.743787) scale(0.1 -0.1)">
      <use xlink:href="#DejaVuSans-31"/>
     </g>
    </g>
    <g id="line2d_26">
     <path d="M 434.09375 145.921913 
L 444.09375 145.921913 
L 454.09375 145.921913 
" style="fill: none; stroke: #7e03a8; stroke-width: 1.5; stroke-linecap: round"/>
    </g>
    <g id="text_25">
     <!-- 4 -->
     <g style="fill: #262626" transform="translate(462.09375 149.421913) scale(0.1 -0.1)">
      <use xlink:href="#DejaVuSans-34"/>
     </g>
    </g>
    <g id="line2d_27">
     <path d="M 434.09375 160.600037 
L 444.09375 160.600037 
L 454.09375 160.600037 
" style="fill: none; stroke: #aa2395; stroke-width: 1.5; stroke-linecap: round"/>
    </g>
    <g id="text_26">
     <!-- 8 -->
     <g style="fill: #262626" transform="translate(462.09375 164.100037) scale(0.1 -0.1)">
      <use xlink:href="#DejaVuSans-38"/>
     </g>
    </g>
    <g id="line2d_28">
     <path d="M 434.09375 175.278163 
L 444.09375 175.278163 
L 454.09375 175.278163 
" style="fill: none; stroke: #cc4778; stroke-width: 1.5; stroke-linecap: round"/>
    </g>
    <g id="text_27">
     <!-- 16 -->
     <g style="fill: #262626" transform="translate(462.09375 178.778163) scale(0.1 -0.1)">
      <use xlink:href="#DejaVuSans-31"/>
      <use xlink:href="#DejaVuSans-36" transform="translate(63.623047 0)"/>
     </g>
    </g>
    <g id="line2d_29">
     <path d="M 434.09375 189.956288 
L 444.09375 189.956288 
L 454.09375 189.956288 
" style="fill: none; stroke: #e66c5c; stroke-width: 1.5; stroke-linecap: round"/>
    </g>
    <g id="text_28">
     <!-- 32 -->
     <g style="fill: #262626" transform="translate(462.09375 193.456288) scale(0.1 -0.1)">
      <use xlink:href="#DejaVuSans-33"/>
      <use xlink:href="#DejaVuSans-32" transform="translate(63.623047 0)"/>
     </g>
    </g>
    <g id="line2d_30">
     <path d="M 434.09375 204.634412 
L 444.09375 204.634412 
L 454.09375 204.634412 
" style="fill: none; stroke: #f89540; stroke-width: 1.5; stroke-linecap: round"/>
    </g>
    <g id="text_29">
     <!-- 64 -->
     <g style="fill: #262626" transform="translate(462.09375 208.134412) scale(0.1 -0.1)">
      <use xlink:href="#DejaVuSans-36"/>
      <use xlink:href="#DejaVuSans-34" transform="translate(63.623047 0)"/>
     </g>
    </g>
    <g id="line2d_31">
     <path d="M 434.09375 219.312537 
L 444.09375 219.312537 
L 454.09375 219.312537 
" style="fill: none; stroke: #fdc527; stroke-width: 1.5; stroke-linecap: round"/>
    </g>
    <g id="text_30">
     <!-- 128 -->
     <g style="fill: #262626" transform="translate(462.09375 222.812537) scale(0.1 -0.1)">
      <use xlink:href="#DejaVuSans-31"/>
      <use xlink:href="#DejaVuSans-32" transform="translate(63.623047 0)"/>
      <use xlink:href="#DejaVuSans-38" transform="translate(127.246094 0)"/>
     </g>
    </g>
   </g>
  </g>
 </g>
 <defs>
  <clipPath id="pac0f373f2f">
   <rect x="43.78125" y="35.623725" width="357.12" height="266.112"/>
  </clipPath>
 </defs>
</svg>
