<?xml version="1.0" encoding="utf-8" standalone="no"?>
<!DOCTYPE svg PUBLIC "-//W3C//DTD SVG 1.1//EN"
  "http://www.w3.org/Graphics/SVG/1.1/DTD/svg11.dtd">
<svg xmlns:xlink="http://www.w3.org/1999/xlink" width="492.38125pt" height="339.291975pt" viewBox="0 0 492.38125 339.291975" xmlns="http://www.w3.org/2000/svg" version="1.1">
 <metadata>
  <rdf:RDF xmlns:dc="http://purl.org/dc/elements/1.1/" xmlns:cc="http://creativecommons.org/ns#" xmlns:rdf="http://www.w3.org/1999/02/22-rdf-syntax-ns#">
   <cc:Work>
    <dc:type rdf:resource="http://purl.org/dc/dcmitype/StillImage"/>
    <dc:date>2025-09-11T11:47:22.696865</dc:date>
    <dc:format>image/svg+xml</dc:format>
    <dc:creator>
     <cc:Agent>
      <dc:title>Matplotlib v3.10.6, https://matplotlib.org/</dc:title>
     </cc:Agent>
    </dc:creator>
   </cc:Work>
  </rdf:RDF>
 </metadata>
 <defs>
  <style type="text/css">*{stroke-linejoin: round; stroke-linecap: butt}</style>
 </defs>
 <g id="figure_1">
  <g id="patch_1">
   <path d="M 0 339.291975 
L 492.38125 339.291975 
L 492.38125 0 
L 0 0 
z
" style="fill: #ffffff"/>
  </g>
  <g id="axes_1">
   <g id="patch_2">
    <path d="M 43.78125 301.735725 
L 400.90125 301.735725 
L 400.90125 35.623725 
L 43.78125 35.623725 
z
" style="fill: #ffffff"/>
   </g>
   <g id="matplotlib.axis_1">
    <g id="xtick_1">
     <g id="line2d_1">
      <path d="M 384.668523 301.735725 
L 384.668523 35.623725 
" clip-path="url(#pebdcc25104)" style="fill: none; stroke: #cccccc; stroke-width: 0.8; stroke-linecap: round"/>
     </g>
     <g id="text_1">
      <!-- 128 -->
      <g style="fill: #262626" transform="translate(375.124773 316.334162) scale(0.1 -0.1)">
       <defs>
        <path id="DejaVuSans-31" d="M 794 531 
L 1825 531 
L 1825 4091 
L 703 3866 
L 703 4441 
L 1819 4666 
L 2450 4666 
L 2450 531 
L 3481 531 
L 3481 0 
L 794 0 
L 794 531 
z
" transform="scale(0.015625)"/>
        <path id="DejaVuSans-32" d="M 1228 531 
L 3431 531 
L 3431 0 
L 469 0 
L 469 531 
Q 828 903 1448 1529 
Q 2069 2156 2228 2338 
Q 2531 2678 2651 2914 
Q 2772 3150 2772 3378 
Q 2772 3750 2511 3984 
Q 2250 4219 1831 4219 
Q 1534 4219 1204 4116 
Q 875 4013 500 3803 
L 500 4441 
Q 881 4594 1212 4672 
Q 1544 4750 1819 4750 
Q 2544 4750 2975 4387 
Q 3406 4025 3406 3419 
Q 3406 3131 3298 2873 
Q 3191 2616 2906 2266 
Q 2828 2175 2409 1742 
Q 1991 1309 1228 531 
z
" transform="scale(0.015625)"/>
        <path id="DejaVuSans-38" d="M 2034 2216 
Q 1584 2216 1326 1975 
Q 1069 1734 1069 1313 
Q 1069 891 1326 650 
Q 1584 409 2034 409 
Q 2484 409 2743 651 
Q 3003 894 3003 1313 
Q 3003 1734 2745 1975 
Q 2488 2216 2034 2216 
z
M 1403 2484 
Q 997 2584 770 2862 
Q 544 3141 544 3541 
Q 544 4100 942 4425 
Q 1341 4750 2034 4750 
Q 2731 4750 3128 4425 
Q 3525 4100 3525 3541 
Q 3525 3141 3298 2862 
Q 3072 2584 2669 2484 
Q 3125 2378 3379 2068 
Q 3634 1759 3634 1313 
Q 3634 634 3220 271 
Q 2806 -91 2034 -91 
Q 1263 -91 848 271 
Q 434 634 434 1313 
Q 434 1759 690 2068 
Q 947 2378 1403 2484 
z
M 1172 3481 
Q 1172 3119 1398 2916 
Q 1625 2713 2034 2713 
Q 2441 2713 2670 2916 
Q 2900 3119 2900 3481 
Q 2900 3844 2670 4047 
Q 2441 4250 2034 4250 
Q 1625 4250 1398 4047 
Q 1172 3844 1172 3481 
z
" transform="scale(0.015625)"/>
       </defs>
       <use xlink:href="#DejaVuSans-31"/>
       <use xlink:href="#DejaVuSans-32" transform="translate(63.623047 0)"/>
       <use xlink:href="#DejaVuSans-38" transform="translate(127.246094 0)"/>
      </g>
     </g>
    </g>
    <g id="xtick_2">
     <g id="line2d_2">
      <path d="M 199.15164 301.735725 
L 199.15164 35.623725 
" clip-path="url(#pebdcc25104)" style="fill: none; stroke: #cccccc; stroke-width: 0.8; stroke-linecap: round"/>
     </g>
     <g id="text_2">
      <!-- 64 -->
      <g style="fill: #262626" transform="translate(192.78914 316.334162) scale(0.1 -0.1)">
       <defs>
        <path id="DejaVuSans-36" d="M 2113 2584 
Q 1688 2584 1439 2293 
Q 1191 2003 1191 1497 
Q 1191 994 1439 701 
Q 1688 409 2113 409 
Q 2538 409 2786 701 
Q 3034 994 3034 1497 
Q 3034 2003 2786 2293 
Q 2538 2584 2113 2584 
z
M 3366 4563 
L 3366 3988 
Q 3128 4100 2886 4159 
Q 2644 4219 2406 4219 
Q 1781 4219 1451 3797 
Q 1122 3375 1075 2522 
Q 1259 2794 1537 2939 
Q 1816 3084 2150 3084 
Q 2853 3084 3261 2657 
Q 3669 2231 3669 1497 
Q 3669 778 3244 343 
Q 2819 -91 2113 -91 
Q 1303 -91 875 529 
Q 447 1150 447 2328 
Q 447 3434 972 4092 
Q 1497 4750 2381 4750 
Q 2619 4750 2861 4703 
Q 3103 4656 3366 4563 
z
" transform="scale(0.015625)"/>
        <path id="DejaVuSans-34" d="M 2419 4116 
L 825 1625 
L 2419 1625 
L 2419 4116 
z
M 2253 4666 
L 3047 4666 
L 3047 1625 
L 3713 1625 
L 3713 1100 
L 3047 1100 
L 3047 0 
L 2419 0 
L 2419 1100 
L 313 1100 
L 313 1709 
L 2253 4666 
z
" transform="scale(0.015625)"/>
       </defs>
       <use xlink:href="#DejaVuSans-36"/>
       <use xlink:href="#DejaVuSans-34" transform="translate(63.623047 0)"/>
      </g>
     </g>
    </g>
    <g id="xtick_3">
     <g id="line2d_3">
      <path d="M 106.393198 301.735725 
L 106.393198 35.623725 
" clip-path="url(#pebdcc25104)" style="fill: none; stroke: #cccccc; stroke-width: 0.8; stroke-linecap: round"/>
     </g>
     <g id="text_3">
      <!-- 32 -->
      <g style="fill: #262626" transform="translate(100.030698 316.334162) scale(0.1 -0.1)">
       <defs>
        <path id="DejaVuSans-33" d="M 2597 2516 
Q 3050 2419 3304 2112 
Q 3559 1806 3559 1356 
Q 3559 666 3084 287 
Q 2609 -91 1734 -91 
Q 1441 -91 1130 -33 
Q 819 25 488 141 
L 488 750 
Q 750 597 1062 519 
Q 1375 441 1716 441 
Q 2309 441 2620 675 
Q 2931 909 2931 1356 
Q 2931 1769 2642 2001 
Q 2353 2234 1838 2234 
L 1294 2234 
L 1294 2753 
L 1863 2753 
Q 2328 2753 2575 2939 
Q 2822 3125 2822 3475 
Q 2822 3834 2567 4026 
Q 2313 4219 1838 4219 
Q 1578 4219 1281 4162 
Q 984 4106 628 3988 
L 628 4550 
Q 988 4650 1302 4700 
Q 1616 4750 1894 4750 
Q 2613 4750 3031 4423 
Q 3450 4097 3450 3541 
Q 3450 3153 3228 2886 
Q 3006 2619 2597 2516 
z
" transform="scale(0.015625)"/>
       </defs>
       <use xlink:href="#DejaVuSans-33"/>
       <use xlink:href="#DejaVuSans-32" transform="translate(63.623047 0)"/>
      </g>
     </g>
    </g>
    <g id="xtick_4">
     <g id="line2d_4">
      <path d="M 60.013977 301.735725 
L 60.013977 35.623725 
" clip-path="url(#pebdcc25104)" style="fill: none; stroke: #cccccc; stroke-width: 0.8; stroke-linecap: round"/>
     </g>
     <g id="text_4">
      <!-- 16 -->
      <g style="fill: #262626" transform="translate(53.651477 316.334162) scale(0.1 -0.1)">
       <use xlink:href="#DejaVuSans-31"/>
       <use xlink:href="#DejaVuSans-36" transform="translate(63.623047 0)"/>
      </g>
     </g>
    </g>
    <g id="text_5">
     <!-- Number of Jobs -->
     <g style="fill: #262626" transform="translate(183.944375 330.012287) scale(0.1 -0.1)">
      <defs>
       <path id="DejaVuSans-4e" d="M 628 4666 
L 1478 4666 
L 3547 763 
L 3547 4666 
L 4159 4666 
L 4159 0 
L 3309 0 
L 1241 3903 
L 1241 0 
L 628 0 
L 628 4666 
z
" transform="scale(0.015625)"/>
       <path id="DejaVuSans-75" d="M 544 1381 
L 544 3500 
L 1119 3500 
L 1119 1403 
Q 1119 906 1312 657 
Q 1506 409 1894 409 
Q 2359 409 2629 706 
Q 2900 1003 2900 1516 
L 2900 3500 
L 3475 3500 
L 3475 0 
L 2900 0 
L 2900 538 
Q 2691 219 2414 64 
Q 2138 -91 1772 -91 
Q 1169 -91 856 284 
Q 544 659 544 1381 
z
M 1991 3584 
L 1991 3584 
z
" transform="scale(0.015625)"/>
       <path id="DejaVuSans-6d" d="M 3328 2828 
Q 3544 3216 3844 3400 
Q 4144 3584 4550 3584 
Q 5097 3584 5394 3201 
Q 5691 2819 5691 2113 
L 5691 0 
L 5113 0 
L 5113 2094 
Q 5113 2597 4934 2840 
Q 4756 3084 4391 3084 
Q 3944 3084 3684 2787 
Q 3425 2491 3425 1978 
L 3425 0 
L 2847 0 
L 2847 2094 
Q 2847 2600 2669 2842 
Q 2491 3084 2119 3084 
Q 1678 3084 1418 2786 
Q 1159 2488 1159 1978 
L 1159 0 
L 581 0 
L 581 3500 
L 1159 3500 
L 1159 2956 
Q 1356 3278 1631 3431 
Q 1906 3584 2284 3584 
Q 2666 3584 2933 3390 
Q 3200 3197 3328 2828 
z
" transform="scale(0.015625)"/>
       <path id="DejaVuSans-62" d="M 3116 1747 
Q 3116 2381 2855 2742 
Q 2594 3103 2138 3103 
Q 1681 3103 1420 2742 
Q 1159 2381 1159 1747 
Q 1159 1113 1420 752 
Q 1681 391 2138 391 
Q 2594 391 2855 752 
Q 3116 1113 3116 1747 
z
M 1159 2969 
Q 1341 3281 1617 3432 
Q 1894 3584 2278 3584 
Q 2916 3584 3314 3078 
Q 3713 2572 3713 1747 
Q 3713 922 3314 415 
Q 2916 -91 2278 -91 
Q 1894 -91 1617 61 
Q 1341 213 1159 525 
L 1159 0 
L 581 0 
L 581 4863 
L 1159 4863 
L 1159 2969 
z
" transform="scale(0.015625)"/>
       <path id="DejaVuSans-65" d="M 3597 1894 
L 3597 1613 
L 953 1613 
Q 991 1019 1311 708 
Q 1631 397 2203 397 
Q 2534 397 2845 478 
Q 3156 559 3463 722 
L 3463 178 
Q 3153 47 2828 -22 
Q 2503 -91 2169 -91 
Q 1331 -91 842 396 
Q 353 884 353 1716 
Q 353 2575 817 3079 
Q 1281 3584 2069 3584 
Q 2775 3584 3186 3129 
Q 3597 2675 3597 1894 
z
M 3022 2063 
Q 3016 2534 2758 2815 
Q 2500 3097 2075 3097 
Q 1594 3097 1305 2825 
Q 1016 2553 972 2059 
L 3022 2063 
z
" transform="scale(0.015625)"/>
       <path id="DejaVuSans-72" d="M 2631 2963 
Q 2534 3019 2420 3045 
Q 2306 3072 2169 3072 
Q 1681 3072 1420 2755 
Q 1159 2438 1159 1844 
L 1159 0 
L 581 0 
L 581 3500 
L 1159 3500 
L 1159 2956 
Q 1341 3275 1631 3429 
Q 1922 3584 2338 3584 
Q 2397 3584 2469 3576 
Q 2541 3569 2628 3553 
L 2631 2963 
z
" transform="scale(0.015625)"/>
       <path id="DejaVuSans-20" transform="scale(0.015625)"/>
       <path id="DejaVuSans-6f" d="M 1959 3097 
Q 1497 3097 1228 2736 
Q 959 2375 959 1747 
Q 959 1119 1226 758 
Q 1494 397 1959 397 
Q 2419 397 2687 759 
Q 2956 1122 2956 1747 
Q 2956 2369 2687 2733 
Q 2419 3097 1959 3097 
z
M 1959 3584 
Q 2709 3584 3137 3096 
Q 3566 2609 3566 1747 
Q 3566 888 3137 398 
Q 2709 -91 1959 -91 
Q 1206 -91 779 398 
Q 353 888 353 1747 
Q 353 2609 779 3096 
Q 1206 3584 1959 3584 
z
" transform="scale(0.015625)"/>
       <path id="DejaVuSans-66" d="M 2375 4863 
L 2375 4384 
L 1825 4384 
Q 1516 4384 1395 4259 
Q 1275 4134 1275 3809 
L 1275 3500 
L 2222 3500 
L 2222 3053 
L 1275 3053 
L 1275 0 
L 697 0 
L 697 3053 
L 147 3053 
L 147 3500 
L 697 3500 
L 697 3744 
Q 697 4328 969 4595 
Q 1241 4863 1831 4863 
L 2375 4863 
z
" transform="scale(0.015625)"/>
       <path id="DejaVuSans-4a" d="M 628 4666 
L 1259 4666 
L 1259 325 
Q 1259 -519 939 -900 
Q 619 -1281 -91 -1281 
L -331 -1281 
L -331 -750 
L -134 -750 
Q 284 -750 456 -515 
Q 628 -281 628 325 
L 628 4666 
z
" transform="scale(0.015625)"/>
       <path id="DejaVuSans-73" d="M 2834 3397 
L 2834 2853 
Q 2591 2978 2328 3040 
Q 2066 3103 1784 3103 
Q 1356 3103 1142 2972 
Q 928 2841 928 2578 
Q 928 2378 1081 2264 
Q 1234 2150 1697 2047 
L 1894 2003 
Q 2506 1872 2764 1633 
Q 3022 1394 3022 966 
Q 3022 478 2636 193 
Q 2250 -91 1575 -91 
Q 1294 -91 989 -36 
Q 684 19 347 128 
L 347 722 
Q 666 556 975 473 
Q 1284 391 1588 391 
Q 1994 391 2212 530 
Q 2431 669 2431 922 
Q 2431 1156 2273 1281 
Q 2116 1406 1581 1522 
L 1381 1569 
Q 847 1681 609 1914 
Q 372 2147 372 2553 
Q 372 3047 722 3315 
Q 1072 3584 1716 3584 
Q 2034 3584 2315 3537 
Q 2597 3491 2834 3397 
z
" transform="scale(0.015625)"/>
      </defs>
      <use xlink:href="#DejaVuSans-4e"/>
      <use xlink:href="#DejaVuSans-75" transform="translate(74.804688 0)"/>
      <use xlink:href="#DejaVuSans-6d" transform="translate(138.183594 0)"/>
      <use xlink:href="#DejaVuSans-62" transform="translate(235.595703 0)"/>
      <use xlink:href="#DejaVuSans-65" transform="translate(299.072266 0)"/>
      <use xlink:href="#DejaVuSans-72" transform="translate(360.595703 0)"/>
      <use xlink:href="#DejaVuSans-20" transform="translate(401.708984 0)"/>
      <use xlink:href="#DejaVuSans-6f" transform="translate(433.496094 0)"/>
      <use xlink:href="#DejaVuSans-66" transform="translate(494.677734 0)"/>
      <use xlink:href="#DejaVuSans-20" transform="translate(529.882812 0)"/>
      <use xlink:href="#DejaVuSans-4a" transform="translate(561.669922 0)"/>
      <use xlink:href="#DejaVuSans-6f" transform="translate(591.162109 0)"/>
      <use xlink:href="#DejaVuSans-62" transform="translate(652.34375 0)"/>
      <use xlink:href="#DejaVuSans-73" transform="translate(715.820312 0)"/>
     </g>
    </g>
   </g>
   <g id="matplotlib.axis_2">
    <g id="ytick_1">
     <g id="line2d_5">
      <path d="M 43.78125 272.55207 
L 400.90125 272.55207 
" clip-path="url(#pebdcc25104)" style="fill: none; stroke: #cccccc; stroke-width: 0.8; stroke-linecap: round"/>
     </g>
     <g id="text_6">
      <!-- 0.5 -->
      <g style="fill: #262626" transform="translate(20.878125 276.351289) scale(0.1 -0.1)">
       <defs>
        <path id="DejaVuSans-30" d="M 2034 4250 
Q 1547 4250 1301 3770 
Q 1056 3291 1056 2328 
Q 1056 1369 1301 889 
Q 1547 409 2034 409 
Q 2525 409 2770 889 
Q 3016 1369 3016 2328 
Q 3016 3291 2770 3770 
Q 2525 4250 2034 4250 
z
M 2034 4750 
Q 2819 4750 3233 4129 
Q 3647 3509 3647 2328 
Q 3647 1150 3233 529 
Q 2819 -91 2034 -91 
Q 1250 -91 836 529 
Q 422 1150 422 2328 
Q 422 3509 836 4129 
Q 1250 4750 2034 4750 
z
" transform="scale(0.015625)"/>
        <path id="DejaVuSans-2e" d="M 684 794 
L 1344 794 
L 1344 0 
L 684 0 
L 684 794 
z
" transform="scale(0.015625)"/>
        <path id="DejaVuSans-35" d="M 691 4666 
L 3169 4666 
L 3169 4134 
L 1269 4134 
L 1269 2991 
Q 1406 3038 1543 3061 
Q 1681 3084 1819 3084 
Q 2600 3084 3056 2656 
Q 3513 2228 3513 1497 
Q 3513 744 3044 326 
Q 2575 -91 1722 -91 
Q 1428 -91 1123 -41 
Q 819 9 494 109 
L 494 744 
Q 775 591 1075 516 
Q 1375 441 1709 441 
Q 2250 441 2565 725 
Q 2881 1009 2881 1497 
Q 2881 1984 2565 2268 
Q 2250 2553 1709 2553 
Q 1456 2553 1204 2497 
Q 953 2441 691 2322 
L 691 4666 
z
" transform="scale(0.015625)"/>
       </defs>
       <use xlink:href="#DejaVuSans-30"/>
       <use xlink:href="#DejaVuSans-2e" transform="translate(63.623047 0)"/>
       <use xlink:href="#DejaVuSans-35" transform="translate(95.410156 0)"/>
      </g>
     </g>
    </g>
    <g id="ytick_2">
     <g id="line2d_6">
      <path d="M 43.78125 227.370732 
L 400.90125 227.370732 
" clip-path="url(#pebdcc25104)" style="fill: none; stroke: #cccccc; stroke-width: 0.8; stroke-linecap: round"/>
     </g>
     <g id="text_7">
      <!-- 1.0 -->
      <g style="fill: #262626" transform="translate(20.878125 231.169951) scale(0.1 -0.1)">
       <use xlink:href="#DejaVuSans-31"/>
       <use xlink:href="#DejaVuSans-2e" transform="translate(63.623047 0)"/>
       <use xlink:href="#DejaVuSans-30" transform="translate(95.410156 0)"/>
      </g>
     </g>
    </g>
    <g id="ytick_3">
     <g id="line2d_7">
      <path d="M 43.78125 182.189394 
L 400.90125 182.189394 
" clip-path="url(#pebdcc25104)" style="fill: none; stroke: #cccccc; stroke-width: 0.8; stroke-linecap: round"/>
     </g>
     <g id="text_8">
      <!-- 1.5 -->
      <g style="fill: #262626" transform="translate(20.878125 185.988613) scale(0.1 -0.1)">
       <use xlink:href="#DejaVuSans-31"/>
       <use xlink:href="#DejaVuSans-2e" transform="translate(63.623047 0)"/>
       <use xlink:href="#DejaVuSans-35" transform="translate(95.410156 0)"/>
      </g>
     </g>
    </g>
    <g id="ytick_4">
     <g id="line2d_8">
      <path d="M 43.78125 137.008056 
L 400.90125 137.008056 
" clip-path="url(#pebdcc25104)" style="fill: none; stroke: #cccccc; stroke-width: 0.8; stroke-linecap: round"/>
     </g>
     <g id="text_9">
      <!-- 2.0 -->
      <g style="fill: #262626" transform="translate(20.878125 140.807274) scale(0.1 -0.1)">
       <use xlink:href="#DejaVuSans-32"/>
       <use xlink:href="#DejaVuSans-2e" transform="translate(63.623047 0)"/>
       <use xlink:href="#DejaVuSans-30" transform="translate(95.410156 0)"/>
      </g>
     </g>
    </g>
    <g id="ytick_5">
     <g id="line2d_9">
      <path d="M 43.78125 91.826717 
L 400.90125 91.826717 
" clip-path="url(#pebdcc25104)" style="fill: none; stroke: #cccccc; stroke-width: 0.8; stroke-linecap: round"/>
     </g>
     <g id="text_10">
      <!-- 2.5 -->
      <g style="fill: #262626" transform="translate(20.878125 95.625936) scale(0.1 -0.1)">
       <use xlink:href="#DejaVuSans-32"/>
       <use xlink:href="#DejaVuSans-2e" transform="translate(63.623047 0)"/>
       <use xlink:href="#DejaVuSans-35" transform="translate(95.410156 0)"/>
      </g>
     </g>
    </g>
    <g id="ytick_6">
     <g id="line2d_10">
      <path d="M 43.78125 46.645379 
L 400.90125 46.645379 
" clip-path="url(#pebdcc25104)" style="fill: none; stroke: #cccccc; stroke-width: 0.8; stroke-linecap: round"/>
     </g>
     <g id="text_11">
      <!-- 3.0 -->
      <g style="fill: #262626" transform="translate(20.878125 50.444598) scale(0.1 -0.1)">
       <use xlink:href="#DejaVuSans-33"/>
       <use xlink:href="#DejaVuSans-2e" transform="translate(63.623047 0)"/>
       <use xlink:href="#DejaVuSans-30" transform="translate(95.410156 0)"/>
      </g>
     </g>
    </g>
    <g id="text_12">
     <!-- Mean Latency (ns) -->
     <g style="fill: #262626" transform="translate(14.798438 214.92035) rotate(-90) scale(0.1 -0.1)">
      <defs>
       <path id="DejaVuSans-4d" d="M 628 4666 
L 1569 4666 
L 2759 1491 
L 3956 4666 
L 4897 4666 
L 4897 0 
L 4281 0 
L 4281 4097 
L 3078 897 
L 2444 897 
L 1241 4097 
L 1241 0 
L 628 0 
L 628 4666 
z
" transform="scale(0.015625)"/>
       <path id="DejaVuSans-61" d="M 2194 1759 
Q 1497 1759 1228 1600 
Q 959 1441 959 1056 
Q 959 750 1161 570 
Q 1363 391 1709 391 
Q 2188 391 2477 730 
Q 2766 1069 2766 1631 
L 2766 1759 
L 2194 1759 
z
M 3341 1997 
L 3341 0 
L 2766 0 
L 2766 531 
Q 2569 213 2275 61 
Q 1981 -91 1556 -91 
Q 1019 -91 701 211 
Q 384 513 384 1019 
Q 384 1609 779 1909 
Q 1175 2209 1959 2209 
L 2766 2209 
L 2766 2266 
Q 2766 2663 2505 2880 
Q 2244 3097 1772 3097 
Q 1472 3097 1187 3025 
Q 903 2953 641 2809 
L 641 3341 
Q 956 3463 1253 3523 
Q 1550 3584 1831 3584 
Q 2591 3584 2966 3190 
Q 3341 2797 3341 1997 
z
" transform="scale(0.015625)"/>
       <path id="DejaVuSans-6e" d="M 3513 2113 
L 3513 0 
L 2938 0 
L 2938 2094 
Q 2938 2591 2744 2837 
Q 2550 3084 2163 3084 
Q 1697 3084 1428 2787 
Q 1159 2491 1159 1978 
L 1159 0 
L 581 0 
L 581 3500 
L 1159 3500 
L 1159 2956 
Q 1366 3272 1645 3428 
Q 1925 3584 2291 3584 
Q 2894 3584 3203 3211 
Q 3513 2838 3513 2113 
z
" transform="scale(0.015625)"/>
       <path id="DejaVuSans-4c" d="M 628 4666 
L 1259 4666 
L 1259 531 
L 3531 531 
L 3531 0 
L 628 0 
L 628 4666 
z
" transform="scale(0.015625)"/>
       <path id="DejaVuSans-74" d="M 1172 4494 
L 1172 3500 
L 2356 3500 
L 2356 3053 
L 1172 3053 
L 1172 1153 
Q 1172 725 1289 603 
Q 1406 481 1766 481 
L 2356 481 
L 2356 0 
L 1766 0 
Q 1100 0 847 248 
Q 594 497 594 1153 
L 594 3053 
L 172 3053 
L 172 3500 
L 594 3500 
L 594 4494 
L 1172 4494 
z
" transform="scale(0.015625)"/>
       <path id="DejaVuSans-63" d="M 3122 3366 
L 3122 2828 
Q 2878 2963 2633 3030 
Q 2388 3097 2138 3097 
Q 1578 3097 1268 2742 
Q 959 2388 959 1747 
Q 959 1106 1268 751 
Q 1578 397 2138 397 
Q 2388 397 2633 464 
Q 2878 531 3122 666 
L 3122 134 
Q 2881 22 2623 -34 
Q 2366 -91 2075 -91 
Q 1284 -91 818 406 
Q 353 903 353 1747 
Q 353 2603 823 3093 
Q 1294 3584 2113 3584 
Q 2378 3584 2631 3529 
Q 2884 3475 3122 3366 
z
" transform="scale(0.015625)"/>
       <path id="DejaVuSans-79" d="M 2059 -325 
Q 1816 -950 1584 -1140 
Q 1353 -1331 966 -1331 
L 506 -1331 
L 506 -850 
L 844 -850 
Q 1081 -850 1212 -737 
Q 1344 -625 1503 -206 
L 1606 56 
L 191 3500 
L 800 3500 
L 1894 763 
L 2988 3500 
L 3597 3500 
L 2059 -325 
z
" transform="scale(0.015625)"/>
       <path id="DejaVuSans-28" d="M 1984 4856 
Q 1566 4138 1362 3434 
Q 1159 2731 1159 2009 
Q 1159 1288 1364 580 
Q 1569 -128 1984 -844 
L 1484 -844 
Q 1016 -109 783 600 
Q 550 1309 550 2009 
Q 550 2706 781 3412 
Q 1013 4119 1484 4856 
L 1984 4856 
z
" transform="scale(0.015625)"/>
       <path id="DejaVuSans-29" d="M 513 4856 
L 1013 4856 
Q 1481 4119 1714 3412 
Q 1947 2706 1947 2009 
Q 1947 1309 1714 600 
Q 1481 -109 1013 -844 
L 513 -844 
Q 928 -128 1133 580 
Q 1338 1288 1338 2009 
Q 1338 2731 1133 3434 
Q 928 4138 513 4856 
z
" transform="scale(0.015625)"/>
      </defs>
      <use xlink:href="#DejaVuSans-4d"/>
      <use xlink:href="#DejaVuSans-65" transform="translate(86.279297 0)"/>
      <use xlink:href="#DejaVuSans-61" transform="translate(147.802734 0)"/>
      <use xlink:href="#DejaVuSans-6e" transform="translate(209.082031 0)"/>
      <use xlink:href="#DejaVuSans-20" transform="translate(272.460938 0)"/>
      <use xlink:href="#DejaVuSans-4c" transform="translate(304.248047 0)"/>
      <use xlink:href="#DejaVuSans-61" transform="translate(359.960938 0)"/>
      <use xlink:href="#DejaVuSans-74" transform="translate(421.240234 0)"/>
      <use xlink:href="#DejaVuSans-65" transform="translate(460.449219 0)"/>
      <use xlink:href="#DejaVuSans-6e" transform="translate(521.972656 0)"/>
      <use xlink:href="#DejaVuSans-63" transform="translate(585.351562 0)"/>
      <use xlink:href="#DejaVuSans-79" transform="translate(640.332031 0)"/>
      <use xlink:href="#DejaVuSans-20" transform="translate(699.511719 0)"/>
      <use xlink:href="#DejaVuSans-28" transform="translate(731.298828 0)"/>
      <use xlink:href="#DejaVuSans-6e" transform="translate(770.3125 0)"/>
      <use xlink:href="#DejaVuSans-73" transform="translate(833.691406 0)"/>
      <use xlink:href="#DejaVuSans-29" transform="translate(885.791016 0)"/>
     </g>
    </g>
    <g id="text_13">
     <!-- 1e6 -->
     <g style="fill: #262626" transform="translate(43.78125 32.623725) scale(0.1 -0.1)">
      <use xlink:href="#DejaVuSans-31"/>
      <use xlink:href="#DejaVuSans-65" transform="translate(63.623047 0)"/>
      <use xlink:href="#DejaVuSans-36" transform="translate(125.146484 0)"/>
     </g>
    </g>
   </g>
   <g id="FillBetweenPolyCollection_1"/>
   <g id="FillBetweenPolyCollection_2"/>
   <g id="FillBetweenPolyCollection_3"/>
   <g id="FillBetweenPolyCollection_4"/>
   <g id="FillBetweenPolyCollection_5"/>
   <g id="FillBetweenPolyCollection_6"/>
   <g id="FillBetweenPolyCollection_7"/>
   <g id="line2d_11">
    <path d="M 60.013977 287.926682 
L 106.393198 258.928358 
L 199.15164 180.104181 
L 384.668523 57.591475 
" clip-path="url(#pebdcc25104)" style="fill: none; stroke: #4c02a1; stroke-width: 1.5; stroke-linecap: round"/>
   </g>
   <g id="line2d_12">
    <path d="M 60.013977 288.868591 
L 106.393198 264.431452 
L 199.15164 213.550441 
L 384.668523 90.677272 
" clip-path="url(#pebdcc25104)" style="fill: none; stroke: #7e03a8; stroke-width: 1.5; stroke-linecap: round"/>
   </g>
   <g id="line2d_13">
    <path d="M 60.013977 289.278037 
L 106.393198 267.395457 
L 199.15164 191.748076 
L 384.668523 47.719725 
" clip-path="url(#pebdcc25104)" style="fill: none; stroke: #aa2395; stroke-width: 1.5; stroke-linecap: round"/>
   </g>
   <g id="line2d_14">
    <path d="M 60.013977 285.355811 
L 106.393198 265.667282 
L 199.15164 212.872431 
L 384.668523 55.108517 
" clip-path="url(#pebdcc25104)" style="fill: none; stroke: #cc4778; stroke-width: 1.5; stroke-linecap: round"/>
   </g>
   <g id="line2d_15">
    <path d="M 60.013977 288.125579 
L 106.393198 260.510975 
L 199.15164 208.507593 
L 384.668523 98.372148 
" clip-path="url(#pebdcc25104)" style="fill: none; stroke: #e66c5c; stroke-width: 1.5; stroke-linecap: round"/>
   </g>
   <g id="line2d_16">
    <path d="M 60.013977 288.879235 
L 106.393198 261.389924 
L 199.15164 209.530185 
L 384.668523 95.870481 
" clip-path="url(#pebdcc25104)" style="fill: none; stroke: #f89540; stroke-width: 1.5; stroke-linecap: round"/>
   </g>
   <g id="line2d_17">
    <path d="M 60.013977 289.639725 
L 106.393198 266.402042 
L 199.15164 210.090775 
L 384.668523 93.694953 
" clip-path="url(#pebdcc25104)" style="fill: none; stroke: #fdc527; stroke-width: 1.5; stroke-linecap: round"/>
   </g>
   <g id="line2d_18"/>
   <g id="line2d_19"/>
   <g id="line2d_20"/>
   <g id="line2d_21"/>
   <g id="line2d_22"/>
   <g id="line2d_23"/>
   <g id="line2d_24"/>
   <g id="text_14">
    <path d="M 101.190803 264.456953 
L 102.556725 263.602918 
L 99.607779 258.886445 
L 98.307675 260.113952 
L 97.831371 259.352162 
L 99.123526 258.129625 
L 99.959507 257.606932 
L 103.384758 263.085196 
L 104.750681 262.231161 
L 105.190537 262.934658 
L 101.63066 265.160449 
L 101.190803 264.456953 
z
" clip-path="url(#pebdcc25104)" style="fill: #4c02a1; stroke: #ffffff; stroke-width: 5"/>
    <path d="M 101.190803 264.456953 
L 102.556725 263.602918 
L 99.607779 258.886445 
L 98.307675 260.113952 
L 97.831371 259.352162 
L 99.123526 258.129625 
L 99.959507 257.606932 
L 103.384758 263.085196 
L 104.750681 262.231161 
L 105.190537 262.934658 
L 101.63066 265.160449 
L 101.190803 264.456953 
z
" clip-path="url(#pebdcc25104)" style="fill: #4c02a1"/>
   </g>
   <g id="text_15">
    <path d="M 140.748018 241.398709 
L 140.436213 246.009036 
L 142.61989 244.811218 
L 140.748018 241.398709 
z
M 140.107309 240.769986 
L 141.195038 240.173331 
L 143.48021 244.339305 
L 144.392587 243.838837 
L 144.7871 244.558053 
L 143.874723 245.058521 
L 144.701322 246.56545 
L 143.841003 247.037363 
L 143.014404 245.530434 
L 140.12932 247.112996 
L 139.671684 246.278706 
L 140.107309 240.769986 
z
" clip-path="url(#pebdcc25104)" style="fill: #7e03a8; stroke: #ffffff; stroke-width: 5"/>
    <path d="M 140.748018 241.398709 
L 140.436213 246.009036 
L 142.61989 244.811218 
L 140.748018 241.398709 
z
M 140.107309 240.769986 
L 141.195038 240.173331 
L 143.48021 244.339305 
L 144.392587 243.838837 
L 144.7871 244.558053 
L 143.874723 245.058521 
L 144.701322 246.56545 
L 143.841003 247.037363 
L 143.014404 245.530434 
L 140.12932 247.112996 
L 139.671684 246.278706 
L 140.107309 240.769986 
z
" clip-path="url(#pebdcc25104)" style="fill: #7e03a8"/>
   </g>
   <g id="text_16">
    <path d="M 181.718449 205.058082 
Q 181.173553 205.502461 181.099136 206.049061 
Q 181.025929 206.594673 181.441671 207.104453 
Q 181.8584 207.615445 182.407586 207.653477 
Q 182.957983 207.690521 183.502879 207.246142 
Q 184.047775 206.801762 184.122416 206.252964 
Q 184.19728 205.701968 183.783513 205.194609 
Q 183.367771 204.684829 182.817374 204.647784 
Q 182.268188 204.609752 181.718449 205.058082 
z
M 180.689731 205.356685 
Q 180.099363 205.636526 179.549965 205.524066 
Q 179.000791 205.409408 178.605787 204.925056 
Q 178.053769 204.248174 178.214758 203.461609 
Q 178.376958 202.674056 179.216098 201.989712 
Q 180.060082 201.301417 180.861742 201.302912 
Q 181.663402 201.304406 182.21542 201.981288 
Q 182.610424 202.46564 182.611069 203.027641 
Q 182.611938 203.587442 182.222705 204.106497 
Q 182.879542 203.784546 183.493234 203.909091 
Q 184.107149 204.031438 184.547578 204.57149 
Q 185.218097 205.393678 185.075259 206.242056 
Q 184.931434 207.089224 183.996634 207.851582 
Q 183.063046 208.612952 182.203052 208.58443 
Q 181.343282 208.55371 180.672762 207.731522 
Q 180.232333 207.19147 180.237178 206.564505 
Q 180.242246 205.935343 180.689731 205.356685 
z
M 179.42547 204.377552 
Q 179.782949 204.815891 180.257072 204.838522 
Q 180.732406 204.860166 181.227656 204.456274 
Q 181.720484 204.054358 181.797311 203.582409 
Q 181.875349 203.109473 181.51787 202.671135 
Q 181.159404 202.231585 180.680437 202.212904 
Q 180.202681 202.193235 179.709853 202.595152 
Q 179.214603 202.999044 179.140198 203.469017 
Q 179.067004 203.938003 179.42547 204.377552 
z
" clip-path="url(#pebdcc25104)" style="fill: #aa2395; stroke: #ffffff; stroke-width: 5"/>
    <path d="M 181.718449 205.058082 
Q 181.173553 205.502461 181.099136 206.049061 
Q 181.025929 206.594673 181.441671 207.104453 
Q 181.8584 207.615445 182.407586 207.653477 
Q 182.957983 207.690521 183.502879 207.246142 
Q 184.047775 206.801762 184.122416 206.252964 
Q 184.19728 205.701968 183.783513 205.194609 
Q 183.367771 204.684829 182.817374 204.647784 
Q 182.268188 204.609752 181.718449 205.058082 
z
M 180.689731 205.356685 
Q 180.099363 205.636526 179.549965 205.524066 
Q 179.000791 205.409408 178.605787 204.925056 
Q 178.053769 204.248174 178.214758 203.461609 
Q 178.376958 202.674056 179.216098 201.989712 
Q 180.060082 201.301417 180.861742 201.302912 
Q 181.663402 201.304406 182.21542 201.981288 
Q 182.610424 202.46564 182.611069 203.027641 
Q 182.611938 203.587442 182.222705 204.106497 
Q 182.879542 203.784546 183.493234 203.909091 
Q 184.107149 204.031438 184.547578 204.57149 
Q 185.218097 205.393678 185.075259 206.242056 
Q 184.931434 207.089224 183.996634 207.851582 
Q 183.063046 208.612952 182.203052 208.58443 
Q 181.343282 208.55371 180.672762 207.731522 
Q 180.232333 207.19147 180.237178 206.564505 
Q 180.242246 205.935343 180.689731 205.356685 
z
M 179.42547 204.377552 
Q 179.782949 204.815891 180.257072 204.838522 
Q 180.732406 204.860166 181.227656 204.456274 
Q 181.720484 204.054358 181.797311 203.582409 
Q 181.875349 203.109473 181.51787 202.671135 
Q 181.159404 202.231585 180.680437 202.212904 
Q 180.202681 202.193235 179.709853 202.595152 
Q 179.214603 202.999044 179.140198 203.469017 
Q 179.067004 203.938003 179.42547 204.377552 
z
" clip-path="url(#pebdcc25104)" style="fill: #aa2395"/>
   </g>
   <g id="text_17">
    <path d="M 219.689568 197.940039 
L 220.916761 196.896432 
L 217.313228 192.658985 
L 216.20547 194.062521 
L 215.623438 193.378102 
L 216.724055 191.980639 
L 217.475131 191.341923 
L 221.660695 196.263789 
L 222.887888 195.220182 
L 223.425381 195.852228 
L 220.227061 198.572085 
L 219.689568 197.940039 
z
M 224.02819 190.039569 
Q 223.522315 190.469766 223.52049 191.068187 
Q 223.518843 191.664404 224.031031 192.266693 
Q 224.540182 192.865411 225.131958 192.963135 
Q 225.723912 193.058656 226.229786 192.628459 
Q 226.735661 192.198262 226.735284 191.599663 
Q 226.733894 190.999874 226.224743 190.401156 
Q 225.712555 189.798868 225.123816 189.704715 
Q 224.534065 189.609372 224.02819 190.039569 
z
M 223.516428 186.415655 
L 224.09846 187.100074 
Q 223.7018 187.207671 223.354027 187.382403 
Q 223.005243 187.555945 222.721953 187.796855 
Q 221.978019 188.429498 222.012382 189.265837 
Q 222.047936 190.101165 222.855423 191.16406 
Q 222.799111 190.65405 222.983239 190.200058 
Q 223.168558 189.745054 223.566116 189.40697 
Q 224.402893 188.695373 225.320755 188.790639 
Q 226.237604 188.884715 226.98058 189.758391 
Q 227.708372 190.614213 227.642816 191.562188 
Q 227.576248 192.508972 226.735901 193.223606 
Q 225.771762 194.043511 224.634735 193.738762 
Q 223.496695 193.432823 222.30429 192.030657 
Q 221.184766 190.714192 221.143624 189.399558 
Q 221.102482 188.084925 222.154702 187.190115 
Q 222.437992 186.949204 222.773618 186.760189 
Q 223.109244 186.571174 223.516428 186.415655 
z
" clip-path="url(#pebdcc25104)" style="fill: #cc4778; stroke: #ffffff; stroke-width: 5"/>
    <path d="M 219.689568 197.940039 
L 220.916761 196.896432 
L 217.313228 192.658985 
L 216.20547 194.062521 
L 215.623438 193.378102 
L 216.724055 191.980639 
L 217.475131 191.341923 
L 221.660695 196.263789 
L 222.887888 195.220182 
L 223.425381 195.852228 
L 220.227061 198.572085 
L 219.689568 197.940039 
z
M 224.02819 190.039569 
Q 223.522315 190.469766 223.52049 191.068187 
Q 223.518843 191.664404 224.031031 192.266693 
Q 224.540182 192.865411 225.131958 192.963135 
Q 225.723912 193.058656 226.229786 192.628459 
Q 226.735661 192.198262 226.735284 191.599663 
Q 226.733894 190.999874 226.224743 190.401156 
Q 225.712555 189.798868 225.123816 189.704715 
Q 224.534065 189.609372 224.02819 190.039569 
z
M 223.516428 186.415655 
L 224.09846 187.100074 
Q 223.7018 187.207671 223.354027 187.382403 
Q 223.005243 187.555945 222.721953 187.796855 
Q 221.978019 188.429498 222.012382 189.265837 
Q 222.047936 190.101165 222.855423 191.16406 
Q 222.799111 190.65405 222.983239 190.200058 
Q 223.168558 189.745054 223.566116 189.40697 
Q 224.402893 188.695373 225.320755 188.790639 
Q 226.237604 188.884715 226.98058 189.758391 
Q 227.708372 190.614213 227.642816 191.562188 
Q 227.576248 192.508972 226.735901 193.223606 
Q 225.771762 194.043511 224.634735 193.738762 
Q 223.496695 193.432823 222.30429 192.030657 
Q 221.184766 190.714192 221.143624 189.399558 
Q 221.102482 188.084925 222.154702 187.190115 
Q 222.437992 186.949204 222.773618 186.760189 
Q 223.109244 186.571174 223.516428 186.415655 
z
" clip-path="url(#pebdcc25104)" style="fill: #cc4778"/>
   </g>
   <g id="text_18">
    <path d="M 259.937256 171.058289 
Q 260.623264 170.827287 261.209405 171.037164 
Q 261.796092 171.244899 262.155028 171.849507 
Q 262.705397 172.776571 262.369504 173.664661 
Q 262.032814 174.551408 260.857189 175.249339 
Q 260.463523 175.483046 259.999409 175.653184 
Q 259.535296 175.823321 258.998048 175.931484 
L 258.512288 175.113249 
Q 258.986342 175.109835 259.467751 174.965771 
Q 259.950505 174.82091 260.408663 174.548916 
Q 261.205401 174.075919 261.436605 173.513458 
Q 261.667809 172.950998 261.311266 172.350422 
Q 260.981842 171.795527 260.408499 171.714335 
Q 259.834357 171.631799 259.142418 172.042581 
L 258.411515 172.476495 
L 257.997543 171.779182 
L 258.762035 171.325327 
Q 259.386795 170.954427 259.570297 170.507506 
Q 259.753799 170.060586 259.474627 169.590336 
Q 259.188276 169.107994 258.692519 169.053425 
Q 258.197308 168.996715 257.559112 169.375592 
Q 257.209783 169.582977 256.856208 169.896459 
Q 256.501835 170.208596 256.117644 170.651096 
L 255.669373 169.896009 
Q 256.073295 169.474503 256.455295 169.156867 
Q 256.837295 168.839231 257.210808 168.617488 
Q 258.176835 168.043988 258.999275 168.149925 
Q 259.822261 168.25372 260.265746 169.000745 
Q 260.575228 169.522051 260.489924 170.05786 
Q 260.40462 170.593668 259.937256 171.058289 
z
M 265.152067 171.569369 
L 268.111955 169.812179 
L 268.5355 170.525615 
L 264.555841 172.888211 
L 264.132297 172.174775 
Q 264.317918 171.388615 264.651613 170.053005 
Q 264.985853 168.715255 265.054312 168.343901 
Q 265.190218 167.645403 265.163204 167.232604 
Q 265.137535 166.819007 264.955674 166.512673 
Q 264.658953 166.012864 264.121634 165.906651 
Q 263.583518 165.799095 263.020562 166.133304 
Q 262.621521 166.370202 262.260299 166.771809 
Q 261.90042 167.172619 261.564084 167.753882 
L 261.055193 166.896684 
Q 261.445056 166.387218 261.827562 166.018403 
Q 262.211412 165.648789 262.580894 165.429439 
Q 263.554984 164.851154 264.423605 164.995089 
Q 265.291428 165.137681 265.774795 165.951885 
Q 266.004514 166.338834 266.065198 166.77162 
Q 266.126428 167.202265 266.022683 167.899841 
Q 265.990469 168.084321 265.772889 169.000297 
Q 265.556652 169.915475 265.152067 171.569369 
z
" clip-path="url(#pebdcc25104)" style="fill: #e66c5c; stroke: #ffffff; stroke-width: 5"/>
    <path d="M 259.937256 171.058289 
Q 260.623264 170.827287 261.209405 171.037164 
Q 261.796092 171.244899 262.155028 171.849507 
Q 262.705397 172.776571 262.369504 173.664661 
Q 262.032814 174.551408 260.857189 175.249339 
Q 260.463523 175.483046 259.999409 175.653184 
Q 259.535296 175.823321 258.998048 175.931484 
L 258.512288 175.113249 
Q 258.986342 175.109835 259.467751 174.965771 
Q 259.950505 174.82091 260.408663 174.548916 
Q 261.205401 174.075919 261.436605 173.513458 
Q 261.667809 172.950998 261.311266 172.350422 
Q 260.981842 171.795527 260.408499 171.714335 
Q 259.834357 171.631799 259.142418 172.042581 
L 258.411515 172.476495 
L 257.997543 171.779182 
L 258.762035 171.325327 
Q 259.386795 170.954427 259.570297 170.507506 
Q 259.753799 170.060586 259.474627 169.590336 
Q 259.188276 169.107994 258.692519 169.053425 
Q 258.197308 168.996715 257.559112 169.375592 
Q 257.209783 169.582977 256.856208 169.896459 
Q 256.501835 170.208596 256.117644 170.651096 
L 255.669373 169.896009 
Q 256.073295 169.474503 256.455295 169.156867 
Q 256.837295 168.839231 257.210808 168.617488 
Q 258.176835 168.043988 258.999275 168.149925 
Q 259.822261 168.25372 260.265746 169.000745 
Q 260.575228 169.522051 260.489924 170.05786 
Q 260.40462 170.593668 259.937256 171.058289 
z
M 265.152067 171.569369 
L 268.111955 169.812179 
L 268.5355 170.525615 
L 264.555841 172.888211 
L 264.132297 172.174775 
Q 264.317918 171.388615 264.651613 170.053005 
Q 264.985853 168.715255 265.054312 168.343901 
Q 265.190218 167.645403 265.163204 167.232604 
Q 265.137535 166.819007 264.955674 166.512673 
Q 264.658953 166.012864 264.121634 165.906651 
Q 263.583518 165.799095 263.020562 166.133304 
Q 262.621521 166.370202 262.260299 166.771809 
Q 261.90042 167.172619 261.564084 167.753882 
L 261.055193 166.896684 
Q 261.445056 166.387218 261.827562 166.018403 
Q 262.211412 165.648789 262.580894 165.429439 
Q 263.554984 164.851154 264.423605 164.995089 
Q 265.291428 165.137681 265.774795 165.951885 
Q 266.004514 166.338834 266.065198 166.77162 
Q 266.126428 167.202265 266.022683 167.899841 
Q 265.990469 168.084321 265.772889 169.000297 
Q 265.556652 169.915475 265.152067 171.569369 
z
" clip-path="url(#pebdcc25104)" style="fill: #e66c5c"/>
   </g>
   <g id="text_19">
    <path d="M 299.415503 146.603094 
Q 298.849262 146.95001 298.755047 147.54097 
Q 298.661348 148.129781 299.074382 148.803941 
Q 299.484967 149.474103 300.054553 149.662041 
Q 300.624655 149.847829 301.190896 149.500914 
Q 301.757136 149.153998 301.849203 148.562522 
Q 301.940453 147.969713 301.529868 147.299551 
Q 301.116834 146.625391 300.549697 146.441451 
Q 299.981744 146.256178 299.415503 146.603094 
z
M 299.46951 142.943622 
L 299.938867 143.709712 
Q 299.53035 143.754764 299.159766 143.873694 
Q 298.788365 143.991292 298.47127 144.185565 
Q 297.638564 144.695736 297.543361 145.527349 
Q 297.449492 146.358146 298.083152 147.532989 
Q 298.106275 147.020401 298.358304 146.600289 
Q 298.611664 146.179361 299.056663 145.906726 
Q 299.993292 145.332887 300.885431 145.568753 
Q 301.776754 145.803287 302.375898 146.781218 
Q 302.962798 147.739163 302.751636 148.665643 
Q 302.539657 149.590791 301.599032 150.167079 
Q 300.519844 150.82826 299.443517 150.351579 
Q 298.366375 149.873566 297.404806 148.304081 
Q 296.502008 146.830523 296.664375 145.525306 
Q 296.826741 144.220089 298.004521 143.498504 
Q 298.321616 143.304231 298.682405 143.169313 
Q 299.043194 143.034395 299.46951 142.943622 
z
M 303.997751 140.988424 
L 303.907351 145.608399 
L 306.031086 144.30726 
L 303.997751 140.988424 
z
M 303.327635 140.391143 
L 304.385505 139.743023 
L 306.86779 143.794641 
L 307.755122 143.251004 
L 308.183665 143.950477 
L 307.296333 144.494115 
L 308.194233 145.959679 
L 307.357529 146.472298 
L 306.459629 145.006734 
L 303.65374 146.725804 
L 303.156631 145.914414 
L 303.327635 140.391143 
z
" clip-path="url(#pebdcc25104)" style="fill: #f89540; stroke: #ffffff; stroke-width: 5"/>
    <path d="M 299.415503 146.603094 
Q 298.849262 146.95001 298.755047 147.54097 
Q 298.661348 148.129781 299.074382 148.803941 
Q 299.484967 149.474103 300.054553 149.662041 
Q 300.624655 149.847829 301.190896 149.500914 
Q 301.757136 149.153998 301.849203 148.562522 
Q 301.940453 147.969713 301.529868 147.299551 
Q 301.116834 146.625391 300.549697 146.441451 
Q 299.981744 146.256178 299.415503 146.603094 
z
M 299.46951 142.943622 
L 299.938867 143.709712 
Q 299.53035 143.754764 299.159766 143.873694 
Q 298.788365 143.991292 298.47127 144.185565 
Q 297.638564 144.695736 297.543361 145.527349 
Q 297.449492 146.358146 298.083152 147.532989 
Q 298.106275 147.020401 298.358304 146.600289 
Q 298.611664 146.179361 299.056663 145.906726 
Q 299.993292 145.332887 300.885431 145.568753 
Q 301.776754 145.803287 302.375898 146.781218 
Q 302.962798 147.739163 302.751636 148.665643 
Q 302.539657 149.590791 301.599032 150.167079 
Q 300.519844 150.82826 299.443517 150.351579 
Q 298.366375 149.873566 297.404806 148.304081 
Q 296.502008 146.830523 296.664375 145.525306 
Q 296.826741 144.220089 298.004521 143.498504 
Q 298.321616 143.304231 298.682405 143.169313 
Q 299.043194 143.034395 299.46951 142.943622 
z
M 303.997751 140.988424 
L 303.907351 145.608399 
L 306.031086 144.30726 
L 303.997751 140.988424 
z
M 303.327635 140.391143 
L 304.385505 139.743023 
L 306.86779 143.794641 
L 307.755122 143.251004 
L 308.183665 143.950477 
L 307.296333 144.494115 
L 308.194233 145.959679 
L 307.357529 146.472298 
L 306.459629 145.006734 
L 303.65374 146.725804 
L 303.156631 145.914414 
L 303.327635 140.391143 
z
" clip-path="url(#pebdcc25104)" style="fill: #f89540"/>
   </g>
   <g id="text_20">
    <path d="M 336.861422 125.967831 
L 338.226012 125.111669 
L 335.269719 120.399797 
L 333.97153 121.629328 
L 333.494039 120.868282 
L 334.784287 119.643733 
L 335.619453 119.119738 
L 339.053237 124.592657 
L 340.417827 123.736495 
L 340.85878 124.439305 
L 337.302375 126.670642 
L 336.861422 125.967831 
z
M 342.825216 122.226066 
L 345.741018 120.396652 
L 346.181971 121.099462 
L 342.261587 123.559164 
L 341.820635 122.856354 
Q 341.986876 122.065869 342.287641 120.722461 
Q 342.588898 119.376899 342.648208 119.003974 
Q 342.766904 118.302347 342.729752 117.890337 
Q 342.693924 117.477496 342.504588 117.175724 
Q 342.195672 116.68336 341.655905 116.590387 
Q 341.115308 116.496089 340.560736 116.844035 
Q 340.167639 117.09067 339.816398 117.501035 
Q 339.46648 117.910569 339.144533 118.499924 
L 338.614725 117.655493 
Q 338.991947 117.136599 339.365273 116.758492 
Q 339.739922 116.379555 340.103901 116.15119 
Q 341.063482 115.549136 341.935378 115.671677 
Q 342.806444 115.792895 343.309678 116.594972 
Q 343.548839 116.976158 343.620143 117.407321 
Q 343.691939 117.836331 343.605372 118.536246 
Q 343.577702 118.721463 343.382702 119.64251 
Q 343.189026 120.562726 342.825216 122.226066 
z
M 347.882118 115.945186 
Q 347.286516 116.318875 347.145169 116.852101 
Q 347.005145 117.384497 347.354752 117.941715 
Q 347.705189 118.500257 348.245474 118.605817 
Q 348.787084 118.710547 349.382686 118.336858 
Q 349.978287 117.96317 350.120128 117.42779 
Q 350.262462 116.890256 349.914516 116.335684 
Q 349.564909 115.778466 349.0233 115.673736 
Q 348.483014 115.568176 347.882118 115.945186 
z
M 346.824399 116.114467 
Q 346.203992 116.319261 345.672688 116.139817 
Q 345.141876 115.958218 344.809709 115.428795 
Q 344.345504 114.688925 344.602395 113.928261 
Q 344.860609 113.166767 345.777835 112.591286 
Q 346.700356 112.012484 347.495696 112.112964 
Q 348.291035 112.213445 348.75524 112.953314 
Q 349.087407 113.482738 349.018646 114.040517 
Q 348.950378 114.596141 348.500026 115.063156 
Q 349.191594 114.824782 349.785208 115.024159 
Q 350.379315 115.221382 350.749682 115.81169 
Q 351.313537 116.710387 351.067025 117.534632 
Q 350.819683 118.357554 349.797895 118.998638 
Q 348.777431 119.638891 347.927542 119.504387 
Q 347.078146 119.367728 346.514291 118.469031 
Q 346.143924 117.878724 346.226156 117.257157 
Q 346.308881 116.633435 346.824399 116.114467 
z
M 345.690729 114.986705 
Q 345.991341 115.465833 346.459041 115.546841 
Q 346.928064 115.627019 347.4694 115.287377 
Q 348.008088 114.949396 348.142608 114.490548 
Q 348.278452 114.030869 347.97784 113.55174 
Q 347.676398 113.071288 347.203404 112.993602 
Q 346.731734 112.915085 346.193045 113.253066 
Q 345.651709 113.592707 345.519836 114.049895 
Q 345.389287 114.506253 345.690729 114.986705 
z
" clip-path="url(#pebdcc25104)" style="fill: #fdc527; stroke: #ffffff; stroke-width: 5"/>
    <path d="M 336.861422 125.967831 
L 338.226012 125.111669 
L 335.269719 120.399797 
L 333.97153 121.629328 
L 333.494039 120.868282 
L 334.784287 119.643733 
L 335.619453 119.119738 
L 339.053237 124.592657 
L 340.417827 123.736495 
L 340.85878 124.439305 
L 337.302375 126.670642 
L 336.861422 125.967831 
z
M 342.825216 122.226066 
L 345.741018 120.396652 
L 346.181971 121.099462 
L 342.261587 123.559164 
L 341.820635 122.856354 
Q 341.986876 122.065869 342.287641 120.722461 
Q 342.588898 119.376899 342.648208 119.003974 
Q 342.766904 118.302347 342.729752 117.890337 
Q 342.693924 117.477496 342.504588 117.175724 
Q 342.195672 116.68336 341.655905 116.590387 
Q 341.115308 116.496089 340.560736 116.844035 
Q 340.167639 117.09067 339.816398 117.501035 
Q 339.46648 117.910569 339.144533 118.499924 
L 338.614725 117.655493 
Q 338.991947 117.136599 339.365273 116.758492 
Q 339.739922 116.379555 340.103901 116.15119 
Q 341.063482 115.549136 341.935378 115.671677 
Q 342.806444 115.792895 343.309678 116.594972 
Q 343.548839 116.976158 343.620143 117.407321 
Q 343.691939 117.836331 343.605372 118.536246 
Q 343.577702 118.721463 343.382702 119.64251 
Q 343.189026 120.562726 342.825216 122.226066 
z
M 347.882118 115.945186 
Q 347.286516 116.318875 347.145169 116.852101 
Q 347.005145 117.384497 347.354752 117.941715 
Q 347.705189 118.500257 348.245474 118.605817 
Q 348.787084 118.710547 349.382686 118.336858 
Q 349.978287 117.96317 350.120128 117.42779 
Q 350.262462 116.890256 349.914516 116.335684 
Q 349.564909 115.778466 349.0233 115.673736 
Q 348.483014 115.568176 347.882118 115.945186 
z
M 346.824399 116.114467 
Q 346.203992 116.319261 345.672688 116.139817 
Q 345.141876 115.958218 344.809709 115.428795 
Q 344.345504 114.688925 344.602395 113.928261 
Q 344.860609 113.166767 345.777835 112.591286 
Q 346.700356 112.012484 347.495696 112.112964 
Q 348.291035 112.213445 348.75524 112.953314 
Q 349.087407 113.482738 349.018646 114.040517 
Q 348.950378 114.596141 348.500026 115.063156 
Q 349.191594 114.824782 349.785208 115.024159 
Q 350.379315 115.221382 350.749682 115.81169 
Q 351.313537 116.710387 351.067025 117.534632 
Q 350.819683 118.357554 349.797895 118.998638 
Q 348.777431 119.638891 347.927542 119.504387 
Q 347.078146 119.367728 346.514291 118.469031 
Q 346.143924 117.878724 346.226156 117.257157 
Q 346.308881 116.633435 346.824399 116.114467 
z
M 345.690729 114.986705 
Q 345.991341 115.465833 346.459041 115.546841 
Q 346.928064 115.627019 347.4694 115.287377 
Q 348.008088 114.949396 348.142608 114.490548 
Q 348.278452 114.030869 347.97784 113.55174 
Q 347.676398 113.071288 347.203404 112.993602 
Q 346.731734 112.915085 346.193045 113.253066 
Q 345.651709 113.592707 345.519836 114.049895 
Q 345.389287 114.506253 345.690729 114.986705 
z
" clip-path="url(#pebdcc25104)" style="fill: #fdc527"/>
   </g>
   <g id="patch_3">
    <path d="M 43.78125 301.735725 
L 43.78125 35.623725 
" style="fill: none; stroke: #cccccc; stroke-width: 0.8; stroke-linejoin: miter; stroke-linecap: square"/>
   </g>
   <g id="patch_4">
    <path d="M 400.90125 301.735725 
L 400.90125 35.623725 
" style="fill: none; stroke: #cccccc; stroke-width: 0.8; stroke-linejoin: miter; stroke-linecap: square"/>
   </g>
   <g id="patch_5">
    <path d="M 43.78125 301.735725 
L 400.90125 301.735725 
" style="fill: none; stroke: #cccccc; stroke-width: 0.8; stroke-linejoin: miter; stroke-linecap: square"/>
   </g>
   <g id="patch_6">
    <path d="M 43.78125 35.623725 
L 400.90125 35.623725 
" style="fill: none; stroke: #cccccc; stroke-width: 0.8; stroke-linejoin: miter; stroke-linecap: square"/>
   </g>
   <g id="text_21">
    <!-- Block Size = 4K, Read-Write Type = Random Balanced 1:1 -->
    <g style="fill: #262626; opacity: 0.75" transform="translate(77.110781 30.882918) scale(0.1 -0.1)">
     <defs>
      <path id="DejaVuSans-42" d="M 1259 2228 
L 1259 519 
L 2272 519 
Q 2781 519 3026 730 
Q 3272 941 3272 1375 
Q 3272 1813 3026 2020 
Q 2781 2228 2272 2228 
L 1259 2228 
z
M 1259 4147 
L 1259 2741 
L 2194 2741 
Q 2656 2741 2882 2914 
Q 3109 3088 3109 3444 
Q 3109 3797 2882 3972 
Q 2656 4147 2194 4147 
L 1259 4147 
z
M 628 4666 
L 2241 4666 
Q 2963 4666 3353 4366 
Q 3744 4066 3744 3513 
Q 3744 3084 3544 2831 
Q 3344 2578 2956 2516 
Q 3422 2416 3680 2098 
Q 3938 1781 3938 1306 
Q 3938 681 3513 340 
Q 3088 0 2303 0 
L 628 0 
L 628 4666 
z
" transform="scale(0.015625)"/>
      <path id="DejaVuSans-6c" d="M 603 4863 
L 1178 4863 
L 1178 0 
L 603 0 
L 603 4863 
z
" transform="scale(0.015625)"/>
      <path id="DejaVuSans-6b" d="M 581 4863 
L 1159 4863 
L 1159 1991 
L 2875 3500 
L 3609 3500 
L 1753 1863 
L 3688 0 
L 2938 0 
L 1159 1709 
L 1159 0 
L 581 0 
L 581 4863 
z
" transform="scale(0.015625)"/>
      <path id="DejaVuSans-53" d="M 3425 4513 
L 3425 3897 
Q 3066 4069 2747 4153 
Q 2428 4238 2131 4238 
Q 1616 4238 1336 4038 
Q 1056 3838 1056 3469 
Q 1056 3159 1242 3001 
Q 1428 2844 1947 2747 
L 2328 2669 
Q 3034 2534 3370 2195 
Q 3706 1856 3706 1288 
Q 3706 609 3251 259 
Q 2797 -91 1919 -91 
Q 1588 -91 1214 -16 
Q 841 59 441 206 
L 441 856 
Q 825 641 1194 531 
Q 1563 422 1919 422 
Q 2459 422 2753 634 
Q 3047 847 3047 1241 
Q 3047 1584 2836 1778 
Q 2625 1972 2144 2069 
L 1759 2144 
Q 1053 2284 737 2584 
Q 422 2884 422 3419 
Q 422 4038 858 4394 
Q 1294 4750 2059 4750 
Q 2388 4750 2728 4690 
Q 3069 4631 3425 4513 
z
" transform="scale(0.015625)"/>
      <path id="DejaVuSans-69" d="M 603 3500 
L 1178 3500 
L 1178 0 
L 603 0 
L 603 3500 
z
M 603 4863 
L 1178 4863 
L 1178 4134 
L 603 4134 
L 603 4863 
z
" transform="scale(0.015625)"/>
      <path id="DejaVuSans-7a" d="M 353 3500 
L 3084 3500 
L 3084 2975 
L 922 459 
L 3084 459 
L 3084 0 
L 275 0 
L 275 525 
L 2438 3041 
L 353 3041 
L 353 3500 
z
" transform="scale(0.015625)"/>
      <path id="DejaVuSans-3d" d="M 678 2906 
L 4684 2906 
L 4684 2381 
L 678 2381 
L 678 2906 
z
M 678 1631 
L 4684 1631 
L 4684 1100 
L 678 1100 
L 678 1631 
z
" transform="scale(0.015625)"/>
      <path id="DejaVuSans-4b" d="M 628 4666 
L 1259 4666 
L 1259 2694 
L 3353 4666 
L 4166 4666 
L 1850 2491 
L 4331 0 
L 3500 0 
L 1259 2247 
L 1259 0 
L 628 0 
L 628 4666 
z
" transform="scale(0.015625)"/>
      <path id="DejaVuSans-2c" d="M 750 794 
L 1409 794 
L 1409 256 
L 897 -744 
L 494 -744 
L 750 256 
L 750 794 
z
" transform="scale(0.015625)"/>
      <path id="DejaVuSans-52" d="M 2841 2188 
Q 3044 2119 3236 1894 
Q 3428 1669 3622 1275 
L 4263 0 
L 3584 0 
L 2988 1197 
Q 2756 1666 2539 1819 
Q 2322 1972 1947 1972 
L 1259 1972 
L 1259 0 
L 628 0 
L 628 4666 
L 2053 4666 
Q 2853 4666 3247 4331 
Q 3641 3997 3641 3322 
Q 3641 2881 3436 2590 
Q 3231 2300 2841 2188 
z
M 1259 4147 
L 1259 2491 
L 2053 2491 
Q 2509 2491 2742 2702 
Q 2975 2913 2975 3322 
Q 2975 3731 2742 3939 
Q 2509 4147 2053 4147 
L 1259 4147 
z
" transform="scale(0.015625)"/>
      <path id="DejaVuSans-64" d="M 2906 2969 
L 2906 4863 
L 3481 4863 
L 3481 0 
L 2906 0 
L 2906 525 
Q 2725 213 2448 61 
Q 2172 -91 1784 -91 
Q 1150 -91 751 415 
Q 353 922 353 1747 
Q 353 2572 751 3078 
Q 1150 3584 1784 3584 
Q 2172 3584 2448 3432 
Q 2725 3281 2906 2969 
z
M 947 1747 
Q 947 1113 1208 752 
Q 1469 391 1925 391 
Q 2381 391 2643 752 
Q 2906 1113 2906 1747 
Q 2906 2381 2643 2742 
Q 2381 3103 1925 3103 
Q 1469 3103 1208 2742 
Q 947 2381 947 1747 
z
" transform="scale(0.015625)"/>
      <path id="DejaVuSans-2d" d="M 313 2009 
L 1997 2009 
L 1997 1497 
L 313 1497 
L 313 2009 
z
" transform="scale(0.015625)"/>
      <path id="DejaVuSans-57" d="M 213 4666 
L 850 4666 
L 1831 722 
L 2809 4666 
L 3519 4666 
L 4500 722 
L 5478 4666 
L 6119 4666 
L 4947 0 
L 4153 0 
L 3169 4050 
L 2175 0 
L 1381 0 
L 213 4666 
z
" transform="scale(0.015625)"/>
      <path id="DejaVuSans-54" d="M -19 4666 
L 3928 4666 
L 3928 4134 
L 2272 4134 
L 2272 0 
L 1638 0 
L 1638 4134 
L -19 4134 
L -19 4666 
z
" transform="scale(0.015625)"/>
      <path id="DejaVuSans-70" d="M 1159 525 
L 1159 -1331 
L 581 -1331 
L 581 3500 
L 1159 3500 
L 1159 2969 
Q 1341 3281 1617 3432 
Q 1894 3584 2278 3584 
Q 2916 3584 3314 3078 
Q 3713 2572 3713 1747 
Q 3713 922 3314 415 
Q 2916 -91 2278 -91 
Q 1894 -91 1617 61 
Q 1341 213 1159 525 
z
M 3116 1747 
Q 3116 2381 2855 2742 
Q 2594 3103 2138 3103 
Q 1681 3103 1420 2742 
Q 1159 2381 1159 1747 
Q 1159 1113 1420 752 
Q 1681 391 2138 391 
Q 2594 391 2855 752 
Q 3116 1113 3116 1747 
z
" transform="scale(0.015625)"/>
      <path id="DejaVuSans-3a" d="M 750 794 
L 1409 794 
L 1409 0 
L 750 0 
L 750 794 
z
M 750 3309 
L 1409 3309 
L 1409 2516 
L 750 2516 
L 750 3309 
z
" transform="scale(0.015625)"/>
     </defs>
     <use xlink:href="#DejaVuSans-42"/>
     <use xlink:href="#DejaVuSans-6c" transform="translate(68.603516 0)"/>
     <use xlink:href="#DejaVuSans-6f" transform="translate(96.386719 0)"/>
     <use xlink:href="#DejaVuSans-63" transform="translate(157.568359 0)"/>
     <use xlink:href="#DejaVuSans-6b" transform="translate(212.548828 0)"/>
     <use xlink:href="#DejaVuSans-20" transform="translate(270.458984 0)"/>
     <use xlink:href="#DejaVuSans-53" transform="translate(302.246094 0)"/>
     <use xlink:href="#DejaVuSans-69" transform="translate(365.722656 0)"/>
     <use xlink:href="#DejaVuSans-7a" transform="translate(393.505859 0)"/>
     <use xlink:href="#DejaVuSans-65" transform="translate(445.996094 0)"/>
     <use xlink:href="#DejaVuSans-20" transform="translate(507.519531 0)"/>
     <use xlink:href="#DejaVuSans-3d" transform="translate(539.306641 0)"/>
     <use xlink:href="#DejaVuSans-20" transform="translate(623.095703 0)"/>
     <use xlink:href="#DejaVuSans-34" transform="translate(654.882812 0)"/>
     <use xlink:href="#DejaVuSans-4b" transform="translate(718.505859 0)"/>
     <use xlink:href="#DejaVuSans-2c" transform="translate(784.082031 0)"/>
     <use xlink:href="#DejaVuSans-20" transform="translate(815.869141 0)"/>
     <use xlink:href="#DejaVuSans-52" transform="translate(847.65625 0)"/>
     <use xlink:href="#DejaVuSans-65" transform="translate(912.638672 0)"/>
     <use xlink:href="#DejaVuSans-61" transform="translate(974.162109 0)"/>
     <use xlink:href="#DejaVuSans-64" transform="translate(1035.441406 0)"/>
     <use xlink:href="#DejaVuSans-2d" transform="translate(1098.917969 0)"/>
     <use xlink:href="#DejaVuSans-57" transform="translate(1131.001953 0)"/>
     <use xlink:href="#DejaVuSans-72" transform="translate(1225.378906 0)"/>
     <use xlink:href="#DejaVuSans-69" transform="translate(1266.492188 0)"/>
     <use xlink:href="#DejaVuSans-74" transform="translate(1294.275391 0)"/>
     <use xlink:href="#DejaVuSans-65" transform="translate(1333.484375 0)"/>
     <use xlink:href="#DejaVuSans-20" transform="translate(1395.007812 0)"/>
     <use xlink:href="#DejaVuSans-54" transform="translate(1426.794922 0)"/>
     <use xlink:href="#DejaVuSans-79" transform="translate(1472.253906 0)"/>
     <use xlink:href="#DejaVuSans-70" transform="translate(1531.433594 0)"/>
     <use xlink:href="#DejaVuSans-65" transform="translate(1594.910156 0)"/>
     <use xlink:href="#DejaVuSans-20" transform="translate(1656.433594 0)"/>
     <use xlink:href="#DejaVuSans-3d" transform="translate(1688.220703 0)"/>
     <use xlink:href="#DejaVuSans-20" transform="translate(1772.009766 0)"/>
     <use xlink:href="#DejaVuSans-52" transform="translate(1803.796875 0)"/>
     <use xlink:href="#DejaVuSans-61" transform="translate(1871.029297 0)"/>
     <use xlink:href="#DejaVuSans-6e" transform="translate(1932.308594 0)"/>
     <use xlink:href="#DejaVuSans-64" transform="translate(1995.6875 0)"/>
     <use xlink:href="#DejaVuSans-6f" transform="translate(2059.164062 0)"/>
     <use xlink:href="#DejaVuSans-6d" transform="translate(2120.345703 0)"/>
     <use xlink:href="#DejaVuSans-20" transform="translate(2217.757812 0)"/>
     <use xlink:href="#DejaVuSans-42" transform="translate(2249.544922 0)"/>
     <use xlink:href="#DejaVuSans-61" transform="translate(2318.148438 0)"/>
     <use xlink:href="#DejaVuSans-6c" transform="translate(2379.427734 0)"/>
     <use xlink:href="#DejaVuSans-61" transform="translate(2407.210938 0)"/>
     <use xlink:href="#DejaVuSans-6e" transform="translate(2468.490234 0)"/>
     <use xlink:href="#DejaVuSans-63" transform="translate(2531.869141 0)"/>
     <use xlink:href="#DejaVuSans-65" transform="translate(2586.849609 0)"/>
     <use xlink:href="#DejaVuSans-64" transform="translate(2648.373047 0)"/>
     <use xlink:href="#DejaVuSans-20" transform="translate(2711.849609 0)"/>
     <use xlink:href="#DejaVuSans-31" transform="translate(2743.636719 0)"/>
     <use xlink:href="#DejaVuSans-3a" transform="translate(2807.259766 0)"/>
     <use xlink:href="#DejaVuSans-31" transform="translate(2840.951172 0)"/>
    </g>
   </g>
   <g id="text_22">
    <!-- Mean Latency vs Number of Jobs -->
    <g style="fill: #262626" transform="translate(111.685313 16.318125) scale(0.12 -0.12)">
     <defs>
      <path id="DejaVuSans-Bold-4d" d="M 588 4666 
L 2119 4666 
L 3181 2169 
L 4250 4666 
L 5778 4666 
L 5778 0 
L 4641 0 
L 4641 3413 
L 3566 897 
L 2803 897 
L 1728 3413 
L 1728 0 
L 588 0 
L 588 4666 
z
" transform="scale(0.015625)"/>
      <path id="DejaVuSans-Bold-65" d="M 4031 1759 
L 4031 1441 
L 1416 1441 
Q 1456 1047 1700 850 
Q 1944 653 2381 653 
Q 2734 653 3104 758 
Q 3475 863 3866 1075 
L 3866 213 
Q 3469 63 3072 -14 
Q 2675 -91 2278 -91 
Q 1328 -91 801 392 
Q 275 875 275 1747 
Q 275 2603 792 3093 
Q 1309 3584 2216 3584 
Q 3041 3584 3536 3087 
Q 4031 2591 4031 1759 
z
M 2881 2131 
Q 2881 2450 2695 2645 
Q 2509 2841 2209 2841 
Q 1884 2841 1681 2658 
Q 1478 2475 1428 2131 
L 2881 2131 
z
" transform="scale(0.015625)"/>
      <path id="DejaVuSans-Bold-61" d="M 2106 1575 
Q 1756 1575 1579 1456 
Q 1403 1338 1403 1106 
Q 1403 894 1545 773 
Q 1688 653 1941 653 
Q 2256 653 2472 879 
Q 2688 1106 2688 1447 
L 2688 1575 
L 2106 1575 
z
M 3816 1997 
L 3816 0 
L 2688 0 
L 2688 519 
Q 2463 200 2181 54 
Q 1900 -91 1497 -91 
Q 953 -91 614 226 
Q 275 544 275 1050 
Q 275 1666 698 1953 
Q 1122 2241 2028 2241 
L 2688 2241 
L 2688 2328 
Q 2688 2594 2478 2717 
Q 2269 2841 1825 2841 
Q 1466 2841 1156 2769 
Q 847 2697 581 2553 
L 581 3406 
Q 941 3494 1303 3539 
Q 1666 3584 2028 3584 
Q 2975 3584 3395 3211 
Q 3816 2838 3816 1997 
z
" transform="scale(0.015625)"/>
      <path id="DejaVuSans-Bold-6e" d="M 4056 2131 
L 4056 0 
L 2931 0 
L 2931 347 
L 2931 1631 
Q 2931 2084 2911 2256 
Q 2891 2428 2841 2509 
Q 2775 2619 2662 2680 
Q 2550 2741 2406 2741 
Q 2056 2741 1856 2470 
Q 1656 2200 1656 1722 
L 1656 0 
L 538 0 
L 538 3500 
L 1656 3500 
L 1656 2988 
Q 1909 3294 2193 3439 
Q 2478 3584 2822 3584 
Q 3428 3584 3742 3212 
Q 4056 2841 4056 2131 
z
" transform="scale(0.015625)"/>
      <path id="DejaVuSans-Bold-20" transform="scale(0.015625)"/>
      <path id="DejaVuSans-Bold-4c" d="M 588 4666 
L 1791 4666 
L 1791 909 
L 3903 909 
L 3903 0 
L 588 0 
L 588 4666 
z
" transform="scale(0.015625)"/>
      <path id="DejaVuSans-Bold-74" d="M 1759 4494 
L 1759 3500 
L 2913 3500 
L 2913 2700 
L 1759 2700 
L 1759 1216 
Q 1759 972 1856 886 
Q 1953 800 2241 800 
L 2816 800 
L 2816 0 
L 1856 0 
Q 1194 0 917 276 
Q 641 553 641 1216 
L 641 2700 
L 84 2700 
L 84 3500 
L 641 3500 
L 641 4494 
L 1759 4494 
z
" transform="scale(0.015625)"/>
      <path id="DejaVuSans-Bold-63" d="M 3366 3391 
L 3366 2478 
Q 3138 2634 2908 2709 
Q 2678 2784 2431 2784 
Q 1963 2784 1702 2511 
Q 1441 2238 1441 1747 
Q 1441 1256 1702 982 
Q 1963 709 2431 709 
Q 2694 709 2930 787 
Q 3166 866 3366 1019 
L 3366 103 
Q 3103 6 2833 -42 
Q 2563 -91 2291 -91 
Q 1344 -91 809 395 
Q 275 881 275 1747 
Q 275 2613 809 3098 
Q 1344 3584 2291 3584 
Q 2566 3584 2833 3536 
Q 3100 3488 3366 3391 
z
" transform="scale(0.015625)"/>
      <path id="DejaVuSans-Bold-79" d="M 78 3500 
L 1197 3500 
L 2138 1125 
L 2938 3500 
L 4056 3500 
L 2584 -331 
Q 2363 -916 2067 -1148 
Q 1772 -1381 1288 -1381 
L 641 -1381 
L 641 -647 
L 991 -647 
Q 1275 -647 1404 -556 
Q 1534 -466 1606 -231 
L 1638 -134 
L 78 3500 
z
" transform="scale(0.015625)"/>
      <path id="DejaVuSans-Bold-76" d="M 97 3500 
L 1216 3500 
L 2088 1081 
L 2956 3500 
L 4078 3500 
L 2700 0 
L 1472 0 
L 97 3500 
z
" transform="scale(0.015625)"/>
      <path id="DejaVuSans-Bold-73" d="M 3272 3391 
L 3272 2541 
Q 2913 2691 2578 2766 
Q 2244 2841 1947 2841 
Q 1628 2841 1473 2761 
Q 1319 2681 1319 2516 
Q 1319 2381 1436 2309 
Q 1553 2238 1856 2203 
L 2053 2175 
Q 2913 2066 3209 1816 
Q 3506 1566 3506 1031 
Q 3506 472 3093 190 
Q 2681 -91 1863 -91 
Q 1516 -91 1145 -36 
Q 775 19 384 128 
L 384 978 
Q 719 816 1070 734 
Q 1422 653 1784 653 
Q 2113 653 2278 743 
Q 2444 834 2444 1013 
Q 2444 1163 2330 1236 
Q 2216 1309 1875 1350 
L 1678 1375 
Q 931 1469 631 1722 
Q 331 1975 331 2491 
Q 331 3047 712 3315 
Q 1094 3584 1881 3584 
Q 2191 3584 2531 3537 
Q 2872 3491 3272 3391 
z
" transform="scale(0.015625)"/>
      <path id="DejaVuSans-Bold-4e" d="M 588 4666 
L 1931 4666 
L 3628 1466 
L 3628 4666 
L 4769 4666 
L 4769 0 
L 3425 0 
L 1728 3200 
L 1728 0 
L 588 0 
L 588 4666 
z
" transform="scale(0.015625)"/>
      <path id="DejaVuSans-Bold-75" d="M 500 1363 
L 500 3500 
L 1625 3500 
L 1625 3150 
Q 1625 2866 1622 2436 
Q 1619 2006 1619 1863 
Q 1619 1441 1641 1255 
Q 1663 1069 1716 984 
Q 1784 875 1895 815 
Q 2006 756 2150 756 
Q 2500 756 2700 1025 
Q 2900 1294 2900 1772 
L 2900 3500 
L 4019 3500 
L 4019 0 
L 2900 0 
L 2900 506 
Q 2647 200 2364 54 
Q 2081 -91 1741 -91 
Q 1134 -91 817 281 
Q 500 653 500 1363 
z
" transform="scale(0.015625)"/>
      <path id="DejaVuSans-Bold-6d" d="M 3781 2919 
Q 3994 3244 4286 3414 
Q 4578 3584 4928 3584 
Q 5531 3584 5847 3212 
Q 6163 2841 6163 2131 
L 6163 0 
L 5038 0 
L 5038 1825 
Q 5041 1866 5042 1909 
Q 5044 1953 5044 2034 
Q 5044 2406 4934 2573 
Q 4825 2741 4581 2741 
Q 4263 2741 4089 2478 
Q 3916 2216 3909 1719 
L 3909 0 
L 2784 0 
L 2784 1825 
Q 2784 2406 2684 2573 
Q 2584 2741 2328 2741 
Q 2006 2741 1831 2477 
Q 1656 2213 1656 1722 
L 1656 0 
L 531 0 
L 531 3500 
L 1656 3500 
L 1656 2988 
Q 1863 3284 2130 3434 
Q 2397 3584 2719 3584 
Q 3081 3584 3359 3409 
Q 3638 3234 3781 2919 
z
" transform="scale(0.015625)"/>
      <path id="DejaVuSans-Bold-62" d="M 2400 722 
Q 2759 722 2948 984 
Q 3138 1247 3138 1747 
Q 3138 2247 2948 2509 
Q 2759 2772 2400 2772 
Q 2041 2772 1848 2508 
Q 1656 2244 1656 1747 
Q 1656 1250 1848 986 
Q 2041 722 2400 722 
z
M 1656 2988 
Q 1888 3294 2169 3439 
Q 2450 3584 2816 3584 
Q 3463 3584 3878 3070 
Q 4294 2556 4294 1747 
Q 4294 938 3878 423 
Q 3463 -91 2816 -91 
Q 2450 -91 2169 54 
Q 1888 200 1656 506 
L 1656 0 
L 538 0 
L 538 4863 
L 1656 4863 
L 1656 2988 
z
" transform="scale(0.015625)"/>
      <path id="DejaVuSans-Bold-72" d="M 3138 2547 
Q 2991 2616 2845 2648 
Q 2700 2681 2553 2681 
Q 2122 2681 1889 2404 
Q 1656 2128 1656 1613 
L 1656 0 
L 538 0 
L 538 3500 
L 1656 3500 
L 1656 2925 
Q 1872 3269 2151 3426 
Q 2431 3584 2822 3584 
Q 2878 3584 2943 3579 
Q 3009 3575 3134 3559 
L 3138 2547 
z
" transform="scale(0.015625)"/>
      <path id="DejaVuSans-Bold-6f" d="M 2203 2784 
Q 1831 2784 1636 2517 
Q 1441 2250 1441 1747 
Q 1441 1244 1636 976 
Q 1831 709 2203 709 
Q 2569 709 2762 976 
Q 2956 1244 2956 1747 
Q 2956 2250 2762 2517 
Q 2569 2784 2203 2784 
z
M 2203 3584 
Q 3106 3584 3614 3096 
Q 4122 2609 4122 1747 
Q 4122 884 3614 396 
Q 3106 -91 2203 -91 
Q 1297 -91 786 396 
Q 275 884 275 1747 
Q 275 2609 786 3096 
Q 1297 3584 2203 3584 
z
" transform="scale(0.015625)"/>
      <path id="DejaVuSans-Bold-66" d="M 2841 4863 
L 2841 4128 
L 2222 4128 
Q 1984 4128 1890 4042 
Q 1797 3956 1797 3744 
L 1797 3500 
L 2753 3500 
L 2753 2700 
L 1797 2700 
L 1797 0 
L 678 0 
L 678 2700 
L 122 2700 
L 122 3500 
L 678 3500 
L 678 3744 
Q 678 4316 997 4589 
Q 1316 4863 1984 4863 
L 2841 4863 
z
" transform="scale(0.015625)"/>
      <path id="DejaVuSans-Bold-4a" d="M 588 4666 
L 1791 4666 
L 1791 453 
Q 1791 -419 1317 -850 
Q 844 -1281 -116 -1281 
L -359 -1281 
L -359 -372 
L -172 -372 
Q 203 -372 395 -162 
Q 588 47 588 453 
L 588 4666 
z
" transform="scale(0.015625)"/>
     </defs>
     <use xlink:href="#DejaVuSans-Bold-4d"/>
     <use xlink:href="#DejaVuSans-Bold-65" transform="translate(99.511719 0)"/>
     <use xlink:href="#DejaVuSans-Bold-61" transform="translate(167.333984 0)"/>
     <use xlink:href="#DejaVuSans-Bold-6e" transform="translate(234.814453 0)"/>
     <use xlink:href="#DejaVuSans-Bold-20" transform="translate(306.005859 0)"/>
     <use xlink:href="#DejaVuSans-Bold-4c" transform="translate(340.820312 0)"/>
     <use xlink:href="#DejaVuSans-Bold-61" transform="translate(404.541016 0)"/>
     <use xlink:href="#DejaVuSans-Bold-74" transform="translate(472.021484 0)"/>
     <use xlink:href="#DejaVuSans-Bold-65" transform="translate(519.824219 0)"/>
     <use xlink:href="#DejaVuSans-Bold-6e" transform="translate(587.646484 0)"/>
     <use xlink:href="#DejaVuSans-Bold-63" transform="translate(658.837891 0)"/>
     <use xlink:href="#DejaVuSans-Bold-79" transform="translate(718.115234 0)"/>
     <use xlink:href="#DejaVuSans-Bold-20" transform="translate(783.300781 0)"/>
     <use xlink:href="#DejaVuSans-Bold-76" transform="translate(818.115234 0)"/>
     <use xlink:href="#DejaVuSans-Bold-73" transform="translate(883.300781 0)"/>
     <use xlink:href="#DejaVuSans-Bold-20" transform="translate(942.822266 0)"/>
     <use xlink:href="#DejaVuSans-Bold-4e" transform="translate(977.636719 0)"/>
     <use xlink:href="#DejaVuSans-Bold-75" transform="translate(1061.328125 0)"/>
     <use xlink:href="#DejaVuSans-Bold-6d" transform="translate(1132.519531 0)"/>
     <use xlink:href="#DejaVuSans-Bold-62" transform="translate(1236.71875 0)"/>
     <use xlink:href="#DejaVuSans-Bold-65" transform="translate(1308.300781 0)"/>
     <use xlink:href="#DejaVuSans-Bold-72" transform="translate(1376.123047 0)"/>
     <use xlink:href="#DejaVuSans-Bold-20" transform="translate(1425.439453 0)"/>
     <use xlink:href="#DejaVuSans-Bold-6f" transform="translate(1460.253906 0)"/>
     <use xlink:href="#DejaVuSans-Bold-66" transform="translate(1528.955078 0)"/>
     <use xlink:href="#DejaVuSans-Bold-20" transform="translate(1572.460938 0)"/>
     <use xlink:href="#DejaVuSans-Bold-4a" transform="translate(1607.275391 0)"/>
     <use xlink:href="#DejaVuSans-Bold-6f" transform="translate(1644.482422 0)"/>
     <use xlink:href="#DejaVuSans-Bold-62" transform="translate(1713.183594 0)"/>
     <use xlink:href="#DejaVuSans-Bold-73" transform="translate(1784.765625 0)"/>
    </g>
   </g>
   <g id="legend_1">
    <g id="text_23">
     <!-- IO Depth -->
     <g style="fill: #262626" transform="translate(435.407813 120.065663) scale(0.1 -0.1)">
      <defs>
       <path id="DejaVuSans-49" d="M 628 4666 
L 1259 4666 
L 1259 0 
L 628 0 
L 628 4666 
z
" transform="scale(0.015625)"/>
       <path id="DejaVuSans-4f" d="M 2522 4238 
Q 1834 4238 1429 3725 
Q 1025 3213 1025 2328 
Q 1025 1447 1429 934 
Q 1834 422 2522 422 
Q 3209 422 3611 934 
Q 4013 1447 4013 2328 
Q 4013 3213 3611 3725 
Q 3209 4238 2522 4238 
z
M 2522 4750 
Q 3503 4750 4090 4092 
Q 4678 3434 4678 2328 
Q 4678 1225 4090 567 
Q 3503 -91 2522 -91 
Q 1538 -91 948 565 
Q 359 1222 359 2328 
Q 359 3434 948 4092 
Q 1538 4750 2522 4750 
z
" transform="scale(0.015625)"/>
       <path id="DejaVuSans-44" d="M 1259 4147 
L 1259 519 
L 2022 519 
Q 2988 519 3436 956 
Q 3884 1394 3884 2338 
Q 3884 3275 3436 3711 
Q 2988 4147 2022 4147 
L 1259 4147 
z
M 628 4666 
L 1925 4666 
Q 3281 4666 3915 4102 
Q 4550 3538 4550 2338 
Q 4550 1131 3912 565 
Q 3275 0 1925 0 
L 628 0 
L 628 4666 
z
" transform="scale(0.015625)"/>
       <path id="DejaVuSans-68" d="M 3513 2113 
L 3513 0 
L 2938 0 
L 2938 2094 
Q 2938 2591 2744 2837 
Q 2550 3084 2163 3084 
Q 1697 3084 1428 2787 
Q 1159 2491 1159 1978 
L 1159 0 
L 581 0 
L 581 4863 
L 1159 4863 
L 1159 2956 
Q 1366 3272 1645 3428 
Q 1925 3584 2291 3584 
Q 2894 3584 3203 3211 
Q 3513 2838 3513 2113 
z
" transform="scale(0.015625)"/>
      </defs>
      <use xlink:href="#DejaVuSans-49"/>
      <use xlink:href="#DejaVuSans-4f" transform="translate(29.492188 0)"/>
      <use xlink:href="#DejaVuSans-20" transform="translate(108.203125 0)"/>
      <use xlink:href="#DejaVuSans-44" transform="translate(139.990234 0)"/>
      <use xlink:href="#DejaVuSans-65" transform="translate(216.992188 0)"/>
      <use xlink:href="#DejaVuSans-70" transform="translate(278.515625 0)"/>
      <use xlink:href="#DejaVuSans-74" transform="translate(341.992188 0)"/>
      <use xlink:href="#DejaVuSans-68" transform="translate(381.201172 0)"/>
     </g>
    </g>
    <g id="line2d_25">
     <path d="M 434.09375 131.243787 
L 444.09375 131.243787 
L 454.09375 131.243787 
" style="fill: none; stroke: #4c02a1; stroke-width: 1.5; stroke-linecap: round"/>
    </g>
    <g id="text_24">
     <!-- 1 -->
     <g style="fill: #262626" transform="translate(462.09375 134.743787) scale(0.1 -0.1)">
      <use xlink:href="#DejaVuSans-31"/>
     </g>
    </g>
    <g id="line2d_26">
     <path d="M 434.09375 145.921913 
L 444.09375 145.921913 
L 454.09375 145.921913 
" style="fill: none; stroke: #7e03a8; stroke-width: 1.5; stroke-linecap: round"/>
    </g>
    <g id="text_25">
     <!-- 4 -->
     <g style="fill: #262626" transform="translate(462.09375 149.421913) scale(0.1 -0.1)">
      <use xlink:href="#DejaVuSans-34"/>
     </g>
    </g>
    <g id="line2d_27">
     <path d="M 434.09375 160.600037 
L 444.09375 160.600037 
L 454.09375 160.600037 
" style="fill: none; stroke: #aa2395; stroke-width: 1.5; stroke-linecap: round"/>
    </g>
    <g id="text_26">
     <!-- 8 -->
     <g style="fill: #262626" transform="translate(462.09375 164.100037) scale(0.1 -0.1)">
      <use xlink:href="#DejaVuSans-38"/>
     </g>
    </g>
    <g id="line2d_28">
     <path d="M 434.09375 175.278163 
L 444.09375 175.278163 
L 454.09375 175.278163 
" style="fill: none; stroke: #cc4778; stroke-width: 1.5; stroke-linecap: round"/>
    </g>
    <g id="text_27">
     <!-- 16 -->
     <g style="fill: #262626" transform="translate(462.09375 178.778163) scale(0.1 -0.1)">
      <use xlink:href="#DejaVuSans-31"/>
      <use xlink:href="#DejaVuSans-36" transform="translate(63.623047 0)"/>
     </g>
    </g>
    <g id="line2d_29">
     <path d="M 434.09375 189.956288 
L 444.09375 189.956288 
L 454.09375 189.956288 
" style="fill: none; stroke: #e66c5c; stroke-width: 1.5; stroke-linecap: round"/>
    </g>
    <g id="text_28">
     <!-- 32 -->
     <g style="fill: #262626" transform="translate(462.09375 193.456288) scale(0.1 -0.1)">
      <use xlink:href="#DejaVuSans-33"/>
      <use xlink:href="#DejaVuSans-32" transform="translate(63.623047 0)"/>
     </g>
    </g>
    <g id="line2d_30">
     <path d="M 434.09375 204.634412 
L 444.09375 204.634412 
L 454.09375 204.634412 
" style="fill: none; stroke: #f89540; stroke-width: 1.5; stroke-linecap: round"/>
    </g>
    <g id="text_29">
     <!-- 64 -->
     <g style="fill: #262626" transform="translate(462.09375 208.134412) scale(0.1 -0.1)">
      <use xlink:href="#DejaVuSans-36"/>
      <use xlink:href="#DejaVuSans-34" transform="translate(63.623047 0)"/>
     </g>
    </g>
    <g id="line2d_31">
     <path d="M 434.09375 219.312537 
L 444.09375 219.312537 
L 454.09375 219.312537 
" style="fill: none; stroke: #fdc527; stroke-width: 1.5; stroke-linecap: round"/>
    </g>
    <g id="text_30">
     <!-- 128 -->
     <g style="fill: #262626" transform="translate(462.09375 222.812537) scale(0.1 -0.1)">
      <use xlink:href="#DejaVuSans-31"/>
      <use xlink:href="#DejaVuSans-32" transform="translate(63.623047 0)"/>
      <use xlink:href="#DejaVuSans-38" transform="translate(127.246094 0)"/>
     </g>
    </g>
   </g>
  </g>
 </g>
 <defs>
  <clipPath id="pebdcc25104">
   <rect x="43.78125" y="35.623725" width="357.12" height="266.112"/>
  </clipPath>
 </defs>
</svg>
