<?xml version="1.0" encoding="utf-8" standalone="no"?>
<!DOCTYPE svg PUBLIC "-//W3C//DTD SVG 1.1//EN"
  "http://www.w3.org/Graphics/SVG/1.1/DTD/svg11.dtd">
<svg xmlns:xlink="http://www.w3.org/1999/xlink" width="411.285625pt" height="339.291975pt" viewBox="0 0 411.285625 339.291975" xmlns="http://www.w3.org/2000/svg" version="1.1">
 <metadata>
  <rdf:RDF xmlns:dc="http://purl.org/dc/elements/1.1/" xmlns:cc="http://creativecommons.org/ns#" xmlns:rdf="http://www.w3.org/1999/02/22-rdf-syntax-ns#">
   <cc:Work>
    <dc:type rdf:resource="http://purl.org/dc/dcmitype/StillImage"/>
    <dc:date>2025-09-29T12:28:42.443404</dc:date>
    <dc:format>image/svg+xml</dc:format>
    <dc:creator>
     <cc:Agent>
      <dc:title>Matplotlib v3.10.6, https://matplotlib.org/</dc:title>
     </cc:Agent>
    </dc:creator>
   </cc:Work>
  </rdf:RDF>
 </metadata>
 <defs>
  <style type="text/css">*{stroke-linejoin: round; stroke-linecap: butt}</style>
 </defs>
 <g id="figure_1">
  <g id="patch_1">
   <path d="M 0 339.291975 
L 411.285625 339.291975 
L 411.285625 0 
L 0 0 
z
" style="fill: #ffffff"/>
  </g>
  <g id="axes_1">
   <g id="patch_2">
    <path d="M 46.965625 301.735725 
L 404.085625 301.735725 
L 404.085625 35.623725 
L 46.965625 35.623725 
z
" style="fill: #ffffff"/>
   </g>
   <g id="matplotlib.axis_1">
    <g id="xtick_1">
     <g id="line2d_1">
      <path d="M 95.663807 301.735725 
L 95.663807 35.623725 
" clip-path="url(#pe409b86fc3)" style="fill: none; stroke: #cccccc; stroke-width: 0.8; stroke-linecap: round"/>
     </g>
     <g id="text_1">
      <!-- 20 -->
      <g style="fill: #262626" transform="translate(89.301307 316.334162) scale(0.1 -0.1)">
       <defs>
        <path id="DejaVuSans-32" d="M 1228 531 
L 3431 531 
L 3431 0 
L 469 0 
L 469 531 
Q 828 903 1448 1529 
Q 2069 2156 2228 2338 
Q 2531 2678 2651 2914 
Q 2772 3150 2772 3378 
Q 2772 3750 2511 3984 
Q 2250 4219 1831 4219 
Q 1534 4219 1204 4116 
Q 875 4013 500 3803 
L 500 4441 
Q 881 4594 1212 4672 
Q 1544 4750 1819 4750 
Q 2544 4750 2975 4387 
Q 3406 4025 3406 3419 
Q 3406 3131 3298 2873 
Q 3191 2616 2906 2266 
Q 2828 2175 2409 1742 
Q 1991 1309 1228 531 
z
" transform="scale(0.015625)"/>
        <path id="DejaVuSans-30" d="M 2034 4250 
Q 1547 4250 1301 3770 
Q 1056 3291 1056 2328 
Q 1056 1369 1301 889 
Q 1547 409 2034 409 
Q 2525 409 2770 889 
Q 3016 1369 3016 2328 
Q 3016 3291 2770 3770 
Q 2525 4250 2034 4250 
z
M 2034 4750 
Q 2819 4750 3233 4129 
Q 3647 3509 3647 2328 
Q 3647 1150 3233 529 
Q 2819 -91 2034 -91 
Q 1250 -91 836 529 
Q 422 1150 422 2328 
Q 422 3509 836 4129 
Q 1250 4750 2034 4750 
z
" transform="scale(0.015625)"/>
       </defs>
       <use xlink:href="#DejaVuSans-32"/>
       <use xlink:href="#DejaVuSans-30" transform="translate(63.623047 0)"/>
      </g>
     </g>
    </g>
    <g id="xtick_2">
     <g id="line2d_2">
      <path d="M 149.772898 301.735725 
L 149.772898 35.623725 
" clip-path="url(#pe409b86fc3)" style="fill: none; stroke: #cccccc; stroke-width: 0.8; stroke-linecap: round"/>
     </g>
     <g id="text_2">
      <!-- 40 -->
      <g style="fill: #262626" transform="translate(143.410398 316.334162) scale(0.1 -0.1)">
       <defs>
        <path id="DejaVuSans-34" d="M 2419 4116 
L 825 1625 
L 2419 1625 
L 2419 4116 
z
M 2253 4666 
L 3047 4666 
L 3047 1625 
L 3713 1625 
L 3713 1100 
L 3047 1100 
L 3047 0 
L 2419 0 
L 2419 1100 
L 313 1100 
L 313 1709 
L 2253 4666 
z
" transform="scale(0.015625)"/>
       </defs>
       <use xlink:href="#DejaVuSans-34"/>
       <use xlink:href="#DejaVuSans-30" transform="translate(63.623047 0)"/>
      </g>
     </g>
    </g>
    <g id="xtick_3">
     <g id="line2d_3">
      <path d="M 203.881989 301.735725 
L 203.881989 35.623725 
" clip-path="url(#pe409b86fc3)" style="fill: none; stroke: #cccccc; stroke-width: 0.8; stroke-linecap: round"/>
     </g>
     <g id="text_3">
      <!-- 60 -->
      <g style="fill: #262626" transform="translate(197.519489 316.334162) scale(0.1 -0.1)">
       <defs>
        <path id="DejaVuSans-36" d="M 2113 2584 
Q 1688 2584 1439 2293 
Q 1191 2003 1191 1497 
Q 1191 994 1439 701 
Q 1688 409 2113 409 
Q 2538 409 2786 701 
Q 3034 994 3034 1497 
Q 3034 2003 2786 2293 
Q 2538 2584 2113 2584 
z
M 3366 4563 
L 3366 3988 
Q 3128 4100 2886 4159 
Q 2644 4219 2406 4219 
Q 1781 4219 1451 3797 
Q 1122 3375 1075 2522 
Q 1259 2794 1537 2939 
Q 1816 3084 2150 3084 
Q 2853 3084 3261 2657 
Q 3669 2231 3669 1497 
Q 3669 778 3244 343 
Q 2819 -91 2113 -91 
Q 1303 -91 875 529 
Q 447 1150 447 2328 
Q 447 3434 972 4092 
Q 1497 4750 2381 4750 
Q 2619 4750 2861 4703 
Q 3103 4656 3366 4563 
z
" transform="scale(0.015625)"/>
       </defs>
       <use xlink:href="#DejaVuSans-36"/>
       <use xlink:href="#DejaVuSans-30" transform="translate(63.623047 0)"/>
      </g>
     </g>
    </g>
    <g id="xtick_4">
     <g id="line2d_4">
      <path d="M 257.99108 301.735725 
L 257.99108 35.623725 
" clip-path="url(#pe409b86fc3)" style="fill: none; stroke: #cccccc; stroke-width: 0.8; stroke-linecap: round"/>
     </g>
     <g id="text_4">
      <!-- 80 -->
      <g style="fill: #262626" transform="translate(251.62858 316.334162) scale(0.1 -0.1)">
       <defs>
        <path id="DejaVuSans-38" d="M 2034 2216 
Q 1584 2216 1326 1975 
Q 1069 1734 1069 1313 
Q 1069 891 1326 650 
Q 1584 409 2034 409 
Q 2484 409 2743 651 
Q 3003 894 3003 1313 
Q 3003 1734 2745 1975 
Q 2488 2216 2034 2216 
z
M 1403 2484 
Q 997 2584 770 2862 
Q 544 3141 544 3541 
Q 544 4100 942 4425 
Q 1341 4750 2034 4750 
Q 2731 4750 3128 4425 
Q 3525 4100 3525 3541 
Q 3525 3141 3298 2862 
Q 3072 2584 2669 2484 
Q 3125 2378 3379 2068 
Q 3634 1759 3634 1313 
Q 3634 634 3220 271 
Q 2806 -91 2034 -91 
Q 1263 -91 848 271 
Q 434 634 434 1313 
Q 434 1759 690 2068 
Q 947 2378 1403 2484 
z
M 1172 3481 
Q 1172 3119 1398 2916 
Q 1625 2713 2034 2713 
Q 2441 2713 2670 2916 
Q 2900 3119 2900 3481 
Q 2900 3844 2670 4047 
Q 2441 4250 2034 4250 
Q 1625 4250 1398 4047 
Q 1172 3844 1172 3481 
z
" transform="scale(0.015625)"/>
       </defs>
       <use xlink:href="#DejaVuSans-38"/>
       <use xlink:href="#DejaVuSans-30" transform="translate(63.623047 0)"/>
      </g>
     </g>
    </g>
    <g id="xtick_5">
     <g id="line2d_5">
      <path d="M 312.10017 301.735725 
L 312.10017 35.623725 
" clip-path="url(#pe409b86fc3)" style="fill: none; stroke: #cccccc; stroke-width: 0.8; stroke-linecap: round"/>
     </g>
     <g id="text_5">
      <!-- 100 -->
      <g style="fill: #262626" transform="translate(302.55642 316.334162) scale(0.1 -0.1)">
       <defs>
        <path id="DejaVuSans-31" d="M 794 531 
L 1825 531 
L 1825 4091 
L 703 3866 
L 703 4441 
L 1819 4666 
L 2450 4666 
L 2450 531 
L 3481 531 
L 3481 0 
L 794 0 
L 794 531 
z
" transform="scale(0.015625)"/>
       </defs>
       <use xlink:href="#DejaVuSans-31"/>
       <use xlink:href="#DejaVuSans-30" transform="translate(63.623047 0)"/>
       <use xlink:href="#DejaVuSans-30" transform="translate(127.246094 0)"/>
      </g>
     </g>
    </g>
    <g id="xtick_6">
     <g id="line2d_6">
      <path d="M 366.209261 301.735725 
L 366.209261 35.623725 
" clip-path="url(#pe409b86fc3)" style="fill: none; stroke: #cccccc; stroke-width: 0.8; stroke-linecap: round"/>
     </g>
     <g id="text_6">
      <!-- 120 -->
      <g style="fill: #262626" transform="translate(356.665511 316.334162) scale(0.1 -0.1)">
       <use xlink:href="#DejaVuSans-31"/>
       <use xlink:href="#DejaVuSans-32" transform="translate(63.623047 0)"/>
       <use xlink:href="#DejaVuSans-30" transform="translate(127.246094 0)"/>
      </g>
     </g>
    </g>
    <g id="text_7">
     <!-- Number of Tasks -->
     <g style="fill: #262626" transform="translate(184.044375 330.012287) scale(0.1 -0.1)">
      <defs>
       <path id="DejaVuSans-4e" d="M 628 4666 
L 1478 4666 
L 3547 763 
L 3547 4666 
L 4159 4666 
L 4159 0 
L 3309 0 
L 1241 3903 
L 1241 0 
L 628 0 
L 628 4666 
z
" transform="scale(0.015625)"/>
       <path id="DejaVuSans-75" d="M 544 1381 
L 544 3500 
L 1119 3500 
L 1119 1403 
Q 1119 906 1312 657 
Q 1506 409 1894 409 
Q 2359 409 2629 706 
Q 2900 1003 2900 1516 
L 2900 3500 
L 3475 3500 
L 3475 0 
L 2900 0 
L 2900 538 
Q 2691 219 2414 64 
Q 2138 -91 1772 -91 
Q 1169 -91 856 284 
Q 544 659 544 1381 
z
M 1991 3584 
L 1991 3584 
z
" transform="scale(0.015625)"/>
       <path id="DejaVuSans-6d" d="M 3328 2828 
Q 3544 3216 3844 3400 
Q 4144 3584 4550 3584 
Q 5097 3584 5394 3201 
Q 5691 2819 5691 2113 
L 5691 0 
L 5113 0 
L 5113 2094 
Q 5113 2597 4934 2840 
Q 4756 3084 4391 3084 
Q 3944 3084 3684 2787 
Q 3425 2491 3425 1978 
L 3425 0 
L 2847 0 
L 2847 2094 
Q 2847 2600 2669 2842 
Q 2491 3084 2119 3084 
Q 1678 3084 1418 2786 
Q 1159 2488 1159 1978 
L 1159 0 
L 581 0 
L 581 3500 
L 1159 3500 
L 1159 2956 
Q 1356 3278 1631 3431 
Q 1906 3584 2284 3584 
Q 2666 3584 2933 3390 
Q 3200 3197 3328 2828 
z
" transform="scale(0.015625)"/>
       <path id="DejaVuSans-62" d="M 3116 1747 
Q 3116 2381 2855 2742 
Q 2594 3103 2138 3103 
Q 1681 3103 1420 2742 
Q 1159 2381 1159 1747 
Q 1159 1113 1420 752 
Q 1681 391 2138 391 
Q 2594 391 2855 752 
Q 3116 1113 3116 1747 
z
M 1159 2969 
Q 1341 3281 1617 3432 
Q 1894 3584 2278 3584 
Q 2916 3584 3314 3078 
Q 3713 2572 3713 1747 
Q 3713 922 3314 415 
Q 2916 -91 2278 -91 
Q 1894 -91 1617 61 
Q 1341 213 1159 525 
L 1159 0 
L 581 0 
L 581 4863 
L 1159 4863 
L 1159 2969 
z
" transform="scale(0.015625)"/>
       <path id="DejaVuSans-65" d="M 3597 1894 
L 3597 1613 
L 953 1613 
Q 991 1019 1311 708 
Q 1631 397 2203 397 
Q 2534 397 2845 478 
Q 3156 559 3463 722 
L 3463 178 
Q 3153 47 2828 -22 
Q 2503 -91 2169 -91 
Q 1331 -91 842 396 
Q 353 884 353 1716 
Q 353 2575 817 3079 
Q 1281 3584 2069 3584 
Q 2775 3584 3186 3129 
Q 3597 2675 3597 1894 
z
M 3022 2063 
Q 3016 2534 2758 2815 
Q 2500 3097 2075 3097 
Q 1594 3097 1305 2825 
Q 1016 2553 972 2059 
L 3022 2063 
z
" transform="scale(0.015625)"/>
       <path id="DejaVuSans-72" d="M 2631 2963 
Q 2534 3019 2420 3045 
Q 2306 3072 2169 3072 
Q 1681 3072 1420 2755 
Q 1159 2438 1159 1844 
L 1159 0 
L 581 0 
L 581 3500 
L 1159 3500 
L 1159 2956 
Q 1341 3275 1631 3429 
Q 1922 3584 2338 3584 
Q 2397 3584 2469 3576 
Q 2541 3569 2628 3553 
L 2631 2963 
z
" transform="scale(0.015625)"/>
       <path id="DejaVuSans-20" transform="scale(0.015625)"/>
       <path id="DejaVuSans-6f" d="M 1959 3097 
Q 1497 3097 1228 2736 
Q 959 2375 959 1747 
Q 959 1119 1226 758 
Q 1494 397 1959 397 
Q 2419 397 2687 759 
Q 2956 1122 2956 1747 
Q 2956 2369 2687 2733 
Q 2419 3097 1959 3097 
z
M 1959 3584 
Q 2709 3584 3137 3096 
Q 3566 2609 3566 1747 
Q 3566 888 3137 398 
Q 2709 -91 1959 -91 
Q 1206 -91 779 398 
Q 353 888 353 1747 
Q 353 2609 779 3096 
Q 1206 3584 1959 3584 
z
" transform="scale(0.015625)"/>
       <path id="DejaVuSans-66" d="M 2375 4863 
L 2375 4384 
L 1825 4384 
Q 1516 4384 1395 4259 
Q 1275 4134 1275 3809 
L 1275 3500 
L 2222 3500 
L 2222 3053 
L 1275 3053 
L 1275 0 
L 697 0 
L 697 3053 
L 147 3053 
L 147 3500 
L 697 3500 
L 697 3744 
Q 697 4328 969 4595 
Q 1241 4863 1831 4863 
L 2375 4863 
z
" transform="scale(0.015625)"/>
       <path id="DejaVuSans-54" d="M -19 4666 
L 3928 4666 
L 3928 4134 
L 2272 4134 
L 2272 0 
L 1638 0 
L 1638 4134 
L -19 4134 
L -19 4666 
z
" transform="scale(0.015625)"/>
       <path id="DejaVuSans-61" d="M 2194 1759 
Q 1497 1759 1228 1600 
Q 959 1441 959 1056 
Q 959 750 1161 570 
Q 1363 391 1709 391 
Q 2188 391 2477 730 
Q 2766 1069 2766 1631 
L 2766 1759 
L 2194 1759 
z
M 3341 1997 
L 3341 0 
L 2766 0 
L 2766 531 
Q 2569 213 2275 61 
Q 1981 -91 1556 -91 
Q 1019 -91 701 211 
Q 384 513 384 1019 
Q 384 1609 779 1909 
Q 1175 2209 1959 2209 
L 2766 2209 
L 2766 2266 
Q 2766 2663 2505 2880 
Q 2244 3097 1772 3097 
Q 1472 3097 1187 3025 
Q 903 2953 641 2809 
L 641 3341 
Q 956 3463 1253 3523 
Q 1550 3584 1831 3584 
Q 2591 3584 2966 3190 
Q 3341 2797 3341 1997 
z
" transform="scale(0.015625)"/>
       <path id="DejaVuSans-73" d="M 2834 3397 
L 2834 2853 
Q 2591 2978 2328 3040 
Q 2066 3103 1784 3103 
Q 1356 3103 1142 2972 
Q 928 2841 928 2578 
Q 928 2378 1081 2264 
Q 1234 2150 1697 2047 
L 1894 2003 
Q 2506 1872 2764 1633 
Q 3022 1394 3022 966 
Q 3022 478 2636 193 
Q 2250 -91 1575 -91 
Q 1294 -91 989 -36 
Q 684 19 347 128 
L 347 722 
Q 666 556 975 473 
Q 1284 391 1588 391 
Q 1994 391 2212 530 
Q 2431 669 2431 922 
Q 2431 1156 2273 1281 
Q 2116 1406 1581 1522 
L 1381 1569 
Q 847 1681 609 1914 
Q 372 2147 372 2553 
Q 372 3047 722 3315 
Q 1072 3584 1716 3584 
Q 2034 3584 2315 3537 
Q 2597 3491 2834 3397 
z
" transform="scale(0.015625)"/>
       <path id="DejaVuSans-6b" d="M 581 4863 
L 1159 4863 
L 1159 1991 
L 2875 3500 
L 3609 3500 
L 1753 1863 
L 3688 0 
L 2938 0 
L 1159 1709 
L 1159 0 
L 581 0 
L 581 4863 
z
" transform="scale(0.015625)"/>
      </defs>
      <use xlink:href="#DejaVuSans-4e"/>
      <use xlink:href="#DejaVuSans-75" transform="translate(74.804688 0)"/>
      <use xlink:href="#DejaVuSans-6d" transform="translate(138.183594 0)"/>
      <use xlink:href="#DejaVuSans-62" transform="translate(235.595703 0)"/>
      <use xlink:href="#DejaVuSans-65" transform="translate(299.072266 0)"/>
      <use xlink:href="#DejaVuSans-72" transform="translate(360.595703 0)"/>
      <use xlink:href="#DejaVuSans-20" transform="translate(401.708984 0)"/>
      <use xlink:href="#DejaVuSans-6f" transform="translate(433.496094 0)"/>
      <use xlink:href="#DejaVuSans-66" transform="translate(494.677734 0)"/>
      <use xlink:href="#DejaVuSans-20" transform="translate(529.882812 0)"/>
      <use xlink:href="#DejaVuSans-54" transform="translate(561.669922 0)"/>
      <use xlink:href="#DejaVuSans-61" transform="translate(606.253906 0)"/>
      <use xlink:href="#DejaVuSans-73" transform="translate(667.533203 0)"/>
      <use xlink:href="#DejaVuSans-6b" transform="translate(719.632812 0)"/>
      <use xlink:href="#DejaVuSans-73" transform="translate(777.542969 0)"/>
     </g>
    </g>
   </g>
   <g id="matplotlib.axis_2">
    <g id="ytick_1">
     <g id="line2d_7">
      <path d="M 46.965625 290.548236 
L 404.085625 290.548236 
" clip-path="url(#pe409b86fc3)" style="fill: none; stroke: #cccccc; stroke-width: 0.8; stroke-linecap: round"/>
     </g>
     <g id="text_8">
      <!-- 0 -->
      <g style="fill: #262626" transform="translate(33.603125 294.347455) scale(0.1 -0.1)">
       <use xlink:href="#DejaVuSans-30"/>
      </g>
     </g>
    </g>
    <g id="ytick_2">
     <g id="line2d_8">
      <path d="M 46.965625 256.257788 
L 404.085625 256.257788 
" clip-path="url(#pe409b86fc3)" style="fill: none; stroke: #cccccc; stroke-width: 0.8; stroke-linecap: round"/>
     </g>
     <g id="text_9">
      <!-- 50 -->
      <g style="fill: #262626" transform="translate(27.240625 260.057007) scale(0.1 -0.1)">
       <defs>
        <path id="DejaVuSans-35" d="M 691 4666 
L 3169 4666 
L 3169 4134 
L 1269 4134 
L 1269 2991 
Q 1406 3038 1543 3061 
Q 1681 3084 1819 3084 
Q 2600 3084 3056 2656 
Q 3513 2228 3513 1497 
Q 3513 744 3044 326 
Q 2575 -91 1722 -91 
Q 1428 -91 1123 -41 
Q 819 9 494 109 
L 494 744 
Q 775 591 1075 516 
Q 1375 441 1709 441 
Q 2250 441 2565 725 
Q 2881 1009 2881 1497 
Q 2881 1984 2565 2268 
Q 2250 2553 1709 2553 
Q 1456 2553 1204 2497 
Q 953 2441 691 2322 
L 691 4666 
z
" transform="scale(0.015625)"/>
       </defs>
       <use xlink:href="#DejaVuSans-35"/>
       <use xlink:href="#DejaVuSans-30" transform="translate(63.623047 0)"/>
      </g>
     </g>
    </g>
    <g id="ytick_3">
     <g id="line2d_9">
      <path d="M 46.965625 221.96734 
L 404.085625 221.96734 
" clip-path="url(#pe409b86fc3)" style="fill: none; stroke: #cccccc; stroke-width: 0.8; stroke-linecap: round"/>
     </g>
     <g id="text_10">
      <!-- 100 -->
      <g style="fill: #262626" transform="translate(20.878125 225.766559) scale(0.1 -0.1)">
       <use xlink:href="#DejaVuSans-31"/>
       <use xlink:href="#DejaVuSans-30" transform="translate(63.623047 0)"/>
       <use xlink:href="#DejaVuSans-30" transform="translate(127.246094 0)"/>
      </g>
     </g>
    </g>
    <g id="ytick_4">
     <g id="line2d_10">
      <path d="M 46.965625 187.676892 
L 404.085625 187.676892 
" clip-path="url(#pe409b86fc3)" style="fill: none; stroke: #cccccc; stroke-width: 0.8; stroke-linecap: round"/>
     </g>
     <g id="text_11">
      <!-- 150 -->
      <g style="fill: #262626" transform="translate(20.878125 191.476111) scale(0.1 -0.1)">
       <use xlink:href="#DejaVuSans-31"/>
       <use xlink:href="#DejaVuSans-35" transform="translate(63.623047 0)"/>
       <use xlink:href="#DejaVuSans-30" transform="translate(127.246094 0)"/>
      </g>
     </g>
    </g>
    <g id="ytick_5">
     <g id="line2d_11">
      <path d="M 46.965625 153.386444 
L 404.085625 153.386444 
" clip-path="url(#pe409b86fc3)" style="fill: none; stroke: #cccccc; stroke-width: 0.8; stroke-linecap: round"/>
     </g>
     <g id="text_12">
      <!-- 200 -->
      <g style="fill: #262626" transform="translate(20.878125 157.185663) scale(0.1 -0.1)">
       <use xlink:href="#DejaVuSans-32"/>
       <use xlink:href="#DejaVuSans-30" transform="translate(63.623047 0)"/>
       <use xlink:href="#DejaVuSans-30" transform="translate(127.246094 0)"/>
      </g>
     </g>
    </g>
    <g id="ytick_6">
     <g id="line2d_12">
      <path d="M 46.965625 119.095996 
L 404.085625 119.095996 
" clip-path="url(#pe409b86fc3)" style="fill: none; stroke: #cccccc; stroke-width: 0.8; stroke-linecap: round"/>
     </g>
     <g id="text_13">
      <!-- 250 -->
      <g style="fill: #262626" transform="translate(20.878125 122.895215) scale(0.1 -0.1)">
       <use xlink:href="#DejaVuSans-32"/>
       <use xlink:href="#DejaVuSans-35" transform="translate(63.623047 0)"/>
       <use xlink:href="#DejaVuSans-30" transform="translate(127.246094 0)"/>
      </g>
     </g>
    </g>
    <g id="ytick_7">
     <g id="line2d_13">
      <path d="M 46.965625 84.805548 
L 404.085625 84.805548 
" clip-path="url(#pe409b86fc3)" style="fill: none; stroke: #cccccc; stroke-width: 0.8; stroke-linecap: round"/>
     </g>
     <g id="text_14">
      <!-- 300 -->
      <g style="fill: #262626" transform="translate(20.878125 88.604767) scale(0.1 -0.1)">
       <defs>
        <path id="DejaVuSans-33" d="M 2597 2516 
Q 3050 2419 3304 2112 
Q 3559 1806 3559 1356 
Q 3559 666 3084 287 
Q 2609 -91 1734 -91 
Q 1441 -91 1130 -33 
Q 819 25 488 141 
L 488 750 
Q 750 597 1062 519 
Q 1375 441 1716 441 
Q 2309 441 2620 675 
Q 2931 909 2931 1356 
Q 2931 1769 2642 2001 
Q 2353 2234 1838 2234 
L 1294 2234 
L 1294 2753 
L 1863 2753 
Q 2328 2753 2575 2939 
Q 2822 3125 2822 3475 
Q 2822 3834 2567 4026 
Q 2313 4219 1838 4219 
Q 1578 4219 1281 4162 
Q 984 4106 628 3988 
L 628 4550 
Q 988 4650 1302 4700 
Q 1616 4750 1894 4750 
Q 2613 4750 3031 4423 
Q 3450 4097 3450 3541 
Q 3450 3153 3228 2886 
Q 3006 2619 2597 2516 
z
" transform="scale(0.015625)"/>
       </defs>
       <use xlink:href="#DejaVuSans-33"/>
       <use xlink:href="#DejaVuSans-30" transform="translate(63.623047 0)"/>
       <use xlink:href="#DejaVuSans-30" transform="translate(127.246094 0)"/>
      </g>
     </g>
    </g>
    <g id="ytick_8">
     <g id="line2d_14">
      <path d="M 46.965625 50.5151 
L 404.085625 50.5151 
" clip-path="url(#pe409b86fc3)" style="fill: none; stroke: #cccccc; stroke-width: 0.8; stroke-linecap: round"/>
     </g>
     <g id="text_15">
      <!-- 350 -->
      <g style="fill: #262626" transform="translate(20.878125 54.314319) scale(0.1 -0.1)">
       <use xlink:href="#DejaVuSans-33"/>
       <use xlink:href="#DejaVuSans-35" transform="translate(63.623047 0)"/>
       <use xlink:href="#DejaVuSans-30" transform="translate(127.246094 0)"/>
      </g>
     </g>
    </g>
    <g id="text_16">
     <!-- Bandwidth (GiB/s) -->
     <g style="fill: #262626" transform="translate(14.798438 213.771912) rotate(-90) scale(0.1 -0.1)">
      <defs>
       <path id="DejaVuSans-42" d="M 1259 2228 
L 1259 519 
L 2272 519 
Q 2781 519 3026 730 
Q 3272 941 3272 1375 
Q 3272 1813 3026 2020 
Q 2781 2228 2272 2228 
L 1259 2228 
z
M 1259 4147 
L 1259 2741 
L 2194 2741 
Q 2656 2741 2882 2914 
Q 3109 3088 3109 3444 
Q 3109 3797 2882 3972 
Q 2656 4147 2194 4147 
L 1259 4147 
z
M 628 4666 
L 2241 4666 
Q 2963 4666 3353 4366 
Q 3744 4066 3744 3513 
Q 3744 3084 3544 2831 
Q 3344 2578 2956 2516 
Q 3422 2416 3680 2098 
Q 3938 1781 3938 1306 
Q 3938 681 3513 340 
Q 3088 0 2303 0 
L 628 0 
L 628 4666 
z
" transform="scale(0.015625)"/>
       <path id="DejaVuSans-6e" d="M 3513 2113 
L 3513 0 
L 2938 0 
L 2938 2094 
Q 2938 2591 2744 2837 
Q 2550 3084 2163 3084 
Q 1697 3084 1428 2787 
Q 1159 2491 1159 1978 
L 1159 0 
L 581 0 
L 581 3500 
L 1159 3500 
L 1159 2956 
Q 1366 3272 1645 3428 
Q 1925 3584 2291 3584 
Q 2894 3584 3203 3211 
Q 3513 2838 3513 2113 
z
" transform="scale(0.015625)"/>
       <path id="DejaVuSans-64" d="M 2906 2969 
L 2906 4863 
L 3481 4863 
L 3481 0 
L 2906 0 
L 2906 525 
Q 2725 213 2448 61 
Q 2172 -91 1784 -91 
Q 1150 -91 751 415 
Q 353 922 353 1747 
Q 353 2572 751 3078 
Q 1150 3584 1784 3584 
Q 2172 3584 2448 3432 
Q 2725 3281 2906 2969 
z
M 947 1747 
Q 947 1113 1208 752 
Q 1469 391 1925 391 
Q 2381 391 2643 752 
Q 2906 1113 2906 1747 
Q 2906 2381 2643 2742 
Q 2381 3103 1925 3103 
Q 1469 3103 1208 2742 
Q 947 2381 947 1747 
z
" transform="scale(0.015625)"/>
       <path id="DejaVuSans-77" d="M 269 3500 
L 844 3500 
L 1563 769 
L 2278 3500 
L 2956 3500 
L 3675 769 
L 4391 3500 
L 4966 3500 
L 4050 0 
L 3372 0 
L 2619 2869 
L 1863 0 
L 1184 0 
L 269 3500 
z
" transform="scale(0.015625)"/>
       <path id="DejaVuSans-69" d="M 603 3500 
L 1178 3500 
L 1178 0 
L 603 0 
L 603 3500 
z
M 603 4863 
L 1178 4863 
L 1178 4134 
L 603 4134 
L 603 4863 
z
" transform="scale(0.015625)"/>
       <path id="DejaVuSans-74" d="M 1172 4494 
L 1172 3500 
L 2356 3500 
L 2356 3053 
L 1172 3053 
L 1172 1153 
Q 1172 725 1289 603 
Q 1406 481 1766 481 
L 2356 481 
L 2356 0 
L 1766 0 
Q 1100 0 847 248 
Q 594 497 594 1153 
L 594 3053 
L 172 3053 
L 172 3500 
L 594 3500 
L 594 4494 
L 1172 4494 
z
" transform="scale(0.015625)"/>
       <path id="DejaVuSans-68" d="M 3513 2113 
L 3513 0 
L 2938 0 
L 2938 2094 
Q 2938 2591 2744 2837 
Q 2550 3084 2163 3084 
Q 1697 3084 1428 2787 
Q 1159 2491 1159 1978 
L 1159 0 
L 581 0 
L 581 4863 
L 1159 4863 
L 1159 2956 
Q 1366 3272 1645 3428 
Q 1925 3584 2291 3584 
Q 2894 3584 3203 3211 
Q 3513 2838 3513 2113 
z
" transform="scale(0.015625)"/>
       <path id="DejaVuSans-28" d="M 1984 4856 
Q 1566 4138 1362 3434 
Q 1159 2731 1159 2009 
Q 1159 1288 1364 580 
Q 1569 -128 1984 -844 
L 1484 -844 
Q 1016 -109 783 600 
Q 550 1309 550 2009 
Q 550 2706 781 3412 
Q 1013 4119 1484 4856 
L 1984 4856 
z
" transform="scale(0.015625)"/>
       <path id="DejaVuSans-47" d="M 3809 666 
L 3809 1919 
L 2778 1919 
L 2778 2438 
L 4434 2438 
L 4434 434 
Q 4069 175 3628 42 
Q 3188 -91 2688 -91 
Q 1594 -91 976 548 
Q 359 1188 359 2328 
Q 359 3472 976 4111 
Q 1594 4750 2688 4750 
Q 3144 4750 3555 4637 
Q 3966 4525 4313 4306 
L 4313 3634 
Q 3963 3931 3569 4081 
Q 3175 4231 2741 4231 
Q 1884 4231 1454 3753 
Q 1025 3275 1025 2328 
Q 1025 1384 1454 906 
Q 1884 428 2741 428 
Q 3075 428 3337 486 
Q 3600 544 3809 666 
z
" transform="scale(0.015625)"/>
       <path id="DejaVuSans-2f" d="M 1625 4666 
L 2156 4666 
L 531 -594 
L 0 -594 
L 1625 4666 
z
" transform="scale(0.015625)"/>
       <path id="DejaVuSans-29" d="M 513 4856 
L 1013 4856 
Q 1481 4119 1714 3412 
Q 1947 2706 1947 2009 
Q 1947 1309 1714 600 
Q 1481 -109 1013 -844 
L 513 -844 
Q 928 -128 1133 580 
Q 1338 1288 1338 2009 
Q 1338 2731 1133 3434 
Q 928 4138 513 4856 
z
" transform="scale(0.015625)"/>
      </defs>
      <use xlink:href="#DejaVuSans-42"/>
      <use xlink:href="#DejaVuSans-61" transform="translate(68.603516 0)"/>
      <use xlink:href="#DejaVuSans-6e" transform="translate(129.882812 0)"/>
      <use xlink:href="#DejaVuSans-64" transform="translate(193.261719 0)"/>
      <use xlink:href="#DejaVuSans-77" transform="translate(256.738281 0)"/>
      <use xlink:href="#DejaVuSans-69" transform="translate(338.525391 0)"/>
      <use xlink:href="#DejaVuSans-64" transform="translate(366.308594 0)"/>
      <use xlink:href="#DejaVuSans-74" transform="translate(429.785156 0)"/>
      <use xlink:href="#DejaVuSans-68" transform="translate(468.994141 0)"/>
      <use xlink:href="#DejaVuSans-20" transform="translate(532.373047 0)"/>
      <use xlink:href="#DejaVuSans-28" transform="translate(564.160156 0)"/>
      <use xlink:href="#DejaVuSans-47" transform="translate(603.173828 0)"/>
      <use xlink:href="#DejaVuSans-69" transform="translate(680.664062 0)"/>
      <use xlink:href="#DejaVuSans-42" transform="translate(708.447266 0)"/>
      <use xlink:href="#DejaVuSans-2f" transform="translate(777.050781 0)"/>
      <use xlink:href="#DejaVuSans-73" transform="translate(810.742188 0)"/>
      <use xlink:href="#DejaVuSans-29" transform="translate(862.841797 0)"/>
     </g>
    </g>
   </g>
   <g id="FillBetweenPolyCollection_1">
    <defs>
     <path id="mdedfcd5691" d="M 63.198352 -52.712151 
L 63.198352 -49.65225 
L 74.02017 -50.134123 
L 106.485625 -50.108859 
L 128.129261 -49.925472 
L 171.416534 -50.100346 
L 301.278352 -50.021299 
L 333.743807 -49.689397 
L 387.852898 -49.848218 
L 387.852898 -54.466503 
L 387.852898 -54.466503 
L 333.743807 -55.186502 
L 301.278352 -54.693872 
L 171.416534 -54.739994 
L 128.129261 -54.042303 
L 106.485625 -54.723566 
L 74.02017 -54.746216 
L 63.198352 -52.712151 
z
" style="stroke: #3b0f70; stroke-opacity: 0.2"/>
    </defs>
    <g clip-path="url(#pe409b86fc3)">
     <use xlink:href="#mdedfcd5691" x="0" y="339.291975" style="fill: #3b0f70; fill-opacity: 0.2; stroke: #3b0f70; stroke-opacity: 0.2"/>
    </g>
   </g>
   <g id="FillBetweenPolyCollection_2">
    <defs>
     <path id="m0761e258d7" d="M 63.198352 -104.132723 
L 63.198352 -60.856146 
L 74.02017 -67.574523 
L 106.485625 -65.995307 
L 128.129261 -62.150081 
L 171.416534 -65.885366 
L 301.278352 -62.11072 
L 333.743807 -62.624688 
L 387.852898 -60.833399 
L 387.852898 -102.681791 
L 387.852898 -102.681791 
L 333.743807 -101.735997 
L 301.278352 -104.140553 
L 171.416534 -119.398054 
L 128.129261 -116.820296 
L 106.485625 -121.980128 
L 74.02017 -129.425644 
L 63.198352 -104.132723 
z
" style="stroke: #8c2981; stroke-opacity: 0.2"/>
    </defs>
    <g clip-path="url(#pe409b86fc3)">
     <use xlink:href="#m0761e258d7" x="0" y="339.291975" style="fill: #8c2981; fill-opacity: 0.2; stroke: #8c2981; stroke-opacity: 0.2"/>
    </g>
   </g>
   <g id="FillBetweenPolyCollection_3">
    <defs>
     <path id="md665ed1153" d="M 63.198352 -139.575339 
L 63.198352 -69.186002 
L 74.02017 -76.684571 
L 106.485625 -76.111039 
L 128.129261 -73.494043 
L 171.416534 -75.819901 
L 301.278352 -72.815962 
L 333.743807 -72.150843 
L 387.852898 -70.073856 
L 387.852898 -149.537026 
L 387.852898 -149.537026 
L 333.743807 -151.132408 
L 301.278352 -148.951493 
L 171.416534 -159.927955 
L 128.129261 -147.702853 
L 106.485625 -156.836939 
L 74.02017 -158.627391 
L 63.198352 -139.575339 
z
" style="stroke: #de4968; stroke-opacity: 0.2"/>
    </defs>
    <g clip-path="url(#pe409b86fc3)">
     <use xlink:href="#md665ed1153" x="0" y="339.291975" style="fill: #de4968; fill-opacity: 0.2; stroke: #de4968; stroke-opacity: 0.2"/>
    </g>
   </g>
   <g id="FillBetweenPolyCollection_4">
    <defs>
     <path id="m1143a15de9" d="M 63.198352 -241.990151 
L 63.198352 -87.485274 
L 74.02017 -102.376562 
L 106.485625 -88.278335 
L 128.129261 -83.634142 
L 171.416534 -82.370602 
L 301.278352 -74.236603 
L 333.743807 -72.677354 
L 387.852898 -68.31978 
L 387.852898 -144.340545 
L 387.852898 -144.340545 
L 333.743807 -150.028328 
L 301.278352 -155.824347 
L 171.416534 -193.94956 
L 128.129261 -180.930571 
L 106.485625 -188.769857 
L 74.02017 -291.57225 
L 63.198352 -241.990151 
z
" style="stroke: #fe9f6d; stroke-opacity: 0.2"/>
    </defs>
    <g clip-path="url(#pe409b86fc3)">
     <use xlink:href="#m1143a15de9" x="0" y="339.291975" style="fill: #fe9f6d; fill-opacity: 0.2; stroke: #fe9f6d; stroke-opacity: 0.2"/>
    </g>
   </g>
   <g id="line2d_15">
    <path d="M 63.198352 288.274742 
L 74.02017 287.10218 
L 106.485625 287.123704 
L 128.129261 287.511617 
L 171.416534 287.108493 
L 301.278352 287.166935 
L 333.743807 287.322086 
L 387.852898 287.328491 
" clip-path="url(#pe409b86fc3)" style="fill: none; stroke: #3b0f70; stroke-width: 1.5; stroke-linecap: round"/>
   </g>
   <g id="line2d_16">
    <path d="M 63.198352 260.121734 
L 74.02017 244.467903 
L 106.485625 246.331395 
L 128.129261 249.871898 
L 171.416534 246.925276 
L 301.278352 256.166338 
L 333.743807 257.111632 
L 387.852898 258.070678 
" clip-path="url(#pe409b86fc3)" style="fill: none; stroke: #8c2981; stroke-width: 1.5; stroke-linecap: round"/>
   </g>
   <g id="line2d_17">
    <path d="M 63.198352 240.855778 
L 74.02017 224.193179 
L 106.485625 222.817986 
L 128.129261 229.657605 
L 171.416534 221.839757 
L 301.278352 230.661147 
L 333.743807 233.888172 
L 387.852898 236.371222 
" clip-path="url(#pe409b86fc3)" style="fill: none; stroke: #de4968; stroke-width: 1.5; stroke-linecap: round"/>
   </g>
   <g id="line2d_18">
    <path d="M 63.198352 186.585109 
L 74.02017 152.490632 
L 106.485625 200.767879 
L 128.129261 210.701257 
L 171.416534 208.162662 
L 301.278352 226.275749 
L 333.743807 230.950084 
L 387.852898 234.03099 
" clip-path="url(#pe409b86fc3)" style="fill: none; stroke: #fe9f6d; stroke-width: 1.5; stroke-linecap: round"/>
   </g>
   <g id="line2d_19"/>
   <g id="line2d_20"/>
   <g id="line2d_21"/>
   <g id="line2d_22"/>
   <g id="text_17">
    <path d="M 120.720778 289.510382 
L 122.331646 289.49538 
L 122.279846 283.933121 
L 120.530071 284.300994 
L 120.521704 283.402596 
L 122.262104 283.03481 
L 123.247999 283.025629 
L 123.308166 289.486286 
L 124.919033 289.471284 
L 124.92676 290.300936 
L 120.728504 290.340033 
L 120.720778 289.510382 
z
M 129.113783 286.224268 
Q 128.449749 286.230452 128.064937 286.688743 
Q 127.681674 287.145457 127.689037 287.936048 
Q 127.696355 288.721951 128.088102 289.176135 
Q 128.481396 289.628742 129.14543 289.622558 
Q 129.809464 289.616374 130.192698 289.156536 
Q 130.575918 288.695134 130.568599 287.909231 
Q 130.561237 287.11864 130.169534 286.669143 
Q 129.777816 286.218084 129.113783 286.224268 
z
M 131.042715 283.113983 
L 131.051081 284.012381 
Q 130.677593 283.840852 130.298626 283.75219 
Q 129.919644 283.661965 129.547785 283.665428 
Q 128.571265 283.674522 128.061803 284.33867 
Q 127.553903 285.002804 127.49288 286.336242 
Q 127.77641 285.908584 128.208656 285.677986 
Q 128.642465 285.447374 129.164317 285.442514 
Q 130.262707 285.432285 130.906393 286.093507 
Q 131.550064 286.753166 131.560744 287.899991 
Q 131.571205 289.02338 130.913501 289.709222 
Q 130.255783 290.393502 129.152705 290.403774 
Q 127.887135 290.41556 127.209393 289.45308 
Q 126.531636 288.489037 126.514495 286.648492 
Q 126.498403 284.920442 127.309105 283.884723 
Q 128.119808 282.849003 129.500998 282.83614 
Q 129.872857 282.832677 130.251649 282.90259 
Q 130.630442 282.972503 131.042715 283.113983 
z
M 133.125305 282.933644 
L 134.1112 282.924462 
L 134.139894 286.005579 
L 137.382933 282.893993 
L 138.653191 282.882164 
L 135.066245 286.314153 
L 138.978885 290.170072 
L 137.680504 290.182163 
L 134.146398 286.703986 
L 134.179093 290.214771 
L 133.193198 290.223953 
L 133.125305 282.933644 
z
" clip-path="url(#pe409b86fc3)" style="fill: #3b0f70; stroke: #ffffff; stroke-width: 5"/>
    <path d="M 120.720778 289.510382 
L 122.331646 289.49538 
L 122.279846 283.933121 
L 120.530071 284.300994 
L 120.521704 283.402596 
L 122.262104 283.03481 
L 123.247999 283.025629 
L 123.308166 289.486286 
L 124.919033 289.471284 
L 124.92676 290.300936 
L 120.728504 290.340033 
L 120.720778 289.510382 
z
M 129.113783 286.224268 
Q 128.449749 286.230452 128.064937 286.688743 
Q 127.681674 287.145457 127.689037 287.936048 
Q 127.696355 288.721951 128.088102 289.176135 
Q 128.481396 289.628742 129.14543 289.622558 
Q 129.809464 289.616374 130.192698 289.156536 
Q 130.575918 288.695134 130.568599 287.909231 
Q 130.561237 287.11864 130.169534 286.669143 
Q 129.777816 286.218084 129.113783 286.224268 
z
M 131.042715 283.113983 
L 131.051081 284.012381 
Q 130.677593 283.840852 130.298626 283.75219 
Q 129.919644 283.661965 129.547785 283.665428 
Q 128.571265 283.674522 128.061803 284.33867 
Q 127.553903 285.002804 127.49288 286.336242 
Q 127.77641 285.908584 128.208656 285.677986 
Q 128.642465 285.447374 129.164317 285.442514 
Q 130.262707 285.432285 130.906393 286.093507 
Q 131.550064 286.753166 131.560744 287.899991 
Q 131.571205 289.02338 130.913501 289.709222 
Q 130.255783 290.393502 129.152705 290.403774 
Q 127.887135 290.41556 127.209393 289.45308 
Q 126.531636 288.489037 126.514495 286.648492 
Q 126.498403 284.920442 127.309105 283.884723 
Q 128.119808 282.849003 129.500998 282.83614 
Q 129.872857 282.832677 130.251649 282.90259 
Q 130.630442 282.972503 131.042715 283.113983 
z
M 133.125305 282.933644 
L 134.1112 282.924462 
L 134.139894 286.005579 
L 137.382933 282.893993 
L 138.653191 282.882164 
L 135.066245 286.314153 
L 138.978885 290.170072 
L 137.680504 290.182163 
L 134.146398 286.703986 
L 134.179093 290.214771 
L 133.193198 290.223953 
L 133.125305 282.933644 
z
" clip-path="url(#pe409b86fc3)" style="fill: #3b0f70"/>
   </g>
   <g id="text_18">
    <path d="M 187.008942 249.96941 
L 188.615817 250.083756 
L 189.01065 244.535287 
L 187.236992 244.761524 
L 187.300765 243.865352 
L 189.065071 243.63845 
L 190.048521 243.708433 
L 189.589916 250.153074 
L 191.19679 250.26742 
L 191.137898 251.095015 
L 186.95005 250.797005 
L 187.008942 249.96941 
z
M 193.555084 243.957963 
L 195.021688 244.062328 
L 196.524239 249.142733 
L 198.741968 244.327065 
L 200.208571 244.43143 
L 199.691074 251.703665 
L 198.731002 251.635346 
L 199.185392 245.249931 
L 196.95554 250.103896 
L 195.967414 250.03358 
L 194.447374 244.91277 
L 193.992983 251.298185 
L 193.037586 251.230198 
L 193.555084 243.957963 
z
" clip-path="url(#pe409b86fc3)" style="fill: #8c2981; stroke: #ffffff; stroke-width: 5"/>
    <path d="M 187.008942 249.96941 
L 188.615817 250.083756 
L 189.01065 244.535287 
L 187.236992 244.761524 
L 187.300765 243.865352 
L 189.065071 243.63845 
L 190.048521 243.708433 
L 189.589916 250.153074 
L 191.19679 250.26742 
L 191.137898 251.095015 
L 186.95005 250.797005 
L 187.008942 249.96941 
z
M 193.555084 243.957963 
L 195.021688 244.062328 
L 196.524239 249.142733 
L 198.741968 244.327065 
L 200.208571 244.43143 
L 199.691074 251.703665 
L 198.731002 251.635346 
L 199.185392 245.249931 
L 196.95554 250.103896 
L 195.967414 250.03358 
L 194.447374 244.91277 
L 193.992983 251.298185 
L 193.037586 251.230198 
L 193.555084 243.957963 
z
" clip-path="url(#pe409b86fc3)" style="fill: #8c2981"/>
   </g>
   <g id="text_19">
    <path d="M 251.971904 229.245942 
L 255.406177 229.479228 
L 255.349947 230.307008 
L 250.732463 229.993347 
L 250.788693 229.165567 
Q 251.387734 228.62367 252.420547 227.713449 
Q 253.455025 226.801775 253.722164 226.534891 
Q 254.230517 226.036949 254.442577 225.681754 
Q 254.656196 225.326665 254.68034 224.971234 
Q 254.719733 224.39132 254.337638 223.998898 
Q 253.955648 223.604916 253.302466 223.560546 
Q 252.839471 223.529095 252.314124 223.654717 
Q 251.790336 223.780445 251.183508 224.068105 
L 251.251069 223.073522 
Q 251.861215 222.875355 252.385473 222.788811 
Q 252.91129 222.702374 253.33999 222.731495 
Q 254.470197 222.808269 255.103647 223.419793 
Q 255.737202 224.029758 255.673029 224.974456 
Q 255.642532 225.423422 255.446849 225.814183 
Q 255.25283 226.203492 254.771479 226.718929 
Q 254.640247 226.85253 253.941212 227.483167 
Q 253.243737 228.11391 251.971904 229.245942 
z
M 257.822112 223.167514 
L 259.289044 223.267161 
L 260.807927 228.342707 
L 263.010156 223.519933 
L 264.477088 223.61958 
L 263.982981 230.893442 
L 263.022694 230.828211 
L 263.456547 224.441367 
L 261.242317 229.302479 
L 260.253969 229.235342 
L 258.717468 224.119446 
L 258.283616 230.50629 
L 257.328005 230.441376 
L 257.822112 223.167514 
z
" clip-path="url(#pe409b86fc3)" style="fill: #de4968; stroke: #ffffff; stroke-width: 5"/>
    <path d="M 251.971904 229.245942 
L 255.406177 229.479228 
L 255.349947 230.307008 
L 250.732463 229.993347 
L 250.788693 229.165567 
Q 251.387734 228.62367 252.420547 227.713449 
Q 253.455025 226.801775 253.722164 226.534891 
Q 254.230517 226.036949 254.442577 225.681754 
Q 254.656196 225.326665 254.68034 224.971234 
Q 254.719733 224.39132 254.337638 223.998898 
Q 253.955648 223.604916 253.302466 223.560546 
Q 252.839471 223.529095 252.314124 223.654717 
Q 251.790336 223.780445 251.183508 224.068105 
L 251.251069 223.073522 
Q 251.861215 222.875355 252.385473 222.788811 
Q 252.91129 222.702374 253.33999 222.731495 
Q 254.470197 222.808269 255.103647 223.419793 
Q 255.737202 224.029758 255.673029 224.974456 
Q 255.642532 225.423422 255.446849 225.814183 
Q 255.25283 226.203492 254.771479 226.718929 
Q 254.640247 226.85253 253.941212 227.483167 
Q 253.243737 228.11391 251.971904 229.245942 
z
M 257.822112 223.167514 
L 259.289044 223.267161 
L 260.807927 228.342707 
L 263.010156 223.519933 
L 264.477088 223.61958 
L 263.982981 230.893442 
L 263.022694 230.828211 
L 263.456547 224.441367 
L 261.242317 229.302479 
L 260.253969 229.235342 
L 258.717468 224.119446 
L 258.283616 230.50629 
L 257.328005 230.441376 
L 257.822112 223.167514 
z
" clip-path="url(#pe409b86fc3)" style="fill: #de4968"/>
   </g>
   <g id="text_20">
    <path d="M 318.7936 225.087833 
L 315.773723 228.585358 
L 318.238927 228.940295 
L 318.7936 225.087833 
z
M 318.659341 224.200266 
L 319.887303 224.377067 
L 319.210162 229.080132 
L 320.240166 229.228431 
L 320.123264 230.040371 
L 319.09326 229.892072 
L 318.848322 231.59328 
L 317.877087 231.453443 
L 318.122025 229.752235 
L 314.864986 229.283291 
L 315.000592 228.34144 
L 318.659341 224.200266 
z
M 322.443561 224.745114 
L 323.898867 224.954647 
L 325.032285 230.129928 
L 327.590487 225.486161 
L 329.045793 225.695695 
L 328.006812 232.911908 
L 327.054135 232.774742 
L 327.966417 226.438518 
L 325.393368 231.119612 
L 324.412854 230.978439 
L 323.264898 225.761599 
L 322.352616 232.097824 
L 321.40458 231.961327 
L 322.443561 224.745114 
z
" clip-path="url(#pe409b86fc3)" style="fill: #fe9f6d; stroke: #ffffff; stroke-width: 5"/>
    <path d="M 318.7936 225.087833 
L 315.773723 228.585358 
L 318.238927 228.940295 
L 318.7936 225.087833 
z
M 318.659341 224.200266 
L 319.887303 224.377067 
L 319.210162 229.080132 
L 320.240166 229.228431 
L 320.123264 230.040371 
L 319.09326 229.892072 
L 318.848322 231.59328 
L 317.877087 231.453443 
L 318.122025 229.752235 
L 314.864986 229.283291 
L 315.000592 228.34144 
L 318.659341 224.200266 
z
M 322.443561 224.745114 
L 323.898867 224.954647 
L 325.032285 230.129928 
L 327.590487 225.486161 
L 329.045793 225.695695 
L 328.006812 232.911908 
L 327.054135 232.774742 
L 327.966417 226.438518 
L 325.393368 231.119612 
L 324.412854 230.978439 
L 323.264898 225.761599 
L 322.352616 232.097824 
L 321.40458 231.961327 
L 322.443561 224.745114 
z
" clip-path="url(#pe409b86fc3)" style="fill: #fe9f6d"/>
   </g>
   <g id="patch_3">
    <path d="M 46.965625 301.735725 
L 46.965625 35.623725 
" style="fill: none; stroke: #cccccc; stroke-width: 0.8; stroke-linejoin: miter; stroke-linecap: square"/>
   </g>
   <g id="patch_4">
    <path d="M 404.085625 301.735725 
L 404.085625 35.623725 
" style="fill: none; stroke: #cccccc; stroke-width: 0.8; stroke-linejoin: miter; stroke-linecap: square"/>
   </g>
   <g id="patch_5">
    <path d="M 46.965625 301.735725 
L 404.085625 301.735725 
" style="fill: none; stroke: #cccccc; stroke-width: 0.8; stroke-linejoin: miter; stroke-linecap: square"/>
   </g>
   <g id="patch_6">
    <path d="M 46.965625 35.623725 
L 404.085625 35.623725 
" style="fill: none; stroke: #cccccc; stroke-width: 0.8; stroke-linejoin: miter; stroke-linecap: square"/>
   </g>
   <g id="text_21">
    <!-- b = [131072], s = [1] -->
    <g style="fill: #262626; opacity: 0.75" transform="translate(171.760781 30.882918) scale(0.1 -0.1)">
     <defs>
      <path id="DejaVuSans-3d" d="M 678 2906 
L 4684 2906 
L 4684 2381 
L 678 2381 
L 678 2906 
z
M 678 1631 
L 4684 1631 
L 4684 1100 
L 678 1100 
L 678 1631 
z
" transform="scale(0.015625)"/>
      <path id="DejaVuSans-5b" d="M 550 4863 
L 1875 4863 
L 1875 4416 
L 1125 4416 
L 1125 -397 
L 1875 -397 
L 1875 -844 
L 550 -844 
L 550 4863 
z
" transform="scale(0.015625)"/>
      <path id="DejaVuSans-37" d="M 525 4666 
L 3525 4666 
L 3525 4397 
L 1831 0 
L 1172 0 
L 2766 4134 
L 525 4134 
L 525 4666 
z
" transform="scale(0.015625)"/>
      <path id="DejaVuSans-5d" d="M 1947 4863 
L 1947 -844 
L 622 -844 
L 622 -397 
L 1369 -397 
L 1369 4416 
L 622 4416 
L 622 4863 
L 1947 4863 
z
" transform="scale(0.015625)"/>
      <path id="DejaVuSans-2c" d="M 750 794 
L 1409 794 
L 1409 256 
L 897 -744 
L 494 -744 
L 750 256 
L 750 794 
z
" transform="scale(0.015625)"/>
     </defs>
     <use xlink:href="#DejaVuSans-62"/>
     <use xlink:href="#DejaVuSans-20" transform="translate(63.476562 0)"/>
     <use xlink:href="#DejaVuSans-3d" transform="translate(95.263672 0)"/>
     <use xlink:href="#DejaVuSans-20" transform="translate(179.052734 0)"/>
     <use xlink:href="#DejaVuSans-5b" transform="translate(210.839844 0)"/>
     <use xlink:href="#DejaVuSans-31" transform="translate(249.853516 0)"/>
     <use xlink:href="#DejaVuSans-33" transform="translate(313.476562 0)"/>
     <use xlink:href="#DejaVuSans-31" transform="translate(377.099609 0)"/>
     <use xlink:href="#DejaVuSans-30" transform="translate(440.722656 0)"/>
     <use xlink:href="#DejaVuSans-37" transform="translate(504.345703 0)"/>
     <use xlink:href="#DejaVuSans-32" transform="translate(567.96875 0)"/>
     <use xlink:href="#DejaVuSans-5d" transform="translate(631.591797 0)"/>
     <use xlink:href="#DejaVuSans-2c" transform="translate(670.605469 0)"/>
     <use xlink:href="#DejaVuSans-20" transform="translate(702.392578 0)"/>
     <use xlink:href="#DejaVuSans-73" transform="translate(734.179688 0)"/>
     <use xlink:href="#DejaVuSans-20" transform="translate(786.279297 0)"/>
     <use xlink:href="#DejaVuSans-3d" transform="translate(818.066406 0)"/>
     <use xlink:href="#DejaVuSans-20" transform="translate(901.855469 0)"/>
     <use xlink:href="#DejaVuSans-5b" transform="translate(933.642578 0)"/>
     <use xlink:href="#DejaVuSans-31" transform="translate(972.65625 0)"/>
     <use xlink:href="#DejaVuSans-5d" transform="translate(1036.279297 0)"/>
    </g>
   </g>
   <g id="text_22">
    <!-- Write Bandwidth vs Number of Tasks -->
    <g style="fill: #262626" transform="translate(100.81 16.318125) scale(0.12 -0.12)">
     <defs>
      <path id="DejaVuSans-Bold-57" d="M 191 4666 
L 1344 4666 
L 2150 1275 
L 2950 4666 
L 4109 4666 
L 4909 1275 
L 5716 4666 
L 6859 4666 
L 5759 0 
L 4372 0 
L 3525 3547 
L 2688 0 
L 1300 0 
L 191 4666 
z
" transform="scale(0.015625)"/>
      <path id="DejaVuSans-Bold-72" d="M 3138 2547 
Q 2991 2616 2845 2648 
Q 2700 2681 2553 2681 
Q 2122 2681 1889 2404 
Q 1656 2128 1656 1613 
L 1656 0 
L 538 0 
L 538 3500 
L 1656 3500 
L 1656 2925 
Q 1872 3269 2151 3426 
Q 2431 3584 2822 3584 
Q 2878 3584 2943 3579 
Q 3009 3575 3134 3559 
L 3138 2547 
z
" transform="scale(0.015625)"/>
      <path id="DejaVuSans-Bold-69" d="M 538 3500 
L 1656 3500 
L 1656 0 
L 538 0 
L 538 3500 
z
M 538 4863 
L 1656 4863 
L 1656 3950 
L 538 3950 
L 538 4863 
z
" transform="scale(0.015625)"/>
      <path id="DejaVuSans-Bold-74" d="M 1759 4494 
L 1759 3500 
L 2913 3500 
L 2913 2700 
L 1759 2700 
L 1759 1216 
Q 1759 972 1856 886 
Q 1953 800 2241 800 
L 2816 800 
L 2816 0 
L 1856 0 
Q 1194 0 917 276 
Q 641 553 641 1216 
L 641 2700 
L 84 2700 
L 84 3500 
L 641 3500 
L 641 4494 
L 1759 4494 
z
" transform="scale(0.015625)"/>
      <path id="DejaVuSans-Bold-65" d="M 4031 1759 
L 4031 1441 
L 1416 1441 
Q 1456 1047 1700 850 
Q 1944 653 2381 653 
Q 2734 653 3104 758 
Q 3475 863 3866 1075 
L 3866 213 
Q 3469 63 3072 -14 
Q 2675 -91 2278 -91 
Q 1328 -91 801 392 
Q 275 875 275 1747 
Q 275 2603 792 3093 
Q 1309 3584 2216 3584 
Q 3041 3584 3536 3087 
Q 4031 2591 4031 1759 
z
M 2881 2131 
Q 2881 2450 2695 2645 
Q 2509 2841 2209 2841 
Q 1884 2841 1681 2658 
Q 1478 2475 1428 2131 
L 2881 2131 
z
" transform="scale(0.015625)"/>
      <path id="DejaVuSans-Bold-20" transform="scale(0.015625)"/>
      <path id="DejaVuSans-Bold-42" d="M 2456 2859 
Q 2741 2859 2887 2984 
Q 3034 3109 3034 3353 
Q 3034 3594 2887 3720 
Q 2741 3847 2456 3847 
L 1791 3847 
L 1791 2859 
L 2456 2859 
z
M 2497 819 
Q 2859 819 3042 972 
Q 3225 1125 3225 1434 
Q 3225 1738 3044 1889 
Q 2863 2041 2497 2041 
L 1791 2041 
L 1791 819 
L 2497 819 
z
M 3616 2497 
Q 4003 2384 4215 2081 
Q 4428 1778 4428 1338 
Q 4428 663 3972 331 
Q 3516 0 2584 0 
L 588 0 
L 588 4666 
L 2394 4666 
Q 3366 4666 3802 4372 
Q 4238 4078 4238 3431 
Q 4238 3091 4078 2852 
Q 3919 2613 3616 2497 
z
" transform="scale(0.015625)"/>
      <path id="DejaVuSans-Bold-61" d="M 2106 1575 
Q 1756 1575 1579 1456 
Q 1403 1338 1403 1106 
Q 1403 894 1545 773 
Q 1688 653 1941 653 
Q 2256 653 2472 879 
Q 2688 1106 2688 1447 
L 2688 1575 
L 2106 1575 
z
M 3816 1997 
L 3816 0 
L 2688 0 
L 2688 519 
Q 2463 200 2181 54 
Q 1900 -91 1497 -91 
Q 953 -91 614 226 
Q 275 544 275 1050 
Q 275 1666 698 1953 
Q 1122 2241 2028 2241 
L 2688 2241 
L 2688 2328 
Q 2688 2594 2478 2717 
Q 2269 2841 1825 2841 
Q 1466 2841 1156 2769 
Q 847 2697 581 2553 
L 581 3406 
Q 941 3494 1303 3539 
Q 1666 3584 2028 3584 
Q 2975 3584 3395 3211 
Q 3816 2838 3816 1997 
z
" transform="scale(0.015625)"/>
      <path id="DejaVuSans-Bold-6e" d="M 4056 2131 
L 4056 0 
L 2931 0 
L 2931 347 
L 2931 1631 
Q 2931 2084 2911 2256 
Q 2891 2428 2841 2509 
Q 2775 2619 2662 2680 
Q 2550 2741 2406 2741 
Q 2056 2741 1856 2470 
Q 1656 2200 1656 1722 
L 1656 0 
L 538 0 
L 538 3500 
L 1656 3500 
L 1656 2988 
Q 1909 3294 2193 3439 
Q 2478 3584 2822 3584 
Q 3428 3584 3742 3212 
Q 4056 2841 4056 2131 
z
" transform="scale(0.015625)"/>
      <path id="DejaVuSans-Bold-64" d="M 2919 2988 
L 2919 4863 
L 4044 4863 
L 4044 0 
L 2919 0 
L 2919 506 
Q 2688 197 2409 53 
Q 2131 -91 1766 -91 
Q 1119 -91 703 423 
Q 288 938 288 1747 
Q 288 2556 703 3070 
Q 1119 3584 1766 3584 
Q 2128 3584 2408 3439 
Q 2688 3294 2919 2988 
z
M 2181 722 
Q 2541 722 2730 984 
Q 2919 1247 2919 1747 
Q 2919 2247 2730 2509 
Q 2541 2772 2181 2772 
Q 1825 2772 1636 2509 
Q 1447 2247 1447 1747 
Q 1447 1247 1636 984 
Q 1825 722 2181 722 
z
" transform="scale(0.015625)"/>
      <path id="DejaVuSans-Bold-77" d="M 225 3500 
L 1313 3500 
L 1900 1088 
L 2491 3500 
L 3425 3500 
L 4013 1113 
L 4603 3500 
L 5691 3500 
L 4769 0 
L 3547 0 
L 2956 2406 
L 2369 0 
L 1147 0 
L 225 3500 
z
" transform="scale(0.015625)"/>
      <path id="DejaVuSans-Bold-68" d="M 4056 2131 
L 4056 0 
L 2931 0 
L 2931 347 
L 2931 1625 
Q 2931 2084 2911 2256 
Q 2891 2428 2841 2509 
Q 2775 2619 2662 2680 
Q 2550 2741 2406 2741 
Q 2056 2741 1856 2470 
Q 1656 2200 1656 1722 
L 1656 0 
L 538 0 
L 538 4863 
L 1656 4863 
L 1656 2988 
Q 1909 3294 2193 3439 
Q 2478 3584 2822 3584 
Q 3428 3584 3742 3212 
Q 4056 2841 4056 2131 
z
" transform="scale(0.015625)"/>
      <path id="DejaVuSans-Bold-76" d="M 97 3500 
L 1216 3500 
L 2088 1081 
L 2956 3500 
L 4078 3500 
L 2700 0 
L 1472 0 
L 97 3500 
z
" transform="scale(0.015625)"/>
      <path id="DejaVuSans-Bold-73" d="M 3272 3391 
L 3272 2541 
Q 2913 2691 2578 2766 
Q 2244 2841 1947 2841 
Q 1628 2841 1473 2761 
Q 1319 2681 1319 2516 
Q 1319 2381 1436 2309 
Q 1553 2238 1856 2203 
L 2053 2175 
Q 2913 2066 3209 1816 
Q 3506 1566 3506 1031 
Q 3506 472 3093 190 
Q 2681 -91 1863 -91 
Q 1516 -91 1145 -36 
Q 775 19 384 128 
L 384 978 
Q 719 816 1070 734 
Q 1422 653 1784 653 
Q 2113 653 2278 743 
Q 2444 834 2444 1013 
Q 2444 1163 2330 1236 
Q 2216 1309 1875 1350 
L 1678 1375 
Q 931 1469 631 1722 
Q 331 1975 331 2491 
Q 331 3047 712 3315 
Q 1094 3584 1881 3584 
Q 2191 3584 2531 3537 
Q 2872 3491 3272 3391 
z
" transform="scale(0.015625)"/>
      <path id="DejaVuSans-Bold-4e" d="M 588 4666 
L 1931 4666 
L 3628 1466 
L 3628 4666 
L 4769 4666 
L 4769 0 
L 3425 0 
L 1728 3200 
L 1728 0 
L 588 0 
L 588 4666 
z
" transform="scale(0.015625)"/>
      <path id="DejaVuSans-Bold-75" d="M 500 1363 
L 500 3500 
L 1625 3500 
L 1625 3150 
Q 1625 2866 1622 2436 
Q 1619 2006 1619 1863 
Q 1619 1441 1641 1255 
Q 1663 1069 1716 984 
Q 1784 875 1895 815 
Q 2006 756 2150 756 
Q 2500 756 2700 1025 
Q 2900 1294 2900 1772 
L 2900 3500 
L 4019 3500 
L 4019 0 
L 2900 0 
L 2900 506 
Q 2647 200 2364 54 
Q 2081 -91 1741 -91 
Q 1134 -91 817 281 
Q 500 653 500 1363 
z
" transform="scale(0.015625)"/>
      <path id="DejaVuSans-Bold-6d" d="M 3781 2919 
Q 3994 3244 4286 3414 
Q 4578 3584 4928 3584 
Q 5531 3584 5847 3212 
Q 6163 2841 6163 2131 
L 6163 0 
L 5038 0 
L 5038 1825 
Q 5041 1866 5042 1909 
Q 5044 1953 5044 2034 
Q 5044 2406 4934 2573 
Q 4825 2741 4581 2741 
Q 4263 2741 4089 2478 
Q 3916 2216 3909 1719 
L 3909 0 
L 2784 0 
L 2784 1825 
Q 2784 2406 2684 2573 
Q 2584 2741 2328 2741 
Q 2006 2741 1831 2477 
Q 1656 2213 1656 1722 
L 1656 0 
L 531 0 
L 531 3500 
L 1656 3500 
L 1656 2988 
Q 1863 3284 2130 3434 
Q 2397 3584 2719 3584 
Q 3081 3584 3359 3409 
Q 3638 3234 3781 2919 
z
" transform="scale(0.015625)"/>
      <path id="DejaVuSans-Bold-62" d="M 2400 722 
Q 2759 722 2948 984 
Q 3138 1247 3138 1747 
Q 3138 2247 2948 2509 
Q 2759 2772 2400 2772 
Q 2041 2772 1848 2508 
Q 1656 2244 1656 1747 
Q 1656 1250 1848 986 
Q 2041 722 2400 722 
z
M 1656 2988 
Q 1888 3294 2169 3439 
Q 2450 3584 2816 3584 
Q 3463 3584 3878 3070 
Q 4294 2556 4294 1747 
Q 4294 938 3878 423 
Q 3463 -91 2816 -91 
Q 2450 -91 2169 54 
Q 1888 200 1656 506 
L 1656 0 
L 538 0 
L 538 4863 
L 1656 4863 
L 1656 2988 
z
" transform="scale(0.015625)"/>
      <path id="DejaVuSans-Bold-6f" d="M 2203 2784 
Q 1831 2784 1636 2517 
Q 1441 2250 1441 1747 
Q 1441 1244 1636 976 
Q 1831 709 2203 709 
Q 2569 709 2762 976 
Q 2956 1244 2956 1747 
Q 2956 2250 2762 2517 
Q 2569 2784 2203 2784 
z
M 2203 3584 
Q 3106 3584 3614 3096 
Q 4122 2609 4122 1747 
Q 4122 884 3614 396 
Q 3106 -91 2203 -91 
Q 1297 -91 786 396 
Q 275 884 275 1747 
Q 275 2609 786 3096 
Q 1297 3584 2203 3584 
z
" transform="scale(0.015625)"/>
      <path id="DejaVuSans-Bold-66" d="M 2841 4863 
L 2841 4128 
L 2222 4128 
Q 1984 4128 1890 4042 
Q 1797 3956 1797 3744 
L 1797 3500 
L 2753 3500 
L 2753 2700 
L 1797 2700 
L 1797 0 
L 678 0 
L 678 2700 
L 122 2700 
L 122 3500 
L 678 3500 
L 678 3744 
Q 678 4316 997 4589 
Q 1316 4863 1984 4863 
L 2841 4863 
z
" transform="scale(0.015625)"/>
      <path id="DejaVuSans-Bold-54" d="M 31 4666 
L 4331 4666 
L 4331 3756 
L 2784 3756 
L 2784 0 
L 1581 0 
L 1581 3756 
L 31 3756 
L 31 4666 
z
" transform="scale(0.015625)"/>
      <path id="DejaVuSans-Bold-6b" d="M 538 4863 
L 1656 4863 
L 1656 2216 
L 2944 3500 
L 4244 3500 
L 2534 1894 
L 4378 0 
L 3022 0 
L 1656 1459 
L 1656 0 
L 538 0 
L 538 4863 
z
" transform="scale(0.015625)"/>
     </defs>
     <use xlink:href="#DejaVuSans-Bold-57"/>
     <use xlink:href="#DejaVuSans-Bold-72" transform="translate(108.552734 0)"/>
     <use xlink:href="#DejaVuSans-Bold-69" transform="translate(157.869141 0)"/>
     <use xlink:href="#DejaVuSans-Bold-74" transform="translate(192.146484 0)"/>
     <use xlink:href="#DejaVuSans-Bold-65" transform="translate(239.949219 0)"/>
     <use xlink:href="#DejaVuSans-Bold-20" transform="translate(307.771484 0)"/>
     <use xlink:href="#DejaVuSans-Bold-42" transform="translate(342.585938 0)"/>
     <use xlink:href="#DejaVuSans-Bold-61" transform="translate(418.806641 0)"/>
     <use xlink:href="#DejaVuSans-Bold-6e" transform="translate(486.287109 0)"/>
     <use xlink:href="#DejaVuSans-Bold-64" transform="translate(557.478516 0)"/>
     <use xlink:href="#DejaVuSans-Bold-77" transform="translate(629.060547 0)"/>
     <use xlink:href="#DejaVuSans-Bold-69" transform="translate(721.443359 0)"/>
     <use xlink:href="#DejaVuSans-Bold-64" transform="translate(755.720703 0)"/>
     <use xlink:href="#DejaVuSans-Bold-74" transform="translate(827.302734 0)"/>
     <use xlink:href="#DejaVuSans-Bold-68" transform="translate(875.105469 0)"/>
     <use xlink:href="#DejaVuSans-Bold-20" transform="translate(946.296875 0)"/>
     <use xlink:href="#DejaVuSans-Bold-76" transform="translate(981.111328 0)"/>
     <use xlink:href="#DejaVuSans-Bold-73" transform="translate(1046.296875 0)"/>
     <use xlink:href="#DejaVuSans-Bold-20" transform="translate(1105.818359 0)"/>
     <use xlink:href="#DejaVuSans-Bold-4e" transform="translate(1140.632812 0)"/>
     <use xlink:href="#DejaVuSans-Bold-75" transform="translate(1224.324219 0)"/>
     <use xlink:href="#DejaVuSans-Bold-6d" transform="translate(1295.515625 0)"/>
     <use xlink:href="#DejaVuSans-Bold-62" transform="translate(1399.714844 0)"/>
     <use xlink:href="#DejaVuSans-Bold-65" transform="translate(1471.296875 0)"/>
     <use xlink:href="#DejaVuSans-Bold-72" transform="translate(1539.119141 0)"/>
     <use xlink:href="#DejaVuSans-Bold-20" transform="translate(1588.435547 0)"/>
     <use xlink:href="#DejaVuSans-Bold-6f" transform="translate(1623.25 0)"/>
     <use xlink:href="#DejaVuSans-Bold-66" transform="translate(1691.951172 0)"/>
     <use xlink:href="#DejaVuSans-Bold-20" transform="translate(1735.457031 0)"/>
     <use xlink:href="#DejaVuSans-Bold-54" transform="translate(1770.271484 0)"/>
     <use xlink:href="#DejaVuSans-Bold-61" transform="translate(1825.609375 0)"/>
     <use xlink:href="#DejaVuSans-Bold-73" transform="translate(1893.089844 0)"/>
     <use xlink:href="#DejaVuSans-Bold-6b" transform="translate(1952.611328 0)"/>
     <use xlink:href="#DejaVuSans-Bold-73" transform="translate(2019.115234 0)"/>
    </g>
   </g>
   <g id="legend_1">
    <g id="patch_7">
     <path d="M 345.802813 117.292475 
L 397.085625 117.292475 
Q 399.085625 117.292475 399.085625 115.292475 
L 399.085625 42.623725 
Q 399.085625 40.623725 397.085625 40.623725 
L 345.802813 40.623725 
Q 343.802813 40.623725 343.802813 42.623725 
L 343.802813 115.292475 
Q 343.802813 117.292475 345.802813 117.292475 
z
" style="fill: #ffffff; opacity: 0.8; stroke: #cccccc; stroke-linejoin: miter"/>
    </g>
    <g id="text_23">
     <!-- xfer_str -->
     <g style="fill: #262626" transform="translate(352.472344 52.222162) scale(0.1 -0.1)">
      <defs>
       <path id="DejaVuSans-78" d="M 3513 3500 
L 2247 1797 
L 3578 0 
L 2900 0 
L 1881 1375 
L 863 0 
L 184 0 
L 1544 1831 
L 300 3500 
L 978 3500 
L 1906 2253 
L 2834 3500 
L 3513 3500 
z
" transform="scale(0.015625)"/>
       <path id="DejaVuSans-5f" d="M 3263 -1063 
L 3263 -1509 
L -63 -1509 
L -63 -1063 
L 3263 -1063 
z
" transform="scale(0.015625)"/>
      </defs>
      <use xlink:href="#DejaVuSans-78"/>
      <use xlink:href="#DejaVuSans-66" transform="translate(59.179688 0)"/>
      <use xlink:href="#DejaVuSans-65" transform="translate(94.384766 0)"/>
      <use xlink:href="#DejaVuSans-72" transform="translate(155.908203 0)"/>
      <use xlink:href="#DejaVuSans-5f" transform="translate(197.021484 0)"/>
      <use xlink:href="#DejaVuSans-73" transform="translate(247.021484 0)"/>
      <use xlink:href="#DejaVuSans-74" transform="translate(299.121094 0)"/>
      <use xlink:href="#DejaVuSans-72" transform="translate(338.330078 0)"/>
     </g>
    </g>
    <g id="line2d_23">
     <path d="M 347.802813 63.678412 
L 357.802813 63.678412 
L 367.802813 63.678412 
" style="fill: none; stroke: #3b0f70; stroke-width: 1.5; stroke-linecap: round"/>
    </g>
    <g id="text_24">
     <!-- 16K -->
     <g style="fill: #262626" transform="translate(375.802813 67.178412) scale(0.1 -0.1)">
      <defs>
       <path id="DejaVuSans-4b" d="M 628 4666 
L 1259 4666 
L 1259 2694 
L 3353 4666 
L 4166 4666 
L 1850 2491 
L 4331 0 
L 3500 0 
L 1259 2247 
L 1259 0 
L 628 0 
L 628 4666 
z
" transform="scale(0.015625)"/>
      </defs>
      <use xlink:href="#DejaVuSans-31"/>
      <use xlink:href="#DejaVuSans-36" transform="translate(63.623047 0)"/>
      <use xlink:href="#DejaVuSans-4b" transform="translate(127.246094 0)"/>
     </g>
    </g>
    <g id="line2d_24">
     <path d="M 347.802813 78.356538 
L 357.802813 78.356538 
L 367.802813 78.356538 
" style="fill: none; stroke: #8c2981; stroke-width: 1.5; stroke-linecap: round"/>
    </g>
    <g id="text_25">
     <!-- 1M -->
     <g style="fill: #262626" transform="translate(375.802813 81.856538) scale(0.1 -0.1)">
      <defs>
       <path id="DejaVuSans-4d" d="M 628 4666 
L 1569 4666 
L 2759 1491 
L 3956 4666 
L 4897 4666 
L 4897 0 
L 4281 0 
L 4281 4097 
L 3078 897 
L 2444 897 
L 1241 4097 
L 1241 0 
L 628 0 
L 628 4666 
z
" transform="scale(0.015625)"/>
      </defs>
      <use xlink:href="#DejaVuSans-31"/>
      <use xlink:href="#DejaVuSans-4d" transform="translate(63.623047 0)"/>
     </g>
    </g>
    <g id="line2d_25">
     <path d="M 347.802813 93.034662 
L 357.802813 93.034662 
L 367.802813 93.034662 
" style="fill: none; stroke: #de4968; stroke-width: 1.5; stroke-linecap: round"/>
    </g>
    <g id="text_26">
     <!-- 2M -->
     <g style="fill: #262626" transform="translate(375.802813 96.534662) scale(0.1 -0.1)">
      <use xlink:href="#DejaVuSans-32"/>
      <use xlink:href="#DejaVuSans-4d" transform="translate(63.623047 0)"/>
     </g>
    </g>
    <g id="line2d_26">
     <path d="M 347.802813 107.712787 
L 357.802813 107.712787 
L 367.802813 107.712787 
" style="fill: none; stroke: #fe9f6d; stroke-width: 1.5; stroke-linecap: round"/>
    </g>
    <g id="text_27">
     <!-- 4M -->
     <g style="fill: #262626" transform="translate(375.802813 111.212787) scale(0.1 -0.1)">
      <use xlink:href="#DejaVuSans-34"/>
      <use xlink:href="#DejaVuSans-4d" transform="translate(63.623047 0)"/>
     </g>
    </g>
   </g>
  </g>
 </g>
 <defs>
  <clipPath id="pe409b86fc3">
   <rect x="46.965625" y="35.623725" width="357.12" height="266.112"/>
  </clipPath>
 </defs>
</svg>
