<?xml version="1.0" encoding="utf-8" standalone="no"?>
<!DOCTYPE svg PUBLIC "-//W3C//DTD SVG 1.1//EN"
  "http://www.w3.org/Graphics/SVG/1.1/DTD/svg11.dtd">
<svg xmlns:xlink="http://www.w3.org/1999/xlink" width="508.290625pt" height="339.291975pt" viewBox="0 0 508.290625 339.291975" xmlns="http://www.w3.org/2000/svg" version="1.1">
 <metadata>
  <rdf:RDF xmlns:dc="http://purl.org/dc/elements/1.1/" xmlns:cc="http://creativecommons.org/ns#" xmlns:rdf="http://www.w3.org/1999/02/22-rdf-syntax-ns#">
   <cc:Work>
    <dc:type rdf:resource="http://purl.org/dc/dcmitype/StillImage"/>
    <dc:date>2025-09-11T11:34:30.944093</dc:date>
    <dc:format>image/svg+xml</dc:format>
    <dc:creator>
     <cc:Agent>
      <dc:title>Matplotlib v3.10.6, https://matplotlib.org/</dc:title>
     </cc:Agent>
    </dc:creator>
   </cc:Work>
  </rdf:RDF>
 </metadata>
 <defs>
  <style type="text/css">*{stroke-linejoin: round; stroke-linecap: butt}</style>
 </defs>
 <g id="figure_1">
  <g id="patch_1">
   <path d="M 0 339.291975 
L 508.290625 339.291975 
L 508.290625 0 
L 0 0 
z
" style="fill: #ffffff"/>
  </g>
  <g id="axes_1">
   <g id="patch_2">
    <path d="M 59.690625 301.735725 
L 416.810625 301.735725 
L 416.810625 35.623725 
L 59.690625 35.623725 
z
" style="fill: #ffffff"/>
   </g>
   <g id="matplotlib.axis_1">
    <g id="xtick_1">
     <g id="line2d_1">
      <path d="M 122.302573 301.735725 
L 122.302573 35.623725 
" clip-path="url(#p4a6ac5f91f)" style="fill: none; stroke: #cccccc; stroke-width: 0.8; stroke-linecap: round"/>
     </g>
     <g id="text_1">
      <!-- 32 -->
      <g style="fill: #262626" transform="translate(115.940073 316.334162) scale(0.1 -0.1)">
       <defs>
        <path id="DejaVuSans-33" d="M 2597 2516 
Q 3050 2419 3304 2112 
Q 3559 1806 3559 1356 
Q 3559 666 3084 287 
Q 2609 -91 1734 -91 
Q 1441 -91 1130 -33 
Q 819 25 488 141 
L 488 750 
Q 750 597 1062 519 
Q 1375 441 1716 441 
Q 2309 441 2620 675 
Q 2931 909 2931 1356 
Q 2931 1769 2642 2001 
Q 2353 2234 1838 2234 
L 1294 2234 
L 1294 2753 
L 1863 2753 
Q 2328 2753 2575 2939 
Q 2822 3125 2822 3475 
Q 2822 3834 2567 4026 
Q 2313 4219 1838 4219 
Q 1578 4219 1281 4162 
Q 984 4106 628 3988 
L 628 4550 
Q 988 4650 1302 4700 
Q 1616 4750 1894 4750 
Q 2613 4750 3031 4423 
Q 3450 4097 3450 3541 
Q 3450 3153 3228 2886 
Q 3006 2619 2597 2516 
z
" transform="scale(0.015625)"/>
        <path id="DejaVuSans-32" d="M 1228 531 
L 3431 531 
L 3431 0 
L 469 0 
L 469 531 
Q 828 903 1448 1529 
Q 2069 2156 2228 2338 
Q 2531 2678 2651 2914 
Q 2772 3150 2772 3378 
Q 2772 3750 2511 3984 
Q 2250 4219 1831 4219 
Q 1534 4219 1204 4116 
Q 875 4013 500 3803 
L 500 4441 
Q 881 4594 1212 4672 
Q 1544 4750 1819 4750 
Q 2544 4750 2975 4387 
Q 3406 4025 3406 3419 
Q 3406 3131 3298 2873 
Q 3191 2616 2906 2266 
Q 2828 2175 2409 1742 
Q 1991 1309 1228 531 
z
" transform="scale(0.015625)"/>
       </defs>
       <use xlink:href="#DejaVuSans-33"/>
       <use xlink:href="#DejaVuSans-32" transform="translate(63.623047 0)"/>
      </g>
     </g>
    </g>
    <g id="xtick_2">
     <g id="line2d_2">
      <path d="M 75.923352 301.735725 
L 75.923352 35.623725 
" clip-path="url(#p4a6ac5f91f)" style="fill: none; stroke: #cccccc; stroke-width: 0.8; stroke-linecap: round"/>
     </g>
     <g id="text_2">
      <!-- 16 -->
      <g style="fill: #262626" transform="translate(69.560852 316.334162) scale(0.1 -0.1)">
       <defs>
        <path id="DejaVuSans-31" d="M 794 531 
L 1825 531 
L 1825 4091 
L 703 3866 
L 703 4441 
L 1819 4666 
L 2450 4666 
L 2450 531 
L 3481 531 
L 3481 0 
L 794 0 
L 794 531 
z
" transform="scale(0.015625)"/>
        <path id="DejaVuSans-36" d="M 2113 2584 
Q 1688 2584 1439 2293 
Q 1191 2003 1191 1497 
Q 1191 994 1439 701 
Q 1688 409 2113 409 
Q 2538 409 2786 701 
Q 3034 994 3034 1497 
Q 3034 2003 2786 2293 
Q 2538 2584 2113 2584 
z
M 3366 4563 
L 3366 3988 
Q 3128 4100 2886 4159 
Q 2644 4219 2406 4219 
Q 1781 4219 1451 3797 
Q 1122 3375 1075 2522 
Q 1259 2794 1537 2939 
Q 1816 3084 2150 3084 
Q 2853 3084 3261 2657 
Q 3669 2231 3669 1497 
Q 3669 778 3244 343 
Q 2819 -91 2113 -91 
Q 1303 -91 875 529 
Q 447 1150 447 2328 
Q 447 3434 972 4092 
Q 1497 4750 2381 4750 
Q 2619 4750 2861 4703 
Q 3103 4656 3366 4563 
z
" transform="scale(0.015625)"/>
       </defs>
       <use xlink:href="#DejaVuSans-31"/>
       <use xlink:href="#DejaVuSans-36" transform="translate(63.623047 0)"/>
      </g>
     </g>
    </g>
    <g id="xtick_3">
     <g id="line2d_3">
      <path d="M 400.577898 301.735725 
L 400.577898 35.623725 
" clip-path="url(#p4a6ac5f91f)" style="fill: none; stroke: #cccccc; stroke-width: 0.8; stroke-linecap: round"/>
     </g>
     <g id="text_3">
      <!-- 128 -->
      <g style="fill: #262626" transform="translate(391.034148 316.334162) scale(0.1 -0.1)">
       <defs>
        <path id="DejaVuSans-38" d="M 2034 2216 
Q 1584 2216 1326 1975 
Q 1069 1734 1069 1313 
Q 1069 891 1326 650 
Q 1584 409 2034 409 
Q 2484 409 2743 651 
Q 3003 894 3003 1313 
Q 3003 1734 2745 1975 
Q 2488 2216 2034 2216 
z
M 1403 2484 
Q 997 2584 770 2862 
Q 544 3141 544 3541 
Q 544 4100 942 4425 
Q 1341 4750 2034 4750 
Q 2731 4750 3128 4425 
Q 3525 4100 3525 3541 
Q 3525 3141 3298 2862 
Q 3072 2584 2669 2484 
Q 3125 2378 3379 2068 
Q 3634 1759 3634 1313 
Q 3634 634 3220 271 
Q 2806 -91 2034 -91 
Q 1263 -91 848 271 
Q 434 634 434 1313 
Q 434 1759 690 2068 
Q 947 2378 1403 2484 
z
M 1172 3481 
Q 1172 3119 1398 2916 
Q 1625 2713 2034 2713 
Q 2441 2713 2670 2916 
Q 2900 3119 2900 3481 
Q 2900 3844 2670 4047 
Q 2441 4250 2034 4250 
Q 1625 4250 1398 4047 
Q 1172 3844 1172 3481 
z
" transform="scale(0.015625)"/>
       </defs>
       <use xlink:href="#DejaVuSans-31"/>
       <use xlink:href="#DejaVuSans-32" transform="translate(63.623047 0)"/>
       <use xlink:href="#DejaVuSans-38" transform="translate(127.246094 0)"/>
      </g>
     </g>
    </g>
    <g id="xtick_4">
     <g id="line2d_4">
      <path d="M 215.061015 301.735725 
L 215.061015 35.623725 
" clip-path="url(#p4a6ac5f91f)" style="fill: none; stroke: #cccccc; stroke-width: 0.8; stroke-linecap: round"/>
     </g>
     <g id="text_4">
      <!-- 64 -->
      <g style="fill: #262626" transform="translate(208.698515 316.334162) scale(0.1 -0.1)">
       <defs>
        <path id="DejaVuSans-34" d="M 2419 4116 
L 825 1625 
L 2419 1625 
L 2419 4116 
z
M 2253 4666 
L 3047 4666 
L 3047 1625 
L 3713 1625 
L 3713 1100 
L 3047 1100 
L 3047 0 
L 2419 0 
L 2419 1100 
L 313 1100 
L 313 1709 
L 2253 4666 
z
" transform="scale(0.015625)"/>
       </defs>
       <use xlink:href="#DejaVuSans-36"/>
       <use xlink:href="#DejaVuSans-34" transform="translate(63.623047 0)"/>
      </g>
     </g>
    </g>
    <g id="text_5">
     <!-- Number of Jobs -->
     <g style="fill: #262626" transform="translate(199.85375 330.012287) scale(0.1 -0.1)">
      <defs>
       <path id="DejaVuSans-4e" d="M 628 4666 
L 1478 4666 
L 3547 763 
L 3547 4666 
L 4159 4666 
L 4159 0 
L 3309 0 
L 1241 3903 
L 1241 0 
L 628 0 
L 628 4666 
z
" transform="scale(0.015625)"/>
       <path id="DejaVuSans-75" d="M 544 1381 
L 544 3500 
L 1119 3500 
L 1119 1403 
Q 1119 906 1312 657 
Q 1506 409 1894 409 
Q 2359 409 2629 706 
Q 2900 1003 2900 1516 
L 2900 3500 
L 3475 3500 
L 3475 0 
L 2900 0 
L 2900 538 
Q 2691 219 2414 64 
Q 2138 -91 1772 -91 
Q 1169 -91 856 284 
Q 544 659 544 1381 
z
M 1991 3584 
L 1991 3584 
z
" transform="scale(0.015625)"/>
       <path id="DejaVuSans-6d" d="M 3328 2828 
Q 3544 3216 3844 3400 
Q 4144 3584 4550 3584 
Q 5097 3584 5394 3201 
Q 5691 2819 5691 2113 
L 5691 0 
L 5113 0 
L 5113 2094 
Q 5113 2597 4934 2840 
Q 4756 3084 4391 3084 
Q 3944 3084 3684 2787 
Q 3425 2491 3425 1978 
L 3425 0 
L 2847 0 
L 2847 2094 
Q 2847 2600 2669 2842 
Q 2491 3084 2119 3084 
Q 1678 3084 1418 2786 
Q 1159 2488 1159 1978 
L 1159 0 
L 581 0 
L 581 3500 
L 1159 3500 
L 1159 2956 
Q 1356 3278 1631 3431 
Q 1906 3584 2284 3584 
Q 2666 3584 2933 3390 
Q 3200 3197 3328 2828 
z
" transform="scale(0.015625)"/>
       <path id="DejaVuSans-62" d="M 3116 1747 
Q 3116 2381 2855 2742 
Q 2594 3103 2138 3103 
Q 1681 3103 1420 2742 
Q 1159 2381 1159 1747 
Q 1159 1113 1420 752 
Q 1681 391 2138 391 
Q 2594 391 2855 752 
Q 3116 1113 3116 1747 
z
M 1159 2969 
Q 1341 3281 1617 3432 
Q 1894 3584 2278 3584 
Q 2916 3584 3314 3078 
Q 3713 2572 3713 1747 
Q 3713 922 3314 415 
Q 2916 -91 2278 -91 
Q 1894 -91 1617 61 
Q 1341 213 1159 525 
L 1159 0 
L 581 0 
L 581 4863 
L 1159 4863 
L 1159 2969 
z
" transform="scale(0.015625)"/>
       <path id="DejaVuSans-65" d="M 3597 1894 
L 3597 1613 
L 953 1613 
Q 991 1019 1311 708 
Q 1631 397 2203 397 
Q 2534 397 2845 478 
Q 3156 559 3463 722 
L 3463 178 
Q 3153 47 2828 -22 
Q 2503 -91 2169 -91 
Q 1331 -91 842 396 
Q 353 884 353 1716 
Q 353 2575 817 3079 
Q 1281 3584 2069 3584 
Q 2775 3584 3186 3129 
Q 3597 2675 3597 1894 
z
M 3022 2063 
Q 3016 2534 2758 2815 
Q 2500 3097 2075 3097 
Q 1594 3097 1305 2825 
Q 1016 2553 972 2059 
L 3022 2063 
z
" transform="scale(0.015625)"/>
       <path id="DejaVuSans-72" d="M 2631 2963 
Q 2534 3019 2420 3045 
Q 2306 3072 2169 3072 
Q 1681 3072 1420 2755 
Q 1159 2438 1159 1844 
L 1159 0 
L 581 0 
L 581 3500 
L 1159 3500 
L 1159 2956 
Q 1341 3275 1631 3429 
Q 1922 3584 2338 3584 
Q 2397 3584 2469 3576 
Q 2541 3569 2628 3553 
L 2631 2963 
z
" transform="scale(0.015625)"/>
       <path id="DejaVuSans-20" transform="scale(0.015625)"/>
       <path id="DejaVuSans-6f" d="M 1959 3097 
Q 1497 3097 1228 2736 
Q 959 2375 959 1747 
Q 959 1119 1226 758 
Q 1494 397 1959 397 
Q 2419 397 2687 759 
Q 2956 1122 2956 1747 
Q 2956 2369 2687 2733 
Q 2419 3097 1959 3097 
z
M 1959 3584 
Q 2709 3584 3137 3096 
Q 3566 2609 3566 1747 
Q 3566 888 3137 398 
Q 2709 -91 1959 -91 
Q 1206 -91 779 398 
Q 353 888 353 1747 
Q 353 2609 779 3096 
Q 1206 3584 1959 3584 
z
" transform="scale(0.015625)"/>
       <path id="DejaVuSans-66" d="M 2375 4863 
L 2375 4384 
L 1825 4384 
Q 1516 4384 1395 4259 
Q 1275 4134 1275 3809 
L 1275 3500 
L 2222 3500 
L 2222 3053 
L 1275 3053 
L 1275 0 
L 697 0 
L 697 3053 
L 147 3053 
L 147 3500 
L 697 3500 
L 697 3744 
Q 697 4328 969 4595 
Q 1241 4863 1831 4863 
L 2375 4863 
z
" transform="scale(0.015625)"/>
       <path id="DejaVuSans-4a" d="M 628 4666 
L 1259 4666 
L 1259 325 
Q 1259 -519 939 -900 
Q 619 -1281 -91 -1281 
L -331 -1281 
L -331 -750 
L -134 -750 
Q 284 -750 456 -515 
Q 628 -281 628 325 
L 628 4666 
z
" transform="scale(0.015625)"/>
       <path id="DejaVuSans-73" d="M 2834 3397 
L 2834 2853 
Q 2591 2978 2328 3040 
Q 2066 3103 1784 3103 
Q 1356 3103 1142 2972 
Q 928 2841 928 2578 
Q 928 2378 1081 2264 
Q 1234 2150 1697 2047 
L 1894 2003 
Q 2506 1872 2764 1633 
Q 3022 1394 3022 966 
Q 3022 478 2636 193 
Q 2250 -91 1575 -91 
Q 1294 -91 989 -36 
Q 684 19 347 128 
L 347 722 
Q 666 556 975 473 
Q 1284 391 1588 391 
Q 1994 391 2212 530 
Q 2431 669 2431 922 
Q 2431 1156 2273 1281 
Q 2116 1406 1581 1522 
L 1381 1569 
Q 847 1681 609 1914 
Q 372 2147 372 2553 
Q 372 3047 722 3315 
Q 1072 3584 1716 3584 
Q 2034 3584 2315 3537 
Q 2597 3491 2834 3397 
z
" transform="scale(0.015625)"/>
      </defs>
      <use xlink:href="#DejaVuSans-4e"/>
      <use xlink:href="#DejaVuSans-75" transform="translate(74.804688 0)"/>
      <use xlink:href="#DejaVuSans-6d" transform="translate(138.183594 0)"/>
      <use xlink:href="#DejaVuSans-62" transform="translate(235.595703 0)"/>
      <use xlink:href="#DejaVuSans-65" transform="translate(299.072266 0)"/>
      <use xlink:href="#DejaVuSans-72" transform="translate(360.595703 0)"/>
      <use xlink:href="#DejaVuSans-20" transform="translate(401.708984 0)"/>
      <use xlink:href="#DejaVuSans-6f" transform="translate(433.496094 0)"/>
      <use xlink:href="#DejaVuSans-66" transform="translate(494.677734 0)"/>
      <use xlink:href="#DejaVuSans-20" transform="translate(529.882812 0)"/>
      <use xlink:href="#DejaVuSans-4a" transform="translate(561.669922 0)"/>
      <use xlink:href="#DejaVuSans-6f" transform="translate(591.162109 0)"/>
      <use xlink:href="#DejaVuSans-62" transform="translate(652.34375 0)"/>
      <use xlink:href="#DejaVuSans-73" transform="translate(715.820312 0)"/>
     </g>
    </g>
   </g>
   <g id="matplotlib.axis_2">
    <g id="ytick_1">
     <g id="line2d_5">
      <path d="M 59.690625 286.439913 
L 416.810625 286.439913 
" clip-path="url(#p4a6ac5f91f)" style="fill: none; stroke: #cccccc; stroke-width: 0.8; stroke-linecap: round"/>
     </g>
     <g id="text_6">
      <!-- 37500 -->
      <g style="fill: #262626" transform="translate(20.878125 290.239132) scale(0.1 -0.1)">
       <defs>
        <path id="DejaVuSans-37" d="M 525 4666 
L 3525 4666 
L 3525 4397 
L 1831 0 
L 1172 0 
L 2766 4134 
L 525 4134 
L 525 4666 
z
" transform="scale(0.015625)"/>
        <path id="DejaVuSans-35" d="M 691 4666 
L 3169 4666 
L 3169 4134 
L 1269 4134 
L 1269 2991 
Q 1406 3038 1543 3061 
Q 1681 3084 1819 3084 
Q 2600 3084 3056 2656 
Q 3513 2228 3513 1497 
Q 3513 744 3044 326 
Q 2575 -91 1722 -91 
Q 1428 -91 1123 -41 
Q 819 9 494 109 
L 494 744 
Q 775 591 1075 516 
Q 1375 441 1709 441 
Q 2250 441 2565 725 
Q 2881 1009 2881 1497 
Q 2881 1984 2565 2268 
Q 2250 2553 1709 2553 
Q 1456 2553 1204 2497 
Q 953 2441 691 2322 
L 691 4666 
z
" transform="scale(0.015625)"/>
        <path id="DejaVuSans-30" d="M 2034 4250 
Q 1547 4250 1301 3770 
Q 1056 3291 1056 2328 
Q 1056 1369 1301 889 
Q 1547 409 2034 409 
Q 2525 409 2770 889 
Q 3016 1369 3016 2328 
Q 3016 3291 2770 3770 
Q 2525 4250 2034 4250 
z
M 2034 4750 
Q 2819 4750 3233 4129 
Q 3647 3509 3647 2328 
Q 3647 1150 3233 529 
Q 2819 -91 2034 -91 
Q 1250 -91 836 529 
Q 422 1150 422 2328 
Q 422 3509 836 4129 
Q 1250 4750 2034 4750 
z
" transform="scale(0.015625)"/>
       </defs>
       <use xlink:href="#DejaVuSans-33"/>
       <use xlink:href="#DejaVuSans-37" transform="translate(63.623047 0)"/>
       <use xlink:href="#DejaVuSans-35" transform="translate(127.246094 0)"/>
       <use xlink:href="#DejaVuSans-30" transform="translate(190.869141 0)"/>
       <use xlink:href="#DejaVuSans-30" transform="translate(254.492188 0)"/>
      </g>
     </g>
    </g>
    <g id="ytick_2">
     <g id="line2d_6">
      <path d="M 59.690625 250.886448 
L 416.810625 250.886448 
" clip-path="url(#p4a6ac5f91f)" style="fill: none; stroke: #cccccc; stroke-width: 0.8; stroke-linecap: round"/>
     </g>
     <g id="text_7">
      <!-- 40000 -->
      <g style="fill: #262626" transform="translate(20.878125 254.685666) scale(0.1 -0.1)">
       <use xlink:href="#DejaVuSans-34"/>
       <use xlink:href="#DejaVuSans-30" transform="translate(63.623047 0)"/>
       <use xlink:href="#DejaVuSans-30" transform="translate(127.246094 0)"/>
       <use xlink:href="#DejaVuSans-30" transform="translate(190.869141 0)"/>
       <use xlink:href="#DejaVuSans-30" transform="translate(254.492188 0)"/>
      </g>
     </g>
    </g>
    <g id="ytick_3">
     <g id="line2d_7">
      <path d="M 59.690625 215.332982 
L 416.810625 215.332982 
" clip-path="url(#p4a6ac5f91f)" style="fill: none; stroke: #cccccc; stroke-width: 0.8; stroke-linecap: round"/>
     </g>
     <g id="text_8">
      <!-- 42500 -->
      <g style="fill: #262626" transform="translate(20.878125 219.132201) scale(0.1 -0.1)">
       <use xlink:href="#DejaVuSans-34"/>
       <use xlink:href="#DejaVuSans-32" transform="translate(63.623047 0)"/>
       <use xlink:href="#DejaVuSans-35" transform="translate(127.246094 0)"/>
       <use xlink:href="#DejaVuSans-30" transform="translate(190.869141 0)"/>
       <use xlink:href="#DejaVuSans-30" transform="translate(254.492188 0)"/>
      </g>
     </g>
    </g>
    <g id="ytick_4">
     <g id="line2d_8">
      <path d="M 59.690625 179.779517 
L 416.810625 179.779517 
" clip-path="url(#p4a6ac5f91f)" style="fill: none; stroke: #cccccc; stroke-width: 0.8; stroke-linecap: round"/>
     </g>
     <g id="text_9">
      <!-- 45000 -->
      <g style="fill: #262626" transform="translate(20.878125 183.578736) scale(0.1 -0.1)">
       <use xlink:href="#DejaVuSans-34"/>
       <use xlink:href="#DejaVuSans-35" transform="translate(63.623047 0)"/>
       <use xlink:href="#DejaVuSans-30" transform="translate(127.246094 0)"/>
       <use xlink:href="#DejaVuSans-30" transform="translate(190.869141 0)"/>
       <use xlink:href="#DejaVuSans-30" transform="translate(254.492188 0)"/>
      </g>
     </g>
    </g>
    <g id="ytick_5">
     <g id="line2d_9">
      <path d="M 59.690625 144.226051 
L 416.810625 144.226051 
" clip-path="url(#p4a6ac5f91f)" style="fill: none; stroke: #cccccc; stroke-width: 0.8; stroke-linecap: round"/>
     </g>
     <g id="text_10">
      <!-- 47500 -->
      <g style="fill: #262626" transform="translate(20.878125 148.02527) scale(0.1 -0.1)">
       <use xlink:href="#DejaVuSans-34"/>
       <use xlink:href="#DejaVuSans-37" transform="translate(63.623047 0)"/>
       <use xlink:href="#DejaVuSans-35" transform="translate(127.246094 0)"/>
       <use xlink:href="#DejaVuSans-30" transform="translate(190.869141 0)"/>
       <use xlink:href="#DejaVuSans-30" transform="translate(254.492188 0)"/>
      </g>
     </g>
    </g>
    <g id="ytick_6">
     <g id="line2d_10">
      <path d="M 59.690625 108.672586 
L 416.810625 108.672586 
" clip-path="url(#p4a6ac5f91f)" style="fill: none; stroke: #cccccc; stroke-width: 0.8; stroke-linecap: round"/>
     </g>
     <g id="text_11">
      <!-- 50000 -->
      <g style="fill: #262626" transform="translate(20.878125 112.471805) scale(0.1 -0.1)">
       <use xlink:href="#DejaVuSans-35"/>
       <use xlink:href="#DejaVuSans-30" transform="translate(63.623047 0)"/>
       <use xlink:href="#DejaVuSans-30" transform="translate(127.246094 0)"/>
       <use xlink:href="#DejaVuSans-30" transform="translate(190.869141 0)"/>
       <use xlink:href="#DejaVuSans-30" transform="translate(254.492188 0)"/>
      </g>
     </g>
    </g>
    <g id="ytick_7">
     <g id="line2d_11">
      <path d="M 59.690625 73.119121 
L 416.810625 73.119121 
" clip-path="url(#p4a6ac5f91f)" style="fill: none; stroke: #cccccc; stroke-width: 0.8; stroke-linecap: round"/>
     </g>
     <g id="text_12">
      <!-- 52500 -->
      <g style="fill: #262626" transform="translate(20.878125 76.918339) scale(0.1 -0.1)">
       <use xlink:href="#DejaVuSans-35"/>
       <use xlink:href="#DejaVuSans-32" transform="translate(63.623047 0)"/>
       <use xlink:href="#DejaVuSans-35" transform="translate(127.246094 0)"/>
       <use xlink:href="#DejaVuSans-30" transform="translate(190.869141 0)"/>
       <use xlink:href="#DejaVuSans-30" transform="translate(254.492188 0)"/>
      </g>
     </g>
    </g>
    <g id="ytick_8">
     <g id="line2d_12">
      <path d="M 59.690625 37.565655 
L 416.810625 37.565655 
" clip-path="url(#p4a6ac5f91f)" style="fill: none; stroke: #cccccc; stroke-width: 0.8; stroke-linecap: round"/>
     </g>
     <g id="text_13">
      <!-- 55000 -->
      <g style="fill: #262626" transform="translate(20.878125 41.364874) scale(0.1 -0.1)">
       <use xlink:href="#DejaVuSans-35"/>
       <use xlink:href="#DejaVuSans-35" transform="translate(63.623047 0)"/>
       <use xlink:href="#DejaVuSans-30" transform="translate(127.246094 0)"/>
       <use xlink:href="#DejaVuSans-30" transform="translate(190.869141 0)"/>
       <use xlink:href="#DejaVuSans-30" transform="translate(254.492188 0)"/>
      </g>
     </g>
    </g>
    <g id="text_14">
     <!-- IOPS -->
     <g style="fill: #262626" transform="translate(14.798438 180.279725) rotate(-90) scale(0.1 -0.1)">
      <defs>
       <path id="DejaVuSans-49" d="M 628 4666 
L 1259 4666 
L 1259 0 
L 628 0 
L 628 4666 
z
" transform="scale(0.015625)"/>
       <path id="DejaVuSans-4f" d="M 2522 4238 
Q 1834 4238 1429 3725 
Q 1025 3213 1025 2328 
Q 1025 1447 1429 934 
Q 1834 422 2522 422 
Q 3209 422 3611 934 
Q 4013 1447 4013 2328 
Q 4013 3213 3611 3725 
Q 3209 4238 2522 4238 
z
M 2522 4750 
Q 3503 4750 4090 4092 
Q 4678 3434 4678 2328 
Q 4678 1225 4090 567 
Q 3503 -91 2522 -91 
Q 1538 -91 948 565 
Q 359 1222 359 2328 
Q 359 3434 948 4092 
Q 1538 4750 2522 4750 
z
" transform="scale(0.015625)"/>
       <path id="DejaVuSans-50" d="M 1259 4147 
L 1259 2394 
L 2053 2394 
Q 2494 2394 2734 2622 
Q 2975 2850 2975 3272 
Q 2975 3691 2734 3919 
Q 2494 4147 2053 4147 
L 1259 4147 
z
M 628 4666 
L 2053 4666 
Q 2838 4666 3239 4311 
Q 3641 3956 3641 3272 
Q 3641 2581 3239 2228 
Q 2838 1875 2053 1875 
L 1259 1875 
L 1259 0 
L 628 0 
L 628 4666 
z
" transform="scale(0.015625)"/>
       <path id="DejaVuSans-53" d="M 3425 4513 
L 3425 3897 
Q 3066 4069 2747 4153 
Q 2428 4238 2131 4238 
Q 1616 4238 1336 4038 
Q 1056 3838 1056 3469 
Q 1056 3159 1242 3001 
Q 1428 2844 1947 2747 
L 2328 2669 
Q 3034 2534 3370 2195 
Q 3706 1856 3706 1288 
Q 3706 609 3251 259 
Q 2797 -91 1919 -91 
Q 1588 -91 1214 -16 
Q 841 59 441 206 
L 441 856 
Q 825 641 1194 531 
Q 1563 422 1919 422 
Q 2459 422 2753 634 
Q 3047 847 3047 1241 
Q 3047 1584 2836 1778 
Q 2625 1972 2144 2069 
L 1759 2144 
Q 1053 2284 737 2584 
Q 422 2884 422 3419 
Q 422 4038 858 4394 
Q 1294 4750 2059 4750 
Q 2388 4750 2728 4690 
Q 3069 4631 3425 4513 
z
" transform="scale(0.015625)"/>
      </defs>
      <use xlink:href="#DejaVuSans-49"/>
      <use xlink:href="#DejaVuSans-4f" transform="translate(29.492188 0)"/>
      <use xlink:href="#DejaVuSans-50" transform="translate(108.203125 0)"/>
      <use xlink:href="#DejaVuSans-53" transform="translate(168.505859 0)"/>
     </g>
    </g>
   </g>
   <g id="FillBetweenPolyCollection_1"/>
   <g id="FillBetweenPolyCollection_2"/>
   <g id="FillBetweenPolyCollection_3"/>
   <g id="FillBetweenPolyCollection_4"/>
   <g id="FillBetweenPolyCollection_5"/>
   <g id="FillBetweenPolyCollection_6"/>
   <g id="FillBetweenPolyCollection_7"/>
   <g id="line2d_13">
    <path d="M 75.923352 260.04502 
L 122.302573 221.633056 
L 215.061015 289.639725 
L 400.577898 243.093128 
" clip-path="url(#p4a6ac5f91f)" style="fill: none; stroke: #4c02a1; stroke-width: 1.5; stroke-linecap: round"/>
   </g>
   <g id="line2d_14">
    <path d="M 75.923352 47.719725 
L 122.302573 129.478474 
L 215.061015 124.486768 
L 400.577898 158.219895 
" clip-path="url(#p4a6ac5f91f)" style="fill: none; stroke: #7e03a8; stroke-width: 1.5; stroke-linecap: round"/>
   </g>
   <g id="line2d_15">
    <path d="M 75.923352 173.109687 
L 122.302573 200.884054 
L 215.061015 243.349113 
L 400.577898 215.460975 
" clip-path="url(#p4a6ac5f91f)" style="fill: none; stroke: #aa2395; stroke-width: 1.5; stroke-linecap: round"/>
   </g>
   <g id="line2d_16">
    <path d="M 75.923352 214.053058 
L 122.302573 186.833324 
L 215.061015 136.10564 
L 400.577898 196.276325 
" clip-path="url(#p4a6ac5f91f)" style="fill: none; stroke: #cc4778; stroke-width: 1.5; stroke-linecap: round"/>
   </g>
   <g id="line2d_17">
    <path d="M 75.923352 149.047101 
L 122.302573 96.954164 
L 215.061015 129.43581 
L 400.577898 132.635622 
" clip-path="url(#p4a6ac5f91f)" style="fill: none; stroke: #e66c5c; stroke-width: 1.5; stroke-linecap: round"/>
   </g>
   <g id="line2d_18">
    <path d="M 75.923352 153.44151 
L 122.302573 165.828337 
L 215.061015 100.765495 
L 400.577898 157.494605 
" clip-path="url(#p4a6ac5f91f)" style="fill: none; stroke: #f89540; stroke-width: 1.5; stroke-linecap: round"/>
   </g>
   <g id="line2d_19">
    <path d="M 75.923352 279.130121 
L 122.302573 153.213968 
L 215.061015 125.6387 
L 400.577898 156.996856 
" clip-path="url(#p4a6ac5f91f)" style="fill: none; stroke: #fdc527; stroke-width: 1.5; stroke-linecap: round"/>
   </g>
   <g id="line2d_20"/>
   <g id="line2d_21"/>
   <g id="line2d_22"/>
   <g id="line2d_23"/>
   <g id="line2d_24"/>
   <g id="line2d_25"/>
   <g id="line2d_26"/>
   <g id="text_15">
    <path d="M 117.458901 228.150237 
L 118.699575 227.122692 
L 115.151506 222.838697 
L 114.025572 224.227695 
L 113.452499 223.535757 
L 114.571213 222.152739 
L 115.330539 221.523854 
L 119.451681 226.499787 
L 120.692355 225.472242 
L 121.221575 226.111231 
L 117.988122 228.789226 
L 117.458901 228.150237 
z
" clip-path="url(#p4a6ac5f91f)" style="fill: #4c02a1; stroke: #ffffff; stroke-width: 5"/>
    <path d="M 117.458901 228.150237 
L 118.699575 227.122692 
L 115.151506 222.838697 
L 114.025572 224.227695 
L 113.452499 223.535757 
L 114.571213 222.152739 
L 115.330539 221.523854 
L 119.451681 226.499787 
L 120.692355 225.472242 
L 121.221575 226.111231 
L 117.988122 228.789226 
L 117.458901 228.150237 
z
" clip-path="url(#p4a6ac5f91f)" style="fill: #4c02a1"/>
   </g>
   <g id="text_16">
    <path d="M 158.298885 123.864179 
L 156.02101 127.88458 
L 158.508037 127.750743 
L 158.298885 123.864179 
z
M 157.993705 123.019984 
L 159.232538 122.953317 
L 159.487869 127.698014 
L 160.52699 127.642095 
L 160.571071 128.461222 
L 159.531949 128.517142 
L 159.624309 130.233408 
L 158.644476 130.286137 
L 158.552117 128.56987 
L 155.266247 128.746696 
L 155.215113 127.796509 
L 157.993705 123.019984 
z
" clip-path="url(#p4a6ac5f91f)" style="fill: #7e03a8; stroke: #ffffff; stroke-width: 5"/>
    <path d="M 158.298885 123.864179 
L 156.02101 127.88458 
L 158.508037 127.750743 
L 158.298885 123.864179 
z
M 157.993705 123.019984 
L 159.232538 122.953317 
L 159.487869 127.698014 
L 160.52699 127.642095 
L 160.571071 128.461222 
L 159.531949 128.517142 
L 159.624309 130.233408 
L 158.644476 130.286137 
L 158.552117 128.56987 
L 155.266247 128.746696 
L 155.215113 127.796509 
L 157.993705 123.019984 
z
" clip-path="url(#p4a6ac5f91f)" style="fill: #7e03a8"/>
   </g>
   <g id="text_17">
    <path d="M 198.364464 234.932084 
Q 197.725149 234.639404 197.201862 234.813989 
Q 196.679996 234.989225 196.406178 235.587339 
Q 196.131709 236.186874 196.340082 236.696416 
Q 196.549876 237.206607 197.189191 237.499287 
Q 197.828506 237.791967 198.353864 237.616611 
Q 198.881292 237.440485 199.15381 236.845213 
Q 199.427628 236.247098 199.217834 235.736906 
Q 199.009461 235.227365 198.364464 234.932084 
z
M 197.642309 234.140934 
Q 197.130546 233.734802 196.988858 233.192207 
Q 196.849242 232.648841 197.109401 232.080561 
Q 197.472975 231.286391 198.249793 231.083522 
Q 199.028032 230.881305 200.012577 231.332032 
Q 201.002804 231.785361 201.355442 232.505296 
Q 201.708079 233.225232 201.344506 234.019403 
Q 201.084346 234.587683 200.580386 234.836417 
Q 200.078496 235.084381 199.440915 234.96434 
Q 200.019811 235.411517 200.179045 236.017135 
Q 200.34035 236.621983 200.050271 237.255615 
Q 199.60865 238.22027 198.784385 238.466718 
Q 197.960771 238.711745 196.863991 238.209637 
Q 195.768632 237.708178 195.414487 236.923969 
Q 195.062412 236.13899 195.504034 235.174335 
Q 195.794112 234.540703 196.358785 234.26821 
Q 196.925528 233.994946 197.642309 234.140934 
z
M 197.962577 232.574254 
Q 197.727132 233.088548 197.916179 233.52394 
Q 198.106646 233.959983 198.687712 234.225996 
Q 199.265937 234.490709 199.723308 234.351248 
Q 200.1821 234.212439 200.417545 233.698145 
Q 200.65364 233.182432 200.45891 232.744438 
Q 200.265601 232.307094 199.687377 232.042381 
Q 199.106311 231.776368 198.651781 231.917129 
Q 198.198672 232.058541 197.962577 232.574254 
z
" clip-path="url(#p4a6ac5f91f)" style="fill: #aa2395; stroke: #ffffff; stroke-width: 5"/>
    <path d="M 198.364464 234.932084 
Q 197.725149 234.639404 197.201862 234.813989 
Q 196.679996 234.989225 196.406178 235.587339 
Q 196.131709 236.186874 196.340082 236.696416 
Q 196.549876 237.206607 197.189191 237.499287 
Q 197.828506 237.791967 198.353864 237.616611 
Q 198.881292 237.440485 199.15381 236.845213 
Q 199.427628 236.247098 199.217834 235.736906 
Q 199.009461 235.227365 198.364464 234.932084 
z
M 197.642309 234.140934 
Q 197.130546 233.734802 196.988858 233.192207 
Q 196.849242 232.648841 197.109401 232.080561 
Q 197.472975 231.286391 198.249793 231.083522 
Q 199.028032 230.881305 200.012577 231.332032 
Q 201.002804 231.785361 201.355442 232.505296 
Q 201.708079 233.225232 201.344506 234.019403 
Q 201.084346 234.587683 200.580386 234.836417 
Q 200.078496 235.084381 199.440915 234.96434 
Q 200.019811 235.411517 200.179045 236.017135 
Q 200.34035 236.621983 200.050271 237.255615 
Q 199.60865 238.22027 198.784385 238.466718 
Q 197.960771 238.711745 196.863991 238.209637 
Q 195.768632 237.708178 195.414487 236.923969 
Q 195.062412 236.13899 195.504034 235.174335 
Q 195.794112 234.540703 196.358785 234.26821 
Q 196.925528 233.994946 197.642309 234.140934 
z
M 197.962577 232.574254 
Q 197.727132 233.088548 197.916179 233.52394 
Q 198.106646 233.959983 198.687712 234.225996 
Q 199.265937 234.490709 199.723308 234.351248 
Q 200.1821 234.212439 200.417545 233.698145 
Q 200.65364 233.182432 200.45891 232.744438 
Q 200.265601 232.307094 199.687377 232.042381 
Q 199.106311 231.776368 198.651781 231.917129 
Q 198.198672 232.058541 197.962577 232.574254 
z
" clip-path="url(#p4a6ac5f91f)" style="fill: #aa2395"/>
   </g>
   <g id="text_18">
    <path d="M 232.783259 143.882335 
L 234.315612 144.379339 
L 236.031748 139.088188 
L 234.25568 138.881728 
L 234.532865 138.027118 
L 236.300016 138.230685 
L 237.237857 138.534866 
L 235.244536 144.680627 
L 236.776889 145.177632 
L 236.520915 145.966846 
L 232.527285 144.671549 
L 232.783259 143.882335 
z
M 241.785271 143.429734 
Q 241.153603 143.224858 240.64324 143.537332 
Q 240.134845 143.848802 239.890923 144.600859 
Q 239.648446 145.348457 239.875799 145.903487 
Q 240.105121 146.457514 240.736789 146.662389 
Q 241.368458 146.867265 241.877816 146.552823 
Q 242.387657 146.236894 242.630134 145.489296 
Q 242.874057 144.737239 242.645257 144.186668 
Q 242.41694 143.63461 241.785271 143.429734 
z
M 244.601576 141.092411 
L 244.324391 141.947021 
Q 244.024648 141.665827 243.69341 141.461478 
Q 243.362654 141.255643 243.00892 141.140912 
Q 242.079996 140.839624 241.386095 141.307754 
Q 240.693679 141.776365 240.212626 143.021504 
Q 240.617222 142.705935 241.100306 142.624438 
Q 241.584877 142.543422 242.081294 142.704431 
Q 243.126148 143.043319 243.526709 143.874641 
Q 243.927753 144.704476 243.573921 145.795405 
Q 243.227319 146.864039 242.385954 147.305694 
Q 241.545072 147.745864 240.495759 147.405529 
Q 239.291873 147.01506 238.954624 145.887245 
Q 238.617856 144.757944 239.185724 143.007108 
Q 239.718883 141.363284 240.816375 140.638395 
Q 241.913867 139.913505 243.227737 140.339647 
Q 243.581472 140.454377 243.918494 140.640891 
Q 244.255517 140.827405 244.601576 141.092411 
z
" clip-path="url(#p4a6ac5f91f)" style="fill: #cc4778; stroke: #ffffff; stroke-width: 5"/>
    <path d="M 232.783259 143.882335 
L 234.315612 144.379339 
L 236.031748 139.088188 
L 234.25568 138.881728 
L 234.532865 138.027118 
L 236.300016 138.230685 
L 237.237857 138.534866 
L 235.244536 144.680627 
L 236.776889 145.177632 
L 236.520915 145.966846 
L 232.527285 144.671549 
L 232.783259 143.882335 
z
M 241.785271 143.429734 
Q 241.153603 143.224858 240.64324 143.537332 
Q 240.134845 143.848802 239.890923 144.600859 
Q 239.648446 145.348457 239.875799 145.903487 
Q 240.105121 146.457514 240.736789 146.662389 
Q 241.368458 146.867265 241.877816 146.552823 
Q 242.387657 146.236894 242.630134 145.489296 
Q 242.874057 144.737239 242.645257 144.186668 
Q 242.41694 143.63461 241.785271 143.429734 
z
M 244.601576 141.092411 
L 244.324391 141.947021 
Q 244.024648 141.665827 243.69341 141.461478 
Q 243.362654 141.255643 243.00892 141.140912 
Q 242.079996 140.839624 241.386095 141.307754 
Q 240.693679 141.776365 240.212626 143.021504 
Q 240.617222 142.705935 241.100306 142.624438 
Q 241.584877 142.543422 242.081294 142.704431 
Q 243.126148 143.043319 243.526709 143.874641 
Q 243.927753 144.704476 243.573921 145.795405 
Q 243.227319 146.864039 242.385954 147.305694 
Q 241.545072 147.745864 240.495759 147.405529 
Q 239.291873 147.01506 238.954624 145.887245 
Q 238.617856 144.757944 239.185724 143.007108 
Q 239.718883 141.363284 240.816375 140.638395 
Q 241.913867 139.913505 243.227737 140.339647 
Q 243.581472 140.454377 243.918494 140.640891 
Q 244.255517 140.827405 244.601576 141.092411 
z
" clip-path="url(#p4a6ac5f91f)" style="fill: #cc4778"/>
   </g>
   <g id="text_19">
    <path d="M 276.14249 129.317299 
Q 276.847583 129.481046 277.236127 129.967506 
Q 277.62626 130.452432 277.614134 131.155452 
Q 277.595541 132.233417 276.843251 132.812717 
Q 276.090988 133.390454 274.724004 133.366877 
Q 274.26626 133.358981 273.781958 133.25999 
Q 273.297655 133.160998 272.78367 132.970856 
L 272.800081 132.019435 
Q 273.205272 132.265521 273.690598 132.395786 
Q 274.177486 132.526077 274.710219 132.535265 
Q 275.636644 132.551244 276.128814 132.194054 
Q 276.620985 131.836863 276.63303 131.13853 
Q 276.644158 130.493313 276.198915 130.12308 
Q 275.753698 129.751284 274.94913 129.737407 
L 274.099256 129.722748 
L 274.113241 128.911931 
L 275.002172 128.927263 
Q 275.728626 128.939793 276.119518 128.655867 
Q 276.51041 128.371941 276.519841 127.825148 
Q 276.529515 127.264294 276.13631 126.957467 
Q 275.744695 126.649105 275.002618 126.636305 
Q 274.596428 126.629299 274.130899 126.710346 
Q 273.665397 126.78983 273.10605 126.964584 
L 273.121193 126.08659 
Q 273.686304 125.940064 274.178204 125.870412 
Q 274.670103 125.800759 275.104413 125.80825 
Q 276.227684 125.827625 276.8719 126.34975 
Q 277.517706 126.870339 277.502724 127.73896 
Q 277.492269 128.34512 277.138251 128.756263 
Q 276.784233 129.167407 276.14249 129.317299 
z
M 280.311616 132.491233 
L 283.753291 132.550595 
L 283.738983 133.380159 
L 279.111546 133.300345 
L 279.125855 132.470781 
Q 279.696733 131.899291 280.682207 130.938018 
Q 281.66927 129.975209 281.922575 129.695161 
Q 282.405104 129.172155 282.598935 128.806693 
Q 282.794329 128.441259 282.800473 128.085062 
Q 282.810497 127.503898 282.40905 127.131294 
Q 282.007631 126.757129 281.353041 126.745838 
Q 280.889047 126.737835 280.370723 126.889856 
Q 279.853962 127.041905 279.262453 127.359876 
L 279.279644 126.363149 
Q 279.878991 126.134389 280.398204 126.021451 
Q 280.918978 125.90854 281.348602 125.915951 
Q 282.481246 125.935487 283.144802 126.514204 
Q 283.808385 127.091358 283.792055 128.038092 
Q 283.784295 128.488025 283.608618 128.88818 
Q 283.43453 129.2868 282.979853 129.825914 
Q 282.855544 129.965978 282.189286 130.63115 
Q 281.52459 131.296348 280.311616 132.491233 
z
" clip-path="url(#p4a6ac5f91f)" style="fill: #e66c5c; stroke: #ffffff; stroke-width: 5"/>
    <path d="M 276.14249 129.317299 
Q 276.847583 129.481046 277.236127 129.967506 
Q 277.62626 130.452432 277.614134 131.155452 
Q 277.595541 132.233417 276.843251 132.812717 
Q 276.090988 133.390454 274.724004 133.366877 
Q 274.26626 133.358981 273.781958 133.25999 
Q 273.297655 133.160998 272.78367 132.970856 
L 272.800081 132.019435 
Q 273.205272 132.265521 273.690598 132.395786 
Q 274.177486 132.526077 274.710219 132.535265 
Q 275.636644 132.551244 276.128814 132.194054 
Q 276.620985 131.836863 276.63303 131.13853 
Q 276.644158 130.493313 276.198915 130.12308 
Q 275.753698 129.751284 274.94913 129.737407 
L 274.099256 129.722748 
L 274.113241 128.911931 
L 275.002172 128.927263 
Q 275.728626 128.939793 276.119518 128.655867 
Q 276.51041 128.371941 276.519841 127.825148 
Q 276.529515 127.264294 276.13631 126.957467 
Q 275.744695 126.649105 275.002618 126.636305 
Q 274.596428 126.629299 274.130899 126.710346 
Q 273.665397 126.78983 273.10605 126.964584 
L 273.121193 126.08659 
Q 273.686304 125.940064 274.178204 125.870412 
Q 274.670103 125.800759 275.104413 125.80825 
Q 276.227684 125.827625 276.8719 126.34975 
Q 277.517706 126.870339 277.502724 127.73896 
Q 277.492269 128.34512 277.138251 128.756263 
Q 276.784233 129.167407 276.14249 129.317299 
z
M 280.311616 132.491233 
L 283.753291 132.550595 
L 283.738983 133.380159 
L 279.111546 133.300345 
L 279.125855 132.470781 
Q 279.696733 131.899291 280.682207 130.938018 
Q 281.66927 129.975209 281.922575 129.695161 
Q 282.405104 129.172155 282.598935 128.806693 
Q 282.794329 128.441259 282.800473 128.085062 
Q 282.810497 127.503898 282.40905 127.131294 
Q 282.007631 126.757129 281.353041 126.745838 
Q 280.889047 126.737835 280.370723 126.889856 
Q 279.853962 127.041905 279.262453 127.359876 
L 279.279644 126.363149 
Q 279.878991 126.134389 280.398204 126.021451 
Q 280.918978 125.90854 281.348602 125.915951 
Q 282.481246 125.935487 283.144802 126.514204 
Q 283.808385 127.091358 283.792055 128.038092 
Q 283.784295 128.488025 283.608618 128.88818 
Q 283.43453 129.2868 282.979853 129.825914 
Q 282.855544 129.965978 282.189286 130.63115 
Q 281.52459 131.296348 280.311616 132.491233 
z
" clip-path="url(#p4a6ac5f91f)" style="fill: #e66c5c"/>
   </g>
   <g id="text_20">
    <path d="M 316.049237 130.310084 
Q 315.414202 130.115897 314.909184 130.436938 
Q 314.406118 130.756943 314.174921 131.513009 
Q 313.945095 132.264592 314.181782 132.815707 
Q 314.42042 133.365785 315.055456 133.559972 
Q 315.690491 133.75416 316.194471 133.431167 
Q 316.698908 133.106679 316.928735 132.355096 
Q 317.159932 131.59903 316.921874 131.052398 
Q 316.684273 130.504271 316.049237 130.310084 
z
M 318.825699 127.925568 
L 318.562975 128.784734 
Q 318.258529 128.508639 317.92389 128.309909 
Q 317.589708 128.109684 317.234088 128.000939 
Q 316.300212 127.71537 315.614309 128.195142 
Q 314.9299 128.675371 314.469928 129.928451 
Q 314.86914 129.606099 315.350781 129.516461 
Q 315.833915 129.42728 316.332978 129.579889 
Q 317.383402 129.901097 317.797935 130.725541 
Q 318.212925 131.548491 317.877553 132.645235 
Q 317.549034 133.719566 316.715242 134.175356 
Q 315.881906 134.629652 314.827 134.307073 
Q 313.616697 133.936975 313.260463 132.815012 
Q 312.904687 131.691555 313.442928 129.931385 
Q 313.948272 128.278798 315.033375 127.535492 
Q 316.118479 126.792186 317.439353 127.196095 
Q 317.794973 127.30484 318.135095 127.48564 
Q 318.475217 127.66644 318.825699 127.925568 
z
M 323.290653 130.021267 
L 319.77073 133.015007 
L 322.152487 133.743323 
L 323.290653 130.021267 
z
M 323.293917 129.123609 
L 324.480313 129.486396 
L 323.090846 134.030263 
L 324.085984 134.334566 
L 323.846106 135.119022 
L 322.850968 134.814719 
L 322.348366 136.458341 
L 321.410007 136.171401 
L 321.912609 134.527779 
L 318.765821 133.565524 
L 319.044079 132.655555 
L 323.293917 129.123609 
z
" clip-path="url(#p4a6ac5f91f)" style="fill: #f89540; stroke: #ffffff; stroke-width: 5"/>
    <path d="M 316.049237 130.310084 
Q 315.414202 130.115897 314.909184 130.436938 
Q 314.406118 130.756943 314.174921 131.513009 
Q 313.945095 132.264592 314.181782 132.815707 
Q 314.42042 133.365785 315.055456 133.559972 
Q 315.690491 133.75416 316.194471 133.431167 
Q 316.698908 133.106679 316.928735 132.355096 
Q 317.159932 131.59903 316.921874 131.052398 
Q 316.684273 130.504271 316.049237 130.310084 
z
M 318.825699 127.925568 
L 318.562975 128.784734 
Q 318.258529 128.508639 317.92389 128.309909 
Q 317.589708 128.109684 317.234088 128.000939 
Q 316.300212 127.71537 315.614309 128.195142 
Q 314.9299 128.675371 314.469928 129.928451 
Q 314.86914 129.606099 315.350781 129.516461 
Q 315.833915 129.42728 316.332978 129.579889 
Q 317.383402 129.901097 317.797935 130.725541 
Q 318.212925 131.548491 317.877553 132.645235 
Q 317.549034 133.719566 316.715242 134.175356 
Q 315.881906 134.629652 314.827 134.307073 
Q 313.616697 133.936975 313.260463 132.815012 
Q 312.904687 131.691555 313.442928 129.931385 
Q 313.948272 128.278798 315.033375 127.535492 
Q 316.118479 126.792186 317.439353 127.196095 
Q 317.794973 127.30484 318.135095 127.48564 
Q 318.475217 127.66644 318.825699 127.925568 
z
M 323.290653 130.021267 
L 319.77073 133.015007 
L 322.152487 133.743323 
L 323.290653 130.021267 
z
M 323.293917 129.123609 
L 324.480313 129.486396 
L 323.090846 134.030263 
L 324.085984 134.334566 
L 323.846106 135.119022 
L 322.850968 134.814719 
L 322.348366 136.458341 
L 321.410007 136.171401 
L 321.912609 134.527779 
L 318.765821 133.565524 
L 319.044079 132.655555 
L 323.293917 129.123609 
z
" clip-path="url(#p4a6ac5f91f)" style="fill: #f89540"/>
   </g>
   <g id="text_21">
    <path d="M 350.270019 150.450311 
L 351.858424 150.718802 
L 352.78551 145.234103 
L 350.998312 145.28856 
L 351.148051 144.402689 
L 352.926006 144.346669 
L 353.898153 144.510993 
L 352.821328 150.881563 
L 354.409733 151.150053 
L 354.271452 151.968136 
L 350.131737 151.268394 
L 350.270019 150.450311 
z
M 357.211975 151.623719 
L 360.606018 152.197419 
L 360.467736 153.015501 
L 355.904344 152.244145 
L 356.042625 151.426063 
Q 356.692592 150.946432 357.810814 150.143447 
Q 358.930836 149.339181 359.223195 149.10019 
Q 359.778553 148.655277 360.024889 148.322935 
Q 360.272765 147.990853 360.33214 147.639585 
Q 360.429016 147.066465 360.087845 146.637985 
Q 359.746934 146.207965 359.101404 146.09885 
Q 358.643832 146.021506 358.108596 146.094255 
Q 357.5749 146.167264 356.942471 146.393143 
L 357.108617 145.410211 
Q 357.735447 145.273711 358.265713 145.239739 
Q 358.79752 145.206027 359.221198 145.277642 
Q 360.338166 145.466444 360.907652 146.137939 
Q 361.4774 146.807892 361.319587 147.741524 
Q 361.244587 148.185229 361.011009 148.554591 
Q 360.779233 148.922672 360.249003 149.387679 
Q 360.105134 149.507566 359.346843 150.06555 
Q 358.590093 150.623795 357.211975 151.623719 
z
M 365.165855 150.298014 
Q 364.472565 150.180827 364.012318 150.484935 
Q 363.553611 150.789303 363.443976 151.437915 
Q 363.334079 152.088067 363.667265 152.52629 
Q 364.001991 152.964773 364.695281 153.081961 
Q 365.388572 153.199149 365.85062 152.893761 
Q 366.314469 152.587092 366.423584 151.941562 
Q 366.53322 151.29295 366.198494 150.854467 
Q 365.865309 150.416244 365.165855 150.298014 
z
M 364.2635 149.720798 
Q 363.66404 149.461004 363.386709 148.97359 
Q 363.111179 148.484895 363.215346 147.868637 
Q 363.36092 147.007416 364.058732 146.610352 
Q 364.758086 146.213549 365.825753 146.394018 
Q 366.899583 146.575529 367.426584 147.179625 
Q 367.953584 147.78372 367.808011 148.644941 
Q 367.703844 149.261199 367.281461 149.631925 
Q 366.860879 150.00137 366.213957 150.050486 
Q 366.888888 150.332545 367.199482 150.876291 
Q 367.511878 151.418757 367.395732 152.105885 
Q 367.218908 153.151984 366.48655 153.603425 
Q 365.754451 154.053326 364.565073 153.852284 
Q 363.377235 153.651502 362.832138 152.985715 
Q 362.288842 152.318648 362.465666 151.27255 
Q 362.581812 150.585422 363.056686 150.176029 
Q 363.533361 149.765356 364.2635 149.720798 
z
M 364.167247 148.124618 
Q 364.072976 148.682332 364.368297 149.053937 
Q 364.665159 149.425803 365.295283 149.532314 
Q 365.922326 149.638303 366.327998 149.385188 
Q 366.735211 149.132333 366.829483 148.574619 
Q 366.924014 148.015365 366.62253 147.642718 
Q 366.322587 147.270331 365.695544 147.164341 
Q 365.06542 147.05783 364.662829 147.311467 
Q 364.261778 147.565364 364.167247 148.124618 
z
" clip-path="url(#p4a6ac5f91f)" style="fill: #fdc527; stroke: #ffffff; stroke-width: 5"/>
    <path d="M 350.270019 150.450311 
L 351.858424 150.718802 
L 352.78551 145.234103 
L 350.998312 145.28856 
L 351.148051 144.402689 
L 352.926006 144.346669 
L 353.898153 144.510993 
L 352.821328 150.881563 
L 354.409733 151.150053 
L 354.271452 151.968136 
L 350.131737 151.268394 
L 350.270019 150.450311 
z
M 357.211975 151.623719 
L 360.606018 152.197419 
L 360.467736 153.015501 
L 355.904344 152.244145 
L 356.042625 151.426063 
Q 356.692592 150.946432 357.810814 150.143447 
Q 358.930836 149.339181 359.223195 149.10019 
Q 359.778553 148.655277 360.024889 148.322935 
Q 360.272765 147.990853 360.33214 147.639585 
Q 360.429016 147.066465 360.087845 146.637985 
Q 359.746934 146.207965 359.101404 146.09885 
Q 358.643832 146.021506 358.108596 146.094255 
Q 357.5749 146.167264 356.942471 146.393143 
L 357.108617 145.410211 
Q 357.735447 145.273711 358.265713 145.239739 
Q 358.79752 145.206027 359.221198 145.277642 
Q 360.338166 145.466444 360.907652 146.137939 
Q 361.4774 146.807892 361.319587 147.741524 
Q 361.244587 148.185229 361.011009 148.554591 
Q 360.779233 148.922672 360.249003 149.387679 
Q 360.105134 149.507566 359.346843 150.06555 
Q 358.590093 150.623795 357.211975 151.623719 
z
M 365.165855 150.298014 
Q 364.472565 150.180827 364.012318 150.484935 
Q 363.553611 150.789303 363.443976 151.437915 
Q 363.334079 152.088067 363.667265 152.52629 
Q 364.001991 152.964773 364.695281 153.081961 
Q 365.388572 153.199149 365.85062 152.893761 
Q 366.314469 152.587092 366.423584 151.941562 
Q 366.53322 151.29295 366.198494 150.854467 
Q 365.865309 150.416244 365.165855 150.298014 
z
M 364.2635 149.720798 
Q 363.66404 149.461004 363.386709 148.97359 
Q 363.111179 148.484895 363.215346 147.868637 
Q 363.36092 147.007416 364.058732 146.610352 
Q 364.758086 146.213549 365.825753 146.394018 
Q 366.899583 146.575529 367.426584 147.179625 
Q 367.953584 147.78372 367.808011 148.644941 
Q 367.703844 149.261199 367.281461 149.631925 
Q 366.860879 150.00137 366.213957 150.050486 
Q 366.888888 150.332545 367.199482 150.876291 
Q 367.511878 151.418757 367.395732 152.105885 
Q 367.218908 153.151984 366.48655 153.603425 
Q 365.754451 154.053326 364.565073 153.852284 
Q 363.377235 153.651502 362.832138 152.985715 
Q 362.288842 152.318648 362.465666 151.27255 
Q 362.581812 150.585422 363.056686 150.176029 
Q 363.533361 149.765356 364.2635 149.720798 
z
M 364.167247 148.124618 
Q 364.072976 148.682332 364.368297 149.053937 
Q 364.665159 149.425803 365.295283 149.532314 
Q 365.922326 149.638303 366.327998 149.385188 
Q 366.735211 149.132333 366.829483 148.574619 
Q 366.924014 148.015365 366.62253 147.642718 
Q 366.322587 147.270331 365.695544 147.164341 
Q 365.06542 147.05783 364.662829 147.311467 
Q 364.261778 147.565364 364.167247 148.124618 
z
" clip-path="url(#p4a6ac5f91f)" style="fill: #fdc527"/>
   </g>
   <g id="patch_3">
    <path d="M 59.690625 301.735725 
L 59.690625 35.623725 
" style="fill: none; stroke: #cccccc; stroke-width: 0.8; stroke-linejoin: miter; stroke-linecap: square"/>
   </g>
   <g id="patch_4">
    <path d="M 416.810625 301.735725 
L 416.810625 35.623725 
" style="fill: none; stroke: #cccccc; stroke-width: 0.8; stroke-linejoin: miter; stroke-linecap: square"/>
   </g>
   <g id="patch_5">
    <path d="M 59.690625 301.735725 
L 416.810625 301.735725 
" style="fill: none; stroke: #cccccc; stroke-width: 0.8; stroke-linejoin: miter; stroke-linecap: square"/>
   </g>
   <g id="patch_6">
    <path d="M 59.690625 35.623725 
L 416.810625 35.623725 
" style="fill: none; stroke: #cccccc; stroke-width: 0.8; stroke-linejoin: miter; stroke-linecap: square"/>
   </g>
   <g id="text_22">
    <!-- Block Size = 16K, Read-Write Type = Random Read-heavy 4:1 -->
    <g style="fill: #262626; opacity: 0.75" transform="translate(83.359219 30.882918) scale(0.1 -0.1)">
     <defs>
      <path id="DejaVuSans-42" d="M 1259 2228 
L 1259 519 
L 2272 519 
Q 2781 519 3026 730 
Q 3272 941 3272 1375 
Q 3272 1813 3026 2020 
Q 2781 2228 2272 2228 
L 1259 2228 
z
M 1259 4147 
L 1259 2741 
L 2194 2741 
Q 2656 2741 2882 2914 
Q 3109 3088 3109 3444 
Q 3109 3797 2882 3972 
Q 2656 4147 2194 4147 
L 1259 4147 
z
M 628 4666 
L 2241 4666 
Q 2963 4666 3353 4366 
Q 3744 4066 3744 3513 
Q 3744 3084 3544 2831 
Q 3344 2578 2956 2516 
Q 3422 2416 3680 2098 
Q 3938 1781 3938 1306 
Q 3938 681 3513 340 
Q 3088 0 2303 0 
L 628 0 
L 628 4666 
z
" transform="scale(0.015625)"/>
      <path id="DejaVuSans-6c" d="M 603 4863 
L 1178 4863 
L 1178 0 
L 603 0 
L 603 4863 
z
" transform="scale(0.015625)"/>
      <path id="DejaVuSans-63" d="M 3122 3366 
L 3122 2828 
Q 2878 2963 2633 3030 
Q 2388 3097 2138 3097 
Q 1578 3097 1268 2742 
Q 959 2388 959 1747 
Q 959 1106 1268 751 
Q 1578 397 2138 397 
Q 2388 397 2633 464 
Q 2878 531 3122 666 
L 3122 134 
Q 2881 22 2623 -34 
Q 2366 -91 2075 -91 
Q 1284 -91 818 406 
Q 353 903 353 1747 
Q 353 2603 823 3093 
Q 1294 3584 2113 3584 
Q 2378 3584 2631 3529 
Q 2884 3475 3122 3366 
z
" transform="scale(0.015625)"/>
      <path id="DejaVuSans-6b" d="M 581 4863 
L 1159 4863 
L 1159 1991 
L 2875 3500 
L 3609 3500 
L 1753 1863 
L 3688 0 
L 2938 0 
L 1159 1709 
L 1159 0 
L 581 0 
L 581 4863 
z
" transform="scale(0.015625)"/>
      <path id="DejaVuSans-69" d="M 603 3500 
L 1178 3500 
L 1178 0 
L 603 0 
L 603 3500 
z
M 603 4863 
L 1178 4863 
L 1178 4134 
L 603 4134 
L 603 4863 
z
" transform="scale(0.015625)"/>
      <path id="DejaVuSans-7a" d="M 353 3500 
L 3084 3500 
L 3084 2975 
L 922 459 
L 3084 459 
L 3084 0 
L 275 0 
L 275 525 
L 2438 3041 
L 353 3041 
L 353 3500 
z
" transform="scale(0.015625)"/>
      <path id="DejaVuSans-3d" d="M 678 2906 
L 4684 2906 
L 4684 2381 
L 678 2381 
L 678 2906 
z
M 678 1631 
L 4684 1631 
L 4684 1100 
L 678 1100 
L 678 1631 
z
" transform="scale(0.015625)"/>
      <path id="DejaVuSans-4b" d="M 628 4666 
L 1259 4666 
L 1259 2694 
L 3353 4666 
L 4166 4666 
L 1850 2491 
L 4331 0 
L 3500 0 
L 1259 2247 
L 1259 0 
L 628 0 
L 628 4666 
z
" transform="scale(0.015625)"/>
      <path id="DejaVuSans-2c" d="M 750 794 
L 1409 794 
L 1409 256 
L 897 -744 
L 494 -744 
L 750 256 
L 750 794 
z
" transform="scale(0.015625)"/>
      <path id="DejaVuSans-52" d="M 2841 2188 
Q 3044 2119 3236 1894 
Q 3428 1669 3622 1275 
L 4263 0 
L 3584 0 
L 2988 1197 
Q 2756 1666 2539 1819 
Q 2322 1972 1947 1972 
L 1259 1972 
L 1259 0 
L 628 0 
L 628 4666 
L 2053 4666 
Q 2853 4666 3247 4331 
Q 3641 3997 3641 3322 
Q 3641 2881 3436 2590 
Q 3231 2300 2841 2188 
z
M 1259 4147 
L 1259 2491 
L 2053 2491 
Q 2509 2491 2742 2702 
Q 2975 2913 2975 3322 
Q 2975 3731 2742 3939 
Q 2509 4147 2053 4147 
L 1259 4147 
z
" transform="scale(0.015625)"/>
      <path id="DejaVuSans-61" d="M 2194 1759 
Q 1497 1759 1228 1600 
Q 959 1441 959 1056 
Q 959 750 1161 570 
Q 1363 391 1709 391 
Q 2188 391 2477 730 
Q 2766 1069 2766 1631 
L 2766 1759 
L 2194 1759 
z
M 3341 1997 
L 3341 0 
L 2766 0 
L 2766 531 
Q 2569 213 2275 61 
Q 1981 -91 1556 -91 
Q 1019 -91 701 211 
Q 384 513 384 1019 
Q 384 1609 779 1909 
Q 1175 2209 1959 2209 
L 2766 2209 
L 2766 2266 
Q 2766 2663 2505 2880 
Q 2244 3097 1772 3097 
Q 1472 3097 1187 3025 
Q 903 2953 641 2809 
L 641 3341 
Q 956 3463 1253 3523 
Q 1550 3584 1831 3584 
Q 2591 3584 2966 3190 
Q 3341 2797 3341 1997 
z
" transform="scale(0.015625)"/>
      <path id="DejaVuSans-64" d="M 2906 2969 
L 2906 4863 
L 3481 4863 
L 3481 0 
L 2906 0 
L 2906 525 
Q 2725 213 2448 61 
Q 2172 -91 1784 -91 
Q 1150 -91 751 415 
Q 353 922 353 1747 
Q 353 2572 751 3078 
Q 1150 3584 1784 3584 
Q 2172 3584 2448 3432 
Q 2725 3281 2906 2969 
z
M 947 1747 
Q 947 1113 1208 752 
Q 1469 391 1925 391 
Q 2381 391 2643 752 
Q 2906 1113 2906 1747 
Q 2906 2381 2643 2742 
Q 2381 3103 1925 3103 
Q 1469 3103 1208 2742 
Q 947 2381 947 1747 
z
" transform="scale(0.015625)"/>
      <path id="DejaVuSans-2d" d="M 313 2009 
L 1997 2009 
L 1997 1497 
L 313 1497 
L 313 2009 
z
" transform="scale(0.015625)"/>
      <path id="DejaVuSans-57" d="M 213 4666 
L 850 4666 
L 1831 722 
L 2809 4666 
L 3519 4666 
L 4500 722 
L 5478 4666 
L 6119 4666 
L 4947 0 
L 4153 0 
L 3169 4050 
L 2175 0 
L 1381 0 
L 213 4666 
z
" transform="scale(0.015625)"/>
      <path id="DejaVuSans-74" d="M 1172 4494 
L 1172 3500 
L 2356 3500 
L 2356 3053 
L 1172 3053 
L 1172 1153 
Q 1172 725 1289 603 
Q 1406 481 1766 481 
L 2356 481 
L 2356 0 
L 1766 0 
Q 1100 0 847 248 
Q 594 497 594 1153 
L 594 3053 
L 172 3053 
L 172 3500 
L 594 3500 
L 594 4494 
L 1172 4494 
z
" transform="scale(0.015625)"/>
      <path id="DejaVuSans-54" d="M -19 4666 
L 3928 4666 
L 3928 4134 
L 2272 4134 
L 2272 0 
L 1638 0 
L 1638 4134 
L -19 4134 
L -19 4666 
z
" transform="scale(0.015625)"/>
      <path id="DejaVuSans-79" d="M 2059 -325 
Q 1816 -950 1584 -1140 
Q 1353 -1331 966 -1331 
L 506 -1331 
L 506 -850 
L 844 -850 
Q 1081 -850 1212 -737 
Q 1344 -625 1503 -206 
L 1606 56 
L 191 3500 
L 800 3500 
L 1894 763 
L 2988 3500 
L 3597 3500 
L 2059 -325 
z
" transform="scale(0.015625)"/>
      <path id="DejaVuSans-70" d="M 1159 525 
L 1159 -1331 
L 581 -1331 
L 581 3500 
L 1159 3500 
L 1159 2969 
Q 1341 3281 1617 3432 
Q 1894 3584 2278 3584 
Q 2916 3584 3314 3078 
Q 3713 2572 3713 1747 
Q 3713 922 3314 415 
Q 2916 -91 2278 -91 
Q 1894 -91 1617 61 
Q 1341 213 1159 525 
z
M 3116 1747 
Q 3116 2381 2855 2742 
Q 2594 3103 2138 3103 
Q 1681 3103 1420 2742 
Q 1159 2381 1159 1747 
Q 1159 1113 1420 752 
Q 1681 391 2138 391 
Q 2594 391 2855 752 
Q 3116 1113 3116 1747 
z
" transform="scale(0.015625)"/>
      <path id="DejaVuSans-6e" d="M 3513 2113 
L 3513 0 
L 2938 0 
L 2938 2094 
Q 2938 2591 2744 2837 
Q 2550 3084 2163 3084 
Q 1697 3084 1428 2787 
Q 1159 2491 1159 1978 
L 1159 0 
L 581 0 
L 581 3500 
L 1159 3500 
L 1159 2956 
Q 1366 3272 1645 3428 
Q 1925 3584 2291 3584 
Q 2894 3584 3203 3211 
Q 3513 2838 3513 2113 
z
" transform="scale(0.015625)"/>
      <path id="DejaVuSans-68" d="M 3513 2113 
L 3513 0 
L 2938 0 
L 2938 2094 
Q 2938 2591 2744 2837 
Q 2550 3084 2163 3084 
Q 1697 3084 1428 2787 
Q 1159 2491 1159 1978 
L 1159 0 
L 581 0 
L 581 4863 
L 1159 4863 
L 1159 2956 
Q 1366 3272 1645 3428 
Q 1925 3584 2291 3584 
Q 2894 3584 3203 3211 
Q 3513 2838 3513 2113 
z
" transform="scale(0.015625)"/>
      <path id="DejaVuSans-76" d="M 191 3500 
L 800 3500 
L 1894 563 
L 2988 3500 
L 3597 3500 
L 2284 0 
L 1503 0 
L 191 3500 
z
" transform="scale(0.015625)"/>
      <path id="DejaVuSans-3a" d="M 750 794 
L 1409 794 
L 1409 0 
L 750 0 
L 750 794 
z
M 750 3309 
L 1409 3309 
L 1409 2516 
L 750 2516 
L 750 3309 
z
" transform="scale(0.015625)"/>
     </defs>
     <use xlink:href="#DejaVuSans-42"/>
     <use xlink:href="#DejaVuSans-6c" transform="translate(68.603516 0)"/>
     <use xlink:href="#DejaVuSans-6f" transform="translate(96.386719 0)"/>
     <use xlink:href="#DejaVuSans-63" transform="translate(157.568359 0)"/>
     <use xlink:href="#DejaVuSans-6b" transform="translate(212.548828 0)"/>
     <use xlink:href="#DejaVuSans-20" transform="translate(270.458984 0)"/>
     <use xlink:href="#DejaVuSans-53" transform="translate(302.246094 0)"/>
     <use xlink:href="#DejaVuSans-69" transform="translate(365.722656 0)"/>
     <use xlink:href="#DejaVuSans-7a" transform="translate(393.505859 0)"/>
     <use xlink:href="#DejaVuSans-65" transform="translate(445.996094 0)"/>
     <use xlink:href="#DejaVuSans-20" transform="translate(507.519531 0)"/>
     <use xlink:href="#DejaVuSans-3d" transform="translate(539.306641 0)"/>
     <use xlink:href="#DejaVuSans-20" transform="translate(623.095703 0)"/>
     <use xlink:href="#DejaVuSans-31" transform="translate(654.882812 0)"/>
     <use xlink:href="#DejaVuSans-36" transform="translate(718.505859 0)"/>
     <use xlink:href="#DejaVuSans-4b" transform="translate(782.128906 0)"/>
     <use xlink:href="#DejaVuSans-2c" transform="translate(847.705078 0)"/>
     <use xlink:href="#DejaVuSans-20" transform="translate(879.492188 0)"/>
     <use xlink:href="#DejaVuSans-52" transform="translate(911.279297 0)"/>
     <use xlink:href="#DejaVuSans-65" transform="translate(976.261719 0)"/>
     <use xlink:href="#DejaVuSans-61" transform="translate(1037.785156 0)"/>
     <use xlink:href="#DejaVuSans-64" transform="translate(1099.064453 0)"/>
     <use xlink:href="#DejaVuSans-2d" transform="translate(1162.541016 0)"/>
     <use xlink:href="#DejaVuSans-57" transform="translate(1194.625 0)"/>
     <use xlink:href="#DejaVuSans-72" transform="translate(1289.001953 0)"/>
     <use xlink:href="#DejaVuSans-69" transform="translate(1330.115234 0)"/>
     <use xlink:href="#DejaVuSans-74" transform="translate(1357.898438 0)"/>
     <use xlink:href="#DejaVuSans-65" transform="translate(1397.107422 0)"/>
     <use xlink:href="#DejaVuSans-20" transform="translate(1458.630859 0)"/>
     <use xlink:href="#DejaVuSans-54" transform="translate(1490.417969 0)"/>
     <use xlink:href="#DejaVuSans-79" transform="translate(1535.876953 0)"/>
     <use xlink:href="#DejaVuSans-70" transform="translate(1595.056641 0)"/>
     <use xlink:href="#DejaVuSans-65" transform="translate(1658.533203 0)"/>
     <use xlink:href="#DejaVuSans-20" transform="translate(1720.056641 0)"/>
     <use xlink:href="#DejaVuSans-3d" transform="translate(1751.84375 0)"/>
     <use xlink:href="#DejaVuSans-20" transform="translate(1835.632812 0)"/>
     <use xlink:href="#DejaVuSans-52" transform="translate(1867.419922 0)"/>
     <use xlink:href="#DejaVuSans-61" transform="translate(1934.652344 0)"/>
     <use xlink:href="#DejaVuSans-6e" transform="translate(1995.931641 0)"/>
     <use xlink:href="#DejaVuSans-64" transform="translate(2059.310547 0)"/>
     <use xlink:href="#DejaVuSans-6f" transform="translate(2122.787109 0)"/>
     <use xlink:href="#DejaVuSans-6d" transform="translate(2183.96875 0)"/>
     <use xlink:href="#DejaVuSans-20" transform="translate(2281.380859 0)"/>
     <use xlink:href="#DejaVuSans-52" transform="translate(2313.167969 0)"/>
     <use xlink:href="#DejaVuSans-65" transform="translate(2378.150391 0)"/>
     <use xlink:href="#DejaVuSans-61" transform="translate(2439.673828 0)"/>
     <use xlink:href="#DejaVuSans-64" transform="translate(2500.953125 0)"/>
     <use xlink:href="#DejaVuSans-2d" transform="translate(2564.429688 0)"/>
     <use xlink:href="#DejaVuSans-68" transform="translate(2600.513672 0)"/>
     <use xlink:href="#DejaVuSans-65" transform="translate(2663.892578 0)"/>
     <use xlink:href="#DejaVuSans-61" transform="translate(2725.416016 0)"/>
     <use xlink:href="#DejaVuSans-76" transform="translate(2786.695312 0)"/>
     <use xlink:href="#DejaVuSans-79" transform="translate(2845.875 0)"/>
     <use xlink:href="#DejaVuSans-20" transform="translate(2905.054688 0)"/>
     <use xlink:href="#DejaVuSans-34" transform="translate(2936.841797 0)"/>
     <use xlink:href="#DejaVuSans-3a" transform="translate(3000.464844 0)"/>
     <use xlink:href="#DejaVuSans-31" transform="translate(3034.15625 0)"/>
    </g>
   </g>
   <g id="text_23">
    <!-- IOPS vs Number of Jobs -->
    <g style="fill: #262626" transform="translate(158.541562 16.318125) scale(0.12 -0.12)">
     <defs>
      <path id="DejaVuSans-Bold-49" d="M 588 4666 
L 1791 4666 
L 1791 0 
L 588 0 
L 588 4666 
z
" transform="scale(0.015625)"/>
      <path id="DejaVuSans-Bold-4f" d="M 2719 3878 
Q 2169 3878 1866 3472 
Q 1563 3066 1563 2328 
Q 1563 1594 1866 1187 
Q 2169 781 2719 781 
Q 3272 781 3575 1187 
Q 3878 1594 3878 2328 
Q 3878 3066 3575 3472 
Q 3272 3878 2719 3878 
z
M 2719 4750 
Q 3844 4750 4481 4106 
Q 5119 3463 5119 2328 
Q 5119 1197 4481 553 
Q 3844 -91 2719 -91 
Q 1597 -91 958 553 
Q 319 1197 319 2328 
Q 319 3463 958 4106 
Q 1597 4750 2719 4750 
z
" transform="scale(0.015625)"/>
      <path id="DejaVuSans-Bold-50" d="M 588 4666 
L 2584 4666 
Q 3475 4666 3951 4270 
Q 4428 3875 4428 3144 
Q 4428 2409 3951 2014 
Q 3475 1619 2584 1619 
L 1791 1619 
L 1791 0 
L 588 0 
L 588 4666 
z
M 1791 3794 
L 1791 2491 
L 2456 2491 
Q 2806 2491 2997 2661 
Q 3188 2831 3188 3144 
Q 3188 3456 2997 3625 
Q 2806 3794 2456 3794 
L 1791 3794 
z
" transform="scale(0.015625)"/>
      <path id="DejaVuSans-Bold-53" d="M 3834 4519 
L 3834 3531 
Q 3450 3703 3084 3790 
Q 2719 3878 2394 3878 
Q 1963 3878 1756 3759 
Q 1550 3641 1550 3391 
Q 1550 3203 1689 3098 
Q 1828 2994 2194 2919 
L 2706 2816 
Q 3484 2659 3812 2340 
Q 4141 2022 4141 1434 
Q 4141 663 3683 286 
Q 3225 -91 2284 -91 
Q 1841 -91 1394 -6 
Q 947 78 500 244 
L 500 1259 
Q 947 1022 1364 901 
Q 1781 781 2169 781 
Q 2563 781 2772 912 
Q 2981 1044 2981 1288 
Q 2981 1506 2839 1625 
Q 2697 1744 2272 1838 
L 1806 1941 
Q 1106 2091 782 2419 
Q 459 2747 459 3303 
Q 459 4000 909 4375 
Q 1359 4750 2203 4750 
Q 2588 4750 2994 4692 
Q 3400 4634 3834 4519 
z
" transform="scale(0.015625)"/>
      <path id="DejaVuSans-Bold-20" transform="scale(0.015625)"/>
      <path id="DejaVuSans-Bold-76" d="M 97 3500 
L 1216 3500 
L 2088 1081 
L 2956 3500 
L 4078 3500 
L 2700 0 
L 1472 0 
L 97 3500 
z
" transform="scale(0.015625)"/>
      <path id="DejaVuSans-Bold-73" d="M 3272 3391 
L 3272 2541 
Q 2913 2691 2578 2766 
Q 2244 2841 1947 2841 
Q 1628 2841 1473 2761 
Q 1319 2681 1319 2516 
Q 1319 2381 1436 2309 
Q 1553 2238 1856 2203 
L 2053 2175 
Q 2913 2066 3209 1816 
Q 3506 1566 3506 1031 
Q 3506 472 3093 190 
Q 2681 -91 1863 -91 
Q 1516 -91 1145 -36 
Q 775 19 384 128 
L 384 978 
Q 719 816 1070 734 
Q 1422 653 1784 653 
Q 2113 653 2278 743 
Q 2444 834 2444 1013 
Q 2444 1163 2330 1236 
Q 2216 1309 1875 1350 
L 1678 1375 
Q 931 1469 631 1722 
Q 331 1975 331 2491 
Q 331 3047 712 3315 
Q 1094 3584 1881 3584 
Q 2191 3584 2531 3537 
Q 2872 3491 3272 3391 
z
" transform="scale(0.015625)"/>
      <path id="DejaVuSans-Bold-4e" d="M 588 4666 
L 1931 4666 
L 3628 1466 
L 3628 4666 
L 4769 4666 
L 4769 0 
L 3425 0 
L 1728 3200 
L 1728 0 
L 588 0 
L 588 4666 
z
" transform="scale(0.015625)"/>
      <path id="DejaVuSans-Bold-75" d="M 500 1363 
L 500 3500 
L 1625 3500 
L 1625 3150 
Q 1625 2866 1622 2436 
Q 1619 2006 1619 1863 
Q 1619 1441 1641 1255 
Q 1663 1069 1716 984 
Q 1784 875 1895 815 
Q 2006 756 2150 756 
Q 2500 756 2700 1025 
Q 2900 1294 2900 1772 
L 2900 3500 
L 4019 3500 
L 4019 0 
L 2900 0 
L 2900 506 
Q 2647 200 2364 54 
Q 2081 -91 1741 -91 
Q 1134 -91 817 281 
Q 500 653 500 1363 
z
" transform="scale(0.015625)"/>
      <path id="DejaVuSans-Bold-6d" d="M 3781 2919 
Q 3994 3244 4286 3414 
Q 4578 3584 4928 3584 
Q 5531 3584 5847 3212 
Q 6163 2841 6163 2131 
L 6163 0 
L 5038 0 
L 5038 1825 
Q 5041 1866 5042 1909 
Q 5044 1953 5044 2034 
Q 5044 2406 4934 2573 
Q 4825 2741 4581 2741 
Q 4263 2741 4089 2478 
Q 3916 2216 3909 1719 
L 3909 0 
L 2784 0 
L 2784 1825 
Q 2784 2406 2684 2573 
Q 2584 2741 2328 2741 
Q 2006 2741 1831 2477 
Q 1656 2213 1656 1722 
L 1656 0 
L 531 0 
L 531 3500 
L 1656 3500 
L 1656 2988 
Q 1863 3284 2130 3434 
Q 2397 3584 2719 3584 
Q 3081 3584 3359 3409 
Q 3638 3234 3781 2919 
z
" transform="scale(0.015625)"/>
      <path id="DejaVuSans-Bold-62" d="M 2400 722 
Q 2759 722 2948 984 
Q 3138 1247 3138 1747 
Q 3138 2247 2948 2509 
Q 2759 2772 2400 2772 
Q 2041 2772 1848 2508 
Q 1656 2244 1656 1747 
Q 1656 1250 1848 986 
Q 2041 722 2400 722 
z
M 1656 2988 
Q 1888 3294 2169 3439 
Q 2450 3584 2816 3584 
Q 3463 3584 3878 3070 
Q 4294 2556 4294 1747 
Q 4294 938 3878 423 
Q 3463 -91 2816 -91 
Q 2450 -91 2169 54 
Q 1888 200 1656 506 
L 1656 0 
L 538 0 
L 538 4863 
L 1656 4863 
L 1656 2988 
z
" transform="scale(0.015625)"/>
      <path id="DejaVuSans-Bold-65" d="M 4031 1759 
L 4031 1441 
L 1416 1441 
Q 1456 1047 1700 850 
Q 1944 653 2381 653 
Q 2734 653 3104 758 
Q 3475 863 3866 1075 
L 3866 213 
Q 3469 63 3072 -14 
Q 2675 -91 2278 -91 
Q 1328 -91 801 392 
Q 275 875 275 1747 
Q 275 2603 792 3093 
Q 1309 3584 2216 3584 
Q 3041 3584 3536 3087 
Q 4031 2591 4031 1759 
z
M 2881 2131 
Q 2881 2450 2695 2645 
Q 2509 2841 2209 2841 
Q 1884 2841 1681 2658 
Q 1478 2475 1428 2131 
L 2881 2131 
z
" transform="scale(0.015625)"/>
      <path id="DejaVuSans-Bold-72" d="M 3138 2547 
Q 2991 2616 2845 2648 
Q 2700 2681 2553 2681 
Q 2122 2681 1889 2404 
Q 1656 2128 1656 1613 
L 1656 0 
L 538 0 
L 538 3500 
L 1656 3500 
L 1656 2925 
Q 1872 3269 2151 3426 
Q 2431 3584 2822 3584 
Q 2878 3584 2943 3579 
Q 3009 3575 3134 3559 
L 3138 2547 
z
" transform="scale(0.015625)"/>
      <path id="DejaVuSans-Bold-6f" d="M 2203 2784 
Q 1831 2784 1636 2517 
Q 1441 2250 1441 1747 
Q 1441 1244 1636 976 
Q 1831 709 2203 709 
Q 2569 709 2762 976 
Q 2956 1244 2956 1747 
Q 2956 2250 2762 2517 
Q 2569 2784 2203 2784 
z
M 2203 3584 
Q 3106 3584 3614 3096 
Q 4122 2609 4122 1747 
Q 4122 884 3614 396 
Q 3106 -91 2203 -91 
Q 1297 -91 786 396 
Q 275 884 275 1747 
Q 275 2609 786 3096 
Q 1297 3584 2203 3584 
z
" transform="scale(0.015625)"/>
      <path id="DejaVuSans-Bold-66" d="M 2841 4863 
L 2841 4128 
L 2222 4128 
Q 1984 4128 1890 4042 
Q 1797 3956 1797 3744 
L 1797 3500 
L 2753 3500 
L 2753 2700 
L 1797 2700 
L 1797 0 
L 678 0 
L 678 2700 
L 122 2700 
L 122 3500 
L 678 3500 
L 678 3744 
Q 678 4316 997 4589 
Q 1316 4863 1984 4863 
L 2841 4863 
z
" transform="scale(0.015625)"/>
      <path id="DejaVuSans-Bold-4a" d="M 588 4666 
L 1791 4666 
L 1791 453 
Q 1791 -419 1317 -850 
Q 844 -1281 -116 -1281 
L -359 -1281 
L -359 -372 
L -172 -372 
Q 203 -372 395 -162 
Q 588 47 588 453 
L 588 4666 
z
" transform="scale(0.015625)"/>
     </defs>
     <use xlink:href="#DejaVuSans-Bold-49"/>
     <use xlink:href="#DejaVuSans-Bold-4f" transform="translate(37.207031 0)"/>
     <use xlink:href="#DejaVuSans-Bold-50" transform="translate(122.216797 0)"/>
     <use xlink:href="#DejaVuSans-Bold-53" transform="translate(195.507812 0)"/>
     <use xlink:href="#DejaVuSans-Bold-20" transform="translate(267.529297 0)"/>
     <use xlink:href="#DejaVuSans-Bold-76" transform="translate(302.34375 0)"/>
     <use xlink:href="#DejaVuSans-Bold-73" transform="translate(367.529297 0)"/>
     <use xlink:href="#DejaVuSans-Bold-20" transform="translate(427.050781 0)"/>
     <use xlink:href="#DejaVuSans-Bold-4e" transform="translate(461.865234 0)"/>
     <use xlink:href="#DejaVuSans-Bold-75" transform="translate(545.556641 0)"/>
     <use xlink:href="#DejaVuSans-Bold-6d" transform="translate(616.748047 0)"/>
     <use xlink:href="#DejaVuSans-Bold-62" transform="translate(720.947266 0)"/>
     <use xlink:href="#DejaVuSans-Bold-65" transform="translate(792.529297 0)"/>
     <use xlink:href="#DejaVuSans-Bold-72" transform="translate(860.351562 0)"/>
     <use xlink:href="#DejaVuSans-Bold-20" transform="translate(909.667969 0)"/>
     <use xlink:href="#DejaVuSans-Bold-6f" transform="translate(944.482422 0)"/>
     <use xlink:href="#DejaVuSans-Bold-66" transform="translate(1013.183594 0)"/>
     <use xlink:href="#DejaVuSans-Bold-20" transform="translate(1056.689453 0)"/>
     <use xlink:href="#DejaVuSans-Bold-4a" transform="translate(1091.503906 0)"/>
     <use xlink:href="#DejaVuSans-Bold-6f" transform="translate(1128.710938 0)"/>
     <use xlink:href="#DejaVuSans-Bold-62" transform="translate(1197.412109 0)"/>
     <use xlink:href="#DejaVuSans-Bold-73" transform="translate(1268.994141 0)"/>
    </g>
   </g>
   <g id="legend_1">
    <g id="text_24">
     <!-- IO Depth -->
     <g style="fill: #262626" transform="translate(451.317187 120.065663) scale(0.1 -0.1)">
      <defs>
       <path id="DejaVuSans-44" d="M 1259 4147 
L 1259 519 
L 2022 519 
Q 2988 519 3436 956 
Q 3884 1394 3884 2338 
Q 3884 3275 3436 3711 
Q 2988 4147 2022 4147 
L 1259 4147 
z
M 628 4666 
L 1925 4666 
Q 3281 4666 3915 4102 
Q 4550 3538 4550 2338 
Q 4550 1131 3912 565 
Q 3275 0 1925 0 
L 628 0 
L 628 4666 
z
" transform="scale(0.015625)"/>
      </defs>
      <use xlink:href="#DejaVuSans-49"/>
      <use xlink:href="#DejaVuSans-4f" transform="translate(29.492188 0)"/>
      <use xlink:href="#DejaVuSans-20" transform="translate(108.203125 0)"/>
      <use xlink:href="#DejaVuSans-44" transform="translate(139.990234 0)"/>
      <use xlink:href="#DejaVuSans-65" transform="translate(216.992188 0)"/>
      <use xlink:href="#DejaVuSans-70" transform="translate(278.515625 0)"/>
      <use xlink:href="#DejaVuSans-74" transform="translate(341.992188 0)"/>
      <use xlink:href="#DejaVuSans-68" transform="translate(381.201172 0)"/>
     </g>
    </g>
    <g id="line2d_27">
     <path d="M 450.003125 131.243787 
L 460.003125 131.243787 
L 470.003125 131.243787 
" style="fill: none; stroke: #4c02a1; stroke-width: 1.5; stroke-linecap: round"/>
    </g>
    <g id="text_25">
     <!-- 1 -->
     <g style="fill: #262626" transform="translate(478.003125 134.743787) scale(0.1 -0.1)">
      <use xlink:href="#DejaVuSans-31"/>
     </g>
    </g>
    <g id="line2d_28">
     <path d="M 450.003125 145.921913 
L 460.003125 145.921913 
L 470.003125 145.921913 
" style="fill: none; stroke: #7e03a8; stroke-width: 1.5; stroke-linecap: round"/>
    </g>
    <g id="text_26">
     <!-- 4 -->
     <g style="fill: #262626" transform="translate(478.003125 149.421913) scale(0.1 -0.1)">
      <use xlink:href="#DejaVuSans-34"/>
     </g>
    </g>
    <g id="line2d_29">
     <path d="M 450.003125 160.600037 
L 460.003125 160.600037 
L 470.003125 160.600037 
" style="fill: none; stroke: #aa2395; stroke-width: 1.5; stroke-linecap: round"/>
    </g>
    <g id="text_27">
     <!-- 8 -->
     <g style="fill: #262626" transform="translate(478.003125 164.100037) scale(0.1 -0.1)">
      <use xlink:href="#DejaVuSans-38"/>
     </g>
    </g>
    <g id="line2d_30">
     <path d="M 450.003125 175.278163 
L 460.003125 175.278163 
L 470.003125 175.278163 
" style="fill: none; stroke: #cc4778; stroke-width: 1.5; stroke-linecap: round"/>
    </g>
    <g id="text_28">
     <!-- 16 -->
     <g style="fill: #262626" transform="translate(478.003125 178.778163) scale(0.1 -0.1)">
      <use xlink:href="#DejaVuSans-31"/>
      <use xlink:href="#DejaVuSans-36" transform="translate(63.623047 0)"/>
     </g>
    </g>
    <g id="line2d_31">
     <path d="M 450.003125 189.956288 
L 460.003125 189.956288 
L 470.003125 189.956288 
" style="fill: none; stroke: #e66c5c; stroke-width: 1.5; stroke-linecap: round"/>
    </g>
    <g id="text_29">
     <!-- 32 -->
     <g style="fill: #262626" transform="translate(478.003125 193.456288) scale(0.1 -0.1)">
      <use xlink:href="#DejaVuSans-33"/>
      <use xlink:href="#DejaVuSans-32" transform="translate(63.623047 0)"/>
     </g>
    </g>
    <g id="line2d_32">
     <path d="M 450.003125 204.634412 
L 460.003125 204.634412 
L 470.003125 204.634412 
" style="fill: none; stroke: #f89540; stroke-width: 1.5; stroke-linecap: round"/>
    </g>
    <g id="text_30">
     <!-- 64 -->
     <g style="fill: #262626" transform="translate(478.003125 208.134412) scale(0.1 -0.1)">
      <use xlink:href="#DejaVuSans-36"/>
      <use xlink:href="#DejaVuSans-34" transform="translate(63.623047 0)"/>
     </g>
    </g>
    <g id="line2d_33">
     <path d="M 450.003125 219.312537 
L 460.003125 219.312537 
L 470.003125 219.312537 
" style="fill: none; stroke: #fdc527; stroke-width: 1.5; stroke-linecap: round"/>
    </g>
    <g id="text_31">
     <!-- 128 -->
     <g style="fill: #262626" transform="translate(478.003125 222.812537) scale(0.1 -0.1)">
      <use xlink:href="#DejaVuSans-31"/>
      <use xlink:href="#DejaVuSans-32" transform="translate(63.623047 0)"/>
      <use xlink:href="#DejaVuSans-38" transform="translate(127.246094 0)"/>
     </g>
    </g>
   </g>
  </g>
 </g>
 <defs>
  <clipPath id="p4a6ac5f91f">
   <rect x="59.690625" y="35.623725" width="357.12" height="266.112"/>
  </clipPath>
 </defs>
</svg>
