<?xml version="1.0" encoding="utf-8" standalone="no"?>
<!DOCTYPE svg PUBLIC "-//W3C//DTD SVG 1.1//EN"
  "http://www.w3.org/Graphics/SVG/1.1/DTD/svg11.dtd">
<svg xmlns:xlink="http://www.w3.org/1999/xlink" width="501.928125pt" height="339.291975pt" viewBox="0 0 501.928125 339.291975" xmlns="http://www.w3.org/2000/svg" version="1.1">
 <metadata>
  <rdf:RDF xmlns:dc="http://purl.org/dc/elements/1.1/" xmlns:cc="http://creativecommons.org/ns#" xmlns:rdf="http://www.w3.org/1999/02/22-rdf-syntax-ns#">
   <cc:Work>
    <dc:type rdf:resource="http://purl.org/dc/dcmitype/StillImage"/>
    <dc:date>2025-09-11T11:34:27.176755</dc:date>
    <dc:format>image/svg+xml</dc:format>
    <dc:creator>
     <cc:Agent>
      <dc:title>Matplotlib v3.10.6, https://matplotlib.org/</dc:title>
     </cc:Agent>
    </dc:creator>
   </cc:Work>
  </rdf:RDF>
 </metadata>
 <defs>
  <style type="text/css">*{stroke-linejoin: round; stroke-linecap: butt}</style>
 </defs>
 <g id="figure_1">
  <g id="patch_1">
   <path d="M 0 339.291975 
L 501.928125 339.291975 
L 501.928125 0 
L 0 0 
z
" style="fill: #ffffff"/>
  </g>
  <g id="axes_1">
   <g id="patch_2">
    <path d="M 53.328125 301.735725 
L 410.448125 301.735725 
L 410.448125 35.623725 
L 53.328125 35.623725 
z
" style="fill: #ffffff"/>
   </g>
   <g id="matplotlib.axis_1">
    <g id="xtick_1">
     <g id="line2d_1">
      <path d="M 69.560852 301.735725 
L 69.560852 35.623725 
" clip-path="url(#pf116939085)" style="fill: none; stroke: #cccccc; stroke-width: 0.8; stroke-linecap: round"/>
     </g>
     <g id="text_1">
      <!-- 16 -->
      <g style="fill: #262626" transform="translate(63.198352 316.334162) scale(0.1 -0.1)">
       <defs>
        <path id="DejaVuSans-31" d="M 794 531 
L 1825 531 
L 1825 4091 
L 703 3866 
L 703 4441 
L 1819 4666 
L 2450 4666 
L 2450 531 
L 3481 531 
L 3481 0 
L 794 0 
L 794 531 
z
" transform="scale(0.015625)"/>
        <path id="DejaVuSans-36" d="M 2113 2584 
Q 1688 2584 1439 2293 
Q 1191 2003 1191 1497 
Q 1191 994 1439 701 
Q 1688 409 2113 409 
Q 2538 409 2786 701 
Q 3034 994 3034 1497 
Q 3034 2003 2786 2293 
Q 2538 2584 2113 2584 
z
M 3366 4563 
L 3366 3988 
Q 3128 4100 2886 4159 
Q 2644 4219 2406 4219 
Q 1781 4219 1451 3797 
Q 1122 3375 1075 2522 
Q 1259 2794 1537 2939 
Q 1816 3084 2150 3084 
Q 2853 3084 3261 2657 
Q 3669 2231 3669 1497 
Q 3669 778 3244 343 
Q 2819 -91 2113 -91 
Q 1303 -91 875 529 
Q 447 1150 447 2328 
Q 447 3434 972 4092 
Q 1497 4750 2381 4750 
Q 2619 4750 2861 4703 
Q 3103 4656 3366 4563 
z
" transform="scale(0.015625)"/>
       </defs>
       <use xlink:href="#DejaVuSans-31"/>
       <use xlink:href="#DejaVuSans-36" transform="translate(63.623047 0)"/>
      </g>
     </g>
    </g>
    <g id="xtick_2">
     <g id="line2d_2">
      <path d="M 394.215398 301.735725 
L 394.215398 35.623725 
" clip-path="url(#pf116939085)" style="fill: none; stroke: #cccccc; stroke-width: 0.8; stroke-linecap: round"/>
     </g>
     <g id="text_2">
      <!-- 128 -->
      <g style="fill: #262626" transform="translate(384.671648 316.334162) scale(0.1 -0.1)">
       <defs>
        <path id="DejaVuSans-32" d="M 1228 531 
L 3431 531 
L 3431 0 
L 469 0 
L 469 531 
Q 828 903 1448 1529 
Q 2069 2156 2228 2338 
Q 2531 2678 2651 2914 
Q 2772 3150 2772 3378 
Q 2772 3750 2511 3984 
Q 2250 4219 1831 4219 
Q 1534 4219 1204 4116 
Q 875 4013 500 3803 
L 500 4441 
Q 881 4594 1212 4672 
Q 1544 4750 1819 4750 
Q 2544 4750 2975 4387 
Q 3406 4025 3406 3419 
Q 3406 3131 3298 2873 
Q 3191 2616 2906 2266 
Q 2828 2175 2409 1742 
Q 1991 1309 1228 531 
z
" transform="scale(0.015625)"/>
        <path id="DejaVuSans-38" d="M 2034 2216 
Q 1584 2216 1326 1975 
Q 1069 1734 1069 1313 
Q 1069 891 1326 650 
Q 1584 409 2034 409 
Q 2484 409 2743 651 
Q 3003 894 3003 1313 
Q 3003 1734 2745 1975 
Q 2488 2216 2034 2216 
z
M 1403 2484 
Q 997 2584 770 2862 
Q 544 3141 544 3541 
Q 544 4100 942 4425 
Q 1341 4750 2034 4750 
Q 2731 4750 3128 4425 
Q 3525 4100 3525 3541 
Q 3525 3141 3298 2862 
Q 3072 2584 2669 2484 
Q 3125 2378 3379 2068 
Q 3634 1759 3634 1313 
Q 3634 634 3220 271 
Q 2806 -91 2034 -91 
Q 1263 -91 848 271 
Q 434 634 434 1313 
Q 434 1759 690 2068 
Q 947 2378 1403 2484 
z
M 1172 3481 
Q 1172 3119 1398 2916 
Q 1625 2713 2034 2713 
Q 2441 2713 2670 2916 
Q 2900 3119 2900 3481 
Q 2900 3844 2670 4047 
Q 2441 4250 2034 4250 
Q 1625 4250 1398 4047 
Q 1172 3844 1172 3481 
z
" transform="scale(0.015625)"/>
       </defs>
       <use xlink:href="#DejaVuSans-31"/>
       <use xlink:href="#DejaVuSans-32" transform="translate(63.623047 0)"/>
       <use xlink:href="#DejaVuSans-38" transform="translate(127.246094 0)"/>
      </g>
     </g>
    </g>
    <g id="xtick_3">
     <g id="line2d_3">
      <path d="M 208.698515 301.735725 
L 208.698515 35.623725 
" clip-path="url(#pf116939085)" style="fill: none; stroke: #cccccc; stroke-width: 0.8; stroke-linecap: round"/>
     </g>
     <g id="text_3">
      <!-- 64 -->
      <g style="fill: #262626" transform="translate(202.336015 316.334162) scale(0.1 -0.1)">
       <defs>
        <path id="DejaVuSans-34" d="M 2419 4116 
L 825 1625 
L 2419 1625 
L 2419 4116 
z
M 2253 4666 
L 3047 4666 
L 3047 1625 
L 3713 1625 
L 3713 1100 
L 3047 1100 
L 3047 0 
L 2419 0 
L 2419 1100 
L 313 1100 
L 313 1709 
L 2253 4666 
z
" transform="scale(0.015625)"/>
       </defs>
       <use xlink:href="#DejaVuSans-36"/>
       <use xlink:href="#DejaVuSans-34" transform="translate(63.623047 0)"/>
      </g>
     </g>
    </g>
    <g id="xtick_4">
     <g id="line2d_4">
      <path d="M 115.940073 301.735725 
L 115.940073 35.623725 
" clip-path="url(#pf116939085)" style="fill: none; stroke: #cccccc; stroke-width: 0.8; stroke-linecap: round"/>
     </g>
     <g id="text_4">
      <!-- 32 -->
      <g style="fill: #262626" transform="translate(109.577573 316.334162) scale(0.1 -0.1)">
       <defs>
        <path id="DejaVuSans-33" d="M 2597 2516 
Q 3050 2419 3304 2112 
Q 3559 1806 3559 1356 
Q 3559 666 3084 287 
Q 2609 -91 1734 -91 
Q 1441 -91 1130 -33 
Q 819 25 488 141 
L 488 750 
Q 750 597 1062 519 
Q 1375 441 1716 441 
Q 2309 441 2620 675 
Q 2931 909 2931 1356 
Q 2931 1769 2642 2001 
Q 2353 2234 1838 2234 
L 1294 2234 
L 1294 2753 
L 1863 2753 
Q 2328 2753 2575 2939 
Q 2822 3125 2822 3475 
Q 2822 3834 2567 4026 
Q 2313 4219 1838 4219 
Q 1578 4219 1281 4162 
Q 984 4106 628 3988 
L 628 4550 
Q 988 4650 1302 4700 
Q 1616 4750 1894 4750 
Q 2613 4750 3031 4423 
Q 3450 4097 3450 3541 
Q 3450 3153 3228 2886 
Q 3006 2619 2597 2516 
z
" transform="scale(0.015625)"/>
       </defs>
       <use xlink:href="#DejaVuSans-33"/>
       <use xlink:href="#DejaVuSans-32" transform="translate(63.623047 0)"/>
      </g>
     </g>
    </g>
    <g id="text_5">
     <!-- Number of Jobs -->
     <g style="fill: #262626" transform="translate(193.49125 330.012287) scale(0.1 -0.1)">
      <defs>
       <path id="DejaVuSans-4e" d="M 628 4666 
L 1478 4666 
L 3547 763 
L 3547 4666 
L 4159 4666 
L 4159 0 
L 3309 0 
L 1241 3903 
L 1241 0 
L 628 0 
L 628 4666 
z
" transform="scale(0.015625)"/>
       <path id="DejaVuSans-75" d="M 544 1381 
L 544 3500 
L 1119 3500 
L 1119 1403 
Q 1119 906 1312 657 
Q 1506 409 1894 409 
Q 2359 409 2629 706 
Q 2900 1003 2900 1516 
L 2900 3500 
L 3475 3500 
L 3475 0 
L 2900 0 
L 2900 538 
Q 2691 219 2414 64 
Q 2138 -91 1772 -91 
Q 1169 -91 856 284 
Q 544 659 544 1381 
z
M 1991 3584 
L 1991 3584 
z
" transform="scale(0.015625)"/>
       <path id="DejaVuSans-6d" d="M 3328 2828 
Q 3544 3216 3844 3400 
Q 4144 3584 4550 3584 
Q 5097 3584 5394 3201 
Q 5691 2819 5691 2113 
L 5691 0 
L 5113 0 
L 5113 2094 
Q 5113 2597 4934 2840 
Q 4756 3084 4391 3084 
Q 3944 3084 3684 2787 
Q 3425 2491 3425 1978 
L 3425 0 
L 2847 0 
L 2847 2094 
Q 2847 2600 2669 2842 
Q 2491 3084 2119 3084 
Q 1678 3084 1418 2786 
Q 1159 2488 1159 1978 
L 1159 0 
L 581 0 
L 581 3500 
L 1159 3500 
L 1159 2956 
Q 1356 3278 1631 3431 
Q 1906 3584 2284 3584 
Q 2666 3584 2933 3390 
Q 3200 3197 3328 2828 
z
" transform="scale(0.015625)"/>
       <path id="DejaVuSans-62" d="M 3116 1747 
Q 3116 2381 2855 2742 
Q 2594 3103 2138 3103 
Q 1681 3103 1420 2742 
Q 1159 2381 1159 1747 
Q 1159 1113 1420 752 
Q 1681 391 2138 391 
Q 2594 391 2855 752 
Q 3116 1113 3116 1747 
z
M 1159 2969 
Q 1341 3281 1617 3432 
Q 1894 3584 2278 3584 
Q 2916 3584 3314 3078 
Q 3713 2572 3713 1747 
Q 3713 922 3314 415 
Q 2916 -91 2278 -91 
Q 1894 -91 1617 61 
Q 1341 213 1159 525 
L 1159 0 
L 581 0 
L 581 4863 
L 1159 4863 
L 1159 2969 
z
" transform="scale(0.015625)"/>
       <path id="DejaVuSans-65" d="M 3597 1894 
L 3597 1613 
L 953 1613 
Q 991 1019 1311 708 
Q 1631 397 2203 397 
Q 2534 397 2845 478 
Q 3156 559 3463 722 
L 3463 178 
Q 3153 47 2828 -22 
Q 2503 -91 2169 -91 
Q 1331 -91 842 396 
Q 353 884 353 1716 
Q 353 2575 817 3079 
Q 1281 3584 2069 3584 
Q 2775 3584 3186 3129 
Q 3597 2675 3597 1894 
z
M 3022 2063 
Q 3016 2534 2758 2815 
Q 2500 3097 2075 3097 
Q 1594 3097 1305 2825 
Q 1016 2553 972 2059 
L 3022 2063 
z
" transform="scale(0.015625)"/>
       <path id="DejaVuSans-72" d="M 2631 2963 
Q 2534 3019 2420 3045 
Q 2306 3072 2169 3072 
Q 1681 3072 1420 2755 
Q 1159 2438 1159 1844 
L 1159 0 
L 581 0 
L 581 3500 
L 1159 3500 
L 1159 2956 
Q 1341 3275 1631 3429 
Q 1922 3584 2338 3584 
Q 2397 3584 2469 3576 
Q 2541 3569 2628 3553 
L 2631 2963 
z
" transform="scale(0.015625)"/>
       <path id="DejaVuSans-20" transform="scale(0.015625)"/>
       <path id="DejaVuSans-6f" d="M 1959 3097 
Q 1497 3097 1228 2736 
Q 959 2375 959 1747 
Q 959 1119 1226 758 
Q 1494 397 1959 397 
Q 2419 397 2687 759 
Q 2956 1122 2956 1747 
Q 2956 2369 2687 2733 
Q 2419 3097 1959 3097 
z
M 1959 3584 
Q 2709 3584 3137 3096 
Q 3566 2609 3566 1747 
Q 3566 888 3137 398 
Q 2709 -91 1959 -91 
Q 1206 -91 779 398 
Q 353 888 353 1747 
Q 353 2609 779 3096 
Q 1206 3584 1959 3584 
z
" transform="scale(0.015625)"/>
       <path id="DejaVuSans-66" d="M 2375 4863 
L 2375 4384 
L 1825 4384 
Q 1516 4384 1395 4259 
Q 1275 4134 1275 3809 
L 1275 3500 
L 2222 3500 
L 2222 3053 
L 1275 3053 
L 1275 0 
L 697 0 
L 697 3053 
L 147 3053 
L 147 3500 
L 697 3500 
L 697 3744 
Q 697 4328 969 4595 
Q 1241 4863 1831 4863 
L 2375 4863 
z
" transform="scale(0.015625)"/>
       <path id="DejaVuSans-4a" d="M 628 4666 
L 1259 4666 
L 1259 325 
Q 1259 -519 939 -900 
Q 619 -1281 -91 -1281 
L -331 -1281 
L -331 -750 
L -134 -750 
Q 284 -750 456 -515 
Q 628 -281 628 325 
L 628 4666 
z
" transform="scale(0.015625)"/>
       <path id="DejaVuSans-73" d="M 2834 3397 
L 2834 2853 
Q 2591 2978 2328 3040 
Q 2066 3103 1784 3103 
Q 1356 3103 1142 2972 
Q 928 2841 928 2578 
Q 928 2378 1081 2264 
Q 1234 2150 1697 2047 
L 1894 2003 
Q 2506 1872 2764 1633 
Q 3022 1394 3022 966 
Q 3022 478 2636 193 
Q 2250 -91 1575 -91 
Q 1294 -91 989 -36 
Q 684 19 347 128 
L 347 722 
Q 666 556 975 473 
Q 1284 391 1588 391 
Q 1994 391 2212 530 
Q 2431 669 2431 922 
Q 2431 1156 2273 1281 
Q 2116 1406 1581 1522 
L 1381 1569 
Q 847 1681 609 1914 
Q 372 2147 372 2553 
Q 372 3047 722 3315 
Q 1072 3584 1716 3584 
Q 2034 3584 2315 3537 
Q 2597 3491 2834 3397 
z
" transform="scale(0.015625)"/>
      </defs>
      <use xlink:href="#DejaVuSans-4e"/>
      <use xlink:href="#DejaVuSans-75" transform="translate(74.804688 0)"/>
      <use xlink:href="#DejaVuSans-6d" transform="translate(138.183594 0)"/>
      <use xlink:href="#DejaVuSans-62" transform="translate(235.595703 0)"/>
      <use xlink:href="#DejaVuSans-65" transform="translate(299.072266 0)"/>
      <use xlink:href="#DejaVuSans-72" transform="translate(360.595703 0)"/>
      <use xlink:href="#DejaVuSans-20" transform="translate(401.708984 0)"/>
      <use xlink:href="#DejaVuSans-6f" transform="translate(433.496094 0)"/>
      <use xlink:href="#DejaVuSans-66" transform="translate(494.677734 0)"/>
      <use xlink:href="#DejaVuSans-20" transform="translate(529.882812 0)"/>
      <use xlink:href="#DejaVuSans-4a" transform="translate(561.669922 0)"/>
      <use xlink:href="#DejaVuSans-6f" transform="translate(591.162109 0)"/>
      <use xlink:href="#DejaVuSans-62" transform="translate(652.34375 0)"/>
      <use xlink:href="#DejaVuSans-73" transform="translate(715.820312 0)"/>
     </g>
    </g>
   </g>
   <g id="matplotlib.axis_2">
    <g id="ytick_1">
     <g id="line2d_5">
      <path d="M 53.328125 297.434283 
L 410.448125 297.434283 
" clip-path="url(#pf116939085)" style="fill: none; stroke: #cccccc; stroke-width: 0.8; stroke-linecap: round"/>
     </g>
     <g id="text_6">
      <!-- 4500 -->
      <g style="fill: #262626" transform="translate(20.878125 301.233502) scale(0.1 -0.1)">
       <defs>
        <path id="DejaVuSans-35" d="M 691 4666 
L 3169 4666 
L 3169 4134 
L 1269 4134 
L 1269 2991 
Q 1406 3038 1543 3061 
Q 1681 3084 1819 3084 
Q 2600 3084 3056 2656 
Q 3513 2228 3513 1497 
Q 3513 744 3044 326 
Q 2575 -91 1722 -91 
Q 1428 -91 1123 -41 
Q 819 9 494 109 
L 494 744 
Q 775 591 1075 516 
Q 1375 441 1709 441 
Q 2250 441 2565 725 
Q 2881 1009 2881 1497 
Q 2881 1984 2565 2268 
Q 2250 2553 1709 2553 
Q 1456 2553 1204 2497 
Q 953 2441 691 2322 
L 691 4666 
z
" transform="scale(0.015625)"/>
        <path id="DejaVuSans-30" d="M 2034 4250 
Q 1547 4250 1301 3770 
Q 1056 3291 1056 2328 
Q 1056 1369 1301 889 
Q 1547 409 2034 409 
Q 2525 409 2770 889 
Q 3016 1369 3016 2328 
Q 3016 3291 2770 3770 
Q 2525 4250 2034 4250 
z
M 2034 4750 
Q 2819 4750 3233 4129 
Q 3647 3509 3647 2328 
Q 3647 1150 3233 529 
Q 2819 -91 2034 -91 
Q 1250 -91 836 529 
Q 422 1150 422 2328 
Q 422 3509 836 4129 
Q 1250 4750 2034 4750 
z
" transform="scale(0.015625)"/>
       </defs>
       <use xlink:href="#DejaVuSans-34"/>
       <use xlink:href="#DejaVuSans-35" transform="translate(63.623047 0)"/>
       <use xlink:href="#DejaVuSans-30" transform="translate(127.246094 0)"/>
       <use xlink:href="#DejaVuSans-30" transform="translate(190.869141 0)"/>
      </g>
     </g>
    </g>
    <g id="ytick_2">
     <g id="line2d_6">
      <path d="M 53.328125 249.319725 
L 410.448125 249.319725 
" clip-path="url(#pf116939085)" style="fill: none; stroke: #cccccc; stroke-width: 0.8; stroke-linecap: round"/>
     </g>
     <g id="text_7">
      <!-- 5000 -->
      <g style="fill: #262626" transform="translate(20.878125 253.118944) scale(0.1 -0.1)">
       <use xlink:href="#DejaVuSans-35"/>
       <use xlink:href="#DejaVuSans-30" transform="translate(63.623047 0)"/>
       <use xlink:href="#DejaVuSans-30" transform="translate(127.246094 0)"/>
       <use xlink:href="#DejaVuSans-30" transform="translate(190.869141 0)"/>
      </g>
     </g>
    </g>
    <g id="ytick_3">
     <g id="line2d_7">
      <path d="M 53.328125 201.205167 
L 410.448125 201.205167 
" clip-path="url(#pf116939085)" style="fill: none; stroke: #cccccc; stroke-width: 0.8; stroke-linecap: round"/>
     </g>
     <g id="text_8">
      <!-- 5500 -->
      <g style="fill: #262626" transform="translate(20.878125 205.004385) scale(0.1 -0.1)">
       <use xlink:href="#DejaVuSans-35"/>
       <use xlink:href="#DejaVuSans-35" transform="translate(63.623047 0)"/>
       <use xlink:href="#DejaVuSans-30" transform="translate(127.246094 0)"/>
       <use xlink:href="#DejaVuSans-30" transform="translate(190.869141 0)"/>
      </g>
     </g>
    </g>
    <g id="ytick_4">
     <g id="line2d_8">
      <path d="M 53.328125 153.090608 
L 410.448125 153.090608 
" clip-path="url(#pf116939085)" style="fill: none; stroke: #cccccc; stroke-width: 0.8; stroke-linecap: round"/>
     </g>
     <g id="text_9">
      <!-- 6000 -->
      <g style="fill: #262626" transform="translate(20.878125 156.889827) scale(0.1 -0.1)">
       <use xlink:href="#DejaVuSans-36"/>
       <use xlink:href="#DejaVuSans-30" transform="translate(63.623047 0)"/>
       <use xlink:href="#DejaVuSans-30" transform="translate(127.246094 0)"/>
       <use xlink:href="#DejaVuSans-30" transform="translate(190.869141 0)"/>
      </g>
     </g>
    </g>
    <g id="ytick_5">
     <g id="line2d_9">
      <path d="M 53.328125 104.97605 
L 410.448125 104.97605 
" clip-path="url(#pf116939085)" style="fill: none; stroke: #cccccc; stroke-width: 0.8; stroke-linecap: round"/>
     </g>
     <g id="text_10">
      <!-- 6500 -->
      <g style="fill: #262626" transform="translate(20.878125 108.775268) scale(0.1 -0.1)">
       <use xlink:href="#DejaVuSans-36"/>
       <use xlink:href="#DejaVuSans-35" transform="translate(63.623047 0)"/>
       <use xlink:href="#DejaVuSans-30" transform="translate(127.246094 0)"/>
       <use xlink:href="#DejaVuSans-30" transform="translate(190.869141 0)"/>
      </g>
     </g>
    </g>
    <g id="ytick_6">
     <g id="line2d_10">
      <path d="M 53.328125 56.861491 
L 410.448125 56.861491 
" clip-path="url(#pf116939085)" style="fill: none; stroke: #cccccc; stroke-width: 0.8; stroke-linecap: round"/>
     </g>
     <g id="text_11">
      <!-- 7000 -->
      <g style="fill: #262626" transform="translate(20.878125 60.66071) scale(0.1 -0.1)">
       <defs>
        <path id="DejaVuSans-37" d="M 525 4666 
L 3525 4666 
L 3525 4397 
L 1831 0 
L 1172 0 
L 2766 4134 
L 525 4134 
L 525 4666 
z
" transform="scale(0.015625)"/>
       </defs>
       <use xlink:href="#DejaVuSans-37"/>
       <use xlink:href="#DejaVuSans-30" transform="translate(63.623047 0)"/>
       <use xlink:href="#DejaVuSans-30" transform="translate(127.246094 0)"/>
       <use xlink:href="#DejaVuSans-30" transform="translate(190.869141 0)"/>
      </g>
     </g>
    </g>
    <g id="text_12">
     <!-- IOPS -->
     <g style="fill: #262626" transform="translate(14.798438 180.279725) rotate(-90) scale(0.1 -0.1)">
      <defs>
       <path id="DejaVuSans-49" d="M 628 4666 
L 1259 4666 
L 1259 0 
L 628 0 
L 628 4666 
z
" transform="scale(0.015625)"/>
       <path id="DejaVuSans-4f" d="M 2522 4238 
Q 1834 4238 1429 3725 
Q 1025 3213 1025 2328 
Q 1025 1447 1429 934 
Q 1834 422 2522 422 
Q 3209 422 3611 934 
Q 4013 1447 4013 2328 
Q 4013 3213 3611 3725 
Q 3209 4238 2522 4238 
z
M 2522 4750 
Q 3503 4750 4090 4092 
Q 4678 3434 4678 2328 
Q 4678 1225 4090 567 
Q 3503 -91 2522 -91 
Q 1538 -91 948 565 
Q 359 1222 359 2328 
Q 359 3434 948 4092 
Q 1538 4750 2522 4750 
z
" transform="scale(0.015625)"/>
       <path id="DejaVuSans-50" d="M 1259 4147 
L 1259 2394 
L 2053 2394 
Q 2494 2394 2734 2622 
Q 2975 2850 2975 3272 
Q 2975 3691 2734 3919 
Q 2494 4147 2053 4147 
L 1259 4147 
z
M 628 4666 
L 2053 4666 
Q 2838 4666 3239 4311 
Q 3641 3956 3641 3272 
Q 3641 2581 3239 2228 
Q 2838 1875 2053 1875 
L 1259 1875 
L 1259 0 
L 628 0 
L 628 4666 
z
" transform="scale(0.015625)"/>
       <path id="DejaVuSans-53" d="M 3425 4513 
L 3425 3897 
Q 3066 4069 2747 4153 
Q 2428 4238 2131 4238 
Q 1616 4238 1336 4038 
Q 1056 3838 1056 3469 
Q 1056 3159 1242 3001 
Q 1428 2844 1947 2747 
L 2328 2669 
Q 3034 2534 3370 2195 
Q 3706 1856 3706 1288 
Q 3706 609 3251 259 
Q 2797 -91 1919 -91 
Q 1588 -91 1214 -16 
Q 841 59 441 206 
L 441 856 
Q 825 641 1194 531 
Q 1563 422 1919 422 
Q 2459 422 2753 634 
Q 3047 847 3047 1241 
Q 3047 1584 2836 1778 
Q 2625 1972 2144 2069 
L 1759 2144 
Q 1053 2284 737 2584 
Q 422 2884 422 3419 
Q 422 4038 858 4394 
Q 1294 4750 2059 4750 
Q 2388 4750 2728 4690 
Q 3069 4631 3425 4513 
z
" transform="scale(0.015625)"/>
      </defs>
      <use xlink:href="#DejaVuSans-49"/>
      <use xlink:href="#DejaVuSans-4f" transform="translate(29.492188 0)"/>
      <use xlink:href="#DejaVuSans-50" transform="translate(108.203125 0)"/>
      <use xlink:href="#DejaVuSans-53" transform="translate(168.505859 0)"/>
     </g>
    </g>
   </g>
   <g id="FillBetweenPolyCollection_1"/>
   <g id="FillBetweenPolyCollection_2"/>
   <g id="FillBetweenPolyCollection_3"/>
   <g id="FillBetweenPolyCollection_4"/>
   <g id="FillBetweenPolyCollection_5"/>
   <g id="FillBetweenPolyCollection_6"/>
   <g id="FillBetweenPolyCollection_7"/>
   <g id="line2d_11">
    <path d="M 69.560852 145.680966 
L 115.940073 72.25815 
L 208.698515 252.591515 
L 394.215398 289.639725 
" clip-path="url(#pf116939085)" style="fill: none; stroke: #4c02a1; stroke-width: 1.5; stroke-linecap: round"/>
   </g>
   <g id="line2d_12">
    <path d="M 69.560852 53.012326 
L 115.940073 92.94741 
L 208.698515 118.833042 
L 394.215398 120.468937 
" clip-path="url(#pf116939085)" style="fill: none; stroke: #7e03a8; stroke-width: 1.5; stroke-linecap: round"/>
   </g>
   <g id="line2d_13">
    <path d="M 69.560852 183.017863 
L 115.940073 163.194665 
L 208.698515 212.079057 
L 394.215398 275.590274 
" clip-path="url(#pf116939085)" style="fill: none; stroke: #aa2395; stroke-width: 1.5; stroke-linecap: round"/>
   </g>
   <g id="line2d_14">
    <path d="M 69.560852 144.718675 
L 115.940073 83.035811 
L 208.698515 120.565167 
L 394.215398 166.081539 
" clip-path="url(#pf116939085)" style="fill: none; stroke: #cc4778; stroke-width: 1.5; stroke-linecap: round"/>
   </g>
   <g id="line2d_15">
    <path d="M 69.560852 141.543114 
L 115.940073 129.610704 
L 208.698515 89.868078 
L 394.215398 96.989033 
" clip-path="url(#pf116939085)" style="fill: none; stroke: #e66c5c; stroke-width: 1.5; stroke-linecap: round"/>
   </g>
   <g id="line2d_16">
    <path d="M 69.560852 160.885167 
L 115.940073 169.834474 
L 208.698515 68.890131 
L 394.215398 47.719725 
" clip-path="url(#pf116939085)" style="fill: none; stroke: #f89540; stroke-width: 1.5; stroke-linecap: round"/>
   </g>
   <g id="line2d_17">
    <path d="M 69.560852 158.28698 
L 115.940073 166.370226 
L 208.698515 103.436384 
L 394.215398 131.727744 
" clip-path="url(#pf116939085)" style="fill: none; stroke: #fdc527; stroke-width: 1.5; stroke-linecap: round"/>
   </g>
   <g id="line2d_18"/>
   <g id="line2d_19"/>
   <g id="line2d_20"/>
   <g id="line2d_21"/>
   <g id="line2d_22"/>
   <g id="line2d_23"/>
   <g id="line2d_24"/>
   <g id="text_13">
    <path d="M 111.955194 82.179909 
L 112.815515 80.817938 
L 108.112683 77.847285 
L 107.473657 79.517222 
L 106.71407 79.037411 
L 107.34809 77.375401 
L 107.87463 76.541837 
L 113.337049 79.9923 
L 114.19737 78.630328 
L 114.898831 79.073423 
L 112.656656 82.623004 
L 111.955194 82.179909 
z
" clip-path="url(#pf116939085)" style="fill: #4c02a1; stroke: #ffffff; stroke-width: 5"/>
    <path d="M 111.955194 82.179909 
L 112.815515 80.817938 
L 108.112683 77.847285 
L 107.473657 79.517222 
L 106.71407 79.037411 
L 107.34809 77.375401 
L 107.87463 76.541837 
L 113.337049 79.9923 
L 114.19737 78.630328 
L 114.898831 79.073423 
L 112.656656 82.623004 
L 111.955194 82.179909 
z
" clip-path="url(#pf116939085)" style="fill: #4c02a1"/>
   </g>
   <g id="text_14">
    <path d="M 153.099519 99.505137 
L 149.654356 102.584616 
L 152.05332 103.254083 
L 153.099519 99.505137 
z
M 153.080685 98.607671 
L 154.275652 98.941144 
L 152.998457 103.517837 
L 154.000785 103.797552 
L 153.780289 104.587675 
L 152.777962 104.30796 
L 152.315971 105.963456 
L 151.370833 105.699701 
L 151.832824 104.044206 
L 148.663302 103.159703 
L 148.919077 102.24316 
L 153.080685 98.607671 
z
" clip-path="url(#pf116939085)" style="fill: #7e03a8; stroke: #ffffff; stroke-width: 5"/>
    <path d="M 153.099519 99.505137 
L 149.654356 102.584616 
L 152.05332 103.254083 
L 153.099519 99.505137 
z
M 153.080685 98.607671 
L 154.275652 98.941144 
L 152.998457 103.517837 
L 154.000785 103.797552 
L 153.780289 104.587675 
L 152.777962 104.30796 
L 152.315971 105.963456 
L 151.370833 105.699701 
L 151.832824 104.044206 
L 148.663302 103.159703 
L 148.919077 102.24316 
L 153.080685 98.607671 
z
" clip-path="url(#pf116939085)" style="fill: #7e03a8"/>
   </g>
   <g id="text_15">
    <path d="M 192.037175 202.503615 
Q 191.415145 202.1758 190.882951 202.320985 
Q 190.352139 202.466898 190.04545 203.048843 
Q 189.738032 203.632169 189.917718 204.15252 
Q 190.098786 204.673599 190.720817 205.001414 
Q 191.342847 205.329229 191.877152 205.18339 
Q 192.413568 205.036897 192.7188 204.457718 
Q 193.025489 203.875774 192.844421 203.354694 
Q 192.664735 202.834344 192.037175 202.503615 
z
M 191.360182 201.673492 
Q 190.87182 201.239501 190.760556 200.68986 
Q 190.651404 200.139565 190.942795 199.586649 
Q 191.350014 198.813948 192.136921 198.654638 
Q 192.92521 198.496056 193.883137 199.000891 
Q 194.846593 199.50864 195.158608 200.24709 
Q 195.470622 200.985539 195.063403 201.75824 
Q 194.772012 202.311156 194.254987 202.531451 
Q 193.740072 202.751092 193.110162 202.595744 
Q 193.663267 203.074453 193.788541 203.687996 
Q 193.915926 204.300885 193.591025 204.917387 
Q 193.096389 205.855962 192.259683 206.056144 
Q 191.423706 206.254944 190.356578 205.692559 
Q 189.290832 205.130903 188.98089 204.328196 
Q 188.673059 203.524835 189.167695 202.586259 
Q 189.492596 201.969758 190.071562 201.72912 
Q 190.652639 201.487829 191.360182 201.673492 
z
M 191.767165 200.12707 
Q 191.503456 200.627459 191.667973 201.0727 
Q 191.833872 201.518669 192.399229 201.816617 
Q 192.961821 202.113107 193.426246 201.999323 
Q 193.892054 201.886268 194.155763 201.385879 
Q 194.4202 200.884107 194.250154 200.435953 
Q 194.08149 199.988526 193.518898 199.692036 
Q 192.953541 199.394089 192.491881 199.509329 
Q 192.031602 199.625299 191.767165 200.12707 
z
" clip-path="url(#pf116939085)" style="fill: #aa2395; stroke: #ffffff; stroke-width: 5"/>
    <path d="M 192.037175 202.503615 
Q 191.415145 202.1758 190.882951 202.320985 
Q 190.352139 202.466898 190.04545 203.048843 
Q 189.738032 203.632169 189.917718 204.15252 
Q 190.098786 204.673599 190.720817 205.001414 
Q 191.342847 205.329229 191.877152 205.18339 
Q 192.413568 205.036897 192.7188 204.457718 
Q 193.025489 203.875774 192.844421 203.354694 
Q 192.664735 202.834344 192.037175 202.503615 
z
M 191.360182 201.673492 
Q 190.87182 201.239501 190.760556 200.68986 
Q 190.651404 200.139565 190.942795 199.586649 
Q 191.350014 198.813948 192.136921 198.654638 
Q 192.92521 198.496056 193.883137 199.000891 
Q 194.846593 199.50864 195.158608 200.24709 
Q 195.470622 200.985539 195.063403 201.75824 
Q 194.772012 202.311156 194.254987 202.531451 
Q 193.740072 202.751092 193.110162 202.595744 
Q 193.663267 203.074453 193.788541 203.687996 
Q 193.915926 204.300885 193.591025 204.917387 
Q 193.096389 205.855962 192.259683 206.056144 
Q 191.423706 206.254944 190.356578 205.692559 
Q 189.290832 205.130903 188.98089 204.328196 
Q 188.673059 203.524835 189.167695 202.586259 
Q 189.492596 201.969758 190.071562 201.72912 
Q 190.652639 201.487829 191.360182 201.673492 
z
M 191.767165 200.12707 
Q 191.503456 200.627459 191.667973 201.0727 
Q 191.833872 201.518669 192.399229 201.816617 
Q 192.961821 202.113107 193.426246 201.999323 
Q 193.892054 201.886268 194.155763 201.385879 
Q 194.4202 200.884107 194.250154 200.435953 
Q 194.08149 199.988526 193.518898 199.692036 
Q 192.953541 199.394089 192.491881 199.509329 
Q 192.031602 199.625299 191.767165 200.12707 
z
" clip-path="url(#pf116939085)" style="fill: #aa2395"/>
   </g>
   <g id="text_16">
    <path d="M 226.453971 126.908368 
L 228.018507 127.292225 
L 229.34395 121.889947 
L 227.557551 121.813645 
L 227.771632 120.941086 
L 229.548926 121.015154 
L 230.506465 121.250085 
L 228.96694 127.524922 
L 230.531477 127.908779 
L 230.333777 128.714569 
L 226.256271 127.714157 
L 226.453971 126.908368 
z
M 235.398954 125.800059 
Q 234.754019 125.641825 234.267819 125.990709 
Q 233.783509 126.338448 233.595118 127.1063 
Q 233.407843 127.8696 233.675093 128.406559 
Q 233.944233 128.942374 234.589168 129.100608 
Q 235.234102 129.258842 235.719157 128.908068 
Q 236.204584 128.555777 236.391859 127.792478 
Q 236.58025 127.024626 236.311883 126.492218 
Q 236.043889 125.958293 235.398954 125.800059 
z
M 238.037186 123.26345 
L 237.823104 124.136009 
Q 237.50364 123.877439 237.158373 123.697806 
Q 236.813479 123.516656 236.452315 123.428045 
Q 235.503882 123.195348 234.845992 123.712866 
Q 234.189619 124.230757 233.800712 125.50768 
Q 234.1812 125.163428 234.657049 125.046895 
Q 235.134416 124.930735 235.641259 125.055088 
Q 236.708057 125.316826 237.168216 126.1167 
Q 237.628747 126.915058 237.355467 128.028898 
Q 237.087772 129.119976 236.28088 129.621852 
Q 235.47436 130.12221 234.40301 129.859355 
Q 233.17384 129.55778 232.755188 128.457582 
Q 232.336909 127.355868 232.775496 125.56826 
Q 233.187277 123.889912 234.228945 123.086867 
Q 235.270613 122.283821 236.612078 122.612948 
Q 236.973241 122.701559 237.322976 122.862982 
Q 237.67271 123.024404 238.037186 123.26345 
z
" clip-path="url(#pf116939085)" style="fill: #cc4778; stroke: #ffffff; stroke-width: 5"/>
    <path d="M 226.453971 126.908368 
L 228.018507 127.292225 
L 229.34395 121.889947 
L 227.557551 121.813645 
L 227.771632 120.941086 
L 229.548926 121.015154 
L 230.506465 121.250085 
L 228.96694 127.524922 
L 230.531477 127.908779 
L 230.333777 128.714569 
L 226.256271 127.714157 
L 226.453971 126.908368 
z
M 235.398954 125.800059 
Q 234.754019 125.641825 234.267819 125.990709 
Q 233.783509 126.338448 233.595118 127.1063 
Q 233.407843 127.8696 233.675093 128.406559 
Q 233.944233 128.942374 234.589168 129.100608 
Q 235.234102 129.258842 235.719157 128.908068 
Q 236.204584 128.555777 236.391859 127.792478 
Q 236.58025 127.024626 236.311883 126.492218 
Q 236.043889 125.958293 235.398954 125.800059 
z
M 238.037186 123.26345 
L 237.823104 124.136009 
Q 237.50364 123.877439 237.158373 123.697806 
Q 236.813479 123.516656 236.452315 123.428045 
Q 235.503882 123.195348 234.845992 123.712866 
Q 234.189619 124.230757 233.800712 125.50768 
Q 234.1812 125.163428 234.657049 125.046895 
Q 235.134416 124.930735 235.641259 125.055088 
Q 236.708057 125.316826 237.168216 126.1167 
Q 237.628747 126.915058 237.355467 128.028898 
Q 237.087772 129.119976 236.28088 129.621852 
Q 235.47436 130.12221 234.40301 129.859355 
Q 233.17384 129.55778 232.755188 128.457582 
Q 232.336909 127.355868 232.775496 125.56826 
Q 233.187277 123.889912 234.228945 123.086867 
Q 235.270613 122.283821 236.612078 122.612948 
Q 236.973241 122.701559 237.322976 122.862982 
Q 237.67271 123.024404 238.037186 123.26345 
z
" clip-path="url(#pf116939085)" style="fill: #cc4778"/>
   </g>
   <g id="text_17">
    <path d="M 269.806082 91.040918 
Q 270.50756 91.219518 270.885744 91.714075 
Q 271.26555 92.20713 271.23858 92.909738 
Q 271.197228 93.98707 270.432872 94.550354 
Q 269.668577 95.112077 268.302395 95.059637 
Q 267.84492 95.042077 267.362816 94.93288 
Q 266.880712 94.823683 266.370857 94.622729 
L 266.407355 93.671867 
Q 266.80726 93.926455 267.289726 94.066939 
Q 267.773754 94.207483 268.306175 94.22792 
Q 269.232055 94.263459 269.731659 93.916742 
Q 270.231263 93.570025 270.258053 92.872101 
Q 270.282804 92.227263 269.845478 91.84771 
Q 269.408212 91.466595 268.604117 91.43573 
L 267.754742 91.403128 
L 267.785847 90.592787 
L 268.674255 90.626888 
Q 269.400283 90.654756 269.797083 90.379148 
Q 270.193884 90.10354 270.21486 89.557067 
Q 270.236376 88.996543 269.849738 88.681481 
Q 269.464722 88.364918 268.723081 88.33645 
Q 268.31713 88.320868 267.849992 88.392065 
Q 267.382915 88.461701 266.820003 88.624605 
L 266.853684 87.747126 
Q 267.421763 87.612567 267.915024 87.553318 
Q 268.408284 87.494069 268.84234 87.510729 
Q 269.964951 87.55382 270.597997 88.089433 
Q 271.232665 88.623545 271.199344 89.491655 
Q 271.17609 90.097459 270.813469 90.501035 
Q 270.450847 90.904611 269.806082 91.040918 
z
M 273.907252 94.302185 
L 277.346907 94.434214 
L 277.315083 95.263291 
L 272.690364 95.085774 
L 272.722188 94.256697 
Q 273.305007 93.69739 274.310561 92.757143 
Q 275.317737 91.815393 275.576899 91.540757 
Q 276.070365 91.028057 276.271871 90.66677 
Q 276.474938 90.305543 276.488602 89.949555 
Q 276.510897 89.368733 276.117408 88.987735 
Q 275.72398 88.605176 275.069774 88.580064 
Q 274.606053 88.562265 274.084634 88.703306 
Q 273.564777 88.844408 272.966685 89.149817 
L 273.004922 88.153676 
Q 273.608966 87.937623 274.130447 87.835675 
Q 274.65349 87.733787 275.082861 87.750268 
Q 276.21484 87.793719 276.866027 88.386319 
Q 277.517274 88.977358 277.480955 89.923537 
Q 277.463695 90.373205 277.279607 90.769561 
Q 277.09714 91.164416 276.631179 91.693808 
Q 276.50394 91.831216 275.823784 92.482169 
Q 275.145189 93.133182 273.907252 94.302185 
z
" clip-path="url(#pf116939085)" style="fill: #e66c5c; stroke: #ffffff; stroke-width: 5"/>
    <path d="M 269.806082 91.040918 
Q 270.50756 91.219518 270.885744 91.714075 
Q 271.26555 92.20713 271.23858 92.909738 
Q 271.197228 93.98707 270.432872 94.550354 
Q 269.668577 95.112077 268.302395 95.059637 
Q 267.84492 95.042077 267.362816 94.93288 
Q 266.880712 94.823683 266.370857 94.622729 
L 266.407355 93.671867 
Q 266.80726 93.926455 267.289726 94.066939 
Q 267.773754 94.207483 268.306175 94.22792 
Q 269.232055 94.263459 269.731659 93.916742 
Q 270.231263 93.570025 270.258053 92.872101 
Q 270.282804 92.227263 269.845478 91.84771 
Q 269.408212 91.466595 268.604117 91.43573 
L 267.754742 91.403128 
L 267.785847 90.592787 
L 268.674255 90.626888 
Q 269.400283 90.654756 269.797083 90.379148 
Q 270.193884 90.10354 270.21486 89.557067 
Q 270.236376 88.996543 269.849738 88.681481 
Q 269.464722 88.364918 268.723081 88.33645 
Q 268.31713 88.320868 267.849992 88.392065 
Q 267.382915 88.461701 266.820003 88.624605 
L 266.853684 87.747126 
Q 267.421763 87.612567 267.915024 87.553318 
Q 268.408284 87.494069 268.84234 87.510729 
Q 269.964951 87.55382 270.597997 88.089433 
Q 271.232665 88.623545 271.199344 89.491655 
Q 271.17609 90.097459 270.813469 90.501035 
Q 270.450847 90.904611 269.806082 91.040918 
z
M 273.907252 94.302185 
L 277.346907 94.434214 
L 277.315083 95.263291 
L 272.690364 95.085774 
L 272.722188 94.256697 
Q 273.305007 93.69739 274.310561 92.757143 
Q 275.317737 91.815393 275.576899 91.540757 
Q 276.070365 91.028057 276.271871 90.66677 
Q 276.474938 90.305543 276.488602 89.949555 
Q 276.510897 89.368733 276.117408 88.987735 
Q 275.72398 88.605176 275.069774 88.580064 
Q 274.606053 88.562265 274.084634 88.703306 
Q 273.564777 88.844408 272.966685 89.149817 
L 273.004922 88.153676 
Q 273.608966 87.937623 274.130447 87.835675 
Q 274.65349 87.733787 275.082861 87.750268 
Q 276.21484 87.793719 276.866027 88.386319 
Q 277.517274 88.977358 277.480955 89.923537 
Q 277.463695 90.373205 277.279607 90.769561 
Q 277.09714 91.164416 276.631179 91.693808 
Q 276.50394 91.831216 275.823784 92.482169 
Q 275.145189 93.133182 273.907252 94.302185 
z
" clip-path="url(#pf116939085)" style="fill: #e66c5c"/>
   </g>
   <g id="text_18">
    <path d="M 309.054012 56.151564 
Q 308.394231 56.226855 308.05923 56.722722 
Q 307.725604 57.21686 307.815245 58.002387 
Q 307.904354 58.783257 308.341262 59.194182 
Q 308.779546 59.603378 309.439326 59.528087 
Q 310.099107 59.452796 310.432378 58.955553 
Q 310.765473 58.456758 310.676363 57.675888 
Q 310.586722 56.890362 310.150346 56.484093 
Q 309.713792 56.076272 309.054012 56.151564 
z
M 310.648608 52.857339 
L 310.750472 53.749983 
Q 310.361154 53.618275 309.975015 53.569553 
Q 309.588699 53.51928 309.219222 53.561443 
Q 308.248956 53.672165 307.811416 54.38575 
Q 307.375428 55.099158 307.453579 56.431702 
Q 307.691038 55.976846 308.096925 55.702495 
Q 308.504363 55.427967 309.022873 55.368797 
Q 310.114228 55.244256 310.823263 55.834861 
Q 311.53212 56.423915 311.662153 57.563394 
Q 311.789528 58.679587 311.206811 59.430183 
Q 310.623916 60.179227 309.527904 60.304299 
Q 308.27044 60.447796 307.496166 59.561115 
Q 306.721714 58.672883 306.513024 56.844126 
Q 306.31709 55.127145 307.015544 54.012643 
Q 307.713998 52.89814 309.086341 52.741534 
Q 309.455818 52.699371 309.839831 52.729463 
Q 310.223844 52.759555 310.648608 52.857339 
z
M 315.578929 52.997682 
L 313.54566 57.147158 
L 316.020225 56.864771 
L 315.578929 52.997682 
z
M 315.223791 52.173256 
L 316.456416 52.032594 
L 316.995148 56.753517 
L 318.029062 56.635531 
L 318.122069 57.450554 
L 317.088155 57.56854 
L 317.283026 59.276207 
L 316.308104 59.387461 
L 316.113232 57.679794 
L 312.843826 58.052885 
L 312.735938 57.107458 
L 315.223791 52.173256 
z
" clip-path="url(#pf116939085)" style="fill: #f89540; stroke: #ffffff; stroke-width: 5"/>
    <path d="M 309.054012 56.151564 
Q 308.394231 56.226855 308.05923 56.722722 
Q 307.725604 57.21686 307.815245 58.002387 
Q 307.904354 58.783257 308.341262 59.194182 
Q 308.779546 59.603378 309.439326 59.528087 
Q 310.099107 59.452796 310.432378 58.955553 
Q 310.765473 58.456758 310.676363 57.675888 
Q 310.586722 56.890362 310.150346 56.484093 
Q 309.713792 56.076272 309.054012 56.151564 
z
M 310.648608 52.857339 
L 310.750472 53.749983 
Q 310.361154 53.618275 309.975015 53.569553 
Q 309.588699 53.51928 309.219222 53.561443 
Q 308.248956 53.672165 307.811416 54.38575 
Q 307.375428 55.099158 307.453579 56.431702 
Q 307.691038 55.976846 308.096925 55.702495 
Q 308.504363 55.427967 309.022873 55.368797 
Q 310.114228 55.244256 310.823263 55.834861 
Q 311.53212 56.423915 311.662153 57.563394 
Q 311.789528 58.679587 311.206811 59.430183 
Q 310.623916 60.179227 309.527904 60.304299 
Q 308.27044 60.447796 307.496166 59.561115 
Q 306.721714 58.672883 306.513024 56.844126 
Q 306.31709 55.127145 307.015544 54.012643 
Q 307.713998 52.89814 309.086341 52.741534 
Q 309.455818 52.699371 309.839831 52.729463 
Q 310.223844 52.759555 310.648608 52.857339 
z
M 315.578929 52.997682 
L 313.54566 57.147158 
L 316.020225 56.864771 
L 315.578929 52.997682 
z
M 315.223791 52.173256 
L 316.456416 52.032594 
L 316.995148 56.753517 
L 318.029062 56.635531 
L 318.122069 57.450554 
L 317.088155 57.56854 
L 317.283026 59.276207 
L 316.308104 59.387461 
L 316.113232 57.679794 
L 312.843826 58.052885 
L 312.735938 57.107458 
L 315.223791 52.173256 
z
" clip-path="url(#pf116939085)" style="fill: #f89540"/>
   </g>
   <g id="text_19">
    <path d="M 343.916984 126.009223 
L 345.509509 126.252084 
L 346.348097 120.753159 
L 344.562008 120.836407 
L 344.697454 119.948238 
L 346.474275 119.863576 
L 347.448944 120.012214 
L 346.474911 126.399308 
L 348.067436 126.642168 
L 347.942355 127.462373 
L 343.791902 126.829428 
L 343.916984 126.009223 
z
M 350.876947 127.070619 
L 354.279793 127.589554 
L 354.154712 128.409759 
L 349.579482 127.712035 
L 349.704564 126.891831 
Q 350.346718 126.401789 351.451855 125.580889 
Q 352.558773 124.758681 352.847242 124.51501 
Q 353.395359 124.061205 353.636307 123.724937 
Q 353.878801 123.388904 353.932508 123.036726 
Q 354.020136 122.462119 353.672105 122.039192 
Q 353.32431 121.61472 352.677105 121.516022 
Q 352.218346 121.446061 351.684352 121.527425 
Q 351.151902 121.609024 350.523194 121.845065 
L 350.67348 120.859583 
Q 351.298029 120.713001 351.827679 120.670488 
Q 352.358874 120.628211 352.78365 120.69299 
Q 353.903516 120.86377 354.483749 121.526 
Q 355.064217 122.186686 354.921469 123.122739 
Q 354.853628 123.567596 354.626033 123.940673 
Q 354.400218 124.312442 353.877549 124.785932 
Q 353.735632 124.908121 352.98643 125.478252 
Q 352.238773 126.048619 350.876947 127.070619 
z
M 358.808433 125.616921 
Q 358.113344 125.51092 357.658057 125.822405 
Q 357.204314 126.134125 357.105144 126.784419 
Q 357.005739 127.436258 357.345942 127.869055 
Q 357.68769 128.302088 358.382779 128.408089 
Q 359.077868 128.51409 359.534935 128.201296 
Q 359.993783 127.887194 360.092482 127.239989 
Q 360.191651 126.589694 359.849903 126.156662 
Q 359.5097 125.723864 358.808433 125.616921 
z
M 357.896893 125.05432 
Q 357.293324 124.804219 357.008176 124.321337 
Q 356.724807 123.837146 356.819031 123.219289 
Q 356.950708 122.355834 357.642032 121.947578 
Q 358.3349 121.539557 359.405337 121.702798 
Q 360.481952 121.866983 361.018619 122.462508 
Q 361.555285 123.058033 361.423608 123.921488 
Q 361.329385 124.539345 360.91303 124.916828 
Q 360.498456 125.293002 359.85241 125.352536 
Q 360.531797 125.623683 360.851113 126.162354 
Q 361.172209 126.699715 361.067151 127.388626 
Q 360.907207 128.437438 360.182217 128.900622 
Q 359.457463 129.362261 358.265 129.18041 
Q 357.074081 128.998795 356.518327 128.341878 
Q 355.964352 127.683651 356.124296 126.63484 
Q 356.229355 125.945929 356.697571 125.528938 
Q 357.167567 125.110637 357.896893 125.05432 
z
M 357.774932 123.459898 
Q 357.68966 124.019058 357.990931 124.385857 
Q 358.293746 124.752891 358.925505 124.849234 
Q 359.554174 124.945106 359.955716 124.685487 
Q 360.358801 124.426103 360.444074 123.866942 
Q 360.529581 123.306237 360.222132 122.938497 
Q 359.916227 122.570992 359.287558 122.475119 
Q 358.655799 122.378776 358.257347 122.638867 
Q 357.86044 122.899193 357.774932 123.459898 
z
" clip-path="url(#pf116939085)" style="fill: #fdc527; stroke: #ffffff; stroke-width: 5"/>
    <path d="M 343.916984 126.009223 
L 345.509509 126.252084 
L 346.348097 120.753159 
L 344.562008 120.836407 
L 344.697454 119.948238 
L 346.474275 119.863576 
L 347.448944 120.012214 
L 346.474911 126.399308 
L 348.067436 126.642168 
L 347.942355 127.462373 
L 343.791902 126.829428 
L 343.916984 126.009223 
z
M 350.876947 127.070619 
L 354.279793 127.589554 
L 354.154712 128.409759 
L 349.579482 127.712035 
L 349.704564 126.891831 
Q 350.346718 126.401789 351.451855 125.580889 
Q 352.558773 124.758681 352.847242 124.51501 
Q 353.395359 124.061205 353.636307 123.724937 
Q 353.878801 123.388904 353.932508 123.036726 
Q 354.020136 122.462119 353.672105 122.039192 
Q 353.32431 121.61472 352.677105 121.516022 
Q 352.218346 121.446061 351.684352 121.527425 
Q 351.151902 121.609024 350.523194 121.845065 
L 350.67348 120.859583 
Q 351.298029 120.713001 351.827679 120.670488 
Q 352.358874 120.628211 352.78365 120.69299 
Q 353.903516 120.86377 354.483749 121.526 
Q 355.064217 122.186686 354.921469 123.122739 
Q 354.853628 123.567596 354.626033 123.940673 
Q 354.400218 124.312442 353.877549 124.785932 
Q 353.735632 124.908121 352.98643 125.478252 
Q 352.238773 126.048619 350.876947 127.070619 
z
M 358.808433 125.616921 
Q 358.113344 125.51092 357.658057 125.822405 
Q 357.204314 126.134125 357.105144 126.784419 
Q 357.005739 127.436258 357.345942 127.869055 
Q 357.68769 128.302088 358.382779 128.408089 
Q 359.077868 128.51409 359.534935 128.201296 
Q 359.993783 127.887194 360.092482 127.239989 
Q 360.191651 126.589694 359.849903 126.156662 
Q 359.5097 125.723864 358.808433 125.616921 
z
M 357.896893 125.05432 
Q 357.293324 124.804219 357.008176 124.321337 
Q 356.724807 123.837146 356.819031 123.219289 
Q 356.950708 122.355834 357.642032 121.947578 
Q 358.3349 121.539557 359.405337 121.702798 
Q 360.481952 121.866983 361.018619 122.462508 
Q 361.555285 123.058033 361.423608 123.921488 
Q 361.329385 124.539345 360.91303 124.916828 
Q 360.498456 125.293002 359.85241 125.352536 
Q 360.531797 125.623683 360.851113 126.162354 
Q 361.172209 126.699715 361.067151 127.388626 
Q 360.907207 128.437438 360.182217 128.900622 
Q 359.457463 129.362261 358.265 129.18041 
Q 357.074081 128.998795 356.518327 128.341878 
Q 355.964352 127.683651 356.124296 126.63484 
Q 356.229355 125.945929 356.697571 125.528938 
Q 357.167567 125.110637 357.896893 125.05432 
z
M 357.774932 123.459898 
Q 357.68966 124.019058 357.990931 124.385857 
Q 358.293746 124.752891 358.925505 124.849234 
Q 359.554174 124.945106 359.955716 124.685487 
Q 360.358801 124.426103 360.444074 123.866942 
Q 360.529581 123.306237 360.222132 122.938497 
Q 359.916227 122.570992 359.287558 122.475119 
Q 358.655799 122.378776 358.257347 122.638867 
Q 357.86044 122.899193 357.774932 123.459898 
z
" clip-path="url(#pf116939085)" style="fill: #fdc527"/>
   </g>
   <g id="patch_3">
    <path d="M 53.328125 301.735725 
L 53.328125 35.623725 
" style="fill: none; stroke: #cccccc; stroke-width: 0.8; stroke-linejoin: miter; stroke-linecap: square"/>
   </g>
   <g id="patch_4">
    <path d="M 410.448125 301.735725 
L 410.448125 35.623725 
" style="fill: none; stroke: #cccccc; stroke-width: 0.8; stroke-linejoin: miter; stroke-linecap: square"/>
   </g>
   <g id="patch_5">
    <path d="M 53.328125 301.735725 
L 410.448125 301.735725 
" style="fill: none; stroke: #cccccc; stroke-width: 0.8; stroke-linejoin: miter; stroke-linecap: square"/>
   </g>
   <g id="patch_6">
    <path d="M 53.328125 35.623725 
L 410.448125 35.623725 
" style="fill: none; stroke: #cccccc; stroke-width: 0.8; stroke-linejoin: miter; stroke-linecap: square"/>
   </g>
   <g id="text_20">
    <!-- Block Size = 1M, Read-Write Type = Random Write-heavy 1:4 -->
    <g style="fill: #262626; opacity: 0.75" transform="translate(78.506875 30.882918) scale(0.1 -0.1)">
     <defs>
      <path id="DejaVuSans-42" d="M 1259 2228 
L 1259 519 
L 2272 519 
Q 2781 519 3026 730 
Q 3272 941 3272 1375 
Q 3272 1813 3026 2020 
Q 2781 2228 2272 2228 
L 1259 2228 
z
M 1259 4147 
L 1259 2741 
L 2194 2741 
Q 2656 2741 2882 2914 
Q 3109 3088 3109 3444 
Q 3109 3797 2882 3972 
Q 2656 4147 2194 4147 
L 1259 4147 
z
M 628 4666 
L 2241 4666 
Q 2963 4666 3353 4366 
Q 3744 4066 3744 3513 
Q 3744 3084 3544 2831 
Q 3344 2578 2956 2516 
Q 3422 2416 3680 2098 
Q 3938 1781 3938 1306 
Q 3938 681 3513 340 
Q 3088 0 2303 0 
L 628 0 
L 628 4666 
z
" transform="scale(0.015625)"/>
      <path id="DejaVuSans-6c" d="M 603 4863 
L 1178 4863 
L 1178 0 
L 603 0 
L 603 4863 
z
" transform="scale(0.015625)"/>
      <path id="DejaVuSans-63" d="M 3122 3366 
L 3122 2828 
Q 2878 2963 2633 3030 
Q 2388 3097 2138 3097 
Q 1578 3097 1268 2742 
Q 959 2388 959 1747 
Q 959 1106 1268 751 
Q 1578 397 2138 397 
Q 2388 397 2633 464 
Q 2878 531 3122 666 
L 3122 134 
Q 2881 22 2623 -34 
Q 2366 -91 2075 -91 
Q 1284 -91 818 406 
Q 353 903 353 1747 
Q 353 2603 823 3093 
Q 1294 3584 2113 3584 
Q 2378 3584 2631 3529 
Q 2884 3475 3122 3366 
z
" transform="scale(0.015625)"/>
      <path id="DejaVuSans-6b" d="M 581 4863 
L 1159 4863 
L 1159 1991 
L 2875 3500 
L 3609 3500 
L 1753 1863 
L 3688 0 
L 2938 0 
L 1159 1709 
L 1159 0 
L 581 0 
L 581 4863 
z
" transform="scale(0.015625)"/>
      <path id="DejaVuSans-69" d="M 603 3500 
L 1178 3500 
L 1178 0 
L 603 0 
L 603 3500 
z
M 603 4863 
L 1178 4863 
L 1178 4134 
L 603 4134 
L 603 4863 
z
" transform="scale(0.015625)"/>
      <path id="DejaVuSans-7a" d="M 353 3500 
L 3084 3500 
L 3084 2975 
L 922 459 
L 3084 459 
L 3084 0 
L 275 0 
L 275 525 
L 2438 3041 
L 353 3041 
L 353 3500 
z
" transform="scale(0.015625)"/>
      <path id="DejaVuSans-3d" d="M 678 2906 
L 4684 2906 
L 4684 2381 
L 678 2381 
L 678 2906 
z
M 678 1631 
L 4684 1631 
L 4684 1100 
L 678 1100 
L 678 1631 
z
" transform="scale(0.015625)"/>
      <path id="DejaVuSans-4d" d="M 628 4666 
L 1569 4666 
L 2759 1491 
L 3956 4666 
L 4897 4666 
L 4897 0 
L 4281 0 
L 4281 4097 
L 3078 897 
L 2444 897 
L 1241 4097 
L 1241 0 
L 628 0 
L 628 4666 
z
" transform="scale(0.015625)"/>
      <path id="DejaVuSans-2c" d="M 750 794 
L 1409 794 
L 1409 256 
L 897 -744 
L 494 -744 
L 750 256 
L 750 794 
z
" transform="scale(0.015625)"/>
      <path id="DejaVuSans-52" d="M 2841 2188 
Q 3044 2119 3236 1894 
Q 3428 1669 3622 1275 
L 4263 0 
L 3584 0 
L 2988 1197 
Q 2756 1666 2539 1819 
Q 2322 1972 1947 1972 
L 1259 1972 
L 1259 0 
L 628 0 
L 628 4666 
L 2053 4666 
Q 2853 4666 3247 4331 
Q 3641 3997 3641 3322 
Q 3641 2881 3436 2590 
Q 3231 2300 2841 2188 
z
M 1259 4147 
L 1259 2491 
L 2053 2491 
Q 2509 2491 2742 2702 
Q 2975 2913 2975 3322 
Q 2975 3731 2742 3939 
Q 2509 4147 2053 4147 
L 1259 4147 
z
" transform="scale(0.015625)"/>
      <path id="DejaVuSans-61" d="M 2194 1759 
Q 1497 1759 1228 1600 
Q 959 1441 959 1056 
Q 959 750 1161 570 
Q 1363 391 1709 391 
Q 2188 391 2477 730 
Q 2766 1069 2766 1631 
L 2766 1759 
L 2194 1759 
z
M 3341 1997 
L 3341 0 
L 2766 0 
L 2766 531 
Q 2569 213 2275 61 
Q 1981 -91 1556 -91 
Q 1019 -91 701 211 
Q 384 513 384 1019 
Q 384 1609 779 1909 
Q 1175 2209 1959 2209 
L 2766 2209 
L 2766 2266 
Q 2766 2663 2505 2880 
Q 2244 3097 1772 3097 
Q 1472 3097 1187 3025 
Q 903 2953 641 2809 
L 641 3341 
Q 956 3463 1253 3523 
Q 1550 3584 1831 3584 
Q 2591 3584 2966 3190 
Q 3341 2797 3341 1997 
z
" transform="scale(0.015625)"/>
      <path id="DejaVuSans-64" d="M 2906 2969 
L 2906 4863 
L 3481 4863 
L 3481 0 
L 2906 0 
L 2906 525 
Q 2725 213 2448 61 
Q 2172 -91 1784 -91 
Q 1150 -91 751 415 
Q 353 922 353 1747 
Q 353 2572 751 3078 
Q 1150 3584 1784 3584 
Q 2172 3584 2448 3432 
Q 2725 3281 2906 2969 
z
M 947 1747 
Q 947 1113 1208 752 
Q 1469 391 1925 391 
Q 2381 391 2643 752 
Q 2906 1113 2906 1747 
Q 2906 2381 2643 2742 
Q 2381 3103 1925 3103 
Q 1469 3103 1208 2742 
Q 947 2381 947 1747 
z
" transform="scale(0.015625)"/>
      <path id="DejaVuSans-2d" d="M 313 2009 
L 1997 2009 
L 1997 1497 
L 313 1497 
L 313 2009 
z
" transform="scale(0.015625)"/>
      <path id="DejaVuSans-57" d="M 213 4666 
L 850 4666 
L 1831 722 
L 2809 4666 
L 3519 4666 
L 4500 722 
L 5478 4666 
L 6119 4666 
L 4947 0 
L 4153 0 
L 3169 4050 
L 2175 0 
L 1381 0 
L 213 4666 
z
" transform="scale(0.015625)"/>
      <path id="DejaVuSans-74" d="M 1172 4494 
L 1172 3500 
L 2356 3500 
L 2356 3053 
L 1172 3053 
L 1172 1153 
Q 1172 725 1289 603 
Q 1406 481 1766 481 
L 2356 481 
L 2356 0 
L 1766 0 
Q 1100 0 847 248 
Q 594 497 594 1153 
L 594 3053 
L 172 3053 
L 172 3500 
L 594 3500 
L 594 4494 
L 1172 4494 
z
" transform="scale(0.015625)"/>
      <path id="DejaVuSans-54" d="M -19 4666 
L 3928 4666 
L 3928 4134 
L 2272 4134 
L 2272 0 
L 1638 0 
L 1638 4134 
L -19 4134 
L -19 4666 
z
" transform="scale(0.015625)"/>
      <path id="DejaVuSans-79" d="M 2059 -325 
Q 1816 -950 1584 -1140 
Q 1353 -1331 966 -1331 
L 506 -1331 
L 506 -850 
L 844 -850 
Q 1081 -850 1212 -737 
Q 1344 -625 1503 -206 
L 1606 56 
L 191 3500 
L 800 3500 
L 1894 763 
L 2988 3500 
L 3597 3500 
L 2059 -325 
z
" transform="scale(0.015625)"/>
      <path id="DejaVuSans-70" d="M 1159 525 
L 1159 -1331 
L 581 -1331 
L 581 3500 
L 1159 3500 
L 1159 2969 
Q 1341 3281 1617 3432 
Q 1894 3584 2278 3584 
Q 2916 3584 3314 3078 
Q 3713 2572 3713 1747 
Q 3713 922 3314 415 
Q 2916 -91 2278 -91 
Q 1894 -91 1617 61 
Q 1341 213 1159 525 
z
M 3116 1747 
Q 3116 2381 2855 2742 
Q 2594 3103 2138 3103 
Q 1681 3103 1420 2742 
Q 1159 2381 1159 1747 
Q 1159 1113 1420 752 
Q 1681 391 2138 391 
Q 2594 391 2855 752 
Q 3116 1113 3116 1747 
z
" transform="scale(0.015625)"/>
      <path id="DejaVuSans-6e" d="M 3513 2113 
L 3513 0 
L 2938 0 
L 2938 2094 
Q 2938 2591 2744 2837 
Q 2550 3084 2163 3084 
Q 1697 3084 1428 2787 
Q 1159 2491 1159 1978 
L 1159 0 
L 581 0 
L 581 3500 
L 1159 3500 
L 1159 2956 
Q 1366 3272 1645 3428 
Q 1925 3584 2291 3584 
Q 2894 3584 3203 3211 
Q 3513 2838 3513 2113 
z
" transform="scale(0.015625)"/>
      <path id="DejaVuSans-68" d="M 3513 2113 
L 3513 0 
L 2938 0 
L 2938 2094 
Q 2938 2591 2744 2837 
Q 2550 3084 2163 3084 
Q 1697 3084 1428 2787 
Q 1159 2491 1159 1978 
L 1159 0 
L 581 0 
L 581 4863 
L 1159 4863 
L 1159 2956 
Q 1366 3272 1645 3428 
Q 1925 3584 2291 3584 
Q 2894 3584 3203 3211 
Q 3513 2838 3513 2113 
z
" transform="scale(0.015625)"/>
      <path id="DejaVuSans-76" d="M 191 3500 
L 800 3500 
L 1894 563 
L 2988 3500 
L 3597 3500 
L 2284 0 
L 1503 0 
L 191 3500 
z
" transform="scale(0.015625)"/>
      <path id="DejaVuSans-3a" d="M 750 794 
L 1409 794 
L 1409 0 
L 750 0 
L 750 794 
z
M 750 3309 
L 1409 3309 
L 1409 2516 
L 750 2516 
L 750 3309 
z
" transform="scale(0.015625)"/>
     </defs>
     <use xlink:href="#DejaVuSans-42"/>
     <use xlink:href="#DejaVuSans-6c" transform="translate(68.603516 0)"/>
     <use xlink:href="#DejaVuSans-6f" transform="translate(96.386719 0)"/>
     <use xlink:href="#DejaVuSans-63" transform="translate(157.568359 0)"/>
     <use xlink:href="#DejaVuSans-6b" transform="translate(212.548828 0)"/>
     <use xlink:href="#DejaVuSans-20" transform="translate(270.458984 0)"/>
     <use xlink:href="#DejaVuSans-53" transform="translate(302.246094 0)"/>
     <use xlink:href="#DejaVuSans-69" transform="translate(365.722656 0)"/>
     <use xlink:href="#DejaVuSans-7a" transform="translate(393.505859 0)"/>
     <use xlink:href="#DejaVuSans-65" transform="translate(445.996094 0)"/>
     <use xlink:href="#DejaVuSans-20" transform="translate(507.519531 0)"/>
     <use xlink:href="#DejaVuSans-3d" transform="translate(539.306641 0)"/>
     <use xlink:href="#DejaVuSans-20" transform="translate(623.095703 0)"/>
     <use xlink:href="#DejaVuSans-31" transform="translate(654.882812 0)"/>
     <use xlink:href="#DejaVuSans-4d" transform="translate(718.505859 0)"/>
     <use xlink:href="#DejaVuSans-2c" transform="translate(804.785156 0)"/>
     <use xlink:href="#DejaVuSans-20" transform="translate(836.572266 0)"/>
     <use xlink:href="#DejaVuSans-52" transform="translate(868.359375 0)"/>
     <use xlink:href="#DejaVuSans-65" transform="translate(933.341797 0)"/>
     <use xlink:href="#DejaVuSans-61" transform="translate(994.865234 0)"/>
     <use xlink:href="#DejaVuSans-64" transform="translate(1056.144531 0)"/>
     <use xlink:href="#DejaVuSans-2d" transform="translate(1119.621094 0)"/>
     <use xlink:href="#DejaVuSans-57" transform="translate(1151.705078 0)"/>
     <use xlink:href="#DejaVuSans-72" transform="translate(1246.082031 0)"/>
     <use xlink:href="#DejaVuSans-69" transform="translate(1287.195312 0)"/>
     <use xlink:href="#DejaVuSans-74" transform="translate(1314.978516 0)"/>
     <use xlink:href="#DejaVuSans-65" transform="translate(1354.1875 0)"/>
     <use xlink:href="#DejaVuSans-20" transform="translate(1415.710938 0)"/>
     <use xlink:href="#DejaVuSans-54" transform="translate(1447.498047 0)"/>
     <use xlink:href="#DejaVuSans-79" transform="translate(1492.957031 0)"/>
     <use xlink:href="#DejaVuSans-70" transform="translate(1552.136719 0)"/>
     <use xlink:href="#DejaVuSans-65" transform="translate(1615.613281 0)"/>
     <use xlink:href="#DejaVuSans-20" transform="translate(1677.136719 0)"/>
     <use xlink:href="#DejaVuSans-3d" transform="translate(1708.923828 0)"/>
     <use xlink:href="#DejaVuSans-20" transform="translate(1792.712891 0)"/>
     <use xlink:href="#DejaVuSans-52" transform="translate(1824.5 0)"/>
     <use xlink:href="#DejaVuSans-61" transform="translate(1891.732422 0)"/>
     <use xlink:href="#DejaVuSans-6e" transform="translate(1953.011719 0)"/>
     <use xlink:href="#DejaVuSans-64" transform="translate(2016.390625 0)"/>
     <use xlink:href="#DejaVuSans-6f" transform="translate(2079.867188 0)"/>
     <use xlink:href="#DejaVuSans-6d" transform="translate(2141.048828 0)"/>
     <use xlink:href="#DejaVuSans-20" transform="translate(2238.460938 0)"/>
     <use xlink:href="#DejaVuSans-57" transform="translate(2270.248047 0)"/>
     <use xlink:href="#DejaVuSans-72" transform="translate(2364.625 0)"/>
     <use xlink:href="#DejaVuSans-69" transform="translate(2405.738281 0)"/>
     <use xlink:href="#DejaVuSans-74" transform="translate(2433.521484 0)"/>
     <use xlink:href="#DejaVuSans-65" transform="translate(2472.730469 0)"/>
     <use xlink:href="#DejaVuSans-2d" transform="translate(2534.253906 0)"/>
     <use xlink:href="#DejaVuSans-68" transform="translate(2570.337891 0)"/>
     <use xlink:href="#DejaVuSans-65" transform="translate(2633.716797 0)"/>
     <use xlink:href="#DejaVuSans-61" transform="translate(2695.240234 0)"/>
     <use xlink:href="#DejaVuSans-76" transform="translate(2756.519531 0)"/>
     <use xlink:href="#DejaVuSans-79" transform="translate(2815.699219 0)"/>
     <use xlink:href="#DejaVuSans-20" transform="translate(2874.878906 0)"/>
     <use xlink:href="#DejaVuSans-31" transform="translate(2906.666016 0)"/>
     <use xlink:href="#DejaVuSans-3a" transform="translate(2970.289062 0)"/>
     <use xlink:href="#DejaVuSans-34" transform="translate(3003.980469 0)"/>
    </g>
   </g>
   <g id="text_21">
    <!-- IOPS vs Number of Jobs -->
    <g style="fill: #262626" transform="translate(152.179062 16.318125) scale(0.12 -0.12)">
     <defs>
      <path id="DejaVuSans-Bold-49" d="M 588 4666 
L 1791 4666 
L 1791 0 
L 588 0 
L 588 4666 
z
" transform="scale(0.015625)"/>
      <path id="DejaVuSans-Bold-4f" d="M 2719 3878 
Q 2169 3878 1866 3472 
Q 1563 3066 1563 2328 
Q 1563 1594 1866 1187 
Q 2169 781 2719 781 
Q 3272 781 3575 1187 
Q 3878 1594 3878 2328 
Q 3878 3066 3575 3472 
Q 3272 3878 2719 3878 
z
M 2719 4750 
Q 3844 4750 4481 4106 
Q 5119 3463 5119 2328 
Q 5119 1197 4481 553 
Q 3844 -91 2719 -91 
Q 1597 -91 958 553 
Q 319 1197 319 2328 
Q 319 3463 958 4106 
Q 1597 4750 2719 4750 
z
" transform="scale(0.015625)"/>
      <path id="DejaVuSans-Bold-50" d="M 588 4666 
L 2584 4666 
Q 3475 4666 3951 4270 
Q 4428 3875 4428 3144 
Q 4428 2409 3951 2014 
Q 3475 1619 2584 1619 
L 1791 1619 
L 1791 0 
L 588 0 
L 588 4666 
z
M 1791 3794 
L 1791 2491 
L 2456 2491 
Q 2806 2491 2997 2661 
Q 3188 2831 3188 3144 
Q 3188 3456 2997 3625 
Q 2806 3794 2456 3794 
L 1791 3794 
z
" transform="scale(0.015625)"/>
      <path id="DejaVuSans-Bold-53" d="M 3834 4519 
L 3834 3531 
Q 3450 3703 3084 3790 
Q 2719 3878 2394 3878 
Q 1963 3878 1756 3759 
Q 1550 3641 1550 3391 
Q 1550 3203 1689 3098 
Q 1828 2994 2194 2919 
L 2706 2816 
Q 3484 2659 3812 2340 
Q 4141 2022 4141 1434 
Q 4141 663 3683 286 
Q 3225 -91 2284 -91 
Q 1841 -91 1394 -6 
Q 947 78 500 244 
L 500 1259 
Q 947 1022 1364 901 
Q 1781 781 2169 781 
Q 2563 781 2772 912 
Q 2981 1044 2981 1288 
Q 2981 1506 2839 1625 
Q 2697 1744 2272 1838 
L 1806 1941 
Q 1106 2091 782 2419 
Q 459 2747 459 3303 
Q 459 4000 909 4375 
Q 1359 4750 2203 4750 
Q 2588 4750 2994 4692 
Q 3400 4634 3834 4519 
z
" transform="scale(0.015625)"/>
      <path id="DejaVuSans-Bold-20" transform="scale(0.015625)"/>
      <path id="DejaVuSans-Bold-76" d="M 97 3500 
L 1216 3500 
L 2088 1081 
L 2956 3500 
L 4078 3500 
L 2700 0 
L 1472 0 
L 97 3500 
z
" transform="scale(0.015625)"/>
      <path id="DejaVuSans-Bold-73" d="M 3272 3391 
L 3272 2541 
Q 2913 2691 2578 2766 
Q 2244 2841 1947 2841 
Q 1628 2841 1473 2761 
Q 1319 2681 1319 2516 
Q 1319 2381 1436 2309 
Q 1553 2238 1856 2203 
L 2053 2175 
Q 2913 2066 3209 1816 
Q 3506 1566 3506 1031 
Q 3506 472 3093 190 
Q 2681 -91 1863 -91 
Q 1516 -91 1145 -36 
Q 775 19 384 128 
L 384 978 
Q 719 816 1070 734 
Q 1422 653 1784 653 
Q 2113 653 2278 743 
Q 2444 834 2444 1013 
Q 2444 1163 2330 1236 
Q 2216 1309 1875 1350 
L 1678 1375 
Q 931 1469 631 1722 
Q 331 1975 331 2491 
Q 331 3047 712 3315 
Q 1094 3584 1881 3584 
Q 2191 3584 2531 3537 
Q 2872 3491 3272 3391 
z
" transform="scale(0.015625)"/>
      <path id="DejaVuSans-Bold-4e" d="M 588 4666 
L 1931 4666 
L 3628 1466 
L 3628 4666 
L 4769 4666 
L 4769 0 
L 3425 0 
L 1728 3200 
L 1728 0 
L 588 0 
L 588 4666 
z
" transform="scale(0.015625)"/>
      <path id="DejaVuSans-Bold-75" d="M 500 1363 
L 500 3500 
L 1625 3500 
L 1625 3150 
Q 1625 2866 1622 2436 
Q 1619 2006 1619 1863 
Q 1619 1441 1641 1255 
Q 1663 1069 1716 984 
Q 1784 875 1895 815 
Q 2006 756 2150 756 
Q 2500 756 2700 1025 
Q 2900 1294 2900 1772 
L 2900 3500 
L 4019 3500 
L 4019 0 
L 2900 0 
L 2900 506 
Q 2647 200 2364 54 
Q 2081 -91 1741 -91 
Q 1134 -91 817 281 
Q 500 653 500 1363 
z
" transform="scale(0.015625)"/>
      <path id="DejaVuSans-Bold-6d" d="M 3781 2919 
Q 3994 3244 4286 3414 
Q 4578 3584 4928 3584 
Q 5531 3584 5847 3212 
Q 6163 2841 6163 2131 
L 6163 0 
L 5038 0 
L 5038 1825 
Q 5041 1866 5042 1909 
Q 5044 1953 5044 2034 
Q 5044 2406 4934 2573 
Q 4825 2741 4581 2741 
Q 4263 2741 4089 2478 
Q 3916 2216 3909 1719 
L 3909 0 
L 2784 0 
L 2784 1825 
Q 2784 2406 2684 2573 
Q 2584 2741 2328 2741 
Q 2006 2741 1831 2477 
Q 1656 2213 1656 1722 
L 1656 0 
L 531 0 
L 531 3500 
L 1656 3500 
L 1656 2988 
Q 1863 3284 2130 3434 
Q 2397 3584 2719 3584 
Q 3081 3584 3359 3409 
Q 3638 3234 3781 2919 
z
" transform="scale(0.015625)"/>
      <path id="DejaVuSans-Bold-62" d="M 2400 722 
Q 2759 722 2948 984 
Q 3138 1247 3138 1747 
Q 3138 2247 2948 2509 
Q 2759 2772 2400 2772 
Q 2041 2772 1848 2508 
Q 1656 2244 1656 1747 
Q 1656 1250 1848 986 
Q 2041 722 2400 722 
z
M 1656 2988 
Q 1888 3294 2169 3439 
Q 2450 3584 2816 3584 
Q 3463 3584 3878 3070 
Q 4294 2556 4294 1747 
Q 4294 938 3878 423 
Q 3463 -91 2816 -91 
Q 2450 -91 2169 54 
Q 1888 200 1656 506 
L 1656 0 
L 538 0 
L 538 4863 
L 1656 4863 
L 1656 2988 
z
" transform="scale(0.015625)"/>
      <path id="DejaVuSans-Bold-65" d="M 4031 1759 
L 4031 1441 
L 1416 1441 
Q 1456 1047 1700 850 
Q 1944 653 2381 653 
Q 2734 653 3104 758 
Q 3475 863 3866 1075 
L 3866 213 
Q 3469 63 3072 -14 
Q 2675 -91 2278 -91 
Q 1328 -91 801 392 
Q 275 875 275 1747 
Q 275 2603 792 3093 
Q 1309 3584 2216 3584 
Q 3041 3584 3536 3087 
Q 4031 2591 4031 1759 
z
M 2881 2131 
Q 2881 2450 2695 2645 
Q 2509 2841 2209 2841 
Q 1884 2841 1681 2658 
Q 1478 2475 1428 2131 
L 2881 2131 
z
" transform="scale(0.015625)"/>
      <path id="DejaVuSans-Bold-72" d="M 3138 2547 
Q 2991 2616 2845 2648 
Q 2700 2681 2553 2681 
Q 2122 2681 1889 2404 
Q 1656 2128 1656 1613 
L 1656 0 
L 538 0 
L 538 3500 
L 1656 3500 
L 1656 2925 
Q 1872 3269 2151 3426 
Q 2431 3584 2822 3584 
Q 2878 3584 2943 3579 
Q 3009 3575 3134 3559 
L 3138 2547 
z
" transform="scale(0.015625)"/>
      <path id="DejaVuSans-Bold-6f" d="M 2203 2784 
Q 1831 2784 1636 2517 
Q 1441 2250 1441 1747 
Q 1441 1244 1636 976 
Q 1831 709 2203 709 
Q 2569 709 2762 976 
Q 2956 1244 2956 1747 
Q 2956 2250 2762 2517 
Q 2569 2784 2203 2784 
z
M 2203 3584 
Q 3106 3584 3614 3096 
Q 4122 2609 4122 1747 
Q 4122 884 3614 396 
Q 3106 -91 2203 -91 
Q 1297 -91 786 396 
Q 275 884 275 1747 
Q 275 2609 786 3096 
Q 1297 3584 2203 3584 
z
" transform="scale(0.015625)"/>
      <path id="DejaVuSans-Bold-66" d="M 2841 4863 
L 2841 4128 
L 2222 4128 
Q 1984 4128 1890 4042 
Q 1797 3956 1797 3744 
L 1797 3500 
L 2753 3500 
L 2753 2700 
L 1797 2700 
L 1797 0 
L 678 0 
L 678 2700 
L 122 2700 
L 122 3500 
L 678 3500 
L 678 3744 
Q 678 4316 997 4589 
Q 1316 4863 1984 4863 
L 2841 4863 
z
" transform="scale(0.015625)"/>
      <path id="DejaVuSans-Bold-4a" d="M 588 4666 
L 1791 4666 
L 1791 453 
Q 1791 -419 1317 -850 
Q 844 -1281 -116 -1281 
L -359 -1281 
L -359 -372 
L -172 -372 
Q 203 -372 395 -162 
Q 588 47 588 453 
L 588 4666 
z
" transform="scale(0.015625)"/>
     </defs>
     <use xlink:href="#DejaVuSans-Bold-49"/>
     <use xlink:href="#DejaVuSans-Bold-4f" transform="translate(37.207031 0)"/>
     <use xlink:href="#DejaVuSans-Bold-50" transform="translate(122.216797 0)"/>
     <use xlink:href="#DejaVuSans-Bold-53" transform="translate(195.507812 0)"/>
     <use xlink:href="#DejaVuSans-Bold-20" transform="translate(267.529297 0)"/>
     <use xlink:href="#DejaVuSans-Bold-76" transform="translate(302.34375 0)"/>
     <use xlink:href="#DejaVuSans-Bold-73" transform="translate(367.529297 0)"/>
     <use xlink:href="#DejaVuSans-Bold-20" transform="translate(427.050781 0)"/>
     <use xlink:href="#DejaVuSans-Bold-4e" transform="translate(461.865234 0)"/>
     <use xlink:href="#DejaVuSans-Bold-75" transform="translate(545.556641 0)"/>
     <use xlink:href="#DejaVuSans-Bold-6d" transform="translate(616.748047 0)"/>
     <use xlink:href="#DejaVuSans-Bold-62" transform="translate(720.947266 0)"/>
     <use xlink:href="#DejaVuSans-Bold-65" transform="translate(792.529297 0)"/>
     <use xlink:href="#DejaVuSans-Bold-72" transform="translate(860.351562 0)"/>
     <use xlink:href="#DejaVuSans-Bold-20" transform="translate(909.667969 0)"/>
     <use xlink:href="#DejaVuSans-Bold-6f" transform="translate(944.482422 0)"/>
     <use xlink:href="#DejaVuSans-Bold-66" transform="translate(1013.183594 0)"/>
     <use xlink:href="#DejaVuSans-Bold-20" transform="translate(1056.689453 0)"/>
     <use xlink:href="#DejaVuSans-Bold-4a" transform="translate(1091.503906 0)"/>
     <use xlink:href="#DejaVuSans-Bold-6f" transform="translate(1128.710938 0)"/>
     <use xlink:href="#DejaVuSans-Bold-62" transform="translate(1197.412109 0)"/>
     <use xlink:href="#DejaVuSans-Bold-73" transform="translate(1268.994141 0)"/>
    </g>
   </g>
   <g id="legend_1">
    <g id="text_22">
     <!-- IO Depth -->
     <g style="fill: #262626" transform="translate(444.954687 120.065663) scale(0.1 -0.1)">
      <defs>
       <path id="DejaVuSans-44" d="M 1259 4147 
L 1259 519 
L 2022 519 
Q 2988 519 3436 956 
Q 3884 1394 3884 2338 
Q 3884 3275 3436 3711 
Q 2988 4147 2022 4147 
L 1259 4147 
z
M 628 4666 
L 1925 4666 
Q 3281 4666 3915 4102 
Q 4550 3538 4550 2338 
Q 4550 1131 3912 565 
Q 3275 0 1925 0 
L 628 0 
L 628 4666 
z
" transform="scale(0.015625)"/>
      </defs>
      <use xlink:href="#DejaVuSans-49"/>
      <use xlink:href="#DejaVuSans-4f" transform="translate(29.492188 0)"/>
      <use xlink:href="#DejaVuSans-20" transform="translate(108.203125 0)"/>
      <use xlink:href="#DejaVuSans-44" transform="translate(139.990234 0)"/>
      <use xlink:href="#DejaVuSans-65" transform="translate(216.992188 0)"/>
      <use xlink:href="#DejaVuSans-70" transform="translate(278.515625 0)"/>
      <use xlink:href="#DejaVuSans-74" transform="translate(341.992188 0)"/>
      <use xlink:href="#DejaVuSans-68" transform="translate(381.201172 0)"/>
     </g>
    </g>
    <g id="line2d_25">
     <path d="M 443.640625 131.243787 
L 453.640625 131.243787 
L 463.640625 131.243787 
" style="fill: none; stroke: #4c02a1; stroke-width: 1.5; stroke-linecap: round"/>
    </g>
    <g id="text_23">
     <!-- 1 -->
     <g style="fill: #262626" transform="translate(471.640625 134.743787) scale(0.1 -0.1)">
      <use xlink:href="#DejaVuSans-31"/>
     </g>
    </g>
    <g id="line2d_26">
     <path d="M 443.640625 145.921913 
L 453.640625 145.921913 
L 463.640625 145.921913 
" style="fill: none; stroke: #7e03a8; stroke-width: 1.5; stroke-linecap: round"/>
    </g>
    <g id="text_24">
     <!-- 4 -->
     <g style="fill: #262626" transform="translate(471.640625 149.421913) scale(0.1 -0.1)">
      <use xlink:href="#DejaVuSans-34"/>
     </g>
    </g>
    <g id="line2d_27">
     <path d="M 443.640625 160.600037 
L 453.640625 160.600037 
L 463.640625 160.600037 
" style="fill: none; stroke: #aa2395; stroke-width: 1.5; stroke-linecap: round"/>
    </g>
    <g id="text_25">
     <!-- 8 -->
     <g style="fill: #262626" transform="translate(471.640625 164.100037) scale(0.1 -0.1)">
      <use xlink:href="#DejaVuSans-38"/>
     </g>
    </g>
    <g id="line2d_28">
     <path d="M 443.640625 175.278163 
L 453.640625 175.278163 
L 463.640625 175.278163 
" style="fill: none; stroke: #cc4778; stroke-width: 1.5; stroke-linecap: round"/>
    </g>
    <g id="text_26">
     <!-- 16 -->
     <g style="fill: #262626" transform="translate(471.640625 178.778163) scale(0.1 -0.1)">
      <use xlink:href="#DejaVuSans-31"/>
      <use xlink:href="#DejaVuSans-36" transform="translate(63.623047 0)"/>
     </g>
    </g>
    <g id="line2d_29">
     <path d="M 443.640625 189.956288 
L 453.640625 189.956288 
L 463.640625 189.956288 
" style="fill: none; stroke: #e66c5c; stroke-width: 1.5; stroke-linecap: round"/>
    </g>
    <g id="text_27">
     <!-- 32 -->
     <g style="fill: #262626" transform="translate(471.640625 193.456288) scale(0.1 -0.1)">
      <use xlink:href="#DejaVuSans-33"/>
      <use xlink:href="#DejaVuSans-32" transform="translate(63.623047 0)"/>
     </g>
    </g>
    <g id="line2d_30">
     <path d="M 443.640625 204.634412 
L 453.640625 204.634412 
L 463.640625 204.634412 
" style="fill: none; stroke: #f89540; stroke-width: 1.5; stroke-linecap: round"/>
    </g>
    <g id="text_28">
     <!-- 64 -->
     <g style="fill: #262626" transform="translate(471.640625 208.134412) scale(0.1 -0.1)">
      <use xlink:href="#DejaVuSans-36"/>
      <use xlink:href="#DejaVuSans-34" transform="translate(63.623047 0)"/>
     </g>
    </g>
    <g id="line2d_31">
     <path d="M 443.640625 219.312537 
L 453.640625 219.312537 
L 463.640625 219.312537 
" style="fill: none; stroke: #fdc527; stroke-width: 1.5; stroke-linecap: round"/>
    </g>
    <g id="text_29">
     <!-- 128 -->
     <g style="fill: #262626" transform="translate(471.640625 222.812537) scale(0.1 -0.1)">
      <use xlink:href="#DejaVuSans-31"/>
      <use xlink:href="#DejaVuSans-32" transform="translate(63.623047 0)"/>
      <use xlink:href="#DejaVuSans-38" transform="translate(127.246094 0)"/>
     </g>
    </g>
   </g>
  </g>
 </g>
 <defs>
  <clipPath id="pf116939085">
   <rect x="53.328125" y="35.623725" width="357.12" height="266.112"/>
  </clipPath>
 </defs>
</svg>
