<?xml version="1.0" encoding="utf-8" standalone="no"?>
<!DOCTYPE svg PUBLIC "-//W3C//DTD SVG 1.1//EN"
  "http://www.w3.org/Graphics/SVG/1.1/DTD/svg11.dtd">
<svg xmlns:xlink="http://www.w3.org/1999/xlink" width="508.290625pt" height="339.291975pt" viewBox="0 0 508.290625 339.291975" xmlns="http://www.w3.org/2000/svg" version="1.1">
 <metadata>
  <rdf:RDF xmlns:dc="http://purl.org/dc/elements/1.1/" xmlns:cc="http://creativecommons.org/ns#" xmlns:rdf="http://www.w3.org/1999/02/22-rdf-syntax-ns#">
   <cc:Work>
    <dc:type rdf:resource="http://purl.org/dc/dcmitype/StillImage"/>
    <dc:date>2025-09-11T11:34:24.429471</dc:date>
    <dc:format>image/svg+xml</dc:format>
    <dc:creator>
     <cc:Agent>
      <dc:title>Matplotlib v3.10.6, https://matplotlib.org/</dc:title>
     </cc:Agent>
    </dc:creator>
   </cc:Work>
  </rdf:RDF>
 </metadata>
 <defs>
  <style type="text/css">*{stroke-linejoin: round; stroke-linecap: butt}</style>
 </defs>
 <g id="figure_1">
  <g id="patch_1">
   <path d="M 0 339.291975 
L 508.290625 339.291975 
L 508.290625 0 
L 0 0 
z
" style="fill: #ffffff"/>
  </g>
  <g id="axes_1">
   <g id="patch_2">
    <path d="M 59.690625 301.735725 
L 416.810625 301.735725 
L 416.810625 35.623725 
L 59.690625 35.623725 
z
" style="fill: #ffffff"/>
   </g>
   <g id="matplotlib.axis_1">
    <g id="xtick_1">
     <g id="line2d_1">
      <path d="M 400.577898 301.735725 
L 400.577898 35.623725 
" clip-path="url(#pf3bbc17ce0)" style="fill: none; stroke: #cccccc; stroke-width: 0.8; stroke-linecap: round"/>
     </g>
     <g id="text_1">
      <!-- 128 -->
      <g style="fill: #262626" transform="translate(391.034148 316.334162) scale(0.1 -0.1)">
       <defs>
        <path id="DejaVuSans-31" d="M 794 531 
L 1825 531 
L 1825 4091 
L 703 3866 
L 703 4441 
L 1819 4666 
L 2450 4666 
L 2450 531 
L 3481 531 
L 3481 0 
L 794 0 
L 794 531 
z
" transform="scale(0.015625)"/>
        <path id="DejaVuSans-32" d="M 1228 531 
L 3431 531 
L 3431 0 
L 469 0 
L 469 531 
Q 828 903 1448 1529 
Q 2069 2156 2228 2338 
Q 2531 2678 2651 2914 
Q 2772 3150 2772 3378 
Q 2772 3750 2511 3984 
Q 2250 4219 1831 4219 
Q 1534 4219 1204 4116 
Q 875 4013 500 3803 
L 500 4441 
Q 881 4594 1212 4672 
Q 1544 4750 1819 4750 
Q 2544 4750 2975 4387 
Q 3406 4025 3406 3419 
Q 3406 3131 3298 2873 
Q 3191 2616 2906 2266 
Q 2828 2175 2409 1742 
Q 1991 1309 1228 531 
z
" transform="scale(0.015625)"/>
        <path id="DejaVuSans-38" d="M 2034 2216 
Q 1584 2216 1326 1975 
Q 1069 1734 1069 1313 
Q 1069 891 1326 650 
Q 1584 409 2034 409 
Q 2484 409 2743 651 
Q 3003 894 3003 1313 
Q 3003 1734 2745 1975 
Q 2488 2216 2034 2216 
z
M 1403 2484 
Q 997 2584 770 2862 
Q 544 3141 544 3541 
Q 544 4100 942 4425 
Q 1341 4750 2034 4750 
Q 2731 4750 3128 4425 
Q 3525 4100 3525 3541 
Q 3525 3141 3298 2862 
Q 3072 2584 2669 2484 
Q 3125 2378 3379 2068 
Q 3634 1759 3634 1313 
Q 3634 634 3220 271 
Q 2806 -91 2034 -91 
Q 1263 -91 848 271 
Q 434 634 434 1313 
Q 434 1759 690 2068 
Q 947 2378 1403 2484 
z
M 1172 3481 
Q 1172 3119 1398 2916 
Q 1625 2713 2034 2713 
Q 2441 2713 2670 2916 
Q 2900 3119 2900 3481 
Q 2900 3844 2670 4047 
Q 2441 4250 2034 4250 
Q 1625 4250 1398 4047 
Q 1172 3844 1172 3481 
z
" transform="scale(0.015625)"/>
       </defs>
       <use xlink:href="#DejaVuSans-31"/>
       <use xlink:href="#DejaVuSans-32" transform="translate(63.623047 0)"/>
       <use xlink:href="#DejaVuSans-38" transform="translate(127.246094 0)"/>
      </g>
     </g>
    </g>
    <g id="xtick_2">
     <g id="line2d_2">
      <path d="M 75.923352 301.735725 
L 75.923352 35.623725 
" clip-path="url(#pf3bbc17ce0)" style="fill: none; stroke: #cccccc; stroke-width: 0.8; stroke-linecap: round"/>
     </g>
     <g id="text_2">
      <!-- 16 -->
      <g style="fill: #262626" transform="translate(69.560852 316.334162) scale(0.1 -0.1)">
       <defs>
        <path id="DejaVuSans-36" d="M 2113 2584 
Q 1688 2584 1439 2293 
Q 1191 2003 1191 1497 
Q 1191 994 1439 701 
Q 1688 409 2113 409 
Q 2538 409 2786 701 
Q 3034 994 3034 1497 
Q 3034 2003 2786 2293 
Q 2538 2584 2113 2584 
z
M 3366 4563 
L 3366 3988 
Q 3128 4100 2886 4159 
Q 2644 4219 2406 4219 
Q 1781 4219 1451 3797 
Q 1122 3375 1075 2522 
Q 1259 2794 1537 2939 
Q 1816 3084 2150 3084 
Q 2853 3084 3261 2657 
Q 3669 2231 3669 1497 
Q 3669 778 3244 343 
Q 2819 -91 2113 -91 
Q 1303 -91 875 529 
Q 447 1150 447 2328 
Q 447 3434 972 4092 
Q 1497 4750 2381 4750 
Q 2619 4750 2861 4703 
Q 3103 4656 3366 4563 
z
" transform="scale(0.015625)"/>
       </defs>
       <use xlink:href="#DejaVuSans-31"/>
       <use xlink:href="#DejaVuSans-36" transform="translate(63.623047 0)"/>
      </g>
     </g>
    </g>
    <g id="xtick_3">
     <g id="line2d_3">
      <path d="M 215.061015 301.735725 
L 215.061015 35.623725 
" clip-path="url(#pf3bbc17ce0)" style="fill: none; stroke: #cccccc; stroke-width: 0.8; stroke-linecap: round"/>
     </g>
     <g id="text_3">
      <!-- 64 -->
      <g style="fill: #262626" transform="translate(208.698515 316.334162) scale(0.1 -0.1)">
       <defs>
        <path id="DejaVuSans-34" d="M 2419 4116 
L 825 1625 
L 2419 1625 
L 2419 4116 
z
M 2253 4666 
L 3047 4666 
L 3047 1625 
L 3713 1625 
L 3713 1100 
L 3047 1100 
L 3047 0 
L 2419 0 
L 2419 1100 
L 313 1100 
L 313 1709 
L 2253 4666 
z
" transform="scale(0.015625)"/>
       </defs>
       <use xlink:href="#DejaVuSans-36"/>
       <use xlink:href="#DejaVuSans-34" transform="translate(63.623047 0)"/>
      </g>
     </g>
    </g>
    <g id="xtick_4">
     <g id="line2d_4">
      <path d="M 122.302573 301.735725 
L 122.302573 35.623725 
" clip-path="url(#pf3bbc17ce0)" style="fill: none; stroke: #cccccc; stroke-width: 0.8; stroke-linecap: round"/>
     </g>
     <g id="text_4">
      <!-- 32 -->
      <g style="fill: #262626" transform="translate(115.940073 316.334162) scale(0.1 -0.1)">
       <defs>
        <path id="DejaVuSans-33" d="M 2597 2516 
Q 3050 2419 3304 2112 
Q 3559 1806 3559 1356 
Q 3559 666 3084 287 
Q 2609 -91 1734 -91 
Q 1441 -91 1130 -33 
Q 819 25 488 141 
L 488 750 
Q 750 597 1062 519 
Q 1375 441 1716 441 
Q 2309 441 2620 675 
Q 2931 909 2931 1356 
Q 2931 1769 2642 2001 
Q 2353 2234 1838 2234 
L 1294 2234 
L 1294 2753 
L 1863 2753 
Q 2328 2753 2575 2939 
Q 2822 3125 2822 3475 
Q 2822 3834 2567 4026 
Q 2313 4219 1838 4219 
Q 1578 4219 1281 4162 
Q 984 4106 628 3988 
L 628 4550 
Q 988 4650 1302 4700 
Q 1616 4750 1894 4750 
Q 2613 4750 3031 4423 
Q 3450 4097 3450 3541 
Q 3450 3153 3228 2886 
Q 3006 2619 2597 2516 
z
" transform="scale(0.015625)"/>
       </defs>
       <use xlink:href="#DejaVuSans-33"/>
       <use xlink:href="#DejaVuSans-32" transform="translate(63.623047 0)"/>
      </g>
     </g>
    </g>
    <g id="text_5">
     <!-- Number of Jobs -->
     <g style="fill: #262626" transform="translate(199.85375 330.012287) scale(0.1 -0.1)">
      <defs>
       <path id="DejaVuSans-4e" d="M 628 4666 
L 1478 4666 
L 3547 763 
L 3547 4666 
L 4159 4666 
L 4159 0 
L 3309 0 
L 1241 3903 
L 1241 0 
L 628 0 
L 628 4666 
z
" transform="scale(0.015625)"/>
       <path id="DejaVuSans-75" d="M 544 1381 
L 544 3500 
L 1119 3500 
L 1119 1403 
Q 1119 906 1312 657 
Q 1506 409 1894 409 
Q 2359 409 2629 706 
Q 2900 1003 2900 1516 
L 2900 3500 
L 3475 3500 
L 3475 0 
L 2900 0 
L 2900 538 
Q 2691 219 2414 64 
Q 2138 -91 1772 -91 
Q 1169 -91 856 284 
Q 544 659 544 1381 
z
M 1991 3584 
L 1991 3584 
z
" transform="scale(0.015625)"/>
       <path id="DejaVuSans-6d" d="M 3328 2828 
Q 3544 3216 3844 3400 
Q 4144 3584 4550 3584 
Q 5097 3584 5394 3201 
Q 5691 2819 5691 2113 
L 5691 0 
L 5113 0 
L 5113 2094 
Q 5113 2597 4934 2840 
Q 4756 3084 4391 3084 
Q 3944 3084 3684 2787 
Q 3425 2491 3425 1978 
L 3425 0 
L 2847 0 
L 2847 2094 
Q 2847 2600 2669 2842 
Q 2491 3084 2119 3084 
Q 1678 3084 1418 2786 
Q 1159 2488 1159 1978 
L 1159 0 
L 581 0 
L 581 3500 
L 1159 3500 
L 1159 2956 
Q 1356 3278 1631 3431 
Q 1906 3584 2284 3584 
Q 2666 3584 2933 3390 
Q 3200 3197 3328 2828 
z
" transform="scale(0.015625)"/>
       <path id="DejaVuSans-62" d="M 3116 1747 
Q 3116 2381 2855 2742 
Q 2594 3103 2138 3103 
Q 1681 3103 1420 2742 
Q 1159 2381 1159 1747 
Q 1159 1113 1420 752 
Q 1681 391 2138 391 
Q 2594 391 2855 752 
Q 3116 1113 3116 1747 
z
M 1159 2969 
Q 1341 3281 1617 3432 
Q 1894 3584 2278 3584 
Q 2916 3584 3314 3078 
Q 3713 2572 3713 1747 
Q 3713 922 3314 415 
Q 2916 -91 2278 -91 
Q 1894 -91 1617 61 
Q 1341 213 1159 525 
L 1159 0 
L 581 0 
L 581 4863 
L 1159 4863 
L 1159 2969 
z
" transform="scale(0.015625)"/>
       <path id="DejaVuSans-65" d="M 3597 1894 
L 3597 1613 
L 953 1613 
Q 991 1019 1311 708 
Q 1631 397 2203 397 
Q 2534 397 2845 478 
Q 3156 559 3463 722 
L 3463 178 
Q 3153 47 2828 -22 
Q 2503 -91 2169 -91 
Q 1331 -91 842 396 
Q 353 884 353 1716 
Q 353 2575 817 3079 
Q 1281 3584 2069 3584 
Q 2775 3584 3186 3129 
Q 3597 2675 3597 1894 
z
M 3022 2063 
Q 3016 2534 2758 2815 
Q 2500 3097 2075 3097 
Q 1594 3097 1305 2825 
Q 1016 2553 972 2059 
L 3022 2063 
z
" transform="scale(0.015625)"/>
       <path id="DejaVuSans-72" d="M 2631 2963 
Q 2534 3019 2420 3045 
Q 2306 3072 2169 3072 
Q 1681 3072 1420 2755 
Q 1159 2438 1159 1844 
L 1159 0 
L 581 0 
L 581 3500 
L 1159 3500 
L 1159 2956 
Q 1341 3275 1631 3429 
Q 1922 3584 2338 3584 
Q 2397 3584 2469 3576 
Q 2541 3569 2628 3553 
L 2631 2963 
z
" transform="scale(0.015625)"/>
       <path id="DejaVuSans-20" transform="scale(0.015625)"/>
       <path id="DejaVuSans-6f" d="M 1959 3097 
Q 1497 3097 1228 2736 
Q 959 2375 959 1747 
Q 959 1119 1226 758 
Q 1494 397 1959 397 
Q 2419 397 2687 759 
Q 2956 1122 2956 1747 
Q 2956 2369 2687 2733 
Q 2419 3097 1959 3097 
z
M 1959 3584 
Q 2709 3584 3137 3096 
Q 3566 2609 3566 1747 
Q 3566 888 3137 398 
Q 2709 -91 1959 -91 
Q 1206 -91 779 398 
Q 353 888 353 1747 
Q 353 2609 779 3096 
Q 1206 3584 1959 3584 
z
" transform="scale(0.015625)"/>
       <path id="DejaVuSans-66" d="M 2375 4863 
L 2375 4384 
L 1825 4384 
Q 1516 4384 1395 4259 
Q 1275 4134 1275 3809 
L 1275 3500 
L 2222 3500 
L 2222 3053 
L 1275 3053 
L 1275 0 
L 697 0 
L 697 3053 
L 147 3053 
L 147 3500 
L 697 3500 
L 697 3744 
Q 697 4328 969 4595 
Q 1241 4863 1831 4863 
L 2375 4863 
z
" transform="scale(0.015625)"/>
       <path id="DejaVuSans-4a" d="M 628 4666 
L 1259 4666 
L 1259 325 
Q 1259 -519 939 -900 
Q 619 -1281 -91 -1281 
L -331 -1281 
L -331 -750 
L -134 -750 
Q 284 -750 456 -515 
Q 628 -281 628 325 
L 628 4666 
z
" transform="scale(0.015625)"/>
       <path id="DejaVuSans-73" d="M 2834 3397 
L 2834 2853 
Q 2591 2978 2328 3040 
Q 2066 3103 1784 3103 
Q 1356 3103 1142 2972 
Q 928 2841 928 2578 
Q 928 2378 1081 2264 
Q 1234 2150 1697 2047 
L 1894 2003 
Q 2506 1872 2764 1633 
Q 3022 1394 3022 966 
Q 3022 478 2636 193 
Q 2250 -91 1575 -91 
Q 1294 -91 989 -36 
Q 684 19 347 128 
L 347 722 
Q 666 556 975 473 
Q 1284 391 1588 391 
Q 1994 391 2212 530 
Q 2431 669 2431 922 
Q 2431 1156 2273 1281 
Q 2116 1406 1581 1522 
L 1381 1569 
Q 847 1681 609 1914 
Q 372 2147 372 2553 
Q 372 3047 722 3315 
Q 1072 3584 1716 3584 
Q 2034 3584 2315 3537 
Q 2597 3491 2834 3397 
z
" transform="scale(0.015625)"/>
      </defs>
      <use xlink:href="#DejaVuSans-4e"/>
      <use xlink:href="#DejaVuSans-75" transform="translate(74.804688 0)"/>
      <use xlink:href="#DejaVuSans-6d" transform="translate(138.183594 0)"/>
      <use xlink:href="#DejaVuSans-62" transform="translate(235.595703 0)"/>
      <use xlink:href="#DejaVuSans-65" transform="translate(299.072266 0)"/>
      <use xlink:href="#DejaVuSans-72" transform="translate(360.595703 0)"/>
      <use xlink:href="#DejaVuSans-20" transform="translate(401.708984 0)"/>
      <use xlink:href="#DejaVuSans-6f" transform="translate(433.496094 0)"/>
      <use xlink:href="#DejaVuSans-66" transform="translate(494.677734 0)"/>
      <use xlink:href="#DejaVuSans-20" transform="translate(529.882812 0)"/>
      <use xlink:href="#DejaVuSans-4a" transform="translate(561.669922 0)"/>
      <use xlink:href="#DejaVuSans-6f" transform="translate(591.162109 0)"/>
      <use xlink:href="#DejaVuSans-62" transform="translate(652.34375 0)"/>
      <use xlink:href="#DejaVuSans-73" transform="translate(715.820312 0)"/>
     </g>
    </g>
   </g>
   <g id="matplotlib.axis_2">
    <g id="ytick_1">
     <g id="line2d_5">
      <path d="M 59.690625 278.231739 
L 416.810625 278.231739 
" clip-path="url(#pf3bbc17ce0)" style="fill: none; stroke: #cccccc; stroke-width: 0.8; stroke-linecap: round"/>
     </g>
     <g id="text_6">
      <!-- 20000 -->
      <g style="fill: #262626" transform="translate(20.878125 282.030958) scale(0.1 -0.1)">
       <defs>
        <path id="DejaVuSans-30" d="M 2034 4250 
Q 1547 4250 1301 3770 
Q 1056 3291 1056 2328 
Q 1056 1369 1301 889 
Q 1547 409 2034 409 
Q 2525 409 2770 889 
Q 3016 1369 3016 2328 
Q 3016 3291 2770 3770 
Q 2525 4250 2034 4250 
z
M 2034 4750 
Q 2819 4750 3233 4129 
Q 3647 3509 3647 2328 
Q 3647 1150 3233 529 
Q 2819 -91 2034 -91 
Q 1250 -91 836 529 
Q 422 1150 422 2328 
Q 422 3509 836 4129 
Q 1250 4750 2034 4750 
z
" transform="scale(0.015625)"/>
       </defs>
       <use xlink:href="#DejaVuSans-32"/>
       <use xlink:href="#DejaVuSans-30" transform="translate(63.623047 0)"/>
       <use xlink:href="#DejaVuSans-30" transform="translate(127.246094 0)"/>
       <use xlink:href="#DejaVuSans-30" transform="translate(190.869141 0)"/>
       <use xlink:href="#DejaVuSans-30" transform="translate(254.492188 0)"/>
      </g>
     </g>
    </g>
    <g id="ytick_2">
     <g id="line2d_6">
      <path d="M 59.690625 232.907998 
L 416.810625 232.907998 
" clip-path="url(#pf3bbc17ce0)" style="fill: none; stroke: #cccccc; stroke-width: 0.8; stroke-linecap: round"/>
     </g>
     <g id="text_7">
      <!-- 30000 -->
      <g style="fill: #262626" transform="translate(20.878125 236.707217) scale(0.1 -0.1)">
       <use xlink:href="#DejaVuSans-33"/>
       <use xlink:href="#DejaVuSans-30" transform="translate(63.623047 0)"/>
       <use xlink:href="#DejaVuSans-30" transform="translate(127.246094 0)"/>
       <use xlink:href="#DejaVuSans-30" transform="translate(190.869141 0)"/>
       <use xlink:href="#DejaVuSans-30" transform="translate(254.492188 0)"/>
      </g>
     </g>
    </g>
    <g id="ytick_3">
     <g id="line2d_7">
      <path d="M 59.690625 187.584257 
L 416.810625 187.584257 
" clip-path="url(#pf3bbc17ce0)" style="fill: none; stroke: #cccccc; stroke-width: 0.8; stroke-linecap: round"/>
     </g>
     <g id="text_8">
      <!-- 40000 -->
      <g style="fill: #262626" transform="translate(20.878125 191.383476) scale(0.1 -0.1)">
       <use xlink:href="#DejaVuSans-34"/>
       <use xlink:href="#DejaVuSans-30" transform="translate(63.623047 0)"/>
       <use xlink:href="#DejaVuSans-30" transform="translate(127.246094 0)"/>
       <use xlink:href="#DejaVuSans-30" transform="translate(190.869141 0)"/>
       <use xlink:href="#DejaVuSans-30" transform="translate(254.492188 0)"/>
      </g>
     </g>
    </g>
    <g id="ytick_4">
     <g id="line2d_8">
      <path d="M 59.690625 142.260516 
L 416.810625 142.260516 
" clip-path="url(#pf3bbc17ce0)" style="fill: none; stroke: #cccccc; stroke-width: 0.8; stroke-linecap: round"/>
     </g>
     <g id="text_9">
      <!-- 50000 -->
      <g style="fill: #262626" transform="translate(20.878125 146.059735) scale(0.1 -0.1)">
       <defs>
        <path id="DejaVuSans-35" d="M 691 4666 
L 3169 4666 
L 3169 4134 
L 1269 4134 
L 1269 2991 
Q 1406 3038 1543 3061 
Q 1681 3084 1819 3084 
Q 2600 3084 3056 2656 
Q 3513 2228 3513 1497 
Q 3513 744 3044 326 
Q 2575 -91 1722 -91 
Q 1428 -91 1123 -41 
Q 819 9 494 109 
L 494 744 
Q 775 591 1075 516 
Q 1375 441 1709 441 
Q 2250 441 2565 725 
Q 2881 1009 2881 1497 
Q 2881 1984 2565 2268 
Q 2250 2553 1709 2553 
Q 1456 2553 1204 2497 
Q 953 2441 691 2322 
L 691 4666 
z
" transform="scale(0.015625)"/>
       </defs>
       <use xlink:href="#DejaVuSans-35"/>
       <use xlink:href="#DejaVuSans-30" transform="translate(63.623047 0)"/>
       <use xlink:href="#DejaVuSans-30" transform="translate(127.246094 0)"/>
       <use xlink:href="#DejaVuSans-30" transform="translate(190.869141 0)"/>
       <use xlink:href="#DejaVuSans-30" transform="translate(254.492188 0)"/>
      </g>
     </g>
    </g>
    <g id="ytick_5">
     <g id="line2d_9">
      <path d="M 59.690625 96.936775 
L 416.810625 96.936775 
" clip-path="url(#pf3bbc17ce0)" style="fill: none; stroke: #cccccc; stroke-width: 0.8; stroke-linecap: round"/>
     </g>
     <g id="text_10">
      <!-- 60000 -->
      <g style="fill: #262626" transform="translate(20.878125 100.735994) scale(0.1 -0.1)">
       <use xlink:href="#DejaVuSans-36"/>
       <use xlink:href="#DejaVuSans-30" transform="translate(63.623047 0)"/>
       <use xlink:href="#DejaVuSans-30" transform="translate(127.246094 0)"/>
       <use xlink:href="#DejaVuSans-30" transform="translate(190.869141 0)"/>
       <use xlink:href="#DejaVuSans-30" transform="translate(254.492188 0)"/>
      </g>
     </g>
    </g>
    <g id="ytick_6">
     <g id="line2d_10">
      <path d="M 59.690625 51.613034 
L 416.810625 51.613034 
" clip-path="url(#pf3bbc17ce0)" style="fill: none; stroke: #cccccc; stroke-width: 0.8; stroke-linecap: round"/>
     </g>
     <g id="text_11">
      <!-- 70000 -->
      <g style="fill: #262626" transform="translate(20.878125 55.412253) scale(0.1 -0.1)">
       <defs>
        <path id="DejaVuSans-37" d="M 525 4666 
L 3525 4666 
L 3525 4397 
L 1831 0 
L 1172 0 
L 2766 4134 
L 525 4134 
L 525 4666 
z
" transform="scale(0.015625)"/>
       </defs>
       <use xlink:href="#DejaVuSans-37"/>
       <use xlink:href="#DejaVuSans-30" transform="translate(63.623047 0)"/>
       <use xlink:href="#DejaVuSans-30" transform="translate(127.246094 0)"/>
       <use xlink:href="#DejaVuSans-30" transform="translate(190.869141 0)"/>
       <use xlink:href="#DejaVuSans-30" transform="translate(254.492188 0)"/>
      </g>
     </g>
    </g>
    <g id="text_12">
     <!-- IOPS -->
     <g style="fill: #262626" transform="translate(14.798438 180.279725) rotate(-90) scale(0.1 -0.1)">
      <defs>
       <path id="DejaVuSans-49" d="M 628 4666 
L 1259 4666 
L 1259 0 
L 628 0 
L 628 4666 
z
" transform="scale(0.015625)"/>
       <path id="DejaVuSans-4f" d="M 2522 4238 
Q 1834 4238 1429 3725 
Q 1025 3213 1025 2328 
Q 1025 1447 1429 934 
Q 1834 422 2522 422 
Q 3209 422 3611 934 
Q 4013 1447 4013 2328 
Q 4013 3213 3611 3725 
Q 3209 4238 2522 4238 
z
M 2522 4750 
Q 3503 4750 4090 4092 
Q 4678 3434 4678 2328 
Q 4678 1225 4090 567 
Q 3503 -91 2522 -91 
Q 1538 -91 948 565 
Q 359 1222 359 2328 
Q 359 3434 948 4092 
Q 1538 4750 2522 4750 
z
" transform="scale(0.015625)"/>
       <path id="DejaVuSans-50" d="M 1259 4147 
L 1259 2394 
L 2053 2394 
Q 2494 2394 2734 2622 
Q 2975 2850 2975 3272 
Q 2975 3691 2734 3919 
Q 2494 4147 2053 4147 
L 1259 4147 
z
M 628 4666 
L 2053 4666 
Q 2838 4666 3239 4311 
Q 3641 3956 3641 3272 
Q 3641 2581 3239 2228 
Q 2838 1875 2053 1875 
L 1259 1875 
L 1259 0 
L 628 0 
L 628 4666 
z
" transform="scale(0.015625)"/>
       <path id="DejaVuSans-53" d="M 3425 4513 
L 3425 3897 
Q 3066 4069 2747 4153 
Q 2428 4238 2131 4238 
Q 1616 4238 1336 4038 
Q 1056 3838 1056 3469 
Q 1056 3159 1242 3001 
Q 1428 2844 1947 2747 
L 2328 2669 
Q 3034 2534 3370 2195 
Q 3706 1856 3706 1288 
Q 3706 609 3251 259 
Q 2797 -91 1919 -91 
Q 1588 -91 1214 -16 
Q 841 59 441 206 
L 441 856 
Q 825 641 1194 531 
Q 1563 422 1919 422 
Q 2459 422 2753 634 
Q 3047 847 3047 1241 
Q 3047 1584 2836 1778 
Q 2625 1972 2144 2069 
L 1759 2144 
Q 1053 2284 737 2584 
Q 422 2884 422 3419 
Q 422 4038 858 4394 
Q 1294 4750 2059 4750 
Q 2388 4750 2728 4690 
Q 3069 4631 3425 4513 
z
" transform="scale(0.015625)"/>
      </defs>
      <use xlink:href="#DejaVuSans-49"/>
      <use xlink:href="#DejaVuSans-4f" transform="translate(29.492188 0)"/>
      <use xlink:href="#DejaVuSans-50" transform="translate(108.203125 0)"/>
      <use xlink:href="#DejaVuSans-53" transform="translate(168.505859 0)"/>
     </g>
    </g>
   </g>
   <g id="FillBetweenPolyCollection_1"/>
   <g id="FillBetweenPolyCollection_2"/>
   <g id="FillBetweenPolyCollection_3"/>
   <g id="FillBetweenPolyCollection_4"/>
   <g id="FillBetweenPolyCollection_5"/>
   <g id="FillBetweenPolyCollection_6"/>
   <g id="FillBetweenPolyCollection_7"/>
   <g id="line2d_11">
    <path d="M 75.923352 97.693682 
L 122.302573 80.525049 
L 215.061015 111.209221 
L 400.577898 120.999149 
" clip-path="url(#pf3bbc17ce0)" style="fill: none; stroke: #4c02a1; stroke-width: 1.5; stroke-linecap: round"/>
   </g>
   <g id="line2d_12">
    <path d="M 75.923352 289.639725 
L 122.302573 208.251883 
L 215.061015 82.347063 
L 400.577898 92.567567 
" clip-path="url(#pf3bbc17ce0)" style="fill: none; stroke: #7e03a8; stroke-width: 1.5; stroke-linecap: round"/>
   </g>
   <g id="line2d_13">
    <path d="M 75.923352 108.068286 
L 122.302573 84.051236 
L 215.061015 119.693826 
L 400.577898 133.617279 
" clip-path="url(#pf3bbc17ce0)" style="fill: none; stroke: #aa2395; stroke-width: 1.5; stroke-linecap: round"/>
   </g>
   <g id="line2d_14">
    <path d="M 75.923352 63.950157 
L 122.302573 80.040085 
L 215.061015 95.558934 
L 400.577898 131.935768 
" clip-path="url(#pf3bbc17ce0)" style="fill: none; stroke: #cc4778; stroke-width: 1.5; stroke-linecap: round"/>
   </g>
   <g id="line2d_15">
    <path d="M 75.923352 138.661811 
L 122.302573 47.719725 
L 215.061015 82.415049 
L 400.577898 94.090444 
" clip-path="url(#pf3bbc17ce0)" style="fill: none; stroke: #e66c5c; stroke-width: 1.5; stroke-linecap: round"/>
   </g>
   <g id="line2d_16">
    <path d="M 75.923352 150.604617 
L 122.302573 74.383682 
L 215.061015 90.777279 
L 400.577898 81.862099 
" clip-path="url(#pf3bbc17ce0)" style="fill: none; stroke: #f89540; stroke-width: 1.5; stroke-linecap: round"/>
   </g>
   <g id="line2d_17">
    <path d="M 75.923352 111.200157 
L 122.302573 79.083754 
L 215.061015 68.555049 
L 400.577898 97.548646 
" clip-path="url(#pf3bbc17ce0)" style="fill: none; stroke: #fdc527; stroke-width: 1.5; stroke-linecap: round"/>
   </g>
   <g id="line2d_18"/>
   <g id="line2d_19"/>
   <g id="line2d_20"/>
   <g id="line2d_21"/>
   <g id="line2d_22"/>
   <g id="line2d_23"/>
   <g id="line2d_24"/>
   <g id="text_13">
    <path d="M 116.572597 84.703827 
L 118.083346 84.144579 
L 116.152286 78.928027 
L 114.63024 79.866334 
L 114.318341 79.023773 
L 115.831595 78.088721 
L 116.756214 77.746446 
L 118.999173 83.805559 
L 120.509922 83.246311 
L 120.797954 84.024398 
L 116.860629 85.481914 
L 116.572597 84.703827 
z
" clip-path="url(#pf3bbc17ce0)" style="fill: #4c02a1; stroke: #ffffff; stroke-width: 5"/>
    <path d="M 116.572597 84.703827 
L 118.083346 84.144579 
L 116.152286 78.928027 
L 114.63024 79.866334 
L 114.318341 79.023773 
L 115.831595 78.088721 
L 116.756214 77.746446 
L 118.999173 83.805559 
L 120.509922 83.246311 
L 120.797954 84.024398 
L 116.860629 85.481914 
L 116.572597 84.703827 
z
" clip-path="url(#pf3bbc17ce0)" style="fill: #4c02a1"/>
   </g>
   <g id="text_14">
    <path d="M 155.297368 157.276161 
L 156.95366 161.58998 
L 158.430957 159.584785 
L 155.297368 157.276161 
z
M 154.451641 156.975251 
L 155.187509 155.976428 
L 159.012978 158.794783 
L 159.630218 157.956979 
L 160.290649 158.443542 
L 159.67341 159.281346 
L 161.05717 160.30081 
L 160.475149 161.090812 
L 159.091388 160.071348 
L 157.139577 162.72062 
L 156.373477 162.156208 
L 154.451641 156.975251 
z
" clip-path="url(#pf3bbc17ce0)" style="fill: #7e03a8; stroke: #ffffff; stroke-width: 5"/>
    <path d="M 155.297368 157.276161 
L 156.95366 161.58998 
L 158.430957 159.584785 
L 155.297368 157.276161 
z
M 154.451641 156.975251 
L 155.187509 155.976428 
L 159.012978 158.794783 
L 159.630218 157.956979 
L 160.290649 158.443542 
L 159.67341 159.281346 
L 161.05717 160.30081 
L 160.475149 161.090812 
L 159.091388 160.071348 
L 157.139577 162.72062 
L 156.373477 162.156208 
L 154.451641 156.975251 
z
" clip-path="url(#pf3bbc17ce0)" style="fill: #7e03a8"/>
   </g>
   <g id="text_15">
    <path d="M 198.323907 112.509317 
Q 197.667569 112.257118 197.156201 112.464029 
Q 196.646292 112.671501 196.410346 113.285543 
Q 196.173839 113.901042 196.413615 114.396582 
Q 196.654849 114.892682 197.311187 115.144881 
Q 197.967526 115.39708 198.480912 115.189271 
Q 198.996318 114.980563 199.231143 114.369439 
Q 199.467089 113.755398 199.225855 113.259298 
Q 198.98608 112.763758 198.323907 112.509317 
z
M 197.553773 111.764792 
Q 197.017654 111.391399 196.842371 110.858707 
Q 196.669107 110.325117 196.893284 109.741705 
Q 197.206571 108.926387 197.96921 108.67542 
Q 198.733308 108.425015 199.744069 108.813402 
Q 200.760665 109.20403 201.157557 109.900548 
Q 201.55445 110.597066 201.241162 111.412385 
Q 201.016985 111.995797 200.529535 112.275506 
Q 200.044104 112.554317 199.400272 112.474312 
Q 200.005955 112.884478 200.202685 113.478975 
Q 200.401433 114.072574 200.151476 114.723078 
Q 199.770935 115.71342 198.963663 116.010843 
Q 198.156951 116.306808 197.030966 115.874146 
Q 195.906439 115.442045 195.504029 114.681473 
Q 195.103639 113.920003 195.484179 112.929661 
Q 195.734137 112.279157 196.280697 111.971944 
Q 196.829277 111.663834 197.553773 111.764792 
z
M 197.775614 110.181175 
Q 197.572734 110.709163 197.788592 111.131904 
Q 198.005908 111.555206 198.602447 111.784427 
Q 199.196069 112.012528 199.643842 111.844787 
Q 200.093074 111.677608 200.295954 111.14962 
Q 200.499395 110.620173 200.277703 110.19519 
Q 200.057469 109.770767 199.463848 109.542667 
Q 198.867309 109.313446 198.422453 109.482307 
Q 197.979055 109.651728 197.775614 110.181175 
z
" clip-path="url(#pf3bbc17ce0)" style="fill: #aa2395; stroke: #ffffff; stroke-width: 5"/>
    <path d="M 198.323907 112.509317 
Q 197.667569 112.257118 197.156201 112.464029 
Q 196.646292 112.671501 196.410346 113.285543 
Q 196.173839 113.901042 196.413615 114.396582 
Q 196.654849 114.892682 197.311187 115.144881 
Q 197.967526 115.39708 198.480912 115.189271 
Q 198.996318 114.980563 199.231143 114.369439 
Q 199.467089 113.755398 199.225855 113.259298 
Q 198.98608 112.763758 198.323907 112.509317 
z
M 197.553773 111.764792 
Q 197.017654 111.391399 196.842371 110.858707 
Q 196.669107 110.325117 196.893284 109.741705 
Q 197.206571 108.926387 197.96921 108.67542 
Q 198.733308 108.425015 199.744069 108.813402 
Q 200.760665 109.20403 201.157557 109.900548 
Q 201.55445 110.597066 201.241162 111.412385 
Q 201.016985 111.995797 200.529535 112.275506 
Q 200.044104 112.554317 199.400272 112.474312 
Q 200.005955 112.884478 200.202685 113.478975 
Q 200.401433 114.072574 200.151476 114.723078 
Q 199.770935 115.71342 198.963663 116.010843 
Q 198.156951 116.306808 197.030966 115.874146 
Q 195.906439 115.442045 195.504029 114.681473 
Q 195.103639 113.920003 195.484179 112.929661 
Q 195.734137 112.279157 196.280697 111.971944 
Q 196.829277 111.663834 197.553773 111.764792 
z
M 197.775614 110.181175 
Q 197.572734 110.709163 197.788592 111.131904 
Q 198.005908 111.555206 198.602447 111.784427 
Q 199.196069 112.012528 199.643842 111.844787 
Q 200.093074 111.677608 200.295954 111.14962 
Q 200.499395 110.620173 200.277703 110.19519 
Q 200.057469 109.770767 199.463848 109.542667 
Q 198.867309 109.313446 198.422453 109.482307 
Q 197.979055 109.651728 197.775614 110.181175 
z
" clip-path="url(#pf3bbc17ce0)" style="fill: #aa2395"/>
   </g>
   <g id="text_16">
    <path d="M 232.853154 101.014117 
L 234.433988 101.324092 
L 235.504321 95.86554 
L 233.716309 95.873198 
L 233.889186 94.991549 
L 235.667998 94.982088 
L 236.635511 95.171801 
L 235.392301 101.512002 
L 236.973135 101.821978 
L 236.813487 102.636161 
L 232.693506 101.8283 
L 232.853154 101.014117 
z
M 241.736235 99.487045 
Q 241.084582 99.359266 240.615299 99.730594 
Q 240.14785 100.100689 239.995719 100.876539 
Q 239.844489 101.647789 240.136656 102.171609 
Q 240.430656 102.694196 241.082309 102.821975 
Q 241.733962 102.949753 242.202013 102.576592 
Q 242.670363 102.201897 242.821593 101.430647 
Q 242.973725 100.654796 242.680656 100.135576 
Q 242.387888 99.614823 241.736235 99.487045 
z
M 244.252458 96.829363 
L 244.079581 97.711011 
Q 243.748329 97.467725 243.395009 97.304502 
Q 243.041989 97.139745 242.677064 97.068189 
Q 241.71875 96.88028 241.085884 97.428117 
Q 240.454552 97.976254 240.126028 99.270029 
Q 240.489933 98.908292 240.959786 98.769545 
Q 241.431172 98.631099 241.943295 98.731518 
Q 243.021205 98.942879 243.518413 99.720266 
Q 244.01592 100.49612 243.795239 101.621563 
Q 243.579068 102.724006 242.79663 103.263214 
Q 242.014492 103.800888 240.931982 103.588625 
Q 239.690008 103.345095 239.220161 102.265767 
Q 238.750615 101.184907 239.104787 99.378678 
Q 239.437312 97.682847 240.440126 96.831779 
Q 241.442941 95.980711 242.798379 96.24649 
Q 243.163305 96.318046 243.520233 96.46287 
Q 243.877161 96.607693 244.252458 96.829363 
z
" clip-path="url(#pf3bbc17ce0)" style="fill: #cc4778; stroke: #ffffff; stroke-width: 5"/>
    <path d="M 232.853154 101.014117 
L 234.433988 101.324092 
L 235.504321 95.86554 
L 233.716309 95.873198 
L 233.889186 94.991549 
L 235.667998 94.982088 
L 236.635511 95.171801 
L 235.392301 101.512002 
L 236.973135 101.821978 
L 236.813487 102.636161 
L 232.693506 101.8283 
L 232.853154 101.014117 
z
M 241.736235 99.487045 
Q 241.084582 99.359266 240.615299 99.730594 
Q 240.14785 100.100689 239.995719 100.876539 
Q 239.844489 101.647789 240.136656 102.171609 
Q 240.430656 102.694196 241.082309 102.821975 
Q 241.733962 102.949753 242.202013 102.576592 
Q 242.670363 102.201897 242.821593 101.430647 
Q 242.973725 100.654796 242.680656 100.135576 
Q 242.387888 99.614823 241.736235 99.487045 
z
M 244.252458 96.829363 
L 244.079581 97.711011 
Q 243.748329 97.467725 243.395009 97.304502 
Q 243.041989 97.139745 242.677064 97.068189 
Q 241.71875 96.88028 241.085884 97.428117 
Q 240.454552 97.976254 240.126028 99.270029 
Q 240.489933 98.908292 240.959786 98.769545 
Q 241.431172 98.631099 241.943295 98.731518 
Q 243.021205 98.942879 243.518413 99.720266 
Q 244.01592 100.49612 243.795239 101.621563 
Q 243.579068 102.724006 242.79663 103.263214 
Q 242.014492 103.800888 240.931982 103.588625 
Q 239.690008 103.345095 239.220161 102.265767 
Q 238.750615 101.184907 239.104787 99.378678 
Q 239.437312 97.682847 240.440126 96.831779 
Q 241.442941 95.980711 242.798379 96.24649 
Q 243.163305 96.318046 243.520233 96.46287 
Q 243.877161 96.607693 244.252458 96.829363 
z
" clip-path="url(#pf3bbc17ce0)" style="fill: #cc4778"/>
   </g>
   <g id="text_17">
    <path d="M 276.200094 85.088607 
Q 276.896989 85.284328 277.262951 85.787996 
Q 277.630571 86.290203 277.586407 86.99194 
Q 277.51869 88.067936 276.740773 88.612337 
Q 275.962954 89.155179 274.598466 89.069306 
Q 274.141557 89.040551 273.662271 88.919583 
Q 273.182985 88.798615 272.678203 88.585238 
L 272.737971 87.635555 
Q 273.131522 87.899858 273.610405 88.052112 
Q 274.090847 88.204465 274.622607 88.237931 
Q 275.54734 88.296128 276.055283 87.961747 
Q 276.563226 87.627366 276.607095 86.930307 
Q 276.647627 86.286269 276.219725 85.896122 
Q 275.791921 85.504416 274.988822 85.453873 
L 274.140501 85.400485 
L 274.191436 84.591148 
L 275.078743 84.64699 
Q 275.803871 84.692626 276.2073 84.426816 
Q 276.61073 84.161005 276.645079 83.61521 
Q 276.680312 83.05538 276.301504 82.730947 
Q 275.924354 82.405052 275.183632 82.358435 
Q 274.778184 82.332918 274.309444 82.392657 
Q 273.840802 82.450836 273.274069 82.599909 
L 273.329224 81.723518 
Q 273.900428 81.602907 274.394991 81.555753 
Q 274.889554 81.508598 275.323072 81.535881 
Q 276.444291 81.606445 277.064034 82.157396 
Q 277.685435 82.706886 277.630869 83.573921 
Q 277.59279 84.178974 277.220397 84.573551 
Q 276.848003 84.968127 276.200094 85.088607 
z
M 280.220188 88.449308 
L 283.655578 88.665512 
L 283.603466 89.493562 
L 278.984479 89.202868 
L 279.036592 88.374819 
Q 279.63293 87.829949 280.661203 86.914603 
Q 281.691134 85.997795 281.956943 85.729586 
Q 282.462813 85.229122 282.673104 84.872877 
Q 282.884955 84.51673 282.907331 84.161184 
Q 282.943839 83.581081 282.559797 83.190563 
Q 282.175853 82.798486 281.522458 82.757365 
Q 281.059312 82.728217 280.534597 82.856451 
Q 280.011441 82.984782 279.40605 83.275456 
L 279.468664 82.28055 
Q 280.077817 82.079351 280.601638 81.990201 
Q 281.127019 81.901149 281.555858 81.928138 
Q 282.686434 81.99929 283.322916 82.607657 
Q 283.959497 83.214463 283.900024 84.159469 
Q 283.871759 84.60858 283.678022 85.00031 
Q 283.485943 85.390579 283.00716 85.908404 
Q 282.876595 86.042655 282.180705 86.676761 
Q 281.486375 87.310965 280.220188 88.449308 
z
" clip-path="url(#pf3bbc17ce0)" style="fill: #e66c5c; stroke: #ffffff; stroke-width: 5"/>
    <path d="M 276.200094 85.088607 
Q 276.896989 85.284328 277.262951 85.787996 
Q 277.630571 86.290203 277.586407 86.99194 
Q 277.51869 88.067936 276.740773 88.612337 
Q 275.962954 89.155179 274.598466 89.069306 
Q 274.141557 89.040551 273.662271 88.919583 
Q 273.182985 88.798615 272.678203 88.585238 
L 272.737971 87.635555 
Q 273.131522 87.899858 273.610405 88.052112 
Q 274.090847 88.204465 274.622607 88.237931 
Q 275.54734 88.296128 276.055283 87.961747 
Q 276.563226 87.627366 276.607095 86.930307 
Q 276.647627 86.286269 276.219725 85.896122 
Q 275.791921 85.504416 274.988822 85.453873 
L 274.140501 85.400485 
L 274.191436 84.591148 
L 275.078743 84.64699 
Q 275.803871 84.692626 276.2073 84.426816 
Q 276.61073 84.161005 276.645079 83.61521 
Q 276.680312 83.05538 276.301504 82.730947 
Q 275.924354 82.405052 275.183632 82.358435 
Q 274.778184 82.332918 274.309444 82.392657 
Q 273.840802 82.450836 273.274069 82.599909 
L 273.329224 81.723518 
Q 273.900428 81.602907 274.394991 81.555753 
Q 274.889554 81.508598 275.323072 81.535881 
Q 276.444291 81.606445 277.064034 82.157396 
Q 277.685435 82.706886 277.630869 83.573921 
Q 277.59279 84.178974 277.220397 84.573551 
Q 276.848003 84.968127 276.200094 85.088607 
z
M 280.220188 88.449308 
L 283.655578 88.665512 
L 283.603466 89.493562 
L 278.984479 89.202868 
L 279.036592 88.374819 
Q 279.63293 87.829949 280.661203 86.914603 
Q 281.691134 85.997795 281.956943 85.729586 
Q 282.462813 85.229122 282.673104 84.872877 
Q 282.884955 84.51673 282.907331 84.161184 
Q 282.943839 83.581081 282.559797 83.190563 
Q 282.175853 82.798486 281.522458 82.757365 
Q 281.059312 82.728217 280.534597 82.856451 
Q 280.011441 82.984782 279.40605 83.275456 
L 279.468664 82.28055 
Q 280.077817 82.079351 280.601638 81.990201 
Q 281.127019 81.901149 281.555858 81.928138 
Q 282.686434 81.99929 283.322916 82.607657 
Q 283.959497 83.214463 283.900024 84.159469 
Q 283.871759 84.60858 283.678022 85.00031 
Q 283.485943 85.390579 283.00716 85.908404 
Q 282.876595 86.042655 282.180705 86.676761 
Q 281.486375 87.310965 280.220188 88.449308 
z
" clip-path="url(#pf3bbc17ce0)" style="fill: #e66c5c"/>
   </g>
   <g id="text_18">
    <path d="M 315.483865 84.671769 
Q 314.820568 84.703644 314.453779 85.176483 
Q 314.088476 85.647686 314.126427 86.437399 
Q 314.164152 87.222431 314.573181 87.661116 
Q 314.983695 88.098165 315.646992 88.066289 
Q 316.310289 88.034414 316.675442 87.56009 
Q 317.04052 87.084205 317.002795 86.299173 
Q 316.964844 85.509459 316.556041 85.075457 
Q 316.147162 84.639894 315.483865 84.671769 
z
M 317.290994 81.48917 
L 317.33412 82.386572 
Q 316.954273 82.229624 316.572159 82.155693 
Q 316.18997 82.080201 315.818524 82.098051 
Q 314.843087 82.144927 314.359707 82.828292 
Q 313.877887 83.511582 313.86851 84.846383 
Q 314.135278 84.408073 314.558277 84.160921 
Q 314.982837 83.913695 315.504111 83.888645 
Q 316.601282 83.835919 317.270072 84.471737 
Q 317.938788 85.105995 317.993839 86.251548 
Q 318.047764 87.37369 317.417092 88.084469 
Q 316.786346 88.793688 315.684492 88.846639 
Q 314.420326 88.907389 313.705847 87.971856 
Q 312.991292 87.034763 312.902941 85.196259 
Q 312.81999 83.470126 313.590007 82.403811 
Q 314.360023 81.337496 315.739681 81.271195 
Q 316.111127 81.253345 316.492341 81.308547 
Q 316.873555 81.36375 317.290994 81.48917 
z
M 322.201509 81.952434 
L 319.900582 85.959686 
L 322.388336 85.840135 
L 322.201509 81.952434 
z
M 321.901182 81.1065 
L 323.140377 81.046949 
L 323.368455 85.793035 
L 324.40788 85.743084 
L 324.447256 86.562451 
L 323.40783 86.612402 
L 323.490331 88.32917 
L 322.510212 88.376271 
L 322.427711 86.659502 
L 319.140879 86.817454 
L 319.095204 85.866988 
L 321.901182 81.1065 
z
" clip-path="url(#pf3bbc17ce0)" style="fill: #f89540; stroke: #ffffff; stroke-width: 5"/>
    <path d="M 315.483865 84.671769 
Q 314.820568 84.703644 314.453779 85.176483 
Q 314.088476 85.647686 314.126427 86.437399 
Q 314.164152 87.222431 314.573181 87.661116 
Q 314.983695 88.098165 315.646992 88.066289 
Q 316.310289 88.034414 316.675442 87.56009 
Q 317.04052 87.084205 317.002795 86.299173 
Q 316.964844 85.509459 316.556041 85.075457 
Q 316.147162 84.639894 315.483865 84.671769 
z
M 317.290994 81.48917 
L 317.33412 82.386572 
Q 316.954273 82.229624 316.572159 82.155693 
Q 316.18997 82.080201 315.818524 82.098051 
Q 314.843087 82.144927 314.359707 82.828292 
Q 313.877887 83.511582 313.86851 84.846383 
Q 314.135278 84.408073 314.558277 84.160921 
Q 314.982837 83.913695 315.504111 83.888645 
Q 316.601282 83.835919 317.270072 84.471737 
Q 317.938788 85.105995 317.993839 86.251548 
Q 318.047764 87.37369 317.417092 88.084469 
Q 316.786346 88.793688 315.684492 88.846639 
Q 314.420326 88.907389 313.705847 87.971856 
Q 312.991292 87.034763 312.902941 85.196259 
Q 312.81999 83.470126 313.590007 82.403811 
Q 314.360023 81.337496 315.739681 81.271195 
Q 316.111127 81.253345 316.492341 81.308547 
Q 316.873555 81.36375 317.290994 81.48917 
z
M 322.201509 81.952434 
L 319.900582 85.959686 
L 322.388336 85.840135 
L 322.201509 81.952434 
z
M 321.901182 81.1065 
L 323.140377 81.046949 
L 323.368455 85.793035 
L 324.40788 85.743084 
L 324.447256 86.562451 
L 323.40783 86.612402 
L 323.490331 88.32917 
L 322.510212 88.376271 
L 322.427711 86.659502 
L 319.140879 86.817454 
L 319.095204 85.866988 
L 321.901182 81.1065 
z
" clip-path="url(#pf3bbc17ce0)" style="fill: #f89540"/>
   </g>
   <g id="text_19">
    <path d="M 350.277117 91.640475 
L 351.868734 91.889222 
L 352.727646 86.393435 
L 350.941261 86.470079 
L 351.07999 85.582417 
L 352.857112 85.504325 
L 353.831225 85.656565 
L 352.833584 92.040014 
L 354.425201 92.288761 
L 354.297088 93.108498 
L 350.149004 92.460212 
L 350.277117 91.640475 
z
M 357.233108 92.727596 
L 360.634013 93.259108 
L 360.5059 94.078845 
L 355.933281 93.364211 
L 356.061394 92.544474 
Q 356.705356 92.05681 357.813521 91.240002 
Q 358.92347 90.421891 359.212839 90.179288 
Q 359.762629 89.727514 360.00482 89.392138 
Q 360.248554 89.057004 360.303563 88.705027 
Q 360.393314 88.130748 360.046849 87.706537 
Q 359.700626 87.280783 359.05379 87.179692 
Q 358.595293 87.108035 358.061002 87.187424 
Q 357.528254 87.267055 356.898678 87.500769 
L 357.052606 86.51585 
Q 357.677693 86.371578 358.207496 86.331024 
Q 358.738844 86.290711 359.163378 86.35706 
Q 360.282604 86.531979 360.860385 87.19635 
Q 361.438407 87.859177 361.292199 88.794696 
Q 361.222714 89.239299 360.993741 89.611532 
Q 360.766553 89.982463 360.242137 90.454018 
Q 360.099769 90.575682 359.348464 91.143039 
Q 358.598704 91.710637 357.233108 92.727596 
z
M 365.169914 91.303232 
Q 364.475222 91.194661 364.018787 91.504461 
Q 363.563895 91.814501 363.462321 92.464424 
Q 363.360506 93.115891 363.699107 93.549943 
Q 364.039252 93.984236 364.733944 94.092807 
Q 365.428636 94.201377 365.886857 93.890275 
Q 366.346863 93.577871 366.447954 92.931035 
Q 366.549527 92.281112 366.209383 91.846819 
Q 365.870782 91.412767 365.169914 91.303232 
z
M 364.260461 90.737264 
Q 363.657821 90.484934 363.37446 90.001 
Q 363.092884 89.515765 363.189391 88.898261 
Q 363.324259 88.035299 364.017088 87.629601 
Q 364.71146 87.224144 365.781286 87.391343 
Q 366.857287 87.559506 367.391748 88.157011 
Q 367.926209 88.754517 367.79134 89.617479 
Q 367.694834 90.234983 367.277086 90.610924 
Q 366.861124 90.985563 366.214862 91.042709 
Q 366.893242 91.316365 367.210565 91.856213 
Q 367.529672 92.394758 367.422067 93.083275 
Q 367.258246 94.131488 366.531549 94.591989 
Q 365.805094 95.050945 364.613311 94.864687 
Q 363.423071 94.67867 362.869749 94.019703 
Q 362.318213 93.359433 362.482033 92.31122 
Q 362.589638 91.622702 363.059393 91.207445 
Q 363.530932 90.790885 364.260461 90.737264 
z
M 364.144396 89.142402 
Q 364.057057 89.701243 364.35697 90.069153 
Q 364.658426 90.437304 365.289824 90.535983 
Q 365.918135 90.634179 366.320633 90.376045 
Q 366.724675 90.118153 366.812014 89.559312 
Q 366.899594 88.998927 366.593507 88.630052 
Q 366.288963 88.261419 365.660652 88.163223 
Q 365.029254 88.064545 364.629843 88.32316 
Q 364.231976 88.582017 364.144396 89.142402 
z
" clip-path="url(#pf3bbc17ce0)" style="fill: #fdc527; stroke: #ffffff; stroke-width: 5"/>
    <path d="M 350.277117 91.640475 
L 351.868734 91.889222 
L 352.727646 86.393435 
L 350.941261 86.470079 
L 351.07999 85.582417 
L 352.857112 85.504325 
L 353.831225 85.656565 
L 352.833584 92.040014 
L 354.425201 92.288761 
L 354.297088 93.108498 
L 350.149004 92.460212 
L 350.277117 91.640475 
z
M 357.233108 92.727596 
L 360.634013 93.259108 
L 360.5059 94.078845 
L 355.933281 93.364211 
L 356.061394 92.544474 
Q 356.705356 92.05681 357.813521 91.240002 
Q 358.92347 90.421891 359.212839 90.179288 
Q 359.762629 89.727514 360.00482 89.392138 
Q 360.248554 89.057004 360.303563 88.705027 
Q 360.393314 88.130748 360.046849 87.706537 
Q 359.700626 87.280783 359.05379 87.179692 
Q 358.595293 87.108035 358.061002 87.187424 
Q 357.528254 87.267055 356.898678 87.500769 
L 357.052606 86.51585 
Q 357.677693 86.371578 358.207496 86.331024 
Q 358.738844 86.290711 359.163378 86.35706 
Q 360.282604 86.531979 360.860385 87.19635 
Q 361.438407 87.859177 361.292199 88.794696 
Q 361.222714 89.239299 360.993741 89.611532 
Q 360.766553 89.982463 360.242137 90.454018 
Q 360.099769 90.575682 359.348464 91.143039 
Q 358.598704 91.710637 357.233108 92.727596 
z
M 365.169914 91.303232 
Q 364.475222 91.194661 364.018787 91.504461 
Q 363.563895 91.814501 363.462321 92.464424 
Q 363.360506 93.115891 363.699107 93.549943 
Q 364.039252 93.984236 364.733944 94.092807 
Q 365.428636 94.201377 365.886857 93.890275 
Q 366.346863 93.577871 366.447954 92.931035 
Q 366.549527 92.281112 366.209383 91.846819 
Q 365.870782 91.412767 365.169914 91.303232 
z
M 364.260461 90.737264 
Q 363.657821 90.484934 363.37446 90.001 
Q 363.092884 89.515765 363.189391 88.898261 
Q 363.324259 88.035299 364.017088 87.629601 
Q 364.71146 87.224144 365.781286 87.391343 
Q 366.857287 87.559506 367.391748 88.157011 
Q 367.926209 88.754517 367.79134 89.617479 
Q 367.694834 90.234983 367.277086 90.610924 
Q 366.861124 90.985563 366.214862 91.042709 
Q 366.893242 91.316365 367.210565 91.856213 
Q 367.529672 92.394758 367.422067 93.083275 
Q 367.258246 94.131488 366.531549 94.591989 
Q 365.805094 95.050945 364.613311 94.864687 
Q 363.423071 94.67867 362.869749 94.019703 
Q 362.318213 93.359433 362.482033 92.31122 
Q 362.589638 91.622702 363.059393 91.207445 
Q 363.530932 90.790885 364.260461 90.737264 
z
M 364.144396 89.142402 
Q 364.057057 89.701243 364.35697 90.069153 
Q 364.658426 90.437304 365.289824 90.535983 
Q 365.918135 90.634179 366.320633 90.376045 
Q 366.724675 90.118153 366.812014 89.559312 
Q 366.899594 88.998927 366.593507 88.630052 
Q 366.288963 88.261419 365.660652 88.163223 
Q 365.029254 88.064545 364.629843 88.32316 
Q 364.231976 88.582017 364.144396 89.142402 
z
" clip-path="url(#pf3bbc17ce0)" style="fill: #fdc527"/>
   </g>
   <g id="patch_3">
    <path d="M 59.690625 301.735725 
L 59.690625 35.623725 
" style="fill: none; stroke: #cccccc; stroke-width: 0.8; stroke-linejoin: miter; stroke-linecap: square"/>
   </g>
   <g id="patch_4">
    <path d="M 416.810625 301.735725 
L 416.810625 35.623725 
" style="fill: none; stroke: #cccccc; stroke-width: 0.8; stroke-linejoin: miter; stroke-linecap: square"/>
   </g>
   <g id="patch_5">
    <path d="M 59.690625 301.735725 
L 416.810625 301.735725 
" style="fill: none; stroke: #cccccc; stroke-width: 0.8; stroke-linejoin: miter; stroke-linecap: square"/>
   </g>
   <g id="patch_6">
    <path d="M 59.690625 35.623725 
L 416.810625 35.623725 
" style="fill: none; stroke: #cccccc; stroke-width: 0.8; stroke-linejoin: miter; stroke-linecap: square"/>
   </g>
   <g id="text_20">
    <!-- Block Size = 4K, Read-Write Type = Random Write-only -->
    <g style="fill: #262626; opacity: 0.75" transform="translate(100.098281 30.882918) scale(0.1 -0.1)">
     <defs>
      <path id="DejaVuSans-42" d="M 1259 2228 
L 1259 519 
L 2272 519 
Q 2781 519 3026 730 
Q 3272 941 3272 1375 
Q 3272 1813 3026 2020 
Q 2781 2228 2272 2228 
L 1259 2228 
z
M 1259 4147 
L 1259 2741 
L 2194 2741 
Q 2656 2741 2882 2914 
Q 3109 3088 3109 3444 
Q 3109 3797 2882 3972 
Q 2656 4147 2194 4147 
L 1259 4147 
z
M 628 4666 
L 2241 4666 
Q 2963 4666 3353 4366 
Q 3744 4066 3744 3513 
Q 3744 3084 3544 2831 
Q 3344 2578 2956 2516 
Q 3422 2416 3680 2098 
Q 3938 1781 3938 1306 
Q 3938 681 3513 340 
Q 3088 0 2303 0 
L 628 0 
L 628 4666 
z
" transform="scale(0.015625)"/>
      <path id="DejaVuSans-6c" d="M 603 4863 
L 1178 4863 
L 1178 0 
L 603 0 
L 603 4863 
z
" transform="scale(0.015625)"/>
      <path id="DejaVuSans-63" d="M 3122 3366 
L 3122 2828 
Q 2878 2963 2633 3030 
Q 2388 3097 2138 3097 
Q 1578 3097 1268 2742 
Q 959 2388 959 1747 
Q 959 1106 1268 751 
Q 1578 397 2138 397 
Q 2388 397 2633 464 
Q 2878 531 3122 666 
L 3122 134 
Q 2881 22 2623 -34 
Q 2366 -91 2075 -91 
Q 1284 -91 818 406 
Q 353 903 353 1747 
Q 353 2603 823 3093 
Q 1294 3584 2113 3584 
Q 2378 3584 2631 3529 
Q 2884 3475 3122 3366 
z
" transform="scale(0.015625)"/>
      <path id="DejaVuSans-6b" d="M 581 4863 
L 1159 4863 
L 1159 1991 
L 2875 3500 
L 3609 3500 
L 1753 1863 
L 3688 0 
L 2938 0 
L 1159 1709 
L 1159 0 
L 581 0 
L 581 4863 
z
" transform="scale(0.015625)"/>
      <path id="DejaVuSans-69" d="M 603 3500 
L 1178 3500 
L 1178 0 
L 603 0 
L 603 3500 
z
M 603 4863 
L 1178 4863 
L 1178 4134 
L 603 4134 
L 603 4863 
z
" transform="scale(0.015625)"/>
      <path id="DejaVuSans-7a" d="M 353 3500 
L 3084 3500 
L 3084 2975 
L 922 459 
L 3084 459 
L 3084 0 
L 275 0 
L 275 525 
L 2438 3041 
L 353 3041 
L 353 3500 
z
" transform="scale(0.015625)"/>
      <path id="DejaVuSans-3d" d="M 678 2906 
L 4684 2906 
L 4684 2381 
L 678 2381 
L 678 2906 
z
M 678 1631 
L 4684 1631 
L 4684 1100 
L 678 1100 
L 678 1631 
z
" transform="scale(0.015625)"/>
      <path id="DejaVuSans-4b" d="M 628 4666 
L 1259 4666 
L 1259 2694 
L 3353 4666 
L 4166 4666 
L 1850 2491 
L 4331 0 
L 3500 0 
L 1259 2247 
L 1259 0 
L 628 0 
L 628 4666 
z
" transform="scale(0.015625)"/>
      <path id="DejaVuSans-2c" d="M 750 794 
L 1409 794 
L 1409 256 
L 897 -744 
L 494 -744 
L 750 256 
L 750 794 
z
" transform="scale(0.015625)"/>
      <path id="DejaVuSans-52" d="M 2841 2188 
Q 3044 2119 3236 1894 
Q 3428 1669 3622 1275 
L 4263 0 
L 3584 0 
L 2988 1197 
Q 2756 1666 2539 1819 
Q 2322 1972 1947 1972 
L 1259 1972 
L 1259 0 
L 628 0 
L 628 4666 
L 2053 4666 
Q 2853 4666 3247 4331 
Q 3641 3997 3641 3322 
Q 3641 2881 3436 2590 
Q 3231 2300 2841 2188 
z
M 1259 4147 
L 1259 2491 
L 2053 2491 
Q 2509 2491 2742 2702 
Q 2975 2913 2975 3322 
Q 2975 3731 2742 3939 
Q 2509 4147 2053 4147 
L 1259 4147 
z
" transform="scale(0.015625)"/>
      <path id="DejaVuSans-61" d="M 2194 1759 
Q 1497 1759 1228 1600 
Q 959 1441 959 1056 
Q 959 750 1161 570 
Q 1363 391 1709 391 
Q 2188 391 2477 730 
Q 2766 1069 2766 1631 
L 2766 1759 
L 2194 1759 
z
M 3341 1997 
L 3341 0 
L 2766 0 
L 2766 531 
Q 2569 213 2275 61 
Q 1981 -91 1556 -91 
Q 1019 -91 701 211 
Q 384 513 384 1019 
Q 384 1609 779 1909 
Q 1175 2209 1959 2209 
L 2766 2209 
L 2766 2266 
Q 2766 2663 2505 2880 
Q 2244 3097 1772 3097 
Q 1472 3097 1187 3025 
Q 903 2953 641 2809 
L 641 3341 
Q 956 3463 1253 3523 
Q 1550 3584 1831 3584 
Q 2591 3584 2966 3190 
Q 3341 2797 3341 1997 
z
" transform="scale(0.015625)"/>
      <path id="DejaVuSans-64" d="M 2906 2969 
L 2906 4863 
L 3481 4863 
L 3481 0 
L 2906 0 
L 2906 525 
Q 2725 213 2448 61 
Q 2172 -91 1784 -91 
Q 1150 -91 751 415 
Q 353 922 353 1747 
Q 353 2572 751 3078 
Q 1150 3584 1784 3584 
Q 2172 3584 2448 3432 
Q 2725 3281 2906 2969 
z
M 947 1747 
Q 947 1113 1208 752 
Q 1469 391 1925 391 
Q 2381 391 2643 752 
Q 2906 1113 2906 1747 
Q 2906 2381 2643 2742 
Q 2381 3103 1925 3103 
Q 1469 3103 1208 2742 
Q 947 2381 947 1747 
z
" transform="scale(0.015625)"/>
      <path id="DejaVuSans-2d" d="M 313 2009 
L 1997 2009 
L 1997 1497 
L 313 1497 
L 313 2009 
z
" transform="scale(0.015625)"/>
      <path id="DejaVuSans-57" d="M 213 4666 
L 850 4666 
L 1831 722 
L 2809 4666 
L 3519 4666 
L 4500 722 
L 5478 4666 
L 6119 4666 
L 4947 0 
L 4153 0 
L 3169 4050 
L 2175 0 
L 1381 0 
L 213 4666 
z
" transform="scale(0.015625)"/>
      <path id="DejaVuSans-74" d="M 1172 4494 
L 1172 3500 
L 2356 3500 
L 2356 3053 
L 1172 3053 
L 1172 1153 
Q 1172 725 1289 603 
Q 1406 481 1766 481 
L 2356 481 
L 2356 0 
L 1766 0 
Q 1100 0 847 248 
Q 594 497 594 1153 
L 594 3053 
L 172 3053 
L 172 3500 
L 594 3500 
L 594 4494 
L 1172 4494 
z
" transform="scale(0.015625)"/>
      <path id="DejaVuSans-54" d="M -19 4666 
L 3928 4666 
L 3928 4134 
L 2272 4134 
L 2272 0 
L 1638 0 
L 1638 4134 
L -19 4134 
L -19 4666 
z
" transform="scale(0.015625)"/>
      <path id="DejaVuSans-79" d="M 2059 -325 
Q 1816 -950 1584 -1140 
Q 1353 -1331 966 -1331 
L 506 -1331 
L 506 -850 
L 844 -850 
Q 1081 -850 1212 -737 
Q 1344 -625 1503 -206 
L 1606 56 
L 191 3500 
L 800 3500 
L 1894 763 
L 2988 3500 
L 3597 3500 
L 2059 -325 
z
" transform="scale(0.015625)"/>
      <path id="DejaVuSans-70" d="M 1159 525 
L 1159 -1331 
L 581 -1331 
L 581 3500 
L 1159 3500 
L 1159 2969 
Q 1341 3281 1617 3432 
Q 1894 3584 2278 3584 
Q 2916 3584 3314 3078 
Q 3713 2572 3713 1747 
Q 3713 922 3314 415 
Q 2916 -91 2278 -91 
Q 1894 -91 1617 61 
Q 1341 213 1159 525 
z
M 3116 1747 
Q 3116 2381 2855 2742 
Q 2594 3103 2138 3103 
Q 1681 3103 1420 2742 
Q 1159 2381 1159 1747 
Q 1159 1113 1420 752 
Q 1681 391 2138 391 
Q 2594 391 2855 752 
Q 3116 1113 3116 1747 
z
" transform="scale(0.015625)"/>
      <path id="DejaVuSans-6e" d="M 3513 2113 
L 3513 0 
L 2938 0 
L 2938 2094 
Q 2938 2591 2744 2837 
Q 2550 3084 2163 3084 
Q 1697 3084 1428 2787 
Q 1159 2491 1159 1978 
L 1159 0 
L 581 0 
L 581 3500 
L 1159 3500 
L 1159 2956 
Q 1366 3272 1645 3428 
Q 1925 3584 2291 3584 
Q 2894 3584 3203 3211 
Q 3513 2838 3513 2113 
z
" transform="scale(0.015625)"/>
     </defs>
     <use xlink:href="#DejaVuSans-42"/>
     <use xlink:href="#DejaVuSans-6c" transform="translate(68.603516 0)"/>
     <use xlink:href="#DejaVuSans-6f" transform="translate(96.386719 0)"/>
     <use xlink:href="#DejaVuSans-63" transform="translate(157.568359 0)"/>
     <use xlink:href="#DejaVuSans-6b" transform="translate(212.548828 0)"/>
     <use xlink:href="#DejaVuSans-20" transform="translate(270.458984 0)"/>
     <use xlink:href="#DejaVuSans-53" transform="translate(302.246094 0)"/>
     <use xlink:href="#DejaVuSans-69" transform="translate(365.722656 0)"/>
     <use xlink:href="#DejaVuSans-7a" transform="translate(393.505859 0)"/>
     <use xlink:href="#DejaVuSans-65" transform="translate(445.996094 0)"/>
     <use xlink:href="#DejaVuSans-20" transform="translate(507.519531 0)"/>
     <use xlink:href="#DejaVuSans-3d" transform="translate(539.306641 0)"/>
     <use xlink:href="#DejaVuSans-20" transform="translate(623.095703 0)"/>
     <use xlink:href="#DejaVuSans-34" transform="translate(654.882812 0)"/>
     <use xlink:href="#DejaVuSans-4b" transform="translate(718.505859 0)"/>
     <use xlink:href="#DejaVuSans-2c" transform="translate(784.082031 0)"/>
     <use xlink:href="#DejaVuSans-20" transform="translate(815.869141 0)"/>
     <use xlink:href="#DejaVuSans-52" transform="translate(847.65625 0)"/>
     <use xlink:href="#DejaVuSans-65" transform="translate(912.638672 0)"/>
     <use xlink:href="#DejaVuSans-61" transform="translate(974.162109 0)"/>
     <use xlink:href="#DejaVuSans-64" transform="translate(1035.441406 0)"/>
     <use xlink:href="#DejaVuSans-2d" transform="translate(1098.917969 0)"/>
     <use xlink:href="#DejaVuSans-57" transform="translate(1131.001953 0)"/>
     <use xlink:href="#DejaVuSans-72" transform="translate(1225.378906 0)"/>
     <use xlink:href="#DejaVuSans-69" transform="translate(1266.492188 0)"/>
     <use xlink:href="#DejaVuSans-74" transform="translate(1294.275391 0)"/>
     <use xlink:href="#DejaVuSans-65" transform="translate(1333.484375 0)"/>
     <use xlink:href="#DejaVuSans-20" transform="translate(1395.007812 0)"/>
     <use xlink:href="#DejaVuSans-54" transform="translate(1426.794922 0)"/>
     <use xlink:href="#DejaVuSans-79" transform="translate(1472.253906 0)"/>
     <use xlink:href="#DejaVuSans-70" transform="translate(1531.433594 0)"/>
     <use xlink:href="#DejaVuSans-65" transform="translate(1594.910156 0)"/>
     <use xlink:href="#DejaVuSans-20" transform="translate(1656.433594 0)"/>
     <use xlink:href="#DejaVuSans-3d" transform="translate(1688.220703 0)"/>
     <use xlink:href="#DejaVuSans-20" transform="translate(1772.009766 0)"/>
     <use xlink:href="#DejaVuSans-52" transform="translate(1803.796875 0)"/>
     <use xlink:href="#DejaVuSans-61" transform="translate(1871.029297 0)"/>
     <use xlink:href="#DejaVuSans-6e" transform="translate(1932.308594 0)"/>
     <use xlink:href="#DejaVuSans-64" transform="translate(1995.6875 0)"/>
     <use xlink:href="#DejaVuSans-6f" transform="translate(2059.164062 0)"/>
     <use xlink:href="#DejaVuSans-6d" transform="translate(2120.345703 0)"/>
     <use xlink:href="#DejaVuSans-20" transform="translate(2217.757812 0)"/>
     <use xlink:href="#DejaVuSans-57" transform="translate(2249.544922 0)"/>
     <use xlink:href="#DejaVuSans-72" transform="translate(2343.921875 0)"/>
     <use xlink:href="#DejaVuSans-69" transform="translate(2385.035156 0)"/>
     <use xlink:href="#DejaVuSans-74" transform="translate(2412.818359 0)"/>
     <use xlink:href="#DejaVuSans-65" transform="translate(2452.027344 0)"/>
     <use xlink:href="#DejaVuSans-2d" transform="translate(2513.550781 0)"/>
     <use xlink:href="#DejaVuSans-6f" transform="translate(2551.509766 0)"/>
     <use xlink:href="#DejaVuSans-6e" transform="translate(2612.691406 0)"/>
     <use xlink:href="#DejaVuSans-6c" transform="translate(2676.070312 0)"/>
     <use xlink:href="#DejaVuSans-79" transform="translate(2703.853516 0)"/>
    </g>
   </g>
   <g id="text_21">
    <!-- IOPS vs Number of Jobs -->
    <g style="fill: #262626" transform="translate(158.541562 16.318125) scale(0.12 -0.12)">
     <defs>
      <path id="DejaVuSans-Bold-49" d="M 588 4666 
L 1791 4666 
L 1791 0 
L 588 0 
L 588 4666 
z
" transform="scale(0.015625)"/>
      <path id="DejaVuSans-Bold-4f" d="M 2719 3878 
Q 2169 3878 1866 3472 
Q 1563 3066 1563 2328 
Q 1563 1594 1866 1187 
Q 2169 781 2719 781 
Q 3272 781 3575 1187 
Q 3878 1594 3878 2328 
Q 3878 3066 3575 3472 
Q 3272 3878 2719 3878 
z
M 2719 4750 
Q 3844 4750 4481 4106 
Q 5119 3463 5119 2328 
Q 5119 1197 4481 553 
Q 3844 -91 2719 -91 
Q 1597 -91 958 553 
Q 319 1197 319 2328 
Q 319 3463 958 4106 
Q 1597 4750 2719 4750 
z
" transform="scale(0.015625)"/>
      <path id="DejaVuSans-Bold-50" d="M 588 4666 
L 2584 4666 
Q 3475 4666 3951 4270 
Q 4428 3875 4428 3144 
Q 4428 2409 3951 2014 
Q 3475 1619 2584 1619 
L 1791 1619 
L 1791 0 
L 588 0 
L 588 4666 
z
M 1791 3794 
L 1791 2491 
L 2456 2491 
Q 2806 2491 2997 2661 
Q 3188 2831 3188 3144 
Q 3188 3456 2997 3625 
Q 2806 3794 2456 3794 
L 1791 3794 
z
" transform="scale(0.015625)"/>
      <path id="DejaVuSans-Bold-53" d="M 3834 4519 
L 3834 3531 
Q 3450 3703 3084 3790 
Q 2719 3878 2394 3878 
Q 1963 3878 1756 3759 
Q 1550 3641 1550 3391 
Q 1550 3203 1689 3098 
Q 1828 2994 2194 2919 
L 2706 2816 
Q 3484 2659 3812 2340 
Q 4141 2022 4141 1434 
Q 4141 663 3683 286 
Q 3225 -91 2284 -91 
Q 1841 -91 1394 -6 
Q 947 78 500 244 
L 500 1259 
Q 947 1022 1364 901 
Q 1781 781 2169 781 
Q 2563 781 2772 912 
Q 2981 1044 2981 1288 
Q 2981 1506 2839 1625 
Q 2697 1744 2272 1838 
L 1806 1941 
Q 1106 2091 782 2419 
Q 459 2747 459 3303 
Q 459 4000 909 4375 
Q 1359 4750 2203 4750 
Q 2588 4750 2994 4692 
Q 3400 4634 3834 4519 
z
" transform="scale(0.015625)"/>
      <path id="DejaVuSans-Bold-20" transform="scale(0.015625)"/>
      <path id="DejaVuSans-Bold-76" d="M 97 3500 
L 1216 3500 
L 2088 1081 
L 2956 3500 
L 4078 3500 
L 2700 0 
L 1472 0 
L 97 3500 
z
" transform="scale(0.015625)"/>
      <path id="DejaVuSans-Bold-73" d="M 3272 3391 
L 3272 2541 
Q 2913 2691 2578 2766 
Q 2244 2841 1947 2841 
Q 1628 2841 1473 2761 
Q 1319 2681 1319 2516 
Q 1319 2381 1436 2309 
Q 1553 2238 1856 2203 
L 2053 2175 
Q 2913 2066 3209 1816 
Q 3506 1566 3506 1031 
Q 3506 472 3093 190 
Q 2681 -91 1863 -91 
Q 1516 -91 1145 -36 
Q 775 19 384 128 
L 384 978 
Q 719 816 1070 734 
Q 1422 653 1784 653 
Q 2113 653 2278 743 
Q 2444 834 2444 1013 
Q 2444 1163 2330 1236 
Q 2216 1309 1875 1350 
L 1678 1375 
Q 931 1469 631 1722 
Q 331 1975 331 2491 
Q 331 3047 712 3315 
Q 1094 3584 1881 3584 
Q 2191 3584 2531 3537 
Q 2872 3491 3272 3391 
z
" transform="scale(0.015625)"/>
      <path id="DejaVuSans-Bold-4e" d="M 588 4666 
L 1931 4666 
L 3628 1466 
L 3628 4666 
L 4769 4666 
L 4769 0 
L 3425 0 
L 1728 3200 
L 1728 0 
L 588 0 
L 588 4666 
z
" transform="scale(0.015625)"/>
      <path id="DejaVuSans-Bold-75" d="M 500 1363 
L 500 3500 
L 1625 3500 
L 1625 3150 
Q 1625 2866 1622 2436 
Q 1619 2006 1619 1863 
Q 1619 1441 1641 1255 
Q 1663 1069 1716 984 
Q 1784 875 1895 815 
Q 2006 756 2150 756 
Q 2500 756 2700 1025 
Q 2900 1294 2900 1772 
L 2900 3500 
L 4019 3500 
L 4019 0 
L 2900 0 
L 2900 506 
Q 2647 200 2364 54 
Q 2081 -91 1741 -91 
Q 1134 -91 817 281 
Q 500 653 500 1363 
z
" transform="scale(0.015625)"/>
      <path id="DejaVuSans-Bold-6d" d="M 3781 2919 
Q 3994 3244 4286 3414 
Q 4578 3584 4928 3584 
Q 5531 3584 5847 3212 
Q 6163 2841 6163 2131 
L 6163 0 
L 5038 0 
L 5038 1825 
Q 5041 1866 5042 1909 
Q 5044 1953 5044 2034 
Q 5044 2406 4934 2573 
Q 4825 2741 4581 2741 
Q 4263 2741 4089 2478 
Q 3916 2216 3909 1719 
L 3909 0 
L 2784 0 
L 2784 1825 
Q 2784 2406 2684 2573 
Q 2584 2741 2328 2741 
Q 2006 2741 1831 2477 
Q 1656 2213 1656 1722 
L 1656 0 
L 531 0 
L 531 3500 
L 1656 3500 
L 1656 2988 
Q 1863 3284 2130 3434 
Q 2397 3584 2719 3584 
Q 3081 3584 3359 3409 
Q 3638 3234 3781 2919 
z
" transform="scale(0.015625)"/>
      <path id="DejaVuSans-Bold-62" d="M 2400 722 
Q 2759 722 2948 984 
Q 3138 1247 3138 1747 
Q 3138 2247 2948 2509 
Q 2759 2772 2400 2772 
Q 2041 2772 1848 2508 
Q 1656 2244 1656 1747 
Q 1656 1250 1848 986 
Q 2041 722 2400 722 
z
M 1656 2988 
Q 1888 3294 2169 3439 
Q 2450 3584 2816 3584 
Q 3463 3584 3878 3070 
Q 4294 2556 4294 1747 
Q 4294 938 3878 423 
Q 3463 -91 2816 -91 
Q 2450 -91 2169 54 
Q 1888 200 1656 506 
L 1656 0 
L 538 0 
L 538 4863 
L 1656 4863 
L 1656 2988 
z
" transform="scale(0.015625)"/>
      <path id="DejaVuSans-Bold-65" d="M 4031 1759 
L 4031 1441 
L 1416 1441 
Q 1456 1047 1700 850 
Q 1944 653 2381 653 
Q 2734 653 3104 758 
Q 3475 863 3866 1075 
L 3866 213 
Q 3469 63 3072 -14 
Q 2675 -91 2278 -91 
Q 1328 -91 801 392 
Q 275 875 275 1747 
Q 275 2603 792 3093 
Q 1309 3584 2216 3584 
Q 3041 3584 3536 3087 
Q 4031 2591 4031 1759 
z
M 2881 2131 
Q 2881 2450 2695 2645 
Q 2509 2841 2209 2841 
Q 1884 2841 1681 2658 
Q 1478 2475 1428 2131 
L 2881 2131 
z
" transform="scale(0.015625)"/>
      <path id="DejaVuSans-Bold-72" d="M 3138 2547 
Q 2991 2616 2845 2648 
Q 2700 2681 2553 2681 
Q 2122 2681 1889 2404 
Q 1656 2128 1656 1613 
L 1656 0 
L 538 0 
L 538 3500 
L 1656 3500 
L 1656 2925 
Q 1872 3269 2151 3426 
Q 2431 3584 2822 3584 
Q 2878 3584 2943 3579 
Q 3009 3575 3134 3559 
L 3138 2547 
z
" transform="scale(0.015625)"/>
      <path id="DejaVuSans-Bold-6f" d="M 2203 2784 
Q 1831 2784 1636 2517 
Q 1441 2250 1441 1747 
Q 1441 1244 1636 976 
Q 1831 709 2203 709 
Q 2569 709 2762 976 
Q 2956 1244 2956 1747 
Q 2956 2250 2762 2517 
Q 2569 2784 2203 2784 
z
M 2203 3584 
Q 3106 3584 3614 3096 
Q 4122 2609 4122 1747 
Q 4122 884 3614 396 
Q 3106 -91 2203 -91 
Q 1297 -91 786 396 
Q 275 884 275 1747 
Q 275 2609 786 3096 
Q 1297 3584 2203 3584 
z
" transform="scale(0.015625)"/>
      <path id="DejaVuSans-Bold-66" d="M 2841 4863 
L 2841 4128 
L 2222 4128 
Q 1984 4128 1890 4042 
Q 1797 3956 1797 3744 
L 1797 3500 
L 2753 3500 
L 2753 2700 
L 1797 2700 
L 1797 0 
L 678 0 
L 678 2700 
L 122 2700 
L 122 3500 
L 678 3500 
L 678 3744 
Q 678 4316 997 4589 
Q 1316 4863 1984 4863 
L 2841 4863 
z
" transform="scale(0.015625)"/>
      <path id="DejaVuSans-Bold-4a" d="M 588 4666 
L 1791 4666 
L 1791 453 
Q 1791 -419 1317 -850 
Q 844 -1281 -116 -1281 
L -359 -1281 
L -359 -372 
L -172 -372 
Q 203 -372 395 -162 
Q 588 47 588 453 
L 588 4666 
z
" transform="scale(0.015625)"/>
     </defs>
     <use xlink:href="#DejaVuSans-Bold-49"/>
     <use xlink:href="#DejaVuSans-Bold-4f" transform="translate(37.207031 0)"/>
     <use xlink:href="#DejaVuSans-Bold-50" transform="translate(122.216797 0)"/>
     <use xlink:href="#DejaVuSans-Bold-53" transform="translate(195.507812 0)"/>
     <use xlink:href="#DejaVuSans-Bold-20" transform="translate(267.529297 0)"/>
     <use xlink:href="#DejaVuSans-Bold-76" transform="translate(302.34375 0)"/>
     <use xlink:href="#DejaVuSans-Bold-73" transform="translate(367.529297 0)"/>
     <use xlink:href="#DejaVuSans-Bold-20" transform="translate(427.050781 0)"/>
     <use xlink:href="#DejaVuSans-Bold-4e" transform="translate(461.865234 0)"/>
     <use xlink:href="#DejaVuSans-Bold-75" transform="translate(545.556641 0)"/>
     <use xlink:href="#DejaVuSans-Bold-6d" transform="translate(616.748047 0)"/>
     <use xlink:href="#DejaVuSans-Bold-62" transform="translate(720.947266 0)"/>
     <use xlink:href="#DejaVuSans-Bold-65" transform="translate(792.529297 0)"/>
     <use xlink:href="#DejaVuSans-Bold-72" transform="translate(860.351562 0)"/>
     <use xlink:href="#DejaVuSans-Bold-20" transform="translate(909.667969 0)"/>
     <use xlink:href="#DejaVuSans-Bold-6f" transform="translate(944.482422 0)"/>
     <use xlink:href="#DejaVuSans-Bold-66" transform="translate(1013.183594 0)"/>
     <use xlink:href="#DejaVuSans-Bold-20" transform="translate(1056.689453 0)"/>
     <use xlink:href="#DejaVuSans-Bold-4a" transform="translate(1091.503906 0)"/>
     <use xlink:href="#DejaVuSans-Bold-6f" transform="translate(1128.710938 0)"/>
     <use xlink:href="#DejaVuSans-Bold-62" transform="translate(1197.412109 0)"/>
     <use xlink:href="#DejaVuSans-Bold-73" transform="translate(1268.994141 0)"/>
    </g>
   </g>
   <g id="legend_1">
    <g id="text_22">
     <!-- IO Depth -->
     <g style="fill: #262626" transform="translate(451.317187 120.065663) scale(0.1 -0.1)">
      <defs>
       <path id="DejaVuSans-44" d="M 1259 4147 
L 1259 519 
L 2022 519 
Q 2988 519 3436 956 
Q 3884 1394 3884 2338 
Q 3884 3275 3436 3711 
Q 2988 4147 2022 4147 
L 1259 4147 
z
M 628 4666 
L 1925 4666 
Q 3281 4666 3915 4102 
Q 4550 3538 4550 2338 
Q 4550 1131 3912 565 
Q 3275 0 1925 0 
L 628 0 
L 628 4666 
z
" transform="scale(0.015625)"/>
       <path id="DejaVuSans-68" d="M 3513 2113 
L 3513 0 
L 2938 0 
L 2938 2094 
Q 2938 2591 2744 2837 
Q 2550 3084 2163 3084 
Q 1697 3084 1428 2787 
Q 1159 2491 1159 1978 
L 1159 0 
L 581 0 
L 581 4863 
L 1159 4863 
L 1159 2956 
Q 1366 3272 1645 3428 
Q 1925 3584 2291 3584 
Q 2894 3584 3203 3211 
Q 3513 2838 3513 2113 
z
" transform="scale(0.015625)"/>
      </defs>
      <use xlink:href="#DejaVuSans-49"/>
      <use xlink:href="#DejaVuSans-4f" transform="translate(29.492188 0)"/>
      <use xlink:href="#DejaVuSans-20" transform="translate(108.203125 0)"/>
      <use xlink:href="#DejaVuSans-44" transform="translate(139.990234 0)"/>
      <use xlink:href="#DejaVuSans-65" transform="translate(216.992188 0)"/>
      <use xlink:href="#DejaVuSans-70" transform="translate(278.515625 0)"/>
      <use xlink:href="#DejaVuSans-74" transform="translate(341.992188 0)"/>
      <use xlink:href="#DejaVuSans-68" transform="translate(381.201172 0)"/>
     </g>
    </g>
    <g id="line2d_25">
     <path d="M 450.003125 131.243787 
L 460.003125 131.243787 
L 470.003125 131.243787 
" style="fill: none; stroke: #4c02a1; stroke-width: 1.5; stroke-linecap: round"/>
    </g>
    <g id="text_23">
     <!-- 1 -->
     <g style="fill: #262626" transform="translate(478.003125 134.743787) scale(0.1 -0.1)">
      <use xlink:href="#DejaVuSans-31"/>
     </g>
    </g>
    <g id="line2d_26">
     <path d="M 450.003125 145.921913 
L 460.003125 145.921913 
L 470.003125 145.921913 
" style="fill: none; stroke: #7e03a8; stroke-width: 1.5; stroke-linecap: round"/>
    </g>
    <g id="text_24">
     <!-- 4 -->
     <g style="fill: #262626" transform="translate(478.003125 149.421913) scale(0.1 -0.1)">
      <use xlink:href="#DejaVuSans-34"/>
     </g>
    </g>
    <g id="line2d_27">
     <path d="M 450.003125 160.600037 
L 460.003125 160.600037 
L 470.003125 160.600037 
" style="fill: none; stroke: #aa2395; stroke-width: 1.5; stroke-linecap: round"/>
    </g>
    <g id="text_25">
     <!-- 8 -->
     <g style="fill: #262626" transform="translate(478.003125 164.100037) scale(0.1 -0.1)">
      <use xlink:href="#DejaVuSans-38"/>
     </g>
    </g>
    <g id="line2d_28">
     <path d="M 450.003125 175.278163 
L 460.003125 175.278163 
L 470.003125 175.278163 
" style="fill: none; stroke: #cc4778; stroke-width: 1.5; stroke-linecap: round"/>
    </g>
    <g id="text_26">
     <!-- 16 -->
     <g style="fill: #262626" transform="translate(478.003125 178.778163) scale(0.1 -0.1)">
      <use xlink:href="#DejaVuSans-31"/>
      <use xlink:href="#DejaVuSans-36" transform="translate(63.623047 0)"/>
     </g>
    </g>
    <g id="line2d_29">
     <path d="M 450.003125 189.956288 
L 460.003125 189.956288 
L 470.003125 189.956288 
" style="fill: none; stroke: #e66c5c; stroke-width: 1.5; stroke-linecap: round"/>
    </g>
    <g id="text_27">
     <!-- 32 -->
     <g style="fill: #262626" transform="translate(478.003125 193.456288) scale(0.1 -0.1)">
      <use xlink:href="#DejaVuSans-33"/>
      <use xlink:href="#DejaVuSans-32" transform="translate(63.623047 0)"/>
     </g>
    </g>
    <g id="line2d_30">
     <path d="M 450.003125 204.634412 
L 460.003125 204.634412 
L 470.003125 204.634412 
" style="fill: none; stroke: #f89540; stroke-width: 1.5; stroke-linecap: round"/>
    </g>
    <g id="text_28">
     <!-- 64 -->
     <g style="fill: #262626" transform="translate(478.003125 208.134412) scale(0.1 -0.1)">
      <use xlink:href="#DejaVuSans-36"/>
      <use xlink:href="#DejaVuSans-34" transform="translate(63.623047 0)"/>
     </g>
    </g>
    <g id="line2d_31">
     <path d="M 450.003125 219.312537 
L 460.003125 219.312537 
L 470.003125 219.312537 
" style="fill: none; stroke: #fdc527; stroke-width: 1.5; stroke-linecap: round"/>
    </g>
    <g id="text_29">
     <!-- 128 -->
     <g style="fill: #262626" transform="translate(478.003125 222.812537) scale(0.1 -0.1)">
      <use xlink:href="#DejaVuSans-31"/>
      <use xlink:href="#DejaVuSans-32" transform="translate(63.623047 0)"/>
      <use xlink:href="#DejaVuSans-38" transform="translate(127.246094 0)"/>
     </g>
    </g>
   </g>
  </g>
 </g>
 <defs>
  <clipPath id="pf3bbc17ce0">
   <rect x="59.690625" y="35.623725" width="357.12" height="266.112"/>
  </clipPath>
 </defs>
</svg>
