<?xml version="1.0" encoding="utf-8" standalone="no"?>
<!DOCTYPE svg PUBLIC "-//W3C//DTD SVG 1.1//EN"
  "http://www.w3.org/Graphics/SVG/1.1/DTD/svg11.dtd">
<svg xmlns:xlink="http://www.w3.org/1999/xlink" width="501.928125pt" height="339.291975pt" viewBox="0 0 501.928125 339.291975" xmlns="http://www.w3.org/2000/svg" version="1.1">
 <metadata>
  <rdf:RDF xmlns:dc="http://purl.org/dc/elements/1.1/" xmlns:cc="http://creativecommons.org/ns#" xmlns:rdf="http://www.w3.org/1999/02/22-rdf-syntax-ns#">
   <cc:Work>
    <dc:type rdf:resource="http://purl.org/dc/dcmitype/StillImage"/>
    <dc:date>2025-09-11T11:34:35.462683</dc:date>
    <dc:format>image/svg+xml</dc:format>
    <dc:creator>
     <cc:Agent>
      <dc:title>Matplotlib v3.10.6, https://matplotlib.org/</dc:title>
     </cc:Agent>
    </dc:creator>
   </cc:Work>
  </rdf:RDF>
 </metadata>
 <defs>
  <style type="text/css">*{stroke-linejoin: round; stroke-linecap: butt}</style>
 </defs>
 <g id="figure_1">
  <g id="patch_1">
   <path d="M 0 339.291975 
L 501.928125 339.291975 
L 501.928125 0 
L 0 0 
z
" style="fill: #ffffff"/>
  </g>
  <g id="axes_1">
   <g id="patch_2">
    <path d="M 53.328125 301.735725 
L 410.448125 301.735725 
L 410.448125 35.623725 
L 53.328125 35.623725 
z
" style="fill: #ffffff"/>
   </g>
   <g id="matplotlib.axis_1">
    <g id="xtick_1">
     <g id="line2d_1">
      <path d="M 115.940073 301.735725 
L 115.940073 35.623725 
" clip-path="url(#pea813505e4)" style="fill: none; stroke: #cccccc; stroke-width: 0.8; stroke-linecap: round"/>
     </g>
     <g id="text_1">
      <!-- 32 -->
      <g style="fill: #262626" transform="translate(109.577573 316.334162) scale(0.1 -0.1)">
       <defs>
        <path id="DejaVuSans-33" d="M 2597 2516 
Q 3050 2419 3304 2112 
Q 3559 1806 3559 1356 
Q 3559 666 3084 287 
Q 2609 -91 1734 -91 
Q 1441 -91 1130 -33 
Q 819 25 488 141 
L 488 750 
Q 750 597 1062 519 
Q 1375 441 1716 441 
Q 2309 441 2620 675 
Q 2931 909 2931 1356 
Q 2931 1769 2642 2001 
Q 2353 2234 1838 2234 
L 1294 2234 
L 1294 2753 
L 1863 2753 
Q 2328 2753 2575 2939 
Q 2822 3125 2822 3475 
Q 2822 3834 2567 4026 
Q 2313 4219 1838 4219 
Q 1578 4219 1281 4162 
Q 984 4106 628 3988 
L 628 4550 
Q 988 4650 1302 4700 
Q 1616 4750 1894 4750 
Q 2613 4750 3031 4423 
Q 3450 4097 3450 3541 
Q 3450 3153 3228 2886 
Q 3006 2619 2597 2516 
z
" transform="scale(0.015625)"/>
        <path id="DejaVuSans-32" d="M 1228 531 
L 3431 531 
L 3431 0 
L 469 0 
L 469 531 
Q 828 903 1448 1529 
Q 2069 2156 2228 2338 
Q 2531 2678 2651 2914 
Q 2772 3150 2772 3378 
Q 2772 3750 2511 3984 
Q 2250 4219 1831 4219 
Q 1534 4219 1204 4116 
Q 875 4013 500 3803 
L 500 4441 
Q 881 4594 1212 4672 
Q 1544 4750 1819 4750 
Q 2544 4750 2975 4387 
Q 3406 4025 3406 3419 
Q 3406 3131 3298 2873 
Q 3191 2616 2906 2266 
Q 2828 2175 2409 1742 
Q 1991 1309 1228 531 
z
" transform="scale(0.015625)"/>
       </defs>
       <use xlink:href="#DejaVuSans-33"/>
       <use xlink:href="#DejaVuSans-32" transform="translate(63.623047 0)"/>
      </g>
     </g>
    </g>
    <g id="xtick_2">
     <g id="line2d_2">
      <path d="M 208.698515 301.735725 
L 208.698515 35.623725 
" clip-path="url(#pea813505e4)" style="fill: none; stroke: #cccccc; stroke-width: 0.8; stroke-linecap: round"/>
     </g>
     <g id="text_2">
      <!-- 64 -->
      <g style="fill: #262626" transform="translate(202.336015 316.334162) scale(0.1 -0.1)">
       <defs>
        <path id="DejaVuSans-36" d="M 2113 2584 
Q 1688 2584 1439 2293 
Q 1191 2003 1191 1497 
Q 1191 994 1439 701 
Q 1688 409 2113 409 
Q 2538 409 2786 701 
Q 3034 994 3034 1497 
Q 3034 2003 2786 2293 
Q 2538 2584 2113 2584 
z
M 3366 4563 
L 3366 3988 
Q 3128 4100 2886 4159 
Q 2644 4219 2406 4219 
Q 1781 4219 1451 3797 
Q 1122 3375 1075 2522 
Q 1259 2794 1537 2939 
Q 1816 3084 2150 3084 
Q 2853 3084 3261 2657 
Q 3669 2231 3669 1497 
Q 3669 778 3244 343 
Q 2819 -91 2113 -91 
Q 1303 -91 875 529 
Q 447 1150 447 2328 
Q 447 3434 972 4092 
Q 1497 4750 2381 4750 
Q 2619 4750 2861 4703 
Q 3103 4656 3366 4563 
z
" transform="scale(0.015625)"/>
        <path id="DejaVuSans-34" d="M 2419 4116 
L 825 1625 
L 2419 1625 
L 2419 4116 
z
M 2253 4666 
L 3047 4666 
L 3047 1625 
L 3713 1625 
L 3713 1100 
L 3047 1100 
L 3047 0 
L 2419 0 
L 2419 1100 
L 313 1100 
L 313 1709 
L 2253 4666 
z
" transform="scale(0.015625)"/>
       </defs>
       <use xlink:href="#DejaVuSans-36"/>
       <use xlink:href="#DejaVuSans-34" transform="translate(63.623047 0)"/>
      </g>
     </g>
    </g>
    <g id="xtick_3">
     <g id="line2d_3">
      <path d="M 69.560852 301.735725 
L 69.560852 35.623725 
" clip-path="url(#pea813505e4)" style="fill: none; stroke: #cccccc; stroke-width: 0.8; stroke-linecap: round"/>
     </g>
     <g id="text_3">
      <!-- 16 -->
      <g style="fill: #262626" transform="translate(63.198352 316.334162) scale(0.1 -0.1)">
       <defs>
        <path id="DejaVuSans-31" d="M 794 531 
L 1825 531 
L 1825 4091 
L 703 3866 
L 703 4441 
L 1819 4666 
L 2450 4666 
L 2450 531 
L 3481 531 
L 3481 0 
L 794 0 
L 794 531 
z
" transform="scale(0.015625)"/>
       </defs>
       <use xlink:href="#DejaVuSans-31"/>
       <use xlink:href="#DejaVuSans-36" transform="translate(63.623047 0)"/>
      </g>
     </g>
    </g>
    <g id="xtick_4">
     <g id="line2d_4">
      <path d="M 394.215398 301.735725 
L 394.215398 35.623725 
" clip-path="url(#pea813505e4)" style="fill: none; stroke: #cccccc; stroke-width: 0.8; stroke-linecap: round"/>
     </g>
     <g id="text_4">
      <!-- 128 -->
      <g style="fill: #262626" transform="translate(384.671648 316.334162) scale(0.1 -0.1)">
       <defs>
        <path id="DejaVuSans-38" d="M 2034 2216 
Q 1584 2216 1326 1975 
Q 1069 1734 1069 1313 
Q 1069 891 1326 650 
Q 1584 409 2034 409 
Q 2484 409 2743 651 
Q 3003 894 3003 1313 
Q 3003 1734 2745 1975 
Q 2488 2216 2034 2216 
z
M 1403 2484 
Q 997 2584 770 2862 
Q 544 3141 544 3541 
Q 544 4100 942 4425 
Q 1341 4750 2034 4750 
Q 2731 4750 3128 4425 
Q 3525 4100 3525 3541 
Q 3525 3141 3298 2862 
Q 3072 2584 2669 2484 
Q 3125 2378 3379 2068 
Q 3634 1759 3634 1313 
Q 3634 634 3220 271 
Q 2806 -91 2034 -91 
Q 1263 -91 848 271 
Q 434 634 434 1313 
Q 434 1759 690 2068 
Q 947 2378 1403 2484 
z
M 1172 3481 
Q 1172 3119 1398 2916 
Q 1625 2713 2034 2713 
Q 2441 2713 2670 2916 
Q 2900 3119 2900 3481 
Q 2900 3844 2670 4047 
Q 2441 4250 2034 4250 
Q 1625 4250 1398 4047 
Q 1172 3844 1172 3481 
z
" transform="scale(0.015625)"/>
       </defs>
       <use xlink:href="#DejaVuSans-31"/>
       <use xlink:href="#DejaVuSans-32" transform="translate(63.623047 0)"/>
       <use xlink:href="#DejaVuSans-38" transform="translate(127.246094 0)"/>
      </g>
     </g>
    </g>
    <g id="text_5">
     <!-- Number of Jobs -->
     <g style="fill: #262626" transform="translate(193.49125 330.012287) scale(0.1 -0.1)">
      <defs>
       <path id="DejaVuSans-4e" d="M 628 4666 
L 1478 4666 
L 3547 763 
L 3547 4666 
L 4159 4666 
L 4159 0 
L 3309 0 
L 1241 3903 
L 1241 0 
L 628 0 
L 628 4666 
z
" transform="scale(0.015625)"/>
       <path id="DejaVuSans-75" d="M 544 1381 
L 544 3500 
L 1119 3500 
L 1119 1403 
Q 1119 906 1312 657 
Q 1506 409 1894 409 
Q 2359 409 2629 706 
Q 2900 1003 2900 1516 
L 2900 3500 
L 3475 3500 
L 3475 0 
L 2900 0 
L 2900 538 
Q 2691 219 2414 64 
Q 2138 -91 1772 -91 
Q 1169 -91 856 284 
Q 544 659 544 1381 
z
M 1991 3584 
L 1991 3584 
z
" transform="scale(0.015625)"/>
       <path id="DejaVuSans-6d" d="M 3328 2828 
Q 3544 3216 3844 3400 
Q 4144 3584 4550 3584 
Q 5097 3584 5394 3201 
Q 5691 2819 5691 2113 
L 5691 0 
L 5113 0 
L 5113 2094 
Q 5113 2597 4934 2840 
Q 4756 3084 4391 3084 
Q 3944 3084 3684 2787 
Q 3425 2491 3425 1978 
L 3425 0 
L 2847 0 
L 2847 2094 
Q 2847 2600 2669 2842 
Q 2491 3084 2119 3084 
Q 1678 3084 1418 2786 
Q 1159 2488 1159 1978 
L 1159 0 
L 581 0 
L 581 3500 
L 1159 3500 
L 1159 2956 
Q 1356 3278 1631 3431 
Q 1906 3584 2284 3584 
Q 2666 3584 2933 3390 
Q 3200 3197 3328 2828 
z
" transform="scale(0.015625)"/>
       <path id="DejaVuSans-62" d="M 3116 1747 
Q 3116 2381 2855 2742 
Q 2594 3103 2138 3103 
Q 1681 3103 1420 2742 
Q 1159 2381 1159 1747 
Q 1159 1113 1420 752 
Q 1681 391 2138 391 
Q 2594 391 2855 752 
Q 3116 1113 3116 1747 
z
M 1159 2969 
Q 1341 3281 1617 3432 
Q 1894 3584 2278 3584 
Q 2916 3584 3314 3078 
Q 3713 2572 3713 1747 
Q 3713 922 3314 415 
Q 2916 -91 2278 -91 
Q 1894 -91 1617 61 
Q 1341 213 1159 525 
L 1159 0 
L 581 0 
L 581 4863 
L 1159 4863 
L 1159 2969 
z
" transform="scale(0.015625)"/>
       <path id="DejaVuSans-65" d="M 3597 1894 
L 3597 1613 
L 953 1613 
Q 991 1019 1311 708 
Q 1631 397 2203 397 
Q 2534 397 2845 478 
Q 3156 559 3463 722 
L 3463 178 
Q 3153 47 2828 -22 
Q 2503 -91 2169 -91 
Q 1331 -91 842 396 
Q 353 884 353 1716 
Q 353 2575 817 3079 
Q 1281 3584 2069 3584 
Q 2775 3584 3186 3129 
Q 3597 2675 3597 1894 
z
M 3022 2063 
Q 3016 2534 2758 2815 
Q 2500 3097 2075 3097 
Q 1594 3097 1305 2825 
Q 1016 2553 972 2059 
L 3022 2063 
z
" transform="scale(0.015625)"/>
       <path id="DejaVuSans-72" d="M 2631 2963 
Q 2534 3019 2420 3045 
Q 2306 3072 2169 3072 
Q 1681 3072 1420 2755 
Q 1159 2438 1159 1844 
L 1159 0 
L 581 0 
L 581 3500 
L 1159 3500 
L 1159 2956 
Q 1341 3275 1631 3429 
Q 1922 3584 2338 3584 
Q 2397 3584 2469 3576 
Q 2541 3569 2628 3553 
L 2631 2963 
z
" transform="scale(0.015625)"/>
       <path id="DejaVuSans-20" transform="scale(0.015625)"/>
       <path id="DejaVuSans-6f" d="M 1959 3097 
Q 1497 3097 1228 2736 
Q 959 2375 959 1747 
Q 959 1119 1226 758 
Q 1494 397 1959 397 
Q 2419 397 2687 759 
Q 2956 1122 2956 1747 
Q 2956 2369 2687 2733 
Q 2419 3097 1959 3097 
z
M 1959 3584 
Q 2709 3584 3137 3096 
Q 3566 2609 3566 1747 
Q 3566 888 3137 398 
Q 2709 -91 1959 -91 
Q 1206 -91 779 398 
Q 353 888 353 1747 
Q 353 2609 779 3096 
Q 1206 3584 1959 3584 
z
" transform="scale(0.015625)"/>
       <path id="DejaVuSans-66" d="M 2375 4863 
L 2375 4384 
L 1825 4384 
Q 1516 4384 1395 4259 
Q 1275 4134 1275 3809 
L 1275 3500 
L 2222 3500 
L 2222 3053 
L 1275 3053 
L 1275 0 
L 697 0 
L 697 3053 
L 147 3053 
L 147 3500 
L 697 3500 
L 697 3744 
Q 697 4328 969 4595 
Q 1241 4863 1831 4863 
L 2375 4863 
z
" transform="scale(0.015625)"/>
       <path id="DejaVuSans-4a" d="M 628 4666 
L 1259 4666 
L 1259 325 
Q 1259 -519 939 -900 
Q 619 -1281 -91 -1281 
L -331 -1281 
L -331 -750 
L -134 -750 
Q 284 -750 456 -515 
Q 628 -281 628 325 
L 628 4666 
z
" transform="scale(0.015625)"/>
       <path id="DejaVuSans-73" d="M 2834 3397 
L 2834 2853 
Q 2591 2978 2328 3040 
Q 2066 3103 1784 3103 
Q 1356 3103 1142 2972 
Q 928 2841 928 2578 
Q 928 2378 1081 2264 
Q 1234 2150 1697 2047 
L 1894 2003 
Q 2506 1872 2764 1633 
Q 3022 1394 3022 966 
Q 3022 478 2636 193 
Q 2250 -91 1575 -91 
Q 1294 -91 989 -36 
Q 684 19 347 128 
L 347 722 
Q 666 556 975 473 
Q 1284 391 1588 391 
Q 1994 391 2212 530 
Q 2431 669 2431 922 
Q 2431 1156 2273 1281 
Q 2116 1406 1581 1522 
L 1381 1569 
Q 847 1681 609 1914 
Q 372 2147 372 2553 
Q 372 3047 722 3315 
Q 1072 3584 1716 3584 
Q 2034 3584 2315 3537 
Q 2597 3491 2834 3397 
z
" transform="scale(0.015625)"/>
      </defs>
      <use xlink:href="#DejaVuSans-4e"/>
      <use xlink:href="#DejaVuSans-75" transform="translate(74.804688 0)"/>
      <use xlink:href="#DejaVuSans-6d" transform="translate(138.183594 0)"/>
      <use xlink:href="#DejaVuSans-62" transform="translate(235.595703 0)"/>
      <use xlink:href="#DejaVuSans-65" transform="translate(299.072266 0)"/>
      <use xlink:href="#DejaVuSans-72" transform="translate(360.595703 0)"/>
      <use xlink:href="#DejaVuSans-20" transform="translate(401.708984 0)"/>
      <use xlink:href="#DejaVuSans-6f" transform="translate(433.496094 0)"/>
      <use xlink:href="#DejaVuSans-66" transform="translate(494.677734 0)"/>
      <use xlink:href="#DejaVuSans-20" transform="translate(529.882812 0)"/>
      <use xlink:href="#DejaVuSans-4a" transform="translate(561.669922 0)"/>
      <use xlink:href="#DejaVuSans-6f" transform="translate(591.162109 0)"/>
      <use xlink:href="#DejaVuSans-62" transform="translate(652.34375 0)"/>
      <use xlink:href="#DejaVuSans-73" transform="translate(715.820312 0)"/>
     </g>
    </g>
   </g>
   <g id="matplotlib.axis_2">
    <g id="ytick_1">
     <g id="line2d_5">
      <path d="M 53.328125 291.509499 
L 410.448125 291.509499 
" clip-path="url(#pea813505e4)" style="fill: none; stroke: #cccccc; stroke-width: 0.8; stroke-linecap: round"/>
     </g>
     <g id="text_6">
      <!-- 750 -->
      <g style="fill: #262626" transform="translate(27.240625 295.308718) scale(0.1 -0.1)">
       <defs>
        <path id="DejaVuSans-37" d="M 525 4666 
L 3525 4666 
L 3525 4397 
L 1831 0 
L 1172 0 
L 2766 4134 
L 525 4134 
L 525 4666 
z
" transform="scale(0.015625)"/>
        <path id="DejaVuSans-35" d="M 691 4666 
L 3169 4666 
L 3169 4134 
L 1269 4134 
L 1269 2991 
Q 1406 3038 1543 3061 
Q 1681 3084 1819 3084 
Q 2600 3084 3056 2656 
Q 3513 2228 3513 1497 
Q 3513 744 3044 326 
Q 2575 -91 1722 -91 
Q 1428 -91 1123 -41 
Q 819 9 494 109 
L 494 744 
Q 775 591 1075 516 
Q 1375 441 1709 441 
Q 2250 441 2565 725 
Q 2881 1009 2881 1497 
Q 2881 1984 2565 2268 
Q 2250 2553 1709 2553 
Q 1456 2553 1204 2497 
Q 953 2441 691 2322 
L 691 4666 
z
" transform="scale(0.015625)"/>
        <path id="DejaVuSans-30" d="M 2034 4250 
Q 1547 4250 1301 3770 
Q 1056 3291 1056 2328 
Q 1056 1369 1301 889 
Q 1547 409 2034 409 
Q 2525 409 2770 889 
Q 3016 1369 3016 2328 
Q 3016 3291 2770 3770 
Q 2525 4250 2034 4250 
z
M 2034 4750 
Q 2819 4750 3233 4129 
Q 3647 3509 3647 2328 
Q 3647 1150 3233 529 
Q 2819 -91 2034 -91 
Q 1250 -91 836 529 
Q 422 1150 422 2328 
Q 422 3509 836 4129 
Q 1250 4750 2034 4750 
z
" transform="scale(0.015625)"/>
       </defs>
       <use xlink:href="#DejaVuSans-37"/>
       <use xlink:href="#DejaVuSans-35" transform="translate(63.623047 0)"/>
       <use xlink:href="#DejaVuSans-30" transform="translate(127.246094 0)"/>
      </g>
     </g>
    </g>
    <g id="ytick_2">
     <g id="line2d_6">
      <path d="M 53.328125 255.552305 
L 410.448125 255.552305 
" clip-path="url(#pea813505e4)" style="fill: none; stroke: #cccccc; stroke-width: 0.8; stroke-linecap: round"/>
     </g>
     <g id="text_7">
      <!-- 1000 -->
      <g style="fill: #262626" transform="translate(20.878125 259.351524) scale(0.1 -0.1)">
       <use xlink:href="#DejaVuSans-31"/>
       <use xlink:href="#DejaVuSans-30" transform="translate(63.623047 0)"/>
       <use xlink:href="#DejaVuSans-30" transform="translate(127.246094 0)"/>
       <use xlink:href="#DejaVuSans-30" transform="translate(190.869141 0)"/>
      </g>
     </g>
    </g>
    <g id="ytick_3">
     <g id="line2d_7">
      <path d="M 53.328125 219.595111 
L 410.448125 219.595111 
" clip-path="url(#pea813505e4)" style="fill: none; stroke: #cccccc; stroke-width: 0.8; stroke-linecap: round"/>
     </g>
     <g id="text_8">
      <!-- 1250 -->
      <g style="fill: #262626" transform="translate(20.878125 223.39433) scale(0.1 -0.1)">
       <use xlink:href="#DejaVuSans-31"/>
       <use xlink:href="#DejaVuSans-32" transform="translate(63.623047 0)"/>
       <use xlink:href="#DejaVuSans-35" transform="translate(127.246094 0)"/>
       <use xlink:href="#DejaVuSans-30" transform="translate(190.869141 0)"/>
      </g>
     </g>
    </g>
    <g id="ytick_4">
     <g id="line2d_8">
      <path d="M 53.328125 183.637918 
L 410.448125 183.637918 
" clip-path="url(#pea813505e4)" style="fill: none; stroke: #cccccc; stroke-width: 0.8; stroke-linecap: round"/>
     </g>
     <g id="text_9">
      <!-- 1500 -->
      <g style="fill: #262626" transform="translate(20.878125 187.437136) scale(0.1 -0.1)">
       <use xlink:href="#DejaVuSans-31"/>
       <use xlink:href="#DejaVuSans-35" transform="translate(63.623047 0)"/>
       <use xlink:href="#DejaVuSans-30" transform="translate(127.246094 0)"/>
       <use xlink:href="#DejaVuSans-30" transform="translate(190.869141 0)"/>
      </g>
     </g>
    </g>
    <g id="ytick_5">
     <g id="line2d_9">
      <path d="M 53.328125 147.680724 
L 410.448125 147.680724 
" clip-path="url(#pea813505e4)" style="fill: none; stroke: #cccccc; stroke-width: 0.8; stroke-linecap: round"/>
     </g>
     <g id="text_10">
      <!-- 1750 -->
      <g style="fill: #262626" transform="translate(20.878125 151.479943) scale(0.1 -0.1)">
       <use xlink:href="#DejaVuSans-31"/>
       <use xlink:href="#DejaVuSans-37" transform="translate(63.623047 0)"/>
       <use xlink:href="#DejaVuSans-35" transform="translate(127.246094 0)"/>
       <use xlink:href="#DejaVuSans-30" transform="translate(190.869141 0)"/>
      </g>
     </g>
    </g>
    <g id="ytick_6">
     <g id="line2d_10">
      <path d="M 53.328125 111.72353 
L 410.448125 111.72353 
" clip-path="url(#pea813505e4)" style="fill: none; stroke: #cccccc; stroke-width: 0.8; stroke-linecap: round"/>
     </g>
     <g id="text_11">
      <!-- 2000 -->
      <g style="fill: #262626" transform="translate(20.878125 115.522749) scale(0.1 -0.1)">
       <use xlink:href="#DejaVuSans-32"/>
       <use xlink:href="#DejaVuSans-30" transform="translate(63.623047 0)"/>
       <use xlink:href="#DejaVuSans-30" transform="translate(127.246094 0)"/>
       <use xlink:href="#DejaVuSans-30" transform="translate(190.869141 0)"/>
      </g>
     </g>
    </g>
    <g id="ytick_7">
     <g id="line2d_11">
      <path d="M 53.328125 75.766336 
L 410.448125 75.766336 
" clip-path="url(#pea813505e4)" style="fill: none; stroke: #cccccc; stroke-width: 0.8; stroke-linecap: round"/>
     </g>
     <g id="text_12">
      <!-- 2250 -->
      <g style="fill: #262626" transform="translate(20.878125 79.565555) scale(0.1 -0.1)">
       <use xlink:href="#DejaVuSans-32"/>
       <use xlink:href="#DejaVuSans-32" transform="translate(63.623047 0)"/>
       <use xlink:href="#DejaVuSans-35" transform="translate(127.246094 0)"/>
       <use xlink:href="#DejaVuSans-30" transform="translate(190.869141 0)"/>
      </g>
     </g>
    </g>
    <g id="ytick_8">
     <g id="line2d_12">
      <path d="M 53.328125 39.809142 
L 410.448125 39.809142 
" clip-path="url(#pea813505e4)" style="fill: none; stroke: #cccccc; stroke-width: 0.8; stroke-linecap: round"/>
     </g>
     <g id="text_13">
      <!-- 2500 -->
      <g style="fill: #262626" transform="translate(20.878125 43.608361) scale(0.1 -0.1)">
       <use xlink:href="#DejaVuSans-32"/>
       <use xlink:href="#DejaVuSans-35" transform="translate(63.623047 0)"/>
       <use xlink:href="#DejaVuSans-30" transform="translate(127.246094 0)"/>
       <use xlink:href="#DejaVuSans-30" transform="translate(190.869141 0)"/>
      </g>
     </g>
    </g>
    <g id="text_14">
     <!-- IOPS -->
     <g style="fill: #262626" transform="translate(14.798438 180.279725) rotate(-90) scale(0.1 -0.1)">
      <defs>
       <path id="DejaVuSans-49" d="M 628 4666 
L 1259 4666 
L 1259 0 
L 628 0 
L 628 4666 
z
" transform="scale(0.015625)"/>
       <path id="DejaVuSans-4f" d="M 2522 4238 
Q 1834 4238 1429 3725 
Q 1025 3213 1025 2328 
Q 1025 1447 1429 934 
Q 1834 422 2522 422 
Q 3209 422 3611 934 
Q 4013 1447 4013 2328 
Q 4013 3213 3611 3725 
Q 3209 4238 2522 4238 
z
M 2522 4750 
Q 3503 4750 4090 4092 
Q 4678 3434 4678 2328 
Q 4678 1225 4090 567 
Q 3503 -91 2522 -91 
Q 1538 -91 948 565 
Q 359 1222 359 2328 
Q 359 3434 948 4092 
Q 1538 4750 2522 4750 
z
" transform="scale(0.015625)"/>
       <path id="DejaVuSans-50" d="M 1259 4147 
L 1259 2394 
L 2053 2394 
Q 2494 2394 2734 2622 
Q 2975 2850 2975 3272 
Q 2975 3691 2734 3919 
Q 2494 4147 2053 4147 
L 1259 4147 
z
M 628 4666 
L 2053 4666 
Q 2838 4666 3239 4311 
Q 3641 3956 3641 3272 
Q 3641 2581 3239 2228 
Q 2838 1875 2053 1875 
L 1259 1875 
L 1259 0 
L 628 0 
L 628 4666 
z
" transform="scale(0.015625)"/>
       <path id="DejaVuSans-53" d="M 3425 4513 
L 3425 3897 
Q 3066 4069 2747 4153 
Q 2428 4238 2131 4238 
Q 1616 4238 1336 4038 
Q 1056 3838 1056 3469 
Q 1056 3159 1242 3001 
Q 1428 2844 1947 2747 
L 2328 2669 
Q 3034 2534 3370 2195 
Q 3706 1856 3706 1288 
Q 3706 609 3251 259 
Q 2797 -91 1919 -91 
Q 1588 -91 1214 -16 
Q 841 59 441 206 
L 441 856 
Q 825 641 1194 531 
Q 1563 422 1919 422 
Q 2459 422 2753 634 
Q 3047 847 3047 1241 
Q 3047 1584 2836 1778 
Q 2625 1972 2144 2069 
L 1759 2144 
Q 1053 2284 737 2584 
Q 422 2884 422 3419 
Q 422 4038 858 4394 
Q 1294 4750 2059 4750 
Q 2388 4750 2728 4690 
Q 3069 4631 3425 4513 
z
" transform="scale(0.015625)"/>
      </defs>
      <use xlink:href="#DejaVuSans-49"/>
      <use xlink:href="#DejaVuSans-4f" transform="translate(29.492188 0)"/>
      <use xlink:href="#DejaVuSans-50" transform="translate(108.203125 0)"/>
      <use xlink:href="#DejaVuSans-53" transform="translate(168.505859 0)"/>
     </g>
    </g>
   </g>
   <g id="FillBetweenPolyCollection_1"/>
   <g id="FillBetweenPolyCollection_2"/>
   <g id="FillBetweenPolyCollection_3"/>
   <g id="FillBetweenPolyCollection_4"/>
   <g id="FillBetweenPolyCollection_5"/>
   <g id="FillBetweenPolyCollection_6"/>
   <g id="FillBetweenPolyCollection_7"/>
   <g id="line2d_13">
    <path d="M 69.560852 137.900367 
L 115.940073 206.506693 
L 208.698515 239.443482 
L 394.215398 266.195635 
" clip-path="url(#pea813505e4)" style="fill: none; stroke: #4c02a1; stroke-width: 1.5; stroke-linecap: round"/>
   </g>
   <g id="line2d_14">
    <path d="M 69.560852 131.428072 
L 115.940073 176.734136 
L 208.698515 265.907977 
L 394.215398 282.160629 
" clip-path="url(#pea813505e4)" style="fill: none; stroke: #7e03a8; stroke-width: 1.5; stroke-linecap: round"/>
   </g>
   <g id="line2d_15">
    <path d="M 69.560852 47.719725 
L 115.940073 203.917775 
L 208.698515 273.099416 
L 394.215398 289.639725 
" clip-path="url(#pea813505e4)" style="fill: none; stroke: #aa2395; stroke-width: 1.5; stroke-linecap: round"/>
   </g>
   <g id="line2d_16">
    <path d="M 69.560852 57.931568 
L 115.940073 154.153019 
L 208.698515 218.156824 
L 394.215398 242.176229 
" clip-path="url(#pea813505e4)" style="fill: none; stroke: #cc4778; stroke-width: 1.5; stroke-linecap: round"/>
   </g>
   <g id="line2d_17">
    <path d="M 69.560852 163.789547 
L 115.940073 146.673922 
L 208.698515 218.300652 
L 394.215398 270.079012 
" clip-path="url(#pea813505e4)" style="fill: none; stroke: #e66c5c; stroke-width: 1.5; stroke-linecap: round"/>
   </g>
   <g id="line2d_18">
    <path d="M 69.560852 96.333851 
L 115.940073 156.022793 
L 208.698515 267.92158 
L 394.215398 247.785551 
" clip-path="url(#pea813505e4)" style="fill: none; stroke: #f89540; stroke-width: 1.5; stroke-linecap: round"/>
   </g>
   <g id="line2d_19">
    <path d="M 69.560852 148.11221 
L 115.940073 203.773946 
L 208.698515 262.312258 
L 394.215398 260.010997 
" clip-path="url(#pea813505e4)" style="fill: none; stroke: #fdc527; stroke-width: 1.5; stroke-linecap: round"/>
   </g>
   <g id="line2d_20"/>
   <g id="line2d_21"/>
   <g id="line2d_22"/>
   <g id="line2d_23"/>
   <g id="line2d_24"/>
   <g id="line2d_25"/>
   <g id="line2d_26"/>
   <g id="text_15">
    <path d="M 108.674609 199.204822 
L 109.57682 200.539414 
L 114.185111 197.424119 
L 112.912013 196.168624 
L 113.65633 195.665452 
L 114.924177 196.913179 
L 115.476354 197.729986 
L 110.123747 201.348453 
L 111.025957 202.683046 
L 110.338597 203.147715 
L 107.987249 199.669491 
L 108.674609 199.204822 
z
" clip-path="url(#pea813505e4)" style="fill: #4c02a1; stroke: #ffffff; stroke-width: 5"/>
    <path d="M 108.674609 199.204822 
L 109.57682 200.539414 
L 114.185111 197.424119 
L 112.912013 196.168624 
L 113.65633 195.665452 
L 114.924177 196.913179 
L 115.476354 197.729986 
L 110.123747 201.348453 
L 111.025957 202.683046 
L 110.338597 203.147715 
L 107.987249 199.669491 
L 108.674609 199.204822 
z
" clip-path="url(#pea813505e4)" style="fill: #4c02a1"/>
   </g>
   <g id="text_16">
    <path d="M 154.512295 208.722288 
L 150.019364 209.802059 
L 151.814853 211.528162 
L 154.512295 208.722288 
z
M 154.920893 207.923008 
L 155.815258 208.782811 
L 152.522235 212.208208 
L 153.27242 212.929403 
L 152.703911 213.520765 
L 151.953725 212.79957 
L 150.762562 214.038615 
L 150.05518 213.35857 
L 151.246343 212.119524 
L 148.874135 209.838989 
L 149.533606 209.153009 
L 154.920893 207.923008 
z
" clip-path="url(#pea813505e4)" style="fill: #7e03a8; stroke: #ffffff; stroke-width: 5"/>
    <path d="M 154.512295 208.722288 
L 150.019364 209.802059 
L 151.814853 211.528162 
L 154.512295 208.722288 
z
M 154.920893 207.923008 
L 155.815258 208.782811 
L 152.522235 212.208208 
L 153.27242 212.929403 
L 152.703911 213.520765 
L 151.953725 212.79957 
L 150.762562 214.038615 
L 150.05518 213.35857 
L 151.246343 212.119524 
L 148.874135 209.838989 
L 149.533606 209.153009 
L 154.920893 207.923008 
z
" clip-path="url(#pea813505e4)" style="fill: #7e03a8"/>
   </g>
   <g id="text_17">
    <path d="M 192.129988 259.865032 
Q 191.56636 259.444665 191.018084 259.505507 
Q 190.47106 259.567284 190.077782 260.094589 
Q 189.683571 260.623146 189.780334 261.165077 
Q 189.87835 261.707941 190.441978 262.128309 
Q 191.005605 262.548677 191.556068 262.487515 
Q 192.108718 262.426036 192.500127 261.901236 
Q 192.893405 261.373932 192.795389 260.831067 
Q 192.698625 260.289137 192.129988 259.865032 
z
M 191.590009 258.939912 
Q 191.174907 258.435396 191.150283 257.875148 
Q 191.127845 257.314581 191.501505 256.813579 
Q 192.023695 256.113428 192.825791 256.078156 
Q 193.629139 256.043818 194.497125 256.691184 
Q 195.370121 257.342287 195.563767 258.120209 
Q 195.757413 258.898131 195.235222 259.598282 
Q 194.861562 260.099284 194.316615 260.23668 
Q 193.773855 260.373759 193.175681 260.122547 
Q 193.647803 260.681285 193.676353 261.306836 
Q 193.707089 261.932068 193.290458 262.490685 
Q 192.65617 263.341136 191.798536 263.409057 
Q 190.941836 263.475726 189.974902 262.754561 
Q 189.009221 262.034331 188.827594 261.193252 
Q 188.648153 260.351854 189.282442 259.501403 
Q 189.699073 258.942786 190.308367 258.794905 
Q 190.919847 258.646705 191.590009 258.939912 
z
M 192.232029 257.475376 
Q 191.893866 257.928782 191.9873 258.394159 
Q 192.081986 258.86047 192.594261 259.242537 
Q 193.10403 259.622737 193.580486 259.582399 
Q 194.058195 259.542995 194.396358 259.089588 
Q 194.735454 258.634928 194.637011 258.165815 
Q 194.53982 257.697636 194.03005 257.317437 
Q 193.517776 256.935369 193.043824 256.977576 
Q 192.571126 257.020716 192.232029 257.475376 
z
" clip-path="url(#pea813505e4)" style="fill: #aa2395; stroke: #ffffff; stroke-width: 5"/>
    <path d="M 192.129988 259.865032 
Q 191.56636 259.444665 191.018084 259.505507 
Q 190.47106 259.567284 190.077782 260.094589 
Q 189.683571 260.623146 189.780334 261.165077 
Q 189.87835 261.707941 190.441978 262.128309 
Q 191.005605 262.548677 191.556068 262.487515 
Q 192.108718 262.426036 192.500127 261.901236 
Q 192.893405 261.373932 192.795389 260.831067 
Q 192.698625 260.289137 192.129988 259.865032 
z
M 191.590009 258.939912 
Q 191.174907 258.435396 191.150283 257.875148 
Q 191.127845 257.314581 191.501505 256.813579 
Q 192.023695 256.113428 192.825791 256.078156 
Q 193.629139 256.043818 194.497125 256.691184 
Q 195.370121 257.342287 195.563767 258.120209 
Q 195.757413 258.898131 195.235222 259.598282 
Q 194.861562 260.099284 194.316615 260.23668 
Q 193.773855 260.373759 193.175681 260.122547 
Q 193.647803 260.681285 193.676353 261.306836 
Q 193.707089 261.932068 193.290458 262.490685 
Q 192.65617 263.341136 191.798536 263.409057 
Q 190.941836 263.475726 189.974902 262.754561 
Q 189.009221 262.034331 188.827594 261.193252 
Q 188.648153 260.351854 189.282442 259.501403 
Q 189.699073 258.942786 190.308367 258.794905 
Q 190.919847 258.646705 191.590009 258.939912 
z
M 192.232029 257.475376 
Q 191.893866 257.928782 191.9873 258.394159 
Q 192.081986 258.86047 192.594261 259.242537 
Q 193.10403 259.622737 193.580486 259.582399 
Q 194.058195 259.542995 194.396358 259.089588 
Q 194.735454 258.634928 194.637011 258.165815 
Q 194.53982 257.697636 194.03005 257.317437 
Q 193.517776 256.935369 193.043824 256.977576 
Q 192.571126 257.020716 192.232029 257.475376 
z
" clip-path="url(#pea813505e4)" style="fill: #aa2395"/>
   </g>
   <g id="text_18">
    <path d="M 226.560873 222.415309 
L 228.158476 222.622155 
L 228.872707 217.1057 
L 227.088953 217.229249 
L 227.204313 216.338248 
L 228.97877 216.213495 
L 229.956546 216.340091 
L 229.126955 222.747547 
L 230.724557 222.954393 
L 230.618025 223.777213 
L 226.45434 223.238129 
L 226.560873 222.415309 
z
M 235.326277 220.315604 
Q 234.667712 220.230337 234.223487 220.631305 
Q 233.781013 221.030924 233.679496 221.815004 
Q 233.578581 222.594436 233.904089 223.098214 
Q 234.231348 223.600644 234.889914 223.68591 
Q 235.54848 223.771176 235.991355 223.368458 
Q 236.434431 222.964191 236.535346 222.184759 
Q 236.636863 221.400679 236.310753 220.901549 
Q 235.984843 220.40087 235.326277 220.315604 
z
M 237.664924 217.500398 
L 237.549564 218.391398 
Q 237.203237 218.170098 236.840079 218.030122 
Q 236.477122 217.888596 236.108325 217.840847 
Q 235.139846 217.715455 234.543825 218.303165 
Q 233.949353 218.891076 233.705389 220.203426 
Q 234.045079 219.818859 234.50495 219.649947 
Q 234.966369 219.481234 235.483925 219.548244 
Q 236.57327 219.689284 237.119825 220.432805 
Q 237.666581 221.174776 237.519321 222.312157 
Q 237.37507 223.426295 236.629232 224.01509 
Q 235.883594 224.602335 234.789601 224.460693 
Q 233.534452 224.298185 232.995626 223.251586 
Q 232.457001 222.203437 232.69334 220.378048 
Q 232.915233 218.664228 233.860767 217.749943 
Q 234.806302 216.835657 236.176119 217.013011 
Q 236.544915 217.060761 236.910481 217.182142 
Q 237.276046 217.303523 237.664924 217.500398 
z
" clip-path="url(#pea813505e4)" style="fill: #cc4778; stroke: #ffffff; stroke-width: 5"/>
    <path d="M 226.560873 222.415309 
L 228.158476 222.622155 
L 228.872707 217.1057 
L 227.088953 217.229249 
L 227.204313 216.338248 
L 228.97877 216.213495 
L 229.956546 216.340091 
L 229.126955 222.747547 
L 230.724557 222.954393 
L 230.618025 223.777213 
L 226.45434 223.238129 
L 226.560873 222.415309 
z
M 235.326277 220.315604 
Q 234.667712 220.230337 234.223487 220.631305 
Q 233.781013 221.030924 233.679496 221.815004 
Q 233.578581 222.594436 233.904089 223.098214 
Q 234.231348 223.600644 234.889914 223.68591 
Q 235.54848 223.771176 235.991355 223.368458 
Q 236.434431 222.964191 236.535346 222.184759 
Q 236.636863 221.400679 236.310753 220.901549 
Q 235.984843 220.40087 235.326277 220.315604 
z
M 237.664924 217.500398 
L 237.549564 218.391398 
Q 237.203237 218.170098 236.840079 218.030122 
Q 236.477122 217.888596 236.108325 217.840847 
Q 235.139846 217.715455 234.543825 218.303165 
Q 233.949353 218.891076 233.705389 220.203426 
Q 234.045079 219.818859 234.50495 219.649947 
Q 234.966369 219.481234 235.483925 219.548244 
Q 236.57327 219.689284 237.119825 220.432805 
Q 237.666581 221.174776 237.519321 222.312157 
Q 237.37507 223.426295 236.629232 224.01509 
Q 235.883594 224.602335 234.789601 224.460693 
Q 233.534452 224.298185 232.995626 223.251586 
Q 232.457001 222.203437 232.69334 220.378048 
Q 232.915233 218.664228 233.860767 217.749943 
Q 234.806302 216.835657 236.176119 217.013011 
Q 236.544915 217.060761 236.910481 217.182142 
Q 237.276046 217.303523 237.664924 217.500398 
z
" clip-path="url(#pea813505e4)" style="fill: #cc4778"/>
   </g>
   <g id="text_19">
    <path d="M 270.159312 234.237896 
Q 270.800324 234.574159 271.053635 235.14288 
Q 271.308871 235.710516 271.119851 236.387757 
Q 270.83002 237.426194 269.955957 237.797061 
Q 269.082314 238.166422 267.765455 237.798883 
Q 267.324496 237.67581 266.880809 237.457887 
Q 266.437123 237.239964 265.987699 236.926351 
L 266.243507 236.009818 
Q 266.573545 236.350131 267.010335 236.598574 
Q 267.448631 236.847437 267.96183 236.990672 
Q 268.854283 237.239759 269.420623 237.018227 
Q 269.986963 236.796696 270.174723 236.123969 
Q 270.348202 235.502412 270.010713 235.031863 
Q 269.673643 234.55981 268.898578 234.343486 
L 268.079868 234.114982 
L 268.297872 233.333897 
L 269.154206 233.572902 
Q 269.854022 233.768223 270.303881 233.592048 
Q 270.75374 233.415872 270.900756 232.889129 
Q 271.051552 232.348841 270.74843 231.952773 
Q 270.447234 231.55562 269.732368 231.356099 
Q 269.341073 231.246887 268.870151 231.207917 
Q 268.399649 231.167443 267.81431 231.195495 
L 268.050375 230.349695 
Q 268.634173 230.350413 269.127739 230.407059 
Q 269.621306 230.463704 270.039691 230.580476 
Q 271.121772 230.882489 271.613499 231.550196 
Q 272.107152 232.216819 271.873607 233.053589 
Q 271.710629 233.637521 271.264371 233.946101 
Q 270.818114 234.254681 270.159312 234.237896 
z
M 273.393298 238.360613 
L 276.708772 239.285972 
L 276.485728 240.085117 
L 272.027973 238.840944 
L 272.251017 238.041799 
Q 272.947562 237.632742 274.143599 236.951052 
Q 275.341561 236.268276 275.657301 236.061157 
Q 276.256125 235.676737 276.535854 235.371967 
Q 276.817087 235.067617 276.912857 234.724481 
Q 277.069114 234.164628 276.774605 233.702831 
Q 276.480515 233.239528 275.849928 233.063529 
Q 275.402949 232.938776 274.86304 232.955174 
Q 274.324637 232.971992 273.672059 233.130522 
L 273.940048 232.170344 
Q 274.577713 232.100119 275.108625 232.121765 
Q 275.641042 232.143832 276.054912 232.259344 
Q 277.146024 232.563877 277.642194 233.291224 
Q 278.138785 234.017067 277.884237 234.929085 
Q 277.763264 235.36252 277.492355 235.70544 
Q 277.22337 236.047276 276.647435 236.454306 
Q 276.491822 236.558496 275.679355 237.034154 
Q 274.868394 237.510232 273.393298 238.360613 
z
" clip-path="url(#pea813505e4)" style="fill: #e66c5c; stroke: #ffffff; stroke-width: 5"/>
    <path d="M 270.159312 234.237896 
Q 270.800324 234.574159 271.053635 235.14288 
Q 271.308871 235.710516 271.119851 236.387757 
Q 270.83002 237.426194 269.955957 237.797061 
Q 269.082314 238.166422 267.765455 237.798883 
Q 267.324496 237.67581 266.880809 237.457887 
Q 266.437123 237.239964 265.987699 236.926351 
L 266.243507 236.009818 
Q 266.573545 236.350131 267.010335 236.598574 
Q 267.448631 236.847437 267.96183 236.990672 
Q 268.854283 237.239759 269.420623 237.018227 
Q 269.986963 236.796696 270.174723 236.123969 
Q 270.348202 235.502412 270.010713 235.031863 
Q 269.673643 234.55981 268.898578 234.343486 
L 268.079868 234.114982 
L 268.297872 233.333897 
L 269.154206 233.572902 
Q 269.854022 233.768223 270.303881 233.592048 
Q 270.75374 233.415872 270.900756 232.889129 
Q 271.051552 232.348841 270.74843 231.952773 
Q 270.447234 231.55562 269.732368 231.356099 
Q 269.341073 231.246887 268.870151 231.207917 
Q 268.399649 231.167443 267.81431 231.195495 
L 268.050375 230.349695 
Q 268.634173 230.350413 269.127739 230.407059 
Q 269.621306 230.463704 270.039691 230.580476 
Q 271.121772 230.882489 271.613499 231.550196 
Q 272.107152 232.216819 271.873607 233.053589 
Q 271.710629 233.637521 271.264371 233.946101 
Q 270.818114 234.254681 270.159312 234.237896 
z
M 273.393298 238.360613 
L 276.708772 239.285972 
L 276.485728 240.085117 
L 272.027973 238.840944 
L 272.251017 238.041799 
Q 272.947562 237.632742 274.143599 236.951052 
Q 275.341561 236.268276 275.657301 236.061157 
Q 276.256125 235.676737 276.535854 235.371967 
Q 276.817087 235.067617 276.912857 234.724481 
Q 277.069114 234.164628 276.774605 233.702831 
Q 276.480515 233.239528 275.849928 233.063529 
Q 275.402949 232.938776 274.86304 232.955174 
Q 274.324637 232.971992 273.672059 233.130522 
L 273.940048 232.170344 
Q 274.577713 232.100119 275.108625 232.121765 
Q 275.641042 232.143832 276.054912 232.259344 
Q 277.146024 232.563877 277.642194 233.291224 
Q 278.138785 234.017067 277.884237 234.929085 
Q 277.763264 235.36252 277.492355 235.70544 
Q 277.22337 236.047276 276.647435 236.454306 
Q 276.491822 236.558496 275.679355 237.034154 
Q 274.868394 237.510232 273.393298 238.360613 
z
" clip-path="url(#pea813505e4)" style="fill: #e66c5c"/>
   </g>
   <g id="text_20">
    <path d="M 309.059142 255.742792 
Q 308.398957 255.814448 308.06123 256.308463 
Q 307.724888 256.800756 307.810201 257.586765 
Q 307.895009 258.368113 308.329647 258.781439 
Q 308.76567 259.193042 309.425855 259.121386 
Q 310.08604 259.049729 310.422046 258.55433 
Q 310.757882 258.057376 310.673074 257.276028 
Q 310.587761 256.490019 310.153628 256.081354 
Q 309.719327 255.671135 309.059142 255.742792 
z
M 310.671856 252.457399 
L 310.768804 253.35059 
Q 310.380216 253.21674 309.994352 253.165893 
Q 309.608318 253.113492 309.238615 253.15362 
Q 308.267754 253.258997 307.826291 253.970161 
Q 307.38638 254.681157 307.457191 256.014112 
Q 307.697152 255.56057 308.104543 255.288459 
Q 308.513488 255.016179 309.032315 254.959865 
Q 310.124339 254.841337 310.830111 255.435838 
Q 311.535713 256.028786 311.659469 257.168965 
Q 311.780695 258.285842 311.193852 259.033218 
Q 310.606841 259.77904 309.510157 259.898074 
Q 308.251922 260.034643 307.482543 259.143712 
Q 306.712995 258.251228 306.514379 256.42135 
Q 306.327904 254.703315 307.032485 253.592676 
Q 307.737067 252.482038 309.110252 252.332992 
Q 309.479955 252.292864 309.863797 252.325071 
Q 310.247638 252.357277 310.671856 252.457399 
z
M 315.60133 252.624893 
L 313.54524 256.763108 
L 316.021322 256.494354 
L 315.60133 252.624893 
z
M 315.250738 251.798524 
L 316.484119 251.664652 
L 316.996843 256.388471 
L 318.031391 256.276181 
L 318.119908 257.091703 
L 317.08536 257.203993 
L 317.270824 258.912708 
L 316.295303 259.018591 
L 316.109839 257.309877 
L 312.838428 257.664956 
L 312.735748 256.71895 
L 315.250738 251.798524 
z
" clip-path="url(#pea813505e4)" style="fill: #f89540; stroke: #ffffff; stroke-width: 5"/>
    <path d="M 309.059142 255.742792 
Q 308.398957 255.814448 308.06123 256.308463 
Q 307.724888 256.800756 307.810201 257.586765 
Q 307.895009 258.368113 308.329647 258.781439 
Q 308.76567 259.193042 309.425855 259.121386 
Q 310.08604 259.049729 310.422046 258.55433 
Q 310.757882 258.057376 310.673074 257.276028 
Q 310.587761 256.490019 310.153628 256.081354 
Q 309.719327 255.671135 309.059142 255.742792 
z
M 310.671856 252.457399 
L 310.768804 253.35059 
Q 310.380216 253.21674 309.994352 253.165893 
Q 309.608318 253.113492 309.238615 253.15362 
Q 308.267754 253.258997 307.826291 253.970161 
Q 307.38638 254.681157 307.457191 256.014112 
Q 307.697152 255.56057 308.104543 255.288459 
Q 308.513488 255.016179 309.032315 254.959865 
Q 310.124339 254.841337 310.830111 255.435838 
Q 311.535713 256.028786 311.659469 257.168965 
Q 311.780695 258.285842 311.193852 259.033218 
Q 310.606841 259.77904 309.510157 259.898074 
Q 308.251922 260.034643 307.482543 259.143712 
Q 306.712995 258.251228 306.514379 256.42135 
Q 306.327904 254.703315 307.032485 253.592676 
Q 307.737067 252.482038 309.110252 252.332992 
Q 309.479955 252.292864 309.863797 252.325071 
Q 310.247638 252.357277 310.671856 252.457399 
z
M 315.60133 252.624893 
L 313.54524 256.763108 
L 316.021322 256.494354 
L 315.60133 252.624893 
z
M 315.250738 251.798524 
L 316.484119 251.664652 
L 316.996843 256.388471 
L 318.031391 256.276181 
L 318.119908 257.091703 
L 317.08536 257.203993 
L 317.270824 258.912708 
L 316.295303 259.018591 
L 316.109839 257.309877 
L 312.838428 257.664956 
L 312.735748 256.71895 
L 315.250738 251.798524 
z
" clip-path="url(#pea813505e4)" style="fill: #f89540"/>
   </g>
   <g id="text_21">
    <path d="M 344.137574 262.562028 
L 345.748387 262.542047 
L 345.679392 256.979974 
L 343.930763 257.353255 
L 343.919619 256.454887 
L 345.658874 256.081722 
L 346.644736 256.069493 
L 346.724875 262.529934 
L 348.335688 262.509952 
L 348.34598 263.339576 
L 344.147865 263.391652 
L 344.137574 262.562028 
z
M 351.177462 262.474701 
L 354.619385 262.432005 
L 354.629676 263.261629 
L 350.001907 263.319035 
L 349.991616 262.489411 
Q 350.5453 261.901248 351.501844 260.911182 
Q 352.45993 259.919535 352.704821 259.6321 
Q 353.171633 259.095019 353.354544 258.723971 
Q 353.539018 258.352905 353.5346 257.996682 
Q 353.52739 257.415477 353.115074 257.054938 
Q 352.702738 256.692837 352.048101 256.700958 
Q 351.584074 256.706714 351.070485 256.874035 
Q 350.558458 257.041336 349.976636 257.376704 
L 349.964271 256.379905 
Q 350.556572 256.133477 351.072209 256.005196 
Q 351.589407 255.876896 352.019061 255.871567 
Q 353.151787 255.857516 353.832208 256.416307 
Q 354.512609 256.973535 354.524354 257.920337 
Q 354.529935 258.370302 354.366199 258.77549 
Q 354.204005 259.179095 353.76551 259.731451 
Q 353.645408 259.87514 352.999163 260.559771 
Q 352.35448 261.244382 351.177462 262.474701 
z
M 358.765899 259.747555 
Q 358.062828 259.756276 357.664405 260.13781 
Q 357.267544 260.519324 357.275703 261.177086 
Q 357.283882 261.83641 357.690084 262.207963 
Q 358.097849 262.579496 358.80092 262.570775 
Q 359.503991 262.562054 359.903957 262.178938 
Q 360.305466 261.794241 360.297346 261.139604 
Q 360.289186 260.481842 359.881422 260.110308 
Q 359.475219 259.738756 358.765899 259.747555 
z
M 357.774843 259.341066 
Q 357.138579 259.192697 356.778531 258.762754 
Q 356.420026 258.331231 356.412274 257.706279 
Q 356.40144 256.832908 357.016968 256.317421 
Q 357.634059 255.801915 358.716788 255.788484 
Q 359.805767 255.774976 360.43233 256.275055 
Q 361.058894 256.775134 361.069728 257.648505 
Q 361.07748 258.273457 360.728227 258.71376 
Q 360.380517 259.152482 359.752816 259.31653 
Q 360.467316 259.473305 360.870168 259.95272 
Q 361.274564 260.430553 361.283207 261.127374 
Q 361.296367 262.18823 360.656577 262.763398 
Q 360.016767 263.337003 358.81061 263.351965 
Q 357.606015 263.366907 356.950612 262.809369 
Q 356.296751 262.250249 356.283592 261.189393 
Q 356.274948 260.492571 356.668929 260.004834 
Q 357.064452 259.515516 357.774843 259.341066 
z
M 357.394611 257.78785 
Q 357.401627 258.353432 357.758659 258.666215 
Q 358.117253 258.978979 358.756267 258.971052 
Q 359.392155 258.963164 359.746006 258.641563 
Q 360.101419 258.319942 360.094403 257.75436 
Q 360.087368 257.187217 359.724086 256.874511 
Q 359.362367 256.561786 358.726479 256.569674 
Q 358.087465 256.577601 357.736739 256.899163 
Q 357.387576 257.220706 357.394611 257.78785 
z
" clip-path="url(#pea813505e4)" style="fill: #fdc527; stroke: #ffffff; stroke-width: 5"/>
    <path d="M 344.137574 262.562028 
L 345.748387 262.542047 
L 345.679392 256.979974 
L 343.930763 257.353255 
L 343.919619 256.454887 
L 345.658874 256.081722 
L 346.644736 256.069493 
L 346.724875 262.529934 
L 348.335688 262.509952 
L 348.34598 263.339576 
L 344.147865 263.391652 
L 344.137574 262.562028 
z
M 351.177462 262.474701 
L 354.619385 262.432005 
L 354.629676 263.261629 
L 350.001907 263.319035 
L 349.991616 262.489411 
Q 350.5453 261.901248 351.501844 260.911182 
Q 352.45993 259.919535 352.704821 259.6321 
Q 353.171633 259.095019 353.354544 258.723971 
Q 353.539018 258.352905 353.5346 257.996682 
Q 353.52739 257.415477 353.115074 257.054938 
Q 352.702738 256.692837 352.048101 256.700958 
Q 351.584074 256.706714 351.070485 256.874035 
Q 350.558458 257.041336 349.976636 257.376704 
L 349.964271 256.379905 
Q 350.556572 256.133477 351.072209 256.005196 
Q 351.589407 255.876896 352.019061 255.871567 
Q 353.151787 255.857516 353.832208 256.416307 
Q 354.512609 256.973535 354.524354 257.920337 
Q 354.529935 258.370302 354.366199 258.77549 
Q 354.204005 259.179095 353.76551 259.731451 
Q 353.645408 259.87514 352.999163 260.559771 
Q 352.35448 261.244382 351.177462 262.474701 
z
M 358.765899 259.747555 
Q 358.062828 259.756276 357.664405 260.13781 
Q 357.267544 260.519324 357.275703 261.177086 
Q 357.283882 261.83641 357.690084 262.207963 
Q 358.097849 262.579496 358.80092 262.570775 
Q 359.503991 262.562054 359.903957 262.178938 
Q 360.305466 261.794241 360.297346 261.139604 
Q 360.289186 260.481842 359.881422 260.110308 
Q 359.475219 259.738756 358.765899 259.747555 
z
M 357.774843 259.341066 
Q 357.138579 259.192697 356.778531 258.762754 
Q 356.420026 258.331231 356.412274 257.706279 
Q 356.40144 256.832908 357.016968 256.317421 
Q 357.634059 255.801915 358.716788 255.788484 
Q 359.805767 255.774976 360.43233 256.275055 
Q 361.058894 256.775134 361.069728 257.648505 
Q 361.07748 258.273457 360.728227 258.71376 
Q 360.380517 259.152482 359.752816 259.31653 
Q 360.467316 259.473305 360.870168 259.95272 
Q 361.274564 260.430553 361.283207 261.127374 
Q 361.296367 262.18823 360.656577 262.763398 
Q 360.016767 263.337003 358.81061 263.351965 
Q 357.606015 263.366907 356.950612 262.809369 
Q 356.296751 262.250249 356.283592 261.189393 
Q 356.274948 260.492571 356.668929 260.004834 
Q 357.064452 259.515516 357.774843 259.341066 
z
M 357.394611 257.78785 
Q 357.401627 258.353432 357.758659 258.666215 
Q 358.117253 258.978979 358.756267 258.971052 
Q 359.392155 258.963164 359.746006 258.641563 
Q 360.101419 258.319942 360.094403 257.75436 
Q 360.087368 257.187217 359.724086 256.874511 
Q 359.362367 256.561786 358.726479 256.569674 
Q 358.087465 256.577601 357.736739 256.899163 
Q 357.387576 257.220706 357.394611 257.78785 
z
" clip-path="url(#pea813505e4)" style="fill: #fdc527"/>
   </g>
   <g id="patch_3">
    <path d="M 53.328125 301.735725 
L 53.328125 35.623725 
" style="fill: none; stroke: #cccccc; stroke-width: 0.8; stroke-linejoin: miter; stroke-linecap: square"/>
   </g>
   <g id="patch_4">
    <path d="M 410.448125 301.735725 
L 410.448125 35.623725 
" style="fill: none; stroke: #cccccc; stroke-width: 0.8; stroke-linejoin: miter; stroke-linecap: square"/>
   </g>
   <g id="patch_5">
    <path d="M 53.328125 301.735725 
L 410.448125 301.735725 
" style="fill: none; stroke: #cccccc; stroke-width: 0.8; stroke-linejoin: miter; stroke-linecap: square"/>
   </g>
   <g id="patch_6">
    <path d="M 53.328125 35.623725 
L 410.448125 35.623725 
" style="fill: none; stroke: #cccccc; stroke-width: 0.8; stroke-linejoin: miter; stroke-linecap: square"/>
   </g>
   <g id="text_22">
    <!-- Block Size = 2M, Read-Write Type = Random Read-only -->
    <g style="fill: #262626; opacity: 0.75" transform="translate(93.336562 30.882918) scale(0.1 -0.1)">
     <defs>
      <path id="DejaVuSans-42" d="M 1259 2228 
L 1259 519 
L 2272 519 
Q 2781 519 3026 730 
Q 3272 941 3272 1375 
Q 3272 1813 3026 2020 
Q 2781 2228 2272 2228 
L 1259 2228 
z
M 1259 4147 
L 1259 2741 
L 2194 2741 
Q 2656 2741 2882 2914 
Q 3109 3088 3109 3444 
Q 3109 3797 2882 3972 
Q 2656 4147 2194 4147 
L 1259 4147 
z
M 628 4666 
L 2241 4666 
Q 2963 4666 3353 4366 
Q 3744 4066 3744 3513 
Q 3744 3084 3544 2831 
Q 3344 2578 2956 2516 
Q 3422 2416 3680 2098 
Q 3938 1781 3938 1306 
Q 3938 681 3513 340 
Q 3088 0 2303 0 
L 628 0 
L 628 4666 
z
" transform="scale(0.015625)"/>
      <path id="DejaVuSans-6c" d="M 603 4863 
L 1178 4863 
L 1178 0 
L 603 0 
L 603 4863 
z
" transform="scale(0.015625)"/>
      <path id="DejaVuSans-63" d="M 3122 3366 
L 3122 2828 
Q 2878 2963 2633 3030 
Q 2388 3097 2138 3097 
Q 1578 3097 1268 2742 
Q 959 2388 959 1747 
Q 959 1106 1268 751 
Q 1578 397 2138 397 
Q 2388 397 2633 464 
Q 2878 531 3122 666 
L 3122 134 
Q 2881 22 2623 -34 
Q 2366 -91 2075 -91 
Q 1284 -91 818 406 
Q 353 903 353 1747 
Q 353 2603 823 3093 
Q 1294 3584 2113 3584 
Q 2378 3584 2631 3529 
Q 2884 3475 3122 3366 
z
" transform="scale(0.015625)"/>
      <path id="DejaVuSans-6b" d="M 581 4863 
L 1159 4863 
L 1159 1991 
L 2875 3500 
L 3609 3500 
L 1753 1863 
L 3688 0 
L 2938 0 
L 1159 1709 
L 1159 0 
L 581 0 
L 581 4863 
z
" transform="scale(0.015625)"/>
      <path id="DejaVuSans-69" d="M 603 3500 
L 1178 3500 
L 1178 0 
L 603 0 
L 603 3500 
z
M 603 4863 
L 1178 4863 
L 1178 4134 
L 603 4134 
L 603 4863 
z
" transform="scale(0.015625)"/>
      <path id="DejaVuSans-7a" d="M 353 3500 
L 3084 3500 
L 3084 2975 
L 922 459 
L 3084 459 
L 3084 0 
L 275 0 
L 275 525 
L 2438 3041 
L 353 3041 
L 353 3500 
z
" transform="scale(0.015625)"/>
      <path id="DejaVuSans-3d" d="M 678 2906 
L 4684 2906 
L 4684 2381 
L 678 2381 
L 678 2906 
z
M 678 1631 
L 4684 1631 
L 4684 1100 
L 678 1100 
L 678 1631 
z
" transform="scale(0.015625)"/>
      <path id="DejaVuSans-4d" d="M 628 4666 
L 1569 4666 
L 2759 1491 
L 3956 4666 
L 4897 4666 
L 4897 0 
L 4281 0 
L 4281 4097 
L 3078 897 
L 2444 897 
L 1241 4097 
L 1241 0 
L 628 0 
L 628 4666 
z
" transform="scale(0.015625)"/>
      <path id="DejaVuSans-2c" d="M 750 794 
L 1409 794 
L 1409 256 
L 897 -744 
L 494 -744 
L 750 256 
L 750 794 
z
" transform="scale(0.015625)"/>
      <path id="DejaVuSans-52" d="M 2841 2188 
Q 3044 2119 3236 1894 
Q 3428 1669 3622 1275 
L 4263 0 
L 3584 0 
L 2988 1197 
Q 2756 1666 2539 1819 
Q 2322 1972 1947 1972 
L 1259 1972 
L 1259 0 
L 628 0 
L 628 4666 
L 2053 4666 
Q 2853 4666 3247 4331 
Q 3641 3997 3641 3322 
Q 3641 2881 3436 2590 
Q 3231 2300 2841 2188 
z
M 1259 4147 
L 1259 2491 
L 2053 2491 
Q 2509 2491 2742 2702 
Q 2975 2913 2975 3322 
Q 2975 3731 2742 3939 
Q 2509 4147 2053 4147 
L 1259 4147 
z
" transform="scale(0.015625)"/>
      <path id="DejaVuSans-61" d="M 2194 1759 
Q 1497 1759 1228 1600 
Q 959 1441 959 1056 
Q 959 750 1161 570 
Q 1363 391 1709 391 
Q 2188 391 2477 730 
Q 2766 1069 2766 1631 
L 2766 1759 
L 2194 1759 
z
M 3341 1997 
L 3341 0 
L 2766 0 
L 2766 531 
Q 2569 213 2275 61 
Q 1981 -91 1556 -91 
Q 1019 -91 701 211 
Q 384 513 384 1019 
Q 384 1609 779 1909 
Q 1175 2209 1959 2209 
L 2766 2209 
L 2766 2266 
Q 2766 2663 2505 2880 
Q 2244 3097 1772 3097 
Q 1472 3097 1187 3025 
Q 903 2953 641 2809 
L 641 3341 
Q 956 3463 1253 3523 
Q 1550 3584 1831 3584 
Q 2591 3584 2966 3190 
Q 3341 2797 3341 1997 
z
" transform="scale(0.015625)"/>
      <path id="DejaVuSans-64" d="M 2906 2969 
L 2906 4863 
L 3481 4863 
L 3481 0 
L 2906 0 
L 2906 525 
Q 2725 213 2448 61 
Q 2172 -91 1784 -91 
Q 1150 -91 751 415 
Q 353 922 353 1747 
Q 353 2572 751 3078 
Q 1150 3584 1784 3584 
Q 2172 3584 2448 3432 
Q 2725 3281 2906 2969 
z
M 947 1747 
Q 947 1113 1208 752 
Q 1469 391 1925 391 
Q 2381 391 2643 752 
Q 2906 1113 2906 1747 
Q 2906 2381 2643 2742 
Q 2381 3103 1925 3103 
Q 1469 3103 1208 2742 
Q 947 2381 947 1747 
z
" transform="scale(0.015625)"/>
      <path id="DejaVuSans-2d" d="M 313 2009 
L 1997 2009 
L 1997 1497 
L 313 1497 
L 313 2009 
z
" transform="scale(0.015625)"/>
      <path id="DejaVuSans-57" d="M 213 4666 
L 850 4666 
L 1831 722 
L 2809 4666 
L 3519 4666 
L 4500 722 
L 5478 4666 
L 6119 4666 
L 4947 0 
L 4153 0 
L 3169 4050 
L 2175 0 
L 1381 0 
L 213 4666 
z
" transform="scale(0.015625)"/>
      <path id="DejaVuSans-74" d="M 1172 4494 
L 1172 3500 
L 2356 3500 
L 2356 3053 
L 1172 3053 
L 1172 1153 
Q 1172 725 1289 603 
Q 1406 481 1766 481 
L 2356 481 
L 2356 0 
L 1766 0 
Q 1100 0 847 248 
Q 594 497 594 1153 
L 594 3053 
L 172 3053 
L 172 3500 
L 594 3500 
L 594 4494 
L 1172 4494 
z
" transform="scale(0.015625)"/>
      <path id="DejaVuSans-54" d="M -19 4666 
L 3928 4666 
L 3928 4134 
L 2272 4134 
L 2272 0 
L 1638 0 
L 1638 4134 
L -19 4134 
L -19 4666 
z
" transform="scale(0.015625)"/>
      <path id="DejaVuSans-79" d="M 2059 -325 
Q 1816 -950 1584 -1140 
Q 1353 -1331 966 -1331 
L 506 -1331 
L 506 -850 
L 844 -850 
Q 1081 -850 1212 -737 
Q 1344 -625 1503 -206 
L 1606 56 
L 191 3500 
L 800 3500 
L 1894 763 
L 2988 3500 
L 3597 3500 
L 2059 -325 
z
" transform="scale(0.015625)"/>
      <path id="DejaVuSans-70" d="M 1159 525 
L 1159 -1331 
L 581 -1331 
L 581 3500 
L 1159 3500 
L 1159 2969 
Q 1341 3281 1617 3432 
Q 1894 3584 2278 3584 
Q 2916 3584 3314 3078 
Q 3713 2572 3713 1747 
Q 3713 922 3314 415 
Q 2916 -91 2278 -91 
Q 1894 -91 1617 61 
Q 1341 213 1159 525 
z
M 3116 1747 
Q 3116 2381 2855 2742 
Q 2594 3103 2138 3103 
Q 1681 3103 1420 2742 
Q 1159 2381 1159 1747 
Q 1159 1113 1420 752 
Q 1681 391 2138 391 
Q 2594 391 2855 752 
Q 3116 1113 3116 1747 
z
" transform="scale(0.015625)"/>
      <path id="DejaVuSans-6e" d="M 3513 2113 
L 3513 0 
L 2938 0 
L 2938 2094 
Q 2938 2591 2744 2837 
Q 2550 3084 2163 3084 
Q 1697 3084 1428 2787 
Q 1159 2491 1159 1978 
L 1159 0 
L 581 0 
L 581 3500 
L 1159 3500 
L 1159 2956 
Q 1366 3272 1645 3428 
Q 1925 3584 2291 3584 
Q 2894 3584 3203 3211 
Q 3513 2838 3513 2113 
z
" transform="scale(0.015625)"/>
     </defs>
     <use xlink:href="#DejaVuSans-42"/>
     <use xlink:href="#DejaVuSans-6c" transform="translate(68.603516 0)"/>
     <use xlink:href="#DejaVuSans-6f" transform="translate(96.386719 0)"/>
     <use xlink:href="#DejaVuSans-63" transform="translate(157.568359 0)"/>
     <use xlink:href="#DejaVuSans-6b" transform="translate(212.548828 0)"/>
     <use xlink:href="#DejaVuSans-20" transform="translate(270.458984 0)"/>
     <use xlink:href="#DejaVuSans-53" transform="translate(302.246094 0)"/>
     <use xlink:href="#DejaVuSans-69" transform="translate(365.722656 0)"/>
     <use xlink:href="#DejaVuSans-7a" transform="translate(393.505859 0)"/>
     <use xlink:href="#DejaVuSans-65" transform="translate(445.996094 0)"/>
     <use xlink:href="#DejaVuSans-20" transform="translate(507.519531 0)"/>
     <use xlink:href="#DejaVuSans-3d" transform="translate(539.306641 0)"/>
     <use xlink:href="#DejaVuSans-20" transform="translate(623.095703 0)"/>
     <use xlink:href="#DejaVuSans-32" transform="translate(654.882812 0)"/>
     <use xlink:href="#DejaVuSans-4d" transform="translate(718.505859 0)"/>
     <use xlink:href="#DejaVuSans-2c" transform="translate(804.785156 0)"/>
     <use xlink:href="#DejaVuSans-20" transform="translate(836.572266 0)"/>
     <use xlink:href="#DejaVuSans-52" transform="translate(868.359375 0)"/>
     <use xlink:href="#DejaVuSans-65" transform="translate(933.341797 0)"/>
     <use xlink:href="#DejaVuSans-61" transform="translate(994.865234 0)"/>
     <use xlink:href="#DejaVuSans-64" transform="translate(1056.144531 0)"/>
     <use xlink:href="#DejaVuSans-2d" transform="translate(1119.621094 0)"/>
     <use xlink:href="#DejaVuSans-57" transform="translate(1151.705078 0)"/>
     <use xlink:href="#DejaVuSans-72" transform="translate(1246.082031 0)"/>
     <use xlink:href="#DejaVuSans-69" transform="translate(1287.195312 0)"/>
     <use xlink:href="#DejaVuSans-74" transform="translate(1314.978516 0)"/>
     <use xlink:href="#DejaVuSans-65" transform="translate(1354.1875 0)"/>
     <use xlink:href="#DejaVuSans-20" transform="translate(1415.710938 0)"/>
     <use xlink:href="#DejaVuSans-54" transform="translate(1447.498047 0)"/>
     <use xlink:href="#DejaVuSans-79" transform="translate(1492.957031 0)"/>
     <use xlink:href="#DejaVuSans-70" transform="translate(1552.136719 0)"/>
     <use xlink:href="#DejaVuSans-65" transform="translate(1615.613281 0)"/>
     <use xlink:href="#DejaVuSans-20" transform="translate(1677.136719 0)"/>
     <use xlink:href="#DejaVuSans-3d" transform="translate(1708.923828 0)"/>
     <use xlink:href="#DejaVuSans-20" transform="translate(1792.712891 0)"/>
     <use xlink:href="#DejaVuSans-52" transform="translate(1824.5 0)"/>
     <use xlink:href="#DejaVuSans-61" transform="translate(1891.732422 0)"/>
     <use xlink:href="#DejaVuSans-6e" transform="translate(1953.011719 0)"/>
     <use xlink:href="#DejaVuSans-64" transform="translate(2016.390625 0)"/>
     <use xlink:href="#DejaVuSans-6f" transform="translate(2079.867188 0)"/>
     <use xlink:href="#DejaVuSans-6d" transform="translate(2141.048828 0)"/>
     <use xlink:href="#DejaVuSans-20" transform="translate(2238.460938 0)"/>
     <use xlink:href="#DejaVuSans-52" transform="translate(2270.248047 0)"/>
     <use xlink:href="#DejaVuSans-65" transform="translate(2335.230469 0)"/>
     <use xlink:href="#DejaVuSans-61" transform="translate(2396.753906 0)"/>
     <use xlink:href="#DejaVuSans-64" transform="translate(2458.033203 0)"/>
     <use xlink:href="#DejaVuSans-2d" transform="translate(2521.509766 0)"/>
     <use xlink:href="#DejaVuSans-6f" transform="translate(2559.46875 0)"/>
     <use xlink:href="#DejaVuSans-6e" transform="translate(2620.650391 0)"/>
     <use xlink:href="#DejaVuSans-6c" transform="translate(2684.029297 0)"/>
     <use xlink:href="#DejaVuSans-79" transform="translate(2711.8125 0)"/>
    </g>
   </g>
   <g id="text_23">
    <!-- IOPS vs Number of Jobs -->
    <g style="fill: #262626" transform="translate(152.179062 16.318125) scale(0.12 -0.12)">
     <defs>
      <path id="DejaVuSans-Bold-49" d="M 588 4666 
L 1791 4666 
L 1791 0 
L 588 0 
L 588 4666 
z
" transform="scale(0.015625)"/>
      <path id="DejaVuSans-Bold-4f" d="M 2719 3878 
Q 2169 3878 1866 3472 
Q 1563 3066 1563 2328 
Q 1563 1594 1866 1187 
Q 2169 781 2719 781 
Q 3272 781 3575 1187 
Q 3878 1594 3878 2328 
Q 3878 3066 3575 3472 
Q 3272 3878 2719 3878 
z
M 2719 4750 
Q 3844 4750 4481 4106 
Q 5119 3463 5119 2328 
Q 5119 1197 4481 553 
Q 3844 -91 2719 -91 
Q 1597 -91 958 553 
Q 319 1197 319 2328 
Q 319 3463 958 4106 
Q 1597 4750 2719 4750 
z
" transform="scale(0.015625)"/>
      <path id="DejaVuSans-Bold-50" d="M 588 4666 
L 2584 4666 
Q 3475 4666 3951 4270 
Q 4428 3875 4428 3144 
Q 4428 2409 3951 2014 
Q 3475 1619 2584 1619 
L 1791 1619 
L 1791 0 
L 588 0 
L 588 4666 
z
M 1791 3794 
L 1791 2491 
L 2456 2491 
Q 2806 2491 2997 2661 
Q 3188 2831 3188 3144 
Q 3188 3456 2997 3625 
Q 2806 3794 2456 3794 
L 1791 3794 
z
" transform="scale(0.015625)"/>
      <path id="DejaVuSans-Bold-53" d="M 3834 4519 
L 3834 3531 
Q 3450 3703 3084 3790 
Q 2719 3878 2394 3878 
Q 1963 3878 1756 3759 
Q 1550 3641 1550 3391 
Q 1550 3203 1689 3098 
Q 1828 2994 2194 2919 
L 2706 2816 
Q 3484 2659 3812 2340 
Q 4141 2022 4141 1434 
Q 4141 663 3683 286 
Q 3225 -91 2284 -91 
Q 1841 -91 1394 -6 
Q 947 78 500 244 
L 500 1259 
Q 947 1022 1364 901 
Q 1781 781 2169 781 
Q 2563 781 2772 912 
Q 2981 1044 2981 1288 
Q 2981 1506 2839 1625 
Q 2697 1744 2272 1838 
L 1806 1941 
Q 1106 2091 782 2419 
Q 459 2747 459 3303 
Q 459 4000 909 4375 
Q 1359 4750 2203 4750 
Q 2588 4750 2994 4692 
Q 3400 4634 3834 4519 
z
" transform="scale(0.015625)"/>
      <path id="DejaVuSans-Bold-20" transform="scale(0.015625)"/>
      <path id="DejaVuSans-Bold-76" d="M 97 3500 
L 1216 3500 
L 2088 1081 
L 2956 3500 
L 4078 3500 
L 2700 0 
L 1472 0 
L 97 3500 
z
" transform="scale(0.015625)"/>
      <path id="DejaVuSans-Bold-73" d="M 3272 3391 
L 3272 2541 
Q 2913 2691 2578 2766 
Q 2244 2841 1947 2841 
Q 1628 2841 1473 2761 
Q 1319 2681 1319 2516 
Q 1319 2381 1436 2309 
Q 1553 2238 1856 2203 
L 2053 2175 
Q 2913 2066 3209 1816 
Q 3506 1566 3506 1031 
Q 3506 472 3093 190 
Q 2681 -91 1863 -91 
Q 1516 -91 1145 -36 
Q 775 19 384 128 
L 384 978 
Q 719 816 1070 734 
Q 1422 653 1784 653 
Q 2113 653 2278 743 
Q 2444 834 2444 1013 
Q 2444 1163 2330 1236 
Q 2216 1309 1875 1350 
L 1678 1375 
Q 931 1469 631 1722 
Q 331 1975 331 2491 
Q 331 3047 712 3315 
Q 1094 3584 1881 3584 
Q 2191 3584 2531 3537 
Q 2872 3491 3272 3391 
z
" transform="scale(0.015625)"/>
      <path id="DejaVuSans-Bold-4e" d="M 588 4666 
L 1931 4666 
L 3628 1466 
L 3628 4666 
L 4769 4666 
L 4769 0 
L 3425 0 
L 1728 3200 
L 1728 0 
L 588 0 
L 588 4666 
z
" transform="scale(0.015625)"/>
      <path id="DejaVuSans-Bold-75" d="M 500 1363 
L 500 3500 
L 1625 3500 
L 1625 3150 
Q 1625 2866 1622 2436 
Q 1619 2006 1619 1863 
Q 1619 1441 1641 1255 
Q 1663 1069 1716 984 
Q 1784 875 1895 815 
Q 2006 756 2150 756 
Q 2500 756 2700 1025 
Q 2900 1294 2900 1772 
L 2900 3500 
L 4019 3500 
L 4019 0 
L 2900 0 
L 2900 506 
Q 2647 200 2364 54 
Q 2081 -91 1741 -91 
Q 1134 -91 817 281 
Q 500 653 500 1363 
z
" transform="scale(0.015625)"/>
      <path id="DejaVuSans-Bold-6d" d="M 3781 2919 
Q 3994 3244 4286 3414 
Q 4578 3584 4928 3584 
Q 5531 3584 5847 3212 
Q 6163 2841 6163 2131 
L 6163 0 
L 5038 0 
L 5038 1825 
Q 5041 1866 5042 1909 
Q 5044 1953 5044 2034 
Q 5044 2406 4934 2573 
Q 4825 2741 4581 2741 
Q 4263 2741 4089 2478 
Q 3916 2216 3909 1719 
L 3909 0 
L 2784 0 
L 2784 1825 
Q 2784 2406 2684 2573 
Q 2584 2741 2328 2741 
Q 2006 2741 1831 2477 
Q 1656 2213 1656 1722 
L 1656 0 
L 531 0 
L 531 3500 
L 1656 3500 
L 1656 2988 
Q 1863 3284 2130 3434 
Q 2397 3584 2719 3584 
Q 3081 3584 3359 3409 
Q 3638 3234 3781 2919 
z
" transform="scale(0.015625)"/>
      <path id="DejaVuSans-Bold-62" d="M 2400 722 
Q 2759 722 2948 984 
Q 3138 1247 3138 1747 
Q 3138 2247 2948 2509 
Q 2759 2772 2400 2772 
Q 2041 2772 1848 2508 
Q 1656 2244 1656 1747 
Q 1656 1250 1848 986 
Q 2041 722 2400 722 
z
M 1656 2988 
Q 1888 3294 2169 3439 
Q 2450 3584 2816 3584 
Q 3463 3584 3878 3070 
Q 4294 2556 4294 1747 
Q 4294 938 3878 423 
Q 3463 -91 2816 -91 
Q 2450 -91 2169 54 
Q 1888 200 1656 506 
L 1656 0 
L 538 0 
L 538 4863 
L 1656 4863 
L 1656 2988 
z
" transform="scale(0.015625)"/>
      <path id="DejaVuSans-Bold-65" d="M 4031 1759 
L 4031 1441 
L 1416 1441 
Q 1456 1047 1700 850 
Q 1944 653 2381 653 
Q 2734 653 3104 758 
Q 3475 863 3866 1075 
L 3866 213 
Q 3469 63 3072 -14 
Q 2675 -91 2278 -91 
Q 1328 -91 801 392 
Q 275 875 275 1747 
Q 275 2603 792 3093 
Q 1309 3584 2216 3584 
Q 3041 3584 3536 3087 
Q 4031 2591 4031 1759 
z
M 2881 2131 
Q 2881 2450 2695 2645 
Q 2509 2841 2209 2841 
Q 1884 2841 1681 2658 
Q 1478 2475 1428 2131 
L 2881 2131 
z
" transform="scale(0.015625)"/>
      <path id="DejaVuSans-Bold-72" d="M 3138 2547 
Q 2991 2616 2845 2648 
Q 2700 2681 2553 2681 
Q 2122 2681 1889 2404 
Q 1656 2128 1656 1613 
L 1656 0 
L 538 0 
L 538 3500 
L 1656 3500 
L 1656 2925 
Q 1872 3269 2151 3426 
Q 2431 3584 2822 3584 
Q 2878 3584 2943 3579 
Q 3009 3575 3134 3559 
L 3138 2547 
z
" transform="scale(0.015625)"/>
      <path id="DejaVuSans-Bold-6f" d="M 2203 2784 
Q 1831 2784 1636 2517 
Q 1441 2250 1441 1747 
Q 1441 1244 1636 976 
Q 1831 709 2203 709 
Q 2569 709 2762 976 
Q 2956 1244 2956 1747 
Q 2956 2250 2762 2517 
Q 2569 2784 2203 2784 
z
M 2203 3584 
Q 3106 3584 3614 3096 
Q 4122 2609 4122 1747 
Q 4122 884 3614 396 
Q 3106 -91 2203 -91 
Q 1297 -91 786 396 
Q 275 884 275 1747 
Q 275 2609 786 3096 
Q 1297 3584 2203 3584 
z
" transform="scale(0.015625)"/>
      <path id="DejaVuSans-Bold-66" d="M 2841 4863 
L 2841 4128 
L 2222 4128 
Q 1984 4128 1890 4042 
Q 1797 3956 1797 3744 
L 1797 3500 
L 2753 3500 
L 2753 2700 
L 1797 2700 
L 1797 0 
L 678 0 
L 678 2700 
L 122 2700 
L 122 3500 
L 678 3500 
L 678 3744 
Q 678 4316 997 4589 
Q 1316 4863 1984 4863 
L 2841 4863 
z
" transform="scale(0.015625)"/>
      <path id="DejaVuSans-Bold-4a" d="M 588 4666 
L 1791 4666 
L 1791 453 
Q 1791 -419 1317 -850 
Q 844 -1281 -116 -1281 
L -359 -1281 
L -359 -372 
L -172 -372 
Q 203 -372 395 -162 
Q 588 47 588 453 
L 588 4666 
z
" transform="scale(0.015625)"/>
     </defs>
     <use xlink:href="#DejaVuSans-Bold-49"/>
     <use xlink:href="#DejaVuSans-Bold-4f" transform="translate(37.207031 0)"/>
     <use xlink:href="#DejaVuSans-Bold-50" transform="translate(122.216797 0)"/>
     <use xlink:href="#DejaVuSans-Bold-53" transform="translate(195.507812 0)"/>
     <use xlink:href="#DejaVuSans-Bold-20" transform="translate(267.529297 0)"/>
     <use xlink:href="#DejaVuSans-Bold-76" transform="translate(302.34375 0)"/>
     <use xlink:href="#DejaVuSans-Bold-73" transform="translate(367.529297 0)"/>
     <use xlink:href="#DejaVuSans-Bold-20" transform="translate(427.050781 0)"/>
     <use xlink:href="#DejaVuSans-Bold-4e" transform="translate(461.865234 0)"/>
     <use xlink:href="#DejaVuSans-Bold-75" transform="translate(545.556641 0)"/>
     <use xlink:href="#DejaVuSans-Bold-6d" transform="translate(616.748047 0)"/>
     <use xlink:href="#DejaVuSans-Bold-62" transform="translate(720.947266 0)"/>
     <use xlink:href="#DejaVuSans-Bold-65" transform="translate(792.529297 0)"/>
     <use xlink:href="#DejaVuSans-Bold-72" transform="translate(860.351562 0)"/>
     <use xlink:href="#DejaVuSans-Bold-20" transform="translate(909.667969 0)"/>
     <use xlink:href="#DejaVuSans-Bold-6f" transform="translate(944.482422 0)"/>
     <use xlink:href="#DejaVuSans-Bold-66" transform="translate(1013.183594 0)"/>
     <use xlink:href="#DejaVuSans-Bold-20" transform="translate(1056.689453 0)"/>
     <use xlink:href="#DejaVuSans-Bold-4a" transform="translate(1091.503906 0)"/>
     <use xlink:href="#DejaVuSans-Bold-6f" transform="translate(1128.710938 0)"/>
     <use xlink:href="#DejaVuSans-Bold-62" transform="translate(1197.412109 0)"/>
     <use xlink:href="#DejaVuSans-Bold-73" transform="translate(1268.994141 0)"/>
    </g>
   </g>
   <g id="legend_1">
    <g id="text_24">
     <!-- IO Depth -->
     <g style="fill: #262626" transform="translate(444.954687 120.065663) scale(0.1 -0.1)">
      <defs>
       <path id="DejaVuSans-44" d="M 1259 4147 
L 1259 519 
L 2022 519 
Q 2988 519 3436 956 
Q 3884 1394 3884 2338 
Q 3884 3275 3436 3711 
Q 2988 4147 2022 4147 
L 1259 4147 
z
M 628 4666 
L 1925 4666 
Q 3281 4666 3915 4102 
Q 4550 3538 4550 2338 
Q 4550 1131 3912 565 
Q 3275 0 1925 0 
L 628 0 
L 628 4666 
z
" transform="scale(0.015625)"/>
       <path id="DejaVuSans-68" d="M 3513 2113 
L 3513 0 
L 2938 0 
L 2938 2094 
Q 2938 2591 2744 2837 
Q 2550 3084 2163 3084 
Q 1697 3084 1428 2787 
Q 1159 2491 1159 1978 
L 1159 0 
L 581 0 
L 581 4863 
L 1159 4863 
L 1159 2956 
Q 1366 3272 1645 3428 
Q 1925 3584 2291 3584 
Q 2894 3584 3203 3211 
Q 3513 2838 3513 2113 
z
" transform="scale(0.015625)"/>
      </defs>
      <use xlink:href="#DejaVuSans-49"/>
      <use xlink:href="#DejaVuSans-4f" transform="translate(29.492188 0)"/>
      <use xlink:href="#DejaVuSans-20" transform="translate(108.203125 0)"/>
      <use xlink:href="#DejaVuSans-44" transform="translate(139.990234 0)"/>
      <use xlink:href="#DejaVuSans-65" transform="translate(216.992188 0)"/>
      <use xlink:href="#DejaVuSans-70" transform="translate(278.515625 0)"/>
      <use xlink:href="#DejaVuSans-74" transform="translate(341.992188 0)"/>
      <use xlink:href="#DejaVuSans-68" transform="translate(381.201172 0)"/>
     </g>
    </g>
    <g id="line2d_27">
     <path d="M 443.640625 131.243787 
L 453.640625 131.243787 
L 463.640625 131.243787 
" style="fill: none; stroke: #4c02a1; stroke-width: 1.5; stroke-linecap: round"/>
    </g>
    <g id="text_25">
     <!-- 1 -->
     <g style="fill: #262626" transform="translate(471.640625 134.743787) scale(0.1 -0.1)">
      <use xlink:href="#DejaVuSans-31"/>
     </g>
    </g>
    <g id="line2d_28">
     <path d="M 443.640625 145.921913 
L 453.640625 145.921913 
L 463.640625 145.921913 
" style="fill: none; stroke: #7e03a8; stroke-width: 1.5; stroke-linecap: round"/>
    </g>
    <g id="text_26">
     <!-- 4 -->
     <g style="fill: #262626" transform="translate(471.640625 149.421913) scale(0.1 -0.1)">
      <use xlink:href="#DejaVuSans-34"/>
     </g>
    </g>
    <g id="line2d_29">
     <path d="M 443.640625 160.600037 
L 453.640625 160.600037 
L 463.640625 160.600037 
" style="fill: none; stroke: #aa2395; stroke-width: 1.5; stroke-linecap: round"/>
    </g>
    <g id="text_27">
     <!-- 8 -->
     <g style="fill: #262626" transform="translate(471.640625 164.100037) scale(0.1 -0.1)">
      <use xlink:href="#DejaVuSans-38"/>
     </g>
    </g>
    <g id="line2d_30">
     <path d="M 443.640625 175.278163 
L 453.640625 175.278163 
L 463.640625 175.278163 
" style="fill: none; stroke: #cc4778; stroke-width: 1.5; stroke-linecap: round"/>
    </g>
    <g id="text_28">
     <!-- 16 -->
     <g style="fill: #262626" transform="translate(471.640625 178.778163) scale(0.1 -0.1)">
      <use xlink:href="#DejaVuSans-31"/>
      <use xlink:href="#DejaVuSans-36" transform="translate(63.623047 0)"/>
     </g>
    </g>
    <g id="line2d_31">
     <path d="M 443.640625 189.956288 
L 453.640625 189.956288 
L 463.640625 189.956288 
" style="fill: none; stroke: #e66c5c; stroke-width: 1.5; stroke-linecap: round"/>
    </g>
    <g id="text_29">
     <!-- 32 -->
     <g style="fill: #262626" transform="translate(471.640625 193.456288) scale(0.1 -0.1)">
      <use xlink:href="#DejaVuSans-33"/>
      <use xlink:href="#DejaVuSans-32" transform="translate(63.623047 0)"/>
     </g>
    </g>
    <g id="line2d_32">
     <path d="M 443.640625 204.634412 
L 453.640625 204.634412 
L 463.640625 204.634412 
" style="fill: none; stroke: #f89540; stroke-width: 1.5; stroke-linecap: round"/>
    </g>
    <g id="text_30">
     <!-- 64 -->
     <g style="fill: #262626" transform="translate(471.640625 208.134412) scale(0.1 -0.1)">
      <use xlink:href="#DejaVuSans-36"/>
      <use xlink:href="#DejaVuSans-34" transform="translate(63.623047 0)"/>
     </g>
    </g>
    <g id="line2d_33">
     <path d="M 443.640625 219.312537 
L 453.640625 219.312537 
L 463.640625 219.312537 
" style="fill: none; stroke: #fdc527; stroke-width: 1.5; stroke-linecap: round"/>
    </g>
    <g id="text_31">
     <!-- 128 -->
     <g style="fill: #262626" transform="translate(471.640625 222.812537) scale(0.1 -0.1)">
      <use xlink:href="#DejaVuSans-31"/>
      <use xlink:href="#DejaVuSans-32" transform="translate(63.623047 0)"/>
      <use xlink:href="#DejaVuSans-38" transform="translate(127.246094 0)"/>
     </g>
    </g>
   </g>
  </g>
 </g>
 <defs>
  <clipPath id="pea813505e4">
   <rect x="53.328125" y="35.623725" width="357.12" height="266.112"/>
  </clipPath>
 </defs>
</svg>
