<?xml version="1.0" encoding="utf-8" standalone="no"?>
<!DOCTYPE svg PUBLIC "-//W3C//DTD SVG 1.1//EN"
  "http://www.w3.org/Graphics/SVG/1.1/DTD/svg11.dtd">
<svg xmlns:xlink="http://www.w3.org/1999/xlink" width="508.290625pt" height="339.291975pt" viewBox="0 0 508.290625 339.291975" xmlns="http://www.w3.org/2000/svg" version="1.1">
 <metadata>
  <rdf:RDF xmlns:dc="http://purl.org/dc/elements/1.1/" xmlns:cc="http://creativecommons.org/ns#" xmlns:rdf="http://www.w3.org/1999/02/22-rdf-syntax-ns#">
   <cc:Work>
    <dc:type rdf:resource="http://purl.org/dc/dcmitype/StillImage"/>
    <dc:date>2025-09-11T11:34:24.169247</dc:date>
    <dc:format>image/svg+xml</dc:format>
    <dc:creator>
     <cc:Agent>
      <dc:title>Matplotlib v3.10.6, https://matplotlib.org/</dc:title>
     </cc:Agent>
    </dc:creator>
   </cc:Work>
  </rdf:RDF>
 </metadata>
 <defs>
  <style type="text/css">*{stroke-linejoin: round; stroke-linecap: butt}</style>
 </defs>
 <g id="figure_1">
  <g id="patch_1">
   <path d="M 0 339.291975 
L 508.290625 339.291975 
L 508.290625 0 
L 0 0 
z
" style="fill: #ffffff"/>
  </g>
  <g id="axes_1">
   <g id="patch_2">
    <path d="M 59.690625 301.735725 
L 416.810625 301.735725 
L 416.810625 35.623725 
L 59.690625 35.623725 
z
" style="fill: #ffffff"/>
   </g>
   <g id="matplotlib.axis_1">
    <g id="xtick_1">
     <g id="line2d_1">
      <path d="M 75.923352 301.735725 
L 75.923352 35.623725 
" clip-path="url(#p918af8b1f7)" style="fill: none; stroke: #cccccc; stroke-width: 0.8; stroke-linecap: round"/>
     </g>
     <g id="text_1">
      <!-- 16 -->
      <g style="fill: #262626" transform="translate(69.560852 316.334162) scale(0.1 -0.1)">
       <defs>
        <path id="DejaVuSans-31" d="M 794 531 
L 1825 531 
L 1825 4091 
L 703 3866 
L 703 4441 
L 1819 4666 
L 2450 4666 
L 2450 531 
L 3481 531 
L 3481 0 
L 794 0 
L 794 531 
z
" transform="scale(0.015625)"/>
        <path id="DejaVuSans-36" d="M 2113 2584 
Q 1688 2584 1439 2293 
Q 1191 2003 1191 1497 
Q 1191 994 1439 701 
Q 1688 409 2113 409 
Q 2538 409 2786 701 
Q 3034 994 3034 1497 
Q 3034 2003 2786 2293 
Q 2538 2584 2113 2584 
z
M 3366 4563 
L 3366 3988 
Q 3128 4100 2886 4159 
Q 2644 4219 2406 4219 
Q 1781 4219 1451 3797 
Q 1122 3375 1075 2522 
Q 1259 2794 1537 2939 
Q 1816 3084 2150 3084 
Q 2853 3084 3261 2657 
Q 3669 2231 3669 1497 
Q 3669 778 3244 343 
Q 2819 -91 2113 -91 
Q 1303 -91 875 529 
Q 447 1150 447 2328 
Q 447 3434 972 4092 
Q 1497 4750 2381 4750 
Q 2619 4750 2861 4703 
Q 3103 4656 3366 4563 
z
" transform="scale(0.015625)"/>
       </defs>
       <use xlink:href="#DejaVuSans-31"/>
       <use xlink:href="#DejaVuSans-36" transform="translate(63.623047 0)"/>
      </g>
     </g>
    </g>
    <g id="xtick_2">
     <g id="line2d_2">
      <path d="M 215.061015 301.735725 
L 215.061015 35.623725 
" clip-path="url(#p918af8b1f7)" style="fill: none; stroke: #cccccc; stroke-width: 0.8; stroke-linecap: round"/>
     </g>
     <g id="text_2">
      <!-- 64 -->
      <g style="fill: #262626" transform="translate(208.698515 316.334162) scale(0.1 -0.1)">
       <defs>
        <path id="DejaVuSans-34" d="M 2419 4116 
L 825 1625 
L 2419 1625 
L 2419 4116 
z
M 2253 4666 
L 3047 4666 
L 3047 1625 
L 3713 1625 
L 3713 1100 
L 3047 1100 
L 3047 0 
L 2419 0 
L 2419 1100 
L 313 1100 
L 313 1709 
L 2253 4666 
z
" transform="scale(0.015625)"/>
       </defs>
       <use xlink:href="#DejaVuSans-36"/>
       <use xlink:href="#DejaVuSans-34" transform="translate(63.623047 0)"/>
      </g>
     </g>
    </g>
    <g id="xtick_3">
     <g id="line2d_3">
      <path d="M 400.577898 301.735725 
L 400.577898 35.623725 
" clip-path="url(#p918af8b1f7)" style="fill: none; stroke: #cccccc; stroke-width: 0.8; stroke-linecap: round"/>
     </g>
     <g id="text_3">
      <!-- 128 -->
      <g style="fill: #262626" transform="translate(391.034148 316.334162) scale(0.1 -0.1)">
       <defs>
        <path id="DejaVuSans-32" d="M 1228 531 
L 3431 531 
L 3431 0 
L 469 0 
L 469 531 
Q 828 903 1448 1529 
Q 2069 2156 2228 2338 
Q 2531 2678 2651 2914 
Q 2772 3150 2772 3378 
Q 2772 3750 2511 3984 
Q 2250 4219 1831 4219 
Q 1534 4219 1204 4116 
Q 875 4013 500 3803 
L 500 4441 
Q 881 4594 1212 4672 
Q 1544 4750 1819 4750 
Q 2544 4750 2975 4387 
Q 3406 4025 3406 3419 
Q 3406 3131 3298 2873 
Q 3191 2616 2906 2266 
Q 2828 2175 2409 1742 
Q 1991 1309 1228 531 
z
" transform="scale(0.015625)"/>
        <path id="DejaVuSans-38" d="M 2034 2216 
Q 1584 2216 1326 1975 
Q 1069 1734 1069 1313 
Q 1069 891 1326 650 
Q 1584 409 2034 409 
Q 2484 409 2743 651 
Q 3003 894 3003 1313 
Q 3003 1734 2745 1975 
Q 2488 2216 2034 2216 
z
M 1403 2484 
Q 997 2584 770 2862 
Q 544 3141 544 3541 
Q 544 4100 942 4425 
Q 1341 4750 2034 4750 
Q 2731 4750 3128 4425 
Q 3525 4100 3525 3541 
Q 3525 3141 3298 2862 
Q 3072 2584 2669 2484 
Q 3125 2378 3379 2068 
Q 3634 1759 3634 1313 
Q 3634 634 3220 271 
Q 2806 -91 2034 -91 
Q 1263 -91 848 271 
Q 434 634 434 1313 
Q 434 1759 690 2068 
Q 947 2378 1403 2484 
z
M 1172 3481 
Q 1172 3119 1398 2916 
Q 1625 2713 2034 2713 
Q 2441 2713 2670 2916 
Q 2900 3119 2900 3481 
Q 2900 3844 2670 4047 
Q 2441 4250 2034 4250 
Q 1625 4250 1398 4047 
Q 1172 3844 1172 3481 
z
" transform="scale(0.015625)"/>
       </defs>
       <use xlink:href="#DejaVuSans-31"/>
       <use xlink:href="#DejaVuSans-32" transform="translate(63.623047 0)"/>
       <use xlink:href="#DejaVuSans-38" transform="translate(127.246094 0)"/>
      </g>
     </g>
    </g>
    <g id="xtick_4">
     <g id="line2d_4">
      <path d="M 122.302573 301.735725 
L 122.302573 35.623725 
" clip-path="url(#p918af8b1f7)" style="fill: none; stroke: #cccccc; stroke-width: 0.8; stroke-linecap: round"/>
     </g>
     <g id="text_4">
      <!-- 32 -->
      <g style="fill: #262626" transform="translate(115.940073 316.334162) scale(0.1 -0.1)">
       <defs>
        <path id="DejaVuSans-33" d="M 2597 2516 
Q 3050 2419 3304 2112 
Q 3559 1806 3559 1356 
Q 3559 666 3084 287 
Q 2609 -91 1734 -91 
Q 1441 -91 1130 -33 
Q 819 25 488 141 
L 488 750 
Q 750 597 1062 519 
Q 1375 441 1716 441 
Q 2309 441 2620 675 
Q 2931 909 2931 1356 
Q 2931 1769 2642 2001 
Q 2353 2234 1838 2234 
L 1294 2234 
L 1294 2753 
L 1863 2753 
Q 2328 2753 2575 2939 
Q 2822 3125 2822 3475 
Q 2822 3834 2567 4026 
Q 2313 4219 1838 4219 
Q 1578 4219 1281 4162 
Q 984 4106 628 3988 
L 628 4550 
Q 988 4650 1302 4700 
Q 1616 4750 1894 4750 
Q 2613 4750 3031 4423 
Q 3450 4097 3450 3541 
Q 3450 3153 3228 2886 
Q 3006 2619 2597 2516 
z
" transform="scale(0.015625)"/>
       </defs>
       <use xlink:href="#DejaVuSans-33"/>
       <use xlink:href="#DejaVuSans-32" transform="translate(63.623047 0)"/>
      </g>
     </g>
    </g>
    <g id="text_5">
     <!-- Number of Jobs -->
     <g style="fill: #262626" transform="translate(199.85375 330.012287) scale(0.1 -0.1)">
      <defs>
       <path id="DejaVuSans-4e" d="M 628 4666 
L 1478 4666 
L 3547 763 
L 3547 4666 
L 4159 4666 
L 4159 0 
L 3309 0 
L 1241 3903 
L 1241 0 
L 628 0 
L 628 4666 
z
" transform="scale(0.015625)"/>
       <path id="DejaVuSans-75" d="M 544 1381 
L 544 3500 
L 1119 3500 
L 1119 1403 
Q 1119 906 1312 657 
Q 1506 409 1894 409 
Q 2359 409 2629 706 
Q 2900 1003 2900 1516 
L 2900 3500 
L 3475 3500 
L 3475 0 
L 2900 0 
L 2900 538 
Q 2691 219 2414 64 
Q 2138 -91 1772 -91 
Q 1169 -91 856 284 
Q 544 659 544 1381 
z
M 1991 3584 
L 1991 3584 
z
" transform="scale(0.015625)"/>
       <path id="DejaVuSans-6d" d="M 3328 2828 
Q 3544 3216 3844 3400 
Q 4144 3584 4550 3584 
Q 5097 3584 5394 3201 
Q 5691 2819 5691 2113 
L 5691 0 
L 5113 0 
L 5113 2094 
Q 5113 2597 4934 2840 
Q 4756 3084 4391 3084 
Q 3944 3084 3684 2787 
Q 3425 2491 3425 1978 
L 3425 0 
L 2847 0 
L 2847 2094 
Q 2847 2600 2669 2842 
Q 2491 3084 2119 3084 
Q 1678 3084 1418 2786 
Q 1159 2488 1159 1978 
L 1159 0 
L 581 0 
L 581 3500 
L 1159 3500 
L 1159 2956 
Q 1356 3278 1631 3431 
Q 1906 3584 2284 3584 
Q 2666 3584 2933 3390 
Q 3200 3197 3328 2828 
z
" transform="scale(0.015625)"/>
       <path id="DejaVuSans-62" d="M 3116 1747 
Q 3116 2381 2855 2742 
Q 2594 3103 2138 3103 
Q 1681 3103 1420 2742 
Q 1159 2381 1159 1747 
Q 1159 1113 1420 752 
Q 1681 391 2138 391 
Q 2594 391 2855 752 
Q 3116 1113 3116 1747 
z
M 1159 2969 
Q 1341 3281 1617 3432 
Q 1894 3584 2278 3584 
Q 2916 3584 3314 3078 
Q 3713 2572 3713 1747 
Q 3713 922 3314 415 
Q 2916 -91 2278 -91 
Q 1894 -91 1617 61 
Q 1341 213 1159 525 
L 1159 0 
L 581 0 
L 581 4863 
L 1159 4863 
L 1159 2969 
z
" transform="scale(0.015625)"/>
       <path id="DejaVuSans-65" d="M 3597 1894 
L 3597 1613 
L 953 1613 
Q 991 1019 1311 708 
Q 1631 397 2203 397 
Q 2534 397 2845 478 
Q 3156 559 3463 722 
L 3463 178 
Q 3153 47 2828 -22 
Q 2503 -91 2169 -91 
Q 1331 -91 842 396 
Q 353 884 353 1716 
Q 353 2575 817 3079 
Q 1281 3584 2069 3584 
Q 2775 3584 3186 3129 
Q 3597 2675 3597 1894 
z
M 3022 2063 
Q 3016 2534 2758 2815 
Q 2500 3097 2075 3097 
Q 1594 3097 1305 2825 
Q 1016 2553 972 2059 
L 3022 2063 
z
" transform="scale(0.015625)"/>
       <path id="DejaVuSans-72" d="M 2631 2963 
Q 2534 3019 2420 3045 
Q 2306 3072 2169 3072 
Q 1681 3072 1420 2755 
Q 1159 2438 1159 1844 
L 1159 0 
L 581 0 
L 581 3500 
L 1159 3500 
L 1159 2956 
Q 1341 3275 1631 3429 
Q 1922 3584 2338 3584 
Q 2397 3584 2469 3576 
Q 2541 3569 2628 3553 
L 2631 2963 
z
" transform="scale(0.015625)"/>
       <path id="DejaVuSans-20" transform="scale(0.015625)"/>
       <path id="DejaVuSans-6f" d="M 1959 3097 
Q 1497 3097 1228 2736 
Q 959 2375 959 1747 
Q 959 1119 1226 758 
Q 1494 397 1959 397 
Q 2419 397 2687 759 
Q 2956 1122 2956 1747 
Q 2956 2369 2687 2733 
Q 2419 3097 1959 3097 
z
M 1959 3584 
Q 2709 3584 3137 3096 
Q 3566 2609 3566 1747 
Q 3566 888 3137 398 
Q 2709 -91 1959 -91 
Q 1206 -91 779 398 
Q 353 888 353 1747 
Q 353 2609 779 3096 
Q 1206 3584 1959 3584 
z
" transform="scale(0.015625)"/>
       <path id="DejaVuSans-66" d="M 2375 4863 
L 2375 4384 
L 1825 4384 
Q 1516 4384 1395 4259 
Q 1275 4134 1275 3809 
L 1275 3500 
L 2222 3500 
L 2222 3053 
L 1275 3053 
L 1275 0 
L 697 0 
L 697 3053 
L 147 3053 
L 147 3500 
L 697 3500 
L 697 3744 
Q 697 4328 969 4595 
Q 1241 4863 1831 4863 
L 2375 4863 
z
" transform="scale(0.015625)"/>
       <path id="DejaVuSans-4a" d="M 628 4666 
L 1259 4666 
L 1259 325 
Q 1259 -519 939 -900 
Q 619 -1281 -91 -1281 
L -331 -1281 
L -331 -750 
L -134 -750 
Q 284 -750 456 -515 
Q 628 -281 628 325 
L 628 4666 
z
" transform="scale(0.015625)"/>
       <path id="DejaVuSans-73" d="M 2834 3397 
L 2834 2853 
Q 2591 2978 2328 3040 
Q 2066 3103 1784 3103 
Q 1356 3103 1142 2972 
Q 928 2841 928 2578 
Q 928 2378 1081 2264 
Q 1234 2150 1697 2047 
L 1894 2003 
Q 2506 1872 2764 1633 
Q 3022 1394 3022 966 
Q 3022 478 2636 193 
Q 2250 -91 1575 -91 
Q 1294 -91 989 -36 
Q 684 19 347 128 
L 347 722 
Q 666 556 975 473 
Q 1284 391 1588 391 
Q 1994 391 2212 530 
Q 2431 669 2431 922 
Q 2431 1156 2273 1281 
Q 2116 1406 1581 1522 
L 1381 1569 
Q 847 1681 609 1914 
Q 372 2147 372 2553 
Q 372 3047 722 3315 
Q 1072 3584 1716 3584 
Q 2034 3584 2315 3537 
Q 2597 3491 2834 3397 
z
" transform="scale(0.015625)"/>
      </defs>
      <use xlink:href="#DejaVuSans-4e"/>
      <use xlink:href="#DejaVuSans-75" transform="translate(74.804688 0)"/>
      <use xlink:href="#DejaVuSans-6d" transform="translate(138.183594 0)"/>
      <use xlink:href="#DejaVuSans-62" transform="translate(235.595703 0)"/>
      <use xlink:href="#DejaVuSans-65" transform="translate(299.072266 0)"/>
      <use xlink:href="#DejaVuSans-72" transform="translate(360.595703 0)"/>
      <use xlink:href="#DejaVuSans-20" transform="translate(401.708984 0)"/>
      <use xlink:href="#DejaVuSans-6f" transform="translate(433.496094 0)"/>
      <use xlink:href="#DejaVuSans-66" transform="translate(494.677734 0)"/>
      <use xlink:href="#DejaVuSans-20" transform="translate(529.882812 0)"/>
      <use xlink:href="#DejaVuSans-4a" transform="translate(561.669922 0)"/>
      <use xlink:href="#DejaVuSans-6f" transform="translate(591.162109 0)"/>
      <use xlink:href="#DejaVuSans-62" transform="translate(652.34375 0)"/>
      <use xlink:href="#DejaVuSans-73" transform="translate(715.820312 0)"/>
     </g>
    </g>
   </g>
   <g id="matplotlib.axis_2">
    <g id="ytick_1">
     <g id="line2d_5">
      <path d="M 59.690625 294.106621 
L 416.810625 294.106621 
" clip-path="url(#p918af8b1f7)" style="fill: none; stroke: #cccccc; stroke-width: 0.8; stroke-linecap: round"/>
     </g>
     <g id="text_6">
      <!-- 9000 -->
      <g style="fill: #262626" transform="translate(27.240625 297.90584) scale(0.1 -0.1)">
       <defs>
        <path id="DejaVuSans-39" d="M 703 97 
L 703 672 
Q 941 559 1184 500 
Q 1428 441 1663 441 
Q 2288 441 2617 861 
Q 2947 1281 2994 2138 
Q 2813 1869 2534 1725 
Q 2256 1581 1919 1581 
Q 1219 1581 811 2004 
Q 403 2428 403 3163 
Q 403 3881 828 4315 
Q 1253 4750 1959 4750 
Q 2769 4750 3195 4129 
Q 3622 3509 3622 2328 
Q 3622 1225 3098 567 
Q 2575 -91 1691 -91 
Q 1453 -91 1209 -44 
Q 966 3 703 97 
z
M 1959 2075 
Q 2384 2075 2632 2365 
Q 2881 2656 2881 3163 
Q 2881 3666 2632 3958 
Q 2384 4250 1959 4250 
Q 1534 4250 1286 3958 
Q 1038 3666 1038 3163 
Q 1038 2656 1286 2365 
Q 1534 2075 1959 2075 
z
" transform="scale(0.015625)"/>
        <path id="DejaVuSans-30" d="M 2034 4250 
Q 1547 4250 1301 3770 
Q 1056 3291 1056 2328 
Q 1056 1369 1301 889 
Q 1547 409 2034 409 
Q 2525 409 2770 889 
Q 3016 1369 3016 2328 
Q 3016 3291 2770 3770 
Q 2525 4250 2034 4250 
z
M 2034 4750 
Q 2819 4750 3233 4129 
Q 3647 3509 3647 2328 
Q 3647 1150 3233 529 
Q 2819 -91 2034 -91 
Q 1250 -91 836 529 
Q 422 1150 422 2328 
Q 422 3509 836 4129 
Q 1250 4750 2034 4750 
z
" transform="scale(0.015625)"/>
       </defs>
       <use xlink:href="#DejaVuSans-39"/>
       <use xlink:href="#DejaVuSans-30" transform="translate(63.623047 0)"/>
       <use xlink:href="#DejaVuSans-30" transform="translate(127.246094 0)"/>
       <use xlink:href="#DejaVuSans-30" transform="translate(190.869141 0)"/>
      </g>
     </g>
    </g>
    <g id="ytick_2">
     <g id="line2d_6">
      <path d="M 59.690625 249.87993 
L 416.810625 249.87993 
" clip-path="url(#p918af8b1f7)" style="fill: none; stroke: #cccccc; stroke-width: 0.8; stroke-linecap: round"/>
     </g>
     <g id="text_7">
      <!-- 10000 -->
      <g style="fill: #262626" transform="translate(20.878125 253.679149) scale(0.1 -0.1)">
       <use xlink:href="#DejaVuSans-31"/>
       <use xlink:href="#DejaVuSans-30" transform="translate(63.623047 0)"/>
       <use xlink:href="#DejaVuSans-30" transform="translate(127.246094 0)"/>
       <use xlink:href="#DejaVuSans-30" transform="translate(190.869141 0)"/>
       <use xlink:href="#DejaVuSans-30" transform="translate(254.492188 0)"/>
      </g>
     </g>
    </g>
    <g id="ytick_3">
     <g id="line2d_7">
      <path d="M 59.690625 205.653239 
L 416.810625 205.653239 
" clip-path="url(#p918af8b1f7)" style="fill: none; stroke: #cccccc; stroke-width: 0.8; stroke-linecap: round"/>
     </g>
     <g id="text_8">
      <!-- 11000 -->
      <g style="fill: #262626" transform="translate(20.878125 209.452457) scale(0.1 -0.1)">
       <use xlink:href="#DejaVuSans-31"/>
       <use xlink:href="#DejaVuSans-31" transform="translate(63.623047 0)"/>
       <use xlink:href="#DejaVuSans-30" transform="translate(127.246094 0)"/>
       <use xlink:href="#DejaVuSans-30" transform="translate(190.869141 0)"/>
       <use xlink:href="#DejaVuSans-30" transform="translate(254.492188 0)"/>
      </g>
     </g>
    </g>
    <g id="ytick_4">
     <g id="line2d_8">
      <path d="M 59.690625 161.426548 
L 416.810625 161.426548 
" clip-path="url(#p918af8b1f7)" style="fill: none; stroke: #cccccc; stroke-width: 0.8; stroke-linecap: round"/>
     </g>
     <g id="text_9">
      <!-- 12000 -->
      <g style="fill: #262626" transform="translate(20.878125 165.225766) scale(0.1 -0.1)">
       <use xlink:href="#DejaVuSans-31"/>
       <use xlink:href="#DejaVuSans-32" transform="translate(63.623047 0)"/>
       <use xlink:href="#DejaVuSans-30" transform="translate(127.246094 0)"/>
       <use xlink:href="#DejaVuSans-30" transform="translate(190.869141 0)"/>
       <use xlink:href="#DejaVuSans-30" transform="translate(254.492188 0)"/>
      </g>
     </g>
    </g>
    <g id="ytick_5">
     <g id="line2d_9">
      <path d="M 59.690625 117.199857 
L 416.810625 117.199857 
" clip-path="url(#p918af8b1f7)" style="fill: none; stroke: #cccccc; stroke-width: 0.8; stroke-linecap: round"/>
     </g>
     <g id="text_10">
      <!-- 13000 -->
      <g style="fill: #262626" transform="translate(20.878125 120.999075) scale(0.1 -0.1)">
       <use xlink:href="#DejaVuSans-31"/>
       <use xlink:href="#DejaVuSans-33" transform="translate(63.623047 0)"/>
       <use xlink:href="#DejaVuSans-30" transform="translate(127.246094 0)"/>
       <use xlink:href="#DejaVuSans-30" transform="translate(190.869141 0)"/>
       <use xlink:href="#DejaVuSans-30" transform="translate(254.492188 0)"/>
      </g>
     </g>
    </g>
    <g id="ytick_6">
     <g id="line2d_10">
      <path d="M 59.690625 72.973166 
L 416.810625 72.973166 
" clip-path="url(#p918af8b1f7)" style="fill: none; stroke: #cccccc; stroke-width: 0.8; stroke-linecap: round"/>
     </g>
     <g id="text_11">
      <!-- 14000 -->
      <g style="fill: #262626" transform="translate(20.878125 76.772384) scale(0.1 -0.1)">
       <use xlink:href="#DejaVuSans-31"/>
       <use xlink:href="#DejaVuSans-34" transform="translate(63.623047 0)"/>
       <use xlink:href="#DejaVuSans-30" transform="translate(127.246094 0)"/>
       <use xlink:href="#DejaVuSans-30" transform="translate(190.869141 0)"/>
       <use xlink:href="#DejaVuSans-30" transform="translate(254.492188 0)"/>
      </g>
     </g>
    </g>
    <g id="text_12">
     <!-- IOPS -->
     <g style="fill: #262626" transform="translate(14.798438 180.279725) rotate(-90) scale(0.1 -0.1)">
      <defs>
       <path id="DejaVuSans-49" d="M 628 4666 
L 1259 4666 
L 1259 0 
L 628 0 
L 628 4666 
z
" transform="scale(0.015625)"/>
       <path id="DejaVuSans-4f" d="M 2522 4238 
Q 1834 4238 1429 3725 
Q 1025 3213 1025 2328 
Q 1025 1447 1429 934 
Q 1834 422 2522 422 
Q 3209 422 3611 934 
Q 4013 1447 4013 2328 
Q 4013 3213 3611 3725 
Q 3209 4238 2522 4238 
z
M 2522 4750 
Q 3503 4750 4090 4092 
Q 4678 3434 4678 2328 
Q 4678 1225 4090 567 
Q 3503 -91 2522 -91 
Q 1538 -91 948 565 
Q 359 1222 359 2328 
Q 359 3434 948 4092 
Q 1538 4750 2522 4750 
z
" transform="scale(0.015625)"/>
       <path id="DejaVuSans-50" d="M 1259 4147 
L 1259 2394 
L 2053 2394 
Q 2494 2394 2734 2622 
Q 2975 2850 2975 3272 
Q 2975 3691 2734 3919 
Q 2494 4147 2053 4147 
L 1259 4147 
z
M 628 4666 
L 2053 4666 
Q 2838 4666 3239 4311 
Q 3641 3956 3641 3272 
Q 3641 2581 3239 2228 
Q 2838 1875 2053 1875 
L 1259 1875 
L 1259 0 
L 628 0 
L 628 4666 
z
" transform="scale(0.015625)"/>
       <path id="DejaVuSans-53" d="M 3425 4513 
L 3425 3897 
Q 3066 4069 2747 4153 
Q 2428 4238 2131 4238 
Q 1616 4238 1336 4038 
Q 1056 3838 1056 3469 
Q 1056 3159 1242 3001 
Q 1428 2844 1947 2747 
L 2328 2669 
Q 3034 2534 3370 2195 
Q 3706 1856 3706 1288 
Q 3706 609 3251 259 
Q 2797 -91 1919 -91 
Q 1588 -91 1214 -16 
Q 841 59 441 206 
L 441 856 
Q 825 641 1194 531 
Q 1563 422 1919 422 
Q 2459 422 2753 634 
Q 3047 847 3047 1241 
Q 3047 1584 2836 1778 
Q 2625 1972 2144 2069 
L 1759 2144 
Q 1053 2284 737 2584 
Q 422 2884 422 3419 
Q 422 4038 858 4394 
Q 1294 4750 2059 4750 
Q 2388 4750 2728 4690 
Q 3069 4631 3425 4513 
z
" transform="scale(0.015625)"/>
      </defs>
      <use xlink:href="#DejaVuSans-49"/>
      <use xlink:href="#DejaVuSans-4f" transform="translate(29.492188 0)"/>
      <use xlink:href="#DejaVuSans-50" transform="translate(108.203125 0)"/>
      <use xlink:href="#DejaVuSans-53" transform="translate(168.505859 0)"/>
     </g>
    </g>
   </g>
   <g id="FillBetweenPolyCollection_1"/>
   <g id="FillBetweenPolyCollection_2"/>
   <g id="FillBetweenPolyCollection_3"/>
   <g id="FillBetweenPolyCollection_4"/>
   <g id="FillBetweenPolyCollection_5"/>
   <g id="FillBetweenPolyCollection_6"/>
   <g id="FillBetweenPolyCollection_7"/>
   <g id="line2d_11">
    <path d="M 75.923352 186.724215 
L 122.302573 276.062131 
L 215.061015 270.799155 
L 400.577898 233.471827 
" clip-path="url(#p918af8b1f7)" style="fill: none; stroke: #4c02a1; stroke-width: 1.5; stroke-linecap: round"/>
   </g>
   <g id="line2d_12">
    <path d="M 75.923352 188.758643 
L 122.302573 227.058957 
L 215.061015 128.52189 
L 400.577898 69.390804 
" clip-path="url(#p918af8b1f7)" style="fill: none; stroke: #7e03a8; stroke-width: 1.5; stroke-linecap: round"/>
   </g>
   <g id="line2d_13">
    <path d="M 75.923352 188.139469 
L 122.302573 267.216793 
L 215.061015 285.96891 
L 400.577898 201.36325 
" clip-path="url(#p918af8b1f7)" style="fill: none; stroke: #aa2395; stroke-width: 1.5; stroke-linecap: round"/>
   </g>
   <g id="line2d_14">
    <path d="M 75.923352 195.21574 
L 122.302573 276.371718 
L 215.061015 121.755206 
L 400.577898 56.565063 
" clip-path="url(#p918af8b1f7)" style="fill: none; stroke: #cc4778; stroke-width: 1.5; stroke-linecap: round"/>
   </g>
   <g id="line2d_15">
    <path d="M 75.923352 275.26605 
L 122.302573 289.639725 
L 215.061015 130.777451 
L 400.577898 47.719725 
" clip-path="url(#p918af8b1f7)" style="fill: none; stroke: #e66c5c; stroke-width: 1.5; stroke-linecap: round"/>
   </g>
   <g id="line2d_16">
    <path d="M 75.923352 259.654028 
L 122.302573 277.300478 
L 215.061015 121.136032 
L 400.577898 54.663315 
" clip-path="url(#p918af8b1f7)" style="fill: none; stroke: #f89540; stroke-width: 1.5; stroke-linecap: round"/>
   </g>
   <g id="line2d_17">
    <path d="M 75.923352 248.243542 
L 122.302573 276.017904 
L 215.061015 118.217071 
L 400.577898 59.837838 
" clip-path="url(#p918af8b1f7)" style="fill: none; stroke: #fdc527; stroke-width: 1.5; stroke-linecap: round"/>
   </g>
   <g id="line2d_18"/>
   <g id="line2d_19"/>
   <g id="line2d_20"/>
   <g id="line2d_21"/>
   <g id="line2d_22"/>
   <g id="line2d_23"/>
   <g id="line2d_24"/>
   <g id="text_13">
    <path d="M 115.115822 266.406765 
L 115.858069 267.836517 
L 120.794942 265.27357 
L 119.67516 263.879607 
L 120.472548 263.465648 
L 121.58801 264.851291 
L 122.042285 265.726338 
L 116.308024 268.703243 
L 117.050271 270.132995 
L 116.3139 270.515277 
L 114.379452 266.789048 
L 115.115822 266.406765 
z
" clip-path="url(#p918af8b1f7)" style="fill: #4c02a1; stroke: #ffffff; stroke-width: 5"/>
    <path d="M 115.115822 266.406765 
L 115.858069 267.836517 
L 120.794942 265.27357 
L 119.67516 263.879607 
L 120.472548 263.465648 
L 121.58801 264.851291 
L 122.042285 265.726338 
L 116.308024 268.703243 
L 117.050271 270.132995 
L 116.3139 270.515277 
L 114.379452 266.789048 
L 115.115822 266.406765 
z
" clip-path="url(#p918af8b1f7)" style="fill: #4c02a1"/>
   </g>
   <g id="text_14">
    <path d="M 155.635194 186.292787 
L 156.762073 190.774135 
L 158.469232 188.960624 
L 155.635194 186.292787 
z
M 154.831669 185.892602 
L 155.682036 184.989259 
L 159.141814 188.246142 
L 159.855093 187.488426 
L 160.452391 188.050696 
L 159.739112 188.808412 
L 160.990593 189.986501 
L 160.318011 190.700984 
L 159.06653 189.522894 
L 156.811024 191.918913 
L 156.118158 191.266679 
L 154.831669 185.892602 
z
" clip-path="url(#p918af8b1f7)" style="fill: #7e03a8; stroke: #ffffff; stroke-width: 5"/>
    <path d="M 155.635194 186.292787 
L 156.762073 190.774135 
L 158.469232 188.960624 
L 155.635194 186.292787 
z
M 154.831669 185.892602 
L 155.682036 184.989259 
L 159.141814 188.246142 
L 159.855093 187.488426 
L 160.452391 188.050696 
L 159.739112 188.808412 
L 160.990593 189.986501 
L 160.318011 190.700984 
L 159.06653 189.522894 
L 156.811024 191.918913 
L 156.118158 191.266679 
L 154.831669 185.892602 
z
" clip-path="url(#p918af8b1f7)" style="fill: #7e03a8"/>
   </g>
   <g id="text_15">
    <path d="M 198.210888 281.845126 
Q 197.521705 281.7058 197.051957 281.995016 
Q 196.58374 282.284541 196.453393 282.92931 
Q 196.322736 283.575611 196.64172 284.024277 
Q 196.962235 284.473253 197.651417 284.612578 
Q 198.3406 284.751904 198.81219 284.461467 
Q 199.28562 284.169807 199.415348 283.528101 
Q 199.545695 282.883332 199.22518 282.434356 
Q 198.906197 281.98569 198.210888 281.845126 
z
M 197.327476 281.239314 
Q 196.736641 280.960459 196.475059 280.464415 
Q 196.215318 279.967149 196.339163 279.354542 
Q 196.512237 278.498424 197.222405 278.123907 
Q 197.934105 277.749699 198.995446 277.96426 
Q 200.062914 278.180061 200.570303 278.80072 
Q 201.077691 279.42138 200.904617 280.277498 
Q 200.780772 280.890105 200.346736 281.247116 
Q 199.91454 281.602906 199.266378 281.631283 
Q 199.931931 281.934808 200.224956 282.48822 
Q 200.519823 283.04041 200.381736 283.723467 
Q 200.171508 284.763367 199.425071 285.191129 
Q 198.678943 285.617358 197.496611 285.378337 
Q 196.315811 285.139626 195.792311 284.456727 
Q 195.270652 283.772607 195.480879 282.732706 
Q 195.618967 282.049649 196.106705 281.655671 
Q 196.596285 281.260471 197.327476 281.239314 
z
M 197.28238 279.64087 
Q 197.1703 280.195279 197.453571 280.57615 
Q 197.738375 280.95733 198.364765 281.083962 
Q 198.988093 281.209974 199.401662 280.969977 
Q 199.816762 280.73029 199.928842 280.175881 
Q 200.041232 279.61994 199.751834 279.237831 
Q 199.463968 278.856032 198.84064 278.730019 
Q 198.214249 278.603388 197.803743 278.844004 
Q 197.394769 279.084929 197.28238 279.64087 
z
" clip-path="url(#p918af8b1f7)" style="fill: #aa2395; stroke: #ffffff; stroke-width: 5"/>
    <path d="M 198.210888 281.845126 
Q 197.521705 281.7058 197.051957 281.995016 
Q 196.58374 282.284541 196.453393 282.92931 
Q 196.322736 283.575611 196.64172 284.024277 
Q 196.962235 284.473253 197.651417 284.612578 
Q 198.3406 284.751904 198.81219 284.461467 
Q 199.28562 284.169807 199.415348 283.528101 
Q 199.545695 282.883332 199.22518 282.434356 
Q 198.906197 281.98569 198.210888 281.845126 
z
M 197.327476 281.239314 
Q 196.736641 280.960459 196.475059 280.464415 
Q 196.215318 279.967149 196.339163 279.354542 
Q 196.512237 278.498424 197.222405 278.123907 
Q 197.934105 277.749699 198.995446 277.96426 
Q 200.062914 278.180061 200.570303 278.80072 
Q 201.077691 279.42138 200.904617 280.277498 
Q 200.780772 280.890105 200.346736 281.247116 
Q 199.91454 281.602906 199.266378 281.631283 
Q 199.931931 281.934808 200.224956 282.48822 
Q 200.519823 283.04041 200.381736 283.723467 
Q 200.171508 284.763367 199.425071 285.191129 
Q 198.678943 285.617358 197.496611 285.378337 
Q 196.315811 285.139626 195.792311 284.456727 
Q 195.270652 283.772607 195.480879 282.732706 
Q 195.618967 282.049649 196.106705 281.655671 
Q 196.596285 281.260471 197.327476 281.239314 
z
M 197.28238 279.64087 
Q 197.1703 280.195279 197.453571 280.57615 
Q 197.738375 280.95733 198.364765 281.083962 
Q 198.988093 281.209974 199.401662 280.969977 
Q 199.816762 280.73029 199.928842 280.175881 
Q 200.041232 279.61994 199.751834 279.237831 
Q 199.463968 278.856032 198.84064 278.730019 
Q 198.214249 278.603388 197.803743 278.844004 
Q 197.394769 279.084929 197.28238 279.64087 
z
" clip-path="url(#p918af8b1f7)" style="fill: #aa2395"/>
   </g>
   <g id="text_16">
    <path d="M 234.058149 117.125023 
L 235.577982 116.590957 
L 233.733876 111.343036 
L 232.196448 112.25592 
L 231.898594 111.408293 
L 233.427177 110.498516 
L 234.357357 110.171653 
L 236.499317 116.267203 
L 238.01915 115.733137 
L 238.294212 116.515903 
L 234.33321 117.907789 
L 234.058149 117.125023 
z
M 240.941559 111.306111 
Q 240.315051 111.526264 240.098732 112.084221 
Q 239.883368 112.640186 240.14548 113.386098 
Q 240.406037 114.127589 240.923399 114.431044 
Q 241.441717 114.732508 242.068224 114.512355 
Q 242.694732 114.292202 242.909059 113.733289 
Q 243.122869 113.172901 242.862311 112.431411 
Q 242.600199 111.685499 242.084392 111.386465 
Q 241.568066 111.085958 240.941559 111.306111 
z
M 241.763514 107.739734 
L 242.061368 108.587362 
Q 241.652507 108.545544 241.265204 108.583928 
Q 240.877383 108.620838 240.526538 108.744124 
Q 239.605204 109.067878 239.337338 109.860906 
Q 239.070947 110.653415 239.443523 111.935199 
Q 239.573866 111.438921 239.908564 111.081165 
Q 240.244737 110.722891 240.737098 110.549877 
Q 241.773415 110.185718 242.596051 110.603827 
Q 243.41817 111.020461 243.798387 112.102477 
Q 244.170834 113.16238 243.76966 114.023782 
Q 243.367967 114.88371 242.327228 115.249423 
Q 241.133178 115.669008 240.181084 114.976752 
Q 239.228472 114.283021 238.618259 112.546489 
Q 238.045343 110.916096 238.478415 109.674161 
Q 238.911488 108.432226 240.214623 107.974308 
Q 240.565467 107.851022 240.946554 107.794949 
Q 241.327642 107.738875 241.763514 107.739734 
z
" clip-path="url(#p918af8b1f7)" style="fill: #cc4778; stroke: #ffffff; stroke-width: 5"/>
    <path d="M 234.058149 117.125023 
L 235.577982 116.590957 
L 233.733876 111.343036 
L 232.196448 112.25592 
L 231.898594 111.408293 
L 233.427177 110.498516 
L 234.357357 110.171653 
L 236.499317 116.267203 
L 238.01915 115.733137 
L 238.294212 116.515903 
L 234.33321 117.907789 
L 234.058149 117.125023 
z
M 240.941559 111.306111 
Q 240.315051 111.526264 240.098732 112.084221 
Q 239.883368 112.640186 240.14548 113.386098 
Q 240.406037 114.127589 240.923399 114.431044 
Q 241.441717 114.732508 242.068224 114.512355 
Q 242.694732 114.292202 242.909059 113.733289 
Q 243.122869 113.172901 242.862311 112.431411 
Q 242.600199 111.685499 242.084392 111.386465 
Q 241.568066 111.085958 240.941559 111.306111 
z
M 241.763514 107.739734 
L 242.061368 108.587362 
Q 241.652507 108.545544 241.265204 108.583928 
Q 240.877383 108.620838 240.526538 108.744124 
Q 239.605204 109.067878 239.337338 109.860906 
Q 239.070947 110.653415 239.443523 111.935199 
Q 239.573866 111.438921 239.908564 111.081165 
Q 240.244737 110.722891 240.737098 110.549877 
Q 241.773415 110.185718 242.596051 110.603827 
Q 243.41817 111.020461 243.798387 112.102477 
Q 244.170834 113.16238 243.76966 114.023782 
Q 243.367967 114.88371 242.327228 115.249423 
Q 241.133178 115.669008 240.181084 114.976752 
Q 239.228472 114.283021 238.618259 112.546489 
Q 238.045343 110.916096 238.478415 109.674161 
Q 238.911488 108.432226 240.214623 107.974308 
Q 240.565467 107.851022 240.946554 107.794949 
Q 241.327642 107.738875 241.763514 107.739734 
z
" clip-path="url(#p918af8b1f7)" style="fill: #cc4778"/>
   </g>
   <g id="text_17">
    <path d="M 275.844274 102.280228 
Q 276.552228 102.129329 277.110469 102.404968 
Q 277.669498 102.678541 277.956813 103.320285 
Q 278.397363 104.304292 277.96195 105.14806 
Q 277.525898 105.990401 276.278063 106.549069 
Q 275.860217 106.736143 275.379669 106.851996 
Q 274.899121 106.967849 274.353019 107.013758 
L 273.964187 106.145265 
Q 274.435511 106.196176 274.930255 106.108207 
Q 275.426424 106.019599 275.912723 105.801878 
Q 276.758399 105.423261 277.052511 104.890988 
Q 277.346624 104.358714 277.061224 103.721249 
Q 276.797533 103.132271 276.237264 102.985936 
Q 275.676357 102.838176 274.941917 103.166992 
L 274.16612 103.514324 
L 273.83475 102.774179 
L 274.646199 102.410886 
Q 275.309334 102.113994 275.542824 101.691036 
Q 275.776313 101.268077 275.552846 100.768944 
Q 275.323632 100.256975 274.83739 100.145976 
Q 274.351935 100.032912 273.674539 100.336189 
Q 273.303754 100.502194 272.916596 100.773109 
Q 272.5288 101.042598 272.09645 101.438176 
L 271.737625 100.636709 
Q 272.187173 100.264247 272.603043 99.992461 
Q 273.018914 99.720674 273.415369 99.543177 
Q 274.440732 99.084112 275.245623 99.283562 
Q 276.051301 99.480947 276.406295 100.273857 
Q 276.654024 100.827183 276.507904 101.349693 
Q 276.361784 101.872203 275.844274 102.280228 
z
M 280.966214 103.385305 
L 284.107905 101.978739 
L 284.446937 102.735997 
L 280.222838 104.627167 
L 279.883806 103.86991 
Q 280.158261 103.110188 280.642754 101.821596 
Q 281.128035 100.530938 281.238582 100.169871 
Q 281.453607 99.491539 281.474058 99.078363 
Q 281.495935 98.664548 281.350362 98.339398 
Q 281.112848 97.80889 280.591233 97.641826 
Q 280.068979 97.473336 279.471445 97.740858 
Q 279.047894 97.930486 278.643045 98.288071 
Q 278.239622 98.645018 277.838916 99.183928 
L 277.431568 98.274078 
Q 277.877224 97.812625 278.29946 97.490053 
Q 278.723123 97.166843 279.1153 96.991262 
Q 280.14922 96.528366 280.995636 96.770855 
Q 281.841412 97.011918 282.22833 97.876133 
Q 282.412211 98.286849 282.42292 98.723738 
Q 282.434416 99.158562 282.251446 99.839662 
Q 282.198312 100.019238 281.877238 100.90426 
Q 281.55759 101.788644 280.966214 103.385305 
z
" clip-path="url(#p918af8b1f7)" style="fill: #e66c5c; stroke: #ffffff; stroke-width: 5"/>
    <path d="M 275.844274 102.280228 
Q 276.552228 102.129329 277.110469 102.404968 
Q 277.669498 102.678541 277.956813 103.320285 
Q 278.397363 104.304292 277.96195 105.14806 
Q 277.525898 105.990401 276.278063 106.549069 
Q 275.860217 106.736143 275.379669 106.851996 
Q 274.899121 106.967849 274.353019 107.013758 
L 273.964187 106.145265 
Q 274.435511 106.196176 274.930255 106.108207 
Q 275.426424 106.019599 275.912723 105.801878 
Q 276.758399 105.423261 277.052511 104.890988 
Q 277.346624 104.358714 277.061224 103.721249 
Q 276.797533 103.132271 276.237264 102.985936 
Q 275.676357 102.838176 274.941917 103.166992 
L 274.16612 103.514324 
L 273.83475 102.774179 
L 274.646199 102.410886 
Q 275.309334 102.113994 275.542824 101.691036 
Q 275.776313 101.268077 275.552846 100.768944 
Q 275.323632 100.256975 274.83739 100.145976 
Q 274.351935 100.032912 273.674539 100.336189 
Q 273.303754 100.502194 272.916596 100.773109 
Q 272.5288 101.042598 272.09645 101.438176 
L 271.737625 100.636709 
Q 272.187173 100.264247 272.603043 99.992461 
Q 273.018914 99.720674 273.415369 99.543177 
Q 274.440732 99.084112 275.245623 99.283562 
Q 276.051301 99.480947 276.406295 100.273857 
Q 276.654024 100.827183 276.507904 101.349693 
Q 276.361784 101.872203 275.844274 102.280228 
z
M 280.966214 103.385305 
L 284.107905 101.978739 
L 284.446937 102.735997 
L 280.222838 104.627167 
L 279.883806 103.86991 
Q 280.158261 103.110188 280.642754 101.821596 
Q 281.128035 100.530938 281.238582 100.169871 
Q 281.453607 99.491539 281.474058 99.078363 
Q 281.495935 98.664548 281.350362 98.339398 
Q 281.112848 97.80889 280.591233 97.641826 
Q 280.068979 97.473336 279.471445 97.740858 
Q 279.047894 97.930486 278.643045 98.288071 
Q 278.239622 98.645018 277.838916 99.183928 
L 277.431568 98.274078 
Q 277.877224 97.812625 278.29946 97.490053 
Q 278.723123 97.166843 279.1153 96.991262 
Q 280.14922 96.528366 280.995636 96.770855 
Q 281.841412 97.011918 282.22833 97.876133 
Q 282.412211 98.286849 282.42292 98.723738 
Q 282.434416 99.158562 282.251446 99.839662 
Q 282.198312 100.019238 281.877238 100.90426 
Q 281.55759 101.788644 280.966214 103.385305 
z
" clip-path="url(#p918af8b1f7)" style="fill: #e66c5c"/>
   </g>
   <g id="text_18">
    <path d="M 315.289953 83.865218 
Q 314.664809 84.089214 314.45192 84.648489 
Q 314.239974 85.205766 314.506661 85.950055 
Q 314.771767 86.689931 315.290982 86.990204 
Q 315.811141 87.28848 316.436285 87.064484 
Q 317.061429 86.840488 317.27232 86.280269 
Q 317.482685 85.71858 317.217579 84.978703 
Q 316.950892 84.234414 316.433258 83.938554 
Q 315.915097 83.641222 315.289953 83.865218 
z
M 316.089994 80.293862 
L 316.393048 81.139645 
Q 315.983938 81.100338 315.596877 81.1411 
Q 315.20929 81.18039 314.85921 81.305828 
Q 313.93988 81.635233 313.676889 82.42989 
Q 313.415369 83.224021 313.795808 84.503493 
Q 313.923102 84.006423 314.255597 83.646619 
Q 314.589564 83.286288 315.080853 83.110254 
Q 316.114915 82.739738 316.940103 83.152788 
Q 317.764764 83.564367 318.151618 84.644027 
Q 318.530566 85.701624 318.134688 86.565473 
Q 317.738284 87.427851 316.69981 87.799947 
Q 315.508359 88.226857 314.552032 87.540459 
Q 313.595178 86.852591 312.974314 85.119839 
Q 312.391398 83.492994 312.816836 82.248424 
Q 313.242274 81.003853 314.542573 80.537942 
Q 314.892654 80.412504 315.27339 80.354092 
Q 315.654125 80.295679 316.089994 80.293862 
z
M 320.922048 79.304403 
L 319.89027 83.808598 
L 322.234927 82.968482 
L 320.922048 79.304403 
z
M 320.387997 78.582884 
L 321.555913 78.164407 
L 323.158669 82.637495 
L 324.138306 82.286481 
L 324.415007 83.058717 
L 323.43537 83.409732 
L 324.015124 85.027751 
L 323.091382 85.358738 
L 322.511628 83.740719 
L 319.413856 84.850684 
L 319.092883 83.95489 
L 320.387997 78.582884 
z
" clip-path="url(#p918af8b1f7)" style="fill: #f89540; stroke: #ffffff; stroke-width: 5"/>
    <path d="M 315.289953 83.865218 
Q 314.664809 84.089214 314.45192 84.648489 
Q 314.239974 85.205766 314.506661 85.950055 
Q 314.771767 86.689931 315.290982 86.990204 
Q 315.811141 87.28848 316.436285 87.064484 
Q 317.061429 86.840488 317.27232 86.280269 
Q 317.482685 85.71858 317.217579 84.978703 
Q 316.950892 84.234414 316.433258 83.938554 
Q 315.915097 83.641222 315.289953 83.865218 
z
M 316.089994 80.293862 
L 316.393048 81.139645 
Q 315.983938 81.100338 315.596877 81.1411 
Q 315.20929 81.18039 314.85921 81.305828 
Q 313.93988 81.635233 313.676889 82.42989 
Q 313.415369 83.224021 313.795808 84.503493 
Q 313.923102 84.006423 314.255597 83.646619 
Q 314.589564 83.286288 315.080853 83.110254 
Q 316.114915 82.739738 316.940103 83.152788 
Q 317.764764 83.564367 318.151618 84.644027 
Q 318.530566 85.701624 318.134688 86.565473 
Q 317.738284 87.427851 316.69981 87.799947 
Q 315.508359 88.226857 314.552032 87.540459 
Q 313.595178 86.852591 312.974314 85.119839 
Q 312.391398 83.492994 312.816836 82.248424 
Q 313.242274 81.003853 314.542573 80.537942 
Q 314.892654 80.412504 315.27339 80.354092 
Q 315.654125 80.295679 316.089994 80.293862 
z
M 320.922048 79.304403 
L 319.89027 83.808598 
L 322.234927 82.968482 
L 320.922048 79.304403 
z
M 320.387997 78.582884 
L 321.555913 78.164407 
L 323.158669 82.637495 
L 324.138306 82.286481 
L 324.415007 83.058717 
L 323.43537 83.409732 
L 324.015124 85.027751 
L 323.091382 85.358738 
L 322.511628 83.740719 
L 319.413856 84.850684 
L 319.092883 83.95489 
L 320.387997 78.582884 
z
" clip-path="url(#p918af8b1f7)" style="fill: #f89540"/>
   </g>
   <g id="text_19">
    <path d="M 351.437638 77.324479 
L 352.974287 76.84092 
L 351.304578 71.534935 
L 349.737828 72.396525 
L 349.468141 71.539519 
L 351.025949 70.680743 
L 351.96642 70.384792 
L 353.905816 76.547782 
L 355.442465 76.064223 
L 355.691514 76.85565 
L 351.686688 78.115905 
L 351.437638 77.324479 
z
M 358.153398 75.211135 
L 361.436849 74.177885 
L 361.685898 74.969312 
L 357.2712 76.358548 
L 357.02215 75.567121 
Q 357.382745 74.844298 358.013215 73.620487 
Q 358.644706 72.394716 358.796325 72.048881 
Q 359.088463 71.400017 359.156628 70.99199 
Q 359.226283 70.583493 359.119347 70.243672 
Q 358.944872 69.689226 358.446115 69.462876 
Q 357.946889 69.235035 357.322392 69.431555 
Q 356.87973 69.570853 356.436192 69.879146 
Q 355.994145 70.186969 355.533722 70.675845 
L 355.234488 69.724941 
Q 355.730587 69.318206 356.187341 69.046706 
Q 356.645585 68.774737 357.055458 68.645756 
Q 358.13603 68.305717 358.948666 68.644601 
Q 359.760833 68.981995 360.045059 69.885205 
Q 360.180137 70.314453 360.140176 70.749642 
Q 360.101236 71.182872 359.840616 71.838198 
Q 359.767042 72.010412 359.345631 72.852294 
Q 358.925711 73.693707 358.153398 75.211135 
z
M 364.633306 70.411916 
Q 363.962605 70.622975 363.691104 71.10318 
Q 363.421093 71.582915 363.618551 72.210392 
Q 363.816477 72.83936 364.312555 73.078019 
Q 364.810124 73.31621 365.480824 73.105151 
Q 366.151524 72.894092 366.424047 72.411928 
Q 366.697591 71.927805 366.501072 71.303308 
Q 366.303614 70.675831 365.806046 70.437641 
Q 365.309968 70.198982 364.633306 70.411916 
z
M 363.567137 70.308428 
Q 362.915115 70.349806 362.446396 70.04193 
Q 361.978699 69.732094 361.791091 69.135916 
Q 361.528909 68.302757 361.969675 67.631692 
Q 362.411931 66.960159 363.44481 66.635128 
Q 364.48365 66.308222 365.227788 66.606416 
Q 365.971927 66.904609 366.234108 67.737768 
Q 366.421716 68.333946 366.214242 68.856248 
Q 366.007788 69.37659 365.454041 69.71465 
Q 366.1834 69.658764 366.707369 70.001671 
Q 367.23236 70.342619 367.441543 71.007357 
Q 367.760007 72.019369 367.313217 72.754575 
Q 366.865957 73.48829 365.715334 73.850373 
Q 364.5662 74.211988 363.777881 73.86709 
Q 362.990582 73.520232 362.672118 72.50822 
Q 362.462935 71.843481 362.699562 71.262865 
Q 362.93721 70.680289 363.567137 70.308428 
z
M 362.755232 68.930798 
Q 362.925017 69.470339 363.357069 69.666901 
Q 363.790611 69.862994 364.400203 69.671165 
Q 365.006814 69.480274 365.252915 69.070308 
Q 365.500506 68.659873 365.330721 68.120332 
Q 365.160467 67.579301 364.722454 67.384615 
Q 364.285931 67.18946 363.67932 67.380351 
Q 363.069728 67.57218 362.826608 67.981208 
Q 362.584978 68.389766 362.755232 68.930798 
z
" clip-path="url(#p918af8b1f7)" style="fill: #fdc527; stroke: #ffffff; stroke-width: 5"/>
    <path d="M 351.437638 77.324479 
L 352.974287 76.84092 
L 351.304578 71.534935 
L 349.737828 72.396525 
L 349.468141 71.539519 
L 351.025949 70.680743 
L 351.96642 70.384792 
L 353.905816 76.547782 
L 355.442465 76.064223 
L 355.691514 76.85565 
L 351.686688 78.115905 
L 351.437638 77.324479 
z
M 358.153398 75.211135 
L 361.436849 74.177885 
L 361.685898 74.969312 
L 357.2712 76.358548 
L 357.02215 75.567121 
Q 357.382745 74.844298 358.013215 73.620487 
Q 358.644706 72.394716 358.796325 72.048881 
Q 359.088463 71.400017 359.156628 70.99199 
Q 359.226283 70.583493 359.119347 70.243672 
Q 358.944872 69.689226 358.446115 69.462876 
Q 357.946889 69.235035 357.322392 69.431555 
Q 356.87973 69.570853 356.436192 69.879146 
Q 355.994145 70.186969 355.533722 70.675845 
L 355.234488 69.724941 
Q 355.730587 69.318206 356.187341 69.046706 
Q 356.645585 68.774737 357.055458 68.645756 
Q 358.13603 68.305717 358.948666 68.644601 
Q 359.760833 68.981995 360.045059 69.885205 
Q 360.180137 70.314453 360.140176 70.749642 
Q 360.101236 71.182872 359.840616 71.838198 
Q 359.767042 72.010412 359.345631 72.852294 
Q 358.925711 73.693707 358.153398 75.211135 
z
M 364.633306 70.411916 
Q 363.962605 70.622975 363.691104 71.10318 
Q 363.421093 71.582915 363.618551 72.210392 
Q 363.816477 72.83936 364.312555 73.078019 
Q 364.810124 73.31621 365.480824 73.105151 
Q 366.151524 72.894092 366.424047 72.411928 
Q 366.697591 71.927805 366.501072 71.303308 
Q 366.303614 70.675831 365.806046 70.437641 
Q 365.309968 70.198982 364.633306 70.411916 
z
M 363.567137 70.308428 
Q 362.915115 70.349806 362.446396 70.04193 
Q 361.978699 69.732094 361.791091 69.135916 
Q 361.528909 68.302757 361.969675 67.631692 
Q 362.411931 66.960159 363.44481 66.635128 
Q 364.48365 66.308222 365.227788 66.606416 
Q 365.971927 66.904609 366.234108 67.737768 
Q 366.421716 68.333946 366.214242 68.856248 
Q 366.007788 69.37659 365.454041 69.71465 
Q 366.1834 69.658764 366.707369 70.001671 
Q 367.23236 70.342619 367.441543 71.007357 
Q 367.760007 72.019369 367.313217 72.754575 
Q 366.865957 73.48829 365.715334 73.850373 
Q 364.5662 74.211988 363.777881 73.86709 
Q 362.990582 73.520232 362.672118 72.50822 
Q 362.462935 71.843481 362.699562 71.262865 
Q 362.93721 70.680289 363.567137 70.308428 
z
M 362.755232 68.930798 
Q 362.925017 69.470339 363.357069 69.666901 
Q 363.790611 69.862994 364.400203 69.671165 
Q 365.006814 69.480274 365.252915 69.070308 
Q 365.500506 68.659873 365.330721 68.120332 
Q 365.160467 67.579301 364.722454 67.384615 
Q 364.285931 67.18946 363.67932 67.380351 
Q 363.069728 67.57218 362.826608 67.981208 
Q 362.584978 68.389766 362.755232 68.930798 
z
" clip-path="url(#p918af8b1f7)" style="fill: #fdc527"/>
   </g>
   <g id="patch_3">
    <path d="M 59.690625 301.735725 
L 59.690625 35.623725 
" style="fill: none; stroke: #cccccc; stroke-width: 0.8; stroke-linejoin: miter; stroke-linecap: square"/>
   </g>
   <g id="patch_4">
    <path d="M 416.810625 301.735725 
L 416.810625 35.623725 
" style="fill: none; stroke: #cccccc; stroke-width: 0.8; stroke-linejoin: miter; stroke-linecap: square"/>
   </g>
   <g id="patch_5">
    <path d="M 59.690625 301.735725 
L 416.810625 301.735725 
" style="fill: none; stroke: #cccccc; stroke-width: 0.8; stroke-linejoin: miter; stroke-linecap: square"/>
   </g>
   <g id="patch_6">
    <path d="M 59.690625 35.623725 
L 416.810625 35.623725 
" style="fill: none; stroke: #cccccc; stroke-width: 0.8; stroke-linejoin: miter; stroke-linecap: square"/>
   </g>
   <g id="text_20">
    <!-- Block Size = 1M, Read-Write Type = Random Write-only -->
    <g style="fill: #262626; opacity: 0.75" transform="translate(99.063125 30.882918) scale(0.1 -0.1)">
     <defs>
      <path id="DejaVuSans-42" d="M 1259 2228 
L 1259 519 
L 2272 519 
Q 2781 519 3026 730 
Q 3272 941 3272 1375 
Q 3272 1813 3026 2020 
Q 2781 2228 2272 2228 
L 1259 2228 
z
M 1259 4147 
L 1259 2741 
L 2194 2741 
Q 2656 2741 2882 2914 
Q 3109 3088 3109 3444 
Q 3109 3797 2882 3972 
Q 2656 4147 2194 4147 
L 1259 4147 
z
M 628 4666 
L 2241 4666 
Q 2963 4666 3353 4366 
Q 3744 4066 3744 3513 
Q 3744 3084 3544 2831 
Q 3344 2578 2956 2516 
Q 3422 2416 3680 2098 
Q 3938 1781 3938 1306 
Q 3938 681 3513 340 
Q 3088 0 2303 0 
L 628 0 
L 628 4666 
z
" transform="scale(0.015625)"/>
      <path id="DejaVuSans-6c" d="M 603 4863 
L 1178 4863 
L 1178 0 
L 603 0 
L 603 4863 
z
" transform="scale(0.015625)"/>
      <path id="DejaVuSans-63" d="M 3122 3366 
L 3122 2828 
Q 2878 2963 2633 3030 
Q 2388 3097 2138 3097 
Q 1578 3097 1268 2742 
Q 959 2388 959 1747 
Q 959 1106 1268 751 
Q 1578 397 2138 397 
Q 2388 397 2633 464 
Q 2878 531 3122 666 
L 3122 134 
Q 2881 22 2623 -34 
Q 2366 -91 2075 -91 
Q 1284 -91 818 406 
Q 353 903 353 1747 
Q 353 2603 823 3093 
Q 1294 3584 2113 3584 
Q 2378 3584 2631 3529 
Q 2884 3475 3122 3366 
z
" transform="scale(0.015625)"/>
      <path id="DejaVuSans-6b" d="M 581 4863 
L 1159 4863 
L 1159 1991 
L 2875 3500 
L 3609 3500 
L 1753 1863 
L 3688 0 
L 2938 0 
L 1159 1709 
L 1159 0 
L 581 0 
L 581 4863 
z
" transform="scale(0.015625)"/>
      <path id="DejaVuSans-69" d="M 603 3500 
L 1178 3500 
L 1178 0 
L 603 0 
L 603 3500 
z
M 603 4863 
L 1178 4863 
L 1178 4134 
L 603 4134 
L 603 4863 
z
" transform="scale(0.015625)"/>
      <path id="DejaVuSans-7a" d="M 353 3500 
L 3084 3500 
L 3084 2975 
L 922 459 
L 3084 459 
L 3084 0 
L 275 0 
L 275 525 
L 2438 3041 
L 353 3041 
L 353 3500 
z
" transform="scale(0.015625)"/>
      <path id="DejaVuSans-3d" d="M 678 2906 
L 4684 2906 
L 4684 2381 
L 678 2381 
L 678 2906 
z
M 678 1631 
L 4684 1631 
L 4684 1100 
L 678 1100 
L 678 1631 
z
" transform="scale(0.015625)"/>
      <path id="DejaVuSans-4d" d="M 628 4666 
L 1569 4666 
L 2759 1491 
L 3956 4666 
L 4897 4666 
L 4897 0 
L 4281 0 
L 4281 4097 
L 3078 897 
L 2444 897 
L 1241 4097 
L 1241 0 
L 628 0 
L 628 4666 
z
" transform="scale(0.015625)"/>
      <path id="DejaVuSans-2c" d="M 750 794 
L 1409 794 
L 1409 256 
L 897 -744 
L 494 -744 
L 750 256 
L 750 794 
z
" transform="scale(0.015625)"/>
      <path id="DejaVuSans-52" d="M 2841 2188 
Q 3044 2119 3236 1894 
Q 3428 1669 3622 1275 
L 4263 0 
L 3584 0 
L 2988 1197 
Q 2756 1666 2539 1819 
Q 2322 1972 1947 1972 
L 1259 1972 
L 1259 0 
L 628 0 
L 628 4666 
L 2053 4666 
Q 2853 4666 3247 4331 
Q 3641 3997 3641 3322 
Q 3641 2881 3436 2590 
Q 3231 2300 2841 2188 
z
M 1259 4147 
L 1259 2491 
L 2053 2491 
Q 2509 2491 2742 2702 
Q 2975 2913 2975 3322 
Q 2975 3731 2742 3939 
Q 2509 4147 2053 4147 
L 1259 4147 
z
" transform="scale(0.015625)"/>
      <path id="DejaVuSans-61" d="M 2194 1759 
Q 1497 1759 1228 1600 
Q 959 1441 959 1056 
Q 959 750 1161 570 
Q 1363 391 1709 391 
Q 2188 391 2477 730 
Q 2766 1069 2766 1631 
L 2766 1759 
L 2194 1759 
z
M 3341 1997 
L 3341 0 
L 2766 0 
L 2766 531 
Q 2569 213 2275 61 
Q 1981 -91 1556 -91 
Q 1019 -91 701 211 
Q 384 513 384 1019 
Q 384 1609 779 1909 
Q 1175 2209 1959 2209 
L 2766 2209 
L 2766 2266 
Q 2766 2663 2505 2880 
Q 2244 3097 1772 3097 
Q 1472 3097 1187 3025 
Q 903 2953 641 2809 
L 641 3341 
Q 956 3463 1253 3523 
Q 1550 3584 1831 3584 
Q 2591 3584 2966 3190 
Q 3341 2797 3341 1997 
z
" transform="scale(0.015625)"/>
      <path id="DejaVuSans-64" d="M 2906 2969 
L 2906 4863 
L 3481 4863 
L 3481 0 
L 2906 0 
L 2906 525 
Q 2725 213 2448 61 
Q 2172 -91 1784 -91 
Q 1150 -91 751 415 
Q 353 922 353 1747 
Q 353 2572 751 3078 
Q 1150 3584 1784 3584 
Q 2172 3584 2448 3432 
Q 2725 3281 2906 2969 
z
M 947 1747 
Q 947 1113 1208 752 
Q 1469 391 1925 391 
Q 2381 391 2643 752 
Q 2906 1113 2906 1747 
Q 2906 2381 2643 2742 
Q 2381 3103 1925 3103 
Q 1469 3103 1208 2742 
Q 947 2381 947 1747 
z
" transform="scale(0.015625)"/>
      <path id="DejaVuSans-2d" d="M 313 2009 
L 1997 2009 
L 1997 1497 
L 313 1497 
L 313 2009 
z
" transform="scale(0.015625)"/>
      <path id="DejaVuSans-57" d="M 213 4666 
L 850 4666 
L 1831 722 
L 2809 4666 
L 3519 4666 
L 4500 722 
L 5478 4666 
L 6119 4666 
L 4947 0 
L 4153 0 
L 3169 4050 
L 2175 0 
L 1381 0 
L 213 4666 
z
" transform="scale(0.015625)"/>
      <path id="DejaVuSans-74" d="M 1172 4494 
L 1172 3500 
L 2356 3500 
L 2356 3053 
L 1172 3053 
L 1172 1153 
Q 1172 725 1289 603 
Q 1406 481 1766 481 
L 2356 481 
L 2356 0 
L 1766 0 
Q 1100 0 847 248 
Q 594 497 594 1153 
L 594 3053 
L 172 3053 
L 172 3500 
L 594 3500 
L 594 4494 
L 1172 4494 
z
" transform="scale(0.015625)"/>
      <path id="DejaVuSans-54" d="M -19 4666 
L 3928 4666 
L 3928 4134 
L 2272 4134 
L 2272 0 
L 1638 0 
L 1638 4134 
L -19 4134 
L -19 4666 
z
" transform="scale(0.015625)"/>
      <path id="DejaVuSans-79" d="M 2059 -325 
Q 1816 -950 1584 -1140 
Q 1353 -1331 966 -1331 
L 506 -1331 
L 506 -850 
L 844 -850 
Q 1081 -850 1212 -737 
Q 1344 -625 1503 -206 
L 1606 56 
L 191 3500 
L 800 3500 
L 1894 763 
L 2988 3500 
L 3597 3500 
L 2059 -325 
z
" transform="scale(0.015625)"/>
      <path id="DejaVuSans-70" d="M 1159 525 
L 1159 -1331 
L 581 -1331 
L 581 3500 
L 1159 3500 
L 1159 2969 
Q 1341 3281 1617 3432 
Q 1894 3584 2278 3584 
Q 2916 3584 3314 3078 
Q 3713 2572 3713 1747 
Q 3713 922 3314 415 
Q 2916 -91 2278 -91 
Q 1894 -91 1617 61 
Q 1341 213 1159 525 
z
M 3116 1747 
Q 3116 2381 2855 2742 
Q 2594 3103 2138 3103 
Q 1681 3103 1420 2742 
Q 1159 2381 1159 1747 
Q 1159 1113 1420 752 
Q 1681 391 2138 391 
Q 2594 391 2855 752 
Q 3116 1113 3116 1747 
z
" transform="scale(0.015625)"/>
      <path id="DejaVuSans-6e" d="M 3513 2113 
L 3513 0 
L 2938 0 
L 2938 2094 
Q 2938 2591 2744 2837 
Q 2550 3084 2163 3084 
Q 1697 3084 1428 2787 
Q 1159 2491 1159 1978 
L 1159 0 
L 581 0 
L 581 3500 
L 1159 3500 
L 1159 2956 
Q 1366 3272 1645 3428 
Q 1925 3584 2291 3584 
Q 2894 3584 3203 3211 
Q 3513 2838 3513 2113 
z
" transform="scale(0.015625)"/>
     </defs>
     <use xlink:href="#DejaVuSans-42"/>
     <use xlink:href="#DejaVuSans-6c" transform="translate(68.603516 0)"/>
     <use xlink:href="#DejaVuSans-6f" transform="translate(96.386719 0)"/>
     <use xlink:href="#DejaVuSans-63" transform="translate(157.568359 0)"/>
     <use xlink:href="#DejaVuSans-6b" transform="translate(212.548828 0)"/>
     <use xlink:href="#DejaVuSans-20" transform="translate(270.458984 0)"/>
     <use xlink:href="#DejaVuSans-53" transform="translate(302.246094 0)"/>
     <use xlink:href="#DejaVuSans-69" transform="translate(365.722656 0)"/>
     <use xlink:href="#DejaVuSans-7a" transform="translate(393.505859 0)"/>
     <use xlink:href="#DejaVuSans-65" transform="translate(445.996094 0)"/>
     <use xlink:href="#DejaVuSans-20" transform="translate(507.519531 0)"/>
     <use xlink:href="#DejaVuSans-3d" transform="translate(539.306641 0)"/>
     <use xlink:href="#DejaVuSans-20" transform="translate(623.095703 0)"/>
     <use xlink:href="#DejaVuSans-31" transform="translate(654.882812 0)"/>
     <use xlink:href="#DejaVuSans-4d" transform="translate(718.505859 0)"/>
     <use xlink:href="#DejaVuSans-2c" transform="translate(804.785156 0)"/>
     <use xlink:href="#DejaVuSans-20" transform="translate(836.572266 0)"/>
     <use xlink:href="#DejaVuSans-52" transform="translate(868.359375 0)"/>
     <use xlink:href="#DejaVuSans-65" transform="translate(933.341797 0)"/>
     <use xlink:href="#DejaVuSans-61" transform="translate(994.865234 0)"/>
     <use xlink:href="#DejaVuSans-64" transform="translate(1056.144531 0)"/>
     <use xlink:href="#DejaVuSans-2d" transform="translate(1119.621094 0)"/>
     <use xlink:href="#DejaVuSans-57" transform="translate(1151.705078 0)"/>
     <use xlink:href="#DejaVuSans-72" transform="translate(1246.082031 0)"/>
     <use xlink:href="#DejaVuSans-69" transform="translate(1287.195312 0)"/>
     <use xlink:href="#DejaVuSans-74" transform="translate(1314.978516 0)"/>
     <use xlink:href="#DejaVuSans-65" transform="translate(1354.1875 0)"/>
     <use xlink:href="#DejaVuSans-20" transform="translate(1415.710938 0)"/>
     <use xlink:href="#DejaVuSans-54" transform="translate(1447.498047 0)"/>
     <use xlink:href="#DejaVuSans-79" transform="translate(1492.957031 0)"/>
     <use xlink:href="#DejaVuSans-70" transform="translate(1552.136719 0)"/>
     <use xlink:href="#DejaVuSans-65" transform="translate(1615.613281 0)"/>
     <use xlink:href="#DejaVuSans-20" transform="translate(1677.136719 0)"/>
     <use xlink:href="#DejaVuSans-3d" transform="translate(1708.923828 0)"/>
     <use xlink:href="#DejaVuSans-20" transform="translate(1792.712891 0)"/>
     <use xlink:href="#DejaVuSans-52" transform="translate(1824.5 0)"/>
     <use xlink:href="#DejaVuSans-61" transform="translate(1891.732422 0)"/>
     <use xlink:href="#DejaVuSans-6e" transform="translate(1953.011719 0)"/>
     <use xlink:href="#DejaVuSans-64" transform="translate(2016.390625 0)"/>
     <use xlink:href="#DejaVuSans-6f" transform="translate(2079.867188 0)"/>
     <use xlink:href="#DejaVuSans-6d" transform="translate(2141.048828 0)"/>
     <use xlink:href="#DejaVuSans-20" transform="translate(2238.460938 0)"/>
     <use xlink:href="#DejaVuSans-57" transform="translate(2270.248047 0)"/>
     <use xlink:href="#DejaVuSans-72" transform="translate(2364.625 0)"/>
     <use xlink:href="#DejaVuSans-69" transform="translate(2405.738281 0)"/>
     <use xlink:href="#DejaVuSans-74" transform="translate(2433.521484 0)"/>
     <use xlink:href="#DejaVuSans-65" transform="translate(2472.730469 0)"/>
     <use xlink:href="#DejaVuSans-2d" transform="translate(2534.253906 0)"/>
     <use xlink:href="#DejaVuSans-6f" transform="translate(2572.212891 0)"/>
     <use xlink:href="#DejaVuSans-6e" transform="translate(2633.394531 0)"/>
     <use xlink:href="#DejaVuSans-6c" transform="translate(2696.773438 0)"/>
     <use xlink:href="#DejaVuSans-79" transform="translate(2724.556641 0)"/>
    </g>
   </g>
   <g id="text_21">
    <!-- IOPS vs Number of Jobs -->
    <g style="fill: #262626" transform="translate(158.541562 16.318125) scale(0.12 -0.12)">
     <defs>
      <path id="DejaVuSans-Bold-49" d="M 588 4666 
L 1791 4666 
L 1791 0 
L 588 0 
L 588 4666 
z
" transform="scale(0.015625)"/>
      <path id="DejaVuSans-Bold-4f" d="M 2719 3878 
Q 2169 3878 1866 3472 
Q 1563 3066 1563 2328 
Q 1563 1594 1866 1187 
Q 2169 781 2719 781 
Q 3272 781 3575 1187 
Q 3878 1594 3878 2328 
Q 3878 3066 3575 3472 
Q 3272 3878 2719 3878 
z
M 2719 4750 
Q 3844 4750 4481 4106 
Q 5119 3463 5119 2328 
Q 5119 1197 4481 553 
Q 3844 -91 2719 -91 
Q 1597 -91 958 553 
Q 319 1197 319 2328 
Q 319 3463 958 4106 
Q 1597 4750 2719 4750 
z
" transform="scale(0.015625)"/>
      <path id="DejaVuSans-Bold-50" d="M 588 4666 
L 2584 4666 
Q 3475 4666 3951 4270 
Q 4428 3875 4428 3144 
Q 4428 2409 3951 2014 
Q 3475 1619 2584 1619 
L 1791 1619 
L 1791 0 
L 588 0 
L 588 4666 
z
M 1791 3794 
L 1791 2491 
L 2456 2491 
Q 2806 2491 2997 2661 
Q 3188 2831 3188 3144 
Q 3188 3456 2997 3625 
Q 2806 3794 2456 3794 
L 1791 3794 
z
" transform="scale(0.015625)"/>
      <path id="DejaVuSans-Bold-53" d="M 3834 4519 
L 3834 3531 
Q 3450 3703 3084 3790 
Q 2719 3878 2394 3878 
Q 1963 3878 1756 3759 
Q 1550 3641 1550 3391 
Q 1550 3203 1689 3098 
Q 1828 2994 2194 2919 
L 2706 2816 
Q 3484 2659 3812 2340 
Q 4141 2022 4141 1434 
Q 4141 663 3683 286 
Q 3225 -91 2284 -91 
Q 1841 -91 1394 -6 
Q 947 78 500 244 
L 500 1259 
Q 947 1022 1364 901 
Q 1781 781 2169 781 
Q 2563 781 2772 912 
Q 2981 1044 2981 1288 
Q 2981 1506 2839 1625 
Q 2697 1744 2272 1838 
L 1806 1941 
Q 1106 2091 782 2419 
Q 459 2747 459 3303 
Q 459 4000 909 4375 
Q 1359 4750 2203 4750 
Q 2588 4750 2994 4692 
Q 3400 4634 3834 4519 
z
" transform="scale(0.015625)"/>
      <path id="DejaVuSans-Bold-20" transform="scale(0.015625)"/>
      <path id="DejaVuSans-Bold-76" d="M 97 3500 
L 1216 3500 
L 2088 1081 
L 2956 3500 
L 4078 3500 
L 2700 0 
L 1472 0 
L 97 3500 
z
" transform="scale(0.015625)"/>
      <path id="DejaVuSans-Bold-73" d="M 3272 3391 
L 3272 2541 
Q 2913 2691 2578 2766 
Q 2244 2841 1947 2841 
Q 1628 2841 1473 2761 
Q 1319 2681 1319 2516 
Q 1319 2381 1436 2309 
Q 1553 2238 1856 2203 
L 2053 2175 
Q 2913 2066 3209 1816 
Q 3506 1566 3506 1031 
Q 3506 472 3093 190 
Q 2681 -91 1863 -91 
Q 1516 -91 1145 -36 
Q 775 19 384 128 
L 384 978 
Q 719 816 1070 734 
Q 1422 653 1784 653 
Q 2113 653 2278 743 
Q 2444 834 2444 1013 
Q 2444 1163 2330 1236 
Q 2216 1309 1875 1350 
L 1678 1375 
Q 931 1469 631 1722 
Q 331 1975 331 2491 
Q 331 3047 712 3315 
Q 1094 3584 1881 3584 
Q 2191 3584 2531 3537 
Q 2872 3491 3272 3391 
z
" transform="scale(0.015625)"/>
      <path id="DejaVuSans-Bold-4e" d="M 588 4666 
L 1931 4666 
L 3628 1466 
L 3628 4666 
L 4769 4666 
L 4769 0 
L 3425 0 
L 1728 3200 
L 1728 0 
L 588 0 
L 588 4666 
z
" transform="scale(0.015625)"/>
      <path id="DejaVuSans-Bold-75" d="M 500 1363 
L 500 3500 
L 1625 3500 
L 1625 3150 
Q 1625 2866 1622 2436 
Q 1619 2006 1619 1863 
Q 1619 1441 1641 1255 
Q 1663 1069 1716 984 
Q 1784 875 1895 815 
Q 2006 756 2150 756 
Q 2500 756 2700 1025 
Q 2900 1294 2900 1772 
L 2900 3500 
L 4019 3500 
L 4019 0 
L 2900 0 
L 2900 506 
Q 2647 200 2364 54 
Q 2081 -91 1741 -91 
Q 1134 -91 817 281 
Q 500 653 500 1363 
z
" transform="scale(0.015625)"/>
      <path id="DejaVuSans-Bold-6d" d="M 3781 2919 
Q 3994 3244 4286 3414 
Q 4578 3584 4928 3584 
Q 5531 3584 5847 3212 
Q 6163 2841 6163 2131 
L 6163 0 
L 5038 0 
L 5038 1825 
Q 5041 1866 5042 1909 
Q 5044 1953 5044 2034 
Q 5044 2406 4934 2573 
Q 4825 2741 4581 2741 
Q 4263 2741 4089 2478 
Q 3916 2216 3909 1719 
L 3909 0 
L 2784 0 
L 2784 1825 
Q 2784 2406 2684 2573 
Q 2584 2741 2328 2741 
Q 2006 2741 1831 2477 
Q 1656 2213 1656 1722 
L 1656 0 
L 531 0 
L 531 3500 
L 1656 3500 
L 1656 2988 
Q 1863 3284 2130 3434 
Q 2397 3584 2719 3584 
Q 3081 3584 3359 3409 
Q 3638 3234 3781 2919 
z
" transform="scale(0.015625)"/>
      <path id="DejaVuSans-Bold-62" d="M 2400 722 
Q 2759 722 2948 984 
Q 3138 1247 3138 1747 
Q 3138 2247 2948 2509 
Q 2759 2772 2400 2772 
Q 2041 2772 1848 2508 
Q 1656 2244 1656 1747 
Q 1656 1250 1848 986 
Q 2041 722 2400 722 
z
M 1656 2988 
Q 1888 3294 2169 3439 
Q 2450 3584 2816 3584 
Q 3463 3584 3878 3070 
Q 4294 2556 4294 1747 
Q 4294 938 3878 423 
Q 3463 -91 2816 -91 
Q 2450 -91 2169 54 
Q 1888 200 1656 506 
L 1656 0 
L 538 0 
L 538 4863 
L 1656 4863 
L 1656 2988 
z
" transform="scale(0.015625)"/>
      <path id="DejaVuSans-Bold-65" d="M 4031 1759 
L 4031 1441 
L 1416 1441 
Q 1456 1047 1700 850 
Q 1944 653 2381 653 
Q 2734 653 3104 758 
Q 3475 863 3866 1075 
L 3866 213 
Q 3469 63 3072 -14 
Q 2675 -91 2278 -91 
Q 1328 -91 801 392 
Q 275 875 275 1747 
Q 275 2603 792 3093 
Q 1309 3584 2216 3584 
Q 3041 3584 3536 3087 
Q 4031 2591 4031 1759 
z
M 2881 2131 
Q 2881 2450 2695 2645 
Q 2509 2841 2209 2841 
Q 1884 2841 1681 2658 
Q 1478 2475 1428 2131 
L 2881 2131 
z
" transform="scale(0.015625)"/>
      <path id="DejaVuSans-Bold-72" d="M 3138 2547 
Q 2991 2616 2845 2648 
Q 2700 2681 2553 2681 
Q 2122 2681 1889 2404 
Q 1656 2128 1656 1613 
L 1656 0 
L 538 0 
L 538 3500 
L 1656 3500 
L 1656 2925 
Q 1872 3269 2151 3426 
Q 2431 3584 2822 3584 
Q 2878 3584 2943 3579 
Q 3009 3575 3134 3559 
L 3138 2547 
z
" transform="scale(0.015625)"/>
      <path id="DejaVuSans-Bold-6f" d="M 2203 2784 
Q 1831 2784 1636 2517 
Q 1441 2250 1441 1747 
Q 1441 1244 1636 976 
Q 1831 709 2203 709 
Q 2569 709 2762 976 
Q 2956 1244 2956 1747 
Q 2956 2250 2762 2517 
Q 2569 2784 2203 2784 
z
M 2203 3584 
Q 3106 3584 3614 3096 
Q 4122 2609 4122 1747 
Q 4122 884 3614 396 
Q 3106 -91 2203 -91 
Q 1297 -91 786 396 
Q 275 884 275 1747 
Q 275 2609 786 3096 
Q 1297 3584 2203 3584 
z
" transform="scale(0.015625)"/>
      <path id="DejaVuSans-Bold-66" d="M 2841 4863 
L 2841 4128 
L 2222 4128 
Q 1984 4128 1890 4042 
Q 1797 3956 1797 3744 
L 1797 3500 
L 2753 3500 
L 2753 2700 
L 1797 2700 
L 1797 0 
L 678 0 
L 678 2700 
L 122 2700 
L 122 3500 
L 678 3500 
L 678 3744 
Q 678 4316 997 4589 
Q 1316 4863 1984 4863 
L 2841 4863 
z
" transform="scale(0.015625)"/>
      <path id="DejaVuSans-Bold-4a" d="M 588 4666 
L 1791 4666 
L 1791 453 
Q 1791 -419 1317 -850 
Q 844 -1281 -116 -1281 
L -359 -1281 
L -359 -372 
L -172 -372 
Q 203 -372 395 -162 
Q 588 47 588 453 
L 588 4666 
z
" transform="scale(0.015625)"/>
     </defs>
     <use xlink:href="#DejaVuSans-Bold-49"/>
     <use xlink:href="#DejaVuSans-Bold-4f" transform="translate(37.207031 0)"/>
     <use xlink:href="#DejaVuSans-Bold-50" transform="translate(122.216797 0)"/>
     <use xlink:href="#DejaVuSans-Bold-53" transform="translate(195.507812 0)"/>
     <use xlink:href="#DejaVuSans-Bold-20" transform="translate(267.529297 0)"/>
     <use xlink:href="#DejaVuSans-Bold-76" transform="translate(302.34375 0)"/>
     <use xlink:href="#DejaVuSans-Bold-73" transform="translate(367.529297 0)"/>
     <use xlink:href="#DejaVuSans-Bold-20" transform="translate(427.050781 0)"/>
     <use xlink:href="#DejaVuSans-Bold-4e" transform="translate(461.865234 0)"/>
     <use xlink:href="#DejaVuSans-Bold-75" transform="translate(545.556641 0)"/>
     <use xlink:href="#DejaVuSans-Bold-6d" transform="translate(616.748047 0)"/>
     <use xlink:href="#DejaVuSans-Bold-62" transform="translate(720.947266 0)"/>
     <use xlink:href="#DejaVuSans-Bold-65" transform="translate(792.529297 0)"/>
     <use xlink:href="#DejaVuSans-Bold-72" transform="translate(860.351562 0)"/>
     <use xlink:href="#DejaVuSans-Bold-20" transform="translate(909.667969 0)"/>
     <use xlink:href="#DejaVuSans-Bold-6f" transform="translate(944.482422 0)"/>
     <use xlink:href="#DejaVuSans-Bold-66" transform="translate(1013.183594 0)"/>
     <use xlink:href="#DejaVuSans-Bold-20" transform="translate(1056.689453 0)"/>
     <use xlink:href="#DejaVuSans-Bold-4a" transform="translate(1091.503906 0)"/>
     <use xlink:href="#DejaVuSans-Bold-6f" transform="translate(1128.710938 0)"/>
     <use xlink:href="#DejaVuSans-Bold-62" transform="translate(1197.412109 0)"/>
     <use xlink:href="#DejaVuSans-Bold-73" transform="translate(1268.994141 0)"/>
    </g>
   </g>
   <g id="legend_1">
    <g id="text_22">
     <!-- IO Depth -->
     <g style="fill: #262626" transform="translate(451.317187 120.065663) scale(0.1 -0.1)">
      <defs>
       <path id="DejaVuSans-44" d="M 1259 4147 
L 1259 519 
L 2022 519 
Q 2988 519 3436 956 
Q 3884 1394 3884 2338 
Q 3884 3275 3436 3711 
Q 2988 4147 2022 4147 
L 1259 4147 
z
M 628 4666 
L 1925 4666 
Q 3281 4666 3915 4102 
Q 4550 3538 4550 2338 
Q 4550 1131 3912 565 
Q 3275 0 1925 0 
L 628 0 
L 628 4666 
z
" transform="scale(0.015625)"/>
       <path id="DejaVuSans-68" d="M 3513 2113 
L 3513 0 
L 2938 0 
L 2938 2094 
Q 2938 2591 2744 2837 
Q 2550 3084 2163 3084 
Q 1697 3084 1428 2787 
Q 1159 2491 1159 1978 
L 1159 0 
L 581 0 
L 581 4863 
L 1159 4863 
L 1159 2956 
Q 1366 3272 1645 3428 
Q 1925 3584 2291 3584 
Q 2894 3584 3203 3211 
Q 3513 2838 3513 2113 
z
" transform="scale(0.015625)"/>
      </defs>
      <use xlink:href="#DejaVuSans-49"/>
      <use xlink:href="#DejaVuSans-4f" transform="translate(29.492188 0)"/>
      <use xlink:href="#DejaVuSans-20" transform="translate(108.203125 0)"/>
      <use xlink:href="#DejaVuSans-44" transform="translate(139.990234 0)"/>
      <use xlink:href="#DejaVuSans-65" transform="translate(216.992188 0)"/>
      <use xlink:href="#DejaVuSans-70" transform="translate(278.515625 0)"/>
      <use xlink:href="#DejaVuSans-74" transform="translate(341.992188 0)"/>
      <use xlink:href="#DejaVuSans-68" transform="translate(381.201172 0)"/>
     </g>
    </g>
    <g id="line2d_25">
     <path d="M 450.003125 131.243787 
L 460.003125 131.243787 
L 470.003125 131.243787 
" style="fill: none; stroke: #4c02a1; stroke-width: 1.5; stroke-linecap: round"/>
    </g>
    <g id="text_23">
     <!-- 1 -->
     <g style="fill: #262626" transform="translate(478.003125 134.743787) scale(0.1 -0.1)">
      <use xlink:href="#DejaVuSans-31"/>
     </g>
    </g>
    <g id="line2d_26">
     <path d="M 450.003125 145.921913 
L 460.003125 145.921913 
L 470.003125 145.921913 
" style="fill: none; stroke: #7e03a8; stroke-width: 1.5; stroke-linecap: round"/>
    </g>
    <g id="text_24">
     <!-- 4 -->
     <g style="fill: #262626" transform="translate(478.003125 149.421913) scale(0.1 -0.1)">
      <use xlink:href="#DejaVuSans-34"/>
     </g>
    </g>
    <g id="line2d_27">
     <path d="M 450.003125 160.600037 
L 460.003125 160.600037 
L 470.003125 160.600037 
" style="fill: none; stroke: #aa2395; stroke-width: 1.5; stroke-linecap: round"/>
    </g>
    <g id="text_25">
     <!-- 8 -->
     <g style="fill: #262626" transform="translate(478.003125 164.100037) scale(0.1 -0.1)">
      <use xlink:href="#DejaVuSans-38"/>
     </g>
    </g>
    <g id="line2d_28">
     <path d="M 450.003125 175.278163 
L 460.003125 175.278163 
L 470.003125 175.278163 
" style="fill: none; stroke: #cc4778; stroke-width: 1.5; stroke-linecap: round"/>
    </g>
    <g id="text_26">
     <!-- 16 -->
     <g style="fill: #262626" transform="translate(478.003125 178.778163) scale(0.1 -0.1)">
      <use xlink:href="#DejaVuSans-31"/>
      <use xlink:href="#DejaVuSans-36" transform="translate(63.623047 0)"/>
     </g>
    </g>
    <g id="line2d_29">
     <path d="M 450.003125 189.956288 
L 460.003125 189.956288 
L 470.003125 189.956288 
" style="fill: none; stroke: #e66c5c; stroke-width: 1.5; stroke-linecap: round"/>
    </g>
    <g id="text_27">
     <!-- 32 -->
     <g style="fill: #262626" transform="translate(478.003125 193.456288) scale(0.1 -0.1)">
      <use xlink:href="#DejaVuSans-33"/>
      <use xlink:href="#DejaVuSans-32" transform="translate(63.623047 0)"/>
     </g>
    </g>
    <g id="line2d_30">
     <path d="M 450.003125 204.634412 
L 460.003125 204.634412 
L 470.003125 204.634412 
" style="fill: none; stroke: #f89540; stroke-width: 1.5; stroke-linecap: round"/>
    </g>
    <g id="text_28">
     <!-- 64 -->
     <g style="fill: #262626" transform="translate(478.003125 208.134412) scale(0.1 -0.1)">
      <use xlink:href="#DejaVuSans-36"/>
      <use xlink:href="#DejaVuSans-34" transform="translate(63.623047 0)"/>
     </g>
    </g>
    <g id="line2d_31">
     <path d="M 450.003125 219.312537 
L 460.003125 219.312537 
L 470.003125 219.312537 
" style="fill: none; stroke: #fdc527; stroke-width: 1.5; stroke-linecap: round"/>
    </g>
    <g id="text_29">
     <!-- 128 -->
     <g style="fill: #262626" transform="translate(478.003125 222.812537) scale(0.1 -0.1)">
      <use xlink:href="#DejaVuSans-31"/>
      <use xlink:href="#DejaVuSans-32" transform="translate(63.623047 0)"/>
      <use xlink:href="#DejaVuSans-38" transform="translate(127.246094 0)"/>
     </g>
    </g>
   </g>
  </g>
 </g>
 <defs>
  <clipPath id="p918af8b1f7">
   <rect x="59.690625" y="35.623725" width="357.12" height="266.112"/>
  </clipPath>
 </defs>
</svg>
