<?xml version="1.0" encoding="utf-8" standalone="no"?>
<!DOCTYPE svg PUBLIC "-//W3C//DTD SVG 1.1//EN"
  "http://www.w3.org/Graphics/SVG/1.1/DTD/svg11.dtd">
<svg xmlns:xlink="http://www.w3.org/1999/xlink" width="745.069316pt" height="339.291975pt" viewBox="0 0 745.069316 339.291975" xmlns="http://www.w3.org/2000/svg" version="1.1">
 <metadata>
  <rdf:RDF xmlns:dc="http://purl.org/dc/elements/1.1/" xmlns:cc="http://creativecommons.org/ns#" xmlns:rdf="http://www.w3.org/1999/02/22-rdf-syntax-ns#">
   <cc:Work>
    <dc:type rdf:resource="http://purl.org/dc/dcmitype/StillImage"/>
    <dc:date>2025-09-11T11:44:21.048761</dc:date>
    <dc:format>image/svg+xml</dc:format>
    <dc:creator>
     <cc:Agent>
      <dc:title>Matplotlib v3.10.6, https://matplotlib.org/</dc:title>
     </cc:Agent>
    </dc:creator>
   </cc:Work>
  </rdf:RDF>
 </metadata>
 <defs>
  <style type="text/css">*{stroke-linejoin: round; stroke-linecap: butt}</style>
 </defs>
 <g id="figure_1">
  <g id="patch_1">
   <path d="M 0 339.291975 
L 745.069316 339.291975 
L 745.069316 0 
L 0 0 
z
" style="fill: #ffffff"/>
  </g>
  <g id="axes_1">
   <g id="patch_2">
    <path d="M 53.328125 301.735725 
L 410.448125 301.735725 
L 410.448125 35.623725 
L 53.328125 35.623725 
z
" style="fill: #ffffff"/>
   </g>
   <g id="matplotlib.axis_1">
    <g id="xtick_1">
     <g id="line2d_1">
      <path d="M 87.455197 301.735725 
L 87.455197 35.623725 
" clip-path="url(#pb90ae56261)" style="fill: none; stroke: #cccccc; stroke-width: 0.8; stroke-linecap: round"/>
     </g>
     <g id="text_1">
      <!-- 8 -->
      <g style="fill: #262626" transform="translate(84.273947 316.334162) scale(0.1 -0.1)">
       <defs>
        <path id="DejaVuSans-38" d="M 2034 2216 
Q 1584 2216 1326 1975 
Q 1069 1734 1069 1313 
Q 1069 891 1326 650 
Q 1584 409 2034 409 
Q 2484 409 2743 651 
Q 3003 894 3003 1313 
Q 3003 1734 2745 1975 
Q 2488 2216 2034 2216 
z
M 1403 2484 
Q 997 2584 770 2862 
Q 544 3141 544 3541 
Q 544 4100 942 4425 
Q 1341 4750 2034 4750 
Q 2731 4750 3128 4425 
Q 3525 4100 3525 3541 
Q 3525 3141 3298 2862 
Q 3072 2584 2669 2484 
Q 3125 2378 3379 2068 
Q 3634 1759 3634 1313 
Q 3634 634 3220 271 
Q 2806 -91 2034 -91 
Q 1263 -91 848 271 
Q 434 634 434 1313 
Q 434 1759 690 2068 
Q 947 2378 1403 2484 
z
M 1172 3481 
Q 1172 3119 1398 2916 
Q 1625 2713 2034 2713 
Q 2441 2713 2670 2916 
Q 2900 3119 2900 3481 
Q 2900 3844 2670 4047 
Q 2441 4250 2034 4250 
Q 1625 4250 1398 4047 
Q 1172 3844 1172 3481 
z
" transform="scale(0.015625)"/>
       </defs>
       <use xlink:href="#DejaVuSans-38"/>
      </g>
     </g>
    </g>
    <g id="xtick_2">
     <g id="line2d_2">
      <path d="M 394.215398 301.735725 
L 394.215398 35.623725 
" clip-path="url(#pb90ae56261)" style="fill: none; stroke: #cccccc; stroke-width: 0.8; stroke-linecap: round"/>
     </g>
     <g id="text_2">
      <!-- 128 -->
      <g style="fill: #262626" transform="translate(384.671648 316.334162) scale(0.1 -0.1)">
       <defs>
        <path id="DejaVuSans-31" d="M 794 531 
L 1825 531 
L 1825 4091 
L 703 3866 
L 703 4441 
L 1819 4666 
L 2450 4666 
L 2450 531 
L 3481 531 
L 3481 0 
L 794 0 
L 794 531 
z
" transform="scale(0.015625)"/>
        <path id="DejaVuSans-32" d="M 1228 531 
L 3431 531 
L 3431 0 
L 469 0 
L 469 531 
Q 828 903 1448 1529 
Q 2069 2156 2228 2338 
Q 2531 2678 2651 2914 
Q 2772 3150 2772 3378 
Q 2772 3750 2511 3984 
Q 2250 4219 1831 4219 
Q 1534 4219 1204 4116 
Q 875 4013 500 3803 
L 500 4441 
Q 881 4594 1212 4672 
Q 1544 4750 1819 4750 
Q 2544 4750 2975 4387 
Q 3406 4025 3406 3419 
Q 3406 3131 3298 2873 
Q 3191 2616 2906 2266 
Q 2828 2175 2409 1742 
Q 1991 1309 1228 531 
z
" transform="scale(0.015625)"/>
       </defs>
       <use xlink:href="#DejaVuSans-31"/>
       <use xlink:href="#DejaVuSans-32" transform="translate(63.623047 0)"/>
       <use xlink:href="#DejaVuSans-38" transform="translate(127.246094 0)"/>
      </g>
     </g>
    </g>
    <g id="xtick_3">
     <g id="line2d_3">
      <path d="M 77.229857 301.735725 
L 77.229857 35.623725 
" clip-path="url(#pb90ae56261)" style="fill: none; stroke: #cccccc; stroke-width: 0.8; stroke-linecap: round"/>
     </g>
     <g id="text_3">
      <!-- 4 -->
      <g style="fill: #262626" transform="translate(74.048607 316.334162) scale(0.1 -0.1)">
       <defs>
        <path id="DejaVuSans-34" d="M 2419 4116 
L 825 1625 
L 2419 1625 
L 2419 4116 
z
M 2253 4666 
L 3047 4666 
L 3047 1625 
L 3713 1625 
L 3713 1100 
L 3047 1100 
L 3047 0 
L 2419 0 
L 2419 1100 
L 313 1100 
L 313 1709 
L 2253 4666 
z
" transform="scale(0.015625)"/>
       </defs>
       <use xlink:href="#DejaVuSans-34"/>
      </g>
     </g>
    </g>
    <g id="xtick_4">
     <g id="line2d_4">
      <path d="M 230.609957 301.735725 
L 230.609957 35.623725 
" clip-path="url(#pb90ae56261)" style="fill: none; stroke: #cccccc; stroke-width: 0.8; stroke-linecap: round"/>
     </g>
     <g id="text_4">
      <!-- 64 -->
      <g style="fill: #262626" transform="translate(224.247457 316.334162) scale(0.1 -0.1)">
       <defs>
        <path id="DejaVuSans-36" d="M 2113 2584 
Q 1688 2584 1439 2293 
Q 1191 2003 1191 1497 
Q 1191 994 1439 701 
Q 1688 409 2113 409 
Q 2538 409 2786 701 
Q 3034 994 3034 1497 
Q 3034 2003 2786 2293 
Q 2538 2584 2113 2584 
z
M 3366 4563 
L 3366 3988 
Q 3128 4100 2886 4159 
Q 2644 4219 2406 4219 
Q 1781 4219 1451 3797 
Q 1122 3375 1075 2522 
Q 1259 2794 1537 2939 
Q 1816 3084 2150 3084 
Q 2853 3084 3261 2657 
Q 3669 2231 3669 1497 
Q 3669 778 3244 343 
Q 2819 -91 2113 -91 
Q 1303 -91 875 529 
Q 447 1150 447 2328 
Q 447 3434 972 4092 
Q 1497 4750 2381 4750 
Q 2619 4750 2861 4703 
Q 3103 4656 3366 4563 
z
" transform="scale(0.015625)"/>
       </defs>
       <use xlink:href="#DejaVuSans-36"/>
       <use xlink:href="#DejaVuSans-34" transform="translate(63.623047 0)"/>
      </g>
     </g>
    </g>
    <g id="xtick_5">
     <g id="line2d_5">
      <path d="M 107.905877 301.735725 
L 107.905877 35.623725 
" clip-path="url(#pb90ae56261)" style="fill: none; stroke: #cccccc; stroke-width: 0.8; stroke-linecap: round"/>
     </g>
     <g id="text_5">
      <!-- 16 -->
      <g style="fill: #262626" transform="translate(101.543377 316.334162) scale(0.1 -0.1)">
       <use xlink:href="#DejaVuSans-31"/>
       <use xlink:href="#DejaVuSans-36" transform="translate(63.623047 0)"/>
      </g>
     </g>
    </g>
    <g id="xtick_6">
     <g id="line2d_6">
      <path d="M 69.560852 301.735725 
L 69.560852 35.623725 
" clip-path="url(#pb90ae56261)" style="fill: none; stroke: #cccccc; stroke-width: 0.8; stroke-linecap: round"/>
     </g>
     <g id="text_6">
      <!-- 1 -->
      <g style="fill: #262626" transform="translate(66.379602 316.334162) scale(0.1 -0.1)">
       <use xlink:href="#DejaVuSans-31"/>
      </g>
     </g>
    </g>
    <g id="xtick_7">
     <g id="line2d_7">
      <path d="M 148.807237 301.735725 
L 148.807237 35.623725 
" clip-path="url(#pb90ae56261)" style="fill: none; stroke: #cccccc; stroke-width: 0.8; stroke-linecap: round"/>
     </g>
     <g id="text_7">
      <!-- 32 -->
      <g style="fill: #262626" transform="translate(142.444737 316.334162) scale(0.1 -0.1)">
       <defs>
        <path id="DejaVuSans-33" d="M 2597 2516 
Q 3050 2419 3304 2112 
Q 3559 1806 3559 1356 
Q 3559 666 3084 287 
Q 2609 -91 1734 -91 
Q 1441 -91 1130 -33 
Q 819 25 488 141 
L 488 750 
Q 750 597 1062 519 
Q 1375 441 1716 441 
Q 2309 441 2620 675 
Q 2931 909 2931 1356 
Q 2931 1769 2642 2001 
Q 2353 2234 1838 2234 
L 1294 2234 
L 1294 2753 
L 1863 2753 
Q 2328 2753 2575 2939 
Q 2822 3125 2822 3475 
Q 2822 3834 2567 4026 
Q 2313 4219 1838 4219 
Q 1578 4219 1281 4162 
Q 984 4106 628 3988 
L 628 4550 
Q 988 4650 1302 4700 
Q 1616 4750 1894 4750 
Q 2613 4750 3031 4423 
Q 3450 4097 3450 3541 
Q 3450 3153 3228 2886 
Q 3006 2619 2597 2516 
z
" transform="scale(0.015625)"/>
       </defs>
       <use xlink:href="#DejaVuSans-33"/>
       <use xlink:href="#DejaVuSans-32" transform="translate(63.623047 0)"/>
      </g>
     </g>
    </g>
    <g id="text_8">
     <!-- IO Depth -->
     <g style="fill: #262626" transform="translate(209.658437 330.012287) scale(0.1 -0.1)">
      <defs>
       <path id="DejaVuSans-49" d="M 628 4666 
L 1259 4666 
L 1259 0 
L 628 0 
L 628 4666 
z
" transform="scale(0.015625)"/>
       <path id="DejaVuSans-4f" d="M 2522 4238 
Q 1834 4238 1429 3725 
Q 1025 3213 1025 2328 
Q 1025 1447 1429 934 
Q 1834 422 2522 422 
Q 3209 422 3611 934 
Q 4013 1447 4013 2328 
Q 4013 3213 3611 3725 
Q 3209 4238 2522 4238 
z
M 2522 4750 
Q 3503 4750 4090 4092 
Q 4678 3434 4678 2328 
Q 4678 1225 4090 567 
Q 3503 -91 2522 -91 
Q 1538 -91 948 565 
Q 359 1222 359 2328 
Q 359 3434 948 4092 
Q 1538 4750 2522 4750 
z
" transform="scale(0.015625)"/>
       <path id="DejaVuSans-20" transform="scale(0.015625)"/>
       <path id="DejaVuSans-44" d="M 1259 4147 
L 1259 519 
L 2022 519 
Q 2988 519 3436 956 
Q 3884 1394 3884 2338 
Q 3884 3275 3436 3711 
Q 2988 4147 2022 4147 
L 1259 4147 
z
M 628 4666 
L 1925 4666 
Q 3281 4666 3915 4102 
Q 4550 3538 4550 2338 
Q 4550 1131 3912 565 
Q 3275 0 1925 0 
L 628 0 
L 628 4666 
z
" transform="scale(0.015625)"/>
       <path id="DejaVuSans-65" d="M 3597 1894 
L 3597 1613 
L 953 1613 
Q 991 1019 1311 708 
Q 1631 397 2203 397 
Q 2534 397 2845 478 
Q 3156 559 3463 722 
L 3463 178 
Q 3153 47 2828 -22 
Q 2503 -91 2169 -91 
Q 1331 -91 842 396 
Q 353 884 353 1716 
Q 353 2575 817 3079 
Q 1281 3584 2069 3584 
Q 2775 3584 3186 3129 
Q 3597 2675 3597 1894 
z
M 3022 2063 
Q 3016 2534 2758 2815 
Q 2500 3097 2075 3097 
Q 1594 3097 1305 2825 
Q 1016 2553 972 2059 
L 3022 2063 
z
" transform="scale(0.015625)"/>
       <path id="DejaVuSans-70" d="M 1159 525 
L 1159 -1331 
L 581 -1331 
L 581 3500 
L 1159 3500 
L 1159 2969 
Q 1341 3281 1617 3432 
Q 1894 3584 2278 3584 
Q 2916 3584 3314 3078 
Q 3713 2572 3713 1747 
Q 3713 922 3314 415 
Q 2916 -91 2278 -91 
Q 1894 -91 1617 61 
Q 1341 213 1159 525 
z
M 3116 1747 
Q 3116 2381 2855 2742 
Q 2594 3103 2138 3103 
Q 1681 3103 1420 2742 
Q 1159 2381 1159 1747 
Q 1159 1113 1420 752 
Q 1681 391 2138 391 
Q 2594 391 2855 752 
Q 3116 1113 3116 1747 
z
" transform="scale(0.015625)"/>
       <path id="DejaVuSans-74" d="M 1172 4494 
L 1172 3500 
L 2356 3500 
L 2356 3053 
L 1172 3053 
L 1172 1153 
Q 1172 725 1289 603 
Q 1406 481 1766 481 
L 2356 481 
L 2356 0 
L 1766 0 
Q 1100 0 847 248 
Q 594 497 594 1153 
L 594 3053 
L 172 3053 
L 172 3500 
L 594 3500 
L 594 4494 
L 1172 4494 
z
" transform="scale(0.015625)"/>
       <path id="DejaVuSans-68" d="M 3513 2113 
L 3513 0 
L 2938 0 
L 2938 2094 
Q 2938 2591 2744 2837 
Q 2550 3084 2163 3084 
Q 1697 3084 1428 2787 
Q 1159 2491 1159 1978 
L 1159 0 
L 581 0 
L 581 4863 
L 1159 4863 
L 1159 2956 
Q 1366 3272 1645 3428 
Q 1925 3584 2291 3584 
Q 2894 3584 3203 3211 
Q 3513 2838 3513 2113 
z
" transform="scale(0.015625)"/>
      </defs>
      <use xlink:href="#DejaVuSans-49"/>
      <use xlink:href="#DejaVuSans-4f" transform="translate(29.492188 0)"/>
      <use xlink:href="#DejaVuSans-20" transform="translate(108.203125 0)"/>
      <use xlink:href="#DejaVuSans-44" transform="translate(139.990234 0)"/>
      <use xlink:href="#DejaVuSans-65" transform="translate(216.992188 0)"/>
      <use xlink:href="#DejaVuSans-70" transform="translate(278.515625 0)"/>
      <use xlink:href="#DejaVuSans-74" transform="translate(341.992188 0)"/>
      <use xlink:href="#DejaVuSans-68" transform="translate(381.201172 0)"/>
     </g>
    </g>
   </g>
   <g id="matplotlib.axis_2">
    <g id="ytick_1">
     <g id="line2d_8">
      <path d="M 53.328125 263.932082 
L 410.448125 263.932082 
" clip-path="url(#pb90ae56261)" style="fill: none; stroke: #cccccc; stroke-width: 0.8; stroke-linecap: round"/>
     </g>
     <g id="text_9">
      <!-- 2000 -->
      <g style="fill: #262626" transform="translate(20.878125 267.7313) scale(0.1 -0.1)">
       <defs>
        <path id="DejaVuSans-30" d="M 2034 4250 
Q 1547 4250 1301 3770 
Q 1056 3291 1056 2328 
Q 1056 1369 1301 889 
Q 1547 409 2034 409 
Q 2525 409 2770 889 
Q 3016 1369 3016 2328 
Q 3016 3291 2770 3770 
Q 2525 4250 2034 4250 
z
M 2034 4750 
Q 2819 4750 3233 4129 
Q 3647 3509 3647 2328 
Q 3647 1150 3233 529 
Q 2819 -91 2034 -91 
Q 1250 -91 836 529 
Q 422 1150 422 2328 
Q 422 3509 836 4129 
Q 1250 4750 2034 4750 
z
" transform="scale(0.015625)"/>
       </defs>
       <use xlink:href="#DejaVuSans-32"/>
       <use xlink:href="#DejaVuSans-30" transform="translate(63.623047 0)"/>
       <use xlink:href="#DejaVuSans-30" transform="translate(127.246094 0)"/>
       <use xlink:href="#DejaVuSans-30" transform="translate(190.869141 0)"/>
      </g>
     </g>
    </g>
    <g id="ytick_2">
     <g id="line2d_9">
      <path d="M 53.328125 205.638106 
L 410.448125 205.638106 
" clip-path="url(#pb90ae56261)" style="fill: none; stroke: #cccccc; stroke-width: 0.8; stroke-linecap: round"/>
     </g>
     <g id="text_10">
      <!-- 3000 -->
      <g style="fill: #262626" transform="translate(20.878125 209.437324) scale(0.1 -0.1)">
       <use xlink:href="#DejaVuSans-33"/>
       <use xlink:href="#DejaVuSans-30" transform="translate(63.623047 0)"/>
       <use xlink:href="#DejaVuSans-30" transform="translate(127.246094 0)"/>
       <use xlink:href="#DejaVuSans-30" transform="translate(190.869141 0)"/>
      </g>
     </g>
    </g>
    <g id="ytick_3">
     <g id="line2d_10">
      <path d="M 53.328125 147.34413 
L 410.448125 147.34413 
" clip-path="url(#pb90ae56261)" style="fill: none; stroke: #cccccc; stroke-width: 0.8; stroke-linecap: round"/>
     </g>
     <g id="text_11">
      <!-- 4000 -->
      <g style="fill: #262626" transform="translate(20.878125 151.143349) scale(0.1 -0.1)">
       <use xlink:href="#DejaVuSans-34"/>
       <use xlink:href="#DejaVuSans-30" transform="translate(63.623047 0)"/>
       <use xlink:href="#DejaVuSans-30" transform="translate(127.246094 0)"/>
       <use xlink:href="#DejaVuSans-30" transform="translate(190.869141 0)"/>
      </g>
     </g>
    </g>
    <g id="ytick_4">
     <g id="line2d_11">
      <path d="M 53.328125 89.050154 
L 410.448125 89.050154 
" clip-path="url(#pb90ae56261)" style="fill: none; stroke: #cccccc; stroke-width: 0.8; stroke-linecap: round"/>
     </g>
     <g id="text_12">
      <!-- 5000 -->
      <g style="fill: #262626" transform="translate(20.878125 92.849373) scale(0.1 -0.1)">
       <defs>
        <path id="DejaVuSans-35" d="M 691 4666 
L 3169 4666 
L 3169 4134 
L 1269 4134 
L 1269 2991 
Q 1406 3038 1543 3061 
Q 1681 3084 1819 3084 
Q 2600 3084 3056 2656 
Q 3513 2228 3513 1497 
Q 3513 744 3044 326 
Q 2575 -91 1722 -91 
Q 1428 -91 1123 -41 
Q 819 9 494 109 
L 494 744 
Q 775 591 1075 516 
Q 1375 441 1709 441 
Q 2250 441 2565 725 
Q 2881 1009 2881 1497 
Q 2881 1984 2565 2268 
Q 2250 2553 1709 2553 
Q 1456 2553 1204 2497 
Q 953 2441 691 2322 
L 691 4666 
z
" transform="scale(0.015625)"/>
       </defs>
       <use xlink:href="#DejaVuSans-35"/>
       <use xlink:href="#DejaVuSans-30" transform="translate(63.623047 0)"/>
       <use xlink:href="#DejaVuSans-30" transform="translate(127.246094 0)"/>
       <use xlink:href="#DejaVuSans-30" transform="translate(190.869141 0)"/>
      </g>
     </g>
    </g>
    <g id="text_13">
     <!-- IOPS -->
     <g style="fill: #262626" transform="translate(14.798438 180.279725) rotate(-90) scale(0.1 -0.1)">
      <defs>
       <path id="DejaVuSans-50" d="M 1259 4147 
L 1259 2394 
L 2053 2394 
Q 2494 2394 2734 2622 
Q 2975 2850 2975 3272 
Q 2975 3691 2734 3919 
Q 2494 4147 2053 4147 
L 1259 4147 
z
M 628 4666 
L 2053 4666 
Q 2838 4666 3239 4311 
Q 3641 3956 3641 3272 
Q 3641 2581 3239 2228 
Q 2838 1875 2053 1875 
L 1259 1875 
L 1259 0 
L 628 0 
L 628 4666 
z
" transform="scale(0.015625)"/>
       <path id="DejaVuSans-53" d="M 3425 4513 
L 3425 3897 
Q 3066 4069 2747 4153 
Q 2428 4238 2131 4238 
Q 1616 4238 1336 4038 
Q 1056 3838 1056 3469 
Q 1056 3159 1242 3001 
Q 1428 2844 1947 2747 
L 2328 2669 
Q 3034 2534 3370 2195 
Q 3706 1856 3706 1288 
Q 3706 609 3251 259 
Q 2797 -91 1919 -91 
Q 1588 -91 1214 -16 
Q 841 59 441 206 
L 441 856 
Q 825 641 1194 531 
Q 1563 422 1919 422 
Q 2459 422 2753 634 
Q 3047 847 3047 1241 
Q 3047 1584 2836 1778 
Q 2625 1972 2144 2069 
L 1759 2144 
Q 1053 2284 737 2584 
Q 422 2884 422 3419 
Q 422 4038 858 4394 
Q 1294 4750 2059 4750 
Q 2388 4750 2728 4690 
Q 3069 4631 3425 4513 
z
" transform="scale(0.015625)"/>
      </defs>
      <use xlink:href="#DejaVuSans-49"/>
      <use xlink:href="#DejaVuSans-4f" transform="translate(29.492188 0)"/>
      <use xlink:href="#DejaVuSans-50" transform="translate(108.203125 0)"/>
      <use xlink:href="#DejaVuSans-53" transform="translate(168.505859 0)"/>
     </g>
    </g>
   </g>
   <g id="FillBetweenPolyCollection_1"/>
   <g id="FillBetweenPolyCollection_2"/>
   <g id="FillBetweenPolyCollection_3"/>
   <g id="FillBetweenPolyCollection_4"/>
   <g id="FillBetweenPolyCollection_5"/>
   <g id="FillBetweenPolyCollection_6"/>
   <g id="FillBetweenPolyCollection_7"/>
   <g id="FillBetweenPolyCollection_8"/>
   <g id="FillBetweenPolyCollection_9"/>
   <g id="FillBetweenPolyCollection_10"/>
   <g id="line2d_12">
    <path d="M 69.560852 276.173817 
L 77.229857 236.825383 
L 87.455197 265.914077 
L 107.905877 255.246279 
L 148.807237 251.282289 
L 230.609957 246.910241 
L 394.215398 259.093682 
" clip-path="url(#pb90ae56261)" style="fill: none; stroke: #2c115f; stroke-width: 1.5; stroke-linecap: round"/>
   </g>
   <g id="line2d_13">
    <path d="M 69.560852 289.639725 
L 77.229857 243.52919 
L 87.455197 279.146809 
L 107.905877 279.846337 
L 148.807237 282.994212 
L 230.609957 269.819773 
L 394.215398 279.379985 
" clip-path="url(#pb90ae56261)" style="fill: none; stroke: #721f81; stroke-width: 1.5; stroke-linecap: round"/>
   </g>
   <g id="line2d_14">
    <path d="M 69.560852 262.358144 
L 77.229857 248.07612 
L 87.455197 232.744805 
L 107.905877 237.932968 
L 148.807237 231.462337 
L 230.609957 250.232997 
L 394.215398 242.305017 
" clip-path="url(#pb90ae56261)" style="fill: none; stroke: #b73779; stroke-width: 1.5; stroke-linecap: round"/>
   </g>
   <g id="line2d_15">
    <path d="M 69.560852 216.364197 
L 77.229857 189.315792 
L 87.455197 185.876448 
L 107.905877 184.419098 
L 148.807237 188.324795 
L 230.609957 191.997315 
L 394.215398 203.422935 
" clip-path="url(#pb90ae56261)" style="fill: none; stroke: #f1605d; stroke-width: 1.5; stroke-linecap: round"/>
   </g>
   <g id="line2d_16">
    <path d="M 69.560852 89.691388 
L 77.229857 50.168072 
L 87.455197 78.73212 
L 107.905877 76.691831 
L 148.807237 83.803696 
L 230.609957 90.157739 
L 394.215398 88.99186 
" clip-path="url(#pb90ae56261)" style="fill: none; stroke: #feb078; stroke-width: 1.5; stroke-linecap: round"/>
   </g>
   <g id="line2d_17">
    <path d="M 69.560852 274.541585 
L 77.229857 271.918356 
L 87.455197 237.991262 
L 107.905877 242.130135 
L 148.807237 285.034501 
L 230.609957 257.694626 
L 394.215398 278.680458 
" clip-path="url(#pb90ae56261)" style="fill: none; stroke-dasharray: 7.5,7.5; stroke-dashoffset: 0; stroke: #2c115f; stroke-width: 1.5"/>
   </g>
   <g id="line2d_18">
    <path d="M 69.560852 261.542029 
L 77.229857 257.519744 
L 87.455197 230.704515 
L 107.905877 255.537749 
L 148.807237 282.469566 
L 230.609957 254.605045 
L 394.215398 286.78332 
" clip-path="url(#pb90ae56261)" style="fill: none; stroke-dasharray: 7.5,7.5; stroke-dashoffset: 0; stroke: #721f81; stroke-width: 1.5"/>
   </g>
   <g id="line2d_19">
    <path d="M 69.560852 260.842501 
L 77.229857 228.197874 
L 87.455197 244.520188 
L 107.905877 245.569479 
L 148.807237 270.577595 
L 230.609957 258.9188 
L 394.215398 262.29985 
" clip-path="url(#pb90ae56261)" style="fill: none; stroke-dasharray: 7.5,7.5; stroke-dashoffset: 0; stroke: #b73779; stroke-width: 1.5"/>
   </g>
   <g id="line2d_20">
    <path d="M 69.560852 207.328631 
L 77.229857 193.629547 
L 87.455197 172.410539 
L 107.905877 206.687397 
L 148.807237 210.126742 
L 230.609957 211.234327 
L 394.215398 209.718684 
" clip-path="url(#pb90ae56261)" style="fill: none; stroke-dasharray: 7.5,7.5; stroke-dashoffset: 0; stroke: #f1605d; stroke-width: 1.5"/>
   </g>
   <g id="line2d_21">
    <path d="M 69.560852 53.549123 
L 77.229857 58.620698 
L 87.455197 47.719725 
L 107.905877 51.683715 
L 148.807237 92.198029 
L 230.609957 100.126009 
L 394.215398 89.458212 
" clip-path="url(#pb90ae56261)" style="fill: none; stroke-dasharray: 7.5,7.5; stroke-dashoffset: 0; stroke: #feb078; stroke-width: 1.5"/>
   </g>
   <g id="line2d_22"/>
   <g id="line2d_23"/>
   <g id="line2d_24"/>
   <g id="line2d_25"/>
   <g id="line2d_26"/>
   <g id="line2d_27"/>
   <g id="line2d_28"/>
   <g id="line2d_29"/>
   <g id="line2d_30"/>
   <g id="line2d_31"/>
   <g id="line2d_32"/>
   <g id="line2d_33"/>
   <g id="line2d_34"/>
   <g id="line2d_35"/>
   <g id="patch_3">
    <path d="M 53.328125 301.735725 
L 53.328125 35.623725 
" style="fill: none; stroke: #cccccc; stroke-width: 0.8; stroke-linejoin: miter; stroke-linecap: square"/>
   </g>
   <g id="patch_4">
    <path d="M 410.448125 301.735725 
L 410.448125 35.623725 
" style="fill: none; stroke: #cccccc; stroke-width: 0.8; stroke-linejoin: miter; stroke-linecap: square"/>
   </g>
   <g id="patch_5">
    <path d="M 53.328125 301.735725 
L 410.448125 301.735725 
" style="fill: none; stroke: #cccccc; stroke-width: 0.8; stroke-linejoin: miter; stroke-linecap: square"/>
   </g>
   <g id="patch_6">
    <path d="M 53.328125 35.623725 
L 410.448125 35.623725 
" style="fill: none; stroke: #cccccc; stroke-width: 0.8; stroke-linejoin: miter; stroke-linecap: square"/>
   </g>
   <g id="text_14">
    <!-- Block Size = 2M, Number of Jobs = 16 -->
    <g style="fill: #262626; opacity: 0.75" transform="translate(136.342812 30.882918) scale(0.1 -0.1)">
     <defs>
      <path id="DejaVuSans-42" d="M 1259 2228 
L 1259 519 
L 2272 519 
Q 2781 519 3026 730 
Q 3272 941 3272 1375 
Q 3272 1813 3026 2020 
Q 2781 2228 2272 2228 
L 1259 2228 
z
M 1259 4147 
L 1259 2741 
L 2194 2741 
Q 2656 2741 2882 2914 
Q 3109 3088 3109 3444 
Q 3109 3797 2882 3972 
Q 2656 4147 2194 4147 
L 1259 4147 
z
M 628 4666 
L 2241 4666 
Q 2963 4666 3353 4366 
Q 3744 4066 3744 3513 
Q 3744 3084 3544 2831 
Q 3344 2578 2956 2516 
Q 3422 2416 3680 2098 
Q 3938 1781 3938 1306 
Q 3938 681 3513 340 
Q 3088 0 2303 0 
L 628 0 
L 628 4666 
z
" transform="scale(0.015625)"/>
      <path id="DejaVuSans-6c" d="M 603 4863 
L 1178 4863 
L 1178 0 
L 603 0 
L 603 4863 
z
" transform="scale(0.015625)"/>
      <path id="DejaVuSans-6f" d="M 1959 3097 
Q 1497 3097 1228 2736 
Q 959 2375 959 1747 
Q 959 1119 1226 758 
Q 1494 397 1959 397 
Q 2419 397 2687 759 
Q 2956 1122 2956 1747 
Q 2956 2369 2687 2733 
Q 2419 3097 1959 3097 
z
M 1959 3584 
Q 2709 3584 3137 3096 
Q 3566 2609 3566 1747 
Q 3566 888 3137 398 
Q 2709 -91 1959 -91 
Q 1206 -91 779 398 
Q 353 888 353 1747 
Q 353 2609 779 3096 
Q 1206 3584 1959 3584 
z
" transform="scale(0.015625)"/>
      <path id="DejaVuSans-63" d="M 3122 3366 
L 3122 2828 
Q 2878 2963 2633 3030 
Q 2388 3097 2138 3097 
Q 1578 3097 1268 2742 
Q 959 2388 959 1747 
Q 959 1106 1268 751 
Q 1578 397 2138 397 
Q 2388 397 2633 464 
Q 2878 531 3122 666 
L 3122 134 
Q 2881 22 2623 -34 
Q 2366 -91 2075 -91 
Q 1284 -91 818 406 
Q 353 903 353 1747 
Q 353 2603 823 3093 
Q 1294 3584 2113 3584 
Q 2378 3584 2631 3529 
Q 2884 3475 3122 3366 
z
" transform="scale(0.015625)"/>
      <path id="DejaVuSans-6b" d="M 581 4863 
L 1159 4863 
L 1159 1991 
L 2875 3500 
L 3609 3500 
L 1753 1863 
L 3688 0 
L 2938 0 
L 1159 1709 
L 1159 0 
L 581 0 
L 581 4863 
z
" transform="scale(0.015625)"/>
      <path id="DejaVuSans-69" d="M 603 3500 
L 1178 3500 
L 1178 0 
L 603 0 
L 603 3500 
z
M 603 4863 
L 1178 4863 
L 1178 4134 
L 603 4134 
L 603 4863 
z
" transform="scale(0.015625)"/>
      <path id="DejaVuSans-7a" d="M 353 3500 
L 3084 3500 
L 3084 2975 
L 922 459 
L 3084 459 
L 3084 0 
L 275 0 
L 275 525 
L 2438 3041 
L 353 3041 
L 353 3500 
z
" transform="scale(0.015625)"/>
      <path id="DejaVuSans-3d" d="M 678 2906 
L 4684 2906 
L 4684 2381 
L 678 2381 
L 678 2906 
z
M 678 1631 
L 4684 1631 
L 4684 1100 
L 678 1100 
L 678 1631 
z
" transform="scale(0.015625)"/>
      <path id="DejaVuSans-4d" d="M 628 4666 
L 1569 4666 
L 2759 1491 
L 3956 4666 
L 4897 4666 
L 4897 0 
L 4281 0 
L 4281 4097 
L 3078 897 
L 2444 897 
L 1241 4097 
L 1241 0 
L 628 0 
L 628 4666 
z
" transform="scale(0.015625)"/>
      <path id="DejaVuSans-2c" d="M 750 794 
L 1409 794 
L 1409 256 
L 897 -744 
L 494 -744 
L 750 256 
L 750 794 
z
" transform="scale(0.015625)"/>
      <path id="DejaVuSans-4e" d="M 628 4666 
L 1478 4666 
L 3547 763 
L 3547 4666 
L 4159 4666 
L 4159 0 
L 3309 0 
L 1241 3903 
L 1241 0 
L 628 0 
L 628 4666 
z
" transform="scale(0.015625)"/>
      <path id="DejaVuSans-75" d="M 544 1381 
L 544 3500 
L 1119 3500 
L 1119 1403 
Q 1119 906 1312 657 
Q 1506 409 1894 409 
Q 2359 409 2629 706 
Q 2900 1003 2900 1516 
L 2900 3500 
L 3475 3500 
L 3475 0 
L 2900 0 
L 2900 538 
Q 2691 219 2414 64 
Q 2138 -91 1772 -91 
Q 1169 -91 856 284 
Q 544 659 544 1381 
z
M 1991 3584 
L 1991 3584 
z
" transform="scale(0.015625)"/>
      <path id="DejaVuSans-6d" d="M 3328 2828 
Q 3544 3216 3844 3400 
Q 4144 3584 4550 3584 
Q 5097 3584 5394 3201 
Q 5691 2819 5691 2113 
L 5691 0 
L 5113 0 
L 5113 2094 
Q 5113 2597 4934 2840 
Q 4756 3084 4391 3084 
Q 3944 3084 3684 2787 
Q 3425 2491 3425 1978 
L 3425 0 
L 2847 0 
L 2847 2094 
Q 2847 2600 2669 2842 
Q 2491 3084 2119 3084 
Q 1678 3084 1418 2786 
Q 1159 2488 1159 1978 
L 1159 0 
L 581 0 
L 581 3500 
L 1159 3500 
L 1159 2956 
Q 1356 3278 1631 3431 
Q 1906 3584 2284 3584 
Q 2666 3584 2933 3390 
Q 3200 3197 3328 2828 
z
" transform="scale(0.015625)"/>
      <path id="DejaVuSans-62" d="M 3116 1747 
Q 3116 2381 2855 2742 
Q 2594 3103 2138 3103 
Q 1681 3103 1420 2742 
Q 1159 2381 1159 1747 
Q 1159 1113 1420 752 
Q 1681 391 2138 391 
Q 2594 391 2855 752 
Q 3116 1113 3116 1747 
z
M 1159 2969 
Q 1341 3281 1617 3432 
Q 1894 3584 2278 3584 
Q 2916 3584 3314 3078 
Q 3713 2572 3713 1747 
Q 3713 922 3314 415 
Q 2916 -91 2278 -91 
Q 1894 -91 1617 61 
Q 1341 213 1159 525 
L 1159 0 
L 581 0 
L 581 4863 
L 1159 4863 
L 1159 2969 
z
" transform="scale(0.015625)"/>
      <path id="DejaVuSans-72" d="M 2631 2963 
Q 2534 3019 2420 3045 
Q 2306 3072 2169 3072 
Q 1681 3072 1420 2755 
Q 1159 2438 1159 1844 
L 1159 0 
L 581 0 
L 581 3500 
L 1159 3500 
L 1159 2956 
Q 1341 3275 1631 3429 
Q 1922 3584 2338 3584 
Q 2397 3584 2469 3576 
Q 2541 3569 2628 3553 
L 2631 2963 
z
" transform="scale(0.015625)"/>
      <path id="DejaVuSans-66" d="M 2375 4863 
L 2375 4384 
L 1825 4384 
Q 1516 4384 1395 4259 
Q 1275 4134 1275 3809 
L 1275 3500 
L 2222 3500 
L 2222 3053 
L 1275 3053 
L 1275 0 
L 697 0 
L 697 3053 
L 147 3053 
L 147 3500 
L 697 3500 
L 697 3744 
Q 697 4328 969 4595 
Q 1241 4863 1831 4863 
L 2375 4863 
z
" transform="scale(0.015625)"/>
      <path id="DejaVuSans-4a" d="M 628 4666 
L 1259 4666 
L 1259 325 
Q 1259 -519 939 -900 
Q 619 -1281 -91 -1281 
L -331 -1281 
L -331 -750 
L -134 -750 
Q 284 -750 456 -515 
Q 628 -281 628 325 
L 628 4666 
z
" transform="scale(0.015625)"/>
      <path id="DejaVuSans-73" d="M 2834 3397 
L 2834 2853 
Q 2591 2978 2328 3040 
Q 2066 3103 1784 3103 
Q 1356 3103 1142 2972 
Q 928 2841 928 2578 
Q 928 2378 1081 2264 
Q 1234 2150 1697 2047 
L 1894 2003 
Q 2506 1872 2764 1633 
Q 3022 1394 3022 966 
Q 3022 478 2636 193 
Q 2250 -91 1575 -91 
Q 1294 -91 989 -36 
Q 684 19 347 128 
L 347 722 
Q 666 556 975 473 
Q 1284 391 1588 391 
Q 1994 391 2212 530 
Q 2431 669 2431 922 
Q 2431 1156 2273 1281 
Q 2116 1406 1581 1522 
L 1381 1569 
Q 847 1681 609 1914 
Q 372 2147 372 2553 
Q 372 3047 722 3315 
Q 1072 3584 1716 3584 
Q 2034 3584 2315 3537 
Q 2597 3491 2834 3397 
z
" transform="scale(0.015625)"/>
     </defs>
     <use xlink:href="#DejaVuSans-42"/>
     <use xlink:href="#DejaVuSans-6c" transform="translate(68.603516 0)"/>
     <use xlink:href="#DejaVuSans-6f" transform="translate(96.386719 0)"/>
     <use xlink:href="#DejaVuSans-63" transform="translate(157.568359 0)"/>
     <use xlink:href="#DejaVuSans-6b" transform="translate(212.548828 0)"/>
     <use xlink:href="#DejaVuSans-20" transform="translate(270.458984 0)"/>
     <use xlink:href="#DejaVuSans-53" transform="translate(302.246094 0)"/>
     <use xlink:href="#DejaVuSans-69" transform="translate(365.722656 0)"/>
     <use xlink:href="#DejaVuSans-7a" transform="translate(393.505859 0)"/>
     <use xlink:href="#DejaVuSans-65" transform="translate(445.996094 0)"/>
     <use xlink:href="#DejaVuSans-20" transform="translate(507.519531 0)"/>
     <use xlink:href="#DejaVuSans-3d" transform="translate(539.306641 0)"/>
     <use xlink:href="#DejaVuSans-20" transform="translate(623.095703 0)"/>
     <use xlink:href="#DejaVuSans-32" transform="translate(654.882812 0)"/>
     <use xlink:href="#DejaVuSans-4d" transform="translate(718.505859 0)"/>
     <use xlink:href="#DejaVuSans-2c" transform="translate(804.785156 0)"/>
     <use xlink:href="#DejaVuSans-20" transform="translate(836.572266 0)"/>
     <use xlink:href="#DejaVuSans-4e" transform="translate(868.359375 0)"/>
     <use xlink:href="#DejaVuSans-75" transform="translate(943.164062 0)"/>
     <use xlink:href="#DejaVuSans-6d" transform="translate(1006.542969 0)"/>
     <use xlink:href="#DejaVuSans-62" transform="translate(1103.955078 0)"/>
     <use xlink:href="#DejaVuSans-65" transform="translate(1167.431641 0)"/>
     <use xlink:href="#DejaVuSans-72" transform="translate(1228.955078 0)"/>
     <use xlink:href="#DejaVuSans-20" transform="translate(1270.068359 0)"/>
     <use xlink:href="#DejaVuSans-6f" transform="translate(1301.855469 0)"/>
     <use xlink:href="#DejaVuSans-66" transform="translate(1363.037109 0)"/>
     <use xlink:href="#DejaVuSans-20" transform="translate(1398.242188 0)"/>
     <use xlink:href="#DejaVuSans-4a" transform="translate(1430.029297 0)"/>
     <use xlink:href="#DejaVuSans-6f" transform="translate(1459.521484 0)"/>
     <use xlink:href="#DejaVuSans-62" transform="translate(1520.703125 0)"/>
     <use xlink:href="#DejaVuSans-73" transform="translate(1584.179688 0)"/>
     <use xlink:href="#DejaVuSans-20" transform="translate(1636.279297 0)"/>
     <use xlink:href="#DejaVuSans-3d" transform="translate(1668.066406 0)"/>
     <use xlink:href="#DejaVuSans-20" transform="translate(1751.855469 0)"/>
     <use xlink:href="#DejaVuSans-31" transform="translate(1783.642578 0)"/>
     <use xlink:href="#DejaVuSans-36" transform="translate(1847.265625 0)"/>
    </g>
   </g>
   <g id="text_15">
    <g id="patch_7">
     <path d="M 412.071398 292.171523 
L 516.654601 292.171523 
Q 517.929601 292.171523 517.929601 290.896523 
L 517.929601 282.670117 
Q 517.929601 281.395117 516.654601 281.395117 
L 412.071398 281.395117 
Q 410.796398 281.395117 410.796398 282.670117 
L 410.796398 290.896523 
Q 410.796398 292.171523 412.071398 292.171523 
z
" style="fill: #721f81; fill-opacity: 0.25; stroke: #ffffff; stroke-linejoin: miter"/>
    </g>
    <!-- Random Read-heavy 4:1 -->
    <g transform="translate(412.071398 289.128789) scale(0.085 -0.085)">
     <defs>
      <path id="DejaVuSans-52" d="M 2841 2188 
Q 3044 2119 3236 1894 
Q 3428 1669 3622 1275 
L 4263 0 
L 3584 0 
L 2988 1197 
Q 2756 1666 2539 1819 
Q 2322 1972 1947 1972 
L 1259 1972 
L 1259 0 
L 628 0 
L 628 4666 
L 2053 4666 
Q 2853 4666 3247 4331 
Q 3641 3997 3641 3322 
Q 3641 2881 3436 2590 
Q 3231 2300 2841 2188 
z
M 1259 4147 
L 1259 2491 
L 2053 2491 
Q 2509 2491 2742 2702 
Q 2975 2913 2975 3322 
Q 2975 3731 2742 3939 
Q 2509 4147 2053 4147 
L 1259 4147 
z
" transform="scale(0.015625)"/>
      <path id="DejaVuSans-61" d="M 2194 1759 
Q 1497 1759 1228 1600 
Q 959 1441 959 1056 
Q 959 750 1161 570 
Q 1363 391 1709 391 
Q 2188 391 2477 730 
Q 2766 1069 2766 1631 
L 2766 1759 
L 2194 1759 
z
M 3341 1997 
L 3341 0 
L 2766 0 
L 2766 531 
Q 2569 213 2275 61 
Q 1981 -91 1556 -91 
Q 1019 -91 701 211 
Q 384 513 384 1019 
Q 384 1609 779 1909 
Q 1175 2209 1959 2209 
L 2766 2209 
L 2766 2266 
Q 2766 2663 2505 2880 
Q 2244 3097 1772 3097 
Q 1472 3097 1187 3025 
Q 903 2953 641 2809 
L 641 3341 
Q 956 3463 1253 3523 
Q 1550 3584 1831 3584 
Q 2591 3584 2966 3190 
Q 3341 2797 3341 1997 
z
" transform="scale(0.015625)"/>
      <path id="DejaVuSans-6e" d="M 3513 2113 
L 3513 0 
L 2938 0 
L 2938 2094 
Q 2938 2591 2744 2837 
Q 2550 3084 2163 3084 
Q 1697 3084 1428 2787 
Q 1159 2491 1159 1978 
L 1159 0 
L 581 0 
L 581 3500 
L 1159 3500 
L 1159 2956 
Q 1366 3272 1645 3428 
Q 1925 3584 2291 3584 
Q 2894 3584 3203 3211 
Q 3513 2838 3513 2113 
z
" transform="scale(0.015625)"/>
      <path id="DejaVuSans-64" d="M 2906 2969 
L 2906 4863 
L 3481 4863 
L 3481 0 
L 2906 0 
L 2906 525 
Q 2725 213 2448 61 
Q 2172 -91 1784 -91 
Q 1150 -91 751 415 
Q 353 922 353 1747 
Q 353 2572 751 3078 
Q 1150 3584 1784 3584 
Q 2172 3584 2448 3432 
Q 2725 3281 2906 2969 
z
M 947 1747 
Q 947 1113 1208 752 
Q 1469 391 1925 391 
Q 2381 391 2643 752 
Q 2906 1113 2906 1747 
Q 2906 2381 2643 2742 
Q 2381 3103 1925 3103 
Q 1469 3103 1208 2742 
Q 947 2381 947 1747 
z
" transform="scale(0.015625)"/>
      <path id="DejaVuSans-2d" d="M 313 2009 
L 1997 2009 
L 1997 1497 
L 313 1497 
L 313 2009 
z
" transform="scale(0.015625)"/>
      <path id="DejaVuSans-76" d="M 191 3500 
L 800 3500 
L 1894 563 
L 2988 3500 
L 3597 3500 
L 2284 0 
L 1503 0 
L 191 3500 
z
" transform="scale(0.015625)"/>
      <path id="DejaVuSans-79" d="M 2059 -325 
Q 1816 -950 1584 -1140 
Q 1353 -1331 966 -1331 
L 506 -1331 
L 506 -850 
L 844 -850 
Q 1081 -850 1212 -737 
Q 1344 -625 1503 -206 
L 1606 56 
L 191 3500 
L 800 3500 
L 1894 763 
L 2988 3500 
L 3597 3500 
L 2059 -325 
z
" transform="scale(0.015625)"/>
      <path id="DejaVuSans-3a" d="M 750 794 
L 1409 794 
L 1409 0 
L 750 0 
L 750 794 
z
M 750 3309 
L 1409 3309 
L 1409 2516 
L 750 2516 
L 750 3309 
z
" transform="scale(0.015625)"/>
     </defs>
     <use xlink:href="#DejaVuSans-52"/>
     <use xlink:href="#DejaVuSans-61" transform="translate(67.232422 0)"/>
     <use xlink:href="#DejaVuSans-6e" transform="translate(128.511719 0)"/>
     <use xlink:href="#DejaVuSans-64" transform="translate(191.890625 0)"/>
     <use xlink:href="#DejaVuSans-6f" transform="translate(255.367188 0)"/>
     <use xlink:href="#DejaVuSans-6d" transform="translate(316.548828 0)"/>
     <use xlink:href="#DejaVuSans-20" transform="translate(413.960938 0)"/>
     <use xlink:href="#DejaVuSans-52" transform="translate(445.748047 0)"/>
     <use xlink:href="#DejaVuSans-65" transform="translate(510.730469 0)"/>
     <use xlink:href="#DejaVuSans-61" transform="translate(572.253906 0)"/>
     <use xlink:href="#DejaVuSans-64" transform="translate(633.533203 0)"/>
     <use xlink:href="#DejaVuSans-2d" transform="translate(697.009766 0)"/>
     <use xlink:href="#DejaVuSans-68" transform="translate(733.09375 0)"/>
     <use xlink:href="#DejaVuSans-65" transform="translate(796.472656 0)"/>
     <use xlink:href="#DejaVuSans-61" transform="translate(857.996094 0)"/>
     <use xlink:href="#DejaVuSans-76" transform="translate(919.275391 0)"/>
     <use xlink:href="#DejaVuSans-79" transform="translate(978.455078 0)"/>
     <use xlink:href="#DejaVuSans-20" transform="translate(1037.634766 0)"/>
     <use xlink:href="#DejaVuSans-34" transform="translate(1069.421875 0)"/>
     <use xlink:href="#DejaVuSans-3a" transform="translate(1133.044922 0)"/>
     <use xlink:href="#DejaVuSans-31" transform="translate(1166.736328 0)"/>
    </g>
   </g>
   <g id="text_16">
    <g id="patch_8">
     <path d="M 412.071398 281.527043 
L 526.757648 281.527043 
Q 528.032648 281.527043 528.032648 280.252043 
L 528.032648 272.025637 
Q 528.032648 270.750637 526.757648 270.750637 
L 412.071398 270.750637 
Q 410.796398 270.750637 410.796398 272.025637 
L 410.796398 280.252043 
Q 410.796398 281.527043 412.071398 281.527043 
z
" style="fill: #721f81; fill-opacity: 0.25; stroke: #ffffff; stroke-linejoin: miter"/>
    </g>
    <!-- Sequential Read-heavy 4:1 -->
    <g transform="translate(412.071398 278.484309) scale(0.085 -0.085)">
     <defs>
      <path id="DejaVuSans-71" d="M 947 1747 
Q 947 1113 1208 752 
Q 1469 391 1925 391 
Q 2381 391 2643 752 
Q 2906 1113 2906 1747 
Q 2906 2381 2643 2742 
Q 2381 3103 1925 3103 
Q 1469 3103 1208 2742 
Q 947 2381 947 1747 
z
M 2906 525 
Q 2725 213 2448 61 
Q 2172 -91 1784 -91 
Q 1150 -91 751 415 
Q 353 922 353 1747 
Q 353 2572 751 3078 
Q 1150 3584 1784 3584 
Q 2172 3584 2448 3432 
Q 2725 3281 2906 2969 
L 2906 3500 
L 3481 3500 
L 3481 -1331 
L 2906 -1331 
L 2906 525 
z
" transform="scale(0.015625)"/>
     </defs>
     <use xlink:href="#DejaVuSans-53"/>
     <use xlink:href="#DejaVuSans-65" transform="translate(63.476562 0)"/>
     <use xlink:href="#DejaVuSans-71" transform="translate(125 0)"/>
     <use xlink:href="#DejaVuSans-75" transform="translate(188.476562 0)"/>
     <use xlink:href="#DejaVuSans-65" transform="translate(251.855469 0)"/>
     <use xlink:href="#DejaVuSans-6e" transform="translate(313.378906 0)"/>
     <use xlink:href="#DejaVuSans-74" transform="translate(376.757812 0)"/>
     <use xlink:href="#DejaVuSans-69" transform="translate(415.966797 0)"/>
     <use xlink:href="#DejaVuSans-61" transform="translate(443.75 0)"/>
     <use xlink:href="#DejaVuSans-6c" transform="translate(505.029297 0)"/>
     <use xlink:href="#DejaVuSans-20" transform="translate(532.8125 0)"/>
     <use xlink:href="#DejaVuSans-52" transform="translate(564.599609 0)"/>
     <use xlink:href="#DejaVuSans-65" transform="translate(629.582031 0)"/>
     <use xlink:href="#DejaVuSans-61" transform="translate(691.105469 0)"/>
     <use xlink:href="#DejaVuSans-64" transform="translate(752.384766 0)"/>
     <use xlink:href="#DejaVuSans-2d" transform="translate(815.861328 0)"/>
     <use xlink:href="#DejaVuSans-68" transform="translate(851.945312 0)"/>
     <use xlink:href="#DejaVuSans-65" transform="translate(915.324219 0)"/>
     <use xlink:href="#DejaVuSans-61" transform="translate(976.847656 0)"/>
     <use xlink:href="#DejaVuSans-76" transform="translate(1038.126953 0)"/>
     <use xlink:href="#DejaVuSans-79" transform="translate(1097.306641 0)"/>
     <use xlink:href="#DejaVuSans-20" transform="translate(1156.486328 0)"/>
     <use xlink:href="#DejaVuSans-34" transform="translate(1188.273438 0)"/>
     <use xlink:href="#DejaVuSans-3a" transform="translate(1251.896484 0)"/>
     <use xlink:href="#DejaVuSans-31" transform="translate(1285.587891 0)"/>
    </g>
   </g>
   <g id="text_17">
    <g id="patch_9">
     <path d="M 412.071398 270.882563 
L 492.525226 270.882563 
Q 493.800226 270.882563 493.800226 269.607563 
L 493.800226 261.381157 
Q 493.800226 260.106157 492.525226 260.106157 
L 412.071398 260.106157 
Q 410.796398 260.106157 410.796398 261.381157 
L 410.796398 269.607563 
Q 410.796398 270.882563 412.071398 270.882563 
z
" style="fill: #2c115f; fill-opacity: 0.25; stroke: #ffffff; stroke-linejoin: miter"/>
    </g>
    <!-- Random Read-only -->
    <g transform="translate(412.071398 267.839829) scale(0.085 -0.085)">
     <use xlink:href="#DejaVuSans-52"/>
     <use xlink:href="#DejaVuSans-61" transform="translate(67.232422 0)"/>
     <use xlink:href="#DejaVuSans-6e" transform="translate(128.511719 0)"/>
     <use xlink:href="#DejaVuSans-64" transform="translate(191.890625 0)"/>
     <use xlink:href="#DejaVuSans-6f" transform="translate(255.367188 0)"/>
     <use xlink:href="#DejaVuSans-6d" transform="translate(316.548828 0)"/>
     <use xlink:href="#DejaVuSans-20" transform="translate(413.960938 0)"/>
     <use xlink:href="#DejaVuSans-52" transform="translate(445.748047 0)"/>
     <use xlink:href="#DejaVuSans-65" transform="translate(510.730469 0)"/>
     <use xlink:href="#DejaVuSans-61" transform="translate(572.253906 0)"/>
     <use xlink:href="#DejaVuSans-64" transform="translate(633.533203 0)"/>
     <use xlink:href="#DejaVuSans-2d" transform="translate(697.009766 0)"/>
     <use xlink:href="#DejaVuSans-6f" transform="translate(734.96875 0)"/>
     <use xlink:href="#DejaVuSans-6e" transform="translate(796.150391 0)"/>
     <use xlink:href="#DejaVuSans-6c" transform="translate(859.529297 0)"/>
     <use xlink:href="#DejaVuSans-79" transform="translate(887.3125 0)"/>
    </g>
   </g>
   <g id="text_18">
    <g id="patch_10">
     <path d="M 412.071398 260.238083 
L 505.639132 260.238083 
Q 506.914132 260.238083 506.914132 258.963083 
L 506.914132 250.736677 
Q 506.914132 249.461677 505.639132 249.461677 
L 412.071398 249.461677 
Q 410.796398 249.461677 410.796398 250.736677 
L 410.796398 258.963083 
Q 410.796398 260.238083 412.071398 260.238083 
z
" style="fill: #b73779; fill-opacity: 0.25; stroke: #ffffff; stroke-linejoin: miter"/>
    </g>
    <!-- Random Balanced 1:1 -->
    <g transform="translate(412.071398 257.195349) scale(0.085 -0.085)">
     <use xlink:href="#DejaVuSans-52"/>
     <use xlink:href="#DejaVuSans-61" transform="translate(67.232422 0)"/>
     <use xlink:href="#DejaVuSans-6e" transform="translate(128.511719 0)"/>
     <use xlink:href="#DejaVuSans-64" transform="translate(191.890625 0)"/>
     <use xlink:href="#DejaVuSans-6f" transform="translate(255.367188 0)"/>
     <use xlink:href="#DejaVuSans-6d" transform="translate(316.548828 0)"/>
     <use xlink:href="#DejaVuSans-20" transform="translate(413.960938 0)"/>
     <use xlink:href="#DejaVuSans-42" transform="translate(445.748047 0)"/>
     <use xlink:href="#DejaVuSans-61" transform="translate(514.351562 0)"/>
     <use xlink:href="#DejaVuSans-6c" transform="translate(575.630859 0)"/>
     <use xlink:href="#DejaVuSans-61" transform="translate(603.414062 0)"/>
     <use xlink:href="#DejaVuSans-6e" transform="translate(664.693359 0)"/>
     <use xlink:href="#DejaVuSans-63" transform="translate(728.072266 0)"/>
     <use xlink:href="#DejaVuSans-65" transform="translate(783.052734 0)"/>
     <use xlink:href="#DejaVuSans-64" transform="translate(844.576172 0)"/>
     <use xlink:href="#DejaVuSans-20" transform="translate(908.052734 0)"/>
     <use xlink:href="#DejaVuSans-31" transform="translate(939.839844 0)"/>
     <use xlink:href="#DejaVuSans-3a" transform="translate(1003.462891 0)"/>
     <use xlink:href="#DejaVuSans-31" transform="translate(1037.154297 0)"/>
    </g>
   </g>
   <g id="text_19">
    <g id="patch_11">
     <path d="M 412.071398 249.593603 
L 502.628273 249.593603 
Q 503.903273 249.593603 503.903273 248.318603 
L 503.903273 240.092197 
Q 503.903273 238.817197 502.628273 238.817197 
L 412.071398 238.817197 
Q 410.796398 238.817197 410.796398 240.092197 
L 410.796398 248.318603 
Q 410.796398 249.593603 412.071398 249.593603 
z
" style="fill: #2c115f; fill-opacity: 0.25; stroke: #ffffff; stroke-linejoin: miter"/>
    </g>
    <!-- Sequential Read-only -->
    <g transform="translate(412.071398 246.550869) scale(0.085 -0.085)">
     <use xlink:href="#DejaVuSans-53"/>
     <use xlink:href="#DejaVuSans-65" transform="translate(63.476562 0)"/>
     <use xlink:href="#DejaVuSans-71" transform="translate(125 0)"/>
     <use xlink:href="#DejaVuSans-75" transform="translate(188.476562 0)"/>
     <use xlink:href="#DejaVuSans-65" transform="translate(251.855469 0)"/>
     <use xlink:href="#DejaVuSans-6e" transform="translate(313.378906 0)"/>
     <use xlink:href="#DejaVuSans-74" transform="translate(376.757812 0)"/>
     <use xlink:href="#DejaVuSans-69" transform="translate(415.966797 0)"/>
     <use xlink:href="#DejaVuSans-61" transform="translate(443.75 0)"/>
     <use xlink:href="#DejaVuSans-6c" transform="translate(505.029297 0)"/>
     <use xlink:href="#DejaVuSans-20" transform="translate(532.8125 0)"/>
     <use xlink:href="#DejaVuSans-52" transform="translate(564.599609 0)"/>
     <use xlink:href="#DejaVuSans-65" transform="translate(629.582031 0)"/>
     <use xlink:href="#DejaVuSans-61" transform="translate(691.105469 0)"/>
     <use xlink:href="#DejaVuSans-64" transform="translate(752.384766 0)"/>
     <use xlink:href="#DejaVuSans-2d" transform="translate(815.861328 0)"/>
     <use xlink:href="#DejaVuSans-6f" transform="translate(853.820312 0)"/>
     <use xlink:href="#DejaVuSans-6e" transform="translate(915.001953 0)"/>
     <use xlink:href="#DejaVuSans-6c" transform="translate(978.380859 0)"/>
     <use xlink:href="#DejaVuSans-79" transform="translate(1006.164062 0)"/>
    </g>
   </g>
   <g id="text_20">
    <g id="patch_12">
     <path d="M 412.071398 238.949123 
L 515.742179 238.949123 
Q 517.017179 238.949123 517.017179 237.674123 
L 517.017179 229.447717 
Q 517.017179 228.172717 515.742179 228.172717 
L 412.071398 228.172717 
Q 410.796398 228.172717 410.796398 229.447717 
L 410.796398 237.674123 
Q 410.796398 238.949123 412.071398 238.949123 
z
" style="fill: #b73779; fill-opacity: 0.25; stroke: #ffffff; stroke-linejoin: miter"/>
    </g>
    <!-- Sequential Balanced 1:1 -->
    <g transform="translate(412.071398 235.906389) scale(0.085 -0.085)">
     <use xlink:href="#DejaVuSans-53"/>
     <use xlink:href="#DejaVuSans-65" transform="translate(63.476562 0)"/>
     <use xlink:href="#DejaVuSans-71" transform="translate(125 0)"/>
     <use xlink:href="#DejaVuSans-75" transform="translate(188.476562 0)"/>
     <use xlink:href="#DejaVuSans-65" transform="translate(251.855469 0)"/>
     <use xlink:href="#DejaVuSans-6e" transform="translate(313.378906 0)"/>
     <use xlink:href="#DejaVuSans-74" transform="translate(376.757812 0)"/>
     <use xlink:href="#DejaVuSans-69" transform="translate(415.966797 0)"/>
     <use xlink:href="#DejaVuSans-61" transform="translate(443.75 0)"/>
     <use xlink:href="#DejaVuSans-6c" transform="translate(505.029297 0)"/>
     <use xlink:href="#DejaVuSans-20" transform="translate(532.8125 0)"/>
     <use xlink:href="#DejaVuSans-42" transform="translate(564.599609 0)"/>
     <use xlink:href="#DejaVuSans-61" transform="translate(633.203125 0)"/>
     <use xlink:href="#DejaVuSans-6c" transform="translate(694.482422 0)"/>
     <use xlink:href="#DejaVuSans-61" transform="translate(722.265625 0)"/>
     <use xlink:href="#DejaVuSans-6e" transform="translate(783.544922 0)"/>
     <use xlink:href="#DejaVuSans-63" transform="translate(846.923828 0)"/>
     <use xlink:href="#DejaVuSans-65" transform="translate(901.904297 0)"/>
     <use xlink:href="#DejaVuSans-64" transform="translate(963.427734 0)"/>
     <use xlink:href="#DejaVuSans-20" transform="translate(1026.904297 0)"/>
     <use xlink:href="#DejaVuSans-31" transform="translate(1058.691406 0)"/>
     <use xlink:href="#DejaVuSans-3a" transform="translate(1122.314453 0)"/>
     <use xlink:href="#DejaVuSans-31" transform="translate(1156.005859 0)"/>
    </g>
   </g>
   <g id="text_21">
    <g id="patch_13">
     <path d="M 412.071398 215.106887 
L 517.735695 215.106887 
Q 519.010695 215.106887 519.010695 213.831887 
L 519.010695 205.605481 
Q 519.010695 204.330481 517.735695 204.330481 
L 412.071398 204.330481 
Q 410.796398 204.330481 410.796398 205.605481 
L 410.796398 213.831887 
Q 410.796398 215.106887 412.071398 215.106887 
z
" style="fill: #f1605d; fill-opacity: 0.25; stroke: #ffffff; stroke-linejoin: miter"/>
    </g>
    <!-- Random Write-heavy 1:4 -->
    <g transform="translate(412.071398 212.064153) scale(0.085 -0.085)">
     <defs>
      <path id="DejaVuSans-57" d="M 213 4666 
L 850 4666 
L 1831 722 
L 2809 4666 
L 3519 4666 
L 4500 722 
L 5478 4666 
L 6119 4666 
L 4947 0 
L 4153 0 
L 3169 4050 
L 2175 0 
L 1381 0 
L 213 4666 
z
" transform="scale(0.015625)"/>
     </defs>
     <use xlink:href="#DejaVuSans-52"/>
     <use xlink:href="#DejaVuSans-61" transform="translate(67.232422 0)"/>
     <use xlink:href="#DejaVuSans-6e" transform="translate(128.511719 0)"/>
     <use xlink:href="#DejaVuSans-64" transform="translate(191.890625 0)"/>
     <use xlink:href="#DejaVuSans-6f" transform="translate(255.367188 0)"/>
     <use xlink:href="#DejaVuSans-6d" transform="translate(316.548828 0)"/>
     <use xlink:href="#DejaVuSans-20" transform="translate(413.960938 0)"/>
     <use xlink:href="#DejaVuSans-57" transform="translate(445.748047 0)"/>
     <use xlink:href="#DejaVuSans-72" transform="translate(540.125 0)"/>
     <use xlink:href="#DejaVuSans-69" transform="translate(581.238281 0)"/>
     <use xlink:href="#DejaVuSans-74" transform="translate(609.021484 0)"/>
     <use xlink:href="#DejaVuSans-65" transform="translate(648.230469 0)"/>
     <use xlink:href="#DejaVuSans-2d" transform="translate(709.753906 0)"/>
     <use xlink:href="#DejaVuSans-68" transform="translate(745.837891 0)"/>
     <use xlink:href="#DejaVuSans-65" transform="translate(809.216797 0)"/>
     <use xlink:href="#DejaVuSans-61" transform="translate(870.740234 0)"/>
     <use xlink:href="#DejaVuSans-76" transform="translate(932.019531 0)"/>
     <use xlink:href="#DejaVuSans-79" transform="translate(991.199219 0)"/>
     <use xlink:href="#DejaVuSans-20" transform="translate(1050.378906 0)"/>
     <use xlink:href="#DejaVuSans-31" transform="translate(1082.166016 0)"/>
     <use xlink:href="#DejaVuSans-3a" transform="translate(1145.789062 0)"/>
     <use xlink:href="#DejaVuSans-34" transform="translate(1179.480469 0)"/>
    </g>
   </g>
   <g id="text_22">
    <g id="patch_14">
     <path d="M 412.071398 204.462407 
L 527.838741 204.462407 
Q 529.113741 204.462407 529.113741 203.187407 
L 529.113741 194.961001 
Q 529.113741 193.686001 527.838741 193.686001 
L 412.071398 193.686001 
Q 410.796398 193.686001 410.796398 194.961001 
L 410.796398 203.187407 
Q 410.796398 204.462407 412.071398 204.462407 
z
" style="fill: #f1605d; fill-opacity: 0.25; stroke: #ffffff; stroke-linejoin: miter"/>
    </g>
    <!-- Sequential Write-heavy 1:4 -->
    <g transform="translate(412.071398 201.419673) scale(0.085 -0.085)">
     <use xlink:href="#DejaVuSans-53"/>
     <use xlink:href="#DejaVuSans-65" transform="translate(63.476562 0)"/>
     <use xlink:href="#DejaVuSans-71" transform="translate(125 0)"/>
     <use xlink:href="#DejaVuSans-75" transform="translate(188.476562 0)"/>
     <use xlink:href="#DejaVuSans-65" transform="translate(251.855469 0)"/>
     <use xlink:href="#DejaVuSans-6e" transform="translate(313.378906 0)"/>
     <use xlink:href="#DejaVuSans-74" transform="translate(376.757812 0)"/>
     <use xlink:href="#DejaVuSans-69" transform="translate(415.966797 0)"/>
     <use xlink:href="#DejaVuSans-61" transform="translate(443.75 0)"/>
     <use xlink:href="#DejaVuSans-6c" transform="translate(505.029297 0)"/>
     <use xlink:href="#DejaVuSans-20" transform="translate(532.8125 0)"/>
     <use xlink:href="#DejaVuSans-57" transform="translate(564.599609 0)"/>
     <use xlink:href="#DejaVuSans-72" transform="translate(658.976562 0)"/>
     <use xlink:href="#DejaVuSans-69" transform="translate(700.089844 0)"/>
     <use xlink:href="#DejaVuSans-74" transform="translate(727.873047 0)"/>
     <use xlink:href="#DejaVuSans-65" transform="translate(767.082031 0)"/>
     <use xlink:href="#DejaVuSans-2d" transform="translate(828.605469 0)"/>
     <use xlink:href="#DejaVuSans-68" transform="translate(864.689453 0)"/>
     <use xlink:href="#DejaVuSans-65" transform="translate(928.068359 0)"/>
     <use xlink:href="#DejaVuSans-61" transform="translate(989.591797 0)"/>
     <use xlink:href="#DejaVuSans-76" transform="translate(1050.871094 0)"/>
     <use xlink:href="#DejaVuSans-79" transform="translate(1110.050781 0)"/>
     <use xlink:href="#DejaVuSans-20" transform="translate(1169.230469 0)"/>
     <use xlink:href="#DejaVuSans-31" transform="translate(1201.017578 0)"/>
     <use xlink:href="#DejaVuSans-3a" transform="translate(1264.640625 0)"/>
     <use xlink:href="#DejaVuSans-34" transform="translate(1298.332031 0)"/>
    </g>
   </g>
   <g id="text_23">
    <g id="patch_15">
     <path d="M 412.071398 94.846415 
L 493.60632 94.846415 
Q 494.88132 94.846415 494.88132 93.571415 
L 494.88132 85.345009 
Q 494.88132 84.070009 493.60632 84.070009 
L 412.071398 84.070009 
Q 410.796398 84.070009 410.796398 85.345009 
L 410.796398 93.571415 
Q 410.796398 94.846415 412.071398 94.846415 
z
" style="fill: #feb078; fill-opacity: 0.25; stroke: #ffffff; stroke-linejoin: miter"/>
    </g>
    <!-- Random Write-only -->
    <g transform="translate(412.071398 91.80368) scale(0.085 -0.085)">
     <use xlink:href="#DejaVuSans-52"/>
     <use xlink:href="#DejaVuSans-61" transform="translate(67.232422 0)"/>
     <use xlink:href="#DejaVuSans-6e" transform="translate(128.511719 0)"/>
     <use xlink:href="#DejaVuSans-64" transform="translate(191.890625 0)"/>
     <use xlink:href="#DejaVuSans-6f" transform="translate(255.367188 0)"/>
     <use xlink:href="#DejaVuSans-6d" transform="translate(316.548828 0)"/>
     <use xlink:href="#DejaVuSans-20" transform="translate(413.960938 0)"/>
     <use xlink:href="#DejaVuSans-57" transform="translate(445.748047 0)"/>
     <use xlink:href="#DejaVuSans-72" transform="translate(540.125 0)"/>
     <use xlink:href="#DejaVuSans-69" transform="translate(581.238281 0)"/>
     <use xlink:href="#DejaVuSans-74" transform="translate(609.021484 0)"/>
     <use xlink:href="#DejaVuSans-65" transform="translate(648.230469 0)"/>
     <use xlink:href="#DejaVuSans-2d" transform="translate(709.753906 0)"/>
     <use xlink:href="#DejaVuSans-6f" transform="translate(747.712891 0)"/>
     <use xlink:href="#DejaVuSans-6e" transform="translate(808.894531 0)"/>
     <use xlink:href="#DejaVuSans-6c" transform="translate(872.273438 0)"/>
     <use xlink:href="#DejaVuSans-79" transform="translate(900.056641 0)"/>
    </g>
   </g>
   <g id="text_24">
    <g id="patch_16">
     <path d="M 412.071398 84.201935 
L 503.709366 84.201935 
Q 504.984366 84.201935 504.984366 82.926935 
L 504.984366 74.700529 
Q 504.984366 73.425529 503.709366 73.425529 
L 412.071398 73.425529 
Q 410.796398 73.425529 410.796398 74.700529 
L 410.796398 82.926935 
Q 410.796398 84.201935 412.071398 84.201935 
z
" style="fill: #feb078; fill-opacity: 0.25; stroke: #ffffff; stroke-linejoin: miter"/>
    </g>
    <!-- Sequential Write-only -->
    <g transform="translate(412.071398 81.1592) scale(0.085 -0.085)">
     <use xlink:href="#DejaVuSans-53"/>
     <use xlink:href="#DejaVuSans-65" transform="translate(63.476562 0)"/>
     <use xlink:href="#DejaVuSans-71" transform="translate(125 0)"/>
     <use xlink:href="#DejaVuSans-75" transform="translate(188.476562 0)"/>
     <use xlink:href="#DejaVuSans-65" transform="translate(251.855469 0)"/>
     <use xlink:href="#DejaVuSans-6e" transform="translate(313.378906 0)"/>
     <use xlink:href="#DejaVuSans-74" transform="translate(376.757812 0)"/>
     <use xlink:href="#DejaVuSans-69" transform="translate(415.966797 0)"/>
     <use xlink:href="#DejaVuSans-61" transform="translate(443.75 0)"/>
     <use xlink:href="#DejaVuSans-6c" transform="translate(505.029297 0)"/>
     <use xlink:href="#DejaVuSans-20" transform="translate(532.8125 0)"/>
     <use xlink:href="#DejaVuSans-57" transform="translate(564.599609 0)"/>
     <use xlink:href="#DejaVuSans-72" transform="translate(658.976562 0)"/>
     <use xlink:href="#DejaVuSans-69" transform="translate(700.089844 0)"/>
     <use xlink:href="#DejaVuSans-74" transform="translate(727.873047 0)"/>
     <use xlink:href="#DejaVuSans-65" transform="translate(767.082031 0)"/>
     <use xlink:href="#DejaVuSans-2d" transform="translate(828.605469 0)"/>
     <use xlink:href="#DejaVuSans-6f" transform="translate(866.564453 0)"/>
     <use xlink:href="#DejaVuSans-6e" transform="translate(927.746094 0)"/>
     <use xlink:href="#DejaVuSans-6c" transform="translate(991.125 0)"/>
     <use xlink:href="#DejaVuSans-79" transform="translate(1018.908203 0)"/>
    </g>
   </g>
   <g id="text_25">
    <!-- IOPS vs IO Depth -->
    <g style="fill: #262626" transform="translate(174.270312 16.318125) scale(0.12 -0.12)">
     <defs>
      <path id="DejaVuSans-Bold-49" d="M 588 4666 
L 1791 4666 
L 1791 0 
L 588 0 
L 588 4666 
z
" transform="scale(0.015625)"/>
      <path id="DejaVuSans-Bold-4f" d="M 2719 3878 
Q 2169 3878 1866 3472 
Q 1563 3066 1563 2328 
Q 1563 1594 1866 1187 
Q 2169 781 2719 781 
Q 3272 781 3575 1187 
Q 3878 1594 3878 2328 
Q 3878 3066 3575 3472 
Q 3272 3878 2719 3878 
z
M 2719 4750 
Q 3844 4750 4481 4106 
Q 5119 3463 5119 2328 
Q 5119 1197 4481 553 
Q 3844 -91 2719 -91 
Q 1597 -91 958 553 
Q 319 1197 319 2328 
Q 319 3463 958 4106 
Q 1597 4750 2719 4750 
z
" transform="scale(0.015625)"/>
      <path id="DejaVuSans-Bold-50" d="M 588 4666 
L 2584 4666 
Q 3475 4666 3951 4270 
Q 4428 3875 4428 3144 
Q 4428 2409 3951 2014 
Q 3475 1619 2584 1619 
L 1791 1619 
L 1791 0 
L 588 0 
L 588 4666 
z
M 1791 3794 
L 1791 2491 
L 2456 2491 
Q 2806 2491 2997 2661 
Q 3188 2831 3188 3144 
Q 3188 3456 2997 3625 
Q 2806 3794 2456 3794 
L 1791 3794 
z
" transform="scale(0.015625)"/>
      <path id="DejaVuSans-Bold-53" d="M 3834 4519 
L 3834 3531 
Q 3450 3703 3084 3790 
Q 2719 3878 2394 3878 
Q 1963 3878 1756 3759 
Q 1550 3641 1550 3391 
Q 1550 3203 1689 3098 
Q 1828 2994 2194 2919 
L 2706 2816 
Q 3484 2659 3812 2340 
Q 4141 2022 4141 1434 
Q 4141 663 3683 286 
Q 3225 -91 2284 -91 
Q 1841 -91 1394 -6 
Q 947 78 500 244 
L 500 1259 
Q 947 1022 1364 901 
Q 1781 781 2169 781 
Q 2563 781 2772 912 
Q 2981 1044 2981 1288 
Q 2981 1506 2839 1625 
Q 2697 1744 2272 1838 
L 1806 1941 
Q 1106 2091 782 2419 
Q 459 2747 459 3303 
Q 459 4000 909 4375 
Q 1359 4750 2203 4750 
Q 2588 4750 2994 4692 
Q 3400 4634 3834 4519 
z
" transform="scale(0.015625)"/>
      <path id="DejaVuSans-Bold-20" transform="scale(0.015625)"/>
      <path id="DejaVuSans-Bold-76" d="M 97 3500 
L 1216 3500 
L 2088 1081 
L 2956 3500 
L 4078 3500 
L 2700 0 
L 1472 0 
L 97 3500 
z
" transform="scale(0.015625)"/>
      <path id="DejaVuSans-Bold-73" d="M 3272 3391 
L 3272 2541 
Q 2913 2691 2578 2766 
Q 2244 2841 1947 2841 
Q 1628 2841 1473 2761 
Q 1319 2681 1319 2516 
Q 1319 2381 1436 2309 
Q 1553 2238 1856 2203 
L 2053 2175 
Q 2913 2066 3209 1816 
Q 3506 1566 3506 1031 
Q 3506 472 3093 190 
Q 2681 -91 1863 -91 
Q 1516 -91 1145 -36 
Q 775 19 384 128 
L 384 978 
Q 719 816 1070 734 
Q 1422 653 1784 653 
Q 2113 653 2278 743 
Q 2444 834 2444 1013 
Q 2444 1163 2330 1236 
Q 2216 1309 1875 1350 
L 1678 1375 
Q 931 1469 631 1722 
Q 331 1975 331 2491 
Q 331 3047 712 3315 
Q 1094 3584 1881 3584 
Q 2191 3584 2531 3537 
Q 2872 3491 3272 3391 
z
" transform="scale(0.015625)"/>
      <path id="DejaVuSans-Bold-44" d="M 1791 3756 
L 1791 909 
L 2222 909 
Q 2959 909 3348 1275 
Q 3738 1641 3738 2338 
Q 3738 3031 3350 3393 
Q 2963 3756 2222 3756 
L 1791 3756 
z
M 588 4666 
L 1856 4666 
Q 2919 4666 3439 4514 
Q 3959 4363 4331 4000 
Q 4659 3684 4818 3271 
Q 4978 2859 4978 2338 
Q 4978 1809 4818 1395 
Q 4659 981 4331 666 
Q 3956 303 3431 151 
Q 2906 0 1856 0 
L 588 0 
L 588 4666 
z
" transform="scale(0.015625)"/>
      <path id="DejaVuSans-Bold-65" d="M 4031 1759 
L 4031 1441 
L 1416 1441 
Q 1456 1047 1700 850 
Q 1944 653 2381 653 
Q 2734 653 3104 758 
Q 3475 863 3866 1075 
L 3866 213 
Q 3469 63 3072 -14 
Q 2675 -91 2278 -91 
Q 1328 -91 801 392 
Q 275 875 275 1747 
Q 275 2603 792 3093 
Q 1309 3584 2216 3584 
Q 3041 3584 3536 3087 
Q 4031 2591 4031 1759 
z
M 2881 2131 
Q 2881 2450 2695 2645 
Q 2509 2841 2209 2841 
Q 1884 2841 1681 2658 
Q 1478 2475 1428 2131 
L 2881 2131 
z
" transform="scale(0.015625)"/>
      <path id="DejaVuSans-Bold-70" d="M 1656 506 
L 1656 -1331 
L 538 -1331 
L 538 3500 
L 1656 3500 
L 1656 2988 
Q 1888 3294 2169 3439 
Q 2450 3584 2816 3584 
Q 3463 3584 3878 3070 
Q 4294 2556 4294 1747 
Q 4294 938 3878 423 
Q 3463 -91 2816 -91 
Q 2450 -91 2169 54 
Q 1888 200 1656 506 
z
M 2400 2772 
Q 2041 2772 1848 2508 
Q 1656 2244 1656 1747 
Q 1656 1250 1848 986 
Q 2041 722 2400 722 
Q 2759 722 2948 984 
Q 3138 1247 3138 1747 
Q 3138 2247 2948 2509 
Q 2759 2772 2400 2772 
z
" transform="scale(0.015625)"/>
      <path id="DejaVuSans-Bold-74" d="M 1759 4494 
L 1759 3500 
L 2913 3500 
L 2913 2700 
L 1759 2700 
L 1759 1216 
Q 1759 972 1856 886 
Q 1953 800 2241 800 
L 2816 800 
L 2816 0 
L 1856 0 
Q 1194 0 917 276 
Q 641 553 641 1216 
L 641 2700 
L 84 2700 
L 84 3500 
L 641 3500 
L 641 4494 
L 1759 4494 
z
" transform="scale(0.015625)"/>
      <path id="DejaVuSans-Bold-68" d="M 4056 2131 
L 4056 0 
L 2931 0 
L 2931 347 
L 2931 1625 
Q 2931 2084 2911 2256 
Q 2891 2428 2841 2509 
Q 2775 2619 2662 2680 
Q 2550 2741 2406 2741 
Q 2056 2741 1856 2470 
Q 1656 2200 1656 1722 
L 1656 0 
L 538 0 
L 538 4863 
L 1656 4863 
L 1656 2988 
Q 1909 3294 2193 3439 
Q 2478 3584 2822 3584 
Q 3428 3584 3742 3212 
Q 4056 2841 4056 2131 
z
" transform="scale(0.015625)"/>
     </defs>
     <use xlink:href="#DejaVuSans-Bold-49"/>
     <use xlink:href="#DejaVuSans-Bold-4f" transform="translate(37.207031 0)"/>
     <use xlink:href="#DejaVuSans-Bold-50" transform="translate(122.216797 0)"/>
     <use xlink:href="#DejaVuSans-Bold-53" transform="translate(195.507812 0)"/>
     <use xlink:href="#DejaVuSans-Bold-20" transform="translate(267.529297 0)"/>
     <use xlink:href="#DejaVuSans-Bold-76" transform="translate(302.34375 0)"/>
     <use xlink:href="#DejaVuSans-Bold-73" transform="translate(367.529297 0)"/>
     <use xlink:href="#DejaVuSans-Bold-20" transform="translate(427.050781 0)"/>
     <use xlink:href="#DejaVuSans-Bold-49" transform="translate(461.865234 0)"/>
     <use xlink:href="#DejaVuSans-Bold-4f" transform="translate(499.072266 0)"/>
     <use xlink:href="#DejaVuSans-Bold-20" transform="translate(584.082031 0)"/>
     <use xlink:href="#DejaVuSans-Bold-44" transform="translate(618.896484 0)"/>
     <use xlink:href="#DejaVuSans-Bold-65" transform="translate(701.904297 0)"/>
     <use xlink:href="#DejaVuSans-Bold-70" transform="translate(769.726562 0)"/>
     <use xlink:href="#DejaVuSans-Bold-74" transform="translate(841.308594 0)"/>
     <use xlink:href="#DejaVuSans-Bold-68" transform="translate(889.111328 0)"/>
    </g>
   </g>
   <g id="legend_1">
    <g id="text_26">
     <!-- Read-Write Type -->
     <g style="fill: #262626" transform="translate(611.331034 98.048475) scale(0.1 -0.1)">
      <defs>
       <path id="DejaVuSans-54" d="M -19 4666 
L 3928 4666 
L 3928 4134 
L 2272 4134 
L 2272 0 
L 1638 0 
L 1638 4134 
L -19 4134 
L -19 4666 
z
" transform="scale(0.015625)"/>
      </defs>
      <use xlink:href="#DejaVuSans-52"/>
      <use xlink:href="#DejaVuSans-65" transform="translate(64.982422 0)"/>
      <use xlink:href="#DejaVuSans-61" transform="translate(126.505859 0)"/>
      <use xlink:href="#DejaVuSans-64" transform="translate(187.785156 0)"/>
      <use xlink:href="#DejaVuSans-2d" transform="translate(251.261719 0)"/>
      <use xlink:href="#DejaVuSans-57" transform="translate(283.345703 0)"/>
      <use xlink:href="#DejaVuSans-72" transform="translate(377.722656 0)"/>
      <use xlink:href="#DejaVuSans-69" transform="translate(418.835938 0)"/>
      <use xlink:href="#DejaVuSans-74" transform="translate(446.619141 0)"/>
      <use xlink:href="#DejaVuSans-65" transform="translate(485.828125 0)"/>
      <use xlink:href="#DejaVuSans-20" transform="translate(547.351562 0)"/>
      <use xlink:href="#DejaVuSans-54" transform="translate(579.138672 0)"/>
      <use xlink:href="#DejaVuSans-79" transform="translate(624.597656 0)"/>
      <use xlink:href="#DejaVuSans-70" transform="translate(683.777344 0)"/>
      <use xlink:href="#DejaVuSans-65" transform="translate(747.253906 0)"/>
     </g>
    </g>
    <g id="line2d_36">
     <path d="M 569.672441 109.2266 
L 579.672441 109.2266 
L 589.672441 109.2266 
" style="fill: none; stroke: #2c115f; stroke-width: 1.5; stroke-linecap: round"/>
    </g>
    <g id="text_27">
     <!-- Sequential Read-only -->
     <g style="fill: #262626" transform="translate(597.672441 112.7266) scale(0.1 -0.1)">
      <use xlink:href="#DejaVuSans-53"/>
      <use xlink:href="#DejaVuSans-65" transform="translate(63.476562 0)"/>
      <use xlink:href="#DejaVuSans-71" transform="translate(125 0)"/>
      <use xlink:href="#DejaVuSans-75" transform="translate(188.476562 0)"/>
      <use xlink:href="#DejaVuSans-65" transform="translate(251.855469 0)"/>
      <use xlink:href="#DejaVuSans-6e" transform="translate(313.378906 0)"/>
      <use xlink:href="#DejaVuSans-74" transform="translate(376.757812 0)"/>
      <use xlink:href="#DejaVuSans-69" transform="translate(415.966797 0)"/>
      <use xlink:href="#DejaVuSans-61" transform="translate(443.75 0)"/>
      <use xlink:href="#DejaVuSans-6c" transform="translate(505.029297 0)"/>
      <use xlink:href="#DejaVuSans-20" transform="translate(532.8125 0)"/>
      <use xlink:href="#DejaVuSans-52" transform="translate(564.599609 0)"/>
      <use xlink:href="#DejaVuSans-65" transform="translate(629.582031 0)"/>
      <use xlink:href="#DejaVuSans-61" transform="translate(691.105469 0)"/>
      <use xlink:href="#DejaVuSans-64" transform="translate(752.384766 0)"/>
      <use xlink:href="#DejaVuSans-2d" transform="translate(815.861328 0)"/>
      <use xlink:href="#DejaVuSans-6f" transform="translate(853.820312 0)"/>
      <use xlink:href="#DejaVuSans-6e" transform="translate(915.001953 0)"/>
      <use xlink:href="#DejaVuSans-6c" transform="translate(978.380859 0)"/>
      <use xlink:href="#DejaVuSans-79" transform="translate(1006.164062 0)"/>
     </g>
    </g>
    <g id="line2d_37">
     <path d="M 569.672441 123.904725 
L 579.672441 123.904725 
L 589.672441 123.904725 
" style="fill: none; stroke: #721f81; stroke-width: 1.5; stroke-linecap: round"/>
    </g>
    <g id="text_28">
     <!-- Sequential Read-heavy 4:1 -->
     <g style="fill: #262626" transform="translate(597.672441 127.404725) scale(0.1 -0.1)">
      <use xlink:href="#DejaVuSans-53"/>
      <use xlink:href="#DejaVuSans-65" transform="translate(63.476562 0)"/>
      <use xlink:href="#DejaVuSans-71" transform="translate(125 0)"/>
      <use xlink:href="#DejaVuSans-75" transform="translate(188.476562 0)"/>
      <use xlink:href="#DejaVuSans-65" transform="translate(251.855469 0)"/>
      <use xlink:href="#DejaVuSans-6e" transform="translate(313.378906 0)"/>
      <use xlink:href="#DejaVuSans-74" transform="translate(376.757812 0)"/>
      <use xlink:href="#DejaVuSans-69" transform="translate(415.966797 0)"/>
      <use xlink:href="#DejaVuSans-61" transform="translate(443.75 0)"/>
      <use xlink:href="#DejaVuSans-6c" transform="translate(505.029297 0)"/>
      <use xlink:href="#DejaVuSans-20" transform="translate(532.8125 0)"/>
      <use xlink:href="#DejaVuSans-52" transform="translate(564.599609 0)"/>
      <use xlink:href="#DejaVuSans-65" transform="translate(629.582031 0)"/>
      <use xlink:href="#DejaVuSans-61" transform="translate(691.105469 0)"/>
      <use xlink:href="#DejaVuSans-64" transform="translate(752.384766 0)"/>
      <use xlink:href="#DejaVuSans-2d" transform="translate(815.861328 0)"/>
      <use xlink:href="#DejaVuSans-68" transform="translate(851.945312 0)"/>
      <use xlink:href="#DejaVuSans-65" transform="translate(915.324219 0)"/>
      <use xlink:href="#DejaVuSans-61" transform="translate(976.847656 0)"/>
      <use xlink:href="#DejaVuSans-76" transform="translate(1038.126953 0)"/>
      <use xlink:href="#DejaVuSans-79" transform="translate(1097.306641 0)"/>
      <use xlink:href="#DejaVuSans-20" transform="translate(1156.486328 0)"/>
      <use xlink:href="#DejaVuSans-34" transform="translate(1188.273438 0)"/>
      <use xlink:href="#DejaVuSans-3a" transform="translate(1251.896484 0)"/>
      <use xlink:href="#DejaVuSans-31" transform="translate(1285.587891 0)"/>
     </g>
    </g>
    <g id="line2d_38">
     <path d="M 569.672441 138.58285 
L 579.672441 138.58285 
L 589.672441 138.58285 
" style="fill: none; stroke: #b73779; stroke-width: 1.5; stroke-linecap: round"/>
    </g>
    <g id="text_29">
     <!-- Sequential Balanced 1:1 -->
     <g style="fill: #262626" transform="translate(597.672441 142.08285) scale(0.1 -0.1)">
      <use xlink:href="#DejaVuSans-53"/>
      <use xlink:href="#DejaVuSans-65" transform="translate(63.476562 0)"/>
      <use xlink:href="#DejaVuSans-71" transform="translate(125 0)"/>
      <use xlink:href="#DejaVuSans-75" transform="translate(188.476562 0)"/>
      <use xlink:href="#DejaVuSans-65" transform="translate(251.855469 0)"/>
      <use xlink:href="#DejaVuSans-6e" transform="translate(313.378906 0)"/>
      <use xlink:href="#DejaVuSans-74" transform="translate(376.757812 0)"/>
      <use xlink:href="#DejaVuSans-69" transform="translate(415.966797 0)"/>
      <use xlink:href="#DejaVuSans-61" transform="translate(443.75 0)"/>
      <use xlink:href="#DejaVuSans-6c" transform="translate(505.029297 0)"/>
      <use xlink:href="#DejaVuSans-20" transform="translate(532.8125 0)"/>
      <use xlink:href="#DejaVuSans-42" transform="translate(564.599609 0)"/>
      <use xlink:href="#DejaVuSans-61" transform="translate(633.203125 0)"/>
      <use xlink:href="#DejaVuSans-6c" transform="translate(694.482422 0)"/>
      <use xlink:href="#DejaVuSans-61" transform="translate(722.265625 0)"/>
      <use xlink:href="#DejaVuSans-6e" transform="translate(783.544922 0)"/>
      <use xlink:href="#DejaVuSans-63" transform="translate(846.923828 0)"/>
      <use xlink:href="#DejaVuSans-65" transform="translate(901.904297 0)"/>
      <use xlink:href="#DejaVuSans-64" transform="translate(963.427734 0)"/>
      <use xlink:href="#DejaVuSans-20" transform="translate(1026.904297 0)"/>
      <use xlink:href="#DejaVuSans-31" transform="translate(1058.691406 0)"/>
      <use xlink:href="#DejaVuSans-3a" transform="translate(1122.314453 0)"/>
      <use xlink:href="#DejaVuSans-31" transform="translate(1156.005859 0)"/>
     </g>
    </g>
    <g id="line2d_39">
     <path d="M 569.672441 153.260975 
L 579.672441 153.260975 
L 589.672441 153.260975 
" style="fill: none; stroke: #f1605d; stroke-width: 1.5; stroke-linecap: round"/>
    </g>
    <g id="text_30">
     <!-- Sequential Write-heavy 1:4 -->
     <g style="fill: #262626" transform="translate(597.672441 156.760975) scale(0.1 -0.1)">
      <use xlink:href="#DejaVuSans-53"/>
      <use xlink:href="#DejaVuSans-65" transform="translate(63.476562 0)"/>
      <use xlink:href="#DejaVuSans-71" transform="translate(125 0)"/>
      <use xlink:href="#DejaVuSans-75" transform="translate(188.476562 0)"/>
      <use xlink:href="#DejaVuSans-65" transform="translate(251.855469 0)"/>
      <use xlink:href="#DejaVuSans-6e" transform="translate(313.378906 0)"/>
      <use xlink:href="#DejaVuSans-74" transform="translate(376.757812 0)"/>
      <use xlink:href="#DejaVuSans-69" transform="translate(415.966797 0)"/>
      <use xlink:href="#DejaVuSans-61" transform="translate(443.75 0)"/>
      <use xlink:href="#DejaVuSans-6c" transform="translate(505.029297 0)"/>
      <use xlink:href="#DejaVuSans-20" transform="translate(532.8125 0)"/>
      <use xlink:href="#DejaVuSans-57" transform="translate(564.599609 0)"/>
      <use xlink:href="#DejaVuSans-72" transform="translate(658.976562 0)"/>
      <use xlink:href="#DejaVuSans-69" transform="translate(700.089844 0)"/>
      <use xlink:href="#DejaVuSans-74" transform="translate(727.873047 0)"/>
      <use xlink:href="#DejaVuSans-65" transform="translate(767.082031 0)"/>
      <use xlink:href="#DejaVuSans-2d" transform="translate(828.605469 0)"/>
      <use xlink:href="#DejaVuSans-68" transform="translate(864.689453 0)"/>
      <use xlink:href="#DejaVuSans-65" transform="translate(928.068359 0)"/>
      <use xlink:href="#DejaVuSans-61" transform="translate(989.591797 0)"/>
      <use xlink:href="#DejaVuSans-76" transform="translate(1050.871094 0)"/>
      <use xlink:href="#DejaVuSans-79" transform="translate(1110.050781 0)"/>
      <use xlink:href="#DejaVuSans-20" transform="translate(1169.230469 0)"/>
      <use xlink:href="#DejaVuSans-31" transform="translate(1201.017578 0)"/>
      <use xlink:href="#DejaVuSans-3a" transform="translate(1264.640625 0)"/>
      <use xlink:href="#DejaVuSans-34" transform="translate(1298.332031 0)"/>
     </g>
    </g>
    <g id="line2d_40">
     <path d="M 569.672441 167.9391 
L 579.672441 167.9391 
L 589.672441 167.9391 
" style="fill: none; stroke: #feb078; stroke-width: 1.5; stroke-linecap: round"/>
    </g>
    <g id="text_31">
     <!-- Sequential Write-only -->
     <g style="fill: #262626" transform="translate(597.672441 171.4391) scale(0.1 -0.1)">
      <use xlink:href="#DejaVuSans-53"/>
      <use xlink:href="#DejaVuSans-65" transform="translate(63.476562 0)"/>
      <use xlink:href="#DejaVuSans-71" transform="translate(125 0)"/>
      <use xlink:href="#DejaVuSans-75" transform="translate(188.476562 0)"/>
      <use xlink:href="#DejaVuSans-65" transform="translate(251.855469 0)"/>
      <use xlink:href="#DejaVuSans-6e" transform="translate(313.378906 0)"/>
      <use xlink:href="#DejaVuSans-74" transform="translate(376.757812 0)"/>
      <use xlink:href="#DejaVuSans-69" transform="translate(415.966797 0)"/>
      <use xlink:href="#DejaVuSans-61" transform="translate(443.75 0)"/>
      <use xlink:href="#DejaVuSans-6c" transform="translate(505.029297 0)"/>
      <use xlink:href="#DejaVuSans-20" transform="translate(532.8125 0)"/>
      <use xlink:href="#DejaVuSans-57" transform="translate(564.599609 0)"/>
      <use xlink:href="#DejaVuSans-72" transform="translate(658.976562 0)"/>
      <use xlink:href="#DejaVuSans-69" transform="translate(700.089844 0)"/>
      <use xlink:href="#DejaVuSans-74" transform="translate(727.873047 0)"/>
      <use xlink:href="#DejaVuSans-65" transform="translate(767.082031 0)"/>
      <use xlink:href="#DejaVuSans-2d" transform="translate(828.605469 0)"/>
      <use xlink:href="#DejaVuSans-6f" transform="translate(866.564453 0)"/>
      <use xlink:href="#DejaVuSans-6e" transform="translate(927.746094 0)"/>
      <use xlink:href="#DejaVuSans-6c" transform="translate(991.125 0)"/>
      <use xlink:href="#DejaVuSans-79" transform="translate(1018.908203 0)"/>
     </g>
    </g>
    <g id="line2d_41">
     <path d="M 569.672441 182.617225 
L 579.672441 182.617225 
L 589.672441 182.617225 
" style="fill: none; stroke-dasharray: 7.5,7.5; stroke-dashoffset: 0; stroke: #2c115f; stroke-width: 1.5"/>
    </g>
    <g id="text_32">
     <!-- Random Read-only -->
     <g style="fill: #262626" transform="translate(597.672441 186.117225) scale(0.1 -0.1)">
      <use xlink:href="#DejaVuSans-52"/>
      <use xlink:href="#DejaVuSans-61" transform="translate(67.232422 0)"/>
      <use xlink:href="#DejaVuSans-6e" transform="translate(128.511719 0)"/>
      <use xlink:href="#DejaVuSans-64" transform="translate(191.890625 0)"/>
      <use xlink:href="#DejaVuSans-6f" transform="translate(255.367188 0)"/>
      <use xlink:href="#DejaVuSans-6d" transform="translate(316.548828 0)"/>
      <use xlink:href="#DejaVuSans-20" transform="translate(413.960938 0)"/>
      <use xlink:href="#DejaVuSans-52" transform="translate(445.748047 0)"/>
      <use xlink:href="#DejaVuSans-65" transform="translate(510.730469 0)"/>
      <use xlink:href="#DejaVuSans-61" transform="translate(572.253906 0)"/>
      <use xlink:href="#DejaVuSans-64" transform="translate(633.533203 0)"/>
      <use xlink:href="#DejaVuSans-2d" transform="translate(697.009766 0)"/>
      <use xlink:href="#DejaVuSans-6f" transform="translate(734.96875 0)"/>
      <use xlink:href="#DejaVuSans-6e" transform="translate(796.150391 0)"/>
      <use xlink:href="#DejaVuSans-6c" transform="translate(859.529297 0)"/>
      <use xlink:href="#DejaVuSans-79" transform="translate(887.3125 0)"/>
     </g>
    </g>
    <g id="line2d_42">
     <path d="M 569.672441 197.29535 
L 579.672441 197.29535 
L 589.672441 197.29535 
" style="fill: none; stroke-dasharray: 7.5,7.5; stroke-dashoffset: 0; stroke: #721f81; stroke-width: 1.5"/>
    </g>
    <g id="text_33">
     <!-- Random Read-heavy 4:1 -->
     <g style="fill: #262626" transform="translate(597.672441 200.79535) scale(0.1 -0.1)">
      <use xlink:href="#DejaVuSans-52"/>
      <use xlink:href="#DejaVuSans-61" transform="translate(67.232422 0)"/>
      <use xlink:href="#DejaVuSans-6e" transform="translate(128.511719 0)"/>
      <use xlink:href="#DejaVuSans-64" transform="translate(191.890625 0)"/>
      <use xlink:href="#DejaVuSans-6f" transform="translate(255.367188 0)"/>
      <use xlink:href="#DejaVuSans-6d" transform="translate(316.548828 0)"/>
      <use xlink:href="#DejaVuSans-20" transform="translate(413.960938 0)"/>
      <use xlink:href="#DejaVuSans-52" transform="translate(445.748047 0)"/>
      <use xlink:href="#DejaVuSans-65" transform="translate(510.730469 0)"/>
      <use xlink:href="#DejaVuSans-61" transform="translate(572.253906 0)"/>
      <use xlink:href="#DejaVuSans-64" transform="translate(633.533203 0)"/>
      <use xlink:href="#DejaVuSans-2d" transform="translate(697.009766 0)"/>
      <use xlink:href="#DejaVuSans-68" transform="translate(733.09375 0)"/>
      <use xlink:href="#DejaVuSans-65" transform="translate(796.472656 0)"/>
      <use xlink:href="#DejaVuSans-61" transform="translate(857.996094 0)"/>
      <use xlink:href="#DejaVuSans-76" transform="translate(919.275391 0)"/>
      <use xlink:href="#DejaVuSans-79" transform="translate(978.455078 0)"/>
      <use xlink:href="#DejaVuSans-20" transform="translate(1037.634766 0)"/>
      <use xlink:href="#DejaVuSans-34" transform="translate(1069.421875 0)"/>
      <use xlink:href="#DejaVuSans-3a" transform="translate(1133.044922 0)"/>
      <use xlink:href="#DejaVuSans-31" transform="translate(1166.736328 0)"/>
     </g>
    </g>
    <g id="line2d_43">
     <path d="M 569.672441 211.973475 
L 579.672441 211.973475 
L 589.672441 211.973475 
" style="fill: none; stroke-dasharray: 7.5,7.5; stroke-dashoffset: 0; stroke: #b73779; stroke-width: 1.5"/>
    </g>
    <g id="text_34">
     <!-- Random Balanced 1:1 -->
     <g style="fill: #262626" transform="translate(597.672441 215.473475) scale(0.1 -0.1)">
      <use xlink:href="#DejaVuSans-52"/>
      <use xlink:href="#DejaVuSans-61" transform="translate(67.232422 0)"/>
      <use xlink:href="#DejaVuSans-6e" transform="translate(128.511719 0)"/>
      <use xlink:href="#DejaVuSans-64" transform="translate(191.890625 0)"/>
      <use xlink:href="#DejaVuSans-6f" transform="translate(255.367188 0)"/>
      <use xlink:href="#DejaVuSans-6d" transform="translate(316.548828 0)"/>
      <use xlink:href="#DejaVuSans-20" transform="translate(413.960938 0)"/>
      <use xlink:href="#DejaVuSans-42" transform="translate(445.748047 0)"/>
      <use xlink:href="#DejaVuSans-61" transform="translate(514.351562 0)"/>
      <use xlink:href="#DejaVuSans-6c" transform="translate(575.630859 0)"/>
      <use xlink:href="#DejaVuSans-61" transform="translate(603.414062 0)"/>
      <use xlink:href="#DejaVuSans-6e" transform="translate(664.693359 0)"/>
      <use xlink:href="#DejaVuSans-63" transform="translate(728.072266 0)"/>
      <use xlink:href="#DejaVuSans-65" transform="translate(783.052734 0)"/>
      <use xlink:href="#DejaVuSans-64" transform="translate(844.576172 0)"/>
      <use xlink:href="#DejaVuSans-20" transform="translate(908.052734 0)"/>
      <use xlink:href="#DejaVuSans-31" transform="translate(939.839844 0)"/>
      <use xlink:href="#DejaVuSans-3a" transform="translate(1003.462891 0)"/>
      <use xlink:href="#DejaVuSans-31" transform="translate(1037.154297 0)"/>
     </g>
    </g>
    <g id="line2d_44">
     <path d="M 569.672441 226.6516 
L 579.672441 226.6516 
L 589.672441 226.6516 
" style="fill: none; stroke-dasharray: 7.5,7.5; stroke-dashoffset: 0; stroke: #f1605d; stroke-width: 1.5"/>
    </g>
    <g id="text_35">
     <!-- Random Write-heavy 1:4 -->
     <g style="fill: #262626" transform="translate(597.672441 230.1516) scale(0.1 -0.1)">
      <use xlink:href="#DejaVuSans-52"/>
      <use xlink:href="#DejaVuSans-61" transform="translate(67.232422 0)"/>
      <use xlink:href="#DejaVuSans-6e" transform="translate(128.511719 0)"/>
      <use xlink:href="#DejaVuSans-64" transform="translate(191.890625 0)"/>
      <use xlink:href="#DejaVuSans-6f" transform="translate(255.367188 0)"/>
      <use xlink:href="#DejaVuSans-6d" transform="translate(316.548828 0)"/>
      <use xlink:href="#DejaVuSans-20" transform="translate(413.960938 0)"/>
      <use xlink:href="#DejaVuSans-57" transform="translate(445.748047 0)"/>
      <use xlink:href="#DejaVuSans-72" transform="translate(540.125 0)"/>
      <use xlink:href="#DejaVuSans-69" transform="translate(581.238281 0)"/>
      <use xlink:href="#DejaVuSans-74" transform="translate(609.021484 0)"/>
      <use xlink:href="#DejaVuSans-65" transform="translate(648.230469 0)"/>
      <use xlink:href="#DejaVuSans-2d" transform="translate(709.753906 0)"/>
      <use xlink:href="#DejaVuSans-68" transform="translate(745.837891 0)"/>
      <use xlink:href="#DejaVuSans-65" transform="translate(809.216797 0)"/>
      <use xlink:href="#DejaVuSans-61" transform="translate(870.740234 0)"/>
      <use xlink:href="#DejaVuSans-76" transform="translate(932.019531 0)"/>
      <use xlink:href="#DejaVuSans-79" transform="translate(991.199219 0)"/>
      <use xlink:href="#DejaVuSans-20" transform="translate(1050.378906 0)"/>
      <use xlink:href="#DejaVuSans-31" transform="translate(1082.166016 0)"/>
      <use xlink:href="#DejaVuSans-3a" transform="translate(1145.789062 0)"/>
      <use xlink:href="#DejaVuSans-34" transform="translate(1179.480469 0)"/>
     </g>
    </g>
    <g id="line2d_45">
     <path d="M 569.672441 241.329725 
L 579.672441 241.329725 
L 589.672441 241.329725 
" style="fill: none; stroke-dasharray: 7.5,7.5; stroke-dashoffset: 0; stroke: #feb078; stroke-width: 1.5"/>
    </g>
    <g id="text_36">
     <!-- Random Write-only -->
     <g style="fill: #262626" transform="translate(597.672441 244.829725) scale(0.1 -0.1)">
      <use xlink:href="#DejaVuSans-52"/>
      <use xlink:href="#DejaVuSans-61" transform="translate(67.232422 0)"/>
      <use xlink:href="#DejaVuSans-6e" transform="translate(128.511719 0)"/>
      <use xlink:href="#DejaVuSans-64" transform="translate(191.890625 0)"/>
      <use xlink:href="#DejaVuSans-6f" transform="translate(255.367188 0)"/>
      <use xlink:href="#DejaVuSans-6d" transform="translate(316.548828 0)"/>
      <use xlink:href="#DejaVuSans-20" transform="translate(413.960938 0)"/>
      <use xlink:href="#DejaVuSans-57" transform="translate(445.748047 0)"/>
      <use xlink:href="#DejaVuSans-72" transform="translate(540.125 0)"/>
      <use xlink:href="#DejaVuSans-69" transform="translate(581.238281 0)"/>
      <use xlink:href="#DejaVuSans-74" transform="translate(609.021484 0)"/>
      <use xlink:href="#DejaVuSans-65" transform="translate(648.230469 0)"/>
      <use xlink:href="#DejaVuSans-2d" transform="translate(709.753906 0)"/>
      <use xlink:href="#DejaVuSans-6f" transform="translate(747.712891 0)"/>
      <use xlink:href="#DejaVuSans-6e" transform="translate(808.894531 0)"/>
      <use xlink:href="#DejaVuSans-6c" transform="translate(872.273438 0)"/>
      <use xlink:href="#DejaVuSans-79" transform="translate(900.056641 0)"/>
     </g>
    </g>
   </g>
  </g>
 </g>
 <defs>
  <clipPath id="pb90ae56261">
   <rect x="53.328125" y="35.623725" width="357.12" height="266.112"/>
  </clipPath>
 </defs>
</svg>
