<?xml version="1.0" encoding="utf-8" standalone="no"?>
<!DOCTYPE svg PUBLIC "-//W3C//DTD SVG 1.1//EN"
  "http://www.w3.org/Graphics/SVG/1.1/DTD/svg11.dtd">
<svg xmlns:xlink="http://www.w3.org/1999/xlink" width="508.290625pt" height="339.291975pt" viewBox="0 0 508.290625 339.291975" xmlns="http://www.w3.org/2000/svg" version="1.1">
 <metadata>
  <rdf:RDF xmlns:dc="http://purl.org/dc/elements/1.1/" xmlns:cc="http://creativecommons.org/ns#" xmlns:rdf="http://www.w3.org/1999/02/22-rdf-syntax-ns#">
   <cc:Work>
    <dc:type rdf:resource="http://purl.org/dc/dcmitype/StillImage"/>
    <dc:date>2025-09-11T11:34:21.529780</dc:date>
    <dc:format>image/svg+xml</dc:format>
    <dc:creator>
     <cc:Agent>
      <dc:title>Matplotlib v3.10.6, https://matplotlib.org/</dc:title>
     </cc:Agent>
    </dc:creator>
   </cc:Work>
  </rdf:RDF>
 </metadata>
 <defs>
  <style type="text/css">*{stroke-linejoin: round; stroke-linecap: butt}</style>
 </defs>
 <g id="figure_1">
  <g id="patch_1">
   <path d="M 0 339.291975 
L 508.290625 339.291975 
L 508.290625 0 
L 0 0 
z
" style="fill: #ffffff"/>
  </g>
  <g id="axes_1">
   <g id="patch_2">
    <path d="M 59.690625 301.735725 
L 416.810625 301.735725 
L 416.810625 35.623725 
L 59.690625 35.623725 
z
" style="fill: #ffffff"/>
   </g>
   <g id="matplotlib.axis_1">
    <g id="xtick_1">
     <g id="line2d_1">
      <path d="M 122.302573 301.735725 
L 122.302573 35.623725 
" clip-path="url(#pda89bd2f13)" style="fill: none; stroke: #cccccc; stroke-width: 0.8; stroke-linecap: round"/>
     </g>
     <g id="text_1">
      <!-- 32 -->
      <g style="fill: #262626" transform="translate(115.940073 316.334162) scale(0.1 -0.1)">
       <defs>
        <path id="DejaVuSans-33" d="M 2597 2516 
Q 3050 2419 3304 2112 
Q 3559 1806 3559 1356 
Q 3559 666 3084 287 
Q 2609 -91 1734 -91 
Q 1441 -91 1130 -33 
Q 819 25 488 141 
L 488 750 
Q 750 597 1062 519 
Q 1375 441 1716 441 
Q 2309 441 2620 675 
Q 2931 909 2931 1356 
Q 2931 1769 2642 2001 
Q 2353 2234 1838 2234 
L 1294 2234 
L 1294 2753 
L 1863 2753 
Q 2328 2753 2575 2939 
Q 2822 3125 2822 3475 
Q 2822 3834 2567 4026 
Q 2313 4219 1838 4219 
Q 1578 4219 1281 4162 
Q 984 4106 628 3988 
L 628 4550 
Q 988 4650 1302 4700 
Q 1616 4750 1894 4750 
Q 2613 4750 3031 4423 
Q 3450 4097 3450 3541 
Q 3450 3153 3228 2886 
Q 3006 2619 2597 2516 
z
" transform="scale(0.015625)"/>
        <path id="DejaVuSans-32" d="M 1228 531 
L 3431 531 
L 3431 0 
L 469 0 
L 469 531 
Q 828 903 1448 1529 
Q 2069 2156 2228 2338 
Q 2531 2678 2651 2914 
Q 2772 3150 2772 3378 
Q 2772 3750 2511 3984 
Q 2250 4219 1831 4219 
Q 1534 4219 1204 4116 
Q 875 4013 500 3803 
L 500 4441 
Q 881 4594 1212 4672 
Q 1544 4750 1819 4750 
Q 2544 4750 2975 4387 
Q 3406 4025 3406 3419 
Q 3406 3131 3298 2873 
Q 3191 2616 2906 2266 
Q 2828 2175 2409 1742 
Q 1991 1309 1228 531 
z
" transform="scale(0.015625)"/>
       </defs>
       <use xlink:href="#DejaVuSans-33"/>
       <use xlink:href="#DejaVuSans-32" transform="translate(63.623047 0)"/>
      </g>
     </g>
    </g>
    <g id="xtick_2">
     <g id="line2d_2">
      <path d="M 75.923352 301.735725 
L 75.923352 35.623725 
" clip-path="url(#pda89bd2f13)" style="fill: none; stroke: #cccccc; stroke-width: 0.8; stroke-linecap: round"/>
     </g>
     <g id="text_2">
      <!-- 16 -->
      <g style="fill: #262626" transform="translate(69.560852 316.334162) scale(0.1 -0.1)">
       <defs>
        <path id="DejaVuSans-31" d="M 794 531 
L 1825 531 
L 1825 4091 
L 703 3866 
L 703 4441 
L 1819 4666 
L 2450 4666 
L 2450 531 
L 3481 531 
L 3481 0 
L 794 0 
L 794 531 
z
" transform="scale(0.015625)"/>
        <path id="DejaVuSans-36" d="M 2113 2584 
Q 1688 2584 1439 2293 
Q 1191 2003 1191 1497 
Q 1191 994 1439 701 
Q 1688 409 2113 409 
Q 2538 409 2786 701 
Q 3034 994 3034 1497 
Q 3034 2003 2786 2293 
Q 2538 2584 2113 2584 
z
M 3366 4563 
L 3366 3988 
Q 3128 4100 2886 4159 
Q 2644 4219 2406 4219 
Q 1781 4219 1451 3797 
Q 1122 3375 1075 2522 
Q 1259 2794 1537 2939 
Q 1816 3084 2150 3084 
Q 2853 3084 3261 2657 
Q 3669 2231 3669 1497 
Q 3669 778 3244 343 
Q 2819 -91 2113 -91 
Q 1303 -91 875 529 
Q 447 1150 447 2328 
Q 447 3434 972 4092 
Q 1497 4750 2381 4750 
Q 2619 4750 2861 4703 
Q 3103 4656 3366 4563 
z
" transform="scale(0.015625)"/>
       </defs>
       <use xlink:href="#DejaVuSans-31"/>
       <use xlink:href="#DejaVuSans-36" transform="translate(63.623047 0)"/>
      </g>
     </g>
    </g>
    <g id="xtick_3">
     <g id="line2d_3">
      <path d="M 215.061015 301.735725 
L 215.061015 35.623725 
" clip-path="url(#pda89bd2f13)" style="fill: none; stroke: #cccccc; stroke-width: 0.8; stroke-linecap: round"/>
     </g>
     <g id="text_3">
      <!-- 64 -->
      <g style="fill: #262626" transform="translate(208.698515 316.334162) scale(0.1 -0.1)">
       <defs>
        <path id="DejaVuSans-34" d="M 2419 4116 
L 825 1625 
L 2419 1625 
L 2419 4116 
z
M 2253 4666 
L 3047 4666 
L 3047 1625 
L 3713 1625 
L 3713 1100 
L 3047 1100 
L 3047 0 
L 2419 0 
L 2419 1100 
L 313 1100 
L 313 1709 
L 2253 4666 
z
" transform="scale(0.015625)"/>
       </defs>
       <use xlink:href="#DejaVuSans-36"/>
       <use xlink:href="#DejaVuSans-34" transform="translate(63.623047 0)"/>
      </g>
     </g>
    </g>
    <g id="xtick_4">
     <g id="line2d_4">
      <path d="M 400.577898 301.735725 
L 400.577898 35.623725 
" clip-path="url(#pda89bd2f13)" style="fill: none; stroke: #cccccc; stroke-width: 0.8; stroke-linecap: round"/>
     </g>
     <g id="text_4">
      <!-- 128 -->
      <g style="fill: #262626" transform="translate(391.034148 316.334162) scale(0.1 -0.1)">
       <defs>
        <path id="DejaVuSans-38" d="M 2034 2216 
Q 1584 2216 1326 1975 
Q 1069 1734 1069 1313 
Q 1069 891 1326 650 
Q 1584 409 2034 409 
Q 2484 409 2743 651 
Q 3003 894 3003 1313 
Q 3003 1734 2745 1975 
Q 2488 2216 2034 2216 
z
M 1403 2484 
Q 997 2584 770 2862 
Q 544 3141 544 3541 
Q 544 4100 942 4425 
Q 1341 4750 2034 4750 
Q 2731 4750 3128 4425 
Q 3525 4100 3525 3541 
Q 3525 3141 3298 2862 
Q 3072 2584 2669 2484 
Q 3125 2378 3379 2068 
Q 3634 1759 3634 1313 
Q 3634 634 3220 271 
Q 2806 -91 2034 -91 
Q 1263 -91 848 271 
Q 434 634 434 1313 
Q 434 1759 690 2068 
Q 947 2378 1403 2484 
z
M 1172 3481 
Q 1172 3119 1398 2916 
Q 1625 2713 2034 2713 
Q 2441 2713 2670 2916 
Q 2900 3119 2900 3481 
Q 2900 3844 2670 4047 
Q 2441 4250 2034 4250 
Q 1625 4250 1398 4047 
Q 1172 3844 1172 3481 
z
" transform="scale(0.015625)"/>
       </defs>
       <use xlink:href="#DejaVuSans-31"/>
       <use xlink:href="#DejaVuSans-32" transform="translate(63.623047 0)"/>
       <use xlink:href="#DejaVuSans-38" transform="translate(127.246094 0)"/>
      </g>
     </g>
    </g>
    <g id="text_5">
     <!-- Number of Jobs -->
     <g style="fill: #262626" transform="translate(199.85375 330.012287) scale(0.1 -0.1)">
      <defs>
       <path id="DejaVuSans-4e" d="M 628 4666 
L 1478 4666 
L 3547 763 
L 3547 4666 
L 4159 4666 
L 4159 0 
L 3309 0 
L 1241 3903 
L 1241 0 
L 628 0 
L 628 4666 
z
" transform="scale(0.015625)"/>
       <path id="DejaVuSans-75" d="M 544 1381 
L 544 3500 
L 1119 3500 
L 1119 1403 
Q 1119 906 1312 657 
Q 1506 409 1894 409 
Q 2359 409 2629 706 
Q 2900 1003 2900 1516 
L 2900 3500 
L 3475 3500 
L 3475 0 
L 2900 0 
L 2900 538 
Q 2691 219 2414 64 
Q 2138 -91 1772 -91 
Q 1169 -91 856 284 
Q 544 659 544 1381 
z
M 1991 3584 
L 1991 3584 
z
" transform="scale(0.015625)"/>
       <path id="DejaVuSans-6d" d="M 3328 2828 
Q 3544 3216 3844 3400 
Q 4144 3584 4550 3584 
Q 5097 3584 5394 3201 
Q 5691 2819 5691 2113 
L 5691 0 
L 5113 0 
L 5113 2094 
Q 5113 2597 4934 2840 
Q 4756 3084 4391 3084 
Q 3944 3084 3684 2787 
Q 3425 2491 3425 1978 
L 3425 0 
L 2847 0 
L 2847 2094 
Q 2847 2600 2669 2842 
Q 2491 3084 2119 3084 
Q 1678 3084 1418 2786 
Q 1159 2488 1159 1978 
L 1159 0 
L 581 0 
L 581 3500 
L 1159 3500 
L 1159 2956 
Q 1356 3278 1631 3431 
Q 1906 3584 2284 3584 
Q 2666 3584 2933 3390 
Q 3200 3197 3328 2828 
z
" transform="scale(0.015625)"/>
       <path id="DejaVuSans-62" d="M 3116 1747 
Q 3116 2381 2855 2742 
Q 2594 3103 2138 3103 
Q 1681 3103 1420 2742 
Q 1159 2381 1159 1747 
Q 1159 1113 1420 752 
Q 1681 391 2138 391 
Q 2594 391 2855 752 
Q 3116 1113 3116 1747 
z
M 1159 2969 
Q 1341 3281 1617 3432 
Q 1894 3584 2278 3584 
Q 2916 3584 3314 3078 
Q 3713 2572 3713 1747 
Q 3713 922 3314 415 
Q 2916 -91 2278 -91 
Q 1894 -91 1617 61 
Q 1341 213 1159 525 
L 1159 0 
L 581 0 
L 581 4863 
L 1159 4863 
L 1159 2969 
z
" transform="scale(0.015625)"/>
       <path id="DejaVuSans-65" d="M 3597 1894 
L 3597 1613 
L 953 1613 
Q 991 1019 1311 708 
Q 1631 397 2203 397 
Q 2534 397 2845 478 
Q 3156 559 3463 722 
L 3463 178 
Q 3153 47 2828 -22 
Q 2503 -91 2169 -91 
Q 1331 -91 842 396 
Q 353 884 353 1716 
Q 353 2575 817 3079 
Q 1281 3584 2069 3584 
Q 2775 3584 3186 3129 
Q 3597 2675 3597 1894 
z
M 3022 2063 
Q 3016 2534 2758 2815 
Q 2500 3097 2075 3097 
Q 1594 3097 1305 2825 
Q 1016 2553 972 2059 
L 3022 2063 
z
" transform="scale(0.015625)"/>
       <path id="DejaVuSans-72" d="M 2631 2963 
Q 2534 3019 2420 3045 
Q 2306 3072 2169 3072 
Q 1681 3072 1420 2755 
Q 1159 2438 1159 1844 
L 1159 0 
L 581 0 
L 581 3500 
L 1159 3500 
L 1159 2956 
Q 1341 3275 1631 3429 
Q 1922 3584 2338 3584 
Q 2397 3584 2469 3576 
Q 2541 3569 2628 3553 
L 2631 2963 
z
" transform="scale(0.015625)"/>
       <path id="DejaVuSans-20" transform="scale(0.015625)"/>
       <path id="DejaVuSans-6f" d="M 1959 3097 
Q 1497 3097 1228 2736 
Q 959 2375 959 1747 
Q 959 1119 1226 758 
Q 1494 397 1959 397 
Q 2419 397 2687 759 
Q 2956 1122 2956 1747 
Q 2956 2369 2687 2733 
Q 2419 3097 1959 3097 
z
M 1959 3584 
Q 2709 3584 3137 3096 
Q 3566 2609 3566 1747 
Q 3566 888 3137 398 
Q 2709 -91 1959 -91 
Q 1206 -91 779 398 
Q 353 888 353 1747 
Q 353 2609 779 3096 
Q 1206 3584 1959 3584 
z
" transform="scale(0.015625)"/>
       <path id="DejaVuSans-66" d="M 2375 4863 
L 2375 4384 
L 1825 4384 
Q 1516 4384 1395 4259 
Q 1275 4134 1275 3809 
L 1275 3500 
L 2222 3500 
L 2222 3053 
L 1275 3053 
L 1275 0 
L 697 0 
L 697 3053 
L 147 3053 
L 147 3500 
L 697 3500 
L 697 3744 
Q 697 4328 969 4595 
Q 1241 4863 1831 4863 
L 2375 4863 
z
" transform="scale(0.015625)"/>
       <path id="DejaVuSans-4a" d="M 628 4666 
L 1259 4666 
L 1259 325 
Q 1259 -519 939 -900 
Q 619 -1281 -91 -1281 
L -331 -1281 
L -331 -750 
L -134 -750 
Q 284 -750 456 -515 
Q 628 -281 628 325 
L 628 4666 
z
" transform="scale(0.015625)"/>
       <path id="DejaVuSans-73" d="M 2834 3397 
L 2834 2853 
Q 2591 2978 2328 3040 
Q 2066 3103 1784 3103 
Q 1356 3103 1142 2972 
Q 928 2841 928 2578 
Q 928 2378 1081 2264 
Q 1234 2150 1697 2047 
L 1894 2003 
Q 2506 1872 2764 1633 
Q 3022 1394 3022 966 
Q 3022 478 2636 193 
Q 2250 -91 1575 -91 
Q 1294 -91 989 -36 
Q 684 19 347 128 
L 347 722 
Q 666 556 975 473 
Q 1284 391 1588 391 
Q 1994 391 2212 530 
Q 2431 669 2431 922 
Q 2431 1156 2273 1281 
Q 2116 1406 1581 1522 
L 1381 1569 
Q 847 1681 609 1914 
Q 372 2147 372 2553 
Q 372 3047 722 3315 
Q 1072 3584 1716 3584 
Q 2034 3584 2315 3537 
Q 2597 3491 2834 3397 
z
" transform="scale(0.015625)"/>
      </defs>
      <use xlink:href="#DejaVuSans-4e"/>
      <use xlink:href="#DejaVuSans-75" transform="translate(74.804688 0)"/>
      <use xlink:href="#DejaVuSans-6d" transform="translate(138.183594 0)"/>
      <use xlink:href="#DejaVuSans-62" transform="translate(235.595703 0)"/>
      <use xlink:href="#DejaVuSans-65" transform="translate(299.072266 0)"/>
      <use xlink:href="#DejaVuSans-72" transform="translate(360.595703 0)"/>
      <use xlink:href="#DejaVuSans-20" transform="translate(401.708984 0)"/>
      <use xlink:href="#DejaVuSans-6f" transform="translate(433.496094 0)"/>
      <use xlink:href="#DejaVuSans-66" transform="translate(494.677734 0)"/>
      <use xlink:href="#DejaVuSans-20" transform="translate(529.882812 0)"/>
      <use xlink:href="#DejaVuSans-4a" transform="translate(561.669922 0)"/>
      <use xlink:href="#DejaVuSans-6f" transform="translate(591.162109 0)"/>
      <use xlink:href="#DejaVuSans-62" transform="translate(652.34375 0)"/>
      <use xlink:href="#DejaVuSans-73" transform="translate(715.820312 0)"/>
     </g>
    </g>
   </g>
   <g id="matplotlib.axis_2">
    <g id="ytick_1">
     <g id="line2d_5">
      <path d="M 59.690625 299.904573 
L 416.810625 299.904573 
" clip-path="url(#pda89bd2f13)" style="fill: none; stroke: #cccccc; stroke-width: 0.8; stroke-linecap: round"/>
     </g>
     <g id="text_6">
      <!-- 42000 -->
      <g style="fill: #262626" transform="translate(20.878125 303.703791) scale(0.1 -0.1)">
       <defs>
        <path id="DejaVuSans-30" d="M 2034 4250 
Q 1547 4250 1301 3770 
Q 1056 3291 1056 2328 
Q 1056 1369 1301 889 
Q 1547 409 2034 409 
Q 2525 409 2770 889 
Q 3016 1369 3016 2328 
Q 3016 3291 2770 3770 
Q 2525 4250 2034 4250 
z
M 2034 4750 
Q 2819 4750 3233 4129 
Q 3647 3509 3647 2328 
Q 3647 1150 3233 529 
Q 2819 -91 2034 -91 
Q 1250 -91 836 529 
Q 422 1150 422 2328 
Q 422 3509 836 4129 
Q 1250 4750 2034 4750 
z
" transform="scale(0.015625)"/>
       </defs>
       <use xlink:href="#DejaVuSans-34"/>
       <use xlink:href="#DejaVuSans-32" transform="translate(63.623047 0)"/>
       <use xlink:href="#DejaVuSans-30" transform="translate(127.246094 0)"/>
       <use xlink:href="#DejaVuSans-30" transform="translate(190.869141 0)"/>
       <use xlink:href="#DejaVuSans-30" transform="translate(254.492188 0)"/>
      </g>
     </g>
    </g>
    <g id="ytick_2">
     <g id="line2d_6">
      <path d="M 59.690625 262.78035 
L 416.810625 262.78035 
" clip-path="url(#pda89bd2f13)" style="fill: none; stroke: #cccccc; stroke-width: 0.8; stroke-linecap: round"/>
     </g>
     <g id="text_7">
      <!-- 44000 -->
      <g style="fill: #262626" transform="translate(20.878125 266.579568) scale(0.1 -0.1)">
       <use xlink:href="#DejaVuSans-34"/>
       <use xlink:href="#DejaVuSans-34" transform="translate(63.623047 0)"/>
       <use xlink:href="#DejaVuSans-30" transform="translate(127.246094 0)"/>
       <use xlink:href="#DejaVuSans-30" transform="translate(190.869141 0)"/>
       <use xlink:href="#DejaVuSans-30" transform="translate(254.492188 0)"/>
      </g>
     </g>
    </g>
    <g id="ytick_3">
     <g id="line2d_7">
      <path d="M 59.690625 225.656126 
L 416.810625 225.656126 
" clip-path="url(#pda89bd2f13)" style="fill: none; stroke: #cccccc; stroke-width: 0.8; stroke-linecap: round"/>
     </g>
     <g id="text_8">
      <!-- 46000 -->
      <g style="fill: #262626" transform="translate(20.878125 229.455345) scale(0.1 -0.1)">
       <use xlink:href="#DejaVuSans-34"/>
       <use xlink:href="#DejaVuSans-36" transform="translate(63.623047 0)"/>
       <use xlink:href="#DejaVuSans-30" transform="translate(127.246094 0)"/>
       <use xlink:href="#DejaVuSans-30" transform="translate(190.869141 0)"/>
       <use xlink:href="#DejaVuSans-30" transform="translate(254.492188 0)"/>
      </g>
     </g>
    </g>
    <g id="ytick_4">
     <g id="line2d_8">
      <path d="M 59.690625 188.531903 
L 416.810625 188.531903 
" clip-path="url(#pda89bd2f13)" style="fill: none; stroke: #cccccc; stroke-width: 0.8; stroke-linecap: round"/>
     </g>
     <g id="text_9">
      <!-- 48000 -->
      <g style="fill: #262626" transform="translate(20.878125 192.331122) scale(0.1 -0.1)">
       <use xlink:href="#DejaVuSans-34"/>
       <use xlink:href="#DejaVuSans-38" transform="translate(63.623047 0)"/>
       <use xlink:href="#DejaVuSans-30" transform="translate(127.246094 0)"/>
       <use xlink:href="#DejaVuSans-30" transform="translate(190.869141 0)"/>
       <use xlink:href="#DejaVuSans-30" transform="translate(254.492188 0)"/>
      </g>
     </g>
    </g>
    <g id="ytick_5">
     <g id="line2d_9">
      <path d="M 59.690625 151.40768 
L 416.810625 151.40768 
" clip-path="url(#pda89bd2f13)" style="fill: none; stroke: #cccccc; stroke-width: 0.8; stroke-linecap: round"/>
     </g>
     <g id="text_10">
      <!-- 50000 -->
      <g style="fill: #262626" transform="translate(20.878125 155.206899) scale(0.1 -0.1)">
       <defs>
        <path id="DejaVuSans-35" d="M 691 4666 
L 3169 4666 
L 3169 4134 
L 1269 4134 
L 1269 2991 
Q 1406 3038 1543 3061 
Q 1681 3084 1819 3084 
Q 2600 3084 3056 2656 
Q 3513 2228 3513 1497 
Q 3513 744 3044 326 
Q 2575 -91 1722 -91 
Q 1428 -91 1123 -41 
Q 819 9 494 109 
L 494 744 
Q 775 591 1075 516 
Q 1375 441 1709 441 
Q 2250 441 2565 725 
Q 2881 1009 2881 1497 
Q 2881 1984 2565 2268 
Q 2250 2553 1709 2553 
Q 1456 2553 1204 2497 
Q 953 2441 691 2322 
L 691 4666 
z
" transform="scale(0.015625)"/>
       </defs>
       <use xlink:href="#DejaVuSans-35"/>
       <use xlink:href="#DejaVuSans-30" transform="translate(63.623047 0)"/>
       <use xlink:href="#DejaVuSans-30" transform="translate(127.246094 0)"/>
       <use xlink:href="#DejaVuSans-30" transform="translate(190.869141 0)"/>
       <use xlink:href="#DejaVuSans-30" transform="translate(254.492188 0)"/>
      </g>
     </g>
    </g>
    <g id="ytick_6">
     <g id="line2d_10">
      <path d="M 59.690625 114.283457 
L 416.810625 114.283457 
" clip-path="url(#pda89bd2f13)" style="fill: none; stroke: #cccccc; stroke-width: 0.8; stroke-linecap: round"/>
     </g>
     <g id="text_11">
      <!-- 52000 -->
      <g style="fill: #262626" transform="translate(20.878125 118.082676) scale(0.1 -0.1)">
       <use xlink:href="#DejaVuSans-35"/>
       <use xlink:href="#DejaVuSans-32" transform="translate(63.623047 0)"/>
       <use xlink:href="#DejaVuSans-30" transform="translate(127.246094 0)"/>
       <use xlink:href="#DejaVuSans-30" transform="translate(190.869141 0)"/>
       <use xlink:href="#DejaVuSans-30" transform="translate(254.492188 0)"/>
      </g>
     </g>
    </g>
    <g id="ytick_7">
     <g id="line2d_11">
      <path d="M 59.690625 77.159234 
L 416.810625 77.159234 
" clip-path="url(#pda89bd2f13)" style="fill: none; stroke: #cccccc; stroke-width: 0.8; stroke-linecap: round"/>
     </g>
     <g id="text_12">
      <!-- 54000 -->
      <g style="fill: #262626" transform="translate(20.878125 80.958453) scale(0.1 -0.1)">
       <use xlink:href="#DejaVuSans-35"/>
       <use xlink:href="#DejaVuSans-34" transform="translate(63.623047 0)"/>
       <use xlink:href="#DejaVuSans-30" transform="translate(127.246094 0)"/>
       <use xlink:href="#DejaVuSans-30" transform="translate(190.869141 0)"/>
       <use xlink:href="#DejaVuSans-30" transform="translate(254.492188 0)"/>
      </g>
     </g>
    </g>
    <g id="ytick_8">
     <g id="line2d_12">
      <path d="M 59.690625 40.035011 
L 416.810625 40.035011 
" clip-path="url(#pda89bd2f13)" style="fill: none; stroke: #cccccc; stroke-width: 0.8; stroke-linecap: round"/>
     </g>
     <g id="text_13">
      <!-- 56000 -->
      <g style="fill: #262626" transform="translate(20.878125 43.83423) scale(0.1 -0.1)">
       <use xlink:href="#DejaVuSans-35"/>
       <use xlink:href="#DejaVuSans-36" transform="translate(63.623047 0)"/>
       <use xlink:href="#DejaVuSans-30" transform="translate(127.246094 0)"/>
       <use xlink:href="#DejaVuSans-30" transform="translate(190.869141 0)"/>
       <use xlink:href="#DejaVuSans-30" transform="translate(254.492188 0)"/>
      </g>
     </g>
    </g>
    <g id="text_14">
     <!-- IOPS -->
     <g style="fill: #262626" transform="translate(14.798438 180.279725) rotate(-90) scale(0.1 -0.1)">
      <defs>
       <path id="DejaVuSans-49" d="M 628 4666 
L 1259 4666 
L 1259 0 
L 628 0 
L 628 4666 
z
" transform="scale(0.015625)"/>
       <path id="DejaVuSans-4f" d="M 2522 4238 
Q 1834 4238 1429 3725 
Q 1025 3213 1025 2328 
Q 1025 1447 1429 934 
Q 1834 422 2522 422 
Q 3209 422 3611 934 
Q 4013 1447 4013 2328 
Q 4013 3213 3611 3725 
Q 3209 4238 2522 4238 
z
M 2522 4750 
Q 3503 4750 4090 4092 
Q 4678 3434 4678 2328 
Q 4678 1225 4090 567 
Q 3503 -91 2522 -91 
Q 1538 -91 948 565 
Q 359 1222 359 2328 
Q 359 3434 948 4092 
Q 1538 4750 2522 4750 
z
" transform="scale(0.015625)"/>
       <path id="DejaVuSans-50" d="M 1259 4147 
L 1259 2394 
L 2053 2394 
Q 2494 2394 2734 2622 
Q 2975 2850 2975 3272 
Q 2975 3691 2734 3919 
Q 2494 4147 2053 4147 
L 1259 4147 
z
M 628 4666 
L 2053 4666 
Q 2838 4666 3239 4311 
Q 3641 3956 3641 3272 
Q 3641 2581 3239 2228 
Q 2838 1875 2053 1875 
L 1259 1875 
L 1259 0 
L 628 0 
L 628 4666 
z
" transform="scale(0.015625)"/>
       <path id="DejaVuSans-53" d="M 3425 4513 
L 3425 3897 
Q 3066 4069 2747 4153 
Q 2428 4238 2131 4238 
Q 1616 4238 1336 4038 
Q 1056 3838 1056 3469 
Q 1056 3159 1242 3001 
Q 1428 2844 1947 2747 
L 2328 2669 
Q 3034 2534 3370 2195 
Q 3706 1856 3706 1288 
Q 3706 609 3251 259 
Q 2797 -91 1919 -91 
Q 1588 -91 1214 -16 
Q 841 59 441 206 
L 441 856 
Q 825 641 1194 531 
Q 1563 422 1919 422 
Q 2459 422 2753 634 
Q 3047 847 3047 1241 
Q 3047 1584 2836 1778 
Q 2625 1972 2144 2069 
L 1759 2144 
Q 1053 2284 737 2584 
Q 422 2884 422 3419 
Q 422 4038 858 4394 
Q 1294 4750 2059 4750 
Q 2388 4750 2728 4690 
Q 3069 4631 3425 4513 
z
" transform="scale(0.015625)"/>
      </defs>
      <use xlink:href="#DejaVuSans-49"/>
      <use xlink:href="#DejaVuSans-4f" transform="translate(29.492188 0)"/>
      <use xlink:href="#DejaVuSans-50" transform="translate(108.203125 0)"/>
      <use xlink:href="#DejaVuSans-53" transform="translate(168.505859 0)"/>
     </g>
    </g>
   </g>
   <g id="FillBetweenPolyCollection_1"/>
   <g id="FillBetweenPolyCollection_2"/>
   <g id="FillBetweenPolyCollection_3"/>
   <g id="FillBetweenPolyCollection_4"/>
   <g id="FillBetweenPolyCollection_5"/>
   <g id="FillBetweenPolyCollection_6"/>
   <g id="FillBetweenPolyCollection_7"/>
   <g id="line2d_13">
    <path d="M 75.923352 83.526038 
L 122.302573 161.004292 
L 215.061015 163.97423 
L 400.577898 189.367198 
" clip-path="url(#pda89bd2f13)" style="fill: none; stroke: #4c02a1; stroke-width: 1.5; stroke-linecap: round"/>
   </g>
   <g id="line2d_14">
    <path d="M 75.923352 171.046394 
L 122.302573 194.843021 
L 215.061015 167.705214 
L 400.577898 176.819211 
" clip-path="url(#pda89bd2f13)" style="fill: none; stroke: #7e03a8; stroke-width: 1.5; stroke-linecap: round"/>
   </g>
   <g id="line2d_15">
    <path d="M 75.923352 47.719725 
L 122.302573 203.604338 
L 215.061015 220.718605 
L 400.577898 270.594999 
" clip-path="url(#pda89bd2f13)" style="fill: none; stroke: #aa2395; stroke-width: 1.5; stroke-linecap: round"/>
   </g>
   <g id="line2d_16">
    <path d="M 75.923352 210.936372 
L 122.302573 167.259723 
L 215.061015 240.023201 
L 400.577898 182.406407 
" clip-path="url(#pda89bd2f13)" style="fill: none; stroke: #cc4778; stroke-width: 1.5; stroke-linecap: round"/>
   </g>
   <g id="line2d_17">
    <path d="M 75.923352 289.639725 
L 122.302573 198.369822 
L 215.061015 220.570108 
L 400.577898 169.227307 
" clip-path="url(#pda89bd2f13)" style="fill: none; stroke: #e66c5c; stroke-width: 1.5; stroke-linecap: round"/>
   </g>
   <g id="line2d_18">
    <path d="M 75.923352 167.166913 
L 122.302573 169.097373 
L 215.061015 197.348906 
L 400.577898 211.88304 
" clip-path="url(#pda89bd2f13)" style="fill: none; stroke: #f89540; stroke-width: 1.5; stroke-linecap: round"/>
   </g>
   <g id="line2d_19">
    <path d="M 75.923352 88.036631 
L 122.302573 196.699232 
L 215.061015 230.092471 
L 400.577898 187.863667 
" clip-path="url(#pda89bd2f13)" style="fill: none; stroke: #fdc527; stroke-width: 1.5; stroke-linecap: round"/>
   </g>
   <g id="line2d_20"/>
   <g id="line2d_21"/>
   <g id="line2d_22"/>
   <g id="line2d_23"/>
   <g id="line2d_24"/>
   <g id="line2d_25"/>
   <g id="line2d_26"/>
   <g id="text_15">
    <path d="M 115.070176 152.679344 
L 115.897583 154.061559 
L 120.670313 151.204557 
L 119.468229 149.880912 
L 120.239105 149.419458 
L 121.436374 150.73506 
L 121.94277 151.581013 
L 116.399164 154.899468 
L 117.22657 156.281683 
L 116.514683 156.707825 
L 114.358289 153.105487 
L 115.070176 152.679344 
z
" clip-path="url(#pda89bd2f13)" style="fill: #4c02a1; stroke: #ffffff; stroke-width: 5"/>
    <path d="M 115.070176 152.679344 
L 115.897583 154.061559 
L 120.670313 151.204557 
L 119.468229 149.880912 
L 120.239105 149.419458 
L 121.436374 150.73506 
L 121.94277 151.581013 
L 116.399164 154.899468 
L 117.22657 156.281683 
L 116.514683 156.707825 
L 114.358289 153.105487 
L 115.070176 152.679344 
z
" clip-path="url(#pda89bd2f13)" style="fill: #4c02a1"/>
   </g>
   <g id="text_16">
    <path d="M 157.441946 180.736702 
L 156.144426 185.171651 
L 158.534849 184.472299 
L 157.441946 180.736702 
z
M 156.951699 179.984732 
L 158.142411 179.636372 
L 159.476621 184.19677 
L 160.47538 183.904569 
L 160.705718 184.691879 
L 159.70696 184.98408 
L 160.189574 186.633681 
L 159.247802 186.90921 
L 158.765187 185.259609 
L 155.60695 186.183596 
L 155.339758 185.270317 
L 156.951699 179.984732 
z
" clip-path="url(#pda89bd2f13)" style="fill: #7e03a8; stroke: #ffffff; stroke-width: 5"/>
    <path d="M 157.441946 180.736702 
L 156.144426 185.171651 
L 158.534849 184.472299 
L 157.441946 180.736702 
z
M 156.951699 179.984732 
L 158.142411 179.636372 
L 159.476621 184.19677 
L 160.47538 183.904569 
L 160.705718 184.691879 
L 159.70696 184.98408 
L 160.189574 186.633681 
L 159.247802 186.90921 
L 158.765187 185.259609 
L 155.60695 186.183596 
L 155.339758 185.270317 
L 156.951699 179.984732 
z
" clip-path="url(#pda89bd2f13)" style="fill: #7e03a8"/>
   </g>
   <g id="text_17">
    <path d="M 198.199128 216.892533 
Q 197.507673 216.764957 197.042916 217.062126 
Q 196.579694 217.359578 196.46034 218.006472 
Q 196.340702 218.654903 196.667276 219.098075 
Q 196.995385 219.541531 197.68684 219.669107 
Q 198.378294 219.796683 198.844872 219.498261 
Q 199.31327 219.198586 199.432057 218.554765 
Q 199.551412 217.907871 199.223302 217.464415 
Q 198.896728 217.021243 198.199128 216.892533 
z
M 197.305533 216.301844 
Q 196.710038 216.033086 196.440051 215.541566 
Q 196.171885 215.048793 196.285285 214.434166 
Q 196.443763 213.575226 197.147454 213.188676 
Q 197.852682 212.80241 198.917521 212.998877 
Q 199.988507 213.196478 200.506386 213.808411 
Q 201.024264 214.420345 200.865787 215.279285 
Q 200.752386 215.893912 200.324488 216.258258 
Q 199.898411 216.621352 199.250825 216.660757 
Q 199.921448 216.95291 200.22385 217.501255 
Q 200.528072 218.048347 200.40163 218.733655 
Q 200.209132 219.776983 199.470083 220.217386 
Q 198.731317 220.656253 197.545089 220.437389 
Q 196.360397 220.21881 195.82535 219.54492 
Q 195.292123 218.869777 195.484621 217.826449 
Q 195.611063 217.141141 196.092026 216.738918 
Q 196.574809 216.335443 197.305533 216.301844 
z
M 197.233238 214.7044 
Q 197.130611 215.260636 197.420323 215.63663 
Q 197.711573 216.012908 198.340028 216.12886 
Q 198.96541 216.244246 199.374835 215.997245 
Q 199.785795 215.750527 199.888423 215.194291 
Q 199.991334 214.636518 199.695475 214.259389 
Q 199.401153 213.882545 198.77577 213.767159 
Q 198.147315 213.651207 197.740964 213.898775 
Q 197.336149 214.146626 197.233238 214.7044 
z
" clip-path="url(#pda89bd2f13)" style="fill: #aa2395; stroke: #ffffff; stroke-width: 5"/>
    <path d="M 198.199128 216.892533 
Q 197.507673 216.764957 197.042916 217.062126 
Q 196.579694 217.359578 196.46034 218.006472 
Q 196.340702 218.654903 196.667276 219.098075 
Q 196.995385 219.541531 197.68684 219.669107 
Q 198.378294 219.796683 198.844872 219.498261 
Q 199.31327 219.198586 199.432057 218.554765 
Q 199.551412 217.907871 199.223302 217.464415 
Q 198.896728 217.021243 198.199128 216.892533 
z
M 197.305533 216.301844 
Q 196.710038 216.033086 196.440051 215.541566 
Q 196.171885 215.048793 196.285285 214.434166 
Q 196.443763 213.575226 197.147454 213.188676 
Q 197.852682 212.80241 198.917521 212.998877 
Q 199.988507 213.196478 200.506386 213.808411 
Q 201.024264 214.420345 200.865787 215.279285 
Q 200.752386 215.893912 200.324488 216.258258 
Q 199.898411 216.621352 199.250825 216.660757 
Q 199.921448 216.95291 200.22385 217.501255 
Q 200.528072 218.048347 200.40163 218.733655 
Q 200.209132 219.776983 199.470083 220.217386 
Q 198.731317 220.656253 197.545089 220.437389 
Q 196.360397 220.21881 195.82535 219.54492 
Q 195.292123 218.869777 195.484621 217.826449 
Q 195.611063 217.141141 196.092026 216.738918 
Q 196.574809 216.335443 197.305533 216.301844 
z
M 197.233238 214.7044 
Q 197.130611 215.260636 197.420323 215.63663 
Q 197.711573 216.012908 198.340028 216.12886 
Q 198.96541 216.244246 199.374835 215.997245 
Q 199.785795 215.750527 199.888423 215.194291 
Q 199.991334 214.636518 199.695475 214.259389 
Q 199.401153 213.882545 198.77577 213.767159 
Q 198.147315 213.651207 197.740964 213.898775 
Q 197.336149 214.146626 197.233238 214.7044 
z
" clip-path="url(#pda89bd2f13)" style="fill: #aa2395"/>
   </g>
   <g id="text_18">
    <path d="M 233.931568 236.183101 
L 235.470016 235.705298 
L 233.820183 230.393099 
L 232.250218 231.248818 
L 231.983743 230.390808 
L 233.544754 229.53787 
L 234.486327 229.245442 
L 236.402635 235.415651 
L 237.941084 234.937848 
L 238.187169 235.730201 
L 234.177652 236.975454 
L 233.931568 236.183101 
z
M 241.024347 230.621307 
Q 240.390166 230.818267 240.15347 231.36789 
Q 239.917803 231.915558 240.152302 232.670606 
Q 240.38541 233.421178 240.89126 233.743458 
Q 241.398139 234.063782 242.03232 233.866821 
Q 242.666501 233.669861 242.901241 233.119209 
Q 243.135518 232.567065 242.902409 231.816493 
Q 242.667911 231.061445 242.163451 230.743642 
Q 241.658528 230.424346 241.024347 230.621307 
z
M 241.976921 227.087576 
L 242.243397 227.945585 
Q 241.836351 227.888758 241.447898 227.91287 
Q 241.058982 227.93549 240.70384 228.045788 
Q 239.771221 228.335436 239.474368 229.118074 
Q 239.179008 229.900249 239.504186 231.194869 
Q 239.652694 230.703721 240.000325 230.358518 
Q 240.349448 230.012852 240.84784 229.858064 
Q 241.89685 229.532269 242.703551 229.980352 
Q 243.509788 230.426943 243.849951 231.522211 
Q 244.183161 232.595096 243.750575 233.44116 
Q 243.317525 234.285731 242.264039 234.612917 
Q 241.055364 234.9883 240.129376 234.261493 
Q 239.202924 233.533193 238.656997 231.775392 
Q 238.144436 230.125029 238.622895 228.899864 
Q 239.101354 227.674698 240.420451 227.265021 
Q 240.775592 227.154723 241.158484 227.112704 
Q 241.541376 227.070686 241.976921 227.087576 
z
" clip-path="url(#pda89bd2f13)" style="fill: #cc4778; stroke: #ffffff; stroke-width: 5"/>
    <path d="M 233.931568 236.183101 
L 235.470016 235.705298 
L 233.820183 230.393099 
L 232.250218 231.248818 
L 231.983743 230.390808 
L 233.544754 229.53787 
L 234.486327 229.245442 
L 236.402635 235.415651 
L 237.941084 234.937848 
L 238.187169 235.730201 
L 234.177652 236.975454 
L 233.931568 236.183101 
z
M 241.024347 230.621307 
Q 240.390166 230.818267 240.15347 231.36789 
Q 239.917803 231.915558 240.152302 232.670606 
Q 240.38541 233.421178 240.89126 233.743458 
Q 241.398139 234.063782 242.03232 233.866821 
Q 242.666501 233.669861 242.901241 233.119209 
Q 243.135518 232.567065 242.902409 231.816493 
Q 242.667911 231.061445 242.163451 230.743642 
Q 241.658528 230.424346 241.024347 230.621307 
z
M 241.976921 227.087576 
L 242.243397 227.945585 
Q 241.836351 227.888758 241.447898 227.91287 
Q 241.058982 227.93549 240.70384 228.045788 
Q 239.771221 228.335436 239.474368 229.118074 
Q 239.179008 229.900249 239.504186 231.194869 
Q 239.652694 230.703721 240.000325 230.358518 
Q 240.349448 230.012852 240.84784 229.858064 
Q 241.89685 229.532269 242.703551 229.980352 
Q 243.509788 230.426943 243.849951 231.522211 
Q 244.183161 232.595096 243.750575 233.44116 
Q 243.317525 234.285731 242.264039 234.612917 
Q 241.055364 234.9883 240.129376 234.261493 
Q 239.202924 233.533193 238.656997 231.775392 
Q 238.144436 230.125029 238.622895 228.899864 
Q 239.101354 227.674698 240.420451 227.265021 
Q 240.775592 227.154723 241.158484 227.112704 
Q 241.541376 227.070686 241.976921 227.087576 
z
" clip-path="url(#pda89bd2f13)" style="fill: #cc4778"/>
   </g>
   <g id="text_19">
    <path d="M 275.89286 202.51864 
Q 276.615455 202.475917 277.125899 202.832368 
Q 277.637431 203.186897 277.824975 203.864549 
Q 278.112542 204.903615 277.555197 205.672311 
Q 276.997434 206.439502 275.679778 206.80417 
Q 275.238551 206.926282 274.746046 206.968554 
Q 274.253541 207.010826 273.706746 206.974091 
L 273.452936 206.057002 
Q 273.911245 206.178212 274.413592 206.165641 
Q 274.917444 206.152654 275.430953 206.010537 
Q 276.323948 205.763396 276.694758 205.281403 
Q 277.065568 204.799411 276.879274 204.126276 
Q 276.707151 203.504343 276.175258 203.27542 
Q 275.642949 203.044992 274.867414 203.259625 
L 274.048208 203.486345 
L 273.831908 202.704787 
L 274.688761 202.467648 
Q 275.389001 202.273853 275.683439 201.890816 
Q 275.977876 201.507779 275.832009 200.980716 
Q 275.682391 200.440101 275.218369 200.257244 
Q 274.755437 200.072465 274.040138 200.270428 
Q 273.648605 200.378786 273.225111 200.588401 
Q 272.801199 200.79651 272.314279 201.122574 
L 272.080058 200.276262 
Q 272.580503 199.975637 273.032515 199.769479 
Q 273.484528 199.56332 273.903166 199.44746 
Q 274.985903 199.147806 275.751648 199.466026 
Q 276.518482 199.782323 276.750203 200.6196 
Q 276.911908 201.203886 276.688875 201.698481 
Q 276.465843 202.193076 275.89286 202.51864 
z
M 280.790377 204.381376 
L 284.10786 203.463245 
L 284.329161 204.262874 
L 279.868706 205.497329 
L 279.647404 204.6977 
Q 280.032984 203.98789 280.705743 202.786807 
Q 281.379592 201.583802 281.543178 201.243463 
Q 281.857763 200.60518 281.940114 200.199778 
Q 282.023971 199.793959 281.928949 199.450615 
Q 281.773913 198.890423 281.283352 198.646819 
Q 280.792374 198.40171 280.161405 198.576334 
Q 279.714155 198.700113 279.260137 198.992752 
Q 278.807624 199.284974 278.330435 199.757498 
L 278.064539 198.796739 
Q 278.57452 198.40755 279.040463 198.152141 
Q 279.507912 197.896316 279.922032 197.781706 
Q 281.013805 197.479552 281.81413 197.846566 
Q 282.614039 198.212074 282.866598 199.124645 
Q 282.986626 199.558342 282.931514 199.991873 
Q 282.877492 200.423481 282.59418 201.069322 
Q 282.514646 201.238866 282.064136 202.065541 
Q 281.615131 202.891801 280.790377 204.381376 
z
" clip-path="url(#pda89bd2f13)" style="fill: #e66c5c; stroke: #ffffff; stroke-width: 5"/>
    <path d="M 275.89286 202.51864 
Q 276.615455 202.475917 277.125899 202.832368 
Q 277.637431 203.186897 277.824975 203.864549 
Q 278.112542 204.903615 277.555197 205.672311 
Q 276.997434 206.439502 275.679778 206.80417 
Q 275.238551 206.926282 274.746046 206.968554 
Q 274.253541 207.010826 273.706746 206.974091 
L 273.452936 206.057002 
Q 273.911245 206.178212 274.413592 206.165641 
Q 274.917444 206.152654 275.430953 206.010537 
Q 276.323948 205.763396 276.694758 205.281403 
Q 277.065568 204.799411 276.879274 204.126276 
Q 276.707151 203.504343 276.175258 203.27542 
Q 275.642949 203.044992 274.867414 203.259625 
L 274.048208 203.486345 
L 273.831908 202.704787 
L 274.688761 202.467648 
Q 275.389001 202.273853 275.683439 201.890816 
Q 275.977876 201.507779 275.832009 200.980716 
Q 275.682391 200.440101 275.218369 200.257244 
Q 274.755437 200.072465 274.040138 200.270428 
Q 273.648605 200.378786 273.225111 200.588401 
Q 272.801199 200.79651 272.314279 201.122574 
L 272.080058 200.276262 
Q 272.580503 199.975637 273.032515 199.769479 
Q 273.484528 199.56332 273.903166 199.44746 
Q 274.985903 199.147806 275.751648 199.466026 
Q 276.518482 199.782323 276.750203 200.6196 
Q 276.911908 201.203886 276.688875 201.698481 
Q 276.465843 202.193076 275.89286 202.51864 
z
M 280.790377 204.381376 
L 284.10786 203.463245 
L 284.329161 204.262874 
L 279.868706 205.497329 
L 279.647404 204.6977 
Q 280.032984 203.98789 280.705743 202.786807 
Q 281.379592 201.583802 281.543178 201.243463 
Q 281.857763 200.60518 281.940114 200.199778 
Q 282.023971 199.793959 281.928949 199.450615 
Q 281.773913 198.890423 281.283352 198.646819 
Q 280.792374 198.40171 280.161405 198.576334 
Q 279.714155 198.700113 279.260137 198.992752 
Q 278.807624 199.284974 278.330435 199.757498 
L 278.064539 198.796739 
Q 278.57452 198.40755 279.040463 198.152141 
Q 279.507912 197.896316 279.922032 197.781706 
Q 281.013805 197.479552 281.81413 197.846566 
Q 282.614039 198.212074 282.866598 199.124645 
Q 282.986626 199.558342 282.931514 199.991873 
Q 282.877492 200.423481 282.59418 201.069322 
Q 282.514646 201.238866 282.064136 202.065541 
Q 281.615131 202.891801 280.790377 204.381376 
z
" clip-path="url(#pda89bd2f13)" style="fill: #e66c5c"/>
   </g>
   <g id="text_20">
    <path d="M 315.650866 203.947475 
Q 314.988832 203.895609 314.565445 204.31852 
Q 314.143737 204.739995 314.081986 205.528205 
Q 314.0206 206.311742 314.371159 206.798421 
Q 314.723398 207.283665 315.385432 207.335531 
Q 316.047466 207.387398 316.469417 206.962807 
Q 316.891491 206.536659 316.952876 205.753122 
Q 317.014628 204.964912 316.663703 204.482906 
Q 316.3129 203.999342 315.650866 203.947475 
z
M 317.844212 201.017648 
L 317.774039 201.913341 
Q 317.416969 201.709831 317.047199 201.588392 
Q 316.677552 201.465395 316.306813 201.436349 
Q 315.333233 201.360075 314.767683 201.977163 
Q 314.203691 202.594373 314.026379 203.917379 
Q 314.346195 203.516132 314.796939 203.324188 
Q 315.24924 203.132367 315.769521 203.173127 
Q 316.864603 203.258921 317.448045 203.973862 
Q 318.031609 204.687245 317.942033 205.830616 
Q 317.854287 206.950622 317.139166 207.576367 
Q 316.424168 208.200554 315.324413 208.114395 
Q 314.062654 208.015543 313.471611 206.99752 
Q 312.88069 205.97794 313.024451 204.142937 
Q 313.159426 202.420091 314.057533 201.459177 
Q 314.955641 200.498263 316.332672 200.606145 
Q 316.703411 200.635191 317.074645 200.737937 
Q 317.445879 200.840684 317.844212 201.017648 
z
M 322.657362 202.095307 
L 319.870347 205.781076 
L 322.353364 205.975605 
L 322.657362 202.095307 
z
M 322.465901 201.218299 
L 323.702736 201.315198 
L 323.331616 206.052245 
L 324.369063 206.133523 
L 324.304992 206.951329 
L 323.267546 206.870052 
L 323.133304 208.583551 
L 322.155051 208.506911 
L 322.289294 206.793412 
L 319.008721 206.536398 
L 319.083043 205.587743 
L 322.465901 201.218299 
z
" clip-path="url(#pda89bd2f13)" style="fill: #f89540; stroke: #ffffff; stroke-width: 5"/>
    <path d="M 315.650866 203.947475 
Q 314.988832 203.895609 314.565445 204.31852 
Q 314.143737 204.739995 314.081986 205.528205 
Q 314.0206 206.311742 314.371159 206.798421 
Q 314.723398 207.283665 315.385432 207.335531 
Q 316.047466 207.387398 316.469417 206.962807 
Q 316.891491 206.536659 316.952876 205.753122 
Q 317.014628 204.964912 316.663703 204.482906 
Q 316.3129 203.999342 315.650866 203.947475 
z
M 317.844212 201.017648 
L 317.774039 201.913341 
Q 317.416969 201.709831 317.047199 201.588392 
Q 316.677552 201.465395 316.306813 201.436349 
Q 315.333233 201.360075 314.767683 201.977163 
Q 314.203691 202.594373 314.026379 203.917379 
Q 314.346195 203.516132 314.796939 203.324188 
Q 315.24924 203.132367 315.769521 203.173127 
Q 316.864603 203.258921 317.448045 203.973862 
Q 318.031609 204.687245 317.942033 205.830616 
Q 317.854287 206.950622 317.139166 207.576367 
Q 316.424168 208.200554 315.324413 208.114395 
Q 314.062654 208.015543 313.471611 206.99752 
Q 312.88069 205.97794 313.024451 204.142937 
Q 313.159426 202.420091 314.057533 201.459177 
Q 314.955641 200.498263 316.332672 200.606145 
Q 316.703411 200.635191 317.074645 200.737937 
Q 317.445879 200.840684 317.844212 201.017648 
z
M 322.657362 202.095307 
L 319.870347 205.781076 
L 322.353364 205.975605 
L 322.657362 202.095307 
z
M 322.465901 201.218299 
L 323.702736 201.315198 
L 323.331616 206.052245 
L 324.369063 206.133523 
L 324.304992 206.951329 
L 323.267546 206.870052 
L 323.133304 208.583551 
L 322.155051 208.506911 
L 322.289294 206.793412 
L 319.008721 206.536398 
L 319.083043 205.587743 
L 322.465901 201.218299 
z
" clip-path="url(#pda89bd2f13)" style="fill: #f89540"/>
   </g>
   <g id="text_21">
    <path d="M 351.110892 201.102783 
L 352.681649 200.745235 
L 351.44705 195.321475 
L 349.815681 196.053376 
L 349.616273 195.177347 
L 351.238501 194.447527 
L 352.199847 194.228698 
L 353.633854 200.528487 
L 355.204611 200.170939 
L 355.388761 200.979932 
L 351.295041 201.911777 
L 351.110892 201.102783 
z
M 357.975719 199.540157 
L 361.332051 198.776163 
L 361.5162 199.585156 
L 357.00351 200.61237 
L 356.819361 199.803377 
Q 357.237299 199.112124 357.964791 197.943381 
Q 358.69346 196.772768 358.872584 196.440345 
Q 359.216302 195.817266 359.317281 195.416097 
Q 359.419784 195.014582 359.340714 194.667218 
Q 359.211705 194.100465 358.732914 193.834474 
Q 358.253776 193.566959 357.615417 193.712267 
Q 357.162929 193.815266 356.695885 194.086632 
Q 356.230365 194.357652 355.731869 194.807642 
L 355.510612 193.835631 
Q 356.038017 193.470402 356.515254 193.236776 
Q 356.994015 193.002805 357.412986 192.907435 
Q 358.517543 192.656007 359.300072 193.059578 
Q 360.082253 193.461626 360.292412 194.384884 
Q 360.39229 194.82366 360.317222 195.254184 
Q 360.243332 195.682838 359.930505 196.31491 
Q 359.843229 196.480601 359.355034 197.285597 
Q 358.868362 198.090246 357.975719 199.540157 
z
M 364.822945 195.281378 
Q 364.137357 195.437437 363.827865 195.894081 
Q 363.519896 196.350378 363.665898 196.991784 
Q 363.812247 197.634713 364.287371 197.912756 
Q 364.76402 198.190452 365.449607 198.034394 
Q 366.135195 197.878335 366.445864 197.419821 
Q 366.757709 196.959436 366.612401 196.321078 
Q 366.4664 195.679672 365.989751 195.401976 
Q 365.514626 195.123932 364.822945 195.281378 
z
M 363.768657 195.091902 
Q 363.115425 195.080349 362.673174 194.735531 
Q 362.2321 194.388843 362.093381 193.779432 
Q 361.899521 192.92778 362.393177 192.294608 
Q 362.888355 191.661089 363.94416 191.420758 
Q 365.006059 191.17904 365.723609 191.536509 
Q 366.441159 191.893977 366.635018 192.745629 
Q 366.773737 193.35504 366.524653 193.858827 
Q 366.276745 194.360744 365.697443 194.652857 
Q 366.428933 194.656211 366.923416 195.040418 
Q 367.419076 195.422755 367.573748 196.102248 
Q 367.809223 197.136724 367.30437 197.833339 
Q 366.79917 198.52843 365.623006 198.796158 
Q 364.448366 199.063538 363.690561 198.655942 
Q 362.933933 198.246476 362.698458 197.212 
Q 362.543786 196.532507 362.826649 195.972956 
Q 363.110688 195.411536 363.768657 195.091902 
z
M 363.070965 193.653055 
Q 363.196505 194.204572 363.611223 194.435472 
Q 364.027463 194.666025 364.650586 194.524185 
Q 365.270662 194.383038 365.54915 193.994346 
Q 365.829162 193.605306 365.703621 193.053789 
Q 365.577734 192.500748 365.156922 192.271235 
Q 364.737635 192.041376 364.117559 192.182522 
Q 363.494436 192.324362 363.218995 192.712362 
Q 362.945077 193.100014 363.070965 193.653055 
z
" clip-path="url(#pda89bd2f13)" style="fill: #fdc527; stroke: #ffffff; stroke-width: 5"/>
    <path d="M 351.110892 201.102783 
L 352.681649 200.745235 
L 351.44705 195.321475 
L 349.815681 196.053376 
L 349.616273 195.177347 
L 351.238501 194.447527 
L 352.199847 194.228698 
L 353.633854 200.528487 
L 355.204611 200.170939 
L 355.388761 200.979932 
L 351.295041 201.911777 
L 351.110892 201.102783 
z
M 357.975719 199.540157 
L 361.332051 198.776163 
L 361.5162 199.585156 
L 357.00351 200.61237 
L 356.819361 199.803377 
Q 357.237299 199.112124 357.964791 197.943381 
Q 358.69346 196.772768 358.872584 196.440345 
Q 359.216302 195.817266 359.317281 195.416097 
Q 359.419784 195.014582 359.340714 194.667218 
Q 359.211705 194.100465 358.732914 193.834474 
Q 358.253776 193.566959 357.615417 193.712267 
Q 357.162929 193.815266 356.695885 194.086632 
Q 356.230365 194.357652 355.731869 194.807642 
L 355.510612 193.835631 
Q 356.038017 193.470402 356.515254 193.236776 
Q 356.994015 193.002805 357.412986 192.907435 
Q 358.517543 192.656007 359.300072 193.059578 
Q 360.082253 193.461626 360.292412 194.384884 
Q 360.39229 194.82366 360.317222 195.254184 
Q 360.243332 195.682838 359.930505 196.31491 
Q 359.843229 196.480601 359.355034 197.285597 
Q 358.868362 198.090246 357.975719 199.540157 
z
M 364.822945 195.281378 
Q 364.137357 195.437437 363.827865 195.894081 
Q 363.519896 196.350378 363.665898 196.991784 
Q 363.812247 197.634713 364.287371 197.912756 
Q 364.76402 198.190452 365.449607 198.034394 
Q 366.135195 197.878335 366.445864 197.419821 
Q 366.757709 196.959436 366.612401 196.321078 
Q 366.4664 195.679672 365.989751 195.401976 
Q 365.514626 195.123932 364.822945 195.281378 
z
M 363.768657 195.091902 
Q 363.115425 195.080349 362.673174 194.735531 
Q 362.2321 194.388843 362.093381 193.779432 
Q 361.899521 192.92778 362.393177 192.294608 
Q 362.888355 191.661089 363.94416 191.420758 
Q 365.006059 191.17904 365.723609 191.536509 
Q 366.441159 191.893977 366.635018 192.745629 
Q 366.773737 193.35504 366.524653 193.858827 
Q 366.276745 194.360744 365.697443 194.652857 
Q 366.428933 194.656211 366.923416 195.040418 
Q 367.419076 195.422755 367.573748 196.102248 
Q 367.809223 197.136724 367.30437 197.833339 
Q 366.79917 198.52843 365.623006 198.796158 
Q 364.448366 199.063538 363.690561 198.655942 
Q 362.933933 198.246476 362.698458 197.212 
Q 362.543786 196.532507 362.826649 195.972956 
Q 363.110688 195.411536 363.768657 195.091902 
z
M 363.070965 193.653055 
Q 363.196505 194.204572 363.611223 194.435472 
Q 364.027463 194.666025 364.650586 194.524185 
Q 365.270662 194.383038 365.54915 193.994346 
Q 365.829162 193.605306 365.703621 193.053789 
Q 365.577734 192.500748 365.156922 192.271235 
Q 364.737635 192.041376 364.117559 192.182522 
Q 363.494436 192.324362 363.218995 192.712362 
Q 362.945077 193.100014 363.070965 193.653055 
z
" clip-path="url(#pda89bd2f13)" style="fill: #fdc527"/>
   </g>
   <g id="patch_3">
    <path d="M 59.690625 301.735725 
L 59.690625 35.623725 
" style="fill: none; stroke: #cccccc; stroke-width: 0.8; stroke-linejoin: miter; stroke-linecap: square"/>
   </g>
   <g id="patch_4">
    <path d="M 416.810625 301.735725 
L 416.810625 35.623725 
" style="fill: none; stroke: #cccccc; stroke-width: 0.8; stroke-linejoin: miter; stroke-linecap: square"/>
   </g>
   <g id="patch_5">
    <path d="M 59.690625 301.735725 
L 416.810625 301.735725 
" style="fill: none; stroke: #cccccc; stroke-width: 0.8; stroke-linejoin: miter; stroke-linecap: square"/>
   </g>
   <g id="patch_6">
    <path d="M 59.690625 35.623725 
L 416.810625 35.623725 
" style="fill: none; stroke: #cccccc; stroke-width: 0.8; stroke-linejoin: miter; stroke-linecap: square"/>
   </g>
   <g id="text_22">
    <!-- Block Size = 4K, Read-Write Type = Sequential Read-heavy 4:1 -->
    <g style="fill: #262626; opacity: 0.75" transform="translate(80.5975 30.882918) scale(0.1 -0.1)">
     <defs>
      <path id="DejaVuSans-42" d="M 1259 2228 
L 1259 519 
L 2272 519 
Q 2781 519 3026 730 
Q 3272 941 3272 1375 
Q 3272 1813 3026 2020 
Q 2781 2228 2272 2228 
L 1259 2228 
z
M 1259 4147 
L 1259 2741 
L 2194 2741 
Q 2656 2741 2882 2914 
Q 3109 3088 3109 3444 
Q 3109 3797 2882 3972 
Q 2656 4147 2194 4147 
L 1259 4147 
z
M 628 4666 
L 2241 4666 
Q 2963 4666 3353 4366 
Q 3744 4066 3744 3513 
Q 3744 3084 3544 2831 
Q 3344 2578 2956 2516 
Q 3422 2416 3680 2098 
Q 3938 1781 3938 1306 
Q 3938 681 3513 340 
Q 3088 0 2303 0 
L 628 0 
L 628 4666 
z
" transform="scale(0.015625)"/>
      <path id="DejaVuSans-6c" d="M 603 4863 
L 1178 4863 
L 1178 0 
L 603 0 
L 603 4863 
z
" transform="scale(0.015625)"/>
      <path id="DejaVuSans-63" d="M 3122 3366 
L 3122 2828 
Q 2878 2963 2633 3030 
Q 2388 3097 2138 3097 
Q 1578 3097 1268 2742 
Q 959 2388 959 1747 
Q 959 1106 1268 751 
Q 1578 397 2138 397 
Q 2388 397 2633 464 
Q 2878 531 3122 666 
L 3122 134 
Q 2881 22 2623 -34 
Q 2366 -91 2075 -91 
Q 1284 -91 818 406 
Q 353 903 353 1747 
Q 353 2603 823 3093 
Q 1294 3584 2113 3584 
Q 2378 3584 2631 3529 
Q 2884 3475 3122 3366 
z
" transform="scale(0.015625)"/>
      <path id="DejaVuSans-6b" d="M 581 4863 
L 1159 4863 
L 1159 1991 
L 2875 3500 
L 3609 3500 
L 1753 1863 
L 3688 0 
L 2938 0 
L 1159 1709 
L 1159 0 
L 581 0 
L 581 4863 
z
" transform="scale(0.015625)"/>
      <path id="DejaVuSans-69" d="M 603 3500 
L 1178 3500 
L 1178 0 
L 603 0 
L 603 3500 
z
M 603 4863 
L 1178 4863 
L 1178 4134 
L 603 4134 
L 603 4863 
z
" transform="scale(0.015625)"/>
      <path id="DejaVuSans-7a" d="M 353 3500 
L 3084 3500 
L 3084 2975 
L 922 459 
L 3084 459 
L 3084 0 
L 275 0 
L 275 525 
L 2438 3041 
L 353 3041 
L 353 3500 
z
" transform="scale(0.015625)"/>
      <path id="DejaVuSans-3d" d="M 678 2906 
L 4684 2906 
L 4684 2381 
L 678 2381 
L 678 2906 
z
M 678 1631 
L 4684 1631 
L 4684 1100 
L 678 1100 
L 678 1631 
z
" transform="scale(0.015625)"/>
      <path id="DejaVuSans-4b" d="M 628 4666 
L 1259 4666 
L 1259 2694 
L 3353 4666 
L 4166 4666 
L 1850 2491 
L 4331 0 
L 3500 0 
L 1259 2247 
L 1259 0 
L 628 0 
L 628 4666 
z
" transform="scale(0.015625)"/>
      <path id="DejaVuSans-2c" d="M 750 794 
L 1409 794 
L 1409 256 
L 897 -744 
L 494 -744 
L 750 256 
L 750 794 
z
" transform="scale(0.015625)"/>
      <path id="DejaVuSans-52" d="M 2841 2188 
Q 3044 2119 3236 1894 
Q 3428 1669 3622 1275 
L 4263 0 
L 3584 0 
L 2988 1197 
Q 2756 1666 2539 1819 
Q 2322 1972 1947 1972 
L 1259 1972 
L 1259 0 
L 628 0 
L 628 4666 
L 2053 4666 
Q 2853 4666 3247 4331 
Q 3641 3997 3641 3322 
Q 3641 2881 3436 2590 
Q 3231 2300 2841 2188 
z
M 1259 4147 
L 1259 2491 
L 2053 2491 
Q 2509 2491 2742 2702 
Q 2975 2913 2975 3322 
Q 2975 3731 2742 3939 
Q 2509 4147 2053 4147 
L 1259 4147 
z
" transform="scale(0.015625)"/>
      <path id="DejaVuSans-61" d="M 2194 1759 
Q 1497 1759 1228 1600 
Q 959 1441 959 1056 
Q 959 750 1161 570 
Q 1363 391 1709 391 
Q 2188 391 2477 730 
Q 2766 1069 2766 1631 
L 2766 1759 
L 2194 1759 
z
M 3341 1997 
L 3341 0 
L 2766 0 
L 2766 531 
Q 2569 213 2275 61 
Q 1981 -91 1556 -91 
Q 1019 -91 701 211 
Q 384 513 384 1019 
Q 384 1609 779 1909 
Q 1175 2209 1959 2209 
L 2766 2209 
L 2766 2266 
Q 2766 2663 2505 2880 
Q 2244 3097 1772 3097 
Q 1472 3097 1187 3025 
Q 903 2953 641 2809 
L 641 3341 
Q 956 3463 1253 3523 
Q 1550 3584 1831 3584 
Q 2591 3584 2966 3190 
Q 3341 2797 3341 1997 
z
" transform="scale(0.015625)"/>
      <path id="DejaVuSans-64" d="M 2906 2969 
L 2906 4863 
L 3481 4863 
L 3481 0 
L 2906 0 
L 2906 525 
Q 2725 213 2448 61 
Q 2172 -91 1784 -91 
Q 1150 -91 751 415 
Q 353 922 353 1747 
Q 353 2572 751 3078 
Q 1150 3584 1784 3584 
Q 2172 3584 2448 3432 
Q 2725 3281 2906 2969 
z
M 947 1747 
Q 947 1113 1208 752 
Q 1469 391 1925 391 
Q 2381 391 2643 752 
Q 2906 1113 2906 1747 
Q 2906 2381 2643 2742 
Q 2381 3103 1925 3103 
Q 1469 3103 1208 2742 
Q 947 2381 947 1747 
z
" transform="scale(0.015625)"/>
      <path id="DejaVuSans-2d" d="M 313 2009 
L 1997 2009 
L 1997 1497 
L 313 1497 
L 313 2009 
z
" transform="scale(0.015625)"/>
      <path id="DejaVuSans-57" d="M 213 4666 
L 850 4666 
L 1831 722 
L 2809 4666 
L 3519 4666 
L 4500 722 
L 5478 4666 
L 6119 4666 
L 4947 0 
L 4153 0 
L 3169 4050 
L 2175 0 
L 1381 0 
L 213 4666 
z
" transform="scale(0.015625)"/>
      <path id="DejaVuSans-74" d="M 1172 4494 
L 1172 3500 
L 2356 3500 
L 2356 3053 
L 1172 3053 
L 1172 1153 
Q 1172 725 1289 603 
Q 1406 481 1766 481 
L 2356 481 
L 2356 0 
L 1766 0 
Q 1100 0 847 248 
Q 594 497 594 1153 
L 594 3053 
L 172 3053 
L 172 3500 
L 594 3500 
L 594 4494 
L 1172 4494 
z
" transform="scale(0.015625)"/>
      <path id="DejaVuSans-54" d="M -19 4666 
L 3928 4666 
L 3928 4134 
L 2272 4134 
L 2272 0 
L 1638 0 
L 1638 4134 
L -19 4134 
L -19 4666 
z
" transform="scale(0.015625)"/>
      <path id="DejaVuSans-79" d="M 2059 -325 
Q 1816 -950 1584 -1140 
Q 1353 -1331 966 -1331 
L 506 -1331 
L 506 -850 
L 844 -850 
Q 1081 -850 1212 -737 
Q 1344 -625 1503 -206 
L 1606 56 
L 191 3500 
L 800 3500 
L 1894 763 
L 2988 3500 
L 3597 3500 
L 2059 -325 
z
" transform="scale(0.015625)"/>
      <path id="DejaVuSans-70" d="M 1159 525 
L 1159 -1331 
L 581 -1331 
L 581 3500 
L 1159 3500 
L 1159 2969 
Q 1341 3281 1617 3432 
Q 1894 3584 2278 3584 
Q 2916 3584 3314 3078 
Q 3713 2572 3713 1747 
Q 3713 922 3314 415 
Q 2916 -91 2278 -91 
Q 1894 -91 1617 61 
Q 1341 213 1159 525 
z
M 3116 1747 
Q 3116 2381 2855 2742 
Q 2594 3103 2138 3103 
Q 1681 3103 1420 2742 
Q 1159 2381 1159 1747 
Q 1159 1113 1420 752 
Q 1681 391 2138 391 
Q 2594 391 2855 752 
Q 3116 1113 3116 1747 
z
" transform="scale(0.015625)"/>
      <path id="DejaVuSans-71" d="M 947 1747 
Q 947 1113 1208 752 
Q 1469 391 1925 391 
Q 2381 391 2643 752 
Q 2906 1113 2906 1747 
Q 2906 2381 2643 2742 
Q 2381 3103 1925 3103 
Q 1469 3103 1208 2742 
Q 947 2381 947 1747 
z
M 2906 525 
Q 2725 213 2448 61 
Q 2172 -91 1784 -91 
Q 1150 -91 751 415 
Q 353 922 353 1747 
Q 353 2572 751 3078 
Q 1150 3584 1784 3584 
Q 2172 3584 2448 3432 
Q 2725 3281 2906 2969 
L 2906 3500 
L 3481 3500 
L 3481 -1331 
L 2906 -1331 
L 2906 525 
z
" transform="scale(0.015625)"/>
      <path id="DejaVuSans-6e" d="M 3513 2113 
L 3513 0 
L 2938 0 
L 2938 2094 
Q 2938 2591 2744 2837 
Q 2550 3084 2163 3084 
Q 1697 3084 1428 2787 
Q 1159 2491 1159 1978 
L 1159 0 
L 581 0 
L 581 3500 
L 1159 3500 
L 1159 2956 
Q 1366 3272 1645 3428 
Q 1925 3584 2291 3584 
Q 2894 3584 3203 3211 
Q 3513 2838 3513 2113 
z
" transform="scale(0.015625)"/>
      <path id="DejaVuSans-68" d="M 3513 2113 
L 3513 0 
L 2938 0 
L 2938 2094 
Q 2938 2591 2744 2837 
Q 2550 3084 2163 3084 
Q 1697 3084 1428 2787 
Q 1159 2491 1159 1978 
L 1159 0 
L 581 0 
L 581 4863 
L 1159 4863 
L 1159 2956 
Q 1366 3272 1645 3428 
Q 1925 3584 2291 3584 
Q 2894 3584 3203 3211 
Q 3513 2838 3513 2113 
z
" transform="scale(0.015625)"/>
      <path id="DejaVuSans-76" d="M 191 3500 
L 800 3500 
L 1894 563 
L 2988 3500 
L 3597 3500 
L 2284 0 
L 1503 0 
L 191 3500 
z
" transform="scale(0.015625)"/>
      <path id="DejaVuSans-3a" d="M 750 794 
L 1409 794 
L 1409 0 
L 750 0 
L 750 794 
z
M 750 3309 
L 1409 3309 
L 1409 2516 
L 750 2516 
L 750 3309 
z
" transform="scale(0.015625)"/>
     </defs>
     <use xlink:href="#DejaVuSans-42"/>
     <use xlink:href="#DejaVuSans-6c" transform="translate(68.603516 0)"/>
     <use xlink:href="#DejaVuSans-6f" transform="translate(96.386719 0)"/>
     <use xlink:href="#DejaVuSans-63" transform="translate(157.568359 0)"/>
     <use xlink:href="#DejaVuSans-6b" transform="translate(212.548828 0)"/>
     <use xlink:href="#DejaVuSans-20" transform="translate(270.458984 0)"/>
     <use xlink:href="#DejaVuSans-53" transform="translate(302.246094 0)"/>
     <use xlink:href="#DejaVuSans-69" transform="translate(365.722656 0)"/>
     <use xlink:href="#DejaVuSans-7a" transform="translate(393.505859 0)"/>
     <use xlink:href="#DejaVuSans-65" transform="translate(445.996094 0)"/>
     <use xlink:href="#DejaVuSans-20" transform="translate(507.519531 0)"/>
     <use xlink:href="#DejaVuSans-3d" transform="translate(539.306641 0)"/>
     <use xlink:href="#DejaVuSans-20" transform="translate(623.095703 0)"/>
     <use xlink:href="#DejaVuSans-34" transform="translate(654.882812 0)"/>
     <use xlink:href="#DejaVuSans-4b" transform="translate(718.505859 0)"/>
     <use xlink:href="#DejaVuSans-2c" transform="translate(784.082031 0)"/>
     <use xlink:href="#DejaVuSans-20" transform="translate(815.869141 0)"/>
     <use xlink:href="#DejaVuSans-52" transform="translate(847.65625 0)"/>
     <use xlink:href="#DejaVuSans-65" transform="translate(912.638672 0)"/>
     <use xlink:href="#DejaVuSans-61" transform="translate(974.162109 0)"/>
     <use xlink:href="#DejaVuSans-64" transform="translate(1035.441406 0)"/>
     <use xlink:href="#DejaVuSans-2d" transform="translate(1098.917969 0)"/>
     <use xlink:href="#DejaVuSans-57" transform="translate(1131.001953 0)"/>
     <use xlink:href="#DejaVuSans-72" transform="translate(1225.378906 0)"/>
     <use xlink:href="#DejaVuSans-69" transform="translate(1266.492188 0)"/>
     <use xlink:href="#DejaVuSans-74" transform="translate(1294.275391 0)"/>
     <use xlink:href="#DejaVuSans-65" transform="translate(1333.484375 0)"/>
     <use xlink:href="#DejaVuSans-20" transform="translate(1395.007812 0)"/>
     <use xlink:href="#DejaVuSans-54" transform="translate(1426.794922 0)"/>
     <use xlink:href="#DejaVuSans-79" transform="translate(1472.253906 0)"/>
     <use xlink:href="#DejaVuSans-70" transform="translate(1531.433594 0)"/>
     <use xlink:href="#DejaVuSans-65" transform="translate(1594.910156 0)"/>
     <use xlink:href="#DejaVuSans-20" transform="translate(1656.433594 0)"/>
     <use xlink:href="#DejaVuSans-3d" transform="translate(1688.220703 0)"/>
     <use xlink:href="#DejaVuSans-20" transform="translate(1772.009766 0)"/>
     <use xlink:href="#DejaVuSans-53" transform="translate(1803.796875 0)"/>
     <use xlink:href="#DejaVuSans-65" transform="translate(1867.273438 0)"/>
     <use xlink:href="#DejaVuSans-71" transform="translate(1928.796875 0)"/>
     <use xlink:href="#DejaVuSans-75" transform="translate(1992.273438 0)"/>
     <use xlink:href="#DejaVuSans-65" transform="translate(2055.652344 0)"/>
     <use xlink:href="#DejaVuSans-6e" transform="translate(2117.175781 0)"/>
     <use xlink:href="#DejaVuSans-74" transform="translate(2180.554688 0)"/>
     <use xlink:href="#DejaVuSans-69" transform="translate(2219.763672 0)"/>
     <use xlink:href="#DejaVuSans-61" transform="translate(2247.546875 0)"/>
     <use xlink:href="#DejaVuSans-6c" transform="translate(2308.826172 0)"/>
     <use xlink:href="#DejaVuSans-20" transform="translate(2336.609375 0)"/>
     <use xlink:href="#DejaVuSans-52" transform="translate(2368.396484 0)"/>
     <use xlink:href="#DejaVuSans-65" transform="translate(2433.378906 0)"/>
     <use xlink:href="#DejaVuSans-61" transform="translate(2494.902344 0)"/>
     <use xlink:href="#DejaVuSans-64" transform="translate(2556.181641 0)"/>
     <use xlink:href="#DejaVuSans-2d" transform="translate(2619.658203 0)"/>
     <use xlink:href="#DejaVuSans-68" transform="translate(2655.742188 0)"/>
     <use xlink:href="#DejaVuSans-65" transform="translate(2719.121094 0)"/>
     <use xlink:href="#DejaVuSans-61" transform="translate(2780.644531 0)"/>
     <use xlink:href="#DejaVuSans-76" transform="translate(2841.923828 0)"/>
     <use xlink:href="#DejaVuSans-79" transform="translate(2901.103516 0)"/>
     <use xlink:href="#DejaVuSans-20" transform="translate(2960.283203 0)"/>
     <use xlink:href="#DejaVuSans-34" transform="translate(2992.070312 0)"/>
     <use xlink:href="#DejaVuSans-3a" transform="translate(3055.693359 0)"/>
     <use xlink:href="#DejaVuSans-31" transform="translate(3089.384766 0)"/>
    </g>
   </g>
   <g id="text_23">
    <!-- IOPS vs Number of Jobs -->
    <g style="fill: #262626" transform="translate(158.541562 16.318125) scale(0.12 -0.12)">
     <defs>
      <path id="DejaVuSans-Bold-49" d="M 588 4666 
L 1791 4666 
L 1791 0 
L 588 0 
L 588 4666 
z
" transform="scale(0.015625)"/>
      <path id="DejaVuSans-Bold-4f" d="M 2719 3878 
Q 2169 3878 1866 3472 
Q 1563 3066 1563 2328 
Q 1563 1594 1866 1187 
Q 2169 781 2719 781 
Q 3272 781 3575 1187 
Q 3878 1594 3878 2328 
Q 3878 3066 3575 3472 
Q 3272 3878 2719 3878 
z
M 2719 4750 
Q 3844 4750 4481 4106 
Q 5119 3463 5119 2328 
Q 5119 1197 4481 553 
Q 3844 -91 2719 -91 
Q 1597 -91 958 553 
Q 319 1197 319 2328 
Q 319 3463 958 4106 
Q 1597 4750 2719 4750 
z
" transform="scale(0.015625)"/>
      <path id="DejaVuSans-Bold-50" d="M 588 4666 
L 2584 4666 
Q 3475 4666 3951 4270 
Q 4428 3875 4428 3144 
Q 4428 2409 3951 2014 
Q 3475 1619 2584 1619 
L 1791 1619 
L 1791 0 
L 588 0 
L 588 4666 
z
M 1791 3794 
L 1791 2491 
L 2456 2491 
Q 2806 2491 2997 2661 
Q 3188 2831 3188 3144 
Q 3188 3456 2997 3625 
Q 2806 3794 2456 3794 
L 1791 3794 
z
" transform="scale(0.015625)"/>
      <path id="DejaVuSans-Bold-53" d="M 3834 4519 
L 3834 3531 
Q 3450 3703 3084 3790 
Q 2719 3878 2394 3878 
Q 1963 3878 1756 3759 
Q 1550 3641 1550 3391 
Q 1550 3203 1689 3098 
Q 1828 2994 2194 2919 
L 2706 2816 
Q 3484 2659 3812 2340 
Q 4141 2022 4141 1434 
Q 4141 663 3683 286 
Q 3225 -91 2284 -91 
Q 1841 -91 1394 -6 
Q 947 78 500 244 
L 500 1259 
Q 947 1022 1364 901 
Q 1781 781 2169 781 
Q 2563 781 2772 912 
Q 2981 1044 2981 1288 
Q 2981 1506 2839 1625 
Q 2697 1744 2272 1838 
L 1806 1941 
Q 1106 2091 782 2419 
Q 459 2747 459 3303 
Q 459 4000 909 4375 
Q 1359 4750 2203 4750 
Q 2588 4750 2994 4692 
Q 3400 4634 3834 4519 
z
" transform="scale(0.015625)"/>
      <path id="DejaVuSans-Bold-20" transform="scale(0.015625)"/>
      <path id="DejaVuSans-Bold-76" d="M 97 3500 
L 1216 3500 
L 2088 1081 
L 2956 3500 
L 4078 3500 
L 2700 0 
L 1472 0 
L 97 3500 
z
" transform="scale(0.015625)"/>
      <path id="DejaVuSans-Bold-73" d="M 3272 3391 
L 3272 2541 
Q 2913 2691 2578 2766 
Q 2244 2841 1947 2841 
Q 1628 2841 1473 2761 
Q 1319 2681 1319 2516 
Q 1319 2381 1436 2309 
Q 1553 2238 1856 2203 
L 2053 2175 
Q 2913 2066 3209 1816 
Q 3506 1566 3506 1031 
Q 3506 472 3093 190 
Q 2681 -91 1863 -91 
Q 1516 -91 1145 -36 
Q 775 19 384 128 
L 384 978 
Q 719 816 1070 734 
Q 1422 653 1784 653 
Q 2113 653 2278 743 
Q 2444 834 2444 1013 
Q 2444 1163 2330 1236 
Q 2216 1309 1875 1350 
L 1678 1375 
Q 931 1469 631 1722 
Q 331 1975 331 2491 
Q 331 3047 712 3315 
Q 1094 3584 1881 3584 
Q 2191 3584 2531 3537 
Q 2872 3491 3272 3391 
z
" transform="scale(0.015625)"/>
      <path id="DejaVuSans-Bold-4e" d="M 588 4666 
L 1931 4666 
L 3628 1466 
L 3628 4666 
L 4769 4666 
L 4769 0 
L 3425 0 
L 1728 3200 
L 1728 0 
L 588 0 
L 588 4666 
z
" transform="scale(0.015625)"/>
      <path id="DejaVuSans-Bold-75" d="M 500 1363 
L 500 3500 
L 1625 3500 
L 1625 3150 
Q 1625 2866 1622 2436 
Q 1619 2006 1619 1863 
Q 1619 1441 1641 1255 
Q 1663 1069 1716 984 
Q 1784 875 1895 815 
Q 2006 756 2150 756 
Q 2500 756 2700 1025 
Q 2900 1294 2900 1772 
L 2900 3500 
L 4019 3500 
L 4019 0 
L 2900 0 
L 2900 506 
Q 2647 200 2364 54 
Q 2081 -91 1741 -91 
Q 1134 -91 817 281 
Q 500 653 500 1363 
z
" transform="scale(0.015625)"/>
      <path id="DejaVuSans-Bold-6d" d="M 3781 2919 
Q 3994 3244 4286 3414 
Q 4578 3584 4928 3584 
Q 5531 3584 5847 3212 
Q 6163 2841 6163 2131 
L 6163 0 
L 5038 0 
L 5038 1825 
Q 5041 1866 5042 1909 
Q 5044 1953 5044 2034 
Q 5044 2406 4934 2573 
Q 4825 2741 4581 2741 
Q 4263 2741 4089 2478 
Q 3916 2216 3909 1719 
L 3909 0 
L 2784 0 
L 2784 1825 
Q 2784 2406 2684 2573 
Q 2584 2741 2328 2741 
Q 2006 2741 1831 2477 
Q 1656 2213 1656 1722 
L 1656 0 
L 531 0 
L 531 3500 
L 1656 3500 
L 1656 2988 
Q 1863 3284 2130 3434 
Q 2397 3584 2719 3584 
Q 3081 3584 3359 3409 
Q 3638 3234 3781 2919 
z
" transform="scale(0.015625)"/>
      <path id="DejaVuSans-Bold-62" d="M 2400 722 
Q 2759 722 2948 984 
Q 3138 1247 3138 1747 
Q 3138 2247 2948 2509 
Q 2759 2772 2400 2772 
Q 2041 2772 1848 2508 
Q 1656 2244 1656 1747 
Q 1656 1250 1848 986 
Q 2041 722 2400 722 
z
M 1656 2988 
Q 1888 3294 2169 3439 
Q 2450 3584 2816 3584 
Q 3463 3584 3878 3070 
Q 4294 2556 4294 1747 
Q 4294 938 3878 423 
Q 3463 -91 2816 -91 
Q 2450 -91 2169 54 
Q 1888 200 1656 506 
L 1656 0 
L 538 0 
L 538 4863 
L 1656 4863 
L 1656 2988 
z
" transform="scale(0.015625)"/>
      <path id="DejaVuSans-Bold-65" d="M 4031 1759 
L 4031 1441 
L 1416 1441 
Q 1456 1047 1700 850 
Q 1944 653 2381 653 
Q 2734 653 3104 758 
Q 3475 863 3866 1075 
L 3866 213 
Q 3469 63 3072 -14 
Q 2675 -91 2278 -91 
Q 1328 -91 801 392 
Q 275 875 275 1747 
Q 275 2603 792 3093 
Q 1309 3584 2216 3584 
Q 3041 3584 3536 3087 
Q 4031 2591 4031 1759 
z
M 2881 2131 
Q 2881 2450 2695 2645 
Q 2509 2841 2209 2841 
Q 1884 2841 1681 2658 
Q 1478 2475 1428 2131 
L 2881 2131 
z
" transform="scale(0.015625)"/>
      <path id="DejaVuSans-Bold-72" d="M 3138 2547 
Q 2991 2616 2845 2648 
Q 2700 2681 2553 2681 
Q 2122 2681 1889 2404 
Q 1656 2128 1656 1613 
L 1656 0 
L 538 0 
L 538 3500 
L 1656 3500 
L 1656 2925 
Q 1872 3269 2151 3426 
Q 2431 3584 2822 3584 
Q 2878 3584 2943 3579 
Q 3009 3575 3134 3559 
L 3138 2547 
z
" transform="scale(0.015625)"/>
      <path id="DejaVuSans-Bold-6f" d="M 2203 2784 
Q 1831 2784 1636 2517 
Q 1441 2250 1441 1747 
Q 1441 1244 1636 976 
Q 1831 709 2203 709 
Q 2569 709 2762 976 
Q 2956 1244 2956 1747 
Q 2956 2250 2762 2517 
Q 2569 2784 2203 2784 
z
M 2203 3584 
Q 3106 3584 3614 3096 
Q 4122 2609 4122 1747 
Q 4122 884 3614 396 
Q 3106 -91 2203 -91 
Q 1297 -91 786 396 
Q 275 884 275 1747 
Q 275 2609 786 3096 
Q 1297 3584 2203 3584 
z
" transform="scale(0.015625)"/>
      <path id="DejaVuSans-Bold-66" d="M 2841 4863 
L 2841 4128 
L 2222 4128 
Q 1984 4128 1890 4042 
Q 1797 3956 1797 3744 
L 1797 3500 
L 2753 3500 
L 2753 2700 
L 1797 2700 
L 1797 0 
L 678 0 
L 678 2700 
L 122 2700 
L 122 3500 
L 678 3500 
L 678 3744 
Q 678 4316 997 4589 
Q 1316 4863 1984 4863 
L 2841 4863 
z
" transform="scale(0.015625)"/>
      <path id="DejaVuSans-Bold-4a" d="M 588 4666 
L 1791 4666 
L 1791 453 
Q 1791 -419 1317 -850 
Q 844 -1281 -116 -1281 
L -359 -1281 
L -359 -372 
L -172 -372 
Q 203 -372 395 -162 
Q 588 47 588 453 
L 588 4666 
z
" transform="scale(0.015625)"/>
     </defs>
     <use xlink:href="#DejaVuSans-Bold-49"/>
     <use xlink:href="#DejaVuSans-Bold-4f" transform="translate(37.207031 0)"/>
     <use xlink:href="#DejaVuSans-Bold-50" transform="translate(122.216797 0)"/>
     <use xlink:href="#DejaVuSans-Bold-53" transform="translate(195.507812 0)"/>
     <use xlink:href="#DejaVuSans-Bold-20" transform="translate(267.529297 0)"/>
     <use xlink:href="#DejaVuSans-Bold-76" transform="translate(302.34375 0)"/>
     <use xlink:href="#DejaVuSans-Bold-73" transform="translate(367.529297 0)"/>
     <use xlink:href="#DejaVuSans-Bold-20" transform="translate(427.050781 0)"/>
     <use xlink:href="#DejaVuSans-Bold-4e" transform="translate(461.865234 0)"/>
     <use xlink:href="#DejaVuSans-Bold-75" transform="translate(545.556641 0)"/>
     <use xlink:href="#DejaVuSans-Bold-6d" transform="translate(616.748047 0)"/>
     <use xlink:href="#DejaVuSans-Bold-62" transform="translate(720.947266 0)"/>
     <use xlink:href="#DejaVuSans-Bold-65" transform="translate(792.529297 0)"/>
     <use xlink:href="#DejaVuSans-Bold-72" transform="translate(860.351562 0)"/>
     <use xlink:href="#DejaVuSans-Bold-20" transform="translate(909.667969 0)"/>
     <use xlink:href="#DejaVuSans-Bold-6f" transform="translate(944.482422 0)"/>
     <use xlink:href="#DejaVuSans-Bold-66" transform="translate(1013.183594 0)"/>
     <use xlink:href="#DejaVuSans-Bold-20" transform="translate(1056.689453 0)"/>
     <use xlink:href="#DejaVuSans-Bold-4a" transform="translate(1091.503906 0)"/>
     <use xlink:href="#DejaVuSans-Bold-6f" transform="translate(1128.710938 0)"/>
     <use xlink:href="#DejaVuSans-Bold-62" transform="translate(1197.412109 0)"/>
     <use xlink:href="#DejaVuSans-Bold-73" transform="translate(1268.994141 0)"/>
    </g>
   </g>
   <g id="legend_1">
    <g id="text_24">
     <!-- IO Depth -->
     <g style="fill: #262626" transform="translate(451.317187 120.065663) scale(0.1 -0.1)">
      <defs>
       <path id="DejaVuSans-44" d="M 1259 4147 
L 1259 519 
L 2022 519 
Q 2988 519 3436 956 
Q 3884 1394 3884 2338 
Q 3884 3275 3436 3711 
Q 2988 4147 2022 4147 
L 1259 4147 
z
M 628 4666 
L 1925 4666 
Q 3281 4666 3915 4102 
Q 4550 3538 4550 2338 
Q 4550 1131 3912 565 
Q 3275 0 1925 0 
L 628 0 
L 628 4666 
z
" transform="scale(0.015625)"/>
      </defs>
      <use xlink:href="#DejaVuSans-49"/>
      <use xlink:href="#DejaVuSans-4f" transform="translate(29.492188 0)"/>
      <use xlink:href="#DejaVuSans-20" transform="translate(108.203125 0)"/>
      <use xlink:href="#DejaVuSans-44" transform="translate(139.990234 0)"/>
      <use xlink:href="#DejaVuSans-65" transform="translate(216.992188 0)"/>
      <use xlink:href="#DejaVuSans-70" transform="translate(278.515625 0)"/>
      <use xlink:href="#DejaVuSans-74" transform="translate(341.992188 0)"/>
      <use xlink:href="#DejaVuSans-68" transform="translate(381.201172 0)"/>
     </g>
    </g>
    <g id="line2d_27">
     <path d="M 450.003125 131.243787 
L 460.003125 131.243787 
L 470.003125 131.243787 
" style="fill: none; stroke: #4c02a1; stroke-width: 1.5; stroke-linecap: round"/>
    </g>
    <g id="text_25">
     <!-- 1 -->
     <g style="fill: #262626" transform="translate(478.003125 134.743787) scale(0.1 -0.1)">
      <use xlink:href="#DejaVuSans-31"/>
     </g>
    </g>
    <g id="line2d_28">
     <path d="M 450.003125 145.921913 
L 460.003125 145.921913 
L 470.003125 145.921913 
" style="fill: none; stroke: #7e03a8; stroke-width: 1.5; stroke-linecap: round"/>
    </g>
    <g id="text_26">
     <!-- 4 -->
     <g style="fill: #262626" transform="translate(478.003125 149.421913) scale(0.1 -0.1)">
      <use xlink:href="#DejaVuSans-34"/>
     </g>
    </g>
    <g id="line2d_29">
     <path d="M 450.003125 160.600037 
L 460.003125 160.600037 
L 470.003125 160.600037 
" style="fill: none; stroke: #aa2395; stroke-width: 1.5; stroke-linecap: round"/>
    </g>
    <g id="text_27">
     <!-- 8 -->
     <g style="fill: #262626" transform="translate(478.003125 164.100037) scale(0.1 -0.1)">
      <use xlink:href="#DejaVuSans-38"/>
     </g>
    </g>
    <g id="line2d_30">
     <path d="M 450.003125 175.278163 
L 460.003125 175.278163 
L 470.003125 175.278163 
" style="fill: none; stroke: #cc4778; stroke-width: 1.5; stroke-linecap: round"/>
    </g>
    <g id="text_28">
     <!-- 16 -->
     <g style="fill: #262626" transform="translate(478.003125 178.778163) scale(0.1 -0.1)">
      <use xlink:href="#DejaVuSans-31"/>
      <use xlink:href="#DejaVuSans-36" transform="translate(63.623047 0)"/>
     </g>
    </g>
    <g id="line2d_31">
     <path d="M 450.003125 189.956288 
L 460.003125 189.956288 
L 470.003125 189.956288 
" style="fill: none; stroke: #e66c5c; stroke-width: 1.5; stroke-linecap: round"/>
    </g>
    <g id="text_29">
     <!-- 32 -->
     <g style="fill: #262626" transform="translate(478.003125 193.456288) scale(0.1 -0.1)">
      <use xlink:href="#DejaVuSans-33"/>
      <use xlink:href="#DejaVuSans-32" transform="translate(63.623047 0)"/>
     </g>
    </g>
    <g id="line2d_32">
     <path d="M 450.003125 204.634412 
L 460.003125 204.634412 
L 470.003125 204.634412 
" style="fill: none; stroke: #f89540; stroke-width: 1.5; stroke-linecap: round"/>
    </g>
    <g id="text_30">
     <!-- 64 -->
     <g style="fill: #262626" transform="translate(478.003125 208.134412) scale(0.1 -0.1)">
      <use xlink:href="#DejaVuSans-36"/>
      <use xlink:href="#DejaVuSans-34" transform="translate(63.623047 0)"/>
     </g>
    </g>
    <g id="line2d_33">
     <path d="M 450.003125 219.312537 
L 460.003125 219.312537 
L 470.003125 219.312537 
" style="fill: none; stroke: #fdc527; stroke-width: 1.5; stroke-linecap: round"/>
    </g>
    <g id="text_31">
     <!-- 128 -->
     <g style="fill: #262626" transform="translate(478.003125 222.812537) scale(0.1 -0.1)">
      <use xlink:href="#DejaVuSans-31"/>
      <use xlink:href="#DejaVuSans-32" transform="translate(63.623047 0)"/>
      <use xlink:href="#DejaVuSans-38" transform="translate(127.246094 0)"/>
     </g>
    </g>
   </g>
  </g>
 </g>
 <defs>
  <clipPath id="pda89bd2f13">
   <rect x="59.690625" y="35.623725" width="357.12" height="266.112"/>
  </clipPath>
 </defs>
</svg>
