<?xml version="1.0" encoding="utf-8" standalone="no"?>
<!DOCTYPE svg PUBLIC "-//W3C//DTD SVG 1.1//EN"
  "http://www.w3.org/Graphics/SVG/1.1/DTD/svg11.dtd">
<svg xmlns:xlink="http://www.w3.org/1999/xlink" width="508.290625pt" height="339.291975pt" viewBox="0 0 508.290625 339.291975" xmlns="http://www.w3.org/2000/svg" version="1.1">
 <metadata>
  <rdf:RDF xmlns:dc="http://purl.org/dc/elements/1.1/" xmlns:cc="http://creativecommons.org/ns#" xmlns:rdf="http://www.w3.org/1999/02/22-rdf-syntax-ns#">
   <cc:Work>
    <dc:type rdf:resource="http://purl.org/dc/dcmitype/StillImage"/>
    <dc:date>2025-09-11T11:34:30.635809</dc:date>
    <dc:format>image/svg+xml</dc:format>
    <dc:creator>
     <cc:Agent>
      <dc:title>Matplotlib v3.10.6, https://matplotlib.org/</dc:title>
     </cc:Agent>
    </dc:creator>
   </cc:Work>
  </rdf:RDF>
 </metadata>
 <defs>
  <style type="text/css">*{stroke-linejoin: round; stroke-linecap: butt}</style>
 </defs>
 <g id="figure_1">
  <g id="patch_1">
   <path d="M 0 339.291975 
L 508.290625 339.291975 
L 508.290625 0 
L 0 0 
z
" style="fill: #ffffff"/>
  </g>
  <g id="axes_1">
   <g id="patch_2">
    <path d="M 59.690625 301.735725 
L 416.810625 301.735725 
L 416.810625 35.623725 
L 59.690625 35.623725 
z
" style="fill: #ffffff"/>
   </g>
   <g id="matplotlib.axis_1">
    <g id="xtick_1">
     <g id="line2d_1">
      <path d="M 215.061015 301.735725 
L 215.061015 35.623725 
" clip-path="url(#pd1c0da9f1a)" style="fill: none; stroke: #cccccc; stroke-width: 0.8; stroke-linecap: round"/>
     </g>
     <g id="text_1">
      <!-- 64 -->
      <g style="fill: #262626" transform="translate(208.698515 316.334162) scale(0.1 -0.1)">
       <defs>
        <path id="DejaVuSans-36" d="M 2113 2584 
Q 1688 2584 1439 2293 
Q 1191 2003 1191 1497 
Q 1191 994 1439 701 
Q 1688 409 2113 409 
Q 2538 409 2786 701 
Q 3034 994 3034 1497 
Q 3034 2003 2786 2293 
Q 2538 2584 2113 2584 
z
M 3366 4563 
L 3366 3988 
Q 3128 4100 2886 4159 
Q 2644 4219 2406 4219 
Q 1781 4219 1451 3797 
Q 1122 3375 1075 2522 
Q 1259 2794 1537 2939 
Q 1816 3084 2150 3084 
Q 2853 3084 3261 2657 
Q 3669 2231 3669 1497 
Q 3669 778 3244 343 
Q 2819 -91 2113 -91 
Q 1303 -91 875 529 
Q 447 1150 447 2328 
Q 447 3434 972 4092 
Q 1497 4750 2381 4750 
Q 2619 4750 2861 4703 
Q 3103 4656 3366 4563 
z
" transform="scale(0.015625)"/>
        <path id="DejaVuSans-34" d="M 2419 4116 
L 825 1625 
L 2419 1625 
L 2419 4116 
z
M 2253 4666 
L 3047 4666 
L 3047 1625 
L 3713 1625 
L 3713 1100 
L 3047 1100 
L 3047 0 
L 2419 0 
L 2419 1100 
L 313 1100 
L 313 1709 
L 2253 4666 
z
" transform="scale(0.015625)"/>
       </defs>
       <use xlink:href="#DejaVuSans-36"/>
       <use xlink:href="#DejaVuSans-34" transform="translate(63.623047 0)"/>
      </g>
     </g>
    </g>
    <g id="xtick_2">
     <g id="line2d_2">
      <path d="M 75.923352 301.735725 
L 75.923352 35.623725 
" clip-path="url(#pd1c0da9f1a)" style="fill: none; stroke: #cccccc; stroke-width: 0.8; stroke-linecap: round"/>
     </g>
     <g id="text_2">
      <!-- 16 -->
      <g style="fill: #262626" transform="translate(69.560852 316.334162) scale(0.1 -0.1)">
       <defs>
        <path id="DejaVuSans-31" d="M 794 531 
L 1825 531 
L 1825 4091 
L 703 3866 
L 703 4441 
L 1819 4666 
L 2450 4666 
L 2450 531 
L 3481 531 
L 3481 0 
L 794 0 
L 794 531 
z
" transform="scale(0.015625)"/>
       </defs>
       <use xlink:href="#DejaVuSans-31"/>
       <use xlink:href="#DejaVuSans-36" transform="translate(63.623047 0)"/>
      </g>
     </g>
    </g>
    <g id="xtick_3">
     <g id="line2d_3">
      <path d="M 400.577898 301.735725 
L 400.577898 35.623725 
" clip-path="url(#pd1c0da9f1a)" style="fill: none; stroke: #cccccc; stroke-width: 0.8; stroke-linecap: round"/>
     </g>
     <g id="text_3">
      <!-- 128 -->
      <g style="fill: #262626" transform="translate(391.034148 316.334162) scale(0.1 -0.1)">
       <defs>
        <path id="DejaVuSans-32" d="M 1228 531 
L 3431 531 
L 3431 0 
L 469 0 
L 469 531 
Q 828 903 1448 1529 
Q 2069 2156 2228 2338 
Q 2531 2678 2651 2914 
Q 2772 3150 2772 3378 
Q 2772 3750 2511 3984 
Q 2250 4219 1831 4219 
Q 1534 4219 1204 4116 
Q 875 4013 500 3803 
L 500 4441 
Q 881 4594 1212 4672 
Q 1544 4750 1819 4750 
Q 2544 4750 2975 4387 
Q 3406 4025 3406 3419 
Q 3406 3131 3298 2873 
Q 3191 2616 2906 2266 
Q 2828 2175 2409 1742 
Q 1991 1309 1228 531 
z
" transform="scale(0.015625)"/>
        <path id="DejaVuSans-38" d="M 2034 2216 
Q 1584 2216 1326 1975 
Q 1069 1734 1069 1313 
Q 1069 891 1326 650 
Q 1584 409 2034 409 
Q 2484 409 2743 651 
Q 3003 894 3003 1313 
Q 3003 1734 2745 1975 
Q 2488 2216 2034 2216 
z
M 1403 2484 
Q 997 2584 770 2862 
Q 544 3141 544 3541 
Q 544 4100 942 4425 
Q 1341 4750 2034 4750 
Q 2731 4750 3128 4425 
Q 3525 4100 3525 3541 
Q 3525 3141 3298 2862 
Q 3072 2584 2669 2484 
Q 3125 2378 3379 2068 
Q 3634 1759 3634 1313 
Q 3634 634 3220 271 
Q 2806 -91 2034 -91 
Q 1263 -91 848 271 
Q 434 634 434 1313 
Q 434 1759 690 2068 
Q 947 2378 1403 2484 
z
M 1172 3481 
Q 1172 3119 1398 2916 
Q 1625 2713 2034 2713 
Q 2441 2713 2670 2916 
Q 2900 3119 2900 3481 
Q 2900 3844 2670 4047 
Q 2441 4250 2034 4250 
Q 1625 4250 1398 4047 
Q 1172 3844 1172 3481 
z
" transform="scale(0.015625)"/>
       </defs>
       <use xlink:href="#DejaVuSans-31"/>
       <use xlink:href="#DejaVuSans-32" transform="translate(63.623047 0)"/>
       <use xlink:href="#DejaVuSans-38" transform="translate(127.246094 0)"/>
      </g>
     </g>
    </g>
    <g id="xtick_4">
     <g id="line2d_4">
      <path d="M 122.302573 301.735725 
L 122.302573 35.623725 
" clip-path="url(#pd1c0da9f1a)" style="fill: none; stroke: #cccccc; stroke-width: 0.8; stroke-linecap: round"/>
     </g>
     <g id="text_4">
      <!-- 32 -->
      <g style="fill: #262626" transform="translate(115.940073 316.334162) scale(0.1 -0.1)">
       <defs>
        <path id="DejaVuSans-33" d="M 2597 2516 
Q 3050 2419 3304 2112 
Q 3559 1806 3559 1356 
Q 3559 666 3084 287 
Q 2609 -91 1734 -91 
Q 1441 -91 1130 -33 
Q 819 25 488 141 
L 488 750 
Q 750 597 1062 519 
Q 1375 441 1716 441 
Q 2309 441 2620 675 
Q 2931 909 2931 1356 
Q 2931 1769 2642 2001 
Q 2353 2234 1838 2234 
L 1294 2234 
L 1294 2753 
L 1863 2753 
Q 2328 2753 2575 2939 
Q 2822 3125 2822 3475 
Q 2822 3834 2567 4026 
Q 2313 4219 1838 4219 
Q 1578 4219 1281 4162 
Q 984 4106 628 3988 
L 628 4550 
Q 988 4650 1302 4700 
Q 1616 4750 1894 4750 
Q 2613 4750 3031 4423 
Q 3450 4097 3450 3541 
Q 3450 3153 3228 2886 
Q 3006 2619 2597 2516 
z
" transform="scale(0.015625)"/>
       </defs>
       <use xlink:href="#DejaVuSans-33"/>
       <use xlink:href="#DejaVuSans-32" transform="translate(63.623047 0)"/>
      </g>
     </g>
    </g>
    <g id="text_5">
     <!-- Number of Jobs -->
     <g style="fill: #262626" transform="translate(199.85375 330.012287) scale(0.1 -0.1)">
      <defs>
       <path id="DejaVuSans-4e" d="M 628 4666 
L 1478 4666 
L 3547 763 
L 3547 4666 
L 4159 4666 
L 4159 0 
L 3309 0 
L 1241 3903 
L 1241 0 
L 628 0 
L 628 4666 
z
" transform="scale(0.015625)"/>
       <path id="DejaVuSans-75" d="M 544 1381 
L 544 3500 
L 1119 3500 
L 1119 1403 
Q 1119 906 1312 657 
Q 1506 409 1894 409 
Q 2359 409 2629 706 
Q 2900 1003 2900 1516 
L 2900 3500 
L 3475 3500 
L 3475 0 
L 2900 0 
L 2900 538 
Q 2691 219 2414 64 
Q 2138 -91 1772 -91 
Q 1169 -91 856 284 
Q 544 659 544 1381 
z
M 1991 3584 
L 1991 3584 
z
" transform="scale(0.015625)"/>
       <path id="DejaVuSans-6d" d="M 3328 2828 
Q 3544 3216 3844 3400 
Q 4144 3584 4550 3584 
Q 5097 3584 5394 3201 
Q 5691 2819 5691 2113 
L 5691 0 
L 5113 0 
L 5113 2094 
Q 5113 2597 4934 2840 
Q 4756 3084 4391 3084 
Q 3944 3084 3684 2787 
Q 3425 2491 3425 1978 
L 3425 0 
L 2847 0 
L 2847 2094 
Q 2847 2600 2669 2842 
Q 2491 3084 2119 3084 
Q 1678 3084 1418 2786 
Q 1159 2488 1159 1978 
L 1159 0 
L 581 0 
L 581 3500 
L 1159 3500 
L 1159 2956 
Q 1356 3278 1631 3431 
Q 1906 3584 2284 3584 
Q 2666 3584 2933 3390 
Q 3200 3197 3328 2828 
z
" transform="scale(0.015625)"/>
       <path id="DejaVuSans-62" d="M 3116 1747 
Q 3116 2381 2855 2742 
Q 2594 3103 2138 3103 
Q 1681 3103 1420 2742 
Q 1159 2381 1159 1747 
Q 1159 1113 1420 752 
Q 1681 391 2138 391 
Q 2594 391 2855 752 
Q 3116 1113 3116 1747 
z
M 1159 2969 
Q 1341 3281 1617 3432 
Q 1894 3584 2278 3584 
Q 2916 3584 3314 3078 
Q 3713 2572 3713 1747 
Q 3713 922 3314 415 
Q 2916 -91 2278 -91 
Q 1894 -91 1617 61 
Q 1341 213 1159 525 
L 1159 0 
L 581 0 
L 581 4863 
L 1159 4863 
L 1159 2969 
z
" transform="scale(0.015625)"/>
       <path id="DejaVuSans-65" d="M 3597 1894 
L 3597 1613 
L 953 1613 
Q 991 1019 1311 708 
Q 1631 397 2203 397 
Q 2534 397 2845 478 
Q 3156 559 3463 722 
L 3463 178 
Q 3153 47 2828 -22 
Q 2503 -91 2169 -91 
Q 1331 -91 842 396 
Q 353 884 353 1716 
Q 353 2575 817 3079 
Q 1281 3584 2069 3584 
Q 2775 3584 3186 3129 
Q 3597 2675 3597 1894 
z
M 3022 2063 
Q 3016 2534 2758 2815 
Q 2500 3097 2075 3097 
Q 1594 3097 1305 2825 
Q 1016 2553 972 2059 
L 3022 2063 
z
" transform="scale(0.015625)"/>
       <path id="DejaVuSans-72" d="M 2631 2963 
Q 2534 3019 2420 3045 
Q 2306 3072 2169 3072 
Q 1681 3072 1420 2755 
Q 1159 2438 1159 1844 
L 1159 0 
L 581 0 
L 581 3500 
L 1159 3500 
L 1159 2956 
Q 1341 3275 1631 3429 
Q 1922 3584 2338 3584 
Q 2397 3584 2469 3576 
Q 2541 3569 2628 3553 
L 2631 2963 
z
" transform="scale(0.015625)"/>
       <path id="DejaVuSans-20" transform="scale(0.015625)"/>
       <path id="DejaVuSans-6f" d="M 1959 3097 
Q 1497 3097 1228 2736 
Q 959 2375 959 1747 
Q 959 1119 1226 758 
Q 1494 397 1959 397 
Q 2419 397 2687 759 
Q 2956 1122 2956 1747 
Q 2956 2369 2687 2733 
Q 2419 3097 1959 3097 
z
M 1959 3584 
Q 2709 3584 3137 3096 
Q 3566 2609 3566 1747 
Q 3566 888 3137 398 
Q 2709 -91 1959 -91 
Q 1206 -91 779 398 
Q 353 888 353 1747 
Q 353 2609 779 3096 
Q 1206 3584 1959 3584 
z
" transform="scale(0.015625)"/>
       <path id="DejaVuSans-66" d="M 2375 4863 
L 2375 4384 
L 1825 4384 
Q 1516 4384 1395 4259 
Q 1275 4134 1275 3809 
L 1275 3500 
L 2222 3500 
L 2222 3053 
L 1275 3053 
L 1275 0 
L 697 0 
L 697 3053 
L 147 3053 
L 147 3500 
L 697 3500 
L 697 3744 
Q 697 4328 969 4595 
Q 1241 4863 1831 4863 
L 2375 4863 
z
" transform="scale(0.015625)"/>
       <path id="DejaVuSans-4a" d="M 628 4666 
L 1259 4666 
L 1259 325 
Q 1259 -519 939 -900 
Q 619 -1281 -91 -1281 
L -331 -1281 
L -331 -750 
L -134 -750 
Q 284 -750 456 -515 
Q 628 -281 628 325 
L 628 4666 
z
" transform="scale(0.015625)"/>
       <path id="DejaVuSans-73" d="M 2834 3397 
L 2834 2853 
Q 2591 2978 2328 3040 
Q 2066 3103 1784 3103 
Q 1356 3103 1142 2972 
Q 928 2841 928 2578 
Q 928 2378 1081 2264 
Q 1234 2150 1697 2047 
L 1894 2003 
Q 2506 1872 2764 1633 
Q 3022 1394 3022 966 
Q 3022 478 2636 193 
Q 2250 -91 1575 -91 
Q 1294 -91 989 -36 
Q 684 19 347 128 
L 347 722 
Q 666 556 975 473 
Q 1284 391 1588 391 
Q 1994 391 2212 530 
Q 2431 669 2431 922 
Q 2431 1156 2273 1281 
Q 2116 1406 1581 1522 
L 1381 1569 
Q 847 1681 609 1914 
Q 372 2147 372 2553 
Q 372 3047 722 3315 
Q 1072 3584 1716 3584 
Q 2034 3584 2315 3537 
Q 2597 3491 2834 3397 
z
" transform="scale(0.015625)"/>
      </defs>
      <use xlink:href="#DejaVuSans-4e"/>
      <use xlink:href="#DejaVuSans-75" transform="translate(74.804688 0)"/>
      <use xlink:href="#DejaVuSans-6d" transform="translate(138.183594 0)"/>
      <use xlink:href="#DejaVuSans-62" transform="translate(235.595703 0)"/>
      <use xlink:href="#DejaVuSans-65" transform="translate(299.072266 0)"/>
      <use xlink:href="#DejaVuSans-72" transform="translate(360.595703 0)"/>
      <use xlink:href="#DejaVuSans-20" transform="translate(401.708984 0)"/>
      <use xlink:href="#DejaVuSans-6f" transform="translate(433.496094 0)"/>
      <use xlink:href="#DejaVuSans-66" transform="translate(494.677734 0)"/>
      <use xlink:href="#DejaVuSans-20" transform="translate(529.882812 0)"/>
      <use xlink:href="#DejaVuSans-4a" transform="translate(561.669922 0)"/>
      <use xlink:href="#DejaVuSans-6f" transform="translate(591.162109 0)"/>
      <use xlink:href="#DejaVuSans-62" transform="translate(652.34375 0)"/>
      <use xlink:href="#DejaVuSans-73" transform="translate(715.820312 0)"/>
     </g>
    </g>
   </g>
   <g id="matplotlib.axis_2">
    <g id="ytick_1">
     <g id="line2d_5">
      <path d="M 59.690625 293.532892 
L 416.810625 293.532892 
" clip-path="url(#pd1c0da9f1a)" style="fill: none; stroke: #cccccc; stroke-width: 0.8; stroke-linecap: round"/>
     </g>
     <g id="text_6">
      <!-- 38000 -->
      <g style="fill: #262626" transform="translate(20.878125 297.332111) scale(0.1 -0.1)">
       <defs>
        <path id="DejaVuSans-30" d="M 2034 4250 
Q 1547 4250 1301 3770 
Q 1056 3291 1056 2328 
Q 1056 1369 1301 889 
Q 1547 409 2034 409 
Q 2525 409 2770 889 
Q 3016 1369 3016 2328 
Q 3016 3291 2770 3770 
Q 2525 4250 2034 4250 
z
M 2034 4750 
Q 2819 4750 3233 4129 
Q 3647 3509 3647 2328 
Q 3647 1150 3233 529 
Q 2819 -91 2034 -91 
Q 1250 -91 836 529 
Q 422 1150 422 2328 
Q 422 3509 836 4129 
Q 1250 4750 2034 4750 
z
" transform="scale(0.015625)"/>
       </defs>
       <use xlink:href="#DejaVuSans-33"/>
       <use xlink:href="#DejaVuSans-38" transform="translate(63.623047 0)"/>
       <use xlink:href="#DejaVuSans-30" transform="translate(127.246094 0)"/>
       <use xlink:href="#DejaVuSans-30" transform="translate(190.869141 0)"/>
       <use xlink:href="#DejaVuSans-30" transform="translate(254.492188 0)"/>
      </g>
     </g>
    </g>
    <g id="ytick_2">
     <g id="line2d_6">
      <path d="M 59.690625 258.459315 
L 416.810625 258.459315 
" clip-path="url(#pd1c0da9f1a)" style="fill: none; stroke: #cccccc; stroke-width: 0.8; stroke-linecap: round"/>
     </g>
     <g id="text_7">
      <!-- 40000 -->
      <g style="fill: #262626" transform="translate(20.878125 262.258533) scale(0.1 -0.1)">
       <use xlink:href="#DejaVuSans-34"/>
       <use xlink:href="#DejaVuSans-30" transform="translate(63.623047 0)"/>
       <use xlink:href="#DejaVuSans-30" transform="translate(127.246094 0)"/>
       <use xlink:href="#DejaVuSans-30" transform="translate(190.869141 0)"/>
       <use xlink:href="#DejaVuSans-30" transform="translate(254.492188 0)"/>
      </g>
     </g>
    </g>
    <g id="ytick_3">
     <g id="line2d_7">
      <path d="M 59.690625 223.385737 
L 416.810625 223.385737 
" clip-path="url(#pd1c0da9f1a)" style="fill: none; stroke: #cccccc; stroke-width: 0.8; stroke-linecap: round"/>
     </g>
     <g id="text_8">
      <!-- 42000 -->
      <g style="fill: #262626" transform="translate(20.878125 227.184956) scale(0.1 -0.1)">
       <use xlink:href="#DejaVuSans-34"/>
       <use xlink:href="#DejaVuSans-32" transform="translate(63.623047 0)"/>
       <use xlink:href="#DejaVuSans-30" transform="translate(127.246094 0)"/>
       <use xlink:href="#DejaVuSans-30" transform="translate(190.869141 0)"/>
       <use xlink:href="#DejaVuSans-30" transform="translate(254.492188 0)"/>
      </g>
     </g>
    </g>
    <g id="ytick_4">
     <g id="line2d_8">
      <path d="M 59.690625 188.31216 
L 416.810625 188.31216 
" clip-path="url(#pd1c0da9f1a)" style="fill: none; stroke: #cccccc; stroke-width: 0.8; stroke-linecap: round"/>
     </g>
     <g id="text_9">
      <!-- 44000 -->
      <g style="fill: #262626" transform="translate(20.878125 192.111379) scale(0.1 -0.1)">
       <use xlink:href="#DejaVuSans-34"/>
       <use xlink:href="#DejaVuSans-34" transform="translate(63.623047 0)"/>
       <use xlink:href="#DejaVuSans-30" transform="translate(127.246094 0)"/>
       <use xlink:href="#DejaVuSans-30" transform="translate(190.869141 0)"/>
       <use xlink:href="#DejaVuSans-30" transform="translate(254.492188 0)"/>
      </g>
     </g>
    </g>
    <g id="ytick_5">
     <g id="line2d_9">
      <path d="M 59.690625 153.238583 
L 416.810625 153.238583 
" clip-path="url(#pd1c0da9f1a)" style="fill: none; stroke: #cccccc; stroke-width: 0.8; stroke-linecap: round"/>
     </g>
     <g id="text_10">
      <!-- 46000 -->
      <g style="fill: #262626" transform="translate(20.878125 157.037801) scale(0.1 -0.1)">
       <use xlink:href="#DejaVuSans-34"/>
       <use xlink:href="#DejaVuSans-36" transform="translate(63.623047 0)"/>
       <use xlink:href="#DejaVuSans-30" transform="translate(127.246094 0)"/>
       <use xlink:href="#DejaVuSans-30" transform="translate(190.869141 0)"/>
       <use xlink:href="#DejaVuSans-30" transform="translate(254.492188 0)"/>
      </g>
     </g>
    </g>
    <g id="ytick_6">
     <g id="line2d_10">
      <path d="M 59.690625 118.165005 
L 416.810625 118.165005 
" clip-path="url(#pd1c0da9f1a)" style="fill: none; stroke: #cccccc; stroke-width: 0.8; stroke-linecap: round"/>
     </g>
     <g id="text_11">
      <!-- 48000 -->
      <g style="fill: #262626" transform="translate(20.878125 121.964224) scale(0.1 -0.1)">
       <use xlink:href="#DejaVuSans-34"/>
       <use xlink:href="#DejaVuSans-38" transform="translate(63.623047 0)"/>
       <use xlink:href="#DejaVuSans-30" transform="translate(127.246094 0)"/>
       <use xlink:href="#DejaVuSans-30" transform="translate(190.869141 0)"/>
       <use xlink:href="#DejaVuSans-30" transform="translate(254.492188 0)"/>
      </g>
     </g>
    </g>
    <g id="ytick_7">
     <g id="line2d_11">
      <path d="M 59.690625 83.091428 
L 416.810625 83.091428 
" clip-path="url(#pd1c0da9f1a)" style="fill: none; stroke: #cccccc; stroke-width: 0.8; stroke-linecap: round"/>
     </g>
     <g id="text_12">
      <!-- 50000 -->
      <g style="fill: #262626" transform="translate(20.878125 86.890647) scale(0.1 -0.1)">
       <defs>
        <path id="DejaVuSans-35" d="M 691 4666 
L 3169 4666 
L 3169 4134 
L 1269 4134 
L 1269 2991 
Q 1406 3038 1543 3061 
Q 1681 3084 1819 3084 
Q 2600 3084 3056 2656 
Q 3513 2228 3513 1497 
Q 3513 744 3044 326 
Q 2575 -91 1722 -91 
Q 1428 -91 1123 -41 
Q 819 9 494 109 
L 494 744 
Q 775 591 1075 516 
Q 1375 441 1709 441 
Q 2250 441 2565 725 
Q 2881 1009 2881 1497 
Q 2881 1984 2565 2268 
Q 2250 2553 1709 2553 
Q 1456 2553 1204 2497 
Q 953 2441 691 2322 
L 691 4666 
z
" transform="scale(0.015625)"/>
       </defs>
       <use xlink:href="#DejaVuSans-35"/>
       <use xlink:href="#DejaVuSans-30" transform="translate(63.623047 0)"/>
       <use xlink:href="#DejaVuSans-30" transform="translate(127.246094 0)"/>
       <use xlink:href="#DejaVuSans-30" transform="translate(190.869141 0)"/>
       <use xlink:href="#DejaVuSans-30" transform="translate(254.492188 0)"/>
      </g>
     </g>
    </g>
    <g id="ytick_8">
     <g id="line2d_12">
      <path d="M 59.690625 48.01785 
L 416.810625 48.01785 
" clip-path="url(#pd1c0da9f1a)" style="fill: none; stroke: #cccccc; stroke-width: 0.8; stroke-linecap: round"/>
     </g>
     <g id="text_13">
      <!-- 52000 -->
      <g style="fill: #262626" transform="translate(20.878125 51.817069) scale(0.1 -0.1)">
       <use xlink:href="#DejaVuSans-35"/>
       <use xlink:href="#DejaVuSans-32" transform="translate(63.623047 0)"/>
       <use xlink:href="#DejaVuSans-30" transform="translate(127.246094 0)"/>
       <use xlink:href="#DejaVuSans-30" transform="translate(190.869141 0)"/>
       <use xlink:href="#DejaVuSans-30" transform="translate(254.492188 0)"/>
      </g>
     </g>
    </g>
    <g id="text_14">
     <!-- IOPS -->
     <g style="fill: #262626" transform="translate(14.798438 180.279725) rotate(-90) scale(0.1 -0.1)">
      <defs>
       <path id="DejaVuSans-49" d="M 628 4666 
L 1259 4666 
L 1259 0 
L 628 0 
L 628 4666 
z
" transform="scale(0.015625)"/>
       <path id="DejaVuSans-4f" d="M 2522 4238 
Q 1834 4238 1429 3725 
Q 1025 3213 1025 2328 
Q 1025 1447 1429 934 
Q 1834 422 2522 422 
Q 3209 422 3611 934 
Q 4013 1447 4013 2328 
Q 4013 3213 3611 3725 
Q 3209 4238 2522 4238 
z
M 2522 4750 
Q 3503 4750 4090 4092 
Q 4678 3434 4678 2328 
Q 4678 1225 4090 567 
Q 3503 -91 2522 -91 
Q 1538 -91 948 565 
Q 359 1222 359 2328 
Q 359 3434 948 4092 
Q 1538 4750 2522 4750 
z
" transform="scale(0.015625)"/>
       <path id="DejaVuSans-50" d="M 1259 4147 
L 1259 2394 
L 2053 2394 
Q 2494 2394 2734 2622 
Q 2975 2850 2975 3272 
Q 2975 3691 2734 3919 
Q 2494 4147 2053 4147 
L 1259 4147 
z
M 628 4666 
L 2053 4666 
Q 2838 4666 3239 4311 
Q 3641 3956 3641 3272 
Q 3641 2581 3239 2228 
Q 2838 1875 2053 1875 
L 1259 1875 
L 1259 0 
L 628 0 
L 628 4666 
z
" transform="scale(0.015625)"/>
       <path id="DejaVuSans-53" d="M 3425 4513 
L 3425 3897 
Q 3066 4069 2747 4153 
Q 2428 4238 2131 4238 
Q 1616 4238 1336 4038 
Q 1056 3838 1056 3469 
Q 1056 3159 1242 3001 
Q 1428 2844 1947 2747 
L 2328 2669 
Q 3034 2534 3370 2195 
Q 3706 1856 3706 1288 
Q 3706 609 3251 259 
Q 2797 -91 1919 -91 
Q 1588 -91 1214 -16 
Q 841 59 441 206 
L 441 856 
Q 825 641 1194 531 
Q 1563 422 1919 422 
Q 2459 422 2753 634 
Q 3047 847 3047 1241 
Q 3047 1584 2836 1778 
Q 2625 1972 2144 2069 
L 1759 2144 
Q 1053 2284 737 2584 
Q 422 2884 422 3419 
Q 422 4038 858 4394 
Q 1294 4750 2059 4750 
Q 2388 4750 2728 4690 
Q 3069 4631 3425 4513 
z
" transform="scale(0.015625)"/>
      </defs>
      <use xlink:href="#DejaVuSans-49"/>
      <use xlink:href="#DejaVuSans-4f" transform="translate(29.492188 0)"/>
      <use xlink:href="#DejaVuSans-50" transform="translate(108.203125 0)"/>
      <use xlink:href="#DejaVuSans-53" transform="translate(168.505859 0)"/>
     </g>
    </g>
   </g>
   <g id="FillBetweenPolyCollection_1"/>
   <g id="FillBetweenPolyCollection_2"/>
   <g id="FillBetweenPolyCollection_3"/>
   <g id="FillBetweenPolyCollection_4"/>
   <g id="FillBetweenPolyCollection_5"/>
   <g id="FillBetweenPolyCollection_6"/>
   <g id="FillBetweenPolyCollection_7"/>
   <g id="line2d_13">
    <path d="M 75.923352 121.654826 
L 122.302573 168.407905 
L 215.061015 239.940466 
L 400.577898 186.961827 
" clip-path="url(#pd1c0da9f1a)" style="fill: none; stroke: #4c02a1; stroke-width: 1.5; stroke-linecap: round"/>
   </g>
   <g id="line2d_14">
    <path d="M 75.923352 47.719725 
L 122.302573 103.399029 
L 215.061015 90.491953 
L 400.577898 141.734449 
" clip-path="url(#pd1c0da9f1a)" style="fill: none; stroke: #7e03a8; stroke-width: 1.5; stroke-linecap: round"/>
   </g>
   <g id="line2d_15">
    <path d="M 75.923352 289.639725 
L 122.302573 161.673778 
L 215.061015 202.797547 
L 400.577898 227.910229 
" clip-path="url(#pd1c0da9f1a)" style="fill: none; stroke: #aa2395; stroke-width: 1.5; stroke-linecap: round"/>
   </g>
   <g id="line2d_16">
    <path d="M 75.923352 132.966055 
L 122.302573 155.781417 
L 215.061015 99.73384 
L 400.577898 217.510913 
" clip-path="url(#pd1c0da9f1a)" style="fill: none; stroke: #cc4778; stroke-width: 1.5; stroke-linecap: round"/>
   </g>
   <g id="line2d_17">
    <path d="M 75.923352 278.837063 
L 122.302573 82.986207 
L 215.061015 82.96867 
L 400.577898 103.819912 
" clip-path="url(#pd1c0da9f1a)" style="fill: none; stroke: #e66c5c; stroke-width: 1.5; stroke-linecap: round"/>
   </g>
   <g id="line2d_18">
    <path d="M 75.923352 164.795326 
L 122.302573 142.856804 
L 215.061015 80.794108 
L 400.577898 109.344 
" clip-path="url(#pd1c0da9f1a)" style="fill: none; stroke: #f89540; stroke-width: 1.5; stroke-linecap: round"/>
   </g>
   <g id="line2d_19">
    <path d="M 75.923352 70.044057 
L 122.302573 184.594361 
L 215.061015 108.098888 
L 400.577898 108.063815 
" clip-path="url(#pd1c0da9f1a)" style="fill: none; stroke: #fdc527; stroke-width: 1.5; stroke-linecap: round"/>
   </g>
   <g id="line2d_20"/>
   <g id="line2d_21"/>
   <g id="line2d_22"/>
   <g id="line2d_23"/>
   <g id="line2d_24"/>
   <g id="line2d_25"/>
   <g id="line2d_26"/>
   <g id="text_15">
    <path d="M 114.985954 163.772318 
L 116.120477 164.915987 
L 120.069516 160.998526 
L 118.585267 160.001506 
L 119.223104 159.36877 
L 120.70075 160.359135 
L 121.395109 161.059091 
L 116.808233 165.609287 
L 117.942756 166.752955 
L 117.353728 167.337273 
L 114.396926 164.356636 
L 114.985954 163.772318 
z
" clip-path="url(#pd1c0da9f1a)" style="fill: #4c02a1; stroke: #ffffff; stroke-width: 5"/>
    <path d="M 114.985954 163.772318 
L 116.120477 164.915987 
L 120.069516 160.998526 
L 118.585267 160.001506 
L 119.223104 159.36877 
L 120.70075 160.359135 
L 121.395109 161.059091 
L 116.808233 165.609287 
L 117.942756 166.752955 
L 117.353728 167.337273 
L 114.396926 164.356636 
L 114.985954 163.772318 
z
" clip-path="url(#pd1c0da9f1a)" style="fill: #4c02a1"/>
   </g>
   <g id="text_16">
    <path d="M 157.985296 94.726627 
L 156.054857 98.924929 
L 158.521715 98.581672 
L 157.985296 94.726627 
z
M 157.609958 93.911199 
L 158.838744 93.740217 
L 159.493601 98.446437 
L 160.524296 98.303019 
L 160.637351 99.115503 
L 159.606656 99.258922 
L 159.843533 100.96127 
L 158.871647 101.096506 
L 158.63477 99.394157 
L 155.375546 99.847669 
L 155.244403 98.905187 
L 157.609958 93.911199 
z
" clip-path="url(#pd1c0da9f1a)" style="fill: #7e03a8; stroke: #ffffff; stroke-width: 5"/>
    <path d="M 157.985296 94.726627 
L 156.054857 98.924929 
L 158.521715 98.581672 
L 157.985296 94.726627 
z
M 157.609958 93.911199 
L 158.838744 93.740217 
L 159.493601 98.446437 
L 160.524296 98.303019 
L 160.637351 99.115503 
L 159.606656 99.258922 
L 159.843533 100.96127 
L 158.871647 101.096506 
L 158.63477 99.394157 
L 155.375546 99.847669 
L 155.244403 98.905187 
L 157.609958 93.911199 
z
" clip-path="url(#pd1c0da9f1a)" style="fill: #7e03a8"/>
   </g>
   <g id="text_17">
    <path d="M 198.356743 194.622704 
Q 197.713956 194.33773 197.192806 194.518592 
Q 196.673084 194.700088 196.406474 195.30145 
Q 196.139231 195.904241 196.353714 196.411241 
Q 196.569625 196.918874 197.212412 197.203848 
Q 197.855198 197.488823 198.37841 197.307165 
Q 198.903684 197.124713 199.169027 196.526207 
Q 199.435637 195.924845 199.219725 195.417212 
Q 199.005243 194.910212 198.356743 194.622704 
z
M 197.625132 193.840292 
Q 197.108523 193.44034 196.960324 192.899487 
Q 196.814187 192.357839 197.067498 191.786473 
Q 197.421499 190.98799 198.195823 190.775799 
Q 198.971575 190.564242 199.961466 191.003103 
Q 200.957071 191.444497 201.318336 192.160142 
Q 201.679602 192.875788 201.3256 193.674271 
Q 201.072289 194.245637 200.571355 194.500411 
Q 200.072482 194.754389 199.433504 194.64202 
Q 200.017733 195.082206 200.184235 195.685867 
Q 200.352798 196.288732 200.070356 196.925805 
Q 199.640361 197.895698 198.819118 198.152036 
Q 197.998509 198.406945 196.895773 197.918055 
Q 195.794466 197.429799 195.43092 196.649903 
Q 195.069436 195.869212 195.499431 194.899319 
Q 195.781873 194.262247 196.343229 193.982985 
Q 196.906648 193.702929 197.625132 193.840292 
z
M 197.926545 192.269876 
Q 197.697299 192.786962 197.891565 193.22005 
Q 198.08726 193.653772 198.671481 193.912782 
Q 199.252846 194.170526 199.708508 194.025578 
Q 200.165598 193.881264 200.394844 193.364178 
Q 200.624724 192.845664 200.424744 192.410042 
Q 200.226192 191.975054 199.644828 191.71731 
Q 199.060606 191.4583 198.607801 191.604514 
Q 198.156424 191.751362 197.926545 192.269876 
z
" clip-path="url(#pd1c0da9f1a)" style="fill: #aa2395; stroke: #ffffff; stroke-width: 5"/>
    <path d="M 198.356743 194.622704 
Q 197.713956 194.33773 197.192806 194.518592 
Q 196.673084 194.700088 196.406474 195.30145 
Q 196.139231 195.904241 196.353714 196.411241 
Q 196.569625 196.918874 197.212412 197.203848 
Q 197.855198 197.488823 198.37841 197.307165 
Q 198.903684 197.124713 199.169027 196.526207 
Q 199.435637 195.924845 199.219725 195.417212 
Q 199.005243 194.910212 198.356743 194.622704 
z
M 197.625132 193.840292 
Q 197.108523 193.44034 196.960324 192.899487 
Q 196.814187 192.357839 197.067498 191.786473 
Q 197.421499 190.98799 198.195823 190.775799 
Q 198.971575 190.564242 199.961466 191.003103 
Q 200.957071 191.444497 201.318336 192.160142 
Q 201.679602 192.875788 201.3256 193.674271 
Q 201.072289 194.245637 200.571355 194.500411 
Q 200.072482 194.754389 199.433504 194.64202 
Q 200.017733 195.082206 200.184235 195.685867 
Q 200.352798 196.288732 200.070356 196.925805 
Q 199.640361 197.895698 198.819118 198.152036 
Q 197.998509 198.406945 196.895773 197.918055 
Q 195.794466 197.429799 195.43092 196.649903 
Q 195.069436 195.869212 195.499431 194.899319 
Q 195.781873 194.262247 196.343229 193.982985 
Q 196.906648 193.702929 197.625132 193.840292 
z
M 197.926545 192.269876 
Q 197.697299 192.786962 197.891565 193.22005 
Q 198.08726 193.653772 198.671481 193.912782 
Q 199.252846 194.170526 199.708508 194.025578 
Q 200.165598 193.881264 200.394844 193.364178 
Q 200.624724 192.845664 200.424744 192.410042 
Q 200.226192 191.975054 199.644828 191.71731 
Q 199.060606 191.4583 198.607801 191.604514 
Q 198.156424 191.751362 197.926545 192.269876 
z
" clip-path="url(#pd1c0da9f1a)" style="fill: #aa2395"/>
   </g>
   <g id="text_18">
    <path d="M 232.892295 113.33991 
L 234.252307 114.203326 
L 237.233646 109.507261 
L 235.565167 108.864439 
L 236.046704 108.105945 
L 237.707268 108.743743 
L 238.539632 109.272177 
L 235.076757 114.726735 
L 236.436769 115.590151 
L 235.99208 116.290603 
L 232.447607 114.040362 
L 232.892295 113.33991 
z
M 241.722797 115.146372 
Q 241.162171 114.790454 240.590011 114.965791 
Q 240.020008 115.140647 239.596256 115.808121 
Q 239.175016 116.471638 239.256783 117.065829 
Q 239.340707 117.659538 239.901333 118.015457 
Q 240.461959 118.371375 241.033637 118.193881 
Q 241.606153 118.015068 242.027393 117.351551 
Q 242.451145 116.684076 242.366865 116.093843 
Q 242.283423 115.50229 241.722797 115.146372 
z
M 245.032977 113.585166 
L 244.55144 114.34366 
Q 244.331285 113.996604 244.061468 113.716112 
Q 243.792488 113.434301 243.478538 113.234986 
Q 242.654088 112.711577 241.865373 112.991885 
Q 241.077977 113.273031 240.301629 114.358879 
Q 240.772135 114.154171 241.260281 114.195711 
Q 241.749746 114.238088 242.190332 114.517798 
Q 243.117673 115.106529 243.29828 116.011475 
Q 243.479725 116.915101 242.865033 117.883334 
Q 242.262903 118.831781 241.337985 119.04968 
Q 240.413904 119.266259 239.482606 118.675016 
Q 238.414119 117.996678 238.368758 116.820393 
Q 238.324234 115.642789 239.310756 114.088867 
Q 240.236981 112.629921 241.480564 112.201604 
Q 242.724147 111.773288 243.890248 112.513598 
Q 244.204199 112.712912 244.484065 112.977575 
Q 244.763932 113.242237 245.032977 113.585166 
z
" clip-path="url(#pd1c0da9f1a)" style="fill: #cc4778; stroke: #ffffff; stroke-width: 5"/>
    <path d="M 232.892295 113.33991 
L 234.252307 114.203326 
L 237.233646 109.507261 
L 235.565167 108.864439 
L 236.046704 108.105945 
L 237.707268 108.743743 
L 238.539632 109.272177 
L 235.076757 114.726735 
L 236.436769 115.590151 
L 235.99208 116.290603 
L 232.447607 114.040362 
L 232.892295 113.33991 
z
M 241.722797 115.146372 
Q 241.162171 114.790454 240.590011 114.965791 
Q 240.020008 115.140647 239.596256 115.808121 
Q 239.175016 116.471638 239.256783 117.065829 
Q 239.340707 117.659538 239.901333 118.015457 
Q 240.461959 118.371375 241.033637 118.193881 
Q 241.606153 118.015068 242.027393 117.351551 
Q 242.451145 116.684076 242.366865 116.093843 
Q 242.283423 115.50229 241.722797 115.146372 
z
M 245.032977 113.585166 
L 244.55144 114.34366 
Q 244.331285 113.996604 244.061468 113.716112 
Q 243.792488 113.434301 243.478538 113.234986 
Q 242.654088 112.711577 241.865373 112.991885 
Q 241.077977 113.273031 240.301629 114.358879 
Q 240.772135 114.154171 241.260281 114.195711 
Q 241.749746 114.238088 242.190332 114.517798 
Q 243.117673 115.106529 243.29828 116.011475 
Q 243.479725 116.915101 242.865033 117.883334 
Q 242.262903 118.831781 241.337985 119.04968 
Q 240.413904 119.266259 239.482606 118.675016 
Q 238.414119 117.996678 238.368758 116.820393 
Q 238.324234 115.642789 239.310756 114.088867 
Q 240.236981 112.629921 241.480564 112.201604 
Q 242.724147 111.773288 243.890248 112.513598 
Q 244.204199 112.712912 244.484065 112.977575 
Q 244.763932 113.242237 245.032977 113.585166 
z
" clip-path="url(#pd1c0da9f1a)" style="fill: #cc4778"/>
   </g>
   <g id="text_19">
    <path d="M 276.267247 88.668715 
Q 276.953703 88.898386 277.294517 89.4194 
Q 277.637059 89.939035 277.558525 90.637761 
Q 277.438107 91.70914 276.634421 92.214725 
Q 275.830909 92.718758 274.472276 92.566054 
Q 274.017329 92.51492 273.544554 92.370587 
Q 273.071779 92.226254 272.578072 91.988372 
L 272.684354 91.042763 
Q 273.064466 91.326054 273.535303 91.501616 
Q 274.007693 91.677353 274.537172 91.736864 
Q 275.457936 91.840354 275.981671 91.531292 
Q 276.505405 91.22223 276.583415 90.528163 
Q 276.655491 89.886888 276.247243 89.476221 
Q 275.839169 89.064 275.039516 88.974123 
L 274.194835 88.879184 
L 274.28541 88.073321 
L 275.16891 88.172622 
Q 275.890926 88.253774 276.306909 88.008073 
Q 276.722892 87.762373 276.783974 87.21892 
Q 276.846626 86.661492 276.484189 86.318867 
Q 276.12348 85.974864 275.385936 85.891967 
Q 274.982228 85.846592 274.511122 85.883265 
Q 274.04019 85.918386 273.466827 86.039478 
L 273.564907 85.166848 
Q 274.141339 85.074402 274.63762 85.051565 
Q 275.133901 85.028728 275.565558 85.077244 
Q 276.681966 85.202723 277.273937 85.783413 
Q 277.867635 86.362724 277.770602 87.226038 
Q 277.702889 87.828495 277.311588 88.204329 
Q 276.920287 88.580162 276.267247 88.668715 
z
M 280.117644 92.222573 
L 283.538293 92.607038 
L 283.445624 93.431534 
L 278.846458 92.914609 
L 278.939127 92.090113 
Q 279.561476 91.575153 280.633413 90.71135 
Q 281.707078 89.846168 281.985723 89.591321 
Q 282.515535 89.116275 282.743048 88.770774 
Q 282.972114 88.425448 283.011904 88.071427 
Q 283.076825 87.493814 282.712402 87.084928 
Q 282.348153 86.674488 281.697562 86.601365 
Q 281.236403 86.549533 280.706029 86.651872 
Q 280.177208 86.754386 279.558288 87.015013 
L 279.669631 86.024376 
Q 280.28792 85.853301 280.815483 85.789954 
Q 281.3446 85.726782 281.771599 85.774775 
Q 282.897323 85.901301 283.503197 86.540157 
Q 284.109244 87.17746 284.003486 88.118411 
Q 283.953225 88.565595 283.740505 88.94735 
Q 283.529512 89.327726 283.025904 89.821441 
Q 282.88891 89.949126 282.162753 90.548332 
Q 281.438148 91.147712 280.117644 92.222573 
z
" clip-path="url(#pd1c0da9f1a)" style="fill: #e66c5c; stroke: #ffffff; stroke-width: 5"/>
    <path d="M 276.267247 88.668715 
Q 276.953703 88.898386 277.294517 89.4194 
Q 277.637059 89.939035 277.558525 90.637761 
Q 277.438107 91.70914 276.634421 92.214725 
Q 275.830909 92.718758 274.472276 92.566054 
Q 274.017329 92.51492 273.544554 92.370587 
Q 273.071779 92.226254 272.578072 91.988372 
L 272.684354 91.042763 
Q 273.064466 91.326054 273.535303 91.501616 
Q 274.007693 91.677353 274.537172 91.736864 
Q 275.457936 91.840354 275.981671 91.531292 
Q 276.505405 91.22223 276.583415 90.528163 
Q 276.655491 89.886888 276.247243 89.476221 
Q 275.839169 89.064 275.039516 88.974123 
L 274.194835 88.879184 
L 274.28541 88.073321 
L 275.16891 88.172622 
Q 275.890926 88.253774 276.306909 88.008073 
Q 276.722892 87.762373 276.783974 87.21892 
Q 276.846626 86.661492 276.484189 86.318867 
Q 276.12348 85.974864 275.385936 85.891967 
Q 274.982228 85.846592 274.511122 85.883265 
Q 274.04019 85.918386 273.466827 86.039478 
L 273.564907 85.166848 
Q 274.141339 85.074402 274.63762 85.051565 
Q 275.133901 85.028728 275.565558 85.077244 
Q 276.681966 85.202723 277.273937 85.783413 
Q 277.867635 86.362724 277.770602 87.226038 
Q 277.702889 87.828495 277.311588 88.204329 
Q 276.920287 88.580162 276.267247 88.668715 
z
M 280.117644 92.222573 
L 283.538293 92.607038 
L 283.445624 93.431534 
L 278.846458 92.914609 
L 278.939127 92.090113 
Q 279.561476 91.575153 280.633413 90.71135 
Q 281.707078 89.846168 281.985723 89.591321 
Q 282.515535 89.116275 282.743048 88.770774 
Q 282.972114 88.425448 283.011904 88.071427 
Q 283.076825 87.493814 282.712402 87.084928 
Q 282.348153 86.674488 281.697562 86.601365 
Q 281.236403 86.549533 280.706029 86.651872 
Q 280.177208 86.754386 279.558288 87.015013 
L 279.669631 86.024376 
Q 280.28792 85.853301 280.815483 85.789954 
Q 281.3446 85.726782 281.771599 85.774775 
Q 282.897323 85.901301 283.503197 86.540157 
Q 284.109244 87.17746 284.003486 88.118411 
Q 283.953225 88.565595 283.740505 88.94735 
Q 283.529512 89.327726 283.025904 89.821441 
Q 282.88891 89.949126 282.162753 90.548332 
Q 281.438148 91.147712 280.117644 92.222573 
z
" clip-path="url(#pd1c0da9f1a)" style="fill: #e66c5c"/>
   </g>
   <g id="text_20">
    <path d="M 315.77171 94.999685 
Q 315.115374 94.898679 314.661679 95.288899 
Q 314.209766 95.677811 314.089509 96.459237 
Q 313.969965 97.23603 314.283322 97.747456 
Q 314.598461 98.257575 315.254796 98.358581 
Q 315.911132 98.459587 316.363521 98.067585 
Q 316.816147 97.674039 316.93569 96.897247 
Q 317.055947 96.115821 316.741877 95.609028 
Q 316.428045 95.100691 315.77171 94.999685 
z
M 318.177074 92.241266 
L 318.040418 93.12925 
Q 317.699488 92.899723 317.339785 92.751094 
Q 316.980319 92.60092 316.612771 92.544357 
Q 315.647571 92.395819 315.037653 92.969094 
Q 314.429279 93.542606 314.153971 94.848741 
Q 314.502769 94.472415 314.966551 94.314559 
Q 315.431877 94.15694 315.94768 94.236319 
Q 317.033337 94.403395 317.561938 95.159785 
Q 318.090777 95.914631 317.916333 97.048161 
Q 317.745455 98.158527 316.985736 98.7293 
Q 316.226256 99.298529 315.135966 99.13074 
Q 313.885067 98.938235 313.371448 97.879038 
Q 312.858067 96.818296 313.138032 94.999087 
Q 313.400885 93.29107 314.368034 92.39968 
Q 315.335183 91.508289 316.700361 91.718382 
Q 317.067909 91.774945 317.430465 91.905042 
Q 317.79302 92.035139 318.177074 92.241266 
z
M 322.896645 93.674238 
L 319.842986 97.142307 
L 322.304631 97.521139 
L 322.896645 93.674238 
z
M 322.771002 92.785411 
L 323.997192 92.974114 
L 323.274464 97.67039 
L 324.302981 97.828672 
L 324.178209 98.63944 
L 323.149692 98.481158 
L 322.888265 100.179909 
L 321.918432 100.030658 
L 322.179859 98.331907 
L 318.927522 97.831392 
L 319.072257 96.890901 
L 322.771002 92.785411 
z
" clip-path="url(#pd1c0da9f1a)" style="fill: #f89540; stroke: #ffffff; stroke-width: 5"/>
    <path d="M 315.77171 94.999685 
Q 315.115374 94.898679 314.661679 95.288899 
Q 314.209766 95.677811 314.089509 96.459237 
Q 313.969965 97.23603 314.283322 97.747456 
Q 314.598461 98.257575 315.254796 98.358581 
Q 315.911132 98.459587 316.363521 98.067585 
Q 316.816147 97.674039 316.93569 96.897247 
Q 317.055947 96.115821 316.741877 95.609028 
Q 316.428045 95.100691 315.77171 94.999685 
z
M 318.177074 92.241266 
L 318.040418 93.12925 
Q 317.699488 92.899723 317.339785 92.751094 
Q 316.980319 92.60092 316.612771 92.544357 
Q 315.647571 92.395819 315.037653 92.969094 
Q 314.429279 93.542606 314.153971 94.848741 
Q 314.502769 94.472415 314.966551 94.314559 
Q 315.431877 94.15694 315.94768 94.236319 
Q 317.033337 94.403395 317.561938 95.159785 
Q 318.090777 95.914631 317.916333 97.048161 
Q 317.745455 98.158527 316.985736 98.7293 
Q 316.226256 99.298529 315.135966 99.13074 
Q 313.885067 98.938235 313.371448 97.879038 
Q 312.858067 96.818296 313.138032 94.999087 
Q 313.400885 93.29107 314.368034 92.39968 
Q 315.335183 91.508289 316.700361 91.718382 
Q 317.067909 91.774945 317.430465 91.905042 
Q 317.79302 92.035139 318.177074 92.241266 
z
M 322.896645 93.674238 
L 319.842986 97.142307 
L 322.304631 97.521139 
L 322.896645 93.674238 
z
M 322.771002 92.785411 
L 323.997192 92.974114 
L 323.274464 97.67039 
L 324.302981 97.828672 
L 324.178209 98.63944 
L 323.149692 98.481158 
L 322.888265 100.179909 
L 321.918432 100.030658 
L 322.179859 98.331907 
L 318.927522 97.831392 
L 319.072257 96.890901 
L 322.771002 92.785411 
z
" clip-path="url(#pd1c0da9f1a)" style="fill: #f89540"/>
   </g>
   <g id="text_21">
    <path d="M 350.475865 110.002975 
L 352.086802 110.00267 
L 352.085751 104.44017 
L 350.332692 104.792064 
L 350.332522 103.893627 
L 352.076206 103.541734 
L 353.062143 103.541548 
L 353.063365 110.002485 
L 354.674302 110.002181 
L 354.674459 110.831868 
L 350.476022 110.832662 
L 350.475865 110.002975 
z
M 357.516295 110.001644 
L 360.958482 110.000993 
L 360.958639 110.83068 
L 356.330514 110.831555 
L 356.330357 110.001868 
Q 356.891185 109.420512 357.85975 108.442204 
Q 358.829877 107.462333 359.078261 107.177911 
Q 359.551598 106.646571 359.739028 106.277786 
Q 359.928021 105.909 359.927953 105.55275 
Q 359.927844 104.9715 359.519962 104.605952 
Q 359.11208 104.238842 358.457393 104.238966 
Q 357.99333 104.239053 357.477736 104.400088 
Q 356.963703 104.561123 356.377828 104.889359 
L 356.37764 103.892484 
Q 356.972907 103.653309 357.490071 103.531336 
Q 358.008798 103.409363 358.438486 103.409282 
Q 359.571298 103.409067 360.244843 103.976128 
Q 360.918387 104.541625 360.918566 105.4885 
Q 360.918651 105.9385 360.749978 106.341657 
Q 360.582866 106.743251 360.137657 107.29021 
Q 360.015809 107.432421 359.361249 108.109107 
Q 358.708252 108.785793 357.516295 110.001644 
z
M 365.137476 107.36739 
Q 364.434351 107.367523 364.031298 107.744162 
Q 363.629806 108.1208 363.629931 108.778613 
Q 363.630055 109.437988 364.031689 109.814474 
Q 364.434885 110.190961 365.13801 110.190828 
Q 365.841135 110.190695 366.245751 109.812493 
Q 366.651929 109.432729 366.651806 108.778041 
Q 366.651681 108.120229 366.248485 107.743743 
Q 365.846851 107.367256 365.137476 107.36739 
z
M 364.15146 106.948827 
Q 363.517055 106.792697 363.162286 106.358389 
Q 362.809078 105.922518 362.80896 105.297518 
Q 362.808795 104.42408 363.430574 103.91615 
Q 364.053915 103.40822 365.136728 103.408015 
Q 366.22579 103.407809 366.846199 103.915505 
Q 367.466607 104.4232 367.466772 105.296637 
Q 367.466891 105.921637 367.112285 106.357642 
Q 366.759243 106.792084 366.129585 106.948453 
Q 366.842116 107.113943 367.239083 107.598243 
Q 367.637611 108.08098 367.637743 108.777855 
Q 367.637944 109.838793 366.991176 110.406102 
Q 366.344408 110.97185 365.138158 110.972078 
Q 363.93347 110.972305 363.284926 110.406803 
Q 362.637944 109.839738 362.637743 108.7788 
Q 362.637611 108.081925 363.03752 107.599037 
Q 363.438991 107.114586 364.15146 106.948827 
z
M 363.790228 105.391082 
Q 363.790335 105.956707 364.14352 106.273828 
Q 364.498267 106.590949 365.13733 106.590828 
Q 365.773267 106.590707 366.13102 106.273452 
Q 366.490335 105.956197 366.490228 105.390572 
Q 366.49012 104.823384 366.130685 104.506265 
Q 365.772813 104.189145 365.136875 104.189265 
Q 364.497813 104.189386 364.143185 104.506641 
Q 363.79012 104.823895 363.790228 105.391082 
z
" clip-path="url(#pd1c0da9f1a)" style="fill: #fdc527; stroke: #ffffff; stroke-width: 5"/>
    <path d="M 350.475865 110.002975 
L 352.086802 110.00267 
L 352.085751 104.44017 
L 350.332692 104.792064 
L 350.332522 103.893627 
L 352.076206 103.541734 
L 353.062143 103.541548 
L 353.063365 110.002485 
L 354.674302 110.002181 
L 354.674459 110.831868 
L 350.476022 110.832662 
L 350.475865 110.002975 
z
M 357.516295 110.001644 
L 360.958482 110.000993 
L 360.958639 110.83068 
L 356.330514 110.831555 
L 356.330357 110.001868 
Q 356.891185 109.420512 357.85975 108.442204 
Q 358.829877 107.462333 359.078261 107.177911 
Q 359.551598 106.646571 359.739028 106.277786 
Q 359.928021 105.909 359.927953 105.55275 
Q 359.927844 104.9715 359.519962 104.605952 
Q 359.11208 104.238842 358.457393 104.238966 
Q 357.99333 104.239053 357.477736 104.400088 
Q 356.963703 104.561123 356.377828 104.889359 
L 356.37764 103.892484 
Q 356.972907 103.653309 357.490071 103.531336 
Q 358.008798 103.409363 358.438486 103.409282 
Q 359.571298 103.409067 360.244843 103.976128 
Q 360.918387 104.541625 360.918566 105.4885 
Q 360.918651 105.9385 360.749978 106.341657 
Q 360.582866 106.743251 360.137657 107.29021 
Q 360.015809 107.432421 359.361249 108.109107 
Q 358.708252 108.785793 357.516295 110.001644 
z
M 365.137476 107.36739 
Q 364.434351 107.367523 364.031298 107.744162 
Q 363.629806 108.1208 363.629931 108.778613 
Q 363.630055 109.437988 364.031689 109.814474 
Q 364.434885 110.190961 365.13801 110.190828 
Q 365.841135 110.190695 366.245751 109.812493 
Q 366.651929 109.432729 366.651806 108.778041 
Q 366.651681 108.120229 366.248485 107.743743 
Q 365.846851 107.367256 365.137476 107.36739 
z
M 364.15146 106.948827 
Q 363.517055 106.792697 363.162286 106.358389 
Q 362.809078 105.922518 362.80896 105.297518 
Q 362.808795 104.42408 363.430574 103.91615 
Q 364.053915 103.40822 365.136728 103.408015 
Q 366.22579 103.407809 366.846199 103.915505 
Q 367.466607 104.4232 367.466772 105.296637 
Q 367.466891 105.921637 367.112285 106.357642 
Q 366.759243 106.792084 366.129585 106.948453 
Q 366.842116 107.113943 367.239083 107.598243 
Q 367.637611 108.08098 367.637743 108.777855 
Q 367.637944 109.838793 366.991176 110.406102 
Q 366.344408 110.97185 365.138158 110.972078 
Q 363.93347 110.972305 363.284926 110.406803 
Q 362.637944 109.839738 362.637743 108.7788 
Q 362.637611 108.081925 363.03752 107.599037 
Q 363.438991 107.114586 364.15146 106.948827 
z
M 363.790228 105.391082 
Q 363.790335 105.956707 364.14352 106.273828 
Q 364.498267 106.590949 365.13733 106.590828 
Q 365.773267 106.590707 366.13102 106.273452 
Q 366.490335 105.956197 366.490228 105.390572 
Q 366.49012 104.823384 366.130685 104.506265 
Q 365.772813 104.189145 365.136875 104.189265 
Q 364.497813 104.189386 364.143185 104.506641 
Q 363.79012 104.823895 363.790228 105.391082 
z
" clip-path="url(#pd1c0da9f1a)" style="fill: #fdc527"/>
   </g>
   <g id="patch_3">
    <path d="M 59.690625 301.735725 
L 59.690625 35.623725 
" style="fill: none; stroke: #cccccc; stroke-width: 0.8; stroke-linejoin: miter; stroke-linecap: square"/>
   </g>
   <g id="patch_4">
    <path d="M 416.810625 301.735725 
L 416.810625 35.623725 
" style="fill: none; stroke: #cccccc; stroke-width: 0.8; stroke-linejoin: miter; stroke-linecap: square"/>
   </g>
   <g id="patch_5">
    <path d="M 59.690625 301.735725 
L 416.810625 301.735725 
" style="fill: none; stroke: #cccccc; stroke-width: 0.8; stroke-linejoin: miter; stroke-linecap: square"/>
   </g>
   <g id="patch_6">
    <path d="M 59.690625 35.623725 
L 416.810625 35.623725 
" style="fill: none; stroke: #cccccc; stroke-width: 0.8; stroke-linejoin: miter; stroke-linecap: square"/>
   </g>
   <g id="text_22">
    <!-- Block Size = 4K, Read-Write Type = Random Read-heavy 4:1 -->
    <g style="fill: #262626; opacity: 0.75" transform="translate(86.540469 30.882918) scale(0.1 -0.1)">
     <defs>
      <path id="DejaVuSans-42" d="M 1259 2228 
L 1259 519 
L 2272 519 
Q 2781 519 3026 730 
Q 3272 941 3272 1375 
Q 3272 1813 3026 2020 
Q 2781 2228 2272 2228 
L 1259 2228 
z
M 1259 4147 
L 1259 2741 
L 2194 2741 
Q 2656 2741 2882 2914 
Q 3109 3088 3109 3444 
Q 3109 3797 2882 3972 
Q 2656 4147 2194 4147 
L 1259 4147 
z
M 628 4666 
L 2241 4666 
Q 2963 4666 3353 4366 
Q 3744 4066 3744 3513 
Q 3744 3084 3544 2831 
Q 3344 2578 2956 2516 
Q 3422 2416 3680 2098 
Q 3938 1781 3938 1306 
Q 3938 681 3513 340 
Q 3088 0 2303 0 
L 628 0 
L 628 4666 
z
" transform="scale(0.015625)"/>
      <path id="DejaVuSans-6c" d="M 603 4863 
L 1178 4863 
L 1178 0 
L 603 0 
L 603 4863 
z
" transform="scale(0.015625)"/>
      <path id="DejaVuSans-63" d="M 3122 3366 
L 3122 2828 
Q 2878 2963 2633 3030 
Q 2388 3097 2138 3097 
Q 1578 3097 1268 2742 
Q 959 2388 959 1747 
Q 959 1106 1268 751 
Q 1578 397 2138 397 
Q 2388 397 2633 464 
Q 2878 531 3122 666 
L 3122 134 
Q 2881 22 2623 -34 
Q 2366 -91 2075 -91 
Q 1284 -91 818 406 
Q 353 903 353 1747 
Q 353 2603 823 3093 
Q 1294 3584 2113 3584 
Q 2378 3584 2631 3529 
Q 2884 3475 3122 3366 
z
" transform="scale(0.015625)"/>
      <path id="DejaVuSans-6b" d="M 581 4863 
L 1159 4863 
L 1159 1991 
L 2875 3500 
L 3609 3500 
L 1753 1863 
L 3688 0 
L 2938 0 
L 1159 1709 
L 1159 0 
L 581 0 
L 581 4863 
z
" transform="scale(0.015625)"/>
      <path id="DejaVuSans-69" d="M 603 3500 
L 1178 3500 
L 1178 0 
L 603 0 
L 603 3500 
z
M 603 4863 
L 1178 4863 
L 1178 4134 
L 603 4134 
L 603 4863 
z
" transform="scale(0.015625)"/>
      <path id="DejaVuSans-7a" d="M 353 3500 
L 3084 3500 
L 3084 2975 
L 922 459 
L 3084 459 
L 3084 0 
L 275 0 
L 275 525 
L 2438 3041 
L 353 3041 
L 353 3500 
z
" transform="scale(0.015625)"/>
      <path id="DejaVuSans-3d" d="M 678 2906 
L 4684 2906 
L 4684 2381 
L 678 2381 
L 678 2906 
z
M 678 1631 
L 4684 1631 
L 4684 1100 
L 678 1100 
L 678 1631 
z
" transform="scale(0.015625)"/>
      <path id="DejaVuSans-4b" d="M 628 4666 
L 1259 4666 
L 1259 2694 
L 3353 4666 
L 4166 4666 
L 1850 2491 
L 4331 0 
L 3500 0 
L 1259 2247 
L 1259 0 
L 628 0 
L 628 4666 
z
" transform="scale(0.015625)"/>
      <path id="DejaVuSans-2c" d="M 750 794 
L 1409 794 
L 1409 256 
L 897 -744 
L 494 -744 
L 750 256 
L 750 794 
z
" transform="scale(0.015625)"/>
      <path id="DejaVuSans-52" d="M 2841 2188 
Q 3044 2119 3236 1894 
Q 3428 1669 3622 1275 
L 4263 0 
L 3584 0 
L 2988 1197 
Q 2756 1666 2539 1819 
Q 2322 1972 1947 1972 
L 1259 1972 
L 1259 0 
L 628 0 
L 628 4666 
L 2053 4666 
Q 2853 4666 3247 4331 
Q 3641 3997 3641 3322 
Q 3641 2881 3436 2590 
Q 3231 2300 2841 2188 
z
M 1259 4147 
L 1259 2491 
L 2053 2491 
Q 2509 2491 2742 2702 
Q 2975 2913 2975 3322 
Q 2975 3731 2742 3939 
Q 2509 4147 2053 4147 
L 1259 4147 
z
" transform="scale(0.015625)"/>
      <path id="DejaVuSans-61" d="M 2194 1759 
Q 1497 1759 1228 1600 
Q 959 1441 959 1056 
Q 959 750 1161 570 
Q 1363 391 1709 391 
Q 2188 391 2477 730 
Q 2766 1069 2766 1631 
L 2766 1759 
L 2194 1759 
z
M 3341 1997 
L 3341 0 
L 2766 0 
L 2766 531 
Q 2569 213 2275 61 
Q 1981 -91 1556 -91 
Q 1019 -91 701 211 
Q 384 513 384 1019 
Q 384 1609 779 1909 
Q 1175 2209 1959 2209 
L 2766 2209 
L 2766 2266 
Q 2766 2663 2505 2880 
Q 2244 3097 1772 3097 
Q 1472 3097 1187 3025 
Q 903 2953 641 2809 
L 641 3341 
Q 956 3463 1253 3523 
Q 1550 3584 1831 3584 
Q 2591 3584 2966 3190 
Q 3341 2797 3341 1997 
z
" transform="scale(0.015625)"/>
      <path id="DejaVuSans-64" d="M 2906 2969 
L 2906 4863 
L 3481 4863 
L 3481 0 
L 2906 0 
L 2906 525 
Q 2725 213 2448 61 
Q 2172 -91 1784 -91 
Q 1150 -91 751 415 
Q 353 922 353 1747 
Q 353 2572 751 3078 
Q 1150 3584 1784 3584 
Q 2172 3584 2448 3432 
Q 2725 3281 2906 2969 
z
M 947 1747 
Q 947 1113 1208 752 
Q 1469 391 1925 391 
Q 2381 391 2643 752 
Q 2906 1113 2906 1747 
Q 2906 2381 2643 2742 
Q 2381 3103 1925 3103 
Q 1469 3103 1208 2742 
Q 947 2381 947 1747 
z
" transform="scale(0.015625)"/>
      <path id="DejaVuSans-2d" d="M 313 2009 
L 1997 2009 
L 1997 1497 
L 313 1497 
L 313 2009 
z
" transform="scale(0.015625)"/>
      <path id="DejaVuSans-57" d="M 213 4666 
L 850 4666 
L 1831 722 
L 2809 4666 
L 3519 4666 
L 4500 722 
L 5478 4666 
L 6119 4666 
L 4947 0 
L 4153 0 
L 3169 4050 
L 2175 0 
L 1381 0 
L 213 4666 
z
" transform="scale(0.015625)"/>
      <path id="DejaVuSans-74" d="M 1172 4494 
L 1172 3500 
L 2356 3500 
L 2356 3053 
L 1172 3053 
L 1172 1153 
Q 1172 725 1289 603 
Q 1406 481 1766 481 
L 2356 481 
L 2356 0 
L 1766 0 
Q 1100 0 847 248 
Q 594 497 594 1153 
L 594 3053 
L 172 3053 
L 172 3500 
L 594 3500 
L 594 4494 
L 1172 4494 
z
" transform="scale(0.015625)"/>
      <path id="DejaVuSans-54" d="M -19 4666 
L 3928 4666 
L 3928 4134 
L 2272 4134 
L 2272 0 
L 1638 0 
L 1638 4134 
L -19 4134 
L -19 4666 
z
" transform="scale(0.015625)"/>
      <path id="DejaVuSans-79" d="M 2059 -325 
Q 1816 -950 1584 -1140 
Q 1353 -1331 966 -1331 
L 506 -1331 
L 506 -850 
L 844 -850 
Q 1081 -850 1212 -737 
Q 1344 -625 1503 -206 
L 1606 56 
L 191 3500 
L 800 3500 
L 1894 763 
L 2988 3500 
L 3597 3500 
L 2059 -325 
z
" transform="scale(0.015625)"/>
      <path id="DejaVuSans-70" d="M 1159 525 
L 1159 -1331 
L 581 -1331 
L 581 3500 
L 1159 3500 
L 1159 2969 
Q 1341 3281 1617 3432 
Q 1894 3584 2278 3584 
Q 2916 3584 3314 3078 
Q 3713 2572 3713 1747 
Q 3713 922 3314 415 
Q 2916 -91 2278 -91 
Q 1894 -91 1617 61 
Q 1341 213 1159 525 
z
M 3116 1747 
Q 3116 2381 2855 2742 
Q 2594 3103 2138 3103 
Q 1681 3103 1420 2742 
Q 1159 2381 1159 1747 
Q 1159 1113 1420 752 
Q 1681 391 2138 391 
Q 2594 391 2855 752 
Q 3116 1113 3116 1747 
z
" transform="scale(0.015625)"/>
      <path id="DejaVuSans-6e" d="M 3513 2113 
L 3513 0 
L 2938 0 
L 2938 2094 
Q 2938 2591 2744 2837 
Q 2550 3084 2163 3084 
Q 1697 3084 1428 2787 
Q 1159 2491 1159 1978 
L 1159 0 
L 581 0 
L 581 3500 
L 1159 3500 
L 1159 2956 
Q 1366 3272 1645 3428 
Q 1925 3584 2291 3584 
Q 2894 3584 3203 3211 
Q 3513 2838 3513 2113 
z
" transform="scale(0.015625)"/>
      <path id="DejaVuSans-68" d="M 3513 2113 
L 3513 0 
L 2938 0 
L 2938 2094 
Q 2938 2591 2744 2837 
Q 2550 3084 2163 3084 
Q 1697 3084 1428 2787 
Q 1159 2491 1159 1978 
L 1159 0 
L 581 0 
L 581 4863 
L 1159 4863 
L 1159 2956 
Q 1366 3272 1645 3428 
Q 1925 3584 2291 3584 
Q 2894 3584 3203 3211 
Q 3513 2838 3513 2113 
z
" transform="scale(0.015625)"/>
      <path id="DejaVuSans-76" d="M 191 3500 
L 800 3500 
L 1894 563 
L 2988 3500 
L 3597 3500 
L 2284 0 
L 1503 0 
L 191 3500 
z
" transform="scale(0.015625)"/>
      <path id="DejaVuSans-3a" d="M 750 794 
L 1409 794 
L 1409 0 
L 750 0 
L 750 794 
z
M 750 3309 
L 1409 3309 
L 1409 2516 
L 750 2516 
L 750 3309 
z
" transform="scale(0.015625)"/>
     </defs>
     <use xlink:href="#DejaVuSans-42"/>
     <use xlink:href="#DejaVuSans-6c" transform="translate(68.603516 0)"/>
     <use xlink:href="#DejaVuSans-6f" transform="translate(96.386719 0)"/>
     <use xlink:href="#DejaVuSans-63" transform="translate(157.568359 0)"/>
     <use xlink:href="#DejaVuSans-6b" transform="translate(212.548828 0)"/>
     <use xlink:href="#DejaVuSans-20" transform="translate(270.458984 0)"/>
     <use xlink:href="#DejaVuSans-53" transform="translate(302.246094 0)"/>
     <use xlink:href="#DejaVuSans-69" transform="translate(365.722656 0)"/>
     <use xlink:href="#DejaVuSans-7a" transform="translate(393.505859 0)"/>
     <use xlink:href="#DejaVuSans-65" transform="translate(445.996094 0)"/>
     <use xlink:href="#DejaVuSans-20" transform="translate(507.519531 0)"/>
     <use xlink:href="#DejaVuSans-3d" transform="translate(539.306641 0)"/>
     <use xlink:href="#DejaVuSans-20" transform="translate(623.095703 0)"/>
     <use xlink:href="#DejaVuSans-34" transform="translate(654.882812 0)"/>
     <use xlink:href="#DejaVuSans-4b" transform="translate(718.505859 0)"/>
     <use xlink:href="#DejaVuSans-2c" transform="translate(784.082031 0)"/>
     <use xlink:href="#DejaVuSans-20" transform="translate(815.869141 0)"/>
     <use xlink:href="#DejaVuSans-52" transform="translate(847.65625 0)"/>
     <use xlink:href="#DejaVuSans-65" transform="translate(912.638672 0)"/>
     <use xlink:href="#DejaVuSans-61" transform="translate(974.162109 0)"/>
     <use xlink:href="#DejaVuSans-64" transform="translate(1035.441406 0)"/>
     <use xlink:href="#DejaVuSans-2d" transform="translate(1098.917969 0)"/>
     <use xlink:href="#DejaVuSans-57" transform="translate(1131.001953 0)"/>
     <use xlink:href="#DejaVuSans-72" transform="translate(1225.378906 0)"/>
     <use xlink:href="#DejaVuSans-69" transform="translate(1266.492188 0)"/>
     <use xlink:href="#DejaVuSans-74" transform="translate(1294.275391 0)"/>
     <use xlink:href="#DejaVuSans-65" transform="translate(1333.484375 0)"/>
     <use xlink:href="#DejaVuSans-20" transform="translate(1395.007812 0)"/>
     <use xlink:href="#DejaVuSans-54" transform="translate(1426.794922 0)"/>
     <use xlink:href="#DejaVuSans-79" transform="translate(1472.253906 0)"/>
     <use xlink:href="#DejaVuSans-70" transform="translate(1531.433594 0)"/>
     <use xlink:href="#DejaVuSans-65" transform="translate(1594.910156 0)"/>
     <use xlink:href="#DejaVuSans-20" transform="translate(1656.433594 0)"/>
     <use xlink:href="#DejaVuSans-3d" transform="translate(1688.220703 0)"/>
     <use xlink:href="#DejaVuSans-20" transform="translate(1772.009766 0)"/>
     <use xlink:href="#DejaVuSans-52" transform="translate(1803.796875 0)"/>
     <use xlink:href="#DejaVuSans-61" transform="translate(1871.029297 0)"/>
     <use xlink:href="#DejaVuSans-6e" transform="translate(1932.308594 0)"/>
     <use xlink:href="#DejaVuSans-64" transform="translate(1995.6875 0)"/>
     <use xlink:href="#DejaVuSans-6f" transform="translate(2059.164062 0)"/>
     <use xlink:href="#DejaVuSans-6d" transform="translate(2120.345703 0)"/>
     <use xlink:href="#DejaVuSans-20" transform="translate(2217.757812 0)"/>
     <use xlink:href="#DejaVuSans-52" transform="translate(2249.544922 0)"/>
     <use xlink:href="#DejaVuSans-65" transform="translate(2314.527344 0)"/>
     <use xlink:href="#DejaVuSans-61" transform="translate(2376.050781 0)"/>
     <use xlink:href="#DejaVuSans-64" transform="translate(2437.330078 0)"/>
     <use xlink:href="#DejaVuSans-2d" transform="translate(2500.806641 0)"/>
     <use xlink:href="#DejaVuSans-68" transform="translate(2536.890625 0)"/>
     <use xlink:href="#DejaVuSans-65" transform="translate(2600.269531 0)"/>
     <use xlink:href="#DejaVuSans-61" transform="translate(2661.792969 0)"/>
     <use xlink:href="#DejaVuSans-76" transform="translate(2723.072266 0)"/>
     <use xlink:href="#DejaVuSans-79" transform="translate(2782.251953 0)"/>
     <use xlink:href="#DejaVuSans-20" transform="translate(2841.431641 0)"/>
     <use xlink:href="#DejaVuSans-34" transform="translate(2873.21875 0)"/>
     <use xlink:href="#DejaVuSans-3a" transform="translate(2936.841797 0)"/>
     <use xlink:href="#DejaVuSans-31" transform="translate(2970.533203 0)"/>
    </g>
   </g>
   <g id="text_23">
    <!-- IOPS vs Number of Jobs -->
    <g style="fill: #262626" transform="translate(158.541562 16.318125) scale(0.12 -0.12)">
     <defs>
      <path id="DejaVuSans-Bold-49" d="M 588 4666 
L 1791 4666 
L 1791 0 
L 588 0 
L 588 4666 
z
" transform="scale(0.015625)"/>
      <path id="DejaVuSans-Bold-4f" d="M 2719 3878 
Q 2169 3878 1866 3472 
Q 1563 3066 1563 2328 
Q 1563 1594 1866 1187 
Q 2169 781 2719 781 
Q 3272 781 3575 1187 
Q 3878 1594 3878 2328 
Q 3878 3066 3575 3472 
Q 3272 3878 2719 3878 
z
M 2719 4750 
Q 3844 4750 4481 4106 
Q 5119 3463 5119 2328 
Q 5119 1197 4481 553 
Q 3844 -91 2719 -91 
Q 1597 -91 958 553 
Q 319 1197 319 2328 
Q 319 3463 958 4106 
Q 1597 4750 2719 4750 
z
" transform="scale(0.015625)"/>
      <path id="DejaVuSans-Bold-50" d="M 588 4666 
L 2584 4666 
Q 3475 4666 3951 4270 
Q 4428 3875 4428 3144 
Q 4428 2409 3951 2014 
Q 3475 1619 2584 1619 
L 1791 1619 
L 1791 0 
L 588 0 
L 588 4666 
z
M 1791 3794 
L 1791 2491 
L 2456 2491 
Q 2806 2491 2997 2661 
Q 3188 2831 3188 3144 
Q 3188 3456 2997 3625 
Q 2806 3794 2456 3794 
L 1791 3794 
z
" transform="scale(0.015625)"/>
      <path id="DejaVuSans-Bold-53" d="M 3834 4519 
L 3834 3531 
Q 3450 3703 3084 3790 
Q 2719 3878 2394 3878 
Q 1963 3878 1756 3759 
Q 1550 3641 1550 3391 
Q 1550 3203 1689 3098 
Q 1828 2994 2194 2919 
L 2706 2816 
Q 3484 2659 3812 2340 
Q 4141 2022 4141 1434 
Q 4141 663 3683 286 
Q 3225 -91 2284 -91 
Q 1841 -91 1394 -6 
Q 947 78 500 244 
L 500 1259 
Q 947 1022 1364 901 
Q 1781 781 2169 781 
Q 2563 781 2772 912 
Q 2981 1044 2981 1288 
Q 2981 1506 2839 1625 
Q 2697 1744 2272 1838 
L 1806 1941 
Q 1106 2091 782 2419 
Q 459 2747 459 3303 
Q 459 4000 909 4375 
Q 1359 4750 2203 4750 
Q 2588 4750 2994 4692 
Q 3400 4634 3834 4519 
z
" transform="scale(0.015625)"/>
      <path id="DejaVuSans-Bold-20" transform="scale(0.015625)"/>
      <path id="DejaVuSans-Bold-76" d="M 97 3500 
L 1216 3500 
L 2088 1081 
L 2956 3500 
L 4078 3500 
L 2700 0 
L 1472 0 
L 97 3500 
z
" transform="scale(0.015625)"/>
      <path id="DejaVuSans-Bold-73" d="M 3272 3391 
L 3272 2541 
Q 2913 2691 2578 2766 
Q 2244 2841 1947 2841 
Q 1628 2841 1473 2761 
Q 1319 2681 1319 2516 
Q 1319 2381 1436 2309 
Q 1553 2238 1856 2203 
L 2053 2175 
Q 2913 2066 3209 1816 
Q 3506 1566 3506 1031 
Q 3506 472 3093 190 
Q 2681 -91 1863 -91 
Q 1516 -91 1145 -36 
Q 775 19 384 128 
L 384 978 
Q 719 816 1070 734 
Q 1422 653 1784 653 
Q 2113 653 2278 743 
Q 2444 834 2444 1013 
Q 2444 1163 2330 1236 
Q 2216 1309 1875 1350 
L 1678 1375 
Q 931 1469 631 1722 
Q 331 1975 331 2491 
Q 331 3047 712 3315 
Q 1094 3584 1881 3584 
Q 2191 3584 2531 3537 
Q 2872 3491 3272 3391 
z
" transform="scale(0.015625)"/>
      <path id="DejaVuSans-Bold-4e" d="M 588 4666 
L 1931 4666 
L 3628 1466 
L 3628 4666 
L 4769 4666 
L 4769 0 
L 3425 0 
L 1728 3200 
L 1728 0 
L 588 0 
L 588 4666 
z
" transform="scale(0.015625)"/>
      <path id="DejaVuSans-Bold-75" d="M 500 1363 
L 500 3500 
L 1625 3500 
L 1625 3150 
Q 1625 2866 1622 2436 
Q 1619 2006 1619 1863 
Q 1619 1441 1641 1255 
Q 1663 1069 1716 984 
Q 1784 875 1895 815 
Q 2006 756 2150 756 
Q 2500 756 2700 1025 
Q 2900 1294 2900 1772 
L 2900 3500 
L 4019 3500 
L 4019 0 
L 2900 0 
L 2900 506 
Q 2647 200 2364 54 
Q 2081 -91 1741 -91 
Q 1134 -91 817 281 
Q 500 653 500 1363 
z
" transform="scale(0.015625)"/>
      <path id="DejaVuSans-Bold-6d" d="M 3781 2919 
Q 3994 3244 4286 3414 
Q 4578 3584 4928 3584 
Q 5531 3584 5847 3212 
Q 6163 2841 6163 2131 
L 6163 0 
L 5038 0 
L 5038 1825 
Q 5041 1866 5042 1909 
Q 5044 1953 5044 2034 
Q 5044 2406 4934 2573 
Q 4825 2741 4581 2741 
Q 4263 2741 4089 2478 
Q 3916 2216 3909 1719 
L 3909 0 
L 2784 0 
L 2784 1825 
Q 2784 2406 2684 2573 
Q 2584 2741 2328 2741 
Q 2006 2741 1831 2477 
Q 1656 2213 1656 1722 
L 1656 0 
L 531 0 
L 531 3500 
L 1656 3500 
L 1656 2988 
Q 1863 3284 2130 3434 
Q 2397 3584 2719 3584 
Q 3081 3584 3359 3409 
Q 3638 3234 3781 2919 
z
" transform="scale(0.015625)"/>
      <path id="DejaVuSans-Bold-62" d="M 2400 722 
Q 2759 722 2948 984 
Q 3138 1247 3138 1747 
Q 3138 2247 2948 2509 
Q 2759 2772 2400 2772 
Q 2041 2772 1848 2508 
Q 1656 2244 1656 1747 
Q 1656 1250 1848 986 
Q 2041 722 2400 722 
z
M 1656 2988 
Q 1888 3294 2169 3439 
Q 2450 3584 2816 3584 
Q 3463 3584 3878 3070 
Q 4294 2556 4294 1747 
Q 4294 938 3878 423 
Q 3463 -91 2816 -91 
Q 2450 -91 2169 54 
Q 1888 200 1656 506 
L 1656 0 
L 538 0 
L 538 4863 
L 1656 4863 
L 1656 2988 
z
" transform="scale(0.015625)"/>
      <path id="DejaVuSans-Bold-65" d="M 4031 1759 
L 4031 1441 
L 1416 1441 
Q 1456 1047 1700 850 
Q 1944 653 2381 653 
Q 2734 653 3104 758 
Q 3475 863 3866 1075 
L 3866 213 
Q 3469 63 3072 -14 
Q 2675 -91 2278 -91 
Q 1328 -91 801 392 
Q 275 875 275 1747 
Q 275 2603 792 3093 
Q 1309 3584 2216 3584 
Q 3041 3584 3536 3087 
Q 4031 2591 4031 1759 
z
M 2881 2131 
Q 2881 2450 2695 2645 
Q 2509 2841 2209 2841 
Q 1884 2841 1681 2658 
Q 1478 2475 1428 2131 
L 2881 2131 
z
" transform="scale(0.015625)"/>
      <path id="DejaVuSans-Bold-72" d="M 3138 2547 
Q 2991 2616 2845 2648 
Q 2700 2681 2553 2681 
Q 2122 2681 1889 2404 
Q 1656 2128 1656 1613 
L 1656 0 
L 538 0 
L 538 3500 
L 1656 3500 
L 1656 2925 
Q 1872 3269 2151 3426 
Q 2431 3584 2822 3584 
Q 2878 3584 2943 3579 
Q 3009 3575 3134 3559 
L 3138 2547 
z
" transform="scale(0.015625)"/>
      <path id="DejaVuSans-Bold-6f" d="M 2203 2784 
Q 1831 2784 1636 2517 
Q 1441 2250 1441 1747 
Q 1441 1244 1636 976 
Q 1831 709 2203 709 
Q 2569 709 2762 976 
Q 2956 1244 2956 1747 
Q 2956 2250 2762 2517 
Q 2569 2784 2203 2784 
z
M 2203 3584 
Q 3106 3584 3614 3096 
Q 4122 2609 4122 1747 
Q 4122 884 3614 396 
Q 3106 -91 2203 -91 
Q 1297 -91 786 396 
Q 275 884 275 1747 
Q 275 2609 786 3096 
Q 1297 3584 2203 3584 
z
" transform="scale(0.015625)"/>
      <path id="DejaVuSans-Bold-66" d="M 2841 4863 
L 2841 4128 
L 2222 4128 
Q 1984 4128 1890 4042 
Q 1797 3956 1797 3744 
L 1797 3500 
L 2753 3500 
L 2753 2700 
L 1797 2700 
L 1797 0 
L 678 0 
L 678 2700 
L 122 2700 
L 122 3500 
L 678 3500 
L 678 3744 
Q 678 4316 997 4589 
Q 1316 4863 1984 4863 
L 2841 4863 
z
" transform="scale(0.015625)"/>
      <path id="DejaVuSans-Bold-4a" d="M 588 4666 
L 1791 4666 
L 1791 453 
Q 1791 -419 1317 -850 
Q 844 -1281 -116 -1281 
L -359 -1281 
L -359 -372 
L -172 -372 
Q 203 -372 395 -162 
Q 588 47 588 453 
L 588 4666 
z
" transform="scale(0.015625)"/>
     </defs>
     <use xlink:href="#DejaVuSans-Bold-49"/>
     <use xlink:href="#DejaVuSans-Bold-4f" transform="translate(37.207031 0)"/>
     <use xlink:href="#DejaVuSans-Bold-50" transform="translate(122.216797 0)"/>
     <use xlink:href="#DejaVuSans-Bold-53" transform="translate(195.507812 0)"/>
     <use xlink:href="#DejaVuSans-Bold-20" transform="translate(267.529297 0)"/>
     <use xlink:href="#DejaVuSans-Bold-76" transform="translate(302.34375 0)"/>
     <use xlink:href="#DejaVuSans-Bold-73" transform="translate(367.529297 0)"/>
     <use xlink:href="#DejaVuSans-Bold-20" transform="translate(427.050781 0)"/>
     <use xlink:href="#DejaVuSans-Bold-4e" transform="translate(461.865234 0)"/>
     <use xlink:href="#DejaVuSans-Bold-75" transform="translate(545.556641 0)"/>
     <use xlink:href="#DejaVuSans-Bold-6d" transform="translate(616.748047 0)"/>
     <use xlink:href="#DejaVuSans-Bold-62" transform="translate(720.947266 0)"/>
     <use xlink:href="#DejaVuSans-Bold-65" transform="translate(792.529297 0)"/>
     <use xlink:href="#DejaVuSans-Bold-72" transform="translate(860.351562 0)"/>
     <use xlink:href="#DejaVuSans-Bold-20" transform="translate(909.667969 0)"/>
     <use xlink:href="#DejaVuSans-Bold-6f" transform="translate(944.482422 0)"/>
     <use xlink:href="#DejaVuSans-Bold-66" transform="translate(1013.183594 0)"/>
     <use xlink:href="#DejaVuSans-Bold-20" transform="translate(1056.689453 0)"/>
     <use xlink:href="#DejaVuSans-Bold-4a" transform="translate(1091.503906 0)"/>
     <use xlink:href="#DejaVuSans-Bold-6f" transform="translate(1128.710938 0)"/>
     <use xlink:href="#DejaVuSans-Bold-62" transform="translate(1197.412109 0)"/>
     <use xlink:href="#DejaVuSans-Bold-73" transform="translate(1268.994141 0)"/>
    </g>
   </g>
   <g id="legend_1">
    <g id="text_24">
     <!-- IO Depth -->
     <g style="fill: #262626" transform="translate(451.317187 120.065663) scale(0.1 -0.1)">
      <defs>
       <path id="DejaVuSans-44" d="M 1259 4147 
L 1259 519 
L 2022 519 
Q 2988 519 3436 956 
Q 3884 1394 3884 2338 
Q 3884 3275 3436 3711 
Q 2988 4147 2022 4147 
L 1259 4147 
z
M 628 4666 
L 1925 4666 
Q 3281 4666 3915 4102 
Q 4550 3538 4550 2338 
Q 4550 1131 3912 565 
Q 3275 0 1925 0 
L 628 0 
L 628 4666 
z
" transform="scale(0.015625)"/>
      </defs>
      <use xlink:href="#DejaVuSans-49"/>
      <use xlink:href="#DejaVuSans-4f" transform="translate(29.492188 0)"/>
      <use xlink:href="#DejaVuSans-20" transform="translate(108.203125 0)"/>
      <use xlink:href="#DejaVuSans-44" transform="translate(139.990234 0)"/>
      <use xlink:href="#DejaVuSans-65" transform="translate(216.992188 0)"/>
      <use xlink:href="#DejaVuSans-70" transform="translate(278.515625 0)"/>
      <use xlink:href="#DejaVuSans-74" transform="translate(341.992188 0)"/>
      <use xlink:href="#DejaVuSans-68" transform="translate(381.201172 0)"/>
     </g>
    </g>
    <g id="line2d_27">
     <path d="M 450.003125 131.243787 
L 460.003125 131.243787 
L 470.003125 131.243787 
" style="fill: none; stroke: #4c02a1; stroke-width: 1.5; stroke-linecap: round"/>
    </g>
    <g id="text_25">
     <!-- 1 -->
     <g style="fill: #262626" transform="translate(478.003125 134.743787) scale(0.1 -0.1)">
      <use xlink:href="#DejaVuSans-31"/>
     </g>
    </g>
    <g id="line2d_28">
     <path d="M 450.003125 145.921913 
L 460.003125 145.921913 
L 470.003125 145.921913 
" style="fill: none; stroke: #7e03a8; stroke-width: 1.5; stroke-linecap: round"/>
    </g>
    <g id="text_26">
     <!-- 4 -->
     <g style="fill: #262626" transform="translate(478.003125 149.421913) scale(0.1 -0.1)">
      <use xlink:href="#DejaVuSans-34"/>
     </g>
    </g>
    <g id="line2d_29">
     <path d="M 450.003125 160.600037 
L 460.003125 160.600037 
L 470.003125 160.600037 
" style="fill: none; stroke: #aa2395; stroke-width: 1.5; stroke-linecap: round"/>
    </g>
    <g id="text_27">
     <!-- 8 -->
     <g style="fill: #262626" transform="translate(478.003125 164.100037) scale(0.1 -0.1)">
      <use xlink:href="#DejaVuSans-38"/>
     </g>
    </g>
    <g id="line2d_30">
     <path d="M 450.003125 175.278163 
L 460.003125 175.278163 
L 470.003125 175.278163 
" style="fill: none; stroke: #cc4778; stroke-width: 1.5; stroke-linecap: round"/>
    </g>
    <g id="text_28">
     <!-- 16 -->
     <g style="fill: #262626" transform="translate(478.003125 178.778163) scale(0.1 -0.1)">
      <use xlink:href="#DejaVuSans-31"/>
      <use xlink:href="#DejaVuSans-36" transform="translate(63.623047 0)"/>
     </g>
    </g>
    <g id="line2d_31">
     <path d="M 450.003125 189.956288 
L 460.003125 189.956288 
L 470.003125 189.956288 
" style="fill: none; stroke: #e66c5c; stroke-width: 1.5; stroke-linecap: round"/>
    </g>
    <g id="text_29">
     <!-- 32 -->
     <g style="fill: #262626" transform="translate(478.003125 193.456288) scale(0.1 -0.1)">
      <use xlink:href="#DejaVuSans-33"/>
      <use xlink:href="#DejaVuSans-32" transform="translate(63.623047 0)"/>
     </g>
    </g>
    <g id="line2d_32">
     <path d="M 450.003125 204.634412 
L 460.003125 204.634412 
L 470.003125 204.634412 
" style="fill: none; stroke: #f89540; stroke-width: 1.5; stroke-linecap: round"/>
    </g>
    <g id="text_30">
     <!-- 64 -->
     <g style="fill: #262626" transform="translate(478.003125 208.134412) scale(0.1 -0.1)">
      <use xlink:href="#DejaVuSans-36"/>
      <use xlink:href="#DejaVuSans-34" transform="translate(63.623047 0)"/>
     </g>
    </g>
    <g id="line2d_33">
     <path d="M 450.003125 219.312537 
L 460.003125 219.312537 
L 470.003125 219.312537 
" style="fill: none; stroke: #fdc527; stroke-width: 1.5; stroke-linecap: round"/>
    </g>
    <g id="text_31">
     <!-- 128 -->
     <g style="fill: #262626" transform="translate(478.003125 222.812537) scale(0.1 -0.1)">
      <use xlink:href="#DejaVuSans-31"/>
      <use xlink:href="#DejaVuSans-32" transform="translate(63.623047 0)"/>
      <use xlink:href="#DejaVuSans-38" transform="translate(127.246094 0)"/>
     </g>
    </g>
   </g>
  </g>
 </g>
 <defs>
  <clipPath id="pd1c0da9f1a">
   <rect x="59.690625" y="35.623725" width="357.12" height="266.112"/>
  </clipPath>
 </defs>
</svg>
