<?xml version="1.0" encoding="utf-8" standalone="no"?>
<!DOCTYPE svg PUBLIC "-//W3C//DTD SVG 1.1//EN"
  "http://www.w3.org/Graphics/SVG/1.1/DTD/svg11.dtd">
<svg xmlns:xlink="http://www.w3.org/1999/xlink" width="501.928125pt" height="339.291975pt" viewBox="0 0 501.928125 339.291975" xmlns="http://www.w3.org/2000/svg" version="1.1">
 <metadata>
  <rdf:RDF xmlns:dc="http://purl.org/dc/elements/1.1/" xmlns:cc="http://creativecommons.org/ns#" xmlns:rdf="http://www.w3.org/1999/02/22-rdf-syntax-ns#">
   <cc:Work>
    <dc:type rdf:resource="http://purl.org/dc/dcmitype/StillImage"/>
    <dc:date>2025-09-11T11:34:26.497646</dc:date>
    <dc:format>image/svg+xml</dc:format>
    <dc:creator>
     <cc:Agent>
      <dc:title>Matplotlib v3.10.6, https://matplotlib.org/</dc:title>
     </cc:Agent>
    </dc:creator>
   </cc:Work>
  </rdf:RDF>
 </metadata>
 <defs>
  <style type="text/css">*{stroke-linejoin: round; stroke-linecap: butt}</style>
 </defs>
 <g id="figure_1">
  <g id="patch_1">
   <path d="M 0 339.291975 
L 501.928125 339.291975 
L 501.928125 0 
L 0 0 
z
" style="fill: #ffffff"/>
  </g>
  <g id="axes_1">
   <g id="patch_2">
    <path d="M 53.328125 301.735725 
L 410.448125 301.735725 
L 410.448125 35.623725 
L 53.328125 35.623725 
z
" style="fill: #ffffff"/>
   </g>
   <g id="matplotlib.axis_1">
    <g id="xtick_1">
     <g id="line2d_1">
      <path d="M 208.698515 301.735725 
L 208.698515 35.623725 
" clip-path="url(#p6f0b6453c3)" style="fill: none; stroke: #cccccc; stroke-width: 0.8; stroke-linecap: round"/>
     </g>
     <g id="text_1">
      <!-- 64 -->
      <g style="fill: #262626" transform="translate(202.336015 316.334162) scale(0.1 -0.1)">
       <defs>
        <path id="DejaVuSans-36" d="M 2113 2584 
Q 1688 2584 1439 2293 
Q 1191 2003 1191 1497 
Q 1191 994 1439 701 
Q 1688 409 2113 409 
Q 2538 409 2786 701 
Q 3034 994 3034 1497 
Q 3034 2003 2786 2293 
Q 2538 2584 2113 2584 
z
M 3366 4563 
L 3366 3988 
Q 3128 4100 2886 4159 
Q 2644 4219 2406 4219 
Q 1781 4219 1451 3797 
Q 1122 3375 1075 2522 
Q 1259 2794 1537 2939 
Q 1816 3084 2150 3084 
Q 2853 3084 3261 2657 
Q 3669 2231 3669 1497 
Q 3669 778 3244 343 
Q 2819 -91 2113 -91 
Q 1303 -91 875 529 
Q 447 1150 447 2328 
Q 447 3434 972 4092 
Q 1497 4750 2381 4750 
Q 2619 4750 2861 4703 
Q 3103 4656 3366 4563 
z
" transform="scale(0.015625)"/>
        <path id="DejaVuSans-34" d="M 2419 4116 
L 825 1625 
L 2419 1625 
L 2419 4116 
z
M 2253 4666 
L 3047 4666 
L 3047 1625 
L 3713 1625 
L 3713 1100 
L 3047 1100 
L 3047 0 
L 2419 0 
L 2419 1100 
L 313 1100 
L 313 1709 
L 2253 4666 
z
" transform="scale(0.015625)"/>
       </defs>
       <use xlink:href="#DejaVuSans-36"/>
       <use xlink:href="#DejaVuSans-34" transform="translate(63.623047 0)"/>
      </g>
     </g>
    </g>
    <g id="xtick_2">
     <g id="line2d_2">
      <path d="M 69.560852 301.735725 
L 69.560852 35.623725 
" clip-path="url(#p6f0b6453c3)" style="fill: none; stroke: #cccccc; stroke-width: 0.8; stroke-linecap: round"/>
     </g>
     <g id="text_2">
      <!-- 16 -->
      <g style="fill: #262626" transform="translate(63.198352 316.334162) scale(0.1 -0.1)">
       <defs>
        <path id="DejaVuSans-31" d="M 794 531 
L 1825 531 
L 1825 4091 
L 703 3866 
L 703 4441 
L 1819 4666 
L 2450 4666 
L 2450 531 
L 3481 531 
L 3481 0 
L 794 0 
L 794 531 
z
" transform="scale(0.015625)"/>
       </defs>
       <use xlink:href="#DejaVuSans-31"/>
       <use xlink:href="#DejaVuSans-36" transform="translate(63.623047 0)"/>
      </g>
     </g>
    </g>
    <g id="xtick_3">
     <g id="line2d_3">
      <path d="M 115.940073 301.735725 
L 115.940073 35.623725 
" clip-path="url(#p6f0b6453c3)" style="fill: none; stroke: #cccccc; stroke-width: 0.8; stroke-linecap: round"/>
     </g>
     <g id="text_3">
      <!-- 32 -->
      <g style="fill: #262626" transform="translate(109.577573 316.334162) scale(0.1 -0.1)">
       <defs>
        <path id="DejaVuSans-33" d="M 2597 2516 
Q 3050 2419 3304 2112 
Q 3559 1806 3559 1356 
Q 3559 666 3084 287 
Q 2609 -91 1734 -91 
Q 1441 -91 1130 -33 
Q 819 25 488 141 
L 488 750 
Q 750 597 1062 519 
Q 1375 441 1716 441 
Q 2309 441 2620 675 
Q 2931 909 2931 1356 
Q 2931 1769 2642 2001 
Q 2353 2234 1838 2234 
L 1294 2234 
L 1294 2753 
L 1863 2753 
Q 2328 2753 2575 2939 
Q 2822 3125 2822 3475 
Q 2822 3834 2567 4026 
Q 2313 4219 1838 4219 
Q 1578 4219 1281 4162 
Q 984 4106 628 3988 
L 628 4550 
Q 988 4650 1302 4700 
Q 1616 4750 1894 4750 
Q 2613 4750 3031 4423 
Q 3450 4097 3450 3541 
Q 3450 3153 3228 2886 
Q 3006 2619 2597 2516 
z
" transform="scale(0.015625)"/>
        <path id="DejaVuSans-32" d="M 1228 531 
L 3431 531 
L 3431 0 
L 469 0 
L 469 531 
Q 828 903 1448 1529 
Q 2069 2156 2228 2338 
Q 2531 2678 2651 2914 
Q 2772 3150 2772 3378 
Q 2772 3750 2511 3984 
Q 2250 4219 1831 4219 
Q 1534 4219 1204 4116 
Q 875 4013 500 3803 
L 500 4441 
Q 881 4594 1212 4672 
Q 1544 4750 1819 4750 
Q 2544 4750 2975 4387 
Q 3406 4025 3406 3419 
Q 3406 3131 3298 2873 
Q 3191 2616 2906 2266 
Q 2828 2175 2409 1742 
Q 1991 1309 1228 531 
z
" transform="scale(0.015625)"/>
       </defs>
       <use xlink:href="#DejaVuSans-33"/>
       <use xlink:href="#DejaVuSans-32" transform="translate(63.623047 0)"/>
      </g>
     </g>
    </g>
    <g id="xtick_4">
     <g id="line2d_4">
      <path d="M 394.215398 301.735725 
L 394.215398 35.623725 
" clip-path="url(#p6f0b6453c3)" style="fill: none; stroke: #cccccc; stroke-width: 0.8; stroke-linecap: round"/>
     </g>
     <g id="text_4">
      <!-- 128 -->
      <g style="fill: #262626" transform="translate(384.671648 316.334162) scale(0.1 -0.1)">
       <defs>
        <path id="DejaVuSans-38" d="M 2034 2216 
Q 1584 2216 1326 1975 
Q 1069 1734 1069 1313 
Q 1069 891 1326 650 
Q 1584 409 2034 409 
Q 2484 409 2743 651 
Q 3003 894 3003 1313 
Q 3003 1734 2745 1975 
Q 2488 2216 2034 2216 
z
M 1403 2484 
Q 997 2584 770 2862 
Q 544 3141 544 3541 
Q 544 4100 942 4425 
Q 1341 4750 2034 4750 
Q 2731 4750 3128 4425 
Q 3525 4100 3525 3541 
Q 3525 3141 3298 2862 
Q 3072 2584 2669 2484 
Q 3125 2378 3379 2068 
Q 3634 1759 3634 1313 
Q 3634 634 3220 271 
Q 2806 -91 2034 -91 
Q 1263 -91 848 271 
Q 434 634 434 1313 
Q 434 1759 690 2068 
Q 947 2378 1403 2484 
z
M 1172 3481 
Q 1172 3119 1398 2916 
Q 1625 2713 2034 2713 
Q 2441 2713 2670 2916 
Q 2900 3119 2900 3481 
Q 2900 3844 2670 4047 
Q 2441 4250 2034 4250 
Q 1625 4250 1398 4047 
Q 1172 3844 1172 3481 
z
" transform="scale(0.015625)"/>
       </defs>
       <use xlink:href="#DejaVuSans-31"/>
       <use xlink:href="#DejaVuSans-32" transform="translate(63.623047 0)"/>
       <use xlink:href="#DejaVuSans-38" transform="translate(127.246094 0)"/>
      </g>
     </g>
    </g>
    <g id="text_5">
     <!-- Number of Jobs -->
     <g style="fill: #262626" transform="translate(193.49125 330.012287) scale(0.1 -0.1)">
      <defs>
       <path id="DejaVuSans-4e" d="M 628 4666 
L 1478 4666 
L 3547 763 
L 3547 4666 
L 4159 4666 
L 4159 0 
L 3309 0 
L 1241 3903 
L 1241 0 
L 628 0 
L 628 4666 
z
" transform="scale(0.015625)"/>
       <path id="DejaVuSans-75" d="M 544 1381 
L 544 3500 
L 1119 3500 
L 1119 1403 
Q 1119 906 1312 657 
Q 1506 409 1894 409 
Q 2359 409 2629 706 
Q 2900 1003 2900 1516 
L 2900 3500 
L 3475 3500 
L 3475 0 
L 2900 0 
L 2900 538 
Q 2691 219 2414 64 
Q 2138 -91 1772 -91 
Q 1169 -91 856 284 
Q 544 659 544 1381 
z
M 1991 3584 
L 1991 3584 
z
" transform="scale(0.015625)"/>
       <path id="DejaVuSans-6d" d="M 3328 2828 
Q 3544 3216 3844 3400 
Q 4144 3584 4550 3584 
Q 5097 3584 5394 3201 
Q 5691 2819 5691 2113 
L 5691 0 
L 5113 0 
L 5113 2094 
Q 5113 2597 4934 2840 
Q 4756 3084 4391 3084 
Q 3944 3084 3684 2787 
Q 3425 2491 3425 1978 
L 3425 0 
L 2847 0 
L 2847 2094 
Q 2847 2600 2669 2842 
Q 2491 3084 2119 3084 
Q 1678 3084 1418 2786 
Q 1159 2488 1159 1978 
L 1159 0 
L 581 0 
L 581 3500 
L 1159 3500 
L 1159 2956 
Q 1356 3278 1631 3431 
Q 1906 3584 2284 3584 
Q 2666 3584 2933 3390 
Q 3200 3197 3328 2828 
z
" transform="scale(0.015625)"/>
       <path id="DejaVuSans-62" d="M 3116 1747 
Q 3116 2381 2855 2742 
Q 2594 3103 2138 3103 
Q 1681 3103 1420 2742 
Q 1159 2381 1159 1747 
Q 1159 1113 1420 752 
Q 1681 391 2138 391 
Q 2594 391 2855 752 
Q 3116 1113 3116 1747 
z
M 1159 2969 
Q 1341 3281 1617 3432 
Q 1894 3584 2278 3584 
Q 2916 3584 3314 3078 
Q 3713 2572 3713 1747 
Q 3713 922 3314 415 
Q 2916 -91 2278 -91 
Q 1894 -91 1617 61 
Q 1341 213 1159 525 
L 1159 0 
L 581 0 
L 581 4863 
L 1159 4863 
L 1159 2969 
z
" transform="scale(0.015625)"/>
       <path id="DejaVuSans-65" d="M 3597 1894 
L 3597 1613 
L 953 1613 
Q 991 1019 1311 708 
Q 1631 397 2203 397 
Q 2534 397 2845 478 
Q 3156 559 3463 722 
L 3463 178 
Q 3153 47 2828 -22 
Q 2503 -91 2169 -91 
Q 1331 -91 842 396 
Q 353 884 353 1716 
Q 353 2575 817 3079 
Q 1281 3584 2069 3584 
Q 2775 3584 3186 3129 
Q 3597 2675 3597 1894 
z
M 3022 2063 
Q 3016 2534 2758 2815 
Q 2500 3097 2075 3097 
Q 1594 3097 1305 2825 
Q 1016 2553 972 2059 
L 3022 2063 
z
" transform="scale(0.015625)"/>
       <path id="DejaVuSans-72" d="M 2631 2963 
Q 2534 3019 2420 3045 
Q 2306 3072 2169 3072 
Q 1681 3072 1420 2755 
Q 1159 2438 1159 1844 
L 1159 0 
L 581 0 
L 581 3500 
L 1159 3500 
L 1159 2956 
Q 1341 3275 1631 3429 
Q 1922 3584 2338 3584 
Q 2397 3584 2469 3576 
Q 2541 3569 2628 3553 
L 2631 2963 
z
" transform="scale(0.015625)"/>
       <path id="DejaVuSans-20" transform="scale(0.015625)"/>
       <path id="DejaVuSans-6f" d="M 1959 3097 
Q 1497 3097 1228 2736 
Q 959 2375 959 1747 
Q 959 1119 1226 758 
Q 1494 397 1959 397 
Q 2419 397 2687 759 
Q 2956 1122 2956 1747 
Q 2956 2369 2687 2733 
Q 2419 3097 1959 3097 
z
M 1959 3584 
Q 2709 3584 3137 3096 
Q 3566 2609 3566 1747 
Q 3566 888 3137 398 
Q 2709 -91 1959 -91 
Q 1206 -91 779 398 
Q 353 888 353 1747 
Q 353 2609 779 3096 
Q 1206 3584 1959 3584 
z
" transform="scale(0.015625)"/>
       <path id="DejaVuSans-66" d="M 2375 4863 
L 2375 4384 
L 1825 4384 
Q 1516 4384 1395 4259 
Q 1275 4134 1275 3809 
L 1275 3500 
L 2222 3500 
L 2222 3053 
L 1275 3053 
L 1275 0 
L 697 0 
L 697 3053 
L 147 3053 
L 147 3500 
L 697 3500 
L 697 3744 
Q 697 4328 969 4595 
Q 1241 4863 1831 4863 
L 2375 4863 
z
" transform="scale(0.015625)"/>
       <path id="DejaVuSans-4a" d="M 628 4666 
L 1259 4666 
L 1259 325 
Q 1259 -519 939 -900 
Q 619 -1281 -91 -1281 
L -331 -1281 
L -331 -750 
L -134 -750 
Q 284 -750 456 -515 
Q 628 -281 628 325 
L 628 4666 
z
" transform="scale(0.015625)"/>
       <path id="DejaVuSans-73" d="M 2834 3397 
L 2834 2853 
Q 2591 2978 2328 3040 
Q 2066 3103 1784 3103 
Q 1356 3103 1142 2972 
Q 928 2841 928 2578 
Q 928 2378 1081 2264 
Q 1234 2150 1697 2047 
L 1894 2003 
Q 2506 1872 2764 1633 
Q 3022 1394 3022 966 
Q 3022 478 2636 193 
Q 2250 -91 1575 -91 
Q 1294 -91 989 -36 
Q 684 19 347 128 
L 347 722 
Q 666 556 975 473 
Q 1284 391 1588 391 
Q 1994 391 2212 530 
Q 2431 669 2431 922 
Q 2431 1156 2273 1281 
Q 2116 1406 1581 1522 
L 1381 1569 
Q 847 1681 609 1914 
Q 372 2147 372 2553 
Q 372 3047 722 3315 
Q 1072 3584 1716 3584 
Q 2034 3584 2315 3537 
Q 2597 3491 2834 3397 
z
" transform="scale(0.015625)"/>
      </defs>
      <use xlink:href="#DejaVuSans-4e"/>
      <use xlink:href="#DejaVuSans-75" transform="translate(74.804688 0)"/>
      <use xlink:href="#DejaVuSans-6d" transform="translate(138.183594 0)"/>
      <use xlink:href="#DejaVuSans-62" transform="translate(235.595703 0)"/>
      <use xlink:href="#DejaVuSans-65" transform="translate(299.072266 0)"/>
      <use xlink:href="#DejaVuSans-72" transform="translate(360.595703 0)"/>
      <use xlink:href="#DejaVuSans-20" transform="translate(401.708984 0)"/>
      <use xlink:href="#DejaVuSans-6f" transform="translate(433.496094 0)"/>
      <use xlink:href="#DejaVuSans-66" transform="translate(494.677734 0)"/>
      <use xlink:href="#DejaVuSans-20" transform="translate(529.882812 0)"/>
      <use xlink:href="#DejaVuSans-4a" transform="translate(561.669922 0)"/>
      <use xlink:href="#DejaVuSans-6f" transform="translate(591.162109 0)"/>
      <use xlink:href="#DejaVuSans-62" transform="translate(652.34375 0)"/>
      <use xlink:href="#DejaVuSans-73" transform="translate(715.820312 0)"/>
     </g>
    </g>
   </g>
   <g id="matplotlib.axis_2">
    <g id="ytick_1">
     <g id="line2d_5">
      <path d="M 53.328125 256.053246 
L 410.448125 256.053246 
" clip-path="url(#p6f0b6453c3)" style="fill: none; stroke: #cccccc; stroke-width: 0.8; stroke-linecap: round"/>
     </g>
     <g id="text_6">
      <!-- 1200 -->
      <g style="fill: #262626" transform="translate(20.878125 259.852465) scale(0.1 -0.1)">
       <defs>
        <path id="DejaVuSans-30" d="M 2034 4250 
Q 1547 4250 1301 3770 
Q 1056 3291 1056 2328 
Q 1056 1369 1301 889 
Q 1547 409 2034 409 
Q 2525 409 2770 889 
Q 3016 1369 3016 2328 
Q 3016 3291 2770 3770 
Q 2525 4250 2034 4250 
z
M 2034 4750 
Q 2819 4750 3233 4129 
Q 3647 3509 3647 2328 
Q 3647 1150 3233 529 
Q 2819 -91 2034 -91 
Q 1250 -91 836 529 
Q 422 1150 422 2328 
Q 422 3509 836 4129 
Q 1250 4750 2034 4750 
z
" transform="scale(0.015625)"/>
       </defs>
       <use xlink:href="#DejaVuSans-31"/>
       <use xlink:href="#DejaVuSans-32" transform="translate(63.623047 0)"/>
       <use xlink:href="#DejaVuSans-30" transform="translate(127.246094 0)"/>
       <use xlink:href="#DejaVuSans-30" transform="translate(190.869141 0)"/>
      </g>
     </g>
    </g>
    <g id="ytick_2">
     <g id="line2d_6">
      <path d="M 53.328125 207.37719 
L 410.448125 207.37719 
" clip-path="url(#p6f0b6453c3)" style="fill: none; stroke: #cccccc; stroke-width: 0.8; stroke-linecap: round"/>
     </g>
     <g id="text_7">
      <!-- 1300 -->
      <g style="fill: #262626" transform="translate(20.878125 211.176409) scale(0.1 -0.1)">
       <use xlink:href="#DejaVuSans-31"/>
       <use xlink:href="#DejaVuSans-33" transform="translate(63.623047 0)"/>
       <use xlink:href="#DejaVuSans-30" transform="translate(127.246094 0)"/>
       <use xlink:href="#DejaVuSans-30" transform="translate(190.869141 0)"/>
      </g>
     </g>
    </g>
    <g id="ytick_3">
     <g id="line2d_7">
      <path d="M 53.328125 158.701133 
L 410.448125 158.701133 
" clip-path="url(#p6f0b6453c3)" style="fill: none; stroke: #cccccc; stroke-width: 0.8; stroke-linecap: round"/>
     </g>
     <g id="text_8">
      <!-- 1400 -->
      <g style="fill: #262626" transform="translate(20.878125 162.500352) scale(0.1 -0.1)">
       <use xlink:href="#DejaVuSans-31"/>
       <use xlink:href="#DejaVuSans-34" transform="translate(63.623047 0)"/>
       <use xlink:href="#DejaVuSans-30" transform="translate(127.246094 0)"/>
       <use xlink:href="#DejaVuSans-30" transform="translate(190.869141 0)"/>
      </g>
     </g>
    </g>
    <g id="ytick_4">
     <g id="line2d_8">
      <path d="M 53.328125 110.025077 
L 410.448125 110.025077 
" clip-path="url(#p6f0b6453c3)" style="fill: none; stroke: #cccccc; stroke-width: 0.8; stroke-linecap: round"/>
     </g>
     <g id="text_9">
      <!-- 1500 -->
      <g style="fill: #262626" transform="translate(20.878125 113.824296) scale(0.1 -0.1)">
       <defs>
        <path id="DejaVuSans-35" d="M 691 4666 
L 3169 4666 
L 3169 4134 
L 1269 4134 
L 1269 2991 
Q 1406 3038 1543 3061 
Q 1681 3084 1819 3084 
Q 2600 3084 3056 2656 
Q 3513 2228 3513 1497 
Q 3513 744 3044 326 
Q 2575 -91 1722 -91 
Q 1428 -91 1123 -41 
Q 819 9 494 109 
L 494 744 
Q 775 591 1075 516 
Q 1375 441 1709 441 
Q 2250 441 2565 725 
Q 2881 1009 2881 1497 
Q 2881 1984 2565 2268 
Q 2250 2553 1709 2553 
Q 1456 2553 1204 2497 
Q 953 2441 691 2322 
L 691 4666 
z
" transform="scale(0.015625)"/>
       </defs>
       <use xlink:href="#DejaVuSans-31"/>
       <use xlink:href="#DejaVuSans-35" transform="translate(63.623047 0)"/>
       <use xlink:href="#DejaVuSans-30" transform="translate(127.246094 0)"/>
       <use xlink:href="#DejaVuSans-30" transform="translate(190.869141 0)"/>
      </g>
     </g>
    </g>
    <g id="ytick_5">
     <g id="line2d_9">
      <path d="M 53.328125 61.349021 
L 410.448125 61.349021 
" clip-path="url(#p6f0b6453c3)" style="fill: none; stroke: #cccccc; stroke-width: 0.8; stroke-linecap: round"/>
     </g>
     <g id="text_10">
      <!-- 1600 -->
      <g style="fill: #262626" transform="translate(20.878125 65.14824) scale(0.1 -0.1)">
       <use xlink:href="#DejaVuSans-31"/>
       <use xlink:href="#DejaVuSans-36" transform="translate(63.623047 0)"/>
       <use xlink:href="#DejaVuSans-30" transform="translate(127.246094 0)"/>
       <use xlink:href="#DejaVuSans-30" transform="translate(190.869141 0)"/>
      </g>
     </g>
    </g>
    <g id="text_11">
     <!-- IOPS -->
     <g style="fill: #262626" transform="translate(14.798438 180.279725) rotate(-90) scale(0.1 -0.1)">
      <defs>
       <path id="DejaVuSans-49" d="M 628 4666 
L 1259 4666 
L 1259 0 
L 628 0 
L 628 4666 
z
" transform="scale(0.015625)"/>
       <path id="DejaVuSans-4f" d="M 2522 4238 
Q 1834 4238 1429 3725 
Q 1025 3213 1025 2328 
Q 1025 1447 1429 934 
Q 1834 422 2522 422 
Q 3209 422 3611 934 
Q 4013 1447 4013 2328 
Q 4013 3213 3611 3725 
Q 3209 4238 2522 4238 
z
M 2522 4750 
Q 3503 4750 4090 4092 
Q 4678 3434 4678 2328 
Q 4678 1225 4090 567 
Q 3503 -91 2522 -91 
Q 1538 -91 948 565 
Q 359 1222 359 2328 
Q 359 3434 948 4092 
Q 1538 4750 2522 4750 
z
" transform="scale(0.015625)"/>
       <path id="DejaVuSans-50" d="M 1259 4147 
L 1259 2394 
L 2053 2394 
Q 2494 2394 2734 2622 
Q 2975 2850 2975 3272 
Q 2975 3691 2734 3919 
Q 2494 4147 2053 4147 
L 1259 4147 
z
M 628 4666 
L 2053 4666 
Q 2838 4666 3239 4311 
Q 3641 3956 3641 3272 
Q 3641 2581 3239 2228 
Q 2838 1875 2053 1875 
L 1259 1875 
L 1259 0 
L 628 0 
L 628 4666 
z
" transform="scale(0.015625)"/>
       <path id="DejaVuSans-53" d="M 3425 4513 
L 3425 3897 
Q 3066 4069 2747 4153 
Q 2428 4238 2131 4238 
Q 1616 4238 1336 4038 
Q 1056 3838 1056 3469 
Q 1056 3159 1242 3001 
Q 1428 2844 1947 2747 
L 2328 2669 
Q 3034 2534 3370 2195 
Q 3706 1856 3706 1288 
Q 3706 609 3251 259 
Q 2797 -91 1919 -91 
Q 1588 -91 1214 -16 
Q 841 59 441 206 
L 441 856 
Q 825 641 1194 531 
Q 1563 422 1919 422 
Q 2459 422 2753 634 
Q 3047 847 3047 1241 
Q 3047 1584 2836 1778 
Q 2625 1972 2144 2069 
L 1759 2144 
Q 1053 2284 737 2584 
Q 422 2884 422 3419 
Q 422 4038 858 4394 
Q 1294 4750 2059 4750 
Q 2388 4750 2728 4690 
Q 3069 4631 3425 4513 
z
" transform="scale(0.015625)"/>
      </defs>
      <use xlink:href="#DejaVuSans-49"/>
      <use xlink:href="#DejaVuSans-4f" transform="translate(29.492188 0)"/>
      <use xlink:href="#DejaVuSans-50" transform="translate(108.203125 0)"/>
      <use xlink:href="#DejaVuSans-53" transform="translate(168.505859 0)"/>
     </g>
    </g>
   </g>
   <g id="FillBetweenPolyCollection_1"/>
   <g id="FillBetweenPolyCollection_2"/>
   <g id="FillBetweenPolyCollection_3"/>
   <g id="FillBetweenPolyCollection_4"/>
   <g id="FillBetweenPolyCollection_5"/>
   <g id="FillBetweenPolyCollection_6"/>
   <g id="FillBetweenPolyCollection_7"/>
   <g id="line2d_10">
    <path d="M 69.560852 134.849866 
L 115.940073 51.127049 
L 208.698515 211.271274 
L 394.215398 286.719162 
" clip-path="url(#p6f0b6453c3)" style="fill: none; stroke: #4c02a1; stroke-width: 1.5; stroke-linecap: round"/>
   </g>
   <g id="line2d_11">
    <path d="M 69.560852 70.110711 
L 115.940073 123.654373 
L 208.698515 123.654373 
L 394.215398 84.226767 
" clip-path="url(#p6f0b6453c3)" style="fill: none; stroke: #7e03a8; stroke-width: 1.5; stroke-linecap: round"/>
   </g>
   <g id="line2d_12">
    <path d="M 69.560852 47.719725 
L 115.940073 113.432401 
L 208.698515 232.688739 
L 394.215398 244.370993 
" clip-path="url(#p6f0b6453c3)" style="fill: none; stroke: #aa2395; stroke-width: 1.5; stroke-linecap: round"/>
   </g>
   <g id="line2d_13">
    <path d="M 69.560852 69.62395 
L 115.940073 139.717471 
L 208.698515 251.18564 
L 394.215398 85.200288 
" clip-path="url(#p6f0b6453c3)" style="fill: none; stroke: #cc4778; stroke-width: 1.5; stroke-linecap: round"/>
   </g>
   <g id="line2d_14">
    <path d="M 69.560852 111.972119 
L 115.940073 150.912964 
L 208.698515 264.328176 
L 394.215398 120.247049 
" clip-path="url(#p6f0b6453c3)" style="fill: none; stroke: #e66c5c; stroke-width: 1.5; stroke-linecap: round"/>
   </g>
   <g id="line2d_15">
    <path d="M 69.560852 140.690993 
L 115.940073 158.214373 
L 208.698515 289.639725 
L 394.215398 111.972119 
" clip-path="url(#p6f0b6453c3)" style="fill: none; stroke: #f89540; stroke-width: 1.5; stroke-linecap: round"/>
   </g>
   <g id="line2d_16">
    <path d="M 69.560852 125.601415 
L 115.940073 285.25888 
L 208.698515 229.768176 
L 394.215398 49.666767 
" clip-path="url(#p6f0b6453c3)" style="fill: none; stroke: #fdc527; stroke-width: 1.5; stroke-linecap: round"/>
   </g>
   <g id="line2d_17"/>
   <g id="line2d_18"/>
   <g id="line2d_19"/>
   <g id="line2d_20"/>
   <g id="line2d_21"/>
   <g id="line2d_22"/>
   <g id="line2d_23"/>
   <g id="text_12">
    <path d="M 112.107734 62.027318 
L 112.888357 60.618153 
L 108.022568 57.922693 
L 107.480573 59.626596 
L 106.694666 59.191234 
L 107.232119 57.495532 
L 107.709881 56.633084 
L 113.361577 59.763906 
L 114.142201 58.354741 
L 114.867969 58.756789 
L 112.833502 62.429366 
L 112.107734 62.027318 
z
" clip-path="url(#p6f0b6453c3)" style="fill: #4c02a1; stroke: #ffffff; stroke-width: 5"/>
    <path d="M 112.107734 62.027318 
L 112.888357 60.618153 
L 108.022568 57.922693 
L 107.480573 59.626596 
L 106.694666 59.191234 
L 107.232119 57.495532 
L 107.709881 56.633084 
L 113.361577 59.763906 
L 114.142201 58.354741 
L 114.867969 58.756789 
L 112.833502 62.429366 
L 112.107734 62.027318 
z
" clip-path="url(#p6f0b6453c3)" style="fill: #4c02a1"/>
   </g>
   <g id="text_13">
    <path d="M 152.134563 119.982498 
L 149.643938 123.874685 
L 152.134563 123.874685 
L 152.134563 119.982498 
z
M 151.875188 119.123123 
L 153.115813 119.123123 
L 153.115813 123.874685 
L 154.156438 123.874685 
L 154.156438 124.694998 
L 153.115813 124.694998 
L 153.115813 126.413748 
L 152.134563 126.413748 
L 152.134563 124.694998 
L 148.843938 124.694998 
L 148.843938 123.743435 
L 151.875188 119.123123 
z
" clip-path="url(#p6f0b6453c3)" style="fill: #7e03a8; stroke: #ffffff; stroke-width: 5"/>
    <path d="M 152.134563 119.982498 
L 149.643938 123.874685 
L 152.134563 123.874685 
L 152.134563 119.982498 
z
M 151.875188 119.123123 
L 153.115813 119.123123 
L 153.115813 123.874685 
L 154.156438 123.874685 
L 154.156438 124.694998 
L 153.115813 124.694998 
L 153.115813 126.413748 
L 152.134563 126.413748 
L 152.134563 124.694998 
L 148.843938 124.694998 
L 148.843938 123.743435 
L 151.875188 119.123123 
z
" clip-path="url(#p6f0b6453c3)" style="fill: #7e03a8"/>
   </g>
   <g id="text_14">
    <path d="M 192.265212 210.415768 
Q 191.833525 209.860763 191.288788 209.773752 
Q 190.74501 209.687975 190.225772 210.091842 
Q 189.7053 210.496669 189.654605 211.044831 
Q 189.60487 211.594227 190.036557 212.149232 
Q 190.468244 212.704238 191.015174 212.791522 
Q 191.564296 212.879081 192.081067 212.477132 
Q 192.600306 212.073265 192.650041 211.523869 
Q 192.700736 210.975707 192.265212 210.415768 
z
M 191.990427 209.380434 
Q 191.724284 208.783765 191.849391 208.237109 
Q 191.976692 207.690727 192.47003 207.307005 
Q 193.15947 206.770754 193.94211 206.949851 
Q 194.72571 207.130182 195.390509 207.98489 
Q 196.059144 208.844531 196.039151 209.645944 
Q 196.019158 210.447356 195.329718 210.983607 
Q 194.83638 211.367329 194.274514 211.355006 
Q 193.714841 211.342956 193.204907 210.941849 
Q 193.511615 211.605941 193.372942 212.216595 
Q 193.236461 212.827523 192.686389 213.255373 
Q 191.848947 213.906741 191.004091 213.744364 
Q 190.160468 213.581027 189.419884 212.628885 
Q 188.68026 211.677975 188.72862 210.818869 
Q 188.779172 209.960036 189.616613 209.308668 
Q 190.166685 208.880818 190.793371 208.900129 
Q 191.422249 208.919715 191.990427 209.380434 
z
M 192.998473 208.139104 
Q 192.552002 208.486372 192.518436 208.959847 
Q 192.485829 209.434556 192.878184 209.938994 
Q 193.268621 210.440965 193.738671 210.528662 
Q 194.20968 210.617593 194.656151 210.270325 
Q 195.103856 209.922097 195.133585 209.443689 
Q 195.164273 208.966514 194.773836 208.464542 
Q 194.38148 207.960104 193.913349 207.874874 
Q 193.446177 207.790876 192.998473 208.139104 
z
" clip-path="url(#p6f0b6453c3)" style="fill: #aa2395; stroke: #ffffff; stroke-width: 5"/>
    <path d="M 192.265212 210.415768 
Q 191.833525 209.860763 191.288788 209.773752 
Q 190.74501 209.687975 190.225772 210.091842 
Q 189.7053 210.496669 189.654605 211.044831 
Q 189.60487 211.594227 190.036557 212.149232 
Q 190.468244 212.704238 191.015174 212.791522 
Q 191.564296 212.879081 192.081067 212.477132 
Q 192.600306 212.073265 192.650041 211.523869 
Q 192.700736 210.975707 192.265212 210.415768 
z
M 191.990427 209.380434 
Q 191.724284 208.783765 191.849391 208.237109 
Q 191.976692 207.690727 192.47003 207.307005 
Q 193.15947 206.770754 193.94211 206.949851 
Q 194.72571 207.130182 195.390509 207.98489 
Q 196.059144 208.844531 196.039151 209.645944 
Q 196.019158 210.447356 195.329718 210.983607 
Q 194.83638 211.367329 194.274514 211.355006 
Q 193.714841 211.342956 193.204907 210.941849 
Q 193.511615 211.605941 193.372942 212.216595 
Q 193.236461 212.827523 192.686389 213.255373 
Q 191.848947 213.906741 191.004091 213.744364 
Q 190.160468 213.581027 189.419884 212.628885 
Q 188.68026 211.677975 188.72862 210.818869 
Q 188.779172 209.960036 189.616613 209.308668 
Q 190.166685 208.880818 190.793371 208.900129 
Q 191.422249 208.919715 191.990427 209.380434 
z
M 192.998473 208.139104 
Q 192.552002 208.486372 192.518436 208.959847 
Q 192.485829 209.434556 192.878184 209.938994 
Q 193.268621 210.440965 193.738671 210.528662 
Q 194.20968 210.617593 194.656151 210.270325 
Q 195.103856 209.922097 195.133585 209.443689 
Q 195.164273 208.966514 194.773836 208.464542 
Q 194.38148 207.960104 193.913349 207.874874 
Q 193.446177 207.790876 192.998473 208.139104 
z
" clip-path="url(#p6f0b6453c3)" style="fill: #aa2395"/>
   </g>
   <g id="text_15">
    <path d="M 229.357748 235.290768 
L 230.558296 234.216616 
L 226.849292 230.071173 
L 225.777197 231.502135 
L 225.17813 230.832576 
L 226.243239 229.407865 
L 226.978007 228.750454 
L 231.286078 233.565456 
L 232.486626 232.491304 
L 233.039851 233.109627 
L 229.910973 235.909091 
L 229.357748 235.290768 
z
M 233.496226 227.283642 
Q 233.001334 227.72643 233.014566 228.324707 
Q 233.02792 228.920778 233.555099 229.50999 
Q 234.079152 230.095708 234.673199 230.178512 
Q 235.267369 230.25911 235.76226 229.816321 
Q 236.257151 229.373533 236.241713 228.775133 
Q 236.225234 228.175569 235.701181 227.589851 
Q 235.174002 227.000639 234.58308 226.921328 
Q 233.991117 226.840853 233.496226 227.283642 
z
M 232.893451 223.67375 
L 233.492517 224.343309 
Q 233.09869 224.460852 232.755424 224.644279 
Q 232.411116 224.826541 232.133977 225.074502 
Q 231.406195 225.725661 231.461589 226.560872 
Q 231.518148 227.39504 232.352121 228.437283 
Q 232.282995 227.928851 232.455644 227.47037 
Q 232.629456 227.010848 233.018383 226.662868 
Q 233.836991 225.930444 234.756959 226.002587 
Q 235.675885 226.073566 236.440606 226.928273 
Q 237.1897 227.765513 237.148016 228.714837 
Q 237.105289 229.662997 236.283188 230.398546 
Q 235.339983 231.242449 234.195648 230.966404 
Q 233.050271 230.689194 231.822966 229.317471 
Q 230.670675 228.029589 230.59647 226.716407 
Q 230.522266 225.403225 231.55164 224.482225 
Q 231.828779 224.234264 232.159544 224.036864 
Q 232.490308 223.839464 232.893451 223.67375 
z
" clip-path="url(#p6f0b6453c3)" style="fill: #cc4778; stroke: #ffffff; stroke-width: 5"/>
    <path d="M 229.357748 235.290768 
L 230.558296 234.216616 
L 226.849292 230.071173 
L 225.777197 231.502135 
L 225.17813 230.832576 
L 226.243239 229.407865 
L 226.978007 228.750454 
L 231.286078 233.565456 
L 232.486626 232.491304 
L 233.039851 233.109627 
L 229.910973 235.909091 
L 229.357748 235.290768 
z
M 233.496226 227.283642 
Q 233.001334 227.72643 233.014566 228.324707 
Q 233.02792 228.920778 233.555099 229.50999 
Q 234.079152 230.095708 234.673199 230.178512 
Q 235.267369 230.25911 235.76226 229.816321 
Q 236.257151 229.373533 236.241713 228.775133 
Q 236.225234 228.175569 235.701181 227.589851 
Q 235.174002 227.000639 234.58308 226.921328 
Q 233.991117 226.840853 233.496226 227.283642 
z
M 232.893451 223.67375 
L 233.492517 224.343309 
Q 233.09869 224.460852 232.755424 224.644279 
Q 232.411116 224.826541 232.133977 225.074502 
Q 231.406195 225.725661 231.461589 226.560872 
Q 231.518148 227.39504 232.352121 228.437283 
Q 232.282995 227.928851 232.455644 227.47037 
Q 232.629456 227.010848 233.018383 226.662868 
Q 233.836991 225.930444 234.756959 226.002587 
Q 235.675885 226.073566 236.440606 226.928273 
Q 237.1897 227.765513 237.148016 228.714837 
Q 237.105289 229.662997 236.283188 230.398546 
Q 235.339983 231.242449 234.195648 230.966404 
Q 233.050271 230.689194 231.822966 229.317471 
Q 230.670675 228.029589 230.59647 226.716407 
Q 230.522266 225.403225 231.55164 224.482225 
Q 231.828779 224.234264 232.159544 224.036864 
Q 232.490308 223.839464 232.893451 223.67375 
z
" clip-path="url(#p6f0b6453c3)" style="fill: #cc4778"/>
   </g>
   <g id="text_16">
    <path d="M 269.525108 215.603595 
Q 270.177094 215.289136 270.784772 215.424549 
Q 271.392727 215.55777 271.824012 216.113087 
Q 272.485317 216.964574 272.262387 217.887521 
Q 272.038498 218.809233 270.958714 219.647844 
Q 270.597141 219.928659 270.157767 220.155151 
Q 269.718393 220.381643 269.19875 220.555729 
L 268.615077 219.8042 
Q 269.085032 219.741904 269.544809 219.539134 
Q 270.005819 219.335406 270.426626 219.008587 
Q 271.158411 218.440248 271.317929 217.853417 
Q 271.477446 217.266586 271.049036 216.71497 
Q 270.653212 216.205312 270.074223 216.195997 
Q 269.494275 216.185447 268.858745 216.679029 
L 268.187428 217.200406 
L 267.690012 216.559939 
L 268.39218 216.014603 
Q 268.966008 215.568941 269.092551 215.102682 
Q 269.219094 214.636423 268.88365 214.204509 
Q 268.539579 213.761489 268.040884 213.768949 
Q 267.542465 213.774216 266.956296 214.229462 
Q 266.635446 214.478649 266.323566 214.833638 
Q 266.010728 215.187393 265.684503 215.674204 
L 265.145875 214.980674 
Q 265.494288 214.512242 265.833855 214.149599 
Q 266.173423 213.786955 266.516486 213.520517 
Q 267.40376 212.831418 268.232989 212.834332 
Q 269.062493 212.835054 269.595371 213.52118 
Q 269.967235 213.999987 269.949174 214.542243 
Q 269.931114 215.084498 269.525108 215.603595 
z
M 274.76301 215.462693 
L 277.481597 213.35131 
L 277.990514 214.006585 
L 274.335291 216.845403 
L 273.826374 216.190128 
Q 273.912865 215.386996 274.078003 214.020272 
Q 274.243416 212.651355 274.265197 212.274372 
Q 274.313251 211.5644 274.23515 211.158158 
Q 274.158283 210.750957 273.939765 210.469596 
Q 273.583236 210.010533 273.036883 209.971914 
Q 272.489572 209.93206 271.97251 210.333635 
Q 271.606 210.618284 271.297484 211.061666 
Q 270.990202 211.50409 270.728704 212.122642 
L 270.117237 211.335326 
Q 270.440768 210.781363 270.774479 210.367873 
Q 271.109424 209.953425 271.448784 209.689862 
Q 272.343463 208.995013 273.223237 209.029893 
Q 274.102053 209.063539 274.682851 209.811367 
Q 274.958874 210.16677 275.072868 210.58866 
Q 275.187138 211.008358 275.170881 211.71342 
Q 275.161842 211.900473 275.059772 212.836387 
Q 274.958936 213.771342 274.76301 215.462693 
z
" clip-path="url(#p6f0b6453c3)" style="fill: #e66c5c; stroke: #ffffff; stroke-width: 5"/>
    <path d="M 269.525108 215.603595 
Q 270.177094 215.289136 270.784772 215.424549 
Q 271.392727 215.55777 271.824012 216.113087 
Q 272.485317 216.964574 272.262387 217.887521 
Q 272.038498 218.809233 270.958714 219.647844 
Q 270.597141 219.928659 270.157767 220.155151 
Q 269.718393 220.381643 269.19875 220.555729 
L 268.615077 219.8042 
Q 269.085032 219.741904 269.544809 219.539134 
Q 270.005819 219.335406 270.426626 219.008587 
Q 271.158411 218.440248 271.317929 217.853417 
Q 271.477446 217.266586 271.049036 216.71497 
Q 270.653212 216.205312 270.074223 216.195997 
Q 269.494275 216.185447 268.858745 216.679029 
L 268.187428 217.200406 
L 267.690012 216.559939 
L 268.39218 216.014603 
Q 268.966008 215.568941 269.092551 215.102682 
Q 269.219094 214.636423 268.88365 214.204509 
Q 268.539579 213.761489 268.040884 213.768949 
Q 267.542465 213.774216 266.956296 214.229462 
Q 266.635446 214.478649 266.323566 214.833638 
Q 266.010728 215.187393 265.684503 215.674204 
L 265.145875 214.980674 
Q 265.494288 214.512242 265.833855 214.149599 
Q 266.173423 213.786955 266.516486 213.520517 
Q 267.40376 212.831418 268.232989 212.834332 
Q 269.062493 212.835054 269.595371 213.52118 
Q 269.967235 213.999987 269.949174 214.542243 
Q 269.931114 215.084498 269.525108 215.603595 
z
M 274.76301 215.462693 
L 277.481597 213.35131 
L 277.990514 214.006585 
L 274.335291 216.845403 
L 273.826374 216.190128 
Q 273.912865 215.386996 274.078003 214.020272 
Q 274.243416 212.651355 274.265197 212.274372 
Q 274.313251 211.5644 274.23515 211.158158 
Q 274.158283 210.750957 273.939765 210.469596 
Q 273.583236 210.010533 273.036883 209.971914 
Q 272.489572 209.93206 271.97251 210.333635 
Q 271.606 210.618284 271.297484 211.061666 
Q 270.990202 211.50409 270.728704 212.122642 
L 270.117237 211.335326 
Q 270.440768 210.781363 270.774479 210.367873 
Q 271.109424 209.953425 271.448784 209.689862 
Q 272.343463 208.995013 273.223237 209.029893 
Q 274.102053 209.063539 274.682851 209.811367 
Q 274.958874 210.16677 275.072868 210.58866 
Q 275.187138 211.008358 275.170881 211.71342 
Q 275.161842 211.900473 275.059772 212.836387 
Q 274.958936 213.771342 274.76301 215.462693 
z
" clip-path="url(#p6f0b6453c3)" style="fill: #e66c5c"/>
   </g>
   <g id="text_17">
    <path d="M 309.145422 191.673042 
Q 308.665822 192.132349 308.699324 192.729834 
Q 308.732873 193.32511 309.279719 193.896115 
Q 309.823323 194.463735 310.419836 194.526357 
Q 311.016396 194.58677 311.495995 194.127463 
Q 311.975595 193.668155 311.939884 193.070623 
Q 311.903092 192.471962 311.359488 191.904342 
Q 310.812642 191.333336 310.219372 191.2741 
Q 309.625021 191.213734 309.145422 191.673042 
z
M 308.420642 188.085655 
L 309.042058 188.734524 
Q 308.652441 188.865348 308.315589 189.060303 
Q 307.977656 189.25413 307.70908 189.511343 
Q 307.003787 190.186795 307.087458 191.019648 
Q 307.172256 191.85142 308.041075 192.864798 
Q 307.954757 192.359001 308.111767 191.894932 
Q 308.269905 191.429782 308.646813 191.06882 
Q 309.440127 190.309072 310.362012 190.349993 
Q 311.282815 190.389786 312.076066 191.218082 
Q 312.853107 192.029452 312.843622 192.979644 
Q 312.833056 193.928707 312.036357 194.691697 
Q 311.122297 195.567083 309.969263 195.329982 
Q 308.815149 195.091752 307.542057 193.762415 
Q 306.346777 192.514328 306.228107 191.204416 
Q 306.109438 189.894503 307.107005 188.939143 
Q 307.37558 188.681931 307.699464 188.473434 
Q 308.023347 188.264937 308.420642 188.085655 
z
M 312.430051 185.212955 
L 313.323353 189.746645 
L 315.122133 188.023972 
L 312.430051 185.212955 
z
M 311.648327 184.771697 
L 312.544332 183.913602 
L 315.830812 187.345278 
L 316.582373 186.625516 
L 317.149752 187.217962 
L 316.398192 187.937724 
L 317.586988 189.17904 
L 316.878309 189.857735 
L 315.689513 188.616418 
L 313.312957 190.892422 
L 312.654796 190.205184 
L 311.648327 184.771697 
z
" clip-path="url(#p6f0b6453c3)" style="fill: #f89540; stroke: #ffffff; stroke-width: 5"/>
    <path d="M 309.145422 191.673042 
Q 308.665822 192.132349 308.699324 192.729834 
Q 308.732873 193.32511 309.279719 193.896115 
Q 309.823323 194.463735 310.419836 194.526357 
Q 311.016396 194.58677 311.495995 194.127463 
Q 311.975595 193.668155 311.939884 193.070623 
Q 311.903092 192.471962 311.359488 191.904342 
Q 310.812642 191.333336 310.219372 191.2741 
Q 309.625021 191.213734 309.145422 191.673042 
z
M 308.420642 188.085655 
L 309.042058 188.734524 
Q 308.652441 188.865348 308.315589 189.060303 
Q 307.977656 189.25413 307.70908 189.511343 
Q 307.003787 190.186795 307.087458 191.019648 
Q 307.172256 191.85142 308.041075 192.864798 
Q 307.954757 192.359001 308.111767 191.894932 
Q 308.269905 191.429782 308.646813 191.06882 
Q 309.440127 190.309072 310.362012 190.349993 
Q 311.282815 190.389786 312.076066 191.218082 
Q 312.853107 192.029452 312.843622 192.979644 
Q 312.833056 193.928707 312.036357 194.691697 
Q 311.122297 195.567083 309.969263 195.329982 
Q 308.815149 195.091752 307.542057 193.762415 
Q 306.346777 192.514328 306.228107 191.204416 
Q 306.109438 189.894503 307.107005 188.939143 
Q 307.37558 188.681931 307.699464 188.473434 
Q 308.023347 188.264937 308.420642 188.085655 
z
M 312.430051 185.212955 
L 313.323353 189.746645 
L 315.122133 188.023972 
L 312.430051 185.212955 
z
M 311.648327 184.771697 
L 312.544332 183.913602 
L 315.830812 187.345278 
L 316.582373 186.625516 
L 317.149752 187.217962 
L 316.398192 187.937724 
L 317.586988 189.17904 
L 316.878309 189.857735 
L 315.689513 188.616418 
L 313.312957 190.892422 
L 312.654796 190.205184 
L 311.648327 184.771697 
z
" clip-path="url(#p6f0b6453c3)" style="fill: #f89540"/>
   </g>
   <g id="text_18">
    <path d="M 347.802756 97.414018 
L 348.958607 96.291909 
L 345.084009 92.300806 
L 344.071022 93.774204 
L 343.44521 93.129573 
L 344.45147 91.662706 
L 345.158882 90.975944 
L 349.659292 95.611677 
L 350.815142 94.489568 
L 351.393067 95.08487 
L 348.380681 98.00932 
L 347.802756 97.414018 
z
M 352.854276 92.509959 
L 355.324051 90.11228 
L 355.901976 90.707582 
L 352.581288 93.931334 
L 352.003364 93.336032 
Q 352.000964 92.528259 352.014724 91.151663 
Q 352.028517 89.772858 352.008688 89.395768 
Q 351.978334 88.684819 351.85601 88.289636 
Q 351.734808 87.893364 351.486659 87.637754 
Q 351.081786 87.220707 350.534501 87.242435 
Q 349.986128 87.263042 349.516388 87.719069 
Q 349.183423 88.042314 348.925563 88.51695 
Q 348.668825 88.990496 348.476971 89.634065 
L 347.782591 88.918806 
Q 348.043208 88.332609 348.329398 87.884913 
Q 348.616709 87.436129 348.925011 87.136827 
Q 349.737806 86.347759 350.616076 86.285629 
Q 351.493259 86.222378 352.152811 86.901763 
Q 352.466262 87.224638 352.625983 87.631425 
Q 352.785737 88.036003 352.847154 88.738572 
Q 352.85875 88.925484 352.860275 89.866946 
Q 352.862921 90.80732 352.854276 92.509959 
z
M 356.48894 85.311978 
Q 355.984447 85.801745 355.957501 86.352729 
Q 355.931677 86.902624 356.38988 87.374606 
Q 356.849172 87.847708 357.399591 87.838181 
Q 357.951131 87.827566 358.455625 87.337799 
Q 358.960118 86.848033 358.987096 86.29484 
Q 359.014108 85.739437 358.558081 85.269698 
Q 358.099877 84.797716 357.548337 84.808332 
Q 356.997918 84.817858 356.48894 85.311978 
z
M 355.489845 85.698286 
Q 354.925843 86.028055 354.368787 85.96345 
Q 353.811764 85.896636 353.376416 85.448197 
Q 352.768017 84.821504 352.860493 84.023977 
Q 352.954091 83.225361 353.73101 82.471121 
Q 354.512414 81.712527 355.31121 81.6448 
Q 356.110005 81.577073 356.718404 82.203766 
Q 357.153752 82.652205 357.202919 83.212051 
Q 357.252118 83.769687 356.909153 84.32041 
Q 357.53574 83.942949 358.157893 84.014043 
Q 358.780079 84.082927 359.265492 84.582936 
Q 360.004496 85.344161 359.93544 86.201704 
Q 359.865296 87.058126 358.99981 87.898348 
Q 358.135445 88.737481 357.2762 88.783318 
Q 356.416987 88.826945 355.677984 88.065721 
Q 355.192571 87.565712 355.143265 86.94067 
Q 355.093992 86.313419 355.489845 85.698286 
z
M 354.145767 84.831967 
Q 354.539757 85.237804 355.014064 85.219414 
Q 355.489492 85.199937 355.94802 84.754794 
Q 356.404306 84.311827 356.440098 83.835008 
Q 356.477011 83.3571 356.083021 82.951263 
Q 355.687943 82.544305 355.209152 82.567048 
Q 354.731482 82.588702 354.275195 83.031669 
Q 353.816667 83.476812 353.783117 83.951455 
Q 353.750689 84.425009 354.145767 84.831967 
z
" clip-path="url(#p6f0b6453c3)" style="fill: #fdc527; stroke: #ffffff; stroke-width: 5"/>
    <path d="M 347.802756 97.414018 
L 348.958607 96.291909 
L 345.084009 92.300806 
L 344.071022 93.774204 
L 343.44521 93.129573 
L 344.45147 91.662706 
L 345.158882 90.975944 
L 349.659292 95.611677 
L 350.815142 94.489568 
L 351.393067 95.08487 
L 348.380681 98.00932 
L 347.802756 97.414018 
z
M 352.854276 92.509959 
L 355.324051 90.11228 
L 355.901976 90.707582 
L 352.581288 93.931334 
L 352.003364 93.336032 
Q 352.000964 92.528259 352.014724 91.151663 
Q 352.028517 89.772858 352.008688 89.395768 
Q 351.978334 88.684819 351.85601 88.289636 
Q 351.734808 87.893364 351.486659 87.637754 
Q 351.081786 87.220707 350.534501 87.242435 
Q 349.986128 87.263042 349.516388 87.719069 
Q 349.183423 88.042314 348.925563 88.51695 
Q 348.668825 88.990496 348.476971 89.634065 
L 347.782591 88.918806 
Q 348.043208 88.332609 348.329398 87.884913 
Q 348.616709 87.436129 348.925011 87.136827 
Q 349.737806 86.347759 350.616076 86.285629 
Q 351.493259 86.222378 352.152811 86.901763 
Q 352.466262 87.224638 352.625983 87.631425 
Q 352.785737 88.036003 352.847154 88.738572 
Q 352.85875 88.925484 352.860275 89.866946 
Q 352.862921 90.80732 352.854276 92.509959 
z
M 356.48894 85.311978 
Q 355.984447 85.801745 355.957501 86.352729 
Q 355.931677 86.902624 356.38988 87.374606 
Q 356.849172 87.847708 357.399591 87.838181 
Q 357.951131 87.827566 358.455625 87.337799 
Q 358.960118 86.848033 358.987096 86.29484 
Q 359.014108 85.739437 358.558081 85.269698 
Q 358.099877 84.797716 357.548337 84.808332 
Q 356.997918 84.817858 356.48894 85.311978 
z
M 355.489845 85.698286 
Q 354.925843 86.028055 354.368787 85.96345 
Q 353.811764 85.896636 353.376416 85.448197 
Q 352.768017 84.821504 352.860493 84.023977 
Q 352.954091 83.225361 353.73101 82.471121 
Q 354.512414 81.712527 355.31121 81.6448 
Q 356.110005 81.577073 356.718404 82.203766 
Q 357.153752 82.652205 357.202919 83.212051 
Q 357.252118 83.769687 356.909153 84.32041 
Q 357.53574 83.942949 358.157893 84.014043 
Q 358.780079 84.082927 359.265492 84.582936 
Q 360.004496 85.344161 359.93544 86.201704 
Q 359.865296 87.058126 358.99981 87.898348 
Q 358.135445 88.737481 357.2762 88.783318 
Q 356.416987 88.826945 355.677984 88.065721 
Q 355.192571 87.565712 355.143265 86.94067 
Q 355.093992 86.313419 355.489845 85.698286 
z
M 354.145767 84.831967 
Q 354.539757 85.237804 355.014064 85.219414 
Q 355.489492 85.199937 355.94802 84.754794 
Q 356.404306 84.311827 356.440098 83.835008 
Q 356.477011 83.3571 356.083021 82.951263 
Q 355.687943 82.544305 355.209152 82.567048 
Q 354.731482 82.588702 354.275195 83.031669 
Q 353.816667 83.476812 353.783117 83.951455 
Q 353.750689 84.425009 354.145767 84.831967 
z
" clip-path="url(#p6f0b6453c3)" style="fill: #fdc527"/>
   </g>
   <g id="patch_3">
    <path d="M 53.328125 301.735725 
L 53.328125 35.623725 
" style="fill: none; stroke: #cccccc; stroke-width: 0.8; stroke-linejoin: miter; stroke-linecap: square"/>
   </g>
   <g id="patch_4">
    <path d="M 410.448125 301.735725 
L 410.448125 35.623725 
" style="fill: none; stroke: #cccccc; stroke-width: 0.8; stroke-linejoin: miter; stroke-linecap: square"/>
   </g>
   <g id="patch_5">
    <path d="M 53.328125 301.735725 
L 410.448125 301.735725 
" style="fill: none; stroke: #cccccc; stroke-width: 0.8; stroke-linejoin: miter; stroke-linecap: square"/>
   </g>
   <g id="patch_6">
    <path d="M 53.328125 35.623725 
L 410.448125 35.623725 
" style="fill: none; stroke: #cccccc; stroke-width: 0.8; stroke-linejoin: miter; stroke-linecap: square"/>
   </g>
   <g id="text_19">
    <!-- Block Size = 4M, Read-Write Type = Sequential Write-heavy 1:4 -->
    <g style="fill: #262626; opacity: 0.75" transform="translate(72.563906 30.882918) scale(0.1 -0.1)">
     <defs>
      <path id="DejaVuSans-42" d="M 1259 2228 
L 1259 519 
L 2272 519 
Q 2781 519 3026 730 
Q 3272 941 3272 1375 
Q 3272 1813 3026 2020 
Q 2781 2228 2272 2228 
L 1259 2228 
z
M 1259 4147 
L 1259 2741 
L 2194 2741 
Q 2656 2741 2882 2914 
Q 3109 3088 3109 3444 
Q 3109 3797 2882 3972 
Q 2656 4147 2194 4147 
L 1259 4147 
z
M 628 4666 
L 2241 4666 
Q 2963 4666 3353 4366 
Q 3744 4066 3744 3513 
Q 3744 3084 3544 2831 
Q 3344 2578 2956 2516 
Q 3422 2416 3680 2098 
Q 3938 1781 3938 1306 
Q 3938 681 3513 340 
Q 3088 0 2303 0 
L 628 0 
L 628 4666 
z
" transform="scale(0.015625)"/>
      <path id="DejaVuSans-6c" d="M 603 4863 
L 1178 4863 
L 1178 0 
L 603 0 
L 603 4863 
z
" transform="scale(0.015625)"/>
      <path id="DejaVuSans-63" d="M 3122 3366 
L 3122 2828 
Q 2878 2963 2633 3030 
Q 2388 3097 2138 3097 
Q 1578 3097 1268 2742 
Q 959 2388 959 1747 
Q 959 1106 1268 751 
Q 1578 397 2138 397 
Q 2388 397 2633 464 
Q 2878 531 3122 666 
L 3122 134 
Q 2881 22 2623 -34 
Q 2366 -91 2075 -91 
Q 1284 -91 818 406 
Q 353 903 353 1747 
Q 353 2603 823 3093 
Q 1294 3584 2113 3584 
Q 2378 3584 2631 3529 
Q 2884 3475 3122 3366 
z
" transform="scale(0.015625)"/>
      <path id="DejaVuSans-6b" d="M 581 4863 
L 1159 4863 
L 1159 1991 
L 2875 3500 
L 3609 3500 
L 1753 1863 
L 3688 0 
L 2938 0 
L 1159 1709 
L 1159 0 
L 581 0 
L 581 4863 
z
" transform="scale(0.015625)"/>
      <path id="DejaVuSans-69" d="M 603 3500 
L 1178 3500 
L 1178 0 
L 603 0 
L 603 3500 
z
M 603 4863 
L 1178 4863 
L 1178 4134 
L 603 4134 
L 603 4863 
z
" transform="scale(0.015625)"/>
      <path id="DejaVuSans-7a" d="M 353 3500 
L 3084 3500 
L 3084 2975 
L 922 459 
L 3084 459 
L 3084 0 
L 275 0 
L 275 525 
L 2438 3041 
L 353 3041 
L 353 3500 
z
" transform="scale(0.015625)"/>
      <path id="DejaVuSans-3d" d="M 678 2906 
L 4684 2906 
L 4684 2381 
L 678 2381 
L 678 2906 
z
M 678 1631 
L 4684 1631 
L 4684 1100 
L 678 1100 
L 678 1631 
z
" transform="scale(0.015625)"/>
      <path id="DejaVuSans-4d" d="M 628 4666 
L 1569 4666 
L 2759 1491 
L 3956 4666 
L 4897 4666 
L 4897 0 
L 4281 0 
L 4281 4097 
L 3078 897 
L 2444 897 
L 1241 4097 
L 1241 0 
L 628 0 
L 628 4666 
z
" transform="scale(0.015625)"/>
      <path id="DejaVuSans-2c" d="M 750 794 
L 1409 794 
L 1409 256 
L 897 -744 
L 494 -744 
L 750 256 
L 750 794 
z
" transform="scale(0.015625)"/>
      <path id="DejaVuSans-52" d="M 2841 2188 
Q 3044 2119 3236 1894 
Q 3428 1669 3622 1275 
L 4263 0 
L 3584 0 
L 2988 1197 
Q 2756 1666 2539 1819 
Q 2322 1972 1947 1972 
L 1259 1972 
L 1259 0 
L 628 0 
L 628 4666 
L 2053 4666 
Q 2853 4666 3247 4331 
Q 3641 3997 3641 3322 
Q 3641 2881 3436 2590 
Q 3231 2300 2841 2188 
z
M 1259 4147 
L 1259 2491 
L 2053 2491 
Q 2509 2491 2742 2702 
Q 2975 2913 2975 3322 
Q 2975 3731 2742 3939 
Q 2509 4147 2053 4147 
L 1259 4147 
z
" transform="scale(0.015625)"/>
      <path id="DejaVuSans-61" d="M 2194 1759 
Q 1497 1759 1228 1600 
Q 959 1441 959 1056 
Q 959 750 1161 570 
Q 1363 391 1709 391 
Q 2188 391 2477 730 
Q 2766 1069 2766 1631 
L 2766 1759 
L 2194 1759 
z
M 3341 1997 
L 3341 0 
L 2766 0 
L 2766 531 
Q 2569 213 2275 61 
Q 1981 -91 1556 -91 
Q 1019 -91 701 211 
Q 384 513 384 1019 
Q 384 1609 779 1909 
Q 1175 2209 1959 2209 
L 2766 2209 
L 2766 2266 
Q 2766 2663 2505 2880 
Q 2244 3097 1772 3097 
Q 1472 3097 1187 3025 
Q 903 2953 641 2809 
L 641 3341 
Q 956 3463 1253 3523 
Q 1550 3584 1831 3584 
Q 2591 3584 2966 3190 
Q 3341 2797 3341 1997 
z
" transform="scale(0.015625)"/>
      <path id="DejaVuSans-64" d="M 2906 2969 
L 2906 4863 
L 3481 4863 
L 3481 0 
L 2906 0 
L 2906 525 
Q 2725 213 2448 61 
Q 2172 -91 1784 -91 
Q 1150 -91 751 415 
Q 353 922 353 1747 
Q 353 2572 751 3078 
Q 1150 3584 1784 3584 
Q 2172 3584 2448 3432 
Q 2725 3281 2906 2969 
z
M 947 1747 
Q 947 1113 1208 752 
Q 1469 391 1925 391 
Q 2381 391 2643 752 
Q 2906 1113 2906 1747 
Q 2906 2381 2643 2742 
Q 2381 3103 1925 3103 
Q 1469 3103 1208 2742 
Q 947 2381 947 1747 
z
" transform="scale(0.015625)"/>
      <path id="DejaVuSans-2d" d="M 313 2009 
L 1997 2009 
L 1997 1497 
L 313 1497 
L 313 2009 
z
" transform="scale(0.015625)"/>
      <path id="DejaVuSans-57" d="M 213 4666 
L 850 4666 
L 1831 722 
L 2809 4666 
L 3519 4666 
L 4500 722 
L 5478 4666 
L 6119 4666 
L 4947 0 
L 4153 0 
L 3169 4050 
L 2175 0 
L 1381 0 
L 213 4666 
z
" transform="scale(0.015625)"/>
      <path id="DejaVuSans-74" d="M 1172 4494 
L 1172 3500 
L 2356 3500 
L 2356 3053 
L 1172 3053 
L 1172 1153 
Q 1172 725 1289 603 
Q 1406 481 1766 481 
L 2356 481 
L 2356 0 
L 1766 0 
Q 1100 0 847 248 
Q 594 497 594 1153 
L 594 3053 
L 172 3053 
L 172 3500 
L 594 3500 
L 594 4494 
L 1172 4494 
z
" transform="scale(0.015625)"/>
      <path id="DejaVuSans-54" d="M -19 4666 
L 3928 4666 
L 3928 4134 
L 2272 4134 
L 2272 0 
L 1638 0 
L 1638 4134 
L -19 4134 
L -19 4666 
z
" transform="scale(0.015625)"/>
      <path id="DejaVuSans-79" d="M 2059 -325 
Q 1816 -950 1584 -1140 
Q 1353 -1331 966 -1331 
L 506 -1331 
L 506 -850 
L 844 -850 
Q 1081 -850 1212 -737 
Q 1344 -625 1503 -206 
L 1606 56 
L 191 3500 
L 800 3500 
L 1894 763 
L 2988 3500 
L 3597 3500 
L 2059 -325 
z
" transform="scale(0.015625)"/>
      <path id="DejaVuSans-70" d="M 1159 525 
L 1159 -1331 
L 581 -1331 
L 581 3500 
L 1159 3500 
L 1159 2969 
Q 1341 3281 1617 3432 
Q 1894 3584 2278 3584 
Q 2916 3584 3314 3078 
Q 3713 2572 3713 1747 
Q 3713 922 3314 415 
Q 2916 -91 2278 -91 
Q 1894 -91 1617 61 
Q 1341 213 1159 525 
z
M 3116 1747 
Q 3116 2381 2855 2742 
Q 2594 3103 2138 3103 
Q 1681 3103 1420 2742 
Q 1159 2381 1159 1747 
Q 1159 1113 1420 752 
Q 1681 391 2138 391 
Q 2594 391 2855 752 
Q 3116 1113 3116 1747 
z
" transform="scale(0.015625)"/>
      <path id="DejaVuSans-71" d="M 947 1747 
Q 947 1113 1208 752 
Q 1469 391 1925 391 
Q 2381 391 2643 752 
Q 2906 1113 2906 1747 
Q 2906 2381 2643 2742 
Q 2381 3103 1925 3103 
Q 1469 3103 1208 2742 
Q 947 2381 947 1747 
z
M 2906 525 
Q 2725 213 2448 61 
Q 2172 -91 1784 -91 
Q 1150 -91 751 415 
Q 353 922 353 1747 
Q 353 2572 751 3078 
Q 1150 3584 1784 3584 
Q 2172 3584 2448 3432 
Q 2725 3281 2906 2969 
L 2906 3500 
L 3481 3500 
L 3481 -1331 
L 2906 -1331 
L 2906 525 
z
" transform="scale(0.015625)"/>
      <path id="DejaVuSans-6e" d="M 3513 2113 
L 3513 0 
L 2938 0 
L 2938 2094 
Q 2938 2591 2744 2837 
Q 2550 3084 2163 3084 
Q 1697 3084 1428 2787 
Q 1159 2491 1159 1978 
L 1159 0 
L 581 0 
L 581 3500 
L 1159 3500 
L 1159 2956 
Q 1366 3272 1645 3428 
Q 1925 3584 2291 3584 
Q 2894 3584 3203 3211 
Q 3513 2838 3513 2113 
z
" transform="scale(0.015625)"/>
      <path id="DejaVuSans-68" d="M 3513 2113 
L 3513 0 
L 2938 0 
L 2938 2094 
Q 2938 2591 2744 2837 
Q 2550 3084 2163 3084 
Q 1697 3084 1428 2787 
Q 1159 2491 1159 1978 
L 1159 0 
L 581 0 
L 581 4863 
L 1159 4863 
L 1159 2956 
Q 1366 3272 1645 3428 
Q 1925 3584 2291 3584 
Q 2894 3584 3203 3211 
Q 3513 2838 3513 2113 
z
" transform="scale(0.015625)"/>
      <path id="DejaVuSans-76" d="M 191 3500 
L 800 3500 
L 1894 563 
L 2988 3500 
L 3597 3500 
L 2284 0 
L 1503 0 
L 191 3500 
z
" transform="scale(0.015625)"/>
      <path id="DejaVuSans-3a" d="M 750 794 
L 1409 794 
L 1409 0 
L 750 0 
L 750 794 
z
M 750 3309 
L 1409 3309 
L 1409 2516 
L 750 2516 
L 750 3309 
z
" transform="scale(0.015625)"/>
     </defs>
     <use xlink:href="#DejaVuSans-42"/>
     <use xlink:href="#DejaVuSans-6c" transform="translate(68.603516 0)"/>
     <use xlink:href="#DejaVuSans-6f" transform="translate(96.386719 0)"/>
     <use xlink:href="#DejaVuSans-63" transform="translate(157.568359 0)"/>
     <use xlink:href="#DejaVuSans-6b" transform="translate(212.548828 0)"/>
     <use xlink:href="#DejaVuSans-20" transform="translate(270.458984 0)"/>
     <use xlink:href="#DejaVuSans-53" transform="translate(302.246094 0)"/>
     <use xlink:href="#DejaVuSans-69" transform="translate(365.722656 0)"/>
     <use xlink:href="#DejaVuSans-7a" transform="translate(393.505859 0)"/>
     <use xlink:href="#DejaVuSans-65" transform="translate(445.996094 0)"/>
     <use xlink:href="#DejaVuSans-20" transform="translate(507.519531 0)"/>
     <use xlink:href="#DejaVuSans-3d" transform="translate(539.306641 0)"/>
     <use xlink:href="#DejaVuSans-20" transform="translate(623.095703 0)"/>
     <use xlink:href="#DejaVuSans-34" transform="translate(654.882812 0)"/>
     <use xlink:href="#DejaVuSans-4d" transform="translate(718.505859 0)"/>
     <use xlink:href="#DejaVuSans-2c" transform="translate(804.785156 0)"/>
     <use xlink:href="#DejaVuSans-20" transform="translate(836.572266 0)"/>
     <use xlink:href="#DejaVuSans-52" transform="translate(868.359375 0)"/>
     <use xlink:href="#DejaVuSans-65" transform="translate(933.341797 0)"/>
     <use xlink:href="#DejaVuSans-61" transform="translate(994.865234 0)"/>
     <use xlink:href="#DejaVuSans-64" transform="translate(1056.144531 0)"/>
     <use xlink:href="#DejaVuSans-2d" transform="translate(1119.621094 0)"/>
     <use xlink:href="#DejaVuSans-57" transform="translate(1151.705078 0)"/>
     <use xlink:href="#DejaVuSans-72" transform="translate(1246.082031 0)"/>
     <use xlink:href="#DejaVuSans-69" transform="translate(1287.195312 0)"/>
     <use xlink:href="#DejaVuSans-74" transform="translate(1314.978516 0)"/>
     <use xlink:href="#DejaVuSans-65" transform="translate(1354.1875 0)"/>
     <use xlink:href="#DejaVuSans-20" transform="translate(1415.710938 0)"/>
     <use xlink:href="#DejaVuSans-54" transform="translate(1447.498047 0)"/>
     <use xlink:href="#DejaVuSans-79" transform="translate(1492.957031 0)"/>
     <use xlink:href="#DejaVuSans-70" transform="translate(1552.136719 0)"/>
     <use xlink:href="#DejaVuSans-65" transform="translate(1615.613281 0)"/>
     <use xlink:href="#DejaVuSans-20" transform="translate(1677.136719 0)"/>
     <use xlink:href="#DejaVuSans-3d" transform="translate(1708.923828 0)"/>
     <use xlink:href="#DejaVuSans-20" transform="translate(1792.712891 0)"/>
     <use xlink:href="#DejaVuSans-53" transform="translate(1824.5 0)"/>
     <use xlink:href="#DejaVuSans-65" transform="translate(1887.976562 0)"/>
     <use xlink:href="#DejaVuSans-71" transform="translate(1949.5 0)"/>
     <use xlink:href="#DejaVuSans-75" transform="translate(2012.976562 0)"/>
     <use xlink:href="#DejaVuSans-65" transform="translate(2076.355469 0)"/>
     <use xlink:href="#DejaVuSans-6e" transform="translate(2137.878906 0)"/>
     <use xlink:href="#DejaVuSans-74" transform="translate(2201.257812 0)"/>
     <use xlink:href="#DejaVuSans-69" transform="translate(2240.466797 0)"/>
     <use xlink:href="#DejaVuSans-61" transform="translate(2268.25 0)"/>
     <use xlink:href="#DejaVuSans-6c" transform="translate(2329.529297 0)"/>
     <use xlink:href="#DejaVuSans-20" transform="translate(2357.3125 0)"/>
     <use xlink:href="#DejaVuSans-57" transform="translate(2389.099609 0)"/>
     <use xlink:href="#DejaVuSans-72" transform="translate(2483.476562 0)"/>
     <use xlink:href="#DejaVuSans-69" transform="translate(2524.589844 0)"/>
     <use xlink:href="#DejaVuSans-74" transform="translate(2552.373047 0)"/>
     <use xlink:href="#DejaVuSans-65" transform="translate(2591.582031 0)"/>
     <use xlink:href="#DejaVuSans-2d" transform="translate(2653.105469 0)"/>
     <use xlink:href="#DejaVuSans-68" transform="translate(2689.189453 0)"/>
     <use xlink:href="#DejaVuSans-65" transform="translate(2752.568359 0)"/>
     <use xlink:href="#DejaVuSans-61" transform="translate(2814.091797 0)"/>
     <use xlink:href="#DejaVuSans-76" transform="translate(2875.371094 0)"/>
     <use xlink:href="#DejaVuSans-79" transform="translate(2934.550781 0)"/>
     <use xlink:href="#DejaVuSans-20" transform="translate(2993.730469 0)"/>
     <use xlink:href="#DejaVuSans-31" transform="translate(3025.517578 0)"/>
     <use xlink:href="#DejaVuSans-3a" transform="translate(3089.140625 0)"/>
     <use xlink:href="#DejaVuSans-34" transform="translate(3122.832031 0)"/>
    </g>
   </g>
   <g id="text_20">
    <!-- IOPS vs Number of Jobs -->
    <g style="fill: #262626" transform="translate(152.179062 16.318125) scale(0.12 -0.12)">
     <defs>
      <path id="DejaVuSans-Bold-49" d="M 588 4666 
L 1791 4666 
L 1791 0 
L 588 0 
L 588 4666 
z
" transform="scale(0.015625)"/>
      <path id="DejaVuSans-Bold-4f" d="M 2719 3878 
Q 2169 3878 1866 3472 
Q 1563 3066 1563 2328 
Q 1563 1594 1866 1187 
Q 2169 781 2719 781 
Q 3272 781 3575 1187 
Q 3878 1594 3878 2328 
Q 3878 3066 3575 3472 
Q 3272 3878 2719 3878 
z
M 2719 4750 
Q 3844 4750 4481 4106 
Q 5119 3463 5119 2328 
Q 5119 1197 4481 553 
Q 3844 -91 2719 -91 
Q 1597 -91 958 553 
Q 319 1197 319 2328 
Q 319 3463 958 4106 
Q 1597 4750 2719 4750 
z
" transform="scale(0.015625)"/>
      <path id="DejaVuSans-Bold-50" d="M 588 4666 
L 2584 4666 
Q 3475 4666 3951 4270 
Q 4428 3875 4428 3144 
Q 4428 2409 3951 2014 
Q 3475 1619 2584 1619 
L 1791 1619 
L 1791 0 
L 588 0 
L 588 4666 
z
M 1791 3794 
L 1791 2491 
L 2456 2491 
Q 2806 2491 2997 2661 
Q 3188 2831 3188 3144 
Q 3188 3456 2997 3625 
Q 2806 3794 2456 3794 
L 1791 3794 
z
" transform="scale(0.015625)"/>
      <path id="DejaVuSans-Bold-53" d="M 3834 4519 
L 3834 3531 
Q 3450 3703 3084 3790 
Q 2719 3878 2394 3878 
Q 1963 3878 1756 3759 
Q 1550 3641 1550 3391 
Q 1550 3203 1689 3098 
Q 1828 2994 2194 2919 
L 2706 2816 
Q 3484 2659 3812 2340 
Q 4141 2022 4141 1434 
Q 4141 663 3683 286 
Q 3225 -91 2284 -91 
Q 1841 -91 1394 -6 
Q 947 78 500 244 
L 500 1259 
Q 947 1022 1364 901 
Q 1781 781 2169 781 
Q 2563 781 2772 912 
Q 2981 1044 2981 1288 
Q 2981 1506 2839 1625 
Q 2697 1744 2272 1838 
L 1806 1941 
Q 1106 2091 782 2419 
Q 459 2747 459 3303 
Q 459 4000 909 4375 
Q 1359 4750 2203 4750 
Q 2588 4750 2994 4692 
Q 3400 4634 3834 4519 
z
" transform="scale(0.015625)"/>
      <path id="DejaVuSans-Bold-20" transform="scale(0.015625)"/>
      <path id="DejaVuSans-Bold-76" d="M 97 3500 
L 1216 3500 
L 2088 1081 
L 2956 3500 
L 4078 3500 
L 2700 0 
L 1472 0 
L 97 3500 
z
" transform="scale(0.015625)"/>
      <path id="DejaVuSans-Bold-73" d="M 3272 3391 
L 3272 2541 
Q 2913 2691 2578 2766 
Q 2244 2841 1947 2841 
Q 1628 2841 1473 2761 
Q 1319 2681 1319 2516 
Q 1319 2381 1436 2309 
Q 1553 2238 1856 2203 
L 2053 2175 
Q 2913 2066 3209 1816 
Q 3506 1566 3506 1031 
Q 3506 472 3093 190 
Q 2681 -91 1863 -91 
Q 1516 -91 1145 -36 
Q 775 19 384 128 
L 384 978 
Q 719 816 1070 734 
Q 1422 653 1784 653 
Q 2113 653 2278 743 
Q 2444 834 2444 1013 
Q 2444 1163 2330 1236 
Q 2216 1309 1875 1350 
L 1678 1375 
Q 931 1469 631 1722 
Q 331 1975 331 2491 
Q 331 3047 712 3315 
Q 1094 3584 1881 3584 
Q 2191 3584 2531 3537 
Q 2872 3491 3272 3391 
z
" transform="scale(0.015625)"/>
      <path id="DejaVuSans-Bold-4e" d="M 588 4666 
L 1931 4666 
L 3628 1466 
L 3628 4666 
L 4769 4666 
L 4769 0 
L 3425 0 
L 1728 3200 
L 1728 0 
L 588 0 
L 588 4666 
z
" transform="scale(0.015625)"/>
      <path id="DejaVuSans-Bold-75" d="M 500 1363 
L 500 3500 
L 1625 3500 
L 1625 3150 
Q 1625 2866 1622 2436 
Q 1619 2006 1619 1863 
Q 1619 1441 1641 1255 
Q 1663 1069 1716 984 
Q 1784 875 1895 815 
Q 2006 756 2150 756 
Q 2500 756 2700 1025 
Q 2900 1294 2900 1772 
L 2900 3500 
L 4019 3500 
L 4019 0 
L 2900 0 
L 2900 506 
Q 2647 200 2364 54 
Q 2081 -91 1741 -91 
Q 1134 -91 817 281 
Q 500 653 500 1363 
z
" transform="scale(0.015625)"/>
      <path id="DejaVuSans-Bold-6d" d="M 3781 2919 
Q 3994 3244 4286 3414 
Q 4578 3584 4928 3584 
Q 5531 3584 5847 3212 
Q 6163 2841 6163 2131 
L 6163 0 
L 5038 0 
L 5038 1825 
Q 5041 1866 5042 1909 
Q 5044 1953 5044 2034 
Q 5044 2406 4934 2573 
Q 4825 2741 4581 2741 
Q 4263 2741 4089 2478 
Q 3916 2216 3909 1719 
L 3909 0 
L 2784 0 
L 2784 1825 
Q 2784 2406 2684 2573 
Q 2584 2741 2328 2741 
Q 2006 2741 1831 2477 
Q 1656 2213 1656 1722 
L 1656 0 
L 531 0 
L 531 3500 
L 1656 3500 
L 1656 2988 
Q 1863 3284 2130 3434 
Q 2397 3584 2719 3584 
Q 3081 3584 3359 3409 
Q 3638 3234 3781 2919 
z
" transform="scale(0.015625)"/>
      <path id="DejaVuSans-Bold-62" d="M 2400 722 
Q 2759 722 2948 984 
Q 3138 1247 3138 1747 
Q 3138 2247 2948 2509 
Q 2759 2772 2400 2772 
Q 2041 2772 1848 2508 
Q 1656 2244 1656 1747 
Q 1656 1250 1848 986 
Q 2041 722 2400 722 
z
M 1656 2988 
Q 1888 3294 2169 3439 
Q 2450 3584 2816 3584 
Q 3463 3584 3878 3070 
Q 4294 2556 4294 1747 
Q 4294 938 3878 423 
Q 3463 -91 2816 -91 
Q 2450 -91 2169 54 
Q 1888 200 1656 506 
L 1656 0 
L 538 0 
L 538 4863 
L 1656 4863 
L 1656 2988 
z
" transform="scale(0.015625)"/>
      <path id="DejaVuSans-Bold-65" d="M 4031 1759 
L 4031 1441 
L 1416 1441 
Q 1456 1047 1700 850 
Q 1944 653 2381 653 
Q 2734 653 3104 758 
Q 3475 863 3866 1075 
L 3866 213 
Q 3469 63 3072 -14 
Q 2675 -91 2278 -91 
Q 1328 -91 801 392 
Q 275 875 275 1747 
Q 275 2603 792 3093 
Q 1309 3584 2216 3584 
Q 3041 3584 3536 3087 
Q 4031 2591 4031 1759 
z
M 2881 2131 
Q 2881 2450 2695 2645 
Q 2509 2841 2209 2841 
Q 1884 2841 1681 2658 
Q 1478 2475 1428 2131 
L 2881 2131 
z
" transform="scale(0.015625)"/>
      <path id="DejaVuSans-Bold-72" d="M 3138 2547 
Q 2991 2616 2845 2648 
Q 2700 2681 2553 2681 
Q 2122 2681 1889 2404 
Q 1656 2128 1656 1613 
L 1656 0 
L 538 0 
L 538 3500 
L 1656 3500 
L 1656 2925 
Q 1872 3269 2151 3426 
Q 2431 3584 2822 3584 
Q 2878 3584 2943 3579 
Q 3009 3575 3134 3559 
L 3138 2547 
z
" transform="scale(0.015625)"/>
      <path id="DejaVuSans-Bold-6f" d="M 2203 2784 
Q 1831 2784 1636 2517 
Q 1441 2250 1441 1747 
Q 1441 1244 1636 976 
Q 1831 709 2203 709 
Q 2569 709 2762 976 
Q 2956 1244 2956 1747 
Q 2956 2250 2762 2517 
Q 2569 2784 2203 2784 
z
M 2203 3584 
Q 3106 3584 3614 3096 
Q 4122 2609 4122 1747 
Q 4122 884 3614 396 
Q 3106 -91 2203 -91 
Q 1297 -91 786 396 
Q 275 884 275 1747 
Q 275 2609 786 3096 
Q 1297 3584 2203 3584 
z
" transform="scale(0.015625)"/>
      <path id="DejaVuSans-Bold-66" d="M 2841 4863 
L 2841 4128 
L 2222 4128 
Q 1984 4128 1890 4042 
Q 1797 3956 1797 3744 
L 1797 3500 
L 2753 3500 
L 2753 2700 
L 1797 2700 
L 1797 0 
L 678 0 
L 678 2700 
L 122 2700 
L 122 3500 
L 678 3500 
L 678 3744 
Q 678 4316 997 4589 
Q 1316 4863 1984 4863 
L 2841 4863 
z
" transform="scale(0.015625)"/>
      <path id="DejaVuSans-Bold-4a" d="M 588 4666 
L 1791 4666 
L 1791 453 
Q 1791 -419 1317 -850 
Q 844 -1281 -116 -1281 
L -359 -1281 
L -359 -372 
L -172 -372 
Q 203 -372 395 -162 
Q 588 47 588 453 
L 588 4666 
z
" transform="scale(0.015625)"/>
     </defs>
     <use xlink:href="#DejaVuSans-Bold-49"/>
     <use xlink:href="#DejaVuSans-Bold-4f" transform="translate(37.207031 0)"/>
     <use xlink:href="#DejaVuSans-Bold-50" transform="translate(122.216797 0)"/>
     <use xlink:href="#DejaVuSans-Bold-53" transform="translate(195.507812 0)"/>
     <use xlink:href="#DejaVuSans-Bold-20" transform="translate(267.529297 0)"/>
     <use xlink:href="#DejaVuSans-Bold-76" transform="translate(302.34375 0)"/>
     <use xlink:href="#DejaVuSans-Bold-73" transform="translate(367.529297 0)"/>
     <use xlink:href="#DejaVuSans-Bold-20" transform="translate(427.050781 0)"/>
     <use xlink:href="#DejaVuSans-Bold-4e" transform="translate(461.865234 0)"/>
     <use xlink:href="#DejaVuSans-Bold-75" transform="translate(545.556641 0)"/>
     <use xlink:href="#DejaVuSans-Bold-6d" transform="translate(616.748047 0)"/>
     <use xlink:href="#DejaVuSans-Bold-62" transform="translate(720.947266 0)"/>
     <use xlink:href="#DejaVuSans-Bold-65" transform="translate(792.529297 0)"/>
     <use xlink:href="#DejaVuSans-Bold-72" transform="translate(860.351562 0)"/>
     <use xlink:href="#DejaVuSans-Bold-20" transform="translate(909.667969 0)"/>
     <use xlink:href="#DejaVuSans-Bold-6f" transform="translate(944.482422 0)"/>
     <use xlink:href="#DejaVuSans-Bold-66" transform="translate(1013.183594 0)"/>
     <use xlink:href="#DejaVuSans-Bold-20" transform="translate(1056.689453 0)"/>
     <use xlink:href="#DejaVuSans-Bold-4a" transform="translate(1091.503906 0)"/>
     <use xlink:href="#DejaVuSans-Bold-6f" transform="translate(1128.710938 0)"/>
     <use xlink:href="#DejaVuSans-Bold-62" transform="translate(1197.412109 0)"/>
     <use xlink:href="#DejaVuSans-Bold-73" transform="translate(1268.994141 0)"/>
    </g>
   </g>
   <g id="legend_1">
    <g id="text_21">
     <!-- IO Depth -->
     <g style="fill: #262626" transform="translate(444.954687 120.065663) scale(0.1 -0.1)">
      <defs>
       <path id="DejaVuSans-44" d="M 1259 4147 
L 1259 519 
L 2022 519 
Q 2988 519 3436 956 
Q 3884 1394 3884 2338 
Q 3884 3275 3436 3711 
Q 2988 4147 2022 4147 
L 1259 4147 
z
M 628 4666 
L 1925 4666 
Q 3281 4666 3915 4102 
Q 4550 3538 4550 2338 
Q 4550 1131 3912 565 
Q 3275 0 1925 0 
L 628 0 
L 628 4666 
z
" transform="scale(0.015625)"/>
      </defs>
      <use xlink:href="#DejaVuSans-49"/>
      <use xlink:href="#DejaVuSans-4f" transform="translate(29.492188 0)"/>
      <use xlink:href="#DejaVuSans-20" transform="translate(108.203125 0)"/>
      <use xlink:href="#DejaVuSans-44" transform="translate(139.990234 0)"/>
      <use xlink:href="#DejaVuSans-65" transform="translate(216.992188 0)"/>
      <use xlink:href="#DejaVuSans-70" transform="translate(278.515625 0)"/>
      <use xlink:href="#DejaVuSans-74" transform="translate(341.992188 0)"/>
      <use xlink:href="#DejaVuSans-68" transform="translate(381.201172 0)"/>
     </g>
    </g>
    <g id="line2d_24">
     <path d="M 443.640625 131.243787 
L 453.640625 131.243787 
L 463.640625 131.243787 
" style="fill: none; stroke: #4c02a1; stroke-width: 1.5; stroke-linecap: round"/>
    </g>
    <g id="text_22">
     <!-- 1 -->
     <g style="fill: #262626" transform="translate(471.640625 134.743787) scale(0.1 -0.1)">
      <use xlink:href="#DejaVuSans-31"/>
     </g>
    </g>
    <g id="line2d_25">
     <path d="M 443.640625 145.921913 
L 453.640625 145.921913 
L 463.640625 145.921913 
" style="fill: none; stroke: #7e03a8; stroke-width: 1.5; stroke-linecap: round"/>
    </g>
    <g id="text_23">
     <!-- 4 -->
     <g style="fill: #262626" transform="translate(471.640625 149.421913) scale(0.1 -0.1)">
      <use xlink:href="#DejaVuSans-34"/>
     </g>
    </g>
    <g id="line2d_26">
     <path d="M 443.640625 160.600037 
L 453.640625 160.600037 
L 463.640625 160.600037 
" style="fill: none; stroke: #aa2395; stroke-width: 1.5; stroke-linecap: round"/>
    </g>
    <g id="text_24">
     <!-- 8 -->
     <g style="fill: #262626" transform="translate(471.640625 164.100037) scale(0.1 -0.1)">
      <use xlink:href="#DejaVuSans-38"/>
     </g>
    </g>
    <g id="line2d_27">
     <path d="M 443.640625 175.278163 
L 453.640625 175.278163 
L 463.640625 175.278163 
" style="fill: none; stroke: #cc4778; stroke-width: 1.5; stroke-linecap: round"/>
    </g>
    <g id="text_25">
     <!-- 16 -->
     <g style="fill: #262626" transform="translate(471.640625 178.778163) scale(0.1 -0.1)">
      <use xlink:href="#DejaVuSans-31"/>
      <use xlink:href="#DejaVuSans-36" transform="translate(63.623047 0)"/>
     </g>
    </g>
    <g id="line2d_28">
     <path d="M 443.640625 189.956288 
L 453.640625 189.956288 
L 463.640625 189.956288 
" style="fill: none; stroke: #e66c5c; stroke-width: 1.5; stroke-linecap: round"/>
    </g>
    <g id="text_26">
     <!-- 32 -->
     <g style="fill: #262626" transform="translate(471.640625 193.456288) scale(0.1 -0.1)">
      <use xlink:href="#DejaVuSans-33"/>
      <use xlink:href="#DejaVuSans-32" transform="translate(63.623047 0)"/>
     </g>
    </g>
    <g id="line2d_29">
     <path d="M 443.640625 204.634412 
L 453.640625 204.634412 
L 463.640625 204.634412 
" style="fill: none; stroke: #f89540; stroke-width: 1.5; stroke-linecap: round"/>
    </g>
    <g id="text_27">
     <!-- 64 -->
     <g style="fill: #262626" transform="translate(471.640625 208.134412) scale(0.1 -0.1)">
      <use xlink:href="#DejaVuSans-36"/>
      <use xlink:href="#DejaVuSans-34" transform="translate(63.623047 0)"/>
     </g>
    </g>
    <g id="line2d_30">
     <path d="M 443.640625 219.312537 
L 453.640625 219.312537 
L 463.640625 219.312537 
" style="fill: none; stroke: #fdc527; stroke-width: 1.5; stroke-linecap: round"/>
    </g>
    <g id="text_28">
     <!-- 128 -->
     <g style="fill: #262626" transform="translate(471.640625 222.812537) scale(0.1 -0.1)">
      <use xlink:href="#DejaVuSans-31"/>
      <use xlink:href="#DejaVuSans-32" transform="translate(63.623047 0)"/>
      <use xlink:href="#DejaVuSans-38" transform="translate(127.246094 0)"/>
     </g>
    </g>
   </g>
  </g>
 </g>
 <defs>
  <clipPath id="p6f0b6453c3">
   <rect x="53.328125" y="35.623725" width="357.12" height="266.112"/>
  </clipPath>
 </defs>
</svg>
