<?xml version="1.0" encoding="utf-8" standalone="no"?>
<!DOCTYPE svg PUBLIC "-//W3C//DTD SVG 1.1//EN"
  "http://www.w3.org/Graphics/SVG/1.1/DTD/svg11.dtd">
<svg xmlns:xlink="http://www.w3.org/1999/xlink" width="501.928125pt" height="339.291975pt" viewBox="0 0 501.928125 339.291975" xmlns="http://www.w3.org/2000/svg" version="1.1">
 <metadata>
  <rdf:RDF xmlns:dc="http://purl.org/dc/elements/1.1/" xmlns:cc="http://creativecommons.org/ns#" xmlns:rdf="http://www.w3.org/1999/02/22-rdf-syntax-ns#">
   <cc:Work>
    <dc:type rdf:resource="http://purl.org/dc/dcmitype/StillImage"/>
    <dc:date>2025-09-11T11:34:25.657358</dc:date>
    <dc:format>image/svg+xml</dc:format>
    <dc:creator>
     <cc:Agent>
      <dc:title>Matplotlib v3.10.6, https://matplotlib.org/</dc:title>
     </cc:Agent>
    </dc:creator>
   </cc:Work>
  </rdf:RDF>
 </metadata>
 <defs>
  <style type="text/css">*{stroke-linejoin: round; stroke-linecap: butt}</style>
 </defs>
 <g id="figure_1">
  <g id="patch_1">
   <path d="M 0 339.291975 
L 501.928125 339.291975 
L 501.928125 0 
L 0 0 
z
" style="fill: #ffffff"/>
  </g>
  <g id="axes_1">
   <g id="patch_2">
    <path d="M 53.328125 301.735725 
L 410.448125 301.735725 
L 410.448125 35.623725 
L 53.328125 35.623725 
z
" style="fill: #ffffff"/>
   </g>
   <g id="matplotlib.axis_1">
    <g id="xtick_1">
     <g id="line2d_1">
      <path d="M 394.215398 301.735725 
L 394.215398 35.623725 
" clip-path="url(#p9f0a1a3921)" style="fill: none; stroke: #cccccc; stroke-width: 0.8; stroke-linecap: round"/>
     </g>
     <g id="text_1">
      <!-- 128 -->
      <g style="fill: #262626" transform="translate(384.671648 316.334162) scale(0.1 -0.1)">
       <defs>
        <path id="DejaVuSans-31" d="M 794 531 
L 1825 531 
L 1825 4091 
L 703 3866 
L 703 4441 
L 1819 4666 
L 2450 4666 
L 2450 531 
L 3481 531 
L 3481 0 
L 794 0 
L 794 531 
z
" transform="scale(0.015625)"/>
        <path id="DejaVuSans-32" d="M 1228 531 
L 3431 531 
L 3431 0 
L 469 0 
L 469 531 
Q 828 903 1448 1529 
Q 2069 2156 2228 2338 
Q 2531 2678 2651 2914 
Q 2772 3150 2772 3378 
Q 2772 3750 2511 3984 
Q 2250 4219 1831 4219 
Q 1534 4219 1204 4116 
Q 875 4013 500 3803 
L 500 4441 
Q 881 4594 1212 4672 
Q 1544 4750 1819 4750 
Q 2544 4750 2975 4387 
Q 3406 4025 3406 3419 
Q 3406 3131 3298 2873 
Q 3191 2616 2906 2266 
Q 2828 2175 2409 1742 
Q 1991 1309 1228 531 
z
" transform="scale(0.015625)"/>
        <path id="DejaVuSans-38" d="M 2034 2216 
Q 1584 2216 1326 1975 
Q 1069 1734 1069 1313 
Q 1069 891 1326 650 
Q 1584 409 2034 409 
Q 2484 409 2743 651 
Q 3003 894 3003 1313 
Q 3003 1734 2745 1975 
Q 2488 2216 2034 2216 
z
M 1403 2484 
Q 997 2584 770 2862 
Q 544 3141 544 3541 
Q 544 4100 942 4425 
Q 1341 4750 2034 4750 
Q 2731 4750 3128 4425 
Q 3525 4100 3525 3541 
Q 3525 3141 3298 2862 
Q 3072 2584 2669 2484 
Q 3125 2378 3379 2068 
Q 3634 1759 3634 1313 
Q 3634 634 3220 271 
Q 2806 -91 2034 -91 
Q 1263 -91 848 271 
Q 434 634 434 1313 
Q 434 1759 690 2068 
Q 947 2378 1403 2484 
z
M 1172 3481 
Q 1172 3119 1398 2916 
Q 1625 2713 2034 2713 
Q 2441 2713 2670 2916 
Q 2900 3119 2900 3481 
Q 2900 3844 2670 4047 
Q 2441 4250 2034 4250 
Q 1625 4250 1398 4047 
Q 1172 3844 1172 3481 
z
" transform="scale(0.015625)"/>
       </defs>
       <use xlink:href="#DejaVuSans-31"/>
       <use xlink:href="#DejaVuSans-32" transform="translate(63.623047 0)"/>
       <use xlink:href="#DejaVuSans-38" transform="translate(127.246094 0)"/>
      </g>
     </g>
    </g>
    <g id="xtick_2">
     <g id="line2d_2">
      <path d="M 115.940073 301.735725 
L 115.940073 35.623725 
" clip-path="url(#p9f0a1a3921)" style="fill: none; stroke: #cccccc; stroke-width: 0.8; stroke-linecap: round"/>
     </g>
     <g id="text_2">
      <!-- 32 -->
      <g style="fill: #262626" transform="translate(109.577573 316.334162) scale(0.1 -0.1)">
       <defs>
        <path id="DejaVuSans-33" d="M 2597 2516 
Q 3050 2419 3304 2112 
Q 3559 1806 3559 1356 
Q 3559 666 3084 287 
Q 2609 -91 1734 -91 
Q 1441 -91 1130 -33 
Q 819 25 488 141 
L 488 750 
Q 750 597 1062 519 
Q 1375 441 1716 441 
Q 2309 441 2620 675 
Q 2931 909 2931 1356 
Q 2931 1769 2642 2001 
Q 2353 2234 1838 2234 
L 1294 2234 
L 1294 2753 
L 1863 2753 
Q 2328 2753 2575 2939 
Q 2822 3125 2822 3475 
Q 2822 3834 2567 4026 
Q 2313 4219 1838 4219 
Q 1578 4219 1281 4162 
Q 984 4106 628 3988 
L 628 4550 
Q 988 4650 1302 4700 
Q 1616 4750 1894 4750 
Q 2613 4750 3031 4423 
Q 3450 4097 3450 3541 
Q 3450 3153 3228 2886 
Q 3006 2619 2597 2516 
z
" transform="scale(0.015625)"/>
       </defs>
       <use xlink:href="#DejaVuSans-33"/>
       <use xlink:href="#DejaVuSans-32" transform="translate(63.623047 0)"/>
      </g>
     </g>
    </g>
    <g id="xtick_3">
     <g id="line2d_3">
      <path d="M 208.698515 301.735725 
L 208.698515 35.623725 
" clip-path="url(#p9f0a1a3921)" style="fill: none; stroke: #cccccc; stroke-width: 0.8; stroke-linecap: round"/>
     </g>
     <g id="text_3">
      <!-- 64 -->
      <g style="fill: #262626" transform="translate(202.336015 316.334162) scale(0.1 -0.1)">
       <defs>
        <path id="DejaVuSans-36" d="M 2113 2584 
Q 1688 2584 1439 2293 
Q 1191 2003 1191 1497 
Q 1191 994 1439 701 
Q 1688 409 2113 409 
Q 2538 409 2786 701 
Q 3034 994 3034 1497 
Q 3034 2003 2786 2293 
Q 2538 2584 2113 2584 
z
M 3366 4563 
L 3366 3988 
Q 3128 4100 2886 4159 
Q 2644 4219 2406 4219 
Q 1781 4219 1451 3797 
Q 1122 3375 1075 2522 
Q 1259 2794 1537 2939 
Q 1816 3084 2150 3084 
Q 2853 3084 3261 2657 
Q 3669 2231 3669 1497 
Q 3669 778 3244 343 
Q 2819 -91 2113 -91 
Q 1303 -91 875 529 
Q 447 1150 447 2328 
Q 447 3434 972 4092 
Q 1497 4750 2381 4750 
Q 2619 4750 2861 4703 
Q 3103 4656 3366 4563 
z
" transform="scale(0.015625)"/>
        <path id="DejaVuSans-34" d="M 2419 4116 
L 825 1625 
L 2419 1625 
L 2419 4116 
z
M 2253 4666 
L 3047 4666 
L 3047 1625 
L 3713 1625 
L 3713 1100 
L 3047 1100 
L 3047 0 
L 2419 0 
L 2419 1100 
L 313 1100 
L 313 1709 
L 2253 4666 
z
" transform="scale(0.015625)"/>
       </defs>
       <use xlink:href="#DejaVuSans-36"/>
       <use xlink:href="#DejaVuSans-34" transform="translate(63.623047 0)"/>
      </g>
     </g>
    </g>
    <g id="xtick_4">
     <g id="line2d_4">
      <path d="M 69.560852 301.735725 
L 69.560852 35.623725 
" clip-path="url(#p9f0a1a3921)" style="fill: none; stroke: #cccccc; stroke-width: 0.8; stroke-linecap: round"/>
     </g>
     <g id="text_4">
      <!-- 16 -->
      <g style="fill: #262626" transform="translate(63.198352 316.334162) scale(0.1 -0.1)">
       <use xlink:href="#DejaVuSans-31"/>
       <use xlink:href="#DejaVuSans-36" transform="translate(63.623047 0)"/>
      </g>
     </g>
    </g>
    <g id="text_5">
     <!-- Number of Jobs -->
     <g style="fill: #262626" transform="translate(193.49125 330.012287) scale(0.1 -0.1)">
      <defs>
       <path id="DejaVuSans-4e" d="M 628 4666 
L 1478 4666 
L 3547 763 
L 3547 4666 
L 4159 4666 
L 4159 0 
L 3309 0 
L 1241 3903 
L 1241 0 
L 628 0 
L 628 4666 
z
" transform="scale(0.015625)"/>
       <path id="DejaVuSans-75" d="M 544 1381 
L 544 3500 
L 1119 3500 
L 1119 1403 
Q 1119 906 1312 657 
Q 1506 409 1894 409 
Q 2359 409 2629 706 
Q 2900 1003 2900 1516 
L 2900 3500 
L 3475 3500 
L 3475 0 
L 2900 0 
L 2900 538 
Q 2691 219 2414 64 
Q 2138 -91 1772 -91 
Q 1169 -91 856 284 
Q 544 659 544 1381 
z
M 1991 3584 
L 1991 3584 
z
" transform="scale(0.015625)"/>
       <path id="DejaVuSans-6d" d="M 3328 2828 
Q 3544 3216 3844 3400 
Q 4144 3584 4550 3584 
Q 5097 3584 5394 3201 
Q 5691 2819 5691 2113 
L 5691 0 
L 5113 0 
L 5113 2094 
Q 5113 2597 4934 2840 
Q 4756 3084 4391 3084 
Q 3944 3084 3684 2787 
Q 3425 2491 3425 1978 
L 3425 0 
L 2847 0 
L 2847 2094 
Q 2847 2600 2669 2842 
Q 2491 3084 2119 3084 
Q 1678 3084 1418 2786 
Q 1159 2488 1159 1978 
L 1159 0 
L 581 0 
L 581 3500 
L 1159 3500 
L 1159 2956 
Q 1356 3278 1631 3431 
Q 1906 3584 2284 3584 
Q 2666 3584 2933 3390 
Q 3200 3197 3328 2828 
z
" transform="scale(0.015625)"/>
       <path id="DejaVuSans-62" d="M 3116 1747 
Q 3116 2381 2855 2742 
Q 2594 3103 2138 3103 
Q 1681 3103 1420 2742 
Q 1159 2381 1159 1747 
Q 1159 1113 1420 752 
Q 1681 391 2138 391 
Q 2594 391 2855 752 
Q 3116 1113 3116 1747 
z
M 1159 2969 
Q 1341 3281 1617 3432 
Q 1894 3584 2278 3584 
Q 2916 3584 3314 3078 
Q 3713 2572 3713 1747 
Q 3713 922 3314 415 
Q 2916 -91 2278 -91 
Q 1894 -91 1617 61 
Q 1341 213 1159 525 
L 1159 0 
L 581 0 
L 581 4863 
L 1159 4863 
L 1159 2969 
z
" transform="scale(0.015625)"/>
       <path id="DejaVuSans-65" d="M 3597 1894 
L 3597 1613 
L 953 1613 
Q 991 1019 1311 708 
Q 1631 397 2203 397 
Q 2534 397 2845 478 
Q 3156 559 3463 722 
L 3463 178 
Q 3153 47 2828 -22 
Q 2503 -91 2169 -91 
Q 1331 -91 842 396 
Q 353 884 353 1716 
Q 353 2575 817 3079 
Q 1281 3584 2069 3584 
Q 2775 3584 3186 3129 
Q 3597 2675 3597 1894 
z
M 3022 2063 
Q 3016 2534 2758 2815 
Q 2500 3097 2075 3097 
Q 1594 3097 1305 2825 
Q 1016 2553 972 2059 
L 3022 2063 
z
" transform="scale(0.015625)"/>
       <path id="DejaVuSans-72" d="M 2631 2963 
Q 2534 3019 2420 3045 
Q 2306 3072 2169 3072 
Q 1681 3072 1420 2755 
Q 1159 2438 1159 1844 
L 1159 0 
L 581 0 
L 581 3500 
L 1159 3500 
L 1159 2956 
Q 1341 3275 1631 3429 
Q 1922 3584 2338 3584 
Q 2397 3584 2469 3576 
Q 2541 3569 2628 3553 
L 2631 2963 
z
" transform="scale(0.015625)"/>
       <path id="DejaVuSans-20" transform="scale(0.015625)"/>
       <path id="DejaVuSans-6f" d="M 1959 3097 
Q 1497 3097 1228 2736 
Q 959 2375 959 1747 
Q 959 1119 1226 758 
Q 1494 397 1959 397 
Q 2419 397 2687 759 
Q 2956 1122 2956 1747 
Q 2956 2369 2687 2733 
Q 2419 3097 1959 3097 
z
M 1959 3584 
Q 2709 3584 3137 3096 
Q 3566 2609 3566 1747 
Q 3566 888 3137 398 
Q 2709 -91 1959 -91 
Q 1206 -91 779 398 
Q 353 888 353 1747 
Q 353 2609 779 3096 
Q 1206 3584 1959 3584 
z
" transform="scale(0.015625)"/>
       <path id="DejaVuSans-66" d="M 2375 4863 
L 2375 4384 
L 1825 4384 
Q 1516 4384 1395 4259 
Q 1275 4134 1275 3809 
L 1275 3500 
L 2222 3500 
L 2222 3053 
L 1275 3053 
L 1275 0 
L 697 0 
L 697 3053 
L 147 3053 
L 147 3500 
L 697 3500 
L 697 3744 
Q 697 4328 969 4595 
Q 1241 4863 1831 4863 
L 2375 4863 
z
" transform="scale(0.015625)"/>
       <path id="DejaVuSans-4a" d="M 628 4666 
L 1259 4666 
L 1259 325 
Q 1259 -519 939 -900 
Q 619 -1281 -91 -1281 
L -331 -1281 
L -331 -750 
L -134 -750 
Q 284 -750 456 -515 
Q 628 -281 628 325 
L 628 4666 
z
" transform="scale(0.015625)"/>
       <path id="DejaVuSans-73" d="M 2834 3397 
L 2834 2853 
Q 2591 2978 2328 3040 
Q 2066 3103 1784 3103 
Q 1356 3103 1142 2972 
Q 928 2841 928 2578 
Q 928 2378 1081 2264 
Q 1234 2150 1697 2047 
L 1894 2003 
Q 2506 1872 2764 1633 
Q 3022 1394 3022 966 
Q 3022 478 2636 193 
Q 2250 -91 1575 -91 
Q 1294 -91 989 -36 
Q 684 19 347 128 
L 347 722 
Q 666 556 975 473 
Q 1284 391 1588 391 
Q 1994 391 2212 530 
Q 2431 669 2431 922 
Q 2431 1156 2273 1281 
Q 2116 1406 1581 1522 
L 1381 1569 
Q 847 1681 609 1914 
Q 372 2147 372 2553 
Q 372 3047 722 3315 
Q 1072 3584 1716 3584 
Q 2034 3584 2315 3537 
Q 2597 3491 2834 3397 
z
" transform="scale(0.015625)"/>
      </defs>
      <use xlink:href="#DejaVuSans-4e"/>
      <use xlink:href="#DejaVuSans-75" transform="translate(74.804688 0)"/>
      <use xlink:href="#DejaVuSans-6d" transform="translate(138.183594 0)"/>
      <use xlink:href="#DejaVuSans-62" transform="translate(235.595703 0)"/>
      <use xlink:href="#DejaVuSans-65" transform="translate(299.072266 0)"/>
      <use xlink:href="#DejaVuSans-72" transform="translate(360.595703 0)"/>
      <use xlink:href="#DejaVuSans-20" transform="translate(401.708984 0)"/>
      <use xlink:href="#DejaVuSans-6f" transform="translate(433.496094 0)"/>
      <use xlink:href="#DejaVuSans-66" transform="translate(494.677734 0)"/>
      <use xlink:href="#DejaVuSans-20" transform="translate(529.882812 0)"/>
      <use xlink:href="#DejaVuSans-4a" transform="translate(561.669922 0)"/>
      <use xlink:href="#DejaVuSans-6f" transform="translate(591.162109 0)"/>
      <use xlink:href="#DejaVuSans-62" transform="translate(652.34375 0)"/>
      <use xlink:href="#DejaVuSans-73" transform="translate(715.820312 0)"/>
     </g>
    </g>
   </g>
   <g id="matplotlib.axis_2">
    <g id="ytick_1">
     <g id="line2d_5">
      <path d="M 53.328125 260.281991 
L 410.448125 260.281991 
" clip-path="url(#p9f0a1a3921)" style="fill: none; stroke: #cccccc; stroke-width: 0.8; stroke-linecap: round"/>
     </g>
     <g id="text_6">
      <!-- 5000 -->
      <g style="fill: #262626" transform="translate(20.878125 264.08121) scale(0.1 -0.1)">
       <defs>
        <path id="DejaVuSans-35" d="M 691 4666 
L 3169 4666 
L 3169 4134 
L 1269 4134 
L 1269 2991 
Q 1406 3038 1543 3061 
Q 1681 3084 1819 3084 
Q 2600 3084 3056 2656 
Q 3513 2228 3513 1497 
Q 3513 744 3044 326 
Q 2575 -91 1722 -91 
Q 1428 -91 1123 -41 
Q 819 9 494 109 
L 494 744 
Q 775 591 1075 516 
Q 1375 441 1709 441 
Q 2250 441 2565 725 
Q 2881 1009 2881 1497 
Q 2881 1984 2565 2268 
Q 2250 2553 1709 2553 
Q 1456 2553 1204 2497 
Q 953 2441 691 2322 
L 691 4666 
z
" transform="scale(0.015625)"/>
        <path id="DejaVuSans-30" d="M 2034 4250 
Q 1547 4250 1301 3770 
Q 1056 3291 1056 2328 
Q 1056 1369 1301 889 
Q 1547 409 2034 409 
Q 2525 409 2770 889 
Q 3016 1369 3016 2328 
Q 3016 3291 2770 3770 
Q 2525 4250 2034 4250 
z
M 2034 4750 
Q 2819 4750 3233 4129 
Q 3647 3509 3647 2328 
Q 3647 1150 3233 529 
Q 2819 -91 2034 -91 
Q 1250 -91 836 529 
Q 422 1150 422 2328 
Q 422 3509 836 4129 
Q 1250 4750 2034 4750 
z
" transform="scale(0.015625)"/>
       </defs>
       <use xlink:href="#DejaVuSans-35"/>
       <use xlink:href="#DejaVuSans-30" transform="translate(63.623047 0)"/>
       <use xlink:href="#DejaVuSans-30" transform="translate(127.246094 0)"/>
       <use xlink:href="#DejaVuSans-30" transform="translate(190.869141 0)"/>
      </g>
     </g>
    </g>
    <g id="ytick_2">
     <g id="line2d_6">
      <path d="M 53.328125 209.136114 
L 410.448125 209.136114 
" clip-path="url(#p9f0a1a3921)" style="fill: none; stroke: #cccccc; stroke-width: 0.8; stroke-linecap: round"/>
     </g>
     <g id="text_7">
      <!-- 5500 -->
      <g style="fill: #262626" transform="translate(20.878125 212.935333) scale(0.1 -0.1)">
       <use xlink:href="#DejaVuSans-35"/>
       <use xlink:href="#DejaVuSans-35" transform="translate(63.623047 0)"/>
       <use xlink:href="#DejaVuSans-30" transform="translate(127.246094 0)"/>
       <use xlink:href="#DejaVuSans-30" transform="translate(190.869141 0)"/>
      </g>
     </g>
    </g>
    <g id="ytick_3">
     <g id="line2d_7">
      <path d="M 53.328125 157.990237 
L 410.448125 157.990237 
" clip-path="url(#p9f0a1a3921)" style="fill: none; stroke: #cccccc; stroke-width: 0.8; stroke-linecap: round"/>
     </g>
     <g id="text_8">
      <!-- 6000 -->
      <g style="fill: #262626" transform="translate(20.878125 161.789455) scale(0.1 -0.1)">
       <use xlink:href="#DejaVuSans-36"/>
       <use xlink:href="#DejaVuSans-30" transform="translate(63.623047 0)"/>
       <use xlink:href="#DejaVuSans-30" transform="translate(127.246094 0)"/>
       <use xlink:href="#DejaVuSans-30" transform="translate(190.869141 0)"/>
      </g>
     </g>
    </g>
    <g id="ytick_4">
     <g id="line2d_8">
      <path d="M 53.328125 106.844359 
L 410.448125 106.844359 
" clip-path="url(#p9f0a1a3921)" style="fill: none; stroke: #cccccc; stroke-width: 0.8; stroke-linecap: round"/>
     </g>
     <g id="text_9">
      <!-- 6500 -->
      <g style="fill: #262626" transform="translate(20.878125 110.643578) scale(0.1 -0.1)">
       <use xlink:href="#DejaVuSans-36"/>
       <use xlink:href="#DejaVuSans-35" transform="translate(63.623047 0)"/>
       <use xlink:href="#DejaVuSans-30" transform="translate(127.246094 0)"/>
       <use xlink:href="#DejaVuSans-30" transform="translate(190.869141 0)"/>
      </g>
     </g>
    </g>
    <g id="ytick_5">
     <g id="line2d_9">
      <path d="M 53.328125 55.698482 
L 410.448125 55.698482 
" clip-path="url(#p9f0a1a3921)" style="fill: none; stroke: #cccccc; stroke-width: 0.8; stroke-linecap: round"/>
     </g>
     <g id="text_10">
      <!-- 7000 -->
      <g style="fill: #262626" transform="translate(20.878125 59.497701) scale(0.1 -0.1)">
       <defs>
        <path id="DejaVuSans-37" d="M 525 4666 
L 3525 4666 
L 3525 4397 
L 1831 0 
L 1172 0 
L 2766 4134 
L 525 4134 
L 525 4666 
z
" transform="scale(0.015625)"/>
       </defs>
       <use xlink:href="#DejaVuSans-37"/>
       <use xlink:href="#DejaVuSans-30" transform="translate(63.623047 0)"/>
       <use xlink:href="#DejaVuSans-30" transform="translate(127.246094 0)"/>
       <use xlink:href="#DejaVuSans-30" transform="translate(190.869141 0)"/>
      </g>
     </g>
    </g>
    <g id="text_11">
     <!-- IOPS -->
     <g style="fill: #262626" transform="translate(14.798438 180.279725) rotate(-90) scale(0.1 -0.1)">
      <defs>
       <path id="DejaVuSans-49" d="M 628 4666 
L 1259 4666 
L 1259 0 
L 628 0 
L 628 4666 
z
" transform="scale(0.015625)"/>
       <path id="DejaVuSans-4f" d="M 2522 4238 
Q 1834 4238 1429 3725 
Q 1025 3213 1025 2328 
Q 1025 1447 1429 934 
Q 1834 422 2522 422 
Q 3209 422 3611 934 
Q 4013 1447 4013 2328 
Q 4013 3213 3611 3725 
Q 3209 4238 2522 4238 
z
M 2522 4750 
Q 3503 4750 4090 4092 
Q 4678 3434 4678 2328 
Q 4678 1225 4090 567 
Q 3503 -91 2522 -91 
Q 1538 -91 948 565 
Q 359 1222 359 2328 
Q 359 3434 948 4092 
Q 1538 4750 2522 4750 
z
" transform="scale(0.015625)"/>
       <path id="DejaVuSans-50" d="M 1259 4147 
L 1259 2394 
L 2053 2394 
Q 2494 2394 2734 2622 
Q 2975 2850 2975 3272 
Q 2975 3691 2734 3919 
Q 2494 4147 2053 4147 
L 1259 4147 
z
M 628 4666 
L 2053 4666 
Q 2838 4666 3239 4311 
Q 3641 3956 3641 3272 
Q 3641 2581 3239 2228 
Q 2838 1875 2053 1875 
L 1259 1875 
L 1259 0 
L 628 0 
L 628 4666 
z
" transform="scale(0.015625)"/>
       <path id="DejaVuSans-53" d="M 3425 4513 
L 3425 3897 
Q 3066 4069 2747 4153 
Q 2428 4238 2131 4238 
Q 1616 4238 1336 4038 
Q 1056 3838 1056 3469 
Q 1056 3159 1242 3001 
Q 1428 2844 1947 2747 
L 2328 2669 
Q 3034 2534 3370 2195 
Q 3706 1856 3706 1288 
Q 3706 609 3251 259 
Q 2797 -91 1919 -91 
Q 1588 -91 1214 -16 
Q 841 59 441 206 
L 441 856 
Q 825 641 1194 531 
Q 1563 422 1919 422 
Q 2459 422 2753 634 
Q 3047 847 3047 1241 
Q 3047 1584 2836 1778 
Q 2625 1972 2144 2069 
L 1759 2144 
Q 1053 2284 737 2584 
Q 422 2884 422 3419 
Q 422 4038 858 4394 
Q 1294 4750 2059 4750 
Q 2388 4750 2728 4690 
Q 3069 4631 3425 4513 
z
" transform="scale(0.015625)"/>
      </defs>
      <use xlink:href="#DejaVuSans-49"/>
      <use xlink:href="#DejaVuSans-4f" transform="translate(29.492188 0)"/>
      <use xlink:href="#DejaVuSans-50" transform="translate(108.203125 0)"/>
      <use xlink:href="#DejaVuSans-53" transform="translate(168.505859 0)"/>
     </g>
    </g>
   </g>
   <g id="FillBetweenPolyCollection_1"/>
   <g id="FillBetweenPolyCollection_2"/>
   <g id="FillBetweenPolyCollection_3"/>
   <g id="FillBetweenPolyCollection_4"/>
   <g id="FillBetweenPolyCollection_5"/>
   <g id="FillBetweenPolyCollection_6"/>
   <g id="FillBetweenPolyCollection_7"/>
   <g id="line2d_10">
    <path d="M 69.560852 148.170228 
L 115.940073 87.408926 
L 208.698515 245.756562 
L 394.215398 168.935454 
" clip-path="url(#p9f0a1a3921)" style="fill: none; stroke: #4c02a1; stroke-width: 1.5; stroke-linecap: round"/>
   </g>
   <g id="line2d_11">
    <path d="M 69.560852 47.719725 
L 115.940073 104.696232 
L 208.698515 131.598964 
L 394.215398 158.19482 
" clip-path="url(#p9f0a1a3921)" style="fill: none; stroke: #7e03a8; stroke-width: 1.5; stroke-linecap: round"/>
   </g>
   <g id="line2d_12">
    <path d="M 69.560852 126.893543 
L 115.940073 111.856655 
L 208.698515 241.051141 
L 394.215398 280.740342 
" clip-path="url(#p9f0a1a3921)" style="fill: none; stroke: #aa2395; stroke-width: 1.5; stroke-linecap: round"/>
   </g>
   <g id="line2d_13">
    <path d="M 69.560852 145.715226 
L 115.940073 102.650397 
L 208.698515 232.356342 
L 394.215398 129.143962 
" clip-path="url(#p9f0a1a3921)" style="fill: none; stroke: #cc4778; stroke-width: 1.5; stroke-linecap: round"/>
   </g>
   <g id="line2d_14">
    <path d="M 69.560852 155.84211 
L 115.940073 103.571023 
L 208.698515 249.541357 
L 394.215398 147.351894 
" clip-path="url(#p9f0a1a3921)" style="fill: none; stroke: #e66c5c; stroke-width: 1.5; stroke-linecap: round"/>
   </g>
   <g id="line2d_15">
    <path d="M 69.560852 62.756613 
L 115.940073 117.891869 
L 208.698515 289.639725 
L 394.215398 153.591691 
" clip-path="url(#p9f0a1a3921)" style="fill: none; stroke: #f89540; stroke-width: 1.5; stroke-linecap: round"/>
   </g>
   <g id="line2d_16">
    <path d="M 69.560852 88.636427 
L 115.940073 269.488249 
L 208.698515 271.022626 
L 394.215398 67.768909 
" clip-path="url(#p9f0a1a3921)" style="fill: none; stroke: #fdc527; stroke-width: 1.5; stroke-linecap: round"/>
   </g>
   <g id="line2d_17"/>
   <g id="line2d_18"/>
   <g id="line2d_19"/>
   <g id="line2d_20"/>
   <g id="line2d_21"/>
   <g id="line2d_22"/>
   <g id="line2d_23"/>
   <g id="text_12">
    <path d="M 111.71656 96.122529 
L 112.693989 94.842001 
L 108.27238 91.466978 
L 107.488135 93.07384 
L 106.773971 92.528716 
L 107.552528 90.929308 
L 108.150741 90.14559 
L 113.286515 94.065736 
L 114.263944 92.785208 
L 114.923459 93.288617 
L 112.376075 96.625938 
L 111.71656 96.122529 
z
" clip-path="url(#p9f0a1a3921)" style="fill: #4c02a1; stroke: #ffffff; stroke-width: 5"/>
    <path d="M 111.71656 96.122529 
L 112.693989 94.842001 
L 108.27238 91.466978 
L 107.488135 93.07384 
L 106.773971 92.528716 
L 107.552528 90.929308 
L 108.150741 90.14559 
L 113.286515 94.065736 
L 114.263944 92.785208 
L 114.923459 93.288617 
L 112.376075 96.625938 
L 111.71656 96.122529 
z
" clip-path="url(#p9f0a1a3921)" style="fill: #4c02a1"/>
   </g>
   <g id="text_13">
    <path d="M 153.133682 111.660304 
L 149.657459 114.704678 
L 152.049509 115.398444 
L 153.133682 111.660304 
z
M 153.123952 110.762692 
L 154.315475 111.10827 
L 152.991922 115.671772 
L 153.991361 115.961639 
L 153.762862 116.749485 
L 152.763424 116.459618 
L 152.284664 118.110342 
L 151.34225 117.837014 
L 151.82101 116.18629 
L 148.660623 115.269683 
L 148.925682 114.355782 
L 153.123952 110.762692 
z
" clip-path="url(#p9f0a1a3921)" style="fill: #7e03a8; stroke: #ffffff; stroke-width: 5"/>
    <path d="M 153.133682 111.660304 
L 149.657459 114.704678 
L 152.049509 115.398444 
L 153.133682 111.660304 
z
M 153.123952 110.762692 
L 154.315475 111.10827 
L 152.991922 115.671772 
L 153.991361 115.961639 
L 153.762862 116.749485 
L 152.763424 116.459618 
L 152.284664 118.110342 
L 151.34225 117.837014 
L 151.82101 116.18629 
L 148.660623 115.269683 
L 148.925682 114.355782 
L 153.123952 110.762692 
z
" clip-path="url(#p9f0a1a3921)" style="fill: #7e03a8"/>
   </g>
   <g id="text_14">
    <path d="M 192.28146 216.979785 
Q 191.871383 216.408628 191.330385 216.300783 
Q 190.790299 216.194207 190.255949 216.577857 
Q 189.72033 216.962419 189.648642 217.508232 
Q 189.577867 218.055316 189.987944 218.626473 
Q 190.398021 219.197631 190.941199 219.305834 
Q 191.486558 219.414395 192.01837 219.032567 
Q 192.55272 218.648917 192.623496 218.101834 
Q 192.695183 217.55602 192.28146 216.979785 
z
M 192.046597 215.934671 
Q 191.80354 215.328232 191.949528 214.786778 
Q 192.097696 214.245681 192.605392 213.881168 
Q 193.314897 213.371761 194.09009 213.580752 
Q 194.866195 213.791012 195.497714 214.670595 
Q 196.132878 215.555255 196.082155 216.35531 
Q 196.031431 217.155365 195.321926 217.664772 
Q 194.81423 218.029286 194.253251 217.995416 
Q 193.694452 217.961904 193.200281 217.541529 
Q 193.481287 218.216898 193.319288 218.821783 
Q 193.15947 219.427026 192.593389 219.833458 
Q 191.731575 220.452219 190.89357 220.257549 
Q 190.056834 220.061968 189.353324 219.082115 
Q 188.650725 218.103531 188.732007 217.246912 
Q 188.81547 216.390651 189.677284 215.77189 
Q 190.243365 215.365458 190.868849 215.408797 
Q 191.496513 215.452494 192.046597 215.934671 
z
M 193.101523 214.732928 
Q 192.642058 215.062812 192.590352 215.534651 
Q 192.539558 216.007759 192.912273 216.526878 
Q 193.283165 217.043459 193.749504 217.149124 
Q 194.216755 217.256059 194.67622 216.926174 
Q 195.136954 216.595379 195.185014 216.118463 
Q 195.233986 215.642817 194.863094 215.126236 
Q 194.49038 214.607117 194.025863 214.50399 
Q 193.562257 214.402132 193.101523 214.732928 
z
" clip-path="url(#p9f0a1a3921)" style="fill: #aa2395; stroke: #ffffff; stroke-width: 5"/>
    <path d="M 192.28146 216.979785 
Q 191.871383 216.408628 191.330385 216.300783 
Q 190.790299 216.194207 190.255949 216.577857 
Q 189.72033 216.962419 189.648642 217.508232 
Q 189.577867 218.055316 189.987944 218.626473 
Q 190.398021 219.197631 190.941199 219.305834 
Q 191.486558 219.414395 192.01837 219.032567 
Q 192.55272 218.648917 192.623496 218.101834 
Q 192.695183 217.55602 192.28146 216.979785 
z
M 192.046597 215.934671 
Q 191.80354 215.328232 191.949528 214.786778 
Q 192.097696 214.245681 192.605392 213.881168 
Q 193.314897 213.371761 194.09009 213.580752 
Q 194.866195 213.791012 195.497714 214.670595 
Q 196.132878 215.555255 196.082155 216.35531 
Q 196.031431 217.155365 195.321926 217.664772 
Q 194.81423 218.029286 194.253251 217.995416 
Q 193.694452 217.961904 193.200281 217.541529 
Q 193.481287 218.216898 193.319288 218.821783 
Q 193.15947 219.427026 192.593389 219.833458 
Q 191.731575 220.452219 190.89357 220.257549 
Q 190.056834 220.061968 189.353324 219.082115 
Q 188.650725 218.103531 188.732007 217.246912 
Q 188.81547 216.390651 189.677284 215.77189 
Q 190.243365 215.365458 190.868849 215.408797 
Q 191.496513 215.452494 192.046597 215.934671 
z
M 193.101523 214.732928 
Q 192.642058 215.062812 192.590352 215.534651 
Q 192.539558 216.007759 192.912273 216.526878 
Q 193.283165 217.043459 193.749504 217.149124 
Q 194.216755 217.256059 194.67622 216.926174 
Q 195.136954 216.595379 195.185014 216.118463 
Q 195.233986 215.642817 194.863094 215.126236 
Q 194.49038 214.607117 194.025863 214.50399 
Q 193.562257 214.402132 193.101523 214.732928 
z
" clip-path="url(#p9f0a1a3921)" style="fill: #aa2395"/>
   </g>
   <g id="text_15">
    <path d="M 228.350475 223.631196 
L 229.758212 222.848001 
L 227.053872 217.987142 
L 225.692802 219.146682 
L 225.256006 218.361572 
L 226.608883 217.206589 
L 227.470456 216.727253 
L 230.611593 222.373222 
L 232.019331 221.590027 
L 232.422703 222.315059 
L 228.753847 224.356229 
L 228.350475 223.631196 
z
M 234.151675 216.732852 
Q 233.571375 217.055702 233.452445 217.642188 
Q 233.334121 218.226549 233.718502 218.917446 
Q 234.100604 219.604247 234.661802 219.81592 
Q 235.223606 220.025468 235.803905 219.702618 
Q 236.384204 219.379769 236.501009 218.792677 
Q 236.617055 218.20422 236.234952 217.517418 
Q 235.850571 216.826521 235.291652 216.618944 
Q 234.731974 216.410002 234.151675 216.732852 
z
M 234.359193 213.078869 
L 234.79599 213.86398 
Q 234.385942 213.89185 234.010694 213.995125 
Q 233.634686 214.097035 233.309718 214.277831 
Q 232.456337 214.75261 232.326323 215.579496 
Q 232.197673 216.405622 232.781477 217.60602 
Q 232.826089 217.094854 233.095524 216.685688 
Q 233.366325 216.275762 233.822372 216.02204 
Q 234.782255 215.488009 235.663711 215.761103 
Q 236.544407 216.032832 237.101988 217.035043 
Q 237.648173 218.016773 237.39832 218.933576 
Q 237.147708 219.849013 236.183728 220.385323 
Q 235.077746 221.000637 234.02237 220.479211 
Q 232.966235 219.95642 232.071371 218.347968 
Q 231.231203 216.837824 231.448196 215.54057 
Q 231.665189 214.243317 232.872211 213.571789 
Q 233.197178 213.390994 233.563311 213.271333 
Q 233.929443 213.151673 234.359193 213.078869 
z
" clip-path="url(#p9f0a1a3921)" style="fill: #cc4778; stroke: #ffffff; stroke-width: 5"/>
    <path d="M 228.350475 223.631196 
L 229.758212 222.848001 
L 227.053872 217.987142 
L 225.692802 219.146682 
L 225.256006 218.361572 
L 226.608883 217.206589 
L 227.470456 216.727253 
L 230.611593 222.373222 
L 232.019331 221.590027 
L 232.422703 222.315059 
L 228.753847 224.356229 
L 228.350475 223.631196 
z
M 234.151675 216.732852 
Q 233.571375 217.055702 233.452445 217.642188 
Q 233.334121 218.226549 233.718502 218.917446 
Q 234.100604 219.604247 234.661802 219.81592 
Q 235.223606 220.025468 235.803905 219.702618 
Q 236.384204 219.379769 236.501009 218.792677 
Q 236.617055 218.20422 236.234952 217.517418 
Q 235.850571 216.826521 235.291652 216.618944 
Q 234.731974 216.410002 234.151675 216.732852 
z
M 234.359193 213.078869 
L 234.79599 213.86398 
Q 234.385942 213.89185 234.010694 213.995125 
Q 233.634686 214.097035 233.309718 214.277831 
Q 232.456337 214.75261 232.326323 215.579496 
Q 232.197673 216.405622 232.781477 217.60602 
Q 232.826089 217.094854 233.095524 216.685688 
Q 233.366325 216.275762 233.822372 216.02204 
Q 234.782255 215.488009 235.663711 215.761103 
Q 236.544407 216.032832 237.101988 217.035043 
Q 237.648173 218.016773 237.39832 218.933576 
Q 237.147708 219.849013 236.183728 220.385323 
Q 235.077746 221.000637 234.02237 220.479211 
Q 232.966235 219.95642 232.071371 218.347968 
Q 231.231203 216.837824 231.448196 215.54057 
Q 231.665189 214.243317 232.872211 213.571789 
Q 233.197178 213.390994 233.563311 213.271333 
Q 233.929443 213.151673 234.359193 213.078869 
z
" clip-path="url(#p9f0a1a3921)" style="fill: #cc4778"/>
   </g>
   <g id="text_16">
    <path d="M 269.480027 214.722784 
Q 270.17313 214.514033 270.752196 214.742709 
Q 271.331876 214.969263 271.671121 215.585135 
Q 272.191296 216.529472 271.826928 217.406264 
Q 271.461807 218.281687 270.264279 218.94133 
Q 269.863278 219.162216 269.393917 219.317292 
Q 268.924557 219.472369 268.384099 219.563144 
L 267.924988 218.729664 
Q 268.398906 218.741545 268.884712 218.613087 
Q 269.371888 218.483874 269.838582 218.226802 
Q 270.650163 217.779753 270.899392 217.225044 
Q 271.148621 216.670335 270.811638 216.05857 
Q 270.500287 215.493336 269.929861 215.393691 
Q 269.358681 215.292676 268.65385 215.680923 
L 267.90933 216.091032 
L 267.518068 215.380727 
L 268.296803 214.951771 
Q 268.933204 214.601218 269.131028 214.16045 
Q 269.328852 213.719682 269.064995 213.240671 
Q 268.794353 212.749342 268.300615 212.678809 
Q 267.807491 212.606153 267.157405 212.964245 
Q 266.801568 213.160253 266.438063 213.462164 
Q 266.073805 213.762708 265.67554 214.192583 
L 265.251861 213.423428 
Q 265.669171 213.015172 266.061218 212.710024 
Q 266.453266 212.404877 266.833738 212.195299 
Q 267.817764 211.653262 268.636358 211.785674 
Q 269.455567 211.915965 269.874722 212.676909 
Q 270.167226 213.207927 270.064681 213.740705 
Q 269.962137 214.273482 269.480027 214.722784 
z
M 274.675637 215.401828 
L 277.690671 213.741037 
L 278.09098 214.467766 
L 274.037175 216.700749 
L 273.636867 215.97402 
Q 273.847753 215.194258 274.224361 213.870108 
Q 274.601583 212.543836 274.681985 212.174884 
Q 274.840354 211.481134 274.826672 211.067678 
Q 274.814358 210.653469 274.642474 210.341427 
Q 274.362032 209.832307 273.828419 209.708815 
Q 273.294052 209.583955 272.720607 209.89983 
Q 272.314132 210.123731 271.940142 210.513477 
Q 271.567521 210.902468 271.212609 211.472579 
L 270.731635 210.59941 
Q 271.13773 210.102786 271.531936 209.746502 
Q 271.92751 209.389464 272.303876 209.182148 
Q 273.296113 208.635587 274.159639 208.807469 
Q 275.02241 208.977983 275.47926 209.807357 
Q 275.696376 210.201515 275.743067 210.636033 
Q 275.790373 211.068429 275.664178 211.762295 
Q 275.62603 211.94564 275.379013 212.85412 
Q 275.133366 213.761846 274.675637 215.401828 
z
" clip-path="url(#p9f0a1a3921)" style="fill: #e66c5c; stroke: #ffffff; stroke-width: 5"/>
    <path d="M 269.480027 214.722784 
Q 270.17313 214.514033 270.752196 214.742709 
Q 271.331876 214.969263 271.671121 215.585135 
Q 272.191296 216.529472 271.826928 217.406264 
Q 271.461807 218.281687 270.264279 218.94133 
Q 269.863278 219.162216 269.393917 219.317292 
Q 268.924557 219.472369 268.384099 219.563144 
L 267.924988 218.729664 
Q 268.398906 218.741545 268.884712 218.613087 
Q 269.371888 218.483874 269.838582 218.226802 
Q 270.650163 217.779753 270.899392 217.225044 
Q 271.148621 216.670335 270.811638 216.05857 
Q 270.500287 215.493336 269.929861 215.393691 
Q 269.358681 215.292676 268.65385 215.680923 
L 267.90933 216.091032 
L 267.518068 215.380727 
L 268.296803 214.951771 
Q 268.933204 214.601218 269.131028 214.16045 
Q 269.328852 213.719682 269.064995 213.240671 
Q 268.794353 212.749342 268.300615 212.678809 
Q 267.807491 212.606153 267.157405 212.964245 
Q 266.801568 213.160253 266.438063 213.462164 
Q 266.073805 213.762708 265.67554 214.192583 
L 265.251861 213.423428 
Q 265.669171 213.015172 266.061218 212.710024 
Q 266.453266 212.404877 266.833738 212.195299 
Q 267.817764 211.653262 268.636358 211.785674 
Q 269.455567 211.915965 269.874722 212.676909 
Q 270.167226 213.207927 270.064681 213.740705 
Q 269.962137 214.273482 269.480027 214.722784 
z
M 274.675637 215.401828 
L 277.690671 213.741037 
L 278.09098 214.467766 
L 274.037175 216.700749 
L 273.636867 215.97402 
Q 273.847753 215.194258 274.224361 213.870108 
Q 274.601583 212.543836 274.681985 212.174884 
Q 274.840354 211.481134 274.826672 211.067678 
Q 274.814358 210.653469 274.642474 210.341427 
Q 274.362032 209.832307 273.828419 209.708815 
Q 273.294052 209.583955 272.720607 209.89983 
Q 272.314132 210.123731 271.940142 210.513477 
Q 271.567521 210.902468 271.212609 211.472579 
L 270.731635 210.59941 
Q 271.13773 210.102786 271.531936 209.746502 
Q 271.92751 209.389464 272.303876 209.182148 
Q 273.296113 208.635587 274.159639 208.807469 
Q 275.02241 208.977983 275.47926 209.807357 
Q 275.696376 210.201515 275.743067 210.636033 
Q 275.790373 211.068429 275.664178 211.762295 
Q 275.62603 211.94564 275.379013 212.85412 
Q 275.133366 213.761846 274.675637 215.401828 
z
" clip-path="url(#p9f0a1a3921)" style="fill: #e66c5c"/>
   </g>
   <g id="text_17">
    <path d="M 309.015939 214.487383 
Q 308.480439 214.88009 308.435588 215.47683 
Q 308.391072 216.071386 308.858624 216.708946 
Q 309.323404 217.342726 309.906621 217.48275 
Q 310.490174 217.620591 311.025674 217.227884 
Q 311.561174 216.835177 311.603842 216.238101 
Q 311.645585 215.639765 311.180805 215.005985 
Q 310.713253 214.368425 310.132808 214.232181 
Q 309.551439 214.094676 309.015939 214.487383 
z
M 308.766092 210.836051 
L 309.297401 211.560551 
Q 308.894031 211.639347 308.534594 211.788618 
Q 308.174233 211.93663 307.874353 212.156546 
Q 307.086853 212.734056 307.060988 213.570701 
Q 307.036382 214.406423 307.765348 215.524632 
Q 307.745856 215.011893 307.962154 214.572316 
Q 308.179711 214.131816 308.600551 213.823194 
Q 309.486332 213.173611 310.394967 213.334633 
Q 311.302677 213.494394 311.980905 214.419235 
Q 312.645273 215.325175 312.511719 216.265982 
Q 312.377242 217.205529 311.487682 217.857884 
Q 310.467082 218.606337 309.354912 218.220616 
Q 308.241818 217.833634 307.153327 216.349354 
Q 306.131365 214.955794 306.184863 213.641605 
Q 306.238361 212.327416 307.352201 211.510586 
Q 307.652081 211.29067 308.00043 211.126279 
Q 308.348779 210.961887 308.766092 210.836051 
z
M 313.116471 208.511836 
L 313.409754 213.123378 
L 315.418194 211.650497 
L 313.116471 208.511836 
z
M 312.399102 207.972223 
L 313.399542 207.238554 
L 316.209475 211.070215 
L 317.048635 210.45482 
L 317.533743 211.116321 
L 316.694583 211.731715 
L 317.711001 213.117715 
L 316.91972 213.697998 
L 315.903303 212.311997 
L 313.249742 214.257975 
L 312.687017 213.490635 
L 312.399102 207.972223 
z
" clip-path="url(#p9f0a1a3921)" style="fill: #f89540; stroke: #ffffff; stroke-width: 5"/>
    <path d="M 309.015939 214.487383 
Q 308.480439 214.88009 308.435588 215.47683 
Q 308.391072 216.071386 308.858624 216.708946 
Q 309.323404 217.342726 309.906621 217.48275 
Q 310.490174 217.620591 311.025674 217.227884 
Q 311.561174 216.835177 311.603842 216.238101 
Q 311.645585 215.639765 311.180805 215.005985 
Q 310.713253 214.368425 310.132808 214.232181 
Q 309.551439 214.094676 309.015939 214.487383 
z
M 308.766092 210.836051 
L 309.297401 211.560551 
Q 308.894031 211.639347 308.534594 211.788618 
Q 308.174233 211.93663 307.874353 212.156546 
Q 307.086853 212.734056 307.060988 213.570701 
Q 307.036382 214.406423 307.765348 215.524632 
Q 307.745856 215.011893 307.962154 214.572316 
Q 308.179711 214.131816 308.600551 213.823194 
Q 309.486332 213.173611 310.394967 213.334633 
Q 311.302677 213.494394 311.980905 214.419235 
Q 312.645273 215.325175 312.511719 216.265982 
Q 312.377242 217.205529 311.487682 217.857884 
Q 310.467082 218.606337 309.354912 218.220616 
Q 308.241818 217.833634 307.153327 216.349354 
Q 306.131365 214.955794 306.184863 213.641605 
Q 306.238361 212.327416 307.352201 211.510586 
Q 307.652081 211.29067 308.00043 211.126279 
Q 308.348779 210.961887 308.766092 210.836051 
z
M 313.116471 208.511836 
L 313.409754 213.123378 
L 315.418194 211.650497 
L 313.116471 208.511836 
z
M 312.399102 207.972223 
L 313.399542 207.238554 
L 316.209475 211.070215 
L 317.048635 210.45482 
L 317.533743 211.116321 
L 316.694583 211.731715 
L 317.711001 213.117715 
L 316.91972 213.697998 
L 315.903303 212.311997 
L 313.249742 214.257975 
L 312.687017 213.490635 
L 312.399102 207.972223 
z
" clip-path="url(#p9f0a1a3921)" style="fill: #f89540"/>
   </g>
   <g id="text_18">
    <path d="M 348.243877 120.998079 
L 349.329883 119.808243 
L 345.221427 116.05831 
L 344.29923 117.59017 
L 343.635645 116.984493 
L 344.551523 115.459557 
L 345.216188 114.731345 
L 349.988228 119.086955 
L 351.074234 117.897119 
L 351.68704 118.456449 
L 348.856683 121.557409 
L 348.243877 120.998079 
z
M 352.99015 115.798027 
L 355.310684 113.255632 
L 355.92349 113.814961 
L 352.803462 117.233289 
L 352.190655 116.673959 
Q 352.139498 115.867804 352.070135 114.492888 
Q 352.00067 113.115765 351.958114 112.740559 
Q 351.884899 112.032739 351.738943 111.645661 
Q 351.594041 111.257428 351.330915 111.017264 
Q 350.901604 110.625417 350.356629 110.680143 
Q 349.8105 110.733815 349.369146 111.217366 
Q 349.0563 111.560122 348.827562 112.049457 
Q 348.599878 112.537639 348.447223 113.191615 
L 347.710933 112.519577 
Q 347.935689 111.918717 348.194331 111.454561 
Q 348.454027 110.989252 348.743699 110.671885 
Q 349.507379 109.835191 350.380298 109.720158 
Q 351.252063 109.604071 351.951424 110.242402 
Q 352.283793 110.545768 352.467779 110.942171 
Q 352.651663 111.336367 352.755379 112.033948 
Q 352.778237 112.219819 352.836591 113.159472 
Q 352.895998 114.097971 352.99015 115.798027 
z
M 356.183677 108.393766 
Q 355.709669 108.913093 355.716033 109.464698 
Q 355.72345 110.01515 356.209309 110.458611 
Q 356.696323 110.903126 357.245163 110.86039 
Q 357.795056 110.8165 358.269065 110.297173 
Q 358.743073 109.777846 358.736609 109.224033 
Q 358.730043 108.668012 358.246492 108.226658 
Q 357.760632 107.783197 357.210739 107.827086 
Q 356.661899 107.869822 356.183677 108.393766 
z
M 355.209724 108.83968 
Q 354.666657 109.202893 354.106717 109.172033 
Q 353.546677 109.138965 353.085052 108.717624 
Q 352.439933 108.128801 352.484097 107.327145 
Q 352.529315 106.524336 353.259288 105.724572 
Q 353.993474 104.920191 354.786725 104.804369 
Q 355.579975 104.688546 356.225095 105.27737 
Q 356.686719 105.698711 356.769591 106.254568 
Q 356.852362 106.808217 356.543268 107.378639 
Q 357.145926 106.964043 357.771237 106.99745 
Q 358.396446 107.028651 358.911157 107.498446 
Q 359.694764 108.213672 359.6776 109.07382 
Q 359.659283 109.932914 358.846095 110.823849 
Q 358.03396 111.713629 357.179049 111.811251 
Q 356.324038 111.906665 355.540431 111.191439 
Q 355.02572 110.721644 354.938773 110.100719 
Q 354.851726 109.477586 355.209724 108.83968 
z
M 353.815801 108.056076 
Q 354.233571 108.437389 354.705903 108.390402 
Q 355.179288 108.34226 355.610109 107.87025 
Q 356.038823 107.400547 356.045767 106.922437 
Q 356.053763 106.443172 355.635993 106.061859 
Q 355.217069 105.679492 354.740524 105.731096 
Q 354.265032 105.781545 353.836318 106.251248 
Q 353.405497 106.723258 353.40066 107.199061 
Q 353.396877 107.673709 353.815801 108.056076 
z
" clip-path="url(#p9f0a1a3921)" style="fill: #fdc527; stroke: #ffffff; stroke-width: 5"/>
    <path d="M 348.243877 120.998079 
L 349.329883 119.808243 
L 345.221427 116.05831 
L 344.29923 117.59017 
L 343.635645 116.984493 
L 344.551523 115.459557 
L 345.216188 114.731345 
L 349.988228 119.086955 
L 351.074234 117.897119 
L 351.68704 118.456449 
L 348.856683 121.557409 
L 348.243877 120.998079 
z
M 352.99015 115.798027 
L 355.310684 113.255632 
L 355.92349 113.814961 
L 352.803462 117.233289 
L 352.190655 116.673959 
Q 352.139498 115.867804 352.070135 114.492888 
Q 352.00067 113.115765 351.958114 112.740559 
Q 351.884899 112.032739 351.738943 111.645661 
Q 351.594041 111.257428 351.330915 111.017264 
Q 350.901604 110.625417 350.356629 110.680143 
Q 349.8105 110.733815 349.369146 111.217366 
Q 349.0563 111.560122 348.827562 112.049457 
Q 348.599878 112.537639 348.447223 113.191615 
L 347.710933 112.519577 
Q 347.935689 111.918717 348.194331 111.454561 
Q 348.454027 110.989252 348.743699 110.671885 
Q 349.507379 109.835191 350.380298 109.720158 
Q 351.252063 109.604071 351.951424 110.242402 
Q 352.283793 110.545768 352.467779 110.942171 
Q 352.651663 111.336367 352.755379 112.033948 
Q 352.778237 112.219819 352.836591 113.159472 
Q 352.895998 114.097971 352.99015 115.798027 
z
M 356.183677 108.393766 
Q 355.709669 108.913093 355.716033 109.464698 
Q 355.72345 110.01515 356.209309 110.458611 
Q 356.696323 110.903126 357.245163 110.86039 
Q 357.795056 110.8165 358.269065 110.297173 
Q 358.743073 109.777846 358.736609 109.224033 
Q 358.730043 108.668012 358.246492 108.226658 
Q 357.760632 107.783197 357.210739 107.827086 
Q 356.661899 107.869822 356.183677 108.393766 
z
M 355.209724 108.83968 
Q 354.666657 109.202893 354.106717 109.172033 
Q 353.546677 109.138965 353.085052 108.717624 
Q 352.439933 108.128801 352.484097 107.327145 
Q 352.529315 106.524336 353.259288 105.724572 
Q 353.993474 104.920191 354.786725 104.804369 
Q 355.579975 104.688546 356.225095 105.27737 
Q 356.686719 105.698711 356.769591 106.254568 
Q 356.852362 106.808217 356.543268 107.378639 
Q 357.145926 106.964043 357.771237 106.99745 
Q 358.396446 107.028651 358.911157 107.498446 
Q 359.694764 108.213672 359.6776 109.07382 
Q 359.659283 109.932914 358.846095 110.823849 
Q 358.03396 111.713629 357.179049 111.811251 
Q 356.324038 111.906665 355.540431 111.191439 
Q 355.02572 110.721644 354.938773 110.100719 
Q 354.851726 109.477586 355.209724 108.83968 
z
M 353.815801 108.056076 
Q 354.233571 108.437389 354.705903 108.390402 
Q 355.179288 108.34226 355.610109 107.87025 
Q 356.038823 107.400547 356.045767 106.922437 
Q 356.053763 106.443172 355.635993 106.061859 
Q 355.217069 105.679492 354.740524 105.731096 
Q 354.265032 105.781545 353.836318 106.251248 
Q 353.405497 106.723258 353.40066 107.199061 
Q 353.396877 107.673709 353.815801 108.056076 
z
" clip-path="url(#p9f0a1a3921)" style="fill: #fdc527"/>
   </g>
   <g id="patch_3">
    <path d="M 53.328125 301.735725 
L 53.328125 35.623725 
" style="fill: none; stroke: #cccccc; stroke-width: 0.8; stroke-linejoin: miter; stroke-linecap: square"/>
   </g>
   <g id="patch_4">
    <path d="M 410.448125 301.735725 
L 410.448125 35.623725 
" style="fill: none; stroke: #cccccc; stroke-width: 0.8; stroke-linejoin: miter; stroke-linecap: square"/>
   </g>
   <g id="patch_5">
    <path d="M 53.328125 301.735725 
L 410.448125 301.735725 
" style="fill: none; stroke: #cccccc; stroke-width: 0.8; stroke-linejoin: miter; stroke-linecap: square"/>
   </g>
   <g id="patch_6">
    <path d="M 53.328125 35.623725 
L 410.448125 35.623725 
" style="fill: none; stroke: #cccccc; stroke-width: 0.8; stroke-linejoin: miter; stroke-linecap: square"/>
   </g>
   <g id="text_19">
    <!-- Block Size = 1M, Read-Write Type = Sequential Write-heavy 1:4 -->
    <g style="fill: #262626; opacity: 0.75" transform="translate(72.563906 30.882918) scale(0.1 -0.1)">
     <defs>
      <path id="DejaVuSans-42" d="M 1259 2228 
L 1259 519 
L 2272 519 
Q 2781 519 3026 730 
Q 3272 941 3272 1375 
Q 3272 1813 3026 2020 
Q 2781 2228 2272 2228 
L 1259 2228 
z
M 1259 4147 
L 1259 2741 
L 2194 2741 
Q 2656 2741 2882 2914 
Q 3109 3088 3109 3444 
Q 3109 3797 2882 3972 
Q 2656 4147 2194 4147 
L 1259 4147 
z
M 628 4666 
L 2241 4666 
Q 2963 4666 3353 4366 
Q 3744 4066 3744 3513 
Q 3744 3084 3544 2831 
Q 3344 2578 2956 2516 
Q 3422 2416 3680 2098 
Q 3938 1781 3938 1306 
Q 3938 681 3513 340 
Q 3088 0 2303 0 
L 628 0 
L 628 4666 
z
" transform="scale(0.015625)"/>
      <path id="DejaVuSans-6c" d="M 603 4863 
L 1178 4863 
L 1178 0 
L 603 0 
L 603 4863 
z
" transform="scale(0.015625)"/>
      <path id="DejaVuSans-63" d="M 3122 3366 
L 3122 2828 
Q 2878 2963 2633 3030 
Q 2388 3097 2138 3097 
Q 1578 3097 1268 2742 
Q 959 2388 959 1747 
Q 959 1106 1268 751 
Q 1578 397 2138 397 
Q 2388 397 2633 464 
Q 2878 531 3122 666 
L 3122 134 
Q 2881 22 2623 -34 
Q 2366 -91 2075 -91 
Q 1284 -91 818 406 
Q 353 903 353 1747 
Q 353 2603 823 3093 
Q 1294 3584 2113 3584 
Q 2378 3584 2631 3529 
Q 2884 3475 3122 3366 
z
" transform="scale(0.015625)"/>
      <path id="DejaVuSans-6b" d="M 581 4863 
L 1159 4863 
L 1159 1991 
L 2875 3500 
L 3609 3500 
L 1753 1863 
L 3688 0 
L 2938 0 
L 1159 1709 
L 1159 0 
L 581 0 
L 581 4863 
z
" transform="scale(0.015625)"/>
      <path id="DejaVuSans-69" d="M 603 3500 
L 1178 3500 
L 1178 0 
L 603 0 
L 603 3500 
z
M 603 4863 
L 1178 4863 
L 1178 4134 
L 603 4134 
L 603 4863 
z
" transform="scale(0.015625)"/>
      <path id="DejaVuSans-7a" d="M 353 3500 
L 3084 3500 
L 3084 2975 
L 922 459 
L 3084 459 
L 3084 0 
L 275 0 
L 275 525 
L 2438 3041 
L 353 3041 
L 353 3500 
z
" transform="scale(0.015625)"/>
      <path id="DejaVuSans-3d" d="M 678 2906 
L 4684 2906 
L 4684 2381 
L 678 2381 
L 678 2906 
z
M 678 1631 
L 4684 1631 
L 4684 1100 
L 678 1100 
L 678 1631 
z
" transform="scale(0.015625)"/>
      <path id="DejaVuSans-4d" d="M 628 4666 
L 1569 4666 
L 2759 1491 
L 3956 4666 
L 4897 4666 
L 4897 0 
L 4281 0 
L 4281 4097 
L 3078 897 
L 2444 897 
L 1241 4097 
L 1241 0 
L 628 0 
L 628 4666 
z
" transform="scale(0.015625)"/>
      <path id="DejaVuSans-2c" d="M 750 794 
L 1409 794 
L 1409 256 
L 897 -744 
L 494 -744 
L 750 256 
L 750 794 
z
" transform="scale(0.015625)"/>
      <path id="DejaVuSans-52" d="M 2841 2188 
Q 3044 2119 3236 1894 
Q 3428 1669 3622 1275 
L 4263 0 
L 3584 0 
L 2988 1197 
Q 2756 1666 2539 1819 
Q 2322 1972 1947 1972 
L 1259 1972 
L 1259 0 
L 628 0 
L 628 4666 
L 2053 4666 
Q 2853 4666 3247 4331 
Q 3641 3997 3641 3322 
Q 3641 2881 3436 2590 
Q 3231 2300 2841 2188 
z
M 1259 4147 
L 1259 2491 
L 2053 2491 
Q 2509 2491 2742 2702 
Q 2975 2913 2975 3322 
Q 2975 3731 2742 3939 
Q 2509 4147 2053 4147 
L 1259 4147 
z
" transform="scale(0.015625)"/>
      <path id="DejaVuSans-61" d="M 2194 1759 
Q 1497 1759 1228 1600 
Q 959 1441 959 1056 
Q 959 750 1161 570 
Q 1363 391 1709 391 
Q 2188 391 2477 730 
Q 2766 1069 2766 1631 
L 2766 1759 
L 2194 1759 
z
M 3341 1997 
L 3341 0 
L 2766 0 
L 2766 531 
Q 2569 213 2275 61 
Q 1981 -91 1556 -91 
Q 1019 -91 701 211 
Q 384 513 384 1019 
Q 384 1609 779 1909 
Q 1175 2209 1959 2209 
L 2766 2209 
L 2766 2266 
Q 2766 2663 2505 2880 
Q 2244 3097 1772 3097 
Q 1472 3097 1187 3025 
Q 903 2953 641 2809 
L 641 3341 
Q 956 3463 1253 3523 
Q 1550 3584 1831 3584 
Q 2591 3584 2966 3190 
Q 3341 2797 3341 1997 
z
" transform="scale(0.015625)"/>
      <path id="DejaVuSans-64" d="M 2906 2969 
L 2906 4863 
L 3481 4863 
L 3481 0 
L 2906 0 
L 2906 525 
Q 2725 213 2448 61 
Q 2172 -91 1784 -91 
Q 1150 -91 751 415 
Q 353 922 353 1747 
Q 353 2572 751 3078 
Q 1150 3584 1784 3584 
Q 2172 3584 2448 3432 
Q 2725 3281 2906 2969 
z
M 947 1747 
Q 947 1113 1208 752 
Q 1469 391 1925 391 
Q 2381 391 2643 752 
Q 2906 1113 2906 1747 
Q 2906 2381 2643 2742 
Q 2381 3103 1925 3103 
Q 1469 3103 1208 2742 
Q 947 2381 947 1747 
z
" transform="scale(0.015625)"/>
      <path id="DejaVuSans-2d" d="M 313 2009 
L 1997 2009 
L 1997 1497 
L 313 1497 
L 313 2009 
z
" transform="scale(0.015625)"/>
      <path id="DejaVuSans-57" d="M 213 4666 
L 850 4666 
L 1831 722 
L 2809 4666 
L 3519 4666 
L 4500 722 
L 5478 4666 
L 6119 4666 
L 4947 0 
L 4153 0 
L 3169 4050 
L 2175 0 
L 1381 0 
L 213 4666 
z
" transform="scale(0.015625)"/>
      <path id="DejaVuSans-74" d="M 1172 4494 
L 1172 3500 
L 2356 3500 
L 2356 3053 
L 1172 3053 
L 1172 1153 
Q 1172 725 1289 603 
Q 1406 481 1766 481 
L 2356 481 
L 2356 0 
L 1766 0 
Q 1100 0 847 248 
Q 594 497 594 1153 
L 594 3053 
L 172 3053 
L 172 3500 
L 594 3500 
L 594 4494 
L 1172 4494 
z
" transform="scale(0.015625)"/>
      <path id="DejaVuSans-54" d="M -19 4666 
L 3928 4666 
L 3928 4134 
L 2272 4134 
L 2272 0 
L 1638 0 
L 1638 4134 
L -19 4134 
L -19 4666 
z
" transform="scale(0.015625)"/>
      <path id="DejaVuSans-79" d="M 2059 -325 
Q 1816 -950 1584 -1140 
Q 1353 -1331 966 -1331 
L 506 -1331 
L 506 -850 
L 844 -850 
Q 1081 -850 1212 -737 
Q 1344 -625 1503 -206 
L 1606 56 
L 191 3500 
L 800 3500 
L 1894 763 
L 2988 3500 
L 3597 3500 
L 2059 -325 
z
" transform="scale(0.015625)"/>
      <path id="DejaVuSans-70" d="M 1159 525 
L 1159 -1331 
L 581 -1331 
L 581 3500 
L 1159 3500 
L 1159 2969 
Q 1341 3281 1617 3432 
Q 1894 3584 2278 3584 
Q 2916 3584 3314 3078 
Q 3713 2572 3713 1747 
Q 3713 922 3314 415 
Q 2916 -91 2278 -91 
Q 1894 -91 1617 61 
Q 1341 213 1159 525 
z
M 3116 1747 
Q 3116 2381 2855 2742 
Q 2594 3103 2138 3103 
Q 1681 3103 1420 2742 
Q 1159 2381 1159 1747 
Q 1159 1113 1420 752 
Q 1681 391 2138 391 
Q 2594 391 2855 752 
Q 3116 1113 3116 1747 
z
" transform="scale(0.015625)"/>
      <path id="DejaVuSans-71" d="M 947 1747 
Q 947 1113 1208 752 
Q 1469 391 1925 391 
Q 2381 391 2643 752 
Q 2906 1113 2906 1747 
Q 2906 2381 2643 2742 
Q 2381 3103 1925 3103 
Q 1469 3103 1208 2742 
Q 947 2381 947 1747 
z
M 2906 525 
Q 2725 213 2448 61 
Q 2172 -91 1784 -91 
Q 1150 -91 751 415 
Q 353 922 353 1747 
Q 353 2572 751 3078 
Q 1150 3584 1784 3584 
Q 2172 3584 2448 3432 
Q 2725 3281 2906 2969 
L 2906 3500 
L 3481 3500 
L 3481 -1331 
L 2906 -1331 
L 2906 525 
z
" transform="scale(0.015625)"/>
      <path id="DejaVuSans-6e" d="M 3513 2113 
L 3513 0 
L 2938 0 
L 2938 2094 
Q 2938 2591 2744 2837 
Q 2550 3084 2163 3084 
Q 1697 3084 1428 2787 
Q 1159 2491 1159 1978 
L 1159 0 
L 581 0 
L 581 3500 
L 1159 3500 
L 1159 2956 
Q 1366 3272 1645 3428 
Q 1925 3584 2291 3584 
Q 2894 3584 3203 3211 
Q 3513 2838 3513 2113 
z
" transform="scale(0.015625)"/>
      <path id="DejaVuSans-68" d="M 3513 2113 
L 3513 0 
L 2938 0 
L 2938 2094 
Q 2938 2591 2744 2837 
Q 2550 3084 2163 3084 
Q 1697 3084 1428 2787 
Q 1159 2491 1159 1978 
L 1159 0 
L 581 0 
L 581 4863 
L 1159 4863 
L 1159 2956 
Q 1366 3272 1645 3428 
Q 1925 3584 2291 3584 
Q 2894 3584 3203 3211 
Q 3513 2838 3513 2113 
z
" transform="scale(0.015625)"/>
      <path id="DejaVuSans-76" d="M 191 3500 
L 800 3500 
L 1894 563 
L 2988 3500 
L 3597 3500 
L 2284 0 
L 1503 0 
L 191 3500 
z
" transform="scale(0.015625)"/>
      <path id="DejaVuSans-3a" d="M 750 794 
L 1409 794 
L 1409 0 
L 750 0 
L 750 794 
z
M 750 3309 
L 1409 3309 
L 1409 2516 
L 750 2516 
L 750 3309 
z
" transform="scale(0.015625)"/>
     </defs>
     <use xlink:href="#DejaVuSans-42"/>
     <use xlink:href="#DejaVuSans-6c" transform="translate(68.603516 0)"/>
     <use xlink:href="#DejaVuSans-6f" transform="translate(96.386719 0)"/>
     <use xlink:href="#DejaVuSans-63" transform="translate(157.568359 0)"/>
     <use xlink:href="#DejaVuSans-6b" transform="translate(212.548828 0)"/>
     <use xlink:href="#DejaVuSans-20" transform="translate(270.458984 0)"/>
     <use xlink:href="#DejaVuSans-53" transform="translate(302.246094 0)"/>
     <use xlink:href="#DejaVuSans-69" transform="translate(365.722656 0)"/>
     <use xlink:href="#DejaVuSans-7a" transform="translate(393.505859 0)"/>
     <use xlink:href="#DejaVuSans-65" transform="translate(445.996094 0)"/>
     <use xlink:href="#DejaVuSans-20" transform="translate(507.519531 0)"/>
     <use xlink:href="#DejaVuSans-3d" transform="translate(539.306641 0)"/>
     <use xlink:href="#DejaVuSans-20" transform="translate(623.095703 0)"/>
     <use xlink:href="#DejaVuSans-31" transform="translate(654.882812 0)"/>
     <use xlink:href="#DejaVuSans-4d" transform="translate(718.505859 0)"/>
     <use xlink:href="#DejaVuSans-2c" transform="translate(804.785156 0)"/>
     <use xlink:href="#DejaVuSans-20" transform="translate(836.572266 0)"/>
     <use xlink:href="#DejaVuSans-52" transform="translate(868.359375 0)"/>
     <use xlink:href="#DejaVuSans-65" transform="translate(933.341797 0)"/>
     <use xlink:href="#DejaVuSans-61" transform="translate(994.865234 0)"/>
     <use xlink:href="#DejaVuSans-64" transform="translate(1056.144531 0)"/>
     <use xlink:href="#DejaVuSans-2d" transform="translate(1119.621094 0)"/>
     <use xlink:href="#DejaVuSans-57" transform="translate(1151.705078 0)"/>
     <use xlink:href="#DejaVuSans-72" transform="translate(1246.082031 0)"/>
     <use xlink:href="#DejaVuSans-69" transform="translate(1287.195312 0)"/>
     <use xlink:href="#DejaVuSans-74" transform="translate(1314.978516 0)"/>
     <use xlink:href="#DejaVuSans-65" transform="translate(1354.1875 0)"/>
     <use xlink:href="#DejaVuSans-20" transform="translate(1415.710938 0)"/>
     <use xlink:href="#DejaVuSans-54" transform="translate(1447.498047 0)"/>
     <use xlink:href="#DejaVuSans-79" transform="translate(1492.957031 0)"/>
     <use xlink:href="#DejaVuSans-70" transform="translate(1552.136719 0)"/>
     <use xlink:href="#DejaVuSans-65" transform="translate(1615.613281 0)"/>
     <use xlink:href="#DejaVuSans-20" transform="translate(1677.136719 0)"/>
     <use xlink:href="#DejaVuSans-3d" transform="translate(1708.923828 0)"/>
     <use xlink:href="#DejaVuSans-20" transform="translate(1792.712891 0)"/>
     <use xlink:href="#DejaVuSans-53" transform="translate(1824.5 0)"/>
     <use xlink:href="#DejaVuSans-65" transform="translate(1887.976562 0)"/>
     <use xlink:href="#DejaVuSans-71" transform="translate(1949.5 0)"/>
     <use xlink:href="#DejaVuSans-75" transform="translate(2012.976562 0)"/>
     <use xlink:href="#DejaVuSans-65" transform="translate(2076.355469 0)"/>
     <use xlink:href="#DejaVuSans-6e" transform="translate(2137.878906 0)"/>
     <use xlink:href="#DejaVuSans-74" transform="translate(2201.257812 0)"/>
     <use xlink:href="#DejaVuSans-69" transform="translate(2240.466797 0)"/>
     <use xlink:href="#DejaVuSans-61" transform="translate(2268.25 0)"/>
     <use xlink:href="#DejaVuSans-6c" transform="translate(2329.529297 0)"/>
     <use xlink:href="#DejaVuSans-20" transform="translate(2357.3125 0)"/>
     <use xlink:href="#DejaVuSans-57" transform="translate(2389.099609 0)"/>
     <use xlink:href="#DejaVuSans-72" transform="translate(2483.476562 0)"/>
     <use xlink:href="#DejaVuSans-69" transform="translate(2524.589844 0)"/>
     <use xlink:href="#DejaVuSans-74" transform="translate(2552.373047 0)"/>
     <use xlink:href="#DejaVuSans-65" transform="translate(2591.582031 0)"/>
     <use xlink:href="#DejaVuSans-2d" transform="translate(2653.105469 0)"/>
     <use xlink:href="#DejaVuSans-68" transform="translate(2689.189453 0)"/>
     <use xlink:href="#DejaVuSans-65" transform="translate(2752.568359 0)"/>
     <use xlink:href="#DejaVuSans-61" transform="translate(2814.091797 0)"/>
     <use xlink:href="#DejaVuSans-76" transform="translate(2875.371094 0)"/>
     <use xlink:href="#DejaVuSans-79" transform="translate(2934.550781 0)"/>
     <use xlink:href="#DejaVuSans-20" transform="translate(2993.730469 0)"/>
     <use xlink:href="#DejaVuSans-31" transform="translate(3025.517578 0)"/>
     <use xlink:href="#DejaVuSans-3a" transform="translate(3089.140625 0)"/>
     <use xlink:href="#DejaVuSans-34" transform="translate(3122.832031 0)"/>
    </g>
   </g>
   <g id="text_20">
    <!-- IOPS vs Number of Jobs -->
    <g style="fill: #262626" transform="translate(152.179062 16.318125) scale(0.12 -0.12)">
     <defs>
      <path id="DejaVuSans-Bold-49" d="M 588 4666 
L 1791 4666 
L 1791 0 
L 588 0 
L 588 4666 
z
" transform="scale(0.015625)"/>
      <path id="DejaVuSans-Bold-4f" d="M 2719 3878 
Q 2169 3878 1866 3472 
Q 1563 3066 1563 2328 
Q 1563 1594 1866 1187 
Q 2169 781 2719 781 
Q 3272 781 3575 1187 
Q 3878 1594 3878 2328 
Q 3878 3066 3575 3472 
Q 3272 3878 2719 3878 
z
M 2719 4750 
Q 3844 4750 4481 4106 
Q 5119 3463 5119 2328 
Q 5119 1197 4481 553 
Q 3844 -91 2719 -91 
Q 1597 -91 958 553 
Q 319 1197 319 2328 
Q 319 3463 958 4106 
Q 1597 4750 2719 4750 
z
" transform="scale(0.015625)"/>
      <path id="DejaVuSans-Bold-50" d="M 588 4666 
L 2584 4666 
Q 3475 4666 3951 4270 
Q 4428 3875 4428 3144 
Q 4428 2409 3951 2014 
Q 3475 1619 2584 1619 
L 1791 1619 
L 1791 0 
L 588 0 
L 588 4666 
z
M 1791 3794 
L 1791 2491 
L 2456 2491 
Q 2806 2491 2997 2661 
Q 3188 2831 3188 3144 
Q 3188 3456 2997 3625 
Q 2806 3794 2456 3794 
L 1791 3794 
z
" transform="scale(0.015625)"/>
      <path id="DejaVuSans-Bold-53" d="M 3834 4519 
L 3834 3531 
Q 3450 3703 3084 3790 
Q 2719 3878 2394 3878 
Q 1963 3878 1756 3759 
Q 1550 3641 1550 3391 
Q 1550 3203 1689 3098 
Q 1828 2994 2194 2919 
L 2706 2816 
Q 3484 2659 3812 2340 
Q 4141 2022 4141 1434 
Q 4141 663 3683 286 
Q 3225 -91 2284 -91 
Q 1841 -91 1394 -6 
Q 947 78 500 244 
L 500 1259 
Q 947 1022 1364 901 
Q 1781 781 2169 781 
Q 2563 781 2772 912 
Q 2981 1044 2981 1288 
Q 2981 1506 2839 1625 
Q 2697 1744 2272 1838 
L 1806 1941 
Q 1106 2091 782 2419 
Q 459 2747 459 3303 
Q 459 4000 909 4375 
Q 1359 4750 2203 4750 
Q 2588 4750 2994 4692 
Q 3400 4634 3834 4519 
z
" transform="scale(0.015625)"/>
      <path id="DejaVuSans-Bold-20" transform="scale(0.015625)"/>
      <path id="DejaVuSans-Bold-76" d="M 97 3500 
L 1216 3500 
L 2088 1081 
L 2956 3500 
L 4078 3500 
L 2700 0 
L 1472 0 
L 97 3500 
z
" transform="scale(0.015625)"/>
      <path id="DejaVuSans-Bold-73" d="M 3272 3391 
L 3272 2541 
Q 2913 2691 2578 2766 
Q 2244 2841 1947 2841 
Q 1628 2841 1473 2761 
Q 1319 2681 1319 2516 
Q 1319 2381 1436 2309 
Q 1553 2238 1856 2203 
L 2053 2175 
Q 2913 2066 3209 1816 
Q 3506 1566 3506 1031 
Q 3506 472 3093 190 
Q 2681 -91 1863 -91 
Q 1516 -91 1145 -36 
Q 775 19 384 128 
L 384 978 
Q 719 816 1070 734 
Q 1422 653 1784 653 
Q 2113 653 2278 743 
Q 2444 834 2444 1013 
Q 2444 1163 2330 1236 
Q 2216 1309 1875 1350 
L 1678 1375 
Q 931 1469 631 1722 
Q 331 1975 331 2491 
Q 331 3047 712 3315 
Q 1094 3584 1881 3584 
Q 2191 3584 2531 3537 
Q 2872 3491 3272 3391 
z
" transform="scale(0.015625)"/>
      <path id="DejaVuSans-Bold-4e" d="M 588 4666 
L 1931 4666 
L 3628 1466 
L 3628 4666 
L 4769 4666 
L 4769 0 
L 3425 0 
L 1728 3200 
L 1728 0 
L 588 0 
L 588 4666 
z
" transform="scale(0.015625)"/>
      <path id="DejaVuSans-Bold-75" d="M 500 1363 
L 500 3500 
L 1625 3500 
L 1625 3150 
Q 1625 2866 1622 2436 
Q 1619 2006 1619 1863 
Q 1619 1441 1641 1255 
Q 1663 1069 1716 984 
Q 1784 875 1895 815 
Q 2006 756 2150 756 
Q 2500 756 2700 1025 
Q 2900 1294 2900 1772 
L 2900 3500 
L 4019 3500 
L 4019 0 
L 2900 0 
L 2900 506 
Q 2647 200 2364 54 
Q 2081 -91 1741 -91 
Q 1134 -91 817 281 
Q 500 653 500 1363 
z
" transform="scale(0.015625)"/>
      <path id="DejaVuSans-Bold-6d" d="M 3781 2919 
Q 3994 3244 4286 3414 
Q 4578 3584 4928 3584 
Q 5531 3584 5847 3212 
Q 6163 2841 6163 2131 
L 6163 0 
L 5038 0 
L 5038 1825 
Q 5041 1866 5042 1909 
Q 5044 1953 5044 2034 
Q 5044 2406 4934 2573 
Q 4825 2741 4581 2741 
Q 4263 2741 4089 2478 
Q 3916 2216 3909 1719 
L 3909 0 
L 2784 0 
L 2784 1825 
Q 2784 2406 2684 2573 
Q 2584 2741 2328 2741 
Q 2006 2741 1831 2477 
Q 1656 2213 1656 1722 
L 1656 0 
L 531 0 
L 531 3500 
L 1656 3500 
L 1656 2988 
Q 1863 3284 2130 3434 
Q 2397 3584 2719 3584 
Q 3081 3584 3359 3409 
Q 3638 3234 3781 2919 
z
" transform="scale(0.015625)"/>
      <path id="DejaVuSans-Bold-62" d="M 2400 722 
Q 2759 722 2948 984 
Q 3138 1247 3138 1747 
Q 3138 2247 2948 2509 
Q 2759 2772 2400 2772 
Q 2041 2772 1848 2508 
Q 1656 2244 1656 1747 
Q 1656 1250 1848 986 
Q 2041 722 2400 722 
z
M 1656 2988 
Q 1888 3294 2169 3439 
Q 2450 3584 2816 3584 
Q 3463 3584 3878 3070 
Q 4294 2556 4294 1747 
Q 4294 938 3878 423 
Q 3463 -91 2816 -91 
Q 2450 -91 2169 54 
Q 1888 200 1656 506 
L 1656 0 
L 538 0 
L 538 4863 
L 1656 4863 
L 1656 2988 
z
" transform="scale(0.015625)"/>
      <path id="DejaVuSans-Bold-65" d="M 4031 1759 
L 4031 1441 
L 1416 1441 
Q 1456 1047 1700 850 
Q 1944 653 2381 653 
Q 2734 653 3104 758 
Q 3475 863 3866 1075 
L 3866 213 
Q 3469 63 3072 -14 
Q 2675 -91 2278 -91 
Q 1328 -91 801 392 
Q 275 875 275 1747 
Q 275 2603 792 3093 
Q 1309 3584 2216 3584 
Q 3041 3584 3536 3087 
Q 4031 2591 4031 1759 
z
M 2881 2131 
Q 2881 2450 2695 2645 
Q 2509 2841 2209 2841 
Q 1884 2841 1681 2658 
Q 1478 2475 1428 2131 
L 2881 2131 
z
" transform="scale(0.015625)"/>
      <path id="DejaVuSans-Bold-72" d="M 3138 2547 
Q 2991 2616 2845 2648 
Q 2700 2681 2553 2681 
Q 2122 2681 1889 2404 
Q 1656 2128 1656 1613 
L 1656 0 
L 538 0 
L 538 3500 
L 1656 3500 
L 1656 2925 
Q 1872 3269 2151 3426 
Q 2431 3584 2822 3584 
Q 2878 3584 2943 3579 
Q 3009 3575 3134 3559 
L 3138 2547 
z
" transform="scale(0.015625)"/>
      <path id="DejaVuSans-Bold-6f" d="M 2203 2784 
Q 1831 2784 1636 2517 
Q 1441 2250 1441 1747 
Q 1441 1244 1636 976 
Q 1831 709 2203 709 
Q 2569 709 2762 976 
Q 2956 1244 2956 1747 
Q 2956 2250 2762 2517 
Q 2569 2784 2203 2784 
z
M 2203 3584 
Q 3106 3584 3614 3096 
Q 4122 2609 4122 1747 
Q 4122 884 3614 396 
Q 3106 -91 2203 -91 
Q 1297 -91 786 396 
Q 275 884 275 1747 
Q 275 2609 786 3096 
Q 1297 3584 2203 3584 
z
" transform="scale(0.015625)"/>
      <path id="DejaVuSans-Bold-66" d="M 2841 4863 
L 2841 4128 
L 2222 4128 
Q 1984 4128 1890 4042 
Q 1797 3956 1797 3744 
L 1797 3500 
L 2753 3500 
L 2753 2700 
L 1797 2700 
L 1797 0 
L 678 0 
L 678 2700 
L 122 2700 
L 122 3500 
L 678 3500 
L 678 3744 
Q 678 4316 997 4589 
Q 1316 4863 1984 4863 
L 2841 4863 
z
" transform="scale(0.015625)"/>
      <path id="DejaVuSans-Bold-4a" d="M 588 4666 
L 1791 4666 
L 1791 453 
Q 1791 -419 1317 -850 
Q 844 -1281 -116 -1281 
L -359 -1281 
L -359 -372 
L -172 -372 
Q 203 -372 395 -162 
Q 588 47 588 453 
L 588 4666 
z
" transform="scale(0.015625)"/>
     </defs>
     <use xlink:href="#DejaVuSans-Bold-49"/>
     <use xlink:href="#DejaVuSans-Bold-4f" transform="translate(37.207031 0)"/>
     <use xlink:href="#DejaVuSans-Bold-50" transform="translate(122.216797 0)"/>
     <use xlink:href="#DejaVuSans-Bold-53" transform="translate(195.507812 0)"/>
     <use xlink:href="#DejaVuSans-Bold-20" transform="translate(267.529297 0)"/>
     <use xlink:href="#DejaVuSans-Bold-76" transform="translate(302.34375 0)"/>
     <use xlink:href="#DejaVuSans-Bold-73" transform="translate(367.529297 0)"/>
     <use xlink:href="#DejaVuSans-Bold-20" transform="translate(427.050781 0)"/>
     <use xlink:href="#DejaVuSans-Bold-4e" transform="translate(461.865234 0)"/>
     <use xlink:href="#DejaVuSans-Bold-75" transform="translate(545.556641 0)"/>
     <use xlink:href="#DejaVuSans-Bold-6d" transform="translate(616.748047 0)"/>
     <use xlink:href="#DejaVuSans-Bold-62" transform="translate(720.947266 0)"/>
     <use xlink:href="#DejaVuSans-Bold-65" transform="translate(792.529297 0)"/>
     <use xlink:href="#DejaVuSans-Bold-72" transform="translate(860.351562 0)"/>
     <use xlink:href="#DejaVuSans-Bold-20" transform="translate(909.667969 0)"/>
     <use xlink:href="#DejaVuSans-Bold-6f" transform="translate(944.482422 0)"/>
     <use xlink:href="#DejaVuSans-Bold-66" transform="translate(1013.183594 0)"/>
     <use xlink:href="#DejaVuSans-Bold-20" transform="translate(1056.689453 0)"/>
     <use xlink:href="#DejaVuSans-Bold-4a" transform="translate(1091.503906 0)"/>
     <use xlink:href="#DejaVuSans-Bold-6f" transform="translate(1128.710938 0)"/>
     <use xlink:href="#DejaVuSans-Bold-62" transform="translate(1197.412109 0)"/>
     <use xlink:href="#DejaVuSans-Bold-73" transform="translate(1268.994141 0)"/>
    </g>
   </g>
   <g id="legend_1">
    <g id="text_21">
     <!-- IO Depth -->
     <g style="fill: #262626" transform="translate(444.954687 120.065663) scale(0.1 -0.1)">
      <defs>
       <path id="DejaVuSans-44" d="M 1259 4147 
L 1259 519 
L 2022 519 
Q 2988 519 3436 956 
Q 3884 1394 3884 2338 
Q 3884 3275 3436 3711 
Q 2988 4147 2022 4147 
L 1259 4147 
z
M 628 4666 
L 1925 4666 
Q 3281 4666 3915 4102 
Q 4550 3538 4550 2338 
Q 4550 1131 3912 565 
Q 3275 0 1925 0 
L 628 0 
L 628 4666 
z
" transform="scale(0.015625)"/>
      </defs>
      <use xlink:href="#DejaVuSans-49"/>
      <use xlink:href="#DejaVuSans-4f" transform="translate(29.492188 0)"/>
      <use xlink:href="#DejaVuSans-20" transform="translate(108.203125 0)"/>
      <use xlink:href="#DejaVuSans-44" transform="translate(139.990234 0)"/>
      <use xlink:href="#DejaVuSans-65" transform="translate(216.992188 0)"/>
      <use xlink:href="#DejaVuSans-70" transform="translate(278.515625 0)"/>
      <use xlink:href="#DejaVuSans-74" transform="translate(341.992188 0)"/>
      <use xlink:href="#DejaVuSans-68" transform="translate(381.201172 0)"/>
     </g>
    </g>
    <g id="line2d_24">
     <path d="M 443.640625 131.243787 
L 453.640625 131.243787 
L 463.640625 131.243787 
" style="fill: none; stroke: #4c02a1; stroke-width: 1.5; stroke-linecap: round"/>
    </g>
    <g id="text_22">
     <!-- 1 -->
     <g style="fill: #262626" transform="translate(471.640625 134.743787) scale(0.1 -0.1)">
      <use xlink:href="#DejaVuSans-31"/>
     </g>
    </g>
    <g id="line2d_25">
     <path d="M 443.640625 145.921913 
L 453.640625 145.921913 
L 463.640625 145.921913 
" style="fill: none; stroke: #7e03a8; stroke-width: 1.5; stroke-linecap: round"/>
    </g>
    <g id="text_23">
     <!-- 4 -->
     <g style="fill: #262626" transform="translate(471.640625 149.421913) scale(0.1 -0.1)">
      <use xlink:href="#DejaVuSans-34"/>
     </g>
    </g>
    <g id="line2d_26">
     <path d="M 443.640625 160.600037 
L 453.640625 160.600037 
L 463.640625 160.600037 
" style="fill: none; stroke: #aa2395; stroke-width: 1.5; stroke-linecap: round"/>
    </g>
    <g id="text_24">
     <!-- 8 -->
     <g style="fill: #262626" transform="translate(471.640625 164.100037) scale(0.1 -0.1)">
      <use xlink:href="#DejaVuSans-38"/>
     </g>
    </g>
    <g id="line2d_27">
     <path d="M 443.640625 175.278163 
L 453.640625 175.278163 
L 463.640625 175.278163 
" style="fill: none; stroke: #cc4778; stroke-width: 1.5; stroke-linecap: round"/>
    </g>
    <g id="text_25">
     <!-- 16 -->
     <g style="fill: #262626" transform="translate(471.640625 178.778163) scale(0.1 -0.1)">
      <use xlink:href="#DejaVuSans-31"/>
      <use xlink:href="#DejaVuSans-36" transform="translate(63.623047 0)"/>
     </g>
    </g>
    <g id="line2d_28">
     <path d="M 443.640625 189.956288 
L 453.640625 189.956288 
L 463.640625 189.956288 
" style="fill: none; stroke: #e66c5c; stroke-width: 1.5; stroke-linecap: round"/>
    </g>
    <g id="text_26">
     <!-- 32 -->
     <g style="fill: #262626" transform="translate(471.640625 193.456288) scale(0.1 -0.1)">
      <use xlink:href="#DejaVuSans-33"/>
      <use xlink:href="#DejaVuSans-32" transform="translate(63.623047 0)"/>
     </g>
    </g>
    <g id="line2d_29">
     <path d="M 443.640625 204.634412 
L 453.640625 204.634412 
L 463.640625 204.634412 
" style="fill: none; stroke: #f89540; stroke-width: 1.5; stroke-linecap: round"/>
    </g>
    <g id="text_27">
     <!-- 64 -->
     <g style="fill: #262626" transform="translate(471.640625 208.134412) scale(0.1 -0.1)">
      <use xlink:href="#DejaVuSans-36"/>
      <use xlink:href="#DejaVuSans-34" transform="translate(63.623047 0)"/>
     </g>
    </g>
    <g id="line2d_30">
     <path d="M 443.640625 219.312537 
L 453.640625 219.312537 
L 463.640625 219.312537 
" style="fill: none; stroke: #fdc527; stroke-width: 1.5; stroke-linecap: round"/>
    </g>
    <g id="text_28">
     <!-- 128 -->
     <g style="fill: #262626" transform="translate(471.640625 222.812537) scale(0.1 -0.1)">
      <use xlink:href="#DejaVuSans-31"/>
      <use xlink:href="#DejaVuSans-32" transform="translate(63.623047 0)"/>
      <use xlink:href="#DejaVuSans-38" transform="translate(127.246094 0)"/>
     </g>
    </g>
   </g>
  </g>
 </g>
 <defs>
  <clipPath id="p9f0a1a3921">
   <rect x="53.328125" y="35.623725" width="357.12" height="266.112"/>
  </clipPath>
 </defs>
</svg>
