<?xml version="1.0" encoding="utf-8" standalone="no"?>
<!DOCTYPE svg PUBLIC "-//W3C//DTD SVG 1.1//EN"
  "http://www.w3.org/Graphics/SVG/1.1/DTD/svg11.dtd">
<svg xmlns:xlink="http://www.w3.org/1999/xlink" width="508.290625pt" height="339.291975pt" viewBox="0 0 508.290625 339.291975" xmlns="http://www.w3.org/2000/svg" version="1.1">
 <metadata>
  <rdf:RDF xmlns:dc="http://purl.org/dc/elements/1.1/" xmlns:cc="http://creativecommons.org/ns#" xmlns:rdf="http://www.w3.org/1999/02/22-rdf-syntax-ns#">
   <cc:Work>
    <dc:type rdf:resource="http://purl.org/dc/dcmitype/StillImage"/>
    <dc:date>2025-09-11T11:44:26.957512</dc:date>
    <dc:format>image/svg+xml</dc:format>
    <dc:creator>
     <cc:Agent>
      <dc:title>Matplotlib v3.10.6, https://matplotlib.org/</dc:title>
     </cc:Agent>
    </dc:creator>
   </cc:Work>
  </rdf:RDF>
 </metadata>
 <defs>
  <style type="text/css">*{stroke-linejoin: round; stroke-linecap: butt}</style>
 </defs>
 <g id="figure_1">
  <g id="patch_1">
   <path d="M 0 339.291975 
L 508.290625 339.291975 
L 508.290625 0 
L 0 0 
z
" style="fill: #ffffff"/>
  </g>
  <g id="axes_1">
   <g id="patch_2">
    <path d="M 59.690625 301.735725 
L 416.810625 301.735725 
L 416.810625 35.623725 
L 59.690625 35.623725 
z
" style="fill: #ffffff"/>
   </g>
   <g id="matplotlib.axis_1">
    <g id="xtick_1">
     <g id="line2d_1">
      <path d="M 155.169737 301.735725 
L 155.169737 35.623725 
" clip-path="url(#p82561f6867)" style="fill: none; stroke: #cccccc; stroke-width: 0.8; stroke-linecap: round"/>
     </g>
     <g id="text_1">
      <!-- 32 -->
      <g style="fill: #262626" transform="translate(148.807237 316.334162) scale(0.1 -0.1)">
       <defs>
        <path id="DejaVuSans-33" d="M 2597 2516 
Q 3050 2419 3304 2112 
Q 3559 1806 3559 1356 
Q 3559 666 3084 287 
Q 2609 -91 1734 -91 
Q 1441 -91 1130 -33 
Q 819 25 488 141 
L 488 750 
Q 750 597 1062 519 
Q 1375 441 1716 441 
Q 2309 441 2620 675 
Q 2931 909 2931 1356 
Q 2931 1769 2642 2001 
Q 2353 2234 1838 2234 
L 1294 2234 
L 1294 2753 
L 1863 2753 
Q 2328 2753 2575 2939 
Q 2822 3125 2822 3475 
Q 2822 3834 2567 4026 
Q 2313 4219 1838 4219 
Q 1578 4219 1281 4162 
Q 984 4106 628 3988 
L 628 4550 
Q 988 4650 1302 4700 
Q 1616 4750 1894 4750 
Q 2613 4750 3031 4423 
Q 3450 4097 3450 3541 
Q 3450 3153 3228 2886 
Q 3006 2619 2597 2516 
z
" transform="scale(0.015625)"/>
        <path id="DejaVuSans-32" d="M 1228 531 
L 3431 531 
L 3431 0 
L 469 0 
L 469 531 
Q 828 903 1448 1529 
Q 2069 2156 2228 2338 
Q 2531 2678 2651 2914 
Q 2772 3150 2772 3378 
Q 2772 3750 2511 3984 
Q 2250 4219 1831 4219 
Q 1534 4219 1204 4116 
Q 875 4013 500 3803 
L 500 4441 
Q 881 4594 1212 4672 
Q 1544 4750 1819 4750 
Q 2544 4750 2975 4387 
Q 3406 4025 3406 3419 
Q 3406 3131 3298 2873 
Q 3191 2616 2906 2266 
Q 2828 2175 2409 1742 
Q 1991 1309 1228 531 
z
" transform="scale(0.015625)"/>
       </defs>
       <use xlink:href="#DejaVuSans-33"/>
       <use xlink:href="#DejaVuSans-32" transform="translate(63.623047 0)"/>
      </g>
     </g>
    </g>
    <g id="xtick_2">
     <g id="line2d_2">
      <path d="M 236.972457 301.735725 
L 236.972457 35.623725 
" clip-path="url(#p82561f6867)" style="fill: none; stroke: #cccccc; stroke-width: 0.8; stroke-linecap: round"/>
     </g>
     <g id="text_2">
      <!-- 64 -->
      <g style="fill: #262626" transform="translate(230.609957 316.334162) scale(0.1 -0.1)">
       <defs>
        <path id="DejaVuSans-36" d="M 2113 2584 
Q 1688 2584 1439 2293 
Q 1191 2003 1191 1497 
Q 1191 994 1439 701 
Q 1688 409 2113 409 
Q 2538 409 2786 701 
Q 3034 994 3034 1497 
Q 3034 2003 2786 2293 
Q 2538 2584 2113 2584 
z
M 3366 4563 
L 3366 3988 
Q 3128 4100 2886 4159 
Q 2644 4219 2406 4219 
Q 1781 4219 1451 3797 
Q 1122 3375 1075 2522 
Q 1259 2794 1537 2939 
Q 1816 3084 2150 3084 
Q 2853 3084 3261 2657 
Q 3669 2231 3669 1497 
Q 3669 778 3244 343 
Q 2819 -91 2113 -91 
Q 1303 -91 875 529 
Q 447 1150 447 2328 
Q 447 3434 972 4092 
Q 1497 4750 2381 4750 
Q 2619 4750 2861 4703 
Q 3103 4656 3366 4563 
z
" transform="scale(0.015625)"/>
        <path id="DejaVuSans-34" d="M 2419 4116 
L 825 1625 
L 2419 1625 
L 2419 4116 
z
M 2253 4666 
L 3047 4666 
L 3047 1625 
L 3713 1625 
L 3713 1100 
L 3047 1100 
L 3047 0 
L 2419 0 
L 2419 1100 
L 313 1100 
L 313 1709 
L 2253 4666 
z
" transform="scale(0.015625)"/>
       </defs>
       <use xlink:href="#DejaVuSans-36"/>
       <use xlink:href="#DejaVuSans-34" transform="translate(63.623047 0)"/>
      </g>
     </g>
    </g>
    <g id="xtick_3">
     <g id="line2d_3">
      <path d="M 83.592357 301.735725 
L 83.592357 35.623725 
" clip-path="url(#p82561f6867)" style="fill: none; stroke: #cccccc; stroke-width: 0.8; stroke-linecap: round"/>
     </g>
     <g id="text_3">
      <!-- 4 -->
      <g style="fill: #262626" transform="translate(80.411107 316.334162) scale(0.1 -0.1)">
       <use xlink:href="#DejaVuSans-34"/>
      </g>
     </g>
    </g>
    <g id="xtick_4">
     <g id="line2d_4">
      <path d="M 75.923352 301.735725 
L 75.923352 35.623725 
" clip-path="url(#p82561f6867)" style="fill: none; stroke: #cccccc; stroke-width: 0.8; stroke-linecap: round"/>
     </g>
     <g id="text_4">
      <!-- 1 -->
      <g style="fill: #262626" transform="translate(72.742102 316.334162) scale(0.1 -0.1)">
       <defs>
        <path id="DejaVuSans-31" d="M 794 531 
L 1825 531 
L 1825 4091 
L 703 3866 
L 703 4441 
L 1819 4666 
L 2450 4666 
L 2450 531 
L 3481 531 
L 3481 0 
L 794 0 
L 794 531 
z
" transform="scale(0.015625)"/>
       </defs>
       <use xlink:href="#DejaVuSans-31"/>
      </g>
     </g>
    </g>
    <g id="xtick_5">
     <g id="line2d_5">
      <path d="M 400.577898 301.735725 
L 400.577898 35.623725 
" clip-path="url(#p82561f6867)" style="fill: none; stroke: #cccccc; stroke-width: 0.8; stroke-linecap: round"/>
     </g>
     <g id="text_5">
      <!-- 128 -->
      <g style="fill: #262626" transform="translate(391.034148 316.334162) scale(0.1 -0.1)">
       <defs>
        <path id="DejaVuSans-38" d="M 2034 2216 
Q 1584 2216 1326 1975 
Q 1069 1734 1069 1313 
Q 1069 891 1326 650 
Q 1584 409 2034 409 
Q 2484 409 2743 651 
Q 3003 894 3003 1313 
Q 3003 1734 2745 1975 
Q 2488 2216 2034 2216 
z
M 1403 2484 
Q 997 2584 770 2862 
Q 544 3141 544 3541 
Q 544 4100 942 4425 
Q 1341 4750 2034 4750 
Q 2731 4750 3128 4425 
Q 3525 4100 3525 3541 
Q 3525 3141 3298 2862 
Q 3072 2584 2669 2484 
Q 3125 2378 3379 2068 
Q 3634 1759 3634 1313 
Q 3634 634 3220 271 
Q 2806 -91 2034 -91 
Q 1263 -91 848 271 
Q 434 634 434 1313 
Q 434 1759 690 2068 
Q 947 2378 1403 2484 
z
M 1172 3481 
Q 1172 3119 1398 2916 
Q 1625 2713 2034 2713 
Q 2441 2713 2670 2916 
Q 2900 3119 2900 3481 
Q 2900 3844 2670 4047 
Q 2441 4250 2034 4250 
Q 1625 4250 1398 4047 
Q 1172 3844 1172 3481 
z
" transform="scale(0.015625)"/>
       </defs>
       <use xlink:href="#DejaVuSans-31"/>
       <use xlink:href="#DejaVuSans-32" transform="translate(63.623047 0)"/>
       <use xlink:href="#DejaVuSans-38" transform="translate(127.246094 0)"/>
      </g>
     </g>
    </g>
    <g id="xtick_6">
     <g id="line2d_6">
      <path d="M 114.268377 301.735725 
L 114.268377 35.623725 
" clip-path="url(#p82561f6867)" style="fill: none; stroke: #cccccc; stroke-width: 0.8; stroke-linecap: round"/>
     </g>
     <g id="text_6">
      <!-- 16 -->
      <g style="fill: #262626" transform="translate(107.905877 316.334162) scale(0.1 -0.1)">
       <use xlink:href="#DejaVuSans-31"/>
       <use xlink:href="#DejaVuSans-36" transform="translate(63.623047 0)"/>
      </g>
     </g>
    </g>
    <g id="xtick_7">
     <g id="line2d_7">
      <path d="M 93.817697 301.735725 
L 93.817697 35.623725 
" clip-path="url(#p82561f6867)" style="fill: none; stroke: #cccccc; stroke-width: 0.8; stroke-linecap: round"/>
     </g>
     <g id="text_7">
      <!-- 8 -->
      <g style="fill: #262626" transform="translate(90.636447 316.334162) scale(0.1 -0.1)">
       <use xlink:href="#DejaVuSans-38"/>
      </g>
     </g>
    </g>
    <g id="text_8">
     <!-- IO Depth -->
     <g style="fill: #262626" transform="translate(216.020938 330.012287) scale(0.1 -0.1)">
      <defs>
       <path id="DejaVuSans-49" d="M 628 4666 
L 1259 4666 
L 1259 0 
L 628 0 
L 628 4666 
z
" transform="scale(0.015625)"/>
       <path id="DejaVuSans-4f" d="M 2522 4238 
Q 1834 4238 1429 3725 
Q 1025 3213 1025 2328 
Q 1025 1447 1429 934 
Q 1834 422 2522 422 
Q 3209 422 3611 934 
Q 4013 1447 4013 2328 
Q 4013 3213 3611 3725 
Q 3209 4238 2522 4238 
z
M 2522 4750 
Q 3503 4750 4090 4092 
Q 4678 3434 4678 2328 
Q 4678 1225 4090 567 
Q 3503 -91 2522 -91 
Q 1538 -91 948 565 
Q 359 1222 359 2328 
Q 359 3434 948 4092 
Q 1538 4750 2522 4750 
z
" transform="scale(0.015625)"/>
       <path id="DejaVuSans-20" transform="scale(0.015625)"/>
       <path id="DejaVuSans-44" d="M 1259 4147 
L 1259 519 
L 2022 519 
Q 2988 519 3436 956 
Q 3884 1394 3884 2338 
Q 3884 3275 3436 3711 
Q 2988 4147 2022 4147 
L 1259 4147 
z
M 628 4666 
L 1925 4666 
Q 3281 4666 3915 4102 
Q 4550 3538 4550 2338 
Q 4550 1131 3912 565 
Q 3275 0 1925 0 
L 628 0 
L 628 4666 
z
" transform="scale(0.015625)"/>
       <path id="DejaVuSans-65" d="M 3597 1894 
L 3597 1613 
L 953 1613 
Q 991 1019 1311 708 
Q 1631 397 2203 397 
Q 2534 397 2845 478 
Q 3156 559 3463 722 
L 3463 178 
Q 3153 47 2828 -22 
Q 2503 -91 2169 -91 
Q 1331 -91 842 396 
Q 353 884 353 1716 
Q 353 2575 817 3079 
Q 1281 3584 2069 3584 
Q 2775 3584 3186 3129 
Q 3597 2675 3597 1894 
z
M 3022 2063 
Q 3016 2534 2758 2815 
Q 2500 3097 2075 3097 
Q 1594 3097 1305 2825 
Q 1016 2553 972 2059 
L 3022 2063 
z
" transform="scale(0.015625)"/>
       <path id="DejaVuSans-70" d="M 1159 525 
L 1159 -1331 
L 581 -1331 
L 581 3500 
L 1159 3500 
L 1159 2969 
Q 1341 3281 1617 3432 
Q 1894 3584 2278 3584 
Q 2916 3584 3314 3078 
Q 3713 2572 3713 1747 
Q 3713 922 3314 415 
Q 2916 -91 2278 -91 
Q 1894 -91 1617 61 
Q 1341 213 1159 525 
z
M 3116 1747 
Q 3116 2381 2855 2742 
Q 2594 3103 2138 3103 
Q 1681 3103 1420 2742 
Q 1159 2381 1159 1747 
Q 1159 1113 1420 752 
Q 1681 391 2138 391 
Q 2594 391 2855 752 
Q 3116 1113 3116 1747 
z
" transform="scale(0.015625)"/>
       <path id="DejaVuSans-74" d="M 1172 4494 
L 1172 3500 
L 2356 3500 
L 2356 3053 
L 1172 3053 
L 1172 1153 
Q 1172 725 1289 603 
Q 1406 481 1766 481 
L 2356 481 
L 2356 0 
L 1766 0 
Q 1100 0 847 248 
Q 594 497 594 1153 
L 594 3053 
L 172 3053 
L 172 3500 
L 594 3500 
L 594 4494 
L 1172 4494 
z
" transform="scale(0.015625)"/>
       <path id="DejaVuSans-68" d="M 3513 2113 
L 3513 0 
L 2938 0 
L 2938 2094 
Q 2938 2591 2744 2837 
Q 2550 3084 2163 3084 
Q 1697 3084 1428 2787 
Q 1159 2491 1159 1978 
L 1159 0 
L 581 0 
L 581 4863 
L 1159 4863 
L 1159 2956 
Q 1366 3272 1645 3428 
Q 1925 3584 2291 3584 
Q 2894 3584 3203 3211 
Q 3513 2838 3513 2113 
z
" transform="scale(0.015625)"/>
      </defs>
      <use xlink:href="#DejaVuSans-49"/>
      <use xlink:href="#DejaVuSans-4f" transform="translate(29.492188 0)"/>
      <use xlink:href="#DejaVuSans-20" transform="translate(108.203125 0)"/>
      <use xlink:href="#DejaVuSans-44" transform="translate(139.990234 0)"/>
      <use xlink:href="#DejaVuSans-65" transform="translate(216.992188 0)"/>
      <use xlink:href="#DejaVuSans-70" transform="translate(278.515625 0)"/>
      <use xlink:href="#DejaVuSans-74" transform="translate(341.992188 0)"/>
      <use xlink:href="#DejaVuSans-68" transform="translate(381.201172 0)"/>
     </g>
    </g>
   </g>
   <g id="matplotlib.axis_2">
    <g id="ytick_1">
     <g id="line2d_8">
      <path d="M 59.690625 294.106621 
L 416.810625 294.106621 
" clip-path="url(#p82561f6867)" style="fill: none; stroke: #cccccc; stroke-width: 0.8; stroke-linecap: round"/>
     </g>
     <g id="text_9">
      <!-- 9000 -->
      <g style="fill: #262626" transform="translate(27.240625 297.90584) scale(0.1 -0.1)">
       <defs>
        <path id="DejaVuSans-39" d="M 703 97 
L 703 672 
Q 941 559 1184 500 
Q 1428 441 1663 441 
Q 2288 441 2617 861 
Q 2947 1281 2994 2138 
Q 2813 1869 2534 1725 
Q 2256 1581 1919 1581 
Q 1219 1581 811 2004 
Q 403 2428 403 3163 
Q 403 3881 828 4315 
Q 1253 4750 1959 4750 
Q 2769 4750 3195 4129 
Q 3622 3509 3622 2328 
Q 3622 1225 3098 567 
Q 2575 -91 1691 -91 
Q 1453 -91 1209 -44 
Q 966 3 703 97 
z
M 1959 2075 
Q 2384 2075 2632 2365 
Q 2881 2656 2881 3163 
Q 2881 3666 2632 3958 
Q 2384 4250 1959 4250 
Q 1534 4250 1286 3958 
Q 1038 3666 1038 3163 
Q 1038 2656 1286 2365 
Q 1534 2075 1959 2075 
z
" transform="scale(0.015625)"/>
        <path id="DejaVuSans-30" d="M 2034 4250 
Q 1547 4250 1301 3770 
Q 1056 3291 1056 2328 
Q 1056 1369 1301 889 
Q 1547 409 2034 409 
Q 2525 409 2770 889 
Q 3016 1369 3016 2328 
Q 3016 3291 2770 3770 
Q 2525 4250 2034 4250 
z
M 2034 4750 
Q 2819 4750 3233 4129 
Q 3647 3509 3647 2328 
Q 3647 1150 3233 529 
Q 2819 -91 2034 -91 
Q 1250 -91 836 529 
Q 422 1150 422 2328 
Q 422 3509 836 4129 
Q 1250 4750 2034 4750 
z
" transform="scale(0.015625)"/>
       </defs>
       <use xlink:href="#DejaVuSans-39"/>
       <use xlink:href="#DejaVuSans-30" transform="translate(63.623047 0)"/>
       <use xlink:href="#DejaVuSans-30" transform="translate(127.246094 0)"/>
       <use xlink:href="#DejaVuSans-30" transform="translate(190.869141 0)"/>
      </g>
     </g>
    </g>
    <g id="ytick_2">
     <g id="line2d_9">
      <path d="M 59.690625 249.87993 
L 416.810625 249.87993 
" clip-path="url(#p82561f6867)" style="fill: none; stroke: #cccccc; stroke-width: 0.8; stroke-linecap: round"/>
     </g>
     <g id="text_10">
      <!-- 10000 -->
      <g style="fill: #262626" transform="translate(20.878125 253.679149) scale(0.1 -0.1)">
       <use xlink:href="#DejaVuSans-31"/>
       <use xlink:href="#DejaVuSans-30" transform="translate(63.623047 0)"/>
       <use xlink:href="#DejaVuSans-30" transform="translate(127.246094 0)"/>
       <use xlink:href="#DejaVuSans-30" transform="translate(190.869141 0)"/>
       <use xlink:href="#DejaVuSans-30" transform="translate(254.492188 0)"/>
      </g>
     </g>
    </g>
    <g id="ytick_3">
     <g id="line2d_10">
      <path d="M 59.690625 205.653239 
L 416.810625 205.653239 
" clip-path="url(#p82561f6867)" style="fill: none; stroke: #cccccc; stroke-width: 0.8; stroke-linecap: round"/>
     </g>
     <g id="text_11">
      <!-- 11000 -->
      <g style="fill: #262626" transform="translate(20.878125 209.452457) scale(0.1 -0.1)">
       <use xlink:href="#DejaVuSans-31"/>
       <use xlink:href="#DejaVuSans-31" transform="translate(63.623047 0)"/>
       <use xlink:href="#DejaVuSans-30" transform="translate(127.246094 0)"/>
       <use xlink:href="#DejaVuSans-30" transform="translate(190.869141 0)"/>
       <use xlink:href="#DejaVuSans-30" transform="translate(254.492188 0)"/>
      </g>
     </g>
    </g>
    <g id="ytick_4">
     <g id="line2d_11">
      <path d="M 59.690625 161.426548 
L 416.810625 161.426548 
" clip-path="url(#p82561f6867)" style="fill: none; stroke: #cccccc; stroke-width: 0.8; stroke-linecap: round"/>
     </g>
     <g id="text_12">
      <!-- 12000 -->
      <g style="fill: #262626" transform="translate(20.878125 165.225766) scale(0.1 -0.1)">
       <use xlink:href="#DejaVuSans-31"/>
       <use xlink:href="#DejaVuSans-32" transform="translate(63.623047 0)"/>
       <use xlink:href="#DejaVuSans-30" transform="translate(127.246094 0)"/>
       <use xlink:href="#DejaVuSans-30" transform="translate(190.869141 0)"/>
       <use xlink:href="#DejaVuSans-30" transform="translate(254.492188 0)"/>
      </g>
     </g>
    </g>
    <g id="ytick_5">
     <g id="line2d_12">
      <path d="M 59.690625 117.199857 
L 416.810625 117.199857 
" clip-path="url(#p82561f6867)" style="fill: none; stroke: #cccccc; stroke-width: 0.8; stroke-linecap: round"/>
     </g>
     <g id="text_13">
      <!-- 13000 -->
      <g style="fill: #262626" transform="translate(20.878125 120.999075) scale(0.1 -0.1)">
       <use xlink:href="#DejaVuSans-31"/>
       <use xlink:href="#DejaVuSans-33" transform="translate(63.623047 0)"/>
       <use xlink:href="#DejaVuSans-30" transform="translate(127.246094 0)"/>
       <use xlink:href="#DejaVuSans-30" transform="translate(190.869141 0)"/>
       <use xlink:href="#DejaVuSans-30" transform="translate(254.492188 0)"/>
      </g>
     </g>
    </g>
    <g id="ytick_6">
     <g id="line2d_13">
      <path d="M 59.690625 72.973166 
L 416.810625 72.973166 
" clip-path="url(#p82561f6867)" style="fill: none; stroke: #cccccc; stroke-width: 0.8; stroke-linecap: round"/>
     </g>
     <g id="text_14">
      <!-- 14000 -->
      <g style="fill: #262626" transform="translate(20.878125 76.772384) scale(0.1 -0.1)">
       <use xlink:href="#DejaVuSans-31"/>
       <use xlink:href="#DejaVuSans-34" transform="translate(63.623047 0)"/>
       <use xlink:href="#DejaVuSans-30" transform="translate(127.246094 0)"/>
       <use xlink:href="#DejaVuSans-30" transform="translate(190.869141 0)"/>
       <use xlink:href="#DejaVuSans-30" transform="translate(254.492188 0)"/>
      </g>
     </g>
    </g>
    <g id="text_15">
     <!-- IOPS -->
     <g style="fill: #262626" transform="translate(14.798438 180.279725) rotate(-90) scale(0.1 -0.1)">
      <defs>
       <path id="DejaVuSans-50" d="M 1259 4147 
L 1259 2394 
L 2053 2394 
Q 2494 2394 2734 2622 
Q 2975 2850 2975 3272 
Q 2975 3691 2734 3919 
Q 2494 4147 2053 4147 
L 1259 4147 
z
M 628 4666 
L 2053 4666 
Q 2838 4666 3239 4311 
Q 3641 3956 3641 3272 
Q 3641 2581 3239 2228 
Q 2838 1875 2053 1875 
L 1259 1875 
L 1259 0 
L 628 0 
L 628 4666 
z
" transform="scale(0.015625)"/>
       <path id="DejaVuSans-53" d="M 3425 4513 
L 3425 3897 
Q 3066 4069 2747 4153 
Q 2428 4238 2131 4238 
Q 1616 4238 1336 4038 
Q 1056 3838 1056 3469 
Q 1056 3159 1242 3001 
Q 1428 2844 1947 2747 
L 2328 2669 
Q 3034 2534 3370 2195 
Q 3706 1856 3706 1288 
Q 3706 609 3251 259 
Q 2797 -91 1919 -91 
Q 1588 -91 1214 -16 
Q 841 59 441 206 
L 441 856 
Q 825 641 1194 531 
Q 1563 422 1919 422 
Q 2459 422 2753 634 
Q 3047 847 3047 1241 
Q 3047 1584 2836 1778 
Q 2625 1972 2144 2069 
L 1759 2144 
Q 1053 2284 737 2584 
Q 422 2884 422 3419 
Q 422 4038 858 4394 
Q 1294 4750 2059 4750 
Q 2388 4750 2728 4690 
Q 3069 4631 3425 4513 
z
" transform="scale(0.015625)"/>
      </defs>
      <use xlink:href="#DejaVuSans-49"/>
      <use xlink:href="#DejaVuSans-4f" transform="translate(29.492188 0)"/>
      <use xlink:href="#DejaVuSans-50" transform="translate(108.203125 0)"/>
      <use xlink:href="#DejaVuSans-53" transform="translate(168.505859 0)"/>
     </g>
    </g>
   </g>
   <g id="FillBetweenPolyCollection_1"/>
   <g id="FillBetweenPolyCollection_2"/>
   <g id="FillBetweenPolyCollection_3"/>
   <g id="FillBetweenPolyCollection_4"/>
   <g id="line2d_14">
    <path d="M 75.923352 186.724215 
L 83.592357 188.758643 
L 93.817697 188.139469 
L 114.268377 195.21574 
L 155.169737 275.26605 
L 236.972457 259.654028 
L 400.577898 248.243542 
" clip-path="url(#p82561f6867)" style="fill: none; stroke: #3b0f70; stroke-width: 1.5; stroke-linecap: round"/>
   </g>
   <g id="line2d_15">
    <path d="M 75.923352 276.062131 
L 83.592357 227.058957 
L 93.817697 267.216793 
L 114.268377 276.371718 
L 155.169737 289.639725 
L 236.972457 277.300478 
L 400.577898 276.017904 
" clip-path="url(#p82561f6867)" style="fill: none; stroke: #8c2981; stroke-width: 1.5; stroke-linecap: round"/>
   </g>
   <g id="line2d_16">
    <path d="M 75.923352 270.799155 
L 83.592357 128.52189 
L 93.817697 285.96891 
L 114.268377 121.755206 
L 155.169737 130.777451 
L 236.972457 121.136032 
L 400.577898 118.217071 
" clip-path="url(#p82561f6867)" style="fill: none; stroke: #de4968; stroke-width: 1.5; stroke-linecap: round"/>
   </g>
   <g id="line2d_17">
    <path d="M 75.923352 233.471827 
L 83.592357 69.390804 
L 93.817697 201.36325 
L 114.268377 56.565063 
L 155.169737 47.719725 
L 236.972457 54.663315 
L 400.577898 59.837838 
" clip-path="url(#p82561f6867)" style="fill: none; stroke: #fe9f6d; stroke-width: 1.5; stroke-linecap: round"/>
   </g>
   <g id="line2d_18"/>
   <g id="line2d_19"/>
   <g id="line2d_20"/>
   <g id="line2d_21"/>
   <g id="text_16">
    <path d="M 137.779425 245.471635 
L 138.512393 246.906166 
L 143.465768 244.375261 
L 142.355042 242.974072 
L 143.155095 242.565288 
L 144.261556 243.958128 
L 144.710152 244.8361 
L 138.956723 247.77579 
L 139.68969 249.21032 
L 138.950858 249.587824 
L 137.040593 245.849139 
L 137.779425 245.471635 
z
M 144.468491 251.512949 
Q 144.166347 250.921605 143.584429 250.782027 
Q 143.004613 250.64313 142.300566 251.00286 
Q 141.600693 251.360457 141.369324 251.913826 
Q 141.140057 252.467875 141.442202 253.059219 
Q 141.744346 253.650562 142.326945 253.788038 
Q 142.910934 253.924802 143.610807 253.567205 
Q 144.314854 253.207476 144.542049 252.65624 
Q 144.770636 252.104293 144.468491 251.512949 
z
M 148.11286 251.849443 
L 147.312807 252.258226 
Q 147.299442 251.84745 147.20949 251.468787 
Q 147.120929 251.089413 146.951728 250.75826 
Q 146.507398 249.888637 145.685622 249.729488 
Q 144.864556 249.57173 143.644281 250.112756 
Q 144.153552 250.175401 144.552942 250.459124 
Q 144.953044 250.74424 145.190494 251.208966 
Q 145.690277 252.187119 145.386209 253.058376 
Q 145.083533 253.928921 144.062247 254.450743 
Q 143.061832 254.9619 142.15443 254.67981 
Q 141.248419 254.397009 140.746503 253.414683 
Q 140.170651 252.287651 140.72904 251.251357 
Q 141.28882 250.214352 142.927887 249.376879 
Q 144.466772 248.590592 145.755549 248.853284 
Q 147.044326 249.115977 147.672787 250.345972 
Q 147.841988 250.677125 147.948637 251.047257 
Q 148.055286 251.417389 148.11286 251.849443 
z
" clip-path="url(#p82561f6867)" style="fill: #3b0f70; stroke: #ffffff; stroke-width: 5"/>
    <path d="M 137.779425 245.471635 
L 138.512393 246.906166 
L 143.465768 244.375261 
L 142.355042 242.974072 
L 143.155095 242.565288 
L 144.261556 243.958128 
L 144.710152 244.8361 
L 138.956723 247.77579 
L 139.68969 249.21032 
L 138.950858 249.587824 
L 137.040593 245.849139 
L 137.779425 245.471635 
z
M 144.468491 251.512949 
Q 144.166347 250.921605 143.584429 250.782027 
Q 143.004613 250.64313 142.300566 251.00286 
Q 141.600693 251.360457 141.369324 251.913826 
Q 141.140057 252.467875 141.442202 253.059219 
Q 141.744346 253.650562 142.326945 253.788038 
Q 142.910934 253.924802 143.610807 253.567205 
Q 144.314854 253.207476 144.542049 252.65624 
Q 144.770636 252.104293 144.468491 251.512949 
z
M 148.11286 251.849443 
L 147.312807 252.258226 
Q 147.299442 251.84745 147.20949 251.468787 
Q 147.120929 251.089413 146.951728 250.75826 
Q 146.507398 249.888637 145.685622 249.729488 
Q 144.864556 249.57173 143.644281 250.112756 
Q 144.153552 250.175401 144.552942 250.459124 
Q 144.953044 250.74424 145.190494 251.208966 
Q 145.690277 252.187119 145.386209 253.058376 
Q 145.083533 253.928921 144.062247 254.450743 
Q 143.061832 254.9619 142.15443 254.67981 
Q 141.248419 254.397009 140.746503 253.414683 
Q 140.170651 252.287651 140.72904 251.251357 
Q 141.28882 250.214352 142.927887 249.376879 
Q 144.466772 248.590592 145.755549 248.853284 
Q 147.044326 249.115977 147.672787 250.345972 
Q 147.841988 250.677125 147.948637 251.047257 
Q 148.055286 251.417389 148.11286 251.849443 
z
" clip-path="url(#p82561f6867)" style="fill: #3b0f70"/>
   </g>
   <g id="text_17">
    <path d="M 203.656128 281.140832 
Q 204.378629 281.185126 204.842612 281.600252 
Q 205.307907 282.0136 205.412781 282.70886 
Q 205.573588 283.774925 204.92803 284.471189 
Q 204.282238 285.165907 202.930344 285.369829 
Q 202.477653 285.438114 201.983634 285.420982 
Q 201.489615 285.40385 200.951179 285.301769 
L 200.809249 284.36085 
Q 201.249702 284.536179 201.749927 284.583978 
Q 202.251697 284.631544 202.778549 284.552072 
Q 203.694747 284.413872 204.120715 283.979857 
Q 204.546682 283.545842 204.442507 282.855218 
Q 204.346256 282.217124 203.845676 281.926031 
Q 203.344864 281.633393 202.549177 281.753416 
L 201.708685 281.880197 
L 201.587731 281.078331 
L 202.466848 280.945723 
Q 203.185283 280.837353 203.523556 280.492415 
Q 203.861828 280.147477 203.780259 279.606719 
Q 203.696593 279.052056 203.257866 278.814841 
Q 202.820452 278.575847 202.086566 278.686548 
Q 201.684861 278.747141 201.239273 278.904425 
Q 200.793453 279.060163 200.270925 279.325442 
L 200.139949 278.45714 
Q 200.672852 278.218739 201.146336 278.068309 
Q 201.61982 277.917879 202.049336 277.85309 
Q 203.160207 277.685525 203.882234 278.09333 
Q 204.605574 278.499358 204.735152 279.35839 
Q 204.825576 279.957859 204.544807 280.422117 
Q 204.264037 280.886376 203.656128 281.140832 
z
M 208.29474 283.577786 
L 211.698423 283.064369 
L 211.822174 283.884776 
L 207.245819 284.57508 
L 207.122068 283.754674 
Q 207.590035 283.096259 208.402057 281.984583 
Q 209.215391 280.871128 209.418634 280.552878 
Q 209.807537 279.956956 209.937939 279.564364 
Q 210.069886 279.171539 210.01675 278.819275 
Q 209.930054 278.244526 209.472269 277.943818 
Q 209.014251 277.641565 208.366887 277.739214 
Q 207.908015 277.808431 207.422163 278.044476 
Q 206.937855 278.280288 206.407413 278.692138 
L 206.258725 277.706414 
Q 206.811721 277.381232 207.304945 277.18358 
Q 207.799714 276.985694 208.224595 276.921605 
Q 209.344736 276.752641 210.095239 277.213038 
Q 210.845508 277.67189 210.986739 278.608173 
Q 211.053858 279.053139 210.947124 279.476924 
Q 210.841701 279.898932 210.482938 280.50611 
Q 210.383635 280.664885 209.837183 281.431529 
Q 209.292276 282.197939 208.29474 283.577786 
z
" clip-path="url(#p82561f6867)" style="fill: #8c2981; stroke: #ffffff; stroke-width: 5"/>
    <path d="M 203.656128 281.140832 
Q 204.378629 281.185126 204.842612 281.600252 
Q 205.307907 282.0136 205.412781 282.70886 
Q 205.573588 283.774925 204.92803 284.471189 
Q 204.282238 285.165907 202.930344 285.369829 
Q 202.477653 285.438114 201.983634 285.420982 
Q 201.489615 285.40385 200.951179 285.301769 
L 200.809249 284.36085 
Q 201.249702 284.536179 201.749927 284.583978 
Q 202.251697 284.631544 202.778549 284.552072 
Q 203.694747 284.413872 204.120715 283.979857 
Q 204.546682 283.545842 204.442507 282.855218 
Q 204.346256 282.217124 203.845676 281.926031 
Q 203.344864 281.633393 202.549177 281.753416 
L 201.708685 281.880197 
L 201.587731 281.078331 
L 202.466848 280.945723 
Q 203.185283 280.837353 203.523556 280.492415 
Q 203.861828 280.147477 203.780259 279.606719 
Q 203.696593 279.052056 203.257866 278.814841 
Q 202.820452 278.575847 202.086566 278.686548 
Q 201.684861 278.747141 201.239273 278.904425 
Q 200.793453 279.060163 200.270925 279.325442 
L 200.139949 278.45714 
Q 200.672852 278.218739 201.146336 278.068309 
Q 201.61982 277.917879 202.049336 277.85309 
Q 203.160207 277.685525 203.882234 278.09333 
Q 204.605574 278.499358 204.735152 279.35839 
Q 204.825576 279.957859 204.544807 280.422117 
Q 204.264037 280.886376 203.656128 281.140832 
z
M 208.29474 283.577786 
L 211.698423 283.064369 
L 211.822174 283.884776 
L 207.245819 284.57508 
L 207.122068 283.754674 
Q 207.590035 283.096259 208.402057 281.984583 
Q 209.215391 280.871128 209.418634 280.552878 
Q 209.807537 279.956956 209.937939 279.564364 
Q 210.069886 279.171539 210.01675 278.819275 
Q 209.930054 278.244526 209.472269 277.943818 
Q 209.014251 277.641565 208.366887 277.739214 
Q 207.908015 277.808431 207.422163 278.044476 
Q 206.937855 278.280288 206.407413 278.692138 
L 206.258725 277.706414 
Q 206.811721 277.381232 207.304945 277.18358 
Q 207.799714 276.985694 208.224595 276.921605 
Q 209.344736 276.752641 210.095239 277.213038 
Q 210.845508 277.67189 210.986739 278.608173 
Q 211.053858 279.053139 210.947124 279.476924 
Q 210.841701 279.898932 210.482938 280.50611 
Q 210.383635 280.664885 209.837183 281.431529 
Q 209.292276 282.197939 208.29474 283.577786 
z
" clip-path="url(#p82561f6867)" style="fill: #8c2981"/>
   </g>
   <g id="text_18">
    <path d="M 267.308175 119.31647 
Q 266.644218 119.328316 266.263328 119.789871 
Q 265.883973 120.249837 265.898077 121.040336 
Q 265.912097 121.826148 266.307702 122.276976 
Q 266.704841 122.726213 267.368798 122.714367 
Q 268.032755 122.702521 268.412054 122.239431 
Q 268.791326 121.774779 268.777306 120.988966 
Q 268.763202 120.198467 268.367681 119.752327 
Q 267.972131 119.304624 267.308175 119.31647 
z
M 269.210515 116.18985 
L 269.226542 117.088144 
Q 268.851604 116.919806 268.471895 116.834378 
Q 268.092158 116.747388 267.720342 116.754022 
Q 266.743935 116.771443 266.240154 117.439911 
Q 265.737936 118.108351 265.688286 119.442262 
Q 265.968159 119.012201 266.398423 118.777925 
Q 266.830249 118.543622 267.352041 118.534313 
Q 268.450304 118.514718 269.099604 119.170428 
Q 269.748877 119.824574 269.769335 120.971267 
Q 269.789376 122.094526 269.137544 122.785951 
Q 268.485684 123.475814 267.382734 123.495492 
Q 266.117311 123.518069 265.431386 122.561403 
Q 264.745433 121.603175 264.712599 119.762842 
Q 264.681772 118.034992 265.483613 116.992398 
Q 266.285455 115.949803 267.666485 115.925164 
Q 268.038301 115.91853 268.417676 115.98521 
Q 268.797051 116.051891 269.210515 116.18985 
z
M 274.104815 116.801077 
L 271.684017 120.737074 
L 274.174246 120.692645 
L 274.104815 116.801077 
z
M 273.830151 115.946466 
L 275.070578 115.924335 
L 275.15534 120.675141 
L 276.195799 120.656578 
L 276.210432 121.47676 
L 275.169973 121.495323 
L 275.200633 123.213799 
L 274.219539 123.231304 
L 274.188879 121.512827 
L 270.898778 121.571527 
L 270.881803 120.620116 
L 273.830151 115.946466 
z
" clip-path="url(#p82561f6867)" style="fill: #de4968; stroke: #ffffff; stroke-width: 5"/>
    <path d="M 267.308175 119.31647 
Q 266.644218 119.328316 266.263328 119.789871 
Q 265.883973 120.249837 265.898077 121.040336 
Q 265.912097 121.826148 266.307702 122.276976 
Q 266.704841 122.726213 267.368798 122.714367 
Q 268.032755 122.702521 268.412054 122.239431 
Q 268.791326 121.774779 268.777306 120.988966 
Q 268.763202 120.198467 268.367681 119.752327 
Q 267.972131 119.304624 267.308175 119.31647 
z
M 269.210515 116.18985 
L 269.226542 117.088144 
Q 268.851604 116.919806 268.471895 116.834378 
Q 268.092158 116.747388 267.720342 116.754022 
Q 266.743935 116.771443 266.240154 117.439911 
Q 265.737936 118.108351 265.688286 119.442262 
Q 265.968159 119.012201 266.398423 118.777925 
Q 266.830249 118.543622 267.352041 118.534313 
Q 268.450304 118.514718 269.099604 119.170428 
Q 269.748877 119.824574 269.769335 120.971267 
Q 269.789376 122.094526 269.137544 122.785951 
Q 268.485684 123.475814 267.382734 123.495492 
Q 266.117311 123.518069 265.431386 122.561403 
Q 264.745433 121.603175 264.712599 119.762842 
Q 264.681772 118.034992 265.483613 116.992398 
Q 266.285455 115.949803 267.666485 115.925164 
Q 268.038301 115.91853 268.417676 115.98521 
Q 268.797051 116.051891 269.210515 116.18985 
z
M 274.104815 116.801077 
L 271.684017 120.737074 
L 274.174246 120.692645 
L 274.104815 116.801077 
z
M 273.830151 115.946466 
L 275.070578 115.924335 
L 275.15534 120.675141 
L 276.195799 120.656578 
L 276.210432 121.47676 
L 275.169973 121.495323 
L 275.200633 123.213799 
L 274.219539 123.231304 
L 274.188879 121.512827 
L 270.898778 121.571527 
L 270.881803 120.620116 
L 273.830151 115.946466 
z
" clip-path="url(#p82561f6867)" style="fill: #de4968"/>
   </g>
   <g id="text_19">
    <path d="M 326.313048 59.419638 
L 327.92318 59.470563 
L 328.099024 53.910843 
L 326.335661 54.20681 
L 326.364063 53.308821 
L 328.118055 53.012558 
L 329.1035 53.043726 
L 328.899255 59.501434 
L 330.509387 59.55236 
L 330.483159 60.381632 
L 326.28682 60.24891 
L 326.313048 59.419638 
z
M 333.349959 59.642201 
L 336.790426 59.751017 
L 336.764198 60.58029 
L 332.138386 60.433984 
L 332.164614 59.604711 
Q 332.743646 59.041484 333.742833 58.094472 
Q 334.74363 57.145948 335.000933 56.869569 
Q 335.490928 56.353551 335.689991 55.990913 
Q 335.890617 55.628324 335.901878 55.272252 
Q 335.920253 54.691292 335.524203 54.312958 
Q 335.128202 53.933062 334.473841 53.912366 
Q 334.010011 53.897696 333.489556 54.042253 
Q 332.970663 54.186859 332.374645 54.496298 
L 332.406159 53.499921 
Q 333.008731 53.279797 333.529513 53.174332 
Q 334.051856 53.068917 334.481329 53.082501 
Q 335.613575 53.118311 336.268746 53.706504 
Q 336.923966 54.293135 336.894033 55.239537 
Q 336.879808 55.689312 336.698399 56.086901 
Q 336.5186 56.482978 336.056222 57.015502 
Q 335.929913 57.153766 335.254166 57.809294 
Q 334.579979 58.464872 333.349959 59.642201 
z
M 341.051059 57.251643 
Q 340.348285 57.229416 339.933457 57.593046 
Q 339.520192 57.956726 339.499397 58.61421 
Q 339.478552 59.273256 339.86801 59.662324 
Q 340.25903 60.051442 340.961803 60.07367 
Q 341.664577 60.095897 342.081016 59.730754 
Q 342.499065 59.364099 342.519761 58.709739 
Q 342.540556 58.052255 342.149537 57.663137 
Q 341.760079 57.274068 341.051059 57.251643 
z
M 340.078851 56.801935 
Q 339.449733 56.625709 339.108954 56.180339 
Q 338.769787 55.733456 338.789544 55.108768 
Q 338.817156 54.235767 339.454773 53.747867 
Q 340.093952 53.260017 341.176223 53.294247 
Q 342.264742 53.328675 342.868691 53.855843 
Q 343.47264 54.383011 343.445029 55.256012 
Q 343.425271 55.8807 343.05698 56.305207 
Q 342.6903 56.728202 342.055988 56.864468 
Q 342.762896 57.052534 343.14426 57.549213 
Q 343.527236 58.04438 343.505206 58.740906 
Q 343.471668 59.801313 342.807186 60.347768 
Q 342.142753 60.892661 340.937106 60.854529 
Q 339.733021 60.816446 339.102788 60.230605 
Q 338.474167 59.643252 338.507705 58.582845 
Q 338.529735 57.886318 338.944798 57.416392 
Q 339.361472 56.944953 340.078851 56.801935 
z
M 339.76734 55.233491 
Q 339.74946 55.798833 340.092381 56.127025 
Q 340.436864 56.455267 341.075607 56.475469 
Q 341.711227 56.495572 342.078888 56.189855 
Q 342.44811 55.884186 342.465991 55.318844 
Q 342.483921 54.75194 342.134753 54.42355 
Q 341.787146 54.09521 341.151526 54.075107 
Q 340.512783 54.054904 340.148246 54.360721 
Q 339.78527 54.666587 339.76734 55.233491 
z
" clip-path="url(#p82561f6867)" style="fill: #fe9f6d; stroke: #ffffff; stroke-width: 5"/>
    <path d="M 326.313048 59.419638 
L 327.92318 59.470563 
L 328.099024 53.910843 
L 326.335661 54.20681 
L 326.364063 53.308821 
L 328.118055 53.012558 
L 329.1035 53.043726 
L 328.899255 59.501434 
L 330.509387 59.55236 
L 330.483159 60.381632 
L 326.28682 60.24891 
L 326.313048 59.419638 
z
M 333.349959 59.642201 
L 336.790426 59.751017 
L 336.764198 60.58029 
L 332.138386 60.433984 
L 332.164614 59.604711 
Q 332.743646 59.041484 333.742833 58.094472 
Q 334.74363 57.145948 335.000933 56.869569 
Q 335.490928 56.353551 335.689991 55.990913 
Q 335.890617 55.628324 335.901878 55.272252 
Q 335.920253 54.691292 335.524203 54.312958 
Q 335.128202 53.933062 334.473841 53.912366 
Q 334.010011 53.897696 333.489556 54.042253 
Q 332.970663 54.186859 332.374645 54.496298 
L 332.406159 53.499921 
Q 333.008731 53.279797 333.529513 53.174332 
Q 334.051856 53.068917 334.481329 53.082501 
Q 335.613575 53.118311 336.268746 53.706504 
Q 336.923966 54.293135 336.894033 55.239537 
Q 336.879808 55.689312 336.698399 56.086901 
Q 336.5186 56.482978 336.056222 57.015502 
Q 335.929913 57.153766 335.254166 57.809294 
Q 334.579979 58.464872 333.349959 59.642201 
z
M 341.051059 57.251643 
Q 340.348285 57.229416 339.933457 57.593046 
Q 339.520192 57.956726 339.499397 58.61421 
Q 339.478552 59.273256 339.86801 59.662324 
Q 340.25903 60.051442 340.961803 60.07367 
Q 341.664577 60.095897 342.081016 59.730754 
Q 342.499065 59.364099 342.519761 58.709739 
Q 342.540556 58.052255 342.149537 57.663137 
Q 341.760079 57.274068 341.051059 57.251643 
z
M 340.078851 56.801935 
Q 339.449733 56.625709 339.108954 56.180339 
Q 338.769787 55.733456 338.789544 55.108768 
Q 338.817156 54.235767 339.454773 53.747867 
Q 340.093952 53.260017 341.176223 53.294247 
Q 342.264742 53.328675 342.868691 53.855843 
Q 343.47264 54.383011 343.445029 55.256012 
Q 343.425271 55.8807 343.05698 56.305207 
Q 342.6903 56.728202 342.055988 56.864468 
Q 342.762896 57.052534 343.14426 57.549213 
Q 343.527236 58.04438 343.505206 58.740906 
Q 343.471668 59.801313 342.807186 60.347768 
Q 342.142753 60.892661 340.937106 60.854529 
Q 339.733021 60.816446 339.102788 60.230605 
Q 338.474167 59.643252 338.507705 58.582845 
Q 338.529735 57.886318 338.944798 57.416392 
Q 339.361472 56.944953 340.078851 56.801935 
z
M 339.76734 55.233491 
Q 339.74946 55.798833 340.092381 56.127025 
Q 340.436864 56.455267 341.075607 56.475469 
Q 341.711227 56.495572 342.078888 56.189855 
Q 342.44811 55.884186 342.465991 55.318844 
Q 342.483921 54.75194 342.134753 54.42355 
Q 341.787146 54.09521 341.151526 54.075107 
Q 340.512783 54.054904 340.148246 54.360721 
Q 339.78527 54.666587 339.76734 55.233491 
z
" clip-path="url(#p82561f6867)" style="fill: #fe9f6d"/>
   </g>
   <g id="patch_3">
    <path d="M 59.690625 301.735725 
L 59.690625 35.623725 
" style="fill: none; stroke: #cccccc; stroke-width: 0.8; stroke-linejoin: miter; stroke-linecap: square"/>
   </g>
   <g id="patch_4">
    <path d="M 416.810625 301.735725 
L 416.810625 35.623725 
" style="fill: none; stroke: #cccccc; stroke-width: 0.8; stroke-linejoin: miter; stroke-linecap: square"/>
   </g>
   <g id="patch_5">
    <path d="M 59.690625 301.735725 
L 416.810625 301.735725 
" style="fill: none; stroke: #cccccc; stroke-width: 0.8; stroke-linejoin: miter; stroke-linecap: square"/>
   </g>
   <g id="patch_6">
    <path d="M 59.690625 35.623725 
L 416.810625 35.623725 
" style="fill: none; stroke: #cccccc; stroke-width: 0.8; stroke-linejoin: miter; stroke-linecap: square"/>
   </g>
   <g id="text_20">
    <!-- Block Size = 1M, Read-Write Type = Random Write-only -->
    <g style="fill: #262626; opacity: 0.75" transform="translate(99.063125 30.882918) scale(0.1 -0.1)">
     <defs>
      <path id="DejaVuSans-42" d="M 1259 2228 
L 1259 519 
L 2272 519 
Q 2781 519 3026 730 
Q 3272 941 3272 1375 
Q 3272 1813 3026 2020 
Q 2781 2228 2272 2228 
L 1259 2228 
z
M 1259 4147 
L 1259 2741 
L 2194 2741 
Q 2656 2741 2882 2914 
Q 3109 3088 3109 3444 
Q 3109 3797 2882 3972 
Q 2656 4147 2194 4147 
L 1259 4147 
z
M 628 4666 
L 2241 4666 
Q 2963 4666 3353 4366 
Q 3744 4066 3744 3513 
Q 3744 3084 3544 2831 
Q 3344 2578 2956 2516 
Q 3422 2416 3680 2098 
Q 3938 1781 3938 1306 
Q 3938 681 3513 340 
Q 3088 0 2303 0 
L 628 0 
L 628 4666 
z
" transform="scale(0.015625)"/>
      <path id="DejaVuSans-6c" d="M 603 4863 
L 1178 4863 
L 1178 0 
L 603 0 
L 603 4863 
z
" transform="scale(0.015625)"/>
      <path id="DejaVuSans-6f" d="M 1959 3097 
Q 1497 3097 1228 2736 
Q 959 2375 959 1747 
Q 959 1119 1226 758 
Q 1494 397 1959 397 
Q 2419 397 2687 759 
Q 2956 1122 2956 1747 
Q 2956 2369 2687 2733 
Q 2419 3097 1959 3097 
z
M 1959 3584 
Q 2709 3584 3137 3096 
Q 3566 2609 3566 1747 
Q 3566 888 3137 398 
Q 2709 -91 1959 -91 
Q 1206 -91 779 398 
Q 353 888 353 1747 
Q 353 2609 779 3096 
Q 1206 3584 1959 3584 
z
" transform="scale(0.015625)"/>
      <path id="DejaVuSans-63" d="M 3122 3366 
L 3122 2828 
Q 2878 2963 2633 3030 
Q 2388 3097 2138 3097 
Q 1578 3097 1268 2742 
Q 959 2388 959 1747 
Q 959 1106 1268 751 
Q 1578 397 2138 397 
Q 2388 397 2633 464 
Q 2878 531 3122 666 
L 3122 134 
Q 2881 22 2623 -34 
Q 2366 -91 2075 -91 
Q 1284 -91 818 406 
Q 353 903 353 1747 
Q 353 2603 823 3093 
Q 1294 3584 2113 3584 
Q 2378 3584 2631 3529 
Q 2884 3475 3122 3366 
z
" transform="scale(0.015625)"/>
      <path id="DejaVuSans-6b" d="M 581 4863 
L 1159 4863 
L 1159 1991 
L 2875 3500 
L 3609 3500 
L 1753 1863 
L 3688 0 
L 2938 0 
L 1159 1709 
L 1159 0 
L 581 0 
L 581 4863 
z
" transform="scale(0.015625)"/>
      <path id="DejaVuSans-69" d="M 603 3500 
L 1178 3500 
L 1178 0 
L 603 0 
L 603 3500 
z
M 603 4863 
L 1178 4863 
L 1178 4134 
L 603 4134 
L 603 4863 
z
" transform="scale(0.015625)"/>
      <path id="DejaVuSans-7a" d="M 353 3500 
L 3084 3500 
L 3084 2975 
L 922 459 
L 3084 459 
L 3084 0 
L 275 0 
L 275 525 
L 2438 3041 
L 353 3041 
L 353 3500 
z
" transform="scale(0.015625)"/>
      <path id="DejaVuSans-3d" d="M 678 2906 
L 4684 2906 
L 4684 2381 
L 678 2381 
L 678 2906 
z
M 678 1631 
L 4684 1631 
L 4684 1100 
L 678 1100 
L 678 1631 
z
" transform="scale(0.015625)"/>
      <path id="DejaVuSans-4d" d="M 628 4666 
L 1569 4666 
L 2759 1491 
L 3956 4666 
L 4897 4666 
L 4897 0 
L 4281 0 
L 4281 4097 
L 3078 897 
L 2444 897 
L 1241 4097 
L 1241 0 
L 628 0 
L 628 4666 
z
" transform="scale(0.015625)"/>
      <path id="DejaVuSans-2c" d="M 750 794 
L 1409 794 
L 1409 256 
L 897 -744 
L 494 -744 
L 750 256 
L 750 794 
z
" transform="scale(0.015625)"/>
      <path id="DejaVuSans-52" d="M 2841 2188 
Q 3044 2119 3236 1894 
Q 3428 1669 3622 1275 
L 4263 0 
L 3584 0 
L 2988 1197 
Q 2756 1666 2539 1819 
Q 2322 1972 1947 1972 
L 1259 1972 
L 1259 0 
L 628 0 
L 628 4666 
L 2053 4666 
Q 2853 4666 3247 4331 
Q 3641 3997 3641 3322 
Q 3641 2881 3436 2590 
Q 3231 2300 2841 2188 
z
M 1259 4147 
L 1259 2491 
L 2053 2491 
Q 2509 2491 2742 2702 
Q 2975 2913 2975 3322 
Q 2975 3731 2742 3939 
Q 2509 4147 2053 4147 
L 1259 4147 
z
" transform="scale(0.015625)"/>
      <path id="DejaVuSans-61" d="M 2194 1759 
Q 1497 1759 1228 1600 
Q 959 1441 959 1056 
Q 959 750 1161 570 
Q 1363 391 1709 391 
Q 2188 391 2477 730 
Q 2766 1069 2766 1631 
L 2766 1759 
L 2194 1759 
z
M 3341 1997 
L 3341 0 
L 2766 0 
L 2766 531 
Q 2569 213 2275 61 
Q 1981 -91 1556 -91 
Q 1019 -91 701 211 
Q 384 513 384 1019 
Q 384 1609 779 1909 
Q 1175 2209 1959 2209 
L 2766 2209 
L 2766 2266 
Q 2766 2663 2505 2880 
Q 2244 3097 1772 3097 
Q 1472 3097 1187 3025 
Q 903 2953 641 2809 
L 641 3341 
Q 956 3463 1253 3523 
Q 1550 3584 1831 3584 
Q 2591 3584 2966 3190 
Q 3341 2797 3341 1997 
z
" transform="scale(0.015625)"/>
      <path id="DejaVuSans-64" d="M 2906 2969 
L 2906 4863 
L 3481 4863 
L 3481 0 
L 2906 0 
L 2906 525 
Q 2725 213 2448 61 
Q 2172 -91 1784 -91 
Q 1150 -91 751 415 
Q 353 922 353 1747 
Q 353 2572 751 3078 
Q 1150 3584 1784 3584 
Q 2172 3584 2448 3432 
Q 2725 3281 2906 2969 
z
M 947 1747 
Q 947 1113 1208 752 
Q 1469 391 1925 391 
Q 2381 391 2643 752 
Q 2906 1113 2906 1747 
Q 2906 2381 2643 2742 
Q 2381 3103 1925 3103 
Q 1469 3103 1208 2742 
Q 947 2381 947 1747 
z
" transform="scale(0.015625)"/>
      <path id="DejaVuSans-2d" d="M 313 2009 
L 1997 2009 
L 1997 1497 
L 313 1497 
L 313 2009 
z
" transform="scale(0.015625)"/>
      <path id="DejaVuSans-57" d="M 213 4666 
L 850 4666 
L 1831 722 
L 2809 4666 
L 3519 4666 
L 4500 722 
L 5478 4666 
L 6119 4666 
L 4947 0 
L 4153 0 
L 3169 4050 
L 2175 0 
L 1381 0 
L 213 4666 
z
" transform="scale(0.015625)"/>
      <path id="DejaVuSans-72" d="M 2631 2963 
Q 2534 3019 2420 3045 
Q 2306 3072 2169 3072 
Q 1681 3072 1420 2755 
Q 1159 2438 1159 1844 
L 1159 0 
L 581 0 
L 581 3500 
L 1159 3500 
L 1159 2956 
Q 1341 3275 1631 3429 
Q 1922 3584 2338 3584 
Q 2397 3584 2469 3576 
Q 2541 3569 2628 3553 
L 2631 2963 
z
" transform="scale(0.015625)"/>
      <path id="DejaVuSans-54" d="M -19 4666 
L 3928 4666 
L 3928 4134 
L 2272 4134 
L 2272 0 
L 1638 0 
L 1638 4134 
L -19 4134 
L -19 4666 
z
" transform="scale(0.015625)"/>
      <path id="DejaVuSans-79" d="M 2059 -325 
Q 1816 -950 1584 -1140 
Q 1353 -1331 966 -1331 
L 506 -1331 
L 506 -850 
L 844 -850 
Q 1081 -850 1212 -737 
Q 1344 -625 1503 -206 
L 1606 56 
L 191 3500 
L 800 3500 
L 1894 763 
L 2988 3500 
L 3597 3500 
L 2059 -325 
z
" transform="scale(0.015625)"/>
      <path id="DejaVuSans-6e" d="M 3513 2113 
L 3513 0 
L 2938 0 
L 2938 2094 
Q 2938 2591 2744 2837 
Q 2550 3084 2163 3084 
Q 1697 3084 1428 2787 
Q 1159 2491 1159 1978 
L 1159 0 
L 581 0 
L 581 3500 
L 1159 3500 
L 1159 2956 
Q 1366 3272 1645 3428 
Q 1925 3584 2291 3584 
Q 2894 3584 3203 3211 
Q 3513 2838 3513 2113 
z
" transform="scale(0.015625)"/>
      <path id="DejaVuSans-6d" d="M 3328 2828 
Q 3544 3216 3844 3400 
Q 4144 3584 4550 3584 
Q 5097 3584 5394 3201 
Q 5691 2819 5691 2113 
L 5691 0 
L 5113 0 
L 5113 2094 
Q 5113 2597 4934 2840 
Q 4756 3084 4391 3084 
Q 3944 3084 3684 2787 
Q 3425 2491 3425 1978 
L 3425 0 
L 2847 0 
L 2847 2094 
Q 2847 2600 2669 2842 
Q 2491 3084 2119 3084 
Q 1678 3084 1418 2786 
Q 1159 2488 1159 1978 
L 1159 0 
L 581 0 
L 581 3500 
L 1159 3500 
L 1159 2956 
Q 1356 3278 1631 3431 
Q 1906 3584 2284 3584 
Q 2666 3584 2933 3390 
Q 3200 3197 3328 2828 
z
" transform="scale(0.015625)"/>
     </defs>
     <use xlink:href="#DejaVuSans-42"/>
     <use xlink:href="#DejaVuSans-6c" transform="translate(68.603516 0)"/>
     <use xlink:href="#DejaVuSans-6f" transform="translate(96.386719 0)"/>
     <use xlink:href="#DejaVuSans-63" transform="translate(157.568359 0)"/>
     <use xlink:href="#DejaVuSans-6b" transform="translate(212.548828 0)"/>
     <use xlink:href="#DejaVuSans-20" transform="translate(270.458984 0)"/>
     <use xlink:href="#DejaVuSans-53" transform="translate(302.246094 0)"/>
     <use xlink:href="#DejaVuSans-69" transform="translate(365.722656 0)"/>
     <use xlink:href="#DejaVuSans-7a" transform="translate(393.505859 0)"/>
     <use xlink:href="#DejaVuSans-65" transform="translate(445.996094 0)"/>
     <use xlink:href="#DejaVuSans-20" transform="translate(507.519531 0)"/>
     <use xlink:href="#DejaVuSans-3d" transform="translate(539.306641 0)"/>
     <use xlink:href="#DejaVuSans-20" transform="translate(623.095703 0)"/>
     <use xlink:href="#DejaVuSans-31" transform="translate(654.882812 0)"/>
     <use xlink:href="#DejaVuSans-4d" transform="translate(718.505859 0)"/>
     <use xlink:href="#DejaVuSans-2c" transform="translate(804.785156 0)"/>
     <use xlink:href="#DejaVuSans-20" transform="translate(836.572266 0)"/>
     <use xlink:href="#DejaVuSans-52" transform="translate(868.359375 0)"/>
     <use xlink:href="#DejaVuSans-65" transform="translate(933.341797 0)"/>
     <use xlink:href="#DejaVuSans-61" transform="translate(994.865234 0)"/>
     <use xlink:href="#DejaVuSans-64" transform="translate(1056.144531 0)"/>
     <use xlink:href="#DejaVuSans-2d" transform="translate(1119.621094 0)"/>
     <use xlink:href="#DejaVuSans-57" transform="translate(1151.705078 0)"/>
     <use xlink:href="#DejaVuSans-72" transform="translate(1246.082031 0)"/>
     <use xlink:href="#DejaVuSans-69" transform="translate(1287.195312 0)"/>
     <use xlink:href="#DejaVuSans-74" transform="translate(1314.978516 0)"/>
     <use xlink:href="#DejaVuSans-65" transform="translate(1354.1875 0)"/>
     <use xlink:href="#DejaVuSans-20" transform="translate(1415.710938 0)"/>
     <use xlink:href="#DejaVuSans-54" transform="translate(1447.498047 0)"/>
     <use xlink:href="#DejaVuSans-79" transform="translate(1492.957031 0)"/>
     <use xlink:href="#DejaVuSans-70" transform="translate(1552.136719 0)"/>
     <use xlink:href="#DejaVuSans-65" transform="translate(1615.613281 0)"/>
     <use xlink:href="#DejaVuSans-20" transform="translate(1677.136719 0)"/>
     <use xlink:href="#DejaVuSans-3d" transform="translate(1708.923828 0)"/>
     <use xlink:href="#DejaVuSans-20" transform="translate(1792.712891 0)"/>
     <use xlink:href="#DejaVuSans-52" transform="translate(1824.5 0)"/>
     <use xlink:href="#DejaVuSans-61" transform="translate(1891.732422 0)"/>
     <use xlink:href="#DejaVuSans-6e" transform="translate(1953.011719 0)"/>
     <use xlink:href="#DejaVuSans-64" transform="translate(2016.390625 0)"/>
     <use xlink:href="#DejaVuSans-6f" transform="translate(2079.867188 0)"/>
     <use xlink:href="#DejaVuSans-6d" transform="translate(2141.048828 0)"/>
     <use xlink:href="#DejaVuSans-20" transform="translate(2238.460938 0)"/>
     <use xlink:href="#DejaVuSans-57" transform="translate(2270.248047 0)"/>
     <use xlink:href="#DejaVuSans-72" transform="translate(2364.625 0)"/>
     <use xlink:href="#DejaVuSans-69" transform="translate(2405.738281 0)"/>
     <use xlink:href="#DejaVuSans-74" transform="translate(2433.521484 0)"/>
     <use xlink:href="#DejaVuSans-65" transform="translate(2472.730469 0)"/>
     <use xlink:href="#DejaVuSans-2d" transform="translate(2534.253906 0)"/>
     <use xlink:href="#DejaVuSans-6f" transform="translate(2572.212891 0)"/>
     <use xlink:href="#DejaVuSans-6e" transform="translate(2633.394531 0)"/>
     <use xlink:href="#DejaVuSans-6c" transform="translate(2696.773438 0)"/>
     <use xlink:href="#DejaVuSans-79" transform="translate(2724.556641 0)"/>
    </g>
   </g>
   <g id="text_21">
    <!-- IOPS vs IO Depth -->
    <g style="fill: #262626" transform="translate(180.632812 16.318125) scale(0.12 -0.12)">
     <defs>
      <path id="DejaVuSans-Bold-49" d="M 588 4666 
L 1791 4666 
L 1791 0 
L 588 0 
L 588 4666 
z
" transform="scale(0.015625)"/>
      <path id="DejaVuSans-Bold-4f" d="M 2719 3878 
Q 2169 3878 1866 3472 
Q 1563 3066 1563 2328 
Q 1563 1594 1866 1187 
Q 2169 781 2719 781 
Q 3272 781 3575 1187 
Q 3878 1594 3878 2328 
Q 3878 3066 3575 3472 
Q 3272 3878 2719 3878 
z
M 2719 4750 
Q 3844 4750 4481 4106 
Q 5119 3463 5119 2328 
Q 5119 1197 4481 553 
Q 3844 -91 2719 -91 
Q 1597 -91 958 553 
Q 319 1197 319 2328 
Q 319 3463 958 4106 
Q 1597 4750 2719 4750 
z
" transform="scale(0.015625)"/>
      <path id="DejaVuSans-Bold-50" d="M 588 4666 
L 2584 4666 
Q 3475 4666 3951 4270 
Q 4428 3875 4428 3144 
Q 4428 2409 3951 2014 
Q 3475 1619 2584 1619 
L 1791 1619 
L 1791 0 
L 588 0 
L 588 4666 
z
M 1791 3794 
L 1791 2491 
L 2456 2491 
Q 2806 2491 2997 2661 
Q 3188 2831 3188 3144 
Q 3188 3456 2997 3625 
Q 2806 3794 2456 3794 
L 1791 3794 
z
" transform="scale(0.015625)"/>
      <path id="DejaVuSans-Bold-53" d="M 3834 4519 
L 3834 3531 
Q 3450 3703 3084 3790 
Q 2719 3878 2394 3878 
Q 1963 3878 1756 3759 
Q 1550 3641 1550 3391 
Q 1550 3203 1689 3098 
Q 1828 2994 2194 2919 
L 2706 2816 
Q 3484 2659 3812 2340 
Q 4141 2022 4141 1434 
Q 4141 663 3683 286 
Q 3225 -91 2284 -91 
Q 1841 -91 1394 -6 
Q 947 78 500 244 
L 500 1259 
Q 947 1022 1364 901 
Q 1781 781 2169 781 
Q 2563 781 2772 912 
Q 2981 1044 2981 1288 
Q 2981 1506 2839 1625 
Q 2697 1744 2272 1838 
L 1806 1941 
Q 1106 2091 782 2419 
Q 459 2747 459 3303 
Q 459 4000 909 4375 
Q 1359 4750 2203 4750 
Q 2588 4750 2994 4692 
Q 3400 4634 3834 4519 
z
" transform="scale(0.015625)"/>
      <path id="DejaVuSans-Bold-20" transform="scale(0.015625)"/>
      <path id="DejaVuSans-Bold-76" d="M 97 3500 
L 1216 3500 
L 2088 1081 
L 2956 3500 
L 4078 3500 
L 2700 0 
L 1472 0 
L 97 3500 
z
" transform="scale(0.015625)"/>
      <path id="DejaVuSans-Bold-73" d="M 3272 3391 
L 3272 2541 
Q 2913 2691 2578 2766 
Q 2244 2841 1947 2841 
Q 1628 2841 1473 2761 
Q 1319 2681 1319 2516 
Q 1319 2381 1436 2309 
Q 1553 2238 1856 2203 
L 2053 2175 
Q 2913 2066 3209 1816 
Q 3506 1566 3506 1031 
Q 3506 472 3093 190 
Q 2681 -91 1863 -91 
Q 1516 -91 1145 -36 
Q 775 19 384 128 
L 384 978 
Q 719 816 1070 734 
Q 1422 653 1784 653 
Q 2113 653 2278 743 
Q 2444 834 2444 1013 
Q 2444 1163 2330 1236 
Q 2216 1309 1875 1350 
L 1678 1375 
Q 931 1469 631 1722 
Q 331 1975 331 2491 
Q 331 3047 712 3315 
Q 1094 3584 1881 3584 
Q 2191 3584 2531 3537 
Q 2872 3491 3272 3391 
z
" transform="scale(0.015625)"/>
      <path id="DejaVuSans-Bold-44" d="M 1791 3756 
L 1791 909 
L 2222 909 
Q 2959 909 3348 1275 
Q 3738 1641 3738 2338 
Q 3738 3031 3350 3393 
Q 2963 3756 2222 3756 
L 1791 3756 
z
M 588 4666 
L 1856 4666 
Q 2919 4666 3439 4514 
Q 3959 4363 4331 4000 
Q 4659 3684 4818 3271 
Q 4978 2859 4978 2338 
Q 4978 1809 4818 1395 
Q 4659 981 4331 666 
Q 3956 303 3431 151 
Q 2906 0 1856 0 
L 588 0 
L 588 4666 
z
" transform="scale(0.015625)"/>
      <path id="DejaVuSans-Bold-65" d="M 4031 1759 
L 4031 1441 
L 1416 1441 
Q 1456 1047 1700 850 
Q 1944 653 2381 653 
Q 2734 653 3104 758 
Q 3475 863 3866 1075 
L 3866 213 
Q 3469 63 3072 -14 
Q 2675 -91 2278 -91 
Q 1328 -91 801 392 
Q 275 875 275 1747 
Q 275 2603 792 3093 
Q 1309 3584 2216 3584 
Q 3041 3584 3536 3087 
Q 4031 2591 4031 1759 
z
M 2881 2131 
Q 2881 2450 2695 2645 
Q 2509 2841 2209 2841 
Q 1884 2841 1681 2658 
Q 1478 2475 1428 2131 
L 2881 2131 
z
" transform="scale(0.015625)"/>
      <path id="DejaVuSans-Bold-70" d="M 1656 506 
L 1656 -1331 
L 538 -1331 
L 538 3500 
L 1656 3500 
L 1656 2988 
Q 1888 3294 2169 3439 
Q 2450 3584 2816 3584 
Q 3463 3584 3878 3070 
Q 4294 2556 4294 1747 
Q 4294 938 3878 423 
Q 3463 -91 2816 -91 
Q 2450 -91 2169 54 
Q 1888 200 1656 506 
z
M 2400 2772 
Q 2041 2772 1848 2508 
Q 1656 2244 1656 1747 
Q 1656 1250 1848 986 
Q 2041 722 2400 722 
Q 2759 722 2948 984 
Q 3138 1247 3138 1747 
Q 3138 2247 2948 2509 
Q 2759 2772 2400 2772 
z
" transform="scale(0.015625)"/>
      <path id="DejaVuSans-Bold-74" d="M 1759 4494 
L 1759 3500 
L 2913 3500 
L 2913 2700 
L 1759 2700 
L 1759 1216 
Q 1759 972 1856 886 
Q 1953 800 2241 800 
L 2816 800 
L 2816 0 
L 1856 0 
Q 1194 0 917 276 
Q 641 553 641 1216 
L 641 2700 
L 84 2700 
L 84 3500 
L 641 3500 
L 641 4494 
L 1759 4494 
z
" transform="scale(0.015625)"/>
      <path id="DejaVuSans-Bold-68" d="M 4056 2131 
L 4056 0 
L 2931 0 
L 2931 347 
L 2931 1625 
Q 2931 2084 2911 2256 
Q 2891 2428 2841 2509 
Q 2775 2619 2662 2680 
Q 2550 2741 2406 2741 
Q 2056 2741 1856 2470 
Q 1656 2200 1656 1722 
L 1656 0 
L 538 0 
L 538 4863 
L 1656 4863 
L 1656 2988 
Q 1909 3294 2193 3439 
Q 2478 3584 2822 3584 
Q 3428 3584 3742 3212 
Q 4056 2841 4056 2131 
z
" transform="scale(0.015625)"/>
     </defs>
     <use xlink:href="#DejaVuSans-Bold-49"/>
     <use xlink:href="#DejaVuSans-Bold-4f" transform="translate(37.207031 0)"/>
     <use xlink:href="#DejaVuSans-Bold-50" transform="translate(122.216797 0)"/>
     <use xlink:href="#DejaVuSans-Bold-53" transform="translate(195.507812 0)"/>
     <use xlink:href="#DejaVuSans-Bold-20" transform="translate(267.529297 0)"/>
     <use xlink:href="#DejaVuSans-Bold-76" transform="translate(302.34375 0)"/>
     <use xlink:href="#DejaVuSans-Bold-73" transform="translate(367.529297 0)"/>
     <use xlink:href="#DejaVuSans-Bold-20" transform="translate(427.050781 0)"/>
     <use xlink:href="#DejaVuSans-Bold-49" transform="translate(461.865234 0)"/>
     <use xlink:href="#DejaVuSans-Bold-4f" transform="translate(499.072266 0)"/>
     <use xlink:href="#DejaVuSans-Bold-20" transform="translate(584.082031 0)"/>
     <use xlink:href="#DejaVuSans-Bold-44" transform="translate(618.896484 0)"/>
     <use xlink:href="#DejaVuSans-Bold-65" transform="translate(701.904297 0)"/>
     <use xlink:href="#DejaVuSans-Bold-70" transform="translate(769.726562 0)"/>
     <use xlink:href="#DejaVuSans-Bold-74" transform="translate(841.308594 0)"/>
     <use xlink:href="#DejaVuSans-Bold-68" transform="translate(889.111328 0)"/>
    </g>
   </g>
   <g id="legend_1">
    <g id="text_22">
     <!-- Number of Jobs -->
     <g style="fill: #262626" transform="translate(420.296875 142.08285) scale(0.1 -0.1)">
      <defs>
       <path id="DejaVuSans-4e" d="M 628 4666 
L 1478 4666 
L 3547 763 
L 3547 4666 
L 4159 4666 
L 4159 0 
L 3309 0 
L 1241 3903 
L 1241 0 
L 628 0 
L 628 4666 
z
" transform="scale(0.015625)"/>
       <path id="DejaVuSans-75" d="M 544 1381 
L 544 3500 
L 1119 3500 
L 1119 1403 
Q 1119 906 1312 657 
Q 1506 409 1894 409 
Q 2359 409 2629 706 
Q 2900 1003 2900 1516 
L 2900 3500 
L 3475 3500 
L 3475 0 
L 2900 0 
L 2900 538 
Q 2691 219 2414 64 
Q 2138 -91 1772 -91 
Q 1169 -91 856 284 
Q 544 659 544 1381 
z
M 1991 3584 
L 1991 3584 
z
" transform="scale(0.015625)"/>
       <path id="DejaVuSans-62" d="M 3116 1747 
Q 3116 2381 2855 2742 
Q 2594 3103 2138 3103 
Q 1681 3103 1420 2742 
Q 1159 2381 1159 1747 
Q 1159 1113 1420 752 
Q 1681 391 2138 391 
Q 2594 391 2855 752 
Q 3116 1113 3116 1747 
z
M 1159 2969 
Q 1341 3281 1617 3432 
Q 1894 3584 2278 3584 
Q 2916 3584 3314 3078 
Q 3713 2572 3713 1747 
Q 3713 922 3314 415 
Q 2916 -91 2278 -91 
Q 1894 -91 1617 61 
Q 1341 213 1159 525 
L 1159 0 
L 581 0 
L 581 4863 
L 1159 4863 
L 1159 2969 
z
" transform="scale(0.015625)"/>
       <path id="DejaVuSans-66" d="M 2375 4863 
L 2375 4384 
L 1825 4384 
Q 1516 4384 1395 4259 
Q 1275 4134 1275 3809 
L 1275 3500 
L 2222 3500 
L 2222 3053 
L 1275 3053 
L 1275 0 
L 697 0 
L 697 3053 
L 147 3053 
L 147 3500 
L 697 3500 
L 697 3744 
Q 697 4328 969 4595 
Q 1241 4863 1831 4863 
L 2375 4863 
z
" transform="scale(0.015625)"/>
       <path id="DejaVuSans-4a" d="M 628 4666 
L 1259 4666 
L 1259 325 
Q 1259 -519 939 -900 
Q 619 -1281 -91 -1281 
L -331 -1281 
L -331 -750 
L -134 -750 
Q 284 -750 456 -515 
Q 628 -281 628 325 
L 628 4666 
z
" transform="scale(0.015625)"/>
       <path id="DejaVuSans-73" d="M 2834 3397 
L 2834 2853 
Q 2591 2978 2328 3040 
Q 2066 3103 1784 3103 
Q 1356 3103 1142 2972 
Q 928 2841 928 2578 
Q 928 2378 1081 2264 
Q 1234 2150 1697 2047 
L 1894 2003 
Q 2506 1872 2764 1633 
Q 3022 1394 3022 966 
Q 3022 478 2636 193 
Q 2250 -91 1575 -91 
Q 1294 -91 989 -36 
Q 684 19 347 128 
L 347 722 
Q 666 556 975 473 
Q 1284 391 1588 391 
Q 1994 391 2212 530 
Q 2431 669 2431 922 
Q 2431 1156 2273 1281 
Q 2116 1406 1581 1522 
L 1381 1569 
Q 847 1681 609 1914 
Q 372 2147 372 2553 
Q 372 3047 722 3315 
Q 1072 3584 1716 3584 
Q 2034 3584 2315 3537 
Q 2597 3491 2834 3397 
z
" transform="scale(0.015625)"/>
      </defs>
      <use xlink:href="#DejaVuSans-4e"/>
      <use xlink:href="#DejaVuSans-75" transform="translate(74.804688 0)"/>
      <use xlink:href="#DejaVuSans-6d" transform="translate(138.183594 0)"/>
      <use xlink:href="#DejaVuSans-62" transform="translate(235.595703 0)"/>
      <use xlink:href="#DejaVuSans-65" transform="translate(299.072266 0)"/>
      <use xlink:href="#DejaVuSans-72" transform="translate(360.595703 0)"/>
      <use xlink:href="#DejaVuSans-20" transform="translate(401.708984 0)"/>
      <use xlink:href="#DejaVuSans-6f" transform="translate(433.496094 0)"/>
      <use xlink:href="#DejaVuSans-66" transform="translate(494.677734 0)"/>
      <use xlink:href="#DejaVuSans-20" transform="translate(529.882812 0)"/>
      <use xlink:href="#DejaVuSans-4a" transform="translate(561.669922 0)"/>
      <use xlink:href="#DejaVuSans-6f" transform="translate(591.162109 0)"/>
      <use xlink:href="#DejaVuSans-62" transform="translate(652.34375 0)"/>
      <use xlink:href="#DejaVuSans-73" transform="translate(715.820312 0)"/>
     </g>
    </g>
    <g id="line2d_22">
     <path d="M 435.15 153.260975 
L 445.15 153.260975 
L 455.15 153.260975 
" style="fill: none; stroke: #3b0f70; stroke-width: 1.5; stroke-linecap: round"/>
    </g>
    <g id="text_23">
     <!-- 16 -->
     <g style="fill: #262626" transform="translate(463.15 156.760975) scale(0.1 -0.1)">
      <use xlink:href="#DejaVuSans-31"/>
      <use xlink:href="#DejaVuSans-36" transform="translate(63.623047 0)"/>
     </g>
    </g>
    <g id="line2d_23">
     <path d="M 435.15 167.9391 
L 445.15 167.9391 
L 455.15 167.9391 
" style="fill: none; stroke: #8c2981; stroke-width: 1.5; stroke-linecap: round"/>
    </g>
    <g id="text_24">
     <!-- 32 -->
     <g style="fill: #262626" transform="translate(463.15 171.4391) scale(0.1 -0.1)">
      <use xlink:href="#DejaVuSans-33"/>
      <use xlink:href="#DejaVuSans-32" transform="translate(63.623047 0)"/>
     </g>
    </g>
    <g id="line2d_24">
     <path d="M 435.15 182.617225 
L 445.15 182.617225 
L 455.15 182.617225 
" style="fill: none; stroke: #de4968; stroke-width: 1.5; stroke-linecap: round"/>
    </g>
    <g id="text_25">
     <!-- 64 -->
     <g style="fill: #262626" transform="translate(463.15 186.117225) scale(0.1 -0.1)">
      <use xlink:href="#DejaVuSans-36"/>
      <use xlink:href="#DejaVuSans-34" transform="translate(63.623047 0)"/>
     </g>
    </g>
    <g id="line2d_25">
     <path d="M 435.15 197.29535 
L 445.15 197.29535 
L 455.15 197.29535 
" style="fill: none; stroke: #fe9f6d; stroke-width: 1.5; stroke-linecap: round"/>
    </g>
    <g id="text_26">
     <!-- 128 -->
     <g style="fill: #262626" transform="translate(463.15 200.79535) scale(0.1 -0.1)">
      <use xlink:href="#DejaVuSans-31"/>
      <use xlink:href="#DejaVuSans-32" transform="translate(63.623047 0)"/>
      <use xlink:href="#DejaVuSans-38" transform="translate(127.246094 0)"/>
     </g>
    </g>
   </g>
  </g>
 </g>
 <defs>
  <clipPath id="p82561f6867">
   <rect x="59.690625" y="35.623725" width="357.12" height="266.112"/>
  </clipPath>
 </defs>
</svg>
