<?xml version="1.0" encoding="utf-8" standalone="no"?>
<!DOCTYPE svg PUBLIC "-//W3C//DTD SVG 1.1//EN"
  "http://www.w3.org/Graphics/SVG/1.1/DTD/svg11.dtd">
<svg xmlns:xlink="http://www.w3.org/1999/xlink" width="501.928125pt" height="339.291975pt" viewBox="0 0 501.928125 339.291975" xmlns="http://www.w3.org/2000/svg" version="1.1">
 <metadata>
  <rdf:RDF xmlns:dc="http://purl.org/dc/elements/1.1/" xmlns:cc="http://creativecommons.org/ns#" xmlns:rdf="http://www.w3.org/1999/02/22-rdf-syntax-ns#">
   <cc:Work>
    <dc:type rdf:resource="http://purl.org/dc/dcmitype/StillImage"/>
    <dc:date>2025-09-11T11:44:23.453950</dc:date>
    <dc:format>image/svg+xml</dc:format>
    <dc:creator>
     <cc:Agent>
      <dc:title>Matplotlib v3.10.6, https://matplotlib.org/</dc:title>
     </cc:Agent>
    </dc:creator>
   </cc:Work>
  </rdf:RDF>
 </metadata>
 <defs>
  <style type="text/css">*{stroke-linejoin: round; stroke-linecap: butt}</style>
 </defs>
 <g id="figure_1">
  <g id="patch_1">
   <path d="M 0 339.291975 
L 501.928125 339.291975 
L 501.928125 0 
L 0 0 
z
" style="fill: #ffffff"/>
  </g>
  <g id="axes_1">
   <g id="patch_2">
    <path d="M 53.328125 301.735725 
L 410.448125 301.735725 
L 410.448125 35.623725 
L 53.328125 35.623725 
z
" style="fill: #ffffff"/>
   </g>
   <g id="matplotlib.axis_1">
    <g id="xtick_1">
     <g id="line2d_1">
      <path d="M 394.215398 301.735725 
L 394.215398 35.623725 
" clip-path="url(#p344aec7476)" style="fill: none; stroke: #cccccc; stroke-width: 0.8; stroke-linecap: round"/>
     </g>
     <g id="text_1">
      <!-- 128 -->
      <g style="fill: #262626" transform="translate(384.671648 316.334162) scale(0.1 -0.1)">
       <defs>
        <path id="DejaVuSans-31" d="M 794 531 
L 1825 531 
L 1825 4091 
L 703 3866 
L 703 4441 
L 1819 4666 
L 2450 4666 
L 2450 531 
L 3481 531 
L 3481 0 
L 794 0 
L 794 531 
z
" transform="scale(0.015625)"/>
        <path id="DejaVuSans-32" d="M 1228 531 
L 3431 531 
L 3431 0 
L 469 0 
L 469 531 
Q 828 903 1448 1529 
Q 2069 2156 2228 2338 
Q 2531 2678 2651 2914 
Q 2772 3150 2772 3378 
Q 2772 3750 2511 3984 
Q 2250 4219 1831 4219 
Q 1534 4219 1204 4116 
Q 875 4013 500 3803 
L 500 4441 
Q 881 4594 1212 4672 
Q 1544 4750 1819 4750 
Q 2544 4750 2975 4387 
Q 3406 4025 3406 3419 
Q 3406 3131 3298 2873 
Q 3191 2616 2906 2266 
Q 2828 2175 2409 1742 
Q 1991 1309 1228 531 
z
" transform="scale(0.015625)"/>
        <path id="DejaVuSans-38" d="M 2034 2216 
Q 1584 2216 1326 1975 
Q 1069 1734 1069 1313 
Q 1069 891 1326 650 
Q 1584 409 2034 409 
Q 2484 409 2743 651 
Q 3003 894 3003 1313 
Q 3003 1734 2745 1975 
Q 2488 2216 2034 2216 
z
M 1403 2484 
Q 997 2584 770 2862 
Q 544 3141 544 3541 
Q 544 4100 942 4425 
Q 1341 4750 2034 4750 
Q 2731 4750 3128 4425 
Q 3525 4100 3525 3541 
Q 3525 3141 3298 2862 
Q 3072 2584 2669 2484 
Q 3125 2378 3379 2068 
Q 3634 1759 3634 1313 
Q 3634 634 3220 271 
Q 2806 -91 2034 -91 
Q 1263 -91 848 271 
Q 434 634 434 1313 
Q 434 1759 690 2068 
Q 947 2378 1403 2484 
z
M 1172 3481 
Q 1172 3119 1398 2916 
Q 1625 2713 2034 2713 
Q 2441 2713 2670 2916 
Q 2900 3119 2900 3481 
Q 2900 3844 2670 4047 
Q 2441 4250 2034 4250 
Q 1625 4250 1398 4047 
Q 1172 3844 1172 3481 
z
" transform="scale(0.015625)"/>
       </defs>
       <use xlink:href="#DejaVuSans-31"/>
       <use xlink:href="#DejaVuSans-32" transform="translate(63.623047 0)"/>
       <use xlink:href="#DejaVuSans-38" transform="translate(127.246094 0)"/>
      </g>
     </g>
    </g>
    <g id="xtick_2">
     <g id="line2d_2">
      <path d="M 77.229857 301.735725 
L 77.229857 35.623725 
" clip-path="url(#p344aec7476)" style="fill: none; stroke: #cccccc; stroke-width: 0.8; stroke-linecap: round"/>
     </g>
     <g id="text_2">
      <!-- 4 -->
      <g style="fill: #262626" transform="translate(74.048607 316.334162) scale(0.1 -0.1)">
       <defs>
        <path id="DejaVuSans-34" d="M 2419 4116 
L 825 1625 
L 2419 1625 
L 2419 4116 
z
M 2253 4666 
L 3047 4666 
L 3047 1625 
L 3713 1625 
L 3713 1100 
L 3047 1100 
L 3047 0 
L 2419 0 
L 2419 1100 
L 313 1100 
L 313 1709 
L 2253 4666 
z
" transform="scale(0.015625)"/>
       </defs>
       <use xlink:href="#DejaVuSans-34"/>
      </g>
     </g>
    </g>
    <g id="xtick_3">
     <g id="line2d_3">
      <path d="M 87.455197 301.735725 
L 87.455197 35.623725 
" clip-path="url(#p344aec7476)" style="fill: none; stroke: #cccccc; stroke-width: 0.8; stroke-linecap: round"/>
     </g>
     <g id="text_3">
      <!-- 8 -->
      <g style="fill: #262626" transform="translate(84.273947 316.334162) scale(0.1 -0.1)">
       <use xlink:href="#DejaVuSans-38"/>
      </g>
     </g>
    </g>
    <g id="xtick_4">
     <g id="line2d_4">
      <path d="M 148.807237 301.735725 
L 148.807237 35.623725 
" clip-path="url(#p344aec7476)" style="fill: none; stroke: #cccccc; stroke-width: 0.8; stroke-linecap: round"/>
     </g>
     <g id="text_4">
      <!-- 32 -->
      <g style="fill: #262626" transform="translate(142.444737 316.334162) scale(0.1 -0.1)">
       <defs>
        <path id="DejaVuSans-33" d="M 2597 2516 
Q 3050 2419 3304 2112 
Q 3559 1806 3559 1356 
Q 3559 666 3084 287 
Q 2609 -91 1734 -91 
Q 1441 -91 1130 -33 
Q 819 25 488 141 
L 488 750 
Q 750 597 1062 519 
Q 1375 441 1716 441 
Q 2309 441 2620 675 
Q 2931 909 2931 1356 
Q 2931 1769 2642 2001 
Q 2353 2234 1838 2234 
L 1294 2234 
L 1294 2753 
L 1863 2753 
Q 2328 2753 2575 2939 
Q 2822 3125 2822 3475 
Q 2822 3834 2567 4026 
Q 2313 4219 1838 4219 
Q 1578 4219 1281 4162 
Q 984 4106 628 3988 
L 628 4550 
Q 988 4650 1302 4700 
Q 1616 4750 1894 4750 
Q 2613 4750 3031 4423 
Q 3450 4097 3450 3541 
Q 3450 3153 3228 2886 
Q 3006 2619 2597 2516 
z
" transform="scale(0.015625)"/>
       </defs>
       <use xlink:href="#DejaVuSans-33"/>
       <use xlink:href="#DejaVuSans-32" transform="translate(63.623047 0)"/>
      </g>
     </g>
    </g>
    <g id="xtick_5">
     <g id="line2d_5">
      <path d="M 107.905877 301.735725 
L 107.905877 35.623725 
" clip-path="url(#p344aec7476)" style="fill: none; stroke: #cccccc; stroke-width: 0.8; stroke-linecap: round"/>
     </g>
     <g id="text_5">
      <!-- 16 -->
      <g style="fill: #262626" transform="translate(101.543377 316.334162) scale(0.1 -0.1)">
       <defs>
        <path id="DejaVuSans-36" d="M 2113 2584 
Q 1688 2584 1439 2293 
Q 1191 2003 1191 1497 
Q 1191 994 1439 701 
Q 1688 409 2113 409 
Q 2538 409 2786 701 
Q 3034 994 3034 1497 
Q 3034 2003 2786 2293 
Q 2538 2584 2113 2584 
z
M 3366 4563 
L 3366 3988 
Q 3128 4100 2886 4159 
Q 2644 4219 2406 4219 
Q 1781 4219 1451 3797 
Q 1122 3375 1075 2522 
Q 1259 2794 1537 2939 
Q 1816 3084 2150 3084 
Q 2853 3084 3261 2657 
Q 3669 2231 3669 1497 
Q 3669 778 3244 343 
Q 2819 -91 2113 -91 
Q 1303 -91 875 529 
Q 447 1150 447 2328 
Q 447 3434 972 4092 
Q 1497 4750 2381 4750 
Q 2619 4750 2861 4703 
Q 3103 4656 3366 4563 
z
" transform="scale(0.015625)"/>
       </defs>
       <use xlink:href="#DejaVuSans-31"/>
       <use xlink:href="#DejaVuSans-36" transform="translate(63.623047 0)"/>
      </g>
     </g>
    </g>
    <g id="xtick_6">
     <g id="line2d_6">
      <path d="M 69.560852 301.735725 
L 69.560852 35.623725 
" clip-path="url(#p344aec7476)" style="fill: none; stroke: #cccccc; stroke-width: 0.8; stroke-linecap: round"/>
     </g>
     <g id="text_6">
      <!-- 1 -->
      <g style="fill: #262626" transform="translate(66.379602 316.334162) scale(0.1 -0.1)">
       <use xlink:href="#DejaVuSans-31"/>
      </g>
     </g>
    </g>
    <g id="xtick_7">
     <g id="line2d_7">
      <path d="M 230.609957 301.735725 
L 230.609957 35.623725 
" clip-path="url(#p344aec7476)" style="fill: none; stroke: #cccccc; stroke-width: 0.8; stroke-linecap: round"/>
     </g>
     <g id="text_7">
      <!-- 64 -->
      <g style="fill: #262626" transform="translate(224.247457 316.334162) scale(0.1 -0.1)">
       <use xlink:href="#DejaVuSans-36"/>
       <use xlink:href="#DejaVuSans-34" transform="translate(63.623047 0)"/>
      </g>
     </g>
    </g>
    <g id="text_8">
     <!-- IO Depth -->
     <g style="fill: #262626" transform="translate(209.658437 330.012287) scale(0.1 -0.1)">
      <defs>
       <path id="DejaVuSans-49" d="M 628 4666 
L 1259 4666 
L 1259 0 
L 628 0 
L 628 4666 
z
" transform="scale(0.015625)"/>
       <path id="DejaVuSans-4f" d="M 2522 4238 
Q 1834 4238 1429 3725 
Q 1025 3213 1025 2328 
Q 1025 1447 1429 934 
Q 1834 422 2522 422 
Q 3209 422 3611 934 
Q 4013 1447 4013 2328 
Q 4013 3213 3611 3725 
Q 3209 4238 2522 4238 
z
M 2522 4750 
Q 3503 4750 4090 4092 
Q 4678 3434 4678 2328 
Q 4678 1225 4090 567 
Q 3503 -91 2522 -91 
Q 1538 -91 948 565 
Q 359 1222 359 2328 
Q 359 3434 948 4092 
Q 1538 4750 2522 4750 
z
" transform="scale(0.015625)"/>
       <path id="DejaVuSans-20" transform="scale(0.015625)"/>
       <path id="DejaVuSans-44" d="M 1259 4147 
L 1259 519 
L 2022 519 
Q 2988 519 3436 956 
Q 3884 1394 3884 2338 
Q 3884 3275 3436 3711 
Q 2988 4147 2022 4147 
L 1259 4147 
z
M 628 4666 
L 1925 4666 
Q 3281 4666 3915 4102 
Q 4550 3538 4550 2338 
Q 4550 1131 3912 565 
Q 3275 0 1925 0 
L 628 0 
L 628 4666 
z
" transform="scale(0.015625)"/>
       <path id="DejaVuSans-65" d="M 3597 1894 
L 3597 1613 
L 953 1613 
Q 991 1019 1311 708 
Q 1631 397 2203 397 
Q 2534 397 2845 478 
Q 3156 559 3463 722 
L 3463 178 
Q 3153 47 2828 -22 
Q 2503 -91 2169 -91 
Q 1331 -91 842 396 
Q 353 884 353 1716 
Q 353 2575 817 3079 
Q 1281 3584 2069 3584 
Q 2775 3584 3186 3129 
Q 3597 2675 3597 1894 
z
M 3022 2063 
Q 3016 2534 2758 2815 
Q 2500 3097 2075 3097 
Q 1594 3097 1305 2825 
Q 1016 2553 972 2059 
L 3022 2063 
z
" transform="scale(0.015625)"/>
       <path id="DejaVuSans-70" d="M 1159 525 
L 1159 -1331 
L 581 -1331 
L 581 3500 
L 1159 3500 
L 1159 2969 
Q 1341 3281 1617 3432 
Q 1894 3584 2278 3584 
Q 2916 3584 3314 3078 
Q 3713 2572 3713 1747 
Q 3713 922 3314 415 
Q 2916 -91 2278 -91 
Q 1894 -91 1617 61 
Q 1341 213 1159 525 
z
M 3116 1747 
Q 3116 2381 2855 2742 
Q 2594 3103 2138 3103 
Q 1681 3103 1420 2742 
Q 1159 2381 1159 1747 
Q 1159 1113 1420 752 
Q 1681 391 2138 391 
Q 2594 391 2855 752 
Q 3116 1113 3116 1747 
z
" transform="scale(0.015625)"/>
       <path id="DejaVuSans-74" d="M 1172 4494 
L 1172 3500 
L 2356 3500 
L 2356 3053 
L 1172 3053 
L 1172 1153 
Q 1172 725 1289 603 
Q 1406 481 1766 481 
L 2356 481 
L 2356 0 
L 1766 0 
Q 1100 0 847 248 
Q 594 497 594 1153 
L 594 3053 
L 172 3053 
L 172 3500 
L 594 3500 
L 594 4494 
L 1172 4494 
z
" transform="scale(0.015625)"/>
       <path id="DejaVuSans-68" d="M 3513 2113 
L 3513 0 
L 2938 0 
L 2938 2094 
Q 2938 2591 2744 2837 
Q 2550 3084 2163 3084 
Q 1697 3084 1428 2787 
Q 1159 2491 1159 1978 
L 1159 0 
L 581 0 
L 581 4863 
L 1159 4863 
L 1159 2956 
Q 1366 3272 1645 3428 
Q 1925 3584 2291 3584 
Q 2894 3584 3203 3211 
Q 3513 2838 3513 2113 
z
" transform="scale(0.015625)"/>
      </defs>
      <use xlink:href="#DejaVuSans-49"/>
      <use xlink:href="#DejaVuSans-4f" transform="translate(29.492188 0)"/>
      <use xlink:href="#DejaVuSans-20" transform="translate(108.203125 0)"/>
      <use xlink:href="#DejaVuSans-44" transform="translate(139.990234 0)"/>
      <use xlink:href="#DejaVuSans-65" transform="translate(216.992188 0)"/>
      <use xlink:href="#DejaVuSans-70" transform="translate(278.515625 0)"/>
      <use xlink:href="#DejaVuSans-74" transform="translate(341.992188 0)"/>
      <use xlink:href="#DejaVuSans-68" transform="translate(381.201172 0)"/>
     </g>
    </g>
   </g>
   <g id="matplotlib.axis_2">
    <g id="ytick_1">
     <g id="line2d_8">
      <path d="M 53.328125 259.827922 
L 410.448125 259.827922 
" clip-path="url(#p344aec7476)" style="fill: none; stroke: #cccccc; stroke-width: 0.8; stroke-linecap: round"/>
     </g>
     <g id="text_9">
      <!-- 3000 -->
      <g style="fill: #262626" transform="translate(20.878125 263.627141) scale(0.1 -0.1)">
       <defs>
        <path id="DejaVuSans-30" d="M 2034 4250 
Q 1547 4250 1301 3770 
Q 1056 3291 1056 2328 
Q 1056 1369 1301 889 
Q 1547 409 2034 409 
Q 2525 409 2770 889 
Q 3016 1369 3016 2328 
Q 3016 3291 2770 3770 
Q 2525 4250 2034 4250 
z
M 2034 4750 
Q 2819 4750 3233 4129 
Q 3647 3509 3647 2328 
Q 3647 1150 3233 529 
Q 2819 -91 2034 -91 
Q 1250 -91 836 529 
Q 422 1150 422 2328 
Q 422 3509 836 4129 
Q 1250 4750 2034 4750 
z
" transform="scale(0.015625)"/>
       </defs>
       <use xlink:href="#DejaVuSans-33"/>
       <use xlink:href="#DejaVuSans-30" transform="translate(63.623047 0)"/>
       <use xlink:href="#DejaVuSans-30" transform="translate(127.246094 0)"/>
       <use xlink:href="#DejaVuSans-30" transform="translate(190.869141 0)"/>
      </g>
     </g>
    </g>
    <g id="ytick_2">
     <g id="line2d_9">
      <path d="M 53.328125 213.536304 
L 410.448125 213.536304 
" clip-path="url(#p344aec7476)" style="fill: none; stroke: #cccccc; stroke-width: 0.8; stroke-linecap: round"/>
     </g>
     <g id="text_10">
      <!-- 3500 -->
      <g style="fill: #262626" transform="translate(20.878125 217.335522) scale(0.1 -0.1)">
       <defs>
        <path id="DejaVuSans-35" d="M 691 4666 
L 3169 4666 
L 3169 4134 
L 1269 4134 
L 1269 2991 
Q 1406 3038 1543 3061 
Q 1681 3084 1819 3084 
Q 2600 3084 3056 2656 
Q 3513 2228 3513 1497 
Q 3513 744 3044 326 
Q 2575 -91 1722 -91 
Q 1428 -91 1123 -41 
Q 819 9 494 109 
L 494 744 
Q 775 591 1075 516 
Q 1375 441 1709 441 
Q 2250 441 2565 725 
Q 2881 1009 2881 1497 
Q 2881 1984 2565 2268 
Q 2250 2553 1709 2553 
Q 1456 2553 1204 2497 
Q 953 2441 691 2322 
L 691 4666 
z
" transform="scale(0.015625)"/>
       </defs>
       <use xlink:href="#DejaVuSans-33"/>
       <use xlink:href="#DejaVuSans-35" transform="translate(63.623047 0)"/>
       <use xlink:href="#DejaVuSans-30" transform="translate(127.246094 0)"/>
       <use xlink:href="#DejaVuSans-30" transform="translate(190.869141 0)"/>
      </g>
     </g>
    </g>
    <g id="ytick_3">
     <g id="line2d_10">
      <path d="M 53.328125 167.244685 
L 410.448125 167.244685 
" clip-path="url(#p344aec7476)" style="fill: none; stroke: #cccccc; stroke-width: 0.8; stroke-linecap: round"/>
     </g>
     <g id="text_11">
      <!-- 4000 -->
      <g style="fill: #262626" transform="translate(20.878125 171.043904) scale(0.1 -0.1)">
       <use xlink:href="#DejaVuSans-34"/>
       <use xlink:href="#DejaVuSans-30" transform="translate(63.623047 0)"/>
       <use xlink:href="#DejaVuSans-30" transform="translate(127.246094 0)"/>
       <use xlink:href="#DejaVuSans-30" transform="translate(190.869141 0)"/>
      </g>
     </g>
    </g>
    <g id="ytick_4">
     <g id="line2d_11">
      <path d="M 53.328125 120.953066 
L 410.448125 120.953066 
" clip-path="url(#p344aec7476)" style="fill: none; stroke: #cccccc; stroke-width: 0.8; stroke-linecap: round"/>
     </g>
     <g id="text_12">
      <!-- 4500 -->
      <g style="fill: #262626" transform="translate(20.878125 124.752285) scale(0.1 -0.1)">
       <use xlink:href="#DejaVuSans-34"/>
       <use xlink:href="#DejaVuSans-35" transform="translate(63.623047 0)"/>
       <use xlink:href="#DejaVuSans-30" transform="translate(127.246094 0)"/>
       <use xlink:href="#DejaVuSans-30" transform="translate(190.869141 0)"/>
      </g>
     </g>
    </g>
    <g id="ytick_5">
     <g id="line2d_12">
      <path d="M 53.328125 74.661447 
L 410.448125 74.661447 
" clip-path="url(#p344aec7476)" style="fill: none; stroke: #cccccc; stroke-width: 0.8; stroke-linecap: round"/>
     </g>
     <g id="text_13">
      <!-- 5000 -->
      <g style="fill: #262626" transform="translate(20.878125 78.460666) scale(0.1 -0.1)">
       <use xlink:href="#DejaVuSans-35"/>
       <use xlink:href="#DejaVuSans-30" transform="translate(63.623047 0)"/>
       <use xlink:href="#DejaVuSans-30" transform="translate(127.246094 0)"/>
       <use xlink:href="#DejaVuSans-30" transform="translate(190.869141 0)"/>
      </g>
     </g>
    </g>
    <g id="text_14">
     <!-- IOPS -->
     <g style="fill: #262626" transform="translate(14.798438 180.279725) rotate(-90) scale(0.1 -0.1)">
      <defs>
       <path id="DejaVuSans-50" d="M 1259 4147 
L 1259 2394 
L 2053 2394 
Q 2494 2394 2734 2622 
Q 2975 2850 2975 3272 
Q 2975 3691 2734 3919 
Q 2494 4147 2053 4147 
L 1259 4147 
z
M 628 4666 
L 2053 4666 
Q 2838 4666 3239 4311 
Q 3641 3956 3641 3272 
Q 3641 2581 3239 2228 
Q 2838 1875 2053 1875 
L 1259 1875 
L 1259 0 
L 628 0 
L 628 4666 
z
" transform="scale(0.015625)"/>
       <path id="DejaVuSans-53" d="M 3425 4513 
L 3425 3897 
Q 3066 4069 2747 4153 
Q 2428 4238 2131 4238 
Q 1616 4238 1336 4038 
Q 1056 3838 1056 3469 
Q 1056 3159 1242 3001 
Q 1428 2844 1947 2747 
L 2328 2669 
Q 3034 2534 3370 2195 
Q 3706 1856 3706 1288 
Q 3706 609 3251 259 
Q 2797 -91 1919 -91 
Q 1588 -91 1214 -16 
Q 841 59 441 206 
L 441 856 
Q 825 641 1194 531 
Q 1563 422 1919 422 
Q 2459 422 2753 634 
Q 3047 847 3047 1241 
Q 3047 1584 2836 1778 
Q 2625 1972 2144 2069 
L 1759 2144 
Q 1053 2284 737 2584 
Q 422 2884 422 3419 
Q 422 4038 858 4394 
Q 1294 4750 2059 4750 
Q 2388 4750 2728 4690 
Q 3069 4631 3425 4513 
z
" transform="scale(0.015625)"/>
      </defs>
      <use xlink:href="#DejaVuSans-49"/>
      <use xlink:href="#DejaVuSans-4f" transform="translate(29.492188 0)"/>
      <use xlink:href="#DejaVuSans-50" transform="translate(108.203125 0)"/>
      <use xlink:href="#DejaVuSans-53" transform="translate(168.505859 0)"/>
     </g>
    </g>
   </g>
   <g id="FillBetweenPolyCollection_1"/>
   <g id="FillBetweenPolyCollection_2"/>
   <g id="FillBetweenPolyCollection_3"/>
   <g id="FillBetweenPolyCollection_4"/>
   <g id="line2d_13">
    <path d="M 69.560852 136.321883 
L 77.229857 47.719725 
L 87.455197 117.157153 
L 107.905877 125.859978 
L 148.807237 56.329966 
L 230.609957 153.727532 
L 394.215398 112.527991 
" clip-path="url(#p344aec7476)" style="fill: none; stroke: #3b0f70; stroke-width: 1.5; stroke-linecap: round"/>
   </g>
   <g id="line2d_14">
    <path d="M 69.560852 166.689185 
L 77.229857 57.255798 
L 87.455197 202.426315 
L 107.905877 134.933135 
L 148.807237 148.542871 
L 230.609957 100.862503 
L 394.215398 222.702044 
" clip-path="url(#p344aec7476)" style="fill: none; stroke: #8c2981; stroke-width: 1.5; stroke-linecap: round"/>
   </g>
   <g id="line2d_15">
    <path d="M 69.560852 273.993158 
L 77.229857 202.518898 
L 87.455197 246.218187 
L 107.905877 266.308749 
L 148.807237 248.162435 
L 230.609957 256.957842 
L 394.215398 261.494421 
" clip-path="url(#p344aec7476)" style="fill: none; stroke: #de4968; stroke-width: 1.5; stroke-linecap: round"/>
   </g>
   <g id="line2d_16">
    <path d="M 69.560852 261.864754 
L 77.229857 185.483583 
L 87.455197 289.639725 
L 107.905877 255.75426 
L 148.807237 178.632423 
L 230.609957 211.129139 
L 394.215398 238.348611 
" clip-path="url(#p344aec7476)" style="fill: none; stroke: #fe9f6d; stroke-width: 1.5; stroke-linecap: round"/>
   </g>
   <g id="line2d_17"/>
   <g id="line2d_18"/>
   <g id="line2d_19"/>
   <g id="line2d_20"/>
   <g id="text_15">
    <path d="M 134.532017 84.402883 
L 135.348815 83.014373 
L 130.554347 80.194004 
L 129.968476 81.883323 
L 129.194089 81.427786 
L 129.775206 79.746547 
L 130.275108 78.896741 
L 135.843964 82.172647 
L 136.660762 80.784137 
L 137.375892 81.204815 
L 135.247147 84.823562 
L 134.532017 84.402883 
z
M 136.037975 75.516199 
Q 135.701274 76.088572 135.895914 76.654457 
Q 136.09 77.218203 136.771461 77.619075 
Q 137.448881 78.017571 138.039957 77.9157 
Q 138.630479 77.81169 138.96718 77.239317 
Q 139.303881 76.666944 139.107102 76.101614 
Q 138.908977 75.535491 138.231556 75.136995 
Q 137.550095 74.736122 136.963059 74.84037 
Q 136.374677 74.943825 136.037975 75.516199 
z
M 134.365411 72.260867 
L 135.139798 72.716405 
Q 134.800408 72.948203 134.529228 73.227377 
Q 134.2567 73.505759 134.068147 73.826288 
Q 133.572998 74.668013 133.879893 75.446769 
Q 134.187579 76.224178 135.299131 76.963255 
Q 135.078584 76.499962 135.103546 76.010688 
Q 135.1293 75.520067 135.393908 75.070249 
Q 135.950852 74.123476 136.849152 73.912284 
Q 137.746105 73.700299 138.734627 74.281802 
Q 139.702948 74.851421 139.952088 75.768418 
Q 140.199881 76.684623 139.64056 77.635436 
Q 138.998847 78.726313 137.824778 78.811538 
Q 136.649361 78.895972 135.062877 77.962715 
Q 133.57336 77.086499 133.103116 75.858157 
Q 132.632873 74.629815 133.333212 73.439278 
Q 133.521764 73.118749 133.776784 72.830068 
Q 134.031803 72.541387 134.365411 72.260867 
z
" clip-path="url(#p344aec7476)" style="fill: #3b0f70; stroke: #ffffff; stroke-width: 5"/>
    <path d="M 134.532017 84.402883 
L 135.348815 83.014373 
L 130.554347 80.194004 
L 129.968476 81.883323 
L 129.194089 81.427786 
L 129.775206 79.746547 
L 130.275108 78.896741 
L 135.843964 82.172647 
L 136.660762 80.784137 
L 137.375892 81.204815 
L 135.247147 84.823562 
L 134.532017 84.402883 
z
M 136.037975 75.516199 
Q 135.701274 76.088572 135.895914 76.654457 
Q 136.09 77.218203 136.771461 77.619075 
Q 137.448881 78.017571 138.039957 77.9157 
Q 138.630479 77.81169 138.96718 77.239317 
Q 139.303881 76.666944 139.107102 76.101614 
Q 138.908977 75.535491 138.231556 75.136995 
Q 137.550095 74.736122 136.963059 74.84037 
Q 136.374677 74.943825 136.037975 75.516199 
z
M 134.365411 72.260867 
L 135.139798 72.716405 
Q 134.800408 72.948203 134.529228 73.227377 
Q 134.2567 73.505759 134.068147 73.826288 
Q 133.572998 74.668013 133.879893 75.446769 
Q 134.187579 76.224178 135.299131 76.963255 
Q 135.078584 76.499962 135.103546 76.010688 
Q 135.1293 75.520067 135.393908 75.070249 
Q 135.950852 74.123476 136.849152 73.912284 
Q 137.746105 73.700299 138.734627 74.281802 
Q 139.702948 74.851421 139.952088 75.768418 
Q 140.199881 76.684623 139.64056 77.635436 
Q 138.998847 78.726313 137.824778 78.811538 
Q 136.649361 78.895972 135.062877 77.962715 
Q 133.57336 77.086499 133.103116 75.858157 
Q 132.632873 74.629815 133.333212 73.439278 
Q 133.521764 73.118749 133.776784 72.830068 
Q 134.031803 72.541387 134.365411 72.260867 
z
" clip-path="url(#p344aec7476)" style="fill: #3b0f70"/>
   </g>
   <g id="text_16">
    <path d="M 197.166059 118.999544 
Q 197.853899 118.774052 198.438338 118.988624 
Q 199.023339 119.20106 199.377414 119.808527 
Q 199.920328 120.739976 199.577322 121.625343 
Q 199.233529 122.509361 198.052344 123.197839 
Q 197.656815 123.428381 197.191352 123.59479 
Q 196.725888 123.761199 196.18779 123.865048 
L 195.708609 123.042943 
Q 196.182676 123.043332 196.665226 122.903135 
Q 197.149125 122.762151 197.60945 122.493841 
Q 198.409957 122.027249 198.645665 121.466662 
Q 198.881374 120.906074 198.52966 120.302657 
Q 198.204698 119.745138 197.632025 119.659349 
Q 197.058564 119.572211 196.363352 119.977429 
L 195.628992 120.405466 
L 195.220626 119.704854 
L 195.988734 119.257146 
Q 196.61645 118.891269 196.803531 118.445836 
Q 196.990612 118.000402 196.715221 117.527927 
Q 196.432748 117.043304 195.937445 116.98476 
Q 195.442705 116.92408 194.80149 117.297825 
Q 194.450509 117.502401 194.094431 117.813036 
Q 193.737565 118.122321 193.349837 118.561724 
L 192.907638 117.803066 
Q 193.314928 117.384814 193.699463 117.070252 
Q 194.083999 116.75569 194.459278 116.536951 
Q 195.429876 115.971219 196.251439 116.083749 
Q 197.073565 116.194143 197.511044 116.944702 
Q 197.816335 117.468473 197.726735 118.00358 
Q 197.637136 118.538688 197.166059 118.999544 
z
M 202.376604 119.55244 
L 205.350492 117.819049 
L 205.7683 118.53586 
L 201.769817 120.866456 
L 201.352009 120.149645 
Q 201.543931 119.365 201.888329 118.03211 
Q 202.23329 116.697084 202.304725 116.326291 
Q 202.44623 115.628906 202.422528 115.215903 
Q 202.400177 114.802114 202.22078 114.494331 
Q 201.928078 113.992158 201.391629 113.881638 
Q 200.854392 113.769769 200.288773 114.099451 
Q 199.887845 114.33314 199.523413 114.731837 
Q 199.160331 115.129747 198.819343 115.708294 
L 198.317344 114.847041 
Q 198.711281 114.340719 199.096734 113.974983 
Q 199.483536 113.608461 199.854766 113.392082 
Q 200.833463 112.821629 201.700901 112.972528 
Q 202.567553 113.122077 203.044373 113.940132 
Q 203.270981 114.328911 203.328191 114.76217 
Q 203.385965 115.193292 203.276627 115.890013 
Q 203.242934 116.07423 203.018013 116.98843 
Q 202.794442 117.901844 202.376604 119.55244 
z
" clip-path="url(#p344aec7476)" style="fill: #8c2981; stroke: #ffffff; stroke-width: 5"/>
    <path d="M 197.166059 118.999544 
Q 197.853899 118.774052 198.438338 118.988624 
Q 199.023339 119.20106 199.377414 119.808527 
Q 199.920328 120.739976 199.577322 121.625343 
Q 199.233529 122.509361 198.052344 123.197839 
Q 197.656815 123.428381 197.191352 123.59479 
Q 196.725888 123.761199 196.18779 123.865048 
L 195.708609 123.042943 
Q 196.182676 123.043332 196.665226 122.903135 
Q 197.149125 122.762151 197.60945 122.493841 
Q 198.409957 122.027249 198.645665 121.466662 
Q 198.881374 120.906074 198.52966 120.302657 
Q 198.204698 119.745138 197.632025 119.659349 
Q 197.058564 119.572211 196.363352 119.977429 
L 195.628992 120.405466 
L 195.220626 119.704854 
L 195.988734 119.257146 
Q 196.61645 118.891269 196.803531 118.445836 
Q 196.990612 118.000402 196.715221 117.527927 
Q 196.432748 117.043304 195.937445 116.98476 
Q 195.442705 116.92408 194.80149 117.297825 
Q 194.450509 117.502401 194.094431 117.813036 
Q 193.737565 118.122321 193.349837 118.561724 
L 192.907638 117.803066 
Q 193.314928 117.384814 193.699463 117.070252 
Q 194.083999 116.75569 194.459278 116.536951 
Q 195.429876 115.971219 196.251439 116.083749 
Q 197.073565 116.194143 197.511044 116.944702 
Q 197.816335 117.468473 197.726735 118.00358 
Q 197.637136 118.538688 197.166059 118.999544 
z
M 202.376604 119.55244 
L 205.350492 117.819049 
L 205.7683 118.53586 
L 201.769817 120.866456 
L 201.352009 120.149645 
Q 201.543931 119.365 201.888329 118.03211 
Q 202.23329 116.697084 202.304725 116.326291 
Q 202.44623 115.628906 202.422528 115.215903 
Q 202.400177 114.802114 202.22078 114.494331 
Q 201.928078 113.992158 201.391629 113.881638 
Q 200.854392 113.769769 200.288773 114.099451 
Q 199.887845 114.33314 199.523413 114.731837 
Q 199.160331 115.129747 198.819343 115.708294 
L 198.317344 114.847041 
Q 198.711281 114.340719 199.096734 113.974983 
Q 199.483536 113.608461 199.854766 113.392082 
Q 200.833463 112.821629 201.700901 112.972528 
Q 202.567553 113.122077 203.044373 113.940132 
Q 203.270981 114.328911 203.328191 114.76217 
Q 203.385965 115.193292 203.276627 115.890013 
Q 203.242934 116.07423 203.018013 116.98843 
Q 202.794442 117.901844 202.376604 119.55244 
z
" clip-path="url(#p344aec7476)" style="fill: #8c2981"/>
   </g>
   <g id="text_17">
    <path d="M 261.004591 256.522032 
Q 260.340783 256.503625 259.939267 256.947354 
Q 259.539356 257.389564 259.517442 258.179885 
Q 259.495657 258.965521 259.870319 259.433898 
Q 260.246585 259.900757 260.910392 259.919164 
Q 261.5742 259.93757 261.974197 259.492236 
Q 262.374238 259.04534 262.396023 258.259705 
Q 262.417938 257.469384 262.043146 257.005692 
Q 261.668398 256.540438 261.004591 256.522032 
z
M 263.047361 253.485299 
L 263.022458 254.383392 
Q 262.655576 254.198151 262.280152 254.095518 
Q 261.904771 253.991323 261.533039 253.981016 
Q 260.556851 253.953947 260.023148 254.598777 
Q 259.491006 255.243649 259.380654 256.573914 
Q 259.679824 256.157047 260.120311 255.942611 
Q 260.562361 255.728219 261.084036 255.742684 
Q 262.182051 255.773131 262.800813 256.457733 
Q 263.419618 257.140772 263.387829 258.287206 
Q 263.35669 259.410212 262.674043 260.071232 
Q 261.991439 260.73069 260.888738 260.700113 
Q 259.623599 260.665033 258.981958 259.678118 
Q 258.34036 258.689642 258.391379 256.849724 
Q 258.439279 255.122263 259.287774 254.117271 
Q 260.136269 253.112278 261.516988 253.150564 
Q 261.888721 253.160872 262.264665 253.244762 
Q 262.640609 253.328652 263.047361 253.485299 
z
M 267.908743 254.318805 
L 265.31119 258.140462 
L 267.800858 258.209497 
L 267.908743 254.318805 
z
M 267.673287 253.452571 
L 268.913436 253.486959 
L 268.781731 258.236696 
L 269.821957 258.26554 
L 269.799219 259.085537 
L 268.758994 259.056693 
L 268.711353 260.774783 
L 267.73048 260.747584 
L 267.778121 259.029495 
L 264.48876 258.938285 
L 264.515136 257.987088 
L 267.673287 253.452571 
z
" clip-path="url(#p344aec7476)" style="fill: #de4968; stroke: #ffffff; stroke-width: 5"/>
    <path d="M 261.004591 256.522032 
Q 260.340783 256.503625 259.939267 256.947354 
Q 259.539356 257.389564 259.517442 258.179885 
Q 259.495657 258.965521 259.870319 259.433898 
Q 260.246585 259.900757 260.910392 259.919164 
Q 261.5742 259.93757 261.974197 259.492236 
Q 262.374238 259.04534 262.396023 258.259705 
Q 262.417938 257.469384 262.043146 257.005692 
Q 261.668398 256.540438 261.004591 256.522032 
z
M 263.047361 253.485299 
L 263.022458 254.383392 
Q 262.655576 254.198151 262.280152 254.095518 
Q 261.904771 253.991323 261.533039 253.981016 
Q 260.556851 253.953947 260.023148 254.598777 
Q 259.491006 255.243649 259.380654 256.573914 
Q 259.679824 256.157047 260.120311 255.942611 
Q 260.562361 255.728219 261.084036 255.742684 
Q 262.182051 255.773131 262.800813 256.457733 
Q 263.419618 257.140772 263.387829 258.287206 
Q 263.35669 259.410212 262.674043 260.071232 
Q 261.991439 260.73069 260.888738 260.700113 
Q 259.623599 260.665033 258.981958 259.678118 
Q 258.34036 258.689642 258.391379 256.849724 
Q 258.439279 255.122263 259.287774 254.117271 
Q 260.136269 253.112278 261.516988 253.150564 
Q 261.888721 253.160872 262.264665 253.244762 
Q 262.640609 253.328652 263.047361 253.485299 
z
M 267.908743 254.318805 
L 265.31119 258.140462 
L 267.800858 258.209497 
L 267.908743 254.318805 
z
M 267.673287 253.452571 
L 268.913436 253.486959 
L 268.781731 258.236696 
L 269.821957 258.26554 
L 269.799219 259.085537 
L 268.758994 259.056693 
L 268.711353 260.774783 
L 267.73048 260.747584 
L 267.778121 259.029495 
L 264.48876 258.938285 
L 264.515136 257.987088 
L 267.673287 253.452571 
z
" clip-path="url(#p344aec7476)" style="fill: #de4968"/>
   </g>
   <g id="text_18">
    <path d="M 319.803289 227.924683 
L 321.392383 228.189065 
L 322.305283 222.701987 
L 320.518231 222.761066 
L 320.66568 221.87481 
L 322.443484 221.814193 
L 323.416053 221.976002 
L 322.355705 228.349335 
L 323.944799 228.613717 
L 323.808634 229.432155 
L 319.667123 228.743121 
L 319.803289 227.924683 
z
M 326.748257 229.080136 
L 330.143771 229.645056 
L 330.007605 230.463494 
L 325.442234 229.703941 
L 325.578399 228.885503 
Q 326.227124 228.404194 327.343265 227.59832 
Q 328.461204 226.79116 328.752944 226.551414 
Q 329.307149 226.105066 329.552625 225.772088 
Q 329.799642 225.439366 329.858109 225.087947 
Q 329.953501 224.514578 329.611224 224.086982 
Q 329.269202 223.657844 328.623392 223.550399 
Q 328.165622 223.474238 327.630576 223.548371 
Q 327.097071 223.62276 326.465227 223.850274 
L 326.628831 222.866915 
Q 327.255306 222.728795 327.785482 222.693452 
Q 328.3172 222.658365 328.741062 222.728884 
Q 329.858514 222.914797 330.429736 223.584817 
Q 331.001213 224.253295 330.845815 225.187331 
Q 330.771963 225.631229 330.539341 226.001194 
Q 330.308518 226.369873 329.779492 226.83625 
Q 329.635934 226.956508 328.879088 227.516451 
Q 328.123784 228.076651 326.748257 229.080136 
z
M 334.698682 227.733867 
Q 334.005091 227.618473 333.545631 227.92377 
Q 333.087714 228.229323 332.979755 228.878217 
Q 332.871541 229.528651 333.205858 229.966011 
Q 333.541717 230.403627 334.235308 230.519022 
Q 334.9289 230.634416 335.390157 230.327834 
Q 335.853211 230.019967 335.960657 229.374157 
Q 336.068615 228.725264 335.732756 228.287648 
Q 335.398439 227.850288 334.698682 227.733867 
z
M 333.794837 227.158986 
Q 333.194707 226.900743 332.916117 226.414048 
Q 332.639324 225.926068 332.741897 225.309542 
Q 332.885243 224.447948 333.582027 224.049081 
Q 334.280351 223.65047 335.348482 223.828178 
Q 336.422778 224.006911 336.951339 224.609642 
Q 337.4799 225.212373 337.336554 226.073967 
Q 337.233981 226.690493 336.812558 227.062309 
Q 336.392933 227.432841 335.74614 227.48363 
Q 336.421798 227.763942 336.733797 228.306884 
Q 337.047595 228.84854 336.933226 229.535966 
Q 336.759108 230.582518 336.027919 231.035852 
Q 335.296987 231.487645 334.107092 231.289679 
Q 332.918739 231.091969 332.371922 230.427594 
Q 331.826903 229.761934 332.001021 228.715382 
Q 332.11539 228.027956 332.589204 227.617337 
Q 333.064816 227.205432 333.794837 227.158986 
z
M 333.694456 225.56306 
Q 333.601628 226.121016 333.897909 226.491857 
Q 334.195732 226.862953 334.826129 226.967834 
Q 335.453444 227.072202 335.85846 226.818039 
Q 336.265018 226.564131 336.357847 226.006176 
Q 336.450932 225.446679 336.148486 225.074813 
Q 335.84758 224.703203 335.220266 224.598835 
Q 334.589868 224.493954 334.187934 224.748631 
Q 333.787541 225.003564 333.694456 225.56306 
z
" clip-path="url(#p344aec7476)" style="fill: #fe9f6d; stroke: #ffffff; stroke-width: 5"/>
    <path d="M 319.803289 227.924683 
L 321.392383 228.189065 
L 322.305283 222.701987 
L 320.518231 222.761066 
L 320.66568 221.87481 
L 322.443484 221.814193 
L 323.416053 221.976002 
L 322.355705 228.349335 
L 323.944799 228.613717 
L 323.808634 229.432155 
L 319.667123 228.743121 
L 319.803289 227.924683 
z
M 326.748257 229.080136 
L 330.143771 229.645056 
L 330.007605 230.463494 
L 325.442234 229.703941 
L 325.578399 228.885503 
Q 326.227124 228.404194 327.343265 227.59832 
Q 328.461204 226.79116 328.752944 226.551414 
Q 329.307149 226.105066 329.552625 225.772088 
Q 329.799642 225.439366 329.858109 225.087947 
Q 329.953501 224.514578 329.611224 224.086982 
Q 329.269202 223.657844 328.623392 223.550399 
Q 328.165622 223.474238 327.630576 223.548371 
Q 327.097071 223.62276 326.465227 223.850274 
L 326.628831 222.866915 
Q 327.255306 222.728795 327.785482 222.693452 
Q 328.3172 222.658365 328.741062 222.728884 
Q 329.858514 222.914797 330.429736 223.584817 
Q 331.001213 224.253295 330.845815 225.187331 
Q 330.771963 225.631229 330.539341 226.001194 
Q 330.308518 226.369873 329.779492 226.83625 
Q 329.635934 226.956508 328.879088 227.516451 
Q 328.123784 228.076651 326.748257 229.080136 
z
M 334.698682 227.733867 
Q 334.005091 227.618473 333.545631 227.92377 
Q 333.087714 228.229323 332.979755 228.878217 
Q 332.871541 229.528651 333.205858 229.966011 
Q 333.541717 230.403627 334.235308 230.519022 
Q 334.9289 230.634416 335.390157 230.327834 
Q 335.853211 230.019967 335.960657 229.374157 
Q 336.068615 228.725264 335.732756 228.287648 
Q 335.398439 227.850288 334.698682 227.733867 
z
M 333.794837 227.158986 
Q 333.194707 226.900743 332.916117 226.414048 
Q 332.639324 225.926068 332.741897 225.309542 
Q 332.885243 224.447948 333.582027 224.049081 
Q 334.280351 223.65047 335.348482 223.828178 
Q 336.422778 224.006911 336.951339 224.609642 
Q 337.4799 225.212373 337.336554 226.073967 
Q 337.233981 226.690493 336.812558 227.062309 
Q 336.392933 227.432841 335.74614 227.48363 
Q 336.421798 227.763942 336.733797 228.306884 
Q 337.047595 228.84854 336.933226 229.535966 
Q 336.759108 230.582518 336.027919 231.035852 
Q 335.296987 231.487645 334.107092 231.289679 
Q 332.918739 231.091969 332.371922 230.427594 
Q 331.826903 229.761934 332.001021 228.715382 
Q 332.11539 228.027956 332.589204 227.617337 
Q 333.064816 227.205432 333.794837 227.158986 
z
M 333.694456 225.56306 
Q 333.601628 226.121016 333.897909 226.491857 
Q 334.195732 226.862953 334.826129 226.967834 
Q 335.453444 227.072202 335.85846 226.818039 
Q 336.265018 226.564131 336.357847 226.006176 
Q 336.450932 225.446679 336.148486 225.074813 
Q 335.84758 224.703203 335.220266 224.598835 
Q 334.589868 224.493954 334.187934 224.748631 
Q 333.787541 225.003564 333.694456 225.56306 
z
" clip-path="url(#p344aec7476)" style="fill: #fe9f6d"/>
   </g>
   <g id="patch_3">
    <path d="M 53.328125 301.735725 
L 53.328125 35.623725 
" style="fill: none; stroke: #cccccc; stroke-width: 0.8; stroke-linejoin: miter; stroke-linecap: square"/>
   </g>
   <g id="patch_4">
    <path d="M 410.448125 301.735725 
L 410.448125 35.623725 
" style="fill: none; stroke: #cccccc; stroke-width: 0.8; stroke-linejoin: miter; stroke-linecap: square"/>
   </g>
   <g id="patch_5">
    <path d="M 53.328125 301.735725 
L 410.448125 301.735725 
" style="fill: none; stroke: #cccccc; stroke-width: 0.8; stroke-linejoin: miter; stroke-linecap: square"/>
   </g>
   <g id="patch_6">
    <path d="M 53.328125 35.623725 
L 410.448125 35.623725 
" style="fill: none; stroke: #cccccc; stroke-width: 0.8; stroke-linejoin: miter; stroke-linecap: square"/>
   </g>
   <g id="text_19">
    <!-- Block Size = 1M, Read-Write Type = Sequential Balanced 1:1 -->
    <g style="fill: #262626; opacity: 0.75" transform="translate(79.679531 30.882918) scale(0.1 -0.1)">
     <defs>
      <path id="DejaVuSans-42" d="M 1259 2228 
L 1259 519 
L 2272 519 
Q 2781 519 3026 730 
Q 3272 941 3272 1375 
Q 3272 1813 3026 2020 
Q 2781 2228 2272 2228 
L 1259 2228 
z
M 1259 4147 
L 1259 2741 
L 2194 2741 
Q 2656 2741 2882 2914 
Q 3109 3088 3109 3444 
Q 3109 3797 2882 3972 
Q 2656 4147 2194 4147 
L 1259 4147 
z
M 628 4666 
L 2241 4666 
Q 2963 4666 3353 4366 
Q 3744 4066 3744 3513 
Q 3744 3084 3544 2831 
Q 3344 2578 2956 2516 
Q 3422 2416 3680 2098 
Q 3938 1781 3938 1306 
Q 3938 681 3513 340 
Q 3088 0 2303 0 
L 628 0 
L 628 4666 
z
" transform="scale(0.015625)"/>
      <path id="DejaVuSans-6c" d="M 603 4863 
L 1178 4863 
L 1178 0 
L 603 0 
L 603 4863 
z
" transform="scale(0.015625)"/>
      <path id="DejaVuSans-6f" d="M 1959 3097 
Q 1497 3097 1228 2736 
Q 959 2375 959 1747 
Q 959 1119 1226 758 
Q 1494 397 1959 397 
Q 2419 397 2687 759 
Q 2956 1122 2956 1747 
Q 2956 2369 2687 2733 
Q 2419 3097 1959 3097 
z
M 1959 3584 
Q 2709 3584 3137 3096 
Q 3566 2609 3566 1747 
Q 3566 888 3137 398 
Q 2709 -91 1959 -91 
Q 1206 -91 779 398 
Q 353 888 353 1747 
Q 353 2609 779 3096 
Q 1206 3584 1959 3584 
z
" transform="scale(0.015625)"/>
      <path id="DejaVuSans-63" d="M 3122 3366 
L 3122 2828 
Q 2878 2963 2633 3030 
Q 2388 3097 2138 3097 
Q 1578 3097 1268 2742 
Q 959 2388 959 1747 
Q 959 1106 1268 751 
Q 1578 397 2138 397 
Q 2388 397 2633 464 
Q 2878 531 3122 666 
L 3122 134 
Q 2881 22 2623 -34 
Q 2366 -91 2075 -91 
Q 1284 -91 818 406 
Q 353 903 353 1747 
Q 353 2603 823 3093 
Q 1294 3584 2113 3584 
Q 2378 3584 2631 3529 
Q 2884 3475 3122 3366 
z
" transform="scale(0.015625)"/>
      <path id="DejaVuSans-6b" d="M 581 4863 
L 1159 4863 
L 1159 1991 
L 2875 3500 
L 3609 3500 
L 1753 1863 
L 3688 0 
L 2938 0 
L 1159 1709 
L 1159 0 
L 581 0 
L 581 4863 
z
" transform="scale(0.015625)"/>
      <path id="DejaVuSans-69" d="M 603 3500 
L 1178 3500 
L 1178 0 
L 603 0 
L 603 3500 
z
M 603 4863 
L 1178 4863 
L 1178 4134 
L 603 4134 
L 603 4863 
z
" transform="scale(0.015625)"/>
      <path id="DejaVuSans-7a" d="M 353 3500 
L 3084 3500 
L 3084 2975 
L 922 459 
L 3084 459 
L 3084 0 
L 275 0 
L 275 525 
L 2438 3041 
L 353 3041 
L 353 3500 
z
" transform="scale(0.015625)"/>
      <path id="DejaVuSans-3d" d="M 678 2906 
L 4684 2906 
L 4684 2381 
L 678 2381 
L 678 2906 
z
M 678 1631 
L 4684 1631 
L 4684 1100 
L 678 1100 
L 678 1631 
z
" transform="scale(0.015625)"/>
      <path id="DejaVuSans-4d" d="M 628 4666 
L 1569 4666 
L 2759 1491 
L 3956 4666 
L 4897 4666 
L 4897 0 
L 4281 0 
L 4281 4097 
L 3078 897 
L 2444 897 
L 1241 4097 
L 1241 0 
L 628 0 
L 628 4666 
z
" transform="scale(0.015625)"/>
      <path id="DejaVuSans-2c" d="M 750 794 
L 1409 794 
L 1409 256 
L 897 -744 
L 494 -744 
L 750 256 
L 750 794 
z
" transform="scale(0.015625)"/>
      <path id="DejaVuSans-52" d="M 2841 2188 
Q 3044 2119 3236 1894 
Q 3428 1669 3622 1275 
L 4263 0 
L 3584 0 
L 2988 1197 
Q 2756 1666 2539 1819 
Q 2322 1972 1947 1972 
L 1259 1972 
L 1259 0 
L 628 0 
L 628 4666 
L 2053 4666 
Q 2853 4666 3247 4331 
Q 3641 3997 3641 3322 
Q 3641 2881 3436 2590 
Q 3231 2300 2841 2188 
z
M 1259 4147 
L 1259 2491 
L 2053 2491 
Q 2509 2491 2742 2702 
Q 2975 2913 2975 3322 
Q 2975 3731 2742 3939 
Q 2509 4147 2053 4147 
L 1259 4147 
z
" transform="scale(0.015625)"/>
      <path id="DejaVuSans-61" d="M 2194 1759 
Q 1497 1759 1228 1600 
Q 959 1441 959 1056 
Q 959 750 1161 570 
Q 1363 391 1709 391 
Q 2188 391 2477 730 
Q 2766 1069 2766 1631 
L 2766 1759 
L 2194 1759 
z
M 3341 1997 
L 3341 0 
L 2766 0 
L 2766 531 
Q 2569 213 2275 61 
Q 1981 -91 1556 -91 
Q 1019 -91 701 211 
Q 384 513 384 1019 
Q 384 1609 779 1909 
Q 1175 2209 1959 2209 
L 2766 2209 
L 2766 2266 
Q 2766 2663 2505 2880 
Q 2244 3097 1772 3097 
Q 1472 3097 1187 3025 
Q 903 2953 641 2809 
L 641 3341 
Q 956 3463 1253 3523 
Q 1550 3584 1831 3584 
Q 2591 3584 2966 3190 
Q 3341 2797 3341 1997 
z
" transform="scale(0.015625)"/>
      <path id="DejaVuSans-64" d="M 2906 2969 
L 2906 4863 
L 3481 4863 
L 3481 0 
L 2906 0 
L 2906 525 
Q 2725 213 2448 61 
Q 2172 -91 1784 -91 
Q 1150 -91 751 415 
Q 353 922 353 1747 
Q 353 2572 751 3078 
Q 1150 3584 1784 3584 
Q 2172 3584 2448 3432 
Q 2725 3281 2906 2969 
z
M 947 1747 
Q 947 1113 1208 752 
Q 1469 391 1925 391 
Q 2381 391 2643 752 
Q 2906 1113 2906 1747 
Q 2906 2381 2643 2742 
Q 2381 3103 1925 3103 
Q 1469 3103 1208 2742 
Q 947 2381 947 1747 
z
" transform="scale(0.015625)"/>
      <path id="DejaVuSans-2d" d="M 313 2009 
L 1997 2009 
L 1997 1497 
L 313 1497 
L 313 2009 
z
" transform="scale(0.015625)"/>
      <path id="DejaVuSans-57" d="M 213 4666 
L 850 4666 
L 1831 722 
L 2809 4666 
L 3519 4666 
L 4500 722 
L 5478 4666 
L 6119 4666 
L 4947 0 
L 4153 0 
L 3169 4050 
L 2175 0 
L 1381 0 
L 213 4666 
z
" transform="scale(0.015625)"/>
      <path id="DejaVuSans-72" d="M 2631 2963 
Q 2534 3019 2420 3045 
Q 2306 3072 2169 3072 
Q 1681 3072 1420 2755 
Q 1159 2438 1159 1844 
L 1159 0 
L 581 0 
L 581 3500 
L 1159 3500 
L 1159 2956 
Q 1341 3275 1631 3429 
Q 1922 3584 2338 3584 
Q 2397 3584 2469 3576 
Q 2541 3569 2628 3553 
L 2631 2963 
z
" transform="scale(0.015625)"/>
      <path id="DejaVuSans-54" d="M -19 4666 
L 3928 4666 
L 3928 4134 
L 2272 4134 
L 2272 0 
L 1638 0 
L 1638 4134 
L -19 4134 
L -19 4666 
z
" transform="scale(0.015625)"/>
      <path id="DejaVuSans-79" d="M 2059 -325 
Q 1816 -950 1584 -1140 
Q 1353 -1331 966 -1331 
L 506 -1331 
L 506 -850 
L 844 -850 
Q 1081 -850 1212 -737 
Q 1344 -625 1503 -206 
L 1606 56 
L 191 3500 
L 800 3500 
L 1894 763 
L 2988 3500 
L 3597 3500 
L 2059 -325 
z
" transform="scale(0.015625)"/>
      <path id="DejaVuSans-71" d="M 947 1747 
Q 947 1113 1208 752 
Q 1469 391 1925 391 
Q 2381 391 2643 752 
Q 2906 1113 2906 1747 
Q 2906 2381 2643 2742 
Q 2381 3103 1925 3103 
Q 1469 3103 1208 2742 
Q 947 2381 947 1747 
z
M 2906 525 
Q 2725 213 2448 61 
Q 2172 -91 1784 -91 
Q 1150 -91 751 415 
Q 353 922 353 1747 
Q 353 2572 751 3078 
Q 1150 3584 1784 3584 
Q 2172 3584 2448 3432 
Q 2725 3281 2906 2969 
L 2906 3500 
L 3481 3500 
L 3481 -1331 
L 2906 -1331 
L 2906 525 
z
" transform="scale(0.015625)"/>
      <path id="DejaVuSans-75" d="M 544 1381 
L 544 3500 
L 1119 3500 
L 1119 1403 
Q 1119 906 1312 657 
Q 1506 409 1894 409 
Q 2359 409 2629 706 
Q 2900 1003 2900 1516 
L 2900 3500 
L 3475 3500 
L 3475 0 
L 2900 0 
L 2900 538 
Q 2691 219 2414 64 
Q 2138 -91 1772 -91 
Q 1169 -91 856 284 
Q 544 659 544 1381 
z
M 1991 3584 
L 1991 3584 
z
" transform="scale(0.015625)"/>
      <path id="DejaVuSans-6e" d="M 3513 2113 
L 3513 0 
L 2938 0 
L 2938 2094 
Q 2938 2591 2744 2837 
Q 2550 3084 2163 3084 
Q 1697 3084 1428 2787 
Q 1159 2491 1159 1978 
L 1159 0 
L 581 0 
L 581 3500 
L 1159 3500 
L 1159 2956 
Q 1366 3272 1645 3428 
Q 1925 3584 2291 3584 
Q 2894 3584 3203 3211 
Q 3513 2838 3513 2113 
z
" transform="scale(0.015625)"/>
      <path id="DejaVuSans-3a" d="M 750 794 
L 1409 794 
L 1409 0 
L 750 0 
L 750 794 
z
M 750 3309 
L 1409 3309 
L 1409 2516 
L 750 2516 
L 750 3309 
z
" transform="scale(0.015625)"/>
     </defs>
     <use xlink:href="#DejaVuSans-42"/>
     <use xlink:href="#DejaVuSans-6c" transform="translate(68.603516 0)"/>
     <use xlink:href="#DejaVuSans-6f" transform="translate(96.386719 0)"/>
     <use xlink:href="#DejaVuSans-63" transform="translate(157.568359 0)"/>
     <use xlink:href="#DejaVuSans-6b" transform="translate(212.548828 0)"/>
     <use xlink:href="#DejaVuSans-20" transform="translate(270.458984 0)"/>
     <use xlink:href="#DejaVuSans-53" transform="translate(302.246094 0)"/>
     <use xlink:href="#DejaVuSans-69" transform="translate(365.722656 0)"/>
     <use xlink:href="#DejaVuSans-7a" transform="translate(393.505859 0)"/>
     <use xlink:href="#DejaVuSans-65" transform="translate(445.996094 0)"/>
     <use xlink:href="#DejaVuSans-20" transform="translate(507.519531 0)"/>
     <use xlink:href="#DejaVuSans-3d" transform="translate(539.306641 0)"/>
     <use xlink:href="#DejaVuSans-20" transform="translate(623.095703 0)"/>
     <use xlink:href="#DejaVuSans-31" transform="translate(654.882812 0)"/>
     <use xlink:href="#DejaVuSans-4d" transform="translate(718.505859 0)"/>
     <use xlink:href="#DejaVuSans-2c" transform="translate(804.785156 0)"/>
     <use xlink:href="#DejaVuSans-20" transform="translate(836.572266 0)"/>
     <use xlink:href="#DejaVuSans-52" transform="translate(868.359375 0)"/>
     <use xlink:href="#DejaVuSans-65" transform="translate(933.341797 0)"/>
     <use xlink:href="#DejaVuSans-61" transform="translate(994.865234 0)"/>
     <use xlink:href="#DejaVuSans-64" transform="translate(1056.144531 0)"/>
     <use xlink:href="#DejaVuSans-2d" transform="translate(1119.621094 0)"/>
     <use xlink:href="#DejaVuSans-57" transform="translate(1151.705078 0)"/>
     <use xlink:href="#DejaVuSans-72" transform="translate(1246.082031 0)"/>
     <use xlink:href="#DejaVuSans-69" transform="translate(1287.195312 0)"/>
     <use xlink:href="#DejaVuSans-74" transform="translate(1314.978516 0)"/>
     <use xlink:href="#DejaVuSans-65" transform="translate(1354.1875 0)"/>
     <use xlink:href="#DejaVuSans-20" transform="translate(1415.710938 0)"/>
     <use xlink:href="#DejaVuSans-54" transform="translate(1447.498047 0)"/>
     <use xlink:href="#DejaVuSans-79" transform="translate(1492.957031 0)"/>
     <use xlink:href="#DejaVuSans-70" transform="translate(1552.136719 0)"/>
     <use xlink:href="#DejaVuSans-65" transform="translate(1615.613281 0)"/>
     <use xlink:href="#DejaVuSans-20" transform="translate(1677.136719 0)"/>
     <use xlink:href="#DejaVuSans-3d" transform="translate(1708.923828 0)"/>
     <use xlink:href="#DejaVuSans-20" transform="translate(1792.712891 0)"/>
     <use xlink:href="#DejaVuSans-53" transform="translate(1824.5 0)"/>
     <use xlink:href="#DejaVuSans-65" transform="translate(1887.976562 0)"/>
     <use xlink:href="#DejaVuSans-71" transform="translate(1949.5 0)"/>
     <use xlink:href="#DejaVuSans-75" transform="translate(2012.976562 0)"/>
     <use xlink:href="#DejaVuSans-65" transform="translate(2076.355469 0)"/>
     <use xlink:href="#DejaVuSans-6e" transform="translate(2137.878906 0)"/>
     <use xlink:href="#DejaVuSans-74" transform="translate(2201.257812 0)"/>
     <use xlink:href="#DejaVuSans-69" transform="translate(2240.466797 0)"/>
     <use xlink:href="#DejaVuSans-61" transform="translate(2268.25 0)"/>
     <use xlink:href="#DejaVuSans-6c" transform="translate(2329.529297 0)"/>
     <use xlink:href="#DejaVuSans-20" transform="translate(2357.3125 0)"/>
     <use xlink:href="#DejaVuSans-42" transform="translate(2389.099609 0)"/>
     <use xlink:href="#DejaVuSans-61" transform="translate(2457.703125 0)"/>
     <use xlink:href="#DejaVuSans-6c" transform="translate(2518.982422 0)"/>
     <use xlink:href="#DejaVuSans-61" transform="translate(2546.765625 0)"/>
     <use xlink:href="#DejaVuSans-6e" transform="translate(2608.044922 0)"/>
     <use xlink:href="#DejaVuSans-63" transform="translate(2671.423828 0)"/>
     <use xlink:href="#DejaVuSans-65" transform="translate(2726.404297 0)"/>
     <use xlink:href="#DejaVuSans-64" transform="translate(2787.927734 0)"/>
     <use xlink:href="#DejaVuSans-20" transform="translate(2851.404297 0)"/>
     <use xlink:href="#DejaVuSans-31" transform="translate(2883.191406 0)"/>
     <use xlink:href="#DejaVuSans-3a" transform="translate(2946.814453 0)"/>
     <use xlink:href="#DejaVuSans-31" transform="translate(2980.505859 0)"/>
    </g>
   </g>
   <g id="text_20">
    <!-- IOPS vs IO Depth -->
    <g style="fill: #262626" transform="translate(174.270312 16.318125) scale(0.12 -0.12)">
     <defs>
      <path id="DejaVuSans-Bold-49" d="M 588 4666 
L 1791 4666 
L 1791 0 
L 588 0 
L 588 4666 
z
" transform="scale(0.015625)"/>
      <path id="DejaVuSans-Bold-4f" d="M 2719 3878 
Q 2169 3878 1866 3472 
Q 1563 3066 1563 2328 
Q 1563 1594 1866 1187 
Q 2169 781 2719 781 
Q 3272 781 3575 1187 
Q 3878 1594 3878 2328 
Q 3878 3066 3575 3472 
Q 3272 3878 2719 3878 
z
M 2719 4750 
Q 3844 4750 4481 4106 
Q 5119 3463 5119 2328 
Q 5119 1197 4481 553 
Q 3844 -91 2719 -91 
Q 1597 -91 958 553 
Q 319 1197 319 2328 
Q 319 3463 958 4106 
Q 1597 4750 2719 4750 
z
" transform="scale(0.015625)"/>
      <path id="DejaVuSans-Bold-50" d="M 588 4666 
L 2584 4666 
Q 3475 4666 3951 4270 
Q 4428 3875 4428 3144 
Q 4428 2409 3951 2014 
Q 3475 1619 2584 1619 
L 1791 1619 
L 1791 0 
L 588 0 
L 588 4666 
z
M 1791 3794 
L 1791 2491 
L 2456 2491 
Q 2806 2491 2997 2661 
Q 3188 2831 3188 3144 
Q 3188 3456 2997 3625 
Q 2806 3794 2456 3794 
L 1791 3794 
z
" transform="scale(0.015625)"/>
      <path id="DejaVuSans-Bold-53" d="M 3834 4519 
L 3834 3531 
Q 3450 3703 3084 3790 
Q 2719 3878 2394 3878 
Q 1963 3878 1756 3759 
Q 1550 3641 1550 3391 
Q 1550 3203 1689 3098 
Q 1828 2994 2194 2919 
L 2706 2816 
Q 3484 2659 3812 2340 
Q 4141 2022 4141 1434 
Q 4141 663 3683 286 
Q 3225 -91 2284 -91 
Q 1841 -91 1394 -6 
Q 947 78 500 244 
L 500 1259 
Q 947 1022 1364 901 
Q 1781 781 2169 781 
Q 2563 781 2772 912 
Q 2981 1044 2981 1288 
Q 2981 1506 2839 1625 
Q 2697 1744 2272 1838 
L 1806 1941 
Q 1106 2091 782 2419 
Q 459 2747 459 3303 
Q 459 4000 909 4375 
Q 1359 4750 2203 4750 
Q 2588 4750 2994 4692 
Q 3400 4634 3834 4519 
z
" transform="scale(0.015625)"/>
      <path id="DejaVuSans-Bold-20" transform="scale(0.015625)"/>
      <path id="DejaVuSans-Bold-76" d="M 97 3500 
L 1216 3500 
L 2088 1081 
L 2956 3500 
L 4078 3500 
L 2700 0 
L 1472 0 
L 97 3500 
z
" transform="scale(0.015625)"/>
      <path id="DejaVuSans-Bold-73" d="M 3272 3391 
L 3272 2541 
Q 2913 2691 2578 2766 
Q 2244 2841 1947 2841 
Q 1628 2841 1473 2761 
Q 1319 2681 1319 2516 
Q 1319 2381 1436 2309 
Q 1553 2238 1856 2203 
L 2053 2175 
Q 2913 2066 3209 1816 
Q 3506 1566 3506 1031 
Q 3506 472 3093 190 
Q 2681 -91 1863 -91 
Q 1516 -91 1145 -36 
Q 775 19 384 128 
L 384 978 
Q 719 816 1070 734 
Q 1422 653 1784 653 
Q 2113 653 2278 743 
Q 2444 834 2444 1013 
Q 2444 1163 2330 1236 
Q 2216 1309 1875 1350 
L 1678 1375 
Q 931 1469 631 1722 
Q 331 1975 331 2491 
Q 331 3047 712 3315 
Q 1094 3584 1881 3584 
Q 2191 3584 2531 3537 
Q 2872 3491 3272 3391 
z
" transform="scale(0.015625)"/>
      <path id="DejaVuSans-Bold-44" d="M 1791 3756 
L 1791 909 
L 2222 909 
Q 2959 909 3348 1275 
Q 3738 1641 3738 2338 
Q 3738 3031 3350 3393 
Q 2963 3756 2222 3756 
L 1791 3756 
z
M 588 4666 
L 1856 4666 
Q 2919 4666 3439 4514 
Q 3959 4363 4331 4000 
Q 4659 3684 4818 3271 
Q 4978 2859 4978 2338 
Q 4978 1809 4818 1395 
Q 4659 981 4331 666 
Q 3956 303 3431 151 
Q 2906 0 1856 0 
L 588 0 
L 588 4666 
z
" transform="scale(0.015625)"/>
      <path id="DejaVuSans-Bold-65" d="M 4031 1759 
L 4031 1441 
L 1416 1441 
Q 1456 1047 1700 850 
Q 1944 653 2381 653 
Q 2734 653 3104 758 
Q 3475 863 3866 1075 
L 3866 213 
Q 3469 63 3072 -14 
Q 2675 -91 2278 -91 
Q 1328 -91 801 392 
Q 275 875 275 1747 
Q 275 2603 792 3093 
Q 1309 3584 2216 3584 
Q 3041 3584 3536 3087 
Q 4031 2591 4031 1759 
z
M 2881 2131 
Q 2881 2450 2695 2645 
Q 2509 2841 2209 2841 
Q 1884 2841 1681 2658 
Q 1478 2475 1428 2131 
L 2881 2131 
z
" transform="scale(0.015625)"/>
      <path id="DejaVuSans-Bold-70" d="M 1656 506 
L 1656 -1331 
L 538 -1331 
L 538 3500 
L 1656 3500 
L 1656 2988 
Q 1888 3294 2169 3439 
Q 2450 3584 2816 3584 
Q 3463 3584 3878 3070 
Q 4294 2556 4294 1747 
Q 4294 938 3878 423 
Q 3463 -91 2816 -91 
Q 2450 -91 2169 54 
Q 1888 200 1656 506 
z
M 2400 2772 
Q 2041 2772 1848 2508 
Q 1656 2244 1656 1747 
Q 1656 1250 1848 986 
Q 2041 722 2400 722 
Q 2759 722 2948 984 
Q 3138 1247 3138 1747 
Q 3138 2247 2948 2509 
Q 2759 2772 2400 2772 
z
" transform="scale(0.015625)"/>
      <path id="DejaVuSans-Bold-74" d="M 1759 4494 
L 1759 3500 
L 2913 3500 
L 2913 2700 
L 1759 2700 
L 1759 1216 
Q 1759 972 1856 886 
Q 1953 800 2241 800 
L 2816 800 
L 2816 0 
L 1856 0 
Q 1194 0 917 276 
Q 641 553 641 1216 
L 641 2700 
L 84 2700 
L 84 3500 
L 641 3500 
L 641 4494 
L 1759 4494 
z
" transform="scale(0.015625)"/>
      <path id="DejaVuSans-Bold-68" d="M 4056 2131 
L 4056 0 
L 2931 0 
L 2931 347 
L 2931 1625 
Q 2931 2084 2911 2256 
Q 2891 2428 2841 2509 
Q 2775 2619 2662 2680 
Q 2550 2741 2406 2741 
Q 2056 2741 1856 2470 
Q 1656 2200 1656 1722 
L 1656 0 
L 538 0 
L 538 4863 
L 1656 4863 
L 1656 2988 
Q 1909 3294 2193 3439 
Q 2478 3584 2822 3584 
Q 3428 3584 3742 3212 
Q 4056 2841 4056 2131 
z
" transform="scale(0.015625)"/>
     </defs>
     <use xlink:href="#DejaVuSans-Bold-49"/>
     <use xlink:href="#DejaVuSans-Bold-4f" transform="translate(37.207031 0)"/>
     <use xlink:href="#DejaVuSans-Bold-50" transform="translate(122.216797 0)"/>
     <use xlink:href="#DejaVuSans-Bold-53" transform="translate(195.507812 0)"/>
     <use xlink:href="#DejaVuSans-Bold-20" transform="translate(267.529297 0)"/>
     <use xlink:href="#DejaVuSans-Bold-76" transform="translate(302.34375 0)"/>
     <use xlink:href="#DejaVuSans-Bold-73" transform="translate(367.529297 0)"/>
     <use xlink:href="#DejaVuSans-Bold-20" transform="translate(427.050781 0)"/>
     <use xlink:href="#DejaVuSans-Bold-49" transform="translate(461.865234 0)"/>
     <use xlink:href="#DejaVuSans-Bold-4f" transform="translate(499.072266 0)"/>
     <use xlink:href="#DejaVuSans-Bold-20" transform="translate(584.082031 0)"/>
     <use xlink:href="#DejaVuSans-Bold-44" transform="translate(618.896484 0)"/>
     <use xlink:href="#DejaVuSans-Bold-65" transform="translate(701.904297 0)"/>
     <use xlink:href="#DejaVuSans-Bold-70" transform="translate(769.726562 0)"/>
     <use xlink:href="#DejaVuSans-Bold-74" transform="translate(841.308594 0)"/>
     <use xlink:href="#DejaVuSans-Bold-68" transform="translate(889.111328 0)"/>
    </g>
   </g>
   <g id="legend_1">
    <g id="text_21">
     <!-- Number of Jobs -->
     <g style="fill: #262626" transform="translate(413.934375 142.08285) scale(0.1 -0.1)">
      <defs>
       <path id="DejaVuSans-4e" d="M 628 4666 
L 1478 4666 
L 3547 763 
L 3547 4666 
L 4159 4666 
L 4159 0 
L 3309 0 
L 1241 3903 
L 1241 0 
L 628 0 
L 628 4666 
z
" transform="scale(0.015625)"/>
       <path id="DejaVuSans-6d" d="M 3328 2828 
Q 3544 3216 3844 3400 
Q 4144 3584 4550 3584 
Q 5097 3584 5394 3201 
Q 5691 2819 5691 2113 
L 5691 0 
L 5113 0 
L 5113 2094 
Q 5113 2597 4934 2840 
Q 4756 3084 4391 3084 
Q 3944 3084 3684 2787 
Q 3425 2491 3425 1978 
L 3425 0 
L 2847 0 
L 2847 2094 
Q 2847 2600 2669 2842 
Q 2491 3084 2119 3084 
Q 1678 3084 1418 2786 
Q 1159 2488 1159 1978 
L 1159 0 
L 581 0 
L 581 3500 
L 1159 3500 
L 1159 2956 
Q 1356 3278 1631 3431 
Q 1906 3584 2284 3584 
Q 2666 3584 2933 3390 
Q 3200 3197 3328 2828 
z
" transform="scale(0.015625)"/>
       <path id="DejaVuSans-62" d="M 3116 1747 
Q 3116 2381 2855 2742 
Q 2594 3103 2138 3103 
Q 1681 3103 1420 2742 
Q 1159 2381 1159 1747 
Q 1159 1113 1420 752 
Q 1681 391 2138 391 
Q 2594 391 2855 752 
Q 3116 1113 3116 1747 
z
M 1159 2969 
Q 1341 3281 1617 3432 
Q 1894 3584 2278 3584 
Q 2916 3584 3314 3078 
Q 3713 2572 3713 1747 
Q 3713 922 3314 415 
Q 2916 -91 2278 -91 
Q 1894 -91 1617 61 
Q 1341 213 1159 525 
L 1159 0 
L 581 0 
L 581 4863 
L 1159 4863 
L 1159 2969 
z
" transform="scale(0.015625)"/>
       <path id="DejaVuSans-66" d="M 2375 4863 
L 2375 4384 
L 1825 4384 
Q 1516 4384 1395 4259 
Q 1275 4134 1275 3809 
L 1275 3500 
L 2222 3500 
L 2222 3053 
L 1275 3053 
L 1275 0 
L 697 0 
L 697 3053 
L 147 3053 
L 147 3500 
L 697 3500 
L 697 3744 
Q 697 4328 969 4595 
Q 1241 4863 1831 4863 
L 2375 4863 
z
" transform="scale(0.015625)"/>
       <path id="DejaVuSans-4a" d="M 628 4666 
L 1259 4666 
L 1259 325 
Q 1259 -519 939 -900 
Q 619 -1281 -91 -1281 
L -331 -1281 
L -331 -750 
L -134 -750 
Q 284 -750 456 -515 
Q 628 -281 628 325 
L 628 4666 
z
" transform="scale(0.015625)"/>
       <path id="DejaVuSans-73" d="M 2834 3397 
L 2834 2853 
Q 2591 2978 2328 3040 
Q 2066 3103 1784 3103 
Q 1356 3103 1142 2972 
Q 928 2841 928 2578 
Q 928 2378 1081 2264 
Q 1234 2150 1697 2047 
L 1894 2003 
Q 2506 1872 2764 1633 
Q 3022 1394 3022 966 
Q 3022 478 2636 193 
Q 2250 -91 1575 -91 
Q 1294 -91 989 -36 
Q 684 19 347 128 
L 347 722 
Q 666 556 975 473 
Q 1284 391 1588 391 
Q 1994 391 2212 530 
Q 2431 669 2431 922 
Q 2431 1156 2273 1281 
Q 2116 1406 1581 1522 
L 1381 1569 
Q 847 1681 609 1914 
Q 372 2147 372 2553 
Q 372 3047 722 3315 
Q 1072 3584 1716 3584 
Q 2034 3584 2315 3537 
Q 2597 3491 2834 3397 
z
" transform="scale(0.015625)"/>
      </defs>
      <use xlink:href="#DejaVuSans-4e"/>
      <use xlink:href="#DejaVuSans-75" transform="translate(74.804688 0)"/>
      <use xlink:href="#DejaVuSans-6d" transform="translate(138.183594 0)"/>
      <use xlink:href="#DejaVuSans-62" transform="translate(235.595703 0)"/>
      <use xlink:href="#DejaVuSans-65" transform="translate(299.072266 0)"/>
      <use xlink:href="#DejaVuSans-72" transform="translate(360.595703 0)"/>
      <use xlink:href="#DejaVuSans-20" transform="translate(401.708984 0)"/>
      <use xlink:href="#DejaVuSans-6f" transform="translate(433.496094 0)"/>
      <use xlink:href="#DejaVuSans-66" transform="translate(494.677734 0)"/>
      <use xlink:href="#DejaVuSans-20" transform="translate(529.882812 0)"/>
      <use xlink:href="#DejaVuSans-4a" transform="translate(561.669922 0)"/>
      <use xlink:href="#DejaVuSans-6f" transform="translate(591.162109 0)"/>
      <use xlink:href="#DejaVuSans-62" transform="translate(652.34375 0)"/>
      <use xlink:href="#DejaVuSans-73" transform="translate(715.820312 0)"/>
     </g>
    </g>
    <g id="line2d_21">
     <path d="M 428.7875 153.260975 
L 438.7875 153.260975 
L 448.7875 153.260975 
" style="fill: none; stroke: #3b0f70; stroke-width: 1.5; stroke-linecap: round"/>
    </g>
    <g id="text_22">
     <!-- 16 -->
     <g style="fill: #262626" transform="translate(456.7875 156.760975) scale(0.1 -0.1)">
      <use xlink:href="#DejaVuSans-31"/>
      <use xlink:href="#DejaVuSans-36" transform="translate(63.623047 0)"/>
     </g>
    </g>
    <g id="line2d_22">
     <path d="M 428.7875 167.9391 
L 438.7875 167.9391 
L 448.7875 167.9391 
" style="fill: none; stroke: #8c2981; stroke-width: 1.5; stroke-linecap: round"/>
    </g>
    <g id="text_23">
     <!-- 32 -->
     <g style="fill: #262626" transform="translate(456.7875 171.4391) scale(0.1 -0.1)">
      <use xlink:href="#DejaVuSans-33"/>
      <use xlink:href="#DejaVuSans-32" transform="translate(63.623047 0)"/>
     </g>
    </g>
    <g id="line2d_23">
     <path d="M 428.7875 182.617225 
L 438.7875 182.617225 
L 448.7875 182.617225 
" style="fill: none; stroke: #de4968; stroke-width: 1.5; stroke-linecap: round"/>
    </g>
    <g id="text_24">
     <!-- 64 -->
     <g style="fill: #262626" transform="translate(456.7875 186.117225) scale(0.1 -0.1)">
      <use xlink:href="#DejaVuSans-36"/>
      <use xlink:href="#DejaVuSans-34" transform="translate(63.623047 0)"/>
     </g>
    </g>
    <g id="line2d_24">
     <path d="M 428.7875 197.29535 
L 438.7875 197.29535 
L 448.7875 197.29535 
" style="fill: none; stroke: #fe9f6d; stroke-width: 1.5; stroke-linecap: round"/>
    </g>
    <g id="text_25">
     <!-- 128 -->
     <g style="fill: #262626" transform="translate(456.7875 200.79535) scale(0.1 -0.1)">
      <use xlink:href="#DejaVuSans-31"/>
      <use xlink:href="#DejaVuSans-32" transform="translate(63.623047 0)"/>
      <use xlink:href="#DejaVuSans-38" transform="translate(127.246094 0)"/>
     </g>
    </g>
   </g>
  </g>
 </g>
 <defs>
  <clipPath id="p344aec7476">
   <rect x="53.328125" y="35.623725" width="357.12" height="266.112"/>
  </clipPath>
 </defs>
</svg>
