<?xml version="1.0" encoding="utf-8" standalone="no"?>
<!DOCTYPE svg PUBLIC "-//W3C//DTD SVG 1.1//EN"
  "http://www.w3.org/Graphics/SVG/1.1/DTD/svg11.dtd">
<svg xmlns:xlink="http://www.w3.org/1999/xlink" width="501.928125pt" height="339.291975pt" viewBox="0 0 501.928125 339.291975" xmlns="http://www.w3.org/2000/svg" version="1.1">
 <metadata>
  <rdf:RDF xmlns:dc="http://purl.org/dc/elements/1.1/" xmlns:cc="http://creativecommons.org/ns#" xmlns:rdf="http://www.w3.org/1999/02/22-rdf-syntax-ns#">
   <cc:Work>
    <dc:type rdf:resource="http://purl.org/dc/dcmitype/StillImage"/>
    <dc:date>2025-09-11T11:44:24.095030</dc:date>
    <dc:format>image/svg+xml</dc:format>
    <dc:creator>
     <cc:Agent>
      <dc:title>Matplotlib v3.10.6, https://matplotlib.org/</dc:title>
     </cc:Agent>
    </dc:creator>
   </cc:Work>
  </rdf:RDF>
 </metadata>
 <defs>
  <style type="text/css">*{stroke-linejoin: round; stroke-linecap: butt}</style>
 </defs>
 <g id="figure_1">
  <g id="patch_1">
   <path d="M 0 339.291975 
L 501.928125 339.291975 
L 501.928125 0 
L 0 0 
z
" style="fill: #ffffff"/>
  </g>
  <g id="axes_1">
   <g id="patch_2">
    <path d="M 53.328125 301.735725 
L 410.448125 301.735725 
L 410.448125 35.623725 
L 53.328125 35.623725 
z
" style="fill: #ffffff"/>
   </g>
   <g id="matplotlib.axis_1">
    <g id="xtick_1">
     <g id="line2d_1">
      <path d="M 69.560852 301.735725 
L 69.560852 35.623725 
" clip-path="url(#pb7753b6fca)" style="fill: none; stroke: #cccccc; stroke-width: 0.8; stroke-linecap: round"/>
     </g>
     <g id="text_1">
      <!-- 1 -->
      <g style="fill: #262626" transform="translate(66.379602 316.334162) scale(0.1 -0.1)">
       <defs>
        <path id="DejaVuSans-31" d="M 794 531 
L 1825 531 
L 1825 4091 
L 703 3866 
L 703 4441 
L 1819 4666 
L 2450 4666 
L 2450 531 
L 3481 531 
L 3481 0 
L 794 0 
L 794 531 
z
" transform="scale(0.015625)"/>
       </defs>
       <use xlink:href="#DejaVuSans-31"/>
      </g>
     </g>
    </g>
    <g id="xtick_2">
     <g id="line2d_2">
      <path d="M 148.807237 301.735725 
L 148.807237 35.623725 
" clip-path="url(#pb7753b6fca)" style="fill: none; stroke: #cccccc; stroke-width: 0.8; stroke-linecap: round"/>
     </g>
     <g id="text_2">
      <!-- 32 -->
      <g style="fill: #262626" transform="translate(142.444737 316.334162) scale(0.1 -0.1)">
       <defs>
        <path id="DejaVuSans-33" d="M 2597 2516 
Q 3050 2419 3304 2112 
Q 3559 1806 3559 1356 
Q 3559 666 3084 287 
Q 2609 -91 1734 -91 
Q 1441 -91 1130 -33 
Q 819 25 488 141 
L 488 750 
Q 750 597 1062 519 
Q 1375 441 1716 441 
Q 2309 441 2620 675 
Q 2931 909 2931 1356 
Q 2931 1769 2642 2001 
Q 2353 2234 1838 2234 
L 1294 2234 
L 1294 2753 
L 1863 2753 
Q 2328 2753 2575 2939 
Q 2822 3125 2822 3475 
Q 2822 3834 2567 4026 
Q 2313 4219 1838 4219 
Q 1578 4219 1281 4162 
Q 984 4106 628 3988 
L 628 4550 
Q 988 4650 1302 4700 
Q 1616 4750 1894 4750 
Q 2613 4750 3031 4423 
Q 3450 4097 3450 3541 
Q 3450 3153 3228 2886 
Q 3006 2619 2597 2516 
z
" transform="scale(0.015625)"/>
        <path id="DejaVuSans-32" d="M 1228 531 
L 3431 531 
L 3431 0 
L 469 0 
L 469 531 
Q 828 903 1448 1529 
Q 2069 2156 2228 2338 
Q 2531 2678 2651 2914 
Q 2772 3150 2772 3378 
Q 2772 3750 2511 3984 
Q 2250 4219 1831 4219 
Q 1534 4219 1204 4116 
Q 875 4013 500 3803 
L 500 4441 
Q 881 4594 1212 4672 
Q 1544 4750 1819 4750 
Q 2544 4750 2975 4387 
Q 3406 4025 3406 3419 
Q 3406 3131 3298 2873 
Q 3191 2616 2906 2266 
Q 2828 2175 2409 1742 
Q 1991 1309 1228 531 
z
" transform="scale(0.015625)"/>
       </defs>
       <use xlink:href="#DejaVuSans-33"/>
       <use xlink:href="#DejaVuSans-32" transform="translate(63.623047 0)"/>
      </g>
     </g>
    </g>
    <g id="xtick_3">
     <g id="line2d_3">
      <path d="M 230.609957 301.735725 
L 230.609957 35.623725 
" clip-path="url(#pb7753b6fca)" style="fill: none; stroke: #cccccc; stroke-width: 0.8; stroke-linecap: round"/>
     </g>
     <g id="text_3">
      <!-- 64 -->
      <g style="fill: #262626" transform="translate(224.247457 316.334162) scale(0.1 -0.1)">
       <defs>
        <path id="DejaVuSans-36" d="M 2113 2584 
Q 1688 2584 1439 2293 
Q 1191 2003 1191 1497 
Q 1191 994 1439 701 
Q 1688 409 2113 409 
Q 2538 409 2786 701 
Q 3034 994 3034 1497 
Q 3034 2003 2786 2293 
Q 2538 2584 2113 2584 
z
M 3366 4563 
L 3366 3988 
Q 3128 4100 2886 4159 
Q 2644 4219 2406 4219 
Q 1781 4219 1451 3797 
Q 1122 3375 1075 2522 
Q 1259 2794 1537 2939 
Q 1816 3084 2150 3084 
Q 2853 3084 3261 2657 
Q 3669 2231 3669 1497 
Q 3669 778 3244 343 
Q 2819 -91 2113 -91 
Q 1303 -91 875 529 
Q 447 1150 447 2328 
Q 447 3434 972 4092 
Q 1497 4750 2381 4750 
Q 2619 4750 2861 4703 
Q 3103 4656 3366 4563 
z
" transform="scale(0.015625)"/>
        <path id="DejaVuSans-34" d="M 2419 4116 
L 825 1625 
L 2419 1625 
L 2419 4116 
z
M 2253 4666 
L 3047 4666 
L 3047 1625 
L 3713 1625 
L 3713 1100 
L 3047 1100 
L 3047 0 
L 2419 0 
L 2419 1100 
L 313 1100 
L 313 1709 
L 2253 4666 
z
" transform="scale(0.015625)"/>
       </defs>
       <use xlink:href="#DejaVuSans-36"/>
       <use xlink:href="#DejaVuSans-34" transform="translate(63.623047 0)"/>
      </g>
     </g>
    </g>
    <g id="xtick_4">
     <g id="line2d_4">
      <path d="M 394.215398 301.735725 
L 394.215398 35.623725 
" clip-path="url(#pb7753b6fca)" style="fill: none; stroke: #cccccc; stroke-width: 0.8; stroke-linecap: round"/>
     </g>
     <g id="text_4">
      <!-- 128 -->
      <g style="fill: #262626" transform="translate(384.671648 316.334162) scale(0.1 -0.1)">
       <defs>
        <path id="DejaVuSans-38" d="M 2034 2216 
Q 1584 2216 1326 1975 
Q 1069 1734 1069 1313 
Q 1069 891 1326 650 
Q 1584 409 2034 409 
Q 2484 409 2743 651 
Q 3003 894 3003 1313 
Q 3003 1734 2745 1975 
Q 2488 2216 2034 2216 
z
M 1403 2484 
Q 997 2584 770 2862 
Q 544 3141 544 3541 
Q 544 4100 942 4425 
Q 1341 4750 2034 4750 
Q 2731 4750 3128 4425 
Q 3525 4100 3525 3541 
Q 3525 3141 3298 2862 
Q 3072 2584 2669 2484 
Q 3125 2378 3379 2068 
Q 3634 1759 3634 1313 
Q 3634 634 3220 271 
Q 2806 -91 2034 -91 
Q 1263 -91 848 271 
Q 434 634 434 1313 
Q 434 1759 690 2068 
Q 947 2378 1403 2484 
z
M 1172 3481 
Q 1172 3119 1398 2916 
Q 1625 2713 2034 2713 
Q 2441 2713 2670 2916 
Q 2900 3119 2900 3481 
Q 2900 3844 2670 4047 
Q 2441 4250 2034 4250 
Q 1625 4250 1398 4047 
Q 1172 3844 1172 3481 
z
" transform="scale(0.015625)"/>
       </defs>
       <use xlink:href="#DejaVuSans-31"/>
       <use xlink:href="#DejaVuSans-32" transform="translate(63.623047 0)"/>
       <use xlink:href="#DejaVuSans-38" transform="translate(127.246094 0)"/>
      </g>
     </g>
    </g>
    <g id="xtick_5">
     <g id="line2d_5">
      <path d="M 77.229857 301.735725 
L 77.229857 35.623725 
" clip-path="url(#pb7753b6fca)" style="fill: none; stroke: #cccccc; stroke-width: 0.8; stroke-linecap: round"/>
     </g>
     <g id="text_5">
      <!-- 4 -->
      <g style="fill: #262626" transform="translate(74.048607 316.334162) scale(0.1 -0.1)">
       <use xlink:href="#DejaVuSans-34"/>
      </g>
     </g>
    </g>
    <g id="xtick_6">
     <g id="line2d_6">
      <path d="M 107.905877 301.735725 
L 107.905877 35.623725 
" clip-path="url(#pb7753b6fca)" style="fill: none; stroke: #cccccc; stroke-width: 0.8; stroke-linecap: round"/>
     </g>
     <g id="text_6">
      <!-- 16 -->
      <g style="fill: #262626" transform="translate(101.543377 316.334162) scale(0.1 -0.1)">
       <use xlink:href="#DejaVuSans-31"/>
       <use xlink:href="#DejaVuSans-36" transform="translate(63.623047 0)"/>
      </g>
     </g>
    </g>
    <g id="xtick_7">
     <g id="line2d_7">
      <path d="M 87.455197 301.735725 
L 87.455197 35.623725 
" clip-path="url(#pb7753b6fca)" style="fill: none; stroke: #cccccc; stroke-width: 0.8; stroke-linecap: round"/>
     </g>
     <g id="text_7">
      <!-- 8 -->
      <g style="fill: #262626" transform="translate(84.273947 316.334162) scale(0.1 -0.1)">
       <use xlink:href="#DejaVuSans-38"/>
      </g>
     </g>
    </g>
    <g id="text_8">
     <!-- IO Depth -->
     <g style="fill: #262626" transform="translate(209.658437 330.012287) scale(0.1 -0.1)">
      <defs>
       <path id="DejaVuSans-49" d="M 628 4666 
L 1259 4666 
L 1259 0 
L 628 0 
L 628 4666 
z
" transform="scale(0.015625)"/>
       <path id="DejaVuSans-4f" d="M 2522 4238 
Q 1834 4238 1429 3725 
Q 1025 3213 1025 2328 
Q 1025 1447 1429 934 
Q 1834 422 2522 422 
Q 3209 422 3611 934 
Q 4013 1447 4013 2328 
Q 4013 3213 3611 3725 
Q 3209 4238 2522 4238 
z
M 2522 4750 
Q 3503 4750 4090 4092 
Q 4678 3434 4678 2328 
Q 4678 1225 4090 567 
Q 3503 -91 2522 -91 
Q 1538 -91 948 565 
Q 359 1222 359 2328 
Q 359 3434 948 4092 
Q 1538 4750 2522 4750 
z
" transform="scale(0.015625)"/>
       <path id="DejaVuSans-20" transform="scale(0.015625)"/>
       <path id="DejaVuSans-44" d="M 1259 4147 
L 1259 519 
L 2022 519 
Q 2988 519 3436 956 
Q 3884 1394 3884 2338 
Q 3884 3275 3436 3711 
Q 2988 4147 2022 4147 
L 1259 4147 
z
M 628 4666 
L 1925 4666 
Q 3281 4666 3915 4102 
Q 4550 3538 4550 2338 
Q 4550 1131 3912 565 
Q 3275 0 1925 0 
L 628 0 
L 628 4666 
z
" transform="scale(0.015625)"/>
       <path id="DejaVuSans-65" d="M 3597 1894 
L 3597 1613 
L 953 1613 
Q 991 1019 1311 708 
Q 1631 397 2203 397 
Q 2534 397 2845 478 
Q 3156 559 3463 722 
L 3463 178 
Q 3153 47 2828 -22 
Q 2503 -91 2169 -91 
Q 1331 -91 842 396 
Q 353 884 353 1716 
Q 353 2575 817 3079 
Q 1281 3584 2069 3584 
Q 2775 3584 3186 3129 
Q 3597 2675 3597 1894 
z
M 3022 2063 
Q 3016 2534 2758 2815 
Q 2500 3097 2075 3097 
Q 1594 3097 1305 2825 
Q 1016 2553 972 2059 
L 3022 2063 
z
" transform="scale(0.015625)"/>
       <path id="DejaVuSans-70" d="M 1159 525 
L 1159 -1331 
L 581 -1331 
L 581 3500 
L 1159 3500 
L 1159 2969 
Q 1341 3281 1617 3432 
Q 1894 3584 2278 3584 
Q 2916 3584 3314 3078 
Q 3713 2572 3713 1747 
Q 3713 922 3314 415 
Q 2916 -91 2278 -91 
Q 1894 -91 1617 61 
Q 1341 213 1159 525 
z
M 3116 1747 
Q 3116 2381 2855 2742 
Q 2594 3103 2138 3103 
Q 1681 3103 1420 2742 
Q 1159 2381 1159 1747 
Q 1159 1113 1420 752 
Q 1681 391 2138 391 
Q 2594 391 2855 752 
Q 3116 1113 3116 1747 
z
" transform="scale(0.015625)"/>
       <path id="DejaVuSans-74" d="M 1172 4494 
L 1172 3500 
L 2356 3500 
L 2356 3053 
L 1172 3053 
L 1172 1153 
Q 1172 725 1289 603 
Q 1406 481 1766 481 
L 2356 481 
L 2356 0 
L 1766 0 
Q 1100 0 847 248 
Q 594 497 594 1153 
L 594 3053 
L 172 3053 
L 172 3500 
L 594 3500 
L 594 4494 
L 1172 4494 
z
" transform="scale(0.015625)"/>
       <path id="DejaVuSans-68" d="M 3513 2113 
L 3513 0 
L 2938 0 
L 2938 2094 
Q 2938 2591 2744 2837 
Q 2550 3084 2163 3084 
Q 1697 3084 1428 2787 
Q 1159 2491 1159 1978 
L 1159 0 
L 581 0 
L 581 4863 
L 1159 4863 
L 1159 2956 
Q 1366 3272 1645 3428 
Q 1925 3584 2291 3584 
Q 2894 3584 3203 3211 
Q 3513 2838 3513 2113 
z
" transform="scale(0.015625)"/>
      </defs>
      <use xlink:href="#DejaVuSans-49"/>
      <use xlink:href="#DejaVuSans-4f" transform="translate(29.492188 0)"/>
      <use xlink:href="#DejaVuSans-20" transform="translate(108.203125 0)"/>
      <use xlink:href="#DejaVuSans-44" transform="translate(139.990234 0)"/>
      <use xlink:href="#DejaVuSans-65" transform="translate(216.992188 0)"/>
      <use xlink:href="#DejaVuSans-70" transform="translate(278.515625 0)"/>
      <use xlink:href="#DejaVuSans-74" transform="translate(341.992188 0)"/>
      <use xlink:href="#DejaVuSans-68" transform="translate(381.201172 0)"/>
     </g>
    </g>
   </g>
   <g id="matplotlib.axis_2">
    <g id="ytick_1">
     <g id="line2d_8">
      <path d="M 53.328125 291.188013 
L 410.448125 291.188013 
" clip-path="url(#pb7753b6fca)" style="fill: none; stroke: #cccccc; stroke-width: 0.8; stroke-linecap: round"/>
     </g>
     <g id="text_9">
      <!-- 600 -->
      <g style="fill: #262626" transform="translate(27.240625 294.987232) scale(0.1 -0.1)">
       <defs>
        <path id="DejaVuSans-30" d="M 2034 4250 
Q 1547 4250 1301 3770 
Q 1056 3291 1056 2328 
Q 1056 1369 1301 889 
Q 1547 409 2034 409 
Q 2525 409 2770 889 
Q 3016 1369 3016 2328 
Q 3016 3291 2770 3770 
Q 2525 4250 2034 4250 
z
M 2034 4750 
Q 2819 4750 3233 4129 
Q 3647 3509 3647 2328 
Q 3647 1150 3233 529 
Q 2819 -91 2034 -91 
Q 1250 -91 836 529 
Q 422 1150 422 2328 
Q 422 3509 836 4129 
Q 1250 4750 2034 4750 
z
" transform="scale(0.015625)"/>
       </defs>
       <use xlink:href="#DejaVuSans-36"/>
       <use xlink:href="#DejaVuSans-30" transform="translate(63.623047 0)"/>
       <use xlink:href="#DejaVuSans-30" transform="translate(127.246094 0)"/>
      </g>
     </g>
    </g>
    <g id="ytick_2">
     <g id="line2d_9">
      <path d="M 53.328125 252.480813 
L 410.448125 252.480813 
" clip-path="url(#pb7753b6fca)" style="fill: none; stroke: #cccccc; stroke-width: 0.8; stroke-linecap: round"/>
     </g>
     <g id="text_10">
      <!-- 700 -->
      <g style="fill: #262626" transform="translate(27.240625 256.280032) scale(0.1 -0.1)">
       <defs>
        <path id="DejaVuSans-37" d="M 525 4666 
L 3525 4666 
L 3525 4397 
L 1831 0 
L 1172 0 
L 2766 4134 
L 525 4134 
L 525 4666 
z
" transform="scale(0.015625)"/>
       </defs>
       <use xlink:href="#DejaVuSans-37"/>
       <use xlink:href="#DejaVuSans-30" transform="translate(63.623047 0)"/>
       <use xlink:href="#DejaVuSans-30" transform="translate(127.246094 0)"/>
      </g>
     </g>
    </g>
    <g id="ytick_3">
     <g id="line2d_10">
      <path d="M 53.328125 213.773613 
L 410.448125 213.773613 
" clip-path="url(#pb7753b6fca)" style="fill: none; stroke: #cccccc; stroke-width: 0.8; stroke-linecap: round"/>
     </g>
     <g id="text_11">
      <!-- 800 -->
      <g style="fill: #262626" transform="translate(27.240625 217.572832) scale(0.1 -0.1)">
       <use xlink:href="#DejaVuSans-38"/>
       <use xlink:href="#DejaVuSans-30" transform="translate(63.623047 0)"/>
       <use xlink:href="#DejaVuSans-30" transform="translate(127.246094 0)"/>
      </g>
     </g>
    </g>
    <g id="ytick_4">
     <g id="line2d_11">
      <path d="M 53.328125 175.066413 
L 410.448125 175.066413 
" clip-path="url(#pb7753b6fca)" style="fill: none; stroke: #cccccc; stroke-width: 0.8; stroke-linecap: round"/>
     </g>
     <g id="text_12">
      <!-- 900 -->
      <g style="fill: #262626" transform="translate(27.240625 178.865632) scale(0.1 -0.1)">
       <defs>
        <path id="DejaVuSans-39" d="M 703 97 
L 703 672 
Q 941 559 1184 500 
Q 1428 441 1663 441 
Q 2288 441 2617 861 
Q 2947 1281 2994 2138 
Q 2813 1869 2534 1725 
Q 2256 1581 1919 1581 
Q 1219 1581 811 2004 
Q 403 2428 403 3163 
Q 403 3881 828 4315 
Q 1253 4750 1959 4750 
Q 2769 4750 3195 4129 
Q 3622 3509 3622 2328 
Q 3622 1225 3098 567 
Q 2575 -91 1691 -91 
Q 1453 -91 1209 -44 
Q 966 3 703 97 
z
M 1959 2075 
Q 2384 2075 2632 2365 
Q 2881 2656 2881 3163 
Q 2881 3666 2632 3958 
Q 2384 4250 1959 4250 
Q 1534 4250 1286 3958 
Q 1038 3666 1038 3163 
Q 1038 2656 1286 2365 
Q 1534 2075 1959 2075 
z
" transform="scale(0.015625)"/>
       </defs>
       <use xlink:href="#DejaVuSans-39"/>
       <use xlink:href="#DejaVuSans-30" transform="translate(63.623047 0)"/>
       <use xlink:href="#DejaVuSans-30" transform="translate(127.246094 0)"/>
      </g>
     </g>
    </g>
    <g id="ytick_5">
     <g id="line2d_12">
      <path d="M 53.328125 136.359213 
L 410.448125 136.359213 
" clip-path="url(#pb7753b6fca)" style="fill: none; stroke: #cccccc; stroke-width: 0.8; stroke-linecap: round"/>
     </g>
     <g id="text_13">
      <!-- 1000 -->
      <g style="fill: #262626" transform="translate(20.878125 140.158432) scale(0.1 -0.1)">
       <use xlink:href="#DejaVuSans-31"/>
       <use xlink:href="#DejaVuSans-30" transform="translate(63.623047 0)"/>
       <use xlink:href="#DejaVuSans-30" transform="translate(127.246094 0)"/>
       <use xlink:href="#DejaVuSans-30" transform="translate(190.869141 0)"/>
      </g>
     </g>
    </g>
    <g id="ytick_6">
     <g id="line2d_13">
      <path d="M 53.328125 97.652013 
L 410.448125 97.652013 
" clip-path="url(#pb7753b6fca)" style="fill: none; stroke: #cccccc; stroke-width: 0.8; stroke-linecap: round"/>
     </g>
     <g id="text_14">
      <!-- 1100 -->
      <g style="fill: #262626" transform="translate(20.878125 101.451232) scale(0.1 -0.1)">
       <use xlink:href="#DejaVuSans-31"/>
       <use xlink:href="#DejaVuSans-31" transform="translate(63.623047 0)"/>
       <use xlink:href="#DejaVuSans-30" transform="translate(127.246094 0)"/>
       <use xlink:href="#DejaVuSans-30" transform="translate(190.869141 0)"/>
      </g>
     </g>
    </g>
    <g id="ytick_7">
     <g id="line2d_14">
      <path d="M 53.328125 58.944813 
L 410.448125 58.944813 
" clip-path="url(#pb7753b6fca)" style="fill: none; stroke: #cccccc; stroke-width: 0.8; stroke-linecap: round"/>
     </g>
     <g id="text_15">
      <!-- 1200 -->
      <g style="fill: #262626" transform="translate(20.878125 62.744032) scale(0.1 -0.1)">
       <use xlink:href="#DejaVuSans-31"/>
       <use xlink:href="#DejaVuSans-32" transform="translate(63.623047 0)"/>
       <use xlink:href="#DejaVuSans-30" transform="translate(127.246094 0)"/>
       <use xlink:href="#DejaVuSans-30" transform="translate(190.869141 0)"/>
      </g>
     </g>
    </g>
    <g id="text_16">
     <!-- IOPS -->
     <g style="fill: #262626" transform="translate(14.798438 180.279725) rotate(-90) scale(0.1 -0.1)">
      <defs>
       <path id="DejaVuSans-50" d="M 1259 4147 
L 1259 2394 
L 2053 2394 
Q 2494 2394 2734 2622 
Q 2975 2850 2975 3272 
Q 2975 3691 2734 3919 
Q 2494 4147 2053 4147 
L 1259 4147 
z
M 628 4666 
L 2053 4666 
Q 2838 4666 3239 4311 
Q 3641 3956 3641 3272 
Q 3641 2581 3239 2228 
Q 2838 1875 2053 1875 
L 1259 1875 
L 1259 0 
L 628 0 
L 628 4666 
z
" transform="scale(0.015625)"/>
       <path id="DejaVuSans-53" d="M 3425 4513 
L 3425 3897 
Q 3066 4069 2747 4153 
Q 2428 4238 2131 4238 
Q 1616 4238 1336 4038 
Q 1056 3838 1056 3469 
Q 1056 3159 1242 3001 
Q 1428 2844 1947 2747 
L 2328 2669 
Q 3034 2534 3370 2195 
Q 3706 1856 3706 1288 
Q 3706 609 3251 259 
Q 2797 -91 1919 -91 
Q 1588 -91 1214 -16 
Q 841 59 441 206 
L 441 856 
Q 825 641 1194 531 
Q 1563 422 1919 422 
Q 2459 422 2753 634 
Q 3047 847 3047 1241 
Q 3047 1584 2836 1778 
Q 2625 1972 2144 2069 
L 1759 2144 
Q 1053 2284 737 2584 
Q 422 2884 422 3419 
Q 422 4038 858 4394 
Q 1294 4750 2059 4750 
Q 2388 4750 2728 4690 
Q 3069 4631 3425 4513 
z
" transform="scale(0.015625)"/>
      </defs>
      <use xlink:href="#DejaVuSans-49"/>
      <use xlink:href="#DejaVuSans-4f" transform="translate(29.492188 0)"/>
      <use xlink:href="#DejaVuSans-50" transform="translate(108.203125 0)"/>
      <use xlink:href="#DejaVuSans-53" transform="translate(168.505859 0)"/>
     </g>
    </g>
   </g>
   <g id="FillBetweenPolyCollection_1"/>
   <g id="FillBetweenPolyCollection_2"/>
   <g id="FillBetweenPolyCollection_3"/>
   <g id="FillBetweenPolyCollection_4"/>
   <g id="line2d_15">
    <path d="M 69.560852 171.195693 
L 77.229857 47.719725 
L 87.455197 136.746285 
L 107.905877 122.424621 
L 148.807237 155.712813 
L 230.609957 134.423853 
L 394.215398 134.423853 
" clip-path="url(#pb7753b6fca)" style="fill: none; stroke: #3b0f70; stroke-width: 1.5; stroke-linecap: round"/>
   </g>
   <g id="line2d_16">
    <path d="M 69.560852 149.519661 
L 77.229857 165.002541 
L 87.455197 178.937133 
L 107.905877 130.940205 
L 148.807237 178.937133 
L 230.609957 179.324205 
L 394.215398 218.031405 
" clip-path="url(#pb7753b6fca)" style="fill: none; stroke: #8c2981; stroke-width: 1.5; stroke-linecap: round"/>
   </g>
   <g id="line2d_17">
    <path d="M 69.560852 226.159917 
L 77.229857 215.708973 
L 87.455197 289.639725 
L 107.905877 217.644333 
L 148.807237 224.611629 
L 230.609957 250.932525 
L 394.215398 269.511981 
" clip-path="url(#pb7753b6fca)" style="fill: none; stroke: #de4968; stroke-width: 1.5; stroke-linecap: round"/>
   </g>
   <g id="line2d_18">
    <path d="M 69.560852 269.511981 
L 77.229857 177.388845 
L 87.455197 257.899821 
L 107.905877 207.967533 
L 148.807237 209.128749 
L 230.609957 221.515053 
L 394.215398 126.295341 
" clip-path="url(#pb7753b6fca)" style="fill: none; stroke: #fe9f6d; stroke-width: 1.5; stroke-linecap: round"/>
   </g>
   <g id="line2d_19"/>
   <g id="line2d_20"/>
   <g id="line2d_21"/>
   <g id="line2d_22"/>
   <g id="text_17">
    <path d="M 130.275145 143.118196 
L 131.524581 144.135068 
L 135.035798 139.820818 
L 133.454166 138.986863 
L 134.021287 138.290039 
L 135.595648 139.118076 
L 136.360337 139.74043 
L 132.281998 144.751504 
L 133.531434 145.768376 
L 133.00771 146.411878 
L 129.751421 143.761698 
L 130.275145 143.118196 
z
M 138.833042 145.947235 
Q 138.317998 145.528059 137.72923 145.635125 
Q 137.142661 145.741965 136.643594 146.35517 
Q 136.147487 146.96474 136.159045 147.564419 
Q 136.172801 148.163872 136.687845 148.583048 
Q 137.202889 149.002225 137.791431 148.892961 
Q 138.38096 148.782485 138.877067 148.172916 
Q 139.376134 147.55971 139.361616 146.963667 
Q 139.348086 146.366412 138.833042 145.947235 
z
M 142.303395 144.784779 
L 141.736274 145.481603 
Q 141.558314 145.111135 141.323234 144.800951 
Q 141.08914 144.489555 140.800715 144.254816 
Q 140.043297 143.638381 139.227164 143.824311 
Q 138.412242 144.011227 137.513972 144.998595 
Q 138.005229 144.850445 138.485141 144.948915 
Q 138.966266 145.048371 139.371029 145.377794 
Q 140.222973 146.071161 140.296266 146.991038 
Q 140.370546 147.909703 139.646603 148.799214 
Q 138.937456 149.670548 137.993373 149.778534 
Q 137.050276 149.885308 136.194697 149.188982 
Q 135.213084 148.390082 135.305908 147.216588 
Q 135.399719 146.041883 136.561578 144.614303 
Q 137.652422 143.273977 138.937636 142.994373 
Q 140.222851 142.71477 141.294142 143.586657 
Q 141.582567 143.821396 141.829483 144.117037 
Q 142.076399 144.412679 142.303395 144.784779 
z
" clip-path="url(#pb7753b6fca)" style="fill: #3b0f70; stroke: #ffffff; stroke-width: 5"/>
    <path d="M 130.275145 143.118196 
L 131.524581 144.135068 
L 135.035798 139.820818 
L 133.454166 138.986863 
L 134.021287 138.290039 
L 135.595648 139.118076 
L 136.360337 139.74043 
L 132.281998 144.751504 
L 133.531434 145.768376 
L 133.00771 146.411878 
L 129.751421 143.761698 
L 130.275145 143.118196 
z
M 138.833042 145.947235 
Q 138.317998 145.528059 137.72923 145.635125 
Q 137.142661 145.741965 136.643594 146.35517 
Q 136.147487 146.96474 136.159045 147.564419 
Q 136.172801 148.163872 136.687845 148.583048 
Q 137.202889 149.002225 137.791431 148.892961 
Q 138.38096 148.782485 138.877067 148.172916 
Q 139.376134 147.55971 139.361616 146.963667 
Q 139.348086 146.366412 138.833042 145.947235 
z
M 142.303395 144.784779 
L 141.736274 145.481603 
Q 141.558314 145.111135 141.323234 144.800951 
Q 141.08914 144.489555 140.800715 144.254816 
Q 140.043297 143.638381 139.227164 143.824311 
Q 138.412242 144.011227 137.513972 144.998595 
Q 138.005229 144.850445 138.485141 144.948915 
Q 138.966266 145.048371 139.371029 145.377794 
Q 140.222973 146.071161 140.296266 146.991038 
Q 140.370546 147.909703 139.646603 148.799214 
Q 138.937456 149.670548 137.993373 149.778534 
Q 137.050276 149.885308 136.194697 149.188982 
Q 135.213084 148.390082 135.305908 147.216588 
Q 135.399719 146.041883 136.561578 144.614303 
Q 137.652422 143.273977 138.937636 142.994373 
Q 140.222851 142.71477 141.294142 143.586657 
Q 141.582567 143.821396 141.829483 144.117037 
Q 142.076399 144.412679 142.303395 144.784779 
z
" clip-path="url(#pb7753b6fca)" style="fill: #3b0f70"/>
   </g>
   <g id="text_18">
    <path d="M 197.448208 177.995403 
Q 198.155296 178.150313 198.549897 178.631873 
Q 198.946067 179.111878 198.94274 179.814995 
Q 198.937639 180.893108 198.192658 181.481777 
Q 197.447684 182.068884 196.080512 182.062414 
Q 195.622704 182.060248 195.137201 181.967325 
Q 194.651698 181.874402 194.135374 181.690706 
L 194.139876 180.739155 
Q 194.548115 180.980151 195.035033 181.104332 
Q 195.523514 181.22852 196.05632 181.231041 
Q 196.982872 181.235425 197.470534 180.872103 
Q 197.958196 180.508782 197.961501 179.810352 
Q 197.964555 179.165047 197.514712 178.800414 
Q 197.064878 178.434219 196.260199 178.430412 
L 195.410209 178.42639 
L 195.414046 177.615461 
L 196.303098 177.619668 
Q 197.029653 177.623106 197.416961 177.33431 
Q 197.804269 177.045515 197.806857 176.498646 
Q 197.809511 175.937715 197.412498 175.635833 
Q 197.017054 175.332396 196.274875 175.328884 
Q 195.868629 175.326961 195.404151 175.413827 
Q 194.939679 175.49913 194.382563 175.680871 
L 194.386718 174.802756 
Q 194.949951 174.649169 195.44094 174.573367 
Q 195.93193 174.497564 196.3663 174.49962 
Q 197.489725 174.504935 198.140425 175.018958 
Q 198.792695 175.531425 198.788584 176.400165 
Q 198.785715 177.006408 198.43687 177.42195 
Q 198.088025 177.837491 197.448208 177.995403 
z
M 201.656727 181.116914 
L 205.098876 181.133201 
L 205.094951 181.96288 
L 200.466877 181.940981 
L 200.470803 181.111302 
Q 201.034485 180.532713 202.007852 179.559183 
Q 202.982789 178.584098 203.23257 178.300901 
Q 203.708516 177.771897 203.897758 177.404039 
Q 204.088564 177.036188 204.090249 176.679942 
Q 204.093 176.098698 203.686922 175.731147 
Q 203.280851 175.362034 202.626171 175.358937 
Q 202.162114 175.356741 201.645733 175.515237 
Q 201.130915 175.67374 200.543431 175.999089 
L 200.548148 175.002225 
Q 201.144585 174.765982 201.662343 174.646556 
Q 202.181664 174.527137 202.611347 174.52917 
Q 203.744147 174.53453 204.414893 175.104898 
Q 205.085647 175.673703 205.081166 176.620567 
Q 205.079037 177.070562 204.908381 177.472884 
Q 204.739296 177.873651 204.291401 178.418413 
Q 204.168854 178.560022 203.510973 179.233479 
Q 202.854654 179.906944 201.656727 181.116914 
z
" clip-path="url(#pb7753b6fca)" style="fill: #8c2981; stroke: #ffffff; stroke-width: 5"/>
    <path d="M 197.448208 177.995403 
Q 198.155296 178.150313 198.549897 178.631873 
Q 198.946067 179.111878 198.94274 179.814995 
Q 198.937639 180.893108 198.192658 181.481777 
Q 197.447684 182.068884 196.080512 182.062414 
Q 195.622704 182.060248 195.137201 181.967325 
Q 194.651698 181.874402 194.135374 181.690706 
L 194.139876 180.739155 
Q 194.548115 180.980151 195.035033 181.104332 
Q 195.523514 181.22852 196.05632 181.231041 
Q 196.982872 181.235425 197.470534 180.872103 
Q 197.958196 180.508782 197.961501 179.810352 
Q 197.964555 179.165047 197.514712 178.800414 
Q 197.064878 178.434219 196.260199 178.430412 
L 195.410209 178.42639 
L 195.414046 177.615461 
L 196.303098 177.619668 
Q 197.029653 177.623106 197.416961 177.33431 
Q 197.804269 177.045515 197.806857 176.498646 
Q 197.809511 175.937715 197.412498 175.635833 
Q 197.017054 175.332396 196.274875 175.328884 
Q 195.868629 175.326961 195.404151 175.413827 
Q 194.939679 175.49913 194.382563 175.680871 
L 194.386718 174.802756 
Q 194.949951 174.649169 195.44094 174.573367 
Q 195.93193 174.497564 196.3663 174.49962 
Q 197.489725 174.504935 198.140425 175.018958 
Q 198.792695 175.531425 198.788584 176.400165 
Q 198.785715 177.006408 198.43687 177.42195 
Q 198.088025 177.837491 197.448208 177.995403 
z
M 201.656727 181.116914 
L 205.098876 181.133201 
L 205.094951 181.96288 
L 200.466877 181.940981 
L 200.470803 181.111302 
Q 201.034485 180.532713 202.007852 179.559183 
Q 202.982789 178.584098 203.23257 178.300901 
Q 203.708516 177.771897 203.897758 177.404039 
Q 204.088564 177.036188 204.090249 176.679942 
Q 204.093 176.098698 203.686922 175.731147 
Q 203.280851 175.362034 202.626171 175.358937 
Q 202.162114 175.356741 201.645733 175.515237 
Q 201.130915 175.67374 200.543431 175.999089 
L 200.548148 175.002225 
Q 201.144585 174.765982 201.662343 174.646556 
Q 202.181664 174.527137 202.611347 174.52917 
Q 203.744147 174.53453 204.414893 175.104898 
Q 205.085647 175.673703 205.081166 176.620567 
Q 205.079037 177.070562 204.908381 177.472884 
Q 204.739296 177.873651 204.291401 178.418413 
Q 204.168854 178.560022 203.510973 179.233479 
Q 202.854654 179.906944 201.656727 181.116914 
z
" clip-path="url(#pb7753b6fca)" style="fill: #8c2981"/>
   </g>
   <g id="text_19">
    <path d="M 261.131756 253.112319 
Q 260.471935 253.037388 260.034052 253.445271 
Q 259.597897 253.851777 259.508685 254.637353 
Q 259.420002 255.418271 259.753369 255.916884 
Q 260.088464 256.414121 260.748286 256.489052 
Q 261.408107 256.563983 261.844615 256.154372 
Q 262.281298 255.743207 262.369981 254.962289 
Q 262.459193 254.176714 262.125297 253.682758 
Q 261.791578 253.18725 261.131756 253.112319 
z
M 263.425979 250.260794 
L 263.324602 251.153494 
Q 262.974849 250.93765 262.609541 250.803385 
Q 262.244409 250.667567 261.874909 250.625605 
Q 260.904584 250.515413 260.317849 251.112395 
Q 259.732668 251.709553 259.509308 253.025567 
Q 259.842928 252.635722 260.300094 252.45962 
Q 260.758812 252.283695 261.277354 252.342582 
Q 262.368776 252.466527 262.926921 253.201387 
Q 263.485242 253.934695 263.355832 255.074245 
Q 263.229066 256.190508 262.492551 256.790923 
Q 261.756212 257.389786 260.660132 257.265313 
Q 259.40259 257.122503 258.847422 256.08448 
Q 258.29243 255.044905 258.500121 253.216035 
Q 258.695118 251.498946 259.626203 250.569949 
Q 260.557287 249.640952 261.929716 249.796809 
Q 262.299216 249.83877 262.666639 249.954405 
Q 263.034063 250.070041 263.425979 250.260794 
z
M 268.198604 251.505712 
L 265.284701 255.092007 
L 267.75942 255.373042 
L 268.198604 251.505712 
z
M 268.037855 250.622559 
L 269.270557 250.762547 
L 268.734403 255.483764 
L 269.768382 255.601185 
L 269.67582 256.416259 
L 268.641841 256.298838 
L 268.447902 258.006611 
L 267.472919 257.895889 
L 267.666858 256.188116 
L 264.397249 255.816811 
L 264.50462 254.871325 
L 268.037855 250.622559 
z
" clip-path="url(#pb7753b6fca)" style="fill: #de4968; stroke: #ffffff; stroke-width: 5"/>
    <path d="M 261.131756 253.112319 
Q 260.471935 253.037388 260.034052 253.445271 
Q 259.597897 253.851777 259.508685 254.637353 
Q 259.420002 255.418271 259.753369 255.916884 
Q 260.088464 256.414121 260.748286 256.489052 
Q 261.408107 256.563983 261.844615 256.154372 
Q 262.281298 255.743207 262.369981 254.962289 
Q 262.459193 254.176714 262.125297 253.682758 
Q 261.791578 253.18725 261.131756 253.112319 
z
M 263.425979 250.260794 
L 263.324602 251.153494 
Q 262.974849 250.93765 262.609541 250.803385 
Q 262.244409 250.667567 261.874909 250.625605 
Q 260.904584 250.515413 260.317849 251.112395 
Q 259.732668 251.709553 259.509308 253.025567 
Q 259.842928 252.635722 260.300094 252.45962 
Q 260.758812 252.283695 261.277354 252.342582 
Q 262.368776 252.466527 262.926921 253.201387 
Q 263.485242 253.934695 263.355832 255.074245 
Q 263.229066 256.190508 262.492551 256.790923 
Q 261.756212 257.389786 260.660132 257.265313 
Q 259.40259 257.122503 258.847422 256.08448 
Q 258.29243 255.044905 258.500121 253.216035 
Q 258.695118 251.498946 259.626203 250.569949 
Q 260.557287 249.640952 261.929716 249.796809 
Q 262.299216 249.83877 262.666639 249.954405 
Q 263.034063 250.070041 263.425979 250.260794 
z
M 268.198604 251.505712 
L 265.284701 255.092007 
L 267.75942 255.373042 
L 268.198604 251.505712 
z
M 268.037855 250.622559 
L 269.270557 250.762547 
L 268.734403 255.483764 
L 269.768382 255.601185 
L 269.67582 256.416259 
L 268.641841 256.298838 
L 268.447902 258.006611 
L 267.472919 257.895889 
L 267.666858 256.188116 
L 264.397249 255.816811 
L 264.50462 254.871325 
L 268.037855 250.622559 
z
" clip-path="url(#pb7753b6fca)" style="fill: #de4968"/>
   </g>
   <g id="text_20">
    <path d="M 322.10499 170.496911 
L 323.497286 169.686583 
L 320.699258 164.879042 
L 319.360914 166.06474 
L 318.908985 165.288241 
L 320.239227 164.107259 
L 321.09135 163.611317 
L 324.341306 169.195356 
L 325.733603 168.385028 
L 326.150949 169.102108 
L 322.522336 171.21399 
L 322.10499 170.496911 
z
M 328.189871 166.95546 
L 331.164874 165.223983 
L 331.58222 165.941063 
L 327.582239 168.269085 
L 327.164892 167.552006 
Q 327.35732 166.767484 327.702575 165.434816 
Q 328.048395 164.100012 328.120068 163.729265 
Q 328.262022 163.031971 328.238587 162.618953 
Q 328.216502 162.20515 328.037302 161.897251 
Q 327.744924 161.39489 327.208546 161.284025 
Q 326.671382 161.17181 326.10555 161.501128 
Q 325.704472 161.734559 325.339783 162.133022 
Q 324.976445 162.530698 324.635085 163.109025 
L 324.133641 162.247449 
Q 324.527903 161.741381 324.913591 161.375893 
Q 325.30063 161.00962 325.671999 160.79348 
Q 326.651063 160.223657 327.518404 160.375114 
Q 328.384959 160.525221 328.861252 161.343583 
Q 329.08761 161.732507 329.144541 162.165803 
Q 329.202037 162.596962 329.092251 163.293613 
Q 329.05844 163.477808 328.832931 164.391864 
Q 328.608772 165.305133 328.189871 166.95546 
z
M 333.452765 160.846152 
Q 332.84507 161.199835 332.686076 161.728068 
Q 332.528432 162.255514 332.859322 162.824047 
Q 333.190999 163.393929 333.727477 163.517391 
Q 334.265306 163.640067 334.873 163.286384 
Q 335.480695 162.9327 335.640254 162.402331 
Q 335.800377 161.869826 335.471059 161.303994 
Q 335.140169 160.735462 334.60234 160.612786 
Q 334.065862 160.489324 333.452765 160.846152 
z
M 332.390004 160.980178 
Q 331.763132 161.164236 331.238086 160.967229 
Q 330.713605 160.768086 330.39922 160.227913 
Q 329.959866 159.473021 330.241901 158.721317 
Q 330.525285 157.968827 331.461135 157.424155 
Q 332.402387 156.876339 333.193946 157.003202 
Q 333.985506 157.130066 334.424859 157.884958 
Q 334.739245 158.425131 334.65198 158.980315 
Q 334.56528 159.533363 334.099652 159.985149 
Q 334.798761 159.769896 335.38542 159.988896 
Q 335.972643 160.205759 336.323182 160.808052 
Q 336.856851 161.724995 336.583076 162.540591 
Q 336.308516 163.354837 335.265982 163.9616 
Q 334.224798 164.567577 333.37985 164.404895 
Q 332.535466 164.240077 332.001797 163.323133 
Q 331.651258 162.72084 331.754106 162.10235 
Q 331.857519 161.481723 332.390004 160.980178 
z
M 331.294449 159.815354 
Q 331.578968 160.304211 332.043716 160.400721 
Q 332.509815 160.496445 333.062142 160.174987 
Q 333.611768 159.8551 333.761466 159.400976 
Q 333.912515 158.946067 333.627997 158.45721 
Q 333.342692 157.967003 332.872542 157.873637 
Q 332.403743 157.779485 331.854117 158.099372 
Q 331.30179 158.42083 331.154792 158.873382 
Q 331.009145 159.325147 331.294449 159.815354 
z
" clip-path="url(#pb7753b6fca)" style="fill: #fe9f6d; stroke: #ffffff; stroke-width: 5"/>
    <path d="M 322.10499 170.496911 
L 323.497286 169.686583 
L 320.699258 164.879042 
L 319.360914 166.06474 
L 318.908985 165.288241 
L 320.239227 164.107259 
L 321.09135 163.611317 
L 324.341306 169.195356 
L 325.733603 168.385028 
L 326.150949 169.102108 
L 322.522336 171.21399 
L 322.10499 170.496911 
z
M 328.189871 166.95546 
L 331.164874 165.223983 
L 331.58222 165.941063 
L 327.582239 168.269085 
L 327.164892 167.552006 
Q 327.35732 166.767484 327.702575 165.434816 
Q 328.048395 164.100012 328.120068 163.729265 
Q 328.262022 163.031971 328.238587 162.618953 
Q 328.216502 162.20515 328.037302 161.897251 
Q 327.744924 161.39489 327.208546 161.284025 
Q 326.671382 161.17181 326.10555 161.501128 
Q 325.704472 161.734559 325.339783 162.133022 
Q 324.976445 162.530698 324.635085 163.109025 
L 324.133641 162.247449 
Q 324.527903 161.741381 324.913591 161.375893 
Q 325.30063 161.00962 325.671999 160.79348 
Q 326.651063 160.223657 327.518404 160.375114 
Q 328.384959 160.525221 328.861252 161.343583 
Q 329.08761 161.732507 329.144541 162.165803 
Q 329.202037 162.596962 329.092251 163.293613 
Q 329.05844 163.477808 328.832931 164.391864 
Q 328.608772 165.305133 328.189871 166.95546 
z
M 333.452765 160.846152 
Q 332.84507 161.199835 332.686076 161.728068 
Q 332.528432 162.255514 332.859322 162.824047 
Q 333.190999 163.393929 333.727477 163.517391 
Q 334.265306 163.640067 334.873 163.286384 
Q 335.480695 162.9327 335.640254 162.402331 
Q 335.800377 161.869826 335.471059 161.303994 
Q 335.140169 160.735462 334.60234 160.612786 
Q 334.065862 160.489324 333.452765 160.846152 
z
M 332.390004 160.980178 
Q 331.763132 161.164236 331.238086 160.967229 
Q 330.713605 160.768086 330.39922 160.227913 
Q 329.959866 159.473021 330.241901 158.721317 
Q 330.525285 157.968827 331.461135 157.424155 
Q 332.402387 156.876339 333.193946 157.003202 
Q 333.985506 157.130066 334.424859 157.884958 
Q 334.739245 158.425131 334.65198 158.980315 
Q 334.56528 159.533363 334.099652 159.985149 
Q 334.798761 159.769896 335.38542 159.988896 
Q 335.972643 160.205759 336.323182 160.808052 
Q 336.856851 161.724995 336.583076 162.540591 
Q 336.308516 163.354837 335.265982 163.9616 
Q 334.224798 164.567577 333.37985 164.404895 
Q 332.535466 164.240077 332.001797 163.323133 
Q 331.651258 162.72084 331.754106 162.10235 
Q 331.857519 161.481723 332.390004 160.980178 
z
M 331.294449 159.815354 
Q 331.578968 160.304211 332.043716 160.400721 
Q 332.509815 160.496445 333.062142 160.174987 
Q 333.611768 159.8551 333.761466 159.400976 
Q 333.912515 158.946067 333.627997 158.45721 
Q 333.342692 157.967003 332.872542 157.873637 
Q 332.403743 157.779485 331.854117 158.099372 
Q 331.30179 158.42083 331.154792 158.873382 
Q 331.009145 159.325147 331.294449 159.815354 
z
" clip-path="url(#pb7753b6fca)" style="fill: #fe9f6d"/>
   </g>
   <g id="patch_3">
    <path d="M 53.328125 301.735725 
L 53.328125 35.623725 
" style="fill: none; stroke: #cccccc; stroke-width: 0.8; stroke-linejoin: miter; stroke-linecap: square"/>
   </g>
   <g id="patch_4">
    <path d="M 410.448125 301.735725 
L 410.448125 35.623725 
" style="fill: none; stroke: #cccccc; stroke-width: 0.8; stroke-linejoin: miter; stroke-linecap: square"/>
   </g>
   <g id="patch_5">
    <path d="M 53.328125 301.735725 
L 410.448125 301.735725 
" style="fill: none; stroke: #cccccc; stroke-width: 0.8; stroke-linejoin: miter; stroke-linecap: square"/>
   </g>
   <g id="patch_6">
    <path d="M 53.328125 35.623725 
L 410.448125 35.623725 
" style="fill: none; stroke: #cccccc; stroke-width: 0.8; stroke-linejoin: miter; stroke-linecap: square"/>
   </g>
   <g id="text_21">
    <!-- Block Size = 4M, Read-Write Type = Sequential Balanced 1:1 -->
    <g style="fill: #262626; opacity: 0.75" transform="translate(79.679531 30.882918) scale(0.1 -0.1)">
     <defs>
      <path id="DejaVuSans-42" d="M 1259 2228 
L 1259 519 
L 2272 519 
Q 2781 519 3026 730 
Q 3272 941 3272 1375 
Q 3272 1813 3026 2020 
Q 2781 2228 2272 2228 
L 1259 2228 
z
M 1259 4147 
L 1259 2741 
L 2194 2741 
Q 2656 2741 2882 2914 
Q 3109 3088 3109 3444 
Q 3109 3797 2882 3972 
Q 2656 4147 2194 4147 
L 1259 4147 
z
M 628 4666 
L 2241 4666 
Q 2963 4666 3353 4366 
Q 3744 4066 3744 3513 
Q 3744 3084 3544 2831 
Q 3344 2578 2956 2516 
Q 3422 2416 3680 2098 
Q 3938 1781 3938 1306 
Q 3938 681 3513 340 
Q 3088 0 2303 0 
L 628 0 
L 628 4666 
z
" transform="scale(0.015625)"/>
      <path id="DejaVuSans-6c" d="M 603 4863 
L 1178 4863 
L 1178 0 
L 603 0 
L 603 4863 
z
" transform="scale(0.015625)"/>
      <path id="DejaVuSans-6f" d="M 1959 3097 
Q 1497 3097 1228 2736 
Q 959 2375 959 1747 
Q 959 1119 1226 758 
Q 1494 397 1959 397 
Q 2419 397 2687 759 
Q 2956 1122 2956 1747 
Q 2956 2369 2687 2733 
Q 2419 3097 1959 3097 
z
M 1959 3584 
Q 2709 3584 3137 3096 
Q 3566 2609 3566 1747 
Q 3566 888 3137 398 
Q 2709 -91 1959 -91 
Q 1206 -91 779 398 
Q 353 888 353 1747 
Q 353 2609 779 3096 
Q 1206 3584 1959 3584 
z
" transform="scale(0.015625)"/>
      <path id="DejaVuSans-63" d="M 3122 3366 
L 3122 2828 
Q 2878 2963 2633 3030 
Q 2388 3097 2138 3097 
Q 1578 3097 1268 2742 
Q 959 2388 959 1747 
Q 959 1106 1268 751 
Q 1578 397 2138 397 
Q 2388 397 2633 464 
Q 2878 531 3122 666 
L 3122 134 
Q 2881 22 2623 -34 
Q 2366 -91 2075 -91 
Q 1284 -91 818 406 
Q 353 903 353 1747 
Q 353 2603 823 3093 
Q 1294 3584 2113 3584 
Q 2378 3584 2631 3529 
Q 2884 3475 3122 3366 
z
" transform="scale(0.015625)"/>
      <path id="DejaVuSans-6b" d="M 581 4863 
L 1159 4863 
L 1159 1991 
L 2875 3500 
L 3609 3500 
L 1753 1863 
L 3688 0 
L 2938 0 
L 1159 1709 
L 1159 0 
L 581 0 
L 581 4863 
z
" transform="scale(0.015625)"/>
      <path id="DejaVuSans-69" d="M 603 3500 
L 1178 3500 
L 1178 0 
L 603 0 
L 603 3500 
z
M 603 4863 
L 1178 4863 
L 1178 4134 
L 603 4134 
L 603 4863 
z
" transform="scale(0.015625)"/>
      <path id="DejaVuSans-7a" d="M 353 3500 
L 3084 3500 
L 3084 2975 
L 922 459 
L 3084 459 
L 3084 0 
L 275 0 
L 275 525 
L 2438 3041 
L 353 3041 
L 353 3500 
z
" transform="scale(0.015625)"/>
      <path id="DejaVuSans-3d" d="M 678 2906 
L 4684 2906 
L 4684 2381 
L 678 2381 
L 678 2906 
z
M 678 1631 
L 4684 1631 
L 4684 1100 
L 678 1100 
L 678 1631 
z
" transform="scale(0.015625)"/>
      <path id="DejaVuSans-4d" d="M 628 4666 
L 1569 4666 
L 2759 1491 
L 3956 4666 
L 4897 4666 
L 4897 0 
L 4281 0 
L 4281 4097 
L 3078 897 
L 2444 897 
L 1241 4097 
L 1241 0 
L 628 0 
L 628 4666 
z
" transform="scale(0.015625)"/>
      <path id="DejaVuSans-2c" d="M 750 794 
L 1409 794 
L 1409 256 
L 897 -744 
L 494 -744 
L 750 256 
L 750 794 
z
" transform="scale(0.015625)"/>
      <path id="DejaVuSans-52" d="M 2841 2188 
Q 3044 2119 3236 1894 
Q 3428 1669 3622 1275 
L 4263 0 
L 3584 0 
L 2988 1197 
Q 2756 1666 2539 1819 
Q 2322 1972 1947 1972 
L 1259 1972 
L 1259 0 
L 628 0 
L 628 4666 
L 2053 4666 
Q 2853 4666 3247 4331 
Q 3641 3997 3641 3322 
Q 3641 2881 3436 2590 
Q 3231 2300 2841 2188 
z
M 1259 4147 
L 1259 2491 
L 2053 2491 
Q 2509 2491 2742 2702 
Q 2975 2913 2975 3322 
Q 2975 3731 2742 3939 
Q 2509 4147 2053 4147 
L 1259 4147 
z
" transform="scale(0.015625)"/>
      <path id="DejaVuSans-61" d="M 2194 1759 
Q 1497 1759 1228 1600 
Q 959 1441 959 1056 
Q 959 750 1161 570 
Q 1363 391 1709 391 
Q 2188 391 2477 730 
Q 2766 1069 2766 1631 
L 2766 1759 
L 2194 1759 
z
M 3341 1997 
L 3341 0 
L 2766 0 
L 2766 531 
Q 2569 213 2275 61 
Q 1981 -91 1556 -91 
Q 1019 -91 701 211 
Q 384 513 384 1019 
Q 384 1609 779 1909 
Q 1175 2209 1959 2209 
L 2766 2209 
L 2766 2266 
Q 2766 2663 2505 2880 
Q 2244 3097 1772 3097 
Q 1472 3097 1187 3025 
Q 903 2953 641 2809 
L 641 3341 
Q 956 3463 1253 3523 
Q 1550 3584 1831 3584 
Q 2591 3584 2966 3190 
Q 3341 2797 3341 1997 
z
" transform="scale(0.015625)"/>
      <path id="DejaVuSans-64" d="M 2906 2969 
L 2906 4863 
L 3481 4863 
L 3481 0 
L 2906 0 
L 2906 525 
Q 2725 213 2448 61 
Q 2172 -91 1784 -91 
Q 1150 -91 751 415 
Q 353 922 353 1747 
Q 353 2572 751 3078 
Q 1150 3584 1784 3584 
Q 2172 3584 2448 3432 
Q 2725 3281 2906 2969 
z
M 947 1747 
Q 947 1113 1208 752 
Q 1469 391 1925 391 
Q 2381 391 2643 752 
Q 2906 1113 2906 1747 
Q 2906 2381 2643 2742 
Q 2381 3103 1925 3103 
Q 1469 3103 1208 2742 
Q 947 2381 947 1747 
z
" transform="scale(0.015625)"/>
      <path id="DejaVuSans-2d" d="M 313 2009 
L 1997 2009 
L 1997 1497 
L 313 1497 
L 313 2009 
z
" transform="scale(0.015625)"/>
      <path id="DejaVuSans-57" d="M 213 4666 
L 850 4666 
L 1831 722 
L 2809 4666 
L 3519 4666 
L 4500 722 
L 5478 4666 
L 6119 4666 
L 4947 0 
L 4153 0 
L 3169 4050 
L 2175 0 
L 1381 0 
L 213 4666 
z
" transform="scale(0.015625)"/>
      <path id="DejaVuSans-72" d="M 2631 2963 
Q 2534 3019 2420 3045 
Q 2306 3072 2169 3072 
Q 1681 3072 1420 2755 
Q 1159 2438 1159 1844 
L 1159 0 
L 581 0 
L 581 3500 
L 1159 3500 
L 1159 2956 
Q 1341 3275 1631 3429 
Q 1922 3584 2338 3584 
Q 2397 3584 2469 3576 
Q 2541 3569 2628 3553 
L 2631 2963 
z
" transform="scale(0.015625)"/>
      <path id="DejaVuSans-54" d="M -19 4666 
L 3928 4666 
L 3928 4134 
L 2272 4134 
L 2272 0 
L 1638 0 
L 1638 4134 
L -19 4134 
L -19 4666 
z
" transform="scale(0.015625)"/>
      <path id="DejaVuSans-79" d="M 2059 -325 
Q 1816 -950 1584 -1140 
Q 1353 -1331 966 -1331 
L 506 -1331 
L 506 -850 
L 844 -850 
Q 1081 -850 1212 -737 
Q 1344 -625 1503 -206 
L 1606 56 
L 191 3500 
L 800 3500 
L 1894 763 
L 2988 3500 
L 3597 3500 
L 2059 -325 
z
" transform="scale(0.015625)"/>
      <path id="DejaVuSans-71" d="M 947 1747 
Q 947 1113 1208 752 
Q 1469 391 1925 391 
Q 2381 391 2643 752 
Q 2906 1113 2906 1747 
Q 2906 2381 2643 2742 
Q 2381 3103 1925 3103 
Q 1469 3103 1208 2742 
Q 947 2381 947 1747 
z
M 2906 525 
Q 2725 213 2448 61 
Q 2172 -91 1784 -91 
Q 1150 -91 751 415 
Q 353 922 353 1747 
Q 353 2572 751 3078 
Q 1150 3584 1784 3584 
Q 2172 3584 2448 3432 
Q 2725 3281 2906 2969 
L 2906 3500 
L 3481 3500 
L 3481 -1331 
L 2906 -1331 
L 2906 525 
z
" transform="scale(0.015625)"/>
      <path id="DejaVuSans-75" d="M 544 1381 
L 544 3500 
L 1119 3500 
L 1119 1403 
Q 1119 906 1312 657 
Q 1506 409 1894 409 
Q 2359 409 2629 706 
Q 2900 1003 2900 1516 
L 2900 3500 
L 3475 3500 
L 3475 0 
L 2900 0 
L 2900 538 
Q 2691 219 2414 64 
Q 2138 -91 1772 -91 
Q 1169 -91 856 284 
Q 544 659 544 1381 
z
M 1991 3584 
L 1991 3584 
z
" transform="scale(0.015625)"/>
      <path id="DejaVuSans-6e" d="M 3513 2113 
L 3513 0 
L 2938 0 
L 2938 2094 
Q 2938 2591 2744 2837 
Q 2550 3084 2163 3084 
Q 1697 3084 1428 2787 
Q 1159 2491 1159 1978 
L 1159 0 
L 581 0 
L 581 3500 
L 1159 3500 
L 1159 2956 
Q 1366 3272 1645 3428 
Q 1925 3584 2291 3584 
Q 2894 3584 3203 3211 
Q 3513 2838 3513 2113 
z
" transform="scale(0.015625)"/>
      <path id="DejaVuSans-3a" d="M 750 794 
L 1409 794 
L 1409 0 
L 750 0 
L 750 794 
z
M 750 3309 
L 1409 3309 
L 1409 2516 
L 750 2516 
L 750 3309 
z
" transform="scale(0.015625)"/>
     </defs>
     <use xlink:href="#DejaVuSans-42"/>
     <use xlink:href="#DejaVuSans-6c" transform="translate(68.603516 0)"/>
     <use xlink:href="#DejaVuSans-6f" transform="translate(96.386719 0)"/>
     <use xlink:href="#DejaVuSans-63" transform="translate(157.568359 0)"/>
     <use xlink:href="#DejaVuSans-6b" transform="translate(212.548828 0)"/>
     <use xlink:href="#DejaVuSans-20" transform="translate(270.458984 0)"/>
     <use xlink:href="#DejaVuSans-53" transform="translate(302.246094 0)"/>
     <use xlink:href="#DejaVuSans-69" transform="translate(365.722656 0)"/>
     <use xlink:href="#DejaVuSans-7a" transform="translate(393.505859 0)"/>
     <use xlink:href="#DejaVuSans-65" transform="translate(445.996094 0)"/>
     <use xlink:href="#DejaVuSans-20" transform="translate(507.519531 0)"/>
     <use xlink:href="#DejaVuSans-3d" transform="translate(539.306641 0)"/>
     <use xlink:href="#DejaVuSans-20" transform="translate(623.095703 0)"/>
     <use xlink:href="#DejaVuSans-34" transform="translate(654.882812 0)"/>
     <use xlink:href="#DejaVuSans-4d" transform="translate(718.505859 0)"/>
     <use xlink:href="#DejaVuSans-2c" transform="translate(804.785156 0)"/>
     <use xlink:href="#DejaVuSans-20" transform="translate(836.572266 0)"/>
     <use xlink:href="#DejaVuSans-52" transform="translate(868.359375 0)"/>
     <use xlink:href="#DejaVuSans-65" transform="translate(933.341797 0)"/>
     <use xlink:href="#DejaVuSans-61" transform="translate(994.865234 0)"/>
     <use xlink:href="#DejaVuSans-64" transform="translate(1056.144531 0)"/>
     <use xlink:href="#DejaVuSans-2d" transform="translate(1119.621094 0)"/>
     <use xlink:href="#DejaVuSans-57" transform="translate(1151.705078 0)"/>
     <use xlink:href="#DejaVuSans-72" transform="translate(1246.082031 0)"/>
     <use xlink:href="#DejaVuSans-69" transform="translate(1287.195312 0)"/>
     <use xlink:href="#DejaVuSans-74" transform="translate(1314.978516 0)"/>
     <use xlink:href="#DejaVuSans-65" transform="translate(1354.1875 0)"/>
     <use xlink:href="#DejaVuSans-20" transform="translate(1415.710938 0)"/>
     <use xlink:href="#DejaVuSans-54" transform="translate(1447.498047 0)"/>
     <use xlink:href="#DejaVuSans-79" transform="translate(1492.957031 0)"/>
     <use xlink:href="#DejaVuSans-70" transform="translate(1552.136719 0)"/>
     <use xlink:href="#DejaVuSans-65" transform="translate(1615.613281 0)"/>
     <use xlink:href="#DejaVuSans-20" transform="translate(1677.136719 0)"/>
     <use xlink:href="#DejaVuSans-3d" transform="translate(1708.923828 0)"/>
     <use xlink:href="#DejaVuSans-20" transform="translate(1792.712891 0)"/>
     <use xlink:href="#DejaVuSans-53" transform="translate(1824.5 0)"/>
     <use xlink:href="#DejaVuSans-65" transform="translate(1887.976562 0)"/>
     <use xlink:href="#DejaVuSans-71" transform="translate(1949.5 0)"/>
     <use xlink:href="#DejaVuSans-75" transform="translate(2012.976562 0)"/>
     <use xlink:href="#DejaVuSans-65" transform="translate(2076.355469 0)"/>
     <use xlink:href="#DejaVuSans-6e" transform="translate(2137.878906 0)"/>
     <use xlink:href="#DejaVuSans-74" transform="translate(2201.257812 0)"/>
     <use xlink:href="#DejaVuSans-69" transform="translate(2240.466797 0)"/>
     <use xlink:href="#DejaVuSans-61" transform="translate(2268.25 0)"/>
     <use xlink:href="#DejaVuSans-6c" transform="translate(2329.529297 0)"/>
     <use xlink:href="#DejaVuSans-20" transform="translate(2357.3125 0)"/>
     <use xlink:href="#DejaVuSans-42" transform="translate(2389.099609 0)"/>
     <use xlink:href="#DejaVuSans-61" transform="translate(2457.703125 0)"/>
     <use xlink:href="#DejaVuSans-6c" transform="translate(2518.982422 0)"/>
     <use xlink:href="#DejaVuSans-61" transform="translate(2546.765625 0)"/>
     <use xlink:href="#DejaVuSans-6e" transform="translate(2608.044922 0)"/>
     <use xlink:href="#DejaVuSans-63" transform="translate(2671.423828 0)"/>
     <use xlink:href="#DejaVuSans-65" transform="translate(2726.404297 0)"/>
     <use xlink:href="#DejaVuSans-64" transform="translate(2787.927734 0)"/>
     <use xlink:href="#DejaVuSans-20" transform="translate(2851.404297 0)"/>
     <use xlink:href="#DejaVuSans-31" transform="translate(2883.191406 0)"/>
     <use xlink:href="#DejaVuSans-3a" transform="translate(2946.814453 0)"/>
     <use xlink:href="#DejaVuSans-31" transform="translate(2980.505859 0)"/>
    </g>
   </g>
   <g id="text_22">
    <!-- IOPS vs IO Depth -->
    <g style="fill: #262626" transform="translate(174.270312 16.318125) scale(0.12 -0.12)">
     <defs>
      <path id="DejaVuSans-Bold-49" d="M 588 4666 
L 1791 4666 
L 1791 0 
L 588 0 
L 588 4666 
z
" transform="scale(0.015625)"/>
      <path id="DejaVuSans-Bold-4f" d="M 2719 3878 
Q 2169 3878 1866 3472 
Q 1563 3066 1563 2328 
Q 1563 1594 1866 1187 
Q 2169 781 2719 781 
Q 3272 781 3575 1187 
Q 3878 1594 3878 2328 
Q 3878 3066 3575 3472 
Q 3272 3878 2719 3878 
z
M 2719 4750 
Q 3844 4750 4481 4106 
Q 5119 3463 5119 2328 
Q 5119 1197 4481 553 
Q 3844 -91 2719 -91 
Q 1597 -91 958 553 
Q 319 1197 319 2328 
Q 319 3463 958 4106 
Q 1597 4750 2719 4750 
z
" transform="scale(0.015625)"/>
      <path id="DejaVuSans-Bold-50" d="M 588 4666 
L 2584 4666 
Q 3475 4666 3951 4270 
Q 4428 3875 4428 3144 
Q 4428 2409 3951 2014 
Q 3475 1619 2584 1619 
L 1791 1619 
L 1791 0 
L 588 0 
L 588 4666 
z
M 1791 3794 
L 1791 2491 
L 2456 2491 
Q 2806 2491 2997 2661 
Q 3188 2831 3188 3144 
Q 3188 3456 2997 3625 
Q 2806 3794 2456 3794 
L 1791 3794 
z
" transform="scale(0.015625)"/>
      <path id="DejaVuSans-Bold-53" d="M 3834 4519 
L 3834 3531 
Q 3450 3703 3084 3790 
Q 2719 3878 2394 3878 
Q 1963 3878 1756 3759 
Q 1550 3641 1550 3391 
Q 1550 3203 1689 3098 
Q 1828 2994 2194 2919 
L 2706 2816 
Q 3484 2659 3812 2340 
Q 4141 2022 4141 1434 
Q 4141 663 3683 286 
Q 3225 -91 2284 -91 
Q 1841 -91 1394 -6 
Q 947 78 500 244 
L 500 1259 
Q 947 1022 1364 901 
Q 1781 781 2169 781 
Q 2563 781 2772 912 
Q 2981 1044 2981 1288 
Q 2981 1506 2839 1625 
Q 2697 1744 2272 1838 
L 1806 1941 
Q 1106 2091 782 2419 
Q 459 2747 459 3303 
Q 459 4000 909 4375 
Q 1359 4750 2203 4750 
Q 2588 4750 2994 4692 
Q 3400 4634 3834 4519 
z
" transform="scale(0.015625)"/>
      <path id="DejaVuSans-Bold-20" transform="scale(0.015625)"/>
      <path id="DejaVuSans-Bold-76" d="M 97 3500 
L 1216 3500 
L 2088 1081 
L 2956 3500 
L 4078 3500 
L 2700 0 
L 1472 0 
L 97 3500 
z
" transform="scale(0.015625)"/>
      <path id="DejaVuSans-Bold-73" d="M 3272 3391 
L 3272 2541 
Q 2913 2691 2578 2766 
Q 2244 2841 1947 2841 
Q 1628 2841 1473 2761 
Q 1319 2681 1319 2516 
Q 1319 2381 1436 2309 
Q 1553 2238 1856 2203 
L 2053 2175 
Q 2913 2066 3209 1816 
Q 3506 1566 3506 1031 
Q 3506 472 3093 190 
Q 2681 -91 1863 -91 
Q 1516 -91 1145 -36 
Q 775 19 384 128 
L 384 978 
Q 719 816 1070 734 
Q 1422 653 1784 653 
Q 2113 653 2278 743 
Q 2444 834 2444 1013 
Q 2444 1163 2330 1236 
Q 2216 1309 1875 1350 
L 1678 1375 
Q 931 1469 631 1722 
Q 331 1975 331 2491 
Q 331 3047 712 3315 
Q 1094 3584 1881 3584 
Q 2191 3584 2531 3537 
Q 2872 3491 3272 3391 
z
" transform="scale(0.015625)"/>
      <path id="DejaVuSans-Bold-44" d="M 1791 3756 
L 1791 909 
L 2222 909 
Q 2959 909 3348 1275 
Q 3738 1641 3738 2338 
Q 3738 3031 3350 3393 
Q 2963 3756 2222 3756 
L 1791 3756 
z
M 588 4666 
L 1856 4666 
Q 2919 4666 3439 4514 
Q 3959 4363 4331 4000 
Q 4659 3684 4818 3271 
Q 4978 2859 4978 2338 
Q 4978 1809 4818 1395 
Q 4659 981 4331 666 
Q 3956 303 3431 151 
Q 2906 0 1856 0 
L 588 0 
L 588 4666 
z
" transform="scale(0.015625)"/>
      <path id="DejaVuSans-Bold-65" d="M 4031 1759 
L 4031 1441 
L 1416 1441 
Q 1456 1047 1700 850 
Q 1944 653 2381 653 
Q 2734 653 3104 758 
Q 3475 863 3866 1075 
L 3866 213 
Q 3469 63 3072 -14 
Q 2675 -91 2278 -91 
Q 1328 -91 801 392 
Q 275 875 275 1747 
Q 275 2603 792 3093 
Q 1309 3584 2216 3584 
Q 3041 3584 3536 3087 
Q 4031 2591 4031 1759 
z
M 2881 2131 
Q 2881 2450 2695 2645 
Q 2509 2841 2209 2841 
Q 1884 2841 1681 2658 
Q 1478 2475 1428 2131 
L 2881 2131 
z
" transform="scale(0.015625)"/>
      <path id="DejaVuSans-Bold-70" d="M 1656 506 
L 1656 -1331 
L 538 -1331 
L 538 3500 
L 1656 3500 
L 1656 2988 
Q 1888 3294 2169 3439 
Q 2450 3584 2816 3584 
Q 3463 3584 3878 3070 
Q 4294 2556 4294 1747 
Q 4294 938 3878 423 
Q 3463 -91 2816 -91 
Q 2450 -91 2169 54 
Q 1888 200 1656 506 
z
M 2400 2772 
Q 2041 2772 1848 2508 
Q 1656 2244 1656 1747 
Q 1656 1250 1848 986 
Q 2041 722 2400 722 
Q 2759 722 2948 984 
Q 3138 1247 3138 1747 
Q 3138 2247 2948 2509 
Q 2759 2772 2400 2772 
z
" transform="scale(0.015625)"/>
      <path id="DejaVuSans-Bold-74" d="M 1759 4494 
L 1759 3500 
L 2913 3500 
L 2913 2700 
L 1759 2700 
L 1759 1216 
Q 1759 972 1856 886 
Q 1953 800 2241 800 
L 2816 800 
L 2816 0 
L 1856 0 
Q 1194 0 917 276 
Q 641 553 641 1216 
L 641 2700 
L 84 2700 
L 84 3500 
L 641 3500 
L 641 4494 
L 1759 4494 
z
" transform="scale(0.015625)"/>
      <path id="DejaVuSans-Bold-68" d="M 4056 2131 
L 4056 0 
L 2931 0 
L 2931 347 
L 2931 1625 
Q 2931 2084 2911 2256 
Q 2891 2428 2841 2509 
Q 2775 2619 2662 2680 
Q 2550 2741 2406 2741 
Q 2056 2741 1856 2470 
Q 1656 2200 1656 1722 
L 1656 0 
L 538 0 
L 538 4863 
L 1656 4863 
L 1656 2988 
Q 1909 3294 2193 3439 
Q 2478 3584 2822 3584 
Q 3428 3584 3742 3212 
Q 4056 2841 4056 2131 
z
" transform="scale(0.015625)"/>
     </defs>
     <use xlink:href="#DejaVuSans-Bold-49"/>
     <use xlink:href="#DejaVuSans-Bold-4f" transform="translate(37.207031 0)"/>
     <use xlink:href="#DejaVuSans-Bold-50" transform="translate(122.216797 0)"/>
     <use xlink:href="#DejaVuSans-Bold-53" transform="translate(195.507812 0)"/>
     <use xlink:href="#DejaVuSans-Bold-20" transform="translate(267.529297 0)"/>
     <use xlink:href="#DejaVuSans-Bold-76" transform="translate(302.34375 0)"/>
     <use xlink:href="#DejaVuSans-Bold-73" transform="translate(367.529297 0)"/>
     <use xlink:href="#DejaVuSans-Bold-20" transform="translate(427.050781 0)"/>
     <use xlink:href="#DejaVuSans-Bold-49" transform="translate(461.865234 0)"/>
     <use xlink:href="#DejaVuSans-Bold-4f" transform="translate(499.072266 0)"/>
     <use xlink:href="#DejaVuSans-Bold-20" transform="translate(584.082031 0)"/>
     <use xlink:href="#DejaVuSans-Bold-44" transform="translate(618.896484 0)"/>
     <use xlink:href="#DejaVuSans-Bold-65" transform="translate(701.904297 0)"/>
     <use xlink:href="#DejaVuSans-Bold-70" transform="translate(769.726562 0)"/>
     <use xlink:href="#DejaVuSans-Bold-74" transform="translate(841.308594 0)"/>
     <use xlink:href="#DejaVuSans-Bold-68" transform="translate(889.111328 0)"/>
    </g>
   </g>
   <g id="legend_1">
    <g id="text_23">
     <!-- Number of Jobs -->
     <g style="fill: #262626" transform="translate(413.934375 142.08285) scale(0.1 -0.1)">
      <defs>
       <path id="DejaVuSans-4e" d="M 628 4666 
L 1478 4666 
L 3547 763 
L 3547 4666 
L 4159 4666 
L 4159 0 
L 3309 0 
L 1241 3903 
L 1241 0 
L 628 0 
L 628 4666 
z
" transform="scale(0.015625)"/>
       <path id="DejaVuSans-6d" d="M 3328 2828 
Q 3544 3216 3844 3400 
Q 4144 3584 4550 3584 
Q 5097 3584 5394 3201 
Q 5691 2819 5691 2113 
L 5691 0 
L 5113 0 
L 5113 2094 
Q 5113 2597 4934 2840 
Q 4756 3084 4391 3084 
Q 3944 3084 3684 2787 
Q 3425 2491 3425 1978 
L 3425 0 
L 2847 0 
L 2847 2094 
Q 2847 2600 2669 2842 
Q 2491 3084 2119 3084 
Q 1678 3084 1418 2786 
Q 1159 2488 1159 1978 
L 1159 0 
L 581 0 
L 581 3500 
L 1159 3500 
L 1159 2956 
Q 1356 3278 1631 3431 
Q 1906 3584 2284 3584 
Q 2666 3584 2933 3390 
Q 3200 3197 3328 2828 
z
" transform="scale(0.015625)"/>
       <path id="DejaVuSans-62" d="M 3116 1747 
Q 3116 2381 2855 2742 
Q 2594 3103 2138 3103 
Q 1681 3103 1420 2742 
Q 1159 2381 1159 1747 
Q 1159 1113 1420 752 
Q 1681 391 2138 391 
Q 2594 391 2855 752 
Q 3116 1113 3116 1747 
z
M 1159 2969 
Q 1341 3281 1617 3432 
Q 1894 3584 2278 3584 
Q 2916 3584 3314 3078 
Q 3713 2572 3713 1747 
Q 3713 922 3314 415 
Q 2916 -91 2278 -91 
Q 1894 -91 1617 61 
Q 1341 213 1159 525 
L 1159 0 
L 581 0 
L 581 4863 
L 1159 4863 
L 1159 2969 
z
" transform="scale(0.015625)"/>
       <path id="DejaVuSans-66" d="M 2375 4863 
L 2375 4384 
L 1825 4384 
Q 1516 4384 1395 4259 
Q 1275 4134 1275 3809 
L 1275 3500 
L 2222 3500 
L 2222 3053 
L 1275 3053 
L 1275 0 
L 697 0 
L 697 3053 
L 147 3053 
L 147 3500 
L 697 3500 
L 697 3744 
Q 697 4328 969 4595 
Q 1241 4863 1831 4863 
L 2375 4863 
z
" transform="scale(0.015625)"/>
       <path id="DejaVuSans-4a" d="M 628 4666 
L 1259 4666 
L 1259 325 
Q 1259 -519 939 -900 
Q 619 -1281 -91 -1281 
L -331 -1281 
L -331 -750 
L -134 -750 
Q 284 -750 456 -515 
Q 628 -281 628 325 
L 628 4666 
z
" transform="scale(0.015625)"/>
       <path id="DejaVuSans-73" d="M 2834 3397 
L 2834 2853 
Q 2591 2978 2328 3040 
Q 2066 3103 1784 3103 
Q 1356 3103 1142 2972 
Q 928 2841 928 2578 
Q 928 2378 1081 2264 
Q 1234 2150 1697 2047 
L 1894 2003 
Q 2506 1872 2764 1633 
Q 3022 1394 3022 966 
Q 3022 478 2636 193 
Q 2250 -91 1575 -91 
Q 1294 -91 989 -36 
Q 684 19 347 128 
L 347 722 
Q 666 556 975 473 
Q 1284 391 1588 391 
Q 1994 391 2212 530 
Q 2431 669 2431 922 
Q 2431 1156 2273 1281 
Q 2116 1406 1581 1522 
L 1381 1569 
Q 847 1681 609 1914 
Q 372 2147 372 2553 
Q 372 3047 722 3315 
Q 1072 3584 1716 3584 
Q 2034 3584 2315 3537 
Q 2597 3491 2834 3397 
z
" transform="scale(0.015625)"/>
      </defs>
      <use xlink:href="#DejaVuSans-4e"/>
      <use xlink:href="#DejaVuSans-75" transform="translate(74.804688 0)"/>
      <use xlink:href="#DejaVuSans-6d" transform="translate(138.183594 0)"/>
      <use xlink:href="#DejaVuSans-62" transform="translate(235.595703 0)"/>
      <use xlink:href="#DejaVuSans-65" transform="translate(299.072266 0)"/>
      <use xlink:href="#DejaVuSans-72" transform="translate(360.595703 0)"/>
      <use xlink:href="#DejaVuSans-20" transform="translate(401.708984 0)"/>
      <use xlink:href="#DejaVuSans-6f" transform="translate(433.496094 0)"/>
      <use xlink:href="#DejaVuSans-66" transform="translate(494.677734 0)"/>
      <use xlink:href="#DejaVuSans-20" transform="translate(529.882812 0)"/>
      <use xlink:href="#DejaVuSans-4a" transform="translate(561.669922 0)"/>
      <use xlink:href="#DejaVuSans-6f" transform="translate(591.162109 0)"/>
      <use xlink:href="#DejaVuSans-62" transform="translate(652.34375 0)"/>
      <use xlink:href="#DejaVuSans-73" transform="translate(715.820312 0)"/>
     </g>
    </g>
    <g id="line2d_23">
     <path d="M 428.7875 153.260975 
L 438.7875 153.260975 
L 448.7875 153.260975 
" style="fill: none; stroke: #3b0f70; stroke-width: 1.5; stroke-linecap: round"/>
    </g>
    <g id="text_24">
     <!-- 16 -->
     <g style="fill: #262626" transform="translate(456.7875 156.760975) scale(0.1 -0.1)">
      <use xlink:href="#DejaVuSans-31"/>
      <use xlink:href="#DejaVuSans-36" transform="translate(63.623047 0)"/>
     </g>
    </g>
    <g id="line2d_24">
     <path d="M 428.7875 167.9391 
L 438.7875 167.9391 
L 448.7875 167.9391 
" style="fill: none; stroke: #8c2981; stroke-width: 1.5; stroke-linecap: round"/>
    </g>
    <g id="text_25">
     <!-- 32 -->
     <g style="fill: #262626" transform="translate(456.7875 171.4391) scale(0.1 -0.1)">
      <use xlink:href="#DejaVuSans-33"/>
      <use xlink:href="#DejaVuSans-32" transform="translate(63.623047 0)"/>
     </g>
    </g>
    <g id="line2d_25">
     <path d="M 428.7875 182.617225 
L 438.7875 182.617225 
L 448.7875 182.617225 
" style="fill: none; stroke: #de4968; stroke-width: 1.5; stroke-linecap: round"/>
    </g>
    <g id="text_26">
     <!-- 64 -->
     <g style="fill: #262626" transform="translate(456.7875 186.117225) scale(0.1 -0.1)">
      <use xlink:href="#DejaVuSans-36"/>
      <use xlink:href="#DejaVuSans-34" transform="translate(63.623047 0)"/>
     </g>
    </g>
    <g id="line2d_26">
     <path d="M 428.7875 197.29535 
L 438.7875 197.29535 
L 448.7875 197.29535 
" style="fill: none; stroke: #fe9f6d; stroke-width: 1.5; stroke-linecap: round"/>
    </g>
    <g id="text_27">
     <!-- 128 -->
     <g style="fill: #262626" transform="translate(456.7875 200.79535) scale(0.1 -0.1)">
      <use xlink:href="#DejaVuSans-31"/>
      <use xlink:href="#DejaVuSans-32" transform="translate(63.623047 0)"/>
      <use xlink:href="#DejaVuSans-38" transform="translate(127.246094 0)"/>
     </g>
    </g>
   </g>
  </g>
 </g>
 <defs>
  <clipPath id="pb7753b6fca">
   <rect x="53.328125" y="35.623725" width="357.12" height="266.112"/>
  </clipPath>
 </defs>
</svg>
