<?xml version="1.0" encoding="utf-8" standalone="no"?>
<!DOCTYPE svg PUBLIC "-//W3C//DTD SVG 1.1//EN"
  "http://www.w3.org/Graphics/SVG/1.1/DTD/svg11.dtd">
<svg xmlns:xlink="http://www.w3.org/1999/xlink" width="508.290625pt" height="339.291975pt" viewBox="0 0 508.290625 339.291975" xmlns="http://www.w3.org/2000/svg" version="1.1">
 <metadata>
  <rdf:RDF xmlns:dc="http://purl.org/dc/elements/1.1/" xmlns:cc="http://creativecommons.org/ns#" xmlns:rdf="http://www.w3.org/1999/02/22-rdf-syntax-ns#">
   <cc:Work>
    <dc:type rdf:resource="http://purl.org/dc/dcmitype/StillImage"/>
    <dc:date>2025-09-11T11:34:26.252467</dc:date>
    <dc:format>image/svg+xml</dc:format>
    <dc:creator>
     <cc:Agent>
      <dc:title>Matplotlib v3.10.6, https://matplotlib.org/</dc:title>
     </cc:Agent>
    </dc:creator>
   </cc:Work>
  </rdf:RDF>
 </metadata>
 <defs>
  <style type="text/css">*{stroke-linejoin: round; stroke-linecap: butt}</style>
 </defs>
 <g id="figure_1">
  <g id="patch_1">
   <path d="M 0 339.291975 
L 508.290625 339.291975 
L 508.290625 0 
L 0 0 
z
" style="fill: #ffffff"/>
  </g>
  <g id="axes_1">
   <g id="patch_2">
    <path d="M 59.690625 301.735725 
L 416.810625 301.735725 
L 416.810625 35.623725 
L 59.690625 35.623725 
z
" style="fill: #ffffff"/>
   </g>
   <g id="matplotlib.axis_1">
    <g id="xtick_1">
     <g id="line2d_1">
      <path d="M 75.923352 301.735725 
L 75.923352 35.623725 
" clip-path="url(#pdd3fe60e55)" style="fill: none; stroke: #cccccc; stroke-width: 0.8; stroke-linecap: round"/>
     </g>
     <g id="text_1">
      <!-- 16 -->
      <g style="fill: #262626" transform="translate(69.560852 316.334162) scale(0.1 -0.1)">
       <defs>
        <path id="DejaVuSans-31" d="M 794 531 
L 1825 531 
L 1825 4091 
L 703 3866 
L 703 4441 
L 1819 4666 
L 2450 4666 
L 2450 531 
L 3481 531 
L 3481 0 
L 794 0 
L 794 531 
z
" transform="scale(0.015625)"/>
        <path id="DejaVuSans-36" d="M 2113 2584 
Q 1688 2584 1439 2293 
Q 1191 2003 1191 1497 
Q 1191 994 1439 701 
Q 1688 409 2113 409 
Q 2538 409 2786 701 
Q 3034 994 3034 1497 
Q 3034 2003 2786 2293 
Q 2538 2584 2113 2584 
z
M 3366 4563 
L 3366 3988 
Q 3128 4100 2886 4159 
Q 2644 4219 2406 4219 
Q 1781 4219 1451 3797 
Q 1122 3375 1075 2522 
Q 1259 2794 1537 2939 
Q 1816 3084 2150 3084 
Q 2853 3084 3261 2657 
Q 3669 2231 3669 1497 
Q 3669 778 3244 343 
Q 2819 -91 2113 -91 
Q 1303 -91 875 529 
Q 447 1150 447 2328 
Q 447 3434 972 4092 
Q 1497 4750 2381 4750 
Q 2619 4750 2861 4703 
Q 3103 4656 3366 4563 
z
" transform="scale(0.015625)"/>
       </defs>
       <use xlink:href="#DejaVuSans-31"/>
       <use xlink:href="#DejaVuSans-36" transform="translate(63.623047 0)"/>
      </g>
     </g>
    </g>
    <g id="xtick_2">
     <g id="line2d_2">
      <path d="M 215.061015 301.735725 
L 215.061015 35.623725 
" clip-path="url(#pdd3fe60e55)" style="fill: none; stroke: #cccccc; stroke-width: 0.8; stroke-linecap: round"/>
     </g>
     <g id="text_2">
      <!-- 64 -->
      <g style="fill: #262626" transform="translate(208.698515 316.334162) scale(0.1 -0.1)">
       <defs>
        <path id="DejaVuSans-34" d="M 2419 4116 
L 825 1625 
L 2419 1625 
L 2419 4116 
z
M 2253 4666 
L 3047 4666 
L 3047 1625 
L 3713 1625 
L 3713 1100 
L 3047 1100 
L 3047 0 
L 2419 0 
L 2419 1100 
L 313 1100 
L 313 1709 
L 2253 4666 
z
" transform="scale(0.015625)"/>
       </defs>
       <use xlink:href="#DejaVuSans-36"/>
       <use xlink:href="#DejaVuSans-34" transform="translate(63.623047 0)"/>
      </g>
     </g>
    </g>
    <g id="xtick_3">
     <g id="line2d_3">
      <path d="M 122.302573 301.735725 
L 122.302573 35.623725 
" clip-path="url(#pdd3fe60e55)" style="fill: none; stroke: #cccccc; stroke-width: 0.8; stroke-linecap: round"/>
     </g>
     <g id="text_3">
      <!-- 32 -->
      <g style="fill: #262626" transform="translate(115.940073 316.334162) scale(0.1 -0.1)">
       <defs>
        <path id="DejaVuSans-33" d="M 2597 2516 
Q 3050 2419 3304 2112 
Q 3559 1806 3559 1356 
Q 3559 666 3084 287 
Q 2609 -91 1734 -91 
Q 1441 -91 1130 -33 
Q 819 25 488 141 
L 488 750 
Q 750 597 1062 519 
Q 1375 441 1716 441 
Q 2309 441 2620 675 
Q 2931 909 2931 1356 
Q 2931 1769 2642 2001 
Q 2353 2234 1838 2234 
L 1294 2234 
L 1294 2753 
L 1863 2753 
Q 2328 2753 2575 2939 
Q 2822 3125 2822 3475 
Q 2822 3834 2567 4026 
Q 2313 4219 1838 4219 
Q 1578 4219 1281 4162 
Q 984 4106 628 3988 
L 628 4550 
Q 988 4650 1302 4700 
Q 1616 4750 1894 4750 
Q 2613 4750 3031 4423 
Q 3450 4097 3450 3541 
Q 3450 3153 3228 2886 
Q 3006 2619 2597 2516 
z
" transform="scale(0.015625)"/>
        <path id="DejaVuSans-32" d="M 1228 531 
L 3431 531 
L 3431 0 
L 469 0 
L 469 531 
Q 828 903 1448 1529 
Q 2069 2156 2228 2338 
Q 2531 2678 2651 2914 
Q 2772 3150 2772 3378 
Q 2772 3750 2511 3984 
Q 2250 4219 1831 4219 
Q 1534 4219 1204 4116 
Q 875 4013 500 3803 
L 500 4441 
Q 881 4594 1212 4672 
Q 1544 4750 1819 4750 
Q 2544 4750 2975 4387 
Q 3406 4025 3406 3419 
Q 3406 3131 3298 2873 
Q 3191 2616 2906 2266 
Q 2828 2175 2409 1742 
Q 1991 1309 1228 531 
z
" transform="scale(0.015625)"/>
       </defs>
       <use xlink:href="#DejaVuSans-33"/>
       <use xlink:href="#DejaVuSans-32" transform="translate(63.623047 0)"/>
      </g>
     </g>
    </g>
    <g id="xtick_4">
     <g id="line2d_4">
      <path d="M 400.577898 301.735725 
L 400.577898 35.623725 
" clip-path="url(#pdd3fe60e55)" style="fill: none; stroke: #cccccc; stroke-width: 0.8; stroke-linecap: round"/>
     </g>
     <g id="text_4">
      <!-- 128 -->
      <g style="fill: #262626" transform="translate(391.034148 316.334162) scale(0.1 -0.1)">
       <defs>
        <path id="DejaVuSans-38" d="M 2034 2216 
Q 1584 2216 1326 1975 
Q 1069 1734 1069 1313 
Q 1069 891 1326 650 
Q 1584 409 2034 409 
Q 2484 409 2743 651 
Q 3003 894 3003 1313 
Q 3003 1734 2745 1975 
Q 2488 2216 2034 2216 
z
M 1403 2484 
Q 997 2584 770 2862 
Q 544 3141 544 3541 
Q 544 4100 942 4425 
Q 1341 4750 2034 4750 
Q 2731 4750 3128 4425 
Q 3525 4100 3525 3541 
Q 3525 3141 3298 2862 
Q 3072 2584 2669 2484 
Q 3125 2378 3379 2068 
Q 3634 1759 3634 1313 
Q 3634 634 3220 271 
Q 2806 -91 2034 -91 
Q 1263 -91 848 271 
Q 434 634 434 1313 
Q 434 1759 690 2068 
Q 947 2378 1403 2484 
z
M 1172 3481 
Q 1172 3119 1398 2916 
Q 1625 2713 2034 2713 
Q 2441 2713 2670 2916 
Q 2900 3119 2900 3481 
Q 2900 3844 2670 4047 
Q 2441 4250 2034 4250 
Q 1625 4250 1398 4047 
Q 1172 3844 1172 3481 
z
" transform="scale(0.015625)"/>
       </defs>
       <use xlink:href="#DejaVuSans-31"/>
       <use xlink:href="#DejaVuSans-32" transform="translate(63.623047 0)"/>
       <use xlink:href="#DejaVuSans-38" transform="translate(127.246094 0)"/>
      </g>
     </g>
    </g>
    <g id="text_5">
     <!-- Number of Jobs -->
     <g style="fill: #262626" transform="translate(199.85375 330.012287) scale(0.1 -0.1)">
      <defs>
       <path id="DejaVuSans-4e" d="M 628 4666 
L 1478 4666 
L 3547 763 
L 3547 4666 
L 4159 4666 
L 4159 0 
L 3309 0 
L 1241 3903 
L 1241 0 
L 628 0 
L 628 4666 
z
" transform="scale(0.015625)"/>
       <path id="DejaVuSans-75" d="M 544 1381 
L 544 3500 
L 1119 3500 
L 1119 1403 
Q 1119 906 1312 657 
Q 1506 409 1894 409 
Q 2359 409 2629 706 
Q 2900 1003 2900 1516 
L 2900 3500 
L 3475 3500 
L 3475 0 
L 2900 0 
L 2900 538 
Q 2691 219 2414 64 
Q 2138 -91 1772 -91 
Q 1169 -91 856 284 
Q 544 659 544 1381 
z
M 1991 3584 
L 1991 3584 
z
" transform="scale(0.015625)"/>
       <path id="DejaVuSans-6d" d="M 3328 2828 
Q 3544 3216 3844 3400 
Q 4144 3584 4550 3584 
Q 5097 3584 5394 3201 
Q 5691 2819 5691 2113 
L 5691 0 
L 5113 0 
L 5113 2094 
Q 5113 2597 4934 2840 
Q 4756 3084 4391 3084 
Q 3944 3084 3684 2787 
Q 3425 2491 3425 1978 
L 3425 0 
L 2847 0 
L 2847 2094 
Q 2847 2600 2669 2842 
Q 2491 3084 2119 3084 
Q 1678 3084 1418 2786 
Q 1159 2488 1159 1978 
L 1159 0 
L 581 0 
L 581 3500 
L 1159 3500 
L 1159 2956 
Q 1356 3278 1631 3431 
Q 1906 3584 2284 3584 
Q 2666 3584 2933 3390 
Q 3200 3197 3328 2828 
z
" transform="scale(0.015625)"/>
       <path id="DejaVuSans-62" d="M 3116 1747 
Q 3116 2381 2855 2742 
Q 2594 3103 2138 3103 
Q 1681 3103 1420 2742 
Q 1159 2381 1159 1747 
Q 1159 1113 1420 752 
Q 1681 391 2138 391 
Q 2594 391 2855 752 
Q 3116 1113 3116 1747 
z
M 1159 2969 
Q 1341 3281 1617 3432 
Q 1894 3584 2278 3584 
Q 2916 3584 3314 3078 
Q 3713 2572 3713 1747 
Q 3713 922 3314 415 
Q 2916 -91 2278 -91 
Q 1894 -91 1617 61 
Q 1341 213 1159 525 
L 1159 0 
L 581 0 
L 581 4863 
L 1159 4863 
L 1159 2969 
z
" transform="scale(0.015625)"/>
       <path id="DejaVuSans-65" d="M 3597 1894 
L 3597 1613 
L 953 1613 
Q 991 1019 1311 708 
Q 1631 397 2203 397 
Q 2534 397 2845 478 
Q 3156 559 3463 722 
L 3463 178 
Q 3153 47 2828 -22 
Q 2503 -91 2169 -91 
Q 1331 -91 842 396 
Q 353 884 353 1716 
Q 353 2575 817 3079 
Q 1281 3584 2069 3584 
Q 2775 3584 3186 3129 
Q 3597 2675 3597 1894 
z
M 3022 2063 
Q 3016 2534 2758 2815 
Q 2500 3097 2075 3097 
Q 1594 3097 1305 2825 
Q 1016 2553 972 2059 
L 3022 2063 
z
" transform="scale(0.015625)"/>
       <path id="DejaVuSans-72" d="M 2631 2963 
Q 2534 3019 2420 3045 
Q 2306 3072 2169 3072 
Q 1681 3072 1420 2755 
Q 1159 2438 1159 1844 
L 1159 0 
L 581 0 
L 581 3500 
L 1159 3500 
L 1159 2956 
Q 1341 3275 1631 3429 
Q 1922 3584 2338 3584 
Q 2397 3584 2469 3576 
Q 2541 3569 2628 3553 
L 2631 2963 
z
" transform="scale(0.015625)"/>
       <path id="DejaVuSans-20" transform="scale(0.015625)"/>
       <path id="DejaVuSans-6f" d="M 1959 3097 
Q 1497 3097 1228 2736 
Q 959 2375 959 1747 
Q 959 1119 1226 758 
Q 1494 397 1959 397 
Q 2419 397 2687 759 
Q 2956 1122 2956 1747 
Q 2956 2369 2687 2733 
Q 2419 3097 1959 3097 
z
M 1959 3584 
Q 2709 3584 3137 3096 
Q 3566 2609 3566 1747 
Q 3566 888 3137 398 
Q 2709 -91 1959 -91 
Q 1206 -91 779 398 
Q 353 888 353 1747 
Q 353 2609 779 3096 
Q 1206 3584 1959 3584 
z
" transform="scale(0.015625)"/>
       <path id="DejaVuSans-66" d="M 2375 4863 
L 2375 4384 
L 1825 4384 
Q 1516 4384 1395 4259 
Q 1275 4134 1275 3809 
L 1275 3500 
L 2222 3500 
L 2222 3053 
L 1275 3053 
L 1275 0 
L 697 0 
L 697 3053 
L 147 3053 
L 147 3500 
L 697 3500 
L 697 3744 
Q 697 4328 969 4595 
Q 1241 4863 1831 4863 
L 2375 4863 
z
" transform="scale(0.015625)"/>
       <path id="DejaVuSans-4a" d="M 628 4666 
L 1259 4666 
L 1259 325 
Q 1259 -519 939 -900 
Q 619 -1281 -91 -1281 
L -331 -1281 
L -331 -750 
L -134 -750 
Q 284 -750 456 -515 
Q 628 -281 628 325 
L 628 4666 
z
" transform="scale(0.015625)"/>
       <path id="DejaVuSans-73" d="M 2834 3397 
L 2834 2853 
Q 2591 2978 2328 3040 
Q 2066 3103 1784 3103 
Q 1356 3103 1142 2972 
Q 928 2841 928 2578 
Q 928 2378 1081 2264 
Q 1234 2150 1697 2047 
L 1894 2003 
Q 2506 1872 2764 1633 
Q 3022 1394 3022 966 
Q 3022 478 2636 193 
Q 2250 -91 1575 -91 
Q 1294 -91 989 -36 
Q 684 19 347 128 
L 347 722 
Q 666 556 975 473 
Q 1284 391 1588 391 
Q 1994 391 2212 530 
Q 2431 669 2431 922 
Q 2431 1156 2273 1281 
Q 2116 1406 1581 1522 
L 1381 1569 
Q 847 1681 609 1914 
Q 372 2147 372 2553 
Q 372 3047 722 3315 
Q 1072 3584 1716 3584 
Q 2034 3584 2315 3537 
Q 2597 3491 2834 3397 
z
" transform="scale(0.015625)"/>
      </defs>
      <use xlink:href="#DejaVuSans-4e"/>
      <use xlink:href="#DejaVuSans-75" transform="translate(74.804688 0)"/>
      <use xlink:href="#DejaVuSans-6d" transform="translate(138.183594 0)"/>
      <use xlink:href="#DejaVuSans-62" transform="translate(235.595703 0)"/>
      <use xlink:href="#DejaVuSans-65" transform="translate(299.072266 0)"/>
      <use xlink:href="#DejaVuSans-72" transform="translate(360.595703 0)"/>
      <use xlink:href="#DejaVuSans-20" transform="translate(401.708984 0)"/>
      <use xlink:href="#DejaVuSans-6f" transform="translate(433.496094 0)"/>
      <use xlink:href="#DejaVuSans-66" transform="translate(494.677734 0)"/>
      <use xlink:href="#DejaVuSans-20" transform="translate(529.882812 0)"/>
      <use xlink:href="#DejaVuSans-4a" transform="translate(561.669922 0)"/>
      <use xlink:href="#DejaVuSans-6f" transform="translate(591.162109 0)"/>
      <use xlink:href="#DejaVuSans-62" transform="translate(652.34375 0)"/>
      <use xlink:href="#DejaVuSans-73" transform="translate(715.820312 0)"/>
     </g>
    </g>
   </g>
   <g id="matplotlib.axis_2">
    <g id="ytick_1">
     <g id="line2d_5">
      <path d="M 59.690625 256.667642 
L 416.810625 256.667642 
" clip-path="url(#pdd3fe60e55)" style="fill: none; stroke: #cccccc; stroke-width: 0.8; stroke-linecap: round"/>
     </g>
     <g id="text_6">
      <!-- 40000 -->
      <g style="fill: #262626" transform="translate(20.878125 260.46686) scale(0.1 -0.1)">
       <defs>
        <path id="DejaVuSans-30" d="M 2034 4250 
Q 1547 4250 1301 3770 
Q 1056 3291 1056 2328 
Q 1056 1369 1301 889 
Q 1547 409 2034 409 
Q 2525 409 2770 889 
Q 3016 1369 3016 2328 
Q 3016 3291 2770 3770 
Q 2525 4250 2034 4250 
z
M 2034 4750 
Q 2819 4750 3233 4129 
Q 3647 3509 3647 2328 
Q 3647 1150 3233 529 
Q 2819 -91 2034 -91 
Q 1250 -91 836 529 
Q 422 1150 422 2328 
Q 422 3509 836 4129 
Q 1250 4750 2034 4750 
z
" transform="scale(0.015625)"/>
       </defs>
       <use xlink:href="#DejaVuSans-34"/>
       <use xlink:href="#DejaVuSans-30" transform="translate(63.623047 0)"/>
       <use xlink:href="#DejaVuSans-30" transform="translate(127.246094 0)"/>
       <use xlink:href="#DejaVuSans-30" transform="translate(190.869141 0)"/>
       <use xlink:href="#DejaVuSans-30" transform="translate(254.492188 0)"/>
      </g>
     </g>
    </g>
    <g id="ytick_2">
     <g id="line2d_6">
      <path d="M 59.690625 211.037855 
L 416.810625 211.037855 
" clip-path="url(#pdd3fe60e55)" style="fill: none; stroke: #cccccc; stroke-width: 0.8; stroke-linecap: round"/>
     </g>
     <g id="text_7">
      <!-- 45000 -->
      <g style="fill: #262626" transform="translate(20.878125 214.837074) scale(0.1 -0.1)">
       <defs>
        <path id="DejaVuSans-35" d="M 691 4666 
L 3169 4666 
L 3169 4134 
L 1269 4134 
L 1269 2991 
Q 1406 3038 1543 3061 
Q 1681 3084 1819 3084 
Q 2600 3084 3056 2656 
Q 3513 2228 3513 1497 
Q 3513 744 3044 326 
Q 2575 -91 1722 -91 
Q 1428 -91 1123 -41 
Q 819 9 494 109 
L 494 744 
Q 775 591 1075 516 
Q 1375 441 1709 441 
Q 2250 441 2565 725 
Q 2881 1009 2881 1497 
Q 2881 1984 2565 2268 
Q 2250 2553 1709 2553 
Q 1456 2553 1204 2497 
Q 953 2441 691 2322 
L 691 4666 
z
" transform="scale(0.015625)"/>
       </defs>
       <use xlink:href="#DejaVuSans-34"/>
       <use xlink:href="#DejaVuSans-35" transform="translate(63.623047 0)"/>
       <use xlink:href="#DejaVuSans-30" transform="translate(127.246094 0)"/>
       <use xlink:href="#DejaVuSans-30" transform="translate(190.869141 0)"/>
       <use xlink:href="#DejaVuSans-30" transform="translate(254.492188 0)"/>
      </g>
     </g>
    </g>
    <g id="ytick_3">
     <g id="line2d_7">
      <path d="M 59.690625 165.408069 
L 416.810625 165.408069 
" clip-path="url(#pdd3fe60e55)" style="fill: none; stroke: #cccccc; stroke-width: 0.8; stroke-linecap: round"/>
     </g>
     <g id="text_8">
      <!-- 50000 -->
      <g style="fill: #262626" transform="translate(20.878125 169.207288) scale(0.1 -0.1)">
       <use xlink:href="#DejaVuSans-35"/>
       <use xlink:href="#DejaVuSans-30" transform="translate(63.623047 0)"/>
       <use xlink:href="#DejaVuSans-30" transform="translate(127.246094 0)"/>
       <use xlink:href="#DejaVuSans-30" transform="translate(190.869141 0)"/>
       <use xlink:href="#DejaVuSans-30" transform="translate(254.492188 0)"/>
      </g>
     </g>
    </g>
    <g id="ytick_4">
     <g id="line2d_8">
      <path d="M 59.690625 119.778283 
L 416.810625 119.778283 
" clip-path="url(#pdd3fe60e55)" style="fill: none; stroke: #cccccc; stroke-width: 0.8; stroke-linecap: round"/>
     </g>
     <g id="text_9">
      <!-- 55000 -->
      <g style="fill: #262626" transform="translate(20.878125 123.577502) scale(0.1 -0.1)">
       <use xlink:href="#DejaVuSans-35"/>
       <use xlink:href="#DejaVuSans-35" transform="translate(63.623047 0)"/>
       <use xlink:href="#DejaVuSans-30" transform="translate(127.246094 0)"/>
       <use xlink:href="#DejaVuSans-30" transform="translate(190.869141 0)"/>
       <use xlink:href="#DejaVuSans-30" transform="translate(254.492188 0)"/>
      </g>
     </g>
    </g>
    <g id="ytick_5">
     <g id="line2d_9">
      <path d="M 59.690625 74.148497 
L 416.810625 74.148497 
" clip-path="url(#pdd3fe60e55)" style="fill: none; stroke: #cccccc; stroke-width: 0.8; stroke-linecap: round"/>
     </g>
     <g id="text_10">
      <!-- 60000 -->
      <g style="fill: #262626" transform="translate(20.878125 77.947716) scale(0.1 -0.1)">
       <use xlink:href="#DejaVuSans-36"/>
       <use xlink:href="#DejaVuSans-30" transform="translate(63.623047 0)"/>
       <use xlink:href="#DejaVuSans-30" transform="translate(127.246094 0)"/>
       <use xlink:href="#DejaVuSans-30" transform="translate(190.869141 0)"/>
       <use xlink:href="#DejaVuSans-30" transform="translate(254.492188 0)"/>
      </g>
     </g>
    </g>
    <g id="text_11">
     <!-- IOPS -->
     <g style="fill: #262626" transform="translate(14.798438 180.279725) rotate(-90) scale(0.1 -0.1)">
      <defs>
       <path id="DejaVuSans-49" d="M 628 4666 
L 1259 4666 
L 1259 0 
L 628 0 
L 628 4666 
z
" transform="scale(0.015625)"/>
       <path id="DejaVuSans-4f" d="M 2522 4238 
Q 1834 4238 1429 3725 
Q 1025 3213 1025 2328 
Q 1025 1447 1429 934 
Q 1834 422 2522 422 
Q 3209 422 3611 934 
Q 4013 1447 4013 2328 
Q 4013 3213 3611 3725 
Q 3209 4238 2522 4238 
z
M 2522 4750 
Q 3503 4750 4090 4092 
Q 4678 3434 4678 2328 
Q 4678 1225 4090 567 
Q 3503 -91 2522 -91 
Q 1538 -91 948 565 
Q 359 1222 359 2328 
Q 359 3434 948 4092 
Q 1538 4750 2522 4750 
z
" transform="scale(0.015625)"/>
       <path id="DejaVuSans-50" d="M 1259 4147 
L 1259 2394 
L 2053 2394 
Q 2494 2394 2734 2622 
Q 2975 2850 2975 3272 
Q 2975 3691 2734 3919 
Q 2494 4147 2053 4147 
L 1259 4147 
z
M 628 4666 
L 2053 4666 
Q 2838 4666 3239 4311 
Q 3641 3956 3641 3272 
Q 3641 2581 3239 2228 
Q 2838 1875 2053 1875 
L 1259 1875 
L 1259 0 
L 628 0 
L 628 4666 
z
" transform="scale(0.015625)"/>
       <path id="DejaVuSans-53" d="M 3425 4513 
L 3425 3897 
Q 3066 4069 2747 4153 
Q 2428 4238 2131 4238 
Q 1616 4238 1336 4038 
Q 1056 3838 1056 3469 
Q 1056 3159 1242 3001 
Q 1428 2844 1947 2747 
L 2328 2669 
Q 3034 2534 3370 2195 
Q 3706 1856 3706 1288 
Q 3706 609 3251 259 
Q 2797 -91 1919 -91 
Q 1588 -91 1214 -16 
Q 841 59 441 206 
L 441 856 
Q 825 641 1194 531 
Q 1563 422 1919 422 
Q 2459 422 2753 634 
Q 3047 847 3047 1241 
Q 3047 1584 2836 1778 
Q 2625 1972 2144 2069 
L 1759 2144 
Q 1053 2284 737 2584 
Q 422 2884 422 3419 
Q 422 4038 858 4394 
Q 1294 4750 2059 4750 
Q 2388 4750 2728 4690 
Q 3069 4631 3425 4513 
z
" transform="scale(0.015625)"/>
      </defs>
      <use xlink:href="#DejaVuSans-49"/>
      <use xlink:href="#DejaVuSans-4f" transform="translate(29.492188 0)"/>
      <use xlink:href="#DejaVuSans-50" transform="translate(108.203125 0)"/>
      <use xlink:href="#DejaVuSans-53" transform="translate(168.505859 0)"/>
     </g>
    </g>
   </g>
   <g id="FillBetweenPolyCollection_1"/>
   <g id="FillBetweenPolyCollection_2"/>
   <g id="FillBetweenPolyCollection_3"/>
   <g id="FillBetweenPolyCollection_4"/>
   <g id="FillBetweenPolyCollection_5"/>
   <g id="FillBetweenPolyCollection_6"/>
   <g id="FillBetweenPolyCollection_7"/>
   <g id="line2d_10">
    <path d="M 75.923352 123.337407 
L 122.302573 106.317496 
L 215.061015 151.646126 
L 400.577898 161.401774 
" clip-path="url(#pdd3fe60e55)" style="fill: none; stroke: #4c02a1; stroke-width: 1.5; stroke-linecap: round"/>
   </g>
   <g id="line2d_11">
    <path d="M 75.923352 289.639725 
L 122.302573 63.370742 
L 215.061015 49.189004 
L 400.577898 104.519683 
" clip-path="url(#pdd3fe60e55)" style="fill: none; stroke: #7e03a8; stroke-width: 1.5; stroke-linecap: round"/>
   </g>
   <g id="line2d_12">
    <path d="M 75.923352 88.99643 
L 122.302573 111.610552 
L 215.061015 121.79512 
L 400.577898 189.126432 
" clip-path="url(#pdd3fe60e55)" style="fill: none; stroke: #aa2395; stroke-width: 1.5; stroke-linecap: round"/>
   </g>
   <g id="line2d_13">
    <path d="M 75.923352 121.41183 
L 122.302573 67.276651 
L 215.061015 138.988423 
L 400.577898 188.706638 
" clip-path="url(#pdd3fe60e55)" style="fill: none; stroke: #cc4778; stroke-width: 1.5; stroke-linecap: round"/>
   </g>
   <g id="line2d_14">
    <path d="M 75.923352 164.5046 
L 122.302573 47.719725 
L 215.061015 109.684975 
L 400.577898 116.21916 
" clip-path="url(#pdd3fe60e55)" style="fill: none; stroke: #e66c5c; stroke-width: 1.5; stroke-linecap: round"/>
   </g>
   <g id="line2d_15">
    <path d="M 75.923352 87.472395 
L 122.302573 97.447066 
L 215.061015 103.661843 
L 400.577898 126.412854 
" clip-path="url(#pdd3fe60e55)" style="fill: none; stroke: #f89540; stroke-width: 1.5; stroke-linecap: round"/>
   </g>
   <g id="line2d_16">
    <path d="M 75.923352 183.632606 
L 122.302573 98.888967 
L 215.061015 112.541399 
L 400.577898 114.50348 
" clip-path="url(#pdd3fe60e55)" style="fill: none; stroke: #fdc527; stroke-width: 1.5; stroke-linecap: round"/>
   </g>
   <g id="line2d_17"/>
   <g id="line2d_18"/>
   <g id="line2d_19"/>
   <g id="line2d_20"/>
   <g id="line2d_21"/>
   <g id="line2d_22"/>
   <g id="line2d_23"/>
   <g id="text_12">
    <path d="M 116.565591 110.478332 
L 118.077912 109.923351 
L 116.161587 104.701368 
L 114.636899 105.635375 
L 114.32738 104.791937 
L 115.843267 103.86116 
L 116.768849 103.521497 
L 118.994693 109.586917 
L 120.507015 109.031937 
L 120.792848 109.810834 
L 116.851425 111.257229 
L 116.565591 110.478332 
z
" clip-path="url(#pdd3fe60e55)" style="fill: #4c02a1; stroke: #ffffff; stroke-width: 5"/>
    <path d="M 116.565591 110.478332 
L 118.077912 109.923351 
L 116.161587 104.701368 
L 114.636899 105.635375 
L 114.32738 104.791937 
L 115.843267 103.86116 
L 116.768849 103.521497 
L 118.994693 109.586917 
L 120.507015 109.031937 
L 120.792848 109.810834 
L 116.851425 111.257229 
L 116.565591 110.478332 
z
" clip-path="url(#pdd3fe60e55)" style="fill: #4c02a1"/>
   </g>
   <g id="text_13">
    <path d="M 157.935248 54.208358 
L 156.061469 58.432253 
L 158.523485 58.055838 
L 157.935248 54.208358 
z
M 157.548973 53.398055 
L 158.775347 53.210556 
L 159.493464 57.907539 
L 160.522136 57.750267 
L 160.646112 58.561157 
L 159.61744 58.718429 
L 159.877199 60.417437 
L 158.90722 60.565736 
L 158.647461 58.866728 
L 155.394634 59.364049 
L 155.250822 58.423417 
L 157.548973 53.398055 
z
" clip-path="url(#pdd3fe60e55)" style="fill: #7e03a8; stroke: #ffffff; stroke-width: 5"/>
    <path d="M 157.935248 54.208358 
L 156.061469 58.432253 
L 158.523485 58.055838 
L 157.935248 54.208358 
z
M 157.548973 53.398055 
L 158.775347 53.210556 
L 159.493464 57.907539 
L 160.522136 57.750267 
L 160.646112 58.561157 
L 159.61744 58.718429 
L 159.877199 60.417437 
L 158.90722 60.565736 
L 158.647461 58.866728 
L 155.394634 59.364049 
L 155.250822 58.423417 
L 157.548973 53.398055 
z
" clip-path="url(#pdd3fe60e55)" style="fill: #7e03a8"/>
   </g>
   <g id="text_14">
    <path d="M 198.148258 119.230805 
Q 197.449334 119.154065 197.007518 119.484381 
Q 196.567256 119.814867 196.495462 120.46875 
Q 196.423497 121.124186 196.781563 121.542326 
Q 197.141181 121.960636 197.840106 122.037376 
Q 198.539031 122.114116 198.98257 121.782417 
Q 199.427832 121.449336 199.499285 120.79856 
Q 199.57108 120.144677 199.211461 119.726367 
Q 198.853396 119.308227 198.148258 119.230805 
z
M 197.213913 118.70695 
Q 196.600381 118.482398 196.29522 118.011907 
Q 195.991783 117.540033 196.059996 116.918766 
Q 196.155324 116.050547 196.828907 115.61364 
Q 197.504043 115.176903 198.580388 115.295082 
Q 199.662944 115.413943 200.224128 115.986424 
Q 200.785312 116.558904 200.689984 117.427124 
Q 200.621771 118.04839 200.221624 118.443013 
Q 199.823201 118.836252 199.180221 118.922845 
Q 199.870389 119.165243 200.212028 119.69004 
Q 200.555391 120.213454 200.479333 120.906166 
Q 200.363542 121.960766 199.658628 122.453964 
Q 198.953884 122.94561 197.75484 122.813959 
Q 196.557349 122.682479 195.974518 122.049461 
Q 195.39341 121.415062 195.509202 120.360462 
Q 195.585259 119.66775 196.035564 119.231478 
Q 196.487593 118.793823 197.213913 118.70695 
z
M 197.025153 117.119051 
Q 196.96342 117.681297 197.279817 118.03513 
Q 197.597768 118.389134 198.233013 118.458881 
Q 198.865152 118.528288 199.255445 118.252047 
Q 199.647291 117.975977 199.709024 117.413731 
Q 199.770927 116.849932 199.448317 116.495416 
Q 199.12726 116.141072 198.495121 116.071665 
Q 197.859876 116.001917 197.47269 116.278499 
Q 197.087056 116.555252 197.025153 117.119051 
z
" clip-path="url(#pdd3fe60e55)" style="fill: #aa2395; stroke: #ffffff; stroke-width: 5"/>
    <path d="M 198.148258 119.230805 
Q 197.449334 119.154065 197.007518 119.484381 
Q 196.567256 119.814867 196.495462 120.46875 
Q 196.423497 121.124186 196.781563 121.542326 
Q 197.141181 121.960636 197.840106 122.037376 
Q 198.539031 122.114116 198.98257 121.782417 
Q 199.427832 121.449336 199.499285 120.79856 
Q 199.57108 120.144677 199.211461 119.726367 
Q 198.853396 119.308227 198.148258 119.230805 
z
M 197.213913 118.70695 
Q 196.600381 118.482398 196.29522 118.011907 
Q 195.991783 117.540033 196.059996 116.918766 
Q 196.155324 116.050547 196.828907 115.61364 
Q 197.504043 115.176903 198.580388 115.295082 
Q 199.662944 115.413943 200.224128 115.986424 
Q 200.785312 116.558904 200.689984 117.427124 
Q 200.621771 118.04839 200.221624 118.443013 
Q 199.823201 118.836252 199.180221 118.922845 
Q 199.870389 119.165243 200.212028 119.69004 
Q 200.555391 120.213454 200.479333 120.906166 
Q 200.363542 121.960766 199.658628 122.453964 
Q 198.953884 122.94561 197.75484 122.813959 
Q 196.557349 122.682479 195.974518 122.049461 
Q 195.39341 121.415062 195.509202 120.360462 
Q 195.585259 119.66775 196.035564 119.231478 
Q 196.487593 118.793823 197.213913 118.70695 
z
M 197.025153 117.119051 
Q 196.96342 117.681297 197.279817 118.03513 
Q 197.597768 118.389134 198.233013 118.458881 
Q 198.865152 118.528288 199.255445 118.252047 
Q 199.647291 117.975977 199.709024 117.413731 
Q 199.770927 116.849932 199.448317 116.495416 
Q 199.12726 116.141072 198.495121 116.071665 
Q 197.859876 116.001917 197.47269 116.278499 
Q 197.087056 116.555252 197.025153 117.119051 
z
" clip-path="url(#pdd3fe60e55)" style="fill: #aa2395"/>
   </g>
   <g id="text_15">
    <path d="M 232.803809 145.741247 
L 234.359836 146.158259 
L 235.799763 140.785363 
L 234.015389 140.671122 
L 234.247961 139.803309 
L 236.02328 139.915123 
L 236.975611 140.170346 
L 235.303111 146.411055 
L 236.859138 146.828068 
L 236.644363 147.629475 
L 232.589033 146.542653 
L 232.803809 145.741247 
z
M 241.770321 144.823244 
Q 241.128894 144.651343 240.635391 144.989818 
Q 240.143802 145.327188 239.939138 146.090864 
Q 239.735688 146.850012 239.991469 147.392529 
Q 240.249163 147.933941 240.890591 148.105842 
Q 241.532018 148.277744 242.024416 147.937355 
Q 242.517218 147.595457 242.720669 146.836309 
Q 242.925333 146.072633 242.668338 145.534644 
Q 242.411749 144.995146 241.770321 144.823244 
z
M 244.461854 142.343263 
L 244.229281 143.211076 
Q 243.915383 142.945777 243.574011 142.758849 
Q 243.233043 142.570412 242.873844 142.474147 
Q 241.930568 142.22135 241.261831 142.724774 
Q 240.594603 143.228601 240.178652 144.496973 
Q 240.566369 144.160883 241.044587 144.054487 
Q 241.524314 143.948495 242.0284 144.083589 
Q 243.089396 144.367935 243.532456 145.177406 
Q 243.97592 145.985368 243.679036 147.09315 
Q 243.38822 148.178294 242.570846 148.662912 
Q 241.753877 149.146021 240.688354 148.860463 
Q 239.465869 148.532839 239.070688 147.423995 
Q 238.675911 146.313642 239.152381 144.535756 
Q 239.599729 142.866536 240.658225 142.085805 
Q 241.71672 141.305073 243.050888 141.662628 
Q 243.410088 141.758893 243.756314 141.92771 
Q 244.10254 142.096527 244.461854 142.343263 
z
" clip-path="url(#pdd3fe60e55)" style="fill: #cc4778; stroke: #ffffff; stroke-width: 5"/>
    <path d="M 232.803809 145.741247 
L 234.359836 146.158259 
L 235.799763 140.785363 
L 234.015389 140.671122 
L 234.247961 139.803309 
L 236.02328 139.915123 
L 236.975611 140.170346 
L 235.303111 146.411055 
L 236.859138 146.828068 
L 236.644363 147.629475 
L 232.589033 146.542653 
L 232.803809 145.741247 
z
M 241.770321 144.823244 
Q 241.128894 144.651343 240.635391 144.989818 
Q 240.143802 145.327188 239.939138 146.090864 
Q 239.735688 146.850012 239.991469 147.392529 
Q 240.249163 147.933941 240.890591 148.105842 
Q 241.532018 148.277744 242.024416 147.937355 
Q 242.517218 147.595457 242.720669 146.836309 
Q 242.925333 146.072633 242.668338 145.534644 
Q 242.411749 144.995146 241.770321 144.823244 
z
M 244.461854 142.343263 
L 244.229281 143.211076 
Q 243.915383 142.945777 243.574011 142.758849 
Q 243.233043 142.570412 242.873844 142.474147 
Q 241.930568 142.22135 241.261831 142.724774 
Q 240.594603 143.228601 240.178652 144.496973 
Q 240.566369 144.160883 241.044587 144.054487 
Q 241.524314 143.948495 242.0284 144.083589 
Q 243.089396 144.367935 243.532456 145.177406 
Q 243.97592 145.985368 243.679036 147.09315 
Q 243.38822 148.178294 242.570846 148.662912 
Q 241.753877 149.146021 240.688354 148.860463 
Q 239.465869 148.532839 239.070688 147.423995 
Q 238.675911 146.313642 239.152381 144.535756 
Q 239.599729 142.866536 240.658225 142.085805 
Q 241.71672 141.305073 243.050888 141.662628 
Q 243.410088 141.758893 243.756314 141.92771 
Q 244.10254 142.096527 244.461854 142.343263 
z
" clip-path="url(#pdd3fe60e55)" style="fill: #cc4778"/>
   </g>
   <g id="text_16">
    <path d="M 276.164615 110.664534 
Q 276.866654 110.840918 277.246398 111.334278 
Q 277.627759 111.826131 277.603009 112.52882 
Q 277.56506 113.606277 276.802487 114.171973 
Q 276.03997 114.736107 274.67363 114.687983 
Q 274.216101 114.671868 273.733655 114.564194 
Q 273.251208 114.456521 272.740721 114.257178 
L 272.774216 113.306205 
Q 273.174922 113.559529 273.65783 113.698489 
Q 274.1423 113.837503 274.674782 113.856258 
Q 275.60077 113.888873 276.099276 113.540579 
Q 276.597783 113.192285 276.622368 112.494281 
Q 276.645082 111.849368 276.20656 111.471198 
Q 275.768092 111.091466 274.963903 111.063141 
L 274.11443 111.033222 
L 274.142974 110.222787 
L 275.031486 110.254082 
Q 275.757598 110.279656 276.153526 110.002796 
Q 276.549455 109.725936 276.568705 109.1794 
Q 276.588449 108.61881 276.200819 108.304971 
Q 275.814805 107.989626 275.073077 107.963501 
Q 274.667079 107.949201 274.200169 108.021874 
Q 273.733314 108.092985 273.170919 108.257665 
L 273.201828 107.380085 
Q 273.76948 107.243731 274.262551 107.182925 
Q 274.755622 107.122118 275.189727 107.137408 
Q 276.312469 107.176952 276.947204 107.710563 
Q 277.583556 108.242667 277.552976 109.110879 
Q 277.531637 109.716753 277.170292 110.121472 
Q 276.808947 110.526191 276.164615 110.664534 
z
M 280.276066 113.912831 
L 283.716121 114.033995 
L 283.686916 114.863169 
L 279.061659 114.70026 
L 279.090864 113.871087 
Q 279.671913 113.309942 280.674493 112.366523 
Q 281.678689 111.421597 281.936982 111.146143 
Q 282.428826 110.631887 282.62919 110.269966 
Q 282.831115 109.908099 282.843655 109.55207 
Q 282.864115 108.97118 282.469425 108.591427 
Q 282.07479 108.210112 281.420508 108.187067 
Q 280.956733 108.170732 280.435763 108.31342 
Q 279.916354 108.456163 279.31923 108.76346 
L 279.354319 107.767203 
Q 279.957678 107.549243 280.478835 107.445649 
Q 281.001553 107.342109 281.430975 107.357234 
Q 282.563085 107.397108 283.21614 107.987649 
Q 283.869251 108.576629 283.835921 109.522917 
Q 283.820081 109.972638 283.637246 110.369573 
Q 283.456027 110.765002 282.991741 111.295863 
Q 282.864936 111.433672 282.18684 112.086771 
Q 281.510305 112.739924 280.276066 113.912831 
z
" clip-path="url(#pdd3fe60e55)" style="fill: #e66c5c; stroke: #ffffff; stroke-width: 5"/>
    <path d="M 276.164615 110.664534 
Q 276.866654 110.840918 277.246398 111.334278 
Q 277.627759 111.826131 277.603009 112.52882 
Q 277.56506 113.606277 276.802487 114.171973 
Q 276.03997 114.736107 274.67363 114.687983 
Q 274.216101 114.671868 273.733655 114.564194 
Q 273.251208 114.456521 272.740721 114.257178 
L 272.774216 113.306205 
Q 273.174922 113.559529 273.65783 113.698489 
Q 274.1423 113.837503 274.674782 113.856258 
Q 275.60077 113.888873 276.099276 113.540579 
Q 276.597783 113.192285 276.622368 112.494281 
Q 276.645082 111.849368 276.20656 111.471198 
Q 275.768092 111.091466 274.963903 111.063141 
L 274.11443 111.033222 
L 274.142974 110.222787 
L 275.031486 110.254082 
Q 275.757598 110.279656 276.153526 110.002796 
Q 276.549455 109.725936 276.568705 109.1794 
Q 276.588449 108.61881 276.200819 108.304971 
Q 275.814805 107.989626 275.073077 107.963501 
Q 274.667079 107.949201 274.200169 108.021874 
Q 273.733314 108.092985 273.170919 108.257665 
L 273.201828 107.380085 
Q 273.76948 107.243731 274.262551 107.182925 
Q 274.755622 107.122118 275.189727 107.137408 
Q 276.312469 107.176952 276.947204 107.710563 
Q 277.583556 108.242667 277.552976 109.110879 
Q 277.531637 109.716753 277.170292 110.121472 
Q 276.808947 110.526191 276.164615 110.664534 
z
M 280.276066 113.912831 
L 283.716121 114.033995 
L 283.686916 114.863169 
L 279.061659 114.70026 
L 279.090864 113.871087 
Q 279.671913 113.309942 280.674493 112.366523 
Q 281.678689 111.421597 281.936982 111.146143 
Q 282.428826 110.631887 282.62919 110.269966 
Q 282.831115 109.908099 282.843655 109.55207 
Q 282.864115 108.97118 282.469425 108.591427 
Q 282.07479 108.210112 281.420508 108.187067 
Q 280.956733 108.170732 280.435763 108.31342 
Q 279.916354 108.456163 279.31923 108.76346 
L 279.354319 107.767203 
Q 279.957678 107.549243 280.478835 107.445649 
Q 281.001553 107.342109 281.430975 107.357234 
Q 282.563085 107.397108 283.21614 107.987649 
Q 283.869251 108.576629 283.835921 109.522917 
Q 283.820081 109.972638 283.637246 110.369573 
Q 283.456027 110.765002 282.991741 111.295863 
Q 282.864936 111.433672 282.18684 112.086771 
Q 281.510305 112.739924 280.276066 113.912831 
z
" clip-path="url(#pdd3fe60e55)" style="fill: #e66c5c"/>
   </g>
   <g id="text_17">
    <path d="M 315.720027 114.718541 
Q 315.060902 114.637709 314.619387 115.041657 
Q 314.179612 115.444244 314.083374 116.22899 
Q 313.987707 117.009084 314.316599 117.51066 
Q 314.647231 118.010875 315.306356 118.091708 
Q 315.96548 118.17254 316.405636 117.766851 
Q 316.845981 117.35961 316.941648 116.579517 
Q 317.037886 115.794771 316.708424 115.297848 
Q 316.379151 114.799373 315.720027 114.718541 
z
M 318.039674 111.887659 
L 317.930313 112.779416 
Q 317.582505 112.560451 317.218413 112.422923 
Q 316.854511 112.283843 316.485402 112.238577 
Q 315.516101 112.119706 314.924048 112.711414 
Q 314.333547 113.303312 314.09842 114.617275 
Q 314.435515 114.230431 314.894238 114.058427 
Q 315.354512 113.886613 315.872506 113.950137 
Q 316.962776 114.083844 317.514323 114.823669 
Q 318.06606 115.561943 317.926458 116.70029 
Q 317.789709 117.815374 317.04785 118.409175 
Q 316.306181 119.001425 315.211259 118.867148 
Q 313.955045 118.713091 313.409188 117.670142 
Q 312.863521 116.625642 313.087569 114.798704 
Q 313.297923 113.083429 314.237283 112.162801 
Q 315.176643 111.242173 316.547622 111.410304 
Q 316.916732 111.45557 317.283106 111.574488 
Q 317.64948 111.693407 318.039674 111.887659 
z
M 322.800968 113.175234 
L 319.855091 116.735311 
L 322.327196 117.03848 
L 322.800968 113.175234 
z
M 322.648128 112.290678 
L 323.879528 112.441691 
L 323.301149 117.157921 
L 324.334036 117.28459 
L 324.234184 118.098803 
L 323.201297 117.972134 
L 322.992084 119.678103 
L 322.018131 119.558662 
L 322.227344 117.852692 
L 318.961188 117.452145 
L 319.077016 116.507658 
L 322.648128 112.290678 
z
" clip-path="url(#pdd3fe60e55)" style="fill: #f89540; stroke: #ffffff; stroke-width: 5"/>
    <path d="M 315.720027 114.718541 
Q 315.060902 114.637709 314.619387 115.041657 
Q 314.179612 115.444244 314.083374 116.22899 
Q 313.987707 117.009084 314.316599 117.51066 
Q 314.647231 118.010875 315.306356 118.091708 
Q 315.96548 118.17254 316.405636 117.766851 
Q 316.845981 117.35961 316.941648 116.579517 
Q 317.037886 115.794771 316.708424 115.297848 
Q 316.379151 114.799373 315.720027 114.718541 
z
M 318.039674 111.887659 
L 317.930313 112.779416 
Q 317.582505 112.560451 317.218413 112.422923 
Q 316.854511 112.283843 316.485402 112.238577 
Q 315.516101 112.119706 314.924048 112.711414 
Q 314.333547 113.303312 314.09842 114.617275 
Q 314.435515 114.230431 314.894238 114.058427 
Q 315.354512 113.886613 315.872506 113.950137 
Q 316.962776 114.083844 317.514323 114.823669 
Q 318.06606 115.561943 317.926458 116.70029 
Q 317.789709 117.815374 317.04785 118.409175 
Q 316.306181 119.001425 315.211259 118.867148 
Q 313.955045 118.713091 313.409188 117.670142 
Q 312.863521 116.625642 313.087569 114.798704 
Q 313.297923 113.083429 314.237283 112.162801 
Q 315.176643 111.242173 316.547622 111.410304 
Q 316.916732 111.45557 317.283106 111.574488 
Q 317.64948 111.693407 318.039674 111.887659 
z
M 322.800968 113.175234 
L 319.855091 116.735311 
L 322.327196 117.03848 
L 322.800968 113.175234 
z
M 322.648128 112.290678 
L 323.879528 112.441691 
L 323.301149 117.157921 
L 324.334036 117.28459 
L 324.234184 118.098803 
L 323.201297 117.972134 
L 322.992084 119.678103 
L 322.018131 119.558662 
L 322.227344 117.852692 
L 318.961188 117.452145 
L 319.077016 116.507658 
L 322.648128 112.290678 
z
" clip-path="url(#pdd3fe60e55)" style="fill: #f89540"/>
   </g>
   <g id="text_18">
    <path d="M 350.455557 115.903167 
L 352.066404 115.920204 
L 352.125231 110.358015 
L 350.368486 110.691017 
L 350.377988 109.79263 
L 352.125358 109.459528 
L 353.111241 109.469955 
L 353.042912 115.930531 
L 354.653759 115.947568 
L 354.644985 116.777209 
L 350.446782 116.732808 
L 350.455557 115.903167 
z
M 357.495593 115.977624 
L 360.937588 116.014028 
L 360.928813 116.843669 
L 356.300947 116.794723 
L 356.309721 115.965082 
Q 356.876775 115.389797 357.855815 114.421972 
Q 358.836434 113.452601 359.087865 113.170869 
Q 359.566894 112.644656 359.758284 112.277909 
Q 359.951235 111.91118 359.955003 111.554949 
Q 359.96115 110.973732 359.557227 110.603815 
Q 359.153321 110.232335 358.49867 110.225411 
Q 358.034633 110.220503 357.517335 110.375978 
Q 357.001599 110.53147 356.412224 110.85338 
L 356.422767 109.856561 
Q 357.020575 109.623808 357.539022 109.507409 
Q 358.059032 109.391027 358.488695 109.395571 
Q 359.621445 109.407552 360.288846 109.98183 
Q 360.956264 110.554545 360.94625 111.501367 
Q 360.941491 111.951342 360.768487 112.35266 
Q 360.597062 112.752432 360.145991 113.294567 
Q 360.022619 113.435457 359.360813 114.105058 
Q 358.700569 114.774676 357.495593 115.977624 
z
M 365.14469 113.425564 
Q 364.441604 113.418128 364.034519 113.790406 
Q 363.628997 114.1627 363.62204 114.820476 
Q 363.615067 115.479814 364.012624 115.860602 
Q 364.411744 116.241407 365.11483 116.248843 
Q 365.817916 116.256279 366.226579 115.882455 
Q 366.636822 115.507085 366.643746 114.852435 
Q 366.650703 114.194659 366.251583 113.813854 
Q 365.854025 113.433066 365.14469 113.425564 
z
M 364.163236 112.99641 
Q 363.530549 112.83346 363.180475 112.395358 
Q 362.83198 111.95571 362.83859 111.330745 
Q 362.847827 110.457357 363.475038 109.956149 
Q 364.103811 109.454959 365.186563 109.46641 
Q 366.275565 109.477928 366.890472 109.992272 
Q 367.505379 110.506616 367.496142 111.380005 
Q 367.489532 112.00497 367.130254 112.437132 
Q 366.772555 112.867748 366.14125 113.01733 
Q 366.851959 113.190481 367.243689 113.679026 
Q 367.636998 114.166025 367.629628 114.862862 
Q 367.618408 115.92374 366.965571 116.484054 
Q 366.31275 117.042807 365.106568 117.03005 
Q 363.901948 117.017309 363.259528 116.444858 
Q 362.618688 115.870861 362.629908 114.809983 
Q 362.637278 114.113147 363.042362 113.634592 
Q 363.449024 113.154491 364.163236 112.99641 
z
M 363.818794 111.434868 
Q 363.812812 112.000461 364.162563 112.321365 
Q 364.513876 112.642286 365.152902 112.649045 
Q 365.788804 112.65577 366.149951 112.342384 
Q 366.512661 112.029015 366.518643 111.463422 
Q 366.524641 110.896266 366.168641 110.575296 
Q 365.814203 110.254342 365.178301 110.247616 
Q 364.539274 110.240858 364.181252 110.554277 
Q 363.824792 110.867712 363.818794 111.434868 
z
" clip-path="url(#pdd3fe60e55)" style="fill: #fdc527; stroke: #ffffff; stroke-width: 5"/>
    <path d="M 350.455557 115.903167 
L 352.066404 115.920204 
L 352.125231 110.358015 
L 350.368486 110.691017 
L 350.377988 109.79263 
L 352.125358 109.459528 
L 353.111241 109.469955 
L 353.042912 115.930531 
L 354.653759 115.947568 
L 354.644985 116.777209 
L 350.446782 116.732808 
L 350.455557 115.903167 
z
M 357.495593 115.977624 
L 360.937588 116.014028 
L 360.928813 116.843669 
L 356.300947 116.794723 
L 356.309721 115.965082 
Q 356.876775 115.389797 357.855815 114.421972 
Q 358.836434 113.452601 359.087865 113.170869 
Q 359.566894 112.644656 359.758284 112.277909 
Q 359.951235 111.91118 359.955003 111.554949 
Q 359.96115 110.973732 359.557227 110.603815 
Q 359.153321 110.232335 358.49867 110.225411 
Q 358.034633 110.220503 357.517335 110.375978 
Q 357.001599 110.53147 356.412224 110.85338 
L 356.422767 109.856561 
Q 357.020575 109.623808 357.539022 109.507409 
Q 358.059032 109.391027 358.488695 109.395571 
Q 359.621445 109.407552 360.288846 109.98183 
Q 360.956264 110.554545 360.94625 111.501367 
Q 360.941491 111.951342 360.768487 112.35266 
Q 360.597062 112.752432 360.145991 113.294567 
Q 360.022619 113.435457 359.360813 114.105058 
Q 358.700569 114.774676 357.495593 115.977624 
z
M 365.14469 113.425564 
Q 364.441604 113.418128 364.034519 113.790406 
Q 363.628997 114.1627 363.62204 114.820476 
Q 363.615067 115.479814 364.012624 115.860602 
Q 364.411744 116.241407 365.11483 116.248843 
Q 365.817916 116.256279 366.226579 115.882455 
Q 366.636822 115.507085 366.643746 114.852435 
Q 366.650703 114.194659 366.251583 113.813854 
Q 365.854025 113.433066 365.14469 113.425564 
z
M 364.163236 112.99641 
Q 363.530549 112.83346 363.180475 112.395358 
Q 362.83198 111.95571 362.83859 111.330745 
Q 362.847827 110.457357 363.475038 109.956149 
Q 364.103811 109.454959 365.186563 109.46641 
Q 366.275565 109.477928 366.890472 109.992272 
Q 367.505379 110.506616 367.496142 111.380005 
Q 367.489532 112.00497 367.130254 112.437132 
Q 366.772555 112.867748 366.14125 113.01733 
Q 366.851959 113.190481 367.243689 113.679026 
Q 367.636998 114.166025 367.629628 114.862862 
Q 367.618408 115.92374 366.965571 116.484054 
Q 366.31275 117.042807 365.106568 117.03005 
Q 363.901948 117.017309 363.259528 116.444858 
Q 362.618688 115.870861 362.629908 114.809983 
Q 362.637278 114.113147 363.042362 113.634592 
Q 363.449024 113.154491 364.163236 112.99641 
z
M 363.818794 111.434868 
Q 363.812812 112.000461 364.162563 112.321365 
Q 364.513876 112.642286 365.152902 112.649045 
Q 365.788804 112.65577 366.149951 112.342384 
Q 366.512661 112.029015 366.518643 111.463422 
Q 366.524641 110.896266 366.168641 110.575296 
Q 365.814203 110.254342 365.178301 110.247616 
Q 364.539274 110.240858 364.181252 110.554277 
Q 363.824792 110.867712 363.818794 111.434868 
z
" clip-path="url(#pdd3fe60e55)" style="fill: #fdc527"/>
   </g>
   <g id="patch_3">
    <path d="M 59.690625 301.735725 
L 59.690625 35.623725 
" style="fill: none; stroke: #cccccc; stroke-width: 0.8; stroke-linejoin: miter; stroke-linecap: square"/>
   </g>
   <g id="patch_4">
    <path d="M 416.810625 301.735725 
L 416.810625 35.623725 
" style="fill: none; stroke: #cccccc; stroke-width: 0.8; stroke-linejoin: miter; stroke-linecap: square"/>
   </g>
   <g id="patch_5">
    <path d="M 59.690625 301.735725 
L 416.810625 301.735725 
" style="fill: none; stroke: #cccccc; stroke-width: 0.8; stroke-linejoin: miter; stroke-linecap: square"/>
   </g>
   <g id="patch_6">
    <path d="M 59.690625 35.623725 
L 416.810625 35.623725 
" style="fill: none; stroke: #cccccc; stroke-width: 0.8; stroke-linejoin: miter; stroke-linecap: square"/>
   </g>
   <g id="text_19">
    <!-- Block Size = 16K, Read-Write Type = Sequential Write-heavy 1:4 -->
    <g style="fill: #262626; opacity: 0.75" transform="translate(76.780313 30.882918) scale(0.1 -0.1)">
     <defs>
      <path id="DejaVuSans-42" d="M 1259 2228 
L 1259 519 
L 2272 519 
Q 2781 519 3026 730 
Q 3272 941 3272 1375 
Q 3272 1813 3026 2020 
Q 2781 2228 2272 2228 
L 1259 2228 
z
M 1259 4147 
L 1259 2741 
L 2194 2741 
Q 2656 2741 2882 2914 
Q 3109 3088 3109 3444 
Q 3109 3797 2882 3972 
Q 2656 4147 2194 4147 
L 1259 4147 
z
M 628 4666 
L 2241 4666 
Q 2963 4666 3353 4366 
Q 3744 4066 3744 3513 
Q 3744 3084 3544 2831 
Q 3344 2578 2956 2516 
Q 3422 2416 3680 2098 
Q 3938 1781 3938 1306 
Q 3938 681 3513 340 
Q 3088 0 2303 0 
L 628 0 
L 628 4666 
z
" transform="scale(0.015625)"/>
      <path id="DejaVuSans-6c" d="M 603 4863 
L 1178 4863 
L 1178 0 
L 603 0 
L 603 4863 
z
" transform="scale(0.015625)"/>
      <path id="DejaVuSans-63" d="M 3122 3366 
L 3122 2828 
Q 2878 2963 2633 3030 
Q 2388 3097 2138 3097 
Q 1578 3097 1268 2742 
Q 959 2388 959 1747 
Q 959 1106 1268 751 
Q 1578 397 2138 397 
Q 2388 397 2633 464 
Q 2878 531 3122 666 
L 3122 134 
Q 2881 22 2623 -34 
Q 2366 -91 2075 -91 
Q 1284 -91 818 406 
Q 353 903 353 1747 
Q 353 2603 823 3093 
Q 1294 3584 2113 3584 
Q 2378 3584 2631 3529 
Q 2884 3475 3122 3366 
z
" transform="scale(0.015625)"/>
      <path id="DejaVuSans-6b" d="M 581 4863 
L 1159 4863 
L 1159 1991 
L 2875 3500 
L 3609 3500 
L 1753 1863 
L 3688 0 
L 2938 0 
L 1159 1709 
L 1159 0 
L 581 0 
L 581 4863 
z
" transform="scale(0.015625)"/>
      <path id="DejaVuSans-69" d="M 603 3500 
L 1178 3500 
L 1178 0 
L 603 0 
L 603 3500 
z
M 603 4863 
L 1178 4863 
L 1178 4134 
L 603 4134 
L 603 4863 
z
" transform="scale(0.015625)"/>
      <path id="DejaVuSans-7a" d="M 353 3500 
L 3084 3500 
L 3084 2975 
L 922 459 
L 3084 459 
L 3084 0 
L 275 0 
L 275 525 
L 2438 3041 
L 353 3041 
L 353 3500 
z
" transform="scale(0.015625)"/>
      <path id="DejaVuSans-3d" d="M 678 2906 
L 4684 2906 
L 4684 2381 
L 678 2381 
L 678 2906 
z
M 678 1631 
L 4684 1631 
L 4684 1100 
L 678 1100 
L 678 1631 
z
" transform="scale(0.015625)"/>
      <path id="DejaVuSans-4b" d="M 628 4666 
L 1259 4666 
L 1259 2694 
L 3353 4666 
L 4166 4666 
L 1850 2491 
L 4331 0 
L 3500 0 
L 1259 2247 
L 1259 0 
L 628 0 
L 628 4666 
z
" transform="scale(0.015625)"/>
      <path id="DejaVuSans-2c" d="M 750 794 
L 1409 794 
L 1409 256 
L 897 -744 
L 494 -744 
L 750 256 
L 750 794 
z
" transform="scale(0.015625)"/>
      <path id="DejaVuSans-52" d="M 2841 2188 
Q 3044 2119 3236 1894 
Q 3428 1669 3622 1275 
L 4263 0 
L 3584 0 
L 2988 1197 
Q 2756 1666 2539 1819 
Q 2322 1972 1947 1972 
L 1259 1972 
L 1259 0 
L 628 0 
L 628 4666 
L 2053 4666 
Q 2853 4666 3247 4331 
Q 3641 3997 3641 3322 
Q 3641 2881 3436 2590 
Q 3231 2300 2841 2188 
z
M 1259 4147 
L 1259 2491 
L 2053 2491 
Q 2509 2491 2742 2702 
Q 2975 2913 2975 3322 
Q 2975 3731 2742 3939 
Q 2509 4147 2053 4147 
L 1259 4147 
z
" transform="scale(0.015625)"/>
      <path id="DejaVuSans-61" d="M 2194 1759 
Q 1497 1759 1228 1600 
Q 959 1441 959 1056 
Q 959 750 1161 570 
Q 1363 391 1709 391 
Q 2188 391 2477 730 
Q 2766 1069 2766 1631 
L 2766 1759 
L 2194 1759 
z
M 3341 1997 
L 3341 0 
L 2766 0 
L 2766 531 
Q 2569 213 2275 61 
Q 1981 -91 1556 -91 
Q 1019 -91 701 211 
Q 384 513 384 1019 
Q 384 1609 779 1909 
Q 1175 2209 1959 2209 
L 2766 2209 
L 2766 2266 
Q 2766 2663 2505 2880 
Q 2244 3097 1772 3097 
Q 1472 3097 1187 3025 
Q 903 2953 641 2809 
L 641 3341 
Q 956 3463 1253 3523 
Q 1550 3584 1831 3584 
Q 2591 3584 2966 3190 
Q 3341 2797 3341 1997 
z
" transform="scale(0.015625)"/>
      <path id="DejaVuSans-64" d="M 2906 2969 
L 2906 4863 
L 3481 4863 
L 3481 0 
L 2906 0 
L 2906 525 
Q 2725 213 2448 61 
Q 2172 -91 1784 -91 
Q 1150 -91 751 415 
Q 353 922 353 1747 
Q 353 2572 751 3078 
Q 1150 3584 1784 3584 
Q 2172 3584 2448 3432 
Q 2725 3281 2906 2969 
z
M 947 1747 
Q 947 1113 1208 752 
Q 1469 391 1925 391 
Q 2381 391 2643 752 
Q 2906 1113 2906 1747 
Q 2906 2381 2643 2742 
Q 2381 3103 1925 3103 
Q 1469 3103 1208 2742 
Q 947 2381 947 1747 
z
" transform="scale(0.015625)"/>
      <path id="DejaVuSans-2d" d="M 313 2009 
L 1997 2009 
L 1997 1497 
L 313 1497 
L 313 2009 
z
" transform="scale(0.015625)"/>
      <path id="DejaVuSans-57" d="M 213 4666 
L 850 4666 
L 1831 722 
L 2809 4666 
L 3519 4666 
L 4500 722 
L 5478 4666 
L 6119 4666 
L 4947 0 
L 4153 0 
L 3169 4050 
L 2175 0 
L 1381 0 
L 213 4666 
z
" transform="scale(0.015625)"/>
      <path id="DejaVuSans-74" d="M 1172 4494 
L 1172 3500 
L 2356 3500 
L 2356 3053 
L 1172 3053 
L 1172 1153 
Q 1172 725 1289 603 
Q 1406 481 1766 481 
L 2356 481 
L 2356 0 
L 1766 0 
Q 1100 0 847 248 
Q 594 497 594 1153 
L 594 3053 
L 172 3053 
L 172 3500 
L 594 3500 
L 594 4494 
L 1172 4494 
z
" transform="scale(0.015625)"/>
      <path id="DejaVuSans-54" d="M -19 4666 
L 3928 4666 
L 3928 4134 
L 2272 4134 
L 2272 0 
L 1638 0 
L 1638 4134 
L -19 4134 
L -19 4666 
z
" transform="scale(0.015625)"/>
      <path id="DejaVuSans-79" d="M 2059 -325 
Q 1816 -950 1584 -1140 
Q 1353 -1331 966 -1331 
L 506 -1331 
L 506 -850 
L 844 -850 
Q 1081 -850 1212 -737 
Q 1344 -625 1503 -206 
L 1606 56 
L 191 3500 
L 800 3500 
L 1894 763 
L 2988 3500 
L 3597 3500 
L 2059 -325 
z
" transform="scale(0.015625)"/>
      <path id="DejaVuSans-70" d="M 1159 525 
L 1159 -1331 
L 581 -1331 
L 581 3500 
L 1159 3500 
L 1159 2969 
Q 1341 3281 1617 3432 
Q 1894 3584 2278 3584 
Q 2916 3584 3314 3078 
Q 3713 2572 3713 1747 
Q 3713 922 3314 415 
Q 2916 -91 2278 -91 
Q 1894 -91 1617 61 
Q 1341 213 1159 525 
z
M 3116 1747 
Q 3116 2381 2855 2742 
Q 2594 3103 2138 3103 
Q 1681 3103 1420 2742 
Q 1159 2381 1159 1747 
Q 1159 1113 1420 752 
Q 1681 391 2138 391 
Q 2594 391 2855 752 
Q 3116 1113 3116 1747 
z
" transform="scale(0.015625)"/>
      <path id="DejaVuSans-71" d="M 947 1747 
Q 947 1113 1208 752 
Q 1469 391 1925 391 
Q 2381 391 2643 752 
Q 2906 1113 2906 1747 
Q 2906 2381 2643 2742 
Q 2381 3103 1925 3103 
Q 1469 3103 1208 2742 
Q 947 2381 947 1747 
z
M 2906 525 
Q 2725 213 2448 61 
Q 2172 -91 1784 -91 
Q 1150 -91 751 415 
Q 353 922 353 1747 
Q 353 2572 751 3078 
Q 1150 3584 1784 3584 
Q 2172 3584 2448 3432 
Q 2725 3281 2906 2969 
L 2906 3500 
L 3481 3500 
L 3481 -1331 
L 2906 -1331 
L 2906 525 
z
" transform="scale(0.015625)"/>
      <path id="DejaVuSans-6e" d="M 3513 2113 
L 3513 0 
L 2938 0 
L 2938 2094 
Q 2938 2591 2744 2837 
Q 2550 3084 2163 3084 
Q 1697 3084 1428 2787 
Q 1159 2491 1159 1978 
L 1159 0 
L 581 0 
L 581 3500 
L 1159 3500 
L 1159 2956 
Q 1366 3272 1645 3428 
Q 1925 3584 2291 3584 
Q 2894 3584 3203 3211 
Q 3513 2838 3513 2113 
z
" transform="scale(0.015625)"/>
      <path id="DejaVuSans-68" d="M 3513 2113 
L 3513 0 
L 2938 0 
L 2938 2094 
Q 2938 2591 2744 2837 
Q 2550 3084 2163 3084 
Q 1697 3084 1428 2787 
Q 1159 2491 1159 1978 
L 1159 0 
L 581 0 
L 581 4863 
L 1159 4863 
L 1159 2956 
Q 1366 3272 1645 3428 
Q 1925 3584 2291 3584 
Q 2894 3584 3203 3211 
Q 3513 2838 3513 2113 
z
" transform="scale(0.015625)"/>
      <path id="DejaVuSans-76" d="M 191 3500 
L 800 3500 
L 1894 563 
L 2988 3500 
L 3597 3500 
L 2284 0 
L 1503 0 
L 191 3500 
z
" transform="scale(0.015625)"/>
      <path id="DejaVuSans-3a" d="M 750 794 
L 1409 794 
L 1409 0 
L 750 0 
L 750 794 
z
M 750 3309 
L 1409 3309 
L 1409 2516 
L 750 2516 
L 750 3309 
z
" transform="scale(0.015625)"/>
     </defs>
     <use xlink:href="#DejaVuSans-42"/>
     <use xlink:href="#DejaVuSans-6c" transform="translate(68.603516 0)"/>
     <use xlink:href="#DejaVuSans-6f" transform="translate(96.386719 0)"/>
     <use xlink:href="#DejaVuSans-63" transform="translate(157.568359 0)"/>
     <use xlink:href="#DejaVuSans-6b" transform="translate(212.548828 0)"/>
     <use xlink:href="#DejaVuSans-20" transform="translate(270.458984 0)"/>
     <use xlink:href="#DejaVuSans-53" transform="translate(302.246094 0)"/>
     <use xlink:href="#DejaVuSans-69" transform="translate(365.722656 0)"/>
     <use xlink:href="#DejaVuSans-7a" transform="translate(393.505859 0)"/>
     <use xlink:href="#DejaVuSans-65" transform="translate(445.996094 0)"/>
     <use xlink:href="#DejaVuSans-20" transform="translate(507.519531 0)"/>
     <use xlink:href="#DejaVuSans-3d" transform="translate(539.306641 0)"/>
     <use xlink:href="#DejaVuSans-20" transform="translate(623.095703 0)"/>
     <use xlink:href="#DejaVuSans-31" transform="translate(654.882812 0)"/>
     <use xlink:href="#DejaVuSans-36" transform="translate(718.505859 0)"/>
     <use xlink:href="#DejaVuSans-4b" transform="translate(782.128906 0)"/>
     <use xlink:href="#DejaVuSans-2c" transform="translate(847.705078 0)"/>
     <use xlink:href="#DejaVuSans-20" transform="translate(879.492188 0)"/>
     <use xlink:href="#DejaVuSans-52" transform="translate(911.279297 0)"/>
     <use xlink:href="#DejaVuSans-65" transform="translate(976.261719 0)"/>
     <use xlink:href="#DejaVuSans-61" transform="translate(1037.785156 0)"/>
     <use xlink:href="#DejaVuSans-64" transform="translate(1099.064453 0)"/>
     <use xlink:href="#DejaVuSans-2d" transform="translate(1162.541016 0)"/>
     <use xlink:href="#DejaVuSans-57" transform="translate(1194.625 0)"/>
     <use xlink:href="#DejaVuSans-72" transform="translate(1289.001953 0)"/>
     <use xlink:href="#DejaVuSans-69" transform="translate(1330.115234 0)"/>
     <use xlink:href="#DejaVuSans-74" transform="translate(1357.898438 0)"/>
     <use xlink:href="#DejaVuSans-65" transform="translate(1397.107422 0)"/>
     <use xlink:href="#DejaVuSans-20" transform="translate(1458.630859 0)"/>
     <use xlink:href="#DejaVuSans-54" transform="translate(1490.417969 0)"/>
     <use xlink:href="#DejaVuSans-79" transform="translate(1535.876953 0)"/>
     <use xlink:href="#DejaVuSans-70" transform="translate(1595.056641 0)"/>
     <use xlink:href="#DejaVuSans-65" transform="translate(1658.533203 0)"/>
     <use xlink:href="#DejaVuSans-20" transform="translate(1720.056641 0)"/>
     <use xlink:href="#DejaVuSans-3d" transform="translate(1751.84375 0)"/>
     <use xlink:href="#DejaVuSans-20" transform="translate(1835.632812 0)"/>
     <use xlink:href="#DejaVuSans-53" transform="translate(1867.419922 0)"/>
     <use xlink:href="#DejaVuSans-65" transform="translate(1930.896484 0)"/>
     <use xlink:href="#DejaVuSans-71" transform="translate(1992.419922 0)"/>
     <use xlink:href="#DejaVuSans-75" transform="translate(2055.896484 0)"/>
     <use xlink:href="#DejaVuSans-65" transform="translate(2119.275391 0)"/>
     <use xlink:href="#DejaVuSans-6e" transform="translate(2180.798828 0)"/>
     <use xlink:href="#DejaVuSans-74" transform="translate(2244.177734 0)"/>
     <use xlink:href="#DejaVuSans-69" transform="translate(2283.386719 0)"/>
     <use xlink:href="#DejaVuSans-61" transform="translate(2311.169922 0)"/>
     <use xlink:href="#DejaVuSans-6c" transform="translate(2372.449219 0)"/>
     <use xlink:href="#DejaVuSans-20" transform="translate(2400.232422 0)"/>
     <use xlink:href="#DejaVuSans-57" transform="translate(2432.019531 0)"/>
     <use xlink:href="#DejaVuSans-72" transform="translate(2526.396484 0)"/>
     <use xlink:href="#DejaVuSans-69" transform="translate(2567.509766 0)"/>
     <use xlink:href="#DejaVuSans-74" transform="translate(2595.292969 0)"/>
     <use xlink:href="#DejaVuSans-65" transform="translate(2634.501953 0)"/>
     <use xlink:href="#DejaVuSans-2d" transform="translate(2696.025391 0)"/>
     <use xlink:href="#DejaVuSans-68" transform="translate(2732.109375 0)"/>
     <use xlink:href="#DejaVuSans-65" transform="translate(2795.488281 0)"/>
     <use xlink:href="#DejaVuSans-61" transform="translate(2857.011719 0)"/>
     <use xlink:href="#DejaVuSans-76" transform="translate(2918.291016 0)"/>
     <use xlink:href="#DejaVuSans-79" transform="translate(2977.470703 0)"/>
     <use xlink:href="#DejaVuSans-20" transform="translate(3036.650391 0)"/>
     <use xlink:href="#DejaVuSans-31" transform="translate(3068.4375 0)"/>
     <use xlink:href="#DejaVuSans-3a" transform="translate(3132.060547 0)"/>
     <use xlink:href="#DejaVuSans-34" transform="translate(3165.751953 0)"/>
    </g>
   </g>
   <g id="text_20">
    <!-- IOPS vs Number of Jobs -->
    <g style="fill: #262626" transform="translate(158.541562 16.318125) scale(0.12 -0.12)">
     <defs>
      <path id="DejaVuSans-Bold-49" d="M 588 4666 
L 1791 4666 
L 1791 0 
L 588 0 
L 588 4666 
z
" transform="scale(0.015625)"/>
      <path id="DejaVuSans-Bold-4f" d="M 2719 3878 
Q 2169 3878 1866 3472 
Q 1563 3066 1563 2328 
Q 1563 1594 1866 1187 
Q 2169 781 2719 781 
Q 3272 781 3575 1187 
Q 3878 1594 3878 2328 
Q 3878 3066 3575 3472 
Q 3272 3878 2719 3878 
z
M 2719 4750 
Q 3844 4750 4481 4106 
Q 5119 3463 5119 2328 
Q 5119 1197 4481 553 
Q 3844 -91 2719 -91 
Q 1597 -91 958 553 
Q 319 1197 319 2328 
Q 319 3463 958 4106 
Q 1597 4750 2719 4750 
z
" transform="scale(0.015625)"/>
      <path id="DejaVuSans-Bold-50" d="M 588 4666 
L 2584 4666 
Q 3475 4666 3951 4270 
Q 4428 3875 4428 3144 
Q 4428 2409 3951 2014 
Q 3475 1619 2584 1619 
L 1791 1619 
L 1791 0 
L 588 0 
L 588 4666 
z
M 1791 3794 
L 1791 2491 
L 2456 2491 
Q 2806 2491 2997 2661 
Q 3188 2831 3188 3144 
Q 3188 3456 2997 3625 
Q 2806 3794 2456 3794 
L 1791 3794 
z
" transform="scale(0.015625)"/>
      <path id="DejaVuSans-Bold-53" d="M 3834 4519 
L 3834 3531 
Q 3450 3703 3084 3790 
Q 2719 3878 2394 3878 
Q 1963 3878 1756 3759 
Q 1550 3641 1550 3391 
Q 1550 3203 1689 3098 
Q 1828 2994 2194 2919 
L 2706 2816 
Q 3484 2659 3812 2340 
Q 4141 2022 4141 1434 
Q 4141 663 3683 286 
Q 3225 -91 2284 -91 
Q 1841 -91 1394 -6 
Q 947 78 500 244 
L 500 1259 
Q 947 1022 1364 901 
Q 1781 781 2169 781 
Q 2563 781 2772 912 
Q 2981 1044 2981 1288 
Q 2981 1506 2839 1625 
Q 2697 1744 2272 1838 
L 1806 1941 
Q 1106 2091 782 2419 
Q 459 2747 459 3303 
Q 459 4000 909 4375 
Q 1359 4750 2203 4750 
Q 2588 4750 2994 4692 
Q 3400 4634 3834 4519 
z
" transform="scale(0.015625)"/>
      <path id="DejaVuSans-Bold-20" transform="scale(0.015625)"/>
      <path id="DejaVuSans-Bold-76" d="M 97 3500 
L 1216 3500 
L 2088 1081 
L 2956 3500 
L 4078 3500 
L 2700 0 
L 1472 0 
L 97 3500 
z
" transform="scale(0.015625)"/>
      <path id="DejaVuSans-Bold-73" d="M 3272 3391 
L 3272 2541 
Q 2913 2691 2578 2766 
Q 2244 2841 1947 2841 
Q 1628 2841 1473 2761 
Q 1319 2681 1319 2516 
Q 1319 2381 1436 2309 
Q 1553 2238 1856 2203 
L 2053 2175 
Q 2913 2066 3209 1816 
Q 3506 1566 3506 1031 
Q 3506 472 3093 190 
Q 2681 -91 1863 -91 
Q 1516 -91 1145 -36 
Q 775 19 384 128 
L 384 978 
Q 719 816 1070 734 
Q 1422 653 1784 653 
Q 2113 653 2278 743 
Q 2444 834 2444 1013 
Q 2444 1163 2330 1236 
Q 2216 1309 1875 1350 
L 1678 1375 
Q 931 1469 631 1722 
Q 331 1975 331 2491 
Q 331 3047 712 3315 
Q 1094 3584 1881 3584 
Q 2191 3584 2531 3537 
Q 2872 3491 3272 3391 
z
" transform="scale(0.015625)"/>
      <path id="DejaVuSans-Bold-4e" d="M 588 4666 
L 1931 4666 
L 3628 1466 
L 3628 4666 
L 4769 4666 
L 4769 0 
L 3425 0 
L 1728 3200 
L 1728 0 
L 588 0 
L 588 4666 
z
" transform="scale(0.015625)"/>
      <path id="DejaVuSans-Bold-75" d="M 500 1363 
L 500 3500 
L 1625 3500 
L 1625 3150 
Q 1625 2866 1622 2436 
Q 1619 2006 1619 1863 
Q 1619 1441 1641 1255 
Q 1663 1069 1716 984 
Q 1784 875 1895 815 
Q 2006 756 2150 756 
Q 2500 756 2700 1025 
Q 2900 1294 2900 1772 
L 2900 3500 
L 4019 3500 
L 4019 0 
L 2900 0 
L 2900 506 
Q 2647 200 2364 54 
Q 2081 -91 1741 -91 
Q 1134 -91 817 281 
Q 500 653 500 1363 
z
" transform="scale(0.015625)"/>
      <path id="DejaVuSans-Bold-6d" d="M 3781 2919 
Q 3994 3244 4286 3414 
Q 4578 3584 4928 3584 
Q 5531 3584 5847 3212 
Q 6163 2841 6163 2131 
L 6163 0 
L 5038 0 
L 5038 1825 
Q 5041 1866 5042 1909 
Q 5044 1953 5044 2034 
Q 5044 2406 4934 2573 
Q 4825 2741 4581 2741 
Q 4263 2741 4089 2478 
Q 3916 2216 3909 1719 
L 3909 0 
L 2784 0 
L 2784 1825 
Q 2784 2406 2684 2573 
Q 2584 2741 2328 2741 
Q 2006 2741 1831 2477 
Q 1656 2213 1656 1722 
L 1656 0 
L 531 0 
L 531 3500 
L 1656 3500 
L 1656 2988 
Q 1863 3284 2130 3434 
Q 2397 3584 2719 3584 
Q 3081 3584 3359 3409 
Q 3638 3234 3781 2919 
z
" transform="scale(0.015625)"/>
      <path id="DejaVuSans-Bold-62" d="M 2400 722 
Q 2759 722 2948 984 
Q 3138 1247 3138 1747 
Q 3138 2247 2948 2509 
Q 2759 2772 2400 2772 
Q 2041 2772 1848 2508 
Q 1656 2244 1656 1747 
Q 1656 1250 1848 986 
Q 2041 722 2400 722 
z
M 1656 2988 
Q 1888 3294 2169 3439 
Q 2450 3584 2816 3584 
Q 3463 3584 3878 3070 
Q 4294 2556 4294 1747 
Q 4294 938 3878 423 
Q 3463 -91 2816 -91 
Q 2450 -91 2169 54 
Q 1888 200 1656 506 
L 1656 0 
L 538 0 
L 538 4863 
L 1656 4863 
L 1656 2988 
z
" transform="scale(0.015625)"/>
      <path id="DejaVuSans-Bold-65" d="M 4031 1759 
L 4031 1441 
L 1416 1441 
Q 1456 1047 1700 850 
Q 1944 653 2381 653 
Q 2734 653 3104 758 
Q 3475 863 3866 1075 
L 3866 213 
Q 3469 63 3072 -14 
Q 2675 -91 2278 -91 
Q 1328 -91 801 392 
Q 275 875 275 1747 
Q 275 2603 792 3093 
Q 1309 3584 2216 3584 
Q 3041 3584 3536 3087 
Q 4031 2591 4031 1759 
z
M 2881 2131 
Q 2881 2450 2695 2645 
Q 2509 2841 2209 2841 
Q 1884 2841 1681 2658 
Q 1478 2475 1428 2131 
L 2881 2131 
z
" transform="scale(0.015625)"/>
      <path id="DejaVuSans-Bold-72" d="M 3138 2547 
Q 2991 2616 2845 2648 
Q 2700 2681 2553 2681 
Q 2122 2681 1889 2404 
Q 1656 2128 1656 1613 
L 1656 0 
L 538 0 
L 538 3500 
L 1656 3500 
L 1656 2925 
Q 1872 3269 2151 3426 
Q 2431 3584 2822 3584 
Q 2878 3584 2943 3579 
Q 3009 3575 3134 3559 
L 3138 2547 
z
" transform="scale(0.015625)"/>
      <path id="DejaVuSans-Bold-6f" d="M 2203 2784 
Q 1831 2784 1636 2517 
Q 1441 2250 1441 1747 
Q 1441 1244 1636 976 
Q 1831 709 2203 709 
Q 2569 709 2762 976 
Q 2956 1244 2956 1747 
Q 2956 2250 2762 2517 
Q 2569 2784 2203 2784 
z
M 2203 3584 
Q 3106 3584 3614 3096 
Q 4122 2609 4122 1747 
Q 4122 884 3614 396 
Q 3106 -91 2203 -91 
Q 1297 -91 786 396 
Q 275 884 275 1747 
Q 275 2609 786 3096 
Q 1297 3584 2203 3584 
z
" transform="scale(0.015625)"/>
      <path id="DejaVuSans-Bold-66" d="M 2841 4863 
L 2841 4128 
L 2222 4128 
Q 1984 4128 1890 4042 
Q 1797 3956 1797 3744 
L 1797 3500 
L 2753 3500 
L 2753 2700 
L 1797 2700 
L 1797 0 
L 678 0 
L 678 2700 
L 122 2700 
L 122 3500 
L 678 3500 
L 678 3744 
Q 678 4316 997 4589 
Q 1316 4863 1984 4863 
L 2841 4863 
z
" transform="scale(0.015625)"/>
      <path id="DejaVuSans-Bold-4a" d="M 588 4666 
L 1791 4666 
L 1791 453 
Q 1791 -419 1317 -850 
Q 844 -1281 -116 -1281 
L -359 -1281 
L -359 -372 
L -172 -372 
Q 203 -372 395 -162 
Q 588 47 588 453 
L 588 4666 
z
" transform="scale(0.015625)"/>
     </defs>
     <use xlink:href="#DejaVuSans-Bold-49"/>
     <use xlink:href="#DejaVuSans-Bold-4f" transform="translate(37.207031 0)"/>
     <use xlink:href="#DejaVuSans-Bold-50" transform="translate(122.216797 0)"/>
     <use xlink:href="#DejaVuSans-Bold-53" transform="translate(195.507812 0)"/>
     <use xlink:href="#DejaVuSans-Bold-20" transform="translate(267.529297 0)"/>
     <use xlink:href="#DejaVuSans-Bold-76" transform="translate(302.34375 0)"/>
     <use xlink:href="#DejaVuSans-Bold-73" transform="translate(367.529297 0)"/>
     <use xlink:href="#DejaVuSans-Bold-20" transform="translate(427.050781 0)"/>
     <use xlink:href="#DejaVuSans-Bold-4e" transform="translate(461.865234 0)"/>
     <use xlink:href="#DejaVuSans-Bold-75" transform="translate(545.556641 0)"/>
     <use xlink:href="#DejaVuSans-Bold-6d" transform="translate(616.748047 0)"/>
     <use xlink:href="#DejaVuSans-Bold-62" transform="translate(720.947266 0)"/>
     <use xlink:href="#DejaVuSans-Bold-65" transform="translate(792.529297 0)"/>
     <use xlink:href="#DejaVuSans-Bold-72" transform="translate(860.351562 0)"/>
     <use xlink:href="#DejaVuSans-Bold-20" transform="translate(909.667969 0)"/>
     <use xlink:href="#DejaVuSans-Bold-6f" transform="translate(944.482422 0)"/>
     <use xlink:href="#DejaVuSans-Bold-66" transform="translate(1013.183594 0)"/>
     <use xlink:href="#DejaVuSans-Bold-20" transform="translate(1056.689453 0)"/>
     <use xlink:href="#DejaVuSans-Bold-4a" transform="translate(1091.503906 0)"/>
     <use xlink:href="#DejaVuSans-Bold-6f" transform="translate(1128.710938 0)"/>
     <use xlink:href="#DejaVuSans-Bold-62" transform="translate(1197.412109 0)"/>
     <use xlink:href="#DejaVuSans-Bold-73" transform="translate(1268.994141 0)"/>
    </g>
   </g>
   <g id="legend_1">
    <g id="text_21">
     <!-- IO Depth -->
     <g style="fill: #262626" transform="translate(451.317187 120.065663) scale(0.1 -0.1)">
      <defs>
       <path id="DejaVuSans-44" d="M 1259 4147 
L 1259 519 
L 2022 519 
Q 2988 519 3436 956 
Q 3884 1394 3884 2338 
Q 3884 3275 3436 3711 
Q 2988 4147 2022 4147 
L 1259 4147 
z
M 628 4666 
L 1925 4666 
Q 3281 4666 3915 4102 
Q 4550 3538 4550 2338 
Q 4550 1131 3912 565 
Q 3275 0 1925 0 
L 628 0 
L 628 4666 
z
" transform="scale(0.015625)"/>
      </defs>
      <use xlink:href="#DejaVuSans-49"/>
      <use xlink:href="#DejaVuSans-4f" transform="translate(29.492188 0)"/>
      <use xlink:href="#DejaVuSans-20" transform="translate(108.203125 0)"/>
      <use xlink:href="#DejaVuSans-44" transform="translate(139.990234 0)"/>
      <use xlink:href="#DejaVuSans-65" transform="translate(216.992188 0)"/>
      <use xlink:href="#DejaVuSans-70" transform="translate(278.515625 0)"/>
      <use xlink:href="#DejaVuSans-74" transform="translate(341.992188 0)"/>
      <use xlink:href="#DejaVuSans-68" transform="translate(381.201172 0)"/>
     </g>
    </g>
    <g id="line2d_24">
     <path d="M 450.003125 131.243787 
L 460.003125 131.243787 
L 470.003125 131.243787 
" style="fill: none; stroke: #4c02a1; stroke-width: 1.5; stroke-linecap: round"/>
    </g>
    <g id="text_22">
     <!-- 1 -->
     <g style="fill: #262626" transform="translate(478.003125 134.743787) scale(0.1 -0.1)">
      <use xlink:href="#DejaVuSans-31"/>
     </g>
    </g>
    <g id="line2d_25">
     <path d="M 450.003125 145.921913 
L 460.003125 145.921913 
L 470.003125 145.921913 
" style="fill: none; stroke: #7e03a8; stroke-width: 1.5; stroke-linecap: round"/>
    </g>
    <g id="text_23">
     <!-- 4 -->
     <g style="fill: #262626" transform="translate(478.003125 149.421913) scale(0.1 -0.1)">
      <use xlink:href="#DejaVuSans-34"/>
     </g>
    </g>
    <g id="line2d_26">
     <path d="M 450.003125 160.600037 
L 460.003125 160.600037 
L 470.003125 160.600037 
" style="fill: none; stroke: #aa2395; stroke-width: 1.5; stroke-linecap: round"/>
    </g>
    <g id="text_24">
     <!-- 8 -->
     <g style="fill: #262626" transform="translate(478.003125 164.100037) scale(0.1 -0.1)">
      <use xlink:href="#DejaVuSans-38"/>
     </g>
    </g>
    <g id="line2d_27">
     <path d="M 450.003125 175.278163 
L 460.003125 175.278163 
L 470.003125 175.278163 
" style="fill: none; stroke: #cc4778; stroke-width: 1.5; stroke-linecap: round"/>
    </g>
    <g id="text_25">
     <!-- 16 -->
     <g style="fill: #262626" transform="translate(478.003125 178.778163) scale(0.1 -0.1)">
      <use xlink:href="#DejaVuSans-31"/>
      <use xlink:href="#DejaVuSans-36" transform="translate(63.623047 0)"/>
     </g>
    </g>
    <g id="line2d_28">
     <path d="M 450.003125 189.956288 
L 460.003125 189.956288 
L 470.003125 189.956288 
" style="fill: none; stroke: #e66c5c; stroke-width: 1.5; stroke-linecap: round"/>
    </g>
    <g id="text_26">
     <!-- 32 -->
     <g style="fill: #262626" transform="translate(478.003125 193.456288) scale(0.1 -0.1)">
      <use xlink:href="#DejaVuSans-33"/>
      <use xlink:href="#DejaVuSans-32" transform="translate(63.623047 0)"/>
     </g>
    </g>
    <g id="line2d_29">
     <path d="M 450.003125 204.634412 
L 460.003125 204.634412 
L 470.003125 204.634412 
" style="fill: none; stroke: #f89540; stroke-width: 1.5; stroke-linecap: round"/>
    </g>
    <g id="text_27">
     <!-- 64 -->
     <g style="fill: #262626" transform="translate(478.003125 208.134412) scale(0.1 -0.1)">
      <use xlink:href="#DejaVuSans-36"/>
      <use xlink:href="#DejaVuSans-34" transform="translate(63.623047 0)"/>
     </g>
    </g>
    <g id="line2d_30">
     <path d="M 450.003125 219.312537 
L 460.003125 219.312537 
L 470.003125 219.312537 
" style="fill: none; stroke: #fdc527; stroke-width: 1.5; stroke-linecap: round"/>
    </g>
    <g id="text_28">
     <!-- 128 -->
     <g style="fill: #262626" transform="translate(478.003125 222.812537) scale(0.1 -0.1)">
      <use xlink:href="#DejaVuSans-31"/>
      <use xlink:href="#DejaVuSans-32" transform="translate(63.623047 0)"/>
      <use xlink:href="#DejaVuSans-38" transform="translate(127.246094 0)"/>
     </g>
    </g>
   </g>
  </g>
 </g>
 <defs>
  <clipPath id="pdd3fe60e55">
   <rect x="59.690625" y="35.623725" width="357.12" height="266.112"/>
  </clipPath>
 </defs>
</svg>
