<?xml version="1.0" encoding="utf-8" standalone="no"?>
<!DOCTYPE svg PUBLIC "-//W3C//DTD SVG 1.1//EN"
  "http://www.w3.org/Graphics/SVG/1.1/DTD/svg11.dtd">
<svg xmlns:xlink="http://www.w3.org/1999/xlink" width="508.290625pt" height="339.291975pt" viewBox="0 0 508.290625 339.291975" xmlns="http://www.w3.org/2000/svg" version="1.1">
 <metadata>
  <rdf:RDF xmlns:dc="http://purl.org/dc/elements/1.1/" xmlns:cc="http://creativecommons.org/ns#" xmlns:rdf="http://www.w3.org/1999/02/22-rdf-syntax-ns#">
   <cc:Work>
    <dc:type rdf:resource="http://purl.org/dc/dcmitype/StillImage"/>
    <dc:date>2025-09-11T11:34:36.131089</dc:date>
    <dc:format>image/svg+xml</dc:format>
    <dc:creator>
     <cc:Agent>
      <dc:title>Matplotlib v3.10.6, https://matplotlib.org/</dc:title>
     </cc:Agent>
    </dc:creator>
   </cc:Work>
  </rdf:RDF>
 </metadata>
 <defs>
  <style type="text/css">*{stroke-linejoin: round; stroke-linecap: butt}</style>
 </defs>
 <g id="figure_1">
  <g id="patch_1">
   <path d="M 0 339.291975 
L 508.290625 339.291975 
L 508.290625 0 
L 0 0 
z
" style="fill: #ffffff"/>
  </g>
  <g id="axes_1">
   <g id="patch_2">
    <path d="M 59.690625 301.735725 
L 416.810625 301.735725 
L 416.810625 35.623725 
L 59.690625 35.623725 
z
" style="fill: #ffffff"/>
   </g>
   <g id="matplotlib.axis_1">
    <g id="xtick_1">
     <g id="line2d_1">
      <path d="M 75.923352 301.735725 
L 75.923352 35.623725 
" clip-path="url(#pfeacef1bbf)" style="fill: none; stroke: #cccccc; stroke-width: 0.8; stroke-linecap: round"/>
     </g>
     <g id="text_1">
      <!-- 16 -->
      <g style="fill: #262626" transform="translate(69.560852 316.334162) scale(0.1 -0.1)">
       <defs>
        <path id="DejaVuSans-31" d="M 794 531 
L 1825 531 
L 1825 4091 
L 703 3866 
L 703 4441 
L 1819 4666 
L 2450 4666 
L 2450 531 
L 3481 531 
L 3481 0 
L 794 0 
L 794 531 
z
" transform="scale(0.015625)"/>
        <path id="DejaVuSans-36" d="M 2113 2584 
Q 1688 2584 1439 2293 
Q 1191 2003 1191 1497 
Q 1191 994 1439 701 
Q 1688 409 2113 409 
Q 2538 409 2786 701 
Q 3034 994 3034 1497 
Q 3034 2003 2786 2293 
Q 2538 2584 2113 2584 
z
M 3366 4563 
L 3366 3988 
Q 3128 4100 2886 4159 
Q 2644 4219 2406 4219 
Q 1781 4219 1451 3797 
Q 1122 3375 1075 2522 
Q 1259 2794 1537 2939 
Q 1816 3084 2150 3084 
Q 2853 3084 3261 2657 
Q 3669 2231 3669 1497 
Q 3669 778 3244 343 
Q 2819 -91 2113 -91 
Q 1303 -91 875 529 
Q 447 1150 447 2328 
Q 447 3434 972 4092 
Q 1497 4750 2381 4750 
Q 2619 4750 2861 4703 
Q 3103 4656 3366 4563 
z
" transform="scale(0.015625)"/>
       </defs>
       <use xlink:href="#DejaVuSans-31"/>
       <use xlink:href="#DejaVuSans-36" transform="translate(63.623047 0)"/>
      </g>
     </g>
    </g>
    <g id="xtick_2">
     <g id="line2d_2">
      <path d="M 400.577898 301.735725 
L 400.577898 35.623725 
" clip-path="url(#pfeacef1bbf)" style="fill: none; stroke: #cccccc; stroke-width: 0.8; stroke-linecap: round"/>
     </g>
     <g id="text_2">
      <!-- 128 -->
      <g style="fill: #262626" transform="translate(391.034148 316.334162) scale(0.1 -0.1)">
       <defs>
        <path id="DejaVuSans-32" d="M 1228 531 
L 3431 531 
L 3431 0 
L 469 0 
L 469 531 
Q 828 903 1448 1529 
Q 2069 2156 2228 2338 
Q 2531 2678 2651 2914 
Q 2772 3150 2772 3378 
Q 2772 3750 2511 3984 
Q 2250 4219 1831 4219 
Q 1534 4219 1204 4116 
Q 875 4013 500 3803 
L 500 4441 
Q 881 4594 1212 4672 
Q 1544 4750 1819 4750 
Q 2544 4750 2975 4387 
Q 3406 4025 3406 3419 
Q 3406 3131 3298 2873 
Q 3191 2616 2906 2266 
Q 2828 2175 2409 1742 
Q 1991 1309 1228 531 
z
" transform="scale(0.015625)"/>
        <path id="DejaVuSans-38" d="M 2034 2216 
Q 1584 2216 1326 1975 
Q 1069 1734 1069 1313 
Q 1069 891 1326 650 
Q 1584 409 2034 409 
Q 2484 409 2743 651 
Q 3003 894 3003 1313 
Q 3003 1734 2745 1975 
Q 2488 2216 2034 2216 
z
M 1403 2484 
Q 997 2584 770 2862 
Q 544 3141 544 3541 
Q 544 4100 942 4425 
Q 1341 4750 2034 4750 
Q 2731 4750 3128 4425 
Q 3525 4100 3525 3541 
Q 3525 3141 3298 2862 
Q 3072 2584 2669 2484 
Q 3125 2378 3379 2068 
Q 3634 1759 3634 1313 
Q 3634 634 3220 271 
Q 2806 -91 2034 -91 
Q 1263 -91 848 271 
Q 434 634 434 1313 
Q 434 1759 690 2068 
Q 947 2378 1403 2484 
z
M 1172 3481 
Q 1172 3119 1398 2916 
Q 1625 2713 2034 2713 
Q 2441 2713 2670 2916 
Q 2900 3119 2900 3481 
Q 2900 3844 2670 4047 
Q 2441 4250 2034 4250 
Q 1625 4250 1398 4047 
Q 1172 3844 1172 3481 
z
" transform="scale(0.015625)"/>
       </defs>
       <use xlink:href="#DejaVuSans-31"/>
       <use xlink:href="#DejaVuSans-32" transform="translate(63.623047 0)"/>
       <use xlink:href="#DejaVuSans-38" transform="translate(127.246094 0)"/>
      </g>
     </g>
    </g>
    <g id="xtick_3">
     <g id="line2d_3">
      <path d="M 122.302573 301.735725 
L 122.302573 35.623725 
" clip-path="url(#pfeacef1bbf)" style="fill: none; stroke: #cccccc; stroke-width: 0.8; stroke-linecap: round"/>
     </g>
     <g id="text_3">
      <!-- 32 -->
      <g style="fill: #262626" transform="translate(115.940073 316.334162) scale(0.1 -0.1)">
       <defs>
        <path id="DejaVuSans-33" d="M 2597 2516 
Q 3050 2419 3304 2112 
Q 3559 1806 3559 1356 
Q 3559 666 3084 287 
Q 2609 -91 1734 -91 
Q 1441 -91 1130 -33 
Q 819 25 488 141 
L 488 750 
Q 750 597 1062 519 
Q 1375 441 1716 441 
Q 2309 441 2620 675 
Q 2931 909 2931 1356 
Q 2931 1769 2642 2001 
Q 2353 2234 1838 2234 
L 1294 2234 
L 1294 2753 
L 1863 2753 
Q 2328 2753 2575 2939 
Q 2822 3125 2822 3475 
Q 2822 3834 2567 4026 
Q 2313 4219 1838 4219 
Q 1578 4219 1281 4162 
Q 984 4106 628 3988 
L 628 4550 
Q 988 4650 1302 4700 
Q 1616 4750 1894 4750 
Q 2613 4750 3031 4423 
Q 3450 4097 3450 3541 
Q 3450 3153 3228 2886 
Q 3006 2619 2597 2516 
z
" transform="scale(0.015625)"/>
       </defs>
       <use xlink:href="#DejaVuSans-33"/>
       <use xlink:href="#DejaVuSans-32" transform="translate(63.623047 0)"/>
      </g>
     </g>
    </g>
    <g id="xtick_4">
     <g id="line2d_4">
      <path d="M 215.061015 301.735725 
L 215.061015 35.623725 
" clip-path="url(#pfeacef1bbf)" style="fill: none; stroke: #cccccc; stroke-width: 0.8; stroke-linecap: round"/>
     </g>
     <g id="text_4">
      <!-- 64 -->
      <g style="fill: #262626" transform="translate(208.698515 316.334162) scale(0.1 -0.1)">
       <defs>
        <path id="DejaVuSans-34" d="M 2419 4116 
L 825 1625 
L 2419 1625 
L 2419 4116 
z
M 2253 4666 
L 3047 4666 
L 3047 1625 
L 3713 1625 
L 3713 1100 
L 3047 1100 
L 3047 0 
L 2419 0 
L 2419 1100 
L 313 1100 
L 313 1709 
L 2253 4666 
z
" transform="scale(0.015625)"/>
       </defs>
       <use xlink:href="#DejaVuSans-36"/>
       <use xlink:href="#DejaVuSans-34" transform="translate(63.623047 0)"/>
      </g>
     </g>
    </g>
    <g id="text_5">
     <!-- Number of Jobs -->
     <g style="fill: #262626" transform="translate(199.85375 330.012287) scale(0.1 -0.1)">
      <defs>
       <path id="DejaVuSans-4e" d="M 628 4666 
L 1478 4666 
L 3547 763 
L 3547 4666 
L 4159 4666 
L 4159 0 
L 3309 0 
L 1241 3903 
L 1241 0 
L 628 0 
L 628 4666 
z
" transform="scale(0.015625)"/>
       <path id="DejaVuSans-75" d="M 544 1381 
L 544 3500 
L 1119 3500 
L 1119 1403 
Q 1119 906 1312 657 
Q 1506 409 1894 409 
Q 2359 409 2629 706 
Q 2900 1003 2900 1516 
L 2900 3500 
L 3475 3500 
L 3475 0 
L 2900 0 
L 2900 538 
Q 2691 219 2414 64 
Q 2138 -91 1772 -91 
Q 1169 -91 856 284 
Q 544 659 544 1381 
z
M 1991 3584 
L 1991 3584 
z
" transform="scale(0.015625)"/>
       <path id="DejaVuSans-6d" d="M 3328 2828 
Q 3544 3216 3844 3400 
Q 4144 3584 4550 3584 
Q 5097 3584 5394 3201 
Q 5691 2819 5691 2113 
L 5691 0 
L 5113 0 
L 5113 2094 
Q 5113 2597 4934 2840 
Q 4756 3084 4391 3084 
Q 3944 3084 3684 2787 
Q 3425 2491 3425 1978 
L 3425 0 
L 2847 0 
L 2847 2094 
Q 2847 2600 2669 2842 
Q 2491 3084 2119 3084 
Q 1678 3084 1418 2786 
Q 1159 2488 1159 1978 
L 1159 0 
L 581 0 
L 581 3500 
L 1159 3500 
L 1159 2956 
Q 1356 3278 1631 3431 
Q 1906 3584 2284 3584 
Q 2666 3584 2933 3390 
Q 3200 3197 3328 2828 
z
" transform="scale(0.015625)"/>
       <path id="DejaVuSans-62" d="M 3116 1747 
Q 3116 2381 2855 2742 
Q 2594 3103 2138 3103 
Q 1681 3103 1420 2742 
Q 1159 2381 1159 1747 
Q 1159 1113 1420 752 
Q 1681 391 2138 391 
Q 2594 391 2855 752 
Q 3116 1113 3116 1747 
z
M 1159 2969 
Q 1341 3281 1617 3432 
Q 1894 3584 2278 3584 
Q 2916 3584 3314 3078 
Q 3713 2572 3713 1747 
Q 3713 922 3314 415 
Q 2916 -91 2278 -91 
Q 1894 -91 1617 61 
Q 1341 213 1159 525 
L 1159 0 
L 581 0 
L 581 4863 
L 1159 4863 
L 1159 2969 
z
" transform="scale(0.015625)"/>
       <path id="DejaVuSans-65" d="M 3597 1894 
L 3597 1613 
L 953 1613 
Q 991 1019 1311 708 
Q 1631 397 2203 397 
Q 2534 397 2845 478 
Q 3156 559 3463 722 
L 3463 178 
Q 3153 47 2828 -22 
Q 2503 -91 2169 -91 
Q 1331 -91 842 396 
Q 353 884 353 1716 
Q 353 2575 817 3079 
Q 1281 3584 2069 3584 
Q 2775 3584 3186 3129 
Q 3597 2675 3597 1894 
z
M 3022 2063 
Q 3016 2534 2758 2815 
Q 2500 3097 2075 3097 
Q 1594 3097 1305 2825 
Q 1016 2553 972 2059 
L 3022 2063 
z
" transform="scale(0.015625)"/>
       <path id="DejaVuSans-72" d="M 2631 2963 
Q 2534 3019 2420 3045 
Q 2306 3072 2169 3072 
Q 1681 3072 1420 2755 
Q 1159 2438 1159 1844 
L 1159 0 
L 581 0 
L 581 3500 
L 1159 3500 
L 1159 2956 
Q 1341 3275 1631 3429 
Q 1922 3584 2338 3584 
Q 2397 3584 2469 3576 
Q 2541 3569 2628 3553 
L 2631 2963 
z
" transform="scale(0.015625)"/>
       <path id="DejaVuSans-20" transform="scale(0.015625)"/>
       <path id="DejaVuSans-6f" d="M 1959 3097 
Q 1497 3097 1228 2736 
Q 959 2375 959 1747 
Q 959 1119 1226 758 
Q 1494 397 1959 397 
Q 2419 397 2687 759 
Q 2956 1122 2956 1747 
Q 2956 2369 2687 2733 
Q 2419 3097 1959 3097 
z
M 1959 3584 
Q 2709 3584 3137 3096 
Q 3566 2609 3566 1747 
Q 3566 888 3137 398 
Q 2709 -91 1959 -91 
Q 1206 -91 779 398 
Q 353 888 353 1747 
Q 353 2609 779 3096 
Q 1206 3584 1959 3584 
z
" transform="scale(0.015625)"/>
       <path id="DejaVuSans-66" d="M 2375 4863 
L 2375 4384 
L 1825 4384 
Q 1516 4384 1395 4259 
Q 1275 4134 1275 3809 
L 1275 3500 
L 2222 3500 
L 2222 3053 
L 1275 3053 
L 1275 0 
L 697 0 
L 697 3053 
L 147 3053 
L 147 3500 
L 697 3500 
L 697 3744 
Q 697 4328 969 4595 
Q 1241 4863 1831 4863 
L 2375 4863 
z
" transform="scale(0.015625)"/>
       <path id="DejaVuSans-4a" d="M 628 4666 
L 1259 4666 
L 1259 325 
Q 1259 -519 939 -900 
Q 619 -1281 -91 -1281 
L -331 -1281 
L -331 -750 
L -134 -750 
Q 284 -750 456 -515 
Q 628 -281 628 325 
L 628 4666 
z
" transform="scale(0.015625)"/>
       <path id="DejaVuSans-73" d="M 2834 3397 
L 2834 2853 
Q 2591 2978 2328 3040 
Q 2066 3103 1784 3103 
Q 1356 3103 1142 2972 
Q 928 2841 928 2578 
Q 928 2378 1081 2264 
Q 1234 2150 1697 2047 
L 1894 2003 
Q 2506 1872 2764 1633 
Q 3022 1394 3022 966 
Q 3022 478 2636 193 
Q 2250 -91 1575 -91 
Q 1294 -91 989 -36 
Q 684 19 347 128 
L 347 722 
Q 666 556 975 473 
Q 1284 391 1588 391 
Q 1994 391 2212 530 
Q 2431 669 2431 922 
Q 2431 1156 2273 1281 
Q 2116 1406 1581 1522 
L 1381 1569 
Q 847 1681 609 1914 
Q 372 2147 372 2553 
Q 372 3047 722 3315 
Q 1072 3584 1716 3584 
Q 2034 3584 2315 3537 
Q 2597 3491 2834 3397 
z
" transform="scale(0.015625)"/>
      </defs>
      <use xlink:href="#DejaVuSans-4e"/>
      <use xlink:href="#DejaVuSans-75" transform="translate(74.804688 0)"/>
      <use xlink:href="#DejaVuSans-6d" transform="translate(138.183594 0)"/>
      <use xlink:href="#DejaVuSans-62" transform="translate(235.595703 0)"/>
      <use xlink:href="#DejaVuSans-65" transform="translate(299.072266 0)"/>
      <use xlink:href="#DejaVuSans-72" transform="translate(360.595703 0)"/>
      <use xlink:href="#DejaVuSans-20" transform="translate(401.708984 0)"/>
      <use xlink:href="#DejaVuSans-6f" transform="translate(433.496094 0)"/>
      <use xlink:href="#DejaVuSans-66" transform="translate(494.677734 0)"/>
      <use xlink:href="#DejaVuSans-20" transform="translate(529.882812 0)"/>
      <use xlink:href="#DejaVuSans-4a" transform="translate(561.669922 0)"/>
      <use xlink:href="#DejaVuSans-6f" transform="translate(591.162109 0)"/>
      <use xlink:href="#DejaVuSans-62" transform="translate(652.34375 0)"/>
      <use xlink:href="#DejaVuSans-73" transform="translate(715.820312 0)"/>
     </g>
    </g>
   </g>
   <g id="matplotlib.axis_2">
    <g id="ytick_1">
     <g id="line2d_5">
      <path d="M 59.690625 267.958008 
L 416.810625 267.958008 
" clip-path="url(#pfeacef1bbf)" style="fill: none; stroke: #cccccc; stroke-width: 0.8; stroke-linecap: round"/>
     </g>
     <g id="text_6">
      <!-- 60000 -->
      <g style="fill: #262626" transform="translate(20.878125 271.757227) scale(0.1 -0.1)">
       <defs>
        <path id="DejaVuSans-30" d="M 2034 4250 
Q 1547 4250 1301 3770 
Q 1056 3291 1056 2328 
Q 1056 1369 1301 889 
Q 1547 409 2034 409 
Q 2525 409 2770 889 
Q 3016 1369 3016 2328 
Q 3016 3291 2770 3770 
Q 2525 4250 2034 4250 
z
M 2034 4750 
Q 2819 4750 3233 4129 
Q 3647 3509 3647 2328 
Q 3647 1150 3233 529 
Q 2819 -91 2034 -91 
Q 1250 -91 836 529 
Q 422 1150 422 2328 
Q 422 3509 836 4129 
Q 1250 4750 2034 4750 
z
" transform="scale(0.015625)"/>
       </defs>
       <use xlink:href="#DejaVuSans-36"/>
       <use xlink:href="#DejaVuSans-30" transform="translate(63.623047 0)"/>
       <use xlink:href="#DejaVuSans-30" transform="translate(127.246094 0)"/>
       <use xlink:href="#DejaVuSans-30" transform="translate(190.869141 0)"/>
       <use xlink:href="#DejaVuSans-30" transform="translate(254.492188 0)"/>
      </g>
     </g>
    </g>
    <g id="ytick_2">
     <g id="line2d_6">
      <path d="M 59.690625 212.956189 
L 416.810625 212.956189 
" clip-path="url(#pfeacef1bbf)" style="fill: none; stroke: #cccccc; stroke-width: 0.8; stroke-linecap: round"/>
     </g>
     <g id="text_7">
      <!-- 65000 -->
      <g style="fill: #262626" transform="translate(20.878125 216.755408) scale(0.1 -0.1)">
       <defs>
        <path id="DejaVuSans-35" d="M 691 4666 
L 3169 4666 
L 3169 4134 
L 1269 4134 
L 1269 2991 
Q 1406 3038 1543 3061 
Q 1681 3084 1819 3084 
Q 2600 3084 3056 2656 
Q 3513 2228 3513 1497 
Q 3513 744 3044 326 
Q 2575 -91 1722 -91 
Q 1428 -91 1123 -41 
Q 819 9 494 109 
L 494 744 
Q 775 591 1075 516 
Q 1375 441 1709 441 
Q 2250 441 2565 725 
Q 2881 1009 2881 1497 
Q 2881 1984 2565 2268 
Q 2250 2553 1709 2553 
Q 1456 2553 1204 2497 
Q 953 2441 691 2322 
L 691 4666 
z
" transform="scale(0.015625)"/>
       </defs>
       <use xlink:href="#DejaVuSans-36"/>
       <use xlink:href="#DejaVuSans-35" transform="translate(63.623047 0)"/>
       <use xlink:href="#DejaVuSans-30" transform="translate(127.246094 0)"/>
       <use xlink:href="#DejaVuSans-30" transform="translate(190.869141 0)"/>
       <use xlink:href="#DejaVuSans-30" transform="translate(254.492188 0)"/>
      </g>
     </g>
    </g>
    <g id="ytick_3">
     <g id="line2d_7">
      <path d="M 59.690625 157.95437 
L 416.810625 157.95437 
" clip-path="url(#pfeacef1bbf)" style="fill: none; stroke: #cccccc; stroke-width: 0.8; stroke-linecap: round"/>
     </g>
     <g id="text_8">
      <!-- 70000 -->
      <g style="fill: #262626" transform="translate(20.878125 161.753589) scale(0.1 -0.1)">
       <defs>
        <path id="DejaVuSans-37" d="M 525 4666 
L 3525 4666 
L 3525 4397 
L 1831 0 
L 1172 0 
L 2766 4134 
L 525 4134 
L 525 4666 
z
" transform="scale(0.015625)"/>
       </defs>
       <use xlink:href="#DejaVuSans-37"/>
       <use xlink:href="#DejaVuSans-30" transform="translate(63.623047 0)"/>
       <use xlink:href="#DejaVuSans-30" transform="translate(127.246094 0)"/>
       <use xlink:href="#DejaVuSans-30" transform="translate(190.869141 0)"/>
       <use xlink:href="#DejaVuSans-30" transform="translate(254.492188 0)"/>
      </g>
     </g>
    </g>
    <g id="ytick_4">
     <g id="line2d_8">
      <path d="M 59.690625 102.952551 
L 416.810625 102.952551 
" clip-path="url(#pfeacef1bbf)" style="fill: none; stroke: #cccccc; stroke-width: 0.8; stroke-linecap: round"/>
     </g>
     <g id="text_9">
      <!-- 75000 -->
      <g style="fill: #262626" transform="translate(20.878125 106.75177) scale(0.1 -0.1)">
       <use xlink:href="#DejaVuSans-37"/>
       <use xlink:href="#DejaVuSans-35" transform="translate(63.623047 0)"/>
       <use xlink:href="#DejaVuSans-30" transform="translate(127.246094 0)"/>
       <use xlink:href="#DejaVuSans-30" transform="translate(190.869141 0)"/>
       <use xlink:href="#DejaVuSans-30" transform="translate(254.492188 0)"/>
      </g>
     </g>
    </g>
    <g id="ytick_5">
     <g id="line2d_9">
      <path d="M 59.690625 47.950733 
L 416.810625 47.950733 
" clip-path="url(#pfeacef1bbf)" style="fill: none; stroke: #cccccc; stroke-width: 0.8; stroke-linecap: round"/>
     </g>
     <g id="text_10">
      <!-- 80000 -->
      <g style="fill: #262626" transform="translate(20.878125 51.749951) scale(0.1 -0.1)">
       <use xlink:href="#DejaVuSans-38"/>
       <use xlink:href="#DejaVuSans-30" transform="translate(63.623047 0)"/>
       <use xlink:href="#DejaVuSans-30" transform="translate(127.246094 0)"/>
       <use xlink:href="#DejaVuSans-30" transform="translate(190.869141 0)"/>
       <use xlink:href="#DejaVuSans-30" transform="translate(254.492188 0)"/>
      </g>
     </g>
    </g>
    <g id="text_11">
     <!-- IOPS -->
     <g style="fill: #262626" transform="translate(14.798438 180.279725) rotate(-90) scale(0.1 -0.1)">
      <defs>
       <path id="DejaVuSans-49" d="M 628 4666 
L 1259 4666 
L 1259 0 
L 628 0 
L 628 4666 
z
" transform="scale(0.015625)"/>
       <path id="DejaVuSans-4f" d="M 2522 4238 
Q 1834 4238 1429 3725 
Q 1025 3213 1025 2328 
Q 1025 1447 1429 934 
Q 1834 422 2522 422 
Q 3209 422 3611 934 
Q 4013 1447 4013 2328 
Q 4013 3213 3611 3725 
Q 3209 4238 2522 4238 
z
M 2522 4750 
Q 3503 4750 4090 4092 
Q 4678 3434 4678 2328 
Q 4678 1225 4090 567 
Q 3503 -91 2522 -91 
Q 1538 -91 948 565 
Q 359 1222 359 2328 
Q 359 3434 948 4092 
Q 1538 4750 2522 4750 
z
" transform="scale(0.015625)"/>
       <path id="DejaVuSans-50" d="M 1259 4147 
L 1259 2394 
L 2053 2394 
Q 2494 2394 2734 2622 
Q 2975 2850 2975 3272 
Q 2975 3691 2734 3919 
Q 2494 4147 2053 4147 
L 1259 4147 
z
M 628 4666 
L 2053 4666 
Q 2838 4666 3239 4311 
Q 3641 3956 3641 3272 
Q 3641 2581 3239 2228 
Q 2838 1875 2053 1875 
L 1259 1875 
L 1259 0 
L 628 0 
L 628 4666 
z
" transform="scale(0.015625)"/>
       <path id="DejaVuSans-53" d="M 3425 4513 
L 3425 3897 
Q 3066 4069 2747 4153 
Q 2428 4238 2131 4238 
Q 1616 4238 1336 4038 
Q 1056 3838 1056 3469 
Q 1056 3159 1242 3001 
Q 1428 2844 1947 2747 
L 2328 2669 
Q 3034 2534 3370 2195 
Q 3706 1856 3706 1288 
Q 3706 609 3251 259 
Q 2797 -91 1919 -91 
Q 1588 -91 1214 -16 
Q 841 59 441 206 
L 441 856 
Q 825 641 1194 531 
Q 1563 422 1919 422 
Q 2459 422 2753 634 
Q 3047 847 3047 1241 
Q 3047 1584 2836 1778 
Q 2625 1972 2144 2069 
L 1759 2144 
Q 1053 2284 737 2584 
Q 422 2884 422 3419 
Q 422 4038 858 4394 
Q 1294 4750 2059 4750 
Q 2388 4750 2728 4690 
Q 3069 4631 3425 4513 
z
" transform="scale(0.015625)"/>
      </defs>
      <use xlink:href="#DejaVuSans-49"/>
      <use xlink:href="#DejaVuSans-4f" transform="translate(29.492188 0)"/>
      <use xlink:href="#DejaVuSans-50" transform="translate(108.203125 0)"/>
      <use xlink:href="#DejaVuSans-53" transform="translate(168.505859 0)"/>
     </g>
    </g>
   </g>
   <g id="FillBetweenPolyCollection_1"/>
   <g id="FillBetweenPolyCollection_2"/>
   <g id="FillBetweenPolyCollection_3"/>
   <g id="FillBetweenPolyCollection_4"/>
   <g id="FillBetweenPolyCollection_5"/>
   <g id="FillBetweenPolyCollection_6"/>
   <g id="FillBetweenPolyCollection_7"/>
   <g id="line2d_10">
    <path d="M 75.923352 270.7301 
L 122.302573 178.305043 
L 215.061015 216.047291 
L 400.577898 289.639725 
" clip-path="url(#pfeacef1bbf)" style="fill: none; stroke: #4c02a1; stroke-width: 1.5; stroke-linecap: round"/>
   </g>
   <g id="line2d_11">
    <path d="M 75.923352 216.586309 
L 122.302573 75.946658 
L 215.061015 131.047481 
L 400.577898 152.245182 
" clip-path="url(#pfeacef1bbf)" style="fill: none; stroke: #7e03a8; stroke-width: 1.5; stroke-linecap: round"/>
   </g>
   <g id="line2d_12">
    <path d="M 75.923352 211.042126 
L 122.302573 95.604308 
L 215.061015 209.293068 
L 400.577898 262.710834 
" clip-path="url(#pfeacef1bbf)" style="fill: none; stroke: #aa2395; stroke-width: 1.5; stroke-linecap: round"/>
   </g>
   <g id="line2d_13">
    <path d="M 75.923352 277.825334 
L 122.302573 164.752595 
L 215.061015 218.698379 
L 400.577898 238.664039 
" clip-path="url(#pfeacef1bbf)" style="fill: none; stroke: #cc4778; stroke-width: 1.5; stroke-linecap: round"/>
   </g>
   <g id="line2d_14">
    <path d="M 75.923352 126.306324 
L 122.302573 47.719725 
L 215.061015 217.763348 
L 400.577898 171.968834 
" clip-path="url(#pfeacef1bbf)" style="fill: none; stroke: #e66c5c; stroke-width: 1.5; stroke-linecap: round"/>
   </g>
   <g id="line2d_15">
    <path d="M 75.923352 143.653897 
L 122.302573 134.95261 
L 215.061015 199.832755 
L 400.577898 185.191271 
" clip-path="url(#pfeacef1bbf)" style="fill: none; stroke: #f89540; stroke-width: 1.5; stroke-linecap: round"/>
   </g>
   <g id="line2d_16">
    <path d="M 75.923352 254.174552 
L 122.302573 121.35616 
L 215.061015 226.926651 
L 400.577898 126.526331 
" clip-path="url(#pfeacef1bbf)" style="fill: none; stroke: #fdc527; stroke-width: 1.5; stroke-linecap: round"/>
   </g>
   <g id="line2d_17"/>
   <g id="line2d_18"/>
   <g id="line2d_19"/>
   <g id="line2d_20"/>
   <g id="line2d_21"/>
   <g id="line2d_22"/>
   <g id="line2d_23"/>
   <g id="text_12">
    <path d="M 118.576968 190.031982 
L 119.299478 188.592156 
L 114.327819 186.09736 
L 113.855757 187.821947 
L 113.052751 187.418996 
L 113.520607 185.702787 
L 113.962803 184.821575 
L 119.737469 187.719323 
L 120.459979 186.279497 
L 121.201538 186.651614 
L 119.318528 190.404099 
L 118.576968 190.031982 
z
" clip-path="url(#pfeacef1bbf)" style="fill: #4c02a1; stroke: #ffffff; stroke-width: 5"/>
    <path d="M 118.576968 190.031982 
L 119.299478 188.592156 
L 114.327819 186.09736 
L 113.855757 187.821947 
L 113.052751 187.418996 
L 113.520607 185.702787 
L 113.962803 184.821575 
L 119.737469 187.719323 
L 120.459979 186.279497 
L 121.201538 186.651614 
L 119.318528 190.404099 
L 118.576968 190.031982 
z
" clip-path="url(#pfeacef1bbf)" style="fill: #4c02a1"/>
   </g>
   <g id="text_13">
    <path d="M 160.288408 94.240331 
L 156.159298 96.314647 
L 158.300616 97.586643 
L 160.288408 94.240331 
z
M 160.504305 93.369016 
L 161.570933 94.00262 
L 159.144246 98.08778 
L 160.038925 98.619242 
L 159.61998 99.324506 
L 158.725302 98.793045 
L 157.847513 100.270742 
L 157.003882 99.769604 
L 157.881671 98.291907 
L 155.052553 96.611341 
L 155.538529 95.793234 
L 160.504305 93.369016 
z
" clip-path="url(#pfeacef1bbf)" style="fill: #7e03a8; stroke: #ffffff; stroke-width: 5"/>
    <path d="M 160.288408 94.240331 
L 156.159298 96.314647 
L 158.300616 97.586643 
L 160.288408 94.240331 
z
M 160.504305 93.369016 
L 161.570933 94.00262 
L 159.144246 98.08778 
L 160.038925 98.619242 
L 159.61998 99.324506 
L 158.725302 98.793045 
L 157.847513 100.270742 
L 157.003882 99.769604 
L 157.881671 98.291907 
L 155.052553 96.611341 
L 155.538529 95.793234 
L 160.504305 93.369016 
z
" clip-path="url(#pfeacef1bbf)" style="fill: #7e03a8"/>
   </g>
   <g id="text_14">
    <path d="M 198.617447 188.026893 
Q 198.172948 187.482095 197.626332 187.407798 
Q 197.080703 187.334712 196.571015 187.750567 
Q 196.060115 188.167408 196.022204 188.716603 
Q 195.985281 189.267008 196.429781 189.811806 
Q 196.87428 190.356604 197.423095 190.431123 
Q 197.974108 190.505866 198.481375 190.091987 
Q 198.991064 189.676133 199.027987 189.125728 
Q 199.065898 188.576534 198.617447 188.026893 
z
M 198.318618 186.998241 
Q 198.038646 186.407934 198.150985 185.858512 
Q 198.265522 185.309313 198.749787 184.914202 
Q 199.426547 184.362035 200.213148 184.522851 
Q 201.000736 184.684877 201.685265 185.523866 
Q 202.373746 186.367698 202.372428 187.169358 
Q 202.37111 187.971019 201.69435 188.523186 
Q 201.210085 188.918297 200.648085 188.919066 
Q 200.088284 188.920058 199.569143 188.530939 
Q 199.891239 189.187706 199.766829 189.801425 
Q 199.644618 190.415367 199.104663 190.855915 
Q 198.282623 191.526616 197.434213 191.383965 
Q 196.587014 191.240326 195.82445 190.305694 
Q 195.062874 189.372274 195.091206 188.512274 
Q 195.121737 187.652497 195.943776 186.981796 
Q 196.483732 186.541248 197.110697 186.545954 
Q 197.739861 186.550883 198.318618 186.998241 
z
M 199.297471 185.733764 
Q 198.859212 186.09134 198.836685 186.565468 
Q 198.815146 187.040807 199.219147 187.535968 
Q 199.621172 188.028707 200.093137 188.10543 
Q 200.56609 188.183364 201.00435 187.825789 
Q 201.44382 187.467226 201.462396 186.988255 
Q 201.48196 186.510494 201.079934 186.017755 
Q 200.675934 185.522594 200.205944 185.448292 
Q 199.736942 185.375201 199.297471 185.733764 
z
" clip-path="url(#pfeacef1bbf)" style="fill: #aa2395; stroke: #ffffff; stroke-width: 5"/>
    <path d="M 198.617447 188.026893 
Q 198.172948 187.482095 197.626332 187.407798 
Q 197.080703 187.334712 196.571015 187.750567 
Q 196.060115 188.167408 196.022204 188.716603 
Q 195.985281 189.267008 196.429781 189.811806 
Q 196.87428 190.356604 197.423095 190.431123 
Q 197.974108 190.505866 198.481375 190.091987 
Q 198.991064 189.676133 199.027987 189.125728 
Q 199.065898 188.576534 198.617447 188.026893 
z
M 198.318618 186.998241 
Q 198.038646 186.407934 198.150985 185.858512 
Q 198.265522 185.309313 198.749787 184.914202 
Q 199.426547 184.362035 200.213148 184.522851 
Q 201.000736 184.684877 201.685265 185.523866 
Q 202.373746 186.367698 202.372428 187.169358 
Q 202.37111 187.971019 201.69435 188.523186 
Q 201.210085 188.918297 200.648085 188.919066 
Q 200.088284 188.920058 199.569143 188.530939 
Q 199.891239 189.187706 199.766829 189.801425 
Q 199.644618 190.415367 199.104663 190.855915 
Q 198.282623 191.526616 197.434213 191.383965 
Q 196.587014 191.240326 195.82445 190.305694 
Q 195.062874 189.372274 195.091206 188.512274 
Q 195.121737 187.652497 195.943776 186.981796 
Q 196.483732 186.541248 197.110697 186.545954 
Q 197.739861 186.550883 198.318618 186.998241 
z
M 199.297471 185.733764 
Q 198.859212 186.09134 198.836685 186.565468 
Q 198.815146 187.040807 199.219147 187.535968 
Q 199.621172 188.028707 200.093137 188.10543 
Q 200.56609 188.183364 201.00435 187.825789 
Q 201.44382 187.467226 201.462396 186.988255 
Q 201.48196 186.510494 201.079934 186.017755 
Q 200.675934 185.522594 200.205944 185.448292 
Q 199.736942 185.375201 199.297471 185.733764 
z
" clip-path="url(#pfeacef1bbf)" style="fill: #aa2395"/>
   </g>
   <g id="text_15">
    <path d="M 232.951673 222.564634 
L 234.553361 222.737011 
L 235.14857 217.206448 
L 233.367892 217.3684 
L 233.464028 216.475121 
L 235.235385 216.312165 
L 236.215662 216.417664 
L 235.524317 222.841507 
L 237.126005 223.013884 
L 237.037225 223.838808 
L 232.862893 223.389558 
L 232.951673 222.564634 
z
M 241.669802 220.276559 
Q 241.009552 220.205502 240.57407 220.615947 
Q 240.140309 221.025007 240.055709 221.811093 
Q 239.97161 222.592518 240.307898 223.089166 
Q 240.645906 223.584427 241.306156 223.655485 
Q 241.966406 223.726542 242.400502 223.314375 
Q 242.834765 222.900655 242.918863 222.11923 
Q 243.003463 221.333145 242.666674 220.841157 
Q 242.330052 220.347616 241.669802 220.276559 
z
M 243.94725 217.411619 
L 243.851114 218.304898 
Q 243.5001 218.09111 243.13401 217.958991 
Q 242.768088 217.825319 242.398348 217.785527 
Q 241.427392 217.681031 240.844172 218.281446 
Q 240.262505 218.882029 240.046873 220.199331 
Q 240.378199 219.807535 240.834323 219.628753 
Q 241.292001 219.450138 241.810879 219.505981 
Q 242.90301 219.623518 243.465459 220.35509 
Q 244.028074 221.085108 243.905354 222.225398 
Q 243.785142 223.342386 243.052163 223.947114 
Q 242.319351 224.550288 241.222559 224.432249 
Q 239.964201 224.296822 239.40295 223.262076 
Q 238.841867 222.225775 239.038821 220.395718 
Q 239.223737 218.677515 240.149353 217.743069 
Q 241.074969 216.808624 242.448289 216.956423 
Q 242.818029 216.996215 243.186125 217.109692 
Q 243.554221 217.223168 243.94725 217.411619 
z
" clip-path="url(#pfeacef1bbf)" style="fill: #cc4778; stroke: #ffffff; stroke-width: 5"/>
    <path d="M 232.951673 222.564634 
L 234.553361 222.737011 
L 235.14857 217.206448 
L 233.367892 217.3684 
L 233.464028 216.475121 
L 235.235385 216.312165 
L 236.215662 216.417664 
L 235.524317 222.841507 
L 237.126005 223.013884 
L 237.037225 223.838808 
L 232.862893 223.389558 
L 232.951673 222.564634 
z
M 241.669802 220.276559 
Q 241.009552 220.205502 240.57407 220.615947 
Q 240.140309 221.025007 240.055709 221.811093 
Q 239.97161 222.592518 240.307898 223.089166 
Q 240.645906 223.584427 241.306156 223.655485 
Q 241.966406 223.726542 242.400502 223.314375 
Q 242.834765 222.900655 242.918863 222.11923 
Q 243.003463 221.333145 242.666674 220.841157 
Q 242.330052 220.347616 241.669802 220.276559 
z
M 243.94725 217.411619 
L 243.851114 218.304898 
Q 243.5001 218.09111 243.13401 217.958991 
Q 242.768088 217.825319 242.398348 217.785527 
Q 241.427392 217.681031 240.844172 218.281446 
Q 240.262505 218.882029 240.046873 220.199331 
Q 240.378199 219.807535 240.834323 219.628753 
Q 241.292001 219.450138 241.810879 219.505981 
Q 242.90301 219.623518 243.465459 220.35509 
Q 244.028074 221.085108 243.905354 222.225398 
Q 243.785142 223.342386 243.052163 223.947114 
Q 242.319351 224.550288 241.222559 224.432249 
Q 239.964201 224.296822 239.40295 223.262076 
Q 238.841867 222.225775 239.038821 220.395718 
Q 239.223737 218.677515 240.149353 217.743069 
Q 241.074969 216.808624 242.448289 216.956423 
Q 242.818029 216.996215 243.186125 217.109692 
Q 243.554221 217.223168 243.94725 217.411619 
z
" clip-path="url(#pfeacef1bbf)" style="fill: #cc4778"/>
   </g>
   <g id="text_16">
    <path d="M 275.908255 201.536264 
Q 276.631763 201.513779 277.132032 201.884375 
Q 277.633443 202.253079 277.80195 202.935714 
Q 278.060328 203.98242 277.48169 204.735219 
Q 276.902677 205.486501 275.575332 205.814153 
Q 275.13086 205.92387 274.637365 205.952343 
Q 274.14387 205.980817 273.598317 205.928795 
L 273.370271 205.004963 
Q 273.825008 205.13895 274.32751 205.140442 
Q 274.831528 205.141559 275.348813 205.013868 
Q 276.248374 204.791813 276.632527 204.320386 
Q 277.016679 203.848958 276.849296 203.170875 
Q 276.694643 202.544368 276.169366 202.300651 
Q 275.643713 202.055417 274.862476 202.248264 
L 274.037246 202.45197 
L 273.842901 201.664665 
L 274.706055 201.451597 
Q 275.411444 201.277473 275.716485 200.902825 
Q 276.021526 200.528178 275.890465 199.99724 
Q 275.756034 199.452649 275.297311 199.256879 
Q 274.839731 199.059218 274.119172 199.237086 
Q 273.724761 199.334446 273.295566 199.532128 
Q 272.865997 199.728293 272.370143 200.040602 
L 272.159697 199.188068 
Q 272.668358 198.901565 273.125963 198.708136 
Q 273.583567 198.514708 274.005283 198.410608 
Q 275.095982 198.141371 275.852522 198.480894 
Q 276.610205 198.818526 276.818405 199.661959 
Q 276.963696 200.250542 276.72691 200.738702 
Q 276.490125 201.226862 275.908255 201.536264 
z
M 280.751728 203.535322 
L 284.093604 202.710386 
L 284.292443 203.515894 
L 279.799189 204.625046 
L 279.600351 203.819537 
Q 280.005642 203.120795 280.711749 201.939008 
Q 281.418998 200.755331 281.592044 200.419704 
Q 281.924368 199.790474 282.018032 199.387535 
Q 282.113212 198.984221 282.027835 198.638353 
Q 281.888536 198.074042 281.404984 197.816806 
Q 280.921057 197.558053 280.285449 197.714952 
Q 279.83491 197.826166 279.372881 198.105986 
Q 278.912368 198.385431 278.422143 198.844416 
L 278.183237 197.876592 
Q 278.703908 197.501827 279.176816 197.259557 
Q 279.651241 197.016913 280.068407 196.913936 
Q 281.168207 196.642453 281.957948 197.031719 
Q 282.747315 197.419468 282.974238 198.338749 
Q 283.082083 198.775636 283.014861 199.207455 
Q 282.948782 199.637382 282.647508 200.275041 
Q 282.563261 200.442293 282.089793 201.256038 
Q 281.617843 202.069409 280.751728 203.535322 
z
" clip-path="url(#pfeacef1bbf)" style="fill: #e66c5c; stroke: #ffffff; stroke-width: 5"/>
    <path d="M 275.908255 201.536264 
Q 276.631763 201.513779 277.132032 201.884375 
Q 277.633443 202.253079 277.80195 202.935714 
Q 278.060328 203.98242 277.48169 204.735219 
Q 276.902677 205.486501 275.575332 205.814153 
Q 275.13086 205.92387 274.637365 205.952343 
Q 274.14387 205.980817 273.598317 205.928795 
L 273.370271 205.004963 
Q 273.825008 205.13895 274.32751 205.140442 
Q 274.831528 205.141559 275.348813 205.013868 
Q 276.248374 204.791813 276.632527 204.320386 
Q 277.016679 203.848958 276.849296 203.170875 
Q 276.694643 202.544368 276.169366 202.300651 
Q 275.643713 202.055417 274.862476 202.248264 
L 274.037246 202.45197 
L 273.842901 201.664665 
L 274.706055 201.451597 
Q 275.411444 201.277473 275.716485 200.902825 
Q 276.021526 200.528178 275.890465 199.99724 
Q 275.756034 199.452649 275.297311 199.256879 
Q 274.839731 199.059218 274.119172 199.237086 
Q 273.724761 199.334446 273.295566 199.532128 
Q 272.865997 199.728293 272.370143 200.040602 
L 272.159697 199.188068 
Q 272.668358 198.901565 273.125963 198.708136 
Q 273.583567 198.514708 274.005283 198.410608 
Q 275.095982 198.141371 275.852522 198.480894 
Q 276.610205 198.818526 276.818405 199.661959 
Q 276.963696 200.250542 276.72691 200.738702 
Q 276.490125 201.226862 275.908255 201.536264 
z
M 280.751728 203.535322 
L 284.093604 202.710386 
L 284.292443 203.515894 
L 279.799189 204.625046 
L 279.600351 203.819537 
Q 280.005642 203.120795 280.711749 201.939008 
Q 281.418998 200.755331 281.592044 200.419704 
Q 281.924368 199.790474 282.018032 199.387535 
Q 282.113212 198.984221 282.027835 198.638353 
Q 281.888536 198.074042 281.404984 197.816806 
Q 280.921057 197.558053 280.285449 197.714952 
Q 279.83491 197.826166 279.372881 198.105986 
Q 278.912368 198.385431 278.422143 198.844416 
L 278.183237 197.876592 
Q 278.703908 197.501827 279.176816 197.259557 
Q 279.651241 197.016913 280.068407 196.913936 
Q 281.168207 196.642453 281.957948 197.031719 
Q 282.747315 197.419468 282.974238 198.338749 
Q 283.082083 198.775636 283.014861 199.207455 
Q 282.948782 199.637382 282.647508 200.275041 
Q 282.563261 200.442293 282.089793 201.256038 
Q 281.617843 202.069409 280.751728 203.535322 
z
" clip-path="url(#pfeacef1bbf)" style="fill: #e66c5c"/>
   </g>
   <g id="text_17">
    <path d="M 315.450616 190.627642 
Q 314.788612 190.679889 314.436529 191.163778 
Q 314.085882 191.645986 314.148086 192.43416 
Q 314.209922 193.217661 314.632241 193.643567 
Q 315.055994 194.067792 315.717998 194.015545 
Q 316.380002 193.963298 316.730404 193.477974 
Q 317.080683 192.991093 317.018847 192.207592 
Q 316.956642 191.419418 316.534692 190.998186 
Q 316.11262 190.575395 315.450616 190.627642 
z
M 317.159072 187.391004 
L 317.229759 188.286656 
Q 316.845269 188.141457 316.461063 188.079305 
Q 316.076734 188.015596 315.706011 188.044854 
Q 314.732476 188.121688 314.270328 188.819588 
Q 313.809737 189.517364 313.84139 190.851823 
Q 314.094561 190.40552 314.509764 190.145485 
Q 314.926525 189.885326 315.446782 189.844266 
Q 316.541814 189.757843 317.229831 190.372805 
Q 317.917725 190.986209 318.007959 192.129529 
Q 318.096349 193.249484 317.487821 193.979312 
Q 316.879171 194.707581 315.779465 194.794373 
Q 314.517764 194.89395 313.774867 193.980819 
Q 313.031848 193.06613 312.887032 191.231211 
Q 312.751066 189.508443 313.487945 188.418965 
Q 314.224824 187.329486 315.601792 187.220812 
Q 315.972514 187.191554 316.355245 187.235014 
Q 316.737976 187.278473 317.159072 187.391004 
z
M 322.081505 187.703121 
L 319.904831 191.779201 
L 322.387735 191.583244 
L 322.081505 187.703121 
z
M 321.75532 186.866818 
L 322.9921 186.769208 
L 323.365943 191.506041 
L 324.403342 191.424166 
L 324.467883 192.241936 
L 323.430484 192.32381 
L 323.565711 194.037232 
L 322.587503 194.114435 
L 322.452275 192.401013 
L 319.171851 192.659913 
L 319.096984 191.7113 
L 321.75532 186.866818 
z
" clip-path="url(#pfeacef1bbf)" style="fill: #f89540; stroke: #ffffff; stroke-width: 5"/>
    <path d="M 315.450616 190.627642 
Q 314.788612 190.679889 314.436529 191.163778 
Q 314.085882 191.645986 314.148086 192.43416 
Q 314.209922 193.217661 314.632241 193.643567 
Q 315.055994 194.067792 315.717998 194.015545 
Q 316.380002 193.963298 316.730404 193.477974 
Q 317.080683 192.991093 317.018847 192.207592 
Q 316.956642 191.419418 316.534692 190.998186 
Q 316.11262 190.575395 315.450616 190.627642 
z
M 317.159072 187.391004 
L 317.229759 188.286656 
Q 316.845269 188.141457 316.461063 188.079305 
Q 316.076734 188.015596 315.706011 188.044854 
Q 314.732476 188.121688 314.270328 188.819588 
Q 313.809737 189.517364 313.84139 190.851823 
Q 314.094561 190.40552 314.509764 190.145485 
Q 314.926525 189.885326 315.446782 189.844266 
Q 316.541814 189.757843 317.229831 190.372805 
Q 317.917725 190.986209 318.007959 192.129529 
Q 318.096349 193.249484 317.487821 193.979312 
Q 316.879171 194.707581 315.779465 194.794373 
Q 314.517764 194.89395 313.774867 193.980819 
Q 313.031848 193.06613 312.887032 191.231211 
Q 312.751066 189.508443 313.487945 188.418965 
Q 314.224824 187.329486 315.601792 187.220812 
Q 315.972514 187.191554 316.355245 187.235014 
Q 316.737976 187.278473 317.159072 187.391004 
z
M 322.081505 187.703121 
L 319.904831 191.779201 
L 322.387735 191.583244 
L 322.081505 187.703121 
z
M 321.75532 186.866818 
L 322.9921 186.769208 
L 323.365943 191.506041 
L 324.403342 191.424166 
L 324.467883 192.241936 
L 323.430484 192.32381 
L 323.565711 194.037232 
L 322.587503 194.114435 
L 322.452275 192.401013 
L 319.171851 192.659913 
L 319.096984 191.7113 
L 321.75532 186.866818 
z
" clip-path="url(#pfeacef1bbf)" style="fill: #f89540"/>
   </g>
   <g id="text_18">
    <path d="M 352.394759 154.796834 
L 353.811525 154.030091 
L 351.163994 149.138059 
L 349.789509 150.281664 
L 349.361888 149.491519 
L 350.728128 148.352375 
L 351.595227 147.883107 
L 354.670379 153.565286 
L 356.087145 152.798543 
L 356.482043 153.528226 
L 352.789658 155.526517 
L 352.394759 154.796834 
z
M 358.586582 151.445867 
L 361.613871 149.807521 
L 362.008769 150.537204 
L 357.938488 152.740009 
L 357.543589 152.010327 
Q 357.760263 151.232153 358.146697 149.910837 
Q 358.533762 148.587404 358.616903 148.21906 
Q 358.780422 147.526505 358.769811 147.11296 
Q 358.760575 146.69867 358.591014 146.38536 
Q 358.314362 145.87417 357.781681 145.746718 
Q 357.248257 145.617891 356.672481 145.929497 
Q 356.264354 146.150372 355.887479 146.537328 
Q 355.511978 146.923541 355.15284 147.490999 
L 354.678367 146.614281 
Q 355.08814 146.120688 355.484981 145.767342 
Q 355.883197 145.413253 356.261093 145.208738 
Q 357.257364 144.669564 358.119588 144.847857 
Q 358.981069 145.024776 359.431744 145.857521 
Q 359.645927 146.253281 359.689388 146.688134 
Q 359.73348 147.120869 359.602134 147.813779 
Q 359.562625 147.996836 359.308866 148.903455 
Q 359.056481 149.809331 358.586582 151.445867 
z
M 364.03648 145.502777 
Q 363.418105 145.837437 363.242799 146.360483 
Q 363.068867 146.882785 363.38196 147.461309 
Q 363.695796 148.041207 364.228186 148.181253 
Q 364.76195 148.320556 365.380325 147.985896 
Q 365.9987 147.651236 366.174636 147.126073 
Q 366.351203 146.598791 366.039598 146.023015 
Q 365.726505 145.444491 365.192741 145.305189 
Q 364.660351 145.165143 364.03648 145.502777 
z
M 362.970072 145.603768 
Q 362.337791 145.768289 361.81911 145.555088 
Q 361.30106 145.339769 361.003584 144.790102 
Q 360.587862 144.021943 360.893082 143.279351 
Q 361.199676 142.536015 362.151973 142.020639 
Q 363.109767 141.502288 363.89701 141.653648 
Q 364.684253 141.805008 365.099975 142.573167 
Q 365.39745 143.122834 365.293003 143.675043 
Q 365.189187 144.225135 364.709767 144.662258 
Q 365.415218 144.468798 365.994799 144.705893 
Q 366.575012 144.94087 366.906697 145.553748 
Q 367.411661 146.486807 367.112715 147.293517 
Q 366.813025 148.098852 365.752169 148.672979 
Q 364.692686 149.246363 363.853192 149.057546 
Q 363.014328 148.86661 362.509364 147.933551 
Q 362.177679 147.320673 362.299666 146.705671 
Q 362.422283 146.088552 362.970072 145.603768 
z
M 361.911182 144.405516 
Q 362.180397 144.902964 362.641928 145.013846 
Q 363.104832 145.123985 363.666866 144.819816 
Q 364.226152 144.517135 364.389868 144.067875 
Q 364.554957 143.617871 364.285742 143.120422 
Q 364.015783 142.6216 363.548756 142.513692 
Q 363.083103 142.405041 362.523817 142.707722 
Q 361.961783 143.011891 361.800816 143.459664 
Q 361.641223 143.906693 361.911182 144.405516 
z
" clip-path="url(#pfeacef1bbf)" style="fill: #fdc527; stroke: #ffffff; stroke-width: 5"/>
    <path d="M 352.394759 154.796834 
L 353.811525 154.030091 
L 351.163994 149.138059 
L 349.789509 150.281664 
L 349.361888 149.491519 
L 350.728128 148.352375 
L 351.595227 147.883107 
L 354.670379 153.565286 
L 356.087145 152.798543 
L 356.482043 153.528226 
L 352.789658 155.526517 
L 352.394759 154.796834 
z
M 358.586582 151.445867 
L 361.613871 149.807521 
L 362.008769 150.537204 
L 357.938488 152.740009 
L 357.543589 152.010327 
Q 357.760263 151.232153 358.146697 149.910837 
Q 358.533762 148.587404 358.616903 148.21906 
Q 358.780422 147.526505 358.769811 147.11296 
Q 358.760575 146.69867 358.591014 146.38536 
Q 358.314362 145.87417 357.781681 145.746718 
Q 357.248257 145.617891 356.672481 145.929497 
Q 356.264354 146.150372 355.887479 146.537328 
Q 355.511978 146.923541 355.15284 147.490999 
L 354.678367 146.614281 
Q 355.08814 146.120688 355.484981 145.767342 
Q 355.883197 145.413253 356.261093 145.208738 
Q 357.257364 144.669564 358.119588 144.847857 
Q 358.981069 145.024776 359.431744 145.857521 
Q 359.645927 146.253281 359.689388 146.688134 
Q 359.73348 147.120869 359.602134 147.813779 
Q 359.562625 147.996836 359.308866 148.903455 
Q 359.056481 149.809331 358.586582 151.445867 
z
M 364.03648 145.502777 
Q 363.418105 145.837437 363.242799 146.360483 
Q 363.068867 146.882785 363.38196 147.461309 
Q 363.695796 148.041207 364.228186 148.181253 
Q 364.76195 148.320556 365.380325 147.985896 
Q 365.9987 147.651236 366.174636 147.126073 
Q 366.351203 146.598791 366.039598 146.023015 
Q 365.726505 145.444491 365.192741 145.305189 
Q 364.660351 145.165143 364.03648 145.502777 
z
M 362.970072 145.603768 
Q 362.337791 145.768289 361.81911 145.555088 
Q 361.30106 145.339769 361.003584 144.790102 
Q 360.587862 144.021943 360.893082 143.279351 
Q 361.199676 142.536015 362.151973 142.020639 
Q 363.109767 141.502288 363.89701 141.653648 
Q 364.684253 141.805008 365.099975 142.573167 
Q 365.39745 143.122834 365.293003 143.675043 
Q 365.189187 144.225135 364.709767 144.662258 
Q 365.415218 144.468798 365.994799 144.705893 
Q 366.575012 144.94087 366.906697 145.553748 
Q 367.411661 146.486807 367.112715 147.293517 
Q 366.813025 148.098852 365.752169 148.672979 
Q 364.692686 149.246363 363.853192 149.057546 
Q 363.014328 148.86661 362.509364 147.933551 
Q 362.177679 147.320673 362.299666 146.705671 
Q 362.422283 146.088552 362.970072 145.603768 
z
M 361.911182 144.405516 
Q 362.180397 144.902964 362.641928 145.013846 
Q 363.104832 145.123985 363.666866 144.819816 
Q 364.226152 144.517135 364.389868 144.067875 
Q 364.554957 143.617871 364.285742 143.120422 
Q 364.015783 142.6216 363.548756 142.513692 
Q 363.083103 142.405041 362.523817 142.707722 
Q 361.961783 143.011891 361.800816 143.459664 
Q 361.641223 143.906693 361.911182 144.405516 
z
" clip-path="url(#pfeacef1bbf)" style="fill: #fdc527"/>
   </g>
   <g id="patch_3">
    <path d="M 59.690625 301.735725 
L 59.690625 35.623725 
" style="fill: none; stroke: #cccccc; stroke-width: 0.8; stroke-linejoin: miter; stroke-linecap: square"/>
   </g>
   <g id="patch_4">
    <path d="M 416.810625 301.735725 
L 416.810625 35.623725 
" style="fill: none; stroke: #cccccc; stroke-width: 0.8; stroke-linejoin: miter; stroke-linecap: square"/>
   </g>
   <g id="patch_5">
    <path d="M 59.690625 301.735725 
L 416.810625 301.735725 
" style="fill: none; stroke: #cccccc; stroke-width: 0.8; stroke-linejoin: miter; stroke-linecap: square"/>
   </g>
   <g id="patch_6">
    <path d="M 59.690625 35.623725 
L 416.810625 35.623725 
" style="fill: none; stroke: #cccccc; stroke-width: 0.8; stroke-linejoin: miter; stroke-linecap: square"/>
   </g>
   <g id="text_19">
    <!-- Block Size = 4K, Read-Write Type = Sequential Write-only -->
    <g style="fill: #262626; opacity: 0.75" transform="translate(94.155313 30.882918) scale(0.1 -0.1)">
     <defs>
      <path id="DejaVuSans-42" d="M 1259 2228 
L 1259 519 
L 2272 519 
Q 2781 519 3026 730 
Q 3272 941 3272 1375 
Q 3272 1813 3026 2020 
Q 2781 2228 2272 2228 
L 1259 2228 
z
M 1259 4147 
L 1259 2741 
L 2194 2741 
Q 2656 2741 2882 2914 
Q 3109 3088 3109 3444 
Q 3109 3797 2882 3972 
Q 2656 4147 2194 4147 
L 1259 4147 
z
M 628 4666 
L 2241 4666 
Q 2963 4666 3353 4366 
Q 3744 4066 3744 3513 
Q 3744 3084 3544 2831 
Q 3344 2578 2956 2516 
Q 3422 2416 3680 2098 
Q 3938 1781 3938 1306 
Q 3938 681 3513 340 
Q 3088 0 2303 0 
L 628 0 
L 628 4666 
z
" transform="scale(0.015625)"/>
      <path id="DejaVuSans-6c" d="M 603 4863 
L 1178 4863 
L 1178 0 
L 603 0 
L 603 4863 
z
" transform="scale(0.015625)"/>
      <path id="DejaVuSans-63" d="M 3122 3366 
L 3122 2828 
Q 2878 2963 2633 3030 
Q 2388 3097 2138 3097 
Q 1578 3097 1268 2742 
Q 959 2388 959 1747 
Q 959 1106 1268 751 
Q 1578 397 2138 397 
Q 2388 397 2633 464 
Q 2878 531 3122 666 
L 3122 134 
Q 2881 22 2623 -34 
Q 2366 -91 2075 -91 
Q 1284 -91 818 406 
Q 353 903 353 1747 
Q 353 2603 823 3093 
Q 1294 3584 2113 3584 
Q 2378 3584 2631 3529 
Q 2884 3475 3122 3366 
z
" transform="scale(0.015625)"/>
      <path id="DejaVuSans-6b" d="M 581 4863 
L 1159 4863 
L 1159 1991 
L 2875 3500 
L 3609 3500 
L 1753 1863 
L 3688 0 
L 2938 0 
L 1159 1709 
L 1159 0 
L 581 0 
L 581 4863 
z
" transform="scale(0.015625)"/>
      <path id="DejaVuSans-69" d="M 603 3500 
L 1178 3500 
L 1178 0 
L 603 0 
L 603 3500 
z
M 603 4863 
L 1178 4863 
L 1178 4134 
L 603 4134 
L 603 4863 
z
" transform="scale(0.015625)"/>
      <path id="DejaVuSans-7a" d="M 353 3500 
L 3084 3500 
L 3084 2975 
L 922 459 
L 3084 459 
L 3084 0 
L 275 0 
L 275 525 
L 2438 3041 
L 353 3041 
L 353 3500 
z
" transform="scale(0.015625)"/>
      <path id="DejaVuSans-3d" d="M 678 2906 
L 4684 2906 
L 4684 2381 
L 678 2381 
L 678 2906 
z
M 678 1631 
L 4684 1631 
L 4684 1100 
L 678 1100 
L 678 1631 
z
" transform="scale(0.015625)"/>
      <path id="DejaVuSans-4b" d="M 628 4666 
L 1259 4666 
L 1259 2694 
L 3353 4666 
L 4166 4666 
L 1850 2491 
L 4331 0 
L 3500 0 
L 1259 2247 
L 1259 0 
L 628 0 
L 628 4666 
z
" transform="scale(0.015625)"/>
      <path id="DejaVuSans-2c" d="M 750 794 
L 1409 794 
L 1409 256 
L 897 -744 
L 494 -744 
L 750 256 
L 750 794 
z
" transform="scale(0.015625)"/>
      <path id="DejaVuSans-52" d="M 2841 2188 
Q 3044 2119 3236 1894 
Q 3428 1669 3622 1275 
L 4263 0 
L 3584 0 
L 2988 1197 
Q 2756 1666 2539 1819 
Q 2322 1972 1947 1972 
L 1259 1972 
L 1259 0 
L 628 0 
L 628 4666 
L 2053 4666 
Q 2853 4666 3247 4331 
Q 3641 3997 3641 3322 
Q 3641 2881 3436 2590 
Q 3231 2300 2841 2188 
z
M 1259 4147 
L 1259 2491 
L 2053 2491 
Q 2509 2491 2742 2702 
Q 2975 2913 2975 3322 
Q 2975 3731 2742 3939 
Q 2509 4147 2053 4147 
L 1259 4147 
z
" transform="scale(0.015625)"/>
      <path id="DejaVuSans-61" d="M 2194 1759 
Q 1497 1759 1228 1600 
Q 959 1441 959 1056 
Q 959 750 1161 570 
Q 1363 391 1709 391 
Q 2188 391 2477 730 
Q 2766 1069 2766 1631 
L 2766 1759 
L 2194 1759 
z
M 3341 1997 
L 3341 0 
L 2766 0 
L 2766 531 
Q 2569 213 2275 61 
Q 1981 -91 1556 -91 
Q 1019 -91 701 211 
Q 384 513 384 1019 
Q 384 1609 779 1909 
Q 1175 2209 1959 2209 
L 2766 2209 
L 2766 2266 
Q 2766 2663 2505 2880 
Q 2244 3097 1772 3097 
Q 1472 3097 1187 3025 
Q 903 2953 641 2809 
L 641 3341 
Q 956 3463 1253 3523 
Q 1550 3584 1831 3584 
Q 2591 3584 2966 3190 
Q 3341 2797 3341 1997 
z
" transform="scale(0.015625)"/>
      <path id="DejaVuSans-64" d="M 2906 2969 
L 2906 4863 
L 3481 4863 
L 3481 0 
L 2906 0 
L 2906 525 
Q 2725 213 2448 61 
Q 2172 -91 1784 -91 
Q 1150 -91 751 415 
Q 353 922 353 1747 
Q 353 2572 751 3078 
Q 1150 3584 1784 3584 
Q 2172 3584 2448 3432 
Q 2725 3281 2906 2969 
z
M 947 1747 
Q 947 1113 1208 752 
Q 1469 391 1925 391 
Q 2381 391 2643 752 
Q 2906 1113 2906 1747 
Q 2906 2381 2643 2742 
Q 2381 3103 1925 3103 
Q 1469 3103 1208 2742 
Q 947 2381 947 1747 
z
" transform="scale(0.015625)"/>
      <path id="DejaVuSans-2d" d="M 313 2009 
L 1997 2009 
L 1997 1497 
L 313 1497 
L 313 2009 
z
" transform="scale(0.015625)"/>
      <path id="DejaVuSans-57" d="M 213 4666 
L 850 4666 
L 1831 722 
L 2809 4666 
L 3519 4666 
L 4500 722 
L 5478 4666 
L 6119 4666 
L 4947 0 
L 4153 0 
L 3169 4050 
L 2175 0 
L 1381 0 
L 213 4666 
z
" transform="scale(0.015625)"/>
      <path id="DejaVuSans-74" d="M 1172 4494 
L 1172 3500 
L 2356 3500 
L 2356 3053 
L 1172 3053 
L 1172 1153 
Q 1172 725 1289 603 
Q 1406 481 1766 481 
L 2356 481 
L 2356 0 
L 1766 0 
Q 1100 0 847 248 
Q 594 497 594 1153 
L 594 3053 
L 172 3053 
L 172 3500 
L 594 3500 
L 594 4494 
L 1172 4494 
z
" transform="scale(0.015625)"/>
      <path id="DejaVuSans-54" d="M -19 4666 
L 3928 4666 
L 3928 4134 
L 2272 4134 
L 2272 0 
L 1638 0 
L 1638 4134 
L -19 4134 
L -19 4666 
z
" transform="scale(0.015625)"/>
      <path id="DejaVuSans-79" d="M 2059 -325 
Q 1816 -950 1584 -1140 
Q 1353 -1331 966 -1331 
L 506 -1331 
L 506 -850 
L 844 -850 
Q 1081 -850 1212 -737 
Q 1344 -625 1503 -206 
L 1606 56 
L 191 3500 
L 800 3500 
L 1894 763 
L 2988 3500 
L 3597 3500 
L 2059 -325 
z
" transform="scale(0.015625)"/>
      <path id="DejaVuSans-70" d="M 1159 525 
L 1159 -1331 
L 581 -1331 
L 581 3500 
L 1159 3500 
L 1159 2969 
Q 1341 3281 1617 3432 
Q 1894 3584 2278 3584 
Q 2916 3584 3314 3078 
Q 3713 2572 3713 1747 
Q 3713 922 3314 415 
Q 2916 -91 2278 -91 
Q 1894 -91 1617 61 
Q 1341 213 1159 525 
z
M 3116 1747 
Q 3116 2381 2855 2742 
Q 2594 3103 2138 3103 
Q 1681 3103 1420 2742 
Q 1159 2381 1159 1747 
Q 1159 1113 1420 752 
Q 1681 391 2138 391 
Q 2594 391 2855 752 
Q 3116 1113 3116 1747 
z
" transform="scale(0.015625)"/>
      <path id="DejaVuSans-71" d="M 947 1747 
Q 947 1113 1208 752 
Q 1469 391 1925 391 
Q 2381 391 2643 752 
Q 2906 1113 2906 1747 
Q 2906 2381 2643 2742 
Q 2381 3103 1925 3103 
Q 1469 3103 1208 2742 
Q 947 2381 947 1747 
z
M 2906 525 
Q 2725 213 2448 61 
Q 2172 -91 1784 -91 
Q 1150 -91 751 415 
Q 353 922 353 1747 
Q 353 2572 751 3078 
Q 1150 3584 1784 3584 
Q 2172 3584 2448 3432 
Q 2725 3281 2906 2969 
L 2906 3500 
L 3481 3500 
L 3481 -1331 
L 2906 -1331 
L 2906 525 
z
" transform="scale(0.015625)"/>
      <path id="DejaVuSans-6e" d="M 3513 2113 
L 3513 0 
L 2938 0 
L 2938 2094 
Q 2938 2591 2744 2837 
Q 2550 3084 2163 3084 
Q 1697 3084 1428 2787 
Q 1159 2491 1159 1978 
L 1159 0 
L 581 0 
L 581 3500 
L 1159 3500 
L 1159 2956 
Q 1366 3272 1645 3428 
Q 1925 3584 2291 3584 
Q 2894 3584 3203 3211 
Q 3513 2838 3513 2113 
z
" transform="scale(0.015625)"/>
     </defs>
     <use xlink:href="#DejaVuSans-42"/>
     <use xlink:href="#DejaVuSans-6c" transform="translate(68.603516 0)"/>
     <use xlink:href="#DejaVuSans-6f" transform="translate(96.386719 0)"/>
     <use xlink:href="#DejaVuSans-63" transform="translate(157.568359 0)"/>
     <use xlink:href="#DejaVuSans-6b" transform="translate(212.548828 0)"/>
     <use xlink:href="#DejaVuSans-20" transform="translate(270.458984 0)"/>
     <use xlink:href="#DejaVuSans-53" transform="translate(302.246094 0)"/>
     <use xlink:href="#DejaVuSans-69" transform="translate(365.722656 0)"/>
     <use xlink:href="#DejaVuSans-7a" transform="translate(393.505859 0)"/>
     <use xlink:href="#DejaVuSans-65" transform="translate(445.996094 0)"/>
     <use xlink:href="#DejaVuSans-20" transform="translate(507.519531 0)"/>
     <use xlink:href="#DejaVuSans-3d" transform="translate(539.306641 0)"/>
     <use xlink:href="#DejaVuSans-20" transform="translate(623.095703 0)"/>
     <use xlink:href="#DejaVuSans-34" transform="translate(654.882812 0)"/>
     <use xlink:href="#DejaVuSans-4b" transform="translate(718.505859 0)"/>
     <use xlink:href="#DejaVuSans-2c" transform="translate(784.082031 0)"/>
     <use xlink:href="#DejaVuSans-20" transform="translate(815.869141 0)"/>
     <use xlink:href="#DejaVuSans-52" transform="translate(847.65625 0)"/>
     <use xlink:href="#DejaVuSans-65" transform="translate(912.638672 0)"/>
     <use xlink:href="#DejaVuSans-61" transform="translate(974.162109 0)"/>
     <use xlink:href="#DejaVuSans-64" transform="translate(1035.441406 0)"/>
     <use xlink:href="#DejaVuSans-2d" transform="translate(1098.917969 0)"/>
     <use xlink:href="#DejaVuSans-57" transform="translate(1131.001953 0)"/>
     <use xlink:href="#DejaVuSans-72" transform="translate(1225.378906 0)"/>
     <use xlink:href="#DejaVuSans-69" transform="translate(1266.492188 0)"/>
     <use xlink:href="#DejaVuSans-74" transform="translate(1294.275391 0)"/>
     <use xlink:href="#DejaVuSans-65" transform="translate(1333.484375 0)"/>
     <use xlink:href="#DejaVuSans-20" transform="translate(1395.007812 0)"/>
     <use xlink:href="#DejaVuSans-54" transform="translate(1426.794922 0)"/>
     <use xlink:href="#DejaVuSans-79" transform="translate(1472.253906 0)"/>
     <use xlink:href="#DejaVuSans-70" transform="translate(1531.433594 0)"/>
     <use xlink:href="#DejaVuSans-65" transform="translate(1594.910156 0)"/>
     <use xlink:href="#DejaVuSans-20" transform="translate(1656.433594 0)"/>
     <use xlink:href="#DejaVuSans-3d" transform="translate(1688.220703 0)"/>
     <use xlink:href="#DejaVuSans-20" transform="translate(1772.009766 0)"/>
     <use xlink:href="#DejaVuSans-53" transform="translate(1803.796875 0)"/>
     <use xlink:href="#DejaVuSans-65" transform="translate(1867.273438 0)"/>
     <use xlink:href="#DejaVuSans-71" transform="translate(1928.796875 0)"/>
     <use xlink:href="#DejaVuSans-75" transform="translate(1992.273438 0)"/>
     <use xlink:href="#DejaVuSans-65" transform="translate(2055.652344 0)"/>
     <use xlink:href="#DejaVuSans-6e" transform="translate(2117.175781 0)"/>
     <use xlink:href="#DejaVuSans-74" transform="translate(2180.554688 0)"/>
     <use xlink:href="#DejaVuSans-69" transform="translate(2219.763672 0)"/>
     <use xlink:href="#DejaVuSans-61" transform="translate(2247.546875 0)"/>
     <use xlink:href="#DejaVuSans-6c" transform="translate(2308.826172 0)"/>
     <use xlink:href="#DejaVuSans-20" transform="translate(2336.609375 0)"/>
     <use xlink:href="#DejaVuSans-57" transform="translate(2368.396484 0)"/>
     <use xlink:href="#DejaVuSans-72" transform="translate(2462.773438 0)"/>
     <use xlink:href="#DejaVuSans-69" transform="translate(2503.886719 0)"/>
     <use xlink:href="#DejaVuSans-74" transform="translate(2531.669922 0)"/>
     <use xlink:href="#DejaVuSans-65" transform="translate(2570.878906 0)"/>
     <use xlink:href="#DejaVuSans-2d" transform="translate(2632.402344 0)"/>
     <use xlink:href="#DejaVuSans-6f" transform="translate(2670.361328 0)"/>
     <use xlink:href="#DejaVuSans-6e" transform="translate(2731.542969 0)"/>
     <use xlink:href="#DejaVuSans-6c" transform="translate(2794.921875 0)"/>
     <use xlink:href="#DejaVuSans-79" transform="translate(2822.705078 0)"/>
    </g>
   </g>
   <g id="text_20">
    <!-- IOPS vs Number of Jobs -->
    <g style="fill: #262626" transform="translate(158.541562 16.318125) scale(0.12 -0.12)">
     <defs>
      <path id="DejaVuSans-Bold-49" d="M 588 4666 
L 1791 4666 
L 1791 0 
L 588 0 
L 588 4666 
z
" transform="scale(0.015625)"/>
      <path id="DejaVuSans-Bold-4f" d="M 2719 3878 
Q 2169 3878 1866 3472 
Q 1563 3066 1563 2328 
Q 1563 1594 1866 1187 
Q 2169 781 2719 781 
Q 3272 781 3575 1187 
Q 3878 1594 3878 2328 
Q 3878 3066 3575 3472 
Q 3272 3878 2719 3878 
z
M 2719 4750 
Q 3844 4750 4481 4106 
Q 5119 3463 5119 2328 
Q 5119 1197 4481 553 
Q 3844 -91 2719 -91 
Q 1597 -91 958 553 
Q 319 1197 319 2328 
Q 319 3463 958 4106 
Q 1597 4750 2719 4750 
z
" transform="scale(0.015625)"/>
      <path id="DejaVuSans-Bold-50" d="M 588 4666 
L 2584 4666 
Q 3475 4666 3951 4270 
Q 4428 3875 4428 3144 
Q 4428 2409 3951 2014 
Q 3475 1619 2584 1619 
L 1791 1619 
L 1791 0 
L 588 0 
L 588 4666 
z
M 1791 3794 
L 1791 2491 
L 2456 2491 
Q 2806 2491 2997 2661 
Q 3188 2831 3188 3144 
Q 3188 3456 2997 3625 
Q 2806 3794 2456 3794 
L 1791 3794 
z
" transform="scale(0.015625)"/>
      <path id="DejaVuSans-Bold-53" d="M 3834 4519 
L 3834 3531 
Q 3450 3703 3084 3790 
Q 2719 3878 2394 3878 
Q 1963 3878 1756 3759 
Q 1550 3641 1550 3391 
Q 1550 3203 1689 3098 
Q 1828 2994 2194 2919 
L 2706 2816 
Q 3484 2659 3812 2340 
Q 4141 2022 4141 1434 
Q 4141 663 3683 286 
Q 3225 -91 2284 -91 
Q 1841 -91 1394 -6 
Q 947 78 500 244 
L 500 1259 
Q 947 1022 1364 901 
Q 1781 781 2169 781 
Q 2563 781 2772 912 
Q 2981 1044 2981 1288 
Q 2981 1506 2839 1625 
Q 2697 1744 2272 1838 
L 1806 1941 
Q 1106 2091 782 2419 
Q 459 2747 459 3303 
Q 459 4000 909 4375 
Q 1359 4750 2203 4750 
Q 2588 4750 2994 4692 
Q 3400 4634 3834 4519 
z
" transform="scale(0.015625)"/>
      <path id="DejaVuSans-Bold-20" transform="scale(0.015625)"/>
      <path id="DejaVuSans-Bold-76" d="M 97 3500 
L 1216 3500 
L 2088 1081 
L 2956 3500 
L 4078 3500 
L 2700 0 
L 1472 0 
L 97 3500 
z
" transform="scale(0.015625)"/>
      <path id="DejaVuSans-Bold-73" d="M 3272 3391 
L 3272 2541 
Q 2913 2691 2578 2766 
Q 2244 2841 1947 2841 
Q 1628 2841 1473 2761 
Q 1319 2681 1319 2516 
Q 1319 2381 1436 2309 
Q 1553 2238 1856 2203 
L 2053 2175 
Q 2913 2066 3209 1816 
Q 3506 1566 3506 1031 
Q 3506 472 3093 190 
Q 2681 -91 1863 -91 
Q 1516 -91 1145 -36 
Q 775 19 384 128 
L 384 978 
Q 719 816 1070 734 
Q 1422 653 1784 653 
Q 2113 653 2278 743 
Q 2444 834 2444 1013 
Q 2444 1163 2330 1236 
Q 2216 1309 1875 1350 
L 1678 1375 
Q 931 1469 631 1722 
Q 331 1975 331 2491 
Q 331 3047 712 3315 
Q 1094 3584 1881 3584 
Q 2191 3584 2531 3537 
Q 2872 3491 3272 3391 
z
" transform="scale(0.015625)"/>
      <path id="DejaVuSans-Bold-4e" d="M 588 4666 
L 1931 4666 
L 3628 1466 
L 3628 4666 
L 4769 4666 
L 4769 0 
L 3425 0 
L 1728 3200 
L 1728 0 
L 588 0 
L 588 4666 
z
" transform="scale(0.015625)"/>
      <path id="DejaVuSans-Bold-75" d="M 500 1363 
L 500 3500 
L 1625 3500 
L 1625 3150 
Q 1625 2866 1622 2436 
Q 1619 2006 1619 1863 
Q 1619 1441 1641 1255 
Q 1663 1069 1716 984 
Q 1784 875 1895 815 
Q 2006 756 2150 756 
Q 2500 756 2700 1025 
Q 2900 1294 2900 1772 
L 2900 3500 
L 4019 3500 
L 4019 0 
L 2900 0 
L 2900 506 
Q 2647 200 2364 54 
Q 2081 -91 1741 -91 
Q 1134 -91 817 281 
Q 500 653 500 1363 
z
" transform="scale(0.015625)"/>
      <path id="DejaVuSans-Bold-6d" d="M 3781 2919 
Q 3994 3244 4286 3414 
Q 4578 3584 4928 3584 
Q 5531 3584 5847 3212 
Q 6163 2841 6163 2131 
L 6163 0 
L 5038 0 
L 5038 1825 
Q 5041 1866 5042 1909 
Q 5044 1953 5044 2034 
Q 5044 2406 4934 2573 
Q 4825 2741 4581 2741 
Q 4263 2741 4089 2478 
Q 3916 2216 3909 1719 
L 3909 0 
L 2784 0 
L 2784 1825 
Q 2784 2406 2684 2573 
Q 2584 2741 2328 2741 
Q 2006 2741 1831 2477 
Q 1656 2213 1656 1722 
L 1656 0 
L 531 0 
L 531 3500 
L 1656 3500 
L 1656 2988 
Q 1863 3284 2130 3434 
Q 2397 3584 2719 3584 
Q 3081 3584 3359 3409 
Q 3638 3234 3781 2919 
z
" transform="scale(0.015625)"/>
      <path id="DejaVuSans-Bold-62" d="M 2400 722 
Q 2759 722 2948 984 
Q 3138 1247 3138 1747 
Q 3138 2247 2948 2509 
Q 2759 2772 2400 2772 
Q 2041 2772 1848 2508 
Q 1656 2244 1656 1747 
Q 1656 1250 1848 986 
Q 2041 722 2400 722 
z
M 1656 2988 
Q 1888 3294 2169 3439 
Q 2450 3584 2816 3584 
Q 3463 3584 3878 3070 
Q 4294 2556 4294 1747 
Q 4294 938 3878 423 
Q 3463 -91 2816 -91 
Q 2450 -91 2169 54 
Q 1888 200 1656 506 
L 1656 0 
L 538 0 
L 538 4863 
L 1656 4863 
L 1656 2988 
z
" transform="scale(0.015625)"/>
      <path id="DejaVuSans-Bold-65" d="M 4031 1759 
L 4031 1441 
L 1416 1441 
Q 1456 1047 1700 850 
Q 1944 653 2381 653 
Q 2734 653 3104 758 
Q 3475 863 3866 1075 
L 3866 213 
Q 3469 63 3072 -14 
Q 2675 -91 2278 -91 
Q 1328 -91 801 392 
Q 275 875 275 1747 
Q 275 2603 792 3093 
Q 1309 3584 2216 3584 
Q 3041 3584 3536 3087 
Q 4031 2591 4031 1759 
z
M 2881 2131 
Q 2881 2450 2695 2645 
Q 2509 2841 2209 2841 
Q 1884 2841 1681 2658 
Q 1478 2475 1428 2131 
L 2881 2131 
z
" transform="scale(0.015625)"/>
      <path id="DejaVuSans-Bold-72" d="M 3138 2547 
Q 2991 2616 2845 2648 
Q 2700 2681 2553 2681 
Q 2122 2681 1889 2404 
Q 1656 2128 1656 1613 
L 1656 0 
L 538 0 
L 538 3500 
L 1656 3500 
L 1656 2925 
Q 1872 3269 2151 3426 
Q 2431 3584 2822 3584 
Q 2878 3584 2943 3579 
Q 3009 3575 3134 3559 
L 3138 2547 
z
" transform="scale(0.015625)"/>
      <path id="DejaVuSans-Bold-6f" d="M 2203 2784 
Q 1831 2784 1636 2517 
Q 1441 2250 1441 1747 
Q 1441 1244 1636 976 
Q 1831 709 2203 709 
Q 2569 709 2762 976 
Q 2956 1244 2956 1747 
Q 2956 2250 2762 2517 
Q 2569 2784 2203 2784 
z
M 2203 3584 
Q 3106 3584 3614 3096 
Q 4122 2609 4122 1747 
Q 4122 884 3614 396 
Q 3106 -91 2203 -91 
Q 1297 -91 786 396 
Q 275 884 275 1747 
Q 275 2609 786 3096 
Q 1297 3584 2203 3584 
z
" transform="scale(0.015625)"/>
      <path id="DejaVuSans-Bold-66" d="M 2841 4863 
L 2841 4128 
L 2222 4128 
Q 1984 4128 1890 4042 
Q 1797 3956 1797 3744 
L 1797 3500 
L 2753 3500 
L 2753 2700 
L 1797 2700 
L 1797 0 
L 678 0 
L 678 2700 
L 122 2700 
L 122 3500 
L 678 3500 
L 678 3744 
Q 678 4316 997 4589 
Q 1316 4863 1984 4863 
L 2841 4863 
z
" transform="scale(0.015625)"/>
      <path id="DejaVuSans-Bold-4a" d="M 588 4666 
L 1791 4666 
L 1791 453 
Q 1791 -419 1317 -850 
Q 844 -1281 -116 -1281 
L -359 -1281 
L -359 -372 
L -172 -372 
Q 203 -372 395 -162 
Q 588 47 588 453 
L 588 4666 
z
" transform="scale(0.015625)"/>
     </defs>
     <use xlink:href="#DejaVuSans-Bold-49"/>
     <use xlink:href="#DejaVuSans-Bold-4f" transform="translate(37.207031 0)"/>
     <use xlink:href="#DejaVuSans-Bold-50" transform="translate(122.216797 0)"/>
     <use xlink:href="#DejaVuSans-Bold-53" transform="translate(195.507812 0)"/>
     <use xlink:href="#DejaVuSans-Bold-20" transform="translate(267.529297 0)"/>
     <use xlink:href="#DejaVuSans-Bold-76" transform="translate(302.34375 0)"/>
     <use xlink:href="#DejaVuSans-Bold-73" transform="translate(367.529297 0)"/>
     <use xlink:href="#DejaVuSans-Bold-20" transform="translate(427.050781 0)"/>
     <use xlink:href="#DejaVuSans-Bold-4e" transform="translate(461.865234 0)"/>
     <use xlink:href="#DejaVuSans-Bold-75" transform="translate(545.556641 0)"/>
     <use xlink:href="#DejaVuSans-Bold-6d" transform="translate(616.748047 0)"/>
     <use xlink:href="#DejaVuSans-Bold-62" transform="translate(720.947266 0)"/>
     <use xlink:href="#DejaVuSans-Bold-65" transform="translate(792.529297 0)"/>
     <use xlink:href="#DejaVuSans-Bold-72" transform="translate(860.351562 0)"/>
     <use xlink:href="#DejaVuSans-Bold-20" transform="translate(909.667969 0)"/>
     <use xlink:href="#DejaVuSans-Bold-6f" transform="translate(944.482422 0)"/>
     <use xlink:href="#DejaVuSans-Bold-66" transform="translate(1013.183594 0)"/>
     <use xlink:href="#DejaVuSans-Bold-20" transform="translate(1056.689453 0)"/>
     <use xlink:href="#DejaVuSans-Bold-4a" transform="translate(1091.503906 0)"/>
     <use xlink:href="#DejaVuSans-Bold-6f" transform="translate(1128.710938 0)"/>
     <use xlink:href="#DejaVuSans-Bold-62" transform="translate(1197.412109 0)"/>
     <use xlink:href="#DejaVuSans-Bold-73" transform="translate(1268.994141 0)"/>
    </g>
   </g>
   <g id="legend_1">
    <g id="text_21">
     <!-- IO Depth -->
     <g style="fill: #262626" transform="translate(451.317187 120.065663) scale(0.1 -0.1)">
      <defs>
       <path id="DejaVuSans-44" d="M 1259 4147 
L 1259 519 
L 2022 519 
Q 2988 519 3436 956 
Q 3884 1394 3884 2338 
Q 3884 3275 3436 3711 
Q 2988 4147 2022 4147 
L 1259 4147 
z
M 628 4666 
L 1925 4666 
Q 3281 4666 3915 4102 
Q 4550 3538 4550 2338 
Q 4550 1131 3912 565 
Q 3275 0 1925 0 
L 628 0 
L 628 4666 
z
" transform="scale(0.015625)"/>
       <path id="DejaVuSans-68" d="M 3513 2113 
L 3513 0 
L 2938 0 
L 2938 2094 
Q 2938 2591 2744 2837 
Q 2550 3084 2163 3084 
Q 1697 3084 1428 2787 
Q 1159 2491 1159 1978 
L 1159 0 
L 581 0 
L 581 4863 
L 1159 4863 
L 1159 2956 
Q 1366 3272 1645 3428 
Q 1925 3584 2291 3584 
Q 2894 3584 3203 3211 
Q 3513 2838 3513 2113 
z
" transform="scale(0.015625)"/>
      </defs>
      <use xlink:href="#DejaVuSans-49"/>
      <use xlink:href="#DejaVuSans-4f" transform="translate(29.492188 0)"/>
      <use xlink:href="#DejaVuSans-20" transform="translate(108.203125 0)"/>
      <use xlink:href="#DejaVuSans-44" transform="translate(139.990234 0)"/>
      <use xlink:href="#DejaVuSans-65" transform="translate(216.992188 0)"/>
      <use xlink:href="#DejaVuSans-70" transform="translate(278.515625 0)"/>
      <use xlink:href="#DejaVuSans-74" transform="translate(341.992188 0)"/>
      <use xlink:href="#DejaVuSans-68" transform="translate(381.201172 0)"/>
     </g>
    </g>
    <g id="line2d_24">
     <path d="M 450.003125 131.243787 
L 460.003125 131.243787 
L 470.003125 131.243787 
" style="fill: none; stroke: #4c02a1; stroke-width: 1.5; stroke-linecap: round"/>
    </g>
    <g id="text_22">
     <!-- 1 -->
     <g style="fill: #262626" transform="translate(478.003125 134.743787) scale(0.1 -0.1)">
      <use xlink:href="#DejaVuSans-31"/>
     </g>
    </g>
    <g id="line2d_25">
     <path d="M 450.003125 145.921913 
L 460.003125 145.921913 
L 470.003125 145.921913 
" style="fill: none; stroke: #7e03a8; stroke-width: 1.5; stroke-linecap: round"/>
    </g>
    <g id="text_23">
     <!-- 4 -->
     <g style="fill: #262626" transform="translate(478.003125 149.421913) scale(0.1 -0.1)">
      <use xlink:href="#DejaVuSans-34"/>
     </g>
    </g>
    <g id="line2d_26">
     <path d="M 450.003125 160.600037 
L 460.003125 160.600037 
L 470.003125 160.600037 
" style="fill: none; stroke: #aa2395; stroke-width: 1.5; stroke-linecap: round"/>
    </g>
    <g id="text_24">
     <!-- 8 -->
     <g style="fill: #262626" transform="translate(478.003125 164.100037) scale(0.1 -0.1)">
      <use xlink:href="#DejaVuSans-38"/>
     </g>
    </g>
    <g id="line2d_27">
     <path d="M 450.003125 175.278163 
L 460.003125 175.278163 
L 470.003125 175.278163 
" style="fill: none; stroke: #cc4778; stroke-width: 1.5; stroke-linecap: round"/>
    </g>
    <g id="text_25">
     <!-- 16 -->
     <g style="fill: #262626" transform="translate(478.003125 178.778163) scale(0.1 -0.1)">
      <use xlink:href="#DejaVuSans-31"/>
      <use xlink:href="#DejaVuSans-36" transform="translate(63.623047 0)"/>
     </g>
    </g>
    <g id="line2d_28">
     <path d="M 450.003125 189.956288 
L 460.003125 189.956288 
L 470.003125 189.956288 
" style="fill: none; stroke: #e66c5c; stroke-width: 1.5; stroke-linecap: round"/>
    </g>
    <g id="text_26">
     <!-- 32 -->
     <g style="fill: #262626" transform="translate(478.003125 193.456288) scale(0.1 -0.1)">
      <use xlink:href="#DejaVuSans-33"/>
      <use xlink:href="#DejaVuSans-32" transform="translate(63.623047 0)"/>
     </g>
    </g>
    <g id="line2d_29">
     <path d="M 450.003125 204.634412 
L 460.003125 204.634412 
L 470.003125 204.634412 
" style="fill: none; stroke: #f89540; stroke-width: 1.5; stroke-linecap: round"/>
    </g>
    <g id="text_27">
     <!-- 64 -->
     <g style="fill: #262626" transform="translate(478.003125 208.134412) scale(0.1 -0.1)">
      <use xlink:href="#DejaVuSans-36"/>
      <use xlink:href="#DejaVuSans-34" transform="translate(63.623047 0)"/>
     </g>
    </g>
    <g id="line2d_30">
     <path d="M 450.003125 219.312537 
L 460.003125 219.312537 
L 470.003125 219.312537 
" style="fill: none; stroke: #fdc527; stroke-width: 1.5; stroke-linecap: round"/>
    </g>
    <g id="text_28">
     <!-- 128 -->
     <g style="fill: #262626" transform="translate(478.003125 222.812537) scale(0.1 -0.1)">
      <use xlink:href="#DejaVuSans-31"/>
      <use xlink:href="#DejaVuSans-32" transform="translate(63.623047 0)"/>
      <use xlink:href="#DejaVuSans-38" transform="translate(127.246094 0)"/>
     </g>
    </g>
   </g>
  </g>
 </g>
 <defs>
  <clipPath id="pfeacef1bbf">
   <rect x="59.690625" y="35.623725" width="357.12" height="266.112"/>
  </clipPath>
 </defs>
</svg>
