<?xml version="1.0" encoding="utf-8" standalone="no"?>
<!DOCTYPE svg PUBLIC "-//W3C//DTD SVG 1.1//EN"
  "http://www.w3.org/Graphics/SVG/1.1/DTD/svg11.dtd">
<svg xmlns:xlink="http://www.w3.org/1999/xlink" width="501.928125pt" height="339.291975pt" viewBox="0 0 501.928125 339.291975" xmlns="http://www.w3.org/2000/svg" version="1.1">
 <metadata>
  <rdf:RDF xmlns:dc="http://purl.org/dc/elements/1.1/" xmlns:cc="http://creativecommons.org/ns#" xmlns:rdf="http://www.w3.org/1999/02/22-rdf-syntax-ns#">
   <cc:Work>
    <dc:type rdf:resource="http://purl.org/dc/dcmitype/StillImage"/>
    <dc:date>2025-09-11T11:34:34.092395</dc:date>
    <dc:format>image/svg+xml</dc:format>
    <dc:creator>
     <cc:Agent>
      <dc:title>Matplotlib v3.10.6, https://matplotlib.org/</dc:title>
     </cc:Agent>
    </dc:creator>
   </cc:Work>
  </rdf:RDF>
 </metadata>
 <defs>
  <style type="text/css">*{stroke-linejoin: round; stroke-linecap: butt}</style>
 </defs>
 <g id="figure_1">
  <g id="patch_1">
   <path d="M 0 339.291975 
L 501.928125 339.291975 
L 501.928125 0 
L 0 0 
z
" style="fill: #ffffff"/>
  </g>
  <g id="axes_1">
   <g id="patch_2">
    <path d="M 53.328125 301.735725 
L 410.448125 301.735725 
L 410.448125 35.623725 
L 53.328125 35.623725 
z
" style="fill: #ffffff"/>
   </g>
   <g id="matplotlib.axis_1">
    <g id="xtick_1">
     <g id="line2d_1">
      <path d="M 394.215398 301.735725 
L 394.215398 35.623725 
" clip-path="url(#p53d62eb078)" style="fill: none; stroke: #cccccc; stroke-width: 0.8; stroke-linecap: round"/>
     </g>
     <g id="text_1">
      <!-- 128 -->
      <g style="fill: #262626" transform="translate(384.671648 316.334162) scale(0.1 -0.1)">
       <defs>
        <path id="DejaVuSans-31" d="M 794 531 
L 1825 531 
L 1825 4091 
L 703 3866 
L 703 4441 
L 1819 4666 
L 2450 4666 
L 2450 531 
L 3481 531 
L 3481 0 
L 794 0 
L 794 531 
z
" transform="scale(0.015625)"/>
        <path id="DejaVuSans-32" d="M 1228 531 
L 3431 531 
L 3431 0 
L 469 0 
L 469 531 
Q 828 903 1448 1529 
Q 2069 2156 2228 2338 
Q 2531 2678 2651 2914 
Q 2772 3150 2772 3378 
Q 2772 3750 2511 3984 
Q 2250 4219 1831 4219 
Q 1534 4219 1204 4116 
Q 875 4013 500 3803 
L 500 4441 
Q 881 4594 1212 4672 
Q 1544 4750 1819 4750 
Q 2544 4750 2975 4387 
Q 3406 4025 3406 3419 
Q 3406 3131 3298 2873 
Q 3191 2616 2906 2266 
Q 2828 2175 2409 1742 
Q 1991 1309 1228 531 
z
" transform="scale(0.015625)"/>
        <path id="DejaVuSans-38" d="M 2034 2216 
Q 1584 2216 1326 1975 
Q 1069 1734 1069 1313 
Q 1069 891 1326 650 
Q 1584 409 2034 409 
Q 2484 409 2743 651 
Q 3003 894 3003 1313 
Q 3003 1734 2745 1975 
Q 2488 2216 2034 2216 
z
M 1403 2484 
Q 997 2584 770 2862 
Q 544 3141 544 3541 
Q 544 4100 942 4425 
Q 1341 4750 2034 4750 
Q 2731 4750 3128 4425 
Q 3525 4100 3525 3541 
Q 3525 3141 3298 2862 
Q 3072 2584 2669 2484 
Q 3125 2378 3379 2068 
Q 3634 1759 3634 1313 
Q 3634 634 3220 271 
Q 2806 -91 2034 -91 
Q 1263 -91 848 271 
Q 434 634 434 1313 
Q 434 1759 690 2068 
Q 947 2378 1403 2484 
z
M 1172 3481 
Q 1172 3119 1398 2916 
Q 1625 2713 2034 2713 
Q 2441 2713 2670 2916 
Q 2900 3119 2900 3481 
Q 2900 3844 2670 4047 
Q 2441 4250 2034 4250 
Q 1625 4250 1398 4047 
Q 1172 3844 1172 3481 
z
" transform="scale(0.015625)"/>
       </defs>
       <use xlink:href="#DejaVuSans-31"/>
       <use xlink:href="#DejaVuSans-32" transform="translate(63.623047 0)"/>
       <use xlink:href="#DejaVuSans-38" transform="translate(127.246094 0)"/>
      </g>
     </g>
    </g>
    <g id="xtick_2">
     <g id="line2d_2">
      <path d="M 208.698515 301.735725 
L 208.698515 35.623725 
" clip-path="url(#p53d62eb078)" style="fill: none; stroke: #cccccc; stroke-width: 0.8; stroke-linecap: round"/>
     </g>
     <g id="text_2">
      <!-- 64 -->
      <g style="fill: #262626" transform="translate(202.336015 316.334162) scale(0.1 -0.1)">
       <defs>
        <path id="DejaVuSans-36" d="M 2113 2584 
Q 1688 2584 1439 2293 
Q 1191 2003 1191 1497 
Q 1191 994 1439 701 
Q 1688 409 2113 409 
Q 2538 409 2786 701 
Q 3034 994 3034 1497 
Q 3034 2003 2786 2293 
Q 2538 2584 2113 2584 
z
M 3366 4563 
L 3366 3988 
Q 3128 4100 2886 4159 
Q 2644 4219 2406 4219 
Q 1781 4219 1451 3797 
Q 1122 3375 1075 2522 
Q 1259 2794 1537 2939 
Q 1816 3084 2150 3084 
Q 2853 3084 3261 2657 
Q 3669 2231 3669 1497 
Q 3669 778 3244 343 
Q 2819 -91 2113 -91 
Q 1303 -91 875 529 
Q 447 1150 447 2328 
Q 447 3434 972 4092 
Q 1497 4750 2381 4750 
Q 2619 4750 2861 4703 
Q 3103 4656 3366 4563 
z
" transform="scale(0.015625)"/>
        <path id="DejaVuSans-34" d="M 2419 4116 
L 825 1625 
L 2419 1625 
L 2419 4116 
z
M 2253 4666 
L 3047 4666 
L 3047 1625 
L 3713 1625 
L 3713 1100 
L 3047 1100 
L 3047 0 
L 2419 0 
L 2419 1100 
L 313 1100 
L 313 1709 
L 2253 4666 
z
" transform="scale(0.015625)"/>
       </defs>
       <use xlink:href="#DejaVuSans-36"/>
       <use xlink:href="#DejaVuSans-34" transform="translate(63.623047 0)"/>
      </g>
     </g>
    </g>
    <g id="xtick_3">
     <g id="line2d_3">
      <path d="M 69.560852 301.735725 
L 69.560852 35.623725 
" clip-path="url(#p53d62eb078)" style="fill: none; stroke: #cccccc; stroke-width: 0.8; stroke-linecap: round"/>
     </g>
     <g id="text_3">
      <!-- 16 -->
      <g style="fill: #262626" transform="translate(63.198352 316.334162) scale(0.1 -0.1)">
       <use xlink:href="#DejaVuSans-31"/>
       <use xlink:href="#DejaVuSans-36" transform="translate(63.623047 0)"/>
      </g>
     </g>
    </g>
    <g id="xtick_4">
     <g id="line2d_4">
      <path d="M 115.940073 301.735725 
L 115.940073 35.623725 
" clip-path="url(#p53d62eb078)" style="fill: none; stroke: #cccccc; stroke-width: 0.8; stroke-linecap: round"/>
     </g>
     <g id="text_4">
      <!-- 32 -->
      <g style="fill: #262626" transform="translate(109.577573 316.334162) scale(0.1 -0.1)">
       <defs>
        <path id="DejaVuSans-33" d="M 2597 2516 
Q 3050 2419 3304 2112 
Q 3559 1806 3559 1356 
Q 3559 666 3084 287 
Q 2609 -91 1734 -91 
Q 1441 -91 1130 -33 
Q 819 25 488 141 
L 488 750 
Q 750 597 1062 519 
Q 1375 441 1716 441 
Q 2309 441 2620 675 
Q 2931 909 2931 1356 
Q 2931 1769 2642 2001 
Q 2353 2234 1838 2234 
L 1294 2234 
L 1294 2753 
L 1863 2753 
Q 2328 2753 2575 2939 
Q 2822 3125 2822 3475 
Q 2822 3834 2567 4026 
Q 2313 4219 1838 4219 
Q 1578 4219 1281 4162 
Q 984 4106 628 3988 
L 628 4550 
Q 988 4650 1302 4700 
Q 1616 4750 1894 4750 
Q 2613 4750 3031 4423 
Q 3450 4097 3450 3541 
Q 3450 3153 3228 2886 
Q 3006 2619 2597 2516 
z
" transform="scale(0.015625)"/>
       </defs>
       <use xlink:href="#DejaVuSans-33"/>
       <use xlink:href="#DejaVuSans-32" transform="translate(63.623047 0)"/>
      </g>
     </g>
    </g>
    <g id="text_5">
     <!-- Number of Jobs -->
     <g style="fill: #262626" transform="translate(193.49125 330.012287) scale(0.1 -0.1)">
      <defs>
       <path id="DejaVuSans-4e" d="M 628 4666 
L 1478 4666 
L 3547 763 
L 3547 4666 
L 4159 4666 
L 4159 0 
L 3309 0 
L 1241 3903 
L 1241 0 
L 628 0 
L 628 4666 
z
" transform="scale(0.015625)"/>
       <path id="DejaVuSans-75" d="M 544 1381 
L 544 3500 
L 1119 3500 
L 1119 1403 
Q 1119 906 1312 657 
Q 1506 409 1894 409 
Q 2359 409 2629 706 
Q 2900 1003 2900 1516 
L 2900 3500 
L 3475 3500 
L 3475 0 
L 2900 0 
L 2900 538 
Q 2691 219 2414 64 
Q 2138 -91 1772 -91 
Q 1169 -91 856 284 
Q 544 659 544 1381 
z
M 1991 3584 
L 1991 3584 
z
" transform="scale(0.015625)"/>
       <path id="DejaVuSans-6d" d="M 3328 2828 
Q 3544 3216 3844 3400 
Q 4144 3584 4550 3584 
Q 5097 3584 5394 3201 
Q 5691 2819 5691 2113 
L 5691 0 
L 5113 0 
L 5113 2094 
Q 5113 2597 4934 2840 
Q 4756 3084 4391 3084 
Q 3944 3084 3684 2787 
Q 3425 2491 3425 1978 
L 3425 0 
L 2847 0 
L 2847 2094 
Q 2847 2600 2669 2842 
Q 2491 3084 2119 3084 
Q 1678 3084 1418 2786 
Q 1159 2488 1159 1978 
L 1159 0 
L 581 0 
L 581 3500 
L 1159 3500 
L 1159 2956 
Q 1356 3278 1631 3431 
Q 1906 3584 2284 3584 
Q 2666 3584 2933 3390 
Q 3200 3197 3328 2828 
z
" transform="scale(0.015625)"/>
       <path id="DejaVuSans-62" d="M 3116 1747 
Q 3116 2381 2855 2742 
Q 2594 3103 2138 3103 
Q 1681 3103 1420 2742 
Q 1159 2381 1159 1747 
Q 1159 1113 1420 752 
Q 1681 391 2138 391 
Q 2594 391 2855 752 
Q 3116 1113 3116 1747 
z
M 1159 2969 
Q 1341 3281 1617 3432 
Q 1894 3584 2278 3584 
Q 2916 3584 3314 3078 
Q 3713 2572 3713 1747 
Q 3713 922 3314 415 
Q 2916 -91 2278 -91 
Q 1894 -91 1617 61 
Q 1341 213 1159 525 
L 1159 0 
L 581 0 
L 581 4863 
L 1159 4863 
L 1159 2969 
z
" transform="scale(0.015625)"/>
       <path id="DejaVuSans-65" d="M 3597 1894 
L 3597 1613 
L 953 1613 
Q 991 1019 1311 708 
Q 1631 397 2203 397 
Q 2534 397 2845 478 
Q 3156 559 3463 722 
L 3463 178 
Q 3153 47 2828 -22 
Q 2503 -91 2169 -91 
Q 1331 -91 842 396 
Q 353 884 353 1716 
Q 353 2575 817 3079 
Q 1281 3584 2069 3584 
Q 2775 3584 3186 3129 
Q 3597 2675 3597 1894 
z
M 3022 2063 
Q 3016 2534 2758 2815 
Q 2500 3097 2075 3097 
Q 1594 3097 1305 2825 
Q 1016 2553 972 2059 
L 3022 2063 
z
" transform="scale(0.015625)"/>
       <path id="DejaVuSans-72" d="M 2631 2963 
Q 2534 3019 2420 3045 
Q 2306 3072 2169 3072 
Q 1681 3072 1420 2755 
Q 1159 2438 1159 1844 
L 1159 0 
L 581 0 
L 581 3500 
L 1159 3500 
L 1159 2956 
Q 1341 3275 1631 3429 
Q 1922 3584 2338 3584 
Q 2397 3584 2469 3576 
Q 2541 3569 2628 3553 
L 2631 2963 
z
" transform="scale(0.015625)"/>
       <path id="DejaVuSans-20" transform="scale(0.015625)"/>
       <path id="DejaVuSans-6f" d="M 1959 3097 
Q 1497 3097 1228 2736 
Q 959 2375 959 1747 
Q 959 1119 1226 758 
Q 1494 397 1959 397 
Q 2419 397 2687 759 
Q 2956 1122 2956 1747 
Q 2956 2369 2687 2733 
Q 2419 3097 1959 3097 
z
M 1959 3584 
Q 2709 3584 3137 3096 
Q 3566 2609 3566 1747 
Q 3566 888 3137 398 
Q 2709 -91 1959 -91 
Q 1206 -91 779 398 
Q 353 888 353 1747 
Q 353 2609 779 3096 
Q 1206 3584 1959 3584 
z
" transform="scale(0.015625)"/>
       <path id="DejaVuSans-66" d="M 2375 4863 
L 2375 4384 
L 1825 4384 
Q 1516 4384 1395 4259 
Q 1275 4134 1275 3809 
L 1275 3500 
L 2222 3500 
L 2222 3053 
L 1275 3053 
L 1275 0 
L 697 0 
L 697 3053 
L 147 3053 
L 147 3500 
L 697 3500 
L 697 3744 
Q 697 4328 969 4595 
Q 1241 4863 1831 4863 
L 2375 4863 
z
" transform="scale(0.015625)"/>
       <path id="DejaVuSans-4a" d="M 628 4666 
L 1259 4666 
L 1259 325 
Q 1259 -519 939 -900 
Q 619 -1281 -91 -1281 
L -331 -1281 
L -331 -750 
L -134 -750 
Q 284 -750 456 -515 
Q 628 -281 628 325 
L 628 4666 
z
" transform="scale(0.015625)"/>
       <path id="DejaVuSans-73" d="M 2834 3397 
L 2834 2853 
Q 2591 2978 2328 3040 
Q 2066 3103 1784 3103 
Q 1356 3103 1142 2972 
Q 928 2841 928 2578 
Q 928 2378 1081 2264 
Q 1234 2150 1697 2047 
L 1894 2003 
Q 2506 1872 2764 1633 
Q 3022 1394 3022 966 
Q 3022 478 2636 193 
Q 2250 -91 1575 -91 
Q 1294 -91 989 -36 
Q 684 19 347 128 
L 347 722 
Q 666 556 975 473 
Q 1284 391 1588 391 
Q 1994 391 2212 530 
Q 2431 669 2431 922 
Q 2431 1156 2273 1281 
Q 2116 1406 1581 1522 
L 1381 1569 
Q 847 1681 609 1914 
Q 372 2147 372 2553 
Q 372 3047 722 3315 
Q 1072 3584 1716 3584 
Q 2034 3584 2315 3537 
Q 2597 3491 2834 3397 
z
" transform="scale(0.015625)"/>
      </defs>
      <use xlink:href="#DejaVuSans-4e"/>
      <use xlink:href="#DejaVuSans-75" transform="translate(74.804688 0)"/>
      <use xlink:href="#DejaVuSans-6d" transform="translate(138.183594 0)"/>
      <use xlink:href="#DejaVuSans-62" transform="translate(235.595703 0)"/>
      <use xlink:href="#DejaVuSans-65" transform="translate(299.072266 0)"/>
      <use xlink:href="#DejaVuSans-72" transform="translate(360.595703 0)"/>
      <use xlink:href="#DejaVuSans-20" transform="translate(401.708984 0)"/>
      <use xlink:href="#DejaVuSans-6f" transform="translate(433.496094 0)"/>
      <use xlink:href="#DejaVuSans-66" transform="translate(494.677734 0)"/>
      <use xlink:href="#DejaVuSans-20" transform="translate(529.882812 0)"/>
      <use xlink:href="#DejaVuSans-4a" transform="translate(561.669922 0)"/>
      <use xlink:href="#DejaVuSans-6f" transform="translate(591.162109 0)"/>
      <use xlink:href="#DejaVuSans-62" transform="translate(652.34375 0)"/>
      <use xlink:href="#DejaVuSans-73" transform="translate(715.820312 0)"/>
     </g>
    </g>
   </g>
   <g id="matplotlib.axis_2">
    <g id="ytick_1">
     <g id="line2d_5">
      <path d="M 53.328125 298.107655 
L 410.448125 298.107655 
" clip-path="url(#p53d62eb078)" style="fill: none; stroke: #cccccc; stroke-width: 0.8; stroke-linecap: round"/>
     </g>
     <g id="text_6">
      <!-- 750 -->
      <g style="fill: #262626" transform="translate(27.240625 301.906874) scale(0.1 -0.1)">
       <defs>
        <path id="DejaVuSans-37" d="M 525 4666 
L 3525 4666 
L 3525 4397 
L 1831 0 
L 1172 0 
L 2766 4134 
L 525 4134 
L 525 4666 
z
" transform="scale(0.015625)"/>
        <path id="DejaVuSans-35" d="M 691 4666 
L 3169 4666 
L 3169 4134 
L 1269 4134 
L 1269 2991 
Q 1406 3038 1543 3061 
Q 1681 3084 1819 3084 
Q 2600 3084 3056 2656 
Q 3513 2228 3513 1497 
Q 3513 744 3044 326 
Q 2575 -91 1722 -91 
Q 1428 -91 1123 -41 
Q 819 9 494 109 
L 494 744 
Q 775 591 1075 516 
Q 1375 441 1709 441 
Q 2250 441 2565 725 
Q 2881 1009 2881 1497 
Q 2881 1984 2565 2268 
Q 2250 2553 1709 2553 
Q 1456 2553 1204 2497 
Q 953 2441 691 2322 
L 691 4666 
z
" transform="scale(0.015625)"/>
        <path id="DejaVuSans-30" d="M 2034 4250 
Q 1547 4250 1301 3770 
Q 1056 3291 1056 2328 
Q 1056 1369 1301 889 
Q 1547 409 2034 409 
Q 2525 409 2770 889 
Q 3016 1369 3016 2328 
Q 3016 3291 2770 3770 
Q 2525 4250 2034 4250 
z
M 2034 4750 
Q 2819 4750 3233 4129 
Q 3647 3509 3647 2328 
Q 3647 1150 3233 529 
Q 2819 -91 2034 -91 
Q 1250 -91 836 529 
Q 422 1150 422 2328 
Q 422 3509 836 4129 
Q 1250 4750 2034 4750 
z
" transform="scale(0.015625)"/>
       </defs>
       <use xlink:href="#DejaVuSans-37"/>
       <use xlink:href="#DejaVuSans-35" transform="translate(63.623047 0)"/>
       <use xlink:href="#DejaVuSans-30" transform="translate(127.246094 0)"/>
      </g>
     </g>
    </g>
    <g id="ytick_2">
     <g id="line2d_6">
      <path d="M 53.328125 261.607957 
L 410.448125 261.607957 
" clip-path="url(#p53d62eb078)" style="fill: none; stroke: #cccccc; stroke-width: 0.8; stroke-linecap: round"/>
     </g>
     <g id="text_7">
      <!-- 1000 -->
      <g style="fill: #262626" transform="translate(20.878125 265.407175) scale(0.1 -0.1)">
       <use xlink:href="#DejaVuSans-31"/>
       <use xlink:href="#DejaVuSans-30" transform="translate(63.623047 0)"/>
       <use xlink:href="#DejaVuSans-30" transform="translate(127.246094 0)"/>
       <use xlink:href="#DejaVuSans-30" transform="translate(190.869141 0)"/>
      </g>
     </g>
    </g>
    <g id="ytick_3">
     <g id="line2d_7">
      <path d="M 53.328125 225.108258 
L 410.448125 225.108258 
" clip-path="url(#p53d62eb078)" style="fill: none; stroke: #cccccc; stroke-width: 0.8; stroke-linecap: round"/>
     </g>
     <g id="text_8">
      <!-- 1250 -->
      <g style="fill: #262626" transform="translate(20.878125 228.907477) scale(0.1 -0.1)">
       <use xlink:href="#DejaVuSans-31"/>
       <use xlink:href="#DejaVuSans-32" transform="translate(63.623047 0)"/>
       <use xlink:href="#DejaVuSans-35" transform="translate(127.246094 0)"/>
       <use xlink:href="#DejaVuSans-30" transform="translate(190.869141 0)"/>
      </g>
     </g>
    </g>
    <g id="ytick_4">
     <g id="line2d_8">
      <path d="M 53.328125 188.60856 
L 410.448125 188.60856 
" clip-path="url(#p53d62eb078)" style="fill: none; stroke: #cccccc; stroke-width: 0.8; stroke-linecap: round"/>
     </g>
     <g id="text_9">
      <!-- 1500 -->
      <g style="fill: #262626" transform="translate(20.878125 192.407779) scale(0.1 -0.1)">
       <use xlink:href="#DejaVuSans-31"/>
       <use xlink:href="#DejaVuSans-35" transform="translate(63.623047 0)"/>
       <use xlink:href="#DejaVuSans-30" transform="translate(127.246094 0)"/>
       <use xlink:href="#DejaVuSans-30" transform="translate(190.869141 0)"/>
      </g>
     </g>
    </g>
    <g id="ytick_5">
     <g id="line2d_9">
      <path d="M 53.328125 152.108862 
L 410.448125 152.108862 
" clip-path="url(#p53d62eb078)" style="fill: none; stroke: #cccccc; stroke-width: 0.8; stroke-linecap: round"/>
     </g>
     <g id="text_10">
      <!-- 1750 -->
      <g style="fill: #262626" transform="translate(20.878125 155.908081) scale(0.1 -0.1)">
       <use xlink:href="#DejaVuSans-31"/>
       <use xlink:href="#DejaVuSans-37" transform="translate(63.623047 0)"/>
       <use xlink:href="#DejaVuSans-35" transform="translate(127.246094 0)"/>
       <use xlink:href="#DejaVuSans-30" transform="translate(190.869141 0)"/>
      </g>
     </g>
    </g>
    <g id="ytick_6">
     <g id="line2d_10">
      <path d="M 53.328125 115.609164 
L 410.448125 115.609164 
" clip-path="url(#p53d62eb078)" style="fill: none; stroke: #cccccc; stroke-width: 0.8; stroke-linecap: round"/>
     </g>
     <g id="text_11">
      <!-- 2000 -->
      <g style="fill: #262626" transform="translate(20.878125 119.408382) scale(0.1 -0.1)">
       <use xlink:href="#DejaVuSans-32"/>
       <use xlink:href="#DejaVuSans-30" transform="translate(63.623047 0)"/>
       <use xlink:href="#DejaVuSans-30" transform="translate(127.246094 0)"/>
       <use xlink:href="#DejaVuSans-30" transform="translate(190.869141 0)"/>
      </g>
     </g>
    </g>
    <g id="ytick_7">
     <g id="line2d_11">
      <path d="M 53.328125 79.109465 
L 410.448125 79.109465 
" clip-path="url(#p53d62eb078)" style="fill: none; stroke: #cccccc; stroke-width: 0.8; stroke-linecap: round"/>
     </g>
     <g id="text_12">
      <!-- 2250 -->
      <g style="fill: #262626" transform="translate(20.878125 82.908684) scale(0.1 -0.1)">
       <use xlink:href="#DejaVuSans-32"/>
       <use xlink:href="#DejaVuSans-32" transform="translate(63.623047 0)"/>
       <use xlink:href="#DejaVuSans-35" transform="translate(127.246094 0)"/>
       <use xlink:href="#DejaVuSans-30" transform="translate(190.869141 0)"/>
      </g>
     </g>
    </g>
    <g id="ytick_8">
     <g id="line2d_12">
      <path d="M 53.328125 42.609767 
L 410.448125 42.609767 
" clip-path="url(#p53d62eb078)" style="fill: none; stroke: #cccccc; stroke-width: 0.8; stroke-linecap: round"/>
     </g>
     <g id="text_13">
      <!-- 2500 -->
      <g style="fill: #262626" transform="translate(20.878125 46.408986) scale(0.1 -0.1)">
       <use xlink:href="#DejaVuSans-32"/>
       <use xlink:href="#DejaVuSans-35" transform="translate(63.623047 0)"/>
       <use xlink:href="#DejaVuSans-30" transform="translate(127.246094 0)"/>
       <use xlink:href="#DejaVuSans-30" transform="translate(190.869141 0)"/>
      </g>
     </g>
    </g>
    <g id="text_14">
     <!-- IOPS -->
     <g style="fill: #262626" transform="translate(14.798438 180.279725) rotate(-90) scale(0.1 -0.1)">
      <defs>
       <path id="DejaVuSans-49" d="M 628 4666 
L 1259 4666 
L 1259 0 
L 628 0 
L 628 4666 
z
" transform="scale(0.015625)"/>
       <path id="DejaVuSans-4f" d="M 2522 4238 
Q 1834 4238 1429 3725 
Q 1025 3213 1025 2328 
Q 1025 1447 1429 934 
Q 1834 422 2522 422 
Q 3209 422 3611 934 
Q 4013 1447 4013 2328 
Q 4013 3213 3611 3725 
Q 3209 4238 2522 4238 
z
M 2522 4750 
Q 3503 4750 4090 4092 
Q 4678 3434 4678 2328 
Q 4678 1225 4090 567 
Q 3503 -91 2522 -91 
Q 1538 -91 948 565 
Q 359 1222 359 2328 
Q 359 3434 948 4092 
Q 1538 4750 2522 4750 
z
" transform="scale(0.015625)"/>
       <path id="DejaVuSans-50" d="M 1259 4147 
L 1259 2394 
L 2053 2394 
Q 2494 2394 2734 2622 
Q 2975 2850 2975 3272 
Q 2975 3691 2734 3919 
Q 2494 4147 2053 4147 
L 1259 4147 
z
M 628 4666 
L 2053 4666 
Q 2838 4666 3239 4311 
Q 3641 3956 3641 3272 
Q 3641 2581 3239 2228 
Q 2838 1875 2053 1875 
L 1259 1875 
L 1259 0 
L 628 0 
L 628 4666 
z
" transform="scale(0.015625)"/>
       <path id="DejaVuSans-53" d="M 3425 4513 
L 3425 3897 
Q 3066 4069 2747 4153 
Q 2428 4238 2131 4238 
Q 1616 4238 1336 4038 
Q 1056 3838 1056 3469 
Q 1056 3159 1242 3001 
Q 1428 2844 1947 2747 
L 2328 2669 
Q 3034 2534 3370 2195 
Q 3706 1856 3706 1288 
Q 3706 609 3251 259 
Q 2797 -91 1919 -91 
Q 1588 -91 1214 -16 
Q 841 59 441 206 
L 441 856 
Q 825 641 1194 531 
Q 1563 422 1919 422 
Q 2459 422 2753 634 
Q 3047 847 3047 1241 
Q 3047 1584 2836 1778 
Q 2625 1972 2144 2069 
L 1759 2144 
Q 1053 2284 737 2584 
Q 422 2884 422 3419 
Q 422 4038 858 4394 
Q 1294 4750 2059 4750 
Q 2388 4750 2728 4690 
Q 3069 4631 3425 4513 
z
" transform="scale(0.015625)"/>
      </defs>
      <use xlink:href="#DejaVuSans-49"/>
      <use xlink:href="#DejaVuSans-4f" transform="translate(29.492188 0)"/>
      <use xlink:href="#DejaVuSans-50" transform="translate(108.203125 0)"/>
      <use xlink:href="#DejaVuSans-53" transform="translate(168.505859 0)"/>
     </g>
    </g>
   </g>
   <g id="FillBetweenPolyCollection_1"/>
   <g id="FillBetweenPolyCollection_2"/>
   <g id="FillBetweenPolyCollection_3"/>
   <g id="FillBetweenPolyCollection_4"/>
   <g id="FillBetweenPolyCollection_5"/>
   <g id="FillBetweenPolyCollection_6"/>
   <g id="FillBetweenPolyCollection_7"/>
   <g id="line2d_13">
    <path d="M 69.560852 146.26891 
L 115.940073 177.658651 
L 208.698515 280.003805 
L 394.215398 281.75579 
" clip-path="url(#p53d62eb078)" style="fill: none; stroke: #4c02a1; stroke-width: 1.5; stroke-linecap: round"/>
   </g>
   <g id="line2d_14">
    <path d="M 69.560852 47.719725 
L 115.940073 152.984855 
L 208.698515 257.373992 
L 394.215398 231.240208 
" clip-path="url(#p53d62eb078)" style="fill: none; stroke: #7e03a8; stroke-width: 1.5; stroke-linecap: round"/>
   </g>
   <g id="line2d_15">
    <path d="M 69.560852 120.573123 
L 115.940073 182.330612 
L 208.698515 263.213943 
L 394.215398 289.639725 
" clip-path="url(#p53d62eb078)" style="fill: none; stroke: #aa2395; stroke-width: 1.5; stroke-linecap: round"/>
   </g>
   <g id="line2d_16">
    <path d="M 69.560852 93.855344 
L 115.940073 217.224324 
L 208.698515 248.760063 
L 394.215398 276.353835 
" clip-path="url(#p53d62eb078)" style="fill: none; stroke: #cc4778; stroke-width: 1.5; stroke-linecap: round"/>
   </g>
   <g id="line2d_17">
    <path d="M 69.560852 83.927426 
L 115.940073 203.354438 
L 208.698515 252.848029 
L 394.215398 272.265869 
" clip-path="url(#p53d62eb078)" style="fill: none; stroke: #e66c5c; stroke-width: 1.5; stroke-linecap: round"/>
   </g>
   <g id="line2d_18">
    <path d="M 69.560852 72.977516 
L 115.940073 177.658651 
L 208.698515 234.014185 
L 394.215398 273.725857 
" clip-path="url(#p53d62eb078)" style="fill: none; stroke: #f89540; stroke-width: 1.5; stroke-linecap: round"/>
   </g>
   <g id="line2d_19">
    <path d="M 69.560852 103.491264 
L 115.940073 242.628114 
L 208.698515 268.177902 
L 394.215398 284.383768 
" clip-path="url(#p53d62eb078)" style="fill: none; stroke: #fdc527; stroke-width: 1.5; stroke-linecap: round"/>
   </g>
   <g id="line2d_20"/>
   <g id="line2d_21"/>
   <g id="line2d_22"/>
   <g id="line2d_23"/>
   <g id="line2d_24"/>
   <g id="line2d_25"/>
   <g id="line2d_26"/>
   <g id="text_15">
    <path d="M 108.671398 175.069273 
L 110.005503 175.972203 
L 113.123284 171.365594 
L 111.474375 170.674116 
L 111.977949 169.930071 
L 113.619094 170.616295 
L 114.435603 171.168913 
L 110.814248 176.519567 
L 112.148353 177.422497 
L 111.683313 178.109606 
L 108.206358 175.756382 
L 108.671398 175.069273 
z
" clip-path="url(#p53d62eb078)" style="fill: #4c02a1; stroke: #ffffff; stroke-width: 5"/>
    <path d="M 108.671398 175.069273 
L 110.005503 175.972203 
L 113.123284 171.365594 
L 111.474375 170.674116 
L 111.977949 169.930071 
L 113.619094 170.616295 
L 114.435603 171.168913 
L 110.814248 176.519567 
L 112.148353 177.422497 
L 111.683313 178.109606 
L 108.206358 175.756382 
L 108.671398 175.069273 
z
" clip-path="url(#p53d62eb078)" style="fill: #4c02a1"/>
   </g>
   <g id="text_16">
    <path d="M 154.678439 191.052539 
L 150.114577 191.776072 
L 151.76894 193.637871 
L 154.678439 191.052539 
z
M 155.148555 190.287823 
L 155.972623 191.215218 
L 152.420722 194.371378 
L 153.111943 195.149269 
L 152.498741 195.69415 
L 151.80752 194.916259 
L 150.522715 196.057915 
L 149.870933 195.324409 
L 151.155738 194.182753 
L 148.969986 191.722935 
L 149.6813 191.090873 
L 155.148555 190.287823 
z
" clip-path="url(#p53d62eb078)" style="fill: #7e03a8; stroke: #ffffff; stroke-width: 5"/>
    <path d="M 154.678439 191.052539 
L 150.114577 191.776072 
L 151.76894 193.637871 
L 154.678439 191.052539 
z
M 155.148555 190.287823 
L 155.972623 191.215218 
L 152.420722 194.371378 
L 153.111943 195.149269 
L 152.498741 195.69415 
L 151.80752 194.916259 
L 150.522715 196.057915 
L 149.870933 195.324409 
L 151.155738 194.182753 
L 148.969986 191.722935 
L 149.6813 191.090873 
L 155.148555 190.287823 
z
" clip-path="url(#p53d62eb078)" style="fill: #7e03a8"/>
   </g>
   <g id="text_17">
    <path d="M 192.171873 247.870181 
Q 191.641925 247.408078 191.090606 247.426955 
Q 190.540464 247.44686 190.108141 247.942656 
Q 189.674791 248.43963 189.729968 248.987359 
Q 189.786323 249.536115 190.316271 249.998218 
Q 190.84622 250.460322 191.399743 250.441293 
Q 191.955471 250.422114 192.385741 249.928674 
Q 192.818064 249.432877 192.761709 248.884121 
Q 192.706532 248.336392 192.171873 247.870181 
z
M 191.703976 246.906596 
Q 191.328534 246.37191 191.346682 245.811414 
Q 191.367034 245.250767 191.777793 244.779702 
Q 192.351828 244.121389 193.154279 244.147353 
Q 193.957908 244.174344 194.774028 244.885983 
Q 195.59486 245.60173 195.72865 246.392148 
Q 195.862441 247.182567 195.288406 247.84088 
Q 194.877648 248.311945 194.323814 248.407408 
Q 193.772185 248.50272 193.194897 248.206647 
Q 193.623061 248.799744 193.603849 249.425651 
Q 193.586842 250.051407 193.128846 250.576645 
Q 192.431584 251.376278 191.571268 251.378635 
Q 190.711979 251.379814 189.802823 250.58705 
Q 188.894845 249.795313 188.777851 248.942837 
Q 188.663062 248.09021 189.360325 247.290577 
Q 189.818321 246.765339 190.437113 246.664327 
Q 191.058111 246.563164 191.703976 246.906596 
z
M 192.455751 245.495253 
Q 192.084015 245.921567 192.141707 246.392711 
Q 192.200576 246.864882 192.682241 247.284883 
Q 193.161549 247.70283 193.639694 247.698923 
Q 194.119017 247.696044 194.490753 247.26973 
Q 194.863516 246.842238 194.801114 246.366986 
Q 194.739889 245.892762 194.26058 245.474815 
Q 193.778916 245.054814 193.303127 245.060774 
Q 192.828515 245.067761 192.455751 245.495253 
z
" clip-path="url(#p53d62eb078)" style="fill: #aa2395; stroke: #ffffff; stroke-width: 5"/>
    <path d="M 192.171873 247.870181 
Q 191.641925 247.408078 191.090606 247.426955 
Q 190.540464 247.44686 190.108141 247.942656 
Q 189.674791 248.43963 189.729968 248.987359 
Q 189.786323 249.536115 190.316271 249.998218 
Q 190.84622 250.460322 191.399743 250.441293 
Q 191.955471 250.422114 192.385741 249.928674 
Q 192.818064 249.432877 192.761709 248.884121 
Q 192.706532 248.336392 192.171873 247.870181 
z
M 191.703976 246.906596 
Q 191.328534 246.37191 191.346682 245.811414 
Q 191.367034 245.250767 191.777793 244.779702 
Q 192.351828 244.121389 193.154279 244.147353 
Q 193.957908 244.174344 194.774028 244.885983 
Q 195.59486 245.60173 195.72865 246.392148 
Q 195.862441 247.182567 195.288406 247.84088 
Q 194.877648 248.311945 194.323814 248.407408 
Q 193.772185 248.50272 193.194897 248.206647 
Q 193.623061 248.799744 193.603849 249.425651 
Q 193.586842 250.051407 193.128846 250.576645 
Q 192.431584 251.376278 191.571268 251.378635 
Q 190.711979 251.379814 189.802823 250.58705 
Q 188.894845 249.795313 188.777851 248.942837 
Q 188.663062 248.09021 189.360325 247.290577 
Q 189.818321 246.765339 190.437113 246.664327 
Q 191.058111 246.563164 191.703976 246.906596 
z
M 192.455751 245.495253 
Q 192.084015 245.921567 192.141707 246.392711 
Q 192.200576 246.864882 192.682241 247.284883 
Q 193.161549 247.70283 193.639694 247.698923 
Q 194.119017 247.696044 194.490753 247.26973 
Q 194.863516 246.842238 194.801114 246.366986 
Q 194.739889 245.892762 194.26058 245.474815 
Q 193.778916 245.054814 193.303127 245.060774 
Q 192.828515 245.067761 192.455751 245.495253 
z
" clip-path="url(#p53d62eb078)" style="fill: #aa2395"/>
   </g>
   <g id="text_18">
    <path d="M 226.538086 253.364436 
L 228.131494 253.60144 
L 228.949857 248.099468 
L 227.164086 248.189283 
L 227.296265 247.300622 
L 229.072763 247.209428 
L 230.047972 247.354481 
L 229.09743 253.745113 
L 230.690838 253.982116 
L 230.568773 254.802776 
L 226.416021 254.185096 
L 226.538086 253.364436 
z
M 235.341608 251.430769 
Q 234.684771 251.333071 234.233048 251.725572 
Q 233.7831 252.116757 233.666782 252.898778 
Q 233.551154 253.676164 233.867084 254.186004 
Q 234.184788 254.694529 234.841625 254.792226 
Q 235.498461 254.889924 235.948869 254.495649 
Q 236.399506 254.099827 236.515134 253.322442 
Q 236.631452 252.54042 236.314833 252.035216 
Q 235.998444 251.528467 235.341608 251.430769 
z
M 237.733043 248.660266 
L 237.600864 249.548927 
Q 237.258782 249.32112 236.898334 249.174306 
Q 236.538116 249.025946 236.170288 248.971235 
Q 235.204352 248.827562 234.597329 249.403902 
Q 233.991853 249.980472 233.723129 251.287978 
Q 234.070027 250.9099 234.533008 250.749708 
Q 234.997534 250.589747 235.51373 250.666526 
Q 236.600215 250.82813 237.13262 251.581847 
Q 237.665255 252.334019 237.496525 253.468414 
Q 237.331244 254.579627 236.574411 255.15422 
Q 235.817807 255.727269 234.726686 255.564975 
Q 233.474833 255.378775 232.955884 254.322179 
Q 232.437165 253.264037 232.70796 251.443441 
Q 232.962204 249.734121 233.92485 248.837869 
Q 234.887495 247.941617 236.253715 248.144829 
Q 236.621544 248.199539 236.98475 248.327808 
Q 237.347956 248.456077 237.733043 248.660266 
z
" clip-path="url(#p53d62eb078)" style="fill: #cc4778; stroke: #ffffff; stroke-width: 5"/>
    <path d="M 226.538086 253.364436 
L 228.131494 253.60144 
L 228.949857 248.099468 
L 227.164086 248.189283 
L 227.296265 247.300622 
L 229.072763 247.209428 
L 230.047972 247.354481 
L 229.09743 253.745113 
L 230.690838 253.982116 
L 230.568773 254.802776 
L 226.416021 254.185096 
L 226.538086 253.364436 
z
M 235.341608 251.430769 
Q 234.684771 251.333071 234.233048 251.725572 
Q 233.7831 252.116757 233.666782 252.898778 
Q 233.551154 253.676164 233.867084 254.186004 
Q 234.184788 254.694529 234.841625 254.792226 
Q 235.498461 254.889924 235.948869 254.495649 
Q 236.399506 254.099827 236.515134 253.322442 
Q 236.631452 252.54042 236.314833 252.035216 
Q 235.998444 251.528467 235.341608 251.430769 
z
M 237.733043 248.660266 
L 237.600864 249.548927 
Q 237.258782 249.32112 236.898334 249.174306 
Q 236.538116 249.025946 236.170288 248.971235 
Q 235.204352 248.827562 234.597329 249.403902 
Q 233.991853 249.980472 233.723129 251.287978 
Q 234.070027 250.9099 234.533008 250.749708 
Q 234.997534 250.589747 235.51373 250.666526 
Q 236.600215 250.82813 237.13262 251.581847 
Q 237.665255 252.334019 237.496525 253.468414 
Q 237.331244 254.579627 236.574411 255.15422 
Q 235.817807 255.727269 234.726686 255.564975 
Q 233.474833 255.378775 232.955884 254.322179 
Q 232.437165 253.264037 232.70796 251.443441 
Q 232.962204 249.734121 233.92485 248.837869 
Q 234.887495 247.941617 236.253715 248.144829 
Q 236.621544 248.199539 236.98475 248.327808 
Q 237.347956 248.456077 237.733043 248.660266 
z
" clip-path="url(#p53d62eb078)" style="fill: #cc4778"/>
   </g>
   <g id="text_19">
    <path d="M 269.893952 258.075009 
Q 270.582141 258.299431 270.926924 258.817827 
Q 271.273424 259.334832 271.200228 260.034137 
Q 271.087995 261.106404 270.288193 261.618112 
Q 269.488554 262.128266 268.128795 261.985942 
Q 267.67347 261.938283 267.199607 261.797565 
Q 266.725743 261.656846 266.230234 261.422741 
L 266.329292 260.476349 
Q 266.711556 260.756728 267.18372 260.92869 
Q 267.657438 261.100814 268.187356 261.15628 
Q 269.108884 261.252736 269.630243 260.939683 
Q 270.151602 260.626631 270.22431 259.931988 
Q 270.291487 259.290182 269.880114 258.882644 
Q 269.468904 258.473551 268.668588 258.389783 
L 267.823207 258.301298 
L 267.907625 257.494767 
L 268.791857 257.587318 
Q 269.514472 257.662953 269.928567 257.414084 
Q 270.342662 257.165214 270.399592 256.62131 
Q 270.457985 256.06342 270.092943 255.723573 
Q 269.729617 255.382334 268.991462 255.305072 
Q 268.587419 255.262781 268.116606 255.303051 
Q 267.645956 255.341767 267.073535 255.467234 
L 267.164948 254.59388 
Q 267.740658 254.497036 268.23675 254.470409 
Q 268.732842 254.443783 269.164857 254.489001 
Q 270.28219 254.605951 270.878578 255.182103 
Q 271.476683 255.756864 271.386246 256.620894 
Q 271.323135 257.22385 270.934715 257.602661 
Q 270.546296 257.981472 269.893952 258.075009 
z
M 273.771375 261.59936 
L 277.194861 261.957692 
L 277.10849 262.782872 
L 272.50551 262.301083 
L 272.591881 261.475904 
Q 273.210279 260.956205 274.275589 260.084242 
Q 275.342615 259.210887 275.619306 258.953919 
Q 276.145474 258.474841 276.370343 258.127613 
Q 276.596765 257.780548 276.633851 257.426233 
Q 276.694359 256.848141 276.326824 256.44205 
Q 275.959451 256.034404 275.308321 255.966251 
Q 274.84678 255.917942 274.317202 256.024328 
Q 273.789179 256.130877 273.172267 256.396223 
L 273.276042 255.404764 
Q 273.893007 255.228973 274.420071 255.161599 
Q 274.94869 255.094388 275.376043 255.139119 
Q 276.502701 255.257045 277.113435 255.891256 
Q 277.724332 256.523913 277.625762 257.465643 
Q 277.578917 257.913198 277.369119 258.296566 
Q 277.161037 258.678543 276.661214 259.176089 
Q 276.525199 259.304817 275.803639 259.90955 
Q 275.083632 260.514447 273.771375 261.59936 
z
" clip-path="url(#p53d62eb078)" style="fill: #e66c5c; stroke: #ffffff; stroke-width: 5"/>
    <path d="M 269.893952 258.075009 
Q 270.582141 258.299431 270.926924 258.817827 
Q 271.273424 259.334832 271.200228 260.034137 
Q 271.087995 261.106404 270.288193 261.618112 
Q 269.488554 262.128266 268.128795 261.985942 
Q 267.67347 261.938283 267.199607 261.797565 
Q 266.725743 261.656846 266.230234 261.422741 
L 266.329292 260.476349 
Q 266.711556 260.756728 267.18372 260.92869 
Q 267.657438 261.100814 268.187356 261.15628 
Q 269.108884 261.252736 269.630243 260.939683 
Q 270.151602 260.626631 270.22431 259.931988 
Q 270.291487 259.290182 269.880114 258.882644 
Q 269.468904 258.473551 268.668588 258.389783 
L 267.823207 258.301298 
L 267.907625 257.494767 
L 268.791857 257.587318 
Q 269.514472 257.662953 269.928567 257.414084 
Q 270.342662 257.165214 270.399592 256.62131 
Q 270.457985 256.06342 270.092943 255.723573 
Q 269.729617 255.382334 268.991462 255.305072 
Q 268.587419 255.262781 268.116606 255.303051 
Q 267.645956 255.341767 267.073535 255.467234 
L 267.164948 254.59388 
Q 267.740658 254.497036 268.23675 254.470409 
Q 268.732842 254.443783 269.164857 254.489001 
Q 270.28219 254.605951 270.878578 255.182103 
Q 271.476683 255.756864 271.386246 256.620894 
Q 271.323135 257.22385 270.934715 257.602661 
Q 270.546296 257.981472 269.893952 258.075009 
z
M 273.771375 261.59936 
L 277.194861 261.957692 
L 277.10849 262.782872 
L 272.50551 262.301083 
L 272.591881 261.475904 
Q 273.210279 260.956205 274.275589 260.084242 
Q 275.342615 259.210887 275.619306 258.953919 
Q 276.145474 258.474841 276.370343 258.127613 
Q 276.596765 257.780548 276.633851 257.426233 
Q 276.694359 256.848141 276.326824 256.44205 
Q 275.959451 256.034404 275.308321 255.966251 
Q 274.84678 255.917942 274.317202 256.024328 
Q 273.789179 256.130877 273.172267 256.396223 
L 273.276042 255.404764 
Q 273.893007 255.228973 274.420071 255.161599 
Q 274.94869 255.094388 275.376043 255.139119 
Q 276.502701 255.257045 277.113435 255.891256 
Q 277.724332 256.523913 277.625762 257.465643 
Q 277.578917 257.913198 277.369119 258.296566 
Q 277.161037 258.678543 276.661214 259.176089 
Q 276.525199 259.304817 275.803639 259.90955 
Q 275.083632 260.514447 273.771375 261.59936 
z
" clip-path="url(#p53d62eb078)" style="fill: #e66c5c"/>
   </g>
   <g id="text_20">
    <path d="M 309.514529 254.287742 
Q 308.865177 254.148742 308.389559 254.511919 
Q 307.915795 254.873896 307.750304 255.647007 
Q 307.585793 256.415534 307.868881 256.944315 
Q 308.153823 257.471896 308.803175 257.610896 
Q 309.452527 257.749896 309.926945 257.384864 
Q 310.401689 257.018303 310.566199 256.249776 
Q 310.731691 255.476665 310.447622 254.952467 
Q 310.163881 254.426742 309.514529 254.287742 
z
M 312.076221 251.673858 
L 311.888162 252.552393 
Q 311.561155 252.30343 311.210703 252.134136 
Q 310.860578 251.963315 310.496941 251.885475 
Q 309.542011 251.681063 308.89979 252.217902 
Q 308.259096 252.755068 307.908304 254.042984 
Q 308.278395 253.687577 308.750572 253.556956 
Q 309.224276 253.426662 309.73459 253.535899 
Q 310.808694 253.765822 311.292418 254.55167 
Q 311.776469 255.335989 311.536408 256.457459 
Q 311.301252 257.556009 310.50963 258.08164 
Q 309.718334 258.605743 308.639646 258.374839 
Q 307.402057 258.109922 306.950898 257.022651 
Q 306.500066 255.933852 306.885342 254.134001 
Q 307.247069 252.444158 308.264414 251.610514 
Q 309.28176 250.77687 310.632412 251.06599 
Q 310.996049 251.14383 311.350426 251.294789 
Q 311.704803 251.445748 312.076221 251.673858 
z
M 316.704481 253.378842 
L 313.454325 256.663476 
L 315.889777 257.184808 
L 316.704481 253.378842 
z
M 316.630734 252.484212 
L 317.843877 252.743897 
L 316.84929 257.390201 
L 317.866863 257.608023 
L 317.695157 258.410163 
L 316.677585 258.192342 
L 316.31782 259.873018 
L 315.358307 259.667625 
L 315.718071 257.986949 
L 312.500341 257.298163 
L 312.69952 256.36768 
L 316.630734 252.484212 
z
" clip-path="url(#p53d62eb078)" style="fill: #f89540; stroke: #ffffff; stroke-width: 5"/>
    <path d="M 309.514529 254.287742 
Q 308.865177 254.148742 308.389559 254.511919 
Q 307.915795 254.873896 307.750304 255.647007 
Q 307.585793 256.415534 307.868881 256.944315 
Q 308.153823 257.471896 308.803175 257.610896 
Q 309.452527 257.749896 309.926945 257.384864 
Q 310.401689 257.018303 310.566199 256.249776 
Q 310.731691 255.476665 310.447622 254.952467 
Q 310.163881 254.426742 309.514529 254.287742 
z
M 312.076221 251.673858 
L 311.888162 252.552393 
Q 311.561155 252.30343 311.210703 252.134136 
Q 310.860578 251.963315 310.496941 251.885475 
Q 309.542011 251.681063 308.89979 252.217902 
Q 308.259096 252.755068 307.908304 254.042984 
Q 308.278395 253.687577 308.750572 253.556956 
Q 309.224276 253.426662 309.73459 253.535899 
Q 310.808694 253.765822 311.292418 254.55167 
Q 311.776469 255.335989 311.536408 256.457459 
Q 311.301252 257.556009 310.50963 258.08164 
Q 309.718334 258.605743 308.639646 258.374839 
Q 307.402057 258.109922 306.950898 257.022651 
Q 306.500066 255.933852 306.885342 254.134001 
Q 307.247069 252.444158 308.264414 251.610514 
Q 309.28176 250.77687 310.632412 251.06599 
Q 310.996049 251.14383 311.350426 251.294789 
Q 311.704803 251.445748 312.076221 251.673858 
z
M 316.704481 253.378842 
L 313.454325 256.663476 
L 315.889777 257.184808 
L 316.704481 253.378842 
z
M 316.630734 252.484212 
L 317.843877 252.743897 
L 316.84929 257.390201 
L 317.866863 257.608023 
L 317.695157 258.410163 
L 316.677585 258.192342 
L 316.31782 259.873018 
L 315.358307 259.667625 
L 315.718071 257.986949 
L 312.500341 257.298163 
L 312.69952 256.36768 
L 316.630734 252.484212 
z
" clip-path="url(#p53d62eb078)" style="fill: #f89540"/>
   </g>
   <g id="text_21">
    <path d="M 343.976571 281.932181 
L 345.581397 282.072371 
L 346.065467 276.530974 
L 344.288399 276.728639 
L 344.366584 275.83361 
L 346.134313 275.635129 
L 347.11651 275.720929 
L 346.554255 282.157356 
L 348.159081 282.297545 
L 348.086878 283.124085 
L 343.904369 282.758721 
L 343.976571 281.932181 
z
M 350.990291 282.544866 
L 354.41942 282.844419 
L 354.347217 283.670959 
L 349.73665 283.268201 
L 349.808853 282.441662 
Q 350.418245 281.911432 351.46844 281.021322 
Q 352.520327 280.129791 352.79257 279.868115 
Q 353.310443 279.380081 353.529321 279.029047 
Q 353.749757 278.678149 353.780759 278.32325 
Q 353.831341 277.744205 353.456894 277.344478 
Q 353.082583 276.943194 352.430379 276.886221 
Q 351.968077 276.845836 351.440403 276.961292 
Q 350.914285 277.076883 350.302016 277.352772 
L 350.388768 276.359679 
Q 351.002626 276.17333 351.528457 276.096925 
Q 352.055845 276.020656 352.483903 276.058049 
Q 353.612418 276.156631 354.233941 276.780272 
Q 354.855601 277.402356 354.773201 278.345639 
Q 354.73404 278.793931 354.530849 279.180842 
Q 354.32935 279.566332 353.838136 280.072379 
Q 353.704349 280.203421 352.993268 280.820444 
Q 352.283744 281.437602 350.990291 282.544866 
z
M 358.812173 280.58531 
Q 358.111716 280.524121 357.67735 280.864174 
Q 357.244541 281.204362 357.187296 281.859679 
Q 357.129915 282.516552 357.497184 282.926632 
Q 357.86601 283.336847 358.566467 283.398036 
Q 359.266925 283.459224 359.702983 283.117751 
Q 360.140733 282.774858 360.197707 282.122654 
Q 360.254952 281.467337 359.886126 281.057122 
Q 359.518857 280.647042 358.812173 280.58531 
z
M 357.866418 280.082348 
Q 357.248047 279.871485 356.932506 279.407892 
Q 356.618657 278.942878 356.673047 278.320249 
Q 356.749057 277.450125 357.412765 276.998357 
Q 358.078029 276.546725 359.156733 276.640956 
Q 360.241664 276.73573 360.815432 277.295598 
Q 361.389199 277.855466 361.313189 278.72559 
Q 361.258799 279.348219 360.86752 279.751636 
Q 360.477934 280.153633 359.837038 280.254492 
Q 360.532422 280.481493 360.885639 280.998568 
Q 361.240549 281.514223 361.179904 282.208454 
Q 361.087577 283.265367 360.393797 283.774109 
Q 359.700154 284.281294 358.49848 284.176322 
Q 357.298363 284.071485 356.701608 283.451577 
Q 356.106546 282.830248 356.198873 281.773335 
Q 356.259517 281.079104 356.700016 280.632932 
Q 357.142207 280.185341 357.866418 280.082348 
z
M 357.642416 278.499036 
Q 357.593193 279.062515 357.917376 279.409229 
Q 358.243115 279.75608 358.879753 279.811693 
Q 359.513278 279.867035 359.897336 279.582189 
Q 360.28295 279.297479 360.332173 278.734 
Q 360.381532 278.168964 360.051123 277.821706 
Q 359.722271 277.474584 359.088746 277.419242 
Q 358.452108 277.363628 358.071163 277.648746 
Q 357.691775 277.934 357.642416 278.499036 
z
" clip-path="url(#p53d62eb078)" style="fill: #fdc527; stroke: #ffffff; stroke-width: 5"/>
    <path d="M 343.976571 281.932181 
L 345.581397 282.072371 
L 346.065467 276.530974 
L 344.288399 276.728639 
L 344.366584 275.83361 
L 346.134313 275.635129 
L 347.11651 275.720929 
L 346.554255 282.157356 
L 348.159081 282.297545 
L 348.086878 283.124085 
L 343.904369 282.758721 
L 343.976571 281.932181 
z
M 350.990291 282.544866 
L 354.41942 282.844419 
L 354.347217 283.670959 
L 349.73665 283.268201 
L 349.808853 282.441662 
Q 350.418245 281.911432 351.46844 281.021322 
Q 352.520327 280.129791 352.79257 279.868115 
Q 353.310443 279.380081 353.529321 279.029047 
Q 353.749757 278.678149 353.780759 278.32325 
Q 353.831341 277.744205 353.456894 277.344478 
Q 353.082583 276.943194 352.430379 276.886221 
Q 351.968077 276.845836 351.440403 276.961292 
Q 350.914285 277.076883 350.302016 277.352772 
L 350.388768 276.359679 
Q 351.002626 276.17333 351.528457 276.096925 
Q 352.055845 276.020656 352.483903 276.058049 
Q 353.612418 276.156631 354.233941 276.780272 
Q 354.855601 277.402356 354.773201 278.345639 
Q 354.73404 278.793931 354.530849 279.180842 
Q 354.32935 279.566332 353.838136 280.072379 
Q 353.704349 280.203421 352.993268 280.820444 
Q 352.283744 281.437602 350.990291 282.544866 
z
M 358.812173 280.58531 
Q 358.111716 280.524121 357.67735 280.864174 
Q 357.244541 281.204362 357.187296 281.859679 
Q 357.129915 282.516552 357.497184 282.926632 
Q 357.86601 283.336847 358.566467 283.398036 
Q 359.266925 283.459224 359.702983 283.117751 
Q 360.140733 282.774858 360.197707 282.122654 
Q 360.254952 281.467337 359.886126 281.057122 
Q 359.518857 280.647042 358.812173 280.58531 
z
M 357.866418 280.082348 
Q 357.248047 279.871485 356.932506 279.407892 
Q 356.618657 278.942878 356.673047 278.320249 
Q 356.749057 277.450125 357.412765 276.998357 
Q 358.078029 276.546725 359.156733 276.640956 
Q 360.241664 276.73573 360.815432 277.295598 
Q 361.389199 277.855466 361.313189 278.72559 
Q 361.258799 279.348219 360.86752 279.751636 
Q 360.477934 280.153633 359.837038 280.254492 
Q 360.532422 280.481493 360.885639 280.998568 
Q 361.240549 281.514223 361.179904 282.208454 
Q 361.087577 283.265367 360.393797 283.774109 
Q 359.700154 284.281294 358.49848 284.176322 
Q 357.298363 284.071485 356.701608 283.451577 
Q 356.106546 282.830248 356.198873 281.773335 
Q 356.259517 281.079104 356.700016 280.632932 
Q 357.142207 280.185341 357.866418 280.082348 
z
M 357.642416 278.499036 
Q 357.593193 279.062515 357.917376 279.409229 
Q 358.243115 279.75608 358.879753 279.811693 
Q 359.513278 279.867035 359.897336 279.582189 
Q 360.28295 279.297479 360.332173 278.734 
Q 360.381532 278.168964 360.051123 277.821706 
Q 359.722271 277.474584 359.088746 277.419242 
Q 358.452108 277.363628 358.071163 277.648746 
Q 357.691775 277.934 357.642416 278.499036 
z
" clip-path="url(#p53d62eb078)" style="fill: #fdc527"/>
   </g>
   <g id="patch_3">
    <path d="M 53.328125 301.735725 
L 53.328125 35.623725 
" style="fill: none; stroke: #cccccc; stroke-width: 0.8; stroke-linejoin: miter; stroke-linecap: square"/>
   </g>
   <g id="patch_4">
    <path d="M 410.448125 301.735725 
L 410.448125 35.623725 
" style="fill: none; stroke: #cccccc; stroke-width: 0.8; stroke-linejoin: miter; stroke-linecap: square"/>
   </g>
   <g id="patch_5">
    <path d="M 53.328125 301.735725 
L 410.448125 301.735725 
" style="fill: none; stroke: #cccccc; stroke-width: 0.8; stroke-linejoin: miter; stroke-linecap: square"/>
   </g>
   <g id="patch_6">
    <path d="M 53.328125 35.623725 
L 410.448125 35.623725 
" style="fill: none; stroke: #cccccc; stroke-width: 0.8; stroke-linejoin: miter; stroke-linecap: square"/>
   </g>
   <g id="text_22">
    <!-- Block Size = 2M, Read-Write Type = Sequential Read-only -->
    <g style="fill: #262626; opacity: 0.75" transform="translate(87.393594 30.882918) scale(0.1 -0.1)">
     <defs>
      <path id="DejaVuSans-42" d="M 1259 2228 
L 1259 519 
L 2272 519 
Q 2781 519 3026 730 
Q 3272 941 3272 1375 
Q 3272 1813 3026 2020 
Q 2781 2228 2272 2228 
L 1259 2228 
z
M 1259 4147 
L 1259 2741 
L 2194 2741 
Q 2656 2741 2882 2914 
Q 3109 3088 3109 3444 
Q 3109 3797 2882 3972 
Q 2656 4147 2194 4147 
L 1259 4147 
z
M 628 4666 
L 2241 4666 
Q 2963 4666 3353 4366 
Q 3744 4066 3744 3513 
Q 3744 3084 3544 2831 
Q 3344 2578 2956 2516 
Q 3422 2416 3680 2098 
Q 3938 1781 3938 1306 
Q 3938 681 3513 340 
Q 3088 0 2303 0 
L 628 0 
L 628 4666 
z
" transform="scale(0.015625)"/>
      <path id="DejaVuSans-6c" d="M 603 4863 
L 1178 4863 
L 1178 0 
L 603 0 
L 603 4863 
z
" transform="scale(0.015625)"/>
      <path id="DejaVuSans-63" d="M 3122 3366 
L 3122 2828 
Q 2878 2963 2633 3030 
Q 2388 3097 2138 3097 
Q 1578 3097 1268 2742 
Q 959 2388 959 1747 
Q 959 1106 1268 751 
Q 1578 397 2138 397 
Q 2388 397 2633 464 
Q 2878 531 3122 666 
L 3122 134 
Q 2881 22 2623 -34 
Q 2366 -91 2075 -91 
Q 1284 -91 818 406 
Q 353 903 353 1747 
Q 353 2603 823 3093 
Q 1294 3584 2113 3584 
Q 2378 3584 2631 3529 
Q 2884 3475 3122 3366 
z
" transform="scale(0.015625)"/>
      <path id="DejaVuSans-6b" d="M 581 4863 
L 1159 4863 
L 1159 1991 
L 2875 3500 
L 3609 3500 
L 1753 1863 
L 3688 0 
L 2938 0 
L 1159 1709 
L 1159 0 
L 581 0 
L 581 4863 
z
" transform="scale(0.015625)"/>
      <path id="DejaVuSans-69" d="M 603 3500 
L 1178 3500 
L 1178 0 
L 603 0 
L 603 3500 
z
M 603 4863 
L 1178 4863 
L 1178 4134 
L 603 4134 
L 603 4863 
z
" transform="scale(0.015625)"/>
      <path id="DejaVuSans-7a" d="M 353 3500 
L 3084 3500 
L 3084 2975 
L 922 459 
L 3084 459 
L 3084 0 
L 275 0 
L 275 525 
L 2438 3041 
L 353 3041 
L 353 3500 
z
" transform="scale(0.015625)"/>
      <path id="DejaVuSans-3d" d="M 678 2906 
L 4684 2906 
L 4684 2381 
L 678 2381 
L 678 2906 
z
M 678 1631 
L 4684 1631 
L 4684 1100 
L 678 1100 
L 678 1631 
z
" transform="scale(0.015625)"/>
      <path id="DejaVuSans-4d" d="M 628 4666 
L 1569 4666 
L 2759 1491 
L 3956 4666 
L 4897 4666 
L 4897 0 
L 4281 0 
L 4281 4097 
L 3078 897 
L 2444 897 
L 1241 4097 
L 1241 0 
L 628 0 
L 628 4666 
z
" transform="scale(0.015625)"/>
      <path id="DejaVuSans-2c" d="M 750 794 
L 1409 794 
L 1409 256 
L 897 -744 
L 494 -744 
L 750 256 
L 750 794 
z
" transform="scale(0.015625)"/>
      <path id="DejaVuSans-52" d="M 2841 2188 
Q 3044 2119 3236 1894 
Q 3428 1669 3622 1275 
L 4263 0 
L 3584 0 
L 2988 1197 
Q 2756 1666 2539 1819 
Q 2322 1972 1947 1972 
L 1259 1972 
L 1259 0 
L 628 0 
L 628 4666 
L 2053 4666 
Q 2853 4666 3247 4331 
Q 3641 3997 3641 3322 
Q 3641 2881 3436 2590 
Q 3231 2300 2841 2188 
z
M 1259 4147 
L 1259 2491 
L 2053 2491 
Q 2509 2491 2742 2702 
Q 2975 2913 2975 3322 
Q 2975 3731 2742 3939 
Q 2509 4147 2053 4147 
L 1259 4147 
z
" transform="scale(0.015625)"/>
      <path id="DejaVuSans-61" d="M 2194 1759 
Q 1497 1759 1228 1600 
Q 959 1441 959 1056 
Q 959 750 1161 570 
Q 1363 391 1709 391 
Q 2188 391 2477 730 
Q 2766 1069 2766 1631 
L 2766 1759 
L 2194 1759 
z
M 3341 1997 
L 3341 0 
L 2766 0 
L 2766 531 
Q 2569 213 2275 61 
Q 1981 -91 1556 -91 
Q 1019 -91 701 211 
Q 384 513 384 1019 
Q 384 1609 779 1909 
Q 1175 2209 1959 2209 
L 2766 2209 
L 2766 2266 
Q 2766 2663 2505 2880 
Q 2244 3097 1772 3097 
Q 1472 3097 1187 3025 
Q 903 2953 641 2809 
L 641 3341 
Q 956 3463 1253 3523 
Q 1550 3584 1831 3584 
Q 2591 3584 2966 3190 
Q 3341 2797 3341 1997 
z
" transform="scale(0.015625)"/>
      <path id="DejaVuSans-64" d="M 2906 2969 
L 2906 4863 
L 3481 4863 
L 3481 0 
L 2906 0 
L 2906 525 
Q 2725 213 2448 61 
Q 2172 -91 1784 -91 
Q 1150 -91 751 415 
Q 353 922 353 1747 
Q 353 2572 751 3078 
Q 1150 3584 1784 3584 
Q 2172 3584 2448 3432 
Q 2725 3281 2906 2969 
z
M 947 1747 
Q 947 1113 1208 752 
Q 1469 391 1925 391 
Q 2381 391 2643 752 
Q 2906 1113 2906 1747 
Q 2906 2381 2643 2742 
Q 2381 3103 1925 3103 
Q 1469 3103 1208 2742 
Q 947 2381 947 1747 
z
" transform="scale(0.015625)"/>
      <path id="DejaVuSans-2d" d="M 313 2009 
L 1997 2009 
L 1997 1497 
L 313 1497 
L 313 2009 
z
" transform="scale(0.015625)"/>
      <path id="DejaVuSans-57" d="M 213 4666 
L 850 4666 
L 1831 722 
L 2809 4666 
L 3519 4666 
L 4500 722 
L 5478 4666 
L 6119 4666 
L 4947 0 
L 4153 0 
L 3169 4050 
L 2175 0 
L 1381 0 
L 213 4666 
z
" transform="scale(0.015625)"/>
      <path id="DejaVuSans-74" d="M 1172 4494 
L 1172 3500 
L 2356 3500 
L 2356 3053 
L 1172 3053 
L 1172 1153 
Q 1172 725 1289 603 
Q 1406 481 1766 481 
L 2356 481 
L 2356 0 
L 1766 0 
Q 1100 0 847 248 
Q 594 497 594 1153 
L 594 3053 
L 172 3053 
L 172 3500 
L 594 3500 
L 594 4494 
L 1172 4494 
z
" transform="scale(0.015625)"/>
      <path id="DejaVuSans-54" d="M -19 4666 
L 3928 4666 
L 3928 4134 
L 2272 4134 
L 2272 0 
L 1638 0 
L 1638 4134 
L -19 4134 
L -19 4666 
z
" transform="scale(0.015625)"/>
      <path id="DejaVuSans-79" d="M 2059 -325 
Q 1816 -950 1584 -1140 
Q 1353 -1331 966 -1331 
L 506 -1331 
L 506 -850 
L 844 -850 
Q 1081 -850 1212 -737 
Q 1344 -625 1503 -206 
L 1606 56 
L 191 3500 
L 800 3500 
L 1894 763 
L 2988 3500 
L 3597 3500 
L 2059 -325 
z
" transform="scale(0.015625)"/>
      <path id="DejaVuSans-70" d="M 1159 525 
L 1159 -1331 
L 581 -1331 
L 581 3500 
L 1159 3500 
L 1159 2969 
Q 1341 3281 1617 3432 
Q 1894 3584 2278 3584 
Q 2916 3584 3314 3078 
Q 3713 2572 3713 1747 
Q 3713 922 3314 415 
Q 2916 -91 2278 -91 
Q 1894 -91 1617 61 
Q 1341 213 1159 525 
z
M 3116 1747 
Q 3116 2381 2855 2742 
Q 2594 3103 2138 3103 
Q 1681 3103 1420 2742 
Q 1159 2381 1159 1747 
Q 1159 1113 1420 752 
Q 1681 391 2138 391 
Q 2594 391 2855 752 
Q 3116 1113 3116 1747 
z
" transform="scale(0.015625)"/>
      <path id="DejaVuSans-71" d="M 947 1747 
Q 947 1113 1208 752 
Q 1469 391 1925 391 
Q 2381 391 2643 752 
Q 2906 1113 2906 1747 
Q 2906 2381 2643 2742 
Q 2381 3103 1925 3103 
Q 1469 3103 1208 2742 
Q 947 2381 947 1747 
z
M 2906 525 
Q 2725 213 2448 61 
Q 2172 -91 1784 -91 
Q 1150 -91 751 415 
Q 353 922 353 1747 
Q 353 2572 751 3078 
Q 1150 3584 1784 3584 
Q 2172 3584 2448 3432 
Q 2725 3281 2906 2969 
L 2906 3500 
L 3481 3500 
L 3481 -1331 
L 2906 -1331 
L 2906 525 
z
" transform="scale(0.015625)"/>
      <path id="DejaVuSans-6e" d="M 3513 2113 
L 3513 0 
L 2938 0 
L 2938 2094 
Q 2938 2591 2744 2837 
Q 2550 3084 2163 3084 
Q 1697 3084 1428 2787 
Q 1159 2491 1159 1978 
L 1159 0 
L 581 0 
L 581 3500 
L 1159 3500 
L 1159 2956 
Q 1366 3272 1645 3428 
Q 1925 3584 2291 3584 
Q 2894 3584 3203 3211 
Q 3513 2838 3513 2113 
z
" transform="scale(0.015625)"/>
     </defs>
     <use xlink:href="#DejaVuSans-42"/>
     <use xlink:href="#DejaVuSans-6c" transform="translate(68.603516 0)"/>
     <use xlink:href="#DejaVuSans-6f" transform="translate(96.386719 0)"/>
     <use xlink:href="#DejaVuSans-63" transform="translate(157.568359 0)"/>
     <use xlink:href="#DejaVuSans-6b" transform="translate(212.548828 0)"/>
     <use xlink:href="#DejaVuSans-20" transform="translate(270.458984 0)"/>
     <use xlink:href="#DejaVuSans-53" transform="translate(302.246094 0)"/>
     <use xlink:href="#DejaVuSans-69" transform="translate(365.722656 0)"/>
     <use xlink:href="#DejaVuSans-7a" transform="translate(393.505859 0)"/>
     <use xlink:href="#DejaVuSans-65" transform="translate(445.996094 0)"/>
     <use xlink:href="#DejaVuSans-20" transform="translate(507.519531 0)"/>
     <use xlink:href="#DejaVuSans-3d" transform="translate(539.306641 0)"/>
     <use xlink:href="#DejaVuSans-20" transform="translate(623.095703 0)"/>
     <use xlink:href="#DejaVuSans-32" transform="translate(654.882812 0)"/>
     <use xlink:href="#DejaVuSans-4d" transform="translate(718.505859 0)"/>
     <use xlink:href="#DejaVuSans-2c" transform="translate(804.785156 0)"/>
     <use xlink:href="#DejaVuSans-20" transform="translate(836.572266 0)"/>
     <use xlink:href="#DejaVuSans-52" transform="translate(868.359375 0)"/>
     <use xlink:href="#DejaVuSans-65" transform="translate(933.341797 0)"/>
     <use xlink:href="#DejaVuSans-61" transform="translate(994.865234 0)"/>
     <use xlink:href="#DejaVuSans-64" transform="translate(1056.144531 0)"/>
     <use xlink:href="#DejaVuSans-2d" transform="translate(1119.621094 0)"/>
     <use xlink:href="#DejaVuSans-57" transform="translate(1151.705078 0)"/>
     <use xlink:href="#DejaVuSans-72" transform="translate(1246.082031 0)"/>
     <use xlink:href="#DejaVuSans-69" transform="translate(1287.195312 0)"/>
     <use xlink:href="#DejaVuSans-74" transform="translate(1314.978516 0)"/>
     <use xlink:href="#DejaVuSans-65" transform="translate(1354.1875 0)"/>
     <use xlink:href="#DejaVuSans-20" transform="translate(1415.710938 0)"/>
     <use xlink:href="#DejaVuSans-54" transform="translate(1447.498047 0)"/>
     <use xlink:href="#DejaVuSans-79" transform="translate(1492.957031 0)"/>
     <use xlink:href="#DejaVuSans-70" transform="translate(1552.136719 0)"/>
     <use xlink:href="#DejaVuSans-65" transform="translate(1615.613281 0)"/>
     <use xlink:href="#DejaVuSans-20" transform="translate(1677.136719 0)"/>
     <use xlink:href="#DejaVuSans-3d" transform="translate(1708.923828 0)"/>
     <use xlink:href="#DejaVuSans-20" transform="translate(1792.712891 0)"/>
     <use xlink:href="#DejaVuSans-53" transform="translate(1824.5 0)"/>
     <use xlink:href="#DejaVuSans-65" transform="translate(1887.976562 0)"/>
     <use xlink:href="#DejaVuSans-71" transform="translate(1949.5 0)"/>
     <use xlink:href="#DejaVuSans-75" transform="translate(2012.976562 0)"/>
     <use xlink:href="#DejaVuSans-65" transform="translate(2076.355469 0)"/>
     <use xlink:href="#DejaVuSans-6e" transform="translate(2137.878906 0)"/>
     <use xlink:href="#DejaVuSans-74" transform="translate(2201.257812 0)"/>
     <use xlink:href="#DejaVuSans-69" transform="translate(2240.466797 0)"/>
     <use xlink:href="#DejaVuSans-61" transform="translate(2268.25 0)"/>
     <use xlink:href="#DejaVuSans-6c" transform="translate(2329.529297 0)"/>
     <use xlink:href="#DejaVuSans-20" transform="translate(2357.3125 0)"/>
     <use xlink:href="#DejaVuSans-52" transform="translate(2389.099609 0)"/>
     <use xlink:href="#DejaVuSans-65" transform="translate(2454.082031 0)"/>
     <use xlink:href="#DejaVuSans-61" transform="translate(2515.605469 0)"/>
     <use xlink:href="#DejaVuSans-64" transform="translate(2576.884766 0)"/>
     <use xlink:href="#DejaVuSans-2d" transform="translate(2640.361328 0)"/>
     <use xlink:href="#DejaVuSans-6f" transform="translate(2678.320312 0)"/>
     <use xlink:href="#DejaVuSans-6e" transform="translate(2739.501953 0)"/>
     <use xlink:href="#DejaVuSans-6c" transform="translate(2802.880859 0)"/>
     <use xlink:href="#DejaVuSans-79" transform="translate(2830.664062 0)"/>
    </g>
   </g>
   <g id="text_23">
    <!-- IOPS vs Number of Jobs -->
    <g style="fill: #262626" transform="translate(152.179062 16.318125) scale(0.12 -0.12)">
     <defs>
      <path id="DejaVuSans-Bold-49" d="M 588 4666 
L 1791 4666 
L 1791 0 
L 588 0 
L 588 4666 
z
" transform="scale(0.015625)"/>
      <path id="DejaVuSans-Bold-4f" d="M 2719 3878 
Q 2169 3878 1866 3472 
Q 1563 3066 1563 2328 
Q 1563 1594 1866 1187 
Q 2169 781 2719 781 
Q 3272 781 3575 1187 
Q 3878 1594 3878 2328 
Q 3878 3066 3575 3472 
Q 3272 3878 2719 3878 
z
M 2719 4750 
Q 3844 4750 4481 4106 
Q 5119 3463 5119 2328 
Q 5119 1197 4481 553 
Q 3844 -91 2719 -91 
Q 1597 -91 958 553 
Q 319 1197 319 2328 
Q 319 3463 958 4106 
Q 1597 4750 2719 4750 
z
" transform="scale(0.015625)"/>
      <path id="DejaVuSans-Bold-50" d="M 588 4666 
L 2584 4666 
Q 3475 4666 3951 4270 
Q 4428 3875 4428 3144 
Q 4428 2409 3951 2014 
Q 3475 1619 2584 1619 
L 1791 1619 
L 1791 0 
L 588 0 
L 588 4666 
z
M 1791 3794 
L 1791 2491 
L 2456 2491 
Q 2806 2491 2997 2661 
Q 3188 2831 3188 3144 
Q 3188 3456 2997 3625 
Q 2806 3794 2456 3794 
L 1791 3794 
z
" transform="scale(0.015625)"/>
      <path id="DejaVuSans-Bold-53" d="M 3834 4519 
L 3834 3531 
Q 3450 3703 3084 3790 
Q 2719 3878 2394 3878 
Q 1963 3878 1756 3759 
Q 1550 3641 1550 3391 
Q 1550 3203 1689 3098 
Q 1828 2994 2194 2919 
L 2706 2816 
Q 3484 2659 3812 2340 
Q 4141 2022 4141 1434 
Q 4141 663 3683 286 
Q 3225 -91 2284 -91 
Q 1841 -91 1394 -6 
Q 947 78 500 244 
L 500 1259 
Q 947 1022 1364 901 
Q 1781 781 2169 781 
Q 2563 781 2772 912 
Q 2981 1044 2981 1288 
Q 2981 1506 2839 1625 
Q 2697 1744 2272 1838 
L 1806 1941 
Q 1106 2091 782 2419 
Q 459 2747 459 3303 
Q 459 4000 909 4375 
Q 1359 4750 2203 4750 
Q 2588 4750 2994 4692 
Q 3400 4634 3834 4519 
z
" transform="scale(0.015625)"/>
      <path id="DejaVuSans-Bold-20" transform="scale(0.015625)"/>
      <path id="DejaVuSans-Bold-76" d="M 97 3500 
L 1216 3500 
L 2088 1081 
L 2956 3500 
L 4078 3500 
L 2700 0 
L 1472 0 
L 97 3500 
z
" transform="scale(0.015625)"/>
      <path id="DejaVuSans-Bold-73" d="M 3272 3391 
L 3272 2541 
Q 2913 2691 2578 2766 
Q 2244 2841 1947 2841 
Q 1628 2841 1473 2761 
Q 1319 2681 1319 2516 
Q 1319 2381 1436 2309 
Q 1553 2238 1856 2203 
L 2053 2175 
Q 2913 2066 3209 1816 
Q 3506 1566 3506 1031 
Q 3506 472 3093 190 
Q 2681 -91 1863 -91 
Q 1516 -91 1145 -36 
Q 775 19 384 128 
L 384 978 
Q 719 816 1070 734 
Q 1422 653 1784 653 
Q 2113 653 2278 743 
Q 2444 834 2444 1013 
Q 2444 1163 2330 1236 
Q 2216 1309 1875 1350 
L 1678 1375 
Q 931 1469 631 1722 
Q 331 1975 331 2491 
Q 331 3047 712 3315 
Q 1094 3584 1881 3584 
Q 2191 3584 2531 3537 
Q 2872 3491 3272 3391 
z
" transform="scale(0.015625)"/>
      <path id="DejaVuSans-Bold-4e" d="M 588 4666 
L 1931 4666 
L 3628 1466 
L 3628 4666 
L 4769 4666 
L 4769 0 
L 3425 0 
L 1728 3200 
L 1728 0 
L 588 0 
L 588 4666 
z
" transform="scale(0.015625)"/>
      <path id="DejaVuSans-Bold-75" d="M 500 1363 
L 500 3500 
L 1625 3500 
L 1625 3150 
Q 1625 2866 1622 2436 
Q 1619 2006 1619 1863 
Q 1619 1441 1641 1255 
Q 1663 1069 1716 984 
Q 1784 875 1895 815 
Q 2006 756 2150 756 
Q 2500 756 2700 1025 
Q 2900 1294 2900 1772 
L 2900 3500 
L 4019 3500 
L 4019 0 
L 2900 0 
L 2900 506 
Q 2647 200 2364 54 
Q 2081 -91 1741 -91 
Q 1134 -91 817 281 
Q 500 653 500 1363 
z
" transform="scale(0.015625)"/>
      <path id="DejaVuSans-Bold-6d" d="M 3781 2919 
Q 3994 3244 4286 3414 
Q 4578 3584 4928 3584 
Q 5531 3584 5847 3212 
Q 6163 2841 6163 2131 
L 6163 0 
L 5038 0 
L 5038 1825 
Q 5041 1866 5042 1909 
Q 5044 1953 5044 2034 
Q 5044 2406 4934 2573 
Q 4825 2741 4581 2741 
Q 4263 2741 4089 2478 
Q 3916 2216 3909 1719 
L 3909 0 
L 2784 0 
L 2784 1825 
Q 2784 2406 2684 2573 
Q 2584 2741 2328 2741 
Q 2006 2741 1831 2477 
Q 1656 2213 1656 1722 
L 1656 0 
L 531 0 
L 531 3500 
L 1656 3500 
L 1656 2988 
Q 1863 3284 2130 3434 
Q 2397 3584 2719 3584 
Q 3081 3584 3359 3409 
Q 3638 3234 3781 2919 
z
" transform="scale(0.015625)"/>
      <path id="DejaVuSans-Bold-62" d="M 2400 722 
Q 2759 722 2948 984 
Q 3138 1247 3138 1747 
Q 3138 2247 2948 2509 
Q 2759 2772 2400 2772 
Q 2041 2772 1848 2508 
Q 1656 2244 1656 1747 
Q 1656 1250 1848 986 
Q 2041 722 2400 722 
z
M 1656 2988 
Q 1888 3294 2169 3439 
Q 2450 3584 2816 3584 
Q 3463 3584 3878 3070 
Q 4294 2556 4294 1747 
Q 4294 938 3878 423 
Q 3463 -91 2816 -91 
Q 2450 -91 2169 54 
Q 1888 200 1656 506 
L 1656 0 
L 538 0 
L 538 4863 
L 1656 4863 
L 1656 2988 
z
" transform="scale(0.015625)"/>
      <path id="DejaVuSans-Bold-65" d="M 4031 1759 
L 4031 1441 
L 1416 1441 
Q 1456 1047 1700 850 
Q 1944 653 2381 653 
Q 2734 653 3104 758 
Q 3475 863 3866 1075 
L 3866 213 
Q 3469 63 3072 -14 
Q 2675 -91 2278 -91 
Q 1328 -91 801 392 
Q 275 875 275 1747 
Q 275 2603 792 3093 
Q 1309 3584 2216 3584 
Q 3041 3584 3536 3087 
Q 4031 2591 4031 1759 
z
M 2881 2131 
Q 2881 2450 2695 2645 
Q 2509 2841 2209 2841 
Q 1884 2841 1681 2658 
Q 1478 2475 1428 2131 
L 2881 2131 
z
" transform="scale(0.015625)"/>
      <path id="DejaVuSans-Bold-72" d="M 3138 2547 
Q 2991 2616 2845 2648 
Q 2700 2681 2553 2681 
Q 2122 2681 1889 2404 
Q 1656 2128 1656 1613 
L 1656 0 
L 538 0 
L 538 3500 
L 1656 3500 
L 1656 2925 
Q 1872 3269 2151 3426 
Q 2431 3584 2822 3584 
Q 2878 3584 2943 3579 
Q 3009 3575 3134 3559 
L 3138 2547 
z
" transform="scale(0.015625)"/>
      <path id="DejaVuSans-Bold-6f" d="M 2203 2784 
Q 1831 2784 1636 2517 
Q 1441 2250 1441 1747 
Q 1441 1244 1636 976 
Q 1831 709 2203 709 
Q 2569 709 2762 976 
Q 2956 1244 2956 1747 
Q 2956 2250 2762 2517 
Q 2569 2784 2203 2784 
z
M 2203 3584 
Q 3106 3584 3614 3096 
Q 4122 2609 4122 1747 
Q 4122 884 3614 396 
Q 3106 -91 2203 -91 
Q 1297 -91 786 396 
Q 275 884 275 1747 
Q 275 2609 786 3096 
Q 1297 3584 2203 3584 
z
" transform="scale(0.015625)"/>
      <path id="DejaVuSans-Bold-66" d="M 2841 4863 
L 2841 4128 
L 2222 4128 
Q 1984 4128 1890 4042 
Q 1797 3956 1797 3744 
L 1797 3500 
L 2753 3500 
L 2753 2700 
L 1797 2700 
L 1797 0 
L 678 0 
L 678 2700 
L 122 2700 
L 122 3500 
L 678 3500 
L 678 3744 
Q 678 4316 997 4589 
Q 1316 4863 1984 4863 
L 2841 4863 
z
" transform="scale(0.015625)"/>
      <path id="DejaVuSans-Bold-4a" d="M 588 4666 
L 1791 4666 
L 1791 453 
Q 1791 -419 1317 -850 
Q 844 -1281 -116 -1281 
L -359 -1281 
L -359 -372 
L -172 -372 
Q 203 -372 395 -162 
Q 588 47 588 453 
L 588 4666 
z
" transform="scale(0.015625)"/>
     </defs>
     <use xlink:href="#DejaVuSans-Bold-49"/>
     <use xlink:href="#DejaVuSans-Bold-4f" transform="translate(37.207031 0)"/>
     <use xlink:href="#DejaVuSans-Bold-50" transform="translate(122.216797 0)"/>
     <use xlink:href="#DejaVuSans-Bold-53" transform="translate(195.507812 0)"/>
     <use xlink:href="#DejaVuSans-Bold-20" transform="translate(267.529297 0)"/>
     <use xlink:href="#DejaVuSans-Bold-76" transform="translate(302.34375 0)"/>
     <use xlink:href="#DejaVuSans-Bold-73" transform="translate(367.529297 0)"/>
     <use xlink:href="#DejaVuSans-Bold-20" transform="translate(427.050781 0)"/>
     <use xlink:href="#DejaVuSans-Bold-4e" transform="translate(461.865234 0)"/>
     <use xlink:href="#DejaVuSans-Bold-75" transform="translate(545.556641 0)"/>
     <use xlink:href="#DejaVuSans-Bold-6d" transform="translate(616.748047 0)"/>
     <use xlink:href="#DejaVuSans-Bold-62" transform="translate(720.947266 0)"/>
     <use xlink:href="#DejaVuSans-Bold-65" transform="translate(792.529297 0)"/>
     <use xlink:href="#DejaVuSans-Bold-72" transform="translate(860.351562 0)"/>
     <use xlink:href="#DejaVuSans-Bold-20" transform="translate(909.667969 0)"/>
     <use xlink:href="#DejaVuSans-Bold-6f" transform="translate(944.482422 0)"/>
     <use xlink:href="#DejaVuSans-Bold-66" transform="translate(1013.183594 0)"/>
     <use xlink:href="#DejaVuSans-Bold-20" transform="translate(1056.689453 0)"/>
     <use xlink:href="#DejaVuSans-Bold-4a" transform="translate(1091.503906 0)"/>
     <use xlink:href="#DejaVuSans-Bold-6f" transform="translate(1128.710938 0)"/>
     <use xlink:href="#DejaVuSans-Bold-62" transform="translate(1197.412109 0)"/>
     <use xlink:href="#DejaVuSans-Bold-73" transform="translate(1268.994141 0)"/>
    </g>
   </g>
   <g id="legend_1">
    <g id="text_24">
     <!-- IO Depth -->
     <g style="fill: #262626" transform="translate(444.954687 120.065663) scale(0.1 -0.1)">
      <defs>
       <path id="DejaVuSans-44" d="M 1259 4147 
L 1259 519 
L 2022 519 
Q 2988 519 3436 956 
Q 3884 1394 3884 2338 
Q 3884 3275 3436 3711 
Q 2988 4147 2022 4147 
L 1259 4147 
z
M 628 4666 
L 1925 4666 
Q 3281 4666 3915 4102 
Q 4550 3538 4550 2338 
Q 4550 1131 3912 565 
Q 3275 0 1925 0 
L 628 0 
L 628 4666 
z
" transform="scale(0.015625)"/>
       <path id="DejaVuSans-68" d="M 3513 2113 
L 3513 0 
L 2938 0 
L 2938 2094 
Q 2938 2591 2744 2837 
Q 2550 3084 2163 3084 
Q 1697 3084 1428 2787 
Q 1159 2491 1159 1978 
L 1159 0 
L 581 0 
L 581 4863 
L 1159 4863 
L 1159 2956 
Q 1366 3272 1645 3428 
Q 1925 3584 2291 3584 
Q 2894 3584 3203 3211 
Q 3513 2838 3513 2113 
z
" transform="scale(0.015625)"/>
      </defs>
      <use xlink:href="#DejaVuSans-49"/>
      <use xlink:href="#DejaVuSans-4f" transform="translate(29.492188 0)"/>
      <use xlink:href="#DejaVuSans-20" transform="translate(108.203125 0)"/>
      <use xlink:href="#DejaVuSans-44" transform="translate(139.990234 0)"/>
      <use xlink:href="#DejaVuSans-65" transform="translate(216.992188 0)"/>
      <use xlink:href="#DejaVuSans-70" transform="translate(278.515625 0)"/>
      <use xlink:href="#DejaVuSans-74" transform="translate(341.992188 0)"/>
      <use xlink:href="#DejaVuSans-68" transform="translate(381.201172 0)"/>
     </g>
    </g>
    <g id="line2d_27">
     <path d="M 443.640625 131.243787 
L 453.640625 131.243787 
L 463.640625 131.243787 
" style="fill: none; stroke: #4c02a1; stroke-width: 1.5; stroke-linecap: round"/>
    </g>
    <g id="text_25">
     <!-- 1 -->
     <g style="fill: #262626" transform="translate(471.640625 134.743787) scale(0.1 -0.1)">
      <use xlink:href="#DejaVuSans-31"/>
     </g>
    </g>
    <g id="line2d_28">
     <path d="M 443.640625 145.921913 
L 453.640625 145.921913 
L 463.640625 145.921913 
" style="fill: none; stroke: #7e03a8; stroke-width: 1.5; stroke-linecap: round"/>
    </g>
    <g id="text_26">
     <!-- 4 -->
     <g style="fill: #262626" transform="translate(471.640625 149.421913) scale(0.1 -0.1)">
      <use xlink:href="#DejaVuSans-34"/>
     </g>
    </g>
    <g id="line2d_29">
     <path d="M 443.640625 160.600037 
L 453.640625 160.600037 
L 463.640625 160.600037 
" style="fill: none; stroke: #aa2395; stroke-width: 1.5; stroke-linecap: round"/>
    </g>
    <g id="text_27">
     <!-- 8 -->
     <g style="fill: #262626" transform="translate(471.640625 164.100037) scale(0.1 -0.1)">
      <use xlink:href="#DejaVuSans-38"/>
     </g>
    </g>
    <g id="line2d_30">
     <path d="M 443.640625 175.278163 
L 453.640625 175.278163 
L 463.640625 175.278163 
" style="fill: none; stroke: #cc4778; stroke-width: 1.5; stroke-linecap: round"/>
    </g>
    <g id="text_28">
     <!-- 16 -->
     <g style="fill: #262626" transform="translate(471.640625 178.778163) scale(0.1 -0.1)">
      <use xlink:href="#DejaVuSans-31"/>
      <use xlink:href="#DejaVuSans-36" transform="translate(63.623047 0)"/>
     </g>
    </g>
    <g id="line2d_31">
     <path d="M 443.640625 189.956288 
L 453.640625 189.956288 
L 463.640625 189.956288 
" style="fill: none; stroke: #e66c5c; stroke-width: 1.5; stroke-linecap: round"/>
    </g>
    <g id="text_29">
     <!-- 32 -->
     <g style="fill: #262626" transform="translate(471.640625 193.456288) scale(0.1 -0.1)">
      <use xlink:href="#DejaVuSans-33"/>
      <use xlink:href="#DejaVuSans-32" transform="translate(63.623047 0)"/>
     </g>
    </g>
    <g id="line2d_32">
     <path d="M 443.640625 204.634412 
L 453.640625 204.634412 
L 463.640625 204.634412 
" style="fill: none; stroke: #f89540; stroke-width: 1.5; stroke-linecap: round"/>
    </g>
    <g id="text_30">
     <!-- 64 -->
     <g style="fill: #262626" transform="translate(471.640625 208.134412) scale(0.1 -0.1)">
      <use xlink:href="#DejaVuSans-36"/>
      <use xlink:href="#DejaVuSans-34" transform="translate(63.623047 0)"/>
     </g>
    </g>
    <g id="line2d_33">
     <path d="M 443.640625 219.312537 
L 453.640625 219.312537 
L 463.640625 219.312537 
" style="fill: none; stroke: #fdc527; stroke-width: 1.5; stroke-linecap: round"/>
    </g>
    <g id="text_31">
     <!-- 128 -->
     <g style="fill: #262626" transform="translate(471.640625 222.812537) scale(0.1 -0.1)">
      <use xlink:href="#DejaVuSans-31"/>
      <use xlink:href="#DejaVuSans-32" transform="translate(63.623047 0)"/>
      <use xlink:href="#DejaVuSans-38" transform="translate(127.246094 0)"/>
     </g>
    </g>
   </g>
  </g>
 </g>
 <defs>
  <clipPath id="p53d62eb078">
   <rect x="53.328125" y="35.623725" width="357.12" height="266.112"/>
  </clipPath>
 </defs>
</svg>
