<?xml version="1.0" encoding="utf-8" standalone="no"?>
<!DOCTYPE svg PUBLIC "-//W3C//DTD SVG 1.1//EN"
  "http://www.w3.org/Graphics/SVG/1.1/DTD/svg11.dtd">
<svg xmlns:xlink="http://www.w3.org/1999/xlink" width="501.928125pt" height="339.291975pt" viewBox="0 0 501.928125 339.291975" xmlns="http://www.w3.org/2000/svg" version="1.1">
 <metadata>
  <rdf:RDF xmlns:dc="http://purl.org/dc/elements/1.1/" xmlns:cc="http://creativecommons.org/ns#" xmlns:rdf="http://www.w3.org/1999/02/22-rdf-syntax-ns#">
   <cc:Work>
    <dc:type rdf:resource="http://purl.org/dc/dcmitype/StillImage"/>
    <dc:date>2025-09-11T11:44:31.535453</dc:date>
    <dc:format>image/svg+xml</dc:format>
    <dc:creator>
     <cc:Agent>
      <dc:title>Matplotlib v3.10.6, https://matplotlib.org/</dc:title>
     </cc:Agent>
    </dc:creator>
   </cc:Work>
  </rdf:RDF>
 </metadata>
 <defs>
  <style type="text/css">*{stroke-linejoin: round; stroke-linecap: butt}</style>
 </defs>
 <g id="figure_1">
  <g id="patch_1">
   <path d="M 0 339.291975 
L 501.928125 339.291975 
L 501.928125 0 
L 0 0 
z
" style="fill: #ffffff"/>
  </g>
  <g id="axes_1">
   <g id="patch_2">
    <path d="M 53.328125 301.735725 
L 410.448125 301.735725 
L 410.448125 35.623725 
L 53.328125 35.623725 
z
" style="fill: #ffffff"/>
   </g>
   <g id="matplotlib.axis_1">
    <g id="xtick_1">
     <g id="line2d_1">
      <path d="M 148.807237 301.735725 
L 148.807237 35.623725 
" clip-path="url(#pfa620667be)" style="fill: none; stroke: #cccccc; stroke-width: 0.8; stroke-linecap: round"/>
     </g>
     <g id="text_1">
      <!-- 32 -->
      <g style="fill: #262626" transform="translate(142.444737 316.334162) scale(0.1 -0.1)">
       <defs>
        <path id="DejaVuSans-33" d="M 2597 2516 
Q 3050 2419 3304 2112 
Q 3559 1806 3559 1356 
Q 3559 666 3084 287 
Q 2609 -91 1734 -91 
Q 1441 -91 1130 -33 
Q 819 25 488 141 
L 488 750 
Q 750 597 1062 519 
Q 1375 441 1716 441 
Q 2309 441 2620 675 
Q 2931 909 2931 1356 
Q 2931 1769 2642 2001 
Q 2353 2234 1838 2234 
L 1294 2234 
L 1294 2753 
L 1863 2753 
Q 2328 2753 2575 2939 
Q 2822 3125 2822 3475 
Q 2822 3834 2567 4026 
Q 2313 4219 1838 4219 
Q 1578 4219 1281 4162 
Q 984 4106 628 3988 
L 628 4550 
Q 988 4650 1302 4700 
Q 1616 4750 1894 4750 
Q 2613 4750 3031 4423 
Q 3450 4097 3450 3541 
Q 3450 3153 3228 2886 
Q 3006 2619 2597 2516 
z
" transform="scale(0.015625)"/>
        <path id="DejaVuSans-32" d="M 1228 531 
L 3431 531 
L 3431 0 
L 469 0 
L 469 531 
Q 828 903 1448 1529 
Q 2069 2156 2228 2338 
Q 2531 2678 2651 2914 
Q 2772 3150 2772 3378 
Q 2772 3750 2511 3984 
Q 2250 4219 1831 4219 
Q 1534 4219 1204 4116 
Q 875 4013 500 3803 
L 500 4441 
Q 881 4594 1212 4672 
Q 1544 4750 1819 4750 
Q 2544 4750 2975 4387 
Q 3406 4025 3406 3419 
Q 3406 3131 3298 2873 
Q 3191 2616 2906 2266 
Q 2828 2175 2409 1742 
Q 1991 1309 1228 531 
z
" transform="scale(0.015625)"/>
       </defs>
       <use xlink:href="#DejaVuSans-33"/>
       <use xlink:href="#DejaVuSans-32" transform="translate(63.623047 0)"/>
      </g>
     </g>
    </g>
    <g id="xtick_2">
     <g id="line2d_2">
      <path d="M 87.455197 301.735725 
L 87.455197 35.623725 
" clip-path="url(#pfa620667be)" style="fill: none; stroke: #cccccc; stroke-width: 0.8; stroke-linecap: round"/>
     </g>
     <g id="text_2">
      <!-- 8 -->
      <g style="fill: #262626" transform="translate(84.273947 316.334162) scale(0.1 -0.1)">
       <defs>
        <path id="DejaVuSans-38" d="M 2034 2216 
Q 1584 2216 1326 1975 
Q 1069 1734 1069 1313 
Q 1069 891 1326 650 
Q 1584 409 2034 409 
Q 2484 409 2743 651 
Q 3003 894 3003 1313 
Q 3003 1734 2745 1975 
Q 2488 2216 2034 2216 
z
M 1403 2484 
Q 997 2584 770 2862 
Q 544 3141 544 3541 
Q 544 4100 942 4425 
Q 1341 4750 2034 4750 
Q 2731 4750 3128 4425 
Q 3525 4100 3525 3541 
Q 3525 3141 3298 2862 
Q 3072 2584 2669 2484 
Q 3125 2378 3379 2068 
Q 3634 1759 3634 1313 
Q 3634 634 3220 271 
Q 2806 -91 2034 -91 
Q 1263 -91 848 271 
Q 434 634 434 1313 
Q 434 1759 690 2068 
Q 947 2378 1403 2484 
z
M 1172 3481 
Q 1172 3119 1398 2916 
Q 1625 2713 2034 2713 
Q 2441 2713 2670 2916 
Q 2900 3119 2900 3481 
Q 2900 3844 2670 4047 
Q 2441 4250 2034 4250 
Q 1625 4250 1398 4047 
Q 1172 3844 1172 3481 
z
" transform="scale(0.015625)"/>
       </defs>
       <use xlink:href="#DejaVuSans-38"/>
      </g>
     </g>
    </g>
    <g id="xtick_3">
     <g id="line2d_3">
      <path d="M 230.609957 301.735725 
L 230.609957 35.623725 
" clip-path="url(#pfa620667be)" style="fill: none; stroke: #cccccc; stroke-width: 0.8; stroke-linecap: round"/>
     </g>
     <g id="text_3">
      <!-- 64 -->
      <g style="fill: #262626" transform="translate(224.247457 316.334162) scale(0.1 -0.1)">
       <defs>
        <path id="DejaVuSans-36" d="M 2113 2584 
Q 1688 2584 1439 2293 
Q 1191 2003 1191 1497 
Q 1191 994 1439 701 
Q 1688 409 2113 409 
Q 2538 409 2786 701 
Q 3034 994 3034 1497 
Q 3034 2003 2786 2293 
Q 2538 2584 2113 2584 
z
M 3366 4563 
L 3366 3988 
Q 3128 4100 2886 4159 
Q 2644 4219 2406 4219 
Q 1781 4219 1451 3797 
Q 1122 3375 1075 2522 
Q 1259 2794 1537 2939 
Q 1816 3084 2150 3084 
Q 2853 3084 3261 2657 
Q 3669 2231 3669 1497 
Q 3669 778 3244 343 
Q 2819 -91 2113 -91 
Q 1303 -91 875 529 
Q 447 1150 447 2328 
Q 447 3434 972 4092 
Q 1497 4750 2381 4750 
Q 2619 4750 2861 4703 
Q 3103 4656 3366 4563 
z
" transform="scale(0.015625)"/>
        <path id="DejaVuSans-34" d="M 2419 4116 
L 825 1625 
L 2419 1625 
L 2419 4116 
z
M 2253 4666 
L 3047 4666 
L 3047 1625 
L 3713 1625 
L 3713 1100 
L 3047 1100 
L 3047 0 
L 2419 0 
L 2419 1100 
L 313 1100 
L 313 1709 
L 2253 4666 
z
" transform="scale(0.015625)"/>
       </defs>
       <use xlink:href="#DejaVuSans-36"/>
       <use xlink:href="#DejaVuSans-34" transform="translate(63.623047 0)"/>
      </g>
     </g>
    </g>
    <g id="xtick_4">
     <g id="line2d_4">
      <path d="M 77.229857 301.735725 
L 77.229857 35.623725 
" clip-path="url(#pfa620667be)" style="fill: none; stroke: #cccccc; stroke-width: 0.8; stroke-linecap: round"/>
     </g>
     <g id="text_4">
      <!-- 4 -->
      <g style="fill: #262626" transform="translate(74.048607 316.334162) scale(0.1 -0.1)">
       <use xlink:href="#DejaVuSans-34"/>
      </g>
     </g>
    </g>
    <g id="xtick_5">
     <g id="line2d_5">
      <path d="M 394.215398 301.735725 
L 394.215398 35.623725 
" clip-path="url(#pfa620667be)" style="fill: none; stroke: #cccccc; stroke-width: 0.8; stroke-linecap: round"/>
     </g>
     <g id="text_5">
      <!-- 128 -->
      <g style="fill: #262626" transform="translate(384.671648 316.334162) scale(0.1 -0.1)">
       <defs>
        <path id="DejaVuSans-31" d="M 794 531 
L 1825 531 
L 1825 4091 
L 703 3866 
L 703 4441 
L 1819 4666 
L 2450 4666 
L 2450 531 
L 3481 531 
L 3481 0 
L 794 0 
L 794 531 
z
" transform="scale(0.015625)"/>
       </defs>
       <use xlink:href="#DejaVuSans-31"/>
       <use xlink:href="#DejaVuSans-32" transform="translate(63.623047 0)"/>
       <use xlink:href="#DejaVuSans-38" transform="translate(127.246094 0)"/>
      </g>
     </g>
    </g>
    <g id="xtick_6">
     <g id="line2d_6">
      <path d="M 69.560852 301.735725 
L 69.560852 35.623725 
" clip-path="url(#pfa620667be)" style="fill: none; stroke: #cccccc; stroke-width: 0.8; stroke-linecap: round"/>
     </g>
     <g id="text_6">
      <!-- 1 -->
      <g style="fill: #262626" transform="translate(66.379602 316.334162) scale(0.1 -0.1)">
       <use xlink:href="#DejaVuSans-31"/>
      </g>
     </g>
    </g>
    <g id="xtick_7">
     <g id="line2d_7">
      <path d="M 107.905877 301.735725 
L 107.905877 35.623725 
" clip-path="url(#pfa620667be)" style="fill: none; stroke: #cccccc; stroke-width: 0.8; stroke-linecap: round"/>
     </g>
     <g id="text_7">
      <!-- 16 -->
      <g style="fill: #262626" transform="translate(101.543377 316.334162) scale(0.1 -0.1)">
       <use xlink:href="#DejaVuSans-31"/>
       <use xlink:href="#DejaVuSans-36" transform="translate(63.623047 0)"/>
      </g>
     </g>
    </g>
    <g id="text_8">
     <!-- IO Depth -->
     <g style="fill: #262626" transform="translate(209.658437 330.012287) scale(0.1 -0.1)">
      <defs>
       <path id="DejaVuSans-49" d="M 628 4666 
L 1259 4666 
L 1259 0 
L 628 0 
L 628 4666 
z
" transform="scale(0.015625)"/>
       <path id="DejaVuSans-4f" d="M 2522 4238 
Q 1834 4238 1429 3725 
Q 1025 3213 1025 2328 
Q 1025 1447 1429 934 
Q 1834 422 2522 422 
Q 3209 422 3611 934 
Q 4013 1447 4013 2328 
Q 4013 3213 3611 3725 
Q 3209 4238 2522 4238 
z
M 2522 4750 
Q 3503 4750 4090 4092 
Q 4678 3434 4678 2328 
Q 4678 1225 4090 567 
Q 3503 -91 2522 -91 
Q 1538 -91 948 565 
Q 359 1222 359 2328 
Q 359 3434 948 4092 
Q 1538 4750 2522 4750 
z
" transform="scale(0.015625)"/>
       <path id="DejaVuSans-20" transform="scale(0.015625)"/>
       <path id="DejaVuSans-44" d="M 1259 4147 
L 1259 519 
L 2022 519 
Q 2988 519 3436 956 
Q 3884 1394 3884 2338 
Q 3884 3275 3436 3711 
Q 2988 4147 2022 4147 
L 1259 4147 
z
M 628 4666 
L 1925 4666 
Q 3281 4666 3915 4102 
Q 4550 3538 4550 2338 
Q 4550 1131 3912 565 
Q 3275 0 1925 0 
L 628 0 
L 628 4666 
z
" transform="scale(0.015625)"/>
       <path id="DejaVuSans-65" d="M 3597 1894 
L 3597 1613 
L 953 1613 
Q 991 1019 1311 708 
Q 1631 397 2203 397 
Q 2534 397 2845 478 
Q 3156 559 3463 722 
L 3463 178 
Q 3153 47 2828 -22 
Q 2503 -91 2169 -91 
Q 1331 -91 842 396 
Q 353 884 353 1716 
Q 353 2575 817 3079 
Q 1281 3584 2069 3584 
Q 2775 3584 3186 3129 
Q 3597 2675 3597 1894 
z
M 3022 2063 
Q 3016 2534 2758 2815 
Q 2500 3097 2075 3097 
Q 1594 3097 1305 2825 
Q 1016 2553 972 2059 
L 3022 2063 
z
" transform="scale(0.015625)"/>
       <path id="DejaVuSans-70" d="M 1159 525 
L 1159 -1331 
L 581 -1331 
L 581 3500 
L 1159 3500 
L 1159 2969 
Q 1341 3281 1617 3432 
Q 1894 3584 2278 3584 
Q 2916 3584 3314 3078 
Q 3713 2572 3713 1747 
Q 3713 922 3314 415 
Q 2916 -91 2278 -91 
Q 1894 -91 1617 61 
Q 1341 213 1159 525 
z
M 3116 1747 
Q 3116 2381 2855 2742 
Q 2594 3103 2138 3103 
Q 1681 3103 1420 2742 
Q 1159 2381 1159 1747 
Q 1159 1113 1420 752 
Q 1681 391 2138 391 
Q 2594 391 2855 752 
Q 3116 1113 3116 1747 
z
" transform="scale(0.015625)"/>
       <path id="DejaVuSans-74" d="M 1172 4494 
L 1172 3500 
L 2356 3500 
L 2356 3053 
L 1172 3053 
L 1172 1153 
Q 1172 725 1289 603 
Q 1406 481 1766 481 
L 2356 481 
L 2356 0 
L 1766 0 
Q 1100 0 847 248 
Q 594 497 594 1153 
L 594 3053 
L 172 3053 
L 172 3500 
L 594 3500 
L 594 4494 
L 1172 4494 
z
" transform="scale(0.015625)"/>
       <path id="DejaVuSans-68" d="M 3513 2113 
L 3513 0 
L 2938 0 
L 2938 2094 
Q 2938 2591 2744 2837 
Q 2550 3084 2163 3084 
Q 1697 3084 1428 2787 
Q 1159 2491 1159 1978 
L 1159 0 
L 581 0 
L 581 4863 
L 1159 4863 
L 1159 2956 
Q 1366 3272 1645 3428 
Q 1925 3584 2291 3584 
Q 2894 3584 3203 3211 
Q 3513 2838 3513 2113 
z
" transform="scale(0.015625)"/>
      </defs>
      <use xlink:href="#DejaVuSans-49"/>
      <use xlink:href="#DejaVuSans-4f" transform="translate(29.492188 0)"/>
      <use xlink:href="#DejaVuSans-20" transform="translate(108.203125 0)"/>
      <use xlink:href="#DejaVuSans-44" transform="translate(139.990234 0)"/>
      <use xlink:href="#DejaVuSans-65" transform="translate(216.992188 0)"/>
      <use xlink:href="#DejaVuSans-70" transform="translate(278.515625 0)"/>
      <use xlink:href="#DejaVuSans-74" transform="translate(341.992188 0)"/>
      <use xlink:href="#DejaVuSans-68" transform="translate(381.201172 0)"/>
     </g>
    </g>
   </g>
   <g id="matplotlib.axis_2">
    <g id="ytick_1">
     <g id="line2d_8">
      <path d="M 53.328125 279.031783 
L 410.448125 279.031783 
" clip-path="url(#pfa620667be)" style="fill: none; stroke: #cccccc; stroke-width: 0.8; stroke-linecap: round"/>
     </g>
     <g id="text_9">
      <!-- 1000 -->
      <g style="fill: #262626" transform="translate(20.878125 282.831002) scale(0.1 -0.1)">
       <defs>
        <path id="DejaVuSans-30" d="M 2034 4250 
Q 1547 4250 1301 3770 
Q 1056 3291 1056 2328 
Q 1056 1369 1301 889 
Q 1547 409 2034 409 
Q 2525 409 2770 889 
Q 3016 1369 3016 2328 
Q 3016 3291 2770 3770 
Q 2525 4250 2034 4250 
z
M 2034 4750 
Q 2819 4750 3233 4129 
Q 3647 3509 3647 2328 
Q 3647 1150 3233 529 
Q 2819 -91 2034 -91 
Q 1250 -91 836 529 
Q 422 1150 422 2328 
Q 422 3509 836 4129 
Q 1250 4750 2034 4750 
z
" transform="scale(0.015625)"/>
       </defs>
       <use xlink:href="#DejaVuSans-31"/>
       <use xlink:href="#DejaVuSans-30" transform="translate(63.623047 0)"/>
       <use xlink:href="#DejaVuSans-30" transform="translate(127.246094 0)"/>
       <use xlink:href="#DejaVuSans-30" transform="translate(190.869141 0)"/>
      </g>
     </g>
    </g>
    <g id="ytick_2">
     <g id="line2d_9">
      <path d="M 53.328125 242.198653 
L 410.448125 242.198653 
" clip-path="url(#pfa620667be)" style="fill: none; stroke: #cccccc; stroke-width: 0.8; stroke-linecap: round"/>
     </g>
     <g id="text_10">
      <!-- 1250 -->
      <g style="fill: #262626" transform="translate(20.878125 245.997872) scale(0.1 -0.1)">
       <defs>
        <path id="DejaVuSans-35" d="M 691 4666 
L 3169 4666 
L 3169 4134 
L 1269 4134 
L 1269 2991 
Q 1406 3038 1543 3061 
Q 1681 3084 1819 3084 
Q 2600 3084 3056 2656 
Q 3513 2228 3513 1497 
Q 3513 744 3044 326 
Q 2575 -91 1722 -91 
Q 1428 -91 1123 -41 
Q 819 9 494 109 
L 494 744 
Q 775 591 1075 516 
Q 1375 441 1709 441 
Q 2250 441 2565 725 
Q 2881 1009 2881 1497 
Q 2881 1984 2565 2268 
Q 2250 2553 1709 2553 
Q 1456 2553 1204 2497 
Q 953 2441 691 2322 
L 691 4666 
z
" transform="scale(0.015625)"/>
       </defs>
       <use xlink:href="#DejaVuSans-31"/>
       <use xlink:href="#DejaVuSans-32" transform="translate(63.623047 0)"/>
       <use xlink:href="#DejaVuSans-35" transform="translate(127.246094 0)"/>
       <use xlink:href="#DejaVuSans-30" transform="translate(190.869141 0)"/>
      </g>
     </g>
    </g>
    <g id="ytick_3">
     <g id="line2d_10">
      <path d="M 53.328125 205.365523 
L 410.448125 205.365523 
" clip-path="url(#pfa620667be)" style="fill: none; stroke: #cccccc; stroke-width: 0.8; stroke-linecap: round"/>
     </g>
     <g id="text_11">
      <!-- 1500 -->
      <g style="fill: #262626" transform="translate(20.878125 209.164742) scale(0.1 -0.1)">
       <use xlink:href="#DejaVuSans-31"/>
       <use xlink:href="#DejaVuSans-35" transform="translate(63.623047 0)"/>
       <use xlink:href="#DejaVuSans-30" transform="translate(127.246094 0)"/>
       <use xlink:href="#DejaVuSans-30" transform="translate(190.869141 0)"/>
      </g>
     </g>
    </g>
    <g id="ytick_4">
     <g id="line2d_11">
      <path d="M 53.328125 168.532392 
L 410.448125 168.532392 
" clip-path="url(#pfa620667be)" style="fill: none; stroke: #cccccc; stroke-width: 0.8; stroke-linecap: round"/>
     </g>
     <g id="text_12">
      <!-- 1750 -->
      <g style="fill: #262626" transform="translate(20.878125 172.331611) scale(0.1 -0.1)">
       <defs>
        <path id="DejaVuSans-37" d="M 525 4666 
L 3525 4666 
L 3525 4397 
L 1831 0 
L 1172 0 
L 2766 4134 
L 525 4134 
L 525 4666 
z
" transform="scale(0.015625)"/>
       </defs>
       <use xlink:href="#DejaVuSans-31"/>
       <use xlink:href="#DejaVuSans-37" transform="translate(63.623047 0)"/>
       <use xlink:href="#DejaVuSans-35" transform="translate(127.246094 0)"/>
       <use xlink:href="#DejaVuSans-30" transform="translate(190.869141 0)"/>
      </g>
     </g>
    </g>
    <g id="ytick_5">
     <g id="line2d_12">
      <path d="M 53.328125 131.699262 
L 410.448125 131.699262 
" clip-path="url(#pfa620667be)" style="fill: none; stroke: #cccccc; stroke-width: 0.8; stroke-linecap: round"/>
     </g>
     <g id="text_13">
      <!-- 2000 -->
      <g style="fill: #262626" transform="translate(20.878125 135.498481) scale(0.1 -0.1)">
       <use xlink:href="#DejaVuSans-32"/>
       <use xlink:href="#DejaVuSans-30" transform="translate(63.623047 0)"/>
       <use xlink:href="#DejaVuSans-30" transform="translate(127.246094 0)"/>
       <use xlink:href="#DejaVuSans-30" transform="translate(190.869141 0)"/>
      </g>
     </g>
    </g>
    <g id="ytick_6">
     <g id="line2d_13">
      <path d="M 53.328125 94.866132 
L 410.448125 94.866132 
" clip-path="url(#pfa620667be)" style="fill: none; stroke: #cccccc; stroke-width: 0.8; stroke-linecap: round"/>
     </g>
     <g id="text_14">
      <!-- 2250 -->
      <g style="fill: #262626" transform="translate(20.878125 98.665351) scale(0.1 -0.1)">
       <use xlink:href="#DejaVuSans-32"/>
       <use xlink:href="#DejaVuSans-32" transform="translate(63.623047 0)"/>
       <use xlink:href="#DejaVuSans-35" transform="translate(127.246094 0)"/>
       <use xlink:href="#DejaVuSans-30" transform="translate(190.869141 0)"/>
      </g>
     </g>
    </g>
    <g id="ytick_7">
     <g id="line2d_14">
      <path d="M 53.328125 58.033001 
L 410.448125 58.033001 
" clip-path="url(#pfa620667be)" style="fill: none; stroke: #cccccc; stroke-width: 0.8; stroke-linecap: round"/>
     </g>
     <g id="text_15">
      <!-- 2500 -->
      <g style="fill: #262626" transform="translate(20.878125 61.83222) scale(0.1 -0.1)">
       <use xlink:href="#DejaVuSans-32"/>
       <use xlink:href="#DejaVuSans-35" transform="translate(63.623047 0)"/>
       <use xlink:href="#DejaVuSans-30" transform="translate(127.246094 0)"/>
       <use xlink:href="#DejaVuSans-30" transform="translate(190.869141 0)"/>
      </g>
     </g>
    </g>
    <g id="text_16">
     <!-- IOPS -->
     <g style="fill: #262626" transform="translate(14.798438 180.279725) rotate(-90) scale(0.1 -0.1)">
      <defs>
       <path id="DejaVuSans-50" d="M 1259 4147 
L 1259 2394 
L 2053 2394 
Q 2494 2394 2734 2622 
Q 2975 2850 2975 3272 
Q 2975 3691 2734 3919 
Q 2494 4147 2053 4147 
L 1259 4147 
z
M 628 4666 
L 2053 4666 
Q 2838 4666 3239 4311 
Q 3641 3956 3641 3272 
Q 3641 2581 3239 2228 
Q 2838 1875 2053 1875 
L 1259 1875 
L 1259 0 
L 628 0 
L 628 4666 
z
" transform="scale(0.015625)"/>
       <path id="DejaVuSans-53" d="M 3425 4513 
L 3425 3897 
Q 3066 4069 2747 4153 
Q 2428 4238 2131 4238 
Q 1616 4238 1336 4038 
Q 1056 3838 1056 3469 
Q 1056 3159 1242 3001 
Q 1428 2844 1947 2747 
L 2328 2669 
Q 3034 2534 3370 2195 
Q 3706 1856 3706 1288 
Q 3706 609 3251 259 
Q 2797 -91 1919 -91 
Q 1588 -91 1214 -16 
Q 841 59 441 206 
L 441 856 
Q 825 641 1194 531 
Q 1563 422 1919 422 
Q 2459 422 2753 634 
Q 3047 847 3047 1241 
Q 3047 1584 2836 1778 
Q 2625 1972 2144 2069 
L 1759 2144 
Q 1053 2284 737 2584 
Q 422 2884 422 3419 
Q 422 4038 858 4394 
Q 1294 4750 2059 4750 
Q 2388 4750 2728 4690 
Q 3069 4631 3425 4513 
z
" transform="scale(0.015625)"/>
      </defs>
      <use xlink:href="#DejaVuSans-49"/>
      <use xlink:href="#DejaVuSans-4f" transform="translate(29.492188 0)"/>
      <use xlink:href="#DejaVuSans-50" transform="translate(108.203125 0)"/>
      <use xlink:href="#DejaVuSans-53" transform="translate(168.505859 0)"/>
     </g>
    </g>
   </g>
   <g id="FillBetweenPolyCollection_1"/>
   <g id="FillBetweenPolyCollection_2"/>
   <g id="FillBetweenPolyCollection_3"/>
   <g id="FillBetweenPolyCollection_4"/>
   <g id="line2d_15">
    <path d="M 69.560852 125.658629 
L 77.229857 115.492685 
L 87.455197 47.719725 
L 107.905877 110.483379 
L 148.807237 178.551004 
L 230.609957 108.126059 
L 394.215398 189.453611 
" clip-path="url(#pfa620667be)" style="fill: none; stroke: #3b0f70; stroke-width: 1.5; stroke-linecap: round"/>
   </g>
   <g id="line2d_16">
    <path d="M 69.560852 174.867691 
L 77.229857 220.540773 
L 87.455197 222.898093 
L 107.905877 166.764402 
L 148.807237 213.763477 
L 230.609957 211.111491 
L 394.215398 191.958263 
" clip-path="url(#pfa620667be)" style="fill: none; stroke: #8c2981; stroke-width: 1.5; stroke-linecap: round"/>
   </g>
   <g id="line2d_17">
    <path d="M 69.560852 240.28333 
L 77.229857 244.408641 
L 87.455197 272.843818 
L 107.905877 251.627935 
L 148.807237 259.289226 
L 230.609957 256.63724 
L 394.215398 262.972539 
" clip-path="url(#pfa620667be)" style="fill: none; stroke: #de4968; stroke-width: 1.5; stroke-linecap: round"/>
   </g>
   <g id="line2d_18">
    <path d="M 69.560852 261.057216 
L 77.229857 237.042015 
L 87.455197 289.639725 
L 107.905877 261.204548 
L 148.807237 273.727813 
L 230.609957 255.605913 
L 394.215398 244.261308 
" clip-path="url(#pfa620667be)" style="fill: none; stroke: #fe9f6d; stroke-width: 1.5; stroke-linecap: round"/>
   </g>
   <g id="line2d_19"/>
   <g id="line2d_20"/>
   <g id="line2d_21"/>
   <g id="line2d_22"/>
   <g id="text_17">
    <path d="M 131.173619 152.951856 
L 132.003346 154.33268 
L 136.77127 151.467667 
L 135.566965 150.146042 
L 136.337065 149.683294 
L 137.536542 150.996883 
L 138.044357 151.841985 
L 132.506332 155.169745 
L 133.336059 156.550568 
L 132.624888 156.977906 
L 130.462448 153.379194 
L 131.173619 152.951856 
z
M 138.261673 158.51967 
Q 137.919642 157.950465 137.329515 157.851169 
Q 136.741531 157.752408 136.063843 158.159626 
Q 135.390173 158.564429 135.197342 159.132377 
Q 135.006655 159.700859 135.348686 160.270064 
Q 135.690717 160.839269 136.281379 160.936421 
Q 136.87338 161.032768 137.547051 160.627964 
Q 138.224739 160.220746 138.413552 159.655213 
Q 138.603704 159.088874 138.261673 158.51967 
z
M 141.920545 158.605161 
L 141.150445 159.067909 
Q 141.10891 158.65902 140.993172 158.287426 
Q 140.878774 157.915027 140.687237 157.596273 
Q 140.18425 156.759207 139.353486 156.656853 
Q 138.523528 156.555839 137.343276 157.179368 
Q 137.855646 157.2069 138.273574 157.462534 
Q 138.692306 157.719507 138.961103 158.166835 
Q 139.526862 159.108366 139.283329 159.998443 
Q 139.041135 160.887715 138.058085 161.478423 
Q 137.095125 162.057059 136.170496 161.837933 
Q 135.247207 161.618003 134.679033 160.672453 
Q 134.027162 159.587617 134.513086 158.515431 
Q 135.000349 157.442441 136.57805 156.494412 
Q 138.059321 155.604326 139.363092 155.777917 
Q 140.666864 155.951507 141.378288 157.135453 
Q 141.569826 157.454207 141.701635 157.816144 
Q 141.833444 158.17808 141.920545 158.605161 
z
" clip-path="url(#pfa620667be)" style="fill: #3b0f70; stroke: #ffffff; stroke-width: 5"/>
    <path d="M 131.173619 152.951856 
L 132.003346 154.33268 
L 136.77127 151.467667 
L 135.566965 150.146042 
L 136.337065 149.683294 
L 137.536542 150.996883 
L 138.044357 151.841985 
L 132.506332 155.169745 
L 133.336059 156.550568 
L 132.624888 156.977906 
L 130.462448 153.379194 
L 131.173619 152.951856 
z
M 138.261673 158.51967 
Q 137.919642 157.950465 137.329515 157.851169 
Q 136.741531 157.752408 136.063843 158.159626 
Q 135.390173 158.564429 135.197342 159.132377 
Q 135.006655 159.700859 135.348686 160.270064 
Q 135.690717 160.839269 136.281379 160.936421 
Q 136.87338 161.032768 137.547051 160.627964 
Q 138.224739 160.220746 138.413552 159.655213 
Q 138.603704 159.088874 138.261673 158.51967 
z
M 141.920545 158.605161 
L 141.150445 159.067909 
Q 141.10891 158.65902 140.993172 158.287426 
Q 140.878774 157.915027 140.687237 157.596273 
Q 140.18425 156.759207 139.353486 156.656853 
Q 138.523528 156.555839 137.343276 157.179368 
Q 137.855646 157.2069 138.273574 157.462534 
Q 138.692306 157.719507 138.961103 158.166835 
Q 139.526862 159.108366 139.283329 159.998443 
Q 139.041135 160.887715 138.058085 161.478423 
Q 137.095125 162.057059 136.170496 161.837933 
Q 135.247207 161.618003 134.679033 160.672453 
Q 134.027162 159.587617 134.513086 158.515431 
Q 135.000349 157.442441 136.57805 156.494412 
Q 138.059321 155.604326 139.363092 155.777917 
Q 140.666864 155.951507 141.378288 157.135453 
Q 141.569826 157.454207 141.701635 157.816144 
Q 141.833444 158.17808 141.920545 158.605161 
z
" clip-path="url(#pfa620667be)" style="fill: #3b0f70"/>
   </g>
   <g id="text_18">
    <path d="M 197.405876 211.015453 
Q 198.118228 211.144001 198.530438 211.610577 
Q 198.944158 212.075541 198.966941 212.778297 
Q 199.001875 213.855855 198.279265 214.471781 
Q 197.556605 215.086144 196.190135 215.130444 
Q 195.732563 215.145278 195.243945 215.070446 
Q 194.755326 214.995614 194.232537 214.831217 
L 194.201704 213.880155 
Q 194.61861 214.105827 195.109803 214.211842 
Q 195.602558 214.317806 196.135091 214.300542 
Q 197.061167 214.270519 197.535002 213.889341 
Q 198.008837 213.508162 197.986206 212.810091 
Q 197.965297 212.165118 197.502226 211.81744 
Q 197.039104 211.4682 196.234839 211.494274 
L 195.385285 211.521816 
L 195.359009 210.711304 
L 196.247605 210.682496 
Q 196.973786 210.658954 197.350103 210.355976 
Q 197.726421 210.052999 197.708701 209.506411 
Q 197.690526 208.945768 197.282577 208.658836 
Q 196.876139 208.370291 196.134341 208.39434 
Q 195.728304 208.407503 195.267371 208.511556 
Q 194.806388 208.614046 194.256404 208.816348 
L 194.227951 207.938684 
Q 194.785093 207.76429 195.272929 207.670309 
Q 195.760765 207.576327 196.194911 207.562253 
Q 197.317759 207.525851 197.987097 208.015357 
Q 198.657945 208.503251 198.686095 209.371545 
Q 198.705739 209.977477 198.372564 210.405685 
Q 198.039388 210.833893 197.405876 211.015453 
z
M 201.727399 213.978544 
L 205.167779 213.86701 
L 205.194662 214.696261 
L 200.568967 214.846223 
L 200.542084 214.016971 
Q 201.083893 213.417851 202.020441 212.40885 
Q 202.9585 211.398236 203.197592 211.105961 
Q 203.653568 210.559649 203.829021 210.185017 
Q 204.006036 209.810335 203.994492 209.454272 
Q 203.975658 208.873327 203.556213 208.521108 
Q 203.136717 208.167328 202.482373 208.188541 
Q 202.018554 208.203578 201.508415 208.381138 
Q 200.999837 208.558648 200.424839 208.905586 
L 200.392538 207.909235 
Q 200.979792 207.651008 201.492759 207.512439 
Q 202.007287 207.37382 202.436749 207.359897 
Q 203.568967 207.323191 204.260429 207.86826 
Q 204.95184 208.411767 204.982521 209.358145 
Q 204.997102 209.807908 204.841503 210.21629 
Q 204.687415 210.623059 204.260056 211.184076 
Q 204.142852 211.330137 203.510431 212.027558 
Q 202.879571 212.724928 201.727399 213.978544 
z
" clip-path="url(#pfa620667be)" style="fill: #8c2981; stroke: #ffffff; stroke-width: 5"/>
    <path d="M 197.405876 211.015453 
Q 198.118228 211.144001 198.530438 211.610577 
Q 198.944158 212.075541 198.966941 212.778297 
Q 199.001875 213.855855 198.279265 214.471781 
Q 197.556605 215.086144 196.190135 215.130444 
Q 195.732563 215.145278 195.243945 215.070446 
Q 194.755326 214.995614 194.232537 214.831217 
L 194.201704 213.880155 
Q 194.61861 214.105827 195.109803 214.211842 
Q 195.602558 214.317806 196.135091 214.300542 
Q 197.061167 214.270519 197.535002 213.889341 
Q 198.008837 213.508162 197.986206 212.810091 
Q 197.965297 212.165118 197.502226 211.81744 
Q 197.039104 211.4682 196.234839 211.494274 
L 195.385285 211.521816 
L 195.359009 210.711304 
L 196.247605 210.682496 
Q 196.973786 210.658954 197.350103 210.355976 
Q 197.726421 210.052999 197.708701 209.506411 
Q 197.690526 208.945768 197.282577 208.658836 
Q 196.876139 208.370291 196.134341 208.39434 
Q 195.728304 208.407503 195.267371 208.511556 
Q 194.806388 208.614046 194.256404 208.816348 
L 194.227951 207.938684 
Q 194.785093 207.76429 195.272929 207.670309 
Q 195.760765 207.576327 196.194911 207.562253 
Q 197.317759 207.525851 197.987097 208.015357 
Q 198.657945 208.503251 198.686095 209.371545 
Q 198.705739 209.977477 198.372564 210.405685 
Q 198.039388 210.833893 197.405876 211.015453 
z
M 201.727399 213.978544 
L 205.167779 213.86701 
L 205.194662 214.696261 
L 200.568967 214.846223 
L 200.542084 214.016971 
Q 201.083893 213.417851 202.020441 212.40885 
Q 202.9585 211.398236 203.197592 211.105961 
Q 203.653568 210.559649 203.829021 210.185017 
Q 204.006036 209.810335 203.994492 209.454272 
Q 203.975658 208.873327 203.556213 208.521108 
Q 203.136717 208.167328 202.482373 208.188541 
Q 202.018554 208.203578 201.508415 208.381138 
Q 200.999837 208.558648 200.424839 208.905586 
L 200.392538 207.909235 
Q 200.979792 207.651008 201.492759 207.512439 
Q 202.007287 207.37382 202.436749 207.359897 
Q 203.568967 207.323191 204.260429 207.86826 
Q 204.95184 208.411767 204.982521 209.358145 
Q 204.997102 209.807908 204.841503 210.21629 
Q 204.687415 210.623059 204.260056 211.184076 
Q 204.142852 211.330137 203.510431 212.027558 
Q 202.879571 212.724928 201.727399 213.978544 
z
" clip-path="url(#pfa620667be)" style="fill: #8c2981"/>
   </g>
   <g id="text_19">
    <path d="M 261.019736 256.535716 
Q 260.35617 256.510021 259.949806 256.949313 
Q 259.545063 257.387105 259.51447 258.177138 
Q 259.484059 258.962487 259.853554 259.434951 
Q 260.224671 259.905913 260.888236 259.931609 
Q 261.551802 259.957304 261.956666 259.516389 
Q 262.36159 259.073914 262.392001 258.288565 
Q 262.422593 257.498532 262.052917 257.030752 
Q 261.683301 256.561411 261.019736 256.535716 
z
M 263.095731 253.5216 
L 263.060967 254.419365 
Q 262.696142 254.230106 262.321867 254.123357 
Q 261.947653 254.015046 261.576056 254.000656 
Q 260.600225 253.962869 260.059473 254.601799 
Q 259.520281 255.240789 259.395327 256.569762 
Q 259.699056 256.156204 260.141873 255.946619 
Q 260.58625 255.737095 261.107735 255.757288 
Q 262.205349 255.799791 262.816556 256.491146 
Q 263.427823 257.18094 263.383445 258.326956 
Q 263.339975 259.449553 262.65011 260.103036 
Q 261.960306 260.754958 260.858007 260.712273 
Q 259.593329 260.663301 258.962565 259.6694 
Q 258.331861 258.673938 258.403082 256.834691 
Q 258.469951 255.10786 259.329431 254.112246 
Q 260.188912 253.116633 261.569127 253.170079 
Q 261.940724 253.184468 262.315724 253.272482 
Q 262.690724 253.360495 263.095731 253.5216 
z
M 267.947666 254.408443 
L 265.308302 258.201343 
L 267.797062 258.297715 
L 267.947666 254.408443 
z
M 267.721738 253.539675 
L 268.961434 253.58768 
L 268.777577 258.335684 
L 269.817423 258.37595 
L 269.785682 259.195648 
L 268.745836 259.155382 
L 268.679331 260.872845 
L 267.698815 260.834876 
L 267.765321 259.117413 
L 264.47716 258.990086 
L 264.51398 258.039236 
L 267.721738 253.539675 
z
" clip-path="url(#pfa620667be)" style="fill: #de4968; stroke: #ffffff; stroke-width: 5"/>
    <path d="M 261.019736 256.535716 
Q 260.35617 256.510021 259.949806 256.949313 
Q 259.545063 257.387105 259.51447 258.177138 
Q 259.484059 258.962487 259.853554 259.434951 
Q 260.224671 259.905913 260.888236 259.931609 
Q 261.551802 259.957304 261.956666 259.516389 
Q 262.36159 259.073914 262.392001 258.288565 
Q 262.422593 257.498532 262.052917 257.030752 
Q 261.683301 256.561411 261.019736 256.535716 
z
M 263.095731 253.5216 
L 263.060967 254.419365 
Q 262.696142 254.230106 262.321867 254.123357 
Q 261.947653 254.015046 261.576056 254.000656 
Q 260.600225 253.962869 260.059473 254.601799 
Q 259.520281 255.240789 259.395327 256.569762 
Q 259.699056 256.156204 260.141873 255.946619 
Q 260.58625 255.737095 261.107735 255.757288 
Q 262.205349 255.799791 262.816556 256.491146 
Q 263.427823 257.18094 263.383445 258.326956 
Q 263.339975 259.449553 262.65011 260.103036 
Q 261.960306 260.754958 260.858007 260.712273 
Q 259.593329 260.663301 258.962565 259.6694 
Q 258.331861 258.673938 258.403082 256.834691 
Q 258.469951 255.10786 259.329431 254.112246 
Q 260.188912 253.116633 261.569127 253.170079 
Q 261.940724 253.184468 262.315724 253.272482 
Q 262.690724 253.360495 263.095731 253.5216 
z
M 267.947666 254.408443 
L 265.308302 258.201343 
L 267.797062 258.297715 
L 267.947666 254.408443 
z
M 267.721738 253.539675 
L 268.961434 253.58768 
L 268.777577 258.335684 
L 269.817423 258.37595 
L 269.785682 259.195648 
L 268.745836 259.155382 
L 268.679331 260.872845 
L 267.698815 260.834876 
L 267.765321 259.117413 
L 264.47716 258.990086 
L 264.51398 258.039236 
L 267.721738 253.539675 
z
" clip-path="url(#pfa620667be)" style="fill: #de4968"/>
   </g>
   <g id="text_20">
    <path d="M 320.160776 251.330669 
L 321.767855 251.219232 
L 321.383068 245.670057 
L 319.658462 246.14205 
L 319.596313 245.245764 
L 321.311566 244.77442 
L 322.295142 244.706218 
L 322.742078 251.151678 
L 324.349157 251.040241 
L 324.40655 251.867941 
L 320.21817 252.158369 
L 320.160776 251.330669 
z
M 327.184341 250.843646 
L 330.618283 250.605532 
L 330.675676 251.433232 
L 326.058638 251.753384 
L 326.001244 250.925684 
Q 326.52063 250.307023 327.419397 249.264228 
Q 328.319616 248.219765 328.547786 247.918886 
Q 328.98334 247.356158 329.144883 246.975321 
Q 329.307984 246.594376 329.28334 246.23898 
Q 329.243132 245.659122 328.811005 245.322583 
Q 328.378769 244.984486 327.72565 245.029774 
Q 327.262699 245.061876 326.759442 245.258096 
Q 326.257744 245.454208 325.695908 245.82208 
L 325.626949 244.827593 
Q 326.204298 244.547922 326.711816 244.390562 
Q 327.220893 244.233095 327.649551 244.203371 
Q 328.77965 244.125009 329.490709 244.644252 
Q 330.201661 245.161937 330.267161 246.106544 
Q 330.29829 246.555466 330.15783 246.969299 
Q 330.018821 247.381465 329.612406 247.957834 
Q 329.500659 248.108112 328.894341 248.828342 
Q 328.289581 249.548463 327.184341 250.843646 
z
M 334.605638 247.68991 
Q 333.904197 247.738549 333.528087 248.142095 
Q 333.153535 248.545534 333.199039 249.201771 
Q 333.244651 249.859566 333.671301 250.207448 
Q 334.099509 250.555223 334.80095 250.506584 
Q 335.50239 250.457945 335.879951 250.052732 
Q 336.258963 249.645851 336.213675 248.992732 
Q 336.168171 248.336495 335.739963 247.988721 
Q 335.313314 247.640839 334.605638 247.68991 
z
M 333.593095 247.340365 
Q 332.949431 247.228372 332.565545 246.819574 
Q 332.18311 246.409108 332.139876 245.785605 
Q 332.079456 244.91426 332.664713 244.364645 
Q 333.251529 243.814923 334.331748 243.740019 
Q 335.418201 243.664683 336.072156 244.128369 
Q 336.72611 244.592055 336.786531 245.4634 
Q 336.829765 246.086903 336.506083 246.546332 
Q 336.183852 247.004094 335.566482 247.203528 
Q 336.288732 247.319469 336.718163 247.77523 
Q 337.149045 248.229324 337.197251 248.92453 
Q 337.270641 249.982926 336.664551 250.593502 
Q 336.058353 251.20252 334.854993 251.285962 
Q 333.653191 251.369297 332.96718 250.849882 
Q 332.282619 250.328801 332.209228 249.270405 
Q 332.161022 248.5752 332.526665 248.065874 
Q 332.893759 247.554881 333.593095 247.340365 
z
M 333.12526 245.811252 
Q 333.164387 246.375522 333.538608 246.667523 
Q 333.914387 246.959415 334.551919 246.915207 
Q 335.186333 246.871216 335.521347 246.530037 
Q 335.85792 246.18875 335.818793 245.624479 
Q 335.779557 245.058651 335.399102 244.767083 
Q 335.020205 244.475407 334.385791 244.519398 
Q 333.748259 244.563605 333.416363 244.904568 
Q 333.086025 245.245423 333.12526 245.811252 
z
" clip-path="url(#pfa620667be)" style="fill: #fe9f6d; stroke: #ffffff; stroke-width: 5"/>
    <path d="M 320.160776 251.330669 
L 321.767855 251.219232 
L 321.383068 245.670057 
L 319.658462 246.14205 
L 319.596313 245.245764 
L 321.311566 244.77442 
L 322.295142 244.706218 
L 322.742078 251.151678 
L 324.349157 251.040241 
L 324.40655 251.867941 
L 320.21817 252.158369 
L 320.160776 251.330669 
z
M 327.184341 250.843646 
L 330.618283 250.605532 
L 330.675676 251.433232 
L 326.058638 251.753384 
L 326.001244 250.925684 
Q 326.52063 250.307023 327.419397 249.264228 
Q 328.319616 248.219765 328.547786 247.918886 
Q 328.98334 247.356158 329.144883 246.975321 
Q 329.307984 246.594376 329.28334 246.23898 
Q 329.243132 245.659122 328.811005 245.322583 
Q 328.378769 244.984486 327.72565 245.029774 
Q 327.262699 245.061876 326.759442 245.258096 
Q 326.257744 245.454208 325.695908 245.82208 
L 325.626949 244.827593 
Q 326.204298 244.547922 326.711816 244.390562 
Q 327.220893 244.233095 327.649551 244.203371 
Q 328.77965 244.125009 329.490709 244.644252 
Q 330.201661 245.161937 330.267161 246.106544 
Q 330.29829 246.555466 330.15783 246.969299 
Q 330.018821 247.381465 329.612406 247.957834 
Q 329.500659 248.108112 328.894341 248.828342 
Q 328.289581 249.548463 327.184341 250.843646 
z
M 334.605638 247.68991 
Q 333.904197 247.738549 333.528087 248.142095 
Q 333.153535 248.545534 333.199039 249.201771 
Q 333.244651 249.859566 333.671301 250.207448 
Q 334.099509 250.555223 334.80095 250.506584 
Q 335.50239 250.457945 335.879951 250.052732 
Q 336.258963 249.645851 336.213675 248.992732 
Q 336.168171 248.336495 335.739963 247.988721 
Q 335.313314 247.640839 334.605638 247.68991 
z
M 333.593095 247.340365 
Q 332.949431 247.228372 332.565545 246.819574 
Q 332.18311 246.409108 332.139876 245.785605 
Q 332.079456 244.91426 332.664713 244.364645 
Q 333.251529 243.814923 334.331748 243.740019 
Q 335.418201 243.664683 336.072156 244.128369 
Q 336.72611 244.592055 336.786531 245.4634 
Q 336.829765 246.086903 336.506083 246.546332 
Q 336.183852 247.004094 335.566482 247.203528 
Q 336.288732 247.319469 336.718163 247.77523 
Q 337.149045 248.229324 337.197251 248.92453 
Q 337.270641 249.982926 336.664551 250.593502 
Q 336.058353 251.20252 334.854993 251.285962 
Q 333.653191 251.369297 332.96718 250.849882 
Q 332.282619 250.328801 332.209228 249.270405 
Q 332.161022 248.5752 332.526665 248.065874 
Q 332.893759 247.554881 333.593095 247.340365 
z
M 333.12526 245.811252 
Q 333.164387 246.375522 333.538608 246.667523 
Q 333.914387 246.959415 334.551919 246.915207 
Q 335.186333 246.871216 335.521347 246.530037 
Q 335.85792 246.18875 335.818793 245.624479 
Q 335.779557 245.058651 335.399102 244.767083 
Q 335.020205 244.475407 334.385791 244.519398 
Q 333.748259 244.563605 333.416363 244.904568 
Q 333.086025 245.245423 333.12526 245.811252 
z
" clip-path="url(#pfa620667be)" style="fill: #fe9f6d"/>
   </g>
   <g id="patch_3">
    <path d="M 53.328125 301.735725 
L 53.328125 35.623725 
" style="fill: none; stroke: #cccccc; stroke-width: 0.8; stroke-linejoin: miter; stroke-linecap: square"/>
   </g>
   <g id="patch_4">
    <path d="M 410.448125 301.735725 
L 410.448125 35.623725 
" style="fill: none; stroke: #cccccc; stroke-width: 0.8; stroke-linejoin: miter; stroke-linecap: square"/>
   </g>
   <g id="patch_5">
    <path d="M 53.328125 301.735725 
L 410.448125 301.735725 
" style="fill: none; stroke: #cccccc; stroke-width: 0.8; stroke-linejoin: miter; stroke-linecap: square"/>
   </g>
   <g id="patch_6">
    <path d="M 53.328125 35.623725 
L 410.448125 35.623725 
" style="fill: none; stroke: #cccccc; stroke-width: 0.8; stroke-linejoin: miter; stroke-linecap: square"/>
   </g>
   <g id="text_21">
    <!-- Block Size = 2M, Read-Write Type = Random Read-heavy 4:1 -->
    <g style="fill: #262626; opacity: 0.75" transform="translate(79.142812 30.882918) scale(0.1 -0.1)">
     <defs>
      <path id="DejaVuSans-42" d="M 1259 2228 
L 1259 519 
L 2272 519 
Q 2781 519 3026 730 
Q 3272 941 3272 1375 
Q 3272 1813 3026 2020 
Q 2781 2228 2272 2228 
L 1259 2228 
z
M 1259 4147 
L 1259 2741 
L 2194 2741 
Q 2656 2741 2882 2914 
Q 3109 3088 3109 3444 
Q 3109 3797 2882 3972 
Q 2656 4147 2194 4147 
L 1259 4147 
z
M 628 4666 
L 2241 4666 
Q 2963 4666 3353 4366 
Q 3744 4066 3744 3513 
Q 3744 3084 3544 2831 
Q 3344 2578 2956 2516 
Q 3422 2416 3680 2098 
Q 3938 1781 3938 1306 
Q 3938 681 3513 340 
Q 3088 0 2303 0 
L 628 0 
L 628 4666 
z
" transform="scale(0.015625)"/>
      <path id="DejaVuSans-6c" d="M 603 4863 
L 1178 4863 
L 1178 0 
L 603 0 
L 603 4863 
z
" transform="scale(0.015625)"/>
      <path id="DejaVuSans-6f" d="M 1959 3097 
Q 1497 3097 1228 2736 
Q 959 2375 959 1747 
Q 959 1119 1226 758 
Q 1494 397 1959 397 
Q 2419 397 2687 759 
Q 2956 1122 2956 1747 
Q 2956 2369 2687 2733 
Q 2419 3097 1959 3097 
z
M 1959 3584 
Q 2709 3584 3137 3096 
Q 3566 2609 3566 1747 
Q 3566 888 3137 398 
Q 2709 -91 1959 -91 
Q 1206 -91 779 398 
Q 353 888 353 1747 
Q 353 2609 779 3096 
Q 1206 3584 1959 3584 
z
" transform="scale(0.015625)"/>
      <path id="DejaVuSans-63" d="M 3122 3366 
L 3122 2828 
Q 2878 2963 2633 3030 
Q 2388 3097 2138 3097 
Q 1578 3097 1268 2742 
Q 959 2388 959 1747 
Q 959 1106 1268 751 
Q 1578 397 2138 397 
Q 2388 397 2633 464 
Q 2878 531 3122 666 
L 3122 134 
Q 2881 22 2623 -34 
Q 2366 -91 2075 -91 
Q 1284 -91 818 406 
Q 353 903 353 1747 
Q 353 2603 823 3093 
Q 1294 3584 2113 3584 
Q 2378 3584 2631 3529 
Q 2884 3475 3122 3366 
z
" transform="scale(0.015625)"/>
      <path id="DejaVuSans-6b" d="M 581 4863 
L 1159 4863 
L 1159 1991 
L 2875 3500 
L 3609 3500 
L 1753 1863 
L 3688 0 
L 2938 0 
L 1159 1709 
L 1159 0 
L 581 0 
L 581 4863 
z
" transform="scale(0.015625)"/>
      <path id="DejaVuSans-69" d="M 603 3500 
L 1178 3500 
L 1178 0 
L 603 0 
L 603 3500 
z
M 603 4863 
L 1178 4863 
L 1178 4134 
L 603 4134 
L 603 4863 
z
" transform="scale(0.015625)"/>
      <path id="DejaVuSans-7a" d="M 353 3500 
L 3084 3500 
L 3084 2975 
L 922 459 
L 3084 459 
L 3084 0 
L 275 0 
L 275 525 
L 2438 3041 
L 353 3041 
L 353 3500 
z
" transform="scale(0.015625)"/>
      <path id="DejaVuSans-3d" d="M 678 2906 
L 4684 2906 
L 4684 2381 
L 678 2381 
L 678 2906 
z
M 678 1631 
L 4684 1631 
L 4684 1100 
L 678 1100 
L 678 1631 
z
" transform="scale(0.015625)"/>
      <path id="DejaVuSans-4d" d="M 628 4666 
L 1569 4666 
L 2759 1491 
L 3956 4666 
L 4897 4666 
L 4897 0 
L 4281 0 
L 4281 4097 
L 3078 897 
L 2444 897 
L 1241 4097 
L 1241 0 
L 628 0 
L 628 4666 
z
" transform="scale(0.015625)"/>
      <path id="DejaVuSans-2c" d="M 750 794 
L 1409 794 
L 1409 256 
L 897 -744 
L 494 -744 
L 750 256 
L 750 794 
z
" transform="scale(0.015625)"/>
      <path id="DejaVuSans-52" d="M 2841 2188 
Q 3044 2119 3236 1894 
Q 3428 1669 3622 1275 
L 4263 0 
L 3584 0 
L 2988 1197 
Q 2756 1666 2539 1819 
Q 2322 1972 1947 1972 
L 1259 1972 
L 1259 0 
L 628 0 
L 628 4666 
L 2053 4666 
Q 2853 4666 3247 4331 
Q 3641 3997 3641 3322 
Q 3641 2881 3436 2590 
Q 3231 2300 2841 2188 
z
M 1259 4147 
L 1259 2491 
L 2053 2491 
Q 2509 2491 2742 2702 
Q 2975 2913 2975 3322 
Q 2975 3731 2742 3939 
Q 2509 4147 2053 4147 
L 1259 4147 
z
" transform="scale(0.015625)"/>
      <path id="DejaVuSans-61" d="M 2194 1759 
Q 1497 1759 1228 1600 
Q 959 1441 959 1056 
Q 959 750 1161 570 
Q 1363 391 1709 391 
Q 2188 391 2477 730 
Q 2766 1069 2766 1631 
L 2766 1759 
L 2194 1759 
z
M 3341 1997 
L 3341 0 
L 2766 0 
L 2766 531 
Q 2569 213 2275 61 
Q 1981 -91 1556 -91 
Q 1019 -91 701 211 
Q 384 513 384 1019 
Q 384 1609 779 1909 
Q 1175 2209 1959 2209 
L 2766 2209 
L 2766 2266 
Q 2766 2663 2505 2880 
Q 2244 3097 1772 3097 
Q 1472 3097 1187 3025 
Q 903 2953 641 2809 
L 641 3341 
Q 956 3463 1253 3523 
Q 1550 3584 1831 3584 
Q 2591 3584 2966 3190 
Q 3341 2797 3341 1997 
z
" transform="scale(0.015625)"/>
      <path id="DejaVuSans-64" d="M 2906 2969 
L 2906 4863 
L 3481 4863 
L 3481 0 
L 2906 0 
L 2906 525 
Q 2725 213 2448 61 
Q 2172 -91 1784 -91 
Q 1150 -91 751 415 
Q 353 922 353 1747 
Q 353 2572 751 3078 
Q 1150 3584 1784 3584 
Q 2172 3584 2448 3432 
Q 2725 3281 2906 2969 
z
M 947 1747 
Q 947 1113 1208 752 
Q 1469 391 1925 391 
Q 2381 391 2643 752 
Q 2906 1113 2906 1747 
Q 2906 2381 2643 2742 
Q 2381 3103 1925 3103 
Q 1469 3103 1208 2742 
Q 947 2381 947 1747 
z
" transform="scale(0.015625)"/>
      <path id="DejaVuSans-2d" d="M 313 2009 
L 1997 2009 
L 1997 1497 
L 313 1497 
L 313 2009 
z
" transform="scale(0.015625)"/>
      <path id="DejaVuSans-57" d="M 213 4666 
L 850 4666 
L 1831 722 
L 2809 4666 
L 3519 4666 
L 4500 722 
L 5478 4666 
L 6119 4666 
L 4947 0 
L 4153 0 
L 3169 4050 
L 2175 0 
L 1381 0 
L 213 4666 
z
" transform="scale(0.015625)"/>
      <path id="DejaVuSans-72" d="M 2631 2963 
Q 2534 3019 2420 3045 
Q 2306 3072 2169 3072 
Q 1681 3072 1420 2755 
Q 1159 2438 1159 1844 
L 1159 0 
L 581 0 
L 581 3500 
L 1159 3500 
L 1159 2956 
Q 1341 3275 1631 3429 
Q 1922 3584 2338 3584 
Q 2397 3584 2469 3576 
Q 2541 3569 2628 3553 
L 2631 2963 
z
" transform="scale(0.015625)"/>
      <path id="DejaVuSans-54" d="M -19 4666 
L 3928 4666 
L 3928 4134 
L 2272 4134 
L 2272 0 
L 1638 0 
L 1638 4134 
L -19 4134 
L -19 4666 
z
" transform="scale(0.015625)"/>
      <path id="DejaVuSans-79" d="M 2059 -325 
Q 1816 -950 1584 -1140 
Q 1353 -1331 966 -1331 
L 506 -1331 
L 506 -850 
L 844 -850 
Q 1081 -850 1212 -737 
Q 1344 -625 1503 -206 
L 1606 56 
L 191 3500 
L 800 3500 
L 1894 763 
L 2988 3500 
L 3597 3500 
L 2059 -325 
z
" transform="scale(0.015625)"/>
      <path id="DejaVuSans-6e" d="M 3513 2113 
L 3513 0 
L 2938 0 
L 2938 2094 
Q 2938 2591 2744 2837 
Q 2550 3084 2163 3084 
Q 1697 3084 1428 2787 
Q 1159 2491 1159 1978 
L 1159 0 
L 581 0 
L 581 3500 
L 1159 3500 
L 1159 2956 
Q 1366 3272 1645 3428 
Q 1925 3584 2291 3584 
Q 2894 3584 3203 3211 
Q 3513 2838 3513 2113 
z
" transform="scale(0.015625)"/>
      <path id="DejaVuSans-6d" d="M 3328 2828 
Q 3544 3216 3844 3400 
Q 4144 3584 4550 3584 
Q 5097 3584 5394 3201 
Q 5691 2819 5691 2113 
L 5691 0 
L 5113 0 
L 5113 2094 
Q 5113 2597 4934 2840 
Q 4756 3084 4391 3084 
Q 3944 3084 3684 2787 
Q 3425 2491 3425 1978 
L 3425 0 
L 2847 0 
L 2847 2094 
Q 2847 2600 2669 2842 
Q 2491 3084 2119 3084 
Q 1678 3084 1418 2786 
Q 1159 2488 1159 1978 
L 1159 0 
L 581 0 
L 581 3500 
L 1159 3500 
L 1159 2956 
Q 1356 3278 1631 3431 
Q 1906 3584 2284 3584 
Q 2666 3584 2933 3390 
Q 3200 3197 3328 2828 
z
" transform="scale(0.015625)"/>
      <path id="DejaVuSans-76" d="M 191 3500 
L 800 3500 
L 1894 563 
L 2988 3500 
L 3597 3500 
L 2284 0 
L 1503 0 
L 191 3500 
z
" transform="scale(0.015625)"/>
      <path id="DejaVuSans-3a" d="M 750 794 
L 1409 794 
L 1409 0 
L 750 0 
L 750 794 
z
M 750 3309 
L 1409 3309 
L 1409 2516 
L 750 2516 
L 750 3309 
z
" transform="scale(0.015625)"/>
     </defs>
     <use xlink:href="#DejaVuSans-42"/>
     <use xlink:href="#DejaVuSans-6c" transform="translate(68.603516 0)"/>
     <use xlink:href="#DejaVuSans-6f" transform="translate(96.386719 0)"/>
     <use xlink:href="#DejaVuSans-63" transform="translate(157.568359 0)"/>
     <use xlink:href="#DejaVuSans-6b" transform="translate(212.548828 0)"/>
     <use xlink:href="#DejaVuSans-20" transform="translate(270.458984 0)"/>
     <use xlink:href="#DejaVuSans-53" transform="translate(302.246094 0)"/>
     <use xlink:href="#DejaVuSans-69" transform="translate(365.722656 0)"/>
     <use xlink:href="#DejaVuSans-7a" transform="translate(393.505859 0)"/>
     <use xlink:href="#DejaVuSans-65" transform="translate(445.996094 0)"/>
     <use xlink:href="#DejaVuSans-20" transform="translate(507.519531 0)"/>
     <use xlink:href="#DejaVuSans-3d" transform="translate(539.306641 0)"/>
     <use xlink:href="#DejaVuSans-20" transform="translate(623.095703 0)"/>
     <use xlink:href="#DejaVuSans-32" transform="translate(654.882812 0)"/>
     <use xlink:href="#DejaVuSans-4d" transform="translate(718.505859 0)"/>
     <use xlink:href="#DejaVuSans-2c" transform="translate(804.785156 0)"/>
     <use xlink:href="#DejaVuSans-20" transform="translate(836.572266 0)"/>
     <use xlink:href="#DejaVuSans-52" transform="translate(868.359375 0)"/>
     <use xlink:href="#DejaVuSans-65" transform="translate(933.341797 0)"/>
     <use xlink:href="#DejaVuSans-61" transform="translate(994.865234 0)"/>
     <use xlink:href="#DejaVuSans-64" transform="translate(1056.144531 0)"/>
     <use xlink:href="#DejaVuSans-2d" transform="translate(1119.621094 0)"/>
     <use xlink:href="#DejaVuSans-57" transform="translate(1151.705078 0)"/>
     <use xlink:href="#DejaVuSans-72" transform="translate(1246.082031 0)"/>
     <use xlink:href="#DejaVuSans-69" transform="translate(1287.195312 0)"/>
     <use xlink:href="#DejaVuSans-74" transform="translate(1314.978516 0)"/>
     <use xlink:href="#DejaVuSans-65" transform="translate(1354.1875 0)"/>
     <use xlink:href="#DejaVuSans-20" transform="translate(1415.710938 0)"/>
     <use xlink:href="#DejaVuSans-54" transform="translate(1447.498047 0)"/>
     <use xlink:href="#DejaVuSans-79" transform="translate(1492.957031 0)"/>
     <use xlink:href="#DejaVuSans-70" transform="translate(1552.136719 0)"/>
     <use xlink:href="#DejaVuSans-65" transform="translate(1615.613281 0)"/>
     <use xlink:href="#DejaVuSans-20" transform="translate(1677.136719 0)"/>
     <use xlink:href="#DejaVuSans-3d" transform="translate(1708.923828 0)"/>
     <use xlink:href="#DejaVuSans-20" transform="translate(1792.712891 0)"/>
     <use xlink:href="#DejaVuSans-52" transform="translate(1824.5 0)"/>
     <use xlink:href="#DejaVuSans-61" transform="translate(1891.732422 0)"/>
     <use xlink:href="#DejaVuSans-6e" transform="translate(1953.011719 0)"/>
     <use xlink:href="#DejaVuSans-64" transform="translate(2016.390625 0)"/>
     <use xlink:href="#DejaVuSans-6f" transform="translate(2079.867188 0)"/>
     <use xlink:href="#DejaVuSans-6d" transform="translate(2141.048828 0)"/>
     <use xlink:href="#DejaVuSans-20" transform="translate(2238.460938 0)"/>
     <use xlink:href="#DejaVuSans-52" transform="translate(2270.248047 0)"/>
     <use xlink:href="#DejaVuSans-65" transform="translate(2335.230469 0)"/>
     <use xlink:href="#DejaVuSans-61" transform="translate(2396.753906 0)"/>
     <use xlink:href="#DejaVuSans-64" transform="translate(2458.033203 0)"/>
     <use xlink:href="#DejaVuSans-2d" transform="translate(2521.509766 0)"/>
     <use xlink:href="#DejaVuSans-68" transform="translate(2557.59375 0)"/>
     <use xlink:href="#DejaVuSans-65" transform="translate(2620.972656 0)"/>
     <use xlink:href="#DejaVuSans-61" transform="translate(2682.496094 0)"/>
     <use xlink:href="#DejaVuSans-76" transform="translate(2743.775391 0)"/>
     <use xlink:href="#DejaVuSans-79" transform="translate(2802.955078 0)"/>
     <use xlink:href="#DejaVuSans-20" transform="translate(2862.134766 0)"/>
     <use xlink:href="#DejaVuSans-34" transform="translate(2893.921875 0)"/>
     <use xlink:href="#DejaVuSans-3a" transform="translate(2957.544922 0)"/>
     <use xlink:href="#DejaVuSans-31" transform="translate(2991.236328 0)"/>
    </g>
   </g>
   <g id="text_22">
    <!-- IOPS vs IO Depth -->
    <g style="fill: #262626" transform="translate(174.270312 16.318125) scale(0.12 -0.12)">
     <defs>
      <path id="DejaVuSans-Bold-49" d="M 588 4666 
L 1791 4666 
L 1791 0 
L 588 0 
L 588 4666 
z
" transform="scale(0.015625)"/>
      <path id="DejaVuSans-Bold-4f" d="M 2719 3878 
Q 2169 3878 1866 3472 
Q 1563 3066 1563 2328 
Q 1563 1594 1866 1187 
Q 2169 781 2719 781 
Q 3272 781 3575 1187 
Q 3878 1594 3878 2328 
Q 3878 3066 3575 3472 
Q 3272 3878 2719 3878 
z
M 2719 4750 
Q 3844 4750 4481 4106 
Q 5119 3463 5119 2328 
Q 5119 1197 4481 553 
Q 3844 -91 2719 -91 
Q 1597 -91 958 553 
Q 319 1197 319 2328 
Q 319 3463 958 4106 
Q 1597 4750 2719 4750 
z
" transform="scale(0.015625)"/>
      <path id="DejaVuSans-Bold-50" d="M 588 4666 
L 2584 4666 
Q 3475 4666 3951 4270 
Q 4428 3875 4428 3144 
Q 4428 2409 3951 2014 
Q 3475 1619 2584 1619 
L 1791 1619 
L 1791 0 
L 588 0 
L 588 4666 
z
M 1791 3794 
L 1791 2491 
L 2456 2491 
Q 2806 2491 2997 2661 
Q 3188 2831 3188 3144 
Q 3188 3456 2997 3625 
Q 2806 3794 2456 3794 
L 1791 3794 
z
" transform="scale(0.015625)"/>
      <path id="DejaVuSans-Bold-53" d="M 3834 4519 
L 3834 3531 
Q 3450 3703 3084 3790 
Q 2719 3878 2394 3878 
Q 1963 3878 1756 3759 
Q 1550 3641 1550 3391 
Q 1550 3203 1689 3098 
Q 1828 2994 2194 2919 
L 2706 2816 
Q 3484 2659 3812 2340 
Q 4141 2022 4141 1434 
Q 4141 663 3683 286 
Q 3225 -91 2284 -91 
Q 1841 -91 1394 -6 
Q 947 78 500 244 
L 500 1259 
Q 947 1022 1364 901 
Q 1781 781 2169 781 
Q 2563 781 2772 912 
Q 2981 1044 2981 1288 
Q 2981 1506 2839 1625 
Q 2697 1744 2272 1838 
L 1806 1941 
Q 1106 2091 782 2419 
Q 459 2747 459 3303 
Q 459 4000 909 4375 
Q 1359 4750 2203 4750 
Q 2588 4750 2994 4692 
Q 3400 4634 3834 4519 
z
" transform="scale(0.015625)"/>
      <path id="DejaVuSans-Bold-20" transform="scale(0.015625)"/>
      <path id="DejaVuSans-Bold-76" d="M 97 3500 
L 1216 3500 
L 2088 1081 
L 2956 3500 
L 4078 3500 
L 2700 0 
L 1472 0 
L 97 3500 
z
" transform="scale(0.015625)"/>
      <path id="DejaVuSans-Bold-73" d="M 3272 3391 
L 3272 2541 
Q 2913 2691 2578 2766 
Q 2244 2841 1947 2841 
Q 1628 2841 1473 2761 
Q 1319 2681 1319 2516 
Q 1319 2381 1436 2309 
Q 1553 2238 1856 2203 
L 2053 2175 
Q 2913 2066 3209 1816 
Q 3506 1566 3506 1031 
Q 3506 472 3093 190 
Q 2681 -91 1863 -91 
Q 1516 -91 1145 -36 
Q 775 19 384 128 
L 384 978 
Q 719 816 1070 734 
Q 1422 653 1784 653 
Q 2113 653 2278 743 
Q 2444 834 2444 1013 
Q 2444 1163 2330 1236 
Q 2216 1309 1875 1350 
L 1678 1375 
Q 931 1469 631 1722 
Q 331 1975 331 2491 
Q 331 3047 712 3315 
Q 1094 3584 1881 3584 
Q 2191 3584 2531 3537 
Q 2872 3491 3272 3391 
z
" transform="scale(0.015625)"/>
      <path id="DejaVuSans-Bold-44" d="M 1791 3756 
L 1791 909 
L 2222 909 
Q 2959 909 3348 1275 
Q 3738 1641 3738 2338 
Q 3738 3031 3350 3393 
Q 2963 3756 2222 3756 
L 1791 3756 
z
M 588 4666 
L 1856 4666 
Q 2919 4666 3439 4514 
Q 3959 4363 4331 4000 
Q 4659 3684 4818 3271 
Q 4978 2859 4978 2338 
Q 4978 1809 4818 1395 
Q 4659 981 4331 666 
Q 3956 303 3431 151 
Q 2906 0 1856 0 
L 588 0 
L 588 4666 
z
" transform="scale(0.015625)"/>
      <path id="DejaVuSans-Bold-65" d="M 4031 1759 
L 4031 1441 
L 1416 1441 
Q 1456 1047 1700 850 
Q 1944 653 2381 653 
Q 2734 653 3104 758 
Q 3475 863 3866 1075 
L 3866 213 
Q 3469 63 3072 -14 
Q 2675 -91 2278 -91 
Q 1328 -91 801 392 
Q 275 875 275 1747 
Q 275 2603 792 3093 
Q 1309 3584 2216 3584 
Q 3041 3584 3536 3087 
Q 4031 2591 4031 1759 
z
M 2881 2131 
Q 2881 2450 2695 2645 
Q 2509 2841 2209 2841 
Q 1884 2841 1681 2658 
Q 1478 2475 1428 2131 
L 2881 2131 
z
" transform="scale(0.015625)"/>
      <path id="DejaVuSans-Bold-70" d="M 1656 506 
L 1656 -1331 
L 538 -1331 
L 538 3500 
L 1656 3500 
L 1656 2988 
Q 1888 3294 2169 3439 
Q 2450 3584 2816 3584 
Q 3463 3584 3878 3070 
Q 4294 2556 4294 1747 
Q 4294 938 3878 423 
Q 3463 -91 2816 -91 
Q 2450 -91 2169 54 
Q 1888 200 1656 506 
z
M 2400 2772 
Q 2041 2772 1848 2508 
Q 1656 2244 1656 1747 
Q 1656 1250 1848 986 
Q 2041 722 2400 722 
Q 2759 722 2948 984 
Q 3138 1247 3138 1747 
Q 3138 2247 2948 2509 
Q 2759 2772 2400 2772 
z
" transform="scale(0.015625)"/>
      <path id="DejaVuSans-Bold-74" d="M 1759 4494 
L 1759 3500 
L 2913 3500 
L 2913 2700 
L 1759 2700 
L 1759 1216 
Q 1759 972 1856 886 
Q 1953 800 2241 800 
L 2816 800 
L 2816 0 
L 1856 0 
Q 1194 0 917 276 
Q 641 553 641 1216 
L 641 2700 
L 84 2700 
L 84 3500 
L 641 3500 
L 641 4494 
L 1759 4494 
z
" transform="scale(0.015625)"/>
      <path id="DejaVuSans-Bold-68" d="M 4056 2131 
L 4056 0 
L 2931 0 
L 2931 347 
L 2931 1625 
Q 2931 2084 2911 2256 
Q 2891 2428 2841 2509 
Q 2775 2619 2662 2680 
Q 2550 2741 2406 2741 
Q 2056 2741 1856 2470 
Q 1656 2200 1656 1722 
L 1656 0 
L 538 0 
L 538 4863 
L 1656 4863 
L 1656 2988 
Q 1909 3294 2193 3439 
Q 2478 3584 2822 3584 
Q 3428 3584 3742 3212 
Q 4056 2841 4056 2131 
z
" transform="scale(0.015625)"/>
     </defs>
     <use xlink:href="#DejaVuSans-Bold-49"/>
     <use xlink:href="#DejaVuSans-Bold-4f" transform="translate(37.207031 0)"/>
     <use xlink:href="#DejaVuSans-Bold-50" transform="translate(122.216797 0)"/>
     <use xlink:href="#DejaVuSans-Bold-53" transform="translate(195.507812 0)"/>
     <use xlink:href="#DejaVuSans-Bold-20" transform="translate(267.529297 0)"/>
     <use xlink:href="#DejaVuSans-Bold-76" transform="translate(302.34375 0)"/>
     <use xlink:href="#DejaVuSans-Bold-73" transform="translate(367.529297 0)"/>
     <use xlink:href="#DejaVuSans-Bold-20" transform="translate(427.050781 0)"/>
     <use xlink:href="#DejaVuSans-Bold-49" transform="translate(461.865234 0)"/>
     <use xlink:href="#DejaVuSans-Bold-4f" transform="translate(499.072266 0)"/>
     <use xlink:href="#DejaVuSans-Bold-20" transform="translate(584.082031 0)"/>
     <use xlink:href="#DejaVuSans-Bold-44" transform="translate(618.896484 0)"/>
     <use xlink:href="#DejaVuSans-Bold-65" transform="translate(701.904297 0)"/>
     <use xlink:href="#DejaVuSans-Bold-70" transform="translate(769.726562 0)"/>
     <use xlink:href="#DejaVuSans-Bold-74" transform="translate(841.308594 0)"/>
     <use xlink:href="#DejaVuSans-Bold-68" transform="translate(889.111328 0)"/>
    </g>
   </g>
   <g id="legend_1">
    <g id="text_23">
     <!-- Number of Jobs -->
     <g style="fill: #262626" transform="translate(413.934375 142.08285) scale(0.1 -0.1)">
      <defs>
       <path id="DejaVuSans-4e" d="M 628 4666 
L 1478 4666 
L 3547 763 
L 3547 4666 
L 4159 4666 
L 4159 0 
L 3309 0 
L 1241 3903 
L 1241 0 
L 628 0 
L 628 4666 
z
" transform="scale(0.015625)"/>
       <path id="DejaVuSans-75" d="M 544 1381 
L 544 3500 
L 1119 3500 
L 1119 1403 
Q 1119 906 1312 657 
Q 1506 409 1894 409 
Q 2359 409 2629 706 
Q 2900 1003 2900 1516 
L 2900 3500 
L 3475 3500 
L 3475 0 
L 2900 0 
L 2900 538 
Q 2691 219 2414 64 
Q 2138 -91 1772 -91 
Q 1169 -91 856 284 
Q 544 659 544 1381 
z
M 1991 3584 
L 1991 3584 
z
" transform="scale(0.015625)"/>
       <path id="DejaVuSans-62" d="M 3116 1747 
Q 3116 2381 2855 2742 
Q 2594 3103 2138 3103 
Q 1681 3103 1420 2742 
Q 1159 2381 1159 1747 
Q 1159 1113 1420 752 
Q 1681 391 2138 391 
Q 2594 391 2855 752 
Q 3116 1113 3116 1747 
z
M 1159 2969 
Q 1341 3281 1617 3432 
Q 1894 3584 2278 3584 
Q 2916 3584 3314 3078 
Q 3713 2572 3713 1747 
Q 3713 922 3314 415 
Q 2916 -91 2278 -91 
Q 1894 -91 1617 61 
Q 1341 213 1159 525 
L 1159 0 
L 581 0 
L 581 4863 
L 1159 4863 
L 1159 2969 
z
" transform="scale(0.015625)"/>
       <path id="DejaVuSans-66" d="M 2375 4863 
L 2375 4384 
L 1825 4384 
Q 1516 4384 1395 4259 
Q 1275 4134 1275 3809 
L 1275 3500 
L 2222 3500 
L 2222 3053 
L 1275 3053 
L 1275 0 
L 697 0 
L 697 3053 
L 147 3053 
L 147 3500 
L 697 3500 
L 697 3744 
Q 697 4328 969 4595 
Q 1241 4863 1831 4863 
L 2375 4863 
z
" transform="scale(0.015625)"/>
       <path id="DejaVuSans-4a" d="M 628 4666 
L 1259 4666 
L 1259 325 
Q 1259 -519 939 -900 
Q 619 -1281 -91 -1281 
L -331 -1281 
L -331 -750 
L -134 -750 
Q 284 -750 456 -515 
Q 628 -281 628 325 
L 628 4666 
z
" transform="scale(0.015625)"/>
       <path id="DejaVuSans-73" d="M 2834 3397 
L 2834 2853 
Q 2591 2978 2328 3040 
Q 2066 3103 1784 3103 
Q 1356 3103 1142 2972 
Q 928 2841 928 2578 
Q 928 2378 1081 2264 
Q 1234 2150 1697 2047 
L 1894 2003 
Q 2506 1872 2764 1633 
Q 3022 1394 3022 966 
Q 3022 478 2636 193 
Q 2250 -91 1575 -91 
Q 1294 -91 989 -36 
Q 684 19 347 128 
L 347 722 
Q 666 556 975 473 
Q 1284 391 1588 391 
Q 1994 391 2212 530 
Q 2431 669 2431 922 
Q 2431 1156 2273 1281 
Q 2116 1406 1581 1522 
L 1381 1569 
Q 847 1681 609 1914 
Q 372 2147 372 2553 
Q 372 3047 722 3315 
Q 1072 3584 1716 3584 
Q 2034 3584 2315 3537 
Q 2597 3491 2834 3397 
z
" transform="scale(0.015625)"/>
      </defs>
      <use xlink:href="#DejaVuSans-4e"/>
      <use xlink:href="#DejaVuSans-75" transform="translate(74.804688 0)"/>
      <use xlink:href="#DejaVuSans-6d" transform="translate(138.183594 0)"/>
      <use xlink:href="#DejaVuSans-62" transform="translate(235.595703 0)"/>
      <use xlink:href="#DejaVuSans-65" transform="translate(299.072266 0)"/>
      <use xlink:href="#DejaVuSans-72" transform="translate(360.595703 0)"/>
      <use xlink:href="#DejaVuSans-20" transform="translate(401.708984 0)"/>
      <use xlink:href="#DejaVuSans-6f" transform="translate(433.496094 0)"/>
      <use xlink:href="#DejaVuSans-66" transform="translate(494.677734 0)"/>
      <use xlink:href="#DejaVuSans-20" transform="translate(529.882812 0)"/>
      <use xlink:href="#DejaVuSans-4a" transform="translate(561.669922 0)"/>
      <use xlink:href="#DejaVuSans-6f" transform="translate(591.162109 0)"/>
      <use xlink:href="#DejaVuSans-62" transform="translate(652.34375 0)"/>
      <use xlink:href="#DejaVuSans-73" transform="translate(715.820312 0)"/>
     </g>
    </g>
    <g id="line2d_23">
     <path d="M 428.7875 153.260975 
L 438.7875 153.260975 
L 448.7875 153.260975 
" style="fill: none; stroke: #3b0f70; stroke-width: 1.5; stroke-linecap: round"/>
    </g>
    <g id="text_24">
     <!-- 16 -->
     <g style="fill: #262626" transform="translate(456.7875 156.760975) scale(0.1 -0.1)">
      <use xlink:href="#DejaVuSans-31"/>
      <use xlink:href="#DejaVuSans-36" transform="translate(63.623047 0)"/>
     </g>
    </g>
    <g id="line2d_24">
     <path d="M 428.7875 167.9391 
L 438.7875 167.9391 
L 448.7875 167.9391 
" style="fill: none; stroke: #8c2981; stroke-width: 1.5; stroke-linecap: round"/>
    </g>
    <g id="text_25">
     <!-- 32 -->
     <g style="fill: #262626" transform="translate(456.7875 171.4391) scale(0.1 -0.1)">
      <use xlink:href="#DejaVuSans-33"/>
      <use xlink:href="#DejaVuSans-32" transform="translate(63.623047 0)"/>
     </g>
    </g>
    <g id="line2d_25">
     <path d="M 428.7875 182.617225 
L 438.7875 182.617225 
L 448.7875 182.617225 
" style="fill: none; stroke: #de4968; stroke-width: 1.5; stroke-linecap: round"/>
    </g>
    <g id="text_26">
     <!-- 64 -->
     <g style="fill: #262626" transform="translate(456.7875 186.117225) scale(0.1 -0.1)">
      <use xlink:href="#DejaVuSans-36"/>
      <use xlink:href="#DejaVuSans-34" transform="translate(63.623047 0)"/>
     </g>
    </g>
    <g id="line2d_26">
     <path d="M 428.7875 197.29535 
L 438.7875 197.29535 
L 448.7875 197.29535 
" style="fill: none; stroke: #fe9f6d; stroke-width: 1.5; stroke-linecap: round"/>
    </g>
    <g id="text_27">
     <!-- 128 -->
     <g style="fill: #262626" transform="translate(456.7875 200.79535) scale(0.1 -0.1)">
      <use xlink:href="#DejaVuSans-31"/>
      <use xlink:href="#DejaVuSans-32" transform="translate(63.623047 0)"/>
      <use xlink:href="#DejaVuSans-38" transform="translate(127.246094 0)"/>
     </g>
    </g>
   </g>
  </g>
 </g>
 <defs>
  <clipPath id="pfa620667be">
   <rect x="53.328125" y="35.623725" width="357.12" height="266.112"/>
  </clipPath>
 </defs>
</svg>
