<?xml version="1.0" encoding="utf-8" standalone="no"?>
<!DOCTYPE svg PUBLIC "-//W3C//DTD SVG 1.1//EN"
  "http://www.w3.org/Graphics/SVG/1.1/DTD/svg11.dtd">
<svg xmlns:xlink="http://www.w3.org/1999/xlink" width="501.928125pt" height="339.291975pt" viewBox="0 0 501.928125 339.291975" xmlns="http://www.w3.org/2000/svg" version="1.1">
 <metadata>
  <rdf:RDF xmlns:dc="http://purl.org/dc/elements/1.1/" xmlns:cc="http://creativecommons.org/ns#" xmlns:rdf="http://www.w3.org/1999/02/22-rdf-syntax-ns#">
   <cc:Work>
    <dc:type rdf:resource="http://purl.org/dc/dcmitype/StillImage"/>
    <dc:date>2025-09-11T11:34:36.844730</dc:date>
    <dc:format>image/svg+xml</dc:format>
    <dc:creator>
     <cc:Agent>
      <dc:title>Matplotlib v3.10.6, https://matplotlib.org/</dc:title>
     </cc:Agent>
    </dc:creator>
   </cc:Work>
  </rdf:RDF>
 </metadata>
 <defs>
  <style type="text/css">*{stroke-linejoin: round; stroke-linecap: butt}</style>
 </defs>
 <g id="figure_1">
  <g id="patch_1">
   <path d="M 0 339.291975 
L 501.928125 339.291975 
L 501.928125 0 
L 0 0 
z
" style="fill: #ffffff"/>
  </g>
  <g id="axes_1">
   <g id="patch_2">
    <path d="M 53.328125 301.735725 
L 410.448125 301.735725 
L 410.448125 35.623725 
L 53.328125 35.623725 
z
" style="fill: #ffffff"/>
   </g>
   <g id="matplotlib.axis_1">
    <g id="xtick_1">
     <g id="line2d_1">
      <path d="M 394.215398 301.735725 
L 394.215398 35.623725 
" clip-path="url(#p18404b584a)" style="fill: none; stroke: #cccccc; stroke-width: 0.8; stroke-linecap: round"/>
     </g>
     <g id="text_1">
      <!-- 128 -->
      <g style="fill: #262626" transform="translate(384.671648 316.334162) scale(0.1 -0.1)">
       <defs>
        <path id="DejaVuSans-31" d="M 794 531 
L 1825 531 
L 1825 4091 
L 703 3866 
L 703 4441 
L 1819 4666 
L 2450 4666 
L 2450 531 
L 3481 531 
L 3481 0 
L 794 0 
L 794 531 
z
" transform="scale(0.015625)"/>
        <path id="DejaVuSans-32" d="M 1228 531 
L 3431 531 
L 3431 0 
L 469 0 
L 469 531 
Q 828 903 1448 1529 
Q 2069 2156 2228 2338 
Q 2531 2678 2651 2914 
Q 2772 3150 2772 3378 
Q 2772 3750 2511 3984 
Q 2250 4219 1831 4219 
Q 1534 4219 1204 4116 
Q 875 4013 500 3803 
L 500 4441 
Q 881 4594 1212 4672 
Q 1544 4750 1819 4750 
Q 2544 4750 2975 4387 
Q 3406 4025 3406 3419 
Q 3406 3131 3298 2873 
Q 3191 2616 2906 2266 
Q 2828 2175 2409 1742 
Q 1991 1309 1228 531 
z
" transform="scale(0.015625)"/>
        <path id="DejaVuSans-38" d="M 2034 2216 
Q 1584 2216 1326 1975 
Q 1069 1734 1069 1313 
Q 1069 891 1326 650 
Q 1584 409 2034 409 
Q 2484 409 2743 651 
Q 3003 894 3003 1313 
Q 3003 1734 2745 1975 
Q 2488 2216 2034 2216 
z
M 1403 2484 
Q 997 2584 770 2862 
Q 544 3141 544 3541 
Q 544 4100 942 4425 
Q 1341 4750 2034 4750 
Q 2731 4750 3128 4425 
Q 3525 4100 3525 3541 
Q 3525 3141 3298 2862 
Q 3072 2584 2669 2484 
Q 3125 2378 3379 2068 
Q 3634 1759 3634 1313 
Q 3634 634 3220 271 
Q 2806 -91 2034 -91 
Q 1263 -91 848 271 
Q 434 634 434 1313 
Q 434 1759 690 2068 
Q 947 2378 1403 2484 
z
M 1172 3481 
Q 1172 3119 1398 2916 
Q 1625 2713 2034 2713 
Q 2441 2713 2670 2916 
Q 2900 3119 2900 3481 
Q 2900 3844 2670 4047 
Q 2441 4250 2034 4250 
Q 1625 4250 1398 4047 
Q 1172 3844 1172 3481 
z
" transform="scale(0.015625)"/>
       </defs>
       <use xlink:href="#DejaVuSans-31"/>
       <use xlink:href="#DejaVuSans-32" transform="translate(63.623047 0)"/>
       <use xlink:href="#DejaVuSans-38" transform="translate(127.246094 0)"/>
      </g>
     </g>
    </g>
    <g id="xtick_2">
     <g id="line2d_2">
      <path d="M 115.940073 301.735725 
L 115.940073 35.623725 
" clip-path="url(#p18404b584a)" style="fill: none; stroke: #cccccc; stroke-width: 0.8; stroke-linecap: round"/>
     </g>
     <g id="text_2">
      <!-- 32 -->
      <g style="fill: #262626" transform="translate(109.577573 316.334162) scale(0.1 -0.1)">
       <defs>
        <path id="DejaVuSans-33" d="M 2597 2516 
Q 3050 2419 3304 2112 
Q 3559 1806 3559 1356 
Q 3559 666 3084 287 
Q 2609 -91 1734 -91 
Q 1441 -91 1130 -33 
Q 819 25 488 141 
L 488 750 
Q 750 597 1062 519 
Q 1375 441 1716 441 
Q 2309 441 2620 675 
Q 2931 909 2931 1356 
Q 2931 1769 2642 2001 
Q 2353 2234 1838 2234 
L 1294 2234 
L 1294 2753 
L 1863 2753 
Q 2328 2753 2575 2939 
Q 2822 3125 2822 3475 
Q 2822 3834 2567 4026 
Q 2313 4219 1838 4219 
Q 1578 4219 1281 4162 
Q 984 4106 628 3988 
L 628 4550 
Q 988 4650 1302 4700 
Q 1616 4750 1894 4750 
Q 2613 4750 3031 4423 
Q 3450 4097 3450 3541 
Q 3450 3153 3228 2886 
Q 3006 2619 2597 2516 
z
" transform="scale(0.015625)"/>
       </defs>
       <use xlink:href="#DejaVuSans-33"/>
       <use xlink:href="#DejaVuSans-32" transform="translate(63.623047 0)"/>
      </g>
     </g>
    </g>
    <g id="xtick_3">
     <g id="line2d_3">
      <path d="M 208.698515 301.735725 
L 208.698515 35.623725 
" clip-path="url(#p18404b584a)" style="fill: none; stroke: #cccccc; stroke-width: 0.8; stroke-linecap: round"/>
     </g>
     <g id="text_3">
      <!-- 64 -->
      <g style="fill: #262626" transform="translate(202.336015 316.334162) scale(0.1 -0.1)">
       <defs>
        <path id="DejaVuSans-36" d="M 2113 2584 
Q 1688 2584 1439 2293 
Q 1191 2003 1191 1497 
Q 1191 994 1439 701 
Q 1688 409 2113 409 
Q 2538 409 2786 701 
Q 3034 994 3034 1497 
Q 3034 2003 2786 2293 
Q 2538 2584 2113 2584 
z
M 3366 4563 
L 3366 3988 
Q 3128 4100 2886 4159 
Q 2644 4219 2406 4219 
Q 1781 4219 1451 3797 
Q 1122 3375 1075 2522 
Q 1259 2794 1537 2939 
Q 1816 3084 2150 3084 
Q 2853 3084 3261 2657 
Q 3669 2231 3669 1497 
Q 3669 778 3244 343 
Q 2819 -91 2113 -91 
Q 1303 -91 875 529 
Q 447 1150 447 2328 
Q 447 3434 972 4092 
Q 1497 4750 2381 4750 
Q 2619 4750 2861 4703 
Q 3103 4656 3366 4563 
z
" transform="scale(0.015625)"/>
        <path id="DejaVuSans-34" d="M 2419 4116 
L 825 1625 
L 2419 1625 
L 2419 4116 
z
M 2253 4666 
L 3047 4666 
L 3047 1625 
L 3713 1625 
L 3713 1100 
L 3047 1100 
L 3047 0 
L 2419 0 
L 2419 1100 
L 313 1100 
L 313 1709 
L 2253 4666 
z
" transform="scale(0.015625)"/>
       </defs>
       <use xlink:href="#DejaVuSans-36"/>
       <use xlink:href="#DejaVuSans-34" transform="translate(63.623047 0)"/>
      </g>
     </g>
    </g>
    <g id="xtick_4">
     <g id="line2d_4">
      <path d="M 69.560852 301.735725 
L 69.560852 35.623725 
" clip-path="url(#p18404b584a)" style="fill: none; stroke: #cccccc; stroke-width: 0.8; stroke-linecap: round"/>
     </g>
     <g id="text_4">
      <!-- 16 -->
      <g style="fill: #262626" transform="translate(63.198352 316.334162) scale(0.1 -0.1)">
       <use xlink:href="#DejaVuSans-31"/>
       <use xlink:href="#DejaVuSans-36" transform="translate(63.623047 0)"/>
      </g>
     </g>
    </g>
    <g id="text_5">
     <!-- Number of Jobs -->
     <g style="fill: #262626" transform="translate(193.49125 330.012287) scale(0.1 -0.1)">
      <defs>
       <path id="DejaVuSans-4e" d="M 628 4666 
L 1478 4666 
L 3547 763 
L 3547 4666 
L 4159 4666 
L 4159 0 
L 3309 0 
L 1241 3903 
L 1241 0 
L 628 0 
L 628 4666 
z
" transform="scale(0.015625)"/>
       <path id="DejaVuSans-75" d="M 544 1381 
L 544 3500 
L 1119 3500 
L 1119 1403 
Q 1119 906 1312 657 
Q 1506 409 1894 409 
Q 2359 409 2629 706 
Q 2900 1003 2900 1516 
L 2900 3500 
L 3475 3500 
L 3475 0 
L 2900 0 
L 2900 538 
Q 2691 219 2414 64 
Q 2138 -91 1772 -91 
Q 1169 -91 856 284 
Q 544 659 544 1381 
z
M 1991 3584 
L 1991 3584 
z
" transform="scale(0.015625)"/>
       <path id="DejaVuSans-6d" d="M 3328 2828 
Q 3544 3216 3844 3400 
Q 4144 3584 4550 3584 
Q 5097 3584 5394 3201 
Q 5691 2819 5691 2113 
L 5691 0 
L 5113 0 
L 5113 2094 
Q 5113 2597 4934 2840 
Q 4756 3084 4391 3084 
Q 3944 3084 3684 2787 
Q 3425 2491 3425 1978 
L 3425 0 
L 2847 0 
L 2847 2094 
Q 2847 2600 2669 2842 
Q 2491 3084 2119 3084 
Q 1678 3084 1418 2786 
Q 1159 2488 1159 1978 
L 1159 0 
L 581 0 
L 581 3500 
L 1159 3500 
L 1159 2956 
Q 1356 3278 1631 3431 
Q 1906 3584 2284 3584 
Q 2666 3584 2933 3390 
Q 3200 3197 3328 2828 
z
" transform="scale(0.015625)"/>
       <path id="DejaVuSans-62" d="M 3116 1747 
Q 3116 2381 2855 2742 
Q 2594 3103 2138 3103 
Q 1681 3103 1420 2742 
Q 1159 2381 1159 1747 
Q 1159 1113 1420 752 
Q 1681 391 2138 391 
Q 2594 391 2855 752 
Q 3116 1113 3116 1747 
z
M 1159 2969 
Q 1341 3281 1617 3432 
Q 1894 3584 2278 3584 
Q 2916 3584 3314 3078 
Q 3713 2572 3713 1747 
Q 3713 922 3314 415 
Q 2916 -91 2278 -91 
Q 1894 -91 1617 61 
Q 1341 213 1159 525 
L 1159 0 
L 581 0 
L 581 4863 
L 1159 4863 
L 1159 2969 
z
" transform="scale(0.015625)"/>
       <path id="DejaVuSans-65" d="M 3597 1894 
L 3597 1613 
L 953 1613 
Q 991 1019 1311 708 
Q 1631 397 2203 397 
Q 2534 397 2845 478 
Q 3156 559 3463 722 
L 3463 178 
Q 3153 47 2828 -22 
Q 2503 -91 2169 -91 
Q 1331 -91 842 396 
Q 353 884 353 1716 
Q 353 2575 817 3079 
Q 1281 3584 2069 3584 
Q 2775 3584 3186 3129 
Q 3597 2675 3597 1894 
z
M 3022 2063 
Q 3016 2534 2758 2815 
Q 2500 3097 2075 3097 
Q 1594 3097 1305 2825 
Q 1016 2553 972 2059 
L 3022 2063 
z
" transform="scale(0.015625)"/>
       <path id="DejaVuSans-72" d="M 2631 2963 
Q 2534 3019 2420 3045 
Q 2306 3072 2169 3072 
Q 1681 3072 1420 2755 
Q 1159 2438 1159 1844 
L 1159 0 
L 581 0 
L 581 3500 
L 1159 3500 
L 1159 2956 
Q 1341 3275 1631 3429 
Q 1922 3584 2338 3584 
Q 2397 3584 2469 3576 
Q 2541 3569 2628 3553 
L 2631 2963 
z
" transform="scale(0.015625)"/>
       <path id="DejaVuSans-20" transform="scale(0.015625)"/>
       <path id="DejaVuSans-6f" d="M 1959 3097 
Q 1497 3097 1228 2736 
Q 959 2375 959 1747 
Q 959 1119 1226 758 
Q 1494 397 1959 397 
Q 2419 397 2687 759 
Q 2956 1122 2956 1747 
Q 2956 2369 2687 2733 
Q 2419 3097 1959 3097 
z
M 1959 3584 
Q 2709 3584 3137 3096 
Q 3566 2609 3566 1747 
Q 3566 888 3137 398 
Q 2709 -91 1959 -91 
Q 1206 -91 779 398 
Q 353 888 353 1747 
Q 353 2609 779 3096 
Q 1206 3584 1959 3584 
z
" transform="scale(0.015625)"/>
       <path id="DejaVuSans-66" d="M 2375 4863 
L 2375 4384 
L 1825 4384 
Q 1516 4384 1395 4259 
Q 1275 4134 1275 3809 
L 1275 3500 
L 2222 3500 
L 2222 3053 
L 1275 3053 
L 1275 0 
L 697 0 
L 697 3053 
L 147 3053 
L 147 3500 
L 697 3500 
L 697 3744 
Q 697 4328 969 4595 
Q 1241 4863 1831 4863 
L 2375 4863 
z
" transform="scale(0.015625)"/>
       <path id="DejaVuSans-4a" d="M 628 4666 
L 1259 4666 
L 1259 325 
Q 1259 -519 939 -900 
Q 619 -1281 -91 -1281 
L -331 -1281 
L -331 -750 
L -134 -750 
Q 284 -750 456 -515 
Q 628 -281 628 325 
L 628 4666 
z
" transform="scale(0.015625)"/>
       <path id="DejaVuSans-73" d="M 2834 3397 
L 2834 2853 
Q 2591 2978 2328 3040 
Q 2066 3103 1784 3103 
Q 1356 3103 1142 2972 
Q 928 2841 928 2578 
Q 928 2378 1081 2264 
Q 1234 2150 1697 2047 
L 1894 2003 
Q 2506 1872 2764 1633 
Q 3022 1394 3022 966 
Q 3022 478 2636 193 
Q 2250 -91 1575 -91 
Q 1294 -91 989 -36 
Q 684 19 347 128 
L 347 722 
Q 666 556 975 473 
Q 1284 391 1588 391 
Q 1994 391 2212 530 
Q 2431 669 2431 922 
Q 2431 1156 2273 1281 
Q 2116 1406 1581 1522 
L 1381 1569 
Q 847 1681 609 1914 
Q 372 2147 372 2553 
Q 372 3047 722 3315 
Q 1072 3584 1716 3584 
Q 2034 3584 2315 3537 
Q 2597 3491 2834 3397 
z
" transform="scale(0.015625)"/>
      </defs>
      <use xlink:href="#DejaVuSans-4e"/>
      <use xlink:href="#DejaVuSans-75" transform="translate(74.804688 0)"/>
      <use xlink:href="#DejaVuSans-6d" transform="translate(138.183594 0)"/>
      <use xlink:href="#DejaVuSans-62" transform="translate(235.595703 0)"/>
      <use xlink:href="#DejaVuSans-65" transform="translate(299.072266 0)"/>
      <use xlink:href="#DejaVuSans-72" transform="translate(360.595703 0)"/>
      <use xlink:href="#DejaVuSans-20" transform="translate(401.708984 0)"/>
      <use xlink:href="#DejaVuSans-6f" transform="translate(433.496094 0)"/>
      <use xlink:href="#DejaVuSans-66" transform="translate(494.677734 0)"/>
      <use xlink:href="#DejaVuSans-20" transform="translate(529.882812 0)"/>
      <use xlink:href="#DejaVuSans-4a" transform="translate(561.669922 0)"/>
      <use xlink:href="#DejaVuSans-6f" transform="translate(591.162109 0)"/>
      <use xlink:href="#DejaVuSans-62" transform="translate(652.34375 0)"/>
      <use xlink:href="#DejaVuSans-73" transform="translate(715.820312 0)"/>
     </g>
    </g>
   </g>
   <g id="matplotlib.axis_2">
    <g id="ytick_1">
     <g id="line2d_5">
      <path d="M 53.328125 284.040053 
L 410.448125 284.040053 
" clip-path="url(#p18404b584a)" style="fill: none; stroke: #cccccc; stroke-width: 0.8; stroke-linecap: round"/>
     </g>
     <g id="text_6">
      <!-- 4000 -->
      <g style="fill: #262626" transform="translate(20.878125 287.839272) scale(0.1 -0.1)">
       <defs>
        <path id="DejaVuSans-30" d="M 2034 4250 
Q 1547 4250 1301 3770 
Q 1056 3291 1056 2328 
Q 1056 1369 1301 889 
Q 1547 409 2034 409 
Q 2525 409 2770 889 
Q 3016 1369 3016 2328 
Q 3016 3291 2770 3770 
Q 2525 4250 2034 4250 
z
M 2034 4750 
Q 2819 4750 3233 4129 
Q 3647 3509 3647 2328 
Q 3647 1150 3233 529 
Q 2819 -91 2034 -91 
Q 1250 -91 836 529 
Q 422 1150 422 2328 
Q 422 3509 836 4129 
Q 1250 4750 2034 4750 
z
" transform="scale(0.015625)"/>
       </defs>
       <use xlink:href="#DejaVuSans-34"/>
       <use xlink:href="#DejaVuSans-30" transform="translate(63.623047 0)"/>
       <use xlink:href="#DejaVuSans-30" transform="translate(127.246094 0)"/>
       <use xlink:href="#DejaVuSans-30" transform="translate(190.869141 0)"/>
      </g>
     </g>
    </g>
    <g id="ytick_2">
     <g id="line2d_6">
      <path d="M 53.328125 248.599092 
L 410.448125 248.599092 
" clip-path="url(#p18404b584a)" style="fill: none; stroke: #cccccc; stroke-width: 0.8; stroke-linecap: round"/>
     </g>
     <g id="text_7">
      <!-- 4500 -->
      <g style="fill: #262626" transform="translate(20.878125 252.398311) scale(0.1 -0.1)">
       <defs>
        <path id="DejaVuSans-35" d="M 691 4666 
L 3169 4666 
L 3169 4134 
L 1269 4134 
L 1269 2991 
Q 1406 3038 1543 3061 
Q 1681 3084 1819 3084 
Q 2600 3084 3056 2656 
Q 3513 2228 3513 1497 
Q 3513 744 3044 326 
Q 2575 -91 1722 -91 
Q 1428 -91 1123 -41 
Q 819 9 494 109 
L 494 744 
Q 775 591 1075 516 
Q 1375 441 1709 441 
Q 2250 441 2565 725 
Q 2881 1009 2881 1497 
Q 2881 1984 2565 2268 
Q 2250 2553 1709 2553 
Q 1456 2553 1204 2497 
Q 953 2441 691 2322 
L 691 4666 
z
" transform="scale(0.015625)"/>
       </defs>
       <use xlink:href="#DejaVuSans-34"/>
       <use xlink:href="#DejaVuSans-35" transform="translate(63.623047 0)"/>
       <use xlink:href="#DejaVuSans-30" transform="translate(127.246094 0)"/>
       <use xlink:href="#DejaVuSans-30" transform="translate(190.869141 0)"/>
      </g>
     </g>
    </g>
    <g id="ytick_3">
     <g id="line2d_7">
      <path d="M 53.328125 213.158131 
L 410.448125 213.158131 
" clip-path="url(#p18404b584a)" style="fill: none; stroke: #cccccc; stroke-width: 0.8; stroke-linecap: round"/>
     </g>
     <g id="text_8">
      <!-- 5000 -->
      <g style="fill: #262626" transform="translate(20.878125 216.95735) scale(0.1 -0.1)">
       <use xlink:href="#DejaVuSans-35"/>
       <use xlink:href="#DejaVuSans-30" transform="translate(63.623047 0)"/>
       <use xlink:href="#DejaVuSans-30" transform="translate(127.246094 0)"/>
       <use xlink:href="#DejaVuSans-30" transform="translate(190.869141 0)"/>
      </g>
     </g>
    </g>
    <g id="ytick_4">
     <g id="line2d_8">
      <path d="M 53.328125 177.71717 
L 410.448125 177.71717 
" clip-path="url(#p18404b584a)" style="fill: none; stroke: #cccccc; stroke-width: 0.8; stroke-linecap: round"/>
     </g>
     <g id="text_9">
      <!-- 5500 -->
      <g style="fill: #262626" transform="translate(20.878125 181.516389) scale(0.1 -0.1)">
       <use xlink:href="#DejaVuSans-35"/>
       <use xlink:href="#DejaVuSans-35" transform="translate(63.623047 0)"/>
       <use xlink:href="#DejaVuSans-30" transform="translate(127.246094 0)"/>
       <use xlink:href="#DejaVuSans-30" transform="translate(190.869141 0)"/>
      </g>
     </g>
    </g>
    <g id="ytick_5">
     <g id="line2d_9">
      <path d="M 53.328125 142.276209 
L 410.448125 142.276209 
" clip-path="url(#p18404b584a)" style="fill: none; stroke: #cccccc; stroke-width: 0.8; stroke-linecap: round"/>
     </g>
     <g id="text_10">
      <!-- 6000 -->
      <g style="fill: #262626" transform="translate(20.878125 146.075428) scale(0.1 -0.1)">
       <use xlink:href="#DejaVuSans-36"/>
       <use xlink:href="#DejaVuSans-30" transform="translate(63.623047 0)"/>
       <use xlink:href="#DejaVuSans-30" transform="translate(127.246094 0)"/>
       <use xlink:href="#DejaVuSans-30" transform="translate(190.869141 0)"/>
      </g>
     </g>
    </g>
    <g id="ytick_6">
     <g id="line2d_10">
      <path d="M 53.328125 106.835248 
L 410.448125 106.835248 
" clip-path="url(#p18404b584a)" style="fill: none; stroke: #cccccc; stroke-width: 0.8; stroke-linecap: round"/>
     </g>
     <g id="text_11">
      <!-- 6500 -->
      <g style="fill: #262626" transform="translate(20.878125 110.634467) scale(0.1 -0.1)">
       <use xlink:href="#DejaVuSans-36"/>
       <use xlink:href="#DejaVuSans-35" transform="translate(63.623047 0)"/>
       <use xlink:href="#DejaVuSans-30" transform="translate(127.246094 0)"/>
       <use xlink:href="#DejaVuSans-30" transform="translate(190.869141 0)"/>
      </g>
     </g>
    </g>
    <g id="ytick_7">
     <g id="line2d_11">
      <path d="M 53.328125 71.394287 
L 410.448125 71.394287 
" clip-path="url(#p18404b584a)" style="fill: none; stroke: #cccccc; stroke-width: 0.8; stroke-linecap: round"/>
     </g>
     <g id="text_12">
      <!-- 7000 -->
      <g style="fill: #262626" transform="translate(20.878125 75.193506) scale(0.1 -0.1)">
       <defs>
        <path id="DejaVuSans-37" d="M 525 4666 
L 3525 4666 
L 3525 4397 
L 1831 0 
L 1172 0 
L 2766 4134 
L 525 4134 
L 525 4666 
z
" transform="scale(0.015625)"/>
       </defs>
       <use xlink:href="#DejaVuSans-37"/>
       <use xlink:href="#DejaVuSans-30" transform="translate(63.623047 0)"/>
       <use xlink:href="#DejaVuSans-30" transform="translate(127.246094 0)"/>
       <use xlink:href="#DejaVuSans-30" transform="translate(190.869141 0)"/>
      </g>
     </g>
    </g>
    <g id="ytick_8">
     <g id="line2d_12">
      <path d="M 53.328125 35.953326 
L 410.448125 35.953326 
" clip-path="url(#p18404b584a)" style="fill: none; stroke: #cccccc; stroke-width: 0.8; stroke-linecap: round"/>
     </g>
     <g id="text_13">
      <!-- 7500 -->
      <g style="fill: #262626" transform="translate(20.878125 39.752545) scale(0.1 -0.1)">
       <use xlink:href="#DejaVuSans-37"/>
       <use xlink:href="#DejaVuSans-35" transform="translate(63.623047 0)"/>
       <use xlink:href="#DejaVuSans-30" transform="translate(127.246094 0)"/>
       <use xlink:href="#DejaVuSans-30" transform="translate(190.869141 0)"/>
      </g>
     </g>
    </g>
    <g id="text_14">
     <!-- IOPS -->
     <g style="fill: #262626" transform="translate(14.798438 180.279725) rotate(-90) scale(0.1 -0.1)">
      <defs>
       <path id="DejaVuSans-49" d="M 628 4666 
L 1259 4666 
L 1259 0 
L 628 0 
L 628 4666 
z
" transform="scale(0.015625)"/>
       <path id="DejaVuSans-4f" d="M 2522 4238 
Q 1834 4238 1429 3725 
Q 1025 3213 1025 2328 
Q 1025 1447 1429 934 
Q 1834 422 2522 422 
Q 3209 422 3611 934 
Q 4013 1447 4013 2328 
Q 4013 3213 3611 3725 
Q 3209 4238 2522 4238 
z
M 2522 4750 
Q 3503 4750 4090 4092 
Q 4678 3434 4678 2328 
Q 4678 1225 4090 567 
Q 3503 -91 2522 -91 
Q 1538 -91 948 565 
Q 359 1222 359 2328 
Q 359 3434 948 4092 
Q 1538 4750 2522 4750 
z
" transform="scale(0.015625)"/>
       <path id="DejaVuSans-50" d="M 1259 4147 
L 1259 2394 
L 2053 2394 
Q 2494 2394 2734 2622 
Q 2975 2850 2975 3272 
Q 2975 3691 2734 3919 
Q 2494 4147 2053 4147 
L 1259 4147 
z
M 628 4666 
L 2053 4666 
Q 2838 4666 3239 4311 
Q 3641 3956 3641 3272 
Q 3641 2581 3239 2228 
Q 2838 1875 2053 1875 
L 1259 1875 
L 1259 0 
L 628 0 
L 628 4666 
z
" transform="scale(0.015625)"/>
       <path id="DejaVuSans-53" d="M 3425 4513 
L 3425 3897 
Q 3066 4069 2747 4153 
Q 2428 4238 2131 4238 
Q 1616 4238 1336 4038 
Q 1056 3838 1056 3469 
Q 1056 3159 1242 3001 
Q 1428 2844 1947 2747 
L 2328 2669 
Q 3034 2534 3370 2195 
Q 3706 1856 3706 1288 
Q 3706 609 3251 259 
Q 2797 -91 1919 -91 
Q 1588 -91 1214 -16 
Q 841 59 441 206 
L 441 856 
Q 825 641 1194 531 
Q 1563 422 1919 422 
Q 2459 422 2753 634 
Q 3047 847 3047 1241 
Q 3047 1584 2836 1778 
Q 2625 1972 2144 2069 
L 1759 2144 
Q 1053 2284 737 2584 
Q 422 2884 422 3419 
Q 422 4038 858 4394 
Q 1294 4750 2059 4750 
Q 2388 4750 2728 4690 
Q 3069 4631 3425 4513 
z
" transform="scale(0.015625)"/>
      </defs>
      <use xlink:href="#DejaVuSans-49"/>
      <use xlink:href="#DejaVuSans-4f" transform="translate(29.492188 0)"/>
      <use xlink:href="#DejaVuSans-50" transform="translate(108.203125 0)"/>
      <use xlink:href="#DejaVuSans-53" transform="translate(168.505859 0)"/>
     </g>
    </g>
   </g>
   <g id="FillBetweenPolyCollection_1"/>
   <g id="FillBetweenPolyCollection_2"/>
   <g id="FillBetweenPolyCollection_3"/>
   <g id="FillBetweenPolyCollection_4"/>
   <g id="FillBetweenPolyCollection_5"/>
   <g id="FillBetweenPolyCollection_6"/>
   <g id="FillBetweenPolyCollection_7"/>
   <g id="line2d_13">
    <path d="M 69.560852 213.937832 
L 115.940073 210.677264 
L 208.698515 245.834697 
L 394.215398 206.424348 
" clip-path="url(#p18404b584a)" style="fill: none; stroke: #4c02a1; stroke-width: 1.5; stroke-linecap: round"/>
   </g>
   <g id="line2d_14">
    <path d="M 69.560852 165.879889 
L 115.940073 181.04862 
L 208.698515 101.02293 
L 394.215398 55.233209 
" clip-path="url(#p18404b584a)" style="fill: none; stroke: #7e03a8; stroke-width: 1.5; stroke-linecap: round"/>
   </g>
   <g id="line2d_15">
    <path d="M 69.560852 200.612031 
L 115.940073 213.158131 
L 208.698515 231.233021 
L 394.215398 205.290238 
" clip-path="url(#p18404b584a)" style="fill: none; stroke: #aa2395; stroke-width: 1.5; stroke-linecap: round"/>
   </g>
   <g id="line2d_16">
    <path d="M 69.560852 198.131164 
L 115.940073 214.363124 
L 208.698515 231.445667 
L 394.215398 47.719725 
" clip-path="url(#p18404b584a)" style="fill: none; stroke: #cc4778; stroke-width: 1.5; stroke-linecap: round"/>
   </g>
   <g id="line2d_17">
    <path d="M 69.560852 206.778758 
L 115.940073 206.211703 
L 208.698515 232.367132 
L 394.215398 49.137363 
" clip-path="url(#p18404b584a)" style="fill: none; stroke: #e66c5c; stroke-width: 1.5; stroke-linecap: round"/>
   </g>
   <g id="line2d_18">
    <path d="M 69.560852 214.504888 
L 115.940073 220.033678 
L 208.698515 243.850003 
L 394.215398 66.149025 
" clip-path="url(#p18404b584a)" style="fill: none; stroke: #f89540; stroke-width: 1.5; stroke-linecap: round"/>
   </g>
   <g id="line2d_19">
    <path d="M 69.560852 213.087249 
L 115.940073 289.639725 
L 208.698515 240.660317 
L 394.215398 55.516736 
" clip-path="url(#p18404b584a)" style="fill: none; stroke: #fdc527; stroke-width: 1.5; stroke-linecap: round"/>
   </g>
   <g id="line2d_20"/>
   <g id="line2d_21"/>
   <g id="line2d_22"/>
   <g id="line2d_23"/>
   <g id="line2d_24"/>
   <g id="line2d_25"/>
   <g id="line2d_26"/>
   <g id="text_15">
    <path d="M 109.559606 213.060276 
L 111.166577 212.947302 
L 110.776483 207.398497 
L 109.052329 207.87214 
L 108.989322 206.975914 
L 110.704124 206.502929 
L 111.687634 206.433786 
L 112.140735 212.878817 
L 113.747706 212.765843 
L 113.805892 213.593487 
L 109.617791 213.887921 
L 109.559606 213.060276 
z
" clip-path="url(#p18404b584a)" style="fill: #4c02a1; stroke: #ffffff; stroke-width: 5"/>
    <path d="M 109.559606 213.060276 
L 111.166577 212.947302 
L 110.776483 207.398497 
L 109.052329 207.87214 
L 108.989322 206.975914 
L 110.704124 206.502929 
L 111.687634 206.433786 
L 112.140735 212.878817 
L 113.747706 212.765843 
L 113.805892 213.593487 
L 109.617791 213.887921 
L 109.559606 213.060276 
z
" clip-path="url(#p18404b584a)" style="fill: #4c02a1"/>
   </g>
   <g id="text_16">
    <path d="M 149.590669 147.167643 
L 150.247348 151.741603 
L 152.133153 150.114658 
L 149.590669 147.167643 
z
M 148.832912 146.686388 
L 149.772266 145.875978 
L 152.876118 149.473678 
L 153.664039 148.793913 
L 154.19989 149.415023 
L 153.411969 150.094788 
L 154.534704 151.396159 
L 153.791739 152.037139 
L 152.669004 150.735767 
L 150.177469 152.885294 
L 149.555882 152.164808 
L 148.832912 146.686388 
z
" clip-path="url(#p18404b584a)" style="fill: #7e03a8; stroke: #ffffff; stroke-width: 5"/>
    <path d="M 149.590669 147.167643 
L 150.247348 151.741603 
L 152.133153 150.114658 
L 149.590669 147.167643 
z
M 148.832912 146.686388 
L 149.772266 145.875978 
L 152.876118 149.473678 
L 153.664039 148.793913 
L 154.19989 149.415023 
L 153.411969 150.094788 
L 154.534704 151.396159 
L 153.791739 152.037139 
L 152.669004 150.735767 
L 150.177469 152.885294 
L 149.555882 152.164808 
L 148.832912 146.686388 
z
" clip-path="url(#p18404b584a)" style="fill: #7e03a8"/>
   </g>
   <g id="text_17">
    <path d="M 191.843539 227.232315 
Q 191.153395 227.097833 190.685689 227.390341 
Q 190.219518 227.683148 190.093703 228.328817 
Q 189.967589 228.976019 190.289716 229.422434 
Q 190.613377 229.869147 191.303521 230.003629 
Q 191.993666 230.13811 192.463204 229.844367 
Q 192.934574 229.549389 193.059791 228.906788 
Q 193.185606 228.26112 192.861945 227.814406 
Q 192.539818 227.367992 191.843539 227.232315 
z
M 190.955894 226.632722 
Q 190.363115 226.358025 190.098055 225.86383 
Q 189.834828 225.368401 189.954367 224.754939 
Q 190.121423 223.897627 190.828943 223.51813 
Q 191.537996 223.138933 192.600819 223.346034 
Q 193.669776 223.554331 194.181512 224.171411 
Q 194.693247 224.788491 194.526191 225.645804 
Q 194.406652 226.259266 193.975134 226.619317 
Q 193.545448 226.978134 192.897501 227.011064 
Q 193.56517 227.309905 193.862075 227.861246 
Q 194.160813 228.411351 194.027527 229.095361 
Q 193.82461 230.136712 193.081195 230.569706 
Q 192.338079 231.001166 191.154098 230.770456 
Q 189.97165 230.540044 189.443366 229.86084 
Q 188.916915 229.1804 189.119832 228.139049 
Q 189.253118 227.455039 189.738078 227.057644 
Q 190.22487 226.659015 190.955894 226.632722 
z
M 190.899571 225.034635 
Q 190.791388 225.589818 191.077328 225.968689 
Q 191.364802 226.34786 191.992066 226.470088 
Q 192.616264 226.591719 193.028137 226.348824 
Q 193.441543 226.106227 193.549726 225.551044 
Q 193.658208 224.994327 193.366133 224.61426 
Q 193.075593 224.234492 192.451395 224.112861 
Q 191.82413 223.990633 191.415325 224.234126 
Q 191.008053 224.477918 190.899571 225.034635 
z
" clip-path="url(#p18404b584a)" style="fill: #aa2395; stroke: #ffffff; stroke-width: 5"/>
    <path d="M 191.843539 227.232315 
Q 191.153395 227.097833 190.685689 227.390341 
Q 190.219518 227.683148 190.093703 228.328817 
Q 189.967589 228.976019 190.289716 229.422434 
Q 190.613377 229.869147 191.303521 230.003629 
Q 191.993666 230.13811 192.463204 229.844367 
Q 192.934574 229.549389 193.059791 228.906788 
Q 193.185606 228.26112 192.861945 227.814406 
Q 192.539818 227.367992 191.843539 227.232315 
z
M 190.955894 226.632722 
Q 190.363115 226.358025 190.098055 225.86383 
Q 189.834828 225.368401 189.954367 224.754939 
Q 190.121423 223.897627 190.828943 223.51813 
Q 191.537996 223.138933 192.600819 223.346034 
Q 193.669776 223.554331 194.181512 224.171411 
Q 194.693247 224.788491 194.526191 225.645804 
Q 194.406652 226.259266 193.975134 226.619317 
Q 193.545448 226.978134 192.897501 227.011064 
Q 193.56517 227.309905 193.862075 227.861246 
Q 194.160813 228.411351 194.027527 229.095361 
Q 193.82461 230.136712 193.081195 230.569706 
Q 192.338079 231.001166 191.154098 230.770456 
Q 189.97165 230.540044 189.443366 229.86084 
Q 188.916915 229.1804 189.119832 228.139049 
Q 189.253118 227.455039 189.738078 227.057644 
Q 190.22487 226.659015 190.955894 226.632722 
z
M 190.899571 225.034635 
Q 190.791388 225.589818 191.077328 225.968689 
Q 191.364802 226.34786 191.992066 226.470088 
Q 192.616264 226.591719 193.028137 226.348824 
Q 193.441543 226.106227 193.549726 225.551044 
Q 193.658208 224.994327 193.366133 224.61426 
Q 193.075593 224.234492 192.451395 224.112861 
Q 191.82413 223.990633 191.415325 224.234126 
Q 191.008053 224.477918 190.899571 225.034635 
z
" clip-path="url(#p18404b584a)" style="fill: #aa2395"/>
   </g>
   <g id="text_18">
    <path d="M 229.60675 213.455125 
L 230.751366 212.321559 
L 226.837208 208.369246 
L 225.838947 209.852661 
L 225.206745 209.214295 
L 226.198345 207.737478 
L 226.898881 207.043704 
L 231.445241 211.634382 
L 232.589858 210.500816 
L 233.173683 211.090332 
L 230.190575 214.044641 
L 229.60675 213.455125 
z
M 233.334462 205.248711 
Q 232.862627 205.715991 232.906137 206.312831 
Q 232.949657 206.907461 233.505995 207.469222 
Q 234.059035 208.027653 234.656513 208.080269 
Q 235.254002 208.130677 235.725837 207.663397 
Q 236.197672 207.196117 236.151953 206.599267 
Q 236.105134 206.001306 235.552094 205.442876 
Q 234.995756 204.881114 234.401577 204.831828 
Q 233.806298 204.781431 233.334462 205.248711 
z
M 232.549667 201.673974 
L 233.18187 202.312339 
Q 232.7945 202.449673 232.460962 202.650246 
Q 232.126325 202.849709 231.862097 203.111386 
Q 231.168222 203.798562 231.265838 204.629896 
Q 231.364563 205.46013 232.250243 206.458807 
Q 232.15546 205.954527 232.304671 205.487892 
Q 232.454992 205.020158 232.825799 204.65293 
Q 233.606269 203.879994 234.52871 203.905461 
Q 235.450051 203.929817 236.257071 204.744704 
Q 237.047599 205.542938 237.054039 206.493155 
Q 237.05938 207.442262 236.275578 208.218497 
Q 235.376316 209.109078 234.219471 208.891332 
Q 233.061527 208.672476 231.766337 207.36466 
Q 230.550309 206.136779 230.409704 204.829039 
Q 230.2691 203.521299 231.250517 202.549356 
Q 231.514745 202.28768 231.835089 202.073784 
Q 232.155433 201.859889 232.549667 201.673974 
z
" clip-path="url(#p18404b584a)" style="fill: #cc4778; stroke: #ffffff; stroke-width: 5"/>
    <path d="M 229.60675 213.455125 
L 230.751366 212.321559 
L 226.837208 208.369246 
L 225.838947 209.852661 
L 225.206745 209.214295 
L 226.198345 207.737478 
L 226.898881 207.043704 
L 231.445241 211.634382 
L 232.589858 210.500816 
L 233.173683 211.090332 
L 230.190575 214.044641 
L 229.60675 213.455125 
z
M 233.334462 205.248711 
Q 232.862627 205.715991 232.906137 206.312831 
Q 232.949657 206.907461 233.505995 207.469222 
Q 234.059035 208.027653 234.656513 208.080269 
Q 235.254002 208.130677 235.725837 207.663397 
Q 236.197672 207.196117 236.151953 206.599267 
Q 236.105134 206.001306 235.552094 205.442876 
Q 234.995756 204.881114 234.401577 204.831828 
Q 233.806298 204.781431 233.334462 205.248711 
z
M 232.549667 201.673974 
L 233.18187 202.312339 
Q 232.7945 202.449673 232.460962 202.650246 
Q 232.126325 202.849709 231.862097 203.111386 
Q 231.168222 203.798562 231.265838 204.629896 
Q 231.364563 205.46013 232.250243 206.458807 
Q 232.15546 205.954527 232.304671 205.487892 
Q 232.454992 205.020158 232.825799 204.65293 
Q 233.606269 203.879994 234.52871 203.905461 
Q 235.450051 203.929817 236.257071 204.744704 
Q 237.047599 205.542938 237.054039 206.493155 
Q 237.05938 207.442262 236.275578 208.218497 
Q 235.376316 209.109078 234.219471 208.891332 
Q 233.061527 208.672476 231.766337 207.36466 
Q 230.550309 206.136779 230.409704 204.829039 
Q 230.2691 203.521299 231.250517 202.549356 
Q 231.514745 202.28768 231.835089 202.073784 
Q 232.155433 201.859889 232.549667 201.673974 
z
" clip-path="url(#p18404b584a)" style="fill: #cc4778"/>
   </g>
   <g id="text_19">
    <path d="M 269.600903 170.568471 
Q 270.211001 170.178919 270.830449 170.24132 
Q 271.449911 170.301511 271.944002 170.801769 
Q 272.701609 171.568832 272.589693 172.511702 
Q 272.476679 173.45346 271.503954 174.414193 
Q 271.17823 174.735901 270.768813 175.012895 
Q 270.359395 175.289889 269.864062 175.524365 
L 269.195392 174.847349 
Q 269.654644 174.729766 270.087133 174.473907 
Q 270.520733 174.216951 270.899818 173.84254 
Q 271.559047 173.191437 271.647854 172.589831 
Q 271.736661 171.988225 271.245864 171.491301 
Q 270.792398 171.032175 270.216389 171.09158 
Q 269.639282 171.149874 269.066764 171.715334 
L 268.462007 172.312635 
L 267.892155 171.73567 
L 268.524705 171.110919 
Q 269.041638 170.600358 269.112 170.122384 
Q 269.182362 169.644409 268.798069 169.255319 
Q 268.403894 168.856224 267.909602 168.922765 
Q 267.415324 168.987097 266.887273 169.508637 
Q 266.598235 169.794112 266.330649 170.183579 
Q 266.061965 170.571933 265.795767 171.093993 
L 265.178702 170.469226 
Q 265.469111 169.962784 265.763281 169.562434 
Q 266.057451 169.162084 266.3665 168.856845 
Q 267.165802 168.067398 267.989526 167.971963 
Q 268.813264 167.874319 269.423741 168.492416 
Q 269.849758 168.92375 269.896124 169.464322 
Q 269.942491 170.004893 269.600903 170.568471 
z
M 274.785142 169.807463 
L 277.234186 167.388612 
L 277.817213 167.978917 
L 274.5244 171.231136 
L 273.941373 170.64083 
Q 273.932019 169.833108 273.933928 168.456445 
Q 273.935851 167.077572 273.912777 166.700667 
Q 273.876304 165.990005 273.750583 165.59589 
Q 273.625974 165.200676 273.375634 164.947212 
Q 272.967186 164.533665 272.420108 164.560104 
Q 271.871933 164.58543 271.406136 165.045484 
Q 271.075966 165.371584 270.822202 165.848421 
Q 270.569549 166.324161 270.383243 166.969357 
L 269.682731 166.260102 
Q 269.938292 165.671683 270.220618 165.22154 
Q 270.504055 164.770299 270.809769 164.468355 
Q 271.615741 163.672319 272.493444 163.602631 
Q 273.37005 163.531832 274.035426 164.205513 
Q 274.351644 164.525679 274.514861 164.931076 
Q 274.678092 165.334263 274.745554 166.036277 
Q 274.758759 166.223083 274.768388 167.164497 
Q 274.779129 168.104813 274.785142 169.807463 
z
" clip-path="url(#p18404b584a)" style="fill: #e66c5c; stroke: #ffffff; stroke-width: 5"/>
    <path d="M 269.600903 170.568471 
Q 270.211001 170.178919 270.830449 170.24132 
Q 271.449911 170.301511 271.944002 170.801769 
Q 272.701609 171.568832 272.589693 172.511702 
Q 272.476679 173.45346 271.503954 174.414193 
Q 271.17823 174.735901 270.768813 175.012895 
Q 270.359395 175.289889 269.864062 175.524365 
L 269.195392 174.847349 
Q 269.654644 174.729766 270.087133 174.473907 
Q 270.520733 174.216951 270.899818 173.84254 
Q 271.559047 173.191437 271.647854 172.589831 
Q 271.736661 171.988225 271.245864 171.491301 
Q 270.792398 171.032175 270.216389 171.09158 
Q 269.639282 171.149874 269.066764 171.715334 
L 268.462007 172.312635 
L 267.892155 171.73567 
L 268.524705 171.110919 
Q 269.041638 170.600358 269.112 170.122384 
Q 269.182362 169.644409 268.798069 169.255319 
Q 268.403894 168.856224 267.909602 168.922765 
Q 267.415324 168.987097 266.887273 169.508637 
Q 266.598235 169.794112 266.330649 170.183579 
Q 266.061965 170.571933 265.795767 171.093993 
L 265.178702 170.469226 
Q 265.469111 169.962784 265.763281 169.562434 
Q 266.057451 169.162084 266.3665 168.856845 
Q 267.165802 168.067398 267.989526 167.971963 
Q 268.813264 167.874319 269.423741 168.492416 
Q 269.849758 168.92375 269.896124 169.464322 
Q 269.942491 170.004893 269.600903 170.568471 
z
M 274.785142 169.807463 
L 277.234186 167.388612 
L 277.817213 167.978917 
L 274.5244 171.231136 
L 273.941373 170.64083 
Q 273.932019 169.833108 273.933928 168.456445 
Q 273.935851 167.077572 273.912777 166.700667 
Q 273.876304 165.990005 273.750583 165.59589 
Q 273.625974 165.200676 273.375634 164.947212 
Q 272.967186 164.533665 272.420108 164.560104 
Q 271.871933 164.58543 271.406136 165.045484 
Q 271.075966 165.371584 270.822202 165.848421 
Q 270.569549 166.324161 270.383243 166.969357 
L 269.682731 166.260102 
Q 269.938292 165.671683 270.220618 165.22154 
Q 270.504055 164.770299 270.809769 164.468355 
Q 271.615741 163.672319 272.493444 163.602631 
Q 273.37005 163.531832 274.035426 164.205513 
Q 274.351644 164.525679 274.514861 164.931076 
Q 274.678092 165.334263 274.745554 166.036277 
Q 274.758759 166.223083 274.768388 167.164497 
Q 274.779129 168.104813 274.785142 169.807463 
z
" clip-path="url(#p18404b584a)" style="fill: #e66c5c"/>
   </g>
   <g id="text_20">
    <path d="M 309.145534 145.864984 
Q 308.665977 146.324337 308.699535 146.921818 
Q 308.73314 147.517091 309.28004 148.088045 
Q 309.823697 148.655614 310.420215 148.71818 
Q 311.016781 148.778537 311.496338 148.319185 
Q 311.975894 147.859832 311.940127 147.262303 
Q 311.903279 146.663646 311.359622 146.096076 
Q 310.812723 145.525122 310.219447 145.465941 
Q 309.62509 145.405632 309.145534 145.864984 
z
M 308.420418 142.277665 
L 309.041894 142.926477 
Q 308.65229 143.057337 308.315456 143.252324 
Q 307.977541 143.446182 307.70899 143.70342 
Q 307.00376 144.378938 307.087508 145.211783 
Q 307.172385 146.043547 308.041299 147.056844 
Q 307.954933 146.551055 308.111899 146.086971 
Q 308.269994 145.621807 308.646869 145.26081 
Q 309.440111 144.500987 310.362 144.541821 
Q 311.282807 144.581528 312.076136 145.40975 
Q 312.853252 146.221046 312.843856 147.171239 
Q 312.83338 148.120303 312.036752 148.883369 
Q 311.122774 149.75884 309.969719 149.521847 
Q 308.815582 149.283726 307.542365 147.954508 
Q 306.346968 146.706533 306.228175 145.396632 
Q 306.109383 144.08673 307.10686 143.131277 
Q 307.375412 142.87404 307.699276 142.665512 
Q 308.02314 142.456985 308.420418 142.277665 
z
M 312.429557 139.404589 
L 313.323284 143.938195 
L 315.121903 142.215354 
L 312.429557 139.404589 
z
M 311.647792 138.963404 
L 312.543716 138.105226 
L 315.830518 141.536593 
L 316.582011 140.81676 
L 317.149446 141.409154 
L 316.397953 142.128986 
L 317.586866 143.370191 
L 316.878251 144.048951 
L 315.689338 142.807747 
L 313.312995 145.083973 
L 312.65477 144.396797 
L 311.647792 138.963404 
z
" clip-path="url(#p18404b584a)" style="fill: #f89540; stroke: #ffffff; stroke-width: 5"/>
    <path d="M 309.145534 145.864984 
Q 308.665977 146.324337 308.699535 146.921818 
Q 308.73314 147.517091 309.28004 148.088045 
Q 309.823697 148.655614 310.420215 148.71818 
Q 311.016781 148.778537 311.496338 148.319185 
Q 311.975894 147.859832 311.940127 147.262303 
Q 311.903279 146.663646 311.359622 146.096076 
Q 310.812723 145.525122 310.219447 145.465941 
Q 309.62509 145.405632 309.145534 145.864984 
z
M 308.420418 142.277665 
L 309.041894 142.926477 
Q 308.65229 143.057337 308.315456 143.252324 
Q 307.977541 143.446182 307.70899 143.70342 
Q 307.00376 144.378938 307.087508 145.211783 
Q 307.172385 146.043547 308.041299 147.056844 
Q 307.954933 146.551055 308.111899 146.086971 
Q 308.269994 145.621807 308.646869 145.26081 
Q 309.440111 144.500987 310.362 144.541821 
Q 311.282807 144.581528 312.076136 145.40975 
Q 312.853252 146.221046 312.843856 147.171239 
Q 312.83338 148.120303 312.036752 148.883369 
Q 311.122774 149.75884 309.969719 149.521847 
Q 308.815582 149.283726 307.542365 147.954508 
Q 306.346968 146.706533 306.228175 145.396632 
Q 306.109383 144.08673 307.10686 143.131277 
Q 307.375412 142.87404 307.699276 142.665512 
Q 308.02314 142.456985 308.420418 142.277665 
z
M 312.429557 139.404589 
L 313.323284 143.938195 
L 315.121903 142.215354 
L 312.429557 139.404589 
z
M 311.647792 138.963404 
L 312.543716 138.105226 
L 315.830518 141.536593 
L 316.582011 140.81676 
L 317.149446 141.409154 
L 316.397953 142.128986 
L 317.586866 143.370191 
L 316.878251 144.048951 
L 315.689338 142.807747 
L 313.312995 145.083973 
L 312.65477 144.396797 
L 311.647792 138.963404 
z
" clip-path="url(#p18404b584a)" style="fill: #f89540"/>
   </g>
   <g id="text_21">
    <path d="M 347.902139 104.463048 
L 349.042391 103.325091 
L 345.113072 99.38785 
L 344.12052 100.87509 
L 343.485869 100.239159 
L 344.471786 98.758542 
L 345.16965 98.062081 
L 349.73362 102.635253 
L 350.873871 101.497296 
L 351.459958 102.084564 
L 348.488226 105.050316 
L 347.902139 104.463048 
z
M 352.885486 99.489729 
L 355.32193 97.058187 
L 355.908017 97.645455 
L 352.632144 100.914736 
L 352.046057 100.327468 
Q 352.032508 99.519806 352.027265 98.143151 
Q 352.022025 96.764287 351.996992 96.387506 
Q 351.956828 95.677044 351.829061 95.283587 
Q 351.7024 94.889026 351.450748 94.636866 
Q 351.040156 94.225446 350.493223 94.254727 
Q 349.945187 94.282901 349.481787 94.745368 
Q 349.153315 95.07318 348.902031 95.551329 
Q 348.651853 96.028374 348.468902 96.67453 
L 347.764715 95.968923 
Q 348.017216 95.379185 348.297199 94.927581 
Q 348.578288 94.474874 348.882429 94.171345 
Q 349.684254 93.371133 350.561584 93.296886 
Q 351.43781 93.221534 352.106677 93.891749 
Q 352.424554 94.210268 352.589875 94.614811 
Q 352.755198 95.017145 352.826307 95.718799 
Q 352.840482 95.905534 352.855002 96.846885 
Q 352.870628 97.787132 352.885486 99.489729 
z
M 356.420449 92.242264 
Q 355.922764 92.738948 355.903426 93.290251 
Q 355.885194 93.84045 356.349869 94.306062 
Q 356.815648 94.77278 357.365883 94.755657 
Q 357.917224 94.737429 358.414909 94.240746 
Q 358.912594 93.744062 358.931934 93.190549 
Q 358.951276 92.634827 358.488808 92.171427 
Q 358.024133 91.705815 357.472793 91.724042 
Q 356.922558 91.741166 356.420449 92.242264 
z
M 355.426781 92.642326 
Q 354.867385 92.979848 354.30949 92.922939 
Q 353.751598 92.863819 353.310102 92.421433 
Q 352.69311 91.803198 352.774569 91.00447 
Q 352.857134 90.204638 353.623569 89.439745 
Q 354.394428 88.670438 355.192212 88.591692 
Q 355.989997 88.512945 356.606988 89.131181 
Q 357.048484 89.573567 357.105374 90.132681 
Q 357.162265 90.689585 356.826935 91.24499 
Q 357.448252 90.858916 358.071327 90.921416 
Q 358.694405 90.981705 359.186673 91.474966 
Q 359.936114 92.225918 359.878901 93.084332 
Q 359.820586 93.941641 358.966779 94.793729 
Q 358.114079 95.644713 357.255549 95.702406 
Q 356.397021 95.757889 355.64758 95.006938 
Q 355.155312 94.513677 355.097383 93.889375 
Q 355.039457 93.262864 355.426781 92.642326 
z
M 354.070873 91.794641 
Q 354.470427 92.195001 354.944435 92.170067 
Q 355.419549 92.144029 355.871889 91.692599 
Q 356.322018 91.243376 356.351225 90.766108 
Q 356.381538 90.287737 355.981983 89.887377 
Q 355.581325 89.485911 355.102894 89.51526 
Q 354.625568 89.543506 354.175439 89.992728 
Q 353.723099 90.444158 353.696104 90.919219 
Q 353.670215 91.393176 354.070873 91.794641 
z
" clip-path="url(#p18404b584a)" style="fill: #fdc527; stroke: #ffffff; stroke-width: 5"/>
    <path d="M 347.902139 104.463048 
L 349.042391 103.325091 
L 345.113072 99.38785 
L 344.12052 100.87509 
L 343.485869 100.239159 
L 344.471786 98.758542 
L 345.16965 98.062081 
L 349.73362 102.635253 
L 350.873871 101.497296 
L 351.459958 102.084564 
L 348.488226 105.050316 
L 347.902139 104.463048 
z
M 352.885486 99.489729 
L 355.32193 97.058187 
L 355.908017 97.645455 
L 352.632144 100.914736 
L 352.046057 100.327468 
Q 352.032508 99.519806 352.027265 98.143151 
Q 352.022025 96.764287 351.996992 96.387506 
Q 351.956828 95.677044 351.829061 95.283587 
Q 351.7024 94.889026 351.450748 94.636866 
Q 351.040156 94.225446 350.493223 94.254727 
Q 349.945187 94.282901 349.481787 94.745368 
Q 349.153315 95.07318 348.902031 95.551329 
Q 348.651853 96.028374 348.468902 96.67453 
L 347.764715 95.968923 
Q 348.017216 95.379185 348.297199 94.927581 
Q 348.578288 94.474874 348.882429 94.171345 
Q 349.684254 93.371133 350.561584 93.296886 
Q 351.43781 93.221534 352.106677 93.891749 
Q 352.424554 94.210268 352.589875 94.614811 
Q 352.755198 95.017145 352.826307 95.718799 
Q 352.840482 95.905534 352.855002 96.846885 
Q 352.870628 97.787132 352.885486 99.489729 
z
M 356.420449 92.242264 
Q 355.922764 92.738948 355.903426 93.290251 
Q 355.885194 93.84045 356.349869 94.306062 
Q 356.815648 94.77278 357.365883 94.755657 
Q 357.917224 94.737429 358.414909 94.240746 
Q 358.912594 93.744062 358.931934 93.190549 
Q 358.951276 92.634827 358.488808 92.171427 
Q 358.024133 91.705815 357.472793 91.724042 
Q 356.922558 91.741166 356.420449 92.242264 
z
M 355.426781 92.642326 
Q 354.867385 92.979848 354.30949 92.922939 
Q 353.751598 92.863819 353.310102 92.421433 
Q 352.69311 91.803198 352.774569 91.00447 
Q 352.857134 90.204638 353.623569 89.439745 
Q 354.394428 88.670438 355.192212 88.591692 
Q 355.989997 88.512945 356.606988 89.131181 
Q 357.048484 89.573567 357.105374 90.132681 
Q 357.162265 90.689585 356.826935 91.24499 
Q 357.448252 90.858916 358.071327 90.921416 
Q 358.694405 90.981705 359.186673 91.474966 
Q 359.936114 92.225918 359.878901 93.084332 
Q 359.820586 93.941641 358.966779 94.793729 
Q 358.114079 95.644713 357.255549 95.702406 
Q 356.397021 95.757889 355.64758 95.006938 
Q 355.155312 94.513677 355.097383 93.889375 
Q 355.039457 93.262864 355.426781 92.642326 
z
M 354.070873 91.794641 
Q 354.470427 92.195001 354.944435 92.170067 
Q 355.419549 92.144029 355.871889 91.692599 
Q 356.322018 91.243376 356.351225 90.766108 
Q 356.381538 90.287737 355.981983 89.887377 
Q 355.581325 89.485911 355.102894 89.51526 
Q 354.625568 89.543506 354.175439 89.992728 
Q 353.723099 90.444158 353.696104 90.919219 
Q 353.670215 91.393176 354.070873 91.794641 
z
" clip-path="url(#p18404b584a)" style="fill: #fdc527"/>
   </g>
   <g id="patch_3">
    <path d="M 53.328125 301.735725 
L 53.328125 35.623725 
" style="fill: none; stroke: #cccccc; stroke-width: 0.8; stroke-linejoin: miter; stroke-linecap: square"/>
   </g>
   <g id="patch_4">
    <path d="M 410.448125 301.735725 
L 410.448125 35.623725 
" style="fill: none; stroke: #cccccc; stroke-width: 0.8; stroke-linejoin: miter; stroke-linecap: square"/>
   </g>
   <g id="patch_5">
    <path d="M 53.328125 301.735725 
L 410.448125 301.735725 
" style="fill: none; stroke: #cccccc; stroke-width: 0.8; stroke-linejoin: miter; stroke-linecap: square"/>
   </g>
   <g id="patch_6">
    <path d="M 53.328125 35.623725 
L 410.448125 35.623725 
" style="fill: none; stroke: #cccccc; stroke-width: 0.8; stroke-linejoin: miter; stroke-linecap: square"/>
   </g>
   <g id="text_22">
    <!-- Block Size = 2M, Read-Write Type = Sequential Write-only -->
    <g style="fill: #262626; opacity: 0.75" transform="translate(86.757656 30.882918) scale(0.1 -0.1)">
     <defs>
      <path id="DejaVuSans-42" d="M 1259 2228 
L 1259 519 
L 2272 519 
Q 2781 519 3026 730 
Q 3272 941 3272 1375 
Q 3272 1813 3026 2020 
Q 2781 2228 2272 2228 
L 1259 2228 
z
M 1259 4147 
L 1259 2741 
L 2194 2741 
Q 2656 2741 2882 2914 
Q 3109 3088 3109 3444 
Q 3109 3797 2882 3972 
Q 2656 4147 2194 4147 
L 1259 4147 
z
M 628 4666 
L 2241 4666 
Q 2963 4666 3353 4366 
Q 3744 4066 3744 3513 
Q 3744 3084 3544 2831 
Q 3344 2578 2956 2516 
Q 3422 2416 3680 2098 
Q 3938 1781 3938 1306 
Q 3938 681 3513 340 
Q 3088 0 2303 0 
L 628 0 
L 628 4666 
z
" transform="scale(0.015625)"/>
      <path id="DejaVuSans-6c" d="M 603 4863 
L 1178 4863 
L 1178 0 
L 603 0 
L 603 4863 
z
" transform="scale(0.015625)"/>
      <path id="DejaVuSans-63" d="M 3122 3366 
L 3122 2828 
Q 2878 2963 2633 3030 
Q 2388 3097 2138 3097 
Q 1578 3097 1268 2742 
Q 959 2388 959 1747 
Q 959 1106 1268 751 
Q 1578 397 2138 397 
Q 2388 397 2633 464 
Q 2878 531 3122 666 
L 3122 134 
Q 2881 22 2623 -34 
Q 2366 -91 2075 -91 
Q 1284 -91 818 406 
Q 353 903 353 1747 
Q 353 2603 823 3093 
Q 1294 3584 2113 3584 
Q 2378 3584 2631 3529 
Q 2884 3475 3122 3366 
z
" transform="scale(0.015625)"/>
      <path id="DejaVuSans-6b" d="M 581 4863 
L 1159 4863 
L 1159 1991 
L 2875 3500 
L 3609 3500 
L 1753 1863 
L 3688 0 
L 2938 0 
L 1159 1709 
L 1159 0 
L 581 0 
L 581 4863 
z
" transform="scale(0.015625)"/>
      <path id="DejaVuSans-69" d="M 603 3500 
L 1178 3500 
L 1178 0 
L 603 0 
L 603 3500 
z
M 603 4863 
L 1178 4863 
L 1178 4134 
L 603 4134 
L 603 4863 
z
" transform="scale(0.015625)"/>
      <path id="DejaVuSans-7a" d="M 353 3500 
L 3084 3500 
L 3084 2975 
L 922 459 
L 3084 459 
L 3084 0 
L 275 0 
L 275 525 
L 2438 3041 
L 353 3041 
L 353 3500 
z
" transform="scale(0.015625)"/>
      <path id="DejaVuSans-3d" d="M 678 2906 
L 4684 2906 
L 4684 2381 
L 678 2381 
L 678 2906 
z
M 678 1631 
L 4684 1631 
L 4684 1100 
L 678 1100 
L 678 1631 
z
" transform="scale(0.015625)"/>
      <path id="DejaVuSans-4d" d="M 628 4666 
L 1569 4666 
L 2759 1491 
L 3956 4666 
L 4897 4666 
L 4897 0 
L 4281 0 
L 4281 4097 
L 3078 897 
L 2444 897 
L 1241 4097 
L 1241 0 
L 628 0 
L 628 4666 
z
" transform="scale(0.015625)"/>
      <path id="DejaVuSans-2c" d="M 750 794 
L 1409 794 
L 1409 256 
L 897 -744 
L 494 -744 
L 750 256 
L 750 794 
z
" transform="scale(0.015625)"/>
      <path id="DejaVuSans-52" d="M 2841 2188 
Q 3044 2119 3236 1894 
Q 3428 1669 3622 1275 
L 4263 0 
L 3584 0 
L 2988 1197 
Q 2756 1666 2539 1819 
Q 2322 1972 1947 1972 
L 1259 1972 
L 1259 0 
L 628 0 
L 628 4666 
L 2053 4666 
Q 2853 4666 3247 4331 
Q 3641 3997 3641 3322 
Q 3641 2881 3436 2590 
Q 3231 2300 2841 2188 
z
M 1259 4147 
L 1259 2491 
L 2053 2491 
Q 2509 2491 2742 2702 
Q 2975 2913 2975 3322 
Q 2975 3731 2742 3939 
Q 2509 4147 2053 4147 
L 1259 4147 
z
" transform="scale(0.015625)"/>
      <path id="DejaVuSans-61" d="M 2194 1759 
Q 1497 1759 1228 1600 
Q 959 1441 959 1056 
Q 959 750 1161 570 
Q 1363 391 1709 391 
Q 2188 391 2477 730 
Q 2766 1069 2766 1631 
L 2766 1759 
L 2194 1759 
z
M 3341 1997 
L 3341 0 
L 2766 0 
L 2766 531 
Q 2569 213 2275 61 
Q 1981 -91 1556 -91 
Q 1019 -91 701 211 
Q 384 513 384 1019 
Q 384 1609 779 1909 
Q 1175 2209 1959 2209 
L 2766 2209 
L 2766 2266 
Q 2766 2663 2505 2880 
Q 2244 3097 1772 3097 
Q 1472 3097 1187 3025 
Q 903 2953 641 2809 
L 641 3341 
Q 956 3463 1253 3523 
Q 1550 3584 1831 3584 
Q 2591 3584 2966 3190 
Q 3341 2797 3341 1997 
z
" transform="scale(0.015625)"/>
      <path id="DejaVuSans-64" d="M 2906 2969 
L 2906 4863 
L 3481 4863 
L 3481 0 
L 2906 0 
L 2906 525 
Q 2725 213 2448 61 
Q 2172 -91 1784 -91 
Q 1150 -91 751 415 
Q 353 922 353 1747 
Q 353 2572 751 3078 
Q 1150 3584 1784 3584 
Q 2172 3584 2448 3432 
Q 2725 3281 2906 2969 
z
M 947 1747 
Q 947 1113 1208 752 
Q 1469 391 1925 391 
Q 2381 391 2643 752 
Q 2906 1113 2906 1747 
Q 2906 2381 2643 2742 
Q 2381 3103 1925 3103 
Q 1469 3103 1208 2742 
Q 947 2381 947 1747 
z
" transform="scale(0.015625)"/>
      <path id="DejaVuSans-2d" d="M 313 2009 
L 1997 2009 
L 1997 1497 
L 313 1497 
L 313 2009 
z
" transform="scale(0.015625)"/>
      <path id="DejaVuSans-57" d="M 213 4666 
L 850 4666 
L 1831 722 
L 2809 4666 
L 3519 4666 
L 4500 722 
L 5478 4666 
L 6119 4666 
L 4947 0 
L 4153 0 
L 3169 4050 
L 2175 0 
L 1381 0 
L 213 4666 
z
" transform="scale(0.015625)"/>
      <path id="DejaVuSans-74" d="M 1172 4494 
L 1172 3500 
L 2356 3500 
L 2356 3053 
L 1172 3053 
L 1172 1153 
Q 1172 725 1289 603 
Q 1406 481 1766 481 
L 2356 481 
L 2356 0 
L 1766 0 
Q 1100 0 847 248 
Q 594 497 594 1153 
L 594 3053 
L 172 3053 
L 172 3500 
L 594 3500 
L 594 4494 
L 1172 4494 
z
" transform="scale(0.015625)"/>
      <path id="DejaVuSans-54" d="M -19 4666 
L 3928 4666 
L 3928 4134 
L 2272 4134 
L 2272 0 
L 1638 0 
L 1638 4134 
L -19 4134 
L -19 4666 
z
" transform="scale(0.015625)"/>
      <path id="DejaVuSans-79" d="M 2059 -325 
Q 1816 -950 1584 -1140 
Q 1353 -1331 966 -1331 
L 506 -1331 
L 506 -850 
L 844 -850 
Q 1081 -850 1212 -737 
Q 1344 -625 1503 -206 
L 1606 56 
L 191 3500 
L 800 3500 
L 1894 763 
L 2988 3500 
L 3597 3500 
L 2059 -325 
z
" transform="scale(0.015625)"/>
      <path id="DejaVuSans-70" d="M 1159 525 
L 1159 -1331 
L 581 -1331 
L 581 3500 
L 1159 3500 
L 1159 2969 
Q 1341 3281 1617 3432 
Q 1894 3584 2278 3584 
Q 2916 3584 3314 3078 
Q 3713 2572 3713 1747 
Q 3713 922 3314 415 
Q 2916 -91 2278 -91 
Q 1894 -91 1617 61 
Q 1341 213 1159 525 
z
M 3116 1747 
Q 3116 2381 2855 2742 
Q 2594 3103 2138 3103 
Q 1681 3103 1420 2742 
Q 1159 2381 1159 1747 
Q 1159 1113 1420 752 
Q 1681 391 2138 391 
Q 2594 391 2855 752 
Q 3116 1113 3116 1747 
z
" transform="scale(0.015625)"/>
      <path id="DejaVuSans-71" d="M 947 1747 
Q 947 1113 1208 752 
Q 1469 391 1925 391 
Q 2381 391 2643 752 
Q 2906 1113 2906 1747 
Q 2906 2381 2643 2742 
Q 2381 3103 1925 3103 
Q 1469 3103 1208 2742 
Q 947 2381 947 1747 
z
M 2906 525 
Q 2725 213 2448 61 
Q 2172 -91 1784 -91 
Q 1150 -91 751 415 
Q 353 922 353 1747 
Q 353 2572 751 3078 
Q 1150 3584 1784 3584 
Q 2172 3584 2448 3432 
Q 2725 3281 2906 2969 
L 2906 3500 
L 3481 3500 
L 3481 -1331 
L 2906 -1331 
L 2906 525 
z
" transform="scale(0.015625)"/>
      <path id="DejaVuSans-6e" d="M 3513 2113 
L 3513 0 
L 2938 0 
L 2938 2094 
Q 2938 2591 2744 2837 
Q 2550 3084 2163 3084 
Q 1697 3084 1428 2787 
Q 1159 2491 1159 1978 
L 1159 0 
L 581 0 
L 581 3500 
L 1159 3500 
L 1159 2956 
Q 1366 3272 1645 3428 
Q 1925 3584 2291 3584 
Q 2894 3584 3203 3211 
Q 3513 2838 3513 2113 
z
" transform="scale(0.015625)"/>
     </defs>
     <use xlink:href="#DejaVuSans-42"/>
     <use xlink:href="#DejaVuSans-6c" transform="translate(68.603516 0)"/>
     <use xlink:href="#DejaVuSans-6f" transform="translate(96.386719 0)"/>
     <use xlink:href="#DejaVuSans-63" transform="translate(157.568359 0)"/>
     <use xlink:href="#DejaVuSans-6b" transform="translate(212.548828 0)"/>
     <use xlink:href="#DejaVuSans-20" transform="translate(270.458984 0)"/>
     <use xlink:href="#DejaVuSans-53" transform="translate(302.246094 0)"/>
     <use xlink:href="#DejaVuSans-69" transform="translate(365.722656 0)"/>
     <use xlink:href="#DejaVuSans-7a" transform="translate(393.505859 0)"/>
     <use xlink:href="#DejaVuSans-65" transform="translate(445.996094 0)"/>
     <use xlink:href="#DejaVuSans-20" transform="translate(507.519531 0)"/>
     <use xlink:href="#DejaVuSans-3d" transform="translate(539.306641 0)"/>
     <use xlink:href="#DejaVuSans-20" transform="translate(623.095703 0)"/>
     <use xlink:href="#DejaVuSans-32" transform="translate(654.882812 0)"/>
     <use xlink:href="#DejaVuSans-4d" transform="translate(718.505859 0)"/>
     <use xlink:href="#DejaVuSans-2c" transform="translate(804.785156 0)"/>
     <use xlink:href="#DejaVuSans-20" transform="translate(836.572266 0)"/>
     <use xlink:href="#DejaVuSans-52" transform="translate(868.359375 0)"/>
     <use xlink:href="#DejaVuSans-65" transform="translate(933.341797 0)"/>
     <use xlink:href="#DejaVuSans-61" transform="translate(994.865234 0)"/>
     <use xlink:href="#DejaVuSans-64" transform="translate(1056.144531 0)"/>
     <use xlink:href="#DejaVuSans-2d" transform="translate(1119.621094 0)"/>
     <use xlink:href="#DejaVuSans-57" transform="translate(1151.705078 0)"/>
     <use xlink:href="#DejaVuSans-72" transform="translate(1246.082031 0)"/>
     <use xlink:href="#DejaVuSans-69" transform="translate(1287.195312 0)"/>
     <use xlink:href="#DejaVuSans-74" transform="translate(1314.978516 0)"/>
     <use xlink:href="#DejaVuSans-65" transform="translate(1354.1875 0)"/>
     <use xlink:href="#DejaVuSans-20" transform="translate(1415.710938 0)"/>
     <use xlink:href="#DejaVuSans-54" transform="translate(1447.498047 0)"/>
     <use xlink:href="#DejaVuSans-79" transform="translate(1492.957031 0)"/>
     <use xlink:href="#DejaVuSans-70" transform="translate(1552.136719 0)"/>
     <use xlink:href="#DejaVuSans-65" transform="translate(1615.613281 0)"/>
     <use xlink:href="#DejaVuSans-20" transform="translate(1677.136719 0)"/>
     <use xlink:href="#DejaVuSans-3d" transform="translate(1708.923828 0)"/>
     <use xlink:href="#DejaVuSans-20" transform="translate(1792.712891 0)"/>
     <use xlink:href="#DejaVuSans-53" transform="translate(1824.5 0)"/>
     <use xlink:href="#DejaVuSans-65" transform="translate(1887.976562 0)"/>
     <use xlink:href="#DejaVuSans-71" transform="translate(1949.5 0)"/>
     <use xlink:href="#DejaVuSans-75" transform="translate(2012.976562 0)"/>
     <use xlink:href="#DejaVuSans-65" transform="translate(2076.355469 0)"/>
     <use xlink:href="#DejaVuSans-6e" transform="translate(2137.878906 0)"/>
     <use xlink:href="#DejaVuSans-74" transform="translate(2201.257812 0)"/>
     <use xlink:href="#DejaVuSans-69" transform="translate(2240.466797 0)"/>
     <use xlink:href="#DejaVuSans-61" transform="translate(2268.25 0)"/>
     <use xlink:href="#DejaVuSans-6c" transform="translate(2329.529297 0)"/>
     <use xlink:href="#DejaVuSans-20" transform="translate(2357.3125 0)"/>
     <use xlink:href="#DejaVuSans-57" transform="translate(2389.099609 0)"/>
     <use xlink:href="#DejaVuSans-72" transform="translate(2483.476562 0)"/>
     <use xlink:href="#DejaVuSans-69" transform="translate(2524.589844 0)"/>
     <use xlink:href="#DejaVuSans-74" transform="translate(2552.373047 0)"/>
     <use xlink:href="#DejaVuSans-65" transform="translate(2591.582031 0)"/>
     <use xlink:href="#DejaVuSans-2d" transform="translate(2653.105469 0)"/>
     <use xlink:href="#DejaVuSans-6f" transform="translate(2691.064453 0)"/>
     <use xlink:href="#DejaVuSans-6e" transform="translate(2752.246094 0)"/>
     <use xlink:href="#DejaVuSans-6c" transform="translate(2815.625 0)"/>
     <use xlink:href="#DejaVuSans-79" transform="translate(2843.408203 0)"/>
    </g>
   </g>
   <g id="text_23">
    <!-- IOPS vs Number of Jobs -->
    <g style="fill: #262626" transform="translate(152.179062 16.318125) scale(0.12 -0.12)">
     <defs>
      <path id="DejaVuSans-Bold-49" d="M 588 4666 
L 1791 4666 
L 1791 0 
L 588 0 
L 588 4666 
z
" transform="scale(0.015625)"/>
      <path id="DejaVuSans-Bold-4f" d="M 2719 3878 
Q 2169 3878 1866 3472 
Q 1563 3066 1563 2328 
Q 1563 1594 1866 1187 
Q 2169 781 2719 781 
Q 3272 781 3575 1187 
Q 3878 1594 3878 2328 
Q 3878 3066 3575 3472 
Q 3272 3878 2719 3878 
z
M 2719 4750 
Q 3844 4750 4481 4106 
Q 5119 3463 5119 2328 
Q 5119 1197 4481 553 
Q 3844 -91 2719 -91 
Q 1597 -91 958 553 
Q 319 1197 319 2328 
Q 319 3463 958 4106 
Q 1597 4750 2719 4750 
z
" transform="scale(0.015625)"/>
      <path id="DejaVuSans-Bold-50" d="M 588 4666 
L 2584 4666 
Q 3475 4666 3951 4270 
Q 4428 3875 4428 3144 
Q 4428 2409 3951 2014 
Q 3475 1619 2584 1619 
L 1791 1619 
L 1791 0 
L 588 0 
L 588 4666 
z
M 1791 3794 
L 1791 2491 
L 2456 2491 
Q 2806 2491 2997 2661 
Q 3188 2831 3188 3144 
Q 3188 3456 2997 3625 
Q 2806 3794 2456 3794 
L 1791 3794 
z
" transform="scale(0.015625)"/>
      <path id="DejaVuSans-Bold-53" d="M 3834 4519 
L 3834 3531 
Q 3450 3703 3084 3790 
Q 2719 3878 2394 3878 
Q 1963 3878 1756 3759 
Q 1550 3641 1550 3391 
Q 1550 3203 1689 3098 
Q 1828 2994 2194 2919 
L 2706 2816 
Q 3484 2659 3812 2340 
Q 4141 2022 4141 1434 
Q 4141 663 3683 286 
Q 3225 -91 2284 -91 
Q 1841 -91 1394 -6 
Q 947 78 500 244 
L 500 1259 
Q 947 1022 1364 901 
Q 1781 781 2169 781 
Q 2563 781 2772 912 
Q 2981 1044 2981 1288 
Q 2981 1506 2839 1625 
Q 2697 1744 2272 1838 
L 1806 1941 
Q 1106 2091 782 2419 
Q 459 2747 459 3303 
Q 459 4000 909 4375 
Q 1359 4750 2203 4750 
Q 2588 4750 2994 4692 
Q 3400 4634 3834 4519 
z
" transform="scale(0.015625)"/>
      <path id="DejaVuSans-Bold-20" transform="scale(0.015625)"/>
      <path id="DejaVuSans-Bold-76" d="M 97 3500 
L 1216 3500 
L 2088 1081 
L 2956 3500 
L 4078 3500 
L 2700 0 
L 1472 0 
L 97 3500 
z
" transform="scale(0.015625)"/>
      <path id="DejaVuSans-Bold-73" d="M 3272 3391 
L 3272 2541 
Q 2913 2691 2578 2766 
Q 2244 2841 1947 2841 
Q 1628 2841 1473 2761 
Q 1319 2681 1319 2516 
Q 1319 2381 1436 2309 
Q 1553 2238 1856 2203 
L 2053 2175 
Q 2913 2066 3209 1816 
Q 3506 1566 3506 1031 
Q 3506 472 3093 190 
Q 2681 -91 1863 -91 
Q 1516 -91 1145 -36 
Q 775 19 384 128 
L 384 978 
Q 719 816 1070 734 
Q 1422 653 1784 653 
Q 2113 653 2278 743 
Q 2444 834 2444 1013 
Q 2444 1163 2330 1236 
Q 2216 1309 1875 1350 
L 1678 1375 
Q 931 1469 631 1722 
Q 331 1975 331 2491 
Q 331 3047 712 3315 
Q 1094 3584 1881 3584 
Q 2191 3584 2531 3537 
Q 2872 3491 3272 3391 
z
" transform="scale(0.015625)"/>
      <path id="DejaVuSans-Bold-4e" d="M 588 4666 
L 1931 4666 
L 3628 1466 
L 3628 4666 
L 4769 4666 
L 4769 0 
L 3425 0 
L 1728 3200 
L 1728 0 
L 588 0 
L 588 4666 
z
" transform="scale(0.015625)"/>
      <path id="DejaVuSans-Bold-75" d="M 500 1363 
L 500 3500 
L 1625 3500 
L 1625 3150 
Q 1625 2866 1622 2436 
Q 1619 2006 1619 1863 
Q 1619 1441 1641 1255 
Q 1663 1069 1716 984 
Q 1784 875 1895 815 
Q 2006 756 2150 756 
Q 2500 756 2700 1025 
Q 2900 1294 2900 1772 
L 2900 3500 
L 4019 3500 
L 4019 0 
L 2900 0 
L 2900 506 
Q 2647 200 2364 54 
Q 2081 -91 1741 -91 
Q 1134 -91 817 281 
Q 500 653 500 1363 
z
" transform="scale(0.015625)"/>
      <path id="DejaVuSans-Bold-6d" d="M 3781 2919 
Q 3994 3244 4286 3414 
Q 4578 3584 4928 3584 
Q 5531 3584 5847 3212 
Q 6163 2841 6163 2131 
L 6163 0 
L 5038 0 
L 5038 1825 
Q 5041 1866 5042 1909 
Q 5044 1953 5044 2034 
Q 5044 2406 4934 2573 
Q 4825 2741 4581 2741 
Q 4263 2741 4089 2478 
Q 3916 2216 3909 1719 
L 3909 0 
L 2784 0 
L 2784 1825 
Q 2784 2406 2684 2573 
Q 2584 2741 2328 2741 
Q 2006 2741 1831 2477 
Q 1656 2213 1656 1722 
L 1656 0 
L 531 0 
L 531 3500 
L 1656 3500 
L 1656 2988 
Q 1863 3284 2130 3434 
Q 2397 3584 2719 3584 
Q 3081 3584 3359 3409 
Q 3638 3234 3781 2919 
z
" transform="scale(0.015625)"/>
      <path id="DejaVuSans-Bold-62" d="M 2400 722 
Q 2759 722 2948 984 
Q 3138 1247 3138 1747 
Q 3138 2247 2948 2509 
Q 2759 2772 2400 2772 
Q 2041 2772 1848 2508 
Q 1656 2244 1656 1747 
Q 1656 1250 1848 986 
Q 2041 722 2400 722 
z
M 1656 2988 
Q 1888 3294 2169 3439 
Q 2450 3584 2816 3584 
Q 3463 3584 3878 3070 
Q 4294 2556 4294 1747 
Q 4294 938 3878 423 
Q 3463 -91 2816 -91 
Q 2450 -91 2169 54 
Q 1888 200 1656 506 
L 1656 0 
L 538 0 
L 538 4863 
L 1656 4863 
L 1656 2988 
z
" transform="scale(0.015625)"/>
      <path id="DejaVuSans-Bold-65" d="M 4031 1759 
L 4031 1441 
L 1416 1441 
Q 1456 1047 1700 850 
Q 1944 653 2381 653 
Q 2734 653 3104 758 
Q 3475 863 3866 1075 
L 3866 213 
Q 3469 63 3072 -14 
Q 2675 -91 2278 -91 
Q 1328 -91 801 392 
Q 275 875 275 1747 
Q 275 2603 792 3093 
Q 1309 3584 2216 3584 
Q 3041 3584 3536 3087 
Q 4031 2591 4031 1759 
z
M 2881 2131 
Q 2881 2450 2695 2645 
Q 2509 2841 2209 2841 
Q 1884 2841 1681 2658 
Q 1478 2475 1428 2131 
L 2881 2131 
z
" transform="scale(0.015625)"/>
      <path id="DejaVuSans-Bold-72" d="M 3138 2547 
Q 2991 2616 2845 2648 
Q 2700 2681 2553 2681 
Q 2122 2681 1889 2404 
Q 1656 2128 1656 1613 
L 1656 0 
L 538 0 
L 538 3500 
L 1656 3500 
L 1656 2925 
Q 1872 3269 2151 3426 
Q 2431 3584 2822 3584 
Q 2878 3584 2943 3579 
Q 3009 3575 3134 3559 
L 3138 2547 
z
" transform="scale(0.015625)"/>
      <path id="DejaVuSans-Bold-6f" d="M 2203 2784 
Q 1831 2784 1636 2517 
Q 1441 2250 1441 1747 
Q 1441 1244 1636 976 
Q 1831 709 2203 709 
Q 2569 709 2762 976 
Q 2956 1244 2956 1747 
Q 2956 2250 2762 2517 
Q 2569 2784 2203 2784 
z
M 2203 3584 
Q 3106 3584 3614 3096 
Q 4122 2609 4122 1747 
Q 4122 884 3614 396 
Q 3106 -91 2203 -91 
Q 1297 -91 786 396 
Q 275 884 275 1747 
Q 275 2609 786 3096 
Q 1297 3584 2203 3584 
z
" transform="scale(0.015625)"/>
      <path id="DejaVuSans-Bold-66" d="M 2841 4863 
L 2841 4128 
L 2222 4128 
Q 1984 4128 1890 4042 
Q 1797 3956 1797 3744 
L 1797 3500 
L 2753 3500 
L 2753 2700 
L 1797 2700 
L 1797 0 
L 678 0 
L 678 2700 
L 122 2700 
L 122 3500 
L 678 3500 
L 678 3744 
Q 678 4316 997 4589 
Q 1316 4863 1984 4863 
L 2841 4863 
z
" transform="scale(0.015625)"/>
      <path id="DejaVuSans-Bold-4a" d="M 588 4666 
L 1791 4666 
L 1791 453 
Q 1791 -419 1317 -850 
Q 844 -1281 -116 -1281 
L -359 -1281 
L -359 -372 
L -172 -372 
Q 203 -372 395 -162 
Q 588 47 588 453 
L 588 4666 
z
" transform="scale(0.015625)"/>
     </defs>
     <use xlink:href="#DejaVuSans-Bold-49"/>
     <use xlink:href="#DejaVuSans-Bold-4f" transform="translate(37.207031 0)"/>
     <use xlink:href="#DejaVuSans-Bold-50" transform="translate(122.216797 0)"/>
     <use xlink:href="#DejaVuSans-Bold-53" transform="translate(195.507812 0)"/>
     <use xlink:href="#DejaVuSans-Bold-20" transform="translate(267.529297 0)"/>
     <use xlink:href="#DejaVuSans-Bold-76" transform="translate(302.34375 0)"/>
     <use xlink:href="#DejaVuSans-Bold-73" transform="translate(367.529297 0)"/>
     <use xlink:href="#DejaVuSans-Bold-20" transform="translate(427.050781 0)"/>
     <use xlink:href="#DejaVuSans-Bold-4e" transform="translate(461.865234 0)"/>
     <use xlink:href="#DejaVuSans-Bold-75" transform="translate(545.556641 0)"/>
     <use xlink:href="#DejaVuSans-Bold-6d" transform="translate(616.748047 0)"/>
     <use xlink:href="#DejaVuSans-Bold-62" transform="translate(720.947266 0)"/>
     <use xlink:href="#DejaVuSans-Bold-65" transform="translate(792.529297 0)"/>
     <use xlink:href="#DejaVuSans-Bold-72" transform="translate(860.351562 0)"/>
     <use xlink:href="#DejaVuSans-Bold-20" transform="translate(909.667969 0)"/>
     <use xlink:href="#DejaVuSans-Bold-6f" transform="translate(944.482422 0)"/>
     <use xlink:href="#DejaVuSans-Bold-66" transform="translate(1013.183594 0)"/>
     <use xlink:href="#DejaVuSans-Bold-20" transform="translate(1056.689453 0)"/>
     <use xlink:href="#DejaVuSans-Bold-4a" transform="translate(1091.503906 0)"/>
     <use xlink:href="#DejaVuSans-Bold-6f" transform="translate(1128.710938 0)"/>
     <use xlink:href="#DejaVuSans-Bold-62" transform="translate(1197.412109 0)"/>
     <use xlink:href="#DejaVuSans-Bold-73" transform="translate(1268.994141 0)"/>
    </g>
   </g>
   <g id="legend_1">
    <g id="text_24">
     <!-- IO Depth -->
     <g style="fill: #262626" transform="translate(444.954687 120.065663) scale(0.1 -0.1)">
      <defs>
       <path id="DejaVuSans-44" d="M 1259 4147 
L 1259 519 
L 2022 519 
Q 2988 519 3436 956 
Q 3884 1394 3884 2338 
Q 3884 3275 3436 3711 
Q 2988 4147 2022 4147 
L 1259 4147 
z
M 628 4666 
L 1925 4666 
Q 3281 4666 3915 4102 
Q 4550 3538 4550 2338 
Q 4550 1131 3912 565 
Q 3275 0 1925 0 
L 628 0 
L 628 4666 
z
" transform="scale(0.015625)"/>
       <path id="DejaVuSans-68" d="M 3513 2113 
L 3513 0 
L 2938 0 
L 2938 2094 
Q 2938 2591 2744 2837 
Q 2550 3084 2163 3084 
Q 1697 3084 1428 2787 
Q 1159 2491 1159 1978 
L 1159 0 
L 581 0 
L 581 4863 
L 1159 4863 
L 1159 2956 
Q 1366 3272 1645 3428 
Q 1925 3584 2291 3584 
Q 2894 3584 3203 3211 
Q 3513 2838 3513 2113 
z
" transform="scale(0.015625)"/>
      </defs>
      <use xlink:href="#DejaVuSans-49"/>
      <use xlink:href="#DejaVuSans-4f" transform="translate(29.492188 0)"/>
      <use xlink:href="#DejaVuSans-20" transform="translate(108.203125 0)"/>
      <use xlink:href="#DejaVuSans-44" transform="translate(139.990234 0)"/>
      <use xlink:href="#DejaVuSans-65" transform="translate(216.992188 0)"/>
      <use xlink:href="#DejaVuSans-70" transform="translate(278.515625 0)"/>
      <use xlink:href="#DejaVuSans-74" transform="translate(341.992188 0)"/>
      <use xlink:href="#DejaVuSans-68" transform="translate(381.201172 0)"/>
     </g>
    </g>
    <g id="line2d_27">
     <path d="M 443.640625 131.243787 
L 453.640625 131.243787 
L 463.640625 131.243787 
" style="fill: none; stroke: #4c02a1; stroke-width: 1.5; stroke-linecap: round"/>
    </g>
    <g id="text_25">
     <!-- 1 -->
     <g style="fill: #262626" transform="translate(471.640625 134.743787) scale(0.1 -0.1)">
      <use xlink:href="#DejaVuSans-31"/>
     </g>
    </g>
    <g id="line2d_28">
     <path d="M 443.640625 145.921913 
L 453.640625 145.921913 
L 463.640625 145.921913 
" style="fill: none; stroke: #7e03a8; stroke-width: 1.5; stroke-linecap: round"/>
    </g>
    <g id="text_26">
     <!-- 4 -->
     <g style="fill: #262626" transform="translate(471.640625 149.421913) scale(0.1 -0.1)">
      <use xlink:href="#DejaVuSans-34"/>
     </g>
    </g>
    <g id="line2d_29">
     <path d="M 443.640625 160.600037 
L 453.640625 160.600037 
L 463.640625 160.600037 
" style="fill: none; stroke: #aa2395; stroke-width: 1.5; stroke-linecap: round"/>
    </g>
    <g id="text_27">
     <!-- 8 -->
     <g style="fill: #262626" transform="translate(471.640625 164.100037) scale(0.1 -0.1)">
      <use xlink:href="#DejaVuSans-38"/>
     </g>
    </g>
    <g id="line2d_30">
     <path d="M 443.640625 175.278163 
L 453.640625 175.278163 
L 463.640625 175.278163 
" style="fill: none; stroke: #cc4778; stroke-width: 1.5; stroke-linecap: round"/>
    </g>
    <g id="text_28">
     <!-- 16 -->
     <g style="fill: #262626" transform="translate(471.640625 178.778163) scale(0.1 -0.1)">
      <use xlink:href="#DejaVuSans-31"/>
      <use xlink:href="#DejaVuSans-36" transform="translate(63.623047 0)"/>
     </g>
    </g>
    <g id="line2d_31">
     <path d="M 443.640625 189.956288 
L 453.640625 189.956288 
L 463.640625 189.956288 
" style="fill: none; stroke: #e66c5c; stroke-width: 1.5; stroke-linecap: round"/>
    </g>
    <g id="text_29">
     <!-- 32 -->
     <g style="fill: #262626" transform="translate(471.640625 193.456288) scale(0.1 -0.1)">
      <use xlink:href="#DejaVuSans-33"/>
      <use xlink:href="#DejaVuSans-32" transform="translate(63.623047 0)"/>
     </g>
    </g>
    <g id="line2d_32">
     <path d="M 443.640625 204.634412 
L 453.640625 204.634412 
L 463.640625 204.634412 
" style="fill: none; stroke: #f89540; stroke-width: 1.5; stroke-linecap: round"/>
    </g>
    <g id="text_30">
     <!-- 64 -->
     <g style="fill: #262626" transform="translate(471.640625 208.134412) scale(0.1 -0.1)">
      <use xlink:href="#DejaVuSans-36"/>
      <use xlink:href="#DejaVuSans-34" transform="translate(63.623047 0)"/>
     </g>
    </g>
    <g id="line2d_33">
     <path d="M 443.640625 219.312537 
L 453.640625 219.312537 
L 463.640625 219.312537 
" style="fill: none; stroke: #fdc527; stroke-width: 1.5; stroke-linecap: round"/>
    </g>
    <g id="text_31">
     <!-- 128 -->
     <g style="fill: #262626" transform="translate(471.640625 222.812537) scale(0.1 -0.1)">
      <use xlink:href="#DejaVuSans-31"/>
      <use xlink:href="#DejaVuSans-32" transform="translate(63.623047 0)"/>
      <use xlink:href="#DejaVuSans-38" transform="translate(127.246094 0)"/>
     </g>
    </g>
   </g>
  </g>
 </g>
 <defs>
  <clipPath id="p18404b584a">
   <rect x="53.328125" y="35.623725" width="357.12" height="266.112"/>
  </clipPath>
 </defs>
</svg>
