<?xml version="1.0" encoding="utf-8" standalone="no"?>
<!DOCTYPE svg PUBLIC "-//W3C//DTD SVG 1.1//EN"
  "http://www.w3.org/Graphics/SVG/1.1/DTD/svg11.dtd">
<svg xmlns:xlink="http://www.w3.org/1999/xlink" width="508.290625pt" height="339.291975pt" viewBox="0 0 508.290625 339.291975" xmlns="http://www.w3.org/2000/svg" version="1.1">
 <metadata>
  <rdf:RDF xmlns:dc="http://purl.org/dc/elements/1.1/" xmlns:cc="http://creativecommons.org/ns#" xmlns:rdf="http://www.w3.org/1999/02/22-rdf-syntax-ns#">
   <cc:Work>
    <dc:type rdf:resource="http://purl.org/dc/dcmitype/StillImage"/>
    <dc:date>2025-09-11T11:44:25.049082</dc:date>
    <dc:format>image/svg+xml</dc:format>
    <dc:creator>
     <cc:Agent>
      <dc:title>Matplotlib v3.10.6, https://matplotlib.org/</dc:title>
     </cc:Agent>
    </dc:creator>
   </cc:Work>
  </rdf:RDF>
 </metadata>
 <defs>
  <style type="text/css">*{stroke-linejoin: round; stroke-linecap: butt}</style>
 </defs>
 <g id="figure_1">
  <g id="patch_1">
   <path d="M 0 339.291975 
L 508.290625 339.291975 
L 508.290625 0 
L 0 0 
z
" style="fill: #ffffff"/>
  </g>
  <g id="axes_1">
   <g id="patch_2">
    <path d="M 59.690625 301.735725 
L 416.810625 301.735725 
L 416.810625 35.623725 
L 59.690625 35.623725 
z
" style="fill: #ffffff"/>
   </g>
   <g id="matplotlib.axis_1">
    <g id="xtick_1">
     <g id="line2d_1">
      <path d="M 93.817697 301.735725 
L 93.817697 35.623725 
" clip-path="url(#p3715892ba6)" style="fill: none; stroke: #cccccc; stroke-width: 0.8; stroke-linecap: round"/>
     </g>
     <g id="text_1">
      <!-- 8 -->
      <g style="fill: #262626" transform="translate(90.636447 316.334162) scale(0.1 -0.1)">
       <defs>
        <path id="DejaVuSans-38" d="M 2034 2216 
Q 1584 2216 1326 1975 
Q 1069 1734 1069 1313 
Q 1069 891 1326 650 
Q 1584 409 2034 409 
Q 2484 409 2743 651 
Q 3003 894 3003 1313 
Q 3003 1734 2745 1975 
Q 2488 2216 2034 2216 
z
M 1403 2484 
Q 997 2584 770 2862 
Q 544 3141 544 3541 
Q 544 4100 942 4425 
Q 1341 4750 2034 4750 
Q 2731 4750 3128 4425 
Q 3525 4100 3525 3541 
Q 3525 3141 3298 2862 
Q 3072 2584 2669 2484 
Q 3125 2378 3379 2068 
Q 3634 1759 3634 1313 
Q 3634 634 3220 271 
Q 2806 -91 2034 -91 
Q 1263 -91 848 271 
Q 434 634 434 1313 
Q 434 1759 690 2068 
Q 947 2378 1403 2484 
z
M 1172 3481 
Q 1172 3119 1398 2916 
Q 1625 2713 2034 2713 
Q 2441 2713 2670 2916 
Q 2900 3119 2900 3481 
Q 2900 3844 2670 4047 
Q 2441 4250 2034 4250 
Q 1625 4250 1398 4047 
Q 1172 3844 1172 3481 
z
" transform="scale(0.015625)"/>
       </defs>
       <use xlink:href="#DejaVuSans-38"/>
      </g>
     </g>
    </g>
    <g id="xtick_2">
     <g id="line2d_2">
      <path d="M 75.923352 301.735725 
L 75.923352 35.623725 
" clip-path="url(#p3715892ba6)" style="fill: none; stroke: #cccccc; stroke-width: 0.8; stroke-linecap: round"/>
     </g>
     <g id="text_2">
      <!-- 1 -->
      <g style="fill: #262626" transform="translate(72.742102 316.334162) scale(0.1 -0.1)">
       <defs>
        <path id="DejaVuSans-31" d="M 794 531 
L 1825 531 
L 1825 4091 
L 703 3866 
L 703 4441 
L 1819 4666 
L 2450 4666 
L 2450 531 
L 3481 531 
L 3481 0 
L 794 0 
L 794 531 
z
" transform="scale(0.015625)"/>
       </defs>
       <use xlink:href="#DejaVuSans-31"/>
      </g>
     </g>
    </g>
    <g id="xtick_3">
     <g id="line2d_3">
      <path d="M 83.592357 301.735725 
L 83.592357 35.623725 
" clip-path="url(#p3715892ba6)" style="fill: none; stroke: #cccccc; stroke-width: 0.8; stroke-linecap: round"/>
     </g>
     <g id="text_3">
      <!-- 4 -->
      <g style="fill: #262626" transform="translate(80.411107 316.334162) scale(0.1 -0.1)">
       <defs>
        <path id="DejaVuSans-34" d="M 2419 4116 
L 825 1625 
L 2419 1625 
L 2419 4116 
z
M 2253 4666 
L 3047 4666 
L 3047 1625 
L 3713 1625 
L 3713 1100 
L 3047 1100 
L 3047 0 
L 2419 0 
L 2419 1100 
L 313 1100 
L 313 1709 
L 2253 4666 
z
" transform="scale(0.015625)"/>
       </defs>
       <use xlink:href="#DejaVuSans-34"/>
      </g>
     </g>
    </g>
    <g id="xtick_4">
     <g id="line2d_4">
      <path d="M 400.577898 301.735725 
L 400.577898 35.623725 
" clip-path="url(#p3715892ba6)" style="fill: none; stroke: #cccccc; stroke-width: 0.8; stroke-linecap: round"/>
     </g>
     <g id="text_4">
      <!-- 128 -->
      <g style="fill: #262626" transform="translate(391.034148 316.334162) scale(0.1 -0.1)">
       <defs>
        <path id="DejaVuSans-32" d="M 1228 531 
L 3431 531 
L 3431 0 
L 469 0 
L 469 531 
Q 828 903 1448 1529 
Q 2069 2156 2228 2338 
Q 2531 2678 2651 2914 
Q 2772 3150 2772 3378 
Q 2772 3750 2511 3984 
Q 2250 4219 1831 4219 
Q 1534 4219 1204 4116 
Q 875 4013 500 3803 
L 500 4441 
Q 881 4594 1212 4672 
Q 1544 4750 1819 4750 
Q 2544 4750 2975 4387 
Q 3406 4025 3406 3419 
Q 3406 3131 3298 2873 
Q 3191 2616 2906 2266 
Q 2828 2175 2409 1742 
Q 1991 1309 1228 531 
z
" transform="scale(0.015625)"/>
       </defs>
       <use xlink:href="#DejaVuSans-31"/>
       <use xlink:href="#DejaVuSans-32" transform="translate(63.623047 0)"/>
       <use xlink:href="#DejaVuSans-38" transform="translate(127.246094 0)"/>
      </g>
     </g>
    </g>
    <g id="xtick_5">
     <g id="line2d_5">
      <path d="M 155.169737 301.735725 
L 155.169737 35.623725 
" clip-path="url(#p3715892ba6)" style="fill: none; stroke: #cccccc; stroke-width: 0.8; stroke-linecap: round"/>
     </g>
     <g id="text_5">
      <!-- 32 -->
      <g style="fill: #262626" transform="translate(148.807237 316.334162) scale(0.1 -0.1)">
       <defs>
        <path id="DejaVuSans-33" d="M 2597 2516 
Q 3050 2419 3304 2112 
Q 3559 1806 3559 1356 
Q 3559 666 3084 287 
Q 2609 -91 1734 -91 
Q 1441 -91 1130 -33 
Q 819 25 488 141 
L 488 750 
Q 750 597 1062 519 
Q 1375 441 1716 441 
Q 2309 441 2620 675 
Q 2931 909 2931 1356 
Q 2931 1769 2642 2001 
Q 2353 2234 1838 2234 
L 1294 2234 
L 1294 2753 
L 1863 2753 
Q 2328 2753 2575 2939 
Q 2822 3125 2822 3475 
Q 2822 3834 2567 4026 
Q 2313 4219 1838 4219 
Q 1578 4219 1281 4162 
Q 984 4106 628 3988 
L 628 4550 
Q 988 4650 1302 4700 
Q 1616 4750 1894 4750 
Q 2613 4750 3031 4423 
Q 3450 4097 3450 3541 
Q 3450 3153 3228 2886 
Q 3006 2619 2597 2516 
z
" transform="scale(0.015625)"/>
       </defs>
       <use xlink:href="#DejaVuSans-33"/>
       <use xlink:href="#DejaVuSans-32" transform="translate(63.623047 0)"/>
      </g>
     </g>
    </g>
    <g id="xtick_6">
     <g id="line2d_6">
      <path d="M 236.972457 301.735725 
L 236.972457 35.623725 
" clip-path="url(#p3715892ba6)" style="fill: none; stroke: #cccccc; stroke-width: 0.8; stroke-linecap: round"/>
     </g>
     <g id="text_6">
      <!-- 64 -->
      <g style="fill: #262626" transform="translate(230.609957 316.334162) scale(0.1 -0.1)">
       <defs>
        <path id="DejaVuSans-36" d="M 2113 2584 
Q 1688 2584 1439 2293 
Q 1191 2003 1191 1497 
Q 1191 994 1439 701 
Q 1688 409 2113 409 
Q 2538 409 2786 701 
Q 3034 994 3034 1497 
Q 3034 2003 2786 2293 
Q 2538 2584 2113 2584 
z
M 3366 4563 
L 3366 3988 
Q 3128 4100 2886 4159 
Q 2644 4219 2406 4219 
Q 1781 4219 1451 3797 
Q 1122 3375 1075 2522 
Q 1259 2794 1537 2939 
Q 1816 3084 2150 3084 
Q 2853 3084 3261 2657 
Q 3669 2231 3669 1497 
Q 3669 778 3244 343 
Q 2819 -91 2113 -91 
Q 1303 -91 875 529 
Q 447 1150 447 2328 
Q 447 3434 972 4092 
Q 1497 4750 2381 4750 
Q 2619 4750 2861 4703 
Q 3103 4656 3366 4563 
z
" transform="scale(0.015625)"/>
       </defs>
       <use xlink:href="#DejaVuSans-36"/>
       <use xlink:href="#DejaVuSans-34" transform="translate(63.623047 0)"/>
      </g>
     </g>
    </g>
    <g id="xtick_7">
     <g id="line2d_7">
      <path d="M 114.268377 301.735725 
L 114.268377 35.623725 
" clip-path="url(#p3715892ba6)" style="fill: none; stroke: #cccccc; stroke-width: 0.8; stroke-linecap: round"/>
     </g>
     <g id="text_7">
      <!-- 16 -->
      <g style="fill: #262626" transform="translate(107.905877 316.334162) scale(0.1 -0.1)">
       <use xlink:href="#DejaVuSans-31"/>
       <use xlink:href="#DejaVuSans-36" transform="translate(63.623047 0)"/>
      </g>
     </g>
    </g>
    <g id="text_8">
     <!-- IO Depth -->
     <g style="fill: #262626" transform="translate(216.020938 330.012287) scale(0.1 -0.1)">
      <defs>
       <path id="DejaVuSans-49" d="M 628 4666 
L 1259 4666 
L 1259 0 
L 628 0 
L 628 4666 
z
" transform="scale(0.015625)"/>
       <path id="DejaVuSans-4f" d="M 2522 4238 
Q 1834 4238 1429 3725 
Q 1025 3213 1025 2328 
Q 1025 1447 1429 934 
Q 1834 422 2522 422 
Q 3209 422 3611 934 
Q 4013 1447 4013 2328 
Q 4013 3213 3611 3725 
Q 3209 4238 2522 4238 
z
M 2522 4750 
Q 3503 4750 4090 4092 
Q 4678 3434 4678 2328 
Q 4678 1225 4090 567 
Q 3503 -91 2522 -91 
Q 1538 -91 948 565 
Q 359 1222 359 2328 
Q 359 3434 948 4092 
Q 1538 4750 2522 4750 
z
" transform="scale(0.015625)"/>
       <path id="DejaVuSans-20" transform="scale(0.015625)"/>
       <path id="DejaVuSans-44" d="M 1259 4147 
L 1259 519 
L 2022 519 
Q 2988 519 3436 956 
Q 3884 1394 3884 2338 
Q 3884 3275 3436 3711 
Q 2988 4147 2022 4147 
L 1259 4147 
z
M 628 4666 
L 1925 4666 
Q 3281 4666 3915 4102 
Q 4550 3538 4550 2338 
Q 4550 1131 3912 565 
Q 3275 0 1925 0 
L 628 0 
L 628 4666 
z
" transform="scale(0.015625)"/>
       <path id="DejaVuSans-65" d="M 3597 1894 
L 3597 1613 
L 953 1613 
Q 991 1019 1311 708 
Q 1631 397 2203 397 
Q 2534 397 2845 478 
Q 3156 559 3463 722 
L 3463 178 
Q 3153 47 2828 -22 
Q 2503 -91 2169 -91 
Q 1331 -91 842 396 
Q 353 884 353 1716 
Q 353 2575 817 3079 
Q 1281 3584 2069 3584 
Q 2775 3584 3186 3129 
Q 3597 2675 3597 1894 
z
M 3022 2063 
Q 3016 2534 2758 2815 
Q 2500 3097 2075 3097 
Q 1594 3097 1305 2825 
Q 1016 2553 972 2059 
L 3022 2063 
z
" transform="scale(0.015625)"/>
       <path id="DejaVuSans-70" d="M 1159 525 
L 1159 -1331 
L 581 -1331 
L 581 3500 
L 1159 3500 
L 1159 2969 
Q 1341 3281 1617 3432 
Q 1894 3584 2278 3584 
Q 2916 3584 3314 3078 
Q 3713 2572 3713 1747 
Q 3713 922 3314 415 
Q 2916 -91 2278 -91 
Q 1894 -91 1617 61 
Q 1341 213 1159 525 
z
M 3116 1747 
Q 3116 2381 2855 2742 
Q 2594 3103 2138 3103 
Q 1681 3103 1420 2742 
Q 1159 2381 1159 1747 
Q 1159 1113 1420 752 
Q 1681 391 2138 391 
Q 2594 391 2855 752 
Q 3116 1113 3116 1747 
z
" transform="scale(0.015625)"/>
       <path id="DejaVuSans-74" d="M 1172 4494 
L 1172 3500 
L 2356 3500 
L 2356 3053 
L 1172 3053 
L 1172 1153 
Q 1172 725 1289 603 
Q 1406 481 1766 481 
L 2356 481 
L 2356 0 
L 1766 0 
Q 1100 0 847 248 
Q 594 497 594 1153 
L 594 3053 
L 172 3053 
L 172 3500 
L 594 3500 
L 594 4494 
L 1172 4494 
z
" transform="scale(0.015625)"/>
       <path id="DejaVuSans-68" d="M 3513 2113 
L 3513 0 
L 2938 0 
L 2938 2094 
Q 2938 2591 2744 2837 
Q 2550 3084 2163 3084 
Q 1697 3084 1428 2787 
Q 1159 2491 1159 1978 
L 1159 0 
L 581 0 
L 581 4863 
L 1159 4863 
L 1159 2956 
Q 1366 3272 1645 3428 
Q 1925 3584 2291 3584 
Q 2894 3584 3203 3211 
Q 3513 2838 3513 2113 
z
" transform="scale(0.015625)"/>
      </defs>
      <use xlink:href="#DejaVuSans-49"/>
      <use xlink:href="#DejaVuSans-4f" transform="translate(29.492188 0)"/>
      <use xlink:href="#DejaVuSans-20" transform="translate(108.203125 0)"/>
      <use xlink:href="#DejaVuSans-44" transform="translate(139.990234 0)"/>
      <use xlink:href="#DejaVuSans-65" transform="translate(216.992188 0)"/>
      <use xlink:href="#DejaVuSans-70" transform="translate(278.515625 0)"/>
      <use xlink:href="#DejaVuSans-74" transform="translate(341.992188 0)"/>
      <use xlink:href="#DejaVuSans-68" transform="translate(381.201172 0)"/>
     </g>
    </g>
   </g>
   <g id="matplotlib.axis_2">
    <g id="ytick_1">
     <g id="line2d_8">
      <path d="M 59.690625 280.408843 
L 416.810625 280.408843 
" clip-path="url(#p3715892ba6)" style="fill: none; stroke: #cccccc; stroke-width: 0.8; stroke-linecap: round"/>
     </g>
     <g id="text_9">
      <!-- 40000 -->
      <g style="fill: #262626" transform="translate(20.878125 284.208061) scale(0.1 -0.1)">
       <defs>
        <path id="DejaVuSans-30" d="M 2034 4250 
Q 1547 4250 1301 3770 
Q 1056 3291 1056 2328 
Q 1056 1369 1301 889 
Q 1547 409 2034 409 
Q 2525 409 2770 889 
Q 3016 1369 3016 2328 
Q 3016 3291 2770 3770 
Q 2525 4250 2034 4250 
z
M 2034 4750 
Q 2819 4750 3233 4129 
Q 3647 3509 3647 2328 
Q 3647 1150 3233 529 
Q 2819 -91 2034 -91 
Q 1250 -91 836 529 
Q 422 1150 422 2328 
Q 422 3509 836 4129 
Q 1250 4750 2034 4750 
z
" transform="scale(0.015625)"/>
       </defs>
       <use xlink:href="#DejaVuSans-34"/>
       <use xlink:href="#DejaVuSans-30" transform="translate(63.623047 0)"/>
       <use xlink:href="#DejaVuSans-30" transform="translate(127.246094 0)"/>
       <use xlink:href="#DejaVuSans-30" transform="translate(190.869141 0)"/>
       <use xlink:href="#DejaVuSans-30" transform="translate(254.492188 0)"/>
      </g>
     </g>
    </g>
    <g id="ytick_2">
     <g id="line2d_9">
      <path d="M 59.690625 248.189358 
L 416.810625 248.189358 
" clip-path="url(#p3715892ba6)" style="fill: none; stroke: #cccccc; stroke-width: 0.8; stroke-linecap: round"/>
     </g>
     <g id="text_10">
      <!-- 42000 -->
      <g style="fill: #262626" transform="translate(20.878125 251.988577) scale(0.1 -0.1)">
       <use xlink:href="#DejaVuSans-34"/>
       <use xlink:href="#DejaVuSans-32" transform="translate(63.623047 0)"/>
       <use xlink:href="#DejaVuSans-30" transform="translate(127.246094 0)"/>
       <use xlink:href="#DejaVuSans-30" transform="translate(190.869141 0)"/>
       <use xlink:href="#DejaVuSans-30" transform="translate(254.492188 0)"/>
      </g>
     </g>
    </g>
    <g id="ytick_3">
     <g id="line2d_10">
      <path d="M 59.690625 215.969873 
L 416.810625 215.969873 
" clip-path="url(#p3715892ba6)" style="fill: none; stroke: #cccccc; stroke-width: 0.8; stroke-linecap: round"/>
     </g>
     <g id="text_11">
      <!-- 44000 -->
      <g style="fill: #262626" transform="translate(20.878125 219.769092) scale(0.1 -0.1)">
       <use xlink:href="#DejaVuSans-34"/>
       <use xlink:href="#DejaVuSans-34" transform="translate(63.623047 0)"/>
       <use xlink:href="#DejaVuSans-30" transform="translate(127.246094 0)"/>
       <use xlink:href="#DejaVuSans-30" transform="translate(190.869141 0)"/>
       <use xlink:href="#DejaVuSans-30" transform="translate(254.492188 0)"/>
      </g>
     </g>
    </g>
    <g id="ytick_4">
     <g id="line2d_11">
      <path d="M 59.690625 183.750389 
L 416.810625 183.750389 
" clip-path="url(#p3715892ba6)" style="fill: none; stroke: #cccccc; stroke-width: 0.8; stroke-linecap: round"/>
     </g>
     <g id="text_12">
      <!-- 46000 -->
      <g style="fill: #262626" transform="translate(20.878125 187.549608) scale(0.1 -0.1)">
       <use xlink:href="#DejaVuSans-34"/>
       <use xlink:href="#DejaVuSans-36" transform="translate(63.623047 0)"/>
       <use xlink:href="#DejaVuSans-30" transform="translate(127.246094 0)"/>
       <use xlink:href="#DejaVuSans-30" transform="translate(190.869141 0)"/>
       <use xlink:href="#DejaVuSans-30" transform="translate(254.492188 0)"/>
      </g>
     </g>
    </g>
    <g id="ytick_5">
     <g id="line2d_12">
      <path d="M 59.690625 151.530904 
L 416.810625 151.530904 
" clip-path="url(#p3715892ba6)" style="fill: none; stroke: #cccccc; stroke-width: 0.8; stroke-linecap: round"/>
     </g>
     <g id="text_13">
      <!-- 48000 -->
      <g style="fill: #262626" transform="translate(20.878125 155.330123) scale(0.1 -0.1)">
       <use xlink:href="#DejaVuSans-34"/>
       <use xlink:href="#DejaVuSans-38" transform="translate(63.623047 0)"/>
       <use xlink:href="#DejaVuSans-30" transform="translate(127.246094 0)"/>
       <use xlink:href="#DejaVuSans-30" transform="translate(190.869141 0)"/>
       <use xlink:href="#DejaVuSans-30" transform="translate(254.492188 0)"/>
      </g>
     </g>
    </g>
    <g id="ytick_6">
     <g id="line2d_13">
      <path d="M 59.690625 119.31142 
L 416.810625 119.31142 
" clip-path="url(#p3715892ba6)" style="fill: none; stroke: #cccccc; stroke-width: 0.8; stroke-linecap: round"/>
     </g>
     <g id="text_14">
      <!-- 50000 -->
      <g style="fill: #262626" transform="translate(20.878125 123.110638) scale(0.1 -0.1)">
       <defs>
        <path id="DejaVuSans-35" d="M 691 4666 
L 3169 4666 
L 3169 4134 
L 1269 4134 
L 1269 2991 
Q 1406 3038 1543 3061 
Q 1681 3084 1819 3084 
Q 2600 3084 3056 2656 
Q 3513 2228 3513 1497 
Q 3513 744 3044 326 
Q 2575 -91 1722 -91 
Q 1428 -91 1123 -41 
Q 819 9 494 109 
L 494 744 
Q 775 591 1075 516 
Q 1375 441 1709 441 
Q 2250 441 2565 725 
Q 2881 1009 2881 1497 
Q 2881 1984 2565 2268 
Q 2250 2553 1709 2553 
Q 1456 2553 1204 2497 
Q 953 2441 691 2322 
L 691 4666 
z
" transform="scale(0.015625)"/>
       </defs>
       <use xlink:href="#DejaVuSans-35"/>
       <use xlink:href="#DejaVuSans-30" transform="translate(63.623047 0)"/>
       <use xlink:href="#DejaVuSans-30" transform="translate(127.246094 0)"/>
       <use xlink:href="#DejaVuSans-30" transform="translate(190.869141 0)"/>
       <use xlink:href="#DejaVuSans-30" transform="translate(254.492188 0)"/>
      </g>
     </g>
    </g>
    <g id="ytick_7">
     <g id="line2d_14">
      <path d="M 59.690625 87.091935 
L 416.810625 87.091935 
" clip-path="url(#p3715892ba6)" style="fill: none; stroke: #cccccc; stroke-width: 0.8; stroke-linecap: round"/>
     </g>
     <g id="text_15">
      <!-- 52000 -->
      <g style="fill: #262626" transform="translate(20.878125 90.891154) scale(0.1 -0.1)">
       <use xlink:href="#DejaVuSans-35"/>
       <use xlink:href="#DejaVuSans-32" transform="translate(63.623047 0)"/>
       <use xlink:href="#DejaVuSans-30" transform="translate(127.246094 0)"/>
       <use xlink:href="#DejaVuSans-30" transform="translate(190.869141 0)"/>
       <use xlink:href="#DejaVuSans-30" transform="translate(254.492188 0)"/>
      </g>
     </g>
    </g>
    <g id="ytick_8">
     <g id="line2d_15">
      <path d="M 59.690625 54.872451 
L 416.810625 54.872451 
" clip-path="url(#p3715892ba6)" style="fill: none; stroke: #cccccc; stroke-width: 0.8; stroke-linecap: round"/>
     </g>
     <g id="text_16">
      <!-- 54000 -->
      <g style="fill: #262626" transform="translate(20.878125 58.671669) scale(0.1 -0.1)">
       <use xlink:href="#DejaVuSans-35"/>
       <use xlink:href="#DejaVuSans-34" transform="translate(63.623047 0)"/>
       <use xlink:href="#DejaVuSans-30" transform="translate(127.246094 0)"/>
       <use xlink:href="#DejaVuSans-30" transform="translate(190.869141 0)"/>
       <use xlink:href="#DejaVuSans-30" transform="translate(254.492188 0)"/>
      </g>
     </g>
    </g>
    <g id="text_17">
     <!-- IOPS -->
     <g style="fill: #262626" transform="translate(14.798438 180.279725) rotate(-90) scale(0.1 -0.1)">
      <defs>
       <path id="DejaVuSans-50" d="M 1259 4147 
L 1259 2394 
L 2053 2394 
Q 2494 2394 2734 2622 
Q 2975 2850 2975 3272 
Q 2975 3691 2734 3919 
Q 2494 4147 2053 4147 
L 1259 4147 
z
M 628 4666 
L 2053 4666 
Q 2838 4666 3239 4311 
Q 3641 3956 3641 3272 
Q 3641 2581 3239 2228 
Q 2838 1875 2053 1875 
L 1259 1875 
L 1259 0 
L 628 0 
L 628 4666 
z
" transform="scale(0.015625)"/>
       <path id="DejaVuSans-53" d="M 3425 4513 
L 3425 3897 
Q 3066 4069 2747 4153 
Q 2428 4238 2131 4238 
Q 1616 4238 1336 4038 
Q 1056 3838 1056 3469 
Q 1056 3159 1242 3001 
Q 1428 2844 1947 2747 
L 2328 2669 
Q 3034 2534 3370 2195 
Q 3706 1856 3706 1288 
Q 3706 609 3251 259 
Q 2797 -91 1919 -91 
Q 1588 -91 1214 -16 
Q 841 59 441 206 
L 441 856 
Q 825 641 1194 531 
Q 1563 422 1919 422 
Q 2459 422 2753 634 
Q 3047 847 3047 1241 
Q 3047 1584 2836 1778 
Q 2625 1972 2144 2069 
L 1759 2144 
Q 1053 2284 737 2584 
Q 422 2884 422 3419 
Q 422 4038 858 4394 
Q 1294 4750 2059 4750 
Q 2388 4750 2728 4690 
Q 3069 4631 3425 4513 
z
" transform="scale(0.015625)"/>
      </defs>
      <use xlink:href="#DejaVuSans-49"/>
      <use xlink:href="#DejaVuSans-4f" transform="translate(29.492188 0)"/>
      <use xlink:href="#DejaVuSans-50" transform="translate(108.203125 0)"/>
      <use xlink:href="#DejaVuSans-53" transform="translate(168.505859 0)"/>
     </g>
    </g>
   </g>
   <g id="FillBetweenPolyCollection_1"/>
   <g id="FillBetweenPolyCollection_2"/>
   <g id="FillBetweenPolyCollection_3"/>
   <g id="FillBetweenPolyCollection_4"/>
   <g id="line2d_16">
    <path d="M 75.923352 90.571639 
L 83.592357 47.719725 
L 93.817697 212.474059 
L 114.268377 247.271103 
L 155.169737 94.727953 
L 236.972457 240.859425 
L 400.577898 289.639725 
" clip-path="url(#p3715892ba6)" style="fill: none; stroke: #3b0f70; stroke-width: 1.5; stroke-linecap: round"/>
   </g>
   <g id="line2d_17">
    <path d="M 75.923352 167.479549 
L 83.592357 107.857393 
L 93.817697 144.120423 
L 114.268377 137.740965 
L 155.169737 153.6735 
L 236.972457 131.15208 
L 400.577898 168.236707 
" clip-path="url(#p3715892ba6)" style="fill: none; stroke: #8c2981; stroke-width: 1.5; stroke-linecap: round"/>
   </g>
   <g id="line2d_18">
    <path d="M 75.923352 226.135121 
L 83.592357 118.087079 
L 93.817697 161.80892 
L 114.268377 224.153623 
L 155.169737 233.110639 
L 236.972457 221.656613 
L 400.577898 237.621367 
" clip-path="url(#p3715892ba6)" style="fill: none; stroke: #de4968; stroke-width: 1.5; stroke-linecap: round"/>
   </g>
   <g id="line2d_19">
    <path d="M 75.923352 267.666037 
L 83.592357 139.89967 
L 93.817697 245.805116 
L 114.268377 215.502691 
L 155.169737 165.159746 
L 236.972457 130.862105 
L 400.577898 157.024326 
" clip-path="url(#p3715892ba6)" style="fill: none; stroke: #fe9f6d; stroke-width: 1.5; stroke-linecap: round"/>
   </g>
   <g id="line2d_20"/>
   <g id="line2d_21"/>
   <g id="line2d_22"/>
   <g id="line2d_23"/>
   <g id="text_18">
    <path d="M 142.365604 149.932504 
L 142.782807 148.376528 
L 137.410087 146.935941 
L 137.295628 148.720302 
L 136.427843 148.487623 
L 136.539874 146.712318 
L 136.795214 145.760018 
L 143.035719 147.433283 
L 143.452922 145.877307 
L 144.254303 146.092181 
L 143.166984 150.147377 
L 142.365604 149.932504 
z
M 141.448701 140.965879 
Q 141.276721 141.607285 141.615135 142.100829 
Q 141.952445 142.59246 142.716096 142.797217 
Q 143.475219 143.000761 144.017767 142.745046 
Q 144.559211 142.487418 144.731191 141.846012 
Q 144.903171 141.204606 144.562843 140.712166 
Q 144.221005 140.219322 143.461882 140.015778 
Q 142.698232 139.811021 142.160211 140.067949 
Q 141.620681 140.324473 141.448701 140.965879 
z
M 138.96905 138.274042 
L 139.836834 138.506721 
Q 139.571496 138.820587 139.384526 139.161936 
Q 139.196047 139.502881 139.099739 139.862068 
Q 138.846827 140.805313 139.350168 141.474112 
Q 139.853914 142.141402 141.122235 142.557508 
Q 140.786192 142.169749 140.679854 141.691519 
Q 140.573922 141.211779 140.709078 140.707709 
Q 140.993553 139.646748 141.803078 139.203787 
Q 142.611095 138.760422 143.718841 139.057442 
Q 144.803949 139.348392 145.288467 140.165825 
Q 145.771476 140.982853 145.485787 142.048342 
Q 145.158013 143.270786 144.04912 143.665831 
Q 142.938719 144.060472 141.160892 143.583784 
Q 139.491726 143.136231 138.711125 142.07764 
Q 137.930523 141.019049 138.288242 139.684924 
Q 138.384551 139.325737 138.55341 138.979531 
Q 138.72227 138.633326 138.96905 138.274042 
z
" clip-path="url(#p3715892ba6)" style="fill: #3b0f70; stroke: #ffffff; stroke-width: 5"/>
    <path d="M 142.365604 149.932504 
L 142.782807 148.376528 
L 137.410087 146.935941 
L 137.295628 148.720302 
L 136.427843 148.487623 
L 136.539874 146.712318 
L 136.795214 145.760018 
L 143.035719 147.433283 
L 143.452922 145.877307 
L 144.254303 146.092181 
L 143.166984 150.147377 
L 142.365604 149.932504 
z
M 141.448701 140.965879 
Q 141.276721 141.607285 141.615135 142.100829 
Q 141.952445 142.59246 142.716096 142.797217 
Q 143.475219 143.000761 144.017767 142.745046 
Q 144.559211 142.487418 144.731191 141.846012 
Q 144.903171 141.204606 144.562843 140.712166 
Q 144.221005 140.219322 143.461882 140.015778 
Q 142.698232 139.811021 142.160211 140.067949 
Q 141.620681 140.324473 141.448701 140.965879 
z
M 138.96905 138.274042 
L 139.836834 138.506721 
Q 139.571496 138.820587 139.384526 139.161936 
Q 139.196047 139.502881 139.099739 139.862068 
Q 138.846827 140.805313 139.350168 141.474112 
Q 139.853914 142.141402 141.122235 142.557508 
Q 140.786192 142.169749 140.679854 141.691519 
Q 140.573922 141.211779 140.709078 140.707709 
Q 140.993553 139.646748 141.803078 139.203787 
Q 142.611095 138.760422 143.718841 139.057442 
Q 144.803949 139.348392 145.288467 140.165825 
Q 145.771476 140.982853 145.485787 142.048342 
Q 145.158013 143.270786 144.04912 143.665831 
Q 142.938719 144.060472 141.160892 143.583784 
Q 139.491726 143.136231 138.711125 142.07764 
Q 137.930523 141.019049 138.288242 139.684924 
Q 138.384551 139.325737 138.55341 138.979531 
Q 138.72227 138.633326 138.96905 138.274042 
z
" clip-path="url(#p3715892ba6)" style="fill: #3b0f70"/>
   </g>
   <g id="text_19">
    <path d="M 203.576751 139.130903 
Q 204.299404 139.089149 204.809369 139.446283 
Q 205.320426 139.801497 205.507062 140.479399 
Q 205.793237 141.51885 205.234862 142.286799 
Q 204.676073 143.053241 203.357929 143.416145 
Q 202.916539 143.537665 202.423978 143.579277 
Q 201.931417 143.62089 201.384671 143.583422 
L 201.132091 142.665994 
Q 201.590237 142.787818 202.092599 142.77592 
Q 202.596468 142.763607 203.110168 142.622179 
Q 204.003493 142.376234 204.374948 141.894739 
Q 204.746403 141.413243 204.561012 140.73986 
Q 204.389721 140.117696 203.858136 139.888061 
Q 203.326136 139.65692 202.550314 139.870515 
L 201.730806 140.096137 
L 201.515552 139.314289 
L 202.372722 139.078299 
Q 203.073221 138.885441 203.368172 138.502799 
Q 203.663122 138.120157 203.517961 137.5929 
Q 203.369067 137.052084 202.905291 136.868606 
Q 202.442606 136.683207 201.727043 136.880212 
Q 201.335366 136.988046 200.91159 137.197093 
Q 200.487401 137.404634 200.000044 137.730045 
L 199.766957 136.88342 
Q 200.267804 136.583466 200.720092 136.377913 
Q 201.17238 136.17236 201.591173 136.057061 
Q 202.674311 135.758858 203.439629 136.078103 
Q 204.206039 136.395427 204.436638 137.233013 
Q 204.59756 137.817516 204.373865 138.311812 
Q 204.150171 138.806108 203.576751 139.130903 
z
M 208.471769 141.000199 
L 211.790479 140.086512 
L 212.010709 140.886437 
L 207.548604 142.114916 
L 207.328374 141.314991 
Q 207.714904 140.605698 208.389271 139.405517 
Q 209.064731 138.203416 209.228772 137.863297 
Q 209.544213 137.225436 209.627107 136.820144 
Q 209.711507 136.414437 209.616945 136.070967 
Q 209.462659 135.510567 208.972425 135.266307 
Q 208.481776 135.02054 207.850573 135.194319 
Q 207.403158 135.317499 206.948748 135.609529 
Q 206.495845 135.901145 206.018023 136.37303 
L 205.753415 135.411915 
Q 206.263916 135.023409 206.730201 134.768625 
Q 207.197992 134.513426 207.612266 134.399371 
Q 208.704442 134.09868 209.504275 134.466765 
Q 210.303693 134.833344 210.555029 135.746253 
Q 210.674476 136.180111 210.618784 136.613567 
Q 210.564184 137.045103 210.280007 137.690563 
Q 210.200246 137.86 209.748629 138.686072 
Q 209.298518 139.511729 208.471769 141.000199 
z
" clip-path="url(#p3715892ba6)" style="fill: #8c2981; stroke: #ffffff; stroke-width: 5"/>
    <path d="M 203.576751 139.130903 
Q 204.299404 139.089149 204.809369 139.446283 
Q 205.320426 139.801497 205.507062 140.479399 
Q 205.793237 141.51885 205.234862 142.286799 
Q 204.676073 143.053241 203.357929 143.416145 
Q 202.916539 143.537665 202.423978 143.579277 
Q 201.931417 143.62089 201.384671 143.583422 
L 201.132091 142.665994 
Q 201.590237 142.787818 202.092599 142.77592 
Q 202.596468 142.763607 203.110168 142.622179 
Q 204.003493 142.376234 204.374948 141.894739 
Q 204.746403 141.413243 204.561012 140.73986 
Q 204.389721 140.117696 203.858136 139.888061 
Q 203.326136 139.65692 202.550314 139.870515 
L 201.730806 140.096137 
L 201.515552 139.314289 
L 202.372722 139.078299 
Q 203.073221 138.885441 203.368172 138.502799 
Q 203.663122 138.120157 203.517961 137.5929 
Q 203.369067 137.052084 202.905291 136.868606 
Q 202.442606 136.683207 201.727043 136.880212 
Q 201.335366 136.988046 200.91159 137.197093 
Q 200.487401 137.404634 200.000044 137.730045 
L 199.766957 136.88342 
Q 200.267804 136.583466 200.720092 136.377913 
Q 201.17238 136.17236 201.591173 136.057061 
Q 202.674311 135.758858 203.439629 136.078103 
Q 204.206039 136.395427 204.436638 137.233013 
Q 204.59756 137.817516 204.373865 138.311812 
Q 204.150171 138.806108 203.576751 139.130903 
z
M 208.471769 141.000199 
L 211.790479 140.086512 
L 212.010709 140.886437 
L 207.548604 142.114916 
L 207.328374 141.314991 
Q 207.714904 140.605698 208.389271 139.405517 
Q 209.064731 138.203416 209.228772 137.863297 
Q 209.544213 137.225436 209.627107 136.820144 
Q 209.711507 136.414437 209.616945 136.070967 
Q 209.462659 135.510567 208.972425 135.266307 
Q 208.481776 135.02054 207.850573 135.194319 
Q 207.403158 135.317499 206.948748 135.609529 
Q 206.495845 135.901145 206.018023 136.37303 
L 205.753415 135.411915 
Q 206.263916 135.023409 206.730201 134.768625 
Q 207.197992 134.513426 207.612266 134.399371 
Q 208.704442 134.09868 209.504275 134.466765 
Q 210.303693 134.833344 210.555029 135.746253 
Q 210.674476 136.180111 210.618784 136.613567 
Q 210.564184 137.045103 210.280007 137.690563 
Q 210.200246 137.86 209.748629 138.686072 
Q 209.298518 139.511729 208.471769 141.000199 
z
" clip-path="url(#p3715892ba6)" style="fill: #8c2981"/>
   </g>
   <g id="text_20">
    <path d="M 267.469088 223.348303 
Q 266.808165 223.28381 266.376783 223.698562 
Q 265.947107 224.111912 265.870322 224.898799 
Q 265.793992 225.681021 266.135198 226.174303 
Q 266.47811 226.666182 267.139034 226.730675 
Q 267.799957 226.795169 268.229936 226.37871 
Q 268.660067 225.960695 268.736396 225.178473 
Q 268.813182 224.391585 268.471521 223.902969 
Q 268.130012 223.412797 267.469088 223.348303 
z
M 269.717958 220.460875 
L 269.630702 221.355066 
Q 269.277581 221.144777 268.910196 221.016302 
Q 268.542964 220.886271 268.172847 220.850155 
Q 267.200901 220.755312 266.623675 221.361492 
Q 266.048004 221.967825 265.845472 223.287205 
Q 266.172889 222.892136 266.627214 222.70883 
Q 267.083094 222.525677 267.602502 222.576361 
Q 268.695747 222.683041 269.265436 223.408988 
Q 269.835278 224.13338 269.723894 225.274834 
Q 269.614786 226.39296 268.887852 227.004941 
Q 268.161069 227.615367 267.063159 227.508232 
Q 265.803517 227.385315 265.232013 226.356196 
Q 264.660661 225.325522 264.839421 223.493598 
Q 265.007256 221.773642 265.923542 220.830046 
Q 266.839827 219.88645 268.214548 220.020596 
Q 268.584665 220.056712 268.95387 220.166526 
Q 269.323075 220.27634 269.717958 220.460875 
z
M 274.509661 221.630209 
L 271.652803 225.262108 
L 274.131654 225.503997 
L 274.509661 221.630209 
z
M 274.334975 220.749706 
L 275.569735 220.870195 
L 275.108265 225.599295 
L 276.143971 225.70036 
L 276.064303 226.516795 
L 275.028597 226.41573 
L 274.861673 228.126355 
L 273.885061 228.031056 
L 274.051985 226.320431 
L 270.776916 226.000847 
L 270.869331 225.053783 
L 274.334975 220.749706 
z
" clip-path="url(#p3715892ba6)" style="fill: #de4968; stroke: #ffffff; stroke-width: 5"/>
    <path d="M 267.469088 223.348303 
Q 266.808165 223.28381 266.376783 223.698562 
Q 265.947107 224.111912 265.870322 224.898799 
Q 265.793992 225.681021 266.135198 226.174303 
Q 266.47811 226.666182 267.139034 226.730675 
Q 267.799957 226.795169 268.229936 226.37871 
Q 268.660067 225.960695 268.736396 225.178473 
Q 268.813182 224.391585 268.471521 223.902969 
Q 268.130012 223.412797 267.469088 223.348303 
z
M 269.717958 220.460875 
L 269.630702 221.355066 
Q 269.277581 221.144777 268.910196 221.016302 
Q 268.542964 220.886271 268.172847 220.850155 
Q 267.200901 220.755312 266.623675 221.361492 
Q 266.048004 221.967825 265.845472 223.287205 
Q 266.172889 222.892136 266.627214 222.70883 
Q 267.083094 222.525677 267.602502 222.576361 
Q 268.695747 222.683041 269.265436 223.408988 
Q 269.835278 224.13338 269.723894 225.274834 
Q 269.614786 226.39296 268.887852 227.004941 
Q 268.161069 227.615367 267.063159 227.508232 
Q 265.803517 227.385315 265.232013 226.356196 
Q 264.660661 225.325522 264.839421 223.493598 
Q 265.007256 221.773642 265.923542 220.830046 
Q 266.839827 219.88645 268.214548 220.020596 
Q 268.584665 220.056712 268.95387 220.166526 
Q 269.323075 220.27634 269.717958 220.460875 
z
M 274.509661 221.630209 
L 271.652803 225.262108 
L 274.131654 225.503997 
L 274.509661 221.630209 
z
M 274.334975 220.749706 
L 275.569735 220.870195 
L 275.108265 225.599295 
L 276.143971 225.70036 
L 276.064303 226.516795 
L 275.028597 226.41573 
L 274.861673 228.126355 
L 273.885061 228.031056 
L 274.051985 226.320431 
L 270.776916 226.000847 
L 270.869331 225.053783 
L 274.334975 220.749706 
z
" clip-path="url(#p3715892ba6)" style="fill: #de4968"/>
   </g>
   <g id="text_21">
    <path d="M 326.169362 147.079827 
L 327.760089 147.334201 
L 328.638432 141.841486 
L 326.851787 141.911812 
L 326.993654 141.024646 
L 328.771041 140.952839 
L 329.74461 141.108523 
L 328.7244 147.488405 
L 330.315127 147.742779 
L 330.184116 148.562057 
L 326.03835 147.899106 
L 326.169362 147.079827 
z
M 333.121465 148.191541 
L 336.520468 148.735077 
L 336.389457 149.554356 
L 331.819395 148.823555 
L 331.950406 148.004277 
Q 332.596088 147.518893 333.707134 146.706009 
Q 334.819971 145.891829 335.110195 145.650251 
Q 335.66158 145.200424 335.904955 144.865907 
Q 336.149873 144.531637 336.206126 144.179856 
Q 336.297908 143.605898 335.952946 143.180465 
Q 335.60823 142.753489 334.961756 142.650111 
Q 334.503515 142.576833 333.968946 142.654332 
Q 333.43592 142.732078 332.805521 142.963564 
L 332.962932 141.979196 
Q 333.588525 141.837135 334.118469 141.798455 
Q 334.649955 141.760022 335.074252 141.827871 
Q 336.192853 142.006747 336.76828 142.673158 
Q 337.343955 143.338025 337.194439 144.273021 
Q 337.123382 144.717376 336.893094 145.088797 
Q 336.664595 145.458922 336.138516 145.928619 
Q 335.995718 146.049778 335.242412 146.614475 
Q 334.490648 147.179419 333.121465 148.191541 
z
M 341.063259 146.795255 
Q 340.368955 146.684228 339.911426 146.992412 
Q 339.455441 147.300841 339.351569 147.950401 
Q 339.247451 148.601504 339.584515 149.036751 
Q 339.923122 149.472244 340.617426 149.583271 
Q 341.31173 149.694297 341.771048 149.384818 
Q 342.232155 149.074042 342.335533 148.427568 
Q 342.439405 147.778008 342.100798 147.342515 
Q 341.763734 146.907268 341.063259 146.795255 
z
M 340.155813 146.226075 
Q 339.554069 145.971614 339.272421 145.486682 
Q 338.992562 145.000454 339.091253 144.383295 
Q 339.229172 143.520815 339.923431 143.11757 
Q 340.619233 142.714572 341.688461 142.885553 
Q 342.763861 143.05752 343.296205 143.656912 
Q 343.82855 144.256304 343.69063 145.118783 
Q 343.59194 145.735942 343.172866 146.110404 
Q 342.755581 146.48357 342.109121 146.538429 
Q 342.786529 146.814483 343.101941 147.355449 
Q 343.419141 147.89512 343.309102 148.583252 
Q 343.141575 149.630879 342.413254 150.088807 
Q 341.68518 150.545192 340.494063 150.354719 
Q 339.304489 150.164494 338.753501 149.503574 
Q 338.204303 148.841358 338.37183 147.793731 
Q 338.481869 147.105598 338.953089 146.692005 
Q 339.426099 146.277115 340.155813 146.226075 
z
M 340.045389 144.630812 
Q 339.956074 145.189341 340.254684 145.558309 
Q 340.554836 145.927524 341.185881 146.028435 
Q 341.813841 146.128852 342.217249 145.872144 
Q 342.622201 145.615683 342.711516 145.057154 
Q 342.801077 144.497082 342.496296 144.127127 
Q 342.193058 143.757419 341.565098 143.657001 
Q 340.934053 143.556091 340.53373 143.813292 
Q 340.13495 144.07074 340.045389 144.630812 
z
" clip-path="url(#p3715892ba6)" style="fill: #fe9f6d; stroke: #ffffff; stroke-width: 5"/>
    <path d="M 326.169362 147.079827 
L 327.760089 147.334201 
L 328.638432 141.841486 
L 326.851787 141.911812 
L 326.993654 141.024646 
L 328.771041 140.952839 
L 329.74461 141.108523 
L 328.7244 147.488405 
L 330.315127 147.742779 
L 330.184116 148.562057 
L 326.03835 147.899106 
L 326.169362 147.079827 
z
M 333.121465 148.191541 
L 336.520468 148.735077 
L 336.389457 149.554356 
L 331.819395 148.823555 
L 331.950406 148.004277 
Q 332.596088 147.518893 333.707134 146.706009 
Q 334.819971 145.891829 335.110195 145.650251 
Q 335.66158 145.200424 335.904955 144.865907 
Q 336.149873 144.531637 336.206126 144.179856 
Q 336.297908 143.605898 335.952946 143.180465 
Q 335.60823 142.753489 334.961756 142.650111 
Q 334.503515 142.576833 333.968946 142.654332 
Q 333.43592 142.732078 332.805521 142.963564 
L 332.962932 141.979196 
Q 333.588525 141.837135 334.118469 141.798455 
Q 334.649955 141.760022 335.074252 141.827871 
Q 336.192853 142.006747 336.76828 142.673158 
Q 337.343955 143.338025 337.194439 144.273021 
Q 337.123382 144.717376 336.893094 145.088797 
Q 336.664595 145.458922 336.138516 145.928619 
Q 335.995718 146.049778 335.242412 146.614475 
Q 334.490648 147.179419 333.121465 148.191541 
z
M 341.063259 146.795255 
Q 340.368955 146.684228 339.911426 146.992412 
Q 339.455441 147.300841 339.351569 147.950401 
Q 339.247451 148.601504 339.584515 149.036751 
Q 339.923122 149.472244 340.617426 149.583271 
Q 341.31173 149.694297 341.771048 149.384818 
Q 342.232155 149.074042 342.335533 148.427568 
Q 342.439405 147.778008 342.100798 147.342515 
Q 341.763734 146.907268 341.063259 146.795255 
z
M 340.155813 146.226075 
Q 339.554069 145.971614 339.272421 145.486682 
Q 338.992562 145.000454 339.091253 144.383295 
Q 339.229172 143.520815 339.923431 143.11757 
Q 340.619233 142.714572 341.688461 142.885553 
Q 342.763861 143.05752 343.296205 143.656912 
Q 343.82855 144.256304 343.69063 145.118783 
Q 343.59194 145.735942 343.172866 146.110404 
Q 342.755581 146.48357 342.109121 146.538429 
Q 342.786529 146.814483 343.101941 147.355449 
Q 343.419141 147.89512 343.309102 148.583252 
Q 343.141575 149.630879 342.413254 150.088807 
Q 341.68518 150.545192 340.494063 150.354719 
Q 339.304489 150.164494 338.753501 149.503574 
Q 338.204303 148.841358 338.37183 147.793731 
Q 338.481869 147.105598 338.953089 146.692005 
Q 339.426099 146.277115 340.155813 146.226075 
z
M 340.045389 144.630812 
Q 339.956074 145.189341 340.254684 145.558309 
Q 340.554836 145.927524 341.185881 146.028435 
Q 341.813841 146.128852 342.217249 145.872144 
Q 342.622201 145.615683 342.711516 145.057154 
Q 342.801077 144.497082 342.496296 144.127127 
Q 342.193058 143.757419 341.565098 143.657001 
Q 340.934053 143.556091 340.53373 143.813292 
Q 340.13495 144.07074 340.045389 144.630812 
z
" clip-path="url(#p3715892ba6)" style="fill: #fe9f6d"/>
   </g>
   <g id="patch_3">
    <path d="M 59.690625 301.735725 
L 59.690625 35.623725 
" style="fill: none; stroke: #cccccc; stroke-width: 0.8; stroke-linejoin: miter; stroke-linecap: square"/>
   </g>
   <g id="patch_4">
    <path d="M 416.810625 301.735725 
L 416.810625 35.623725 
" style="fill: none; stroke: #cccccc; stroke-width: 0.8; stroke-linejoin: miter; stroke-linecap: square"/>
   </g>
   <g id="patch_5">
    <path d="M 59.690625 301.735725 
L 416.810625 301.735725 
" style="fill: none; stroke: #cccccc; stroke-width: 0.8; stroke-linejoin: miter; stroke-linecap: square"/>
   </g>
   <g id="patch_6">
    <path d="M 59.690625 35.623725 
L 416.810625 35.623725 
" style="fill: none; stroke: #cccccc; stroke-width: 0.8; stroke-linejoin: miter; stroke-linecap: square"/>
   </g>
   <g id="text_22">
    <!-- Block Size = 16K, Read-Write Type = Sequential Read-heavy 4:1 -->
    <g style="fill: #262626; opacity: 0.75" transform="translate(77.41625 30.882918) scale(0.1 -0.1)">
     <defs>
      <path id="DejaVuSans-42" d="M 1259 2228 
L 1259 519 
L 2272 519 
Q 2781 519 3026 730 
Q 3272 941 3272 1375 
Q 3272 1813 3026 2020 
Q 2781 2228 2272 2228 
L 1259 2228 
z
M 1259 4147 
L 1259 2741 
L 2194 2741 
Q 2656 2741 2882 2914 
Q 3109 3088 3109 3444 
Q 3109 3797 2882 3972 
Q 2656 4147 2194 4147 
L 1259 4147 
z
M 628 4666 
L 2241 4666 
Q 2963 4666 3353 4366 
Q 3744 4066 3744 3513 
Q 3744 3084 3544 2831 
Q 3344 2578 2956 2516 
Q 3422 2416 3680 2098 
Q 3938 1781 3938 1306 
Q 3938 681 3513 340 
Q 3088 0 2303 0 
L 628 0 
L 628 4666 
z
" transform="scale(0.015625)"/>
      <path id="DejaVuSans-6c" d="M 603 4863 
L 1178 4863 
L 1178 0 
L 603 0 
L 603 4863 
z
" transform="scale(0.015625)"/>
      <path id="DejaVuSans-6f" d="M 1959 3097 
Q 1497 3097 1228 2736 
Q 959 2375 959 1747 
Q 959 1119 1226 758 
Q 1494 397 1959 397 
Q 2419 397 2687 759 
Q 2956 1122 2956 1747 
Q 2956 2369 2687 2733 
Q 2419 3097 1959 3097 
z
M 1959 3584 
Q 2709 3584 3137 3096 
Q 3566 2609 3566 1747 
Q 3566 888 3137 398 
Q 2709 -91 1959 -91 
Q 1206 -91 779 398 
Q 353 888 353 1747 
Q 353 2609 779 3096 
Q 1206 3584 1959 3584 
z
" transform="scale(0.015625)"/>
      <path id="DejaVuSans-63" d="M 3122 3366 
L 3122 2828 
Q 2878 2963 2633 3030 
Q 2388 3097 2138 3097 
Q 1578 3097 1268 2742 
Q 959 2388 959 1747 
Q 959 1106 1268 751 
Q 1578 397 2138 397 
Q 2388 397 2633 464 
Q 2878 531 3122 666 
L 3122 134 
Q 2881 22 2623 -34 
Q 2366 -91 2075 -91 
Q 1284 -91 818 406 
Q 353 903 353 1747 
Q 353 2603 823 3093 
Q 1294 3584 2113 3584 
Q 2378 3584 2631 3529 
Q 2884 3475 3122 3366 
z
" transform="scale(0.015625)"/>
      <path id="DejaVuSans-6b" d="M 581 4863 
L 1159 4863 
L 1159 1991 
L 2875 3500 
L 3609 3500 
L 1753 1863 
L 3688 0 
L 2938 0 
L 1159 1709 
L 1159 0 
L 581 0 
L 581 4863 
z
" transform="scale(0.015625)"/>
      <path id="DejaVuSans-69" d="M 603 3500 
L 1178 3500 
L 1178 0 
L 603 0 
L 603 3500 
z
M 603 4863 
L 1178 4863 
L 1178 4134 
L 603 4134 
L 603 4863 
z
" transform="scale(0.015625)"/>
      <path id="DejaVuSans-7a" d="M 353 3500 
L 3084 3500 
L 3084 2975 
L 922 459 
L 3084 459 
L 3084 0 
L 275 0 
L 275 525 
L 2438 3041 
L 353 3041 
L 353 3500 
z
" transform="scale(0.015625)"/>
      <path id="DejaVuSans-3d" d="M 678 2906 
L 4684 2906 
L 4684 2381 
L 678 2381 
L 678 2906 
z
M 678 1631 
L 4684 1631 
L 4684 1100 
L 678 1100 
L 678 1631 
z
" transform="scale(0.015625)"/>
      <path id="DejaVuSans-4b" d="M 628 4666 
L 1259 4666 
L 1259 2694 
L 3353 4666 
L 4166 4666 
L 1850 2491 
L 4331 0 
L 3500 0 
L 1259 2247 
L 1259 0 
L 628 0 
L 628 4666 
z
" transform="scale(0.015625)"/>
      <path id="DejaVuSans-2c" d="M 750 794 
L 1409 794 
L 1409 256 
L 897 -744 
L 494 -744 
L 750 256 
L 750 794 
z
" transform="scale(0.015625)"/>
      <path id="DejaVuSans-52" d="M 2841 2188 
Q 3044 2119 3236 1894 
Q 3428 1669 3622 1275 
L 4263 0 
L 3584 0 
L 2988 1197 
Q 2756 1666 2539 1819 
Q 2322 1972 1947 1972 
L 1259 1972 
L 1259 0 
L 628 0 
L 628 4666 
L 2053 4666 
Q 2853 4666 3247 4331 
Q 3641 3997 3641 3322 
Q 3641 2881 3436 2590 
Q 3231 2300 2841 2188 
z
M 1259 4147 
L 1259 2491 
L 2053 2491 
Q 2509 2491 2742 2702 
Q 2975 2913 2975 3322 
Q 2975 3731 2742 3939 
Q 2509 4147 2053 4147 
L 1259 4147 
z
" transform="scale(0.015625)"/>
      <path id="DejaVuSans-61" d="M 2194 1759 
Q 1497 1759 1228 1600 
Q 959 1441 959 1056 
Q 959 750 1161 570 
Q 1363 391 1709 391 
Q 2188 391 2477 730 
Q 2766 1069 2766 1631 
L 2766 1759 
L 2194 1759 
z
M 3341 1997 
L 3341 0 
L 2766 0 
L 2766 531 
Q 2569 213 2275 61 
Q 1981 -91 1556 -91 
Q 1019 -91 701 211 
Q 384 513 384 1019 
Q 384 1609 779 1909 
Q 1175 2209 1959 2209 
L 2766 2209 
L 2766 2266 
Q 2766 2663 2505 2880 
Q 2244 3097 1772 3097 
Q 1472 3097 1187 3025 
Q 903 2953 641 2809 
L 641 3341 
Q 956 3463 1253 3523 
Q 1550 3584 1831 3584 
Q 2591 3584 2966 3190 
Q 3341 2797 3341 1997 
z
" transform="scale(0.015625)"/>
      <path id="DejaVuSans-64" d="M 2906 2969 
L 2906 4863 
L 3481 4863 
L 3481 0 
L 2906 0 
L 2906 525 
Q 2725 213 2448 61 
Q 2172 -91 1784 -91 
Q 1150 -91 751 415 
Q 353 922 353 1747 
Q 353 2572 751 3078 
Q 1150 3584 1784 3584 
Q 2172 3584 2448 3432 
Q 2725 3281 2906 2969 
z
M 947 1747 
Q 947 1113 1208 752 
Q 1469 391 1925 391 
Q 2381 391 2643 752 
Q 2906 1113 2906 1747 
Q 2906 2381 2643 2742 
Q 2381 3103 1925 3103 
Q 1469 3103 1208 2742 
Q 947 2381 947 1747 
z
" transform="scale(0.015625)"/>
      <path id="DejaVuSans-2d" d="M 313 2009 
L 1997 2009 
L 1997 1497 
L 313 1497 
L 313 2009 
z
" transform="scale(0.015625)"/>
      <path id="DejaVuSans-57" d="M 213 4666 
L 850 4666 
L 1831 722 
L 2809 4666 
L 3519 4666 
L 4500 722 
L 5478 4666 
L 6119 4666 
L 4947 0 
L 4153 0 
L 3169 4050 
L 2175 0 
L 1381 0 
L 213 4666 
z
" transform="scale(0.015625)"/>
      <path id="DejaVuSans-72" d="M 2631 2963 
Q 2534 3019 2420 3045 
Q 2306 3072 2169 3072 
Q 1681 3072 1420 2755 
Q 1159 2438 1159 1844 
L 1159 0 
L 581 0 
L 581 3500 
L 1159 3500 
L 1159 2956 
Q 1341 3275 1631 3429 
Q 1922 3584 2338 3584 
Q 2397 3584 2469 3576 
Q 2541 3569 2628 3553 
L 2631 2963 
z
" transform="scale(0.015625)"/>
      <path id="DejaVuSans-54" d="M -19 4666 
L 3928 4666 
L 3928 4134 
L 2272 4134 
L 2272 0 
L 1638 0 
L 1638 4134 
L -19 4134 
L -19 4666 
z
" transform="scale(0.015625)"/>
      <path id="DejaVuSans-79" d="M 2059 -325 
Q 1816 -950 1584 -1140 
Q 1353 -1331 966 -1331 
L 506 -1331 
L 506 -850 
L 844 -850 
Q 1081 -850 1212 -737 
Q 1344 -625 1503 -206 
L 1606 56 
L 191 3500 
L 800 3500 
L 1894 763 
L 2988 3500 
L 3597 3500 
L 2059 -325 
z
" transform="scale(0.015625)"/>
      <path id="DejaVuSans-71" d="M 947 1747 
Q 947 1113 1208 752 
Q 1469 391 1925 391 
Q 2381 391 2643 752 
Q 2906 1113 2906 1747 
Q 2906 2381 2643 2742 
Q 2381 3103 1925 3103 
Q 1469 3103 1208 2742 
Q 947 2381 947 1747 
z
M 2906 525 
Q 2725 213 2448 61 
Q 2172 -91 1784 -91 
Q 1150 -91 751 415 
Q 353 922 353 1747 
Q 353 2572 751 3078 
Q 1150 3584 1784 3584 
Q 2172 3584 2448 3432 
Q 2725 3281 2906 2969 
L 2906 3500 
L 3481 3500 
L 3481 -1331 
L 2906 -1331 
L 2906 525 
z
" transform="scale(0.015625)"/>
      <path id="DejaVuSans-75" d="M 544 1381 
L 544 3500 
L 1119 3500 
L 1119 1403 
Q 1119 906 1312 657 
Q 1506 409 1894 409 
Q 2359 409 2629 706 
Q 2900 1003 2900 1516 
L 2900 3500 
L 3475 3500 
L 3475 0 
L 2900 0 
L 2900 538 
Q 2691 219 2414 64 
Q 2138 -91 1772 -91 
Q 1169 -91 856 284 
Q 544 659 544 1381 
z
M 1991 3584 
L 1991 3584 
z
" transform="scale(0.015625)"/>
      <path id="DejaVuSans-6e" d="M 3513 2113 
L 3513 0 
L 2938 0 
L 2938 2094 
Q 2938 2591 2744 2837 
Q 2550 3084 2163 3084 
Q 1697 3084 1428 2787 
Q 1159 2491 1159 1978 
L 1159 0 
L 581 0 
L 581 3500 
L 1159 3500 
L 1159 2956 
Q 1366 3272 1645 3428 
Q 1925 3584 2291 3584 
Q 2894 3584 3203 3211 
Q 3513 2838 3513 2113 
z
" transform="scale(0.015625)"/>
      <path id="DejaVuSans-76" d="M 191 3500 
L 800 3500 
L 1894 563 
L 2988 3500 
L 3597 3500 
L 2284 0 
L 1503 0 
L 191 3500 
z
" transform="scale(0.015625)"/>
      <path id="DejaVuSans-3a" d="M 750 794 
L 1409 794 
L 1409 0 
L 750 0 
L 750 794 
z
M 750 3309 
L 1409 3309 
L 1409 2516 
L 750 2516 
L 750 3309 
z
" transform="scale(0.015625)"/>
     </defs>
     <use xlink:href="#DejaVuSans-42"/>
     <use xlink:href="#DejaVuSans-6c" transform="translate(68.603516 0)"/>
     <use xlink:href="#DejaVuSans-6f" transform="translate(96.386719 0)"/>
     <use xlink:href="#DejaVuSans-63" transform="translate(157.568359 0)"/>
     <use xlink:href="#DejaVuSans-6b" transform="translate(212.548828 0)"/>
     <use xlink:href="#DejaVuSans-20" transform="translate(270.458984 0)"/>
     <use xlink:href="#DejaVuSans-53" transform="translate(302.246094 0)"/>
     <use xlink:href="#DejaVuSans-69" transform="translate(365.722656 0)"/>
     <use xlink:href="#DejaVuSans-7a" transform="translate(393.505859 0)"/>
     <use xlink:href="#DejaVuSans-65" transform="translate(445.996094 0)"/>
     <use xlink:href="#DejaVuSans-20" transform="translate(507.519531 0)"/>
     <use xlink:href="#DejaVuSans-3d" transform="translate(539.306641 0)"/>
     <use xlink:href="#DejaVuSans-20" transform="translate(623.095703 0)"/>
     <use xlink:href="#DejaVuSans-31" transform="translate(654.882812 0)"/>
     <use xlink:href="#DejaVuSans-36" transform="translate(718.505859 0)"/>
     <use xlink:href="#DejaVuSans-4b" transform="translate(782.128906 0)"/>
     <use xlink:href="#DejaVuSans-2c" transform="translate(847.705078 0)"/>
     <use xlink:href="#DejaVuSans-20" transform="translate(879.492188 0)"/>
     <use xlink:href="#DejaVuSans-52" transform="translate(911.279297 0)"/>
     <use xlink:href="#DejaVuSans-65" transform="translate(976.261719 0)"/>
     <use xlink:href="#DejaVuSans-61" transform="translate(1037.785156 0)"/>
     <use xlink:href="#DejaVuSans-64" transform="translate(1099.064453 0)"/>
     <use xlink:href="#DejaVuSans-2d" transform="translate(1162.541016 0)"/>
     <use xlink:href="#DejaVuSans-57" transform="translate(1194.625 0)"/>
     <use xlink:href="#DejaVuSans-72" transform="translate(1289.001953 0)"/>
     <use xlink:href="#DejaVuSans-69" transform="translate(1330.115234 0)"/>
     <use xlink:href="#DejaVuSans-74" transform="translate(1357.898438 0)"/>
     <use xlink:href="#DejaVuSans-65" transform="translate(1397.107422 0)"/>
     <use xlink:href="#DejaVuSans-20" transform="translate(1458.630859 0)"/>
     <use xlink:href="#DejaVuSans-54" transform="translate(1490.417969 0)"/>
     <use xlink:href="#DejaVuSans-79" transform="translate(1535.876953 0)"/>
     <use xlink:href="#DejaVuSans-70" transform="translate(1595.056641 0)"/>
     <use xlink:href="#DejaVuSans-65" transform="translate(1658.533203 0)"/>
     <use xlink:href="#DejaVuSans-20" transform="translate(1720.056641 0)"/>
     <use xlink:href="#DejaVuSans-3d" transform="translate(1751.84375 0)"/>
     <use xlink:href="#DejaVuSans-20" transform="translate(1835.632812 0)"/>
     <use xlink:href="#DejaVuSans-53" transform="translate(1867.419922 0)"/>
     <use xlink:href="#DejaVuSans-65" transform="translate(1930.896484 0)"/>
     <use xlink:href="#DejaVuSans-71" transform="translate(1992.419922 0)"/>
     <use xlink:href="#DejaVuSans-75" transform="translate(2055.896484 0)"/>
     <use xlink:href="#DejaVuSans-65" transform="translate(2119.275391 0)"/>
     <use xlink:href="#DejaVuSans-6e" transform="translate(2180.798828 0)"/>
     <use xlink:href="#DejaVuSans-74" transform="translate(2244.177734 0)"/>
     <use xlink:href="#DejaVuSans-69" transform="translate(2283.386719 0)"/>
     <use xlink:href="#DejaVuSans-61" transform="translate(2311.169922 0)"/>
     <use xlink:href="#DejaVuSans-6c" transform="translate(2372.449219 0)"/>
     <use xlink:href="#DejaVuSans-20" transform="translate(2400.232422 0)"/>
     <use xlink:href="#DejaVuSans-52" transform="translate(2432.019531 0)"/>
     <use xlink:href="#DejaVuSans-65" transform="translate(2497.001953 0)"/>
     <use xlink:href="#DejaVuSans-61" transform="translate(2558.525391 0)"/>
     <use xlink:href="#DejaVuSans-64" transform="translate(2619.804688 0)"/>
     <use xlink:href="#DejaVuSans-2d" transform="translate(2683.28125 0)"/>
     <use xlink:href="#DejaVuSans-68" transform="translate(2719.365234 0)"/>
     <use xlink:href="#DejaVuSans-65" transform="translate(2782.744141 0)"/>
     <use xlink:href="#DejaVuSans-61" transform="translate(2844.267578 0)"/>
     <use xlink:href="#DejaVuSans-76" transform="translate(2905.546875 0)"/>
     <use xlink:href="#DejaVuSans-79" transform="translate(2964.726562 0)"/>
     <use xlink:href="#DejaVuSans-20" transform="translate(3023.90625 0)"/>
     <use xlink:href="#DejaVuSans-34" transform="translate(3055.693359 0)"/>
     <use xlink:href="#DejaVuSans-3a" transform="translate(3119.316406 0)"/>
     <use xlink:href="#DejaVuSans-31" transform="translate(3153.007812 0)"/>
    </g>
   </g>
   <g id="text_23">
    <!-- IOPS vs IO Depth -->
    <g style="fill: #262626" transform="translate(180.632812 16.318125) scale(0.12 -0.12)">
     <defs>
      <path id="DejaVuSans-Bold-49" d="M 588 4666 
L 1791 4666 
L 1791 0 
L 588 0 
L 588 4666 
z
" transform="scale(0.015625)"/>
      <path id="DejaVuSans-Bold-4f" d="M 2719 3878 
Q 2169 3878 1866 3472 
Q 1563 3066 1563 2328 
Q 1563 1594 1866 1187 
Q 2169 781 2719 781 
Q 3272 781 3575 1187 
Q 3878 1594 3878 2328 
Q 3878 3066 3575 3472 
Q 3272 3878 2719 3878 
z
M 2719 4750 
Q 3844 4750 4481 4106 
Q 5119 3463 5119 2328 
Q 5119 1197 4481 553 
Q 3844 -91 2719 -91 
Q 1597 -91 958 553 
Q 319 1197 319 2328 
Q 319 3463 958 4106 
Q 1597 4750 2719 4750 
z
" transform="scale(0.015625)"/>
      <path id="DejaVuSans-Bold-50" d="M 588 4666 
L 2584 4666 
Q 3475 4666 3951 4270 
Q 4428 3875 4428 3144 
Q 4428 2409 3951 2014 
Q 3475 1619 2584 1619 
L 1791 1619 
L 1791 0 
L 588 0 
L 588 4666 
z
M 1791 3794 
L 1791 2491 
L 2456 2491 
Q 2806 2491 2997 2661 
Q 3188 2831 3188 3144 
Q 3188 3456 2997 3625 
Q 2806 3794 2456 3794 
L 1791 3794 
z
" transform="scale(0.015625)"/>
      <path id="DejaVuSans-Bold-53" d="M 3834 4519 
L 3834 3531 
Q 3450 3703 3084 3790 
Q 2719 3878 2394 3878 
Q 1963 3878 1756 3759 
Q 1550 3641 1550 3391 
Q 1550 3203 1689 3098 
Q 1828 2994 2194 2919 
L 2706 2816 
Q 3484 2659 3812 2340 
Q 4141 2022 4141 1434 
Q 4141 663 3683 286 
Q 3225 -91 2284 -91 
Q 1841 -91 1394 -6 
Q 947 78 500 244 
L 500 1259 
Q 947 1022 1364 901 
Q 1781 781 2169 781 
Q 2563 781 2772 912 
Q 2981 1044 2981 1288 
Q 2981 1506 2839 1625 
Q 2697 1744 2272 1838 
L 1806 1941 
Q 1106 2091 782 2419 
Q 459 2747 459 3303 
Q 459 4000 909 4375 
Q 1359 4750 2203 4750 
Q 2588 4750 2994 4692 
Q 3400 4634 3834 4519 
z
" transform="scale(0.015625)"/>
      <path id="DejaVuSans-Bold-20" transform="scale(0.015625)"/>
      <path id="DejaVuSans-Bold-76" d="M 97 3500 
L 1216 3500 
L 2088 1081 
L 2956 3500 
L 4078 3500 
L 2700 0 
L 1472 0 
L 97 3500 
z
" transform="scale(0.015625)"/>
      <path id="DejaVuSans-Bold-73" d="M 3272 3391 
L 3272 2541 
Q 2913 2691 2578 2766 
Q 2244 2841 1947 2841 
Q 1628 2841 1473 2761 
Q 1319 2681 1319 2516 
Q 1319 2381 1436 2309 
Q 1553 2238 1856 2203 
L 2053 2175 
Q 2913 2066 3209 1816 
Q 3506 1566 3506 1031 
Q 3506 472 3093 190 
Q 2681 -91 1863 -91 
Q 1516 -91 1145 -36 
Q 775 19 384 128 
L 384 978 
Q 719 816 1070 734 
Q 1422 653 1784 653 
Q 2113 653 2278 743 
Q 2444 834 2444 1013 
Q 2444 1163 2330 1236 
Q 2216 1309 1875 1350 
L 1678 1375 
Q 931 1469 631 1722 
Q 331 1975 331 2491 
Q 331 3047 712 3315 
Q 1094 3584 1881 3584 
Q 2191 3584 2531 3537 
Q 2872 3491 3272 3391 
z
" transform="scale(0.015625)"/>
      <path id="DejaVuSans-Bold-44" d="M 1791 3756 
L 1791 909 
L 2222 909 
Q 2959 909 3348 1275 
Q 3738 1641 3738 2338 
Q 3738 3031 3350 3393 
Q 2963 3756 2222 3756 
L 1791 3756 
z
M 588 4666 
L 1856 4666 
Q 2919 4666 3439 4514 
Q 3959 4363 4331 4000 
Q 4659 3684 4818 3271 
Q 4978 2859 4978 2338 
Q 4978 1809 4818 1395 
Q 4659 981 4331 666 
Q 3956 303 3431 151 
Q 2906 0 1856 0 
L 588 0 
L 588 4666 
z
" transform="scale(0.015625)"/>
      <path id="DejaVuSans-Bold-65" d="M 4031 1759 
L 4031 1441 
L 1416 1441 
Q 1456 1047 1700 850 
Q 1944 653 2381 653 
Q 2734 653 3104 758 
Q 3475 863 3866 1075 
L 3866 213 
Q 3469 63 3072 -14 
Q 2675 -91 2278 -91 
Q 1328 -91 801 392 
Q 275 875 275 1747 
Q 275 2603 792 3093 
Q 1309 3584 2216 3584 
Q 3041 3584 3536 3087 
Q 4031 2591 4031 1759 
z
M 2881 2131 
Q 2881 2450 2695 2645 
Q 2509 2841 2209 2841 
Q 1884 2841 1681 2658 
Q 1478 2475 1428 2131 
L 2881 2131 
z
" transform="scale(0.015625)"/>
      <path id="DejaVuSans-Bold-70" d="M 1656 506 
L 1656 -1331 
L 538 -1331 
L 538 3500 
L 1656 3500 
L 1656 2988 
Q 1888 3294 2169 3439 
Q 2450 3584 2816 3584 
Q 3463 3584 3878 3070 
Q 4294 2556 4294 1747 
Q 4294 938 3878 423 
Q 3463 -91 2816 -91 
Q 2450 -91 2169 54 
Q 1888 200 1656 506 
z
M 2400 2772 
Q 2041 2772 1848 2508 
Q 1656 2244 1656 1747 
Q 1656 1250 1848 986 
Q 2041 722 2400 722 
Q 2759 722 2948 984 
Q 3138 1247 3138 1747 
Q 3138 2247 2948 2509 
Q 2759 2772 2400 2772 
z
" transform="scale(0.015625)"/>
      <path id="DejaVuSans-Bold-74" d="M 1759 4494 
L 1759 3500 
L 2913 3500 
L 2913 2700 
L 1759 2700 
L 1759 1216 
Q 1759 972 1856 886 
Q 1953 800 2241 800 
L 2816 800 
L 2816 0 
L 1856 0 
Q 1194 0 917 276 
Q 641 553 641 1216 
L 641 2700 
L 84 2700 
L 84 3500 
L 641 3500 
L 641 4494 
L 1759 4494 
z
" transform="scale(0.015625)"/>
      <path id="DejaVuSans-Bold-68" d="M 4056 2131 
L 4056 0 
L 2931 0 
L 2931 347 
L 2931 1625 
Q 2931 2084 2911 2256 
Q 2891 2428 2841 2509 
Q 2775 2619 2662 2680 
Q 2550 2741 2406 2741 
Q 2056 2741 1856 2470 
Q 1656 2200 1656 1722 
L 1656 0 
L 538 0 
L 538 4863 
L 1656 4863 
L 1656 2988 
Q 1909 3294 2193 3439 
Q 2478 3584 2822 3584 
Q 3428 3584 3742 3212 
Q 4056 2841 4056 2131 
z
" transform="scale(0.015625)"/>
     </defs>
     <use xlink:href="#DejaVuSans-Bold-49"/>
     <use xlink:href="#DejaVuSans-Bold-4f" transform="translate(37.207031 0)"/>
     <use xlink:href="#DejaVuSans-Bold-50" transform="translate(122.216797 0)"/>
     <use xlink:href="#DejaVuSans-Bold-53" transform="translate(195.507812 0)"/>
     <use xlink:href="#DejaVuSans-Bold-20" transform="translate(267.529297 0)"/>
     <use xlink:href="#DejaVuSans-Bold-76" transform="translate(302.34375 0)"/>
     <use xlink:href="#DejaVuSans-Bold-73" transform="translate(367.529297 0)"/>
     <use xlink:href="#DejaVuSans-Bold-20" transform="translate(427.050781 0)"/>
     <use xlink:href="#DejaVuSans-Bold-49" transform="translate(461.865234 0)"/>
     <use xlink:href="#DejaVuSans-Bold-4f" transform="translate(499.072266 0)"/>
     <use xlink:href="#DejaVuSans-Bold-20" transform="translate(584.082031 0)"/>
     <use xlink:href="#DejaVuSans-Bold-44" transform="translate(618.896484 0)"/>
     <use xlink:href="#DejaVuSans-Bold-65" transform="translate(701.904297 0)"/>
     <use xlink:href="#DejaVuSans-Bold-70" transform="translate(769.726562 0)"/>
     <use xlink:href="#DejaVuSans-Bold-74" transform="translate(841.308594 0)"/>
     <use xlink:href="#DejaVuSans-Bold-68" transform="translate(889.111328 0)"/>
    </g>
   </g>
   <g id="legend_1">
    <g id="text_24">
     <!-- Number of Jobs -->
     <g style="fill: #262626" transform="translate(420.296875 142.08285) scale(0.1 -0.1)">
      <defs>
       <path id="DejaVuSans-4e" d="M 628 4666 
L 1478 4666 
L 3547 763 
L 3547 4666 
L 4159 4666 
L 4159 0 
L 3309 0 
L 1241 3903 
L 1241 0 
L 628 0 
L 628 4666 
z
" transform="scale(0.015625)"/>
       <path id="DejaVuSans-6d" d="M 3328 2828 
Q 3544 3216 3844 3400 
Q 4144 3584 4550 3584 
Q 5097 3584 5394 3201 
Q 5691 2819 5691 2113 
L 5691 0 
L 5113 0 
L 5113 2094 
Q 5113 2597 4934 2840 
Q 4756 3084 4391 3084 
Q 3944 3084 3684 2787 
Q 3425 2491 3425 1978 
L 3425 0 
L 2847 0 
L 2847 2094 
Q 2847 2600 2669 2842 
Q 2491 3084 2119 3084 
Q 1678 3084 1418 2786 
Q 1159 2488 1159 1978 
L 1159 0 
L 581 0 
L 581 3500 
L 1159 3500 
L 1159 2956 
Q 1356 3278 1631 3431 
Q 1906 3584 2284 3584 
Q 2666 3584 2933 3390 
Q 3200 3197 3328 2828 
z
" transform="scale(0.015625)"/>
       <path id="DejaVuSans-62" d="M 3116 1747 
Q 3116 2381 2855 2742 
Q 2594 3103 2138 3103 
Q 1681 3103 1420 2742 
Q 1159 2381 1159 1747 
Q 1159 1113 1420 752 
Q 1681 391 2138 391 
Q 2594 391 2855 752 
Q 3116 1113 3116 1747 
z
M 1159 2969 
Q 1341 3281 1617 3432 
Q 1894 3584 2278 3584 
Q 2916 3584 3314 3078 
Q 3713 2572 3713 1747 
Q 3713 922 3314 415 
Q 2916 -91 2278 -91 
Q 1894 -91 1617 61 
Q 1341 213 1159 525 
L 1159 0 
L 581 0 
L 581 4863 
L 1159 4863 
L 1159 2969 
z
" transform="scale(0.015625)"/>
       <path id="DejaVuSans-66" d="M 2375 4863 
L 2375 4384 
L 1825 4384 
Q 1516 4384 1395 4259 
Q 1275 4134 1275 3809 
L 1275 3500 
L 2222 3500 
L 2222 3053 
L 1275 3053 
L 1275 0 
L 697 0 
L 697 3053 
L 147 3053 
L 147 3500 
L 697 3500 
L 697 3744 
Q 697 4328 969 4595 
Q 1241 4863 1831 4863 
L 2375 4863 
z
" transform="scale(0.015625)"/>
       <path id="DejaVuSans-4a" d="M 628 4666 
L 1259 4666 
L 1259 325 
Q 1259 -519 939 -900 
Q 619 -1281 -91 -1281 
L -331 -1281 
L -331 -750 
L -134 -750 
Q 284 -750 456 -515 
Q 628 -281 628 325 
L 628 4666 
z
" transform="scale(0.015625)"/>
       <path id="DejaVuSans-73" d="M 2834 3397 
L 2834 2853 
Q 2591 2978 2328 3040 
Q 2066 3103 1784 3103 
Q 1356 3103 1142 2972 
Q 928 2841 928 2578 
Q 928 2378 1081 2264 
Q 1234 2150 1697 2047 
L 1894 2003 
Q 2506 1872 2764 1633 
Q 3022 1394 3022 966 
Q 3022 478 2636 193 
Q 2250 -91 1575 -91 
Q 1294 -91 989 -36 
Q 684 19 347 128 
L 347 722 
Q 666 556 975 473 
Q 1284 391 1588 391 
Q 1994 391 2212 530 
Q 2431 669 2431 922 
Q 2431 1156 2273 1281 
Q 2116 1406 1581 1522 
L 1381 1569 
Q 847 1681 609 1914 
Q 372 2147 372 2553 
Q 372 3047 722 3315 
Q 1072 3584 1716 3584 
Q 2034 3584 2315 3537 
Q 2597 3491 2834 3397 
z
" transform="scale(0.015625)"/>
      </defs>
      <use xlink:href="#DejaVuSans-4e"/>
      <use xlink:href="#DejaVuSans-75" transform="translate(74.804688 0)"/>
      <use xlink:href="#DejaVuSans-6d" transform="translate(138.183594 0)"/>
      <use xlink:href="#DejaVuSans-62" transform="translate(235.595703 0)"/>
      <use xlink:href="#DejaVuSans-65" transform="translate(299.072266 0)"/>
      <use xlink:href="#DejaVuSans-72" transform="translate(360.595703 0)"/>
      <use xlink:href="#DejaVuSans-20" transform="translate(401.708984 0)"/>
      <use xlink:href="#DejaVuSans-6f" transform="translate(433.496094 0)"/>
      <use xlink:href="#DejaVuSans-66" transform="translate(494.677734 0)"/>
      <use xlink:href="#DejaVuSans-20" transform="translate(529.882812 0)"/>
      <use xlink:href="#DejaVuSans-4a" transform="translate(561.669922 0)"/>
      <use xlink:href="#DejaVuSans-6f" transform="translate(591.162109 0)"/>
      <use xlink:href="#DejaVuSans-62" transform="translate(652.34375 0)"/>
      <use xlink:href="#DejaVuSans-73" transform="translate(715.820312 0)"/>
     </g>
    </g>
    <g id="line2d_24">
     <path d="M 435.15 153.260975 
L 445.15 153.260975 
L 455.15 153.260975 
" style="fill: none; stroke: #3b0f70; stroke-width: 1.5; stroke-linecap: round"/>
    </g>
    <g id="text_25">
     <!-- 16 -->
     <g style="fill: #262626" transform="translate(463.15 156.760975) scale(0.1 -0.1)">
      <use xlink:href="#DejaVuSans-31"/>
      <use xlink:href="#DejaVuSans-36" transform="translate(63.623047 0)"/>
     </g>
    </g>
    <g id="line2d_25">
     <path d="M 435.15 167.9391 
L 445.15 167.9391 
L 455.15 167.9391 
" style="fill: none; stroke: #8c2981; stroke-width: 1.5; stroke-linecap: round"/>
    </g>
    <g id="text_26">
     <!-- 32 -->
     <g style="fill: #262626" transform="translate(463.15 171.4391) scale(0.1 -0.1)">
      <use xlink:href="#DejaVuSans-33"/>
      <use xlink:href="#DejaVuSans-32" transform="translate(63.623047 0)"/>
     </g>
    </g>
    <g id="line2d_26">
     <path d="M 435.15 182.617225 
L 445.15 182.617225 
L 455.15 182.617225 
" style="fill: none; stroke: #de4968; stroke-width: 1.5; stroke-linecap: round"/>
    </g>
    <g id="text_27">
     <!-- 64 -->
     <g style="fill: #262626" transform="translate(463.15 186.117225) scale(0.1 -0.1)">
      <use xlink:href="#DejaVuSans-36"/>
      <use xlink:href="#DejaVuSans-34" transform="translate(63.623047 0)"/>
     </g>
    </g>
    <g id="line2d_27">
     <path d="M 435.15 197.29535 
L 445.15 197.29535 
L 455.15 197.29535 
" style="fill: none; stroke: #fe9f6d; stroke-width: 1.5; stroke-linecap: round"/>
    </g>
    <g id="text_28">
     <!-- 128 -->
     <g style="fill: #262626" transform="translate(463.15 200.79535) scale(0.1 -0.1)">
      <use xlink:href="#DejaVuSans-31"/>
      <use xlink:href="#DejaVuSans-32" transform="translate(63.623047 0)"/>
      <use xlink:href="#DejaVuSans-38" transform="translate(127.246094 0)"/>
     </g>
    </g>
   </g>
  </g>
 </g>
 <defs>
  <clipPath id="p3715892ba6">
   <rect x="59.690625" y="35.623725" width="357.12" height="266.112"/>
  </clipPath>
 </defs>
</svg>
