<?xml version="1.0" encoding="utf-8" standalone="no"?>
<!DOCTYPE svg PUBLIC "-//W3C//DTD SVG 1.1//EN"
  "http://www.w3.org/Graphics/SVG/1.1/DTD/svg11.dtd">
<svg xmlns:xlink="http://www.w3.org/1999/xlink" width="508.290625pt" height="339.291975pt" viewBox="0 0 508.290625 339.291975" xmlns="http://www.w3.org/2000/svg" version="1.1">
 <metadata>
  <rdf:RDF xmlns:dc="http://purl.org/dc/elements/1.1/" xmlns:cc="http://creativecommons.org/ns#" xmlns:rdf="http://www.w3.org/1999/02/22-rdf-syntax-ns#">
   <cc:Work>
    <dc:type rdf:resource="http://purl.org/dc/dcmitype/StillImage"/>
    <dc:date>2025-09-11T11:34:20.173591</dc:date>
    <dc:format>image/svg+xml</dc:format>
    <dc:creator>
     <cc:Agent>
      <dc:title>Matplotlib v3.10.6, https://matplotlib.org/</dc:title>
     </cc:Agent>
    </dc:creator>
   </cc:Work>
  </rdf:RDF>
 </metadata>
 <defs>
  <style type="text/css">*{stroke-linejoin: round; stroke-linecap: butt}</style>
 </defs>
 <g id="figure_1">
  <g id="patch_1">
   <path d="M 0 339.291975 
L 508.290625 339.291975 
L 508.290625 0 
L 0 0 
z
" style="fill: #ffffff"/>
  </g>
  <g id="axes_1">
   <g id="patch_2">
    <path d="M 59.690625 301.735725 
L 416.810625 301.735725 
L 416.810625 35.623725 
L 59.690625 35.623725 
z
" style="fill: #ffffff"/>
   </g>
   <g id="matplotlib.axis_1">
    <g id="xtick_1">
     <g id="line2d_1">
      <path d="M 75.923352 301.735725 
L 75.923352 35.623725 
" clip-path="url(#p69cf3b1ef7)" style="fill: none; stroke: #cccccc; stroke-width: 0.8; stroke-linecap: round"/>
     </g>
     <g id="text_1">
      <!-- 16 -->
      <g style="fill: #262626" transform="translate(69.560852 316.334162) scale(0.1 -0.1)">
       <defs>
        <path id="DejaVuSans-31" d="M 794 531 
L 1825 531 
L 1825 4091 
L 703 3866 
L 703 4441 
L 1819 4666 
L 2450 4666 
L 2450 531 
L 3481 531 
L 3481 0 
L 794 0 
L 794 531 
z
" transform="scale(0.015625)"/>
        <path id="DejaVuSans-36" d="M 2113 2584 
Q 1688 2584 1439 2293 
Q 1191 2003 1191 1497 
Q 1191 994 1439 701 
Q 1688 409 2113 409 
Q 2538 409 2786 701 
Q 3034 994 3034 1497 
Q 3034 2003 2786 2293 
Q 2538 2584 2113 2584 
z
M 3366 4563 
L 3366 3988 
Q 3128 4100 2886 4159 
Q 2644 4219 2406 4219 
Q 1781 4219 1451 3797 
Q 1122 3375 1075 2522 
Q 1259 2794 1537 2939 
Q 1816 3084 2150 3084 
Q 2853 3084 3261 2657 
Q 3669 2231 3669 1497 
Q 3669 778 3244 343 
Q 2819 -91 2113 -91 
Q 1303 -91 875 529 
Q 447 1150 447 2328 
Q 447 3434 972 4092 
Q 1497 4750 2381 4750 
Q 2619 4750 2861 4703 
Q 3103 4656 3366 4563 
z
" transform="scale(0.015625)"/>
       </defs>
       <use xlink:href="#DejaVuSans-31"/>
       <use xlink:href="#DejaVuSans-36" transform="translate(63.623047 0)"/>
      </g>
     </g>
    </g>
    <g id="xtick_2">
     <g id="line2d_2">
      <path d="M 400.577898 301.735725 
L 400.577898 35.623725 
" clip-path="url(#p69cf3b1ef7)" style="fill: none; stroke: #cccccc; stroke-width: 0.8; stroke-linecap: round"/>
     </g>
     <g id="text_2">
      <!-- 128 -->
      <g style="fill: #262626" transform="translate(391.034148 316.334162) scale(0.1 -0.1)">
       <defs>
        <path id="DejaVuSans-32" d="M 1228 531 
L 3431 531 
L 3431 0 
L 469 0 
L 469 531 
Q 828 903 1448 1529 
Q 2069 2156 2228 2338 
Q 2531 2678 2651 2914 
Q 2772 3150 2772 3378 
Q 2772 3750 2511 3984 
Q 2250 4219 1831 4219 
Q 1534 4219 1204 4116 
Q 875 4013 500 3803 
L 500 4441 
Q 881 4594 1212 4672 
Q 1544 4750 1819 4750 
Q 2544 4750 2975 4387 
Q 3406 4025 3406 3419 
Q 3406 3131 3298 2873 
Q 3191 2616 2906 2266 
Q 2828 2175 2409 1742 
Q 1991 1309 1228 531 
z
" transform="scale(0.015625)"/>
        <path id="DejaVuSans-38" d="M 2034 2216 
Q 1584 2216 1326 1975 
Q 1069 1734 1069 1313 
Q 1069 891 1326 650 
Q 1584 409 2034 409 
Q 2484 409 2743 651 
Q 3003 894 3003 1313 
Q 3003 1734 2745 1975 
Q 2488 2216 2034 2216 
z
M 1403 2484 
Q 997 2584 770 2862 
Q 544 3141 544 3541 
Q 544 4100 942 4425 
Q 1341 4750 2034 4750 
Q 2731 4750 3128 4425 
Q 3525 4100 3525 3541 
Q 3525 3141 3298 2862 
Q 3072 2584 2669 2484 
Q 3125 2378 3379 2068 
Q 3634 1759 3634 1313 
Q 3634 634 3220 271 
Q 2806 -91 2034 -91 
Q 1263 -91 848 271 
Q 434 634 434 1313 
Q 434 1759 690 2068 
Q 947 2378 1403 2484 
z
M 1172 3481 
Q 1172 3119 1398 2916 
Q 1625 2713 2034 2713 
Q 2441 2713 2670 2916 
Q 2900 3119 2900 3481 
Q 2900 3844 2670 4047 
Q 2441 4250 2034 4250 
Q 1625 4250 1398 4047 
Q 1172 3844 1172 3481 
z
" transform="scale(0.015625)"/>
       </defs>
       <use xlink:href="#DejaVuSans-31"/>
       <use xlink:href="#DejaVuSans-32" transform="translate(63.623047 0)"/>
       <use xlink:href="#DejaVuSans-38" transform="translate(127.246094 0)"/>
      </g>
     </g>
    </g>
    <g id="xtick_3">
     <g id="line2d_3">
      <path d="M 122.302573 301.735725 
L 122.302573 35.623725 
" clip-path="url(#p69cf3b1ef7)" style="fill: none; stroke: #cccccc; stroke-width: 0.8; stroke-linecap: round"/>
     </g>
     <g id="text_3">
      <!-- 32 -->
      <g style="fill: #262626" transform="translate(115.940073 316.334162) scale(0.1 -0.1)">
       <defs>
        <path id="DejaVuSans-33" d="M 2597 2516 
Q 3050 2419 3304 2112 
Q 3559 1806 3559 1356 
Q 3559 666 3084 287 
Q 2609 -91 1734 -91 
Q 1441 -91 1130 -33 
Q 819 25 488 141 
L 488 750 
Q 750 597 1062 519 
Q 1375 441 1716 441 
Q 2309 441 2620 675 
Q 2931 909 2931 1356 
Q 2931 1769 2642 2001 
Q 2353 2234 1838 2234 
L 1294 2234 
L 1294 2753 
L 1863 2753 
Q 2328 2753 2575 2939 
Q 2822 3125 2822 3475 
Q 2822 3834 2567 4026 
Q 2313 4219 1838 4219 
Q 1578 4219 1281 4162 
Q 984 4106 628 3988 
L 628 4550 
Q 988 4650 1302 4700 
Q 1616 4750 1894 4750 
Q 2613 4750 3031 4423 
Q 3450 4097 3450 3541 
Q 3450 3153 3228 2886 
Q 3006 2619 2597 2516 
z
" transform="scale(0.015625)"/>
       </defs>
       <use xlink:href="#DejaVuSans-33"/>
       <use xlink:href="#DejaVuSans-32" transform="translate(63.623047 0)"/>
      </g>
     </g>
    </g>
    <g id="xtick_4">
     <g id="line2d_4">
      <path d="M 215.061015 301.735725 
L 215.061015 35.623725 
" clip-path="url(#p69cf3b1ef7)" style="fill: none; stroke: #cccccc; stroke-width: 0.8; stroke-linecap: round"/>
     </g>
     <g id="text_4">
      <!-- 64 -->
      <g style="fill: #262626" transform="translate(208.698515 316.334162) scale(0.1 -0.1)">
       <defs>
        <path id="DejaVuSans-34" d="M 2419 4116 
L 825 1625 
L 2419 1625 
L 2419 4116 
z
M 2253 4666 
L 3047 4666 
L 3047 1625 
L 3713 1625 
L 3713 1100 
L 3047 1100 
L 3047 0 
L 2419 0 
L 2419 1100 
L 313 1100 
L 313 1709 
L 2253 4666 
z
" transform="scale(0.015625)"/>
       </defs>
       <use xlink:href="#DejaVuSans-36"/>
       <use xlink:href="#DejaVuSans-34" transform="translate(63.623047 0)"/>
      </g>
     </g>
    </g>
    <g id="text_5">
     <!-- Number of Jobs -->
     <g style="fill: #262626" transform="translate(199.85375 330.012287) scale(0.1 -0.1)">
      <defs>
       <path id="DejaVuSans-4e" d="M 628 4666 
L 1478 4666 
L 3547 763 
L 3547 4666 
L 4159 4666 
L 4159 0 
L 3309 0 
L 1241 3903 
L 1241 0 
L 628 0 
L 628 4666 
z
" transform="scale(0.015625)"/>
       <path id="DejaVuSans-75" d="M 544 1381 
L 544 3500 
L 1119 3500 
L 1119 1403 
Q 1119 906 1312 657 
Q 1506 409 1894 409 
Q 2359 409 2629 706 
Q 2900 1003 2900 1516 
L 2900 3500 
L 3475 3500 
L 3475 0 
L 2900 0 
L 2900 538 
Q 2691 219 2414 64 
Q 2138 -91 1772 -91 
Q 1169 -91 856 284 
Q 544 659 544 1381 
z
M 1991 3584 
L 1991 3584 
z
" transform="scale(0.015625)"/>
       <path id="DejaVuSans-6d" d="M 3328 2828 
Q 3544 3216 3844 3400 
Q 4144 3584 4550 3584 
Q 5097 3584 5394 3201 
Q 5691 2819 5691 2113 
L 5691 0 
L 5113 0 
L 5113 2094 
Q 5113 2597 4934 2840 
Q 4756 3084 4391 3084 
Q 3944 3084 3684 2787 
Q 3425 2491 3425 1978 
L 3425 0 
L 2847 0 
L 2847 2094 
Q 2847 2600 2669 2842 
Q 2491 3084 2119 3084 
Q 1678 3084 1418 2786 
Q 1159 2488 1159 1978 
L 1159 0 
L 581 0 
L 581 3500 
L 1159 3500 
L 1159 2956 
Q 1356 3278 1631 3431 
Q 1906 3584 2284 3584 
Q 2666 3584 2933 3390 
Q 3200 3197 3328 2828 
z
" transform="scale(0.015625)"/>
       <path id="DejaVuSans-62" d="M 3116 1747 
Q 3116 2381 2855 2742 
Q 2594 3103 2138 3103 
Q 1681 3103 1420 2742 
Q 1159 2381 1159 1747 
Q 1159 1113 1420 752 
Q 1681 391 2138 391 
Q 2594 391 2855 752 
Q 3116 1113 3116 1747 
z
M 1159 2969 
Q 1341 3281 1617 3432 
Q 1894 3584 2278 3584 
Q 2916 3584 3314 3078 
Q 3713 2572 3713 1747 
Q 3713 922 3314 415 
Q 2916 -91 2278 -91 
Q 1894 -91 1617 61 
Q 1341 213 1159 525 
L 1159 0 
L 581 0 
L 581 4863 
L 1159 4863 
L 1159 2969 
z
" transform="scale(0.015625)"/>
       <path id="DejaVuSans-65" d="M 3597 1894 
L 3597 1613 
L 953 1613 
Q 991 1019 1311 708 
Q 1631 397 2203 397 
Q 2534 397 2845 478 
Q 3156 559 3463 722 
L 3463 178 
Q 3153 47 2828 -22 
Q 2503 -91 2169 -91 
Q 1331 -91 842 396 
Q 353 884 353 1716 
Q 353 2575 817 3079 
Q 1281 3584 2069 3584 
Q 2775 3584 3186 3129 
Q 3597 2675 3597 1894 
z
M 3022 2063 
Q 3016 2534 2758 2815 
Q 2500 3097 2075 3097 
Q 1594 3097 1305 2825 
Q 1016 2553 972 2059 
L 3022 2063 
z
" transform="scale(0.015625)"/>
       <path id="DejaVuSans-72" d="M 2631 2963 
Q 2534 3019 2420 3045 
Q 2306 3072 2169 3072 
Q 1681 3072 1420 2755 
Q 1159 2438 1159 1844 
L 1159 0 
L 581 0 
L 581 3500 
L 1159 3500 
L 1159 2956 
Q 1341 3275 1631 3429 
Q 1922 3584 2338 3584 
Q 2397 3584 2469 3576 
Q 2541 3569 2628 3553 
L 2631 2963 
z
" transform="scale(0.015625)"/>
       <path id="DejaVuSans-20" transform="scale(0.015625)"/>
       <path id="DejaVuSans-6f" d="M 1959 3097 
Q 1497 3097 1228 2736 
Q 959 2375 959 1747 
Q 959 1119 1226 758 
Q 1494 397 1959 397 
Q 2419 397 2687 759 
Q 2956 1122 2956 1747 
Q 2956 2369 2687 2733 
Q 2419 3097 1959 3097 
z
M 1959 3584 
Q 2709 3584 3137 3096 
Q 3566 2609 3566 1747 
Q 3566 888 3137 398 
Q 2709 -91 1959 -91 
Q 1206 -91 779 398 
Q 353 888 353 1747 
Q 353 2609 779 3096 
Q 1206 3584 1959 3584 
z
" transform="scale(0.015625)"/>
       <path id="DejaVuSans-66" d="M 2375 4863 
L 2375 4384 
L 1825 4384 
Q 1516 4384 1395 4259 
Q 1275 4134 1275 3809 
L 1275 3500 
L 2222 3500 
L 2222 3053 
L 1275 3053 
L 1275 0 
L 697 0 
L 697 3053 
L 147 3053 
L 147 3500 
L 697 3500 
L 697 3744 
Q 697 4328 969 4595 
Q 1241 4863 1831 4863 
L 2375 4863 
z
" transform="scale(0.015625)"/>
       <path id="DejaVuSans-4a" d="M 628 4666 
L 1259 4666 
L 1259 325 
Q 1259 -519 939 -900 
Q 619 -1281 -91 -1281 
L -331 -1281 
L -331 -750 
L -134 -750 
Q 284 -750 456 -515 
Q 628 -281 628 325 
L 628 4666 
z
" transform="scale(0.015625)"/>
       <path id="DejaVuSans-73" d="M 2834 3397 
L 2834 2853 
Q 2591 2978 2328 3040 
Q 2066 3103 1784 3103 
Q 1356 3103 1142 2972 
Q 928 2841 928 2578 
Q 928 2378 1081 2264 
Q 1234 2150 1697 2047 
L 1894 2003 
Q 2506 1872 2764 1633 
Q 3022 1394 3022 966 
Q 3022 478 2636 193 
Q 2250 -91 1575 -91 
Q 1294 -91 989 -36 
Q 684 19 347 128 
L 347 722 
Q 666 556 975 473 
Q 1284 391 1588 391 
Q 1994 391 2212 530 
Q 2431 669 2431 922 
Q 2431 1156 2273 1281 
Q 2116 1406 1581 1522 
L 1381 1569 
Q 847 1681 609 1914 
Q 372 2147 372 2553 
Q 372 3047 722 3315 
Q 1072 3584 1716 3584 
Q 2034 3584 2315 3537 
Q 2597 3491 2834 3397 
z
" transform="scale(0.015625)"/>
      </defs>
      <use xlink:href="#DejaVuSans-4e"/>
      <use xlink:href="#DejaVuSans-75" transform="translate(74.804688 0)"/>
      <use xlink:href="#DejaVuSans-6d" transform="translate(138.183594 0)"/>
      <use xlink:href="#DejaVuSans-62" transform="translate(235.595703 0)"/>
      <use xlink:href="#DejaVuSans-65" transform="translate(299.072266 0)"/>
      <use xlink:href="#DejaVuSans-72" transform="translate(360.595703 0)"/>
      <use xlink:href="#DejaVuSans-20" transform="translate(401.708984 0)"/>
      <use xlink:href="#DejaVuSans-6f" transform="translate(433.496094 0)"/>
      <use xlink:href="#DejaVuSans-66" transform="translate(494.677734 0)"/>
      <use xlink:href="#DejaVuSans-20" transform="translate(529.882812 0)"/>
      <use xlink:href="#DejaVuSans-4a" transform="translate(561.669922 0)"/>
      <use xlink:href="#DejaVuSans-6f" transform="translate(591.162109 0)"/>
      <use xlink:href="#DejaVuSans-62" transform="translate(652.34375 0)"/>
      <use xlink:href="#DejaVuSans-73" transform="translate(715.820312 0)"/>
     </g>
    </g>
   </g>
   <g id="matplotlib.axis_2">
    <g id="ytick_1">
     <g id="line2d_5">
      <path d="M 59.690625 286.601022 
L 416.810625 286.601022 
" clip-path="url(#p69cf3b1ef7)" style="fill: none; stroke: #cccccc; stroke-width: 0.8; stroke-linecap: round"/>
     </g>
     <g id="text_6">
      <!-- 44000 -->
      <g style="fill: #262626" transform="translate(20.878125 290.40024) scale(0.1 -0.1)">
       <defs>
        <path id="DejaVuSans-30" d="M 2034 4250 
Q 1547 4250 1301 3770 
Q 1056 3291 1056 2328 
Q 1056 1369 1301 889 
Q 1547 409 2034 409 
Q 2525 409 2770 889 
Q 3016 1369 3016 2328 
Q 3016 3291 2770 3770 
Q 2525 4250 2034 4250 
z
M 2034 4750 
Q 2819 4750 3233 4129 
Q 3647 3509 3647 2328 
Q 3647 1150 3233 529 
Q 2819 -91 2034 -91 
Q 1250 -91 836 529 
Q 422 1150 422 2328 
Q 422 3509 836 4129 
Q 1250 4750 2034 4750 
z
" transform="scale(0.015625)"/>
       </defs>
       <use xlink:href="#DejaVuSans-34"/>
       <use xlink:href="#DejaVuSans-34" transform="translate(63.623047 0)"/>
       <use xlink:href="#DejaVuSans-30" transform="translate(127.246094 0)"/>
       <use xlink:href="#DejaVuSans-30" transform="translate(190.869141 0)"/>
       <use xlink:href="#DejaVuSans-30" transform="translate(254.492188 0)"/>
      </g>
     </g>
    </g>
    <g id="ytick_2">
     <g id="line2d_6">
      <path d="M 59.690625 253.926791 
L 416.810625 253.926791 
" clip-path="url(#p69cf3b1ef7)" style="fill: none; stroke: #cccccc; stroke-width: 0.8; stroke-linecap: round"/>
     </g>
     <g id="text_7">
      <!-- 46000 -->
      <g style="fill: #262626" transform="translate(20.878125 257.72601) scale(0.1 -0.1)">
       <use xlink:href="#DejaVuSans-34"/>
       <use xlink:href="#DejaVuSans-36" transform="translate(63.623047 0)"/>
       <use xlink:href="#DejaVuSans-30" transform="translate(127.246094 0)"/>
       <use xlink:href="#DejaVuSans-30" transform="translate(190.869141 0)"/>
       <use xlink:href="#DejaVuSans-30" transform="translate(254.492188 0)"/>
      </g>
     </g>
    </g>
    <g id="ytick_3">
     <g id="line2d_7">
      <path d="M 59.690625 221.252561 
L 416.810625 221.252561 
" clip-path="url(#p69cf3b1ef7)" style="fill: none; stroke: #cccccc; stroke-width: 0.8; stroke-linecap: round"/>
     </g>
     <g id="text_8">
      <!-- 48000 -->
      <g style="fill: #262626" transform="translate(20.878125 225.05178) scale(0.1 -0.1)">
       <use xlink:href="#DejaVuSans-34"/>
       <use xlink:href="#DejaVuSans-38" transform="translate(63.623047 0)"/>
       <use xlink:href="#DejaVuSans-30" transform="translate(127.246094 0)"/>
       <use xlink:href="#DejaVuSans-30" transform="translate(190.869141 0)"/>
       <use xlink:href="#DejaVuSans-30" transform="translate(254.492188 0)"/>
      </g>
     </g>
    </g>
    <g id="ytick_4">
     <g id="line2d_8">
      <path d="M 59.690625 188.578331 
L 416.810625 188.578331 
" clip-path="url(#p69cf3b1ef7)" style="fill: none; stroke: #cccccc; stroke-width: 0.8; stroke-linecap: round"/>
     </g>
     <g id="text_9">
      <!-- 50000 -->
      <g style="fill: #262626" transform="translate(20.878125 192.37755) scale(0.1 -0.1)">
       <defs>
        <path id="DejaVuSans-35" d="M 691 4666 
L 3169 4666 
L 3169 4134 
L 1269 4134 
L 1269 2991 
Q 1406 3038 1543 3061 
Q 1681 3084 1819 3084 
Q 2600 3084 3056 2656 
Q 3513 2228 3513 1497 
Q 3513 744 3044 326 
Q 2575 -91 1722 -91 
Q 1428 -91 1123 -41 
Q 819 9 494 109 
L 494 744 
Q 775 591 1075 516 
Q 1375 441 1709 441 
Q 2250 441 2565 725 
Q 2881 1009 2881 1497 
Q 2881 1984 2565 2268 
Q 2250 2553 1709 2553 
Q 1456 2553 1204 2497 
Q 953 2441 691 2322 
L 691 4666 
z
" transform="scale(0.015625)"/>
       </defs>
       <use xlink:href="#DejaVuSans-35"/>
       <use xlink:href="#DejaVuSans-30" transform="translate(63.623047 0)"/>
       <use xlink:href="#DejaVuSans-30" transform="translate(127.246094 0)"/>
       <use xlink:href="#DejaVuSans-30" transform="translate(190.869141 0)"/>
       <use xlink:href="#DejaVuSans-30" transform="translate(254.492188 0)"/>
      </g>
     </g>
    </g>
    <g id="ytick_5">
     <g id="line2d_9">
      <path d="M 59.690625 155.904101 
L 416.810625 155.904101 
" clip-path="url(#p69cf3b1ef7)" style="fill: none; stroke: #cccccc; stroke-width: 0.8; stroke-linecap: round"/>
     </g>
     <g id="text_10">
      <!-- 52000 -->
      <g style="fill: #262626" transform="translate(20.878125 159.70332) scale(0.1 -0.1)">
       <use xlink:href="#DejaVuSans-35"/>
       <use xlink:href="#DejaVuSans-32" transform="translate(63.623047 0)"/>
       <use xlink:href="#DejaVuSans-30" transform="translate(127.246094 0)"/>
       <use xlink:href="#DejaVuSans-30" transform="translate(190.869141 0)"/>
       <use xlink:href="#DejaVuSans-30" transform="translate(254.492188 0)"/>
      </g>
     </g>
    </g>
    <g id="ytick_6">
     <g id="line2d_10">
      <path d="M 59.690625 123.229871 
L 416.810625 123.229871 
" clip-path="url(#p69cf3b1ef7)" style="fill: none; stroke: #cccccc; stroke-width: 0.8; stroke-linecap: round"/>
     </g>
     <g id="text_11">
      <!-- 54000 -->
      <g style="fill: #262626" transform="translate(20.878125 127.02909) scale(0.1 -0.1)">
       <use xlink:href="#DejaVuSans-35"/>
       <use xlink:href="#DejaVuSans-34" transform="translate(63.623047 0)"/>
       <use xlink:href="#DejaVuSans-30" transform="translate(127.246094 0)"/>
       <use xlink:href="#DejaVuSans-30" transform="translate(190.869141 0)"/>
       <use xlink:href="#DejaVuSans-30" transform="translate(254.492188 0)"/>
      </g>
     </g>
    </g>
    <g id="ytick_7">
     <g id="line2d_11">
      <path d="M 59.690625 90.555641 
L 416.810625 90.555641 
" clip-path="url(#p69cf3b1ef7)" style="fill: none; stroke: #cccccc; stroke-width: 0.8; stroke-linecap: round"/>
     </g>
     <g id="text_12">
      <!-- 56000 -->
      <g style="fill: #262626" transform="translate(20.878125 94.354859) scale(0.1 -0.1)">
       <use xlink:href="#DejaVuSans-35"/>
       <use xlink:href="#DejaVuSans-36" transform="translate(63.623047 0)"/>
       <use xlink:href="#DejaVuSans-30" transform="translate(127.246094 0)"/>
       <use xlink:href="#DejaVuSans-30" transform="translate(190.869141 0)"/>
       <use xlink:href="#DejaVuSans-30" transform="translate(254.492188 0)"/>
      </g>
     </g>
    </g>
    <g id="ytick_8">
     <g id="line2d_12">
      <path d="M 59.690625 57.881411 
L 416.810625 57.881411 
" clip-path="url(#p69cf3b1ef7)" style="fill: none; stroke: #cccccc; stroke-width: 0.8; stroke-linecap: round"/>
     </g>
     <g id="text_13">
      <!-- 58000 -->
      <g style="fill: #262626" transform="translate(20.878125 61.680629) scale(0.1 -0.1)">
       <use xlink:href="#DejaVuSans-35"/>
       <use xlink:href="#DejaVuSans-38" transform="translate(63.623047 0)"/>
       <use xlink:href="#DejaVuSans-30" transform="translate(127.246094 0)"/>
       <use xlink:href="#DejaVuSans-30" transform="translate(190.869141 0)"/>
       <use xlink:href="#DejaVuSans-30" transform="translate(254.492188 0)"/>
      </g>
     </g>
    </g>
    <g id="text_14">
     <!-- IOPS -->
     <g style="fill: #262626" transform="translate(14.798438 180.279725) rotate(-90) scale(0.1 -0.1)">
      <defs>
       <path id="DejaVuSans-49" d="M 628 4666 
L 1259 4666 
L 1259 0 
L 628 0 
L 628 4666 
z
" transform="scale(0.015625)"/>
       <path id="DejaVuSans-4f" d="M 2522 4238 
Q 1834 4238 1429 3725 
Q 1025 3213 1025 2328 
Q 1025 1447 1429 934 
Q 1834 422 2522 422 
Q 3209 422 3611 934 
Q 4013 1447 4013 2328 
Q 4013 3213 3611 3725 
Q 3209 4238 2522 4238 
z
M 2522 4750 
Q 3503 4750 4090 4092 
Q 4678 3434 4678 2328 
Q 4678 1225 4090 567 
Q 3503 -91 2522 -91 
Q 1538 -91 948 565 
Q 359 1222 359 2328 
Q 359 3434 948 4092 
Q 1538 4750 2522 4750 
z
" transform="scale(0.015625)"/>
       <path id="DejaVuSans-50" d="M 1259 4147 
L 1259 2394 
L 2053 2394 
Q 2494 2394 2734 2622 
Q 2975 2850 2975 3272 
Q 2975 3691 2734 3919 
Q 2494 4147 2053 4147 
L 1259 4147 
z
M 628 4666 
L 2053 4666 
Q 2838 4666 3239 4311 
Q 3641 3956 3641 3272 
Q 3641 2581 3239 2228 
Q 2838 1875 2053 1875 
L 1259 1875 
L 1259 0 
L 628 0 
L 628 4666 
z
" transform="scale(0.015625)"/>
       <path id="DejaVuSans-53" d="M 3425 4513 
L 3425 3897 
Q 3066 4069 2747 4153 
Q 2428 4238 2131 4238 
Q 1616 4238 1336 4038 
Q 1056 3838 1056 3469 
Q 1056 3159 1242 3001 
Q 1428 2844 1947 2747 
L 2328 2669 
Q 3034 2534 3370 2195 
Q 3706 1856 3706 1288 
Q 3706 609 3251 259 
Q 2797 -91 1919 -91 
Q 1588 -91 1214 -16 
Q 841 59 441 206 
L 441 856 
Q 825 641 1194 531 
Q 1563 422 1919 422 
Q 2459 422 2753 634 
Q 3047 847 3047 1241 
Q 3047 1584 2836 1778 
Q 2625 1972 2144 2069 
L 1759 2144 
Q 1053 2284 737 2584 
Q 422 2884 422 3419 
Q 422 4038 858 4394 
Q 1294 4750 2059 4750 
Q 2388 4750 2728 4690 
Q 3069 4631 3425 4513 
z
" transform="scale(0.015625)"/>
      </defs>
      <use xlink:href="#DejaVuSans-49"/>
      <use xlink:href="#DejaVuSans-4f" transform="translate(29.492188 0)"/>
      <use xlink:href="#DejaVuSans-50" transform="translate(108.203125 0)"/>
      <use xlink:href="#DejaVuSans-53" transform="translate(168.505859 0)"/>
     </g>
    </g>
   </g>
   <g id="FillBetweenPolyCollection_1"/>
   <g id="FillBetweenPolyCollection_2"/>
   <g id="FillBetweenPolyCollection_3"/>
   <g id="FillBetweenPolyCollection_4"/>
   <g id="FillBetweenPolyCollection_5"/>
   <g id="FillBetweenPolyCollection_6"/>
   <g id="FillBetweenPolyCollection_7"/>
   <g id="line2d_13">
    <path d="M 75.923352 236.38073 
L 122.302573 156.851654 
L 215.061015 170.80355 
L 400.577898 228.097813 
" clip-path="url(#p69cf3b1ef7)" style="fill: none; stroke: #4c02a1; stroke-width: 1.5; stroke-linecap: round"/>
   </g>
   <g id="line2d_14">
    <path d="M 75.923352 47.719725 
L 122.302573 125.337359 
L 215.061015 111.385462 
L 400.577898 165.003874 
" clip-path="url(#p69cf3b1ef7)" style="fill: none; stroke: #7e03a8; stroke-width: 1.5; stroke-linecap: round"/>
   </g>
   <g id="line2d_15">
    <path d="M 75.923352 273.645689 
L 122.302573 154.711492 
L 215.061015 198.870714 
L 400.577898 244.059174 
" clip-path="url(#p69cf3b1ef7)" style="fill: none; stroke: #aa2395; stroke-width: 1.5; stroke-linecap: round"/>
   </g>
   <g id="line2d_16">
    <path d="M 75.923352 266.326662 
L 122.302573 163.974636 
L 215.061015 227.918104 
L 400.577898 238.58624 
" clip-path="url(#p69cf3b1ef7)" style="fill: none; stroke: #cc4778; stroke-width: 1.5; stroke-linecap: round"/>
   </g>
   <g id="line2d_17">
    <path d="M 75.923352 244.859693 
L 122.302573 142.295284 
L 215.061015 234.616321 
L 400.577898 170.003031 
" clip-path="url(#p69cf3b1ef7)" style="fill: none; stroke: #e66c5c; stroke-width: 1.5; stroke-linecap: round"/>
   </g>
   <g id="line2d_18">
    <path d="M 75.923352 150.610876 
L 122.302573 170.836224 
L 215.061015 221.383258 
L 400.577898 188.937748 
" clip-path="url(#p69cf3b1ef7)" style="fill: none; stroke: #f89540; stroke-width: 1.5; stroke-linecap: round"/>
   </g>
   <g id="line2d_19">
    <path d="M 75.923352 289.639725 
L 122.302573 127.93496 
L 215.061015 219.700535 
L 400.577898 163.206791 
" clip-path="url(#p69cf3b1ef7)" style="fill: none; stroke: #fdc527; stroke-width: 1.5; stroke-linecap: round"/>
   </g>
   <g id="line2d_20"/>
   <g id="line2d_21"/>
   <g id="line2d_22"/>
   <g id="line2d_23"/>
   <g id="line2d_24"/>
   <g id="line2d_25"/>
   <g id="line2d_26"/>
   <g id="text_15">
    <path d="M 118.41194 167.353652 
L 119.223479 165.962061 
L 114.418373 163.159853 
L 113.838899 164.851377 
L 113.062794 164.398773 
L 113.637545 162.715348 
L 114.134229 161.863656 
L 119.715439 165.118468 
L 120.526978 163.726878 
L 121.243694 164.144847 
L 119.128657 167.771622 
L 118.41194 167.353652 
z
" clip-path="url(#p69cf3b1ef7)" style="fill: #4c02a1; stroke: #ffffff; stroke-width: 5"/>
    <path d="M 118.41194 167.353652 
L 119.223479 165.962061 
L 114.418373 163.159853 
L 113.838899 164.851377 
L 113.062794 164.398773 
L 113.637545 162.715348 
L 114.134229 161.863656 
L 119.715439 165.118468 
L 120.526978 163.726878 
L 121.243694 164.144847 
L 119.128657 167.771622 
L 118.41194 167.353652 
z
" clip-path="url(#p69cf3b1ef7)" style="fill: #4c02a1"/>
   </g>
   <g id="text_16">
    <path d="M 157.944259 116.263277 
L 156.060254 120.482621 
L 158.523175 120.11217 
L 157.944259 116.263277 
z
M 157.559947 115.45204 
L 158.786772 115.267512 
L 159.49351 119.966221 
L 160.52256 119.81144 
L 160.644571 120.622628 
L 159.615522 120.777409 
L 159.871165 122.47704 
L 158.90083 122.62299 
L 158.645186 120.923358 
L 155.391164 121.412799 
L 155.249631 120.471821 
L 157.559947 115.45204 
z
" clip-path="url(#p69cf3b1ef7)" style="fill: #7e03a8; stroke: #ffffff; stroke-width: 5"/>
    <path d="M 157.944259 116.263277 
L 156.060254 120.482621 
L 158.523175 120.11217 
L 157.944259 116.263277 
z
M 157.559947 115.45204 
L 158.786772 115.267512 
L 159.49351 119.966221 
L 160.52256 119.81144 
L 160.644571 120.622628 
L 159.615522 120.777409 
L 159.871165 122.47704 
L 158.90083 122.62299 
L 158.645186 120.923358 
L 155.391164 121.412799 
L 155.249631 120.471821 
L 157.559947 115.45204 
z
" clip-path="url(#p69cf3b1ef7)" style="fill: #7e03a8"/>
   </g>
   <g id="text_17">
    <path d="M 198.374037 190.147859 
Q 197.739182 189.845626 197.213337 190.012345 
Q 196.688902 190.179736 196.406146 190.773677 
Q 196.122718 191.36903 196.323428 191.881638 
Q 196.525549 192.394918 197.160403 192.697151 
Q 197.795257 192.999384 198.323185 192.831926 
Q 198.853196 192.663728 199.134608 192.072608 
Q 199.417364 191.478667 199.215244 190.965387 
Q 199.014534 190.452778 198.374037 190.147859 
z
M 197.663826 189.34597 
Q 197.15821 188.93221 197.024674 188.387551 
Q 196.89322 187.842153 197.161872 187.277838 
Q 197.537313 186.489208 198.317085 186.298011 
Q 199.098269 186.107485 200.075945 186.572924 
Q 201.059263 187.041049 201.401066 187.766192 
Q 201.742869 188.491334 201.367429 189.279964 
Q 201.098777 189.844279 200.591144 190.085429 
Q 200.085593 190.32584 199.449883 190.196252 
Q 200.022009 190.652058 200.172144 191.259996 
Q 200.324362 191.867195 200.024815 192.496406 
Q 199.568779 193.454331 198.740912 193.688392 
Q 197.913716 193.921042 196.824588 193.402545 
Q 195.736871 192.884719 195.394524 192.095288 
Q 195.05426 191.305117 195.510296 190.347193 
Q 195.809842 189.717982 196.378537 189.453986 
Q 196.949315 189.18925 197.663826 189.34597 
z
M 198.007549 187.784268 
Q 197.764419 188.294973 197.946916 188.733151 
Q 198.130824 189.172001 198.707836 189.446697 
Q 199.282027 189.72005 199.741438 189.587464 
Q 200.202259 189.455549 200.445389 188.944844 
Q 200.68919 188.432728 200.50105 187.991863 
Q 200.31432 187.55167 199.74013 187.278317 
Q 199.163118 187.003621 198.706529 187.137551 
Q 198.25135 187.272153 198.007549 187.784268 
z
" clip-path="url(#p69cf3b1ef7)" style="fill: #aa2395; stroke: #ffffff; stroke-width: 5"/>
    <path d="M 198.374037 190.147859 
Q 197.739182 189.845626 197.213337 190.012345 
Q 196.688902 190.179736 196.406146 190.773677 
Q 196.122718 191.36903 196.323428 191.881638 
Q 196.525549 192.394918 197.160403 192.697151 
Q 197.795257 192.999384 198.323185 192.831926 
Q 198.853196 192.663728 199.134608 192.072608 
Q 199.417364 191.478667 199.215244 190.965387 
Q 199.014534 190.452778 198.374037 190.147859 
z
M 197.663826 189.34597 
Q 197.15821 188.93221 197.024674 188.387551 
Q 196.89322 187.842153 197.161872 187.277838 
Q 197.537313 186.489208 198.317085 186.298011 
Q 199.098269 186.107485 200.075945 186.572924 
Q 201.059263 187.041049 201.401066 187.766192 
Q 201.742869 188.491334 201.367429 189.279964 
Q 201.098777 189.844279 200.591144 190.085429 
Q 200.085593 190.32584 199.449883 190.196252 
Q 200.022009 190.652058 200.172144 191.259996 
Q 200.324362 191.867195 200.024815 192.496406 
Q 199.568779 193.454331 198.740912 193.688392 
Q 197.913716 193.921042 196.824588 193.402545 
Q 195.736871 192.884719 195.394524 192.095288 
Q 195.05426 191.305117 195.510296 190.347193 
Q 195.809842 189.717982 196.378537 189.453986 
Q 196.949315 189.18925 197.663826 189.34597 
z
M 198.007549 187.784268 
Q 197.764419 188.294973 197.946916 188.733151 
Q 198.130824 189.172001 198.707836 189.446697 
Q 199.282027 189.72005 199.741438 189.587464 
Q 200.202259 189.455549 200.445389 188.944844 
Q 200.68919 188.432728 200.50105 187.991863 
Q 200.31432 187.55167 199.74013 187.278317 
Q 199.163118 187.003621 198.706529 187.137551 
Q 198.25135 187.272153 198.007549 187.784268 
z
" clip-path="url(#p69cf3b1ef7)" style="fill: #aa2395"/>
   </g>
   <g id="text_18">
    <path d="M 233.026414 230.884079 
L 234.634695 230.976563 
L 234.954038 225.423237 
L 233.183621 225.673573 
L 233.235201 224.776617 
L 234.996258 224.525743 
L 235.980569 224.582346 
L 235.609646 231.032627 
L 237.217927 231.125111 
L 237.170295 231.953431 
L 232.978782 231.712398 
L 233.026414 230.884079 
z
M 241.619924 228.165136 
Q 240.956957 228.127012 240.542433 228.558614 
Q 240.129558 228.988745 240.084168 229.778066 
Q 240.039047 230.562707 240.399625 231.042011 
Q 240.761853 231.519845 241.42482 231.557968 
Q 242.087787 231.596092 242.500841 231.162841 
Q 242.913985 230.72803 242.959106 229.943389 
Q 243.004496 229.154068 242.643649 228.679444 
Q 242.282892 228.20326 241.619924 228.165136 
z
M 243.752031 225.190447 
L 243.700451 226.087402 
Q 243.339236 225.891342 242.967028 225.777598 
Q 242.594908 225.662295 242.223647 225.640945 
Q 241.248695 225.584881 240.696066 226.213566 
Q 240.144996 226.842341 239.995163 228.168739 
Q 240.306588 227.760946 240.753253 227.559694 
Q 241.201479 227.358533 241.722493 227.388494 
Q 242.819119 227.451555 243.417264 228.154241 
Q 244.015499 228.855367 243.949657 230.000351 
Q 243.88516 231.121935 243.183172 231.762378 
Q 242.481274 232.40126 241.379968 232.33793 
Q 240.116431 232.26527 239.5044 231.259725 
Q 238.892458 230.25262 238.998129 228.415031 
Q 239.097341 226.689756 239.975325 225.710421 
Q 240.853309 224.731086 242.232281 224.810383 
Q 242.603543 224.831733 242.976828 224.926757 
Q 243.350113 225.021782 243.752031 225.190447 
z
" clip-path="url(#p69cf3b1ef7)" style="fill: #cc4778; stroke: #ffffff; stroke-width: 5"/>
    <path d="M 233.026414 230.884079 
L 234.634695 230.976563 
L 234.954038 225.423237 
L 233.183621 225.673573 
L 233.235201 224.776617 
L 234.996258 224.525743 
L 235.980569 224.582346 
L 235.609646 231.032627 
L 237.217927 231.125111 
L 237.170295 231.953431 
L 232.978782 231.712398 
L 233.026414 230.884079 
z
M 241.619924 228.165136 
Q 240.956957 228.127012 240.542433 228.558614 
Q 240.129558 228.988745 240.084168 229.778066 
Q 240.039047 230.562707 240.399625 231.042011 
Q 240.761853 231.519845 241.42482 231.557968 
Q 242.087787 231.596092 242.500841 231.162841 
Q 242.913985 230.72803 242.959106 229.943389 
Q 243.004496 229.154068 242.643649 228.679444 
Q 242.282892 228.20326 241.619924 228.165136 
z
M 243.752031 225.190447 
L 243.700451 226.087402 
Q 243.339236 225.891342 242.967028 225.777598 
Q 242.594908 225.662295 242.223647 225.640945 
Q 241.248695 225.584881 240.696066 226.213566 
Q 240.144996 226.842341 239.995163 228.168739 
Q 240.306588 227.760946 240.753253 227.559694 
Q 241.201479 227.358533 241.722493 227.388494 
Q 242.819119 227.451555 243.417264 228.154241 
Q 244.015499 228.855367 243.949657 230.000351 
Q 243.88516 231.121935 243.183172 231.762378 
Q 242.481274 232.40126 241.379968 232.33793 
Q 240.116431 232.26527 239.5044 231.259725 
Q 238.892458 230.25262 238.998129 228.415031 
Q 239.097341 226.689756 239.975325 225.710421 
Q 240.853309 224.731086 242.232281 224.810383 
Q 242.603543 224.831733 242.976828 224.926757 
Q 243.350113 225.021782 243.752031 225.190447 
z
" clip-path="url(#p69cf3b1ef7)" style="fill: #cc4778"/>
   </g>
   <g id="text_19">
    <path d="M 275.864726 212.198205 
Q 276.583007 212.108528 277.115575 212.430991 
Q 277.649103 212.751464 277.880368 213.415468 
Q 278.234974 214.433607 277.728857 215.236959 
Q 277.222226 216.038835 275.931107 216.488516 
Q 275.498766 216.639095 275.010058 216.713342 
Q 274.52135 216.787589 273.973323 216.786531 
L 273.660345 215.887912 
Q 274.125573 215.979026 274.626035 215.933777 
Q 275.127973 215.888014 275.63114 215.712766 
Q 276.50615 215.408011 276.844793 214.902899 
Q 277.183436 214.397788 276.953713 213.73821 
Q 276.741464 213.128802 276.195796 212.934994 
Q 275.649614 212.739711 274.889698 213.004381 
L 274.086991 213.283954 
L 273.820266 212.518136 
L 274.659862 212.225714 
Q 275.346 211.986741 275.614875 211.585347 
Q 275.88375 211.183954 275.703878 210.667506 
Q 275.51938 210.137778 275.044438 209.98552 
Q 274.570458 209.831272 273.869564 210.075385 
Q 273.485918 210.209004 273.076968 210.445746 
Q 272.667505 210.681012 272.202847 211.038085 
L 271.914023 210.208818 
Q 272.393834 209.876249 272.831466 209.6411 
Q 273.269097 209.40595 273.679304 209.26308 
Q 274.740235 208.893571 275.525073 209.161261 
Q 276.310873 209.426962 276.596613 210.247376 
Q 276.796015 210.819895 276.605657 211.327962 
Q 276.415298 211.836028 275.864726 212.198205 
z
M 280.873127 213.738136 
L 284.123796 212.605967 
L 284.396688 213.389492 
L 280.026065 214.911727 
L 279.753173 214.128202 
Q 280.091722 213.394794 280.684858 212.152459 
Q 281.278955 210.908135 281.420036 210.557869 
Q 281.692398 209.900459 281.748181 209.490555 
Q 281.805439 209.080137 281.688265 208.743709 
Q 281.497086 208.194798 280.991706 207.98365 
Q 280.485812 207.771026 279.86755 207.986359 
Q 279.429308 208.138993 278.995305 208.46057 
Q 278.562778 208.781634 278.117365 209.284223 
L 277.789483 208.342813 
Q 278.273043 207.921247 278.721369 207.636045 
Q 279.171171 207.350329 279.576951 207.209001 
Q 280.646736 206.836408 281.469258 207.150538 
Q 282.291265 207.463192 282.602702 208.357384 
Q 282.750711 208.782347 282.723942 209.218546 
Q 282.698134 209.652756 282.457471 210.315671 
Q 282.389144 210.490033 281.99341 211.344286 
Q 281.599152 212.198024 280.873127 213.738136 
z
" clip-path="url(#p69cf3b1ef7)" style="fill: #e66c5c; stroke: #ffffff; stroke-width: 5"/>
    <path d="M 275.864726 212.198205 
Q 276.583007 212.108528 277.115575 212.430991 
Q 277.649103 212.751464 277.880368 213.415468 
Q 278.234974 214.433607 277.728857 215.236959 
Q 277.222226 216.038835 275.931107 216.488516 
Q 275.498766 216.639095 275.010058 216.713342 
Q 274.52135 216.787589 273.973323 216.786531 
L 273.660345 215.887912 
Q 274.125573 215.979026 274.626035 215.933777 
Q 275.127973 215.888014 275.63114 215.712766 
Q 276.50615 215.408011 276.844793 214.902899 
Q 277.183436 214.397788 276.953713 213.73821 
Q 276.741464 213.128802 276.195796 212.934994 
Q 275.649614 212.739711 274.889698 213.004381 
L 274.086991 213.283954 
L 273.820266 212.518136 
L 274.659862 212.225714 
Q 275.346 211.986741 275.614875 211.585347 
Q 275.88375 211.183954 275.703878 210.667506 
Q 275.51938 210.137778 275.044438 209.98552 
Q 274.570458 209.831272 273.869564 210.075385 
Q 273.485918 210.209004 273.076968 210.445746 
Q 272.667505 210.681012 272.202847 211.038085 
L 271.914023 210.208818 
Q 272.393834 209.876249 272.831466 209.6411 
Q 273.269097 209.40595 273.679304 209.26308 
Q 274.740235 208.893571 275.525073 209.161261 
Q 276.310873 209.426962 276.596613 210.247376 
Q 276.796015 210.819895 276.605657 211.327962 
Q 276.415298 211.836028 275.864726 212.198205 
z
M 280.873127 213.738136 
L 284.123796 212.605967 
L 284.396688 213.389492 
L 280.026065 214.911727 
L 279.753173 214.128202 
Q 280.091722 213.394794 280.684858 212.152459 
Q 281.278955 210.908135 281.420036 210.557869 
Q 281.692398 209.900459 281.748181 209.490555 
Q 281.805439 209.080137 281.688265 208.743709 
Q 281.497086 208.194798 280.991706 207.98365 
Q 280.485812 207.771026 279.86755 207.986359 
Q 279.429308 208.138993 278.995305 208.46057 
Q 278.562778 208.781634 278.117365 209.284223 
L 277.789483 208.342813 
Q 278.273043 207.921247 278.721369 207.636045 
Q 279.171171 207.350329 279.576951 207.209001 
Q 280.646736 206.836408 281.469258 207.150538 
Q 282.291265 207.463192 282.602702 208.357384 
Q 282.750711 208.782347 282.723942 209.218546 
Q 282.698134 209.652756 282.457471 210.315671 
Q 282.389144 210.490033 281.99341 211.344286 
Q 281.599152 212.198024 280.873127 213.738136 
z
" clip-path="url(#p69cf3b1ef7)" style="fill: #e66c5c"/>
   </g>
   <g id="text_20">
    <path d="M 315.367261 202.542924 
Q 314.713127 202.657327 314.408214 203.172243 
Q 314.104571 203.68535 314.240778 204.464154 
Q 314.376178 205.238341 314.836755 205.622551 
Q 315.298602 206.004952 315.952736 205.890549 
Q 316.606869 205.776146 316.909974 205.25996 
Q 317.212809 204.742235 317.07741 203.968049 
Q 316.941203 203.189245 316.481433 202.809652 
Q 316.021395 202.42852 315.367261 202.542924 
z
M 316.763087 199.159682 
L 316.917867 200.044686 
Q 316.521404 199.936369 316.13305 199.910702 
Q 315.744428 199.883496 315.378113 199.947562 
Q 314.416152 200.115802 314.021832 200.854149 
Q 313.629051 201.592226 313.786325 202.917763 
Q 313.996308 202.449587 314.385157 202.151579 
Q 314.775545 201.853302 315.289617 201.763395 
Q 316.371631 201.574158 317.114541 202.121544 
Q 317.857182 202.667389 318.054763 203.797117 
Q 318.248306 204.903757 317.711267 205.687685 
Q 317.173959 206.470074 316.087327 206.660118 
Q 314.840626 206.878157 314.01498 206.039102 
Q 313.189066 205.198508 312.871968 203.385403 
Q 312.574251 201.683116 313.205175 200.529042 
Q 313.8361 199.374967 315.196698 199.137009 
Q 315.563013 199.072943 315.948136 199.08014 
Q 316.333259 199.087337 316.763087 199.159682 
z
M 321.693026 199.006511 
L 319.910177 203.269583 
L 322.363563 202.840504 
L 321.693026 199.006511 
z
M 321.289478 198.20467 
L 322.511554 197.990938 
L 323.330142 202.671457 
L 324.355208 202.492181 
L 324.496529 203.300228 
L 323.471463 203.479505 
L 323.767565 205.172557 
L 322.800986 205.341604 
L 322.504884 203.648552 
L 319.263459 204.215453 
L 319.099526 203.278118 
L 321.289478 198.20467 
z
" clip-path="url(#p69cf3b1ef7)" style="fill: #f89540; stroke: #ffffff; stroke-width: 5"/>
    <path d="M 315.367261 202.542924 
Q 314.713127 202.657327 314.408214 203.172243 
Q 314.104571 203.68535 314.240778 204.464154 
Q 314.376178 205.238341 314.836755 205.622551 
Q 315.298602 206.004952 315.952736 205.890549 
Q 316.606869 205.776146 316.909974 205.25996 
Q 317.212809 204.742235 317.07741 203.968049 
Q 316.941203 203.189245 316.481433 202.809652 
Q 316.021395 202.42852 315.367261 202.542924 
z
M 316.763087 199.159682 
L 316.917867 200.044686 
Q 316.521404 199.936369 316.13305 199.910702 
Q 315.744428 199.883496 315.378113 199.947562 
Q 314.416152 200.115802 314.021832 200.854149 
Q 313.629051 201.592226 313.786325 202.917763 
Q 313.996308 202.449587 314.385157 202.151579 
Q 314.775545 201.853302 315.289617 201.763395 
Q 316.371631 201.574158 317.114541 202.121544 
Q 317.857182 202.667389 318.054763 203.797117 
Q 318.248306 204.903757 317.711267 205.687685 
Q 317.173959 206.470074 316.087327 206.660118 
Q 314.840626 206.878157 314.01498 206.039102 
Q 313.189066 205.198508 312.871968 203.385403 
Q 312.574251 201.683116 313.205175 200.529042 
Q 313.8361 199.374967 315.196698 199.137009 
Q 315.563013 199.072943 315.948136 199.08014 
Q 316.333259 199.087337 316.763087 199.159682 
z
M 321.693026 199.006511 
L 319.910177 203.269583 
L 322.363563 202.840504 
L 321.693026 199.006511 
z
M 321.289478 198.20467 
L 322.511554 197.990938 
L 323.330142 202.671457 
L 324.355208 202.492181 
L 324.496529 203.300228 
L 323.471463 203.479505 
L 323.767565 205.172557 
L 322.800986 205.341604 
L 322.504884 203.648552 
L 319.263459 204.215453 
L 319.099526 203.278118 
L 321.289478 198.20467 
z
" clip-path="url(#p69cf3b1ef7)" style="fill: #f89540"/>
   </g>
   <g id="text_21">
    <path d="M 351.397768 180.200339 
L 352.938836 179.731052 
L 351.318407 174.40981 
L 349.743734 175.256833 
L 349.482007 174.397362 
L 351.047712 173.553071 
L 351.990887 173.265855 
L 353.873042 179.446567 
L 355.41411 178.97728 
L 355.655809 179.770982 
L 351.639467 180.994041 
L 351.397768 180.200339 
z
M 358.132839 178.14937 
L 361.425731 177.146616 
L 361.66743 177.940318 
L 357.240037 179.288552 
L 356.998338 178.494849 
Q 357.365621 177.775401 358.007413 176.55749 
Q 358.650245 175.337629 358.805065 174.993215 
Q 359.103209 174.347088 359.175155 173.93971 
Q 359.248596 173.531877 359.144815 173.191079 
Q 358.97549 172.635039 358.478854 172.404073 
Q 357.981762 172.171612 357.35547 172.362331 
Q 356.911535 172.497519 356.465157 172.801684 
Q 356.020274 173.105395 355.555337 173.589979 
L 355.264934 172.636341 
Q 355.764785 172.234225 356.224037 171.966973 
Q 356.684784 171.699265 357.095835 171.574091 
Q 358.179514 171.244088 358.988973 171.590494 
Q 359.797976 171.935406 360.073813 172.841213 
Q 360.204903 173.271695 360.160908 173.706495 
Q 360.117952 174.139345 359.851266 174.792226 
Q 359.776098 174.96375 359.346897 175.801688 
Q 358.919191 176.63917 358.132839 178.14937 
z
M 364.656977 173.410454 
Q 363.984348 173.615284 363.708405 174.092949 
Q 363.433956 174.57016 363.625586 175.199442 
Q 363.81767 175.830218 364.311514 176.073468 
Q 364.806852 176.316262 365.479481 176.111433 
Q 366.15211 175.906604 366.429092 175.426988 
Q 366.707114 174.945422 366.516395 174.31913 
Q 366.324766 173.689848 365.829428 173.447054 
Q 365.335584 173.203804 364.656977 173.410454 
z
M 363.591814 173.297083 
Q 362.939436 173.332411 362.473593 173.020201 
Q 362.008789 172.706041 361.826719 172.108149 
Q 361.572275 171.272594 362.019245 170.605646 
Q 362.467711 169.938243 363.503559 169.622806 
Q 364.545387 169.305548 365.286727 169.61063 
Q 366.028068 169.915713 366.282511 170.751267 
Q 366.464582 171.34916 366.252272 171.869515 
Q 366.041002 172.38792 365.484143 172.720829 
Q 366.213989 172.67171 366.734756 173.019462 
Q 367.256562 173.365264 367.459571 174.031914 
Q 367.768636 175.046836 367.315046 175.777866 
Q 366.861001 176.507402 365.707069 176.858798 
Q 364.554632 177.20974 363.769544 176.857545 
Q 362.985497 176.503401 362.676432 175.488479 
Q 362.473423 174.821829 362.715424 174.243432 
Q 362.958466 173.663085 363.591814 173.297083 
z
M 362.79272 171.911982 
Q 362.957494 172.453074 363.387704 172.653635 
Q 363.819409 172.85374 364.430754 172.667573 
Q 365.039109 172.482316 365.289002 172.07465 
Q 365.540389 171.666529 365.375615 171.125437 
Q 365.210386 170.582849 364.774197 170.38411 
Q 364.339503 170.184915 363.731147 170.370172 
Q 363.119803 170.556339 362.872899 170.963094 
Q 362.627491 171.369395 362.79272 171.911982 
z
" clip-path="url(#p69cf3b1ef7)" style="fill: #fdc527; stroke: #ffffff; stroke-width: 5"/>
    <path d="M 351.397768 180.200339 
L 352.938836 179.731052 
L 351.318407 174.40981 
L 349.743734 175.256833 
L 349.482007 174.397362 
L 351.047712 173.553071 
L 351.990887 173.265855 
L 353.873042 179.446567 
L 355.41411 178.97728 
L 355.655809 179.770982 
L 351.639467 180.994041 
L 351.397768 180.200339 
z
M 358.132839 178.14937 
L 361.425731 177.146616 
L 361.66743 177.940318 
L 357.240037 179.288552 
L 356.998338 178.494849 
Q 357.365621 177.775401 358.007413 176.55749 
Q 358.650245 175.337629 358.805065 174.993215 
Q 359.103209 174.347088 359.175155 173.93971 
Q 359.248596 173.531877 359.144815 173.191079 
Q 358.97549 172.635039 358.478854 172.404073 
Q 357.981762 172.171612 357.35547 172.362331 
Q 356.911535 172.497519 356.465157 172.801684 
Q 356.020274 173.105395 355.555337 173.589979 
L 355.264934 172.636341 
Q 355.764785 172.234225 356.224037 171.966973 
Q 356.684784 171.699265 357.095835 171.574091 
Q 358.179514 171.244088 358.988973 171.590494 
Q 359.797976 171.935406 360.073813 172.841213 
Q 360.204903 173.271695 360.160908 173.706495 
Q 360.117952 174.139345 359.851266 174.792226 
Q 359.776098 174.96375 359.346897 175.801688 
Q 358.919191 176.63917 358.132839 178.14937 
z
M 364.656977 173.410454 
Q 363.984348 173.615284 363.708405 174.092949 
Q 363.433956 174.57016 363.625586 175.199442 
Q 363.81767 175.830218 364.311514 176.073468 
Q 364.806852 176.316262 365.479481 176.111433 
Q 366.15211 175.906604 366.429092 175.426988 
Q 366.707114 174.945422 366.516395 174.31913 
Q 366.324766 173.689848 365.829428 173.447054 
Q 365.335584 173.203804 364.656977 173.410454 
z
M 363.591814 173.297083 
Q 362.939436 173.332411 362.473593 173.020201 
Q 362.008789 172.706041 361.826719 172.108149 
Q 361.572275 171.272594 362.019245 170.605646 
Q 362.467711 169.938243 363.503559 169.622806 
Q 364.545387 169.305548 365.286727 169.61063 
Q 366.028068 169.915713 366.282511 170.751267 
Q 366.464582 171.34916 366.252272 171.869515 
Q 366.041002 172.38792 365.484143 172.720829 
Q 366.213989 172.67171 366.734756 173.019462 
Q 367.256562 173.365264 367.459571 174.031914 
Q 367.768636 175.046836 367.315046 175.777866 
Q 366.861001 176.507402 365.707069 176.858798 
Q 364.554632 177.20974 363.769544 176.857545 
Q 362.985497 176.503401 362.676432 175.488479 
Q 362.473423 174.821829 362.715424 174.243432 
Q 362.958466 173.663085 363.591814 173.297083 
z
M 362.79272 171.911982 
Q 362.957494 172.453074 363.387704 172.653635 
Q 363.819409 172.85374 364.430754 172.667573 
Q 365.039109 172.482316 365.289002 172.07465 
Q 365.540389 171.666529 365.375615 171.125437 
Q 365.210386 170.582849 364.774197 170.38411 
Q 364.339503 170.184915 363.731147 170.370172 
Q 363.119803 170.556339 362.872899 170.963094 
Q 362.627491 171.369395 362.79272 171.911982 
z
" clip-path="url(#p69cf3b1ef7)" style="fill: #fdc527"/>
   </g>
   <g id="patch_3">
    <path d="M 59.690625 301.735725 
L 59.690625 35.623725 
" style="fill: none; stroke: #cccccc; stroke-width: 0.8; stroke-linejoin: miter; stroke-linecap: square"/>
   </g>
   <g id="patch_4">
    <path d="M 416.810625 301.735725 
L 416.810625 35.623725 
" style="fill: none; stroke: #cccccc; stroke-width: 0.8; stroke-linejoin: miter; stroke-linecap: square"/>
   </g>
   <g id="patch_5">
    <path d="M 59.690625 301.735725 
L 416.810625 301.735725 
" style="fill: none; stroke: #cccccc; stroke-width: 0.8; stroke-linejoin: miter; stroke-linecap: square"/>
   </g>
   <g id="patch_6">
    <path d="M 59.690625 35.623725 
L 416.810625 35.623725 
" style="fill: none; stroke: #cccccc; stroke-width: 0.8; stroke-linejoin: miter; stroke-linecap: square"/>
   </g>
   <g id="text_22">
    <!-- Block Size = 16K, Read-Write Type = Sequential Balanced 1:1 -->
    <g style="fill: #262626; opacity: 0.75" transform="translate(83.895938 30.882918) scale(0.1 -0.1)">
     <defs>
      <path id="DejaVuSans-42" d="M 1259 2228 
L 1259 519 
L 2272 519 
Q 2781 519 3026 730 
Q 3272 941 3272 1375 
Q 3272 1813 3026 2020 
Q 2781 2228 2272 2228 
L 1259 2228 
z
M 1259 4147 
L 1259 2741 
L 2194 2741 
Q 2656 2741 2882 2914 
Q 3109 3088 3109 3444 
Q 3109 3797 2882 3972 
Q 2656 4147 2194 4147 
L 1259 4147 
z
M 628 4666 
L 2241 4666 
Q 2963 4666 3353 4366 
Q 3744 4066 3744 3513 
Q 3744 3084 3544 2831 
Q 3344 2578 2956 2516 
Q 3422 2416 3680 2098 
Q 3938 1781 3938 1306 
Q 3938 681 3513 340 
Q 3088 0 2303 0 
L 628 0 
L 628 4666 
z
" transform="scale(0.015625)"/>
      <path id="DejaVuSans-6c" d="M 603 4863 
L 1178 4863 
L 1178 0 
L 603 0 
L 603 4863 
z
" transform="scale(0.015625)"/>
      <path id="DejaVuSans-63" d="M 3122 3366 
L 3122 2828 
Q 2878 2963 2633 3030 
Q 2388 3097 2138 3097 
Q 1578 3097 1268 2742 
Q 959 2388 959 1747 
Q 959 1106 1268 751 
Q 1578 397 2138 397 
Q 2388 397 2633 464 
Q 2878 531 3122 666 
L 3122 134 
Q 2881 22 2623 -34 
Q 2366 -91 2075 -91 
Q 1284 -91 818 406 
Q 353 903 353 1747 
Q 353 2603 823 3093 
Q 1294 3584 2113 3584 
Q 2378 3584 2631 3529 
Q 2884 3475 3122 3366 
z
" transform="scale(0.015625)"/>
      <path id="DejaVuSans-6b" d="M 581 4863 
L 1159 4863 
L 1159 1991 
L 2875 3500 
L 3609 3500 
L 1753 1863 
L 3688 0 
L 2938 0 
L 1159 1709 
L 1159 0 
L 581 0 
L 581 4863 
z
" transform="scale(0.015625)"/>
      <path id="DejaVuSans-69" d="M 603 3500 
L 1178 3500 
L 1178 0 
L 603 0 
L 603 3500 
z
M 603 4863 
L 1178 4863 
L 1178 4134 
L 603 4134 
L 603 4863 
z
" transform="scale(0.015625)"/>
      <path id="DejaVuSans-7a" d="M 353 3500 
L 3084 3500 
L 3084 2975 
L 922 459 
L 3084 459 
L 3084 0 
L 275 0 
L 275 525 
L 2438 3041 
L 353 3041 
L 353 3500 
z
" transform="scale(0.015625)"/>
      <path id="DejaVuSans-3d" d="M 678 2906 
L 4684 2906 
L 4684 2381 
L 678 2381 
L 678 2906 
z
M 678 1631 
L 4684 1631 
L 4684 1100 
L 678 1100 
L 678 1631 
z
" transform="scale(0.015625)"/>
      <path id="DejaVuSans-4b" d="M 628 4666 
L 1259 4666 
L 1259 2694 
L 3353 4666 
L 4166 4666 
L 1850 2491 
L 4331 0 
L 3500 0 
L 1259 2247 
L 1259 0 
L 628 0 
L 628 4666 
z
" transform="scale(0.015625)"/>
      <path id="DejaVuSans-2c" d="M 750 794 
L 1409 794 
L 1409 256 
L 897 -744 
L 494 -744 
L 750 256 
L 750 794 
z
" transform="scale(0.015625)"/>
      <path id="DejaVuSans-52" d="M 2841 2188 
Q 3044 2119 3236 1894 
Q 3428 1669 3622 1275 
L 4263 0 
L 3584 0 
L 2988 1197 
Q 2756 1666 2539 1819 
Q 2322 1972 1947 1972 
L 1259 1972 
L 1259 0 
L 628 0 
L 628 4666 
L 2053 4666 
Q 2853 4666 3247 4331 
Q 3641 3997 3641 3322 
Q 3641 2881 3436 2590 
Q 3231 2300 2841 2188 
z
M 1259 4147 
L 1259 2491 
L 2053 2491 
Q 2509 2491 2742 2702 
Q 2975 2913 2975 3322 
Q 2975 3731 2742 3939 
Q 2509 4147 2053 4147 
L 1259 4147 
z
" transform="scale(0.015625)"/>
      <path id="DejaVuSans-61" d="M 2194 1759 
Q 1497 1759 1228 1600 
Q 959 1441 959 1056 
Q 959 750 1161 570 
Q 1363 391 1709 391 
Q 2188 391 2477 730 
Q 2766 1069 2766 1631 
L 2766 1759 
L 2194 1759 
z
M 3341 1997 
L 3341 0 
L 2766 0 
L 2766 531 
Q 2569 213 2275 61 
Q 1981 -91 1556 -91 
Q 1019 -91 701 211 
Q 384 513 384 1019 
Q 384 1609 779 1909 
Q 1175 2209 1959 2209 
L 2766 2209 
L 2766 2266 
Q 2766 2663 2505 2880 
Q 2244 3097 1772 3097 
Q 1472 3097 1187 3025 
Q 903 2953 641 2809 
L 641 3341 
Q 956 3463 1253 3523 
Q 1550 3584 1831 3584 
Q 2591 3584 2966 3190 
Q 3341 2797 3341 1997 
z
" transform="scale(0.015625)"/>
      <path id="DejaVuSans-64" d="M 2906 2969 
L 2906 4863 
L 3481 4863 
L 3481 0 
L 2906 0 
L 2906 525 
Q 2725 213 2448 61 
Q 2172 -91 1784 -91 
Q 1150 -91 751 415 
Q 353 922 353 1747 
Q 353 2572 751 3078 
Q 1150 3584 1784 3584 
Q 2172 3584 2448 3432 
Q 2725 3281 2906 2969 
z
M 947 1747 
Q 947 1113 1208 752 
Q 1469 391 1925 391 
Q 2381 391 2643 752 
Q 2906 1113 2906 1747 
Q 2906 2381 2643 2742 
Q 2381 3103 1925 3103 
Q 1469 3103 1208 2742 
Q 947 2381 947 1747 
z
" transform="scale(0.015625)"/>
      <path id="DejaVuSans-2d" d="M 313 2009 
L 1997 2009 
L 1997 1497 
L 313 1497 
L 313 2009 
z
" transform="scale(0.015625)"/>
      <path id="DejaVuSans-57" d="M 213 4666 
L 850 4666 
L 1831 722 
L 2809 4666 
L 3519 4666 
L 4500 722 
L 5478 4666 
L 6119 4666 
L 4947 0 
L 4153 0 
L 3169 4050 
L 2175 0 
L 1381 0 
L 213 4666 
z
" transform="scale(0.015625)"/>
      <path id="DejaVuSans-74" d="M 1172 4494 
L 1172 3500 
L 2356 3500 
L 2356 3053 
L 1172 3053 
L 1172 1153 
Q 1172 725 1289 603 
Q 1406 481 1766 481 
L 2356 481 
L 2356 0 
L 1766 0 
Q 1100 0 847 248 
Q 594 497 594 1153 
L 594 3053 
L 172 3053 
L 172 3500 
L 594 3500 
L 594 4494 
L 1172 4494 
z
" transform="scale(0.015625)"/>
      <path id="DejaVuSans-54" d="M -19 4666 
L 3928 4666 
L 3928 4134 
L 2272 4134 
L 2272 0 
L 1638 0 
L 1638 4134 
L -19 4134 
L -19 4666 
z
" transform="scale(0.015625)"/>
      <path id="DejaVuSans-79" d="M 2059 -325 
Q 1816 -950 1584 -1140 
Q 1353 -1331 966 -1331 
L 506 -1331 
L 506 -850 
L 844 -850 
Q 1081 -850 1212 -737 
Q 1344 -625 1503 -206 
L 1606 56 
L 191 3500 
L 800 3500 
L 1894 763 
L 2988 3500 
L 3597 3500 
L 2059 -325 
z
" transform="scale(0.015625)"/>
      <path id="DejaVuSans-70" d="M 1159 525 
L 1159 -1331 
L 581 -1331 
L 581 3500 
L 1159 3500 
L 1159 2969 
Q 1341 3281 1617 3432 
Q 1894 3584 2278 3584 
Q 2916 3584 3314 3078 
Q 3713 2572 3713 1747 
Q 3713 922 3314 415 
Q 2916 -91 2278 -91 
Q 1894 -91 1617 61 
Q 1341 213 1159 525 
z
M 3116 1747 
Q 3116 2381 2855 2742 
Q 2594 3103 2138 3103 
Q 1681 3103 1420 2742 
Q 1159 2381 1159 1747 
Q 1159 1113 1420 752 
Q 1681 391 2138 391 
Q 2594 391 2855 752 
Q 3116 1113 3116 1747 
z
" transform="scale(0.015625)"/>
      <path id="DejaVuSans-71" d="M 947 1747 
Q 947 1113 1208 752 
Q 1469 391 1925 391 
Q 2381 391 2643 752 
Q 2906 1113 2906 1747 
Q 2906 2381 2643 2742 
Q 2381 3103 1925 3103 
Q 1469 3103 1208 2742 
Q 947 2381 947 1747 
z
M 2906 525 
Q 2725 213 2448 61 
Q 2172 -91 1784 -91 
Q 1150 -91 751 415 
Q 353 922 353 1747 
Q 353 2572 751 3078 
Q 1150 3584 1784 3584 
Q 2172 3584 2448 3432 
Q 2725 3281 2906 2969 
L 2906 3500 
L 3481 3500 
L 3481 -1331 
L 2906 -1331 
L 2906 525 
z
" transform="scale(0.015625)"/>
      <path id="DejaVuSans-6e" d="M 3513 2113 
L 3513 0 
L 2938 0 
L 2938 2094 
Q 2938 2591 2744 2837 
Q 2550 3084 2163 3084 
Q 1697 3084 1428 2787 
Q 1159 2491 1159 1978 
L 1159 0 
L 581 0 
L 581 3500 
L 1159 3500 
L 1159 2956 
Q 1366 3272 1645 3428 
Q 1925 3584 2291 3584 
Q 2894 3584 3203 3211 
Q 3513 2838 3513 2113 
z
" transform="scale(0.015625)"/>
      <path id="DejaVuSans-3a" d="M 750 794 
L 1409 794 
L 1409 0 
L 750 0 
L 750 794 
z
M 750 3309 
L 1409 3309 
L 1409 2516 
L 750 2516 
L 750 3309 
z
" transform="scale(0.015625)"/>
     </defs>
     <use xlink:href="#DejaVuSans-42"/>
     <use xlink:href="#DejaVuSans-6c" transform="translate(68.603516 0)"/>
     <use xlink:href="#DejaVuSans-6f" transform="translate(96.386719 0)"/>
     <use xlink:href="#DejaVuSans-63" transform="translate(157.568359 0)"/>
     <use xlink:href="#DejaVuSans-6b" transform="translate(212.548828 0)"/>
     <use xlink:href="#DejaVuSans-20" transform="translate(270.458984 0)"/>
     <use xlink:href="#DejaVuSans-53" transform="translate(302.246094 0)"/>
     <use xlink:href="#DejaVuSans-69" transform="translate(365.722656 0)"/>
     <use xlink:href="#DejaVuSans-7a" transform="translate(393.505859 0)"/>
     <use xlink:href="#DejaVuSans-65" transform="translate(445.996094 0)"/>
     <use xlink:href="#DejaVuSans-20" transform="translate(507.519531 0)"/>
     <use xlink:href="#DejaVuSans-3d" transform="translate(539.306641 0)"/>
     <use xlink:href="#DejaVuSans-20" transform="translate(623.095703 0)"/>
     <use xlink:href="#DejaVuSans-31" transform="translate(654.882812 0)"/>
     <use xlink:href="#DejaVuSans-36" transform="translate(718.505859 0)"/>
     <use xlink:href="#DejaVuSans-4b" transform="translate(782.128906 0)"/>
     <use xlink:href="#DejaVuSans-2c" transform="translate(847.705078 0)"/>
     <use xlink:href="#DejaVuSans-20" transform="translate(879.492188 0)"/>
     <use xlink:href="#DejaVuSans-52" transform="translate(911.279297 0)"/>
     <use xlink:href="#DejaVuSans-65" transform="translate(976.261719 0)"/>
     <use xlink:href="#DejaVuSans-61" transform="translate(1037.785156 0)"/>
     <use xlink:href="#DejaVuSans-64" transform="translate(1099.064453 0)"/>
     <use xlink:href="#DejaVuSans-2d" transform="translate(1162.541016 0)"/>
     <use xlink:href="#DejaVuSans-57" transform="translate(1194.625 0)"/>
     <use xlink:href="#DejaVuSans-72" transform="translate(1289.001953 0)"/>
     <use xlink:href="#DejaVuSans-69" transform="translate(1330.115234 0)"/>
     <use xlink:href="#DejaVuSans-74" transform="translate(1357.898438 0)"/>
     <use xlink:href="#DejaVuSans-65" transform="translate(1397.107422 0)"/>
     <use xlink:href="#DejaVuSans-20" transform="translate(1458.630859 0)"/>
     <use xlink:href="#DejaVuSans-54" transform="translate(1490.417969 0)"/>
     <use xlink:href="#DejaVuSans-79" transform="translate(1535.876953 0)"/>
     <use xlink:href="#DejaVuSans-70" transform="translate(1595.056641 0)"/>
     <use xlink:href="#DejaVuSans-65" transform="translate(1658.533203 0)"/>
     <use xlink:href="#DejaVuSans-20" transform="translate(1720.056641 0)"/>
     <use xlink:href="#DejaVuSans-3d" transform="translate(1751.84375 0)"/>
     <use xlink:href="#DejaVuSans-20" transform="translate(1835.632812 0)"/>
     <use xlink:href="#DejaVuSans-53" transform="translate(1867.419922 0)"/>
     <use xlink:href="#DejaVuSans-65" transform="translate(1930.896484 0)"/>
     <use xlink:href="#DejaVuSans-71" transform="translate(1992.419922 0)"/>
     <use xlink:href="#DejaVuSans-75" transform="translate(2055.896484 0)"/>
     <use xlink:href="#DejaVuSans-65" transform="translate(2119.275391 0)"/>
     <use xlink:href="#DejaVuSans-6e" transform="translate(2180.798828 0)"/>
     <use xlink:href="#DejaVuSans-74" transform="translate(2244.177734 0)"/>
     <use xlink:href="#DejaVuSans-69" transform="translate(2283.386719 0)"/>
     <use xlink:href="#DejaVuSans-61" transform="translate(2311.169922 0)"/>
     <use xlink:href="#DejaVuSans-6c" transform="translate(2372.449219 0)"/>
     <use xlink:href="#DejaVuSans-20" transform="translate(2400.232422 0)"/>
     <use xlink:href="#DejaVuSans-42" transform="translate(2432.019531 0)"/>
     <use xlink:href="#DejaVuSans-61" transform="translate(2500.623047 0)"/>
     <use xlink:href="#DejaVuSans-6c" transform="translate(2561.902344 0)"/>
     <use xlink:href="#DejaVuSans-61" transform="translate(2589.685547 0)"/>
     <use xlink:href="#DejaVuSans-6e" transform="translate(2650.964844 0)"/>
     <use xlink:href="#DejaVuSans-63" transform="translate(2714.34375 0)"/>
     <use xlink:href="#DejaVuSans-65" transform="translate(2769.324219 0)"/>
     <use xlink:href="#DejaVuSans-64" transform="translate(2830.847656 0)"/>
     <use xlink:href="#DejaVuSans-20" transform="translate(2894.324219 0)"/>
     <use xlink:href="#DejaVuSans-31" transform="translate(2926.111328 0)"/>
     <use xlink:href="#DejaVuSans-3a" transform="translate(2989.734375 0)"/>
     <use xlink:href="#DejaVuSans-31" transform="translate(3023.425781 0)"/>
    </g>
   </g>
   <g id="text_23">
    <!-- IOPS vs Number of Jobs -->
    <g style="fill: #262626" transform="translate(158.541562 16.318125) scale(0.12 -0.12)">
     <defs>
      <path id="DejaVuSans-Bold-49" d="M 588 4666 
L 1791 4666 
L 1791 0 
L 588 0 
L 588 4666 
z
" transform="scale(0.015625)"/>
      <path id="DejaVuSans-Bold-4f" d="M 2719 3878 
Q 2169 3878 1866 3472 
Q 1563 3066 1563 2328 
Q 1563 1594 1866 1187 
Q 2169 781 2719 781 
Q 3272 781 3575 1187 
Q 3878 1594 3878 2328 
Q 3878 3066 3575 3472 
Q 3272 3878 2719 3878 
z
M 2719 4750 
Q 3844 4750 4481 4106 
Q 5119 3463 5119 2328 
Q 5119 1197 4481 553 
Q 3844 -91 2719 -91 
Q 1597 -91 958 553 
Q 319 1197 319 2328 
Q 319 3463 958 4106 
Q 1597 4750 2719 4750 
z
" transform="scale(0.015625)"/>
      <path id="DejaVuSans-Bold-50" d="M 588 4666 
L 2584 4666 
Q 3475 4666 3951 4270 
Q 4428 3875 4428 3144 
Q 4428 2409 3951 2014 
Q 3475 1619 2584 1619 
L 1791 1619 
L 1791 0 
L 588 0 
L 588 4666 
z
M 1791 3794 
L 1791 2491 
L 2456 2491 
Q 2806 2491 2997 2661 
Q 3188 2831 3188 3144 
Q 3188 3456 2997 3625 
Q 2806 3794 2456 3794 
L 1791 3794 
z
" transform="scale(0.015625)"/>
      <path id="DejaVuSans-Bold-53" d="M 3834 4519 
L 3834 3531 
Q 3450 3703 3084 3790 
Q 2719 3878 2394 3878 
Q 1963 3878 1756 3759 
Q 1550 3641 1550 3391 
Q 1550 3203 1689 3098 
Q 1828 2994 2194 2919 
L 2706 2816 
Q 3484 2659 3812 2340 
Q 4141 2022 4141 1434 
Q 4141 663 3683 286 
Q 3225 -91 2284 -91 
Q 1841 -91 1394 -6 
Q 947 78 500 244 
L 500 1259 
Q 947 1022 1364 901 
Q 1781 781 2169 781 
Q 2563 781 2772 912 
Q 2981 1044 2981 1288 
Q 2981 1506 2839 1625 
Q 2697 1744 2272 1838 
L 1806 1941 
Q 1106 2091 782 2419 
Q 459 2747 459 3303 
Q 459 4000 909 4375 
Q 1359 4750 2203 4750 
Q 2588 4750 2994 4692 
Q 3400 4634 3834 4519 
z
" transform="scale(0.015625)"/>
      <path id="DejaVuSans-Bold-20" transform="scale(0.015625)"/>
      <path id="DejaVuSans-Bold-76" d="M 97 3500 
L 1216 3500 
L 2088 1081 
L 2956 3500 
L 4078 3500 
L 2700 0 
L 1472 0 
L 97 3500 
z
" transform="scale(0.015625)"/>
      <path id="DejaVuSans-Bold-73" d="M 3272 3391 
L 3272 2541 
Q 2913 2691 2578 2766 
Q 2244 2841 1947 2841 
Q 1628 2841 1473 2761 
Q 1319 2681 1319 2516 
Q 1319 2381 1436 2309 
Q 1553 2238 1856 2203 
L 2053 2175 
Q 2913 2066 3209 1816 
Q 3506 1566 3506 1031 
Q 3506 472 3093 190 
Q 2681 -91 1863 -91 
Q 1516 -91 1145 -36 
Q 775 19 384 128 
L 384 978 
Q 719 816 1070 734 
Q 1422 653 1784 653 
Q 2113 653 2278 743 
Q 2444 834 2444 1013 
Q 2444 1163 2330 1236 
Q 2216 1309 1875 1350 
L 1678 1375 
Q 931 1469 631 1722 
Q 331 1975 331 2491 
Q 331 3047 712 3315 
Q 1094 3584 1881 3584 
Q 2191 3584 2531 3537 
Q 2872 3491 3272 3391 
z
" transform="scale(0.015625)"/>
      <path id="DejaVuSans-Bold-4e" d="M 588 4666 
L 1931 4666 
L 3628 1466 
L 3628 4666 
L 4769 4666 
L 4769 0 
L 3425 0 
L 1728 3200 
L 1728 0 
L 588 0 
L 588 4666 
z
" transform="scale(0.015625)"/>
      <path id="DejaVuSans-Bold-75" d="M 500 1363 
L 500 3500 
L 1625 3500 
L 1625 3150 
Q 1625 2866 1622 2436 
Q 1619 2006 1619 1863 
Q 1619 1441 1641 1255 
Q 1663 1069 1716 984 
Q 1784 875 1895 815 
Q 2006 756 2150 756 
Q 2500 756 2700 1025 
Q 2900 1294 2900 1772 
L 2900 3500 
L 4019 3500 
L 4019 0 
L 2900 0 
L 2900 506 
Q 2647 200 2364 54 
Q 2081 -91 1741 -91 
Q 1134 -91 817 281 
Q 500 653 500 1363 
z
" transform="scale(0.015625)"/>
      <path id="DejaVuSans-Bold-6d" d="M 3781 2919 
Q 3994 3244 4286 3414 
Q 4578 3584 4928 3584 
Q 5531 3584 5847 3212 
Q 6163 2841 6163 2131 
L 6163 0 
L 5038 0 
L 5038 1825 
Q 5041 1866 5042 1909 
Q 5044 1953 5044 2034 
Q 5044 2406 4934 2573 
Q 4825 2741 4581 2741 
Q 4263 2741 4089 2478 
Q 3916 2216 3909 1719 
L 3909 0 
L 2784 0 
L 2784 1825 
Q 2784 2406 2684 2573 
Q 2584 2741 2328 2741 
Q 2006 2741 1831 2477 
Q 1656 2213 1656 1722 
L 1656 0 
L 531 0 
L 531 3500 
L 1656 3500 
L 1656 2988 
Q 1863 3284 2130 3434 
Q 2397 3584 2719 3584 
Q 3081 3584 3359 3409 
Q 3638 3234 3781 2919 
z
" transform="scale(0.015625)"/>
      <path id="DejaVuSans-Bold-62" d="M 2400 722 
Q 2759 722 2948 984 
Q 3138 1247 3138 1747 
Q 3138 2247 2948 2509 
Q 2759 2772 2400 2772 
Q 2041 2772 1848 2508 
Q 1656 2244 1656 1747 
Q 1656 1250 1848 986 
Q 2041 722 2400 722 
z
M 1656 2988 
Q 1888 3294 2169 3439 
Q 2450 3584 2816 3584 
Q 3463 3584 3878 3070 
Q 4294 2556 4294 1747 
Q 4294 938 3878 423 
Q 3463 -91 2816 -91 
Q 2450 -91 2169 54 
Q 1888 200 1656 506 
L 1656 0 
L 538 0 
L 538 4863 
L 1656 4863 
L 1656 2988 
z
" transform="scale(0.015625)"/>
      <path id="DejaVuSans-Bold-65" d="M 4031 1759 
L 4031 1441 
L 1416 1441 
Q 1456 1047 1700 850 
Q 1944 653 2381 653 
Q 2734 653 3104 758 
Q 3475 863 3866 1075 
L 3866 213 
Q 3469 63 3072 -14 
Q 2675 -91 2278 -91 
Q 1328 -91 801 392 
Q 275 875 275 1747 
Q 275 2603 792 3093 
Q 1309 3584 2216 3584 
Q 3041 3584 3536 3087 
Q 4031 2591 4031 1759 
z
M 2881 2131 
Q 2881 2450 2695 2645 
Q 2509 2841 2209 2841 
Q 1884 2841 1681 2658 
Q 1478 2475 1428 2131 
L 2881 2131 
z
" transform="scale(0.015625)"/>
      <path id="DejaVuSans-Bold-72" d="M 3138 2547 
Q 2991 2616 2845 2648 
Q 2700 2681 2553 2681 
Q 2122 2681 1889 2404 
Q 1656 2128 1656 1613 
L 1656 0 
L 538 0 
L 538 3500 
L 1656 3500 
L 1656 2925 
Q 1872 3269 2151 3426 
Q 2431 3584 2822 3584 
Q 2878 3584 2943 3579 
Q 3009 3575 3134 3559 
L 3138 2547 
z
" transform="scale(0.015625)"/>
      <path id="DejaVuSans-Bold-6f" d="M 2203 2784 
Q 1831 2784 1636 2517 
Q 1441 2250 1441 1747 
Q 1441 1244 1636 976 
Q 1831 709 2203 709 
Q 2569 709 2762 976 
Q 2956 1244 2956 1747 
Q 2956 2250 2762 2517 
Q 2569 2784 2203 2784 
z
M 2203 3584 
Q 3106 3584 3614 3096 
Q 4122 2609 4122 1747 
Q 4122 884 3614 396 
Q 3106 -91 2203 -91 
Q 1297 -91 786 396 
Q 275 884 275 1747 
Q 275 2609 786 3096 
Q 1297 3584 2203 3584 
z
" transform="scale(0.015625)"/>
      <path id="DejaVuSans-Bold-66" d="M 2841 4863 
L 2841 4128 
L 2222 4128 
Q 1984 4128 1890 4042 
Q 1797 3956 1797 3744 
L 1797 3500 
L 2753 3500 
L 2753 2700 
L 1797 2700 
L 1797 0 
L 678 0 
L 678 2700 
L 122 2700 
L 122 3500 
L 678 3500 
L 678 3744 
Q 678 4316 997 4589 
Q 1316 4863 1984 4863 
L 2841 4863 
z
" transform="scale(0.015625)"/>
      <path id="DejaVuSans-Bold-4a" d="M 588 4666 
L 1791 4666 
L 1791 453 
Q 1791 -419 1317 -850 
Q 844 -1281 -116 -1281 
L -359 -1281 
L -359 -372 
L -172 -372 
Q 203 -372 395 -162 
Q 588 47 588 453 
L 588 4666 
z
" transform="scale(0.015625)"/>
     </defs>
     <use xlink:href="#DejaVuSans-Bold-49"/>
     <use xlink:href="#DejaVuSans-Bold-4f" transform="translate(37.207031 0)"/>
     <use xlink:href="#DejaVuSans-Bold-50" transform="translate(122.216797 0)"/>
     <use xlink:href="#DejaVuSans-Bold-53" transform="translate(195.507812 0)"/>
     <use xlink:href="#DejaVuSans-Bold-20" transform="translate(267.529297 0)"/>
     <use xlink:href="#DejaVuSans-Bold-76" transform="translate(302.34375 0)"/>
     <use xlink:href="#DejaVuSans-Bold-73" transform="translate(367.529297 0)"/>
     <use xlink:href="#DejaVuSans-Bold-20" transform="translate(427.050781 0)"/>
     <use xlink:href="#DejaVuSans-Bold-4e" transform="translate(461.865234 0)"/>
     <use xlink:href="#DejaVuSans-Bold-75" transform="translate(545.556641 0)"/>
     <use xlink:href="#DejaVuSans-Bold-6d" transform="translate(616.748047 0)"/>
     <use xlink:href="#DejaVuSans-Bold-62" transform="translate(720.947266 0)"/>
     <use xlink:href="#DejaVuSans-Bold-65" transform="translate(792.529297 0)"/>
     <use xlink:href="#DejaVuSans-Bold-72" transform="translate(860.351562 0)"/>
     <use xlink:href="#DejaVuSans-Bold-20" transform="translate(909.667969 0)"/>
     <use xlink:href="#DejaVuSans-Bold-6f" transform="translate(944.482422 0)"/>
     <use xlink:href="#DejaVuSans-Bold-66" transform="translate(1013.183594 0)"/>
     <use xlink:href="#DejaVuSans-Bold-20" transform="translate(1056.689453 0)"/>
     <use xlink:href="#DejaVuSans-Bold-4a" transform="translate(1091.503906 0)"/>
     <use xlink:href="#DejaVuSans-Bold-6f" transform="translate(1128.710938 0)"/>
     <use xlink:href="#DejaVuSans-Bold-62" transform="translate(1197.412109 0)"/>
     <use xlink:href="#DejaVuSans-Bold-73" transform="translate(1268.994141 0)"/>
    </g>
   </g>
   <g id="legend_1">
    <g id="text_24">
     <!-- IO Depth -->
     <g style="fill: #262626" transform="translate(451.317187 120.065663) scale(0.1 -0.1)">
      <defs>
       <path id="DejaVuSans-44" d="M 1259 4147 
L 1259 519 
L 2022 519 
Q 2988 519 3436 956 
Q 3884 1394 3884 2338 
Q 3884 3275 3436 3711 
Q 2988 4147 2022 4147 
L 1259 4147 
z
M 628 4666 
L 1925 4666 
Q 3281 4666 3915 4102 
Q 4550 3538 4550 2338 
Q 4550 1131 3912 565 
Q 3275 0 1925 0 
L 628 0 
L 628 4666 
z
" transform="scale(0.015625)"/>
       <path id="DejaVuSans-68" d="M 3513 2113 
L 3513 0 
L 2938 0 
L 2938 2094 
Q 2938 2591 2744 2837 
Q 2550 3084 2163 3084 
Q 1697 3084 1428 2787 
Q 1159 2491 1159 1978 
L 1159 0 
L 581 0 
L 581 4863 
L 1159 4863 
L 1159 2956 
Q 1366 3272 1645 3428 
Q 1925 3584 2291 3584 
Q 2894 3584 3203 3211 
Q 3513 2838 3513 2113 
z
" transform="scale(0.015625)"/>
      </defs>
      <use xlink:href="#DejaVuSans-49"/>
      <use xlink:href="#DejaVuSans-4f" transform="translate(29.492188 0)"/>
      <use xlink:href="#DejaVuSans-20" transform="translate(108.203125 0)"/>
      <use xlink:href="#DejaVuSans-44" transform="translate(139.990234 0)"/>
      <use xlink:href="#DejaVuSans-65" transform="translate(216.992188 0)"/>
      <use xlink:href="#DejaVuSans-70" transform="translate(278.515625 0)"/>
      <use xlink:href="#DejaVuSans-74" transform="translate(341.992188 0)"/>
      <use xlink:href="#DejaVuSans-68" transform="translate(381.201172 0)"/>
     </g>
    </g>
    <g id="line2d_27">
     <path d="M 450.003125 131.243787 
L 460.003125 131.243787 
L 470.003125 131.243787 
" style="fill: none; stroke: #4c02a1; stroke-width: 1.5; stroke-linecap: round"/>
    </g>
    <g id="text_25">
     <!-- 1 -->
     <g style="fill: #262626" transform="translate(478.003125 134.743787) scale(0.1 -0.1)">
      <use xlink:href="#DejaVuSans-31"/>
     </g>
    </g>
    <g id="line2d_28">
     <path d="M 450.003125 145.921913 
L 460.003125 145.921913 
L 470.003125 145.921913 
" style="fill: none; stroke: #7e03a8; stroke-width: 1.5; stroke-linecap: round"/>
    </g>
    <g id="text_26">
     <!-- 4 -->
     <g style="fill: #262626" transform="translate(478.003125 149.421913) scale(0.1 -0.1)">
      <use xlink:href="#DejaVuSans-34"/>
     </g>
    </g>
    <g id="line2d_29">
     <path d="M 450.003125 160.600037 
L 460.003125 160.600037 
L 470.003125 160.600037 
" style="fill: none; stroke: #aa2395; stroke-width: 1.5; stroke-linecap: round"/>
    </g>
    <g id="text_27">
     <!-- 8 -->
     <g style="fill: #262626" transform="translate(478.003125 164.100037) scale(0.1 -0.1)">
      <use xlink:href="#DejaVuSans-38"/>
     </g>
    </g>
    <g id="line2d_30">
     <path d="M 450.003125 175.278163 
L 460.003125 175.278163 
L 470.003125 175.278163 
" style="fill: none; stroke: #cc4778; stroke-width: 1.5; stroke-linecap: round"/>
    </g>
    <g id="text_28">
     <!-- 16 -->
     <g style="fill: #262626" transform="translate(478.003125 178.778163) scale(0.1 -0.1)">
      <use xlink:href="#DejaVuSans-31"/>
      <use xlink:href="#DejaVuSans-36" transform="translate(63.623047 0)"/>
     </g>
    </g>
    <g id="line2d_31">
     <path d="M 450.003125 189.956288 
L 460.003125 189.956288 
L 470.003125 189.956288 
" style="fill: none; stroke: #e66c5c; stroke-width: 1.5; stroke-linecap: round"/>
    </g>
    <g id="text_29">
     <!-- 32 -->
     <g style="fill: #262626" transform="translate(478.003125 193.456288) scale(0.1 -0.1)">
      <use xlink:href="#DejaVuSans-33"/>
      <use xlink:href="#DejaVuSans-32" transform="translate(63.623047 0)"/>
     </g>
    </g>
    <g id="line2d_32">
     <path d="M 450.003125 204.634412 
L 460.003125 204.634412 
L 470.003125 204.634412 
" style="fill: none; stroke: #f89540; stroke-width: 1.5; stroke-linecap: round"/>
    </g>
    <g id="text_30">
     <!-- 64 -->
     <g style="fill: #262626" transform="translate(478.003125 208.134412) scale(0.1 -0.1)">
      <use xlink:href="#DejaVuSans-36"/>
      <use xlink:href="#DejaVuSans-34" transform="translate(63.623047 0)"/>
     </g>
    </g>
    <g id="line2d_33">
     <path d="M 450.003125 219.312537 
L 460.003125 219.312537 
L 470.003125 219.312537 
" style="fill: none; stroke: #fdc527; stroke-width: 1.5; stroke-linecap: round"/>
    </g>
    <g id="text_31">
     <!-- 128 -->
     <g style="fill: #262626" transform="translate(478.003125 222.812537) scale(0.1 -0.1)">
      <use xlink:href="#DejaVuSans-31"/>
      <use xlink:href="#DejaVuSans-32" transform="translate(63.623047 0)"/>
      <use xlink:href="#DejaVuSans-38" transform="translate(127.246094 0)"/>
     </g>
    </g>
   </g>
  </g>
 </g>
 <defs>
  <clipPath id="p69cf3b1ef7">
   <rect x="59.690625" y="35.623725" width="357.12" height="266.112"/>
  </clipPath>
 </defs>
</svg>
