<?xml version="1.0" encoding="utf-8" standalone="no"?>
<!DOCTYPE svg PUBLIC "-//W3C//DTD SVG 1.1//EN"
  "http://www.w3.org/Graphics/SVG/1.1/DTD/svg11.dtd">
<svg xmlns:xlink="http://www.w3.org/1999/xlink" width="501.928125pt" height="339.291975pt" viewBox="0 0 501.928125 339.291975" xmlns="http://www.w3.org/2000/svg" version="1.1">
 <metadata>
  <rdf:RDF xmlns:dc="http://purl.org/dc/elements/1.1/" xmlns:cc="http://creativecommons.org/ns#" xmlns:rdf="http://www.w3.org/1999/02/22-rdf-syntax-ns#">
   <cc:Work>
    <dc:type rdf:resource="http://purl.org/dc/dcmitype/StillImage"/>
    <dc:date>2025-09-11T11:34:24.932468</dc:date>
    <dc:format>image/svg+xml</dc:format>
    <dc:creator>
     <cc:Agent>
      <dc:title>Matplotlib v3.10.6, https://matplotlib.org/</dc:title>
     </cc:Agent>
    </dc:creator>
   </cc:Work>
  </rdf:RDF>
 </metadata>
 <defs>
  <style type="text/css">*{stroke-linejoin: round; stroke-linecap: butt}</style>
 </defs>
 <g id="figure_1">
  <g id="patch_1">
   <path d="M 0 339.291975 
L 501.928125 339.291975 
L 501.928125 0 
L 0 0 
z
" style="fill: #ffffff"/>
  </g>
  <g id="axes_1">
   <g id="patch_2">
    <path d="M 53.328125 301.735725 
L 410.448125 301.735725 
L 410.448125 35.623725 
L 53.328125 35.623725 
z
" style="fill: #ffffff"/>
   </g>
   <g id="matplotlib.axis_1">
    <g id="xtick_1">
     <g id="line2d_1">
      <path d="M 208.698515 301.735725 
L 208.698515 35.623725 
" clip-path="url(#p2a03e39a53)" style="fill: none; stroke: #cccccc; stroke-width: 0.8; stroke-linecap: round"/>
     </g>
     <g id="text_1">
      <!-- 64 -->
      <g style="fill: #262626" transform="translate(202.336015 316.334162) scale(0.1 -0.1)">
       <defs>
        <path id="DejaVuSans-36" d="M 2113 2584 
Q 1688 2584 1439 2293 
Q 1191 2003 1191 1497 
Q 1191 994 1439 701 
Q 1688 409 2113 409 
Q 2538 409 2786 701 
Q 3034 994 3034 1497 
Q 3034 2003 2786 2293 
Q 2538 2584 2113 2584 
z
M 3366 4563 
L 3366 3988 
Q 3128 4100 2886 4159 
Q 2644 4219 2406 4219 
Q 1781 4219 1451 3797 
Q 1122 3375 1075 2522 
Q 1259 2794 1537 2939 
Q 1816 3084 2150 3084 
Q 2853 3084 3261 2657 
Q 3669 2231 3669 1497 
Q 3669 778 3244 343 
Q 2819 -91 2113 -91 
Q 1303 -91 875 529 
Q 447 1150 447 2328 
Q 447 3434 972 4092 
Q 1497 4750 2381 4750 
Q 2619 4750 2861 4703 
Q 3103 4656 3366 4563 
z
" transform="scale(0.015625)"/>
        <path id="DejaVuSans-34" d="M 2419 4116 
L 825 1625 
L 2419 1625 
L 2419 4116 
z
M 2253 4666 
L 3047 4666 
L 3047 1625 
L 3713 1625 
L 3713 1100 
L 3047 1100 
L 3047 0 
L 2419 0 
L 2419 1100 
L 313 1100 
L 313 1709 
L 2253 4666 
z
" transform="scale(0.015625)"/>
       </defs>
       <use xlink:href="#DejaVuSans-36"/>
       <use xlink:href="#DejaVuSans-34" transform="translate(63.623047 0)"/>
      </g>
     </g>
    </g>
    <g id="xtick_2">
     <g id="line2d_2">
      <path d="M 115.940073 301.735725 
L 115.940073 35.623725 
" clip-path="url(#p2a03e39a53)" style="fill: none; stroke: #cccccc; stroke-width: 0.8; stroke-linecap: round"/>
     </g>
     <g id="text_2">
      <!-- 32 -->
      <g style="fill: #262626" transform="translate(109.577573 316.334162) scale(0.1 -0.1)">
       <defs>
        <path id="DejaVuSans-33" d="M 2597 2516 
Q 3050 2419 3304 2112 
Q 3559 1806 3559 1356 
Q 3559 666 3084 287 
Q 2609 -91 1734 -91 
Q 1441 -91 1130 -33 
Q 819 25 488 141 
L 488 750 
Q 750 597 1062 519 
Q 1375 441 1716 441 
Q 2309 441 2620 675 
Q 2931 909 2931 1356 
Q 2931 1769 2642 2001 
Q 2353 2234 1838 2234 
L 1294 2234 
L 1294 2753 
L 1863 2753 
Q 2328 2753 2575 2939 
Q 2822 3125 2822 3475 
Q 2822 3834 2567 4026 
Q 2313 4219 1838 4219 
Q 1578 4219 1281 4162 
Q 984 4106 628 3988 
L 628 4550 
Q 988 4650 1302 4700 
Q 1616 4750 1894 4750 
Q 2613 4750 3031 4423 
Q 3450 4097 3450 3541 
Q 3450 3153 3228 2886 
Q 3006 2619 2597 2516 
z
" transform="scale(0.015625)"/>
        <path id="DejaVuSans-32" d="M 1228 531 
L 3431 531 
L 3431 0 
L 469 0 
L 469 531 
Q 828 903 1448 1529 
Q 2069 2156 2228 2338 
Q 2531 2678 2651 2914 
Q 2772 3150 2772 3378 
Q 2772 3750 2511 3984 
Q 2250 4219 1831 4219 
Q 1534 4219 1204 4116 
Q 875 4013 500 3803 
L 500 4441 
Q 881 4594 1212 4672 
Q 1544 4750 1819 4750 
Q 2544 4750 2975 4387 
Q 3406 4025 3406 3419 
Q 3406 3131 3298 2873 
Q 3191 2616 2906 2266 
Q 2828 2175 2409 1742 
Q 1991 1309 1228 531 
z
" transform="scale(0.015625)"/>
       </defs>
       <use xlink:href="#DejaVuSans-33"/>
       <use xlink:href="#DejaVuSans-32" transform="translate(63.623047 0)"/>
      </g>
     </g>
    </g>
    <g id="xtick_3">
     <g id="line2d_3">
      <path d="M 69.560852 301.735725 
L 69.560852 35.623725 
" clip-path="url(#p2a03e39a53)" style="fill: none; stroke: #cccccc; stroke-width: 0.8; stroke-linecap: round"/>
     </g>
     <g id="text_3">
      <!-- 16 -->
      <g style="fill: #262626" transform="translate(63.198352 316.334162) scale(0.1 -0.1)">
       <defs>
        <path id="DejaVuSans-31" d="M 794 531 
L 1825 531 
L 1825 4091 
L 703 3866 
L 703 4441 
L 1819 4666 
L 2450 4666 
L 2450 531 
L 3481 531 
L 3481 0 
L 794 0 
L 794 531 
z
" transform="scale(0.015625)"/>
       </defs>
       <use xlink:href="#DejaVuSans-31"/>
       <use xlink:href="#DejaVuSans-36" transform="translate(63.623047 0)"/>
      </g>
     </g>
    </g>
    <g id="xtick_4">
     <g id="line2d_4">
      <path d="M 394.215398 301.735725 
L 394.215398 35.623725 
" clip-path="url(#p2a03e39a53)" style="fill: none; stroke: #cccccc; stroke-width: 0.8; stroke-linecap: round"/>
     </g>
     <g id="text_4">
      <!-- 128 -->
      <g style="fill: #262626" transform="translate(384.671648 316.334162) scale(0.1 -0.1)">
       <defs>
        <path id="DejaVuSans-38" d="M 2034 2216 
Q 1584 2216 1326 1975 
Q 1069 1734 1069 1313 
Q 1069 891 1326 650 
Q 1584 409 2034 409 
Q 2484 409 2743 651 
Q 3003 894 3003 1313 
Q 3003 1734 2745 1975 
Q 2488 2216 2034 2216 
z
M 1403 2484 
Q 997 2584 770 2862 
Q 544 3141 544 3541 
Q 544 4100 942 4425 
Q 1341 4750 2034 4750 
Q 2731 4750 3128 4425 
Q 3525 4100 3525 3541 
Q 3525 3141 3298 2862 
Q 3072 2584 2669 2484 
Q 3125 2378 3379 2068 
Q 3634 1759 3634 1313 
Q 3634 634 3220 271 
Q 2806 -91 2034 -91 
Q 1263 -91 848 271 
Q 434 634 434 1313 
Q 434 1759 690 2068 
Q 947 2378 1403 2484 
z
M 1172 3481 
Q 1172 3119 1398 2916 
Q 1625 2713 2034 2713 
Q 2441 2713 2670 2916 
Q 2900 3119 2900 3481 
Q 2900 3844 2670 4047 
Q 2441 4250 2034 4250 
Q 1625 4250 1398 4047 
Q 1172 3844 1172 3481 
z
" transform="scale(0.015625)"/>
       </defs>
       <use xlink:href="#DejaVuSans-31"/>
       <use xlink:href="#DejaVuSans-32" transform="translate(63.623047 0)"/>
       <use xlink:href="#DejaVuSans-38" transform="translate(127.246094 0)"/>
      </g>
     </g>
    </g>
    <g id="text_5">
     <!-- Number of Jobs -->
     <g style="fill: #262626" transform="translate(193.49125 330.012287) scale(0.1 -0.1)">
      <defs>
       <path id="DejaVuSans-4e" d="M 628 4666 
L 1478 4666 
L 3547 763 
L 3547 4666 
L 4159 4666 
L 4159 0 
L 3309 0 
L 1241 3903 
L 1241 0 
L 628 0 
L 628 4666 
z
" transform="scale(0.015625)"/>
       <path id="DejaVuSans-75" d="M 544 1381 
L 544 3500 
L 1119 3500 
L 1119 1403 
Q 1119 906 1312 657 
Q 1506 409 1894 409 
Q 2359 409 2629 706 
Q 2900 1003 2900 1516 
L 2900 3500 
L 3475 3500 
L 3475 0 
L 2900 0 
L 2900 538 
Q 2691 219 2414 64 
Q 2138 -91 1772 -91 
Q 1169 -91 856 284 
Q 544 659 544 1381 
z
M 1991 3584 
L 1991 3584 
z
" transform="scale(0.015625)"/>
       <path id="DejaVuSans-6d" d="M 3328 2828 
Q 3544 3216 3844 3400 
Q 4144 3584 4550 3584 
Q 5097 3584 5394 3201 
Q 5691 2819 5691 2113 
L 5691 0 
L 5113 0 
L 5113 2094 
Q 5113 2597 4934 2840 
Q 4756 3084 4391 3084 
Q 3944 3084 3684 2787 
Q 3425 2491 3425 1978 
L 3425 0 
L 2847 0 
L 2847 2094 
Q 2847 2600 2669 2842 
Q 2491 3084 2119 3084 
Q 1678 3084 1418 2786 
Q 1159 2488 1159 1978 
L 1159 0 
L 581 0 
L 581 3500 
L 1159 3500 
L 1159 2956 
Q 1356 3278 1631 3431 
Q 1906 3584 2284 3584 
Q 2666 3584 2933 3390 
Q 3200 3197 3328 2828 
z
" transform="scale(0.015625)"/>
       <path id="DejaVuSans-62" d="M 3116 1747 
Q 3116 2381 2855 2742 
Q 2594 3103 2138 3103 
Q 1681 3103 1420 2742 
Q 1159 2381 1159 1747 
Q 1159 1113 1420 752 
Q 1681 391 2138 391 
Q 2594 391 2855 752 
Q 3116 1113 3116 1747 
z
M 1159 2969 
Q 1341 3281 1617 3432 
Q 1894 3584 2278 3584 
Q 2916 3584 3314 3078 
Q 3713 2572 3713 1747 
Q 3713 922 3314 415 
Q 2916 -91 2278 -91 
Q 1894 -91 1617 61 
Q 1341 213 1159 525 
L 1159 0 
L 581 0 
L 581 4863 
L 1159 4863 
L 1159 2969 
z
" transform="scale(0.015625)"/>
       <path id="DejaVuSans-65" d="M 3597 1894 
L 3597 1613 
L 953 1613 
Q 991 1019 1311 708 
Q 1631 397 2203 397 
Q 2534 397 2845 478 
Q 3156 559 3463 722 
L 3463 178 
Q 3153 47 2828 -22 
Q 2503 -91 2169 -91 
Q 1331 -91 842 396 
Q 353 884 353 1716 
Q 353 2575 817 3079 
Q 1281 3584 2069 3584 
Q 2775 3584 3186 3129 
Q 3597 2675 3597 1894 
z
M 3022 2063 
Q 3016 2534 2758 2815 
Q 2500 3097 2075 3097 
Q 1594 3097 1305 2825 
Q 1016 2553 972 2059 
L 3022 2063 
z
" transform="scale(0.015625)"/>
       <path id="DejaVuSans-72" d="M 2631 2963 
Q 2534 3019 2420 3045 
Q 2306 3072 2169 3072 
Q 1681 3072 1420 2755 
Q 1159 2438 1159 1844 
L 1159 0 
L 581 0 
L 581 3500 
L 1159 3500 
L 1159 2956 
Q 1341 3275 1631 3429 
Q 1922 3584 2338 3584 
Q 2397 3584 2469 3576 
Q 2541 3569 2628 3553 
L 2631 2963 
z
" transform="scale(0.015625)"/>
       <path id="DejaVuSans-20" transform="scale(0.015625)"/>
       <path id="DejaVuSans-6f" d="M 1959 3097 
Q 1497 3097 1228 2736 
Q 959 2375 959 1747 
Q 959 1119 1226 758 
Q 1494 397 1959 397 
Q 2419 397 2687 759 
Q 2956 1122 2956 1747 
Q 2956 2369 2687 2733 
Q 2419 3097 1959 3097 
z
M 1959 3584 
Q 2709 3584 3137 3096 
Q 3566 2609 3566 1747 
Q 3566 888 3137 398 
Q 2709 -91 1959 -91 
Q 1206 -91 779 398 
Q 353 888 353 1747 
Q 353 2609 779 3096 
Q 1206 3584 1959 3584 
z
" transform="scale(0.015625)"/>
       <path id="DejaVuSans-66" d="M 2375 4863 
L 2375 4384 
L 1825 4384 
Q 1516 4384 1395 4259 
Q 1275 4134 1275 3809 
L 1275 3500 
L 2222 3500 
L 2222 3053 
L 1275 3053 
L 1275 0 
L 697 0 
L 697 3053 
L 147 3053 
L 147 3500 
L 697 3500 
L 697 3744 
Q 697 4328 969 4595 
Q 1241 4863 1831 4863 
L 2375 4863 
z
" transform="scale(0.015625)"/>
       <path id="DejaVuSans-4a" d="M 628 4666 
L 1259 4666 
L 1259 325 
Q 1259 -519 939 -900 
Q 619 -1281 -91 -1281 
L -331 -1281 
L -331 -750 
L -134 -750 
Q 284 -750 456 -515 
Q 628 -281 628 325 
L 628 4666 
z
" transform="scale(0.015625)"/>
       <path id="DejaVuSans-73" d="M 2834 3397 
L 2834 2853 
Q 2591 2978 2328 3040 
Q 2066 3103 1784 3103 
Q 1356 3103 1142 2972 
Q 928 2841 928 2578 
Q 928 2378 1081 2264 
Q 1234 2150 1697 2047 
L 1894 2003 
Q 2506 1872 2764 1633 
Q 3022 1394 3022 966 
Q 3022 478 2636 193 
Q 2250 -91 1575 -91 
Q 1294 -91 989 -36 
Q 684 19 347 128 
L 347 722 
Q 666 556 975 473 
Q 1284 391 1588 391 
Q 1994 391 2212 530 
Q 2431 669 2431 922 
Q 2431 1156 2273 1281 
Q 2116 1406 1581 1522 
L 1381 1569 
Q 847 1681 609 1914 
Q 372 2147 372 2553 
Q 372 3047 722 3315 
Q 1072 3584 1716 3584 
Q 2034 3584 2315 3537 
Q 2597 3491 2834 3397 
z
" transform="scale(0.015625)"/>
      </defs>
      <use xlink:href="#DejaVuSans-4e"/>
      <use xlink:href="#DejaVuSans-75" transform="translate(74.804688 0)"/>
      <use xlink:href="#DejaVuSans-6d" transform="translate(138.183594 0)"/>
      <use xlink:href="#DejaVuSans-62" transform="translate(235.595703 0)"/>
      <use xlink:href="#DejaVuSans-65" transform="translate(299.072266 0)"/>
      <use xlink:href="#DejaVuSans-72" transform="translate(360.595703 0)"/>
      <use xlink:href="#DejaVuSans-20" transform="translate(401.708984 0)"/>
      <use xlink:href="#DejaVuSans-6f" transform="translate(433.496094 0)"/>
      <use xlink:href="#DejaVuSans-66" transform="translate(494.677734 0)"/>
      <use xlink:href="#DejaVuSans-20" transform="translate(529.882812 0)"/>
      <use xlink:href="#DejaVuSans-4a" transform="translate(561.669922 0)"/>
      <use xlink:href="#DejaVuSans-6f" transform="translate(591.162109 0)"/>
      <use xlink:href="#DejaVuSans-62" transform="translate(652.34375 0)"/>
      <use xlink:href="#DejaVuSans-73" transform="translate(715.820312 0)"/>
     </g>
    </g>
   </g>
   <g id="matplotlib.axis_2">
    <g id="ytick_1">
     <g id="line2d_5">
      <path d="M 53.328125 296.755019 
L 410.448125 296.755019 
" clip-path="url(#p2a03e39a53)" style="fill: none; stroke: #cccccc; stroke-width: 0.8; stroke-linecap: round"/>
     </g>
     <g id="text_6">
      <!-- 2200 -->
      <g style="fill: #262626" transform="translate(20.878125 300.554238) scale(0.1 -0.1)">
       <defs>
        <path id="DejaVuSans-30" d="M 2034 4250 
Q 1547 4250 1301 3770 
Q 1056 3291 1056 2328 
Q 1056 1369 1301 889 
Q 1547 409 2034 409 
Q 2525 409 2770 889 
Q 3016 1369 3016 2328 
Q 3016 3291 2770 3770 
Q 2525 4250 2034 4250 
z
M 2034 4750 
Q 2819 4750 3233 4129 
Q 3647 3509 3647 2328 
Q 3647 1150 3233 529 
Q 2819 -91 2034 -91 
Q 1250 -91 836 529 
Q 422 1150 422 2328 
Q 422 3509 836 4129 
Q 1250 4750 2034 4750 
z
" transform="scale(0.015625)"/>
       </defs>
       <use xlink:href="#DejaVuSans-32"/>
       <use xlink:href="#DejaVuSans-32" transform="translate(63.623047 0)"/>
       <use xlink:href="#DejaVuSans-30" transform="translate(127.246094 0)"/>
       <use xlink:href="#DejaVuSans-30" transform="translate(190.869141 0)"/>
      </g>
     </g>
    </g>
    <g id="ytick_2">
     <g id="line2d_6">
      <path d="M 53.328125 262.872666 
L 410.448125 262.872666 
" clip-path="url(#p2a03e39a53)" style="fill: none; stroke: #cccccc; stroke-width: 0.8; stroke-linecap: round"/>
     </g>
     <g id="text_7">
      <!-- 2400 -->
      <g style="fill: #262626" transform="translate(20.878125 266.671885) scale(0.1 -0.1)">
       <use xlink:href="#DejaVuSans-32"/>
       <use xlink:href="#DejaVuSans-34" transform="translate(63.623047 0)"/>
       <use xlink:href="#DejaVuSans-30" transform="translate(127.246094 0)"/>
       <use xlink:href="#DejaVuSans-30" transform="translate(190.869141 0)"/>
      </g>
     </g>
    </g>
    <g id="ytick_3">
     <g id="line2d_7">
      <path d="M 53.328125 228.990313 
L 410.448125 228.990313 
" clip-path="url(#p2a03e39a53)" style="fill: none; stroke: #cccccc; stroke-width: 0.8; stroke-linecap: round"/>
     </g>
     <g id="text_8">
      <!-- 2600 -->
      <g style="fill: #262626" transform="translate(20.878125 232.789532) scale(0.1 -0.1)">
       <use xlink:href="#DejaVuSans-32"/>
       <use xlink:href="#DejaVuSans-36" transform="translate(63.623047 0)"/>
       <use xlink:href="#DejaVuSans-30" transform="translate(127.246094 0)"/>
       <use xlink:href="#DejaVuSans-30" transform="translate(190.869141 0)"/>
      </g>
     </g>
    </g>
    <g id="ytick_4">
     <g id="line2d_8">
      <path d="M 53.328125 195.10796 
L 410.448125 195.10796 
" clip-path="url(#p2a03e39a53)" style="fill: none; stroke: #cccccc; stroke-width: 0.8; stroke-linecap: round"/>
     </g>
     <g id="text_9">
      <!-- 2800 -->
      <g style="fill: #262626" transform="translate(20.878125 198.907179) scale(0.1 -0.1)">
       <use xlink:href="#DejaVuSans-32"/>
       <use xlink:href="#DejaVuSans-38" transform="translate(63.623047 0)"/>
       <use xlink:href="#DejaVuSans-30" transform="translate(127.246094 0)"/>
       <use xlink:href="#DejaVuSans-30" transform="translate(190.869141 0)"/>
      </g>
     </g>
    </g>
    <g id="ytick_5">
     <g id="line2d_9">
      <path d="M 53.328125 161.225607 
L 410.448125 161.225607 
" clip-path="url(#p2a03e39a53)" style="fill: none; stroke: #cccccc; stroke-width: 0.8; stroke-linecap: round"/>
     </g>
     <g id="text_10">
      <!-- 3000 -->
      <g style="fill: #262626" transform="translate(20.878125 165.024826) scale(0.1 -0.1)">
       <use xlink:href="#DejaVuSans-33"/>
       <use xlink:href="#DejaVuSans-30" transform="translate(63.623047 0)"/>
       <use xlink:href="#DejaVuSans-30" transform="translate(127.246094 0)"/>
       <use xlink:href="#DejaVuSans-30" transform="translate(190.869141 0)"/>
      </g>
     </g>
    </g>
    <g id="ytick_6">
     <g id="line2d_10">
      <path d="M 53.328125 127.343254 
L 410.448125 127.343254 
" clip-path="url(#p2a03e39a53)" style="fill: none; stroke: #cccccc; stroke-width: 0.8; stroke-linecap: round"/>
     </g>
     <g id="text_11">
      <!-- 3200 -->
      <g style="fill: #262626" transform="translate(20.878125 131.142473) scale(0.1 -0.1)">
       <use xlink:href="#DejaVuSans-33"/>
       <use xlink:href="#DejaVuSans-32" transform="translate(63.623047 0)"/>
       <use xlink:href="#DejaVuSans-30" transform="translate(127.246094 0)"/>
       <use xlink:href="#DejaVuSans-30" transform="translate(190.869141 0)"/>
      </g>
     </g>
    </g>
    <g id="ytick_7">
     <g id="line2d_11">
      <path d="M 53.328125 93.460901 
L 410.448125 93.460901 
" clip-path="url(#p2a03e39a53)" style="fill: none; stroke: #cccccc; stroke-width: 0.8; stroke-linecap: round"/>
     </g>
     <g id="text_12">
      <!-- 3400 -->
      <g style="fill: #262626" transform="translate(20.878125 97.26012) scale(0.1 -0.1)">
       <use xlink:href="#DejaVuSans-33"/>
       <use xlink:href="#DejaVuSans-34" transform="translate(63.623047 0)"/>
       <use xlink:href="#DejaVuSans-30" transform="translate(127.246094 0)"/>
       <use xlink:href="#DejaVuSans-30" transform="translate(190.869141 0)"/>
      </g>
     </g>
    </g>
    <g id="ytick_8">
     <g id="line2d_12">
      <path d="M 53.328125 59.578549 
L 410.448125 59.578549 
" clip-path="url(#p2a03e39a53)" style="fill: none; stroke: #cccccc; stroke-width: 0.8; stroke-linecap: round"/>
     </g>
     <g id="text_13">
      <!-- 3600 -->
      <g style="fill: #262626" transform="translate(20.878125 63.377767) scale(0.1 -0.1)">
       <use xlink:href="#DejaVuSans-33"/>
       <use xlink:href="#DejaVuSans-36" transform="translate(63.623047 0)"/>
       <use xlink:href="#DejaVuSans-30" transform="translate(127.246094 0)"/>
       <use xlink:href="#DejaVuSans-30" transform="translate(190.869141 0)"/>
      </g>
     </g>
    </g>
    <g id="text_14">
     <!-- IOPS -->
     <g style="fill: #262626" transform="translate(14.798438 180.279725) rotate(-90) scale(0.1 -0.1)">
      <defs>
       <path id="DejaVuSans-49" d="M 628 4666 
L 1259 4666 
L 1259 0 
L 628 0 
L 628 4666 
z
" transform="scale(0.015625)"/>
       <path id="DejaVuSans-4f" d="M 2522 4238 
Q 1834 4238 1429 3725 
Q 1025 3213 1025 2328 
Q 1025 1447 1429 934 
Q 1834 422 2522 422 
Q 3209 422 3611 934 
Q 4013 1447 4013 2328 
Q 4013 3213 3611 3725 
Q 3209 4238 2522 4238 
z
M 2522 4750 
Q 3503 4750 4090 4092 
Q 4678 3434 4678 2328 
Q 4678 1225 4090 567 
Q 3503 -91 2522 -91 
Q 1538 -91 948 565 
Q 359 1222 359 2328 
Q 359 3434 948 4092 
Q 1538 4750 2522 4750 
z
" transform="scale(0.015625)"/>
       <path id="DejaVuSans-50" d="M 1259 4147 
L 1259 2394 
L 2053 2394 
Q 2494 2394 2734 2622 
Q 2975 2850 2975 3272 
Q 2975 3691 2734 3919 
Q 2494 4147 2053 4147 
L 1259 4147 
z
M 628 4666 
L 2053 4666 
Q 2838 4666 3239 4311 
Q 3641 3956 3641 3272 
Q 3641 2581 3239 2228 
Q 2838 1875 2053 1875 
L 1259 1875 
L 1259 0 
L 628 0 
L 628 4666 
z
" transform="scale(0.015625)"/>
       <path id="DejaVuSans-53" d="M 3425 4513 
L 3425 3897 
Q 3066 4069 2747 4153 
Q 2428 4238 2131 4238 
Q 1616 4238 1336 4038 
Q 1056 3838 1056 3469 
Q 1056 3159 1242 3001 
Q 1428 2844 1947 2747 
L 2328 2669 
Q 3034 2534 3370 2195 
Q 3706 1856 3706 1288 
Q 3706 609 3251 259 
Q 2797 -91 1919 -91 
Q 1588 -91 1214 -16 
Q 841 59 441 206 
L 441 856 
Q 825 641 1194 531 
Q 1563 422 1919 422 
Q 2459 422 2753 634 
Q 3047 847 3047 1241 
Q 3047 1584 2836 1778 
Q 2625 1972 2144 2069 
L 1759 2144 
Q 1053 2284 737 2584 
Q 422 2884 422 3419 
Q 422 4038 858 4394 
Q 1294 4750 2059 4750 
Q 2388 4750 2728 4690 
Q 3069 4631 3425 4513 
z
" transform="scale(0.015625)"/>
      </defs>
      <use xlink:href="#DejaVuSans-49"/>
      <use xlink:href="#DejaVuSans-4f" transform="translate(29.492188 0)"/>
      <use xlink:href="#DejaVuSans-50" transform="translate(108.203125 0)"/>
      <use xlink:href="#DejaVuSans-53" transform="translate(168.505859 0)"/>
     </g>
    </g>
   </g>
   <g id="FillBetweenPolyCollection_1"/>
   <g id="FillBetweenPolyCollection_2"/>
   <g id="FillBetweenPolyCollection_3"/>
   <g id="FillBetweenPolyCollection_4"/>
   <g id="FillBetweenPolyCollection_5"/>
   <g id="FillBetweenPolyCollection_6"/>
   <g id="FillBetweenPolyCollection_7"/>
   <g id="line2d_13">
    <path d="M 69.560852 203.917372 
L 115.940073 239.493843 
L 208.698515 268.293843 
L 394.215398 221.197372 
" clip-path="url(#p2a03e39a53)" style="fill: none; stroke: #4c02a1; stroke-width: 1.5; stroke-linecap: round"/>
   </g>
   <g id="line2d_14">
    <path d="M 69.560852 184.265607 
L 115.940073 199.173843 
L 208.698515 131.578549 
L 394.215398 56.359725 
" clip-path="url(#p2a03e39a53)" style="fill: none; stroke: #7e03a8; stroke-width: 1.5; stroke-linecap: round"/>
   </g>
   <g id="line2d_15">
    <path d="M 69.560852 193.413843 
L 115.940073 241.357372 
L 208.698515 128.020901 
L 394.215398 234.580901 
" clip-path="url(#p2a03e39a53)" style="fill: none; stroke: #aa2395; stroke-width: 1.5; stroke-linecap: round"/>
   </g>
   <g id="line2d_16">
    <path d="M 69.560852 186.298549 
L 115.940073 250.336196 
L 208.698515 131.070313 
L 394.215398 54.326784 
" clip-path="url(#p2a03e39a53)" style="fill: none; stroke: #cc4778; stroke-width: 1.5; stroke-linecap: round"/>
   </g>
   <g id="line2d_17">
    <path d="M 69.560852 249.997372 
L 115.940073 243.559725 
L 208.698515 130.223254 
L 394.215398 51.616196 
" clip-path="url(#p2a03e39a53)" style="fill: none; stroke: #e66c5c; stroke-width: 1.5; stroke-linecap: round"/>
   </g>
   <g id="line2d_18">
    <path d="M 69.560852 289.639725 
L 115.940073 242.035019 
L 208.698515 127.343254 
L 394.215398 47.719725 
" clip-path="url(#p2a03e39a53)" style="fill: none; stroke: #f89540; stroke-width: 1.5; stroke-linecap: round"/>
   </g>
   <g id="line2d_19">
    <path d="M 69.560852 262.025607 
L 115.940073 195.616196 
L 208.698515 129.376196 
L 394.215398 48.058549 
" clip-path="url(#p2a03e39a53)" style="fill: none; stroke: #fdc527; stroke-width: 1.5; stroke-linecap: round"/>
   </g>
   <g id="line2d_20"/>
   <g id="line2d_21"/>
   <g id="line2d_22"/>
   <g id="line2d_23"/>
   <g id="line2d_24"/>
   <g id="line2d_25"/>
   <g id="line2d_26"/>
   <g id="text_15">
    <path d="M 108.645859 236.330638 
L 109.924056 237.311114 
L 113.309599 232.897555 
L 111.70461 232.109486 
L 112.251432 231.396621 
L 113.848983 232.178985 
L 114.631274 232.779063 
L 110.698908 237.905486 
L 111.977105 238.885963 
L 111.472126 239.544277 
L 108.140881 236.988953 
L 108.645859 236.330638 
z
" clip-path="url(#p2a03e39a53)" style="fill: #4c02a1; stroke: #ffffff; stroke-width: 5"/>
    <path d="M 108.645859 236.330638 
L 109.924056 237.311114 
L 113.309599 232.897555 
L 111.70461 232.109486 
L 112.251432 231.396621 
L 113.848983 232.178985 
L 114.631274 232.779063 
L 110.698908 237.905486 
L 111.977105 238.885963 
L 111.472126 239.544277 
L 108.140881 236.988953 
L 108.645859 236.330638 
z
" clip-path="url(#p2a03e39a53)" style="fill: #4c02a1"/>
   </g>
   <g id="text_16">
    <path d="M 149.85726 169.914178 
L 150.136652 174.526582 
L 152.149519 173.059757 
L 149.85726 169.914178 
z
M 149.14152 169.372406 
L 150.144166 168.641754 
L 152.942544 172.481861 
L 153.783554 171.868997 
L 154.266668 172.531956 
L 153.425658 173.14482 
L 154.437896 174.533875 
L 153.644871 175.111771 
L 152.632633 173.722716 
L 149.973223 175.660692 
L 149.412811 174.89166 
L 149.14152 169.372406 
z
" clip-path="url(#p2a03e39a53)" style="fill: #7e03a8; stroke: #ffffff; stroke-width: 5"/>
    <path d="M 149.85726 169.914178 
L 150.136652 174.526582 
L 152.149519 173.059757 
L 149.85726 169.914178 
z
M 149.14152 169.372406 
L 150.144166 168.641754 
L 152.942544 172.481861 
L 153.783554 171.868997 
L 154.266668 172.531956 
L 153.425658 173.14482 
L 154.437896 174.533875 
L 153.644871 175.111771 
L 152.632633 173.722716 
L 149.973223 175.660692 
L 149.412811 174.89166 
L 149.14152 169.372406 
z
" clip-path="url(#p2a03e39a53)" style="fill: #7e03a8"/>
   </g>
   <g id="text_17">
    <path d="M 191.166024 148.332733 
Q 190.720697 148.876855 190.756783 149.427315 
Q 190.793859 149.976567 191.302914 150.393196 
Q 191.813179 150.810814 192.358918 150.738558 
Q 192.905647 150.665092 193.350974 150.120971 
Q 193.796302 149.57685 193.759996 149.02419 
Q 193.723471 148.469332 193.216833 148.054683 
Q 192.707778 147.638054 192.161049 147.711519 
Q 191.61531 147.783775 191.166024 148.332733 
z
M 190.217522 148.830495 
Q 189.694821 149.222452 189.134032 149.221818 
Q 188.573023 149.218984 188.08936 148.823138 
Q 187.41344 148.269942 187.414331 147.467071 
Q 187.416212 146.662991 188.102016 145.825044 
Q 188.791779 144.982261 189.577634 144.82385 
Q 190.363488 144.66544 191.039408 145.218635 
Q 191.523071 145.614482 191.635783 146.165064 
Q 191.748276 146.713448 191.470376 147.2997 
Q 192.049813 146.853223 192.676014 146.852878 
Q 193.301997 146.850334 193.841282 147.291703 
Q 194.6623 147.963653 194.691524 148.823476 
Q 194.719538 149.682309 193.955553 150.615779 
Q 193.192559 151.548041 192.344152 151.6916 
Q 191.495527 151.832961 190.674508 151.161011 
Q 190.135223 150.719642 190.014935 150.104306 
Q 189.894427 149.486771 190.217522 148.830495 
z
M 188.783389 148.123163 
Q 189.221104 148.481404 189.690217 148.409027 
Q 190.160319 148.33544 190.565072 147.840894 
Q 190.967847 147.348766 190.94901 146.870977 
Q 190.931162 146.391978 190.493447 146.033737 
Q 190.054522 145.674506 189.581451 145.75172 
Q 189.10937 145.827725 188.706596 146.319853 
Q 188.301842 146.814399 188.322658 147.28977 
Q 188.344464 147.763932 188.783389 148.123163 
z
" clip-path="url(#p2a03e39a53)" style="fill: #aa2395; stroke: #ffffff; stroke-width: 5"/>
    <path d="M 191.166024 148.332733 
Q 190.720697 148.876855 190.756783 149.427315 
Q 190.793859 149.976567 191.302914 150.393196 
Q 191.813179 150.810814 192.358918 150.738558 
Q 192.905647 150.665092 193.350974 150.120971 
Q 193.796302 149.57685 193.759996 149.02419 
Q 193.723471 148.469332 193.216833 148.054683 
Q 192.707778 147.638054 192.161049 147.711519 
Q 191.61531 147.783775 191.166024 148.332733 
z
M 190.217522 148.830495 
Q 189.694821 149.222452 189.134032 149.221818 
Q 188.573023 149.218984 188.08936 148.823138 
Q 187.41344 148.269942 187.414331 147.467071 
Q 187.416212 146.662991 188.102016 145.825044 
Q 188.791779 144.982261 189.577634 144.82385 
Q 190.363488 144.66544 191.039408 145.218635 
Q 191.523071 145.614482 191.635783 146.165064 
Q 191.748276 146.713448 191.470376 147.2997 
Q 192.049813 146.853223 192.676014 146.852878 
Q 193.301997 146.850334 193.841282 147.291703 
Q 194.6623 147.963653 194.691524 148.823476 
Q 194.719538 149.682309 193.955553 150.615779 
Q 193.192559 151.548041 192.344152 151.6916 
Q 191.495527 151.832961 190.674508 151.161011 
Q 190.135223 150.719642 190.014935 150.104306 
Q 189.894427 149.486771 190.217522 148.830495 
z
M 188.783389 148.123163 
Q 189.221104 148.481404 189.690217 148.409027 
Q 190.160319 148.33544 190.565072 147.840894 
Q 190.967847 147.348766 190.94901 146.870977 
Q 190.931162 146.391978 190.493447 146.033737 
Q 190.054522 145.674506 189.581451 145.75172 
Q 189.10937 145.827725 188.706596 146.319853 
Q 188.301842 146.814399 188.322658 147.28977 
Q 188.344464 147.763932 188.783389 148.123163 
z
" clip-path="url(#p2a03e39a53)" style="fill: #aa2395"/>
   </g>
   <g id="text_18">
    <path d="M 227.892866 125.218388 
L 229.381462 124.602594 
L 227.255152 119.462535 
L 225.769554 120.457544 
L 225.42612 119.627338 
L 226.903054 118.635912 
L 227.814115 118.25903 
L 230.28386 124.229296 
L 231.772456 123.613502 
L 232.08961 124.380179 
L 228.21002 125.985065 
L 227.892866 125.218388 
z
M 234.450199 119.03434 
Q 233.836568 119.288183 233.65086 119.857062 
Q 233.466 120.423899 233.768222 121.154481 
Q 234.068653 121.880731 234.601727 122.15565 
Q 235.135648 122.428528 235.749278 122.174685 
Q 236.362909 121.920842 236.546575 121.351117 
Q 236.729645 120.779948 236.429214 120.053698 
Q 236.126991 119.323116 235.595709 119.052528 
Q 235.063829 118.780497 234.450199 119.03434 
z
M 235.077313 115.428597 
L 235.420748 116.258803 
Q 235.01022 116.239246 234.625572 116.298601 
Q 234.240327 116.356512 233.896693 116.498664 
Q 232.994295 116.871962 232.76988 117.678363 
Q 232.546909 118.484167 232.988527 119.743832 
Q 233.091734 119.241209 233.406515 118.86581 
Q 233.72274 118.489813 234.204982 118.290322 
Q 235.219999 117.870436 236.064122 118.243264 
Q 236.907648 118.61465 237.34605 119.674426 
Q 237.775493 120.712545 237.421678 121.594457 
Q 237.067266 122.474925 236.047917 122.896604 
Q 234.878409 123.380399 233.890135 122.740855 
Q 232.901263 122.099867 232.197669 120.399027 
Q 231.53708 118.802143 231.902086 117.538528 
Q 232.267091 116.274912 233.543443 115.746918 
Q 233.887076 115.604766 234.264557 115.528085 
Q 234.642037 115.451404 235.077313 115.428597 
z
" clip-path="url(#p2a03e39a53)" style="fill: #cc4778; stroke: #ffffff; stroke-width: 5"/>
    <path d="M 227.892866 125.218388 
L 229.381462 124.602594 
L 227.255152 119.462535 
L 225.769554 120.457544 
L 225.42612 119.627338 
L 226.903054 118.635912 
L 227.814115 118.25903 
L 230.28386 124.229296 
L 231.772456 123.613502 
L 232.08961 124.380179 
L 228.21002 125.985065 
L 227.892866 125.218388 
z
M 234.450199 119.03434 
Q 233.836568 119.288183 233.65086 119.857062 
Q 233.466 120.423899 233.768222 121.154481 
Q 234.068653 121.880731 234.601727 122.15565 
Q 235.135648 122.428528 235.749278 122.174685 
Q 236.362909 121.920842 236.546575 121.351117 
Q 236.729645 120.779948 236.429214 120.053698 
Q 236.126991 119.323116 235.595709 119.052528 
Q 235.063829 118.780497 234.450199 119.03434 
z
M 235.077313 115.428597 
L 235.420748 116.258803 
Q 235.01022 116.239246 234.625572 116.298601 
Q 234.240327 116.356512 233.896693 116.498664 
Q 232.994295 116.871962 232.76988 117.678363 
Q 232.546909 118.484167 232.988527 119.743832 
Q 233.091734 119.241209 233.406515 118.86581 
Q 233.72274 118.489813 234.204982 118.290322 
Q 235.219999 117.870436 236.064122 118.243264 
Q 236.907648 118.61465 237.34605 119.674426 
Q 237.775493 120.712545 237.421678 121.594457 
Q 237.067266 122.474925 236.047917 122.896604 
Q 234.878409 123.380399 233.890135 122.740855 
Q 232.901263 122.099867 232.197669 120.399027 
Q 231.53708 118.802143 231.902086 117.538528 
Q 232.267091 116.274912 233.543443 115.746918 
Q 233.887076 115.604766 234.264557 115.528085 
Q 234.642037 115.451404 235.077313 115.428597 
z
" clip-path="url(#p2a03e39a53)" style="fill: #cc4778"/>
   </g>
   <g id="text_19">
    <path d="M 269.484876 103.194175 
Q 270.195728 103.05758 270.748299 103.344418 
Q 271.301699 103.629206 271.576017 104.276612 
Q 271.996638 105.269301 271.544302 106.104119 
Q 271.091357 106.937498 269.832512 107.470894 
Q 269.410979 107.649506 268.928193 107.755647 
Q 268.445407 107.861788 267.898491 107.896678 
L 267.527247 107.020522 
Q 267.997449 107.080926 268.493866 107.002949 
Q 268.991721 106.924362 269.482311 106.71649 
Q 270.335448 106.354999 270.640232 105.828764 
Q 270.945015 105.302528 270.672526 104.659439 
Q 270.420763 104.065264 269.863558 103.907664 
Q 269.305744 103.748625 268.564824 104.062567 
L 267.782182 104.394187 
L 267.465802 103.647512 
L 268.284411 103.300652 
Q 268.953397 103.01719 269.195365 102.599025 
Q 269.437334 102.18086 269.223976 101.677323 
Q 269.005131 101.160837 268.521225 101.040057 
Q 268.038148 100.917229 267.354776 101.206788 
Q 266.980719 101.365283 266.588178 101.628337 
Q 266.195028 101.889953 265.75479 102.276734 
L 265.412197 101.468196 
Q 265.869162 101.104873 266.290428 100.841526 
Q 266.711693 100.578179 267.111646 100.408711 
Q 268.146057 99.970412 268.946763 100.186049 
Q 269.748298 100.399638 270.087233 101.199543 
Q 270.323757 101.757751 270.167132 102.277209 
Q 270.010507 102.796667 269.484876 103.194175 
z
M 274.583495 104.402292 
L 277.752906 103.059352 
L 278.076601 103.823291 
L 273.815233 105.628915 
L 273.491537 104.864976 
Q 273.781253 104.110942 274.291627 102.832379 
Q 274.802831 101.551768 274.920634 101.193002 
Q 275.149291 100.519144 275.178068 100.106464 
Q 275.208284 99.693174 275.069296 99.365155 
Q 274.842526 98.829966 274.324385 98.65242 
Q 273.805635 98.473435 273.202828 98.728856 
Q 272.77554 98.909906 272.363565 99.259256 
Q 271.953027 99.607998 271.541538 100.138719 
L 271.152615 99.220841 
Q 271.607484 98.768467 272.036139 98.454474 
Q 272.466232 98.139871 272.861869 97.972232 
Q 273.904911 97.530275 274.746265 97.78978 
Q 275.58701 98.047846 275.956425 98.919685 
Q 276.131989 99.334025 276.133887 99.771041 
Q 276.136615 100.206008 275.93995 100.883281 
Q 275.883206 101.061749 275.544355 101.940118 
Q 275.206942 102.817878 274.583495 104.402292 
z
" clip-path="url(#p2a03e39a53)" style="fill: #e66c5c; stroke: #ffffff; stroke-width: 5"/>
    <path d="M 269.484876 103.194175 
Q 270.195728 103.05758 270.748299 103.344418 
Q 271.301699 103.629206 271.576017 104.276612 
Q 271.996638 105.269301 271.544302 106.104119 
Q 271.091357 106.937498 269.832512 107.470894 
Q 269.410979 107.649506 268.928193 107.755647 
Q 268.445407 107.861788 267.898491 107.896678 
L 267.527247 107.020522 
Q 267.997449 107.080926 268.493866 107.002949 
Q 268.991721 106.924362 269.482311 106.71649 
Q 270.335448 106.354999 270.640232 105.828764 
Q 270.945015 105.302528 270.672526 104.659439 
Q 270.420763 104.065264 269.863558 103.907664 
Q 269.305744 103.748625 268.564824 104.062567 
L 267.782182 104.394187 
L 267.465802 103.647512 
L 268.284411 103.300652 
Q 268.953397 103.01719 269.195365 102.599025 
Q 269.437334 102.18086 269.223976 101.677323 
Q 269.005131 101.160837 268.521225 101.040057 
Q 268.038148 100.917229 267.354776 101.206788 
Q 266.980719 101.365283 266.588178 101.628337 
Q 266.195028 101.889953 265.75479 102.276734 
L 265.412197 101.468196 
Q 265.869162 101.104873 266.290428 100.841526 
Q 266.711693 100.578179 267.111646 100.408711 
Q 268.146057 99.970412 268.946763 100.186049 
Q 269.748298 100.399638 270.087233 101.199543 
Q 270.323757 101.757751 270.167132 102.277209 
Q 270.010507 102.796667 269.484876 103.194175 
z
M 274.583495 104.402292 
L 277.752906 103.059352 
L 278.076601 103.823291 
L 273.815233 105.628915 
L 273.491537 104.864976 
Q 273.781253 104.110942 274.291627 102.832379 
Q 274.802831 101.551768 274.920634 101.193002 
Q 275.149291 100.519144 275.178068 100.106464 
Q 275.208284 99.693174 275.069296 99.365155 
Q 274.842526 98.829966 274.324385 98.65242 
Q 273.805635 98.473435 273.202828 98.728856 
Q 272.77554 98.909906 272.363565 99.259256 
Q 271.953027 99.607998 271.541538 100.138719 
L 271.152615 99.220841 
Q 271.607484 98.768467 272.036139 98.454474 
Q 272.466232 98.139871 272.861869 97.972232 
Q 273.904911 97.530275 274.746265 97.78978 
Q 275.58701 98.047846 275.956425 98.919685 
Q 276.131989 99.334025 276.133887 99.771041 
Q 276.136615 100.206008 275.93995 100.883281 
Q 275.883206 101.061749 275.544355 101.940118 
Q 275.206942 102.817878 274.583495 104.402292 
z
" clip-path="url(#p2a03e39a53)" style="fill: #e66c5c"/>
   </g>
   <g id="text_20">
    <path d="M 308.923218 82.936108 
Q 308.312987 83.198019 308.134795 83.769296 
Q 307.957422 84.338521 308.269249 85.065055 
Q 308.579228 85.787282 309.11588 86.05515 
Q 309.653351 86.320966 310.263582 86.059056 
Q 310.873813 85.797146 311.049953 85.225049 
Q 311.225477 84.651516 310.915499 83.92929 
Q 310.603672 83.202756 310.068869 82.939195 
Q 309.533449 82.674198 308.923218 82.936108 
z
M 309.502746 79.322412 
L 309.857095 80.148019 
Q 309.446345 80.133875 309.062513 80.198295 
Q 308.678064 80.26128 308.336335 80.407949 
Q 307.438936 80.793111 307.225171 81.6024 
Q 307.012842 82.411073 307.471026 83.664807 
Q 307.567598 83.160868 307.877404 82.781351 
Q 308.188645 82.401218 308.668215 82.195388 
Q 309.677609 81.762158 310.526573 82.123827 
Q 311.374922 82.48406 311.827256 83.537965 
Q 312.270346 84.570332 311.928188 85.456832 
Q 311.585413 86.341896 310.571712 86.776975 
Q 309.408683 87.276145 308.412064 86.649684 
Q 307.414828 86.021788 306.688874 84.330371 
Q 306.007292 82.742334 306.355608 81.474016 
Q 306.703925 80.205699 307.973205 79.660926 
Q 308.314935 79.514256 308.691372 79.432606 
Q 309.067809 79.350955 309.502746 79.322412 
z
M 314.265029 78.038499 
L 313.511404 82.597488 
L 315.80013 81.615171 
L 314.265029 78.038499 
z
M 313.687737 77.351087 
L 314.827792 76.861777 
L 316.701837 81.22816 
L 317.658105 80.817732 
L 317.981641 81.571547 
L 317.025373 81.981975 
L 317.703258 83.561397 
L 316.801551 83.948408 
L 316.123666 82.368986 
L 313.099791 83.666828 
L 312.72449 82.792403 
L 313.687737 77.351087 
z
" clip-path="url(#p2a03e39a53)" style="fill: #f89540; stroke: #ffffff; stroke-width: 5"/>
    <path d="M 308.923218 82.936108 
Q 308.312987 83.198019 308.134795 83.769296 
Q 307.957422 84.338521 308.269249 85.065055 
Q 308.579228 85.787282 309.11588 86.05515 
Q 309.653351 86.320966 310.263582 86.059056 
Q 310.873813 85.797146 311.049953 85.225049 
Q 311.225477 84.651516 310.915499 83.92929 
Q 310.603672 83.202756 310.068869 82.939195 
Q 309.533449 82.674198 308.923218 82.936108 
z
M 309.502746 79.322412 
L 309.857095 80.148019 
Q 309.446345 80.133875 309.062513 80.198295 
Q 308.678064 80.26128 308.336335 80.407949 
Q 307.438936 80.793111 307.225171 81.6024 
Q 307.012842 82.411073 307.471026 83.664807 
Q 307.567598 83.160868 307.877404 82.781351 
Q 308.188645 82.401218 308.668215 82.195388 
Q 309.677609 81.762158 310.526573 82.123827 
Q 311.374922 82.48406 311.827256 83.537965 
Q 312.270346 84.570332 311.928188 85.456832 
Q 311.585413 86.341896 310.571712 86.776975 
Q 309.408683 87.276145 308.412064 86.649684 
Q 307.414828 86.021788 306.688874 84.330371 
Q 306.007292 82.742334 306.355608 81.474016 
Q 306.703925 80.205699 307.973205 79.660926 
Q 308.314935 79.514256 308.691372 79.432606 
Q 309.067809 79.350955 309.502746 79.322412 
z
M 314.265029 78.038499 
L 313.511404 82.597488 
L 315.80013 81.615171 
L 314.265029 78.038499 
z
M 313.687737 77.351087 
L 314.827792 76.861777 
L 316.701837 81.22816 
L 317.658105 80.817732 
L 317.981641 81.571547 
L 317.025373 81.981975 
L 317.703258 83.561397 
L 316.801551 83.948408 
L 316.123666 82.368986 
L 313.099791 83.666828 
L 312.72449 82.792403 
L 313.687737 77.351087 
z
" clip-path="url(#p2a03e39a53)" style="fill: #f89540"/>
   </g>
   <g id="text_21">
    <path d="M 345.586163 71.481136 
L 347.061585 70.834414 
L 344.828481 65.739843 
L 343.363969 66.765636 
L 343.003285 65.942777 
L 344.45921 64.920748 
L 345.362209 64.524936 
L 347.955997 70.442366 
L 349.431419 69.795644 
L 349.764503 70.555537 
L 345.919246 72.241028 
L 345.586163 71.481136 
z
M 352.034337 68.654707 
L 355.18696 67.272817 
L 355.520044 68.032709 
L 351.281246 69.890702 
L 350.948163 69.13081 
Q 351.228566 68.373263 351.723148 67.088509 
Q 352.218533 65.801696 352.331907 65.441506 
Q 352.552244 64.764881 352.575934 64.351878 
Q 352.601055 63.938248 352.458036 63.611966 
Q 352.224689 63.079612 351.7044 62.908464 
Q 351.183484 62.735884 350.58387 62.998713 
Q 350.158845 63.185014 349.751205 63.539414 
Q 349.344996 63.893187 348.940077 64.428938 
L 348.539875 63.515922 
Q 348.989135 63.057978 349.413888 62.738727 
Q 349.840072 62.418849 350.233613 62.246348 
Q 351.271131 61.791572 352.115619 62.04069 
Q 352.95948 62.288378 353.339609 63.1556 
Q 353.520265 63.567745 353.527548 64.004704 
Q 353.535635 64.439605 353.347329 65.119249 
Q 353.292789 65.298403 352.964786 66.180881 
Q 352.638214 67.062731 352.034337 68.654707 
z
M 357.957904 63.183596 
Q 357.313927 63.46587 357.095888 63.972593 
Q 356.879279 64.478688 357.143362 65.081164 
Q 357.408073 65.685071 357.927029 65.868746 
Q 358.447416 66.051794 359.091392 65.76952 
Q 359.735369 65.487246 359.954213 64.978465 
Q 360.17386 64.467625 359.911031 63.868012 
Q 359.646948 63.265536 359.126561 63.082488 
Q 358.607605 62.898812 357.957904 63.183596 
z
M 356.886795 63.195884 
Q 356.243058 63.307452 355.743824 63.052009 
Q 355.245395 62.794508 354.994484 62.222084 
Q 354.643837 61.422122 355.009534 60.707372 
Q 355.376661 59.991994 356.368385 59.557292 
Q 357.365834 59.12008 358.137829 59.336146 
Q 358.909824 59.552211 359.260472 60.352173 
Q 359.511383 60.924597 359.361542 61.466254 
Q 359.212506 62.005853 358.698516 62.401752 
Q 359.417571 62.267406 359.975515 62.551706 
Q 360.534264 62.833948 360.814029 63.4722 
Q 361.23995 64.443889 360.875193 65.223056 
Q 360.509808 66.000792 359.405031 66.48505 
Q 358.301684 66.96868 357.48072 66.710956 
Q 356.66056 66.451174 356.23464 65.479485 
Q 355.954874 64.841232 356.127397 64.238452 
Q 356.300724 63.633614 356.886795 63.195884 
z
M 355.930826 61.914018 
Q 356.1579 62.432062 356.608657 62.580802 
Q 357.060844 62.728916 357.646148 62.47236 
Q 358.228589 62.217058 358.428964 61.782907 
Q 358.630771 61.348128 358.403697 60.830085 
Q 358.175995 60.31061 357.719514 60.164379 
Q 357.264465 60.01752 356.682024 60.272821 
Q 356.09672 60.529378 355.899207 60.962274 
Q 355.703125 61.394544 355.930826 61.914018 
z
" clip-path="url(#p2a03e39a53)" style="fill: #fdc527; stroke: #ffffff; stroke-width: 5"/>
    <path d="M 345.586163 71.481136 
L 347.061585 70.834414 
L 344.828481 65.739843 
L 343.363969 66.765636 
L 343.003285 65.942777 
L 344.45921 64.920748 
L 345.362209 64.524936 
L 347.955997 70.442366 
L 349.431419 69.795644 
L 349.764503 70.555537 
L 345.919246 72.241028 
L 345.586163 71.481136 
z
M 352.034337 68.654707 
L 355.18696 67.272817 
L 355.520044 68.032709 
L 351.281246 69.890702 
L 350.948163 69.13081 
Q 351.228566 68.373263 351.723148 67.088509 
Q 352.218533 65.801696 352.331907 65.441506 
Q 352.552244 64.764881 352.575934 64.351878 
Q 352.601055 63.938248 352.458036 63.611966 
Q 352.224689 63.079612 351.7044 62.908464 
Q 351.183484 62.735884 350.58387 62.998713 
Q 350.158845 63.185014 349.751205 63.539414 
Q 349.344996 63.893187 348.940077 64.428938 
L 348.539875 63.515922 
Q 348.989135 63.057978 349.413888 62.738727 
Q 349.840072 62.418849 350.233613 62.246348 
Q 351.271131 61.791572 352.115619 62.04069 
Q 352.95948 62.288378 353.339609 63.1556 
Q 353.520265 63.567745 353.527548 64.004704 
Q 353.535635 64.439605 353.347329 65.119249 
Q 353.292789 65.298403 352.964786 66.180881 
Q 352.638214 67.062731 352.034337 68.654707 
z
M 357.957904 63.183596 
Q 357.313927 63.46587 357.095888 63.972593 
Q 356.879279 64.478688 357.143362 65.081164 
Q 357.408073 65.685071 357.927029 65.868746 
Q 358.447416 66.051794 359.091392 65.76952 
Q 359.735369 65.487246 359.954213 64.978465 
Q 360.17386 64.467625 359.911031 63.868012 
Q 359.646948 63.265536 359.126561 63.082488 
Q 358.607605 62.898812 357.957904 63.183596 
z
M 356.886795 63.195884 
Q 356.243058 63.307452 355.743824 63.052009 
Q 355.245395 62.794508 354.994484 62.222084 
Q 354.643837 61.422122 355.009534 60.707372 
Q 355.376661 59.991994 356.368385 59.557292 
Q 357.365834 59.12008 358.137829 59.336146 
Q 358.909824 59.552211 359.260472 60.352173 
Q 359.511383 60.924597 359.361542 61.466254 
Q 359.212506 62.005853 358.698516 62.401752 
Q 359.417571 62.267406 359.975515 62.551706 
Q 360.534264 62.833948 360.814029 63.4722 
Q 361.23995 64.443889 360.875193 65.223056 
Q 360.509808 66.000792 359.405031 66.48505 
Q 358.301684 66.96868 357.48072 66.710956 
Q 356.66056 66.451174 356.23464 65.479485 
Q 355.954874 64.841232 356.127397 64.238452 
Q 356.300724 63.633614 356.886795 63.195884 
z
M 355.930826 61.914018 
Q 356.1579 62.432062 356.608657 62.580802 
Q 357.060844 62.728916 357.646148 62.47236 
Q 358.228589 62.217058 358.428964 61.782907 
Q 358.630771 61.348128 358.403697 60.830085 
Q 358.175995 60.31061 357.719514 60.164379 
Q 357.264465 60.01752 356.682024 60.272821 
Q 356.09672 60.529378 355.899207 60.962274 
Q 355.703125 61.394544 355.930826 61.914018 
z
" clip-path="url(#p2a03e39a53)" style="fill: #fdc527"/>
   </g>
   <g id="patch_3">
    <path d="M 53.328125 301.735725 
L 53.328125 35.623725 
" style="fill: none; stroke: #cccccc; stroke-width: 0.8; stroke-linejoin: miter; stroke-linecap: square"/>
   </g>
   <g id="patch_4">
    <path d="M 410.448125 301.735725 
L 410.448125 35.623725 
" style="fill: none; stroke: #cccccc; stroke-width: 0.8; stroke-linejoin: miter; stroke-linecap: square"/>
   </g>
   <g id="patch_5">
    <path d="M 53.328125 301.735725 
L 410.448125 301.735725 
" style="fill: none; stroke: #cccccc; stroke-width: 0.8; stroke-linejoin: miter; stroke-linecap: square"/>
   </g>
   <g id="patch_6">
    <path d="M 53.328125 35.623725 
L 410.448125 35.623725 
" style="fill: none; stroke: #cccccc; stroke-width: 0.8; stroke-linejoin: miter; stroke-linecap: square"/>
   </g>
   <g id="text_22">
    <!-- Block Size = 4M, Read-Write Type = Random Write-only -->
    <g style="fill: #262626; opacity: 0.75" transform="translate(92.700625 30.882918) scale(0.1 -0.1)">
     <defs>
      <path id="DejaVuSans-42" d="M 1259 2228 
L 1259 519 
L 2272 519 
Q 2781 519 3026 730 
Q 3272 941 3272 1375 
Q 3272 1813 3026 2020 
Q 2781 2228 2272 2228 
L 1259 2228 
z
M 1259 4147 
L 1259 2741 
L 2194 2741 
Q 2656 2741 2882 2914 
Q 3109 3088 3109 3444 
Q 3109 3797 2882 3972 
Q 2656 4147 2194 4147 
L 1259 4147 
z
M 628 4666 
L 2241 4666 
Q 2963 4666 3353 4366 
Q 3744 4066 3744 3513 
Q 3744 3084 3544 2831 
Q 3344 2578 2956 2516 
Q 3422 2416 3680 2098 
Q 3938 1781 3938 1306 
Q 3938 681 3513 340 
Q 3088 0 2303 0 
L 628 0 
L 628 4666 
z
" transform="scale(0.015625)"/>
      <path id="DejaVuSans-6c" d="M 603 4863 
L 1178 4863 
L 1178 0 
L 603 0 
L 603 4863 
z
" transform="scale(0.015625)"/>
      <path id="DejaVuSans-63" d="M 3122 3366 
L 3122 2828 
Q 2878 2963 2633 3030 
Q 2388 3097 2138 3097 
Q 1578 3097 1268 2742 
Q 959 2388 959 1747 
Q 959 1106 1268 751 
Q 1578 397 2138 397 
Q 2388 397 2633 464 
Q 2878 531 3122 666 
L 3122 134 
Q 2881 22 2623 -34 
Q 2366 -91 2075 -91 
Q 1284 -91 818 406 
Q 353 903 353 1747 
Q 353 2603 823 3093 
Q 1294 3584 2113 3584 
Q 2378 3584 2631 3529 
Q 2884 3475 3122 3366 
z
" transform="scale(0.015625)"/>
      <path id="DejaVuSans-6b" d="M 581 4863 
L 1159 4863 
L 1159 1991 
L 2875 3500 
L 3609 3500 
L 1753 1863 
L 3688 0 
L 2938 0 
L 1159 1709 
L 1159 0 
L 581 0 
L 581 4863 
z
" transform="scale(0.015625)"/>
      <path id="DejaVuSans-69" d="M 603 3500 
L 1178 3500 
L 1178 0 
L 603 0 
L 603 3500 
z
M 603 4863 
L 1178 4863 
L 1178 4134 
L 603 4134 
L 603 4863 
z
" transform="scale(0.015625)"/>
      <path id="DejaVuSans-7a" d="M 353 3500 
L 3084 3500 
L 3084 2975 
L 922 459 
L 3084 459 
L 3084 0 
L 275 0 
L 275 525 
L 2438 3041 
L 353 3041 
L 353 3500 
z
" transform="scale(0.015625)"/>
      <path id="DejaVuSans-3d" d="M 678 2906 
L 4684 2906 
L 4684 2381 
L 678 2381 
L 678 2906 
z
M 678 1631 
L 4684 1631 
L 4684 1100 
L 678 1100 
L 678 1631 
z
" transform="scale(0.015625)"/>
      <path id="DejaVuSans-4d" d="M 628 4666 
L 1569 4666 
L 2759 1491 
L 3956 4666 
L 4897 4666 
L 4897 0 
L 4281 0 
L 4281 4097 
L 3078 897 
L 2444 897 
L 1241 4097 
L 1241 0 
L 628 0 
L 628 4666 
z
" transform="scale(0.015625)"/>
      <path id="DejaVuSans-2c" d="M 750 794 
L 1409 794 
L 1409 256 
L 897 -744 
L 494 -744 
L 750 256 
L 750 794 
z
" transform="scale(0.015625)"/>
      <path id="DejaVuSans-52" d="M 2841 2188 
Q 3044 2119 3236 1894 
Q 3428 1669 3622 1275 
L 4263 0 
L 3584 0 
L 2988 1197 
Q 2756 1666 2539 1819 
Q 2322 1972 1947 1972 
L 1259 1972 
L 1259 0 
L 628 0 
L 628 4666 
L 2053 4666 
Q 2853 4666 3247 4331 
Q 3641 3997 3641 3322 
Q 3641 2881 3436 2590 
Q 3231 2300 2841 2188 
z
M 1259 4147 
L 1259 2491 
L 2053 2491 
Q 2509 2491 2742 2702 
Q 2975 2913 2975 3322 
Q 2975 3731 2742 3939 
Q 2509 4147 2053 4147 
L 1259 4147 
z
" transform="scale(0.015625)"/>
      <path id="DejaVuSans-61" d="M 2194 1759 
Q 1497 1759 1228 1600 
Q 959 1441 959 1056 
Q 959 750 1161 570 
Q 1363 391 1709 391 
Q 2188 391 2477 730 
Q 2766 1069 2766 1631 
L 2766 1759 
L 2194 1759 
z
M 3341 1997 
L 3341 0 
L 2766 0 
L 2766 531 
Q 2569 213 2275 61 
Q 1981 -91 1556 -91 
Q 1019 -91 701 211 
Q 384 513 384 1019 
Q 384 1609 779 1909 
Q 1175 2209 1959 2209 
L 2766 2209 
L 2766 2266 
Q 2766 2663 2505 2880 
Q 2244 3097 1772 3097 
Q 1472 3097 1187 3025 
Q 903 2953 641 2809 
L 641 3341 
Q 956 3463 1253 3523 
Q 1550 3584 1831 3584 
Q 2591 3584 2966 3190 
Q 3341 2797 3341 1997 
z
" transform="scale(0.015625)"/>
      <path id="DejaVuSans-64" d="M 2906 2969 
L 2906 4863 
L 3481 4863 
L 3481 0 
L 2906 0 
L 2906 525 
Q 2725 213 2448 61 
Q 2172 -91 1784 -91 
Q 1150 -91 751 415 
Q 353 922 353 1747 
Q 353 2572 751 3078 
Q 1150 3584 1784 3584 
Q 2172 3584 2448 3432 
Q 2725 3281 2906 2969 
z
M 947 1747 
Q 947 1113 1208 752 
Q 1469 391 1925 391 
Q 2381 391 2643 752 
Q 2906 1113 2906 1747 
Q 2906 2381 2643 2742 
Q 2381 3103 1925 3103 
Q 1469 3103 1208 2742 
Q 947 2381 947 1747 
z
" transform="scale(0.015625)"/>
      <path id="DejaVuSans-2d" d="M 313 2009 
L 1997 2009 
L 1997 1497 
L 313 1497 
L 313 2009 
z
" transform="scale(0.015625)"/>
      <path id="DejaVuSans-57" d="M 213 4666 
L 850 4666 
L 1831 722 
L 2809 4666 
L 3519 4666 
L 4500 722 
L 5478 4666 
L 6119 4666 
L 4947 0 
L 4153 0 
L 3169 4050 
L 2175 0 
L 1381 0 
L 213 4666 
z
" transform="scale(0.015625)"/>
      <path id="DejaVuSans-74" d="M 1172 4494 
L 1172 3500 
L 2356 3500 
L 2356 3053 
L 1172 3053 
L 1172 1153 
Q 1172 725 1289 603 
Q 1406 481 1766 481 
L 2356 481 
L 2356 0 
L 1766 0 
Q 1100 0 847 248 
Q 594 497 594 1153 
L 594 3053 
L 172 3053 
L 172 3500 
L 594 3500 
L 594 4494 
L 1172 4494 
z
" transform="scale(0.015625)"/>
      <path id="DejaVuSans-54" d="M -19 4666 
L 3928 4666 
L 3928 4134 
L 2272 4134 
L 2272 0 
L 1638 0 
L 1638 4134 
L -19 4134 
L -19 4666 
z
" transform="scale(0.015625)"/>
      <path id="DejaVuSans-79" d="M 2059 -325 
Q 1816 -950 1584 -1140 
Q 1353 -1331 966 -1331 
L 506 -1331 
L 506 -850 
L 844 -850 
Q 1081 -850 1212 -737 
Q 1344 -625 1503 -206 
L 1606 56 
L 191 3500 
L 800 3500 
L 1894 763 
L 2988 3500 
L 3597 3500 
L 2059 -325 
z
" transform="scale(0.015625)"/>
      <path id="DejaVuSans-70" d="M 1159 525 
L 1159 -1331 
L 581 -1331 
L 581 3500 
L 1159 3500 
L 1159 2969 
Q 1341 3281 1617 3432 
Q 1894 3584 2278 3584 
Q 2916 3584 3314 3078 
Q 3713 2572 3713 1747 
Q 3713 922 3314 415 
Q 2916 -91 2278 -91 
Q 1894 -91 1617 61 
Q 1341 213 1159 525 
z
M 3116 1747 
Q 3116 2381 2855 2742 
Q 2594 3103 2138 3103 
Q 1681 3103 1420 2742 
Q 1159 2381 1159 1747 
Q 1159 1113 1420 752 
Q 1681 391 2138 391 
Q 2594 391 2855 752 
Q 3116 1113 3116 1747 
z
" transform="scale(0.015625)"/>
      <path id="DejaVuSans-6e" d="M 3513 2113 
L 3513 0 
L 2938 0 
L 2938 2094 
Q 2938 2591 2744 2837 
Q 2550 3084 2163 3084 
Q 1697 3084 1428 2787 
Q 1159 2491 1159 1978 
L 1159 0 
L 581 0 
L 581 3500 
L 1159 3500 
L 1159 2956 
Q 1366 3272 1645 3428 
Q 1925 3584 2291 3584 
Q 2894 3584 3203 3211 
Q 3513 2838 3513 2113 
z
" transform="scale(0.015625)"/>
     </defs>
     <use xlink:href="#DejaVuSans-42"/>
     <use xlink:href="#DejaVuSans-6c" transform="translate(68.603516 0)"/>
     <use xlink:href="#DejaVuSans-6f" transform="translate(96.386719 0)"/>
     <use xlink:href="#DejaVuSans-63" transform="translate(157.568359 0)"/>
     <use xlink:href="#DejaVuSans-6b" transform="translate(212.548828 0)"/>
     <use xlink:href="#DejaVuSans-20" transform="translate(270.458984 0)"/>
     <use xlink:href="#DejaVuSans-53" transform="translate(302.246094 0)"/>
     <use xlink:href="#DejaVuSans-69" transform="translate(365.722656 0)"/>
     <use xlink:href="#DejaVuSans-7a" transform="translate(393.505859 0)"/>
     <use xlink:href="#DejaVuSans-65" transform="translate(445.996094 0)"/>
     <use xlink:href="#DejaVuSans-20" transform="translate(507.519531 0)"/>
     <use xlink:href="#DejaVuSans-3d" transform="translate(539.306641 0)"/>
     <use xlink:href="#DejaVuSans-20" transform="translate(623.095703 0)"/>
     <use xlink:href="#DejaVuSans-34" transform="translate(654.882812 0)"/>
     <use xlink:href="#DejaVuSans-4d" transform="translate(718.505859 0)"/>
     <use xlink:href="#DejaVuSans-2c" transform="translate(804.785156 0)"/>
     <use xlink:href="#DejaVuSans-20" transform="translate(836.572266 0)"/>
     <use xlink:href="#DejaVuSans-52" transform="translate(868.359375 0)"/>
     <use xlink:href="#DejaVuSans-65" transform="translate(933.341797 0)"/>
     <use xlink:href="#DejaVuSans-61" transform="translate(994.865234 0)"/>
     <use xlink:href="#DejaVuSans-64" transform="translate(1056.144531 0)"/>
     <use xlink:href="#DejaVuSans-2d" transform="translate(1119.621094 0)"/>
     <use xlink:href="#DejaVuSans-57" transform="translate(1151.705078 0)"/>
     <use xlink:href="#DejaVuSans-72" transform="translate(1246.082031 0)"/>
     <use xlink:href="#DejaVuSans-69" transform="translate(1287.195312 0)"/>
     <use xlink:href="#DejaVuSans-74" transform="translate(1314.978516 0)"/>
     <use xlink:href="#DejaVuSans-65" transform="translate(1354.1875 0)"/>
     <use xlink:href="#DejaVuSans-20" transform="translate(1415.710938 0)"/>
     <use xlink:href="#DejaVuSans-54" transform="translate(1447.498047 0)"/>
     <use xlink:href="#DejaVuSans-79" transform="translate(1492.957031 0)"/>
     <use xlink:href="#DejaVuSans-70" transform="translate(1552.136719 0)"/>
     <use xlink:href="#DejaVuSans-65" transform="translate(1615.613281 0)"/>
     <use xlink:href="#DejaVuSans-20" transform="translate(1677.136719 0)"/>
     <use xlink:href="#DejaVuSans-3d" transform="translate(1708.923828 0)"/>
     <use xlink:href="#DejaVuSans-20" transform="translate(1792.712891 0)"/>
     <use xlink:href="#DejaVuSans-52" transform="translate(1824.5 0)"/>
     <use xlink:href="#DejaVuSans-61" transform="translate(1891.732422 0)"/>
     <use xlink:href="#DejaVuSans-6e" transform="translate(1953.011719 0)"/>
     <use xlink:href="#DejaVuSans-64" transform="translate(2016.390625 0)"/>
     <use xlink:href="#DejaVuSans-6f" transform="translate(2079.867188 0)"/>
     <use xlink:href="#DejaVuSans-6d" transform="translate(2141.048828 0)"/>
     <use xlink:href="#DejaVuSans-20" transform="translate(2238.460938 0)"/>
     <use xlink:href="#DejaVuSans-57" transform="translate(2270.248047 0)"/>
     <use xlink:href="#DejaVuSans-72" transform="translate(2364.625 0)"/>
     <use xlink:href="#DejaVuSans-69" transform="translate(2405.738281 0)"/>
     <use xlink:href="#DejaVuSans-74" transform="translate(2433.521484 0)"/>
     <use xlink:href="#DejaVuSans-65" transform="translate(2472.730469 0)"/>
     <use xlink:href="#DejaVuSans-2d" transform="translate(2534.253906 0)"/>
     <use xlink:href="#DejaVuSans-6f" transform="translate(2572.212891 0)"/>
     <use xlink:href="#DejaVuSans-6e" transform="translate(2633.394531 0)"/>
     <use xlink:href="#DejaVuSans-6c" transform="translate(2696.773438 0)"/>
     <use xlink:href="#DejaVuSans-79" transform="translate(2724.556641 0)"/>
    </g>
   </g>
   <g id="text_23">
    <!-- IOPS vs Number of Jobs -->
    <g style="fill: #262626" transform="translate(152.179062 16.318125) scale(0.12 -0.12)">
     <defs>
      <path id="DejaVuSans-Bold-49" d="M 588 4666 
L 1791 4666 
L 1791 0 
L 588 0 
L 588 4666 
z
" transform="scale(0.015625)"/>
      <path id="DejaVuSans-Bold-4f" d="M 2719 3878 
Q 2169 3878 1866 3472 
Q 1563 3066 1563 2328 
Q 1563 1594 1866 1187 
Q 2169 781 2719 781 
Q 3272 781 3575 1187 
Q 3878 1594 3878 2328 
Q 3878 3066 3575 3472 
Q 3272 3878 2719 3878 
z
M 2719 4750 
Q 3844 4750 4481 4106 
Q 5119 3463 5119 2328 
Q 5119 1197 4481 553 
Q 3844 -91 2719 -91 
Q 1597 -91 958 553 
Q 319 1197 319 2328 
Q 319 3463 958 4106 
Q 1597 4750 2719 4750 
z
" transform="scale(0.015625)"/>
      <path id="DejaVuSans-Bold-50" d="M 588 4666 
L 2584 4666 
Q 3475 4666 3951 4270 
Q 4428 3875 4428 3144 
Q 4428 2409 3951 2014 
Q 3475 1619 2584 1619 
L 1791 1619 
L 1791 0 
L 588 0 
L 588 4666 
z
M 1791 3794 
L 1791 2491 
L 2456 2491 
Q 2806 2491 2997 2661 
Q 3188 2831 3188 3144 
Q 3188 3456 2997 3625 
Q 2806 3794 2456 3794 
L 1791 3794 
z
" transform="scale(0.015625)"/>
      <path id="DejaVuSans-Bold-53" d="M 3834 4519 
L 3834 3531 
Q 3450 3703 3084 3790 
Q 2719 3878 2394 3878 
Q 1963 3878 1756 3759 
Q 1550 3641 1550 3391 
Q 1550 3203 1689 3098 
Q 1828 2994 2194 2919 
L 2706 2816 
Q 3484 2659 3812 2340 
Q 4141 2022 4141 1434 
Q 4141 663 3683 286 
Q 3225 -91 2284 -91 
Q 1841 -91 1394 -6 
Q 947 78 500 244 
L 500 1259 
Q 947 1022 1364 901 
Q 1781 781 2169 781 
Q 2563 781 2772 912 
Q 2981 1044 2981 1288 
Q 2981 1506 2839 1625 
Q 2697 1744 2272 1838 
L 1806 1941 
Q 1106 2091 782 2419 
Q 459 2747 459 3303 
Q 459 4000 909 4375 
Q 1359 4750 2203 4750 
Q 2588 4750 2994 4692 
Q 3400 4634 3834 4519 
z
" transform="scale(0.015625)"/>
      <path id="DejaVuSans-Bold-20" transform="scale(0.015625)"/>
      <path id="DejaVuSans-Bold-76" d="M 97 3500 
L 1216 3500 
L 2088 1081 
L 2956 3500 
L 4078 3500 
L 2700 0 
L 1472 0 
L 97 3500 
z
" transform="scale(0.015625)"/>
      <path id="DejaVuSans-Bold-73" d="M 3272 3391 
L 3272 2541 
Q 2913 2691 2578 2766 
Q 2244 2841 1947 2841 
Q 1628 2841 1473 2761 
Q 1319 2681 1319 2516 
Q 1319 2381 1436 2309 
Q 1553 2238 1856 2203 
L 2053 2175 
Q 2913 2066 3209 1816 
Q 3506 1566 3506 1031 
Q 3506 472 3093 190 
Q 2681 -91 1863 -91 
Q 1516 -91 1145 -36 
Q 775 19 384 128 
L 384 978 
Q 719 816 1070 734 
Q 1422 653 1784 653 
Q 2113 653 2278 743 
Q 2444 834 2444 1013 
Q 2444 1163 2330 1236 
Q 2216 1309 1875 1350 
L 1678 1375 
Q 931 1469 631 1722 
Q 331 1975 331 2491 
Q 331 3047 712 3315 
Q 1094 3584 1881 3584 
Q 2191 3584 2531 3537 
Q 2872 3491 3272 3391 
z
" transform="scale(0.015625)"/>
      <path id="DejaVuSans-Bold-4e" d="M 588 4666 
L 1931 4666 
L 3628 1466 
L 3628 4666 
L 4769 4666 
L 4769 0 
L 3425 0 
L 1728 3200 
L 1728 0 
L 588 0 
L 588 4666 
z
" transform="scale(0.015625)"/>
      <path id="DejaVuSans-Bold-75" d="M 500 1363 
L 500 3500 
L 1625 3500 
L 1625 3150 
Q 1625 2866 1622 2436 
Q 1619 2006 1619 1863 
Q 1619 1441 1641 1255 
Q 1663 1069 1716 984 
Q 1784 875 1895 815 
Q 2006 756 2150 756 
Q 2500 756 2700 1025 
Q 2900 1294 2900 1772 
L 2900 3500 
L 4019 3500 
L 4019 0 
L 2900 0 
L 2900 506 
Q 2647 200 2364 54 
Q 2081 -91 1741 -91 
Q 1134 -91 817 281 
Q 500 653 500 1363 
z
" transform="scale(0.015625)"/>
      <path id="DejaVuSans-Bold-6d" d="M 3781 2919 
Q 3994 3244 4286 3414 
Q 4578 3584 4928 3584 
Q 5531 3584 5847 3212 
Q 6163 2841 6163 2131 
L 6163 0 
L 5038 0 
L 5038 1825 
Q 5041 1866 5042 1909 
Q 5044 1953 5044 2034 
Q 5044 2406 4934 2573 
Q 4825 2741 4581 2741 
Q 4263 2741 4089 2478 
Q 3916 2216 3909 1719 
L 3909 0 
L 2784 0 
L 2784 1825 
Q 2784 2406 2684 2573 
Q 2584 2741 2328 2741 
Q 2006 2741 1831 2477 
Q 1656 2213 1656 1722 
L 1656 0 
L 531 0 
L 531 3500 
L 1656 3500 
L 1656 2988 
Q 1863 3284 2130 3434 
Q 2397 3584 2719 3584 
Q 3081 3584 3359 3409 
Q 3638 3234 3781 2919 
z
" transform="scale(0.015625)"/>
      <path id="DejaVuSans-Bold-62" d="M 2400 722 
Q 2759 722 2948 984 
Q 3138 1247 3138 1747 
Q 3138 2247 2948 2509 
Q 2759 2772 2400 2772 
Q 2041 2772 1848 2508 
Q 1656 2244 1656 1747 
Q 1656 1250 1848 986 
Q 2041 722 2400 722 
z
M 1656 2988 
Q 1888 3294 2169 3439 
Q 2450 3584 2816 3584 
Q 3463 3584 3878 3070 
Q 4294 2556 4294 1747 
Q 4294 938 3878 423 
Q 3463 -91 2816 -91 
Q 2450 -91 2169 54 
Q 1888 200 1656 506 
L 1656 0 
L 538 0 
L 538 4863 
L 1656 4863 
L 1656 2988 
z
" transform="scale(0.015625)"/>
      <path id="DejaVuSans-Bold-65" d="M 4031 1759 
L 4031 1441 
L 1416 1441 
Q 1456 1047 1700 850 
Q 1944 653 2381 653 
Q 2734 653 3104 758 
Q 3475 863 3866 1075 
L 3866 213 
Q 3469 63 3072 -14 
Q 2675 -91 2278 -91 
Q 1328 -91 801 392 
Q 275 875 275 1747 
Q 275 2603 792 3093 
Q 1309 3584 2216 3584 
Q 3041 3584 3536 3087 
Q 4031 2591 4031 1759 
z
M 2881 2131 
Q 2881 2450 2695 2645 
Q 2509 2841 2209 2841 
Q 1884 2841 1681 2658 
Q 1478 2475 1428 2131 
L 2881 2131 
z
" transform="scale(0.015625)"/>
      <path id="DejaVuSans-Bold-72" d="M 3138 2547 
Q 2991 2616 2845 2648 
Q 2700 2681 2553 2681 
Q 2122 2681 1889 2404 
Q 1656 2128 1656 1613 
L 1656 0 
L 538 0 
L 538 3500 
L 1656 3500 
L 1656 2925 
Q 1872 3269 2151 3426 
Q 2431 3584 2822 3584 
Q 2878 3584 2943 3579 
Q 3009 3575 3134 3559 
L 3138 2547 
z
" transform="scale(0.015625)"/>
      <path id="DejaVuSans-Bold-6f" d="M 2203 2784 
Q 1831 2784 1636 2517 
Q 1441 2250 1441 1747 
Q 1441 1244 1636 976 
Q 1831 709 2203 709 
Q 2569 709 2762 976 
Q 2956 1244 2956 1747 
Q 2956 2250 2762 2517 
Q 2569 2784 2203 2784 
z
M 2203 3584 
Q 3106 3584 3614 3096 
Q 4122 2609 4122 1747 
Q 4122 884 3614 396 
Q 3106 -91 2203 -91 
Q 1297 -91 786 396 
Q 275 884 275 1747 
Q 275 2609 786 3096 
Q 1297 3584 2203 3584 
z
" transform="scale(0.015625)"/>
      <path id="DejaVuSans-Bold-66" d="M 2841 4863 
L 2841 4128 
L 2222 4128 
Q 1984 4128 1890 4042 
Q 1797 3956 1797 3744 
L 1797 3500 
L 2753 3500 
L 2753 2700 
L 1797 2700 
L 1797 0 
L 678 0 
L 678 2700 
L 122 2700 
L 122 3500 
L 678 3500 
L 678 3744 
Q 678 4316 997 4589 
Q 1316 4863 1984 4863 
L 2841 4863 
z
" transform="scale(0.015625)"/>
      <path id="DejaVuSans-Bold-4a" d="M 588 4666 
L 1791 4666 
L 1791 453 
Q 1791 -419 1317 -850 
Q 844 -1281 -116 -1281 
L -359 -1281 
L -359 -372 
L -172 -372 
Q 203 -372 395 -162 
Q 588 47 588 453 
L 588 4666 
z
" transform="scale(0.015625)"/>
     </defs>
     <use xlink:href="#DejaVuSans-Bold-49"/>
     <use xlink:href="#DejaVuSans-Bold-4f" transform="translate(37.207031 0)"/>
     <use xlink:href="#DejaVuSans-Bold-50" transform="translate(122.216797 0)"/>
     <use xlink:href="#DejaVuSans-Bold-53" transform="translate(195.507812 0)"/>
     <use xlink:href="#DejaVuSans-Bold-20" transform="translate(267.529297 0)"/>
     <use xlink:href="#DejaVuSans-Bold-76" transform="translate(302.34375 0)"/>
     <use xlink:href="#DejaVuSans-Bold-73" transform="translate(367.529297 0)"/>
     <use xlink:href="#DejaVuSans-Bold-20" transform="translate(427.050781 0)"/>
     <use xlink:href="#DejaVuSans-Bold-4e" transform="translate(461.865234 0)"/>
     <use xlink:href="#DejaVuSans-Bold-75" transform="translate(545.556641 0)"/>
     <use xlink:href="#DejaVuSans-Bold-6d" transform="translate(616.748047 0)"/>
     <use xlink:href="#DejaVuSans-Bold-62" transform="translate(720.947266 0)"/>
     <use xlink:href="#DejaVuSans-Bold-65" transform="translate(792.529297 0)"/>
     <use xlink:href="#DejaVuSans-Bold-72" transform="translate(860.351562 0)"/>
     <use xlink:href="#DejaVuSans-Bold-20" transform="translate(909.667969 0)"/>
     <use xlink:href="#DejaVuSans-Bold-6f" transform="translate(944.482422 0)"/>
     <use xlink:href="#DejaVuSans-Bold-66" transform="translate(1013.183594 0)"/>
     <use xlink:href="#DejaVuSans-Bold-20" transform="translate(1056.689453 0)"/>
     <use xlink:href="#DejaVuSans-Bold-4a" transform="translate(1091.503906 0)"/>
     <use xlink:href="#DejaVuSans-Bold-6f" transform="translate(1128.710938 0)"/>
     <use xlink:href="#DejaVuSans-Bold-62" transform="translate(1197.412109 0)"/>
     <use xlink:href="#DejaVuSans-Bold-73" transform="translate(1268.994141 0)"/>
    </g>
   </g>
   <g id="legend_1">
    <g id="text_24">
     <!-- IO Depth -->
     <g style="fill: #262626" transform="translate(444.954687 120.065663) scale(0.1 -0.1)">
      <defs>
       <path id="DejaVuSans-44" d="M 1259 4147 
L 1259 519 
L 2022 519 
Q 2988 519 3436 956 
Q 3884 1394 3884 2338 
Q 3884 3275 3436 3711 
Q 2988 4147 2022 4147 
L 1259 4147 
z
M 628 4666 
L 1925 4666 
Q 3281 4666 3915 4102 
Q 4550 3538 4550 2338 
Q 4550 1131 3912 565 
Q 3275 0 1925 0 
L 628 0 
L 628 4666 
z
" transform="scale(0.015625)"/>
       <path id="DejaVuSans-68" d="M 3513 2113 
L 3513 0 
L 2938 0 
L 2938 2094 
Q 2938 2591 2744 2837 
Q 2550 3084 2163 3084 
Q 1697 3084 1428 2787 
Q 1159 2491 1159 1978 
L 1159 0 
L 581 0 
L 581 4863 
L 1159 4863 
L 1159 2956 
Q 1366 3272 1645 3428 
Q 1925 3584 2291 3584 
Q 2894 3584 3203 3211 
Q 3513 2838 3513 2113 
z
" transform="scale(0.015625)"/>
      </defs>
      <use xlink:href="#DejaVuSans-49"/>
      <use xlink:href="#DejaVuSans-4f" transform="translate(29.492188 0)"/>
      <use xlink:href="#DejaVuSans-20" transform="translate(108.203125 0)"/>
      <use xlink:href="#DejaVuSans-44" transform="translate(139.990234 0)"/>
      <use xlink:href="#DejaVuSans-65" transform="translate(216.992188 0)"/>
      <use xlink:href="#DejaVuSans-70" transform="translate(278.515625 0)"/>
      <use xlink:href="#DejaVuSans-74" transform="translate(341.992188 0)"/>
      <use xlink:href="#DejaVuSans-68" transform="translate(381.201172 0)"/>
     </g>
    </g>
    <g id="line2d_27">
     <path d="M 443.640625 131.243787 
L 453.640625 131.243787 
L 463.640625 131.243787 
" style="fill: none; stroke: #4c02a1; stroke-width: 1.5; stroke-linecap: round"/>
    </g>
    <g id="text_25">
     <!-- 1 -->
     <g style="fill: #262626" transform="translate(471.640625 134.743787) scale(0.1 -0.1)">
      <use xlink:href="#DejaVuSans-31"/>
     </g>
    </g>
    <g id="line2d_28">
     <path d="M 443.640625 145.921913 
L 453.640625 145.921913 
L 463.640625 145.921913 
" style="fill: none; stroke: #7e03a8; stroke-width: 1.5; stroke-linecap: round"/>
    </g>
    <g id="text_26">
     <!-- 4 -->
     <g style="fill: #262626" transform="translate(471.640625 149.421913) scale(0.1 -0.1)">
      <use xlink:href="#DejaVuSans-34"/>
     </g>
    </g>
    <g id="line2d_29">
     <path d="M 443.640625 160.600037 
L 453.640625 160.600037 
L 463.640625 160.600037 
" style="fill: none; stroke: #aa2395; stroke-width: 1.5; stroke-linecap: round"/>
    </g>
    <g id="text_27">
     <!-- 8 -->
     <g style="fill: #262626" transform="translate(471.640625 164.100037) scale(0.1 -0.1)">
      <use xlink:href="#DejaVuSans-38"/>
     </g>
    </g>
    <g id="line2d_30">
     <path d="M 443.640625 175.278163 
L 453.640625 175.278163 
L 463.640625 175.278163 
" style="fill: none; stroke: #cc4778; stroke-width: 1.5; stroke-linecap: round"/>
    </g>
    <g id="text_28">
     <!-- 16 -->
     <g style="fill: #262626" transform="translate(471.640625 178.778163) scale(0.1 -0.1)">
      <use xlink:href="#DejaVuSans-31"/>
      <use xlink:href="#DejaVuSans-36" transform="translate(63.623047 0)"/>
     </g>
    </g>
    <g id="line2d_31">
     <path d="M 443.640625 189.956288 
L 453.640625 189.956288 
L 463.640625 189.956288 
" style="fill: none; stroke: #e66c5c; stroke-width: 1.5; stroke-linecap: round"/>
    </g>
    <g id="text_29">
     <!-- 32 -->
     <g style="fill: #262626" transform="translate(471.640625 193.456288) scale(0.1 -0.1)">
      <use xlink:href="#DejaVuSans-33"/>
      <use xlink:href="#DejaVuSans-32" transform="translate(63.623047 0)"/>
     </g>
    </g>
    <g id="line2d_32">
     <path d="M 443.640625 204.634412 
L 453.640625 204.634412 
L 463.640625 204.634412 
" style="fill: none; stroke: #f89540; stroke-width: 1.5; stroke-linecap: round"/>
    </g>
    <g id="text_30">
     <!-- 64 -->
     <g style="fill: #262626" transform="translate(471.640625 208.134412) scale(0.1 -0.1)">
      <use xlink:href="#DejaVuSans-36"/>
      <use xlink:href="#DejaVuSans-34" transform="translate(63.623047 0)"/>
     </g>
    </g>
    <g id="line2d_33">
     <path d="M 443.640625 219.312537 
L 453.640625 219.312537 
L 463.640625 219.312537 
" style="fill: none; stroke: #fdc527; stroke-width: 1.5; stroke-linecap: round"/>
    </g>
    <g id="text_31">
     <!-- 128 -->
     <g style="fill: #262626" transform="translate(471.640625 222.812537) scale(0.1 -0.1)">
      <use xlink:href="#DejaVuSans-31"/>
      <use xlink:href="#DejaVuSans-32" transform="translate(63.623047 0)"/>
      <use xlink:href="#DejaVuSans-38" transform="translate(127.246094 0)"/>
     </g>
    </g>
   </g>
  </g>
 </g>
 <defs>
  <clipPath id="p2a03e39a53">
   <rect x="53.328125" y="35.623725" width="357.12" height="266.112"/>
  </clipPath>
 </defs>
</svg>
