<?xml version="1.0" encoding="utf-8" standalone="no"?>
<!DOCTYPE svg PUBLIC "-//W3C//DTD SVG 1.1//EN"
  "http://www.w3.org/Graphics/SVG/1.1/DTD/svg11.dtd">
<svg xmlns:xlink="http://www.w3.org/1999/xlink" width="501.928125pt" height="339.291975pt" viewBox="0 0 501.928125 339.291975" xmlns="http://www.w3.org/2000/svg" version="1.1">
 <metadata>
  <rdf:RDF xmlns:dc="http://purl.org/dc/elements/1.1/" xmlns:cc="http://creativecommons.org/ns#" xmlns:rdf="http://www.w3.org/1999/02/22-rdf-syntax-ns#">
   <cc:Work>
    <dc:type rdf:resource="http://purl.org/dc/dcmitype/StillImage"/>
    <dc:date>2025-09-11T11:34:20.466269</dc:date>
    <dc:format>image/svg+xml</dc:format>
    <dc:creator>
     <cc:Agent>
      <dc:title>Matplotlib v3.10.6, https://matplotlib.org/</dc:title>
     </cc:Agent>
    </dc:creator>
   </cc:Work>
  </rdf:RDF>
 </metadata>
 <defs>
  <style type="text/css">*{stroke-linejoin: round; stroke-linecap: butt}</style>
 </defs>
 <g id="figure_1">
  <g id="patch_1">
   <path d="M 0 339.291975 
L 501.928125 339.291975 
L 501.928125 0 
L 0 0 
z
" style="fill: #ffffff"/>
  </g>
  <g id="axes_1">
   <g id="patch_2">
    <path d="M 53.328125 301.735725 
L 410.448125 301.735725 
L 410.448125 35.623725 
L 53.328125 35.623725 
z
" style="fill: #ffffff"/>
   </g>
   <g id="matplotlib.axis_1">
    <g id="xtick_1">
     <g id="line2d_1">
      <path d="M 115.940073 301.735725 
L 115.940073 35.623725 
" clip-path="url(#p7a19588d10)" style="fill: none; stroke: #cccccc; stroke-width: 0.8; stroke-linecap: round"/>
     </g>
     <g id="text_1">
      <!-- 32 -->
      <g style="fill: #262626" transform="translate(109.577573 316.334162) scale(0.1 -0.1)">
       <defs>
        <path id="DejaVuSans-33" d="M 2597 2516 
Q 3050 2419 3304 2112 
Q 3559 1806 3559 1356 
Q 3559 666 3084 287 
Q 2609 -91 1734 -91 
Q 1441 -91 1130 -33 
Q 819 25 488 141 
L 488 750 
Q 750 597 1062 519 
Q 1375 441 1716 441 
Q 2309 441 2620 675 
Q 2931 909 2931 1356 
Q 2931 1769 2642 2001 
Q 2353 2234 1838 2234 
L 1294 2234 
L 1294 2753 
L 1863 2753 
Q 2328 2753 2575 2939 
Q 2822 3125 2822 3475 
Q 2822 3834 2567 4026 
Q 2313 4219 1838 4219 
Q 1578 4219 1281 4162 
Q 984 4106 628 3988 
L 628 4550 
Q 988 4650 1302 4700 
Q 1616 4750 1894 4750 
Q 2613 4750 3031 4423 
Q 3450 4097 3450 3541 
Q 3450 3153 3228 2886 
Q 3006 2619 2597 2516 
z
" transform="scale(0.015625)"/>
        <path id="DejaVuSans-32" d="M 1228 531 
L 3431 531 
L 3431 0 
L 469 0 
L 469 531 
Q 828 903 1448 1529 
Q 2069 2156 2228 2338 
Q 2531 2678 2651 2914 
Q 2772 3150 2772 3378 
Q 2772 3750 2511 3984 
Q 2250 4219 1831 4219 
Q 1534 4219 1204 4116 
Q 875 4013 500 3803 
L 500 4441 
Q 881 4594 1212 4672 
Q 1544 4750 1819 4750 
Q 2544 4750 2975 4387 
Q 3406 4025 3406 3419 
Q 3406 3131 3298 2873 
Q 3191 2616 2906 2266 
Q 2828 2175 2409 1742 
Q 1991 1309 1228 531 
z
" transform="scale(0.015625)"/>
       </defs>
       <use xlink:href="#DejaVuSans-33"/>
       <use xlink:href="#DejaVuSans-32" transform="translate(63.623047 0)"/>
      </g>
     </g>
    </g>
    <g id="xtick_2">
     <g id="line2d_2">
      <path d="M 394.215398 301.735725 
L 394.215398 35.623725 
" clip-path="url(#p7a19588d10)" style="fill: none; stroke: #cccccc; stroke-width: 0.8; stroke-linecap: round"/>
     </g>
     <g id="text_2">
      <!-- 128 -->
      <g style="fill: #262626" transform="translate(384.671648 316.334162) scale(0.1 -0.1)">
       <defs>
        <path id="DejaVuSans-31" d="M 794 531 
L 1825 531 
L 1825 4091 
L 703 3866 
L 703 4441 
L 1819 4666 
L 2450 4666 
L 2450 531 
L 3481 531 
L 3481 0 
L 794 0 
L 794 531 
z
" transform="scale(0.015625)"/>
        <path id="DejaVuSans-38" d="M 2034 2216 
Q 1584 2216 1326 1975 
Q 1069 1734 1069 1313 
Q 1069 891 1326 650 
Q 1584 409 2034 409 
Q 2484 409 2743 651 
Q 3003 894 3003 1313 
Q 3003 1734 2745 1975 
Q 2488 2216 2034 2216 
z
M 1403 2484 
Q 997 2584 770 2862 
Q 544 3141 544 3541 
Q 544 4100 942 4425 
Q 1341 4750 2034 4750 
Q 2731 4750 3128 4425 
Q 3525 4100 3525 3541 
Q 3525 3141 3298 2862 
Q 3072 2584 2669 2484 
Q 3125 2378 3379 2068 
Q 3634 1759 3634 1313 
Q 3634 634 3220 271 
Q 2806 -91 2034 -91 
Q 1263 -91 848 271 
Q 434 634 434 1313 
Q 434 1759 690 2068 
Q 947 2378 1403 2484 
z
M 1172 3481 
Q 1172 3119 1398 2916 
Q 1625 2713 2034 2713 
Q 2441 2713 2670 2916 
Q 2900 3119 2900 3481 
Q 2900 3844 2670 4047 
Q 2441 4250 2034 4250 
Q 1625 4250 1398 4047 
Q 1172 3844 1172 3481 
z
" transform="scale(0.015625)"/>
       </defs>
       <use xlink:href="#DejaVuSans-31"/>
       <use xlink:href="#DejaVuSans-32" transform="translate(63.623047 0)"/>
       <use xlink:href="#DejaVuSans-38" transform="translate(127.246094 0)"/>
      </g>
     </g>
    </g>
    <g id="xtick_3">
     <g id="line2d_3">
      <path d="M 69.560852 301.735725 
L 69.560852 35.623725 
" clip-path="url(#p7a19588d10)" style="fill: none; stroke: #cccccc; stroke-width: 0.8; stroke-linecap: round"/>
     </g>
     <g id="text_3">
      <!-- 16 -->
      <g style="fill: #262626" transform="translate(63.198352 316.334162) scale(0.1 -0.1)">
       <defs>
        <path id="DejaVuSans-36" d="M 2113 2584 
Q 1688 2584 1439 2293 
Q 1191 2003 1191 1497 
Q 1191 994 1439 701 
Q 1688 409 2113 409 
Q 2538 409 2786 701 
Q 3034 994 3034 1497 
Q 3034 2003 2786 2293 
Q 2538 2584 2113 2584 
z
M 3366 4563 
L 3366 3988 
Q 3128 4100 2886 4159 
Q 2644 4219 2406 4219 
Q 1781 4219 1451 3797 
Q 1122 3375 1075 2522 
Q 1259 2794 1537 2939 
Q 1816 3084 2150 3084 
Q 2853 3084 3261 2657 
Q 3669 2231 3669 1497 
Q 3669 778 3244 343 
Q 2819 -91 2113 -91 
Q 1303 -91 875 529 
Q 447 1150 447 2328 
Q 447 3434 972 4092 
Q 1497 4750 2381 4750 
Q 2619 4750 2861 4703 
Q 3103 4656 3366 4563 
z
" transform="scale(0.015625)"/>
       </defs>
       <use xlink:href="#DejaVuSans-31"/>
       <use xlink:href="#DejaVuSans-36" transform="translate(63.623047 0)"/>
      </g>
     </g>
    </g>
    <g id="xtick_4">
     <g id="line2d_4">
      <path d="M 208.698515 301.735725 
L 208.698515 35.623725 
" clip-path="url(#p7a19588d10)" style="fill: none; stroke: #cccccc; stroke-width: 0.8; stroke-linecap: round"/>
     </g>
     <g id="text_4">
      <!-- 64 -->
      <g style="fill: #262626" transform="translate(202.336015 316.334162) scale(0.1 -0.1)">
       <defs>
        <path id="DejaVuSans-34" d="M 2419 4116 
L 825 1625 
L 2419 1625 
L 2419 4116 
z
M 2253 4666 
L 3047 4666 
L 3047 1625 
L 3713 1625 
L 3713 1100 
L 3047 1100 
L 3047 0 
L 2419 0 
L 2419 1100 
L 313 1100 
L 313 1709 
L 2253 4666 
z
" transform="scale(0.015625)"/>
       </defs>
       <use xlink:href="#DejaVuSans-36"/>
       <use xlink:href="#DejaVuSans-34" transform="translate(63.623047 0)"/>
      </g>
     </g>
    </g>
    <g id="text_5">
     <!-- Number of Jobs -->
     <g style="fill: #262626" transform="translate(193.49125 330.012287) scale(0.1 -0.1)">
      <defs>
       <path id="DejaVuSans-4e" d="M 628 4666 
L 1478 4666 
L 3547 763 
L 3547 4666 
L 4159 4666 
L 4159 0 
L 3309 0 
L 1241 3903 
L 1241 0 
L 628 0 
L 628 4666 
z
" transform="scale(0.015625)"/>
       <path id="DejaVuSans-75" d="M 544 1381 
L 544 3500 
L 1119 3500 
L 1119 1403 
Q 1119 906 1312 657 
Q 1506 409 1894 409 
Q 2359 409 2629 706 
Q 2900 1003 2900 1516 
L 2900 3500 
L 3475 3500 
L 3475 0 
L 2900 0 
L 2900 538 
Q 2691 219 2414 64 
Q 2138 -91 1772 -91 
Q 1169 -91 856 284 
Q 544 659 544 1381 
z
M 1991 3584 
L 1991 3584 
z
" transform="scale(0.015625)"/>
       <path id="DejaVuSans-6d" d="M 3328 2828 
Q 3544 3216 3844 3400 
Q 4144 3584 4550 3584 
Q 5097 3584 5394 3201 
Q 5691 2819 5691 2113 
L 5691 0 
L 5113 0 
L 5113 2094 
Q 5113 2597 4934 2840 
Q 4756 3084 4391 3084 
Q 3944 3084 3684 2787 
Q 3425 2491 3425 1978 
L 3425 0 
L 2847 0 
L 2847 2094 
Q 2847 2600 2669 2842 
Q 2491 3084 2119 3084 
Q 1678 3084 1418 2786 
Q 1159 2488 1159 1978 
L 1159 0 
L 581 0 
L 581 3500 
L 1159 3500 
L 1159 2956 
Q 1356 3278 1631 3431 
Q 1906 3584 2284 3584 
Q 2666 3584 2933 3390 
Q 3200 3197 3328 2828 
z
" transform="scale(0.015625)"/>
       <path id="DejaVuSans-62" d="M 3116 1747 
Q 3116 2381 2855 2742 
Q 2594 3103 2138 3103 
Q 1681 3103 1420 2742 
Q 1159 2381 1159 1747 
Q 1159 1113 1420 752 
Q 1681 391 2138 391 
Q 2594 391 2855 752 
Q 3116 1113 3116 1747 
z
M 1159 2969 
Q 1341 3281 1617 3432 
Q 1894 3584 2278 3584 
Q 2916 3584 3314 3078 
Q 3713 2572 3713 1747 
Q 3713 922 3314 415 
Q 2916 -91 2278 -91 
Q 1894 -91 1617 61 
Q 1341 213 1159 525 
L 1159 0 
L 581 0 
L 581 4863 
L 1159 4863 
L 1159 2969 
z
" transform="scale(0.015625)"/>
       <path id="DejaVuSans-65" d="M 3597 1894 
L 3597 1613 
L 953 1613 
Q 991 1019 1311 708 
Q 1631 397 2203 397 
Q 2534 397 2845 478 
Q 3156 559 3463 722 
L 3463 178 
Q 3153 47 2828 -22 
Q 2503 -91 2169 -91 
Q 1331 -91 842 396 
Q 353 884 353 1716 
Q 353 2575 817 3079 
Q 1281 3584 2069 3584 
Q 2775 3584 3186 3129 
Q 3597 2675 3597 1894 
z
M 3022 2063 
Q 3016 2534 2758 2815 
Q 2500 3097 2075 3097 
Q 1594 3097 1305 2825 
Q 1016 2553 972 2059 
L 3022 2063 
z
" transform="scale(0.015625)"/>
       <path id="DejaVuSans-72" d="M 2631 2963 
Q 2534 3019 2420 3045 
Q 2306 3072 2169 3072 
Q 1681 3072 1420 2755 
Q 1159 2438 1159 1844 
L 1159 0 
L 581 0 
L 581 3500 
L 1159 3500 
L 1159 2956 
Q 1341 3275 1631 3429 
Q 1922 3584 2338 3584 
Q 2397 3584 2469 3576 
Q 2541 3569 2628 3553 
L 2631 2963 
z
" transform="scale(0.015625)"/>
       <path id="DejaVuSans-20" transform="scale(0.015625)"/>
       <path id="DejaVuSans-6f" d="M 1959 3097 
Q 1497 3097 1228 2736 
Q 959 2375 959 1747 
Q 959 1119 1226 758 
Q 1494 397 1959 397 
Q 2419 397 2687 759 
Q 2956 1122 2956 1747 
Q 2956 2369 2687 2733 
Q 2419 3097 1959 3097 
z
M 1959 3584 
Q 2709 3584 3137 3096 
Q 3566 2609 3566 1747 
Q 3566 888 3137 398 
Q 2709 -91 1959 -91 
Q 1206 -91 779 398 
Q 353 888 353 1747 
Q 353 2609 779 3096 
Q 1206 3584 1959 3584 
z
" transform="scale(0.015625)"/>
       <path id="DejaVuSans-66" d="M 2375 4863 
L 2375 4384 
L 1825 4384 
Q 1516 4384 1395 4259 
Q 1275 4134 1275 3809 
L 1275 3500 
L 2222 3500 
L 2222 3053 
L 1275 3053 
L 1275 0 
L 697 0 
L 697 3053 
L 147 3053 
L 147 3500 
L 697 3500 
L 697 3744 
Q 697 4328 969 4595 
Q 1241 4863 1831 4863 
L 2375 4863 
z
" transform="scale(0.015625)"/>
       <path id="DejaVuSans-4a" d="M 628 4666 
L 1259 4666 
L 1259 325 
Q 1259 -519 939 -900 
Q 619 -1281 -91 -1281 
L -331 -1281 
L -331 -750 
L -134 -750 
Q 284 -750 456 -515 
Q 628 -281 628 325 
L 628 4666 
z
" transform="scale(0.015625)"/>
       <path id="DejaVuSans-73" d="M 2834 3397 
L 2834 2853 
Q 2591 2978 2328 3040 
Q 2066 3103 1784 3103 
Q 1356 3103 1142 2972 
Q 928 2841 928 2578 
Q 928 2378 1081 2264 
Q 1234 2150 1697 2047 
L 1894 2003 
Q 2506 1872 2764 1633 
Q 3022 1394 3022 966 
Q 3022 478 2636 193 
Q 2250 -91 1575 -91 
Q 1294 -91 989 -36 
Q 684 19 347 128 
L 347 722 
Q 666 556 975 473 
Q 1284 391 1588 391 
Q 1994 391 2212 530 
Q 2431 669 2431 922 
Q 2431 1156 2273 1281 
Q 2116 1406 1581 1522 
L 1381 1569 
Q 847 1681 609 1914 
Q 372 2147 372 2553 
Q 372 3047 722 3315 
Q 1072 3584 1716 3584 
Q 2034 3584 2315 3537 
Q 2597 3491 2834 3397 
z
" transform="scale(0.015625)"/>
      </defs>
      <use xlink:href="#DejaVuSans-4e"/>
      <use xlink:href="#DejaVuSans-75" transform="translate(74.804688 0)"/>
      <use xlink:href="#DejaVuSans-6d" transform="translate(138.183594 0)"/>
      <use xlink:href="#DejaVuSans-62" transform="translate(235.595703 0)"/>
      <use xlink:href="#DejaVuSans-65" transform="translate(299.072266 0)"/>
      <use xlink:href="#DejaVuSans-72" transform="translate(360.595703 0)"/>
      <use xlink:href="#DejaVuSans-20" transform="translate(401.708984 0)"/>
      <use xlink:href="#DejaVuSans-6f" transform="translate(433.496094 0)"/>
      <use xlink:href="#DejaVuSans-66" transform="translate(494.677734 0)"/>
      <use xlink:href="#DejaVuSans-20" transform="translate(529.882812 0)"/>
      <use xlink:href="#DejaVuSans-4a" transform="translate(561.669922 0)"/>
      <use xlink:href="#DejaVuSans-6f" transform="translate(591.162109 0)"/>
      <use xlink:href="#DejaVuSans-62" transform="translate(652.34375 0)"/>
      <use xlink:href="#DejaVuSans-73" transform="translate(715.820312 0)"/>
     </g>
    </g>
   </g>
   <g id="matplotlib.axis_2">
    <g id="ytick_1">
     <g id="line2d_5">
      <path d="M 53.328125 291.188013 
L 410.448125 291.188013 
" clip-path="url(#p7a19588d10)" style="fill: none; stroke: #cccccc; stroke-width: 0.8; stroke-linecap: round"/>
     </g>
     <g id="text_6">
      <!-- 600 -->
      <g style="fill: #262626" transform="translate(27.240625 294.987232) scale(0.1 -0.1)">
       <defs>
        <path id="DejaVuSans-30" d="M 2034 4250 
Q 1547 4250 1301 3770 
Q 1056 3291 1056 2328 
Q 1056 1369 1301 889 
Q 1547 409 2034 409 
Q 2525 409 2770 889 
Q 3016 1369 3016 2328 
Q 3016 3291 2770 3770 
Q 2525 4250 2034 4250 
z
M 2034 4750 
Q 2819 4750 3233 4129 
Q 3647 3509 3647 2328 
Q 3647 1150 3233 529 
Q 2819 -91 2034 -91 
Q 1250 -91 836 529 
Q 422 1150 422 2328 
Q 422 3509 836 4129 
Q 1250 4750 2034 4750 
z
" transform="scale(0.015625)"/>
       </defs>
       <use xlink:href="#DejaVuSans-36"/>
       <use xlink:href="#DejaVuSans-30" transform="translate(63.623047 0)"/>
       <use xlink:href="#DejaVuSans-30" transform="translate(127.246094 0)"/>
      </g>
     </g>
    </g>
    <g id="ytick_2">
     <g id="line2d_6">
      <path d="M 53.328125 252.480813 
L 410.448125 252.480813 
" clip-path="url(#p7a19588d10)" style="fill: none; stroke: #cccccc; stroke-width: 0.8; stroke-linecap: round"/>
     </g>
     <g id="text_7">
      <!-- 700 -->
      <g style="fill: #262626" transform="translate(27.240625 256.280032) scale(0.1 -0.1)">
       <defs>
        <path id="DejaVuSans-37" d="M 525 4666 
L 3525 4666 
L 3525 4397 
L 1831 0 
L 1172 0 
L 2766 4134 
L 525 4134 
L 525 4666 
z
" transform="scale(0.015625)"/>
       </defs>
       <use xlink:href="#DejaVuSans-37"/>
       <use xlink:href="#DejaVuSans-30" transform="translate(63.623047 0)"/>
       <use xlink:href="#DejaVuSans-30" transform="translate(127.246094 0)"/>
      </g>
     </g>
    </g>
    <g id="ytick_3">
     <g id="line2d_7">
      <path d="M 53.328125 213.773613 
L 410.448125 213.773613 
" clip-path="url(#p7a19588d10)" style="fill: none; stroke: #cccccc; stroke-width: 0.8; stroke-linecap: round"/>
     </g>
     <g id="text_8">
      <!-- 800 -->
      <g style="fill: #262626" transform="translate(27.240625 217.572832) scale(0.1 -0.1)">
       <use xlink:href="#DejaVuSans-38"/>
       <use xlink:href="#DejaVuSans-30" transform="translate(63.623047 0)"/>
       <use xlink:href="#DejaVuSans-30" transform="translate(127.246094 0)"/>
      </g>
     </g>
    </g>
    <g id="ytick_4">
     <g id="line2d_8">
      <path d="M 53.328125 175.066413 
L 410.448125 175.066413 
" clip-path="url(#p7a19588d10)" style="fill: none; stroke: #cccccc; stroke-width: 0.8; stroke-linecap: round"/>
     </g>
     <g id="text_9">
      <!-- 900 -->
      <g style="fill: #262626" transform="translate(27.240625 178.865632) scale(0.1 -0.1)">
       <defs>
        <path id="DejaVuSans-39" d="M 703 97 
L 703 672 
Q 941 559 1184 500 
Q 1428 441 1663 441 
Q 2288 441 2617 861 
Q 2947 1281 2994 2138 
Q 2813 1869 2534 1725 
Q 2256 1581 1919 1581 
Q 1219 1581 811 2004 
Q 403 2428 403 3163 
Q 403 3881 828 4315 
Q 1253 4750 1959 4750 
Q 2769 4750 3195 4129 
Q 3622 3509 3622 2328 
Q 3622 1225 3098 567 
Q 2575 -91 1691 -91 
Q 1453 -91 1209 -44 
Q 966 3 703 97 
z
M 1959 2075 
Q 2384 2075 2632 2365 
Q 2881 2656 2881 3163 
Q 2881 3666 2632 3958 
Q 2384 4250 1959 4250 
Q 1534 4250 1286 3958 
Q 1038 3666 1038 3163 
Q 1038 2656 1286 2365 
Q 1534 2075 1959 2075 
z
" transform="scale(0.015625)"/>
       </defs>
       <use xlink:href="#DejaVuSans-39"/>
       <use xlink:href="#DejaVuSans-30" transform="translate(63.623047 0)"/>
       <use xlink:href="#DejaVuSans-30" transform="translate(127.246094 0)"/>
      </g>
     </g>
    </g>
    <g id="ytick_5">
     <g id="line2d_9">
      <path d="M 53.328125 136.359213 
L 410.448125 136.359213 
" clip-path="url(#p7a19588d10)" style="fill: none; stroke: #cccccc; stroke-width: 0.8; stroke-linecap: round"/>
     </g>
     <g id="text_10">
      <!-- 1000 -->
      <g style="fill: #262626" transform="translate(20.878125 140.158432) scale(0.1 -0.1)">
       <use xlink:href="#DejaVuSans-31"/>
       <use xlink:href="#DejaVuSans-30" transform="translate(63.623047 0)"/>
       <use xlink:href="#DejaVuSans-30" transform="translate(127.246094 0)"/>
       <use xlink:href="#DejaVuSans-30" transform="translate(190.869141 0)"/>
      </g>
     </g>
    </g>
    <g id="ytick_6">
     <g id="line2d_10">
      <path d="M 53.328125 97.652013 
L 410.448125 97.652013 
" clip-path="url(#p7a19588d10)" style="fill: none; stroke: #cccccc; stroke-width: 0.8; stroke-linecap: round"/>
     </g>
     <g id="text_11">
      <!-- 1100 -->
      <g style="fill: #262626" transform="translate(20.878125 101.451232) scale(0.1 -0.1)">
       <use xlink:href="#DejaVuSans-31"/>
       <use xlink:href="#DejaVuSans-31" transform="translate(63.623047 0)"/>
       <use xlink:href="#DejaVuSans-30" transform="translate(127.246094 0)"/>
       <use xlink:href="#DejaVuSans-30" transform="translate(190.869141 0)"/>
      </g>
     </g>
    </g>
    <g id="ytick_7">
     <g id="line2d_11">
      <path d="M 53.328125 58.944813 
L 410.448125 58.944813 
" clip-path="url(#p7a19588d10)" style="fill: none; stroke: #cccccc; stroke-width: 0.8; stroke-linecap: round"/>
     </g>
     <g id="text_12">
      <!-- 1200 -->
      <g style="fill: #262626" transform="translate(20.878125 62.744032) scale(0.1 -0.1)">
       <use xlink:href="#DejaVuSans-31"/>
       <use xlink:href="#DejaVuSans-32" transform="translate(63.623047 0)"/>
       <use xlink:href="#DejaVuSans-30" transform="translate(127.246094 0)"/>
       <use xlink:href="#DejaVuSans-30" transform="translate(190.869141 0)"/>
      </g>
     </g>
    </g>
    <g id="text_13">
     <!-- IOPS -->
     <g style="fill: #262626" transform="translate(14.798438 180.279725) rotate(-90) scale(0.1 -0.1)">
      <defs>
       <path id="DejaVuSans-49" d="M 628 4666 
L 1259 4666 
L 1259 0 
L 628 0 
L 628 4666 
z
" transform="scale(0.015625)"/>
       <path id="DejaVuSans-4f" d="M 2522 4238 
Q 1834 4238 1429 3725 
Q 1025 3213 1025 2328 
Q 1025 1447 1429 934 
Q 1834 422 2522 422 
Q 3209 422 3611 934 
Q 4013 1447 4013 2328 
Q 4013 3213 3611 3725 
Q 3209 4238 2522 4238 
z
M 2522 4750 
Q 3503 4750 4090 4092 
Q 4678 3434 4678 2328 
Q 4678 1225 4090 567 
Q 3503 -91 2522 -91 
Q 1538 -91 948 565 
Q 359 1222 359 2328 
Q 359 3434 948 4092 
Q 1538 4750 2522 4750 
z
" transform="scale(0.015625)"/>
       <path id="DejaVuSans-50" d="M 1259 4147 
L 1259 2394 
L 2053 2394 
Q 2494 2394 2734 2622 
Q 2975 2850 2975 3272 
Q 2975 3691 2734 3919 
Q 2494 4147 2053 4147 
L 1259 4147 
z
M 628 4666 
L 2053 4666 
Q 2838 4666 3239 4311 
Q 3641 3956 3641 3272 
Q 3641 2581 3239 2228 
Q 2838 1875 2053 1875 
L 1259 1875 
L 1259 0 
L 628 0 
L 628 4666 
z
" transform="scale(0.015625)"/>
       <path id="DejaVuSans-53" d="M 3425 4513 
L 3425 3897 
Q 3066 4069 2747 4153 
Q 2428 4238 2131 4238 
Q 1616 4238 1336 4038 
Q 1056 3838 1056 3469 
Q 1056 3159 1242 3001 
Q 1428 2844 1947 2747 
L 2328 2669 
Q 3034 2534 3370 2195 
Q 3706 1856 3706 1288 
Q 3706 609 3251 259 
Q 2797 -91 1919 -91 
Q 1588 -91 1214 -16 
Q 841 59 441 206 
L 441 856 
Q 825 641 1194 531 
Q 1563 422 1919 422 
Q 2459 422 2753 634 
Q 3047 847 3047 1241 
Q 3047 1584 2836 1778 
Q 2625 1972 2144 2069 
L 1759 2144 
Q 1053 2284 737 2584 
Q 422 2884 422 3419 
Q 422 4038 858 4394 
Q 1294 4750 2059 4750 
Q 2388 4750 2728 4690 
Q 3069 4631 3425 4513 
z
" transform="scale(0.015625)"/>
      </defs>
      <use xlink:href="#DejaVuSans-49"/>
      <use xlink:href="#DejaVuSans-4f" transform="translate(29.492188 0)"/>
      <use xlink:href="#DejaVuSans-50" transform="translate(108.203125 0)"/>
      <use xlink:href="#DejaVuSans-53" transform="translate(168.505859 0)"/>
     </g>
    </g>
   </g>
   <g id="FillBetweenPolyCollection_1"/>
   <g id="FillBetweenPolyCollection_2"/>
   <g id="FillBetweenPolyCollection_3"/>
   <g id="FillBetweenPolyCollection_4"/>
   <g id="FillBetweenPolyCollection_5"/>
   <g id="FillBetweenPolyCollection_6"/>
   <g id="FillBetweenPolyCollection_7"/>
   <g id="line2d_12">
    <path d="M 69.560852 171.195693 
L 115.940073 149.519661 
L 208.698515 226.159917 
L 394.215398 269.511981 
" clip-path="url(#p7a19588d10)" style="fill: none; stroke: #4c02a1; stroke-width: 1.5; stroke-linecap: round"/>
   </g>
   <g id="line2d_13">
    <path d="M 69.560852 47.719725 
L 115.940073 165.002541 
L 208.698515 215.708973 
L 394.215398 177.388845 
" clip-path="url(#p7a19588d10)" style="fill: none; stroke: #7e03a8; stroke-width: 1.5; stroke-linecap: round"/>
   </g>
   <g id="line2d_14">
    <path d="M 69.560852 136.746285 
L 115.940073 178.937133 
L 208.698515 289.639725 
L 394.215398 257.899821 
" clip-path="url(#p7a19588d10)" style="fill: none; stroke: #aa2395; stroke-width: 1.5; stroke-linecap: round"/>
   </g>
   <g id="line2d_15">
    <path d="M 69.560852 122.424621 
L 115.940073 130.940205 
L 208.698515 217.644333 
L 394.215398 207.967533 
" clip-path="url(#p7a19588d10)" style="fill: none; stroke: #cc4778; stroke-width: 1.5; stroke-linecap: round"/>
   </g>
   <g id="line2d_16">
    <path d="M 69.560852 155.712813 
L 115.940073 178.937133 
L 208.698515 224.611629 
L 394.215398 209.128749 
" clip-path="url(#p7a19588d10)" style="fill: none; stroke: #e66c5c; stroke-width: 1.5; stroke-linecap: round"/>
   </g>
   <g id="line2d_17">
    <path d="M 69.560852 134.423853 
L 115.940073 179.324205 
L 208.698515 250.932525 
L 394.215398 221.515053 
" clip-path="url(#p7a19588d10)" style="fill: none; stroke: #f89540; stroke-width: 1.5; stroke-linecap: round"/>
   </g>
   <g id="line2d_18">
    <path d="M 69.560852 134.423853 
L 115.940073 218.031405 
L 208.698515 269.511981 
L 394.215398 126.295341 
" clip-path="url(#p7a19588d10)" style="fill: none; stroke: #fdc527; stroke-width: 1.5; stroke-linecap: round"/>
   </g>
   <g id="line2d_19"/>
   <g id="line2d_20"/>
   <g id="line2d_21"/>
   <g id="line2d_22"/>
   <g id="line2d_23"/>
   <g id="line2d_24"/>
   <g id="line2d_25"/>
   <g id="text_14">
    <path d="M 110.419074 154.230022 
L 111.878487 153.547943 
L 109.523297 148.508649 
L 108.083923 149.569425 
L 107.70352 148.755494 
L 109.134401 147.698687 
L 110.027601 147.281236 
L 112.763195 153.134461 
L 114.222608 152.452382 
L 114.573902 153.20403 
L 110.770367 154.981669 
L 110.419074 154.230022 
z
" clip-path="url(#p7a19588d10)" style="fill: #4c02a1; stroke: #ffffff; stroke-width: 5"/>
    <path d="M 110.419074 154.230022 
L 111.878487 153.547943 
L 109.523297 148.508649 
L 108.083923 149.569425 
L 107.70352 148.755494 
L 109.134401 147.698687 
L 110.027601 147.281236 
L 112.763195 153.134461 
L 114.222608 152.452382 
L 114.573902 153.20403 
L 110.770367 154.981669 
L 110.419074 154.230022 
z
" clip-path="url(#p7a19588d10)" style="fill: #4c02a1"/>
   </g>
   <g id="text_15">
    <path d="M 153.82248 181.526279 
L 149.770142 183.746841 
L 151.955551 184.941495 
L 153.82248 181.526279 
z
M 154.007099 180.647805 
L 155.09569 181.242884 
L 152.816553 185.412162 
L 153.729654 185.911309 
L 153.336182 186.631096 
L 152.423082 186.131949 
L 151.598665 187.640073 
L 150.737663 187.169406 
L 151.56208 185.661282 
L 148.674707 184.082899 
L 149.131134 183.247946 
L 154.007099 180.647805 
z
" clip-path="url(#p7a19588d10)" style="fill: #7e03a8; stroke: #ffffff; stroke-width: 5"/>
    <path d="M 153.82248 181.526279 
L 149.770142 183.746841 
L 151.955551 184.941495 
L 153.82248 181.526279 
z
M 154.007099 180.647805 
L 155.09569 181.242884 
L 152.816553 185.412162 
L 153.729654 185.911309 
L 153.336182 186.631096 
L 152.423082 186.131949 
L 151.598665 187.640073 
L 150.737663 187.169406 
L 151.56208 185.661282 
L 148.674707 184.082899 
L 149.131134 183.247946 
L 154.007099 180.647805 
z
" clip-path="url(#p7a19588d10)" style="fill: #7e03a8"/>
   </g>
   <g id="text_16">
    <path d="M 192.249059 268.913335 
Q 191.797477 268.374393 191.249936 268.307248 
Q 190.703399 268.2413 190.19919 268.663781 
Q 189.693782 269.087265 189.663053 269.636908 
Q 189.633327 270.187749 190.08491 270.72669 
Q 190.536493 271.265632 191.086234 271.332971 
Q 191.638177 271.400505 192.139992 270.980031 
Q 192.644201 270.557551 192.673927 270.00671 
Q 192.704656 269.457067 192.249059 268.913335 
z
M 191.93681 267.888677 
Q 191.649147 267.30208 191.754294 266.751236 
Q 191.861643 266.200587 192.340702 265.79918 
Q 193.010187 265.238214 193.798823 265.388735 
Q 194.588461 265.540453 195.283899 266.370423 
Q 195.98335 267.205183 195.992511 268.006792 
Q 196.001671 268.808402 195.332186 269.369368 
Q 194.853127 269.770774 194.291185 269.77889 
Q 193.731444 269.787199 193.207262 269.404899 
Q 193.537915 270.057399 193.421538 270.672692 
Q 193.307362 271.288178 192.773211 271.735747 
Q 191.960008 272.417135 191.109806 272.285586 
Q 190.260801 272.153033 189.486086 271.228449 
Q 188.712375 270.305062 188.729464 269.444765 
Q 188.748754 268.584663 189.561956 267.903274 
Q 190.096107 267.455706 190.723081 267.452217 
Q 191.352255 267.448922 191.93681 267.888677 
z
M 192.899052 266.611514 
Q 192.465504 266.974787 192.449176 267.449169 
Q 192.433852 267.924749 192.84429 268.414587 
Q 193.252722 268.90203 193.72565 268.972577 
Q 194.199581 269.044322 194.633129 268.681049 
Q 195.067876 268.316772 195.080189 267.837599 
Q 195.093506 267.359624 194.685075 266.872181 
Q 194.274636 266.382343 193.803715 266.314191 
Q 193.333798 266.247237 192.899052 266.611514 
z
" clip-path="url(#p7a19588d10)" style="fill: #aa2395; stroke: #ffffff; stroke-width: 5"/>
    <path d="M 192.249059 268.913335 
Q 191.797477 268.374393 191.249936 268.307248 
Q 190.703399 268.2413 190.19919 268.663781 
Q 189.693782 269.087265 189.663053 269.636908 
Q 189.633327 270.187749 190.08491 270.72669 
Q 190.536493 271.265632 191.086234 271.332971 
Q 191.638177 271.400505 192.139992 270.980031 
Q 192.644201 270.557551 192.673927 270.00671 
Q 192.704656 269.457067 192.249059 268.913335 
z
M 191.93681 267.888677 
Q 191.649147 267.30208 191.754294 266.751236 
Q 191.861643 266.200587 192.340702 265.79918 
Q 193.010187 265.238214 193.798823 265.388735 
Q 194.588461 265.540453 195.283899 266.370423 
Q 195.98335 267.205183 195.992511 268.006792 
Q 196.001671 268.808402 195.332186 269.369368 
Q 194.853127 269.770774 194.291185 269.77889 
Q 193.731444 269.787199 193.207262 269.404899 
Q 193.537915 270.057399 193.421538 270.672692 
Q 193.307362 271.288178 192.773211 271.735747 
Q 191.960008 272.417135 191.109806 272.285586 
Q 190.260801 272.153033 189.486086 271.228449 
Q 188.712375 270.305062 188.729464 269.444765 
Q 188.748754 268.584663 189.561956 267.903274 
Q 190.096107 267.455706 190.723081 267.452217 
Q 191.352255 267.448922 191.93681 267.888677 
z
M 192.899052 266.611514 
Q 192.465504 266.974787 192.449176 267.449169 
Q 192.433852 267.924749 192.84429 268.414587 
Q 193.252722 268.90203 193.72565 268.972577 
Q 194.199581 269.044322 194.633129 268.681049 
Q 195.067876 268.316772 195.080189 267.837599 
Q 195.093506 267.359624 194.685075 266.872181 
Q 194.274636 266.382343 193.803715 266.314191 
Q 193.333798 266.247237 192.899052 266.611514 
z
" clip-path="url(#p7a19588d10)" style="fill: #aa2395"/>
   </g>
   <g id="text_17">
    <path d="M 226.873722 218.628602 
L 228.482472 218.544687 
L 228.192719 212.989739 
L 226.460287 213.432145 
L 226.413487 212.534927 
L 228.136557 212.09301 
L 229.121156 212.041652 
L 229.457709 218.493817 
L 231.06646 218.409903 
L 231.109678 219.238464 
L 226.916941 219.457163 
L 226.873722 218.628602 
z
M 235.118432 214.986373 
Q 234.455271 215.020965 234.090422 215.495301 
Q 233.727051 215.967996 233.768235 216.757548 
Q 233.809175 217.542418 234.219997 217.979424 
Q 234.632297 218.414788 235.295458 218.380197 
Q 235.958619 218.345606 236.321827 217.86979 
Q 236.684953 217.392414 236.644013 216.607544 
Q 236.602829 215.817992 236.192252 215.385667 
Q 235.781593 214.951782 235.118432 214.986373 
z
M 236.912513 211.796401 
L 236.959313 212.693618 
Q 236.578827 212.538227 236.196413 212.465861 
Q 235.813918 212.391935 235.442548 212.411307 
Q 234.467311 212.462176 233.986734 213.147515 
Q 233.507716 213.832773 233.503805 215.167601 
Q 233.768776 214.728202 234.19076 214.47932 
Q 234.614304 214.230357 235.13547 214.203173 
Q 236.232417 214.145954 236.903805 214.779029 
Q 237.575112 215.410542 237.634854 216.55586 
Q 237.693374 217.677772 237.065618 218.391128 
Q 236.437781 219.102924 235.336154 219.160386 
Q 234.072247 219.226313 233.353942 218.293714 
Q 232.635556 217.359555 232.539677 215.521428 
Q 232.449658 213.79565 233.215302 212.72619 
Q 233.980945 211.65673 235.36032 211.58478 
Q 235.73169 211.565409 236.113127 211.61905 
Q 236.494564 211.672691 236.912513 211.796401 
z
" clip-path="url(#p7a19588d10)" style="fill: #cc4778; stroke: #ffffff; stroke-width: 5"/>
    <path d="M 226.873722 218.628602 
L 228.482472 218.544687 
L 228.192719 212.989739 
L 226.460287 213.432145 
L 226.413487 212.534927 
L 228.136557 212.09301 
L 229.121156 212.041652 
L 229.457709 218.493817 
L 231.06646 218.409903 
L 231.109678 219.238464 
L 226.916941 219.457163 
L 226.873722 218.628602 
z
M 235.118432 214.986373 
Q 234.455271 215.020965 234.090422 215.495301 
Q 233.727051 215.967996 233.768235 216.757548 
Q 233.809175 217.542418 234.219997 217.979424 
Q 234.632297 218.414788 235.295458 218.380197 
Q 235.958619 218.345606 236.321827 217.86979 
Q 236.684953 217.392414 236.644013 216.607544 
Q 236.602829 215.817992 236.192252 215.385667 
Q 235.781593 214.951782 235.118432 214.986373 
z
M 236.912513 211.796401 
L 236.959313 212.693618 
Q 236.578827 212.538227 236.196413 212.465861 
Q 235.813918 212.391935 235.442548 212.411307 
Q 234.467311 212.462176 233.986734 213.147515 
Q 233.507716 213.832773 233.503805 215.167601 
Q 233.768776 214.728202 234.19076 214.47932 
Q 234.614304 214.230357 235.13547 214.203173 
Q 236.232417 214.145954 236.903805 214.779029 
Q 237.575112 215.410542 237.634854 216.55586 
Q 237.693374 217.677772 237.065618 218.391128 
Q 236.437781 219.102924 235.336154 219.160386 
Q 234.072247 219.226313 233.353942 218.293714 
Q 232.635556 217.359555 232.539677 215.521428 
Q 232.449658 213.79565 233.215302 212.72619 
Q 233.980945 211.65673 235.36032 211.58478 
Q 235.73169 211.565409 236.113127 211.61905 
Q 236.494564 211.672691 236.912513 211.796401 
z
" clip-path="url(#p7a19588d10)" style="fill: #cc4778"/>
   </g>
   <g id="text_18">
    <path d="M 269.669959 218.347121 
Q 270.387924 218.439291 270.823319 218.884309 
Q 271.260141 219.327639 271.31862 220.028328 
Q 271.408286 221.102718 270.717922 221.754581 
Q 270.027427 222.404887 268.664976 222.518594 
Q 268.20875 222.55667 267.716959 222.506774 
Q 267.225168 222.456878 266.694697 222.31927 
L 266.615557 221.371004 
Q 267.043396 221.575191 267.539344 221.656099 
Q 268.036848 221.736877 268.567814 221.692563 
Q 269.491167 221.615502 269.945012 221.210729 
Q 270.398858 220.805956 270.340769 220.109938 
Q 270.287099 219.466861 269.806952 219.143173 
Q 269.326676 218.817928 268.524776 218.884853 
L 267.677721 218.955546 
L 267.610276 218.147418 
L 268.496258 218.073476 
Q 269.220304 218.013049 269.580733 217.691332 
Q 269.941163 217.369616 269.89568 216.824636 
Q 269.849027 216.265642 269.427019 215.999819 
Q 269.006439 215.732309 268.266823 215.794036 
Q 267.86198 215.827823 267.406932 215.955173 
Q 266.951755 216.080965 266.412766 216.310964 
L 266.339734 215.435881 
Q 266.88729 215.23339 267.369717 215.114731 
Q 267.852145 214.996072 268.285015 214.959945 
Q 269.40456 214.86651 270.097917 215.321358 
Q 270.7927 215.774519 270.864953 216.640259 
Q 270.915374 217.244408 270.604398 217.689 
Q 270.293422 218.133591 269.669959 218.347121 
z
M 274.136523 221.086696 
L 277.566785 220.800413 
L 277.635789 221.627226 
L 273.023698 222.012142 
L 272.954694 221.185329 
Q 273.465346 220.55944 274.34939 219.504134 
Q 275.234862 218.447141 275.458787 218.143089 
Q 275.886401 217.574304 276.042583 217.191237 
Q 276.200322 216.808041 276.170693 216.453025 
Q 276.122351 215.873789 275.685543 215.543348 
Q 275.248604 215.21135 274.596185 215.265799 
Q 274.13373 215.304395 273.633277 215.507659 
Q 273.13438 215.710793 272.577763 216.086513 
L 272.494854 215.093092 
Q 273.068221 214.805346 273.573481 214.640879 
Q 274.080297 214.476282 274.508496 214.440546 
Q 275.637384 214.346331 276.35566 214.855544 
Q 277.073807 215.363201 277.152558 216.306795 
Q 277.189984 216.755236 277.055346 217.170999 
Q 276.922135 217.585075 276.523848 218.167092 
Q 276.414221 218.318923 275.818071 219.047591 
Q 275.223478 219.776129 274.136523 221.086696 
z
" clip-path="url(#p7a19588d10)" style="fill: #e66c5c; stroke: #ffffff; stroke-width: 5"/>
    <path d="M 269.669959 218.347121 
Q 270.387924 218.439291 270.823319 218.884309 
Q 271.260141 219.327639 271.31862 220.028328 
Q 271.408286 221.102718 270.717922 221.754581 
Q 270.027427 222.404887 268.664976 222.518594 
Q 268.20875 222.55667 267.716959 222.506774 
Q 267.225168 222.456878 266.694697 222.31927 
L 266.615557 221.371004 
Q 267.043396 221.575191 267.539344 221.656099 
Q 268.036848 221.736877 268.567814 221.692563 
Q 269.491167 221.615502 269.945012 221.210729 
Q 270.398858 220.805956 270.340769 220.109938 
Q 270.287099 219.466861 269.806952 219.143173 
Q 269.326676 218.817928 268.524776 218.884853 
L 267.677721 218.955546 
L 267.610276 218.147418 
L 268.496258 218.073476 
Q 269.220304 218.013049 269.580733 217.691332 
Q 269.941163 217.369616 269.89568 216.824636 
Q 269.849027 216.265642 269.427019 215.999819 
Q 269.006439 215.732309 268.266823 215.794036 
Q 267.86198 215.827823 267.406932 215.955173 
Q 266.951755 216.080965 266.412766 216.310964 
L 266.339734 215.435881 
Q 266.88729 215.23339 267.369717 215.114731 
Q 267.852145 214.996072 268.285015 214.959945 
Q 269.40456 214.86651 270.097917 215.321358 
Q 270.7927 215.774519 270.864953 216.640259 
Q 270.915374 217.244408 270.604398 217.689 
Q 270.293422 218.133591 269.669959 218.347121 
z
M 274.136523 221.086696 
L 277.566785 220.800413 
L 277.635789 221.627226 
L 273.023698 222.012142 
L 272.954694 221.185329 
Q 273.465346 220.55944 274.34939 219.504134 
Q 275.234862 218.447141 275.458787 218.143089 
Q 275.886401 217.574304 276.042583 217.191237 
Q 276.200322 216.808041 276.170693 216.453025 
Q 276.122351 215.873789 275.685543 215.543348 
Q 275.248604 215.21135 274.596185 215.265799 
Q 274.13373 215.304395 273.633277 215.507659 
Q 273.13438 215.710793 272.577763 216.086513 
L 272.494854 215.093092 
Q 273.068221 214.805346 273.573481 214.640879 
Q 274.080297 214.476282 274.508496 214.440546 
Q 275.637384 214.346331 276.35566 214.855544 
Q 277.073807 215.363201 277.152558 216.306795 
Q 277.189984 216.755236 277.055346 217.170999 
Q 276.922135 217.585075 276.523848 218.167092 
Q 276.414221 218.318923 275.818071 219.047591 
Q 275.223478 219.776129 274.136523 221.086696 
z
" clip-path="url(#p7a19588d10)" style="fill: #e66c5c"/>
   </g>
   <g id="text_19">
    <path d="M 309.016788 233.73093 
Q 308.36092 233.834931 308.047869 234.34494 
Q 307.736116 234.853161 307.859939 235.63403 
Q 307.983027 236.410269 308.437445 236.801744 
Q 308.893161 237.191432 309.549029 237.087431 
Q 310.204897 236.983429 310.516161 236.472122 
Q 310.827179 235.959271 310.704091 235.183032 
Q 310.580268 234.402163 310.126584 234.015318 
Q 309.672656 233.626929 309.016788 233.73093 
z
M 310.466162 230.37028 
L 310.60687 231.257631 
Q 310.212176 231.143031 309.82428 231.111201 
Q 309.436138 231.077827 309.068852 231.136068 
Q 308.104341 231.289011 307.698345 232.021003 
Q 307.293894 232.75275 307.430099 234.080617 
Q 307.64749 233.615835 308.041022 233.324039 
Q 308.436098 233.031999 308.951533 232.950266 
Q 310.036415 232.778236 310.770539 233.337349 
Q 311.504418 233.894919 311.684035 235.027642 
Q 311.85998 236.137216 311.31056 236.912517 
Q 310.760896 237.686276 309.671384 237.85904 
Q 308.421376 238.057254 307.60916 237.205194 
Q 306.796698 236.35159 306.508431 234.533679 
Q 306.237783 232.826879 306.886955 231.682969 
Q 307.536126 230.539059 308.900331 230.322736 
Q 309.267618 230.264496 309.652578 230.277807 
Q 310.037538 230.291119 310.466162 230.37028 
z
M 315.397913 230.295415 
L 313.547591 234.529638 
L 316.007482 234.139573 
L 315.397913 230.295415 
z
M 315.007149 229.487266 
L 316.232464 229.292967 
L 316.976623 233.985896 
L 318.004407 233.82292 
L 318.132879 234.633109 
L 317.105095 234.796085 
L 317.374275 236.493626 
L 316.405134 236.647303 
L 316.135954 234.949762 
L 312.885936 235.465119 
L 312.736908 234.525299 
L 315.007149 229.487266 
z
" clip-path="url(#p7a19588d10)" style="fill: #f89540; stroke: #ffffff; stroke-width: 5"/>
    <path d="M 309.016788 233.73093 
Q 308.36092 233.834931 308.047869 234.34494 
Q 307.736116 234.853161 307.859939 235.63403 
Q 307.983027 236.410269 308.437445 236.801744 
Q 308.893161 237.191432 309.549029 237.087431 
Q 310.204897 236.983429 310.516161 236.472122 
Q 310.827179 235.959271 310.704091 235.183032 
Q 310.580268 234.402163 310.126584 234.015318 
Q 309.672656 233.626929 309.016788 233.73093 
z
M 310.466162 230.37028 
L 310.60687 231.257631 
Q 310.212176 231.143031 309.82428 231.111201 
Q 309.436138 231.077827 309.068852 231.136068 
Q 308.104341 231.289011 307.698345 232.021003 
Q 307.293894 232.75275 307.430099 234.080617 
Q 307.64749 233.615835 308.041022 233.324039 
Q 308.436098 233.031999 308.951533 232.950266 
Q 310.036415 232.778236 310.770539 233.337349 
Q 311.504418 233.894919 311.684035 235.027642 
Q 311.85998 236.137216 311.31056 236.912517 
Q 310.760896 237.686276 309.671384 237.85904 
Q 308.421376 238.057254 307.60916 237.205194 
Q 306.796698 236.35159 306.508431 234.533679 
Q 306.237783 232.826879 306.886955 231.682969 
Q 307.536126 230.539059 308.900331 230.322736 
Q 309.267618 230.264496 309.652578 230.277807 
Q 310.037538 230.291119 310.466162 230.37028 
z
M 315.397913 230.295415 
L 313.547591 234.529638 
L 316.007482 234.139573 
L 315.397913 230.295415 
z
M 315.007149 229.487266 
L 316.232464 229.292967 
L 316.976623 233.985896 
L 318.004407 233.82292 
L 318.132879 234.633109 
L 317.105095 234.796085 
L 317.374275 236.493626 
L 316.405134 236.647303 
L 316.135954 234.949762 
L 312.885936 235.465119 
L 312.736908 234.525299 
L 315.007149 229.487266 
z
" clip-path="url(#p7a19588d10)" style="fill: #f89540"/>
   </g>
   <g id="text_20">
    <path d="M 347.022828 165.165198 
L 348.297995 164.180786 
L 344.89886 159.777687 
L 343.725974 161.127273 
L 343.176957 160.416098 
L 344.342421 159.072241 
L 345.122858 158.469753 
L 349.071011 163.584027 
L 350.346179 162.599615 
L 350.853185 163.256369 
L 347.529834 165.821953 
L 347.022828 165.165198 
z
M 352.59581 160.862928 
L 355.320537 158.759474 
L 355.827543 159.416229 
L 352.164065 162.244386 
L 351.657059 161.587632 
Q 351.745889 160.784755 351.915008 159.418518 
Q 352.084408 158.050089 352.107288 157.673171 
Q 352.157409 156.963342 352.080492 156.556873 
Q 352.004812 156.14945 351.787115 155.867454 
Q 351.431924 155.407355 350.885686 155.367144 
Q 350.338494 155.325696 349.820264 155.725763 
Q 349.452927 156.009343 349.14312 156.451824 
Q 348.83455 156.893351 348.571251 157.511139 
L 347.96208 156.722044 
Q 348.287224 156.169026 348.622138 155.756511 
Q 348.958289 155.34304 349.298416 155.080466 
Q 350.195115 154.388227 351.074784 154.42567 
Q 351.953498 154.461876 352.532115 155.211392 
Q 352.807101 155.567598 352.919866 155.989819 
Q 353.032913 156.409848 353.014602 157.114859 
Q 353.005018 157.301886 352.900222 158.237498 
Q 352.796663 159.172155 352.59581 160.862928 
z
M 357.02003 154.121417 
Q 356.463458 154.551083 356.374467 155.0955 
Q 356.286713 155.638962 356.68869 156.159665 
Q 357.091621 156.681606 357.639595 156.734294 
Q 358.188806 156.786027 358.745378 156.356361 
Q 359.301949 155.926695 359.391222 155.380086 
Q 359.480777 154.831286 359.080711 154.313056 
Q 358.678734 153.792353 358.129523 153.740619 
Q 357.581549 153.687931 357.02003 154.121417 
z
M 355.983703 154.392435 
Q 355.386071 154.656406 354.839873 154.529312 
Q 354.293957 154.400025 353.912032 153.905295 
Q 353.378291 153.213909 353.560234 152.431925 
Q 353.743413 151.648986 354.600533 150.987301 
Q 355.4626 150.321796 356.263934 150.344703 
Q 357.065269 150.367611 357.599009 151.058996 
Q 357.980935 151.553726 357.966568 152.115543 
Q 357.952484 152.675169 357.549524 153.183641 
Q 358.214727 152.87935 358.824873 153.020243 
Q 359.435301 153.158945 359.861147 153.710569 
Q 360.509466 154.550373 360.344017 155.394634 
Q 360.177614 156.237658 359.222785 156.974773 
Q 358.269192 157.710935 357.410267 157.659451 
Q 356.551624 157.605776 355.903306 156.765972 
Q 355.477459 156.214348 355.499049 155.587736 
Q 355.520921 154.958933 355.983703 154.392435 
z
M 354.746047 153.379882 
Q 355.09169 153.827612 355.56504 153.8629 
Q 356.039626 153.897233 356.545488 153.506714 
Q 357.048876 153.118105 357.138282 152.648378 
Q 357.228924 152.177695 356.883282 151.729964 
Q 356.536685 151.280996 356.058388 151.249528 
Q 355.581328 151.217104 355.07794 151.605713 
Q 354.572078 151.996232 354.485146 152.46405 
Q 354.39945 152.930914 354.746047 153.379882 
z
" clip-path="url(#p7a19588d10)" style="fill: #fdc527; stroke: #ffffff; stroke-width: 5"/>
    <path d="M 347.022828 165.165198 
L 348.297995 164.180786 
L 344.89886 159.777687 
L 343.725974 161.127273 
L 343.176957 160.416098 
L 344.342421 159.072241 
L 345.122858 158.469753 
L 349.071011 163.584027 
L 350.346179 162.599615 
L 350.853185 163.256369 
L 347.529834 165.821953 
L 347.022828 165.165198 
z
M 352.59581 160.862928 
L 355.320537 158.759474 
L 355.827543 159.416229 
L 352.164065 162.244386 
L 351.657059 161.587632 
Q 351.745889 160.784755 351.915008 159.418518 
Q 352.084408 158.050089 352.107288 157.673171 
Q 352.157409 156.963342 352.080492 156.556873 
Q 352.004812 156.14945 351.787115 155.867454 
Q 351.431924 155.407355 350.885686 155.367144 
Q 350.338494 155.325696 349.820264 155.725763 
Q 349.452927 156.009343 349.14312 156.451824 
Q 348.83455 156.893351 348.571251 157.511139 
L 347.96208 156.722044 
Q 348.287224 156.169026 348.622138 155.756511 
Q 348.958289 155.34304 349.298416 155.080466 
Q 350.195115 154.388227 351.074784 154.42567 
Q 351.953498 154.461876 352.532115 155.211392 
Q 352.807101 155.567598 352.919866 155.989819 
Q 353.032913 156.409848 353.014602 157.114859 
Q 353.005018 157.301886 352.900222 158.237498 
Q 352.796663 159.172155 352.59581 160.862928 
z
M 357.02003 154.121417 
Q 356.463458 154.551083 356.374467 155.0955 
Q 356.286713 155.638962 356.68869 156.159665 
Q 357.091621 156.681606 357.639595 156.734294 
Q 358.188806 156.786027 358.745378 156.356361 
Q 359.301949 155.926695 359.391222 155.380086 
Q 359.480777 154.831286 359.080711 154.313056 
Q 358.678734 153.792353 358.129523 153.740619 
Q 357.581549 153.687931 357.02003 154.121417 
z
M 355.983703 154.392435 
Q 355.386071 154.656406 354.839873 154.529312 
Q 354.293957 154.400025 353.912032 153.905295 
Q 353.378291 153.213909 353.560234 152.431925 
Q 353.743413 151.648986 354.600533 150.987301 
Q 355.4626 150.321796 356.263934 150.344703 
Q 357.065269 150.367611 357.599009 151.058996 
Q 357.980935 151.553726 357.966568 152.115543 
Q 357.952484 152.675169 357.549524 153.183641 
Q 358.214727 152.87935 358.824873 153.020243 
Q 359.435301 153.158945 359.861147 153.710569 
Q 360.509466 154.550373 360.344017 155.394634 
Q 360.177614 156.237658 359.222785 156.974773 
Q 358.269192 157.710935 357.410267 157.659451 
Q 356.551624 157.605776 355.903306 156.765972 
Q 355.477459 156.214348 355.499049 155.587736 
Q 355.520921 154.958933 355.983703 154.392435 
z
M 354.746047 153.379882 
Q 355.09169 153.827612 355.56504 153.8629 
Q 356.039626 153.897233 356.545488 153.506714 
Q 357.048876 153.118105 357.138282 152.648378 
Q 357.228924 152.177695 356.883282 151.729964 
Q 356.536685 151.280996 356.058388 151.249528 
Q 355.581328 151.217104 355.07794 151.605713 
Q 354.572078 151.996232 354.485146 152.46405 
Q 354.39945 152.930914 354.746047 153.379882 
z
" clip-path="url(#p7a19588d10)" style="fill: #fdc527"/>
   </g>
   <g id="patch_3">
    <path d="M 53.328125 301.735725 
L 53.328125 35.623725 
" style="fill: none; stroke: #cccccc; stroke-width: 0.8; stroke-linejoin: miter; stroke-linecap: square"/>
   </g>
   <g id="patch_4">
    <path d="M 410.448125 301.735725 
L 410.448125 35.623725 
" style="fill: none; stroke: #cccccc; stroke-width: 0.8; stroke-linejoin: miter; stroke-linecap: square"/>
   </g>
   <g id="patch_5">
    <path d="M 53.328125 301.735725 
L 410.448125 301.735725 
" style="fill: none; stroke: #cccccc; stroke-width: 0.8; stroke-linejoin: miter; stroke-linecap: square"/>
   </g>
   <g id="patch_6">
    <path d="M 53.328125 35.623725 
L 410.448125 35.623725 
" style="fill: none; stroke: #cccccc; stroke-width: 0.8; stroke-linejoin: miter; stroke-linecap: square"/>
   </g>
   <g id="text_21">
    <!-- Block Size = 4M, Read-Write Type = Sequential Balanced 1:1 -->
    <g style="fill: #262626; opacity: 0.75" transform="translate(79.679531 30.882918) scale(0.1 -0.1)">
     <defs>
      <path id="DejaVuSans-42" d="M 1259 2228 
L 1259 519 
L 2272 519 
Q 2781 519 3026 730 
Q 3272 941 3272 1375 
Q 3272 1813 3026 2020 
Q 2781 2228 2272 2228 
L 1259 2228 
z
M 1259 4147 
L 1259 2741 
L 2194 2741 
Q 2656 2741 2882 2914 
Q 3109 3088 3109 3444 
Q 3109 3797 2882 3972 
Q 2656 4147 2194 4147 
L 1259 4147 
z
M 628 4666 
L 2241 4666 
Q 2963 4666 3353 4366 
Q 3744 4066 3744 3513 
Q 3744 3084 3544 2831 
Q 3344 2578 2956 2516 
Q 3422 2416 3680 2098 
Q 3938 1781 3938 1306 
Q 3938 681 3513 340 
Q 3088 0 2303 0 
L 628 0 
L 628 4666 
z
" transform="scale(0.015625)"/>
      <path id="DejaVuSans-6c" d="M 603 4863 
L 1178 4863 
L 1178 0 
L 603 0 
L 603 4863 
z
" transform="scale(0.015625)"/>
      <path id="DejaVuSans-63" d="M 3122 3366 
L 3122 2828 
Q 2878 2963 2633 3030 
Q 2388 3097 2138 3097 
Q 1578 3097 1268 2742 
Q 959 2388 959 1747 
Q 959 1106 1268 751 
Q 1578 397 2138 397 
Q 2388 397 2633 464 
Q 2878 531 3122 666 
L 3122 134 
Q 2881 22 2623 -34 
Q 2366 -91 2075 -91 
Q 1284 -91 818 406 
Q 353 903 353 1747 
Q 353 2603 823 3093 
Q 1294 3584 2113 3584 
Q 2378 3584 2631 3529 
Q 2884 3475 3122 3366 
z
" transform="scale(0.015625)"/>
      <path id="DejaVuSans-6b" d="M 581 4863 
L 1159 4863 
L 1159 1991 
L 2875 3500 
L 3609 3500 
L 1753 1863 
L 3688 0 
L 2938 0 
L 1159 1709 
L 1159 0 
L 581 0 
L 581 4863 
z
" transform="scale(0.015625)"/>
      <path id="DejaVuSans-69" d="M 603 3500 
L 1178 3500 
L 1178 0 
L 603 0 
L 603 3500 
z
M 603 4863 
L 1178 4863 
L 1178 4134 
L 603 4134 
L 603 4863 
z
" transform="scale(0.015625)"/>
      <path id="DejaVuSans-7a" d="M 353 3500 
L 3084 3500 
L 3084 2975 
L 922 459 
L 3084 459 
L 3084 0 
L 275 0 
L 275 525 
L 2438 3041 
L 353 3041 
L 353 3500 
z
" transform="scale(0.015625)"/>
      <path id="DejaVuSans-3d" d="M 678 2906 
L 4684 2906 
L 4684 2381 
L 678 2381 
L 678 2906 
z
M 678 1631 
L 4684 1631 
L 4684 1100 
L 678 1100 
L 678 1631 
z
" transform="scale(0.015625)"/>
      <path id="DejaVuSans-4d" d="M 628 4666 
L 1569 4666 
L 2759 1491 
L 3956 4666 
L 4897 4666 
L 4897 0 
L 4281 0 
L 4281 4097 
L 3078 897 
L 2444 897 
L 1241 4097 
L 1241 0 
L 628 0 
L 628 4666 
z
" transform="scale(0.015625)"/>
      <path id="DejaVuSans-2c" d="M 750 794 
L 1409 794 
L 1409 256 
L 897 -744 
L 494 -744 
L 750 256 
L 750 794 
z
" transform="scale(0.015625)"/>
      <path id="DejaVuSans-52" d="M 2841 2188 
Q 3044 2119 3236 1894 
Q 3428 1669 3622 1275 
L 4263 0 
L 3584 0 
L 2988 1197 
Q 2756 1666 2539 1819 
Q 2322 1972 1947 1972 
L 1259 1972 
L 1259 0 
L 628 0 
L 628 4666 
L 2053 4666 
Q 2853 4666 3247 4331 
Q 3641 3997 3641 3322 
Q 3641 2881 3436 2590 
Q 3231 2300 2841 2188 
z
M 1259 4147 
L 1259 2491 
L 2053 2491 
Q 2509 2491 2742 2702 
Q 2975 2913 2975 3322 
Q 2975 3731 2742 3939 
Q 2509 4147 2053 4147 
L 1259 4147 
z
" transform="scale(0.015625)"/>
      <path id="DejaVuSans-61" d="M 2194 1759 
Q 1497 1759 1228 1600 
Q 959 1441 959 1056 
Q 959 750 1161 570 
Q 1363 391 1709 391 
Q 2188 391 2477 730 
Q 2766 1069 2766 1631 
L 2766 1759 
L 2194 1759 
z
M 3341 1997 
L 3341 0 
L 2766 0 
L 2766 531 
Q 2569 213 2275 61 
Q 1981 -91 1556 -91 
Q 1019 -91 701 211 
Q 384 513 384 1019 
Q 384 1609 779 1909 
Q 1175 2209 1959 2209 
L 2766 2209 
L 2766 2266 
Q 2766 2663 2505 2880 
Q 2244 3097 1772 3097 
Q 1472 3097 1187 3025 
Q 903 2953 641 2809 
L 641 3341 
Q 956 3463 1253 3523 
Q 1550 3584 1831 3584 
Q 2591 3584 2966 3190 
Q 3341 2797 3341 1997 
z
" transform="scale(0.015625)"/>
      <path id="DejaVuSans-64" d="M 2906 2969 
L 2906 4863 
L 3481 4863 
L 3481 0 
L 2906 0 
L 2906 525 
Q 2725 213 2448 61 
Q 2172 -91 1784 -91 
Q 1150 -91 751 415 
Q 353 922 353 1747 
Q 353 2572 751 3078 
Q 1150 3584 1784 3584 
Q 2172 3584 2448 3432 
Q 2725 3281 2906 2969 
z
M 947 1747 
Q 947 1113 1208 752 
Q 1469 391 1925 391 
Q 2381 391 2643 752 
Q 2906 1113 2906 1747 
Q 2906 2381 2643 2742 
Q 2381 3103 1925 3103 
Q 1469 3103 1208 2742 
Q 947 2381 947 1747 
z
" transform="scale(0.015625)"/>
      <path id="DejaVuSans-2d" d="M 313 2009 
L 1997 2009 
L 1997 1497 
L 313 1497 
L 313 2009 
z
" transform="scale(0.015625)"/>
      <path id="DejaVuSans-57" d="M 213 4666 
L 850 4666 
L 1831 722 
L 2809 4666 
L 3519 4666 
L 4500 722 
L 5478 4666 
L 6119 4666 
L 4947 0 
L 4153 0 
L 3169 4050 
L 2175 0 
L 1381 0 
L 213 4666 
z
" transform="scale(0.015625)"/>
      <path id="DejaVuSans-74" d="M 1172 4494 
L 1172 3500 
L 2356 3500 
L 2356 3053 
L 1172 3053 
L 1172 1153 
Q 1172 725 1289 603 
Q 1406 481 1766 481 
L 2356 481 
L 2356 0 
L 1766 0 
Q 1100 0 847 248 
Q 594 497 594 1153 
L 594 3053 
L 172 3053 
L 172 3500 
L 594 3500 
L 594 4494 
L 1172 4494 
z
" transform="scale(0.015625)"/>
      <path id="DejaVuSans-54" d="M -19 4666 
L 3928 4666 
L 3928 4134 
L 2272 4134 
L 2272 0 
L 1638 0 
L 1638 4134 
L -19 4134 
L -19 4666 
z
" transform="scale(0.015625)"/>
      <path id="DejaVuSans-79" d="M 2059 -325 
Q 1816 -950 1584 -1140 
Q 1353 -1331 966 -1331 
L 506 -1331 
L 506 -850 
L 844 -850 
Q 1081 -850 1212 -737 
Q 1344 -625 1503 -206 
L 1606 56 
L 191 3500 
L 800 3500 
L 1894 763 
L 2988 3500 
L 3597 3500 
L 2059 -325 
z
" transform="scale(0.015625)"/>
      <path id="DejaVuSans-70" d="M 1159 525 
L 1159 -1331 
L 581 -1331 
L 581 3500 
L 1159 3500 
L 1159 2969 
Q 1341 3281 1617 3432 
Q 1894 3584 2278 3584 
Q 2916 3584 3314 3078 
Q 3713 2572 3713 1747 
Q 3713 922 3314 415 
Q 2916 -91 2278 -91 
Q 1894 -91 1617 61 
Q 1341 213 1159 525 
z
M 3116 1747 
Q 3116 2381 2855 2742 
Q 2594 3103 2138 3103 
Q 1681 3103 1420 2742 
Q 1159 2381 1159 1747 
Q 1159 1113 1420 752 
Q 1681 391 2138 391 
Q 2594 391 2855 752 
Q 3116 1113 3116 1747 
z
" transform="scale(0.015625)"/>
      <path id="DejaVuSans-71" d="M 947 1747 
Q 947 1113 1208 752 
Q 1469 391 1925 391 
Q 2381 391 2643 752 
Q 2906 1113 2906 1747 
Q 2906 2381 2643 2742 
Q 2381 3103 1925 3103 
Q 1469 3103 1208 2742 
Q 947 2381 947 1747 
z
M 2906 525 
Q 2725 213 2448 61 
Q 2172 -91 1784 -91 
Q 1150 -91 751 415 
Q 353 922 353 1747 
Q 353 2572 751 3078 
Q 1150 3584 1784 3584 
Q 2172 3584 2448 3432 
Q 2725 3281 2906 2969 
L 2906 3500 
L 3481 3500 
L 3481 -1331 
L 2906 -1331 
L 2906 525 
z
" transform="scale(0.015625)"/>
      <path id="DejaVuSans-6e" d="M 3513 2113 
L 3513 0 
L 2938 0 
L 2938 2094 
Q 2938 2591 2744 2837 
Q 2550 3084 2163 3084 
Q 1697 3084 1428 2787 
Q 1159 2491 1159 1978 
L 1159 0 
L 581 0 
L 581 3500 
L 1159 3500 
L 1159 2956 
Q 1366 3272 1645 3428 
Q 1925 3584 2291 3584 
Q 2894 3584 3203 3211 
Q 3513 2838 3513 2113 
z
" transform="scale(0.015625)"/>
      <path id="DejaVuSans-3a" d="M 750 794 
L 1409 794 
L 1409 0 
L 750 0 
L 750 794 
z
M 750 3309 
L 1409 3309 
L 1409 2516 
L 750 2516 
L 750 3309 
z
" transform="scale(0.015625)"/>
     </defs>
     <use xlink:href="#DejaVuSans-42"/>
     <use xlink:href="#DejaVuSans-6c" transform="translate(68.603516 0)"/>
     <use xlink:href="#DejaVuSans-6f" transform="translate(96.386719 0)"/>
     <use xlink:href="#DejaVuSans-63" transform="translate(157.568359 0)"/>
     <use xlink:href="#DejaVuSans-6b" transform="translate(212.548828 0)"/>
     <use xlink:href="#DejaVuSans-20" transform="translate(270.458984 0)"/>
     <use xlink:href="#DejaVuSans-53" transform="translate(302.246094 0)"/>
     <use xlink:href="#DejaVuSans-69" transform="translate(365.722656 0)"/>
     <use xlink:href="#DejaVuSans-7a" transform="translate(393.505859 0)"/>
     <use xlink:href="#DejaVuSans-65" transform="translate(445.996094 0)"/>
     <use xlink:href="#DejaVuSans-20" transform="translate(507.519531 0)"/>
     <use xlink:href="#DejaVuSans-3d" transform="translate(539.306641 0)"/>
     <use xlink:href="#DejaVuSans-20" transform="translate(623.095703 0)"/>
     <use xlink:href="#DejaVuSans-34" transform="translate(654.882812 0)"/>
     <use xlink:href="#DejaVuSans-4d" transform="translate(718.505859 0)"/>
     <use xlink:href="#DejaVuSans-2c" transform="translate(804.785156 0)"/>
     <use xlink:href="#DejaVuSans-20" transform="translate(836.572266 0)"/>
     <use xlink:href="#DejaVuSans-52" transform="translate(868.359375 0)"/>
     <use xlink:href="#DejaVuSans-65" transform="translate(933.341797 0)"/>
     <use xlink:href="#DejaVuSans-61" transform="translate(994.865234 0)"/>
     <use xlink:href="#DejaVuSans-64" transform="translate(1056.144531 0)"/>
     <use xlink:href="#DejaVuSans-2d" transform="translate(1119.621094 0)"/>
     <use xlink:href="#DejaVuSans-57" transform="translate(1151.705078 0)"/>
     <use xlink:href="#DejaVuSans-72" transform="translate(1246.082031 0)"/>
     <use xlink:href="#DejaVuSans-69" transform="translate(1287.195312 0)"/>
     <use xlink:href="#DejaVuSans-74" transform="translate(1314.978516 0)"/>
     <use xlink:href="#DejaVuSans-65" transform="translate(1354.1875 0)"/>
     <use xlink:href="#DejaVuSans-20" transform="translate(1415.710938 0)"/>
     <use xlink:href="#DejaVuSans-54" transform="translate(1447.498047 0)"/>
     <use xlink:href="#DejaVuSans-79" transform="translate(1492.957031 0)"/>
     <use xlink:href="#DejaVuSans-70" transform="translate(1552.136719 0)"/>
     <use xlink:href="#DejaVuSans-65" transform="translate(1615.613281 0)"/>
     <use xlink:href="#DejaVuSans-20" transform="translate(1677.136719 0)"/>
     <use xlink:href="#DejaVuSans-3d" transform="translate(1708.923828 0)"/>
     <use xlink:href="#DejaVuSans-20" transform="translate(1792.712891 0)"/>
     <use xlink:href="#DejaVuSans-53" transform="translate(1824.5 0)"/>
     <use xlink:href="#DejaVuSans-65" transform="translate(1887.976562 0)"/>
     <use xlink:href="#DejaVuSans-71" transform="translate(1949.5 0)"/>
     <use xlink:href="#DejaVuSans-75" transform="translate(2012.976562 0)"/>
     <use xlink:href="#DejaVuSans-65" transform="translate(2076.355469 0)"/>
     <use xlink:href="#DejaVuSans-6e" transform="translate(2137.878906 0)"/>
     <use xlink:href="#DejaVuSans-74" transform="translate(2201.257812 0)"/>
     <use xlink:href="#DejaVuSans-69" transform="translate(2240.466797 0)"/>
     <use xlink:href="#DejaVuSans-61" transform="translate(2268.25 0)"/>
     <use xlink:href="#DejaVuSans-6c" transform="translate(2329.529297 0)"/>
     <use xlink:href="#DejaVuSans-20" transform="translate(2357.3125 0)"/>
     <use xlink:href="#DejaVuSans-42" transform="translate(2389.099609 0)"/>
     <use xlink:href="#DejaVuSans-61" transform="translate(2457.703125 0)"/>
     <use xlink:href="#DejaVuSans-6c" transform="translate(2518.982422 0)"/>
     <use xlink:href="#DejaVuSans-61" transform="translate(2546.765625 0)"/>
     <use xlink:href="#DejaVuSans-6e" transform="translate(2608.044922 0)"/>
     <use xlink:href="#DejaVuSans-63" transform="translate(2671.423828 0)"/>
     <use xlink:href="#DejaVuSans-65" transform="translate(2726.404297 0)"/>
     <use xlink:href="#DejaVuSans-64" transform="translate(2787.927734 0)"/>
     <use xlink:href="#DejaVuSans-20" transform="translate(2851.404297 0)"/>
     <use xlink:href="#DejaVuSans-31" transform="translate(2883.191406 0)"/>
     <use xlink:href="#DejaVuSans-3a" transform="translate(2946.814453 0)"/>
     <use xlink:href="#DejaVuSans-31" transform="translate(2980.505859 0)"/>
    </g>
   </g>
   <g id="text_22">
    <!-- IOPS vs Number of Jobs -->
    <g style="fill: #262626" transform="translate(152.179062 16.318125) scale(0.12 -0.12)">
     <defs>
      <path id="DejaVuSans-Bold-49" d="M 588 4666 
L 1791 4666 
L 1791 0 
L 588 0 
L 588 4666 
z
" transform="scale(0.015625)"/>
      <path id="DejaVuSans-Bold-4f" d="M 2719 3878 
Q 2169 3878 1866 3472 
Q 1563 3066 1563 2328 
Q 1563 1594 1866 1187 
Q 2169 781 2719 781 
Q 3272 781 3575 1187 
Q 3878 1594 3878 2328 
Q 3878 3066 3575 3472 
Q 3272 3878 2719 3878 
z
M 2719 4750 
Q 3844 4750 4481 4106 
Q 5119 3463 5119 2328 
Q 5119 1197 4481 553 
Q 3844 -91 2719 -91 
Q 1597 -91 958 553 
Q 319 1197 319 2328 
Q 319 3463 958 4106 
Q 1597 4750 2719 4750 
z
" transform="scale(0.015625)"/>
      <path id="DejaVuSans-Bold-50" d="M 588 4666 
L 2584 4666 
Q 3475 4666 3951 4270 
Q 4428 3875 4428 3144 
Q 4428 2409 3951 2014 
Q 3475 1619 2584 1619 
L 1791 1619 
L 1791 0 
L 588 0 
L 588 4666 
z
M 1791 3794 
L 1791 2491 
L 2456 2491 
Q 2806 2491 2997 2661 
Q 3188 2831 3188 3144 
Q 3188 3456 2997 3625 
Q 2806 3794 2456 3794 
L 1791 3794 
z
" transform="scale(0.015625)"/>
      <path id="DejaVuSans-Bold-53" d="M 3834 4519 
L 3834 3531 
Q 3450 3703 3084 3790 
Q 2719 3878 2394 3878 
Q 1963 3878 1756 3759 
Q 1550 3641 1550 3391 
Q 1550 3203 1689 3098 
Q 1828 2994 2194 2919 
L 2706 2816 
Q 3484 2659 3812 2340 
Q 4141 2022 4141 1434 
Q 4141 663 3683 286 
Q 3225 -91 2284 -91 
Q 1841 -91 1394 -6 
Q 947 78 500 244 
L 500 1259 
Q 947 1022 1364 901 
Q 1781 781 2169 781 
Q 2563 781 2772 912 
Q 2981 1044 2981 1288 
Q 2981 1506 2839 1625 
Q 2697 1744 2272 1838 
L 1806 1941 
Q 1106 2091 782 2419 
Q 459 2747 459 3303 
Q 459 4000 909 4375 
Q 1359 4750 2203 4750 
Q 2588 4750 2994 4692 
Q 3400 4634 3834 4519 
z
" transform="scale(0.015625)"/>
      <path id="DejaVuSans-Bold-20" transform="scale(0.015625)"/>
      <path id="DejaVuSans-Bold-76" d="M 97 3500 
L 1216 3500 
L 2088 1081 
L 2956 3500 
L 4078 3500 
L 2700 0 
L 1472 0 
L 97 3500 
z
" transform="scale(0.015625)"/>
      <path id="DejaVuSans-Bold-73" d="M 3272 3391 
L 3272 2541 
Q 2913 2691 2578 2766 
Q 2244 2841 1947 2841 
Q 1628 2841 1473 2761 
Q 1319 2681 1319 2516 
Q 1319 2381 1436 2309 
Q 1553 2238 1856 2203 
L 2053 2175 
Q 2913 2066 3209 1816 
Q 3506 1566 3506 1031 
Q 3506 472 3093 190 
Q 2681 -91 1863 -91 
Q 1516 -91 1145 -36 
Q 775 19 384 128 
L 384 978 
Q 719 816 1070 734 
Q 1422 653 1784 653 
Q 2113 653 2278 743 
Q 2444 834 2444 1013 
Q 2444 1163 2330 1236 
Q 2216 1309 1875 1350 
L 1678 1375 
Q 931 1469 631 1722 
Q 331 1975 331 2491 
Q 331 3047 712 3315 
Q 1094 3584 1881 3584 
Q 2191 3584 2531 3537 
Q 2872 3491 3272 3391 
z
" transform="scale(0.015625)"/>
      <path id="DejaVuSans-Bold-4e" d="M 588 4666 
L 1931 4666 
L 3628 1466 
L 3628 4666 
L 4769 4666 
L 4769 0 
L 3425 0 
L 1728 3200 
L 1728 0 
L 588 0 
L 588 4666 
z
" transform="scale(0.015625)"/>
      <path id="DejaVuSans-Bold-75" d="M 500 1363 
L 500 3500 
L 1625 3500 
L 1625 3150 
Q 1625 2866 1622 2436 
Q 1619 2006 1619 1863 
Q 1619 1441 1641 1255 
Q 1663 1069 1716 984 
Q 1784 875 1895 815 
Q 2006 756 2150 756 
Q 2500 756 2700 1025 
Q 2900 1294 2900 1772 
L 2900 3500 
L 4019 3500 
L 4019 0 
L 2900 0 
L 2900 506 
Q 2647 200 2364 54 
Q 2081 -91 1741 -91 
Q 1134 -91 817 281 
Q 500 653 500 1363 
z
" transform="scale(0.015625)"/>
      <path id="DejaVuSans-Bold-6d" d="M 3781 2919 
Q 3994 3244 4286 3414 
Q 4578 3584 4928 3584 
Q 5531 3584 5847 3212 
Q 6163 2841 6163 2131 
L 6163 0 
L 5038 0 
L 5038 1825 
Q 5041 1866 5042 1909 
Q 5044 1953 5044 2034 
Q 5044 2406 4934 2573 
Q 4825 2741 4581 2741 
Q 4263 2741 4089 2478 
Q 3916 2216 3909 1719 
L 3909 0 
L 2784 0 
L 2784 1825 
Q 2784 2406 2684 2573 
Q 2584 2741 2328 2741 
Q 2006 2741 1831 2477 
Q 1656 2213 1656 1722 
L 1656 0 
L 531 0 
L 531 3500 
L 1656 3500 
L 1656 2988 
Q 1863 3284 2130 3434 
Q 2397 3584 2719 3584 
Q 3081 3584 3359 3409 
Q 3638 3234 3781 2919 
z
" transform="scale(0.015625)"/>
      <path id="DejaVuSans-Bold-62" d="M 2400 722 
Q 2759 722 2948 984 
Q 3138 1247 3138 1747 
Q 3138 2247 2948 2509 
Q 2759 2772 2400 2772 
Q 2041 2772 1848 2508 
Q 1656 2244 1656 1747 
Q 1656 1250 1848 986 
Q 2041 722 2400 722 
z
M 1656 2988 
Q 1888 3294 2169 3439 
Q 2450 3584 2816 3584 
Q 3463 3584 3878 3070 
Q 4294 2556 4294 1747 
Q 4294 938 3878 423 
Q 3463 -91 2816 -91 
Q 2450 -91 2169 54 
Q 1888 200 1656 506 
L 1656 0 
L 538 0 
L 538 4863 
L 1656 4863 
L 1656 2988 
z
" transform="scale(0.015625)"/>
      <path id="DejaVuSans-Bold-65" d="M 4031 1759 
L 4031 1441 
L 1416 1441 
Q 1456 1047 1700 850 
Q 1944 653 2381 653 
Q 2734 653 3104 758 
Q 3475 863 3866 1075 
L 3866 213 
Q 3469 63 3072 -14 
Q 2675 -91 2278 -91 
Q 1328 -91 801 392 
Q 275 875 275 1747 
Q 275 2603 792 3093 
Q 1309 3584 2216 3584 
Q 3041 3584 3536 3087 
Q 4031 2591 4031 1759 
z
M 2881 2131 
Q 2881 2450 2695 2645 
Q 2509 2841 2209 2841 
Q 1884 2841 1681 2658 
Q 1478 2475 1428 2131 
L 2881 2131 
z
" transform="scale(0.015625)"/>
      <path id="DejaVuSans-Bold-72" d="M 3138 2547 
Q 2991 2616 2845 2648 
Q 2700 2681 2553 2681 
Q 2122 2681 1889 2404 
Q 1656 2128 1656 1613 
L 1656 0 
L 538 0 
L 538 3500 
L 1656 3500 
L 1656 2925 
Q 1872 3269 2151 3426 
Q 2431 3584 2822 3584 
Q 2878 3584 2943 3579 
Q 3009 3575 3134 3559 
L 3138 2547 
z
" transform="scale(0.015625)"/>
      <path id="DejaVuSans-Bold-6f" d="M 2203 2784 
Q 1831 2784 1636 2517 
Q 1441 2250 1441 1747 
Q 1441 1244 1636 976 
Q 1831 709 2203 709 
Q 2569 709 2762 976 
Q 2956 1244 2956 1747 
Q 2956 2250 2762 2517 
Q 2569 2784 2203 2784 
z
M 2203 3584 
Q 3106 3584 3614 3096 
Q 4122 2609 4122 1747 
Q 4122 884 3614 396 
Q 3106 -91 2203 -91 
Q 1297 -91 786 396 
Q 275 884 275 1747 
Q 275 2609 786 3096 
Q 1297 3584 2203 3584 
z
" transform="scale(0.015625)"/>
      <path id="DejaVuSans-Bold-66" d="M 2841 4863 
L 2841 4128 
L 2222 4128 
Q 1984 4128 1890 4042 
Q 1797 3956 1797 3744 
L 1797 3500 
L 2753 3500 
L 2753 2700 
L 1797 2700 
L 1797 0 
L 678 0 
L 678 2700 
L 122 2700 
L 122 3500 
L 678 3500 
L 678 3744 
Q 678 4316 997 4589 
Q 1316 4863 1984 4863 
L 2841 4863 
z
" transform="scale(0.015625)"/>
      <path id="DejaVuSans-Bold-4a" d="M 588 4666 
L 1791 4666 
L 1791 453 
Q 1791 -419 1317 -850 
Q 844 -1281 -116 -1281 
L -359 -1281 
L -359 -372 
L -172 -372 
Q 203 -372 395 -162 
Q 588 47 588 453 
L 588 4666 
z
" transform="scale(0.015625)"/>
     </defs>
     <use xlink:href="#DejaVuSans-Bold-49"/>
     <use xlink:href="#DejaVuSans-Bold-4f" transform="translate(37.207031 0)"/>
     <use xlink:href="#DejaVuSans-Bold-50" transform="translate(122.216797 0)"/>
     <use xlink:href="#DejaVuSans-Bold-53" transform="translate(195.507812 0)"/>
     <use xlink:href="#DejaVuSans-Bold-20" transform="translate(267.529297 0)"/>
     <use xlink:href="#DejaVuSans-Bold-76" transform="translate(302.34375 0)"/>
     <use xlink:href="#DejaVuSans-Bold-73" transform="translate(367.529297 0)"/>
     <use xlink:href="#DejaVuSans-Bold-20" transform="translate(427.050781 0)"/>
     <use xlink:href="#DejaVuSans-Bold-4e" transform="translate(461.865234 0)"/>
     <use xlink:href="#DejaVuSans-Bold-75" transform="translate(545.556641 0)"/>
     <use xlink:href="#DejaVuSans-Bold-6d" transform="translate(616.748047 0)"/>
     <use xlink:href="#DejaVuSans-Bold-62" transform="translate(720.947266 0)"/>
     <use xlink:href="#DejaVuSans-Bold-65" transform="translate(792.529297 0)"/>
     <use xlink:href="#DejaVuSans-Bold-72" transform="translate(860.351562 0)"/>
     <use xlink:href="#DejaVuSans-Bold-20" transform="translate(909.667969 0)"/>
     <use xlink:href="#DejaVuSans-Bold-6f" transform="translate(944.482422 0)"/>
     <use xlink:href="#DejaVuSans-Bold-66" transform="translate(1013.183594 0)"/>
     <use xlink:href="#DejaVuSans-Bold-20" transform="translate(1056.689453 0)"/>
     <use xlink:href="#DejaVuSans-Bold-4a" transform="translate(1091.503906 0)"/>
     <use xlink:href="#DejaVuSans-Bold-6f" transform="translate(1128.710938 0)"/>
     <use xlink:href="#DejaVuSans-Bold-62" transform="translate(1197.412109 0)"/>
     <use xlink:href="#DejaVuSans-Bold-73" transform="translate(1268.994141 0)"/>
    </g>
   </g>
   <g id="legend_1">
    <g id="text_23">
     <!-- IO Depth -->
     <g style="fill: #262626" transform="translate(444.954687 120.065663) scale(0.1 -0.1)">
      <defs>
       <path id="DejaVuSans-44" d="M 1259 4147 
L 1259 519 
L 2022 519 
Q 2988 519 3436 956 
Q 3884 1394 3884 2338 
Q 3884 3275 3436 3711 
Q 2988 4147 2022 4147 
L 1259 4147 
z
M 628 4666 
L 1925 4666 
Q 3281 4666 3915 4102 
Q 4550 3538 4550 2338 
Q 4550 1131 3912 565 
Q 3275 0 1925 0 
L 628 0 
L 628 4666 
z
" transform="scale(0.015625)"/>
       <path id="DejaVuSans-68" d="M 3513 2113 
L 3513 0 
L 2938 0 
L 2938 2094 
Q 2938 2591 2744 2837 
Q 2550 3084 2163 3084 
Q 1697 3084 1428 2787 
Q 1159 2491 1159 1978 
L 1159 0 
L 581 0 
L 581 4863 
L 1159 4863 
L 1159 2956 
Q 1366 3272 1645 3428 
Q 1925 3584 2291 3584 
Q 2894 3584 3203 3211 
Q 3513 2838 3513 2113 
z
" transform="scale(0.015625)"/>
      </defs>
      <use xlink:href="#DejaVuSans-49"/>
      <use xlink:href="#DejaVuSans-4f" transform="translate(29.492188 0)"/>
      <use xlink:href="#DejaVuSans-20" transform="translate(108.203125 0)"/>
      <use xlink:href="#DejaVuSans-44" transform="translate(139.990234 0)"/>
      <use xlink:href="#DejaVuSans-65" transform="translate(216.992188 0)"/>
      <use xlink:href="#DejaVuSans-70" transform="translate(278.515625 0)"/>
      <use xlink:href="#DejaVuSans-74" transform="translate(341.992188 0)"/>
      <use xlink:href="#DejaVuSans-68" transform="translate(381.201172 0)"/>
     </g>
    </g>
    <g id="line2d_26">
     <path d="M 443.640625 131.243787 
L 453.640625 131.243787 
L 463.640625 131.243787 
" style="fill: none; stroke: #4c02a1; stroke-width: 1.5; stroke-linecap: round"/>
    </g>
    <g id="text_24">
     <!-- 1 -->
     <g style="fill: #262626" transform="translate(471.640625 134.743787) scale(0.1 -0.1)">
      <use xlink:href="#DejaVuSans-31"/>
     </g>
    </g>
    <g id="line2d_27">
     <path d="M 443.640625 145.921913 
L 453.640625 145.921913 
L 463.640625 145.921913 
" style="fill: none; stroke: #7e03a8; stroke-width: 1.5; stroke-linecap: round"/>
    </g>
    <g id="text_25">
     <!-- 4 -->
     <g style="fill: #262626" transform="translate(471.640625 149.421913) scale(0.1 -0.1)">
      <use xlink:href="#DejaVuSans-34"/>
     </g>
    </g>
    <g id="line2d_28">
     <path d="M 443.640625 160.600037 
L 453.640625 160.600037 
L 463.640625 160.600037 
" style="fill: none; stroke: #aa2395; stroke-width: 1.5; stroke-linecap: round"/>
    </g>
    <g id="text_26">
     <!-- 8 -->
     <g style="fill: #262626" transform="translate(471.640625 164.100037) scale(0.1 -0.1)">
      <use xlink:href="#DejaVuSans-38"/>
     </g>
    </g>
    <g id="line2d_29">
     <path d="M 443.640625 175.278163 
L 453.640625 175.278163 
L 463.640625 175.278163 
" style="fill: none; stroke: #cc4778; stroke-width: 1.5; stroke-linecap: round"/>
    </g>
    <g id="text_27">
     <!-- 16 -->
     <g style="fill: #262626" transform="translate(471.640625 178.778163) scale(0.1 -0.1)">
      <use xlink:href="#DejaVuSans-31"/>
      <use xlink:href="#DejaVuSans-36" transform="translate(63.623047 0)"/>
     </g>
    </g>
    <g id="line2d_30">
     <path d="M 443.640625 189.956288 
L 453.640625 189.956288 
L 463.640625 189.956288 
" style="fill: none; stroke: #e66c5c; stroke-width: 1.5; stroke-linecap: round"/>
    </g>
    <g id="text_28">
     <!-- 32 -->
     <g style="fill: #262626" transform="translate(471.640625 193.456288) scale(0.1 -0.1)">
      <use xlink:href="#DejaVuSans-33"/>
      <use xlink:href="#DejaVuSans-32" transform="translate(63.623047 0)"/>
     </g>
    </g>
    <g id="line2d_31">
     <path d="M 443.640625 204.634412 
L 453.640625 204.634412 
L 463.640625 204.634412 
" style="fill: none; stroke: #f89540; stroke-width: 1.5; stroke-linecap: round"/>
    </g>
    <g id="text_29">
     <!-- 64 -->
     <g style="fill: #262626" transform="translate(471.640625 208.134412) scale(0.1 -0.1)">
      <use xlink:href="#DejaVuSans-36"/>
      <use xlink:href="#DejaVuSans-34" transform="translate(63.623047 0)"/>
     </g>
    </g>
    <g id="line2d_32">
     <path d="M 443.640625 219.312537 
L 453.640625 219.312537 
L 463.640625 219.312537 
" style="fill: none; stroke: #fdc527; stroke-width: 1.5; stroke-linecap: round"/>
    </g>
    <g id="text_30">
     <!-- 128 -->
     <g style="fill: #262626" transform="translate(471.640625 222.812537) scale(0.1 -0.1)">
      <use xlink:href="#DejaVuSans-31"/>
      <use xlink:href="#DejaVuSans-32" transform="translate(63.623047 0)"/>
      <use xlink:href="#DejaVuSans-38" transform="translate(127.246094 0)"/>
     </g>
    </g>
   </g>
  </g>
 </g>
 <defs>
  <clipPath id="p7a19588d10">
   <rect x="53.328125" y="35.623725" width="357.12" height="266.112"/>
  </clipPath>
 </defs>
</svg>
