<?xml version="1.0" encoding="utf-8" standalone="no"?>
<!DOCTYPE svg PUBLIC "-//W3C//DTD SVG 1.1//EN"
  "http://www.w3.org/Graphics/SVG/1.1/DTD/svg11.dtd">
<svg xmlns:xlink="http://www.w3.org/1999/xlink" width="508.290625pt" height="339.291975pt" viewBox="0 0 508.290625 339.291975" xmlns="http://www.w3.org/2000/svg" version="1.1">
 <metadata>
  <rdf:RDF xmlns:dc="http://purl.org/dc/elements/1.1/" xmlns:cc="http://creativecommons.org/ns#" xmlns:rdf="http://www.w3.org/1999/02/22-rdf-syntax-ns#">
   <cc:Work>
    <dc:type rdf:resource="http://purl.org/dc/dcmitype/StillImage"/>
    <dc:date>2025-09-11T11:44:30.912142</dc:date>
    <dc:format>image/svg+xml</dc:format>
    <dc:creator>
     <cc:Agent>
      <dc:title>Matplotlib v3.10.6, https://matplotlib.org/</dc:title>
     </cc:Agent>
    </dc:creator>
   </cc:Work>
  </rdf:RDF>
 </metadata>
 <defs>
  <style type="text/css">*{stroke-linejoin: round; stroke-linecap: butt}</style>
 </defs>
 <g id="figure_1">
  <g id="patch_1">
   <path d="M 0 339.291975 
L 508.290625 339.291975 
L 508.290625 0 
L 0 0 
z
" style="fill: #ffffff"/>
  </g>
  <g id="axes_1">
   <g id="patch_2">
    <path d="M 59.690625 301.735725 
L 416.810625 301.735725 
L 416.810625 35.623725 
L 59.690625 35.623725 
z
" style="fill: #ffffff"/>
   </g>
   <g id="matplotlib.axis_1">
    <g id="xtick_1">
     <g id="line2d_1">
      <path d="M 93.817697 301.735725 
L 93.817697 35.623725 
" clip-path="url(#p65d9425405)" style="fill: none; stroke: #cccccc; stroke-width: 0.8; stroke-linecap: round"/>
     </g>
     <g id="text_1">
      <!-- 8 -->
      <g style="fill: #262626" transform="translate(90.636447 316.334162) scale(0.1 -0.1)">
       <defs>
        <path id="DejaVuSans-38" d="M 2034 2216 
Q 1584 2216 1326 1975 
Q 1069 1734 1069 1313 
Q 1069 891 1326 650 
Q 1584 409 2034 409 
Q 2484 409 2743 651 
Q 3003 894 3003 1313 
Q 3003 1734 2745 1975 
Q 2488 2216 2034 2216 
z
M 1403 2484 
Q 997 2584 770 2862 
Q 544 3141 544 3541 
Q 544 4100 942 4425 
Q 1341 4750 2034 4750 
Q 2731 4750 3128 4425 
Q 3525 4100 3525 3541 
Q 3525 3141 3298 2862 
Q 3072 2584 2669 2484 
Q 3125 2378 3379 2068 
Q 3634 1759 3634 1313 
Q 3634 634 3220 271 
Q 2806 -91 2034 -91 
Q 1263 -91 848 271 
Q 434 634 434 1313 
Q 434 1759 690 2068 
Q 947 2378 1403 2484 
z
M 1172 3481 
Q 1172 3119 1398 2916 
Q 1625 2713 2034 2713 
Q 2441 2713 2670 2916 
Q 2900 3119 2900 3481 
Q 2900 3844 2670 4047 
Q 2441 4250 2034 4250 
Q 1625 4250 1398 4047 
Q 1172 3844 1172 3481 
z
" transform="scale(0.015625)"/>
       </defs>
       <use xlink:href="#DejaVuSans-38"/>
      </g>
     </g>
    </g>
    <g id="xtick_2">
     <g id="line2d_2">
      <path d="M 400.577898 301.735725 
L 400.577898 35.623725 
" clip-path="url(#p65d9425405)" style="fill: none; stroke: #cccccc; stroke-width: 0.8; stroke-linecap: round"/>
     </g>
     <g id="text_2">
      <!-- 128 -->
      <g style="fill: #262626" transform="translate(391.034148 316.334162) scale(0.1 -0.1)">
       <defs>
        <path id="DejaVuSans-31" d="M 794 531 
L 1825 531 
L 1825 4091 
L 703 3866 
L 703 4441 
L 1819 4666 
L 2450 4666 
L 2450 531 
L 3481 531 
L 3481 0 
L 794 0 
L 794 531 
z
" transform="scale(0.015625)"/>
        <path id="DejaVuSans-32" d="M 1228 531 
L 3431 531 
L 3431 0 
L 469 0 
L 469 531 
Q 828 903 1448 1529 
Q 2069 2156 2228 2338 
Q 2531 2678 2651 2914 
Q 2772 3150 2772 3378 
Q 2772 3750 2511 3984 
Q 2250 4219 1831 4219 
Q 1534 4219 1204 4116 
Q 875 4013 500 3803 
L 500 4441 
Q 881 4594 1212 4672 
Q 1544 4750 1819 4750 
Q 2544 4750 2975 4387 
Q 3406 4025 3406 3419 
Q 3406 3131 3298 2873 
Q 3191 2616 2906 2266 
Q 2828 2175 2409 1742 
Q 1991 1309 1228 531 
z
" transform="scale(0.015625)"/>
       </defs>
       <use xlink:href="#DejaVuSans-31"/>
       <use xlink:href="#DejaVuSans-32" transform="translate(63.623047 0)"/>
       <use xlink:href="#DejaVuSans-38" transform="translate(127.246094 0)"/>
      </g>
     </g>
    </g>
    <g id="xtick_3">
     <g id="line2d_3">
      <path d="M 75.923352 301.735725 
L 75.923352 35.623725 
" clip-path="url(#p65d9425405)" style="fill: none; stroke: #cccccc; stroke-width: 0.8; stroke-linecap: round"/>
     </g>
     <g id="text_3">
      <!-- 1 -->
      <g style="fill: #262626" transform="translate(72.742102 316.334162) scale(0.1 -0.1)">
       <use xlink:href="#DejaVuSans-31"/>
      </g>
     </g>
    </g>
    <g id="xtick_4">
     <g id="line2d_4">
      <path d="M 236.972457 301.735725 
L 236.972457 35.623725 
" clip-path="url(#p65d9425405)" style="fill: none; stroke: #cccccc; stroke-width: 0.8; stroke-linecap: round"/>
     </g>
     <g id="text_4">
      <!-- 64 -->
      <g style="fill: #262626" transform="translate(230.609957 316.334162) scale(0.1 -0.1)">
       <defs>
        <path id="DejaVuSans-36" d="M 2113 2584 
Q 1688 2584 1439 2293 
Q 1191 2003 1191 1497 
Q 1191 994 1439 701 
Q 1688 409 2113 409 
Q 2538 409 2786 701 
Q 3034 994 3034 1497 
Q 3034 2003 2786 2293 
Q 2538 2584 2113 2584 
z
M 3366 4563 
L 3366 3988 
Q 3128 4100 2886 4159 
Q 2644 4219 2406 4219 
Q 1781 4219 1451 3797 
Q 1122 3375 1075 2522 
Q 1259 2794 1537 2939 
Q 1816 3084 2150 3084 
Q 2853 3084 3261 2657 
Q 3669 2231 3669 1497 
Q 3669 778 3244 343 
Q 2819 -91 2113 -91 
Q 1303 -91 875 529 
Q 447 1150 447 2328 
Q 447 3434 972 4092 
Q 1497 4750 2381 4750 
Q 2619 4750 2861 4703 
Q 3103 4656 3366 4563 
z
" transform="scale(0.015625)"/>
        <path id="DejaVuSans-34" d="M 2419 4116 
L 825 1625 
L 2419 1625 
L 2419 4116 
z
M 2253 4666 
L 3047 4666 
L 3047 1625 
L 3713 1625 
L 3713 1100 
L 3047 1100 
L 3047 0 
L 2419 0 
L 2419 1100 
L 313 1100 
L 313 1709 
L 2253 4666 
z
" transform="scale(0.015625)"/>
       </defs>
       <use xlink:href="#DejaVuSans-36"/>
       <use xlink:href="#DejaVuSans-34" transform="translate(63.623047 0)"/>
      </g>
     </g>
    </g>
    <g id="xtick_5">
     <g id="line2d_5">
      <path d="M 155.169737 301.735725 
L 155.169737 35.623725 
" clip-path="url(#p65d9425405)" style="fill: none; stroke: #cccccc; stroke-width: 0.8; stroke-linecap: round"/>
     </g>
     <g id="text_5">
      <!-- 32 -->
      <g style="fill: #262626" transform="translate(148.807237 316.334162) scale(0.1 -0.1)">
       <defs>
        <path id="DejaVuSans-33" d="M 2597 2516 
Q 3050 2419 3304 2112 
Q 3559 1806 3559 1356 
Q 3559 666 3084 287 
Q 2609 -91 1734 -91 
Q 1441 -91 1130 -33 
Q 819 25 488 141 
L 488 750 
Q 750 597 1062 519 
Q 1375 441 1716 441 
Q 2309 441 2620 675 
Q 2931 909 2931 1356 
Q 2931 1769 2642 2001 
Q 2353 2234 1838 2234 
L 1294 2234 
L 1294 2753 
L 1863 2753 
Q 2328 2753 2575 2939 
Q 2822 3125 2822 3475 
Q 2822 3834 2567 4026 
Q 2313 4219 1838 4219 
Q 1578 4219 1281 4162 
Q 984 4106 628 3988 
L 628 4550 
Q 988 4650 1302 4700 
Q 1616 4750 1894 4750 
Q 2613 4750 3031 4423 
Q 3450 4097 3450 3541 
Q 3450 3153 3228 2886 
Q 3006 2619 2597 2516 
z
" transform="scale(0.015625)"/>
       </defs>
       <use xlink:href="#DejaVuSans-33"/>
       <use xlink:href="#DejaVuSans-32" transform="translate(63.623047 0)"/>
      </g>
     </g>
    </g>
    <g id="xtick_6">
     <g id="line2d_6">
      <path d="M 83.592357 301.735725 
L 83.592357 35.623725 
" clip-path="url(#p65d9425405)" style="fill: none; stroke: #cccccc; stroke-width: 0.8; stroke-linecap: round"/>
     </g>
     <g id="text_6">
      <!-- 4 -->
      <g style="fill: #262626" transform="translate(80.411107 316.334162) scale(0.1 -0.1)">
       <use xlink:href="#DejaVuSans-34"/>
      </g>
     </g>
    </g>
    <g id="xtick_7">
     <g id="line2d_7">
      <path d="M 114.268377 301.735725 
L 114.268377 35.623725 
" clip-path="url(#p65d9425405)" style="fill: none; stroke: #cccccc; stroke-width: 0.8; stroke-linecap: round"/>
     </g>
     <g id="text_7">
      <!-- 16 -->
      <g style="fill: #262626" transform="translate(107.905877 316.334162) scale(0.1 -0.1)">
       <use xlink:href="#DejaVuSans-31"/>
       <use xlink:href="#DejaVuSans-36" transform="translate(63.623047 0)"/>
      </g>
     </g>
    </g>
    <g id="text_8">
     <!-- IO Depth -->
     <g style="fill: #262626" transform="translate(216.020938 330.012287) scale(0.1 -0.1)">
      <defs>
       <path id="DejaVuSans-49" d="M 628 4666 
L 1259 4666 
L 1259 0 
L 628 0 
L 628 4666 
z
" transform="scale(0.015625)"/>
       <path id="DejaVuSans-4f" d="M 2522 4238 
Q 1834 4238 1429 3725 
Q 1025 3213 1025 2328 
Q 1025 1447 1429 934 
Q 1834 422 2522 422 
Q 3209 422 3611 934 
Q 4013 1447 4013 2328 
Q 4013 3213 3611 3725 
Q 3209 4238 2522 4238 
z
M 2522 4750 
Q 3503 4750 4090 4092 
Q 4678 3434 4678 2328 
Q 4678 1225 4090 567 
Q 3503 -91 2522 -91 
Q 1538 -91 948 565 
Q 359 1222 359 2328 
Q 359 3434 948 4092 
Q 1538 4750 2522 4750 
z
" transform="scale(0.015625)"/>
       <path id="DejaVuSans-20" transform="scale(0.015625)"/>
       <path id="DejaVuSans-44" d="M 1259 4147 
L 1259 519 
L 2022 519 
Q 2988 519 3436 956 
Q 3884 1394 3884 2338 
Q 3884 3275 3436 3711 
Q 2988 4147 2022 4147 
L 1259 4147 
z
M 628 4666 
L 1925 4666 
Q 3281 4666 3915 4102 
Q 4550 3538 4550 2338 
Q 4550 1131 3912 565 
Q 3275 0 1925 0 
L 628 0 
L 628 4666 
z
" transform="scale(0.015625)"/>
       <path id="DejaVuSans-65" d="M 3597 1894 
L 3597 1613 
L 953 1613 
Q 991 1019 1311 708 
Q 1631 397 2203 397 
Q 2534 397 2845 478 
Q 3156 559 3463 722 
L 3463 178 
Q 3153 47 2828 -22 
Q 2503 -91 2169 -91 
Q 1331 -91 842 396 
Q 353 884 353 1716 
Q 353 2575 817 3079 
Q 1281 3584 2069 3584 
Q 2775 3584 3186 3129 
Q 3597 2675 3597 1894 
z
M 3022 2063 
Q 3016 2534 2758 2815 
Q 2500 3097 2075 3097 
Q 1594 3097 1305 2825 
Q 1016 2553 972 2059 
L 3022 2063 
z
" transform="scale(0.015625)"/>
       <path id="DejaVuSans-70" d="M 1159 525 
L 1159 -1331 
L 581 -1331 
L 581 3500 
L 1159 3500 
L 1159 2969 
Q 1341 3281 1617 3432 
Q 1894 3584 2278 3584 
Q 2916 3584 3314 3078 
Q 3713 2572 3713 1747 
Q 3713 922 3314 415 
Q 2916 -91 2278 -91 
Q 1894 -91 1617 61 
Q 1341 213 1159 525 
z
M 3116 1747 
Q 3116 2381 2855 2742 
Q 2594 3103 2138 3103 
Q 1681 3103 1420 2742 
Q 1159 2381 1159 1747 
Q 1159 1113 1420 752 
Q 1681 391 2138 391 
Q 2594 391 2855 752 
Q 3116 1113 3116 1747 
z
" transform="scale(0.015625)"/>
       <path id="DejaVuSans-74" d="M 1172 4494 
L 1172 3500 
L 2356 3500 
L 2356 3053 
L 1172 3053 
L 1172 1153 
Q 1172 725 1289 603 
Q 1406 481 1766 481 
L 2356 481 
L 2356 0 
L 1766 0 
Q 1100 0 847 248 
Q 594 497 594 1153 
L 594 3053 
L 172 3053 
L 172 3500 
L 594 3500 
L 594 4494 
L 1172 4494 
z
" transform="scale(0.015625)"/>
       <path id="DejaVuSans-68" d="M 3513 2113 
L 3513 0 
L 2938 0 
L 2938 2094 
Q 2938 2591 2744 2837 
Q 2550 3084 2163 3084 
Q 1697 3084 1428 2787 
Q 1159 2491 1159 1978 
L 1159 0 
L 581 0 
L 581 4863 
L 1159 4863 
L 1159 2956 
Q 1366 3272 1645 3428 
Q 1925 3584 2291 3584 
Q 2894 3584 3203 3211 
Q 3513 2838 3513 2113 
z
" transform="scale(0.015625)"/>
      </defs>
      <use xlink:href="#DejaVuSans-49"/>
      <use xlink:href="#DejaVuSans-4f" transform="translate(29.492188 0)"/>
      <use xlink:href="#DejaVuSans-20" transform="translate(108.203125 0)"/>
      <use xlink:href="#DejaVuSans-44" transform="translate(139.990234 0)"/>
      <use xlink:href="#DejaVuSans-65" transform="translate(216.992188 0)"/>
      <use xlink:href="#DejaVuSans-70" transform="translate(278.515625 0)"/>
      <use xlink:href="#DejaVuSans-74" transform="translate(341.992188 0)"/>
      <use xlink:href="#DejaVuSans-68" transform="translate(381.201172 0)"/>
     </g>
    </g>
   </g>
   <g id="matplotlib.axis_2">
    <g id="ytick_1">
     <g id="line2d_8">
      <path d="M 59.690625 293.532892 
L 416.810625 293.532892 
" clip-path="url(#p65d9425405)" style="fill: none; stroke: #cccccc; stroke-width: 0.8; stroke-linecap: round"/>
     </g>
     <g id="text_9">
      <!-- 38000 -->
      <g style="fill: #262626" transform="translate(20.878125 297.332111) scale(0.1 -0.1)">
       <defs>
        <path id="DejaVuSans-30" d="M 2034 4250 
Q 1547 4250 1301 3770 
Q 1056 3291 1056 2328 
Q 1056 1369 1301 889 
Q 1547 409 2034 409 
Q 2525 409 2770 889 
Q 3016 1369 3016 2328 
Q 3016 3291 2770 3770 
Q 2525 4250 2034 4250 
z
M 2034 4750 
Q 2819 4750 3233 4129 
Q 3647 3509 3647 2328 
Q 3647 1150 3233 529 
Q 2819 -91 2034 -91 
Q 1250 -91 836 529 
Q 422 1150 422 2328 
Q 422 3509 836 4129 
Q 1250 4750 2034 4750 
z
" transform="scale(0.015625)"/>
       </defs>
       <use xlink:href="#DejaVuSans-33"/>
       <use xlink:href="#DejaVuSans-38" transform="translate(63.623047 0)"/>
       <use xlink:href="#DejaVuSans-30" transform="translate(127.246094 0)"/>
       <use xlink:href="#DejaVuSans-30" transform="translate(190.869141 0)"/>
       <use xlink:href="#DejaVuSans-30" transform="translate(254.492188 0)"/>
      </g>
     </g>
    </g>
    <g id="ytick_2">
     <g id="line2d_9">
      <path d="M 59.690625 258.459315 
L 416.810625 258.459315 
" clip-path="url(#p65d9425405)" style="fill: none; stroke: #cccccc; stroke-width: 0.8; stroke-linecap: round"/>
     </g>
     <g id="text_10">
      <!-- 40000 -->
      <g style="fill: #262626" transform="translate(20.878125 262.258533) scale(0.1 -0.1)">
       <use xlink:href="#DejaVuSans-34"/>
       <use xlink:href="#DejaVuSans-30" transform="translate(63.623047 0)"/>
       <use xlink:href="#DejaVuSans-30" transform="translate(127.246094 0)"/>
       <use xlink:href="#DejaVuSans-30" transform="translate(190.869141 0)"/>
       <use xlink:href="#DejaVuSans-30" transform="translate(254.492188 0)"/>
      </g>
     </g>
    </g>
    <g id="ytick_3">
     <g id="line2d_10">
      <path d="M 59.690625 223.385737 
L 416.810625 223.385737 
" clip-path="url(#p65d9425405)" style="fill: none; stroke: #cccccc; stroke-width: 0.8; stroke-linecap: round"/>
     </g>
     <g id="text_11">
      <!-- 42000 -->
      <g style="fill: #262626" transform="translate(20.878125 227.184956) scale(0.1 -0.1)">
       <use xlink:href="#DejaVuSans-34"/>
       <use xlink:href="#DejaVuSans-32" transform="translate(63.623047 0)"/>
       <use xlink:href="#DejaVuSans-30" transform="translate(127.246094 0)"/>
       <use xlink:href="#DejaVuSans-30" transform="translate(190.869141 0)"/>
       <use xlink:href="#DejaVuSans-30" transform="translate(254.492188 0)"/>
      </g>
     </g>
    </g>
    <g id="ytick_4">
     <g id="line2d_11">
      <path d="M 59.690625 188.31216 
L 416.810625 188.31216 
" clip-path="url(#p65d9425405)" style="fill: none; stroke: #cccccc; stroke-width: 0.8; stroke-linecap: round"/>
     </g>
     <g id="text_12">
      <!-- 44000 -->
      <g style="fill: #262626" transform="translate(20.878125 192.111379) scale(0.1 -0.1)">
       <use xlink:href="#DejaVuSans-34"/>
       <use xlink:href="#DejaVuSans-34" transform="translate(63.623047 0)"/>
       <use xlink:href="#DejaVuSans-30" transform="translate(127.246094 0)"/>
       <use xlink:href="#DejaVuSans-30" transform="translate(190.869141 0)"/>
       <use xlink:href="#DejaVuSans-30" transform="translate(254.492188 0)"/>
      </g>
     </g>
    </g>
    <g id="ytick_5">
     <g id="line2d_12">
      <path d="M 59.690625 153.238583 
L 416.810625 153.238583 
" clip-path="url(#p65d9425405)" style="fill: none; stroke: #cccccc; stroke-width: 0.8; stroke-linecap: round"/>
     </g>
     <g id="text_13">
      <!-- 46000 -->
      <g style="fill: #262626" transform="translate(20.878125 157.037801) scale(0.1 -0.1)">
       <use xlink:href="#DejaVuSans-34"/>
       <use xlink:href="#DejaVuSans-36" transform="translate(63.623047 0)"/>
       <use xlink:href="#DejaVuSans-30" transform="translate(127.246094 0)"/>
       <use xlink:href="#DejaVuSans-30" transform="translate(190.869141 0)"/>
       <use xlink:href="#DejaVuSans-30" transform="translate(254.492188 0)"/>
      </g>
     </g>
    </g>
    <g id="ytick_6">
     <g id="line2d_13">
      <path d="M 59.690625 118.165005 
L 416.810625 118.165005 
" clip-path="url(#p65d9425405)" style="fill: none; stroke: #cccccc; stroke-width: 0.8; stroke-linecap: round"/>
     </g>
     <g id="text_14">
      <!-- 48000 -->
      <g style="fill: #262626" transform="translate(20.878125 121.964224) scale(0.1 -0.1)">
       <use xlink:href="#DejaVuSans-34"/>
       <use xlink:href="#DejaVuSans-38" transform="translate(63.623047 0)"/>
       <use xlink:href="#DejaVuSans-30" transform="translate(127.246094 0)"/>
       <use xlink:href="#DejaVuSans-30" transform="translate(190.869141 0)"/>
       <use xlink:href="#DejaVuSans-30" transform="translate(254.492188 0)"/>
      </g>
     </g>
    </g>
    <g id="ytick_7">
     <g id="line2d_14">
      <path d="M 59.690625 83.091428 
L 416.810625 83.091428 
" clip-path="url(#p65d9425405)" style="fill: none; stroke: #cccccc; stroke-width: 0.8; stroke-linecap: round"/>
     </g>
     <g id="text_15">
      <!-- 50000 -->
      <g style="fill: #262626" transform="translate(20.878125 86.890647) scale(0.1 -0.1)">
       <defs>
        <path id="DejaVuSans-35" d="M 691 4666 
L 3169 4666 
L 3169 4134 
L 1269 4134 
L 1269 2991 
Q 1406 3038 1543 3061 
Q 1681 3084 1819 3084 
Q 2600 3084 3056 2656 
Q 3513 2228 3513 1497 
Q 3513 744 3044 326 
Q 2575 -91 1722 -91 
Q 1428 -91 1123 -41 
Q 819 9 494 109 
L 494 744 
Q 775 591 1075 516 
Q 1375 441 1709 441 
Q 2250 441 2565 725 
Q 2881 1009 2881 1497 
Q 2881 1984 2565 2268 
Q 2250 2553 1709 2553 
Q 1456 2553 1204 2497 
Q 953 2441 691 2322 
L 691 4666 
z
" transform="scale(0.015625)"/>
       </defs>
       <use xlink:href="#DejaVuSans-35"/>
       <use xlink:href="#DejaVuSans-30" transform="translate(63.623047 0)"/>
       <use xlink:href="#DejaVuSans-30" transform="translate(127.246094 0)"/>
       <use xlink:href="#DejaVuSans-30" transform="translate(190.869141 0)"/>
       <use xlink:href="#DejaVuSans-30" transform="translate(254.492188 0)"/>
      </g>
     </g>
    </g>
    <g id="ytick_8">
     <g id="line2d_15">
      <path d="M 59.690625 48.01785 
L 416.810625 48.01785 
" clip-path="url(#p65d9425405)" style="fill: none; stroke: #cccccc; stroke-width: 0.8; stroke-linecap: round"/>
     </g>
     <g id="text_16">
      <!-- 52000 -->
      <g style="fill: #262626" transform="translate(20.878125 51.817069) scale(0.1 -0.1)">
       <use xlink:href="#DejaVuSans-35"/>
       <use xlink:href="#DejaVuSans-32" transform="translate(63.623047 0)"/>
       <use xlink:href="#DejaVuSans-30" transform="translate(127.246094 0)"/>
       <use xlink:href="#DejaVuSans-30" transform="translate(190.869141 0)"/>
       <use xlink:href="#DejaVuSans-30" transform="translate(254.492188 0)"/>
      </g>
     </g>
    </g>
    <g id="text_17">
     <!-- IOPS -->
     <g style="fill: #262626" transform="translate(14.798438 180.279725) rotate(-90) scale(0.1 -0.1)">
      <defs>
       <path id="DejaVuSans-50" d="M 1259 4147 
L 1259 2394 
L 2053 2394 
Q 2494 2394 2734 2622 
Q 2975 2850 2975 3272 
Q 2975 3691 2734 3919 
Q 2494 4147 2053 4147 
L 1259 4147 
z
M 628 4666 
L 2053 4666 
Q 2838 4666 3239 4311 
Q 3641 3956 3641 3272 
Q 3641 2581 3239 2228 
Q 2838 1875 2053 1875 
L 1259 1875 
L 1259 0 
L 628 0 
L 628 4666 
z
" transform="scale(0.015625)"/>
       <path id="DejaVuSans-53" d="M 3425 4513 
L 3425 3897 
Q 3066 4069 2747 4153 
Q 2428 4238 2131 4238 
Q 1616 4238 1336 4038 
Q 1056 3838 1056 3469 
Q 1056 3159 1242 3001 
Q 1428 2844 1947 2747 
L 2328 2669 
Q 3034 2534 3370 2195 
Q 3706 1856 3706 1288 
Q 3706 609 3251 259 
Q 2797 -91 1919 -91 
Q 1588 -91 1214 -16 
Q 841 59 441 206 
L 441 856 
Q 825 641 1194 531 
Q 1563 422 1919 422 
Q 2459 422 2753 634 
Q 3047 847 3047 1241 
Q 3047 1584 2836 1778 
Q 2625 1972 2144 2069 
L 1759 2144 
Q 1053 2284 737 2584 
Q 422 2884 422 3419 
Q 422 4038 858 4394 
Q 1294 4750 2059 4750 
Q 2388 4750 2728 4690 
Q 3069 4631 3425 4513 
z
" transform="scale(0.015625)"/>
      </defs>
      <use xlink:href="#DejaVuSans-49"/>
      <use xlink:href="#DejaVuSans-4f" transform="translate(29.492188 0)"/>
      <use xlink:href="#DejaVuSans-50" transform="translate(108.203125 0)"/>
      <use xlink:href="#DejaVuSans-53" transform="translate(168.505859 0)"/>
     </g>
    </g>
   </g>
   <g id="FillBetweenPolyCollection_1"/>
   <g id="FillBetweenPolyCollection_2"/>
   <g id="FillBetweenPolyCollection_3"/>
   <g id="FillBetweenPolyCollection_4"/>
   <g id="line2d_16">
    <path d="M 75.923352 121.654826 
L 83.592357 47.719725 
L 93.817697 289.639725 
L 114.268377 132.966055 
L 155.169737 278.837063 
L 236.972457 164.795326 
L 400.577898 70.044057 
" clip-path="url(#p65d9425405)" style="fill: none; stroke: #3b0f70; stroke-width: 1.5; stroke-linecap: round"/>
   </g>
   <g id="line2d_17">
    <path d="M 75.923352 168.407905 
L 83.592357 103.399029 
L 93.817697 161.673778 
L 114.268377 155.781417 
L 155.169737 82.986207 
L 236.972457 142.856804 
L 400.577898 184.594361 
" clip-path="url(#p65d9425405)" style="fill: none; stroke: #8c2981; stroke-width: 1.5; stroke-linecap: round"/>
   </g>
   <g id="line2d_18">
    <path d="M 75.923352 239.940466 
L 83.592357 90.491953 
L 93.817697 202.797547 
L 114.268377 99.73384 
L 155.169737 82.96867 
L 236.972457 80.794108 
L 400.577898 108.098888 
" clip-path="url(#p65d9425405)" style="fill: none; stroke: #de4968; stroke-width: 1.5; stroke-linecap: round"/>
   </g>
   <g id="line2d_19">
    <path d="M 75.923352 186.961827 
L 83.592357 141.734449 
L 93.817697 227.910229 
L 114.268377 217.510913 
L 155.169737 103.819912 
L 236.972457 109.344 
L 400.577898 108.063815 
" clip-path="url(#p65d9425405)" style="fill: none; stroke: #fe9f6d; stroke-width: 1.5; stroke-linecap: round"/>
   </g>
   <g id="line2d_20"/>
   <g id="line2d_21"/>
   <g id="line2d_22"/>
   <g id="line2d_23"/>
   <g id="text_18">
    <path d="M 138.587383 226.845068 
L 139.022307 228.396184 
L 144.378246 226.89441 
L 143.566427 225.301302 
L 144.431501 225.058741 
L 145.240789 226.642822 
L 145.506974 227.592147 
L 139.285961 229.336482 
L 139.720884 230.887598 
L 138.922007 231.111598 
L 137.788506 227.069068 
L 138.587383 226.845068 
z
M 143.950196 234.089466 
Q 143.770911 233.450063 143.228069 233.198205 
Q 142.687152 232.94743 141.925887 233.160885 
Q 141.169135 233.373073 140.832941 233.869785 
Q 140.498673 234.367579 140.677958 235.006982 
Q 140.857243 235.646384 141.401168 235.896316 
Q 141.946598 236.145825 142.70335 235.933636 
Q 143.464615 235.720182 143.796296 235.224736 
Q 144.129481 234.728868 143.950196 234.089466 
z
M 147.45613 235.139742 
L 146.591056 235.382303 
Q 146.659158 234.976991 146.645835 234.588018 
Q 146.634017 234.198624 146.533618 233.840559 
Q 146.269964 232.90026 145.495865 232.581802 
Q 144.722188 232.264848 143.419042 232.553973 
Q 143.90588 232.716054 144.241302 233.073131 
Q 144.577146 233.431713 144.718043 233.934208 
Q 145.014601 234.991856 144.544303 235.785811 
Q 144.075509 236.579344 142.971222 236.888979 
Q 141.889503 237.192287 141.055771 236.736387 
Q 140.223543 236.280066 139.92572 235.217905 
Q 139.584024 233.999278 140.33625 233.093817 
Q 141.08998 232.187934 142.862254 231.690999 
Q 144.526206 231.224437 145.737621 231.736713 
Q 146.949037 232.248988 147.321949 233.578946 
Q 147.422348 233.937012 147.453725 234.320922 
Q 147.485101 234.704832 147.45613 235.139742 
z
" clip-path="url(#p65d9425405)" style="fill: #3b0f70; stroke: #ffffff; stroke-width: 5"/>
    <path d="M 138.587383 226.845068 
L 139.022307 228.396184 
L 144.378246 226.89441 
L 143.566427 225.301302 
L 144.431501 225.058741 
L 145.240789 226.642822 
L 145.506974 227.592147 
L 139.285961 229.336482 
L 139.720884 230.887598 
L 138.922007 231.111598 
L 137.788506 227.069068 
L 138.587383 226.845068 
z
M 143.950196 234.089466 
Q 143.770911 233.450063 143.228069 233.198205 
Q 142.687152 232.94743 141.925887 233.160885 
Q 141.169135 233.373073 140.832941 233.869785 
Q 140.498673 234.367579 140.677958 235.006982 
Q 140.857243 235.646384 141.401168 235.896316 
Q 141.946598 236.145825 142.70335 235.933636 
Q 143.464615 235.720182 143.796296 235.224736 
Q 144.129481 234.728868 143.950196 234.089466 
z
M 147.45613 235.139742 
L 146.591056 235.382303 
Q 146.659158 234.976991 146.645835 234.588018 
Q 146.634017 234.198624 146.533618 233.840559 
Q 146.269964 232.90026 145.495865 232.581802 
Q 144.722188 232.264848 143.419042 232.553973 
Q 143.90588 232.716054 144.241302 233.073131 
Q 144.577146 233.431713 144.718043 233.934208 
Q 145.014601 234.991856 144.544303 235.785811 
Q 144.075509 236.579344 142.971222 236.888979 
Q 141.889503 237.192287 141.055771 236.736387 
Q 140.223543 236.280066 139.92572 235.217905 
Q 139.584024 233.999278 140.33625 233.093817 
Q 141.08998 232.187934 142.862254 231.690999 
Q 144.526206 231.224437 145.737621 231.736713 
Q 146.949037 232.248988 147.321949 233.578946 
Q 147.422348 233.937012 147.453725 234.320922 
Q 147.485101 234.704832 147.45613 235.139742 
z
" clip-path="url(#p65d9425405)" style="fill: #3b0f70"/>
   </g>
   <g id="text_19">
    <path d="M 204.942151 117.961931 
Q 205.423813 118.502275 205.460769 119.12376 
Q 205.499909 119.744907 205.084639 120.312301 
Q 204.447892 121.182305 203.499227 121.221836 
Q 202.551484 121.260107 201.448219 120.452638 
Q 201.078782 120.182251 200.740174 119.822122 
Q 200.401565 119.461994 200.091263 119.010278 
L 200.653262 118.242405 
Q 200.842419 118.677099 201.163832 119.063367 
Q 201.486506 119.450559 201.916464 119.765241 
Q 202.664163 120.312475 203.272236 120.304427 
Q 203.880308 120.29638 204.29281 119.732769 
Q 204.673935 119.212028 204.523637 118.652809 
Q 204.374261 118.09233 203.724911 117.617076 
L 203.038995 117.115061 
L 203.517939 116.460667 
L 204.235377 116.985753 
Q 204.821684 117.414865 205.304765 117.408279 
Q 205.787846 117.401694 206.110834 116.960387 
Q 206.442127 116.507733 206.297786 116.030325 
Q 206.155628 115.55258 205.556712 115.114239 
Q 205.228885 114.874306 204.801804 114.672097 
Q 204.375646 114.468628 203.817882 114.288887 
L 204.336507 113.580275 
Q 204.882705 113.786404 205.324761 114.013126 
Q 205.766816 114.239848 206.11734 114.496393 
Q 207.023909 115.159902 207.249192 115.957947 
Q 207.476659 116.755655 206.96357 117.456702 
Q 206.605515 117.945921 206.079207 118.077708 
Q 205.552899 118.209496 204.942151 117.961931 
z
M 206.518337 122.959041 
L 209.296045 124.992017 
L 208.806026 125.661542 
L 205.071314 122.928144 
L 205.561333 122.258619 
Q 206.357277 122.120867 207.716706 121.903708 
Q 209.078318 121.686212 209.446751 121.603461 
Q 210.142556 121.454379 210.511647 121.267551 
Q 210.881999 121.081646 211.092402 120.794167 
Q 211.435692 120.325121 211.322544 119.78922 
Q 211.210318 119.252058 210.682012 118.865395 
Q 210.307532 118.591317 209.796392 118.416656 
Q 209.286514 118.242918 208.619893 118.161643 
L 209.208654 117.357205 
Q 209.830239 117.515886 210.319568 117.722992 
Q 210.810159 117.931021 211.1569 118.184797 
Q 212.071034 118.853843 212.279487 119.709276 
Q 212.488863 120.563449 211.929633 121.32754 
Q 211.66386 121.690672 211.289597 121.916313 
Q 210.917518 122.141616 210.235181 122.319918 
Q 210.052856 122.362677 209.124968 122.521974 
Q 208.19834 122.682193 206.518337 122.959041 
z
" clip-path="url(#p65d9425405)" style="fill: #8c2981; stroke: #ffffff; stroke-width: 5"/>
    <path d="M 204.942151 117.961931 
Q 205.423813 118.502275 205.460769 119.12376 
Q 205.499909 119.744907 205.084639 120.312301 
Q 204.447892 121.182305 203.499227 121.221836 
Q 202.551484 121.260107 201.448219 120.452638 
Q 201.078782 120.182251 200.740174 119.822122 
Q 200.401565 119.461994 200.091263 119.010278 
L 200.653262 118.242405 
Q 200.842419 118.677099 201.163832 119.063367 
Q 201.486506 119.450559 201.916464 119.765241 
Q 202.664163 120.312475 203.272236 120.304427 
Q 203.880308 120.29638 204.29281 119.732769 
Q 204.673935 119.212028 204.523637 118.652809 
Q 204.374261 118.09233 203.724911 117.617076 
L 203.038995 117.115061 
L 203.517939 116.460667 
L 204.235377 116.985753 
Q 204.821684 117.414865 205.304765 117.408279 
Q 205.787846 117.401694 206.110834 116.960387 
Q 206.442127 116.507733 206.297786 116.030325 
Q 206.155628 115.55258 205.556712 115.114239 
Q 205.228885 114.874306 204.801804 114.672097 
Q 204.375646 114.468628 203.817882 114.288887 
L 204.336507 113.580275 
Q 204.882705 113.786404 205.324761 114.013126 
Q 205.766816 114.239848 206.11734 114.496393 
Q 207.023909 115.159902 207.249192 115.957947 
Q 207.476659 116.755655 206.96357 117.456702 
Q 206.605515 117.945921 206.079207 118.077708 
Q 205.552899 118.209496 204.942151 117.961931 
z
M 206.518337 122.959041 
L 209.296045 124.992017 
L 208.806026 125.661542 
L 205.071314 122.928144 
L 205.561333 122.258619 
Q 206.357277 122.120867 207.716706 121.903708 
Q 209.078318 121.686212 209.446751 121.603461 
Q 210.142556 121.454379 210.511647 121.267551 
Q 210.881999 121.081646 211.092402 120.794167 
Q 211.435692 120.325121 211.322544 119.78922 
Q 211.210318 119.252058 210.682012 118.865395 
Q 210.307532 118.591317 209.796392 118.416656 
Q 209.286514 118.242918 208.619893 118.161643 
L 209.208654 117.357205 
Q 209.830239 117.515886 210.319568 117.722992 
Q 210.810159 117.931021 211.1569 118.184797 
Q 212.071034 118.853843 212.279487 119.709276 
Q 212.488863 120.563449 211.929633 121.32754 
Q 211.66386 121.690672 211.289597 121.916313 
Q 210.917518 122.141616 210.235181 122.319918 
Q 210.052856 122.362677 209.124968 122.521974 
Q 208.19834 122.682193 206.518337 122.959041 
z
" clip-path="url(#p65d9425405)" style="fill: #8c2981"/>
   </g>
   <g id="text_20">
    <path d="M 267.582648 84.606965 
Q 266.927645 84.497649 266.469041 84.882087 
Q 266.012235 85.265241 265.882084 86.04508 
Q 265.752705 86.820295 266.059555 87.335651 
Q 266.368203 87.849723 267.023206 87.95904 
Q 267.678209 88.068356 268.135529 87.682119 
Q 268.593107 87.294342 268.722486 86.519126 
Q 268.852636 85.739287 268.545015 85.228555 
Q 268.237651 84.716281 267.582648 84.606965 
z
M 270.022778 81.879252 
L 269.87488 82.765433 
Q 269.536886 82.531603 269.179095 82.378428 
Q 268.821562 82.223711 268.45476 82.162494 
Q 267.49152 82.001735 266.874385 82.567233 
Q 266.258791 83.132989 265.966952 84.43553 
Q 266.320492 84.063655 266.786237 83.911689 
Q 267.253523 83.759981 267.768279 83.84589 
Q 268.851731 84.026712 269.370703 84.789741 
Q 269.889933 85.551229 269.701137 86.682457 
Q 269.5162 87.790568 268.749309 88.351667 
Q 267.982675 88.911225 266.894599 88.729631 
Q 265.64624 88.521288 265.146087 87.455666 
Q 264.64619 86.388503 264.949189 84.572989 
Q 265.233668 82.86844 266.212037 81.989379 
Q 267.190405 81.110317 268.552811 81.337695 
Q 268.919613 81.398912 269.28049 81.533593 
Q 269.641368 81.668275 270.022778 81.879252 
z
M 274.723809 83.371924 
L 271.626442 86.801013 
L 274.083088 87.211013 
L 274.723809 83.371924 
z
M 274.609441 82.481576 
L 275.833141 82.685804 
L 275.050952 87.372544 
L 276.07738 87.543848 
L 275.942342 88.35297 
L 274.915914 88.181665 
L 274.632978 89.876967 
L 273.665115 89.715436 
L 273.948051 88.020134 
L 270.702318 87.478441 
L 270.858962 86.53986 
L 274.609441 82.481576 
z
" clip-path="url(#p65d9425405)" style="fill: #de4968; stroke: #ffffff; stroke-width: 5"/>
    <path d="M 267.582648 84.606965 
Q 266.927645 84.497649 266.469041 84.882087 
Q 266.012235 85.265241 265.882084 86.04508 
Q 265.752705 86.820295 266.059555 87.335651 
Q 266.368203 87.849723 267.023206 87.95904 
Q 267.678209 88.068356 268.135529 87.682119 
Q 268.593107 87.294342 268.722486 86.519126 
Q 268.852636 85.739287 268.545015 85.228555 
Q 268.237651 84.716281 267.582648 84.606965 
z
M 270.022778 81.879252 
L 269.87488 82.765433 
Q 269.536886 82.531603 269.179095 82.378428 
Q 268.821562 82.223711 268.45476 82.162494 
Q 267.49152 82.001735 266.874385 82.567233 
Q 266.258791 83.132989 265.966952 84.43553 
Q 266.320492 84.063655 266.786237 83.911689 
Q 267.253523 83.759981 267.768279 83.84589 
Q 268.851731 84.026712 269.370703 84.789741 
Q 269.889933 85.551229 269.701137 86.682457 
Q 269.5162 87.790568 268.749309 88.351667 
Q 267.982675 88.911225 266.894599 88.729631 
Q 265.64624 88.521288 265.146087 87.455666 
Q 264.64619 86.388503 264.949189 84.572989 
Q 265.233668 82.86844 266.212037 81.989379 
Q 267.190405 81.110317 268.552811 81.337695 
Q 268.919613 81.398912 269.28049 81.533593 
Q 269.641368 81.668275 270.022778 81.879252 
z
M 274.723809 83.371924 
L 271.626442 86.801013 
L 274.083088 87.211013 
L 274.723809 83.371924 
z
M 274.609441 82.481576 
L 275.833141 82.685804 
L 275.050952 87.372544 
L 276.07738 87.543848 
L 275.942342 88.35297 
L 274.915914 88.181665 
L 274.632978 89.876967 
L 273.665115 89.715436 
L 273.948051 88.020134 
L 270.702318 87.478441 
L 270.858962 86.53986 
L 274.609441 82.481576 
z
" clip-path="url(#p65d9425405)" style="fill: #de4968"/>
   </g>
   <g id="text_21">
    <path d="M 326.385253 110.574107 
L 327.996141 110.561502 
L 327.952617 104.999172 
L 326.202297 105.364441 
L 326.195267 104.466031 
L 327.936212 104.100835 
L 328.92212 104.093121 
L 328.972674 110.553861 
L 330.583562 110.541256 
L 330.590054 111.370918 
L 326.391745 111.403769 
L 326.385253 110.574107 
z
M 333.425467 110.519018 
L 336.867549 110.492084 
L 336.874041 111.321747 
L 332.246058 111.35796 
L 332.239566 110.528298 
Q 332.795938 109.942676 333.757005 108.957001 
Q 334.719623 107.969751 334.965827 107.683441 
Q 335.435093 107.148503 335.619702 106.778297 
Q 335.805874 106.408079 335.803086 106.05184 
Q 335.798538 105.470608 335.387877 105.108185 
Q 334.977204 104.7442 334.322537 104.749322 
Q 333.858488 104.752953 333.344139 104.917921 
Q 332.831351 105.082875 332.247999 105.415575 
L 332.240199 104.418731 
Q 332.833623 104.175017 333.349841 104.049099 
Q 333.867621 103.923169 334.297295 103.919807 
Q 335.430073 103.910943 336.107928 104.472844 
Q 336.785771 105.033182 336.79318 105.980028 
Q 336.796701 106.430014 336.63111 106.834447 
Q 336.46707 107.237306 336.02605 107.787649 
Q 335.905291 107.930785 335.255918 108.61245 
Q 334.608107 109.294102 333.425467 110.519018 
z
M 341.026313 107.82665 
Q 340.32321 107.832151 339.923043 108.211857 
Q 339.52444 108.59155 339.529587 109.249342 
Q 339.534746 109.908697 339.939243 110.282106 
Q 340.345302 110.655502 341.048405 110.650001 
Q 341.751509 110.644499 342.153225 110.263219 
Q 342.556492 109.880365 342.551369 109.225697 
Q 342.546222 108.567905 342.140163 108.194508 
Q 341.735666 107.821099 341.026313 107.82665 
z
M 340.037129 107.415627 
Q 339.401551 107.264346 339.043476 106.832759 
Q 338.68695 106.399598 338.68206 105.774617 
Q 338.675226 104.901206 339.293108 104.388544 
Q 339.912553 103.875868 340.995333 103.867396 
Q 342.084362 103.858874 342.708629 104.361818 
Q 343.332896 104.864761 343.33973 105.738172 
Q 343.34462 106.363153 342.993355 106.801852 
Q 342.643639 107.238977 342.015194 107.400149 
Q 342.728968 107.560194 343.129621 108.041449 
Q 343.531824 108.521129 343.537277 109.217983 
Q 343.545578 110.278888 342.903161 110.851119 
Q 342.260731 111.421788 341.054518 111.431227 
Q 339.849868 111.440653 339.197024 110.880119 
Q 338.545731 110.318011 338.53743 109.257105 
Q 338.531977 108.560252 338.928187 108.074324 
Q 339.325947 107.586822 340.037129 107.415627 
z
M 339.664013 105.860686 
Q 339.668439 106.426294 340.024035 106.740709 
Q 340.381194 107.055111 341.020237 107.050111 
Q 341.656155 107.045135 342.011474 106.725157 
Q 342.368357 106.405168 342.363931 105.83956 
Q 342.359493 105.27239 341.997647 104.958024 
Q 341.637364 104.643646 341.001445 104.648622 
Q 340.362403 104.653622 340.010208 104.973575 
Q 339.659575 105.293516 339.664013 105.860686 
z
" clip-path="url(#p65d9425405)" style="fill: #fe9f6d; stroke: #ffffff; stroke-width: 5"/>
    <path d="M 326.385253 110.574107 
L 327.996141 110.561502 
L 327.952617 104.999172 
L 326.202297 105.364441 
L 326.195267 104.466031 
L 327.936212 104.100835 
L 328.92212 104.093121 
L 328.972674 110.553861 
L 330.583562 110.541256 
L 330.590054 111.370918 
L 326.391745 111.403769 
L 326.385253 110.574107 
z
M 333.425467 110.519018 
L 336.867549 110.492084 
L 336.874041 111.321747 
L 332.246058 111.35796 
L 332.239566 110.528298 
Q 332.795938 109.942676 333.757005 108.957001 
Q 334.719623 107.969751 334.965827 107.683441 
Q 335.435093 107.148503 335.619702 106.778297 
Q 335.805874 106.408079 335.803086 106.05184 
Q 335.798538 105.470608 335.387877 105.108185 
Q 334.977204 104.7442 334.322537 104.749322 
Q 333.858488 104.752953 333.344139 104.917921 
Q 332.831351 105.082875 332.247999 105.415575 
L 332.240199 104.418731 
Q 332.833623 104.175017 333.349841 104.049099 
Q 333.867621 103.923169 334.297295 103.919807 
Q 335.430073 103.910943 336.107928 104.472844 
Q 336.785771 105.033182 336.79318 105.980028 
Q 336.796701 106.430014 336.63111 106.834447 
Q 336.46707 107.237306 336.02605 107.787649 
Q 335.905291 107.930785 335.255918 108.61245 
Q 334.608107 109.294102 333.425467 110.519018 
z
M 341.026313 107.82665 
Q 340.32321 107.832151 339.923043 108.211857 
Q 339.52444 108.59155 339.529587 109.249342 
Q 339.534746 109.908697 339.939243 110.282106 
Q 340.345302 110.655502 341.048405 110.650001 
Q 341.751509 110.644499 342.153225 110.263219 
Q 342.556492 109.880365 342.551369 109.225697 
Q 342.546222 108.567905 342.140163 108.194508 
Q 341.735666 107.821099 341.026313 107.82665 
z
M 340.037129 107.415627 
Q 339.401551 107.264346 339.043476 106.832759 
Q 338.68695 106.399598 338.68206 105.774617 
Q 338.675226 104.901206 339.293108 104.388544 
Q 339.912553 103.875868 340.995333 103.867396 
Q 342.084362 103.858874 342.708629 104.361818 
Q 343.332896 104.864761 343.33973 105.738172 
Q 343.34462 106.363153 342.993355 106.801852 
Q 342.643639 107.238977 342.015194 107.400149 
Q 342.728968 107.560194 343.129621 108.041449 
Q 343.531824 108.521129 343.537277 109.217983 
Q 343.545578 110.278888 342.903161 110.851119 
Q 342.260731 111.421788 341.054518 111.431227 
Q 339.849868 111.440653 339.197024 110.880119 
Q 338.545731 110.318011 338.53743 109.257105 
Q 338.531977 108.560252 338.928187 108.074324 
Q 339.325947 107.586822 340.037129 107.415627 
z
M 339.664013 105.860686 
Q 339.668439 106.426294 340.024035 106.740709 
Q 340.381194 107.055111 341.020237 107.050111 
Q 341.656155 107.045135 342.011474 106.725157 
Q 342.368357 106.405168 342.363931 105.83956 
Q 342.359493 105.27239 341.997647 104.958024 
Q 341.637364 104.643646 341.001445 104.648622 
Q 340.362403 104.653622 340.010208 104.973575 
Q 339.659575 105.293516 339.664013 105.860686 
z
" clip-path="url(#p65d9425405)" style="fill: #fe9f6d"/>
   </g>
   <g id="patch_3">
    <path d="M 59.690625 301.735725 
L 59.690625 35.623725 
" style="fill: none; stroke: #cccccc; stroke-width: 0.8; stroke-linejoin: miter; stroke-linecap: square"/>
   </g>
   <g id="patch_4">
    <path d="M 416.810625 301.735725 
L 416.810625 35.623725 
" style="fill: none; stroke: #cccccc; stroke-width: 0.8; stroke-linejoin: miter; stroke-linecap: square"/>
   </g>
   <g id="patch_5">
    <path d="M 59.690625 301.735725 
L 416.810625 301.735725 
" style="fill: none; stroke: #cccccc; stroke-width: 0.8; stroke-linejoin: miter; stroke-linecap: square"/>
   </g>
   <g id="patch_6">
    <path d="M 59.690625 35.623725 
L 416.810625 35.623725 
" style="fill: none; stroke: #cccccc; stroke-width: 0.8; stroke-linejoin: miter; stroke-linecap: square"/>
   </g>
   <g id="text_22">
    <!-- Block Size = 4K, Read-Write Type = Random Read-heavy 4:1 -->
    <g style="fill: #262626; opacity: 0.75" transform="translate(86.540469 30.882918) scale(0.1 -0.1)">
     <defs>
      <path id="DejaVuSans-42" d="M 1259 2228 
L 1259 519 
L 2272 519 
Q 2781 519 3026 730 
Q 3272 941 3272 1375 
Q 3272 1813 3026 2020 
Q 2781 2228 2272 2228 
L 1259 2228 
z
M 1259 4147 
L 1259 2741 
L 2194 2741 
Q 2656 2741 2882 2914 
Q 3109 3088 3109 3444 
Q 3109 3797 2882 3972 
Q 2656 4147 2194 4147 
L 1259 4147 
z
M 628 4666 
L 2241 4666 
Q 2963 4666 3353 4366 
Q 3744 4066 3744 3513 
Q 3744 3084 3544 2831 
Q 3344 2578 2956 2516 
Q 3422 2416 3680 2098 
Q 3938 1781 3938 1306 
Q 3938 681 3513 340 
Q 3088 0 2303 0 
L 628 0 
L 628 4666 
z
" transform="scale(0.015625)"/>
      <path id="DejaVuSans-6c" d="M 603 4863 
L 1178 4863 
L 1178 0 
L 603 0 
L 603 4863 
z
" transform="scale(0.015625)"/>
      <path id="DejaVuSans-6f" d="M 1959 3097 
Q 1497 3097 1228 2736 
Q 959 2375 959 1747 
Q 959 1119 1226 758 
Q 1494 397 1959 397 
Q 2419 397 2687 759 
Q 2956 1122 2956 1747 
Q 2956 2369 2687 2733 
Q 2419 3097 1959 3097 
z
M 1959 3584 
Q 2709 3584 3137 3096 
Q 3566 2609 3566 1747 
Q 3566 888 3137 398 
Q 2709 -91 1959 -91 
Q 1206 -91 779 398 
Q 353 888 353 1747 
Q 353 2609 779 3096 
Q 1206 3584 1959 3584 
z
" transform="scale(0.015625)"/>
      <path id="DejaVuSans-63" d="M 3122 3366 
L 3122 2828 
Q 2878 2963 2633 3030 
Q 2388 3097 2138 3097 
Q 1578 3097 1268 2742 
Q 959 2388 959 1747 
Q 959 1106 1268 751 
Q 1578 397 2138 397 
Q 2388 397 2633 464 
Q 2878 531 3122 666 
L 3122 134 
Q 2881 22 2623 -34 
Q 2366 -91 2075 -91 
Q 1284 -91 818 406 
Q 353 903 353 1747 
Q 353 2603 823 3093 
Q 1294 3584 2113 3584 
Q 2378 3584 2631 3529 
Q 2884 3475 3122 3366 
z
" transform="scale(0.015625)"/>
      <path id="DejaVuSans-6b" d="M 581 4863 
L 1159 4863 
L 1159 1991 
L 2875 3500 
L 3609 3500 
L 1753 1863 
L 3688 0 
L 2938 0 
L 1159 1709 
L 1159 0 
L 581 0 
L 581 4863 
z
" transform="scale(0.015625)"/>
      <path id="DejaVuSans-69" d="M 603 3500 
L 1178 3500 
L 1178 0 
L 603 0 
L 603 3500 
z
M 603 4863 
L 1178 4863 
L 1178 4134 
L 603 4134 
L 603 4863 
z
" transform="scale(0.015625)"/>
      <path id="DejaVuSans-7a" d="M 353 3500 
L 3084 3500 
L 3084 2975 
L 922 459 
L 3084 459 
L 3084 0 
L 275 0 
L 275 525 
L 2438 3041 
L 353 3041 
L 353 3500 
z
" transform="scale(0.015625)"/>
      <path id="DejaVuSans-3d" d="M 678 2906 
L 4684 2906 
L 4684 2381 
L 678 2381 
L 678 2906 
z
M 678 1631 
L 4684 1631 
L 4684 1100 
L 678 1100 
L 678 1631 
z
" transform="scale(0.015625)"/>
      <path id="DejaVuSans-4b" d="M 628 4666 
L 1259 4666 
L 1259 2694 
L 3353 4666 
L 4166 4666 
L 1850 2491 
L 4331 0 
L 3500 0 
L 1259 2247 
L 1259 0 
L 628 0 
L 628 4666 
z
" transform="scale(0.015625)"/>
      <path id="DejaVuSans-2c" d="M 750 794 
L 1409 794 
L 1409 256 
L 897 -744 
L 494 -744 
L 750 256 
L 750 794 
z
" transform="scale(0.015625)"/>
      <path id="DejaVuSans-52" d="M 2841 2188 
Q 3044 2119 3236 1894 
Q 3428 1669 3622 1275 
L 4263 0 
L 3584 0 
L 2988 1197 
Q 2756 1666 2539 1819 
Q 2322 1972 1947 1972 
L 1259 1972 
L 1259 0 
L 628 0 
L 628 4666 
L 2053 4666 
Q 2853 4666 3247 4331 
Q 3641 3997 3641 3322 
Q 3641 2881 3436 2590 
Q 3231 2300 2841 2188 
z
M 1259 4147 
L 1259 2491 
L 2053 2491 
Q 2509 2491 2742 2702 
Q 2975 2913 2975 3322 
Q 2975 3731 2742 3939 
Q 2509 4147 2053 4147 
L 1259 4147 
z
" transform="scale(0.015625)"/>
      <path id="DejaVuSans-61" d="M 2194 1759 
Q 1497 1759 1228 1600 
Q 959 1441 959 1056 
Q 959 750 1161 570 
Q 1363 391 1709 391 
Q 2188 391 2477 730 
Q 2766 1069 2766 1631 
L 2766 1759 
L 2194 1759 
z
M 3341 1997 
L 3341 0 
L 2766 0 
L 2766 531 
Q 2569 213 2275 61 
Q 1981 -91 1556 -91 
Q 1019 -91 701 211 
Q 384 513 384 1019 
Q 384 1609 779 1909 
Q 1175 2209 1959 2209 
L 2766 2209 
L 2766 2266 
Q 2766 2663 2505 2880 
Q 2244 3097 1772 3097 
Q 1472 3097 1187 3025 
Q 903 2953 641 2809 
L 641 3341 
Q 956 3463 1253 3523 
Q 1550 3584 1831 3584 
Q 2591 3584 2966 3190 
Q 3341 2797 3341 1997 
z
" transform="scale(0.015625)"/>
      <path id="DejaVuSans-64" d="M 2906 2969 
L 2906 4863 
L 3481 4863 
L 3481 0 
L 2906 0 
L 2906 525 
Q 2725 213 2448 61 
Q 2172 -91 1784 -91 
Q 1150 -91 751 415 
Q 353 922 353 1747 
Q 353 2572 751 3078 
Q 1150 3584 1784 3584 
Q 2172 3584 2448 3432 
Q 2725 3281 2906 2969 
z
M 947 1747 
Q 947 1113 1208 752 
Q 1469 391 1925 391 
Q 2381 391 2643 752 
Q 2906 1113 2906 1747 
Q 2906 2381 2643 2742 
Q 2381 3103 1925 3103 
Q 1469 3103 1208 2742 
Q 947 2381 947 1747 
z
" transform="scale(0.015625)"/>
      <path id="DejaVuSans-2d" d="M 313 2009 
L 1997 2009 
L 1997 1497 
L 313 1497 
L 313 2009 
z
" transform="scale(0.015625)"/>
      <path id="DejaVuSans-57" d="M 213 4666 
L 850 4666 
L 1831 722 
L 2809 4666 
L 3519 4666 
L 4500 722 
L 5478 4666 
L 6119 4666 
L 4947 0 
L 4153 0 
L 3169 4050 
L 2175 0 
L 1381 0 
L 213 4666 
z
" transform="scale(0.015625)"/>
      <path id="DejaVuSans-72" d="M 2631 2963 
Q 2534 3019 2420 3045 
Q 2306 3072 2169 3072 
Q 1681 3072 1420 2755 
Q 1159 2438 1159 1844 
L 1159 0 
L 581 0 
L 581 3500 
L 1159 3500 
L 1159 2956 
Q 1341 3275 1631 3429 
Q 1922 3584 2338 3584 
Q 2397 3584 2469 3576 
Q 2541 3569 2628 3553 
L 2631 2963 
z
" transform="scale(0.015625)"/>
      <path id="DejaVuSans-54" d="M -19 4666 
L 3928 4666 
L 3928 4134 
L 2272 4134 
L 2272 0 
L 1638 0 
L 1638 4134 
L -19 4134 
L -19 4666 
z
" transform="scale(0.015625)"/>
      <path id="DejaVuSans-79" d="M 2059 -325 
Q 1816 -950 1584 -1140 
Q 1353 -1331 966 -1331 
L 506 -1331 
L 506 -850 
L 844 -850 
Q 1081 -850 1212 -737 
Q 1344 -625 1503 -206 
L 1606 56 
L 191 3500 
L 800 3500 
L 1894 763 
L 2988 3500 
L 3597 3500 
L 2059 -325 
z
" transform="scale(0.015625)"/>
      <path id="DejaVuSans-6e" d="M 3513 2113 
L 3513 0 
L 2938 0 
L 2938 2094 
Q 2938 2591 2744 2837 
Q 2550 3084 2163 3084 
Q 1697 3084 1428 2787 
Q 1159 2491 1159 1978 
L 1159 0 
L 581 0 
L 581 3500 
L 1159 3500 
L 1159 2956 
Q 1366 3272 1645 3428 
Q 1925 3584 2291 3584 
Q 2894 3584 3203 3211 
Q 3513 2838 3513 2113 
z
" transform="scale(0.015625)"/>
      <path id="DejaVuSans-6d" d="M 3328 2828 
Q 3544 3216 3844 3400 
Q 4144 3584 4550 3584 
Q 5097 3584 5394 3201 
Q 5691 2819 5691 2113 
L 5691 0 
L 5113 0 
L 5113 2094 
Q 5113 2597 4934 2840 
Q 4756 3084 4391 3084 
Q 3944 3084 3684 2787 
Q 3425 2491 3425 1978 
L 3425 0 
L 2847 0 
L 2847 2094 
Q 2847 2600 2669 2842 
Q 2491 3084 2119 3084 
Q 1678 3084 1418 2786 
Q 1159 2488 1159 1978 
L 1159 0 
L 581 0 
L 581 3500 
L 1159 3500 
L 1159 2956 
Q 1356 3278 1631 3431 
Q 1906 3584 2284 3584 
Q 2666 3584 2933 3390 
Q 3200 3197 3328 2828 
z
" transform="scale(0.015625)"/>
      <path id="DejaVuSans-76" d="M 191 3500 
L 800 3500 
L 1894 563 
L 2988 3500 
L 3597 3500 
L 2284 0 
L 1503 0 
L 191 3500 
z
" transform="scale(0.015625)"/>
      <path id="DejaVuSans-3a" d="M 750 794 
L 1409 794 
L 1409 0 
L 750 0 
L 750 794 
z
M 750 3309 
L 1409 3309 
L 1409 2516 
L 750 2516 
L 750 3309 
z
" transform="scale(0.015625)"/>
     </defs>
     <use xlink:href="#DejaVuSans-42"/>
     <use xlink:href="#DejaVuSans-6c" transform="translate(68.603516 0)"/>
     <use xlink:href="#DejaVuSans-6f" transform="translate(96.386719 0)"/>
     <use xlink:href="#DejaVuSans-63" transform="translate(157.568359 0)"/>
     <use xlink:href="#DejaVuSans-6b" transform="translate(212.548828 0)"/>
     <use xlink:href="#DejaVuSans-20" transform="translate(270.458984 0)"/>
     <use xlink:href="#DejaVuSans-53" transform="translate(302.246094 0)"/>
     <use xlink:href="#DejaVuSans-69" transform="translate(365.722656 0)"/>
     <use xlink:href="#DejaVuSans-7a" transform="translate(393.505859 0)"/>
     <use xlink:href="#DejaVuSans-65" transform="translate(445.996094 0)"/>
     <use xlink:href="#DejaVuSans-20" transform="translate(507.519531 0)"/>
     <use xlink:href="#DejaVuSans-3d" transform="translate(539.306641 0)"/>
     <use xlink:href="#DejaVuSans-20" transform="translate(623.095703 0)"/>
     <use xlink:href="#DejaVuSans-34" transform="translate(654.882812 0)"/>
     <use xlink:href="#DejaVuSans-4b" transform="translate(718.505859 0)"/>
     <use xlink:href="#DejaVuSans-2c" transform="translate(784.082031 0)"/>
     <use xlink:href="#DejaVuSans-20" transform="translate(815.869141 0)"/>
     <use xlink:href="#DejaVuSans-52" transform="translate(847.65625 0)"/>
     <use xlink:href="#DejaVuSans-65" transform="translate(912.638672 0)"/>
     <use xlink:href="#DejaVuSans-61" transform="translate(974.162109 0)"/>
     <use xlink:href="#DejaVuSans-64" transform="translate(1035.441406 0)"/>
     <use xlink:href="#DejaVuSans-2d" transform="translate(1098.917969 0)"/>
     <use xlink:href="#DejaVuSans-57" transform="translate(1131.001953 0)"/>
     <use xlink:href="#DejaVuSans-72" transform="translate(1225.378906 0)"/>
     <use xlink:href="#DejaVuSans-69" transform="translate(1266.492188 0)"/>
     <use xlink:href="#DejaVuSans-74" transform="translate(1294.275391 0)"/>
     <use xlink:href="#DejaVuSans-65" transform="translate(1333.484375 0)"/>
     <use xlink:href="#DejaVuSans-20" transform="translate(1395.007812 0)"/>
     <use xlink:href="#DejaVuSans-54" transform="translate(1426.794922 0)"/>
     <use xlink:href="#DejaVuSans-79" transform="translate(1472.253906 0)"/>
     <use xlink:href="#DejaVuSans-70" transform="translate(1531.433594 0)"/>
     <use xlink:href="#DejaVuSans-65" transform="translate(1594.910156 0)"/>
     <use xlink:href="#DejaVuSans-20" transform="translate(1656.433594 0)"/>
     <use xlink:href="#DejaVuSans-3d" transform="translate(1688.220703 0)"/>
     <use xlink:href="#DejaVuSans-20" transform="translate(1772.009766 0)"/>
     <use xlink:href="#DejaVuSans-52" transform="translate(1803.796875 0)"/>
     <use xlink:href="#DejaVuSans-61" transform="translate(1871.029297 0)"/>
     <use xlink:href="#DejaVuSans-6e" transform="translate(1932.308594 0)"/>
     <use xlink:href="#DejaVuSans-64" transform="translate(1995.6875 0)"/>
     <use xlink:href="#DejaVuSans-6f" transform="translate(2059.164062 0)"/>
     <use xlink:href="#DejaVuSans-6d" transform="translate(2120.345703 0)"/>
     <use xlink:href="#DejaVuSans-20" transform="translate(2217.757812 0)"/>
     <use xlink:href="#DejaVuSans-52" transform="translate(2249.544922 0)"/>
     <use xlink:href="#DejaVuSans-65" transform="translate(2314.527344 0)"/>
     <use xlink:href="#DejaVuSans-61" transform="translate(2376.050781 0)"/>
     <use xlink:href="#DejaVuSans-64" transform="translate(2437.330078 0)"/>
     <use xlink:href="#DejaVuSans-2d" transform="translate(2500.806641 0)"/>
     <use xlink:href="#DejaVuSans-68" transform="translate(2536.890625 0)"/>
     <use xlink:href="#DejaVuSans-65" transform="translate(2600.269531 0)"/>
     <use xlink:href="#DejaVuSans-61" transform="translate(2661.792969 0)"/>
     <use xlink:href="#DejaVuSans-76" transform="translate(2723.072266 0)"/>
     <use xlink:href="#DejaVuSans-79" transform="translate(2782.251953 0)"/>
     <use xlink:href="#DejaVuSans-20" transform="translate(2841.431641 0)"/>
     <use xlink:href="#DejaVuSans-34" transform="translate(2873.21875 0)"/>
     <use xlink:href="#DejaVuSans-3a" transform="translate(2936.841797 0)"/>
     <use xlink:href="#DejaVuSans-31" transform="translate(2970.533203 0)"/>
    </g>
   </g>
   <g id="text_23">
    <!-- IOPS vs IO Depth -->
    <g style="fill: #262626" transform="translate(180.632812 16.318125) scale(0.12 -0.12)">
     <defs>
      <path id="DejaVuSans-Bold-49" d="M 588 4666 
L 1791 4666 
L 1791 0 
L 588 0 
L 588 4666 
z
" transform="scale(0.015625)"/>
      <path id="DejaVuSans-Bold-4f" d="M 2719 3878 
Q 2169 3878 1866 3472 
Q 1563 3066 1563 2328 
Q 1563 1594 1866 1187 
Q 2169 781 2719 781 
Q 3272 781 3575 1187 
Q 3878 1594 3878 2328 
Q 3878 3066 3575 3472 
Q 3272 3878 2719 3878 
z
M 2719 4750 
Q 3844 4750 4481 4106 
Q 5119 3463 5119 2328 
Q 5119 1197 4481 553 
Q 3844 -91 2719 -91 
Q 1597 -91 958 553 
Q 319 1197 319 2328 
Q 319 3463 958 4106 
Q 1597 4750 2719 4750 
z
" transform="scale(0.015625)"/>
      <path id="DejaVuSans-Bold-50" d="M 588 4666 
L 2584 4666 
Q 3475 4666 3951 4270 
Q 4428 3875 4428 3144 
Q 4428 2409 3951 2014 
Q 3475 1619 2584 1619 
L 1791 1619 
L 1791 0 
L 588 0 
L 588 4666 
z
M 1791 3794 
L 1791 2491 
L 2456 2491 
Q 2806 2491 2997 2661 
Q 3188 2831 3188 3144 
Q 3188 3456 2997 3625 
Q 2806 3794 2456 3794 
L 1791 3794 
z
" transform="scale(0.015625)"/>
      <path id="DejaVuSans-Bold-53" d="M 3834 4519 
L 3834 3531 
Q 3450 3703 3084 3790 
Q 2719 3878 2394 3878 
Q 1963 3878 1756 3759 
Q 1550 3641 1550 3391 
Q 1550 3203 1689 3098 
Q 1828 2994 2194 2919 
L 2706 2816 
Q 3484 2659 3812 2340 
Q 4141 2022 4141 1434 
Q 4141 663 3683 286 
Q 3225 -91 2284 -91 
Q 1841 -91 1394 -6 
Q 947 78 500 244 
L 500 1259 
Q 947 1022 1364 901 
Q 1781 781 2169 781 
Q 2563 781 2772 912 
Q 2981 1044 2981 1288 
Q 2981 1506 2839 1625 
Q 2697 1744 2272 1838 
L 1806 1941 
Q 1106 2091 782 2419 
Q 459 2747 459 3303 
Q 459 4000 909 4375 
Q 1359 4750 2203 4750 
Q 2588 4750 2994 4692 
Q 3400 4634 3834 4519 
z
" transform="scale(0.015625)"/>
      <path id="DejaVuSans-Bold-20" transform="scale(0.015625)"/>
      <path id="DejaVuSans-Bold-76" d="M 97 3500 
L 1216 3500 
L 2088 1081 
L 2956 3500 
L 4078 3500 
L 2700 0 
L 1472 0 
L 97 3500 
z
" transform="scale(0.015625)"/>
      <path id="DejaVuSans-Bold-73" d="M 3272 3391 
L 3272 2541 
Q 2913 2691 2578 2766 
Q 2244 2841 1947 2841 
Q 1628 2841 1473 2761 
Q 1319 2681 1319 2516 
Q 1319 2381 1436 2309 
Q 1553 2238 1856 2203 
L 2053 2175 
Q 2913 2066 3209 1816 
Q 3506 1566 3506 1031 
Q 3506 472 3093 190 
Q 2681 -91 1863 -91 
Q 1516 -91 1145 -36 
Q 775 19 384 128 
L 384 978 
Q 719 816 1070 734 
Q 1422 653 1784 653 
Q 2113 653 2278 743 
Q 2444 834 2444 1013 
Q 2444 1163 2330 1236 
Q 2216 1309 1875 1350 
L 1678 1375 
Q 931 1469 631 1722 
Q 331 1975 331 2491 
Q 331 3047 712 3315 
Q 1094 3584 1881 3584 
Q 2191 3584 2531 3537 
Q 2872 3491 3272 3391 
z
" transform="scale(0.015625)"/>
      <path id="DejaVuSans-Bold-44" d="M 1791 3756 
L 1791 909 
L 2222 909 
Q 2959 909 3348 1275 
Q 3738 1641 3738 2338 
Q 3738 3031 3350 3393 
Q 2963 3756 2222 3756 
L 1791 3756 
z
M 588 4666 
L 1856 4666 
Q 2919 4666 3439 4514 
Q 3959 4363 4331 4000 
Q 4659 3684 4818 3271 
Q 4978 2859 4978 2338 
Q 4978 1809 4818 1395 
Q 4659 981 4331 666 
Q 3956 303 3431 151 
Q 2906 0 1856 0 
L 588 0 
L 588 4666 
z
" transform="scale(0.015625)"/>
      <path id="DejaVuSans-Bold-65" d="M 4031 1759 
L 4031 1441 
L 1416 1441 
Q 1456 1047 1700 850 
Q 1944 653 2381 653 
Q 2734 653 3104 758 
Q 3475 863 3866 1075 
L 3866 213 
Q 3469 63 3072 -14 
Q 2675 -91 2278 -91 
Q 1328 -91 801 392 
Q 275 875 275 1747 
Q 275 2603 792 3093 
Q 1309 3584 2216 3584 
Q 3041 3584 3536 3087 
Q 4031 2591 4031 1759 
z
M 2881 2131 
Q 2881 2450 2695 2645 
Q 2509 2841 2209 2841 
Q 1884 2841 1681 2658 
Q 1478 2475 1428 2131 
L 2881 2131 
z
" transform="scale(0.015625)"/>
      <path id="DejaVuSans-Bold-70" d="M 1656 506 
L 1656 -1331 
L 538 -1331 
L 538 3500 
L 1656 3500 
L 1656 2988 
Q 1888 3294 2169 3439 
Q 2450 3584 2816 3584 
Q 3463 3584 3878 3070 
Q 4294 2556 4294 1747 
Q 4294 938 3878 423 
Q 3463 -91 2816 -91 
Q 2450 -91 2169 54 
Q 1888 200 1656 506 
z
M 2400 2772 
Q 2041 2772 1848 2508 
Q 1656 2244 1656 1747 
Q 1656 1250 1848 986 
Q 2041 722 2400 722 
Q 2759 722 2948 984 
Q 3138 1247 3138 1747 
Q 3138 2247 2948 2509 
Q 2759 2772 2400 2772 
z
" transform="scale(0.015625)"/>
      <path id="DejaVuSans-Bold-74" d="M 1759 4494 
L 1759 3500 
L 2913 3500 
L 2913 2700 
L 1759 2700 
L 1759 1216 
Q 1759 972 1856 886 
Q 1953 800 2241 800 
L 2816 800 
L 2816 0 
L 1856 0 
Q 1194 0 917 276 
Q 641 553 641 1216 
L 641 2700 
L 84 2700 
L 84 3500 
L 641 3500 
L 641 4494 
L 1759 4494 
z
" transform="scale(0.015625)"/>
      <path id="DejaVuSans-Bold-68" d="M 4056 2131 
L 4056 0 
L 2931 0 
L 2931 347 
L 2931 1625 
Q 2931 2084 2911 2256 
Q 2891 2428 2841 2509 
Q 2775 2619 2662 2680 
Q 2550 2741 2406 2741 
Q 2056 2741 1856 2470 
Q 1656 2200 1656 1722 
L 1656 0 
L 538 0 
L 538 4863 
L 1656 4863 
L 1656 2988 
Q 1909 3294 2193 3439 
Q 2478 3584 2822 3584 
Q 3428 3584 3742 3212 
Q 4056 2841 4056 2131 
z
" transform="scale(0.015625)"/>
     </defs>
     <use xlink:href="#DejaVuSans-Bold-49"/>
     <use xlink:href="#DejaVuSans-Bold-4f" transform="translate(37.207031 0)"/>
     <use xlink:href="#DejaVuSans-Bold-50" transform="translate(122.216797 0)"/>
     <use xlink:href="#DejaVuSans-Bold-53" transform="translate(195.507812 0)"/>
     <use xlink:href="#DejaVuSans-Bold-20" transform="translate(267.529297 0)"/>
     <use xlink:href="#DejaVuSans-Bold-76" transform="translate(302.34375 0)"/>
     <use xlink:href="#DejaVuSans-Bold-73" transform="translate(367.529297 0)"/>
     <use xlink:href="#DejaVuSans-Bold-20" transform="translate(427.050781 0)"/>
     <use xlink:href="#DejaVuSans-Bold-49" transform="translate(461.865234 0)"/>
     <use xlink:href="#DejaVuSans-Bold-4f" transform="translate(499.072266 0)"/>
     <use xlink:href="#DejaVuSans-Bold-20" transform="translate(584.082031 0)"/>
     <use xlink:href="#DejaVuSans-Bold-44" transform="translate(618.896484 0)"/>
     <use xlink:href="#DejaVuSans-Bold-65" transform="translate(701.904297 0)"/>
     <use xlink:href="#DejaVuSans-Bold-70" transform="translate(769.726562 0)"/>
     <use xlink:href="#DejaVuSans-Bold-74" transform="translate(841.308594 0)"/>
     <use xlink:href="#DejaVuSans-Bold-68" transform="translate(889.111328 0)"/>
    </g>
   </g>
   <g id="legend_1">
    <g id="text_24">
     <!-- Number of Jobs -->
     <g style="fill: #262626" transform="translate(420.296875 142.08285) scale(0.1 -0.1)">
      <defs>
       <path id="DejaVuSans-4e" d="M 628 4666 
L 1478 4666 
L 3547 763 
L 3547 4666 
L 4159 4666 
L 4159 0 
L 3309 0 
L 1241 3903 
L 1241 0 
L 628 0 
L 628 4666 
z
" transform="scale(0.015625)"/>
       <path id="DejaVuSans-75" d="M 544 1381 
L 544 3500 
L 1119 3500 
L 1119 1403 
Q 1119 906 1312 657 
Q 1506 409 1894 409 
Q 2359 409 2629 706 
Q 2900 1003 2900 1516 
L 2900 3500 
L 3475 3500 
L 3475 0 
L 2900 0 
L 2900 538 
Q 2691 219 2414 64 
Q 2138 -91 1772 -91 
Q 1169 -91 856 284 
Q 544 659 544 1381 
z
M 1991 3584 
L 1991 3584 
z
" transform="scale(0.015625)"/>
       <path id="DejaVuSans-62" d="M 3116 1747 
Q 3116 2381 2855 2742 
Q 2594 3103 2138 3103 
Q 1681 3103 1420 2742 
Q 1159 2381 1159 1747 
Q 1159 1113 1420 752 
Q 1681 391 2138 391 
Q 2594 391 2855 752 
Q 3116 1113 3116 1747 
z
M 1159 2969 
Q 1341 3281 1617 3432 
Q 1894 3584 2278 3584 
Q 2916 3584 3314 3078 
Q 3713 2572 3713 1747 
Q 3713 922 3314 415 
Q 2916 -91 2278 -91 
Q 1894 -91 1617 61 
Q 1341 213 1159 525 
L 1159 0 
L 581 0 
L 581 4863 
L 1159 4863 
L 1159 2969 
z
" transform="scale(0.015625)"/>
       <path id="DejaVuSans-66" d="M 2375 4863 
L 2375 4384 
L 1825 4384 
Q 1516 4384 1395 4259 
Q 1275 4134 1275 3809 
L 1275 3500 
L 2222 3500 
L 2222 3053 
L 1275 3053 
L 1275 0 
L 697 0 
L 697 3053 
L 147 3053 
L 147 3500 
L 697 3500 
L 697 3744 
Q 697 4328 969 4595 
Q 1241 4863 1831 4863 
L 2375 4863 
z
" transform="scale(0.015625)"/>
       <path id="DejaVuSans-4a" d="M 628 4666 
L 1259 4666 
L 1259 325 
Q 1259 -519 939 -900 
Q 619 -1281 -91 -1281 
L -331 -1281 
L -331 -750 
L -134 -750 
Q 284 -750 456 -515 
Q 628 -281 628 325 
L 628 4666 
z
" transform="scale(0.015625)"/>
       <path id="DejaVuSans-73" d="M 2834 3397 
L 2834 2853 
Q 2591 2978 2328 3040 
Q 2066 3103 1784 3103 
Q 1356 3103 1142 2972 
Q 928 2841 928 2578 
Q 928 2378 1081 2264 
Q 1234 2150 1697 2047 
L 1894 2003 
Q 2506 1872 2764 1633 
Q 3022 1394 3022 966 
Q 3022 478 2636 193 
Q 2250 -91 1575 -91 
Q 1294 -91 989 -36 
Q 684 19 347 128 
L 347 722 
Q 666 556 975 473 
Q 1284 391 1588 391 
Q 1994 391 2212 530 
Q 2431 669 2431 922 
Q 2431 1156 2273 1281 
Q 2116 1406 1581 1522 
L 1381 1569 
Q 847 1681 609 1914 
Q 372 2147 372 2553 
Q 372 3047 722 3315 
Q 1072 3584 1716 3584 
Q 2034 3584 2315 3537 
Q 2597 3491 2834 3397 
z
" transform="scale(0.015625)"/>
      </defs>
      <use xlink:href="#DejaVuSans-4e"/>
      <use xlink:href="#DejaVuSans-75" transform="translate(74.804688 0)"/>
      <use xlink:href="#DejaVuSans-6d" transform="translate(138.183594 0)"/>
      <use xlink:href="#DejaVuSans-62" transform="translate(235.595703 0)"/>
      <use xlink:href="#DejaVuSans-65" transform="translate(299.072266 0)"/>
      <use xlink:href="#DejaVuSans-72" transform="translate(360.595703 0)"/>
      <use xlink:href="#DejaVuSans-20" transform="translate(401.708984 0)"/>
      <use xlink:href="#DejaVuSans-6f" transform="translate(433.496094 0)"/>
      <use xlink:href="#DejaVuSans-66" transform="translate(494.677734 0)"/>
      <use xlink:href="#DejaVuSans-20" transform="translate(529.882812 0)"/>
      <use xlink:href="#DejaVuSans-4a" transform="translate(561.669922 0)"/>
      <use xlink:href="#DejaVuSans-6f" transform="translate(591.162109 0)"/>
      <use xlink:href="#DejaVuSans-62" transform="translate(652.34375 0)"/>
      <use xlink:href="#DejaVuSans-73" transform="translate(715.820312 0)"/>
     </g>
    </g>
    <g id="line2d_24">
     <path d="M 435.15 153.260975 
L 445.15 153.260975 
L 455.15 153.260975 
" style="fill: none; stroke: #3b0f70; stroke-width: 1.5; stroke-linecap: round"/>
    </g>
    <g id="text_25">
     <!-- 16 -->
     <g style="fill: #262626" transform="translate(463.15 156.760975) scale(0.1 -0.1)">
      <use xlink:href="#DejaVuSans-31"/>
      <use xlink:href="#DejaVuSans-36" transform="translate(63.623047 0)"/>
     </g>
    </g>
    <g id="line2d_25">
     <path d="M 435.15 167.9391 
L 445.15 167.9391 
L 455.15 167.9391 
" style="fill: none; stroke: #8c2981; stroke-width: 1.5; stroke-linecap: round"/>
    </g>
    <g id="text_26">
     <!-- 32 -->
     <g style="fill: #262626" transform="translate(463.15 171.4391) scale(0.1 -0.1)">
      <use xlink:href="#DejaVuSans-33"/>
      <use xlink:href="#DejaVuSans-32" transform="translate(63.623047 0)"/>
     </g>
    </g>
    <g id="line2d_26">
     <path d="M 435.15 182.617225 
L 445.15 182.617225 
L 455.15 182.617225 
" style="fill: none; stroke: #de4968; stroke-width: 1.5; stroke-linecap: round"/>
    </g>
    <g id="text_27">
     <!-- 64 -->
     <g style="fill: #262626" transform="translate(463.15 186.117225) scale(0.1 -0.1)">
      <use xlink:href="#DejaVuSans-36"/>
      <use xlink:href="#DejaVuSans-34" transform="translate(63.623047 0)"/>
     </g>
    </g>
    <g id="line2d_27">
     <path d="M 435.15 197.29535 
L 445.15 197.29535 
L 455.15 197.29535 
" style="fill: none; stroke: #fe9f6d; stroke-width: 1.5; stroke-linecap: round"/>
    </g>
    <g id="text_28">
     <!-- 128 -->
     <g style="fill: #262626" transform="translate(463.15 200.79535) scale(0.1 -0.1)">
      <use xlink:href="#DejaVuSans-31"/>
      <use xlink:href="#DejaVuSans-32" transform="translate(63.623047 0)"/>
      <use xlink:href="#DejaVuSans-38" transform="translate(127.246094 0)"/>
     </g>
    </g>
   </g>
  </g>
 </g>
 <defs>
  <clipPath id="p65d9425405">
   <rect x="59.690625" y="35.623725" width="357.12" height="266.112"/>
  </clipPath>
 </defs>
</svg>
