<?xml version="1.0" encoding="utf-8" standalone="no"?>
<!DOCTYPE svg PUBLIC "-//W3C//DTD SVG 1.1//EN"
  "http://www.w3.org/Graphics/SVG/1.1/DTD/svg11.dtd">
<svg xmlns:xlink="http://www.w3.org/1999/xlink" width="508.290625pt" height="339.291975pt" viewBox="0 0 508.290625 339.291975" xmlns="http://www.w3.org/2000/svg" version="1.1">
 <metadata>
  <rdf:RDF xmlns:dc="http://purl.org/dc/elements/1.1/" xmlns:cc="http://creativecommons.org/ns#" xmlns:rdf="http://www.w3.org/1999/02/22-rdf-syntax-ns#">
   <cc:Work>
    <dc:type rdf:resource="http://purl.org/dc/dcmitype/StillImage"/>
    <dc:date>2025-09-11T11:34:34.984200</dc:date>
    <dc:format>image/svg+xml</dc:format>
    <dc:creator>
     <cc:Agent>
      <dc:title>Matplotlib v3.10.6, https://matplotlib.org/</dc:title>
     </cc:Agent>
    </dc:creator>
   </cc:Work>
  </rdf:RDF>
 </metadata>
 <defs>
  <style type="text/css">*{stroke-linejoin: round; stroke-linecap: butt}</style>
 </defs>
 <g id="figure_1">
  <g id="patch_1">
   <path d="M 0 339.291975 
L 508.290625 339.291975 
L 508.290625 0 
L 0 0 
z
" style="fill: #ffffff"/>
  </g>
  <g id="axes_1">
   <g id="patch_2">
    <path d="M 59.690625 301.735725 
L 416.810625 301.735725 
L 416.810625 35.623725 
L 59.690625 35.623725 
z
" style="fill: #ffffff"/>
   </g>
   <g id="matplotlib.axis_1">
    <g id="xtick_1">
     <g id="line2d_1">
      <path d="M 400.577898 301.735725 
L 400.577898 35.623725 
" clip-path="url(#pbec0aae4e5)" style="fill: none; stroke: #cccccc; stroke-width: 0.8; stroke-linecap: round"/>
     </g>
     <g id="text_1">
      <!-- 128 -->
      <g style="fill: #262626" transform="translate(391.034148 316.334162) scale(0.1 -0.1)">
       <defs>
        <path id="DejaVuSans-31" d="M 794 531 
L 1825 531 
L 1825 4091 
L 703 3866 
L 703 4441 
L 1819 4666 
L 2450 4666 
L 2450 531 
L 3481 531 
L 3481 0 
L 794 0 
L 794 531 
z
" transform="scale(0.015625)"/>
        <path id="DejaVuSans-32" d="M 1228 531 
L 3431 531 
L 3431 0 
L 469 0 
L 469 531 
Q 828 903 1448 1529 
Q 2069 2156 2228 2338 
Q 2531 2678 2651 2914 
Q 2772 3150 2772 3378 
Q 2772 3750 2511 3984 
Q 2250 4219 1831 4219 
Q 1534 4219 1204 4116 
Q 875 4013 500 3803 
L 500 4441 
Q 881 4594 1212 4672 
Q 1544 4750 1819 4750 
Q 2544 4750 2975 4387 
Q 3406 4025 3406 3419 
Q 3406 3131 3298 2873 
Q 3191 2616 2906 2266 
Q 2828 2175 2409 1742 
Q 1991 1309 1228 531 
z
" transform="scale(0.015625)"/>
        <path id="DejaVuSans-38" d="M 2034 2216 
Q 1584 2216 1326 1975 
Q 1069 1734 1069 1313 
Q 1069 891 1326 650 
Q 1584 409 2034 409 
Q 2484 409 2743 651 
Q 3003 894 3003 1313 
Q 3003 1734 2745 1975 
Q 2488 2216 2034 2216 
z
M 1403 2484 
Q 997 2584 770 2862 
Q 544 3141 544 3541 
Q 544 4100 942 4425 
Q 1341 4750 2034 4750 
Q 2731 4750 3128 4425 
Q 3525 4100 3525 3541 
Q 3525 3141 3298 2862 
Q 3072 2584 2669 2484 
Q 3125 2378 3379 2068 
Q 3634 1759 3634 1313 
Q 3634 634 3220 271 
Q 2806 -91 2034 -91 
Q 1263 -91 848 271 
Q 434 634 434 1313 
Q 434 1759 690 2068 
Q 947 2378 1403 2484 
z
M 1172 3481 
Q 1172 3119 1398 2916 
Q 1625 2713 2034 2713 
Q 2441 2713 2670 2916 
Q 2900 3119 2900 3481 
Q 2900 3844 2670 4047 
Q 2441 4250 2034 4250 
Q 1625 4250 1398 4047 
Q 1172 3844 1172 3481 
z
" transform="scale(0.015625)"/>
       </defs>
       <use xlink:href="#DejaVuSans-31"/>
       <use xlink:href="#DejaVuSans-32" transform="translate(63.623047 0)"/>
       <use xlink:href="#DejaVuSans-38" transform="translate(127.246094 0)"/>
      </g>
     </g>
    </g>
    <g id="xtick_2">
     <g id="line2d_2">
      <path d="M 122.302573 301.735725 
L 122.302573 35.623725 
" clip-path="url(#pbec0aae4e5)" style="fill: none; stroke: #cccccc; stroke-width: 0.8; stroke-linecap: round"/>
     </g>
     <g id="text_2">
      <!-- 32 -->
      <g style="fill: #262626" transform="translate(115.940073 316.334162) scale(0.1 -0.1)">
       <defs>
        <path id="DejaVuSans-33" d="M 2597 2516 
Q 3050 2419 3304 2112 
Q 3559 1806 3559 1356 
Q 3559 666 3084 287 
Q 2609 -91 1734 -91 
Q 1441 -91 1130 -33 
Q 819 25 488 141 
L 488 750 
Q 750 597 1062 519 
Q 1375 441 1716 441 
Q 2309 441 2620 675 
Q 2931 909 2931 1356 
Q 2931 1769 2642 2001 
Q 2353 2234 1838 2234 
L 1294 2234 
L 1294 2753 
L 1863 2753 
Q 2328 2753 2575 2939 
Q 2822 3125 2822 3475 
Q 2822 3834 2567 4026 
Q 2313 4219 1838 4219 
Q 1578 4219 1281 4162 
Q 984 4106 628 3988 
L 628 4550 
Q 988 4650 1302 4700 
Q 1616 4750 1894 4750 
Q 2613 4750 3031 4423 
Q 3450 4097 3450 3541 
Q 3450 3153 3228 2886 
Q 3006 2619 2597 2516 
z
" transform="scale(0.015625)"/>
       </defs>
       <use xlink:href="#DejaVuSans-33"/>
       <use xlink:href="#DejaVuSans-32" transform="translate(63.623047 0)"/>
      </g>
     </g>
    </g>
    <g id="xtick_3">
     <g id="line2d_3">
      <path d="M 215.061015 301.735725 
L 215.061015 35.623725 
" clip-path="url(#pbec0aae4e5)" style="fill: none; stroke: #cccccc; stroke-width: 0.8; stroke-linecap: round"/>
     </g>
     <g id="text_3">
      <!-- 64 -->
      <g style="fill: #262626" transform="translate(208.698515 316.334162) scale(0.1 -0.1)">
       <defs>
        <path id="DejaVuSans-36" d="M 2113 2584 
Q 1688 2584 1439 2293 
Q 1191 2003 1191 1497 
Q 1191 994 1439 701 
Q 1688 409 2113 409 
Q 2538 409 2786 701 
Q 3034 994 3034 1497 
Q 3034 2003 2786 2293 
Q 2538 2584 2113 2584 
z
M 3366 4563 
L 3366 3988 
Q 3128 4100 2886 4159 
Q 2644 4219 2406 4219 
Q 1781 4219 1451 3797 
Q 1122 3375 1075 2522 
Q 1259 2794 1537 2939 
Q 1816 3084 2150 3084 
Q 2853 3084 3261 2657 
Q 3669 2231 3669 1497 
Q 3669 778 3244 343 
Q 2819 -91 2113 -91 
Q 1303 -91 875 529 
Q 447 1150 447 2328 
Q 447 3434 972 4092 
Q 1497 4750 2381 4750 
Q 2619 4750 2861 4703 
Q 3103 4656 3366 4563 
z
" transform="scale(0.015625)"/>
        <path id="DejaVuSans-34" d="M 2419 4116 
L 825 1625 
L 2419 1625 
L 2419 4116 
z
M 2253 4666 
L 3047 4666 
L 3047 1625 
L 3713 1625 
L 3713 1100 
L 3047 1100 
L 3047 0 
L 2419 0 
L 2419 1100 
L 313 1100 
L 313 1709 
L 2253 4666 
z
" transform="scale(0.015625)"/>
       </defs>
       <use xlink:href="#DejaVuSans-36"/>
       <use xlink:href="#DejaVuSans-34" transform="translate(63.623047 0)"/>
      </g>
     </g>
    </g>
    <g id="xtick_4">
     <g id="line2d_4">
      <path d="M 75.923352 301.735725 
L 75.923352 35.623725 
" clip-path="url(#pbec0aae4e5)" style="fill: none; stroke: #cccccc; stroke-width: 0.8; stroke-linecap: round"/>
     </g>
     <g id="text_4">
      <!-- 16 -->
      <g style="fill: #262626" transform="translate(69.560852 316.334162) scale(0.1 -0.1)">
       <use xlink:href="#DejaVuSans-31"/>
       <use xlink:href="#DejaVuSans-36" transform="translate(63.623047 0)"/>
      </g>
     </g>
    </g>
    <g id="text_5">
     <!-- Number of Jobs -->
     <g style="fill: #262626" transform="translate(199.85375 330.012287) scale(0.1 -0.1)">
      <defs>
       <path id="DejaVuSans-4e" d="M 628 4666 
L 1478 4666 
L 3547 763 
L 3547 4666 
L 4159 4666 
L 4159 0 
L 3309 0 
L 1241 3903 
L 1241 0 
L 628 0 
L 628 4666 
z
" transform="scale(0.015625)"/>
       <path id="DejaVuSans-75" d="M 544 1381 
L 544 3500 
L 1119 3500 
L 1119 1403 
Q 1119 906 1312 657 
Q 1506 409 1894 409 
Q 2359 409 2629 706 
Q 2900 1003 2900 1516 
L 2900 3500 
L 3475 3500 
L 3475 0 
L 2900 0 
L 2900 538 
Q 2691 219 2414 64 
Q 2138 -91 1772 -91 
Q 1169 -91 856 284 
Q 544 659 544 1381 
z
M 1991 3584 
L 1991 3584 
z
" transform="scale(0.015625)"/>
       <path id="DejaVuSans-6d" d="M 3328 2828 
Q 3544 3216 3844 3400 
Q 4144 3584 4550 3584 
Q 5097 3584 5394 3201 
Q 5691 2819 5691 2113 
L 5691 0 
L 5113 0 
L 5113 2094 
Q 5113 2597 4934 2840 
Q 4756 3084 4391 3084 
Q 3944 3084 3684 2787 
Q 3425 2491 3425 1978 
L 3425 0 
L 2847 0 
L 2847 2094 
Q 2847 2600 2669 2842 
Q 2491 3084 2119 3084 
Q 1678 3084 1418 2786 
Q 1159 2488 1159 1978 
L 1159 0 
L 581 0 
L 581 3500 
L 1159 3500 
L 1159 2956 
Q 1356 3278 1631 3431 
Q 1906 3584 2284 3584 
Q 2666 3584 2933 3390 
Q 3200 3197 3328 2828 
z
" transform="scale(0.015625)"/>
       <path id="DejaVuSans-62" d="M 3116 1747 
Q 3116 2381 2855 2742 
Q 2594 3103 2138 3103 
Q 1681 3103 1420 2742 
Q 1159 2381 1159 1747 
Q 1159 1113 1420 752 
Q 1681 391 2138 391 
Q 2594 391 2855 752 
Q 3116 1113 3116 1747 
z
M 1159 2969 
Q 1341 3281 1617 3432 
Q 1894 3584 2278 3584 
Q 2916 3584 3314 3078 
Q 3713 2572 3713 1747 
Q 3713 922 3314 415 
Q 2916 -91 2278 -91 
Q 1894 -91 1617 61 
Q 1341 213 1159 525 
L 1159 0 
L 581 0 
L 581 4863 
L 1159 4863 
L 1159 2969 
z
" transform="scale(0.015625)"/>
       <path id="DejaVuSans-65" d="M 3597 1894 
L 3597 1613 
L 953 1613 
Q 991 1019 1311 708 
Q 1631 397 2203 397 
Q 2534 397 2845 478 
Q 3156 559 3463 722 
L 3463 178 
Q 3153 47 2828 -22 
Q 2503 -91 2169 -91 
Q 1331 -91 842 396 
Q 353 884 353 1716 
Q 353 2575 817 3079 
Q 1281 3584 2069 3584 
Q 2775 3584 3186 3129 
Q 3597 2675 3597 1894 
z
M 3022 2063 
Q 3016 2534 2758 2815 
Q 2500 3097 2075 3097 
Q 1594 3097 1305 2825 
Q 1016 2553 972 2059 
L 3022 2063 
z
" transform="scale(0.015625)"/>
       <path id="DejaVuSans-72" d="M 2631 2963 
Q 2534 3019 2420 3045 
Q 2306 3072 2169 3072 
Q 1681 3072 1420 2755 
Q 1159 2438 1159 1844 
L 1159 0 
L 581 0 
L 581 3500 
L 1159 3500 
L 1159 2956 
Q 1341 3275 1631 3429 
Q 1922 3584 2338 3584 
Q 2397 3584 2469 3576 
Q 2541 3569 2628 3553 
L 2631 2963 
z
" transform="scale(0.015625)"/>
       <path id="DejaVuSans-20" transform="scale(0.015625)"/>
       <path id="DejaVuSans-6f" d="M 1959 3097 
Q 1497 3097 1228 2736 
Q 959 2375 959 1747 
Q 959 1119 1226 758 
Q 1494 397 1959 397 
Q 2419 397 2687 759 
Q 2956 1122 2956 1747 
Q 2956 2369 2687 2733 
Q 2419 3097 1959 3097 
z
M 1959 3584 
Q 2709 3584 3137 3096 
Q 3566 2609 3566 1747 
Q 3566 888 3137 398 
Q 2709 -91 1959 -91 
Q 1206 -91 779 398 
Q 353 888 353 1747 
Q 353 2609 779 3096 
Q 1206 3584 1959 3584 
z
" transform="scale(0.015625)"/>
       <path id="DejaVuSans-66" d="M 2375 4863 
L 2375 4384 
L 1825 4384 
Q 1516 4384 1395 4259 
Q 1275 4134 1275 3809 
L 1275 3500 
L 2222 3500 
L 2222 3053 
L 1275 3053 
L 1275 0 
L 697 0 
L 697 3053 
L 147 3053 
L 147 3500 
L 697 3500 
L 697 3744 
Q 697 4328 969 4595 
Q 1241 4863 1831 4863 
L 2375 4863 
z
" transform="scale(0.015625)"/>
       <path id="DejaVuSans-4a" d="M 628 4666 
L 1259 4666 
L 1259 325 
Q 1259 -519 939 -900 
Q 619 -1281 -91 -1281 
L -331 -1281 
L -331 -750 
L -134 -750 
Q 284 -750 456 -515 
Q 628 -281 628 325 
L 628 4666 
z
" transform="scale(0.015625)"/>
       <path id="DejaVuSans-73" d="M 2834 3397 
L 2834 2853 
Q 2591 2978 2328 3040 
Q 2066 3103 1784 3103 
Q 1356 3103 1142 2972 
Q 928 2841 928 2578 
Q 928 2378 1081 2264 
Q 1234 2150 1697 2047 
L 1894 2003 
Q 2506 1872 2764 1633 
Q 3022 1394 3022 966 
Q 3022 478 2636 193 
Q 2250 -91 1575 -91 
Q 1294 -91 989 -36 
Q 684 19 347 128 
L 347 722 
Q 666 556 975 473 
Q 1284 391 1588 391 
Q 1994 391 2212 530 
Q 2431 669 2431 922 
Q 2431 1156 2273 1281 
Q 2116 1406 1581 1522 
L 1381 1569 
Q 847 1681 609 1914 
Q 372 2147 372 2553 
Q 372 3047 722 3315 
Q 1072 3584 1716 3584 
Q 2034 3584 2315 3537 
Q 2597 3491 2834 3397 
z
" transform="scale(0.015625)"/>
      </defs>
      <use xlink:href="#DejaVuSans-4e"/>
      <use xlink:href="#DejaVuSans-75" transform="translate(74.804688 0)"/>
      <use xlink:href="#DejaVuSans-6d" transform="translate(138.183594 0)"/>
      <use xlink:href="#DejaVuSans-62" transform="translate(235.595703 0)"/>
      <use xlink:href="#DejaVuSans-65" transform="translate(299.072266 0)"/>
      <use xlink:href="#DejaVuSans-72" transform="translate(360.595703 0)"/>
      <use xlink:href="#DejaVuSans-20" transform="translate(401.708984 0)"/>
      <use xlink:href="#DejaVuSans-6f" transform="translate(433.496094 0)"/>
      <use xlink:href="#DejaVuSans-66" transform="translate(494.677734 0)"/>
      <use xlink:href="#DejaVuSans-20" transform="translate(529.882812 0)"/>
      <use xlink:href="#DejaVuSans-4a" transform="translate(561.669922 0)"/>
      <use xlink:href="#DejaVuSans-6f" transform="translate(591.162109 0)"/>
      <use xlink:href="#DejaVuSans-62" transform="translate(652.34375 0)"/>
      <use xlink:href="#DejaVuSans-73" transform="translate(715.820312 0)"/>
     </g>
    </g>
   </g>
   <g id="matplotlib.axis_2">
    <g id="ytick_1">
     <g id="line2d_5">
      <path d="M 59.690625 293.869953 
L 416.810625 293.869953 
" clip-path="url(#pbec0aae4e5)" style="fill: none; stroke: #cccccc; stroke-width: 0.8; stroke-linecap: round"/>
     </g>
     <g id="text_6">
      <!-- 36000 -->
      <g style="fill: #262626" transform="translate(20.878125 297.669172) scale(0.1 -0.1)">
       <defs>
        <path id="DejaVuSans-30" d="M 2034 4250 
Q 1547 4250 1301 3770 
Q 1056 3291 1056 2328 
Q 1056 1369 1301 889 
Q 1547 409 2034 409 
Q 2525 409 2770 889 
Q 3016 1369 3016 2328 
Q 3016 3291 2770 3770 
Q 2525 4250 2034 4250 
z
M 2034 4750 
Q 2819 4750 3233 4129 
Q 3647 3509 3647 2328 
Q 3647 1150 3233 529 
Q 2819 -91 2034 -91 
Q 1250 -91 836 529 
Q 422 1150 422 2328 
Q 422 3509 836 4129 
Q 1250 4750 2034 4750 
z
" transform="scale(0.015625)"/>
       </defs>
       <use xlink:href="#DejaVuSans-33"/>
       <use xlink:href="#DejaVuSans-36" transform="translate(63.623047 0)"/>
       <use xlink:href="#DejaVuSans-30" transform="translate(127.246094 0)"/>
       <use xlink:href="#DejaVuSans-30" transform="translate(190.869141 0)"/>
       <use xlink:href="#DejaVuSans-30" transform="translate(254.492188 0)"/>
      </g>
     </g>
    </g>
    <g id="ytick_2">
     <g id="line2d_6">
      <path d="M 59.690625 263.216126 
L 416.810625 263.216126 
" clip-path="url(#pbec0aae4e5)" style="fill: none; stroke: #cccccc; stroke-width: 0.8; stroke-linecap: round"/>
     </g>
     <g id="text_7">
      <!-- 38000 -->
      <g style="fill: #262626" transform="translate(20.878125 267.015345) scale(0.1 -0.1)">
       <use xlink:href="#DejaVuSans-33"/>
       <use xlink:href="#DejaVuSans-38" transform="translate(63.623047 0)"/>
       <use xlink:href="#DejaVuSans-30" transform="translate(127.246094 0)"/>
       <use xlink:href="#DejaVuSans-30" transform="translate(190.869141 0)"/>
       <use xlink:href="#DejaVuSans-30" transform="translate(254.492188 0)"/>
      </g>
     </g>
    </g>
    <g id="ytick_3">
     <g id="line2d_7">
      <path d="M 59.690625 232.5623 
L 416.810625 232.5623 
" clip-path="url(#pbec0aae4e5)" style="fill: none; stroke: #cccccc; stroke-width: 0.8; stroke-linecap: round"/>
     </g>
     <g id="text_8">
      <!-- 40000 -->
      <g style="fill: #262626" transform="translate(20.878125 236.361519) scale(0.1 -0.1)">
       <use xlink:href="#DejaVuSans-34"/>
       <use xlink:href="#DejaVuSans-30" transform="translate(63.623047 0)"/>
       <use xlink:href="#DejaVuSans-30" transform="translate(127.246094 0)"/>
       <use xlink:href="#DejaVuSans-30" transform="translate(190.869141 0)"/>
       <use xlink:href="#DejaVuSans-30" transform="translate(254.492188 0)"/>
      </g>
     </g>
    </g>
    <g id="ytick_4">
     <g id="line2d_8">
      <path d="M 59.690625 201.908473 
L 416.810625 201.908473 
" clip-path="url(#pbec0aae4e5)" style="fill: none; stroke: #cccccc; stroke-width: 0.8; stroke-linecap: round"/>
     </g>
     <g id="text_9">
      <!-- 42000 -->
      <g style="fill: #262626" transform="translate(20.878125 205.707692) scale(0.1 -0.1)">
       <use xlink:href="#DejaVuSans-34"/>
       <use xlink:href="#DejaVuSans-32" transform="translate(63.623047 0)"/>
       <use xlink:href="#DejaVuSans-30" transform="translate(127.246094 0)"/>
       <use xlink:href="#DejaVuSans-30" transform="translate(190.869141 0)"/>
       <use xlink:href="#DejaVuSans-30" transform="translate(254.492188 0)"/>
      </g>
     </g>
    </g>
    <g id="ytick_5">
     <g id="line2d_9">
      <path d="M 59.690625 171.254646 
L 416.810625 171.254646 
" clip-path="url(#pbec0aae4e5)" style="fill: none; stroke: #cccccc; stroke-width: 0.8; stroke-linecap: round"/>
     </g>
     <g id="text_10">
      <!-- 44000 -->
      <g style="fill: #262626" transform="translate(20.878125 175.053865) scale(0.1 -0.1)">
       <use xlink:href="#DejaVuSans-34"/>
       <use xlink:href="#DejaVuSans-34" transform="translate(63.623047 0)"/>
       <use xlink:href="#DejaVuSans-30" transform="translate(127.246094 0)"/>
       <use xlink:href="#DejaVuSans-30" transform="translate(190.869141 0)"/>
       <use xlink:href="#DejaVuSans-30" transform="translate(254.492188 0)"/>
      </g>
     </g>
    </g>
    <g id="ytick_6">
     <g id="line2d_10">
      <path d="M 59.690625 140.60082 
L 416.810625 140.60082 
" clip-path="url(#pbec0aae4e5)" style="fill: none; stroke: #cccccc; stroke-width: 0.8; stroke-linecap: round"/>
     </g>
     <g id="text_11">
      <!-- 46000 -->
      <g style="fill: #262626" transform="translate(20.878125 144.400039) scale(0.1 -0.1)">
       <use xlink:href="#DejaVuSans-34"/>
       <use xlink:href="#DejaVuSans-36" transform="translate(63.623047 0)"/>
       <use xlink:href="#DejaVuSans-30" transform="translate(127.246094 0)"/>
       <use xlink:href="#DejaVuSans-30" transform="translate(190.869141 0)"/>
       <use xlink:href="#DejaVuSans-30" transform="translate(254.492188 0)"/>
      </g>
     </g>
    </g>
    <g id="ytick_7">
     <g id="line2d_11">
      <path d="M 59.690625 109.946993 
L 416.810625 109.946993 
" clip-path="url(#pbec0aae4e5)" style="fill: none; stroke: #cccccc; stroke-width: 0.8; stroke-linecap: round"/>
     </g>
     <g id="text_12">
      <!-- 48000 -->
      <g style="fill: #262626" transform="translate(20.878125 113.746212) scale(0.1 -0.1)">
       <use xlink:href="#DejaVuSans-34"/>
       <use xlink:href="#DejaVuSans-38" transform="translate(63.623047 0)"/>
       <use xlink:href="#DejaVuSans-30" transform="translate(127.246094 0)"/>
       <use xlink:href="#DejaVuSans-30" transform="translate(190.869141 0)"/>
       <use xlink:href="#DejaVuSans-30" transform="translate(254.492188 0)"/>
      </g>
     </g>
    </g>
    <g id="ytick_8">
     <g id="line2d_12">
      <path d="M 59.690625 79.293166 
L 416.810625 79.293166 
" clip-path="url(#pbec0aae4e5)" style="fill: none; stroke: #cccccc; stroke-width: 0.8; stroke-linecap: round"/>
     </g>
     <g id="text_13">
      <!-- 50000 -->
      <g style="fill: #262626" transform="translate(20.878125 83.092385) scale(0.1 -0.1)">
       <defs>
        <path id="DejaVuSans-35" d="M 691 4666 
L 3169 4666 
L 3169 4134 
L 1269 4134 
L 1269 2991 
Q 1406 3038 1543 3061 
Q 1681 3084 1819 3084 
Q 2600 3084 3056 2656 
Q 3513 2228 3513 1497 
Q 3513 744 3044 326 
Q 2575 -91 1722 -91 
Q 1428 -91 1123 -41 
Q 819 9 494 109 
L 494 744 
Q 775 591 1075 516 
Q 1375 441 1709 441 
Q 2250 441 2565 725 
Q 2881 1009 2881 1497 
Q 2881 1984 2565 2268 
Q 2250 2553 1709 2553 
Q 1456 2553 1204 2497 
Q 953 2441 691 2322 
L 691 4666 
z
" transform="scale(0.015625)"/>
       </defs>
       <use xlink:href="#DejaVuSans-35"/>
       <use xlink:href="#DejaVuSans-30" transform="translate(63.623047 0)"/>
       <use xlink:href="#DejaVuSans-30" transform="translate(127.246094 0)"/>
       <use xlink:href="#DejaVuSans-30" transform="translate(190.869141 0)"/>
       <use xlink:href="#DejaVuSans-30" transform="translate(254.492188 0)"/>
      </g>
     </g>
    </g>
    <g id="ytick_9">
     <g id="line2d_13">
      <path d="M 59.690625 48.63934 
L 416.810625 48.63934 
" clip-path="url(#pbec0aae4e5)" style="fill: none; stroke: #cccccc; stroke-width: 0.8; stroke-linecap: round"/>
     </g>
     <g id="text_14">
      <!-- 52000 -->
      <g style="fill: #262626" transform="translate(20.878125 52.438559) scale(0.1 -0.1)">
       <use xlink:href="#DejaVuSans-35"/>
       <use xlink:href="#DejaVuSans-32" transform="translate(63.623047 0)"/>
       <use xlink:href="#DejaVuSans-30" transform="translate(127.246094 0)"/>
       <use xlink:href="#DejaVuSans-30" transform="translate(190.869141 0)"/>
       <use xlink:href="#DejaVuSans-30" transform="translate(254.492188 0)"/>
      </g>
     </g>
    </g>
    <g id="text_15">
     <!-- IOPS -->
     <g style="fill: #262626" transform="translate(14.798438 180.279725) rotate(-90) scale(0.1 -0.1)">
      <defs>
       <path id="DejaVuSans-49" d="M 628 4666 
L 1259 4666 
L 1259 0 
L 628 0 
L 628 4666 
z
" transform="scale(0.015625)"/>
       <path id="DejaVuSans-4f" d="M 2522 4238 
Q 1834 4238 1429 3725 
Q 1025 3213 1025 2328 
Q 1025 1447 1429 934 
Q 1834 422 2522 422 
Q 3209 422 3611 934 
Q 4013 1447 4013 2328 
Q 4013 3213 3611 3725 
Q 3209 4238 2522 4238 
z
M 2522 4750 
Q 3503 4750 4090 4092 
Q 4678 3434 4678 2328 
Q 4678 1225 4090 567 
Q 3503 -91 2522 -91 
Q 1538 -91 948 565 
Q 359 1222 359 2328 
Q 359 3434 948 4092 
Q 1538 4750 2522 4750 
z
" transform="scale(0.015625)"/>
       <path id="DejaVuSans-50" d="M 1259 4147 
L 1259 2394 
L 2053 2394 
Q 2494 2394 2734 2622 
Q 2975 2850 2975 3272 
Q 2975 3691 2734 3919 
Q 2494 4147 2053 4147 
L 1259 4147 
z
M 628 4666 
L 2053 4666 
Q 2838 4666 3239 4311 
Q 3641 3956 3641 3272 
Q 3641 2581 3239 2228 
Q 2838 1875 2053 1875 
L 1259 1875 
L 1259 0 
L 628 0 
L 628 4666 
z
" transform="scale(0.015625)"/>
       <path id="DejaVuSans-53" d="M 3425 4513 
L 3425 3897 
Q 3066 4069 2747 4153 
Q 2428 4238 2131 4238 
Q 1616 4238 1336 4038 
Q 1056 3838 1056 3469 
Q 1056 3159 1242 3001 
Q 1428 2844 1947 2747 
L 2328 2669 
Q 3034 2534 3370 2195 
Q 3706 1856 3706 1288 
Q 3706 609 3251 259 
Q 2797 -91 1919 -91 
Q 1588 -91 1214 -16 
Q 841 59 441 206 
L 441 856 
Q 825 641 1194 531 
Q 1563 422 1919 422 
Q 2459 422 2753 634 
Q 3047 847 3047 1241 
Q 3047 1584 2836 1778 
Q 2625 1972 2144 2069 
L 1759 2144 
Q 1053 2284 737 2584 
Q 422 2884 422 3419 
Q 422 4038 858 4394 
Q 1294 4750 2059 4750 
Q 2388 4750 2728 4690 
Q 3069 4631 3425 4513 
z
" transform="scale(0.015625)"/>
      </defs>
      <use xlink:href="#DejaVuSans-49"/>
      <use xlink:href="#DejaVuSans-4f" transform="translate(29.492188 0)"/>
      <use xlink:href="#DejaVuSans-50" transform="translate(108.203125 0)"/>
      <use xlink:href="#DejaVuSans-53" transform="translate(168.505859 0)"/>
     </g>
    </g>
   </g>
   <g id="FillBetweenPolyCollection_1"/>
   <g id="FillBetweenPolyCollection_2"/>
   <g id="FillBetweenPolyCollection_3"/>
   <g id="FillBetweenPolyCollection_4"/>
   <g id="FillBetweenPolyCollection_5"/>
   <g id="FillBetweenPolyCollection_6"/>
   <g id="FillBetweenPolyCollection_7"/>
   <g id="line2d_14">
    <path d="M 75.923352 47.719725 
L 122.302573 157.061925 
L 215.061015 253.498863 
L 400.577898 247.138194 
" clip-path="url(#pbec0aae4e5)" style="fill: none; stroke: #4c02a1; stroke-width: 1.5; stroke-linecap: round"/>
   </g>
   <g id="line2d_15">
    <path d="M 75.923352 111.249781 
L 122.302573 127.618924 
L 215.061015 148.509507 
L 400.577898 129.166942 
" clip-path="url(#pbec0aae4e5)" style="fill: none; stroke: #7e03a8; stroke-width: 1.5; stroke-linecap: round"/>
   </g>
   <g id="line2d_16">
    <path d="M 75.923352 215.426811 
L 122.302573 151.237698 
L 215.061015 251.383749 
L 400.577898 278.834251 
" clip-path="url(#pbec0aae4e5)" style="fill: none; stroke: #aa2395; stroke-width: 1.5; stroke-linecap: round"/>
   </g>
   <g id="line2d_17">
    <path d="M 75.923352 222.094018 
L 122.302573 106.697687 
L 215.061015 137.198245 
L 400.577898 238.325219 
" clip-path="url(#pbec0aae4e5)" style="fill: none; stroke: #cc4778; stroke-width: 1.5; stroke-linecap: round"/>
   </g>
   <g id="line2d_18">
    <path d="M 75.923352 215.610734 
L 122.302573 134.914535 
L 215.061015 128.124712 
L 400.577898 178.351007 
" clip-path="url(#pbec0aae4e5)" style="fill: none; stroke: #e66c5c; stroke-width: 1.5; stroke-linecap: round"/>
   </g>
   <g id="line2d_19">
    <path d="M 75.923352 289.639725 
L 122.302573 171.88305 
L 215.061015 76.672264 
L 400.577898 158.058174 
" clip-path="url(#pbec0aae4e5)" style="fill: none; stroke: #f89540; stroke-width: 1.5; stroke-linecap: round"/>
   </g>
   <g id="line2d_20">
    <path d="M 75.923352 86.481489 
L 122.302573 189.800212 
L 215.061015 104.79715 
L 400.577898 178.550257 
" clip-path="url(#pbec0aae4e5)" style="fill: none; stroke: #fdc527; stroke-width: 1.5; stroke-linecap: round"/>
   </g>
   <g id="line2d_21"/>
   <g id="line2d_22"/>
   <g id="line2d_23"/>
   <g id="line2d_24"/>
   <g id="line2d_25"/>
   <g id="line2d_26"/>
   <g id="line2d_27"/>
   <g id="text_16">
    <path d="M 115.188346 145.231353 
L 115.817401 146.714394 
L 120.938278 144.542293 
L 119.93005 143.065635 
L 120.757158 142.714804 
L 121.761726 144.182831 
L 122.146724 145.090492 
L 116.198739 147.613424 
L 116.827794 149.096465 
L 116.063978 149.420449 
L 114.42453 145.555338 
L 115.188346 145.231353 
z
" clip-path="url(#pbec0aae4e5)" style="fill: #4c02a1; stroke: #ffffff; stroke-width: 5"/>
    <path d="M 115.188346 145.231353 
L 115.817401 146.714394 
L 120.938278 144.542293 
L 119.93005 143.065635 
L 120.757158 142.714804 
L 121.761726 144.182831 
L 122.146724 145.090492 
L 116.198739 147.613424 
L 116.827794 149.096465 
L 116.063978 149.420449 
L 114.42453 145.555338 
L 115.188346 145.231353 
z
" clip-path="url(#pbec0aae4e5)" style="fill: #4c02a1"/>
   </g>
   <g id="text_17">
    <path d="M 159.289194 132.185017 
L 156.004268 135.434879 
L 158.434034 135.982098 
L 159.289194 132.185017 
z
M 159.224971 131.289653 
L 160.435281 131.562233 
L 159.391307 136.19769 
L 160.406504 136.426328 
L 160.226272 137.226596 
L 159.211075 136.997958 
L 158.833446 138.67471 
L 157.876173 138.459118 
L 158.253802 136.782366 
L 155.043584 136.059377 
L 155.252653 135.131066 
L 159.224971 131.289653 
z
" clip-path="url(#pbec0aae4e5)" style="fill: #7e03a8; stroke: #ffffff; stroke-width: 5"/>
    <path d="M 159.289194 132.185017 
L 156.004268 135.434879 
L 158.434034 135.982098 
L 159.289194 132.185017 
z
M 159.224971 131.289653 
L 160.435281 131.562233 
L 159.391307 136.19769 
L 160.406504 136.426328 
L 160.226272 137.226596 
L 159.211075 136.997958 
L 158.833446 138.67471 
L 157.876173 138.459118 
L 158.253802 136.782366 
L 155.043584 136.059377 
L 155.252653 135.131066 
L 159.224971 131.289653 
z
" clip-path="url(#pbec0aae4e5)" style="fill: #7e03a8"/>
   </g>
   <g id="text_18">
    <path d="M 198.588348 232.564417 
Q 198.110555 232.04857 197.560355 232.008703 
Q 197.011217 231.969982 196.528614 232.416985 
Q 196.044864 232.865049 196.041473 233.41554 
Q 196.039143 233.967177 196.516937 234.483024 
Q 196.99473 234.998871 197.547138 235.038823 
Q 198.101754 235.078859 198.582065 234.63398 
Q 199.064668 234.186978 199.066998 233.63534 
Q 199.070389 233.084849 198.588348 232.564417 
z
M 198.225591 231.556533 
Q 197.909147 230.984948 197.986806 230.429561 
Q 198.066672 229.87426 198.525203 229.449554 
Q 199.165999 228.856028 199.961137 228.967193 
Q 200.757337 229.079504 201.493139 229.873908 
Q 202.233189 230.672897 202.282153 231.473062 
Q 202.331117 232.273227 201.69032 232.866753 
Q 201.23179 233.291458 200.670944 233.327474 
Q 200.112307 233.363575 199.569784 233.007782 
Q 199.932437 233.643054 199.846764 234.263367 
Q 199.763299 234.883765 199.252038 235.357312 
Q 198.473682 236.07825 197.617995 235.989091 
Q 196.763455 235.89887 195.943773 235.013906 
Q 195.125154 234.130089 195.099492 233.270005 
Q 195.076038 232.410005 195.854394 231.689068 
Q 196.365655 231.215521 196.991682 231.180896 
Q 197.619916 231.146355 198.225591 231.556533 
z
M 199.123211 230.233153 
Q 198.708241 230.617511 198.715495 231.092119 
Q 198.723811 231.567873 199.158073 232.036721 
Q 199.59021 232.503276 200.066058 232.550246 
Q 200.542968 232.598363 200.957939 232.214005 
Q 201.374055 231.828585 201.362554 231.349391 
Q 201.352114 230.871345 200.919976 230.40479 
Q 200.485715 229.935942 200.01199 229.891264 
Q 199.539327 229.847733 199.123211 230.233153 
z
" clip-path="url(#pbec0aae4e5)" style="fill: #aa2395; stroke: #ffffff; stroke-width: 5"/>
    <path d="M 198.588348 232.564417 
Q 198.110555 232.04857 197.560355 232.008703 
Q 197.011217 231.969982 196.528614 232.416985 
Q 196.044864 232.865049 196.041473 233.41554 
Q 196.039143 233.967177 196.516937 234.483024 
Q 196.99473 234.998871 197.547138 235.038823 
Q 198.101754 235.078859 198.582065 234.63398 
Q 199.064668 234.186978 199.066998 233.63534 
Q 199.070389 233.084849 198.588348 232.564417 
z
M 198.225591 231.556533 
Q 197.909147 230.984948 197.986806 230.429561 
Q 198.066672 229.87426 198.525203 229.449554 
Q 199.165999 228.856028 199.961137 228.967193 
Q 200.757337 229.079504 201.493139 229.873908 
Q 202.233189 230.672897 202.282153 231.473062 
Q 202.331117 232.273227 201.69032 232.866753 
Q 201.23179 233.291458 200.670944 233.327474 
Q 200.112307 233.363575 199.569784 233.007782 
Q 199.932437 233.643054 199.846764 234.263367 
Q 199.763299 234.883765 199.252038 235.357312 
Q 198.473682 236.07825 197.617995 235.989091 
Q 196.763455 235.89887 195.943773 235.013906 
Q 195.125154 234.130089 195.099492 233.270005 
Q 195.076038 232.410005 195.854394 231.689068 
Q 196.365655 231.215521 196.991682 231.180896 
Q 197.619916 231.146355 198.225591 231.556533 
z
M 199.123211 230.233153 
Q 198.708241 230.617511 198.715495 231.092119 
Q 198.723811 231.567873 199.158073 232.036721 
Q 199.59021 232.503276 200.066058 232.550246 
Q 200.542968 232.598363 200.957939 232.214005 
Q 201.374055 231.828585 201.362554 231.349391 
Q 201.352114 230.871345 200.919976 230.40479 
Q 200.485715 229.935942 200.01199 229.891264 
Q 199.539327 229.847733 199.123211 230.233153 
z
" clip-path="url(#pbec0aae4e5)" style="fill: #aa2395"/>
   </g>
   <g id="text_19">
    <path d="M 232.829917 149.082003 
L 234.244357 149.853027 
L 236.906672 144.969024 
L 235.199124 144.438626 
L 235.629133 143.649778 
L 237.32845 144.175689 
L 238.194125 144.647576 
L 235.101801 150.320428 
L 236.516242 151.091453 
L 236.119138 151.819937 
L 232.432813 149.810487 
L 232.829917 149.082003 
z
M 241.761035 150.296989 
Q 241.177973 149.979156 240.618746 150.19217 
Q 240.061638 150.404559 239.68323 151.098746 
Q 239.307066 151.788818 239.428182 152.376252 
Q 239.551418 152.963063 240.134481 153.280895 
Q 240.717543 153.598728 241.276146 153.383594 
Q 241.835498 153.167089 242.211662 152.477018 
Q 242.59007 151.782831 242.46671 151.199512 
Q 242.344098 150.614822 241.761035 150.296989 
z
M 244.960018 148.519023 
L 244.530009 149.307871 
Q 244.287253 148.976231 243.999373 148.714311 
Q 243.712241 148.451018 243.385726 148.273032 
Q 242.528282 147.805631 241.759962 148.13779 
Q 240.993014 148.470697 240.290626 149.605788 
Q 240.74647 149.370231 241.236298 149.379204 
Q 241.727499 149.388925 242.185717 149.638704 
Q 243.15017 150.164436 243.390582 151.055361 
Q 243.631741 151.944915 243.082825 152.951897 
Q 242.545127 153.938301 241.636754 154.21725 
Q 240.729129 154.494827 239.76056 153.966851 
Q 238.649312 153.361099 238.525796 152.190438 
Q 238.403027 151.018406 239.283985 149.402294 
Q 240.111097 147.884961 241.32343 147.37486 
Q 242.535763 146.86476 243.748532 147.525851 
Q 244.075047 147.703838 244.371901 147.949295 
Q 244.668755 148.194753 244.960018 148.519023 
z
" clip-path="url(#pbec0aae4e5)" style="fill: #cc4778; stroke: #ffffff; stroke-width: 5"/>
    <path d="M 232.829917 149.082003 
L 234.244357 149.853027 
L 236.906672 144.969024 
L 235.199124 144.438626 
L 235.629133 143.649778 
L 237.32845 144.175689 
L 238.194125 144.647576 
L 235.101801 150.320428 
L 236.516242 151.091453 
L 236.119138 151.819937 
L 232.432813 149.810487 
L 232.829917 149.082003 
z
M 241.761035 150.296989 
Q 241.177973 149.979156 240.618746 150.19217 
Q 240.061638 150.404559 239.68323 151.098746 
Q 239.307066 151.788818 239.428182 152.376252 
Q 239.551418 152.963063 240.134481 153.280895 
Q 240.717543 153.598728 241.276146 153.383594 
Q 241.835498 153.167089 242.211662 152.477018 
Q 242.59007 151.782831 242.46671 151.199512 
Q 242.344098 150.614822 241.761035 150.296989 
z
M 244.960018 148.519023 
L 244.530009 149.307871 
Q 244.287253 148.976231 243.999373 148.714311 
Q 243.712241 148.451018 243.385726 148.273032 
Q 242.528282 147.805631 241.759962 148.13779 
Q 240.993014 148.470697 240.290626 149.605788 
Q 240.74647 149.370231 241.236298 149.379204 
Q 241.727499 149.388925 242.185717 149.638704 
Q 243.15017 150.164436 243.390582 151.055361 
Q 243.631741 151.944915 243.082825 152.951897 
Q 242.545127 153.938301 241.636754 154.21725 
Q 240.729129 154.494827 239.76056 153.966851 
Q 238.649312 153.361099 238.525796 152.190438 
Q 238.403027 151.018406 239.283985 149.402294 
Q 240.111097 147.884961 241.32343 147.37486 
Q 242.535763 146.86476 243.748532 147.525851 
Q 244.075047 147.703838 244.371901 147.949295 
Q 244.668755 148.194753 244.960018 148.519023 
z
" clip-path="url(#pbec0aae4e5)" style="fill: #cc4778"/>
   </g>
   <g id="text_20">
    <path d="M 276.508271 143.546698 
Q 277.151879 143.877965 277.409606 144.444698 
Q 277.66925 145.010332 277.485503 145.689023 
Q 277.203758 146.729683 276.332606 147.107337 
Q 275.461862 147.483482 274.142185 147.126197 
Q 273.700281 147.006557 273.254913 146.792092 
Q 272.809545 146.577627 272.357696 146.267519 
L 272.606366 145.349023 
Q 272.939042 145.68676 273.377751 145.931798 
Q 273.817969 146.177244 274.332267 146.316483 
Q 275.226631 146.558621 275.79123 146.332691 
Q 276.35583 146.106761 276.538352 145.432594 
Q 276.706991 144.809706 276.365852 144.341797 
Q 276.025121 143.872379 275.248397 143.662091 
L 274.427934 143.439962 
L 274.639856 142.657204 
L 275.498023 142.889542 
Q 276.199337 143.079414 276.647812 142.899745 
Q 277.096287 142.720076 277.239201 142.192205 
Q 277.38579 141.65076 277.079597 141.257062 
Q 276.775321 140.862264 276.058925 140.668308 
Q 275.666792 140.562144 275.195581 140.526838 
Q 274.724778 140.490025 274.139676 140.522628 
L 274.369155 139.675018 
Q 274.952941 139.671196 275.446933 139.724 
Q 275.940925 139.776804 276.360205 139.890319 
Q 277.444603 140.183906 277.941509 140.847768 
Q 278.440332 141.510531 278.213302 142.349092 
Q 278.054872 142.934275 277.611027 143.246317 
Q 277.167183 143.558358 276.508271 143.546698 
z
M 279.774226 147.644135 
L 283.096797 148.543679 
L 282.879976 149.344534 
L 278.412679 148.135071 
L 278.629501 147.334216 
Q 279.322843 146.919753 280.513541 146.228781 
Q 281.706155 145.536708 282.020275 145.327139 
Q 282.616092 144.938073 282.893441 144.631137 
Q 283.172298 144.324608 283.265397 143.980738 
Q 283.417294 143.419687 283.119202 142.960194 
Q 282.821518 142.499193 282.189581 142.328104 
Q 281.741644 142.206831 281.20188 142.227428 
Q 280.663623 142.248434 280.012299 142.412034 
L 280.272811 141.449801 
Q 280.90991 141.374618 281.440975 141.392134 
Q 281.973548 141.410059 282.388303 141.522349 
Q 283.48175 141.818385 283.983563 142.541852 
Q 284.485785 143.26381 284.238339 144.177781 
Q 284.120741 144.612143 283.852507 144.95716 
Q 283.586189 145.301077 283.013437 145.712575 
Q 282.85864 145.817972 282.049897 146.299935 
Q 281.242663 146.782307 279.774226 147.644135 
z
" clip-path="url(#pbec0aae4e5)" style="fill: #e66c5c; stroke: #ffffff; stroke-width: 5"/>
    <path d="M 276.508271 143.546698 
Q 277.151879 143.877965 277.409606 144.444698 
Q 277.66925 145.010332 277.485503 145.689023 
Q 277.203758 146.729683 276.332606 147.107337 
Q 275.461862 147.483482 274.142185 147.126197 
Q 273.700281 147.006557 273.254913 146.792092 
Q 272.809545 146.577627 272.357696 146.267519 
L 272.606366 145.349023 
Q 272.939042 145.68676 273.377751 145.931798 
Q 273.817969 146.177244 274.332267 146.316483 
Q 275.226631 146.558621 275.79123 146.332691 
Q 276.35583 146.106761 276.538352 145.432594 
Q 276.706991 144.809706 276.365852 144.341797 
Q 276.025121 143.872379 275.248397 143.662091 
L 274.427934 143.439962 
L 274.639856 142.657204 
L 275.498023 142.889542 
Q 276.199337 143.079414 276.647812 142.899745 
Q 277.096287 142.720076 277.239201 142.192205 
Q 277.38579 141.65076 277.079597 141.257062 
Q 276.775321 140.862264 276.058925 140.668308 
Q 275.666792 140.562144 275.195581 140.526838 
Q 274.724778 140.490025 274.139676 140.522628 
L 274.369155 139.675018 
Q 274.952941 139.671196 275.446933 139.724 
Q 275.940925 139.776804 276.360205 139.890319 
Q 277.444603 140.183906 277.941509 140.847768 
Q 278.440332 141.510531 278.213302 142.349092 
Q 278.054872 142.934275 277.611027 143.246317 
Q 277.167183 143.558358 276.508271 143.546698 
z
M 279.774226 147.644135 
L 283.096797 148.543679 
L 282.879976 149.344534 
L 278.412679 148.135071 
L 278.629501 147.334216 
Q 279.322843 146.919753 280.513541 146.228781 
Q 281.706155 145.536708 282.020275 145.327139 
Q 282.616092 144.938073 282.893441 144.631137 
Q 283.172298 144.324608 283.265397 143.980738 
Q 283.417294 143.419687 283.119202 142.960194 
Q 282.821518 142.499193 282.189581 142.328104 
Q 281.741644 142.206831 281.20188 142.227428 
Q 280.663623 142.248434 280.012299 142.412034 
L 280.272811 141.449801 
Q 280.90991 141.374618 281.440975 141.392134 
Q 281.973548 141.410059 282.388303 141.522349 
Q 283.48175 141.818385 283.983563 142.541852 
Q 284.485785 143.26381 284.238339 144.177781 
Q 284.120741 144.612143 283.852507 144.95716 
Q 283.586189 145.301077 283.013437 145.712575 
Q 282.85864 145.817972 282.049897 146.299935 
Q 281.242663 146.782307 279.774226 147.644135 
z
" clip-path="url(#pbec0aae4e5)" style="fill: #e66c5c"/>
   </g>
   <g id="text_21">
    <path d="M 316.313033 119.695627 
Q 315.704915 119.428847 315.165963 119.688927 
Q 314.62907 119.948204 314.311445 120.672222 
Q 313.995703 121.391948 314.166636 121.966865 
Q 314.339628 122.54098 314.947746 122.80776 
Q 315.555864 123.07454 316.094012 122.812402 
Q 316.632788 122.548832 316.94853 121.829107 
Q 317.266156 121.105089 317.093339 120.534464 
Q 316.921151 119.962408 316.313033 119.695627 
z
M 319.348161 117.650475 
L 318.987223 118.473223 
Q 318.716982 118.163569 318.407748 117.92724 
Q 318.099141 117.689481 317.758595 117.540084 
Q 316.864304 117.14776 316.127222 117.544438 
Q 315.39157 117.941744 314.788876 119.13277 
Q 315.222894 118.859074 315.711694 118.826105 
Q 316.201925 118.793762 316.679834 119.00342 
Q 317.685732 119.444706 318.00149 120.311795 
Q 318.317875 121.177452 317.85713 122.227708 
Q 317.405801 123.2565 316.524626 123.612146 
Q 315.644078 123.966362 314.633887 123.523193 
Q 313.474886 123.014741 313.251661 121.858941 
Q 313.029063 120.70171 313.768515 119.016151 
Q 314.462771 117.433613 315.627014 116.821656 
Q 316.791257 116.209698 318.056142 116.764601 
Q 318.396688 116.913998 318.713455 117.133156 
Q 319.030221 117.352315 319.348161 117.650475 
z
M 323.538847 120.251613 
L 319.694402 122.815316 
L 321.975202 123.815899 
L 323.538847 120.251613 
z
M 323.646569 119.360435 
L 324.782676 119.858843 
L 322.873785 124.210106 
L 323.826742 124.628166 
L 323.49719 125.37937 
L 322.544233 124.96131 
L 321.853743 126.535262 
L 320.95516 126.141055 
L 321.64565 124.567103 
L 318.632247 123.245129 
L 319.014527 122.373732 
L 323.646569 119.360435 
z
" clip-path="url(#pbec0aae4e5)" style="fill: #f89540; stroke: #ffffff; stroke-width: 5"/>
    <path d="M 316.313033 119.695627 
Q 315.704915 119.428847 315.165963 119.688927 
Q 314.62907 119.948204 314.311445 120.672222 
Q 313.995703 121.391948 314.166636 121.966865 
Q 314.339628 122.54098 314.947746 122.80776 
Q 315.555864 123.07454 316.094012 122.812402 
Q 316.632788 122.548832 316.94853 121.829107 
Q 317.266156 121.105089 317.093339 120.534464 
Q 316.921151 119.962408 316.313033 119.695627 
z
M 319.348161 117.650475 
L 318.987223 118.473223 
Q 318.716982 118.163569 318.407748 117.92724 
Q 318.099141 117.689481 317.758595 117.540084 
Q 316.864304 117.14776 316.127222 117.544438 
Q 315.39157 117.941744 314.788876 119.13277 
Q 315.222894 118.859074 315.711694 118.826105 
Q 316.201925 118.793762 316.679834 119.00342 
Q 317.685732 119.444706 318.00149 120.311795 
Q 318.317875 121.177452 317.85713 122.227708 
Q 317.405801 123.2565 316.524626 123.612146 
Q 315.644078 123.966362 314.633887 123.523193 
Q 313.474886 123.014741 313.251661 121.858941 
Q 313.029063 120.70171 313.768515 119.016151 
Q 314.462771 117.433613 315.627014 116.821656 
Q 316.791257 116.209698 318.056142 116.764601 
Q 318.396688 116.913998 318.713455 117.133156 
Q 319.030221 117.352315 319.348161 117.650475 
z
M 323.538847 120.251613 
L 319.694402 122.815316 
L 321.975202 123.815899 
L 323.538847 120.251613 
z
M 323.646569 119.360435 
L 324.782676 119.858843 
L 322.873785 124.210106 
L 323.826742 124.628166 
L 323.49719 125.37937 
L 322.544233 124.96131 
L 321.853743 126.535262 
L 320.95516 126.141055 
L 321.64565 124.567103 
L 318.632247 123.245129 
L 319.014527 122.373732 
L 323.646569 119.360435 
z
" clip-path="url(#pbec0aae4e5)" style="fill: #f89540"/>
   </g>
   <g id="text_22">
    <path d="M 350.349992 160.658507 
L 351.846969 161.253637 
L 353.901928 156.084638 
L 352.142945 155.763672 
L 352.474855 154.928792 
L 354.225127 155.246295 
L 355.141318 155.61053 
L 352.754447 161.614409 
L 354.251424 162.20954 
L 353.944912 162.980533 
L 350.04348 161.429501 
L 350.349992 160.658507 
z
M 356.892369 163.259459 
L 360.09105 164.53111 
L 359.784537 165.302104 
L 355.483814 163.592331 
L 355.790327 162.821337 
Q 356.526314 162.488434 357.787883 161.937389 
Q 359.05148 161.38547 359.3874 161.212993 
Q 360.023606 160.894227 360.334069 160.620831 
Q 360.645985 160.348013 360.777595 160.016965 
Q 360.992326 159.476833 360.748436 158.986415 
Q 360.505124 158.494544 359.89675 158.252682 
Q 359.465516 158.081243 358.926912 158.040308 
Q 358.38976 157.99995 357.724053 158.088399 
L 358.09233 157.162045 
Q 358.733846 157.159821 359.259471 157.237633 
Q 359.786548 157.316022 360.185839 157.474762 
Q 361.238514 157.893258 361.654775 158.66911 
Q 362.071613 159.44351 361.721808 160.323402 
Q 361.555564 160.741568 361.249825 161.053834 
Q 360.946115 161.365225 360.330272 161.7089 
Q 360.16449 161.796005 359.306173 162.182844 
Q 358.449308 162.570261 356.892369 163.259459 
z
M 364.947519 163.628581 
Q 364.294135 163.368825 363.780414 163.569822 
Q 363.268145 163.771396 363.025128 164.382674 
Q 362.781535 164.995403 363.015576 165.493677 
Q 363.25107 165.992528 363.904454 166.252284 
Q 364.557839 166.51204 365.073589 166.310168 
Q 365.591369 166.107422 365.83323 165.499048 
Q 366.076247 164.88777 365.840753 164.38892 
Q 365.606712 163.890646 364.947519 163.628581 
z
M 364.186028 162.875219 
Q 363.654254 162.495664 363.485129 161.960985 
Q 363.318033 161.425431 363.548928 160.844645 
Q 363.871603 160.032996 364.637087 159.790847 
Q 365.404023 159.549275 366.410235 159.9493 
Q 367.422255 160.351633 367.811084 161.052685 
Q 368.199913 161.753736 367.877238 162.565385 
Q 367.646344 163.146171 367.155699 163.420237 
Q 366.667083 163.693429 366.024217 163.605999 
Q 366.625126 164.023127 366.814983 164.619854 
Q 367.006868 165.215707 366.749421 165.863284 
Q 366.357478 166.849169 365.546827 167.137257 
Q 364.736754 167.423893 363.615836 166.978267 
Q 362.496371 166.533218 362.102764 165.768053 
Q 361.711187 165.002014 362.10313 164.016129 
Q 362.360577 163.368552 362.910646 163.067667 
Q 363.462745 162.765907 364.186028 162.875219 
z
M 364.426128 161.294267 
Q 364.217169 161.819879 364.428134 162.245083 
Q 364.640552 162.670865 365.234406 162.906954 
Q 365.825356 163.141889 366.275035 162.979327 
Q 366.726166 162.817342 366.935125 162.291731 
Q 367.144662 161.764667 366.927889 161.337154 
Q 366.712567 160.910218 366.121617 160.675283 
Q 365.527763 160.439193 365.080988 160.60291 
Q 364.635665 160.767203 364.426128 161.294267 
z
" clip-path="url(#pbec0aae4e5)" style="fill: #fdc527; stroke: #ffffff; stroke-width: 5"/>
    <path d="M 350.349992 160.658507 
L 351.846969 161.253637 
L 353.901928 156.084638 
L 352.142945 155.763672 
L 352.474855 154.928792 
L 354.225127 155.246295 
L 355.141318 155.61053 
L 352.754447 161.614409 
L 354.251424 162.20954 
L 353.944912 162.980533 
L 350.04348 161.429501 
L 350.349992 160.658507 
z
M 356.892369 163.259459 
L 360.09105 164.53111 
L 359.784537 165.302104 
L 355.483814 163.592331 
L 355.790327 162.821337 
Q 356.526314 162.488434 357.787883 161.937389 
Q 359.05148 161.38547 359.3874 161.212993 
Q 360.023606 160.894227 360.334069 160.620831 
Q 360.645985 160.348013 360.777595 160.016965 
Q 360.992326 159.476833 360.748436 158.986415 
Q 360.505124 158.494544 359.89675 158.252682 
Q 359.465516 158.081243 358.926912 158.040308 
Q 358.38976 157.99995 357.724053 158.088399 
L 358.09233 157.162045 
Q 358.733846 157.159821 359.259471 157.237633 
Q 359.786548 157.316022 360.185839 157.474762 
Q 361.238514 157.893258 361.654775 158.66911 
Q 362.071613 159.44351 361.721808 160.323402 
Q 361.555564 160.741568 361.249825 161.053834 
Q 360.946115 161.365225 360.330272 161.7089 
Q 360.16449 161.796005 359.306173 162.182844 
Q 358.449308 162.570261 356.892369 163.259459 
z
M 364.947519 163.628581 
Q 364.294135 163.368825 363.780414 163.569822 
Q 363.268145 163.771396 363.025128 164.382674 
Q 362.781535 164.995403 363.015576 165.493677 
Q 363.25107 165.992528 363.904454 166.252284 
Q 364.557839 166.51204 365.073589 166.310168 
Q 365.591369 166.107422 365.83323 165.499048 
Q 366.076247 164.88777 365.840753 164.38892 
Q 365.606712 163.890646 364.947519 163.628581 
z
M 364.186028 162.875219 
Q 363.654254 162.495664 363.485129 161.960985 
Q 363.318033 161.425431 363.548928 160.844645 
Q 363.871603 160.032996 364.637087 159.790847 
Q 365.404023 159.549275 366.410235 159.9493 
Q 367.422255 160.351633 367.811084 161.052685 
Q 368.199913 161.753736 367.877238 162.565385 
Q 367.646344 163.146171 367.155699 163.420237 
Q 366.667083 163.693429 366.024217 163.605999 
Q 366.625126 164.023127 366.814983 164.619854 
Q 367.006868 165.215707 366.749421 165.863284 
Q 366.357478 166.849169 365.546827 167.137257 
Q 364.736754 167.423893 363.615836 166.978267 
Q 362.496371 166.533218 362.102764 165.768053 
Q 361.711187 165.002014 362.10313 164.016129 
Q 362.360577 163.368552 362.910646 163.067667 
Q 363.462745 162.765907 364.186028 162.875219 
z
M 364.426128 161.294267 
Q 364.217169 161.819879 364.428134 162.245083 
Q 364.640552 162.670865 365.234406 162.906954 
Q 365.825356 163.141889 366.275035 162.979327 
Q 366.726166 162.817342 366.935125 162.291731 
Q 367.144662 161.764667 366.927889 161.337154 
Q 366.712567 160.910218 366.121617 160.675283 
Q 365.527763 160.439193 365.080988 160.60291 
Q 364.635665 160.767203 364.426128 161.294267 
z
" clip-path="url(#pbec0aae4e5)" style="fill: #fdc527"/>
   </g>
   <g id="patch_3">
    <path d="M 59.690625 301.735725 
L 59.690625 35.623725 
" style="fill: none; stroke: #cccccc; stroke-width: 0.8; stroke-linejoin: miter; stroke-linecap: square"/>
   </g>
   <g id="patch_4">
    <path d="M 416.810625 301.735725 
L 416.810625 35.623725 
" style="fill: none; stroke: #cccccc; stroke-width: 0.8; stroke-linejoin: miter; stroke-linecap: square"/>
   </g>
   <g id="patch_5">
    <path d="M 59.690625 301.735725 
L 416.810625 301.735725 
" style="fill: none; stroke: #cccccc; stroke-width: 0.8; stroke-linejoin: miter; stroke-linecap: square"/>
   </g>
   <g id="patch_6">
    <path d="M 59.690625 35.623725 
L 416.810625 35.623725 
" style="fill: none; stroke: #cccccc; stroke-width: 0.8; stroke-linejoin: miter; stroke-linecap: square"/>
   </g>
   <g id="text_23">
    <!-- Block Size = 16K, Read-Write Type = Random Read-only -->
    <g style="fill: #262626; opacity: 0.75" transform="translate(97.552969 30.882918) scale(0.1 -0.1)">
     <defs>
      <path id="DejaVuSans-42" d="M 1259 2228 
L 1259 519 
L 2272 519 
Q 2781 519 3026 730 
Q 3272 941 3272 1375 
Q 3272 1813 3026 2020 
Q 2781 2228 2272 2228 
L 1259 2228 
z
M 1259 4147 
L 1259 2741 
L 2194 2741 
Q 2656 2741 2882 2914 
Q 3109 3088 3109 3444 
Q 3109 3797 2882 3972 
Q 2656 4147 2194 4147 
L 1259 4147 
z
M 628 4666 
L 2241 4666 
Q 2963 4666 3353 4366 
Q 3744 4066 3744 3513 
Q 3744 3084 3544 2831 
Q 3344 2578 2956 2516 
Q 3422 2416 3680 2098 
Q 3938 1781 3938 1306 
Q 3938 681 3513 340 
Q 3088 0 2303 0 
L 628 0 
L 628 4666 
z
" transform="scale(0.015625)"/>
      <path id="DejaVuSans-6c" d="M 603 4863 
L 1178 4863 
L 1178 0 
L 603 0 
L 603 4863 
z
" transform="scale(0.015625)"/>
      <path id="DejaVuSans-63" d="M 3122 3366 
L 3122 2828 
Q 2878 2963 2633 3030 
Q 2388 3097 2138 3097 
Q 1578 3097 1268 2742 
Q 959 2388 959 1747 
Q 959 1106 1268 751 
Q 1578 397 2138 397 
Q 2388 397 2633 464 
Q 2878 531 3122 666 
L 3122 134 
Q 2881 22 2623 -34 
Q 2366 -91 2075 -91 
Q 1284 -91 818 406 
Q 353 903 353 1747 
Q 353 2603 823 3093 
Q 1294 3584 2113 3584 
Q 2378 3584 2631 3529 
Q 2884 3475 3122 3366 
z
" transform="scale(0.015625)"/>
      <path id="DejaVuSans-6b" d="M 581 4863 
L 1159 4863 
L 1159 1991 
L 2875 3500 
L 3609 3500 
L 1753 1863 
L 3688 0 
L 2938 0 
L 1159 1709 
L 1159 0 
L 581 0 
L 581 4863 
z
" transform="scale(0.015625)"/>
      <path id="DejaVuSans-69" d="M 603 3500 
L 1178 3500 
L 1178 0 
L 603 0 
L 603 3500 
z
M 603 4863 
L 1178 4863 
L 1178 4134 
L 603 4134 
L 603 4863 
z
" transform="scale(0.015625)"/>
      <path id="DejaVuSans-7a" d="M 353 3500 
L 3084 3500 
L 3084 2975 
L 922 459 
L 3084 459 
L 3084 0 
L 275 0 
L 275 525 
L 2438 3041 
L 353 3041 
L 353 3500 
z
" transform="scale(0.015625)"/>
      <path id="DejaVuSans-3d" d="M 678 2906 
L 4684 2906 
L 4684 2381 
L 678 2381 
L 678 2906 
z
M 678 1631 
L 4684 1631 
L 4684 1100 
L 678 1100 
L 678 1631 
z
" transform="scale(0.015625)"/>
      <path id="DejaVuSans-4b" d="M 628 4666 
L 1259 4666 
L 1259 2694 
L 3353 4666 
L 4166 4666 
L 1850 2491 
L 4331 0 
L 3500 0 
L 1259 2247 
L 1259 0 
L 628 0 
L 628 4666 
z
" transform="scale(0.015625)"/>
      <path id="DejaVuSans-2c" d="M 750 794 
L 1409 794 
L 1409 256 
L 897 -744 
L 494 -744 
L 750 256 
L 750 794 
z
" transform="scale(0.015625)"/>
      <path id="DejaVuSans-52" d="M 2841 2188 
Q 3044 2119 3236 1894 
Q 3428 1669 3622 1275 
L 4263 0 
L 3584 0 
L 2988 1197 
Q 2756 1666 2539 1819 
Q 2322 1972 1947 1972 
L 1259 1972 
L 1259 0 
L 628 0 
L 628 4666 
L 2053 4666 
Q 2853 4666 3247 4331 
Q 3641 3997 3641 3322 
Q 3641 2881 3436 2590 
Q 3231 2300 2841 2188 
z
M 1259 4147 
L 1259 2491 
L 2053 2491 
Q 2509 2491 2742 2702 
Q 2975 2913 2975 3322 
Q 2975 3731 2742 3939 
Q 2509 4147 2053 4147 
L 1259 4147 
z
" transform="scale(0.015625)"/>
      <path id="DejaVuSans-61" d="M 2194 1759 
Q 1497 1759 1228 1600 
Q 959 1441 959 1056 
Q 959 750 1161 570 
Q 1363 391 1709 391 
Q 2188 391 2477 730 
Q 2766 1069 2766 1631 
L 2766 1759 
L 2194 1759 
z
M 3341 1997 
L 3341 0 
L 2766 0 
L 2766 531 
Q 2569 213 2275 61 
Q 1981 -91 1556 -91 
Q 1019 -91 701 211 
Q 384 513 384 1019 
Q 384 1609 779 1909 
Q 1175 2209 1959 2209 
L 2766 2209 
L 2766 2266 
Q 2766 2663 2505 2880 
Q 2244 3097 1772 3097 
Q 1472 3097 1187 3025 
Q 903 2953 641 2809 
L 641 3341 
Q 956 3463 1253 3523 
Q 1550 3584 1831 3584 
Q 2591 3584 2966 3190 
Q 3341 2797 3341 1997 
z
" transform="scale(0.015625)"/>
      <path id="DejaVuSans-64" d="M 2906 2969 
L 2906 4863 
L 3481 4863 
L 3481 0 
L 2906 0 
L 2906 525 
Q 2725 213 2448 61 
Q 2172 -91 1784 -91 
Q 1150 -91 751 415 
Q 353 922 353 1747 
Q 353 2572 751 3078 
Q 1150 3584 1784 3584 
Q 2172 3584 2448 3432 
Q 2725 3281 2906 2969 
z
M 947 1747 
Q 947 1113 1208 752 
Q 1469 391 1925 391 
Q 2381 391 2643 752 
Q 2906 1113 2906 1747 
Q 2906 2381 2643 2742 
Q 2381 3103 1925 3103 
Q 1469 3103 1208 2742 
Q 947 2381 947 1747 
z
" transform="scale(0.015625)"/>
      <path id="DejaVuSans-2d" d="M 313 2009 
L 1997 2009 
L 1997 1497 
L 313 1497 
L 313 2009 
z
" transform="scale(0.015625)"/>
      <path id="DejaVuSans-57" d="M 213 4666 
L 850 4666 
L 1831 722 
L 2809 4666 
L 3519 4666 
L 4500 722 
L 5478 4666 
L 6119 4666 
L 4947 0 
L 4153 0 
L 3169 4050 
L 2175 0 
L 1381 0 
L 213 4666 
z
" transform="scale(0.015625)"/>
      <path id="DejaVuSans-74" d="M 1172 4494 
L 1172 3500 
L 2356 3500 
L 2356 3053 
L 1172 3053 
L 1172 1153 
Q 1172 725 1289 603 
Q 1406 481 1766 481 
L 2356 481 
L 2356 0 
L 1766 0 
Q 1100 0 847 248 
Q 594 497 594 1153 
L 594 3053 
L 172 3053 
L 172 3500 
L 594 3500 
L 594 4494 
L 1172 4494 
z
" transform="scale(0.015625)"/>
      <path id="DejaVuSans-54" d="M -19 4666 
L 3928 4666 
L 3928 4134 
L 2272 4134 
L 2272 0 
L 1638 0 
L 1638 4134 
L -19 4134 
L -19 4666 
z
" transform="scale(0.015625)"/>
      <path id="DejaVuSans-79" d="M 2059 -325 
Q 1816 -950 1584 -1140 
Q 1353 -1331 966 -1331 
L 506 -1331 
L 506 -850 
L 844 -850 
Q 1081 -850 1212 -737 
Q 1344 -625 1503 -206 
L 1606 56 
L 191 3500 
L 800 3500 
L 1894 763 
L 2988 3500 
L 3597 3500 
L 2059 -325 
z
" transform="scale(0.015625)"/>
      <path id="DejaVuSans-70" d="M 1159 525 
L 1159 -1331 
L 581 -1331 
L 581 3500 
L 1159 3500 
L 1159 2969 
Q 1341 3281 1617 3432 
Q 1894 3584 2278 3584 
Q 2916 3584 3314 3078 
Q 3713 2572 3713 1747 
Q 3713 922 3314 415 
Q 2916 -91 2278 -91 
Q 1894 -91 1617 61 
Q 1341 213 1159 525 
z
M 3116 1747 
Q 3116 2381 2855 2742 
Q 2594 3103 2138 3103 
Q 1681 3103 1420 2742 
Q 1159 2381 1159 1747 
Q 1159 1113 1420 752 
Q 1681 391 2138 391 
Q 2594 391 2855 752 
Q 3116 1113 3116 1747 
z
" transform="scale(0.015625)"/>
      <path id="DejaVuSans-6e" d="M 3513 2113 
L 3513 0 
L 2938 0 
L 2938 2094 
Q 2938 2591 2744 2837 
Q 2550 3084 2163 3084 
Q 1697 3084 1428 2787 
Q 1159 2491 1159 1978 
L 1159 0 
L 581 0 
L 581 3500 
L 1159 3500 
L 1159 2956 
Q 1366 3272 1645 3428 
Q 1925 3584 2291 3584 
Q 2894 3584 3203 3211 
Q 3513 2838 3513 2113 
z
" transform="scale(0.015625)"/>
     </defs>
     <use xlink:href="#DejaVuSans-42"/>
     <use xlink:href="#DejaVuSans-6c" transform="translate(68.603516 0)"/>
     <use xlink:href="#DejaVuSans-6f" transform="translate(96.386719 0)"/>
     <use xlink:href="#DejaVuSans-63" transform="translate(157.568359 0)"/>
     <use xlink:href="#DejaVuSans-6b" transform="translate(212.548828 0)"/>
     <use xlink:href="#DejaVuSans-20" transform="translate(270.458984 0)"/>
     <use xlink:href="#DejaVuSans-53" transform="translate(302.246094 0)"/>
     <use xlink:href="#DejaVuSans-69" transform="translate(365.722656 0)"/>
     <use xlink:href="#DejaVuSans-7a" transform="translate(393.505859 0)"/>
     <use xlink:href="#DejaVuSans-65" transform="translate(445.996094 0)"/>
     <use xlink:href="#DejaVuSans-20" transform="translate(507.519531 0)"/>
     <use xlink:href="#DejaVuSans-3d" transform="translate(539.306641 0)"/>
     <use xlink:href="#DejaVuSans-20" transform="translate(623.095703 0)"/>
     <use xlink:href="#DejaVuSans-31" transform="translate(654.882812 0)"/>
     <use xlink:href="#DejaVuSans-36" transform="translate(718.505859 0)"/>
     <use xlink:href="#DejaVuSans-4b" transform="translate(782.128906 0)"/>
     <use xlink:href="#DejaVuSans-2c" transform="translate(847.705078 0)"/>
     <use xlink:href="#DejaVuSans-20" transform="translate(879.492188 0)"/>
     <use xlink:href="#DejaVuSans-52" transform="translate(911.279297 0)"/>
     <use xlink:href="#DejaVuSans-65" transform="translate(976.261719 0)"/>
     <use xlink:href="#DejaVuSans-61" transform="translate(1037.785156 0)"/>
     <use xlink:href="#DejaVuSans-64" transform="translate(1099.064453 0)"/>
     <use xlink:href="#DejaVuSans-2d" transform="translate(1162.541016 0)"/>
     <use xlink:href="#DejaVuSans-57" transform="translate(1194.625 0)"/>
     <use xlink:href="#DejaVuSans-72" transform="translate(1289.001953 0)"/>
     <use xlink:href="#DejaVuSans-69" transform="translate(1330.115234 0)"/>
     <use xlink:href="#DejaVuSans-74" transform="translate(1357.898438 0)"/>
     <use xlink:href="#DejaVuSans-65" transform="translate(1397.107422 0)"/>
     <use xlink:href="#DejaVuSans-20" transform="translate(1458.630859 0)"/>
     <use xlink:href="#DejaVuSans-54" transform="translate(1490.417969 0)"/>
     <use xlink:href="#DejaVuSans-79" transform="translate(1535.876953 0)"/>
     <use xlink:href="#DejaVuSans-70" transform="translate(1595.056641 0)"/>
     <use xlink:href="#DejaVuSans-65" transform="translate(1658.533203 0)"/>
     <use xlink:href="#DejaVuSans-20" transform="translate(1720.056641 0)"/>
     <use xlink:href="#DejaVuSans-3d" transform="translate(1751.84375 0)"/>
     <use xlink:href="#DejaVuSans-20" transform="translate(1835.632812 0)"/>
     <use xlink:href="#DejaVuSans-52" transform="translate(1867.419922 0)"/>
     <use xlink:href="#DejaVuSans-61" transform="translate(1934.652344 0)"/>
     <use xlink:href="#DejaVuSans-6e" transform="translate(1995.931641 0)"/>
     <use xlink:href="#DejaVuSans-64" transform="translate(2059.310547 0)"/>
     <use xlink:href="#DejaVuSans-6f" transform="translate(2122.787109 0)"/>
     <use xlink:href="#DejaVuSans-6d" transform="translate(2183.96875 0)"/>
     <use xlink:href="#DejaVuSans-20" transform="translate(2281.380859 0)"/>
     <use xlink:href="#DejaVuSans-52" transform="translate(2313.167969 0)"/>
     <use xlink:href="#DejaVuSans-65" transform="translate(2378.150391 0)"/>
     <use xlink:href="#DejaVuSans-61" transform="translate(2439.673828 0)"/>
     <use xlink:href="#DejaVuSans-64" transform="translate(2500.953125 0)"/>
     <use xlink:href="#DejaVuSans-2d" transform="translate(2564.429688 0)"/>
     <use xlink:href="#DejaVuSans-6f" transform="translate(2602.388672 0)"/>
     <use xlink:href="#DejaVuSans-6e" transform="translate(2663.570312 0)"/>
     <use xlink:href="#DejaVuSans-6c" transform="translate(2726.949219 0)"/>
     <use xlink:href="#DejaVuSans-79" transform="translate(2754.732422 0)"/>
    </g>
   </g>
   <g id="text_24">
    <!-- IOPS vs Number of Jobs -->
    <g style="fill: #262626" transform="translate(158.541562 16.318125) scale(0.12 -0.12)">
     <defs>
      <path id="DejaVuSans-Bold-49" d="M 588 4666 
L 1791 4666 
L 1791 0 
L 588 0 
L 588 4666 
z
" transform="scale(0.015625)"/>
      <path id="DejaVuSans-Bold-4f" d="M 2719 3878 
Q 2169 3878 1866 3472 
Q 1563 3066 1563 2328 
Q 1563 1594 1866 1187 
Q 2169 781 2719 781 
Q 3272 781 3575 1187 
Q 3878 1594 3878 2328 
Q 3878 3066 3575 3472 
Q 3272 3878 2719 3878 
z
M 2719 4750 
Q 3844 4750 4481 4106 
Q 5119 3463 5119 2328 
Q 5119 1197 4481 553 
Q 3844 -91 2719 -91 
Q 1597 -91 958 553 
Q 319 1197 319 2328 
Q 319 3463 958 4106 
Q 1597 4750 2719 4750 
z
" transform="scale(0.015625)"/>
      <path id="DejaVuSans-Bold-50" d="M 588 4666 
L 2584 4666 
Q 3475 4666 3951 4270 
Q 4428 3875 4428 3144 
Q 4428 2409 3951 2014 
Q 3475 1619 2584 1619 
L 1791 1619 
L 1791 0 
L 588 0 
L 588 4666 
z
M 1791 3794 
L 1791 2491 
L 2456 2491 
Q 2806 2491 2997 2661 
Q 3188 2831 3188 3144 
Q 3188 3456 2997 3625 
Q 2806 3794 2456 3794 
L 1791 3794 
z
" transform="scale(0.015625)"/>
      <path id="DejaVuSans-Bold-53" d="M 3834 4519 
L 3834 3531 
Q 3450 3703 3084 3790 
Q 2719 3878 2394 3878 
Q 1963 3878 1756 3759 
Q 1550 3641 1550 3391 
Q 1550 3203 1689 3098 
Q 1828 2994 2194 2919 
L 2706 2816 
Q 3484 2659 3812 2340 
Q 4141 2022 4141 1434 
Q 4141 663 3683 286 
Q 3225 -91 2284 -91 
Q 1841 -91 1394 -6 
Q 947 78 500 244 
L 500 1259 
Q 947 1022 1364 901 
Q 1781 781 2169 781 
Q 2563 781 2772 912 
Q 2981 1044 2981 1288 
Q 2981 1506 2839 1625 
Q 2697 1744 2272 1838 
L 1806 1941 
Q 1106 2091 782 2419 
Q 459 2747 459 3303 
Q 459 4000 909 4375 
Q 1359 4750 2203 4750 
Q 2588 4750 2994 4692 
Q 3400 4634 3834 4519 
z
" transform="scale(0.015625)"/>
      <path id="DejaVuSans-Bold-20" transform="scale(0.015625)"/>
      <path id="DejaVuSans-Bold-76" d="M 97 3500 
L 1216 3500 
L 2088 1081 
L 2956 3500 
L 4078 3500 
L 2700 0 
L 1472 0 
L 97 3500 
z
" transform="scale(0.015625)"/>
      <path id="DejaVuSans-Bold-73" d="M 3272 3391 
L 3272 2541 
Q 2913 2691 2578 2766 
Q 2244 2841 1947 2841 
Q 1628 2841 1473 2761 
Q 1319 2681 1319 2516 
Q 1319 2381 1436 2309 
Q 1553 2238 1856 2203 
L 2053 2175 
Q 2913 2066 3209 1816 
Q 3506 1566 3506 1031 
Q 3506 472 3093 190 
Q 2681 -91 1863 -91 
Q 1516 -91 1145 -36 
Q 775 19 384 128 
L 384 978 
Q 719 816 1070 734 
Q 1422 653 1784 653 
Q 2113 653 2278 743 
Q 2444 834 2444 1013 
Q 2444 1163 2330 1236 
Q 2216 1309 1875 1350 
L 1678 1375 
Q 931 1469 631 1722 
Q 331 1975 331 2491 
Q 331 3047 712 3315 
Q 1094 3584 1881 3584 
Q 2191 3584 2531 3537 
Q 2872 3491 3272 3391 
z
" transform="scale(0.015625)"/>
      <path id="DejaVuSans-Bold-4e" d="M 588 4666 
L 1931 4666 
L 3628 1466 
L 3628 4666 
L 4769 4666 
L 4769 0 
L 3425 0 
L 1728 3200 
L 1728 0 
L 588 0 
L 588 4666 
z
" transform="scale(0.015625)"/>
      <path id="DejaVuSans-Bold-75" d="M 500 1363 
L 500 3500 
L 1625 3500 
L 1625 3150 
Q 1625 2866 1622 2436 
Q 1619 2006 1619 1863 
Q 1619 1441 1641 1255 
Q 1663 1069 1716 984 
Q 1784 875 1895 815 
Q 2006 756 2150 756 
Q 2500 756 2700 1025 
Q 2900 1294 2900 1772 
L 2900 3500 
L 4019 3500 
L 4019 0 
L 2900 0 
L 2900 506 
Q 2647 200 2364 54 
Q 2081 -91 1741 -91 
Q 1134 -91 817 281 
Q 500 653 500 1363 
z
" transform="scale(0.015625)"/>
      <path id="DejaVuSans-Bold-6d" d="M 3781 2919 
Q 3994 3244 4286 3414 
Q 4578 3584 4928 3584 
Q 5531 3584 5847 3212 
Q 6163 2841 6163 2131 
L 6163 0 
L 5038 0 
L 5038 1825 
Q 5041 1866 5042 1909 
Q 5044 1953 5044 2034 
Q 5044 2406 4934 2573 
Q 4825 2741 4581 2741 
Q 4263 2741 4089 2478 
Q 3916 2216 3909 1719 
L 3909 0 
L 2784 0 
L 2784 1825 
Q 2784 2406 2684 2573 
Q 2584 2741 2328 2741 
Q 2006 2741 1831 2477 
Q 1656 2213 1656 1722 
L 1656 0 
L 531 0 
L 531 3500 
L 1656 3500 
L 1656 2988 
Q 1863 3284 2130 3434 
Q 2397 3584 2719 3584 
Q 3081 3584 3359 3409 
Q 3638 3234 3781 2919 
z
" transform="scale(0.015625)"/>
      <path id="DejaVuSans-Bold-62" d="M 2400 722 
Q 2759 722 2948 984 
Q 3138 1247 3138 1747 
Q 3138 2247 2948 2509 
Q 2759 2772 2400 2772 
Q 2041 2772 1848 2508 
Q 1656 2244 1656 1747 
Q 1656 1250 1848 986 
Q 2041 722 2400 722 
z
M 1656 2988 
Q 1888 3294 2169 3439 
Q 2450 3584 2816 3584 
Q 3463 3584 3878 3070 
Q 4294 2556 4294 1747 
Q 4294 938 3878 423 
Q 3463 -91 2816 -91 
Q 2450 -91 2169 54 
Q 1888 200 1656 506 
L 1656 0 
L 538 0 
L 538 4863 
L 1656 4863 
L 1656 2988 
z
" transform="scale(0.015625)"/>
      <path id="DejaVuSans-Bold-65" d="M 4031 1759 
L 4031 1441 
L 1416 1441 
Q 1456 1047 1700 850 
Q 1944 653 2381 653 
Q 2734 653 3104 758 
Q 3475 863 3866 1075 
L 3866 213 
Q 3469 63 3072 -14 
Q 2675 -91 2278 -91 
Q 1328 -91 801 392 
Q 275 875 275 1747 
Q 275 2603 792 3093 
Q 1309 3584 2216 3584 
Q 3041 3584 3536 3087 
Q 4031 2591 4031 1759 
z
M 2881 2131 
Q 2881 2450 2695 2645 
Q 2509 2841 2209 2841 
Q 1884 2841 1681 2658 
Q 1478 2475 1428 2131 
L 2881 2131 
z
" transform="scale(0.015625)"/>
      <path id="DejaVuSans-Bold-72" d="M 3138 2547 
Q 2991 2616 2845 2648 
Q 2700 2681 2553 2681 
Q 2122 2681 1889 2404 
Q 1656 2128 1656 1613 
L 1656 0 
L 538 0 
L 538 3500 
L 1656 3500 
L 1656 2925 
Q 1872 3269 2151 3426 
Q 2431 3584 2822 3584 
Q 2878 3584 2943 3579 
Q 3009 3575 3134 3559 
L 3138 2547 
z
" transform="scale(0.015625)"/>
      <path id="DejaVuSans-Bold-6f" d="M 2203 2784 
Q 1831 2784 1636 2517 
Q 1441 2250 1441 1747 
Q 1441 1244 1636 976 
Q 1831 709 2203 709 
Q 2569 709 2762 976 
Q 2956 1244 2956 1747 
Q 2956 2250 2762 2517 
Q 2569 2784 2203 2784 
z
M 2203 3584 
Q 3106 3584 3614 3096 
Q 4122 2609 4122 1747 
Q 4122 884 3614 396 
Q 3106 -91 2203 -91 
Q 1297 -91 786 396 
Q 275 884 275 1747 
Q 275 2609 786 3096 
Q 1297 3584 2203 3584 
z
" transform="scale(0.015625)"/>
      <path id="DejaVuSans-Bold-66" d="M 2841 4863 
L 2841 4128 
L 2222 4128 
Q 1984 4128 1890 4042 
Q 1797 3956 1797 3744 
L 1797 3500 
L 2753 3500 
L 2753 2700 
L 1797 2700 
L 1797 0 
L 678 0 
L 678 2700 
L 122 2700 
L 122 3500 
L 678 3500 
L 678 3744 
Q 678 4316 997 4589 
Q 1316 4863 1984 4863 
L 2841 4863 
z
" transform="scale(0.015625)"/>
      <path id="DejaVuSans-Bold-4a" d="M 588 4666 
L 1791 4666 
L 1791 453 
Q 1791 -419 1317 -850 
Q 844 -1281 -116 -1281 
L -359 -1281 
L -359 -372 
L -172 -372 
Q 203 -372 395 -162 
Q 588 47 588 453 
L 588 4666 
z
" transform="scale(0.015625)"/>
     </defs>
     <use xlink:href="#DejaVuSans-Bold-49"/>
     <use xlink:href="#DejaVuSans-Bold-4f" transform="translate(37.207031 0)"/>
     <use xlink:href="#DejaVuSans-Bold-50" transform="translate(122.216797 0)"/>
     <use xlink:href="#DejaVuSans-Bold-53" transform="translate(195.507812 0)"/>
     <use xlink:href="#DejaVuSans-Bold-20" transform="translate(267.529297 0)"/>
     <use xlink:href="#DejaVuSans-Bold-76" transform="translate(302.34375 0)"/>
     <use xlink:href="#DejaVuSans-Bold-73" transform="translate(367.529297 0)"/>
     <use xlink:href="#DejaVuSans-Bold-20" transform="translate(427.050781 0)"/>
     <use xlink:href="#DejaVuSans-Bold-4e" transform="translate(461.865234 0)"/>
     <use xlink:href="#DejaVuSans-Bold-75" transform="translate(545.556641 0)"/>
     <use xlink:href="#DejaVuSans-Bold-6d" transform="translate(616.748047 0)"/>
     <use xlink:href="#DejaVuSans-Bold-62" transform="translate(720.947266 0)"/>
     <use xlink:href="#DejaVuSans-Bold-65" transform="translate(792.529297 0)"/>
     <use xlink:href="#DejaVuSans-Bold-72" transform="translate(860.351562 0)"/>
     <use xlink:href="#DejaVuSans-Bold-20" transform="translate(909.667969 0)"/>
     <use xlink:href="#DejaVuSans-Bold-6f" transform="translate(944.482422 0)"/>
     <use xlink:href="#DejaVuSans-Bold-66" transform="translate(1013.183594 0)"/>
     <use xlink:href="#DejaVuSans-Bold-20" transform="translate(1056.689453 0)"/>
     <use xlink:href="#DejaVuSans-Bold-4a" transform="translate(1091.503906 0)"/>
     <use xlink:href="#DejaVuSans-Bold-6f" transform="translate(1128.710938 0)"/>
     <use xlink:href="#DejaVuSans-Bold-62" transform="translate(1197.412109 0)"/>
     <use xlink:href="#DejaVuSans-Bold-73" transform="translate(1268.994141 0)"/>
    </g>
   </g>
   <g id="legend_1">
    <g id="text_25">
     <!-- IO Depth -->
     <g style="fill: #262626" transform="translate(451.317187 120.065663) scale(0.1 -0.1)">
      <defs>
       <path id="DejaVuSans-44" d="M 1259 4147 
L 1259 519 
L 2022 519 
Q 2988 519 3436 956 
Q 3884 1394 3884 2338 
Q 3884 3275 3436 3711 
Q 2988 4147 2022 4147 
L 1259 4147 
z
M 628 4666 
L 1925 4666 
Q 3281 4666 3915 4102 
Q 4550 3538 4550 2338 
Q 4550 1131 3912 565 
Q 3275 0 1925 0 
L 628 0 
L 628 4666 
z
" transform="scale(0.015625)"/>
       <path id="DejaVuSans-68" d="M 3513 2113 
L 3513 0 
L 2938 0 
L 2938 2094 
Q 2938 2591 2744 2837 
Q 2550 3084 2163 3084 
Q 1697 3084 1428 2787 
Q 1159 2491 1159 1978 
L 1159 0 
L 581 0 
L 581 4863 
L 1159 4863 
L 1159 2956 
Q 1366 3272 1645 3428 
Q 1925 3584 2291 3584 
Q 2894 3584 3203 3211 
Q 3513 2838 3513 2113 
z
" transform="scale(0.015625)"/>
      </defs>
      <use xlink:href="#DejaVuSans-49"/>
      <use xlink:href="#DejaVuSans-4f" transform="translate(29.492188 0)"/>
      <use xlink:href="#DejaVuSans-20" transform="translate(108.203125 0)"/>
      <use xlink:href="#DejaVuSans-44" transform="translate(139.990234 0)"/>
      <use xlink:href="#DejaVuSans-65" transform="translate(216.992188 0)"/>
      <use xlink:href="#DejaVuSans-70" transform="translate(278.515625 0)"/>
      <use xlink:href="#DejaVuSans-74" transform="translate(341.992188 0)"/>
      <use xlink:href="#DejaVuSans-68" transform="translate(381.201172 0)"/>
     </g>
    </g>
    <g id="line2d_28">
     <path d="M 450.003125 131.243787 
L 460.003125 131.243787 
L 470.003125 131.243787 
" style="fill: none; stroke: #4c02a1; stroke-width: 1.5; stroke-linecap: round"/>
    </g>
    <g id="text_26">
     <!-- 1 -->
     <g style="fill: #262626" transform="translate(478.003125 134.743787) scale(0.1 -0.1)">
      <use xlink:href="#DejaVuSans-31"/>
     </g>
    </g>
    <g id="line2d_29">
     <path d="M 450.003125 145.921913 
L 460.003125 145.921913 
L 470.003125 145.921913 
" style="fill: none; stroke: #7e03a8; stroke-width: 1.5; stroke-linecap: round"/>
    </g>
    <g id="text_27">
     <!-- 4 -->
     <g style="fill: #262626" transform="translate(478.003125 149.421913) scale(0.1 -0.1)">
      <use xlink:href="#DejaVuSans-34"/>
     </g>
    </g>
    <g id="line2d_30">
     <path d="M 450.003125 160.600037 
L 460.003125 160.600037 
L 470.003125 160.600037 
" style="fill: none; stroke: #aa2395; stroke-width: 1.5; stroke-linecap: round"/>
    </g>
    <g id="text_28">
     <!-- 8 -->
     <g style="fill: #262626" transform="translate(478.003125 164.100037) scale(0.1 -0.1)">
      <use xlink:href="#DejaVuSans-38"/>
     </g>
    </g>
    <g id="line2d_31">
     <path d="M 450.003125 175.278163 
L 460.003125 175.278163 
L 470.003125 175.278163 
" style="fill: none; stroke: #cc4778; stroke-width: 1.5; stroke-linecap: round"/>
    </g>
    <g id="text_29">
     <!-- 16 -->
     <g style="fill: #262626" transform="translate(478.003125 178.778163) scale(0.1 -0.1)">
      <use xlink:href="#DejaVuSans-31"/>
      <use xlink:href="#DejaVuSans-36" transform="translate(63.623047 0)"/>
     </g>
    </g>
    <g id="line2d_32">
     <path d="M 450.003125 189.956288 
L 460.003125 189.956288 
L 470.003125 189.956288 
" style="fill: none; stroke: #e66c5c; stroke-width: 1.5; stroke-linecap: round"/>
    </g>
    <g id="text_30">
     <!-- 32 -->
     <g style="fill: #262626" transform="translate(478.003125 193.456288) scale(0.1 -0.1)">
      <use xlink:href="#DejaVuSans-33"/>
      <use xlink:href="#DejaVuSans-32" transform="translate(63.623047 0)"/>
     </g>
    </g>
    <g id="line2d_33">
     <path d="M 450.003125 204.634412 
L 460.003125 204.634412 
L 470.003125 204.634412 
" style="fill: none; stroke: #f89540; stroke-width: 1.5; stroke-linecap: round"/>
    </g>
    <g id="text_31">
     <!-- 64 -->
     <g style="fill: #262626" transform="translate(478.003125 208.134412) scale(0.1 -0.1)">
      <use xlink:href="#DejaVuSans-36"/>
      <use xlink:href="#DejaVuSans-34" transform="translate(63.623047 0)"/>
     </g>
    </g>
    <g id="line2d_34">
     <path d="M 450.003125 219.312537 
L 460.003125 219.312537 
L 470.003125 219.312537 
" style="fill: none; stroke: #fdc527; stroke-width: 1.5; stroke-linecap: round"/>
    </g>
    <g id="text_32">
     <!-- 128 -->
     <g style="fill: #262626" transform="translate(478.003125 222.812537) scale(0.1 -0.1)">
      <use xlink:href="#DejaVuSans-31"/>
      <use xlink:href="#DejaVuSans-32" transform="translate(63.623047 0)"/>
      <use xlink:href="#DejaVuSans-38" transform="translate(127.246094 0)"/>
     </g>
    </g>
   </g>
  </g>
 </g>
 <defs>
  <clipPath id="pbec0aae4e5">
   <rect x="59.690625" y="35.623725" width="357.12" height="266.112"/>
  </clipPath>
 </defs>
</svg>
