<?xml version="1.0" encoding="utf-8" standalone="no"?>
<!DOCTYPE svg PUBLIC "-//W3C//DTD SVG 1.1//EN"
  "http://www.w3.org/Graphics/SVG/1.1/DTD/svg11.dtd">
<svg xmlns:xlink="http://www.w3.org/1999/xlink" width="495.565625pt" height="339.291975pt" viewBox="0 0 495.565625 339.291975" xmlns="http://www.w3.org/2000/svg" version="1.1">
 <metadata>
  <rdf:RDF xmlns:dc="http://purl.org/dc/elements/1.1/" xmlns:cc="http://creativecommons.org/ns#" xmlns:rdf="http://www.w3.org/1999/02/22-rdf-syntax-ns#">
   <cc:Work>
    <dc:type rdf:resource="http://purl.org/dc/dcmitype/StillImage"/>
    <dc:date>2025-09-11T11:34:33.862327</dc:date>
    <dc:format>image/svg+xml</dc:format>
    <dc:creator>
     <cc:Agent>
      <dc:title>Matplotlib v3.10.6, https://matplotlib.org/</dc:title>
     </cc:Agent>
    </dc:creator>
   </cc:Work>
  </rdf:RDF>
 </metadata>
 <defs>
  <style type="text/css">*{stroke-linejoin: round; stroke-linecap: butt}</style>
 </defs>
 <g id="figure_1">
  <g id="patch_1">
   <path d="M 0 339.291975 
L 495.565625 339.291975 
L 495.565625 0 
L 0 0 
z
" style="fill: #ffffff"/>
  </g>
  <g id="axes_1">
   <g id="patch_2">
    <path d="M 46.965625 301.735725 
L 404.085625 301.735725 
L 404.085625 35.623725 
L 46.965625 35.623725 
z
" style="fill: #ffffff"/>
   </g>
   <g id="matplotlib.axis_1">
    <g id="xtick_1">
     <g id="line2d_1">
      <path d="M 109.577573 301.735725 
L 109.577573 35.623725 
" clip-path="url(#p9668e1a14e)" style="fill: none; stroke: #cccccc; stroke-width: 0.8; stroke-linecap: round"/>
     </g>
     <g id="text_1">
      <!-- 32 -->
      <g style="fill: #262626" transform="translate(103.215073 316.334162) scale(0.1 -0.1)">
       <defs>
        <path id="DejaVuSans-33" d="M 2597 2516 
Q 3050 2419 3304 2112 
Q 3559 1806 3559 1356 
Q 3559 666 3084 287 
Q 2609 -91 1734 -91 
Q 1441 -91 1130 -33 
Q 819 25 488 141 
L 488 750 
Q 750 597 1062 519 
Q 1375 441 1716 441 
Q 2309 441 2620 675 
Q 2931 909 2931 1356 
Q 2931 1769 2642 2001 
Q 2353 2234 1838 2234 
L 1294 2234 
L 1294 2753 
L 1863 2753 
Q 2328 2753 2575 2939 
Q 2822 3125 2822 3475 
Q 2822 3834 2567 4026 
Q 2313 4219 1838 4219 
Q 1578 4219 1281 4162 
Q 984 4106 628 3988 
L 628 4550 
Q 988 4650 1302 4700 
Q 1616 4750 1894 4750 
Q 2613 4750 3031 4423 
Q 3450 4097 3450 3541 
Q 3450 3153 3228 2886 
Q 3006 2619 2597 2516 
z
" transform="scale(0.015625)"/>
        <path id="DejaVuSans-32" d="M 1228 531 
L 3431 531 
L 3431 0 
L 469 0 
L 469 531 
Q 828 903 1448 1529 
Q 2069 2156 2228 2338 
Q 2531 2678 2651 2914 
Q 2772 3150 2772 3378 
Q 2772 3750 2511 3984 
Q 2250 4219 1831 4219 
Q 1534 4219 1204 4116 
Q 875 4013 500 3803 
L 500 4441 
Q 881 4594 1212 4672 
Q 1544 4750 1819 4750 
Q 2544 4750 2975 4387 
Q 3406 4025 3406 3419 
Q 3406 3131 3298 2873 
Q 3191 2616 2906 2266 
Q 2828 2175 2409 1742 
Q 1991 1309 1228 531 
z
" transform="scale(0.015625)"/>
       </defs>
       <use xlink:href="#DejaVuSans-33"/>
       <use xlink:href="#DejaVuSans-32" transform="translate(63.623047 0)"/>
      </g>
     </g>
    </g>
    <g id="xtick_2">
     <g id="line2d_2">
      <path d="M 202.336015 301.735725 
L 202.336015 35.623725 
" clip-path="url(#p9668e1a14e)" style="fill: none; stroke: #cccccc; stroke-width: 0.8; stroke-linecap: round"/>
     </g>
     <g id="text_2">
      <!-- 64 -->
      <g style="fill: #262626" transform="translate(195.973515 316.334162) scale(0.1 -0.1)">
       <defs>
        <path id="DejaVuSans-36" d="M 2113 2584 
Q 1688 2584 1439 2293 
Q 1191 2003 1191 1497 
Q 1191 994 1439 701 
Q 1688 409 2113 409 
Q 2538 409 2786 701 
Q 3034 994 3034 1497 
Q 3034 2003 2786 2293 
Q 2538 2584 2113 2584 
z
M 3366 4563 
L 3366 3988 
Q 3128 4100 2886 4159 
Q 2644 4219 2406 4219 
Q 1781 4219 1451 3797 
Q 1122 3375 1075 2522 
Q 1259 2794 1537 2939 
Q 1816 3084 2150 3084 
Q 2853 3084 3261 2657 
Q 3669 2231 3669 1497 
Q 3669 778 3244 343 
Q 2819 -91 2113 -91 
Q 1303 -91 875 529 
Q 447 1150 447 2328 
Q 447 3434 972 4092 
Q 1497 4750 2381 4750 
Q 2619 4750 2861 4703 
Q 3103 4656 3366 4563 
z
" transform="scale(0.015625)"/>
        <path id="DejaVuSans-34" d="M 2419 4116 
L 825 1625 
L 2419 1625 
L 2419 4116 
z
M 2253 4666 
L 3047 4666 
L 3047 1625 
L 3713 1625 
L 3713 1100 
L 3047 1100 
L 3047 0 
L 2419 0 
L 2419 1100 
L 313 1100 
L 313 1709 
L 2253 4666 
z
" transform="scale(0.015625)"/>
       </defs>
       <use xlink:href="#DejaVuSans-36"/>
       <use xlink:href="#DejaVuSans-34" transform="translate(63.623047 0)"/>
      </g>
     </g>
    </g>
    <g id="xtick_3">
     <g id="line2d_3">
      <path d="M 63.198352 301.735725 
L 63.198352 35.623725 
" clip-path="url(#p9668e1a14e)" style="fill: none; stroke: #cccccc; stroke-width: 0.8; stroke-linecap: round"/>
     </g>
     <g id="text_3">
      <!-- 16 -->
      <g style="fill: #262626" transform="translate(56.835852 316.334162) scale(0.1 -0.1)">
       <defs>
        <path id="DejaVuSans-31" d="M 794 531 
L 1825 531 
L 1825 4091 
L 703 3866 
L 703 4441 
L 1819 4666 
L 2450 4666 
L 2450 531 
L 3481 531 
L 3481 0 
L 794 0 
L 794 531 
z
" transform="scale(0.015625)"/>
       </defs>
       <use xlink:href="#DejaVuSans-31"/>
       <use xlink:href="#DejaVuSans-36" transform="translate(63.623047 0)"/>
      </g>
     </g>
    </g>
    <g id="xtick_4">
     <g id="line2d_4">
      <path d="M 387.852898 301.735725 
L 387.852898 35.623725 
" clip-path="url(#p9668e1a14e)" style="fill: none; stroke: #cccccc; stroke-width: 0.8; stroke-linecap: round"/>
     </g>
     <g id="text_4">
      <!-- 128 -->
      <g style="fill: #262626" transform="translate(378.309148 316.334162) scale(0.1 -0.1)">
       <defs>
        <path id="DejaVuSans-38" d="M 2034 2216 
Q 1584 2216 1326 1975 
Q 1069 1734 1069 1313 
Q 1069 891 1326 650 
Q 1584 409 2034 409 
Q 2484 409 2743 651 
Q 3003 894 3003 1313 
Q 3003 1734 2745 1975 
Q 2488 2216 2034 2216 
z
M 1403 2484 
Q 997 2584 770 2862 
Q 544 3141 544 3541 
Q 544 4100 942 4425 
Q 1341 4750 2034 4750 
Q 2731 4750 3128 4425 
Q 3525 4100 3525 3541 
Q 3525 3141 3298 2862 
Q 3072 2584 2669 2484 
Q 3125 2378 3379 2068 
Q 3634 1759 3634 1313 
Q 3634 634 3220 271 
Q 2806 -91 2034 -91 
Q 1263 -91 848 271 
Q 434 634 434 1313 
Q 434 1759 690 2068 
Q 947 2378 1403 2484 
z
M 1172 3481 
Q 1172 3119 1398 2916 
Q 1625 2713 2034 2713 
Q 2441 2713 2670 2916 
Q 2900 3119 2900 3481 
Q 2900 3844 2670 4047 
Q 2441 4250 2034 4250 
Q 1625 4250 1398 4047 
Q 1172 3844 1172 3481 
z
" transform="scale(0.015625)"/>
       </defs>
       <use xlink:href="#DejaVuSans-31"/>
       <use xlink:href="#DejaVuSans-32" transform="translate(63.623047 0)"/>
       <use xlink:href="#DejaVuSans-38" transform="translate(127.246094 0)"/>
      </g>
     </g>
    </g>
    <g id="text_5">
     <!-- Number of Jobs -->
     <g style="fill: #262626" transform="translate(187.12875 330.012287) scale(0.1 -0.1)">
      <defs>
       <path id="DejaVuSans-4e" d="M 628 4666 
L 1478 4666 
L 3547 763 
L 3547 4666 
L 4159 4666 
L 4159 0 
L 3309 0 
L 1241 3903 
L 1241 0 
L 628 0 
L 628 4666 
z
" transform="scale(0.015625)"/>
       <path id="DejaVuSans-75" d="M 544 1381 
L 544 3500 
L 1119 3500 
L 1119 1403 
Q 1119 906 1312 657 
Q 1506 409 1894 409 
Q 2359 409 2629 706 
Q 2900 1003 2900 1516 
L 2900 3500 
L 3475 3500 
L 3475 0 
L 2900 0 
L 2900 538 
Q 2691 219 2414 64 
Q 2138 -91 1772 -91 
Q 1169 -91 856 284 
Q 544 659 544 1381 
z
M 1991 3584 
L 1991 3584 
z
" transform="scale(0.015625)"/>
       <path id="DejaVuSans-6d" d="M 3328 2828 
Q 3544 3216 3844 3400 
Q 4144 3584 4550 3584 
Q 5097 3584 5394 3201 
Q 5691 2819 5691 2113 
L 5691 0 
L 5113 0 
L 5113 2094 
Q 5113 2597 4934 2840 
Q 4756 3084 4391 3084 
Q 3944 3084 3684 2787 
Q 3425 2491 3425 1978 
L 3425 0 
L 2847 0 
L 2847 2094 
Q 2847 2600 2669 2842 
Q 2491 3084 2119 3084 
Q 1678 3084 1418 2786 
Q 1159 2488 1159 1978 
L 1159 0 
L 581 0 
L 581 3500 
L 1159 3500 
L 1159 2956 
Q 1356 3278 1631 3431 
Q 1906 3584 2284 3584 
Q 2666 3584 2933 3390 
Q 3200 3197 3328 2828 
z
" transform="scale(0.015625)"/>
       <path id="DejaVuSans-62" d="M 3116 1747 
Q 3116 2381 2855 2742 
Q 2594 3103 2138 3103 
Q 1681 3103 1420 2742 
Q 1159 2381 1159 1747 
Q 1159 1113 1420 752 
Q 1681 391 2138 391 
Q 2594 391 2855 752 
Q 3116 1113 3116 1747 
z
M 1159 2969 
Q 1341 3281 1617 3432 
Q 1894 3584 2278 3584 
Q 2916 3584 3314 3078 
Q 3713 2572 3713 1747 
Q 3713 922 3314 415 
Q 2916 -91 2278 -91 
Q 1894 -91 1617 61 
Q 1341 213 1159 525 
L 1159 0 
L 581 0 
L 581 4863 
L 1159 4863 
L 1159 2969 
z
" transform="scale(0.015625)"/>
       <path id="DejaVuSans-65" d="M 3597 1894 
L 3597 1613 
L 953 1613 
Q 991 1019 1311 708 
Q 1631 397 2203 397 
Q 2534 397 2845 478 
Q 3156 559 3463 722 
L 3463 178 
Q 3153 47 2828 -22 
Q 2503 -91 2169 -91 
Q 1331 -91 842 396 
Q 353 884 353 1716 
Q 353 2575 817 3079 
Q 1281 3584 2069 3584 
Q 2775 3584 3186 3129 
Q 3597 2675 3597 1894 
z
M 3022 2063 
Q 3016 2534 2758 2815 
Q 2500 3097 2075 3097 
Q 1594 3097 1305 2825 
Q 1016 2553 972 2059 
L 3022 2063 
z
" transform="scale(0.015625)"/>
       <path id="DejaVuSans-72" d="M 2631 2963 
Q 2534 3019 2420 3045 
Q 2306 3072 2169 3072 
Q 1681 3072 1420 2755 
Q 1159 2438 1159 1844 
L 1159 0 
L 581 0 
L 581 3500 
L 1159 3500 
L 1159 2956 
Q 1341 3275 1631 3429 
Q 1922 3584 2338 3584 
Q 2397 3584 2469 3576 
Q 2541 3569 2628 3553 
L 2631 2963 
z
" transform="scale(0.015625)"/>
       <path id="DejaVuSans-20" transform="scale(0.015625)"/>
       <path id="DejaVuSans-6f" d="M 1959 3097 
Q 1497 3097 1228 2736 
Q 959 2375 959 1747 
Q 959 1119 1226 758 
Q 1494 397 1959 397 
Q 2419 397 2687 759 
Q 2956 1122 2956 1747 
Q 2956 2369 2687 2733 
Q 2419 3097 1959 3097 
z
M 1959 3584 
Q 2709 3584 3137 3096 
Q 3566 2609 3566 1747 
Q 3566 888 3137 398 
Q 2709 -91 1959 -91 
Q 1206 -91 779 398 
Q 353 888 353 1747 
Q 353 2609 779 3096 
Q 1206 3584 1959 3584 
z
" transform="scale(0.015625)"/>
       <path id="DejaVuSans-66" d="M 2375 4863 
L 2375 4384 
L 1825 4384 
Q 1516 4384 1395 4259 
Q 1275 4134 1275 3809 
L 1275 3500 
L 2222 3500 
L 2222 3053 
L 1275 3053 
L 1275 0 
L 697 0 
L 697 3053 
L 147 3053 
L 147 3500 
L 697 3500 
L 697 3744 
Q 697 4328 969 4595 
Q 1241 4863 1831 4863 
L 2375 4863 
z
" transform="scale(0.015625)"/>
       <path id="DejaVuSans-4a" d="M 628 4666 
L 1259 4666 
L 1259 325 
Q 1259 -519 939 -900 
Q 619 -1281 -91 -1281 
L -331 -1281 
L -331 -750 
L -134 -750 
Q 284 -750 456 -515 
Q 628 -281 628 325 
L 628 4666 
z
" transform="scale(0.015625)"/>
       <path id="DejaVuSans-73" d="M 2834 3397 
L 2834 2853 
Q 2591 2978 2328 3040 
Q 2066 3103 1784 3103 
Q 1356 3103 1142 2972 
Q 928 2841 928 2578 
Q 928 2378 1081 2264 
Q 1234 2150 1697 2047 
L 1894 2003 
Q 2506 1872 2764 1633 
Q 3022 1394 3022 966 
Q 3022 478 2636 193 
Q 2250 -91 1575 -91 
Q 1294 -91 989 -36 
Q 684 19 347 128 
L 347 722 
Q 666 556 975 473 
Q 1284 391 1588 391 
Q 1994 391 2212 530 
Q 2431 669 2431 922 
Q 2431 1156 2273 1281 
Q 2116 1406 1581 1522 
L 1381 1569 
Q 847 1681 609 1914 
Q 372 2147 372 2553 
Q 372 3047 722 3315 
Q 1072 3584 1716 3584 
Q 2034 3584 2315 3537 
Q 2597 3491 2834 3397 
z
" transform="scale(0.015625)"/>
      </defs>
      <use xlink:href="#DejaVuSans-4e"/>
      <use xlink:href="#DejaVuSans-75" transform="translate(74.804688 0)"/>
      <use xlink:href="#DejaVuSans-6d" transform="translate(138.183594 0)"/>
      <use xlink:href="#DejaVuSans-62" transform="translate(235.595703 0)"/>
      <use xlink:href="#DejaVuSans-65" transform="translate(299.072266 0)"/>
      <use xlink:href="#DejaVuSans-72" transform="translate(360.595703 0)"/>
      <use xlink:href="#DejaVuSans-20" transform="translate(401.708984 0)"/>
      <use xlink:href="#DejaVuSans-6f" transform="translate(433.496094 0)"/>
      <use xlink:href="#DejaVuSans-66" transform="translate(494.677734 0)"/>
      <use xlink:href="#DejaVuSans-20" transform="translate(529.882812 0)"/>
      <use xlink:href="#DejaVuSans-4a" transform="translate(561.669922 0)"/>
      <use xlink:href="#DejaVuSans-6f" transform="translate(591.162109 0)"/>
      <use xlink:href="#DejaVuSans-62" transform="translate(652.34375 0)"/>
      <use xlink:href="#DejaVuSans-73" transform="translate(715.820312 0)"/>
     </g>
    </g>
   </g>
   <g id="matplotlib.axis_2">
    <g id="ytick_1">
     <g id="line2d_5">
      <path d="M 46.965625 273.259725 
L 404.085625 273.259725 
" clip-path="url(#p9668e1a14e)" style="fill: none; stroke: #cccccc; stroke-width: 0.8; stroke-linecap: round"/>
     </g>
     <g id="text_6">
      <!-- 400 -->
      <g style="fill: #262626" transform="translate(20.878125 277.058944) scale(0.1 -0.1)">
       <defs>
        <path id="DejaVuSans-30" d="M 2034 4250 
Q 1547 4250 1301 3770 
Q 1056 3291 1056 2328 
Q 1056 1369 1301 889 
Q 1547 409 2034 409 
Q 2525 409 2770 889 
Q 3016 1369 3016 2328 
Q 3016 3291 2770 3770 
Q 2525 4250 2034 4250 
z
M 2034 4750 
Q 2819 4750 3233 4129 
Q 3647 3509 3647 2328 
Q 3647 1150 3233 529 
Q 2819 -91 2034 -91 
Q 1250 -91 836 529 
Q 422 1150 422 2328 
Q 422 3509 836 4129 
Q 1250 4750 2034 4750 
z
" transform="scale(0.015625)"/>
       </defs>
       <use xlink:href="#DejaVuSans-34"/>
       <use xlink:href="#DejaVuSans-30" transform="translate(63.623047 0)"/>
       <use xlink:href="#DejaVuSans-30" transform="translate(127.246094 0)"/>
      </g>
     </g>
    </g>
    <g id="ytick_2">
     <g id="line2d_6">
      <path d="M 46.965625 231.259725 
L 404.085625 231.259725 
" clip-path="url(#p9668e1a14e)" style="fill: none; stroke: #cccccc; stroke-width: 0.8; stroke-linecap: round"/>
     </g>
     <g id="text_7">
      <!-- 500 -->
      <g style="fill: #262626" transform="translate(20.878125 235.058944) scale(0.1 -0.1)">
       <defs>
        <path id="DejaVuSans-35" d="M 691 4666 
L 3169 4666 
L 3169 4134 
L 1269 4134 
L 1269 2991 
Q 1406 3038 1543 3061 
Q 1681 3084 1819 3084 
Q 2600 3084 3056 2656 
Q 3513 2228 3513 1497 
Q 3513 744 3044 326 
Q 2575 -91 1722 -91 
Q 1428 -91 1123 -41 
Q 819 9 494 109 
L 494 744 
Q 775 591 1075 516 
Q 1375 441 1709 441 
Q 2250 441 2565 725 
Q 2881 1009 2881 1497 
Q 2881 1984 2565 2268 
Q 2250 2553 1709 2553 
Q 1456 2553 1204 2497 
Q 953 2441 691 2322 
L 691 4666 
z
" transform="scale(0.015625)"/>
       </defs>
       <use xlink:href="#DejaVuSans-35"/>
       <use xlink:href="#DejaVuSans-30" transform="translate(63.623047 0)"/>
       <use xlink:href="#DejaVuSans-30" transform="translate(127.246094 0)"/>
      </g>
     </g>
    </g>
    <g id="ytick_3">
     <g id="line2d_7">
      <path d="M 46.965625 189.259725 
L 404.085625 189.259725 
" clip-path="url(#p9668e1a14e)" style="fill: none; stroke: #cccccc; stroke-width: 0.8; stroke-linecap: round"/>
     </g>
     <g id="text_8">
      <!-- 600 -->
      <g style="fill: #262626" transform="translate(20.878125 193.058944) scale(0.1 -0.1)">
       <use xlink:href="#DejaVuSans-36"/>
       <use xlink:href="#DejaVuSans-30" transform="translate(63.623047 0)"/>
       <use xlink:href="#DejaVuSans-30" transform="translate(127.246094 0)"/>
      </g>
     </g>
    </g>
    <g id="ytick_4">
     <g id="line2d_8">
      <path d="M 46.965625 147.259725 
L 404.085625 147.259725 
" clip-path="url(#p9668e1a14e)" style="fill: none; stroke: #cccccc; stroke-width: 0.8; stroke-linecap: round"/>
     </g>
     <g id="text_9">
      <!-- 700 -->
      <g style="fill: #262626" transform="translate(20.878125 151.058944) scale(0.1 -0.1)">
       <defs>
        <path id="DejaVuSans-37" d="M 525 4666 
L 3525 4666 
L 3525 4397 
L 1831 0 
L 1172 0 
L 2766 4134 
L 525 4134 
L 525 4666 
z
" transform="scale(0.015625)"/>
       </defs>
       <use xlink:href="#DejaVuSans-37"/>
       <use xlink:href="#DejaVuSans-30" transform="translate(63.623047 0)"/>
       <use xlink:href="#DejaVuSans-30" transform="translate(127.246094 0)"/>
      </g>
     </g>
    </g>
    <g id="ytick_5">
     <g id="line2d_9">
      <path d="M 46.965625 105.259725 
L 404.085625 105.259725 
" clip-path="url(#p9668e1a14e)" style="fill: none; stroke: #cccccc; stroke-width: 0.8; stroke-linecap: round"/>
     </g>
     <g id="text_10">
      <!-- 800 -->
      <g style="fill: #262626" transform="translate(20.878125 109.058944) scale(0.1 -0.1)">
       <use xlink:href="#DejaVuSans-38"/>
       <use xlink:href="#DejaVuSans-30" transform="translate(63.623047 0)"/>
       <use xlink:href="#DejaVuSans-30" transform="translate(127.246094 0)"/>
      </g>
     </g>
    </g>
    <g id="ytick_6">
     <g id="line2d_10">
      <path d="M 46.965625 63.259725 
L 404.085625 63.259725 
" clip-path="url(#p9668e1a14e)" style="fill: none; stroke: #cccccc; stroke-width: 0.8; stroke-linecap: round"/>
     </g>
     <g id="text_11">
      <!-- 900 -->
      <g style="fill: #262626" transform="translate(20.878125 67.058944) scale(0.1 -0.1)">
       <defs>
        <path id="DejaVuSans-39" d="M 703 97 
L 703 672 
Q 941 559 1184 500 
Q 1428 441 1663 441 
Q 2288 441 2617 861 
Q 2947 1281 2994 2138 
Q 2813 1869 2534 1725 
Q 2256 1581 1919 1581 
Q 1219 1581 811 2004 
Q 403 2428 403 3163 
Q 403 3881 828 4315 
Q 1253 4750 1959 4750 
Q 2769 4750 3195 4129 
Q 3622 3509 3622 2328 
Q 3622 1225 3098 567 
Q 2575 -91 1691 -91 
Q 1453 -91 1209 -44 
Q 966 3 703 97 
z
M 1959 2075 
Q 2384 2075 2632 2365 
Q 2881 2656 2881 3163 
Q 2881 3666 2632 3958 
Q 2384 4250 1959 4250 
Q 1534 4250 1286 3958 
Q 1038 3666 1038 3163 
Q 1038 2656 1286 2365 
Q 1534 2075 1959 2075 
z
" transform="scale(0.015625)"/>
       </defs>
       <use xlink:href="#DejaVuSans-39"/>
       <use xlink:href="#DejaVuSans-30" transform="translate(63.623047 0)"/>
       <use xlink:href="#DejaVuSans-30" transform="translate(127.246094 0)"/>
      </g>
     </g>
    </g>
    <g id="text_12">
     <!-- IOPS -->
     <g style="fill: #262626" transform="translate(14.798438 180.279725) rotate(-90) scale(0.1 -0.1)">
      <defs>
       <path id="DejaVuSans-49" d="M 628 4666 
L 1259 4666 
L 1259 0 
L 628 0 
L 628 4666 
z
" transform="scale(0.015625)"/>
       <path id="DejaVuSans-4f" d="M 2522 4238 
Q 1834 4238 1429 3725 
Q 1025 3213 1025 2328 
Q 1025 1447 1429 934 
Q 1834 422 2522 422 
Q 3209 422 3611 934 
Q 4013 1447 4013 2328 
Q 4013 3213 3611 3725 
Q 3209 4238 2522 4238 
z
M 2522 4750 
Q 3503 4750 4090 4092 
Q 4678 3434 4678 2328 
Q 4678 1225 4090 567 
Q 3503 -91 2522 -91 
Q 1538 -91 948 565 
Q 359 1222 359 2328 
Q 359 3434 948 4092 
Q 1538 4750 2522 4750 
z
" transform="scale(0.015625)"/>
       <path id="DejaVuSans-50" d="M 1259 4147 
L 1259 2394 
L 2053 2394 
Q 2494 2394 2734 2622 
Q 2975 2850 2975 3272 
Q 2975 3691 2734 3919 
Q 2494 4147 2053 4147 
L 1259 4147 
z
M 628 4666 
L 2053 4666 
Q 2838 4666 3239 4311 
Q 3641 3956 3641 3272 
Q 3641 2581 3239 2228 
Q 2838 1875 2053 1875 
L 1259 1875 
L 1259 0 
L 628 0 
L 628 4666 
z
" transform="scale(0.015625)"/>
       <path id="DejaVuSans-53" d="M 3425 4513 
L 3425 3897 
Q 3066 4069 2747 4153 
Q 2428 4238 2131 4238 
Q 1616 4238 1336 4038 
Q 1056 3838 1056 3469 
Q 1056 3159 1242 3001 
Q 1428 2844 1947 2747 
L 2328 2669 
Q 3034 2534 3370 2195 
Q 3706 1856 3706 1288 
Q 3706 609 3251 259 
Q 2797 -91 1919 -91 
Q 1588 -91 1214 -16 
Q 841 59 441 206 
L 441 856 
Q 825 641 1194 531 
Q 1563 422 1919 422 
Q 2459 422 2753 634 
Q 3047 847 3047 1241 
Q 3047 1584 2836 1778 
Q 2625 1972 2144 2069 
L 1759 2144 
Q 1053 2284 737 2584 
Q 422 2884 422 3419 
Q 422 4038 858 4394 
Q 1294 4750 2059 4750 
Q 2388 4750 2728 4690 
Q 3069 4631 3425 4513 
z
" transform="scale(0.015625)"/>
      </defs>
      <use xlink:href="#DejaVuSans-49"/>
      <use xlink:href="#DejaVuSans-4f" transform="translate(29.492188 0)"/>
      <use xlink:href="#DejaVuSans-50" transform="translate(108.203125 0)"/>
      <use xlink:href="#DejaVuSans-53" transform="translate(168.505859 0)"/>
     </g>
    </g>
   </g>
   <g id="FillBetweenPolyCollection_1"/>
   <g id="FillBetweenPolyCollection_2"/>
   <g id="FillBetweenPolyCollection_3"/>
   <g id="FillBetweenPolyCollection_4"/>
   <g id="FillBetweenPolyCollection_5"/>
   <g id="FillBetweenPolyCollection_6"/>
   <g id="FillBetweenPolyCollection_7"/>
   <g id="line2d_11">
    <path d="M 63.198352 144.739725 
L 109.577573 178.339725 
L 202.336015 289.639725 
L 387.852898 271.999725 
" clip-path="url(#p9668e1a14e)" style="fill: none; stroke: #4c02a1; stroke-width: 1.5; stroke-linecap: round"/>
   </g>
   <g id="line2d_12">
    <path d="M 63.198352 112.399725 
L 109.577573 143.479725 
L 202.336015 249.319725 
L 387.852898 248.479725 
" clip-path="url(#p9668e1a14e)" style="fill: none; stroke: #7e03a8; stroke-width: 1.5; stroke-linecap: round"/>
   </g>
   <g id="line2d_13">
    <path d="M 63.198352 119.539725 
L 109.577573 234.199725 
L 202.336015 218.239725 
L 387.852898 276.619725 
" clip-path="url(#p9668e1a14e)" style="fill: none; stroke: #aa2395; stroke-width: 1.5; stroke-linecap: round"/>
   </g>
   <g id="line2d_14">
    <path d="M 63.198352 47.719725 
L 109.577573 160.279725 
L 202.336015 214.459725 
L 387.852898 264.019725 
" clip-path="url(#p9668e1a14e)" style="fill: none; stroke: #cc4778; stroke-width: 1.5; stroke-linecap: round"/>
   </g>
   <g id="line2d_15">
    <path d="M 63.198352 53.599725 
L 109.577573 160.279725 
L 202.336015 264.019725 
L 387.852898 234.199725 
" clip-path="url(#p9668e1a14e)" style="fill: none; stroke: #e66c5c; stroke-width: 1.5; stroke-linecap: round"/>
   </g>
   <g id="line2d_16">
    <path d="M 63.198352 69.979725 
L 109.577573 167.419725 
L 202.336015 219.499725 
L 387.852898 242.599725 
" clip-path="url(#p9668e1a14e)" style="fill: none; stroke: #f89540; stroke-width: 1.5; stroke-linecap: round"/>
   </g>
   <g id="line2d_17">
    <path d="M 63.198352 135.079725 
L 109.577573 250.159725 
L 202.336015 231.259725 
L 387.852898 259.399725 
" clip-path="url(#p9668e1a14e)" style="fill: none; stroke: #fdc527; stroke-width: 1.5; stroke-linecap: round"/>
   </g>
   <g id="line2d_18"/>
   <g id="line2d_19"/>
   <g id="line2d_20"/>
   <g id="line2d_21"/>
   <g id="line2d_22"/>
   <g id="line2d_23"/>
   <g id="line2d_24"/>
   <g id="text_13">
    <path d="M 102.29396 175.445889 
L 103.598525 176.390998 
L 106.861945 171.886389 
L 105.235978 171.142563 
L 105.763075 170.414993 
L 107.38145 171.153318 
L 108.179879 171.73175 
L 104.389362 176.963929 
L 105.693927 177.909038 
L 105.207165 178.580933 
L 101.807197 176.117785 
L 102.29396 175.445889 
z
" clip-path="url(#p9668e1a14e)" style="fill: #4c02a1; stroke: #ffffff; stroke-width: 5"/>
    <path d="M 102.29396 175.445889 
L 103.598525 176.390998 
L 106.861945 171.886389 
L 105.235978 171.142563 
L 105.763075 170.414993 
L 107.38145 171.153318 
L 108.179879 171.73175 
L 104.389362 176.963929 
L 105.693927 177.909038 
L 105.207165 178.580933 
L 101.807197 176.117785 
L 102.29396 175.445889 
z
" clip-path="url(#p9668e1a14e)" style="fill: #4c02a1"/>
   </g>
   <g id="text_14">
    <path d="M 148.329504 182.125743 
L 143.760794 182.818007 
L 145.402369 184.691091 
L 148.329504 182.125743 
z
M 148.804845 181.364263 
L 149.622543 182.29728 
L 146.049113 185.429043 
L 146.734991 186.211649 
L 146.118072 186.752319 
L 145.432194 185.969713 
L 144.139602 187.102544 
L 143.492858 186.364591 
L 144.78545 185.23176 
L 142.616593 182.757033 
L 143.33222 182.129857 
L 148.804845 181.364263 
z
" clip-path="url(#p9668e1a14e)" style="fill: #7e03a8; stroke: #ffffff; stroke-width: 5"/>
    <path d="M 148.329504 182.125743 
L 143.760794 182.818007 
L 145.402369 184.691091 
L 148.329504 182.125743 
z
M 148.804845 181.364263 
L 149.622543 182.29728 
L 146.049113 185.429043 
L 146.734991 186.211649 
L 146.118072 186.752319 
L 145.432194 185.969713 
L 144.139602 187.102544 
L 143.492858 186.364591 
L 144.78545 185.23176 
L 142.616593 182.757033 
L 143.33222 182.129857 
L 148.804845 181.364263 
z
" clip-path="url(#p9668e1a14e)" style="fill: #7e03a8"/>
   </g>
   <g id="text_15">
    <path d="M 185.227318 220.469987 
Q 184.534375 220.589215 184.200941 221.028681 
Q 183.869047 221.467883 183.980591 222.116169 
Q 184.0924 222.765995 184.552 223.069012 
Q 185.01314 223.371765 185.706083 223.252537 
Q 186.399025 223.133309 186.733734 222.692038 
Q 187.069718 222.248962 186.958704 221.603755 
Q 186.84716 220.955469 186.38602 220.652717 
Q 185.92642 220.3497 185.227318 220.469987 
z
M 184.184651 220.224485 
Q 183.532968 220.178067 183.109761 219.810127 
Q 182.687829 219.440381 182.581848 218.824432 
Q 182.433741 217.963643 182.960502 217.357734 
Q 183.488802 216.751561 184.555934 216.56795 
Q 185.629225 216.38328 186.326663 216.778553 
Q 187.024102 217.173827 187.172209 218.034615 
Q 187.278189 218.650564 187.002559 219.140332 
Q 186.728204 219.628296 186.13413 219.889058 
Q 186.864397 219.931467 187.337659 220.34153 
Q 187.812196 220.749789 187.930364 221.436572 
Q 188.110265 222.482145 187.568935 223.150809 
Q 187.027339 223.817932 185.838558 224.022473 
Q 184.651316 224.22675 183.916357 223.77927 
Q 183.182673 223.329986 183.002772 222.284412 
Q 182.884604 221.597629 183.196942 221.053981 
Q 183.510554 220.508529 184.184651 220.224485 
z
M 183.564785 218.750435 
Q 183.660697 219.307869 184.062494 219.560585 
Q 184.46583 219.813035 185.095637 219.704671 
Q 185.722366 219.596836 186.021212 219.223568 
Q 186.321597 218.850035 186.225685 218.292602 
Q 186.129508 217.733628 185.721553 217.481972 
Q 185.315137 217.230052 184.688409 217.337886 
Q 184.058601 217.446251 183.762835 217.818989 
Q 183.468609 218.191462 183.564785 218.750435 
z
" clip-path="url(#p9668e1a14e)" style="fill: #aa2395; stroke: #ffffff; stroke-width: 5"/>
    <path d="M 185.227318 220.469987 
Q 184.534375 220.589215 184.200941 221.028681 
Q 183.869047 221.467883 183.980591 222.116169 
Q 184.0924 222.765995 184.552 223.069012 
Q 185.01314 223.371765 185.706083 223.252537 
Q 186.399025 223.133309 186.733734 222.692038 
Q 187.069718 222.248962 186.958704 221.603755 
Q 186.84716 220.955469 186.38602 220.652717 
Q 185.92642 220.3497 185.227318 220.469987 
z
M 184.184651 220.224485 
Q 183.532968 220.178067 183.109761 219.810127 
Q 182.687829 219.440381 182.581848 218.824432 
Q 182.433741 217.963643 182.960502 217.357734 
Q 183.488802 216.751561 184.555934 216.56795 
Q 185.629225 216.38328 186.326663 216.778553 
Q 187.024102 217.173827 187.172209 218.034615 
Q 187.278189 218.650564 187.002559 219.140332 
Q 186.728204 219.628296 186.13413 219.889058 
Q 186.864397 219.931467 187.337659 220.34153 
Q 187.812196 220.749789 187.930364 221.436572 
Q 188.110265 222.482145 187.568935 223.150809 
Q 187.027339 223.817932 185.838558 224.022473 
Q 184.651316 224.22675 183.916357 223.77927 
Q 183.182673 223.329986 183.002772 222.284412 
Q 182.884604 221.597629 183.196942 221.053981 
Q 183.510554 220.508529 184.184651 220.224485 
z
M 183.564785 218.750435 
Q 183.660697 219.307869 184.062494 219.560585 
Q 184.46583 219.813035 185.095637 219.704671 
Q 185.722366 219.596836 186.021212 219.223568 
Q 186.321597 218.850035 186.225685 218.292602 
Q 186.129508 217.733628 185.721553 217.481972 
Q 185.315137 217.230052 184.688409 217.337886 
Q 184.058601 217.446251 183.762835 217.818989 
Q 183.468609 218.191462 183.564785 218.750435 
z
" clip-path="url(#p9668e1a14e)" style="fill: #aa2395"/>
   </g>
   <g id="text_16">
    <path d="M 220.079239 221.197106 
L 221.635597 221.61288 
L 223.071248 216.23884 
L 221.286783 216.126019 
L 221.518665 215.258021 
L 223.294073 215.368422 
L 224.246606 215.622887 
L 222.579074 221.864926 
L 224.135432 222.2807 
L 223.921294 223.082277 
L 219.865101 221.998684 
L 220.079239 221.197106 
z
M 229.045018 220.271968 
Q 228.403454 220.100577 227.910221 220.439445 
Q 227.4189 220.777206 227.214844 221.541045 
Q 227.011998 222.300354 227.268211 222.842668 
Q 227.526336 223.383875 228.1679 223.555265 
Q 228.809464 223.726656 229.301591 223.385876 
Q 229.794121 223.043586 229.996967 222.284276 
Q 230.201023 221.520438 229.943601 220.982653 
Q 229.686582 220.443359 229.045018 220.271968 
z
M 231.734576 217.789846 
L 231.502694 218.657844 
Q 231.188585 218.392794 230.847064 218.206138 
Q 230.505946 218.017972 230.14667 217.921993 
Q 229.203194 217.669948 228.534858 218.173903 
Q 227.868031 218.678261 227.45309 219.946964 
Q 227.840539 219.610565 228.318672 219.503789 
Q 228.798314 219.397415 229.302508 219.532108 
Q 230.36373 219.815609 230.807434 220.624727 
Q 231.251541 221.432336 230.955539 222.540354 
Q 230.665586 223.625729 229.848598 224.110998 
Q 229.032014 224.594757 227.966263 224.310046 
Q 226.743518 223.983396 226.347455 222.874866 
Q 225.951795 221.764828 226.42685 219.986564 
Q 226.872869 218.316988 227.930743 217.535414 
Q 228.988616 216.753841 230.323069 217.110334 
Q 230.682345 217.206313 231.028705 217.374854 
Q 231.375065 217.543396 231.734576 217.789846 
z
" clip-path="url(#p9668e1a14e)" style="fill: #cc4778; stroke: #ffffff; stroke-width: 5"/>
    <path d="M 220.079239 221.197106 
L 221.635597 221.61288 
L 223.071248 216.23884 
L 221.286783 216.126019 
L 221.518665 215.258021 
L 223.294073 215.368422 
L 224.246606 215.622887 
L 222.579074 221.864926 
L 224.135432 222.2807 
L 223.921294 223.082277 
L 219.865101 221.998684 
L 220.079239 221.197106 
z
M 229.045018 220.271968 
Q 228.403454 220.100577 227.910221 220.439445 
Q 227.4189 220.777206 227.214844 221.541045 
Q 227.011998 222.300354 227.268211 222.842668 
Q 227.526336 223.383875 228.1679 223.555265 
Q 228.809464 223.726656 229.301591 223.385876 
Q 229.794121 223.043586 229.996967 222.284276 
Q 230.201023 221.520438 229.943601 220.982653 
Q 229.686582 220.443359 229.045018 220.271968 
z
M 231.734576 217.789846 
L 231.502694 218.657844 
Q 231.188585 218.392794 230.847064 218.206138 
Q 230.505946 218.017972 230.14667 217.921993 
Q 229.203194 217.669948 228.534858 218.173903 
Q 227.868031 218.678261 227.45309 219.946964 
Q 227.840539 219.610565 228.318672 219.503789 
Q 228.798314 219.397415 229.302508 219.532108 
Q 230.36373 219.815609 230.807434 220.624727 
Q 231.251541 221.432336 230.955539 222.540354 
Q 230.665586 223.625729 229.848598 224.110998 
Q 229.032014 224.594757 227.966263 224.310046 
Q 226.743518 223.983396 226.347455 222.874866 
Q 225.951795 221.764828 226.42685 219.986564 
Q 226.872869 218.316988 227.930743 217.535414 
Q 228.988616 216.753841 230.323069 217.110334 
Q 230.682345 217.206313 231.028705 217.374854 
Q 231.375065 217.543396 231.734576 217.789846 
z
" clip-path="url(#p9668e1a14e)" style="fill: #cc4778"/>
   </g>
   <g id="text_17">
    <path d="M 263.240166 253.043069 
Q 263.963062 253.080379 264.431035 253.491001 
Q 264.900302 253.899834 265.01189 254.594048 
Q 265.182992 255.658509 264.544192 256.360978 
Q 263.905145 257.061905 262.555285 257.278882 
Q 262.103274 257.351538 261.609113 257.339182 
Q 261.114952 257.326825 260.575554 257.229951 
L 260.424538 256.290448 
Q 260.866665 256.461512 261.367328 256.504475 
Q 261.869535 256.547189 262.395594 256.462631 
Q 263.310414 256.315582 263.732167 255.877471 
Q 264.15392 255.439361 264.043076 254.749775 
Q 263.940663 254.112641 263.437294 253.826399 
Q 262.933677 253.538615 262.139187 253.666321 
L 261.29996 253.801219 
L 261.171262 253.000559 
L 262.049057 252.859462 
Q 262.766411 252.744154 263.101334 252.395963 
Q 263.436257 252.047772 263.349467 251.507828 
Q 263.260444 250.954 262.819446 250.721035 
Q 262.379742 250.486279 261.64696 250.604067 
Q 261.245859 250.66854 260.801812 250.830122 
Q 260.357518 250.990161 259.837578 251.260478 
L 259.698217 250.393482 
Q 260.228791 250.149941 260.700799 249.994943 
Q 261.172808 249.839944 261.601678 249.771008 
Q 262.710877 249.592715 263.436812 249.993524 
Q 264.164041 250.392543 264.301915 251.250283 
Q 264.398128 251.848849 264.121858 252.3158 
Q 263.845588 252.78275 263.240166 253.043069 
z
M 267.902112 255.435082 
L 271.300674 254.888797 
L 271.432348 255.707969 
L 266.862878 256.442466 
L 266.731204 255.623294 
Q 267.192787 254.960388 267.994028 253.840916 
Q 268.796564 252.719653 268.996721 252.399455 
Q 269.379848 251.799802 269.50645 251.405968 
Q 269.634594 251.011887 269.578057 250.660152 
Q 269.48581 250.086268 269.025141 249.789998 
Q 268.564223 249.492185 267.917833 249.596086 
Q 267.459652 249.669734 266.976103 249.910463 
Q 266.494096 250.150944 265.967659 250.567901 
L 265.809452 249.58366 
Q 266.35928 249.253149 266.850571 249.05074 
Q 267.343405 248.848082 267.767646 248.77989 
Q 268.886102 248.600109 269.641019 249.053232 
Q 270.395688 249.504812 270.54596 250.439686 
Q 270.617376 250.883983 270.514742 251.30878 
Q 270.413402 251.731787 270.060524 252.342403 
Q 269.96276 252.50213 269.423742 253.274019 
Q 268.886267 254.04566 267.902112 255.435082 
z
" clip-path="url(#p9668e1a14e)" style="fill: #e66c5c; stroke: #ffffff; stroke-width: 5"/>
    <path d="M 263.240166 253.043069 
Q 263.963062 253.080379 264.431035 253.491001 
Q 264.900302 253.899834 265.01189 254.594048 
Q 265.182992 255.658509 264.544192 256.360978 
Q 263.905145 257.061905 262.555285 257.278882 
Q 262.103274 257.351538 261.609113 257.339182 
Q 261.114952 257.326825 260.575554 257.229951 
L 260.424538 256.290448 
Q 260.866665 256.461512 261.367328 256.504475 
Q 261.869535 256.547189 262.395594 256.462631 
Q 263.310414 256.315582 263.732167 255.877471 
Q 264.15392 255.439361 264.043076 254.749775 
Q 263.940663 254.112641 263.437294 253.826399 
Q 262.933677 253.538615 262.139187 253.666321 
L 261.29996 253.801219 
L 261.171262 253.000559 
L 262.049057 252.859462 
Q 262.766411 252.744154 263.101334 252.395963 
Q 263.436257 252.047772 263.349467 251.507828 
Q 263.260444 250.954 262.819446 250.721035 
Q 262.379742 250.486279 261.64696 250.604067 
Q 261.245859 250.66854 260.801812 250.830122 
Q 260.357518 250.990161 259.837578 251.260478 
L 259.698217 250.393482 
Q 260.228791 250.149941 260.700799 249.994943 
Q 261.172808 249.839944 261.601678 249.771008 
Q 262.710877 249.592715 263.436812 249.993524 
Q 264.164041 250.392543 264.301915 251.250283 
Q 264.398128 251.848849 264.121858 252.3158 
Q 263.845588 252.78275 263.240166 253.043069 
z
M 267.902112 255.435082 
L 271.300674 254.888797 
L 271.432348 255.707969 
L 266.862878 256.442466 
L 266.731204 255.623294 
Q 267.192787 254.960388 267.994028 253.840916 
Q 268.796564 252.719653 268.996721 252.399455 
Q 269.379848 251.799802 269.50645 251.405968 
Q 269.634594 251.011887 269.578057 250.660152 
Q 269.48581 250.086268 269.025141 249.789998 
Q 268.564223 249.492185 267.917833 249.596086 
Q 267.459652 249.669734 266.976103 249.910463 
Q 266.494096 250.150944 265.967659 250.567901 
L 265.809452 249.58366 
Q 266.35928 249.253149 266.850571 249.05074 
Q 267.343405 248.848082 267.767646 248.77989 
Q 268.886102 248.600109 269.641019 249.053232 
Q 270.395688 249.504812 270.54596 250.439686 
Q 270.617376 250.883983 270.514742 251.30878 
Q 270.413402 251.731787 270.060524 252.342403 
Q 269.96276 252.50213 269.423742 253.274019 
Q 268.886267 254.04566 267.902112 255.435082 
z
" clip-path="url(#p9668e1a14e)" style="fill: #e66c5c"/>
   </g>
   <g id="text_18">
    <path d="M 302.998073 230.745864 
Q 302.339099 230.663811 301.896836 231.06694 
Q 301.456316 231.468712 301.358624 232.253279 
Q 301.261511 233.033193 301.589473 233.535378 
Q 301.919179 234.036205 302.578153 234.118259 
Q 303.237126 234.200312 303.678032 233.795439 
Q 304.119131 233.389015 304.216244 232.609101 
Q 304.313936 231.824534 303.985395 231.327001 
Q 303.657046 230.827918 302.998073 230.745864 
z
M 305.322961 227.919286 
L 305.211948 228.810838 
Q 304.864546 228.591229 304.50071 228.453026 
Q 304.137067 228.313272 303.768041 228.267322 
Q 302.798962 228.146656 302.205815 228.737266 
Q 301.614217 229.328069 301.376657 230.641593 
Q 301.714468 230.255375 302.173509 230.084221 
Q 302.6341 229.91326 303.151976 229.977745 
Q 304.241996 230.113471 304.792171 230.854316 
Q 305.342539 231.593612 305.200828 232.731698 
Q 305.062013 233.846526 304.319055 234.438952 
Q 303.576291 235.029827 302.481619 234.893522 
Q 301.225693 234.737138 300.681769 233.693179 
Q 300.138038 232.647669 300.365471 230.82115 
Q 300.579003 229.106268 301.520067 228.187381 
Q 302.461131 227.268495 303.831797 227.439166 
Q 304.200822 227.485116 304.566975 227.604713 
Q 304.933128 227.72431 305.322961 227.919286 
z
M 310.081861 229.21568 
L 307.129393 232.770293 
L 309.600932 233.078041 
L 310.081861 229.21568 
z
M 309.93066 228.330842 
L 311.161778 228.484137 
L 310.574662 233.199287 
L 311.607312 233.32787 
L 311.505952 234.141896 
L 310.473302 234.013313 
L 310.260928 235.718892 
L 309.287198 235.597646 
L 309.499572 233.892067 
L 306.234163 233.485469 
L 306.351741 232.541198 
L 309.93066 228.330842 
z
" clip-path="url(#p9668e1a14e)" style="fill: #f89540; stroke: #ffffff; stroke-width: 5"/>
    <path d="M 302.998073 230.745864 
Q 302.339099 230.663811 301.896836 231.06694 
Q 301.456316 231.468712 301.358624 232.253279 
Q 301.261511 233.033193 301.589473 233.535378 
Q 301.919179 234.036205 302.578153 234.118259 
Q 303.237126 234.200312 303.678032 233.795439 
Q 304.119131 233.389015 304.216244 232.609101 
Q 304.313936 231.824534 303.985395 231.327001 
Q 303.657046 230.827918 302.998073 230.745864 
z
M 305.322961 227.919286 
L 305.211948 228.810838 
Q 304.864546 228.591229 304.50071 228.453026 
Q 304.137067 228.313272 303.768041 228.267322 
Q 302.798962 228.146656 302.205815 228.737266 
Q 301.614217 229.328069 301.376657 230.641593 
Q 301.714468 230.255375 302.173509 230.084221 
Q 302.6341 229.91326 303.151976 229.977745 
Q 304.241996 230.113471 304.792171 230.854316 
Q 305.342539 231.593612 305.200828 232.731698 
Q 305.062013 233.846526 304.319055 234.438952 
Q 303.576291 235.029827 302.481619 234.893522 
Q 301.225693 234.737138 300.681769 233.693179 
Q 300.138038 232.647669 300.365471 230.82115 
Q 300.579003 229.106268 301.520067 228.187381 
Q 302.461131 227.268495 303.831797 227.439166 
Q 304.200822 227.485116 304.566975 227.604713 
Q 304.933128 227.72431 305.322961 227.919286 
z
M 310.081861 229.21568 
L 307.129393 232.770293 
L 309.600932 233.078041 
L 310.081861 229.21568 
z
M 309.93066 228.330842 
L 311.161778 228.484137 
L 310.574662 233.199287 
L 311.607312 233.32787 
L 311.505952 234.141896 
L 310.473302 234.013313 
L 310.260928 235.718892 
L 309.287198 235.597646 
L 309.499572 233.892067 
L 306.234163 233.485469 
L 306.351741 232.541198 
L 309.93066 228.330842 
z
" clip-path="url(#p9668e1a14e)" style="fill: #f89540"/>
   </g>
   <g id="text_19">
    <path d="M 337.555009 253.722085 
L 339.147728 253.963676 
L 339.98193 248.464083 
L 338.195908 248.548756 
L 338.330646 247.660479 
L 340.107399 247.574401 
L 341.082186 247.722261 
L 340.113247 254.11013 
L 341.705966 254.35172 
L 341.581538 255.172024 
L 337.430582 254.542389 
L 337.555009 253.722085 
z
M 344.515817 254.77793 
L 347.919076 255.294151 
L 347.794648 256.114456 
L 343.218864 255.420381 
L 343.343291 254.600077 
Q 343.985055 254.109523 345.089537 253.287743 
Q 346.195799 252.464651 346.484074 252.22075 
Q 347.031828 251.766509 347.272509 251.430049 
Q 347.514734 251.093822 347.56816 250.741601 
Q 347.65533 250.166925 347.306962 249.744276 
Q 346.958828 249.320082 346.311544 249.221899 
Q 345.85273 249.152304 345.318801 249.234094 
Q 344.786416 249.316118 344.157897 249.552659 
L 344.307397 248.567058 
Q 344.931829 248.419978 345.461445 248.377043 
Q 345.992606 248.334343 346.417434 248.398783 
Q 347.537435 248.568669 348.118196 249.230437 
Q 348.699191 249.89066 348.557189 250.826826 
Q 348.489703 251.271737 348.262406 251.644996 
Q 348.036887 252.016944 347.514597 252.490851 
Q 347.372776 252.613153 346.624029 253.183882 
Q 345.876827 253.754844 344.515817 254.77793 
z
M 352.446141 253.317908 
Q 351.750968 253.212461 351.295929 253.524309 
Q 350.842435 253.836391 350.743784 254.486764 
Q 350.644898 255.138682 350.985447 255.571207 
Q 351.32754 256.003967 352.022713 256.109414 
Q 352.717886 256.214861 353.174704 255.901703 
Q 353.633301 255.587234 353.731484 254.939951 
Q 353.830135 254.289578 353.488042 253.856818 
Q 353.147493 253.424292 352.446141 253.317908 
z
M 351.534153 252.756034 
Q 350.930385 252.506414 350.644851 252.02376 
Q 350.361097 251.539794 350.454828 250.921863 
Q 350.585816 250.058303 351.276814 249.649496 
Q 351.969357 249.240922 353.039924 249.40331 
Q 354.11667 249.566636 354.653811 250.161733 
Q 355.190952 250.75683 355.059964 251.62039 
Q 354.966233 252.238321 354.55018 252.616137 
Q 354.135906 252.992641 353.489907 253.052691 
Q 354.16951 253.323295 354.489256 253.861711 
Q 354.81078 254.398817 354.706271 255.087811 
Q 354.547163 256.13675 353.822543 256.600512 
Q 353.098158 257.062729 351.90555 256.881829 
Q 350.714486 256.701163 350.158208 256.04469 
Q 349.60371 255.386905 349.762817 254.337966 
Q 349.867327 253.648973 350.33521 253.231608 
Q 350.804872 252.812933 351.534153 252.756034 
z
M 351.410921 251.161709 
Q 351.326095 251.720938 351.627658 252.087496 
Q 351.930766 252.454288 352.562601 252.550128 
Q 353.191346 252.645498 353.592681 252.385559 
Q 353.99556 252.125854 354.080386 251.566625 
Q 354.165446 251.005852 353.857704 250.638357 
Q 353.551506 250.271096 352.922761 250.175725 
Q 352.290925 250.079886 351.892681 250.340294 
Q 351.495981 250.600936 351.410921 251.161709 
z
" clip-path="url(#p9668e1a14e)" style="fill: #fdc527; stroke: #ffffff; stroke-width: 5"/>
    <path d="M 337.555009 253.722085 
L 339.147728 253.963676 
L 339.98193 248.464083 
L 338.195908 248.548756 
L 338.330646 247.660479 
L 340.107399 247.574401 
L 341.082186 247.722261 
L 340.113247 254.11013 
L 341.705966 254.35172 
L 341.581538 255.172024 
L 337.430582 254.542389 
L 337.555009 253.722085 
z
M 344.515817 254.77793 
L 347.919076 255.294151 
L 347.794648 256.114456 
L 343.218864 255.420381 
L 343.343291 254.600077 
Q 343.985055 254.109523 345.089537 253.287743 
Q 346.195799 252.464651 346.484074 252.22075 
Q 347.031828 251.766509 347.272509 251.430049 
Q 347.514734 251.093822 347.56816 250.741601 
Q 347.65533 250.166925 347.306962 249.744276 
Q 346.958828 249.320082 346.311544 249.221899 
Q 345.85273 249.152304 345.318801 249.234094 
Q 344.786416 249.316118 344.157897 249.552659 
L 344.307397 248.567058 
Q 344.931829 248.419978 345.461445 248.377043 
Q 345.992606 248.334343 346.417434 248.398783 
Q 347.537435 248.568669 348.118196 249.230437 
Q 348.699191 249.89066 348.557189 250.826826 
Q 348.489703 251.271737 348.262406 251.644996 
Q 348.036887 252.016944 347.514597 252.490851 
Q 347.372776 252.613153 346.624029 253.183882 
Q 345.876827 253.754844 344.515817 254.77793 
z
M 352.446141 253.317908 
Q 351.750968 253.212461 351.295929 253.524309 
Q 350.842435 253.836391 350.743784 254.486764 
Q 350.644898 255.138682 350.985447 255.571207 
Q 351.32754 256.003967 352.022713 256.109414 
Q 352.717886 256.214861 353.174704 255.901703 
Q 353.633301 255.587234 353.731484 254.939951 
Q 353.830135 254.289578 353.488042 253.856818 
Q 353.147493 253.424292 352.446141 253.317908 
z
M 351.534153 252.756034 
Q 350.930385 252.506414 350.644851 252.02376 
Q 350.361097 251.539794 350.454828 250.921863 
Q 350.585816 250.058303 351.276814 249.649496 
Q 351.969357 249.240922 353.039924 249.40331 
Q 354.11667 249.566636 354.653811 250.161733 
Q 355.190952 250.75683 355.059964 251.62039 
Q 354.966233 252.238321 354.55018 252.616137 
Q 354.135906 252.992641 353.489907 253.052691 
Q 354.16951 253.323295 354.489256 253.861711 
Q 354.81078 254.398817 354.706271 255.087811 
Q 354.547163 256.13675 353.822543 256.600512 
Q 353.098158 257.062729 351.90555 256.881829 
Q 350.714486 256.701163 350.158208 256.04469 
Q 349.60371 255.386905 349.762817 254.337966 
Q 349.867327 253.648973 350.33521 253.231608 
Q 350.804872 252.812933 351.534153 252.756034 
z
M 351.410921 251.161709 
Q 351.326095 251.720938 351.627658 252.087496 
Q 351.930766 252.454288 352.562601 252.550128 
Q 353.191346 252.645498 353.592681 252.385559 
Q 353.99556 252.125854 354.080386 251.566625 
Q 354.165446 251.005852 353.857704 250.638357 
Q 353.551506 250.271096 352.922761 250.175725 
Q 352.290925 250.079886 351.892681 250.340294 
Q 351.495981 250.600936 351.410921 251.161709 
z
" clip-path="url(#p9668e1a14e)" style="fill: #fdc527"/>
   </g>
   <g id="patch_3">
    <path d="M 46.965625 301.735725 
L 46.965625 35.623725 
" style="fill: none; stroke: #cccccc; stroke-width: 0.8; stroke-linejoin: miter; stroke-linecap: square"/>
   </g>
   <g id="patch_4">
    <path d="M 404.085625 301.735725 
L 404.085625 35.623725 
" style="fill: none; stroke: #cccccc; stroke-width: 0.8; stroke-linejoin: miter; stroke-linecap: square"/>
   </g>
   <g id="patch_5">
    <path d="M 46.965625 301.735725 
L 404.085625 301.735725 
" style="fill: none; stroke: #cccccc; stroke-width: 0.8; stroke-linejoin: miter; stroke-linecap: square"/>
   </g>
   <g id="patch_6">
    <path d="M 46.965625 35.623725 
L 404.085625 35.623725 
" style="fill: none; stroke: #cccccc; stroke-width: 0.8; stroke-linejoin: miter; stroke-linecap: square"/>
   </g>
   <g id="text_20">
    <!-- Block Size = 4M, Read-Write Type = Sequential Read-only -->
    <g style="fill: #262626; opacity: 0.75" transform="translate(81.031094 30.882918) scale(0.1 -0.1)">
     <defs>
      <path id="DejaVuSans-42" d="M 1259 2228 
L 1259 519 
L 2272 519 
Q 2781 519 3026 730 
Q 3272 941 3272 1375 
Q 3272 1813 3026 2020 
Q 2781 2228 2272 2228 
L 1259 2228 
z
M 1259 4147 
L 1259 2741 
L 2194 2741 
Q 2656 2741 2882 2914 
Q 3109 3088 3109 3444 
Q 3109 3797 2882 3972 
Q 2656 4147 2194 4147 
L 1259 4147 
z
M 628 4666 
L 2241 4666 
Q 2963 4666 3353 4366 
Q 3744 4066 3744 3513 
Q 3744 3084 3544 2831 
Q 3344 2578 2956 2516 
Q 3422 2416 3680 2098 
Q 3938 1781 3938 1306 
Q 3938 681 3513 340 
Q 3088 0 2303 0 
L 628 0 
L 628 4666 
z
" transform="scale(0.015625)"/>
      <path id="DejaVuSans-6c" d="M 603 4863 
L 1178 4863 
L 1178 0 
L 603 0 
L 603 4863 
z
" transform="scale(0.015625)"/>
      <path id="DejaVuSans-63" d="M 3122 3366 
L 3122 2828 
Q 2878 2963 2633 3030 
Q 2388 3097 2138 3097 
Q 1578 3097 1268 2742 
Q 959 2388 959 1747 
Q 959 1106 1268 751 
Q 1578 397 2138 397 
Q 2388 397 2633 464 
Q 2878 531 3122 666 
L 3122 134 
Q 2881 22 2623 -34 
Q 2366 -91 2075 -91 
Q 1284 -91 818 406 
Q 353 903 353 1747 
Q 353 2603 823 3093 
Q 1294 3584 2113 3584 
Q 2378 3584 2631 3529 
Q 2884 3475 3122 3366 
z
" transform="scale(0.015625)"/>
      <path id="DejaVuSans-6b" d="M 581 4863 
L 1159 4863 
L 1159 1991 
L 2875 3500 
L 3609 3500 
L 1753 1863 
L 3688 0 
L 2938 0 
L 1159 1709 
L 1159 0 
L 581 0 
L 581 4863 
z
" transform="scale(0.015625)"/>
      <path id="DejaVuSans-69" d="M 603 3500 
L 1178 3500 
L 1178 0 
L 603 0 
L 603 3500 
z
M 603 4863 
L 1178 4863 
L 1178 4134 
L 603 4134 
L 603 4863 
z
" transform="scale(0.015625)"/>
      <path id="DejaVuSans-7a" d="M 353 3500 
L 3084 3500 
L 3084 2975 
L 922 459 
L 3084 459 
L 3084 0 
L 275 0 
L 275 525 
L 2438 3041 
L 353 3041 
L 353 3500 
z
" transform="scale(0.015625)"/>
      <path id="DejaVuSans-3d" d="M 678 2906 
L 4684 2906 
L 4684 2381 
L 678 2381 
L 678 2906 
z
M 678 1631 
L 4684 1631 
L 4684 1100 
L 678 1100 
L 678 1631 
z
" transform="scale(0.015625)"/>
      <path id="DejaVuSans-4d" d="M 628 4666 
L 1569 4666 
L 2759 1491 
L 3956 4666 
L 4897 4666 
L 4897 0 
L 4281 0 
L 4281 4097 
L 3078 897 
L 2444 897 
L 1241 4097 
L 1241 0 
L 628 0 
L 628 4666 
z
" transform="scale(0.015625)"/>
      <path id="DejaVuSans-2c" d="M 750 794 
L 1409 794 
L 1409 256 
L 897 -744 
L 494 -744 
L 750 256 
L 750 794 
z
" transform="scale(0.015625)"/>
      <path id="DejaVuSans-52" d="M 2841 2188 
Q 3044 2119 3236 1894 
Q 3428 1669 3622 1275 
L 4263 0 
L 3584 0 
L 2988 1197 
Q 2756 1666 2539 1819 
Q 2322 1972 1947 1972 
L 1259 1972 
L 1259 0 
L 628 0 
L 628 4666 
L 2053 4666 
Q 2853 4666 3247 4331 
Q 3641 3997 3641 3322 
Q 3641 2881 3436 2590 
Q 3231 2300 2841 2188 
z
M 1259 4147 
L 1259 2491 
L 2053 2491 
Q 2509 2491 2742 2702 
Q 2975 2913 2975 3322 
Q 2975 3731 2742 3939 
Q 2509 4147 2053 4147 
L 1259 4147 
z
" transform="scale(0.015625)"/>
      <path id="DejaVuSans-61" d="M 2194 1759 
Q 1497 1759 1228 1600 
Q 959 1441 959 1056 
Q 959 750 1161 570 
Q 1363 391 1709 391 
Q 2188 391 2477 730 
Q 2766 1069 2766 1631 
L 2766 1759 
L 2194 1759 
z
M 3341 1997 
L 3341 0 
L 2766 0 
L 2766 531 
Q 2569 213 2275 61 
Q 1981 -91 1556 -91 
Q 1019 -91 701 211 
Q 384 513 384 1019 
Q 384 1609 779 1909 
Q 1175 2209 1959 2209 
L 2766 2209 
L 2766 2266 
Q 2766 2663 2505 2880 
Q 2244 3097 1772 3097 
Q 1472 3097 1187 3025 
Q 903 2953 641 2809 
L 641 3341 
Q 956 3463 1253 3523 
Q 1550 3584 1831 3584 
Q 2591 3584 2966 3190 
Q 3341 2797 3341 1997 
z
" transform="scale(0.015625)"/>
      <path id="DejaVuSans-64" d="M 2906 2969 
L 2906 4863 
L 3481 4863 
L 3481 0 
L 2906 0 
L 2906 525 
Q 2725 213 2448 61 
Q 2172 -91 1784 -91 
Q 1150 -91 751 415 
Q 353 922 353 1747 
Q 353 2572 751 3078 
Q 1150 3584 1784 3584 
Q 2172 3584 2448 3432 
Q 2725 3281 2906 2969 
z
M 947 1747 
Q 947 1113 1208 752 
Q 1469 391 1925 391 
Q 2381 391 2643 752 
Q 2906 1113 2906 1747 
Q 2906 2381 2643 2742 
Q 2381 3103 1925 3103 
Q 1469 3103 1208 2742 
Q 947 2381 947 1747 
z
" transform="scale(0.015625)"/>
      <path id="DejaVuSans-2d" d="M 313 2009 
L 1997 2009 
L 1997 1497 
L 313 1497 
L 313 2009 
z
" transform="scale(0.015625)"/>
      <path id="DejaVuSans-57" d="M 213 4666 
L 850 4666 
L 1831 722 
L 2809 4666 
L 3519 4666 
L 4500 722 
L 5478 4666 
L 6119 4666 
L 4947 0 
L 4153 0 
L 3169 4050 
L 2175 0 
L 1381 0 
L 213 4666 
z
" transform="scale(0.015625)"/>
      <path id="DejaVuSans-74" d="M 1172 4494 
L 1172 3500 
L 2356 3500 
L 2356 3053 
L 1172 3053 
L 1172 1153 
Q 1172 725 1289 603 
Q 1406 481 1766 481 
L 2356 481 
L 2356 0 
L 1766 0 
Q 1100 0 847 248 
Q 594 497 594 1153 
L 594 3053 
L 172 3053 
L 172 3500 
L 594 3500 
L 594 4494 
L 1172 4494 
z
" transform="scale(0.015625)"/>
      <path id="DejaVuSans-54" d="M -19 4666 
L 3928 4666 
L 3928 4134 
L 2272 4134 
L 2272 0 
L 1638 0 
L 1638 4134 
L -19 4134 
L -19 4666 
z
" transform="scale(0.015625)"/>
      <path id="DejaVuSans-79" d="M 2059 -325 
Q 1816 -950 1584 -1140 
Q 1353 -1331 966 -1331 
L 506 -1331 
L 506 -850 
L 844 -850 
Q 1081 -850 1212 -737 
Q 1344 -625 1503 -206 
L 1606 56 
L 191 3500 
L 800 3500 
L 1894 763 
L 2988 3500 
L 3597 3500 
L 2059 -325 
z
" transform="scale(0.015625)"/>
      <path id="DejaVuSans-70" d="M 1159 525 
L 1159 -1331 
L 581 -1331 
L 581 3500 
L 1159 3500 
L 1159 2969 
Q 1341 3281 1617 3432 
Q 1894 3584 2278 3584 
Q 2916 3584 3314 3078 
Q 3713 2572 3713 1747 
Q 3713 922 3314 415 
Q 2916 -91 2278 -91 
Q 1894 -91 1617 61 
Q 1341 213 1159 525 
z
M 3116 1747 
Q 3116 2381 2855 2742 
Q 2594 3103 2138 3103 
Q 1681 3103 1420 2742 
Q 1159 2381 1159 1747 
Q 1159 1113 1420 752 
Q 1681 391 2138 391 
Q 2594 391 2855 752 
Q 3116 1113 3116 1747 
z
" transform="scale(0.015625)"/>
      <path id="DejaVuSans-71" d="M 947 1747 
Q 947 1113 1208 752 
Q 1469 391 1925 391 
Q 2381 391 2643 752 
Q 2906 1113 2906 1747 
Q 2906 2381 2643 2742 
Q 2381 3103 1925 3103 
Q 1469 3103 1208 2742 
Q 947 2381 947 1747 
z
M 2906 525 
Q 2725 213 2448 61 
Q 2172 -91 1784 -91 
Q 1150 -91 751 415 
Q 353 922 353 1747 
Q 353 2572 751 3078 
Q 1150 3584 1784 3584 
Q 2172 3584 2448 3432 
Q 2725 3281 2906 2969 
L 2906 3500 
L 3481 3500 
L 3481 -1331 
L 2906 -1331 
L 2906 525 
z
" transform="scale(0.015625)"/>
      <path id="DejaVuSans-6e" d="M 3513 2113 
L 3513 0 
L 2938 0 
L 2938 2094 
Q 2938 2591 2744 2837 
Q 2550 3084 2163 3084 
Q 1697 3084 1428 2787 
Q 1159 2491 1159 1978 
L 1159 0 
L 581 0 
L 581 3500 
L 1159 3500 
L 1159 2956 
Q 1366 3272 1645 3428 
Q 1925 3584 2291 3584 
Q 2894 3584 3203 3211 
Q 3513 2838 3513 2113 
z
" transform="scale(0.015625)"/>
     </defs>
     <use xlink:href="#DejaVuSans-42"/>
     <use xlink:href="#DejaVuSans-6c" transform="translate(68.603516 0)"/>
     <use xlink:href="#DejaVuSans-6f" transform="translate(96.386719 0)"/>
     <use xlink:href="#DejaVuSans-63" transform="translate(157.568359 0)"/>
     <use xlink:href="#DejaVuSans-6b" transform="translate(212.548828 0)"/>
     <use xlink:href="#DejaVuSans-20" transform="translate(270.458984 0)"/>
     <use xlink:href="#DejaVuSans-53" transform="translate(302.246094 0)"/>
     <use xlink:href="#DejaVuSans-69" transform="translate(365.722656 0)"/>
     <use xlink:href="#DejaVuSans-7a" transform="translate(393.505859 0)"/>
     <use xlink:href="#DejaVuSans-65" transform="translate(445.996094 0)"/>
     <use xlink:href="#DejaVuSans-20" transform="translate(507.519531 0)"/>
     <use xlink:href="#DejaVuSans-3d" transform="translate(539.306641 0)"/>
     <use xlink:href="#DejaVuSans-20" transform="translate(623.095703 0)"/>
     <use xlink:href="#DejaVuSans-34" transform="translate(654.882812 0)"/>
     <use xlink:href="#DejaVuSans-4d" transform="translate(718.505859 0)"/>
     <use xlink:href="#DejaVuSans-2c" transform="translate(804.785156 0)"/>
     <use xlink:href="#DejaVuSans-20" transform="translate(836.572266 0)"/>
     <use xlink:href="#DejaVuSans-52" transform="translate(868.359375 0)"/>
     <use xlink:href="#DejaVuSans-65" transform="translate(933.341797 0)"/>
     <use xlink:href="#DejaVuSans-61" transform="translate(994.865234 0)"/>
     <use xlink:href="#DejaVuSans-64" transform="translate(1056.144531 0)"/>
     <use xlink:href="#DejaVuSans-2d" transform="translate(1119.621094 0)"/>
     <use xlink:href="#DejaVuSans-57" transform="translate(1151.705078 0)"/>
     <use xlink:href="#DejaVuSans-72" transform="translate(1246.082031 0)"/>
     <use xlink:href="#DejaVuSans-69" transform="translate(1287.195312 0)"/>
     <use xlink:href="#DejaVuSans-74" transform="translate(1314.978516 0)"/>
     <use xlink:href="#DejaVuSans-65" transform="translate(1354.1875 0)"/>
     <use xlink:href="#DejaVuSans-20" transform="translate(1415.710938 0)"/>
     <use xlink:href="#DejaVuSans-54" transform="translate(1447.498047 0)"/>
     <use xlink:href="#DejaVuSans-79" transform="translate(1492.957031 0)"/>
     <use xlink:href="#DejaVuSans-70" transform="translate(1552.136719 0)"/>
     <use xlink:href="#DejaVuSans-65" transform="translate(1615.613281 0)"/>
     <use xlink:href="#DejaVuSans-20" transform="translate(1677.136719 0)"/>
     <use xlink:href="#DejaVuSans-3d" transform="translate(1708.923828 0)"/>
     <use xlink:href="#DejaVuSans-20" transform="translate(1792.712891 0)"/>
     <use xlink:href="#DejaVuSans-53" transform="translate(1824.5 0)"/>
     <use xlink:href="#DejaVuSans-65" transform="translate(1887.976562 0)"/>
     <use xlink:href="#DejaVuSans-71" transform="translate(1949.5 0)"/>
     <use xlink:href="#DejaVuSans-75" transform="translate(2012.976562 0)"/>
     <use xlink:href="#DejaVuSans-65" transform="translate(2076.355469 0)"/>
     <use xlink:href="#DejaVuSans-6e" transform="translate(2137.878906 0)"/>
     <use xlink:href="#DejaVuSans-74" transform="translate(2201.257812 0)"/>
     <use xlink:href="#DejaVuSans-69" transform="translate(2240.466797 0)"/>
     <use xlink:href="#DejaVuSans-61" transform="translate(2268.25 0)"/>
     <use xlink:href="#DejaVuSans-6c" transform="translate(2329.529297 0)"/>
     <use xlink:href="#DejaVuSans-20" transform="translate(2357.3125 0)"/>
     <use xlink:href="#DejaVuSans-52" transform="translate(2389.099609 0)"/>
     <use xlink:href="#DejaVuSans-65" transform="translate(2454.082031 0)"/>
     <use xlink:href="#DejaVuSans-61" transform="translate(2515.605469 0)"/>
     <use xlink:href="#DejaVuSans-64" transform="translate(2576.884766 0)"/>
     <use xlink:href="#DejaVuSans-2d" transform="translate(2640.361328 0)"/>
     <use xlink:href="#DejaVuSans-6f" transform="translate(2678.320312 0)"/>
     <use xlink:href="#DejaVuSans-6e" transform="translate(2739.501953 0)"/>
     <use xlink:href="#DejaVuSans-6c" transform="translate(2802.880859 0)"/>
     <use xlink:href="#DejaVuSans-79" transform="translate(2830.664062 0)"/>
    </g>
   </g>
   <g id="text_21">
    <!-- IOPS vs Number of Jobs -->
    <g style="fill: #262626" transform="translate(145.816563 16.318125) scale(0.12 -0.12)">
     <defs>
      <path id="DejaVuSans-Bold-49" d="M 588 4666 
L 1791 4666 
L 1791 0 
L 588 0 
L 588 4666 
z
" transform="scale(0.015625)"/>
      <path id="DejaVuSans-Bold-4f" d="M 2719 3878 
Q 2169 3878 1866 3472 
Q 1563 3066 1563 2328 
Q 1563 1594 1866 1187 
Q 2169 781 2719 781 
Q 3272 781 3575 1187 
Q 3878 1594 3878 2328 
Q 3878 3066 3575 3472 
Q 3272 3878 2719 3878 
z
M 2719 4750 
Q 3844 4750 4481 4106 
Q 5119 3463 5119 2328 
Q 5119 1197 4481 553 
Q 3844 -91 2719 -91 
Q 1597 -91 958 553 
Q 319 1197 319 2328 
Q 319 3463 958 4106 
Q 1597 4750 2719 4750 
z
" transform="scale(0.015625)"/>
      <path id="DejaVuSans-Bold-50" d="M 588 4666 
L 2584 4666 
Q 3475 4666 3951 4270 
Q 4428 3875 4428 3144 
Q 4428 2409 3951 2014 
Q 3475 1619 2584 1619 
L 1791 1619 
L 1791 0 
L 588 0 
L 588 4666 
z
M 1791 3794 
L 1791 2491 
L 2456 2491 
Q 2806 2491 2997 2661 
Q 3188 2831 3188 3144 
Q 3188 3456 2997 3625 
Q 2806 3794 2456 3794 
L 1791 3794 
z
" transform="scale(0.015625)"/>
      <path id="DejaVuSans-Bold-53" d="M 3834 4519 
L 3834 3531 
Q 3450 3703 3084 3790 
Q 2719 3878 2394 3878 
Q 1963 3878 1756 3759 
Q 1550 3641 1550 3391 
Q 1550 3203 1689 3098 
Q 1828 2994 2194 2919 
L 2706 2816 
Q 3484 2659 3812 2340 
Q 4141 2022 4141 1434 
Q 4141 663 3683 286 
Q 3225 -91 2284 -91 
Q 1841 -91 1394 -6 
Q 947 78 500 244 
L 500 1259 
Q 947 1022 1364 901 
Q 1781 781 2169 781 
Q 2563 781 2772 912 
Q 2981 1044 2981 1288 
Q 2981 1506 2839 1625 
Q 2697 1744 2272 1838 
L 1806 1941 
Q 1106 2091 782 2419 
Q 459 2747 459 3303 
Q 459 4000 909 4375 
Q 1359 4750 2203 4750 
Q 2588 4750 2994 4692 
Q 3400 4634 3834 4519 
z
" transform="scale(0.015625)"/>
      <path id="DejaVuSans-Bold-20" transform="scale(0.015625)"/>
      <path id="DejaVuSans-Bold-76" d="M 97 3500 
L 1216 3500 
L 2088 1081 
L 2956 3500 
L 4078 3500 
L 2700 0 
L 1472 0 
L 97 3500 
z
" transform="scale(0.015625)"/>
      <path id="DejaVuSans-Bold-73" d="M 3272 3391 
L 3272 2541 
Q 2913 2691 2578 2766 
Q 2244 2841 1947 2841 
Q 1628 2841 1473 2761 
Q 1319 2681 1319 2516 
Q 1319 2381 1436 2309 
Q 1553 2238 1856 2203 
L 2053 2175 
Q 2913 2066 3209 1816 
Q 3506 1566 3506 1031 
Q 3506 472 3093 190 
Q 2681 -91 1863 -91 
Q 1516 -91 1145 -36 
Q 775 19 384 128 
L 384 978 
Q 719 816 1070 734 
Q 1422 653 1784 653 
Q 2113 653 2278 743 
Q 2444 834 2444 1013 
Q 2444 1163 2330 1236 
Q 2216 1309 1875 1350 
L 1678 1375 
Q 931 1469 631 1722 
Q 331 1975 331 2491 
Q 331 3047 712 3315 
Q 1094 3584 1881 3584 
Q 2191 3584 2531 3537 
Q 2872 3491 3272 3391 
z
" transform="scale(0.015625)"/>
      <path id="DejaVuSans-Bold-4e" d="M 588 4666 
L 1931 4666 
L 3628 1466 
L 3628 4666 
L 4769 4666 
L 4769 0 
L 3425 0 
L 1728 3200 
L 1728 0 
L 588 0 
L 588 4666 
z
" transform="scale(0.015625)"/>
      <path id="DejaVuSans-Bold-75" d="M 500 1363 
L 500 3500 
L 1625 3500 
L 1625 3150 
Q 1625 2866 1622 2436 
Q 1619 2006 1619 1863 
Q 1619 1441 1641 1255 
Q 1663 1069 1716 984 
Q 1784 875 1895 815 
Q 2006 756 2150 756 
Q 2500 756 2700 1025 
Q 2900 1294 2900 1772 
L 2900 3500 
L 4019 3500 
L 4019 0 
L 2900 0 
L 2900 506 
Q 2647 200 2364 54 
Q 2081 -91 1741 -91 
Q 1134 -91 817 281 
Q 500 653 500 1363 
z
" transform="scale(0.015625)"/>
      <path id="DejaVuSans-Bold-6d" d="M 3781 2919 
Q 3994 3244 4286 3414 
Q 4578 3584 4928 3584 
Q 5531 3584 5847 3212 
Q 6163 2841 6163 2131 
L 6163 0 
L 5038 0 
L 5038 1825 
Q 5041 1866 5042 1909 
Q 5044 1953 5044 2034 
Q 5044 2406 4934 2573 
Q 4825 2741 4581 2741 
Q 4263 2741 4089 2478 
Q 3916 2216 3909 1719 
L 3909 0 
L 2784 0 
L 2784 1825 
Q 2784 2406 2684 2573 
Q 2584 2741 2328 2741 
Q 2006 2741 1831 2477 
Q 1656 2213 1656 1722 
L 1656 0 
L 531 0 
L 531 3500 
L 1656 3500 
L 1656 2988 
Q 1863 3284 2130 3434 
Q 2397 3584 2719 3584 
Q 3081 3584 3359 3409 
Q 3638 3234 3781 2919 
z
" transform="scale(0.015625)"/>
      <path id="DejaVuSans-Bold-62" d="M 2400 722 
Q 2759 722 2948 984 
Q 3138 1247 3138 1747 
Q 3138 2247 2948 2509 
Q 2759 2772 2400 2772 
Q 2041 2772 1848 2508 
Q 1656 2244 1656 1747 
Q 1656 1250 1848 986 
Q 2041 722 2400 722 
z
M 1656 2988 
Q 1888 3294 2169 3439 
Q 2450 3584 2816 3584 
Q 3463 3584 3878 3070 
Q 4294 2556 4294 1747 
Q 4294 938 3878 423 
Q 3463 -91 2816 -91 
Q 2450 -91 2169 54 
Q 1888 200 1656 506 
L 1656 0 
L 538 0 
L 538 4863 
L 1656 4863 
L 1656 2988 
z
" transform="scale(0.015625)"/>
      <path id="DejaVuSans-Bold-65" d="M 4031 1759 
L 4031 1441 
L 1416 1441 
Q 1456 1047 1700 850 
Q 1944 653 2381 653 
Q 2734 653 3104 758 
Q 3475 863 3866 1075 
L 3866 213 
Q 3469 63 3072 -14 
Q 2675 -91 2278 -91 
Q 1328 -91 801 392 
Q 275 875 275 1747 
Q 275 2603 792 3093 
Q 1309 3584 2216 3584 
Q 3041 3584 3536 3087 
Q 4031 2591 4031 1759 
z
M 2881 2131 
Q 2881 2450 2695 2645 
Q 2509 2841 2209 2841 
Q 1884 2841 1681 2658 
Q 1478 2475 1428 2131 
L 2881 2131 
z
" transform="scale(0.015625)"/>
      <path id="DejaVuSans-Bold-72" d="M 3138 2547 
Q 2991 2616 2845 2648 
Q 2700 2681 2553 2681 
Q 2122 2681 1889 2404 
Q 1656 2128 1656 1613 
L 1656 0 
L 538 0 
L 538 3500 
L 1656 3500 
L 1656 2925 
Q 1872 3269 2151 3426 
Q 2431 3584 2822 3584 
Q 2878 3584 2943 3579 
Q 3009 3575 3134 3559 
L 3138 2547 
z
" transform="scale(0.015625)"/>
      <path id="DejaVuSans-Bold-6f" d="M 2203 2784 
Q 1831 2784 1636 2517 
Q 1441 2250 1441 1747 
Q 1441 1244 1636 976 
Q 1831 709 2203 709 
Q 2569 709 2762 976 
Q 2956 1244 2956 1747 
Q 2956 2250 2762 2517 
Q 2569 2784 2203 2784 
z
M 2203 3584 
Q 3106 3584 3614 3096 
Q 4122 2609 4122 1747 
Q 4122 884 3614 396 
Q 3106 -91 2203 -91 
Q 1297 -91 786 396 
Q 275 884 275 1747 
Q 275 2609 786 3096 
Q 1297 3584 2203 3584 
z
" transform="scale(0.015625)"/>
      <path id="DejaVuSans-Bold-66" d="M 2841 4863 
L 2841 4128 
L 2222 4128 
Q 1984 4128 1890 4042 
Q 1797 3956 1797 3744 
L 1797 3500 
L 2753 3500 
L 2753 2700 
L 1797 2700 
L 1797 0 
L 678 0 
L 678 2700 
L 122 2700 
L 122 3500 
L 678 3500 
L 678 3744 
Q 678 4316 997 4589 
Q 1316 4863 1984 4863 
L 2841 4863 
z
" transform="scale(0.015625)"/>
      <path id="DejaVuSans-Bold-4a" d="M 588 4666 
L 1791 4666 
L 1791 453 
Q 1791 -419 1317 -850 
Q 844 -1281 -116 -1281 
L -359 -1281 
L -359 -372 
L -172 -372 
Q 203 -372 395 -162 
Q 588 47 588 453 
L 588 4666 
z
" transform="scale(0.015625)"/>
     </defs>
     <use xlink:href="#DejaVuSans-Bold-49"/>
     <use xlink:href="#DejaVuSans-Bold-4f" transform="translate(37.207031 0)"/>
     <use xlink:href="#DejaVuSans-Bold-50" transform="translate(122.216797 0)"/>
     <use xlink:href="#DejaVuSans-Bold-53" transform="translate(195.507812 0)"/>
     <use xlink:href="#DejaVuSans-Bold-20" transform="translate(267.529297 0)"/>
     <use xlink:href="#DejaVuSans-Bold-76" transform="translate(302.34375 0)"/>
     <use xlink:href="#DejaVuSans-Bold-73" transform="translate(367.529297 0)"/>
     <use xlink:href="#DejaVuSans-Bold-20" transform="translate(427.050781 0)"/>
     <use xlink:href="#DejaVuSans-Bold-4e" transform="translate(461.865234 0)"/>
     <use xlink:href="#DejaVuSans-Bold-75" transform="translate(545.556641 0)"/>
     <use xlink:href="#DejaVuSans-Bold-6d" transform="translate(616.748047 0)"/>
     <use xlink:href="#DejaVuSans-Bold-62" transform="translate(720.947266 0)"/>
     <use xlink:href="#DejaVuSans-Bold-65" transform="translate(792.529297 0)"/>
     <use xlink:href="#DejaVuSans-Bold-72" transform="translate(860.351562 0)"/>
     <use xlink:href="#DejaVuSans-Bold-20" transform="translate(909.667969 0)"/>
     <use xlink:href="#DejaVuSans-Bold-6f" transform="translate(944.482422 0)"/>
     <use xlink:href="#DejaVuSans-Bold-66" transform="translate(1013.183594 0)"/>
     <use xlink:href="#DejaVuSans-Bold-20" transform="translate(1056.689453 0)"/>
     <use xlink:href="#DejaVuSans-Bold-4a" transform="translate(1091.503906 0)"/>
     <use xlink:href="#DejaVuSans-Bold-6f" transform="translate(1128.710938 0)"/>
     <use xlink:href="#DejaVuSans-Bold-62" transform="translate(1197.412109 0)"/>
     <use xlink:href="#DejaVuSans-Bold-73" transform="translate(1268.994141 0)"/>
    </g>
   </g>
   <g id="legend_1">
    <g id="text_22">
     <!-- IO Depth -->
     <g style="fill: #262626" transform="translate(438.592188 120.065663) scale(0.1 -0.1)">
      <defs>
       <path id="DejaVuSans-44" d="M 1259 4147 
L 1259 519 
L 2022 519 
Q 2988 519 3436 956 
Q 3884 1394 3884 2338 
Q 3884 3275 3436 3711 
Q 2988 4147 2022 4147 
L 1259 4147 
z
M 628 4666 
L 1925 4666 
Q 3281 4666 3915 4102 
Q 4550 3538 4550 2338 
Q 4550 1131 3912 565 
Q 3275 0 1925 0 
L 628 0 
L 628 4666 
z
" transform="scale(0.015625)"/>
       <path id="DejaVuSans-68" d="M 3513 2113 
L 3513 0 
L 2938 0 
L 2938 2094 
Q 2938 2591 2744 2837 
Q 2550 3084 2163 3084 
Q 1697 3084 1428 2787 
Q 1159 2491 1159 1978 
L 1159 0 
L 581 0 
L 581 4863 
L 1159 4863 
L 1159 2956 
Q 1366 3272 1645 3428 
Q 1925 3584 2291 3584 
Q 2894 3584 3203 3211 
Q 3513 2838 3513 2113 
z
" transform="scale(0.015625)"/>
      </defs>
      <use xlink:href="#DejaVuSans-49"/>
      <use xlink:href="#DejaVuSans-4f" transform="translate(29.492188 0)"/>
      <use xlink:href="#DejaVuSans-20" transform="translate(108.203125 0)"/>
      <use xlink:href="#DejaVuSans-44" transform="translate(139.990234 0)"/>
      <use xlink:href="#DejaVuSans-65" transform="translate(216.992188 0)"/>
      <use xlink:href="#DejaVuSans-70" transform="translate(278.515625 0)"/>
      <use xlink:href="#DejaVuSans-74" transform="translate(341.992188 0)"/>
      <use xlink:href="#DejaVuSans-68" transform="translate(381.201172 0)"/>
     </g>
    </g>
    <g id="line2d_25">
     <path d="M 437.278125 131.243787 
L 447.278125 131.243787 
L 457.278125 131.243787 
" style="fill: none; stroke: #4c02a1; stroke-width: 1.5; stroke-linecap: round"/>
    </g>
    <g id="text_23">
     <!-- 1 -->
     <g style="fill: #262626" transform="translate(465.278125 134.743787) scale(0.1 -0.1)">
      <use xlink:href="#DejaVuSans-31"/>
     </g>
    </g>
    <g id="line2d_26">
     <path d="M 437.278125 145.921913 
L 447.278125 145.921913 
L 457.278125 145.921913 
" style="fill: none; stroke: #7e03a8; stroke-width: 1.5; stroke-linecap: round"/>
    </g>
    <g id="text_24">
     <!-- 4 -->
     <g style="fill: #262626" transform="translate(465.278125 149.421913) scale(0.1 -0.1)">
      <use xlink:href="#DejaVuSans-34"/>
     </g>
    </g>
    <g id="line2d_27">
     <path d="M 437.278125 160.600037 
L 447.278125 160.600037 
L 457.278125 160.600037 
" style="fill: none; stroke: #aa2395; stroke-width: 1.5; stroke-linecap: round"/>
    </g>
    <g id="text_25">
     <!-- 8 -->
     <g style="fill: #262626" transform="translate(465.278125 164.100037) scale(0.1 -0.1)">
      <use xlink:href="#DejaVuSans-38"/>
     </g>
    </g>
    <g id="line2d_28">
     <path d="M 437.278125 175.278163 
L 447.278125 175.278163 
L 457.278125 175.278163 
" style="fill: none; stroke: #cc4778; stroke-width: 1.5; stroke-linecap: round"/>
    </g>
    <g id="text_26">
     <!-- 16 -->
     <g style="fill: #262626" transform="translate(465.278125 178.778163) scale(0.1 -0.1)">
      <use xlink:href="#DejaVuSans-31"/>
      <use xlink:href="#DejaVuSans-36" transform="translate(63.623047 0)"/>
     </g>
    </g>
    <g id="line2d_29">
     <path d="M 437.278125 189.956288 
L 447.278125 189.956288 
L 457.278125 189.956288 
" style="fill: none; stroke: #e66c5c; stroke-width: 1.5; stroke-linecap: round"/>
    </g>
    <g id="text_27">
     <!-- 32 -->
     <g style="fill: #262626" transform="translate(465.278125 193.456288) scale(0.1 -0.1)">
      <use xlink:href="#DejaVuSans-33"/>
      <use xlink:href="#DejaVuSans-32" transform="translate(63.623047 0)"/>
     </g>
    </g>
    <g id="line2d_30">
     <path d="M 437.278125 204.634412 
L 447.278125 204.634412 
L 457.278125 204.634412 
" style="fill: none; stroke: #f89540; stroke-width: 1.5; stroke-linecap: round"/>
    </g>
    <g id="text_28">
     <!-- 64 -->
     <g style="fill: #262626" transform="translate(465.278125 208.134412) scale(0.1 -0.1)">
      <use xlink:href="#DejaVuSans-36"/>
      <use xlink:href="#DejaVuSans-34" transform="translate(63.623047 0)"/>
     </g>
    </g>
    <g id="line2d_31">
     <path d="M 437.278125 219.312537 
L 447.278125 219.312537 
L 457.278125 219.312537 
" style="fill: none; stroke: #fdc527; stroke-width: 1.5; stroke-linecap: round"/>
    </g>
    <g id="text_29">
     <!-- 128 -->
     <g style="fill: #262626" transform="translate(465.278125 222.812537) scale(0.1 -0.1)">
      <use xlink:href="#DejaVuSans-31"/>
      <use xlink:href="#DejaVuSans-32" transform="translate(63.623047 0)"/>
      <use xlink:href="#DejaVuSans-38" transform="translate(127.246094 0)"/>
     </g>
    </g>
   </g>
  </g>
 </g>
 <defs>
  <clipPath id="p9668e1a14e">
   <rect x="46.965625" y="35.623725" width="357.12" height="266.112"/>
  </clipPath>
 </defs>
</svg>
