<?xml version="1.0" encoding="utf-8" standalone="no"?>
<!DOCTYPE svg PUBLIC "-//W3C//DTD SVG 1.1//EN"
  "http://www.w3.org/Graphics/SVG/1.1/DTD/svg11.dtd">
<svg xmlns:xlink="http://www.w3.org/1999/xlink" width="501.928125pt" height="339.291975pt" viewBox="0 0 501.928125 339.291975" xmlns="http://www.w3.org/2000/svg" version="1.1">
 <metadata>
  <rdf:RDF xmlns:dc="http://purl.org/dc/elements/1.1/" xmlns:cc="http://creativecommons.org/ns#" xmlns:rdf="http://www.w3.org/1999/02/22-rdf-syntax-ns#">
   <cc:Work>
    <dc:type rdf:resource="http://purl.org/dc/dcmitype/StillImage"/>
    <dc:date>2025-09-11T11:34:19.622280</dc:date>
    <dc:format>image/svg+xml</dc:format>
    <dc:creator>
     <cc:Agent>
      <dc:title>Matplotlib v3.10.6, https://matplotlib.org/</dc:title>
     </cc:Agent>
    </dc:creator>
   </cc:Work>
  </rdf:RDF>
 </metadata>
 <defs>
  <style type="text/css">*{stroke-linejoin: round; stroke-linecap: butt}</style>
 </defs>
 <g id="figure_1">
  <g id="patch_1">
   <path d="M 0 339.291975 
L 501.928125 339.291975 
L 501.928125 0 
L 0 0 
z
" style="fill: #ffffff"/>
  </g>
  <g id="axes_1">
   <g id="patch_2">
    <path d="M 53.328125 301.735725 
L 410.448125 301.735725 
L 410.448125 35.623725 
L 53.328125 35.623725 
z
" style="fill: #ffffff"/>
   </g>
   <g id="matplotlib.axis_1">
    <g id="xtick_1">
     <g id="line2d_1">
      <path d="M 208.698515 301.735725 
L 208.698515 35.623725 
" clip-path="url(#pef19c7a5a8)" style="fill: none; stroke: #cccccc; stroke-width: 0.8; stroke-linecap: round"/>
     </g>
     <g id="text_1">
      <!-- 64 -->
      <g style="fill: #262626" transform="translate(202.336015 316.334162) scale(0.1 -0.1)">
       <defs>
        <path id="DejaVuSans-36" d="M 2113 2584 
Q 1688 2584 1439 2293 
Q 1191 2003 1191 1497 
Q 1191 994 1439 701 
Q 1688 409 2113 409 
Q 2538 409 2786 701 
Q 3034 994 3034 1497 
Q 3034 2003 2786 2293 
Q 2538 2584 2113 2584 
z
M 3366 4563 
L 3366 3988 
Q 3128 4100 2886 4159 
Q 2644 4219 2406 4219 
Q 1781 4219 1451 3797 
Q 1122 3375 1075 2522 
Q 1259 2794 1537 2939 
Q 1816 3084 2150 3084 
Q 2853 3084 3261 2657 
Q 3669 2231 3669 1497 
Q 3669 778 3244 343 
Q 2819 -91 2113 -91 
Q 1303 -91 875 529 
Q 447 1150 447 2328 
Q 447 3434 972 4092 
Q 1497 4750 2381 4750 
Q 2619 4750 2861 4703 
Q 3103 4656 3366 4563 
z
" transform="scale(0.015625)"/>
        <path id="DejaVuSans-34" d="M 2419 4116 
L 825 1625 
L 2419 1625 
L 2419 4116 
z
M 2253 4666 
L 3047 4666 
L 3047 1625 
L 3713 1625 
L 3713 1100 
L 3047 1100 
L 3047 0 
L 2419 0 
L 2419 1100 
L 313 1100 
L 313 1709 
L 2253 4666 
z
" transform="scale(0.015625)"/>
       </defs>
       <use xlink:href="#DejaVuSans-36"/>
       <use xlink:href="#DejaVuSans-34" transform="translate(63.623047 0)"/>
      </g>
     </g>
    </g>
    <g id="xtick_2">
     <g id="line2d_2">
      <path d="M 394.215398 301.735725 
L 394.215398 35.623725 
" clip-path="url(#pef19c7a5a8)" style="fill: none; stroke: #cccccc; stroke-width: 0.8; stroke-linecap: round"/>
     </g>
     <g id="text_2">
      <!-- 128 -->
      <g style="fill: #262626" transform="translate(384.671648 316.334162) scale(0.1 -0.1)">
       <defs>
        <path id="DejaVuSans-31" d="M 794 531 
L 1825 531 
L 1825 4091 
L 703 3866 
L 703 4441 
L 1819 4666 
L 2450 4666 
L 2450 531 
L 3481 531 
L 3481 0 
L 794 0 
L 794 531 
z
" transform="scale(0.015625)"/>
        <path id="DejaVuSans-32" d="M 1228 531 
L 3431 531 
L 3431 0 
L 469 0 
L 469 531 
Q 828 903 1448 1529 
Q 2069 2156 2228 2338 
Q 2531 2678 2651 2914 
Q 2772 3150 2772 3378 
Q 2772 3750 2511 3984 
Q 2250 4219 1831 4219 
Q 1534 4219 1204 4116 
Q 875 4013 500 3803 
L 500 4441 
Q 881 4594 1212 4672 
Q 1544 4750 1819 4750 
Q 2544 4750 2975 4387 
Q 3406 4025 3406 3419 
Q 3406 3131 3298 2873 
Q 3191 2616 2906 2266 
Q 2828 2175 2409 1742 
Q 1991 1309 1228 531 
z
" transform="scale(0.015625)"/>
        <path id="DejaVuSans-38" d="M 2034 2216 
Q 1584 2216 1326 1975 
Q 1069 1734 1069 1313 
Q 1069 891 1326 650 
Q 1584 409 2034 409 
Q 2484 409 2743 651 
Q 3003 894 3003 1313 
Q 3003 1734 2745 1975 
Q 2488 2216 2034 2216 
z
M 1403 2484 
Q 997 2584 770 2862 
Q 544 3141 544 3541 
Q 544 4100 942 4425 
Q 1341 4750 2034 4750 
Q 2731 4750 3128 4425 
Q 3525 4100 3525 3541 
Q 3525 3141 3298 2862 
Q 3072 2584 2669 2484 
Q 3125 2378 3379 2068 
Q 3634 1759 3634 1313 
Q 3634 634 3220 271 
Q 2806 -91 2034 -91 
Q 1263 -91 848 271 
Q 434 634 434 1313 
Q 434 1759 690 2068 
Q 947 2378 1403 2484 
z
M 1172 3481 
Q 1172 3119 1398 2916 
Q 1625 2713 2034 2713 
Q 2441 2713 2670 2916 
Q 2900 3119 2900 3481 
Q 2900 3844 2670 4047 
Q 2441 4250 2034 4250 
Q 1625 4250 1398 4047 
Q 1172 3844 1172 3481 
z
" transform="scale(0.015625)"/>
       </defs>
       <use xlink:href="#DejaVuSans-31"/>
       <use xlink:href="#DejaVuSans-32" transform="translate(63.623047 0)"/>
       <use xlink:href="#DejaVuSans-38" transform="translate(127.246094 0)"/>
      </g>
     </g>
    </g>
    <g id="xtick_3">
     <g id="line2d_3">
      <path d="M 115.940073 301.735725 
L 115.940073 35.623725 
" clip-path="url(#pef19c7a5a8)" style="fill: none; stroke: #cccccc; stroke-width: 0.8; stroke-linecap: round"/>
     </g>
     <g id="text_3">
      <!-- 32 -->
      <g style="fill: #262626" transform="translate(109.577573 316.334162) scale(0.1 -0.1)">
       <defs>
        <path id="DejaVuSans-33" d="M 2597 2516 
Q 3050 2419 3304 2112 
Q 3559 1806 3559 1356 
Q 3559 666 3084 287 
Q 2609 -91 1734 -91 
Q 1441 -91 1130 -33 
Q 819 25 488 141 
L 488 750 
Q 750 597 1062 519 
Q 1375 441 1716 441 
Q 2309 441 2620 675 
Q 2931 909 2931 1356 
Q 2931 1769 2642 2001 
Q 2353 2234 1838 2234 
L 1294 2234 
L 1294 2753 
L 1863 2753 
Q 2328 2753 2575 2939 
Q 2822 3125 2822 3475 
Q 2822 3834 2567 4026 
Q 2313 4219 1838 4219 
Q 1578 4219 1281 4162 
Q 984 4106 628 3988 
L 628 4550 
Q 988 4650 1302 4700 
Q 1616 4750 1894 4750 
Q 2613 4750 3031 4423 
Q 3450 4097 3450 3541 
Q 3450 3153 3228 2886 
Q 3006 2619 2597 2516 
z
" transform="scale(0.015625)"/>
       </defs>
       <use xlink:href="#DejaVuSans-33"/>
       <use xlink:href="#DejaVuSans-32" transform="translate(63.623047 0)"/>
      </g>
     </g>
    </g>
    <g id="xtick_4">
     <g id="line2d_4">
      <path d="M 69.560852 301.735725 
L 69.560852 35.623725 
" clip-path="url(#pef19c7a5a8)" style="fill: none; stroke: #cccccc; stroke-width: 0.8; stroke-linecap: round"/>
     </g>
     <g id="text_4">
      <!-- 16 -->
      <g style="fill: #262626" transform="translate(63.198352 316.334162) scale(0.1 -0.1)">
       <use xlink:href="#DejaVuSans-31"/>
       <use xlink:href="#DejaVuSans-36" transform="translate(63.623047 0)"/>
      </g>
     </g>
    </g>
    <g id="text_5">
     <!-- Number of Jobs -->
     <g style="fill: #262626" transform="translate(193.49125 330.012287) scale(0.1 -0.1)">
      <defs>
       <path id="DejaVuSans-4e" d="M 628 4666 
L 1478 4666 
L 3547 763 
L 3547 4666 
L 4159 4666 
L 4159 0 
L 3309 0 
L 1241 3903 
L 1241 0 
L 628 0 
L 628 4666 
z
" transform="scale(0.015625)"/>
       <path id="DejaVuSans-75" d="M 544 1381 
L 544 3500 
L 1119 3500 
L 1119 1403 
Q 1119 906 1312 657 
Q 1506 409 1894 409 
Q 2359 409 2629 706 
Q 2900 1003 2900 1516 
L 2900 3500 
L 3475 3500 
L 3475 0 
L 2900 0 
L 2900 538 
Q 2691 219 2414 64 
Q 2138 -91 1772 -91 
Q 1169 -91 856 284 
Q 544 659 544 1381 
z
M 1991 3584 
L 1991 3584 
z
" transform="scale(0.015625)"/>
       <path id="DejaVuSans-6d" d="M 3328 2828 
Q 3544 3216 3844 3400 
Q 4144 3584 4550 3584 
Q 5097 3584 5394 3201 
Q 5691 2819 5691 2113 
L 5691 0 
L 5113 0 
L 5113 2094 
Q 5113 2597 4934 2840 
Q 4756 3084 4391 3084 
Q 3944 3084 3684 2787 
Q 3425 2491 3425 1978 
L 3425 0 
L 2847 0 
L 2847 2094 
Q 2847 2600 2669 2842 
Q 2491 3084 2119 3084 
Q 1678 3084 1418 2786 
Q 1159 2488 1159 1978 
L 1159 0 
L 581 0 
L 581 3500 
L 1159 3500 
L 1159 2956 
Q 1356 3278 1631 3431 
Q 1906 3584 2284 3584 
Q 2666 3584 2933 3390 
Q 3200 3197 3328 2828 
z
" transform="scale(0.015625)"/>
       <path id="DejaVuSans-62" d="M 3116 1747 
Q 3116 2381 2855 2742 
Q 2594 3103 2138 3103 
Q 1681 3103 1420 2742 
Q 1159 2381 1159 1747 
Q 1159 1113 1420 752 
Q 1681 391 2138 391 
Q 2594 391 2855 752 
Q 3116 1113 3116 1747 
z
M 1159 2969 
Q 1341 3281 1617 3432 
Q 1894 3584 2278 3584 
Q 2916 3584 3314 3078 
Q 3713 2572 3713 1747 
Q 3713 922 3314 415 
Q 2916 -91 2278 -91 
Q 1894 -91 1617 61 
Q 1341 213 1159 525 
L 1159 0 
L 581 0 
L 581 4863 
L 1159 4863 
L 1159 2969 
z
" transform="scale(0.015625)"/>
       <path id="DejaVuSans-65" d="M 3597 1894 
L 3597 1613 
L 953 1613 
Q 991 1019 1311 708 
Q 1631 397 2203 397 
Q 2534 397 2845 478 
Q 3156 559 3463 722 
L 3463 178 
Q 3153 47 2828 -22 
Q 2503 -91 2169 -91 
Q 1331 -91 842 396 
Q 353 884 353 1716 
Q 353 2575 817 3079 
Q 1281 3584 2069 3584 
Q 2775 3584 3186 3129 
Q 3597 2675 3597 1894 
z
M 3022 2063 
Q 3016 2534 2758 2815 
Q 2500 3097 2075 3097 
Q 1594 3097 1305 2825 
Q 1016 2553 972 2059 
L 3022 2063 
z
" transform="scale(0.015625)"/>
       <path id="DejaVuSans-72" d="M 2631 2963 
Q 2534 3019 2420 3045 
Q 2306 3072 2169 3072 
Q 1681 3072 1420 2755 
Q 1159 2438 1159 1844 
L 1159 0 
L 581 0 
L 581 3500 
L 1159 3500 
L 1159 2956 
Q 1341 3275 1631 3429 
Q 1922 3584 2338 3584 
Q 2397 3584 2469 3576 
Q 2541 3569 2628 3553 
L 2631 2963 
z
" transform="scale(0.015625)"/>
       <path id="DejaVuSans-20" transform="scale(0.015625)"/>
       <path id="DejaVuSans-6f" d="M 1959 3097 
Q 1497 3097 1228 2736 
Q 959 2375 959 1747 
Q 959 1119 1226 758 
Q 1494 397 1959 397 
Q 2419 397 2687 759 
Q 2956 1122 2956 1747 
Q 2956 2369 2687 2733 
Q 2419 3097 1959 3097 
z
M 1959 3584 
Q 2709 3584 3137 3096 
Q 3566 2609 3566 1747 
Q 3566 888 3137 398 
Q 2709 -91 1959 -91 
Q 1206 -91 779 398 
Q 353 888 353 1747 
Q 353 2609 779 3096 
Q 1206 3584 1959 3584 
z
" transform="scale(0.015625)"/>
       <path id="DejaVuSans-66" d="M 2375 4863 
L 2375 4384 
L 1825 4384 
Q 1516 4384 1395 4259 
Q 1275 4134 1275 3809 
L 1275 3500 
L 2222 3500 
L 2222 3053 
L 1275 3053 
L 1275 0 
L 697 0 
L 697 3053 
L 147 3053 
L 147 3500 
L 697 3500 
L 697 3744 
Q 697 4328 969 4595 
Q 1241 4863 1831 4863 
L 2375 4863 
z
" transform="scale(0.015625)"/>
       <path id="DejaVuSans-4a" d="M 628 4666 
L 1259 4666 
L 1259 325 
Q 1259 -519 939 -900 
Q 619 -1281 -91 -1281 
L -331 -1281 
L -331 -750 
L -134 -750 
Q 284 -750 456 -515 
Q 628 -281 628 325 
L 628 4666 
z
" transform="scale(0.015625)"/>
       <path id="DejaVuSans-73" d="M 2834 3397 
L 2834 2853 
Q 2591 2978 2328 3040 
Q 2066 3103 1784 3103 
Q 1356 3103 1142 2972 
Q 928 2841 928 2578 
Q 928 2378 1081 2264 
Q 1234 2150 1697 2047 
L 1894 2003 
Q 2506 1872 2764 1633 
Q 3022 1394 3022 966 
Q 3022 478 2636 193 
Q 2250 -91 1575 -91 
Q 1294 -91 989 -36 
Q 684 19 347 128 
L 347 722 
Q 666 556 975 473 
Q 1284 391 1588 391 
Q 1994 391 2212 530 
Q 2431 669 2431 922 
Q 2431 1156 2273 1281 
Q 2116 1406 1581 1522 
L 1381 1569 
Q 847 1681 609 1914 
Q 372 2147 372 2553 
Q 372 3047 722 3315 
Q 1072 3584 1716 3584 
Q 2034 3584 2315 3537 
Q 2597 3491 2834 3397 
z
" transform="scale(0.015625)"/>
      </defs>
      <use xlink:href="#DejaVuSans-4e"/>
      <use xlink:href="#DejaVuSans-75" transform="translate(74.804688 0)"/>
      <use xlink:href="#DejaVuSans-6d" transform="translate(138.183594 0)"/>
      <use xlink:href="#DejaVuSans-62" transform="translate(235.595703 0)"/>
      <use xlink:href="#DejaVuSans-65" transform="translate(299.072266 0)"/>
      <use xlink:href="#DejaVuSans-72" transform="translate(360.595703 0)"/>
      <use xlink:href="#DejaVuSans-20" transform="translate(401.708984 0)"/>
      <use xlink:href="#DejaVuSans-6f" transform="translate(433.496094 0)"/>
      <use xlink:href="#DejaVuSans-66" transform="translate(494.677734 0)"/>
      <use xlink:href="#DejaVuSans-20" transform="translate(529.882812 0)"/>
      <use xlink:href="#DejaVuSans-4a" transform="translate(561.669922 0)"/>
      <use xlink:href="#DejaVuSans-6f" transform="translate(591.162109 0)"/>
      <use xlink:href="#DejaVuSans-62" transform="translate(652.34375 0)"/>
      <use xlink:href="#DejaVuSans-73" transform="translate(715.820312 0)"/>
     </g>
    </g>
   </g>
   <g id="matplotlib.axis_2">
    <g id="ytick_1">
     <g id="line2d_5">
      <path d="M 53.328125 259.827922 
L 410.448125 259.827922 
" clip-path="url(#pef19c7a5a8)" style="fill: none; stroke: #cccccc; stroke-width: 0.8; stroke-linecap: round"/>
     </g>
     <g id="text_6">
      <!-- 3000 -->
      <g style="fill: #262626" transform="translate(20.878125 263.627141) scale(0.1 -0.1)">
       <defs>
        <path id="DejaVuSans-30" d="M 2034 4250 
Q 1547 4250 1301 3770 
Q 1056 3291 1056 2328 
Q 1056 1369 1301 889 
Q 1547 409 2034 409 
Q 2525 409 2770 889 
Q 3016 1369 3016 2328 
Q 3016 3291 2770 3770 
Q 2525 4250 2034 4250 
z
M 2034 4750 
Q 2819 4750 3233 4129 
Q 3647 3509 3647 2328 
Q 3647 1150 3233 529 
Q 2819 -91 2034 -91 
Q 1250 -91 836 529 
Q 422 1150 422 2328 
Q 422 3509 836 4129 
Q 1250 4750 2034 4750 
z
" transform="scale(0.015625)"/>
       </defs>
       <use xlink:href="#DejaVuSans-33"/>
       <use xlink:href="#DejaVuSans-30" transform="translate(63.623047 0)"/>
       <use xlink:href="#DejaVuSans-30" transform="translate(127.246094 0)"/>
       <use xlink:href="#DejaVuSans-30" transform="translate(190.869141 0)"/>
      </g>
     </g>
    </g>
    <g id="ytick_2">
     <g id="line2d_6">
      <path d="M 53.328125 213.536304 
L 410.448125 213.536304 
" clip-path="url(#pef19c7a5a8)" style="fill: none; stroke: #cccccc; stroke-width: 0.8; stroke-linecap: round"/>
     </g>
     <g id="text_7">
      <!-- 3500 -->
      <g style="fill: #262626" transform="translate(20.878125 217.335522) scale(0.1 -0.1)">
       <defs>
        <path id="DejaVuSans-35" d="M 691 4666 
L 3169 4666 
L 3169 4134 
L 1269 4134 
L 1269 2991 
Q 1406 3038 1543 3061 
Q 1681 3084 1819 3084 
Q 2600 3084 3056 2656 
Q 3513 2228 3513 1497 
Q 3513 744 3044 326 
Q 2575 -91 1722 -91 
Q 1428 -91 1123 -41 
Q 819 9 494 109 
L 494 744 
Q 775 591 1075 516 
Q 1375 441 1709 441 
Q 2250 441 2565 725 
Q 2881 1009 2881 1497 
Q 2881 1984 2565 2268 
Q 2250 2553 1709 2553 
Q 1456 2553 1204 2497 
Q 953 2441 691 2322 
L 691 4666 
z
" transform="scale(0.015625)"/>
       </defs>
       <use xlink:href="#DejaVuSans-33"/>
       <use xlink:href="#DejaVuSans-35" transform="translate(63.623047 0)"/>
       <use xlink:href="#DejaVuSans-30" transform="translate(127.246094 0)"/>
       <use xlink:href="#DejaVuSans-30" transform="translate(190.869141 0)"/>
      </g>
     </g>
    </g>
    <g id="ytick_3">
     <g id="line2d_7">
      <path d="M 53.328125 167.244685 
L 410.448125 167.244685 
" clip-path="url(#pef19c7a5a8)" style="fill: none; stroke: #cccccc; stroke-width: 0.8; stroke-linecap: round"/>
     </g>
     <g id="text_8">
      <!-- 4000 -->
      <g style="fill: #262626" transform="translate(20.878125 171.043904) scale(0.1 -0.1)">
       <use xlink:href="#DejaVuSans-34"/>
       <use xlink:href="#DejaVuSans-30" transform="translate(63.623047 0)"/>
       <use xlink:href="#DejaVuSans-30" transform="translate(127.246094 0)"/>
       <use xlink:href="#DejaVuSans-30" transform="translate(190.869141 0)"/>
      </g>
     </g>
    </g>
    <g id="ytick_4">
     <g id="line2d_8">
      <path d="M 53.328125 120.953066 
L 410.448125 120.953066 
" clip-path="url(#pef19c7a5a8)" style="fill: none; stroke: #cccccc; stroke-width: 0.8; stroke-linecap: round"/>
     </g>
     <g id="text_9">
      <!-- 4500 -->
      <g style="fill: #262626" transform="translate(20.878125 124.752285) scale(0.1 -0.1)">
       <use xlink:href="#DejaVuSans-34"/>
       <use xlink:href="#DejaVuSans-35" transform="translate(63.623047 0)"/>
       <use xlink:href="#DejaVuSans-30" transform="translate(127.246094 0)"/>
       <use xlink:href="#DejaVuSans-30" transform="translate(190.869141 0)"/>
      </g>
     </g>
    </g>
    <g id="ytick_5">
     <g id="line2d_9">
      <path d="M 53.328125 74.661447 
L 410.448125 74.661447 
" clip-path="url(#pef19c7a5a8)" style="fill: none; stroke: #cccccc; stroke-width: 0.8; stroke-linecap: round"/>
     </g>
     <g id="text_10">
      <!-- 5000 -->
      <g style="fill: #262626" transform="translate(20.878125 78.460666) scale(0.1 -0.1)">
       <use xlink:href="#DejaVuSans-35"/>
       <use xlink:href="#DejaVuSans-30" transform="translate(63.623047 0)"/>
       <use xlink:href="#DejaVuSans-30" transform="translate(127.246094 0)"/>
       <use xlink:href="#DejaVuSans-30" transform="translate(190.869141 0)"/>
      </g>
     </g>
    </g>
    <g id="text_11">
     <!-- IOPS -->
     <g style="fill: #262626" transform="translate(14.798438 180.279725) rotate(-90) scale(0.1 -0.1)">
      <defs>
       <path id="DejaVuSans-49" d="M 628 4666 
L 1259 4666 
L 1259 0 
L 628 0 
L 628 4666 
z
" transform="scale(0.015625)"/>
       <path id="DejaVuSans-4f" d="M 2522 4238 
Q 1834 4238 1429 3725 
Q 1025 3213 1025 2328 
Q 1025 1447 1429 934 
Q 1834 422 2522 422 
Q 3209 422 3611 934 
Q 4013 1447 4013 2328 
Q 4013 3213 3611 3725 
Q 3209 4238 2522 4238 
z
M 2522 4750 
Q 3503 4750 4090 4092 
Q 4678 3434 4678 2328 
Q 4678 1225 4090 567 
Q 3503 -91 2522 -91 
Q 1538 -91 948 565 
Q 359 1222 359 2328 
Q 359 3434 948 4092 
Q 1538 4750 2522 4750 
z
" transform="scale(0.015625)"/>
       <path id="DejaVuSans-50" d="M 1259 4147 
L 1259 2394 
L 2053 2394 
Q 2494 2394 2734 2622 
Q 2975 2850 2975 3272 
Q 2975 3691 2734 3919 
Q 2494 4147 2053 4147 
L 1259 4147 
z
M 628 4666 
L 2053 4666 
Q 2838 4666 3239 4311 
Q 3641 3956 3641 3272 
Q 3641 2581 3239 2228 
Q 2838 1875 2053 1875 
L 1259 1875 
L 1259 0 
L 628 0 
L 628 4666 
z
" transform="scale(0.015625)"/>
       <path id="DejaVuSans-53" d="M 3425 4513 
L 3425 3897 
Q 3066 4069 2747 4153 
Q 2428 4238 2131 4238 
Q 1616 4238 1336 4038 
Q 1056 3838 1056 3469 
Q 1056 3159 1242 3001 
Q 1428 2844 1947 2747 
L 2328 2669 
Q 3034 2534 3370 2195 
Q 3706 1856 3706 1288 
Q 3706 609 3251 259 
Q 2797 -91 1919 -91 
Q 1588 -91 1214 -16 
Q 841 59 441 206 
L 441 856 
Q 825 641 1194 531 
Q 1563 422 1919 422 
Q 2459 422 2753 634 
Q 3047 847 3047 1241 
Q 3047 1584 2836 1778 
Q 2625 1972 2144 2069 
L 1759 2144 
Q 1053 2284 737 2584 
Q 422 2884 422 3419 
Q 422 4038 858 4394 
Q 1294 4750 2059 4750 
Q 2388 4750 2728 4690 
Q 3069 4631 3425 4513 
z
" transform="scale(0.015625)"/>
      </defs>
      <use xlink:href="#DejaVuSans-49"/>
      <use xlink:href="#DejaVuSans-4f" transform="translate(29.492188 0)"/>
      <use xlink:href="#DejaVuSans-50" transform="translate(108.203125 0)"/>
      <use xlink:href="#DejaVuSans-53" transform="translate(168.505859 0)"/>
     </g>
    </g>
   </g>
   <g id="FillBetweenPolyCollection_1"/>
   <g id="FillBetweenPolyCollection_2"/>
   <g id="FillBetweenPolyCollection_3"/>
   <g id="FillBetweenPolyCollection_4"/>
   <g id="FillBetweenPolyCollection_5"/>
   <g id="FillBetweenPolyCollection_6"/>
   <g id="FillBetweenPolyCollection_7"/>
   <g id="line2d_10">
    <path d="M 69.560852 136.321883 
L 115.940073 166.689185 
L 208.698515 273.993158 
L 394.215398 261.864754 
" clip-path="url(#pef19c7a5a8)" style="fill: none; stroke: #4c02a1; stroke-width: 1.5; stroke-linecap: round"/>
   </g>
   <g id="line2d_11">
    <path d="M 69.560852 47.719725 
L 115.940073 57.255798 
L 208.698515 202.518898 
L 394.215398 185.483583 
" clip-path="url(#pef19c7a5a8)" style="fill: none; stroke: #7e03a8; stroke-width: 1.5; stroke-linecap: round"/>
   </g>
   <g id="line2d_12">
    <path d="M 69.560852 117.157153 
L 115.940073 202.426315 
L 208.698515 246.218187 
L 394.215398 289.639725 
" clip-path="url(#pef19c7a5a8)" style="fill: none; stroke: #aa2395; stroke-width: 1.5; stroke-linecap: round"/>
   </g>
   <g id="line2d_13">
    <path d="M 69.560852 125.859978 
L 115.940073 134.933135 
L 208.698515 266.308749 
L 394.215398 255.75426 
" clip-path="url(#pef19c7a5a8)" style="fill: none; stroke: #cc4778; stroke-width: 1.5; stroke-linecap: round"/>
   </g>
   <g id="line2d_14">
    <path d="M 69.560852 56.329966 
L 115.940073 148.542871 
L 208.698515 248.162435 
L 394.215398 178.632423 
" clip-path="url(#pef19c7a5a8)" style="fill: none; stroke: #e66c5c; stroke-width: 1.5; stroke-linecap: round"/>
   </g>
   <g id="line2d_15">
    <path d="M 69.560852 153.727532 
L 115.940073 100.862503 
L 208.698515 256.957842 
L 394.215398 211.129139 
" clip-path="url(#pef19c7a5a8)" style="fill: none; stroke: #f89540; stroke-width: 1.5; stroke-linecap: round"/>
   </g>
   <g id="line2d_16">
    <path d="M 69.560852 112.527991 
L 115.940073 222.702044 
L 208.698515 261.494421 
L 394.215398 238.348611 
" clip-path="url(#pef19c7a5a8)" style="fill: none; stroke: #fdc527; stroke-width: 1.5; stroke-linecap: round"/>
   </g>
   <g id="line2d_17"/>
   <g id="line2d_18"/>
   <g id="line2d_19"/>
   <g id="line2d_20"/>
   <g id="line2d_21"/>
   <g id="line2d_22"/>
   <g id="line2d_23"/>
   <g id="text_12">
    <path d="M 108.679507 164.241781 
L 110.027248 165.124229 
L 113.074304 160.470537 
L 111.415025 159.804324 
L 111.907176 159.052675 
L 113.558611 159.713751 
L 114.383465 160.253834 
L 110.844258 165.659176 
L 112.191999 166.541624 
L 111.737508 167.235756 
L 108.225016 164.935914 
L 108.679507 164.241781 
z
" clip-path="url(#pef19c7a5a8)" style="fill: #4c02a1; stroke: #ffffff; stroke-width: 5"/>
    <path d="M 108.679507 164.241781 
L 110.027248 165.124229 
L 113.074304 160.470537 
L 111.415025 159.804324 
L 111.907176 159.052675 
L 113.558611 159.713751 
L 114.383465 160.253834 
L 110.844258 165.659176 
L 112.191999 166.541624 
L 111.737508 167.235756 
L 108.225016 164.935914 
L 108.679507 164.241781 
z
" clip-path="url(#pef19c7a5a8)" style="fill: #4c02a1"/>
   </g>
   <g id="text_13">
    <path d="M 154.952942 111.528727 
L 150.332085 111.524302 
L 151.672513 113.62346 
L 154.952942 111.528727 
z
M 155.537651 110.847613 
L 156.205342 111.893241 
L 152.200611 114.450481 
L 152.760664 115.327545 
L 152.069285 115.769029 
L 151.509232 114.891965 
L 150.060628 115.816978 
L 149.53253 114.989957 
L 150.981134 114.064944 
L 149.210155 111.291526 
L 150.012155 110.779405 
L 155.537651 110.847613 
z
" clip-path="url(#pef19c7a5a8)" style="fill: #7e03a8; stroke: #ffffff; stroke-width: 5"/>
    <path d="M 154.952942 111.528727 
L 150.332085 111.524302 
L 151.672513 113.62346 
L 154.952942 111.528727 
z
M 155.537651 110.847613 
L 156.205342 111.893241 
L 152.200611 114.450481 
L 152.760664 115.327545 
L 152.069285 115.769029 
L 151.509232 114.891965 
L 150.060628 115.816978 
L 149.53253 114.989957 
L 150.981134 114.064944 
L 149.210155 111.291526 
L 150.012155 110.779405 
L 155.537651 110.847613 
z
" clip-path="url(#pef19c7a5a8)" style="fill: #7e03a8"/>
   </g>
   <g id="text_14">
    <path d="M 192.009478 237.561638 
Q 191.37365 237.261459 190.848346 237.429878 
Q 190.324455 237.598964 190.043621 238.193817 
Q 189.76212 238.790082 189.964486 239.302039 
Q 190.168265 239.814663 190.804094 240.114841 
Q 191.439922 240.41502 191.967306 240.245855 
Q 192.49677 240.075945 192.776269 239.483918 
Q 193.057103 238.889065 192.853324 238.376441 
Q 192.650958 237.864485 192.009478 237.561638 
z
M 191.296678 236.762049 
Q 190.789726 236.349926 190.65443 235.805702 
Q 190.521214 235.260733 190.788039 234.695552 
Q 191.160928 233.905712 191.940078 233.711994 
Q 192.720642 233.518943 193.699817 233.981218 
Q 194.684645 234.446162 195.028791 235.170195 
Q 195.372937 235.894229 195.000048 236.684069 
Q 194.733223 237.24925 194.226372 237.49204 
Q 193.721601 237.734084 193.085475 237.606552 
Q 193.659072 238.060506 193.811172 238.667955 
Q 193.965352 239.274659 193.667842 239.904835 
Q 193.214905 240.864229 192.387799 241.100966 
Q 191.56136 241.33629 190.470562 240.821317 
Q 189.381176 240.307011 189.036278 239.518691 
Q 188.69346 238.729625 189.146397 237.770231 
Q 189.443907 237.140055 190.011745 236.874221 
Q 190.581664 236.607641 191.296678 236.762049 
z
M 191.635349 235.199245 
Q 191.393872 235.710733 191.577785 236.148319 
Q 191.763111 236.586572 192.341008 236.859401 
Q 192.91608 237.130896 193.37506 236.996824 
Q 193.835452 236.86342 194.07693 236.351931 
Q 194.319074 235.83903 194.129509 235.398776 
Q 193.941357 234.959189 193.366285 234.687694 
Q 192.788388 234.414865 192.332234 234.550271 
Q 191.877493 234.686344 191.635349 235.199245 
z
" clip-path="url(#pef19c7a5a8)" style="fill: #aa2395; stroke: #ffffff; stroke-width: 5"/>
    <path d="M 192.009478 237.561638 
Q 191.37365 237.261459 190.848346 237.429878 
Q 190.324455 237.598964 190.043621 238.193817 
Q 189.76212 238.790082 189.964486 239.302039 
Q 190.168265 239.814663 190.804094 240.114841 
Q 191.439922 240.41502 191.967306 240.245855 
Q 192.49677 240.075945 192.776269 239.483918 
Q 193.057103 238.889065 192.853324 238.376441 
Q 192.650958 237.864485 192.009478 237.561638 
z
M 191.296678 236.762049 
Q 190.789726 236.349926 190.65443 235.805702 
Q 190.521214 235.260733 190.788039 234.695552 
Q 191.160928 233.905712 191.940078 233.711994 
Q 192.720642 233.518943 193.699817 233.981218 
Q 194.684645 234.446162 195.028791 235.170195 
Q 195.372937 235.894229 195.000048 236.684069 
Q 194.733223 237.24925 194.226372 237.49204 
Q 193.721601 237.734084 193.085475 237.606552 
Q 193.659072 238.060506 193.811172 238.667955 
Q 193.965352 239.274659 193.667842 239.904835 
Q 193.214905 240.864229 192.387799 241.100966 
Q 191.56136 241.33629 190.470562 240.821317 
Q 189.381176 240.307011 189.036278 239.518691 
Q 188.69346 238.729625 189.146397 237.770231 
Q 189.443907 237.140055 190.011745 236.874221 
Q 190.581664 236.607641 191.296678 236.762049 
z
M 191.635349 235.199245 
Q 191.393872 235.710733 191.577785 236.148319 
Q 191.763111 236.586572 192.341008 236.859401 
Q 192.91608 237.130896 193.37506 236.996824 
Q 193.835452 236.86342 194.07693 236.351931 
Q 194.319074 235.83903 194.129509 235.398776 
Q 193.941357 234.959189 193.366285 234.687694 
Q 192.788388 234.414865 192.332234 234.550271 
Q 191.877493 234.686344 191.635349 235.199245 
z
" clip-path="url(#pef19c7a5a8)" style="fill: #aa2395"/>
   </g>
   <g id="text_15">
    <path d="M 226.884126 267.206935 
L 228.492463 267.115433 
L 228.17651 261.561913 
L 226.446184 262.012487 
L 226.395153 261.1155 
L 228.116119 260.665459 
L 229.100464 260.609457 
L 229.467449 267.059964 
L 231.075786 266.968462 
L 231.122912 267.79681 
L 226.931253 268.035283 
L 226.884126 267.206935 
z
M 235.111564 263.525857 
Q 234.448574 263.563576 234.085966 264.039629 
Q 233.724829 264.514032 233.769737 265.303381 
Q 233.814379 266.088049 234.227257 266.523113 
Q 234.641607 266.956527 235.304597 266.918808 
Q 235.967587 266.881089 236.328547 266.403565 
Q 236.689417 265.924482 236.644775 265.139813 
Q 236.599868 264.350465 236.187255 263.920081 
Q 235.774555 263.488138 235.111564 263.525857 
z
M 236.890578 260.327457 
L 236.94161 261.224444 
Q 236.560395 261.070849 236.177644 261.000288 
Q 235.794805 260.928167 235.42353 260.94929 
Q 234.448544 261.004759 233.971204 261.692358 
Q 233.495425 262.379867 233.49781 263.714699 
Q 233.760706 263.274055 234.181511 263.023186 
Q 234.603875 262.772227 235.124908 262.742585 
Q 236.221572 262.680193 236.895939 263.310093 
Q 237.570218 263.938433 237.635361 265.083456 
Q 237.699173 266.20508 237.074789 266.921389 
Q 236.450317 267.636139 235.348972 267.698797 
Q 234.085391 267.770685 233.362695 266.841484 
Q 232.63991 265.910724 232.535362 264.07307 
Q 232.437204 262.347735 233.197794 261.274676 
Q 233.958384 260.201617 235.337404 260.123161 
Q 235.708679 260.102038 236.090364 260.153879 
Q 236.47205 260.205721 236.890578 260.327457 
z
" clip-path="url(#pef19c7a5a8)" style="fill: #cc4778; stroke: #ffffff; stroke-width: 5"/>
    <path d="M 226.884126 267.206935 
L 228.492463 267.115433 
L 228.17651 261.561913 
L 226.446184 262.012487 
L 226.395153 261.1155 
L 228.116119 260.665459 
L 229.100464 260.609457 
L 229.467449 267.059964 
L 231.075786 266.968462 
L 231.122912 267.79681 
L 226.931253 268.035283 
L 226.884126 267.206935 
z
M 235.111564 263.525857 
Q 234.448574 263.563576 234.085966 264.039629 
Q 233.724829 264.514032 233.769737 265.303381 
Q 233.814379 266.088049 234.227257 266.523113 
Q 234.641607 266.956527 235.304597 266.918808 
Q 235.967587 266.881089 236.328547 266.403565 
Q 236.689417 265.924482 236.644775 265.139813 
Q 236.599868 264.350465 236.187255 263.920081 
Q 235.774555 263.488138 235.111564 263.525857 
z
M 236.890578 260.327457 
L 236.94161 261.224444 
Q 236.560395 261.070849 236.177644 261.000288 
Q 235.794805 260.928167 235.42353 260.94929 
Q 234.448544 261.004759 233.971204 261.692358 
Q 233.495425 262.379867 233.49781 263.714699 
Q 233.760706 263.274055 234.181511 263.023186 
Q 234.603875 262.772227 235.124908 262.742585 
Q 236.221572 262.680193 236.895939 263.310093 
Q 237.570218 263.938433 237.635361 265.083456 
Q 237.699173 266.20508 237.074789 266.921389 
Q 236.450317 267.636139 235.348972 267.698797 
Q 234.085391 267.770685 233.362695 266.841484 
Q 232.63991 265.910724 232.535362 264.07307 
Q 232.437204 262.347735 233.197794 261.274676 
Q 233.958384 260.201617 235.337404 260.123161 
Q 235.708679 260.102038 236.090364 260.153879 
Q 236.47205 260.205721 236.890578 260.327457 
z
" clip-path="url(#pef19c7a5a8)" style="fill: #cc4778"/>
   </g>
   <g id="text_16">
    <path d="M 269.494759 224.125088 
Q 270.210741 224.018602 270.750719 224.328494 
Q 271.291613 224.636375 271.538375 225.294777 
Q 271.916745 226.304326 271.429595 227.119319 
Q 270.941896 227.932848 269.66167 228.412665 
Q 269.232978 228.573335 268.746144 228.659015 
Q 268.25931 228.744695 267.711409 228.756481 
L 267.377457 227.865444 
Q 267.844692 227.94563 268.343956 227.888664 
Q 268.844684 227.83115 269.343606 227.644158 
Q 270.211233 227.318979 270.537945 226.80607 
Q 270.864657 226.293161 270.619539 225.639148 
Q 270.393066 225.034882 269.843006 224.853916 
Q 269.292397 224.671486 268.538893 224.953893 
L 267.742958 225.252202 
L 267.458358 224.492845 
L 268.290871 224.180827 
Q 268.971219 223.925839 269.230613 223.518254 
Q 269.490007 223.110669 269.298081 222.598579 
Q 269.101219 222.073321 268.622839 221.932235 
Q 268.145374 221.789138 267.450394 222.04961 
Q 267.069984 222.192184 266.666696 222.438445 
Q 266.262859 222.683243 265.806697 223.051107 
L 265.498517 222.228836 
Q 265.970403 221.885115 266.402403 221.639773 
Q 266.834403 221.394432 267.241149 221.241987 
Q 268.293128 220.847715 269.084025 221.096938 
Q 269.875836 221.34415 270.180725 222.157642 
Q 270.393489 222.725331 270.215091 223.237719 
Q 270.036692 223.750107 269.494759 224.125088 
z
M 274.537874 225.547217 
L 277.761117 224.339176 
L 278.052297 225.11609 
L 273.71855 226.740338 
L 273.42737 225.963424 
Q 273.748638 225.222283 274.312494 223.966389 
Q 274.877266 222.708483 275.010099 222.355006 
Q 275.26698 221.691394 275.31314 221.280295 
Q 275.360764 220.868648 275.235737 220.535058 
Q 275.031747 219.990779 274.521557 219.791533 
Q 274.010819 219.590823 273.397774 219.820587 
Q 272.963229 219.98345 272.536882 220.315111 
Q 272.111998 220.646222 271.678486 221.159112 
L 271.328631 220.225645 
Q 271.802179 219.792863 272.243698 219.497232 
Q 272.68668 219.201053 273.089036 219.050253 
Q 274.149795 218.652691 274.979452 218.947457 
Q 275.808562 219.240761 276.140869 220.127409 
Q 276.298798 220.548786 276.282259 220.985493 
Q 276.266634 221.420188 276.041573 222.088561 
Q 275.977351 222.264477 275.601747 223.127769 
Q 275.227605 223.990513 274.537874 225.547217 
z
" clip-path="url(#pef19c7a5a8)" style="fill: #e66c5c; stroke: #ffffff; stroke-width: 5"/>
    <path d="M 269.494759 224.125088 
Q 270.210741 224.018602 270.750719 224.328494 
Q 271.291613 224.636375 271.538375 225.294777 
Q 271.916745 226.304326 271.429595 227.119319 
Q 270.941896 227.932848 269.66167 228.412665 
Q 269.232978 228.573335 268.746144 228.659015 
Q 268.25931 228.744695 267.711409 228.756481 
L 267.377457 227.865444 
Q 267.844692 227.94563 268.343956 227.888664 
Q 268.844684 227.83115 269.343606 227.644158 
Q 270.211233 227.318979 270.537945 226.80607 
Q 270.864657 226.293161 270.619539 225.639148 
Q 270.393066 225.034882 269.843006 224.853916 
Q 269.292397 224.671486 268.538893 224.953893 
L 267.742958 225.252202 
L 267.458358 224.492845 
L 268.290871 224.180827 
Q 268.971219 223.925839 269.230613 223.518254 
Q 269.490007 223.110669 269.298081 222.598579 
Q 269.101219 222.073321 268.622839 221.932235 
Q 268.145374 221.789138 267.450394 222.04961 
Q 267.069984 222.192184 266.666696 222.438445 
Q 266.262859 222.683243 265.806697 223.051107 
L 265.498517 222.228836 
Q 265.970403 221.885115 266.402403 221.639773 
Q 266.834403 221.394432 267.241149 221.241987 
Q 268.293128 220.847715 269.084025 221.096938 
Q 269.875836 221.34415 270.180725 222.157642 
Q 270.393489 222.725331 270.215091 223.237719 
Q 270.036692 223.750107 269.494759 224.125088 
z
M 274.537874 225.547217 
L 277.761117 224.339176 
L 278.052297 225.11609 
L 273.71855 226.740338 
L 273.42737 225.963424 
Q 273.748638 225.222283 274.312494 223.966389 
Q 274.877266 222.708483 275.010099 222.355006 
Q 275.26698 221.691394 275.31314 221.280295 
Q 275.360764 220.868648 275.235737 220.535058 
Q 275.031747 219.990779 274.521557 219.791533 
Q 274.010819 219.590823 273.397774 219.820587 
Q 272.963229 219.98345 272.536882 220.315111 
Q 272.111998 220.646222 271.678486 221.159112 
L 271.328631 220.225645 
Q 271.802179 219.792863 272.243698 219.497232 
Q 272.68668 219.201053 273.089036 219.050253 
Q 274.149795 218.652691 274.979452 218.947457 
Q 275.808562 219.240761 276.140869 220.127409 
Q 276.298798 220.548786 276.282259 220.985493 
Q 276.266634 221.420188 276.041573 222.088561 
Q 275.977351 222.264477 275.601747 223.127769 
Q 275.227605 223.990513 274.537874 225.547217 
z
" clip-path="url(#pef19c7a5a8)" style="fill: #e66c5c"/>
   </g>
   <g id="text_17">
    <path d="M 308.961992 230.872957 
Q 308.317309 231.032214 308.048646 231.566939 
Q 307.781124 232.099771 307.970734 232.867323 
Q 308.15922 233.630324 308.645206 233.981845 
Q 309.132334 234.331474 309.777016 234.172216 
Q 310.421699 234.012958 310.688471 233.477092 
Q 310.954869 232.939708 310.766383 232.176707 
Q 310.576772 231.409155 310.091911 231.062186 
Q 309.606675 230.713699 308.961992 230.872957 
z
M 310.12109 227.401481 
L 310.336557 228.273699 
Q 309.933565 228.19299 309.544366 228.194176 
Q 309.154793 228.193845 308.793771 228.28303 
Q 307.845707 228.517232 307.503264 229.281023 
Q 307.162337 230.044439 307.410682 231.355968 
Q 307.587867 230.874422 307.95523 230.550298 
Q 308.324111 230.225799 308.830755 230.100641 
Q 309.897137 229.83721 310.676039 230.33204 
Q 311.454567 230.825352 311.729615 231.938757 
Q 311.999041 233.029409 311.517363 233.848519 
Q 311.03531 234.666111 309.964378 234.930666 
Q 308.735689 235.234193 307.854126 234.454096 
Q 306.972189 233.672482 306.530764 231.885573 
Q 306.11632 230.207881 306.666125 229.01303 
Q 307.215929 227.818179 308.55687 227.486923 
Q 308.917892 227.397739 309.302594 227.37835 
Q 309.687296 227.358961 310.12109 227.401481 
z
M 315.028718 226.90857 
L 313.544215 231.28448 
L 315.962155 230.68717 
L 315.028718 226.90857 
z
M 314.570814 226.136479 
L 315.775233 225.838948 
L 316.914768 230.451844 
L 317.925024 230.202278 
L 318.121754 230.998651 
L 317.111498 231.248217 
L 317.523695 232.916808 
L 316.571081 233.152134 
L 316.158885 231.483543 
L 312.964291 232.272712 
L 312.736085 231.348919 
L 314.570814 226.136479 
z
" clip-path="url(#pef19c7a5a8)" style="fill: #f89540; stroke: #ffffff; stroke-width: 5"/>
    <path d="M 308.961992 230.872957 
Q 308.317309 231.032214 308.048646 231.566939 
Q 307.781124 232.099771 307.970734 232.867323 
Q 308.15922 233.630324 308.645206 233.981845 
Q 309.132334 234.331474 309.777016 234.172216 
Q 310.421699 234.012958 310.688471 233.477092 
Q 310.954869 232.939708 310.766383 232.176707 
Q 310.576772 231.409155 310.091911 231.062186 
Q 309.606675 230.713699 308.961992 230.872957 
z
M 310.12109 227.401481 
L 310.336557 228.273699 
Q 309.933565 228.19299 309.544366 228.194176 
Q 309.154793 228.193845 308.793771 228.28303 
Q 307.845707 228.517232 307.503264 229.281023 
Q 307.162337 230.044439 307.410682 231.355968 
Q 307.587867 230.874422 307.95523 230.550298 
Q 308.324111 230.225799 308.830755 230.100641 
Q 309.897137 229.83721 310.676039 230.33204 
Q 311.454567 230.825352 311.729615 231.938757 
Q 311.999041 233.029409 311.517363 233.848519 
Q 311.03531 234.666111 309.964378 234.930666 
Q 308.735689 235.234193 307.854126 234.454096 
Q 306.972189 233.672482 306.530764 231.885573 
Q 306.11632 230.207881 306.666125 229.01303 
Q 307.215929 227.818179 308.55687 227.486923 
Q 308.917892 227.397739 309.302594 227.37835 
Q 309.687296 227.358961 310.12109 227.401481 
z
M 315.028718 226.90857 
L 313.544215 231.28448 
L 315.962155 230.68717 
L 315.028718 226.90857 
z
M 314.570814 226.136479 
L 315.775233 225.838948 
L 316.914768 230.451844 
L 317.925024 230.202278 
L 318.121754 230.998651 
L 317.111498 231.248217 
L 317.523695 232.916808 
L 316.571081 233.152134 
L 316.158885 231.483543 
L 312.964291 232.272712 
L 312.736085 231.348919 
L 314.570814 226.136479 
z
" clip-path="url(#pef19c7a5a8)" style="fill: #f89540"/>
   </g>
   <g id="text_18">
    <path d="M 344.415782 246.506454 
L 346.014326 246.307013 
L 345.325666 240.787307 
L 343.629553 241.353209 
L 343.518323 240.461684 
L 345.205133 239.896942 
L 346.183485 239.774879 
L 346.983375 246.186111 
L 348.581919 245.98667 
L 348.684638 246.809975 
L 344.5185 247.329758 
L 344.415782 246.506454 
z
M 351.402047 245.63482 
L 354.817753 245.208663 
L 354.920471 246.031968 
L 350.327952 246.604948 
L 350.225233 245.781644 
Q 350.709894 245.135419 351.550096 244.044884 
Q 352.391654 242.952605 352.602973 242.63966 
Q 353.006998 242.053884 353.147402 241.664758 
Q 353.289358 241.275438 353.245252 240.921929 
Q 353.173291 240.34515 352.72335 240.032827 
Q 352.273216 239.718953 351.623565 239.800006 
Q 351.163073 239.857459 350.67134 240.080995 
Q 350.181157 240.304337 349.64035 240.702479 
L 349.516933 239.713274 
Q 350.078069 239.402348 350.576189 239.217381 
Q 351.075859 239.03222 351.502241 238.979023 
Q 352.626338 238.838776 353.364815 239.318226 
Q 354.103098 239.796125 354.220325 240.735716 
Q 354.276037 241.182254 354.158494 241.603169 
Q 354.042307 242.022341 353.668126 242.62014 
Q 353.564792 242.776322 352.998903 243.528733 
Q 352.434563 244.28095 351.402047 245.63482 
z
M 358.639138 242.078668 
Q 357.941422 242.165718 357.588019 242.589292 
Q 357.236165 243.012672 357.317605 243.665424 
Q 357.399239 244.319726 357.844332 244.643677 
Q 358.290975 244.967433 358.988691 244.880384 
Q 359.686407 244.793334 360.041167 244.368016 
Q 360.397285 243.940954 360.316232 243.291304 
Q 360.234792 242.638552 359.788149 242.314795 
Q 359.343056 241.990844 358.639138 242.078668 
z
M 357.608943 241.785202 
Q 356.960104 241.708693 356.554368 241.321571 
Q 356.149988 240.932706 356.072611 240.312514 
Q 355.964476 239.445796 356.518697 238.8649 
Q 357.074469 238.28381 358.148951 238.149754 
Q 359.229635 238.014923 359.908045 238.442032 
Q 360.586454 238.86914 360.694589 239.735858 
Q 360.771967 240.35605 360.473979 240.832545 
Q 360.177348 241.307297 359.571849 241.540303 
Q 360.299373 241.616443 360.753162 242.047957 
Q 361.208309 242.477727 361.294584 243.16924 
Q 361.425933 244.222016 360.854255 244.864926 
Q 360.282383 245.506285 359.085413 245.655623 
Q 357.889993 245.804769 357.176518 245.323774 
Q 356.464399 244.841036 356.333051 243.788261 
Q 356.246775 243.096747 356.583924 242.568127 
Q 356.922429 242.037764 357.608943 241.785202 
z
M 357.057918 240.28406 
Q 357.127945 240.845334 357.517623 241.116363 
Q 357.90885 241.387198 358.542996 241.30808 
Q 359.174041 241.229348 359.489832 240.870302 
Q 359.807173 240.511063 359.737147 239.949789 
Q 359.666926 239.386965 359.271047 239.11671 
Q 358.876718 238.846262 358.245673 238.924993 
Q 357.611527 239.004112 357.298838 239.362771 
Q 356.987698 239.721236 357.057918 240.28406 
z
" clip-path="url(#pef19c7a5a8)" style="fill: #fdc527; stroke: #ffffff; stroke-width: 5"/>
    <path d="M 344.415782 246.506454 
L 346.014326 246.307013 
L 345.325666 240.787307 
L 343.629553 241.353209 
L 343.518323 240.461684 
L 345.205133 239.896942 
L 346.183485 239.774879 
L 346.983375 246.186111 
L 348.581919 245.98667 
L 348.684638 246.809975 
L 344.5185 247.329758 
L 344.415782 246.506454 
z
M 351.402047 245.63482 
L 354.817753 245.208663 
L 354.920471 246.031968 
L 350.327952 246.604948 
L 350.225233 245.781644 
Q 350.709894 245.135419 351.550096 244.044884 
Q 352.391654 242.952605 352.602973 242.63966 
Q 353.006998 242.053884 353.147402 241.664758 
Q 353.289358 241.275438 353.245252 240.921929 
Q 353.173291 240.34515 352.72335 240.032827 
Q 352.273216 239.718953 351.623565 239.800006 
Q 351.163073 239.857459 350.67134 240.080995 
Q 350.181157 240.304337 349.64035 240.702479 
L 349.516933 239.713274 
Q 350.078069 239.402348 350.576189 239.217381 
Q 351.075859 239.03222 351.502241 238.979023 
Q 352.626338 238.838776 353.364815 239.318226 
Q 354.103098 239.796125 354.220325 240.735716 
Q 354.276037 241.182254 354.158494 241.603169 
Q 354.042307 242.022341 353.668126 242.62014 
Q 353.564792 242.776322 352.998903 243.528733 
Q 352.434563 244.28095 351.402047 245.63482 
z
M 358.639138 242.078668 
Q 357.941422 242.165718 357.588019 242.589292 
Q 357.236165 243.012672 357.317605 243.665424 
Q 357.399239 244.319726 357.844332 244.643677 
Q 358.290975 244.967433 358.988691 244.880384 
Q 359.686407 244.793334 360.041167 244.368016 
Q 360.397285 243.940954 360.316232 243.291304 
Q 360.234792 242.638552 359.788149 242.314795 
Q 359.343056 241.990844 358.639138 242.078668 
z
M 357.608943 241.785202 
Q 356.960104 241.708693 356.554368 241.321571 
Q 356.149988 240.932706 356.072611 240.312514 
Q 355.964476 239.445796 356.518697 238.8649 
Q 357.074469 238.28381 358.148951 238.149754 
Q 359.229635 238.014923 359.908045 238.442032 
Q 360.586454 238.86914 360.694589 239.735858 
Q 360.771967 240.35605 360.473979 240.832545 
Q 360.177348 241.307297 359.571849 241.540303 
Q 360.299373 241.616443 360.753162 242.047957 
Q 361.208309 242.477727 361.294584 243.16924 
Q 361.425933 244.222016 360.854255 244.864926 
Q 360.282383 245.506285 359.085413 245.655623 
Q 357.889993 245.804769 357.176518 245.323774 
Q 356.464399 244.841036 356.333051 243.788261 
Q 356.246775 243.096747 356.583924 242.568127 
Q 356.922429 242.037764 357.608943 241.785202 
z
M 357.057918 240.28406 
Q 357.127945 240.845334 357.517623 241.116363 
Q 357.90885 241.387198 358.542996 241.30808 
Q 359.174041 241.229348 359.489832 240.870302 
Q 359.807173 240.511063 359.737147 239.949789 
Q 359.666926 239.386965 359.271047 239.11671 
Q 358.876718 238.846262 358.245673 238.924993 
Q 357.611527 239.004112 357.298838 239.362771 
Q 356.987698 239.721236 357.057918 240.28406 
z
" clip-path="url(#pef19c7a5a8)" style="fill: #fdc527"/>
   </g>
   <g id="patch_3">
    <path d="M 53.328125 301.735725 
L 53.328125 35.623725 
" style="fill: none; stroke: #cccccc; stroke-width: 0.8; stroke-linejoin: miter; stroke-linecap: square"/>
   </g>
   <g id="patch_4">
    <path d="M 410.448125 301.735725 
L 410.448125 35.623725 
" style="fill: none; stroke: #cccccc; stroke-width: 0.8; stroke-linejoin: miter; stroke-linecap: square"/>
   </g>
   <g id="patch_5">
    <path d="M 53.328125 301.735725 
L 410.448125 301.735725 
" style="fill: none; stroke: #cccccc; stroke-width: 0.8; stroke-linejoin: miter; stroke-linecap: square"/>
   </g>
   <g id="patch_6">
    <path d="M 53.328125 35.623725 
L 410.448125 35.623725 
" style="fill: none; stroke: #cccccc; stroke-width: 0.8; stroke-linejoin: miter; stroke-linecap: square"/>
   </g>
   <g id="text_19">
    <!-- Block Size = 1M, Read-Write Type = Sequential Balanced 1:1 -->
    <g style="fill: #262626; opacity: 0.75" transform="translate(79.679531 30.882918) scale(0.1 -0.1)">
     <defs>
      <path id="DejaVuSans-42" d="M 1259 2228 
L 1259 519 
L 2272 519 
Q 2781 519 3026 730 
Q 3272 941 3272 1375 
Q 3272 1813 3026 2020 
Q 2781 2228 2272 2228 
L 1259 2228 
z
M 1259 4147 
L 1259 2741 
L 2194 2741 
Q 2656 2741 2882 2914 
Q 3109 3088 3109 3444 
Q 3109 3797 2882 3972 
Q 2656 4147 2194 4147 
L 1259 4147 
z
M 628 4666 
L 2241 4666 
Q 2963 4666 3353 4366 
Q 3744 4066 3744 3513 
Q 3744 3084 3544 2831 
Q 3344 2578 2956 2516 
Q 3422 2416 3680 2098 
Q 3938 1781 3938 1306 
Q 3938 681 3513 340 
Q 3088 0 2303 0 
L 628 0 
L 628 4666 
z
" transform="scale(0.015625)"/>
      <path id="DejaVuSans-6c" d="M 603 4863 
L 1178 4863 
L 1178 0 
L 603 0 
L 603 4863 
z
" transform="scale(0.015625)"/>
      <path id="DejaVuSans-63" d="M 3122 3366 
L 3122 2828 
Q 2878 2963 2633 3030 
Q 2388 3097 2138 3097 
Q 1578 3097 1268 2742 
Q 959 2388 959 1747 
Q 959 1106 1268 751 
Q 1578 397 2138 397 
Q 2388 397 2633 464 
Q 2878 531 3122 666 
L 3122 134 
Q 2881 22 2623 -34 
Q 2366 -91 2075 -91 
Q 1284 -91 818 406 
Q 353 903 353 1747 
Q 353 2603 823 3093 
Q 1294 3584 2113 3584 
Q 2378 3584 2631 3529 
Q 2884 3475 3122 3366 
z
" transform="scale(0.015625)"/>
      <path id="DejaVuSans-6b" d="M 581 4863 
L 1159 4863 
L 1159 1991 
L 2875 3500 
L 3609 3500 
L 1753 1863 
L 3688 0 
L 2938 0 
L 1159 1709 
L 1159 0 
L 581 0 
L 581 4863 
z
" transform="scale(0.015625)"/>
      <path id="DejaVuSans-69" d="M 603 3500 
L 1178 3500 
L 1178 0 
L 603 0 
L 603 3500 
z
M 603 4863 
L 1178 4863 
L 1178 4134 
L 603 4134 
L 603 4863 
z
" transform="scale(0.015625)"/>
      <path id="DejaVuSans-7a" d="M 353 3500 
L 3084 3500 
L 3084 2975 
L 922 459 
L 3084 459 
L 3084 0 
L 275 0 
L 275 525 
L 2438 3041 
L 353 3041 
L 353 3500 
z
" transform="scale(0.015625)"/>
      <path id="DejaVuSans-3d" d="M 678 2906 
L 4684 2906 
L 4684 2381 
L 678 2381 
L 678 2906 
z
M 678 1631 
L 4684 1631 
L 4684 1100 
L 678 1100 
L 678 1631 
z
" transform="scale(0.015625)"/>
      <path id="DejaVuSans-4d" d="M 628 4666 
L 1569 4666 
L 2759 1491 
L 3956 4666 
L 4897 4666 
L 4897 0 
L 4281 0 
L 4281 4097 
L 3078 897 
L 2444 897 
L 1241 4097 
L 1241 0 
L 628 0 
L 628 4666 
z
" transform="scale(0.015625)"/>
      <path id="DejaVuSans-2c" d="M 750 794 
L 1409 794 
L 1409 256 
L 897 -744 
L 494 -744 
L 750 256 
L 750 794 
z
" transform="scale(0.015625)"/>
      <path id="DejaVuSans-52" d="M 2841 2188 
Q 3044 2119 3236 1894 
Q 3428 1669 3622 1275 
L 4263 0 
L 3584 0 
L 2988 1197 
Q 2756 1666 2539 1819 
Q 2322 1972 1947 1972 
L 1259 1972 
L 1259 0 
L 628 0 
L 628 4666 
L 2053 4666 
Q 2853 4666 3247 4331 
Q 3641 3997 3641 3322 
Q 3641 2881 3436 2590 
Q 3231 2300 2841 2188 
z
M 1259 4147 
L 1259 2491 
L 2053 2491 
Q 2509 2491 2742 2702 
Q 2975 2913 2975 3322 
Q 2975 3731 2742 3939 
Q 2509 4147 2053 4147 
L 1259 4147 
z
" transform="scale(0.015625)"/>
      <path id="DejaVuSans-61" d="M 2194 1759 
Q 1497 1759 1228 1600 
Q 959 1441 959 1056 
Q 959 750 1161 570 
Q 1363 391 1709 391 
Q 2188 391 2477 730 
Q 2766 1069 2766 1631 
L 2766 1759 
L 2194 1759 
z
M 3341 1997 
L 3341 0 
L 2766 0 
L 2766 531 
Q 2569 213 2275 61 
Q 1981 -91 1556 -91 
Q 1019 -91 701 211 
Q 384 513 384 1019 
Q 384 1609 779 1909 
Q 1175 2209 1959 2209 
L 2766 2209 
L 2766 2266 
Q 2766 2663 2505 2880 
Q 2244 3097 1772 3097 
Q 1472 3097 1187 3025 
Q 903 2953 641 2809 
L 641 3341 
Q 956 3463 1253 3523 
Q 1550 3584 1831 3584 
Q 2591 3584 2966 3190 
Q 3341 2797 3341 1997 
z
" transform="scale(0.015625)"/>
      <path id="DejaVuSans-64" d="M 2906 2969 
L 2906 4863 
L 3481 4863 
L 3481 0 
L 2906 0 
L 2906 525 
Q 2725 213 2448 61 
Q 2172 -91 1784 -91 
Q 1150 -91 751 415 
Q 353 922 353 1747 
Q 353 2572 751 3078 
Q 1150 3584 1784 3584 
Q 2172 3584 2448 3432 
Q 2725 3281 2906 2969 
z
M 947 1747 
Q 947 1113 1208 752 
Q 1469 391 1925 391 
Q 2381 391 2643 752 
Q 2906 1113 2906 1747 
Q 2906 2381 2643 2742 
Q 2381 3103 1925 3103 
Q 1469 3103 1208 2742 
Q 947 2381 947 1747 
z
" transform="scale(0.015625)"/>
      <path id="DejaVuSans-2d" d="M 313 2009 
L 1997 2009 
L 1997 1497 
L 313 1497 
L 313 2009 
z
" transform="scale(0.015625)"/>
      <path id="DejaVuSans-57" d="M 213 4666 
L 850 4666 
L 1831 722 
L 2809 4666 
L 3519 4666 
L 4500 722 
L 5478 4666 
L 6119 4666 
L 4947 0 
L 4153 0 
L 3169 4050 
L 2175 0 
L 1381 0 
L 213 4666 
z
" transform="scale(0.015625)"/>
      <path id="DejaVuSans-74" d="M 1172 4494 
L 1172 3500 
L 2356 3500 
L 2356 3053 
L 1172 3053 
L 1172 1153 
Q 1172 725 1289 603 
Q 1406 481 1766 481 
L 2356 481 
L 2356 0 
L 1766 0 
Q 1100 0 847 248 
Q 594 497 594 1153 
L 594 3053 
L 172 3053 
L 172 3500 
L 594 3500 
L 594 4494 
L 1172 4494 
z
" transform="scale(0.015625)"/>
      <path id="DejaVuSans-54" d="M -19 4666 
L 3928 4666 
L 3928 4134 
L 2272 4134 
L 2272 0 
L 1638 0 
L 1638 4134 
L -19 4134 
L -19 4666 
z
" transform="scale(0.015625)"/>
      <path id="DejaVuSans-79" d="M 2059 -325 
Q 1816 -950 1584 -1140 
Q 1353 -1331 966 -1331 
L 506 -1331 
L 506 -850 
L 844 -850 
Q 1081 -850 1212 -737 
Q 1344 -625 1503 -206 
L 1606 56 
L 191 3500 
L 800 3500 
L 1894 763 
L 2988 3500 
L 3597 3500 
L 2059 -325 
z
" transform="scale(0.015625)"/>
      <path id="DejaVuSans-70" d="M 1159 525 
L 1159 -1331 
L 581 -1331 
L 581 3500 
L 1159 3500 
L 1159 2969 
Q 1341 3281 1617 3432 
Q 1894 3584 2278 3584 
Q 2916 3584 3314 3078 
Q 3713 2572 3713 1747 
Q 3713 922 3314 415 
Q 2916 -91 2278 -91 
Q 1894 -91 1617 61 
Q 1341 213 1159 525 
z
M 3116 1747 
Q 3116 2381 2855 2742 
Q 2594 3103 2138 3103 
Q 1681 3103 1420 2742 
Q 1159 2381 1159 1747 
Q 1159 1113 1420 752 
Q 1681 391 2138 391 
Q 2594 391 2855 752 
Q 3116 1113 3116 1747 
z
" transform="scale(0.015625)"/>
      <path id="DejaVuSans-71" d="M 947 1747 
Q 947 1113 1208 752 
Q 1469 391 1925 391 
Q 2381 391 2643 752 
Q 2906 1113 2906 1747 
Q 2906 2381 2643 2742 
Q 2381 3103 1925 3103 
Q 1469 3103 1208 2742 
Q 947 2381 947 1747 
z
M 2906 525 
Q 2725 213 2448 61 
Q 2172 -91 1784 -91 
Q 1150 -91 751 415 
Q 353 922 353 1747 
Q 353 2572 751 3078 
Q 1150 3584 1784 3584 
Q 2172 3584 2448 3432 
Q 2725 3281 2906 2969 
L 2906 3500 
L 3481 3500 
L 3481 -1331 
L 2906 -1331 
L 2906 525 
z
" transform="scale(0.015625)"/>
      <path id="DejaVuSans-6e" d="M 3513 2113 
L 3513 0 
L 2938 0 
L 2938 2094 
Q 2938 2591 2744 2837 
Q 2550 3084 2163 3084 
Q 1697 3084 1428 2787 
Q 1159 2491 1159 1978 
L 1159 0 
L 581 0 
L 581 3500 
L 1159 3500 
L 1159 2956 
Q 1366 3272 1645 3428 
Q 1925 3584 2291 3584 
Q 2894 3584 3203 3211 
Q 3513 2838 3513 2113 
z
" transform="scale(0.015625)"/>
      <path id="DejaVuSans-3a" d="M 750 794 
L 1409 794 
L 1409 0 
L 750 0 
L 750 794 
z
M 750 3309 
L 1409 3309 
L 1409 2516 
L 750 2516 
L 750 3309 
z
" transform="scale(0.015625)"/>
     </defs>
     <use xlink:href="#DejaVuSans-42"/>
     <use xlink:href="#DejaVuSans-6c" transform="translate(68.603516 0)"/>
     <use xlink:href="#DejaVuSans-6f" transform="translate(96.386719 0)"/>
     <use xlink:href="#DejaVuSans-63" transform="translate(157.568359 0)"/>
     <use xlink:href="#DejaVuSans-6b" transform="translate(212.548828 0)"/>
     <use xlink:href="#DejaVuSans-20" transform="translate(270.458984 0)"/>
     <use xlink:href="#DejaVuSans-53" transform="translate(302.246094 0)"/>
     <use xlink:href="#DejaVuSans-69" transform="translate(365.722656 0)"/>
     <use xlink:href="#DejaVuSans-7a" transform="translate(393.505859 0)"/>
     <use xlink:href="#DejaVuSans-65" transform="translate(445.996094 0)"/>
     <use xlink:href="#DejaVuSans-20" transform="translate(507.519531 0)"/>
     <use xlink:href="#DejaVuSans-3d" transform="translate(539.306641 0)"/>
     <use xlink:href="#DejaVuSans-20" transform="translate(623.095703 0)"/>
     <use xlink:href="#DejaVuSans-31" transform="translate(654.882812 0)"/>
     <use xlink:href="#DejaVuSans-4d" transform="translate(718.505859 0)"/>
     <use xlink:href="#DejaVuSans-2c" transform="translate(804.785156 0)"/>
     <use xlink:href="#DejaVuSans-20" transform="translate(836.572266 0)"/>
     <use xlink:href="#DejaVuSans-52" transform="translate(868.359375 0)"/>
     <use xlink:href="#DejaVuSans-65" transform="translate(933.341797 0)"/>
     <use xlink:href="#DejaVuSans-61" transform="translate(994.865234 0)"/>
     <use xlink:href="#DejaVuSans-64" transform="translate(1056.144531 0)"/>
     <use xlink:href="#DejaVuSans-2d" transform="translate(1119.621094 0)"/>
     <use xlink:href="#DejaVuSans-57" transform="translate(1151.705078 0)"/>
     <use xlink:href="#DejaVuSans-72" transform="translate(1246.082031 0)"/>
     <use xlink:href="#DejaVuSans-69" transform="translate(1287.195312 0)"/>
     <use xlink:href="#DejaVuSans-74" transform="translate(1314.978516 0)"/>
     <use xlink:href="#DejaVuSans-65" transform="translate(1354.1875 0)"/>
     <use xlink:href="#DejaVuSans-20" transform="translate(1415.710938 0)"/>
     <use xlink:href="#DejaVuSans-54" transform="translate(1447.498047 0)"/>
     <use xlink:href="#DejaVuSans-79" transform="translate(1492.957031 0)"/>
     <use xlink:href="#DejaVuSans-70" transform="translate(1552.136719 0)"/>
     <use xlink:href="#DejaVuSans-65" transform="translate(1615.613281 0)"/>
     <use xlink:href="#DejaVuSans-20" transform="translate(1677.136719 0)"/>
     <use xlink:href="#DejaVuSans-3d" transform="translate(1708.923828 0)"/>
     <use xlink:href="#DejaVuSans-20" transform="translate(1792.712891 0)"/>
     <use xlink:href="#DejaVuSans-53" transform="translate(1824.5 0)"/>
     <use xlink:href="#DejaVuSans-65" transform="translate(1887.976562 0)"/>
     <use xlink:href="#DejaVuSans-71" transform="translate(1949.5 0)"/>
     <use xlink:href="#DejaVuSans-75" transform="translate(2012.976562 0)"/>
     <use xlink:href="#DejaVuSans-65" transform="translate(2076.355469 0)"/>
     <use xlink:href="#DejaVuSans-6e" transform="translate(2137.878906 0)"/>
     <use xlink:href="#DejaVuSans-74" transform="translate(2201.257812 0)"/>
     <use xlink:href="#DejaVuSans-69" transform="translate(2240.466797 0)"/>
     <use xlink:href="#DejaVuSans-61" transform="translate(2268.25 0)"/>
     <use xlink:href="#DejaVuSans-6c" transform="translate(2329.529297 0)"/>
     <use xlink:href="#DejaVuSans-20" transform="translate(2357.3125 0)"/>
     <use xlink:href="#DejaVuSans-42" transform="translate(2389.099609 0)"/>
     <use xlink:href="#DejaVuSans-61" transform="translate(2457.703125 0)"/>
     <use xlink:href="#DejaVuSans-6c" transform="translate(2518.982422 0)"/>
     <use xlink:href="#DejaVuSans-61" transform="translate(2546.765625 0)"/>
     <use xlink:href="#DejaVuSans-6e" transform="translate(2608.044922 0)"/>
     <use xlink:href="#DejaVuSans-63" transform="translate(2671.423828 0)"/>
     <use xlink:href="#DejaVuSans-65" transform="translate(2726.404297 0)"/>
     <use xlink:href="#DejaVuSans-64" transform="translate(2787.927734 0)"/>
     <use xlink:href="#DejaVuSans-20" transform="translate(2851.404297 0)"/>
     <use xlink:href="#DejaVuSans-31" transform="translate(2883.191406 0)"/>
     <use xlink:href="#DejaVuSans-3a" transform="translate(2946.814453 0)"/>
     <use xlink:href="#DejaVuSans-31" transform="translate(2980.505859 0)"/>
    </g>
   </g>
   <g id="text_20">
    <!-- IOPS vs Number of Jobs -->
    <g style="fill: #262626" transform="translate(152.179062 16.318125) scale(0.12 -0.12)">
     <defs>
      <path id="DejaVuSans-Bold-49" d="M 588 4666 
L 1791 4666 
L 1791 0 
L 588 0 
L 588 4666 
z
" transform="scale(0.015625)"/>
      <path id="DejaVuSans-Bold-4f" d="M 2719 3878 
Q 2169 3878 1866 3472 
Q 1563 3066 1563 2328 
Q 1563 1594 1866 1187 
Q 2169 781 2719 781 
Q 3272 781 3575 1187 
Q 3878 1594 3878 2328 
Q 3878 3066 3575 3472 
Q 3272 3878 2719 3878 
z
M 2719 4750 
Q 3844 4750 4481 4106 
Q 5119 3463 5119 2328 
Q 5119 1197 4481 553 
Q 3844 -91 2719 -91 
Q 1597 -91 958 553 
Q 319 1197 319 2328 
Q 319 3463 958 4106 
Q 1597 4750 2719 4750 
z
" transform="scale(0.015625)"/>
      <path id="DejaVuSans-Bold-50" d="M 588 4666 
L 2584 4666 
Q 3475 4666 3951 4270 
Q 4428 3875 4428 3144 
Q 4428 2409 3951 2014 
Q 3475 1619 2584 1619 
L 1791 1619 
L 1791 0 
L 588 0 
L 588 4666 
z
M 1791 3794 
L 1791 2491 
L 2456 2491 
Q 2806 2491 2997 2661 
Q 3188 2831 3188 3144 
Q 3188 3456 2997 3625 
Q 2806 3794 2456 3794 
L 1791 3794 
z
" transform="scale(0.015625)"/>
      <path id="DejaVuSans-Bold-53" d="M 3834 4519 
L 3834 3531 
Q 3450 3703 3084 3790 
Q 2719 3878 2394 3878 
Q 1963 3878 1756 3759 
Q 1550 3641 1550 3391 
Q 1550 3203 1689 3098 
Q 1828 2994 2194 2919 
L 2706 2816 
Q 3484 2659 3812 2340 
Q 4141 2022 4141 1434 
Q 4141 663 3683 286 
Q 3225 -91 2284 -91 
Q 1841 -91 1394 -6 
Q 947 78 500 244 
L 500 1259 
Q 947 1022 1364 901 
Q 1781 781 2169 781 
Q 2563 781 2772 912 
Q 2981 1044 2981 1288 
Q 2981 1506 2839 1625 
Q 2697 1744 2272 1838 
L 1806 1941 
Q 1106 2091 782 2419 
Q 459 2747 459 3303 
Q 459 4000 909 4375 
Q 1359 4750 2203 4750 
Q 2588 4750 2994 4692 
Q 3400 4634 3834 4519 
z
" transform="scale(0.015625)"/>
      <path id="DejaVuSans-Bold-20" transform="scale(0.015625)"/>
      <path id="DejaVuSans-Bold-76" d="M 97 3500 
L 1216 3500 
L 2088 1081 
L 2956 3500 
L 4078 3500 
L 2700 0 
L 1472 0 
L 97 3500 
z
" transform="scale(0.015625)"/>
      <path id="DejaVuSans-Bold-73" d="M 3272 3391 
L 3272 2541 
Q 2913 2691 2578 2766 
Q 2244 2841 1947 2841 
Q 1628 2841 1473 2761 
Q 1319 2681 1319 2516 
Q 1319 2381 1436 2309 
Q 1553 2238 1856 2203 
L 2053 2175 
Q 2913 2066 3209 1816 
Q 3506 1566 3506 1031 
Q 3506 472 3093 190 
Q 2681 -91 1863 -91 
Q 1516 -91 1145 -36 
Q 775 19 384 128 
L 384 978 
Q 719 816 1070 734 
Q 1422 653 1784 653 
Q 2113 653 2278 743 
Q 2444 834 2444 1013 
Q 2444 1163 2330 1236 
Q 2216 1309 1875 1350 
L 1678 1375 
Q 931 1469 631 1722 
Q 331 1975 331 2491 
Q 331 3047 712 3315 
Q 1094 3584 1881 3584 
Q 2191 3584 2531 3537 
Q 2872 3491 3272 3391 
z
" transform="scale(0.015625)"/>
      <path id="DejaVuSans-Bold-4e" d="M 588 4666 
L 1931 4666 
L 3628 1466 
L 3628 4666 
L 4769 4666 
L 4769 0 
L 3425 0 
L 1728 3200 
L 1728 0 
L 588 0 
L 588 4666 
z
" transform="scale(0.015625)"/>
      <path id="DejaVuSans-Bold-75" d="M 500 1363 
L 500 3500 
L 1625 3500 
L 1625 3150 
Q 1625 2866 1622 2436 
Q 1619 2006 1619 1863 
Q 1619 1441 1641 1255 
Q 1663 1069 1716 984 
Q 1784 875 1895 815 
Q 2006 756 2150 756 
Q 2500 756 2700 1025 
Q 2900 1294 2900 1772 
L 2900 3500 
L 4019 3500 
L 4019 0 
L 2900 0 
L 2900 506 
Q 2647 200 2364 54 
Q 2081 -91 1741 -91 
Q 1134 -91 817 281 
Q 500 653 500 1363 
z
" transform="scale(0.015625)"/>
      <path id="DejaVuSans-Bold-6d" d="M 3781 2919 
Q 3994 3244 4286 3414 
Q 4578 3584 4928 3584 
Q 5531 3584 5847 3212 
Q 6163 2841 6163 2131 
L 6163 0 
L 5038 0 
L 5038 1825 
Q 5041 1866 5042 1909 
Q 5044 1953 5044 2034 
Q 5044 2406 4934 2573 
Q 4825 2741 4581 2741 
Q 4263 2741 4089 2478 
Q 3916 2216 3909 1719 
L 3909 0 
L 2784 0 
L 2784 1825 
Q 2784 2406 2684 2573 
Q 2584 2741 2328 2741 
Q 2006 2741 1831 2477 
Q 1656 2213 1656 1722 
L 1656 0 
L 531 0 
L 531 3500 
L 1656 3500 
L 1656 2988 
Q 1863 3284 2130 3434 
Q 2397 3584 2719 3584 
Q 3081 3584 3359 3409 
Q 3638 3234 3781 2919 
z
" transform="scale(0.015625)"/>
      <path id="DejaVuSans-Bold-62" d="M 2400 722 
Q 2759 722 2948 984 
Q 3138 1247 3138 1747 
Q 3138 2247 2948 2509 
Q 2759 2772 2400 2772 
Q 2041 2772 1848 2508 
Q 1656 2244 1656 1747 
Q 1656 1250 1848 986 
Q 2041 722 2400 722 
z
M 1656 2988 
Q 1888 3294 2169 3439 
Q 2450 3584 2816 3584 
Q 3463 3584 3878 3070 
Q 4294 2556 4294 1747 
Q 4294 938 3878 423 
Q 3463 -91 2816 -91 
Q 2450 -91 2169 54 
Q 1888 200 1656 506 
L 1656 0 
L 538 0 
L 538 4863 
L 1656 4863 
L 1656 2988 
z
" transform="scale(0.015625)"/>
      <path id="DejaVuSans-Bold-65" d="M 4031 1759 
L 4031 1441 
L 1416 1441 
Q 1456 1047 1700 850 
Q 1944 653 2381 653 
Q 2734 653 3104 758 
Q 3475 863 3866 1075 
L 3866 213 
Q 3469 63 3072 -14 
Q 2675 -91 2278 -91 
Q 1328 -91 801 392 
Q 275 875 275 1747 
Q 275 2603 792 3093 
Q 1309 3584 2216 3584 
Q 3041 3584 3536 3087 
Q 4031 2591 4031 1759 
z
M 2881 2131 
Q 2881 2450 2695 2645 
Q 2509 2841 2209 2841 
Q 1884 2841 1681 2658 
Q 1478 2475 1428 2131 
L 2881 2131 
z
" transform="scale(0.015625)"/>
      <path id="DejaVuSans-Bold-72" d="M 3138 2547 
Q 2991 2616 2845 2648 
Q 2700 2681 2553 2681 
Q 2122 2681 1889 2404 
Q 1656 2128 1656 1613 
L 1656 0 
L 538 0 
L 538 3500 
L 1656 3500 
L 1656 2925 
Q 1872 3269 2151 3426 
Q 2431 3584 2822 3584 
Q 2878 3584 2943 3579 
Q 3009 3575 3134 3559 
L 3138 2547 
z
" transform="scale(0.015625)"/>
      <path id="DejaVuSans-Bold-6f" d="M 2203 2784 
Q 1831 2784 1636 2517 
Q 1441 2250 1441 1747 
Q 1441 1244 1636 976 
Q 1831 709 2203 709 
Q 2569 709 2762 976 
Q 2956 1244 2956 1747 
Q 2956 2250 2762 2517 
Q 2569 2784 2203 2784 
z
M 2203 3584 
Q 3106 3584 3614 3096 
Q 4122 2609 4122 1747 
Q 4122 884 3614 396 
Q 3106 -91 2203 -91 
Q 1297 -91 786 396 
Q 275 884 275 1747 
Q 275 2609 786 3096 
Q 1297 3584 2203 3584 
z
" transform="scale(0.015625)"/>
      <path id="DejaVuSans-Bold-66" d="M 2841 4863 
L 2841 4128 
L 2222 4128 
Q 1984 4128 1890 4042 
Q 1797 3956 1797 3744 
L 1797 3500 
L 2753 3500 
L 2753 2700 
L 1797 2700 
L 1797 0 
L 678 0 
L 678 2700 
L 122 2700 
L 122 3500 
L 678 3500 
L 678 3744 
Q 678 4316 997 4589 
Q 1316 4863 1984 4863 
L 2841 4863 
z
" transform="scale(0.015625)"/>
      <path id="DejaVuSans-Bold-4a" d="M 588 4666 
L 1791 4666 
L 1791 453 
Q 1791 -419 1317 -850 
Q 844 -1281 -116 -1281 
L -359 -1281 
L -359 -372 
L -172 -372 
Q 203 -372 395 -162 
Q 588 47 588 453 
L 588 4666 
z
" transform="scale(0.015625)"/>
     </defs>
     <use xlink:href="#DejaVuSans-Bold-49"/>
     <use xlink:href="#DejaVuSans-Bold-4f" transform="translate(37.207031 0)"/>
     <use xlink:href="#DejaVuSans-Bold-50" transform="translate(122.216797 0)"/>
     <use xlink:href="#DejaVuSans-Bold-53" transform="translate(195.507812 0)"/>
     <use xlink:href="#DejaVuSans-Bold-20" transform="translate(267.529297 0)"/>
     <use xlink:href="#DejaVuSans-Bold-76" transform="translate(302.34375 0)"/>
     <use xlink:href="#DejaVuSans-Bold-73" transform="translate(367.529297 0)"/>
     <use xlink:href="#DejaVuSans-Bold-20" transform="translate(427.050781 0)"/>
     <use xlink:href="#DejaVuSans-Bold-4e" transform="translate(461.865234 0)"/>
     <use xlink:href="#DejaVuSans-Bold-75" transform="translate(545.556641 0)"/>
     <use xlink:href="#DejaVuSans-Bold-6d" transform="translate(616.748047 0)"/>
     <use xlink:href="#DejaVuSans-Bold-62" transform="translate(720.947266 0)"/>
     <use xlink:href="#DejaVuSans-Bold-65" transform="translate(792.529297 0)"/>
     <use xlink:href="#DejaVuSans-Bold-72" transform="translate(860.351562 0)"/>
     <use xlink:href="#DejaVuSans-Bold-20" transform="translate(909.667969 0)"/>
     <use xlink:href="#DejaVuSans-Bold-6f" transform="translate(944.482422 0)"/>
     <use xlink:href="#DejaVuSans-Bold-66" transform="translate(1013.183594 0)"/>
     <use xlink:href="#DejaVuSans-Bold-20" transform="translate(1056.689453 0)"/>
     <use xlink:href="#DejaVuSans-Bold-4a" transform="translate(1091.503906 0)"/>
     <use xlink:href="#DejaVuSans-Bold-6f" transform="translate(1128.710938 0)"/>
     <use xlink:href="#DejaVuSans-Bold-62" transform="translate(1197.412109 0)"/>
     <use xlink:href="#DejaVuSans-Bold-73" transform="translate(1268.994141 0)"/>
    </g>
   </g>
   <g id="legend_1">
    <g id="text_21">
     <!-- IO Depth -->
     <g style="fill: #262626" transform="translate(444.954687 120.065663) scale(0.1 -0.1)">
      <defs>
       <path id="DejaVuSans-44" d="M 1259 4147 
L 1259 519 
L 2022 519 
Q 2988 519 3436 956 
Q 3884 1394 3884 2338 
Q 3884 3275 3436 3711 
Q 2988 4147 2022 4147 
L 1259 4147 
z
M 628 4666 
L 1925 4666 
Q 3281 4666 3915 4102 
Q 4550 3538 4550 2338 
Q 4550 1131 3912 565 
Q 3275 0 1925 0 
L 628 0 
L 628 4666 
z
" transform="scale(0.015625)"/>
       <path id="DejaVuSans-68" d="M 3513 2113 
L 3513 0 
L 2938 0 
L 2938 2094 
Q 2938 2591 2744 2837 
Q 2550 3084 2163 3084 
Q 1697 3084 1428 2787 
Q 1159 2491 1159 1978 
L 1159 0 
L 581 0 
L 581 4863 
L 1159 4863 
L 1159 2956 
Q 1366 3272 1645 3428 
Q 1925 3584 2291 3584 
Q 2894 3584 3203 3211 
Q 3513 2838 3513 2113 
z
" transform="scale(0.015625)"/>
      </defs>
      <use xlink:href="#DejaVuSans-49"/>
      <use xlink:href="#DejaVuSans-4f" transform="translate(29.492188 0)"/>
      <use xlink:href="#DejaVuSans-20" transform="translate(108.203125 0)"/>
      <use xlink:href="#DejaVuSans-44" transform="translate(139.990234 0)"/>
      <use xlink:href="#DejaVuSans-65" transform="translate(216.992188 0)"/>
      <use xlink:href="#DejaVuSans-70" transform="translate(278.515625 0)"/>
      <use xlink:href="#DejaVuSans-74" transform="translate(341.992188 0)"/>
      <use xlink:href="#DejaVuSans-68" transform="translate(381.201172 0)"/>
     </g>
    </g>
    <g id="line2d_24">
     <path d="M 443.640625 131.243787 
L 453.640625 131.243787 
L 463.640625 131.243787 
" style="fill: none; stroke: #4c02a1; stroke-width: 1.5; stroke-linecap: round"/>
    </g>
    <g id="text_22">
     <!-- 1 -->
     <g style="fill: #262626" transform="translate(471.640625 134.743787) scale(0.1 -0.1)">
      <use xlink:href="#DejaVuSans-31"/>
     </g>
    </g>
    <g id="line2d_25">
     <path d="M 443.640625 145.921913 
L 453.640625 145.921913 
L 463.640625 145.921913 
" style="fill: none; stroke: #7e03a8; stroke-width: 1.5; stroke-linecap: round"/>
    </g>
    <g id="text_23">
     <!-- 4 -->
     <g style="fill: #262626" transform="translate(471.640625 149.421913) scale(0.1 -0.1)">
      <use xlink:href="#DejaVuSans-34"/>
     </g>
    </g>
    <g id="line2d_26">
     <path d="M 443.640625 160.600037 
L 453.640625 160.600037 
L 463.640625 160.600037 
" style="fill: none; stroke: #aa2395; stroke-width: 1.5; stroke-linecap: round"/>
    </g>
    <g id="text_24">
     <!-- 8 -->
     <g style="fill: #262626" transform="translate(471.640625 164.100037) scale(0.1 -0.1)">
      <use xlink:href="#DejaVuSans-38"/>
     </g>
    </g>
    <g id="line2d_27">
     <path d="M 443.640625 175.278163 
L 453.640625 175.278163 
L 463.640625 175.278163 
" style="fill: none; stroke: #cc4778; stroke-width: 1.5; stroke-linecap: round"/>
    </g>
    <g id="text_25">
     <!-- 16 -->
     <g style="fill: #262626" transform="translate(471.640625 178.778163) scale(0.1 -0.1)">
      <use xlink:href="#DejaVuSans-31"/>
      <use xlink:href="#DejaVuSans-36" transform="translate(63.623047 0)"/>
     </g>
    </g>
    <g id="line2d_28">
     <path d="M 443.640625 189.956288 
L 453.640625 189.956288 
L 463.640625 189.956288 
" style="fill: none; stroke: #e66c5c; stroke-width: 1.5; stroke-linecap: round"/>
    </g>
    <g id="text_26">
     <!-- 32 -->
     <g style="fill: #262626" transform="translate(471.640625 193.456288) scale(0.1 -0.1)">
      <use xlink:href="#DejaVuSans-33"/>
      <use xlink:href="#DejaVuSans-32" transform="translate(63.623047 0)"/>
     </g>
    </g>
    <g id="line2d_29">
     <path d="M 443.640625 204.634412 
L 453.640625 204.634412 
L 463.640625 204.634412 
" style="fill: none; stroke: #f89540; stroke-width: 1.5; stroke-linecap: round"/>
    </g>
    <g id="text_27">
     <!-- 64 -->
     <g style="fill: #262626" transform="translate(471.640625 208.134412) scale(0.1 -0.1)">
      <use xlink:href="#DejaVuSans-36"/>
      <use xlink:href="#DejaVuSans-34" transform="translate(63.623047 0)"/>
     </g>
    </g>
    <g id="line2d_30">
     <path d="M 443.640625 219.312537 
L 453.640625 219.312537 
L 463.640625 219.312537 
" style="fill: none; stroke: #fdc527; stroke-width: 1.5; stroke-linecap: round"/>
    </g>
    <g id="text_28">
     <!-- 128 -->
     <g style="fill: #262626" transform="translate(471.640625 222.812537) scale(0.1 -0.1)">
      <use xlink:href="#DejaVuSans-31"/>
      <use xlink:href="#DejaVuSans-32" transform="translate(63.623047 0)"/>
      <use xlink:href="#DejaVuSans-38" transform="translate(127.246094 0)"/>
     </g>
    </g>
   </g>
  </g>
 </g>
 <defs>
  <clipPath id="pef19c7a5a8">
   <rect x="53.328125" y="35.623725" width="357.12" height="266.112"/>
  </clipPath>
 </defs>
</svg>
