<?xml version="1.0" encoding="utf-8" standalone="no"?>
<!DOCTYPE svg PUBLIC "-//W3C//DTD SVG 1.1//EN"
  "http://www.w3.org/Graphics/SVG/1.1/DTD/svg11.dtd">
<svg xmlns:xlink="http://www.w3.org/1999/xlink" width="508.290625pt" height="339.291975pt" viewBox="0 0 508.290625 339.291975" xmlns="http://www.w3.org/2000/svg" version="1.1">
 <metadata>
  <rdf:RDF xmlns:dc="http://purl.org/dc/elements/1.1/" xmlns:cc="http://creativecommons.org/ns#" xmlns:rdf="http://www.w3.org/1999/02/22-rdf-syntax-ns#">
   <cc:Work>
    <dc:type rdf:resource="http://purl.org/dc/dcmitype/StillImage"/>
    <dc:date>2025-10-10T09:36:20.128010</dc:date>
    <dc:format>image/svg+xml</dc:format>
    <dc:creator>
     <cc:Agent>
      <dc:title>Matplotlib v3.10.6, https://matplotlib.org/</dc:title>
     </cc:Agent>
    </dc:creator>
   </cc:Work>
  </rdf:RDF>
 </metadata>
 <defs>
  <style type="text/css">*{stroke-linejoin: round; stroke-linecap: butt}</style>
 </defs>
 <g id="figure_1">
  <g id="patch_1">
   <path d="M 0 339.291975 
L 508.290625 339.291975 
L 508.290625 0 
L 0 0 
z
" style="fill: #ffffff"/>
  </g>
  <g id="axes_1">
   <g id="patch_2">
    <path d="M 59.690625 301.735725 
L 416.810625 301.735725 
L 416.810625 35.623725 
L 59.690625 35.623725 
z
" style="fill: #ffffff"/>
   </g>
   <g id="matplotlib.axis_1">
    <g id="xtick_1">
     <g id="line2d_1">
      <path d="M 122.302573 301.735725 
L 122.302573 35.623725 
" clip-path="url(#p7782a7cd12)" style="fill: none; stroke: #cccccc; stroke-width: 0.8; stroke-linecap: round"/>
     </g>
     <g id="text_1">
      <!-- 32 -->
      <g style="fill: #262626" transform="translate(115.940073 316.334162) scale(0.1 -0.1)">
       <defs>
        <path id="DejaVuSans-33" d="M 2597 2516 
Q 3050 2419 3304 2112 
Q 3559 1806 3559 1356 
Q 3559 666 3084 287 
Q 2609 -91 1734 -91 
Q 1441 -91 1130 -33 
Q 819 25 488 141 
L 488 750 
Q 750 597 1062 519 
Q 1375 441 1716 441 
Q 2309 441 2620 675 
Q 2931 909 2931 1356 
Q 2931 1769 2642 2001 
Q 2353 2234 1838 2234 
L 1294 2234 
L 1294 2753 
L 1863 2753 
Q 2328 2753 2575 2939 
Q 2822 3125 2822 3475 
Q 2822 3834 2567 4026 
Q 2313 4219 1838 4219 
Q 1578 4219 1281 4162 
Q 984 4106 628 3988 
L 628 4550 
Q 988 4650 1302 4700 
Q 1616 4750 1894 4750 
Q 2613 4750 3031 4423 
Q 3450 4097 3450 3541 
Q 3450 3153 3228 2886 
Q 3006 2619 2597 2516 
z
" transform="scale(0.015625)"/>
        <path id="DejaVuSans-32" d="M 1228 531 
L 3431 531 
L 3431 0 
L 469 0 
L 469 531 
Q 828 903 1448 1529 
Q 2069 2156 2228 2338 
Q 2531 2678 2651 2914 
Q 2772 3150 2772 3378 
Q 2772 3750 2511 3984 
Q 2250 4219 1831 4219 
Q 1534 4219 1204 4116 
Q 875 4013 500 3803 
L 500 4441 
Q 881 4594 1212 4672 
Q 1544 4750 1819 4750 
Q 2544 4750 2975 4387 
Q 3406 4025 3406 3419 
Q 3406 3131 3298 2873 
Q 3191 2616 2906 2266 
Q 2828 2175 2409 1742 
Q 1991 1309 1228 531 
z
" transform="scale(0.015625)"/>
       </defs>
       <use xlink:href="#DejaVuSans-33"/>
       <use xlink:href="#DejaVuSans-32" transform="translate(63.623047 0)"/>
      </g>
     </g>
    </g>
    <g id="xtick_2">
     <g id="line2d_2">
      <path d="M 75.923352 301.735725 
L 75.923352 35.623725 
" clip-path="url(#p7782a7cd12)" style="fill: none; stroke: #cccccc; stroke-width: 0.8; stroke-linecap: round"/>
     </g>
     <g id="text_2">
      <!-- 16 -->
      <g style="fill: #262626" transform="translate(69.560852 316.334162) scale(0.1 -0.1)">
       <defs>
        <path id="DejaVuSans-31" d="M 794 531 
L 1825 531 
L 1825 4091 
L 703 3866 
L 703 4441 
L 1819 4666 
L 2450 4666 
L 2450 531 
L 3481 531 
L 3481 0 
L 794 0 
L 794 531 
z
" transform="scale(0.015625)"/>
        <path id="DejaVuSans-36" d="M 2113 2584 
Q 1688 2584 1439 2293 
Q 1191 2003 1191 1497 
Q 1191 994 1439 701 
Q 1688 409 2113 409 
Q 2538 409 2786 701 
Q 3034 994 3034 1497 
Q 3034 2003 2786 2293 
Q 2538 2584 2113 2584 
z
M 3366 4563 
L 3366 3988 
Q 3128 4100 2886 4159 
Q 2644 4219 2406 4219 
Q 1781 4219 1451 3797 
Q 1122 3375 1075 2522 
Q 1259 2794 1537 2939 
Q 1816 3084 2150 3084 
Q 2853 3084 3261 2657 
Q 3669 2231 3669 1497 
Q 3669 778 3244 343 
Q 2819 -91 2113 -91 
Q 1303 -91 875 529 
Q 447 1150 447 2328 
Q 447 3434 972 4092 
Q 1497 4750 2381 4750 
Q 2619 4750 2861 4703 
Q 3103 4656 3366 4563 
z
" transform="scale(0.015625)"/>
       </defs>
       <use xlink:href="#DejaVuSans-31"/>
       <use xlink:href="#DejaVuSans-36" transform="translate(63.623047 0)"/>
      </g>
     </g>
    </g>
    <g id="xtick_3">
     <g id="line2d_3">
      <path d="M 400.577898 301.735725 
L 400.577898 35.623725 
" clip-path="url(#p7782a7cd12)" style="fill: none; stroke: #cccccc; stroke-width: 0.8; stroke-linecap: round"/>
     </g>
     <g id="text_3">
      <!-- 128 -->
      <g style="fill: #262626" transform="translate(391.034148 316.334162) scale(0.1 -0.1)">
       <defs>
        <path id="DejaVuSans-38" d="M 2034 2216 
Q 1584 2216 1326 1975 
Q 1069 1734 1069 1313 
Q 1069 891 1326 650 
Q 1584 409 2034 409 
Q 2484 409 2743 651 
Q 3003 894 3003 1313 
Q 3003 1734 2745 1975 
Q 2488 2216 2034 2216 
z
M 1403 2484 
Q 997 2584 770 2862 
Q 544 3141 544 3541 
Q 544 4100 942 4425 
Q 1341 4750 2034 4750 
Q 2731 4750 3128 4425 
Q 3525 4100 3525 3541 
Q 3525 3141 3298 2862 
Q 3072 2584 2669 2484 
Q 3125 2378 3379 2068 
Q 3634 1759 3634 1313 
Q 3634 634 3220 271 
Q 2806 -91 2034 -91 
Q 1263 -91 848 271 
Q 434 634 434 1313 
Q 434 1759 690 2068 
Q 947 2378 1403 2484 
z
M 1172 3481 
Q 1172 3119 1398 2916 
Q 1625 2713 2034 2713 
Q 2441 2713 2670 2916 
Q 2900 3119 2900 3481 
Q 2900 3844 2670 4047 
Q 2441 4250 2034 4250 
Q 1625 4250 1398 4047 
Q 1172 3844 1172 3481 
z
" transform="scale(0.015625)"/>
       </defs>
       <use xlink:href="#DejaVuSans-31"/>
       <use xlink:href="#DejaVuSans-32" transform="translate(63.623047 0)"/>
       <use xlink:href="#DejaVuSans-38" transform="translate(127.246094 0)"/>
      </g>
     </g>
    </g>
    <g id="xtick_4">
     <g id="line2d_4">
      <path d="M 215.061015 301.735725 
L 215.061015 35.623725 
" clip-path="url(#p7782a7cd12)" style="fill: none; stroke: #cccccc; stroke-width: 0.8; stroke-linecap: round"/>
     </g>
     <g id="text_4">
      <!-- 64 -->
      <g style="fill: #262626" transform="translate(208.698515 316.334162) scale(0.1 -0.1)">
       <defs>
        <path id="DejaVuSans-34" d="M 2419 4116 
L 825 1625 
L 2419 1625 
L 2419 4116 
z
M 2253 4666 
L 3047 4666 
L 3047 1625 
L 3713 1625 
L 3713 1100 
L 3047 1100 
L 3047 0 
L 2419 0 
L 2419 1100 
L 313 1100 
L 313 1709 
L 2253 4666 
z
" transform="scale(0.015625)"/>
       </defs>
       <use xlink:href="#DejaVuSans-36"/>
       <use xlink:href="#DejaVuSans-34" transform="translate(63.623047 0)"/>
      </g>
     </g>
    </g>
    <g id="text_5">
     <!-- Number of Jobs -->
     <g style="fill: #262626" transform="translate(199.85375 330.012287) scale(0.1 -0.1)">
      <defs>
       <path id="DejaVuSans-4e" d="M 628 4666 
L 1478 4666 
L 3547 763 
L 3547 4666 
L 4159 4666 
L 4159 0 
L 3309 0 
L 1241 3903 
L 1241 0 
L 628 0 
L 628 4666 
z
" transform="scale(0.015625)"/>
       <path id="DejaVuSans-75" d="M 544 1381 
L 544 3500 
L 1119 3500 
L 1119 1403 
Q 1119 906 1312 657 
Q 1506 409 1894 409 
Q 2359 409 2629 706 
Q 2900 1003 2900 1516 
L 2900 3500 
L 3475 3500 
L 3475 0 
L 2900 0 
L 2900 538 
Q 2691 219 2414 64 
Q 2138 -91 1772 -91 
Q 1169 -91 856 284 
Q 544 659 544 1381 
z
M 1991 3584 
L 1991 3584 
z
" transform="scale(0.015625)"/>
       <path id="DejaVuSans-6d" d="M 3328 2828 
Q 3544 3216 3844 3400 
Q 4144 3584 4550 3584 
Q 5097 3584 5394 3201 
Q 5691 2819 5691 2113 
L 5691 0 
L 5113 0 
L 5113 2094 
Q 5113 2597 4934 2840 
Q 4756 3084 4391 3084 
Q 3944 3084 3684 2787 
Q 3425 2491 3425 1978 
L 3425 0 
L 2847 0 
L 2847 2094 
Q 2847 2600 2669 2842 
Q 2491 3084 2119 3084 
Q 1678 3084 1418 2786 
Q 1159 2488 1159 1978 
L 1159 0 
L 581 0 
L 581 3500 
L 1159 3500 
L 1159 2956 
Q 1356 3278 1631 3431 
Q 1906 3584 2284 3584 
Q 2666 3584 2933 3390 
Q 3200 3197 3328 2828 
z
" transform="scale(0.015625)"/>
       <path id="DejaVuSans-62" d="M 3116 1747 
Q 3116 2381 2855 2742 
Q 2594 3103 2138 3103 
Q 1681 3103 1420 2742 
Q 1159 2381 1159 1747 
Q 1159 1113 1420 752 
Q 1681 391 2138 391 
Q 2594 391 2855 752 
Q 3116 1113 3116 1747 
z
M 1159 2969 
Q 1341 3281 1617 3432 
Q 1894 3584 2278 3584 
Q 2916 3584 3314 3078 
Q 3713 2572 3713 1747 
Q 3713 922 3314 415 
Q 2916 -91 2278 -91 
Q 1894 -91 1617 61 
Q 1341 213 1159 525 
L 1159 0 
L 581 0 
L 581 4863 
L 1159 4863 
L 1159 2969 
z
" transform="scale(0.015625)"/>
       <path id="DejaVuSans-65" d="M 3597 1894 
L 3597 1613 
L 953 1613 
Q 991 1019 1311 708 
Q 1631 397 2203 397 
Q 2534 397 2845 478 
Q 3156 559 3463 722 
L 3463 178 
Q 3153 47 2828 -22 
Q 2503 -91 2169 -91 
Q 1331 -91 842 396 
Q 353 884 353 1716 
Q 353 2575 817 3079 
Q 1281 3584 2069 3584 
Q 2775 3584 3186 3129 
Q 3597 2675 3597 1894 
z
M 3022 2063 
Q 3016 2534 2758 2815 
Q 2500 3097 2075 3097 
Q 1594 3097 1305 2825 
Q 1016 2553 972 2059 
L 3022 2063 
z
" transform="scale(0.015625)"/>
       <path id="DejaVuSans-72" d="M 2631 2963 
Q 2534 3019 2420 3045 
Q 2306 3072 2169 3072 
Q 1681 3072 1420 2755 
Q 1159 2438 1159 1844 
L 1159 0 
L 581 0 
L 581 3500 
L 1159 3500 
L 1159 2956 
Q 1341 3275 1631 3429 
Q 1922 3584 2338 3584 
Q 2397 3584 2469 3576 
Q 2541 3569 2628 3553 
L 2631 2963 
z
" transform="scale(0.015625)"/>
       <path id="DejaVuSans-20" transform="scale(0.015625)"/>
       <path id="DejaVuSans-6f" d="M 1959 3097 
Q 1497 3097 1228 2736 
Q 959 2375 959 1747 
Q 959 1119 1226 758 
Q 1494 397 1959 397 
Q 2419 397 2687 759 
Q 2956 1122 2956 1747 
Q 2956 2369 2687 2733 
Q 2419 3097 1959 3097 
z
M 1959 3584 
Q 2709 3584 3137 3096 
Q 3566 2609 3566 1747 
Q 3566 888 3137 398 
Q 2709 -91 1959 -91 
Q 1206 -91 779 398 
Q 353 888 353 1747 
Q 353 2609 779 3096 
Q 1206 3584 1959 3584 
z
" transform="scale(0.015625)"/>
       <path id="DejaVuSans-66" d="M 2375 4863 
L 2375 4384 
L 1825 4384 
Q 1516 4384 1395 4259 
Q 1275 4134 1275 3809 
L 1275 3500 
L 2222 3500 
L 2222 3053 
L 1275 3053 
L 1275 0 
L 697 0 
L 697 3053 
L 147 3053 
L 147 3500 
L 697 3500 
L 697 3744 
Q 697 4328 969 4595 
Q 1241 4863 1831 4863 
L 2375 4863 
z
" transform="scale(0.015625)"/>
       <path id="DejaVuSans-4a" d="M 628 4666 
L 1259 4666 
L 1259 325 
Q 1259 -519 939 -900 
Q 619 -1281 -91 -1281 
L -331 -1281 
L -331 -750 
L -134 -750 
Q 284 -750 456 -515 
Q 628 -281 628 325 
L 628 4666 
z
" transform="scale(0.015625)"/>
       <path id="DejaVuSans-73" d="M 2834 3397 
L 2834 2853 
Q 2591 2978 2328 3040 
Q 2066 3103 1784 3103 
Q 1356 3103 1142 2972 
Q 928 2841 928 2578 
Q 928 2378 1081 2264 
Q 1234 2150 1697 2047 
L 1894 2003 
Q 2506 1872 2764 1633 
Q 3022 1394 3022 966 
Q 3022 478 2636 193 
Q 2250 -91 1575 -91 
Q 1294 -91 989 -36 
Q 684 19 347 128 
L 347 722 
Q 666 556 975 473 
Q 1284 391 1588 391 
Q 1994 391 2212 530 
Q 2431 669 2431 922 
Q 2431 1156 2273 1281 
Q 2116 1406 1581 1522 
L 1381 1569 
Q 847 1681 609 1914 
Q 372 2147 372 2553 
Q 372 3047 722 3315 
Q 1072 3584 1716 3584 
Q 2034 3584 2315 3537 
Q 2597 3491 2834 3397 
z
" transform="scale(0.015625)"/>
      </defs>
      <use xlink:href="#DejaVuSans-4e"/>
      <use xlink:href="#DejaVuSans-75" transform="translate(74.804688 0)"/>
      <use xlink:href="#DejaVuSans-6d" transform="translate(138.183594 0)"/>
      <use xlink:href="#DejaVuSans-62" transform="translate(235.595703 0)"/>
      <use xlink:href="#DejaVuSans-65" transform="translate(299.072266 0)"/>
      <use xlink:href="#DejaVuSans-72" transform="translate(360.595703 0)"/>
      <use xlink:href="#DejaVuSans-20" transform="translate(401.708984 0)"/>
      <use xlink:href="#DejaVuSans-6f" transform="translate(433.496094 0)"/>
      <use xlink:href="#DejaVuSans-66" transform="translate(494.677734 0)"/>
      <use xlink:href="#DejaVuSans-20" transform="translate(529.882812 0)"/>
      <use xlink:href="#DejaVuSans-4a" transform="translate(561.669922 0)"/>
      <use xlink:href="#DejaVuSans-6f" transform="translate(591.162109 0)"/>
      <use xlink:href="#DejaVuSans-62" transform="translate(652.34375 0)"/>
      <use xlink:href="#DejaVuSans-73" transform="translate(715.820312 0)"/>
     </g>
    </g>
   </g>
   <g id="matplotlib.axis_2">
    <g id="ytick_1">
     <g id="line2d_5">
      <path d="M 59.690625 284.979716 
L 416.810625 284.979716 
" clip-path="url(#p7782a7cd12)" style="fill: none; stroke: #cccccc; stroke-width: 0.8; stroke-linecap: round"/>
     </g>
     <g id="text_6">
      <!-- 8000 -->
      <g style="fill: #262626" transform="translate(27.240625 288.778935) scale(0.1 -0.1)">
       <defs>
        <path id="DejaVuSans-30" d="M 2034 4250 
Q 1547 4250 1301 3770 
Q 1056 3291 1056 2328 
Q 1056 1369 1301 889 
Q 1547 409 2034 409 
Q 2525 409 2770 889 
Q 3016 1369 3016 2328 
Q 3016 3291 2770 3770 
Q 2525 4250 2034 4250 
z
M 2034 4750 
Q 2819 4750 3233 4129 
Q 3647 3509 3647 2328 
Q 3647 1150 3233 529 
Q 2819 -91 2034 -91 
Q 1250 -91 836 529 
Q 422 1150 422 2328 
Q 422 3509 836 4129 
Q 1250 4750 2034 4750 
z
" transform="scale(0.015625)"/>
       </defs>
       <use xlink:href="#DejaVuSans-38"/>
       <use xlink:href="#DejaVuSans-30" transform="translate(63.623047 0)"/>
       <use xlink:href="#DejaVuSans-30" transform="translate(127.246094 0)"/>
       <use xlink:href="#DejaVuSans-30" transform="translate(190.869141 0)"/>
      </g>
     </g>
    </g>
    <g id="ytick_2">
     <g id="line2d_6">
      <path d="M 59.690625 248.573395 
L 416.810625 248.573395 
" clip-path="url(#p7782a7cd12)" style="fill: none; stroke: #cccccc; stroke-width: 0.8; stroke-linecap: round"/>
     </g>
     <g id="text_7">
      <!-- 9000 -->
      <g style="fill: #262626" transform="translate(27.240625 252.372614) scale(0.1 -0.1)">
       <defs>
        <path id="DejaVuSans-39" d="M 703 97 
L 703 672 
Q 941 559 1184 500 
Q 1428 441 1663 441 
Q 2288 441 2617 861 
Q 2947 1281 2994 2138 
Q 2813 1869 2534 1725 
Q 2256 1581 1919 1581 
Q 1219 1581 811 2004 
Q 403 2428 403 3163 
Q 403 3881 828 4315 
Q 1253 4750 1959 4750 
Q 2769 4750 3195 4129 
Q 3622 3509 3622 2328 
Q 3622 1225 3098 567 
Q 2575 -91 1691 -91 
Q 1453 -91 1209 -44 
Q 966 3 703 97 
z
M 1959 2075 
Q 2384 2075 2632 2365 
Q 2881 2656 2881 3163 
Q 2881 3666 2632 3958 
Q 2384 4250 1959 4250 
Q 1534 4250 1286 3958 
Q 1038 3666 1038 3163 
Q 1038 2656 1286 2365 
Q 1534 2075 1959 2075 
z
" transform="scale(0.015625)"/>
       </defs>
       <use xlink:href="#DejaVuSans-39"/>
       <use xlink:href="#DejaVuSans-30" transform="translate(63.623047 0)"/>
       <use xlink:href="#DejaVuSans-30" transform="translate(127.246094 0)"/>
       <use xlink:href="#DejaVuSans-30" transform="translate(190.869141 0)"/>
      </g>
     </g>
    </g>
    <g id="ytick_3">
     <g id="line2d_7">
      <path d="M 59.690625 212.167075 
L 416.810625 212.167075 
" clip-path="url(#p7782a7cd12)" style="fill: none; stroke: #cccccc; stroke-width: 0.8; stroke-linecap: round"/>
     </g>
     <g id="text_8">
      <!-- 10000 -->
      <g style="fill: #262626" transform="translate(20.878125 215.966294) scale(0.1 -0.1)">
       <use xlink:href="#DejaVuSans-31"/>
       <use xlink:href="#DejaVuSans-30" transform="translate(63.623047 0)"/>
       <use xlink:href="#DejaVuSans-30" transform="translate(127.246094 0)"/>
       <use xlink:href="#DejaVuSans-30" transform="translate(190.869141 0)"/>
       <use xlink:href="#DejaVuSans-30" transform="translate(254.492188 0)"/>
      </g>
     </g>
    </g>
    <g id="ytick_4">
     <g id="line2d_8">
      <path d="M 59.690625 175.760754 
L 416.810625 175.760754 
" clip-path="url(#p7782a7cd12)" style="fill: none; stroke: #cccccc; stroke-width: 0.8; stroke-linecap: round"/>
     </g>
     <g id="text_9">
      <!-- 11000 -->
      <g style="fill: #262626" transform="translate(20.878125 179.559973) scale(0.1 -0.1)">
       <use xlink:href="#DejaVuSans-31"/>
       <use xlink:href="#DejaVuSans-31" transform="translate(63.623047 0)"/>
       <use xlink:href="#DejaVuSans-30" transform="translate(127.246094 0)"/>
       <use xlink:href="#DejaVuSans-30" transform="translate(190.869141 0)"/>
       <use xlink:href="#DejaVuSans-30" transform="translate(254.492188 0)"/>
      </g>
     </g>
    </g>
    <g id="ytick_5">
     <g id="line2d_9">
      <path d="M 59.690625 139.354434 
L 416.810625 139.354434 
" clip-path="url(#p7782a7cd12)" style="fill: none; stroke: #cccccc; stroke-width: 0.8; stroke-linecap: round"/>
     </g>
     <g id="text_10">
      <!-- 12000 -->
      <g style="fill: #262626" transform="translate(20.878125 143.153653) scale(0.1 -0.1)">
       <use xlink:href="#DejaVuSans-31"/>
       <use xlink:href="#DejaVuSans-32" transform="translate(63.623047 0)"/>
       <use xlink:href="#DejaVuSans-30" transform="translate(127.246094 0)"/>
       <use xlink:href="#DejaVuSans-30" transform="translate(190.869141 0)"/>
       <use xlink:href="#DejaVuSans-30" transform="translate(254.492188 0)"/>
      </g>
     </g>
    </g>
    <g id="ytick_6">
     <g id="line2d_10">
      <path d="M 59.690625 102.948113 
L 416.810625 102.948113 
" clip-path="url(#p7782a7cd12)" style="fill: none; stroke: #cccccc; stroke-width: 0.8; stroke-linecap: round"/>
     </g>
     <g id="text_11">
      <!-- 13000 -->
      <g style="fill: #262626" transform="translate(20.878125 106.747332) scale(0.1 -0.1)">
       <use xlink:href="#DejaVuSans-31"/>
       <use xlink:href="#DejaVuSans-33" transform="translate(63.623047 0)"/>
       <use xlink:href="#DejaVuSans-30" transform="translate(127.246094 0)"/>
       <use xlink:href="#DejaVuSans-30" transform="translate(190.869141 0)"/>
       <use xlink:href="#DejaVuSans-30" transform="translate(254.492188 0)"/>
      </g>
     </g>
    </g>
    <g id="ytick_7">
     <g id="line2d_11">
      <path d="M 59.690625 66.541793 
L 416.810625 66.541793 
" clip-path="url(#p7782a7cd12)" style="fill: none; stroke: #cccccc; stroke-width: 0.8; stroke-linecap: round"/>
     </g>
     <g id="text_12">
      <!-- 14000 -->
      <g style="fill: #262626" transform="translate(20.878125 70.341011) scale(0.1 -0.1)">
       <use xlink:href="#DejaVuSans-31"/>
       <use xlink:href="#DejaVuSans-34" transform="translate(63.623047 0)"/>
       <use xlink:href="#DejaVuSans-30" transform="translate(127.246094 0)"/>
       <use xlink:href="#DejaVuSans-30" transform="translate(190.869141 0)"/>
       <use xlink:href="#DejaVuSans-30" transform="translate(254.492188 0)"/>
      </g>
     </g>
    </g>
    <g id="text_13">
     <!-- IOPS -->
     <g style="fill: #262626" transform="translate(14.798438 180.279725) rotate(-90) scale(0.1 -0.1)">
      <defs>
       <path id="DejaVuSans-49" d="M 628 4666 
L 1259 4666 
L 1259 0 
L 628 0 
L 628 4666 
z
" transform="scale(0.015625)"/>
       <path id="DejaVuSans-4f" d="M 2522 4238 
Q 1834 4238 1429 3725 
Q 1025 3213 1025 2328 
Q 1025 1447 1429 934 
Q 1834 422 2522 422 
Q 3209 422 3611 934 
Q 4013 1447 4013 2328 
Q 4013 3213 3611 3725 
Q 3209 4238 2522 4238 
z
M 2522 4750 
Q 3503 4750 4090 4092 
Q 4678 3434 4678 2328 
Q 4678 1225 4090 567 
Q 3503 -91 2522 -91 
Q 1538 -91 948 565 
Q 359 1222 359 2328 
Q 359 3434 948 4092 
Q 1538 4750 2522 4750 
z
" transform="scale(0.015625)"/>
       <path id="DejaVuSans-50" d="M 1259 4147 
L 1259 2394 
L 2053 2394 
Q 2494 2394 2734 2622 
Q 2975 2850 2975 3272 
Q 2975 3691 2734 3919 
Q 2494 4147 2053 4147 
L 1259 4147 
z
M 628 4666 
L 2053 4666 
Q 2838 4666 3239 4311 
Q 3641 3956 3641 3272 
Q 3641 2581 3239 2228 
Q 2838 1875 2053 1875 
L 1259 1875 
L 1259 0 
L 628 0 
L 628 4666 
z
" transform="scale(0.015625)"/>
       <path id="DejaVuSans-53" d="M 3425 4513 
L 3425 3897 
Q 3066 4069 2747 4153 
Q 2428 4238 2131 4238 
Q 1616 4238 1336 4038 
Q 1056 3838 1056 3469 
Q 1056 3159 1242 3001 
Q 1428 2844 1947 2747 
L 2328 2669 
Q 3034 2534 3370 2195 
Q 3706 1856 3706 1288 
Q 3706 609 3251 259 
Q 2797 -91 1919 -91 
Q 1588 -91 1214 -16 
Q 841 59 441 206 
L 441 856 
Q 825 641 1194 531 
Q 1563 422 1919 422 
Q 2459 422 2753 634 
Q 3047 847 3047 1241 
Q 3047 1584 2836 1778 
Q 2625 1972 2144 2069 
L 1759 2144 
Q 1053 2284 737 2584 
Q 422 2884 422 3419 
Q 422 4038 858 4394 
Q 1294 4750 2059 4750 
Q 2388 4750 2728 4690 
Q 3069 4631 3425 4513 
z
" transform="scale(0.015625)"/>
      </defs>
      <use xlink:href="#DejaVuSans-49"/>
      <use xlink:href="#DejaVuSans-4f" transform="translate(29.492188 0)"/>
      <use xlink:href="#DejaVuSans-50" transform="translate(108.203125 0)"/>
      <use xlink:href="#DejaVuSans-53" transform="translate(168.505859 0)"/>
     </g>
    </g>
   </g>
   <g id="FillBetweenPolyCollection_1"/>
   <g id="FillBetweenPolyCollection_2"/>
   <g id="FillBetweenPolyCollection_3"/>
   <g id="FillBetweenPolyCollection_4"/>
   <g id="FillBetweenPolyCollection_5"/>
   <g id="FillBetweenPolyCollection_6"/>
   <g id="FillBetweenPolyCollection_7"/>
   <g id="line2d_12">
    <path d="M 75.923352 205.978 
L 122.302573 238.670876 
L 215.061015 250.648556 
L 400.577898 223.016158 
" clip-path="url(#p7782a7cd12)" style="fill: none; stroke: #1d1147; stroke-width: 1.5; stroke-linecap: round"/>
   </g>
   <g id="line2d_13">
    <path d="M 75.923352 162.909323 
L 122.302573 195.929856 
L 215.061015 100.144827 
L 400.577898 48.593477 
" clip-path="url(#p7782a7cd12)" style="fill: none; stroke: #51127c; stroke-width: 1.5; stroke-linecap: round"/>
   </g>
   <g id="line2d_14">
    <path d="M 75.923352 209.473007 
L 122.302573 243.112447 
L 215.061015 253.67028 
L 400.577898 238.343219 
" clip-path="url(#p7782a7cd12)" style="fill: none; stroke: #832681; stroke-width: 1.5; stroke-linecap: round"/>
   </g>
   <g id="line2d_15">
    <path d="M 75.923352 220.467716 
L 122.302573 247.990894 
L 215.061015 278.098921 
L 400.577898 48.484258 
" clip-path="url(#p7782a7cd12)" style="fill: none; stroke: #b73779; stroke-width: 1.5; stroke-linecap: round"/>
   </g>
   <g id="line2d_16">
    <path d="M 75.923352 192.7261 
L 122.302573 250.175274 
L 215.061015 250.575743 
L 400.577898 56.712086 
" clip-path="url(#p7782a7cd12)" style="fill: none; stroke: #e75263; stroke-width: 1.5; stroke-linecap: round"/>
   </g>
   <g id="line2d_17">
    <path d="M 75.923352 213.00442 
L 122.302573 254.689657 
L 215.061015 258.585134 
L 400.577898 53.653955 
" clip-path="url(#p7782a7cd12)" style="fill: none; stroke: #fc8961; stroke-width: 1.5; stroke-linecap: round"/>
   </g>
   <g id="line2d_18">
    <path d="M 75.923352 212.567544 
L 122.302573 289.639725 
L 215.061015 247.408393 
L 400.577898 47.719725 
" clip-path="url(#p7782a7cd12)" style="fill: none; stroke: #fec488; stroke-width: 1.5; stroke-linecap: round"/>
   </g>
   <g id="line2d_19"/>
   <g id="line2d_20"/>
   <g id="line2d_21"/>
   <g id="line2d_22"/>
   <g id="line2d_23"/>
   <g id="line2d_24"/>
   <g id="line2d_25"/>
   <g id="text_14">
    <path d="M 115.024678 235.901585 
L 116.341369 236.829725 
L 119.546198 232.283246 
L 117.910739 231.560532 
L 118.428373 230.826199 
L 120.05617 231.543511 
L 120.86202 232.111558 
L 117.139557 237.392371 
L 118.456248 238.320511 
L 117.978224 238.998652 
L 114.546654 236.579726 
L 115.024678 235.901585 
z
" clip-path="url(#p7782a7cd12)" style="fill: #1d1147; stroke: #ffffff; stroke-width: 5"/>
    <path d="M 115.024678 235.901585 
L 116.341369 236.829725 
L 119.546198 232.283246 
L 117.910739 231.560532 
L 118.428373 230.826199 
L 120.05617 231.543511 
L 120.86202 232.111558 
L 117.139557 237.392371 
L 118.456248 238.320511 
L 117.978224 238.998652 
L 114.546654 236.579726 
L 115.024678 235.901585 
z
" clip-path="url(#p7782a7cd12)" style="fill: #1d1147"/>
   </g>
   <g id="text_15">
    <path d="M 155.677191 156.188054 
L 156.740559 160.684896 
L 158.473203 158.895718 
L 155.677191 156.188054 
z
M 154.879408 155.776542 
L 155.742469 154.88532 
L 159.155825 158.190823 
L 159.879753 157.443274 
L 160.469037 158.013938 
L 159.745109 158.761486 
L 160.979799 159.957163 
L 160.297176 160.662059 
L 159.062486 159.466382 
L 156.773309 161.830252 
L 156.08974 161.168282 
L 154.879408 155.776542 
z
" clip-path="url(#p7782a7cd12)" style="fill: #51127c; stroke: #ffffff; stroke-width: 5"/>
    <path d="M 155.677191 156.188054 
L 156.740559 160.684896 
L 158.473203 158.895718 
L 155.677191 156.188054 
z
M 154.879408 155.776542 
L 155.742469 154.88532 
L 159.155825 158.190823 
L 159.879753 157.443274 
L 160.469037 158.013938 
L 159.745109 158.761486 
L 160.979799 159.957163 
L 160.297176 160.662059 
L 159.062486 159.466382 
L 156.773309 161.830252 
L 156.08974 161.168282 
L 154.879408 155.776542 
z
" clip-path="url(#p7782a7cd12)" style="fill: #51127c"/>
   </g>
   <g id="text_16">
    <path d="M 198.151037 251.03791 
Q 197.452423 250.958393 197.009298 251.28695 
Q 196.567726 251.615684 196.493334 252.269276 
Q 196.418765 252.924421 196.775165 253.343981 
Q 197.133119 253.763717 197.831733 253.843234 
Q 198.530347 253.922751 198.975201 253.592818 
Q 199.421784 253.261509 199.495822 252.611022 
Q 199.570215 251.957429 199.212262 251.537693 
Q 198.855861 251.118133 198.151037 251.03791 
z
M 197.218781 250.510346 
Q 196.606146 250.283356 196.302858 249.811656 
Q 196.001299 249.33858 196.07198 248.71759 
Q 196.170758 247.849756 196.846072 247.415529 
Q 197.522939 246.981479 198.598805 247.103935 
Q 199.68088 247.227098 200.239785 247.801804 
Q 200.798689 248.37651 200.699911 249.244344 
Q 200.62923 249.865335 200.227517 250.258364 
Q 199.827534 250.650017 199.184216 250.734053 
Q 199.873414 250.979192 200.212965 251.505343 
Q 200.554245 252.030117 200.475435 252.722522 
Q 200.355453 253.776653 199.648584 254.267046 
Q 198.941892 254.755887 197.743381 254.619472 
Q 196.546422 254.483233 195.966111 253.847905 
Q 195.387529 253.2112 195.507511 252.157069 
Q 195.586321 251.464665 196.038357 251.030186 
Q 196.492121 250.594331 197.218781 250.510346 
z
M 197.036333 248.921708 
Q 196.972366 249.483705 197.287355 249.838793 
Q 197.603896 250.194057 198.238859 250.266329 
Q 198.870716 250.338247 199.262104 250.06356 
Q 199.655045 249.789049 199.719012 249.227053 
Q 199.783155 248.663504 199.461957 248.30771 
Q 199.14231 247.952092 198.510453 247.880173 
Q 197.87549 247.807901 197.487207 248.082942 
Q 197.100476 248.35816 197.036333 248.921708 
z
" clip-path="url(#p7782a7cd12)" style="fill: #832681; stroke: #ffffff; stroke-width: 5"/>
    <path d="M 198.151037 251.03791 
Q 197.452423 250.958393 197.009298 251.28695 
Q 196.567726 251.615684 196.493334 252.269276 
Q 196.418765 252.924421 196.775165 253.343981 
Q 197.133119 253.763717 197.831733 253.843234 
Q 198.530347 253.922751 198.975201 253.592818 
Q 199.421784 253.261509 199.495822 252.611022 
Q 199.570215 251.957429 199.212262 251.537693 
Q 198.855861 251.118133 198.151037 251.03791 
z
M 197.218781 250.510346 
Q 196.606146 250.283356 196.302858 249.811656 
Q 196.001299 249.33858 196.07198 248.71759 
Q 196.170758 247.849756 196.846072 247.415529 
Q 197.522939 246.981479 198.598805 247.103935 
Q 199.68088 247.227098 200.239785 247.801804 
Q 200.798689 248.37651 200.699911 249.244344 
Q 200.62923 249.865335 200.227517 250.258364 
Q 199.827534 250.650017 199.184216 250.734053 
Q 199.873414 250.979192 200.212965 251.505343 
Q 200.554245 252.030117 200.475435 252.722522 
Q 200.355453 253.776653 199.648584 254.267046 
Q 198.941892 254.755887 197.743381 254.619472 
Q 196.546422 254.483233 195.966111 253.847905 
Q 195.387529 253.2112 195.507511 252.157069 
Q 195.586321 251.464665 196.038357 251.030186 
Q 196.492121 250.594331 197.218781 250.510346 
z
M 197.036333 248.921708 
Q 196.972366 249.483705 197.287355 249.838793 
Q 197.603896 250.194057 198.238859 250.266329 
Q 198.870716 250.338247 199.262104 250.06356 
Q 199.655045 249.789049 199.719012 249.227053 
Q 199.783155 248.663504 199.461957 248.30771 
Q 199.14231 247.952092 198.510453 247.880173 
Q 197.87549 247.807901 197.487207 248.082942 
Q 197.100476 248.35816 197.036333 248.921708 
z
" clip-path="url(#p7782a7cd12)" style="fill: #832681"/>
   </g>
   <g id="text_17">
    <path d="M 236.532738 254.593834 
L 237.545144 253.340776 
L 233.218389 249.844979 
L 232.390084 251.429579 
L 231.69124 250.864949 
L 232.513653 249.287642 
L 233.133273 248.520736 
L 238.158872 252.581163 
L 239.171279 251.328106 
L 239.816646 251.849529 
L 237.178105 255.115257 
L 236.532738 254.593834 
z
M 239.331214 246.025893 
Q 238.913878 246.54243 239.023045 247.130812 
Q 239.131978 247.716996 239.74696 248.213871 
Q 240.358297 248.707799 240.957931 248.694101 
Q 241.557331 248.678205 241.974667 248.161668 
Q 242.392002 247.645131 242.280638 247.056983 
Q 242.168059 246.467852 241.556723 245.973924 
Q 240.94174 245.477049 240.345752 245.493694 
Q 239.748549 245.509356 239.331214 246.025893 
z
M 238.156378 242.559712 
L 238.855222 243.124342 
Q 238.485391 243.303622 238.176048 243.539809 
Q 237.86549 243.775013 237.631782 244.064273 
Q 237.018054 244.823886 237.206896 245.639351 
Q 237.39672 246.453601 238.387287 247.34834 
Q 238.237385 246.857616 238.334141 246.377355 
Q 238.43188 245.895879 238.759856 245.489941 
Q 239.450178 244.635529 240.369787 244.558953 
Q 241.288181 244.481395 242.180271 245.202157 
Q 243.054129 245.90819 243.165485 246.851882 
Q 243.275625 247.794592 242.582357 248.652651 
Q 241.786965 249.637109 240.613148 249.548473 
Q 239.438115 249.458856 238.006397 248.302101 
Q 236.662186 247.216047 236.377997 245.931839 
Q 236.093808 244.647631 236.961866 243.573234 
Q 237.195573 243.283974 237.490332 243.036004 
Q 237.78509 242.788034 238.156378 242.559712 
z
" clip-path="url(#p7782a7cd12)" style="fill: #b73779; stroke: #ffffff; stroke-width: 5"/>
    <path d="M 236.532738 254.593834 
L 237.545144 253.340776 
L 233.218389 249.844979 
L 232.390084 251.429579 
L 231.69124 250.864949 
L 232.513653 249.287642 
L 233.133273 248.520736 
L 238.158872 252.581163 
L 239.171279 251.328106 
L 239.816646 251.849529 
L 237.178105 255.115257 
L 236.532738 254.593834 
z
M 239.331214 246.025893 
Q 238.913878 246.54243 239.023045 247.130812 
Q 239.131978 247.716996 239.74696 248.213871 
Q 240.358297 248.707799 240.957931 248.694101 
Q 241.557331 248.678205 241.974667 248.161668 
Q 242.392002 247.645131 242.280638 247.056983 
Q 242.168059 246.467852 241.556723 245.973924 
Q 240.94174 245.477049 240.345752 245.493694 
Q 239.748549 245.509356 239.331214 246.025893 
z
M 238.156378 242.559712 
L 238.855222 243.124342 
Q 238.485391 243.303622 238.176048 243.539809 
Q 237.86549 243.775013 237.631782 244.064273 
Q 237.018054 244.823886 237.206896 245.639351 
Q 237.39672 246.453601 238.387287 247.34834 
Q 238.237385 246.857616 238.334141 246.377355 
Q 238.43188 245.895879 238.759856 245.489941 
Q 239.450178 244.635529 240.369787 244.558953 
Q 241.288181 244.481395 242.180271 245.202157 
Q 243.054129 245.90819 243.165485 246.851882 
Q 243.275625 247.794592 242.582357 248.652651 
Q 241.786965 249.637109 240.613148 249.548473 
Q 239.438115 249.458856 238.006397 248.302101 
Q 236.662186 247.216047 236.377997 245.931839 
Q 236.093808 244.647631 236.961866 243.573234 
Q 237.195573 243.283974 237.490332 243.036004 
Q 237.78509 242.788034 238.156378 242.559712 
z
" clip-path="url(#p7782a7cd12)" style="fill: #b73779"/>
   </g>
   <g id="text_18">
    <path d="M 275.986538 185.214085 
Q 276.585409 184.807486 277.206371 184.852396 
Q 277.827283 184.895096 278.335283 185.381225 
Q 279.114217 186.126621 279.02893 187.072272 
Q 278.942515 188.016842 277.997266 189.00462 
Q 277.680742 189.335384 277.279298 189.623812 
Q 276.877854 189.91224 276.389329 190.160589 
L 275.701835 189.502696 
Q 276.15759 189.372211 276.582692 189.104259 
Q 277.008875 188.835179 277.377252 188.450228 
Q 278.017861 187.780797 278.089669 187.176926 
Q 278.161478 186.573054 277.656864 186.090167 
Q 277.190633 185.644009 276.616529 185.719632 
Q 276.041295 185.794175 275.484948 186.375553 
L 274.897273 186.989668 
L 274.31138 186.429 
L 274.926062 185.786663 
Q 275.428394 185.261729 275.485251 184.781961 
Q 275.542108 184.302192 275.146997 183.924092 
Q 274.741726 183.53627 274.249507 183.616722 
Q 273.757239 183.694965 273.244103 184.231187 
Q 272.963229 184.524698 272.706731 184.921555 
Q 272.449104 185.317331 272.197732 185.846689 
L 271.563296 185.239569 
Q 271.83931 184.72514 272.122075 184.316655 
Q 272.40484 183.908169 272.705159 183.594338 
Q 273.481884 182.782667 274.30259 182.664044 
Q 275.123247 182.543213 275.75091 183.143851 
Q 276.188919 183.563002 276.250509 184.102051 
Q 276.312099 184.6411 275.986538 185.214085 
z
M 281.147258 184.307205 
L 283.527126 181.820262 
L 284.126566 182.393894 
L 280.926762 185.737663 
L 280.327322 185.164032 
Q 280.295197 184.356895 280.258289 182.980725 
Q 280.221333 181.602346 280.18764 181.226241 
Q 280.131144 180.516891 279.994361 180.126477 
Q 279.858657 179.734934 279.601271 179.488629 
Q 279.181324 179.086763 278.635209 179.128616 
Q 278.087966 179.169389 277.635327 179.642394 
Q 277.314482 179.977674 277.074264 180.461477 
Q 276.835125 180.944151 276.667085 181.594344 
L 275.946854 180.905122 
Q 276.185723 180.309732 276.455244 179.851807 
Q 276.725845 179.392754 277.022923 179.082309 
Q 277.80613 178.263865 278.681519 178.169457 
Q 279.55578 178.073969 280.239887 178.728621 
Q 280.565007 179.039744 280.739589 179.440377 
Q 280.914124 179.838801 281.001353 180.538635 
Q 281.01982 180.724994 281.05599 181.665762 
Q 281.09324 182.605401 281.147258 184.307205 
z
" clip-path="url(#p7782a7cd12)" style="fill: #e75263; stroke: #ffffff; stroke-width: 5"/>
    <path d="M 275.986538 185.214085 
Q 276.585409 184.807486 277.206371 184.852396 
Q 277.827283 184.895096 278.335283 185.381225 
Q 279.114217 186.126621 279.02893 187.072272 
Q 278.942515 188.016842 277.997266 189.00462 
Q 277.680742 189.335384 277.279298 189.623812 
Q 276.877854 189.91224 276.389329 190.160589 
L 275.701835 189.502696 
Q 276.15759 189.372211 276.582692 189.104259 
Q 277.008875 188.835179 277.377252 188.450228 
Q 278.017861 187.780797 278.089669 187.176926 
Q 278.161478 186.573054 277.656864 186.090167 
Q 277.190633 185.644009 276.616529 185.719632 
Q 276.041295 185.794175 275.484948 186.375553 
L 274.897273 186.989668 
L 274.31138 186.429 
L 274.926062 185.786663 
Q 275.428394 185.261729 275.485251 184.781961 
Q 275.542108 184.302192 275.146997 183.924092 
Q 274.741726 183.53627 274.249507 183.616722 
Q 273.757239 183.694965 273.244103 184.231187 
Q 272.963229 184.524698 272.706731 184.921555 
Q 272.449104 185.317331 272.197732 185.846689 
L 271.563296 185.239569 
Q 271.83931 184.72514 272.122075 184.316655 
Q 272.40484 183.908169 272.705159 183.594338 
Q 273.481884 182.782667 274.30259 182.664044 
Q 275.123247 182.543213 275.75091 183.143851 
Q 276.188919 183.563002 276.250509 184.102051 
Q 276.312099 184.6411 275.986538 185.214085 
z
M 281.147258 184.307205 
L 283.527126 181.820262 
L 284.126566 182.393894 
L 280.926762 185.737663 
L 280.327322 185.164032 
Q 280.295197 184.356895 280.258289 182.980725 
Q 280.221333 181.602346 280.18764 181.226241 
Q 280.131144 180.516891 279.994361 180.126477 
Q 279.858657 179.734934 279.601271 179.488629 
Q 279.181324 179.086763 278.635209 179.128616 
Q 278.087966 179.169389 277.635327 179.642394 
Q 277.314482 179.977674 277.074264 180.461477 
Q 276.835125 180.944151 276.667085 181.594344 
L 275.946854 180.905122 
Q 276.185723 180.309732 276.455244 179.851807 
Q 276.725845 179.392754 277.022923 179.082309 
Q 277.80613 178.263865 278.681519 178.169457 
Q 279.55578 178.073969 280.239887 178.728621 
Q 280.565007 179.039744 280.739589 179.440377 
Q 280.914124 179.838801 281.001353 180.538635 
Q 281.01982 180.724994 281.05599 181.665762 
Q 281.09324 182.605401 281.147258 184.307205 
z
" clip-path="url(#p7782a7cd12)" style="fill: #e75263"/>
   </g>
   <g id="text_19">
    <path d="M 315.600836 145.619374 
Q 315.155172 146.111677 315.231147 146.705258 
Q 315.307014 147.296632 315.893144 147.827234 
Q 316.475799 148.354691 317.075257 148.374664 
Q 317.674605 148.39243 318.120269 147.900127 
Q 318.565933 147.407824 318.487751 146.814353 
Q 318.408409 146.219834 317.825754 145.692377 
Q 317.239624 145.161774 316.643641 145.144947 
Q 316.0465 145.127071 315.600836 145.619374 
z
M 314.622365 142.092726 
L 315.288422 142.695684 
Q 314.909113 142.853928 314.587004 143.072382 
Q 314.263735 143.289788 314.014163 143.565478 
Q 313.358775 144.289453 313.501557 145.11423 
Q 313.645389 145.937849 314.584185 146.886767 
Q 314.462057 146.388403 314.585612 145.914329 
Q 314.710215 145.439096 315.060455 145.052204 
Q 315.797636 144.237877 316.720094 144.213027 
Q 317.641393 144.18713 318.491629 144.956818 
Q 319.32449 145.710777 319.382712 146.659231 
Q 319.439776 147.606636 318.699449 148.424438 
Q 317.850065 149.36271 316.683072 149.208342 
Q 315.51492 149.052926 314.150372 147.817649 
Q 312.869225 146.657873 312.657551 145.359741 
Q 312.445877 144.061609 313.372859 143.037618 
Q 313.622431 142.761929 313.93064 142.530891 
Q 314.23885 142.299853 314.622365 142.092726 
z
M 318.416964 138.94173 
L 319.630936 143.400273 
L 321.302439 141.553847 
L 318.416964 138.94173 
z
M 317.605795 138.557275 
L 318.438401 137.637537 
L 321.960974 140.826397 
L 322.659356 140.054929 
L 323.267495 140.605456 
L 322.569113 141.376924 
L 323.843309 142.530408 
L 323.184775 143.257858 
L 321.910578 142.104374 
L 319.70218 144.54388 
L 318.996739 143.905269 
L 317.605795 138.557275 
z
" clip-path="url(#p7782a7cd12)" style="fill: #fc8961; stroke: #ffffff; stroke-width: 5"/>
    <path d="M 315.600836 145.619374 
Q 315.155172 146.111677 315.231147 146.705258 
Q 315.307014 147.296632 315.893144 147.827234 
Q 316.475799 148.354691 317.075257 148.374664 
Q 317.674605 148.39243 318.120269 147.900127 
Q 318.565933 147.407824 318.487751 146.814353 
Q 318.408409 146.219834 317.825754 145.692377 
Q 317.239624 145.161774 316.643641 145.144947 
Q 316.0465 145.127071 315.600836 145.619374 
z
M 314.622365 142.092726 
L 315.288422 142.695684 
Q 314.909113 142.853928 314.587004 143.072382 
Q 314.263735 143.289788 314.014163 143.565478 
Q 313.358775 144.289453 313.501557 145.11423 
Q 313.645389 145.937849 314.584185 146.886767 
Q 314.462057 146.388403 314.585612 145.914329 
Q 314.710215 145.439096 315.060455 145.052204 
Q 315.797636 144.237877 316.720094 144.213027 
Q 317.641393 144.18713 318.491629 144.956818 
Q 319.32449 145.710777 319.382712 146.659231 
Q 319.439776 147.606636 318.699449 148.424438 
Q 317.850065 149.36271 316.683072 149.208342 
Q 315.51492 149.052926 314.150372 147.817649 
Q 312.869225 146.657873 312.657551 145.359741 
Q 312.445877 144.061609 313.372859 143.037618 
Q 313.622431 142.761929 313.93064 142.530891 
Q 314.23885 142.299853 314.622365 142.092726 
z
M 318.416964 138.94173 
L 319.630936 143.400273 
L 321.302439 141.553847 
L 318.416964 138.94173 
z
M 317.605795 138.557275 
L 318.438401 137.637537 
L 321.960974 140.826397 
L 322.659356 140.054929 
L 323.267495 140.605456 
L 322.569113 141.376924 
L 323.843309 142.530408 
L 323.184775 143.257858 
L 321.910578 142.104374 
L 319.70218 144.54388 
L 318.996739 143.905269 
L 317.605795 138.557275 
z
" clip-path="url(#p7782a7cd12)" style="fill: #fc8961"/>
   </g>
   <g id="text_20">
    <path d="M 354.540993 100.108568 
L 355.637449 98.928353 
L 351.562218 95.142339 
L 350.626549 96.666008 
L 349.968331 96.054503 
L 350.897619 94.537703 
L 351.568679 93.815379 
L 356.302128 98.212899 
L 357.398583 97.032684 
L 358.006434 97.597396 
L 355.148844 100.673279 
L 354.540993 100.108568 
z
M 359.332933 94.950568 
L 361.675795 92.428733 
L 362.283646 92.993444 
L 359.133597 96.384128 
L 358.525747 95.819416 
Q 358.4817 95.012842 358.424462 93.637367 
Q 358.367143 92.259685 358.327897 91.884119 
Q 358.260926 91.175681 358.118389 90.78733 
Q 357.976915 90.397835 357.715917 90.15536 
Q 357.290079 89.759743 356.744642 89.809661 
Q 356.198061 89.858516 355.75246 90.338157 
Q 355.436605 90.678141 355.203561 91.16544 
Q 354.97158 91.651595 354.813166 92.3042 
L 354.082829 91.625695 
Q 354.312875 91.02684 354.5756 90.564983 
Q 354.839389 90.101982 355.131848 89.787182 
Q 355.902876 88.957254 356.776775 88.849922 
Q 357.649529 88.741527 358.343234 89.386 
Q 358.672916 89.692284 358.853399 90.090295 
Q 359.033801 90.486097 359.131362 91.184565 
Q 359.15258 91.370631 359.202646 92.310761 
Q 359.253776 93.249747 359.332933 94.950568 
z
M 362.591624 87.574753 
Q 362.113055 88.089881 362.114555 88.641521 
Q 362.117118 89.192016 362.599048 89.639744 
Q 363.082123 90.088536 363.631319 90.050641 
Q 364.181578 90.011602 364.660147 89.496474 
Q 365.138716 88.981347 365.137135 88.427499 
Q 365.135473 87.871442 364.655832 87.425841 
Q 364.173902 86.978113 363.623643 87.017152 
Q 363.074447 87.055047 362.591624 87.574753 
z
M 361.613777 88.012062 
Q 361.067528 88.370473 360.507882 88.334676 
Q 359.948155 88.296672 359.490264 87.871277 
Q 358.850361 87.276788 358.901593 86.475553 
Q 358.953887 85.673173 359.690884 84.879877 
Q 360.432134 84.082002 361.226375 83.973178 
Q 362.020616 83.864355 362.660519 84.458844 
Q 363.11841 84.884239 363.196378 85.440805 
Q 363.274264 85.995163 362.960151 86.562837 
Q 363.566443 86.15357 364.191434 86.192491 
Q 364.816344 86.229203 365.326892 86.703518 
Q 366.104163 87.425626 366.079415 88.285589 
Q 366.053523 89.144488 365.232511 90.028218 
Q 364.412562 90.910803 363.556824 91.000883 
Q 362.701004 91.088754 361.923734 90.366646 
Q 361.413185 89.892331 361.331717 89.270663 
Q 361.250168 88.646787 361.613777 88.012062 
z
M 360.226818 87.216197 
Q 360.641209 87.60118 361.113937 87.558359 
Q 361.587728 87.514394 362.022694 87.0462 
Q 362.455534 86.580296 362.466692 86.102266 
Q 362.478915 85.62309 362.064523 85.238108 
Q 361.648987 84.852062 361.172005 84.899462 
Q 360.696087 84.945716 360.263248 85.411621 
Q 359.828282 85.879814 359.81925 86.355555 
Q 359.811281 86.830152 360.226818 87.216197 
z
" clip-path="url(#p7782a7cd12)" style="fill: #fec488; stroke: #ffffff; stroke-width: 5"/>
    <path d="M 354.540993 100.108568 
L 355.637449 98.928353 
L 351.562218 95.142339 
L 350.626549 96.666008 
L 349.968331 96.054503 
L 350.897619 94.537703 
L 351.568679 93.815379 
L 356.302128 98.212899 
L 357.398583 97.032684 
L 358.006434 97.597396 
L 355.148844 100.673279 
L 354.540993 100.108568 
z
M 359.332933 94.950568 
L 361.675795 92.428733 
L 362.283646 92.993444 
L 359.133597 96.384128 
L 358.525747 95.819416 
Q 358.4817 95.012842 358.424462 93.637367 
Q 358.367143 92.259685 358.327897 91.884119 
Q 358.260926 91.175681 358.118389 90.78733 
Q 357.976915 90.397835 357.715917 90.15536 
Q 357.290079 89.759743 356.744642 89.809661 
Q 356.198061 89.858516 355.75246 90.338157 
Q 355.436605 90.678141 355.203561 91.16544 
Q 354.97158 91.651595 354.813166 92.3042 
L 354.082829 91.625695 
Q 354.312875 91.02684 354.5756 90.564983 
Q 354.839389 90.101982 355.131848 89.787182 
Q 355.902876 88.957254 356.776775 88.849922 
Q 357.649529 88.741527 358.343234 89.386 
Q 358.672916 89.692284 358.853399 90.090295 
Q 359.033801 90.486097 359.131362 91.184565 
Q 359.15258 91.370631 359.202646 92.310761 
Q 359.253776 93.249747 359.332933 94.950568 
z
M 362.591624 87.574753 
Q 362.113055 88.089881 362.114555 88.641521 
Q 362.117118 89.192016 362.599048 89.639744 
Q 363.082123 90.088536 363.631319 90.050641 
Q 364.181578 90.011602 364.660147 89.496474 
Q 365.138716 88.981347 365.137135 88.427499 
Q 365.135473 87.871442 364.655832 87.425841 
Q 364.173902 86.978113 363.623643 87.017152 
Q 363.074447 87.055047 362.591624 87.574753 
z
M 361.613777 88.012062 
Q 361.067528 88.370473 360.507882 88.334676 
Q 359.948155 88.296672 359.490264 87.871277 
Q 358.850361 87.276788 358.901593 86.475553 
Q 358.953887 85.673173 359.690884 84.879877 
Q 360.432134 84.082002 361.226375 83.973178 
Q 362.020616 83.864355 362.660519 84.458844 
Q 363.11841 84.884239 363.196378 85.440805 
Q 363.274264 85.995163 362.960151 86.562837 
Q 363.566443 86.15357 364.191434 86.192491 
Q 364.816344 86.229203 365.326892 86.703518 
Q 366.104163 87.425626 366.079415 88.285589 
Q 366.053523 89.144488 365.232511 90.028218 
Q 364.412562 90.910803 363.556824 91.000883 
Q 362.701004 91.088754 361.923734 90.366646 
Q 361.413185 89.892331 361.331717 89.270663 
Q 361.250168 88.646787 361.613777 88.012062 
z
M 360.226818 87.216197 
Q 360.641209 87.60118 361.113937 87.558359 
Q 361.587728 87.514394 362.022694 87.0462 
Q 362.455534 86.580296 362.466692 86.102266 
Q 362.478915 85.62309 362.064523 85.238108 
Q 361.648987 84.852062 361.172005 84.899462 
Q 360.696087 84.945716 360.263248 85.411621 
Q 359.828282 85.879814 359.81925 86.355555 
Q 359.811281 86.830152 360.226818 87.216197 
z
" clip-path="url(#p7782a7cd12)" style="fill: #fec488"/>
   </g>
   <g id="patch_3">
    <path d="M 59.690625 301.735725 
L 59.690625 35.623725 
" style="fill: none; stroke: #cccccc; stroke-width: 0.8; stroke-linejoin: miter; stroke-linecap: square"/>
   </g>
   <g id="patch_4">
    <path d="M 416.810625 301.735725 
L 416.810625 35.623725 
" style="fill: none; stroke: #cccccc; stroke-width: 0.8; stroke-linejoin: miter; stroke-linecap: square"/>
   </g>
   <g id="patch_5">
    <path d="M 59.690625 301.735725 
L 416.810625 301.735725 
" style="fill: none; stroke: #cccccc; stroke-width: 0.8; stroke-linejoin: miter; stroke-linecap: square"/>
   </g>
   <g id="patch_6">
    <path d="M 59.690625 35.623725 
L 416.810625 35.623725 
" style="fill: none; stroke: #cccccc; stroke-width: 0.8; stroke-linejoin: miter; stroke-linecap: square"/>
   </g>
   <g id="text_21">
    <!-- Block Size = 1M, Read-Write Type = Sequential Write-only -->
    <g style="fill: #262626; opacity: 0.75" transform="translate(93.120156 30.882918) scale(0.1 -0.1)">
     <defs>
      <path id="DejaVuSans-42" d="M 1259 2228 
L 1259 519 
L 2272 519 
Q 2781 519 3026 730 
Q 3272 941 3272 1375 
Q 3272 1813 3026 2020 
Q 2781 2228 2272 2228 
L 1259 2228 
z
M 1259 4147 
L 1259 2741 
L 2194 2741 
Q 2656 2741 2882 2914 
Q 3109 3088 3109 3444 
Q 3109 3797 2882 3972 
Q 2656 4147 2194 4147 
L 1259 4147 
z
M 628 4666 
L 2241 4666 
Q 2963 4666 3353 4366 
Q 3744 4066 3744 3513 
Q 3744 3084 3544 2831 
Q 3344 2578 2956 2516 
Q 3422 2416 3680 2098 
Q 3938 1781 3938 1306 
Q 3938 681 3513 340 
Q 3088 0 2303 0 
L 628 0 
L 628 4666 
z
" transform="scale(0.015625)"/>
      <path id="DejaVuSans-6c" d="M 603 4863 
L 1178 4863 
L 1178 0 
L 603 0 
L 603 4863 
z
" transform="scale(0.015625)"/>
      <path id="DejaVuSans-63" d="M 3122 3366 
L 3122 2828 
Q 2878 2963 2633 3030 
Q 2388 3097 2138 3097 
Q 1578 3097 1268 2742 
Q 959 2388 959 1747 
Q 959 1106 1268 751 
Q 1578 397 2138 397 
Q 2388 397 2633 464 
Q 2878 531 3122 666 
L 3122 134 
Q 2881 22 2623 -34 
Q 2366 -91 2075 -91 
Q 1284 -91 818 406 
Q 353 903 353 1747 
Q 353 2603 823 3093 
Q 1294 3584 2113 3584 
Q 2378 3584 2631 3529 
Q 2884 3475 3122 3366 
z
" transform="scale(0.015625)"/>
      <path id="DejaVuSans-6b" d="M 581 4863 
L 1159 4863 
L 1159 1991 
L 2875 3500 
L 3609 3500 
L 1753 1863 
L 3688 0 
L 2938 0 
L 1159 1709 
L 1159 0 
L 581 0 
L 581 4863 
z
" transform="scale(0.015625)"/>
      <path id="DejaVuSans-69" d="M 603 3500 
L 1178 3500 
L 1178 0 
L 603 0 
L 603 3500 
z
M 603 4863 
L 1178 4863 
L 1178 4134 
L 603 4134 
L 603 4863 
z
" transform="scale(0.015625)"/>
      <path id="DejaVuSans-7a" d="M 353 3500 
L 3084 3500 
L 3084 2975 
L 922 459 
L 3084 459 
L 3084 0 
L 275 0 
L 275 525 
L 2438 3041 
L 353 3041 
L 353 3500 
z
" transform="scale(0.015625)"/>
      <path id="DejaVuSans-3d" d="M 678 2906 
L 4684 2906 
L 4684 2381 
L 678 2381 
L 678 2906 
z
M 678 1631 
L 4684 1631 
L 4684 1100 
L 678 1100 
L 678 1631 
z
" transform="scale(0.015625)"/>
      <path id="DejaVuSans-4d" d="M 628 4666 
L 1569 4666 
L 2759 1491 
L 3956 4666 
L 4897 4666 
L 4897 0 
L 4281 0 
L 4281 4097 
L 3078 897 
L 2444 897 
L 1241 4097 
L 1241 0 
L 628 0 
L 628 4666 
z
" transform="scale(0.015625)"/>
      <path id="DejaVuSans-2c" d="M 750 794 
L 1409 794 
L 1409 256 
L 897 -744 
L 494 -744 
L 750 256 
L 750 794 
z
" transform="scale(0.015625)"/>
      <path id="DejaVuSans-52" d="M 2841 2188 
Q 3044 2119 3236 1894 
Q 3428 1669 3622 1275 
L 4263 0 
L 3584 0 
L 2988 1197 
Q 2756 1666 2539 1819 
Q 2322 1972 1947 1972 
L 1259 1972 
L 1259 0 
L 628 0 
L 628 4666 
L 2053 4666 
Q 2853 4666 3247 4331 
Q 3641 3997 3641 3322 
Q 3641 2881 3436 2590 
Q 3231 2300 2841 2188 
z
M 1259 4147 
L 1259 2491 
L 2053 2491 
Q 2509 2491 2742 2702 
Q 2975 2913 2975 3322 
Q 2975 3731 2742 3939 
Q 2509 4147 2053 4147 
L 1259 4147 
z
" transform="scale(0.015625)"/>
      <path id="DejaVuSans-61" d="M 2194 1759 
Q 1497 1759 1228 1600 
Q 959 1441 959 1056 
Q 959 750 1161 570 
Q 1363 391 1709 391 
Q 2188 391 2477 730 
Q 2766 1069 2766 1631 
L 2766 1759 
L 2194 1759 
z
M 3341 1997 
L 3341 0 
L 2766 0 
L 2766 531 
Q 2569 213 2275 61 
Q 1981 -91 1556 -91 
Q 1019 -91 701 211 
Q 384 513 384 1019 
Q 384 1609 779 1909 
Q 1175 2209 1959 2209 
L 2766 2209 
L 2766 2266 
Q 2766 2663 2505 2880 
Q 2244 3097 1772 3097 
Q 1472 3097 1187 3025 
Q 903 2953 641 2809 
L 641 3341 
Q 956 3463 1253 3523 
Q 1550 3584 1831 3584 
Q 2591 3584 2966 3190 
Q 3341 2797 3341 1997 
z
" transform="scale(0.015625)"/>
      <path id="DejaVuSans-64" d="M 2906 2969 
L 2906 4863 
L 3481 4863 
L 3481 0 
L 2906 0 
L 2906 525 
Q 2725 213 2448 61 
Q 2172 -91 1784 -91 
Q 1150 -91 751 415 
Q 353 922 353 1747 
Q 353 2572 751 3078 
Q 1150 3584 1784 3584 
Q 2172 3584 2448 3432 
Q 2725 3281 2906 2969 
z
M 947 1747 
Q 947 1113 1208 752 
Q 1469 391 1925 391 
Q 2381 391 2643 752 
Q 2906 1113 2906 1747 
Q 2906 2381 2643 2742 
Q 2381 3103 1925 3103 
Q 1469 3103 1208 2742 
Q 947 2381 947 1747 
z
" transform="scale(0.015625)"/>
      <path id="DejaVuSans-2d" d="M 313 2009 
L 1997 2009 
L 1997 1497 
L 313 1497 
L 313 2009 
z
" transform="scale(0.015625)"/>
      <path id="DejaVuSans-57" d="M 213 4666 
L 850 4666 
L 1831 722 
L 2809 4666 
L 3519 4666 
L 4500 722 
L 5478 4666 
L 6119 4666 
L 4947 0 
L 4153 0 
L 3169 4050 
L 2175 0 
L 1381 0 
L 213 4666 
z
" transform="scale(0.015625)"/>
      <path id="DejaVuSans-74" d="M 1172 4494 
L 1172 3500 
L 2356 3500 
L 2356 3053 
L 1172 3053 
L 1172 1153 
Q 1172 725 1289 603 
Q 1406 481 1766 481 
L 2356 481 
L 2356 0 
L 1766 0 
Q 1100 0 847 248 
Q 594 497 594 1153 
L 594 3053 
L 172 3053 
L 172 3500 
L 594 3500 
L 594 4494 
L 1172 4494 
z
" transform="scale(0.015625)"/>
      <path id="DejaVuSans-54" d="M -19 4666 
L 3928 4666 
L 3928 4134 
L 2272 4134 
L 2272 0 
L 1638 0 
L 1638 4134 
L -19 4134 
L -19 4666 
z
" transform="scale(0.015625)"/>
      <path id="DejaVuSans-79" d="M 2059 -325 
Q 1816 -950 1584 -1140 
Q 1353 -1331 966 -1331 
L 506 -1331 
L 506 -850 
L 844 -850 
Q 1081 -850 1212 -737 
Q 1344 -625 1503 -206 
L 1606 56 
L 191 3500 
L 800 3500 
L 1894 763 
L 2988 3500 
L 3597 3500 
L 2059 -325 
z
" transform="scale(0.015625)"/>
      <path id="DejaVuSans-70" d="M 1159 525 
L 1159 -1331 
L 581 -1331 
L 581 3500 
L 1159 3500 
L 1159 2969 
Q 1341 3281 1617 3432 
Q 1894 3584 2278 3584 
Q 2916 3584 3314 3078 
Q 3713 2572 3713 1747 
Q 3713 922 3314 415 
Q 2916 -91 2278 -91 
Q 1894 -91 1617 61 
Q 1341 213 1159 525 
z
M 3116 1747 
Q 3116 2381 2855 2742 
Q 2594 3103 2138 3103 
Q 1681 3103 1420 2742 
Q 1159 2381 1159 1747 
Q 1159 1113 1420 752 
Q 1681 391 2138 391 
Q 2594 391 2855 752 
Q 3116 1113 3116 1747 
z
" transform="scale(0.015625)"/>
      <path id="DejaVuSans-71" d="M 947 1747 
Q 947 1113 1208 752 
Q 1469 391 1925 391 
Q 2381 391 2643 752 
Q 2906 1113 2906 1747 
Q 2906 2381 2643 2742 
Q 2381 3103 1925 3103 
Q 1469 3103 1208 2742 
Q 947 2381 947 1747 
z
M 2906 525 
Q 2725 213 2448 61 
Q 2172 -91 1784 -91 
Q 1150 -91 751 415 
Q 353 922 353 1747 
Q 353 2572 751 3078 
Q 1150 3584 1784 3584 
Q 2172 3584 2448 3432 
Q 2725 3281 2906 2969 
L 2906 3500 
L 3481 3500 
L 3481 -1331 
L 2906 -1331 
L 2906 525 
z
" transform="scale(0.015625)"/>
      <path id="DejaVuSans-6e" d="M 3513 2113 
L 3513 0 
L 2938 0 
L 2938 2094 
Q 2938 2591 2744 2837 
Q 2550 3084 2163 3084 
Q 1697 3084 1428 2787 
Q 1159 2491 1159 1978 
L 1159 0 
L 581 0 
L 581 3500 
L 1159 3500 
L 1159 2956 
Q 1366 3272 1645 3428 
Q 1925 3584 2291 3584 
Q 2894 3584 3203 3211 
Q 3513 2838 3513 2113 
z
" transform="scale(0.015625)"/>
     </defs>
     <use xlink:href="#DejaVuSans-42"/>
     <use xlink:href="#DejaVuSans-6c" transform="translate(68.603516 0)"/>
     <use xlink:href="#DejaVuSans-6f" transform="translate(96.386719 0)"/>
     <use xlink:href="#DejaVuSans-63" transform="translate(157.568359 0)"/>
     <use xlink:href="#DejaVuSans-6b" transform="translate(212.548828 0)"/>
     <use xlink:href="#DejaVuSans-20" transform="translate(270.458984 0)"/>
     <use xlink:href="#DejaVuSans-53" transform="translate(302.246094 0)"/>
     <use xlink:href="#DejaVuSans-69" transform="translate(365.722656 0)"/>
     <use xlink:href="#DejaVuSans-7a" transform="translate(393.505859 0)"/>
     <use xlink:href="#DejaVuSans-65" transform="translate(445.996094 0)"/>
     <use xlink:href="#DejaVuSans-20" transform="translate(507.519531 0)"/>
     <use xlink:href="#DejaVuSans-3d" transform="translate(539.306641 0)"/>
     <use xlink:href="#DejaVuSans-20" transform="translate(623.095703 0)"/>
     <use xlink:href="#DejaVuSans-31" transform="translate(654.882812 0)"/>
     <use xlink:href="#DejaVuSans-4d" transform="translate(718.505859 0)"/>
     <use xlink:href="#DejaVuSans-2c" transform="translate(804.785156 0)"/>
     <use xlink:href="#DejaVuSans-20" transform="translate(836.572266 0)"/>
     <use xlink:href="#DejaVuSans-52" transform="translate(868.359375 0)"/>
     <use xlink:href="#DejaVuSans-65" transform="translate(933.341797 0)"/>
     <use xlink:href="#DejaVuSans-61" transform="translate(994.865234 0)"/>
     <use xlink:href="#DejaVuSans-64" transform="translate(1056.144531 0)"/>
     <use xlink:href="#DejaVuSans-2d" transform="translate(1119.621094 0)"/>
     <use xlink:href="#DejaVuSans-57" transform="translate(1151.705078 0)"/>
     <use xlink:href="#DejaVuSans-72" transform="translate(1246.082031 0)"/>
     <use xlink:href="#DejaVuSans-69" transform="translate(1287.195312 0)"/>
     <use xlink:href="#DejaVuSans-74" transform="translate(1314.978516 0)"/>
     <use xlink:href="#DejaVuSans-65" transform="translate(1354.1875 0)"/>
     <use xlink:href="#DejaVuSans-20" transform="translate(1415.710938 0)"/>
     <use xlink:href="#DejaVuSans-54" transform="translate(1447.498047 0)"/>
     <use xlink:href="#DejaVuSans-79" transform="translate(1492.957031 0)"/>
     <use xlink:href="#DejaVuSans-70" transform="translate(1552.136719 0)"/>
     <use xlink:href="#DejaVuSans-65" transform="translate(1615.613281 0)"/>
     <use xlink:href="#DejaVuSans-20" transform="translate(1677.136719 0)"/>
     <use xlink:href="#DejaVuSans-3d" transform="translate(1708.923828 0)"/>
     <use xlink:href="#DejaVuSans-20" transform="translate(1792.712891 0)"/>
     <use xlink:href="#DejaVuSans-53" transform="translate(1824.5 0)"/>
     <use xlink:href="#DejaVuSans-65" transform="translate(1887.976562 0)"/>
     <use xlink:href="#DejaVuSans-71" transform="translate(1949.5 0)"/>
     <use xlink:href="#DejaVuSans-75" transform="translate(2012.976562 0)"/>
     <use xlink:href="#DejaVuSans-65" transform="translate(2076.355469 0)"/>
     <use xlink:href="#DejaVuSans-6e" transform="translate(2137.878906 0)"/>
     <use xlink:href="#DejaVuSans-74" transform="translate(2201.257812 0)"/>
     <use xlink:href="#DejaVuSans-69" transform="translate(2240.466797 0)"/>
     <use xlink:href="#DejaVuSans-61" transform="translate(2268.25 0)"/>
     <use xlink:href="#DejaVuSans-6c" transform="translate(2329.529297 0)"/>
     <use xlink:href="#DejaVuSans-20" transform="translate(2357.3125 0)"/>
     <use xlink:href="#DejaVuSans-57" transform="translate(2389.099609 0)"/>
     <use xlink:href="#DejaVuSans-72" transform="translate(2483.476562 0)"/>
     <use xlink:href="#DejaVuSans-69" transform="translate(2524.589844 0)"/>
     <use xlink:href="#DejaVuSans-74" transform="translate(2552.373047 0)"/>
     <use xlink:href="#DejaVuSans-65" transform="translate(2591.582031 0)"/>
     <use xlink:href="#DejaVuSans-2d" transform="translate(2653.105469 0)"/>
     <use xlink:href="#DejaVuSans-6f" transform="translate(2691.064453 0)"/>
     <use xlink:href="#DejaVuSans-6e" transform="translate(2752.246094 0)"/>
     <use xlink:href="#DejaVuSans-6c" transform="translate(2815.625 0)"/>
     <use xlink:href="#DejaVuSans-79" transform="translate(2843.408203 0)"/>
    </g>
   </g>
   <g id="text_22">
    <!-- IOPS vs Number of Jobs -->
    <g style="fill: #262626" transform="translate(158.541562 16.318125) scale(0.12 -0.12)">
     <defs>
      <path id="DejaVuSans-Bold-49" d="M 588 4666 
L 1791 4666 
L 1791 0 
L 588 0 
L 588 4666 
z
" transform="scale(0.015625)"/>
      <path id="DejaVuSans-Bold-4f" d="M 2719 3878 
Q 2169 3878 1866 3472 
Q 1563 3066 1563 2328 
Q 1563 1594 1866 1187 
Q 2169 781 2719 781 
Q 3272 781 3575 1187 
Q 3878 1594 3878 2328 
Q 3878 3066 3575 3472 
Q 3272 3878 2719 3878 
z
M 2719 4750 
Q 3844 4750 4481 4106 
Q 5119 3463 5119 2328 
Q 5119 1197 4481 553 
Q 3844 -91 2719 -91 
Q 1597 -91 958 553 
Q 319 1197 319 2328 
Q 319 3463 958 4106 
Q 1597 4750 2719 4750 
z
" transform="scale(0.015625)"/>
      <path id="DejaVuSans-Bold-50" d="M 588 4666 
L 2584 4666 
Q 3475 4666 3951 4270 
Q 4428 3875 4428 3144 
Q 4428 2409 3951 2014 
Q 3475 1619 2584 1619 
L 1791 1619 
L 1791 0 
L 588 0 
L 588 4666 
z
M 1791 3794 
L 1791 2491 
L 2456 2491 
Q 2806 2491 2997 2661 
Q 3188 2831 3188 3144 
Q 3188 3456 2997 3625 
Q 2806 3794 2456 3794 
L 1791 3794 
z
" transform="scale(0.015625)"/>
      <path id="DejaVuSans-Bold-53" d="M 3834 4519 
L 3834 3531 
Q 3450 3703 3084 3790 
Q 2719 3878 2394 3878 
Q 1963 3878 1756 3759 
Q 1550 3641 1550 3391 
Q 1550 3203 1689 3098 
Q 1828 2994 2194 2919 
L 2706 2816 
Q 3484 2659 3812 2340 
Q 4141 2022 4141 1434 
Q 4141 663 3683 286 
Q 3225 -91 2284 -91 
Q 1841 -91 1394 -6 
Q 947 78 500 244 
L 500 1259 
Q 947 1022 1364 901 
Q 1781 781 2169 781 
Q 2563 781 2772 912 
Q 2981 1044 2981 1288 
Q 2981 1506 2839 1625 
Q 2697 1744 2272 1838 
L 1806 1941 
Q 1106 2091 782 2419 
Q 459 2747 459 3303 
Q 459 4000 909 4375 
Q 1359 4750 2203 4750 
Q 2588 4750 2994 4692 
Q 3400 4634 3834 4519 
z
" transform="scale(0.015625)"/>
      <path id="DejaVuSans-Bold-20" transform="scale(0.015625)"/>
      <path id="DejaVuSans-Bold-76" d="M 97 3500 
L 1216 3500 
L 2088 1081 
L 2956 3500 
L 4078 3500 
L 2700 0 
L 1472 0 
L 97 3500 
z
" transform="scale(0.015625)"/>
      <path id="DejaVuSans-Bold-73" d="M 3272 3391 
L 3272 2541 
Q 2913 2691 2578 2766 
Q 2244 2841 1947 2841 
Q 1628 2841 1473 2761 
Q 1319 2681 1319 2516 
Q 1319 2381 1436 2309 
Q 1553 2238 1856 2203 
L 2053 2175 
Q 2913 2066 3209 1816 
Q 3506 1566 3506 1031 
Q 3506 472 3093 190 
Q 2681 -91 1863 -91 
Q 1516 -91 1145 -36 
Q 775 19 384 128 
L 384 978 
Q 719 816 1070 734 
Q 1422 653 1784 653 
Q 2113 653 2278 743 
Q 2444 834 2444 1013 
Q 2444 1163 2330 1236 
Q 2216 1309 1875 1350 
L 1678 1375 
Q 931 1469 631 1722 
Q 331 1975 331 2491 
Q 331 3047 712 3315 
Q 1094 3584 1881 3584 
Q 2191 3584 2531 3537 
Q 2872 3491 3272 3391 
z
" transform="scale(0.015625)"/>
      <path id="DejaVuSans-Bold-4e" d="M 588 4666 
L 1931 4666 
L 3628 1466 
L 3628 4666 
L 4769 4666 
L 4769 0 
L 3425 0 
L 1728 3200 
L 1728 0 
L 588 0 
L 588 4666 
z
" transform="scale(0.015625)"/>
      <path id="DejaVuSans-Bold-75" d="M 500 1363 
L 500 3500 
L 1625 3500 
L 1625 3150 
Q 1625 2866 1622 2436 
Q 1619 2006 1619 1863 
Q 1619 1441 1641 1255 
Q 1663 1069 1716 984 
Q 1784 875 1895 815 
Q 2006 756 2150 756 
Q 2500 756 2700 1025 
Q 2900 1294 2900 1772 
L 2900 3500 
L 4019 3500 
L 4019 0 
L 2900 0 
L 2900 506 
Q 2647 200 2364 54 
Q 2081 -91 1741 -91 
Q 1134 -91 817 281 
Q 500 653 500 1363 
z
" transform="scale(0.015625)"/>
      <path id="DejaVuSans-Bold-6d" d="M 3781 2919 
Q 3994 3244 4286 3414 
Q 4578 3584 4928 3584 
Q 5531 3584 5847 3212 
Q 6163 2841 6163 2131 
L 6163 0 
L 5038 0 
L 5038 1825 
Q 5041 1866 5042 1909 
Q 5044 1953 5044 2034 
Q 5044 2406 4934 2573 
Q 4825 2741 4581 2741 
Q 4263 2741 4089 2478 
Q 3916 2216 3909 1719 
L 3909 0 
L 2784 0 
L 2784 1825 
Q 2784 2406 2684 2573 
Q 2584 2741 2328 2741 
Q 2006 2741 1831 2477 
Q 1656 2213 1656 1722 
L 1656 0 
L 531 0 
L 531 3500 
L 1656 3500 
L 1656 2988 
Q 1863 3284 2130 3434 
Q 2397 3584 2719 3584 
Q 3081 3584 3359 3409 
Q 3638 3234 3781 2919 
z
" transform="scale(0.015625)"/>
      <path id="DejaVuSans-Bold-62" d="M 2400 722 
Q 2759 722 2948 984 
Q 3138 1247 3138 1747 
Q 3138 2247 2948 2509 
Q 2759 2772 2400 2772 
Q 2041 2772 1848 2508 
Q 1656 2244 1656 1747 
Q 1656 1250 1848 986 
Q 2041 722 2400 722 
z
M 1656 2988 
Q 1888 3294 2169 3439 
Q 2450 3584 2816 3584 
Q 3463 3584 3878 3070 
Q 4294 2556 4294 1747 
Q 4294 938 3878 423 
Q 3463 -91 2816 -91 
Q 2450 -91 2169 54 
Q 1888 200 1656 506 
L 1656 0 
L 538 0 
L 538 4863 
L 1656 4863 
L 1656 2988 
z
" transform="scale(0.015625)"/>
      <path id="DejaVuSans-Bold-65" d="M 4031 1759 
L 4031 1441 
L 1416 1441 
Q 1456 1047 1700 850 
Q 1944 653 2381 653 
Q 2734 653 3104 758 
Q 3475 863 3866 1075 
L 3866 213 
Q 3469 63 3072 -14 
Q 2675 -91 2278 -91 
Q 1328 -91 801 392 
Q 275 875 275 1747 
Q 275 2603 792 3093 
Q 1309 3584 2216 3584 
Q 3041 3584 3536 3087 
Q 4031 2591 4031 1759 
z
M 2881 2131 
Q 2881 2450 2695 2645 
Q 2509 2841 2209 2841 
Q 1884 2841 1681 2658 
Q 1478 2475 1428 2131 
L 2881 2131 
z
" transform="scale(0.015625)"/>
      <path id="DejaVuSans-Bold-72" d="M 3138 2547 
Q 2991 2616 2845 2648 
Q 2700 2681 2553 2681 
Q 2122 2681 1889 2404 
Q 1656 2128 1656 1613 
L 1656 0 
L 538 0 
L 538 3500 
L 1656 3500 
L 1656 2925 
Q 1872 3269 2151 3426 
Q 2431 3584 2822 3584 
Q 2878 3584 2943 3579 
Q 3009 3575 3134 3559 
L 3138 2547 
z
" transform="scale(0.015625)"/>
      <path id="DejaVuSans-Bold-6f" d="M 2203 2784 
Q 1831 2784 1636 2517 
Q 1441 2250 1441 1747 
Q 1441 1244 1636 976 
Q 1831 709 2203 709 
Q 2569 709 2762 976 
Q 2956 1244 2956 1747 
Q 2956 2250 2762 2517 
Q 2569 2784 2203 2784 
z
M 2203 3584 
Q 3106 3584 3614 3096 
Q 4122 2609 4122 1747 
Q 4122 884 3614 396 
Q 3106 -91 2203 -91 
Q 1297 -91 786 396 
Q 275 884 275 1747 
Q 275 2609 786 3096 
Q 1297 3584 2203 3584 
z
" transform="scale(0.015625)"/>
      <path id="DejaVuSans-Bold-66" d="M 2841 4863 
L 2841 4128 
L 2222 4128 
Q 1984 4128 1890 4042 
Q 1797 3956 1797 3744 
L 1797 3500 
L 2753 3500 
L 2753 2700 
L 1797 2700 
L 1797 0 
L 678 0 
L 678 2700 
L 122 2700 
L 122 3500 
L 678 3500 
L 678 3744 
Q 678 4316 997 4589 
Q 1316 4863 1984 4863 
L 2841 4863 
z
" transform="scale(0.015625)"/>
      <path id="DejaVuSans-Bold-4a" d="M 588 4666 
L 1791 4666 
L 1791 453 
Q 1791 -419 1317 -850 
Q 844 -1281 -116 -1281 
L -359 -1281 
L -359 -372 
L -172 -372 
Q 203 -372 395 -162 
Q 588 47 588 453 
L 588 4666 
z
" transform="scale(0.015625)"/>
     </defs>
     <use xlink:href="#DejaVuSans-Bold-49"/>
     <use xlink:href="#DejaVuSans-Bold-4f" transform="translate(37.207031 0)"/>
     <use xlink:href="#DejaVuSans-Bold-50" transform="translate(122.216797 0)"/>
     <use xlink:href="#DejaVuSans-Bold-53" transform="translate(195.507812 0)"/>
     <use xlink:href="#DejaVuSans-Bold-20" transform="translate(267.529297 0)"/>
     <use xlink:href="#DejaVuSans-Bold-76" transform="translate(302.34375 0)"/>
     <use xlink:href="#DejaVuSans-Bold-73" transform="translate(367.529297 0)"/>
     <use xlink:href="#DejaVuSans-Bold-20" transform="translate(427.050781 0)"/>
     <use xlink:href="#DejaVuSans-Bold-4e" transform="translate(461.865234 0)"/>
     <use xlink:href="#DejaVuSans-Bold-75" transform="translate(545.556641 0)"/>
     <use xlink:href="#DejaVuSans-Bold-6d" transform="translate(616.748047 0)"/>
     <use xlink:href="#DejaVuSans-Bold-62" transform="translate(720.947266 0)"/>
     <use xlink:href="#DejaVuSans-Bold-65" transform="translate(792.529297 0)"/>
     <use xlink:href="#DejaVuSans-Bold-72" transform="translate(860.351562 0)"/>
     <use xlink:href="#DejaVuSans-Bold-20" transform="translate(909.667969 0)"/>
     <use xlink:href="#DejaVuSans-Bold-6f" transform="translate(944.482422 0)"/>
     <use xlink:href="#DejaVuSans-Bold-66" transform="translate(1013.183594 0)"/>
     <use xlink:href="#DejaVuSans-Bold-20" transform="translate(1056.689453 0)"/>
     <use xlink:href="#DejaVuSans-Bold-4a" transform="translate(1091.503906 0)"/>
     <use xlink:href="#DejaVuSans-Bold-6f" transform="translate(1128.710938 0)"/>
     <use xlink:href="#DejaVuSans-Bold-62" transform="translate(1197.412109 0)"/>
     <use xlink:href="#DejaVuSans-Bold-73" transform="translate(1268.994141 0)"/>
    </g>
   </g>
   <g id="legend_1">
    <g id="text_23">
     <!-- IO Depth -->
     <g style="fill: #262626" transform="translate(451.317187 120.065663) scale(0.1 -0.1)">
      <defs>
       <path id="DejaVuSans-44" d="M 1259 4147 
L 1259 519 
L 2022 519 
Q 2988 519 3436 956 
Q 3884 1394 3884 2338 
Q 3884 3275 3436 3711 
Q 2988 4147 2022 4147 
L 1259 4147 
z
M 628 4666 
L 1925 4666 
Q 3281 4666 3915 4102 
Q 4550 3538 4550 2338 
Q 4550 1131 3912 565 
Q 3275 0 1925 0 
L 628 0 
L 628 4666 
z
" transform="scale(0.015625)"/>
       <path id="DejaVuSans-68" d="M 3513 2113 
L 3513 0 
L 2938 0 
L 2938 2094 
Q 2938 2591 2744 2837 
Q 2550 3084 2163 3084 
Q 1697 3084 1428 2787 
Q 1159 2491 1159 1978 
L 1159 0 
L 581 0 
L 581 4863 
L 1159 4863 
L 1159 2956 
Q 1366 3272 1645 3428 
Q 1925 3584 2291 3584 
Q 2894 3584 3203 3211 
Q 3513 2838 3513 2113 
z
" transform="scale(0.015625)"/>
      </defs>
      <use xlink:href="#DejaVuSans-49"/>
      <use xlink:href="#DejaVuSans-4f" transform="translate(29.492188 0)"/>
      <use xlink:href="#DejaVuSans-20" transform="translate(108.203125 0)"/>
      <use xlink:href="#DejaVuSans-44" transform="translate(139.990234 0)"/>
      <use xlink:href="#DejaVuSans-65" transform="translate(216.992188 0)"/>
      <use xlink:href="#DejaVuSans-70" transform="translate(278.515625 0)"/>
      <use xlink:href="#DejaVuSans-74" transform="translate(341.992188 0)"/>
      <use xlink:href="#DejaVuSans-68" transform="translate(381.201172 0)"/>
     </g>
    </g>
    <g id="line2d_26">
     <path d="M 450.003125 131.243787 
L 460.003125 131.243787 
L 470.003125 131.243787 
" style="fill: none; stroke: #1d1147; stroke-width: 1.5; stroke-linecap: round"/>
    </g>
    <g id="text_24">
     <!-- 1 -->
     <g style="fill: #262626" transform="translate(478.003125 134.743787) scale(0.1 -0.1)">
      <use xlink:href="#DejaVuSans-31"/>
     </g>
    </g>
    <g id="line2d_27">
     <path d="M 450.003125 145.921913 
L 460.003125 145.921913 
L 470.003125 145.921913 
" style="fill: none; stroke: #51127c; stroke-width: 1.5; stroke-linecap: round"/>
    </g>
    <g id="text_25">
     <!-- 4 -->
     <g style="fill: #262626" transform="translate(478.003125 149.421913) scale(0.1 -0.1)">
      <use xlink:href="#DejaVuSans-34"/>
     </g>
    </g>
    <g id="line2d_28">
     <path d="M 450.003125 160.600037 
L 460.003125 160.600037 
L 470.003125 160.600037 
" style="fill: none; stroke: #832681; stroke-width: 1.5; stroke-linecap: round"/>
    </g>
    <g id="text_26">
     <!-- 8 -->
     <g style="fill: #262626" transform="translate(478.003125 164.100037) scale(0.1 -0.1)">
      <use xlink:href="#DejaVuSans-38"/>
     </g>
    </g>
    <g id="line2d_29">
     <path d="M 450.003125 175.278163 
L 460.003125 175.278163 
L 470.003125 175.278163 
" style="fill: none; stroke: #b73779; stroke-width: 1.5; stroke-linecap: round"/>
    </g>
    <g id="text_27">
     <!-- 16 -->
     <g style="fill: #262626" transform="translate(478.003125 178.778163) scale(0.1 -0.1)">
      <use xlink:href="#DejaVuSans-31"/>
      <use xlink:href="#DejaVuSans-36" transform="translate(63.623047 0)"/>
     </g>
    </g>
    <g id="line2d_30">
     <path d="M 450.003125 189.956288 
L 460.003125 189.956288 
L 470.003125 189.956288 
" style="fill: none; stroke: #e75263; stroke-width: 1.5; stroke-linecap: round"/>
    </g>
    <g id="text_28">
     <!-- 32 -->
     <g style="fill: #262626" transform="translate(478.003125 193.456288) scale(0.1 -0.1)">
      <use xlink:href="#DejaVuSans-33"/>
      <use xlink:href="#DejaVuSans-32" transform="translate(63.623047 0)"/>
     </g>
    </g>
    <g id="line2d_31">
     <path d="M 450.003125 204.634412 
L 460.003125 204.634412 
L 470.003125 204.634412 
" style="fill: none; stroke: #fc8961; stroke-width: 1.5; stroke-linecap: round"/>
    </g>
    <g id="text_29">
     <!-- 64 -->
     <g style="fill: #262626" transform="translate(478.003125 208.134412) scale(0.1 -0.1)">
      <use xlink:href="#DejaVuSans-36"/>
      <use xlink:href="#DejaVuSans-34" transform="translate(63.623047 0)"/>
     </g>
    </g>
    <g id="line2d_32">
     <path d="M 450.003125 219.312537 
L 460.003125 219.312537 
L 470.003125 219.312537 
" style="fill: none; stroke: #fec488; stroke-width: 1.5; stroke-linecap: round"/>
    </g>
    <g id="text_30">
     <!-- 128 -->
     <g style="fill: #262626" transform="translate(478.003125 222.812537) scale(0.1 -0.1)">
      <use xlink:href="#DejaVuSans-31"/>
      <use xlink:href="#DejaVuSans-32" transform="translate(63.623047 0)"/>
      <use xlink:href="#DejaVuSans-38" transform="translate(127.246094 0)"/>
     </g>
    </g>
   </g>
  </g>
 </g>
 <defs>
  <clipPath id="p7782a7cd12">
   <rect x="59.690625" y="35.623725" width="357.12" height="266.112"/>
  </clipPath>
 </defs>
</svg>
