<?xml version="1.0" encoding="utf-8" standalone="no"?>
<!DOCTYPE svg PUBLIC "-//W3C//DTD SVG 1.1//EN"
  "http://www.w3.org/Graphics/SVG/1.1/DTD/svg11.dtd">
<svg xmlns:xlink="http://www.w3.org/1999/xlink" width="508.290625pt" height="339.291975pt" viewBox="0 0 508.290625 339.291975" xmlns="http://www.w3.org/2000/svg" version="1.1">
 <metadata>
  <rdf:RDF xmlns:dc="http://purl.org/dc/elements/1.1/" xmlns:cc="http://creativecommons.org/ns#" xmlns:rdf="http://www.w3.org/1999/02/22-rdf-syntax-ns#">
   <cc:Work>
    <dc:type rdf:resource="http://purl.org/dc/dcmitype/StillImage"/>
    <dc:date>2025-09-11T11:34:25.972759</dc:date>
    <dc:format>image/svg+xml</dc:format>
    <dc:creator>
     <cc:Agent>
      <dc:title>Matplotlib v3.10.6, https://matplotlib.org/</dc:title>
     </cc:Agent>
    </dc:creator>
   </cc:Work>
  </rdf:RDF>
 </metadata>
 <defs>
  <style type="text/css">*{stroke-linejoin: round; stroke-linecap: butt}</style>
 </defs>
 <g id="figure_1">
  <g id="patch_1">
   <path d="M 0 339.291975 
L 508.290625 339.291975 
L 508.290625 0 
L 0 0 
z
" style="fill: #ffffff"/>
  </g>
  <g id="axes_1">
   <g id="patch_2">
    <path d="M 59.690625 301.735725 
L 416.810625 301.735725 
L 416.810625 35.623725 
L 59.690625 35.623725 
z
" style="fill: #ffffff"/>
   </g>
   <g id="matplotlib.axis_1">
    <g id="xtick_1">
     <g id="line2d_1">
      <path d="M 75.923352 301.735725 
L 75.923352 35.623725 
" clip-path="url(#pd0e2257027)" style="fill: none; stroke: #cccccc; stroke-width: 0.8; stroke-linecap: round"/>
     </g>
     <g id="text_1">
      <!-- 16 -->
      <g style="fill: #262626" transform="translate(69.560852 316.334162) scale(0.1 -0.1)">
       <defs>
        <path id="DejaVuSans-31" d="M 794 531 
L 1825 531 
L 1825 4091 
L 703 3866 
L 703 4441 
L 1819 4666 
L 2450 4666 
L 2450 531 
L 3481 531 
L 3481 0 
L 794 0 
L 794 531 
z
" transform="scale(0.015625)"/>
        <path id="DejaVuSans-36" d="M 2113 2584 
Q 1688 2584 1439 2293 
Q 1191 2003 1191 1497 
Q 1191 994 1439 701 
Q 1688 409 2113 409 
Q 2538 409 2786 701 
Q 3034 994 3034 1497 
Q 3034 2003 2786 2293 
Q 2538 2584 2113 2584 
z
M 3366 4563 
L 3366 3988 
Q 3128 4100 2886 4159 
Q 2644 4219 2406 4219 
Q 1781 4219 1451 3797 
Q 1122 3375 1075 2522 
Q 1259 2794 1537 2939 
Q 1816 3084 2150 3084 
Q 2853 3084 3261 2657 
Q 3669 2231 3669 1497 
Q 3669 778 3244 343 
Q 2819 -91 2113 -91 
Q 1303 -91 875 529 
Q 447 1150 447 2328 
Q 447 3434 972 4092 
Q 1497 4750 2381 4750 
Q 2619 4750 2861 4703 
Q 3103 4656 3366 4563 
z
" transform="scale(0.015625)"/>
       </defs>
       <use xlink:href="#DejaVuSans-31"/>
       <use xlink:href="#DejaVuSans-36" transform="translate(63.623047 0)"/>
      </g>
     </g>
    </g>
    <g id="xtick_2">
     <g id="line2d_2">
      <path d="M 122.302573 301.735725 
L 122.302573 35.623725 
" clip-path="url(#pd0e2257027)" style="fill: none; stroke: #cccccc; stroke-width: 0.8; stroke-linecap: round"/>
     </g>
     <g id="text_2">
      <!-- 32 -->
      <g style="fill: #262626" transform="translate(115.940073 316.334162) scale(0.1 -0.1)">
       <defs>
        <path id="DejaVuSans-33" d="M 2597 2516 
Q 3050 2419 3304 2112 
Q 3559 1806 3559 1356 
Q 3559 666 3084 287 
Q 2609 -91 1734 -91 
Q 1441 -91 1130 -33 
Q 819 25 488 141 
L 488 750 
Q 750 597 1062 519 
Q 1375 441 1716 441 
Q 2309 441 2620 675 
Q 2931 909 2931 1356 
Q 2931 1769 2642 2001 
Q 2353 2234 1838 2234 
L 1294 2234 
L 1294 2753 
L 1863 2753 
Q 2328 2753 2575 2939 
Q 2822 3125 2822 3475 
Q 2822 3834 2567 4026 
Q 2313 4219 1838 4219 
Q 1578 4219 1281 4162 
Q 984 4106 628 3988 
L 628 4550 
Q 988 4650 1302 4700 
Q 1616 4750 1894 4750 
Q 2613 4750 3031 4423 
Q 3450 4097 3450 3541 
Q 3450 3153 3228 2886 
Q 3006 2619 2597 2516 
z
" transform="scale(0.015625)"/>
        <path id="DejaVuSans-32" d="M 1228 531 
L 3431 531 
L 3431 0 
L 469 0 
L 469 531 
Q 828 903 1448 1529 
Q 2069 2156 2228 2338 
Q 2531 2678 2651 2914 
Q 2772 3150 2772 3378 
Q 2772 3750 2511 3984 
Q 2250 4219 1831 4219 
Q 1534 4219 1204 4116 
Q 875 4013 500 3803 
L 500 4441 
Q 881 4594 1212 4672 
Q 1544 4750 1819 4750 
Q 2544 4750 2975 4387 
Q 3406 4025 3406 3419 
Q 3406 3131 3298 2873 
Q 3191 2616 2906 2266 
Q 2828 2175 2409 1742 
Q 1991 1309 1228 531 
z
" transform="scale(0.015625)"/>
       </defs>
       <use xlink:href="#DejaVuSans-33"/>
       <use xlink:href="#DejaVuSans-32" transform="translate(63.623047 0)"/>
      </g>
     </g>
    </g>
    <g id="xtick_3">
     <g id="line2d_3">
      <path d="M 400.577898 301.735725 
L 400.577898 35.623725 
" clip-path="url(#pd0e2257027)" style="fill: none; stroke: #cccccc; stroke-width: 0.8; stroke-linecap: round"/>
     </g>
     <g id="text_3">
      <!-- 128 -->
      <g style="fill: #262626" transform="translate(391.034148 316.334162) scale(0.1 -0.1)">
       <defs>
        <path id="DejaVuSans-38" d="M 2034 2216 
Q 1584 2216 1326 1975 
Q 1069 1734 1069 1313 
Q 1069 891 1326 650 
Q 1584 409 2034 409 
Q 2484 409 2743 651 
Q 3003 894 3003 1313 
Q 3003 1734 2745 1975 
Q 2488 2216 2034 2216 
z
M 1403 2484 
Q 997 2584 770 2862 
Q 544 3141 544 3541 
Q 544 4100 942 4425 
Q 1341 4750 2034 4750 
Q 2731 4750 3128 4425 
Q 3525 4100 3525 3541 
Q 3525 3141 3298 2862 
Q 3072 2584 2669 2484 
Q 3125 2378 3379 2068 
Q 3634 1759 3634 1313 
Q 3634 634 3220 271 
Q 2806 -91 2034 -91 
Q 1263 -91 848 271 
Q 434 634 434 1313 
Q 434 1759 690 2068 
Q 947 2378 1403 2484 
z
M 1172 3481 
Q 1172 3119 1398 2916 
Q 1625 2713 2034 2713 
Q 2441 2713 2670 2916 
Q 2900 3119 2900 3481 
Q 2900 3844 2670 4047 
Q 2441 4250 2034 4250 
Q 1625 4250 1398 4047 
Q 1172 3844 1172 3481 
z
" transform="scale(0.015625)"/>
       </defs>
       <use xlink:href="#DejaVuSans-31"/>
       <use xlink:href="#DejaVuSans-32" transform="translate(63.623047 0)"/>
       <use xlink:href="#DejaVuSans-38" transform="translate(127.246094 0)"/>
      </g>
     </g>
    </g>
    <g id="xtick_4">
     <g id="line2d_4">
      <path d="M 215.061015 301.735725 
L 215.061015 35.623725 
" clip-path="url(#pd0e2257027)" style="fill: none; stroke: #cccccc; stroke-width: 0.8; stroke-linecap: round"/>
     </g>
     <g id="text_4">
      <!-- 64 -->
      <g style="fill: #262626" transform="translate(208.698515 316.334162) scale(0.1 -0.1)">
       <defs>
        <path id="DejaVuSans-34" d="M 2419 4116 
L 825 1625 
L 2419 1625 
L 2419 4116 
z
M 2253 4666 
L 3047 4666 
L 3047 1625 
L 3713 1625 
L 3713 1100 
L 3047 1100 
L 3047 0 
L 2419 0 
L 2419 1100 
L 313 1100 
L 313 1709 
L 2253 4666 
z
" transform="scale(0.015625)"/>
       </defs>
       <use xlink:href="#DejaVuSans-36"/>
       <use xlink:href="#DejaVuSans-34" transform="translate(63.623047 0)"/>
      </g>
     </g>
    </g>
    <g id="text_5">
     <!-- Number of Jobs -->
     <g style="fill: #262626" transform="translate(199.85375 330.012287) scale(0.1 -0.1)">
      <defs>
       <path id="DejaVuSans-4e" d="M 628 4666 
L 1478 4666 
L 3547 763 
L 3547 4666 
L 4159 4666 
L 4159 0 
L 3309 0 
L 1241 3903 
L 1241 0 
L 628 0 
L 628 4666 
z
" transform="scale(0.015625)"/>
       <path id="DejaVuSans-75" d="M 544 1381 
L 544 3500 
L 1119 3500 
L 1119 1403 
Q 1119 906 1312 657 
Q 1506 409 1894 409 
Q 2359 409 2629 706 
Q 2900 1003 2900 1516 
L 2900 3500 
L 3475 3500 
L 3475 0 
L 2900 0 
L 2900 538 
Q 2691 219 2414 64 
Q 2138 -91 1772 -91 
Q 1169 -91 856 284 
Q 544 659 544 1381 
z
M 1991 3584 
L 1991 3584 
z
" transform="scale(0.015625)"/>
       <path id="DejaVuSans-6d" d="M 3328 2828 
Q 3544 3216 3844 3400 
Q 4144 3584 4550 3584 
Q 5097 3584 5394 3201 
Q 5691 2819 5691 2113 
L 5691 0 
L 5113 0 
L 5113 2094 
Q 5113 2597 4934 2840 
Q 4756 3084 4391 3084 
Q 3944 3084 3684 2787 
Q 3425 2491 3425 1978 
L 3425 0 
L 2847 0 
L 2847 2094 
Q 2847 2600 2669 2842 
Q 2491 3084 2119 3084 
Q 1678 3084 1418 2786 
Q 1159 2488 1159 1978 
L 1159 0 
L 581 0 
L 581 3500 
L 1159 3500 
L 1159 2956 
Q 1356 3278 1631 3431 
Q 1906 3584 2284 3584 
Q 2666 3584 2933 3390 
Q 3200 3197 3328 2828 
z
" transform="scale(0.015625)"/>
       <path id="DejaVuSans-62" d="M 3116 1747 
Q 3116 2381 2855 2742 
Q 2594 3103 2138 3103 
Q 1681 3103 1420 2742 
Q 1159 2381 1159 1747 
Q 1159 1113 1420 752 
Q 1681 391 2138 391 
Q 2594 391 2855 752 
Q 3116 1113 3116 1747 
z
M 1159 2969 
Q 1341 3281 1617 3432 
Q 1894 3584 2278 3584 
Q 2916 3584 3314 3078 
Q 3713 2572 3713 1747 
Q 3713 922 3314 415 
Q 2916 -91 2278 -91 
Q 1894 -91 1617 61 
Q 1341 213 1159 525 
L 1159 0 
L 581 0 
L 581 4863 
L 1159 4863 
L 1159 2969 
z
" transform="scale(0.015625)"/>
       <path id="DejaVuSans-65" d="M 3597 1894 
L 3597 1613 
L 953 1613 
Q 991 1019 1311 708 
Q 1631 397 2203 397 
Q 2534 397 2845 478 
Q 3156 559 3463 722 
L 3463 178 
Q 3153 47 2828 -22 
Q 2503 -91 2169 -91 
Q 1331 -91 842 396 
Q 353 884 353 1716 
Q 353 2575 817 3079 
Q 1281 3584 2069 3584 
Q 2775 3584 3186 3129 
Q 3597 2675 3597 1894 
z
M 3022 2063 
Q 3016 2534 2758 2815 
Q 2500 3097 2075 3097 
Q 1594 3097 1305 2825 
Q 1016 2553 972 2059 
L 3022 2063 
z
" transform="scale(0.015625)"/>
       <path id="DejaVuSans-72" d="M 2631 2963 
Q 2534 3019 2420 3045 
Q 2306 3072 2169 3072 
Q 1681 3072 1420 2755 
Q 1159 2438 1159 1844 
L 1159 0 
L 581 0 
L 581 3500 
L 1159 3500 
L 1159 2956 
Q 1341 3275 1631 3429 
Q 1922 3584 2338 3584 
Q 2397 3584 2469 3576 
Q 2541 3569 2628 3553 
L 2631 2963 
z
" transform="scale(0.015625)"/>
       <path id="DejaVuSans-20" transform="scale(0.015625)"/>
       <path id="DejaVuSans-6f" d="M 1959 3097 
Q 1497 3097 1228 2736 
Q 959 2375 959 1747 
Q 959 1119 1226 758 
Q 1494 397 1959 397 
Q 2419 397 2687 759 
Q 2956 1122 2956 1747 
Q 2956 2369 2687 2733 
Q 2419 3097 1959 3097 
z
M 1959 3584 
Q 2709 3584 3137 3096 
Q 3566 2609 3566 1747 
Q 3566 888 3137 398 
Q 2709 -91 1959 -91 
Q 1206 -91 779 398 
Q 353 888 353 1747 
Q 353 2609 779 3096 
Q 1206 3584 1959 3584 
z
" transform="scale(0.015625)"/>
       <path id="DejaVuSans-66" d="M 2375 4863 
L 2375 4384 
L 1825 4384 
Q 1516 4384 1395 4259 
Q 1275 4134 1275 3809 
L 1275 3500 
L 2222 3500 
L 2222 3053 
L 1275 3053 
L 1275 0 
L 697 0 
L 697 3053 
L 147 3053 
L 147 3500 
L 697 3500 
L 697 3744 
Q 697 4328 969 4595 
Q 1241 4863 1831 4863 
L 2375 4863 
z
" transform="scale(0.015625)"/>
       <path id="DejaVuSans-4a" d="M 628 4666 
L 1259 4666 
L 1259 325 
Q 1259 -519 939 -900 
Q 619 -1281 -91 -1281 
L -331 -1281 
L -331 -750 
L -134 -750 
Q 284 -750 456 -515 
Q 628 -281 628 325 
L 628 4666 
z
" transform="scale(0.015625)"/>
       <path id="DejaVuSans-73" d="M 2834 3397 
L 2834 2853 
Q 2591 2978 2328 3040 
Q 2066 3103 1784 3103 
Q 1356 3103 1142 2972 
Q 928 2841 928 2578 
Q 928 2378 1081 2264 
Q 1234 2150 1697 2047 
L 1894 2003 
Q 2506 1872 2764 1633 
Q 3022 1394 3022 966 
Q 3022 478 2636 193 
Q 2250 -91 1575 -91 
Q 1294 -91 989 -36 
Q 684 19 347 128 
L 347 722 
Q 666 556 975 473 
Q 1284 391 1588 391 
Q 1994 391 2212 530 
Q 2431 669 2431 922 
Q 2431 1156 2273 1281 
Q 2116 1406 1581 1522 
L 1381 1569 
Q 847 1681 609 1914 
Q 372 2147 372 2553 
Q 372 3047 722 3315 
Q 1072 3584 1716 3584 
Q 2034 3584 2315 3537 
Q 2597 3491 2834 3397 
z
" transform="scale(0.015625)"/>
      </defs>
      <use xlink:href="#DejaVuSans-4e"/>
      <use xlink:href="#DejaVuSans-75" transform="translate(74.804688 0)"/>
      <use xlink:href="#DejaVuSans-6d" transform="translate(138.183594 0)"/>
      <use xlink:href="#DejaVuSans-62" transform="translate(235.595703 0)"/>
      <use xlink:href="#DejaVuSans-65" transform="translate(299.072266 0)"/>
      <use xlink:href="#DejaVuSans-72" transform="translate(360.595703 0)"/>
      <use xlink:href="#DejaVuSans-20" transform="translate(401.708984 0)"/>
      <use xlink:href="#DejaVuSans-6f" transform="translate(433.496094 0)"/>
      <use xlink:href="#DejaVuSans-66" transform="translate(494.677734 0)"/>
      <use xlink:href="#DejaVuSans-20" transform="translate(529.882812 0)"/>
      <use xlink:href="#DejaVuSans-4a" transform="translate(561.669922 0)"/>
      <use xlink:href="#DejaVuSans-6f" transform="translate(591.162109 0)"/>
      <use xlink:href="#DejaVuSans-62" transform="translate(652.34375 0)"/>
      <use xlink:href="#DejaVuSans-73" transform="translate(715.820312 0)"/>
     </g>
    </g>
   </g>
   <g id="matplotlib.axis_2">
    <g id="ytick_1">
     <g id="line2d_5">
      <path d="M 59.690625 299.096315 
L 416.810625 299.096315 
" clip-path="url(#pd0e2257027)" style="fill: none; stroke: #cccccc; stroke-width: 0.8; stroke-linecap: round"/>
     </g>
     <g id="text_6">
      <!-- 52000 -->
      <g style="fill: #262626" transform="translate(20.878125 302.895534) scale(0.1 -0.1)">
       <defs>
        <path id="DejaVuSans-35" d="M 691 4666 
L 3169 4666 
L 3169 4134 
L 1269 4134 
L 1269 2991 
Q 1406 3038 1543 3061 
Q 1681 3084 1819 3084 
Q 2600 3084 3056 2656 
Q 3513 2228 3513 1497 
Q 3513 744 3044 326 
Q 2575 -91 1722 -91 
Q 1428 -91 1123 -41 
Q 819 9 494 109 
L 494 744 
Q 775 591 1075 516 
Q 1375 441 1709 441 
Q 2250 441 2565 725 
Q 2881 1009 2881 1497 
Q 2881 1984 2565 2268 
Q 2250 2553 1709 2553 
Q 1456 2553 1204 2497 
Q 953 2441 691 2322 
L 691 4666 
z
" transform="scale(0.015625)"/>
        <path id="DejaVuSans-30" d="M 2034 4250 
Q 1547 4250 1301 3770 
Q 1056 3291 1056 2328 
Q 1056 1369 1301 889 
Q 1547 409 2034 409 
Q 2525 409 2770 889 
Q 3016 1369 3016 2328 
Q 3016 3291 2770 3770 
Q 2525 4250 2034 4250 
z
M 2034 4750 
Q 2819 4750 3233 4129 
Q 3647 3509 3647 2328 
Q 3647 1150 3233 529 
Q 2819 -91 2034 -91 
Q 1250 -91 836 529 
Q 422 1150 422 2328 
Q 422 3509 836 4129 
Q 1250 4750 2034 4750 
z
" transform="scale(0.015625)"/>
       </defs>
       <use xlink:href="#DejaVuSans-35"/>
       <use xlink:href="#DejaVuSans-32" transform="translate(63.623047 0)"/>
       <use xlink:href="#DejaVuSans-30" transform="translate(127.246094 0)"/>
       <use xlink:href="#DejaVuSans-30" transform="translate(190.869141 0)"/>
       <use xlink:href="#DejaVuSans-30" transform="translate(254.492188 0)"/>
      </g>
     </g>
    </g>
    <g id="ytick_2">
     <g id="line2d_6">
      <path d="M 59.690625 269.498224 
L 416.810625 269.498224 
" clip-path="url(#pd0e2257027)" style="fill: none; stroke: #cccccc; stroke-width: 0.8; stroke-linecap: round"/>
     </g>
     <g id="text_7">
      <!-- 54000 -->
      <g style="fill: #262626" transform="translate(20.878125 273.297443) scale(0.1 -0.1)">
       <use xlink:href="#DejaVuSans-35"/>
       <use xlink:href="#DejaVuSans-34" transform="translate(63.623047 0)"/>
       <use xlink:href="#DejaVuSans-30" transform="translate(127.246094 0)"/>
       <use xlink:href="#DejaVuSans-30" transform="translate(190.869141 0)"/>
       <use xlink:href="#DejaVuSans-30" transform="translate(254.492188 0)"/>
      </g>
     </g>
    </g>
    <g id="ytick_3">
     <g id="line2d_7">
      <path d="M 59.690625 239.900132 
L 416.810625 239.900132 
" clip-path="url(#pd0e2257027)" style="fill: none; stroke: #cccccc; stroke-width: 0.8; stroke-linecap: round"/>
     </g>
     <g id="text_8">
      <!-- 56000 -->
      <g style="fill: #262626" transform="translate(20.878125 243.699351) scale(0.1 -0.1)">
       <use xlink:href="#DejaVuSans-35"/>
       <use xlink:href="#DejaVuSans-36" transform="translate(63.623047 0)"/>
       <use xlink:href="#DejaVuSans-30" transform="translate(127.246094 0)"/>
       <use xlink:href="#DejaVuSans-30" transform="translate(190.869141 0)"/>
       <use xlink:href="#DejaVuSans-30" transform="translate(254.492188 0)"/>
      </g>
     </g>
    </g>
    <g id="ytick_4">
     <g id="line2d_8">
      <path d="M 59.690625 210.302041 
L 416.810625 210.302041 
" clip-path="url(#pd0e2257027)" style="fill: none; stroke: #cccccc; stroke-width: 0.8; stroke-linecap: round"/>
     </g>
     <g id="text_9">
      <!-- 58000 -->
      <g style="fill: #262626" transform="translate(20.878125 214.10126) scale(0.1 -0.1)">
       <use xlink:href="#DejaVuSans-35"/>
       <use xlink:href="#DejaVuSans-38" transform="translate(63.623047 0)"/>
       <use xlink:href="#DejaVuSans-30" transform="translate(127.246094 0)"/>
       <use xlink:href="#DejaVuSans-30" transform="translate(190.869141 0)"/>
       <use xlink:href="#DejaVuSans-30" transform="translate(254.492188 0)"/>
      </g>
     </g>
    </g>
    <g id="ytick_5">
     <g id="line2d_9">
      <path d="M 59.690625 180.70395 
L 416.810625 180.70395 
" clip-path="url(#pd0e2257027)" style="fill: none; stroke: #cccccc; stroke-width: 0.8; stroke-linecap: round"/>
     </g>
     <g id="text_10">
      <!-- 60000 -->
      <g style="fill: #262626" transform="translate(20.878125 184.503168) scale(0.1 -0.1)">
       <use xlink:href="#DejaVuSans-36"/>
       <use xlink:href="#DejaVuSans-30" transform="translate(63.623047 0)"/>
       <use xlink:href="#DejaVuSans-30" transform="translate(127.246094 0)"/>
       <use xlink:href="#DejaVuSans-30" transform="translate(190.869141 0)"/>
       <use xlink:href="#DejaVuSans-30" transform="translate(254.492188 0)"/>
      </g>
     </g>
    </g>
    <g id="ytick_6">
     <g id="line2d_10">
      <path d="M 59.690625 151.105858 
L 416.810625 151.105858 
" clip-path="url(#pd0e2257027)" style="fill: none; stroke: #cccccc; stroke-width: 0.8; stroke-linecap: round"/>
     </g>
     <g id="text_11">
      <!-- 62000 -->
      <g style="fill: #262626" transform="translate(20.878125 154.905077) scale(0.1 -0.1)">
       <use xlink:href="#DejaVuSans-36"/>
       <use xlink:href="#DejaVuSans-32" transform="translate(63.623047 0)"/>
       <use xlink:href="#DejaVuSans-30" transform="translate(127.246094 0)"/>
       <use xlink:href="#DejaVuSans-30" transform="translate(190.869141 0)"/>
       <use xlink:href="#DejaVuSans-30" transform="translate(254.492188 0)"/>
      </g>
     </g>
    </g>
    <g id="ytick_7">
     <g id="line2d_11">
      <path d="M 59.690625 121.507767 
L 416.810625 121.507767 
" clip-path="url(#pd0e2257027)" style="fill: none; stroke: #cccccc; stroke-width: 0.8; stroke-linecap: round"/>
     </g>
     <g id="text_12">
      <!-- 64000 -->
      <g style="fill: #262626" transform="translate(20.878125 125.306986) scale(0.1 -0.1)">
       <use xlink:href="#DejaVuSans-36"/>
       <use xlink:href="#DejaVuSans-34" transform="translate(63.623047 0)"/>
       <use xlink:href="#DejaVuSans-30" transform="translate(127.246094 0)"/>
       <use xlink:href="#DejaVuSans-30" transform="translate(190.869141 0)"/>
       <use xlink:href="#DejaVuSans-30" transform="translate(254.492188 0)"/>
      </g>
     </g>
    </g>
    <g id="ytick_8">
     <g id="line2d_12">
      <path d="M 59.690625 91.909675 
L 416.810625 91.909675 
" clip-path="url(#pd0e2257027)" style="fill: none; stroke: #cccccc; stroke-width: 0.8; stroke-linecap: round"/>
     </g>
     <g id="text_13">
      <!-- 66000 -->
      <g style="fill: #262626" transform="translate(20.878125 95.708894) scale(0.1 -0.1)">
       <use xlink:href="#DejaVuSans-36"/>
       <use xlink:href="#DejaVuSans-36" transform="translate(63.623047 0)"/>
       <use xlink:href="#DejaVuSans-30" transform="translate(127.246094 0)"/>
       <use xlink:href="#DejaVuSans-30" transform="translate(190.869141 0)"/>
       <use xlink:href="#DejaVuSans-30" transform="translate(254.492188 0)"/>
      </g>
     </g>
    </g>
    <g id="ytick_9">
     <g id="line2d_13">
      <path d="M 59.690625 62.311584 
L 416.810625 62.311584 
" clip-path="url(#pd0e2257027)" style="fill: none; stroke: #cccccc; stroke-width: 0.8; stroke-linecap: round"/>
     </g>
     <g id="text_14">
      <!-- 68000 -->
      <g style="fill: #262626" transform="translate(20.878125 66.110803) scale(0.1 -0.1)">
       <use xlink:href="#DejaVuSans-36"/>
       <use xlink:href="#DejaVuSans-38" transform="translate(63.623047 0)"/>
       <use xlink:href="#DejaVuSans-30" transform="translate(127.246094 0)"/>
       <use xlink:href="#DejaVuSans-30" transform="translate(190.869141 0)"/>
       <use xlink:href="#DejaVuSans-30" transform="translate(254.492188 0)"/>
      </g>
     </g>
    </g>
    <g id="text_15">
     <!-- IOPS -->
     <g style="fill: #262626" transform="translate(14.798438 180.279725) rotate(-90) scale(0.1 -0.1)">
      <defs>
       <path id="DejaVuSans-49" d="M 628 4666 
L 1259 4666 
L 1259 0 
L 628 0 
L 628 4666 
z
" transform="scale(0.015625)"/>
       <path id="DejaVuSans-4f" d="M 2522 4238 
Q 1834 4238 1429 3725 
Q 1025 3213 1025 2328 
Q 1025 1447 1429 934 
Q 1834 422 2522 422 
Q 3209 422 3611 934 
Q 4013 1447 4013 2328 
Q 4013 3213 3611 3725 
Q 3209 4238 2522 4238 
z
M 2522 4750 
Q 3503 4750 4090 4092 
Q 4678 3434 4678 2328 
Q 4678 1225 4090 567 
Q 3503 -91 2522 -91 
Q 1538 -91 948 565 
Q 359 1222 359 2328 
Q 359 3434 948 4092 
Q 1538 4750 2522 4750 
z
" transform="scale(0.015625)"/>
       <path id="DejaVuSans-50" d="M 1259 4147 
L 1259 2394 
L 2053 2394 
Q 2494 2394 2734 2622 
Q 2975 2850 2975 3272 
Q 2975 3691 2734 3919 
Q 2494 4147 2053 4147 
L 1259 4147 
z
M 628 4666 
L 2053 4666 
Q 2838 4666 3239 4311 
Q 3641 3956 3641 3272 
Q 3641 2581 3239 2228 
Q 2838 1875 2053 1875 
L 1259 1875 
L 1259 0 
L 628 0 
L 628 4666 
z
" transform="scale(0.015625)"/>
       <path id="DejaVuSans-53" d="M 3425 4513 
L 3425 3897 
Q 3066 4069 2747 4153 
Q 2428 4238 2131 4238 
Q 1616 4238 1336 4038 
Q 1056 3838 1056 3469 
Q 1056 3159 1242 3001 
Q 1428 2844 1947 2747 
L 2328 2669 
Q 3034 2534 3370 2195 
Q 3706 1856 3706 1288 
Q 3706 609 3251 259 
Q 2797 -91 1919 -91 
Q 1588 -91 1214 -16 
Q 841 59 441 206 
L 441 856 
Q 825 641 1194 531 
Q 1563 422 1919 422 
Q 2459 422 2753 634 
Q 3047 847 3047 1241 
Q 3047 1584 2836 1778 
Q 2625 1972 2144 2069 
L 1759 2144 
Q 1053 2284 737 2584 
Q 422 2884 422 3419 
Q 422 4038 858 4394 
Q 1294 4750 2059 4750 
Q 2388 4750 2728 4690 
Q 3069 4631 3425 4513 
z
" transform="scale(0.015625)"/>
      </defs>
      <use xlink:href="#DejaVuSans-49"/>
      <use xlink:href="#DejaVuSans-4f" transform="translate(29.492188 0)"/>
      <use xlink:href="#DejaVuSans-50" transform="translate(108.203125 0)"/>
      <use xlink:href="#DejaVuSans-53" transform="translate(168.505859 0)"/>
     </g>
    </g>
   </g>
   <g id="FillBetweenPolyCollection_1"/>
   <g id="FillBetweenPolyCollection_2"/>
   <g id="FillBetweenPolyCollection_3"/>
   <g id="FillBetweenPolyCollection_4"/>
   <g id="FillBetweenPolyCollection_5"/>
   <g id="FillBetweenPolyCollection_6"/>
   <g id="FillBetweenPolyCollection_7"/>
   <g id="line2d_14">
    <path d="M 75.923352 243.955071 
L 122.302573 160.088879 
L 215.061015 244.413841 
L 400.577898 202.932116 
" clip-path="url(#pd0e2257027)" style="fill: none; stroke: #4c02a1; stroke-width: 1.5; stroke-linecap: round"/>
   </g>
   <g id="line2d_15">
    <path d="M 75.923352 156.122735 
L 122.302573 84.110578 
L 215.061015 139.311019 
L 400.577898 229.733188 
" clip-path="url(#pd0e2257027)" style="fill: none; stroke: #7e03a8; stroke-width: 1.5; stroke-linecap: round"/>
   </g>
   <g id="line2d_16">
    <path d="M 75.923352 149.566757 
L 122.302573 145.659809 
L 215.061015 244.073463 
L 400.577898 222.674043 
" clip-path="url(#pd0e2257027)" style="fill: none; stroke: #aa2395; stroke-width: 1.5; stroke-linecap: round"/>
   </g>
   <g id="line2d_17">
    <path d="M 75.923352 264.481347 
L 122.302573 146.296168 
L 215.061015 139.533005 
L 400.577898 248.098804 
" clip-path="url(#pd0e2257027)" style="fill: none; stroke: #cc4778; stroke-width: 1.5; stroke-linecap: round"/>
   </g>
   <g id="line2d_18">
    <path d="M 75.923352 247.344052 
L 122.302573 94.913882 
L 215.061015 164.129018 
L 400.577898 152.245385 
" clip-path="url(#pd0e2257027)" style="fill: none; stroke: #e66c5c; stroke-width: 1.5; stroke-linecap: round"/>
   </g>
   <g id="line2d_19">
    <path d="M 75.923352 289.639725 
L 122.302573 141.30889 
L 215.061015 137.993904 
L 400.577898 190.841296 
" clip-path="url(#pd0e2257027)" style="fill: none; stroke: #f89540; stroke-width: 1.5; stroke-linecap: round"/>
   </g>
   <g id="line2d_20">
    <path d="M 75.923352 47.719725 
L 122.302573 117.023656 
L 215.061015 135.892439 
L 400.577898 179.534825 
" clip-path="url(#pd0e2257027)" style="fill: none; stroke: #fdc527; stroke-width: 1.5; stroke-linecap: round"/>
   </g>
   <g id="line2d_21"/>
   <g id="line2d_22"/>
   <g id="line2d_23"/>
   <g id="line2d_24"/>
   <g id="line2d_25"/>
   <g id="line2d_26"/>
   <g id="line2d_27"/>
   <g id="text_16">
    <path d="M 118.472142 171.002764 
L 119.251744 169.593033 
L 114.384002 166.901101 
L 113.843242 168.605397 
L 113.05702 168.170604 
L 113.593243 166.474513 
L 114.07038 165.61172 
L 119.724344 168.738444 
L 120.503946 167.328713 
L 121.230005 167.730234 
L 119.198202 171.404285 
L 118.472142 171.002764 
z
" clip-path="url(#pd0e2257027)" style="fill: #4c02a1; stroke: #ffffff; stroke-width: 5"/>
    <path d="M 118.472142 171.002764 
L 119.251744 169.593033 
L 114.384002 166.901101 
L 113.843242 168.605397 
L 113.05702 168.170604 
L 113.593243 166.474513 
L 114.07038 165.61172 
L 119.724344 168.738444 
L 120.503946 167.328713 
L 121.230005 167.730234 
L 119.198202 171.404285 
L 118.472142 171.002764 
z
" clip-path="url(#pd0e2257027)" style="fill: #4c02a1"/>
   </g>
   <g id="text_17">
    <path d="M 160.29067 102.444376 
L 156.159915 104.515416 
L 158.300223 105.78911 
L 160.29067 102.444376 
z
M 160.507258 101.573233 
L 161.573383 102.207683 
L 159.143455 106.290917 
L 160.037712 106.823088 
L 159.618208 107.52802 
L 158.723951 106.995849 
L 157.84499 108.472849 
L 157.001758 107.971042 
L 157.880719 106.494042 
L 155.052935 104.811231 
L 155.53956 103.99351 
L 160.507258 101.573233 
z
" clip-path="url(#pd0e2257027)" style="fill: #7e03a8; stroke: #ffffff; stroke-width: 5"/>
    <path d="M 160.29067 102.444376 
L 156.159915 104.515416 
L 158.300223 105.78911 
L 160.29067 102.444376 
z
M 160.507258 101.573233 
L 161.573383 102.207683 
L 159.143455 106.290917 
L 160.037712 106.823088 
L 159.618208 107.52802 
L 158.723951 106.995849 
L 157.84499 108.472849 
L 157.001758 107.971042 
L 157.880719 106.494042 
L 155.052935 104.811231 
L 155.53956 103.99351 
L 160.507258 101.573233 
z
" clip-path="url(#pd0e2257027)" style="fill: #7e03a8"/>
   </g>
   <g id="text_18">
    <path d="M 198.58415 225.566923 
Q 198.101884 225.055255 197.551358 225.020178 
Q 197.001904 224.986239 196.52321 225.437426 
Q 196.043379 225.889684 196.044779 226.440184 
Q 196.047252 226.99182 196.529518 227.503488 
Q 197.011783 228.015157 197.564518 228.050298 
Q 198.119461 228.085505 198.595881 227.636462 
Q 199.074576 227.185276 199.072103 226.633639 
Q 199.070703 226.083139 198.58415 225.566923 
z
M 198.212633 224.562234 
Q 197.891226 223.993426 197.964047 223.437384 
Q 198.039076 222.881408 198.493893 222.452727 
Q 199.129498 221.853646 199.925574 221.957885 
Q 200.722721 222.063261 201.465411 222.85123 
Q 202.212387 223.643747 202.268314 224.443456 
Q 202.324242 225.243164 201.688636 225.842245 
Q 201.23382 226.270926 200.673309 226.311823 
Q 200.115007 226.352785 199.569407 226.001728 
Q 199.937577 226.633818 199.857307 227.254854 
Q 199.779245 227.875956 199.272125 228.353935 
Q 198.500075 229.08162 197.643645 228.999913 
Q 196.788351 228.917135 195.960997 228.039339 
Q 195.134715 227.162681 195.101567 226.302853 
Q 195.070629 225.443091 195.842679 224.715405 
Q 196.349799 224.237426 196.9755 224.197352 
Q 197.60341 224.157344 198.212633 224.562234 
z
M 199.098699 223.231091 
Q 198.68709 223.619047 198.698476 224.093574 
Q 198.710933 224.569238 199.149259 225.034287 
Q 199.585442 225.497063 200.061681 225.539889 
Q 200.538991 225.583853 200.9506 225.195897 
Q 201.363346 224.806869 201.347673 224.327794 
Q 201.333073 223.849857 200.89689 223.387081 
Q 200.458564 222.922032 199.984469 222.881479 
Q 199.511445 222.842063 199.098699 223.231091 
z
" clip-path="url(#pd0e2257027)" style="fill: #aa2395; stroke: #ffffff; stroke-width: 5"/>
    <path d="M 198.58415 225.566923 
Q 198.101884 225.055255 197.551358 225.020178 
Q 197.001904 224.986239 196.52321 225.437426 
Q 196.043379 225.889684 196.044779 226.440184 
Q 196.047252 226.99182 196.529518 227.503488 
Q 197.011783 228.015157 197.564518 228.050298 
Q 198.119461 228.085505 198.595881 227.636462 
Q 199.074576 227.185276 199.072103 226.633639 
Q 199.070703 226.083139 198.58415 225.566923 
z
M 198.212633 224.562234 
Q 197.891226 223.993426 197.964047 223.437384 
Q 198.039076 222.881408 198.493893 222.452727 
Q 199.129498 221.853646 199.925574 221.957885 
Q 200.722721 222.063261 201.465411 222.85123 
Q 202.212387 223.643747 202.268314 224.443456 
Q 202.324242 225.243164 201.688636 225.842245 
Q 201.23382 226.270926 200.673309 226.311823 
Q 200.115007 226.352785 199.569407 226.001728 
Q 199.937577 226.633818 199.857307 227.254854 
Q 199.779245 227.875956 199.272125 228.353935 
Q 198.500075 229.08162 197.643645 228.999913 
Q 196.788351 228.917135 195.960997 228.039339 
Q 195.134715 227.162681 195.101567 226.302853 
Q 195.070629 225.443091 195.842679 224.715405 
Q 196.349799 224.237426 196.9755 224.197352 
Q 197.60341 224.157344 198.212633 224.562234 
z
M 199.098699 223.231091 
Q 198.68709 223.619047 198.698476 224.093574 
Q 198.710933 224.569238 199.149259 225.034287 
Q 199.585442 225.497063 200.061681 225.539889 
Q 200.538991 225.583853 200.9506 225.195897 
Q 201.363346 224.806869 201.347673 224.327794 
Q 201.333073 223.849857 200.89689 223.387081 
Q 200.458564 222.922032 199.984469 222.881479 
Q 199.511445 222.842063 199.098699 223.231091 
z
" clip-path="url(#pd0e2257027)" style="fill: #aa2395"/>
   </g>
   <g id="text_19">
    <path d="M 232.855426 152.182251 
L 234.245784 152.995899 
L 237.055276 148.195048 
L 235.364633 147.613009 
L 235.818413 146.837591 
L 237.500965 147.414895 
L 238.351902 147.91287 
L 235.08863 153.489138 
L 236.478989 154.302786 
L 236.059933 155.018868 
L 232.43637 152.898333 
L 232.855426 152.182251 
z
M 241.745502 153.668058 
Q 241.172366 153.332655 240.606924 153.528578 
Q 240.04362 153.723941 239.644293 154.406309 
Q 239.247334 155.084631 239.350545 155.675475 
Q 239.455893 156.265759 240.029028 156.601162 
Q 240.602164 156.936564 241.167046 156.738504 
Q 241.732718 156.539095 242.129677 155.860773 
Q 242.529004 155.178405 242.423426 154.591607 
Q 242.318637 154.003461 241.745502 153.668058 
z
M 244.997032 151.988117 
L 244.543252 152.763535 
Q 244.310685 152.424672 244.030897 152.154125 
Q 243.751898 151.882229 243.430942 151.694404 
Q 242.588096 151.201164 241.810038 151.509823 
Q 241.033329 151.819272 240.296774 152.932496 
Q 240.759565 152.710899 241.248895 152.734752 
Q 241.739573 152.759394 242.18999 153.022981 
Q 243.138023 153.577777 243.351251 154.475596 
Q 243.565269 155.372066 242.986009 156.361904 
Q 242.418586 157.331514 241.502156 157.582732 
Q 240.586516 157.832602 239.634437 157.275438 
Q 238.542109 156.6362 238.454221 155.462327 
Q 238.367123 154.287104 239.296781 152.698509 
Q 240.169617 151.207008 241.39689 150.733981 
Q 242.624163 150.260954 243.816284 150.958592 
Q 244.13724 151.146418 244.426498 151.400782 
Q 244.715757 151.655146 244.997032 151.988117 
z
" clip-path="url(#pd0e2257027)" style="fill: #cc4778; stroke: #ffffff; stroke-width: 5"/>
    <path d="M 232.855426 152.182251 
L 234.245784 152.995899 
L 237.055276 148.195048 
L 235.364633 147.613009 
L 235.818413 146.837591 
L 237.500965 147.414895 
L 238.351902 147.91287 
L 235.08863 153.489138 
L 236.478989 154.302786 
L 236.059933 155.018868 
L 232.43637 152.898333 
L 232.855426 152.182251 
z
M 241.745502 153.668058 
Q 241.172366 153.332655 240.606924 153.528578 
Q 240.04362 153.723941 239.644293 154.406309 
Q 239.247334 155.084631 239.350545 155.675475 
Q 239.455893 156.265759 240.029028 156.601162 
Q 240.602164 156.936564 241.167046 156.738504 
Q 241.732718 156.539095 242.129677 155.860773 
Q 242.529004 155.178405 242.423426 154.591607 
Q 242.318637 154.003461 241.745502 153.668058 
z
M 244.997032 151.988117 
L 244.543252 152.763535 
Q 244.310685 152.424672 244.030897 152.154125 
Q 243.751898 151.882229 243.430942 151.694404 
Q 242.588096 151.201164 241.810038 151.509823 
Q 241.033329 151.819272 240.296774 152.932496 
Q 240.759565 152.710899 241.248895 152.734752 
Q 241.739573 152.759394 242.18999 153.022981 
Q 243.138023 153.577777 243.351251 154.475596 
Q 243.565269 155.372066 242.986009 156.361904 
Q 242.418586 157.331514 241.502156 157.582732 
Q 240.586516 157.832602 239.634437 157.275438 
Q 238.542109 156.6362 238.454221 155.462327 
Q 238.367123 154.287104 239.296781 152.698509 
Q 240.169617 151.207008 241.39689 150.733981 
Q 242.624163 150.260954 243.816284 150.958592 
Q 244.13724 151.146418 244.426498 151.400782 
Q 244.715757 151.655146 244.997032 151.988117 
z
" clip-path="url(#pd0e2257027)" style="fill: #cc4778"/>
   </g>
   <g id="text_20">
    <path d="M 276.051738 159.047866 
Q 276.767792 159.153871 277.194519 159.607207 
Q 277.622707 160.058883 277.667654 160.76057 
Q 277.736575 161.83649 277.033761 162.474911 
Q 276.330848 163.111773 274.966457 163.199172 
Q 274.509581 163.228438 274.018844 163.169062 
Q 273.528107 163.109687 273.000391 162.961869 
L 272.939561 162.012253 
Q 273.363381 162.224657 273.857675 162.315118 
Q 274.353528 162.40548 274.885251 162.37142 
Q 275.809918 162.312189 276.271489 161.916247 
Q 276.73306 161.520306 276.688411 160.823297 
Q 276.647159 160.179305 276.173347 159.846413 
Q 275.699435 159.511961 274.896394 159.563402 
L 274.048132 159.617739 
L 273.996292 158.80846 
L 274.883536 158.751626 
Q 275.608613 158.70518 275.975183 158.390478 
Q 276.341752 158.075776 276.306793 157.530019 
Q 276.270934 156.970229 275.854134 156.696313 
Q 275.438793 156.420738 274.698124 156.468183 
Q 274.292705 156.494153 273.835285 156.612699 
Q 273.377765 156.729685 272.834439 156.949242 
L 272.778304 156.072913 
Q 273.329665 155.881024 273.814292 155.771696 
Q 274.29892 155.662367 274.732406 155.634599 
Q 275.853546 155.562782 276.537997 156.030923 
Q 277.223908 156.497405 277.279443 157.364378 
Q 277.318198 157.969388 276.998702 158.407896 
Q 276.679206 158.846405 276.051738 159.047866 
z
M 280.464613 161.87311 
L 283.89976 161.653065 
L 283.952798 162.481056 
L 279.334139 162.776913 
L 279.281101 161.948922 
Q 279.803734 161.333003 280.707975 160.29495 
Q 281.613676 159.255238 281.843426 158.955563 
Q 282.281935 158.395135 282.445478 158.015153 
Q 282.610581 157.635071 282.587808 157.27955 
Q 282.550651 156.699489 282.1203 156.360682 
Q 281.689849 156.020315 281.0365 156.062166 
Q 280.573387 156.091832 280.069104 156.285402 
Q 279.566381 156.478872 279.002618 156.843783 
L 278.938892 155.848947 
Q 279.517705 155.572317 280.026043 155.41763 
Q 280.535941 155.262843 280.96475 155.235374 
Q 282.095245 155.162958 282.803564 155.685936 
Q 283.511782 156.207354 283.572311 157.152292 
Q 283.601078 157.601372 283.458443 158.01446 
Q 283.317268 158.425888 282.907826 159.000112 
Q 282.79529 159.149799 282.185191 159.86683 
Q 281.576652 160.58376 280.464613 161.87311 
z
" clip-path="url(#pd0e2257027)" style="fill: #e66c5c; stroke: #ffffff; stroke-width: 5"/>
    <path d="M 276.051738 159.047866 
Q 276.767792 159.153871 277.194519 159.607207 
Q 277.622707 160.058883 277.667654 160.76057 
Q 277.736575 161.83649 277.033761 162.474911 
Q 276.330848 163.111773 274.966457 163.199172 
Q 274.509581 163.228438 274.018844 163.169062 
Q 273.528107 163.109687 273.000391 162.961869 
L 272.939561 162.012253 
Q 273.363381 162.224657 273.857675 162.315118 
Q 274.353528 162.40548 274.885251 162.37142 
Q 275.809918 162.312189 276.271489 161.916247 
Q 276.73306 161.520306 276.688411 160.823297 
Q 276.647159 160.179305 276.173347 159.846413 
Q 275.699435 159.511961 274.896394 159.563402 
L 274.048132 159.617739 
L 273.996292 158.80846 
L 274.883536 158.751626 
Q 275.608613 158.70518 275.975183 158.390478 
Q 276.341752 158.075776 276.306793 157.530019 
Q 276.270934 156.970229 275.854134 156.696313 
Q 275.438793 156.420738 274.698124 156.468183 
Q 274.292705 156.494153 273.835285 156.612699 
Q 273.377765 156.729685 272.834439 156.949242 
L 272.778304 156.072913 
Q 273.329665 155.881024 273.814292 155.771696 
Q 274.29892 155.662367 274.732406 155.634599 
Q 275.853546 155.562782 276.537997 156.030923 
Q 277.223908 156.497405 277.279443 157.364378 
Q 277.318198 157.969388 276.998702 158.407896 
Q 276.679206 158.846405 276.051738 159.047866 
z
M 280.464613 161.87311 
L 283.89976 161.653065 
L 283.952798 162.481056 
L 279.334139 162.776913 
L 279.281101 161.948922 
Q 279.803734 161.333003 280.707975 160.29495 
Q 281.613676 159.255238 281.843426 158.955563 
Q 282.281935 158.395135 282.445478 158.015153 
Q 282.610581 157.635071 282.587808 157.27955 
Q 282.550651 156.699489 282.1203 156.360682 
Q 281.689849 156.020315 281.0365 156.062166 
Q 280.573387 156.091832 280.069104 156.285402 
Q 279.566381 156.478872 279.002618 156.843783 
L 278.938892 155.848947 
Q 279.517705 155.572317 280.026043 155.41763 
Q 280.535941 155.262843 280.96475 155.235374 
Q 282.095245 155.162958 282.803564 155.685936 
Q 283.511782 156.207354 283.572311 157.152292 
Q 283.601078 157.601372 283.458443 158.01446 
Q 283.317268 158.425888 282.907826 159.000112 
Q 282.79529 159.149799 282.185191 159.86683 
Q 281.576652 160.58376 280.464613 161.87311 
z
" clip-path="url(#pd0e2257027)" style="fill: #e66c5c"/>
   </g>
   <g id="text_21">
    <path d="M 316.008965 165.421537 
Q 315.37031 165.239606 314.871564 165.570307 
Q 314.374749 165.899933 314.158144 166.660308 
Q 313.942824 167.416175 314.190072 167.962633 
Q 314.439252 168.508017 315.077907 168.689948 
Q 315.716562 168.871879 316.214233 168.539247 
Q 316.712332 168.205113 316.927653 167.449246 
Q 317.144257 166.688871 316.895725 166.146921 
Q 316.64762 165.603468 316.008965 165.421537 
z
M 318.739026 162.984034 
L 318.492884 163.848097 
Q 318.183181 163.577911 317.84478 163.385657 
Q 317.506807 163.191901 317.14916 163.090019 
Q 316.209961 162.822474 315.533418 163.315357 
Q 314.858377 163.808668 314.422603 165.070366 
Q 314.815539 164.740392 315.295365 164.641503 
Q 315.776694 164.543041 316.278602 164.686017 
Q 317.335012 164.986952 317.765334 165.803266 
Q 318.196084 166.618078 317.881878 167.721072 
Q 317.574094 168.801526 316.749227 169.273277 
Q 315.924789 169.743526 314.86387 169.441307 
Q 313.646669 169.094568 313.268911 167.979668 
Q 312.891581 166.863265 313.395851 165.093064 
Q 313.869299 163.431058 314.939898 162.667008 
Q 316.010496 161.902958 317.338898 162.281374 
Q 317.696545 162.383256 318.040083 162.557477 
Q 318.383622 162.731698 318.739026 162.984034 
z
M 323.243482 164.993422 
L 319.781821 168.054344 
L 322.177153 168.736692 
L 323.243482 164.993422 
z
M 323.229471 164.095868 
L 324.422628 164.435757 
L 323.120859 169.005522 
L 324.121669 169.290618 
L 323.896931 170.079545 
L 322.896121 169.794448 
L 322.425241 171.447438 
L 321.481535 171.178608 
L 321.952415 169.525619 
L 318.787691 168.624098 
L 319.048388 167.708943 
L 323.229471 164.095868 
z
" clip-path="url(#pd0e2257027)" style="fill: #f89540; stroke: #ffffff; stroke-width: 5"/>
    <path d="M 316.008965 165.421537 
Q 315.37031 165.239606 314.871564 165.570307 
Q 314.374749 165.899933 314.158144 166.660308 
Q 313.942824 167.416175 314.190072 167.962633 
Q 314.439252 168.508017 315.077907 168.689948 
Q 315.716562 168.871879 316.214233 168.539247 
Q 316.712332 168.205113 316.927653 167.449246 
Q 317.144257 166.688871 316.895725 166.146921 
Q 316.64762 165.603468 316.008965 165.421537 
z
M 318.739026 162.984034 
L 318.492884 163.848097 
Q 318.183181 163.577911 317.84478 163.385657 
Q 317.506807 163.191901 317.14916 163.090019 
Q 316.209961 162.822474 315.533418 163.315357 
Q 314.858377 163.808668 314.422603 165.070366 
Q 314.815539 164.740392 315.295365 164.641503 
Q 315.776694 164.543041 316.278602 164.686017 
Q 317.335012 164.986952 317.765334 165.803266 
Q 318.196084 166.618078 317.881878 167.721072 
Q 317.574094 168.801526 316.749227 169.273277 
Q 315.924789 169.743526 314.86387 169.441307 
Q 313.646669 169.094568 313.268911 167.979668 
Q 312.891581 166.863265 313.395851 165.093064 
Q 313.869299 163.431058 314.939898 162.667008 
Q 316.010496 161.902958 317.338898 162.281374 
Q 317.696545 162.383256 318.040083 162.557477 
Q 318.383622 162.731698 318.739026 162.984034 
z
M 323.243482 164.993422 
L 319.781821 168.054344 
L 322.177153 168.736692 
L 323.243482 164.993422 
z
M 323.229471 164.095868 
L 324.422628 164.435757 
L 323.120859 169.005522 
L 324.121669 169.290618 
L 323.896931 170.079545 
L 322.896121 169.794448 
L 322.425241 171.447438 
L 321.481535 171.178608 
L 321.952415 169.525619 
L 318.787691 168.624098 
L 319.048388 167.708943 
L 323.229471 164.095868 
z
" clip-path="url(#pd0e2257027)" style="fill: #f89540"/>
   </g>
   <g id="text_22">
    <path d="M 350.254245 169.678675 
L 351.822376 170.047574 
L 353.096168 164.632885 
L 351.309122 164.573646 
L 351.514861 163.699082 
L 353.292781 163.756174 
L 354.252519 163.98195 
L 352.772988 170.271203 
L 354.341119 170.640102 
L 354.151123 171.447742 
L 350.06425 170.486316 
L 350.254245 169.678675 
z
M 357.107592 171.290908 
L 360.458311 172.079156 
L 360.268315 172.886797 
L 355.763172 171.826973 
L 355.953168 171.019332 
Q 356.632304 170.58198 357.799298 169.851687 
Q 358.968172 169.120231 359.275129 168.900304 
Q 359.85764 168.491586 360.1246 168.175571 
Q 360.393081 167.859915 360.474661 167.513131 
Q 360.607765 166.947326 360.294516 166.49803 
Q 359.981625 166.047212 359.344334 165.897291 
Q 358.892603 165.791022 358.353825 165.829607 
Q 357.816569 165.868549 357.171062 166.053777 
L 357.399343 165.083392 
Q 358.03358 164.987007 358.564934 164.986804 
Q 359.097808 164.98696 359.516078 165.085356 
Q 360.618788 165.344766 361.144447 166.051097 
Q 361.670463 166.755906 361.453632 167.67762 
Q 361.350584 168.115663 361.094004 168.469432 
Q 360.839303 168.822039 360.280591 169.252407 
Q 360.129394 169.362907 359.337173 169.871571 
Q 358.546473 170.380592 357.107592 171.290908 
z
M 365.129647 170.473393 
Q 364.445206 170.31238 363.966562 170.586622 
Q 363.489438 170.861222 363.338802 171.501555 
Q 363.187807 172.143408 363.492468 172.601921 
Q 363.798649 173.060791 364.48309 173.221804 
Q 365.167531 173.382817 365.648054 173.107412 
Q 366.130456 172.830844 366.280377 172.193553 
Q 366.431014 171.55322 366.124832 171.09435 
Q 365.820172 170.635837 365.129647 170.473393 
z
M 364.265801 169.839994 
Q 363.684063 169.542627 363.438271 169.038572 
Q 363.194358 168.533354 363.337481 167.924962 
Q 363.537495 167.074734 364.259132 166.722823 
Q 364.98229 166.371269 366.036329 166.619229 
Q 367.096452 166.868621 367.583994 167.504989 
Q 368.071536 168.141356 367.871522 168.991584 
Q 367.7284 169.599976 367.283309 169.943108 
Q 366.840097 170.285076 366.191362 170.292978 
Q 366.847001 170.617362 367.12241 171.179748 
Q 367.399697 171.740972 367.240116 172.419329 
Q 366.997165 173.452075 366.237595 173.856058 
Q 365.478383 174.258521 364.304187 173.982294 
Q 363.131511 173.706425 362.62983 173.007341 
Q 362.130028 172.307093 362.372979 171.274347 
Q 362.532561 170.59599 363.032494 170.217606 
Q 363.534306 169.838058 364.265801 169.839994 
z
M 364.271188 168.240924 
Q 364.141662 168.791519 364.412768 169.181142 
Q 364.685396 169.571123 365.307477 169.717466 
Q 365.926516 169.863093 366.347455 169.636272 
Q 366.769915 169.409809 366.899441 168.859214 
Q 367.029325 168.307098 366.752135 167.916044 
Q 366.476465 167.525347 365.857426 167.37972 
Q 365.235345 167.233377 364.817448 167.460913 
Q 364.401072 167.688808 364.271188 168.240924 
z
" clip-path="url(#pd0e2257027)" style="fill: #fdc527; stroke: #ffffff; stroke-width: 5"/>
    <path d="M 350.254245 169.678675 
L 351.822376 170.047574 
L 353.096168 164.632885 
L 351.309122 164.573646 
L 351.514861 163.699082 
L 353.292781 163.756174 
L 354.252519 163.98195 
L 352.772988 170.271203 
L 354.341119 170.640102 
L 354.151123 171.447742 
L 350.06425 170.486316 
L 350.254245 169.678675 
z
M 357.107592 171.290908 
L 360.458311 172.079156 
L 360.268315 172.886797 
L 355.763172 171.826973 
L 355.953168 171.019332 
Q 356.632304 170.58198 357.799298 169.851687 
Q 358.968172 169.120231 359.275129 168.900304 
Q 359.85764 168.491586 360.1246 168.175571 
Q 360.393081 167.859915 360.474661 167.513131 
Q 360.607765 166.947326 360.294516 166.49803 
Q 359.981625 166.047212 359.344334 165.897291 
Q 358.892603 165.791022 358.353825 165.829607 
Q 357.816569 165.868549 357.171062 166.053777 
L 357.399343 165.083392 
Q 358.03358 164.987007 358.564934 164.986804 
Q 359.097808 164.98696 359.516078 165.085356 
Q 360.618788 165.344766 361.144447 166.051097 
Q 361.670463 166.755906 361.453632 167.67762 
Q 361.350584 168.115663 361.094004 168.469432 
Q 360.839303 168.822039 360.280591 169.252407 
Q 360.129394 169.362907 359.337173 169.871571 
Q 358.546473 170.380592 357.107592 171.290908 
z
M 365.129647 170.473393 
Q 364.445206 170.31238 363.966562 170.586622 
Q 363.489438 170.861222 363.338802 171.501555 
Q 363.187807 172.143408 363.492468 172.601921 
Q 363.798649 173.060791 364.48309 173.221804 
Q 365.167531 173.382817 365.648054 173.107412 
Q 366.130456 172.830844 366.280377 172.193553 
Q 366.431014 171.55322 366.124832 171.09435 
Q 365.820172 170.635837 365.129647 170.473393 
z
M 364.265801 169.839994 
Q 363.684063 169.542627 363.438271 169.038572 
Q 363.194358 168.533354 363.337481 167.924962 
Q 363.537495 167.074734 364.259132 166.722823 
Q 364.98229 166.371269 366.036329 166.619229 
Q 367.096452 166.868621 367.583994 167.504989 
Q 368.071536 168.141356 367.871522 168.991584 
Q 367.7284 169.599976 367.283309 169.943108 
Q 366.840097 170.285076 366.191362 170.292978 
Q 366.847001 170.617362 367.12241 171.179748 
Q 367.399697 171.740972 367.240116 172.419329 
Q 366.997165 173.452075 366.237595 173.856058 
Q 365.478383 174.258521 364.304187 173.982294 
Q 363.131511 173.706425 362.62983 173.007341 
Q 362.130028 172.307093 362.372979 171.274347 
Q 362.532561 170.59599 363.032494 170.217606 
Q 363.534306 169.838058 364.265801 169.839994 
z
M 364.271188 168.240924 
Q 364.141662 168.791519 364.412768 169.181142 
Q 364.685396 169.571123 365.307477 169.717466 
Q 365.926516 169.863093 366.347455 169.636272 
Q 366.769915 169.409809 366.899441 168.859214 
Q 367.029325 168.307098 366.752135 167.916044 
Q 366.476465 167.525347 365.857426 167.37972 
Q 365.235345 167.233377 364.817448 167.460913 
Q 364.401072 167.688808 364.271188 168.240924 
z
" clip-path="url(#pd0e2257027)" style="fill: #fdc527"/>
   </g>
   <g id="patch_3">
    <path d="M 59.690625 301.735725 
L 59.690625 35.623725 
" style="fill: none; stroke: #cccccc; stroke-width: 0.8; stroke-linejoin: miter; stroke-linecap: square"/>
   </g>
   <g id="patch_4">
    <path d="M 416.810625 301.735725 
L 416.810625 35.623725 
" style="fill: none; stroke: #cccccc; stroke-width: 0.8; stroke-linejoin: miter; stroke-linecap: square"/>
   </g>
   <g id="patch_5">
    <path d="M 59.690625 301.735725 
L 416.810625 301.735725 
" style="fill: none; stroke: #cccccc; stroke-width: 0.8; stroke-linejoin: miter; stroke-linecap: square"/>
   </g>
   <g id="patch_6">
    <path d="M 59.690625 35.623725 
L 416.810625 35.623725 
" style="fill: none; stroke: #cccccc; stroke-width: 0.8; stroke-linejoin: miter; stroke-linecap: square"/>
   </g>
   <g id="text_23">
    <!-- Block Size = 4K, Read-Write Type = Sequential Write-heavy 1:4 -->
    <g style="fill: #262626; opacity: 0.75" transform="translate(79.961563 30.882918) scale(0.1 -0.1)">
     <defs>
      <path id="DejaVuSans-42" d="M 1259 2228 
L 1259 519 
L 2272 519 
Q 2781 519 3026 730 
Q 3272 941 3272 1375 
Q 3272 1813 3026 2020 
Q 2781 2228 2272 2228 
L 1259 2228 
z
M 1259 4147 
L 1259 2741 
L 2194 2741 
Q 2656 2741 2882 2914 
Q 3109 3088 3109 3444 
Q 3109 3797 2882 3972 
Q 2656 4147 2194 4147 
L 1259 4147 
z
M 628 4666 
L 2241 4666 
Q 2963 4666 3353 4366 
Q 3744 4066 3744 3513 
Q 3744 3084 3544 2831 
Q 3344 2578 2956 2516 
Q 3422 2416 3680 2098 
Q 3938 1781 3938 1306 
Q 3938 681 3513 340 
Q 3088 0 2303 0 
L 628 0 
L 628 4666 
z
" transform="scale(0.015625)"/>
      <path id="DejaVuSans-6c" d="M 603 4863 
L 1178 4863 
L 1178 0 
L 603 0 
L 603 4863 
z
" transform="scale(0.015625)"/>
      <path id="DejaVuSans-63" d="M 3122 3366 
L 3122 2828 
Q 2878 2963 2633 3030 
Q 2388 3097 2138 3097 
Q 1578 3097 1268 2742 
Q 959 2388 959 1747 
Q 959 1106 1268 751 
Q 1578 397 2138 397 
Q 2388 397 2633 464 
Q 2878 531 3122 666 
L 3122 134 
Q 2881 22 2623 -34 
Q 2366 -91 2075 -91 
Q 1284 -91 818 406 
Q 353 903 353 1747 
Q 353 2603 823 3093 
Q 1294 3584 2113 3584 
Q 2378 3584 2631 3529 
Q 2884 3475 3122 3366 
z
" transform="scale(0.015625)"/>
      <path id="DejaVuSans-6b" d="M 581 4863 
L 1159 4863 
L 1159 1991 
L 2875 3500 
L 3609 3500 
L 1753 1863 
L 3688 0 
L 2938 0 
L 1159 1709 
L 1159 0 
L 581 0 
L 581 4863 
z
" transform="scale(0.015625)"/>
      <path id="DejaVuSans-69" d="M 603 3500 
L 1178 3500 
L 1178 0 
L 603 0 
L 603 3500 
z
M 603 4863 
L 1178 4863 
L 1178 4134 
L 603 4134 
L 603 4863 
z
" transform="scale(0.015625)"/>
      <path id="DejaVuSans-7a" d="M 353 3500 
L 3084 3500 
L 3084 2975 
L 922 459 
L 3084 459 
L 3084 0 
L 275 0 
L 275 525 
L 2438 3041 
L 353 3041 
L 353 3500 
z
" transform="scale(0.015625)"/>
      <path id="DejaVuSans-3d" d="M 678 2906 
L 4684 2906 
L 4684 2381 
L 678 2381 
L 678 2906 
z
M 678 1631 
L 4684 1631 
L 4684 1100 
L 678 1100 
L 678 1631 
z
" transform="scale(0.015625)"/>
      <path id="DejaVuSans-4b" d="M 628 4666 
L 1259 4666 
L 1259 2694 
L 3353 4666 
L 4166 4666 
L 1850 2491 
L 4331 0 
L 3500 0 
L 1259 2247 
L 1259 0 
L 628 0 
L 628 4666 
z
" transform="scale(0.015625)"/>
      <path id="DejaVuSans-2c" d="M 750 794 
L 1409 794 
L 1409 256 
L 897 -744 
L 494 -744 
L 750 256 
L 750 794 
z
" transform="scale(0.015625)"/>
      <path id="DejaVuSans-52" d="M 2841 2188 
Q 3044 2119 3236 1894 
Q 3428 1669 3622 1275 
L 4263 0 
L 3584 0 
L 2988 1197 
Q 2756 1666 2539 1819 
Q 2322 1972 1947 1972 
L 1259 1972 
L 1259 0 
L 628 0 
L 628 4666 
L 2053 4666 
Q 2853 4666 3247 4331 
Q 3641 3997 3641 3322 
Q 3641 2881 3436 2590 
Q 3231 2300 2841 2188 
z
M 1259 4147 
L 1259 2491 
L 2053 2491 
Q 2509 2491 2742 2702 
Q 2975 2913 2975 3322 
Q 2975 3731 2742 3939 
Q 2509 4147 2053 4147 
L 1259 4147 
z
" transform="scale(0.015625)"/>
      <path id="DejaVuSans-61" d="M 2194 1759 
Q 1497 1759 1228 1600 
Q 959 1441 959 1056 
Q 959 750 1161 570 
Q 1363 391 1709 391 
Q 2188 391 2477 730 
Q 2766 1069 2766 1631 
L 2766 1759 
L 2194 1759 
z
M 3341 1997 
L 3341 0 
L 2766 0 
L 2766 531 
Q 2569 213 2275 61 
Q 1981 -91 1556 -91 
Q 1019 -91 701 211 
Q 384 513 384 1019 
Q 384 1609 779 1909 
Q 1175 2209 1959 2209 
L 2766 2209 
L 2766 2266 
Q 2766 2663 2505 2880 
Q 2244 3097 1772 3097 
Q 1472 3097 1187 3025 
Q 903 2953 641 2809 
L 641 3341 
Q 956 3463 1253 3523 
Q 1550 3584 1831 3584 
Q 2591 3584 2966 3190 
Q 3341 2797 3341 1997 
z
" transform="scale(0.015625)"/>
      <path id="DejaVuSans-64" d="M 2906 2969 
L 2906 4863 
L 3481 4863 
L 3481 0 
L 2906 0 
L 2906 525 
Q 2725 213 2448 61 
Q 2172 -91 1784 -91 
Q 1150 -91 751 415 
Q 353 922 353 1747 
Q 353 2572 751 3078 
Q 1150 3584 1784 3584 
Q 2172 3584 2448 3432 
Q 2725 3281 2906 2969 
z
M 947 1747 
Q 947 1113 1208 752 
Q 1469 391 1925 391 
Q 2381 391 2643 752 
Q 2906 1113 2906 1747 
Q 2906 2381 2643 2742 
Q 2381 3103 1925 3103 
Q 1469 3103 1208 2742 
Q 947 2381 947 1747 
z
" transform="scale(0.015625)"/>
      <path id="DejaVuSans-2d" d="M 313 2009 
L 1997 2009 
L 1997 1497 
L 313 1497 
L 313 2009 
z
" transform="scale(0.015625)"/>
      <path id="DejaVuSans-57" d="M 213 4666 
L 850 4666 
L 1831 722 
L 2809 4666 
L 3519 4666 
L 4500 722 
L 5478 4666 
L 6119 4666 
L 4947 0 
L 4153 0 
L 3169 4050 
L 2175 0 
L 1381 0 
L 213 4666 
z
" transform="scale(0.015625)"/>
      <path id="DejaVuSans-74" d="M 1172 4494 
L 1172 3500 
L 2356 3500 
L 2356 3053 
L 1172 3053 
L 1172 1153 
Q 1172 725 1289 603 
Q 1406 481 1766 481 
L 2356 481 
L 2356 0 
L 1766 0 
Q 1100 0 847 248 
Q 594 497 594 1153 
L 594 3053 
L 172 3053 
L 172 3500 
L 594 3500 
L 594 4494 
L 1172 4494 
z
" transform="scale(0.015625)"/>
      <path id="DejaVuSans-54" d="M -19 4666 
L 3928 4666 
L 3928 4134 
L 2272 4134 
L 2272 0 
L 1638 0 
L 1638 4134 
L -19 4134 
L -19 4666 
z
" transform="scale(0.015625)"/>
      <path id="DejaVuSans-79" d="M 2059 -325 
Q 1816 -950 1584 -1140 
Q 1353 -1331 966 -1331 
L 506 -1331 
L 506 -850 
L 844 -850 
Q 1081 -850 1212 -737 
Q 1344 -625 1503 -206 
L 1606 56 
L 191 3500 
L 800 3500 
L 1894 763 
L 2988 3500 
L 3597 3500 
L 2059 -325 
z
" transform="scale(0.015625)"/>
      <path id="DejaVuSans-70" d="M 1159 525 
L 1159 -1331 
L 581 -1331 
L 581 3500 
L 1159 3500 
L 1159 2969 
Q 1341 3281 1617 3432 
Q 1894 3584 2278 3584 
Q 2916 3584 3314 3078 
Q 3713 2572 3713 1747 
Q 3713 922 3314 415 
Q 2916 -91 2278 -91 
Q 1894 -91 1617 61 
Q 1341 213 1159 525 
z
M 3116 1747 
Q 3116 2381 2855 2742 
Q 2594 3103 2138 3103 
Q 1681 3103 1420 2742 
Q 1159 2381 1159 1747 
Q 1159 1113 1420 752 
Q 1681 391 2138 391 
Q 2594 391 2855 752 
Q 3116 1113 3116 1747 
z
" transform="scale(0.015625)"/>
      <path id="DejaVuSans-71" d="M 947 1747 
Q 947 1113 1208 752 
Q 1469 391 1925 391 
Q 2381 391 2643 752 
Q 2906 1113 2906 1747 
Q 2906 2381 2643 2742 
Q 2381 3103 1925 3103 
Q 1469 3103 1208 2742 
Q 947 2381 947 1747 
z
M 2906 525 
Q 2725 213 2448 61 
Q 2172 -91 1784 -91 
Q 1150 -91 751 415 
Q 353 922 353 1747 
Q 353 2572 751 3078 
Q 1150 3584 1784 3584 
Q 2172 3584 2448 3432 
Q 2725 3281 2906 2969 
L 2906 3500 
L 3481 3500 
L 3481 -1331 
L 2906 -1331 
L 2906 525 
z
" transform="scale(0.015625)"/>
      <path id="DejaVuSans-6e" d="M 3513 2113 
L 3513 0 
L 2938 0 
L 2938 2094 
Q 2938 2591 2744 2837 
Q 2550 3084 2163 3084 
Q 1697 3084 1428 2787 
Q 1159 2491 1159 1978 
L 1159 0 
L 581 0 
L 581 3500 
L 1159 3500 
L 1159 2956 
Q 1366 3272 1645 3428 
Q 1925 3584 2291 3584 
Q 2894 3584 3203 3211 
Q 3513 2838 3513 2113 
z
" transform="scale(0.015625)"/>
      <path id="DejaVuSans-68" d="M 3513 2113 
L 3513 0 
L 2938 0 
L 2938 2094 
Q 2938 2591 2744 2837 
Q 2550 3084 2163 3084 
Q 1697 3084 1428 2787 
Q 1159 2491 1159 1978 
L 1159 0 
L 581 0 
L 581 4863 
L 1159 4863 
L 1159 2956 
Q 1366 3272 1645 3428 
Q 1925 3584 2291 3584 
Q 2894 3584 3203 3211 
Q 3513 2838 3513 2113 
z
" transform="scale(0.015625)"/>
      <path id="DejaVuSans-76" d="M 191 3500 
L 800 3500 
L 1894 563 
L 2988 3500 
L 3597 3500 
L 2284 0 
L 1503 0 
L 191 3500 
z
" transform="scale(0.015625)"/>
      <path id="DejaVuSans-3a" d="M 750 794 
L 1409 794 
L 1409 0 
L 750 0 
L 750 794 
z
M 750 3309 
L 1409 3309 
L 1409 2516 
L 750 2516 
L 750 3309 
z
" transform="scale(0.015625)"/>
     </defs>
     <use xlink:href="#DejaVuSans-42"/>
     <use xlink:href="#DejaVuSans-6c" transform="translate(68.603516 0)"/>
     <use xlink:href="#DejaVuSans-6f" transform="translate(96.386719 0)"/>
     <use xlink:href="#DejaVuSans-63" transform="translate(157.568359 0)"/>
     <use xlink:href="#DejaVuSans-6b" transform="translate(212.548828 0)"/>
     <use xlink:href="#DejaVuSans-20" transform="translate(270.458984 0)"/>
     <use xlink:href="#DejaVuSans-53" transform="translate(302.246094 0)"/>
     <use xlink:href="#DejaVuSans-69" transform="translate(365.722656 0)"/>
     <use xlink:href="#DejaVuSans-7a" transform="translate(393.505859 0)"/>
     <use xlink:href="#DejaVuSans-65" transform="translate(445.996094 0)"/>
     <use xlink:href="#DejaVuSans-20" transform="translate(507.519531 0)"/>
     <use xlink:href="#DejaVuSans-3d" transform="translate(539.306641 0)"/>
     <use xlink:href="#DejaVuSans-20" transform="translate(623.095703 0)"/>
     <use xlink:href="#DejaVuSans-34" transform="translate(654.882812 0)"/>
     <use xlink:href="#DejaVuSans-4b" transform="translate(718.505859 0)"/>
     <use xlink:href="#DejaVuSans-2c" transform="translate(784.082031 0)"/>
     <use xlink:href="#DejaVuSans-20" transform="translate(815.869141 0)"/>
     <use xlink:href="#DejaVuSans-52" transform="translate(847.65625 0)"/>
     <use xlink:href="#DejaVuSans-65" transform="translate(912.638672 0)"/>
     <use xlink:href="#DejaVuSans-61" transform="translate(974.162109 0)"/>
     <use xlink:href="#DejaVuSans-64" transform="translate(1035.441406 0)"/>
     <use xlink:href="#DejaVuSans-2d" transform="translate(1098.917969 0)"/>
     <use xlink:href="#DejaVuSans-57" transform="translate(1131.001953 0)"/>
     <use xlink:href="#DejaVuSans-72" transform="translate(1225.378906 0)"/>
     <use xlink:href="#DejaVuSans-69" transform="translate(1266.492188 0)"/>
     <use xlink:href="#DejaVuSans-74" transform="translate(1294.275391 0)"/>
     <use xlink:href="#DejaVuSans-65" transform="translate(1333.484375 0)"/>
     <use xlink:href="#DejaVuSans-20" transform="translate(1395.007812 0)"/>
     <use xlink:href="#DejaVuSans-54" transform="translate(1426.794922 0)"/>
     <use xlink:href="#DejaVuSans-79" transform="translate(1472.253906 0)"/>
     <use xlink:href="#DejaVuSans-70" transform="translate(1531.433594 0)"/>
     <use xlink:href="#DejaVuSans-65" transform="translate(1594.910156 0)"/>
     <use xlink:href="#DejaVuSans-20" transform="translate(1656.433594 0)"/>
     <use xlink:href="#DejaVuSans-3d" transform="translate(1688.220703 0)"/>
     <use xlink:href="#DejaVuSans-20" transform="translate(1772.009766 0)"/>
     <use xlink:href="#DejaVuSans-53" transform="translate(1803.796875 0)"/>
     <use xlink:href="#DejaVuSans-65" transform="translate(1867.273438 0)"/>
     <use xlink:href="#DejaVuSans-71" transform="translate(1928.796875 0)"/>
     <use xlink:href="#DejaVuSans-75" transform="translate(1992.273438 0)"/>
     <use xlink:href="#DejaVuSans-65" transform="translate(2055.652344 0)"/>
     <use xlink:href="#DejaVuSans-6e" transform="translate(2117.175781 0)"/>
     <use xlink:href="#DejaVuSans-74" transform="translate(2180.554688 0)"/>
     <use xlink:href="#DejaVuSans-69" transform="translate(2219.763672 0)"/>
     <use xlink:href="#DejaVuSans-61" transform="translate(2247.546875 0)"/>
     <use xlink:href="#DejaVuSans-6c" transform="translate(2308.826172 0)"/>
     <use xlink:href="#DejaVuSans-20" transform="translate(2336.609375 0)"/>
     <use xlink:href="#DejaVuSans-57" transform="translate(2368.396484 0)"/>
     <use xlink:href="#DejaVuSans-72" transform="translate(2462.773438 0)"/>
     <use xlink:href="#DejaVuSans-69" transform="translate(2503.886719 0)"/>
     <use xlink:href="#DejaVuSans-74" transform="translate(2531.669922 0)"/>
     <use xlink:href="#DejaVuSans-65" transform="translate(2570.878906 0)"/>
     <use xlink:href="#DejaVuSans-2d" transform="translate(2632.402344 0)"/>
     <use xlink:href="#DejaVuSans-68" transform="translate(2668.486328 0)"/>
     <use xlink:href="#DejaVuSans-65" transform="translate(2731.865234 0)"/>
     <use xlink:href="#DejaVuSans-61" transform="translate(2793.388672 0)"/>
     <use xlink:href="#DejaVuSans-76" transform="translate(2854.667969 0)"/>
     <use xlink:href="#DejaVuSans-79" transform="translate(2913.847656 0)"/>
     <use xlink:href="#DejaVuSans-20" transform="translate(2973.027344 0)"/>
     <use xlink:href="#DejaVuSans-31" transform="translate(3004.814453 0)"/>
     <use xlink:href="#DejaVuSans-3a" transform="translate(3068.4375 0)"/>
     <use xlink:href="#DejaVuSans-34" transform="translate(3102.128906 0)"/>
    </g>
   </g>
   <g id="text_24">
    <!-- IOPS vs Number of Jobs -->
    <g style="fill: #262626" transform="translate(158.541562 16.318125) scale(0.12 -0.12)">
     <defs>
      <path id="DejaVuSans-Bold-49" d="M 588 4666 
L 1791 4666 
L 1791 0 
L 588 0 
L 588 4666 
z
" transform="scale(0.015625)"/>
      <path id="DejaVuSans-Bold-4f" d="M 2719 3878 
Q 2169 3878 1866 3472 
Q 1563 3066 1563 2328 
Q 1563 1594 1866 1187 
Q 2169 781 2719 781 
Q 3272 781 3575 1187 
Q 3878 1594 3878 2328 
Q 3878 3066 3575 3472 
Q 3272 3878 2719 3878 
z
M 2719 4750 
Q 3844 4750 4481 4106 
Q 5119 3463 5119 2328 
Q 5119 1197 4481 553 
Q 3844 -91 2719 -91 
Q 1597 -91 958 553 
Q 319 1197 319 2328 
Q 319 3463 958 4106 
Q 1597 4750 2719 4750 
z
" transform="scale(0.015625)"/>
      <path id="DejaVuSans-Bold-50" d="M 588 4666 
L 2584 4666 
Q 3475 4666 3951 4270 
Q 4428 3875 4428 3144 
Q 4428 2409 3951 2014 
Q 3475 1619 2584 1619 
L 1791 1619 
L 1791 0 
L 588 0 
L 588 4666 
z
M 1791 3794 
L 1791 2491 
L 2456 2491 
Q 2806 2491 2997 2661 
Q 3188 2831 3188 3144 
Q 3188 3456 2997 3625 
Q 2806 3794 2456 3794 
L 1791 3794 
z
" transform="scale(0.015625)"/>
      <path id="DejaVuSans-Bold-53" d="M 3834 4519 
L 3834 3531 
Q 3450 3703 3084 3790 
Q 2719 3878 2394 3878 
Q 1963 3878 1756 3759 
Q 1550 3641 1550 3391 
Q 1550 3203 1689 3098 
Q 1828 2994 2194 2919 
L 2706 2816 
Q 3484 2659 3812 2340 
Q 4141 2022 4141 1434 
Q 4141 663 3683 286 
Q 3225 -91 2284 -91 
Q 1841 -91 1394 -6 
Q 947 78 500 244 
L 500 1259 
Q 947 1022 1364 901 
Q 1781 781 2169 781 
Q 2563 781 2772 912 
Q 2981 1044 2981 1288 
Q 2981 1506 2839 1625 
Q 2697 1744 2272 1838 
L 1806 1941 
Q 1106 2091 782 2419 
Q 459 2747 459 3303 
Q 459 4000 909 4375 
Q 1359 4750 2203 4750 
Q 2588 4750 2994 4692 
Q 3400 4634 3834 4519 
z
" transform="scale(0.015625)"/>
      <path id="DejaVuSans-Bold-20" transform="scale(0.015625)"/>
      <path id="DejaVuSans-Bold-76" d="M 97 3500 
L 1216 3500 
L 2088 1081 
L 2956 3500 
L 4078 3500 
L 2700 0 
L 1472 0 
L 97 3500 
z
" transform="scale(0.015625)"/>
      <path id="DejaVuSans-Bold-73" d="M 3272 3391 
L 3272 2541 
Q 2913 2691 2578 2766 
Q 2244 2841 1947 2841 
Q 1628 2841 1473 2761 
Q 1319 2681 1319 2516 
Q 1319 2381 1436 2309 
Q 1553 2238 1856 2203 
L 2053 2175 
Q 2913 2066 3209 1816 
Q 3506 1566 3506 1031 
Q 3506 472 3093 190 
Q 2681 -91 1863 -91 
Q 1516 -91 1145 -36 
Q 775 19 384 128 
L 384 978 
Q 719 816 1070 734 
Q 1422 653 1784 653 
Q 2113 653 2278 743 
Q 2444 834 2444 1013 
Q 2444 1163 2330 1236 
Q 2216 1309 1875 1350 
L 1678 1375 
Q 931 1469 631 1722 
Q 331 1975 331 2491 
Q 331 3047 712 3315 
Q 1094 3584 1881 3584 
Q 2191 3584 2531 3537 
Q 2872 3491 3272 3391 
z
" transform="scale(0.015625)"/>
      <path id="DejaVuSans-Bold-4e" d="M 588 4666 
L 1931 4666 
L 3628 1466 
L 3628 4666 
L 4769 4666 
L 4769 0 
L 3425 0 
L 1728 3200 
L 1728 0 
L 588 0 
L 588 4666 
z
" transform="scale(0.015625)"/>
      <path id="DejaVuSans-Bold-75" d="M 500 1363 
L 500 3500 
L 1625 3500 
L 1625 3150 
Q 1625 2866 1622 2436 
Q 1619 2006 1619 1863 
Q 1619 1441 1641 1255 
Q 1663 1069 1716 984 
Q 1784 875 1895 815 
Q 2006 756 2150 756 
Q 2500 756 2700 1025 
Q 2900 1294 2900 1772 
L 2900 3500 
L 4019 3500 
L 4019 0 
L 2900 0 
L 2900 506 
Q 2647 200 2364 54 
Q 2081 -91 1741 -91 
Q 1134 -91 817 281 
Q 500 653 500 1363 
z
" transform="scale(0.015625)"/>
      <path id="DejaVuSans-Bold-6d" d="M 3781 2919 
Q 3994 3244 4286 3414 
Q 4578 3584 4928 3584 
Q 5531 3584 5847 3212 
Q 6163 2841 6163 2131 
L 6163 0 
L 5038 0 
L 5038 1825 
Q 5041 1866 5042 1909 
Q 5044 1953 5044 2034 
Q 5044 2406 4934 2573 
Q 4825 2741 4581 2741 
Q 4263 2741 4089 2478 
Q 3916 2216 3909 1719 
L 3909 0 
L 2784 0 
L 2784 1825 
Q 2784 2406 2684 2573 
Q 2584 2741 2328 2741 
Q 2006 2741 1831 2477 
Q 1656 2213 1656 1722 
L 1656 0 
L 531 0 
L 531 3500 
L 1656 3500 
L 1656 2988 
Q 1863 3284 2130 3434 
Q 2397 3584 2719 3584 
Q 3081 3584 3359 3409 
Q 3638 3234 3781 2919 
z
" transform="scale(0.015625)"/>
      <path id="DejaVuSans-Bold-62" d="M 2400 722 
Q 2759 722 2948 984 
Q 3138 1247 3138 1747 
Q 3138 2247 2948 2509 
Q 2759 2772 2400 2772 
Q 2041 2772 1848 2508 
Q 1656 2244 1656 1747 
Q 1656 1250 1848 986 
Q 2041 722 2400 722 
z
M 1656 2988 
Q 1888 3294 2169 3439 
Q 2450 3584 2816 3584 
Q 3463 3584 3878 3070 
Q 4294 2556 4294 1747 
Q 4294 938 3878 423 
Q 3463 -91 2816 -91 
Q 2450 -91 2169 54 
Q 1888 200 1656 506 
L 1656 0 
L 538 0 
L 538 4863 
L 1656 4863 
L 1656 2988 
z
" transform="scale(0.015625)"/>
      <path id="DejaVuSans-Bold-65" d="M 4031 1759 
L 4031 1441 
L 1416 1441 
Q 1456 1047 1700 850 
Q 1944 653 2381 653 
Q 2734 653 3104 758 
Q 3475 863 3866 1075 
L 3866 213 
Q 3469 63 3072 -14 
Q 2675 -91 2278 -91 
Q 1328 -91 801 392 
Q 275 875 275 1747 
Q 275 2603 792 3093 
Q 1309 3584 2216 3584 
Q 3041 3584 3536 3087 
Q 4031 2591 4031 1759 
z
M 2881 2131 
Q 2881 2450 2695 2645 
Q 2509 2841 2209 2841 
Q 1884 2841 1681 2658 
Q 1478 2475 1428 2131 
L 2881 2131 
z
" transform="scale(0.015625)"/>
      <path id="DejaVuSans-Bold-72" d="M 3138 2547 
Q 2991 2616 2845 2648 
Q 2700 2681 2553 2681 
Q 2122 2681 1889 2404 
Q 1656 2128 1656 1613 
L 1656 0 
L 538 0 
L 538 3500 
L 1656 3500 
L 1656 2925 
Q 1872 3269 2151 3426 
Q 2431 3584 2822 3584 
Q 2878 3584 2943 3579 
Q 3009 3575 3134 3559 
L 3138 2547 
z
" transform="scale(0.015625)"/>
      <path id="DejaVuSans-Bold-6f" d="M 2203 2784 
Q 1831 2784 1636 2517 
Q 1441 2250 1441 1747 
Q 1441 1244 1636 976 
Q 1831 709 2203 709 
Q 2569 709 2762 976 
Q 2956 1244 2956 1747 
Q 2956 2250 2762 2517 
Q 2569 2784 2203 2784 
z
M 2203 3584 
Q 3106 3584 3614 3096 
Q 4122 2609 4122 1747 
Q 4122 884 3614 396 
Q 3106 -91 2203 -91 
Q 1297 -91 786 396 
Q 275 884 275 1747 
Q 275 2609 786 3096 
Q 1297 3584 2203 3584 
z
" transform="scale(0.015625)"/>
      <path id="DejaVuSans-Bold-66" d="M 2841 4863 
L 2841 4128 
L 2222 4128 
Q 1984 4128 1890 4042 
Q 1797 3956 1797 3744 
L 1797 3500 
L 2753 3500 
L 2753 2700 
L 1797 2700 
L 1797 0 
L 678 0 
L 678 2700 
L 122 2700 
L 122 3500 
L 678 3500 
L 678 3744 
Q 678 4316 997 4589 
Q 1316 4863 1984 4863 
L 2841 4863 
z
" transform="scale(0.015625)"/>
      <path id="DejaVuSans-Bold-4a" d="M 588 4666 
L 1791 4666 
L 1791 453 
Q 1791 -419 1317 -850 
Q 844 -1281 -116 -1281 
L -359 -1281 
L -359 -372 
L -172 -372 
Q 203 -372 395 -162 
Q 588 47 588 453 
L 588 4666 
z
" transform="scale(0.015625)"/>
     </defs>
     <use xlink:href="#DejaVuSans-Bold-49"/>
     <use xlink:href="#DejaVuSans-Bold-4f" transform="translate(37.207031 0)"/>
     <use xlink:href="#DejaVuSans-Bold-50" transform="translate(122.216797 0)"/>
     <use xlink:href="#DejaVuSans-Bold-53" transform="translate(195.507812 0)"/>
     <use xlink:href="#DejaVuSans-Bold-20" transform="translate(267.529297 0)"/>
     <use xlink:href="#DejaVuSans-Bold-76" transform="translate(302.34375 0)"/>
     <use xlink:href="#DejaVuSans-Bold-73" transform="translate(367.529297 0)"/>
     <use xlink:href="#DejaVuSans-Bold-20" transform="translate(427.050781 0)"/>
     <use xlink:href="#DejaVuSans-Bold-4e" transform="translate(461.865234 0)"/>
     <use xlink:href="#DejaVuSans-Bold-75" transform="translate(545.556641 0)"/>
     <use xlink:href="#DejaVuSans-Bold-6d" transform="translate(616.748047 0)"/>
     <use xlink:href="#DejaVuSans-Bold-62" transform="translate(720.947266 0)"/>
     <use xlink:href="#DejaVuSans-Bold-65" transform="translate(792.529297 0)"/>
     <use xlink:href="#DejaVuSans-Bold-72" transform="translate(860.351562 0)"/>
     <use xlink:href="#DejaVuSans-Bold-20" transform="translate(909.667969 0)"/>
     <use xlink:href="#DejaVuSans-Bold-6f" transform="translate(944.482422 0)"/>
     <use xlink:href="#DejaVuSans-Bold-66" transform="translate(1013.183594 0)"/>
     <use xlink:href="#DejaVuSans-Bold-20" transform="translate(1056.689453 0)"/>
     <use xlink:href="#DejaVuSans-Bold-4a" transform="translate(1091.503906 0)"/>
     <use xlink:href="#DejaVuSans-Bold-6f" transform="translate(1128.710938 0)"/>
     <use xlink:href="#DejaVuSans-Bold-62" transform="translate(1197.412109 0)"/>
     <use xlink:href="#DejaVuSans-Bold-73" transform="translate(1268.994141 0)"/>
    </g>
   </g>
   <g id="legend_1">
    <g id="text_25">
     <!-- IO Depth -->
     <g style="fill: #262626" transform="translate(451.317187 120.065663) scale(0.1 -0.1)">
      <defs>
       <path id="DejaVuSans-44" d="M 1259 4147 
L 1259 519 
L 2022 519 
Q 2988 519 3436 956 
Q 3884 1394 3884 2338 
Q 3884 3275 3436 3711 
Q 2988 4147 2022 4147 
L 1259 4147 
z
M 628 4666 
L 1925 4666 
Q 3281 4666 3915 4102 
Q 4550 3538 4550 2338 
Q 4550 1131 3912 565 
Q 3275 0 1925 0 
L 628 0 
L 628 4666 
z
" transform="scale(0.015625)"/>
      </defs>
      <use xlink:href="#DejaVuSans-49"/>
      <use xlink:href="#DejaVuSans-4f" transform="translate(29.492188 0)"/>
      <use xlink:href="#DejaVuSans-20" transform="translate(108.203125 0)"/>
      <use xlink:href="#DejaVuSans-44" transform="translate(139.990234 0)"/>
      <use xlink:href="#DejaVuSans-65" transform="translate(216.992188 0)"/>
      <use xlink:href="#DejaVuSans-70" transform="translate(278.515625 0)"/>
      <use xlink:href="#DejaVuSans-74" transform="translate(341.992188 0)"/>
      <use xlink:href="#DejaVuSans-68" transform="translate(381.201172 0)"/>
     </g>
    </g>
    <g id="line2d_28">
     <path d="M 450.003125 131.243787 
L 460.003125 131.243787 
L 470.003125 131.243787 
" style="fill: none; stroke: #4c02a1; stroke-width: 1.5; stroke-linecap: round"/>
    </g>
    <g id="text_26">
     <!-- 1 -->
     <g style="fill: #262626" transform="translate(478.003125 134.743787) scale(0.1 -0.1)">
      <use xlink:href="#DejaVuSans-31"/>
     </g>
    </g>
    <g id="line2d_29">
     <path d="M 450.003125 145.921913 
L 460.003125 145.921913 
L 470.003125 145.921913 
" style="fill: none; stroke: #7e03a8; stroke-width: 1.5; stroke-linecap: round"/>
    </g>
    <g id="text_27">
     <!-- 4 -->
     <g style="fill: #262626" transform="translate(478.003125 149.421913) scale(0.1 -0.1)">
      <use xlink:href="#DejaVuSans-34"/>
     </g>
    </g>
    <g id="line2d_30">
     <path d="M 450.003125 160.600037 
L 460.003125 160.600037 
L 470.003125 160.600037 
" style="fill: none; stroke: #aa2395; stroke-width: 1.5; stroke-linecap: round"/>
    </g>
    <g id="text_28">
     <!-- 8 -->
     <g style="fill: #262626" transform="translate(478.003125 164.100037) scale(0.1 -0.1)">
      <use xlink:href="#DejaVuSans-38"/>
     </g>
    </g>
    <g id="line2d_31">
     <path d="M 450.003125 175.278163 
L 460.003125 175.278163 
L 470.003125 175.278163 
" style="fill: none; stroke: #cc4778; stroke-width: 1.5; stroke-linecap: round"/>
    </g>
    <g id="text_29">
     <!-- 16 -->
     <g style="fill: #262626" transform="translate(478.003125 178.778163) scale(0.1 -0.1)">
      <use xlink:href="#DejaVuSans-31"/>
      <use xlink:href="#DejaVuSans-36" transform="translate(63.623047 0)"/>
     </g>
    </g>
    <g id="line2d_32">
     <path d="M 450.003125 189.956288 
L 460.003125 189.956288 
L 470.003125 189.956288 
" style="fill: none; stroke: #e66c5c; stroke-width: 1.5; stroke-linecap: round"/>
    </g>
    <g id="text_30">
     <!-- 32 -->
     <g style="fill: #262626" transform="translate(478.003125 193.456288) scale(0.1 -0.1)">
      <use xlink:href="#DejaVuSans-33"/>
      <use xlink:href="#DejaVuSans-32" transform="translate(63.623047 0)"/>
     </g>
    </g>
    <g id="line2d_33">
     <path d="M 450.003125 204.634412 
L 460.003125 204.634412 
L 470.003125 204.634412 
" style="fill: none; stroke: #f89540; stroke-width: 1.5; stroke-linecap: round"/>
    </g>
    <g id="text_31">
     <!-- 64 -->
     <g style="fill: #262626" transform="translate(478.003125 208.134412) scale(0.1 -0.1)">
      <use xlink:href="#DejaVuSans-36"/>
      <use xlink:href="#DejaVuSans-34" transform="translate(63.623047 0)"/>
     </g>
    </g>
    <g id="line2d_34">
     <path d="M 450.003125 219.312537 
L 460.003125 219.312537 
L 470.003125 219.312537 
" style="fill: none; stroke: #fdc527; stroke-width: 1.5; stroke-linecap: round"/>
    </g>
    <g id="text_32">
     <!-- 128 -->
     <g style="fill: #262626" transform="translate(478.003125 222.812537) scale(0.1 -0.1)">
      <use xlink:href="#DejaVuSans-31"/>
      <use xlink:href="#DejaVuSans-32" transform="translate(63.623047 0)"/>
      <use xlink:href="#DejaVuSans-38" transform="translate(127.246094 0)"/>
     </g>
    </g>
   </g>
  </g>
 </g>
 <defs>
  <clipPath id="pd0e2257027">
   <rect x="59.690625" y="35.623725" width="357.12" height="266.112"/>
  </clipPath>
 </defs>
</svg>
