<?xml version="1.0" encoding="utf-8" standalone="no"?>
<!DOCTYPE svg PUBLIC "-//W3C//DTD SVG 1.1//EN"
  "http://www.w3.org/Graphics/SVG/1.1/DTD/svg11.dtd">
<svg xmlns:xlink="http://www.w3.org/1999/xlink" width="447.88405pt" height="336.501495pt" viewBox="0 0 447.88405 336.501495" xmlns="http://www.w3.org/2000/svg" version="1.1">
 <metadata>
  <rdf:RDF xmlns:dc="http://purl.org/dc/elements/1.1/" xmlns:cc="http://creativecommons.org/ns#" xmlns:rdf="http://www.w3.org/1999/02/22-rdf-syntax-ns#">
   <cc:Work>
    <dc:type rdf:resource="http://purl.org/dc/dcmitype/StillImage"/>
    <dc:date>2025-10-03T11:03:41.898842</dc:date>
    <dc:format>image/svg+xml</dc:format>
    <dc:creator>
     <cc:Agent>
      <dc:title>Matplotlib v3.10.6, https://matplotlib.org/</dc:title>
     </cc:Agent>
    </dc:creator>
   </cc:Work>
  </rdf:RDF>
 </metadata>
 <defs>
  <style type="text/css">*{stroke-linejoin: round; stroke-linecap: butt}</style>
 </defs>
 <g id="figure_1">
  <g id="patch_1">
   <path d="M 0 336.501495 
L 447.88405 336.501495 
L 447.88405 0 
L 0 0 
z
" style="fill: #ffffff"/>
  </g>
  <g id="axes_1">
   <g id="patch_2">
    <path d="M 40.603125 298.945245 
L 361.825125 298.945245 
L 361.825125 35.490845 
L 40.603125 35.490845 
z
" style="fill: #ffffff"/>
   </g>
   <g id="matplotlib.axis_1">
    <g id="xtick_1">
     <g id="line2d_1">
      <path d="M 55.204125 298.945245 
L 55.204125 35.490845 
" clip-path="url(#pa48820d101)" style="fill: none; stroke: #cccccc; stroke-width: 0.8; stroke-linecap: round"/>
     </g>
     <g id="text_1">
      <!-- 16 -->
      <g style="fill: #262626" transform="translate(48.841625 313.543682) scale(0.1 -0.1)">
       <defs>
        <path id="DejaVuSans-31" d="M 794 531 
L 1825 531 
L 1825 4091 
L 703 3866 
L 703 4441 
L 1819 4666 
L 2450 4666 
L 2450 531 
L 3481 531 
L 3481 0 
L 794 0 
L 794 531 
z
" transform="scale(0.015625)"/>
        <path id="DejaVuSans-36" d="M 2113 2584 
Q 1688 2584 1439 2293 
Q 1191 2003 1191 1497 
Q 1191 994 1439 701 
Q 1688 409 2113 409 
Q 2538 409 2786 701 
Q 3034 994 3034 1497 
Q 3034 2003 2786 2293 
Q 2538 2584 2113 2584 
z
M 3366 4563 
L 3366 3988 
Q 3128 4100 2886 4159 
Q 2644 4219 2406 4219 
Q 1781 4219 1451 3797 
Q 1122 3375 1075 2522 
Q 1259 2794 1537 2939 
Q 1816 3084 2150 3084 
Q 2853 3084 3261 2657 
Q 3669 2231 3669 1497 
Q 3669 778 3244 343 
Q 2819 -91 2113 -91 
Q 1303 -91 875 529 
Q 447 1150 447 2328 
Q 447 3434 972 4092 
Q 1497 4750 2381 4750 
Q 2619 4750 2861 4703 
Q 3103 4656 3366 4563 
z
" transform="scale(0.015625)"/>
       </defs>
       <use xlink:href="#DejaVuSans-31"/>
       <use xlink:href="#DejaVuSans-36" transform="translate(63.623047 0)"/>
      </g>
     </g>
    </g>
    <g id="xtick_2">
     <g id="line2d_2">
      <path d="M 180.355554 298.945245 
L 180.355554 35.490845 
" clip-path="url(#pa48820d101)" style="fill: none; stroke: #cccccc; stroke-width: 0.8; stroke-linecap: round"/>
     </g>
     <g id="text_2">
      <!-- 64 -->
      <g style="fill: #262626" transform="translate(173.993054 313.543682) scale(0.1 -0.1)">
       <defs>
        <path id="DejaVuSans-34" d="M 2419 4116 
L 825 1625 
L 2419 1625 
L 2419 4116 
z
M 2253 4666 
L 3047 4666 
L 3047 1625 
L 3713 1625 
L 3713 1100 
L 3047 1100 
L 3047 0 
L 2419 0 
L 2419 1100 
L 313 1100 
L 313 1709 
L 2253 4666 
z
" transform="scale(0.015625)"/>
       </defs>
       <use xlink:href="#DejaVuSans-36"/>
       <use xlink:href="#DejaVuSans-34" transform="translate(63.623047 0)"/>
      </g>
     </g>
    </g>
    <g id="xtick_3">
     <g id="line2d_3">
      <path d="M 347.224125 298.945245 
L 347.224125 35.490845 
" clip-path="url(#pa48820d101)" style="fill: none; stroke: #cccccc; stroke-width: 0.8; stroke-linecap: round"/>
     </g>
     <g id="text_3">
      <!-- 128 -->
      <g style="fill: #262626" transform="translate(337.680375 313.543682) scale(0.1 -0.1)">
       <defs>
        <path id="DejaVuSans-32" d="M 1228 531 
L 3431 531 
L 3431 0 
L 469 0 
L 469 531 
Q 828 903 1448 1529 
Q 2069 2156 2228 2338 
Q 2531 2678 2651 2914 
Q 2772 3150 2772 3378 
Q 2772 3750 2511 3984 
Q 2250 4219 1831 4219 
Q 1534 4219 1204 4116 
Q 875 4013 500 3803 
L 500 4441 
Q 881 4594 1212 4672 
Q 1544 4750 1819 4750 
Q 2544 4750 2975 4387 
Q 3406 4025 3406 3419 
Q 3406 3131 3298 2873 
Q 3191 2616 2906 2266 
Q 2828 2175 2409 1742 
Q 1991 1309 1228 531 
z
" transform="scale(0.015625)"/>
        <path id="DejaVuSans-38" d="M 2034 2216 
Q 1584 2216 1326 1975 
Q 1069 1734 1069 1313 
Q 1069 891 1326 650 
Q 1584 409 2034 409 
Q 2484 409 2743 651 
Q 3003 894 3003 1313 
Q 3003 1734 2745 1975 
Q 2488 2216 2034 2216 
z
M 1403 2484 
Q 997 2584 770 2862 
Q 544 3141 544 3541 
Q 544 4100 942 4425 
Q 1341 4750 2034 4750 
Q 2731 4750 3128 4425 
Q 3525 4100 3525 3541 
Q 3525 3141 3298 2862 
Q 3072 2584 2669 2484 
Q 3125 2378 3379 2068 
Q 3634 1759 3634 1313 
Q 3634 634 3220 271 
Q 2806 -91 2034 -91 
Q 1263 -91 848 271 
Q 434 634 434 1313 
Q 434 1759 690 2068 
Q 947 2378 1403 2484 
z
M 1172 3481 
Q 1172 3119 1398 2916 
Q 1625 2713 2034 2713 
Q 2441 2713 2670 2916 
Q 2900 3119 2900 3481 
Q 2900 3844 2670 4047 
Q 2441 4250 2034 4250 
Q 1625 4250 1398 4047 
Q 1172 3844 1172 3481 
z
" transform="scale(0.015625)"/>
       </defs>
       <use xlink:href="#DejaVuSans-31"/>
       <use xlink:href="#DejaVuSans-32" transform="translate(63.623047 0)"/>
       <use xlink:href="#DejaVuSans-38" transform="translate(127.246094 0)"/>
      </g>
     </g>
    </g>
    <g id="xtick_4">
     <g id="line2d_4">
      <path d="M 96.921268 298.945245 
L 96.921268 35.490845 
" clip-path="url(#pa48820d101)" style="fill: none; stroke: #cccccc; stroke-width: 0.8; stroke-linecap: round"/>
     </g>
     <g id="text_4">
      <!-- 32 -->
      <g style="fill: #262626" transform="translate(90.558768 313.543682) scale(0.1 -0.1)">
       <defs>
        <path id="DejaVuSans-33" d="M 2597 2516 
Q 3050 2419 3304 2112 
Q 3559 1806 3559 1356 
Q 3559 666 3084 287 
Q 2609 -91 1734 -91 
Q 1441 -91 1130 -33 
Q 819 25 488 141 
L 488 750 
Q 750 597 1062 519 
Q 1375 441 1716 441 
Q 2309 441 2620 675 
Q 2931 909 2931 1356 
Q 2931 1769 2642 2001 
Q 2353 2234 1838 2234 
L 1294 2234 
L 1294 2753 
L 1863 2753 
Q 2328 2753 2575 2939 
Q 2822 3125 2822 3475 
Q 2822 3834 2567 4026 
Q 2313 4219 1838 4219 
Q 1578 4219 1281 4162 
Q 984 4106 628 3988 
L 628 4550 
Q 988 4650 1302 4700 
Q 1616 4750 1894 4750 
Q 2613 4750 3031 4423 
Q 3450 4097 3450 3541 
Q 3450 3153 3228 2886 
Q 3006 2619 2597 2516 
z
" transform="scale(0.015625)"/>
       </defs>
       <use xlink:href="#DejaVuSans-33"/>
       <use xlink:href="#DejaVuSans-32" transform="translate(63.623047 0)"/>
      </g>
     </g>
    </g>
    <g id="text_5">
     <!-- Number of Jobs -->
     <g style="fill: #262626" transform="translate(162.81725 327.221807) scale(0.1 -0.1)">
      <defs>
       <path id="DejaVuSans-4e" d="M 628 4666 
L 1478 4666 
L 3547 763 
L 3547 4666 
L 4159 4666 
L 4159 0 
L 3309 0 
L 1241 3903 
L 1241 0 
L 628 0 
L 628 4666 
z
" transform="scale(0.015625)"/>
       <path id="DejaVuSans-75" d="M 544 1381 
L 544 3500 
L 1119 3500 
L 1119 1403 
Q 1119 906 1312 657 
Q 1506 409 1894 409 
Q 2359 409 2629 706 
Q 2900 1003 2900 1516 
L 2900 3500 
L 3475 3500 
L 3475 0 
L 2900 0 
L 2900 538 
Q 2691 219 2414 64 
Q 2138 -91 1772 -91 
Q 1169 -91 856 284 
Q 544 659 544 1381 
z
M 1991 3584 
L 1991 3584 
z
" transform="scale(0.015625)"/>
       <path id="DejaVuSans-6d" d="M 3328 2828 
Q 3544 3216 3844 3400 
Q 4144 3584 4550 3584 
Q 5097 3584 5394 3201 
Q 5691 2819 5691 2113 
L 5691 0 
L 5113 0 
L 5113 2094 
Q 5113 2597 4934 2840 
Q 4756 3084 4391 3084 
Q 3944 3084 3684 2787 
Q 3425 2491 3425 1978 
L 3425 0 
L 2847 0 
L 2847 2094 
Q 2847 2600 2669 2842 
Q 2491 3084 2119 3084 
Q 1678 3084 1418 2786 
Q 1159 2488 1159 1978 
L 1159 0 
L 581 0 
L 581 3500 
L 1159 3500 
L 1159 2956 
Q 1356 3278 1631 3431 
Q 1906 3584 2284 3584 
Q 2666 3584 2933 3390 
Q 3200 3197 3328 2828 
z
" transform="scale(0.015625)"/>
       <path id="DejaVuSans-62" d="M 3116 1747 
Q 3116 2381 2855 2742 
Q 2594 3103 2138 3103 
Q 1681 3103 1420 2742 
Q 1159 2381 1159 1747 
Q 1159 1113 1420 752 
Q 1681 391 2138 391 
Q 2594 391 2855 752 
Q 3116 1113 3116 1747 
z
M 1159 2969 
Q 1341 3281 1617 3432 
Q 1894 3584 2278 3584 
Q 2916 3584 3314 3078 
Q 3713 2572 3713 1747 
Q 3713 922 3314 415 
Q 2916 -91 2278 -91 
Q 1894 -91 1617 61 
Q 1341 213 1159 525 
L 1159 0 
L 581 0 
L 581 4863 
L 1159 4863 
L 1159 2969 
z
" transform="scale(0.015625)"/>
       <path id="DejaVuSans-65" d="M 3597 1894 
L 3597 1613 
L 953 1613 
Q 991 1019 1311 708 
Q 1631 397 2203 397 
Q 2534 397 2845 478 
Q 3156 559 3463 722 
L 3463 178 
Q 3153 47 2828 -22 
Q 2503 -91 2169 -91 
Q 1331 -91 842 396 
Q 353 884 353 1716 
Q 353 2575 817 3079 
Q 1281 3584 2069 3584 
Q 2775 3584 3186 3129 
Q 3597 2675 3597 1894 
z
M 3022 2063 
Q 3016 2534 2758 2815 
Q 2500 3097 2075 3097 
Q 1594 3097 1305 2825 
Q 1016 2553 972 2059 
L 3022 2063 
z
" transform="scale(0.015625)"/>
       <path id="DejaVuSans-72" d="M 2631 2963 
Q 2534 3019 2420 3045 
Q 2306 3072 2169 3072 
Q 1681 3072 1420 2755 
Q 1159 2438 1159 1844 
L 1159 0 
L 581 0 
L 581 3500 
L 1159 3500 
L 1159 2956 
Q 1341 3275 1631 3429 
Q 1922 3584 2338 3584 
Q 2397 3584 2469 3576 
Q 2541 3569 2628 3553 
L 2631 2963 
z
" transform="scale(0.015625)"/>
       <path id="DejaVuSans-20" transform="scale(0.015625)"/>
       <path id="DejaVuSans-6f" d="M 1959 3097 
Q 1497 3097 1228 2736 
Q 959 2375 959 1747 
Q 959 1119 1226 758 
Q 1494 397 1959 397 
Q 2419 397 2687 759 
Q 2956 1122 2956 1747 
Q 2956 2369 2687 2733 
Q 2419 3097 1959 3097 
z
M 1959 3584 
Q 2709 3584 3137 3096 
Q 3566 2609 3566 1747 
Q 3566 888 3137 398 
Q 2709 -91 1959 -91 
Q 1206 -91 779 398 
Q 353 888 353 1747 
Q 353 2609 779 3096 
Q 1206 3584 1959 3584 
z
" transform="scale(0.015625)"/>
       <path id="DejaVuSans-66" d="M 2375 4863 
L 2375 4384 
L 1825 4384 
Q 1516 4384 1395 4259 
Q 1275 4134 1275 3809 
L 1275 3500 
L 2222 3500 
L 2222 3053 
L 1275 3053 
L 1275 0 
L 697 0 
L 697 3053 
L 147 3053 
L 147 3500 
L 697 3500 
L 697 3744 
Q 697 4328 969 4595 
Q 1241 4863 1831 4863 
L 2375 4863 
z
" transform="scale(0.015625)"/>
       <path id="DejaVuSans-4a" d="M 628 4666 
L 1259 4666 
L 1259 325 
Q 1259 -519 939 -900 
Q 619 -1281 -91 -1281 
L -331 -1281 
L -331 -750 
L -134 -750 
Q 284 -750 456 -515 
Q 628 -281 628 325 
L 628 4666 
z
" transform="scale(0.015625)"/>
       <path id="DejaVuSans-73" d="M 2834 3397 
L 2834 2853 
Q 2591 2978 2328 3040 
Q 2066 3103 1784 3103 
Q 1356 3103 1142 2972 
Q 928 2841 928 2578 
Q 928 2378 1081 2264 
Q 1234 2150 1697 2047 
L 1894 2003 
Q 2506 1872 2764 1633 
Q 3022 1394 3022 966 
Q 3022 478 2636 193 
Q 2250 -91 1575 -91 
Q 1294 -91 989 -36 
Q 684 19 347 128 
L 347 722 
Q 666 556 975 473 
Q 1284 391 1588 391 
Q 1994 391 2212 530 
Q 2431 669 2431 922 
Q 2431 1156 2273 1281 
Q 2116 1406 1581 1522 
L 1381 1569 
Q 847 1681 609 1914 
Q 372 2147 372 2553 
Q 372 3047 722 3315 
Q 1072 3584 1716 3584 
Q 2034 3584 2315 3537 
Q 2597 3491 2834 3397 
z
" transform="scale(0.015625)"/>
      </defs>
      <use xlink:href="#DejaVuSans-4e"/>
      <use xlink:href="#DejaVuSans-75" transform="translate(74.804688 0)"/>
      <use xlink:href="#DejaVuSans-6d" transform="translate(138.183594 0)"/>
      <use xlink:href="#DejaVuSans-62" transform="translate(235.595703 0)"/>
      <use xlink:href="#DejaVuSans-65" transform="translate(299.072266 0)"/>
      <use xlink:href="#DejaVuSans-72" transform="translate(360.595703 0)"/>
      <use xlink:href="#DejaVuSans-20" transform="translate(401.708984 0)"/>
      <use xlink:href="#DejaVuSans-6f" transform="translate(433.496094 0)"/>
      <use xlink:href="#DejaVuSans-66" transform="translate(494.677734 0)"/>
      <use xlink:href="#DejaVuSans-20" transform="translate(529.882812 0)"/>
      <use xlink:href="#DejaVuSans-4a" transform="translate(561.669922 0)"/>
      <use xlink:href="#DejaVuSans-6f" transform="translate(591.162109 0)"/>
      <use xlink:href="#DejaVuSans-62" transform="translate(652.34375 0)"/>
      <use xlink:href="#DejaVuSans-73" transform="translate(715.820312 0)"/>
     </g>
    </g>
   </g>
   <g id="matplotlib.axis_2">
    <g id="ytick_1">
     <g id="line2d_5">
      <path d="M 40.603125 283.12373 
L 361.825125 283.12373 
" clip-path="url(#pa48820d101)" style="fill: none; stroke: #cccccc; stroke-width: 0.8; stroke-linecap: round"/>
     </g>
     <g id="text_6">
      <!-- 9 -->
      <g style="fill: #262626" transform="translate(27.240625 286.922948) scale(0.1 -0.1)">
       <defs>
        <path id="DejaVuSans-39" d="M 703 97 
L 703 672 
Q 941 559 1184 500 
Q 1428 441 1663 441 
Q 2288 441 2617 861 
Q 2947 1281 2994 2138 
Q 2813 1869 2534 1725 
Q 2256 1581 1919 1581 
Q 1219 1581 811 2004 
Q 403 2428 403 3163 
Q 403 3881 828 4315 
Q 1253 4750 1959 4750 
Q 2769 4750 3195 4129 
Q 3622 3509 3622 2328 
Q 3622 1225 3098 567 
Q 2575 -91 1691 -91 
Q 1453 -91 1209 -44 
Q 966 3 703 97 
z
M 1959 2075 
Q 2384 2075 2632 2365 
Q 2881 2656 2881 3163 
Q 2881 3666 2632 3958 
Q 2384 4250 1959 4250 
Q 1534 4250 1286 3958 
Q 1038 3666 1038 3163 
Q 1038 2656 1286 2365 
Q 1534 2075 1959 2075 
z
" transform="scale(0.015625)"/>
       </defs>
       <use xlink:href="#DejaVuSans-39"/>
      </g>
     </g>
    </g>
    <g id="ytick_2">
     <g id="line2d_6">
      <path d="M 40.603125 238.500349 
L 361.825125 238.500349 
" clip-path="url(#pa48820d101)" style="fill: none; stroke: #cccccc; stroke-width: 0.8; stroke-linecap: round"/>
     </g>
     <g id="text_7">
      <!-- 10 -->
      <g style="fill: #262626" transform="translate(20.878125 242.299567) scale(0.1 -0.1)">
       <defs>
        <path id="DejaVuSans-30" d="M 2034 4250 
Q 1547 4250 1301 3770 
Q 1056 3291 1056 2328 
Q 1056 1369 1301 889 
Q 1547 409 2034 409 
Q 2525 409 2770 889 
Q 3016 1369 3016 2328 
Q 3016 3291 2770 3770 
Q 2525 4250 2034 4250 
z
M 2034 4750 
Q 2819 4750 3233 4129 
Q 3647 3509 3647 2328 
Q 3647 1150 3233 529 
Q 2819 -91 2034 -91 
Q 1250 -91 836 529 
Q 422 1150 422 2328 
Q 422 3509 836 4129 
Q 1250 4750 2034 4750 
z
" transform="scale(0.015625)"/>
       </defs>
       <use xlink:href="#DejaVuSans-31"/>
       <use xlink:href="#DejaVuSans-30" transform="translate(63.623047 0)"/>
      </g>
     </g>
    </g>
    <g id="ytick_3">
     <g id="line2d_7">
      <path d="M 40.603125 193.876968 
L 361.825125 193.876968 
" clip-path="url(#pa48820d101)" style="fill: none; stroke: #cccccc; stroke-width: 0.8; stroke-linecap: round"/>
     </g>
     <g id="text_8">
      <!-- 11 -->
      <g style="fill: #262626" transform="translate(20.878125 197.676187) scale(0.1 -0.1)">
       <use xlink:href="#DejaVuSans-31"/>
       <use xlink:href="#DejaVuSans-31" transform="translate(63.623047 0)"/>
      </g>
     </g>
    </g>
    <g id="ytick_4">
     <g id="line2d_8">
      <path d="M 40.603125 149.253587 
L 361.825125 149.253587 
" clip-path="url(#pa48820d101)" style="fill: none; stroke: #cccccc; stroke-width: 0.8; stroke-linecap: round"/>
     </g>
     <g id="text_9">
      <!-- 12 -->
      <g style="fill: #262626" transform="translate(20.878125 153.052806) scale(0.1 -0.1)">
       <use xlink:href="#DejaVuSans-31"/>
       <use xlink:href="#DejaVuSans-32" transform="translate(63.623047 0)"/>
      </g>
     </g>
    </g>
    <g id="ytick_5">
     <g id="line2d_9">
      <path d="M 40.603125 104.630206 
L 361.825125 104.630206 
" clip-path="url(#pa48820d101)" style="fill: none; stroke: #cccccc; stroke-width: 0.8; stroke-linecap: round"/>
     </g>
     <g id="text_10">
      <!-- 13 -->
      <g style="fill: #262626" transform="translate(20.878125 108.429425) scale(0.1 -0.1)">
       <use xlink:href="#DejaVuSans-31"/>
       <use xlink:href="#DejaVuSans-33" transform="translate(63.623047 0)"/>
      </g>
     </g>
    </g>
    <g id="ytick_6">
     <g id="line2d_10">
      <path d="M 40.603125 60.006825 
L 361.825125 60.006825 
" clip-path="url(#pa48820d101)" style="fill: none; stroke: #cccccc; stroke-width: 0.8; stroke-linecap: round"/>
     </g>
     <g id="text_11">
      <!-- 14 -->
      <g style="fill: #262626" transform="translate(20.878125 63.806044) scale(0.1 -0.1)">
       <use xlink:href="#DejaVuSans-31"/>
       <use xlink:href="#DejaVuSans-34" transform="translate(63.623047 0)"/>
      </g>
     </g>
    </g>
    <g id="text_12">
     <!-- Mean Bandwidth (GiB/s) -->
     <g style="fill: #262626" transform="translate(14.798438 227.522732) rotate(-90) scale(0.1 -0.1)">
      <defs>
       <path id="DejaVuSans-4d" d="M 628 4666 
L 1569 4666 
L 2759 1491 
L 3956 4666 
L 4897 4666 
L 4897 0 
L 4281 0 
L 4281 4097 
L 3078 897 
L 2444 897 
L 1241 4097 
L 1241 0 
L 628 0 
L 628 4666 
z
" transform="scale(0.015625)"/>
       <path id="DejaVuSans-61" d="M 2194 1759 
Q 1497 1759 1228 1600 
Q 959 1441 959 1056 
Q 959 750 1161 570 
Q 1363 391 1709 391 
Q 2188 391 2477 730 
Q 2766 1069 2766 1631 
L 2766 1759 
L 2194 1759 
z
M 3341 1997 
L 3341 0 
L 2766 0 
L 2766 531 
Q 2569 213 2275 61 
Q 1981 -91 1556 -91 
Q 1019 -91 701 211 
Q 384 513 384 1019 
Q 384 1609 779 1909 
Q 1175 2209 1959 2209 
L 2766 2209 
L 2766 2266 
Q 2766 2663 2505 2880 
Q 2244 3097 1772 3097 
Q 1472 3097 1187 3025 
Q 903 2953 641 2809 
L 641 3341 
Q 956 3463 1253 3523 
Q 1550 3584 1831 3584 
Q 2591 3584 2966 3190 
Q 3341 2797 3341 1997 
z
" transform="scale(0.015625)"/>
       <path id="DejaVuSans-6e" d="M 3513 2113 
L 3513 0 
L 2938 0 
L 2938 2094 
Q 2938 2591 2744 2837 
Q 2550 3084 2163 3084 
Q 1697 3084 1428 2787 
Q 1159 2491 1159 1978 
L 1159 0 
L 581 0 
L 581 3500 
L 1159 3500 
L 1159 2956 
Q 1366 3272 1645 3428 
Q 1925 3584 2291 3584 
Q 2894 3584 3203 3211 
Q 3513 2838 3513 2113 
z
" transform="scale(0.015625)"/>
       <path id="DejaVuSans-42" d="M 1259 2228 
L 1259 519 
L 2272 519 
Q 2781 519 3026 730 
Q 3272 941 3272 1375 
Q 3272 1813 3026 2020 
Q 2781 2228 2272 2228 
L 1259 2228 
z
M 1259 4147 
L 1259 2741 
L 2194 2741 
Q 2656 2741 2882 2914 
Q 3109 3088 3109 3444 
Q 3109 3797 2882 3972 
Q 2656 4147 2194 4147 
L 1259 4147 
z
M 628 4666 
L 2241 4666 
Q 2963 4666 3353 4366 
Q 3744 4066 3744 3513 
Q 3744 3084 3544 2831 
Q 3344 2578 2956 2516 
Q 3422 2416 3680 2098 
Q 3938 1781 3938 1306 
Q 3938 681 3513 340 
Q 3088 0 2303 0 
L 628 0 
L 628 4666 
z
" transform="scale(0.015625)"/>
       <path id="DejaVuSans-64" d="M 2906 2969 
L 2906 4863 
L 3481 4863 
L 3481 0 
L 2906 0 
L 2906 525 
Q 2725 213 2448 61 
Q 2172 -91 1784 -91 
Q 1150 -91 751 415 
Q 353 922 353 1747 
Q 353 2572 751 3078 
Q 1150 3584 1784 3584 
Q 2172 3584 2448 3432 
Q 2725 3281 2906 2969 
z
M 947 1747 
Q 947 1113 1208 752 
Q 1469 391 1925 391 
Q 2381 391 2643 752 
Q 2906 1113 2906 1747 
Q 2906 2381 2643 2742 
Q 2381 3103 1925 3103 
Q 1469 3103 1208 2742 
Q 947 2381 947 1747 
z
" transform="scale(0.015625)"/>
       <path id="DejaVuSans-77" d="M 269 3500 
L 844 3500 
L 1563 769 
L 2278 3500 
L 2956 3500 
L 3675 769 
L 4391 3500 
L 4966 3500 
L 4050 0 
L 3372 0 
L 2619 2869 
L 1863 0 
L 1184 0 
L 269 3500 
z
" transform="scale(0.015625)"/>
       <path id="DejaVuSans-69" d="M 603 3500 
L 1178 3500 
L 1178 0 
L 603 0 
L 603 3500 
z
M 603 4863 
L 1178 4863 
L 1178 4134 
L 603 4134 
L 603 4863 
z
" transform="scale(0.015625)"/>
       <path id="DejaVuSans-74" d="M 1172 4494 
L 1172 3500 
L 2356 3500 
L 2356 3053 
L 1172 3053 
L 1172 1153 
Q 1172 725 1289 603 
Q 1406 481 1766 481 
L 2356 481 
L 2356 0 
L 1766 0 
Q 1100 0 847 248 
Q 594 497 594 1153 
L 594 3053 
L 172 3053 
L 172 3500 
L 594 3500 
L 594 4494 
L 1172 4494 
z
" transform="scale(0.015625)"/>
       <path id="DejaVuSans-68" d="M 3513 2113 
L 3513 0 
L 2938 0 
L 2938 2094 
Q 2938 2591 2744 2837 
Q 2550 3084 2163 3084 
Q 1697 3084 1428 2787 
Q 1159 2491 1159 1978 
L 1159 0 
L 581 0 
L 581 4863 
L 1159 4863 
L 1159 2956 
Q 1366 3272 1645 3428 
Q 1925 3584 2291 3584 
Q 2894 3584 3203 3211 
Q 3513 2838 3513 2113 
z
" transform="scale(0.015625)"/>
       <path id="DejaVuSans-28" d="M 1984 4856 
Q 1566 4138 1362 3434 
Q 1159 2731 1159 2009 
Q 1159 1288 1364 580 
Q 1569 -128 1984 -844 
L 1484 -844 
Q 1016 -109 783 600 
Q 550 1309 550 2009 
Q 550 2706 781 3412 
Q 1013 4119 1484 4856 
L 1984 4856 
z
" transform="scale(0.015625)"/>
       <path id="DejaVuSans-47" d="M 3809 666 
L 3809 1919 
L 2778 1919 
L 2778 2438 
L 4434 2438 
L 4434 434 
Q 4069 175 3628 42 
Q 3188 -91 2688 -91 
Q 1594 -91 976 548 
Q 359 1188 359 2328 
Q 359 3472 976 4111 
Q 1594 4750 2688 4750 
Q 3144 4750 3555 4637 
Q 3966 4525 4313 4306 
L 4313 3634 
Q 3963 3931 3569 4081 
Q 3175 4231 2741 4231 
Q 1884 4231 1454 3753 
Q 1025 3275 1025 2328 
Q 1025 1384 1454 906 
Q 1884 428 2741 428 
Q 3075 428 3337 486 
Q 3600 544 3809 666 
z
" transform="scale(0.015625)"/>
       <path id="DejaVuSans-2f" d="M 1625 4666 
L 2156 4666 
L 531 -594 
L 0 -594 
L 1625 4666 
z
" transform="scale(0.015625)"/>
       <path id="DejaVuSans-29" d="M 513 4856 
L 1013 4856 
Q 1481 4119 1714 3412 
Q 1947 2706 1947 2009 
Q 1947 1309 1714 600 
Q 1481 -109 1013 -844 
L 513 -844 
Q 928 -128 1133 580 
Q 1338 1288 1338 2009 
Q 1338 2731 1133 3434 
Q 928 4138 513 4856 
z
" transform="scale(0.015625)"/>
      </defs>
      <use xlink:href="#DejaVuSans-4d"/>
      <use xlink:href="#DejaVuSans-65" transform="translate(86.279297 0)"/>
      <use xlink:href="#DejaVuSans-61" transform="translate(147.802734 0)"/>
      <use xlink:href="#DejaVuSans-6e" transform="translate(209.082031 0)"/>
      <use xlink:href="#DejaVuSans-20" transform="translate(272.460938 0)"/>
      <use xlink:href="#DejaVuSans-42" transform="translate(304.248047 0)"/>
      <use xlink:href="#DejaVuSans-61" transform="translate(372.851562 0)"/>
      <use xlink:href="#DejaVuSans-6e" transform="translate(434.130859 0)"/>
      <use xlink:href="#DejaVuSans-64" transform="translate(497.509766 0)"/>
      <use xlink:href="#DejaVuSans-77" transform="translate(560.986328 0)"/>
      <use xlink:href="#DejaVuSans-69" transform="translate(642.773438 0)"/>
      <use xlink:href="#DejaVuSans-64" transform="translate(670.556641 0)"/>
      <use xlink:href="#DejaVuSans-74" transform="translate(734.033203 0)"/>
      <use xlink:href="#DejaVuSans-68" transform="translate(773.242188 0)"/>
      <use xlink:href="#DejaVuSans-20" transform="translate(836.621094 0)"/>
      <use xlink:href="#DejaVuSans-28" transform="translate(868.408203 0)"/>
      <use xlink:href="#DejaVuSans-47" transform="translate(907.421875 0)"/>
      <use xlink:href="#DejaVuSans-69" transform="translate(984.912109 0)"/>
      <use xlink:href="#DejaVuSans-42" transform="translate(1012.695312 0)"/>
      <use xlink:href="#DejaVuSans-2f" transform="translate(1081.298828 0)"/>
      <use xlink:href="#DejaVuSans-73" transform="translate(1114.990234 0)"/>
      <use xlink:href="#DejaVuSans-29" transform="translate(1167.089844 0)"/>
     </g>
    </g>
   </g>
   <g id="FillBetweenPolyCollection_1"/>
   <g id="FillBetweenPolyCollection_2"/>
   <g id="FillBetweenPolyCollection_3"/>
   <g id="FillBetweenPolyCollection_4"/>
   <g id="FillBetweenPolyCollection_5"/>
   <g id="FillBetweenPolyCollection_6"/>
   <g id="FillBetweenPolyCollection_7"/>
   <g id="line2d_11">
    <path d="M 55.204125 186.012223 
L 96.921268 274.361731 
L 180.355554 264.713149 
L 347.224125 228.228928 
" clip-path="url(#pa48820d101)" style="fill: none; stroke: #4c02a1; stroke-width: 1.5; stroke-linecap: round"/>
   </g>
   <g id="line2d_12">
    <path d="M 55.204125 187.805411 
L 96.921268 226.116249 
L 180.355554 128.115728 
L 347.224125 68.133266 
" clip-path="url(#pa48820d101)" style="fill: none; stroke: #7e03a8; stroke-width: 1.5; stroke-linecap: round"/>
   </g>
   <g id="line2d_13">
    <path d="M 55.204125 187.35734 
L 96.921268 265.470855 
L 180.355554 283.444849 
L 347.224125 195.863173 
" clip-path="url(#pa48820d101)" style="fill: none; stroke: #aa2395; stroke-width: 1.5; stroke-linecap: round"/>
   </g>
   <g id="line2d_14">
    <path d="M 55.204125 194.061102 
L 96.921268 272.294631 
L 180.355554 122.114005 
L 347.224125 55.757928 
" clip-path="url(#pa48820d101)" style="fill: none; stroke: #cc4778; stroke-width: 1.5; stroke-linecap: round"/>
   </g>
   <g id="line2d_15">
    <path d="M 55.204125 273.635099 
L 96.921268 286.970045 
L 180.355554 130.95915 
L 347.224125 47.466045 
" clip-path="url(#pa48820d101)" style="fill: none; stroke: #e66c5c; stroke-width: 1.5; stroke-linecap: round"/>
   </g>
   <g id="line2d_16">
    <path d="M 55.204125 253.964518 
L 96.921268 275.747777 
L 180.355554 121.179328 
L 347.224125 55.827789 
" clip-path="url(#pa48820d101)" style="fill: none; stroke: #f89540; stroke-width: 1.5; stroke-linecap: round"/>
   </g>
   <g id="line2d_17">
    <path d="M 55.204125 247.452882 
L 96.921268 271.148865 
L 180.355554 118.943456 
L 347.224125 62.617115 
" clip-path="url(#pa48820d101)" style="fill: none; stroke: #fdc527; stroke-width: 1.5; stroke-linecap: round"/>
   </g>
   <g id="line2d_18"/>
   <g id="line2d_19"/>
   <g id="line2d_20"/>
   <g id="line2d_21"/>
   <g id="line2d_22"/>
   <g id="line2d_23"/>
   <g id="line2d_24"/>
   <g id="text_13">
    <path d="M 90.228153 264.706316 
L 90.915987 266.163026 
L 95.945946 263.787965 
L 94.879497 262.352789 
L 95.69192 261.969177 
L 96.754367 263.395875 
L 97.17534 264.287421 
L 91.332957 267.046095 
L 92.020791 268.502805 
L 91.270536 268.857063 
L 89.477898 265.060574 
L 90.228153 264.706316 
z
" clip-path="url(#pa48820d101)" style="fill: #4c02a1; stroke: #ffffff; stroke-width: 5"/>
    <path d="M 90.228153 264.706316 
L 90.915987 266.163026 
L 95.945946 263.787965 
L 94.879497 262.352789 
L 95.69192 261.969177 
L 96.754367 263.395875 
L 97.17534 264.287421 
L 91.332957 267.046095 
L 92.020791 268.502805 
L 91.270536 268.857063 
L 89.477898 265.060574 
L 90.228153 264.706316 
z
" clip-path="url(#pa48820d101)" style="fill: #4c02a1"/>
   </g>
   <g id="text_14">
    <path d="M 126.531252 185.672583 
L 127.880312 190.092128 
L 129.494865 188.195701 
L 126.531252 185.672583 
z
M 125.708762 185.312987 
L 126.512999 184.368343 
L 130.130962 187.448552 
L 130.805549 186.656193 
L 131.430156 187.187963 
L 130.755569 187.980321 
L 132.06427 189.094504 
L 131.428173 189.841654 
L 130.119472 188.727471 
L 127.986318 191.233038 
L 127.261774 190.616185 
L 125.708762 185.312987 
z
" clip-path="url(#pa48820d101)" style="fill: #7e03a8; stroke: #ffffff; stroke-width: 5"/>
    <path d="M 126.531252 185.672583 
L 127.880312 190.092128 
L 129.494865 188.195701 
L 126.531252 185.672583 
z
M 125.708762 185.312987 
L 126.512999 184.368343 
L 130.130962 187.448552 
L 130.805549 186.656193 
L 131.430156 187.187963 
L 130.755569 187.980321 
L 132.06427 189.094504 
L 131.428173 189.841654 
L 130.119472 188.727471 
L 127.986318 191.233038 
L 127.261774 190.616185 
L 125.708762 185.312987 
z
" clip-path="url(#pa48820d101)" style="fill: #7e03a8"/>
   </g>
   <g id="text_15">
    <path d="M 165.22167 279.465347 
Q 164.534314 279.317272 164.060927 279.600493 
Q 163.589068 279.884043 163.450536 280.527103 
Q 163.311674 281.171691 163.624929 281.624375 
Q 163.93971 282.077389 164.627067 282.225464 
Q 165.314423 282.373539 165.789666 282.08912 
Q 166.266766 281.803502 166.40464 281.163497 
Q 166.543172 280.520437 166.228391 280.067423 
Q 165.915136 279.614739 165.22167 279.465347 
z
M 164.346031 278.848354 
Q 163.758788 278.562012 163.503533 278.062683 
Q 163.250134 277.562156 163.381756 276.951172 
Q 163.565698 276.097323 164.28057 275.731863 
Q 164.996969 275.366733 166.055497 275.594768 
Q 167.120136 275.82412 167.619593 276.451179 
Q 168.119051 277.078238 167.935109 277.932087 
Q 167.803487 278.543071 167.364947 278.894536 
Q 166.928264 279.244803 166.279793 279.264939 
Q 166.941434 279.576899 167.227401 280.133991 
Q 167.515225 280.689885 167.368466 281.371131 
Q 167.145037 282.408275 166.393222 282.826514 
Q 165.641736 283.243224 164.462539 282.989193 
Q 163.284868 282.735492 162.770091 282.045994 
Q 162.257171 281.355297 162.4806 280.318153 
Q 162.627359 279.636907 163.120066 279.24916 
Q 163.61463 278.860216 164.346031 278.848354 
z
M 164.321257 277.249467 
Q 164.202138 277.802407 164.480546 278.186847 
Q 164.76048 278.571617 165.385211 278.706201 
Q 166.006886 278.840126 166.423473 278.605406 
Q 166.841586 278.371015 166.960704 277.818075 
Q 167.080152 277.263608 166.795635 276.877851 
Q 166.512645 276.492423 165.890969 276.358497 
Q 165.266239 276.223914 164.852708 276.459292 
Q 164.440704 276.694999 164.321257 277.249467 
z
" clip-path="url(#pa48820d101)" style="fill: #aa2395; stroke: #ffffff; stroke-width: 5"/>
    <path d="M 165.22167 279.465347 
Q 164.534314 279.317272 164.060927 279.600493 
Q 163.589068 279.884043 163.450536 280.527103 
Q 163.311674 281.171691 163.624929 281.624375 
Q 163.93971 282.077389 164.627067 282.225464 
Q 165.314423 282.373539 165.789666 282.08912 
Q 166.266766 281.803502 166.40464 281.163497 
Q 166.543172 280.520437 166.228391 280.067423 
Q 165.915136 279.614739 165.22167 279.465347 
z
M 164.346031 278.848354 
Q 163.758788 278.562012 163.503533 278.062683 
Q 163.250134 277.562156 163.381756 276.951172 
Q 163.565698 276.097323 164.28057 275.731863 
Q 164.996969 275.366733 166.055497 275.594768 
Q 167.120136 275.82412 167.619593 276.451179 
Q 168.119051 277.078238 167.935109 277.932087 
Q 167.803487 278.543071 167.364947 278.894536 
Q 166.928264 279.244803 166.279793 279.264939 
Q 166.941434 279.576899 167.227401 280.133991 
Q 167.515225 280.689885 167.368466 281.371131 
Q 167.145037 282.408275 166.393222 282.826514 
Q 165.641736 283.243224 164.462539 282.989193 
Q 163.284868 282.735492 162.770091 282.045994 
Q 162.257171 281.355297 162.4806 280.318153 
Q 162.627359 279.636907 163.120066 279.24916 
Q 163.61463 278.860216 164.346031 278.848354 
z
M 164.321257 277.249467 
Q 164.202138 277.802407 164.480546 278.186847 
Q 164.76048 278.571617 165.385211 278.706201 
Q 166.006886 278.840126 166.423473 278.605406 
Q 166.841586 278.371015 166.960704 277.818075 
Q 167.080152 277.263608 166.795635 276.877851 
Q 166.512645 276.492423 165.890969 276.358497 
Q 165.266239 276.223914 164.852708 276.459292 
Q 164.440704 276.694999 164.321257 277.249467 
z
" clip-path="url(#pa48820d101)" style="fill: #aa2395"/>
   </g>
   <g id="text_16">
    <path d="M 197.167785 117.505202 
L 198.664711 116.909942 
L 196.609305 111.741121 
L 195.110161 112.715601 
L 194.778178 111.88075 
L 196.26861 110.909733 
L 197.184769 110.545418 
L 199.572158 116.549091 
L 201.069084 115.953832 
L 201.375663 116.724799 
L 197.474364 118.276169 
L 197.167785 117.505202 
z
M 203.809561 111.411935 
Q 203.192496 111.657314 202.998981 112.223584 
Q 202.806341 112.787826 203.098486 113.522495 
Q 203.388898 114.252809 203.91814 114.535035 
Q 204.448257 114.815231 205.065321 114.569853 
Q 205.682386 114.324474 205.873871 113.757329 
Q 206.06478 113.188732 205.774367 112.458418 
Q 205.482222 111.723749 204.954712 111.445879 
Q 204.426625 111.166557 203.809561 111.411935 
z
M 204.486213 107.81516 
L 204.818196 108.650012 
Q 204.407976 108.624809 204.022548 108.678867 
Q 203.636542 108.731474 203.290986 108.868886 
Q 202.383539 109.229737 202.148053 110.032974 
Q 201.914019 110.835635 202.338268 112.101255 
Q 202.448378 111.6001 202.768294 111.229065 
Q 203.089661 110.857454 203.574601 110.664615 
Q 204.595298 110.25873 205.434213 110.643135 
Q 206.27255 111.026088 206.696334 112.091794 
Q 207.111456 113.135722 206.745544 114.012684 
Q 206.379055 114.888194 205.354002 115.295811 
Q 204.17795 115.763473 203.198566 115.110396 
Q 202.218605 114.455867 201.538473 112.74551 
Q 200.899911 111.139691 201.282264 109.881215 
Q 201.664616 108.62274 202.94811 108.112352 
Q 203.293666 107.97494 203.672165 107.903459 
Q 204.050665 107.831978 204.486213 107.81516 
z
" clip-path="url(#pa48820d101)" style="fill: #cc4778; stroke: #ffffff; stroke-width: 5"/>
    <path d="M 197.167785 117.505202 
L 198.664711 116.909942 
L 196.609305 111.741121 
L 195.110161 112.715601 
L 194.778178 111.88075 
L 196.26861 110.909733 
L 197.184769 110.545418 
L 199.572158 116.549091 
L 201.069084 115.953832 
L 201.375663 116.724799 
L 197.474364 118.276169 
L 197.167785 117.505202 
z
M 203.809561 111.411935 
Q 203.192496 111.657314 202.998981 112.223584 
Q 202.806341 112.787826 203.098486 113.522495 
Q 203.388898 114.252809 203.91814 114.535035 
Q 204.448257 114.815231 205.065321 114.569853 
Q 205.682386 114.324474 205.873871 113.757329 
Q 206.06478 113.188732 205.774367 112.458418 
Q 205.482222 111.723749 204.954712 111.445879 
Q 204.426625 111.166557 203.809561 111.411935 
z
M 204.486213 107.81516 
L 204.818196 108.650012 
Q 204.407976 108.624809 204.022548 108.678867 
Q 203.636542 108.731474 203.290986 108.868886 
Q 202.383539 109.229737 202.148053 110.032974 
Q 201.914019 110.835635 202.338268 112.101255 
Q 202.448378 111.6001 202.768294 111.229065 
Q 203.089661 110.857454 203.574601 110.664615 
Q 204.595298 110.25873 205.434213 110.643135 
Q 206.27255 111.026088 206.696334 112.091794 
Q 207.111456 113.135722 206.745544 114.012684 
Q 206.379055 114.888194 205.354002 115.295811 
Q 204.17795 115.763473 203.198566 115.110396 
Q 202.218605 114.455867 201.538473 112.74551 
Q 200.899911 111.139691 201.282264 109.881215 
Q 201.664616 108.62274 202.94811 108.112352 
Q 203.293666 107.97494 203.672165 107.903459 
Q 204.050665 107.831978 204.486213 107.81516 
z
" clip-path="url(#pa48820d101)" style="fill: #cc4778"/>
   </g>
   <g id="text_17">
    <path d="M 234.766142 102.424296 
Q 235.466958 102.243117 236.036528 102.494514 
Q 236.606795 102.743815 236.92142 103.37262 
Q 237.403844 104.336788 237.005088 105.198486 
Q 236.605634 106.058786 235.382956 106.670555 
Q 234.973534 106.875411 234.498408 107.011805 
Q 234.023282 107.1482 233.479658 107.217531 
L 233.053866 106.366548 
Q 233.526943 106.39716 234.017449 106.288014 
Q 234.509353 106.178168 234.985848 105.939753 
Q 235.814474 105.525148 236.085444 104.980728 
Q 236.356414 104.436309 236.043887 103.811696 
Q 235.755131 103.234592 235.189092 103.112467 
Q 234.622354 102.988944 233.902721 103.349014 
L 233.142565 103.72936 
L 232.779698 103.004138 
L 233.574788 102.606313 
Q 234.224553 102.281201 234.439653 101.848601 
Q 234.654753 101.416001 234.410045 100.92693 
Q 234.159044 100.425283 233.668482 100.33528 
Q 233.178617 100.24318 232.514878 100.575284 
Q 232.151568 100.757066 231.776409 101.044367 
Q 231.400551 101.330271 230.985597 101.74406 
L 230.592666 100.958752 
Q 231.025794 100.567318 231.429602 100.277913 
Q 231.833411 99.988508 232.221873 99.79414 
Q 233.226564 99.29144 234.039281 99.456121 
Q 234.852697 99.618705 235.241433 100.395629 
Q 235.512709 100.937799 235.389175 101.466105 
Q 235.265642 101.994411 234.766142 102.424296 
z
M 239.930835 103.308271 
L 243.009187 101.76801 
L 243.380443 102.51 
L 239.241506 104.580928 
L 238.870249 103.838937 
Q 239.111807 103.068124 239.540484 101.759904 
Q 239.969859 100.449586 240.064788 100.084102 
Q 240.250468 99.397158 240.253146 98.983484 
Q 240.257222 98.569112 240.097812 98.250517 
Q 239.837723 97.730705 239.309411 97.586208 
Q 238.7804 97.440314 238.194912 97.733264 
Q 237.779901 97.940916 237.390791 98.315567 
Q 237.003078 98.689519 236.625898 99.245149 
L 236.179831 98.353642 
Q 236.605247 97.873467 237.013234 97.53305 
Q 237.422618 97.191934 237.806888 96.999664 
Q 238.819963 96.492769 239.676016 96.698665 
Q 240.531369 96.903164 240.955064 97.749955 
Q 241.156423 98.152391 241.185895 98.588416 
Q 241.216064 99.022344 241.062528 99.710677 
Q 241.01716 99.89237 240.73441 100.790371 
Q 240.453059 101.687673 239.930835 103.308271 
z
" clip-path="url(#pa48820d101)" style="fill: #e66c5c; stroke: #ffffff; stroke-width: 5"/>
    <path d="M 234.766142 102.424296 
Q 235.466958 102.243117 236.036528 102.494514 
Q 236.606795 102.743815 236.92142 103.37262 
Q 237.403844 104.336788 237.005088 105.198486 
Q 236.605634 106.058786 235.382956 106.670555 
Q 234.973534 106.875411 234.498408 107.011805 
Q 234.023282 107.1482 233.479658 107.217531 
L 233.053866 106.366548 
Q 233.526943 106.39716 234.017449 106.288014 
Q 234.509353 106.178168 234.985848 105.939753 
Q 235.814474 105.525148 236.085444 104.980728 
Q 236.356414 104.436309 236.043887 103.811696 
Q 235.755131 103.234592 235.189092 103.112467 
Q 234.622354 102.988944 233.902721 103.349014 
L 233.142565 103.72936 
L 232.779698 103.004138 
L 233.574788 102.606313 
Q 234.224553 102.281201 234.439653 101.848601 
Q 234.654753 101.416001 234.410045 100.92693 
Q 234.159044 100.425283 233.668482 100.33528 
Q 233.178617 100.24318 232.514878 100.575284 
Q 232.151568 100.757066 231.776409 101.044367 
Q 231.400551 101.330271 230.985597 101.74406 
L 230.592666 100.958752 
Q 231.025794 100.567318 231.429602 100.277913 
Q 231.833411 99.988508 232.221873 99.79414 
Q 233.226564 99.29144 234.039281 99.456121 
Q 234.852697 99.618705 235.241433 100.395629 
Q 235.512709 100.937799 235.389175 101.466105 
Q 235.265642 101.994411 234.766142 102.424296 
z
M 239.930835 103.308271 
L 243.009187 101.76801 
L 243.380443 102.51 
L 239.241506 104.580928 
L 238.870249 103.838937 
Q 239.111807 103.068124 239.540484 101.759904 
Q 239.969859 100.449586 240.064788 100.084102 
Q 240.250468 99.397158 240.253146 98.983484 
Q 240.257222 98.569112 240.097812 98.250517 
Q 239.837723 97.730705 239.309411 97.586208 
Q 238.7804 97.440314 238.194912 97.733264 
Q 237.779901 97.940916 237.390791 98.315567 
Q 237.003078 98.689519 236.625898 99.245149 
L 236.179831 98.353642 
Q 236.605247 97.873467 237.013234 97.53305 
Q 237.422618 97.191934 237.806888 96.999664 
Q 238.819963 96.492769 239.676016 96.698665 
Q 240.531369 96.903164 240.955064 97.749955 
Q 241.156423 98.152391 241.185895 98.588416 
Q 241.216064 99.022344 241.062528 99.710677 
Q 241.01716 99.89237 240.73441 100.790371 
Q 240.453059 101.687673 239.930835 103.308271 
z
" clip-path="url(#pa48820d101)" style="fill: #e66c5c"/>
   </g>
   <g id="text_18">
    <path d="M 270.17283 84.631109 
Q 269.554496 84.873271 269.358034 85.438525 
Q 269.162457 86.001756 269.450771 86.737937 
Q 269.737376 87.469753 270.265141 87.754732 
Q 270.793791 88.037686 271.412125 87.795525 
Q 272.030459 87.553364 272.224896 86.987224 
Q 272.418764 86.419629 272.132159 85.687812 
Q 271.843845 84.951631 271.317789 84.671017 
Q 270.791164 84.388948 270.17283 84.631109 
z
M 270.868208 81.037907 
L 271.195838 81.874477 
Q 270.785754 81.847138 270.40005 81.899188 
Q 270.013776 81.949783 269.667508 82.085393 
Q 268.758194 82.441513 268.518527 83.243513 
Q 268.280316 84.044943 268.697967 85.312756 
Q 268.810686 84.812181 269.13253 84.442818 
Q 269.455828 84.072885 269.941766 83.882575 
Q 270.964563 83.482012 271.801464 83.870782 
Q 272.637796 84.258096 273.056023 85.325995 
Q 273.465702 86.372071 273.095227 87.247115 
Q 272.724182 88.120704 271.69702 88.522977 
Q 270.518548 88.984507 269.542579 88.326338 
Q 268.56604 87.666713 267.894827 85.952836 
Q 267.264638 84.343713 267.65354 83.087246 
Q 268.042442 81.830779 269.328577 81.327084 
Q 269.674844 81.191474 270.053711 81.121965 
Q 270.432578 81.052456 270.868208 81.037907 
z
M 275.669296 79.907724 
L 274.769529 84.440135 
L 277.088646 83.531889 
L 275.669296 79.907724 
z
M 275.114397 79.202112 
L 276.269591 78.749698 
L 278.002325 83.17406 
L 278.971291 82.794579 
L 279.270431 83.558404 
L 278.301465 83.937884 
L 278.928235 85.538278 
L 278.014556 85.896107 
L 277.387786 84.295713 
L 274.323759 85.495693 
L 273.976756 84.609656 
L 275.114397 79.202112 
z
" clip-path="url(#pa48820d101)" style="fill: #f89540; stroke: #ffffff; stroke-width: 5"/>
    <path d="M 270.17283 84.631109 
Q 269.554496 84.873271 269.358034 85.438525 
Q 269.162457 86.001756 269.450771 86.737937 
Q 269.737376 87.469753 270.265141 87.754732 
Q 270.793791 88.037686 271.412125 87.795525 
Q 272.030459 87.553364 272.224896 86.987224 
Q 272.418764 86.419629 272.132159 85.687812 
Q 271.843845 84.951631 271.317789 84.671017 
Q 270.791164 84.388948 270.17283 84.631109 
z
M 270.868208 81.037907 
L 271.195838 81.874477 
Q 270.785754 81.847138 270.40005 81.899188 
Q 270.013776 81.949783 269.667508 82.085393 
Q 268.758194 82.441513 268.518527 83.243513 
Q 268.280316 84.044943 268.697967 85.312756 
Q 268.810686 84.812181 269.13253 84.442818 
Q 269.455828 84.072885 269.941766 83.882575 
Q 270.964563 83.482012 271.801464 83.870782 
Q 272.637796 84.258096 273.056023 85.325995 
Q 273.465702 86.372071 273.095227 87.247115 
Q 272.724182 88.120704 271.69702 88.522977 
Q 270.518548 88.984507 269.542579 88.326338 
Q 268.56604 87.666713 267.894827 85.952836 
Q 267.264638 84.343713 267.65354 83.087246 
Q 268.042442 81.830779 269.328577 81.327084 
Q 269.674844 81.191474 270.053711 81.121965 
Q 270.432578 81.052456 270.868208 81.037907 
z
M 275.669296 79.907724 
L 274.769529 84.440135 
L 277.088646 83.531889 
L 275.669296 79.907724 
z
M 275.114397 79.202112 
L 276.269591 78.749698 
L 278.002325 83.17406 
L 278.971291 82.794579 
L 279.270431 83.558404 
L 278.301465 83.937884 
L 278.928235 85.538278 
L 278.014556 85.896107 
L 277.387786 84.295713 
L 274.323759 85.495693 
L 273.976756 84.609656 
L 275.114397 79.202112 
z
" clip-path="url(#pa48820d101)" style="fill: #f89540"/>
   </g>
   <g id="text_19">
    <path d="M 302.376674 79.791989 
L 303.903002 79.276779 
L 302.124001 74.006431 
L 300.57539 74.900214 
L 300.288051 74.048965 
L 301.827779 73.15818 
L 302.761934 72.842857 
L 304.828274 78.964454 
L 306.354602 78.449243 
L 306.619953 79.235354 
L 302.642025 80.5781 
L 302.376674 79.791989 
z
M 309.047327 77.540316 
L 312.308725 76.439434 
L 312.574076 77.225545 
L 308.189028 78.705714 
L 307.923677 77.919603 
Q 308.269258 77.189482 308.874303 75.952904 
Q 309.480329 74.714346 309.624769 74.365451 
Q 309.903436 73.710689 309.963154 73.30134 
Q 310.024353 72.891491 309.910417 72.553952 
Q 309.724521 72.00323 309.221194 71.787235 
Q 308.717366 71.56976 308.097064 71.779142 
Q 307.657375 71.927559 307.220303 72.244951 
Q 306.784711 72.561844 306.334489 73.06013 
L 306.015668 72.115612 
Q 306.503256 71.698713 306.954302 71.417832 
Q 307.406828 71.136451 307.813948 70.999028 
Q 308.887263 70.636732 309.706728 70.95875 
Q 310.525694 71.279289 310.828524 72.176432 
Q 310.972443 72.602797 310.941484 73.038719 
Q 310.911505 73.472661 310.664483 74.133233 
Q 310.594484 74.306931 310.19056 75.157341 
Q 309.788117 76.007252 309.047327 77.540316 
z
M 315.426675 72.608215 
Q 314.76048 72.833089 314.49896 73.318801 
Q 314.23892 73.804014 314.449302 74.427277 
Q 314.660184 75.05202 315.161088 75.280377 
Q 315.663473 75.508234 316.329668 75.28336 
Q 316.995864 75.058487 317.258364 74.570794 
Q 317.521845 74.081121 317.312463 73.460819 
Q 317.102081 72.837556 316.599697 72.609699 
Q 316.098792 72.381342 315.426675 72.608215 
z
M 314.358596 72.526781 
Q 313.707568 72.581624 313.232587 72.283499 
Q 312.758587 71.983395 312.558699 71.391221 
Q 312.279356 70.563658 312.70616 69.883628 
Q 313.134445 69.203099 314.160386 68.856794 
Q 315.192249 68.508489 315.94239 68.791242 
Q 316.692532 69.073994 316.971875 69.901557 
Q 317.171763 70.493731 316.975126 71.020209 
Q 316.77947 71.544706 316.232826 71.894137 
Q 316.960875 71.823191 317.491818 72.155197 
Q 318.023742 72.485222 318.246617 73.145496 
Q 318.585927 74.150711 318.154425 74.894993 
Q 317.722423 75.637794 316.579528 76.023578 
Q 315.438113 76.408861 314.642834 76.080328 
Q 313.848536 75.749814 313.509226 74.744598 
Q 313.286352 74.084325 313.510929 73.498942 
Q 313.736488 72.91158 314.358596 72.526781 
z
M 313.518395 71.166223 
Q 313.699294 71.702141 314.135315 71.889732 
Q 314.572817 72.076824 315.178315 71.872439 
Q 315.780852 71.669053 316.018428 71.254089 
Q 316.257485 70.838625 316.076586 70.302708 
Q 315.895188 69.76531 315.453245 69.579718 
Q 315.012783 69.393625 314.410246 69.597011 
Q 313.804748 69.801396 313.570132 70.215361 
Q 313.336997 70.628825 313.518395 71.166223 
z
" clip-path="url(#pa48820d101)" style="fill: #fdc527; stroke: #ffffff; stroke-width: 5"/>
    <path d="M 302.376674 79.791989 
L 303.903002 79.276779 
L 302.124001 74.006431 
L 300.57539 74.900214 
L 300.288051 74.048965 
L 301.827779 73.15818 
L 302.761934 72.842857 
L 304.828274 78.964454 
L 306.354602 78.449243 
L 306.619953 79.235354 
L 302.642025 80.5781 
L 302.376674 79.791989 
z
M 309.047327 77.540316 
L 312.308725 76.439434 
L 312.574076 77.225545 
L 308.189028 78.705714 
L 307.923677 77.919603 
Q 308.269258 77.189482 308.874303 75.952904 
Q 309.480329 74.714346 309.624769 74.365451 
Q 309.903436 73.710689 309.963154 73.30134 
Q 310.024353 72.891491 309.910417 72.553952 
Q 309.724521 72.00323 309.221194 71.787235 
Q 308.717366 71.56976 308.097064 71.779142 
Q 307.657375 71.927559 307.220303 72.244951 
Q 306.784711 72.561844 306.334489 73.06013 
L 306.015668 72.115612 
Q 306.503256 71.698713 306.954302 71.417832 
Q 307.406828 71.136451 307.813948 70.999028 
Q 308.887263 70.636732 309.706728 70.95875 
Q 310.525694 71.279289 310.828524 72.176432 
Q 310.972443 72.602797 310.941484 73.038719 
Q 310.911505 73.472661 310.664483 74.133233 
Q 310.594484 74.306931 310.19056 75.157341 
Q 309.788117 76.007252 309.047327 77.540316 
z
M 315.426675 72.608215 
Q 314.76048 72.833089 314.49896 73.318801 
Q 314.23892 73.804014 314.449302 74.427277 
Q 314.660184 75.05202 315.161088 75.280377 
Q 315.663473 75.508234 316.329668 75.28336 
Q 316.995864 75.058487 317.258364 74.570794 
Q 317.521845 74.081121 317.312463 73.460819 
Q 317.102081 72.837556 316.599697 72.609699 
Q 316.098792 72.381342 315.426675 72.608215 
z
M 314.358596 72.526781 
Q 313.707568 72.581624 313.232587 72.283499 
Q 312.758587 71.983395 312.558699 71.391221 
Q 312.279356 70.563658 312.70616 69.883628 
Q 313.134445 69.203099 314.160386 68.856794 
Q 315.192249 68.508489 315.94239 68.791242 
Q 316.692532 69.073994 316.971875 69.901557 
Q 317.171763 70.493731 316.975126 71.020209 
Q 316.77947 71.544706 316.232826 71.894137 
Q 316.960875 71.823191 317.491818 72.155197 
Q 318.023742 72.485222 318.246617 73.145496 
Q 318.585927 74.150711 318.154425 74.894993 
Q 317.722423 75.637794 316.579528 76.023578 
Q 315.438113 76.408861 314.642834 76.080328 
Q 313.848536 75.749814 313.509226 74.744598 
Q 313.286352 74.084325 313.510929 73.498942 
Q 313.736488 72.91158 314.358596 72.526781 
z
M 313.518395 71.166223 
Q 313.699294 71.702141 314.135315 71.889732 
Q 314.572817 72.076824 315.178315 71.872439 
Q 315.780852 71.669053 316.018428 71.254089 
Q 316.257485 70.838625 316.076586 70.302708 
Q 315.895188 69.76531 315.453245 69.579718 
Q 315.012783 69.393625 314.410246 69.597011 
Q 313.804748 69.801396 313.570132 70.215361 
Q 313.336997 70.628825 313.518395 71.166223 
z
" clip-path="url(#pa48820d101)" style="fill: #fdc527"/>
   </g>
   <g id="patch_3">
    <path d="M 40.603125 298.945245 
L 40.603125 35.490845 
" style="fill: none; stroke: #cccccc; stroke-width: 0.8; stroke-linejoin: miter; stroke-linecap: square"/>
   </g>
   <g id="patch_4">
    <path d="M 361.825125 298.945245 
L 361.825125 35.490845 
" style="fill: none; stroke: #cccccc; stroke-width: 0.8; stroke-linejoin: miter; stroke-linecap: square"/>
   </g>
   <g id="patch_5">
    <path d="M 40.603125 298.945245 
L 361.825125 298.945245 
" style="fill: none; stroke: #cccccc; stroke-width: 0.8; stroke-linejoin: miter; stroke-linecap: square"/>
   </g>
   <g id="patch_6">
    <path d="M 40.603125 35.490845 
L 361.825125 35.490845 
" style="fill: none; stroke: #cccccc; stroke-width: 0.8; stroke-linejoin: miter; stroke-linecap: square"/>
   </g>
   <g id="text_20">
    <!-- Block Size = 1M, Read-Write Type = Random Write-only -->
    <g style="fill: #262626; opacity: 0.75" transform="translate(62.026625 30.776614) scale(0.1 -0.1)">
     <defs>
      <path id="DejaVuSans-6c" d="M 603 4863 
L 1178 4863 
L 1178 0 
L 603 0 
L 603 4863 
z
" transform="scale(0.015625)"/>
      <path id="DejaVuSans-63" d="M 3122 3366 
L 3122 2828 
Q 2878 2963 2633 3030 
Q 2388 3097 2138 3097 
Q 1578 3097 1268 2742 
Q 959 2388 959 1747 
Q 959 1106 1268 751 
Q 1578 397 2138 397 
Q 2388 397 2633 464 
Q 2878 531 3122 666 
L 3122 134 
Q 2881 22 2623 -34 
Q 2366 -91 2075 -91 
Q 1284 -91 818 406 
Q 353 903 353 1747 
Q 353 2603 823 3093 
Q 1294 3584 2113 3584 
Q 2378 3584 2631 3529 
Q 2884 3475 3122 3366 
z
" transform="scale(0.015625)"/>
      <path id="DejaVuSans-6b" d="M 581 4863 
L 1159 4863 
L 1159 1991 
L 2875 3500 
L 3609 3500 
L 1753 1863 
L 3688 0 
L 2938 0 
L 1159 1709 
L 1159 0 
L 581 0 
L 581 4863 
z
" transform="scale(0.015625)"/>
      <path id="DejaVuSans-53" d="M 3425 4513 
L 3425 3897 
Q 3066 4069 2747 4153 
Q 2428 4238 2131 4238 
Q 1616 4238 1336 4038 
Q 1056 3838 1056 3469 
Q 1056 3159 1242 3001 
Q 1428 2844 1947 2747 
L 2328 2669 
Q 3034 2534 3370 2195 
Q 3706 1856 3706 1288 
Q 3706 609 3251 259 
Q 2797 -91 1919 -91 
Q 1588 -91 1214 -16 
Q 841 59 441 206 
L 441 856 
Q 825 641 1194 531 
Q 1563 422 1919 422 
Q 2459 422 2753 634 
Q 3047 847 3047 1241 
Q 3047 1584 2836 1778 
Q 2625 1972 2144 2069 
L 1759 2144 
Q 1053 2284 737 2584 
Q 422 2884 422 3419 
Q 422 4038 858 4394 
Q 1294 4750 2059 4750 
Q 2388 4750 2728 4690 
Q 3069 4631 3425 4513 
z
" transform="scale(0.015625)"/>
      <path id="DejaVuSans-7a" d="M 353 3500 
L 3084 3500 
L 3084 2975 
L 922 459 
L 3084 459 
L 3084 0 
L 275 0 
L 275 525 
L 2438 3041 
L 353 3041 
L 353 3500 
z
" transform="scale(0.015625)"/>
      <path id="DejaVuSans-3d" d="M 678 2906 
L 4684 2906 
L 4684 2381 
L 678 2381 
L 678 2906 
z
M 678 1631 
L 4684 1631 
L 4684 1100 
L 678 1100 
L 678 1631 
z
" transform="scale(0.015625)"/>
      <path id="DejaVuSans-2c" d="M 750 794 
L 1409 794 
L 1409 256 
L 897 -744 
L 494 -744 
L 750 256 
L 750 794 
z
" transform="scale(0.015625)"/>
      <path id="DejaVuSans-52" d="M 2841 2188 
Q 3044 2119 3236 1894 
Q 3428 1669 3622 1275 
L 4263 0 
L 3584 0 
L 2988 1197 
Q 2756 1666 2539 1819 
Q 2322 1972 1947 1972 
L 1259 1972 
L 1259 0 
L 628 0 
L 628 4666 
L 2053 4666 
Q 2853 4666 3247 4331 
Q 3641 3997 3641 3322 
Q 3641 2881 3436 2590 
Q 3231 2300 2841 2188 
z
M 1259 4147 
L 1259 2491 
L 2053 2491 
Q 2509 2491 2742 2702 
Q 2975 2913 2975 3322 
Q 2975 3731 2742 3939 
Q 2509 4147 2053 4147 
L 1259 4147 
z
" transform="scale(0.015625)"/>
      <path id="DejaVuSans-2d" d="M 313 2009 
L 1997 2009 
L 1997 1497 
L 313 1497 
L 313 2009 
z
" transform="scale(0.015625)"/>
      <path id="DejaVuSans-57" d="M 213 4666 
L 850 4666 
L 1831 722 
L 2809 4666 
L 3519 4666 
L 4500 722 
L 5478 4666 
L 6119 4666 
L 4947 0 
L 4153 0 
L 3169 4050 
L 2175 0 
L 1381 0 
L 213 4666 
z
" transform="scale(0.015625)"/>
      <path id="DejaVuSans-54" d="M -19 4666 
L 3928 4666 
L 3928 4134 
L 2272 4134 
L 2272 0 
L 1638 0 
L 1638 4134 
L -19 4134 
L -19 4666 
z
" transform="scale(0.015625)"/>
      <path id="DejaVuSans-79" d="M 2059 -325 
Q 1816 -950 1584 -1140 
Q 1353 -1331 966 -1331 
L 506 -1331 
L 506 -850 
L 844 -850 
Q 1081 -850 1212 -737 
Q 1344 -625 1503 -206 
L 1606 56 
L 191 3500 
L 800 3500 
L 1894 763 
L 2988 3500 
L 3597 3500 
L 2059 -325 
z
" transform="scale(0.015625)"/>
      <path id="DejaVuSans-70" d="M 1159 525 
L 1159 -1331 
L 581 -1331 
L 581 3500 
L 1159 3500 
L 1159 2969 
Q 1341 3281 1617 3432 
Q 1894 3584 2278 3584 
Q 2916 3584 3314 3078 
Q 3713 2572 3713 1747 
Q 3713 922 3314 415 
Q 2916 -91 2278 -91 
Q 1894 -91 1617 61 
Q 1341 213 1159 525 
z
M 3116 1747 
Q 3116 2381 2855 2742 
Q 2594 3103 2138 3103 
Q 1681 3103 1420 2742 
Q 1159 2381 1159 1747 
Q 1159 1113 1420 752 
Q 1681 391 2138 391 
Q 2594 391 2855 752 
Q 3116 1113 3116 1747 
z
" transform="scale(0.015625)"/>
     </defs>
     <use xlink:href="#DejaVuSans-42"/>
     <use xlink:href="#DejaVuSans-6c" transform="translate(68.603516 0)"/>
     <use xlink:href="#DejaVuSans-6f" transform="translate(96.386719 0)"/>
     <use xlink:href="#DejaVuSans-63" transform="translate(157.568359 0)"/>
     <use xlink:href="#DejaVuSans-6b" transform="translate(212.548828 0)"/>
     <use xlink:href="#DejaVuSans-20" transform="translate(270.458984 0)"/>
     <use xlink:href="#DejaVuSans-53" transform="translate(302.246094 0)"/>
     <use xlink:href="#DejaVuSans-69" transform="translate(365.722656 0)"/>
     <use xlink:href="#DejaVuSans-7a" transform="translate(393.505859 0)"/>
     <use xlink:href="#DejaVuSans-65" transform="translate(445.996094 0)"/>
     <use xlink:href="#DejaVuSans-20" transform="translate(507.519531 0)"/>
     <use xlink:href="#DejaVuSans-3d" transform="translate(539.306641 0)"/>
     <use xlink:href="#DejaVuSans-20" transform="translate(623.095703 0)"/>
     <use xlink:href="#DejaVuSans-31" transform="translate(654.882812 0)"/>
     <use xlink:href="#DejaVuSans-4d" transform="translate(718.505859 0)"/>
     <use xlink:href="#DejaVuSans-2c" transform="translate(804.785156 0)"/>
     <use xlink:href="#DejaVuSans-20" transform="translate(836.572266 0)"/>
     <use xlink:href="#DejaVuSans-52" transform="translate(868.359375 0)"/>
     <use xlink:href="#DejaVuSans-65" transform="translate(933.341797 0)"/>
     <use xlink:href="#DejaVuSans-61" transform="translate(994.865234 0)"/>
     <use xlink:href="#DejaVuSans-64" transform="translate(1056.144531 0)"/>
     <use xlink:href="#DejaVuSans-2d" transform="translate(1119.621094 0)"/>
     <use xlink:href="#DejaVuSans-57" transform="translate(1151.705078 0)"/>
     <use xlink:href="#DejaVuSans-72" transform="translate(1246.082031 0)"/>
     <use xlink:href="#DejaVuSans-69" transform="translate(1287.195312 0)"/>
     <use xlink:href="#DejaVuSans-74" transform="translate(1314.978516 0)"/>
     <use xlink:href="#DejaVuSans-65" transform="translate(1354.1875 0)"/>
     <use xlink:href="#DejaVuSans-20" transform="translate(1415.710938 0)"/>
     <use xlink:href="#DejaVuSans-54" transform="translate(1447.498047 0)"/>
     <use xlink:href="#DejaVuSans-79" transform="translate(1492.957031 0)"/>
     <use xlink:href="#DejaVuSans-70" transform="translate(1552.136719 0)"/>
     <use xlink:href="#DejaVuSans-65" transform="translate(1615.613281 0)"/>
     <use xlink:href="#DejaVuSans-20" transform="translate(1677.136719 0)"/>
     <use xlink:href="#DejaVuSans-3d" transform="translate(1708.923828 0)"/>
     <use xlink:href="#DejaVuSans-20" transform="translate(1792.712891 0)"/>
     <use xlink:href="#DejaVuSans-52" transform="translate(1824.5 0)"/>
     <use xlink:href="#DejaVuSans-61" transform="translate(1891.732422 0)"/>
     <use xlink:href="#DejaVuSans-6e" transform="translate(1953.011719 0)"/>
     <use xlink:href="#DejaVuSans-64" transform="translate(2016.390625 0)"/>
     <use xlink:href="#DejaVuSans-6f" transform="translate(2079.867188 0)"/>
     <use xlink:href="#DejaVuSans-6d" transform="translate(2141.048828 0)"/>
     <use xlink:href="#DejaVuSans-20" transform="translate(2238.460938 0)"/>
     <use xlink:href="#DejaVuSans-57" transform="translate(2270.248047 0)"/>
     <use xlink:href="#DejaVuSans-72" transform="translate(2364.625 0)"/>
     <use xlink:href="#DejaVuSans-69" transform="translate(2405.738281 0)"/>
     <use xlink:href="#DejaVuSans-74" transform="translate(2433.521484 0)"/>
     <use xlink:href="#DejaVuSans-65" transform="translate(2472.730469 0)"/>
     <use xlink:href="#DejaVuSans-2d" transform="translate(2534.253906 0)"/>
     <use xlink:href="#DejaVuSans-6f" transform="translate(2572.212891 0)"/>
     <use xlink:href="#DejaVuSans-6e" transform="translate(2633.394531 0)"/>
     <use xlink:href="#DejaVuSans-6c" transform="translate(2696.773438 0)"/>
     <use xlink:href="#DejaVuSans-79" transform="translate(2724.556641 0)"/>
    </g>
   </g>
   <g id="text_21">
    <!-- Mean Bandwidth vs Number of Jobs -->
    <g style="fill: #262626" transform="translate(80.885063 16.318125) scale(0.12 -0.12)">
     <defs>
      <path id="DejaVuSans-Bold-4d" d="M 588 4666 
L 2119 4666 
L 3181 2169 
L 4250 4666 
L 5778 4666 
L 5778 0 
L 4641 0 
L 4641 3413 
L 3566 897 
L 2803 897 
L 1728 3413 
L 1728 0 
L 588 0 
L 588 4666 
z
" transform="scale(0.015625)"/>
      <path id="DejaVuSans-Bold-65" d="M 4031 1759 
L 4031 1441 
L 1416 1441 
Q 1456 1047 1700 850 
Q 1944 653 2381 653 
Q 2734 653 3104 758 
Q 3475 863 3866 1075 
L 3866 213 
Q 3469 63 3072 -14 
Q 2675 -91 2278 -91 
Q 1328 -91 801 392 
Q 275 875 275 1747 
Q 275 2603 792 3093 
Q 1309 3584 2216 3584 
Q 3041 3584 3536 3087 
Q 4031 2591 4031 1759 
z
M 2881 2131 
Q 2881 2450 2695 2645 
Q 2509 2841 2209 2841 
Q 1884 2841 1681 2658 
Q 1478 2475 1428 2131 
L 2881 2131 
z
" transform="scale(0.015625)"/>
      <path id="DejaVuSans-Bold-61" d="M 2106 1575 
Q 1756 1575 1579 1456 
Q 1403 1338 1403 1106 
Q 1403 894 1545 773 
Q 1688 653 1941 653 
Q 2256 653 2472 879 
Q 2688 1106 2688 1447 
L 2688 1575 
L 2106 1575 
z
M 3816 1997 
L 3816 0 
L 2688 0 
L 2688 519 
Q 2463 200 2181 54 
Q 1900 -91 1497 -91 
Q 953 -91 614 226 
Q 275 544 275 1050 
Q 275 1666 698 1953 
Q 1122 2241 2028 2241 
L 2688 2241 
L 2688 2328 
Q 2688 2594 2478 2717 
Q 2269 2841 1825 2841 
Q 1466 2841 1156 2769 
Q 847 2697 581 2553 
L 581 3406 
Q 941 3494 1303 3539 
Q 1666 3584 2028 3584 
Q 2975 3584 3395 3211 
Q 3816 2838 3816 1997 
z
" transform="scale(0.015625)"/>
      <path id="DejaVuSans-Bold-6e" d="M 4056 2131 
L 4056 0 
L 2931 0 
L 2931 347 
L 2931 1631 
Q 2931 2084 2911 2256 
Q 2891 2428 2841 2509 
Q 2775 2619 2662 2680 
Q 2550 2741 2406 2741 
Q 2056 2741 1856 2470 
Q 1656 2200 1656 1722 
L 1656 0 
L 538 0 
L 538 3500 
L 1656 3500 
L 1656 2988 
Q 1909 3294 2193 3439 
Q 2478 3584 2822 3584 
Q 3428 3584 3742 3212 
Q 4056 2841 4056 2131 
z
" transform="scale(0.015625)"/>
      <path id="DejaVuSans-Bold-20" transform="scale(0.015625)"/>
      <path id="DejaVuSans-Bold-42" d="M 2456 2859 
Q 2741 2859 2887 2984 
Q 3034 3109 3034 3353 
Q 3034 3594 2887 3720 
Q 2741 3847 2456 3847 
L 1791 3847 
L 1791 2859 
L 2456 2859 
z
M 2497 819 
Q 2859 819 3042 972 
Q 3225 1125 3225 1434 
Q 3225 1738 3044 1889 
Q 2863 2041 2497 2041 
L 1791 2041 
L 1791 819 
L 2497 819 
z
M 3616 2497 
Q 4003 2384 4215 2081 
Q 4428 1778 4428 1338 
Q 4428 663 3972 331 
Q 3516 0 2584 0 
L 588 0 
L 588 4666 
L 2394 4666 
Q 3366 4666 3802 4372 
Q 4238 4078 4238 3431 
Q 4238 3091 4078 2852 
Q 3919 2613 3616 2497 
z
" transform="scale(0.015625)"/>
      <path id="DejaVuSans-Bold-64" d="M 2919 2988 
L 2919 4863 
L 4044 4863 
L 4044 0 
L 2919 0 
L 2919 506 
Q 2688 197 2409 53 
Q 2131 -91 1766 -91 
Q 1119 -91 703 423 
Q 288 938 288 1747 
Q 288 2556 703 3070 
Q 1119 3584 1766 3584 
Q 2128 3584 2408 3439 
Q 2688 3294 2919 2988 
z
M 2181 722 
Q 2541 722 2730 984 
Q 2919 1247 2919 1747 
Q 2919 2247 2730 2509 
Q 2541 2772 2181 2772 
Q 1825 2772 1636 2509 
Q 1447 2247 1447 1747 
Q 1447 1247 1636 984 
Q 1825 722 2181 722 
z
" transform="scale(0.015625)"/>
      <path id="DejaVuSans-Bold-77" d="M 225 3500 
L 1313 3500 
L 1900 1088 
L 2491 3500 
L 3425 3500 
L 4013 1113 
L 4603 3500 
L 5691 3500 
L 4769 0 
L 3547 0 
L 2956 2406 
L 2369 0 
L 1147 0 
L 225 3500 
z
" transform="scale(0.015625)"/>
      <path id="DejaVuSans-Bold-69" d="M 538 3500 
L 1656 3500 
L 1656 0 
L 538 0 
L 538 3500 
z
M 538 4863 
L 1656 4863 
L 1656 3950 
L 538 3950 
L 538 4863 
z
" transform="scale(0.015625)"/>
      <path id="DejaVuSans-Bold-74" d="M 1759 4494 
L 1759 3500 
L 2913 3500 
L 2913 2700 
L 1759 2700 
L 1759 1216 
Q 1759 972 1856 886 
Q 1953 800 2241 800 
L 2816 800 
L 2816 0 
L 1856 0 
Q 1194 0 917 276 
Q 641 553 641 1216 
L 641 2700 
L 84 2700 
L 84 3500 
L 641 3500 
L 641 4494 
L 1759 4494 
z
" transform="scale(0.015625)"/>
      <path id="DejaVuSans-Bold-68" d="M 4056 2131 
L 4056 0 
L 2931 0 
L 2931 347 
L 2931 1625 
Q 2931 2084 2911 2256 
Q 2891 2428 2841 2509 
Q 2775 2619 2662 2680 
Q 2550 2741 2406 2741 
Q 2056 2741 1856 2470 
Q 1656 2200 1656 1722 
L 1656 0 
L 538 0 
L 538 4863 
L 1656 4863 
L 1656 2988 
Q 1909 3294 2193 3439 
Q 2478 3584 2822 3584 
Q 3428 3584 3742 3212 
Q 4056 2841 4056 2131 
z
" transform="scale(0.015625)"/>
      <path id="DejaVuSans-Bold-76" d="M 97 3500 
L 1216 3500 
L 2088 1081 
L 2956 3500 
L 4078 3500 
L 2700 0 
L 1472 0 
L 97 3500 
z
" transform="scale(0.015625)"/>
      <path id="DejaVuSans-Bold-73" d="M 3272 3391 
L 3272 2541 
Q 2913 2691 2578 2766 
Q 2244 2841 1947 2841 
Q 1628 2841 1473 2761 
Q 1319 2681 1319 2516 
Q 1319 2381 1436 2309 
Q 1553 2238 1856 2203 
L 2053 2175 
Q 2913 2066 3209 1816 
Q 3506 1566 3506 1031 
Q 3506 472 3093 190 
Q 2681 -91 1863 -91 
Q 1516 -91 1145 -36 
Q 775 19 384 128 
L 384 978 
Q 719 816 1070 734 
Q 1422 653 1784 653 
Q 2113 653 2278 743 
Q 2444 834 2444 1013 
Q 2444 1163 2330 1236 
Q 2216 1309 1875 1350 
L 1678 1375 
Q 931 1469 631 1722 
Q 331 1975 331 2491 
Q 331 3047 712 3315 
Q 1094 3584 1881 3584 
Q 2191 3584 2531 3537 
Q 2872 3491 3272 3391 
z
" transform="scale(0.015625)"/>
      <path id="DejaVuSans-Bold-4e" d="M 588 4666 
L 1931 4666 
L 3628 1466 
L 3628 4666 
L 4769 4666 
L 4769 0 
L 3425 0 
L 1728 3200 
L 1728 0 
L 588 0 
L 588 4666 
z
" transform="scale(0.015625)"/>
      <path id="DejaVuSans-Bold-75" d="M 500 1363 
L 500 3500 
L 1625 3500 
L 1625 3150 
Q 1625 2866 1622 2436 
Q 1619 2006 1619 1863 
Q 1619 1441 1641 1255 
Q 1663 1069 1716 984 
Q 1784 875 1895 815 
Q 2006 756 2150 756 
Q 2500 756 2700 1025 
Q 2900 1294 2900 1772 
L 2900 3500 
L 4019 3500 
L 4019 0 
L 2900 0 
L 2900 506 
Q 2647 200 2364 54 
Q 2081 -91 1741 -91 
Q 1134 -91 817 281 
Q 500 653 500 1363 
z
" transform="scale(0.015625)"/>
      <path id="DejaVuSans-Bold-6d" d="M 3781 2919 
Q 3994 3244 4286 3414 
Q 4578 3584 4928 3584 
Q 5531 3584 5847 3212 
Q 6163 2841 6163 2131 
L 6163 0 
L 5038 0 
L 5038 1825 
Q 5041 1866 5042 1909 
Q 5044 1953 5044 2034 
Q 5044 2406 4934 2573 
Q 4825 2741 4581 2741 
Q 4263 2741 4089 2478 
Q 3916 2216 3909 1719 
L 3909 0 
L 2784 0 
L 2784 1825 
Q 2784 2406 2684 2573 
Q 2584 2741 2328 2741 
Q 2006 2741 1831 2477 
Q 1656 2213 1656 1722 
L 1656 0 
L 531 0 
L 531 3500 
L 1656 3500 
L 1656 2988 
Q 1863 3284 2130 3434 
Q 2397 3584 2719 3584 
Q 3081 3584 3359 3409 
Q 3638 3234 3781 2919 
z
" transform="scale(0.015625)"/>
      <path id="DejaVuSans-Bold-62" d="M 2400 722 
Q 2759 722 2948 984 
Q 3138 1247 3138 1747 
Q 3138 2247 2948 2509 
Q 2759 2772 2400 2772 
Q 2041 2772 1848 2508 
Q 1656 2244 1656 1747 
Q 1656 1250 1848 986 
Q 2041 722 2400 722 
z
M 1656 2988 
Q 1888 3294 2169 3439 
Q 2450 3584 2816 3584 
Q 3463 3584 3878 3070 
Q 4294 2556 4294 1747 
Q 4294 938 3878 423 
Q 3463 -91 2816 -91 
Q 2450 -91 2169 54 
Q 1888 200 1656 506 
L 1656 0 
L 538 0 
L 538 4863 
L 1656 4863 
L 1656 2988 
z
" transform="scale(0.015625)"/>
      <path id="DejaVuSans-Bold-72" d="M 3138 2547 
Q 2991 2616 2845 2648 
Q 2700 2681 2553 2681 
Q 2122 2681 1889 2404 
Q 1656 2128 1656 1613 
L 1656 0 
L 538 0 
L 538 3500 
L 1656 3500 
L 1656 2925 
Q 1872 3269 2151 3426 
Q 2431 3584 2822 3584 
Q 2878 3584 2943 3579 
Q 3009 3575 3134 3559 
L 3138 2547 
z
" transform="scale(0.015625)"/>
      <path id="DejaVuSans-Bold-6f" d="M 2203 2784 
Q 1831 2784 1636 2517 
Q 1441 2250 1441 1747 
Q 1441 1244 1636 976 
Q 1831 709 2203 709 
Q 2569 709 2762 976 
Q 2956 1244 2956 1747 
Q 2956 2250 2762 2517 
Q 2569 2784 2203 2784 
z
M 2203 3584 
Q 3106 3584 3614 3096 
Q 4122 2609 4122 1747 
Q 4122 884 3614 396 
Q 3106 -91 2203 -91 
Q 1297 -91 786 396 
Q 275 884 275 1747 
Q 275 2609 786 3096 
Q 1297 3584 2203 3584 
z
" transform="scale(0.015625)"/>
      <path id="DejaVuSans-Bold-66" d="M 2841 4863 
L 2841 4128 
L 2222 4128 
Q 1984 4128 1890 4042 
Q 1797 3956 1797 3744 
L 1797 3500 
L 2753 3500 
L 2753 2700 
L 1797 2700 
L 1797 0 
L 678 0 
L 678 2700 
L 122 2700 
L 122 3500 
L 678 3500 
L 678 3744 
Q 678 4316 997 4589 
Q 1316 4863 1984 4863 
L 2841 4863 
z
" transform="scale(0.015625)"/>
      <path id="DejaVuSans-Bold-4a" d="M 588 4666 
L 1791 4666 
L 1791 453 
Q 1791 -419 1317 -850 
Q 844 -1281 -116 -1281 
L -359 -1281 
L -359 -372 
L -172 -372 
Q 203 -372 395 -162 
Q 588 47 588 453 
L 588 4666 
z
" transform="scale(0.015625)"/>
     </defs>
     <use xlink:href="#DejaVuSans-Bold-4d"/>
     <use xlink:href="#DejaVuSans-Bold-65" transform="translate(99.511719 0)"/>
     <use xlink:href="#DejaVuSans-Bold-61" transform="translate(167.333984 0)"/>
     <use xlink:href="#DejaVuSans-Bold-6e" transform="translate(234.814453 0)"/>
     <use xlink:href="#DejaVuSans-Bold-20" transform="translate(306.005859 0)"/>
     <use xlink:href="#DejaVuSans-Bold-42" transform="translate(340.820312 0)"/>
     <use xlink:href="#DejaVuSans-Bold-61" transform="translate(417.041016 0)"/>
     <use xlink:href="#DejaVuSans-Bold-6e" transform="translate(484.521484 0)"/>
     <use xlink:href="#DejaVuSans-Bold-64" transform="translate(555.712891 0)"/>
     <use xlink:href="#DejaVuSans-Bold-77" transform="translate(627.294922 0)"/>
     <use xlink:href="#DejaVuSans-Bold-69" transform="translate(719.677734 0)"/>
     <use xlink:href="#DejaVuSans-Bold-64" transform="translate(753.955078 0)"/>
     <use xlink:href="#DejaVuSans-Bold-74" transform="translate(825.537109 0)"/>
     <use xlink:href="#DejaVuSans-Bold-68" transform="translate(873.339844 0)"/>
     <use xlink:href="#DejaVuSans-Bold-20" transform="translate(944.53125 0)"/>
     <use xlink:href="#DejaVuSans-Bold-76" transform="translate(979.345703 0)"/>
     <use xlink:href="#DejaVuSans-Bold-73" transform="translate(1044.53125 0)"/>
     <use xlink:href="#DejaVuSans-Bold-20" transform="translate(1104.052734 0)"/>
     <use xlink:href="#DejaVuSans-Bold-4e" transform="translate(1138.867188 0)"/>
     <use xlink:href="#DejaVuSans-Bold-75" transform="translate(1222.558594 0)"/>
     <use xlink:href="#DejaVuSans-Bold-6d" transform="translate(1293.75 0)"/>
     <use xlink:href="#DejaVuSans-Bold-62" transform="translate(1397.949219 0)"/>
     <use xlink:href="#DejaVuSans-Bold-65" transform="translate(1469.53125 0)"/>
     <use xlink:href="#DejaVuSans-Bold-72" transform="translate(1537.353516 0)"/>
     <use xlink:href="#DejaVuSans-Bold-20" transform="translate(1586.669922 0)"/>
     <use xlink:href="#DejaVuSans-Bold-6f" transform="translate(1621.484375 0)"/>
     <use xlink:href="#DejaVuSans-Bold-66" transform="translate(1690.185547 0)"/>
     <use xlink:href="#DejaVuSans-Bold-20" transform="translate(1733.691406 0)"/>
     <use xlink:href="#DejaVuSans-Bold-4a" transform="translate(1768.505859 0)"/>
     <use xlink:href="#DejaVuSans-Bold-6f" transform="translate(1805.712891 0)"/>
     <use xlink:href="#DejaVuSans-Bold-62" transform="translate(1874.414062 0)"/>
     <use xlink:href="#DejaVuSans-Bold-73" transform="translate(1945.996094 0)"/>
    </g>
   </g>
   <g id="legend_1">
    <g id="patch_7">
     <path d="M 381.3328 228.398357 
L 438.68405 228.398357 
Q 440.68405 228.398357 440.68405 226.398357 
L 440.68405 108.037733 
Q 440.68405 106.037733 438.68405 106.037733 
L 381.3328 106.037733 
Q 379.3328 106.037733 379.3328 108.037733 
L 379.3328 226.398357 
Q 379.3328 228.398357 381.3328 228.398357 
z
" style="fill: #ffffff; opacity: 0.8; stroke: #cccccc; stroke-linejoin: miter"/>
    </g>
    <g id="text_22">
     <!-- IO Depth -->
     <g style="fill: #262626" transform="translate(383.3328 119.155857) scale(0.12 -0.12)">
      <defs>
       <path id="DejaVuSans-49" d="M 628 4666 
L 1259 4666 
L 1259 0 
L 628 0 
L 628 4666 
z
" transform="scale(0.015625)"/>
       <path id="DejaVuSans-4f" d="M 2522 4238 
Q 1834 4238 1429 3725 
Q 1025 3213 1025 2328 
Q 1025 1447 1429 934 
Q 1834 422 2522 422 
Q 3209 422 3611 934 
Q 4013 1447 4013 2328 
Q 4013 3213 3611 3725 
Q 3209 4238 2522 4238 
z
M 2522 4750 
Q 3503 4750 4090 4092 
Q 4678 3434 4678 2328 
Q 4678 1225 4090 567 
Q 3503 -91 2522 -91 
Q 1538 -91 948 565 
Q 359 1222 359 2328 
Q 359 3434 948 4092 
Q 1538 4750 2522 4750 
z
" transform="scale(0.015625)"/>
       <path id="DejaVuSans-44" d="M 1259 4147 
L 1259 519 
L 2022 519 
Q 2988 519 3436 956 
Q 3884 1394 3884 2338 
Q 3884 3275 3436 3711 
Q 2988 4147 2022 4147 
L 1259 4147 
z
M 628 4666 
L 1925 4666 
Q 3281 4666 3915 4102 
Q 4550 3538 4550 2338 
Q 4550 1131 3912 565 
Q 3275 0 1925 0 
L 628 0 
L 628 4666 
z
" transform="scale(0.015625)"/>
      </defs>
      <use xlink:href="#DejaVuSans-49"/>
      <use xlink:href="#DejaVuSans-4f" transform="translate(29.492188 0)"/>
      <use xlink:href="#DejaVuSans-20" transform="translate(108.203125 0)"/>
      <use xlink:href="#DejaVuSans-44" transform="translate(139.990234 0)"/>
      <use xlink:href="#DejaVuSans-65" transform="translate(216.992188 0)"/>
      <use xlink:href="#DejaVuSans-70" transform="translate(278.515625 0)"/>
      <use xlink:href="#DejaVuSans-74" transform="translate(341.992188 0)"/>
      <use xlink:href="#DejaVuSans-68" transform="translate(381.201172 0)"/>
     </g>
    </g>
    <g id="line2d_25">
     <path d="M 386.464675 130.74992 
L 396.464675 130.74992 
L 406.464675 130.74992 
" style="fill: none; stroke: #4c02a1; stroke-width: 1.5; stroke-linecap: round"/>
    </g>
    <g id="text_23">
     <!-- 1 -->
     <g style="fill: #262626" transform="translate(414.464675 134.24992) scale(0.1 -0.1)">
      <use xlink:href="#DejaVuSans-31"/>
     </g>
    </g>
    <g id="line2d_26">
     <path d="M 386.464675 145.428045 
L 396.464675 145.428045 
L 406.464675 145.428045 
" style="fill: none; stroke: #7e03a8; stroke-width: 1.5; stroke-linecap: round"/>
    </g>
    <g id="text_24">
     <!-- 4 -->
     <g style="fill: #262626" transform="translate(414.464675 148.928045) scale(0.1 -0.1)">
      <use xlink:href="#DejaVuSans-34"/>
     </g>
    </g>
    <g id="line2d_27">
     <path d="M 386.464675 160.10617 
L 396.464675 160.10617 
L 406.464675 160.10617 
" style="fill: none; stroke: #aa2395; stroke-width: 1.5; stroke-linecap: round"/>
    </g>
    <g id="text_25">
     <!-- 8 -->
     <g style="fill: #262626" transform="translate(414.464675 163.60617) scale(0.1 -0.1)">
      <use xlink:href="#DejaVuSans-38"/>
     </g>
    </g>
    <g id="line2d_28">
     <path d="M 386.464675 174.784295 
L 396.464675 174.784295 
L 406.464675 174.784295 
" style="fill: none; stroke: #cc4778; stroke-width: 1.5; stroke-linecap: round"/>
    </g>
    <g id="text_26">
     <!-- 16 -->
     <g style="fill: #262626" transform="translate(414.464675 178.284295) scale(0.1 -0.1)">
      <use xlink:href="#DejaVuSans-31"/>
      <use xlink:href="#DejaVuSans-36" transform="translate(63.623047 0)"/>
     </g>
    </g>
    <g id="line2d_29">
     <path d="M 386.464675 189.46242 
L 396.464675 189.46242 
L 406.464675 189.46242 
" style="fill: none; stroke: #e66c5c; stroke-width: 1.5; stroke-linecap: round"/>
    </g>
    <g id="text_27">
     <!-- 32 -->
     <g style="fill: #262626" transform="translate(414.464675 192.96242) scale(0.1 -0.1)">
      <use xlink:href="#DejaVuSans-33"/>
      <use xlink:href="#DejaVuSans-32" transform="translate(63.623047 0)"/>
     </g>
    </g>
    <g id="line2d_30">
     <path d="M 386.464675 204.140545 
L 396.464675 204.140545 
L 406.464675 204.140545 
" style="fill: none; stroke: #f89540; stroke-width: 1.5; stroke-linecap: round"/>
    </g>
    <g id="text_28">
     <!-- 64 -->
     <g style="fill: #262626" transform="translate(414.464675 207.640545) scale(0.1 -0.1)">
      <use xlink:href="#DejaVuSans-36"/>
      <use xlink:href="#DejaVuSans-34" transform="translate(63.623047 0)"/>
     </g>
    </g>
    <g id="line2d_31">
     <path d="M 386.464675 218.81867 
L 396.464675 218.81867 
L 406.464675 218.81867 
" style="fill: none; stroke: #fdc527; stroke-width: 1.5; stroke-linecap: round"/>
    </g>
    <g id="text_29">
     <!-- 128 -->
     <g style="fill: #262626" transform="translate(414.464675 222.31867) scale(0.1 -0.1)">
      <use xlink:href="#DejaVuSans-31"/>
      <use xlink:href="#DejaVuSans-32" transform="translate(63.623047 0)"/>
      <use xlink:href="#DejaVuSans-38" transform="translate(127.246094 0)"/>
     </g>
    </g>
   </g>
  </g>
 </g>
 <defs>
  <clipPath id="pa48820d101">
   <rect x="40.603125" y="35.490845" width="321.222" height="263.4544"/>
  </clipPath>
 </defs>
</svg>
