<?xml version="1.0" encoding="utf-8" standalone="no"?>
<!DOCTYPE svg PUBLIC "-//W3C//DTD SVG 1.1//EN"
  "http://www.w3.org/Graphics/SVG/1.1/DTD/svg11.dtd">
<svg xmlns:xlink="http://www.w3.org/1999/xlink" width="498.74375pt" height="339.291975pt" viewBox="0 0 498.74375 339.291975" xmlns="http://www.w3.org/2000/svg" version="1.1">
 <metadata>
  <rdf:RDF xmlns:dc="http://purl.org/dc/elements/1.1/" xmlns:cc="http://creativecommons.org/ns#" xmlns:rdf="http://www.w3.org/1999/02/22-rdf-syntax-ns#">
   <cc:Work>
    <dc:type rdf:resource="http://purl.org/dc/dcmitype/StillImage"/>
    <dc:date>2025-09-11T09:00:02.473888</dc:date>
    <dc:format>image/svg+xml</dc:format>
    <dc:creator>
     <cc:Agent>
      <dc:title>Matplotlib v3.10.6, https://matplotlib.org/</dc:title>
     </cc:Agent>
    </dc:creator>
   </cc:Work>
  </rdf:RDF>
 </metadata>
 <defs>
  <style type="text/css">*{stroke-linejoin: round; stroke-linecap: butt}</style>
 </defs>
 <g id="figure_1">
  <g id="patch_1">
   <path d="M 0 339.291975 
L 498.74375 339.291975 
L 498.74375 0 
L 0 0 
z
" style="fill: #ffffff"/>
  </g>
  <g id="axes_1">
   <g id="patch_2">
    <path d="M 50.14375 301.735725 
L 407.26375 301.735725 
L 407.26375 35.623725 
L 50.14375 35.623725 
z
" style="fill: #ffffff"/>
   </g>
   <g id="matplotlib.axis_1">
    <g id="xtick_1">
     <g id="line2d_1">
      <path d="M 112.755698 301.735725 
L 112.755698 35.623725 
" clip-path="url(#p58e04be108)" style="fill: none; stroke: #cccccc; stroke-width: 0.8; stroke-linecap: round"/>
     </g>
     <g id="text_1">
      <!-- 32 -->
      <g style="fill: #262626" transform="translate(106.393198 316.334162) scale(0.1 -0.1)">
       <defs>
        <path id="DejaVuSans-33" d="M 2597 2516 
Q 3050 2419 3304 2112 
Q 3559 1806 3559 1356 
Q 3559 666 3084 287 
Q 2609 -91 1734 -91 
Q 1441 -91 1130 -33 
Q 819 25 488 141 
L 488 750 
Q 750 597 1062 519 
Q 1375 441 1716 441 
Q 2309 441 2620 675 
Q 2931 909 2931 1356 
Q 2931 1769 2642 2001 
Q 2353 2234 1838 2234 
L 1294 2234 
L 1294 2753 
L 1863 2753 
Q 2328 2753 2575 2939 
Q 2822 3125 2822 3475 
Q 2822 3834 2567 4026 
Q 2313 4219 1838 4219 
Q 1578 4219 1281 4162 
Q 984 4106 628 3988 
L 628 4550 
Q 988 4650 1302 4700 
Q 1616 4750 1894 4750 
Q 2613 4750 3031 4423 
Q 3450 4097 3450 3541 
Q 3450 3153 3228 2886 
Q 3006 2619 2597 2516 
z
" transform="scale(0.015625)"/>
        <path id="DejaVuSans-32" d="M 1228 531 
L 3431 531 
L 3431 0 
L 469 0 
L 469 531 
Q 828 903 1448 1529 
Q 2069 2156 2228 2338 
Q 2531 2678 2651 2914 
Q 2772 3150 2772 3378 
Q 2772 3750 2511 3984 
Q 2250 4219 1831 4219 
Q 1534 4219 1204 4116 
Q 875 4013 500 3803 
L 500 4441 
Q 881 4594 1212 4672 
Q 1544 4750 1819 4750 
Q 2544 4750 2975 4387 
Q 3406 4025 3406 3419 
Q 3406 3131 3298 2873 
Q 3191 2616 2906 2266 
Q 2828 2175 2409 1742 
Q 1991 1309 1228 531 
z
" transform="scale(0.015625)"/>
       </defs>
       <use xlink:href="#DejaVuSans-33"/>
       <use xlink:href="#DejaVuSans-32" transform="translate(63.623047 0)"/>
      </g>
     </g>
    </g>
    <g id="xtick_2">
     <g id="line2d_2">
      <path d="M 205.51414 301.735725 
L 205.51414 35.623725 
" clip-path="url(#p58e04be108)" style="fill: none; stroke: #cccccc; stroke-width: 0.8; stroke-linecap: round"/>
     </g>
     <g id="text_2">
      <!-- 64 -->
      <g style="fill: #262626" transform="translate(199.15164 316.334162) scale(0.1 -0.1)">
       <defs>
        <path id="DejaVuSans-36" d="M 2113 2584 
Q 1688 2584 1439 2293 
Q 1191 2003 1191 1497 
Q 1191 994 1439 701 
Q 1688 409 2113 409 
Q 2538 409 2786 701 
Q 3034 994 3034 1497 
Q 3034 2003 2786 2293 
Q 2538 2584 2113 2584 
z
M 3366 4563 
L 3366 3988 
Q 3128 4100 2886 4159 
Q 2644 4219 2406 4219 
Q 1781 4219 1451 3797 
Q 1122 3375 1075 2522 
Q 1259 2794 1537 2939 
Q 1816 3084 2150 3084 
Q 2853 3084 3261 2657 
Q 3669 2231 3669 1497 
Q 3669 778 3244 343 
Q 2819 -91 2113 -91 
Q 1303 -91 875 529 
Q 447 1150 447 2328 
Q 447 3434 972 4092 
Q 1497 4750 2381 4750 
Q 2619 4750 2861 4703 
Q 3103 4656 3366 4563 
z
" transform="scale(0.015625)"/>
        <path id="DejaVuSans-34" d="M 2419 4116 
L 825 1625 
L 2419 1625 
L 2419 4116 
z
M 2253 4666 
L 3047 4666 
L 3047 1625 
L 3713 1625 
L 3713 1100 
L 3047 1100 
L 3047 0 
L 2419 0 
L 2419 1100 
L 313 1100 
L 313 1709 
L 2253 4666 
z
" transform="scale(0.015625)"/>
       </defs>
       <use xlink:href="#DejaVuSans-36"/>
       <use xlink:href="#DejaVuSans-34" transform="translate(63.623047 0)"/>
      </g>
     </g>
    </g>
    <g id="xtick_3">
     <g id="line2d_3">
      <path d="M 391.031023 301.735725 
L 391.031023 35.623725 
" clip-path="url(#p58e04be108)" style="fill: none; stroke: #cccccc; stroke-width: 0.8; stroke-linecap: round"/>
     </g>
     <g id="text_3">
      <!-- 128 -->
      <g style="fill: #262626" transform="translate(381.487273 316.334162) scale(0.1 -0.1)">
       <defs>
        <path id="DejaVuSans-31" d="M 794 531 
L 1825 531 
L 1825 4091 
L 703 3866 
L 703 4441 
L 1819 4666 
L 2450 4666 
L 2450 531 
L 3481 531 
L 3481 0 
L 794 0 
L 794 531 
z
" transform="scale(0.015625)"/>
        <path id="DejaVuSans-38" d="M 2034 2216 
Q 1584 2216 1326 1975 
Q 1069 1734 1069 1313 
Q 1069 891 1326 650 
Q 1584 409 2034 409 
Q 2484 409 2743 651 
Q 3003 894 3003 1313 
Q 3003 1734 2745 1975 
Q 2488 2216 2034 2216 
z
M 1403 2484 
Q 997 2584 770 2862 
Q 544 3141 544 3541 
Q 544 4100 942 4425 
Q 1341 4750 2034 4750 
Q 2731 4750 3128 4425 
Q 3525 4100 3525 3541 
Q 3525 3141 3298 2862 
Q 3072 2584 2669 2484 
Q 3125 2378 3379 2068 
Q 3634 1759 3634 1313 
Q 3634 634 3220 271 
Q 2806 -91 2034 -91 
Q 1263 -91 848 271 
Q 434 634 434 1313 
Q 434 1759 690 2068 
Q 947 2378 1403 2484 
z
M 1172 3481 
Q 1172 3119 1398 2916 
Q 1625 2713 2034 2713 
Q 2441 2713 2670 2916 
Q 2900 3119 2900 3481 
Q 2900 3844 2670 4047 
Q 2441 4250 2034 4250 
Q 1625 4250 1398 4047 
Q 1172 3844 1172 3481 
z
" transform="scale(0.015625)"/>
       </defs>
       <use xlink:href="#DejaVuSans-31"/>
       <use xlink:href="#DejaVuSans-32" transform="translate(63.623047 0)"/>
       <use xlink:href="#DejaVuSans-38" transform="translate(127.246094 0)"/>
      </g>
     </g>
    </g>
    <g id="xtick_4">
     <g id="line2d_4">
      <path d="M 66.376477 301.735725 
L 66.376477 35.623725 
" clip-path="url(#p58e04be108)" style="fill: none; stroke: #cccccc; stroke-width: 0.8; stroke-linecap: round"/>
     </g>
     <g id="text_4">
      <!-- 16 -->
      <g style="fill: #262626" transform="translate(60.013977 316.334162) scale(0.1 -0.1)">
       <use xlink:href="#DejaVuSans-31"/>
       <use xlink:href="#DejaVuSans-36" transform="translate(63.623047 0)"/>
      </g>
     </g>
    </g>
    <g id="text_5">
     <!-- Number of Jobs -->
     <g style="fill: #262626" transform="translate(190.306875 330.012287) scale(0.1 -0.1)">
      <defs>
       <path id="DejaVuSans-4e" d="M 628 4666 
L 1478 4666 
L 3547 763 
L 3547 4666 
L 4159 4666 
L 4159 0 
L 3309 0 
L 1241 3903 
L 1241 0 
L 628 0 
L 628 4666 
z
" transform="scale(0.015625)"/>
       <path id="DejaVuSans-75" d="M 544 1381 
L 544 3500 
L 1119 3500 
L 1119 1403 
Q 1119 906 1312 657 
Q 1506 409 1894 409 
Q 2359 409 2629 706 
Q 2900 1003 2900 1516 
L 2900 3500 
L 3475 3500 
L 3475 0 
L 2900 0 
L 2900 538 
Q 2691 219 2414 64 
Q 2138 -91 1772 -91 
Q 1169 -91 856 284 
Q 544 659 544 1381 
z
M 1991 3584 
L 1991 3584 
z
" transform="scale(0.015625)"/>
       <path id="DejaVuSans-6d" d="M 3328 2828 
Q 3544 3216 3844 3400 
Q 4144 3584 4550 3584 
Q 5097 3584 5394 3201 
Q 5691 2819 5691 2113 
L 5691 0 
L 5113 0 
L 5113 2094 
Q 5113 2597 4934 2840 
Q 4756 3084 4391 3084 
Q 3944 3084 3684 2787 
Q 3425 2491 3425 1978 
L 3425 0 
L 2847 0 
L 2847 2094 
Q 2847 2600 2669 2842 
Q 2491 3084 2119 3084 
Q 1678 3084 1418 2786 
Q 1159 2488 1159 1978 
L 1159 0 
L 581 0 
L 581 3500 
L 1159 3500 
L 1159 2956 
Q 1356 3278 1631 3431 
Q 1906 3584 2284 3584 
Q 2666 3584 2933 3390 
Q 3200 3197 3328 2828 
z
" transform="scale(0.015625)"/>
       <path id="DejaVuSans-62" d="M 3116 1747 
Q 3116 2381 2855 2742 
Q 2594 3103 2138 3103 
Q 1681 3103 1420 2742 
Q 1159 2381 1159 1747 
Q 1159 1113 1420 752 
Q 1681 391 2138 391 
Q 2594 391 2855 752 
Q 3116 1113 3116 1747 
z
M 1159 2969 
Q 1341 3281 1617 3432 
Q 1894 3584 2278 3584 
Q 2916 3584 3314 3078 
Q 3713 2572 3713 1747 
Q 3713 922 3314 415 
Q 2916 -91 2278 -91 
Q 1894 -91 1617 61 
Q 1341 213 1159 525 
L 1159 0 
L 581 0 
L 581 4863 
L 1159 4863 
L 1159 2969 
z
" transform="scale(0.015625)"/>
       <path id="DejaVuSans-65" d="M 3597 1894 
L 3597 1613 
L 953 1613 
Q 991 1019 1311 708 
Q 1631 397 2203 397 
Q 2534 397 2845 478 
Q 3156 559 3463 722 
L 3463 178 
Q 3153 47 2828 -22 
Q 2503 -91 2169 -91 
Q 1331 -91 842 396 
Q 353 884 353 1716 
Q 353 2575 817 3079 
Q 1281 3584 2069 3584 
Q 2775 3584 3186 3129 
Q 3597 2675 3597 1894 
z
M 3022 2063 
Q 3016 2534 2758 2815 
Q 2500 3097 2075 3097 
Q 1594 3097 1305 2825 
Q 1016 2553 972 2059 
L 3022 2063 
z
" transform="scale(0.015625)"/>
       <path id="DejaVuSans-72" d="M 2631 2963 
Q 2534 3019 2420 3045 
Q 2306 3072 2169 3072 
Q 1681 3072 1420 2755 
Q 1159 2438 1159 1844 
L 1159 0 
L 581 0 
L 581 3500 
L 1159 3500 
L 1159 2956 
Q 1341 3275 1631 3429 
Q 1922 3584 2338 3584 
Q 2397 3584 2469 3576 
Q 2541 3569 2628 3553 
L 2631 2963 
z
" transform="scale(0.015625)"/>
       <path id="DejaVuSans-20" transform="scale(0.015625)"/>
       <path id="DejaVuSans-6f" d="M 1959 3097 
Q 1497 3097 1228 2736 
Q 959 2375 959 1747 
Q 959 1119 1226 758 
Q 1494 397 1959 397 
Q 2419 397 2687 759 
Q 2956 1122 2956 1747 
Q 2956 2369 2687 2733 
Q 2419 3097 1959 3097 
z
M 1959 3584 
Q 2709 3584 3137 3096 
Q 3566 2609 3566 1747 
Q 3566 888 3137 398 
Q 2709 -91 1959 -91 
Q 1206 -91 779 398 
Q 353 888 353 1747 
Q 353 2609 779 3096 
Q 1206 3584 1959 3584 
z
" transform="scale(0.015625)"/>
       <path id="DejaVuSans-66" d="M 2375 4863 
L 2375 4384 
L 1825 4384 
Q 1516 4384 1395 4259 
Q 1275 4134 1275 3809 
L 1275 3500 
L 2222 3500 
L 2222 3053 
L 1275 3053 
L 1275 0 
L 697 0 
L 697 3053 
L 147 3053 
L 147 3500 
L 697 3500 
L 697 3744 
Q 697 4328 969 4595 
Q 1241 4863 1831 4863 
L 2375 4863 
z
" transform="scale(0.015625)"/>
       <path id="DejaVuSans-4a" d="M 628 4666 
L 1259 4666 
L 1259 325 
Q 1259 -519 939 -900 
Q 619 -1281 -91 -1281 
L -331 -1281 
L -331 -750 
L -134 -750 
Q 284 -750 456 -515 
Q 628 -281 628 325 
L 628 4666 
z
" transform="scale(0.015625)"/>
       <path id="DejaVuSans-73" d="M 2834 3397 
L 2834 2853 
Q 2591 2978 2328 3040 
Q 2066 3103 1784 3103 
Q 1356 3103 1142 2972 
Q 928 2841 928 2578 
Q 928 2378 1081 2264 
Q 1234 2150 1697 2047 
L 1894 2003 
Q 2506 1872 2764 1633 
Q 3022 1394 3022 966 
Q 3022 478 2636 193 
Q 2250 -91 1575 -91 
Q 1294 -91 989 -36 
Q 684 19 347 128 
L 347 722 
Q 666 556 975 473 
Q 1284 391 1588 391 
Q 1994 391 2212 530 
Q 2431 669 2431 922 
Q 2431 1156 2273 1281 
Q 2116 1406 1581 1522 
L 1381 1569 
Q 847 1681 609 1914 
Q 372 2147 372 2553 
Q 372 3047 722 3315 
Q 1072 3584 1716 3584 
Q 2034 3584 2315 3537 
Q 2597 3491 2834 3397 
z
" transform="scale(0.015625)"/>
      </defs>
      <use xlink:href="#DejaVuSans-4e"/>
      <use xlink:href="#DejaVuSans-75" transform="translate(74.804688 0)"/>
      <use xlink:href="#DejaVuSans-6d" transform="translate(138.183594 0)"/>
      <use xlink:href="#DejaVuSans-62" transform="translate(235.595703 0)"/>
      <use xlink:href="#DejaVuSans-65" transform="translate(299.072266 0)"/>
      <use xlink:href="#DejaVuSans-72" transform="translate(360.595703 0)"/>
      <use xlink:href="#DejaVuSans-20" transform="translate(401.708984 0)"/>
      <use xlink:href="#DejaVuSans-6f" transform="translate(433.496094 0)"/>
      <use xlink:href="#DejaVuSans-66" transform="translate(494.677734 0)"/>
      <use xlink:href="#DejaVuSans-20" transform="translate(529.882812 0)"/>
      <use xlink:href="#DejaVuSans-4a" transform="translate(561.669922 0)"/>
      <use xlink:href="#DejaVuSans-6f" transform="translate(591.162109 0)"/>
      <use xlink:href="#DejaVuSans-62" transform="translate(652.34375 0)"/>
      <use xlink:href="#DejaVuSans-73" transform="translate(715.820312 0)"/>
     </g>
    </g>
   </g>
   <g id="matplotlib.axis_2">
    <g id="ytick_1">
     <g id="line2d_5">
      <path d="M 50.14375 270.501875 
L 407.26375 270.501875 
" clip-path="url(#p58e04be108)" style="fill: none; stroke: #cccccc; stroke-width: 0.8; stroke-linecap: round"/>
     </g>
     <g id="text_6">
      <!-- 0.18 -->
      <g style="fill: #262626" transform="translate(20.878125 274.301094) scale(0.1 -0.1)">
       <defs>
        <path id="DejaVuSans-30" d="M 2034 4250 
Q 1547 4250 1301 3770 
Q 1056 3291 1056 2328 
Q 1056 1369 1301 889 
Q 1547 409 2034 409 
Q 2525 409 2770 889 
Q 3016 1369 3016 2328 
Q 3016 3291 2770 3770 
Q 2525 4250 2034 4250 
z
M 2034 4750 
Q 2819 4750 3233 4129 
Q 3647 3509 3647 2328 
Q 3647 1150 3233 529 
Q 2819 -91 2034 -91 
Q 1250 -91 836 529 
Q 422 1150 422 2328 
Q 422 3509 836 4129 
Q 1250 4750 2034 4750 
z
" transform="scale(0.015625)"/>
        <path id="DejaVuSans-2e" d="M 684 794 
L 1344 794 
L 1344 0 
L 684 0 
L 684 794 
z
" transform="scale(0.015625)"/>
       </defs>
       <use xlink:href="#DejaVuSans-30"/>
       <use xlink:href="#DejaVuSans-2e" transform="translate(63.623047 0)"/>
       <use xlink:href="#DejaVuSans-31" transform="translate(95.410156 0)"/>
       <use xlink:href="#DejaVuSans-38" transform="translate(159.033203 0)"/>
      </g>
     </g>
    </g>
    <g id="ytick_2">
     <g id="line2d_6">
      <path d="M 50.14375 233.136979 
L 407.26375 233.136979 
" clip-path="url(#p58e04be108)" style="fill: none; stroke: #cccccc; stroke-width: 0.8; stroke-linecap: round"/>
     </g>
     <g id="text_7">
      <!-- 0.19 -->
      <g style="fill: #262626" transform="translate(20.878125 236.936197) scale(0.1 -0.1)">
       <defs>
        <path id="DejaVuSans-39" d="M 703 97 
L 703 672 
Q 941 559 1184 500 
Q 1428 441 1663 441 
Q 2288 441 2617 861 
Q 2947 1281 2994 2138 
Q 2813 1869 2534 1725 
Q 2256 1581 1919 1581 
Q 1219 1581 811 2004 
Q 403 2428 403 3163 
Q 403 3881 828 4315 
Q 1253 4750 1959 4750 
Q 2769 4750 3195 4129 
Q 3622 3509 3622 2328 
Q 3622 1225 3098 567 
Q 2575 -91 1691 -91 
Q 1453 -91 1209 -44 
Q 966 3 703 97 
z
M 1959 2075 
Q 2384 2075 2632 2365 
Q 2881 2656 2881 3163 
Q 2881 3666 2632 3958 
Q 2384 4250 1959 4250 
Q 1534 4250 1286 3958 
Q 1038 3666 1038 3163 
Q 1038 2656 1286 2365 
Q 1534 2075 1959 2075 
z
" transform="scale(0.015625)"/>
       </defs>
       <use xlink:href="#DejaVuSans-30"/>
       <use xlink:href="#DejaVuSans-2e" transform="translate(63.623047 0)"/>
       <use xlink:href="#DejaVuSans-31" transform="translate(95.410156 0)"/>
       <use xlink:href="#DejaVuSans-39" transform="translate(159.033203 0)"/>
      </g>
     </g>
    </g>
    <g id="ytick_3">
     <g id="line2d_7">
      <path d="M 50.14375 195.772082 
L 407.26375 195.772082 
" clip-path="url(#p58e04be108)" style="fill: none; stroke: #cccccc; stroke-width: 0.8; stroke-linecap: round"/>
     </g>
     <g id="text_8">
      <!-- 0.20 -->
      <g style="fill: #262626" transform="translate(20.878125 199.571301) scale(0.1 -0.1)">
       <use xlink:href="#DejaVuSans-30"/>
       <use xlink:href="#DejaVuSans-2e" transform="translate(63.623047 0)"/>
       <use xlink:href="#DejaVuSans-32" transform="translate(95.410156 0)"/>
       <use xlink:href="#DejaVuSans-30" transform="translate(159.033203 0)"/>
      </g>
     </g>
    </g>
    <g id="ytick_4">
     <g id="line2d_8">
      <path d="M 50.14375 158.407186 
L 407.26375 158.407186 
" clip-path="url(#p58e04be108)" style="fill: none; stroke: #cccccc; stroke-width: 0.8; stroke-linecap: round"/>
     </g>
     <g id="text_9">
      <!-- 0.21 -->
      <g style="fill: #262626" transform="translate(20.878125 162.206405) scale(0.1 -0.1)">
       <use xlink:href="#DejaVuSans-30"/>
       <use xlink:href="#DejaVuSans-2e" transform="translate(63.623047 0)"/>
       <use xlink:href="#DejaVuSans-32" transform="translate(95.410156 0)"/>
       <use xlink:href="#DejaVuSans-31" transform="translate(159.033203 0)"/>
      </g>
     </g>
    </g>
    <g id="ytick_5">
     <g id="line2d_9">
      <path d="M 50.14375 121.04229 
L 407.26375 121.04229 
" clip-path="url(#p58e04be108)" style="fill: none; stroke: #cccccc; stroke-width: 0.8; stroke-linecap: round"/>
     </g>
     <g id="text_10">
      <!-- 0.22 -->
      <g style="fill: #262626" transform="translate(20.878125 124.841508) scale(0.1 -0.1)">
       <use xlink:href="#DejaVuSans-30"/>
       <use xlink:href="#DejaVuSans-2e" transform="translate(63.623047 0)"/>
       <use xlink:href="#DejaVuSans-32" transform="translate(95.410156 0)"/>
       <use xlink:href="#DejaVuSans-32" transform="translate(159.033203 0)"/>
      </g>
     </g>
    </g>
    <g id="ytick_6">
     <g id="line2d_10">
      <path d="M 50.14375 83.677393 
L 407.26375 83.677393 
" clip-path="url(#p58e04be108)" style="fill: none; stroke: #cccccc; stroke-width: 0.8; stroke-linecap: round"/>
     </g>
     <g id="text_11">
      <!-- 0.23 -->
      <g style="fill: #262626" transform="translate(20.878125 87.476612) scale(0.1 -0.1)">
       <use xlink:href="#DejaVuSans-30"/>
       <use xlink:href="#DejaVuSans-2e" transform="translate(63.623047 0)"/>
       <use xlink:href="#DejaVuSans-32" transform="translate(95.410156 0)"/>
       <use xlink:href="#DejaVuSans-33" transform="translate(159.033203 0)"/>
      </g>
     </g>
    </g>
    <g id="ytick_7">
     <g id="line2d_11">
      <path d="M 50.14375 46.312497 
L 407.26375 46.312497 
" clip-path="url(#p58e04be108)" style="fill: none; stroke: #cccccc; stroke-width: 0.8; stroke-linecap: round"/>
     </g>
     <g id="text_12">
      <!-- 0.24 -->
      <g style="fill: #262626" transform="translate(20.878125 50.111716) scale(0.1 -0.1)">
       <use xlink:href="#DejaVuSans-30"/>
       <use xlink:href="#DejaVuSans-2e" transform="translate(63.623047 0)"/>
       <use xlink:href="#DejaVuSans-32" transform="translate(95.410156 0)"/>
       <use xlink:href="#DejaVuSans-34" transform="translate(159.033203 0)"/>
      </g>
     </g>
    </g>
    <g id="text_13">
     <!-- Mean Bandwidth (GiB/s) -->
     <g style="fill: #262626" transform="translate(14.798438 228.984412) rotate(-90) scale(0.1 -0.1)">
      <defs>
       <path id="DejaVuSans-4d" d="M 628 4666 
L 1569 4666 
L 2759 1491 
L 3956 4666 
L 4897 4666 
L 4897 0 
L 4281 0 
L 4281 4097 
L 3078 897 
L 2444 897 
L 1241 4097 
L 1241 0 
L 628 0 
L 628 4666 
z
" transform="scale(0.015625)"/>
       <path id="DejaVuSans-61" d="M 2194 1759 
Q 1497 1759 1228 1600 
Q 959 1441 959 1056 
Q 959 750 1161 570 
Q 1363 391 1709 391 
Q 2188 391 2477 730 
Q 2766 1069 2766 1631 
L 2766 1759 
L 2194 1759 
z
M 3341 1997 
L 3341 0 
L 2766 0 
L 2766 531 
Q 2569 213 2275 61 
Q 1981 -91 1556 -91 
Q 1019 -91 701 211 
Q 384 513 384 1019 
Q 384 1609 779 1909 
Q 1175 2209 1959 2209 
L 2766 2209 
L 2766 2266 
Q 2766 2663 2505 2880 
Q 2244 3097 1772 3097 
Q 1472 3097 1187 3025 
Q 903 2953 641 2809 
L 641 3341 
Q 956 3463 1253 3523 
Q 1550 3584 1831 3584 
Q 2591 3584 2966 3190 
Q 3341 2797 3341 1997 
z
" transform="scale(0.015625)"/>
       <path id="DejaVuSans-6e" d="M 3513 2113 
L 3513 0 
L 2938 0 
L 2938 2094 
Q 2938 2591 2744 2837 
Q 2550 3084 2163 3084 
Q 1697 3084 1428 2787 
Q 1159 2491 1159 1978 
L 1159 0 
L 581 0 
L 581 3500 
L 1159 3500 
L 1159 2956 
Q 1366 3272 1645 3428 
Q 1925 3584 2291 3584 
Q 2894 3584 3203 3211 
Q 3513 2838 3513 2113 
z
" transform="scale(0.015625)"/>
       <path id="DejaVuSans-42" d="M 1259 2228 
L 1259 519 
L 2272 519 
Q 2781 519 3026 730 
Q 3272 941 3272 1375 
Q 3272 1813 3026 2020 
Q 2781 2228 2272 2228 
L 1259 2228 
z
M 1259 4147 
L 1259 2741 
L 2194 2741 
Q 2656 2741 2882 2914 
Q 3109 3088 3109 3444 
Q 3109 3797 2882 3972 
Q 2656 4147 2194 4147 
L 1259 4147 
z
M 628 4666 
L 2241 4666 
Q 2963 4666 3353 4366 
Q 3744 4066 3744 3513 
Q 3744 3084 3544 2831 
Q 3344 2578 2956 2516 
Q 3422 2416 3680 2098 
Q 3938 1781 3938 1306 
Q 3938 681 3513 340 
Q 3088 0 2303 0 
L 628 0 
L 628 4666 
z
" transform="scale(0.015625)"/>
       <path id="DejaVuSans-64" d="M 2906 2969 
L 2906 4863 
L 3481 4863 
L 3481 0 
L 2906 0 
L 2906 525 
Q 2725 213 2448 61 
Q 2172 -91 1784 -91 
Q 1150 -91 751 415 
Q 353 922 353 1747 
Q 353 2572 751 3078 
Q 1150 3584 1784 3584 
Q 2172 3584 2448 3432 
Q 2725 3281 2906 2969 
z
M 947 1747 
Q 947 1113 1208 752 
Q 1469 391 1925 391 
Q 2381 391 2643 752 
Q 2906 1113 2906 1747 
Q 2906 2381 2643 2742 
Q 2381 3103 1925 3103 
Q 1469 3103 1208 2742 
Q 947 2381 947 1747 
z
" transform="scale(0.015625)"/>
       <path id="DejaVuSans-77" d="M 269 3500 
L 844 3500 
L 1563 769 
L 2278 3500 
L 2956 3500 
L 3675 769 
L 4391 3500 
L 4966 3500 
L 4050 0 
L 3372 0 
L 2619 2869 
L 1863 0 
L 1184 0 
L 269 3500 
z
" transform="scale(0.015625)"/>
       <path id="DejaVuSans-69" d="M 603 3500 
L 1178 3500 
L 1178 0 
L 603 0 
L 603 3500 
z
M 603 4863 
L 1178 4863 
L 1178 4134 
L 603 4134 
L 603 4863 
z
" transform="scale(0.015625)"/>
       <path id="DejaVuSans-74" d="M 1172 4494 
L 1172 3500 
L 2356 3500 
L 2356 3053 
L 1172 3053 
L 1172 1153 
Q 1172 725 1289 603 
Q 1406 481 1766 481 
L 2356 481 
L 2356 0 
L 1766 0 
Q 1100 0 847 248 
Q 594 497 594 1153 
L 594 3053 
L 172 3053 
L 172 3500 
L 594 3500 
L 594 4494 
L 1172 4494 
z
" transform="scale(0.015625)"/>
       <path id="DejaVuSans-68" d="M 3513 2113 
L 3513 0 
L 2938 0 
L 2938 2094 
Q 2938 2591 2744 2837 
Q 2550 3084 2163 3084 
Q 1697 3084 1428 2787 
Q 1159 2491 1159 1978 
L 1159 0 
L 581 0 
L 581 4863 
L 1159 4863 
L 1159 2956 
Q 1366 3272 1645 3428 
Q 1925 3584 2291 3584 
Q 2894 3584 3203 3211 
Q 3513 2838 3513 2113 
z
" transform="scale(0.015625)"/>
       <path id="DejaVuSans-28" d="M 1984 4856 
Q 1566 4138 1362 3434 
Q 1159 2731 1159 2009 
Q 1159 1288 1364 580 
Q 1569 -128 1984 -844 
L 1484 -844 
Q 1016 -109 783 600 
Q 550 1309 550 2009 
Q 550 2706 781 3412 
Q 1013 4119 1484 4856 
L 1984 4856 
z
" transform="scale(0.015625)"/>
       <path id="DejaVuSans-47" d="M 3809 666 
L 3809 1919 
L 2778 1919 
L 2778 2438 
L 4434 2438 
L 4434 434 
Q 4069 175 3628 42 
Q 3188 -91 2688 -91 
Q 1594 -91 976 548 
Q 359 1188 359 2328 
Q 359 3472 976 4111 
Q 1594 4750 2688 4750 
Q 3144 4750 3555 4637 
Q 3966 4525 4313 4306 
L 4313 3634 
Q 3963 3931 3569 4081 
Q 3175 4231 2741 4231 
Q 1884 4231 1454 3753 
Q 1025 3275 1025 2328 
Q 1025 1384 1454 906 
Q 1884 428 2741 428 
Q 3075 428 3337 486 
Q 3600 544 3809 666 
z
" transform="scale(0.015625)"/>
       <path id="DejaVuSans-2f" d="M 1625 4666 
L 2156 4666 
L 531 -594 
L 0 -594 
L 1625 4666 
z
" transform="scale(0.015625)"/>
       <path id="DejaVuSans-29" d="M 513 4856 
L 1013 4856 
Q 1481 4119 1714 3412 
Q 1947 2706 1947 2009 
Q 1947 1309 1714 600 
Q 1481 -109 1013 -844 
L 513 -844 
Q 928 -128 1133 580 
Q 1338 1288 1338 2009 
Q 1338 2731 1133 3434 
Q 928 4138 513 4856 
z
" transform="scale(0.015625)"/>
      </defs>
      <use xlink:href="#DejaVuSans-4d"/>
      <use xlink:href="#DejaVuSans-65" transform="translate(86.279297 0)"/>
      <use xlink:href="#DejaVuSans-61" transform="translate(147.802734 0)"/>
      <use xlink:href="#DejaVuSans-6e" transform="translate(209.082031 0)"/>
      <use xlink:href="#DejaVuSans-20" transform="translate(272.460938 0)"/>
      <use xlink:href="#DejaVuSans-42" transform="translate(304.248047 0)"/>
      <use xlink:href="#DejaVuSans-61" transform="translate(372.851562 0)"/>
      <use xlink:href="#DejaVuSans-6e" transform="translate(434.130859 0)"/>
      <use xlink:href="#DejaVuSans-64" transform="translate(497.509766 0)"/>
      <use xlink:href="#DejaVuSans-77" transform="translate(560.986328 0)"/>
      <use xlink:href="#DejaVuSans-69" transform="translate(642.773438 0)"/>
      <use xlink:href="#DejaVuSans-64" transform="translate(670.556641 0)"/>
      <use xlink:href="#DejaVuSans-74" transform="translate(734.033203 0)"/>
      <use xlink:href="#DejaVuSans-68" transform="translate(773.242188 0)"/>
      <use xlink:href="#DejaVuSans-20" transform="translate(836.621094 0)"/>
      <use xlink:href="#DejaVuSans-28" transform="translate(868.408203 0)"/>
      <use xlink:href="#DejaVuSans-47" transform="translate(907.421875 0)"/>
      <use xlink:href="#DejaVuSans-69" transform="translate(984.912109 0)"/>
      <use xlink:href="#DejaVuSans-42" transform="translate(1012.695312 0)"/>
      <use xlink:href="#DejaVuSans-2f" transform="translate(1081.298828 0)"/>
      <use xlink:href="#DejaVuSans-73" transform="translate(1114.990234 0)"/>
      <use xlink:href="#DejaVuSans-29" transform="translate(1167.089844 0)"/>
     </g>
    </g>
   </g>
   <g id="FillBetweenPolyCollection_1"/>
   <g id="FillBetweenPolyCollection_2"/>
   <g id="FillBetweenPolyCollection_3"/>
   <g id="FillBetweenPolyCollection_4"/>
   <g id="FillBetweenPolyCollection_5"/>
   <g id="FillBetweenPolyCollection_6"/>
   <g id="FillBetweenPolyCollection_7"/>
   <g id="line2d_12">
    <path d="M 66.376477 202.780147 
L 112.755698 140.59375 
L 205.51414 150.204059 
L 391.031023 257.679919 
" clip-path="url(#p58e04be108)" style="fill: none; stroke: #4c02a1; stroke-width: 1.5; stroke-linecap: round"/>
   </g>
   <g id="line2d_13">
    <path d="M 66.376477 143.800092 
L 112.755698 65.236892 
L 205.51414 64.22911 
L 391.031023 102.996954 
" clip-path="url(#p58e04be108)" style="fill: none; stroke: #7e03a8; stroke-width: 1.5; stroke-linecap: round"/>
   </g>
   <g id="line2d_14">
    <path d="M 66.376477 237.984853 
L 112.755698 122.096066 
L 205.51414 167.871137 
L 391.031023 225.061805 
" clip-path="url(#p58e04be108)" style="fill: none; stroke: #aa2395; stroke-width: 1.5; stroke-linecap: round"/>
   </g>
   <g id="line2d_15">
    <path d="M 66.376477 174.212863 
L 112.755698 173.23906 
L 205.51414 48.074657 
L 391.031023 280.297954 
" clip-path="url(#p58e04be108)" style="fill: none; stroke: #cc4778; stroke-width: 1.5; stroke-linecap: round"/>
   </g>
   <g id="line2d_16">
    <path d="M 66.376477 196.69811 
L 112.755698 119.64831 
L 205.51414 47.719725 
L 391.031023 98.48332 
" clip-path="url(#p58e04be108)" style="fill: none; stroke: #e66c5c; stroke-width: 1.5; stroke-linecap: round"/>
   </g>
   <g id="line2d_17">
    <path d="M 66.376477 127.849561 
L 112.755698 100.6483 
L 205.51414 68.100004 
L 391.031023 130.952197 
" clip-path="url(#p58e04be108)" style="fill: none; stroke: #f89540; stroke-width: 1.5; stroke-linecap: round"/>
   </g>
   <g id="line2d_18">
    <path d="M 66.376477 289.639725 
L 112.755698 191.733578 
L 205.51414 56.120414 
L 391.031023 222.807498 
" clip-path="url(#p58e04be108)" style="fill: none; stroke: #fdc527; stroke-width: 1.5; stroke-linecap: round"/>
   </g>
   <g id="line2d_19"/>
   <g id="line2d_20"/>
   <g id="line2d_21"/>
   <g id="line2d_22"/>
   <g id="line2d_23"/>
   <g id="line2d_24"/>
   <g id="line2d_25"/>
   <g id="text_14">
    <path d="M 108.562407 149.44394 
L 109.525503 148.152597 
L 105.06655 144.827067 
L 104.300264 146.442569 
L 103.580068 145.90544 
L 104.340749 144.297453 
L 104.93019 143.507116 
L 110.109339 147.369775 
L 111.072435 146.078433 
L 111.73752 146.57446 
L 109.227492 149.939967 
L 108.562407 149.44394 
z
" clip-path="url(#p58e04be108)" style="fill: #4c02a1; stroke: #ffffff; stroke-width: 5"/>
    <path d="M 108.562407 149.44394 
L 109.525503 148.152597 
L 105.06655 144.827067 
L 104.300264 146.442569 
L 103.580068 145.90544 
L 104.340749 144.297453 
L 104.93019 143.507116 
L 110.109339 147.369775 
L 111.072435 146.078433 
L 111.73752 146.57446 
L 109.227492 149.939967 
L 108.562407 149.44394 
z
" clip-path="url(#p58e04be108)" style="fill: #4c02a1"/>
   </g>
   <g id="text_15">
    <path d="M 148.910261 61.171996 
L 146.462068 65.091012 
L 148.952546 65.063954 
L 148.910261 61.171996 
z
M 148.641565 60.315489 
L 149.882117 60.302011 
L 149.933738 65.053293 
L 150.974301 65.041988 
L 150.983213 65.862252 
L 149.94265 65.873557 
L 149.961322 67.592206 
L 148.98013 67.602866 
L 148.961457 65.884218 
L 145.671027 65.919967 
L 145.660689 64.968461 
L 148.641565 60.315489 
z
" clip-path="url(#p58e04be108)" style="fill: #7e03a8; stroke: #ffffff; stroke-width: 5"/>
    <path d="M 148.910261 61.171996 
L 146.462068 65.091012 
L 148.952546 65.063954 
L 148.910261 61.171996 
z
M 148.641565 60.315489 
L 149.882117 60.302011 
L 149.933738 65.053293 
L 150.974301 65.041988 
L 150.983213 65.862252 
L 149.94265 65.873557 
L 149.961322 67.592206 
L 148.98013 67.602866 
L 148.961457 65.884218 
L 145.671027 65.919967 
L 145.660689 64.968461 
L 148.641565 60.315489 
z
" clip-path="url(#p58e04be108)" style="fill: #7e03a8"/>
   </g>
   <g id="text_16">
    <path d="M 188.836105 158.856666 
Q 188.205577 158.545508 187.677432 158.704794 
Q 187.150688 158.864772 186.859583 159.454666 
Q 186.567787 160.045961 186.761246 160.56135 
Q 186.956107 161.077429 187.586635 161.388587 
Q 188.217164 161.699744 188.747401 161.539748 
Q 189.279731 161.379043 189.569453 160.791951 
Q 189.860558 160.202057 189.665698 159.685977 
Q 189.472238 159.170589 188.836105 158.856666 
z
M 188.137276 158.044839 
Q 187.637545 157.623989 187.511705 157.077501 
Q 187.387957 156.530303 187.664542 155.969834 
Q 188.051068 155.186577 188.83346 155.006397 
Q 189.617253 154.826909 190.588267 155.306091 
Q 191.564885 155.788039 191.896426 156.517931 
Q 192.227967 157.247822 191.841441 158.031078 
Q 191.564857 158.591548 191.053872 158.825514 
Q 190.544981 159.05877 189.911162 158.920229 
Q 190.476802 159.384059 190.618348 159.994054 
Q 190.761986 160.603339 190.453594 161.228263 
Q 189.984092 162.17966 189.153006 162.402021 
Q 188.322611 162.622982 187.240905 162.089174 
Q 186.1606 161.556057 185.829421 160.761876 
Q 185.500336 159.966985 185.969838 159.015588 
Q 186.278229 158.390665 186.850591 158.134716 
Q 187.425046 157.878058 188.137276 158.044839 
z
M 188.502991 156.488142 
Q 188.252682 156.995366 188.428981 157.436075 
Q 188.606681 157.877475 189.179761 158.160282 
Q 189.750039 158.441707 190.211274 158.315613 
Q 190.673911 158.190211 190.92422 157.682986 
Q 191.17522 157.17436 190.993316 156.730885 
Q 190.812814 156.288103 190.242536 156.006678 
Q 189.669456 155.723871 189.211023 155.851347 
Q 188.753991 155.979515 188.502991 156.488142 
z
" clip-path="url(#p58e04be108)" style="fill: #aa2395; stroke: #ffffff; stroke-width: 5"/>
    <path d="M 188.836105 158.856666 
Q 188.205577 158.545508 187.677432 158.704794 
Q 187.150688 158.864772 186.859583 159.454666 
Q 186.567787 160.045961 186.761246 160.56135 
Q 186.956107 161.077429 187.586635 161.388587 
Q 188.217164 161.699744 188.747401 161.539748 
Q 189.279731 161.379043 189.569453 160.791951 
Q 189.860558 160.202057 189.665698 159.685977 
Q 189.472238 159.170589 188.836105 158.856666 
z
M 188.137276 158.044839 
Q 187.637545 157.623989 187.511705 157.077501 
Q 187.387957 156.530303 187.664542 155.969834 
Q 188.051068 155.186577 188.83346 155.006397 
Q 189.617253 154.826909 190.588267 155.306091 
Q 191.564885 155.788039 191.896426 156.517931 
Q 192.227967 157.247822 191.841441 158.031078 
Q 191.564857 158.591548 191.053872 158.825514 
Q 190.544981 159.05877 189.911162 158.920229 
Q 190.476802 159.384059 190.618348 159.994054 
Q 190.761986 160.603339 190.453594 161.228263 
Q 189.984092 162.17966 189.153006 162.402021 
Q 188.322611 162.622982 187.240905 162.089174 
Q 186.1606 161.556057 185.829421 160.761876 
Q 185.500336 159.966985 185.969838 159.015588 
Q 186.278229 158.390665 186.850591 158.134716 
Q 187.425046 157.878058 188.137276 158.044839 
z
M 188.502991 156.488142 
Q 188.252682 156.995366 188.428981 157.436075 
Q 188.606681 157.877475 189.179761 158.160282 
Q 189.750039 158.441707 190.211274 158.315613 
Q 190.673911 158.190211 190.92422 157.682986 
Q 191.17522 157.17436 190.993316 156.730885 
Q 190.812814 156.288103 190.242536 156.006678 
Q 189.669456 155.723871 189.211023 155.851347 
Q 188.753991 155.979515 188.502991 156.488142 
z
" clip-path="url(#p58e04be108)" style="fill: #aa2395"/>
   </g>
   <g id="text_17">
    <path d="M 223.99923 74.305287 
L 225.004709 75.56391 
L 229.35068 72.092031 
L 227.981778 70.941748 
L 228.683726 70.380981 
L 230.046777 71.52394 
L 230.662157 72.294251 
L 225.614238 76.326896 
L 226.619718 77.585519 
L 225.971484 78.103375 
L 223.350996 74.823143 
L 223.99923 74.305287 
z
M 231.762921 78.88417 
Q 231.348441 78.365339 230.750358 78.345162 
Q 230.154471 78.32523 229.536758 78.818705 
Q 228.922706 79.309254 228.806879 79.897754 
Q 228.693248 80.4865 229.107728 81.005331 
Q 229.522208 81.524162 230.120536 81.542143 
Q 230.720086 81.559149 231.334137 81.0686 
Q 231.951851 80.575125 232.064016 79.98955 
Q 232.177401 79.403 231.762921 78.88417 
z
M 235.400826 78.483792 
L 234.698878 79.044559 
Q 234.603497 78.644786 234.439513 78.291818 
Q 234.27675 77.937874 234.044641 77.647329 
Q 233.435112 76.884343 232.598112 76.89304 
Q 231.762087 76.902958 230.674927 77.677467 
Q 231.186424 77.636823 231.634555 77.834789 
Q 232.083662 78.033975 232.409395 78.441715 
Q 233.094993 79.299922 232.971621 80.21443 
Q 232.84947 81.127963 231.953419 81.843794 
Q 231.075679 82.544996 230.130161 82.450398 
Q 229.185863 82.354824 228.497339 81.492955 
Q 227.707389 80.504124 228.046866 79.376978 
Q 228.387564 78.248856 229.825641 77.100016 
Q 231.175822 76.021393 232.491099 76.020589 
Q 233.806375 76.019786 234.668494 77.098954 
Q 234.900602 77.389499 235.079235 77.730764 
Q 235.257868 78.072029 235.400826 78.483792 
z
" clip-path="url(#p58e04be108)" style="fill: #cc4778; stroke: #ffffff; stroke-width: 5"/>
    <path d="M 223.99923 74.305287 
L 225.004709 75.56391 
L 229.35068 72.092031 
L 227.981778 70.941748 
L 228.683726 70.380981 
L 230.046777 71.52394 
L 230.662157 72.294251 
L 225.614238 76.326896 
L 226.619718 77.585519 
L 225.971484 78.103375 
L 223.350996 74.823143 
L 223.99923 74.305287 
z
M 231.762921 78.88417 
Q 231.348441 78.365339 230.750358 78.345162 
Q 230.154471 78.32523 229.536758 78.818705 
Q 228.922706 79.309254 228.806879 79.897754 
Q 228.693248 80.4865 229.107728 81.005331 
Q 229.522208 81.524162 230.120536 81.542143 
Q 230.720086 81.559149 231.334137 81.0686 
Q 231.951851 80.575125 232.064016 79.98955 
Q 232.177401 79.403 231.762921 78.88417 
z
M 235.400826 78.483792 
L 234.698878 79.044559 
Q 234.603497 78.644786 234.439513 78.291818 
Q 234.27675 77.937874 234.044641 77.647329 
Q 233.435112 76.884343 232.598112 76.89304 
Q 231.762087 76.902958 230.674927 77.677467 
Q 231.186424 77.636823 231.634555 77.834789 
Q 232.083662 78.033975 232.409395 78.441715 
Q 233.094993 79.299922 232.971621 80.21443 
Q 232.84947 81.127963 231.953419 81.843794 
Q 231.075679 82.544996 230.130161 82.450398 
Q 229.185863 82.354824 228.497339 81.492955 
Q 227.707389 80.504124 228.046866 79.376978 
Q 228.387564 78.248856 229.825641 77.100016 
Q 231.175822 76.021393 232.491099 76.020589 
Q 233.806375 76.019786 234.668494 77.098954 
Q 234.900602 77.389499 235.079235 77.730764 
Q 235.257868 78.072029 235.400826 78.483792 
z
" clip-path="url(#p58e04be108)" style="fill: #cc4778"/>
   </g>
   <g id="text_18">
    <path d="M 266.966077 63.320065 
Q 267.608789 63.653067 267.864988 64.220493 
Q 268.123105 64.786824 267.937529 65.465018 
Q 267.652979 66.504914 266.780811 66.880218 
Q 265.909057 67.254014 264.590347 66.893171 
Q 264.148768 66.772341 263.70398 66.556675 
Q 263.259192 66.34101 262.80818 66.029685 
L 263.059327 65.111863 
Q 263.39109 65.450496 263.829138 65.696715 
Q 264.268692 65.943347 264.782612 66.083973 
Q 265.67632 66.328521 266.241527 66.104115 
Q 266.806733 65.879708 266.991072 65.206036 
Q 267.16139 64.583605 266.821514 64.114777 
Q 266.482051 63.644443 265.705896 63.432061 
L 264.886036 63.20772 
L 265.100067 62.425537 
L 265.957605 62.660188 
Q 266.658405 62.85195 267.107362 62.673491 
Q 267.55632 62.495032 267.700657 61.967548 
Q 267.848706 61.4265 267.543575 61.031978 
Q 267.240364 60.636361 266.524494 60.440475 
Q 266.132649 60.333253 265.661535 60.296677 
Q 265.190833 60.258594 264.605645 60.28962 
L 264.837409 59.442632 
Q 265.421203 59.440383 265.91505 59.49452 
Q 266.408898 59.548656 266.827871 59.663301 
Q 267.911473 59.95981 268.406588 60.625011 
Q 268.903621 61.289116 268.674331 62.127062 
Q 268.514323 62.711815 268.069639 63.022659 
Q 267.624955 63.333503 266.966077 63.320065 
z
M 270.220972 67.426295 
L 273.541105 68.334794 
L 273.322125 69.135062 
L 268.858106 67.913558 
L 269.077086 67.113289 
Q 269.771543 66.700698 270.9641 66.012939 
Q 272.158577 65.324085 272.47326 65.115363 
Q 273.070124 64.727905 273.3483 64.421718 
Q 273.627983 64.115942 273.722008 63.772324 
Q 273.875418 63.211684 273.578565 62.75139 
Q 273.282125 62.289588 272.650652 62.116796 
Q 272.203044 61.994315 271.663226 62.013457 
Q 271.124915 62.033011 270.473152 62.194854 
L 270.736258 61.233327 
Q 271.373557 61.159862 271.904573 61.178811 
Q 272.437095 61.198171 272.851547 61.311579 
Q 273.944192 61.610563 274.444052 62.33538 
Q 274.944325 63.058689 274.694415 63.97199 
Q 274.575646 64.406033 274.306483 64.750326 
Q 274.039239 65.093524 273.465379 65.503476 
Q 273.310298 65.608455 272.500259 66.088236 
Q 271.691727 66.568429 270.220972 67.426295 
z
" clip-path="url(#p58e04be108)" style="fill: #e66c5c; stroke: #ffffff; stroke-width: 5"/>
    <path d="M 266.966077 63.320065 
Q 267.608789 63.653067 267.864988 64.220493 
Q 268.123105 64.786824 267.937529 65.465018 
Q 267.652979 66.504914 266.780811 66.880218 
Q 265.909057 67.254014 264.590347 66.893171 
Q 264.148768 66.772341 263.70398 66.556675 
Q 263.259192 66.34101 262.80818 66.029685 
L 263.059327 65.111863 
Q 263.39109 65.450496 263.829138 65.696715 
Q 264.268692 65.943347 264.782612 66.083973 
Q 265.67632 66.328521 266.241527 66.104115 
Q 266.806733 65.879708 266.991072 65.206036 
Q 267.16139 64.583605 266.821514 64.114777 
Q 266.482051 63.644443 265.705896 63.432061 
L 264.886036 63.20772 
L 265.100067 62.425537 
L 265.957605 62.660188 
Q 266.658405 62.85195 267.107362 62.673491 
Q 267.55632 62.495032 267.700657 61.967548 
Q 267.848706 61.4265 267.543575 61.031978 
Q 267.240364 60.636361 266.524494 60.440475 
Q 266.132649 60.333253 265.661535 60.296677 
Q 265.190833 60.258594 264.605645 60.28962 
L 264.837409 59.442632 
Q 265.421203 59.440383 265.91505 59.49452 
Q 266.408898 59.548656 266.827871 59.663301 
Q 267.911473 59.95981 268.406588 60.625011 
Q 268.903621 61.289116 268.674331 62.127062 
Q 268.514323 62.711815 268.069639 63.022659 
Q 267.624955 63.333503 266.966077 63.320065 
z
M 270.220972 67.426295 
L 273.541105 68.334794 
L 273.322125 69.135062 
L 268.858106 67.913558 
L 269.077086 67.113289 
Q 269.771543 66.700698 270.9641 66.012939 
Q 272.158577 65.324085 272.47326 65.115363 
Q 273.070124 64.727905 273.3483 64.421718 
Q 273.627983 64.115942 273.722008 63.772324 
Q 273.875418 63.211684 273.578565 62.75139 
Q 273.282125 62.289588 272.650652 62.116796 
Q 272.203044 61.994315 271.663226 62.013457 
Q 271.124915 62.033011 270.473152 62.194854 
L 270.736258 61.233327 
Q 271.373557 61.159862 271.904573 61.178811 
Q 272.437095 61.198171 272.851547 61.311579 
Q 273.944192 61.610563 274.444052 62.33538 
Q 274.944325 63.058689 274.694415 63.97199 
Q 274.575646 64.406033 274.306483 64.750326 
Q 274.039239 65.093524 273.465379 65.503476 
Q 273.310298 65.608455 272.500259 66.088236 
Q 271.691727 66.568429 270.220972 67.426295 
z
" clip-path="url(#p58e04be108)" style="fill: #e66c5c"/>
   </g>
   <g id="text_19">
    <path d="M 306.566799 100.986654 
Q 305.937852 100.77357 305.423463 101.079372 
Q 304.911056 101.384195 304.65736 102.133011 
Q 304.405169 102.877389 304.625275 103.435333 
Q 304.847363 103.992298 305.47631 104.205383 
Q 306.105257 104.418467 306.618667 104.110684 
Q 307.132579 103.801421 307.38477 103.057044 
Q 307.638465 102.308227 307.416855 101.754723 
Q 307.195746 101.199738 306.566799 100.986654 
z
M 309.413302 98.686204 
L 309.125012 99.537132 
Q 308.828956 99.252059 308.500407 99.043413 
Q 308.17236 98.833288 307.820149 98.713961 
Q 306.895227 98.400602 306.195289 98.859656 
Q 305.49683 99.319211 304.999603 100.55798 
Q 305.408274 100.247707 305.892379 100.172507 
Q 306.377963 100.097809 306.872241 100.265268 
Q 307.912594 100.617734 308.302296 101.454201 
Q 308.692499 102.289189 308.324491 103.375417 
Q 307.964003 104.439447 307.116958 104.870109 
Q 306.270415 105.29929 305.225623 104.94532 
Q 304.026924 104.539207 303.70439 103.407096 
Q 303.382356 102.273506 303.972975 100.530213 
Q 304.527495 98.893471 305.634334 98.182935 
Q 306.741173 97.472399 308.049382 97.915613 
Q 308.401592 98.03494 308.736158 98.225827 
Q 309.070723 98.416714 309.413302 98.686204 
z
M 313.813612 100.91444 
L 310.205768 103.801618 
L 312.564689 104.600808 
L 313.813612 100.91444 
z
M 313.843709 100.01728 
L 315.01873 100.415371 
L 313.49405 104.915671 
L 314.479647 105.249587 
L 314.216426 106.026521 
L 313.230829 105.692606 
L 312.679317 107.320468 
L 311.749956 107.005605 
L 312.301467 105.377743 
L 309.184851 104.321849 
L 309.490188 103.420605 
L 313.843709 100.01728 
z
" clip-path="url(#p58e04be108)" style="fill: #f89540; stroke: #ffffff; stroke-width: 5"/>
    <path d="M 306.566799 100.986654 
Q 305.937852 100.77357 305.423463 101.079372 
Q 304.911056 101.384195 304.65736 102.133011 
Q 304.405169 102.877389 304.625275 103.435333 
Q 304.847363 103.992298 305.47631 104.205383 
Q 306.105257 104.418467 306.618667 104.110684 
Q 307.132579 103.801421 307.38477 103.057044 
Q 307.638465 102.308227 307.416855 101.754723 
Q 307.195746 101.199738 306.566799 100.986654 
z
M 309.413302 98.686204 
L 309.125012 99.537132 
Q 308.828956 99.252059 308.500407 99.043413 
Q 308.17236 98.833288 307.820149 98.713961 
Q 306.895227 98.400602 306.195289 98.859656 
Q 305.49683 99.319211 304.999603 100.55798 
Q 305.408274 100.247707 305.892379 100.172507 
Q 306.377963 100.097809 306.872241 100.265268 
Q 307.912594 100.617734 308.302296 101.454201 
Q 308.692499 102.289189 308.324491 103.375417 
Q 307.964003 104.439447 307.116958 104.870109 
Q 306.270415 105.29929 305.225623 104.94532 
Q 304.026924 104.539207 303.70439 103.407096 
Q 303.382356 102.273506 303.972975 100.530213 
Q 304.527495 98.893471 305.634334 98.182935 
Q 306.741173 97.472399 308.049382 97.915613 
Q 308.401592 98.03494 308.736158 98.225827 
Q 309.070723 98.416714 309.413302 98.686204 
z
M 313.813612 100.91444 
L 310.205768 103.801618 
L 312.564689 104.600808 
L 313.813612 100.91444 
z
M 313.843709 100.01728 
L 315.01873 100.415371 
L 313.49405 104.915671 
L 314.479647 105.249587 
L 314.216426 106.026521 
L 313.230829 105.692606 
L 312.679317 107.320468 
L 311.749956 107.005605 
L 312.301467 105.377743 
L 309.184851 104.321849 
L 309.490188 103.420605 
L 313.843709 100.01728 
z
" clip-path="url(#p58e04be108)" style="fill: #f89540"/>
   </g>
   <g id="text_20">
    <path d="M 341.76578 181.136829 
L 342.964074 182.213496 
L 346.681762 178.07584 
L 345.142736 177.165651 
L 345.743206 176.497349 
L 347.275257 177.401273 
L 348.008645 178.060223 
L 343.690488 182.86618 
L 344.888781 183.942848 
L 344.334261 184.56001 
L 341.21126 181.753991 
L 341.76578 181.136829 
z
M 347.002793 185.842289 
L 349.563258 188.142869 
L 349.008738 188.760031 
L 345.566115 185.666831 
L 346.120635 185.049669 
Q 346.926365 184.992209 348.300696 184.912095 
Q 349.677234 184.831863 350.052096 184.786374 
Q 350.759321 184.707626 351.145246 184.558647 
Q 351.532334 184.410712 351.770433 184.145716 
Q 352.15891 183.713355 352.099925 183.168824 
Q 352.041983 182.623132 351.554995 182.185572 
Q 351.209803 181.875417 350.718694 181.650513 
Q 350.228747 181.426653 349.573596 181.279118 
L 350.239856 180.537594 
Q 350.842455 180.757644 351.308619 181.012649 
Q 351.775946 181.268698 352.095568 181.555879 
Q 352.938209 182.312992 353.060065 183.184985 
Q 353.182966 184.055815 352.550124 184.760146 
Q 352.249367 185.094878 351.854415 185.281958 
Q 351.461669 185.46892 350.764921 185.578088 
Q 350.579233 185.602399 349.640066 185.6681 
Q 348.70206 185.734845 347.002793 185.842289 
z
M 354.431803 188.977813 
Q 353.908784 188.507881 353.357245 188.518558 
Q 352.806869 188.53028 352.367221 189.019593 
Q 351.926529 189.510068 351.973555 190.058557 
Q 352.021744 190.60809 352.544763 191.078023 
Q 353.067781 191.547955 353.621526 191.53716 
Q 354.177478 191.526246 354.615038 191.039258 
Q 355.054686 190.549945 355.006497 190.000412 
Q 354.95947 189.451923 354.431803 188.977813 
z
M 353.978286 188.007377 
Q 353.610836 187.467167 353.637316 186.907003 
Q 353.666003 186.346721 354.083721 185.881816 
Q 354.667481 185.232111 355.469458 185.270005 
Q 356.272596 185.308943 357.078045 186.032639 
Q 357.888142 186.760512 358.010165 187.552832 
Q 358.132188 188.345153 357.548427 188.994858 
Q 357.130709 189.459763 356.575517 189.546979 
Q 356.022532 189.634078 355.449711 189.329454 
Q 355.869007 189.928852 355.840491 190.554404 
Q 355.814181 191.179838 355.348426 191.698208 
Q 354.63935 192.487384 353.779094 192.476948 
Q 352.919883 192.465349 352.022615 191.659154 
Q 351.126511 190.854003 351.022206 189.999882 
Q 350.920108 189.145642 351.629184 188.356466 
Q 352.094939 187.838096 352.715165 187.746296 
Q 353.337598 187.654379 353.978286 188.007377 
z
M 354.750964 186.607369 
Q 354.37293 187.028108 354.423609 187.500058 
Q 354.475451 187.973052 354.950817 188.400168 
Q 355.423858 188.825196 355.902008 188.8284 
Q 356.38132 188.832649 356.759355 188.411909 
Q 357.138434 187.990008 357.083105 187.513881 
Q 357.028939 187.038798 356.555897 186.61377 
Q 356.080532 186.186654 355.604706 186.185538 
Q 355.130043 186.185467 354.750964 186.607369 
z
" clip-path="url(#p58e04be108)" style="fill: #fdc527; stroke: #ffffff; stroke-width: 5"/>
    <path d="M 341.76578 181.136829 
L 342.964074 182.213496 
L 346.681762 178.07584 
L 345.142736 177.165651 
L 345.743206 176.497349 
L 347.275257 177.401273 
L 348.008645 178.060223 
L 343.690488 182.86618 
L 344.888781 183.942848 
L 344.334261 184.56001 
L 341.21126 181.753991 
L 341.76578 181.136829 
z
M 347.002793 185.842289 
L 349.563258 188.142869 
L 349.008738 188.760031 
L 345.566115 185.666831 
L 346.120635 185.049669 
Q 346.926365 184.992209 348.300696 184.912095 
Q 349.677234 184.831863 350.052096 184.786374 
Q 350.759321 184.707626 351.145246 184.558647 
Q 351.532334 184.410712 351.770433 184.145716 
Q 352.15891 183.713355 352.099925 183.168824 
Q 352.041983 182.623132 351.554995 182.185572 
Q 351.209803 181.875417 350.718694 181.650513 
Q 350.228747 181.426653 349.573596 181.279118 
L 350.239856 180.537594 
Q 350.842455 180.757644 351.308619 181.012649 
Q 351.775946 181.268698 352.095568 181.555879 
Q 352.938209 182.312992 353.060065 183.184985 
Q 353.182966 184.055815 352.550124 184.760146 
Q 352.249367 185.094878 351.854415 185.281958 
Q 351.461669 185.46892 350.764921 185.578088 
Q 350.579233 185.602399 349.640066 185.6681 
Q 348.70206 185.734845 347.002793 185.842289 
z
M 354.431803 188.977813 
Q 353.908784 188.507881 353.357245 188.518558 
Q 352.806869 188.53028 352.367221 189.019593 
Q 351.926529 189.510068 351.973555 190.058557 
Q 352.021744 190.60809 352.544763 191.078023 
Q 353.067781 191.547955 353.621526 191.53716 
Q 354.177478 191.526246 354.615038 191.039258 
Q 355.054686 190.549945 355.006497 190.000412 
Q 354.95947 189.451923 354.431803 188.977813 
z
M 353.978286 188.007377 
Q 353.610836 187.467167 353.637316 186.907003 
Q 353.666003 186.346721 354.083721 185.881816 
Q 354.667481 185.232111 355.469458 185.270005 
Q 356.272596 185.308943 357.078045 186.032639 
Q 357.888142 186.760512 358.010165 187.552832 
Q 358.132188 188.345153 357.548427 188.994858 
Q 357.130709 189.459763 356.575517 189.546979 
Q 356.022532 189.634078 355.449711 189.329454 
Q 355.869007 189.928852 355.840491 190.554404 
Q 355.814181 191.179838 355.348426 191.698208 
Q 354.63935 192.487384 353.779094 192.476948 
Q 352.919883 192.465349 352.022615 191.659154 
Q 351.126511 190.854003 351.022206 189.999882 
Q 350.920108 189.145642 351.629184 188.356466 
Q 352.094939 187.838096 352.715165 187.746296 
Q 353.337598 187.654379 353.978286 188.007377 
z
M 354.750964 186.607369 
Q 354.37293 187.028108 354.423609 187.500058 
Q 354.475451 187.973052 354.950817 188.400168 
Q 355.423858 188.825196 355.902008 188.8284 
Q 356.38132 188.832649 356.759355 188.411909 
Q 357.138434 187.990008 357.083105 187.513881 
Q 357.028939 187.038798 356.555897 186.61377 
Q 356.080532 186.186654 355.604706 186.185538 
Q 355.130043 186.185467 354.750964 186.607369 
z
" clip-path="url(#p58e04be108)" style="fill: #fdc527"/>
   </g>
   <g id="patch_3">
    <path d="M 50.14375 301.735725 
L 50.14375 35.623725 
" style="fill: none; stroke: #cccccc; stroke-width: 0.8; stroke-linejoin: miter; stroke-linecap: square"/>
   </g>
   <g id="patch_4">
    <path d="M 407.26375 301.735725 
L 407.26375 35.623725 
" style="fill: none; stroke: #cccccc; stroke-width: 0.8; stroke-linejoin: miter; stroke-linecap: square"/>
   </g>
   <g id="patch_5">
    <path d="M 50.14375 301.735725 
L 407.26375 301.735725 
" style="fill: none; stroke: #cccccc; stroke-width: 0.8; stroke-linejoin: miter; stroke-linecap: square"/>
   </g>
   <g id="patch_6">
    <path d="M 50.14375 35.623725 
L 407.26375 35.623725 
" style="fill: none; stroke: #cccccc; stroke-width: 0.8; stroke-linejoin: miter; stroke-linecap: square"/>
   </g>
   <g id="text_21">
    <!-- Block Size = 4K, Read-Write Type = Random Write-heavy 1:4 -->
    <g style="fill: #262626; opacity: 0.75" transform="translate(76.357656 30.882918) scale(0.1 -0.1)">
     <defs>
      <path id="DejaVuSans-6c" d="M 603 4863 
L 1178 4863 
L 1178 0 
L 603 0 
L 603 4863 
z
" transform="scale(0.015625)"/>
      <path id="DejaVuSans-63" d="M 3122 3366 
L 3122 2828 
Q 2878 2963 2633 3030 
Q 2388 3097 2138 3097 
Q 1578 3097 1268 2742 
Q 959 2388 959 1747 
Q 959 1106 1268 751 
Q 1578 397 2138 397 
Q 2388 397 2633 464 
Q 2878 531 3122 666 
L 3122 134 
Q 2881 22 2623 -34 
Q 2366 -91 2075 -91 
Q 1284 -91 818 406 
Q 353 903 353 1747 
Q 353 2603 823 3093 
Q 1294 3584 2113 3584 
Q 2378 3584 2631 3529 
Q 2884 3475 3122 3366 
z
" transform="scale(0.015625)"/>
      <path id="DejaVuSans-6b" d="M 581 4863 
L 1159 4863 
L 1159 1991 
L 2875 3500 
L 3609 3500 
L 1753 1863 
L 3688 0 
L 2938 0 
L 1159 1709 
L 1159 0 
L 581 0 
L 581 4863 
z
" transform="scale(0.015625)"/>
      <path id="DejaVuSans-53" d="M 3425 4513 
L 3425 3897 
Q 3066 4069 2747 4153 
Q 2428 4238 2131 4238 
Q 1616 4238 1336 4038 
Q 1056 3838 1056 3469 
Q 1056 3159 1242 3001 
Q 1428 2844 1947 2747 
L 2328 2669 
Q 3034 2534 3370 2195 
Q 3706 1856 3706 1288 
Q 3706 609 3251 259 
Q 2797 -91 1919 -91 
Q 1588 -91 1214 -16 
Q 841 59 441 206 
L 441 856 
Q 825 641 1194 531 
Q 1563 422 1919 422 
Q 2459 422 2753 634 
Q 3047 847 3047 1241 
Q 3047 1584 2836 1778 
Q 2625 1972 2144 2069 
L 1759 2144 
Q 1053 2284 737 2584 
Q 422 2884 422 3419 
Q 422 4038 858 4394 
Q 1294 4750 2059 4750 
Q 2388 4750 2728 4690 
Q 3069 4631 3425 4513 
z
" transform="scale(0.015625)"/>
      <path id="DejaVuSans-7a" d="M 353 3500 
L 3084 3500 
L 3084 2975 
L 922 459 
L 3084 459 
L 3084 0 
L 275 0 
L 275 525 
L 2438 3041 
L 353 3041 
L 353 3500 
z
" transform="scale(0.015625)"/>
      <path id="DejaVuSans-3d" d="M 678 2906 
L 4684 2906 
L 4684 2381 
L 678 2381 
L 678 2906 
z
M 678 1631 
L 4684 1631 
L 4684 1100 
L 678 1100 
L 678 1631 
z
" transform="scale(0.015625)"/>
      <path id="DejaVuSans-4b" d="M 628 4666 
L 1259 4666 
L 1259 2694 
L 3353 4666 
L 4166 4666 
L 1850 2491 
L 4331 0 
L 3500 0 
L 1259 2247 
L 1259 0 
L 628 0 
L 628 4666 
z
" transform="scale(0.015625)"/>
      <path id="DejaVuSans-2c" d="M 750 794 
L 1409 794 
L 1409 256 
L 897 -744 
L 494 -744 
L 750 256 
L 750 794 
z
" transform="scale(0.015625)"/>
      <path id="DejaVuSans-52" d="M 2841 2188 
Q 3044 2119 3236 1894 
Q 3428 1669 3622 1275 
L 4263 0 
L 3584 0 
L 2988 1197 
Q 2756 1666 2539 1819 
Q 2322 1972 1947 1972 
L 1259 1972 
L 1259 0 
L 628 0 
L 628 4666 
L 2053 4666 
Q 2853 4666 3247 4331 
Q 3641 3997 3641 3322 
Q 3641 2881 3436 2590 
Q 3231 2300 2841 2188 
z
M 1259 4147 
L 1259 2491 
L 2053 2491 
Q 2509 2491 2742 2702 
Q 2975 2913 2975 3322 
Q 2975 3731 2742 3939 
Q 2509 4147 2053 4147 
L 1259 4147 
z
" transform="scale(0.015625)"/>
      <path id="DejaVuSans-2d" d="M 313 2009 
L 1997 2009 
L 1997 1497 
L 313 1497 
L 313 2009 
z
" transform="scale(0.015625)"/>
      <path id="DejaVuSans-57" d="M 213 4666 
L 850 4666 
L 1831 722 
L 2809 4666 
L 3519 4666 
L 4500 722 
L 5478 4666 
L 6119 4666 
L 4947 0 
L 4153 0 
L 3169 4050 
L 2175 0 
L 1381 0 
L 213 4666 
z
" transform="scale(0.015625)"/>
      <path id="DejaVuSans-54" d="M -19 4666 
L 3928 4666 
L 3928 4134 
L 2272 4134 
L 2272 0 
L 1638 0 
L 1638 4134 
L -19 4134 
L -19 4666 
z
" transform="scale(0.015625)"/>
      <path id="DejaVuSans-79" d="M 2059 -325 
Q 1816 -950 1584 -1140 
Q 1353 -1331 966 -1331 
L 506 -1331 
L 506 -850 
L 844 -850 
Q 1081 -850 1212 -737 
Q 1344 -625 1503 -206 
L 1606 56 
L 191 3500 
L 800 3500 
L 1894 763 
L 2988 3500 
L 3597 3500 
L 2059 -325 
z
" transform="scale(0.015625)"/>
      <path id="DejaVuSans-70" d="M 1159 525 
L 1159 -1331 
L 581 -1331 
L 581 3500 
L 1159 3500 
L 1159 2969 
Q 1341 3281 1617 3432 
Q 1894 3584 2278 3584 
Q 2916 3584 3314 3078 
Q 3713 2572 3713 1747 
Q 3713 922 3314 415 
Q 2916 -91 2278 -91 
Q 1894 -91 1617 61 
Q 1341 213 1159 525 
z
M 3116 1747 
Q 3116 2381 2855 2742 
Q 2594 3103 2138 3103 
Q 1681 3103 1420 2742 
Q 1159 2381 1159 1747 
Q 1159 1113 1420 752 
Q 1681 391 2138 391 
Q 2594 391 2855 752 
Q 3116 1113 3116 1747 
z
" transform="scale(0.015625)"/>
      <path id="DejaVuSans-76" d="M 191 3500 
L 800 3500 
L 1894 563 
L 2988 3500 
L 3597 3500 
L 2284 0 
L 1503 0 
L 191 3500 
z
" transform="scale(0.015625)"/>
      <path id="DejaVuSans-3a" d="M 750 794 
L 1409 794 
L 1409 0 
L 750 0 
L 750 794 
z
M 750 3309 
L 1409 3309 
L 1409 2516 
L 750 2516 
L 750 3309 
z
" transform="scale(0.015625)"/>
     </defs>
     <use xlink:href="#DejaVuSans-42"/>
     <use xlink:href="#DejaVuSans-6c" transform="translate(68.603516 0)"/>
     <use xlink:href="#DejaVuSans-6f" transform="translate(96.386719 0)"/>
     <use xlink:href="#DejaVuSans-63" transform="translate(157.568359 0)"/>
     <use xlink:href="#DejaVuSans-6b" transform="translate(212.548828 0)"/>
     <use xlink:href="#DejaVuSans-20" transform="translate(270.458984 0)"/>
     <use xlink:href="#DejaVuSans-53" transform="translate(302.246094 0)"/>
     <use xlink:href="#DejaVuSans-69" transform="translate(365.722656 0)"/>
     <use xlink:href="#DejaVuSans-7a" transform="translate(393.505859 0)"/>
     <use xlink:href="#DejaVuSans-65" transform="translate(445.996094 0)"/>
     <use xlink:href="#DejaVuSans-20" transform="translate(507.519531 0)"/>
     <use xlink:href="#DejaVuSans-3d" transform="translate(539.306641 0)"/>
     <use xlink:href="#DejaVuSans-20" transform="translate(623.095703 0)"/>
     <use xlink:href="#DejaVuSans-34" transform="translate(654.882812 0)"/>
     <use xlink:href="#DejaVuSans-4b" transform="translate(718.505859 0)"/>
     <use xlink:href="#DejaVuSans-2c" transform="translate(784.082031 0)"/>
     <use xlink:href="#DejaVuSans-20" transform="translate(815.869141 0)"/>
     <use xlink:href="#DejaVuSans-52" transform="translate(847.65625 0)"/>
     <use xlink:href="#DejaVuSans-65" transform="translate(912.638672 0)"/>
     <use xlink:href="#DejaVuSans-61" transform="translate(974.162109 0)"/>
     <use xlink:href="#DejaVuSans-64" transform="translate(1035.441406 0)"/>
     <use xlink:href="#DejaVuSans-2d" transform="translate(1098.917969 0)"/>
     <use xlink:href="#DejaVuSans-57" transform="translate(1131.001953 0)"/>
     <use xlink:href="#DejaVuSans-72" transform="translate(1225.378906 0)"/>
     <use xlink:href="#DejaVuSans-69" transform="translate(1266.492188 0)"/>
     <use xlink:href="#DejaVuSans-74" transform="translate(1294.275391 0)"/>
     <use xlink:href="#DejaVuSans-65" transform="translate(1333.484375 0)"/>
     <use xlink:href="#DejaVuSans-20" transform="translate(1395.007812 0)"/>
     <use xlink:href="#DejaVuSans-54" transform="translate(1426.794922 0)"/>
     <use xlink:href="#DejaVuSans-79" transform="translate(1472.253906 0)"/>
     <use xlink:href="#DejaVuSans-70" transform="translate(1531.433594 0)"/>
     <use xlink:href="#DejaVuSans-65" transform="translate(1594.910156 0)"/>
     <use xlink:href="#DejaVuSans-20" transform="translate(1656.433594 0)"/>
     <use xlink:href="#DejaVuSans-3d" transform="translate(1688.220703 0)"/>
     <use xlink:href="#DejaVuSans-20" transform="translate(1772.009766 0)"/>
     <use xlink:href="#DejaVuSans-52" transform="translate(1803.796875 0)"/>
     <use xlink:href="#DejaVuSans-61" transform="translate(1871.029297 0)"/>
     <use xlink:href="#DejaVuSans-6e" transform="translate(1932.308594 0)"/>
     <use xlink:href="#DejaVuSans-64" transform="translate(1995.6875 0)"/>
     <use xlink:href="#DejaVuSans-6f" transform="translate(2059.164062 0)"/>
     <use xlink:href="#DejaVuSans-6d" transform="translate(2120.345703 0)"/>
     <use xlink:href="#DejaVuSans-20" transform="translate(2217.757812 0)"/>
     <use xlink:href="#DejaVuSans-57" transform="translate(2249.544922 0)"/>
     <use xlink:href="#DejaVuSans-72" transform="translate(2343.921875 0)"/>
     <use xlink:href="#DejaVuSans-69" transform="translate(2385.035156 0)"/>
     <use xlink:href="#DejaVuSans-74" transform="translate(2412.818359 0)"/>
     <use xlink:href="#DejaVuSans-65" transform="translate(2452.027344 0)"/>
     <use xlink:href="#DejaVuSans-2d" transform="translate(2513.550781 0)"/>
     <use xlink:href="#DejaVuSans-68" transform="translate(2549.634766 0)"/>
     <use xlink:href="#DejaVuSans-65" transform="translate(2613.013672 0)"/>
     <use xlink:href="#DejaVuSans-61" transform="translate(2674.537109 0)"/>
     <use xlink:href="#DejaVuSans-76" transform="translate(2735.816406 0)"/>
     <use xlink:href="#DejaVuSans-79" transform="translate(2794.996094 0)"/>
     <use xlink:href="#DejaVuSans-20" transform="translate(2854.175781 0)"/>
     <use xlink:href="#DejaVuSans-31" transform="translate(2885.962891 0)"/>
     <use xlink:href="#DejaVuSans-3a" transform="translate(2949.585938 0)"/>
     <use xlink:href="#DejaVuSans-34" transform="translate(2983.277344 0)"/>
    </g>
   </g>
   <g id="text_22">
    <!-- Mean Bandwidth vs Number of Jobs -->
    <g style="fill: #262626" transform="translate(108.374688 16.318125) scale(0.12 -0.12)">
     <defs>
      <path id="DejaVuSans-Bold-4d" d="M 588 4666 
L 2119 4666 
L 3181 2169 
L 4250 4666 
L 5778 4666 
L 5778 0 
L 4641 0 
L 4641 3413 
L 3566 897 
L 2803 897 
L 1728 3413 
L 1728 0 
L 588 0 
L 588 4666 
z
" transform="scale(0.015625)"/>
      <path id="DejaVuSans-Bold-65" d="M 4031 1759 
L 4031 1441 
L 1416 1441 
Q 1456 1047 1700 850 
Q 1944 653 2381 653 
Q 2734 653 3104 758 
Q 3475 863 3866 1075 
L 3866 213 
Q 3469 63 3072 -14 
Q 2675 -91 2278 -91 
Q 1328 -91 801 392 
Q 275 875 275 1747 
Q 275 2603 792 3093 
Q 1309 3584 2216 3584 
Q 3041 3584 3536 3087 
Q 4031 2591 4031 1759 
z
M 2881 2131 
Q 2881 2450 2695 2645 
Q 2509 2841 2209 2841 
Q 1884 2841 1681 2658 
Q 1478 2475 1428 2131 
L 2881 2131 
z
" transform="scale(0.015625)"/>
      <path id="DejaVuSans-Bold-61" d="M 2106 1575 
Q 1756 1575 1579 1456 
Q 1403 1338 1403 1106 
Q 1403 894 1545 773 
Q 1688 653 1941 653 
Q 2256 653 2472 879 
Q 2688 1106 2688 1447 
L 2688 1575 
L 2106 1575 
z
M 3816 1997 
L 3816 0 
L 2688 0 
L 2688 519 
Q 2463 200 2181 54 
Q 1900 -91 1497 -91 
Q 953 -91 614 226 
Q 275 544 275 1050 
Q 275 1666 698 1953 
Q 1122 2241 2028 2241 
L 2688 2241 
L 2688 2328 
Q 2688 2594 2478 2717 
Q 2269 2841 1825 2841 
Q 1466 2841 1156 2769 
Q 847 2697 581 2553 
L 581 3406 
Q 941 3494 1303 3539 
Q 1666 3584 2028 3584 
Q 2975 3584 3395 3211 
Q 3816 2838 3816 1997 
z
" transform="scale(0.015625)"/>
      <path id="DejaVuSans-Bold-6e" d="M 4056 2131 
L 4056 0 
L 2931 0 
L 2931 347 
L 2931 1631 
Q 2931 2084 2911 2256 
Q 2891 2428 2841 2509 
Q 2775 2619 2662 2680 
Q 2550 2741 2406 2741 
Q 2056 2741 1856 2470 
Q 1656 2200 1656 1722 
L 1656 0 
L 538 0 
L 538 3500 
L 1656 3500 
L 1656 2988 
Q 1909 3294 2193 3439 
Q 2478 3584 2822 3584 
Q 3428 3584 3742 3212 
Q 4056 2841 4056 2131 
z
" transform="scale(0.015625)"/>
      <path id="DejaVuSans-Bold-20" transform="scale(0.015625)"/>
      <path id="DejaVuSans-Bold-42" d="M 2456 2859 
Q 2741 2859 2887 2984 
Q 3034 3109 3034 3353 
Q 3034 3594 2887 3720 
Q 2741 3847 2456 3847 
L 1791 3847 
L 1791 2859 
L 2456 2859 
z
M 2497 819 
Q 2859 819 3042 972 
Q 3225 1125 3225 1434 
Q 3225 1738 3044 1889 
Q 2863 2041 2497 2041 
L 1791 2041 
L 1791 819 
L 2497 819 
z
M 3616 2497 
Q 4003 2384 4215 2081 
Q 4428 1778 4428 1338 
Q 4428 663 3972 331 
Q 3516 0 2584 0 
L 588 0 
L 588 4666 
L 2394 4666 
Q 3366 4666 3802 4372 
Q 4238 4078 4238 3431 
Q 4238 3091 4078 2852 
Q 3919 2613 3616 2497 
z
" transform="scale(0.015625)"/>
      <path id="DejaVuSans-Bold-64" d="M 2919 2988 
L 2919 4863 
L 4044 4863 
L 4044 0 
L 2919 0 
L 2919 506 
Q 2688 197 2409 53 
Q 2131 -91 1766 -91 
Q 1119 -91 703 423 
Q 288 938 288 1747 
Q 288 2556 703 3070 
Q 1119 3584 1766 3584 
Q 2128 3584 2408 3439 
Q 2688 3294 2919 2988 
z
M 2181 722 
Q 2541 722 2730 984 
Q 2919 1247 2919 1747 
Q 2919 2247 2730 2509 
Q 2541 2772 2181 2772 
Q 1825 2772 1636 2509 
Q 1447 2247 1447 1747 
Q 1447 1247 1636 984 
Q 1825 722 2181 722 
z
" transform="scale(0.015625)"/>
      <path id="DejaVuSans-Bold-77" d="M 225 3500 
L 1313 3500 
L 1900 1088 
L 2491 3500 
L 3425 3500 
L 4013 1113 
L 4603 3500 
L 5691 3500 
L 4769 0 
L 3547 0 
L 2956 2406 
L 2369 0 
L 1147 0 
L 225 3500 
z
" transform="scale(0.015625)"/>
      <path id="DejaVuSans-Bold-69" d="M 538 3500 
L 1656 3500 
L 1656 0 
L 538 0 
L 538 3500 
z
M 538 4863 
L 1656 4863 
L 1656 3950 
L 538 3950 
L 538 4863 
z
" transform="scale(0.015625)"/>
      <path id="DejaVuSans-Bold-74" d="M 1759 4494 
L 1759 3500 
L 2913 3500 
L 2913 2700 
L 1759 2700 
L 1759 1216 
Q 1759 972 1856 886 
Q 1953 800 2241 800 
L 2816 800 
L 2816 0 
L 1856 0 
Q 1194 0 917 276 
Q 641 553 641 1216 
L 641 2700 
L 84 2700 
L 84 3500 
L 641 3500 
L 641 4494 
L 1759 4494 
z
" transform="scale(0.015625)"/>
      <path id="DejaVuSans-Bold-68" d="M 4056 2131 
L 4056 0 
L 2931 0 
L 2931 347 
L 2931 1625 
Q 2931 2084 2911 2256 
Q 2891 2428 2841 2509 
Q 2775 2619 2662 2680 
Q 2550 2741 2406 2741 
Q 2056 2741 1856 2470 
Q 1656 2200 1656 1722 
L 1656 0 
L 538 0 
L 538 4863 
L 1656 4863 
L 1656 2988 
Q 1909 3294 2193 3439 
Q 2478 3584 2822 3584 
Q 3428 3584 3742 3212 
Q 4056 2841 4056 2131 
z
" transform="scale(0.015625)"/>
      <path id="DejaVuSans-Bold-76" d="M 97 3500 
L 1216 3500 
L 2088 1081 
L 2956 3500 
L 4078 3500 
L 2700 0 
L 1472 0 
L 97 3500 
z
" transform="scale(0.015625)"/>
      <path id="DejaVuSans-Bold-73" d="M 3272 3391 
L 3272 2541 
Q 2913 2691 2578 2766 
Q 2244 2841 1947 2841 
Q 1628 2841 1473 2761 
Q 1319 2681 1319 2516 
Q 1319 2381 1436 2309 
Q 1553 2238 1856 2203 
L 2053 2175 
Q 2913 2066 3209 1816 
Q 3506 1566 3506 1031 
Q 3506 472 3093 190 
Q 2681 -91 1863 -91 
Q 1516 -91 1145 -36 
Q 775 19 384 128 
L 384 978 
Q 719 816 1070 734 
Q 1422 653 1784 653 
Q 2113 653 2278 743 
Q 2444 834 2444 1013 
Q 2444 1163 2330 1236 
Q 2216 1309 1875 1350 
L 1678 1375 
Q 931 1469 631 1722 
Q 331 1975 331 2491 
Q 331 3047 712 3315 
Q 1094 3584 1881 3584 
Q 2191 3584 2531 3537 
Q 2872 3491 3272 3391 
z
" transform="scale(0.015625)"/>
      <path id="DejaVuSans-Bold-4e" d="M 588 4666 
L 1931 4666 
L 3628 1466 
L 3628 4666 
L 4769 4666 
L 4769 0 
L 3425 0 
L 1728 3200 
L 1728 0 
L 588 0 
L 588 4666 
z
" transform="scale(0.015625)"/>
      <path id="DejaVuSans-Bold-75" d="M 500 1363 
L 500 3500 
L 1625 3500 
L 1625 3150 
Q 1625 2866 1622 2436 
Q 1619 2006 1619 1863 
Q 1619 1441 1641 1255 
Q 1663 1069 1716 984 
Q 1784 875 1895 815 
Q 2006 756 2150 756 
Q 2500 756 2700 1025 
Q 2900 1294 2900 1772 
L 2900 3500 
L 4019 3500 
L 4019 0 
L 2900 0 
L 2900 506 
Q 2647 200 2364 54 
Q 2081 -91 1741 -91 
Q 1134 -91 817 281 
Q 500 653 500 1363 
z
" transform="scale(0.015625)"/>
      <path id="DejaVuSans-Bold-6d" d="M 3781 2919 
Q 3994 3244 4286 3414 
Q 4578 3584 4928 3584 
Q 5531 3584 5847 3212 
Q 6163 2841 6163 2131 
L 6163 0 
L 5038 0 
L 5038 1825 
Q 5041 1866 5042 1909 
Q 5044 1953 5044 2034 
Q 5044 2406 4934 2573 
Q 4825 2741 4581 2741 
Q 4263 2741 4089 2478 
Q 3916 2216 3909 1719 
L 3909 0 
L 2784 0 
L 2784 1825 
Q 2784 2406 2684 2573 
Q 2584 2741 2328 2741 
Q 2006 2741 1831 2477 
Q 1656 2213 1656 1722 
L 1656 0 
L 531 0 
L 531 3500 
L 1656 3500 
L 1656 2988 
Q 1863 3284 2130 3434 
Q 2397 3584 2719 3584 
Q 3081 3584 3359 3409 
Q 3638 3234 3781 2919 
z
" transform="scale(0.015625)"/>
      <path id="DejaVuSans-Bold-62" d="M 2400 722 
Q 2759 722 2948 984 
Q 3138 1247 3138 1747 
Q 3138 2247 2948 2509 
Q 2759 2772 2400 2772 
Q 2041 2772 1848 2508 
Q 1656 2244 1656 1747 
Q 1656 1250 1848 986 
Q 2041 722 2400 722 
z
M 1656 2988 
Q 1888 3294 2169 3439 
Q 2450 3584 2816 3584 
Q 3463 3584 3878 3070 
Q 4294 2556 4294 1747 
Q 4294 938 3878 423 
Q 3463 -91 2816 -91 
Q 2450 -91 2169 54 
Q 1888 200 1656 506 
L 1656 0 
L 538 0 
L 538 4863 
L 1656 4863 
L 1656 2988 
z
" transform="scale(0.015625)"/>
      <path id="DejaVuSans-Bold-72" d="M 3138 2547 
Q 2991 2616 2845 2648 
Q 2700 2681 2553 2681 
Q 2122 2681 1889 2404 
Q 1656 2128 1656 1613 
L 1656 0 
L 538 0 
L 538 3500 
L 1656 3500 
L 1656 2925 
Q 1872 3269 2151 3426 
Q 2431 3584 2822 3584 
Q 2878 3584 2943 3579 
Q 3009 3575 3134 3559 
L 3138 2547 
z
" transform="scale(0.015625)"/>
      <path id="DejaVuSans-Bold-6f" d="M 2203 2784 
Q 1831 2784 1636 2517 
Q 1441 2250 1441 1747 
Q 1441 1244 1636 976 
Q 1831 709 2203 709 
Q 2569 709 2762 976 
Q 2956 1244 2956 1747 
Q 2956 2250 2762 2517 
Q 2569 2784 2203 2784 
z
M 2203 3584 
Q 3106 3584 3614 3096 
Q 4122 2609 4122 1747 
Q 4122 884 3614 396 
Q 3106 -91 2203 -91 
Q 1297 -91 786 396 
Q 275 884 275 1747 
Q 275 2609 786 3096 
Q 1297 3584 2203 3584 
z
" transform="scale(0.015625)"/>
      <path id="DejaVuSans-Bold-66" d="M 2841 4863 
L 2841 4128 
L 2222 4128 
Q 1984 4128 1890 4042 
Q 1797 3956 1797 3744 
L 1797 3500 
L 2753 3500 
L 2753 2700 
L 1797 2700 
L 1797 0 
L 678 0 
L 678 2700 
L 122 2700 
L 122 3500 
L 678 3500 
L 678 3744 
Q 678 4316 997 4589 
Q 1316 4863 1984 4863 
L 2841 4863 
z
" transform="scale(0.015625)"/>
      <path id="DejaVuSans-Bold-4a" d="M 588 4666 
L 1791 4666 
L 1791 453 
Q 1791 -419 1317 -850 
Q 844 -1281 -116 -1281 
L -359 -1281 
L -359 -372 
L -172 -372 
Q 203 -372 395 -162 
Q 588 47 588 453 
L 588 4666 
z
" transform="scale(0.015625)"/>
     </defs>
     <use xlink:href="#DejaVuSans-Bold-4d"/>
     <use xlink:href="#DejaVuSans-Bold-65" transform="translate(99.511719 0)"/>
     <use xlink:href="#DejaVuSans-Bold-61" transform="translate(167.333984 0)"/>
     <use xlink:href="#DejaVuSans-Bold-6e" transform="translate(234.814453 0)"/>
     <use xlink:href="#DejaVuSans-Bold-20" transform="translate(306.005859 0)"/>
     <use xlink:href="#DejaVuSans-Bold-42" transform="translate(340.820312 0)"/>
     <use xlink:href="#DejaVuSans-Bold-61" transform="translate(417.041016 0)"/>
     <use xlink:href="#DejaVuSans-Bold-6e" transform="translate(484.521484 0)"/>
     <use xlink:href="#DejaVuSans-Bold-64" transform="translate(555.712891 0)"/>
     <use xlink:href="#DejaVuSans-Bold-77" transform="translate(627.294922 0)"/>
     <use xlink:href="#DejaVuSans-Bold-69" transform="translate(719.677734 0)"/>
     <use xlink:href="#DejaVuSans-Bold-64" transform="translate(753.955078 0)"/>
     <use xlink:href="#DejaVuSans-Bold-74" transform="translate(825.537109 0)"/>
     <use xlink:href="#DejaVuSans-Bold-68" transform="translate(873.339844 0)"/>
     <use xlink:href="#DejaVuSans-Bold-20" transform="translate(944.53125 0)"/>
     <use xlink:href="#DejaVuSans-Bold-76" transform="translate(979.345703 0)"/>
     <use xlink:href="#DejaVuSans-Bold-73" transform="translate(1044.53125 0)"/>
     <use xlink:href="#DejaVuSans-Bold-20" transform="translate(1104.052734 0)"/>
     <use xlink:href="#DejaVuSans-Bold-4e" transform="translate(1138.867188 0)"/>
     <use xlink:href="#DejaVuSans-Bold-75" transform="translate(1222.558594 0)"/>
     <use xlink:href="#DejaVuSans-Bold-6d" transform="translate(1293.75 0)"/>
     <use xlink:href="#DejaVuSans-Bold-62" transform="translate(1397.949219 0)"/>
     <use xlink:href="#DejaVuSans-Bold-65" transform="translate(1469.53125 0)"/>
     <use xlink:href="#DejaVuSans-Bold-72" transform="translate(1537.353516 0)"/>
     <use xlink:href="#DejaVuSans-Bold-20" transform="translate(1586.669922 0)"/>
     <use xlink:href="#DejaVuSans-Bold-6f" transform="translate(1621.484375 0)"/>
     <use xlink:href="#DejaVuSans-Bold-66" transform="translate(1690.185547 0)"/>
     <use xlink:href="#DejaVuSans-Bold-20" transform="translate(1733.691406 0)"/>
     <use xlink:href="#DejaVuSans-Bold-4a" transform="translate(1768.505859 0)"/>
     <use xlink:href="#DejaVuSans-Bold-6f" transform="translate(1805.712891 0)"/>
     <use xlink:href="#DejaVuSans-Bold-62" transform="translate(1874.414062 0)"/>
     <use xlink:href="#DejaVuSans-Bold-73" transform="translate(1945.996094 0)"/>
    </g>
   </g>
   <g id="legend_1">
    <g id="text_23">
     <!-- IO Depth -->
     <g style="fill: #262626" transform="translate(441.770312 120.065663) scale(0.1 -0.1)">
      <defs>
       <path id="DejaVuSans-49" d="M 628 4666 
L 1259 4666 
L 1259 0 
L 628 0 
L 628 4666 
z
" transform="scale(0.015625)"/>
       <path id="DejaVuSans-4f" d="M 2522 4238 
Q 1834 4238 1429 3725 
Q 1025 3213 1025 2328 
Q 1025 1447 1429 934 
Q 1834 422 2522 422 
Q 3209 422 3611 934 
Q 4013 1447 4013 2328 
Q 4013 3213 3611 3725 
Q 3209 4238 2522 4238 
z
M 2522 4750 
Q 3503 4750 4090 4092 
Q 4678 3434 4678 2328 
Q 4678 1225 4090 567 
Q 3503 -91 2522 -91 
Q 1538 -91 948 565 
Q 359 1222 359 2328 
Q 359 3434 948 4092 
Q 1538 4750 2522 4750 
z
" transform="scale(0.015625)"/>
       <path id="DejaVuSans-44" d="M 1259 4147 
L 1259 519 
L 2022 519 
Q 2988 519 3436 956 
Q 3884 1394 3884 2338 
Q 3884 3275 3436 3711 
Q 2988 4147 2022 4147 
L 1259 4147 
z
M 628 4666 
L 1925 4666 
Q 3281 4666 3915 4102 
Q 4550 3538 4550 2338 
Q 4550 1131 3912 565 
Q 3275 0 1925 0 
L 628 0 
L 628 4666 
z
" transform="scale(0.015625)"/>
      </defs>
      <use xlink:href="#DejaVuSans-49"/>
      <use xlink:href="#DejaVuSans-4f" transform="translate(29.492188 0)"/>
      <use xlink:href="#DejaVuSans-20" transform="translate(108.203125 0)"/>
      <use xlink:href="#DejaVuSans-44" transform="translate(139.990234 0)"/>
      <use xlink:href="#DejaVuSans-65" transform="translate(216.992188 0)"/>
      <use xlink:href="#DejaVuSans-70" transform="translate(278.515625 0)"/>
      <use xlink:href="#DejaVuSans-74" transform="translate(341.992188 0)"/>
      <use xlink:href="#DejaVuSans-68" transform="translate(381.201172 0)"/>
     </g>
    </g>
    <g id="line2d_26">
     <path d="M 440.45625 131.243787 
L 450.45625 131.243787 
L 460.45625 131.243787 
" style="fill: none; stroke: #4c02a1; stroke-width: 1.5; stroke-linecap: round"/>
    </g>
    <g id="text_24">
     <!-- 1 -->
     <g style="fill: #262626" transform="translate(468.45625 134.743787) scale(0.1 -0.1)">
      <use xlink:href="#DejaVuSans-31"/>
     </g>
    </g>
    <g id="line2d_27">
     <path d="M 440.45625 145.921913 
L 450.45625 145.921913 
L 460.45625 145.921913 
" style="fill: none; stroke: #7e03a8; stroke-width: 1.5; stroke-linecap: round"/>
    </g>
    <g id="text_25">
     <!-- 4 -->
     <g style="fill: #262626" transform="translate(468.45625 149.421913) scale(0.1 -0.1)">
      <use xlink:href="#DejaVuSans-34"/>
     </g>
    </g>
    <g id="line2d_28">
     <path d="M 440.45625 160.600037 
L 450.45625 160.600037 
L 460.45625 160.600037 
" style="fill: none; stroke: #aa2395; stroke-width: 1.5; stroke-linecap: round"/>
    </g>
    <g id="text_26">
     <!-- 8 -->
     <g style="fill: #262626" transform="translate(468.45625 164.100037) scale(0.1 -0.1)">
      <use xlink:href="#DejaVuSans-38"/>
     </g>
    </g>
    <g id="line2d_29">
     <path d="M 440.45625 175.278163 
L 450.45625 175.278163 
L 460.45625 175.278163 
" style="fill: none; stroke: #cc4778; stroke-width: 1.5; stroke-linecap: round"/>
    </g>
    <g id="text_27">
     <!-- 16 -->
     <g style="fill: #262626" transform="translate(468.45625 178.778163) scale(0.1 -0.1)">
      <use xlink:href="#DejaVuSans-31"/>
      <use xlink:href="#DejaVuSans-36" transform="translate(63.623047 0)"/>
     </g>
    </g>
    <g id="line2d_30">
     <path d="M 440.45625 189.956288 
L 450.45625 189.956288 
L 460.45625 189.956288 
" style="fill: none; stroke: #e66c5c; stroke-width: 1.5; stroke-linecap: round"/>
    </g>
    <g id="text_28">
     <!-- 32 -->
     <g style="fill: #262626" transform="translate(468.45625 193.456288) scale(0.1 -0.1)">
      <use xlink:href="#DejaVuSans-33"/>
      <use xlink:href="#DejaVuSans-32" transform="translate(63.623047 0)"/>
     </g>
    </g>
    <g id="line2d_31">
     <path d="M 440.45625 204.634412 
L 450.45625 204.634412 
L 460.45625 204.634412 
" style="fill: none; stroke: #f89540; stroke-width: 1.5; stroke-linecap: round"/>
    </g>
    <g id="text_29">
     <!-- 64 -->
     <g style="fill: #262626" transform="translate(468.45625 208.134412) scale(0.1 -0.1)">
      <use xlink:href="#DejaVuSans-36"/>
      <use xlink:href="#DejaVuSans-34" transform="translate(63.623047 0)"/>
     </g>
    </g>
    <g id="line2d_32">
     <path d="M 440.45625 219.312537 
L 450.45625 219.312537 
L 460.45625 219.312537 
" style="fill: none; stroke: #fdc527; stroke-width: 1.5; stroke-linecap: round"/>
    </g>
    <g id="text_30">
     <!-- 128 -->
     <g style="fill: #262626" transform="translate(468.45625 222.812537) scale(0.1 -0.1)">
      <use xlink:href="#DejaVuSans-31"/>
      <use xlink:href="#DejaVuSans-32" transform="translate(63.623047 0)"/>
      <use xlink:href="#DejaVuSans-38" transform="translate(127.246094 0)"/>
     </g>
    </g>
   </g>
  </g>
 </g>
 <defs>
  <clipPath id="p58e04be108">
   <rect x="50.14375" y="35.623725" width="357.12" height="266.112"/>
  </clipPath>
 </defs>
</svg>
