<?xml version="1.0" encoding="utf-8" standalone="no"?>
<!DOCTYPE svg PUBLIC "-//W3C//DTD SVG 1.1//EN"
  "http://www.w3.org/Graphics/SVG/1.1/DTD/svg11.dtd">
<svg xmlns:xlink="http://www.w3.org/1999/xlink" width="492.38125pt" height="339.291975pt" viewBox="0 0 492.38125 339.291975" xmlns="http://www.w3.org/2000/svg" version="1.1">
 <metadata>
  <rdf:RDF xmlns:dc="http://purl.org/dc/elements/1.1/" xmlns:cc="http://creativecommons.org/ns#" xmlns:rdf="http://www.w3.org/1999/02/22-rdf-syntax-ns#">
   <cc:Work>
    <dc:type rdf:resource="http://purl.org/dc/dcmitype/StillImage"/>
    <dc:date>2025-09-11T09:01:21.383678</dc:date>
    <dc:format>image/svg+xml</dc:format>
    <dc:creator>
     <cc:Agent>
      <dc:title>Matplotlib v3.10.6, https://matplotlib.org/</dc:title>
     </cc:Agent>
    </dc:creator>
   </cc:Work>
  </rdf:RDF>
 </metadata>
 <defs>
  <style type="text/css">*{stroke-linejoin: round; stroke-linecap: butt}</style>
 </defs>
 <g id="figure_1">
  <g id="patch_1">
   <path d="M 0 339.291975 
L 492.38125 339.291975 
L 492.38125 0 
L 0 0 
z
" style="fill: #ffffff"/>
  </g>
  <g id="axes_1">
   <g id="patch_2">
    <path d="M 43.78125 301.735725 
L 400.90125 301.735725 
L 400.90125 35.623725 
L 43.78125 35.623725 
z
" style="fill: #ffffff"/>
   </g>
   <g id="matplotlib.axis_1">
    <g id="xtick_1">
     <g id="line2d_1">
      <path d="M 384.668523 301.735725 
L 384.668523 35.623725 
" clip-path="url(#p025548645a)" style="fill: none; stroke: #cccccc; stroke-width: 0.8; stroke-linecap: round"/>
     </g>
     <g id="text_1">
      <!-- 128 -->
      <g style="fill: #262626" transform="translate(375.124773 316.334162) scale(0.1 -0.1)">
       <defs>
        <path id="DejaVuSans-31" d="M 794 531 
L 1825 531 
L 1825 4091 
L 703 3866 
L 703 4441 
L 1819 4666 
L 2450 4666 
L 2450 531 
L 3481 531 
L 3481 0 
L 794 0 
L 794 531 
z
" transform="scale(0.015625)"/>
        <path id="DejaVuSans-32" d="M 1228 531 
L 3431 531 
L 3431 0 
L 469 0 
L 469 531 
Q 828 903 1448 1529 
Q 2069 2156 2228 2338 
Q 2531 2678 2651 2914 
Q 2772 3150 2772 3378 
Q 2772 3750 2511 3984 
Q 2250 4219 1831 4219 
Q 1534 4219 1204 4116 
Q 875 4013 500 3803 
L 500 4441 
Q 881 4594 1212 4672 
Q 1544 4750 1819 4750 
Q 2544 4750 2975 4387 
Q 3406 4025 3406 3419 
Q 3406 3131 3298 2873 
Q 3191 2616 2906 2266 
Q 2828 2175 2409 1742 
Q 1991 1309 1228 531 
z
" transform="scale(0.015625)"/>
        <path id="DejaVuSans-38" d="M 2034 2216 
Q 1584 2216 1326 1975 
Q 1069 1734 1069 1313 
Q 1069 891 1326 650 
Q 1584 409 2034 409 
Q 2484 409 2743 651 
Q 3003 894 3003 1313 
Q 3003 1734 2745 1975 
Q 2488 2216 2034 2216 
z
M 1403 2484 
Q 997 2584 770 2862 
Q 544 3141 544 3541 
Q 544 4100 942 4425 
Q 1341 4750 2034 4750 
Q 2731 4750 3128 4425 
Q 3525 4100 3525 3541 
Q 3525 3141 3298 2862 
Q 3072 2584 2669 2484 
Q 3125 2378 3379 2068 
Q 3634 1759 3634 1313 
Q 3634 634 3220 271 
Q 2806 -91 2034 -91 
Q 1263 -91 848 271 
Q 434 634 434 1313 
Q 434 1759 690 2068 
Q 947 2378 1403 2484 
z
M 1172 3481 
Q 1172 3119 1398 2916 
Q 1625 2713 2034 2713 
Q 2441 2713 2670 2916 
Q 2900 3119 2900 3481 
Q 2900 3844 2670 4047 
Q 2441 4250 2034 4250 
Q 1625 4250 1398 4047 
Q 1172 3844 1172 3481 
z
" transform="scale(0.015625)"/>
       </defs>
       <use xlink:href="#DejaVuSans-31"/>
       <use xlink:href="#DejaVuSans-32" transform="translate(63.623047 0)"/>
       <use xlink:href="#DejaVuSans-38" transform="translate(127.246094 0)"/>
      </g>
     </g>
    </g>
    <g id="xtick_2">
     <g id="line2d_2">
      <path d="M 60.013977 301.735725 
L 60.013977 35.623725 
" clip-path="url(#p025548645a)" style="fill: none; stroke: #cccccc; stroke-width: 0.8; stroke-linecap: round"/>
     </g>
     <g id="text_2">
      <!-- 1 -->
      <g style="fill: #262626" transform="translate(56.832727 316.334162) scale(0.1 -0.1)">
       <use xlink:href="#DejaVuSans-31"/>
      </g>
     </g>
    </g>
    <g id="xtick_3">
     <g id="line2d_3">
      <path d="M 67.682982 301.735725 
L 67.682982 35.623725 
" clip-path="url(#p025548645a)" style="fill: none; stroke: #cccccc; stroke-width: 0.8; stroke-linecap: round"/>
     </g>
     <g id="text_3">
      <!-- 4 -->
      <g style="fill: #262626" transform="translate(64.501732 316.334162) scale(0.1 -0.1)">
       <defs>
        <path id="DejaVuSans-34" d="M 2419 4116 
L 825 1625 
L 2419 1625 
L 2419 4116 
z
M 2253 4666 
L 3047 4666 
L 3047 1625 
L 3713 1625 
L 3713 1100 
L 3047 1100 
L 3047 0 
L 2419 0 
L 2419 1100 
L 313 1100 
L 313 1709 
L 2253 4666 
z
" transform="scale(0.015625)"/>
       </defs>
       <use xlink:href="#DejaVuSans-34"/>
      </g>
     </g>
    </g>
    <g id="xtick_4">
     <g id="line2d_4">
      <path d="M 221.063082 301.735725 
L 221.063082 35.623725 
" clip-path="url(#p025548645a)" style="fill: none; stroke: #cccccc; stroke-width: 0.8; stroke-linecap: round"/>
     </g>
     <g id="text_4">
      <!-- 64 -->
      <g style="fill: #262626" transform="translate(214.700582 316.334162) scale(0.1 -0.1)">
       <defs>
        <path id="DejaVuSans-36" d="M 2113 2584 
Q 1688 2584 1439 2293 
Q 1191 2003 1191 1497 
Q 1191 994 1439 701 
Q 1688 409 2113 409 
Q 2538 409 2786 701 
Q 3034 994 3034 1497 
Q 3034 2003 2786 2293 
Q 2538 2584 2113 2584 
z
M 3366 4563 
L 3366 3988 
Q 3128 4100 2886 4159 
Q 2644 4219 2406 4219 
Q 1781 4219 1451 3797 
Q 1122 3375 1075 2522 
Q 1259 2794 1537 2939 
Q 1816 3084 2150 3084 
Q 2853 3084 3261 2657 
Q 3669 2231 3669 1497 
Q 3669 778 3244 343 
Q 2819 -91 2113 -91 
Q 1303 -91 875 529 
Q 447 1150 447 2328 
Q 447 3434 972 4092 
Q 1497 4750 2381 4750 
Q 2619 4750 2861 4703 
Q 3103 4656 3366 4563 
z
" transform="scale(0.015625)"/>
       </defs>
       <use xlink:href="#DejaVuSans-36"/>
       <use xlink:href="#DejaVuSans-34" transform="translate(63.623047 0)"/>
      </g>
     </g>
    </g>
    <g id="xtick_5">
     <g id="line2d_5">
      <path d="M 98.359002 301.735725 
L 98.359002 35.623725 
" clip-path="url(#p025548645a)" style="fill: none; stroke: #cccccc; stroke-width: 0.8; stroke-linecap: round"/>
     </g>
     <g id="text_5">
      <!-- 16 -->
      <g style="fill: #262626" transform="translate(91.996502 316.334162) scale(0.1 -0.1)">
       <use xlink:href="#DejaVuSans-31"/>
       <use xlink:href="#DejaVuSans-36" transform="translate(63.623047 0)"/>
      </g>
     </g>
    </g>
    <g id="xtick_6">
     <g id="line2d_6">
      <path d="M 139.260362 301.735725 
L 139.260362 35.623725 
" clip-path="url(#p025548645a)" style="fill: none; stroke: #cccccc; stroke-width: 0.8; stroke-linecap: round"/>
     </g>
     <g id="text_6">
      <!-- 32 -->
      <g style="fill: #262626" transform="translate(132.897862 316.334162) scale(0.1 -0.1)">
       <defs>
        <path id="DejaVuSans-33" d="M 2597 2516 
Q 3050 2419 3304 2112 
Q 3559 1806 3559 1356 
Q 3559 666 3084 287 
Q 2609 -91 1734 -91 
Q 1441 -91 1130 -33 
Q 819 25 488 141 
L 488 750 
Q 750 597 1062 519 
Q 1375 441 1716 441 
Q 2309 441 2620 675 
Q 2931 909 2931 1356 
Q 2931 1769 2642 2001 
Q 2353 2234 1838 2234 
L 1294 2234 
L 1294 2753 
L 1863 2753 
Q 2328 2753 2575 2939 
Q 2822 3125 2822 3475 
Q 2822 3834 2567 4026 
Q 2313 4219 1838 4219 
Q 1578 4219 1281 4162 
Q 984 4106 628 3988 
L 628 4550 
Q 988 4650 1302 4700 
Q 1616 4750 1894 4750 
Q 2613 4750 3031 4423 
Q 3450 4097 3450 3541 
Q 3450 3153 3228 2886 
Q 3006 2619 2597 2516 
z
" transform="scale(0.015625)"/>
       </defs>
       <use xlink:href="#DejaVuSans-33"/>
       <use xlink:href="#DejaVuSans-32" transform="translate(63.623047 0)"/>
      </g>
     </g>
    </g>
    <g id="xtick_7">
     <g id="line2d_7">
      <path d="M 77.908322 301.735725 
L 77.908322 35.623725 
" clip-path="url(#p025548645a)" style="fill: none; stroke: #cccccc; stroke-width: 0.8; stroke-linecap: round"/>
     </g>
     <g id="text_7">
      <!-- 8 -->
      <g style="fill: #262626" transform="translate(74.727072 316.334162) scale(0.1 -0.1)">
       <use xlink:href="#DejaVuSans-38"/>
      </g>
     </g>
    </g>
    <g id="text_8">
     <!-- IO Depth -->
     <g style="fill: #262626" transform="translate(200.111563 330.012287) scale(0.1 -0.1)">
      <defs>
       <path id="DejaVuSans-49" d="M 628 4666 
L 1259 4666 
L 1259 0 
L 628 0 
L 628 4666 
z
" transform="scale(0.015625)"/>
       <path id="DejaVuSans-4f" d="M 2522 4238 
Q 1834 4238 1429 3725 
Q 1025 3213 1025 2328 
Q 1025 1447 1429 934 
Q 1834 422 2522 422 
Q 3209 422 3611 934 
Q 4013 1447 4013 2328 
Q 4013 3213 3611 3725 
Q 3209 4238 2522 4238 
z
M 2522 4750 
Q 3503 4750 4090 4092 
Q 4678 3434 4678 2328 
Q 4678 1225 4090 567 
Q 3503 -91 2522 -91 
Q 1538 -91 948 565 
Q 359 1222 359 2328 
Q 359 3434 948 4092 
Q 1538 4750 2522 4750 
z
" transform="scale(0.015625)"/>
       <path id="DejaVuSans-20" transform="scale(0.015625)"/>
       <path id="DejaVuSans-44" d="M 1259 4147 
L 1259 519 
L 2022 519 
Q 2988 519 3436 956 
Q 3884 1394 3884 2338 
Q 3884 3275 3436 3711 
Q 2988 4147 2022 4147 
L 1259 4147 
z
M 628 4666 
L 1925 4666 
Q 3281 4666 3915 4102 
Q 4550 3538 4550 2338 
Q 4550 1131 3912 565 
Q 3275 0 1925 0 
L 628 0 
L 628 4666 
z
" transform="scale(0.015625)"/>
       <path id="DejaVuSans-65" d="M 3597 1894 
L 3597 1613 
L 953 1613 
Q 991 1019 1311 708 
Q 1631 397 2203 397 
Q 2534 397 2845 478 
Q 3156 559 3463 722 
L 3463 178 
Q 3153 47 2828 -22 
Q 2503 -91 2169 -91 
Q 1331 -91 842 396 
Q 353 884 353 1716 
Q 353 2575 817 3079 
Q 1281 3584 2069 3584 
Q 2775 3584 3186 3129 
Q 3597 2675 3597 1894 
z
M 3022 2063 
Q 3016 2534 2758 2815 
Q 2500 3097 2075 3097 
Q 1594 3097 1305 2825 
Q 1016 2553 972 2059 
L 3022 2063 
z
" transform="scale(0.015625)"/>
       <path id="DejaVuSans-70" d="M 1159 525 
L 1159 -1331 
L 581 -1331 
L 581 3500 
L 1159 3500 
L 1159 2969 
Q 1341 3281 1617 3432 
Q 1894 3584 2278 3584 
Q 2916 3584 3314 3078 
Q 3713 2572 3713 1747 
Q 3713 922 3314 415 
Q 2916 -91 2278 -91 
Q 1894 -91 1617 61 
Q 1341 213 1159 525 
z
M 3116 1747 
Q 3116 2381 2855 2742 
Q 2594 3103 2138 3103 
Q 1681 3103 1420 2742 
Q 1159 2381 1159 1747 
Q 1159 1113 1420 752 
Q 1681 391 2138 391 
Q 2594 391 2855 752 
Q 3116 1113 3116 1747 
z
" transform="scale(0.015625)"/>
       <path id="DejaVuSans-74" d="M 1172 4494 
L 1172 3500 
L 2356 3500 
L 2356 3053 
L 1172 3053 
L 1172 1153 
Q 1172 725 1289 603 
Q 1406 481 1766 481 
L 2356 481 
L 2356 0 
L 1766 0 
Q 1100 0 847 248 
Q 594 497 594 1153 
L 594 3053 
L 172 3053 
L 172 3500 
L 594 3500 
L 594 4494 
L 1172 4494 
z
" transform="scale(0.015625)"/>
       <path id="DejaVuSans-68" d="M 3513 2113 
L 3513 0 
L 2938 0 
L 2938 2094 
Q 2938 2591 2744 2837 
Q 2550 3084 2163 3084 
Q 1697 3084 1428 2787 
Q 1159 2491 1159 1978 
L 1159 0 
L 581 0 
L 581 4863 
L 1159 4863 
L 1159 2956 
Q 1366 3272 1645 3428 
Q 1925 3584 2291 3584 
Q 2894 3584 3203 3211 
Q 3513 2838 3513 2113 
z
" transform="scale(0.015625)"/>
      </defs>
      <use xlink:href="#DejaVuSans-49"/>
      <use xlink:href="#DejaVuSans-4f" transform="translate(29.492188 0)"/>
      <use xlink:href="#DejaVuSans-20" transform="translate(108.203125 0)"/>
      <use xlink:href="#DejaVuSans-44" transform="translate(139.990234 0)"/>
      <use xlink:href="#DejaVuSans-65" transform="translate(216.992188 0)"/>
      <use xlink:href="#DejaVuSans-70" transform="translate(278.515625 0)"/>
      <use xlink:href="#DejaVuSans-74" transform="translate(341.992188 0)"/>
      <use xlink:href="#DejaVuSans-68" transform="translate(381.201172 0)"/>
     </g>
    </g>
   </g>
   <g id="matplotlib.axis_2">
    <g id="ytick_1">
     <g id="line2d_8">
      <path d="M 43.78125 299.7503 
L 400.90125 299.7503 
" clip-path="url(#p025548645a)" style="fill: none; stroke: #cccccc; stroke-width: 0.8; stroke-linecap: round"/>
     </g>
     <g id="text_9">
      <!-- 0.7 -->
      <g style="fill: #262626" transform="translate(20.878125 303.549519) scale(0.1 -0.1)">
       <defs>
        <path id="DejaVuSans-30" d="M 2034 4250 
Q 1547 4250 1301 3770 
Q 1056 3291 1056 2328 
Q 1056 1369 1301 889 
Q 1547 409 2034 409 
Q 2525 409 2770 889 
Q 3016 1369 3016 2328 
Q 3016 3291 2770 3770 
Q 2525 4250 2034 4250 
z
M 2034 4750 
Q 2819 4750 3233 4129 
Q 3647 3509 3647 2328 
Q 3647 1150 3233 529 
Q 2819 -91 2034 -91 
Q 1250 -91 836 529 
Q 422 1150 422 2328 
Q 422 3509 836 4129 
Q 1250 4750 2034 4750 
z
" transform="scale(0.015625)"/>
        <path id="DejaVuSans-2e" d="M 684 794 
L 1344 794 
L 1344 0 
L 684 0 
L 684 794 
z
" transform="scale(0.015625)"/>
        <path id="DejaVuSans-37" d="M 525 4666 
L 3525 4666 
L 3525 4397 
L 1831 0 
L 1172 0 
L 2766 4134 
L 525 4134 
L 525 4666 
z
" transform="scale(0.015625)"/>
       </defs>
       <use xlink:href="#DejaVuSans-30"/>
       <use xlink:href="#DejaVuSans-2e" transform="translate(63.623047 0)"/>
       <use xlink:href="#DejaVuSans-37" transform="translate(95.410156 0)"/>
      </g>
     </g>
    </g>
    <g id="ytick_2">
     <g id="line2d_9">
      <path d="M 43.78125 252.050274 
L 400.90125 252.050274 
" clip-path="url(#p025548645a)" style="fill: none; stroke: #cccccc; stroke-width: 0.8; stroke-linecap: round"/>
     </g>
     <g id="text_10">
      <!-- 0.8 -->
      <g style="fill: #262626" transform="translate(20.878125 255.849493) scale(0.1 -0.1)">
       <use xlink:href="#DejaVuSans-30"/>
       <use xlink:href="#DejaVuSans-2e" transform="translate(63.623047 0)"/>
       <use xlink:href="#DejaVuSans-38" transform="translate(95.410156 0)"/>
      </g>
     </g>
    </g>
    <g id="ytick_3">
     <g id="line2d_10">
      <path d="M 43.78125 204.350248 
L 400.90125 204.350248 
" clip-path="url(#p025548645a)" style="fill: none; stroke: #cccccc; stroke-width: 0.8; stroke-linecap: round"/>
     </g>
     <g id="text_11">
      <!-- 0.9 -->
      <g style="fill: #262626" transform="translate(20.878125 208.149467) scale(0.1 -0.1)">
       <defs>
        <path id="DejaVuSans-39" d="M 703 97 
L 703 672 
Q 941 559 1184 500 
Q 1428 441 1663 441 
Q 2288 441 2617 861 
Q 2947 1281 2994 2138 
Q 2813 1869 2534 1725 
Q 2256 1581 1919 1581 
Q 1219 1581 811 2004 
Q 403 2428 403 3163 
Q 403 3881 828 4315 
Q 1253 4750 1959 4750 
Q 2769 4750 3195 4129 
Q 3622 3509 3622 2328 
Q 3622 1225 3098 567 
Q 2575 -91 1691 -91 
Q 1453 -91 1209 -44 
Q 966 3 703 97 
z
M 1959 2075 
Q 2384 2075 2632 2365 
Q 2881 2656 2881 3163 
Q 2881 3666 2632 3958 
Q 2384 4250 1959 4250 
Q 1534 4250 1286 3958 
Q 1038 3666 1038 3163 
Q 1038 2656 1286 2365 
Q 1534 2075 1959 2075 
z
" transform="scale(0.015625)"/>
       </defs>
       <use xlink:href="#DejaVuSans-30"/>
       <use xlink:href="#DejaVuSans-2e" transform="translate(63.623047 0)"/>
       <use xlink:href="#DejaVuSans-39" transform="translate(95.410156 0)"/>
      </g>
     </g>
    </g>
    <g id="ytick_4">
     <g id="line2d_11">
      <path d="M 43.78125 156.650222 
L 400.90125 156.650222 
" clip-path="url(#p025548645a)" style="fill: none; stroke: #cccccc; stroke-width: 0.8; stroke-linecap: round"/>
     </g>
     <g id="text_12">
      <!-- 1.0 -->
      <g style="fill: #262626" transform="translate(20.878125 160.449441) scale(0.1 -0.1)">
       <use xlink:href="#DejaVuSans-31"/>
       <use xlink:href="#DejaVuSans-2e" transform="translate(63.623047 0)"/>
       <use xlink:href="#DejaVuSans-30" transform="translate(95.410156 0)"/>
      </g>
     </g>
    </g>
    <g id="ytick_5">
     <g id="line2d_12">
      <path d="M 43.78125 108.950196 
L 400.90125 108.950196 
" clip-path="url(#p025548645a)" style="fill: none; stroke: #cccccc; stroke-width: 0.8; stroke-linecap: round"/>
     </g>
     <g id="text_13">
      <!-- 1.1 -->
      <g style="fill: #262626" transform="translate(20.878125 112.749415) scale(0.1 -0.1)">
       <use xlink:href="#DejaVuSans-31"/>
       <use xlink:href="#DejaVuSans-2e" transform="translate(63.623047 0)"/>
       <use xlink:href="#DejaVuSans-31" transform="translate(95.410156 0)"/>
      </g>
     </g>
    </g>
    <g id="ytick_6">
     <g id="line2d_13">
      <path d="M 43.78125 61.25017 
L 400.90125 61.25017 
" clip-path="url(#p025548645a)" style="fill: none; stroke: #cccccc; stroke-width: 0.8; stroke-linecap: round"/>
     </g>
     <g id="text_14">
      <!-- 1.2 -->
      <g style="fill: #262626" transform="translate(20.878125 65.049389) scale(0.1 -0.1)">
       <use xlink:href="#DejaVuSans-31"/>
       <use xlink:href="#DejaVuSans-2e" transform="translate(63.623047 0)"/>
       <use xlink:href="#DejaVuSans-32" transform="translate(95.410156 0)"/>
      </g>
     </g>
    </g>
    <g id="text_15">
     <!-- Mean Bandwidth (GiB/s) -->
     <g style="fill: #262626" transform="translate(14.798438 228.984412) rotate(-90) scale(0.1 -0.1)">
      <defs>
       <path id="DejaVuSans-4d" d="M 628 4666 
L 1569 4666 
L 2759 1491 
L 3956 4666 
L 4897 4666 
L 4897 0 
L 4281 0 
L 4281 4097 
L 3078 897 
L 2444 897 
L 1241 4097 
L 1241 0 
L 628 0 
L 628 4666 
z
" transform="scale(0.015625)"/>
       <path id="DejaVuSans-61" d="M 2194 1759 
Q 1497 1759 1228 1600 
Q 959 1441 959 1056 
Q 959 750 1161 570 
Q 1363 391 1709 391 
Q 2188 391 2477 730 
Q 2766 1069 2766 1631 
L 2766 1759 
L 2194 1759 
z
M 3341 1997 
L 3341 0 
L 2766 0 
L 2766 531 
Q 2569 213 2275 61 
Q 1981 -91 1556 -91 
Q 1019 -91 701 211 
Q 384 513 384 1019 
Q 384 1609 779 1909 
Q 1175 2209 1959 2209 
L 2766 2209 
L 2766 2266 
Q 2766 2663 2505 2880 
Q 2244 3097 1772 3097 
Q 1472 3097 1187 3025 
Q 903 2953 641 2809 
L 641 3341 
Q 956 3463 1253 3523 
Q 1550 3584 1831 3584 
Q 2591 3584 2966 3190 
Q 3341 2797 3341 1997 
z
" transform="scale(0.015625)"/>
       <path id="DejaVuSans-6e" d="M 3513 2113 
L 3513 0 
L 2938 0 
L 2938 2094 
Q 2938 2591 2744 2837 
Q 2550 3084 2163 3084 
Q 1697 3084 1428 2787 
Q 1159 2491 1159 1978 
L 1159 0 
L 581 0 
L 581 3500 
L 1159 3500 
L 1159 2956 
Q 1366 3272 1645 3428 
Q 1925 3584 2291 3584 
Q 2894 3584 3203 3211 
Q 3513 2838 3513 2113 
z
" transform="scale(0.015625)"/>
       <path id="DejaVuSans-42" d="M 1259 2228 
L 1259 519 
L 2272 519 
Q 2781 519 3026 730 
Q 3272 941 3272 1375 
Q 3272 1813 3026 2020 
Q 2781 2228 2272 2228 
L 1259 2228 
z
M 1259 4147 
L 1259 2741 
L 2194 2741 
Q 2656 2741 2882 2914 
Q 3109 3088 3109 3444 
Q 3109 3797 2882 3972 
Q 2656 4147 2194 4147 
L 1259 4147 
z
M 628 4666 
L 2241 4666 
Q 2963 4666 3353 4366 
Q 3744 4066 3744 3513 
Q 3744 3084 3544 2831 
Q 3344 2578 2956 2516 
Q 3422 2416 3680 2098 
Q 3938 1781 3938 1306 
Q 3938 681 3513 340 
Q 3088 0 2303 0 
L 628 0 
L 628 4666 
z
" transform="scale(0.015625)"/>
       <path id="DejaVuSans-64" d="M 2906 2969 
L 2906 4863 
L 3481 4863 
L 3481 0 
L 2906 0 
L 2906 525 
Q 2725 213 2448 61 
Q 2172 -91 1784 -91 
Q 1150 -91 751 415 
Q 353 922 353 1747 
Q 353 2572 751 3078 
Q 1150 3584 1784 3584 
Q 2172 3584 2448 3432 
Q 2725 3281 2906 2969 
z
M 947 1747 
Q 947 1113 1208 752 
Q 1469 391 1925 391 
Q 2381 391 2643 752 
Q 2906 1113 2906 1747 
Q 2906 2381 2643 2742 
Q 2381 3103 1925 3103 
Q 1469 3103 1208 2742 
Q 947 2381 947 1747 
z
" transform="scale(0.015625)"/>
       <path id="DejaVuSans-77" d="M 269 3500 
L 844 3500 
L 1563 769 
L 2278 3500 
L 2956 3500 
L 3675 769 
L 4391 3500 
L 4966 3500 
L 4050 0 
L 3372 0 
L 2619 2869 
L 1863 0 
L 1184 0 
L 269 3500 
z
" transform="scale(0.015625)"/>
       <path id="DejaVuSans-69" d="M 603 3500 
L 1178 3500 
L 1178 0 
L 603 0 
L 603 3500 
z
M 603 4863 
L 1178 4863 
L 1178 4134 
L 603 4134 
L 603 4863 
z
" transform="scale(0.015625)"/>
       <path id="DejaVuSans-28" d="M 1984 4856 
Q 1566 4138 1362 3434 
Q 1159 2731 1159 2009 
Q 1159 1288 1364 580 
Q 1569 -128 1984 -844 
L 1484 -844 
Q 1016 -109 783 600 
Q 550 1309 550 2009 
Q 550 2706 781 3412 
Q 1013 4119 1484 4856 
L 1984 4856 
z
" transform="scale(0.015625)"/>
       <path id="DejaVuSans-47" d="M 3809 666 
L 3809 1919 
L 2778 1919 
L 2778 2438 
L 4434 2438 
L 4434 434 
Q 4069 175 3628 42 
Q 3188 -91 2688 -91 
Q 1594 -91 976 548 
Q 359 1188 359 2328 
Q 359 3472 976 4111 
Q 1594 4750 2688 4750 
Q 3144 4750 3555 4637 
Q 3966 4525 4313 4306 
L 4313 3634 
Q 3963 3931 3569 4081 
Q 3175 4231 2741 4231 
Q 1884 4231 1454 3753 
Q 1025 3275 1025 2328 
Q 1025 1384 1454 906 
Q 1884 428 2741 428 
Q 3075 428 3337 486 
Q 3600 544 3809 666 
z
" transform="scale(0.015625)"/>
       <path id="DejaVuSans-2f" d="M 1625 4666 
L 2156 4666 
L 531 -594 
L 0 -594 
L 1625 4666 
z
" transform="scale(0.015625)"/>
       <path id="DejaVuSans-73" d="M 2834 3397 
L 2834 2853 
Q 2591 2978 2328 3040 
Q 2066 3103 1784 3103 
Q 1356 3103 1142 2972 
Q 928 2841 928 2578 
Q 928 2378 1081 2264 
Q 1234 2150 1697 2047 
L 1894 2003 
Q 2506 1872 2764 1633 
Q 3022 1394 3022 966 
Q 3022 478 2636 193 
Q 2250 -91 1575 -91 
Q 1294 -91 989 -36 
Q 684 19 347 128 
L 347 722 
Q 666 556 975 473 
Q 1284 391 1588 391 
Q 1994 391 2212 530 
Q 2431 669 2431 922 
Q 2431 1156 2273 1281 
Q 2116 1406 1581 1522 
L 1381 1569 
Q 847 1681 609 1914 
Q 372 2147 372 2553 
Q 372 3047 722 3315 
Q 1072 3584 1716 3584 
Q 2034 3584 2315 3537 
Q 2597 3491 2834 3397 
z
" transform="scale(0.015625)"/>
       <path id="DejaVuSans-29" d="M 513 4856 
L 1013 4856 
Q 1481 4119 1714 3412 
Q 1947 2706 1947 2009 
Q 1947 1309 1714 600 
Q 1481 -109 1013 -844 
L 513 -844 
Q 928 -128 1133 580 
Q 1338 1288 1338 2009 
Q 1338 2731 1133 3434 
Q 928 4138 513 4856 
z
" transform="scale(0.015625)"/>
      </defs>
      <use xlink:href="#DejaVuSans-4d"/>
      <use xlink:href="#DejaVuSans-65" transform="translate(86.279297 0)"/>
      <use xlink:href="#DejaVuSans-61" transform="translate(147.802734 0)"/>
      <use xlink:href="#DejaVuSans-6e" transform="translate(209.082031 0)"/>
      <use xlink:href="#DejaVuSans-20" transform="translate(272.460938 0)"/>
      <use xlink:href="#DejaVuSans-42" transform="translate(304.248047 0)"/>
      <use xlink:href="#DejaVuSans-61" transform="translate(372.851562 0)"/>
      <use xlink:href="#DejaVuSans-6e" transform="translate(434.130859 0)"/>
      <use xlink:href="#DejaVuSans-64" transform="translate(497.509766 0)"/>
      <use xlink:href="#DejaVuSans-77" transform="translate(560.986328 0)"/>
      <use xlink:href="#DejaVuSans-69" transform="translate(642.773438 0)"/>
      <use xlink:href="#DejaVuSans-64" transform="translate(670.556641 0)"/>
      <use xlink:href="#DejaVuSans-74" transform="translate(734.033203 0)"/>
      <use xlink:href="#DejaVuSans-68" transform="translate(773.242188 0)"/>
      <use xlink:href="#DejaVuSans-20" transform="translate(836.621094 0)"/>
      <use xlink:href="#DejaVuSans-28" transform="translate(868.408203 0)"/>
      <use xlink:href="#DejaVuSans-47" transform="translate(907.421875 0)"/>
      <use xlink:href="#DejaVuSans-69" transform="translate(984.912109 0)"/>
      <use xlink:href="#DejaVuSans-42" transform="translate(1012.695312 0)"/>
      <use xlink:href="#DejaVuSans-2f" transform="translate(1081.298828 0)"/>
      <use xlink:href="#DejaVuSans-73" transform="translate(1114.990234 0)"/>
      <use xlink:href="#DejaVuSans-29" transform="translate(1167.089844 0)"/>
     </g>
    </g>
   </g>
   <g id="FillBetweenPolyCollection_1"/>
   <g id="FillBetweenPolyCollection_2"/>
   <g id="FillBetweenPolyCollection_3"/>
   <g id="FillBetweenPolyCollection_4"/>
   <g id="line2d_14">
    <path d="M 60.013977 169.301141 
L 67.682982 194.745553 
L 77.908322 258.332648 
L 98.359002 260.652615 
L 139.260362 229.173395 
L 221.063082 228.876793 
L 384.668523 206.784816 
" clip-path="url(#p025548645a)" style="fill: none; stroke: #3b0f70; stroke-width: 1.5; stroke-linecap: round"/>
   </g>
   <g id="line2d_15">
    <path d="M 60.013977 147.604284 
L 67.682982 147.072995 
L 77.908322 47.719725 
L 98.359002 166.866107 
L 139.260362 59.298495 
L 221.063082 96.571178 
L 384.668523 214.536922 
" clip-path="url(#p025548645a)" style="fill: none; stroke: #8c2981; stroke-width: 1.5; stroke-linecap: round"/>
   </g>
   <g id="line2d_16">
    <path d="M 60.013977 184.754046 
L 67.682982 113.368337 
L 77.908322 251.731222 
L 98.359002 113.70831 
L 139.260362 110.013489 
L 221.063082 136.240205 
L 384.668523 129.643318 
" clip-path="url(#p025548645a)" style="fill: none; stroke: #de4968; stroke-width: 1.5; stroke-linecap: round"/>
   </g>
   <g id="line2d_17">
    <path d="M 60.013977 289.639725 
L 67.682982 189.504488 
L 77.908322 277.790694 
L 98.359002 183.36988 
L 139.260362 190.746588 
L 221.063082 190.97266 
L 384.668523 184.944538 
" clip-path="url(#p025548645a)" style="fill: none; stroke: #fe9f6d; stroke-width: 1.5; stroke-linecap: round"/>
   </g>
   <g id="line2d_18"/>
   <g id="line2d_19"/>
   <g id="line2d_20"/>
   <g id="line2d_21"/>
   <g id="text_16">
    <path d="M 123.036869 244.094639 
L 124.313486 243.112107 
L 120.920843 238.704002 
L 119.74597 240.051858 
L 119.198001 239.339875 
L 120.365445 237.997737 
L 121.146769 237.396401 
L 125.08738 242.516488 
L 126.363997 241.533956 
L 126.870034 242.191457 
L 123.542906 244.75214 
L 123.036869 244.094639 
z
M 127.755533 236.415102 
Q 127.229285 236.820123 127.198285 237.417743 
Q 127.167571 238.013171 127.649783 238.639716 
Q 128.129137 239.262547 128.715444 239.389007 
Q 129.302037 239.513277 129.828285 239.108256 
Q 130.354534 238.703236 130.383342 238.105331 
Q 130.411198 237.506187 129.931844 236.883357 
Q 129.449631 236.256812 128.866183 236.134066 
Q 128.281782 236.010082 127.755533 236.415102 
z
M 127.421071 232.770546 
L 127.96904 233.48253 
Q 127.567606 233.570659 127.211728 233.728227 
Q 126.854896 233.884556 126.560197 234.111368 
Q 125.786303 234.706986 125.779848 235.544006 
Q 125.774631 236.380074 126.529334 237.481076 
Q 126.497956 236.968927 126.704001 236.524452 
Q 126.911284 236.079024 127.324853 235.760726 
Q 128.19533 235.090774 129.107455 235.23068 
Q 130.018627 235.369347 130.718121 236.278209 
Q 131.40332 237.168497 131.291622 238.112148 
Q 131.178971 239.054561 130.30478 239.727372 
Q 129.301812 240.499293 128.180996 240.139469 
Q 127.059226 239.778407 125.936605 238.31977 
Q 124.882598 236.950286 124.905603 235.63521 
Q 124.928607 234.320134 126.023204 233.477692 
Q 126.317903 233.25088 126.662346 233.078454 
Q 127.006788 232.906027 127.421071 232.770546 
z
" clip-path="url(#p025548645a)" style="fill: #3b0f70; stroke: #ffffff; stroke-width: 5"/>
    <path d="M 123.036869 244.094639 
L 124.313486 243.112107 
L 120.920843 238.704002 
L 119.74597 240.051858 
L 119.198001 239.339875 
L 120.365445 237.997737 
L 121.146769 237.396401 
L 125.08738 242.516488 
L 126.363997 241.533956 
L 126.870034 242.191457 
L 123.542906 244.75214 
L 123.036869 244.094639 
z
M 127.755533 236.415102 
Q 127.229285 236.820123 127.198285 237.417743 
Q 127.167571 238.013171 127.649783 238.639716 
Q 128.129137 239.262547 128.715444 239.389007 
Q 129.302037 239.513277 129.828285 239.108256 
Q 130.354534 238.703236 130.383342 238.105331 
Q 130.411198 237.506187 129.931844 236.883357 
Q 129.449631 236.256812 128.866183 236.134066 
Q 128.281782 236.010082 127.755533 236.415102 
z
M 127.421071 232.770546 
L 127.96904 233.48253 
Q 127.567606 233.570659 127.211728 233.728227 
Q 126.854896 233.884556 126.560197 234.111368 
Q 125.786303 234.706986 125.779848 235.544006 
Q 125.774631 236.380074 126.529334 237.481076 
Q 126.497956 236.968927 126.704001 236.524452 
Q 126.911284 236.079024 127.324853 235.760726 
Q 128.19533 235.090774 129.107455 235.23068 
Q 130.018627 235.369347 130.718121 236.278209 
Q 131.40332 237.168497 131.291622 238.112148 
Q 131.178971 239.054561 130.30478 239.727372 
Q 129.301812 240.499293 128.180996 240.139469 
Q 127.059226 239.778407 125.936605 238.31977 
Q 124.882598 236.950286 124.905603 235.63521 
Q 124.928607 234.320134 126.023204 233.477692 
Q 126.317903 233.25088 126.662346 233.078454 
Q 127.006788 232.906027 127.421071 232.770546 
z
" clip-path="url(#p025548645a)" style="fill: #3b0f70"/>
   </g>
   <g id="text_17">
    <path d="M 188.5891 80.486908 
Q 189.17036 80.918308 189.33262 81.519375 
Q 189.49695 82.119668 189.205414 82.759505 
Q 188.758392 83.740588 187.83747 83.971741 
Q 186.917196 84.201471 185.673069 83.634596 
Q 185.256464 83.444773 184.851841 83.160822 
Q 184.447218 82.87687 184.051734 82.497493 
L 184.446279 81.63158 
Q 184.719685 82.018864 185.112772 82.3319 
Q 185.507281 82.645585 185.992136 82.866505 
Q 186.835299 83.250684 187.429096 83.119453 
Q 188.022893 82.988221 188.312486 82.35265 
Q 188.580051 81.765422 188.319437 81.248319 
Q 188.05947 80.729795 187.327212 80.396148 
L 186.55372 80.043713 
L 186.889958 79.305768 
L 187.698997 79.674399 
Q 188.360162 79.975653 188.831863 79.871208 
Q 189.303564 79.766763 189.530314 79.269112 
Q 189.762895 78.758664 189.524709 78.320463 
Q 189.288594 77.881488 188.61321 77.573756 
Q 188.243526 77.405313 187.784306 77.293945 
Q 187.325733 77.181155 186.743104 77.118297 
L 187.1072 76.319212 
Q 187.683856 76.410255 188.162713 76.542589 
Q 188.64157 76.674923 189.036847 76.855028 
Q 190.059164 77.320838 190.441652 78.056591 
Q 190.82621 78.79157 190.466001 79.582124 
Q 190.214632 80.133806 189.726001 80.369618 
Q 189.23737 80.60543 188.5891 80.486908 
z
M 191.146212 85.060379 
L 194.27857 86.48761 
L 193.934557 87.242618 
L 189.723008 85.323663 
L 190.06702 84.568655 
Q 190.818471 84.272304 192.105583 83.783891 
Q 193.394766 83.294705 193.738751 83.138936 
Q 194.389847 82.851804 194.713364 82.593988 
Q 195.038304 82.33682 195.186016 82.012636 
Q 195.427019 81.483704 195.207512 80.981898 
Q 194.988653 80.47867 194.392894 80.207217 
Q 193.970601 80.014803 193.434658 79.947462 
Q 192.900137 79.880768 192.230889 79.936412 
L 192.644222 79.029265 
Q 193.285073 79.058555 193.806242 79.16209 
Q 194.328832 79.266274 194.719844 79.444435 
Q 195.750693 79.914132 196.128342 80.709494 
Q 196.506639 81.503434 196.114037 82.365082 
Q 195.927454 82.774577 195.606746 83.071449 
Q 195.288107 83.367546 194.656127 83.680557 
Q 194.486267 83.759414 193.609985 84.103627 
Q 192.735125 84.448488 191.146212 85.060379 
z
" clip-path="url(#p025548645a)" style="fill: #8c2981; stroke: #ffffff; stroke-width: 5"/>
    <path d="M 188.5891 80.486908 
Q 189.17036 80.918308 189.33262 81.519375 
Q 189.49695 82.119668 189.205414 82.759505 
Q 188.758392 83.740588 187.83747 83.971741 
Q 186.917196 84.201471 185.673069 83.634596 
Q 185.256464 83.444773 184.851841 83.160822 
Q 184.447218 82.87687 184.051734 82.497493 
L 184.446279 81.63158 
Q 184.719685 82.018864 185.112772 82.3319 
Q 185.507281 82.645585 185.992136 82.866505 
Q 186.835299 83.250684 187.429096 83.119453 
Q 188.022893 82.988221 188.312486 82.35265 
Q 188.580051 81.765422 188.319437 81.248319 
Q 188.05947 80.729795 187.327212 80.396148 
L 186.55372 80.043713 
L 186.889958 79.305768 
L 187.698997 79.674399 
Q 188.360162 79.975653 188.831863 79.871208 
Q 189.303564 79.766763 189.530314 79.269112 
Q 189.762895 78.758664 189.524709 78.320463 
Q 189.288594 77.881488 188.61321 77.573756 
Q 188.243526 77.405313 187.784306 77.293945 
Q 187.325733 77.181155 186.743104 77.118297 
L 187.1072 76.319212 
Q 187.683856 76.410255 188.162713 76.542589 
Q 188.64157 76.674923 189.036847 76.855028 
Q 190.059164 77.320838 190.441652 78.056591 
Q 190.82621 78.79157 190.466001 79.582124 
Q 190.214632 80.133806 189.726001 80.369618 
Q 189.23737 80.60543 188.5891 80.486908 
z
M 191.146212 85.060379 
L 194.27857 86.48761 
L 193.934557 87.242618 
L 189.723008 85.323663 
L 190.06702 84.568655 
Q 190.818471 84.272304 192.105583 83.783891 
Q 193.394766 83.294705 193.738751 83.138936 
Q 194.389847 82.851804 194.713364 82.593988 
Q 195.038304 82.33682 195.186016 82.012636 
Q 195.427019 81.483704 195.207512 80.981898 
Q 194.988653 80.47867 194.392894 80.207217 
Q 193.970601 80.014803 193.434658 79.947462 
Q 192.900137 79.880768 192.230889 79.936412 
L 192.644222 79.029265 
Q 193.285073 79.058555 193.806242 79.16209 
Q 194.328832 79.266274 194.719844 79.444435 
Q 195.750693 79.914132 196.128342 80.709494 
Q 196.506639 81.503434 196.114037 82.365082 
Q 195.927454 82.774577 195.606746 83.071449 
Q 195.288107 83.367546 194.656127 83.680557 
Q 194.486267 83.759414 193.609985 84.103627 
Q 192.735125 84.448488 191.146212 85.060379 
z
" clip-path="url(#p025548645a)" style="fill: #8c2981"/>
   </g>
   <g id="text_18">
    <path d="M 251.372103 133.738923 
Q 250.70858 133.765678 250.338152 134.235671 
Q 249.969223 134.70404 250.001077 135.494023 
Q 250.032741 136.279322 250.438372 136.721151 
Q 250.8455 137.161356 251.509023 137.134601 
Q 252.172547 137.107847 252.54135 136.636355 
Q 252.910091 136.163302 252.878426 135.378003 
Q 252.846572 134.58802 252.441131 134.150875 
Q 252.035626 133.712168 251.372103 133.738923 
z
M 253.203744 130.570368 
L 253.239942 131.468076 
Q 252.861318 131.3082 252.479786 131.231322 
Q 252.098191 131.152882 251.726618 131.167865 
Q 250.750848 131.20721 250.262207 131.886824 
Q 249.775128 132.566374 249.755448 133.901063 
Q 250.025592 133.464825 250.450486 133.220946 
Q 250.876942 132.977004 251.398393 132.955978 
Q 252.495938 132.911723 253.159801 133.552684 
Q 253.823601 134.192085 253.869808 135.338028 
Q 253.91507 136.460554 253.278931 137.166444 
Q 252.642729 137.870773 251.540499 137.915217 
Q 250.275902 137.966208 249.568665 137.025188 
Q 248.861365 136.082607 248.787207 134.243476 
Q 248.717583 132.516754 249.495807 131.456414 
Q 250.274031 130.396074 251.654159 130.340425 
Q 252.025733 130.325442 252.406509 130.383586 
Q 252.787286 130.441729 253.203744 130.570368 
z
M 258.110537 131.071521 
L 255.778747 135.060894 
L 258.26735 134.960549 
L 258.110537 131.071521 
z
M 257.816749 130.223294 
L 259.056366 130.17331 
L 259.247803 134.921015 
L 260.287583 134.879089 
L 260.320633 135.698735 
L 259.280853 135.740661 
L 259.3501 137.458016 
L 258.369646 137.497549 
L 258.300399 135.780195 
L 255.012446 135.912772 
L 254.974109 134.961982 
L 257.816749 130.223294 
z
" clip-path="url(#p025548645a)" style="fill: #de4968; stroke: #ffffff; stroke-width: 5"/>
    <path d="M 251.372103 133.738923 
Q 250.70858 133.765678 250.338152 134.235671 
Q 249.969223 134.70404 250.001077 135.494023 
Q 250.032741 136.279322 250.438372 136.721151 
Q 250.8455 137.161356 251.509023 137.134601 
Q 252.172547 137.107847 252.54135 136.636355 
Q 252.910091 136.163302 252.878426 135.378003 
Q 252.846572 134.58802 252.441131 134.150875 
Q 252.035626 133.712168 251.372103 133.738923 
z
M 253.203744 130.570368 
L 253.239942 131.468076 
Q 252.861318 131.3082 252.479786 131.231322 
Q 252.098191 131.152882 251.726618 131.167865 
Q 250.750848 131.20721 250.262207 131.886824 
Q 249.775128 132.566374 249.755448 133.901063 
Q 250.025592 133.464825 250.450486 133.220946 
Q 250.876942 132.977004 251.398393 132.955978 
Q 252.495938 132.911723 253.159801 133.552684 
Q 253.823601 134.192085 253.869808 135.338028 
Q 253.91507 136.460554 253.278931 137.166444 
Q 252.642729 137.870773 251.540499 137.915217 
Q 250.275902 137.966208 249.568665 137.025188 
Q 248.861365 136.082607 248.787207 134.243476 
Q 248.717583 132.516754 249.495807 131.456414 
Q 250.274031 130.396074 251.654159 130.340425 
Q 252.025733 130.325442 252.406509 130.383586 
Q 252.787286 130.441729 253.203744 130.570368 
z
M 258.110537 131.071521 
L 255.778747 135.060894 
L 258.26735 134.960549 
L 258.110537 131.071521 
z
M 257.816749 130.223294 
L 259.056366 130.17331 
L 259.247803 134.921015 
L 260.287583 134.879089 
L 260.320633 135.698735 
L 259.280853 135.740661 
L 259.3501 137.458016 
L 258.369646 137.497549 
L 258.300399 135.780195 
L 255.012446 135.912772 
L 254.974109 134.961982 
L 257.816749 130.223294 
z
" clip-path="url(#p025548645a)" style="fill: #de4968"/>
   </g>
   <g id="text_19">
    <path d="M 310.537207 189.606939 
L 312.147053 189.547624 
L 311.942239 183.988896 
L 310.203247 184.404771 
L 310.170166 183.506943 
L 311.899789 183.091413 
L 312.885058 183.05511 
L 313.122953 189.511666 
L 314.732798 189.452351 
L 314.763347 190.281476 
L 310.567757 190.436064 
L 310.537207 189.606939 
z
M 317.572863 189.347707 
L 321.012716 189.220964 
L 321.043266 190.050089 
L 316.418279 190.220499 
L 316.38773 189.391374 
Q 316.926885 188.789864 317.858963 187.776733 
Q 318.792545 186.761982 319.030343 186.468652 
Q 319.483899 185.92033 319.657694 185.544926 
Q 319.833051 185.169465 319.819933 184.813457 
Q 319.798531 184.232601 319.377533 183.88224 
Q 318.956477 183.530317 318.302233 183.554423 
Q 317.838486 183.57151 317.329136 183.751324 
Q 316.821348 183.93108 316.24789 184.280557 
L 316.211184 183.284358 
Q 316.797291 183.023538 317.30964 182.882703 
Q 317.823551 182.74181 318.252947 182.725988 
Q 319.384991 182.684278 320.078856 183.226284 
Q 320.772663 183.766729 320.807528 184.712962 
Q 320.824097 185.162657 320.670305 185.571722 
Q 320.518016 185.979168 320.093142 186.542069 
Q 319.976585 186.688648 319.347253 187.388857 
Q 318.719482 188.08901 317.572863 189.347707 
z
M 325.092433 186.436046 
Q 324.389785 186.461935 324.000798 186.853086 
Q 323.613373 187.244179 323.637594 187.901545 
Q 323.661873 188.560473 324.077028 188.921994 
Q 324.493745 189.283458 325.196393 189.257569 
Q 325.899041 189.231679 326.289532 188.83891 
Q 326.681526 188.444522 326.65742 187.790278 
Q 326.633199 187.132912 326.216482 186.771448 
Q 325.801327 186.409926 325.092433 186.436046 
z
M 324.091745 186.053883 
Q 323.452047 185.921097 323.081606 185.500076 
Q 322.712669 185.077436 322.689657 184.45286 
Q 322.657496 183.580015 323.260252 183.049649 
Q 323.864569 182.519226 324.946647 182.479356 
Q 326.034971 182.439256 326.673561 182.923884 
Q 327.31215 183.408512 327.344311 184.281357 
Q 327.367324 184.905933 327.028928 185.354635 
Q 326.692036 185.801718 326.068529 185.981047 
Q 326.786644 186.120325 327.201085 186.589759 
Q 327.61703 187.057573 327.642689 187.753975 
Q 327.681753 188.814194 327.056201 189.404815 
Q 326.430591 189.993874 325.225159 190.038289 
Q 324.021289 190.082646 323.352464 189.541281 
Q 322.685144 188.998296 322.64608 187.938078 
Q 322.62042 187.241676 323.002372 186.744462 
Q 323.385827 186.24563 324.091745 186.053883 
z
M 323.673693 184.510416 
Q 323.69452 185.075658 324.059084 185.379628 
Q 324.42521 185.683541 325.063839 185.66001 
Q 325.699346 185.636595 326.045237 185.306447 
Q 326.392689 184.976242 326.371862 184.411001 
Q 326.350978 183.844198 325.980168 183.540458 
Q 325.610919 183.236661 324.975413 183.260076 
Q 324.336784 183.283607 323.994016 183.613639 
Q 323.652809 183.943614 323.673693 184.510416 
z
" clip-path="url(#p025548645a)" style="fill: #fe9f6d; stroke: #ffffff; stroke-width: 5"/>
    <path d="M 310.537207 189.606939 
L 312.147053 189.547624 
L 311.942239 183.988896 
L 310.203247 184.404771 
L 310.170166 183.506943 
L 311.899789 183.091413 
L 312.885058 183.05511 
L 313.122953 189.511666 
L 314.732798 189.452351 
L 314.763347 190.281476 
L 310.567757 190.436064 
L 310.537207 189.606939 
z
M 317.572863 189.347707 
L 321.012716 189.220964 
L 321.043266 190.050089 
L 316.418279 190.220499 
L 316.38773 189.391374 
Q 316.926885 188.789864 317.858963 187.776733 
Q 318.792545 186.761982 319.030343 186.468652 
Q 319.483899 185.92033 319.657694 185.544926 
Q 319.833051 185.169465 319.819933 184.813457 
Q 319.798531 184.232601 319.377533 183.88224 
Q 318.956477 183.530317 318.302233 183.554423 
Q 317.838486 183.57151 317.329136 183.751324 
Q 316.821348 183.93108 316.24789 184.280557 
L 316.211184 183.284358 
Q 316.797291 183.023538 317.30964 182.882703 
Q 317.823551 182.74181 318.252947 182.725988 
Q 319.384991 182.684278 320.078856 183.226284 
Q 320.772663 183.766729 320.807528 184.712962 
Q 320.824097 185.162657 320.670305 185.571722 
Q 320.518016 185.979168 320.093142 186.542069 
Q 319.976585 186.688648 319.347253 187.388857 
Q 318.719482 188.08901 317.572863 189.347707 
z
M 325.092433 186.436046 
Q 324.389785 186.461935 324.000798 186.853086 
Q 323.613373 187.244179 323.637594 187.901545 
Q 323.661873 188.560473 324.077028 188.921994 
Q 324.493745 189.283458 325.196393 189.257569 
Q 325.899041 189.231679 326.289532 188.83891 
Q 326.681526 188.444522 326.65742 187.790278 
Q 326.633199 187.132912 326.216482 186.771448 
Q 325.801327 186.409926 325.092433 186.436046 
z
M 324.091745 186.053883 
Q 323.452047 185.921097 323.081606 185.500076 
Q 322.712669 185.077436 322.689657 184.45286 
Q 322.657496 183.580015 323.260252 183.049649 
Q 323.864569 182.519226 324.946647 182.479356 
Q 326.034971 182.439256 326.673561 182.923884 
Q 327.31215 183.408512 327.344311 184.281357 
Q 327.367324 184.905933 327.028928 185.354635 
Q 326.692036 185.801718 326.068529 185.981047 
Q 326.786644 186.120325 327.201085 186.589759 
Q 327.61703 187.057573 327.642689 187.753975 
Q 327.681753 188.814194 327.056201 189.404815 
Q 326.430591 189.993874 325.225159 190.038289 
Q 324.021289 190.082646 323.352464 189.541281 
Q 322.685144 188.998296 322.64608 187.938078 
Q 322.62042 187.241676 323.002372 186.744462 
Q 323.385827 186.24563 324.091745 186.053883 
z
M 323.673693 184.510416 
Q 323.69452 185.075658 324.059084 185.379628 
Q 324.42521 185.683541 325.063839 185.66001 
Q 325.699346 185.636595 326.045237 185.306447 
Q 326.392689 184.976242 326.371862 184.411001 
Q 326.350978 183.844198 325.980168 183.540458 
Q 325.610919 183.236661 324.975413 183.260076 
Q 324.336784 183.283607 323.994016 183.613639 
Q 323.652809 183.943614 323.673693 184.510416 
z
" clip-path="url(#p025548645a)" style="fill: #fe9f6d"/>
   </g>
   <g id="patch_3">
    <path d="M 43.78125 301.735725 
L 43.78125 35.623725 
" style="fill: none; stroke: #cccccc; stroke-width: 0.8; stroke-linejoin: miter; stroke-linecap: square"/>
   </g>
   <g id="patch_4">
    <path d="M 400.90125 301.735725 
L 400.90125 35.623725 
" style="fill: none; stroke: #cccccc; stroke-width: 0.8; stroke-linejoin: miter; stroke-linecap: square"/>
   </g>
   <g id="patch_5">
    <path d="M 43.78125 301.735725 
L 400.90125 301.735725 
" style="fill: none; stroke: #cccccc; stroke-width: 0.8; stroke-linejoin: miter; stroke-linecap: square"/>
   </g>
   <g id="patch_6">
    <path d="M 43.78125 35.623725 
L 400.90125 35.623725 
" style="fill: none; stroke: #cccccc; stroke-width: 0.8; stroke-linejoin: miter; stroke-linecap: square"/>
   </g>
   <g id="text_20">
    <!-- Block Size = 16K, Read-Write Type = Random Write-only -->
    <g style="fill: #262626; opacity: 0.75" transform="translate(81.007656 30.882918) scale(0.1 -0.1)">
     <defs>
      <path id="DejaVuSans-6c" d="M 603 4863 
L 1178 4863 
L 1178 0 
L 603 0 
L 603 4863 
z
" transform="scale(0.015625)"/>
      <path id="DejaVuSans-6f" d="M 1959 3097 
Q 1497 3097 1228 2736 
Q 959 2375 959 1747 
Q 959 1119 1226 758 
Q 1494 397 1959 397 
Q 2419 397 2687 759 
Q 2956 1122 2956 1747 
Q 2956 2369 2687 2733 
Q 2419 3097 1959 3097 
z
M 1959 3584 
Q 2709 3584 3137 3096 
Q 3566 2609 3566 1747 
Q 3566 888 3137 398 
Q 2709 -91 1959 -91 
Q 1206 -91 779 398 
Q 353 888 353 1747 
Q 353 2609 779 3096 
Q 1206 3584 1959 3584 
z
" transform="scale(0.015625)"/>
      <path id="DejaVuSans-63" d="M 3122 3366 
L 3122 2828 
Q 2878 2963 2633 3030 
Q 2388 3097 2138 3097 
Q 1578 3097 1268 2742 
Q 959 2388 959 1747 
Q 959 1106 1268 751 
Q 1578 397 2138 397 
Q 2388 397 2633 464 
Q 2878 531 3122 666 
L 3122 134 
Q 2881 22 2623 -34 
Q 2366 -91 2075 -91 
Q 1284 -91 818 406 
Q 353 903 353 1747 
Q 353 2603 823 3093 
Q 1294 3584 2113 3584 
Q 2378 3584 2631 3529 
Q 2884 3475 3122 3366 
z
" transform="scale(0.015625)"/>
      <path id="DejaVuSans-6b" d="M 581 4863 
L 1159 4863 
L 1159 1991 
L 2875 3500 
L 3609 3500 
L 1753 1863 
L 3688 0 
L 2938 0 
L 1159 1709 
L 1159 0 
L 581 0 
L 581 4863 
z
" transform="scale(0.015625)"/>
      <path id="DejaVuSans-53" d="M 3425 4513 
L 3425 3897 
Q 3066 4069 2747 4153 
Q 2428 4238 2131 4238 
Q 1616 4238 1336 4038 
Q 1056 3838 1056 3469 
Q 1056 3159 1242 3001 
Q 1428 2844 1947 2747 
L 2328 2669 
Q 3034 2534 3370 2195 
Q 3706 1856 3706 1288 
Q 3706 609 3251 259 
Q 2797 -91 1919 -91 
Q 1588 -91 1214 -16 
Q 841 59 441 206 
L 441 856 
Q 825 641 1194 531 
Q 1563 422 1919 422 
Q 2459 422 2753 634 
Q 3047 847 3047 1241 
Q 3047 1584 2836 1778 
Q 2625 1972 2144 2069 
L 1759 2144 
Q 1053 2284 737 2584 
Q 422 2884 422 3419 
Q 422 4038 858 4394 
Q 1294 4750 2059 4750 
Q 2388 4750 2728 4690 
Q 3069 4631 3425 4513 
z
" transform="scale(0.015625)"/>
      <path id="DejaVuSans-7a" d="M 353 3500 
L 3084 3500 
L 3084 2975 
L 922 459 
L 3084 459 
L 3084 0 
L 275 0 
L 275 525 
L 2438 3041 
L 353 3041 
L 353 3500 
z
" transform="scale(0.015625)"/>
      <path id="DejaVuSans-3d" d="M 678 2906 
L 4684 2906 
L 4684 2381 
L 678 2381 
L 678 2906 
z
M 678 1631 
L 4684 1631 
L 4684 1100 
L 678 1100 
L 678 1631 
z
" transform="scale(0.015625)"/>
      <path id="DejaVuSans-4b" d="M 628 4666 
L 1259 4666 
L 1259 2694 
L 3353 4666 
L 4166 4666 
L 1850 2491 
L 4331 0 
L 3500 0 
L 1259 2247 
L 1259 0 
L 628 0 
L 628 4666 
z
" transform="scale(0.015625)"/>
      <path id="DejaVuSans-2c" d="M 750 794 
L 1409 794 
L 1409 256 
L 897 -744 
L 494 -744 
L 750 256 
L 750 794 
z
" transform="scale(0.015625)"/>
      <path id="DejaVuSans-52" d="M 2841 2188 
Q 3044 2119 3236 1894 
Q 3428 1669 3622 1275 
L 4263 0 
L 3584 0 
L 2988 1197 
Q 2756 1666 2539 1819 
Q 2322 1972 1947 1972 
L 1259 1972 
L 1259 0 
L 628 0 
L 628 4666 
L 2053 4666 
Q 2853 4666 3247 4331 
Q 3641 3997 3641 3322 
Q 3641 2881 3436 2590 
Q 3231 2300 2841 2188 
z
M 1259 4147 
L 1259 2491 
L 2053 2491 
Q 2509 2491 2742 2702 
Q 2975 2913 2975 3322 
Q 2975 3731 2742 3939 
Q 2509 4147 2053 4147 
L 1259 4147 
z
" transform="scale(0.015625)"/>
      <path id="DejaVuSans-2d" d="M 313 2009 
L 1997 2009 
L 1997 1497 
L 313 1497 
L 313 2009 
z
" transform="scale(0.015625)"/>
      <path id="DejaVuSans-57" d="M 213 4666 
L 850 4666 
L 1831 722 
L 2809 4666 
L 3519 4666 
L 4500 722 
L 5478 4666 
L 6119 4666 
L 4947 0 
L 4153 0 
L 3169 4050 
L 2175 0 
L 1381 0 
L 213 4666 
z
" transform="scale(0.015625)"/>
      <path id="DejaVuSans-72" d="M 2631 2963 
Q 2534 3019 2420 3045 
Q 2306 3072 2169 3072 
Q 1681 3072 1420 2755 
Q 1159 2438 1159 1844 
L 1159 0 
L 581 0 
L 581 3500 
L 1159 3500 
L 1159 2956 
Q 1341 3275 1631 3429 
Q 1922 3584 2338 3584 
Q 2397 3584 2469 3576 
Q 2541 3569 2628 3553 
L 2631 2963 
z
" transform="scale(0.015625)"/>
      <path id="DejaVuSans-54" d="M -19 4666 
L 3928 4666 
L 3928 4134 
L 2272 4134 
L 2272 0 
L 1638 0 
L 1638 4134 
L -19 4134 
L -19 4666 
z
" transform="scale(0.015625)"/>
      <path id="DejaVuSans-79" d="M 2059 -325 
Q 1816 -950 1584 -1140 
Q 1353 -1331 966 -1331 
L 506 -1331 
L 506 -850 
L 844 -850 
Q 1081 -850 1212 -737 
Q 1344 -625 1503 -206 
L 1606 56 
L 191 3500 
L 800 3500 
L 1894 763 
L 2988 3500 
L 3597 3500 
L 2059 -325 
z
" transform="scale(0.015625)"/>
      <path id="DejaVuSans-6d" d="M 3328 2828 
Q 3544 3216 3844 3400 
Q 4144 3584 4550 3584 
Q 5097 3584 5394 3201 
Q 5691 2819 5691 2113 
L 5691 0 
L 5113 0 
L 5113 2094 
Q 5113 2597 4934 2840 
Q 4756 3084 4391 3084 
Q 3944 3084 3684 2787 
Q 3425 2491 3425 1978 
L 3425 0 
L 2847 0 
L 2847 2094 
Q 2847 2600 2669 2842 
Q 2491 3084 2119 3084 
Q 1678 3084 1418 2786 
Q 1159 2488 1159 1978 
L 1159 0 
L 581 0 
L 581 3500 
L 1159 3500 
L 1159 2956 
Q 1356 3278 1631 3431 
Q 1906 3584 2284 3584 
Q 2666 3584 2933 3390 
Q 3200 3197 3328 2828 
z
" transform="scale(0.015625)"/>
     </defs>
     <use xlink:href="#DejaVuSans-42"/>
     <use xlink:href="#DejaVuSans-6c" transform="translate(68.603516 0)"/>
     <use xlink:href="#DejaVuSans-6f" transform="translate(96.386719 0)"/>
     <use xlink:href="#DejaVuSans-63" transform="translate(157.568359 0)"/>
     <use xlink:href="#DejaVuSans-6b" transform="translate(212.548828 0)"/>
     <use xlink:href="#DejaVuSans-20" transform="translate(270.458984 0)"/>
     <use xlink:href="#DejaVuSans-53" transform="translate(302.246094 0)"/>
     <use xlink:href="#DejaVuSans-69" transform="translate(365.722656 0)"/>
     <use xlink:href="#DejaVuSans-7a" transform="translate(393.505859 0)"/>
     <use xlink:href="#DejaVuSans-65" transform="translate(445.996094 0)"/>
     <use xlink:href="#DejaVuSans-20" transform="translate(507.519531 0)"/>
     <use xlink:href="#DejaVuSans-3d" transform="translate(539.306641 0)"/>
     <use xlink:href="#DejaVuSans-20" transform="translate(623.095703 0)"/>
     <use xlink:href="#DejaVuSans-31" transform="translate(654.882812 0)"/>
     <use xlink:href="#DejaVuSans-36" transform="translate(718.505859 0)"/>
     <use xlink:href="#DejaVuSans-4b" transform="translate(782.128906 0)"/>
     <use xlink:href="#DejaVuSans-2c" transform="translate(847.705078 0)"/>
     <use xlink:href="#DejaVuSans-20" transform="translate(879.492188 0)"/>
     <use xlink:href="#DejaVuSans-52" transform="translate(911.279297 0)"/>
     <use xlink:href="#DejaVuSans-65" transform="translate(976.261719 0)"/>
     <use xlink:href="#DejaVuSans-61" transform="translate(1037.785156 0)"/>
     <use xlink:href="#DejaVuSans-64" transform="translate(1099.064453 0)"/>
     <use xlink:href="#DejaVuSans-2d" transform="translate(1162.541016 0)"/>
     <use xlink:href="#DejaVuSans-57" transform="translate(1194.625 0)"/>
     <use xlink:href="#DejaVuSans-72" transform="translate(1289.001953 0)"/>
     <use xlink:href="#DejaVuSans-69" transform="translate(1330.115234 0)"/>
     <use xlink:href="#DejaVuSans-74" transform="translate(1357.898438 0)"/>
     <use xlink:href="#DejaVuSans-65" transform="translate(1397.107422 0)"/>
     <use xlink:href="#DejaVuSans-20" transform="translate(1458.630859 0)"/>
     <use xlink:href="#DejaVuSans-54" transform="translate(1490.417969 0)"/>
     <use xlink:href="#DejaVuSans-79" transform="translate(1535.876953 0)"/>
     <use xlink:href="#DejaVuSans-70" transform="translate(1595.056641 0)"/>
     <use xlink:href="#DejaVuSans-65" transform="translate(1658.533203 0)"/>
     <use xlink:href="#DejaVuSans-20" transform="translate(1720.056641 0)"/>
     <use xlink:href="#DejaVuSans-3d" transform="translate(1751.84375 0)"/>
     <use xlink:href="#DejaVuSans-20" transform="translate(1835.632812 0)"/>
     <use xlink:href="#DejaVuSans-52" transform="translate(1867.419922 0)"/>
     <use xlink:href="#DejaVuSans-61" transform="translate(1934.652344 0)"/>
     <use xlink:href="#DejaVuSans-6e" transform="translate(1995.931641 0)"/>
     <use xlink:href="#DejaVuSans-64" transform="translate(2059.310547 0)"/>
     <use xlink:href="#DejaVuSans-6f" transform="translate(2122.787109 0)"/>
     <use xlink:href="#DejaVuSans-6d" transform="translate(2183.96875 0)"/>
     <use xlink:href="#DejaVuSans-20" transform="translate(2281.380859 0)"/>
     <use xlink:href="#DejaVuSans-57" transform="translate(2313.167969 0)"/>
     <use xlink:href="#DejaVuSans-72" transform="translate(2407.544922 0)"/>
     <use xlink:href="#DejaVuSans-69" transform="translate(2448.658203 0)"/>
     <use xlink:href="#DejaVuSans-74" transform="translate(2476.441406 0)"/>
     <use xlink:href="#DejaVuSans-65" transform="translate(2515.650391 0)"/>
     <use xlink:href="#DejaVuSans-2d" transform="translate(2577.173828 0)"/>
     <use xlink:href="#DejaVuSans-6f" transform="translate(2615.132812 0)"/>
     <use xlink:href="#DejaVuSans-6e" transform="translate(2676.314453 0)"/>
     <use xlink:href="#DejaVuSans-6c" transform="translate(2739.693359 0)"/>
     <use xlink:href="#DejaVuSans-79" transform="translate(2767.476562 0)"/>
    </g>
   </g>
   <g id="text_21">
    <!-- Mean Bandwidth vs IO Depth -->
    <g style="fill: #262626" transform="translate(124.103438 16.318125) scale(0.12 -0.12)">
     <defs>
      <path id="DejaVuSans-Bold-4d" d="M 588 4666 
L 2119 4666 
L 3181 2169 
L 4250 4666 
L 5778 4666 
L 5778 0 
L 4641 0 
L 4641 3413 
L 3566 897 
L 2803 897 
L 1728 3413 
L 1728 0 
L 588 0 
L 588 4666 
z
" transform="scale(0.015625)"/>
      <path id="DejaVuSans-Bold-65" d="M 4031 1759 
L 4031 1441 
L 1416 1441 
Q 1456 1047 1700 850 
Q 1944 653 2381 653 
Q 2734 653 3104 758 
Q 3475 863 3866 1075 
L 3866 213 
Q 3469 63 3072 -14 
Q 2675 -91 2278 -91 
Q 1328 -91 801 392 
Q 275 875 275 1747 
Q 275 2603 792 3093 
Q 1309 3584 2216 3584 
Q 3041 3584 3536 3087 
Q 4031 2591 4031 1759 
z
M 2881 2131 
Q 2881 2450 2695 2645 
Q 2509 2841 2209 2841 
Q 1884 2841 1681 2658 
Q 1478 2475 1428 2131 
L 2881 2131 
z
" transform="scale(0.015625)"/>
      <path id="DejaVuSans-Bold-61" d="M 2106 1575 
Q 1756 1575 1579 1456 
Q 1403 1338 1403 1106 
Q 1403 894 1545 773 
Q 1688 653 1941 653 
Q 2256 653 2472 879 
Q 2688 1106 2688 1447 
L 2688 1575 
L 2106 1575 
z
M 3816 1997 
L 3816 0 
L 2688 0 
L 2688 519 
Q 2463 200 2181 54 
Q 1900 -91 1497 -91 
Q 953 -91 614 226 
Q 275 544 275 1050 
Q 275 1666 698 1953 
Q 1122 2241 2028 2241 
L 2688 2241 
L 2688 2328 
Q 2688 2594 2478 2717 
Q 2269 2841 1825 2841 
Q 1466 2841 1156 2769 
Q 847 2697 581 2553 
L 581 3406 
Q 941 3494 1303 3539 
Q 1666 3584 2028 3584 
Q 2975 3584 3395 3211 
Q 3816 2838 3816 1997 
z
" transform="scale(0.015625)"/>
      <path id="DejaVuSans-Bold-6e" d="M 4056 2131 
L 4056 0 
L 2931 0 
L 2931 347 
L 2931 1631 
Q 2931 2084 2911 2256 
Q 2891 2428 2841 2509 
Q 2775 2619 2662 2680 
Q 2550 2741 2406 2741 
Q 2056 2741 1856 2470 
Q 1656 2200 1656 1722 
L 1656 0 
L 538 0 
L 538 3500 
L 1656 3500 
L 1656 2988 
Q 1909 3294 2193 3439 
Q 2478 3584 2822 3584 
Q 3428 3584 3742 3212 
Q 4056 2841 4056 2131 
z
" transform="scale(0.015625)"/>
      <path id="DejaVuSans-Bold-20" transform="scale(0.015625)"/>
      <path id="DejaVuSans-Bold-42" d="M 2456 2859 
Q 2741 2859 2887 2984 
Q 3034 3109 3034 3353 
Q 3034 3594 2887 3720 
Q 2741 3847 2456 3847 
L 1791 3847 
L 1791 2859 
L 2456 2859 
z
M 2497 819 
Q 2859 819 3042 972 
Q 3225 1125 3225 1434 
Q 3225 1738 3044 1889 
Q 2863 2041 2497 2041 
L 1791 2041 
L 1791 819 
L 2497 819 
z
M 3616 2497 
Q 4003 2384 4215 2081 
Q 4428 1778 4428 1338 
Q 4428 663 3972 331 
Q 3516 0 2584 0 
L 588 0 
L 588 4666 
L 2394 4666 
Q 3366 4666 3802 4372 
Q 4238 4078 4238 3431 
Q 4238 3091 4078 2852 
Q 3919 2613 3616 2497 
z
" transform="scale(0.015625)"/>
      <path id="DejaVuSans-Bold-64" d="M 2919 2988 
L 2919 4863 
L 4044 4863 
L 4044 0 
L 2919 0 
L 2919 506 
Q 2688 197 2409 53 
Q 2131 -91 1766 -91 
Q 1119 -91 703 423 
Q 288 938 288 1747 
Q 288 2556 703 3070 
Q 1119 3584 1766 3584 
Q 2128 3584 2408 3439 
Q 2688 3294 2919 2988 
z
M 2181 722 
Q 2541 722 2730 984 
Q 2919 1247 2919 1747 
Q 2919 2247 2730 2509 
Q 2541 2772 2181 2772 
Q 1825 2772 1636 2509 
Q 1447 2247 1447 1747 
Q 1447 1247 1636 984 
Q 1825 722 2181 722 
z
" transform="scale(0.015625)"/>
      <path id="DejaVuSans-Bold-77" d="M 225 3500 
L 1313 3500 
L 1900 1088 
L 2491 3500 
L 3425 3500 
L 4013 1113 
L 4603 3500 
L 5691 3500 
L 4769 0 
L 3547 0 
L 2956 2406 
L 2369 0 
L 1147 0 
L 225 3500 
z
" transform="scale(0.015625)"/>
      <path id="DejaVuSans-Bold-69" d="M 538 3500 
L 1656 3500 
L 1656 0 
L 538 0 
L 538 3500 
z
M 538 4863 
L 1656 4863 
L 1656 3950 
L 538 3950 
L 538 4863 
z
" transform="scale(0.015625)"/>
      <path id="DejaVuSans-Bold-74" d="M 1759 4494 
L 1759 3500 
L 2913 3500 
L 2913 2700 
L 1759 2700 
L 1759 1216 
Q 1759 972 1856 886 
Q 1953 800 2241 800 
L 2816 800 
L 2816 0 
L 1856 0 
Q 1194 0 917 276 
Q 641 553 641 1216 
L 641 2700 
L 84 2700 
L 84 3500 
L 641 3500 
L 641 4494 
L 1759 4494 
z
" transform="scale(0.015625)"/>
      <path id="DejaVuSans-Bold-68" d="M 4056 2131 
L 4056 0 
L 2931 0 
L 2931 347 
L 2931 1625 
Q 2931 2084 2911 2256 
Q 2891 2428 2841 2509 
Q 2775 2619 2662 2680 
Q 2550 2741 2406 2741 
Q 2056 2741 1856 2470 
Q 1656 2200 1656 1722 
L 1656 0 
L 538 0 
L 538 4863 
L 1656 4863 
L 1656 2988 
Q 1909 3294 2193 3439 
Q 2478 3584 2822 3584 
Q 3428 3584 3742 3212 
Q 4056 2841 4056 2131 
z
" transform="scale(0.015625)"/>
      <path id="DejaVuSans-Bold-76" d="M 97 3500 
L 1216 3500 
L 2088 1081 
L 2956 3500 
L 4078 3500 
L 2700 0 
L 1472 0 
L 97 3500 
z
" transform="scale(0.015625)"/>
      <path id="DejaVuSans-Bold-73" d="M 3272 3391 
L 3272 2541 
Q 2913 2691 2578 2766 
Q 2244 2841 1947 2841 
Q 1628 2841 1473 2761 
Q 1319 2681 1319 2516 
Q 1319 2381 1436 2309 
Q 1553 2238 1856 2203 
L 2053 2175 
Q 2913 2066 3209 1816 
Q 3506 1566 3506 1031 
Q 3506 472 3093 190 
Q 2681 -91 1863 -91 
Q 1516 -91 1145 -36 
Q 775 19 384 128 
L 384 978 
Q 719 816 1070 734 
Q 1422 653 1784 653 
Q 2113 653 2278 743 
Q 2444 834 2444 1013 
Q 2444 1163 2330 1236 
Q 2216 1309 1875 1350 
L 1678 1375 
Q 931 1469 631 1722 
Q 331 1975 331 2491 
Q 331 3047 712 3315 
Q 1094 3584 1881 3584 
Q 2191 3584 2531 3537 
Q 2872 3491 3272 3391 
z
" transform="scale(0.015625)"/>
      <path id="DejaVuSans-Bold-49" d="M 588 4666 
L 1791 4666 
L 1791 0 
L 588 0 
L 588 4666 
z
" transform="scale(0.015625)"/>
      <path id="DejaVuSans-Bold-4f" d="M 2719 3878 
Q 2169 3878 1866 3472 
Q 1563 3066 1563 2328 
Q 1563 1594 1866 1187 
Q 2169 781 2719 781 
Q 3272 781 3575 1187 
Q 3878 1594 3878 2328 
Q 3878 3066 3575 3472 
Q 3272 3878 2719 3878 
z
M 2719 4750 
Q 3844 4750 4481 4106 
Q 5119 3463 5119 2328 
Q 5119 1197 4481 553 
Q 3844 -91 2719 -91 
Q 1597 -91 958 553 
Q 319 1197 319 2328 
Q 319 3463 958 4106 
Q 1597 4750 2719 4750 
z
" transform="scale(0.015625)"/>
      <path id="DejaVuSans-Bold-44" d="M 1791 3756 
L 1791 909 
L 2222 909 
Q 2959 909 3348 1275 
Q 3738 1641 3738 2338 
Q 3738 3031 3350 3393 
Q 2963 3756 2222 3756 
L 1791 3756 
z
M 588 4666 
L 1856 4666 
Q 2919 4666 3439 4514 
Q 3959 4363 4331 4000 
Q 4659 3684 4818 3271 
Q 4978 2859 4978 2338 
Q 4978 1809 4818 1395 
Q 4659 981 4331 666 
Q 3956 303 3431 151 
Q 2906 0 1856 0 
L 588 0 
L 588 4666 
z
" transform="scale(0.015625)"/>
      <path id="DejaVuSans-Bold-70" d="M 1656 506 
L 1656 -1331 
L 538 -1331 
L 538 3500 
L 1656 3500 
L 1656 2988 
Q 1888 3294 2169 3439 
Q 2450 3584 2816 3584 
Q 3463 3584 3878 3070 
Q 4294 2556 4294 1747 
Q 4294 938 3878 423 
Q 3463 -91 2816 -91 
Q 2450 -91 2169 54 
Q 1888 200 1656 506 
z
M 2400 2772 
Q 2041 2772 1848 2508 
Q 1656 2244 1656 1747 
Q 1656 1250 1848 986 
Q 2041 722 2400 722 
Q 2759 722 2948 984 
Q 3138 1247 3138 1747 
Q 3138 2247 2948 2509 
Q 2759 2772 2400 2772 
z
" transform="scale(0.015625)"/>
     </defs>
     <use xlink:href="#DejaVuSans-Bold-4d"/>
     <use xlink:href="#DejaVuSans-Bold-65" transform="translate(99.511719 0)"/>
     <use xlink:href="#DejaVuSans-Bold-61" transform="translate(167.333984 0)"/>
     <use xlink:href="#DejaVuSans-Bold-6e" transform="translate(234.814453 0)"/>
     <use xlink:href="#DejaVuSans-Bold-20" transform="translate(306.005859 0)"/>
     <use xlink:href="#DejaVuSans-Bold-42" transform="translate(340.820312 0)"/>
     <use xlink:href="#DejaVuSans-Bold-61" transform="translate(417.041016 0)"/>
     <use xlink:href="#DejaVuSans-Bold-6e" transform="translate(484.521484 0)"/>
     <use xlink:href="#DejaVuSans-Bold-64" transform="translate(555.712891 0)"/>
     <use xlink:href="#DejaVuSans-Bold-77" transform="translate(627.294922 0)"/>
     <use xlink:href="#DejaVuSans-Bold-69" transform="translate(719.677734 0)"/>
     <use xlink:href="#DejaVuSans-Bold-64" transform="translate(753.955078 0)"/>
     <use xlink:href="#DejaVuSans-Bold-74" transform="translate(825.537109 0)"/>
     <use xlink:href="#DejaVuSans-Bold-68" transform="translate(873.339844 0)"/>
     <use xlink:href="#DejaVuSans-Bold-20" transform="translate(944.53125 0)"/>
     <use xlink:href="#DejaVuSans-Bold-76" transform="translate(979.345703 0)"/>
     <use xlink:href="#DejaVuSans-Bold-73" transform="translate(1044.53125 0)"/>
     <use xlink:href="#DejaVuSans-Bold-20" transform="translate(1104.052734 0)"/>
     <use xlink:href="#DejaVuSans-Bold-49" transform="translate(1138.867188 0)"/>
     <use xlink:href="#DejaVuSans-Bold-4f" transform="translate(1176.074219 0)"/>
     <use xlink:href="#DejaVuSans-Bold-20" transform="translate(1261.083984 0)"/>
     <use xlink:href="#DejaVuSans-Bold-44" transform="translate(1295.898438 0)"/>
     <use xlink:href="#DejaVuSans-Bold-65" transform="translate(1378.90625 0)"/>
     <use xlink:href="#DejaVuSans-Bold-70" transform="translate(1446.728516 0)"/>
     <use xlink:href="#DejaVuSans-Bold-74" transform="translate(1518.310547 0)"/>
     <use xlink:href="#DejaVuSans-Bold-68" transform="translate(1566.113281 0)"/>
    </g>
   </g>
   <g id="legend_1">
    <g id="text_22">
     <!-- Number of Jobs -->
     <g style="fill: #262626" transform="translate(404.3875 142.08285) scale(0.1 -0.1)">
      <defs>
       <path id="DejaVuSans-4e" d="M 628 4666 
L 1478 4666 
L 3547 763 
L 3547 4666 
L 4159 4666 
L 4159 0 
L 3309 0 
L 1241 3903 
L 1241 0 
L 628 0 
L 628 4666 
z
" transform="scale(0.015625)"/>
       <path id="DejaVuSans-75" d="M 544 1381 
L 544 3500 
L 1119 3500 
L 1119 1403 
Q 1119 906 1312 657 
Q 1506 409 1894 409 
Q 2359 409 2629 706 
Q 2900 1003 2900 1516 
L 2900 3500 
L 3475 3500 
L 3475 0 
L 2900 0 
L 2900 538 
Q 2691 219 2414 64 
Q 2138 -91 1772 -91 
Q 1169 -91 856 284 
Q 544 659 544 1381 
z
M 1991 3584 
L 1991 3584 
z
" transform="scale(0.015625)"/>
       <path id="DejaVuSans-62" d="M 3116 1747 
Q 3116 2381 2855 2742 
Q 2594 3103 2138 3103 
Q 1681 3103 1420 2742 
Q 1159 2381 1159 1747 
Q 1159 1113 1420 752 
Q 1681 391 2138 391 
Q 2594 391 2855 752 
Q 3116 1113 3116 1747 
z
M 1159 2969 
Q 1341 3281 1617 3432 
Q 1894 3584 2278 3584 
Q 2916 3584 3314 3078 
Q 3713 2572 3713 1747 
Q 3713 922 3314 415 
Q 2916 -91 2278 -91 
Q 1894 -91 1617 61 
Q 1341 213 1159 525 
L 1159 0 
L 581 0 
L 581 4863 
L 1159 4863 
L 1159 2969 
z
" transform="scale(0.015625)"/>
       <path id="DejaVuSans-66" d="M 2375 4863 
L 2375 4384 
L 1825 4384 
Q 1516 4384 1395 4259 
Q 1275 4134 1275 3809 
L 1275 3500 
L 2222 3500 
L 2222 3053 
L 1275 3053 
L 1275 0 
L 697 0 
L 697 3053 
L 147 3053 
L 147 3500 
L 697 3500 
L 697 3744 
Q 697 4328 969 4595 
Q 1241 4863 1831 4863 
L 2375 4863 
z
" transform="scale(0.015625)"/>
       <path id="DejaVuSans-4a" d="M 628 4666 
L 1259 4666 
L 1259 325 
Q 1259 -519 939 -900 
Q 619 -1281 -91 -1281 
L -331 -1281 
L -331 -750 
L -134 -750 
Q 284 -750 456 -515 
Q 628 -281 628 325 
L 628 4666 
z
" transform="scale(0.015625)"/>
      </defs>
      <use xlink:href="#DejaVuSans-4e"/>
      <use xlink:href="#DejaVuSans-75" transform="translate(74.804688 0)"/>
      <use xlink:href="#DejaVuSans-6d" transform="translate(138.183594 0)"/>
      <use xlink:href="#DejaVuSans-62" transform="translate(235.595703 0)"/>
      <use xlink:href="#DejaVuSans-65" transform="translate(299.072266 0)"/>
      <use xlink:href="#DejaVuSans-72" transform="translate(360.595703 0)"/>
      <use xlink:href="#DejaVuSans-20" transform="translate(401.708984 0)"/>
      <use xlink:href="#DejaVuSans-6f" transform="translate(433.496094 0)"/>
      <use xlink:href="#DejaVuSans-66" transform="translate(494.677734 0)"/>
      <use xlink:href="#DejaVuSans-20" transform="translate(529.882812 0)"/>
      <use xlink:href="#DejaVuSans-4a" transform="translate(561.669922 0)"/>
      <use xlink:href="#DejaVuSans-6f" transform="translate(591.162109 0)"/>
      <use xlink:href="#DejaVuSans-62" transform="translate(652.34375 0)"/>
      <use xlink:href="#DejaVuSans-73" transform="translate(715.820312 0)"/>
     </g>
    </g>
    <g id="line2d_22">
     <path d="M 419.240625 153.260975 
L 429.240625 153.260975 
L 439.240625 153.260975 
" style="fill: none; stroke: #3b0f70; stroke-width: 1.5; stroke-linecap: round"/>
    </g>
    <g id="text_23">
     <!-- 16 -->
     <g style="fill: #262626" transform="translate(447.240625 156.760975) scale(0.1 -0.1)">
      <use xlink:href="#DejaVuSans-31"/>
      <use xlink:href="#DejaVuSans-36" transform="translate(63.623047 0)"/>
     </g>
    </g>
    <g id="line2d_23">
     <path d="M 419.240625 167.9391 
L 429.240625 167.9391 
L 439.240625 167.9391 
" style="fill: none; stroke: #8c2981; stroke-width: 1.5; stroke-linecap: round"/>
    </g>
    <g id="text_24">
     <!-- 32 -->
     <g style="fill: #262626" transform="translate(447.240625 171.4391) scale(0.1 -0.1)">
      <use xlink:href="#DejaVuSans-33"/>
      <use xlink:href="#DejaVuSans-32" transform="translate(63.623047 0)"/>
     </g>
    </g>
    <g id="line2d_24">
     <path d="M 419.240625 182.617225 
L 429.240625 182.617225 
L 439.240625 182.617225 
" style="fill: none; stroke: #de4968; stroke-width: 1.5; stroke-linecap: round"/>
    </g>
    <g id="text_25">
     <!-- 64 -->
     <g style="fill: #262626" transform="translate(447.240625 186.117225) scale(0.1 -0.1)">
      <use xlink:href="#DejaVuSans-36"/>
      <use xlink:href="#DejaVuSans-34" transform="translate(63.623047 0)"/>
     </g>
    </g>
    <g id="line2d_25">
     <path d="M 419.240625 197.29535 
L 429.240625 197.29535 
L 439.240625 197.29535 
" style="fill: none; stroke: #fe9f6d; stroke-width: 1.5; stroke-linecap: round"/>
    </g>
    <g id="text_26">
     <!-- 128 -->
     <g style="fill: #262626" transform="translate(447.240625 200.79535) scale(0.1 -0.1)">
      <use xlink:href="#DejaVuSans-31"/>
      <use xlink:href="#DejaVuSans-32" transform="translate(63.623047 0)"/>
      <use xlink:href="#DejaVuSans-38" transform="translate(127.246094 0)"/>
     </g>
    </g>
   </g>
  </g>
 </g>
 <defs>
  <clipPath id="p025548645a">
   <rect x="43.78125" y="35.623725" width="357.12" height="266.112"/>
  </clipPath>
 </defs>
</svg>
