<?xml version="1.0" encoding="utf-8" standalone="no"?>
<!DOCTYPE svg PUBLIC "-//W3C//DTD SVG 1.1//EN"
  "http://www.w3.org/Graphics/SVG/1.1/DTD/svg11.dtd">
<svg xmlns:xlink="http://www.w3.org/1999/xlink" width="498.74375pt" height="339.291975pt" viewBox="0 0 498.74375 339.291975" xmlns="http://www.w3.org/2000/svg" version="1.1">
 <metadata>
  <rdf:RDF xmlns:dc="http://purl.org/dc/elements/1.1/" xmlns:cc="http://creativecommons.org/ns#" xmlns:rdf="http://www.w3.org/1999/02/22-rdf-syntax-ns#">
   <cc:Work>
    <dc:type rdf:resource="http://purl.org/dc/dcmitype/StillImage"/>
    <dc:date>2025-09-11T09:01:28.983977</dc:date>
    <dc:format>image/svg+xml</dc:format>
    <dc:creator>
     <cc:Agent>
      <dc:title>Matplotlib v3.10.6, https://matplotlib.org/</dc:title>
     </cc:Agent>
    </dc:creator>
   </cc:Work>
  </rdf:RDF>
 </metadata>
 <defs>
  <style type="text/css">*{stroke-linejoin: round; stroke-linecap: butt}</style>
 </defs>
 <g id="figure_1">
  <g id="patch_1">
   <path d="M 0 339.291975 
L 498.74375 339.291975 
L 498.74375 0 
L 0 0 
z
" style="fill: #ffffff"/>
  </g>
  <g id="axes_1">
   <g id="patch_2">
    <path d="M 50.14375 301.735725 
L 407.26375 301.735725 
L 407.26375 35.623725 
L 50.14375 35.623725 
z
" style="fill: #ffffff"/>
   </g>
   <g id="matplotlib.axis_1">
    <g id="xtick_1">
     <g id="line2d_1">
      <path d="M 391.031023 301.735725 
L 391.031023 35.623725 
" clip-path="url(#p870478710f)" style="fill: none; stroke: #cccccc; stroke-width: 0.8; stroke-linecap: round"/>
     </g>
     <g id="text_1">
      <!-- 128 -->
      <g style="fill: #262626" transform="translate(381.487273 316.334162) scale(0.1 -0.1)">
       <defs>
        <path id="DejaVuSans-31" d="M 794 531 
L 1825 531 
L 1825 4091 
L 703 3866 
L 703 4441 
L 1819 4666 
L 2450 4666 
L 2450 531 
L 3481 531 
L 3481 0 
L 794 0 
L 794 531 
z
" transform="scale(0.015625)"/>
        <path id="DejaVuSans-32" d="M 1228 531 
L 3431 531 
L 3431 0 
L 469 0 
L 469 531 
Q 828 903 1448 1529 
Q 2069 2156 2228 2338 
Q 2531 2678 2651 2914 
Q 2772 3150 2772 3378 
Q 2772 3750 2511 3984 
Q 2250 4219 1831 4219 
Q 1534 4219 1204 4116 
Q 875 4013 500 3803 
L 500 4441 
Q 881 4594 1212 4672 
Q 1544 4750 1819 4750 
Q 2544 4750 2975 4387 
Q 3406 4025 3406 3419 
Q 3406 3131 3298 2873 
Q 3191 2616 2906 2266 
Q 2828 2175 2409 1742 
Q 1991 1309 1228 531 
z
" transform="scale(0.015625)"/>
        <path id="DejaVuSans-38" d="M 2034 2216 
Q 1584 2216 1326 1975 
Q 1069 1734 1069 1313 
Q 1069 891 1326 650 
Q 1584 409 2034 409 
Q 2484 409 2743 651 
Q 3003 894 3003 1313 
Q 3003 1734 2745 1975 
Q 2488 2216 2034 2216 
z
M 1403 2484 
Q 997 2584 770 2862 
Q 544 3141 544 3541 
Q 544 4100 942 4425 
Q 1341 4750 2034 4750 
Q 2731 4750 3128 4425 
Q 3525 4100 3525 3541 
Q 3525 3141 3298 2862 
Q 3072 2584 2669 2484 
Q 3125 2378 3379 2068 
Q 3634 1759 3634 1313 
Q 3634 634 3220 271 
Q 2806 -91 2034 -91 
Q 1263 -91 848 271 
Q 434 634 434 1313 
Q 434 1759 690 2068 
Q 947 2378 1403 2484 
z
M 1172 3481 
Q 1172 3119 1398 2916 
Q 1625 2713 2034 2713 
Q 2441 2713 2670 2916 
Q 2900 3119 2900 3481 
Q 2900 3844 2670 4047 
Q 2441 4250 2034 4250 
Q 1625 4250 1398 4047 
Q 1172 3844 1172 3481 
z
" transform="scale(0.015625)"/>
       </defs>
       <use xlink:href="#DejaVuSans-31"/>
       <use xlink:href="#DejaVuSans-32" transform="translate(63.623047 0)"/>
       <use xlink:href="#DejaVuSans-38" transform="translate(127.246094 0)"/>
      </g>
     </g>
    </g>
    <g id="xtick_2">
     <g id="line2d_2">
      <path d="M 66.376477 301.735725 
L 66.376477 35.623725 
" clip-path="url(#p870478710f)" style="fill: none; stroke: #cccccc; stroke-width: 0.8; stroke-linecap: round"/>
     </g>
     <g id="text_2">
      <!-- 1 -->
      <g style="fill: #262626" transform="translate(63.195227 316.334162) scale(0.1 -0.1)">
       <use xlink:href="#DejaVuSans-31"/>
      </g>
     </g>
    </g>
    <g id="xtick_3">
     <g id="line2d_3">
      <path d="M 227.425582 301.735725 
L 227.425582 35.623725 
" clip-path="url(#p870478710f)" style="fill: none; stroke: #cccccc; stroke-width: 0.8; stroke-linecap: round"/>
     </g>
     <g id="text_3">
      <!-- 64 -->
      <g style="fill: #262626" transform="translate(221.063082 316.334162) scale(0.1 -0.1)">
       <defs>
        <path id="DejaVuSans-36" d="M 2113 2584 
Q 1688 2584 1439 2293 
Q 1191 2003 1191 1497 
Q 1191 994 1439 701 
Q 1688 409 2113 409 
Q 2538 409 2786 701 
Q 3034 994 3034 1497 
Q 3034 2003 2786 2293 
Q 2538 2584 2113 2584 
z
M 3366 4563 
L 3366 3988 
Q 3128 4100 2886 4159 
Q 2644 4219 2406 4219 
Q 1781 4219 1451 3797 
Q 1122 3375 1075 2522 
Q 1259 2794 1537 2939 
Q 1816 3084 2150 3084 
Q 2853 3084 3261 2657 
Q 3669 2231 3669 1497 
Q 3669 778 3244 343 
Q 2819 -91 2113 -91 
Q 1303 -91 875 529 
Q 447 1150 447 2328 
Q 447 3434 972 4092 
Q 1497 4750 2381 4750 
Q 2619 4750 2861 4703 
Q 3103 4656 3366 4563 
z
" transform="scale(0.015625)"/>
        <path id="DejaVuSans-34" d="M 2419 4116 
L 825 1625 
L 2419 1625 
L 2419 4116 
z
M 2253 4666 
L 3047 4666 
L 3047 1625 
L 3713 1625 
L 3713 1100 
L 3047 1100 
L 3047 0 
L 2419 0 
L 2419 1100 
L 313 1100 
L 313 1709 
L 2253 4666 
z
" transform="scale(0.015625)"/>
       </defs>
       <use xlink:href="#DejaVuSans-36"/>
       <use xlink:href="#DejaVuSans-34" transform="translate(63.623047 0)"/>
      </g>
     </g>
    </g>
    <g id="xtick_4">
     <g id="line2d_4">
      <path d="M 145.622862 301.735725 
L 145.622862 35.623725 
" clip-path="url(#p870478710f)" style="fill: none; stroke: #cccccc; stroke-width: 0.8; stroke-linecap: round"/>
     </g>
     <g id="text_4">
      <!-- 32 -->
      <g style="fill: #262626" transform="translate(139.260362 316.334162) scale(0.1 -0.1)">
       <defs>
        <path id="DejaVuSans-33" d="M 2597 2516 
Q 3050 2419 3304 2112 
Q 3559 1806 3559 1356 
Q 3559 666 3084 287 
Q 2609 -91 1734 -91 
Q 1441 -91 1130 -33 
Q 819 25 488 141 
L 488 750 
Q 750 597 1062 519 
Q 1375 441 1716 441 
Q 2309 441 2620 675 
Q 2931 909 2931 1356 
Q 2931 1769 2642 2001 
Q 2353 2234 1838 2234 
L 1294 2234 
L 1294 2753 
L 1863 2753 
Q 2328 2753 2575 2939 
Q 2822 3125 2822 3475 
Q 2822 3834 2567 4026 
Q 2313 4219 1838 4219 
Q 1578 4219 1281 4162 
Q 984 4106 628 3988 
L 628 4550 
Q 988 4650 1302 4700 
Q 1616 4750 1894 4750 
Q 2613 4750 3031 4423 
Q 3450 4097 3450 3541 
Q 3450 3153 3228 2886 
Q 3006 2619 2597 2516 
z
" transform="scale(0.015625)"/>
       </defs>
       <use xlink:href="#DejaVuSans-33"/>
       <use xlink:href="#DejaVuSans-32" transform="translate(63.623047 0)"/>
      </g>
     </g>
    </g>
    <g id="xtick_5">
     <g id="line2d_5">
      <path d="M 84.270822 301.735725 
L 84.270822 35.623725 
" clip-path="url(#p870478710f)" style="fill: none; stroke: #cccccc; stroke-width: 0.8; stroke-linecap: round"/>
     </g>
     <g id="text_5">
      <!-- 8 -->
      <g style="fill: #262626" transform="translate(81.089572 316.334162) scale(0.1 -0.1)">
       <use xlink:href="#DejaVuSans-38"/>
      </g>
     </g>
    </g>
    <g id="xtick_6">
     <g id="line2d_6">
      <path d="M 104.721502 301.735725 
L 104.721502 35.623725 
" clip-path="url(#p870478710f)" style="fill: none; stroke: #cccccc; stroke-width: 0.8; stroke-linecap: round"/>
     </g>
     <g id="text_6">
      <!-- 16 -->
      <g style="fill: #262626" transform="translate(98.359002 316.334162) scale(0.1 -0.1)">
       <use xlink:href="#DejaVuSans-31"/>
       <use xlink:href="#DejaVuSans-36" transform="translate(63.623047 0)"/>
      </g>
     </g>
    </g>
    <g id="xtick_7">
     <g id="line2d_7">
      <path d="M 74.045482 301.735725 
L 74.045482 35.623725 
" clip-path="url(#p870478710f)" style="fill: none; stroke: #cccccc; stroke-width: 0.8; stroke-linecap: round"/>
     </g>
     <g id="text_7">
      <!-- 4 -->
      <g style="fill: #262626" transform="translate(70.864232 316.334162) scale(0.1 -0.1)">
       <use xlink:href="#DejaVuSans-34"/>
      </g>
     </g>
    </g>
    <g id="text_8">
     <!-- IO Depth -->
     <g style="fill: #262626" transform="translate(206.474063 330.012287) scale(0.1 -0.1)">
      <defs>
       <path id="DejaVuSans-49" d="M 628 4666 
L 1259 4666 
L 1259 0 
L 628 0 
L 628 4666 
z
" transform="scale(0.015625)"/>
       <path id="DejaVuSans-4f" d="M 2522 4238 
Q 1834 4238 1429 3725 
Q 1025 3213 1025 2328 
Q 1025 1447 1429 934 
Q 1834 422 2522 422 
Q 3209 422 3611 934 
Q 4013 1447 4013 2328 
Q 4013 3213 3611 3725 
Q 3209 4238 2522 4238 
z
M 2522 4750 
Q 3503 4750 4090 4092 
Q 4678 3434 4678 2328 
Q 4678 1225 4090 567 
Q 3503 -91 2522 -91 
Q 1538 -91 948 565 
Q 359 1222 359 2328 
Q 359 3434 948 4092 
Q 1538 4750 2522 4750 
z
" transform="scale(0.015625)"/>
       <path id="DejaVuSans-20" transform="scale(0.015625)"/>
       <path id="DejaVuSans-44" d="M 1259 4147 
L 1259 519 
L 2022 519 
Q 2988 519 3436 956 
Q 3884 1394 3884 2338 
Q 3884 3275 3436 3711 
Q 2988 4147 2022 4147 
L 1259 4147 
z
M 628 4666 
L 1925 4666 
Q 3281 4666 3915 4102 
Q 4550 3538 4550 2338 
Q 4550 1131 3912 565 
Q 3275 0 1925 0 
L 628 0 
L 628 4666 
z
" transform="scale(0.015625)"/>
       <path id="DejaVuSans-65" d="M 3597 1894 
L 3597 1613 
L 953 1613 
Q 991 1019 1311 708 
Q 1631 397 2203 397 
Q 2534 397 2845 478 
Q 3156 559 3463 722 
L 3463 178 
Q 3153 47 2828 -22 
Q 2503 -91 2169 -91 
Q 1331 -91 842 396 
Q 353 884 353 1716 
Q 353 2575 817 3079 
Q 1281 3584 2069 3584 
Q 2775 3584 3186 3129 
Q 3597 2675 3597 1894 
z
M 3022 2063 
Q 3016 2534 2758 2815 
Q 2500 3097 2075 3097 
Q 1594 3097 1305 2825 
Q 1016 2553 972 2059 
L 3022 2063 
z
" transform="scale(0.015625)"/>
       <path id="DejaVuSans-70" d="M 1159 525 
L 1159 -1331 
L 581 -1331 
L 581 3500 
L 1159 3500 
L 1159 2969 
Q 1341 3281 1617 3432 
Q 1894 3584 2278 3584 
Q 2916 3584 3314 3078 
Q 3713 2572 3713 1747 
Q 3713 922 3314 415 
Q 2916 -91 2278 -91 
Q 1894 -91 1617 61 
Q 1341 213 1159 525 
z
M 3116 1747 
Q 3116 2381 2855 2742 
Q 2594 3103 2138 3103 
Q 1681 3103 1420 2742 
Q 1159 2381 1159 1747 
Q 1159 1113 1420 752 
Q 1681 391 2138 391 
Q 2594 391 2855 752 
Q 3116 1113 3116 1747 
z
" transform="scale(0.015625)"/>
       <path id="DejaVuSans-74" d="M 1172 4494 
L 1172 3500 
L 2356 3500 
L 2356 3053 
L 1172 3053 
L 1172 1153 
Q 1172 725 1289 603 
Q 1406 481 1766 481 
L 2356 481 
L 2356 0 
L 1766 0 
Q 1100 0 847 248 
Q 594 497 594 1153 
L 594 3053 
L 172 3053 
L 172 3500 
L 594 3500 
L 594 4494 
L 1172 4494 
z
" transform="scale(0.015625)"/>
       <path id="DejaVuSans-68" d="M 3513 2113 
L 3513 0 
L 2938 0 
L 2938 2094 
Q 2938 2591 2744 2837 
Q 2550 3084 2163 3084 
Q 1697 3084 1428 2787 
Q 1159 2491 1159 1978 
L 1159 0 
L 581 0 
L 581 4863 
L 1159 4863 
L 1159 2956 
Q 1366 3272 1645 3428 
Q 1925 3584 2291 3584 
Q 2894 3584 3203 3211 
Q 3513 2838 3513 2113 
z
" transform="scale(0.015625)"/>
      </defs>
      <use xlink:href="#DejaVuSans-49"/>
      <use xlink:href="#DejaVuSans-4f" transform="translate(29.492188 0)"/>
      <use xlink:href="#DejaVuSans-20" transform="translate(108.203125 0)"/>
      <use xlink:href="#DejaVuSans-44" transform="translate(139.990234 0)"/>
      <use xlink:href="#DejaVuSans-65" transform="translate(216.992188 0)"/>
      <use xlink:href="#DejaVuSans-70" transform="translate(278.515625 0)"/>
      <use xlink:href="#DejaVuSans-74" transform="translate(341.992188 0)"/>
      <use xlink:href="#DejaVuSans-68" transform="translate(381.201172 0)"/>
     </g>
    </g>
   </g>
   <g id="matplotlib.axis_2">
    <g id="ytick_1">
     <g id="line2d_8">
      <path d="M 50.14375 261.264397 
L 407.26375 261.264397 
" clip-path="url(#p870478710f)" style="fill: none; stroke: #cccccc; stroke-width: 0.8; stroke-linecap: round"/>
     </g>
     <g id="text_9">
      <!-- 0.15 -->
      <g style="fill: #262626" transform="translate(20.878125 265.063616) scale(0.1 -0.1)">
       <defs>
        <path id="DejaVuSans-30" d="M 2034 4250 
Q 1547 4250 1301 3770 
Q 1056 3291 1056 2328 
Q 1056 1369 1301 889 
Q 1547 409 2034 409 
Q 2525 409 2770 889 
Q 3016 1369 3016 2328 
Q 3016 3291 2770 3770 
Q 2525 4250 2034 4250 
z
M 2034 4750 
Q 2819 4750 3233 4129 
Q 3647 3509 3647 2328 
Q 3647 1150 3233 529 
Q 2819 -91 2034 -91 
Q 1250 -91 836 529 
Q 422 1150 422 2328 
Q 422 3509 836 4129 
Q 1250 4750 2034 4750 
z
" transform="scale(0.015625)"/>
        <path id="DejaVuSans-2e" d="M 684 794 
L 1344 794 
L 1344 0 
L 684 0 
L 684 794 
z
" transform="scale(0.015625)"/>
        <path id="DejaVuSans-35" d="M 691 4666 
L 3169 4666 
L 3169 4134 
L 1269 4134 
L 1269 2991 
Q 1406 3038 1543 3061 
Q 1681 3084 1819 3084 
Q 2600 3084 3056 2656 
Q 3513 2228 3513 1497 
Q 3513 744 3044 326 
Q 2575 -91 1722 -91 
Q 1428 -91 1123 -41 
Q 819 9 494 109 
L 494 744 
Q 775 591 1075 516 
Q 1375 441 1709 441 
Q 2250 441 2565 725 
Q 2881 1009 2881 1497 
Q 2881 1984 2565 2268 
Q 2250 2553 1709 2553 
Q 1456 2553 1204 2497 
Q 953 2441 691 2322 
L 691 4666 
z
" transform="scale(0.015625)"/>
       </defs>
       <use xlink:href="#DejaVuSans-30"/>
       <use xlink:href="#DejaVuSans-2e" transform="translate(63.623047 0)"/>
       <use xlink:href="#DejaVuSans-31" transform="translate(95.410156 0)"/>
       <use xlink:href="#DejaVuSans-35" transform="translate(159.033203 0)"/>
      </g>
     </g>
    </g>
    <g id="ytick_2">
     <g id="line2d_9">
      <path d="M 50.14375 219.258744 
L 407.26375 219.258744 
" clip-path="url(#p870478710f)" style="fill: none; stroke: #cccccc; stroke-width: 0.8; stroke-linecap: round"/>
     </g>
     <g id="text_10">
      <!-- 0.16 -->
      <g style="fill: #262626" transform="translate(20.878125 223.057963) scale(0.1 -0.1)">
       <use xlink:href="#DejaVuSans-30"/>
       <use xlink:href="#DejaVuSans-2e" transform="translate(63.623047 0)"/>
       <use xlink:href="#DejaVuSans-31" transform="translate(95.410156 0)"/>
       <use xlink:href="#DejaVuSans-36" transform="translate(159.033203 0)"/>
      </g>
     </g>
    </g>
    <g id="ytick_3">
     <g id="line2d_10">
      <path d="M 50.14375 177.253091 
L 407.26375 177.253091 
" clip-path="url(#p870478710f)" style="fill: none; stroke: #cccccc; stroke-width: 0.8; stroke-linecap: round"/>
     </g>
     <g id="text_11">
      <!-- 0.17 -->
      <g style="fill: #262626" transform="translate(20.878125 181.05231) scale(0.1 -0.1)">
       <defs>
        <path id="DejaVuSans-37" d="M 525 4666 
L 3525 4666 
L 3525 4397 
L 1831 0 
L 1172 0 
L 2766 4134 
L 525 4134 
L 525 4666 
z
" transform="scale(0.015625)"/>
       </defs>
       <use xlink:href="#DejaVuSans-30"/>
       <use xlink:href="#DejaVuSans-2e" transform="translate(63.623047 0)"/>
       <use xlink:href="#DejaVuSans-31" transform="translate(95.410156 0)"/>
       <use xlink:href="#DejaVuSans-37" transform="translate(159.033203 0)"/>
      </g>
     </g>
    </g>
    <g id="ytick_4">
     <g id="line2d_11">
      <path d="M 50.14375 135.247439 
L 407.26375 135.247439 
" clip-path="url(#p870478710f)" style="fill: none; stroke: #cccccc; stroke-width: 0.8; stroke-linecap: round"/>
     </g>
     <g id="text_12">
      <!-- 0.18 -->
      <g style="fill: #262626" transform="translate(20.878125 139.046657) scale(0.1 -0.1)">
       <use xlink:href="#DejaVuSans-30"/>
       <use xlink:href="#DejaVuSans-2e" transform="translate(63.623047 0)"/>
       <use xlink:href="#DejaVuSans-31" transform="translate(95.410156 0)"/>
       <use xlink:href="#DejaVuSans-38" transform="translate(159.033203 0)"/>
      </g>
     </g>
    </g>
    <g id="ytick_5">
     <g id="line2d_12">
      <path d="M 50.14375 93.241786 
L 407.26375 93.241786 
" clip-path="url(#p870478710f)" style="fill: none; stroke: #cccccc; stroke-width: 0.8; stroke-linecap: round"/>
     </g>
     <g id="text_13">
      <!-- 0.19 -->
      <g style="fill: #262626" transform="translate(20.878125 97.041004) scale(0.1 -0.1)">
       <defs>
        <path id="DejaVuSans-39" d="M 703 97 
L 703 672 
Q 941 559 1184 500 
Q 1428 441 1663 441 
Q 2288 441 2617 861 
Q 2947 1281 2994 2138 
Q 2813 1869 2534 1725 
Q 2256 1581 1919 1581 
Q 1219 1581 811 2004 
Q 403 2428 403 3163 
Q 403 3881 828 4315 
Q 1253 4750 1959 4750 
Q 2769 4750 3195 4129 
Q 3622 3509 3622 2328 
Q 3622 1225 3098 567 
Q 2575 -91 1691 -91 
Q 1453 -91 1209 -44 
Q 966 3 703 97 
z
M 1959 2075 
Q 2384 2075 2632 2365 
Q 2881 2656 2881 3163 
Q 2881 3666 2632 3958 
Q 2384 4250 1959 4250 
Q 1534 4250 1286 3958 
Q 1038 3666 1038 3163 
Q 1038 2656 1286 2365 
Q 1534 2075 1959 2075 
z
" transform="scale(0.015625)"/>
       </defs>
       <use xlink:href="#DejaVuSans-30"/>
       <use xlink:href="#DejaVuSans-2e" transform="translate(63.623047 0)"/>
       <use xlink:href="#DejaVuSans-31" transform="translate(95.410156 0)"/>
       <use xlink:href="#DejaVuSans-39" transform="translate(159.033203 0)"/>
      </g>
     </g>
    </g>
    <g id="ytick_6">
     <g id="line2d_13">
      <path d="M 50.14375 51.236133 
L 407.26375 51.236133 
" clip-path="url(#p870478710f)" style="fill: none; stroke: #cccccc; stroke-width: 0.8; stroke-linecap: round"/>
     </g>
     <g id="text_14">
      <!-- 0.20 -->
      <g style="fill: #262626" transform="translate(20.878125 55.035352) scale(0.1 -0.1)">
       <use xlink:href="#DejaVuSans-30"/>
       <use xlink:href="#DejaVuSans-2e" transform="translate(63.623047 0)"/>
       <use xlink:href="#DejaVuSans-32" transform="translate(95.410156 0)"/>
       <use xlink:href="#DejaVuSans-30" transform="translate(159.033203 0)"/>
      </g>
     </g>
    </g>
    <g id="text_15">
     <!-- Mean Bandwidth (GiB/s) -->
     <g style="fill: #262626" transform="translate(14.798438 228.984412) rotate(-90) scale(0.1 -0.1)">
      <defs>
       <path id="DejaVuSans-4d" d="M 628 4666 
L 1569 4666 
L 2759 1491 
L 3956 4666 
L 4897 4666 
L 4897 0 
L 4281 0 
L 4281 4097 
L 3078 897 
L 2444 897 
L 1241 4097 
L 1241 0 
L 628 0 
L 628 4666 
z
" transform="scale(0.015625)"/>
       <path id="DejaVuSans-61" d="M 2194 1759 
Q 1497 1759 1228 1600 
Q 959 1441 959 1056 
Q 959 750 1161 570 
Q 1363 391 1709 391 
Q 2188 391 2477 730 
Q 2766 1069 2766 1631 
L 2766 1759 
L 2194 1759 
z
M 3341 1997 
L 3341 0 
L 2766 0 
L 2766 531 
Q 2569 213 2275 61 
Q 1981 -91 1556 -91 
Q 1019 -91 701 211 
Q 384 513 384 1019 
Q 384 1609 779 1909 
Q 1175 2209 1959 2209 
L 2766 2209 
L 2766 2266 
Q 2766 2663 2505 2880 
Q 2244 3097 1772 3097 
Q 1472 3097 1187 3025 
Q 903 2953 641 2809 
L 641 3341 
Q 956 3463 1253 3523 
Q 1550 3584 1831 3584 
Q 2591 3584 2966 3190 
Q 3341 2797 3341 1997 
z
" transform="scale(0.015625)"/>
       <path id="DejaVuSans-6e" d="M 3513 2113 
L 3513 0 
L 2938 0 
L 2938 2094 
Q 2938 2591 2744 2837 
Q 2550 3084 2163 3084 
Q 1697 3084 1428 2787 
Q 1159 2491 1159 1978 
L 1159 0 
L 581 0 
L 581 3500 
L 1159 3500 
L 1159 2956 
Q 1366 3272 1645 3428 
Q 1925 3584 2291 3584 
Q 2894 3584 3203 3211 
Q 3513 2838 3513 2113 
z
" transform="scale(0.015625)"/>
       <path id="DejaVuSans-42" d="M 1259 2228 
L 1259 519 
L 2272 519 
Q 2781 519 3026 730 
Q 3272 941 3272 1375 
Q 3272 1813 3026 2020 
Q 2781 2228 2272 2228 
L 1259 2228 
z
M 1259 4147 
L 1259 2741 
L 2194 2741 
Q 2656 2741 2882 2914 
Q 3109 3088 3109 3444 
Q 3109 3797 2882 3972 
Q 2656 4147 2194 4147 
L 1259 4147 
z
M 628 4666 
L 2241 4666 
Q 2963 4666 3353 4366 
Q 3744 4066 3744 3513 
Q 3744 3084 3544 2831 
Q 3344 2578 2956 2516 
Q 3422 2416 3680 2098 
Q 3938 1781 3938 1306 
Q 3938 681 3513 340 
Q 3088 0 2303 0 
L 628 0 
L 628 4666 
z
" transform="scale(0.015625)"/>
       <path id="DejaVuSans-64" d="M 2906 2969 
L 2906 4863 
L 3481 4863 
L 3481 0 
L 2906 0 
L 2906 525 
Q 2725 213 2448 61 
Q 2172 -91 1784 -91 
Q 1150 -91 751 415 
Q 353 922 353 1747 
Q 353 2572 751 3078 
Q 1150 3584 1784 3584 
Q 2172 3584 2448 3432 
Q 2725 3281 2906 2969 
z
M 947 1747 
Q 947 1113 1208 752 
Q 1469 391 1925 391 
Q 2381 391 2643 752 
Q 2906 1113 2906 1747 
Q 2906 2381 2643 2742 
Q 2381 3103 1925 3103 
Q 1469 3103 1208 2742 
Q 947 2381 947 1747 
z
" transform="scale(0.015625)"/>
       <path id="DejaVuSans-77" d="M 269 3500 
L 844 3500 
L 1563 769 
L 2278 3500 
L 2956 3500 
L 3675 769 
L 4391 3500 
L 4966 3500 
L 4050 0 
L 3372 0 
L 2619 2869 
L 1863 0 
L 1184 0 
L 269 3500 
z
" transform="scale(0.015625)"/>
       <path id="DejaVuSans-69" d="M 603 3500 
L 1178 3500 
L 1178 0 
L 603 0 
L 603 3500 
z
M 603 4863 
L 1178 4863 
L 1178 4134 
L 603 4134 
L 603 4863 
z
" transform="scale(0.015625)"/>
       <path id="DejaVuSans-28" d="M 1984 4856 
Q 1566 4138 1362 3434 
Q 1159 2731 1159 2009 
Q 1159 1288 1364 580 
Q 1569 -128 1984 -844 
L 1484 -844 
Q 1016 -109 783 600 
Q 550 1309 550 2009 
Q 550 2706 781 3412 
Q 1013 4119 1484 4856 
L 1984 4856 
z
" transform="scale(0.015625)"/>
       <path id="DejaVuSans-47" d="M 3809 666 
L 3809 1919 
L 2778 1919 
L 2778 2438 
L 4434 2438 
L 4434 434 
Q 4069 175 3628 42 
Q 3188 -91 2688 -91 
Q 1594 -91 976 548 
Q 359 1188 359 2328 
Q 359 3472 976 4111 
Q 1594 4750 2688 4750 
Q 3144 4750 3555 4637 
Q 3966 4525 4313 4306 
L 4313 3634 
Q 3963 3931 3569 4081 
Q 3175 4231 2741 4231 
Q 1884 4231 1454 3753 
Q 1025 3275 1025 2328 
Q 1025 1384 1454 906 
Q 1884 428 2741 428 
Q 3075 428 3337 486 
Q 3600 544 3809 666 
z
" transform="scale(0.015625)"/>
       <path id="DejaVuSans-2f" d="M 1625 4666 
L 2156 4666 
L 531 -594 
L 0 -594 
L 1625 4666 
z
" transform="scale(0.015625)"/>
       <path id="DejaVuSans-73" d="M 2834 3397 
L 2834 2853 
Q 2591 2978 2328 3040 
Q 2066 3103 1784 3103 
Q 1356 3103 1142 2972 
Q 928 2841 928 2578 
Q 928 2378 1081 2264 
Q 1234 2150 1697 2047 
L 1894 2003 
Q 2506 1872 2764 1633 
Q 3022 1394 3022 966 
Q 3022 478 2636 193 
Q 2250 -91 1575 -91 
Q 1294 -91 989 -36 
Q 684 19 347 128 
L 347 722 
Q 666 556 975 473 
Q 1284 391 1588 391 
Q 1994 391 2212 530 
Q 2431 669 2431 922 
Q 2431 1156 2273 1281 
Q 2116 1406 1581 1522 
L 1381 1569 
Q 847 1681 609 1914 
Q 372 2147 372 2553 
Q 372 3047 722 3315 
Q 1072 3584 1716 3584 
Q 2034 3584 2315 3537 
Q 2597 3491 2834 3397 
z
" transform="scale(0.015625)"/>
       <path id="DejaVuSans-29" d="M 513 4856 
L 1013 4856 
Q 1481 4119 1714 3412 
Q 1947 2706 1947 2009 
Q 1947 1309 1714 600 
Q 1481 -109 1013 -844 
L 513 -844 
Q 928 -128 1133 580 
Q 1338 1288 1338 2009 
Q 1338 2731 1133 3434 
Q 928 4138 513 4856 
z
" transform="scale(0.015625)"/>
      </defs>
      <use xlink:href="#DejaVuSans-4d"/>
      <use xlink:href="#DejaVuSans-65" transform="translate(86.279297 0)"/>
      <use xlink:href="#DejaVuSans-61" transform="translate(147.802734 0)"/>
      <use xlink:href="#DejaVuSans-6e" transform="translate(209.082031 0)"/>
      <use xlink:href="#DejaVuSans-20" transform="translate(272.460938 0)"/>
      <use xlink:href="#DejaVuSans-42" transform="translate(304.248047 0)"/>
      <use xlink:href="#DejaVuSans-61" transform="translate(372.851562 0)"/>
      <use xlink:href="#DejaVuSans-6e" transform="translate(434.130859 0)"/>
      <use xlink:href="#DejaVuSans-64" transform="translate(497.509766 0)"/>
      <use xlink:href="#DejaVuSans-77" transform="translate(560.986328 0)"/>
      <use xlink:href="#DejaVuSans-69" transform="translate(642.773438 0)"/>
      <use xlink:href="#DejaVuSans-64" transform="translate(670.556641 0)"/>
      <use xlink:href="#DejaVuSans-74" transform="translate(734.033203 0)"/>
      <use xlink:href="#DejaVuSans-68" transform="translate(773.242188 0)"/>
      <use xlink:href="#DejaVuSans-20" transform="translate(836.621094 0)"/>
      <use xlink:href="#DejaVuSans-28" transform="translate(868.408203 0)"/>
      <use xlink:href="#DejaVuSans-47" transform="translate(907.421875 0)"/>
      <use xlink:href="#DejaVuSans-69" transform="translate(984.912109 0)"/>
      <use xlink:href="#DejaVuSans-42" transform="translate(1012.695312 0)"/>
      <use xlink:href="#DejaVuSans-2f" transform="translate(1081.298828 0)"/>
      <use xlink:href="#DejaVuSans-73" transform="translate(1114.990234 0)"/>
      <use xlink:href="#DejaVuSans-29" transform="translate(1167.089844 0)"/>
     </g>
    </g>
   </g>
   <g id="FillBetweenPolyCollection_1"/>
   <g id="FillBetweenPolyCollection_2"/>
   <g id="FillBetweenPolyCollection_3"/>
   <g id="FillBetweenPolyCollection_4"/>
   <g id="line2d_14">
    <path d="M 66.376477 139.736884 
L 74.045482 158.302776 
L 84.270822 47.719725 
L 104.721502 209.108557 
L 145.622862 103.178694 
L 227.425582 181.488934 
L 391.031023 150.610234 
" clip-path="url(#p870478710f)" style="fill: none; stroke: #3b0f70; stroke-width: 1.5; stroke-linecap: round"/>
   </g>
   <g id="line2d_15">
    <path d="M 66.376477 137.266378 
L 74.045482 184.83089 
L 84.270822 172.237531 
L 104.721502 187.523441 
L 145.622862 193.905964 
L 227.425582 183.268898 
L 391.031023 191.988988 
" clip-path="url(#p870478710f)" style="fill: none; stroke: #8c2981; stroke-width: 1.5; stroke-linecap: round"/>
   </g>
   <g id="line2d_16">
    <path d="M 66.376477 271.778916 
L 74.045482 164.447532 
L 84.270822 289.639725 
L 104.721502 169.846504 
L 145.622862 191.81111 
L 227.425582 171.727358 
L 391.031023 178.007543 
" clip-path="url(#p870478710f)" style="fill: none; stroke: #de4968; stroke-width: 1.5; stroke-linecap: round"/>
   </g>
   <g id="line2d_17">
    <path d="M 66.376477 258.061537 
L 74.045482 174.799231 
L 84.270822 268.297185 
L 104.721502 277.386049 
L 145.622862 143.44271 
L 227.425582 172.325999 
L 391.031023 142.980441 
" clip-path="url(#p870478710f)" style="fill: none; stroke: #fe9f6d; stroke-width: 1.5; stroke-linecap: round"/>
   </g>
   <g id="line2d_18"/>
   <g id="line2d_19"/>
   <g id="line2d_20"/>
   <g id="line2d_21"/>
   <g id="text_16">
    <path d="M 132.236612 143.204834 
L 132.81687 141.70203 
L 127.627751 139.698421 
L 127.324241 141.460501 
L 126.486111 141.136884 
L 126.786244 139.38355 
L 127.141378 138.463793 
L 133.168628 140.791019 
L 133.748886 139.288215 
L 134.522881 139.587068 
L 133.010607 143.503687 
L 132.236612 143.204834 
z
M 132.278169 134.191547 
Q 132.038974 134.811035 132.323001 135.33776 
Q 132.606133 135.862464 133.343687 136.147247 
Q 134.076869 136.430341 134.643528 136.233755 
Q 135.209293 136.03515 135.448488 135.415662 
Q 135.687683 134.796175 135.401635 134.270344 
Q 135.114131 133.743951 134.380949 133.460857 
Q 133.643394 133.176075 133.081108 133.374348 
Q 132.517364 133.57206 132.278169 134.191547 
z
M 130.098746 131.251348 
L 130.936877 131.574965 
Q 130.639674 131.858843 130.417474 132.17838 
Q 130.193817 132.497355 130.059868 132.844268 
Q 129.708111 133.755279 130.137498 134.4738 
Q 130.567447 135.190862 131.784343 135.739449 
Q 131.491428 135.318162 131.436535 134.831337 
Q 131.382205 134.343054 131.570184 133.856209 
Q 131.965841 132.831504 132.817871 132.477117 
Q 133.668443 132.122166 134.738334 132.53527 
Q 135.786361 132.939931 136.18123 133.804242 
Q 136.574641 134.66799 136.177297 135.697068 
Q 135.721419 136.877738 134.576813 137.152655 
Q 133.430749 137.42701 131.713675 136.764018 
Q 130.10155 136.141548 129.437914 135.005969 
Q 128.774277 133.87039 129.271803 132.581856 
Q 129.405752 132.234943 129.61046 131.908651 
Q 129.815169 131.58236 130.098746 131.251348 
z
" clip-path="url(#p870478710f)" style="fill: #3b0f70; stroke: #ffffff; stroke-width: 5"/>
    <path d="M 132.236612 143.204834 
L 132.81687 141.70203 
L 127.627751 139.698421 
L 127.324241 141.460501 
L 126.486111 141.136884 
L 126.786244 139.38355 
L 127.141378 138.463793 
L 133.168628 140.791019 
L 133.748886 139.288215 
L 134.522881 139.587068 
L 133.010607 143.503687 
L 132.236612 143.204834 
z
M 132.278169 134.191547 
Q 132.038974 134.811035 132.323001 135.33776 
Q 132.606133 135.862464 133.343687 136.147247 
Q 134.076869 136.430341 134.643528 136.233755 
Q 135.209293 136.03515 135.448488 135.415662 
Q 135.687683 134.796175 135.401635 134.270344 
Q 135.114131 133.743951 134.380949 133.460857 
Q 133.643394 133.176075 133.081108 133.374348 
Q 132.517364 133.57206 132.278169 134.191547 
z
M 130.098746 131.251348 
L 130.936877 131.574965 
Q 130.639674 131.858843 130.417474 132.17838 
Q 130.193817 132.497355 130.059868 132.844268 
Q 129.708111 133.755279 130.137498 134.4738 
Q 130.567447 135.190862 131.784343 135.739449 
Q 131.491428 135.318162 131.436535 134.831337 
Q 131.382205 134.343054 131.570184 133.856209 
Q 131.965841 132.831504 132.817871 132.477117 
Q 133.668443 132.122166 134.738334 132.53527 
Q 135.786361 132.939931 136.18123 133.804242 
Q 136.574641 134.66799 136.177297 135.697068 
Q 135.721419 136.877738 134.576813 137.152655 
Q 133.430749 137.42701 131.713675 136.764018 
Q 130.10155 136.141548 129.437914 135.005969 
Q 128.774277 133.87039 129.271803 132.581856 
Q 129.405752 132.234943 129.61046 131.908651 
Q 129.815169 131.58236 130.098746 131.251348 
z
" clip-path="url(#p870478710f)" style="fill: #3b0f70"/>
   </g>
   <g id="text_17">
    <path d="M 194.126393 186.417156 
Q 194.84784 186.476182 195.303256 186.900689 
Q 195.76002 187.323445 195.850686 188.0207 
Q 195.989708 189.089824 195.330078 189.772771 
Q 194.670246 190.454168 193.314473 190.630464 
Q 192.860482 190.689497 192.366916 190.662289 
Q 191.873349 190.635081 191.337108 190.522035 
L 191.214406 189.578416 
Q 191.65119 189.762695 192.150336 189.820691 
Q 192.651031 189.878485 193.179395 189.80978 
Q 194.098222 189.690302 194.532956 189.265069 
Q 194.96769 188.839836 194.877628 188.147229 
Q 194.794417 187.507304 194.299881 187.206059 
Q 193.805143 186.903263 193.007174 187.007026 
L 192.16427 187.116631 
L 192.059702 186.312464 
L 192.941342 186.197822 
Q 193.661839 186.104133 194.007079 185.766169 
Q 194.352319 185.428204 194.281801 184.885895 
Q 194.209469 184.32964 193.775674 184.083523 
Q 193.343226 183.835654 192.607235 183.931357 
Q 192.204377 183.983742 191.755673 184.131901 
Q 191.306767 184.27851 190.778936 184.533073 
L 190.665704 183.662279 
Q 191.20336 183.4348 191.679815 183.294063 
Q 192.15627 183.153325 192.587018 183.097313 
Q 193.701077 182.952449 194.414633 183.374902 
Q 195.129538 183.795604 195.241561 184.657101 
Q 195.319735 185.25829 195.029551 185.716723 
Q 194.739368 186.175156 194.126393 186.417156 
z
M 198.714316 188.948248 
L 202.127766 188.504386 
L 202.234752 189.327147 
L 197.645266 189.923932 
L 197.538279 189.101172 
Q 198.019583 188.452443 198.854119 187.357566 
Q 199.690002 186.260938 199.899696 185.946901 
Q 200.300677 185.359038 200.439063 184.969189 
Q 200.578997 184.579138 200.53306 184.225863 
Q 200.458109 183.649465 200.006555 183.339479 
Q 199.554799 183.027943 198.905577 183.112364 
Q 198.445389 183.172203 197.954821 183.398286 
Q 197.465803 183.624167 196.927068 184.025108 
L 196.798523 183.036555 
Q 197.358039 182.722725 197.855194 182.535177 
Q 198.353897 182.347428 198.779998 182.292021 
Q 199.903353 182.145947 200.644305 182.621562 
Q 201.385057 183.095626 201.507154 184.034596 
Q 201.56518 184.480839 201.449821 184.902359 
Q 201.33581 185.322127 200.964733 185.921858 
Q 200.86221 186.078574 200.30023 186.833909 
Q 199.739799 187.589042 198.714316 188.948248 
z
" clip-path="url(#p870478710f)" style="fill: #8c2981; stroke: #ffffff; stroke-width: 5"/>
    <path d="M 194.126393 186.417156 
Q 194.84784 186.476182 195.303256 186.900689 
Q 195.76002 187.323445 195.850686 188.0207 
Q 195.989708 189.089824 195.330078 189.772771 
Q 194.670246 190.454168 193.314473 190.630464 
Q 192.860482 190.689497 192.366916 190.662289 
Q 191.873349 190.635081 191.337108 190.522035 
L 191.214406 189.578416 
Q 191.65119 189.762695 192.150336 189.820691 
Q 192.651031 189.878485 193.179395 189.80978 
Q 194.098222 189.690302 194.532956 189.265069 
Q 194.96769 188.839836 194.877628 188.147229 
Q 194.794417 187.507304 194.299881 187.206059 
Q 193.805143 186.903263 193.007174 187.007026 
L 192.16427 187.116631 
L 192.059702 186.312464 
L 192.941342 186.197822 
Q 193.661839 186.104133 194.007079 185.766169 
Q 194.352319 185.428204 194.281801 184.885895 
Q 194.209469 184.32964 193.775674 184.083523 
Q 193.343226 183.835654 192.607235 183.931357 
Q 192.204377 183.983742 191.755673 184.131901 
Q 191.306767 184.27851 190.778936 184.533073 
L 190.665704 183.662279 
Q 191.20336 183.4348 191.679815 183.294063 
Q 192.15627 183.153325 192.587018 183.097313 
Q 193.701077 182.952449 194.414633 183.374902 
Q 195.129538 183.795604 195.241561 184.657101 
Q 195.319735 185.25829 195.029551 185.716723 
Q 194.739368 186.175156 194.126393 186.417156 
z
M 198.714316 188.948248 
L 202.127766 188.504386 
L 202.234752 189.327147 
L 197.645266 189.923932 
L 197.538279 189.101172 
Q 198.019583 188.452443 198.854119 187.357566 
Q 199.690002 186.260938 199.899696 185.946901 
Q 200.300677 185.359038 200.439063 184.969189 
Q 200.578997 184.579138 200.53306 184.225863 
Q 200.458109 183.649465 200.006555 183.339479 
Q 199.554799 183.027943 198.905577 183.112364 
Q 198.445389 183.172203 197.954821 183.398286 
Q 197.465803 183.624167 196.927068 184.025108 
L 196.798523 183.036555 
Q 197.358039 182.722725 197.855194 182.535177 
Q 198.353897 182.347428 198.779998 182.292021 
Q 199.903353 182.145947 200.644305 182.621562 
Q 201.385057 183.095626 201.507154 184.034596 
Q 201.56518 184.480839 201.449821 184.902359 
Q 201.33581 185.322127 200.964733 185.921858 
Q 200.86221 186.078574 200.30023 186.833909 
Q 199.739799 187.589042 198.714316 188.948248 
z
" clip-path="url(#p870478710f)" style="fill: #8c2981"/>
   </g>
   <g id="text_18">
    <path d="M 257.834891 171.615589 
Q 257.171318 171.590117 256.765101 172.029546 
Q 256.360505 172.467474 256.330178 173.257517 
Q 256.300031 174.042876 256.669685 174.515215 
Q 257.040961 174.986053 257.704534 175.011525 
Q 258.368108 175.036997 258.772824 174.595947 
Q 259.177599 174.153335 259.207746 173.367976 
Q 259.238073 172.577932 258.868239 172.110277 
Q 258.498465 171.641061 257.834891 171.615589 
z
M 259.909873 168.600774 
L 259.875411 169.498551 
Q 259.510522 169.309415 259.136211 169.202791 
Q 258.761961 169.094606 258.390359 169.080342 
Q 257.414516 169.042883 256.873978 169.681994 
Q 256.335001 170.321166 256.210494 171.650181 
Q 256.514085 171.236521 256.95683 171.026787 
Q 257.401137 170.817113 257.922628 170.837131 
Q 259.020258 170.879265 259.631696 171.570415 
Q 260.243195 172.260003 260.199204 173.406034 
Q 260.156111 174.528645 259.466466 175.18236 
Q 258.77688 175.834514 257.674567 175.7922 
Q 256.409874 175.743653 255.778775 174.749964 
Q 255.147736 173.754714 255.218339 171.915444 
Q 255.284626 170.188591 256.143772 169.192688 
Q 257.002917 168.196785 258.383151 168.249767 
Q 258.754752 168.264031 259.129782 168.351919 
Q 259.504812 168.439806 259.909873 168.600774 
z
M 264.762106 169.485985 
L 262.124018 173.279773 
L 264.61281 173.375308 
L 264.762106 169.485985 
z
M 264.535886 168.617293 
L 265.775598 168.664881 
L 265.593338 173.412947 
L 266.633197 173.452863 
L 266.601732 174.272572 
L 265.561872 174.232655 
L 265.495945 175.950141 
L 264.515417 175.912502 
L 264.581345 174.195017 
L 261.293141 174.068795 
L 261.329641 173.117933 
L 264.535886 168.617293 
z
" clip-path="url(#p870478710f)" style="fill: #de4968; stroke: #ffffff; stroke-width: 5"/>
    <path d="M 257.834891 171.615589 
Q 257.171318 171.590117 256.765101 172.029546 
Q 256.360505 172.467474 256.330178 173.257517 
Q 256.300031 174.042876 256.669685 174.515215 
Q 257.040961 174.986053 257.704534 175.011525 
Q 258.368108 175.036997 258.772824 174.595947 
Q 259.177599 174.153335 259.207746 173.367976 
Q 259.238073 172.577932 258.868239 172.110277 
Q 258.498465 171.641061 257.834891 171.615589 
z
M 259.909873 168.600774 
L 259.875411 169.498551 
Q 259.510522 169.309415 259.136211 169.202791 
Q 258.761961 169.094606 258.390359 169.080342 
Q 257.414516 169.042883 256.873978 169.681994 
Q 256.335001 170.321166 256.210494 171.650181 
Q 256.514085 171.236521 256.95683 171.026787 
Q 257.401137 170.817113 257.922628 170.837131 
Q 259.020258 170.879265 259.631696 171.570415 
Q 260.243195 172.260003 260.199204 173.406034 
Q 260.156111 174.528645 259.466466 175.18236 
Q 258.77688 175.834514 257.674567 175.7922 
Q 256.409874 175.743653 255.778775 174.749964 
Q 255.147736 173.754714 255.218339 171.915444 
Q 255.284626 170.188591 256.143772 169.192688 
Q 257.002917 168.196785 258.383151 168.249767 
Q 258.754752 168.264031 259.129782 168.351919 
Q 259.504812 168.439806 259.909873 168.600774 
z
M 264.762106 169.485985 
L 262.124018 173.279773 
L 264.61281 173.375308 
L 264.762106 169.485985 
z
M 264.535886 168.617293 
L 265.775598 168.664881 
L 265.593338 173.412947 
L 266.633197 173.452863 
L 266.601732 174.272572 
L 265.561872 174.232655 
L 265.495945 175.950141 
L 264.515417 175.912502 
L 264.581345 174.195017 
L 261.293141 174.068795 
L 261.329641 173.117933 
L 264.535886 168.617293 
z
" clip-path="url(#p870478710f)" style="fill: #de4968"/>
   </g>
   <g id="text_19">
    <path d="M 317.29414 158.166951 
L 318.879773 157.88254 
L 317.897712 152.407418 
L 316.234194 153.062973 
L 316.075575 152.178648 
L 317.729865 151.524749 
L 318.700315 151.350681 
L 319.840995 157.710128 
L 321.426627 157.425716 
L 321.573109 158.242371 
L 317.440622 158.983606 
L 317.29414 158.166951 
z
M 324.223976 156.923962 
L 327.612093 156.316243 
L 327.758574 157.132897 
L 323.20315 157.949994 
L 323.056668 157.133339 
Q 323.506174 156.462186 324.287019 155.328393 
Q 325.069125 154.192786 325.263453 153.869016 
Q 325.635662 153.262526 325.755113 152.866465 
Q 325.876103 152.470128 325.813207 152.119474 
Q 325.710587 151.547355 325.24463 151.259473 
Q 324.778396 150.970052 324.133993 151.085638 
Q 323.67722 151.167568 323.198108 151.417011 
Q 322.720534 151.666179 322.201731 152.092597 
L 322.025733 151.111381 
Q 322.569487 150.770971 323.057034 150.559701 
Q 323.546118 150.348155 323.969056 150.272294 
Q 325.084074 150.072295 325.84707 150.511678 
Q 326.60979 150.949522 326.776961 151.881523 
Q 326.856408 152.324454 326.761481 152.75104 
Q 326.667816 153.175811 326.326049 153.792716 
Q 326.231192 153.954187 325.706236 154.735707 
Q 325.182818 155.516951 324.223976 156.923962 
z
M 331.261108 152.986897 
Q 330.569028 153.111034 330.238718 153.552853 
Q 329.909945 153.994396 330.026082 154.641875 
Q 330.142495 155.290893 330.604232 155.590644 
Q 331.067507 155.89012 331.759587 155.765983 
Q 332.451667 155.641846 332.783239 155.198213 
Q 333.116074 154.752766 333.000489 154.108363 
Q 332.884352 153.460883 332.421077 153.161408 
Q 331.95934 152.861656 331.261108 152.986897 
z
M 330.216728 152.748792 
Q 329.564732 152.706996 329.138927 152.342064 
Q 328.714384 151.975319 328.60404 151.360137 
Q 328.449834 150.500419 328.972286 149.890792 
Q 329.496276 149.280888 330.562079 149.089717 
Q 331.634034 148.897443 332.334257 149.287762 
Q 333.03448 149.678081 333.188686 150.537798 
Q 333.29903 151.152981 333.026879 151.644691 
Q 332.75599 152.134587 332.16378 152.399554 
Q 332.894328 152.436785 333.370486 152.843483 
Q 333.847905 153.248367 333.970939 153.934295 
Q 334.158247 154.978567 333.621671 155.651051 
Q 333.084818 156.321997 331.897517 156.53496 
Q 330.711753 156.747648 329.97364 156.30539 
Q 329.236789 155.861318 329.04948 154.817046 
Q 328.926447 154.131118 329.234923 153.58527 
Q 329.544661 153.037608 330.216728 152.748792 
z
M 329.586428 151.279174 
Q 329.686289 151.835914 330.089866 152.085775 
Q 330.494982 152.335359 331.124006 152.222533 
Q 331.749954 152.110258 332.046146 151.734881 
Q 332.343876 151.359228 332.244015 150.802488 
Q 332.143878 150.24421 331.734149 149.995453 
Q 331.325957 149.74642 330.700009 149.858695 
Q 330.070985 149.971522 329.777869 150.346347 
Q 329.486291 150.720896 329.586428 151.279174 
z
" clip-path="url(#p870478710f)" style="fill: #fe9f6d; stroke: #ffffff; stroke-width: 5"/>
    <path d="M 317.29414 158.166951 
L 318.879773 157.88254 
L 317.897712 152.407418 
L 316.234194 153.062973 
L 316.075575 152.178648 
L 317.729865 151.524749 
L 318.700315 151.350681 
L 319.840995 157.710128 
L 321.426627 157.425716 
L 321.573109 158.242371 
L 317.440622 158.983606 
L 317.29414 158.166951 
z
M 324.223976 156.923962 
L 327.612093 156.316243 
L 327.758574 157.132897 
L 323.20315 157.949994 
L 323.056668 157.133339 
Q 323.506174 156.462186 324.287019 155.328393 
Q 325.069125 154.192786 325.263453 153.869016 
Q 325.635662 153.262526 325.755113 152.866465 
Q 325.876103 152.470128 325.813207 152.119474 
Q 325.710587 151.547355 325.24463 151.259473 
Q 324.778396 150.970052 324.133993 151.085638 
Q 323.67722 151.167568 323.198108 151.417011 
Q 322.720534 151.666179 322.201731 152.092597 
L 322.025733 151.111381 
Q 322.569487 150.770971 323.057034 150.559701 
Q 323.546118 150.348155 323.969056 150.272294 
Q 325.084074 150.072295 325.84707 150.511678 
Q 326.60979 150.949522 326.776961 151.881523 
Q 326.856408 152.324454 326.761481 152.75104 
Q 326.667816 153.175811 326.326049 153.792716 
Q 326.231192 153.954187 325.706236 154.735707 
Q 325.182818 155.516951 324.223976 156.923962 
z
M 331.261108 152.986897 
Q 330.569028 153.111034 330.238718 153.552853 
Q 329.909945 153.994396 330.026082 154.641875 
Q 330.142495 155.290893 330.604232 155.590644 
Q 331.067507 155.89012 331.759587 155.765983 
Q 332.451667 155.641846 332.783239 155.198213 
Q 333.116074 154.752766 333.000489 154.108363 
Q 332.884352 153.460883 332.421077 153.161408 
Q 331.95934 152.861656 331.261108 152.986897 
z
M 330.216728 152.748792 
Q 329.564732 152.706996 329.138927 152.342064 
Q 328.714384 151.975319 328.60404 151.360137 
Q 328.449834 150.500419 328.972286 149.890792 
Q 329.496276 149.280888 330.562079 149.089717 
Q 331.634034 148.897443 332.334257 149.287762 
Q 333.03448 149.678081 333.188686 150.537798 
Q 333.29903 151.152981 333.026879 151.644691 
Q 332.75599 152.134587 332.16378 152.399554 
Q 332.894328 152.436785 333.370486 152.843483 
Q 333.847905 153.248367 333.970939 153.934295 
Q 334.158247 154.978567 333.621671 155.651051 
Q 333.084818 156.321997 331.897517 156.53496 
Q 330.711753 156.747648 329.97364 156.30539 
Q 329.236789 155.861318 329.04948 154.817046 
Q 328.926447 154.131118 329.234923 153.58527 
Q 329.544661 153.037608 330.216728 152.748792 
z
M 329.586428 151.279174 
Q 329.686289 151.835914 330.089866 152.085775 
Q 330.494982 152.335359 331.124006 152.222533 
Q 331.749954 152.110258 332.046146 151.734881 
Q 332.343876 151.359228 332.244015 150.802488 
Q 332.143878 150.24421 331.734149 149.995453 
Q 331.325957 149.74642 330.700009 149.858695 
Q 330.070985 149.971522 329.777869 150.346347 
Q 329.486291 150.720896 329.586428 151.279174 
z
" clip-path="url(#p870478710f)" style="fill: #fe9f6d"/>
   </g>
   <g id="patch_3">
    <path d="M 50.14375 301.735725 
L 50.14375 35.623725 
" style="fill: none; stroke: #cccccc; stroke-width: 0.8; stroke-linejoin: miter; stroke-linecap: square"/>
   </g>
   <g id="patch_4">
    <path d="M 407.26375 301.735725 
L 407.26375 35.623725 
" style="fill: none; stroke: #cccccc; stroke-width: 0.8; stroke-linejoin: miter; stroke-linecap: square"/>
   </g>
   <g id="patch_5">
    <path d="M 50.14375 301.735725 
L 407.26375 301.735725 
" style="fill: none; stroke: #cccccc; stroke-width: 0.8; stroke-linejoin: miter; stroke-linecap: square"/>
   </g>
   <g id="patch_6">
    <path d="M 50.14375 35.623725 
L 407.26375 35.623725 
" style="fill: none; stroke: #cccccc; stroke-width: 0.8; stroke-linejoin: miter; stroke-linecap: square"/>
   </g>
   <g id="text_20">
    <!-- Block Size = 4K, Read-Write Type = Random Read-only -->
    <g style="fill: #262626; opacity: 0.75" transform="translate(91.187344 30.882918) scale(0.1 -0.1)">
     <defs>
      <path id="DejaVuSans-6c" d="M 603 4863 
L 1178 4863 
L 1178 0 
L 603 0 
L 603 4863 
z
" transform="scale(0.015625)"/>
      <path id="DejaVuSans-6f" d="M 1959 3097 
Q 1497 3097 1228 2736 
Q 959 2375 959 1747 
Q 959 1119 1226 758 
Q 1494 397 1959 397 
Q 2419 397 2687 759 
Q 2956 1122 2956 1747 
Q 2956 2369 2687 2733 
Q 2419 3097 1959 3097 
z
M 1959 3584 
Q 2709 3584 3137 3096 
Q 3566 2609 3566 1747 
Q 3566 888 3137 398 
Q 2709 -91 1959 -91 
Q 1206 -91 779 398 
Q 353 888 353 1747 
Q 353 2609 779 3096 
Q 1206 3584 1959 3584 
z
" transform="scale(0.015625)"/>
      <path id="DejaVuSans-63" d="M 3122 3366 
L 3122 2828 
Q 2878 2963 2633 3030 
Q 2388 3097 2138 3097 
Q 1578 3097 1268 2742 
Q 959 2388 959 1747 
Q 959 1106 1268 751 
Q 1578 397 2138 397 
Q 2388 397 2633 464 
Q 2878 531 3122 666 
L 3122 134 
Q 2881 22 2623 -34 
Q 2366 -91 2075 -91 
Q 1284 -91 818 406 
Q 353 903 353 1747 
Q 353 2603 823 3093 
Q 1294 3584 2113 3584 
Q 2378 3584 2631 3529 
Q 2884 3475 3122 3366 
z
" transform="scale(0.015625)"/>
      <path id="DejaVuSans-6b" d="M 581 4863 
L 1159 4863 
L 1159 1991 
L 2875 3500 
L 3609 3500 
L 1753 1863 
L 3688 0 
L 2938 0 
L 1159 1709 
L 1159 0 
L 581 0 
L 581 4863 
z
" transform="scale(0.015625)"/>
      <path id="DejaVuSans-53" d="M 3425 4513 
L 3425 3897 
Q 3066 4069 2747 4153 
Q 2428 4238 2131 4238 
Q 1616 4238 1336 4038 
Q 1056 3838 1056 3469 
Q 1056 3159 1242 3001 
Q 1428 2844 1947 2747 
L 2328 2669 
Q 3034 2534 3370 2195 
Q 3706 1856 3706 1288 
Q 3706 609 3251 259 
Q 2797 -91 1919 -91 
Q 1588 -91 1214 -16 
Q 841 59 441 206 
L 441 856 
Q 825 641 1194 531 
Q 1563 422 1919 422 
Q 2459 422 2753 634 
Q 3047 847 3047 1241 
Q 3047 1584 2836 1778 
Q 2625 1972 2144 2069 
L 1759 2144 
Q 1053 2284 737 2584 
Q 422 2884 422 3419 
Q 422 4038 858 4394 
Q 1294 4750 2059 4750 
Q 2388 4750 2728 4690 
Q 3069 4631 3425 4513 
z
" transform="scale(0.015625)"/>
      <path id="DejaVuSans-7a" d="M 353 3500 
L 3084 3500 
L 3084 2975 
L 922 459 
L 3084 459 
L 3084 0 
L 275 0 
L 275 525 
L 2438 3041 
L 353 3041 
L 353 3500 
z
" transform="scale(0.015625)"/>
      <path id="DejaVuSans-3d" d="M 678 2906 
L 4684 2906 
L 4684 2381 
L 678 2381 
L 678 2906 
z
M 678 1631 
L 4684 1631 
L 4684 1100 
L 678 1100 
L 678 1631 
z
" transform="scale(0.015625)"/>
      <path id="DejaVuSans-4b" d="M 628 4666 
L 1259 4666 
L 1259 2694 
L 3353 4666 
L 4166 4666 
L 1850 2491 
L 4331 0 
L 3500 0 
L 1259 2247 
L 1259 0 
L 628 0 
L 628 4666 
z
" transform="scale(0.015625)"/>
      <path id="DejaVuSans-2c" d="M 750 794 
L 1409 794 
L 1409 256 
L 897 -744 
L 494 -744 
L 750 256 
L 750 794 
z
" transform="scale(0.015625)"/>
      <path id="DejaVuSans-52" d="M 2841 2188 
Q 3044 2119 3236 1894 
Q 3428 1669 3622 1275 
L 4263 0 
L 3584 0 
L 2988 1197 
Q 2756 1666 2539 1819 
Q 2322 1972 1947 1972 
L 1259 1972 
L 1259 0 
L 628 0 
L 628 4666 
L 2053 4666 
Q 2853 4666 3247 4331 
Q 3641 3997 3641 3322 
Q 3641 2881 3436 2590 
Q 3231 2300 2841 2188 
z
M 1259 4147 
L 1259 2491 
L 2053 2491 
Q 2509 2491 2742 2702 
Q 2975 2913 2975 3322 
Q 2975 3731 2742 3939 
Q 2509 4147 2053 4147 
L 1259 4147 
z
" transform="scale(0.015625)"/>
      <path id="DejaVuSans-2d" d="M 313 2009 
L 1997 2009 
L 1997 1497 
L 313 1497 
L 313 2009 
z
" transform="scale(0.015625)"/>
      <path id="DejaVuSans-57" d="M 213 4666 
L 850 4666 
L 1831 722 
L 2809 4666 
L 3519 4666 
L 4500 722 
L 5478 4666 
L 6119 4666 
L 4947 0 
L 4153 0 
L 3169 4050 
L 2175 0 
L 1381 0 
L 213 4666 
z
" transform="scale(0.015625)"/>
      <path id="DejaVuSans-72" d="M 2631 2963 
Q 2534 3019 2420 3045 
Q 2306 3072 2169 3072 
Q 1681 3072 1420 2755 
Q 1159 2438 1159 1844 
L 1159 0 
L 581 0 
L 581 3500 
L 1159 3500 
L 1159 2956 
Q 1341 3275 1631 3429 
Q 1922 3584 2338 3584 
Q 2397 3584 2469 3576 
Q 2541 3569 2628 3553 
L 2631 2963 
z
" transform="scale(0.015625)"/>
      <path id="DejaVuSans-54" d="M -19 4666 
L 3928 4666 
L 3928 4134 
L 2272 4134 
L 2272 0 
L 1638 0 
L 1638 4134 
L -19 4134 
L -19 4666 
z
" transform="scale(0.015625)"/>
      <path id="DejaVuSans-79" d="M 2059 -325 
Q 1816 -950 1584 -1140 
Q 1353 -1331 966 -1331 
L 506 -1331 
L 506 -850 
L 844 -850 
Q 1081 -850 1212 -737 
Q 1344 -625 1503 -206 
L 1606 56 
L 191 3500 
L 800 3500 
L 1894 763 
L 2988 3500 
L 3597 3500 
L 2059 -325 
z
" transform="scale(0.015625)"/>
      <path id="DejaVuSans-6d" d="M 3328 2828 
Q 3544 3216 3844 3400 
Q 4144 3584 4550 3584 
Q 5097 3584 5394 3201 
Q 5691 2819 5691 2113 
L 5691 0 
L 5113 0 
L 5113 2094 
Q 5113 2597 4934 2840 
Q 4756 3084 4391 3084 
Q 3944 3084 3684 2787 
Q 3425 2491 3425 1978 
L 3425 0 
L 2847 0 
L 2847 2094 
Q 2847 2600 2669 2842 
Q 2491 3084 2119 3084 
Q 1678 3084 1418 2786 
Q 1159 2488 1159 1978 
L 1159 0 
L 581 0 
L 581 3500 
L 1159 3500 
L 1159 2956 
Q 1356 3278 1631 3431 
Q 1906 3584 2284 3584 
Q 2666 3584 2933 3390 
Q 3200 3197 3328 2828 
z
" transform="scale(0.015625)"/>
     </defs>
     <use xlink:href="#DejaVuSans-42"/>
     <use xlink:href="#DejaVuSans-6c" transform="translate(68.603516 0)"/>
     <use xlink:href="#DejaVuSans-6f" transform="translate(96.386719 0)"/>
     <use xlink:href="#DejaVuSans-63" transform="translate(157.568359 0)"/>
     <use xlink:href="#DejaVuSans-6b" transform="translate(212.548828 0)"/>
     <use xlink:href="#DejaVuSans-20" transform="translate(270.458984 0)"/>
     <use xlink:href="#DejaVuSans-53" transform="translate(302.246094 0)"/>
     <use xlink:href="#DejaVuSans-69" transform="translate(365.722656 0)"/>
     <use xlink:href="#DejaVuSans-7a" transform="translate(393.505859 0)"/>
     <use xlink:href="#DejaVuSans-65" transform="translate(445.996094 0)"/>
     <use xlink:href="#DejaVuSans-20" transform="translate(507.519531 0)"/>
     <use xlink:href="#DejaVuSans-3d" transform="translate(539.306641 0)"/>
     <use xlink:href="#DejaVuSans-20" transform="translate(623.095703 0)"/>
     <use xlink:href="#DejaVuSans-34" transform="translate(654.882812 0)"/>
     <use xlink:href="#DejaVuSans-4b" transform="translate(718.505859 0)"/>
     <use xlink:href="#DejaVuSans-2c" transform="translate(784.082031 0)"/>
     <use xlink:href="#DejaVuSans-20" transform="translate(815.869141 0)"/>
     <use xlink:href="#DejaVuSans-52" transform="translate(847.65625 0)"/>
     <use xlink:href="#DejaVuSans-65" transform="translate(912.638672 0)"/>
     <use xlink:href="#DejaVuSans-61" transform="translate(974.162109 0)"/>
     <use xlink:href="#DejaVuSans-64" transform="translate(1035.441406 0)"/>
     <use xlink:href="#DejaVuSans-2d" transform="translate(1098.917969 0)"/>
     <use xlink:href="#DejaVuSans-57" transform="translate(1131.001953 0)"/>
     <use xlink:href="#DejaVuSans-72" transform="translate(1225.378906 0)"/>
     <use xlink:href="#DejaVuSans-69" transform="translate(1266.492188 0)"/>
     <use xlink:href="#DejaVuSans-74" transform="translate(1294.275391 0)"/>
     <use xlink:href="#DejaVuSans-65" transform="translate(1333.484375 0)"/>
     <use xlink:href="#DejaVuSans-20" transform="translate(1395.007812 0)"/>
     <use xlink:href="#DejaVuSans-54" transform="translate(1426.794922 0)"/>
     <use xlink:href="#DejaVuSans-79" transform="translate(1472.253906 0)"/>
     <use xlink:href="#DejaVuSans-70" transform="translate(1531.433594 0)"/>
     <use xlink:href="#DejaVuSans-65" transform="translate(1594.910156 0)"/>
     <use xlink:href="#DejaVuSans-20" transform="translate(1656.433594 0)"/>
     <use xlink:href="#DejaVuSans-3d" transform="translate(1688.220703 0)"/>
     <use xlink:href="#DejaVuSans-20" transform="translate(1772.009766 0)"/>
     <use xlink:href="#DejaVuSans-52" transform="translate(1803.796875 0)"/>
     <use xlink:href="#DejaVuSans-61" transform="translate(1871.029297 0)"/>
     <use xlink:href="#DejaVuSans-6e" transform="translate(1932.308594 0)"/>
     <use xlink:href="#DejaVuSans-64" transform="translate(1995.6875 0)"/>
     <use xlink:href="#DejaVuSans-6f" transform="translate(2059.164062 0)"/>
     <use xlink:href="#DejaVuSans-6d" transform="translate(2120.345703 0)"/>
     <use xlink:href="#DejaVuSans-20" transform="translate(2217.757812 0)"/>
     <use xlink:href="#DejaVuSans-52" transform="translate(2249.544922 0)"/>
     <use xlink:href="#DejaVuSans-65" transform="translate(2314.527344 0)"/>
     <use xlink:href="#DejaVuSans-61" transform="translate(2376.050781 0)"/>
     <use xlink:href="#DejaVuSans-64" transform="translate(2437.330078 0)"/>
     <use xlink:href="#DejaVuSans-2d" transform="translate(2500.806641 0)"/>
     <use xlink:href="#DejaVuSans-6f" transform="translate(2538.765625 0)"/>
     <use xlink:href="#DejaVuSans-6e" transform="translate(2599.947266 0)"/>
     <use xlink:href="#DejaVuSans-6c" transform="translate(2663.326172 0)"/>
     <use xlink:href="#DejaVuSans-79" transform="translate(2691.109375 0)"/>
    </g>
   </g>
   <g id="text_21">
    <!-- Mean Bandwidth vs IO Depth -->
    <g style="fill: #262626" transform="translate(130.465938 16.318125) scale(0.12 -0.12)">
     <defs>
      <path id="DejaVuSans-Bold-4d" d="M 588 4666 
L 2119 4666 
L 3181 2169 
L 4250 4666 
L 5778 4666 
L 5778 0 
L 4641 0 
L 4641 3413 
L 3566 897 
L 2803 897 
L 1728 3413 
L 1728 0 
L 588 0 
L 588 4666 
z
" transform="scale(0.015625)"/>
      <path id="DejaVuSans-Bold-65" d="M 4031 1759 
L 4031 1441 
L 1416 1441 
Q 1456 1047 1700 850 
Q 1944 653 2381 653 
Q 2734 653 3104 758 
Q 3475 863 3866 1075 
L 3866 213 
Q 3469 63 3072 -14 
Q 2675 -91 2278 -91 
Q 1328 -91 801 392 
Q 275 875 275 1747 
Q 275 2603 792 3093 
Q 1309 3584 2216 3584 
Q 3041 3584 3536 3087 
Q 4031 2591 4031 1759 
z
M 2881 2131 
Q 2881 2450 2695 2645 
Q 2509 2841 2209 2841 
Q 1884 2841 1681 2658 
Q 1478 2475 1428 2131 
L 2881 2131 
z
" transform="scale(0.015625)"/>
      <path id="DejaVuSans-Bold-61" d="M 2106 1575 
Q 1756 1575 1579 1456 
Q 1403 1338 1403 1106 
Q 1403 894 1545 773 
Q 1688 653 1941 653 
Q 2256 653 2472 879 
Q 2688 1106 2688 1447 
L 2688 1575 
L 2106 1575 
z
M 3816 1997 
L 3816 0 
L 2688 0 
L 2688 519 
Q 2463 200 2181 54 
Q 1900 -91 1497 -91 
Q 953 -91 614 226 
Q 275 544 275 1050 
Q 275 1666 698 1953 
Q 1122 2241 2028 2241 
L 2688 2241 
L 2688 2328 
Q 2688 2594 2478 2717 
Q 2269 2841 1825 2841 
Q 1466 2841 1156 2769 
Q 847 2697 581 2553 
L 581 3406 
Q 941 3494 1303 3539 
Q 1666 3584 2028 3584 
Q 2975 3584 3395 3211 
Q 3816 2838 3816 1997 
z
" transform="scale(0.015625)"/>
      <path id="DejaVuSans-Bold-6e" d="M 4056 2131 
L 4056 0 
L 2931 0 
L 2931 347 
L 2931 1631 
Q 2931 2084 2911 2256 
Q 2891 2428 2841 2509 
Q 2775 2619 2662 2680 
Q 2550 2741 2406 2741 
Q 2056 2741 1856 2470 
Q 1656 2200 1656 1722 
L 1656 0 
L 538 0 
L 538 3500 
L 1656 3500 
L 1656 2988 
Q 1909 3294 2193 3439 
Q 2478 3584 2822 3584 
Q 3428 3584 3742 3212 
Q 4056 2841 4056 2131 
z
" transform="scale(0.015625)"/>
      <path id="DejaVuSans-Bold-20" transform="scale(0.015625)"/>
      <path id="DejaVuSans-Bold-42" d="M 2456 2859 
Q 2741 2859 2887 2984 
Q 3034 3109 3034 3353 
Q 3034 3594 2887 3720 
Q 2741 3847 2456 3847 
L 1791 3847 
L 1791 2859 
L 2456 2859 
z
M 2497 819 
Q 2859 819 3042 972 
Q 3225 1125 3225 1434 
Q 3225 1738 3044 1889 
Q 2863 2041 2497 2041 
L 1791 2041 
L 1791 819 
L 2497 819 
z
M 3616 2497 
Q 4003 2384 4215 2081 
Q 4428 1778 4428 1338 
Q 4428 663 3972 331 
Q 3516 0 2584 0 
L 588 0 
L 588 4666 
L 2394 4666 
Q 3366 4666 3802 4372 
Q 4238 4078 4238 3431 
Q 4238 3091 4078 2852 
Q 3919 2613 3616 2497 
z
" transform="scale(0.015625)"/>
      <path id="DejaVuSans-Bold-64" d="M 2919 2988 
L 2919 4863 
L 4044 4863 
L 4044 0 
L 2919 0 
L 2919 506 
Q 2688 197 2409 53 
Q 2131 -91 1766 -91 
Q 1119 -91 703 423 
Q 288 938 288 1747 
Q 288 2556 703 3070 
Q 1119 3584 1766 3584 
Q 2128 3584 2408 3439 
Q 2688 3294 2919 2988 
z
M 2181 722 
Q 2541 722 2730 984 
Q 2919 1247 2919 1747 
Q 2919 2247 2730 2509 
Q 2541 2772 2181 2772 
Q 1825 2772 1636 2509 
Q 1447 2247 1447 1747 
Q 1447 1247 1636 984 
Q 1825 722 2181 722 
z
" transform="scale(0.015625)"/>
      <path id="DejaVuSans-Bold-77" d="M 225 3500 
L 1313 3500 
L 1900 1088 
L 2491 3500 
L 3425 3500 
L 4013 1113 
L 4603 3500 
L 5691 3500 
L 4769 0 
L 3547 0 
L 2956 2406 
L 2369 0 
L 1147 0 
L 225 3500 
z
" transform="scale(0.015625)"/>
      <path id="DejaVuSans-Bold-69" d="M 538 3500 
L 1656 3500 
L 1656 0 
L 538 0 
L 538 3500 
z
M 538 4863 
L 1656 4863 
L 1656 3950 
L 538 3950 
L 538 4863 
z
" transform="scale(0.015625)"/>
      <path id="DejaVuSans-Bold-74" d="M 1759 4494 
L 1759 3500 
L 2913 3500 
L 2913 2700 
L 1759 2700 
L 1759 1216 
Q 1759 972 1856 886 
Q 1953 800 2241 800 
L 2816 800 
L 2816 0 
L 1856 0 
Q 1194 0 917 276 
Q 641 553 641 1216 
L 641 2700 
L 84 2700 
L 84 3500 
L 641 3500 
L 641 4494 
L 1759 4494 
z
" transform="scale(0.015625)"/>
      <path id="DejaVuSans-Bold-68" d="M 4056 2131 
L 4056 0 
L 2931 0 
L 2931 347 
L 2931 1625 
Q 2931 2084 2911 2256 
Q 2891 2428 2841 2509 
Q 2775 2619 2662 2680 
Q 2550 2741 2406 2741 
Q 2056 2741 1856 2470 
Q 1656 2200 1656 1722 
L 1656 0 
L 538 0 
L 538 4863 
L 1656 4863 
L 1656 2988 
Q 1909 3294 2193 3439 
Q 2478 3584 2822 3584 
Q 3428 3584 3742 3212 
Q 4056 2841 4056 2131 
z
" transform="scale(0.015625)"/>
      <path id="DejaVuSans-Bold-76" d="M 97 3500 
L 1216 3500 
L 2088 1081 
L 2956 3500 
L 4078 3500 
L 2700 0 
L 1472 0 
L 97 3500 
z
" transform="scale(0.015625)"/>
      <path id="DejaVuSans-Bold-73" d="M 3272 3391 
L 3272 2541 
Q 2913 2691 2578 2766 
Q 2244 2841 1947 2841 
Q 1628 2841 1473 2761 
Q 1319 2681 1319 2516 
Q 1319 2381 1436 2309 
Q 1553 2238 1856 2203 
L 2053 2175 
Q 2913 2066 3209 1816 
Q 3506 1566 3506 1031 
Q 3506 472 3093 190 
Q 2681 -91 1863 -91 
Q 1516 -91 1145 -36 
Q 775 19 384 128 
L 384 978 
Q 719 816 1070 734 
Q 1422 653 1784 653 
Q 2113 653 2278 743 
Q 2444 834 2444 1013 
Q 2444 1163 2330 1236 
Q 2216 1309 1875 1350 
L 1678 1375 
Q 931 1469 631 1722 
Q 331 1975 331 2491 
Q 331 3047 712 3315 
Q 1094 3584 1881 3584 
Q 2191 3584 2531 3537 
Q 2872 3491 3272 3391 
z
" transform="scale(0.015625)"/>
      <path id="DejaVuSans-Bold-49" d="M 588 4666 
L 1791 4666 
L 1791 0 
L 588 0 
L 588 4666 
z
" transform="scale(0.015625)"/>
      <path id="DejaVuSans-Bold-4f" d="M 2719 3878 
Q 2169 3878 1866 3472 
Q 1563 3066 1563 2328 
Q 1563 1594 1866 1187 
Q 2169 781 2719 781 
Q 3272 781 3575 1187 
Q 3878 1594 3878 2328 
Q 3878 3066 3575 3472 
Q 3272 3878 2719 3878 
z
M 2719 4750 
Q 3844 4750 4481 4106 
Q 5119 3463 5119 2328 
Q 5119 1197 4481 553 
Q 3844 -91 2719 -91 
Q 1597 -91 958 553 
Q 319 1197 319 2328 
Q 319 3463 958 4106 
Q 1597 4750 2719 4750 
z
" transform="scale(0.015625)"/>
      <path id="DejaVuSans-Bold-44" d="M 1791 3756 
L 1791 909 
L 2222 909 
Q 2959 909 3348 1275 
Q 3738 1641 3738 2338 
Q 3738 3031 3350 3393 
Q 2963 3756 2222 3756 
L 1791 3756 
z
M 588 4666 
L 1856 4666 
Q 2919 4666 3439 4514 
Q 3959 4363 4331 4000 
Q 4659 3684 4818 3271 
Q 4978 2859 4978 2338 
Q 4978 1809 4818 1395 
Q 4659 981 4331 666 
Q 3956 303 3431 151 
Q 2906 0 1856 0 
L 588 0 
L 588 4666 
z
" transform="scale(0.015625)"/>
      <path id="DejaVuSans-Bold-70" d="M 1656 506 
L 1656 -1331 
L 538 -1331 
L 538 3500 
L 1656 3500 
L 1656 2988 
Q 1888 3294 2169 3439 
Q 2450 3584 2816 3584 
Q 3463 3584 3878 3070 
Q 4294 2556 4294 1747 
Q 4294 938 3878 423 
Q 3463 -91 2816 -91 
Q 2450 -91 2169 54 
Q 1888 200 1656 506 
z
M 2400 2772 
Q 2041 2772 1848 2508 
Q 1656 2244 1656 1747 
Q 1656 1250 1848 986 
Q 2041 722 2400 722 
Q 2759 722 2948 984 
Q 3138 1247 3138 1747 
Q 3138 2247 2948 2509 
Q 2759 2772 2400 2772 
z
" transform="scale(0.015625)"/>
     </defs>
     <use xlink:href="#DejaVuSans-Bold-4d"/>
     <use xlink:href="#DejaVuSans-Bold-65" transform="translate(99.511719 0)"/>
     <use xlink:href="#DejaVuSans-Bold-61" transform="translate(167.333984 0)"/>
     <use xlink:href="#DejaVuSans-Bold-6e" transform="translate(234.814453 0)"/>
     <use xlink:href="#DejaVuSans-Bold-20" transform="translate(306.005859 0)"/>
     <use xlink:href="#DejaVuSans-Bold-42" transform="translate(340.820312 0)"/>
     <use xlink:href="#DejaVuSans-Bold-61" transform="translate(417.041016 0)"/>
     <use xlink:href="#DejaVuSans-Bold-6e" transform="translate(484.521484 0)"/>
     <use xlink:href="#DejaVuSans-Bold-64" transform="translate(555.712891 0)"/>
     <use xlink:href="#DejaVuSans-Bold-77" transform="translate(627.294922 0)"/>
     <use xlink:href="#DejaVuSans-Bold-69" transform="translate(719.677734 0)"/>
     <use xlink:href="#DejaVuSans-Bold-64" transform="translate(753.955078 0)"/>
     <use xlink:href="#DejaVuSans-Bold-74" transform="translate(825.537109 0)"/>
     <use xlink:href="#DejaVuSans-Bold-68" transform="translate(873.339844 0)"/>
     <use xlink:href="#DejaVuSans-Bold-20" transform="translate(944.53125 0)"/>
     <use xlink:href="#DejaVuSans-Bold-76" transform="translate(979.345703 0)"/>
     <use xlink:href="#DejaVuSans-Bold-73" transform="translate(1044.53125 0)"/>
     <use xlink:href="#DejaVuSans-Bold-20" transform="translate(1104.052734 0)"/>
     <use xlink:href="#DejaVuSans-Bold-49" transform="translate(1138.867188 0)"/>
     <use xlink:href="#DejaVuSans-Bold-4f" transform="translate(1176.074219 0)"/>
     <use xlink:href="#DejaVuSans-Bold-20" transform="translate(1261.083984 0)"/>
     <use xlink:href="#DejaVuSans-Bold-44" transform="translate(1295.898438 0)"/>
     <use xlink:href="#DejaVuSans-Bold-65" transform="translate(1378.90625 0)"/>
     <use xlink:href="#DejaVuSans-Bold-70" transform="translate(1446.728516 0)"/>
     <use xlink:href="#DejaVuSans-Bold-74" transform="translate(1518.310547 0)"/>
     <use xlink:href="#DejaVuSans-Bold-68" transform="translate(1566.113281 0)"/>
    </g>
   </g>
   <g id="legend_1">
    <g id="text_22">
     <!-- Number of Jobs -->
     <g style="fill: #262626" transform="translate(410.75 142.08285) scale(0.1 -0.1)">
      <defs>
       <path id="DejaVuSans-4e" d="M 628 4666 
L 1478 4666 
L 3547 763 
L 3547 4666 
L 4159 4666 
L 4159 0 
L 3309 0 
L 1241 3903 
L 1241 0 
L 628 0 
L 628 4666 
z
" transform="scale(0.015625)"/>
       <path id="DejaVuSans-75" d="M 544 1381 
L 544 3500 
L 1119 3500 
L 1119 1403 
Q 1119 906 1312 657 
Q 1506 409 1894 409 
Q 2359 409 2629 706 
Q 2900 1003 2900 1516 
L 2900 3500 
L 3475 3500 
L 3475 0 
L 2900 0 
L 2900 538 
Q 2691 219 2414 64 
Q 2138 -91 1772 -91 
Q 1169 -91 856 284 
Q 544 659 544 1381 
z
M 1991 3584 
L 1991 3584 
z
" transform="scale(0.015625)"/>
       <path id="DejaVuSans-62" d="M 3116 1747 
Q 3116 2381 2855 2742 
Q 2594 3103 2138 3103 
Q 1681 3103 1420 2742 
Q 1159 2381 1159 1747 
Q 1159 1113 1420 752 
Q 1681 391 2138 391 
Q 2594 391 2855 752 
Q 3116 1113 3116 1747 
z
M 1159 2969 
Q 1341 3281 1617 3432 
Q 1894 3584 2278 3584 
Q 2916 3584 3314 3078 
Q 3713 2572 3713 1747 
Q 3713 922 3314 415 
Q 2916 -91 2278 -91 
Q 1894 -91 1617 61 
Q 1341 213 1159 525 
L 1159 0 
L 581 0 
L 581 4863 
L 1159 4863 
L 1159 2969 
z
" transform="scale(0.015625)"/>
       <path id="DejaVuSans-66" d="M 2375 4863 
L 2375 4384 
L 1825 4384 
Q 1516 4384 1395 4259 
Q 1275 4134 1275 3809 
L 1275 3500 
L 2222 3500 
L 2222 3053 
L 1275 3053 
L 1275 0 
L 697 0 
L 697 3053 
L 147 3053 
L 147 3500 
L 697 3500 
L 697 3744 
Q 697 4328 969 4595 
Q 1241 4863 1831 4863 
L 2375 4863 
z
" transform="scale(0.015625)"/>
       <path id="DejaVuSans-4a" d="M 628 4666 
L 1259 4666 
L 1259 325 
Q 1259 -519 939 -900 
Q 619 -1281 -91 -1281 
L -331 -1281 
L -331 -750 
L -134 -750 
Q 284 -750 456 -515 
Q 628 -281 628 325 
L 628 4666 
z
" transform="scale(0.015625)"/>
      </defs>
      <use xlink:href="#DejaVuSans-4e"/>
      <use xlink:href="#DejaVuSans-75" transform="translate(74.804688 0)"/>
      <use xlink:href="#DejaVuSans-6d" transform="translate(138.183594 0)"/>
      <use xlink:href="#DejaVuSans-62" transform="translate(235.595703 0)"/>
      <use xlink:href="#DejaVuSans-65" transform="translate(299.072266 0)"/>
      <use xlink:href="#DejaVuSans-72" transform="translate(360.595703 0)"/>
      <use xlink:href="#DejaVuSans-20" transform="translate(401.708984 0)"/>
      <use xlink:href="#DejaVuSans-6f" transform="translate(433.496094 0)"/>
      <use xlink:href="#DejaVuSans-66" transform="translate(494.677734 0)"/>
      <use xlink:href="#DejaVuSans-20" transform="translate(529.882812 0)"/>
      <use xlink:href="#DejaVuSans-4a" transform="translate(561.669922 0)"/>
      <use xlink:href="#DejaVuSans-6f" transform="translate(591.162109 0)"/>
      <use xlink:href="#DejaVuSans-62" transform="translate(652.34375 0)"/>
      <use xlink:href="#DejaVuSans-73" transform="translate(715.820312 0)"/>
     </g>
    </g>
    <g id="line2d_22">
     <path d="M 425.603125 153.260975 
L 435.603125 153.260975 
L 445.603125 153.260975 
" style="fill: none; stroke: #3b0f70; stroke-width: 1.5; stroke-linecap: round"/>
    </g>
    <g id="text_23">
     <!-- 16 -->
     <g style="fill: #262626" transform="translate(453.603125 156.760975) scale(0.1 -0.1)">
      <use xlink:href="#DejaVuSans-31"/>
      <use xlink:href="#DejaVuSans-36" transform="translate(63.623047 0)"/>
     </g>
    </g>
    <g id="line2d_23">
     <path d="M 425.603125 167.9391 
L 435.603125 167.9391 
L 445.603125 167.9391 
" style="fill: none; stroke: #8c2981; stroke-width: 1.5; stroke-linecap: round"/>
    </g>
    <g id="text_24">
     <!-- 32 -->
     <g style="fill: #262626" transform="translate(453.603125 171.4391) scale(0.1 -0.1)">
      <use xlink:href="#DejaVuSans-33"/>
      <use xlink:href="#DejaVuSans-32" transform="translate(63.623047 0)"/>
     </g>
    </g>
    <g id="line2d_24">
     <path d="M 425.603125 182.617225 
L 435.603125 182.617225 
L 445.603125 182.617225 
" style="fill: none; stroke: #de4968; stroke-width: 1.5; stroke-linecap: round"/>
    </g>
    <g id="text_25">
     <!-- 64 -->
     <g style="fill: #262626" transform="translate(453.603125 186.117225) scale(0.1 -0.1)">
      <use xlink:href="#DejaVuSans-36"/>
      <use xlink:href="#DejaVuSans-34" transform="translate(63.623047 0)"/>
     </g>
    </g>
    <g id="line2d_25">
     <path d="M 425.603125 197.29535 
L 435.603125 197.29535 
L 445.603125 197.29535 
" style="fill: none; stroke: #fe9f6d; stroke-width: 1.5; stroke-linecap: round"/>
    </g>
    <g id="text_26">
     <!-- 128 -->
     <g style="fill: #262626" transform="translate(453.603125 200.79535) scale(0.1 -0.1)">
      <use xlink:href="#DejaVuSans-31"/>
      <use xlink:href="#DejaVuSans-32" transform="translate(63.623047 0)"/>
      <use xlink:href="#DejaVuSans-38" transform="translate(127.246094 0)"/>
     </g>
    </g>
   </g>
  </g>
 </g>
 <defs>
  <clipPath id="p870478710f">
   <rect x="50.14375" y="35.623725" width="357.12" height="266.112"/>
  </clipPath>
 </defs>
</svg>
