<?xml version="1.0" encoding="utf-8" standalone="no"?>
<!DOCTYPE svg PUBLIC "-//W3C//DTD SVG 1.1//EN"
  "http://www.w3.org/Graphics/SVG/1.1/DTD/svg11.dtd">
<svg xmlns:xlink="http://www.w3.org/1999/xlink" width="498.74375pt" height="339.291975pt" viewBox="0 0 498.74375 339.291975" xmlns="http://www.w3.org/2000/svg" version="1.1">
 <metadata>
  <rdf:RDF xmlns:dc="http://purl.org/dc/elements/1.1/" xmlns:cc="http://creativecommons.org/ns#" xmlns:rdf="http://www.w3.org/1999/02/22-rdf-syntax-ns#">
   <cc:Work>
    <dc:type rdf:resource="http://purl.org/dc/dcmitype/StillImage"/>
    <dc:date>2025-09-10T17:53:43.362762</dc:date>
    <dc:format>image/svg+xml</dc:format>
    <dc:creator>
     <cc:Agent>
      <dc:title>Matplotlib v3.10.6, https://matplotlib.org/</dc:title>
     </cc:Agent>
    </dc:creator>
   </cc:Work>
  </rdf:RDF>
 </metadata>
 <defs>
  <style type="text/css">*{stroke-linejoin: round; stroke-linecap: butt}</style>
 </defs>
 <g id="figure_1">
  <g id="patch_1">
   <path d="M 0 339.291975 
L 498.74375 339.291975 
L 498.74375 0 
L 0 0 
z
" style="fill: #ffffff"/>
  </g>
  <g id="axes_1">
   <g id="patch_2">
    <path d="M 50.14375 301.735725 
L 407.26375 301.735725 
L 407.26375 35.623725 
L 50.14375 35.623725 
z
" style="fill: #ffffff"/>
   </g>
   <g id="matplotlib.axis_1">
    <g id="xtick_1">
     <g id="line2d_1">
      <path d="M 391.031023 301.735725 
L 391.031023 35.623725 
" clip-path="url(#p61fab147dd)" style="fill: none; stroke: #cccccc; stroke-width: 0.8; stroke-linecap: round"/>
     </g>
     <g id="text_1">
      <!-- 128 -->
      <g style="fill: #262626" transform="translate(381.487273 316.334162) scale(0.1 -0.1)">
       <defs>
        <path id="DejaVuSans-31" d="M 794 531 
L 1825 531 
L 1825 4091 
L 703 3866 
L 703 4441 
L 1819 4666 
L 2450 4666 
L 2450 531 
L 3481 531 
L 3481 0 
L 794 0 
L 794 531 
z
" transform="scale(0.015625)"/>
        <path id="DejaVuSans-32" d="M 1228 531 
L 3431 531 
L 3431 0 
L 469 0 
L 469 531 
Q 828 903 1448 1529 
Q 2069 2156 2228 2338 
Q 2531 2678 2651 2914 
Q 2772 3150 2772 3378 
Q 2772 3750 2511 3984 
Q 2250 4219 1831 4219 
Q 1534 4219 1204 4116 
Q 875 4013 500 3803 
L 500 4441 
Q 881 4594 1212 4672 
Q 1544 4750 1819 4750 
Q 2544 4750 2975 4387 
Q 3406 4025 3406 3419 
Q 3406 3131 3298 2873 
Q 3191 2616 2906 2266 
Q 2828 2175 2409 1742 
Q 1991 1309 1228 531 
z
" transform="scale(0.015625)"/>
        <path id="DejaVuSans-38" d="M 2034 2216 
Q 1584 2216 1326 1975 
Q 1069 1734 1069 1313 
Q 1069 891 1326 650 
Q 1584 409 2034 409 
Q 2484 409 2743 651 
Q 3003 894 3003 1313 
Q 3003 1734 2745 1975 
Q 2488 2216 2034 2216 
z
M 1403 2484 
Q 997 2584 770 2862 
Q 544 3141 544 3541 
Q 544 4100 942 4425 
Q 1341 4750 2034 4750 
Q 2731 4750 3128 4425 
Q 3525 4100 3525 3541 
Q 3525 3141 3298 2862 
Q 3072 2584 2669 2484 
Q 3125 2378 3379 2068 
Q 3634 1759 3634 1313 
Q 3634 634 3220 271 
Q 2806 -91 2034 -91 
Q 1263 -91 848 271 
Q 434 634 434 1313 
Q 434 1759 690 2068 
Q 947 2378 1403 2484 
z
M 1172 3481 
Q 1172 3119 1398 2916 
Q 1625 2713 2034 2713 
Q 2441 2713 2670 2916 
Q 2900 3119 2900 3481 
Q 2900 3844 2670 4047 
Q 2441 4250 2034 4250 
Q 1625 4250 1398 4047 
Q 1172 3844 1172 3481 
z
" transform="scale(0.015625)"/>
       </defs>
       <use xlink:href="#DejaVuSans-31"/>
       <use xlink:href="#DejaVuSans-32" transform="translate(63.623047 0)"/>
       <use xlink:href="#DejaVuSans-38" transform="translate(127.246094 0)"/>
      </g>
     </g>
    </g>
    <g id="xtick_2">
     <g id="line2d_2">
      <path d="M 66.376477 301.735725 
L 66.376477 35.623725 
" clip-path="url(#p61fab147dd)" style="fill: none; stroke: #cccccc; stroke-width: 0.8; stroke-linecap: round"/>
     </g>
     <g id="text_2">
      <!-- 16 -->
      <g style="fill: #262626" transform="translate(60.013977 316.334162) scale(0.1 -0.1)">
       <defs>
        <path id="DejaVuSans-36" d="M 2113 2584 
Q 1688 2584 1439 2293 
Q 1191 2003 1191 1497 
Q 1191 994 1439 701 
Q 1688 409 2113 409 
Q 2538 409 2786 701 
Q 3034 994 3034 1497 
Q 3034 2003 2786 2293 
Q 2538 2584 2113 2584 
z
M 3366 4563 
L 3366 3988 
Q 3128 4100 2886 4159 
Q 2644 4219 2406 4219 
Q 1781 4219 1451 3797 
Q 1122 3375 1075 2522 
Q 1259 2794 1537 2939 
Q 1816 3084 2150 3084 
Q 2853 3084 3261 2657 
Q 3669 2231 3669 1497 
Q 3669 778 3244 343 
Q 2819 -91 2113 -91 
Q 1303 -91 875 529 
Q 447 1150 447 2328 
Q 447 3434 972 4092 
Q 1497 4750 2381 4750 
Q 2619 4750 2861 4703 
Q 3103 4656 3366 4563 
z
" transform="scale(0.015625)"/>
       </defs>
       <use xlink:href="#DejaVuSans-31"/>
       <use xlink:href="#DejaVuSans-36" transform="translate(63.623047 0)"/>
      </g>
     </g>
    </g>
    <g id="xtick_3">
     <g id="line2d_3">
      <path d="M 205.51414 301.735725 
L 205.51414 35.623725 
" clip-path="url(#p61fab147dd)" style="fill: none; stroke: #cccccc; stroke-width: 0.8; stroke-linecap: round"/>
     </g>
     <g id="text_3">
      <!-- 64 -->
      <g style="fill: #262626" transform="translate(199.15164 316.334162) scale(0.1 -0.1)">
       <defs>
        <path id="DejaVuSans-34" d="M 2419 4116 
L 825 1625 
L 2419 1625 
L 2419 4116 
z
M 2253 4666 
L 3047 4666 
L 3047 1625 
L 3713 1625 
L 3713 1100 
L 3047 1100 
L 3047 0 
L 2419 0 
L 2419 1100 
L 313 1100 
L 313 1709 
L 2253 4666 
z
" transform="scale(0.015625)"/>
       </defs>
       <use xlink:href="#DejaVuSans-36"/>
       <use xlink:href="#DejaVuSans-34" transform="translate(63.623047 0)"/>
      </g>
     </g>
    </g>
    <g id="xtick_4">
     <g id="line2d_4">
      <path d="M 112.755698 301.735725 
L 112.755698 35.623725 
" clip-path="url(#p61fab147dd)" style="fill: none; stroke: #cccccc; stroke-width: 0.8; stroke-linecap: round"/>
     </g>
     <g id="text_4">
      <!-- 32 -->
      <g style="fill: #262626" transform="translate(106.393198 316.334162) scale(0.1 -0.1)">
       <defs>
        <path id="DejaVuSans-33" d="M 2597 2516 
Q 3050 2419 3304 2112 
Q 3559 1806 3559 1356 
Q 3559 666 3084 287 
Q 2609 -91 1734 -91 
Q 1441 -91 1130 -33 
Q 819 25 488 141 
L 488 750 
Q 750 597 1062 519 
Q 1375 441 1716 441 
Q 2309 441 2620 675 
Q 2931 909 2931 1356 
Q 2931 1769 2642 2001 
Q 2353 2234 1838 2234 
L 1294 2234 
L 1294 2753 
L 1863 2753 
Q 2328 2753 2575 2939 
Q 2822 3125 2822 3475 
Q 2822 3834 2567 4026 
Q 2313 4219 1838 4219 
Q 1578 4219 1281 4162 
Q 984 4106 628 3988 
L 628 4550 
Q 988 4650 1302 4700 
Q 1616 4750 1894 4750 
Q 2613 4750 3031 4423 
Q 3450 4097 3450 3541 
Q 3450 3153 3228 2886 
Q 3006 2619 2597 2516 
z
" transform="scale(0.015625)"/>
       </defs>
       <use xlink:href="#DejaVuSans-33"/>
       <use xlink:href="#DejaVuSans-32" transform="translate(63.623047 0)"/>
      </g>
     </g>
    </g>
    <g id="text_5">
     <!-- Number of Jobs -->
     <g style="fill: #262626" transform="translate(190.306875 330.012287) scale(0.1 -0.1)">
      <defs>
       <path id="DejaVuSans-4e" d="M 628 4666 
L 1478 4666 
L 3547 763 
L 3547 4666 
L 4159 4666 
L 4159 0 
L 3309 0 
L 1241 3903 
L 1241 0 
L 628 0 
L 628 4666 
z
" transform="scale(0.015625)"/>
       <path id="DejaVuSans-75" d="M 544 1381 
L 544 3500 
L 1119 3500 
L 1119 1403 
Q 1119 906 1312 657 
Q 1506 409 1894 409 
Q 2359 409 2629 706 
Q 2900 1003 2900 1516 
L 2900 3500 
L 3475 3500 
L 3475 0 
L 2900 0 
L 2900 538 
Q 2691 219 2414 64 
Q 2138 -91 1772 -91 
Q 1169 -91 856 284 
Q 544 659 544 1381 
z
M 1991 3584 
L 1991 3584 
z
" transform="scale(0.015625)"/>
       <path id="DejaVuSans-6d" d="M 3328 2828 
Q 3544 3216 3844 3400 
Q 4144 3584 4550 3584 
Q 5097 3584 5394 3201 
Q 5691 2819 5691 2113 
L 5691 0 
L 5113 0 
L 5113 2094 
Q 5113 2597 4934 2840 
Q 4756 3084 4391 3084 
Q 3944 3084 3684 2787 
Q 3425 2491 3425 1978 
L 3425 0 
L 2847 0 
L 2847 2094 
Q 2847 2600 2669 2842 
Q 2491 3084 2119 3084 
Q 1678 3084 1418 2786 
Q 1159 2488 1159 1978 
L 1159 0 
L 581 0 
L 581 3500 
L 1159 3500 
L 1159 2956 
Q 1356 3278 1631 3431 
Q 1906 3584 2284 3584 
Q 2666 3584 2933 3390 
Q 3200 3197 3328 2828 
z
" transform="scale(0.015625)"/>
       <path id="DejaVuSans-62" d="M 3116 1747 
Q 3116 2381 2855 2742 
Q 2594 3103 2138 3103 
Q 1681 3103 1420 2742 
Q 1159 2381 1159 1747 
Q 1159 1113 1420 752 
Q 1681 391 2138 391 
Q 2594 391 2855 752 
Q 3116 1113 3116 1747 
z
M 1159 2969 
Q 1341 3281 1617 3432 
Q 1894 3584 2278 3584 
Q 2916 3584 3314 3078 
Q 3713 2572 3713 1747 
Q 3713 922 3314 415 
Q 2916 -91 2278 -91 
Q 1894 -91 1617 61 
Q 1341 213 1159 525 
L 1159 0 
L 581 0 
L 581 4863 
L 1159 4863 
L 1159 2969 
z
" transform="scale(0.015625)"/>
       <path id="DejaVuSans-65" d="M 3597 1894 
L 3597 1613 
L 953 1613 
Q 991 1019 1311 708 
Q 1631 397 2203 397 
Q 2534 397 2845 478 
Q 3156 559 3463 722 
L 3463 178 
Q 3153 47 2828 -22 
Q 2503 -91 2169 -91 
Q 1331 -91 842 396 
Q 353 884 353 1716 
Q 353 2575 817 3079 
Q 1281 3584 2069 3584 
Q 2775 3584 3186 3129 
Q 3597 2675 3597 1894 
z
M 3022 2063 
Q 3016 2534 2758 2815 
Q 2500 3097 2075 3097 
Q 1594 3097 1305 2825 
Q 1016 2553 972 2059 
L 3022 2063 
z
" transform="scale(0.015625)"/>
       <path id="DejaVuSans-72" d="M 2631 2963 
Q 2534 3019 2420 3045 
Q 2306 3072 2169 3072 
Q 1681 3072 1420 2755 
Q 1159 2438 1159 1844 
L 1159 0 
L 581 0 
L 581 3500 
L 1159 3500 
L 1159 2956 
Q 1341 3275 1631 3429 
Q 1922 3584 2338 3584 
Q 2397 3584 2469 3576 
Q 2541 3569 2628 3553 
L 2631 2963 
z
" transform="scale(0.015625)"/>
       <path id="DejaVuSans-20" transform="scale(0.015625)"/>
       <path id="DejaVuSans-6f" d="M 1959 3097 
Q 1497 3097 1228 2736 
Q 959 2375 959 1747 
Q 959 1119 1226 758 
Q 1494 397 1959 397 
Q 2419 397 2687 759 
Q 2956 1122 2956 1747 
Q 2956 2369 2687 2733 
Q 2419 3097 1959 3097 
z
M 1959 3584 
Q 2709 3584 3137 3096 
Q 3566 2609 3566 1747 
Q 3566 888 3137 398 
Q 2709 -91 1959 -91 
Q 1206 -91 779 398 
Q 353 888 353 1747 
Q 353 2609 779 3096 
Q 1206 3584 1959 3584 
z
" transform="scale(0.015625)"/>
       <path id="DejaVuSans-66" d="M 2375 4863 
L 2375 4384 
L 1825 4384 
Q 1516 4384 1395 4259 
Q 1275 4134 1275 3809 
L 1275 3500 
L 2222 3500 
L 2222 3053 
L 1275 3053 
L 1275 0 
L 697 0 
L 697 3053 
L 147 3053 
L 147 3500 
L 697 3500 
L 697 3744 
Q 697 4328 969 4595 
Q 1241 4863 1831 4863 
L 2375 4863 
z
" transform="scale(0.015625)"/>
       <path id="DejaVuSans-4a" d="M 628 4666 
L 1259 4666 
L 1259 325 
Q 1259 -519 939 -900 
Q 619 -1281 -91 -1281 
L -331 -1281 
L -331 -750 
L -134 -750 
Q 284 -750 456 -515 
Q 628 -281 628 325 
L 628 4666 
z
" transform="scale(0.015625)"/>
       <path id="DejaVuSans-73" d="M 2834 3397 
L 2834 2853 
Q 2591 2978 2328 3040 
Q 2066 3103 1784 3103 
Q 1356 3103 1142 2972 
Q 928 2841 928 2578 
Q 928 2378 1081 2264 
Q 1234 2150 1697 2047 
L 1894 2003 
Q 2506 1872 2764 1633 
Q 3022 1394 3022 966 
Q 3022 478 2636 193 
Q 2250 -91 1575 -91 
Q 1294 -91 989 -36 
Q 684 19 347 128 
L 347 722 
Q 666 556 975 473 
Q 1284 391 1588 391 
Q 1994 391 2212 530 
Q 2431 669 2431 922 
Q 2431 1156 2273 1281 
Q 2116 1406 1581 1522 
L 1381 1569 
Q 847 1681 609 1914 
Q 372 2147 372 2553 
Q 372 3047 722 3315 
Q 1072 3584 1716 3584 
Q 2034 3584 2315 3537 
Q 2597 3491 2834 3397 
z
" transform="scale(0.015625)"/>
      </defs>
      <use xlink:href="#DejaVuSans-4e"/>
      <use xlink:href="#DejaVuSans-75" transform="translate(74.804688 0)"/>
      <use xlink:href="#DejaVuSans-6d" transform="translate(138.183594 0)"/>
      <use xlink:href="#DejaVuSans-62" transform="translate(235.595703 0)"/>
      <use xlink:href="#DejaVuSans-65" transform="translate(299.072266 0)"/>
      <use xlink:href="#DejaVuSans-72" transform="translate(360.595703 0)"/>
      <use xlink:href="#DejaVuSans-20" transform="translate(401.708984 0)"/>
      <use xlink:href="#DejaVuSans-6f" transform="translate(433.496094 0)"/>
      <use xlink:href="#DejaVuSans-66" transform="translate(494.677734 0)"/>
      <use xlink:href="#DejaVuSans-20" transform="translate(529.882812 0)"/>
      <use xlink:href="#DejaVuSans-4a" transform="translate(561.669922 0)"/>
      <use xlink:href="#DejaVuSans-6f" transform="translate(591.162109 0)"/>
      <use xlink:href="#DejaVuSans-62" transform="translate(652.34375 0)"/>
      <use xlink:href="#DejaVuSans-73" transform="translate(715.820312 0)"/>
     </g>
    </g>
   </g>
   <g id="matplotlib.axis_2">
    <g id="ytick_1">
     <g id="line2d_5">
      <path d="M 50.14375 250.570751 
L 407.26375 250.570751 
" clip-path="url(#p61fab147dd)" style="fill: none; stroke: #cccccc; stroke-width: 0.8; stroke-linecap: round"/>
     </g>
     <g id="text_6">
      <!-- 0.10 -->
      <g style="fill: #262626" transform="translate(20.878125 254.36997) scale(0.1 -0.1)">
       <defs>
        <path id="DejaVuSans-30" d="M 2034 4250 
Q 1547 4250 1301 3770 
Q 1056 3291 1056 2328 
Q 1056 1369 1301 889 
Q 1547 409 2034 409 
Q 2525 409 2770 889 
Q 3016 1369 3016 2328 
Q 3016 3291 2770 3770 
Q 2525 4250 2034 4250 
z
M 2034 4750 
Q 2819 4750 3233 4129 
Q 3647 3509 3647 2328 
Q 3647 1150 3233 529 
Q 2819 -91 2034 -91 
Q 1250 -91 836 529 
Q 422 1150 422 2328 
Q 422 3509 836 4129 
Q 1250 4750 2034 4750 
z
" transform="scale(0.015625)"/>
        <path id="DejaVuSans-2e" d="M 684 794 
L 1344 794 
L 1344 0 
L 684 0 
L 684 794 
z
" transform="scale(0.015625)"/>
       </defs>
       <use xlink:href="#DejaVuSans-30"/>
       <use xlink:href="#DejaVuSans-2e" transform="translate(63.623047 0)"/>
       <use xlink:href="#DejaVuSans-31" transform="translate(95.410156 0)"/>
       <use xlink:href="#DejaVuSans-30" transform="translate(159.033203 0)"/>
      </g>
     </g>
    </g>
    <g id="ytick_2">
     <g id="line2d_6">
      <path d="M 50.14375 191.812219 
L 407.26375 191.812219 
" clip-path="url(#p61fab147dd)" style="fill: none; stroke: #cccccc; stroke-width: 0.8; stroke-linecap: round"/>
     </g>
     <g id="text_7">
      <!-- 0.15 -->
      <g style="fill: #262626" transform="translate(20.878125 195.611438) scale(0.1 -0.1)">
       <defs>
        <path id="DejaVuSans-35" d="M 691 4666 
L 3169 4666 
L 3169 4134 
L 1269 4134 
L 1269 2991 
Q 1406 3038 1543 3061 
Q 1681 3084 1819 3084 
Q 2600 3084 3056 2656 
Q 3513 2228 3513 1497 
Q 3513 744 3044 326 
Q 2575 -91 1722 -91 
Q 1428 -91 1123 -41 
Q 819 9 494 109 
L 494 744 
Q 775 591 1075 516 
Q 1375 441 1709 441 
Q 2250 441 2565 725 
Q 2881 1009 2881 1497 
Q 2881 1984 2565 2268 
Q 2250 2553 1709 2553 
Q 1456 2553 1204 2497 
Q 953 2441 691 2322 
L 691 4666 
z
" transform="scale(0.015625)"/>
       </defs>
       <use xlink:href="#DejaVuSans-30"/>
       <use xlink:href="#DejaVuSans-2e" transform="translate(63.623047 0)"/>
       <use xlink:href="#DejaVuSans-31" transform="translate(95.410156 0)"/>
       <use xlink:href="#DejaVuSans-35" transform="translate(159.033203 0)"/>
      </g>
     </g>
    </g>
    <g id="ytick_3">
     <g id="line2d_7">
      <path d="M 50.14375 133.053687 
L 407.26375 133.053687 
" clip-path="url(#p61fab147dd)" style="fill: none; stroke: #cccccc; stroke-width: 0.8; stroke-linecap: round"/>
     </g>
     <g id="text_8">
      <!-- 0.20 -->
      <g style="fill: #262626" transform="translate(20.878125 136.852905) scale(0.1 -0.1)">
       <use xlink:href="#DejaVuSans-30"/>
       <use xlink:href="#DejaVuSans-2e" transform="translate(63.623047 0)"/>
       <use xlink:href="#DejaVuSans-32" transform="translate(95.410156 0)"/>
       <use xlink:href="#DejaVuSans-30" transform="translate(159.033203 0)"/>
      </g>
     </g>
    </g>
    <g id="ytick_4">
     <g id="line2d_8">
      <path d="M 50.14375 74.295154 
L 407.26375 74.295154 
" clip-path="url(#p61fab147dd)" style="fill: none; stroke: #cccccc; stroke-width: 0.8; stroke-linecap: round"/>
     </g>
     <g id="text_9">
      <!-- 0.25 -->
      <g style="fill: #262626" transform="translate(20.878125 78.094373) scale(0.1 -0.1)">
       <use xlink:href="#DejaVuSans-30"/>
       <use xlink:href="#DejaVuSans-2e" transform="translate(63.623047 0)"/>
       <use xlink:href="#DejaVuSans-32" transform="translate(95.410156 0)"/>
       <use xlink:href="#DejaVuSans-35" transform="translate(159.033203 0)"/>
      </g>
     </g>
    </g>
    <g id="text_10">
     <!-- Mean Bandwidth (GiB/s) -->
     <g style="fill: #262626" transform="translate(14.798438 228.984412) rotate(-90) scale(0.1 -0.1)">
      <defs>
       <path id="DejaVuSans-4d" d="M 628 4666 
L 1569 4666 
L 2759 1491 
L 3956 4666 
L 4897 4666 
L 4897 0 
L 4281 0 
L 4281 4097 
L 3078 897 
L 2444 897 
L 1241 4097 
L 1241 0 
L 628 0 
L 628 4666 
z
" transform="scale(0.015625)"/>
       <path id="DejaVuSans-61" d="M 2194 1759 
Q 1497 1759 1228 1600 
Q 959 1441 959 1056 
Q 959 750 1161 570 
Q 1363 391 1709 391 
Q 2188 391 2477 730 
Q 2766 1069 2766 1631 
L 2766 1759 
L 2194 1759 
z
M 3341 1997 
L 3341 0 
L 2766 0 
L 2766 531 
Q 2569 213 2275 61 
Q 1981 -91 1556 -91 
Q 1019 -91 701 211 
Q 384 513 384 1019 
Q 384 1609 779 1909 
Q 1175 2209 1959 2209 
L 2766 2209 
L 2766 2266 
Q 2766 2663 2505 2880 
Q 2244 3097 1772 3097 
Q 1472 3097 1187 3025 
Q 903 2953 641 2809 
L 641 3341 
Q 956 3463 1253 3523 
Q 1550 3584 1831 3584 
Q 2591 3584 2966 3190 
Q 3341 2797 3341 1997 
z
" transform="scale(0.015625)"/>
       <path id="DejaVuSans-6e" d="M 3513 2113 
L 3513 0 
L 2938 0 
L 2938 2094 
Q 2938 2591 2744 2837 
Q 2550 3084 2163 3084 
Q 1697 3084 1428 2787 
Q 1159 2491 1159 1978 
L 1159 0 
L 581 0 
L 581 3500 
L 1159 3500 
L 1159 2956 
Q 1366 3272 1645 3428 
Q 1925 3584 2291 3584 
Q 2894 3584 3203 3211 
Q 3513 2838 3513 2113 
z
" transform="scale(0.015625)"/>
       <path id="DejaVuSans-42" d="M 1259 2228 
L 1259 519 
L 2272 519 
Q 2781 519 3026 730 
Q 3272 941 3272 1375 
Q 3272 1813 3026 2020 
Q 2781 2228 2272 2228 
L 1259 2228 
z
M 1259 4147 
L 1259 2741 
L 2194 2741 
Q 2656 2741 2882 2914 
Q 3109 3088 3109 3444 
Q 3109 3797 2882 3972 
Q 2656 4147 2194 4147 
L 1259 4147 
z
M 628 4666 
L 2241 4666 
Q 2963 4666 3353 4366 
Q 3744 4066 3744 3513 
Q 3744 3084 3544 2831 
Q 3344 2578 2956 2516 
Q 3422 2416 3680 2098 
Q 3938 1781 3938 1306 
Q 3938 681 3513 340 
Q 3088 0 2303 0 
L 628 0 
L 628 4666 
z
" transform="scale(0.015625)"/>
       <path id="DejaVuSans-64" d="M 2906 2969 
L 2906 4863 
L 3481 4863 
L 3481 0 
L 2906 0 
L 2906 525 
Q 2725 213 2448 61 
Q 2172 -91 1784 -91 
Q 1150 -91 751 415 
Q 353 922 353 1747 
Q 353 2572 751 3078 
Q 1150 3584 1784 3584 
Q 2172 3584 2448 3432 
Q 2725 3281 2906 2969 
z
M 947 1747 
Q 947 1113 1208 752 
Q 1469 391 1925 391 
Q 2381 391 2643 752 
Q 2906 1113 2906 1747 
Q 2906 2381 2643 2742 
Q 2381 3103 1925 3103 
Q 1469 3103 1208 2742 
Q 947 2381 947 1747 
z
" transform="scale(0.015625)"/>
       <path id="DejaVuSans-77" d="M 269 3500 
L 844 3500 
L 1563 769 
L 2278 3500 
L 2956 3500 
L 3675 769 
L 4391 3500 
L 4966 3500 
L 4050 0 
L 3372 0 
L 2619 2869 
L 1863 0 
L 1184 0 
L 269 3500 
z
" transform="scale(0.015625)"/>
       <path id="DejaVuSans-69" d="M 603 3500 
L 1178 3500 
L 1178 0 
L 603 0 
L 603 3500 
z
M 603 4863 
L 1178 4863 
L 1178 4134 
L 603 4134 
L 603 4863 
z
" transform="scale(0.015625)"/>
       <path id="DejaVuSans-74" d="M 1172 4494 
L 1172 3500 
L 2356 3500 
L 2356 3053 
L 1172 3053 
L 1172 1153 
Q 1172 725 1289 603 
Q 1406 481 1766 481 
L 2356 481 
L 2356 0 
L 1766 0 
Q 1100 0 847 248 
Q 594 497 594 1153 
L 594 3053 
L 172 3053 
L 172 3500 
L 594 3500 
L 594 4494 
L 1172 4494 
z
" transform="scale(0.015625)"/>
       <path id="DejaVuSans-68" d="M 3513 2113 
L 3513 0 
L 2938 0 
L 2938 2094 
Q 2938 2591 2744 2837 
Q 2550 3084 2163 3084 
Q 1697 3084 1428 2787 
Q 1159 2491 1159 1978 
L 1159 0 
L 581 0 
L 581 4863 
L 1159 4863 
L 1159 2956 
Q 1366 3272 1645 3428 
Q 1925 3584 2291 3584 
Q 2894 3584 3203 3211 
Q 3513 2838 3513 2113 
z
" transform="scale(0.015625)"/>
       <path id="DejaVuSans-28" d="M 1984 4856 
Q 1566 4138 1362 3434 
Q 1159 2731 1159 2009 
Q 1159 1288 1364 580 
Q 1569 -128 1984 -844 
L 1484 -844 
Q 1016 -109 783 600 
Q 550 1309 550 2009 
Q 550 2706 781 3412 
Q 1013 4119 1484 4856 
L 1984 4856 
z
" transform="scale(0.015625)"/>
       <path id="DejaVuSans-47" d="M 3809 666 
L 3809 1919 
L 2778 1919 
L 2778 2438 
L 4434 2438 
L 4434 434 
Q 4069 175 3628 42 
Q 3188 -91 2688 -91 
Q 1594 -91 976 548 
Q 359 1188 359 2328 
Q 359 3472 976 4111 
Q 1594 4750 2688 4750 
Q 3144 4750 3555 4637 
Q 3966 4525 4313 4306 
L 4313 3634 
Q 3963 3931 3569 4081 
Q 3175 4231 2741 4231 
Q 1884 4231 1454 3753 
Q 1025 3275 1025 2328 
Q 1025 1384 1454 906 
Q 1884 428 2741 428 
Q 3075 428 3337 486 
Q 3600 544 3809 666 
z
" transform="scale(0.015625)"/>
       <path id="DejaVuSans-2f" d="M 1625 4666 
L 2156 4666 
L 531 -594 
L 0 -594 
L 1625 4666 
z
" transform="scale(0.015625)"/>
       <path id="DejaVuSans-29" d="M 513 4856 
L 1013 4856 
Q 1481 4119 1714 3412 
Q 1947 2706 1947 2009 
Q 1947 1309 1714 600 
Q 1481 -109 1013 -844 
L 513 -844 
Q 928 -128 1133 580 
Q 1338 1288 1338 2009 
Q 1338 2731 1133 3434 
Q 928 4138 513 4856 
z
" transform="scale(0.015625)"/>
      </defs>
      <use xlink:href="#DejaVuSans-4d"/>
      <use xlink:href="#DejaVuSans-65" transform="translate(86.279297 0)"/>
      <use xlink:href="#DejaVuSans-61" transform="translate(147.802734 0)"/>
      <use xlink:href="#DejaVuSans-6e" transform="translate(209.082031 0)"/>
      <use xlink:href="#DejaVuSans-20" transform="translate(272.460938 0)"/>
      <use xlink:href="#DejaVuSans-42" transform="translate(304.248047 0)"/>
      <use xlink:href="#DejaVuSans-61" transform="translate(372.851562 0)"/>
      <use xlink:href="#DejaVuSans-6e" transform="translate(434.130859 0)"/>
      <use xlink:href="#DejaVuSans-64" transform="translate(497.509766 0)"/>
      <use xlink:href="#DejaVuSans-77" transform="translate(560.986328 0)"/>
      <use xlink:href="#DejaVuSans-69" transform="translate(642.773438 0)"/>
      <use xlink:href="#DejaVuSans-64" transform="translate(670.556641 0)"/>
      <use xlink:href="#DejaVuSans-74" transform="translate(734.033203 0)"/>
      <use xlink:href="#DejaVuSans-68" transform="translate(773.242188 0)"/>
      <use xlink:href="#DejaVuSans-20" transform="translate(836.621094 0)"/>
      <use xlink:href="#DejaVuSans-28" transform="translate(868.408203 0)"/>
      <use xlink:href="#DejaVuSans-47" transform="translate(907.421875 0)"/>
      <use xlink:href="#DejaVuSans-69" transform="translate(984.912109 0)"/>
      <use xlink:href="#DejaVuSans-42" transform="translate(1012.695312 0)"/>
      <use xlink:href="#DejaVuSans-2f" transform="translate(1081.298828 0)"/>
      <use xlink:href="#DejaVuSans-73" transform="translate(1114.990234 0)"/>
      <use xlink:href="#DejaVuSans-29" transform="translate(1167.089844 0)"/>
     </g>
    </g>
   </g>
   <g id="FillBetweenPolyCollection_1"/>
   <g id="FillBetweenPolyCollection_2"/>
   <g id="FillBetweenPolyCollection_3"/>
   <g id="FillBetweenPolyCollection_4"/>
   <g id="FillBetweenPolyCollection_5"/>
   <g id="FillBetweenPolyCollection_6"/>
   <g id="FillBetweenPolyCollection_7"/>
   <g id="line2d_9">
    <path d="M 66.376477 99.574153 
L 112.755698 82.718835 
L 205.51414 113.118901 
L 391.031023 121.968818 
" clip-path="url(#p61fab147dd)" style="fill: none; stroke: #4c02a1; stroke-width: 1.5; stroke-linecap: round"/>
   </g>
   <g id="line2d_10">
    <path d="M 66.376477 289.639725 
L 112.755698 209.025188 
L 205.51414 82.966803 
L 391.031023 90.868989 
" clip-path="url(#p61fab147dd)" style="fill: none; stroke: #7e03a8; stroke-width: 1.5; stroke-linecap: round"/>
   </g>
   <g id="line2d_11">
    <path d="M 66.376477 109.901521 
L 112.755698 85.931026 
L 205.51414 120.989787 
L 391.031023 134.810641 
" clip-path="url(#p61fab147dd)" style="fill: none; stroke: #aa2395; stroke-width: 1.5; stroke-linecap: round"/>
   </g>
   <g id="line2d_12">
    <path d="M 66.376477 66.103239 
L 112.755698 82.339698 
L 205.51414 95.916563 
L 391.031023 132.923263 
" clip-path="url(#p61fab147dd)" style="fill: none; stroke: #cc4778; stroke-width: 1.5; stroke-linecap: round"/>
   </g>
   <g id="line2d_13">
    <path d="M 66.376477 140.274483 
L 112.755698 47.719725 
L 205.51414 82.959178 
L 391.031023 93.102564 
" clip-path="url(#p61fab147dd)" style="fill: none; stroke: #e66c5c; stroke-width: 1.5; stroke-linecap: round"/>
   </g>
   <g id="line2d_14">
    <path d="M 66.376477 152.016014 
L 112.755698 76.064817 
L 205.51414 91.236725 
L 391.031023 80.337338 
" clip-path="url(#p61fab147dd)" style="fill: none; stroke: #f89540; stroke-width: 1.5; stroke-linecap: round"/>
   </g>
   <g id="line2d_15">
    <path d="M 66.376477 112.822426 
L 112.755698 81.209776 
L 205.51414 69.638089 
L 391.031023 96.34264 
" clip-path="url(#p61fab147dd)" style="fill: none; stroke: #fdc527; stroke-width: 1.5; stroke-linecap: round"/>
   </g>
   <g id="line2d_16"/>
   <g id="line2d_17"/>
   <g id="line2d_18"/>
   <g id="line2d_19"/>
   <g id="line2d_20"/>
   <g id="line2d_21"/>
   <g id="line2d_22"/>
   <g id="text_11">
    <path d="M 107.010956 86.859782 
L 108.525008 86.309539 
L 106.625043 81.081581 
L 105.097437 82.010809 
L 104.790561 81.166406 
L 106.309355 80.24038 
L 107.235996 79.903617 
L 109.442837 85.975978 
L 110.956889 85.425735 
L 111.240283 86.205523 
L 107.29435 87.63957 
L 107.010956 86.859782 
z
" clip-path="url(#p61fab147dd)" style="fill: #4c02a1; stroke: #ffffff; stroke-width: 5"/>
    <path d="M 107.010956 86.859782 
L 108.525008 86.309539 
L 106.625043 81.081581 
L 105.097437 82.010809 
L 104.790561 81.166406 
L 106.309355 80.24038 
L 107.235996 79.903617 
L 109.442837 85.975978 
L 110.956889 85.425735 
L 111.240283 86.205523 
L 107.29435 87.63957 
L 107.010956 86.859782 
z
" clip-path="url(#p61fab147dd)" style="fill: #4c02a1"/>
   </g>
   <g id="text_12">
    <path d="M 145.748945 157.99205 
L 147.407748 162.304904 
L 148.883878 160.29885 
L 145.748945 157.99205 
z
M 144.903044 157.691632 
L 145.63833 156.69238 
L 149.465439 159.508509 
L 150.082191 158.670346 
L 150.742905 159.156524 
L 150.126153 159.994688 
L 151.510507 161.013346 
L 150.928946 161.803687 
L 149.544592 160.785028 
L 147.594323 163.435436 
L 146.827894 162.871469 
L 144.903044 157.691632 
z
" clip-path="url(#p61fab147dd)" style="fill: #7e03a8; stroke: #ffffff; stroke-width: 5"/>
    <path d="M 145.748945 157.99205 
L 147.407748 162.304904 
L 148.883878 160.29885 
L 145.748945 157.99205 
z
M 144.903044 157.691632 
L 145.63833 156.69238 
L 149.465439 159.508509 
L 150.082191 158.670346 
L 150.742905 159.156524 
L 150.126153 159.994688 
L 151.510507 161.013346 
L 150.928946 161.803687 
L 149.544592 160.785028 
L 147.594323 163.435436 
L 146.827894 162.871469 
L 144.903044 157.691632 
z
" clip-path="url(#p61fab147dd)" style="fill: #7e03a8"/>
   </g>
   <g id="text_13">
    <path d="M 188.773415 113.910832 
Q 188.1157 113.662244 187.605478 113.871963 
Q 187.096717 114.082234 186.864149 114.697562 
Q 186.631028 115.314353 186.873523 115.808567 
Q 187.11748 116.303334 187.775195 116.551922 
Q 188.43291 116.80051 188.945146 116.589882 
Q 189.459397 116.378345 189.69086 115.76594 
Q 189.923428 115.150611 189.679472 114.655844 
Q 189.436976 114.16163 188.773415 113.910832 
z
M 187.999201 113.17055 
Q 187.461038 112.80011 187.28283 112.268389 
Q 187.106636 111.73576 187.327603 111.151124 
Q 187.636405 110.334096 188.397653 110.078943 
Q 189.160363 109.824342 190.173243 110.207168 
Q 191.19197 110.592203 191.592685 111.286529 
Q 191.993399 111.980856 191.684598 112.797884 
Q 191.46363 113.382519 190.977725 113.664903 
Q 190.493834 113.946378 189.849572 113.869912 
Q 190.4575 114.276743 190.657493 114.87015 
Q 190.859501 115.462647 190.613122 116.114516 
Q 190.23803 117.106934 189.432405 117.408789 
Q 188.627332 117.709183 187.498986 117.282716 
Q 186.372101 116.856801 185.965518 116.098453 
Q 185.560948 115.339195 185.93604 114.346777 
Q 186.182419 113.694908 186.727283 113.384697 
Q 187.274161 113.073576 187.999201 113.17055 
z
M 188.212335 111.585738 
Q 188.01236 112.114833 188.230538 112.536382 
Q 188.450177 112.958484 189.047967 113.184423 
Q 189.642833 113.409257 190.089678 113.239058 
Q 190.537984 113.069412 190.73796 112.540317 
Q 190.938488 112.009761 190.714463 111.586002 
Q 190.491901 111.162796 189.897034 110.937962 
Q 189.299245 110.712022 188.855323 110.883326 
Q 188.412863 111.055182 188.212335 111.585738 
z
" clip-path="url(#p61fab147dd)" style="fill: #aa2395; stroke: #ffffff; stroke-width: 5"/>
    <path d="M 188.773415 113.910832 
Q 188.1157 113.662244 187.605478 113.871963 
Q 187.096717 114.082234 186.864149 114.697562 
Q 186.631028 115.314353 186.873523 115.808567 
Q 187.11748 116.303334 187.775195 116.551922 
Q 188.43291 116.80051 188.945146 116.589882 
Q 189.459397 116.378345 189.69086 115.76594 
Q 189.923428 115.150611 189.679472 114.655844 
Q 189.436976 114.16163 188.773415 113.910832 
z
M 187.999201 113.17055 
Q 187.461038 112.80011 187.28283 112.268389 
Q 187.106636 111.73576 187.327603 111.151124 
Q 187.636405 110.334096 188.397653 110.078943 
Q 189.160363 109.824342 190.173243 110.207168 
Q 191.19197 110.592203 191.592685 111.286529 
Q 191.993399 111.980856 191.684598 112.797884 
Q 191.46363 113.382519 190.977725 113.664903 
Q 190.493834 113.946378 189.849572 113.869912 
Q 190.4575 114.276743 190.657493 114.87015 
Q 190.859501 115.462647 190.613122 116.114516 
Q 190.23803 117.106934 189.432405 117.408789 
Q 188.627332 117.709183 187.498986 117.282716 
Q 186.372101 116.856801 185.965518 116.098453 
Q 185.560948 115.339195 185.93604 114.346777 
Q 186.182419 113.694908 186.727283 113.384697 
Q 187.274161 113.073576 187.999201 113.17055 
z
M 188.212335 111.585738 
Q 188.01236 112.114833 188.230538 112.536382 
Q 188.450177 112.958484 189.047967 113.184423 
Q 189.642833 113.409257 190.089678 113.239058 
Q 190.537984 113.069412 190.73796 112.540317 
Q 190.938488 112.009761 190.714463 111.586002 
Q 190.491901 111.162796 189.897034 110.937962 
Q 189.299245 110.712022 188.855323 110.883326 
Q 188.412863 111.055182 188.212335 111.585738 
z
" clip-path="url(#p61fab147dd)" style="fill: #aa2395"/>
   </g>
   <g id="text_14">
    <path d="M 223.303341 101.432839 
L 224.883153 101.747978 
L 225.971316 96.292952 
L 224.183289 96.294767 
L 224.359046 95.413689 
L 226.137879 95.410039 
L 227.104767 95.602913 
L 225.840848 101.939018 
L 227.42066 102.254157 
L 227.258352 103.067814 
L 223.141034 102.246496 
L 223.303341 101.432839 
z
M 232.191364 99.934799 
Q 231.540132 99.804892 231.069638 100.174684 
Q 230.600983 100.54325 230.446317 101.318599 
Q 230.292568 102.089351 230.583022 102.614123 
Q 230.875313 103.137668 231.526545 103.267575 
Q 232.177777 103.397482 232.647044 103.025852 
Q 233.116617 102.652689 233.270366 101.881937 
Q 233.425031 101.106588 233.133661 100.586413 
Q 232.842596 100.064706 232.191364 99.934799 
z
M 234.716257 97.285353 
L 234.540501 98.166432 
Q 234.210045 97.922065 233.85726 97.757688 
Q 233.504781 97.591779 233.140091 97.519031 
Q 232.182397 97.327991 231.547744 97.873757 
Q 230.914624 98.419829 230.581874 99.712524 
Q 230.94696 99.351977 231.417263 99.214767 
Q 231.889099 99.077862 232.400891 99.179953 
Q 233.478105 99.394835 233.97277 100.173842 
Q 234.46774 100.951317 234.243383 102.076033 
Q 234.023611 103.177765 233.239415 103.714413 
Q 232.455525 104.249529 231.373714 104.03373 
Q 230.132542 103.786143 229.666224 102.705286 
Q 229.200213 101.622897 229.560284 99.817835 
Q 229.898348 98.1231 230.903938 97.275313 
Q 231.909528 96.427525 233.26409 96.697732 
Q 233.62878 96.77048 233.985233 96.916469 
Q 234.341686 97.062458 234.716257 97.285353 
z
" clip-path="url(#p61fab147dd)" style="fill: #cc4778; stroke: #ffffff; stroke-width: 5"/>
    <path d="M 223.303341 101.432839 
L 224.883153 101.747978 
L 225.971316 96.292952 
L 224.183289 96.294767 
L 224.359046 95.413689 
L 226.137879 95.410039 
L 227.104767 95.602913 
L 225.840848 101.939018 
L 227.42066 102.254157 
L 227.258352 103.067814 
L 223.141034 102.246496 
L 223.303341 101.432839 
z
M 232.191364 99.934799 
Q 231.540132 99.804892 231.069638 100.174684 
Q 230.600983 100.54325 230.446317 101.318599 
Q 230.292568 102.089351 230.583022 102.614123 
Q 230.875313 103.137668 231.526545 103.267575 
Q 232.177777 103.397482 232.647044 103.025852 
Q 233.116617 102.652689 233.270366 101.881937 
Q 233.425031 101.106588 233.133661 100.586413 
Q 232.842596 100.064706 232.191364 99.934799 
z
M 234.716257 97.285353 
L 234.540501 98.166432 
Q 234.210045 97.922065 233.85726 97.757688 
Q 233.504781 97.591779 233.140091 97.519031 
Q 232.182397 97.327991 231.547744 97.873757 
Q 230.914624 98.419829 230.581874 99.712524 
Q 230.94696 99.351977 231.417263 99.214767 
Q 231.889099 99.077862 232.400891 99.179953 
Q 233.478105 99.394835 233.97277 100.173842 
Q 234.46774 100.951317 234.243383 102.076033 
Q 234.023611 103.177765 233.239415 103.714413 
Q 232.455525 104.249529 231.373714 104.03373 
Q 230.132542 103.786143 229.666224 102.705286 
Q 229.200213 101.622897 229.560284 99.817835 
Q 229.898348 98.1231 230.903938 97.275313 
Q 231.909528 96.427525 233.26409 96.697732 
Q 233.62878 96.77048 233.985233 96.916469 
Q 234.341686 97.062458 234.716257 97.285353 
z
" clip-path="url(#p61fab147dd)" style="fill: #cc4778"/>
   </g>
   <g id="text_15">
    <path d="M 266.642478 85.127827 
Q 267.34096 85.317807 267.711055 85.818446 
Q 268.082795 86.317611 268.044408 87.019687 
Q 267.985548 88.096204 267.212137 88.646989 
Q 266.438812 89.196213 265.073663 89.121572 
Q 264.616533 89.096578 264.136268 88.979558 
Q 263.656003 88.862539 263.149482 88.653323 
L 263.201433 87.70318 
Q 263.597146 87.964236 264.077265 88.112544 
Q 264.558944 88.260937 265.090962 88.290026 
Q 266.016143 88.340612 266.521317 88.002062 
Q 267.026491 87.663512 267.064622 86.966116 
Q 267.099852 86.321766 266.668754 85.935153 
Q 266.237741 85.546981 265.434253 85.503049 
L 264.585521 85.456644 
L 264.629794 84.646915 
L 265.517531 84.695454 
Q 266.24301 84.73512 266.644238 84.465999 
Q 267.045467 84.196877 267.075323 83.650818 
Q 267.105947 83.090717 266.724483 82.769412 
Q 266.344663 82.446632 265.603583 82.406112 
Q 265.197938 82.383933 264.729706 82.447527 
Q 264.261558 82.509562 263.696072 82.663293 
L 263.744013 81.786478 
Q 264.314205 81.66117 264.808363 81.609948 
Q 265.302522 81.558725 265.736249 81.582439 
Q 266.858011 81.643773 267.482267 82.189606 
Q 268.108169 82.733964 268.06074 83.601418 
Q 268.027642 84.206764 267.658508 84.604392 
Q 267.289374 85.002019 266.642478 85.127827 
z
M 270.690092 88.455331 
L 274.127146 88.643257 
L 274.08185 89.471707 
L 269.460627 89.219035 
L 269.505924 88.390585 
Q 270.097758 87.840826 271.118464 86.917049 
Q 272.140815 85.991796 272.404407 85.721409 
Q 272.906142 85.216798 273.113494 84.858835 
Q 273.322407 84.500957 273.341856 84.145238 
Q 273.373589 83.564855 272.986346 83.177511 
Q 272.599188 82.788606 271.945477 82.752864 
Q 271.482107 82.727529 270.958465 82.860076 
Q 270.436382 82.992708 269.833405 83.288354 
L 269.887829 82.292966 
Q 270.495305 82.086761 271.018375 81.993304 
Q 271.543005 81.899931 271.972052 81.92339 
Q 273.103175 81.985236 273.744643 82.588344 
Q 274.386195 83.189891 274.334501 84.135354 
Q 274.309933 84.584683 274.119427 84.977994 
Q 273.930565 85.36983 273.45606 85.891578 
Q 273.326604 86.026899 272.635956 86.66671 
Q 271.946869 87.306606 270.690092 88.455331 
z
" clip-path="url(#p61fab147dd)" style="fill: #e66c5c; stroke: #ffffff; stroke-width: 5"/>
    <path d="M 266.642478 85.127827 
Q 267.34096 85.317807 267.711055 85.818446 
Q 268.082795 86.317611 268.044408 87.019687 
Q 267.985548 88.096204 267.212137 88.646989 
Q 266.438812 89.196213 265.073663 89.121572 
Q 264.616533 89.096578 264.136268 88.979558 
Q 263.656003 88.862539 263.149482 88.653323 
L 263.201433 87.70318 
Q 263.597146 87.964236 264.077265 88.112544 
Q 264.558944 88.260937 265.090962 88.290026 
Q 266.016143 88.340612 266.521317 88.002062 
Q 267.026491 87.663512 267.064622 86.966116 
Q 267.099852 86.321766 266.668754 85.935153 
Q 266.237741 85.546981 265.434253 85.503049 
L 264.585521 85.456644 
L 264.629794 84.646915 
L 265.517531 84.695454 
Q 266.24301 84.73512 266.644238 84.465999 
Q 267.045467 84.196877 267.075323 83.650818 
Q 267.105947 83.090717 266.724483 82.769412 
Q 266.344663 82.446632 265.603583 82.406112 
Q 265.197938 82.383933 264.729706 82.447527 
Q 264.261558 82.509562 263.696072 82.663293 
L 263.744013 81.786478 
Q 264.314205 81.66117 264.808363 81.609948 
Q 265.302522 81.558725 265.736249 81.582439 
Q 266.858011 81.643773 267.482267 82.189606 
Q 268.108169 82.733964 268.06074 83.601418 
Q 268.027642 84.206764 267.658508 84.604392 
Q 267.289374 85.002019 266.642478 85.127827 
z
M 270.690092 88.455331 
L 274.127146 88.643257 
L 274.08185 89.471707 
L 269.460627 89.219035 
L 269.505924 88.390585 
Q 270.097758 87.840826 271.118464 86.917049 
Q 272.140815 85.991796 272.404407 85.721409 
Q 272.906142 85.216798 273.113494 84.858835 
Q 273.322407 84.500957 273.341856 84.145238 
Q 273.373589 83.564855 272.986346 83.177511 
Q 272.599188 82.788606 271.945477 82.752864 
Q 271.482107 82.727529 270.958465 82.860076 
Q 270.436382 82.992708 269.833405 83.288354 
L 269.887829 82.292966 
Q 270.495305 82.086761 271.018375 81.993304 
Q 271.543005 81.899931 271.972052 81.92339 
Q 273.103175 81.985236 273.744643 82.588344 
Q 274.386195 83.189891 274.334501 84.135354 
Q 274.309933 84.584683 274.119427 84.977994 
Q 273.930565 85.36983 273.45606 85.891578 
Q 273.326604 86.026899 272.635956 86.66671 
Q 271.946869 87.306606 270.690092 88.455331 
z
" clip-path="url(#p61fab147dd)" style="fill: #e66c5c"/>
   </g>
   <g id="text_16">
    <path d="M 305.925119 84.057105 
Q 305.2622 84.096052 304.900475 84.572776 
Q 304.540218 85.047848 304.586588 85.837112 
Q 304.632683 86.621696 305.046367 87.055994 
Q 305.461519 87.488639 306.124439 87.449692 
Q 306.787358 87.410745 307.147432 86.932553 
Q 307.507414 86.452802 307.461318 85.668217 
Q 307.414948 84.878953 307.001539 84.449335 
Q 306.588039 84.018157 305.925119 84.057105 
z
M 307.698204 80.855414 
L 307.750897 81.752305 
Q 307.369399 81.599416 306.986518 81.529565 
Q 306.603545 81.458153 306.23231 81.479964 
Q 305.257429 81.53724 304.781364 82.225721 
Q 304.306859 82.914111 304.311718 84.248936 
Q 304.573797 83.807806 304.994136 83.556157 
Q 305.416035 83.304417 305.937012 83.273809 
Q 307.033558 83.209385 307.709092 83.838034 
Q 308.384533 84.465124 308.451798 85.610025 
Q 308.517688 86.731528 307.894632 87.448993 
Q 307.271485 88.164899 306.170259 88.229597 
Q 304.906813 88.303826 304.182397 87.375966 
Q 303.457889 86.446547 303.349935 84.60909 
Q 303.24858 82.88394 304.007181 81.809473 
Q 304.765781 80.735006 306.144654 80.653996 
Q 306.515889 80.632185 306.89767 80.683319 
Q 307.279451 80.734453 307.698204 80.855414 
z
M 312.613379 81.266282 
L 310.35532 85.297845 
L 312.841658 85.151769 
L 312.613379 81.266282 
z
M 312.304048 80.423599 
L 313.542538 80.350836 
L 313.821218 85.094219 
L 314.860052 85.033186 
L 314.908164 85.852086 
L 313.86933 85.913119 
L 313.970135 87.62891 
L 312.990574 87.686461 
L 312.889769 85.97067 
L 309.604809 86.163666 
L 309.548999 85.213741 
L 312.304048 80.423599 
z
" clip-path="url(#p61fab147dd)" style="fill: #f89540; stroke: #ffffff; stroke-width: 5"/>
    <path d="M 305.925119 84.057105 
Q 305.2622 84.096052 304.900475 84.572776 
Q 304.540218 85.047848 304.586588 85.837112 
Q 304.632683 86.621696 305.046367 87.055994 
Q 305.461519 87.488639 306.124439 87.449692 
Q 306.787358 87.410745 307.147432 86.932553 
Q 307.507414 86.452802 307.461318 85.668217 
Q 307.414948 84.878953 307.001539 84.449335 
Q 306.588039 84.018157 305.925119 84.057105 
z
M 307.698204 80.855414 
L 307.750897 81.752305 
Q 307.369399 81.599416 306.986518 81.529565 
Q 306.603545 81.458153 306.23231 81.479964 
Q 305.257429 81.53724 304.781364 82.225721 
Q 304.306859 82.914111 304.311718 84.248936 
Q 304.573797 83.807806 304.994136 83.556157 
Q 305.416035 83.304417 305.937012 83.273809 
Q 307.033558 83.209385 307.709092 83.838034 
Q 308.384533 84.465124 308.451798 85.610025 
Q 308.517688 86.731528 307.894632 87.448993 
Q 307.271485 88.164899 306.170259 88.229597 
Q 304.906813 88.303826 304.182397 87.375966 
Q 303.457889 86.446547 303.349935 84.60909 
Q 303.24858 82.88394 304.007181 81.809473 
Q 304.765781 80.735006 306.144654 80.653996 
Q 306.515889 80.632185 306.89767 80.683319 
Q 307.279451 80.734453 307.698204 80.855414 
z
M 312.613379 81.266282 
L 310.35532 85.297845 
L 312.841658 85.151769 
L 312.613379 81.266282 
z
M 312.304048 80.423599 
L 313.542538 80.350836 
L 313.821218 85.094219 
L 314.860052 85.033186 
L 314.908164 85.852086 
L 313.86933 85.913119 
L 313.970135 87.62891 
L 312.990574 87.686461 
L 312.889769 85.97067 
L 309.604809 86.163666 
L 309.548999 85.213741 
L 312.304048 80.423599 
z
" clip-path="url(#p61fab147dd)" style="fill: #f89540"/>
   </g>
   <g id="text_17">
    <path d="M 340.738396 91.052758 
L 342.332898 91.282281 
L 343.125433 85.77653 
L 341.340104 85.874724 
L 341.468111 84.985452 
L 343.244162 84.885923 
L 344.22004 85.026397 
L 343.299498 91.42142 
L 344.894 91.650944 
L 344.775788 92.472167 
L 340.620183 91.873981 
L 340.738396 91.052758 
z
M 347.706998 92.055865 
L 351.114068 92.546302 
L 350.995856 93.367525 
L 346.414948 92.708118 
L 346.53316 91.886895 
Q 347.17119 91.391497 348.269418 90.561376 
Q 349.369416 89.729932 349.655836 89.483855 
Q 350.200135 89.025479 350.438261 88.687206 
Q 350.677933 88.349155 350.728691 87.99654 
Q 350.811507 87.42122 350.459948 87.001221 
Q 350.108613 86.579675 349.460604 86.486396 
Q 349.001276 86.420277 348.467981 86.506107 
Q 347.936233 86.59216 347.309523 86.833455 
L 347.451556 85.84675 
Q 348.074856 85.694945 348.604132 85.648002 
Q 349.134954 85.60128 349.560258 85.662502 
Q 350.681513 85.823903 351.267269 86.481254 
Q 351.853246 87.137058 351.718337 88.074273 
Q 351.654222 88.519682 351.429757 88.894652 
Q 351.207061 89.268297 350.688374 89.746145 
Q 350.547484 89.869517 349.80308 90.445899 
Q 349.060223 91.022503 347.706998 92.055865 
z
M 355.62604 90.535836 
Q 354.930088 90.435656 354.477424 90.75094 
Q 354.026306 91.066447 353.932582 91.717549 
Q 353.838636 92.370197 354.182449 92.800132 
Q 354.52781 93.230289 355.223761 93.330469 
Q 355.919713 93.430649 356.374146 93.114041 
Q 356.830349 92.796108 356.923628 92.1481 
Q 357.017352 91.496999 356.671991 91.066841 
Q 356.328178 90.636907 355.62604 90.535836 
z
M 354.709823 89.980884 
Q 354.104183 89.735843 353.815003 89.255364 
Q 353.527592 88.773562 353.616641 88.154938 
Q 353.741086 87.290411 354.428969 86.876383 
Q 355.118399 86.462578 356.190164 86.616855 
Q 357.268116 86.772023 357.809748 87.363035 
Q 358.35138 87.954048 358.226934 88.818575 
Q 358.137885 89.437199 357.724704 89.818153 
Q 357.313293 90.197784 356.667768 90.262723 
Q 357.349401 90.528174 357.673214 91.064154 
Q 357.998796 91.598809 357.899507 92.288575 
Q 357.748346 93.338688 357.027259 93.807924 
Q 356.306394 94.275613 355.11245 94.103748 
Q 353.920053 93.932107 353.35882 93.279864 
Q 352.799356 92.626298 352.950517 91.576184 
Q 353.049806 90.886418 353.514516 90.465523 
Q 353.980994 90.043303 354.709823 89.980884 
z
M 354.574523 88.387538 
Q 354.493933 88.947393 354.798263 89.311657 
Q 355.10414 89.676144 355.736683 89.767196 
Q 356.366132 89.857803 356.765487 89.594832 
Q 357.166388 89.332084 357.246977 88.77223 
Q 357.327789 88.210828 357.017273 87.845674 
Q 356.708303 87.480742 356.078853 87.390135 
Q 355.44631 87.299082 355.050049 87.562498 
Q 354.655334 87.826137 354.574523 88.387538 
z
" clip-path="url(#p61fab147dd)" style="fill: #fdc527; stroke: #ffffff; stroke-width: 5"/>
    <path d="M 340.738396 91.052758 
L 342.332898 91.282281 
L 343.125433 85.77653 
L 341.340104 85.874724 
L 341.468111 84.985452 
L 343.244162 84.885923 
L 344.22004 85.026397 
L 343.299498 91.42142 
L 344.894 91.650944 
L 344.775788 92.472167 
L 340.620183 91.873981 
L 340.738396 91.052758 
z
M 347.706998 92.055865 
L 351.114068 92.546302 
L 350.995856 93.367525 
L 346.414948 92.708118 
L 346.53316 91.886895 
Q 347.17119 91.391497 348.269418 90.561376 
Q 349.369416 89.729932 349.655836 89.483855 
Q 350.200135 89.025479 350.438261 88.687206 
Q 350.677933 88.349155 350.728691 87.99654 
Q 350.811507 87.42122 350.459948 87.001221 
Q 350.108613 86.579675 349.460604 86.486396 
Q 349.001276 86.420277 348.467981 86.506107 
Q 347.936233 86.59216 347.309523 86.833455 
L 347.451556 85.84675 
Q 348.074856 85.694945 348.604132 85.648002 
Q 349.134954 85.60128 349.560258 85.662502 
Q 350.681513 85.823903 351.267269 86.481254 
Q 351.853246 87.137058 351.718337 88.074273 
Q 351.654222 88.519682 351.429757 88.894652 
Q 351.207061 89.268297 350.688374 89.746145 
Q 350.547484 89.869517 349.80308 90.445899 
Q 349.060223 91.022503 347.706998 92.055865 
z
M 355.62604 90.535836 
Q 354.930088 90.435656 354.477424 90.75094 
Q 354.026306 91.066447 353.932582 91.717549 
Q 353.838636 92.370197 354.182449 92.800132 
Q 354.52781 93.230289 355.223761 93.330469 
Q 355.919713 93.430649 356.374146 93.114041 
Q 356.830349 92.796108 356.923628 92.1481 
Q 357.017352 91.496999 356.671991 91.066841 
Q 356.328178 90.636907 355.62604 90.535836 
z
M 354.709823 89.980884 
Q 354.104183 89.735843 353.815003 89.255364 
Q 353.527592 88.773562 353.616641 88.154938 
Q 353.741086 87.290411 354.428969 86.876383 
Q 355.118399 86.462578 356.190164 86.616855 
Q 357.268116 86.772023 357.809748 87.363035 
Q 358.35138 87.954048 358.226934 88.818575 
Q 358.137885 89.437199 357.724704 89.818153 
Q 357.313293 90.197784 356.667768 90.262723 
Q 357.349401 90.528174 357.673214 91.064154 
Q 357.998796 91.598809 357.899507 92.288575 
Q 357.748346 93.338688 357.027259 93.807924 
Q 356.306394 94.275613 355.11245 94.103748 
Q 353.920053 93.932107 353.35882 93.279864 
Q 352.799356 92.626298 352.950517 91.576184 
Q 353.049806 90.886418 353.514516 90.465523 
Q 353.980994 90.043303 354.709823 89.980884 
z
M 354.574523 88.387538 
Q 354.493933 88.947393 354.798263 89.311657 
Q 355.10414 89.676144 355.736683 89.767196 
Q 356.366132 89.857803 356.765487 89.594832 
Q 357.166388 89.332084 357.246977 88.77223 
Q 357.327789 88.210828 357.017273 87.845674 
Q 356.708303 87.480742 356.078853 87.390135 
Q 355.44631 87.299082 355.050049 87.562498 
Q 354.655334 87.826137 354.574523 88.387538 
z
" clip-path="url(#p61fab147dd)" style="fill: #fdc527"/>
   </g>
   <g id="patch_3">
    <path d="M 50.14375 301.735725 
L 50.14375 35.623725 
" style="fill: none; stroke: #cccccc; stroke-width: 0.8; stroke-linejoin: miter; stroke-linecap: square"/>
   </g>
   <g id="patch_4">
    <path d="M 407.26375 301.735725 
L 407.26375 35.623725 
" style="fill: none; stroke: #cccccc; stroke-width: 0.8; stroke-linejoin: miter; stroke-linecap: square"/>
   </g>
   <g id="patch_5">
    <path d="M 50.14375 301.735725 
L 407.26375 301.735725 
" style="fill: none; stroke: #cccccc; stroke-width: 0.8; stroke-linejoin: miter; stroke-linecap: square"/>
   </g>
   <g id="patch_6">
    <path d="M 50.14375 35.623725 
L 407.26375 35.623725 
" style="fill: none; stroke: #cccccc; stroke-width: 0.8; stroke-linejoin: miter; stroke-linecap: square"/>
   </g>
   <g id="text_18">
    <!-- Block Size = 4K, Read-Write Type = Random Write-only -->
    <g style="fill: #262626; opacity: 0.75" transform="translate(90.551406 30.882918) scale(0.1 -0.1)">
     <defs>
      <path id="DejaVuSans-6c" d="M 603 4863 
L 1178 4863 
L 1178 0 
L 603 0 
L 603 4863 
z
" transform="scale(0.015625)"/>
      <path id="DejaVuSans-63" d="M 3122 3366 
L 3122 2828 
Q 2878 2963 2633 3030 
Q 2388 3097 2138 3097 
Q 1578 3097 1268 2742 
Q 959 2388 959 1747 
Q 959 1106 1268 751 
Q 1578 397 2138 397 
Q 2388 397 2633 464 
Q 2878 531 3122 666 
L 3122 134 
Q 2881 22 2623 -34 
Q 2366 -91 2075 -91 
Q 1284 -91 818 406 
Q 353 903 353 1747 
Q 353 2603 823 3093 
Q 1294 3584 2113 3584 
Q 2378 3584 2631 3529 
Q 2884 3475 3122 3366 
z
" transform="scale(0.015625)"/>
      <path id="DejaVuSans-6b" d="M 581 4863 
L 1159 4863 
L 1159 1991 
L 2875 3500 
L 3609 3500 
L 1753 1863 
L 3688 0 
L 2938 0 
L 1159 1709 
L 1159 0 
L 581 0 
L 581 4863 
z
" transform="scale(0.015625)"/>
      <path id="DejaVuSans-53" d="M 3425 4513 
L 3425 3897 
Q 3066 4069 2747 4153 
Q 2428 4238 2131 4238 
Q 1616 4238 1336 4038 
Q 1056 3838 1056 3469 
Q 1056 3159 1242 3001 
Q 1428 2844 1947 2747 
L 2328 2669 
Q 3034 2534 3370 2195 
Q 3706 1856 3706 1288 
Q 3706 609 3251 259 
Q 2797 -91 1919 -91 
Q 1588 -91 1214 -16 
Q 841 59 441 206 
L 441 856 
Q 825 641 1194 531 
Q 1563 422 1919 422 
Q 2459 422 2753 634 
Q 3047 847 3047 1241 
Q 3047 1584 2836 1778 
Q 2625 1972 2144 2069 
L 1759 2144 
Q 1053 2284 737 2584 
Q 422 2884 422 3419 
Q 422 4038 858 4394 
Q 1294 4750 2059 4750 
Q 2388 4750 2728 4690 
Q 3069 4631 3425 4513 
z
" transform="scale(0.015625)"/>
      <path id="DejaVuSans-7a" d="M 353 3500 
L 3084 3500 
L 3084 2975 
L 922 459 
L 3084 459 
L 3084 0 
L 275 0 
L 275 525 
L 2438 3041 
L 353 3041 
L 353 3500 
z
" transform="scale(0.015625)"/>
      <path id="DejaVuSans-3d" d="M 678 2906 
L 4684 2906 
L 4684 2381 
L 678 2381 
L 678 2906 
z
M 678 1631 
L 4684 1631 
L 4684 1100 
L 678 1100 
L 678 1631 
z
" transform="scale(0.015625)"/>
      <path id="DejaVuSans-4b" d="M 628 4666 
L 1259 4666 
L 1259 2694 
L 3353 4666 
L 4166 4666 
L 1850 2491 
L 4331 0 
L 3500 0 
L 1259 2247 
L 1259 0 
L 628 0 
L 628 4666 
z
" transform="scale(0.015625)"/>
      <path id="DejaVuSans-2c" d="M 750 794 
L 1409 794 
L 1409 256 
L 897 -744 
L 494 -744 
L 750 256 
L 750 794 
z
" transform="scale(0.015625)"/>
      <path id="DejaVuSans-52" d="M 2841 2188 
Q 3044 2119 3236 1894 
Q 3428 1669 3622 1275 
L 4263 0 
L 3584 0 
L 2988 1197 
Q 2756 1666 2539 1819 
Q 2322 1972 1947 1972 
L 1259 1972 
L 1259 0 
L 628 0 
L 628 4666 
L 2053 4666 
Q 2853 4666 3247 4331 
Q 3641 3997 3641 3322 
Q 3641 2881 3436 2590 
Q 3231 2300 2841 2188 
z
M 1259 4147 
L 1259 2491 
L 2053 2491 
Q 2509 2491 2742 2702 
Q 2975 2913 2975 3322 
Q 2975 3731 2742 3939 
Q 2509 4147 2053 4147 
L 1259 4147 
z
" transform="scale(0.015625)"/>
      <path id="DejaVuSans-2d" d="M 313 2009 
L 1997 2009 
L 1997 1497 
L 313 1497 
L 313 2009 
z
" transform="scale(0.015625)"/>
      <path id="DejaVuSans-57" d="M 213 4666 
L 850 4666 
L 1831 722 
L 2809 4666 
L 3519 4666 
L 4500 722 
L 5478 4666 
L 6119 4666 
L 4947 0 
L 4153 0 
L 3169 4050 
L 2175 0 
L 1381 0 
L 213 4666 
z
" transform="scale(0.015625)"/>
      <path id="DejaVuSans-54" d="M -19 4666 
L 3928 4666 
L 3928 4134 
L 2272 4134 
L 2272 0 
L 1638 0 
L 1638 4134 
L -19 4134 
L -19 4666 
z
" transform="scale(0.015625)"/>
      <path id="DejaVuSans-79" d="M 2059 -325 
Q 1816 -950 1584 -1140 
Q 1353 -1331 966 -1331 
L 506 -1331 
L 506 -850 
L 844 -850 
Q 1081 -850 1212 -737 
Q 1344 -625 1503 -206 
L 1606 56 
L 191 3500 
L 800 3500 
L 1894 763 
L 2988 3500 
L 3597 3500 
L 2059 -325 
z
" transform="scale(0.015625)"/>
      <path id="DejaVuSans-70" d="M 1159 525 
L 1159 -1331 
L 581 -1331 
L 581 3500 
L 1159 3500 
L 1159 2969 
Q 1341 3281 1617 3432 
Q 1894 3584 2278 3584 
Q 2916 3584 3314 3078 
Q 3713 2572 3713 1747 
Q 3713 922 3314 415 
Q 2916 -91 2278 -91 
Q 1894 -91 1617 61 
Q 1341 213 1159 525 
z
M 3116 1747 
Q 3116 2381 2855 2742 
Q 2594 3103 2138 3103 
Q 1681 3103 1420 2742 
Q 1159 2381 1159 1747 
Q 1159 1113 1420 752 
Q 1681 391 2138 391 
Q 2594 391 2855 752 
Q 3116 1113 3116 1747 
z
" transform="scale(0.015625)"/>
     </defs>
     <use xlink:href="#DejaVuSans-42"/>
     <use xlink:href="#DejaVuSans-6c" transform="translate(68.603516 0)"/>
     <use xlink:href="#DejaVuSans-6f" transform="translate(96.386719 0)"/>
     <use xlink:href="#DejaVuSans-63" transform="translate(157.568359 0)"/>
     <use xlink:href="#DejaVuSans-6b" transform="translate(212.548828 0)"/>
     <use xlink:href="#DejaVuSans-20" transform="translate(270.458984 0)"/>
     <use xlink:href="#DejaVuSans-53" transform="translate(302.246094 0)"/>
     <use xlink:href="#DejaVuSans-69" transform="translate(365.722656 0)"/>
     <use xlink:href="#DejaVuSans-7a" transform="translate(393.505859 0)"/>
     <use xlink:href="#DejaVuSans-65" transform="translate(445.996094 0)"/>
     <use xlink:href="#DejaVuSans-20" transform="translate(507.519531 0)"/>
     <use xlink:href="#DejaVuSans-3d" transform="translate(539.306641 0)"/>
     <use xlink:href="#DejaVuSans-20" transform="translate(623.095703 0)"/>
     <use xlink:href="#DejaVuSans-34" transform="translate(654.882812 0)"/>
     <use xlink:href="#DejaVuSans-4b" transform="translate(718.505859 0)"/>
     <use xlink:href="#DejaVuSans-2c" transform="translate(784.082031 0)"/>
     <use xlink:href="#DejaVuSans-20" transform="translate(815.869141 0)"/>
     <use xlink:href="#DejaVuSans-52" transform="translate(847.65625 0)"/>
     <use xlink:href="#DejaVuSans-65" transform="translate(912.638672 0)"/>
     <use xlink:href="#DejaVuSans-61" transform="translate(974.162109 0)"/>
     <use xlink:href="#DejaVuSans-64" transform="translate(1035.441406 0)"/>
     <use xlink:href="#DejaVuSans-2d" transform="translate(1098.917969 0)"/>
     <use xlink:href="#DejaVuSans-57" transform="translate(1131.001953 0)"/>
     <use xlink:href="#DejaVuSans-72" transform="translate(1225.378906 0)"/>
     <use xlink:href="#DejaVuSans-69" transform="translate(1266.492188 0)"/>
     <use xlink:href="#DejaVuSans-74" transform="translate(1294.275391 0)"/>
     <use xlink:href="#DejaVuSans-65" transform="translate(1333.484375 0)"/>
     <use xlink:href="#DejaVuSans-20" transform="translate(1395.007812 0)"/>
     <use xlink:href="#DejaVuSans-54" transform="translate(1426.794922 0)"/>
     <use xlink:href="#DejaVuSans-79" transform="translate(1472.253906 0)"/>
     <use xlink:href="#DejaVuSans-70" transform="translate(1531.433594 0)"/>
     <use xlink:href="#DejaVuSans-65" transform="translate(1594.910156 0)"/>
     <use xlink:href="#DejaVuSans-20" transform="translate(1656.433594 0)"/>
     <use xlink:href="#DejaVuSans-3d" transform="translate(1688.220703 0)"/>
     <use xlink:href="#DejaVuSans-20" transform="translate(1772.009766 0)"/>
     <use xlink:href="#DejaVuSans-52" transform="translate(1803.796875 0)"/>
     <use xlink:href="#DejaVuSans-61" transform="translate(1871.029297 0)"/>
     <use xlink:href="#DejaVuSans-6e" transform="translate(1932.308594 0)"/>
     <use xlink:href="#DejaVuSans-64" transform="translate(1995.6875 0)"/>
     <use xlink:href="#DejaVuSans-6f" transform="translate(2059.164062 0)"/>
     <use xlink:href="#DejaVuSans-6d" transform="translate(2120.345703 0)"/>
     <use xlink:href="#DejaVuSans-20" transform="translate(2217.757812 0)"/>
     <use xlink:href="#DejaVuSans-57" transform="translate(2249.544922 0)"/>
     <use xlink:href="#DejaVuSans-72" transform="translate(2343.921875 0)"/>
     <use xlink:href="#DejaVuSans-69" transform="translate(2385.035156 0)"/>
     <use xlink:href="#DejaVuSans-74" transform="translate(2412.818359 0)"/>
     <use xlink:href="#DejaVuSans-65" transform="translate(2452.027344 0)"/>
     <use xlink:href="#DejaVuSans-2d" transform="translate(2513.550781 0)"/>
     <use xlink:href="#DejaVuSans-6f" transform="translate(2551.509766 0)"/>
     <use xlink:href="#DejaVuSans-6e" transform="translate(2612.691406 0)"/>
     <use xlink:href="#DejaVuSans-6c" transform="translate(2676.070312 0)"/>
     <use xlink:href="#DejaVuSans-79" transform="translate(2703.853516 0)"/>
    </g>
   </g>
   <g id="text_19">
    <!-- Mean Bandwidth vs Number of Jobs -->
    <g style="fill: #262626" transform="translate(108.374688 16.318125) scale(0.12 -0.12)">
     <defs>
      <path id="DejaVuSans-Bold-4d" d="M 588 4666 
L 2119 4666 
L 3181 2169 
L 4250 4666 
L 5778 4666 
L 5778 0 
L 4641 0 
L 4641 3413 
L 3566 897 
L 2803 897 
L 1728 3413 
L 1728 0 
L 588 0 
L 588 4666 
z
" transform="scale(0.015625)"/>
      <path id="DejaVuSans-Bold-65" d="M 4031 1759 
L 4031 1441 
L 1416 1441 
Q 1456 1047 1700 850 
Q 1944 653 2381 653 
Q 2734 653 3104 758 
Q 3475 863 3866 1075 
L 3866 213 
Q 3469 63 3072 -14 
Q 2675 -91 2278 -91 
Q 1328 -91 801 392 
Q 275 875 275 1747 
Q 275 2603 792 3093 
Q 1309 3584 2216 3584 
Q 3041 3584 3536 3087 
Q 4031 2591 4031 1759 
z
M 2881 2131 
Q 2881 2450 2695 2645 
Q 2509 2841 2209 2841 
Q 1884 2841 1681 2658 
Q 1478 2475 1428 2131 
L 2881 2131 
z
" transform="scale(0.015625)"/>
      <path id="DejaVuSans-Bold-61" d="M 2106 1575 
Q 1756 1575 1579 1456 
Q 1403 1338 1403 1106 
Q 1403 894 1545 773 
Q 1688 653 1941 653 
Q 2256 653 2472 879 
Q 2688 1106 2688 1447 
L 2688 1575 
L 2106 1575 
z
M 3816 1997 
L 3816 0 
L 2688 0 
L 2688 519 
Q 2463 200 2181 54 
Q 1900 -91 1497 -91 
Q 953 -91 614 226 
Q 275 544 275 1050 
Q 275 1666 698 1953 
Q 1122 2241 2028 2241 
L 2688 2241 
L 2688 2328 
Q 2688 2594 2478 2717 
Q 2269 2841 1825 2841 
Q 1466 2841 1156 2769 
Q 847 2697 581 2553 
L 581 3406 
Q 941 3494 1303 3539 
Q 1666 3584 2028 3584 
Q 2975 3584 3395 3211 
Q 3816 2838 3816 1997 
z
" transform="scale(0.015625)"/>
      <path id="DejaVuSans-Bold-6e" d="M 4056 2131 
L 4056 0 
L 2931 0 
L 2931 347 
L 2931 1631 
Q 2931 2084 2911 2256 
Q 2891 2428 2841 2509 
Q 2775 2619 2662 2680 
Q 2550 2741 2406 2741 
Q 2056 2741 1856 2470 
Q 1656 2200 1656 1722 
L 1656 0 
L 538 0 
L 538 3500 
L 1656 3500 
L 1656 2988 
Q 1909 3294 2193 3439 
Q 2478 3584 2822 3584 
Q 3428 3584 3742 3212 
Q 4056 2841 4056 2131 
z
" transform="scale(0.015625)"/>
      <path id="DejaVuSans-Bold-20" transform="scale(0.015625)"/>
      <path id="DejaVuSans-Bold-42" d="M 2456 2859 
Q 2741 2859 2887 2984 
Q 3034 3109 3034 3353 
Q 3034 3594 2887 3720 
Q 2741 3847 2456 3847 
L 1791 3847 
L 1791 2859 
L 2456 2859 
z
M 2497 819 
Q 2859 819 3042 972 
Q 3225 1125 3225 1434 
Q 3225 1738 3044 1889 
Q 2863 2041 2497 2041 
L 1791 2041 
L 1791 819 
L 2497 819 
z
M 3616 2497 
Q 4003 2384 4215 2081 
Q 4428 1778 4428 1338 
Q 4428 663 3972 331 
Q 3516 0 2584 0 
L 588 0 
L 588 4666 
L 2394 4666 
Q 3366 4666 3802 4372 
Q 4238 4078 4238 3431 
Q 4238 3091 4078 2852 
Q 3919 2613 3616 2497 
z
" transform="scale(0.015625)"/>
      <path id="DejaVuSans-Bold-64" d="M 2919 2988 
L 2919 4863 
L 4044 4863 
L 4044 0 
L 2919 0 
L 2919 506 
Q 2688 197 2409 53 
Q 2131 -91 1766 -91 
Q 1119 -91 703 423 
Q 288 938 288 1747 
Q 288 2556 703 3070 
Q 1119 3584 1766 3584 
Q 2128 3584 2408 3439 
Q 2688 3294 2919 2988 
z
M 2181 722 
Q 2541 722 2730 984 
Q 2919 1247 2919 1747 
Q 2919 2247 2730 2509 
Q 2541 2772 2181 2772 
Q 1825 2772 1636 2509 
Q 1447 2247 1447 1747 
Q 1447 1247 1636 984 
Q 1825 722 2181 722 
z
" transform="scale(0.015625)"/>
      <path id="DejaVuSans-Bold-77" d="M 225 3500 
L 1313 3500 
L 1900 1088 
L 2491 3500 
L 3425 3500 
L 4013 1113 
L 4603 3500 
L 5691 3500 
L 4769 0 
L 3547 0 
L 2956 2406 
L 2369 0 
L 1147 0 
L 225 3500 
z
" transform="scale(0.015625)"/>
      <path id="DejaVuSans-Bold-69" d="M 538 3500 
L 1656 3500 
L 1656 0 
L 538 0 
L 538 3500 
z
M 538 4863 
L 1656 4863 
L 1656 3950 
L 538 3950 
L 538 4863 
z
" transform="scale(0.015625)"/>
      <path id="DejaVuSans-Bold-74" d="M 1759 4494 
L 1759 3500 
L 2913 3500 
L 2913 2700 
L 1759 2700 
L 1759 1216 
Q 1759 972 1856 886 
Q 1953 800 2241 800 
L 2816 800 
L 2816 0 
L 1856 0 
Q 1194 0 917 276 
Q 641 553 641 1216 
L 641 2700 
L 84 2700 
L 84 3500 
L 641 3500 
L 641 4494 
L 1759 4494 
z
" transform="scale(0.015625)"/>
      <path id="DejaVuSans-Bold-68" d="M 4056 2131 
L 4056 0 
L 2931 0 
L 2931 347 
L 2931 1625 
Q 2931 2084 2911 2256 
Q 2891 2428 2841 2509 
Q 2775 2619 2662 2680 
Q 2550 2741 2406 2741 
Q 2056 2741 1856 2470 
Q 1656 2200 1656 1722 
L 1656 0 
L 538 0 
L 538 4863 
L 1656 4863 
L 1656 2988 
Q 1909 3294 2193 3439 
Q 2478 3584 2822 3584 
Q 3428 3584 3742 3212 
Q 4056 2841 4056 2131 
z
" transform="scale(0.015625)"/>
      <path id="DejaVuSans-Bold-76" d="M 97 3500 
L 1216 3500 
L 2088 1081 
L 2956 3500 
L 4078 3500 
L 2700 0 
L 1472 0 
L 97 3500 
z
" transform="scale(0.015625)"/>
      <path id="DejaVuSans-Bold-73" d="M 3272 3391 
L 3272 2541 
Q 2913 2691 2578 2766 
Q 2244 2841 1947 2841 
Q 1628 2841 1473 2761 
Q 1319 2681 1319 2516 
Q 1319 2381 1436 2309 
Q 1553 2238 1856 2203 
L 2053 2175 
Q 2913 2066 3209 1816 
Q 3506 1566 3506 1031 
Q 3506 472 3093 190 
Q 2681 -91 1863 -91 
Q 1516 -91 1145 -36 
Q 775 19 384 128 
L 384 978 
Q 719 816 1070 734 
Q 1422 653 1784 653 
Q 2113 653 2278 743 
Q 2444 834 2444 1013 
Q 2444 1163 2330 1236 
Q 2216 1309 1875 1350 
L 1678 1375 
Q 931 1469 631 1722 
Q 331 1975 331 2491 
Q 331 3047 712 3315 
Q 1094 3584 1881 3584 
Q 2191 3584 2531 3537 
Q 2872 3491 3272 3391 
z
" transform="scale(0.015625)"/>
      <path id="DejaVuSans-Bold-4e" d="M 588 4666 
L 1931 4666 
L 3628 1466 
L 3628 4666 
L 4769 4666 
L 4769 0 
L 3425 0 
L 1728 3200 
L 1728 0 
L 588 0 
L 588 4666 
z
" transform="scale(0.015625)"/>
      <path id="DejaVuSans-Bold-75" d="M 500 1363 
L 500 3500 
L 1625 3500 
L 1625 3150 
Q 1625 2866 1622 2436 
Q 1619 2006 1619 1863 
Q 1619 1441 1641 1255 
Q 1663 1069 1716 984 
Q 1784 875 1895 815 
Q 2006 756 2150 756 
Q 2500 756 2700 1025 
Q 2900 1294 2900 1772 
L 2900 3500 
L 4019 3500 
L 4019 0 
L 2900 0 
L 2900 506 
Q 2647 200 2364 54 
Q 2081 -91 1741 -91 
Q 1134 -91 817 281 
Q 500 653 500 1363 
z
" transform="scale(0.015625)"/>
      <path id="DejaVuSans-Bold-6d" d="M 3781 2919 
Q 3994 3244 4286 3414 
Q 4578 3584 4928 3584 
Q 5531 3584 5847 3212 
Q 6163 2841 6163 2131 
L 6163 0 
L 5038 0 
L 5038 1825 
Q 5041 1866 5042 1909 
Q 5044 1953 5044 2034 
Q 5044 2406 4934 2573 
Q 4825 2741 4581 2741 
Q 4263 2741 4089 2478 
Q 3916 2216 3909 1719 
L 3909 0 
L 2784 0 
L 2784 1825 
Q 2784 2406 2684 2573 
Q 2584 2741 2328 2741 
Q 2006 2741 1831 2477 
Q 1656 2213 1656 1722 
L 1656 0 
L 531 0 
L 531 3500 
L 1656 3500 
L 1656 2988 
Q 1863 3284 2130 3434 
Q 2397 3584 2719 3584 
Q 3081 3584 3359 3409 
Q 3638 3234 3781 2919 
z
" transform="scale(0.015625)"/>
      <path id="DejaVuSans-Bold-62" d="M 2400 722 
Q 2759 722 2948 984 
Q 3138 1247 3138 1747 
Q 3138 2247 2948 2509 
Q 2759 2772 2400 2772 
Q 2041 2772 1848 2508 
Q 1656 2244 1656 1747 
Q 1656 1250 1848 986 
Q 2041 722 2400 722 
z
M 1656 2988 
Q 1888 3294 2169 3439 
Q 2450 3584 2816 3584 
Q 3463 3584 3878 3070 
Q 4294 2556 4294 1747 
Q 4294 938 3878 423 
Q 3463 -91 2816 -91 
Q 2450 -91 2169 54 
Q 1888 200 1656 506 
L 1656 0 
L 538 0 
L 538 4863 
L 1656 4863 
L 1656 2988 
z
" transform="scale(0.015625)"/>
      <path id="DejaVuSans-Bold-72" d="M 3138 2547 
Q 2991 2616 2845 2648 
Q 2700 2681 2553 2681 
Q 2122 2681 1889 2404 
Q 1656 2128 1656 1613 
L 1656 0 
L 538 0 
L 538 3500 
L 1656 3500 
L 1656 2925 
Q 1872 3269 2151 3426 
Q 2431 3584 2822 3584 
Q 2878 3584 2943 3579 
Q 3009 3575 3134 3559 
L 3138 2547 
z
" transform="scale(0.015625)"/>
      <path id="DejaVuSans-Bold-6f" d="M 2203 2784 
Q 1831 2784 1636 2517 
Q 1441 2250 1441 1747 
Q 1441 1244 1636 976 
Q 1831 709 2203 709 
Q 2569 709 2762 976 
Q 2956 1244 2956 1747 
Q 2956 2250 2762 2517 
Q 2569 2784 2203 2784 
z
M 2203 3584 
Q 3106 3584 3614 3096 
Q 4122 2609 4122 1747 
Q 4122 884 3614 396 
Q 3106 -91 2203 -91 
Q 1297 -91 786 396 
Q 275 884 275 1747 
Q 275 2609 786 3096 
Q 1297 3584 2203 3584 
z
" transform="scale(0.015625)"/>
      <path id="DejaVuSans-Bold-66" d="M 2841 4863 
L 2841 4128 
L 2222 4128 
Q 1984 4128 1890 4042 
Q 1797 3956 1797 3744 
L 1797 3500 
L 2753 3500 
L 2753 2700 
L 1797 2700 
L 1797 0 
L 678 0 
L 678 2700 
L 122 2700 
L 122 3500 
L 678 3500 
L 678 3744 
Q 678 4316 997 4589 
Q 1316 4863 1984 4863 
L 2841 4863 
z
" transform="scale(0.015625)"/>
      <path id="DejaVuSans-Bold-4a" d="M 588 4666 
L 1791 4666 
L 1791 453 
Q 1791 -419 1317 -850 
Q 844 -1281 -116 -1281 
L -359 -1281 
L -359 -372 
L -172 -372 
Q 203 -372 395 -162 
Q 588 47 588 453 
L 588 4666 
z
" transform="scale(0.015625)"/>
     </defs>
     <use xlink:href="#DejaVuSans-Bold-4d"/>
     <use xlink:href="#DejaVuSans-Bold-65" transform="translate(99.511719 0)"/>
     <use xlink:href="#DejaVuSans-Bold-61" transform="translate(167.333984 0)"/>
     <use xlink:href="#DejaVuSans-Bold-6e" transform="translate(234.814453 0)"/>
     <use xlink:href="#DejaVuSans-Bold-20" transform="translate(306.005859 0)"/>
     <use xlink:href="#DejaVuSans-Bold-42" transform="translate(340.820312 0)"/>
     <use xlink:href="#DejaVuSans-Bold-61" transform="translate(417.041016 0)"/>
     <use xlink:href="#DejaVuSans-Bold-6e" transform="translate(484.521484 0)"/>
     <use xlink:href="#DejaVuSans-Bold-64" transform="translate(555.712891 0)"/>
     <use xlink:href="#DejaVuSans-Bold-77" transform="translate(627.294922 0)"/>
     <use xlink:href="#DejaVuSans-Bold-69" transform="translate(719.677734 0)"/>
     <use xlink:href="#DejaVuSans-Bold-64" transform="translate(753.955078 0)"/>
     <use xlink:href="#DejaVuSans-Bold-74" transform="translate(825.537109 0)"/>
     <use xlink:href="#DejaVuSans-Bold-68" transform="translate(873.339844 0)"/>
     <use xlink:href="#DejaVuSans-Bold-20" transform="translate(944.53125 0)"/>
     <use xlink:href="#DejaVuSans-Bold-76" transform="translate(979.345703 0)"/>
     <use xlink:href="#DejaVuSans-Bold-73" transform="translate(1044.53125 0)"/>
     <use xlink:href="#DejaVuSans-Bold-20" transform="translate(1104.052734 0)"/>
     <use xlink:href="#DejaVuSans-Bold-4e" transform="translate(1138.867188 0)"/>
     <use xlink:href="#DejaVuSans-Bold-75" transform="translate(1222.558594 0)"/>
     <use xlink:href="#DejaVuSans-Bold-6d" transform="translate(1293.75 0)"/>
     <use xlink:href="#DejaVuSans-Bold-62" transform="translate(1397.949219 0)"/>
     <use xlink:href="#DejaVuSans-Bold-65" transform="translate(1469.53125 0)"/>
     <use xlink:href="#DejaVuSans-Bold-72" transform="translate(1537.353516 0)"/>
     <use xlink:href="#DejaVuSans-Bold-20" transform="translate(1586.669922 0)"/>
     <use xlink:href="#DejaVuSans-Bold-6f" transform="translate(1621.484375 0)"/>
     <use xlink:href="#DejaVuSans-Bold-66" transform="translate(1690.185547 0)"/>
     <use xlink:href="#DejaVuSans-Bold-20" transform="translate(1733.691406 0)"/>
     <use xlink:href="#DejaVuSans-Bold-4a" transform="translate(1768.505859 0)"/>
     <use xlink:href="#DejaVuSans-Bold-6f" transform="translate(1805.712891 0)"/>
     <use xlink:href="#DejaVuSans-Bold-62" transform="translate(1874.414062 0)"/>
     <use xlink:href="#DejaVuSans-Bold-73" transform="translate(1945.996094 0)"/>
    </g>
   </g>
   <g id="legend_1">
    <g id="text_20">
     <!-- IO Depth -->
     <g style="fill: #262626" transform="translate(441.770312 120.065663) scale(0.1 -0.1)">
      <defs>
       <path id="DejaVuSans-49" d="M 628 4666 
L 1259 4666 
L 1259 0 
L 628 0 
L 628 4666 
z
" transform="scale(0.015625)"/>
       <path id="DejaVuSans-4f" d="M 2522 4238 
Q 1834 4238 1429 3725 
Q 1025 3213 1025 2328 
Q 1025 1447 1429 934 
Q 1834 422 2522 422 
Q 3209 422 3611 934 
Q 4013 1447 4013 2328 
Q 4013 3213 3611 3725 
Q 3209 4238 2522 4238 
z
M 2522 4750 
Q 3503 4750 4090 4092 
Q 4678 3434 4678 2328 
Q 4678 1225 4090 567 
Q 3503 -91 2522 -91 
Q 1538 -91 948 565 
Q 359 1222 359 2328 
Q 359 3434 948 4092 
Q 1538 4750 2522 4750 
z
" transform="scale(0.015625)"/>
       <path id="DejaVuSans-44" d="M 1259 4147 
L 1259 519 
L 2022 519 
Q 2988 519 3436 956 
Q 3884 1394 3884 2338 
Q 3884 3275 3436 3711 
Q 2988 4147 2022 4147 
L 1259 4147 
z
M 628 4666 
L 1925 4666 
Q 3281 4666 3915 4102 
Q 4550 3538 4550 2338 
Q 4550 1131 3912 565 
Q 3275 0 1925 0 
L 628 0 
L 628 4666 
z
" transform="scale(0.015625)"/>
      </defs>
      <use xlink:href="#DejaVuSans-49"/>
      <use xlink:href="#DejaVuSans-4f" transform="translate(29.492188 0)"/>
      <use xlink:href="#DejaVuSans-20" transform="translate(108.203125 0)"/>
      <use xlink:href="#DejaVuSans-44" transform="translate(139.990234 0)"/>
      <use xlink:href="#DejaVuSans-65" transform="translate(216.992188 0)"/>
      <use xlink:href="#DejaVuSans-70" transform="translate(278.515625 0)"/>
      <use xlink:href="#DejaVuSans-74" transform="translate(341.992188 0)"/>
      <use xlink:href="#DejaVuSans-68" transform="translate(381.201172 0)"/>
     </g>
    </g>
    <g id="line2d_23">
     <path d="M 440.45625 131.243787 
L 450.45625 131.243787 
L 460.45625 131.243787 
" style="fill: none; stroke: #4c02a1; stroke-width: 1.5; stroke-linecap: round"/>
    </g>
    <g id="text_21">
     <!-- 1 -->
     <g style="fill: #262626" transform="translate(468.45625 134.743787) scale(0.1 -0.1)">
      <use xlink:href="#DejaVuSans-31"/>
     </g>
    </g>
    <g id="line2d_24">
     <path d="M 440.45625 145.921913 
L 450.45625 145.921913 
L 460.45625 145.921913 
" style="fill: none; stroke: #7e03a8; stroke-width: 1.5; stroke-linecap: round"/>
    </g>
    <g id="text_22">
     <!-- 4 -->
     <g style="fill: #262626" transform="translate(468.45625 149.421913) scale(0.1 -0.1)">
      <use xlink:href="#DejaVuSans-34"/>
     </g>
    </g>
    <g id="line2d_25">
     <path d="M 440.45625 160.600037 
L 450.45625 160.600037 
L 460.45625 160.600037 
" style="fill: none; stroke: #aa2395; stroke-width: 1.5; stroke-linecap: round"/>
    </g>
    <g id="text_23">
     <!-- 8 -->
     <g style="fill: #262626" transform="translate(468.45625 164.100037) scale(0.1 -0.1)">
      <use xlink:href="#DejaVuSans-38"/>
     </g>
    </g>
    <g id="line2d_26">
     <path d="M 440.45625 175.278163 
L 450.45625 175.278163 
L 460.45625 175.278163 
" style="fill: none; stroke: #cc4778; stroke-width: 1.5; stroke-linecap: round"/>
    </g>
    <g id="text_24">
     <!-- 16 -->
     <g style="fill: #262626" transform="translate(468.45625 178.778163) scale(0.1 -0.1)">
      <use xlink:href="#DejaVuSans-31"/>
      <use xlink:href="#DejaVuSans-36" transform="translate(63.623047 0)"/>
     </g>
    </g>
    <g id="line2d_27">
     <path d="M 440.45625 189.956288 
L 450.45625 189.956288 
L 460.45625 189.956288 
" style="fill: none; stroke: #e66c5c; stroke-width: 1.5; stroke-linecap: round"/>
    </g>
    <g id="text_25">
     <!-- 32 -->
     <g style="fill: #262626" transform="translate(468.45625 193.456288) scale(0.1 -0.1)">
      <use xlink:href="#DejaVuSans-33"/>
      <use xlink:href="#DejaVuSans-32" transform="translate(63.623047 0)"/>
     </g>
    </g>
    <g id="line2d_28">
     <path d="M 440.45625 204.634412 
L 450.45625 204.634412 
L 460.45625 204.634412 
" style="fill: none; stroke: #f89540; stroke-width: 1.5; stroke-linecap: round"/>
    </g>
    <g id="text_26">
     <!-- 64 -->
     <g style="fill: #262626" transform="translate(468.45625 208.134412) scale(0.1 -0.1)">
      <use xlink:href="#DejaVuSans-36"/>
      <use xlink:href="#DejaVuSans-34" transform="translate(63.623047 0)"/>
     </g>
    </g>
    <g id="line2d_29">
     <path d="M 440.45625 219.312537 
L 450.45625 219.312537 
L 460.45625 219.312537 
" style="fill: none; stroke: #fdc527; stroke-width: 1.5; stroke-linecap: round"/>
    </g>
    <g id="text_27">
     <!-- 128 -->
     <g style="fill: #262626" transform="translate(468.45625 222.812537) scale(0.1 -0.1)">
      <use xlink:href="#DejaVuSans-31"/>
      <use xlink:href="#DejaVuSans-32" transform="translate(63.623047 0)"/>
      <use xlink:href="#DejaVuSans-38" transform="translate(127.246094 0)"/>
     </g>
    </g>
   </g>
  </g>
 </g>
 <defs>
  <clipPath id="p61fab147dd">
   <rect x="50.14375" y="35.623725" width="357.12" height="266.112"/>
  </clipPath>
 </defs>
</svg>
