<?xml version="1.0" encoding="utf-8" standalone="no"?>
<!DOCTYPE svg PUBLIC "-//W3C//DTD SVG 1.1//EN"
  "http://www.w3.org/Graphics/SVG/1.1/DTD/svg11.dtd">
<svg xmlns:xlink="http://www.w3.org/1999/xlink" width="492.38125pt" height="339.291975pt" viewBox="0 0 492.38125 339.291975" xmlns="http://www.w3.org/2000/svg" version="1.1">
 <metadata>
  <rdf:RDF xmlns:dc="http://purl.org/dc/elements/1.1/" xmlns:cc="http://creativecommons.org/ns#" xmlns:rdf="http://www.w3.org/1999/02/22-rdf-syntax-ns#">
   <cc:Work>
    <dc:type rdf:resource="http://purl.org/dc/dcmitype/StillImage"/>
    <dc:date>2025-09-10T17:53:42.097595</dc:date>
    <dc:format>image/svg+xml</dc:format>
    <dc:creator>
     <cc:Agent>
      <dc:title>Matplotlib v3.10.6, https://matplotlib.org/</dc:title>
     </cc:Agent>
    </dc:creator>
   </cc:Work>
  </rdf:RDF>
 </metadata>
 <defs>
  <style type="text/css">*{stroke-linejoin: round; stroke-linecap: butt}</style>
 </defs>
 <g id="figure_1">
  <g id="patch_1">
   <path d="M 0 339.291975 
L 492.38125 339.291975 
L 492.38125 0 
L 0 0 
z
" style="fill: #ffffff"/>
  </g>
  <g id="axes_1">
   <g id="patch_2">
    <path d="M 43.78125 301.735725 
L 400.90125 301.735725 
L 400.90125 35.623725 
L 43.78125 35.623725 
z
" style="fill: #ffffff"/>
   </g>
   <g id="matplotlib.axis_1">
    <g id="xtick_1">
     <g id="line2d_1">
      <path d="M 199.15164 301.735725 
L 199.15164 35.623725 
" clip-path="url(#pc2265f9821)" style="fill: none; stroke: #cccccc; stroke-width: 0.8; stroke-linecap: round"/>
     </g>
     <g id="text_1">
      <!-- 64 -->
      <g style="fill: #262626" transform="translate(192.78914 316.334162) scale(0.1 -0.1)">
       <defs>
        <path id="DejaVuSans-36" d="M 2113 2584 
Q 1688 2584 1439 2293 
Q 1191 2003 1191 1497 
Q 1191 994 1439 701 
Q 1688 409 2113 409 
Q 2538 409 2786 701 
Q 3034 994 3034 1497 
Q 3034 2003 2786 2293 
Q 2538 2584 2113 2584 
z
M 3366 4563 
L 3366 3988 
Q 3128 4100 2886 4159 
Q 2644 4219 2406 4219 
Q 1781 4219 1451 3797 
Q 1122 3375 1075 2522 
Q 1259 2794 1537 2939 
Q 1816 3084 2150 3084 
Q 2853 3084 3261 2657 
Q 3669 2231 3669 1497 
Q 3669 778 3244 343 
Q 2819 -91 2113 -91 
Q 1303 -91 875 529 
Q 447 1150 447 2328 
Q 447 3434 972 4092 
Q 1497 4750 2381 4750 
Q 2619 4750 2861 4703 
Q 3103 4656 3366 4563 
z
" transform="scale(0.015625)"/>
        <path id="DejaVuSans-34" d="M 2419 4116 
L 825 1625 
L 2419 1625 
L 2419 4116 
z
M 2253 4666 
L 3047 4666 
L 3047 1625 
L 3713 1625 
L 3713 1100 
L 3047 1100 
L 3047 0 
L 2419 0 
L 2419 1100 
L 313 1100 
L 313 1709 
L 2253 4666 
z
" transform="scale(0.015625)"/>
       </defs>
       <use xlink:href="#DejaVuSans-36"/>
       <use xlink:href="#DejaVuSans-34" transform="translate(63.623047 0)"/>
      </g>
     </g>
    </g>
    <g id="xtick_2">
     <g id="line2d_2">
      <path d="M 106.393198 301.735725 
L 106.393198 35.623725 
" clip-path="url(#pc2265f9821)" style="fill: none; stroke: #cccccc; stroke-width: 0.8; stroke-linecap: round"/>
     </g>
     <g id="text_2">
      <!-- 32 -->
      <g style="fill: #262626" transform="translate(100.030698 316.334162) scale(0.1 -0.1)">
       <defs>
        <path id="DejaVuSans-33" d="M 2597 2516 
Q 3050 2419 3304 2112 
Q 3559 1806 3559 1356 
Q 3559 666 3084 287 
Q 2609 -91 1734 -91 
Q 1441 -91 1130 -33 
Q 819 25 488 141 
L 488 750 
Q 750 597 1062 519 
Q 1375 441 1716 441 
Q 2309 441 2620 675 
Q 2931 909 2931 1356 
Q 2931 1769 2642 2001 
Q 2353 2234 1838 2234 
L 1294 2234 
L 1294 2753 
L 1863 2753 
Q 2328 2753 2575 2939 
Q 2822 3125 2822 3475 
Q 2822 3834 2567 4026 
Q 2313 4219 1838 4219 
Q 1578 4219 1281 4162 
Q 984 4106 628 3988 
L 628 4550 
Q 988 4650 1302 4700 
Q 1616 4750 1894 4750 
Q 2613 4750 3031 4423 
Q 3450 4097 3450 3541 
Q 3450 3153 3228 2886 
Q 3006 2619 2597 2516 
z
" transform="scale(0.015625)"/>
        <path id="DejaVuSans-32" d="M 1228 531 
L 3431 531 
L 3431 0 
L 469 0 
L 469 531 
Q 828 903 1448 1529 
Q 2069 2156 2228 2338 
Q 2531 2678 2651 2914 
Q 2772 3150 2772 3378 
Q 2772 3750 2511 3984 
Q 2250 4219 1831 4219 
Q 1534 4219 1204 4116 
Q 875 4013 500 3803 
L 500 4441 
Q 881 4594 1212 4672 
Q 1544 4750 1819 4750 
Q 2544 4750 2975 4387 
Q 3406 4025 3406 3419 
Q 3406 3131 3298 2873 
Q 3191 2616 2906 2266 
Q 2828 2175 2409 1742 
Q 1991 1309 1228 531 
z
" transform="scale(0.015625)"/>
       </defs>
       <use xlink:href="#DejaVuSans-33"/>
       <use xlink:href="#DejaVuSans-32" transform="translate(63.623047 0)"/>
      </g>
     </g>
    </g>
    <g id="xtick_3">
     <g id="line2d_3">
      <path d="M 60.013977 301.735725 
L 60.013977 35.623725 
" clip-path="url(#pc2265f9821)" style="fill: none; stroke: #cccccc; stroke-width: 0.8; stroke-linecap: round"/>
     </g>
     <g id="text_3">
      <!-- 16 -->
      <g style="fill: #262626" transform="translate(53.651477 316.334162) scale(0.1 -0.1)">
       <defs>
        <path id="DejaVuSans-31" d="M 794 531 
L 1825 531 
L 1825 4091 
L 703 3866 
L 703 4441 
L 1819 4666 
L 2450 4666 
L 2450 531 
L 3481 531 
L 3481 0 
L 794 0 
L 794 531 
z
" transform="scale(0.015625)"/>
       </defs>
       <use xlink:href="#DejaVuSans-31"/>
       <use xlink:href="#DejaVuSans-36" transform="translate(63.623047 0)"/>
      </g>
     </g>
    </g>
    <g id="xtick_4">
     <g id="line2d_4">
      <path d="M 384.668523 301.735725 
L 384.668523 35.623725 
" clip-path="url(#pc2265f9821)" style="fill: none; stroke: #cccccc; stroke-width: 0.8; stroke-linecap: round"/>
     </g>
     <g id="text_4">
      <!-- 128 -->
      <g style="fill: #262626" transform="translate(375.124773 316.334162) scale(0.1 -0.1)">
       <defs>
        <path id="DejaVuSans-38" d="M 2034 2216 
Q 1584 2216 1326 1975 
Q 1069 1734 1069 1313 
Q 1069 891 1326 650 
Q 1584 409 2034 409 
Q 2484 409 2743 651 
Q 3003 894 3003 1313 
Q 3003 1734 2745 1975 
Q 2488 2216 2034 2216 
z
M 1403 2484 
Q 997 2584 770 2862 
Q 544 3141 544 3541 
Q 544 4100 942 4425 
Q 1341 4750 2034 4750 
Q 2731 4750 3128 4425 
Q 3525 4100 3525 3541 
Q 3525 3141 3298 2862 
Q 3072 2584 2669 2484 
Q 3125 2378 3379 2068 
Q 3634 1759 3634 1313 
Q 3634 634 3220 271 
Q 2806 -91 2034 -91 
Q 1263 -91 848 271 
Q 434 634 434 1313 
Q 434 1759 690 2068 
Q 947 2378 1403 2484 
z
M 1172 3481 
Q 1172 3119 1398 2916 
Q 1625 2713 2034 2713 
Q 2441 2713 2670 2916 
Q 2900 3119 2900 3481 
Q 2900 3844 2670 4047 
Q 2441 4250 2034 4250 
Q 1625 4250 1398 4047 
Q 1172 3844 1172 3481 
z
" transform="scale(0.015625)"/>
       </defs>
       <use xlink:href="#DejaVuSans-31"/>
       <use xlink:href="#DejaVuSans-32" transform="translate(63.623047 0)"/>
       <use xlink:href="#DejaVuSans-38" transform="translate(127.246094 0)"/>
      </g>
     </g>
    </g>
    <g id="text_5">
     <!-- Number of Jobs -->
     <g style="fill: #262626" transform="translate(183.944375 330.012287) scale(0.1 -0.1)">
      <defs>
       <path id="DejaVuSans-4e" d="M 628 4666 
L 1478 4666 
L 3547 763 
L 3547 4666 
L 4159 4666 
L 4159 0 
L 3309 0 
L 1241 3903 
L 1241 0 
L 628 0 
L 628 4666 
z
" transform="scale(0.015625)"/>
       <path id="DejaVuSans-75" d="M 544 1381 
L 544 3500 
L 1119 3500 
L 1119 1403 
Q 1119 906 1312 657 
Q 1506 409 1894 409 
Q 2359 409 2629 706 
Q 2900 1003 2900 1516 
L 2900 3500 
L 3475 3500 
L 3475 0 
L 2900 0 
L 2900 538 
Q 2691 219 2414 64 
Q 2138 -91 1772 -91 
Q 1169 -91 856 284 
Q 544 659 544 1381 
z
M 1991 3584 
L 1991 3584 
z
" transform="scale(0.015625)"/>
       <path id="DejaVuSans-6d" d="M 3328 2828 
Q 3544 3216 3844 3400 
Q 4144 3584 4550 3584 
Q 5097 3584 5394 3201 
Q 5691 2819 5691 2113 
L 5691 0 
L 5113 0 
L 5113 2094 
Q 5113 2597 4934 2840 
Q 4756 3084 4391 3084 
Q 3944 3084 3684 2787 
Q 3425 2491 3425 1978 
L 3425 0 
L 2847 0 
L 2847 2094 
Q 2847 2600 2669 2842 
Q 2491 3084 2119 3084 
Q 1678 3084 1418 2786 
Q 1159 2488 1159 1978 
L 1159 0 
L 581 0 
L 581 3500 
L 1159 3500 
L 1159 2956 
Q 1356 3278 1631 3431 
Q 1906 3584 2284 3584 
Q 2666 3584 2933 3390 
Q 3200 3197 3328 2828 
z
" transform="scale(0.015625)"/>
       <path id="DejaVuSans-62" d="M 3116 1747 
Q 3116 2381 2855 2742 
Q 2594 3103 2138 3103 
Q 1681 3103 1420 2742 
Q 1159 2381 1159 1747 
Q 1159 1113 1420 752 
Q 1681 391 2138 391 
Q 2594 391 2855 752 
Q 3116 1113 3116 1747 
z
M 1159 2969 
Q 1341 3281 1617 3432 
Q 1894 3584 2278 3584 
Q 2916 3584 3314 3078 
Q 3713 2572 3713 1747 
Q 3713 922 3314 415 
Q 2916 -91 2278 -91 
Q 1894 -91 1617 61 
Q 1341 213 1159 525 
L 1159 0 
L 581 0 
L 581 4863 
L 1159 4863 
L 1159 2969 
z
" transform="scale(0.015625)"/>
       <path id="DejaVuSans-65" d="M 3597 1894 
L 3597 1613 
L 953 1613 
Q 991 1019 1311 708 
Q 1631 397 2203 397 
Q 2534 397 2845 478 
Q 3156 559 3463 722 
L 3463 178 
Q 3153 47 2828 -22 
Q 2503 -91 2169 -91 
Q 1331 -91 842 396 
Q 353 884 353 1716 
Q 353 2575 817 3079 
Q 1281 3584 2069 3584 
Q 2775 3584 3186 3129 
Q 3597 2675 3597 1894 
z
M 3022 2063 
Q 3016 2534 2758 2815 
Q 2500 3097 2075 3097 
Q 1594 3097 1305 2825 
Q 1016 2553 972 2059 
L 3022 2063 
z
" transform="scale(0.015625)"/>
       <path id="DejaVuSans-72" d="M 2631 2963 
Q 2534 3019 2420 3045 
Q 2306 3072 2169 3072 
Q 1681 3072 1420 2755 
Q 1159 2438 1159 1844 
L 1159 0 
L 581 0 
L 581 3500 
L 1159 3500 
L 1159 2956 
Q 1341 3275 1631 3429 
Q 1922 3584 2338 3584 
Q 2397 3584 2469 3576 
Q 2541 3569 2628 3553 
L 2631 2963 
z
" transform="scale(0.015625)"/>
       <path id="DejaVuSans-20" transform="scale(0.015625)"/>
       <path id="DejaVuSans-6f" d="M 1959 3097 
Q 1497 3097 1228 2736 
Q 959 2375 959 1747 
Q 959 1119 1226 758 
Q 1494 397 1959 397 
Q 2419 397 2687 759 
Q 2956 1122 2956 1747 
Q 2956 2369 2687 2733 
Q 2419 3097 1959 3097 
z
M 1959 3584 
Q 2709 3584 3137 3096 
Q 3566 2609 3566 1747 
Q 3566 888 3137 398 
Q 2709 -91 1959 -91 
Q 1206 -91 779 398 
Q 353 888 353 1747 
Q 353 2609 779 3096 
Q 1206 3584 1959 3584 
z
" transform="scale(0.015625)"/>
       <path id="DejaVuSans-66" d="M 2375 4863 
L 2375 4384 
L 1825 4384 
Q 1516 4384 1395 4259 
Q 1275 4134 1275 3809 
L 1275 3500 
L 2222 3500 
L 2222 3053 
L 1275 3053 
L 1275 0 
L 697 0 
L 697 3053 
L 147 3053 
L 147 3500 
L 697 3500 
L 697 3744 
Q 697 4328 969 4595 
Q 1241 4863 1831 4863 
L 2375 4863 
z
" transform="scale(0.015625)"/>
       <path id="DejaVuSans-4a" d="M 628 4666 
L 1259 4666 
L 1259 325 
Q 1259 -519 939 -900 
Q 619 -1281 -91 -1281 
L -331 -1281 
L -331 -750 
L -134 -750 
Q 284 -750 456 -515 
Q 628 -281 628 325 
L 628 4666 
z
" transform="scale(0.015625)"/>
       <path id="DejaVuSans-73" d="M 2834 3397 
L 2834 2853 
Q 2591 2978 2328 3040 
Q 2066 3103 1784 3103 
Q 1356 3103 1142 2972 
Q 928 2841 928 2578 
Q 928 2378 1081 2264 
Q 1234 2150 1697 2047 
L 1894 2003 
Q 2506 1872 2764 1633 
Q 3022 1394 3022 966 
Q 3022 478 2636 193 
Q 2250 -91 1575 -91 
Q 1294 -91 989 -36 
Q 684 19 347 128 
L 347 722 
Q 666 556 975 473 
Q 1284 391 1588 391 
Q 1994 391 2212 530 
Q 2431 669 2431 922 
Q 2431 1156 2273 1281 
Q 2116 1406 1581 1522 
L 1381 1569 
Q 847 1681 609 1914 
Q 372 2147 372 2553 
Q 372 3047 722 3315 
Q 1072 3584 1716 3584 
Q 2034 3584 2315 3537 
Q 2597 3491 2834 3397 
z
" transform="scale(0.015625)"/>
      </defs>
      <use xlink:href="#DejaVuSans-4e"/>
      <use xlink:href="#DejaVuSans-75" transform="translate(74.804688 0)"/>
      <use xlink:href="#DejaVuSans-6d" transform="translate(138.183594 0)"/>
      <use xlink:href="#DejaVuSans-62" transform="translate(235.595703 0)"/>
      <use xlink:href="#DejaVuSans-65" transform="translate(299.072266 0)"/>
      <use xlink:href="#DejaVuSans-72" transform="translate(360.595703 0)"/>
      <use xlink:href="#DejaVuSans-20" transform="translate(401.708984 0)"/>
      <use xlink:href="#DejaVuSans-6f" transform="translate(433.496094 0)"/>
      <use xlink:href="#DejaVuSans-66" transform="translate(494.677734 0)"/>
      <use xlink:href="#DejaVuSans-20" transform="translate(529.882812 0)"/>
      <use xlink:href="#DejaVuSans-4a" transform="translate(561.669922 0)"/>
      <use xlink:href="#DejaVuSans-6f" transform="translate(591.162109 0)"/>
      <use xlink:href="#DejaVuSans-62" transform="translate(652.34375 0)"/>
      <use xlink:href="#DejaVuSans-73" transform="translate(715.820312 0)"/>
     </g>
    </g>
   </g>
   <g id="matplotlib.axis_2">
    <g id="ytick_1">
     <g id="line2d_5">
      <path d="M 43.78125 260.422868 
L 400.90125 260.422868 
" clip-path="url(#pc2265f9821)" style="fill: none; stroke: #cccccc; stroke-width: 0.8; stroke-linecap: round"/>
     </g>
     <g id="text_6">
      <!-- 3.0 -->
      <g style="fill: #262626" transform="translate(20.878125 264.222087) scale(0.1 -0.1)">
       <defs>
        <path id="DejaVuSans-2e" d="M 684 794 
L 1344 794 
L 1344 0 
L 684 0 
L 684 794 
z
" transform="scale(0.015625)"/>
        <path id="DejaVuSans-30" d="M 2034 4250 
Q 1547 4250 1301 3770 
Q 1056 3291 1056 2328 
Q 1056 1369 1301 889 
Q 1547 409 2034 409 
Q 2525 409 2770 889 
Q 3016 1369 3016 2328 
Q 3016 3291 2770 3770 
Q 2525 4250 2034 4250 
z
M 2034 4750 
Q 2819 4750 3233 4129 
Q 3647 3509 3647 2328 
Q 3647 1150 3233 529 
Q 2819 -91 2034 -91 
Q 1250 -91 836 529 
Q 422 1150 422 2328 
Q 422 3509 836 4129 
Q 1250 4750 2034 4750 
z
" transform="scale(0.015625)"/>
       </defs>
       <use xlink:href="#DejaVuSans-33"/>
       <use xlink:href="#DejaVuSans-2e" transform="translate(63.623047 0)"/>
       <use xlink:href="#DejaVuSans-30" transform="translate(95.410156 0)"/>
      </g>
     </g>
    </g>
    <g id="ytick_2">
     <g id="line2d_6">
      <path d="M 43.78125 210.080707 
L 400.90125 210.080707 
" clip-path="url(#pc2265f9821)" style="fill: none; stroke: #cccccc; stroke-width: 0.8; stroke-linecap: round"/>
     </g>
     <g id="text_7">
      <!-- 3.5 -->
      <g style="fill: #262626" transform="translate(20.878125 213.879926) scale(0.1 -0.1)">
       <defs>
        <path id="DejaVuSans-35" d="M 691 4666 
L 3169 4666 
L 3169 4134 
L 1269 4134 
L 1269 2991 
Q 1406 3038 1543 3061 
Q 1681 3084 1819 3084 
Q 2600 3084 3056 2656 
Q 3513 2228 3513 1497 
Q 3513 744 3044 326 
Q 2575 -91 1722 -91 
Q 1428 -91 1123 -41 
Q 819 9 494 109 
L 494 744 
Q 775 591 1075 516 
Q 1375 441 1709 441 
Q 2250 441 2565 725 
Q 2881 1009 2881 1497 
Q 2881 1984 2565 2268 
Q 2250 2553 1709 2553 
Q 1456 2553 1204 2497 
Q 953 2441 691 2322 
L 691 4666 
z
" transform="scale(0.015625)"/>
       </defs>
       <use xlink:href="#DejaVuSans-33"/>
       <use xlink:href="#DejaVuSans-2e" transform="translate(63.623047 0)"/>
       <use xlink:href="#DejaVuSans-35" transform="translate(95.410156 0)"/>
      </g>
     </g>
    </g>
    <g id="ytick_3">
     <g id="line2d_7">
      <path d="M 43.78125 159.738546 
L 400.90125 159.738546 
" clip-path="url(#pc2265f9821)" style="fill: none; stroke: #cccccc; stroke-width: 0.8; stroke-linecap: round"/>
     </g>
     <g id="text_8">
      <!-- 4.0 -->
      <g style="fill: #262626" transform="translate(20.878125 163.537764) scale(0.1 -0.1)">
       <use xlink:href="#DejaVuSans-34"/>
       <use xlink:href="#DejaVuSans-2e" transform="translate(63.623047 0)"/>
       <use xlink:href="#DejaVuSans-30" transform="translate(95.410156 0)"/>
      </g>
     </g>
    </g>
    <g id="ytick_4">
     <g id="line2d_8">
      <path d="M 43.78125 109.396384 
L 400.90125 109.396384 
" clip-path="url(#pc2265f9821)" style="fill: none; stroke: #cccccc; stroke-width: 0.8; stroke-linecap: round"/>
     </g>
     <g id="text_9">
      <!-- 4.5 -->
      <g style="fill: #262626" transform="translate(20.878125 113.195603) scale(0.1 -0.1)">
       <use xlink:href="#DejaVuSans-34"/>
       <use xlink:href="#DejaVuSans-2e" transform="translate(63.623047 0)"/>
       <use xlink:href="#DejaVuSans-35" transform="translate(95.410156 0)"/>
      </g>
     </g>
    </g>
    <g id="ytick_5">
     <g id="line2d_9">
      <path d="M 43.78125 59.054223 
L 400.90125 59.054223 
" clip-path="url(#pc2265f9821)" style="fill: none; stroke: #cccccc; stroke-width: 0.8; stroke-linecap: round"/>
     </g>
     <g id="text_10">
      <!-- 5.0 -->
      <g style="fill: #262626" transform="translate(20.878125 62.853442) scale(0.1 -0.1)">
       <use xlink:href="#DejaVuSans-35"/>
       <use xlink:href="#DejaVuSans-2e" transform="translate(63.623047 0)"/>
       <use xlink:href="#DejaVuSans-30" transform="translate(95.410156 0)"/>
      </g>
     </g>
    </g>
    <g id="text_11">
     <!-- Mean Bandwidth (GiB/s) -->
     <g style="fill: #262626" transform="translate(14.798438 228.984412) rotate(-90) scale(0.1 -0.1)">
      <defs>
       <path id="DejaVuSans-4d" d="M 628 4666 
L 1569 4666 
L 2759 1491 
L 3956 4666 
L 4897 4666 
L 4897 0 
L 4281 0 
L 4281 4097 
L 3078 897 
L 2444 897 
L 1241 4097 
L 1241 0 
L 628 0 
L 628 4666 
z
" transform="scale(0.015625)"/>
       <path id="DejaVuSans-61" d="M 2194 1759 
Q 1497 1759 1228 1600 
Q 959 1441 959 1056 
Q 959 750 1161 570 
Q 1363 391 1709 391 
Q 2188 391 2477 730 
Q 2766 1069 2766 1631 
L 2766 1759 
L 2194 1759 
z
M 3341 1997 
L 3341 0 
L 2766 0 
L 2766 531 
Q 2569 213 2275 61 
Q 1981 -91 1556 -91 
Q 1019 -91 701 211 
Q 384 513 384 1019 
Q 384 1609 779 1909 
Q 1175 2209 1959 2209 
L 2766 2209 
L 2766 2266 
Q 2766 2663 2505 2880 
Q 2244 3097 1772 3097 
Q 1472 3097 1187 3025 
Q 903 2953 641 2809 
L 641 3341 
Q 956 3463 1253 3523 
Q 1550 3584 1831 3584 
Q 2591 3584 2966 3190 
Q 3341 2797 3341 1997 
z
" transform="scale(0.015625)"/>
       <path id="DejaVuSans-6e" d="M 3513 2113 
L 3513 0 
L 2938 0 
L 2938 2094 
Q 2938 2591 2744 2837 
Q 2550 3084 2163 3084 
Q 1697 3084 1428 2787 
Q 1159 2491 1159 1978 
L 1159 0 
L 581 0 
L 581 3500 
L 1159 3500 
L 1159 2956 
Q 1366 3272 1645 3428 
Q 1925 3584 2291 3584 
Q 2894 3584 3203 3211 
Q 3513 2838 3513 2113 
z
" transform="scale(0.015625)"/>
       <path id="DejaVuSans-42" d="M 1259 2228 
L 1259 519 
L 2272 519 
Q 2781 519 3026 730 
Q 3272 941 3272 1375 
Q 3272 1813 3026 2020 
Q 2781 2228 2272 2228 
L 1259 2228 
z
M 1259 4147 
L 1259 2741 
L 2194 2741 
Q 2656 2741 2882 2914 
Q 3109 3088 3109 3444 
Q 3109 3797 2882 3972 
Q 2656 4147 2194 4147 
L 1259 4147 
z
M 628 4666 
L 2241 4666 
Q 2963 4666 3353 4366 
Q 3744 4066 3744 3513 
Q 3744 3084 3544 2831 
Q 3344 2578 2956 2516 
Q 3422 2416 3680 2098 
Q 3938 1781 3938 1306 
Q 3938 681 3513 340 
Q 3088 0 2303 0 
L 628 0 
L 628 4666 
z
" transform="scale(0.015625)"/>
       <path id="DejaVuSans-64" d="M 2906 2969 
L 2906 4863 
L 3481 4863 
L 3481 0 
L 2906 0 
L 2906 525 
Q 2725 213 2448 61 
Q 2172 -91 1784 -91 
Q 1150 -91 751 415 
Q 353 922 353 1747 
Q 353 2572 751 3078 
Q 1150 3584 1784 3584 
Q 2172 3584 2448 3432 
Q 2725 3281 2906 2969 
z
M 947 1747 
Q 947 1113 1208 752 
Q 1469 391 1925 391 
Q 2381 391 2643 752 
Q 2906 1113 2906 1747 
Q 2906 2381 2643 2742 
Q 2381 3103 1925 3103 
Q 1469 3103 1208 2742 
Q 947 2381 947 1747 
z
" transform="scale(0.015625)"/>
       <path id="DejaVuSans-77" d="M 269 3500 
L 844 3500 
L 1563 769 
L 2278 3500 
L 2956 3500 
L 3675 769 
L 4391 3500 
L 4966 3500 
L 4050 0 
L 3372 0 
L 2619 2869 
L 1863 0 
L 1184 0 
L 269 3500 
z
" transform="scale(0.015625)"/>
       <path id="DejaVuSans-69" d="M 603 3500 
L 1178 3500 
L 1178 0 
L 603 0 
L 603 3500 
z
M 603 4863 
L 1178 4863 
L 1178 4134 
L 603 4134 
L 603 4863 
z
" transform="scale(0.015625)"/>
       <path id="DejaVuSans-74" d="M 1172 4494 
L 1172 3500 
L 2356 3500 
L 2356 3053 
L 1172 3053 
L 1172 1153 
Q 1172 725 1289 603 
Q 1406 481 1766 481 
L 2356 481 
L 2356 0 
L 1766 0 
Q 1100 0 847 248 
Q 594 497 594 1153 
L 594 3053 
L 172 3053 
L 172 3500 
L 594 3500 
L 594 4494 
L 1172 4494 
z
" transform="scale(0.015625)"/>
       <path id="DejaVuSans-68" d="M 3513 2113 
L 3513 0 
L 2938 0 
L 2938 2094 
Q 2938 2591 2744 2837 
Q 2550 3084 2163 3084 
Q 1697 3084 1428 2787 
Q 1159 2491 1159 1978 
L 1159 0 
L 581 0 
L 581 4863 
L 1159 4863 
L 1159 2956 
Q 1366 3272 1645 3428 
Q 1925 3584 2291 3584 
Q 2894 3584 3203 3211 
Q 3513 2838 3513 2113 
z
" transform="scale(0.015625)"/>
       <path id="DejaVuSans-28" d="M 1984 4856 
Q 1566 4138 1362 3434 
Q 1159 2731 1159 2009 
Q 1159 1288 1364 580 
Q 1569 -128 1984 -844 
L 1484 -844 
Q 1016 -109 783 600 
Q 550 1309 550 2009 
Q 550 2706 781 3412 
Q 1013 4119 1484 4856 
L 1984 4856 
z
" transform="scale(0.015625)"/>
       <path id="DejaVuSans-47" d="M 3809 666 
L 3809 1919 
L 2778 1919 
L 2778 2438 
L 4434 2438 
L 4434 434 
Q 4069 175 3628 42 
Q 3188 -91 2688 -91 
Q 1594 -91 976 548 
Q 359 1188 359 2328 
Q 359 3472 976 4111 
Q 1594 4750 2688 4750 
Q 3144 4750 3555 4637 
Q 3966 4525 4313 4306 
L 4313 3634 
Q 3963 3931 3569 4081 
Q 3175 4231 2741 4231 
Q 1884 4231 1454 3753 
Q 1025 3275 1025 2328 
Q 1025 1384 1454 906 
Q 1884 428 2741 428 
Q 3075 428 3337 486 
Q 3600 544 3809 666 
z
" transform="scale(0.015625)"/>
       <path id="DejaVuSans-2f" d="M 1625 4666 
L 2156 4666 
L 531 -594 
L 0 -594 
L 1625 4666 
z
" transform="scale(0.015625)"/>
       <path id="DejaVuSans-29" d="M 513 4856 
L 1013 4856 
Q 1481 4119 1714 3412 
Q 1947 2706 1947 2009 
Q 1947 1309 1714 600 
Q 1481 -109 1013 -844 
L 513 -844 
Q 928 -128 1133 580 
Q 1338 1288 1338 2009 
Q 1338 2731 1133 3434 
Q 928 4138 513 4856 
z
" transform="scale(0.015625)"/>
      </defs>
      <use xlink:href="#DejaVuSans-4d"/>
      <use xlink:href="#DejaVuSans-65" transform="translate(86.279297 0)"/>
      <use xlink:href="#DejaVuSans-61" transform="translate(147.802734 0)"/>
      <use xlink:href="#DejaVuSans-6e" transform="translate(209.082031 0)"/>
      <use xlink:href="#DejaVuSans-20" transform="translate(272.460938 0)"/>
      <use xlink:href="#DejaVuSans-42" transform="translate(304.248047 0)"/>
      <use xlink:href="#DejaVuSans-61" transform="translate(372.851562 0)"/>
      <use xlink:href="#DejaVuSans-6e" transform="translate(434.130859 0)"/>
      <use xlink:href="#DejaVuSans-64" transform="translate(497.509766 0)"/>
      <use xlink:href="#DejaVuSans-77" transform="translate(560.986328 0)"/>
      <use xlink:href="#DejaVuSans-69" transform="translate(642.773438 0)"/>
      <use xlink:href="#DejaVuSans-64" transform="translate(670.556641 0)"/>
      <use xlink:href="#DejaVuSans-74" transform="translate(734.033203 0)"/>
      <use xlink:href="#DejaVuSans-68" transform="translate(773.242188 0)"/>
      <use xlink:href="#DejaVuSans-20" transform="translate(836.621094 0)"/>
      <use xlink:href="#DejaVuSans-28" transform="translate(868.408203 0)"/>
      <use xlink:href="#DejaVuSans-47" transform="translate(907.421875 0)"/>
      <use xlink:href="#DejaVuSans-69" transform="translate(984.912109 0)"/>
      <use xlink:href="#DejaVuSans-42" transform="translate(1012.695312 0)"/>
      <use xlink:href="#DejaVuSans-2f" transform="translate(1081.298828 0)"/>
      <use xlink:href="#DejaVuSans-73" transform="translate(1114.990234 0)"/>
      <use xlink:href="#DejaVuSans-29" transform="translate(1167.089844 0)"/>
     </g>
    </g>
   </g>
   <g id="FillBetweenPolyCollection_1"/>
   <g id="FillBetweenPolyCollection_2"/>
   <g id="FillBetweenPolyCollection_3"/>
   <g id="FillBetweenPolyCollection_4"/>
   <g id="FillBetweenPolyCollection_5"/>
   <g id="FillBetweenPolyCollection_6"/>
   <g id="FillBetweenPolyCollection_7"/>
   <g id="line2d_10">
    <path d="M 60.013977 157.113378 
L 106.393198 153.737924 
L 199.15164 256.574752 
L 384.668523 289.639725 
" clip-path="url(#pc2265f9821)" style="fill: none; stroke: #4c02a1; stroke-width: 1.5; stroke-linecap: round"/>
   </g>
   <g id="line2d_11">
    <path d="M 60.013977 47.719725 
L 106.393198 221.133611 
L 199.15164 157.404274 
L 384.668523 275.979677 
" clip-path="url(#pc2265f9821)" style="fill: none; stroke: #7e03a8; stroke-width: 1.5; stroke-linecap: round"/>
   </g>
   <g id="line2d_12">
    <path d="M 60.013977 103.230188 
L 106.393198 166.109244 
L 199.15164 220.890745 
L 384.668523 247.521678 
" clip-path="url(#pc2265f9821)" style="fill: none; stroke: #aa2395; stroke-width: 1.5; stroke-linecap: round"/>
   </g>
   <g id="line2d_13">
    <path d="M 60.013977 106.563028 
L 106.393198 206.888051 
L 199.15164 216.65316 
L 384.668523 192.546807 
" clip-path="url(#pc2265f9821)" style="fill: none; stroke: #cc4778; stroke-width: 1.5; stroke-linecap: round"/>
   </g>
   <g id="line2d_14">
    <path d="M 60.013977 191.113335 
L 106.393198 154.894638 
L 199.15164 218.465732 
L 384.668523 244.662331 
" clip-path="url(#pc2265f9821)" style="fill: none; stroke: #e66c5c; stroke-width: 1.5; stroke-linecap: round"/>
   </g>
   <g id="line2d_15">
    <path d="M 60.013977 152.142055 
L 106.393198 182.735455 
L 199.15164 202.951895 
L 384.668523 233.992659 
" clip-path="url(#pc2265f9821)" style="fill: none; stroke: #f89540; stroke-width: 1.5; stroke-linecap: round"/>
   </g>
   <g id="line2d_16">
    <path d="M 60.013977 163.22439 
L 106.393198 173.349872 
L 199.15164 197.555039 
L 384.668523 231.629586 
" clip-path="url(#pc2265f9821)" style="fill: none; stroke: #fdc527; stroke-width: 1.5; stroke-linecap: round"/>
   </g>
   <g id="line2d_17"/>
   <g id="line2d_18"/>
   <g id="line2d_19"/>
   <g id="line2d_20"/>
   <g id="line2d_21"/>
   <g id="line2d_22"/>
   <g id="line2d_23"/>
   <g id="text_12">
    <path d="M 100.017815 156.136712 
L 101.624503 156.019778 
L 101.220736 150.471952 
L 99.497754 150.949842 
L 99.432539 150.053774 
L 101.14617 149.576565 
L 102.129507 149.504998 
L 102.59849 155.948892 
L 104.205178 155.831958 
L 104.265403 156.659457 
L 100.07804 156.964211 
L 100.017815 156.136712 
z
" clip-path="url(#pc2265f9821)" style="fill: #4c02a1; stroke: #ffffff; stroke-width: 5"/>
    <path d="M 100.017815 156.136712 
L 101.624503 156.019778 
L 101.220736 150.471952 
L 99.497754 150.949842 
L 99.432539 150.053774 
L 101.14617 149.576565 
L 102.129507 149.504998 
L 102.59849 155.948892 
L 104.205178 155.831958 
L 104.265403 156.659457 
L 100.07804 156.964211 
L 100.017815 156.136712 
z
" clip-path="url(#pc2265f9821)" style="fill: #4c02a1"/>
   </g>
   <g id="text_13">
    <path d="M 140.403202 193.312178 
L 140.554435 197.930561 
L 142.607249 196.520183 
L 140.403202 193.312178 
z
M 139.702778 192.750744 
L 140.725322 192.048209 
L 143.416012 195.964526 
L 144.273712 195.375246 
L 144.738235 196.051361 
L 143.880534 196.640641 
L 144.853819 198.057263 
L 144.045057 198.61292 
L 143.071772 197.196298 
L 140.359584 199.059696 
L 139.820739 198.275402 
L 139.702778 192.750744 
z
" clip-path="url(#pc2265f9821)" style="fill: #7e03a8; stroke: #ffffff; stroke-width: 5"/>
    <path d="M 140.403202 193.312178 
L 140.554435 197.930561 
L 142.607249 196.520183 
L 140.403202 193.312178 
z
M 139.702778 192.750744 
L 140.725322 192.048209 
L 143.416012 195.964526 
L 144.273712 195.375246 
L 144.738235 196.051361 
L 143.880534 196.640641 
L 144.853819 198.057263 
L 144.045057 198.61292 
L 143.071772 197.196298 
L 140.359584 199.059696 
L 139.820739 198.275402 
L 139.702778 192.750744 
z
" clip-path="url(#pc2265f9821)" style="fill: #7e03a8"/>
   </g>
   <g id="text_14">
    <path d="M 182.520113 210.251868 
Q 181.914687 209.894314 181.376087 210.013555 
Q 180.838832 210.133592 180.50432 210.700001 
Q 180.169014 211.267756 180.32329 211.796197 
Q 180.478911 212.325434 181.084336 212.682988 
Q 181.689762 213.040541 182.230502 212.920749 
Q 182.773383 212.800406 183.106305 212.236687 
Q 183.440816 211.670278 183.285195 211.141041 
Q 183.13092 210.612599 182.520113 210.251868 
z
M 181.884115 209.389933 
Q 181.417343 208.932801 181.332828 208.378417 
Q 181.250453 207.823482 181.568278 207.285326 
Q 182.01244 206.533252 182.806138 206.412237 
Q 183.601182 206.292016 184.533537 206.842649 
Q 185.471274 207.39646 185.747161 208.149153 
Q 186.023048 208.901847 185.578887 209.65392 
Q 185.261061 210.192076 184.733974 210.387074 
Q 184.209027 210.581521 183.587379 210.395851 
Q 184.116653 210.900783 184.212067 211.519673 
Q 184.309622 212.138013 183.955246 212.738057 
Q 183.415737 213.651577 182.570319 213.811004 
Q 181.725696 213.969086 180.687054 213.355683 
Q 179.649759 212.743074 179.379054 211.926299 
Q 179.110489 211.108973 179.649998 210.195453 
Q 180.004373 209.595409 180.594313 209.383092 
Q 181.186393 209.170224 181.884115 209.389933 
z
M 182.36551 207.865035 
Q 182.077878 208.352066 182.220639 208.804752 
Q 182.364746 209.258232 182.915011 209.583209 
Q 183.462585 209.906596 183.931976 209.815437 
Q 184.402712 209.725072 184.690344 209.238041 
Q 184.978771 208.749664 184.830627 208.293801 
Q 184.683829 207.838731 184.136256 207.515344 
Q 183.585991 207.190367 183.119291 207.283116 
Q 182.653936 207.376658 182.36551 207.865035 
z
" clip-path="url(#pc2265f9821)" style="fill: #aa2395; stroke: #ffffff; stroke-width: 5"/>
    <path d="M 182.520113 210.251868 
Q 181.914687 209.894314 181.376087 210.013555 
Q 180.838832 210.133592 180.50432 210.700001 
Q 180.169014 211.267756 180.32329 211.796197 
Q 180.478911 212.325434 181.084336 212.682988 
Q 181.689762 213.040541 182.230502 212.920749 
Q 182.773383 212.800406 183.106305 212.236687 
Q 183.440816 211.670278 183.285195 211.141041 
Q 183.13092 210.612599 182.520113 210.251868 
z
M 181.884115 209.389933 
Q 181.417343 208.932801 181.332828 208.378417 
Q 181.250453 207.823482 181.568278 207.285326 
Q 182.01244 206.533252 182.806138 206.412237 
Q 183.601182 206.292016 184.533537 206.842649 
Q 185.471274 207.39646 185.747161 208.149153 
Q 186.023048 208.901847 185.578887 209.65392 
Q 185.261061 210.192076 184.733974 210.387074 
Q 184.209027 210.581521 183.587379 210.395851 
Q 184.116653 210.900783 184.212067 211.519673 
Q 184.309622 212.138013 183.955246 212.738057 
Q 183.415737 213.651577 182.570319 213.811004 
Q 181.725696 213.969086 180.687054 213.355683 
Q 179.649759 212.743074 179.379054 211.926299 
Q 179.110489 211.108973 179.649998 210.195453 
Q 180.004373 209.595409 180.594313 209.383092 
Q 181.186393 209.170224 181.884115 209.389933 
z
M 182.36551 207.865035 
Q 182.077878 208.352066 182.220639 208.804752 
Q 182.364746 209.258232 182.915011 209.583209 
Q 183.462585 209.906596 183.931976 209.815437 
Q 184.402712 209.725072 184.690344 209.238041 
Q 184.978771 208.749664 184.830627 208.293801 
Q 184.683829 207.838731 184.136256 207.515344 
Q 183.585991 207.190367 183.119291 207.283116 
Q 182.653936 207.376658 182.36551 207.865035 
z
" clip-path="url(#pc2265f9821)" style="fill: #aa2395"/>
   </g>
   <g id="text_15">
    <path d="M 217.510732 216.213462 
L 219.108239 216.005879 
L 218.391465 210.489753 
L 216.698258 211.06429 
L 216.582487 210.173342 
L 218.266397 209.600014 
L 219.244115 209.472968 
L 220.07666 215.880041 
L 221.674167 215.672458 
L 221.781079 216.495229 
L 217.617644 217.036232 
L 217.510732 216.213462 
z
M 225.450397 211.946988 
Q 224.791871 212.032558 224.464642 212.533589 
Q 224.138761 213.032869 224.24064 213.816902 
Q 224.341914 214.596288 224.785177 215.000351 
Q 225.229787 215.402663 225.888314 215.317093 
Q 226.54684 215.231523 226.872318 214.729144 
Q 227.197594 214.225216 227.09632 213.445831 
Q 226.994441 212.661797 226.551783 212.262383 
Q 226.108923 211.861418 225.450397 211.946988 
z
M 226.993433 208.6283 
L 227.109204 209.519247 
Q 226.717879 209.393625 226.331028 209.350931 
Q 225.943975 209.306687 225.5752 209.354606 
Q 224.606779 209.480444 224.180419 210.200765 
Q 223.755608 210.920884 223.854527 212.252048 
Q 224.084865 211.793544 224.486424 211.512898 
Q 224.889533 211.23205 225.407057 211.164802 
Q 226.496337 211.023259 227.214494 211.602737 
Q 227.932451 212.180666 228.080235 213.317979 
Q 228.224999 214.432051 227.654057 215.191642 
Q 227.082912 215.949683 225.988984 216.09183 
Q 224.73391 216.254916 223.945904 215.380416 
Q 223.157697 214.504367 222.920517 212.679088 
Q 222.697834 210.96537 223.378825 209.840112 
Q 224.059817 208.714855 225.429551 208.536869 
Q 225.798326 208.48895 226.182761 208.513051 
Q 226.567197 208.537152 226.993433 208.6283 
z
" clip-path="url(#pc2265f9821)" style="fill: #cc4778; stroke: #ffffff; stroke-width: 5"/>
    <path d="M 217.510732 216.213462 
L 219.108239 216.005879 
L 218.391465 210.489753 
L 216.698258 211.06429 
L 216.582487 210.173342 
L 218.266397 209.600014 
L 219.244115 209.472968 
L 220.07666 215.880041 
L 221.674167 215.672458 
L 221.781079 216.495229 
L 217.617644 217.036232 
L 217.510732 216.213462 
z
M 225.450397 211.946988 
Q 224.791871 212.032558 224.464642 212.533589 
Q 224.138761 213.032869 224.24064 213.816902 
Q 224.341914 214.596288 224.785177 215.000351 
Q 225.229787 215.402663 225.888314 215.317093 
Q 226.54684 215.231523 226.872318 214.729144 
Q 227.197594 214.225216 227.09632 213.445831 
Q 226.994441 212.661797 226.551783 212.262383 
Q 226.108923 211.861418 225.450397 211.946988 
z
M 226.993433 208.6283 
L 227.109204 209.519247 
Q 226.717879 209.393625 226.331028 209.350931 
Q 225.943975 209.306687 225.5752 209.354606 
Q 224.606779 209.480444 224.180419 210.200765 
Q 223.755608 210.920884 223.854527 212.252048 
Q 224.084865 211.793544 224.486424 211.512898 
Q 224.889533 211.23205 225.407057 211.164802 
Q 226.496337 211.023259 227.214494 211.602737 
Q 227.932451 212.180666 228.080235 213.317979 
Q 228.224999 214.432051 227.654057 215.191642 
Q 227.082912 215.949683 225.988984 216.09183 
Q 224.73391 216.254916 223.945904 215.380416 
Q 223.157697 214.504367 222.920517 212.679088 
Q 222.697834 210.96537 223.378825 209.840112 
Q 224.059817 208.714855 225.429551 208.536869 
Q 225.798326 208.48895 226.182761 208.513051 
Q 226.567197 208.537152 226.993433 208.6283 
z
" clip-path="url(#pc2265f9821)" style="fill: #cc4778"/>
   </g>
   <g id="text_16">
    <path d="M 260.399056 225.9309 
Q 261.078723 226.179941 261.404629 226.710408 
Q 261.7323 227.239546 261.633988 227.935764 
Q 261.483243 229.003298 260.665546 229.485895 
Q 259.848067 229.966944 258.49431 229.775782 
Q 258.040994 229.71177 257.572502 229.55409 
Q 257.104009 229.396411 256.617245 229.144628 
L 256.750294 228.202413 
Q 257.122221 228.496366 257.587892 228.685207 
Q 258.055109 228.874266 258.582688 228.948765 
Q 259.500148 229.078318 260.032434 228.78423 
Q 260.564721 228.490141 260.662377 227.798564 
Q 260.752606 227.159591 260.356165 226.737514 
Q 259.959942 226.313889 259.163159 226.201377 
L 258.321509 226.082528 
L 258.434895 225.279557 
L 259.315224 225.403867 
Q 260.03465 225.505456 260.457432 225.271648 
Q 260.880213 225.037841 260.956678 224.496338 
Q 261.03511 223.94091 260.682532 223.588147 
Q 260.331721 223.234055 259.596824 223.130282 
Q 259.194565 223.073479 258.722608 223.096781 
Q 258.25087 223.118535 257.674305 223.223323 
L 257.797085 222.353824 
Q 258.375907 222.277759 258.872636 222.269001 
Q 259.369365 222.260244 259.799473 222.320979 
Q 260.911875 222.478059 261.487144 223.075299 
Q 262.064178 223.67121 261.942708 224.531426 
Q 261.857942 225.13172 261.456142 225.496309 
Q 261.054343 225.860898 260.399056 225.9309 
z
M 264.147146 229.592495 
L 267.55552 230.073787 
L 267.439512 230.895324 
L 262.85685 230.248212 
L 262.972859 229.426675 
Q 263.609557 228.929566 264.705554 228.096502 
Q 265.803316 227.262109 266.089075 227.015264 
Q 266.632142 226.555429 266.869359 226.216518 
Q 267.108124 225.877826 267.157935 225.525075 
Q 267.239206 224.949535 266.886522 224.530481 
Q 266.534056 224.109879 265.8858 224.01834 
Q 265.426296 223.953454 264.893234 224.040715 
Q 264.361719 224.128194 263.735658 224.371169 
L 263.875043 223.384087 
Q 264.497933 223.23061 265.027081 223.182247 
Q 265.557776 223.134101 265.983243 223.194181 
Q 267.104927 223.352572 267.692444 224.008349 
Q 268.28018 224.662579 268.147786 225.600153 
Q 268.084867 226.045732 267.861409 226.421302 
Q 267.639716 226.795544 267.122313 227.274782 
Q 266.981755 227.398532 266.2389 227.976909 
Q 265.497593 228.555505 264.147146 229.592495 
z
" clip-path="url(#pc2265f9821)" style="fill: #e66c5c; stroke: #ffffff; stroke-width: 5"/>
    <path d="M 260.399056 225.9309 
Q 261.078723 226.179941 261.404629 226.710408 
Q 261.7323 227.239546 261.633988 227.935764 
Q 261.483243 229.003298 260.665546 229.485895 
Q 259.848067 229.966944 258.49431 229.775782 
Q 258.040994 229.71177 257.572502 229.55409 
Q 257.104009 229.396411 256.617245 229.144628 
L 256.750294 228.202413 
Q 257.122221 228.496366 257.587892 228.685207 
Q 258.055109 228.874266 258.582688 228.948765 
Q 259.500148 229.078318 260.032434 228.78423 
Q 260.564721 228.490141 260.662377 227.798564 
Q 260.752606 227.159591 260.356165 226.737514 
Q 259.959942 226.313889 259.163159 226.201377 
L 258.321509 226.082528 
L 258.434895 225.279557 
L 259.315224 225.403867 
Q 260.03465 225.505456 260.457432 225.271648 
Q 260.880213 225.037841 260.956678 224.496338 
Q 261.03511 223.94091 260.682532 223.588147 
Q 260.331721 223.234055 259.596824 223.130282 
Q 259.194565 223.073479 258.722608 223.096781 
Q 258.25087 223.118535 257.674305 223.223323 
L 257.797085 222.353824 
Q 258.375907 222.277759 258.872636 222.269001 
Q 259.369365 222.260244 259.799473 222.320979 
Q 260.911875 222.478059 261.487144 223.075299 
Q 262.064178 223.67121 261.942708 224.531426 
Q 261.857942 225.13172 261.456142 225.496309 
Q 261.054343 225.860898 260.399056 225.9309 
z
M 264.147146 229.592495 
L 267.55552 230.073787 
L 267.439512 230.895324 
L 262.85685 230.248212 
L 262.972859 229.426675 
Q 263.609557 228.929566 264.705554 228.096502 
Q 265.803316 227.262109 266.089075 227.015264 
Q 266.632142 226.555429 266.869359 226.216518 
Q 267.108124 225.877826 267.157935 225.525075 
Q 267.239206 224.949535 266.886522 224.530481 
Q 266.534056 224.109879 265.8858 224.01834 
Q 265.426296 223.953454 264.893234 224.040715 
Q 264.361719 224.128194 263.735658 224.371169 
L 263.875043 223.384087 
Q 264.497933 223.23061 265.027081 223.182247 
Q 265.557776 223.134101 265.983243 223.194181 
Q 267.104927 223.352572 267.692444 224.008349 
Q 268.28018 224.662579 268.147786 225.600153 
Q 268.084867 226.045732 267.861409 226.421302 
Q 267.639716 226.795544 267.122313 227.274782 
Q 266.981755 227.398532 266.2389 227.976909 
Q 265.497593 228.555505 264.147146 229.592495 
z
" clip-path="url(#pc2265f9821)" style="fill: #e66c5c"/>
   </g>
   <g id="text_17">
    <path d="M 299.885205 218.510785 
Q 299.230247 218.401197 298.771484 218.785445 
Q 298.314519 219.16841 298.184045 219.948194 
Q 298.054345 220.723356 298.360981 221.238839 
Q 298.669415 221.753039 299.324373 221.862627 
Q 299.979331 221.972215 300.436811 221.586168 
Q 300.894549 221.19858 301.02425 220.423419 
Q 301.154724 219.643634 300.847314 219.132774 
Q 300.540162 218.620373 299.885205 218.510785 
z
M 302.326466 215.784085 
L 302.178201 216.670204 
Q 301.840304 216.436234 301.482577 216.28291 
Q 301.125107 216.128045 300.758331 216.066675 
Q 299.795158 215.905517 299.177788 216.47076 
Q 298.56196 217.03626 298.26958 218.33868 
Q 298.623274 217.966952 299.089083 217.815179 
Q 299.556432 217.663664 300.071151 217.749787 
Q 301.154528 217.931058 301.673184 218.694302 
Q 302.192098 219.456005 302.002833 220.587156 
Q 301.817437 221.69519 301.050313 222.255971 
Q 300.283447 222.81521 299.195446 222.633165 
Q 297.947174 222.424304 297.447462 221.358475 
Q 296.948009 220.291105 297.25176 218.475716 
Q 297.536946 216.771286 298.515679 215.89263 
Q 299.494412 215.013975 300.856724 215.241917 
Q 301.223501 215.303286 301.584322 215.438118 
Q 301.945144 215.572949 302.326466 215.784085 
z
M 307.026878 217.278706 
L 303.928088 220.70651 
L 306.384565 221.117529 
L 307.026878 217.278706 
z
M 306.912879 216.38831 
L 308.136494 216.593046 
L 307.352361 221.279461 
L 308.378718 221.451191 
L 308.243345 222.260257 
L 307.216988 222.088526 
L 306.933349 223.78371 
L 305.965553 223.621778 
L 306.249192 221.926594 
L 303.003684 221.383554 
L 303.160717 220.445038 
L 306.912879 216.38831 
z
" clip-path="url(#pc2265f9821)" style="fill: #f89540; stroke: #ffffff; stroke-width: 5"/>
    <path d="M 299.885205 218.510785 
Q 299.230247 218.401197 298.771484 218.785445 
Q 298.314519 219.16841 298.184045 219.948194 
Q 298.054345 220.723356 298.360981 221.238839 
Q 298.669415 221.753039 299.324373 221.862627 
Q 299.979331 221.972215 300.436811 221.586168 
Q 300.894549 221.19858 301.02425 220.423419 
Q 301.154724 219.643634 300.847314 219.132774 
Q 300.540162 218.620373 299.885205 218.510785 
z
M 302.326466 215.784085 
L 302.178201 216.670204 
Q 301.840304 216.436234 301.482577 216.28291 
Q 301.125107 216.128045 300.758331 216.066675 
Q 299.795158 215.905517 299.177788 216.47076 
Q 298.56196 217.03626 298.26958 218.33868 
Q 298.623274 217.966952 299.089083 217.815179 
Q 299.556432 217.663664 300.071151 217.749787 
Q 301.154528 217.931058 301.673184 218.694302 
Q 302.192098 219.456005 302.002833 220.587156 
Q 301.817437 221.69519 301.050313 222.255971 
Q 300.283447 222.81521 299.195446 222.633165 
Q 297.947174 222.424304 297.447462 221.358475 
Q 296.948009 220.291105 297.25176 218.475716 
Q 297.536946 216.771286 298.515679 215.89263 
Q 299.494412 215.013975 300.856724 215.241917 
Q 301.223501 215.303286 301.584322 215.438118 
Q 301.945144 215.572949 302.326466 215.784085 
z
M 307.026878 217.278706 
L 303.928088 220.70651 
L 306.384565 221.117529 
L 307.026878 217.278706 
z
M 306.912879 216.38831 
L 308.136494 216.593046 
L 307.352361 221.279461 
L 308.378718 221.451191 
L 308.243345 222.260257 
L 307.216988 222.088526 
L 306.933349 223.78371 
L 305.965553 223.621778 
L 306.249192 221.926594 
L 303.003684 221.383554 
L 303.160717 220.445038 
L 306.912879 216.38831 
z
" clip-path="url(#pc2265f9821)" style="fill: #f89540"/>
   </g>
   <g id="text_18">
    <path d="M 334.354134 224.35013 
L 335.938567 224.641148 
L 336.943441 219.170167 
L 335.15565 219.199241 
L 335.317954 218.315585 
L 337.096525 218.284818 
L 338.066241 218.462929 
L 336.899062 224.817566 
L 338.483495 225.108584 
L 338.333611 225.924621 
L 334.20425 225.166167 
L 334.354134 224.35013 
z
M 341.278728 225.621995 
L 344.664282 226.243832 
L 344.514398 227.059868 
L 339.962419 226.22379 
L 340.112303 225.407753 
Q 340.769015 224.937401 341.898526 224.150375 
Q 343.029857 223.362095 343.325579 223.127279 
Q 343.887199 222.690297 344.138229 222.361486 
Q 344.390796 222.032958 344.455153 221.682569 
Q 344.560157 221.110882 344.225105 220.677601 
Q 343.890335 220.242782 343.246419 220.124512 
Q 342.789992 220.040679 342.253777 220.10582 
Q 341.719098 220.171243 341.083525 220.388119 
L 341.263612 219.407645 
Q 341.892317 219.28006 342.423012 219.253621 
Q 342.955244 219.227464 343.377862 219.305088 
Q 344.492037 219.509733 345.051931 220.189246 
Q 345.612107 220.867222 345.441053 221.798518 
Q 345.35976 222.241115 345.120961 222.607122 
Q 344.883981 222.971875 344.347201 223.429306 
Q 344.201645 223.547137 343.435507 224.094298 
Q 342.670906 224.641741 341.278728 225.621995 
z
M 349.250632 224.409368 
Q 348.559075 224.282348 348.094556 224.57989 
Q 347.631574 224.877714 347.512739 225.524703 
Q 347.393622 226.17323 347.720551 226.616139 
Q 348.049017 227.059332 348.740573 227.186352 
Q 349.43213 227.313373 349.898468 227.014577 
Q 350.366625 226.714526 350.484895 226.07061 
Q 350.60373 225.42362 350.275264 224.980428 
Q 349.948335 224.537518 349.250632 224.409368 
z
M 348.356563 223.819397 
Q 347.760853 223.551117 347.490471 223.059814 
Q 347.221909 222.567256 347.334816 221.952539 
Q 347.492604 221.093472 348.195985 220.706357 
Q 348.900902 220.319525 349.965899 220.515136 
Q 351.037043 220.711877 351.555413 221.323395 
Q 352.073782 221.934913 351.915994 222.79398 
Q 351.803087 223.408697 351.375482 223.773387 
Q 350.949697 224.136823 350.302143 224.176748 
Q 350.973 224.468363 351.275842 225.016464 
Q 351.580503 225.563312 351.454611 226.248721 
Q 351.262951 227.292203 350.524256 227.7332 
Q 349.785843 228.172659 348.599439 227.954748 
Q 347.414572 227.73712 346.878984 227.06366 
Q 346.345216 226.388945 346.536876 225.345463 
Q 346.662767 224.660053 347.143407 224.257445 
Q 347.625866 223.853583 348.356563 223.819397 
z
M 348.282986 222.222011 
Q 348.180805 222.77833 348.470819 223.154091 
Q 348.762371 223.530135 349.390919 223.645583 
Q 350.016393 223.760466 350.425619 223.513136 
Q 350.836382 223.266089 350.938563 222.70977 
Q 351.041026 222.151915 350.744865 221.775024 
Q 350.45024 221.398416 349.824765 221.283533 
Q 349.196217 221.168085 348.790065 221.415979 
Q 348.385449 221.664155 348.282986 222.222011 
z
" clip-path="url(#pc2265f9821)" style="fill: #fdc527; stroke: #ffffff; stroke-width: 5"/>
    <path d="M 334.354134 224.35013 
L 335.938567 224.641148 
L 336.943441 219.170167 
L 335.15565 219.199241 
L 335.317954 218.315585 
L 337.096525 218.284818 
L 338.066241 218.462929 
L 336.899062 224.817566 
L 338.483495 225.108584 
L 338.333611 225.924621 
L 334.20425 225.166167 
L 334.354134 224.35013 
z
M 341.278728 225.621995 
L 344.664282 226.243832 
L 344.514398 227.059868 
L 339.962419 226.22379 
L 340.112303 225.407753 
Q 340.769015 224.937401 341.898526 224.150375 
Q 343.029857 223.362095 343.325579 223.127279 
Q 343.887199 222.690297 344.138229 222.361486 
Q 344.390796 222.032958 344.455153 221.682569 
Q 344.560157 221.110882 344.225105 220.677601 
Q 343.890335 220.242782 343.246419 220.124512 
Q 342.789992 220.040679 342.253777 220.10582 
Q 341.719098 220.171243 341.083525 220.388119 
L 341.263612 219.407645 
Q 341.892317 219.28006 342.423012 219.253621 
Q 342.955244 219.227464 343.377862 219.305088 
Q 344.492037 219.509733 345.051931 220.189246 
Q 345.612107 220.867222 345.441053 221.798518 
Q 345.35976 222.241115 345.120961 222.607122 
Q 344.883981 222.971875 344.347201 223.429306 
Q 344.201645 223.547137 343.435507 224.094298 
Q 342.670906 224.641741 341.278728 225.621995 
z
M 349.250632 224.409368 
Q 348.559075 224.282348 348.094556 224.57989 
Q 347.631574 224.877714 347.512739 225.524703 
Q 347.393622 226.17323 347.720551 226.616139 
Q 348.049017 227.059332 348.740573 227.186352 
Q 349.43213 227.313373 349.898468 227.014577 
Q 350.366625 226.714526 350.484895 226.07061 
Q 350.60373 225.42362 350.275264 224.980428 
Q 349.948335 224.537518 349.250632 224.409368 
z
M 348.356563 223.819397 
Q 347.760853 223.551117 347.490471 223.059814 
Q 347.221909 222.567256 347.334816 221.952539 
Q 347.492604 221.093472 348.195985 220.706357 
Q 348.900902 220.319525 349.965899 220.515136 
Q 351.037043 220.711877 351.555413 221.323395 
Q 352.073782 221.934913 351.915994 222.79398 
Q 351.803087 223.408697 351.375482 223.773387 
Q 350.949697 224.136823 350.302143 224.176748 
Q 350.973 224.468363 351.275842 225.016464 
Q 351.580503 225.563312 351.454611 226.248721 
Q 351.262951 227.292203 350.524256 227.7332 
Q 349.785843 228.172659 348.599439 227.954748 
Q 347.414572 227.73712 346.878984 227.06366 
Q 346.345216 226.388945 346.536876 225.345463 
Q 346.662767 224.660053 347.143407 224.257445 
Q 347.625866 223.853583 348.356563 223.819397 
z
M 348.282986 222.222011 
Q 348.180805 222.77833 348.470819 223.154091 
Q 348.762371 223.530135 349.390919 223.645583 
Q 350.016393 223.760466 350.425619 223.513136 
Q 350.836382 223.266089 350.938563 222.70977 
Q 351.041026 222.151915 350.744865 221.775024 
Q 350.45024 221.398416 349.824765 221.283533 
Q 349.196217 221.168085 348.790065 221.415979 
Q 348.385449 221.664155 348.282986 222.222011 
z
" clip-path="url(#pc2265f9821)" style="fill: #fdc527"/>
   </g>
   <g id="patch_3">
    <path d="M 43.78125 301.735725 
L 43.78125 35.623725 
" style="fill: none; stroke: #cccccc; stroke-width: 0.8; stroke-linejoin: miter; stroke-linecap: square"/>
   </g>
   <g id="patch_4">
    <path d="M 400.90125 301.735725 
L 400.90125 35.623725 
" style="fill: none; stroke: #cccccc; stroke-width: 0.8; stroke-linejoin: miter; stroke-linecap: square"/>
   </g>
   <g id="patch_5">
    <path d="M 43.78125 301.735725 
L 400.90125 301.735725 
" style="fill: none; stroke: #cccccc; stroke-width: 0.8; stroke-linejoin: miter; stroke-linecap: square"/>
   </g>
   <g id="patch_6">
    <path d="M 43.78125 35.623725 
L 400.90125 35.623725 
" style="fill: none; stroke: #cccccc; stroke-width: 0.8; stroke-linejoin: miter; stroke-linecap: square"/>
   </g>
   <g id="text_19">
    <!-- Block Size = 2M, Read-Write Type = Random Balanced 1:1 -->
    <g style="fill: #262626; opacity: 0.75" transform="translate(76.075625 30.882918) scale(0.1 -0.1)">
     <defs>
      <path id="DejaVuSans-6c" d="M 603 4863 
L 1178 4863 
L 1178 0 
L 603 0 
L 603 4863 
z
" transform="scale(0.015625)"/>
      <path id="DejaVuSans-63" d="M 3122 3366 
L 3122 2828 
Q 2878 2963 2633 3030 
Q 2388 3097 2138 3097 
Q 1578 3097 1268 2742 
Q 959 2388 959 1747 
Q 959 1106 1268 751 
Q 1578 397 2138 397 
Q 2388 397 2633 464 
Q 2878 531 3122 666 
L 3122 134 
Q 2881 22 2623 -34 
Q 2366 -91 2075 -91 
Q 1284 -91 818 406 
Q 353 903 353 1747 
Q 353 2603 823 3093 
Q 1294 3584 2113 3584 
Q 2378 3584 2631 3529 
Q 2884 3475 3122 3366 
z
" transform="scale(0.015625)"/>
      <path id="DejaVuSans-6b" d="M 581 4863 
L 1159 4863 
L 1159 1991 
L 2875 3500 
L 3609 3500 
L 1753 1863 
L 3688 0 
L 2938 0 
L 1159 1709 
L 1159 0 
L 581 0 
L 581 4863 
z
" transform="scale(0.015625)"/>
      <path id="DejaVuSans-53" d="M 3425 4513 
L 3425 3897 
Q 3066 4069 2747 4153 
Q 2428 4238 2131 4238 
Q 1616 4238 1336 4038 
Q 1056 3838 1056 3469 
Q 1056 3159 1242 3001 
Q 1428 2844 1947 2747 
L 2328 2669 
Q 3034 2534 3370 2195 
Q 3706 1856 3706 1288 
Q 3706 609 3251 259 
Q 2797 -91 1919 -91 
Q 1588 -91 1214 -16 
Q 841 59 441 206 
L 441 856 
Q 825 641 1194 531 
Q 1563 422 1919 422 
Q 2459 422 2753 634 
Q 3047 847 3047 1241 
Q 3047 1584 2836 1778 
Q 2625 1972 2144 2069 
L 1759 2144 
Q 1053 2284 737 2584 
Q 422 2884 422 3419 
Q 422 4038 858 4394 
Q 1294 4750 2059 4750 
Q 2388 4750 2728 4690 
Q 3069 4631 3425 4513 
z
" transform="scale(0.015625)"/>
      <path id="DejaVuSans-7a" d="M 353 3500 
L 3084 3500 
L 3084 2975 
L 922 459 
L 3084 459 
L 3084 0 
L 275 0 
L 275 525 
L 2438 3041 
L 353 3041 
L 353 3500 
z
" transform="scale(0.015625)"/>
      <path id="DejaVuSans-3d" d="M 678 2906 
L 4684 2906 
L 4684 2381 
L 678 2381 
L 678 2906 
z
M 678 1631 
L 4684 1631 
L 4684 1100 
L 678 1100 
L 678 1631 
z
" transform="scale(0.015625)"/>
      <path id="DejaVuSans-2c" d="M 750 794 
L 1409 794 
L 1409 256 
L 897 -744 
L 494 -744 
L 750 256 
L 750 794 
z
" transform="scale(0.015625)"/>
      <path id="DejaVuSans-52" d="M 2841 2188 
Q 3044 2119 3236 1894 
Q 3428 1669 3622 1275 
L 4263 0 
L 3584 0 
L 2988 1197 
Q 2756 1666 2539 1819 
Q 2322 1972 1947 1972 
L 1259 1972 
L 1259 0 
L 628 0 
L 628 4666 
L 2053 4666 
Q 2853 4666 3247 4331 
Q 3641 3997 3641 3322 
Q 3641 2881 3436 2590 
Q 3231 2300 2841 2188 
z
M 1259 4147 
L 1259 2491 
L 2053 2491 
Q 2509 2491 2742 2702 
Q 2975 2913 2975 3322 
Q 2975 3731 2742 3939 
Q 2509 4147 2053 4147 
L 1259 4147 
z
" transform="scale(0.015625)"/>
      <path id="DejaVuSans-2d" d="M 313 2009 
L 1997 2009 
L 1997 1497 
L 313 1497 
L 313 2009 
z
" transform="scale(0.015625)"/>
      <path id="DejaVuSans-57" d="M 213 4666 
L 850 4666 
L 1831 722 
L 2809 4666 
L 3519 4666 
L 4500 722 
L 5478 4666 
L 6119 4666 
L 4947 0 
L 4153 0 
L 3169 4050 
L 2175 0 
L 1381 0 
L 213 4666 
z
" transform="scale(0.015625)"/>
      <path id="DejaVuSans-54" d="M -19 4666 
L 3928 4666 
L 3928 4134 
L 2272 4134 
L 2272 0 
L 1638 0 
L 1638 4134 
L -19 4134 
L -19 4666 
z
" transform="scale(0.015625)"/>
      <path id="DejaVuSans-79" d="M 2059 -325 
Q 1816 -950 1584 -1140 
Q 1353 -1331 966 -1331 
L 506 -1331 
L 506 -850 
L 844 -850 
Q 1081 -850 1212 -737 
Q 1344 -625 1503 -206 
L 1606 56 
L 191 3500 
L 800 3500 
L 1894 763 
L 2988 3500 
L 3597 3500 
L 2059 -325 
z
" transform="scale(0.015625)"/>
      <path id="DejaVuSans-70" d="M 1159 525 
L 1159 -1331 
L 581 -1331 
L 581 3500 
L 1159 3500 
L 1159 2969 
Q 1341 3281 1617 3432 
Q 1894 3584 2278 3584 
Q 2916 3584 3314 3078 
Q 3713 2572 3713 1747 
Q 3713 922 3314 415 
Q 2916 -91 2278 -91 
Q 1894 -91 1617 61 
Q 1341 213 1159 525 
z
M 3116 1747 
Q 3116 2381 2855 2742 
Q 2594 3103 2138 3103 
Q 1681 3103 1420 2742 
Q 1159 2381 1159 1747 
Q 1159 1113 1420 752 
Q 1681 391 2138 391 
Q 2594 391 2855 752 
Q 3116 1113 3116 1747 
z
" transform="scale(0.015625)"/>
      <path id="DejaVuSans-3a" d="M 750 794 
L 1409 794 
L 1409 0 
L 750 0 
L 750 794 
z
M 750 3309 
L 1409 3309 
L 1409 2516 
L 750 2516 
L 750 3309 
z
" transform="scale(0.015625)"/>
     </defs>
     <use xlink:href="#DejaVuSans-42"/>
     <use xlink:href="#DejaVuSans-6c" transform="translate(68.603516 0)"/>
     <use xlink:href="#DejaVuSans-6f" transform="translate(96.386719 0)"/>
     <use xlink:href="#DejaVuSans-63" transform="translate(157.568359 0)"/>
     <use xlink:href="#DejaVuSans-6b" transform="translate(212.548828 0)"/>
     <use xlink:href="#DejaVuSans-20" transform="translate(270.458984 0)"/>
     <use xlink:href="#DejaVuSans-53" transform="translate(302.246094 0)"/>
     <use xlink:href="#DejaVuSans-69" transform="translate(365.722656 0)"/>
     <use xlink:href="#DejaVuSans-7a" transform="translate(393.505859 0)"/>
     <use xlink:href="#DejaVuSans-65" transform="translate(445.996094 0)"/>
     <use xlink:href="#DejaVuSans-20" transform="translate(507.519531 0)"/>
     <use xlink:href="#DejaVuSans-3d" transform="translate(539.306641 0)"/>
     <use xlink:href="#DejaVuSans-20" transform="translate(623.095703 0)"/>
     <use xlink:href="#DejaVuSans-32" transform="translate(654.882812 0)"/>
     <use xlink:href="#DejaVuSans-4d" transform="translate(718.505859 0)"/>
     <use xlink:href="#DejaVuSans-2c" transform="translate(804.785156 0)"/>
     <use xlink:href="#DejaVuSans-20" transform="translate(836.572266 0)"/>
     <use xlink:href="#DejaVuSans-52" transform="translate(868.359375 0)"/>
     <use xlink:href="#DejaVuSans-65" transform="translate(933.341797 0)"/>
     <use xlink:href="#DejaVuSans-61" transform="translate(994.865234 0)"/>
     <use xlink:href="#DejaVuSans-64" transform="translate(1056.144531 0)"/>
     <use xlink:href="#DejaVuSans-2d" transform="translate(1119.621094 0)"/>
     <use xlink:href="#DejaVuSans-57" transform="translate(1151.705078 0)"/>
     <use xlink:href="#DejaVuSans-72" transform="translate(1246.082031 0)"/>
     <use xlink:href="#DejaVuSans-69" transform="translate(1287.195312 0)"/>
     <use xlink:href="#DejaVuSans-74" transform="translate(1314.978516 0)"/>
     <use xlink:href="#DejaVuSans-65" transform="translate(1354.1875 0)"/>
     <use xlink:href="#DejaVuSans-20" transform="translate(1415.710938 0)"/>
     <use xlink:href="#DejaVuSans-54" transform="translate(1447.498047 0)"/>
     <use xlink:href="#DejaVuSans-79" transform="translate(1492.957031 0)"/>
     <use xlink:href="#DejaVuSans-70" transform="translate(1552.136719 0)"/>
     <use xlink:href="#DejaVuSans-65" transform="translate(1615.613281 0)"/>
     <use xlink:href="#DejaVuSans-20" transform="translate(1677.136719 0)"/>
     <use xlink:href="#DejaVuSans-3d" transform="translate(1708.923828 0)"/>
     <use xlink:href="#DejaVuSans-20" transform="translate(1792.712891 0)"/>
     <use xlink:href="#DejaVuSans-52" transform="translate(1824.5 0)"/>
     <use xlink:href="#DejaVuSans-61" transform="translate(1891.732422 0)"/>
     <use xlink:href="#DejaVuSans-6e" transform="translate(1953.011719 0)"/>
     <use xlink:href="#DejaVuSans-64" transform="translate(2016.390625 0)"/>
     <use xlink:href="#DejaVuSans-6f" transform="translate(2079.867188 0)"/>
     <use xlink:href="#DejaVuSans-6d" transform="translate(2141.048828 0)"/>
     <use xlink:href="#DejaVuSans-20" transform="translate(2238.460938 0)"/>
     <use xlink:href="#DejaVuSans-42" transform="translate(2270.248047 0)"/>
     <use xlink:href="#DejaVuSans-61" transform="translate(2338.851562 0)"/>
     <use xlink:href="#DejaVuSans-6c" transform="translate(2400.130859 0)"/>
     <use xlink:href="#DejaVuSans-61" transform="translate(2427.914062 0)"/>
     <use xlink:href="#DejaVuSans-6e" transform="translate(2489.193359 0)"/>
     <use xlink:href="#DejaVuSans-63" transform="translate(2552.572266 0)"/>
     <use xlink:href="#DejaVuSans-65" transform="translate(2607.552734 0)"/>
     <use xlink:href="#DejaVuSans-64" transform="translate(2669.076172 0)"/>
     <use xlink:href="#DejaVuSans-20" transform="translate(2732.552734 0)"/>
     <use xlink:href="#DejaVuSans-31" transform="translate(2764.339844 0)"/>
     <use xlink:href="#DejaVuSans-3a" transform="translate(2827.962891 0)"/>
     <use xlink:href="#DejaVuSans-31" transform="translate(2861.654297 0)"/>
    </g>
   </g>
   <g id="text_20">
    <!-- Mean Bandwidth vs Number of Jobs -->
    <g style="fill: #262626" transform="translate(102.012188 16.318125) scale(0.12 -0.12)">
     <defs>
      <path id="DejaVuSans-Bold-4d" d="M 588 4666 
L 2119 4666 
L 3181 2169 
L 4250 4666 
L 5778 4666 
L 5778 0 
L 4641 0 
L 4641 3413 
L 3566 897 
L 2803 897 
L 1728 3413 
L 1728 0 
L 588 0 
L 588 4666 
z
" transform="scale(0.015625)"/>
      <path id="DejaVuSans-Bold-65" d="M 4031 1759 
L 4031 1441 
L 1416 1441 
Q 1456 1047 1700 850 
Q 1944 653 2381 653 
Q 2734 653 3104 758 
Q 3475 863 3866 1075 
L 3866 213 
Q 3469 63 3072 -14 
Q 2675 -91 2278 -91 
Q 1328 -91 801 392 
Q 275 875 275 1747 
Q 275 2603 792 3093 
Q 1309 3584 2216 3584 
Q 3041 3584 3536 3087 
Q 4031 2591 4031 1759 
z
M 2881 2131 
Q 2881 2450 2695 2645 
Q 2509 2841 2209 2841 
Q 1884 2841 1681 2658 
Q 1478 2475 1428 2131 
L 2881 2131 
z
" transform="scale(0.015625)"/>
      <path id="DejaVuSans-Bold-61" d="M 2106 1575 
Q 1756 1575 1579 1456 
Q 1403 1338 1403 1106 
Q 1403 894 1545 773 
Q 1688 653 1941 653 
Q 2256 653 2472 879 
Q 2688 1106 2688 1447 
L 2688 1575 
L 2106 1575 
z
M 3816 1997 
L 3816 0 
L 2688 0 
L 2688 519 
Q 2463 200 2181 54 
Q 1900 -91 1497 -91 
Q 953 -91 614 226 
Q 275 544 275 1050 
Q 275 1666 698 1953 
Q 1122 2241 2028 2241 
L 2688 2241 
L 2688 2328 
Q 2688 2594 2478 2717 
Q 2269 2841 1825 2841 
Q 1466 2841 1156 2769 
Q 847 2697 581 2553 
L 581 3406 
Q 941 3494 1303 3539 
Q 1666 3584 2028 3584 
Q 2975 3584 3395 3211 
Q 3816 2838 3816 1997 
z
" transform="scale(0.015625)"/>
      <path id="DejaVuSans-Bold-6e" d="M 4056 2131 
L 4056 0 
L 2931 0 
L 2931 347 
L 2931 1631 
Q 2931 2084 2911 2256 
Q 2891 2428 2841 2509 
Q 2775 2619 2662 2680 
Q 2550 2741 2406 2741 
Q 2056 2741 1856 2470 
Q 1656 2200 1656 1722 
L 1656 0 
L 538 0 
L 538 3500 
L 1656 3500 
L 1656 2988 
Q 1909 3294 2193 3439 
Q 2478 3584 2822 3584 
Q 3428 3584 3742 3212 
Q 4056 2841 4056 2131 
z
" transform="scale(0.015625)"/>
      <path id="DejaVuSans-Bold-20" transform="scale(0.015625)"/>
      <path id="DejaVuSans-Bold-42" d="M 2456 2859 
Q 2741 2859 2887 2984 
Q 3034 3109 3034 3353 
Q 3034 3594 2887 3720 
Q 2741 3847 2456 3847 
L 1791 3847 
L 1791 2859 
L 2456 2859 
z
M 2497 819 
Q 2859 819 3042 972 
Q 3225 1125 3225 1434 
Q 3225 1738 3044 1889 
Q 2863 2041 2497 2041 
L 1791 2041 
L 1791 819 
L 2497 819 
z
M 3616 2497 
Q 4003 2384 4215 2081 
Q 4428 1778 4428 1338 
Q 4428 663 3972 331 
Q 3516 0 2584 0 
L 588 0 
L 588 4666 
L 2394 4666 
Q 3366 4666 3802 4372 
Q 4238 4078 4238 3431 
Q 4238 3091 4078 2852 
Q 3919 2613 3616 2497 
z
" transform="scale(0.015625)"/>
      <path id="DejaVuSans-Bold-64" d="M 2919 2988 
L 2919 4863 
L 4044 4863 
L 4044 0 
L 2919 0 
L 2919 506 
Q 2688 197 2409 53 
Q 2131 -91 1766 -91 
Q 1119 -91 703 423 
Q 288 938 288 1747 
Q 288 2556 703 3070 
Q 1119 3584 1766 3584 
Q 2128 3584 2408 3439 
Q 2688 3294 2919 2988 
z
M 2181 722 
Q 2541 722 2730 984 
Q 2919 1247 2919 1747 
Q 2919 2247 2730 2509 
Q 2541 2772 2181 2772 
Q 1825 2772 1636 2509 
Q 1447 2247 1447 1747 
Q 1447 1247 1636 984 
Q 1825 722 2181 722 
z
" transform="scale(0.015625)"/>
      <path id="DejaVuSans-Bold-77" d="M 225 3500 
L 1313 3500 
L 1900 1088 
L 2491 3500 
L 3425 3500 
L 4013 1113 
L 4603 3500 
L 5691 3500 
L 4769 0 
L 3547 0 
L 2956 2406 
L 2369 0 
L 1147 0 
L 225 3500 
z
" transform="scale(0.015625)"/>
      <path id="DejaVuSans-Bold-69" d="M 538 3500 
L 1656 3500 
L 1656 0 
L 538 0 
L 538 3500 
z
M 538 4863 
L 1656 4863 
L 1656 3950 
L 538 3950 
L 538 4863 
z
" transform="scale(0.015625)"/>
      <path id="DejaVuSans-Bold-74" d="M 1759 4494 
L 1759 3500 
L 2913 3500 
L 2913 2700 
L 1759 2700 
L 1759 1216 
Q 1759 972 1856 886 
Q 1953 800 2241 800 
L 2816 800 
L 2816 0 
L 1856 0 
Q 1194 0 917 276 
Q 641 553 641 1216 
L 641 2700 
L 84 2700 
L 84 3500 
L 641 3500 
L 641 4494 
L 1759 4494 
z
" transform="scale(0.015625)"/>
      <path id="DejaVuSans-Bold-68" d="M 4056 2131 
L 4056 0 
L 2931 0 
L 2931 347 
L 2931 1625 
Q 2931 2084 2911 2256 
Q 2891 2428 2841 2509 
Q 2775 2619 2662 2680 
Q 2550 2741 2406 2741 
Q 2056 2741 1856 2470 
Q 1656 2200 1656 1722 
L 1656 0 
L 538 0 
L 538 4863 
L 1656 4863 
L 1656 2988 
Q 1909 3294 2193 3439 
Q 2478 3584 2822 3584 
Q 3428 3584 3742 3212 
Q 4056 2841 4056 2131 
z
" transform="scale(0.015625)"/>
      <path id="DejaVuSans-Bold-76" d="M 97 3500 
L 1216 3500 
L 2088 1081 
L 2956 3500 
L 4078 3500 
L 2700 0 
L 1472 0 
L 97 3500 
z
" transform="scale(0.015625)"/>
      <path id="DejaVuSans-Bold-73" d="M 3272 3391 
L 3272 2541 
Q 2913 2691 2578 2766 
Q 2244 2841 1947 2841 
Q 1628 2841 1473 2761 
Q 1319 2681 1319 2516 
Q 1319 2381 1436 2309 
Q 1553 2238 1856 2203 
L 2053 2175 
Q 2913 2066 3209 1816 
Q 3506 1566 3506 1031 
Q 3506 472 3093 190 
Q 2681 -91 1863 -91 
Q 1516 -91 1145 -36 
Q 775 19 384 128 
L 384 978 
Q 719 816 1070 734 
Q 1422 653 1784 653 
Q 2113 653 2278 743 
Q 2444 834 2444 1013 
Q 2444 1163 2330 1236 
Q 2216 1309 1875 1350 
L 1678 1375 
Q 931 1469 631 1722 
Q 331 1975 331 2491 
Q 331 3047 712 3315 
Q 1094 3584 1881 3584 
Q 2191 3584 2531 3537 
Q 2872 3491 3272 3391 
z
" transform="scale(0.015625)"/>
      <path id="DejaVuSans-Bold-4e" d="M 588 4666 
L 1931 4666 
L 3628 1466 
L 3628 4666 
L 4769 4666 
L 4769 0 
L 3425 0 
L 1728 3200 
L 1728 0 
L 588 0 
L 588 4666 
z
" transform="scale(0.015625)"/>
      <path id="DejaVuSans-Bold-75" d="M 500 1363 
L 500 3500 
L 1625 3500 
L 1625 3150 
Q 1625 2866 1622 2436 
Q 1619 2006 1619 1863 
Q 1619 1441 1641 1255 
Q 1663 1069 1716 984 
Q 1784 875 1895 815 
Q 2006 756 2150 756 
Q 2500 756 2700 1025 
Q 2900 1294 2900 1772 
L 2900 3500 
L 4019 3500 
L 4019 0 
L 2900 0 
L 2900 506 
Q 2647 200 2364 54 
Q 2081 -91 1741 -91 
Q 1134 -91 817 281 
Q 500 653 500 1363 
z
" transform="scale(0.015625)"/>
      <path id="DejaVuSans-Bold-6d" d="M 3781 2919 
Q 3994 3244 4286 3414 
Q 4578 3584 4928 3584 
Q 5531 3584 5847 3212 
Q 6163 2841 6163 2131 
L 6163 0 
L 5038 0 
L 5038 1825 
Q 5041 1866 5042 1909 
Q 5044 1953 5044 2034 
Q 5044 2406 4934 2573 
Q 4825 2741 4581 2741 
Q 4263 2741 4089 2478 
Q 3916 2216 3909 1719 
L 3909 0 
L 2784 0 
L 2784 1825 
Q 2784 2406 2684 2573 
Q 2584 2741 2328 2741 
Q 2006 2741 1831 2477 
Q 1656 2213 1656 1722 
L 1656 0 
L 531 0 
L 531 3500 
L 1656 3500 
L 1656 2988 
Q 1863 3284 2130 3434 
Q 2397 3584 2719 3584 
Q 3081 3584 3359 3409 
Q 3638 3234 3781 2919 
z
" transform="scale(0.015625)"/>
      <path id="DejaVuSans-Bold-62" d="M 2400 722 
Q 2759 722 2948 984 
Q 3138 1247 3138 1747 
Q 3138 2247 2948 2509 
Q 2759 2772 2400 2772 
Q 2041 2772 1848 2508 
Q 1656 2244 1656 1747 
Q 1656 1250 1848 986 
Q 2041 722 2400 722 
z
M 1656 2988 
Q 1888 3294 2169 3439 
Q 2450 3584 2816 3584 
Q 3463 3584 3878 3070 
Q 4294 2556 4294 1747 
Q 4294 938 3878 423 
Q 3463 -91 2816 -91 
Q 2450 -91 2169 54 
Q 1888 200 1656 506 
L 1656 0 
L 538 0 
L 538 4863 
L 1656 4863 
L 1656 2988 
z
" transform="scale(0.015625)"/>
      <path id="DejaVuSans-Bold-72" d="M 3138 2547 
Q 2991 2616 2845 2648 
Q 2700 2681 2553 2681 
Q 2122 2681 1889 2404 
Q 1656 2128 1656 1613 
L 1656 0 
L 538 0 
L 538 3500 
L 1656 3500 
L 1656 2925 
Q 1872 3269 2151 3426 
Q 2431 3584 2822 3584 
Q 2878 3584 2943 3579 
Q 3009 3575 3134 3559 
L 3138 2547 
z
" transform="scale(0.015625)"/>
      <path id="DejaVuSans-Bold-6f" d="M 2203 2784 
Q 1831 2784 1636 2517 
Q 1441 2250 1441 1747 
Q 1441 1244 1636 976 
Q 1831 709 2203 709 
Q 2569 709 2762 976 
Q 2956 1244 2956 1747 
Q 2956 2250 2762 2517 
Q 2569 2784 2203 2784 
z
M 2203 3584 
Q 3106 3584 3614 3096 
Q 4122 2609 4122 1747 
Q 4122 884 3614 396 
Q 3106 -91 2203 -91 
Q 1297 -91 786 396 
Q 275 884 275 1747 
Q 275 2609 786 3096 
Q 1297 3584 2203 3584 
z
" transform="scale(0.015625)"/>
      <path id="DejaVuSans-Bold-66" d="M 2841 4863 
L 2841 4128 
L 2222 4128 
Q 1984 4128 1890 4042 
Q 1797 3956 1797 3744 
L 1797 3500 
L 2753 3500 
L 2753 2700 
L 1797 2700 
L 1797 0 
L 678 0 
L 678 2700 
L 122 2700 
L 122 3500 
L 678 3500 
L 678 3744 
Q 678 4316 997 4589 
Q 1316 4863 1984 4863 
L 2841 4863 
z
" transform="scale(0.015625)"/>
      <path id="DejaVuSans-Bold-4a" d="M 588 4666 
L 1791 4666 
L 1791 453 
Q 1791 -419 1317 -850 
Q 844 -1281 -116 -1281 
L -359 -1281 
L -359 -372 
L -172 -372 
Q 203 -372 395 -162 
Q 588 47 588 453 
L 588 4666 
z
" transform="scale(0.015625)"/>
     </defs>
     <use xlink:href="#DejaVuSans-Bold-4d"/>
     <use xlink:href="#DejaVuSans-Bold-65" transform="translate(99.511719 0)"/>
     <use xlink:href="#DejaVuSans-Bold-61" transform="translate(167.333984 0)"/>
     <use xlink:href="#DejaVuSans-Bold-6e" transform="translate(234.814453 0)"/>
     <use xlink:href="#DejaVuSans-Bold-20" transform="translate(306.005859 0)"/>
     <use xlink:href="#DejaVuSans-Bold-42" transform="translate(340.820312 0)"/>
     <use xlink:href="#DejaVuSans-Bold-61" transform="translate(417.041016 0)"/>
     <use xlink:href="#DejaVuSans-Bold-6e" transform="translate(484.521484 0)"/>
     <use xlink:href="#DejaVuSans-Bold-64" transform="translate(555.712891 0)"/>
     <use xlink:href="#DejaVuSans-Bold-77" transform="translate(627.294922 0)"/>
     <use xlink:href="#DejaVuSans-Bold-69" transform="translate(719.677734 0)"/>
     <use xlink:href="#DejaVuSans-Bold-64" transform="translate(753.955078 0)"/>
     <use xlink:href="#DejaVuSans-Bold-74" transform="translate(825.537109 0)"/>
     <use xlink:href="#DejaVuSans-Bold-68" transform="translate(873.339844 0)"/>
     <use xlink:href="#DejaVuSans-Bold-20" transform="translate(944.53125 0)"/>
     <use xlink:href="#DejaVuSans-Bold-76" transform="translate(979.345703 0)"/>
     <use xlink:href="#DejaVuSans-Bold-73" transform="translate(1044.53125 0)"/>
     <use xlink:href="#DejaVuSans-Bold-20" transform="translate(1104.052734 0)"/>
     <use xlink:href="#DejaVuSans-Bold-4e" transform="translate(1138.867188 0)"/>
     <use xlink:href="#DejaVuSans-Bold-75" transform="translate(1222.558594 0)"/>
     <use xlink:href="#DejaVuSans-Bold-6d" transform="translate(1293.75 0)"/>
     <use xlink:href="#DejaVuSans-Bold-62" transform="translate(1397.949219 0)"/>
     <use xlink:href="#DejaVuSans-Bold-65" transform="translate(1469.53125 0)"/>
     <use xlink:href="#DejaVuSans-Bold-72" transform="translate(1537.353516 0)"/>
     <use xlink:href="#DejaVuSans-Bold-20" transform="translate(1586.669922 0)"/>
     <use xlink:href="#DejaVuSans-Bold-6f" transform="translate(1621.484375 0)"/>
     <use xlink:href="#DejaVuSans-Bold-66" transform="translate(1690.185547 0)"/>
     <use xlink:href="#DejaVuSans-Bold-20" transform="translate(1733.691406 0)"/>
     <use xlink:href="#DejaVuSans-Bold-4a" transform="translate(1768.505859 0)"/>
     <use xlink:href="#DejaVuSans-Bold-6f" transform="translate(1805.712891 0)"/>
     <use xlink:href="#DejaVuSans-Bold-62" transform="translate(1874.414062 0)"/>
     <use xlink:href="#DejaVuSans-Bold-73" transform="translate(1945.996094 0)"/>
    </g>
   </g>
   <g id="legend_1">
    <g id="text_21">
     <!-- IO Depth -->
     <g style="fill: #262626" transform="translate(435.407813 120.065663) scale(0.1 -0.1)">
      <defs>
       <path id="DejaVuSans-49" d="M 628 4666 
L 1259 4666 
L 1259 0 
L 628 0 
L 628 4666 
z
" transform="scale(0.015625)"/>
       <path id="DejaVuSans-4f" d="M 2522 4238 
Q 1834 4238 1429 3725 
Q 1025 3213 1025 2328 
Q 1025 1447 1429 934 
Q 1834 422 2522 422 
Q 3209 422 3611 934 
Q 4013 1447 4013 2328 
Q 4013 3213 3611 3725 
Q 3209 4238 2522 4238 
z
M 2522 4750 
Q 3503 4750 4090 4092 
Q 4678 3434 4678 2328 
Q 4678 1225 4090 567 
Q 3503 -91 2522 -91 
Q 1538 -91 948 565 
Q 359 1222 359 2328 
Q 359 3434 948 4092 
Q 1538 4750 2522 4750 
z
" transform="scale(0.015625)"/>
       <path id="DejaVuSans-44" d="M 1259 4147 
L 1259 519 
L 2022 519 
Q 2988 519 3436 956 
Q 3884 1394 3884 2338 
Q 3884 3275 3436 3711 
Q 2988 4147 2022 4147 
L 1259 4147 
z
M 628 4666 
L 1925 4666 
Q 3281 4666 3915 4102 
Q 4550 3538 4550 2338 
Q 4550 1131 3912 565 
Q 3275 0 1925 0 
L 628 0 
L 628 4666 
z
" transform="scale(0.015625)"/>
      </defs>
      <use xlink:href="#DejaVuSans-49"/>
      <use xlink:href="#DejaVuSans-4f" transform="translate(29.492188 0)"/>
      <use xlink:href="#DejaVuSans-20" transform="translate(108.203125 0)"/>
      <use xlink:href="#DejaVuSans-44" transform="translate(139.990234 0)"/>
      <use xlink:href="#DejaVuSans-65" transform="translate(216.992188 0)"/>
      <use xlink:href="#DejaVuSans-70" transform="translate(278.515625 0)"/>
      <use xlink:href="#DejaVuSans-74" transform="translate(341.992188 0)"/>
      <use xlink:href="#DejaVuSans-68" transform="translate(381.201172 0)"/>
     </g>
    </g>
    <g id="line2d_24">
     <path d="M 434.09375 131.243787 
L 444.09375 131.243787 
L 454.09375 131.243787 
" style="fill: none; stroke: #4c02a1; stroke-width: 1.5; stroke-linecap: round"/>
    </g>
    <g id="text_22">
     <!-- 1 -->
     <g style="fill: #262626" transform="translate(462.09375 134.743787) scale(0.1 -0.1)">
      <use xlink:href="#DejaVuSans-31"/>
     </g>
    </g>
    <g id="line2d_25">
     <path d="M 434.09375 145.921913 
L 444.09375 145.921913 
L 454.09375 145.921913 
" style="fill: none; stroke: #7e03a8; stroke-width: 1.5; stroke-linecap: round"/>
    </g>
    <g id="text_23">
     <!-- 4 -->
     <g style="fill: #262626" transform="translate(462.09375 149.421913) scale(0.1 -0.1)">
      <use xlink:href="#DejaVuSans-34"/>
     </g>
    </g>
    <g id="line2d_26">
     <path d="M 434.09375 160.600037 
L 444.09375 160.600037 
L 454.09375 160.600037 
" style="fill: none; stroke: #aa2395; stroke-width: 1.5; stroke-linecap: round"/>
    </g>
    <g id="text_24">
     <!-- 8 -->
     <g style="fill: #262626" transform="translate(462.09375 164.100037) scale(0.1 -0.1)">
      <use xlink:href="#DejaVuSans-38"/>
     </g>
    </g>
    <g id="line2d_27">
     <path d="M 434.09375 175.278163 
L 444.09375 175.278163 
L 454.09375 175.278163 
" style="fill: none; stroke: #cc4778; stroke-width: 1.5; stroke-linecap: round"/>
    </g>
    <g id="text_25">
     <!-- 16 -->
     <g style="fill: #262626" transform="translate(462.09375 178.778163) scale(0.1 -0.1)">
      <use xlink:href="#DejaVuSans-31"/>
      <use xlink:href="#DejaVuSans-36" transform="translate(63.623047 0)"/>
     </g>
    </g>
    <g id="line2d_28">
     <path d="M 434.09375 189.956288 
L 444.09375 189.956288 
L 454.09375 189.956288 
" style="fill: none; stroke: #e66c5c; stroke-width: 1.5; stroke-linecap: round"/>
    </g>
    <g id="text_26">
     <!-- 32 -->
     <g style="fill: #262626" transform="translate(462.09375 193.456288) scale(0.1 -0.1)">
      <use xlink:href="#DejaVuSans-33"/>
      <use xlink:href="#DejaVuSans-32" transform="translate(63.623047 0)"/>
     </g>
    </g>
    <g id="line2d_29">
     <path d="M 434.09375 204.634412 
L 444.09375 204.634412 
L 454.09375 204.634412 
" style="fill: none; stroke: #f89540; stroke-width: 1.5; stroke-linecap: round"/>
    </g>
    <g id="text_27">
     <!-- 64 -->
     <g style="fill: #262626" transform="translate(462.09375 208.134412) scale(0.1 -0.1)">
      <use xlink:href="#DejaVuSans-36"/>
      <use xlink:href="#DejaVuSans-34" transform="translate(63.623047 0)"/>
     </g>
    </g>
    <g id="line2d_30">
     <path d="M 434.09375 219.312537 
L 444.09375 219.312537 
L 454.09375 219.312537 
" style="fill: none; stroke: #fdc527; stroke-width: 1.5; stroke-linecap: round"/>
    </g>
    <g id="text_28">
     <!-- 128 -->
     <g style="fill: #262626" transform="translate(462.09375 222.812537) scale(0.1 -0.1)">
      <use xlink:href="#DejaVuSans-31"/>
      <use xlink:href="#DejaVuSans-32" transform="translate(63.623047 0)"/>
      <use xlink:href="#DejaVuSans-38" transform="translate(127.246094 0)"/>
     </g>
    </g>
   </g>
  </g>
 </g>
 <defs>
  <clipPath id="pc2265f9821">
   <rect x="43.78125" y="35.623725" width="357.12" height="266.112"/>
  </clipPath>
 </defs>
</svg>
