<?xml version="1.0" encoding="utf-8" standalone="no"?>
<!DOCTYPE svg PUBLIC "-//W3C//DTD SVG 1.1//EN"
  "http://www.w3.org/Graphics/SVG/1.1/DTD/svg11.dtd">
<svg xmlns:xlink="http://www.w3.org/1999/xlink" width="492.38125pt" height="339.291975pt" viewBox="0 0 492.38125 339.291975" xmlns="http://www.w3.org/2000/svg" version="1.1">
 <metadata>
  <rdf:RDF xmlns:dc="http://purl.org/dc/elements/1.1/" xmlns:cc="http://creativecommons.org/ns#" xmlns:rdf="http://www.w3.org/1999/02/22-rdf-syntax-ns#">
   <cc:Work>
    <dc:type rdf:resource="http://purl.org/dc/dcmitype/StillImage"/>
    <dc:date>2025-09-10T17:53:50.346241</dc:date>
    <dc:format>image/svg+xml</dc:format>
    <dc:creator>
     <cc:Agent>
      <dc:title>Matplotlib v3.10.6, https://matplotlib.org/</dc:title>
     </cc:Agent>
    </dc:creator>
   </cc:Work>
  </rdf:RDF>
 </metadata>
 <defs>
  <style type="text/css">*{stroke-linejoin: round; stroke-linecap: butt}</style>
 </defs>
 <g id="figure_1">
  <g id="patch_1">
   <path d="M 0 339.291975 
L 492.38125 339.291975 
L 492.38125 0 
L 0 0 
z
" style="fill: #ffffff"/>
  </g>
  <g id="axes_1">
   <g id="patch_2">
    <path d="M 43.78125 301.735725 
L 400.90125 301.735725 
L 400.90125 35.623725 
L 43.78125 35.623725 
z
" style="fill: #ffffff"/>
   </g>
   <g id="matplotlib.axis_1">
    <g id="xtick_1">
     <g id="line2d_1">
      <path d="M 384.668523 301.735725 
L 384.668523 35.623725 
" clip-path="url(#p7dfa06b529)" style="fill: none; stroke: #cccccc; stroke-width: 0.8; stroke-linecap: round"/>
     </g>
     <g id="text_1">
      <!-- 128 -->
      <g style="fill: #262626" transform="translate(375.124773 316.334162) scale(0.1 -0.1)">
       <defs>
        <path id="DejaVuSans-31" d="M 794 531 
L 1825 531 
L 1825 4091 
L 703 3866 
L 703 4441 
L 1819 4666 
L 2450 4666 
L 2450 531 
L 3481 531 
L 3481 0 
L 794 0 
L 794 531 
z
" transform="scale(0.015625)"/>
        <path id="DejaVuSans-32" d="M 1228 531 
L 3431 531 
L 3431 0 
L 469 0 
L 469 531 
Q 828 903 1448 1529 
Q 2069 2156 2228 2338 
Q 2531 2678 2651 2914 
Q 2772 3150 2772 3378 
Q 2772 3750 2511 3984 
Q 2250 4219 1831 4219 
Q 1534 4219 1204 4116 
Q 875 4013 500 3803 
L 500 4441 
Q 881 4594 1212 4672 
Q 1544 4750 1819 4750 
Q 2544 4750 2975 4387 
Q 3406 4025 3406 3419 
Q 3406 3131 3298 2873 
Q 3191 2616 2906 2266 
Q 2828 2175 2409 1742 
Q 1991 1309 1228 531 
z
" transform="scale(0.015625)"/>
        <path id="DejaVuSans-38" d="M 2034 2216 
Q 1584 2216 1326 1975 
Q 1069 1734 1069 1313 
Q 1069 891 1326 650 
Q 1584 409 2034 409 
Q 2484 409 2743 651 
Q 3003 894 3003 1313 
Q 3003 1734 2745 1975 
Q 2488 2216 2034 2216 
z
M 1403 2484 
Q 997 2584 770 2862 
Q 544 3141 544 3541 
Q 544 4100 942 4425 
Q 1341 4750 2034 4750 
Q 2731 4750 3128 4425 
Q 3525 4100 3525 3541 
Q 3525 3141 3298 2862 
Q 3072 2584 2669 2484 
Q 3125 2378 3379 2068 
Q 3634 1759 3634 1313 
Q 3634 634 3220 271 
Q 2806 -91 2034 -91 
Q 1263 -91 848 271 
Q 434 634 434 1313 
Q 434 1759 690 2068 
Q 947 2378 1403 2484 
z
M 1172 3481 
Q 1172 3119 1398 2916 
Q 1625 2713 2034 2713 
Q 2441 2713 2670 2916 
Q 2900 3119 2900 3481 
Q 2900 3844 2670 4047 
Q 2441 4250 2034 4250 
Q 1625 4250 1398 4047 
Q 1172 3844 1172 3481 
z
" transform="scale(0.015625)"/>
       </defs>
       <use xlink:href="#DejaVuSans-31"/>
       <use xlink:href="#DejaVuSans-32" transform="translate(63.623047 0)"/>
       <use xlink:href="#DejaVuSans-38" transform="translate(127.246094 0)"/>
      </g>
     </g>
    </g>
    <g id="xtick_2">
     <g id="line2d_2">
      <path d="M 106.393198 301.735725 
L 106.393198 35.623725 
" clip-path="url(#p7dfa06b529)" style="fill: none; stroke: #cccccc; stroke-width: 0.8; stroke-linecap: round"/>
     </g>
     <g id="text_2">
      <!-- 32 -->
      <g style="fill: #262626" transform="translate(100.030698 316.334162) scale(0.1 -0.1)">
       <defs>
        <path id="DejaVuSans-33" d="M 2597 2516 
Q 3050 2419 3304 2112 
Q 3559 1806 3559 1356 
Q 3559 666 3084 287 
Q 2609 -91 1734 -91 
Q 1441 -91 1130 -33 
Q 819 25 488 141 
L 488 750 
Q 750 597 1062 519 
Q 1375 441 1716 441 
Q 2309 441 2620 675 
Q 2931 909 2931 1356 
Q 2931 1769 2642 2001 
Q 2353 2234 1838 2234 
L 1294 2234 
L 1294 2753 
L 1863 2753 
Q 2328 2753 2575 2939 
Q 2822 3125 2822 3475 
Q 2822 3834 2567 4026 
Q 2313 4219 1838 4219 
Q 1578 4219 1281 4162 
Q 984 4106 628 3988 
L 628 4550 
Q 988 4650 1302 4700 
Q 1616 4750 1894 4750 
Q 2613 4750 3031 4423 
Q 3450 4097 3450 3541 
Q 3450 3153 3228 2886 
Q 3006 2619 2597 2516 
z
" transform="scale(0.015625)"/>
       </defs>
       <use xlink:href="#DejaVuSans-33"/>
       <use xlink:href="#DejaVuSans-32" transform="translate(63.623047 0)"/>
      </g>
     </g>
    </g>
    <g id="xtick_3">
     <g id="line2d_3">
      <path d="M 199.15164 301.735725 
L 199.15164 35.623725 
" clip-path="url(#p7dfa06b529)" style="fill: none; stroke: #cccccc; stroke-width: 0.8; stroke-linecap: round"/>
     </g>
     <g id="text_3">
      <!-- 64 -->
      <g style="fill: #262626" transform="translate(192.78914 316.334162) scale(0.1 -0.1)">
       <defs>
        <path id="DejaVuSans-36" d="M 2113 2584 
Q 1688 2584 1439 2293 
Q 1191 2003 1191 1497 
Q 1191 994 1439 701 
Q 1688 409 2113 409 
Q 2538 409 2786 701 
Q 3034 994 3034 1497 
Q 3034 2003 2786 2293 
Q 2538 2584 2113 2584 
z
M 3366 4563 
L 3366 3988 
Q 3128 4100 2886 4159 
Q 2644 4219 2406 4219 
Q 1781 4219 1451 3797 
Q 1122 3375 1075 2522 
Q 1259 2794 1537 2939 
Q 1816 3084 2150 3084 
Q 2853 3084 3261 2657 
Q 3669 2231 3669 1497 
Q 3669 778 3244 343 
Q 2819 -91 2113 -91 
Q 1303 -91 875 529 
Q 447 1150 447 2328 
Q 447 3434 972 4092 
Q 1497 4750 2381 4750 
Q 2619 4750 2861 4703 
Q 3103 4656 3366 4563 
z
" transform="scale(0.015625)"/>
        <path id="DejaVuSans-34" d="M 2419 4116 
L 825 1625 
L 2419 1625 
L 2419 4116 
z
M 2253 4666 
L 3047 4666 
L 3047 1625 
L 3713 1625 
L 3713 1100 
L 3047 1100 
L 3047 0 
L 2419 0 
L 2419 1100 
L 313 1100 
L 313 1709 
L 2253 4666 
z
" transform="scale(0.015625)"/>
       </defs>
       <use xlink:href="#DejaVuSans-36"/>
       <use xlink:href="#DejaVuSans-34" transform="translate(63.623047 0)"/>
      </g>
     </g>
    </g>
    <g id="xtick_4">
     <g id="line2d_4">
      <path d="M 60.013977 301.735725 
L 60.013977 35.623725 
" clip-path="url(#p7dfa06b529)" style="fill: none; stroke: #cccccc; stroke-width: 0.8; stroke-linecap: round"/>
     </g>
     <g id="text_4">
      <!-- 16 -->
      <g style="fill: #262626" transform="translate(53.651477 316.334162) scale(0.1 -0.1)">
       <use xlink:href="#DejaVuSans-31"/>
       <use xlink:href="#DejaVuSans-36" transform="translate(63.623047 0)"/>
      </g>
     </g>
    </g>
    <g id="text_5">
     <!-- Number of Jobs -->
     <g style="fill: #262626" transform="translate(183.944375 330.012287) scale(0.1 -0.1)">
      <defs>
       <path id="DejaVuSans-4e" d="M 628 4666 
L 1478 4666 
L 3547 763 
L 3547 4666 
L 4159 4666 
L 4159 0 
L 3309 0 
L 1241 3903 
L 1241 0 
L 628 0 
L 628 4666 
z
" transform="scale(0.015625)"/>
       <path id="DejaVuSans-75" d="M 544 1381 
L 544 3500 
L 1119 3500 
L 1119 1403 
Q 1119 906 1312 657 
Q 1506 409 1894 409 
Q 2359 409 2629 706 
Q 2900 1003 2900 1516 
L 2900 3500 
L 3475 3500 
L 3475 0 
L 2900 0 
L 2900 538 
Q 2691 219 2414 64 
Q 2138 -91 1772 -91 
Q 1169 -91 856 284 
Q 544 659 544 1381 
z
M 1991 3584 
L 1991 3584 
z
" transform="scale(0.015625)"/>
       <path id="DejaVuSans-6d" d="M 3328 2828 
Q 3544 3216 3844 3400 
Q 4144 3584 4550 3584 
Q 5097 3584 5394 3201 
Q 5691 2819 5691 2113 
L 5691 0 
L 5113 0 
L 5113 2094 
Q 5113 2597 4934 2840 
Q 4756 3084 4391 3084 
Q 3944 3084 3684 2787 
Q 3425 2491 3425 1978 
L 3425 0 
L 2847 0 
L 2847 2094 
Q 2847 2600 2669 2842 
Q 2491 3084 2119 3084 
Q 1678 3084 1418 2786 
Q 1159 2488 1159 1978 
L 1159 0 
L 581 0 
L 581 3500 
L 1159 3500 
L 1159 2956 
Q 1356 3278 1631 3431 
Q 1906 3584 2284 3584 
Q 2666 3584 2933 3390 
Q 3200 3197 3328 2828 
z
" transform="scale(0.015625)"/>
       <path id="DejaVuSans-62" d="M 3116 1747 
Q 3116 2381 2855 2742 
Q 2594 3103 2138 3103 
Q 1681 3103 1420 2742 
Q 1159 2381 1159 1747 
Q 1159 1113 1420 752 
Q 1681 391 2138 391 
Q 2594 391 2855 752 
Q 3116 1113 3116 1747 
z
M 1159 2969 
Q 1341 3281 1617 3432 
Q 1894 3584 2278 3584 
Q 2916 3584 3314 3078 
Q 3713 2572 3713 1747 
Q 3713 922 3314 415 
Q 2916 -91 2278 -91 
Q 1894 -91 1617 61 
Q 1341 213 1159 525 
L 1159 0 
L 581 0 
L 581 4863 
L 1159 4863 
L 1159 2969 
z
" transform="scale(0.015625)"/>
       <path id="DejaVuSans-65" d="M 3597 1894 
L 3597 1613 
L 953 1613 
Q 991 1019 1311 708 
Q 1631 397 2203 397 
Q 2534 397 2845 478 
Q 3156 559 3463 722 
L 3463 178 
Q 3153 47 2828 -22 
Q 2503 -91 2169 -91 
Q 1331 -91 842 396 
Q 353 884 353 1716 
Q 353 2575 817 3079 
Q 1281 3584 2069 3584 
Q 2775 3584 3186 3129 
Q 3597 2675 3597 1894 
z
M 3022 2063 
Q 3016 2534 2758 2815 
Q 2500 3097 2075 3097 
Q 1594 3097 1305 2825 
Q 1016 2553 972 2059 
L 3022 2063 
z
" transform="scale(0.015625)"/>
       <path id="DejaVuSans-72" d="M 2631 2963 
Q 2534 3019 2420 3045 
Q 2306 3072 2169 3072 
Q 1681 3072 1420 2755 
Q 1159 2438 1159 1844 
L 1159 0 
L 581 0 
L 581 3500 
L 1159 3500 
L 1159 2956 
Q 1341 3275 1631 3429 
Q 1922 3584 2338 3584 
Q 2397 3584 2469 3576 
Q 2541 3569 2628 3553 
L 2631 2963 
z
" transform="scale(0.015625)"/>
       <path id="DejaVuSans-20" transform="scale(0.015625)"/>
       <path id="DejaVuSans-6f" d="M 1959 3097 
Q 1497 3097 1228 2736 
Q 959 2375 959 1747 
Q 959 1119 1226 758 
Q 1494 397 1959 397 
Q 2419 397 2687 759 
Q 2956 1122 2956 1747 
Q 2956 2369 2687 2733 
Q 2419 3097 1959 3097 
z
M 1959 3584 
Q 2709 3584 3137 3096 
Q 3566 2609 3566 1747 
Q 3566 888 3137 398 
Q 2709 -91 1959 -91 
Q 1206 -91 779 398 
Q 353 888 353 1747 
Q 353 2609 779 3096 
Q 1206 3584 1959 3584 
z
" transform="scale(0.015625)"/>
       <path id="DejaVuSans-66" d="M 2375 4863 
L 2375 4384 
L 1825 4384 
Q 1516 4384 1395 4259 
Q 1275 4134 1275 3809 
L 1275 3500 
L 2222 3500 
L 2222 3053 
L 1275 3053 
L 1275 0 
L 697 0 
L 697 3053 
L 147 3053 
L 147 3500 
L 697 3500 
L 697 3744 
Q 697 4328 969 4595 
Q 1241 4863 1831 4863 
L 2375 4863 
z
" transform="scale(0.015625)"/>
       <path id="DejaVuSans-4a" d="M 628 4666 
L 1259 4666 
L 1259 325 
Q 1259 -519 939 -900 
Q 619 -1281 -91 -1281 
L -331 -1281 
L -331 -750 
L -134 -750 
Q 284 -750 456 -515 
Q 628 -281 628 325 
L 628 4666 
z
" transform="scale(0.015625)"/>
       <path id="DejaVuSans-73" d="M 2834 3397 
L 2834 2853 
Q 2591 2978 2328 3040 
Q 2066 3103 1784 3103 
Q 1356 3103 1142 2972 
Q 928 2841 928 2578 
Q 928 2378 1081 2264 
Q 1234 2150 1697 2047 
L 1894 2003 
Q 2506 1872 2764 1633 
Q 3022 1394 3022 966 
Q 3022 478 2636 193 
Q 2250 -91 1575 -91 
Q 1294 -91 989 -36 
Q 684 19 347 128 
L 347 722 
Q 666 556 975 473 
Q 1284 391 1588 391 
Q 1994 391 2212 530 
Q 2431 669 2431 922 
Q 2431 1156 2273 1281 
Q 2116 1406 1581 1522 
L 1381 1569 
Q 847 1681 609 1914 
Q 372 2147 372 2553 
Q 372 3047 722 3315 
Q 1072 3584 1716 3584 
Q 2034 3584 2315 3537 
Q 2597 3491 2834 3397 
z
" transform="scale(0.015625)"/>
      </defs>
      <use xlink:href="#DejaVuSans-4e"/>
      <use xlink:href="#DejaVuSans-75" transform="translate(74.804688 0)"/>
      <use xlink:href="#DejaVuSans-6d" transform="translate(138.183594 0)"/>
      <use xlink:href="#DejaVuSans-62" transform="translate(235.595703 0)"/>
      <use xlink:href="#DejaVuSans-65" transform="translate(299.072266 0)"/>
      <use xlink:href="#DejaVuSans-72" transform="translate(360.595703 0)"/>
      <use xlink:href="#DejaVuSans-20" transform="translate(401.708984 0)"/>
      <use xlink:href="#DejaVuSans-6f" transform="translate(433.496094 0)"/>
      <use xlink:href="#DejaVuSans-66" transform="translate(494.677734 0)"/>
      <use xlink:href="#DejaVuSans-20" transform="translate(529.882812 0)"/>
      <use xlink:href="#DejaVuSans-4a" transform="translate(561.669922 0)"/>
      <use xlink:href="#DejaVuSans-6f" transform="translate(591.162109 0)"/>
      <use xlink:href="#DejaVuSans-62" transform="translate(652.34375 0)"/>
      <use xlink:href="#DejaVuSans-73" transform="translate(715.820312 0)"/>
     </g>
    </g>
   </g>
   <g id="matplotlib.axis_2">
    <g id="ytick_1">
     <g id="line2d_5">
      <path d="M 43.78125 277.124149 
L 400.90125 277.124149 
" clip-path="url(#p7dfa06b529)" style="fill: none; stroke: #cccccc; stroke-width: 0.8; stroke-linecap: round"/>
     </g>
     <g id="text_6">
      <!-- 5.6 -->
      <g style="fill: #262626" transform="translate(20.878125 280.923368) scale(0.1 -0.1)">
       <defs>
        <path id="DejaVuSans-35" d="M 691 4666 
L 3169 4666 
L 3169 4134 
L 1269 4134 
L 1269 2991 
Q 1406 3038 1543 3061 
Q 1681 3084 1819 3084 
Q 2600 3084 3056 2656 
Q 3513 2228 3513 1497 
Q 3513 744 3044 326 
Q 2575 -91 1722 -91 
Q 1428 -91 1123 -41 
Q 819 9 494 109 
L 494 744 
Q 775 591 1075 516 
Q 1375 441 1709 441 
Q 2250 441 2565 725 
Q 2881 1009 2881 1497 
Q 2881 1984 2565 2268 
Q 2250 2553 1709 2553 
Q 1456 2553 1204 2497 
Q 953 2441 691 2322 
L 691 4666 
z
" transform="scale(0.015625)"/>
        <path id="DejaVuSans-2e" d="M 684 794 
L 1344 794 
L 1344 0 
L 684 0 
L 684 794 
z
" transform="scale(0.015625)"/>
       </defs>
       <use xlink:href="#DejaVuSans-35"/>
       <use xlink:href="#DejaVuSans-2e" transform="translate(63.623047 0)"/>
       <use xlink:href="#DejaVuSans-36" transform="translate(95.410156 0)"/>
      </g>
     </g>
    </g>
    <g id="ytick_2">
     <g id="line2d_6">
      <path d="M 43.78125 244.084828 
L 400.90125 244.084828 
" clip-path="url(#p7dfa06b529)" style="fill: none; stroke: #cccccc; stroke-width: 0.8; stroke-linecap: round"/>
     </g>
     <g id="text_7">
      <!-- 5.8 -->
      <g style="fill: #262626" transform="translate(20.878125 247.884046) scale(0.1 -0.1)">
       <use xlink:href="#DejaVuSans-35"/>
       <use xlink:href="#DejaVuSans-2e" transform="translate(63.623047 0)"/>
       <use xlink:href="#DejaVuSans-38" transform="translate(95.410156 0)"/>
      </g>
     </g>
    </g>
    <g id="ytick_3">
     <g id="line2d_7">
      <path d="M 43.78125 211.045506 
L 400.90125 211.045506 
" clip-path="url(#p7dfa06b529)" style="fill: none; stroke: #cccccc; stroke-width: 0.8; stroke-linecap: round"/>
     </g>
     <g id="text_8">
      <!-- 6.0 -->
      <g style="fill: #262626" transform="translate(20.878125 214.844725) scale(0.1 -0.1)">
       <defs>
        <path id="DejaVuSans-30" d="M 2034 4250 
Q 1547 4250 1301 3770 
Q 1056 3291 1056 2328 
Q 1056 1369 1301 889 
Q 1547 409 2034 409 
Q 2525 409 2770 889 
Q 3016 1369 3016 2328 
Q 3016 3291 2770 3770 
Q 2525 4250 2034 4250 
z
M 2034 4750 
Q 2819 4750 3233 4129 
Q 3647 3509 3647 2328 
Q 3647 1150 3233 529 
Q 2819 -91 2034 -91 
Q 1250 -91 836 529 
Q 422 1150 422 2328 
Q 422 3509 836 4129 
Q 1250 4750 2034 4750 
z
" transform="scale(0.015625)"/>
       </defs>
       <use xlink:href="#DejaVuSans-36"/>
       <use xlink:href="#DejaVuSans-2e" transform="translate(63.623047 0)"/>
       <use xlink:href="#DejaVuSans-30" transform="translate(95.410156 0)"/>
      </g>
     </g>
    </g>
    <g id="ytick_4">
     <g id="line2d_8">
      <path d="M 43.78125 178.006185 
L 400.90125 178.006185 
" clip-path="url(#p7dfa06b529)" style="fill: none; stroke: #cccccc; stroke-width: 0.8; stroke-linecap: round"/>
     </g>
     <g id="text_9">
      <!-- 6.2 -->
      <g style="fill: #262626" transform="translate(20.878125 181.805404) scale(0.1 -0.1)">
       <use xlink:href="#DejaVuSans-36"/>
       <use xlink:href="#DejaVuSans-2e" transform="translate(63.623047 0)"/>
       <use xlink:href="#DejaVuSans-32" transform="translate(95.410156 0)"/>
      </g>
     </g>
    </g>
    <g id="ytick_5">
     <g id="line2d_9">
      <path d="M 43.78125 144.966864 
L 400.90125 144.966864 
" clip-path="url(#p7dfa06b529)" style="fill: none; stroke: #cccccc; stroke-width: 0.8; stroke-linecap: round"/>
     </g>
     <g id="text_10">
      <!-- 6.4 -->
      <g style="fill: #262626" transform="translate(20.878125 148.766082) scale(0.1 -0.1)">
       <use xlink:href="#DejaVuSans-36"/>
       <use xlink:href="#DejaVuSans-2e" transform="translate(63.623047 0)"/>
       <use xlink:href="#DejaVuSans-34" transform="translate(95.410156 0)"/>
      </g>
     </g>
    </g>
    <g id="ytick_6">
     <g id="line2d_10">
      <path d="M 43.78125 111.927542 
L 400.90125 111.927542 
" clip-path="url(#p7dfa06b529)" style="fill: none; stroke: #cccccc; stroke-width: 0.8; stroke-linecap: round"/>
     </g>
     <g id="text_11">
      <!-- 6.6 -->
      <g style="fill: #262626" transform="translate(20.878125 115.726761) scale(0.1 -0.1)">
       <use xlink:href="#DejaVuSans-36"/>
       <use xlink:href="#DejaVuSans-2e" transform="translate(63.623047 0)"/>
       <use xlink:href="#DejaVuSans-36" transform="translate(95.410156 0)"/>
      </g>
     </g>
    </g>
    <g id="ytick_7">
     <g id="line2d_11">
      <path d="M 43.78125 78.888221 
L 400.90125 78.888221 
" clip-path="url(#p7dfa06b529)" style="fill: none; stroke: #cccccc; stroke-width: 0.8; stroke-linecap: round"/>
     </g>
     <g id="text_12">
      <!-- 6.8 -->
      <g style="fill: #262626" transform="translate(20.878125 82.68744) scale(0.1 -0.1)">
       <use xlink:href="#DejaVuSans-36"/>
       <use xlink:href="#DejaVuSans-2e" transform="translate(63.623047 0)"/>
       <use xlink:href="#DejaVuSans-38" transform="translate(95.410156 0)"/>
      </g>
     </g>
    </g>
    <g id="ytick_8">
     <g id="line2d_12">
      <path d="M 43.78125 45.848899 
L 400.90125 45.848899 
" clip-path="url(#p7dfa06b529)" style="fill: none; stroke: #cccccc; stroke-width: 0.8; stroke-linecap: round"/>
     </g>
     <g id="text_13">
      <!-- 7.0 -->
      <g style="fill: #262626" transform="translate(20.878125 49.648118) scale(0.1 -0.1)">
       <defs>
        <path id="DejaVuSans-37" d="M 525 4666 
L 3525 4666 
L 3525 4397 
L 1831 0 
L 1172 0 
L 2766 4134 
L 525 4134 
L 525 4666 
z
" transform="scale(0.015625)"/>
       </defs>
       <use xlink:href="#DejaVuSans-37"/>
       <use xlink:href="#DejaVuSans-2e" transform="translate(63.623047 0)"/>
       <use xlink:href="#DejaVuSans-30" transform="translate(95.410156 0)"/>
      </g>
     </g>
    </g>
    <g id="text_14">
     <!-- Mean Bandwidth (GiB/s) -->
     <g style="fill: #262626" transform="translate(14.798438 228.984412) rotate(-90) scale(0.1 -0.1)">
      <defs>
       <path id="DejaVuSans-4d" d="M 628 4666 
L 1569 4666 
L 2759 1491 
L 3956 4666 
L 4897 4666 
L 4897 0 
L 4281 0 
L 4281 4097 
L 3078 897 
L 2444 897 
L 1241 4097 
L 1241 0 
L 628 0 
L 628 4666 
z
" transform="scale(0.015625)"/>
       <path id="DejaVuSans-61" d="M 2194 1759 
Q 1497 1759 1228 1600 
Q 959 1441 959 1056 
Q 959 750 1161 570 
Q 1363 391 1709 391 
Q 2188 391 2477 730 
Q 2766 1069 2766 1631 
L 2766 1759 
L 2194 1759 
z
M 3341 1997 
L 3341 0 
L 2766 0 
L 2766 531 
Q 2569 213 2275 61 
Q 1981 -91 1556 -91 
Q 1019 -91 701 211 
Q 384 513 384 1019 
Q 384 1609 779 1909 
Q 1175 2209 1959 2209 
L 2766 2209 
L 2766 2266 
Q 2766 2663 2505 2880 
Q 2244 3097 1772 3097 
Q 1472 3097 1187 3025 
Q 903 2953 641 2809 
L 641 3341 
Q 956 3463 1253 3523 
Q 1550 3584 1831 3584 
Q 2591 3584 2966 3190 
Q 3341 2797 3341 1997 
z
" transform="scale(0.015625)"/>
       <path id="DejaVuSans-6e" d="M 3513 2113 
L 3513 0 
L 2938 0 
L 2938 2094 
Q 2938 2591 2744 2837 
Q 2550 3084 2163 3084 
Q 1697 3084 1428 2787 
Q 1159 2491 1159 1978 
L 1159 0 
L 581 0 
L 581 3500 
L 1159 3500 
L 1159 2956 
Q 1366 3272 1645 3428 
Q 1925 3584 2291 3584 
Q 2894 3584 3203 3211 
Q 3513 2838 3513 2113 
z
" transform="scale(0.015625)"/>
       <path id="DejaVuSans-42" d="M 1259 2228 
L 1259 519 
L 2272 519 
Q 2781 519 3026 730 
Q 3272 941 3272 1375 
Q 3272 1813 3026 2020 
Q 2781 2228 2272 2228 
L 1259 2228 
z
M 1259 4147 
L 1259 2741 
L 2194 2741 
Q 2656 2741 2882 2914 
Q 3109 3088 3109 3444 
Q 3109 3797 2882 3972 
Q 2656 4147 2194 4147 
L 1259 4147 
z
M 628 4666 
L 2241 4666 
Q 2963 4666 3353 4366 
Q 3744 4066 3744 3513 
Q 3744 3084 3544 2831 
Q 3344 2578 2956 2516 
Q 3422 2416 3680 2098 
Q 3938 1781 3938 1306 
Q 3938 681 3513 340 
Q 3088 0 2303 0 
L 628 0 
L 628 4666 
z
" transform="scale(0.015625)"/>
       <path id="DejaVuSans-64" d="M 2906 2969 
L 2906 4863 
L 3481 4863 
L 3481 0 
L 2906 0 
L 2906 525 
Q 2725 213 2448 61 
Q 2172 -91 1784 -91 
Q 1150 -91 751 415 
Q 353 922 353 1747 
Q 353 2572 751 3078 
Q 1150 3584 1784 3584 
Q 2172 3584 2448 3432 
Q 2725 3281 2906 2969 
z
M 947 1747 
Q 947 1113 1208 752 
Q 1469 391 1925 391 
Q 2381 391 2643 752 
Q 2906 1113 2906 1747 
Q 2906 2381 2643 2742 
Q 2381 3103 1925 3103 
Q 1469 3103 1208 2742 
Q 947 2381 947 1747 
z
" transform="scale(0.015625)"/>
       <path id="DejaVuSans-77" d="M 269 3500 
L 844 3500 
L 1563 769 
L 2278 3500 
L 2956 3500 
L 3675 769 
L 4391 3500 
L 4966 3500 
L 4050 0 
L 3372 0 
L 2619 2869 
L 1863 0 
L 1184 0 
L 269 3500 
z
" transform="scale(0.015625)"/>
       <path id="DejaVuSans-69" d="M 603 3500 
L 1178 3500 
L 1178 0 
L 603 0 
L 603 3500 
z
M 603 4863 
L 1178 4863 
L 1178 4134 
L 603 4134 
L 603 4863 
z
" transform="scale(0.015625)"/>
       <path id="DejaVuSans-74" d="M 1172 4494 
L 1172 3500 
L 2356 3500 
L 2356 3053 
L 1172 3053 
L 1172 1153 
Q 1172 725 1289 603 
Q 1406 481 1766 481 
L 2356 481 
L 2356 0 
L 1766 0 
Q 1100 0 847 248 
Q 594 497 594 1153 
L 594 3053 
L 172 3053 
L 172 3500 
L 594 3500 
L 594 4494 
L 1172 4494 
z
" transform="scale(0.015625)"/>
       <path id="DejaVuSans-68" d="M 3513 2113 
L 3513 0 
L 2938 0 
L 2938 2094 
Q 2938 2591 2744 2837 
Q 2550 3084 2163 3084 
Q 1697 3084 1428 2787 
Q 1159 2491 1159 1978 
L 1159 0 
L 581 0 
L 581 4863 
L 1159 4863 
L 1159 2956 
Q 1366 3272 1645 3428 
Q 1925 3584 2291 3584 
Q 2894 3584 3203 3211 
Q 3513 2838 3513 2113 
z
" transform="scale(0.015625)"/>
       <path id="DejaVuSans-28" d="M 1984 4856 
Q 1566 4138 1362 3434 
Q 1159 2731 1159 2009 
Q 1159 1288 1364 580 
Q 1569 -128 1984 -844 
L 1484 -844 
Q 1016 -109 783 600 
Q 550 1309 550 2009 
Q 550 2706 781 3412 
Q 1013 4119 1484 4856 
L 1984 4856 
z
" transform="scale(0.015625)"/>
       <path id="DejaVuSans-47" d="M 3809 666 
L 3809 1919 
L 2778 1919 
L 2778 2438 
L 4434 2438 
L 4434 434 
Q 4069 175 3628 42 
Q 3188 -91 2688 -91 
Q 1594 -91 976 548 
Q 359 1188 359 2328 
Q 359 3472 976 4111 
Q 1594 4750 2688 4750 
Q 3144 4750 3555 4637 
Q 3966 4525 4313 4306 
L 4313 3634 
Q 3963 3931 3569 4081 
Q 3175 4231 2741 4231 
Q 1884 4231 1454 3753 
Q 1025 3275 1025 2328 
Q 1025 1384 1454 906 
Q 1884 428 2741 428 
Q 3075 428 3337 486 
Q 3600 544 3809 666 
z
" transform="scale(0.015625)"/>
       <path id="DejaVuSans-2f" d="M 1625 4666 
L 2156 4666 
L 531 -594 
L 0 -594 
L 1625 4666 
z
" transform="scale(0.015625)"/>
       <path id="DejaVuSans-29" d="M 513 4856 
L 1013 4856 
Q 1481 4119 1714 3412 
Q 1947 2706 1947 2009 
Q 1947 1309 1714 600 
Q 1481 -109 1013 -844 
L 513 -844 
Q 928 -128 1133 580 
Q 1338 1288 1338 2009 
Q 1338 2731 1133 3434 
Q 928 4138 513 4856 
z
" transform="scale(0.015625)"/>
      </defs>
      <use xlink:href="#DejaVuSans-4d"/>
      <use xlink:href="#DejaVuSans-65" transform="translate(86.279297 0)"/>
      <use xlink:href="#DejaVuSans-61" transform="translate(147.802734 0)"/>
      <use xlink:href="#DejaVuSans-6e" transform="translate(209.082031 0)"/>
      <use xlink:href="#DejaVuSans-20" transform="translate(272.460938 0)"/>
      <use xlink:href="#DejaVuSans-42" transform="translate(304.248047 0)"/>
      <use xlink:href="#DejaVuSans-61" transform="translate(372.851562 0)"/>
      <use xlink:href="#DejaVuSans-6e" transform="translate(434.130859 0)"/>
      <use xlink:href="#DejaVuSans-64" transform="translate(497.509766 0)"/>
      <use xlink:href="#DejaVuSans-77" transform="translate(560.986328 0)"/>
      <use xlink:href="#DejaVuSans-69" transform="translate(642.773438 0)"/>
      <use xlink:href="#DejaVuSans-64" transform="translate(670.556641 0)"/>
      <use xlink:href="#DejaVuSans-74" transform="translate(734.033203 0)"/>
      <use xlink:href="#DejaVuSans-68" transform="translate(773.242188 0)"/>
      <use xlink:href="#DejaVuSans-20" transform="translate(836.621094 0)"/>
      <use xlink:href="#DejaVuSans-28" transform="translate(868.408203 0)"/>
      <use xlink:href="#DejaVuSans-47" transform="translate(907.421875 0)"/>
      <use xlink:href="#DejaVuSans-69" transform="translate(984.912109 0)"/>
      <use xlink:href="#DejaVuSans-42" transform="translate(1012.695312 0)"/>
      <use xlink:href="#DejaVuSans-2f" transform="translate(1081.298828 0)"/>
      <use xlink:href="#DejaVuSans-73" transform="translate(1114.990234 0)"/>
      <use xlink:href="#DejaVuSans-29" transform="translate(1167.089844 0)"/>
     </g>
    </g>
   </g>
   <g id="FillBetweenPolyCollection_1"/>
   <g id="FillBetweenPolyCollection_2"/>
   <g id="FillBetweenPolyCollection_3"/>
   <g id="FillBetweenPolyCollection_4"/>
   <g id="FillBetweenPolyCollection_5"/>
   <g id="FillBetweenPolyCollection_6"/>
   <g id="FillBetweenPolyCollection_7"/>
   <g id="line2d_13">
    <path d="M 60.013977 240.125034 
L 106.393198 289.639725 
L 199.15164 223.204385 
L 384.668523 259.669558 
" clip-path="url(#p7dfa06b529)" style="fill: none; stroke: #4c02a1; stroke-width: 1.5; stroke-linecap: round"/>
   </g>
   <g id="line2d_14">
    <path d="M 60.013977 163.088679 
L 106.393198 134.979575 
L 199.15164 279.417791 
L 384.668523 99.152209 
" clip-path="url(#p7dfa06b529)" style="fill: none; stroke: #7e03a8; stroke-width: 1.5; stroke-linecap: round"/>
   </g>
   <g id="line2d_15">
    <path d="M 60.013977 47.719725 
L 106.393198 257.092761 
L 199.15164 278.931447 
L 384.668523 245.767586 
" clip-path="url(#p7dfa06b529)" style="fill: none; stroke: #aa2395; stroke-width: 1.5; stroke-linecap: round"/>
   </g>
   <g id="line2d_16">
    <path d="M 60.013977 230.423375 
L 106.393198 230.344384 
L 199.15164 81.013754 
L 384.668523 171.914491 
" clip-path="url(#p7dfa06b529)" style="fill: none; stroke: #cc4778; stroke-width: 1.5; stroke-linecap: round"/>
   </g>
   <g id="line2d_17">
    <path d="M 60.013977 255.348314 
L 106.393198 262.358627 
L 199.15164 140.420945 
L 384.668523 151.719738 
" clip-path="url(#p7dfa06b529)" style="fill: none; stroke: #e66c5c; stroke-width: 1.5; stroke-linecap: round"/>
   </g>
   <g id="line2d_18">
    <path d="M 60.013977 262.396242 
L 106.393198 219.616627 
L 199.15164 176.803917 
L 384.668523 166.406115 
" clip-path="url(#p7dfa06b529)" style="fill: none; stroke: #f89540; stroke-width: 1.5; stroke-linecap: round"/>
   </g>
   <g id="line2d_19">
    <path d="M 60.013977 253.856261 
L 106.393198 226.175775 
L 199.15164 251.289901 
L 384.668523 98.532346 
" clip-path="url(#p7dfa06b529)" style="fill: none; stroke: #fdc527; stroke-width: 1.5; stroke-linecap: round"/>
   </g>
   <g id="line2d_20"/>
   <g id="line2d_21"/>
   <g id="line2d_22"/>
   <g id="line2d_23"/>
   <g id="line2d_24"/>
   <g id="line2d_25"/>
   <g id="line2d_26"/>
   <g id="text_15">
    <path d="M 99.07824 284.652984 
L 100.179511 285.828706 
L 104.23923 282.026064 
L 102.784174 280.986904 
L 103.439887 280.372713 
L 104.888535 281.405031 
L 105.562542 282.124605 
L 100.84711 286.541438 
L 101.94838 287.71716 
L 101.342843 288.284351 
L 98.472703 285.220175 
L 99.07824 284.652984 
z
" clip-path="url(#p7dfa06b529)" style="fill: #4c02a1; stroke: #ffffff; stroke-width: 5"/>
    <path d="M 99.07824 284.652984 
L 100.179511 285.828706 
L 104.23923 282.026064 
L 102.784174 280.986904 
L 103.439887 280.372713 
L 104.888535 281.405031 
L 105.562542 282.124605 
L 100.84711 286.541438 
L 101.94838 287.71716 
L 101.342843 288.284351 
L 98.472703 285.220175 
L 99.07824 284.652984 
z
" clip-path="url(#p7dfa06b529)" style="fill: #4c02a1"/>
   </g>
   <g id="text_16">
    <path d="M 145.402249 188.927122 
L 140.781397 188.934648 
L 142.127249 191.030333 
L 145.402249 188.927122 
z
M 145.985195 188.244499 
L 146.655588 189.288397 
L 142.657484 191.855985 
L 143.219803 192.731598 
L 142.529569 193.174868 
L 141.967249 192.299255 
L 140.521042 193.228011 
L 139.990807 192.402359 
L 141.437014 191.473603 
L 139.658868 188.704774 
L 140.45954 188.190581 
L 145.985195 188.244499 
z
" clip-path="url(#p7dfa06b529)" style="fill: #7e03a8; stroke: #ffffff; stroke-width: 5"/>
    <path d="M 145.402249 188.927122 
L 140.781397 188.934648 
L 142.127249 191.030333 
L 145.402249 188.927122 
z
M 145.985195 188.244499 
L 146.655588 189.288397 
L 142.657484 191.855985 
L 143.219803 192.731598 
L 142.529569 193.174868 
L 141.967249 192.299255 
L 140.521042 193.228011 
L 139.990807 192.402359 
L 141.437014 191.473603 
L 139.658868 188.704774 
L 140.45954 188.190581 
L 145.985195 188.244499 
z
" clip-path="url(#p7dfa06b529)" style="fill: #7e03a8"/>
   </g>
   <g id="text_17">
    <path d="M 182.323344 274.247109 
Q 181.638931 274.085974 181.160238 274.360131 
Q 180.683066 274.634645 180.532314 275.274951 
Q 180.381205 275.916777 180.685784 276.375344 
Q 180.991883 276.83427 181.676296 276.995405 
Q 182.360708 277.15654 182.84128 276.881221 
Q 183.323731 276.604739 183.473766 275.967475 
Q 183.624517 275.327169 183.318418 274.868244 
Q 183.013839 274.409677 182.323344 274.247109 
z
M 181.45961 273.613556 
Q 180.877926 273.316085 180.632224 272.811986 
Q 180.388401 272.306725 180.531633 271.698358 
Q 180.731798 270.848166 181.453499 270.496384 
Q 182.17672 270.144959 183.230715 270.393108 
Q 184.290793 270.642689 184.778221 271.279144 
Q 185.26565 271.915598 185.065484 272.765791 
Q 184.922252 273.374157 184.4771 273.717209 
Q 184.033827 274.059098 183.38509 274.066884 
Q 184.040672 274.391385 184.31598 274.953821 
Q 184.593167 275.515094 184.433464 276.193422 
Q 184.190329 277.226124 183.430687 277.629973 
Q 182.671404 278.0323 181.497256 277.755863 
Q 180.32463 277.479784 179.823074 276.78061 
Q 179.323397 276.080273 179.566533 275.047571 
Q 179.726236 274.369242 180.226237 273.990947 
Q 180.728116 273.61149 181.45961 273.613556 
z
M 181.465283 272.014487 
Q 181.335659 272.565058 181.606696 272.95473 
Q 181.879254 273.34476 182.501309 273.491214 
Q 183.120321 273.636952 183.541301 273.410206 
Q 183.963802 273.183818 184.093426 272.633246 
Q 184.223409 272.081154 183.946288 271.69005 
Q 183.670688 271.299304 183.051675 271.153566 
Q 182.429621 271.007112 182.011683 271.234574 
Q 181.595266 271.462394 181.465283 272.014487 
z
" clip-path="url(#p7dfa06b529)" style="fill: #aa2395; stroke: #ffffff; stroke-width: 5"/>
    <path d="M 182.323344 274.247109 
Q 181.638931 274.085974 181.160238 274.360131 
Q 180.683066 274.634645 180.532314 275.274951 
Q 180.381205 275.916777 180.685784 276.375344 
Q 180.991883 276.83427 181.676296 276.995405 
Q 182.360708 277.15654 182.84128 276.881221 
Q 183.323731 276.604739 183.473766 275.967475 
Q 183.624517 275.327169 183.318418 274.868244 
Q 183.013839 274.409677 182.323344 274.247109 
z
M 181.45961 273.613556 
Q 180.877926 273.316085 180.632224 272.811986 
Q 180.388401 272.306725 180.531633 271.698358 
Q 180.731798 270.848166 181.453499 270.496384 
Q 182.17672 270.144959 183.230715 270.393108 
Q 184.290793 270.642689 184.778221 271.279144 
Q 185.26565 271.915598 185.065484 272.765791 
Q 184.922252 273.374157 184.4771 273.717209 
Q 184.033827 274.059098 183.38509 274.066884 
Q 184.040672 274.391385 184.31598 274.953821 
Q 184.593167 275.515094 184.433464 276.193422 
Q 184.190329 277.226124 183.430687 277.629973 
Q 182.671404 278.0323 181.497256 277.755863 
Q 180.32463 277.479784 179.823074 276.78061 
Q 179.323397 276.080273 179.566533 275.047571 
Q 179.726236 274.369242 180.226237 273.990947 
Q 180.728116 273.61149 181.45961 273.613556 
z
M 181.465283 272.014487 
Q 181.335659 272.565058 181.606696 272.95473 
Q 181.879254 273.34476 182.501309 273.491214 
Q 183.120321 273.636952 183.541301 273.410206 
Q 183.963802 273.183818 184.093426 272.633246 
Q 184.223409 272.081154 183.946288 271.69005 
Q 183.670688 271.299304 183.051675 271.153566 
Q 182.429621 271.007112 182.011683 271.234574 
Q 181.595266 271.462394 181.465283 272.014487 
z
" clip-path="url(#p7dfa06b529)" style="fill: #aa2395"/>
   </g>
   <g id="text_18">
    <path d="M 216.892758 91.855544 
L 218.339372 92.564365 
L 220.786902 87.569267 
L 219.057915 87.113584 
L 219.453232 86.306792 
L 221.173801 86.75835 
L 222.059168 87.192167 
L 219.216321 92.994058 
L 220.662935 93.702879 
L 220.297868 94.447934 
L 216.527691 92.600599 
L 216.892758 91.855544 
z
M 225.868244 92.681216 
Q 225.271919 92.389025 224.722477 92.626142 
Q 224.175127 92.862544 223.827248 93.572522 
Q 223.481431 94.27829 223.627964 94.859905 
Q 223.776588 95.440805 224.372913 95.732996 
Q 224.969238 96.025187 225.517963 95.785979 
Q 226.067376 95.545368 226.413193 94.8396 
Q 226.761072 94.129622 226.612477 93.552216 
Q 226.464568 92.973407 225.868244 92.681216 
z
M 228.986929 90.765894 
L 228.591611 91.572687 
Q 228.33467 91.251911 228.035679 91.00275 
Q 227.737375 90.752186 227.403433 90.588559 
Q 226.526485 90.158866 225.773327 90.524104 
Q 225.021573 90.890029 224.369182 92.054575 
Q 224.814358 91.799429 225.304113 91.787104 
Q 225.795272 91.775467 226.263913 92.005095 
Q 227.250305 92.488413 227.52921 93.368048 
Q 227.808804 94.246279 227.304173 95.276167 
Q 226.809854 96.285009 225.914463 96.603174 
Q 225.01976 96.919936 224.029159 96.434555 
Q 222.892634 95.877673 222.718355 94.713487 
Q 222.544763 93.547897 223.354648 91.895025 
Q 224.115032 90.343177 225.304049 89.780868 
Q 226.493066 89.218558 227.733422 89.826316 
Q 228.067364 89.989943 228.374606 90.222266 
Q 228.681847 90.45459 228.986929 90.765894 
z
" clip-path="url(#p7dfa06b529)" style="fill: #cc4778; stroke: #ffffff; stroke-width: 5"/>
    <path d="M 216.892758 91.855544 
L 218.339372 92.564365 
L 220.786902 87.569267 
L 219.057915 87.113584 
L 219.453232 86.306792 
L 221.173801 86.75835 
L 222.059168 87.192167 
L 219.216321 92.994058 
L 220.662935 93.702879 
L 220.297868 94.447934 
L 216.527691 92.600599 
L 216.892758 91.855544 
z
M 225.868244 92.681216 
Q 225.271919 92.389025 224.722477 92.626142 
Q 224.175127 92.862544 223.827248 93.572522 
Q 223.481431 94.27829 223.627964 94.859905 
Q 223.776588 95.440805 224.372913 95.732996 
Q 224.969238 96.025187 225.517963 95.785979 
Q 226.067376 95.545368 226.413193 94.8396 
Q 226.761072 94.129622 226.612477 93.552216 
Q 226.464568 92.973407 225.868244 92.681216 
z
M 228.986929 90.765894 
L 228.591611 91.572687 
Q 228.33467 91.251911 228.035679 91.00275 
Q 227.737375 90.752186 227.403433 90.588559 
Q 226.526485 90.158866 225.773327 90.524104 
Q 225.021573 90.890029 224.369182 92.054575 
Q 224.814358 91.799429 225.304113 91.787104 
Q 225.795272 91.775467 226.263913 92.005095 
Q 227.250305 92.488413 227.52921 93.368048 
Q 227.808804 94.246279 227.304173 95.276167 
Q 226.809854 96.285009 225.914463 96.603174 
Q 225.01976 96.919936 224.029159 96.434555 
Q 222.892634 95.877673 222.718355 94.713487 
Q 222.544763 93.547897 223.354648 91.895025 
Q 224.115032 90.343177 225.304049 89.780868 
Q 226.493066 89.218558 227.733422 89.826316 
Q 228.067364 89.989943 228.374606 90.222266 
Q 228.681847 90.45459 228.986929 90.765894 
z
" clip-path="url(#p7dfa06b529)" style="fill: #cc4778"/>
   </g>
   <g id="text_19">
    <path d="M 260.288065 142.970375 
Q 260.985355 143.164687 261.352335 143.667614 
Q 261.720969 144.169076 261.678225 144.870901 
Q 261.612684 145.947032 260.835869 146.493005 
Q 260.059149 147.037419 258.69449 146.954305 
Q 258.237525 146.926474 257.757995 146.806475 
Q 257.278466 146.686477 256.773253 146.474122 
L 256.8311 145.524319 
Q 257.225185 145.787826 257.704375 145.939112 
Q 258.185124 146.090492 258.716951 146.122883 
Q 259.641799 146.17921 260.149065 145.843802 
Q 260.656331 145.508395 260.69879 144.811249 
Q 260.73802 144.16713 260.30933 143.777849 
Q 259.880734 143.387009 259.077535 143.33809 
L 258.229107 143.286417 
L 258.278405 142.47698 
L 259.165824 142.531027 
Q 259.891042 142.575196 260.293934 142.308571 
Q 260.696825 142.041945 260.73007 141.496081 
Q 260.764171 140.936181 260.384708 140.612514 
Q 260.006899 140.287383 259.266084 140.242264 
Q 258.860586 140.217567 258.391967 140.278254 
Q 257.923444 140.337381 257.357014 140.4876 
L 257.410397 139.611099 
Q 257.981355 139.489333 258.475822 139.441179 
Q 258.970289 139.393024 259.403861 139.41943 
Q 260.52522 139.487726 261.146077 140.037423 
Q 261.768587 140.585656 261.715775 141.452799 
Q 261.67892 142.057928 261.307325 142.453257 
Q 260.93573 142.848585 260.288065 142.970375 
z
M 264.314947 146.32294 
L 267.750768 146.532196 
L 267.70033 147.360349 
L 263.080765 147.078997 
L 263.131203 146.250845 
Q 263.726438 145.70477 264.752859 144.787346 
Q 265.780933 143.868457 266.046199 143.599711 
Q 266.551056 143.098225 266.760627 142.741556 
Q 266.971756 142.384981 266.993414 142.02939 
Q 267.028749 141.449215 266.643917 141.059474 
Q 266.259181 140.668174 265.605705 140.628375 
Q 265.1425 140.600164 264.618045 140.729458 
Q 264.09515 140.858847 263.490349 141.150745 
L 263.550951 140.155714 
Q 264.159695 139.953283 264.683335 139.863074 
Q 265.208535 139.772961 265.637427 139.799082 
Q 266.768145 139.867948 267.405856 140.475026 
Q 268.043663 141.080544 267.986101 142.025668 
Q 267.958744 142.474835 267.7658 142.866956 
Q 267.57451 143.257612 267.096776 143.776405 
Q 266.966482 143.91092 266.271876 144.546432 
Q 265.57883 145.182038 264.314947 146.32294 
z
" clip-path="url(#p7dfa06b529)" style="fill: #e66c5c; stroke: #ffffff; stroke-width: 5"/>
    <path d="M 260.288065 142.970375 
Q 260.985355 143.164687 261.352335 143.667614 
Q 261.720969 144.169076 261.678225 144.870901 
Q 261.612684 145.947032 260.835869 146.493005 
Q 260.059149 147.037419 258.69449 146.954305 
Q 258.237525 146.926474 257.757995 146.806475 
Q 257.278466 146.686477 256.773253 146.474122 
L 256.8311 145.524319 
Q 257.225185 145.787826 257.704375 145.939112 
Q 258.185124 146.090492 258.716951 146.122883 
Q 259.641799 146.17921 260.149065 145.843802 
Q 260.656331 145.508395 260.69879 144.811249 
Q 260.73802 144.16713 260.30933 143.777849 
Q 259.880734 143.387009 259.077535 143.33809 
L 258.229107 143.286417 
L 258.278405 142.47698 
L 259.165824 142.531027 
Q 259.891042 142.575196 260.293934 142.308571 
Q 260.696825 142.041945 260.73007 141.496081 
Q 260.764171 140.936181 260.384708 140.612514 
Q 260.006899 140.287383 259.266084 140.242264 
Q 258.860586 140.217567 258.391967 140.278254 
Q 257.923444 140.337381 257.357014 140.4876 
L 257.410397 139.611099 
Q 257.981355 139.489333 258.475822 139.441179 
Q 258.970289 139.393024 259.403861 139.41943 
Q 260.52522 139.487726 261.146077 140.037423 
Q 261.768587 140.585656 261.715775 141.452799 
Q 261.67892 142.057928 261.307325 142.453257 
Q 260.93573 142.848585 260.288065 142.970375 
z
M 264.314947 146.32294 
L 267.750768 146.532196 
L 267.70033 147.360349 
L 263.080765 147.078997 
L 263.131203 146.250845 
Q 263.726438 145.70477 264.752859 144.787346 
Q 265.780933 143.868457 266.046199 143.599711 
Q 266.551056 143.098225 266.760627 142.741556 
Q 266.971756 142.384981 266.993414 142.02939 
Q 267.028749 141.449215 266.643917 141.059474 
Q 266.259181 140.668174 265.605705 140.628375 
Q 265.1425 140.600164 264.618045 140.729458 
Q 264.09515 140.858847 263.490349 141.150745 
L 263.550951 140.155714 
Q 264.159695 139.953283 264.683335 139.863074 
Q 265.208535 139.772961 265.637427 139.799082 
Q 266.768145 139.867948 267.405856 140.475026 
Q 268.043663 141.080544 267.986101 142.025668 
Q 267.958744 142.474835 267.7658 142.866956 
Q 267.57451 143.257612 267.096776 143.776405 
Q 266.966482 143.91092 266.271876 144.546432 
Q 265.57883 145.182038 264.314947 146.32294 
z
" clip-path="url(#p7dfa06b529)" style="fill: #e66c5c"/>
   </g>
   <g id="text_20">
    <path d="M 299.565585 169.895811 
Q 298.902563 169.932972 298.539555 170.408719 
Q 298.178019 170.882819 298.222262 171.672205 
Q 298.266243 172.456911 298.678755 172.892321 
Q 299.09274 173.326085 299.755761 173.288924 
Q 300.418783 173.251763 300.780144 172.774543 
Q 301.141418 172.295764 301.097437 171.511058 
Q 301.053194 170.721672 300.640944 170.290941 
Q 300.228607 169.858651 299.565585 169.895811 
z
M 301.347291 166.69891 
L 301.397568 167.59594 
Q 301.016482 167.442024 300.633791 167.371141 
Q 300.251012 167.298698 299.87972 167.319508 
Q 298.904688 167.374156 298.42677 168.061352 
Q 297.950411 168.748461 297.951673 170.083295 
Q 298.214939 169.642872 298.635955 169.392357 
Q 299.058531 169.141755 299.579588 169.112551 
Q 300.676305 169.051082 301.350141 169.68155 
Q 302.023891 170.310457 302.08807 171.455535 
Q 302.150937 172.577212 301.525951 173.292995 
Q 300.900877 174.007219 299.79948 174.068949 
Q 298.535838 174.139774 297.813925 173.209965 
Q 297.091924 172.278596 296.988923 170.440855 
Q 296.892217 168.715438 297.653711 167.64302 
Q 298.415204 166.570601 299.79429 166.493307 
Q 300.165582 166.472496 300.547224 166.524659 
Q 300.928866 166.576822 301.347291 166.69891 
z
M 306.261342 167.123023 
L 303.992426 171.148486 
L 306.479148 171.009111 
L 306.261342 167.123023 
z
M 305.954283 166.279509 
L 307.192964 166.210084 
L 307.458861 170.9542 
L 308.497855 170.895967 
L 308.54376 171.714994 
L 307.504765 171.773228 
L 307.600947 173.489284 
L 306.621234 173.544195 
L 306.525053 171.828138 
L 303.239584 172.012281 
L 303.186335 171.06221 
L 305.954283 166.279509 
z
" clip-path="url(#p7dfa06b529)" style="fill: #f89540; stroke: #ffffff; stroke-width: 5"/>
    <path d="M 299.565585 169.895811 
Q 298.902563 169.932972 298.539555 170.408719 
Q 298.178019 170.882819 298.222262 171.672205 
Q 298.266243 172.456911 298.678755 172.892321 
Q 299.09274 173.326085 299.755761 173.288924 
Q 300.418783 173.251763 300.780144 172.774543 
Q 301.141418 172.295764 301.097437 171.511058 
Q 301.053194 170.721672 300.640944 170.290941 
Q 300.228607 169.858651 299.565585 169.895811 
z
M 301.347291 166.69891 
L 301.397568 167.59594 
Q 301.016482 167.442024 300.633791 167.371141 
Q 300.251012 167.298698 299.87972 167.319508 
Q 298.904688 167.374156 298.42677 168.061352 
Q 297.950411 168.748461 297.951673 170.083295 
Q 298.214939 169.642872 298.635955 169.392357 
Q 299.058531 169.141755 299.579588 169.112551 
Q 300.676305 169.051082 301.350141 169.68155 
Q 302.023891 170.310457 302.08807 171.455535 
Q 302.150937 172.577212 301.525951 173.292995 
Q 300.900877 174.007219 299.79948 174.068949 
Q 298.535838 174.139774 297.813925 173.209965 
Q 297.091924 172.278596 296.988923 170.440855 
Q 296.892217 168.715438 297.653711 167.64302 
Q 298.415204 166.570601 299.79429 166.493307 
Q 300.165582 166.472496 300.547224 166.524659 
Q 300.928866 166.576822 301.347291 166.69891 
z
M 306.261342 167.123023 
L 303.992426 171.148486 
L 306.479148 171.009111 
L 306.261342 167.123023 
z
M 305.954283 166.279509 
L 307.192964 166.210084 
L 307.458861 170.9542 
L 308.497855 170.895967 
L 308.54376 171.714994 
L 307.504765 171.773228 
L 307.600947 173.489284 
L 306.621234 173.544195 
L 306.525053 171.828138 
L 303.239584 172.012281 
L 303.186335 171.06221 
L 305.954283 166.279509 
z
" clip-path="url(#p7dfa06b529)" style="fill: #f89540"/>
   </g>
   <g id="text_21">
    <path d="M 337.686075 139.718123 
L 338.929676 138.694123 
L 335.393845 134.400022 
L 334.263952 135.785801 
L 333.692855 135.092232 
L 334.815511 133.712411 
L 335.576629 133.085695 
L 339.683556 138.073366 
L 340.927157 137.049365 
L 341.454552 137.689862 
L 338.21347 140.35862 
L 337.686075 139.718123 
z
M 343.121099 135.242839 
L 345.778375 133.054795 
L 346.30577 133.695291 
L 342.732982 136.637182 
L 342.205587 135.996686 
Q 342.269141 135.191414 342.39524 133.820537 
Q 342.521552 132.44746 342.532574 132.07001 
Q 342.560364 131.358956 342.470711 130.955105 
Q 342.382264 130.550262 342.155812 130.275246 
Q 341.786338 129.826537 341.239106 129.803512 
Q 340.690881 129.779281 340.18548 130.195437 
Q 339.827236 130.49042 339.531488 130.942419 
Q 339.236946 131.393425 338.993193 132.019183 
L 338.359524 131.249622 
Q 338.667128 130.686659 338.988913 130.263822 
Q 339.311903 129.839992 339.64361 129.566859 
Q 340.518111 128.846781 341.398523 128.85656 
Q 342.277941 128.865134 342.879827 129.596096 
Q 343.165871 129.943484 343.291849 130.361952 
Q 343.41804 130.778221 343.421895 131.483459 
Q 343.418193 131.670695 343.342852 132.609138 
Q 343.268717 133.546589 343.121099 135.242839 
z
M 347.331271 128.365619 
Q 346.788477 128.812564 346.716639 129.359508 
Q 346.646008 129.90546 347.064149 130.413273 
Q 347.483284 130.922293 348.032644 130.957734 
Q 348.583209 130.992182 349.126003 130.545237 
Q 349.668797 130.098292 349.740848 129.549148 
Q 349.813111 128.997805 349.396956 128.492403 
Q 348.978814 127.98459 348.428249 127.950142 
Q 347.878889 127.914701 347.331271 128.365619 
z
M 346.303973 128.669071 
Q 345.714931 128.951694 345.165009 128.841827 
Q 344.6153 128.729761 344.218016 128.247277 
Q 343.662811 127.573007 343.820088 126.785691 
Q 343.978572 125.997383 344.814474 125.309087 
Q 345.655201 124.616819 346.456859 124.614532 
Q 347.258518 124.612245 347.813723 125.286515 
Q 348.211007 125.768999 348.214304 126.33099 
Q 348.217813 126.890781 347.831032 127.411666 
Q 348.486344 127.08662 349.100616 127.208269 
Q 349.715101 127.327718 350.158073 127.865687 
Q 350.832464 128.684703 350.693629 129.533745 
Q 350.553801 130.381582 349.622609 131.148341 
Q 348.692622 131.914107 347.832503 131.889642 
Q 346.972597 131.862978 346.298207 131.043962 
Q 345.855235 130.505994 345.857122 129.879013 
Q 345.859222 129.249833 346.303973 128.669071 
z
M 345.035107 127.695913 
Q 345.39465 128.132561 345.868875 128.152955 
Q 346.344306 128.172357 346.837645 127.766133 
Q 347.328572 127.361896 347.403171 126.889591 
Q 347.478977 126.416292 347.119435 125.979645 
Q 346.758899 125.541791 346.27985 125.525369 
Q 345.802006 125.507955 345.31108 125.912191 
Q 344.81774 126.318415 344.745553 126.788734 
Q 344.674572 127.25806 345.035107 127.695913 
z
" clip-path="url(#p7dfa06b529)" style="fill: #fdc527; stroke: #ffffff; stroke-width: 5"/>
    <path d="M 337.686075 139.718123 
L 338.929676 138.694123 
L 335.393845 134.400022 
L 334.263952 135.785801 
L 333.692855 135.092232 
L 334.815511 133.712411 
L 335.576629 133.085695 
L 339.683556 138.073366 
L 340.927157 137.049365 
L 341.454552 137.689862 
L 338.21347 140.35862 
L 337.686075 139.718123 
z
M 343.121099 135.242839 
L 345.778375 133.054795 
L 346.30577 133.695291 
L 342.732982 136.637182 
L 342.205587 135.996686 
Q 342.269141 135.191414 342.39524 133.820537 
Q 342.521552 132.44746 342.532574 132.07001 
Q 342.560364 131.358956 342.470711 130.955105 
Q 342.382264 130.550262 342.155812 130.275246 
Q 341.786338 129.826537 341.239106 129.803512 
Q 340.690881 129.779281 340.18548 130.195437 
Q 339.827236 130.49042 339.531488 130.942419 
Q 339.236946 131.393425 338.993193 132.019183 
L 338.359524 131.249622 
Q 338.667128 130.686659 338.988913 130.263822 
Q 339.311903 129.839992 339.64361 129.566859 
Q 340.518111 128.846781 341.398523 128.85656 
Q 342.277941 128.865134 342.879827 129.596096 
Q 343.165871 129.943484 343.291849 130.361952 
Q 343.41804 130.778221 343.421895 131.483459 
Q 343.418193 131.670695 343.342852 132.609138 
Q 343.268717 133.546589 343.121099 135.242839 
z
M 347.331271 128.365619 
Q 346.788477 128.812564 346.716639 129.359508 
Q 346.646008 129.90546 347.064149 130.413273 
Q 347.483284 130.922293 348.032644 130.957734 
Q 348.583209 130.992182 349.126003 130.545237 
Q 349.668797 130.098292 349.740848 129.549148 
Q 349.813111 128.997805 349.396956 128.492403 
Q 348.978814 127.98459 348.428249 127.950142 
Q 347.878889 127.914701 347.331271 128.365619 
z
M 346.303973 128.669071 
Q 345.714931 128.951694 345.165009 128.841827 
Q 344.6153 128.729761 344.218016 128.247277 
Q 343.662811 127.573007 343.820088 126.785691 
Q 343.978572 125.997383 344.814474 125.309087 
Q 345.655201 124.616819 346.456859 124.614532 
Q 347.258518 124.612245 347.813723 125.286515 
Q 348.211007 125.768999 348.214304 126.33099 
Q 348.217813 126.890781 347.831032 127.411666 
Q 348.486344 127.08662 349.100616 127.208269 
Q 349.715101 127.327718 350.158073 127.865687 
Q 350.832464 128.684703 350.693629 129.533745 
Q 350.553801 130.381582 349.622609 131.148341 
Q 348.692622 131.914107 347.832503 131.889642 
Q 346.972597 131.862978 346.298207 131.043962 
Q 345.855235 130.505994 345.857122 129.879013 
Q 345.859222 129.249833 346.303973 128.669071 
z
M 345.035107 127.695913 
Q 345.39465 128.132561 345.868875 128.152955 
Q 346.344306 128.172357 346.837645 127.766133 
Q 347.328572 127.361896 347.403171 126.889591 
Q 347.478977 126.416292 347.119435 125.979645 
Q 346.758899 125.541791 346.27985 125.525369 
Q 345.802006 125.507955 345.31108 125.912191 
Q 344.81774 126.318415 344.745553 126.788734 
Q 344.674572 127.25806 345.035107 127.695913 
z
" clip-path="url(#p7dfa06b529)" style="fill: #fdc527"/>
   </g>
   <g id="patch_3">
    <path d="M 43.78125 301.735725 
L 43.78125 35.623725 
" style="fill: none; stroke: #cccccc; stroke-width: 0.8; stroke-linejoin: miter; stroke-linecap: square"/>
   </g>
   <g id="patch_4">
    <path d="M 400.90125 301.735725 
L 400.90125 35.623725 
" style="fill: none; stroke: #cccccc; stroke-width: 0.8; stroke-linejoin: miter; stroke-linecap: square"/>
   </g>
   <g id="patch_5">
    <path d="M 43.78125 301.735725 
L 400.90125 301.735725 
" style="fill: none; stroke: #cccccc; stroke-width: 0.8; stroke-linejoin: miter; stroke-linecap: square"/>
   </g>
   <g id="patch_6">
    <path d="M 43.78125 35.623725 
L 400.90125 35.623725 
" style="fill: none; stroke: #cccccc; stroke-width: 0.8; stroke-linejoin: miter; stroke-linecap: square"/>
   </g>
   <g id="text_22">
    <!-- Block Size = 2M, Read-Write Type = Random Write-heavy 1:4 -->
    <g style="fill: #262626; opacity: 0.75" transform="translate(68.96 30.882918) scale(0.1 -0.1)">
     <defs>
      <path id="DejaVuSans-6c" d="M 603 4863 
L 1178 4863 
L 1178 0 
L 603 0 
L 603 4863 
z
" transform="scale(0.015625)"/>
      <path id="DejaVuSans-63" d="M 3122 3366 
L 3122 2828 
Q 2878 2963 2633 3030 
Q 2388 3097 2138 3097 
Q 1578 3097 1268 2742 
Q 959 2388 959 1747 
Q 959 1106 1268 751 
Q 1578 397 2138 397 
Q 2388 397 2633 464 
Q 2878 531 3122 666 
L 3122 134 
Q 2881 22 2623 -34 
Q 2366 -91 2075 -91 
Q 1284 -91 818 406 
Q 353 903 353 1747 
Q 353 2603 823 3093 
Q 1294 3584 2113 3584 
Q 2378 3584 2631 3529 
Q 2884 3475 3122 3366 
z
" transform="scale(0.015625)"/>
      <path id="DejaVuSans-6b" d="M 581 4863 
L 1159 4863 
L 1159 1991 
L 2875 3500 
L 3609 3500 
L 1753 1863 
L 3688 0 
L 2938 0 
L 1159 1709 
L 1159 0 
L 581 0 
L 581 4863 
z
" transform="scale(0.015625)"/>
      <path id="DejaVuSans-53" d="M 3425 4513 
L 3425 3897 
Q 3066 4069 2747 4153 
Q 2428 4238 2131 4238 
Q 1616 4238 1336 4038 
Q 1056 3838 1056 3469 
Q 1056 3159 1242 3001 
Q 1428 2844 1947 2747 
L 2328 2669 
Q 3034 2534 3370 2195 
Q 3706 1856 3706 1288 
Q 3706 609 3251 259 
Q 2797 -91 1919 -91 
Q 1588 -91 1214 -16 
Q 841 59 441 206 
L 441 856 
Q 825 641 1194 531 
Q 1563 422 1919 422 
Q 2459 422 2753 634 
Q 3047 847 3047 1241 
Q 3047 1584 2836 1778 
Q 2625 1972 2144 2069 
L 1759 2144 
Q 1053 2284 737 2584 
Q 422 2884 422 3419 
Q 422 4038 858 4394 
Q 1294 4750 2059 4750 
Q 2388 4750 2728 4690 
Q 3069 4631 3425 4513 
z
" transform="scale(0.015625)"/>
      <path id="DejaVuSans-7a" d="M 353 3500 
L 3084 3500 
L 3084 2975 
L 922 459 
L 3084 459 
L 3084 0 
L 275 0 
L 275 525 
L 2438 3041 
L 353 3041 
L 353 3500 
z
" transform="scale(0.015625)"/>
      <path id="DejaVuSans-3d" d="M 678 2906 
L 4684 2906 
L 4684 2381 
L 678 2381 
L 678 2906 
z
M 678 1631 
L 4684 1631 
L 4684 1100 
L 678 1100 
L 678 1631 
z
" transform="scale(0.015625)"/>
      <path id="DejaVuSans-2c" d="M 750 794 
L 1409 794 
L 1409 256 
L 897 -744 
L 494 -744 
L 750 256 
L 750 794 
z
" transform="scale(0.015625)"/>
      <path id="DejaVuSans-52" d="M 2841 2188 
Q 3044 2119 3236 1894 
Q 3428 1669 3622 1275 
L 4263 0 
L 3584 0 
L 2988 1197 
Q 2756 1666 2539 1819 
Q 2322 1972 1947 1972 
L 1259 1972 
L 1259 0 
L 628 0 
L 628 4666 
L 2053 4666 
Q 2853 4666 3247 4331 
Q 3641 3997 3641 3322 
Q 3641 2881 3436 2590 
Q 3231 2300 2841 2188 
z
M 1259 4147 
L 1259 2491 
L 2053 2491 
Q 2509 2491 2742 2702 
Q 2975 2913 2975 3322 
Q 2975 3731 2742 3939 
Q 2509 4147 2053 4147 
L 1259 4147 
z
" transform="scale(0.015625)"/>
      <path id="DejaVuSans-2d" d="M 313 2009 
L 1997 2009 
L 1997 1497 
L 313 1497 
L 313 2009 
z
" transform="scale(0.015625)"/>
      <path id="DejaVuSans-57" d="M 213 4666 
L 850 4666 
L 1831 722 
L 2809 4666 
L 3519 4666 
L 4500 722 
L 5478 4666 
L 6119 4666 
L 4947 0 
L 4153 0 
L 3169 4050 
L 2175 0 
L 1381 0 
L 213 4666 
z
" transform="scale(0.015625)"/>
      <path id="DejaVuSans-54" d="M -19 4666 
L 3928 4666 
L 3928 4134 
L 2272 4134 
L 2272 0 
L 1638 0 
L 1638 4134 
L -19 4134 
L -19 4666 
z
" transform="scale(0.015625)"/>
      <path id="DejaVuSans-79" d="M 2059 -325 
Q 1816 -950 1584 -1140 
Q 1353 -1331 966 -1331 
L 506 -1331 
L 506 -850 
L 844 -850 
Q 1081 -850 1212 -737 
Q 1344 -625 1503 -206 
L 1606 56 
L 191 3500 
L 800 3500 
L 1894 763 
L 2988 3500 
L 3597 3500 
L 2059 -325 
z
" transform="scale(0.015625)"/>
      <path id="DejaVuSans-70" d="M 1159 525 
L 1159 -1331 
L 581 -1331 
L 581 3500 
L 1159 3500 
L 1159 2969 
Q 1341 3281 1617 3432 
Q 1894 3584 2278 3584 
Q 2916 3584 3314 3078 
Q 3713 2572 3713 1747 
Q 3713 922 3314 415 
Q 2916 -91 2278 -91 
Q 1894 -91 1617 61 
Q 1341 213 1159 525 
z
M 3116 1747 
Q 3116 2381 2855 2742 
Q 2594 3103 2138 3103 
Q 1681 3103 1420 2742 
Q 1159 2381 1159 1747 
Q 1159 1113 1420 752 
Q 1681 391 2138 391 
Q 2594 391 2855 752 
Q 3116 1113 3116 1747 
z
" transform="scale(0.015625)"/>
      <path id="DejaVuSans-76" d="M 191 3500 
L 800 3500 
L 1894 563 
L 2988 3500 
L 3597 3500 
L 2284 0 
L 1503 0 
L 191 3500 
z
" transform="scale(0.015625)"/>
      <path id="DejaVuSans-3a" d="M 750 794 
L 1409 794 
L 1409 0 
L 750 0 
L 750 794 
z
M 750 3309 
L 1409 3309 
L 1409 2516 
L 750 2516 
L 750 3309 
z
" transform="scale(0.015625)"/>
     </defs>
     <use xlink:href="#DejaVuSans-42"/>
     <use xlink:href="#DejaVuSans-6c" transform="translate(68.603516 0)"/>
     <use xlink:href="#DejaVuSans-6f" transform="translate(96.386719 0)"/>
     <use xlink:href="#DejaVuSans-63" transform="translate(157.568359 0)"/>
     <use xlink:href="#DejaVuSans-6b" transform="translate(212.548828 0)"/>
     <use xlink:href="#DejaVuSans-20" transform="translate(270.458984 0)"/>
     <use xlink:href="#DejaVuSans-53" transform="translate(302.246094 0)"/>
     <use xlink:href="#DejaVuSans-69" transform="translate(365.722656 0)"/>
     <use xlink:href="#DejaVuSans-7a" transform="translate(393.505859 0)"/>
     <use xlink:href="#DejaVuSans-65" transform="translate(445.996094 0)"/>
     <use xlink:href="#DejaVuSans-20" transform="translate(507.519531 0)"/>
     <use xlink:href="#DejaVuSans-3d" transform="translate(539.306641 0)"/>
     <use xlink:href="#DejaVuSans-20" transform="translate(623.095703 0)"/>
     <use xlink:href="#DejaVuSans-32" transform="translate(654.882812 0)"/>
     <use xlink:href="#DejaVuSans-4d" transform="translate(718.505859 0)"/>
     <use xlink:href="#DejaVuSans-2c" transform="translate(804.785156 0)"/>
     <use xlink:href="#DejaVuSans-20" transform="translate(836.572266 0)"/>
     <use xlink:href="#DejaVuSans-52" transform="translate(868.359375 0)"/>
     <use xlink:href="#DejaVuSans-65" transform="translate(933.341797 0)"/>
     <use xlink:href="#DejaVuSans-61" transform="translate(994.865234 0)"/>
     <use xlink:href="#DejaVuSans-64" transform="translate(1056.144531 0)"/>
     <use xlink:href="#DejaVuSans-2d" transform="translate(1119.621094 0)"/>
     <use xlink:href="#DejaVuSans-57" transform="translate(1151.705078 0)"/>
     <use xlink:href="#DejaVuSans-72" transform="translate(1246.082031 0)"/>
     <use xlink:href="#DejaVuSans-69" transform="translate(1287.195312 0)"/>
     <use xlink:href="#DejaVuSans-74" transform="translate(1314.978516 0)"/>
     <use xlink:href="#DejaVuSans-65" transform="translate(1354.1875 0)"/>
     <use xlink:href="#DejaVuSans-20" transform="translate(1415.710938 0)"/>
     <use xlink:href="#DejaVuSans-54" transform="translate(1447.498047 0)"/>
     <use xlink:href="#DejaVuSans-79" transform="translate(1492.957031 0)"/>
     <use xlink:href="#DejaVuSans-70" transform="translate(1552.136719 0)"/>
     <use xlink:href="#DejaVuSans-65" transform="translate(1615.613281 0)"/>
     <use xlink:href="#DejaVuSans-20" transform="translate(1677.136719 0)"/>
     <use xlink:href="#DejaVuSans-3d" transform="translate(1708.923828 0)"/>
     <use xlink:href="#DejaVuSans-20" transform="translate(1792.712891 0)"/>
     <use xlink:href="#DejaVuSans-52" transform="translate(1824.5 0)"/>
     <use xlink:href="#DejaVuSans-61" transform="translate(1891.732422 0)"/>
     <use xlink:href="#DejaVuSans-6e" transform="translate(1953.011719 0)"/>
     <use xlink:href="#DejaVuSans-64" transform="translate(2016.390625 0)"/>
     <use xlink:href="#DejaVuSans-6f" transform="translate(2079.867188 0)"/>
     <use xlink:href="#DejaVuSans-6d" transform="translate(2141.048828 0)"/>
     <use xlink:href="#DejaVuSans-20" transform="translate(2238.460938 0)"/>
     <use xlink:href="#DejaVuSans-57" transform="translate(2270.248047 0)"/>
     <use xlink:href="#DejaVuSans-72" transform="translate(2364.625 0)"/>
     <use xlink:href="#DejaVuSans-69" transform="translate(2405.738281 0)"/>
     <use xlink:href="#DejaVuSans-74" transform="translate(2433.521484 0)"/>
     <use xlink:href="#DejaVuSans-65" transform="translate(2472.730469 0)"/>
     <use xlink:href="#DejaVuSans-2d" transform="translate(2534.253906 0)"/>
     <use xlink:href="#DejaVuSans-68" transform="translate(2570.337891 0)"/>
     <use xlink:href="#DejaVuSans-65" transform="translate(2633.716797 0)"/>
     <use xlink:href="#DejaVuSans-61" transform="translate(2695.240234 0)"/>
     <use xlink:href="#DejaVuSans-76" transform="translate(2756.519531 0)"/>
     <use xlink:href="#DejaVuSans-79" transform="translate(2815.699219 0)"/>
     <use xlink:href="#DejaVuSans-20" transform="translate(2874.878906 0)"/>
     <use xlink:href="#DejaVuSans-31" transform="translate(2906.666016 0)"/>
     <use xlink:href="#DejaVuSans-3a" transform="translate(2970.289062 0)"/>
     <use xlink:href="#DejaVuSans-34" transform="translate(3003.980469 0)"/>
    </g>
   </g>
   <g id="text_23">
    <!-- Mean Bandwidth vs Number of Jobs -->
    <g style="fill: #262626" transform="translate(102.012188 16.318125) scale(0.12 -0.12)">
     <defs>
      <path id="DejaVuSans-Bold-4d" d="M 588 4666 
L 2119 4666 
L 3181 2169 
L 4250 4666 
L 5778 4666 
L 5778 0 
L 4641 0 
L 4641 3413 
L 3566 897 
L 2803 897 
L 1728 3413 
L 1728 0 
L 588 0 
L 588 4666 
z
" transform="scale(0.015625)"/>
      <path id="DejaVuSans-Bold-65" d="M 4031 1759 
L 4031 1441 
L 1416 1441 
Q 1456 1047 1700 850 
Q 1944 653 2381 653 
Q 2734 653 3104 758 
Q 3475 863 3866 1075 
L 3866 213 
Q 3469 63 3072 -14 
Q 2675 -91 2278 -91 
Q 1328 -91 801 392 
Q 275 875 275 1747 
Q 275 2603 792 3093 
Q 1309 3584 2216 3584 
Q 3041 3584 3536 3087 
Q 4031 2591 4031 1759 
z
M 2881 2131 
Q 2881 2450 2695 2645 
Q 2509 2841 2209 2841 
Q 1884 2841 1681 2658 
Q 1478 2475 1428 2131 
L 2881 2131 
z
" transform="scale(0.015625)"/>
      <path id="DejaVuSans-Bold-61" d="M 2106 1575 
Q 1756 1575 1579 1456 
Q 1403 1338 1403 1106 
Q 1403 894 1545 773 
Q 1688 653 1941 653 
Q 2256 653 2472 879 
Q 2688 1106 2688 1447 
L 2688 1575 
L 2106 1575 
z
M 3816 1997 
L 3816 0 
L 2688 0 
L 2688 519 
Q 2463 200 2181 54 
Q 1900 -91 1497 -91 
Q 953 -91 614 226 
Q 275 544 275 1050 
Q 275 1666 698 1953 
Q 1122 2241 2028 2241 
L 2688 2241 
L 2688 2328 
Q 2688 2594 2478 2717 
Q 2269 2841 1825 2841 
Q 1466 2841 1156 2769 
Q 847 2697 581 2553 
L 581 3406 
Q 941 3494 1303 3539 
Q 1666 3584 2028 3584 
Q 2975 3584 3395 3211 
Q 3816 2838 3816 1997 
z
" transform="scale(0.015625)"/>
      <path id="DejaVuSans-Bold-6e" d="M 4056 2131 
L 4056 0 
L 2931 0 
L 2931 347 
L 2931 1631 
Q 2931 2084 2911 2256 
Q 2891 2428 2841 2509 
Q 2775 2619 2662 2680 
Q 2550 2741 2406 2741 
Q 2056 2741 1856 2470 
Q 1656 2200 1656 1722 
L 1656 0 
L 538 0 
L 538 3500 
L 1656 3500 
L 1656 2988 
Q 1909 3294 2193 3439 
Q 2478 3584 2822 3584 
Q 3428 3584 3742 3212 
Q 4056 2841 4056 2131 
z
" transform="scale(0.015625)"/>
      <path id="DejaVuSans-Bold-20" transform="scale(0.015625)"/>
      <path id="DejaVuSans-Bold-42" d="M 2456 2859 
Q 2741 2859 2887 2984 
Q 3034 3109 3034 3353 
Q 3034 3594 2887 3720 
Q 2741 3847 2456 3847 
L 1791 3847 
L 1791 2859 
L 2456 2859 
z
M 2497 819 
Q 2859 819 3042 972 
Q 3225 1125 3225 1434 
Q 3225 1738 3044 1889 
Q 2863 2041 2497 2041 
L 1791 2041 
L 1791 819 
L 2497 819 
z
M 3616 2497 
Q 4003 2384 4215 2081 
Q 4428 1778 4428 1338 
Q 4428 663 3972 331 
Q 3516 0 2584 0 
L 588 0 
L 588 4666 
L 2394 4666 
Q 3366 4666 3802 4372 
Q 4238 4078 4238 3431 
Q 4238 3091 4078 2852 
Q 3919 2613 3616 2497 
z
" transform="scale(0.015625)"/>
      <path id="DejaVuSans-Bold-64" d="M 2919 2988 
L 2919 4863 
L 4044 4863 
L 4044 0 
L 2919 0 
L 2919 506 
Q 2688 197 2409 53 
Q 2131 -91 1766 -91 
Q 1119 -91 703 423 
Q 288 938 288 1747 
Q 288 2556 703 3070 
Q 1119 3584 1766 3584 
Q 2128 3584 2408 3439 
Q 2688 3294 2919 2988 
z
M 2181 722 
Q 2541 722 2730 984 
Q 2919 1247 2919 1747 
Q 2919 2247 2730 2509 
Q 2541 2772 2181 2772 
Q 1825 2772 1636 2509 
Q 1447 2247 1447 1747 
Q 1447 1247 1636 984 
Q 1825 722 2181 722 
z
" transform="scale(0.015625)"/>
      <path id="DejaVuSans-Bold-77" d="M 225 3500 
L 1313 3500 
L 1900 1088 
L 2491 3500 
L 3425 3500 
L 4013 1113 
L 4603 3500 
L 5691 3500 
L 4769 0 
L 3547 0 
L 2956 2406 
L 2369 0 
L 1147 0 
L 225 3500 
z
" transform="scale(0.015625)"/>
      <path id="DejaVuSans-Bold-69" d="M 538 3500 
L 1656 3500 
L 1656 0 
L 538 0 
L 538 3500 
z
M 538 4863 
L 1656 4863 
L 1656 3950 
L 538 3950 
L 538 4863 
z
" transform="scale(0.015625)"/>
      <path id="DejaVuSans-Bold-74" d="M 1759 4494 
L 1759 3500 
L 2913 3500 
L 2913 2700 
L 1759 2700 
L 1759 1216 
Q 1759 972 1856 886 
Q 1953 800 2241 800 
L 2816 800 
L 2816 0 
L 1856 0 
Q 1194 0 917 276 
Q 641 553 641 1216 
L 641 2700 
L 84 2700 
L 84 3500 
L 641 3500 
L 641 4494 
L 1759 4494 
z
" transform="scale(0.015625)"/>
      <path id="DejaVuSans-Bold-68" d="M 4056 2131 
L 4056 0 
L 2931 0 
L 2931 347 
L 2931 1625 
Q 2931 2084 2911 2256 
Q 2891 2428 2841 2509 
Q 2775 2619 2662 2680 
Q 2550 2741 2406 2741 
Q 2056 2741 1856 2470 
Q 1656 2200 1656 1722 
L 1656 0 
L 538 0 
L 538 4863 
L 1656 4863 
L 1656 2988 
Q 1909 3294 2193 3439 
Q 2478 3584 2822 3584 
Q 3428 3584 3742 3212 
Q 4056 2841 4056 2131 
z
" transform="scale(0.015625)"/>
      <path id="DejaVuSans-Bold-76" d="M 97 3500 
L 1216 3500 
L 2088 1081 
L 2956 3500 
L 4078 3500 
L 2700 0 
L 1472 0 
L 97 3500 
z
" transform="scale(0.015625)"/>
      <path id="DejaVuSans-Bold-73" d="M 3272 3391 
L 3272 2541 
Q 2913 2691 2578 2766 
Q 2244 2841 1947 2841 
Q 1628 2841 1473 2761 
Q 1319 2681 1319 2516 
Q 1319 2381 1436 2309 
Q 1553 2238 1856 2203 
L 2053 2175 
Q 2913 2066 3209 1816 
Q 3506 1566 3506 1031 
Q 3506 472 3093 190 
Q 2681 -91 1863 -91 
Q 1516 -91 1145 -36 
Q 775 19 384 128 
L 384 978 
Q 719 816 1070 734 
Q 1422 653 1784 653 
Q 2113 653 2278 743 
Q 2444 834 2444 1013 
Q 2444 1163 2330 1236 
Q 2216 1309 1875 1350 
L 1678 1375 
Q 931 1469 631 1722 
Q 331 1975 331 2491 
Q 331 3047 712 3315 
Q 1094 3584 1881 3584 
Q 2191 3584 2531 3537 
Q 2872 3491 3272 3391 
z
" transform="scale(0.015625)"/>
      <path id="DejaVuSans-Bold-4e" d="M 588 4666 
L 1931 4666 
L 3628 1466 
L 3628 4666 
L 4769 4666 
L 4769 0 
L 3425 0 
L 1728 3200 
L 1728 0 
L 588 0 
L 588 4666 
z
" transform="scale(0.015625)"/>
      <path id="DejaVuSans-Bold-75" d="M 500 1363 
L 500 3500 
L 1625 3500 
L 1625 3150 
Q 1625 2866 1622 2436 
Q 1619 2006 1619 1863 
Q 1619 1441 1641 1255 
Q 1663 1069 1716 984 
Q 1784 875 1895 815 
Q 2006 756 2150 756 
Q 2500 756 2700 1025 
Q 2900 1294 2900 1772 
L 2900 3500 
L 4019 3500 
L 4019 0 
L 2900 0 
L 2900 506 
Q 2647 200 2364 54 
Q 2081 -91 1741 -91 
Q 1134 -91 817 281 
Q 500 653 500 1363 
z
" transform="scale(0.015625)"/>
      <path id="DejaVuSans-Bold-6d" d="M 3781 2919 
Q 3994 3244 4286 3414 
Q 4578 3584 4928 3584 
Q 5531 3584 5847 3212 
Q 6163 2841 6163 2131 
L 6163 0 
L 5038 0 
L 5038 1825 
Q 5041 1866 5042 1909 
Q 5044 1953 5044 2034 
Q 5044 2406 4934 2573 
Q 4825 2741 4581 2741 
Q 4263 2741 4089 2478 
Q 3916 2216 3909 1719 
L 3909 0 
L 2784 0 
L 2784 1825 
Q 2784 2406 2684 2573 
Q 2584 2741 2328 2741 
Q 2006 2741 1831 2477 
Q 1656 2213 1656 1722 
L 1656 0 
L 531 0 
L 531 3500 
L 1656 3500 
L 1656 2988 
Q 1863 3284 2130 3434 
Q 2397 3584 2719 3584 
Q 3081 3584 3359 3409 
Q 3638 3234 3781 2919 
z
" transform="scale(0.015625)"/>
      <path id="DejaVuSans-Bold-62" d="M 2400 722 
Q 2759 722 2948 984 
Q 3138 1247 3138 1747 
Q 3138 2247 2948 2509 
Q 2759 2772 2400 2772 
Q 2041 2772 1848 2508 
Q 1656 2244 1656 1747 
Q 1656 1250 1848 986 
Q 2041 722 2400 722 
z
M 1656 2988 
Q 1888 3294 2169 3439 
Q 2450 3584 2816 3584 
Q 3463 3584 3878 3070 
Q 4294 2556 4294 1747 
Q 4294 938 3878 423 
Q 3463 -91 2816 -91 
Q 2450 -91 2169 54 
Q 1888 200 1656 506 
L 1656 0 
L 538 0 
L 538 4863 
L 1656 4863 
L 1656 2988 
z
" transform="scale(0.015625)"/>
      <path id="DejaVuSans-Bold-72" d="M 3138 2547 
Q 2991 2616 2845 2648 
Q 2700 2681 2553 2681 
Q 2122 2681 1889 2404 
Q 1656 2128 1656 1613 
L 1656 0 
L 538 0 
L 538 3500 
L 1656 3500 
L 1656 2925 
Q 1872 3269 2151 3426 
Q 2431 3584 2822 3584 
Q 2878 3584 2943 3579 
Q 3009 3575 3134 3559 
L 3138 2547 
z
" transform="scale(0.015625)"/>
      <path id="DejaVuSans-Bold-6f" d="M 2203 2784 
Q 1831 2784 1636 2517 
Q 1441 2250 1441 1747 
Q 1441 1244 1636 976 
Q 1831 709 2203 709 
Q 2569 709 2762 976 
Q 2956 1244 2956 1747 
Q 2956 2250 2762 2517 
Q 2569 2784 2203 2784 
z
M 2203 3584 
Q 3106 3584 3614 3096 
Q 4122 2609 4122 1747 
Q 4122 884 3614 396 
Q 3106 -91 2203 -91 
Q 1297 -91 786 396 
Q 275 884 275 1747 
Q 275 2609 786 3096 
Q 1297 3584 2203 3584 
z
" transform="scale(0.015625)"/>
      <path id="DejaVuSans-Bold-66" d="M 2841 4863 
L 2841 4128 
L 2222 4128 
Q 1984 4128 1890 4042 
Q 1797 3956 1797 3744 
L 1797 3500 
L 2753 3500 
L 2753 2700 
L 1797 2700 
L 1797 0 
L 678 0 
L 678 2700 
L 122 2700 
L 122 3500 
L 678 3500 
L 678 3744 
Q 678 4316 997 4589 
Q 1316 4863 1984 4863 
L 2841 4863 
z
" transform="scale(0.015625)"/>
      <path id="DejaVuSans-Bold-4a" d="M 588 4666 
L 1791 4666 
L 1791 453 
Q 1791 -419 1317 -850 
Q 844 -1281 -116 -1281 
L -359 -1281 
L -359 -372 
L -172 -372 
Q 203 -372 395 -162 
Q 588 47 588 453 
L 588 4666 
z
" transform="scale(0.015625)"/>
     </defs>
     <use xlink:href="#DejaVuSans-Bold-4d"/>
     <use xlink:href="#DejaVuSans-Bold-65" transform="translate(99.511719 0)"/>
     <use xlink:href="#DejaVuSans-Bold-61" transform="translate(167.333984 0)"/>
     <use xlink:href="#DejaVuSans-Bold-6e" transform="translate(234.814453 0)"/>
     <use xlink:href="#DejaVuSans-Bold-20" transform="translate(306.005859 0)"/>
     <use xlink:href="#DejaVuSans-Bold-42" transform="translate(340.820312 0)"/>
     <use xlink:href="#DejaVuSans-Bold-61" transform="translate(417.041016 0)"/>
     <use xlink:href="#DejaVuSans-Bold-6e" transform="translate(484.521484 0)"/>
     <use xlink:href="#DejaVuSans-Bold-64" transform="translate(555.712891 0)"/>
     <use xlink:href="#DejaVuSans-Bold-77" transform="translate(627.294922 0)"/>
     <use xlink:href="#DejaVuSans-Bold-69" transform="translate(719.677734 0)"/>
     <use xlink:href="#DejaVuSans-Bold-64" transform="translate(753.955078 0)"/>
     <use xlink:href="#DejaVuSans-Bold-74" transform="translate(825.537109 0)"/>
     <use xlink:href="#DejaVuSans-Bold-68" transform="translate(873.339844 0)"/>
     <use xlink:href="#DejaVuSans-Bold-20" transform="translate(944.53125 0)"/>
     <use xlink:href="#DejaVuSans-Bold-76" transform="translate(979.345703 0)"/>
     <use xlink:href="#DejaVuSans-Bold-73" transform="translate(1044.53125 0)"/>
     <use xlink:href="#DejaVuSans-Bold-20" transform="translate(1104.052734 0)"/>
     <use xlink:href="#DejaVuSans-Bold-4e" transform="translate(1138.867188 0)"/>
     <use xlink:href="#DejaVuSans-Bold-75" transform="translate(1222.558594 0)"/>
     <use xlink:href="#DejaVuSans-Bold-6d" transform="translate(1293.75 0)"/>
     <use xlink:href="#DejaVuSans-Bold-62" transform="translate(1397.949219 0)"/>
     <use xlink:href="#DejaVuSans-Bold-65" transform="translate(1469.53125 0)"/>
     <use xlink:href="#DejaVuSans-Bold-72" transform="translate(1537.353516 0)"/>
     <use xlink:href="#DejaVuSans-Bold-20" transform="translate(1586.669922 0)"/>
     <use xlink:href="#DejaVuSans-Bold-6f" transform="translate(1621.484375 0)"/>
     <use xlink:href="#DejaVuSans-Bold-66" transform="translate(1690.185547 0)"/>
     <use xlink:href="#DejaVuSans-Bold-20" transform="translate(1733.691406 0)"/>
     <use xlink:href="#DejaVuSans-Bold-4a" transform="translate(1768.505859 0)"/>
     <use xlink:href="#DejaVuSans-Bold-6f" transform="translate(1805.712891 0)"/>
     <use xlink:href="#DejaVuSans-Bold-62" transform="translate(1874.414062 0)"/>
     <use xlink:href="#DejaVuSans-Bold-73" transform="translate(1945.996094 0)"/>
    </g>
   </g>
   <g id="legend_1">
    <g id="text_24">
     <!-- IO Depth -->
     <g style="fill: #262626" transform="translate(435.407813 120.065663) scale(0.1 -0.1)">
      <defs>
       <path id="DejaVuSans-49" d="M 628 4666 
L 1259 4666 
L 1259 0 
L 628 0 
L 628 4666 
z
" transform="scale(0.015625)"/>
       <path id="DejaVuSans-4f" d="M 2522 4238 
Q 1834 4238 1429 3725 
Q 1025 3213 1025 2328 
Q 1025 1447 1429 934 
Q 1834 422 2522 422 
Q 3209 422 3611 934 
Q 4013 1447 4013 2328 
Q 4013 3213 3611 3725 
Q 3209 4238 2522 4238 
z
M 2522 4750 
Q 3503 4750 4090 4092 
Q 4678 3434 4678 2328 
Q 4678 1225 4090 567 
Q 3503 -91 2522 -91 
Q 1538 -91 948 565 
Q 359 1222 359 2328 
Q 359 3434 948 4092 
Q 1538 4750 2522 4750 
z
" transform="scale(0.015625)"/>
       <path id="DejaVuSans-44" d="M 1259 4147 
L 1259 519 
L 2022 519 
Q 2988 519 3436 956 
Q 3884 1394 3884 2338 
Q 3884 3275 3436 3711 
Q 2988 4147 2022 4147 
L 1259 4147 
z
M 628 4666 
L 1925 4666 
Q 3281 4666 3915 4102 
Q 4550 3538 4550 2338 
Q 4550 1131 3912 565 
Q 3275 0 1925 0 
L 628 0 
L 628 4666 
z
" transform="scale(0.015625)"/>
      </defs>
      <use xlink:href="#DejaVuSans-49"/>
      <use xlink:href="#DejaVuSans-4f" transform="translate(29.492188 0)"/>
      <use xlink:href="#DejaVuSans-20" transform="translate(108.203125 0)"/>
      <use xlink:href="#DejaVuSans-44" transform="translate(139.990234 0)"/>
      <use xlink:href="#DejaVuSans-65" transform="translate(216.992188 0)"/>
      <use xlink:href="#DejaVuSans-70" transform="translate(278.515625 0)"/>
      <use xlink:href="#DejaVuSans-74" transform="translate(341.992188 0)"/>
      <use xlink:href="#DejaVuSans-68" transform="translate(381.201172 0)"/>
     </g>
    </g>
    <g id="line2d_27">
     <path d="M 434.09375 131.243787 
L 444.09375 131.243787 
L 454.09375 131.243787 
" style="fill: none; stroke: #4c02a1; stroke-width: 1.5; stroke-linecap: round"/>
    </g>
    <g id="text_25">
     <!-- 1 -->
     <g style="fill: #262626" transform="translate(462.09375 134.743787) scale(0.1 -0.1)">
      <use xlink:href="#DejaVuSans-31"/>
     </g>
    </g>
    <g id="line2d_28">
     <path d="M 434.09375 145.921913 
L 444.09375 145.921913 
L 454.09375 145.921913 
" style="fill: none; stroke: #7e03a8; stroke-width: 1.5; stroke-linecap: round"/>
    </g>
    <g id="text_26">
     <!-- 4 -->
     <g style="fill: #262626" transform="translate(462.09375 149.421913) scale(0.1 -0.1)">
      <use xlink:href="#DejaVuSans-34"/>
     </g>
    </g>
    <g id="line2d_29">
     <path d="M 434.09375 160.600037 
L 444.09375 160.600037 
L 454.09375 160.600037 
" style="fill: none; stroke: #aa2395; stroke-width: 1.5; stroke-linecap: round"/>
    </g>
    <g id="text_27">
     <!-- 8 -->
     <g style="fill: #262626" transform="translate(462.09375 164.100037) scale(0.1 -0.1)">
      <use xlink:href="#DejaVuSans-38"/>
     </g>
    </g>
    <g id="line2d_30">
     <path d="M 434.09375 175.278163 
L 444.09375 175.278163 
L 454.09375 175.278163 
" style="fill: none; stroke: #cc4778; stroke-width: 1.5; stroke-linecap: round"/>
    </g>
    <g id="text_28">
     <!-- 16 -->
     <g style="fill: #262626" transform="translate(462.09375 178.778163) scale(0.1 -0.1)">
      <use xlink:href="#DejaVuSans-31"/>
      <use xlink:href="#DejaVuSans-36" transform="translate(63.623047 0)"/>
     </g>
    </g>
    <g id="line2d_31">
     <path d="M 434.09375 189.956288 
L 444.09375 189.956288 
L 454.09375 189.956288 
" style="fill: none; stroke: #e66c5c; stroke-width: 1.5; stroke-linecap: round"/>
    </g>
    <g id="text_29">
     <!-- 32 -->
     <g style="fill: #262626" transform="translate(462.09375 193.456288) scale(0.1 -0.1)">
      <use xlink:href="#DejaVuSans-33"/>
      <use xlink:href="#DejaVuSans-32" transform="translate(63.623047 0)"/>
     </g>
    </g>
    <g id="line2d_32">
     <path d="M 434.09375 204.634412 
L 444.09375 204.634412 
L 454.09375 204.634412 
" style="fill: none; stroke: #f89540; stroke-width: 1.5; stroke-linecap: round"/>
    </g>
    <g id="text_30">
     <!-- 64 -->
     <g style="fill: #262626" transform="translate(462.09375 208.134412) scale(0.1 -0.1)">
      <use xlink:href="#DejaVuSans-36"/>
      <use xlink:href="#DejaVuSans-34" transform="translate(63.623047 0)"/>
     </g>
    </g>
    <g id="line2d_33">
     <path d="M 434.09375 219.312537 
L 444.09375 219.312537 
L 454.09375 219.312537 
" style="fill: none; stroke: #fdc527; stroke-width: 1.5; stroke-linecap: round"/>
    </g>
    <g id="text_31">
     <!-- 128 -->
     <g style="fill: #262626" transform="translate(462.09375 222.812537) scale(0.1 -0.1)">
      <use xlink:href="#DejaVuSans-31"/>
      <use xlink:href="#DejaVuSans-32" transform="translate(63.623047 0)"/>
      <use xlink:href="#DejaVuSans-38" transform="translate(127.246094 0)"/>
     </g>
    </g>
   </g>
  </g>
 </g>
 <defs>
  <clipPath id="p7dfa06b529">
   <rect x="43.78125" y="35.623725" width="357.12" height="266.112"/>
  </clipPath>
 </defs>
</svg>
