<?xml version="1.0" encoding="utf-8" standalone="no"?>
<!DOCTYPE svg PUBLIC "-//W3C//DTD SVG 1.1//EN"
  "http://www.w3.org/Graphics/SVG/1.1/DTD/svg11.dtd">
<svg xmlns:xlink="http://www.w3.org/1999/xlink" width="492.38125pt" height="339.291975pt" viewBox="0 0 492.38125 339.291975" xmlns="http://www.w3.org/2000/svg" version="1.1">
 <metadata>
  <rdf:RDF xmlns:dc="http://purl.org/dc/elements/1.1/" xmlns:cc="http://creativecommons.org/ns#" xmlns:rdf="http://www.w3.org/1999/02/22-rdf-syntax-ns#">
   <cc:Work>
    <dc:type rdf:resource="http://purl.org/dc/dcmitype/StillImage"/>
    <dc:date>2025-09-10T17:53:56.110476</dc:date>
    <dc:format>image/svg+xml</dc:format>
    <dc:creator>
     <cc:Agent>
      <dc:title>Matplotlib v3.10.6, https://matplotlib.org/</dc:title>
     </cc:Agent>
    </dc:creator>
   </cc:Work>
  </rdf:RDF>
 </metadata>
 <defs>
  <style type="text/css">*{stroke-linejoin: round; stroke-linecap: butt}</style>
 </defs>
 <g id="figure_1">
  <g id="patch_1">
   <path d="M 0 339.291975 
L 492.38125 339.291975 
L 492.38125 0 
L 0 0 
z
" style="fill: #ffffff"/>
  </g>
  <g id="axes_1">
   <g id="patch_2">
    <path d="M 43.78125 301.735725 
L 400.90125 301.735725 
L 400.90125 35.623725 
L 43.78125 35.623725 
z
" style="fill: #ffffff"/>
   </g>
   <g id="matplotlib.axis_1">
    <g id="xtick_1">
     <g id="line2d_1">
      <path d="M 106.393198 301.735725 
L 106.393198 35.623725 
" clip-path="url(#p77d1d099bf)" style="fill: none; stroke: #cccccc; stroke-width: 0.8; stroke-linecap: round"/>
     </g>
     <g id="text_1">
      <!-- 32 -->
      <g style="fill: #262626" transform="translate(100.030698 316.334162) scale(0.1 -0.1)">
       <defs>
        <path id="DejaVuSans-33" d="M 2597 2516 
Q 3050 2419 3304 2112 
Q 3559 1806 3559 1356 
Q 3559 666 3084 287 
Q 2609 -91 1734 -91 
Q 1441 -91 1130 -33 
Q 819 25 488 141 
L 488 750 
Q 750 597 1062 519 
Q 1375 441 1716 441 
Q 2309 441 2620 675 
Q 2931 909 2931 1356 
Q 2931 1769 2642 2001 
Q 2353 2234 1838 2234 
L 1294 2234 
L 1294 2753 
L 1863 2753 
Q 2328 2753 2575 2939 
Q 2822 3125 2822 3475 
Q 2822 3834 2567 4026 
Q 2313 4219 1838 4219 
Q 1578 4219 1281 4162 
Q 984 4106 628 3988 
L 628 4550 
Q 988 4650 1302 4700 
Q 1616 4750 1894 4750 
Q 2613 4750 3031 4423 
Q 3450 4097 3450 3541 
Q 3450 3153 3228 2886 
Q 3006 2619 2597 2516 
z
" transform="scale(0.015625)"/>
        <path id="DejaVuSans-32" d="M 1228 531 
L 3431 531 
L 3431 0 
L 469 0 
L 469 531 
Q 828 903 1448 1529 
Q 2069 2156 2228 2338 
Q 2531 2678 2651 2914 
Q 2772 3150 2772 3378 
Q 2772 3750 2511 3984 
Q 2250 4219 1831 4219 
Q 1534 4219 1204 4116 
Q 875 4013 500 3803 
L 500 4441 
Q 881 4594 1212 4672 
Q 1544 4750 1819 4750 
Q 2544 4750 2975 4387 
Q 3406 4025 3406 3419 
Q 3406 3131 3298 2873 
Q 3191 2616 2906 2266 
Q 2828 2175 2409 1742 
Q 1991 1309 1228 531 
z
" transform="scale(0.015625)"/>
       </defs>
       <use xlink:href="#DejaVuSans-33"/>
       <use xlink:href="#DejaVuSans-32" transform="translate(63.623047 0)"/>
      </g>
     </g>
    </g>
    <g id="xtick_2">
     <g id="line2d_2">
      <path d="M 60.013977 301.735725 
L 60.013977 35.623725 
" clip-path="url(#p77d1d099bf)" style="fill: none; stroke: #cccccc; stroke-width: 0.8; stroke-linecap: round"/>
     </g>
     <g id="text_2">
      <!-- 16 -->
      <g style="fill: #262626" transform="translate(53.651477 316.334162) scale(0.1 -0.1)">
       <defs>
        <path id="DejaVuSans-31" d="M 794 531 
L 1825 531 
L 1825 4091 
L 703 3866 
L 703 4441 
L 1819 4666 
L 2450 4666 
L 2450 531 
L 3481 531 
L 3481 0 
L 794 0 
L 794 531 
z
" transform="scale(0.015625)"/>
        <path id="DejaVuSans-36" d="M 2113 2584 
Q 1688 2584 1439 2293 
Q 1191 2003 1191 1497 
Q 1191 994 1439 701 
Q 1688 409 2113 409 
Q 2538 409 2786 701 
Q 3034 994 3034 1497 
Q 3034 2003 2786 2293 
Q 2538 2584 2113 2584 
z
M 3366 4563 
L 3366 3988 
Q 3128 4100 2886 4159 
Q 2644 4219 2406 4219 
Q 1781 4219 1451 3797 
Q 1122 3375 1075 2522 
Q 1259 2794 1537 2939 
Q 1816 3084 2150 3084 
Q 2853 3084 3261 2657 
Q 3669 2231 3669 1497 
Q 3669 778 3244 343 
Q 2819 -91 2113 -91 
Q 1303 -91 875 529 
Q 447 1150 447 2328 
Q 447 3434 972 4092 
Q 1497 4750 2381 4750 
Q 2619 4750 2861 4703 
Q 3103 4656 3366 4563 
z
" transform="scale(0.015625)"/>
       </defs>
       <use xlink:href="#DejaVuSans-31"/>
       <use xlink:href="#DejaVuSans-36" transform="translate(63.623047 0)"/>
      </g>
     </g>
    </g>
    <g id="xtick_3">
     <g id="line2d_3">
      <path d="M 199.15164 301.735725 
L 199.15164 35.623725 
" clip-path="url(#p77d1d099bf)" style="fill: none; stroke: #cccccc; stroke-width: 0.8; stroke-linecap: round"/>
     </g>
     <g id="text_3">
      <!-- 64 -->
      <g style="fill: #262626" transform="translate(192.78914 316.334162) scale(0.1 -0.1)">
       <defs>
        <path id="DejaVuSans-34" d="M 2419 4116 
L 825 1625 
L 2419 1625 
L 2419 4116 
z
M 2253 4666 
L 3047 4666 
L 3047 1625 
L 3713 1625 
L 3713 1100 
L 3047 1100 
L 3047 0 
L 2419 0 
L 2419 1100 
L 313 1100 
L 313 1709 
L 2253 4666 
z
" transform="scale(0.015625)"/>
       </defs>
       <use xlink:href="#DejaVuSans-36"/>
       <use xlink:href="#DejaVuSans-34" transform="translate(63.623047 0)"/>
      </g>
     </g>
    </g>
    <g id="xtick_4">
     <g id="line2d_4">
      <path d="M 384.668523 301.735725 
L 384.668523 35.623725 
" clip-path="url(#p77d1d099bf)" style="fill: none; stroke: #cccccc; stroke-width: 0.8; stroke-linecap: round"/>
     </g>
     <g id="text_4">
      <!-- 128 -->
      <g style="fill: #262626" transform="translate(375.124773 316.334162) scale(0.1 -0.1)">
       <defs>
        <path id="DejaVuSans-38" d="M 2034 2216 
Q 1584 2216 1326 1975 
Q 1069 1734 1069 1313 
Q 1069 891 1326 650 
Q 1584 409 2034 409 
Q 2484 409 2743 651 
Q 3003 894 3003 1313 
Q 3003 1734 2745 1975 
Q 2488 2216 2034 2216 
z
M 1403 2484 
Q 997 2584 770 2862 
Q 544 3141 544 3541 
Q 544 4100 942 4425 
Q 1341 4750 2034 4750 
Q 2731 4750 3128 4425 
Q 3525 4100 3525 3541 
Q 3525 3141 3298 2862 
Q 3072 2584 2669 2484 
Q 3125 2378 3379 2068 
Q 3634 1759 3634 1313 
Q 3634 634 3220 271 
Q 2806 -91 2034 -91 
Q 1263 -91 848 271 
Q 434 634 434 1313 
Q 434 1759 690 2068 
Q 947 2378 1403 2484 
z
M 1172 3481 
Q 1172 3119 1398 2916 
Q 1625 2713 2034 2713 
Q 2441 2713 2670 2916 
Q 2900 3119 2900 3481 
Q 2900 3844 2670 4047 
Q 2441 4250 2034 4250 
Q 1625 4250 1398 4047 
Q 1172 3844 1172 3481 
z
" transform="scale(0.015625)"/>
       </defs>
       <use xlink:href="#DejaVuSans-31"/>
       <use xlink:href="#DejaVuSans-32" transform="translate(63.623047 0)"/>
       <use xlink:href="#DejaVuSans-38" transform="translate(127.246094 0)"/>
      </g>
     </g>
    </g>
    <g id="text_5">
     <!-- Number of Jobs -->
     <g style="fill: #262626" transform="translate(183.944375 330.012287) scale(0.1 -0.1)">
      <defs>
       <path id="DejaVuSans-4e" d="M 628 4666 
L 1478 4666 
L 3547 763 
L 3547 4666 
L 4159 4666 
L 4159 0 
L 3309 0 
L 1241 3903 
L 1241 0 
L 628 0 
L 628 4666 
z
" transform="scale(0.015625)"/>
       <path id="DejaVuSans-75" d="M 544 1381 
L 544 3500 
L 1119 3500 
L 1119 1403 
Q 1119 906 1312 657 
Q 1506 409 1894 409 
Q 2359 409 2629 706 
Q 2900 1003 2900 1516 
L 2900 3500 
L 3475 3500 
L 3475 0 
L 2900 0 
L 2900 538 
Q 2691 219 2414 64 
Q 2138 -91 1772 -91 
Q 1169 -91 856 284 
Q 544 659 544 1381 
z
M 1991 3584 
L 1991 3584 
z
" transform="scale(0.015625)"/>
       <path id="DejaVuSans-6d" d="M 3328 2828 
Q 3544 3216 3844 3400 
Q 4144 3584 4550 3584 
Q 5097 3584 5394 3201 
Q 5691 2819 5691 2113 
L 5691 0 
L 5113 0 
L 5113 2094 
Q 5113 2597 4934 2840 
Q 4756 3084 4391 3084 
Q 3944 3084 3684 2787 
Q 3425 2491 3425 1978 
L 3425 0 
L 2847 0 
L 2847 2094 
Q 2847 2600 2669 2842 
Q 2491 3084 2119 3084 
Q 1678 3084 1418 2786 
Q 1159 2488 1159 1978 
L 1159 0 
L 581 0 
L 581 3500 
L 1159 3500 
L 1159 2956 
Q 1356 3278 1631 3431 
Q 1906 3584 2284 3584 
Q 2666 3584 2933 3390 
Q 3200 3197 3328 2828 
z
" transform="scale(0.015625)"/>
       <path id="DejaVuSans-62" d="M 3116 1747 
Q 3116 2381 2855 2742 
Q 2594 3103 2138 3103 
Q 1681 3103 1420 2742 
Q 1159 2381 1159 1747 
Q 1159 1113 1420 752 
Q 1681 391 2138 391 
Q 2594 391 2855 752 
Q 3116 1113 3116 1747 
z
M 1159 2969 
Q 1341 3281 1617 3432 
Q 1894 3584 2278 3584 
Q 2916 3584 3314 3078 
Q 3713 2572 3713 1747 
Q 3713 922 3314 415 
Q 2916 -91 2278 -91 
Q 1894 -91 1617 61 
Q 1341 213 1159 525 
L 1159 0 
L 581 0 
L 581 4863 
L 1159 4863 
L 1159 2969 
z
" transform="scale(0.015625)"/>
       <path id="DejaVuSans-65" d="M 3597 1894 
L 3597 1613 
L 953 1613 
Q 991 1019 1311 708 
Q 1631 397 2203 397 
Q 2534 397 2845 478 
Q 3156 559 3463 722 
L 3463 178 
Q 3153 47 2828 -22 
Q 2503 -91 2169 -91 
Q 1331 -91 842 396 
Q 353 884 353 1716 
Q 353 2575 817 3079 
Q 1281 3584 2069 3584 
Q 2775 3584 3186 3129 
Q 3597 2675 3597 1894 
z
M 3022 2063 
Q 3016 2534 2758 2815 
Q 2500 3097 2075 3097 
Q 1594 3097 1305 2825 
Q 1016 2553 972 2059 
L 3022 2063 
z
" transform="scale(0.015625)"/>
       <path id="DejaVuSans-72" d="M 2631 2963 
Q 2534 3019 2420 3045 
Q 2306 3072 2169 3072 
Q 1681 3072 1420 2755 
Q 1159 2438 1159 1844 
L 1159 0 
L 581 0 
L 581 3500 
L 1159 3500 
L 1159 2956 
Q 1341 3275 1631 3429 
Q 1922 3584 2338 3584 
Q 2397 3584 2469 3576 
Q 2541 3569 2628 3553 
L 2631 2963 
z
" transform="scale(0.015625)"/>
       <path id="DejaVuSans-20" transform="scale(0.015625)"/>
       <path id="DejaVuSans-6f" d="M 1959 3097 
Q 1497 3097 1228 2736 
Q 959 2375 959 1747 
Q 959 1119 1226 758 
Q 1494 397 1959 397 
Q 2419 397 2687 759 
Q 2956 1122 2956 1747 
Q 2956 2369 2687 2733 
Q 2419 3097 1959 3097 
z
M 1959 3584 
Q 2709 3584 3137 3096 
Q 3566 2609 3566 1747 
Q 3566 888 3137 398 
Q 2709 -91 1959 -91 
Q 1206 -91 779 398 
Q 353 888 353 1747 
Q 353 2609 779 3096 
Q 1206 3584 1959 3584 
z
" transform="scale(0.015625)"/>
       <path id="DejaVuSans-66" d="M 2375 4863 
L 2375 4384 
L 1825 4384 
Q 1516 4384 1395 4259 
Q 1275 4134 1275 3809 
L 1275 3500 
L 2222 3500 
L 2222 3053 
L 1275 3053 
L 1275 0 
L 697 0 
L 697 3053 
L 147 3053 
L 147 3500 
L 697 3500 
L 697 3744 
Q 697 4328 969 4595 
Q 1241 4863 1831 4863 
L 2375 4863 
z
" transform="scale(0.015625)"/>
       <path id="DejaVuSans-4a" d="M 628 4666 
L 1259 4666 
L 1259 325 
Q 1259 -519 939 -900 
Q 619 -1281 -91 -1281 
L -331 -1281 
L -331 -750 
L -134 -750 
Q 284 -750 456 -515 
Q 628 -281 628 325 
L 628 4666 
z
" transform="scale(0.015625)"/>
       <path id="DejaVuSans-73" d="M 2834 3397 
L 2834 2853 
Q 2591 2978 2328 3040 
Q 2066 3103 1784 3103 
Q 1356 3103 1142 2972 
Q 928 2841 928 2578 
Q 928 2378 1081 2264 
Q 1234 2150 1697 2047 
L 1894 2003 
Q 2506 1872 2764 1633 
Q 3022 1394 3022 966 
Q 3022 478 2636 193 
Q 2250 -91 1575 -91 
Q 1294 -91 989 -36 
Q 684 19 347 128 
L 347 722 
Q 666 556 975 473 
Q 1284 391 1588 391 
Q 1994 391 2212 530 
Q 2431 669 2431 922 
Q 2431 1156 2273 1281 
Q 2116 1406 1581 1522 
L 1381 1569 
Q 847 1681 609 1914 
Q 372 2147 372 2553 
Q 372 3047 722 3315 
Q 1072 3584 1716 3584 
Q 2034 3584 2315 3537 
Q 2597 3491 2834 3397 
z
" transform="scale(0.015625)"/>
      </defs>
      <use xlink:href="#DejaVuSans-4e"/>
      <use xlink:href="#DejaVuSans-75" transform="translate(74.804688 0)"/>
      <use xlink:href="#DejaVuSans-6d" transform="translate(138.183594 0)"/>
      <use xlink:href="#DejaVuSans-62" transform="translate(235.595703 0)"/>
      <use xlink:href="#DejaVuSans-65" transform="translate(299.072266 0)"/>
      <use xlink:href="#DejaVuSans-72" transform="translate(360.595703 0)"/>
      <use xlink:href="#DejaVuSans-20" transform="translate(401.708984 0)"/>
      <use xlink:href="#DejaVuSans-6f" transform="translate(433.496094 0)"/>
      <use xlink:href="#DejaVuSans-66" transform="translate(494.677734 0)"/>
      <use xlink:href="#DejaVuSans-20" transform="translate(529.882812 0)"/>
      <use xlink:href="#DejaVuSans-4a" transform="translate(561.669922 0)"/>
      <use xlink:href="#DejaVuSans-6f" transform="translate(591.162109 0)"/>
      <use xlink:href="#DejaVuSans-62" transform="translate(652.34375 0)"/>
      <use xlink:href="#DejaVuSans-73" transform="translate(715.820312 0)"/>
     </g>
    </g>
   </g>
   <g id="matplotlib.axis_2">
    <g id="ytick_1">
     <g id="line2d_5">
      <path d="M 43.78125 279.288466 
L 400.90125 279.288466 
" clip-path="url(#p77d1d099bf)" style="fill: none; stroke: #cccccc; stroke-width: 0.8; stroke-linecap: round"/>
     </g>
     <g id="text_6">
      <!-- 2.0 -->
      <g style="fill: #262626" transform="translate(20.878125 283.087685) scale(0.1 -0.1)">
       <defs>
        <path id="DejaVuSans-2e" d="M 684 794 
L 1344 794 
L 1344 0 
L 684 0 
L 684 794 
z
" transform="scale(0.015625)"/>
        <path id="DejaVuSans-30" d="M 2034 4250 
Q 1547 4250 1301 3770 
Q 1056 3291 1056 2328 
Q 1056 1369 1301 889 
Q 1547 409 2034 409 
Q 2525 409 2770 889 
Q 3016 1369 3016 2328 
Q 3016 3291 2770 3770 
Q 2525 4250 2034 4250 
z
M 2034 4750 
Q 2819 4750 3233 4129 
Q 3647 3509 3647 2328 
Q 3647 1150 3233 529 
Q 2819 -91 2034 -91 
Q 1250 -91 836 529 
Q 422 1150 422 2328 
Q 422 3509 836 4129 
Q 1250 4750 2034 4750 
z
" transform="scale(0.015625)"/>
       </defs>
       <use xlink:href="#DejaVuSans-32"/>
       <use xlink:href="#DejaVuSans-2e" transform="translate(63.623047 0)"/>
       <use xlink:href="#DejaVuSans-30" transform="translate(95.410156 0)"/>
      </g>
     </g>
    </g>
    <g id="ytick_2">
     <g id="line2d_6">
      <path d="M 43.78125 238.732718 
L 400.90125 238.732718 
" clip-path="url(#p77d1d099bf)" style="fill: none; stroke: #cccccc; stroke-width: 0.8; stroke-linecap: round"/>
     </g>
     <g id="text_7">
      <!-- 2.5 -->
      <g style="fill: #262626" transform="translate(20.878125 242.531937) scale(0.1 -0.1)">
       <defs>
        <path id="DejaVuSans-35" d="M 691 4666 
L 3169 4666 
L 3169 4134 
L 1269 4134 
L 1269 2991 
Q 1406 3038 1543 3061 
Q 1681 3084 1819 3084 
Q 2600 3084 3056 2656 
Q 3513 2228 3513 1497 
Q 3513 744 3044 326 
Q 2575 -91 1722 -91 
Q 1428 -91 1123 -41 
Q 819 9 494 109 
L 494 744 
Q 775 591 1075 516 
Q 1375 441 1709 441 
Q 2250 441 2565 725 
Q 2881 1009 2881 1497 
Q 2881 1984 2565 2268 
Q 2250 2553 1709 2553 
Q 1456 2553 1204 2497 
Q 953 2441 691 2322 
L 691 4666 
z
" transform="scale(0.015625)"/>
       </defs>
       <use xlink:href="#DejaVuSans-32"/>
       <use xlink:href="#DejaVuSans-2e" transform="translate(63.623047 0)"/>
       <use xlink:href="#DejaVuSans-35" transform="translate(95.410156 0)"/>
      </g>
     </g>
    </g>
    <g id="ytick_3">
     <g id="line2d_7">
      <path d="M 43.78125 198.17697 
L 400.90125 198.17697 
" clip-path="url(#p77d1d099bf)" style="fill: none; stroke: #cccccc; stroke-width: 0.8; stroke-linecap: round"/>
     </g>
     <g id="text_8">
      <!-- 3.0 -->
      <g style="fill: #262626" transform="translate(20.878125 201.976189) scale(0.1 -0.1)">
       <use xlink:href="#DejaVuSans-33"/>
       <use xlink:href="#DejaVuSans-2e" transform="translate(63.623047 0)"/>
       <use xlink:href="#DejaVuSans-30" transform="translate(95.410156 0)"/>
      </g>
     </g>
    </g>
    <g id="ytick_4">
     <g id="line2d_8">
      <path d="M 43.78125 157.621222 
L 400.90125 157.621222 
" clip-path="url(#p77d1d099bf)" style="fill: none; stroke: #cccccc; stroke-width: 0.8; stroke-linecap: round"/>
     </g>
     <g id="text_9">
      <!-- 3.5 -->
      <g style="fill: #262626" transform="translate(20.878125 161.420441) scale(0.1 -0.1)">
       <use xlink:href="#DejaVuSans-33"/>
       <use xlink:href="#DejaVuSans-2e" transform="translate(63.623047 0)"/>
       <use xlink:href="#DejaVuSans-35" transform="translate(95.410156 0)"/>
      </g>
     </g>
    </g>
    <g id="ytick_5">
     <g id="line2d_9">
      <path d="M 43.78125 117.065474 
L 400.90125 117.065474 
" clip-path="url(#p77d1d099bf)" style="fill: none; stroke: #cccccc; stroke-width: 0.8; stroke-linecap: round"/>
     </g>
     <g id="text_10">
      <!-- 4.0 -->
      <g style="fill: #262626" transform="translate(20.878125 120.864693) scale(0.1 -0.1)">
       <use xlink:href="#DejaVuSans-34"/>
       <use xlink:href="#DejaVuSans-2e" transform="translate(63.623047 0)"/>
       <use xlink:href="#DejaVuSans-30" transform="translate(95.410156 0)"/>
      </g>
     </g>
    </g>
    <g id="ytick_6">
     <g id="line2d_10">
      <path d="M 43.78125 76.509726 
L 400.90125 76.509726 
" clip-path="url(#p77d1d099bf)" style="fill: none; stroke: #cccccc; stroke-width: 0.8; stroke-linecap: round"/>
     </g>
     <g id="text_11">
      <!-- 4.5 -->
      <g style="fill: #262626" transform="translate(20.878125 80.308945) scale(0.1 -0.1)">
       <use xlink:href="#DejaVuSans-34"/>
       <use xlink:href="#DejaVuSans-2e" transform="translate(63.623047 0)"/>
       <use xlink:href="#DejaVuSans-35" transform="translate(95.410156 0)"/>
      </g>
     </g>
    </g>
    <g id="ytick_7">
     <g id="line2d_11">
      <path d="M 43.78125 35.953979 
L 400.90125 35.953979 
" clip-path="url(#p77d1d099bf)" style="fill: none; stroke: #cccccc; stroke-width: 0.8; stroke-linecap: round"/>
     </g>
     <g id="text_12">
      <!-- 5.0 -->
      <g style="fill: #262626" transform="translate(20.878125 39.753197) scale(0.1 -0.1)">
       <use xlink:href="#DejaVuSans-35"/>
       <use xlink:href="#DejaVuSans-2e" transform="translate(63.623047 0)"/>
       <use xlink:href="#DejaVuSans-30" transform="translate(95.410156 0)"/>
      </g>
     </g>
    </g>
    <g id="text_13">
     <!-- Mean Bandwidth (GiB/s) -->
     <g style="fill: #262626" transform="translate(14.798438 228.984412) rotate(-90) scale(0.1 -0.1)">
      <defs>
       <path id="DejaVuSans-4d" d="M 628 4666 
L 1569 4666 
L 2759 1491 
L 3956 4666 
L 4897 4666 
L 4897 0 
L 4281 0 
L 4281 4097 
L 3078 897 
L 2444 897 
L 1241 4097 
L 1241 0 
L 628 0 
L 628 4666 
z
" transform="scale(0.015625)"/>
       <path id="DejaVuSans-61" d="M 2194 1759 
Q 1497 1759 1228 1600 
Q 959 1441 959 1056 
Q 959 750 1161 570 
Q 1363 391 1709 391 
Q 2188 391 2477 730 
Q 2766 1069 2766 1631 
L 2766 1759 
L 2194 1759 
z
M 3341 1997 
L 3341 0 
L 2766 0 
L 2766 531 
Q 2569 213 2275 61 
Q 1981 -91 1556 -91 
Q 1019 -91 701 211 
Q 384 513 384 1019 
Q 384 1609 779 1909 
Q 1175 2209 1959 2209 
L 2766 2209 
L 2766 2266 
Q 2766 2663 2505 2880 
Q 2244 3097 1772 3097 
Q 1472 3097 1187 3025 
Q 903 2953 641 2809 
L 641 3341 
Q 956 3463 1253 3523 
Q 1550 3584 1831 3584 
Q 2591 3584 2966 3190 
Q 3341 2797 3341 1997 
z
" transform="scale(0.015625)"/>
       <path id="DejaVuSans-6e" d="M 3513 2113 
L 3513 0 
L 2938 0 
L 2938 2094 
Q 2938 2591 2744 2837 
Q 2550 3084 2163 3084 
Q 1697 3084 1428 2787 
Q 1159 2491 1159 1978 
L 1159 0 
L 581 0 
L 581 3500 
L 1159 3500 
L 1159 2956 
Q 1366 3272 1645 3428 
Q 1925 3584 2291 3584 
Q 2894 3584 3203 3211 
Q 3513 2838 3513 2113 
z
" transform="scale(0.015625)"/>
       <path id="DejaVuSans-42" d="M 1259 2228 
L 1259 519 
L 2272 519 
Q 2781 519 3026 730 
Q 3272 941 3272 1375 
Q 3272 1813 3026 2020 
Q 2781 2228 2272 2228 
L 1259 2228 
z
M 1259 4147 
L 1259 2741 
L 2194 2741 
Q 2656 2741 2882 2914 
Q 3109 3088 3109 3444 
Q 3109 3797 2882 3972 
Q 2656 4147 2194 4147 
L 1259 4147 
z
M 628 4666 
L 2241 4666 
Q 2963 4666 3353 4366 
Q 3744 4066 3744 3513 
Q 3744 3084 3544 2831 
Q 3344 2578 2956 2516 
Q 3422 2416 3680 2098 
Q 3938 1781 3938 1306 
Q 3938 681 3513 340 
Q 3088 0 2303 0 
L 628 0 
L 628 4666 
z
" transform="scale(0.015625)"/>
       <path id="DejaVuSans-64" d="M 2906 2969 
L 2906 4863 
L 3481 4863 
L 3481 0 
L 2906 0 
L 2906 525 
Q 2725 213 2448 61 
Q 2172 -91 1784 -91 
Q 1150 -91 751 415 
Q 353 922 353 1747 
Q 353 2572 751 3078 
Q 1150 3584 1784 3584 
Q 2172 3584 2448 3432 
Q 2725 3281 2906 2969 
z
M 947 1747 
Q 947 1113 1208 752 
Q 1469 391 1925 391 
Q 2381 391 2643 752 
Q 2906 1113 2906 1747 
Q 2906 2381 2643 2742 
Q 2381 3103 1925 3103 
Q 1469 3103 1208 2742 
Q 947 2381 947 1747 
z
" transform="scale(0.015625)"/>
       <path id="DejaVuSans-77" d="M 269 3500 
L 844 3500 
L 1563 769 
L 2278 3500 
L 2956 3500 
L 3675 769 
L 4391 3500 
L 4966 3500 
L 4050 0 
L 3372 0 
L 2619 2869 
L 1863 0 
L 1184 0 
L 269 3500 
z
" transform="scale(0.015625)"/>
       <path id="DejaVuSans-69" d="M 603 3500 
L 1178 3500 
L 1178 0 
L 603 0 
L 603 3500 
z
M 603 4863 
L 1178 4863 
L 1178 4134 
L 603 4134 
L 603 4863 
z
" transform="scale(0.015625)"/>
       <path id="DejaVuSans-74" d="M 1172 4494 
L 1172 3500 
L 2356 3500 
L 2356 3053 
L 1172 3053 
L 1172 1153 
Q 1172 725 1289 603 
Q 1406 481 1766 481 
L 2356 481 
L 2356 0 
L 1766 0 
Q 1100 0 847 248 
Q 594 497 594 1153 
L 594 3053 
L 172 3053 
L 172 3500 
L 594 3500 
L 594 4494 
L 1172 4494 
z
" transform="scale(0.015625)"/>
       <path id="DejaVuSans-68" d="M 3513 2113 
L 3513 0 
L 2938 0 
L 2938 2094 
Q 2938 2591 2744 2837 
Q 2550 3084 2163 3084 
Q 1697 3084 1428 2787 
Q 1159 2491 1159 1978 
L 1159 0 
L 581 0 
L 581 4863 
L 1159 4863 
L 1159 2956 
Q 1366 3272 1645 3428 
Q 1925 3584 2291 3584 
Q 2894 3584 3203 3211 
Q 3513 2838 3513 2113 
z
" transform="scale(0.015625)"/>
       <path id="DejaVuSans-28" d="M 1984 4856 
Q 1566 4138 1362 3434 
Q 1159 2731 1159 2009 
Q 1159 1288 1364 580 
Q 1569 -128 1984 -844 
L 1484 -844 
Q 1016 -109 783 600 
Q 550 1309 550 2009 
Q 550 2706 781 3412 
Q 1013 4119 1484 4856 
L 1984 4856 
z
" transform="scale(0.015625)"/>
       <path id="DejaVuSans-47" d="M 3809 666 
L 3809 1919 
L 2778 1919 
L 2778 2438 
L 4434 2438 
L 4434 434 
Q 4069 175 3628 42 
Q 3188 -91 2688 -91 
Q 1594 -91 976 548 
Q 359 1188 359 2328 
Q 359 3472 976 4111 
Q 1594 4750 2688 4750 
Q 3144 4750 3555 4637 
Q 3966 4525 4313 4306 
L 4313 3634 
Q 3963 3931 3569 4081 
Q 3175 4231 2741 4231 
Q 1884 4231 1454 3753 
Q 1025 3275 1025 2328 
Q 1025 1384 1454 906 
Q 1884 428 2741 428 
Q 3075 428 3337 486 
Q 3600 544 3809 666 
z
" transform="scale(0.015625)"/>
       <path id="DejaVuSans-2f" d="M 1625 4666 
L 2156 4666 
L 531 -594 
L 0 -594 
L 1625 4666 
z
" transform="scale(0.015625)"/>
       <path id="DejaVuSans-29" d="M 513 4856 
L 1013 4856 
Q 1481 4119 1714 3412 
Q 1947 2706 1947 2009 
Q 1947 1309 1714 600 
Q 1481 -109 1013 -844 
L 513 -844 
Q 928 -128 1133 580 
Q 1338 1288 1338 2009 
Q 1338 2731 1133 3434 
Q 928 4138 513 4856 
z
" transform="scale(0.015625)"/>
      </defs>
      <use xlink:href="#DejaVuSans-4d"/>
      <use xlink:href="#DejaVuSans-65" transform="translate(86.279297 0)"/>
      <use xlink:href="#DejaVuSans-61" transform="translate(147.802734 0)"/>
      <use xlink:href="#DejaVuSans-6e" transform="translate(209.082031 0)"/>
      <use xlink:href="#DejaVuSans-20" transform="translate(272.460938 0)"/>
      <use xlink:href="#DejaVuSans-42" transform="translate(304.248047 0)"/>
      <use xlink:href="#DejaVuSans-61" transform="translate(372.851562 0)"/>
      <use xlink:href="#DejaVuSans-6e" transform="translate(434.130859 0)"/>
      <use xlink:href="#DejaVuSans-64" transform="translate(497.509766 0)"/>
      <use xlink:href="#DejaVuSans-77" transform="translate(560.986328 0)"/>
      <use xlink:href="#DejaVuSans-69" transform="translate(642.773438 0)"/>
      <use xlink:href="#DejaVuSans-64" transform="translate(670.556641 0)"/>
      <use xlink:href="#DejaVuSans-74" transform="translate(734.033203 0)"/>
      <use xlink:href="#DejaVuSans-68" transform="translate(773.242188 0)"/>
      <use xlink:href="#DejaVuSans-20" transform="translate(836.621094 0)"/>
      <use xlink:href="#DejaVuSans-28" transform="translate(868.408203 0)"/>
      <use xlink:href="#DejaVuSans-47" transform="translate(907.421875 0)"/>
      <use xlink:href="#DejaVuSans-69" transform="translate(984.912109 0)"/>
      <use xlink:href="#DejaVuSans-42" transform="translate(1012.695312 0)"/>
      <use xlink:href="#DejaVuSans-2f" transform="translate(1081.298828 0)"/>
      <use xlink:href="#DejaVuSans-73" transform="translate(1114.990234 0)"/>
      <use xlink:href="#DejaVuSans-29" transform="translate(1167.089844 0)"/>
     </g>
    </g>
   </g>
   <g id="FillBetweenPolyCollection_1"/>
   <g id="FillBetweenPolyCollection_2"/>
   <g id="FillBetweenPolyCollection_3"/>
   <g id="FillBetweenPolyCollection_4"/>
   <g id="FillBetweenPolyCollection_5"/>
   <g id="FillBetweenPolyCollection_6"/>
   <g id="FillBetweenPolyCollection_7"/>
   <g id="line2d_12">
    <path d="M 60.013977 47.719725 
L 106.393198 140.008688 
L 199.15164 267.850889 
L 384.668523 286.084539 
" clip-path="url(#p77d1d099bf)" style="fill: none; stroke: #4c02a1; stroke-width: 1.5; stroke-linecap: round"/>
   </g>
   <g id="line2d_13">
    <path d="M 60.013977 64.031752 
L 106.393198 151.557297 
L 199.15164 196.223979 
L 384.668523 285.257983 
" clip-path="url(#p77d1d099bf)" style="fill: none; stroke: #7e03a8; stroke-width: 1.5; stroke-linecap: round"/>
   </g>
   <g id="line2d_14">
    <path d="M 60.013977 49.718309 
L 106.393198 196.828478 
L 199.15164 282.956085 
L 384.668523 287.161367 
" clip-path="url(#p77d1d099bf)" style="fill: none; stroke: #aa2395; stroke-width: 1.5; stroke-linecap: round"/>
   </g>
   <g id="line2d_15">
    <path d="M 60.013977 53.734723 
L 106.393198 184.031734 
L 199.15164 220.824618 
L 384.668523 289.639725 
" clip-path="url(#p77d1d099bf)" style="fill: none; stroke: #cc4778; stroke-width: 1.5; stroke-linecap: round"/>
   </g>
   <g id="line2d_16">
    <path d="M 60.013977 130.092238 
L 106.393198 174.291953 
L 199.15164 203.189368 
L 384.668523 273.106198 
" clip-path="url(#p77d1d099bf)" style="fill: none; stroke: #e66c5c; stroke-width: 1.5; stroke-linecap: round"/>
   </g>
   <g id="line2d_17">
    <path d="M 60.013977 178.068167 
L 106.393198 166.433131 
L 199.15164 219.253867 
L 384.668523 254.52523 
" clip-path="url(#p77d1d099bf)" style="fill: none; stroke: #f89540; stroke-width: 1.5; stroke-linecap: round"/>
   </g>
   <g id="line2d_18">
    <path d="M 60.013977 164.704665 
L 106.393198 177.920513 
L 199.15164 200.992641 
L 384.668523 240.4142 
" clip-path="url(#p77d1d099bf)" style="fill: none; stroke: #fdc527; stroke-width: 1.5; stroke-linecap: round"/>
   </g>
   <g id="line2d_19"/>
   <g id="line2d_20"/>
   <g id="line2d_21"/>
   <g id="line2d_22"/>
   <g id="line2d_23"/>
   <g id="line2d_24"/>
   <g id="line2d_25"/>
   <g id="text_14">
    <path d="M 99.217642 130.027662 
L 99.941003 131.467061 
L 104.911187 128.969327 
L 103.809853 127.560744 
L 104.612622 127.157317 
L 105.709746 128.557524 
L 106.152462 129.438475 
L 100.37951 132.339635 
L 101.10287 133.779034 
L 100.361531 134.151589 
L 98.476303 130.400217 
L 99.217642 130.027662 
z
" clip-path="url(#p77d1d099bf)" style="fill: #4c02a1; stroke: #ffffff; stroke-width: 5"/>
    <path d="M 99.217642 130.027662 
L 99.941003 131.467061 
L 104.911187 128.969327 
L 103.809853 127.560744 
L 104.612622 127.157317 
L 105.709746 128.557524 
L 106.152462 129.438475 
L 100.37951 132.339635 
L 101.10287 133.779034 
L 100.361531 134.151589 
L 98.476303 130.400217 
L 99.217642 130.027662 
z
" clip-path="url(#p77d1d099bf)" style="fill: #4c02a1"/>
   </g>
   <g id="text_15">
    <path d="M 144.121499 165.649479 
L 140.188839 168.075695 
L 142.432847 169.15627 
L 144.121499 165.649479 
z
M 144.260652 164.762666 
L 145.378433 165.30092 
L 143.316936 169.581992 
L 144.25452 170.033474 
L 143.898622 170.77256 
L 142.961038 170.321078 
L 142.215346 171.869641 
L 141.331258 171.443919 
L 142.076949 169.895356 
L 139.112156 168.467697 
L 139.524997 167.610356 
L 144.260652 164.762666 
z
" clip-path="url(#p77d1d099bf)" style="fill: #7e03a8; stroke: #ffffff; stroke-width: 5"/>
    <path d="M 144.121499 165.649479 
L 140.188839 168.075695 
L 142.432847 169.15627 
L 144.121499 165.649479 
z
M 144.260652 164.762666 
L 145.378433 165.30092 
L 143.316936 169.581992 
L 144.25452 170.033474 
L 143.898622 170.77256 
L 142.961038 170.321078 
L 142.215346 171.869641 
L 141.331258 171.443919 
L 142.076949 169.895356 
L 139.112156 168.467697 
L 139.524997 167.610356 
L 144.260652 164.762666 
z
" clip-path="url(#p77d1d099bf)" style="fill: #7e03a8"/>
   </g>
   <g id="text_16">
    <path d="M 182.641387 266.66658 
Q 182.126127 266.188154 181.574487 266.189806 
Q 181.023992 266.192522 180.576398 266.674576 
Q 180.12774 267.157775 180.165786 267.70696 
Q 180.204978 268.257209 180.720238 268.735635 
Q 181.235498 269.214062 181.789346 269.212328 
Q 182.345402 269.210511 182.79087 268.730747 
Q 183.238465 268.248693 183.199273 267.698445 
Q 183.161227 267.14926 182.641387 266.66658 
z
M 182.203807 265.688854 
Q 181.845245 265.142705 181.880887 264.583049 
Q 181.918736 264.023311 182.344004 263.565303 
Q 182.938316 262.925235 183.739565 262.976245 
Q 184.541959 263.028318 185.33546 263.765095 
Q 186.13354 264.506124 186.242584 265.300335 
Q 186.351627 266.094546 185.757315 266.734613 
Q 185.332047 267.192622 184.775502 267.270743 
Q 184.221166 267.348783 183.653405 267.034828 
Q 184.062839 267.641005 184.024092 268.266008 
Q 183.987553 268.890928 183.513379 269.401608 
Q 182.791487 270.179078 181.931517 270.154568 
Q 181.07261 270.128914 180.188653 269.308146 
Q 179.305841 268.488442 179.215524 267.632728 
Q 179.127416 266.776933 179.849309 265.999463 
Q 180.323483 265.488783 180.945128 265.407143 
Q 181.568981 265.325421 182.203807 265.688854 
z
M 182.999288 264.301675 
Q 182.61442 264.716173 182.657372 265.188889 
Q 182.701468 265.662668 183.169782 266.097504 
Q 183.635806 266.530215 184.11384 266.541241 
Q 184.593018 266.553331 184.977886 266.138833 
Q 185.363817 265.72319 185.316285 265.246221 
Q 185.269899 264.770316 184.803875 264.337606 
Q 184.335561 263.902769 183.859817 263.893869 
Q 183.385219 263.886032 182.999288 264.301675 
z
" clip-path="url(#p77d1d099bf)" style="fill: #aa2395; stroke: #ffffff; stroke-width: 5"/>
    <path d="M 182.641387 266.66658 
Q 182.126127 266.188154 181.574487 266.189806 
Q 181.023992 266.192522 180.576398 266.674576 
Q 180.12774 267.157775 180.165786 267.70696 
Q 180.204978 268.257209 180.720238 268.735635 
Q 181.235498 269.214062 181.789346 269.212328 
Q 182.345402 269.210511 182.79087 268.730747 
Q 183.238465 268.248693 183.199273 267.698445 
Q 183.161227 267.14926 182.641387 266.66658 
z
M 182.203807 265.688854 
Q 181.845245 265.142705 181.880887 264.583049 
Q 181.918736 264.023311 182.344004 263.565303 
Q 182.938316 262.925235 183.739565 262.976245 
Q 184.541959 263.028318 185.33546 263.765095 
Q 186.13354 264.506124 186.242584 265.300335 
Q 186.351627 266.094546 185.757315 266.734613 
Q 185.332047 267.192622 184.775502 267.270743 
Q 184.221166 267.348783 183.653405 267.034828 
Q 184.062839 267.641005 184.024092 268.266008 
Q 183.987553 268.890928 183.513379 269.401608 
Q 182.791487 270.179078 181.931517 270.154568 
Q 181.07261 270.128914 180.188653 269.308146 
Q 179.305841 268.488442 179.215524 267.632728 
Q 179.127416 266.776933 179.849309 265.999463 
Q 180.323483 265.488783 180.945128 265.407143 
Q 181.568981 265.325421 182.203807 265.688854 
z
M 182.999288 264.301675 
Q 182.61442 264.716173 182.657372 265.188889 
Q 182.701468 265.662668 183.169782 266.097504 
Q 183.635806 266.530215 184.11384 266.541241 
Q 184.593018 266.553331 184.977886 266.138833 
Q 185.363817 265.72319 185.316285 265.246221 
Q 185.269899 264.770316 184.803875 264.337606 
Q 184.335561 263.902769 183.859817 263.893869 
Q 183.385219 263.886032 182.999288 264.301675 
z
" clip-path="url(#p77d1d099bf)" style="fill: #aa2395"/>
   </g>
   <g id="text_17">
    <path d="M 216.867995 229.45444 
L 218.378371 230.014695 
L 220.312906 224.799431 
L 218.546952 224.519342 
L 218.859412 223.676989 
L 220.616576 223.953817 
L 221.540967 224.296708 
L 219.293972 230.354325 
L 220.804348 230.91458 
L 220.515798 231.692474 
L 216.579445 230.232335 
L 216.867995 229.45444 
z
M 225.88104 229.376323 
Q 225.258431 229.145374 224.735523 229.436369 
Q 224.214624 229.726442 223.939659 230.467713 
Q 223.666325 231.204589 223.870417 231.768588 
Q 224.076517 232.331666 224.699125 232.562614 
Q 225.321734 232.793563 225.84372 232.50056 
Q 226.366249 232.206091 226.639584 231.469216 
Q 226.914549 230.727945 226.708827 230.168341 
Q 226.503648 229.607271 225.88104 229.376323 
z
M 228.792043 227.158054 
L 228.479583 228.000407 
Q 228.191784 227.707 227.869324 227.489063 
Q 227.547408 227.26966 227.198747 227.140329 
Q 226.283146 226.800698 225.57039 227.239587 
Q 224.859099 227.67902 224.326718 228.903092 
Q 224.744078 228.604609 225.230132 228.543258 
Q 225.71765 228.482449 226.206948 228.663948 
Q 227.236816 229.045964 227.602485 229.893214 
Q 227.968697 230.738998 227.569835 231.81428 
Q 227.179124 232.867588 226.320132 233.273897 
Q 225.461684 233.678742 224.427421 233.295095 
Q 223.240802 232.854934 222.950712 231.714079 
Q 222.661165 230.571759 223.301301 228.846034 
Q 223.902311 227.225786 225.028979 226.547131 
Q 226.155647 225.868475 227.450673 226.348849 
Q 227.799334 226.47818 228.128314 226.678538 
Q 228.457295 226.878896 228.792043 227.158054 
z
" clip-path="url(#p77d1d099bf)" style="fill: #cc4778; stroke: #ffffff; stroke-width: 5"/>
    <path d="M 216.867995 229.45444 
L 218.378371 230.014695 
L 220.312906 224.799431 
L 218.546952 224.519342 
L 218.859412 223.676989 
L 220.616576 223.953817 
L 221.540967 224.296708 
L 219.293972 230.354325 
L 220.804348 230.91458 
L 220.515798 231.692474 
L 216.579445 230.232335 
L 216.867995 229.45444 
z
M 225.88104 229.376323 
Q 225.258431 229.145374 224.735523 229.436369 
Q 224.214624 229.726442 223.939659 230.467713 
Q 223.666325 231.204589 223.870417 231.768588 
Q 224.076517 232.331666 224.699125 232.562614 
Q 225.321734 232.793563 225.84372 232.50056 
Q 226.366249 232.206091 226.639584 231.469216 
Q 226.914549 230.727945 226.708827 230.168341 
Q 226.503648 229.607271 225.88104 229.376323 
z
M 228.792043 227.158054 
L 228.479583 228.000407 
Q 228.191784 227.707 227.869324 227.489063 
Q 227.547408 227.26966 227.198747 227.140329 
Q 226.283146 226.800698 225.57039 227.239587 
Q 224.859099 227.67902 224.326718 228.903092 
Q 224.744078 228.604609 225.230132 228.543258 
Q 225.71765 228.482449 226.206948 228.663948 
Q 227.236816 229.045964 227.602485 229.893214 
Q 227.968697 230.738998 227.569835 231.81428 
Q 227.179124 232.867588 226.320132 233.273897 
Q 225.461684 233.678742 224.427421 233.295095 
Q 223.240802 232.854934 222.950712 231.714079 
Q 222.661165 230.571759 223.301301 228.846034 
Q 223.902311 227.225786 225.028979 226.547131 
Q 226.155647 225.868475 227.450673 226.348849 
Q 227.799334 226.47818 228.128314 226.678538 
Q 228.457295 226.878896 228.792043 227.158054 
z
" clip-path="url(#p77d1d099bf)" style="fill: #cc4778"/>
   </g>
   <g id="text_18">
    <path d="M 260.773912 225.160977 
Q 261.382798 225.55242 261.585007 226.14125 
Q 261.789229 226.72917 261.541263 227.38712 
Q 261.16105 228.395976 260.257705 228.688375 
Q 259.354912 228.979311 258.075565 228.497157 
Q 257.647166 228.335704 257.22441 228.079529 
Q 256.801654 227.823355 256.381615 227.471358 
L 256.717195 226.580933 
Q 257.015959 226.949007 257.429157 227.234974 
Q 257.843817 227.521492 258.342397 227.709395 
Q 259.209429 228.036158 259.793087 227.865396 
Q 260.376745 227.694634 260.623058 227.04107 
Q 260.850635 226.437219 260.555925 225.93876 
Q 260.261766 225.438839 259.508779 225.155057 
L 258.713391 224.855294 
L 258.999377 224.096459 
L 259.831318 224.409997 
Q 260.5112 224.666228 260.974833 224.530381 
Q 261.438467 224.394534 261.631329 223.882795 
Q 261.82915 223.357897 261.562111 222.936658 
Q 261.297084 222.514508 260.602582 222.252767 
Q 260.222433 222.109498 259.756777 222.029181 
Q 259.291672 221.947402 258.706139 221.923763 
L 259.01582 221.102057 
Q 259.597283 221.154218 260.083938 221.254138 
Q 260.570592 221.354057 260.977059 221.507244 
Q 262.028317 221.903438 262.459291 222.61188 
Q 262.892278 223.319412 262.585903 224.132345 
Q 262.372102 224.699644 261.900387 224.967698 
Q 261.428672 225.235752 260.773912 225.160977 
z
M 263.632012 229.552643 
L 266.853042 230.766571 
L 266.560443 231.542952 
L 262.229671 229.910789 
L 262.52227 229.134408 
Q 263.252152 228.788324 264.503608 228.214684 
Q 265.757078 227.640133 266.089841 227.461643 
Q 266.720212 227.131489 267.02571 226.852555 
Q 267.332669 226.574172 267.458305 226.24081 
Q 267.66329 225.696905 267.410621 225.210951 
Q 267.158503 224.723536 266.545879 224.492652 
Q 266.111632 224.328995 265.572379 224.297751 
Q 265.034588 224.267058 264.370579 224.367464 
L 264.722139 223.434637 
Q 265.363511 223.420878 265.890451 223.489226 
Q 266.418852 223.558125 266.820933 223.709659 
Q 267.880963 224.109159 268.311107 224.877401 
Q 268.741802 225.64418 268.407876 226.53022 
Q 268.249178 226.951307 267.949103 227.26902 
Q 267.651041 227.585822 267.041478 227.940516 
Q 266.877289 228.030587 266.026067 228.432798 
Q 265.176307 228.83556 263.632012 229.552643 
z
" clip-path="url(#p77d1d099bf)" style="fill: #e66c5c; stroke: #ffffff; stroke-width: 5"/>
    <path d="M 260.773912 225.160977 
Q 261.382798 225.55242 261.585007 226.14125 
Q 261.789229 226.72917 261.541263 227.38712 
Q 261.16105 228.395976 260.257705 228.688375 
Q 259.354912 228.979311 258.075565 228.497157 
Q 257.647166 228.335704 257.22441 228.079529 
Q 256.801654 227.823355 256.381615 227.471358 
L 256.717195 226.580933 
Q 257.015959 226.949007 257.429157 227.234974 
Q 257.843817 227.521492 258.342397 227.709395 
Q 259.209429 228.036158 259.793087 227.865396 
Q 260.376745 227.694634 260.623058 227.04107 
Q 260.850635 226.437219 260.555925 225.93876 
Q 260.261766 225.438839 259.508779 225.155057 
L 258.713391 224.855294 
L 258.999377 224.096459 
L 259.831318 224.409997 
Q 260.5112 224.666228 260.974833 224.530381 
Q 261.438467 224.394534 261.631329 223.882795 
Q 261.82915 223.357897 261.562111 222.936658 
Q 261.297084 222.514508 260.602582 222.252767 
Q 260.222433 222.109498 259.756777 222.029181 
Q 259.291672 221.947402 258.706139 221.923763 
L 259.01582 221.102057 
Q 259.597283 221.154218 260.083938 221.254138 
Q 260.570592 221.354057 260.977059 221.507244 
Q 262.028317 221.903438 262.459291 222.61188 
Q 262.892278 223.319412 262.585903 224.132345 
Q 262.372102 224.699644 261.900387 224.967698 
Q 261.428672 225.235752 260.773912 225.160977 
z
M 263.632012 229.552643 
L 266.853042 230.766571 
L 266.560443 231.542952 
L 262.229671 229.910789 
L 262.52227 229.134408 
Q 263.252152 228.788324 264.503608 228.214684 
Q 265.757078 227.640133 266.089841 227.461643 
Q 266.720212 227.131489 267.02571 226.852555 
Q 267.332669 226.574172 267.458305 226.24081 
Q 267.66329 225.696905 267.410621 225.210951 
Q 267.158503 224.723536 266.545879 224.492652 
Q 266.111632 224.328995 265.572379 224.297751 
Q 265.034588 224.267058 264.370579 224.367464 
L 264.722139 223.434637 
Q 265.363511 223.420878 265.890451 223.489226 
Q 266.418852 223.558125 266.820933 223.709659 
Q 267.880963 224.109159 268.311107 224.877401 
Q 268.741802 225.64418 268.407876 226.53022 
Q 268.249178 226.951307 267.949103 227.26902 
Q 267.651041 227.585822 267.041478 227.940516 
Q 266.877289 228.030587 266.026067 228.432798 
Q 265.176307 228.83556 263.632012 229.552643 
z
" clip-path="url(#p77d1d099bf)" style="fill: #e66c5c"/>
   </g>
   <g id="text_19">
    <path d="M 299.924906 237.112346 
Q 299.27253 236.988313 298.805388 237.36233 
Q 298.340073 237.735104 298.192401 238.511815 
Q 298.045604 239.283922 298.340775 239.806055 
Q 298.637773 240.326944 299.290149 240.450977 
Q 299.942525 240.57501 300.408424 240.199166 
Q 300.874615 239.821787 301.021411 239.049681 
Q 301.169083 238.272969 300.873037 237.755441 
Q 300.577282 237.236378 299.924906 237.112346 
z
M 302.42582 234.440253 
L 302.258011 235.322879 
Q 301.925367 235.081501 301.571115 234.92031 
Q 301.217154 234.757584 300.851824 234.688125 
Q 299.892447 234.505724 299.262738 235.057187 
Q 298.634565 235.608943 298.313479 236.904584 
Q 298.6753 236.540762 299.144348 236.399318 
Q 299.614931 236.258167 300.127622 236.355642 
Q 301.206729 236.560807 301.708394 237.335325 
Q 302.21035 238.108308 301.996138 239.235 
Q 301.786304 240.338667 301.006976 240.882361 
Q 300.22794 241.424519 299.144228 241.218479 
Q 297.900876 240.982087 297.424836 239.905476 
Q 296.949089 238.827331 297.292879 237.019097 
Q 297.615657 235.321384 298.613565 234.464569 
Q 299.611474 233.607754 300.968417 233.865743 
Q 301.333748 233.935201 301.691502 234.077972 
Q 302.049256 234.220743 302.42582 234.440253 
z
M 307.09206 236.038369 
L 303.918286 239.396866 
L 306.365081 239.862062 
L 307.09206 236.038369 
z
M 306.997762 235.145672 
L 308.216555 235.377395 
L 307.329063 240.045339 
L 308.351375 240.239706 
L 308.198158 241.045582 
L 307.175846 240.851216 
L 306.854819 242.539719 
L 305.890837 242.356442 
L 306.211864 240.667939 
L 302.979147 240.053319 
L 303.156879 239.118502 
L 306.997762 235.145672 
z
" clip-path="url(#p77d1d099bf)" style="fill: #f89540; stroke: #ffffff; stroke-width: 5"/>
    <path d="M 299.924906 237.112346 
Q 299.27253 236.988313 298.805388 237.36233 
Q 298.340073 237.735104 298.192401 238.511815 
Q 298.045604 239.283922 298.340775 239.806055 
Q 298.637773 240.326944 299.290149 240.450977 
Q 299.942525 240.57501 300.408424 240.199166 
Q 300.874615 239.821787 301.021411 239.049681 
Q 301.169083 238.272969 300.873037 237.755441 
Q 300.577282 237.236378 299.924906 237.112346 
z
M 302.42582 234.440253 
L 302.258011 235.322879 
Q 301.925367 235.081501 301.571115 234.92031 
Q 301.217154 234.757584 300.851824 234.688125 
Q 299.892447 234.505724 299.262738 235.057187 
Q 298.634565 235.608943 298.313479 236.904584 
Q 298.6753 236.540762 299.144348 236.399318 
Q 299.614931 236.258167 300.127622 236.355642 
Q 301.206729 236.560807 301.708394 237.335325 
Q 302.21035 238.108308 301.996138 239.235 
Q 301.786304 240.338667 301.006976 240.882361 
Q 300.22794 241.424519 299.144228 241.218479 
Q 297.900876 240.982087 297.424836 239.905476 
Q 296.949089 238.827331 297.292879 237.019097 
Q 297.615657 235.321384 298.613565 234.464569 
Q 299.611474 233.607754 300.968417 233.865743 
Q 301.333748 233.935201 301.691502 234.077972 
Q 302.049256 234.220743 302.42582 234.440253 
z
M 307.09206 236.038369 
L 303.918286 239.396866 
L 306.365081 239.862062 
L 307.09206 236.038369 
z
M 306.997762 235.145672 
L 308.216555 235.377395 
L 307.329063 240.045339 
L 308.351375 240.239706 
L 308.198158 241.045582 
L 307.175846 240.851216 
L 306.854819 242.539719 
L 305.890837 242.356442 
L 306.211864 240.667939 
L 302.979147 240.053319 
L 303.156879 239.118502 
L 306.997762 235.145672 
z
" clip-path="url(#p77d1d099bf)" style="fill: #f89540"/>
   </g>
   <g id="text_20">
    <path d="M 334.346373 231.693728 
L 335.922127 232.028569 
L 337.07832 226.587556 
L 335.290409 226.567045 
L 335.477154 225.68823 
L 337.255894 225.706792 
L 338.220298 225.911724 
L 336.877361 232.231553 
L 338.453115 232.566394 
L 338.280661 233.377961 
L 334.173918 232.505295 
L 334.346373 231.693728 
z
M 341.233037 233.157116 
L 344.600047 233.872591 
L 344.427592 234.684158 
L 339.900547 233.72218 
L 340.073001 232.910613 
Q 340.742503 232.458651 341.893404 231.703248 
Q 343.046157 230.946641 343.348277 230.720116 
Q 343.921797 230.298875 344.181849 229.977151 
Q 344.443429 229.655752 344.517477 229.307283 
Q 344.638293 228.738728 344.315384 228.296322 
Q 343.9928 227.852389 343.352411 227.716309 
Q 342.898484 227.619851 342.360668 227.670098 
Q 341.824381 227.720671 341.183039 227.919839 
L 341.390244 226.944736 
Q 342.022245 226.834634 342.553469 226.82292 
Q 343.086222 226.811532 343.506525 226.900844 
Q 344.614596 227.136305 345.155433 227.831082 
Q 345.696595 228.524331 345.499782 229.450526 
Q 345.406247 229.890698 345.157391 230.249943 
Q 344.910389 230.607984 344.361131 231.050355 
Q 344.212364 231.164105 343.431348 231.689811 
Q 342.651861 232.215842 341.233037 233.157116 
z
M 349.2355 232.166007 
Q 348.547732 232.01986 348.075141 232.304406 
Q 347.604078 232.589278 347.467349 233.232724 
Q 347.330294 233.877698 347.644816 234.329503 
Q 347.960866 234.781632 348.648635 234.92778 
Q 349.336403 235.073928 349.810848 234.788178 
Q 350.287145 234.501224 350.423225 233.860835 
Q 350.559954 233.217389 350.243904 232.765259 
Q 349.929382 232.313454 349.2355 232.166007 
z
M 348.358135 231.551471 
Q 347.770092 231.266776 347.513438 230.768164 
Q 347.258637 230.268349 347.388547 229.656999 
Q 347.570095 228.802638 348.283939 228.435176 
Q 348.999312 228.068039 350.058475 228.293106 
Q 351.123752 228.519473 351.624966 229.14513 
Q 352.126179 229.770787 351.944631 230.625148 
Q 351.814722 231.236498 351.377169 231.589191 
Q 350.941469 231.94068 350.293057 231.962634 
Q 350.95557 232.272738 351.243097 232.829027 
Q 351.532478 233.384112 351.387629 234.065767 
Q 351.167108 235.103533 350.416468 235.523877 
Q 349.666153 235.942692 348.486248 235.691967 
Q 347.307872 235.441567 346.791164 234.753515 
Q 346.27631 234.064259 346.496831 233.026493 
Q 346.64168 232.344838 347.133298 231.955712 
Q 347.62677 231.565382 348.358135 231.551471 
z
M 348.328879 229.952659 
Q 348.211311 230.505931 348.490795 230.88959 
Q 348.771807 231.273573 349.396912 231.406405 
Q 350.018961 231.538588 350.434887 231.302701 
Q 350.852343 231.067139 350.96991 230.513867 
Q 351.087803 229.959067 350.802206 229.574109 
Q 350.518137 229.189476 349.896089 229.057294 
Q 349.270984 228.924461 348.858114 229.160998 
Q 348.446772 229.397859 348.328879 229.952659 
z
" clip-path="url(#p77d1d099bf)" style="fill: #fdc527; stroke: #ffffff; stroke-width: 5"/>
    <path d="M 334.346373 231.693728 
L 335.922127 232.028569 
L 337.07832 226.587556 
L 335.290409 226.567045 
L 335.477154 225.68823 
L 337.255894 225.706792 
L 338.220298 225.911724 
L 336.877361 232.231553 
L 338.453115 232.566394 
L 338.280661 233.377961 
L 334.173918 232.505295 
L 334.346373 231.693728 
z
M 341.233037 233.157116 
L 344.600047 233.872591 
L 344.427592 234.684158 
L 339.900547 233.72218 
L 340.073001 232.910613 
Q 340.742503 232.458651 341.893404 231.703248 
Q 343.046157 230.946641 343.348277 230.720116 
Q 343.921797 230.298875 344.181849 229.977151 
Q 344.443429 229.655752 344.517477 229.307283 
Q 344.638293 228.738728 344.315384 228.296322 
Q 343.9928 227.852389 343.352411 227.716309 
Q 342.898484 227.619851 342.360668 227.670098 
Q 341.824381 227.720671 341.183039 227.919839 
L 341.390244 226.944736 
Q 342.022245 226.834634 342.553469 226.82292 
Q 343.086222 226.811532 343.506525 226.900844 
Q 344.614596 227.136305 345.155433 227.831082 
Q 345.696595 228.524331 345.499782 229.450526 
Q 345.406247 229.890698 345.157391 230.249943 
Q 344.910389 230.607984 344.361131 231.050355 
Q 344.212364 231.164105 343.431348 231.689811 
Q 342.651861 232.215842 341.233037 233.157116 
z
M 349.2355 232.166007 
Q 348.547732 232.01986 348.075141 232.304406 
Q 347.604078 232.589278 347.467349 233.232724 
Q 347.330294 233.877698 347.644816 234.329503 
Q 347.960866 234.781632 348.648635 234.92778 
Q 349.336403 235.073928 349.810848 234.788178 
Q 350.287145 234.501224 350.423225 233.860835 
Q 350.559954 233.217389 350.243904 232.765259 
Q 349.929382 232.313454 349.2355 232.166007 
z
M 348.358135 231.551471 
Q 347.770092 231.266776 347.513438 230.768164 
Q 347.258637 230.268349 347.388547 229.656999 
Q 347.570095 228.802638 348.283939 228.435176 
Q 348.999312 228.068039 350.058475 228.293106 
Q 351.123752 228.519473 351.624966 229.14513 
Q 352.126179 229.770787 351.944631 230.625148 
Q 351.814722 231.236498 351.377169 231.589191 
Q 350.941469 231.94068 350.293057 231.962634 
Q 350.95557 232.272738 351.243097 232.829027 
Q 351.532478 233.384112 351.387629 234.065767 
Q 351.167108 235.103533 350.416468 235.523877 
Q 349.666153 235.942692 348.486248 235.691967 
Q 347.307872 235.441567 346.791164 234.753515 
Q 346.27631 234.064259 346.496831 233.026493 
Q 346.64168 232.344838 347.133298 231.955712 
Q 347.62677 231.565382 348.358135 231.551471 
z
M 348.328879 229.952659 
Q 348.211311 230.505931 348.490795 230.88959 
Q 348.771807 231.273573 349.396912 231.406405 
Q 350.018961 231.538588 350.434887 231.302701 
Q 350.852343 231.067139 350.96991 230.513867 
Q 351.087803 229.959067 350.802206 229.574109 
Q 350.518137 229.189476 349.896089 229.057294 
Q 349.270984 228.924461 348.858114 229.160998 
Q 348.446772 229.397859 348.328879 229.952659 
z
" clip-path="url(#p77d1d099bf)" style="fill: #fdc527"/>
   </g>
   <g id="patch_3">
    <path d="M 43.78125 301.735725 
L 43.78125 35.623725 
" style="fill: none; stroke: #cccccc; stroke-width: 0.8; stroke-linejoin: miter; stroke-linecap: square"/>
   </g>
   <g id="patch_4">
    <path d="M 400.90125 301.735725 
L 400.90125 35.623725 
" style="fill: none; stroke: #cccccc; stroke-width: 0.8; stroke-linejoin: miter; stroke-linecap: square"/>
   </g>
   <g id="patch_5">
    <path d="M 43.78125 301.735725 
L 400.90125 301.735725 
" style="fill: none; stroke: #cccccc; stroke-width: 0.8; stroke-linejoin: miter; stroke-linecap: square"/>
   </g>
   <g id="patch_6">
    <path d="M 43.78125 35.623725 
L 400.90125 35.623725 
" style="fill: none; stroke: #cccccc; stroke-width: 0.8; stroke-linejoin: miter; stroke-linecap: square"/>
   </g>
   <g id="text_21">
    <!-- Block Size = 1M, Read-Write Type = Random Read-only -->
    <g style="fill: #262626; opacity: 0.75" transform="translate(83.789688 30.882918) scale(0.1 -0.1)">
     <defs>
      <path id="DejaVuSans-6c" d="M 603 4863 
L 1178 4863 
L 1178 0 
L 603 0 
L 603 4863 
z
" transform="scale(0.015625)"/>
      <path id="DejaVuSans-63" d="M 3122 3366 
L 3122 2828 
Q 2878 2963 2633 3030 
Q 2388 3097 2138 3097 
Q 1578 3097 1268 2742 
Q 959 2388 959 1747 
Q 959 1106 1268 751 
Q 1578 397 2138 397 
Q 2388 397 2633 464 
Q 2878 531 3122 666 
L 3122 134 
Q 2881 22 2623 -34 
Q 2366 -91 2075 -91 
Q 1284 -91 818 406 
Q 353 903 353 1747 
Q 353 2603 823 3093 
Q 1294 3584 2113 3584 
Q 2378 3584 2631 3529 
Q 2884 3475 3122 3366 
z
" transform="scale(0.015625)"/>
      <path id="DejaVuSans-6b" d="M 581 4863 
L 1159 4863 
L 1159 1991 
L 2875 3500 
L 3609 3500 
L 1753 1863 
L 3688 0 
L 2938 0 
L 1159 1709 
L 1159 0 
L 581 0 
L 581 4863 
z
" transform="scale(0.015625)"/>
      <path id="DejaVuSans-53" d="M 3425 4513 
L 3425 3897 
Q 3066 4069 2747 4153 
Q 2428 4238 2131 4238 
Q 1616 4238 1336 4038 
Q 1056 3838 1056 3469 
Q 1056 3159 1242 3001 
Q 1428 2844 1947 2747 
L 2328 2669 
Q 3034 2534 3370 2195 
Q 3706 1856 3706 1288 
Q 3706 609 3251 259 
Q 2797 -91 1919 -91 
Q 1588 -91 1214 -16 
Q 841 59 441 206 
L 441 856 
Q 825 641 1194 531 
Q 1563 422 1919 422 
Q 2459 422 2753 634 
Q 3047 847 3047 1241 
Q 3047 1584 2836 1778 
Q 2625 1972 2144 2069 
L 1759 2144 
Q 1053 2284 737 2584 
Q 422 2884 422 3419 
Q 422 4038 858 4394 
Q 1294 4750 2059 4750 
Q 2388 4750 2728 4690 
Q 3069 4631 3425 4513 
z
" transform="scale(0.015625)"/>
      <path id="DejaVuSans-7a" d="M 353 3500 
L 3084 3500 
L 3084 2975 
L 922 459 
L 3084 459 
L 3084 0 
L 275 0 
L 275 525 
L 2438 3041 
L 353 3041 
L 353 3500 
z
" transform="scale(0.015625)"/>
      <path id="DejaVuSans-3d" d="M 678 2906 
L 4684 2906 
L 4684 2381 
L 678 2381 
L 678 2906 
z
M 678 1631 
L 4684 1631 
L 4684 1100 
L 678 1100 
L 678 1631 
z
" transform="scale(0.015625)"/>
      <path id="DejaVuSans-2c" d="M 750 794 
L 1409 794 
L 1409 256 
L 897 -744 
L 494 -744 
L 750 256 
L 750 794 
z
" transform="scale(0.015625)"/>
      <path id="DejaVuSans-52" d="M 2841 2188 
Q 3044 2119 3236 1894 
Q 3428 1669 3622 1275 
L 4263 0 
L 3584 0 
L 2988 1197 
Q 2756 1666 2539 1819 
Q 2322 1972 1947 1972 
L 1259 1972 
L 1259 0 
L 628 0 
L 628 4666 
L 2053 4666 
Q 2853 4666 3247 4331 
Q 3641 3997 3641 3322 
Q 3641 2881 3436 2590 
Q 3231 2300 2841 2188 
z
M 1259 4147 
L 1259 2491 
L 2053 2491 
Q 2509 2491 2742 2702 
Q 2975 2913 2975 3322 
Q 2975 3731 2742 3939 
Q 2509 4147 2053 4147 
L 1259 4147 
z
" transform="scale(0.015625)"/>
      <path id="DejaVuSans-2d" d="M 313 2009 
L 1997 2009 
L 1997 1497 
L 313 1497 
L 313 2009 
z
" transform="scale(0.015625)"/>
      <path id="DejaVuSans-57" d="M 213 4666 
L 850 4666 
L 1831 722 
L 2809 4666 
L 3519 4666 
L 4500 722 
L 5478 4666 
L 6119 4666 
L 4947 0 
L 4153 0 
L 3169 4050 
L 2175 0 
L 1381 0 
L 213 4666 
z
" transform="scale(0.015625)"/>
      <path id="DejaVuSans-54" d="M -19 4666 
L 3928 4666 
L 3928 4134 
L 2272 4134 
L 2272 0 
L 1638 0 
L 1638 4134 
L -19 4134 
L -19 4666 
z
" transform="scale(0.015625)"/>
      <path id="DejaVuSans-79" d="M 2059 -325 
Q 1816 -950 1584 -1140 
Q 1353 -1331 966 -1331 
L 506 -1331 
L 506 -850 
L 844 -850 
Q 1081 -850 1212 -737 
Q 1344 -625 1503 -206 
L 1606 56 
L 191 3500 
L 800 3500 
L 1894 763 
L 2988 3500 
L 3597 3500 
L 2059 -325 
z
" transform="scale(0.015625)"/>
      <path id="DejaVuSans-70" d="M 1159 525 
L 1159 -1331 
L 581 -1331 
L 581 3500 
L 1159 3500 
L 1159 2969 
Q 1341 3281 1617 3432 
Q 1894 3584 2278 3584 
Q 2916 3584 3314 3078 
Q 3713 2572 3713 1747 
Q 3713 922 3314 415 
Q 2916 -91 2278 -91 
Q 1894 -91 1617 61 
Q 1341 213 1159 525 
z
M 3116 1747 
Q 3116 2381 2855 2742 
Q 2594 3103 2138 3103 
Q 1681 3103 1420 2742 
Q 1159 2381 1159 1747 
Q 1159 1113 1420 752 
Q 1681 391 2138 391 
Q 2594 391 2855 752 
Q 3116 1113 3116 1747 
z
" transform="scale(0.015625)"/>
     </defs>
     <use xlink:href="#DejaVuSans-42"/>
     <use xlink:href="#DejaVuSans-6c" transform="translate(68.603516 0)"/>
     <use xlink:href="#DejaVuSans-6f" transform="translate(96.386719 0)"/>
     <use xlink:href="#DejaVuSans-63" transform="translate(157.568359 0)"/>
     <use xlink:href="#DejaVuSans-6b" transform="translate(212.548828 0)"/>
     <use xlink:href="#DejaVuSans-20" transform="translate(270.458984 0)"/>
     <use xlink:href="#DejaVuSans-53" transform="translate(302.246094 0)"/>
     <use xlink:href="#DejaVuSans-69" transform="translate(365.722656 0)"/>
     <use xlink:href="#DejaVuSans-7a" transform="translate(393.505859 0)"/>
     <use xlink:href="#DejaVuSans-65" transform="translate(445.996094 0)"/>
     <use xlink:href="#DejaVuSans-20" transform="translate(507.519531 0)"/>
     <use xlink:href="#DejaVuSans-3d" transform="translate(539.306641 0)"/>
     <use xlink:href="#DejaVuSans-20" transform="translate(623.095703 0)"/>
     <use xlink:href="#DejaVuSans-31" transform="translate(654.882812 0)"/>
     <use xlink:href="#DejaVuSans-4d" transform="translate(718.505859 0)"/>
     <use xlink:href="#DejaVuSans-2c" transform="translate(804.785156 0)"/>
     <use xlink:href="#DejaVuSans-20" transform="translate(836.572266 0)"/>
     <use xlink:href="#DejaVuSans-52" transform="translate(868.359375 0)"/>
     <use xlink:href="#DejaVuSans-65" transform="translate(933.341797 0)"/>
     <use xlink:href="#DejaVuSans-61" transform="translate(994.865234 0)"/>
     <use xlink:href="#DejaVuSans-64" transform="translate(1056.144531 0)"/>
     <use xlink:href="#DejaVuSans-2d" transform="translate(1119.621094 0)"/>
     <use xlink:href="#DejaVuSans-57" transform="translate(1151.705078 0)"/>
     <use xlink:href="#DejaVuSans-72" transform="translate(1246.082031 0)"/>
     <use xlink:href="#DejaVuSans-69" transform="translate(1287.195312 0)"/>
     <use xlink:href="#DejaVuSans-74" transform="translate(1314.978516 0)"/>
     <use xlink:href="#DejaVuSans-65" transform="translate(1354.1875 0)"/>
     <use xlink:href="#DejaVuSans-20" transform="translate(1415.710938 0)"/>
     <use xlink:href="#DejaVuSans-54" transform="translate(1447.498047 0)"/>
     <use xlink:href="#DejaVuSans-79" transform="translate(1492.957031 0)"/>
     <use xlink:href="#DejaVuSans-70" transform="translate(1552.136719 0)"/>
     <use xlink:href="#DejaVuSans-65" transform="translate(1615.613281 0)"/>
     <use xlink:href="#DejaVuSans-20" transform="translate(1677.136719 0)"/>
     <use xlink:href="#DejaVuSans-3d" transform="translate(1708.923828 0)"/>
     <use xlink:href="#DejaVuSans-20" transform="translate(1792.712891 0)"/>
     <use xlink:href="#DejaVuSans-52" transform="translate(1824.5 0)"/>
     <use xlink:href="#DejaVuSans-61" transform="translate(1891.732422 0)"/>
     <use xlink:href="#DejaVuSans-6e" transform="translate(1953.011719 0)"/>
     <use xlink:href="#DejaVuSans-64" transform="translate(2016.390625 0)"/>
     <use xlink:href="#DejaVuSans-6f" transform="translate(2079.867188 0)"/>
     <use xlink:href="#DejaVuSans-6d" transform="translate(2141.048828 0)"/>
     <use xlink:href="#DejaVuSans-20" transform="translate(2238.460938 0)"/>
     <use xlink:href="#DejaVuSans-52" transform="translate(2270.248047 0)"/>
     <use xlink:href="#DejaVuSans-65" transform="translate(2335.230469 0)"/>
     <use xlink:href="#DejaVuSans-61" transform="translate(2396.753906 0)"/>
     <use xlink:href="#DejaVuSans-64" transform="translate(2458.033203 0)"/>
     <use xlink:href="#DejaVuSans-2d" transform="translate(2521.509766 0)"/>
     <use xlink:href="#DejaVuSans-6f" transform="translate(2559.46875 0)"/>
     <use xlink:href="#DejaVuSans-6e" transform="translate(2620.650391 0)"/>
     <use xlink:href="#DejaVuSans-6c" transform="translate(2684.029297 0)"/>
     <use xlink:href="#DejaVuSans-79" transform="translate(2711.8125 0)"/>
    </g>
   </g>
   <g id="text_22">
    <!-- Mean Bandwidth vs Number of Jobs -->
    <g style="fill: #262626" transform="translate(102.012188 16.318125) scale(0.12 -0.12)">
     <defs>
      <path id="DejaVuSans-Bold-4d" d="M 588 4666 
L 2119 4666 
L 3181 2169 
L 4250 4666 
L 5778 4666 
L 5778 0 
L 4641 0 
L 4641 3413 
L 3566 897 
L 2803 897 
L 1728 3413 
L 1728 0 
L 588 0 
L 588 4666 
z
" transform="scale(0.015625)"/>
      <path id="DejaVuSans-Bold-65" d="M 4031 1759 
L 4031 1441 
L 1416 1441 
Q 1456 1047 1700 850 
Q 1944 653 2381 653 
Q 2734 653 3104 758 
Q 3475 863 3866 1075 
L 3866 213 
Q 3469 63 3072 -14 
Q 2675 -91 2278 -91 
Q 1328 -91 801 392 
Q 275 875 275 1747 
Q 275 2603 792 3093 
Q 1309 3584 2216 3584 
Q 3041 3584 3536 3087 
Q 4031 2591 4031 1759 
z
M 2881 2131 
Q 2881 2450 2695 2645 
Q 2509 2841 2209 2841 
Q 1884 2841 1681 2658 
Q 1478 2475 1428 2131 
L 2881 2131 
z
" transform="scale(0.015625)"/>
      <path id="DejaVuSans-Bold-61" d="M 2106 1575 
Q 1756 1575 1579 1456 
Q 1403 1338 1403 1106 
Q 1403 894 1545 773 
Q 1688 653 1941 653 
Q 2256 653 2472 879 
Q 2688 1106 2688 1447 
L 2688 1575 
L 2106 1575 
z
M 3816 1997 
L 3816 0 
L 2688 0 
L 2688 519 
Q 2463 200 2181 54 
Q 1900 -91 1497 -91 
Q 953 -91 614 226 
Q 275 544 275 1050 
Q 275 1666 698 1953 
Q 1122 2241 2028 2241 
L 2688 2241 
L 2688 2328 
Q 2688 2594 2478 2717 
Q 2269 2841 1825 2841 
Q 1466 2841 1156 2769 
Q 847 2697 581 2553 
L 581 3406 
Q 941 3494 1303 3539 
Q 1666 3584 2028 3584 
Q 2975 3584 3395 3211 
Q 3816 2838 3816 1997 
z
" transform="scale(0.015625)"/>
      <path id="DejaVuSans-Bold-6e" d="M 4056 2131 
L 4056 0 
L 2931 0 
L 2931 347 
L 2931 1631 
Q 2931 2084 2911 2256 
Q 2891 2428 2841 2509 
Q 2775 2619 2662 2680 
Q 2550 2741 2406 2741 
Q 2056 2741 1856 2470 
Q 1656 2200 1656 1722 
L 1656 0 
L 538 0 
L 538 3500 
L 1656 3500 
L 1656 2988 
Q 1909 3294 2193 3439 
Q 2478 3584 2822 3584 
Q 3428 3584 3742 3212 
Q 4056 2841 4056 2131 
z
" transform="scale(0.015625)"/>
      <path id="DejaVuSans-Bold-20" transform="scale(0.015625)"/>
      <path id="DejaVuSans-Bold-42" d="M 2456 2859 
Q 2741 2859 2887 2984 
Q 3034 3109 3034 3353 
Q 3034 3594 2887 3720 
Q 2741 3847 2456 3847 
L 1791 3847 
L 1791 2859 
L 2456 2859 
z
M 2497 819 
Q 2859 819 3042 972 
Q 3225 1125 3225 1434 
Q 3225 1738 3044 1889 
Q 2863 2041 2497 2041 
L 1791 2041 
L 1791 819 
L 2497 819 
z
M 3616 2497 
Q 4003 2384 4215 2081 
Q 4428 1778 4428 1338 
Q 4428 663 3972 331 
Q 3516 0 2584 0 
L 588 0 
L 588 4666 
L 2394 4666 
Q 3366 4666 3802 4372 
Q 4238 4078 4238 3431 
Q 4238 3091 4078 2852 
Q 3919 2613 3616 2497 
z
" transform="scale(0.015625)"/>
      <path id="DejaVuSans-Bold-64" d="M 2919 2988 
L 2919 4863 
L 4044 4863 
L 4044 0 
L 2919 0 
L 2919 506 
Q 2688 197 2409 53 
Q 2131 -91 1766 -91 
Q 1119 -91 703 423 
Q 288 938 288 1747 
Q 288 2556 703 3070 
Q 1119 3584 1766 3584 
Q 2128 3584 2408 3439 
Q 2688 3294 2919 2988 
z
M 2181 722 
Q 2541 722 2730 984 
Q 2919 1247 2919 1747 
Q 2919 2247 2730 2509 
Q 2541 2772 2181 2772 
Q 1825 2772 1636 2509 
Q 1447 2247 1447 1747 
Q 1447 1247 1636 984 
Q 1825 722 2181 722 
z
" transform="scale(0.015625)"/>
      <path id="DejaVuSans-Bold-77" d="M 225 3500 
L 1313 3500 
L 1900 1088 
L 2491 3500 
L 3425 3500 
L 4013 1113 
L 4603 3500 
L 5691 3500 
L 4769 0 
L 3547 0 
L 2956 2406 
L 2369 0 
L 1147 0 
L 225 3500 
z
" transform="scale(0.015625)"/>
      <path id="DejaVuSans-Bold-69" d="M 538 3500 
L 1656 3500 
L 1656 0 
L 538 0 
L 538 3500 
z
M 538 4863 
L 1656 4863 
L 1656 3950 
L 538 3950 
L 538 4863 
z
" transform="scale(0.015625)"/>
      <path id="DejaVuSans-Bold-74" d="M 1759 4494 
L 1759 3500 
L 2913 3500 
L 2913 2700 
L 1759 2700 
L 1759 1216 
Q 1759 972 1856 886 
Q 1953 800 2241 800 
L 2816 800 
L 2816 0 
L 1856 0 
Q 1194 0 917 276 
Q 641 553 641 1216 
L 641 2700 
L 84 2700 
L 84 3500 
L 641 3500 
L 641 4494 
L 1759 4494 
z
" transform="scale(0.015625)"/>
      <path id="DejaVuSans-Bold-68" d="M 4056 2131 
L 4056 0 
L 2931 0 
L 2931 347 
L 2931 1625 
Q 2931 2084 2911 2256 
Q 2891 2428 2841 2509 
Q 2775 2619 2662 2680 
Q 2550 2741 2406 2741 
Q 2056 2741 1856 2470 
Q 1656 2200 1656 1722 
L 1656 0 
L 538 0 
L 538 4863 
L 1656 4863 
L 1656 2988 
Q 1909 3294 2193 3439 
Q 2478 3584 2822 3584 
Q 3428 3584 3742 3212 
Q 4056 2841 4056 2131 
z
" transform="scale(0.015625)"/>
      <path id="DejaVuSans-Bold-76" d="M 97 3500 
L 1216 3500 
L 2088 1081 
L 2956 3500 
L 4078 3500 
L 2700 0 
L 1472 0 
L 97 3500 
z
" transform="scale(0.015625)"/>
      <path id="DejaVuSans-Bold-73" d="M 3272 3391 
L 3272 2541 
Q 2913 2691 2578 2766 
Q 2244 2841 1947 2841 
Q 1628 2841 1473 2761 
Q 1319 2681 1319 2516 
Q 1319 2381 1436 2309 
Q 1553 2238 1856 2203 
L 2053 2175 
Q 2913 2066 3209 1816 
Q 3506 1566 3506 1031 
Q 3506 472 3093 190 
Q 2681 -91 1863 -91 
Q 1516 -91 1145 -36 
Q 775 19 384 128 
L 384 978 
Q 719 816 1070 734 
Q 1422 653 1784 653 
Q 2113 653 2278 743 
Q 2444 834 2444 1013 
Q 2444 1163 2330 1236 
Q 2216 1309 1875 1350 
L 1678 1375 
Q 931 1469 631 1722 
Q 331 1975 331 2491 
Q 331 3047 712 3315 
Q 1094 3584 1881 3584 
Q 2191 3584 2531 3537 
Q 2872 3491 3272 3391 
z
" transform="scale(0.015625)"/>
      <path id="DejaVuSans-Bold-4e" d="M 588 4666 
L 1931 4666 
L 3628 1466 
L 3628 4666 
L 4769 4666 
L 4769 0 
L 3425 0 
L 1728 3200 
L 1728 0 
L 588 0 
L 588 4666 
z
" transform="scale(0.015625)"/>
      <path id="DejaVuSans-Bold-75" d="M 500 1363 
L 500 3500 
L 1625 3500 
L 1625 3150 
Q 1625 2866 1622 2436 
Q 1619 2006 1619 1863 
Q 1619 1441 1641 1255 
Q 1663 1069 1716 984 
Q 1784 875 1895 815 
Q 2006 756 2150 756 
Q 2500 756 2700 1025 
Q 2900 1294 2900 1772 
L 2900 3500 
L 4019 3500 
L 4019 0 
L 2900 0 
L 2900 506 
Q 2647 200 2364 54 
Q 2081 -91 1741 -91 
Q 1134 -91 817 281 
Q 500 653 500 1363 
z
" transform="scale(0.015625)"/>
      <path id="DejaVuSans-Bold-6d" d="M 3781 2919 
Q 3994 3244 4286 3414 
Q 4578 3584 4928 3584 
Q 5531 3584 5847 3212 
Q 6163 2841 6163 2131 
L 6163 0 
L 5038 0 
L 5038 1825 
Q 5041 1866 5042 1909 
Q 5044 1953 5044 2034 
Q 5044 2406 4934 2573 
Q 4825 2741 4581 2741 
Q 4263 2741 4089 2478 
Q 3916 2216 3909 1719 
L 3909 0 
L 2784 0 
L 2784 1825 
Q 2784 2406 2684 2573 
Q 2584 2741 2328 2741 
Q 2006 2741 1831 2477 
Q 1656 2213 1656 1722 
L 1656 0 
L 531 0 
L 531 3500 
L 1656 3500 
L 1656 2988 
Q 1863 3284 2130 3434 
Q 2397 3584 2719 3584 
Q 3081 3584 3359 3409 
Q 3638 3234 3781 2919 
z
" transform="scale(0.015625)"/>
      <path id="DejaVuSans-Bold-62" d="M 2400 722 
Q 2759 722 2948 984 
Q 3138 1247 3138 1747 
Q 3138 2247 2948 2509 
Q 2759 2772 2400 2772 
Q 2041 2772 1848 2508 
Q 1656 2244 1656 1747 
Q 1656 1250 1848 986 
Q 2041 722 2400 722 
z
M 1656 2988 
Q 1888 3294 2169 3439 
Q 2450 3584 2816 3584 
Q 3463 3584 3878 3070 
Q 4294 2556 4294 1747 
Q 4294 938 3878 423 
Q 3463 -91 2816 -91 
Q 2450 -91 2169 54 
Q 1888 200 1656 506 
L 1656 0 
L 538 0 
L 538 4863 
L 1656 4863 
L 1656 2988 
z
" transform="scale(0.015625)"/>
      <path id="DejaVuSans-Bold-72" d="M 3138 2547 
Q 2991 2616 2845 2648 
Q 2700 2681 2553 2681 
Q 2122 2681 1889 2404 
Q 1656 2128 1656 1613 
L 1656 0 
L 538 0 
L 538 3500 
L 1656 3500 
L 1656 2925 
Q 1872 3269 2151 3426 
Q 2431 3584 2822 3584 
Q 2878 3584 2943 3579 
Q 3009 3575 3134 3559 
L 3138 2547 
z
" transform="scale(0.015625)"/>
      <path id="DejaVuSans-Bold-6f" d="M 2203 2784 
Q 1831 2784 1636 2517 
Q 1441 2250 1441 1747 
Q 1441 1244 1636 976 
Q 1831 709 2203 709 
Q 2569 709 2762 976 
Q 2956 1244 2956 1747 
Q 2956 2250 2762 2517 
Q 2569 2784 2203 2784 
z
M 2203 3584 
Q 3106 3584 3614 3096 
Q 4122 2609 4122 1747 
Q 4122 884 3614 396 
Q 3106 -91 2203 -91 
Q 1297 -91 786 396 
Q 275 884 275 1747 
Q 275 2609 786 3096 
Q 1297 3584 2203 3584 
z
" transform="scale(0.015625)"/>
      <path id="DejaVuSans-Bold-66" d="M 2841 4863 
L 2841 4128 
L 2222 4128 
Q 1984 4128 1890 4042 
Q 1797 3956 1797 3744 
L 1797 3500 
L 2753 3500 
L 2753 2700 
L 1797 2700 
L 1797 0 
L 678 0 
L 678 2700 
L 122 2700 
L 122 3500 
L 678 3500 
L 678 3744 
Q 678 4316 997 4589 
Q 1316 4863 1984 4863 
L 2841 4863 
z
" transform="scale(0.015625)"/>
      <path id="DejaVuSans-Bold-4a" d="M 588 4666 
L 1791 4666 
L 1791 453 
Q 1791 -419 1317 -850 
Q 844 -1281 -116 -1281 
L -359 -1281 
L -359 -372 
L -172 -372 
Q 203 -372 395 -162 
Q 588 47 588 453 
L 588 4666 
z
" transform="scale(0.015625)"/>
     </defs>
     <use xlink:href="#DejaVuSans-Bold-4d"/>
     <use xlink:href="#DejaVuSans-Bold-65" transform="translate(99.511719 0)"/>
     <use xlink:href="#DejaVuSans-Bold-61" transform="translate(167.333984 0)"/>
     <use xlink:href="#DejaVuSans-Bold-6e" transform="translate(234.814453 0)"/>
     <use xlink:href="#DejaVuSans-Bold-20" transform="translate(306.005859 0)"/>
     <use xlink:href="#DejaVuSans-Bold-42" transform="translate(340.820312 0)"/>
     <use xlink:href="#DejaVuSans-Bold-61" transform="translate(417.041016 0)"/>
     <use xlink:href="#DejaVuSans-Bold-6e" transform="translate(484.521484 0)"/>
     <use xlink:href="#DejaVuSans-Bold-64" transform="translate(555.712891 0)"/>
     <use xlink:href="#DejaVuSans-Bold-77" transform="translate(627.294922 0)"/>
     <use xlink:href="#DejaVuSans-Bold-69" transform="translate(719.677734 0)"/>
     <use xlink:href="#DejaVuSans-Bold-64" transform="translate(753.955078 0)"/>
     <use xlink:href="#DejaVuSans-Bold-74" transform="translate(825.537109 0)"/>
     <use xlink:href="#DejaVuSans-Bold-68" transform="translate(873.339844 0)"/>
     <use xlink:href="#DejaVuSans-Bold-20" transform="translate(944.53125 0)"/>
     <use xlink:href="#DejaVuSans-Bold-76" transform="translate(979.345703 0)"/>
     <use xlink:href="#DejaVuSans-Bold-73" transform="translate(1044.53125 0)"/>
     <use xlink:href="#DejaVuSans-Bold-20" transform="translate(1104.052734 0)"/>
     <use xlink:href="#DejaVuSans-Bold-4e" transform="translate(1138.867188 0)"/>
     <use xlink:href="#DejaVuSans-Bold-75" transform="translate(1222.558594 0)"/>
     <use xlink:href="#DejaVuSans-Bold-6d" transform="translate(1293.75 0)"/>
     <use xlink:href="#DejaVuSans-Bold-62" transform="translate(1397.949219 0)"/>
     <use xlink:href="#DejaVuSans-Bold-65" transform="translate(1469.53125 0)"/>
     <use xlink:href="#DejaVuSans-Bold-72" transform="translate(1537.353516 0)"/>
     <use xlink:href="#DejaVuSans-Bold-20" transform="translate(1586.669922 0)"/>
     <use xlink:href="#DejaVuSans-Bold-6f" transform="translate(1621.484375 0)"/>
     <use xlink:href="#DejaVuSans-Bold-66" transform="translate(1690.185547 0)"/>
     <use xlink:href="#DejaVuSans-Bold-20" transform="translate(1733.691406 0)"/>
     <use xlink:href="#DejaVuSans-Bold-4a" transform="translate(1768.505859 0)"/>
     <use xlink:href="#DejaVuSans-Bold-6f" transform="translate(1805.712891 0)"/>
     <use xlink:href="#DejaVuSans-Bold-62" transform="translate(1874.414062 0)"/>
     <use xlink:href="#DejaVuSans-Bold-73" transform="translate(1945.996094 0)"/>
    </g>
   </g>
   <g id="legend_1">
    <g id="text_23">
     <!-- IO Depth -->
     <g style="fill: #262626" transform="translate(435.407813 120.065663) scale(0.1 -0.1)">
      <defs>
       <path id="DejaVuSans-49" d="M 628 4666 
L 1259 4666 
L 1259 0 
L 628 0 
L 628 4666 
z
" transform="scale(0.015625)"/>
       <path id="DejaVuSans-4f" d="M 2522 4238 
Q 1834 4238 1429 3725 
Q 1025 3213 1025 2328 
Q 1025 1447 1429 934 
Q 1834 422 2522 422 
Q 3209 422 3611 934 
Q 4013 1447 4013 2328 
Q 4013 3213 3611 3725 
Q 3209 4238 2522 4238 
z
M 2522 4750 
Q 3503 4750 4090 4092 
Q 4678 3434 4678 2328 
Q 4678 1225 4090 567 
Q 3503 -91 2522 -91 
Q 1538 -91 948 565 
Q 359 1222 359 2328 
Q 359 3434 948 4092 
Q 1538 4750 2522 4750 
z
" transform="scale(0.015625)"/>
       <path id="DejaVuSans-44" d="M 1259 4147 
L 1259 519 
L 2022 519 
Q 2988 519 3436 956 
Q 3884 1394 3884 2338 
Q 3884 3275 3436 3711 
Q 2988 4147 2022 4147 
L 1259 4147 
z
M 628 4666 
L 1925 4666 
Q 3281 4666 3915 4102 
Q 4550 3538 4550 2338 
Q 4550 1131 3912 565 
Q 3275 0 1925 0 
L 628 0 
L 628 4666 
z
" transform="scale(0.015625)"/>
      </defs>
      <use xlink:href="#DejaVuSans-49"/>
      <use xlink:href="#DejaVuSans-4f" transform="translate(29.492188 0)"/>
      <use xlink:href="#DejaVuSans-20" transform="translate(108.203125 0)"/>
      <use xlink:href="#DejaVuSans-44" transform="translate(139.990234 0)"/>
      <use xlink:href="#DejaVuSans-65" transform="translate(216.992188 0)"/>
      <use xlink:href="#DejaVuSans-70" transform="translate(278.515625 0)"/>
      <use xlink:href="#DejaVuSans-74" transform="translate(341.992188 0)"/>
      <use xlink:href="#DejaVuSans-68" transform="translate(381.201172 0)"/>
     </g>
    </g>
    <g id="line2d_26">
     <path d="M 434.09375 131.243787 
L 444.09375 131.243787 
L 454.09375 131.243787 
" style="fill: none; stroke: #4c02a1; stroke-width: 1.5; stroke-linecap: round"/>
    </g>
    <g id="text_24">
     <!-- 1 -->
     <g style="fill: #262626" transform="translate(462.09375 134.743787) scale(0.1 -0.1)">
      <use xlink:href="#DejaVuSans-31"/>
     </g>
    </g>
    <g id="line2d_27">
     <path d="M 434.09375 145.921913 
L 444.09375 145.921913 
L 454.09375 145.921913 
" style="fill: none; stroke: #7e03a8; stroke-width: 1.5; stroke-linecap: round"/>
    </g>
    <g id="text_25">
     <!-- 4 -->
     <g style="fill: #262626" transform="translate(462.09375 149.421913) scale(0.1 -0.1)">
      <use xlink:href="#DejaVuSans-34"/>
     </g>
    </g>
    <g id="line2d_28">
     <path d="M 434.09375 160.600037 
L 444.09375 160.600037 
L 454.09375 160.600037 
" style="fill: none; stroke: #aa2395; stroke-width: 1.5; stroke-linecap: round"/>
    </g>
    <g id="text_26">
     <!-- 8 -->
     <g style="fill: #262626" transform="translate(462.09375 164.100037) scale(0.1 -0.1)">
      <use xlink:href="#DejaVuSans-38"/>
     </g>
    </g>
    <g id="line2d_29">
     <path d="M 434.09375 175.278163 
L 444.09375 175.278163 
L 454.09375 175.278163 
" style="fill: none; stroke: #cc4778; stroke-width: 1.5; stroke-linecap: round"/>
    </g>
    <g id="text_27">
     <!-- 16 -->
     <g style="fill: #262626" transform="translate(462.09375 178.778163) scale(0.1 -0.1)">
      <use xlink:href="#DejaVuSans-31"/>
      <use xlink:href="#DejaVuSans-36" transform="translate(63.623047 0)"/>
     </g>
    </g>
    <g id="line2d_30">
     <path d="M 434.09375 189.956288 
L 444.09375 189.956288 
L 454.09375 189.956288 
" style="fill: none; stroke: #e66c5c; stroke-width: 1.5; stroke-linecap: round"/>
    </g>
    <g id="text_28">
     <!-- 32 -->
     <g style="fill: #262626" transform="translate(462.09375 193.456288) scale(0.1 -0.1)">
      <use xlink:href="#DejaVuSans-33"/>
      <use xlink:href="#DejaVuSans-32" transform="translate(63.623047 0)"/>
     </g>
    </g>
    <g id="line2d_31">
     <path d="M 434.09375 204.634412 
L 444.09375 204.634412 
L 454.09375 204.634412 
" style="fill: none; stroke: #f89540; stroke-width: 1.5; stroke-linecap: round"/>
    </g>
    <g id="text_29">
     <!-- 64 -->
     <g style="fill: #262626" transform="translate(462.09375 208.134412) scale(0.1 -0.1)">
      <use xlink:href="#DejaVuSans-36"/>
      <use xlink:href="#DejaVuSans-34" transform="translate(63.623047 0)"/>
     </g>
    </g>
    <g id="line2d_32">
     <path d="M 434.09375 219.312537 
L 444.09375 219.312537 
L 454.09375 219.312537 
" style="fill: none; stroke: #fdc527; stroke-width: 1.5; stroke-linecap: round"/>
    </g>
    <g id="text_30">
     <!-- 128 -->
     <g style="fill: #262626" transform="translate(462.09375 222.812537) scale(0.1 -0.1)">
      <use xlink:href="#DejaVuSans-31"/>
      <use xlink:href="#DejaVuSans-32" transform="translate(63.623047 0)"/>
      <use xlink:href="#DejaVuSans-38" transform="translate(127.246094 0)"/>
     </g>
    </g>
   </g>
  </g>
 </g>
 <defs>
  <clipPath id="p77d1d099bf">
   <rect x="43.78125" y="35.623725" width="357.12" height="266.112"/>
  </clipPath>
 </defs>
</svg>
