<?xml version="1.0" encoding="utf-8" standalone="no"?>
<!DOCTYPE svg PUBLIC "-//W3C//DTD SVG 1.1//EN"
  "http://www.w3.org/Graphics/SVG/1.1/DTD/svg11.dtd">
<svg xmlns:xlink="http://www.w3.org/1999/xlink" width="447.646675pt" height="336.501495pt" viewBox="0 0 447.646675 336.501495" xmlns="http://www.w3.org/2000/svg" version="1.1">
 <metadata>
  <rdf:RDF xmlns:dc="http://purl.org/dc/elements/1.1/" xmlns:cc="http://creativecommons.org/ns#" xmlns:rdf="http://www.w3.org/1999/02/22-rdf-syntax-ns#">
   <cc:Work>
    <dc:type rdf:resource="http://purl.org/dc/dcmitype/StillImage"/>
    <dc:date>2025-10-10T09:33:57.226030</dc:date>
    <dc:format>image/svg+xml</dc:format>
    <dc:creator>
     <cc:Agent>
      <dc:title>Matplotlib v3.10.6, https://matplotlib.org/</dc:title>
     </cc:Agent>
    </dc:creator>
   </cc:Work>
  </rdf:RDF>
 </metadata>
 <defs>
  <style type="text/css">*{stroke-linejoin: round; stroke-linecap: butt}</style>
 </defs>
 <g id="figure_1">
  <g id="patch_1">
   <path d="M 0 336.501495 
L 447.646675 336.501495 
L 447.646675 0 
L 0 0 
z
" style="fill: #ffffff"/>
  </g>
  <g id="axes_1">
   <g id="patch_2">
    <path d="M 43.78125 298.945245 
L 362.03325 298.945245 
L 362.03325 35.490845 
L 43.78125 35.490845 
z
" style="fill: #ffffff"/>
   </g>
   <g id="matplotlib.axis_1">
    <g id="xtick_1">
     <g id="line2d_1">
      <path d="M 182.241536 298.945245 
L 182.241536 35.490845 
" clip-path="url(#pb9d27bc2b2)" style="fill: none; stroke: #cccccc; stroke-width: 0.8; stroke-linecap: round"/>
     </g>
     <g id="text_1">
      <!-- 64 -->
      <g style="fill: #262626" transform="translate(175.879036 313.543682) scale(0.1 -0.1)">
       <defs>
        <path id="DejaVuSans-36" d="M 2113 2584 
Q 1688 2584 1439 2293 
Q 1191 2003 1191 1497 
Q 1191 994 1439 701 
Q 1688 409 2113 409 
Q 2538 409 2786 701 
Q 3034 994 3034 1497 
Q 3034 2003 2786 2293 
Q 2538 2584 2113 2584 
z
M 3366 4563 
L 3366 3988 
Q 3128 4100 2886 4159 
Q 2644 4219 2406 4219 
Q 1781 4219 1451 3797 
Q 1122 3375 1075 2522 
Q 1259 2794 1537 2939 
Q 1816 3084 2150 3084 
Q 2853 3084 3261 2657 
Q 3669 2231 3669 1497 
Q 3669 778 3244 343 
Q 2819 -91 2113 -91 
Q 1303 -91 875 529 
Q 447 1150 447 2328 
Q 447 3434 972 4092 
Q 1497 4750 2381 4750 
Q 2619 4750 2861 4703 
Q 3103 4656 3366 4563 
z
" transform="scale(0.015625)"/>
        <path id="DejaVuSans-34" d="M 2419 4116 
L 825 1625 
L 2419 1625 
L 2419 4116 
z
M 2253 4666 
L 3047 4666 
L 3047 1625 
L 3713 1625 
L 3713 1100 
L 3047 1100 
L 3047 0 
L 2419 0 
L 2419 1100 
L 313 1100 
L 313 1709 
L 2253 4666 
z
" transform="scale(0.015625)"/>
       </defs>
       <use xlink:href="#DejaVuSans-36"/>
       <use xlink:href="#DejaVuSans-34" transform="translate(63.623047 0)"/>
      </g>
     </g>
    </g>
    <g id="xtick_2">
     <g id="line2d_2">
      <path d="M 347.56725 298.945245 
L 347.56725 35.490845 
" clip-path="url(#pb9d27bc2b2)" style="fill: none; stroke: #cccccc; stroke-width: 0.8; stroke-linecap: round"/>
     </g>
     <g id="text_2">
      <!-- 128 -->
      <g style="fill: #262626" transform="translate(338.0235 313.543682) scale(0.1 -0.1)">
       <defs>
        <path id="DejaVuSans-31" d="M 794 531 
L 1825 531 
L 1825 4091 
L 703 3866 
L 703 4441 
L 1819 4666 
L 2450 4666 
L 2450 531 
L 3481 531 
L 3481 0 
L 794 0 
L 794 531 
z
" transform="scale(0.015625)"/>
        <path id="DejaVuSans-32" d="M 1228 531 
L 3431 531 
L 3431 0 
L 469 0 
L 469 531 
Q 828 903 1448 1529 
Q 2069 2156 2228 2338 
Q 2531 2678 2651 2914 
Q 2772 3150 2772 3378 
Q 2772 3750 2511 3984 
Q 2250 4219 1831 4219 
Q 1534 4219 1204 4116 
Q 875 4013 500 3803 
L 500 4441 
Q 881 4594 1212 4672 
Q 1544 4750 1819 4750 
Q 2544 4750 2975 4387 
Q 3406 4025 3406 3419 
Q 3406 3131 3298 2873 
Q 3191 2616 2906 2266 
Q 2828 2175 2409 1742 
Q 1991 1309 1228 531 
z
" transform="scale(0.015625)"/>
        <path id="DejaVuSans-38" d="M 2034 2216 
Q 1584 2216 1326 1975 
Q 1069 1734 1069 1313 
Q 1069 891 1326 650 
Q 1584 409 2034 409 
Q 2484 409 2743 651 
Q 3003 894 3003 1313 
Q 3003 1734 2745 1975 
Q 2488 2216 2034 2216 
z
M 1403 2484 
Q 997 2584 770 2862 
Q 544 3141 544 3541 
Q 544 4100 942 4425 
Q 1341 4750 2034 4750 
Q 2731 4750 3128 4425 
Q 3525 4100 3525 3541 
Q 3525 3141 3298 2862 
Q 3072 2584 2669 2484 
Q 3125 2378 3379 2068 
Q 3634 1759 3634 1313 
Q 3634 634 3220 271 
Q 2806 -91 2034 -91 
Q 1263 -91 848 271 
Q 434 634 434 1313 
Q 434 1759 690 2068 
Q 947 2378 1403 2484 
z
M 1172 3481 
Q 1172 3119 1398 2916 
Q 1625 2713 2034 2713 
Q 2441 2713 2670 2916 
Q 2900 3119 2900 3481 
Q 2900 3844 2670 4047 
Q 2441 4250 2034 4250 
Q 1625 4250 1398 4047 
Q 1172 3844 1172 3481 
z
" transform="scale(0.015625)"/>
       </defs>
       <use xlink:href="#DejaVuSans-31"/>
       <use xlink:href="#DejaVuSans-32" transform="translate(63.623047 0)"/>
       <use xlink:href="#DejaVuSans-38" transform="translate(127.246094 0)"/>
      </g>
     </g>
    </g>
    <g id="xtick_3">
     <g id="line2d_3">
      <path d="M 99.578679 298.945245 
L 99.578679 35.490845 
" clip-path="url(#pb9d27bc2b2)" style="fill: none; stroke: #cccccc; stroke-width: 0.8; stroke-linecap: round"/>
     </g>
     <g id="text_3">
      <!-- 32 -->
      <g style="fill: #262626" transform="translate(93.216179 313.543682) scale(0.1 -0.1)">
       <defs>
        <path id="DejaVuSans-33" d="M 2597 2516 
Q 3050 2419 3304 2112 
Q 3559 1806 3559 1356 
Q 3559 666 3084 287 
Q 2609 -91 1734 -91 
Q 1441 -91 1130 -33 
Q 819 25 488 141 
L 488 750 
Q 750 597 1062 519 
Q 1375 441 1716 441 
Q 2309 441 2620 675 
Q 2931 909 2931 1356 
Q 2931 1769 2642 2001 
Q 2353 2234 1838 2234 
L 1294 2234 
L 1294 2753 
L 1863 2753 
Q 2328 2753 2575 2939 
Q 2822 3125 2822 3475 
Q 2822 3834 2567 4026 
Q 2313 4219 1838 4219 
Q 1578 4219 1281 4162 
Q 984 4106 628 3988 
L 628 4550 
Q 988 4650 1302 4700 
Q 1616 4750 1894 4750 
Q 2613 4750 3031 4423 
Q 3450 4097 3450 3541 
Q 3450 3153 3228 2886 
Q 3006 2619 2597 2516 
z
" transform="scale(0.015625)"/>
       </defs>
       <use xlink:href="#DejaVuSans-33"/>
       <use xlink:href="#DejaVuSans-32" transform="translate(63.623047 0)"/>
      </g>
     </g>
    </g>
    <g id="xtick_4">
     <g id="line2d_4">
      <path d="M 58.24725 298.945245 
L 58.24725 35.490845 
" clip-path="url(#pb9d27bc2b2)" style="fill: none; stroke: #cccccc; stroke-width: 0.8; stroke-linecap: round"/>
     </g>
     <g id="text_4">
      <!-- 16 -->
      <g style="fill: #262626" transform="translate(51.88475 313.543682) scale(0.1 -0.1)">
       <use xlink:href="#DejaVuSans-31"/>
       <use xlink:href="#DejaVuSans-36" transform="translate(63.623047 0)"/>
      </g>
     </g>
    </g>
    <g id="text_5">
     <!-- Number of Jobs -->
     <g style="fill: #262626" transform="translate(164.510375 327.221807) scale(0.1 -0.1)">
      <defs>
       <path id="DejaVuSans-4e" d="M 628 4666 
L 1478 4666 
L 3547 763 
L 3547 4666 
L 4159 4666 
L 4159 0 
L 3309 0 
L 1241 3903 
L 1241 0 
L 628 0 
L 628 4666 
z
" transform="scale(0.015625)"/>
       <path id="DejaVuSans-75" d="M 544 1381 
L 544 3500 
L 1119 3500 
L 1119 1403 
Q 1119 906 1312 657 
Q 1506 409 1894 409 
Q 2359 409 2629 706 
Q 2900 1003 2900 1516 
L 2900 3500 
L 3475 3500 
L 3475 0 
L 2900 0 
L 2900 538 
Q 2691 219 2414 64 
Q 2138 -91 1772 -91 
Q 1169 -91 856 284 
Q 544 659 544 1381 
z
M 1991 3584 
L 1991 3584 
z
" transform="scale(0.015625)"/>
       <path id="DejaVuSans-6d" d="M 3328 2828 
Q 3544 3216 3844 3400 
Q 4144 3584 4550 3584 
Q 5097 3584 5394 3201 
Q 5691 2819 5691 2113 
L 5691 0 
L 5113 0 
L 5113 2094 
Q 5113 2597 4934 2840 
Q 4756 3084 4391 3084 
Q 3944 3084 3684 2787 
Q 3425 2491 3425 1978 
L 3425 0 
L 2847 0 
L 2847 2094 
Q 2847 2600 2669 2842 
Q 2491 3084 2119 3084 
Q 1678 3084 1418 2786 
Q 1159 2488 1159 1978 
L 1159 0 
L 581 0 
L 581 3500 
L 1159 3500 
L 1159 2956 
Q 1356 3278 1631 3431 
Q 1906 3584 2284 3584 
Q 2666 3584 2933 3390 
Q 3200 3197 3328 2828 
z
" transform="scale(0.015625)"/>
       <path id="DejaVuSans-62" d="M 3116 1747 
Q 3116 2381 2855 2742 
Q 2594 3103 2138 3103 
Q 1681 3103 1420 2742 
Q 1159 2381 1159 1747 
Q 1159 1113 1420 752 
Q 1681 391 2138 391 
Q 2594 391 2855 752 
Q 3116 1113 3116 1747 
z
M 1159 2969 
Q 1341 3281 1617 3432 
Q 1894 3584 2278 3584 
Q 2916 3584 3314 3078 
Q 3713 2572 3713 1747 
Q 3713 922 3314 415 
Q 2916 -91 2278 -91 
Q 1894 -91 1617 61 
Q 1341 213 1159 525 
L 1159 0 
L 581 0 
L 581 4863 
L 1159 4863 
L 1159 2969 
z
" transform="scale(0.015625)"/>
       <path id="DejaVuSans-65" d="M 3597 1894 
L 3597 1613 
L 953 1613 
Q 991 1019 1311 708 
Q 1631 397 2203 397 
Q 2534 397 2845 478 
Q 3156 559 3463 722 
L 3463 178 
Q 3153 47 2828 -22 
Q 2503 -91 2169 -91 
Q 1331 -91 842 396 
Q 353 884 353 1716 
Q 353 2575 817 3079 
Q 1281 3584 2069 3584 
Q 2775 3584 3186 3129 
Q 3597 2675 3597 1894 
z
M 3022 2063 
Q 3016 2534 2758 2815 
Q 2500 3097 2075 3097 
Q 1594 3097 1305 2825 
Q 1016 2553 972 2059 
L 3022 2063 
z
" transform="scale(0.015625)"/>
       <path id="DejaVuSans-72" d="M 2631 2963 
Q 2534 3019 2420 3045 
Q 2306 3072 2169 3072 
Q 1681 3072 1420 2755 
Q 1159 2438 1159 1844 
L 1159 0 
L 581 0 
L 581 3500 
L 1159 3500 
L 1159 2956 
Q 1341 3275 1631 3429 
Q 1922 3584 2338 3584 
Q 2397 3584 2469 3576 
Q 2541 3569 2628 3553 
L 2631 2963 
z
" transform="scale(0.015625)"/>
       <path id="DejaVuSans-20" transform="scale(0.015625)"/>
       <path id="DejaVuSans-6f" d="M 1959 3097 
Q 1497 3097 1228 2736 
Q 959 2375 959 1747 
Q 959 1119 1226 758 
Q 1494 397 1959 397 
Q 2419 397 2687 759 
Q 2956 1122 2956 1747 
Q 2956 2369 2687 2733 
Q 2419 3097 1959 3097 
z
M 1959 3584 
Q 2709 3584 3137 3096 
Q 3566 2609 3566 1747 
Q 3566 888 3137 398 
Q 2709 -91 1959 -91 
Q 1206 -91 779 398 
Q 353 888 353 1747 
Q 353 2609 779 3096 
Q 1206 3584 1959 3584 
z
" transform="scale(0.015625)"/>
       <path id="DejaVuSans-66" d="M 2375 4863 
L 2375 4384 
L 1825 4384 
Q 1516 4384 1395 4259 
Q 1275 4134 1275 3809 
L 1275 3500 
L 2222 3500 
L 2222 3053 
L 1275 3053 
L 1275 0 
L 697 0 
L 697 3053 
L 147 3053 
L 147 3500 
L 697 3500 
L 697 3744 
Q 697 4328 969 4595 
Q 1241 4863 1831 4863 
L 2375 4863 
z
" transform="scale(0.015625)"/>
       <path id="DejaVuSans-4a" d="M 628 4666 
L 1259 4666 
L 1259 325 
Q 1259 -519 939 -900 
Q 619 -1281 -91 -1281 
L -331 -1281 
L -331 -750 
L -134 -750 
Q 284 -750 456 -515 
Q 628 -281 628 325 
L 628 4666 
z
" transform="scale(0.015625)"/>
       <path id="DejaVuSans-73" d="M 2834 3397 
L 2834 2853 
Q 2591 2978 2328 3040 
Q 2066 3103 1784 3103 
Q 1356 3103 1142 2972 
Q 928 2841 928 2578 
Q 928 2378 1081 2264 
Q 1234 2150 1697 2047 
L 1894 2003 
Q 2506 1872 2764 1633 
Q 3022 1394 3022 966 
Q 3022 478 2636 193 
Q 2250 -91 1575 -91 
Q 1294 -91 989 -36 
Q 684 19 347 128 
L 347 722 
Q 666 556 975 473 
Q 1284 391 1588 391 
Q 1994 391 2212 530 
Q 2431 669 2431 922 
Q 2431 1156 2273 1281 
Q 2116 1406 1581 1522 
L 1381 1569 
Q 847 1681 609 1914 
Q 372 2147 372 2553 
Q 372 3047 722 3315 
Q 1072 3584 1716 3584 
Q 2034 3584 2315 3537 
Q 2597 3491 2834 3397 
z
" transform="scale(0.015625)"/>
      </defs>
      <use xlink:href="#DejaVuSans-4e"/>
      <use xlink:href="#DejaVuSans-75" transform="translate(74.804688 0)"/>
      <use xlink:href="#DejaVuSans-6d" transform="translate(138.183594 0)"/>
      <use xlink:href="#DejaVuSans-62" transform="translate(235.595703 0)"/>
      <use xlink:href="#DejaVuSans-65" transform="translate(299.072266 0)"/>
      <use xlink:href="#DejaVuSans-72" transform="translate(360.595703 0)"/>
      <use xlink:href="#DejaVuSans-20" transform="translate(401.708984 0)"/>
      <use xlink:href="#DejaVuSans-6f" transform="translate(433.496094 0)"/>
      <use xlink:href="#DejaVuSans-66" transform="translate(494.677734 0)"/>
      <use xlink:href="#DejaVuSans-20" transform="translate(529.882812 0)"/>
      <use xlink:href="#DejaVuSans-4a" transform="translate(561.669922 0)"/>
      <use xlink:href="#DejaVuSans-6f" transform="translate(591.162109 0)"/>
      <use xlink:href="#DejaVuSans-62" transform="translate(652.34375 0)"/>
      <use xlink:href="#DejaVuSans-73" transform="translate(715.820312 0)"/>
     </g>
    </g>
   </g>
   <g id="matplotlib.axis_2">
    <g id="ytick_1">
     <g id="line2d_5">
      <path d="M 43.78125 286.825564 
L 362.03325 286.825564 
" clip-path="url(#pb9d27bc2b2)" style="fill: none; stroke: #cccccc; stroke-width: 0.8; stroke-linecap: round"/>
     </g>
     <g id="text_6">
      <!-- 2.0 -->
      <g style="fill: #262626" transform="translate(20.878125 290.624782) scale(0.1 -0.1)">
       <defs>
        <path id="DejaVuSans-2e" d="M 684 794 
L 1344 794 
L 1344 0 
L 684 0 
L 684 794 
z
" transform="scale(0.015625)"/>
        <path id="DejaVuSans-30" d="M 2034 4250 
Q 1547 4250 1301 3770 
Q 1056 3291 1056 2328 
Q 1056 1369 1301 889 
Q 1547 409 2034 409 
Q 2525 409 2770 889 
Q 3016 1369 3016 2328 
Q 3016 3291 2770 3770 
Q 2525 4250 2034 4250 
z
M 2034 4750 
Q 2819 4750 3233 4129 
Q 3647 3509 3647 2328 
Q 3647 1150 3233 529 
Q 2819 -91 2034 -91 
Q 1250 -91 836 529 
Q 422 1150 422 2328 
Q 422 3509 836 4129 
Q 1250 4750 2034 4750 
z
" transform="scale(0.015625)"/>
       </defs>
       <use xlink:href="#DejaVuSans-32"/>
       <use xlink:href="#DejaVuSans-2e" transform="translate(63.623047 0)"/>
       <use xlink:href="#DejaVuSans-30" transform="translate(95.410156 0)"/>
      </g>
     </g>
    </g>
    <g id="ytick_2">
     <g id="line2d_6">
      <path d="M 43.78125 246.854349 
L 362.03325 246.854349 
" clip-path="url(#pb9d27bc2b2)" style="fill: none; stroke: #cccccc; stroke-width: 0.8; stroke-linecap: round"/>
     </g>
     <g id="text_7">
      <!-- 2.5 -->
      <g style="fill: #262626" transform="translate(20.878125 250.653568) scale(0.1 -0.1)">
       <defs>
        <path id="DejaVuSans-35" d="M 691 4666 
L 3169 4666 
L 3169 4134 
L 1269 4134 
L 1269 2991 
Q 1406 3038 1543 3061 
Q 1681 3084 1819 3084 
Q 2600 3084 3056 2656 
Q 3513 2228 3513 1497 
Q 3513 744 3044 326 
Q 2575 -91 1722 -91 
Q 1428 -91 1123 -41 
Q 819 9 494 109 
L 494 744 
Q 775 591 1075 516 
Q 1375 441 1709 441 
Q 2250 441 2565 725 
Q 2881 1009 2881 1497 
Q 2881 1984 2565 2268 
Q 2250 2553 1709 2553 
Q 1456 2553 1204 2497 
Q 953 2441 691 2322 
L 691 4666 
z
" transform="scale(0.015625)"/>
       </defs>
       <use xlink:href="#DejaVuSans-32"/>
       <use xlink:href="#DejaVuSans-2e" transform="translate(63.623047 0)"/>
       <use xlink:href="#DejaVuSans-35" transform="translate(95.410156 0)"/>
      </g>
     </g>
    </g>
    <g id="ytick_3">
     <g id="line2d_7">
      <path d="M 43.78125 206.883134 
L 362.03325 206.883134 
" clip-path="url(#pb9d27bc2b2)" style="fill: none; stroke: #cccccc; stroke-width: 0.8; stroke-linecap: round"/>
     </g>
     <g id="text_8">
      <!-- 3.0 -->
      <g style="fill: #262626" transform="translate(20.878125 210.682353) scale(0.1 -0.1)">
       <use xlink:href="#DejaVuSans-33"/>
       <use xlink:href="#DejaVuSans-2e" transform="translate(63.623047 0)"/>
       <use xlink:href="#DejaVuSans-30" transform="translate(95.410156 0)"/>
      </g>
     </g>
    </g>
    <g id="ytick_4">
     <g id="line2d_8">
      <path d="M 43.78125 166.911919 
L 362.03325 166.911919 
" clip-path="url(#pb9d27bc2b2)" style="fill: none; stroke: #cccccc; stroke-width: 0.8; stroke-linecap: round"/>
     </g>
     <g id="text_9">
      <!-- 3.5 -->
      <g style="fill: #262626" transform="translate(20.878125 170.711138) scale(0.1 -0.1)">
       <use xlink:href="#DejaVuSans-33"/>
       <use xlink:href="#DejaVuSans-2e" transform="translate(63.623047 0)"/>
       <use xlink:href="#DejaVuSans-35" transform="translate(95.410156 0)"/>
      </g>
     </g>
    </g>
    <g id="ytick_5">
     <g id="line2d_9">
      <path d="M 43.78125 126.940705 
L 362.03325 126.940705 
" clip-path="url(#pb9d27bc2b2)" style="fill: none; stroke: #cccccc; stroke-width: 0.8; stroke-linecap: round"/>
     </g>
     <g id="text_10">
      <!-- 4.0 -->
      <g style="fill: #262626" transform="translate(20.878125 130.739923) scale(0.1 -0.1)">
       <use xlink:href="#DejaVuSans-34"/>
       <use xlink:href="#DejaVuSans-2e" transform="translate(63.623047 0)"/>
       <use xlink:href="#DejaVuSans-30" transform="translate(95.410156 0)"/>
      </g>
     </g>
    </g>
    <g id="ytick_6">
     <g id="line2d_10">
      <path d="M 43.78125 86.96949 
L 362.03325 86.96949 
" clip-path="url(#pb9d27bc2b2)" style="fill: none; stroke: #cccccc; stroke-width: 0.8; stroke-linecap: round"/>
     </g>
     <g id="text_11">
      <!-- 4.5 -->
      <g style="fill: #262626" transform="translate(20.878125 90.768709) scale(0.1 -0.1)">
       <use xlink:href="#DejaVuSans-34"/>
       <use xlink:href="#DejaVuSans-2e" transform="translate(63.623047 0)"/>
       <use xlink:href="#DejaVuSans-35" transform="translate(95.410156 0)"/>
      </g>
     </g>
    </g>
    <g id="ytick_7">
     <g id="line2d_11">
      <path d="M 43.78125 46.998275 
L 362.03325 46.998275 
" clip-path="url(#pb9d27bc2b2)" style="fill: none; stroke: #cccccc; stroke-width: 0.8; stroke-linecap: round"/>
     </g>
     <g id="text_12">
      <!-- 5.0 -->
      <g style="fill: #262626" transform="translate(20.878125 50.797494) scale(0.1 -0.1)">
       <use xlink:href="#DejaVuSans-35"/>
       <use xlink:href="#DejaVuSans-2e" transform="translate(63.623047 0)"/>
       <use xlink:href="#DejaVuSans-30" transform="translate(95.410156 0)"/>
      </g>
     </g>
    </g>
    <g id="text_13">
     <!-- Mean Bandwidth (GiB/s) -->
     <g style="fill: #262626" transform="translate(14.798438 227.522732) rotate(-90) scale(0.1 -0.1)">
      <defs>
       <path id="DejaVuSans-4d" d="M 628 4666 
L 1569 4666 
L 2759 1491 
L 3956 4666 
L 4897 4666 
L 4897 0 
L 4281 0 
L 4281 4097 
L 3078 897 
L 2444 897 
L 1241 4097 
L 1241 0 
L 628 0 
L 628 4666 
z
" transform="scale(0.015625)"/>
       <path id="DejaVuSans-61" d="M 2194 1759 
Q 1497 1759 1228 1600 
Q 959 1441 959 1056 
Q 959 750 1161 570 
Q 1363 391 1709 391 
Q 2188 391 2477 730 
Q 2766 1069 2766 1631 
L 2766 1759 
L 2194 1759 
z
M 3341 1997 
L 3341 0 
L 2766 0 
L 2766 531 
Q 2569 213 2275 61 
Q 1981 -91 1556 -91 
Q 1019 -91 701 211 
Q 384 513 384 1019 
Q 384 1609 779 1909 
Q 1175 2209 1959 2209 
L 2766 2209 
L 2766 2266 
Q 2766 2663 2505 2880 
Q 2244 3097 1772 3097 
Q 1472 3097 1187 3025 
Q 903 2953 641 2809 
L 641 3341 
Q 956 3463 1253 3523 
Q 1550 3584 1831 3584 
Q 2591 3584 2966 3190 
Q 3341 2797 3341 1997 
z
" transform="scale(0.015625)"/>
       <path id="DejaVuSans-6e" d="M 3513 2113 
L 3513 0 
L 2938 0 
L 2938 2094 
Q 2938 2591 2744 2837 
Q 2550 3084 2163 3084 
Q 1697 3084 1428 2787 
Q 1159 2491 1159 1978 
L 1159 0 
L 581 0 
L 581 3500 
L 1159 3500 
L 1159 2956 
Q 1366 3272 1645 3428 
Q 1925 3584 2291 3584 
Q 2894 3584 3203 3211 
Q 3513 2838 3513 2113 
z
" transform="scale(0.015625)"/>
       <path id="DejaVuSans-42" d="M 1259 2228 
L 1259 519 
L 2272 519 
Q 2781 519 3026 730 
Q 3272 941 3272 1375 
Q 3272 1813 3026 2020 
Q 2781 2228 2272 2228 
L 1259 2228 
z
M 1259 4147 
L 1259 2741 
L 2194 2741 
Q 2656 2741 2882 2914 
Q 3109 3088 3109 3444 
Q 3109 3797 2882 3972 
Q 2656 4147 2194 4147 
L 1259 4147 
z
M 628 4666 
L 2241 4666 
Q 2963 4666 3353 4366 
Q 3744 4066 3744 3513 
Q 3744 3084 3544 2831 
Q 3344 2578 2956 2516 
Q 3422 2416 3680 2098 
Q 3938 1781 3938 1306 
Q 3938 681 3513 340 
Q 3088 0 2303 0 
L 628 0 
L 628 4666 
z
" transform="scale(0.015625)"/>
       <path id="DejaVuSans-64" d="M 2906 2969 
L 2906 4863 
L 3481 4863 
L 3481 0 
L 2906 0 
L 2906 525 
Q 2725 213 2448 61 
Q 2172 -91 1784 -91 
Q 1150 -91 751 415 
Q 353 922 353 1747 
Q 353 2572 751 3078 
Q 1150 3584 1784 3584 
Q 2172 3584 2448 3432 
Q 2725 3281 2906 2969 
z
M 947 1747 
Q 947 1113 1208 752 
Q 1469 391 1925 391 
Q 2381 391 2643 752 
Q 2906 1113 2906 1747 
Q 2906 2381 2643 2742 
Q 2381 3103 1925 3103 
Q 1469 3103 1208 2742 
Q 947 2381 947 1747 
z
" transform="scale(0.015625)"/>
       <path id="DejaVuSans-77" d="M 269 3500 
L 844 3500 
L 1563 769 
L 2278 3500 
L 2956 3500 
L 3675 769 
L 4391 3500 
L 4966 3500 
L 4050 0 
L 3372 0 
L 2619 2869 
L 1863 0 
L 1184 0 
L 269 3500 
z
" transform="scale(0.015625)"/>
       <path id="DejaVuSans-69" d="M 603 3500 
L 1178 3500 
L 1178 0 
L 603 0 
L 603 3500 
z
M 603 4863 
L 1178 4863 
L 1178 4134 
L 603 4134 
L 603 4863 
z
" transform="scale(0.015625)"/>
       <path id="DejaVuSans-74" d="M 1172 4494 
L 1172 3500 
L 2356 3500 
L 2356 3053 
L 1172 3053 
L 1172 1153 
Q 1172 725 1289 603 
Q 1406 481 1766 481 
L 2356 481 
L 2356 0 
L 1766 0 
Q 1100 0 847 248 
Q 594 497 594 1153 
L 594 3053 
L 172 3053 
L 172 3500 
L 594 3500 
L 594 4494 
L 1172 4494 
z
" transform="scale(0.015625)"/>
       <path id="DejaVuSans-68" d="M 3513 2113 
L 3513 0 
L 2938 0 
L 2938 2094 
Q 2938 2591 2744 2837 
Q 2550 3084 2163 3084 
Q 1697 3084 1428 2787 
Q 1159 2491 1159 1978 
L 1159 0 
L 581 0 
L 581 4863 
L 1159 4863 
L 1159 2956 
Q 1366 3272 1645 3428 
Q 1925 3584 2291 3584 
Q 2894 3584 3203 3211 
Q 3513 2838 3513 2113 
z
" transform="scale(0.015625)"/>
       <path id="DejaVuSans-28" d="M 1984 4856 
Q 1566 4138 1362 3434 
Q 1159 2731 1159 2009 
Q 1159 1288 1364 580 
Q 1569 -128 1984 -844 
L 1484 -844 
Q 1016 -109 783 600 
Q 550 1309 550 2009 
Q 550 2706 781 3412 
Q 1013 4119 1484 4856 
L 1984 4856 
z
" transform="scale(0.015625)"/>
       <path id="DejaVuSans-47" d="M 3809 666 
L 3809 1919 
L 2778 1919 
L 2778 2438 
L 4434 2438 
L 4434 434 
Q 4069 175 3628 42 
Q 3188 -91 2688 -91 
Q 1594 -91 976 548 
Q 359 1188 359 2328 
Q 359 3472 976 4111 
Q 1594 4750 2688 4750 
Q 3144 4750 3555 4637 
Q 3966 4525 4313 4306 
L 4313 3634 
Q 3963 3931 3569 4081 
Q 3175 4231 2741 4231 
Q 1884 4231 1454 3753 
Q 1025 3275 1025 2328 
Q 1025 1384 1454 906 
Q 1884 428 2741 428 
Q 3075 428 3337 486 
Q 3600 544 3809 666 
z
" transform="scale(0.015625)"/>
       <path id="DejaVuSans-2f" d="M 1625 4666 
L 2156 4666 
L 531 -594 
L 0 -594 
L 1625 4666 
z
" transform="scale(0.015625)"/>
       <path id="DejaVuSans-29" d="M 513 4856 
L 1013 4856 
Q 1481 4119 1714 3412 
Q 1947 2706 1947 2009 
Q 1947 1309 1714 600 
Q 1481 -109 1013 -844 
L 513 -844 
Q 928 -128 1133 580 
Q 1338 1288 1338 2009 
Q 1338 2731 1133 3434 
Q 928 4138 513 4856 
z
" transform="scale(0.015625)"/>
      </defs>
      <use xlink:href="#DejaVuSans-4d"/>
      <use xlink:href="#DejaVuSans-65" transform="translate(86.279297 0)"/>
      <use xlink:href="#DejaVuSans-61" transform="translate(147.802734 0)"/>
      <use xlink:href="#DejaVuSans-6e" transform="translate(209.082031 0)"/>
      <use xlink:href="#DejaVuSans-20" transform="translate(272.460938 0)"/>
      <use xlink:href="#DejaVuSans-42" transform="translate(304.248047 0)"/>
      <use xlink:href="#DejaVuSans-61" transform="translate(372.851562 0)"/>
      <use xlink:href="#DejaVuSans-6e" transform="translate(434.130859 0)"/>
      <use xlink:href="#DejaVuSans-64" transform="translate(497.509766 0)"/>
      <use xlink:href="#DejaVuSans-77" transform="translate(560.986328 0)"/>
      <use xlink:href="#DejaVuSans-69" transform="translate(642.773438 0)"/>
      <use xlink:href="#DejaVuSans-64" transform="translate(670.556641 0)"/>
      <use xlink:href="#DejaVuSans-74" transform="translate(734.033203 0)"/>
      <use xlink:href="#DejaVuSans-68" transform="translate(773.242188 0)"/>
      <use xlink:href="#DejaVuSans-20" transform="translate(836.621094 0)"/>
      <use xlink:href="#DejaVuSans-28" transform="translate(868.408203 0)"/>
      <use xlink:href="#DejaVuSans-47" transform="translate(907.421875 0)"/>
      <use xlink:href="#DejaVuSans-69" transform="translate(984.912109 0)"/>
      <use xlink:href="#DejaVuSans-42" transform="translate(1012.695312 0)"/>
      <use xlink:href="#DejaVuSans-2f" transform="translate(1081.298828 0)"/>
      <use xlink:href="#DejaVuSans-73" transform="translate(1114.990234 0)"/>
      <use xlink:href="#DejaVuSans-29" transform="translate(1167.089844 0)"/>
     </g>
    </g>
   </g>
   <g id="FillBetweenPolyCollection_1"/>
   <g id="FillBetweenPolyCollection_2"/>
   <g id="FillBetweenPolyCollection_3"/>
   <g id="FillBetweenPolyCollection_4"/>
   <g id="FillBetweenPolyCollection_5"/>
   <g id="FillBetweenPolyCollection_6"/>
   <g id="FillBetweenPolyCollection_7"/>
   <g id="line2d_12">
    <path d="M 58.24725 188.39538 
L 99.578679 131.058161 
L 182.241536 278.629805 
L 347.56725 256.632021 
" clip-path="url(#pb9d27bc2b2)" style="fill: none; stroke: #4c02a1; stroke-width: 1.5; stroke-linecap: round"/>
   </g>
   <g id="line2d_13">
    <path d="M 58.24725 151.906184 
L 99.578679 185.184146 
L 182.241536 211.713145 
L 347.56725 247.878127 
" clip-path="url(#pb9d27bc2b2)" style="fill: none; stroke: #7e03a8; stroke-width: 1.5; stroke-linecap: round"/>
   </g>
   <g id="line2d_14">
    <path d="M 58.24725 91.087656 
L 99.578679 184.052857 
L 182.241536 286.970045 
L 347.56725 281.298908 
" clip-path="url(#pb9d27bc2b2)" style="fill: none; stroke: #aa2395; stroke-width: 1.5; stroke-linecap: round"/>
   </g>
   <g id="line2d_15">
    <path d="M 58.24725 68.160269 
L 99.578679 190.364834 
L 182.241536 272.533364 
L 347.56725 253.128765 
" clip-path="url(#pb9d27bc2b2)" style="fill: none; stroke: #cc4778; stroke-width: 1.5; stroke-linecap: round"/>
   </g>
   <g id="line2d_16">
    <path d="M 58.24725 47.466045 
L 99.578679 201.546514 
L 182.241536 239.615966 
L 347.56725 256.764996 
" clip-path="url(#pb9d27bc2b2)" style="fill: none; stroke: #e66c5c; stroke-width: 1.5; stroke-linecap: round"/>
   </g>
   <g id="line2d_17">
    <path d="M 58.24725 64.482895 
L 99.578679 203.887544 
L 182.241536 256.304239 
L 347.56725 262.641457 
" clip-path="url(#pb9d27bc2b2)" style="fill: none; stroke: #f89540; stroke-width: 1.5; stroke-linecap: round"/>
   </g>
   <g id="line2d_18">
    <path d="M 58.24725 125.154182 
L 99.578679 229.099426 
L 182.241536 254.986419 
L 347.56725 240.307497 
" clip-path="url(#pb9d27bc2b2)" style="fill: none; stroke: #fdc527; stroke-width: 1.5; stroke-linecap: round"/>
   </g>
   <g id="line2d_19"/>
   <g id="line2d_20"/>
   <g id="line2d_21"/>
   <g id="line2d_22"/>
   <g id="line2d_23"/>
   <g id="line2d_24"/>
   <g id="line2d_25"/>
   <g id="text_14">
    <path d="M 95.927782 139.422862 
L 96.869791 138.116057 
L 92.357446 134.863342 
L 91.617483 136.491069 
L 90.888663 135.965701 
L 91.623145 134.345578 
L 92.199679 133.545778 
L 97.440843 137.323861 
L 98.382851 136.017056 
L 99.0559 136.502222 
L 96.600831 139.908028 
L 95.927782 139.422862 
z
" clip-path="url(#pb9d27bc2b2)" style="fill: #4c02a1; stroke: #ffffff; stroke-width: 5"/>
    <path d="M 95.927782 139.422862 
L 96.869791 138.116057 
L 92.357446 134.863342 
L 91.617483 136.491069 
L 90.888663 135.965701 
L 91.623145 134.345578 
L 92.199679 133.545778 
L 97.440843 137.323861 
L 98.382851 136.017056 
L 99.0559 136.502222 
L 96.600831 139.908028 
L 95.927782 139.422862 
z
" clip-path="url(#pb9d27bc2b2)" style="fill: #4c02a1"/>
   </g>
   <g id="text_15">
    <path d="M 132.99241 192.051282 
L 129.431549 194.996211 
L 131.803039 195.757294 
L 132.99241 192.051282 
z
M 133.008049 191.153754 
L 134.189331 191.532863 
L 132.737353 196.057143 
L 133.728202 196.375136 
L 133.477531 197.15621 
L 132.486683 196.838217 
L 131.961469 198.474754 
L 131.027155 198.174905 
L 131.552369 196.538368 
L 128.419145 195.532822 
L 128.709923 194.626776 
L 133.008049 191.153754 
z
" clip-path="url(#pb9d27bc2b2)" style="fill: #7e03a8; stroke: #ffffff; stroke-width: 5"/>
    <path d="M 132.99241 192.051282 
L 129.431549 194.996211 
L 131.803039 195.757294 
L 132.99241 192.051282 
z
M 133.008049 191.153754 
L 134.189331 191.532863 
L 132.737353 196.057143 
L 133.728202 196.375136 
L 133.477531 197.15621 
L 132.486683 196.838217 
L 131.961469 198.474754 
L 131.027155 198.174905 
L 131.552369 196.538368 
L 128.419145 195.532822 
L 128.709923 194.626776 
L 133.008049 191.153754 
z
" clip-path="url(#pb9d27bc2b2)" style="fill: #7e03a8"/>
   </g>
   <g id="text_16">
    <path d="M 167.650135 267.680592 
Q 167.209829 267.132399 166.663799 267.053911 
Q 166.118747 266.976641 165.605883 267.388573 
Q 165.0918 267.801483 165.049677 268.35037 
Q 165.008532 268.900476 165.448839 269.448668 
Q 165.889146 269.99686 166.437372 270.075588 
Q 166.987796 270.154556 167.498223 269.744581 
Q 168.011088 269.33265 168.052233 268.782544 
Q 168.094356 268.233657 167.650135 267.680592 
z
M 167.359206 266.649677 
Q 167.083772 266.05724 167.200323 265.508696 
Q 167.31907 264.960391 167.806352 264.569008 
Q 168.487329 264.022049 169.272672 264.188895 
Q 170.058994 264.356959 170.737067 265.201175 
Q 171.419053 266.050264 171.411585 266.851891 
Q 171.404117 267.653518 170.72314 268.200476 
Q 170.235858 268.59186 169.673868 268.588318 
Q 169.114076 268.585015 168.597936 268.191925 
Q 168.914984 268.851143 168.785869 269.463889 
Q 168.658951 270.076876 168.115631 270.513269 
Q 167.28847 271.177643 166.44118 271.028486 
Q 165.595107 270.878352 164.839737 269.937898 
Q 164.085344 268.998662 164.120274 268.138904 
Q 164.1574 267.279387 164.984561 266.615013 
Q 165.52788 266.17862 166.154791 266.188136 
Q 166.783899 266.197892 167.359206 266.649677 
z
M 168.347732 265.392748 
Q 167.906742 265.74695 167.880579 266.220892 
Q 167.855393 266.696051 168.255583 267.194297 
Q 168.653816 267.690107 169.125179 267.770448 
Q 169.59752 267.852008 170.03851 267.497806 
Q 170.480719 267.142625 170.502969 266.663811 
Q 170.526197 266.186214 170.127964 265.690405 
Q 169.727774 265.192159 169.258368 265.114254 
Q 168.789941 265.037567 168.347732 265.392748 
z
" clip-path="url(#pb9d27bc2b2)" style="fill: #aa2395; stroke: #ffffff; stroke-width: 5"/>
    <path d="M 167.650135 267.680592 
Q 167.209829 267.132399 166.663799 267.053911 
Q 166.118747 266.976641 165.605883 267.388573 
Q 165.0918 267.801483 165.049677 268.35037 
Q 165.008532 268.900476 165.448839 269.448668 
Q 165.889146 269.99686 166.437372 270.075588 
Q 166.987796 270.154556 167.498223 269.744581 
Q 168.011088 269.33265 168.052233 268.782544 
Q 168.094356 268.233657 167.650135 267.680592 
z
M 167.359206 266.649677 
Q 167.083772 266.05724 167.200323 265.508696 
Q 167.31907 264.960391 167.806352 264.569008 
Q 168.487329 264.022049 169.272672 264.188895 
Q 170.058994 264.356959 170.737067 265.201175 
Q 171.419053 266.050264 171.411585 266.851891 
Q 171.404117 267.653518 170.72314 268.200476 
Q 170.235858 268.59186 169.673868 268.588318 
Q 169.114076 268.585015 168.597936 268.191925 
Q 168.914984 268.851143 168.785869 269.463889 
Q 168.658951 270.076876 168.115631 270.513269 
Q 167.28847 271.177643 166.44118 271.028486 
Q 165.595107 270.878352 164.839737 269.937898 
Q 164.085344 268.998662 164.120274 268.138904 
Q 164.1574 267.279387 164.984561 266.615013 
Q 165.52788 266.17862 166.154791 266.188136 
Q 166.783899 266.197892 167.359206 266.649677 
z
M 168.347732 265.392748 
Q 167.906742 265.74695 167.880579 266.220892 
Q 167.855393 266.696051 168.255583 267.194297 
Q 168.653816 267.690107 169.125179 267.770448 
Q 169.59752 267.852008 170.03851 267.497806 
Q 170.480719 267.142625 170.502969 266.663811 
Q 170.526197 266.186214 170.127964 265.690405 
Q 169.727774 265.192159 169.258368 265.114254 
Q 168.789941 265.037567 168.347732 265.392748 
z
" clip-path="url(#pb9d27bc2b2)" style="fill: #aa2395"/>
   </g>
   <g id="text_17">
    <path d="M 198.045242 272.621387 
L 199.645196 272.433597 
L 198.996766 266.909021 
L 197.296575 267.462551 
L 197.191843 266.570239 
L 198.882722 266.017801 
L 199.861938 265.902869 
L 200.615101 272.319757 
L 202.215055 272.131968 
L 202.311773 272.955999 
L 198.14196 273.445418 
L 198.045242 272.621387 
z
M 206.037116 268.453532 
Q 205.377581 268.530943 205.044175 269.027884 
Q 204.712138 269.523092 204.804303 270.308326 
Q 204.895921 271.088906 205.334147 271.498425 
Q 205.773743 271.906211 206.433278 271.8288 
Q 207.092813 271.751389 207.424485 271.253078 
Q 207.755975 270.753216 207.664357 269.972636 
Q 207.572193 269.187402 207.134513 268.782537 
Q 206.696651 268.376121 206.037116 268.453532 
z
M 207.621119 265.154201 
L 207.725852 266.046513 
Q 207.336112 265.916056 206.949818 265.868576 
Q 206.563343 265.819544 206.194003 265.862894 
Q 205.224098 265.976734 204.788853 266.69172 
Q 204.35516 267.406525 204.437592 268.738812 
Q 204.673588 268.283195 205.078591 268.007541 
Q 205.485146 267.731705 206.003463 267.670869 
Q 207.094411 267.542823 207.80534 268.131147 
Q 208.516087 268.717919 208.64978 269.856975 
Q 208.780741 270.972754 208.200439 271.725218 
Q 207.619954 272.476131 206.52435 272.604724 
Q 205.267353 272.75226 204.490234 271.868072 
Q 203.712932 270.982332 203.498367 269.154256 
Q 203.296917 267.437913 203.991786 266.321172 
Q 204.686656 265.204431 206.058489 265.043417 
Q 206.427828 265.000067 206.811936 265.028925 
Q 207.196044 265.057783 207.621119 265.154201 
z
" clip-path="url(#pb9d27bc2b2)" style="fill: #cc4778; stroke: #ffffff; stroke-width: 5"/>
    <path d="M 198.045242 272.621387 
L 199.645196 272.433597 
L 198.996766 266.909021 
L 197.296575 267.462551 
L 197.191843 266.570239 
L 198.882722 266.017801 
L 199.861938 265.902869 
L 200.615101 272.319757 
L 202.215055 272.131968 
L 202.311773 272.955999 
L 198.14196 273.445418 
L 198.045242 272.621387 
z
M 206.037116 268.453532 
Q 205.377581 268.530943 205.044175 269.027884 
Q 204.712138 269.523092 204.804303 270.308326 
Q 204.895921 271.088906 205.334147 271.498425 
Q 205.773743 271.906211 206.433278 271.8288 
Q 207.092813 271.751389 207.424485 271.253078 
Q 207.755975 270.753216 207.664357 269.972636 
Q 207.572193 269.187402 207.134513 268.782537 
Q 206.696651 268.376121 206.037116 268.453532 
z
M 207.621119 265.154201 
L 207.725852 266.046513 
Q 207.336112 265.916056 206.949818 265.868576 
Q 206.563343 265.819544 206.194003 265.862894 
Q 205.224098 265.976734 204.788853 266.69172 
Q 204.35516 267.406525 204.437592 268.738812 
Q 204.673588 268.283195 205.078591 268.007541 
Q 205.485146 267.731705 206.003463 267.670869 
Q 207.094411 267.542823 207.80534 268.131147 
Q 208.516087 268.717919 208.64978 269.856975 
Q 208.780741 270.972754 208.200439 271.725218 
Q 207.619954 272.476131 206.52435 272.604724 
Q 205.267353 272.75226 204.490234 271.868072 
Q 203.712932 270.982332 203.498367 269.154256 
Q 203.296917 267.437913 203.991786 266.321172 
Q 204.686656 265.204431 206.058489 265.043417 
Q 206.427828 265.000067 206.811936 265.028925 
Q 207.196044 265.057783 207.621119 265.154201 
z
" clip-path="url(#pb9d27bc2b2)" style="fill: #cc4778"/>
   </g>
   <g id="text_18">
    <path d="M 236.539121 244.070024 
Q 237.227518 244.293806 237.572783 244.811882 
Q 237.919764 245.328564 237.847219 246.027936 
Q 237.735983 247.100308 236.936657 247.612759 
Q 236.137493 248.123657 234.777602 247.982597 
Q 234.322233 247.935362 233.848239 247.795084 
Q 233.374245 247.654806 232.878518 247.421163 
L 232.976695 246.474678 
Q 233.35922 246.754702 233.831544 246.926225 
Q 234.305422 247.097909 234.835391 247.152882 
Q 235.757009 247.24848 236.278076 246.934943 
Q 236.799144 246.621406 236.871205 245.926696 
Q 236.937786 245.284827 236.526034 244.877672 
Q 236.114444 244.468962 235.314051 244.385938 
L 234.468587 244.298239 
L 234.552256 243.49163 
L 235.436573 243.583359 
Q 236.159258 243.658322 236.573121 243.409067 
Q 236.986984 243.159812 237.043408 242.615856 
Q 237.101283 242.057912 236.735925 241.718404 
Q 236.372281 241.377503 235.634055 241.300928 
Q 235.229973 241.259013 234.759198 241.299721 
Q 234.288584 241.338874 233.71628 241.464874 
L 233.806881 240.591435 
Q 234.3825 240.494055 234.878567 240.466967 
Q 235.374634 240.43988 235.806691 240.484696 
Q 236.924133 240.600607 237.521056 241.176204 
Q 238.119695 241.750408 238.030062 242.614522 
Q 237.967512 243.217537 237.579444 243.596709 
Q 237.191377 243.975881 236.539121 244.070024 
z
M 240.41982 247.590768 
L 243.843637 247.945916 
L 243.758034 248.771176 
L 239.154608 248.293668 
L 239.240212 247.468409 
Q 239.858126 246.948135 240.922624 246.075181 
Q 241.988838 245.200835 242.26529 244.94361 
Q 242.791012 244.464042 243.015558 244.116605 
Q 243.241657 243.76933 243.278413 243.414981 
Q 243.338384 242.836833 242.970471 242.431083 
Q 242.60272 242.023779 241.951526 241.956232 
Q 241.48994 241.908352 240.960462 242.015231 
Q 240.432538 242.122271 239.815874 242.388191 
L 239.918726 241.396636 
Q 240.535527 241.22027 241.062529 241.152407 
Q 241.591085 241.084704 242.018479 241.129037 
Q 243.145246 241.245916 243.75657 241.879558 
Q 244.368055 242.511647 244.270361 243.453468 
Q 244.223932 243.901067 244.01449 244.284629 
Q 243.806764 244.666799 243.307404 245.164811 
Q 243.171509 245.293665 242.450511 245.899069 
Q 241.731067 246.504635 240.41982 247.590768 
z
" clip-path="url(#pb9d27bc2b2)" style="fill: #e66c5c; stroke: #ffffff; stroke-width: 5"/>
    <path d="M 236.539121 244.070024 
Q 237.227518 244.293806 237.572783 244.811882 
Q 237.919764 245.328564 237.847219 246.027936 
Q 237.735983 247.100308 236.936657 247.612759 
Q 236.137493 248.123657 234.777602 247.982597 
Q 234.322233 247.935362 233.848239 247.795084 
Q 233.374245 247.654806 232.878518 247.421163 
L 232.976695 246.474678 
Q 233.35922 246.754702 233.831544 246.926225 
Q 234.305422 247.097909 234.835391 247.152882 
Q 235.757009 247.24848 236.278076 246.934943 
Q 236.799144 246.621406 236.871205 245.926696 
Q 236.937786 245.284827 236.526034 244.877672 
Q 236.114444 244.468962 235.314051 244.385938 
L 234.468587 244.298239 
L 234.552256 243.49163 
L 235.436573 243.583359 
Q 236.159258 243.658322 236.573121 243.409067 
Q 236.986984 243.159812 237.043408 242.615856 
Q 237.101283 242.057912 236.735925 241.718404 
Q 236.372281 241.377503 235.634055 241.300928 
Q 235.229973 241.259013 234.759198 241.299721 
Q 234.288584 241.338874 233.71628 241.464874 
L 233.806881 240.591435 
Q 234.3825 240.494055 234.878567 240.466967 
Q 235.374634 240.43988 235.806691 240.484696 
Q 236.924133 240.600607 237.521056 241.176204 
Q 238.119695 241.750408 238.030062 242.614522 
Q 237.967512 243.217537 237.579444 243.596709 
Q 237.191377 243.975881 236.539121 244.070024 
z
M 240.41982 247.590768 
L 243.843637 247.945916 
L 243.758034 248.771176 
L 239.154608 248.293668 
L 239.240212 247.468409 
Q 239.858126 246.948135 240.922624 246.075181 
Q 241.988838 245.200835 242.26529 244.94361 
Q 242.791012 244.464042 243.015558 244.116605 
Q 243.241657 243.76933 243.278413 243.414981 
Q 243.338384 242.836833 242.970471 242.431083 
Q 242.60272 242.023779 241.951526 241.956232 
Q 241.48994 241.908352 240.960462 242.015231 
Q 240.432538 242.122271 239.815874 242.388191 
L 239.918726 241.396636 
Q 240.535527 241.22027 241.062529 241.152407 
Q 241.591085 241.084704 242.018479 241.129037 
Q 243.145246 241.245916 243.75657 241.879558 
Q 244.368055 242.511647 244.270361 243.453468 
Q 244.223932 243.901067 244.01449 244.284629 
Q 243.806764 244.666799 243.307404 245.164811 
Q 243.171509 245.293665 242.450511 245.899069 
Q 241.731067 246.504635 240.41982 247.590768 
z
" clip-path="url(#pb9d27bc2b2)" style="fill: #e66c5c"/>
   </g>
   <g id="text_19">
    <path d="M 271.504216 258.446767 
Q 270.84064 258.421331 270.434447 258.860782 
Q 270.029875 259.298732 269.999592 260.088777 
Q 269.969487 260.874137 270.339167 261.346456 
Q 270.710468 261.817274 271.374043 261.84271 
Q 272.037618 261.868146 272.44231 261.427074 
Q 272.847062 260.98444 272.877166 260.199079 
Q 272.90745 259.409034 272.53759 258.941399 
Q 272.167791 258.472203 271.504216 258.446767 
z
M 273.579033 255.431839 
L 273.54462 256.329618 
Q 273.179721 256.140502 272.805404 256.033899 
Q 272.431148 255.925734 272.059546 255.91149 
Q 271.0837 255.874084 270.543197 256.513225 
Q 270.004255 257.152425 269.87982 258.481447 
Q 270.183388 258.067771 270.626123 257.858013 
Q 271.070418 257.648315 271.59191 257.668304 
Q 272.689542 257.710378 273.301018 258.401495 
Q 273.912555 259.09105 273.868625 260.237083 
Q 273.825593 261.359696 273.135984 262.013449 
Q 272.446434 262.66564 271.344119 262.623387 
Q 270.079422 262.574909 269.44827 261.581254 
Q 268.817177 260.586038 268.887679 258.746764 
Q 268.953873 257.019907 269.812964 256.023958 
Q 270.672056 255.028008 272.052292 255.080915 
Q 272.423894 255.095159 272.798929 255.183026 
Q 273.173963 255.270893 273.579033 255.431839 
z
M 278.431315 256.316786 
L 275.793433 260.110718 
L 278.28223 260.206117 
L 278.431315 256.316786 
z
M 278.205047 255.448107 
L 279.444762 255.495627 
L 279.26276 260.243703 
L 280.302621 260.283562 
L 280.2712 261.103273 
L 279.231339 261.063413 
L 279.165505 262.780902 
L 278.184975 262.743317 
L 278.250809 261.025828 
L 274.962599 260.899785 
L 274.999047 259.948921 
L 278.205047 255.448107 
z
" clip-path="url(#pb9d27bc2b2)" style="fill: #f89540; stroke: #ffffff; stroke-width: 5"/>
    <path d="M 271.504216 258.446767 
Q 270.84064 258.421331 270.434447 258.860782 
Q 270.029875 259.298732 269.999592 260.088777 
Q 269.969487 260.874137 270.339167 261.346456 
Q 270.710468 261.817274 271.374043 261.84271 
Q 272.037618 261.868146 272.44231 261.427074 
Q 272.847062 260.98444 272.877166 260.199079 
Q 272.90745 259.409034 272.53759 258.941399 
Q 272.167791 258.472203 271.504216 258.446767 
z
M 273.579033 255.431839 
L 273.54462 256.329618 
Q 273.179721 256.140502 272.805404 256.033899 
Q 272.431148 255.925734 272.059546 255.91149 
Q 271.0837 255.874084 270.543197 256.513225 
Q 270.004255 257.152425 269.87982 258.481447 
Q 270.183388 258.067771 270.626123 257.858013 
Q 271.070418 257.648315 271.59191 257.668304 
Q 272.689542 257.710378 273.301018 258.401495 
Q 273.912555 259.09105 273.868625 260.237083 
Q 273.825593 261.359696 273.135984 262.013449 
Q 272.446434 262.66564 271.344119 262.623387 
Q 270.079422 262.574909 269.44827 261.581254 
Q 268.817177 260.586038 268.887679 258.746764 
Q 268.953873 257.019907 269.812964 256.023958 
Q 270.672056 255.028008 272.052292 255.080915 
Q 272.423894 255.095159 272.798929 255.183026 
Q 273.173963 255.270893 273.579033 255.431839 
z
M 278.431315 256.316786 
L 275.793433 260.110718 
L 278.28223 260.206117 
L 278.431315 256.316786 
z
M 278.205047 255.448107 
L 279.444762 255.495627 
L 279.26276 260.243703 
L 280.302621 260.283562 
L 280.2712 261.103273 
L 279.231339 261.063413 
L 279.165505 262.780902 
L 278.184975 262.743317 
L 278.250809 261.025828 
L 274.962599 260.899785 
L 274.999047 259.948921 
L 278.205047 255.448107 
z
" clip-path="url(#pb9d27bc2b2)" style="fill: #f89540"/>
   </g>
   <g id="text_20">
    <path d="M 302.217372 246.271296 
L 303.821997 246.128825 
L 303.33005 240.588121 
L 301.614887 241.093352 
L 301.535429 240.198435 
L 303.241254 239.694033 
L 304.223328 239.606837 
L 304.794733 246.042457 
L 306.399358 245.899986 
L 306.472736 246.726422 
L 302.29075 247.097732 
L 302.217372 246.271296 
z
M 309.230214 245.64864 
L 312.658913 245.344213 
L 312.732291 246.17065 
L 308.122301 246.579961 
L 308.048924 245.753525 
Q 308.556257 245.124943 309.434706 244.064974 
Q 310.314573 243.003311 310.536887 242.698079 
Q 310.961485 242.12704 311.115638 241.743152 
Q 311.271348 241.359127 311.239841 241.004273 
Q 311.188435 240.4253 310.749885 240.097175 
Q 310.311196 239.767493 309.659074 239.825394 
Q 309.19683 239.866435 308.697459 240.072344 
Q 308.199644 240.278115 307.645022 240.656774 
L 307.556858 239.663805 
Q 308.128695 239.37303 308.633078 239.205893 
Q 309.139016 239.038617 309.56702 239.000615 
Q 310.695394 238.90043 311.416354 239.405836 
Q 312.137177 239.909686 312.220919 240.85285 
Q 312.260717 241.301087 312.12828 241.717557 
Q 311.997262 242.132332 311.60206 242.716447 
Q 311.493238 242.868856 310.900951 243.600668 
Q 310.31022 244.332342 309.230214 245.64864 
z
M 316.589182 242.352083 
Q 315.888813 242.414268 315.52057 242.825007 
Q 315.153885 243.235608 315.212062 243.890843 
Q 315.270377 244.547634 315.703669 244.887207 
Q 316.138517 245.226642 316.838887 245.164457 
Q 317.539257 245.102273 317.908917 244.689839 
Q 318.279996 244.275711 318.222095 243.623588 
Q 318.163918 242.968354 317.72907 242.628919 
Q 317.295778 242.289346 316.589182 242.352083 
z
M 315.570074 242.02217 
Q 314.924366 241.922637 314.532652 241.521332 
Q 314.142357 241.118334 314.087082 240.495783 
Q 314.009835 239.625768 314.584362 239.064946 
Q 315.160446 238.503987 316.239015 238.408223 
Q 317.32381 238.311906 317.986603 238.762869 
Q 318.649396 239.213831 318.726643 240.083846 
Q 318.781918 240.706397 318.467174 241.171995 
Q 318.153849 241.635898 317.540448 241.847225 
Q 318.264804 241.949188 318.702962 242.396565 
Q 319.142538 242.842248 319.204169 243.536392 
Q 319.297999 244.593172 318.703821 245.215347 
Q 318.109504 245.835965 316.907981 245.942646 
Q 315.708014 246.049188 315.012093 245.543128 
Q 314.317591 245.035372 314.223762 243.978592 
Q 314.16213 243.284448 314.517863 242.768151 
Q 314.875014 242.25016 315.570074 242.02217 
z
M 315.072778 240.502384 
Q 315.122802 241.065792 315.502595 241.350506 
Q 315.883945 241.635082 316.520503 241.578564 
Q 317.153949 241.522321 317.482307 241.174732 
Q 317.812222 240.827004 317.762198 240.263596 
Q 317.712036 239.698631 317.326017 239.414469 
Q 316.941555 239.130169 316.308109 239.186412 
Q 315.671551 239.24293 315.346305 239.590244 
Q 315.022616 239.937419 315.072778 240.502384 
z
" clip-path="url(#pb9d27bc2b2)" style="fill: #fdc527; stroke: #ffffff; stroke-width: 5"/>
    <path d="M 302.217372 246.271296 
L 303.821997 246.128825 
L 303.33005 240.588121 
L 301.614887 241.093352 
L 301.535429 240.198435 
L 303.241254 239.694033 
L 304.223328 239.606837 
L 304.794733 246.042457 
L 306.399358 245.899986 
L 306.472736 246.726422 
L 302.29075 247.097732 
L 302.217372 246.271296 
z
M 309.230214 245.64864 
L 312.658913 245.344213 
L 312.732291 246.17065 
L 308.122301 246.579961 
L 308.048924 245.753525 
Q 308.556257 245.124943 309.434706 244.064974 
Q 310.314573 243.003311 310.536887 242.698079 
Q 310.961485 242.12704 311.115638 241.743152 
Q 311.271348 241.359127 311.239841 241.004273 
Q 311.188435 240.4253 310.749885 240.097175 
Q 310.311196 239.767493 309.659074 239.825394 
Q 309.19683 239.866435 308.697459 240.072344 
Q 308.199644 240.278115 307.645022 240.656774 
L 307.556858 239.663805 
Q 308.128695 239.37303 308.633078 239.205893 
Q 309.139016 239.038617 309.56702 239.000615 
Q 310.695394 238.90043 311.416354 239.405836 
Q 312.137177 239.909686 312.220919 240.85285 
Q 312.260717 241.301087 312.12828 241.717557 
Q 311.997262 242.132332 311.60206 242.716447 
Q 311.493238 242.868856 310.900951 243.600668 
Q 310.31022 244.332342 309.230214 245.64864 
z
M 316.589182 242.352083 
Q 315.888813 242.414268 315.52057 242.825007 
Q 315.153885 243.235608 315.212062 243.890843 
Q 315.270377 244.547634 315.703669 244.887207 
Q 316.138517 245.226642 316.838887 245.164457 
Q 317.539257 245.102273 317.908917 244.689839 
Q 318.279996 244.275711 318.222095 243.623588 
Q 318.163918 242.968354 317.72907 242.628919 
Q 317.295778 242.289346 316.589182 242.352083 
z
M 315.570074 242.02217 
Q 314.924366 241.922637 314.532652 241.521332 
Q 314.142357 241.118334 314.087082 240.495783 
Q 314.009835 239.625768 314.584362 239.064946 
Q 315.160446 238.503987 316.239015 238.408223 
Q 317.32381 238.311906 317.986603 238.762869 
Q 318.649396 239.213831 318.726643 240.083846 
Q 318.781918 240.706397 318.467174 241.171995 
Q 318.153849 241.635898 317.540448 241.847225 
Q 318.264804 241.949188 318.702962 242.396565 
Q 319.142538 242.842248 319.204169 243.536392 
Q 319.297999 244.593172 318.703821 245.215347 
Q 318.109504 245.835965 316.907981 245.942646 
Q 315.708014 246.049188 315.012093 245.543128 
Q 314.317591 245.035372 314.223762 243.978592 
Q 314.16213 243.284448 314.517863 242.768151 
Q 314.875014 242.25016 315.570074 242.02217 
z
M 315.072778 240.502384 
Q 315.122802 241.065792 315.502595 241.350506 
Q 315.883945 241.635082 316.520503 241.578564 
Q 317.153949 241.522321 317.482307 241.174732 
Q 317.812222 240.827004 317.762198 240.263596 
Q 317.712036 239.698631 317.326017 239.414469 
Q 316.941555 239.130169 316.308109 239.186412 
Q 315.671551 239.24293 315.346305 239.590244 
Q 315.022616 239.937419 315.072778 240.502384 
z
" clip-path="url(#pb9d27bc2b2)" style="fill: #fdc527"/>
   </g>
   <g id="patch_3">
    <path d="M 43.78125 298.945245 
L 43.78125 35.490845 
" style="fill: none; stroke: #cccccc; stroke-width: 0.8; stroke-linejoin: miter; stroke-linecap: square"/>
   </g>
   <g id="patch_4">
    <path d="M 362.03325 298.945245 
L 362.03325 35.490845 
" style="fill: none; stroke: #cccccc; stroke-width: 0.8; stroke-linejoin: miter; stroke-linecap: square"/>
   </g>
   <g id="patch_5">
    <path d="M 43.78125 298.945245 
L 362.03325 298.945245 
" style="fill: none; stroke: #cccccc; stroke-width: 0.8; stroke-linejoin: miter; stroke-linecap: square"/>
   </g>
   <g id="patch_6">
    <path d="M 43.78125 35.490845 
L 362.03325 35.490845 
" style="fill: none; stroke: #cccccc; stroke-width: 0.8; stroke-linejoin: miter; stroke-linecap: square"/>
   </g>
   <g id="text_21">
    <!-- Block Size = 1M, Read-Write Type = Sequential Read-heavy 4:1 -->
    <g style="fill: #262626; opacity: 0.75" transform="translate(44.218969 30.776614) scale(0.1 -0.1)">
     <defs>
      <path id="DejaVuSans-6c" d="M 603 4863 
L 1178 4863 
L 1178 0 
L 603 0 
L 603 4863 
z
" transform="scale(0.015625)"/>
      <path id="DejaVuSans-63" d="M 3122 3366 
L 3122 2828 
Q 2878 2963 2633 3030 
Q 2388 3097 2138 3097 
Q 1578 3097 1268 2742 
Q 959 2388 959 1747 
Q 959 1106 1268 751 
Q 1578 397 2138 397 
Q 2388 397 2633 464 
Q 2878 531 3122 666 
L 3122 134 
Q 2881 22 2623 -34 
Q 2366 -91 2075 -91 
Q 1284 -91 818 406 
Q 353 903 353 1747 
Q 353 2603 823 3093 
Q 1294 3584 2113 3584 
Q 2378 3584 2631 3529 
Q 2884 3475 3122 3366 
z
" transform="scale(0.015625)"/>
      <path id="DejaVuSans-6b" d="M 581 4863 
L 1159 4863 
L 1159 1991 
L 2875 3500 
L 3609 3500 
L 1753 1863 
L 3688 0 
L 2938 0 
L 1159 1709 
L 1159 0 
L 581 0 
L 581 4863 
z
" transform="scale(0.015625)"/>
      <path id="DejaVuSans-53" d="M 3425 4513 
L 3425 3897 
Q 3066 4069 2747 4153 
Q 2428 4238 2131 4238 
Q 1616 4238 1336 4038 
Q 1056 3838 1056 3469 
Q 1056 3159 1242 3001 
Q 1428 2844 1947 2747 
L 2328 2669 
Q 3034 2534 3370 2195 
Q 3706 1856 3706 1288 
Q 3706 609 3251 259 
Q 2797 -91 1919 -91 
Q 1588 -91 1214 -16 
Q 841 59 441 206 
L 441 856 
Q 825 641 1194 531 
Q 1563 422 1919 422 
Q 2459 422 2753 634 
Q 3047 847 3047 1241 
Q 3047 1584 2836 1778 
Q 2625 1972 2144 2069 
L 1759 2144 
Q 1053 2284 737 2584 
Q 422 2884 422 3419 
Q 422 4038 858 4394 
Q 1294 4750 2059 4750 
Q 2388 4750 2728 4690 
Q 3069 4631 3425 4513 
z
" transform="scale(0.015625)"/>
      <path id="DejaVuSans-7a" d="M 353 3500 
L 3084 3500 
L 3084 2975 
L 922 459 
L 3084 459 
L 3084 0 
L 275 0 
L 275 525 
L 2438 3041 
L 353 3041 
L 353 3500 
z
" transform="scale(0.015625)"/>
      <path id="DejaVuSans-3d" d="M 678 2906 
L 4684 2906 
L 4684 2381 
L 678 2381 
L 678 2906 
z
M 678 1631 
L 4684 1631 
L 4684 1100 
L 678 1100 
L 678 1631 
z
" transform="scale(0.015625)"/>
      <path id="DejaVuSans-2c" d="M 750 794 
L 1409 794 
L 1409 256 
L 897 -744 
L 494 -744 
L 750 256 
L 750 794 
z
" transform="scale(0.015625)"/>
      <path id="DejaVuSans-52" d="M 2841 2188 
Q 3044 2119 3236 1894 
Q 3428 1669 3622 1275 
L 4263 0 
L 3584 0 
L 2988 1197 
Q 2756 1666 2539 1819 
Q 2322 1972 1947 1972 
L 1259 1972 
L 1259 0 
L 628 0 
L 628 4666 
L 2053 4666 
Q 2853 4666 3247 4331 
Q 3641 3997 3641 3322 
Q 3641 2881 3436 2590 
Q 3231 2300 2841 2188 
z
M 1259 4147 
L 1259 2491 
L 2053 2491 
Q 2509 2491 2742 2702 
Q 2975 2913 2975 3322 
Q 2975 3731 2742 3939 
Q 2509 4147 2053 4147 
L 1259 4147 
z
" transform="scale(0.015625)"/>
      <path id="DejaVuSans-2d" d="M 313 2009 
L 1997 2009 
L 1997 1497 
L 313 1497 
L 313 2009 
z
" transform="scale(0.015625)"/>
      <path id="DejaVuSans-57" d="M 213 4666 
L 850 4666 
L 1831 722 
L 2809 4666 
L 3519 4666 
L 4500 722 
L 5478 4666 
L 6119 4666 
L 4947 0 
L 4153 0 
L 3169 4050 
L 2175 0 
L 1381 0 
L 213 4666 
z
" transform="scale(0.015625)"/>
      <path id="DejaVuSans-54" d="M -19 4666 
L 3928 4666 
L 3928 4134 
L 2272 4134 
L 2272 0 
L 1638 0 
L 1638 4134 
L -19 4134 
L -19 4666 
z
" transform="scale(0.015625)"/>
      <path id="DejaVuSans-79" d="M 2059 -325 
Q 1816 -950 1584 -1140 
Q 1353 -1331 966 -1331 
L 506 -1331 
L 506 -850 
L 844 -850 
Q 1081 -850 1212 -737 
Q 1344 -625 1503 -206 
L 1606 56 
L 191 3500 
L 800 3500 
L 1894 763 
L 2988 3500 
L 3597 3500 
L 2059 -325 
z
" transform="scale(0.015625)"/>
      <path id="DejaVuSans-70" d="M 1159 525 
L 1159 -1331 
L 581 -1331 
L 581 3500 
L 1159 3500 
L 1159 2969 
Q 1341 3281 1617 3432 
Q 1894 3584 2278 3584 
Q 2916 3584 3314 3078 
Q 3713 2572 3713 1747 
Q 3713 922 3314 415 
Q 2916 -91 2278 -91 
Q 1894 -91 1617 61 
Q 1341 213 1159 525 
z
M 3116 1747 
Q 3116 2381 2855 2742 
Q 2594 3103 2138 3103 
Q 1681 3103 1420 2742 
Q 1159 2381 1159 1747 
Q 1159 1113 1420 752 
Q 1681 391 2138 391 
Q 2594 391 2855 752 
Q 3116 1113 3116 1747 
z
" transform="scale(0.015625)"/>
      <path id="DejaVuSans-71" d="M 947 1747 
Q 947 1113 1208 752 
Q 1469 391 1925 391 
Q 2381 391 2643 752 
Q 2906 1113 2906 1747 
Q 2906 2381 2643 2742 
Q 2381 3103 1925 3103 
Q 1469 3103 1208 2742 
Q 947 2381 947 1747 
z
M 2906 525 
Q 2725 213 2448 61 
Q 2172 -91 1784 -91 
Q 1150 -91 751 415 
Q 353 922 353 1747 
Q 353 2572 751 3078 
Q 1150 3584 1784 3584 
Q 2172 3584 2448 3432 
Q 2725 3281 2906 2969 
L 2906 3500 
L 3481 3500 
L 3481 -1331 
L 2906 -1331 
L 2906 525 
z
" transform="scale(0.015625)"/>
      <path id="DejaVuSans-76" d="M 191 3500 
L 800 3500 
L 1894 563 
L 2988 3500 
L 3597 3500 
L 2284 0 
L 1503 0 
L 191 3500 
z
" transform="scale(0.015625)"/>
      <path id="DejaVuSans-3a" d="M 750 794 
L 1409 794 
L 1409 0 
L 750 0 
L 750 794 
z
M 750 3309 
L 1409 3309 
L 1409 2516 
L 750 2516 
L 750 3309 
z
" transform="scale(0.015625)"/>
     </defs>
     <use xlink:href="#DejaVuSans-42"/>
     <use xlink:href="#DejaVuSans-6c" transform="translate(68.603516 0)"/>
     <use xlink:href="#DejaVuSans-6f" transform="translate(96.386719 0)"/>
     <use xlink:href="#DejaVuSans-63" transform="translate(157.568359 0)"/>
     <use xlink:href="#DejaVuSans-6b" transform="translate(212.548828 0)"/>
     <use xlink:href="#DejaVuSans-20" transform="translate(270.458984 0)"/>
     <use xlink:href="#DejaVuSans-53" transform="translate(302.246094 0)"/>
     <use xlink:href="#DejaVuSans-69" transform="translate(365.722656 0)"/>
     <use xlink:href="#DejaVuSans-7a" transform="translate(393.505859 0)"/>
     <use xlink:href="#DejaVuSans-65" transform="translate(445.996094 0)"/>
     <use xlink:href="#DejaVuSans-20" transform="translate(507.519531 0)"/>
     <use xlink:href="#DejaVuSans-3d" transform="translate(539.306641 0)"/>
     <use xlink:href="#DejaVuSans-20" transform="translate(623.095703 0)"/>
     <use xlink:href="#DejaVuSans-31" transform="translate(654.882812 0)"/>
     <use xlink:href="#DejaVuSans-4d" transform="translate(718.505859 0)"/>
     <use xlink:href="#DejaVuSans-2c" transform="translate(804.785156 0)"/>
     <use xlink:href="#DejaVuSans-20" transform="translate(836.572266 0)"/>
     <use xlink:href="#DejaVuSans-52" transform="translate(868.359375 0)"/>
     <use xlink:href="#DejaVuSans-65" transform="translate(933.341797 0)"/>
     <use xlink:href="#DejaVuSans-61" transform="translate(994.865234 0)"/>
     <use xlink:href="#DejaVuSans-64" transform="translate(1056.144531 0)"/>
     <use xlink:href="#DejaVuSans-2d" transform="translate(1119.621094 0)"/>
     <use xlink:href="#DejaVuSans-57" transform="translate(1151.705078 0)"/>
     <use xlink:href="#DejaVuSans-72" transform="translate(1246.082031 0)"/>
     <use xlink:href="#DejaVuSans-69" transform="translate(1287.195312 0)"/>
     <use xlink:href="#DejaVuSans-74" transform="translate(1314.978516 0)"/>
     <use xlink:href="#DejaVuSans-65" transform="translate(1354.1875 0)"/>
     <use xlink:href="#DejaVuSans-20" transform="translate(1415.710938 0)"/>
     <use xlink:href="#DejaVuSans-54" transform="translate(1447.498047 0)"/>
     <use xlink:href="#DejaVuSans-79" transform="translate(1492.957031 0)"/>
     <use xlink:href="#DejaVuSans-70" transform="translate(1552.136719 0)"/>
     <use xlink:href="#DejaVuSans-65" transform="translate(1615.613281 0)"/>
     <use xlink:href="#DejaVuSans-20" transform="translate(1677.136719 0)"/>
     <use xlink:href="#DejaVuSans-3d" transform="translate(1708.923828 0)"/>
     <use xlink:href="#DejaVuSans-20" transform="translate(1792.712891 0)"/>
     <use xlink:href="#DejaVuSans-53" transform="translate(1824.5 0)"/>
     <use xlink:href="#DejaVuSans-65" transform="translate(1887.976562 0)"/>
     <use xlink:href="#DejaVuSans-71" transform="translate(1949.5 0)"/>
     <use xlink:href="#DejaVuSans-75" transform="translate(2012.976562 0)"/>
     <use xlink:href="#DejaVuSans-65" transform="translate(2076.355469 0)"/>
     <use xlink:href="#DejaVuSans-6e" transform="translate(2137.878906 0)"/>
     <use xlink:href="#DejaVuSans-74" transform="translate(2201.257812 0)"/>
     <use xlink:href="#DejaVuSans-69" transform="translate(2240.466797 0)"/>
     <use xlink:href="#DejaVuSans-61" transform="translate(2268.25 0)"/>
     <use xlink:href="#DejaVuSans-6c" transform="translate(2329.529297 0)"/>
     <use xlink:href="#DejaVuSans-20" transform="translate(2357.3125 0)"/>
     <use xlink:href="#DejaVuSans-52" transform="translate(2389.099609 0)"/>
     <use xlink:href="#DejaVuSans-65" transform="translate(2454.082031 0)"/>
     <use xlink:href="#DejaVuSans-61" transform="translate(2515.605469 0)"/>
     <use xlink:href="#DejaVuSans-64" transform="translate(2576.884766 0)"/>
     <use xlink:href="#DejaVuSans-2d" transform="translate(2640.361328 0)"/>
     <use xlink:href="#DejaVuSans-68" transform="translate(2676.445312 0)"/>
     <use xlink:href="#DejaVuSans-65" transform="translate(2739.824219 0)"/>
     <use xlink:href="#DejaVuSans-61" transform="translate(2801.347656 0)"/>
     <use xlink:href="#DejaVuSans-76" transform="translate(2862.626953 0)"/>
     <use xlink:href="#DejaVuSans-79" transform="translate(2921.806641 0)"/>
     <use xlink:href="#DejaVuSans-20" transform="translate(2980.986328 0)"/>
     <use xlink:href="#DejaVuSans-34" transform="translate(3012.773438 0)"/>
     <use xlink:href="#DejaVuSans-3a" transform="translate(3076.396484 0)"/>
     <use xlink:href="#DejaVuSans-31" transform="translate(3110.087891 0)"/>
    </g>
   </g>
   <g id="text_22">
    <!-- Mean Bandwidth vs Number of Jobs -->
    <g style="fill: #262626" transform="translate(82.578188 16.318125) scale(0.12 -0.12)">
     <defs>
      <path id="DejaVuSans-Bold-4d" d="M 588 4666 
L 2119 4666 
L 3181 2169 
L 4250 4666 
L 5778 4666 
L 5778 0 
L 4641 0 
L 4641 3413 
L 3566 897 
L 2803 897 
L 1728 3413 
L 1728 0 
L 588 0 
L 588 4666 
z
" transform="scale(0.015625)"/>
      <path id="DejaVuSans-Bold-65" d="M 4031 1759 
L 4031 1441 
L 1416 1441 
Q 1456 1047 1700 850 
Q 1944 653 2381 653 
Q 2734 653 3104 758 
Q 3475 863 3866 1075 
L 3866 213 
Q 3469 63 3072 -14 
Q 2675 -91 2278 -91 
Q 1328 -91 801 392 
Q 275 875 275 1747 
Q 275 2603 792 3093 
Q 1309 3584 2216 3584 
Q 3041 3584 3536 3087 
Q 4031 2591 4031 1759 
z
M 2881 2131 
Q 2881 2450 2695 2645 
Q 2509 2841 2209 2841 
Q 1884 2841 1681 2658 
Q 1478 2475 1428 2131 
L 2881 2131 
z
" transform="scale(0.015625)"/>
      <path id="DejaVuSans-Bold-61" d="M 2106 1575 
Q 1756 1575 1579 1456 
Q 1403 1338 1403 1106 
Q 1403 894 1545 773 
Q 1688 653 1941 653 
Q 2256 653 2472 879 
Q 2688 1106 2688 1447 
L 2688 1575 
L 2106 1575 
z
M 3816 1997 
L 3816 0 
L 2688 0 
L 2688 519 
Q 2463 200 2181 54 
Q 1900 -91 1497 -91 
Q 953 -91 614 226 
Q 275 544 275 1050 
Q 275 1666 698 1953 
Q 1122 2241 2028 2241 
L 2688 2241 
L 2688 2328 
Q 2688 2594 2478 2717 
Q 2269 2841 1825 2841 
Q 1466 2841 1156 2769 
Q 847 2697 581 2553 
L 581 3406 
Q 941 3494 1303 3539 
Q 1666 3584 2028 3584 
Q 2975 3584 3395 3211 
Q 3816 2838 3816 1997 
z
" transform="scale(0.015625)"/>
      <path id="DejaVuSans-Bold-6e" d="M 4056 2131 
L 4056 0 
L 2931 0 
L 2931 347 
L 2931 1631 
Q 2931 2084 2911 2256 
Q 2891 2428 2841 2509 
Q 2775 2619 2662 2680 
Q 2550 2741 2406 2741 
Q 2056 2741 1856 2470 
Q 1656 2200 1656 1722 
L 1656 0 
L 538 0 
L 538 3500 
L 1656 3500 
L 1656 2988 
Q 1909 3294 2193 3439 
Q 2478 3584 2822 3584 
Q 3428 3584 3742 3212 
Q 4056 2841 4056 2131 
z
" transform="scale(0.015625)"/>
      <path id="DejaVuSans-Bold-20" transform="scale(0.015625)"/>
      <path id="DejaVuSans-Bold-42" d="M 2456 2859 
Q 2741 2859 2887 2984 
Q 3034 3109 3034 3353 
Q 3034 3594 2887 3720 
Q 2741 3847 2456 3847 
L 1791 3847 
L 1791 2859 
L 2456 2859 
z
M 2497 819 
Q 2859 819 3042 972 
Q 3225 1125 3225 1434 
Q 3225 1738 3044 1889 
Q 2863 2041 2497 2041 
L 1791 2041 
L 1791 819 
L 2497 819 
z
M 3616 2497 
Q 4003 2384 4215 2081 
Q 4428 1778 4428 1338 
Q 4428 663 3972 331 
Q 3516 0 2584 0 
L 588 0 
L 588 4666 
L 2394 4666 
Q 3366 4666 3802 4372 
Q 4238 4078 4238 3431 
Q 4238 3091 4078 2852 
Q 3919 2613 3616 2497 
z
" transform="scale(0.015625)"/>
      <path id="DejaVuSans-Bold-64" d="M 2919 2988 
L 2919 4863 
L 4044 4863 
L 4044 0 
L 2919 0 
L 2919 506 
Q 2688 197 2409 53 
Q 2131 -91 1766 -91 
Q 1119 -91 703 423 
Q 288 938 288 1747 
Q 288 2556 703 3070 
Q 1119 3584 1766 3584 
Q 2128 3584 2408 3439 
Q 2688 3294 2919 2988 
z
M 2181 722 
Q 2541 722 2730 984 
Q 2919 1247 2919 1747 
Q 2919 2247 2730 2509 
Q 2541 2772 2181 2772 
Q 1825 2772 1636 2509 
Q 1447 2247 1447 1747 
Q 1447 1247 1636 984 
Q 1825 722 2181 722 
z
" transform="scale(0.015625)"/>
      <path id="DejaVuSans-Bold-77" d="M 225 3500 
L 1313 3500 
L 1900 1088 
L 2491 3500 
L 3425 3500 
L 4013 1113 
L 4603 3500 
L 5691 3500 
L 4769 0 
L 3547 0 
L 2956 2406 
L 2369 0 
L 1147 0 
L 225 3500 
z
" transform="scale(0.015625)"/>
      <path id="DejaVuSans-Bold-69" d="M 538 3500 
L 1656 3500 
L 1656 0 
L 538 0 
L 538 3500 
z
M 538 4863 
L 1656 4863 
L 1656 3950 
L 538 3950 
L 538 4863 
z
" transform="scale(0.015625)"/>
      <path id="DejaVuSans-Bold-74" d="M 1759 4494 
L 1759 3500 
L 2913 3500 
L 2913 2700 
L 1759 2700 
L 1759 1216 
Q 1759 972 1856 886 
Q 1953 800 2241 800 
L 2816 800 
L 2816 0 
L 1856 0 
Q 1194 0 917 276 
Q 641 553 641 1216 
L 641 2700 
L 84 2700 
L 84 3500 
L 641 3500 
L 641 4494 
L 1759 4494 
z
" transform="scale(0.015625)"/>
      <path id="DejaVuSans-Bold-68" d="M 4056 2131 
L 4056 0 
L 2931 0 
L 2931 347 
L 2931 1625 
Q 2931 2084 2911 2256 
Q 2891 2428 2841 2509 
Q 2775 2619 2662 2680 
Q 2550 2741 2406 2741 
Q 2056 2741 1856 2470 
Q 1656 2200 1656 1722 
L 1656 0 
L 538 0 
L 538 4863 
L 1656 4863 
L 1656 2988 
Q 1909 3294 2193 3439 
Q 2478 3584 2822 3584 
Q 3428 3584 3742 3212 
Q 4056 2841 4056 2131 
z
" transform="scale(0.015625)"/>
      <path id="DejaVuSans-Bold-76" d="M 97 3500 
L 1216 3500 
L 2088 1081 
L 2956 3500 
L 4078 3500 
L 2700 0 
L 1472 0 
L 97 3500 
z
" transform="scale(0.015625)"/>
      <path id="DejaVuSans-Bold-73" d="M 3272 3391 
L 3272 2541 
Q 2913 2691 2578 2766 
Q 2244 2841 1947 2841 
Q 1628 2841 1473 2761 
Q 1319 2681 1319 2516 
Q 1319 2381 1436 2309 
Q 1553 2238 1856 2203 
L 2053 2175 
Q 2913 2066 3209 1816 
Q 3506 1566 3506 1031 
Q 3506 472 3093 190 
Q 2681 -91 1863 -91 
Q 1516 -91 1145 -36 
Q 775 19 384 128 
L 384 978 
Q 719 816 1070 734 
Q 1422 653 1784 653 
Q 2113 653 2278 743 
Q 2444 834 2444 1013 
Q 2444 1163 2330 1236 
Q 2216 1309 1875 1350 
L 1678 1375 
Q 931 1469 631 1722 
Q 331 1975 331 2491 
Q 331 3047 712 3315 
Q 1094 3584 1881 3584 
Q 2191 3584 2531 3537 
Q 2872 3491 3272 3391 
z
" transform="scale(0.015625)"/>
      <path id="DejaVuSans-Bold-4e" d="M 588 4666 
L 1931 4666 
L 3628 1466 
L 3628 4666 
L 4769 4666 
L 4769 0 
L 3425 0 
L 1728 3200 
L 1728 0 
L 588 0 
L 588 4666 
z
" transform="scale(0.015625)"/>
      <path id="DejaVuSans-Bold-75" d="M 500 1363 
L 500 3500 
L 1625 3500 
L 1625 3150 
Q 1625 2866 1622 2436 
Q 1619 2006 1619 1863 
Q 1619 1441 1641 1255 
Q 1663 1069 1716 984 
Q 1784 875 1895 815 
Q 2006 756 2150 756 
Q 2500 756 2700 1025 
Q 2900 1294 2900 1772 
L 2900 3500 
L 4019 3500 
L 4019 0 
L 2900 0 
L 2900 506 
Q 2647 200 2364 54 
Q 2081 -91 1741 -91 
Q 1134 -91 817 281 
Q 500 653 500 1363 
z
" transform="scale(0.015625)"/>
      <path id="DejaVuSans-Bold-6d" d="M 3781 2919 
Q 3994 3244 4286 3414 
Q 4578 3584 4928 3584 
Q 5531 3584 5847 3212 
Q 6163 2841 6163 2131 
L 6163 0 
L 5038 0 
L 5038 1825 
Q 5041 1866 5042 1909 
Q 5044 1953 5044 2034 
Q 5044 2406 4934 2573 
Q 4825 2741 4581 2741 
Q 4263 2741 4089 2478 
Q 3916 2216 3909 1719 
L 3909 0 
L 2784 0 
L 2784 1825 
Q 2784 2406 2684 2573 
Q 2584 2741 2328 2741 
Q 2006 2741 1831 2477 
Q 1656 2213 1656 1722 
L 1656 0 
L 531 0 
L 531 3500 
L 1656 3500 
L 1656 2988 
Q 1863 3284 2130 3434 
Q 2397 3584 2719 3584 
Q 3081 3584 3359 3409 
Q 3638 3234 3781 2919 
z
" transform="scale(0.015625)"/>
      <path id="DejaVuSans-Bold-62" d="M 2400 722 
Q 2759 722 2948 984 
Q 3138 1247 3138 1747 
Q 3138 2247 2948 2509 
Q 2759 2772 2400 2772 
Q 2041 2772 1848 2508 
Q 1656 2244 1656 1747 
Q 1656 1250 1848 986 
Q 2041 722 2400 722 
z
M 1656 2988 
Q 1888 3294 2169 3439 
Q 2450 3584 2816 3584 
Q 3463 3584 3878 3070 
Q 4294 2556 4294 1747 
Q 4294 938 3878 423 
Q 3463 -91 2816 -91 
Q 2450 -91 2169 54 
Q 1888 200 1656 506 
L 1656 0 
L 538 0 
L 538 4863 
L 1656 4863 
L 1656 2988 
z
" transform="scale(0.015625)"/>
      <path id="DejaVuSans-Bold-72" d="M 3138 2547 
Q 2991 2616 2845 2648 
Q 2700 2681 2553 2681 
Q 2122 2681 1889 2404 
Q 1656 2128 1656 1613 
L 1656 0 
L 538 0 
L 538 3500 
L 1656 3500 
L 1656 2925 
Q 1872 3269 2151 3426 
Q 2431 3584 2822 3584 
Q 2878 3584 2943 3579 
Q 3009 3575 3134 3559 
L 3138 2547 
z
" transform="scale(0.015625)"/>
      <path id="DejaVuSans-Bold-6f" d="M 2203 2784 
Q 1831 2784 1636 2517 
Q 1441 2250 1441 1747 
Q 1441 1244 1636 976 
Q 1831 709 2203 709 
Q 2569 709 2762 976 
Q 2956 1244 2956 1747 
Q 2956 2250 2762 2517 
Q 2569 2784 2203 2784 
z
M 2203 3584 
Q 3106 3584 3614 3096 
Q 4122 2609 4122 1747 
Q 4122 884 3614 396 
Q 3106 -91 2203 -91 
Q 1297 -91 786 396 
Q 275 884 275 1747 
Q 275 2609 786 3096 
Q 1297 3584 2203 3584 
z
" transform="scale(0.015625)"/>
      <path id="DejaVuSans-Bold-66" d="M 2841 4863 
L 2841 4128 
L 2222 4128 
Q 1984 4128 1890 4042 
Q 1797 3956 1797 3744 
L 1797 3500 
L 2753 3500 
L 2753 2700 
L 1797 2700 
L 1797 0 
L 678 0 
L 678 2700 
L 122 2700 
L 122 3500 
L 678 3500 
L 678 3744 
Q 678 4316 997 4589 
Q 1316 4863 1984 4863 
L 2841 4863 
z
" transform="scale(0.015625)"/>
      <path id="DejaVuSans-Bold-4a" d="M 588 4666 
L 1791 4666 
L 1791 453 
Q 1791 -419 1317 -850 
Q 844 -1281 -116 -1281 
L -359 -1281 
L -359 -372 
L -172 -372 
Q 203 -372 395 -162 
Q 588 47 588 453 
L 588 4666 
z
" transform="scale(0.015625)"/>
     </defs>
     <use xlink:href="#DejaVuSans-Bold-4d"/>
     <use xlink:href="#DejaVuSans-Bold-65" transform="translate(99.511719 0)"/>
     <use xlink:href="#DejaVuSans-Bold-61" transform="translate(167.333984 0)"/>
     <use xlink:href="#DejaVuSans-Bold-6e" transform="translate(234.814453 0)"/>
     <use xlink:href="#DejaVuSans-Bold-20" transform="translate(306.005859 0)"/>
     <use xlink:href="#DejaVuSans-Bold-42" transform="translate(340.820312 0)"/>
     <use xlink:href="#DejaVuSans-Bold-61" transform="translate(417.041016 0)"/>
     <use xlink:href="#DejaVuSans-Bold-6e" transform="translate(484.521484 0)"/>
     <use xlink:href="#DejaVuSans-Bold-64" transform="translate(555.712891 0)"/>
     <use xlink:href="#DejaVuSans-Bold-77" transform="translate(627.294922 0)"/>
     <use xlink:href="#DejaVuSans-Bold-69" transform="translate(719.677734 0)"/>
     <use xlink:href="#DejaVuSans-Bold-64" transform="translate(753.955078 0)"/>
     <use xlink:href="#DejaVuSans-Bold-74" transform="translate(825.537109 0)"/>
     <use xlink:href="#DejaVuSans-Bold-68" transform="translate(873.339844 0)"/>
     <use xlink:href="#DejaVuSans-Bold-20" transform="translate(944.53125 0)"/>
     <use xlink:href="#DejaVuSans-Bold-76" transform="translate(979.345703 0)"/>
     <use xlink:href="#DejaVuSans-Bold-73" transform="translate(1044.53125 0)"/>
     <use xlink:href="#DejaVuSans-Bold-20" transform="translate(1104.052734 0)"/>
     <use xlink:href="#DejaVuSans-Bold-4e" transform="translate(1138.867188 0)"/>
     <use xlink:href="#DejaVuSans-Bold-75" transform="translate(1222.558594 0)"/>
     <use xlink:href="#DejaVuSans-Bold-6d" transform="translate(1293.75 0)"/>
     <use xlink:href="#DejaVuSans-Bold-62" transform="translate(1397.949219 0)"/>
     <use xlink:href="#DejaVuSans-Bold-65" transform="translate(1469.53125 0)"/>
     <use xlink:href="#DejaVuSans-Bold-72" transform="translate(1537.353516 0)"/>
     <use xlink:href="#DejaVuSans-Bold-20" transform="translate(1586.669922 0)"/>
     <use xlink:href="#DejaVuSans-Bold-6f" transform="translate(1621.484375 0)"/>
     <use xlink:href="#DejaVuSans-Bold-66" transform="translate(1690.185547 0)"/>
     <use xlink:href="#DejaVuSans-Bold-20" transform="translate(1733.691406 0)"/>
     <use xlink:href="#DejaVuSans-Bold-4a" transform="translate(1768.505859 0)"/>
     <use xlink:href="#DejaVuSans-Bold-6f" transform="translate(1805.712891 0)"/>
     <use xlink:href="#DejaVuSans-Bold-62" transform="translate(1874.414062 0)"/>
     <use xlink:href="#DejaVuSans-Bold-73" transform="translate(1945.996094 0)"/>
    </g>
   </g>
   <g id="legend_1">
    <g id="patch_7">
     <path d="M 381.095425 228.398357 
L 438.446675 228.398357 
Q 440.446675 228.398357 440.446675 226.398357 
L 440.446675 108.037733 
Q 440.446675 106.037733 438.446675 106.037733 
L 381.095425 106.037733 
Q 379.095425 106.037733 379.095425 108.037733 
L 379.095425 226.398357 
Q 379.095425 228.398357 381.095425 228.398357 
z
" style="fill: #ffffff; opacity: 0.8; stroke: #cccccc; stroke-linejoin: miter"/>
    </g>
    <g id="text_23">
     <!-- IO Depth -->
     <g style="fill: #262626" transform="translate(383.095425 119.155857) scale(0.12 -0.12)">
      <defs>
       <path id="DejaVuSans-49" d="M 628 4666 
L 1259 4666 
L 1259 0 
L 628 0 
L 628 4666 
z
" transform="scale(0.015625)"/>
       <path id="DejaVuSans-4f" d="M 2522 4238 
Q 1834 4238 1429 3725 
Q 1025 3213 1025 2328 
Q 1025 1447 1429 934 
Q 1834 422 2522 422 
Q 3209 422 3611 934 
Q 4013 1447 4013 2328 
Q 4013 3213 3611 3725 
Q 3209 4238 2522 4238 
z
M 2522 4750 
Q 3503 4750 4090 4092 
Q 4678 3434 4678 2328 
Q 4678 1225 4090 567 
Q 3503 -91 2522 -91 
Q 1538 -91 948 565 
Q 359 1222 359 2328 
Q 359 3434 948 4092 
Q 1538 4750 2522 4750 
z
" transform="scale(0.015625)"/>
       <path id="DejaVuSans-44" d="M 1259 4147 
L 1259 519 
L 2022 519 
Q 2988 519 3436 956 
Q 3884 1394 3884 2338 
Q 3884 3275 3436 3711 
Q 2988 4147 2022 4147 
L 1259 4147 
z
M 628 4666 
L 1925 4666 
Q 3281 4666 3915 4102 
Q 4550 3538 4550 2338 
Q 4550 1131 3912 565 
Q 3275 0 1925 0 
L 628 0 
L 628 4666 
z
" transform="scale(0.015625)"/>
      </defs>
      <use xlink:href="#DejaVuSans-49"/>
      <use xlink:href="#DejaVuSans-4f" transform="translate(29.492188 0)"/>
      <use xlink:href="#DejaVuSans-20" transform="translate(108.203125 0)"/>
      <use xlink:href="#DejaVuSans-44" transform="translate(139.990234 0)"/>
      <use xlink:href="#DejaVuSans-65" transform="translate(216.992188 0)"/>
      <use xlink:href="#DejaVuSans-70" transform="translate(278.515625 0)"/>
      <use xlink:href="#DejaVuSans-74" transform="translate(341.992188 0)"/>
      <use xlink:href="#DejaVuSans-68" transform="translate(381.201172 0)"/>
     </g>
    </g>
    <g id="line2d_26">
     <path d="M 386.2273 130.74992 
L 396.2273 130.74992 
L 406.2273 130.74992 
" style="fill: none; stroke: #4c02a1; stroke-width: 1.5; stroke-linecap: round"/>
    </g>
    <g id="text_24">
     <!-- 1 -->
     <g style="fill: #262626" transform="translate(414.2273 134.24992) scale(0.1 -0.1)">
      <use xlink:href="#DejaVuSans-31"/>
     </g>
    </g>
    <g id="line2d_27">
     <path d="M 386.2273 145.428045 
L 396.2273 145.428045 
L 406.2273 145.428045 
" style="fill: none; stroke: #7e03a8; stroke-width: 1.5; stroke-linecap: round"/>
    </g>
    <g id="text_25">
     <!-- 4 -->
     <g style="fill: #262626" transform="translate(414.2273 148.928045) scale(0.1 -0.1)">
      <use xlink:href="#DejaVuSans-34"/>
     </g>
    </g>
    <g id="line2d_28">
     <path d="M 386.2273 160.10617 
L 396.2273 160.10617 
L 406.2273 160.10617 
" style="fill: none; stroke: #aa2395; stroke-width: 1.5; stroke-linecap: round"/>
    </g>
    <g id="text_26">
     <!-- 8 -->
     <g style="fill: #262626" transform="translate(414.2273 163.60617) scale(0.1 -0.1)">
      <use xlink:href="#DejaVuSans-38"/>
     </g>
    </g>
    <g id="line2d_29">
     <path d="M 386.2273 174.784295 
L 396.2273 174.784295 
L 406.2273 174.784295 
" style="fill: none; stroke: #cc4778; stroke-width: 1.5; stroke-linecap: round"/>
    </g>
    <g id="text_27">
     <!-- 16 -->
     <g style="fill: #262626" transform="translate(414.2273 178.284295) scale(0.1 -0.1)">
      <use xlink:href="#DejaVuSans-31"/>
      <use xlink:href="#DejaVuSans-36" transform="translate(63.623047 0)"/>
     </g>
    </g>
    <g id="line2d_30">
     <path d="M 386.2273 189.46242 
L 396.2273 189.46242 
L 406.2273 189.46242 
" style="fill: none; stroke: #e66c5c; stroke-width: 1.5; stroke-linecap: round"/>
    </g>
    <g id="text_28">
     <!-- 32 -->
     <g style="fill: #262626" transform="translate(414.2273 192.96242) scale(0.1 -0.1)">
      <use xlink:href="#DejaVuSans-33"/>
      <use xlink:href="#DejaVuSans-32" transform="translate(63.623047 0)"/>
     </g>
    </g>
    <g id="line2d_31">
     <path d="M 386.2273 204.140545 
L 396.2273 204.140545 
L 406.2273 204.140545 
" style="fill: none; stroke: #f89540; stroke-width: 1.5; stroke-linecap: round"/>
    </g>
    <g id="text_29">
     <!-- 64 -->
     <g style="fill: #262626" transform="translate(414.2273 207.640545) scale(0.1 -0.1)">
      <use xlink:href="#DejaVuSans-36"/>
      <use xlink:href="#DejaVuSans-34" transform="translate(63.623047 0)"/>
     </g>
    </g>
    <g id="line2d_32">
     <path d="M 386.2273 218.81867 
L 396.2273 218.81867 
L 406.2273 218.81867 
" style="fill: none; stroke: #fdc527; stroke-width: 1.5; stroke-linecap: round"/>
    </g>
    <g id="text_30">
     <!-- 128 -->
     <g style="fill: #262626" transform="translate(414.2273 222.31867) scale(0.1 -0.1)">
      <use xlink:href="#DejaVuSans-31"/>
      <use xlink:href="#DejaVuSans-32" transform="translate(63.623047 0)"/>
      <use xlink:href="#DejaVuSans-38" transform="translate(127.246094 0)"/>
     </g>
    </g>
   </g>
  </g>
 </g>
 <defs>
  <clipPath id="pb9d27bc2b2">
   <rect x="43.78125" y="35.490845" width="318.252" height="263.4544"/>
  </clipPath>
 </defs>
</svg>
