<?xml version="1.0" encoding="utf-8" standalone="no"?>
<!DOCTYPE svg PUBLIC "-//W3C//DTD SVG 1.1//EN"
  "http://www.w3.org/Graphics/SVG/1.1/DTD/svg11.dtd">
<svg xmlns:xlink="http://www.w3.org/1999/xlink" width="498.74375pt" height="339.291975pt" viewBox="0 0 498.74375 339.291975" xmlns="http://www.w3.org/2000/svg" version="1.1">
 <metadata>
  <rdf:RDF xmlns:dc="http://purl.org/dc/elements/1.1/" xmlns:cc="http://creativecommons.org/ns#" xmlns:rdf="http://www.w3.org/1999/02/22-rdf-syntax-ns#">
   <cc:Work>
    <dc:type rdf:resource="http://purl.org/dc/dcmitype/StillImage"/>
    <dc:date>2025-09-11T08:59:56.678914</dc:date>
    <dc:format>image/svg+xml</dc:format>
    <dc:creator>
     <cc:Agent>
      <dc:title>Matplotlib v3.10.6, https://matplotlib.org/</dc:title>
     </cc:Agent>
    </dc:creator>
   </cc:Work>
  </rdf:RDF>
 </metadata>
 <defs>
  <style type="text/css">*{stroke-linejoin: round; stroke-linecap: butt}</style>
 </defs>
 <g id="figure_1">
  <g id="patch_1">
   <path d="M 0 339.291975 
L 498.74375 339.291975 
L 498.74375 0 
L 0 0 
z
" style="fill: #ffffff"/>
  </g>
  <g id="axes_1">
   <g id="patch_2">
    <path d="M 50.14375 301.735725 
L 407.26375 301.735725 
L 407.26375 35.623725 
L 50.14375 35.623725 
z
" style="fill: #ffffff"/>
   </g>
   <g id="matplotlib.axis_1">
    <g id="xtick_1">
     <g id="line2d_1">
      <path d="M 112.755698 301.735725 
L 112.755698 35.623725 
" clip-path="url(#p3c2c0e47a0)" style="fill: none; stroke: #cccccc; stroke-width: 0.8; stroke-linecap: round"/>
     </g>
     <g id="text_1">
      <!-- 32 -->
      <g style="fill: #262626" transform="translate(106.393198 316.334162) scale(0.1 -0.1)">
       <defs>
        <path id="DejaVuSans-33" d="M 2597 2516 
Q 3050 2419 3304 2112 
Q 3559 1806 3559 1356 
Q 3559 666 3084 287 
Q 2609 -91 1734 -91 
Q 1441 -91 1130 -33 
Q 819 25 488 141 
L 488 750 
Q 750 597 1062 519 
Q 1375 441 1716 441 
Q 2309 441 2620 675 
Q 2931 909 2931 1356 
Q 2931 1769 2642 2001 
Q 2353 2234 1838 2234 
L 1294 2234 
L 1294 2753 
L 1863 2753 
Q 2328 2753 2575 2939 
Q 2822 3125 2822 3475 
Q 2822 3834 2567 4026 
Q 2313 4219 1838 4219 
Q 1578 4219 1281 4162 
Q 984 4106 628 3988 
L 628 4550 
Q 988 4650 1302 4700 
Q 1616 4750 1894 4750 
Q 2613 4750 3031 4423 
Q 3450 4097 3450 3541 
Q 3450 3153 3228 2886 
Q 3006 2619 2597 2516 
z
" transform="scale(0.015625)"/>
        <path id="DejaVuSans-32" d="M 1228 531 
L 3431 531 
L 3431 0 
L 469 0 
L 469 531 
Q 828 903 1448 1529 
Q 2069 2156 2228 2338 
Q 2531 2678 2651 2914 
Q 2772 3150 2772 3378 
Q 2772 3750 2511 3984 
Q 2250 4219 1831 4219 
Q 1534 4219 1204 4116 
Q 875 4013 500 3803 
L 500 4441 
Q 881 4594 1212 4672 
Q 1544 4750 1819 4750 
Q 2544 4750 2975 4387 
Q 3406 4025 3406 3419 
Q 3406 3131 3298 2873 
Q 3191 2616 2906 2266 
Q 2828 2175 2409 1742 
Q 1991 1309 1228 531 
z
" transform="scale(0.015625)"/>
       </defs>
       <use xlink:href="#DejaVuSans-33"/>
       <use xlink:href="#DejaVuSans-32" transform="translate(63.623047 0)"/>
      </g>
     </g>
    </g>
    <g id="xtick_2">
     <g id="line2d_2">
      <path d="M 391.031023 301.735725 
L 391.031023 35.623725 
" clip-path="url(#p3c2c0e47a0)" style="fill: none; stroke: #cccccc; stroke-width: 0.8; stroke-linecap: round"/>
     </g>
     <g id="text_2">
      <!-- 128 -->
      <g style="fill: #262626" transform="translate(381.487273 316.334162) scale(0.1 -0.1)">
       <defs>
        <path id="DejaVuSans-31" d="M 794 531 
L 1825 531 
L 1825 4091 
L 703 3866 
L 703 4441 
L 1819 4666 
L 2450 4666 
L 2450 531 
L 3481 531 
L 3481 0 
L 794 0 
L 794 531 
z
" transform="scale(0.015625)"/>
        <path id="DejaVuSans-38" d="M 2034 2216 
Q 1584 2216 1326 1975 
Q 1069 1734 1069 1313 
Q 1069 891 1326 650 
Q 1584 409 2034 409 
Q 2484 409 2743 651 
Q 3003 894 3003 1313 
Q 3003 1734 2745 1975 
Q 2488 2216 2034 2216 
z
M 1403 2484 
Q 997 2584 770 2862 
Q 544 3141 544 3541 
Q 544 4100 942 4425 
Q 1341 4750 2034 4750 
Q 2731 4750 3128 4425 
Q 3525 4100 3525 3541 
Q 3525 3141 3298 2862 
Q 3072 2584 2669 2484 
Q 3125 2378 3379 2068 
Q 3634 1759 3634 1313 
Q 3634 634 3220 271 
Q 2806 -91 2034 -91 
Q 1263 -91 848 271 
Q 434 634 434 1313 
Q 434 1759 690 2068 
Q 947 2378 1403 2484 
z
M 1172 3481 
Q 1172 3119 1398 2916 
Q 1625 2713 2034 2713 
Q 2441 2713 2670 2916 
Q 2900 3119 2900 3481 
Q 2900 3844 2670 4047 
Q 2441 4250 2034 4250 
Q 1625 4250 1398 4047 
Q 1172 3844 1172 3481 
z
" transform="scale(0.015625)"/>
       </defs>
       <use xlink:href="#DejaVuSans-31"/>
       <use xlink:href="#DejaVuSans-32" transform="translate(63.623047 0)"/>
       <use xlink:href="#DejaVuSans-38" transform="translate(127.246094 0)"/>
      </g>
     </g>
    </g>
    <g id="xtick_3">
     <g id="line2d_3">
      <path d="M 66.376477 301.735725 
L 66.376477 35.623725 
" clip-path="url(#p3c2c0e47a0)" style="fill: none; stroke: #cccccc; stroke-width: 0.8; stroke-linecap: round"/>
     </g>
     <g id="text_3">
      <!-- 16 -->
      <g style="fill: #262626" transform="translate(60.013977 316.334162) scale(0.1 -0.1)">
       <defs>
        <path id="DejaVuSans-36" d="M 2113 2584 
Q 1688 2584 1439 2293 
Q 1191 2003 1191 1497 
Q 1191 994 1439 701 
Q 1688 409 2113 409 
Q 2538 409 2786 701 
Q 3034 994 3034 1497 
Q 3034 2003 2786 2293 
Q 2538 2584 2113 2584 
z
M 3366 4563 
L 3366 3988 
Q 3128 4100 2886 4159 
Q 2644 4219 2406 4219 
Q 1781 4219 1451 3797 
Q 1122 3375 1075 2522 
Q 1259 2794 1537 2939 
Q 1816 3084 2150 3084 
Q 2853 3084 3261 2657 
Q 3669 2231 3669 1497 
Q 3669 778 3244 343 
Q 2819 -91 2113 -91 
Q 1303 -91 875 529 
Q 447 1150 447 2328 
Q 447 3434 972 4092 
Q 1497 4750 2381 4750 
Q 2619 4750 2861 4703 
Q 3103 4656 3366 4563 
z
" transform="scale(0.015625)"/>
       </defs>
       <use xlink:href="#DejaVuSans-31"/>
       <use xlink:href="#DejaVuSans-36" transform="translate(63.623047 0)"/>
      </g>
     </g>
    </g>
    <g id="xtick_4">
     <g id="line2d_4">
      <path d="M 205.51414 301.735725 
L 205.51414 35.623725 
" clip-path="url(#p3c2c0e47a0)" style="fill: none; stroke: #cccccc; stroke-width: 0.8; stroke-linecap: round"/>
     </g>
     <g id="text_4">
      <!-- 64 -->
      <g style="fill: #262626" transform="translate(199.15164 316.334162) scale(0.1 -0.1)">
       <defs>
        <path id="DejaVuSans-34" d="M 2419 4116 
L 825 1625 
L 2419 1625 
L 2419 4116 
z
M 2253 4666 
L 3047 4666 
L 3047 1625 
L 3713 1625 
L 3713 1100 
L 3047 1100 
L 3047 0 
L 2419 0 
L 2419 1100 
L 313 1100 
L 313 1709 
L 2253 4666 
z
" transform="scale(0.015625)"/>
       </defs>
       <use xlink:href="#DejaVuSans-36"/>
       <use xlink:href="#DejaVuSans-34" transform="translate(63.623047 0)"/>
      </g>
     </g>
    </g>
    <g id="text_5">
     <!-- Number of Jobs -->
     <g style="fill: #262626" transform="translate(190.306875 330.012287) scale(0.1 -0.1)">
      <defs>
       <path id="DejaVuSans-4e" d="M 628 4666 
L 1478 4666 
L 3547 763 
L 3547 4666 
L 4159 4666 
L 4159 0 
L 3309 0 
L 1241 3903 
L 1241 0 
L 628 0 
L 628 4666 
z
" transform="scale(0.015625)"/>
       <path id="DejaVuSans-75" d="M 544 1381 
L 544 3500 
L 1119 3500 
L 1119 1403 
Q 1119 906 1312 657 
Q 1506 409 1894 409 
Q 2359 409 2629 706 
Q 2900 1003 2900 1516 
L 2900 3500 
L 3475 3500 
L 3475 0 
L 2900 0 
L 2900 538 
Q 2691 219 2414 64 
Q 2138 -91 1772 -91 
Q 1169 -91 856 284 
Q 544 659 544 1381 
z
M 1991 3584 
L 1991 3584 
z
" transform="scale(0.015625)"/>
       <path id="DejaVuSans-6d" d="M 3328 2828 
Q 3544 3216 3844 3400 
Q 4144 3584 4550 3584 
Q 5097 3584 5394 3201 
Q 5691 2819 5691 2113 
L 5691 0 
L 5113 0 
L 5113 2094 
Q 5113 2597 4934 2840 
Q 4756 3084 4391 3084 
Q 3944 3084 3684 2787 
Q 3425 2491 3425 1978 
L 3425 0 
L 2847 0 
L 2847 2094 
Q 2847 2600 2669 2842 
Q 2491 3084 2119 3084 
Q 1678 3084 1418 2786 
Q 1159 2488 1159 1978 
L 1159 0 
L 581 0 
L 581 3500 
L 1159 3500 
L 1159 2956 
Q 1356 3278 1631 3431 
Q 1906 3584 2284 3584 
Q 2666 3584 2933 3390 
Q 3200 3197 3328 2828 
z
" transform="scale(0.015625)"/>
       <path id="DejaVuSans-62" d="M 3116 1747 
Q 3116 2381 2855 2742 
Q 2594 3103 2138 3103 
Q 1681 3103 1420 2742 
Q 1159 2381 1159 1747 
Q 1159 1113 1420 752 
Q 1681 391 2138 391 
Q 2594 391 2855 752 
Q 3116 1113 3116 1747 
z
M 1159 2969 
Q 1341 3281 1617 3432 
Q 1894 3584 2278 3584 
Q 2916 3584 3314 3078 
Q 3713 2572 3713 1747 
Q 3713 922 3314 415 
Q 2916 -91 2278 -91 
Q 1894 -91 1617 61 
Q 1341 213 1159 525 
L 1159 0 
L 581 0 
L 581 4863 
L 1159 4863 
L 1159 2969 
z
" transform="scale(0.015625)"/>
       <path id="DejaVuSans-65" d="M 3597 1894 
L 3597 1613 
L 953 1613 
Q 991 1019 1311 708 
Q 1631 397 2203 397 
Q 2534 397 2845 478 
Q 3156 559 3463 722 
L 3463 178 
Q 3153 47 2828 -22 
Q 2503 -91 2169 -91 
Q 1331 -91 842 396 
Q 353 884 353 1716 
Q 353 2575 817 3079 
Q 1281 3584 2069 3584 
Q 2775 3584 3186 3129 
Q 3597 2675 3597 1894 
z
M 3022 2063 
Q 3016 2534 2758 2815 
Q 2500 3097 2075 3097 
Q 1594 3097 1305 2825 
Q 1016 2553 972 2059 
L 3022 2063 
z
" transform="scale(0.015625)"/>
       <path id="DejaVuSans-72" d="M 2631 2963 
Q 2534 3019 2420 3045 
Q 2306 3072 2169 3072 
Q 1681 3072 1420 2755 
Q 1159 2438 1159 1844 
L 1159 0 
L 581 0 
L 581 3500 
L 1159 3500 
L 1159 2956 
Q 1341 3275 1631 3429 
Q 1922 3584 2338 3584 
Q 2397 3584 2469 3576 
Q 2541 3569 2628 3553 
L 2631 2963 
z
" transform="scale(0.015625)"/>
       <path id="DejaVuSans-20" transform="scale(0.015625)"/>
       <path id="DejaVuSans-6f" d="M 1959 3097 
Q 1497 3097 1228 2736 
Q 959 2375 959 1747 
Q 959 1119 1226 758 
Q 1494 397 1959 397 
Q 2419 397 2687 759 
Q 2956 1122 2956 1747 
Q 2956 2369 2687 2733 
Q 2419 3097 1959 3097 
z
M 1959 3584 
Q 2709 3584 3137 3096 
Q 3566 2609 3566 1747 
Q 3566 888 3137 398 
Q 2709 -91 1959 -91 
Q 1206 -91 779 398 
Q 353 888 353 1747 
Q 353 2609 779 3096 
Q 1206 3584 1959 3584 
z
" transform="scale(0.015625)"/>
       <path id="DejaVuSans-66" d="M 2375 4863 
L 2375 4384 
L 1825 4384 
Q 1516 4384 1395 4259 
Q 1275 4134 1275 3809 
L 1275 3500 
L 2222 3500 
L 2222 3053 
L 1275 3053 
L 1275 0 
L 697 0 
L 697 3053 
L 147 3053 
L 147 3500 
L 697 3500 
L 697 3744 
Q 697 4328 969 4595 
Q 1241 4863 1831 4863 
L 2375 4863 
z
" transform="scale(0.015625)"/>
       <path id="DejaVuSans-4a" d="M 628 4666 
L 1259 4666 
L 1259 325 
Q 1259 -519 939 -900 
Q 619 -1281 -91 -1281 
L -331 -1281 
L -331 -750 
L -134 -750 
Q 284 -750 456 -515 
Q 628 -281 628 325 
L 628 4666 
z
" transform="scale(0.015625)"/>
       <path id="DejaVuSans-73" d="M 2834 3397 
L 2834 2853 
Q 2591 2978 2328 3040 
Q 2066 3103 1784 3103 
Q 1356 3103 1142 2972 
Q 928 2841 928 2578 
Q 928 2378 1081 2264 
Q 1234 2150 1697 2047 
L 1894 2003 
Q 2506 1872 2764 1633 
Q 3022 1394 3022 966 
Q 3022 478 2636 193 
Q 2250 -91 1575 -91 
Q 1294 -91 989 -36 
Q 684 19 347 128 
L 347 722 
Q 666 556 975 473 
Q 1284 391 1588 391 
Q 1994 391 2212 530 
Q 2431 669 2431 922 
Q 2431 1156 2273 1281 
Q 2116 1406 1581 1522 
L 1381 1569 
Q 847 1681 609 1914 
Q 372 2147 372 2553 
Q 372 3047 722 3315 
Q 1072 3584 1716 3584 
Q 2034 3584 2315 3537 
Q 2597 3491 2834 3397 
z
" transform="scale(0.015625)"/>
      </defs>
      <use xlink:href="#DejaVuSans-4e"/>
      <use xlink:href="#DejaVuSans-75" transform="translate(74.804688 0)"/>
      <use xlink:href="#DejaVuSans-6d" transform="translate(138.183594 0)"/>
      <use xlink:href="#DejaVuSans-62" transform="translate(235.595703 0)"/>
      <use xlink:href="#DejaVuSans-65" transform="translate(299.072266 0)"/>
      <use xlink:href="#DejaVuSans-72" transform="translate(360.595703 0)"/>
      <use xlink:href="#DejaVuSans-20" transform="translate(401.708984 0)"/>
      <use xlink:href="#DejaVuSans-6f" transform="translate(433.496094 0)"/>
      <use xlink:href="#DejaVuSans-66" transform="translate(494.677734 0)"/>
      <use xlink:href="#DejaVuSans-20" transform="translate(529.882812 0)"/>
      <use xlink:href="#DejaVuSans-4a" transform="translate(561.669922 0)"/>
      <use xlink:href="#DejaVuSans-6f" transform="translate(591.162109 0)"/>
      <use xlink:href="#DejaVuSans-62" transform="translate(652.34375 0)"/>
      <use xlink:href="#DejaVuSans-73" transform="translate(715.820312 0)"/>
     </g>
    </g>
   </g>
   <g id="matplotlib.axis_2">
    <g id="ytick_1">
     <g id="line2d_5">
      <path d="M 50.14375 290.264381 
L 407.26375 290.264381 
" clip-path="url(#p3c2c0e47a0)" style="fill: none; stroke: #cccccc; stroke-width: 0.8; stroke-linecap: round"/>
     </g>
     <g id="text_6">
      <!-- 0.60 -->
      <g style="fill: #262626" transform="translate(20.878125 294.0636) scale(0.1 -0.1)">
       <defs>
        <path id="DejaVuSans-30" d="M 2034 4250 
Q 1547 4250 1301 3770 
Q 1056 3291 1056 2328 
Q 1056 1369 1301 889 
Q 1547 409 2034 409 
Q 2525 409 2770 889 
Q 3016 1369 3016 2328 
Q 3016 3291 2770 3770 
Q 2525 4250 2034 4250 
z
M 2034 4750 
Q 2819 4750 3233 4129 
Q 3647 3509 3647 2328 
Q 3647 1150 3233 529 
Q 2819 -91 2034 -91 
Q 1250 -91 836 529 
Q 422 1150 422 2328 
Q 422 3509 836 4129 
Q 1250 4750 2034 4750 
z
" transform="scale(0.015625)"/>
        <path id="DejaVuSans-2e" d="M 684 794 
L 1344 794 
L 1344 0 
L 684 0 
L 684 794 
z
" transform="scale(0.015625)"/>
       </defs>
       <use xlink:href="#DejaVuSans-30"/>
       <use xlink:href="#DejaVuSans-2e" transform="translate(63.623047 0)"/>
       <use xlink:href="#DejaVuSans-36" transform="translate(95.410156 0)"/>
       <use xlink:href="#DejaVuSans-30" transform="translate(159.033203 0)"/>
      </g>
     </g>
    </g>
    <g id="ytick_2">
     <g id="line2d_6">
      <path d="M 50.14375 244.342916 
L 407.26375 244.342916 
" clip-path="url(#p3c2c0e47a0)" style="fill: none; stroke: #cccccc; stroke-width: 0.8; stroke-linecap: round"/>
     </g>
     <g id="text_7">
      <!-- 0.65 -->
      <g style="fill: #262626" transform="translate(20.878125 248.142135) scale(0.1 -0.1)">
       <defs>
        <path id="DejaVuSans-35" d="M 691 4666 
L 3169 4666 
L 3169 4134 
L 1269 4134 
L 1269 2991 
Q 1406 3038 1543 3061 
Q 1681 3084 1819 3084 
Q 2600 3084 3056 2656 
Q 3513 2228 3513 1497 
Q 3513 744 3044 326 
Q 2575 -91 1722 -91 
Q 1428 -91 1123 -41 
Q 819 9 494 109 
L 494 744 
Q 775 591 1075 516 
Q 1375 441 1709 441 
Q 2250 441 2565 725 
Q 2881 1009 2881 1497 
Q 2881 1984 2565 2268 
Q 2250 2553 1709 2553 
Q 1456 2553 1204 2497 
Q 953 2441 691 2322 
L 691 4666 
z
" transform="scale(0.015625)"/>
       </defs>
       <use xlink:href="#DejaVuSans-30"/>
       <use xlink:href="#DejaVuSans-2e" transform="translate(63.623047 0)"/>
       <use xlink:href="#DejaVuSans-36" transform="translate(95.410156 0)"/>
       <use xlink:href="#DejaVuSans-35" transform="translate(159.033203 0)"/>
      </g>
     </g>
    </g>
    <g id="ytick_3">
     <g id="line2d_7">
      <path d="M 50.14375 198.421452 
L 407.26375 198.421452 
" clip-path="url(#p3c2c0e47a0)" style="fill: none; stroke: #cccccc; stroke-width: 0.8; stroke-linecap: round"/>
     </g>
     <g id="text_8">
      <!-- 0.70 -->
      <g style="fill: #262626" transform="translate(20.878125 202.220671) scale(0.1 -0.1)">
       <defs>
        <path id="DejaVuSans-37" d="M 525 4666 
L 3525 4666 
L 3525 4397 
L 1831 0 
L 1172 0 
L 2766 4134 
L 525 4134 
L 525 4666 
z
" transform="scale(0.015625)"/>
       </defs>
       <use xlink:href="#DejaVuSans-30"/>
       <use xlink:href="#DejaVuSans-2e" transform="translate(63.623047 0)"/>
       <use xlink:href="#DejaVuSans-37" transform="translate(95.410156 0)"/>
       <use xlink:href="#DejaVuSans-30" transform="translate(159.033203 0)"/>
      </g>
     </g>
    </g>
    <g id="ytick_4">
     <g id="line2d_8">
      <path d="M 50.14375 152.499988 
L 407.26375 152.499988 
" clip-path="url(#p3c2c0e47a0)" style="fill: none; stroke: #cccccc; stroke-width: 0.8; stroke-linecap: round"/>
     </g>
     <g id="text_9">
      <!-- 0.75 -->
      <g style="fill: #262626" transform="translate(20.878125 156.299206) scale(0.1 -0.1)">
       <use xlink:href="#DejaVuSans-30"/>
       <use xlink:href="#DejaVuSans-2e" transform="translate(63.623047 0)"/>
       <use xlink:href="#DejaVuSans-37" transform="translate(95.410156 0)"/>
       <use xlink:href="#DejaVuSans-35" transform="translate(159.033203 0)"/>
      </g>
     </g>
    </g>
    <g id="ytick_5">
     <g id="line2d_9">
      <path d="M 50.14375 106.578523 
L 407.26375 106.578523 
" clip-path="url(#p3c2c0e47a0)" style="fill: none; stroke: #cccccc; stroke-width: 0.8; stroke-linecap: round"/>
     </g>
     <g id="text_10">
      <!-- 0.80 -->
      <g style="fill: #262626" transform="translate(20.878125 110.377742) scale(0.1 -0.1)">
       <use xlink:href="#DejaVuSans-30"/>
       <use xlink:href="#DejaVuSans-2e" transform="translate(63.623047 0)"/>
       <use xlink:href="#DejaVuSans-38" transform="translate(95.410156 0)"/>
       <use xlink:href="#DejaVuSans-30" transform="translate(159.033203 0)"/>
      </g>
     </g>
    </g>
    <g id="ytick_6">
     <g id="line2d_10">
      <path d="M 50.14375 60.657059 
L 407.26375 60.657059 
" clip-path="url(#p3c2c0e47a0)" style="fill: none; stroke: #cccccc; stroke-width: 0.8; stroke-linecap: round"/>
     </g>
     <g id="text_11">
      <!-- 0.85 -->
      <g style="fill: #262626" transform="translate(20.878125 64.456278) scale(0.1 -0.1)">
       <use xlink:href="#DejaVuSans-30"/>
       <use xlink:href="#DejaVuSans-2e" transform="translate(63.623047 0)"/>
       <use xlink:href="#DejaVuSans-38" transform="translate(95.410156 0)"/>
       <use xlink:href="#DejaVuSans-35" transform="translate(159.033203 0)"/>
      </g>
     </g>
    </g>
    <g id="text_12">
     <!-- Mean Bandwidth (GiB/s) -->
     <g style="fill: #262626" transform="translate(14.798438 228.984412) rotate(-90) scale(0.1 -0.1)">
      <defs>
       <path id="DejaVuSans-4d" d="M 628 4666 
L 1569 4666 
L 2759 1491 
L 3956 4666 
L 4897 4666 
L 4897 0 
L 4281 0 
L 4281 4097 
L 3078 897 
L 2444 897 
L 1241 4097 
L 1241 0 
L 628 0 
L 628 4666 
z
" transform="scale(0.015625)"/>
       <path id="DejaVuSans-61" d="M 2194 1759 
Q 1497 1759 1228 1600 
Q 959 1441 959 1056 
Q 959 750 1161 570 
Q 1363 391 1709 391 
Q 2188 391 2477 730 
Q 2766 1069 2766 1631 
L 2766 1759 
L 2194 1759 
z
M 3341 1997 
L 3341 0 
L 2766 0 
L 2766 531 
Q 2569 213 2275 61 
Q 1981 -91 1556 -91 
Q 1019 -91 701 211 
Q 384 513 384 1019 
Q 384 1609 779 1909 
Q 1175 2209 1959 2209 
L 2766 2209 
L 2766 2266 
Q 2766 2663 2505 2880 
Q 2244 3097 1772 3097 
Q 1472 3097 1187 3025 
Q 903 2953 641 2809 
L 641 3341 
Q 956 3463 1253 3523 
Q 1550 3584 1831 3584 
Q 2591 3584 2966 3190 
Q 3341 2797 3341 1997 
z
" transform="scale(0.015625)"/>
       <path id="DejaVuSans-6e" d="M 3513 2113 
L 3513 0 
L 2938 0 
L 2938 2094 
Q 2938 2591 2744 2837 
Q 2550 3084 2163 3084 
Q 1697 3084 1428 2787 
Q 1159 2491 1159 1978 
L 1159 0 
L 581 0 
L 581 3500 
L 1159 3500 
L 1159 2956 
Q 1366 3272 1645 3428 
Q 1925 3584 2291 3584 
Q 2894 3584 3203 3211 
Q 3513 2838 3513 2113 
z
" transform="scale(0.015625)"/>
       <path id="DejaVuSans-42" d="M 1259 2228 
L 1259 519 
L 2272 519 
Q 2781 519 3026 730 
Q 3272 941 3272 1375 
Q 3272 1813 3026 2020 
Q 2781 2228 2272 2228 
L 1259 2228 
z
M 1259 4147 
L 1259 2741 
L 2194 2741 
Q 2656 2741 2882 2914 
Q 3109 3088 3109 3444 
Q 3109 3797 2882 3972 
Q 2656 4147 2194 4147 
L 1259 4147 
z
M 628 4666 
L 2241 4666 
Q 2963 4666 3353 4366 
Q 3744 4066 3744 3513 
Q 3744 3084 3544 2831 
Q 3344 2578 2956 2516 
Q 3422 2416 3680 2098 
Q 3938 1781 3938 1306 
Q 3938 681 3513 340 
Q 3088 0 2303 0 
L 628 0 
L 628 4666 
z
" transform="scale(0.015625)"/>
       <path id="DejaVuSans-64" d="M 2906 2969 
L 2906 4863 
L 3481 4863 
L 3481 0 
L 2906 0 
L 2906 525 
Q 2725 213 2448 61 
Q 2172 -91 1784 -91 
Q 1150 -91 751 415 
Q 353 922 353 1747 
Q 353 2572 751 3078 
Q 1150 3584 1784 3584 
Q 2172 3584 2448 3432 
Q 2725 3281 2906 2969 
z
M 947 1747 
Q 947 1113 1208 752 
Q 1469 391 1925 391 
Q 2381 391 2643 752 
Q 2906 1113 2906 1747 
Q 2906 2381 2643 2742 
Q 2381 3103 1925 3103 
Q 1469 3103 1208 2742 
Q 947 2381 947 1747 
z
" transform="scale(0.015625)"/>
       <path id="DejaVuSans-77" d="M 269 3500 
L 844 3500 
L 1563 769 
L 2278 3500 
L 2956 3500 
L 3675 769 
L 4391 3500 
L 4966 3500 
L 4050 0 
L 3372 0 
L 2619 2869 
L 1863 0 
L 1184 0 
L 269 3500 
z
" transform="scale(0.015625)"/>
       <path id="DejaVuSans-69" d="M 603 3500 
L 1178 3500 
L 1178 0 
L 603 0 
L 603 3500 
z
M 603 4863 
L 1178 4863 
L 1178 4134 
L 603 4134 
L 603 4863 
z
" transform="scale(0.015625)"/>
       <path id="DejaVuSans-74" d="M 1172 4494 
L 1172 3500 
L 2356 3500 
L 2356 3053 
L 1172 3053 
L 1172 1153 
Q 1172 725 1289 603 
Q 1406 481 1766 481 
L 2356 481 
L 2356 0 
L 1766 0 
Q 1100 0 847 248 
Q 594 497 594 1153 
L 594 3053 
L 172 3053 
L 172 3500 
L 594 3500 
L 594 4494 
L 1172 4494 
z
" transform="scale(0.015625)"/>
       <path id="DejaVuSans-68" d="M 3513 2113 
L 3513 0 
L 2938 0 
L 2938 2094 
Q 2938 2591 2744 2837 
Q 2550 3084 2163 3084 
Q 1697 3084 1428 2787 
Q 1159 2491 1159 1978 
L 1159 0 
L 581 0 
L 581 4863 
L 1159 4863 
L 1159 2956 
Q 1366 3272 1645 3428 
Q 1925 3584 2291 3584 
Q 2894 3584 3203 3211 
Q 3513 2838 3513 2113 
z
" transform="scale(0.015625)"/>
       <path id="DejaVuSans-28" d="M 1984 4856 
Q 1566 4138 1362 3434 
Q 1159 2731 1159 2009 
Q 1159 1288 1364 580 
Q 1569 -128 1984 -844 
L 1484 -844 
Q 1016 -109 783 600 
Q 550 1309 550 2009 
Q 550 2706 781 3412 
Q 1013 4119 1484 4856 
L 1984 4856 
z
" transform="scale(0.015625)"/>
       <path id="DejaVuSans-47" d="M 3809 666 
L 3809 1919 
L 2778 1919 
L 2778 2438 
L 4434 2438 
L 4434 434 
Q 4069 175 3628 42 
Q 3188 -91 2688 -91 
Q 1594 -91 976 548 
Q 359 1188 359 2328 
Q 359 3472 976 4111 
Q 1594 4750 2688 4750 
Q 3144 4750 3555 4637 
Q 3966 4525 4313 4306 
L 4313 3634 
Q 3963 3931 3569 4081 
Q 3175 4231 2741 4231 
Q 1884 4231 1454 3753 
Q 1025 3275 1025 2328 
Q 1025 1384 1454 906 
Q 1884 428 2741 428 
Q 3075 428 3337 486 
Q 3600 544 3809 666 
z
" transform="scale(0.015625)"/>
       <path id="DejaVuSans-2f" d="M 1625 4666 
L 2156 4666 
L 531 -594 
L 0 -594 
L 1625 4666 
z
" transform="scale(0.015625)"/>
       <path id="DejaVuSans-29" d="M 513 4856 
L 1013 4856 
Q 1481 4119 1714 3412 
Q 1947 2706 1947 2009 
Q 1947 1309 1714 600 
Q 1481 -109 1013 -844 
L 513 -844 
Q 928 -128 1133 580 
Q 1338 1288 1338 2009 
Q 1338 2731 1133 3434 
Q 928 4138 513 4856 
z
" transform="scale(0.015625)"/>
      </defs>
      <use xlink:href="#DejaVuSans-4d"/>
      <use xlink:href="#DejaVuSans-65" transform="translate(86.279297 0)"/>
      <use xlink:href="#DejaVuSans-61" transform="translate(147.802734 0)"/>
      <use xlink:href="#DejaVuSans-6e" transform="translate(209.082031 0)"/>
      <use xlink:href="#DejaVuSans-20" transform="translate(272.460938 0)"/>
      <use xlink:href="#DejaVuSans-42" transform="translate(304.248047 0)"/>
      <use xlink:href="#DejaVuSans-61" transform="translate(372.851562 0)"/>
      <use xlink:href="#DejaVuSans-6e" transform="translate(434.130859 0)"/>
      <use xlink:href="#DejaVuSans-64" transform="translate(497.509766 0)"/>
      <use xlink:href="#DejaVuSans-77" transform="translate(560.986328 0)"/>
      <use xlink:href="#DejaVuSans-69" transform="translate(642.773438 0)"/>
      <use xlink:href="#DejaVuSans-64" transform="translate(670.556641 0)"/>
      <use xlink:href="#DejaVuSans-74" transform="translate(734.033203 0)"/>
      <use xlink:href="#DejaVuSans-68" transform="translate(773.242188 0)"/>
      <use xlink:href="#DejaVuSans-20" transform="translate(836.621094 0)"/>
      <use xlink:href="#DejaVuSans-28" transform="translate(868.408203 0)"/>
      <use xlink:href="#DejaVuSans-47" transform="translate(907.421875 0)"/>
      <use xlink:href="#DejaVuSans-69" transform="translate(984.912109 0)"/>
      <use xlink:href="#DejaVuSans-42" transform="translate(1012.695312 0)"/>
      <use xlink:href="#DejaVuSans-2f" transform="translate(1081.298828 0)"/>
      <use xlink:href="#DejaVuSans-73" transform="translate(1114.990234 0)"/>
      <use xlink:href="#DejaVuSans-29" transform="translate(1167.089844 0)"/>
     </g>
    </g>
   </g>
   <g id="FillBetweenPolyCollection_1"/>
   <g id="FillBetweenPolyCollection_2"/>
   <g id="FillBetweenPolyCollection_3"/>
   <g id="FillBetweenPolyCollection_4"/>
   <g id="FillBetweenPolyCollection_5"/>
   <g id="FillBetweenPolyCollection_6"/>
   <g id="FillBetweenPolyCollection_7"/>
   <g id="line2d_11">
    <path d="M 66.376477 288.903292 
L 112.755698 140.495011 
L 205.51414 226.347167 
L 391.031023 253.104259 
" clip-path="url(#p3c2c0e47a0)" style="fill: none; stroke: #4c02a1; stroke-width: 1.5; stroke-linecap: round"/>
   </g>
   <g id="line2d_12">
    <path d="M 66.376477 75.200567 
L 112.755698 107.745841 
L 205.51414 76.660148 
L 391.031023 142.748601 
" clip-path="url(#p3c2c0e47a0)" style="fill: none; stroke: #7e03a8; stroke-width: 1.5; stroke-linecap: round"/>
   </g>
   <g id="line2d_13">
    <path d="M 66.376477 289.639725 
L 112.755698 115.685094 
L 205.51414 229.044143 
L 391.031023 237.56881 
" clip-path="url(#p3c2c0e47a0)" style="fill: none; stroke: #aa2395; stroke-width: 1.5; stroke-linecap: round"/>
   </g>
   <g id="line2d_14">
    <path d="M 66.376477 172.999773 
L 112.755698 168.389871 
L 205.51414 56.283832 
L 391.031023 144.424948 
" clip-path="url(#p3c2c0e47a0)" style="fill: none; stroke: #cc4778; stroke-width: 1.5; stroke-linecap: round"/>
   </g>
   <g id="line2d_15">
    <path d="M 66.376477 212.445852 
L 112.755698 171.058847 
L 205.51414 101.007596 
L 391.031023 161.109521 
" clip-path="url(#p3c2c0e47a0)" style="fill: none; stroke: #e66c5c; stroke-width: 1.5; stroke-linecap: round"/>
   </g>
   <g id="line2d_16">
    <path d="M 66.376477 122.248855 
L 112.755698 72.36866 
L 205.51414 88.935426 
L 391.031023 164.263402 
" clip-path="url(#p3c2c0e47a0)" style="fill: none; stroke: #f89540; stroke-width: 1.5; stroke-linecap: round"/>
   </g>
   <g id="line2d_17">
    <path d="M 66.376477 271.217409 
L 112.755698 47.719725 
L 205.51414 75.970147 
L 391.031023 151.574316 
" clip-path="url(#p3c2c0e47a0)" style="fill: none; stroke: #fdc527; stroke-width: 1.5; stroke-linecap: round"/>
   </g>
   <g id="line2d_18"/>
   <g id="line2d_19"/>
   <g id="line2d_20"/>
   <g id="line2d_21"/>
   <g id="line2d_22"/>
   <g id="line2d_23"/>
   <g id="line2d_24"/>
   <g id="text_13">
    <path d="M 109.438734 157.578207 
L 109.919252 156.040604 
L 104.609973 154.381396 
L 104.422602 156.159579 
L 103.565064 155.891589 
L 103.749639 154.122354 
L 104.043729 153.1813 
L 110.210545 155.108498 
L 110.691063 153.570895 
L 111.482981 153.818378 
L 110.230651 157.82569 
L 109.438734 157.578207 
z
" clip-path="url(#p3c2c0e47a0)" style="fill: #4c02a1; stroke: #ffffff; stroke-width: 5"/>
    <path d="M 109.438734 157.578207 
L 109.919252 156.040604 
L 104.609973 154.381396 
L 104.422602 156.159579 
L 103.565064 155.891589 
L 103.749639 154.122354 
L 104.043729 153.1813 
L 110.210545 155.108498 
L 110.691063 153.570895 
L 111.482981 153.818378 
L 110.230651 157.82569 
L 109.438734 157.578207 
z
" clip-path="url(#p3c2c0e47a0)" style="fill: #4c02a1"/>
   </g>
   <g id="text_14">
    <path d="M 147.75241 92.144978 
L 146.627636 96.626855 
L 148.989178 95.835443 
L 147.75241 92.144978 
z
M 147.233406 91.412561 
L 148.409732 91.018344 
L 149.919572 95.523644 
L 150.906264 95.192979 
L 151.166923 95.970777 
L 150.180231 96.301442 
L 150.726375 97.931113 
L 149.795981 98.242912 
L 149.249837 96.61324 
L 146.129758 97.658858 
L 145.827392 96.756613 
L 147.233406 91.412561 
z
" clip-path="url(#p3c2c0e47a0)" style="fill: #7e03a8; stroke: #ffffff; stroke-width: 5"/>
    <path d="M 147.75241 92.144978 
L 146.627636 96.626855 
L 148.989178 95.835443 
L 147.75241 92.144978 
z
M 147.233406 91.412561 
L 148.409732 91.018344 
L 149.919572 95.523644 
L 150.906264 95.192979 
L 151.166923 95.970777 
L 150.180231 96.301442 
L 150.726375 97.931113 
L 149.795981 98.242912 
L 149.249837 96.61324 
L 146.129758 97.658858 
L 145.827392 96.756613 
L 147.233406 91.412561 
z
" clip-path="url(#p3c2c0e47a0)" style="fill: #7e03a8"/>
   </g>
   <g id="text_15">
    <path d="M 189.069936 207.837574 
Q 188.624661 207.29341 188.07794 207.219891 
Q 187.532209 207.147581 187.023112 207.56416 
Q 186.512806 207.981729 186.475677 208.530977 
Q 186.439537 209.081434 186.884812 209.625599 
Q 187.330086 210.169764 187.879006 210.243502 
Q 188.430125 210.31746 188.936803 209.90286 
Q 189.445899 209.486281 189.482039 208.935824 
Q 189.519168 208.386576 189.069936 207.837574 
z
M 188.769643 206.809349 
Q 188.488832 206.219441 188.600388 205.669859 
Q 188.714144 205.120498 189.197846 204.724698 
Q 189.87382 204.171568 190.660648 204.331265 
Q 191.448466 204.492171 192.134189 205.330185 
Q 192.82387 206.173036 192.823693 206.974697 
Q 192.823516 207.776358 192.147542 208.329488 
Q 191.66384 208.725288 191.101841 208.726857 
Q 190.542042 208.728646 190.022348 208.340266 
Q 190.345378 208.996573 190.221842 209.610469 
Q 190.100504 210.224584 189.561176 210.6659 
Q 188.740092 211.33777 187.89148 211.196326 
Q 187.044077 211.053893 186.280184 210.120348 
Q 185.51728 209.188012 185.544389 208.327973 
Q 185.573696 207.468153 186.39478 206.796283 
Q 186.934108 206.354967 187.56108 206.358781 
Q 188.19025 206.362815 188.769643 206.809349 
z
M 189.746696 205.54348 
Q 189.308946 205.901679 189.287093 206.375839 
Q 189.266231 206.851208 189.670936 207.345794 
Q 190.073662 207.83796 190.545736 207.914012 
Q 191.018799 207.991272 191.45655 207.633074 
Q 191.895509 207.273886 191.913404 206.794889 
Q 191.932287 206.317101 191.529561 205.824934 
Q 191.124856 205.330349 190.654761 205.256716 
Q 190.185656 205.184292 189.746696 205.54348 
z
" clip-path="url(#p3c2c0e47a0)" style="fill: #aa2395; stroke: #ffffff; stroke-width: 5"/>
    <path d="M 189.069936 207.837574 
Q 188.624661 207.29341 188.07794 207.219891 
Q 187.532209 207.147581 187.023112 207.56416 
Q 186.512806 207.981729 186.475677 208.530977 
Q 186.439537 209.081434 186.884812 209.625599 
Q 187.330086 210.169764 187.879006 210.243502 
Q 188.430125 210.31746 188.936803 209.90286 
Q 189.445899 209.486281 189.482039 208.935824 
Q 189.519168 208.386576 189.069936 207.837574 
z
M 188.769643 206.809349 
Q 188.488832 206.219441 188.600388 205.669859 
Q 188.714144 205.120498 189.197846 204.724698 
Q 189.87382 204.171568 190.660648 204.331265 
Q 191.448466 204.492171 192.134189 205.330185 
Q 192.82387 206.173036 192.823693 206.974697 
Q 192.823516 207.776358 192.147542 208.329488 
Q 191.66384 208.725288 191.101841 208.726857 
Q 190.542042 208.728646 190.022348 208.340266 
Q 190.345378 208.996573 190.221842 209.610469 
Q 190.100504 210.224584 189.561176 210.6659 
Q 188.740092 211.33777 187.89148 211.196326 
Q 187.044077 211.053893 186.280184 210.120348 
Q 185.51728 209.188012 185.544389 208.327973 
Q 185.573696 207.468153 186.39478 206.796283 
Q 186.934108 206.354967 187.56108 206.358781 
Q 188.19025 206.362815 188.769643 206.809349 
z
M 189.746696 205.54348 
Q 189.308946 205.901679 189.287093 206.375839 
Q 189.266231 206.851208 189.670936 207.345794 
Q 190.073662 207.83796 190.545736 207.914012 
Q 191.018799 207.991272 191.45655 207.633074 
Q 191.895509 207.273886 191.913404 206.794889 
Q 191.932287 206.317101 191.529561 205.824934 
Q 191.124856 205.330349 190.654761 205.256716 
Q 190.185656 205.184292 189.746696 205.54348 
z
" clip-path="url(#p3c2c0e47a0)" style="fill: #aa2395"/>
   </g>
   <g id="text_16">
    <path d="M 223.249371 66.846446 
L 224.704432 67.537761 
L 227.091516 62.513496 
L 225.357156 62.078708 
L 225.742711 61.267204 
L 227.468602 61.69797 
L 228.359139 62.121074 
L 225.586501 67.956842 
L 227.041562 68.648158 
L 226.685511 69.397563 
L 222.89332 67.595852 
L 223.249371 66.846446 
z
M 232.234165 67.563764 
Q 231.634358 67.278789 231.087818 67.522519 
Q 230.54336 67.765508 230.204072 68.479631 
Q 229.866796 69.18952 230.020336 69.769325 
Q 230.175957 70.348389 230.775764 70.633364 
Q 231.375571 70.918339 231.921371 70.672528 
Q 232.467841 70.425305 232.805117 69.715416 
Q 233.144405 69.001293 232.988853 68.425722 
Q 232.833972 67.848739 232.234165 67.563764 
z
M 235.329514 65.610954 
L 234.94396 66.422457 
Q 234.683167 66.104805 234.381191 65.859269 
Q 234.079886 65.612323 233.743994 65.452737 
Q 232.861925 65.033656 232.11323 65.407955 
Q 231.365945 65.782923 230.727652 66.955256 
Q 231.169717 66.694757 231.659288 66.676524 
Q 232.150271 66.658962 232.621648 66.882919 
Q 233.613799 67.354301 233.903298 68.230506 
Q 234.193467 69.1053 233.701299 70.141202 
Q 233.219189 71.155934 232.327702 71.484879 
Q 231.436885 71.812413 230.4405 71.33902 
Q 229.297338 70.795891 229.109026 69.633892 
Q 228.921383 68.470482 229.711267 66.807958 
Q 230.452872 65.247049 231.635018 64.670435 
Q 232.817164 64.09382 234.064762 64.686568 
Q 234.400654 64.846154 234.710677 65.074753 
Q 235.020699 65.303353 235.329514 65.610954 
z
" clip-path="url(#p3c2c0e47a0)" style="fill: #cc4778; stroke: #ffffff; stroke-width: 5"/>
    <path d="M 223.249371 66.846446 
L 224.704432 67.537761 
L 227.091516 62.513496 
L 225.357156 62.078708 
L 225.742711 61.267204 
L 227.468602 61.69797 
L 228.359139 62.121074 
L 225.586501 67.956842 
L 227.041562 68.648158 
L 226.685511 69.397563 
L 222.89332 67.595852 
L 223.249371 66.846446 
z
M 232.234165 67.563764 
Q 231.634358 67.278789 231.087818 67.522519 
Q 230.54336 67.765508 230.204072 68.479631 
Q 229.866796 69.18952 230.020336 69.769325 
Q 230.175957 70.348389 230.775764 70.633364 
Q 231.375571 70.918339 231.921371 70.672528 
Q 232.467841 70.425305 232.805117 69.715416 
Q 233.144405 69.001293 232.988853 68.425722 
Q 232.833972 67.848739 232.234165 67.563764 
z
M 235.329514 65.610954 
L 234.94396 66.422457 
Q 234.683167 66.104805 234.381191 65.859269 
Q 234.079886 65.612323 233.743994 65.452737 
Q 232.861925 65.033656 232.11323 65.407955 
Q 231.365945 65.782923 230.727652 66.955256 
Q 231.169717 66.694757 231.659288 66.676524 
Q 232.150271 66.658962 232.621648 66.882919 
Q 233.613799 67.354301 233.903298 68.230506 
Q 234.193467 69.1053 233.701299 70.141202 
Q 233.219189 71.155934 232.327702 71.484879 
Q 231.436885 71.812413 230.4405 71.33902 
Q 229.297338 70.795891 229.109026 69.633892 
Q 228.921383 68.470482 229.711267 66.807958 
Q 230.452872 65.247049 231.635018 64.670435 
Q 232.817164 64.09382 234.064762 64.686568 
Q 234.400654 64.846154 234.710677 65.074753 
Q 235.020699 65.303353 235.329514 65.610954 
z
" clip-path="url(#p3c2c0e47a0)" style="fill: #cc4778"/>
   </g>
   <g id="text_17">
    <path d="M 267.048422 119.711025 
Q 267.675068 120.073358 267.904785 120.652012 
Q 268.136469 121.229661 267.919766 121.898559 
Q 267.587488 122.924202 266.698917 123.258821 
Q 265.810827 123.591953 264.510192 123.170587 
Q 264.074665 123.029489 263.640313 122.79351 
Q 263.205961 122.55753 262.76981 122.225706 
L 263.063082 121.320464 
Q 263.37885 121.674059 263.805057 121.940248 
Q 264.232751 122.20692 264.739627 122.371132 
Q 265.621086 122.656699 266.196055 122.458638 
Q 266.771023 122.260576 266.986281 121.596138 
Q 267.185167 120.982238 266.867308 120.498212 
Q 266.549931 120.0127 265.784414 119.764696 
L 264.975791 119.502726 
L 265.225721 118.731264 
L 266.071506 119.005273 
Q 266.7627 119.229199 267.219422 119.071667 
Q 267.676143 118.914135 267.84469 118.393881 
Q 268.01757 117.860249 267.730988 117.452054 
Q 267.446374 117.042854 266.740315 116.814112 
Q 266.35384 116.688906 265.884919 116.630609 
Q 265.416478 116.570826 264.830481 116.57479 
L 265.101119 115.73941 
Q 265.684394 115.764129 266.175214 115.841017 
Q 266.666035 115.917906 267.079265 116.05178 
Q 268.148015 116.398023 268.611877 117.085382 
Q 269.077706 117.771736 268.809957 118.598197 
Q 268.623111 119.174936 268.164544 119.464908 
Q 267.705977 119.754881 267.048422 119.711025 
z
M 270.110183 123.963211 
L 273.384811 125.024093 
L 273.129101 125.813392 
L 268.726266 124.387005 
L 268.981975 123.597706 
Q 269.694748 123.217631 270.917799 122.585688 
Q 272.142818 121.95274 272.466806 121.758776 
Q 273.080929 121.3993 273.37295 121.106288 
Q 273.666458 120.813757 273.776254 120.474848 
Q 273.955395 119.921893 273.68012 119.448378 
Q 273.405326 118.973377 272.782508 118.771602 
Q 272.341035 118.628578 271.800909 118.622766 
Q 271.262269 118.617435 270.603726 118.749002 
L 270.910963 117.800653 
Q 271.550976 117.756703 272.080549 117.800158 
Q 272.611609 117.844094 273.02038 117.976524 
Q 274.098049 118.325656 274.563898 119.072787 
Q 275.030228 119.818432 274.738401 120.719215 
Q 274.599711 121.147309 274.314933 121.478802 
Q 274.032122 121.80929 273.43994 122.192299 
Q 273.280176 122.290003 272.448841 122.731857 
Q 271.618993 123.174193 270.110183 123.963211 
z
" clip-path="url(#p3c2c0e47a0)" style="fill: #e66c5c; stroke: #ffffff; stroke-width: 5"/>
    <path d="M 267.048422 119.711025 
Q 267.675068 120.073358 267.904785 120.652012 
Q 268.136469 121.229661 267.919766 121.898559 
Q 267.587488 122.924202 266.698917 123.258821 
Q 265.810827 123.591953 264.510192 123.170587 
Q 264.074665 123.029489 263.640313 122.79351 
Q 263.205961 122.55753 262.76981 122.225706 
L 263.063082 121.320464 
Q 263.37885 121.674059 263.805057 121.940248 
Q 264.232751 122.20692 264.739627 122.371132 
Q 265.621086 122.656699 266.196055 122.458638 
Q 266.771023 122.260576 266.986281 121.596138 
Q 267.185167 120.982238 266.867308 120.498212 
Q 266.549931 120.0127 265.784414 119.764696 
L 264.975791 119.502726 
L 265.225721 118.731264 
L 266.071506 119.005273 
Q 266.7627 119.229199 267.219422 119.071667 
Q 267.676143 118.914135 267.84469 118.393881 
Q 268.01757 117.860249 267.730988 117.452054 
Q 267.446374 117.042854 266.740315 116.814112 
Q 266.35384 116.688906 265.884919 116.630609 
Q 265.416478 116.570826 264.830481 116.57479 
L 265.101119 115.73941 
Q 265.684394 115.764129 266.175214 115.841017 
Q 266.666035 115.917906 267.079265 116.05178 
Q 268.148015 116.398023 268.611877 117.085382 
Q 269.077706 117.771736 268.809957 118.598197 
Q 268.623111 119.174936 268.164544 119.464908 
Q 267.705977 119.754881 267.048422 119.711025 
z
M 270.110183 123.963211 
L 273.384811 125.024093 
L 273.129101 125.813392 
L 268.726266 124.387005 
L 268.981975 123.597706 
Q 269.694748 123.217631 270.917799 122.585688 
Q 272.142818 121.95274 272.466806 121.758776 
Q 273.080929 121.3993 273.37295 121.106288 
Q 273.666458 120.813757 273.776254 120.474848 
Q 273.955395 119.921893 273.68012 119.448378 
Q 273.405326 118.973377 272.782508 118.771602 
Q 272.341035 118.628578 271.800909 118.622766 
Q 271.262269 118.617435 270.603726 118.749002 
L 270.910963 117.800653 
Q 271.550976 117.756703 272.080549 117.800158 
Q 272.611609 117.844094 273.02038 117.976524 
Q 274.098049 118.325656 274.563898 119.072787 
Q 275.030228 119.818432 274.738401 120.719215 
Q 274.599711 121.147309 274.314933 121.478802 
Q 274.032122 121.80929 273.43994 122.192299 
Q 273.280176 122.290003 272.448841 122.731857 
Q 271.618993 123.174193 270.110183 123.963211 
z
" clip-path="url(#p3c2c0e47a0)" style="fill: #e66c5c"/>
   </g>
   <g id="text_18">
    <path d="M 306.700537 128.642063 
Q 306.085261 128.392234 305.553722 128.667147 
Q 305.024219 128.9412 304.726776 129.67374 
Q 304.431096 130.401937 304.617893 130.971898 
Q 304.806725 131.540999 305.422001 131.790828 
Q 306.037277 132.040657 306.567955 131.763709 
Q 307.099222 131.485313 307.394902 130.757116 
Q 307.692345 130.024576 307.503785 129.458958 
Q 307.315813 128.891892 306.700537 128.642063 
z
M 309.677837 126.513603 
L 309.339833 127.346035 
Q 309.061115 127.043988 308.745452 126.816318 
Q 308.430377 126.5872 308.085822 126.447295 
Q 307.181005 126.0799 306.455196 126.496848 
Q 305.730834 126.914384 305.16137 128.12165 
Q 305.587639 127.836035 306.075338 127.789535 
Q 306.564484 127.743623 307.048019 127.939959 
Q 308.065758 128.353205 308.405418 129.211213 
Q 308.745666 130.067772 308.314197 131.13039 
Q 307.891545 132.171292 307.020562 132.551216 
Q 306.150166 132.929692 305.128084 132.514682 
Q 303.955441 132.038538 303.700278 130.889366 
Q 303.445703 129.738747 304.13817 128.033347 
Q 304.788313 126.432182 305.935154 125.788202 
Q 307.081995 125.144222 308.361769 125.663867 
Q 308.706323 125.803771 309.029041 126.014069 
Q 309.351758 126.224366 309.677837 126.513603 
z
M 313.938982 128.997633 
L 310.167044 131.666868 
L 312.474691 132.603874 
L 313.938982 128.997633 
z
M 314.021971 128.103813 
L 315.171451 128.570553 
L 313.383851 132.973033 
L 314.348025 133.36453 
L 314.039413 134.124576 
L 313.075239 133.73308 
L 312.428623 135.325559 
L 311.519462 134.9564 
L 312.166078 133.363921 
L 309.117205 132.125945 
L 309.475195 131.24429 
L 314.021971 128.103813 
z
" clip-path="url(#p3c2c0e47a0)" style="fill: #f89540; stroke: #ffffff; stroke-width: 5"/>
    <path d="M 306.700537 128.642063 
Q 306.085261 128.392234 305.553722 128.667147 
Q 305.024219 128.9412 304.726776 129.67374 
Q 304.431096 130.401937 304.617893 130.971898 
Q 304.806725 131.540999 305.422001 131.790828 
Q 306.037277 132.040657 306.567955 131.763709 
Q 307.099222 131.485313 307.394902 130.757116 
Q 307.692345 130.024576 307.503785 129.458958 
Q 307.315813 128.891892 306.700537 128.642063 
z
M 309.677837 126.513603 
L 309.339833 127.346035 
Q 309.061115 127.043988 308.745452 126.816318 
Q 308.430377 126.5872 308.085822 126.447295 
Q 307.181005 126.0799 306.455196 126.496848 
Q 305.730834 126.914384 305.16137 128.12165 
Q 305.587639 127.836035 306.075338 127.789535 
Q 306.564484 127.743623 307.048019 127.939959 
Q 308.065758 128.353205 308.405418 129.211213 
Q 308.745666 130.067772 308.314197 131.13039 
Q 307.891545 132.171292 307.020562 132.551216 
Q 306.150166 132.929692 305.128084 132.514682 
Q 303.955441 132.038538 303.700278 130.889366 
Q 303.445703 129.738747 304.13817 128.033347 
Q 304.788313 126.432182 305.935154 125.788202 
Q 307.081995 125.144222 308.361769 125.663867 
Q 308.706323 125.803771 309.029041 126.014069 
Q 309.351758 126.224366 309.677837 126.513603 
z
M 313.938982 128.997633 
L 310.167044 131.666868 
L 312.474691 132.603874 
L 313.938982 128.997633 
z
M 314.021971 128.103813 
L 315.171451 128.570553 
L 313.383851 132.973033 
L 314.348025 133.36453 
L 314.039413 134.124576 
L 313.075239 133.73308 
L 312.428623 135.325559 
L 311.519462 134.9564 
L 312.166078 133.363921 
L 309.117205 132.125945 
L 309.475195 131.24429 
L 314.021971 128.103813 
z
" clip-path="url(#p3c2c0e47a0)" style="fill: #f89540"/>
   </g>
   <g id="text_19">
    <path d="M 340.814369 133.193174 
L 342.30618 133.801136 
L 344.405447 128.649972 
L 342.649284 128.313915 
L 342.988351 127.481915 
L 344.735832 127.814434 
L 345.648862 128.186524 
L 343.210528 134.169687 
L 344.70234 134.777649 
L 344.389219 135.545982 
L 340.501248 133.961508 
L 340.814369 133.193174 
z
M 347.334172 135.850206 
L 350.521816 137.149275 
L 350.208695 137.917608 
L 345.922811 136.170971 
L 346.235932 135.402637 
Q 346.974751 135.076066 348.241004 134.535874 
Q 349.509295 133.994825 349.846683 133.825238 
Q 350.485602 133.511946 350.798402 133.241227 
Q 351.112648 132.971097 351.247096 132.641191 
Q 351.466457 132.102923 351.226787 131.610428 
Q 350.987707 131.116487 350.381432 130.86941 
Q 349.951686 130.694275 349.413454 130.648716 
Q 348.876668 130.603747 348.210226 130.686477 
L 348.586443 129.76332 
Q 349.227955 129.766604 349.752892 129.848926 
Q 350.279277 129.931838 350.67719 130.094 
Q 351.726233 130.521519 352.135817 131.300917 
Q 352.54599 132.078868 352.188643 132.955724 
Q 352.018814 133.372447 351.710405 133.682076 
Q 351.404033 133.990848 350.785262 134.329223 
Q 350.618738 134.414901 349.757131 134.794356 
Q 348.896972 135.174401 347.334172 135.850206 
z
M 355.385856 136.288478 
Q 354.734726 136.023122 354.219298 136.2197 
Q 353.705317 136.416868 353.457061 137.026037 
Q 353.208215 137.636652 353.43797 138.136917 
Q 353.669171 138.637771 354.320301 138.903128 
Q 354.971431 139.168485 355.488896 138.971049 
Q 356.008397 138.772756 356.255474 138.166481 
Q 356.50373 137.557313 356.272529 137.056459 
Q 356.042774 136.556194 355.385856 136.288478 
z
M 354.630862 135.528605 
Q 354.102366 135.144499 353.937838 134.608387 
Q 353.775347 134.071418 354.01122 133.492636 
Q 354.340852 132.683788 355.108387 132.44822 
Q 355.877369 132.213242 356.880109 132.621892 
Q 357.888638 133.0329 358.271433 133.737264 
Q 358.654228 134.441629 358.324596 135.250477 
Q 358.088723 135.82926 357.595743 136.099103 
Q 357.104799 136.368088 356.462708 136.275142 
Q 357.060014 136.697414 357.244739 137.29575 
Q 357.431501 137.893228 357.168503 138.53857 
Q 356.768109 139.521054 355.955015 139.80217 
Q 355.14251 140.08184 354.02546 139.626606 
Q 352.909857 139.171961 352.522835 138.403445 
Q 352.13785 137.634072 352.538244 136.651589 
Q 352.801242 136.006247 353.353874 135.710096 
Q 353.908543 135.413088 354.630862 135.528605 
z
M 354.884527 133.949773 
Q 354.671063 134.473572 354.878369 134.900572 
Q 355.087123 135.328162 355.678928 135.569341 
Q 356.267839 135.809342 356.718897 135.650647 
Q 357.171403 135.492542 357.384867 134.968743 
Q 357.598922 134.443498 357.385827 134.01414 
Q 357.17418 133.58537 356.585269 133.34537 
Q 355.993464 133.10419 355.545299 133.264064 
Q 355.098582 133.424528 354.884527 133.949773 
z
" clip-path="url(#p3c2c0e47a0)" style="fill: #fdc527; stroke: #ffffff; stroke-width: 5"/>
    <path d="M 340.814369 133.193174 
L 342.30618 133.801136 
L 344.405447 128.649972 
L 342.649284 128.313915 
L 342.988351 127.481915 
L 344.735832 127.814434 
L 345.648862 128.186524 
L 343.210528 134.169687 
L 344.70234 134.777649 
L 344.389219 135.545982 
L 340.501248 133.961508 
L 340.814369 133.193174 
z
M 347.334172 135.850206 
L 350.521816 137.149275 
L 350.208695 137.917608 
L 345.922811 136.170971 
L 346.235932 135.402637 
Q 346.974751 135.076066 348.241004 134.535874 
Q 349.509295 133.994825 349.846683 133.825238 
Q 350.485602 133.511946 350.798402 133.241227 
Q 351.112648 132.971097 351.247096 132.641191 
Q 351.466457 132.102923 351.226787 131.610428 
Q 350.987707 131.116487 350.381432 130.86941 
Q 349.951686 130.694275 349.413454 130.648716 
Q 348.876668 130.603747 348.210226 130.686477 
L 348.586443 129.76332 
Q 349.227955 129.766604 349.752892 129.848926 
Q 350.279277 129.931838 350.67719 130.094 
Q 351.726233 130.521519 352.135817 131.300917 
Q 352.54599 132.078868 352.188643 132.955724 
Q 352.018814 133.372447 351.710405 133.682076 
Q 351.404033 133.990848 350.785262 134.329223 
Q 350.618738 134.414901 349.757131 134.794356 
Q 348.896972 135.174401 347.334172 135.850206 
z
M 355.385856 136.288478 
Q 354.734726 136.023122 354.219298 136.2197 
Q 353.705317 136.416868 353.457061 137.026037 
Q 353.208215 137.636652 353.43797 138.136917 
Q 353.669171 138.637771 354.320301 138.903128 
Q 354.971431 139.168485 355.488896 138.971049 
Q 356.008397 138.772756 356.255474 138.166481 
Q 356.50373 137.557313 356.272529 137.056459 
Q 356.042774 136.556194 355.385856 136.288478 
z
M 354.630862 135.528605 
Q 354.102366 135.144499 353.937838 134.608387 
Q 353.775347 134.071418 354.01122 133.492636 
Q 354.340852 132.683788 355.108387 132.44822 
Q 355.877369 132.213242 356.880109 132.621892 
Q 357.888638 133.0329 358.271433 133.737264 
Q 358.654228 134.441629 358.324596 135.250477 
Q 358.088723 135.82926 357.595743 136.099103 
Q 357.104799 136.368088 356.462708 136.275142 
Q 357.060014 136.697414 357.244739 137.29575 
Q 357.431501 137.893228 357.168503 138.53857 
Q 356.768109 139.521054 355.955015 139.80217 
Q 355.14251 140.08184 354.02546 139.626606 
Q 352.909857 139.171961 352.522835 138.403445 
Q 352.13785 137.634072 352.538244 136.651589 
Q 352.801242 136.006247 353.353874 135.710096 
Q 353.908543 135.413088 354.630862 135.528605 
z
M 354.884527 133.949773 
Q 354.671063 134.473572 354.878369 134.900572 
Q 355.087123 135.328162 355.678928 135.569341 
Q 356.267839 135.809342 356.718897 135.650647 
Q 357.171403 135.492542 357.384867 134.968743 
Q 357.598922 134.443498 357.385827 134.01414 
Q 357.17418 133.58537 356.585269 133.34537 
Q 355.993464 133.10419 355.545299 133.264064 
Q 355.098582 133.424528 354.884527 133.949773 
z
" clip-path="url(#p3c2c0e47a0)" style="fill: #fdc527"/>
   </g>
   <g id="patch_3">
    <path d="M 50.14375 301.735725 
L 50.14375 35.623725 
" style="fill: none; stroke: #cccccc; stroke-width: 0.8; stroke-linejoin: miter; stroke-linecap: square"/>
   </g>
   <g id="patch_4">
    <path d="M 407.26375 301.735725 
L 407.26375 35.623725 
" style="fill: none; stroke: #cccccc; stroke-width: 0.8; stroke-linejoin: miter; stroke-linecap: square"/>
   </g>
   <g id="patch_5">
    <path d="M 50.14375 301.735725 
L 407.26375 301.735725 
" style="fill: none; stroke: #cccccc; stroke-width: 0.8; stroke-linejoin: miter; stroke-linecap: square"/>
   </g>
   <g id="patch_6">
    <path d="M 50.14375 35.623725 
L 407.26375 35.623725 
" style="fill: none; stroke: #cccccc; stroke-width: 0.8; stroke-linejoin: miter; stroke-linecap: square"/>
   </g>
   <g id="text_20">
    <!-- Block Size = 16K, Read-Write Type = Random Balanced 1:1 -->
    <g style="fill: #262626; opacity: 0.75" transform="translate(80.292031 30.882918) scale(0.1 -0.1)">
     <defs>
      <path id="DejaVuSans-6c" d="M 603 4863 
L 1178 4863 
L 1178 0 
L 603 0 
L 603 4863 
z
" transform="scale(0.015625)"/>
      <path id="DejaVuSans-63" d="M 3122 3366 
L 3122 2828 
Q 2878 2963 2633 3030 
Q 2388 3097 2138 3097 
Q 1578 3097 1268 2742 
Q 959 2388 959 1747 
Q 959 1106 1268 751 
Q 1578 397 2138 397 
Q 2388 397 2633 464 
Q 2878 531 3122 666 
L 3122 134 
Q 2881 22 2623 -34 
Q 2366 -91 2075 -91 
Q 1284 -91 818 406 
Q 353 903 353 1747 
Q 353 2603 823 3093 
Q 1294 3584 2113 3584 
Q 2378 3584 2631 3529 
Q 2884 3475 3122 3366 
z
" transform="scale(0.015625)"/>
      <path id="DejaVuSans-6b" d="M 581 4863 
L 1159 4863 
L 1159 1991 
L 2875 3500 
L 3609 3500 
L 1753 1863 
L 3688 0 
L 2938 0 
L 1159 1709 
L 1159 0 
L 581 0 
L 581 4863 
z
" transform="scale(0.015625)"/>
      <path id="DejaVuSans-53" d="M 3425 4513 
L 3425 3897 
Q 3066 4069 2747 4153 
Q 2428 4238 2131 4238 
Q 1616 4238 1336 4038 
Q 1056 3838 1056 3469 
Q 1056 3159 1242 3001 
Q 1428 2844 1947 2747 
L 2328 2669 
Q 3034 2534 3370 2195 
Q 3706 1856 3706 1288 
Q 3706 609 3251 259 
Q 2797 -91 1919 -91 
Q 1588 -91 1214 -16 
Q 841 59 441 206 
L 441 856 
Q 825 641 1194 531 
Q 1563 422 1919 422 
Q 2459 422 2753 634 
Q 3047 847 3047 1241 
Q 3047 1584 2836 1778 
Q 2625 1972 2144 2069 
L 1759 2144 
Q 1053 2284 737 2584 
Q 422 2884 422 3419 
Q 422 4038 858 4394 
Q 1294 4750 2059 4750 
Q 2388 4750 2728 4690 
Q 3069 4631 3425 4513 
z
" transform="scale(0.015625)"/>
      <path id="DejaVuSans-7a" d="M 353 3500 
L 3084 3500 
L 3084 2975 
L 922 459 
L 3084 459 
L 3084 0 
L 275 0 
L 275 525 
L 2438 3041 
L 353 3041 
L 353 3500 
z
" transform="scale(0.015625)"/>
      <path id="DejaVuSans-3d" d="M 678 2906 
L 4684 2906 
L 4684 2381 
L 678 2381 
L 678 2906 
z
M 678 1631 
L 4684 1631 
L 4684 1100 
L 678 1100 
L 678 1631 
z
" transform="scale(0.015625)"/>
      <path id="DejaVuSans-4b" d="M 628 4666 
L 1259 4666 
L 1259 2694 
L 3353 4666 
L 4166 4666 
L 1850 2491 
L 4331 0 
L 3500 0 
L 1259 2247 
L 1259 0 
L 628 0 
L 628 4666 
z
" transform="scale(0.015625)"/>
      <path id="DejaVuSans-2c" d="M 750 794 
L 1409 794 
L 1409 256 
L 897 -744 
L 494 -744 
L 750 256 
L 750 794 
z
" transform="scale(0.015625)"/>
      <path id="DejaVuSans-52" d="M 2841 2188 
Q 3044 2119 3236 1894 
Q 3428 1669 3622 1275 
L 4263 0 
L 3584 0 
L 2988 1197 
Q 2756 1666 2539 1819 
Q 2322 1972 1947 1972 
L 1259 1972 
L 1259 0 
L 628 0 
L 628 4666 
L 2053 4666 
Q 2853 4666 3247 4331 
Q 3641 3997 3641 3322 
Q 3641 2881 3436 2590 
Q 3231 2300 2841 2188 
z
M 1259 4147 
L 1259 2491 
L 2053 2491 
Q 2509 2491 2742 2702 
Q 2975 2913 2975 3322 
Q 2975 3731 2742 3939 
Q 2509 4147 2053 4147 
L 1259 4147 
z
" transform="scale(0.015625)"/>
      <path id="DejaVuSans-2d" d="M 313 2009 
L 1997 2009 
L 1997 1497 
L 313 1497 
L 313 2009 
z
" transform="scale(0.015625)"/>
      <path id="DejaVuSans-57" d="M 213 4666 
L 850 4666 
L 1831 722 
L 2809 4666 
L 3519 4666 
L 4500 722 
L 5478 4666 
L 6119 4666 
L 4947 0 
L 4153 0 
L 3169 4050 
L 2175 0 
L 1381 0 
L 213 4666 
z
" transform="scale(0.015625)"/>
      <path id="DejaVuSans-54" d="M -19 4666 
L 3928 4666 
L 3928 4134 
L 2272 4134 
L 2272 0 
L 1638 0 
L 1638 4134 
L -19 4134 
L -19 4666 
z
" transform="scale(0.015625)"/>
      <path id="DejaVuSans-79" d="M 2059 -325 
Q 1816 -950 1584 -1140 
Q 1353 -1331 966 -1331 
L 506 -1331 
L 506 -850 
L 844 -850 
Q 1081 -850 1212 -737 
Q 1344 -625 1503 -206 
L 1606 56 
L 191 3500 
L 800 3500 
L 1894 763 
L 2988 3500 
L 3597 3500 
L 2059 -325 
z
" transform="scale(0.015625)"/>
      <path id="DejaVuSans-70" d="M 1159 525 
L 1159 -1331 
L 581 -1331 
L 581 3500 
L 1159 3500 
L 1159 2969 
Q 1341 3281 1617 3432 
Q 1894 3584 2278 3584 
Q 2916 3584 3314 3078 
Q 3713 2572 3713 1747 
Q 3713 922 3314 415 
Q 2916 -91 2278 -91 
Q 1894 -91 1617 61 
Q 1341 213 1159 525 
z
M 3116 1747 
Q 3116 2381 2855 2742 
Q 2594 3103 2138 3103 
Q 1681 3103 1420 2742 
Q 1159 2381 1159 1747 
Q 1159 1113 1420 752 
Q 1681 391 2138 391 
Q 2594 391 2855 752 
Q 3116 1113 3116 1747 
z
" transform="scale(0.015625)"/>
      <path id="DejaVuSans-3a" d="M 750 794 
L 1409 794 
L 1409 0 
L 750 0 
L 750 794 
z
M 750 3309 
L 1409 3309 
L 1409 2516 
L 750 2516 
L 750 3309 
z
" transform="scale(0.015625)"/>
     </defs>
     <use xlink:href="#DejaVuSans-42"/>
     <use xlink:href="#DejaVuSans-6c" transform="translate(68.603516 0)"/>
     <use xlink:href="#DejaVuSans-6f" transform="translate(96.386719 0)"/>
     <use xlink:href="#DejaVuSans-63" transform="translate(157.568359 0)"/>
     <use xlink:href="#DejaVuSans-6b" transform="translate(212.548828 0)"/>
     <use xlink:href="#DejaVuSans-20" transform="translate(270.458984 0)"/>
     <use xlink:href="#DejaVuSans-53" transform="translate(302.246094 0)"/>
     <use xlink:href="#DejaVuSans-69" transform="translate(365.722656 0)"/>
     <use xlink:href="#DejaVuSans-7a" transform="translate(393.505859 0)"/>
     <use xlink:href="#DejaVuSans-65" transform="translate(445.996094 0)"/>
     <use xlink:href="#DejaVuSans-20" transform="translate(507.519531 0)"/>
     <use xlink:href="#DejaVuSans-3d" transform="translate(539.306641 0)"/>
     <use xlink:href="#DejaVuSans-20" transform="translate(623.095703 0)"/>
     <use xlink:href="#DejaVuSans-31" transform="translate(654.882812 0)"/>
     <use xlink:href="#DejaVuSans-36" transform="translate(718.505859 0)"/>
     <use xlink:href="#DejaVuSans-4b" transform="translate(782.128906 0)"/>
     <use xlink:href="#DejaVuSans-2c" transform="translate(847.705078 0)"/>
     <use xlink:href="#DejaVuSans-20" transform="translate(879.492188 0)"/>
     <use xlink:href="#DejaVuSans-52" transform="translate(911.279297 0)"/>
     <use xlink:href="#DejaVuSans-65" transform="translate(976.261719 0)"/>
     <use xlink:href="#DejaVuSans-61" transform="translate(1037.785156 0)"/>
     <use xlink:href="#DejaVuSans-64" transform="translate(1099.064453 0)"/>
     <use xlink:href="#DejaVuSans-2d" transform="translate(1162.541016 0)"/>
     <use xlink:href="#DejaVuSans-57" transform="translate(1194.625 0)"/>
     <use xlink:href="#DejaVuSans-72" transform="translate(1289.001953 0)"/>
     <use xlink:href="#DejaVuSans-69" transform="translate(1330.115234 0)"/>
     <use xlink:href="#DejaVuSans-74" transform="translate(1357.898438 0)"/>
     <use xlink:href="#DejaVuSans-65" transform="translate(1397.107422 0)"/>
     <use xlink:href="#DejaVuSans-20" transform="translate(1458.630859 0)"/>
     <use xlink:href="#DejaVuSans-54" transform="translate(1490.417969 0)"/>
     <use xlink:href="#DejaVuSans-79" transform="translate(1535.876953 0)"/>
     <use xlink:href="#DejaVuSans-70" transform="translate(1595.056641 0)"/>
     <use xlink:href="#DejaVuSans-65" transform="translate(1658.533203 0)"/>
     <use xlink:href="#DejaVuSans-20" transform="translate(1720.056641 0)"/>
     <use xlink:href="#DejaVuSans-3d" transform="translate(1751.84375 0)"/>
     <use xlink:href="#DejaVuSans-20" transform="translate(1835.632812 0)"/>
     <use xlink:href="#DejaVuSans-52" transform="translate(1867.419922 0)"/>
     <use xlink:href="#DejaVuSans-61" transform="translate(1934.652344 0)"/>
     <use xlink:href="#DejaVuSans-6e" transform="translate(1995.931641 0)"/>
     <use xlink:href="#DejaVuSans-64" transform="translate(2059.310547 0)"/>
     <use xlink:href="#DejaVuSans-6f" transform="translate(2122.787109 0)"/>
     <use xlink:href="#DejaVuSans-6d" transform="translate(2183.96875 0)"/>
     <use xlink:href="#DejaVuSans-20" transform="translate(2281.380859 0)"/>
     <use xlink:href="#DejaVuSans-42" transform="translate(2313.167969 0)"/>
     <use xlink:href="#DejaVuSans-61" transform="translate(2381.771484 0)"/>
     <use xlink:href="#DejaVuSans-6c" transform="translate(2443.050781 0)"/>
     <use xlink:href="#DejaVuSans-61" transform="translate(2470.833984 0)"/>
     <use xlink:href="#DejaVuSans-6e" transform="translate(2532.113281 0)"/>
     <use xlink:href="#DejaVuSans-63" transform="translate(2595.492188 0)"/>
     <use xlink:href="#DejaVuSans-65" transform="translate(2650.472656 0)"/>
     <use xlink:href="#DejaVuSans-64" transform="translate(2711.996094 0)"/>
     <use xlink:href="#DejaVuSans-20" transform="translate(2775.472656 0)"/>
     <use xlink:href="#DejaVuSans-31" transform="translate(2807.259766 0)"/>
     <use xlink:href="#DejaVuSans-3a" transform="translate(2870.882812 0)"/>
     <use xlink:href="#DejaVuSans-31" transform="translate(2904.574219 0)"/>
    </g>
   </g>
   <g id="text_21">
    <!-- Mean Bandwidth vs Number of Jobs -->
    <g style="fill: #262626" transform="translate(108.374688 16.318125) scale(0.12 -0.12)">
     <defs>
      <path id="DejaVuSans-Bold-4d" d="M 588 4666 
L 2119 4666 
L 3181 2169 
L 4250 4666 
L 5778 4666 
L 5778 0 
L 4641 0 
L 4641 3413 
L 3566 897 
L 2803 897 
L 1728 3413 
L 1728 0 
L 588 0 
L 588 4666 
z
" transform="scale(0.015625)"/>
      <path id="DejaVuSans-Bold-65" d="M 4031 1759 
L 4031 1441 
L 1416 1441 
Q 1456 1047 1700 850 
Q 1944 653 2381 653 
Q 2734 653 3104 758 
Q 3475 863 3866 1075 
L 3866 213 
Q 3469 63 3072 -14 
Q 2675 -91 2278 -91 
Q 1328 -91 801 392 
Q 275 875 275 1747 
Q 275 2603 792 3093 
Q 1309 3584 2216 3584 
Q 3041 3584 3536 3087 
Q 4031 2591 4031 1759 
z
M 2881 2131 
Q 2881 2450 2695 2645 
Q 2509 2841 2209 2841 
Q 1884 2841 1681 2658 
Q 1478 2475 1428 2131 
L 2881 2131 
z
" transform="scale(0.015625)"/>
      <path id="DejaVuSans-Bold-61" d="M 2106 1575 
Q 1756 1575 1579 1456 
Q 1403 1338 1403 1106 
Q 1403 894 1545 773 
Q 1688 653 1941 653 
Q 2256 653 2472 879 
Q 2688 1106 2688 1447 
L 2688 1575 
L 2106 1575 
z
M 3816 1997 
L 3816 0 
L 2688 0 
L 2688 519 
Q 2463 200 2181 54 
Q 1900 -91 1497 -91 
Q 953 -91 614 226 
Q 275 544 275 1050 
Q 275 1666 698 1953 
Q 1122 2241 2028 2241 
L 2688 2241 
L 2688 2328 
Q 2688 2594 2478 2717 
Q 2269 2841 1825 2841 
Q 1466 2841 1156 2769 
Q 847 2697 581 2553 
L 581 3406 
Q 941 3494 1303 3539 
Q 1666 3584 2028 3584 
Q 2975 3584 3395 3211 
Q 3816 2838 3816 1997 
z
" transform="scale(0.015625)"/>
      <path id="DejaVuSans-Bold-6e" d="M 4056 2131 
L 4056 0 
L 2931 0 
L 2931 347 
L 2931 1631 
Q 2931 2084 2911 2256 
Q 2891 2428 2841 2509 
Q 2775 2619 2662 2680 
Q 2550 2741 2406 2741 
Q 2056 2741 1856 2470 
Q 1656 2200 1656 1722 
L 1656 0 
L 538 0 
L 538 3500 
L 1656 3500 
L 1656 2988 
Q 1909 3294 2193 3439 
Q 2478 3584 2822 3584 
Q 3428 3584 3742 3212 
Q 4056 2841 4056 2131 
z
" transform="scale(0.015625)"/>
      <path id="DejaVuSans-Bold-20" transform="scale(0.015625)"/>
      <path id="DejaVuSans-Bold-42" d="M 2456 2859 
Q 2741 2859 2887 2984 
Q 3034 3109 3034 3353 
Q 3034 3594 2887 3720 
Q 2741 3847 2456 3847 
L 1791 3847 
L 1791 2859 
L 2456 2859 
z
M 2497 819 
Q 2859 819 3042 972 
Q 3225 1125 3225 1434 
Q 3225 1738 3044 1889 
Q 2863 2041 2497 2041 
L 1791 2041 
L 1791 819 
L 2497 819 
z
M 3616 2497 
Q 4003 2384 4215 2081 
Q 4428 1778 4428 1338 
Q 4428 663 3972 331 
Q 3516 0 2584 0 
L 588 0 
L 588 4666 
L 2394 4666 
Q 3366 4666 3802 4372 
Q 4238 4078 4238 3431 
Q 4238 3091 4078 2852 
Q 3919 2613 3616 2497 
z
" transform="scale(0.015625)"/>
      <path id="DejaVuSans-Bold-64" d="M 2919 2988 
L 2919 4863 
L 4044 4863 
L 4044 0 
L 2919 0 
L 2919 506 
Q 2688 197 2409 53 
Q 2131 -91 1766 -91 
Q 1119 -91 703 423 
Q 288 938 288 1747 
Q 288 2556 703 3070 
Q 1119 3584 1766 3584 
Q 2128 3584 2408 3439 
Q 2688 3294 2919 2988 
z
M 2181 722 
Q 2541 722 2730 984 
Q 2919 1247 2919 1747 
Q 2919 2247 2730 2509 
Q 2541 2772 2181 2772 
Q 1825 2772 1636 2509 
Q 1447 2247 1447 1747 
Q 1447 1247 1636 984 
Q 1825 722 2181 722 
z
" transform="scale(0.015625)"/>
      <path id="DejaVuSans-Bold-77" d="M 225 3500 
L 1313 3500 
L 1900 1088 
L 2491 3500 
L 3425 3500 
L 4013 1113 
L 4603 3500 
L 5691 3500 
L 4769 0 
L 3547 0 
L 2956 2406 
L 2369 0 
L 1147 0 
L 225 3500 
z
" transform="scale(0.015625)"/>
      <path id="DejaVuSans-Bold-69" d="M 538 3500 
L 1656 3500 
L 1656 0 
L 538 0 
L 538 3500 
z
M 538 4863 
L 1656 4863 
L 1656 3950 
L 538 3950 
L 538 4863 
z
" transform="scale(0.015625)"/>
      <path id="DejaVuSans-Bold-74" d="M 1759 4494 
L 1759 3500 
L 2913 3500 
L 2913 2700 
L 1759 2700 
L 1759 1216 
Q 1759 972 1856 886 
Q 1953 800 2241 800 
L 2816 800 
L 2816 0 
L 1856 0 
Q 1194 0 917 276 
Q 641 553 641 1216 
L 641 2700 
L 84 2700 
L 84 3500 
L 641 3500 
L 641 4494 
L 1759 4494 
z
" transform="scale(0.015625)"/>
      <path id="DejaVuSans-Bold-68" d="M 4056 2131 
L 4056 0 
L 2931 0 
L 2931 347 
L 2931 1625 
Q 2931 2084 2911 2256 
Q 2891 2428 2841 2509 
Q 2775 2619 2662 2680 
Q 2550 2741 2406 2741 
Q 2056 2741 1856 2470 
Q 1656 2200 1656 1722 
L 1656 0 
L 538 0 
L 538 4863 
L 1656 4863 
L 1656 2988 
Q 1909 3294 2193 3439 
Q 2478 3584 2822 3584 
Q 3428 3584 3742 3212 
Q 4056 2841 4056 2131 
z
" transform="scale(0.015625)"/>
      <path id="DejaVuSans-Bold-76" d="M 97 3500 
L 1216 3500 
L 2088 1081 
L 2956 3500 
L 4078 3500 
L 2700 0 
L 1472 0 
L 97 3500 
z
" transform="scale(0.015625)"/>
      <path id="DejaVuSans-Bold-73" d="M 3272 3391 
L 3272 2541 
Q 2913 2691 2578 2766 
Q 2244 2841 1947 2841 
Q 1628 2841 1473 2761 
Q 1319 2681 1319 2516 
Q 1319 2381 1436 2309 
Q 1553 2238 1856 2203 
L 2053 2175 
Q 2913 2066 3209 1816 
Q 3506 1566 3506 1031 
Q 3506 472 3093 190 
Q 2681 -91 1863 -91 
Q 1516 -91 1145 -36 
Q 775 19 384 128 
L 384 978 
Q 719 816 1070 734 
Q 1422 653 1784 653 
Q 2113 653 2278 743 
Q 2444 834 2444 1013 
Q 2444 1163 2330 1236 
Q 2216 1309 1875 1350 
L 1678 1375 
Q 931 1469 631 1722 
Q 331 1975 331 2491 
Q 331 3047 712 3315 
Q 1094 3584 1881 3584 
Q 2191 3584 2531 3537 
Q 2872 3491 3272 3391 
z
" transform="scale(0.015625)"/>
      <path id="DejaVuSans-Bold-4e" d="M 588 4666 
L 1931 4666 
L 3628 1466 
L 3628 4666 
L 4769 4666 
L 4769 0 
L 3425 0 
L 1728 3200 
L 1728 0 
L 588 0 
L 588 4666 
z
" transform="scale(0.015625)"/>
      <path id="DejaVuSans-Bold-75" d="M 500 1363 
L 500 3500 
L 1625 3500 
L 1625 3150 
Q 1625 2866 1622 2436 
Q 1619 2006 1619 1863 
Q 1619 1441 1641 1255 
Q 1663 1069 1716 984 
Q 1784 875 1895 815 
Q 2006 756 2150 756 
Q 2500 756 2700 1025 
Q 2900 1294 2900 1772 
L 2900 3500 
L 4019 3500 
L 4019 0 
L 2900 0 
L 2900 506 
Q 2647 200 2364 54 
Q 2081 -91 1741 -91 
Q 1134 -91 817 281 
Q 500 653 500 1363 
z
" transform="scale(0.015625)"/>
      <path id="DejaVuSans-Bold-6d" d="M 3781 2919 
Q 3994 3244 4286 3414 
Q 4578 3584 4928 3584 
Q 5531 3584 5847 3212 
Q 6163 2841 6163 2131 
L 6163 0 
L 5038 0 
L 5038 1825 
Q 5041 1866 5042 1909 
Q 5044 1953 5044 2034 
Q 5044 2406 4934 2573 
Q 4825 2741 4581 2741 
Q 4263 2741 4089 2478 
Q 3916 2216 3909 1719 
L 3909 0 
L 2784 0 
L 2784 1825 
Q 2784 2406 2684 2573 
Q 2584 2741 2328 2741 
Q 2006 2741 1831 2477 
Q 1656 2213 1656 1722 
L 1656 0 
L 531 0 
L 531 3500 
L 1656 3500 
L 1656 2988 
Q 1863 3284 2130 3434 
Q 2397 3584 2719 3584 
Q 3081 3584 3359 3409 
Q 3638 3234 3781 2919 
z
" transform="scale(0.015625)"/>
      <path id="DejaVuSans-Bold-62" d="M 2400 722 
Q 2759 722 2948 984 
Q 3138 1247 3138 1747 
Q 3138 2247 2948 2509 
Q 2759 2772 2400 2772 
Q 2041 2772 1848 2508 
Q 1656 2244 1656 1747 
Q 1656 1250 1848 986 
Q 2041 722 2400 722 
z
M 1656 2988 
Q 1888 3294 2169 3439 
Q 2450 3584 2816 3584 
Q 3463 3584 3878 3070 
Q 4294 2556 4294 1747 
Q 4294 938 3878 423 
Q 3463 -91 2816 -91 
Q 2450 -91 2169 54 
Q 1888 200 1656 506 
L 1656 0 
L 538 0 
L 538 4863 
L 1656 4863 
L 1656 2988 
z
" transform="scale(0.015625)"/>
      <path id="DejaVuSans-Bold-72" d="M 3138 2547 
Q 2991 2616 2845 2648 
Q 2700 2681 2553 2681 
Q 2122 2681 1889 2404 
Q 1656 2128 1656 1613 
L 1656 0 
L 538 0 
L 538 3500 
L 1656 3500 
L 1656 2925 
Q 1872 3269 2151 3426 
Q 2431 3584 2822 3584 
Q 2878 3584 2943 3579 
Q 3009 3575 3134 3559 
L 3138 2547 
z
" transform="scale(0.015625)"/>
      <path id="DejaVuSans-Bold-6f" d="M 2203 2784 
Q 1831 2784 1636 2517 
Q 1441 2250 1441 1747 
Q 1441 1244 1636 976 
Q 1831 709 2203 709 
Q 2569 709 2762 976 
Q 2956 1244 2956 1747 
Q 2956 2250 2762 2517 
Q 2569 2784 2203 2784 
z
M 2203 3584 
Q 3106 3584 3614 3096 
Q 4122 2609 4122 1747 
Q 4122 884 3614 396 
Q 3106 -91 2203 -91 
Q 1297 -91 786 396 
Q 275 884 275 1747 
Q 275 2609 786 3096 
Q 1297 3584 2203 3584 
z
" transform="scale(0.015625)"/>
      <path id="DejaVuSans-Bold-66" d="M 2841 4863 
L 2841 4128 
L 2222 4128 
Q 1984 4128 1890 4042 
Q 1797 3956 1797 3744 
L 1797 3500 
L 2753 3500 
L 2753 2700 
L 1797 2700 
L 1797 0 
L 678 0 
L 678 2700 
L 122 2700 
L 122 3500 
L 678 3500 
L 678 3744 
Q 678 4316 997 4589 
Q 1316 4863 1984 4863 
L 2841 4863 
z
" transform="scale(0.015625)"/>
      <path id="DejaVuSans-Bold-4a" d="M 588 4666 
L 1791 4666 
L 1791 453 
Q 1791 -419 1317 -850 
Q 844 -1281 -116 -1281 
L -359 -1281 
L -359 -372 
L -172 -372 
Q 203 -372 395 -162 
Q 588 47 588 453 
L 588 4666 
z
" transform="scale(0.015625)"/>
     </defs>
     <use xlink:href="#DejaVuSans-Bold-4d"/>
     <use xlink:href="#DejaVuSans-Bold-65" transform="translate(99.511719 0)"/>
     <use xlink:href="#DejaVuSans-Bold-61" transform="translate(167.333984 0)"/>
     <use xlink:href="#DejaVuSans-Bold-6e" transform="translate(234.814453 0)"/>
     <use xlink:href="#DejaVuSans-Bold-20" transform="translate(306.005859 0)"/>
     <use xlink:href="#DejaVuSans-Bold-42" transform="translate(340.820312 0)"/>
     <use xlink:href="#DejaVuSans-Bold-61" transform="translate(417.041016 0)"/>
     <use xlink:href="#DejaVuSans-Bold-6e" transform="translate(484.521484 0)"/>
     <use xlink:href="#DejaVuSans-Bold-64" transform="translate(555.712891 0)"/>
     <use xlink:href="#DejaVuSans-Bold-77" transform="translate(627.294922 0)"/>
     <use xlink:href="#DejaVuSans-Bold-69" transform="translate(719.677734 0)"/>
     <use xlink:href="#DejaVuSans-Bold-64" transform="translate(753.955078 0)"/>
     <use xlink:href="#DejaVuSans-Bold-74" transform="translate(825.537109 0)"/>
     <use xlink:href="#DejaVuSans-Bold-68" transform="translate(873.339844 0)"/>
     <use xlink:href="#DejaVuSans-Bold-20" transform="translate(944.53125 0)"/>
     <use xlink:href="#DejaVuSans-Bold-76" transform="translate(979.345703 0)"/>
     <use xlink:href="#DejaVuSans-Bold-73" transform="translate(1044.53125 0)"/>
     <use xlink:href="#DejaVuSans-Bold-20" transform="translate(1104.052734 0)"/>
     <use xlink:href="#DejaVuSans-Bold-4e" transform="translate(1138.867188 0)"/>
     <use xlink:href="#DejaVuSans-Bold-75" transform="translate(1222.558594 0)"/>
     <use xlink:href="#DejaVuSans-Bold-6d" transform="translate(1293.75 0)"/>
     <use xlink:href="#DejaVuSans-Bold-62" transform="translate(1397.949219 0)"/>
     <use xlink:href="#DejaVuSans-Bold-65" transform="translate(1469.53125 0)"/>
     <use xlink:href="#DejaVuSans-Bold-72" transform="translate(1537.353516 0)"/>
     <use xlink:href="#DejaVuSans-Bold-20" transform="translate(1586.669922 0)"/>
     <use xlink:href="#DejaVuSans-Bold-6f" transform="translate(1621.484375 0)"/>
     <use xlink:href="#DejaVuSans-Bold-66" transform="translate(1690.185547 0)"/>
     <use xlink:href="#DejaVuSans-Bold-20" transform="translate(1733.691406 0)"/>
     <use xlink:href="#DejaVuSans-Bold-4a" transform="translate(1768.505859 0)"/>
     <use xlink:href="#DejaVuSans-Bold-6f" transform="translate(1805.712891 0)"/>
     <use xlink:href="#DejaVuSans-Bold-62" transform="translate(1874.414062 0)"/>
     <use xlink:href="#DejaVuSans-Bold-73" transform="translate(1945.996094 0)"/>
    </g>
   </g>
   <g id="legend_1">
    <g id="text_22">
     <!-- IO Depth -->
     <g style="fill: #262626" transform="translate(441.770312 120.065663) scale(0.1 -0.1)">
      <defs>
       <path id="DejaVuSans-49" d="M 628 4666 
L 1259 4666 
L 1259 0 
L 628 0 
L 628 4666 
z
" transform="scale(0.015625)"/>
       <path id="DejaVuSans-4f" d="M 2522 4238 
Q 1834 4238 1429 3725 
Q 1025 3213 1025 2328 
Q 1025 1447 1429 934 
Q 1834 422 2522 422 
Q 3209 422 3611 934 
Q 4013 1447 4013 2328 
Q 4013 3213 3611 3725 
Q 3209 4238 2522 4238 
z
M 2522 4750 
Q 3503 4750 4090 4092 
Q 4678 3434 4678 2328 
Q 4678 1225 4090 567 
Q 3503 -91 2522 -91 
Q 1538 -91 948 565 
Q 359 1222 359 2328 
Q 359 3434 948 4092 
Q 1538 4750 2522 4750 
z
" transform="scale(0.015625)"/>
       <path id="DejaVuSans-44" d="M 1259 4147 
L 1259 519 
L 2022 519 
Q 2988 519 3436 956 
Q 3884 1394 3884 2338 
Q 3884 3275 3436 3711 
Q 2988 4147 2022 4147 
L 1259 4147 
z
M 628 4666 
L 1925 4666 
Q 3281 4666 3915 4102 
Q 4550 3538 4550 2338 
Q 4550 1131 3912 565 
Q 3275 0 1925 0 
L 628 0 
L 628 4666 
z
" transform="scale(0.015625)"/>
      </defs>
      <use xlink:href="#DejaVuSans-49"/>
      <use xlink:href="#DejaVuSans-4f" transform="translate(29.492188 0)"/>
      <use xlink:href="#DejaVuSans-20" transform="translate(108.203125 0)"/>
      <use xlink:href="#DejaVuSans-44" transform="translate(139.990234 0)"/>
      <use xlink:href="#DejaVuSans-65" transform="translate(216.992188 0)"/>
      <use xlink:href="#DejaVuSans-70" transform="translate(278.515625 0)"/>
      <use xlink:href="#DejaVuSans-74" transform="translate(341.992188 0)"/>
      <use xlink:href="#DejaVuSans-68" transform="translate(381.201172 0)"/>
     </g>
    </g>
    <g id="line2d_25">
     <path d="M 440.45625 131.243787 
L 450.45625 131.243787 
L 460.45625 131.243787 
" style="fill: none; stroke: #4c02a1; stroke-width: 1.5; stroke-linecap: round"/>
    </g>
    <g id="text_23">
     <!-- 1 -->
     <g style="fill: #262626" transform="translate(468.45625 134.743787) scale(0.1 -0.1)">
      <use xlink:href="#DejaVuSans-31"/>
     </g>
    </g>
    <g id="line2d_26">
     <path d="M 440.45625 145.921913 
L 450.45625 145.921913 
L 460.45625 145.921913 
" style="fill: none; stroke: #7e03a8; stroke-width: 1.5; stroke-linecap: round"/>
    </g>
    <g id="text_24">
     <!-- 4 -->
     <g style="fill: #262626" transform="translate(468.45625 149.421913) scale(0.1 -0.1)">
      <use xlink:href="#DejaVuSans-34"/>
     </g>
    </g>
    <g id="line2d_27">
     <path d="M 440.45625 160.600037 
L 450.45625 160.600037 
L 460.45625 160.600037 
" style="fill: none; stroke: #aa2395; stroke-width: 1.5; stroke-linecap: round"/>
    </g>
    <g id="text_25">
     <!-- 8 -->
     <g style="fill: #262626" transform="translate(468.45625 164.100037) scale(0.1 -0.1)">
      <use xlink:href="#DejaVuSans-38"/>
     </g>
    </g>
    <g id="line2d_28">
     <path d="M 440.45625 175.278163 
L 450.45625 175.278163 
L 460.45625 175.278163 
" style="fill: none; stroke: #cc4778; stroke-width: 1.5; stroke-linecap: round"/>
    </g>
    <g id="text_26">
     <!-- 16 -->
     <g style="fill: #262626" transform="translate(468.45625 178.778163) scale(0.1 -0.1)">
      <use xlink:href="#DejaVuSans-31"/>
      <use xlink:href="#DejaVuSans-36" transform="translate(63.623047 0)"/>
     </g>
    </g>
    <g id="line2d_29">
     <path d="M 440.45625 189.956288 
L 450.45625 189.956288 
L 460.45625 189.956288 
" style="fill: none; stroke: #e66c5c; stroke-width: 1.5; stroke-linecap: round"/>
    </g>
    <g id="text_27">
     <!-- 32 -->
     <g style="fill: #262626" transform="translate(468.45625 193.456288) scale(0.1 -0.1)">
      <use xlink:href="#DejaVuSans-33"/>
      <use xlink:href="#DejaVuSans-32" transform="translate(63.623047 0)"/>
     </g>
    </g>
    <g id="line2d_30">
     <path d="M 440.45625 204.634412 
L 450.45625 204.634412 
L 460.45625 204.634412 
" style="fill: none; stroke: #f89540; stroke-width: 1.5; stroke-linecap: round"/>
    </g>
    <g id="text_28">
     <!-- 64 -->
     <g style="fill: #262626" transform="translate(468.45625 208.134412) scale(0.1 -0.1)">
      <use xlink:href="#DejaVuSans-36"/>
      <use xlink:href="#DejaVuSans-34" transform="translate(63.623047 0)"/>
     </g>
    </g>
    <g id="line2d_31">
     <path d="M 440.45625 219.312537 
L 450.45625 219.312537 
L 460.45625 219.312537 
" style="fill: none; stroke: #fdc527; stroke-width: 1.5; stroke-linecap: round"/>
    </g>
    <g id="text_29">
     <!-- 128 -->
     <g style="fill: #262626" transform="translate(468.45625 222.812537) scale(0.1 -0.1)">
      <use xlink:href="#DejaVuSans-31"/>
      <use xlink:href="#DejaVuSans-32" transform="translate(63.623047 0)"/>
      <use xlink:href="#DejaVuSans-38" transform="translate(127.246094 0)"/>
     </g>
    </g>
   </g>
  </g>
 </g>
 <defs>
  <clipPath id="p3c2c0e47a0">
   <rect x="50.14375" y="35.623725" width="357.12" height="266.112"/>
  </clipPath>
 </defs>
</svg>
