<?xml version="1.0" encoding="utf-8" standalone="no"?>
<!DOCTYPE svg PUBLIC "-//W3C//DTD SVG 1.1//EN"
  "http://www.w3.org/Graphics/SVG/1.1/DTD/svg11.dtd">
<svg xmlns:xlink="http://www.w3.org/1999/xlink" width="489.203125pt" height="339.291975pt" viewBox="0 0 489.203125 339.291975" xmlns="http://www.w3.org/2000/svg" version="1.1">
 <metadata>
  <rdf:RDF xmlns:dc="http://purl.org/dc/elements/1.1/" xmlns:cc="http://creativecommons.org/ns#" xmlns:rdf="http://www.w3.org/1999/02/22-rdf-syntax-ns#">
   <cc:Work>
    <dc:type rdf:resource="http://purl.org/dc/dcmitype/StillImage"/>
    <dc:date>2025-09-11T08:59:58.547477</dc:date>
    <dc:format>image/svg+xml</dc:format>
    <dc:creator>
     <cc:Agent>
      <dc:title>Matplotlib v3.10.6, https://matplotlib.org/</dc:title>
     </cc:Agent>
    </dc:creator>
   </cc:Work>
  </rdf:RDF>
 </metadata>
 <defs>
  <style type="text/css">*{stroke-linejoin: round; stroke-linecap: butt}</style>
 </defs>
 <g id="figure_1">
  <g id="patch_1">
   <path d="M 0 339.291975 
L 489.203125 339.291975 
L 489.203125 0 
L 0 0 
z
" style="fill: #ffffff"/>
  </g>
  <g id="axes_1">
   <g id="patch_2">
    <path d="M 40.603125 301.735725 
L 397.723125 301.735725 
L 397.723125 35.623725 
L 40.603125 35.623725 
z
" style="fill: #ffffff"/>
   </g>
   <g id="matplotlib.axis_1">
    <g id="xtick_1">
     <g id="line2d_1">
      <path d="M 195.973515 301.735725 
L 195.973515 35.623725 
" clip-path="url(#pc1fa218f0a)" style="fill: none; stroke: #cccccc; stroke-width: 0.8; stroke-linecap: round"/>
     </g>
     <g id="text_1">
      <!-- 64 -->
      <g style="fill: #262626" transform="translate(189.611015 316.334162) scale(0.1 -0.1)">
       <defs>
        <path id="DejaVuSans-36" d="M 2113 2584 
Q 1688 2584 1439 2293 
Q 1191 2003 1191 1497 
Q 1191 994 1439 701 
Q 1688 409 2113 409 
Q 2538 409 2786 701 
Q 3034 994 3034 1497 
Q 3034 2003 2786 2293 
Q 2538 2584 2113 2584 
z
M 3366 4563 
L 3366 3988 
Q 3128 4100 2886 4159 
Q 2644 4219 2406 4219 
Q 1781 4219 1451 3797 
Q 1122 3375 1075 2522 
Q 1259 2794 1537 2939 
Q 1816 3084 2150 3084 
Q 2853 3084 3261 2657 
Q 3669 2231 3669 1497 
Q 3669 778 3244 343 
Q 2819 -91 2113 -91 
Q 1303 -91 875 529 
Q 447 1150 447 2328 
Q 447 3434 972 4092 
Q 1497 4750 2381 4750 
Q 2619 4750 2861 4703 
Q 3103 4656 3366 4563 
z
" transform="scale(0.015625)"/>
        <path id="DejaVuSans-34" d="M 2419 4116 
L 825 1625 
L 2419 1625 
L 2419 4116 
z
M 2253 4666 
L 3047 4666 
L 3047 1625 
L 3713 1625 
L 3713 1100 
L 3047 1100 
L 3047 0 
L 2419 0 
L 2419 1100 
L 313 1100 
L 313 1709 
L 2253 4666 
z
" transform="scale(0.015625)"/>
       </defs>
       <use xlink:href="#DejaVuSans-36"/>
       <use xlink:href="#DejaVuSans-34" transform="translate(63.623047 0)"/>
      </g>
     </g>
    </g>
    <g id="xtick_2">
     <g id="line2d_2">
      <path d="M 103.215073 301.735725 
L 103.215073 35.623725 
" clip-path="url(#pc1fa218f0a)" style="fill: none; stroke: #cccccc; stroke-width: 0.8; stroke-linecap: round"/>
     </g>
     <g id="text_2">
      <!-- 32 -->
      <g style="fill: #262626" transform="translate(96.852573 316.334162) scale(0.1 -0.1)">
       <defs>
        <path id="DejaVuSans-33" d="M 2597 2516 
Q 3050 2419 3304 2112 
Q 3559 1806 3559 1356 
Q 3559 666 3084 287 
Q 2609 -91 1734 -91 
Q 1441 -91 1130 -33 
Q 819 25 488 141 
L 488 750 
Q 750 597 1062 519 
Q 1375 441 1716 441 
Q 2309 441 2620 675 
Q 2931 909 2931 1356 
Q 2931 1769 2642 2001 
Q 2353 2234 1838 2234 
L 1294 2234 
L 1294 2753 
L 1863 2753 
Q 2328 2753 2575 2939 
Q 2822 3125 2822 3475 
Q 2822 3834 2567 4026 
Q 2313 4219 1838 4219 
Q 1578 4219 1281 4162 
Q 984 4106 628 3988 
L 628 4550 
Q 988 4650 1302 4700 
Q 1616 4750 1894 4750 
Q 2613 4750 3031 4423 
Q 3450 4097 3450 3541 
Q 3450 3153 3228 2886 
Q 3006 2619 2597 2516 
z
" transform="scale(0.015625)"/>
        <path id="DejaVuSans-32" d="M 1228 531 
L 3431 531 
L 3431 0 
L 469 0 
L 469 531 
Q 828 903 1448 1529 
Q 2069 2156 2228 2338 
Q 2531 2678 2651 2914 
Q 2772 3150 2772 3378 
Q 2772 3750 2511 3984 
Q 2250 4219 1831 4219 
Q 1534 4219 1204 4116 
Q 875 4013 500 3803 
L 500 4441 
Q 881 4594 1212 4672 
Q 1544 4750 1819 4750 
Q 2544 4750 2975 4387 
Q 3406 4025 3406 3419 
Q 3406 3131 3298 2873 
Q 3191 2616 2906 2266 
Q 2828 2175 2409 1742 
Q 1991 1309 1228 531 
z
" transform="scale(0.015625)"/>
       </defs>
       <use xlink:href="#DejaVuSans-33"/>
       <use xlink:href="#DejaVuSans-32" transform="translate(63.623047 0)"/>
      </g>
     </g>
    </g>
    <g id="xtick_3">
     <g id="line2d_3">
      <path d="M 381.490398 301.735725 
L 381.490398 35.623725 
" clip-path="url(#pc1fa218f0a)" style="fill: none; stroke: #cccccc; stroke-width: 0.8; stroke-linecap: round"/>
     </g>
     <g id="text_3">
      <!-- 128 -->
      <g style="fill: #262626" transform="translate(371.946648 316.334162) scale(0.1 -0.1)">
       <defs>
        <path id="DejaVuSans-31" d="M 794 531 
L 1825 531 
L 1825 4091 
L 703 3866 
L 703 4441 
L 1819 4666 
L 2450 4666 
L 2450 531 
L 3481 531 
L 3481 0 
L 794 0 
L 794 531 
z
" transform="scale(0.015625)"/>
        <path id="DejaVuSans-38" d="M 2034 2216 
Q 1584 2216 1326 1975 
Q 1069 1734 1069 1313 
Q 1069 891 1326 650 
Q 1584 409 2034 409 
Q 2484 409 2743 651 
Q 3003 894 3003 1313 
Q 3003 1734 2745 1975 
Q 2488 2216 2034 2216 
z
M 1403 2484 
Q 997 2584 770 2862 
Q 544 3141 544 3541 
Q 544 4100 942 4425 
Q 1341 4750 2034 4750 
Q 2731 4750 3128 4425 
Q 3525 4100 3525 3541 
Q 3525 3141 3298 2862 
Q 3072 2584 2669 2484 
Q 3125 2378 3379 2068 
Q 3634 1759 3634 1313 
Q 3634 634 3220 271 
Q 2806 -91 2034 -91 
Q 1263 -91 848 271 
Q 434 634 434 1313 
Q 434 1759 690 2068 
Q 947 2378 1403 2484 
z
M 1172 3481 
Q 1172 3119 1398 2916 
Q 1625 2713 2034 2713 
Q 2441 2713 2670 2916 
Q 2900 3119 2900 3481 
Q 2900 3844 2670 4047 
Q 2441 4250 2034 4250 
Q 1625 4250 1398 4047 
Q 1172 3844 1172 3481 
z
" transform="scale(0.015625)"/>
       </defs>
       <use xlink:href="#DejaVuSans-31"/>
       <use xlink:href="#DejaVuSans-32" transform="translate(63.623047 0)"/>
       <use xlink:href="#DejaVuSans-38" transform="translate(127.246094 0)"/>
      </g>
     </g>
    </g>
    <g id="xtick_4">
     <g id="line2d_4">
      <path d="M 56.835852 301.735725 
L 56.835852 35.623725 
" clip-path="url(#pc1fa218f0a)" style="fill: none; stroke: #cccccc; stroke-width: 0.8; stroke-linecap: round"/>
     </g>
     <g id="text_4">
      <!-- 16 -->
      <g style="fill: #262626" transform="translate(50.473352 316.334162) scale(0.1 -0.1)">
       <use xlink:href="#DejaVuSans-31"/>
       <use xlink:href="#DejaVuSans-36" transform="translate(63.623047 0)"/>
      </g>
     </g>
    </g>
    <g id="text_5">
     <!-- Number of Jobs -->
     <g style="fill: #262626" transform="translate(180.76625 330.012287) scale(0.1 -0.1)">
      <defs>
       <path id="DejaVuSans-4e" d="M 628 4666 
L 1478 4666 
L 3547 763 
L 3547 4666 
L 4159 4666 
L 4159 0 
L 3309 0 
L 1241 3903 
L 1241 0 
L 628 0 
L 628 4666 
z
" transform="scale(0.015625)"/>
       <path id="DejaVuSans-75" d="M 544 1381 
L 544 3500 
L 1119 3500 
L 1119 1403 
Q 1119 906 1312 657 
Q 1506 409 1894 409 
Q 2359 409 2629 706 
Q 2900 1003 2900 1516 
L 2900 3500 
L 3475 3500 
L 3475 0 
L 2900 0 
L 2900 538 
Q 2691 219 2414 64 
Q 2138 -91 1772 -91 
Q 1169 -91 856 284 
Q 544 659 544 1381 
z
M 1991 3584 
L 1991 3584 
z
" transform="scale(0.015625)"/>
       <path id="DejaVuSans-6d" d="M 3328 2828 
Q 3544 3216 3844 3400 
Q 4144 3584 4550 3584 
Q 5097 3584 5394 3201 
Q 5691 2819 5691 2113 
L 5691 0 
L 5113 0 
L 5113 2094 
Q 5113 2597 4934 2840 
Q 4756 3084 4391 3084 
Q 3944 3084 3684 2787 
Q 3425 2491 3425 1978 
L 3425 0 
L 2847 0 
L 2847 2094 
Q 2847 2600 2669 2842 
Q 2491 3084 2119 3084 
Q 1678 3084 1418 2786 
Q 1159 2488 1159 1978 
L 1159 0 
L 581 0 
L 581 3500 
L 1159 3500 
L 1159 2956 
Q 1356 3278 1631 3431 
Q 1906 3584 2284 3584 
Q 2666 3584 2933 3390 
Q 3200 3197 3328 2828 
z
" transform="scale(0.015625)"/>
       <path id="DejaVuSans-62" d="M 3116 1747 
Q 3116 2381 2855 2742 
Q 2594 3103 2138 3103 
Q 1681 3103 1420 2742 
Q 1159 2381 1159 1747 
Q 1159 1113 1420 752 
Q 1681 391 2138 391 
Q 2594 391 2855 752 
Q 3116 1113 3116 1747 
z
M 1159 2969 
Q 1341 3281 1617 3432 
Q 1894 3584 2278 3584 
Q 2916 3584 3314 3078 
Q 3713 2572 3713 1747 
Q 3713 922 3314 415 
Q 2916 -91 2278 -91 
Q 1894 -91 1617 61 
Q 1341 213 1159 525 
L 1159 0 
L 581 0 
L 581 4863 
L 1159 4863 
L 1159 2969 
z
" transform="scale(0.015625)"/>
       <path id="DejaVuSans-65" d="M 3597 1894 
L 3597 1613 
L 953 1613 
Q 991 1019 1311 708 
Q 1631 397 2203 397 
Q 2534 397 2845 478 
Q 3156 559 3463 722 
L 3463 178 
Q 3153 47 2828 -22 
Q 2503 -91 2169 -91 
Q 1331 -91 842 396 
Q 353 884 353 1716 
Q 353 2575 817 3079 
Q 1281 3584 2069 3584 
Q 2775 3584 3186 3129 
Q 3597 2675 3597 1894 
z
M 3022 2063 
Q 3016 2534 2758 2815 
Q 2500 3097 2075 3097 
Q 1594 3097 1305 2825 
Q 1016 2553 972 2059 
L 3022 2063 
z
" transform="scale(0.015625)"/>
       <path id="DejaVuSans-72" d="M 2631 2963 
Q 2534 3019 2420 3045 
Q 2306 3072 2169 3072 
Q 1681 3072 1420 2755 
Q 1159 2438 1159 1844 
L 1159 0 
L 581 0 
L 581 3500 
L 1159 3500 
L 1159 2956 
Q 1341 3275 1631 3429 
Q 1922 3584 2338 3584 
Q 2397 3584 2469 3576 
Q 2541 3569 2628 3553 
L 2631 2963 
z
" transform="scale(0.015625)"/>
       <path id="DejaVuSans-20" transform="scale(0.015625)"/>
       <path id="DejaVuSans-6f" d="M 1959 3097 
Q 1497 3097 1228 2736 
Q 959 2375 959 1747 
Q 959 1119 1226 758 
Q 1494 397 1959 397 
Q 2419 397 2687 759 
Q 2956 1122 2956 1747 
Q 2956 2369 2687 2733 
Q 2419 3097 1959 3097 
z
M 1959 3584 
Q 2709 3584 3137 3096 
Q 3566 2609 3566 1747 
Q 3566 888 3137 398 
Q 2709 -91 1959 -91 
Q 1206 -91 779 398 
Q 353 888 353 1747 
Q 353 2609 779 3096 
Q 1206 3584 1959 3584 
z
" transform="scale(0.015625)"/>
       <path id="DejaVuSans-66" d="M 2375 4863 
L 2375 4384 
L 1825 4384 
Q 1516 4384 1395 4259 
Q 1275 4134 1275 3809 
L 1275 3500 
L 2222 3500 
L 2222 3053 
L 1275 3053 
L 1275 0 
L 697 0 
L 697 3053 
L 147 3053 
L 147 3500 
L 697 3500 
L 697 3744 
Q 697 4328 969 4595 
Q 1241 4863 1831 4863 
L 2375 4863 
z
" transform="scale(0.015625)"/>
       <path id="DejaVuSans-4a" d="M 628 4666 
L 1259 4666 
L 1259 325 
Q 1259 -519 939 -900 
Q 619 -1281 -91 -1281 
L -331 -1281 
L -331 -750 
L -134 -750 
Q 284 -750 456 -515 
Q 628 -281 628 325 
L 628 4666 
z
" transform="scale(0.015625)"/>
       <path id="DejaVuSans-73" d="M 2834 3397 
L 2834 2853 
Q 2591 2978 2328 3040 
Q 2066 3103 1784 3103 
Q 1356 3103 1142 2972 
Q 928 2841 928 2578 
Q 928 2378 1081 2264 
Q 1234 2150 1697 2047 
L 1894 2003 
Q 2506 1872 2764 1633 
Q 3022 1394 3022 966 
Q 3022 478 2636 193 
Q 2250 -91 1575 -91 
Q 1294 -91 989 -36 
Q 684 19 347 128 
L 347 722 
Q 666 556 975 473 
Q 1284 391 1588 391 
Q 1994 391 2212 530 
Q 2431 669 2431 922 
Q 2431 1156 2273 1281 
Q 2116 1406 1581 1522 
L 1381 1569 
Q 847 1681 609 1914 
Q 372 2147 372 2553 
Q 372 3047 722 3315 
Q 1072 3584 1716 3584 
Q 2034 3584 2315 3537 
Q 2597 3491 2834 3397 
z
" transform="scale(0.015625)"/>
      </defs>
      <use xlink:href="#DejaVuSans-4e"/>
      <use xlink:href="#DejaVuSans-75" transform="translate(74.804688 0)"/>
      <use xlink:href="#DejaVuSans-6d" transform="translate(138.183594 0)"/>
      <use xlink:href="#DejaVuSans-62" transform="translate(235.595703 0)"/>
      <use xlink:href="#DejaVuSans-65" transform="translate(299.072266 0)"/>
      <use xlink:href="#DejaVuSans-72" transform="translate(360.595703 0)"/>
      <use xlink:href="#DejaVuSans-20" transform="translate(401.708984 0)"/>
      <use xlink:href="#DejaVuSans-6f" transform="translate(433.496094 0)"/>
      <use xlink:href="#DejaVuSans-66" transform="translate(494.677734 0)"/>
      <use xlink:href="#DejaVuSans-20" transform="translate(529.882812 0)"/>
      <use xlink:href="#DejaVuSans-4a" transform="translate(561.669922 0)"/>
      <use xlink:href="#DejaVuSans-6f" transform="translate(591.162109 0)"/>
      <use xlink:href="#DejaVuSans-62" transform="translate(652.34375 0)"/>
      <use xlink:href="#DejaVuSans-73" transform="translate(715.820312 0)"/>
     </g>
    </g>
   </g>
   <g id="matplotlib.axis_2">
    <g id="ytick_1">
     <g id="line2d_5">
      <path d="M 40.603125 255.186398 
L 397.723125 255.186398 
" clip-path="url(#pc1fa218f0a)" style="fill: none; stroke: #cccccc; stroke-width: 0.8; stroke-linecap: round"/>
     </g>
     <g id="text_6">
      <!-- 10 -->
      <g style="fill: #262626" transform="translate(20.878125 258.985616) scale(0.1 -0.1)">
       <defs>
        <path id="DejaVuSans-30" d="M 2034 4250 
Q 1547 4250 1301 3770 
Q 1056 3291 1056 2328 
Q 1056 1369 1301 889 
Q 1547 409 2034 409 
Q 2525 409 2770 889 
Q 3016 1369 3016 2328 
Q 3016 3291 2770 3770 
Q 2525 4250 2034 4250 
z
M 2034 4750 
Q 2819 4750 3233 4129 
Q 3647 3509 3647 2328 
Q 3647 1150 3233 529 
Q 2819 -91 2034 -91 
Q 1250 -91 836 529 
Q 422 1150 422 2328 
Q 422 3509 836 4129 
Q 1250 4750 2034 4750 
z
" transform="scale(0.015625)"/>
       </defs>
       <use xlink:href="#DejaVuSans-31"/>
       <use xlink:href="#DejaVuSans-30" transform="translate(63.623047 0)"/>
      </g>
     </g>
    </g>
    <g id="ytick_2">
     <g id="line2d_6">
      <path d="M 40.603125 206.357495 
L 397.723125 206.357495 
" clip-path="url(#pc1fa218f0a)" style="fill: none; stroke: #cccccc; stroke-width: 0.8; stroke-linecap: round"/>
     </g>
     <g id="text_7">
      <!-- 11 -->
      <g style="fill: #262626" transform="translate(20.878125 210.156714) scale(0.1 -0.1)">
       <use xlink:href="#DejaVuSans-31"/>
       <use xlink:href="#DejaVuSans-31" transform="translate(63.623047 0)"/>
      </g>
     </g>
    </g>
    <g id="ytick_3">
     <g id="line2d_7">
      <path d="M 40.603125 157.528592 
L 397.723125 157.528592 
" clip-path="url(#pc1fa218f0a)" style="fill: none; stroke: #cccccc; stroke-width: 0.8; stroke-linecap: round"/>
     </g>
     <g id="text_8">
      <!-- 12 -->
      <g style="fill: #262626" transform="translate(20.878125 161.327811) scale(0.1 -0.1)">
       <use xlink:href="#DejaVuSans-31"/>
       <use xlink:href="#DejaVuSans-32" transform="translate(63.623047 0)"/>
      </g>
     </g>
    </g>
    <g id="ytick_4">
     <g id="line2d_8">
      <path d="M 40.603125 108.699689 
L 397.723125 108.699689 
" clip-path="url(#pc1fa218f0a)" style="fill: none; stroke: #cccccc; stroke-width: 0.8; stroke-linecap: round"/>
     </g>
     <g id="text_9">
      <!-- 13 -->
      <g style="fill: #262626" transform="translate(20.878125 112.498908) scale(0.1 -0.1)">
       <use xlink:href="#DejaVuSans-31"/>
       <use xlink:href="#DejaVuSans-33" transform="translate(63.623047 0)"/>
      </g>
     </g>
    </g>
    <g id="ytick_5">
     <g id="line2d_9">
      <path d="M 40.603125 59.870786 
L 397.723125 59.870786 
" clip-path="url(#pc1fa218f0a)" style="fill: none; stroke: #cccccc; stroke-width: 0.8; stroke-linecap: round"/>
     </g>
     <g id="text_10">
      <!-- 14 -->
      <g style="fill: #262626" transform="translate(20.878125 63.670005) scale(0.1 -0.1)">
       <use xlink:href="#DejaVuSans-31"/>
       <use xlink:href="#DejaVuSans-34" transform="translate(63.623047 0)"/>
      </g>
     </g>
    </g>
    <g id="text_11">
     <!-- Mean Bandwidth (GiB/s) -->
     <g style="fill: #262626" transform="translate(14.798438 228.984412) rotate(-90) scale(0.1 -0.1)">
      <defs>
       <path id="DejaVuSans-4d" d="M 628 4666 
L 1569 4666 
L 2759 1491 
L 3956 4666 
L 4897 4666 
L 4897 0 
L 4281 0 
L 4281 4097 
L 3078 897 
L 2444 897 
L 1241 4097 
L 1241 0 
L 628 0 
L 628 4666 
z
" transform="scale(0.015625)"/>
       <path id="DejaVuSans-61" d="M 2194 1759 
Q 1497 1759 1228 1600 
Q 959 1441 959 1056 
Q 959 750 1161 570 
Q 1363 391 1709 391 
Q 2188 391 2477 730 
Q 2766 1069 2766 1631 
L 2766 1759 
L 2194 1759 
z
M 3341 1997 
L 3341 0 
L 2766 0 
L 2766 531 
Q 2569 213 2275 61 
Q 1981 -91 1556 -91 
Q 1019 -91 701 211 
Q 384 513 384 1019 
Q 384 1609 779 1909 
Q 1175 2209 1959 2209 
L 2766 2209 
L 2766 2266 
Q 2766 2663 2505 2880 
Q 2244 3097 1772 3097 
Q 1472 3097 1187 3025 
Q 903 2953 641 2809 
L 641 3341 
Q 956 3463 1253 3523 
Q 1550 3584 1831 3584 
Q 2591 3584 2966 3190 
Q 3341 2797 3341 1997 
z
" transform="scale(0.015625)"/>
       <path id="DejaVuSans-6e" d="M 3513 2113 
L 3513 0 
L 2938 0 
L 2938 2094 
Q 2938 2591 2744 2837 
Q 2550 3084 2163 3084 
Q 1697 3084 1428 2787 
Q 1159 2491 1159 1978 
L 1159 0 
L 581 0 
L 581 3500 
L 1159 3500 
L 1159 2956 
Q 1366 3272 1645 3428 
Q 1925 3584 2291 3584 
Q 2894 3584 3203 3211 
Q 3513 2838 3513 2113 
z
" transform="scale(0.015625)"/>
       <path id="DejaVuSans-42" d="M 1259 2228 
L 1259 519 
L 2272 519 
Q 2781 519 3026 730 
Q 3272 941 3272 1375 
Q 3272 1813 3026 2020 
Q 2781 2228 2272 2228 
L 1259 2228 
z
M 1259 4147 
L 1259 2741 
L 2194 2741 
Q 2656 2741 2882 2914 
Q 3109 3088 3109 3444 
Q 3109 3797 2882 3972 
Q 2656 4147 2194 4147 
L 1259 4147 
z
M 628 4666 
L 2241 4666 
Q 2963 4666 3353 4366 
Q 3744 4066 3744 3513 
Q 3744 3084 3544 2831 
Q 3344 2578 2956 2516 
Q 3422 2416 3680 2098 
Q 3938 1781 3938 1306 
Q 3938 681 3513 340 
Q 3088 0 2303 0 
L 628 0 
L 628 4666 
z
" transform="scale(0.015625)"/>
       <path id="DejaVuSans-64" d="M 2906 2969 
L 2906 4863 
L 3481 4863 
L 3481 0 
L 2906 0 
L 2906 525 
Q 2725 213 2448 61 
Q 2172 -91 1784 -91 
Q 1150 -91 751 415 
Q 353 922 353 1747 
Q 353 2572 751 3078 
Q 1150 3584 1784 3584 
Q 2172 3584 2448 3432 
Q 2725 3281 2906 2969 
z
M 947 1747 
Q 947 1113 1208 752 
Q 1469 391 1925 391 
Q 2381 391 2643 752 
Q 2906 1113 2906 1747 
Q 2906 2381 2643 2742 
Q 2381 3103 1925 3103 
Q 1469 3103 1208 2742 
Q 947 2381 947 1747 
z
" transform="scale(0.015625)"/>
       <path id="DejaVuSans-77" d="M 269 3500 
L 844 3500 
L 1563 769 
L 2278 3500 
L 2956 3500 
L 3675 769 
L 4391 3500 
L 4966 3500 
L 4050 0 
L 3372 0 
L 2619 2869 
L 1863 0 
L 1184 0 
L 269 3500 
z
" transform="scale(0.015625)"/>
       <path id="DejaVuSans-69" d="M 603 3500 
L 1178 3500 
L 1178 0 
L 603 0 
L 603 3500 
z
M 603 4863 
L 1178 4863 
L 1178 4134 
L 603 4134 
L 603 4863 
z
" transform="scale(0.015625)"/>
       <path id="DejaVuSans-74" d="M 1172 4494 
L 1172 3500 
L 2356 3500 
L 2356 3053 
L 1172 3053 
L 1172 1153 
Q 1172 725 1289 603 
Q 1406 481 1766 481 
L 2356 481 
L 2356 0 
L 1766 0 
Q 1100 0 847 248 
Q 594 497 594 1153 
L 594 3053 
L 172 3053 
L 172 3500 
L 594 3500 
L 594 4494 
L 1172 4494 
z
" transform="scale(0.015625)"/>
       <path id="DejaVuSans-68" d="M 3513 2113 
L 3513 0 
L 2938 0 
L 2938 2094 
Q 2938 2591 2744 2837 
Q 2550 3084 2163 3084 
Q 1697 3084 1428 2787 
Q 1159 2491 1159 1978 
L 1159 0 
L 581 0 
L 581 4863 
L 1159 4863 
L 1159 2956 
Q 1366 3272 1645 3428 
Q 1925 3584 2291 3584 
Q 2894 3584 3203 3211 
Q 3513 2838 3513 2113 
z
" transform="scale(0.015625)"/>
       <path id="DejaVuSans-28" d="M 1984 4856 
Q 1566 4138 1362 3434 
Q 1159 2731 1159 2009 
Q 1159 1288 1364 580 
Q 1569 -128 1984 -844 
L 1484 -844 
Q 1016 -109 783 600 
Q 550 1309 550 2009 
Q 550 2706 781 3412 
Q 1013 4119 1484 4856 
L 1984 4856 
z
" transform="scale(0.015625)"/>
       <path id="DejaVuSans-47" d="M 3809 666 
L 3809 1919 
L 2778 1919 
L 2778 2438 
L 4434 2438 
L 4434 434 
Q 4069 175 3628 42 
Q 3188 -91 2688 -91 
Q 1594 -91 976 548 
Q 359 1188 359 2328 
Q 359 3472 976 4111 
Q 1594 4750 2688 4750 
Q 3144 4750 3555 4637 
Q 3966 4525 4313 4306 
L 4313 3634 
Q 3963 3931 3569 4081 
Q 3175 4231 2741 4231 
Q 1884 4231 1454 3753 
Q 1025 3275 1025 2328 
Q 1025 1384 1454 906 
Q 1884 428 2741 428 
Q 3075 428 3337 486 
Q 3600 544 3809 666 
z
" transform="scale(0.015625)"/>
       <path id="DejaVuSans-2f" d="M 1625 4666 
L 2156 4666 
L 531 -594 
L 0 -594 
L 1625 4666 
z
" transform="scale(0.015625)"/>
       <path id="DejaVuSans-29" d="M 513 4856 
L 1013 4856 
Q 1481 4119 1714 3412 
Q 1947 2706 1947 2009 
Q 1947 1309 1714 600 
Q 1481 -109 1013 -844 
L 513 -844 
Q 928 -128 1133 580 
Q 1338 1288 1338 2009 
Q 1338 2731 1133 3434 
Q 928 4138 513 4856 
z
" transform="scale(0.015625)"/>
      </defs>
      <use xlink:href="#DejaVuSans-4d"/>
      <use xlink:href="#DejaVuSans-65" transform="translate(86.279297 0)"/>
      <use xlink:href="#DejaVuSans-61" transform="translate(147.802734 0)"/>
      <use xlink:href="#DejaVuSans-6e" transform="translate(209.082031 0)"/>
      <use xlink:href="#DejaVuSans-20" transform="translate(272.460938 0)"/>
      <use xlink:href="#DejaVuSans-42" transform="translate(304.248047 0)"/>
      <use xlink:href="#DejaVuSans-61" transform="translate(372.851562 0)"/>
      <use xlink:href="#DejaVuSans-6e" transform="translate(434.130859 0)"/>
      <use xlink:href="#DejaVuSans-64" transform="translate(497.509766 0)"/>
      <use xlink:href="#DejaVuSans-77" transform="translate(560.986328 0)"/>
      <use xlink:href="#DejaVuSans-69" transform="translate(642.773438 0)"/>
      <use xlink:href="#DejaVuSans-64" transform="translate(670.556641 0)"/>
      <use xlink:href="#DejaVuSans-74" transform="translate(734.033203 0)"/>
      <use xlink:href="#DejaVuSans-68" transform="translate(773.242188 0)"/>
      <use xlink:href="#DejaVuSans-20" transform="translate(836.621094 0)"/>
      <use xlink:href="#DejaVuSans-28" transform="translate(868.408203 0)"/>
      <use xlink:href="#DejaVuSans-47" transform="translate(907.421875 0)"/>
      <use xlink:href="#DejaVuSans-69" transform="translate(984.912109 0)"/>
      <use xlink:href="#DejaVuSans-42" transform="translate(1012.695312 0)"/>
      <use xlink:href="#DejaVuSans-2f" transform="translate(1081.298828 0)"/>
      <use xlink:href="#DejaVuSans-73" transform="translate(1114.990234 0)"/>
      <use xlink:href="#DejaVuSans-29" transform="translate(1167.089844 0)"/>
     </g>
    </g>
   </g>
   <g id="FillBetweenPolyCollection_1"/>
   <g id="FillBetweenPolyCollection_2"/>
   <g id="FillBetweenPolyCollection_3"/>
   <g id="FillBetweenPolyCollection_4"/>
   <g id="FillBetweenPolyCollection_5"/>
   <g id="FillBetweenPolyCollection_6"/>
   <g id="FillBetweenPolyCollection_7"/>
   <g id="line2d_10">
    <path d="M 56.835852 207.716703 
L 103.215073 281.164374 
L 195.973515 289.639725 
L 381.490398 239.924651 
" clip-path="url(#pc1fa218f0a)" style="fill: none; stroke: #4c02a1; stroke-width: 1.5; stroke-linecap: round"/>
   </g>
   <g id="line2d_11">
    <path d="M 56.835852 215.752758 
L 103.215073 219.283209 
L 195.973515 127.785148 
L 381.490398 62.511661 
" clip-path="url(#pc1fa218f0a)" style="fill: none; stroke: #7e03a8; stroke-width: 1.5; stroke-linecap: round"/>
   </g>
   <g id="line2d_12">
    <path d="M 56.835852 198.005614 
L 103.215073 277.580112 
L 195.973515 131.506307 
L 381.490398 259.915871 
" clip-path="url(#pc1fa218f0a)" style="fill: none; stroke: #aa2395; stroke-width: 1.5; stroke-linecap: round"/>
   </g>
   <g id="line2d_13">
    <path d="M 56.835852 204.688333 
L 103.215073 277.293055 
L 195.973515 129.745451 
L 381.490398 58.775436 
" clip-path="url(#pc1fa218f0a)" style="fill: none; stroke: #cc4778; stroke-width: 1.5; stroke-linecap: round"/>
   </g>
   <g id="line2d_14">
    <path d="M 56.835852 267.577132 
L 103.215073 286.796867 
L 195.973515 125.716345 
L 381.490398 54.294341 
" clip-path="url(#pc1fa218f0a)" style="fill: none; stroke: #e66c5c; stroke-width: 1.5; stroke-linecap: round"/>
   </g>
   <g id="line2d_15">
    <path d="M 56.835852 284.82255 
L 103.215073 287.700314 
L 195.973515 127.564386 
L 381.490398 47.719725 
" clip-path="url(#pc1fa218f0a)" style="fill: none; stroke: #f89540; stroke-width: 1.5; stroke-linecap: round"/>
   </g>
   <g id="line2d_16">
    <path d="M 56.835852 266.726842 
L 103.215073 283.685716 
L 195.973515 122.75503 
L 381.490398 50.943427 
" clip-path="url(#pc1fa218f0a)" style="fill: none; stroke: #fdc527; stroke-width: 1.5; stroke-linecap: round"/>
   </g>
   <g id="line2d_17"/>
   <g id="line2d_18"/>
   <g id="line2d_19"/>
   <g id="line2d_20"/>
   <g id="line2d_21"/>
   <g id="line2d_22"/>
   <g id="line2d_23"/>
   <g id="text_12">
    <path d="M 95.967368 273.300851 
L 96.827481 274.662954 
L 101.530766 271.69302 
L 100.297478 270.398399 
L 101.057138 269.918705 
L 102.285421 271.205399 
L 102.811833 272.039043 
L 97.348888 275.488672 
L 98.209 276.850775 
L 97.507471 277.293762 
L 95.265838 273.743838 
L 95.967368 273.300851 
z
" clip-path="url(#pc1fa218f0a)" style="fill: #4c02a1; stroke: #ffffff; stroke-width: 5"/>
    <path d="M 95.967368 273.300851 
L 96.827481 274.662954 
L 101.530766 271.69302 
L 100.297478 270.398399 
L 101.057138 269.918705 
L 102.285421 271.205399 
L 102.811833 272.039043 
L 97.348888 275.488672 
L 98.209 276.850775 
L 97.507471 277.293762 
L 95.265838 273.743838 
L 95.967368 273.300851 
z
" clip-path="url(#pc1fa218f0a)" style="fill: #4c02a1"/>
   </g>
   <g id="text_13">
    <path d="M 136.658582 181.136466 
L 137.618741 185.65647 
L 139.391884 183.90742 
L 136.658582 181.136466 
z
M 135.870427 180.706801 
L 136.753661 179.835568 
L 140.090462 183.218333 
L 140.831311 182.487551 
L 141.407379 183.071553 
L 140.66653 183.802336 
L 141.873528 185.02596 
L 141.17495 185.715047 
L 139.967951 184.491422 
L 137.625267 186.802275 
L 136.957029 186.124832 
L 135.870427 180.706801 
z
" clip-path="url(#pc1fa218f0a)" style="fill: #7e03a8; stroke: #ffffff; stroke-width: 5"/>
    <path d="M 136.658582 181.136466 
L 137.618741 185.65647 
L 139.391884 183.90742 
L 136.658582 181.136466 
z
M 135.870427 180.706801 
L 136.753661 179.835568 
L 140.090462 183.218333 
L 140.831311 182.487551 
L 141.407379 183.071553 
L 140.66653 183.802336 
L 141.873528 185.02596 
L 141.17495 185.715047 
L 139.967951 184.491422 
L 137.625267 186.802275 
L 136.957029 186.124832 
L 135.870427 180.706801 
z
" clip-path="url(#pc1fa218f0a)" style="fill: #7e03a8"/>
   </g>
   <g id="text_14">
    <path d="M 178.391887 157.881792 
Q 178.014968 158.475355 178.116754 159.017525 
Q 178.219377 159.558377 178.774688 159.911005 
Q 179.331318 160.264471 179.864467 160.127342 
Q 180.398453 159.988893 180.775372 159.39533 
Q 181.152291 158.801768 181.050023 158.257441 
Q 180.947275 157.710957 180.394602 157.360004 
Q 179.839291 157.007375 179.305305 157.145823 
Q 178.772156 157.282953 178.391887 157.881792 
z
M 177.509863 158.489623 
Q 177.037896 158.941389 176.481071 159.007956 
Q 175.923765 159.072367 175.396154 158.737328 
Q 174.658817 158.269111 174.563496 157.471918 
Q 174.469013 156.673407 175.049468 155.75932 
Q 175.633274 154.839957 176.394484 154.588522 
Q 177.155695 154.337086 177.893032 154.805303 
Q 178.420643 155.140342 178.598518 155.673452 
Q 178.77591 156.204404 178.570262 156.819733 
Q 179.092023 156.307041 179.713672 156.231663 
Q 180.334839 156.154128 180.923126 156.527696 
Q 181.818746 157.096425 181.950788 157.946551 
Q 182.081511 158.795839 181.434886 159.814129 
Q 180.789098 160.8311 179.964007 161.075287 
Q 179.138434 161.317317 178.242814 160.748588 
Q 177.654527 160.37502 177.461372 159.778531 
Q 177.267736 159.179885 177.509863 158.489623 
z
M 176.001307 157.959234 
Q 176.478795 158.262444 176.935855 158.134376 
Q 177.393752 158.004989 177.73633 157.465506 
Q 178.077232 156.928661 178.001279 156.456571 
Q 177.926163 155.983162 177.448675 155.679952 
Q 176.969868 155.375904 176.509457 155.509249 
Q 176.049885 155.641274 175.708982 156.178119 
Q 175.366405 156.717601 175.444033 157.187053 
Q 175.522499 157.655186 176.001307 157.959234 
z
" clip-path="url(#pc1fa218f0a)" style="fill: #aa2395; stroke: #ffffff; stroke-width: 5"/>
    <path d="M 178.391887 157.881792 
Q 178.014968 158.475355 178.116754 159.017525 
Q 178.219377 159.558377 178.774688 159.911005 
Q 179.331318 160.264471 179.864467 160.127342 
Q 180.398453 159.988893 180.775372 159.39533 
Q 181.152291 158.801768 181.050023 158.257441 
Q 180.947275 157.710957 180.394602 157.360004 
Q 179.839291 157.007375 179.305305 157.145823 
Q 178.772156 157.282953 178.391887 157.881792 
z
M 177.509863 158.489623 
Q 177.037896 158.941389 176.481071 159.007956 
Q 175.923765 159.072367 175.396154 158.737328 
Q 174.658817 158.269111 174.563496 157.471918 
Q 174.469013 156.673407 175.049468 155.75932 
Q 175.633274 154.839957 176.394484 154.588522 
Q 177.155695 154.337086 177.893032 154.805303 
Q 178.420643 155.140342 178.598518 155.673452 
Q 178.77591 156.204404 178.570262 156.819733 
Q 179.092023 156.307041 179.713672 156.231663 
Q 180.334839 156.154128 180.923126 156.527696 
Q 181.818746 157.096425 181.950788 157.946551 
Q 182.081511 158.795839 181.434886 159.814129 
Q 180.789098 160.8311 179.964007 161.075287 
Q 179.138434 161.317317 178.242814 160.748588 
Q 177.654527 160.37502 177.461372 159.778531 
Q 177.267736 159.179885 177.509863 158.489623 
z
M 176.001307 157.959234 
Q 176.478795 158.262444 176.935855 158.134376 
Q 177.393752 158.004989 177.73633 157.465506 
Q 178.077232 156.928661 178.001279 156.456571 
Q 177.926163 155.983162 177.448675 155.679952 
Q 176.969868 155.375904 176.509457 155.509249 
Q 176.049885 155.641274 175.708982 156.178119 
Q 175.366405 156.717601 175.444033 157.187053 
Q 175.522499 157.655186 176.001307 157.959234 
z
" clip-path="url(#pc1fa218f0a)" style="fill: #aa2395"/>
   </g>
   <g id="text_15">
    <path d="M 215.068825 124.506554 
L 216.573424 123.930966 
L 214.585941 118.735649 
L 213.074154 119.690397 
L 212.753142 118.851266 
L 214.256173 117.899868 
L 215.177028 117.547592 
L 217.485523 123.58204 
L 218.990122 123.006451 
L 219.28657 123.781371 
L 215.365273 125.281474 
L 215.068825 124.506554 
z
M 221.789893 118.500864 
Q 221.169665 118.738133 220.968745 119.301819 
Q 220.768726 119.863487 221.051217 120.601922 
Q 221.332032 121.33598 221.85753 121.625118 
Q 222.383928 121.912238 223.004156 121.674969 
Q 223.624383 121.437699 223.823286 120.873112 
Q 224.02163 120.307066 223.740815 119.573009 
Q 223.458324 118.834573 222.934501 118.549813 
Q 222.41012 118.263594 221.789893 118.500864 
z
M 222.51363 114.913266 
L 222.834642 115.752397 
Q 222.424787 115.72182 222.038683 115.770822 
Q 221.652022 115.818365 221.304694 115.951236 
Q 220.392595 116.300162 220.146602 117.100244 
Q 219.902068 117.899768 220.309692 119.17084 
Q 220.426361 118.671171 220.751112 118.304362 
Q 221.077322 117.936994 221.564748 117.750528 
Q 222.590677 117.358056 223.424482 117.753423 
Q 224.257728 118.147331 224.667507 119.2185 
Q 225.068912 120.267779 224.691537 121.13987 
Q 224.313604 122.010501 223.283297 122.404648 
Q 222.101216 122.856856 221.130476 122.190999 
Q 220.159177 121.523681 219.501522 119.804557 
Q 218.884062 118.190506 219.282876 116.93715 
Q 219.68169 115.683794 220.971763 115.190273 
Q 221.31909 115.057402 221.698494 114.990888 
Q 222.077898 114.924374 222.51363 114.913266 
z
" clip-path="url(#pc1fa218f0a)" style="fill: #cc4778; stroke: #ffffff; stroke-width: 5"/>
    <path d="M 215.068825 124.506554 
L 216.573424 123.930966 
L 214.585941 118.735649 
L 213.074154 119.690397 
L 212.753142 118.851266 
L 214.256173 117.899868 
L 215.177028 117.547592 
L 217.485523 123.58204 
L 218.990122 123.006451 
L 219.28657 123.781371 
L 215.365273 125.281474 
L 215.068825 124.506554 
z
M 221.789893 118.500864 
Q 221.169665 118.738133 220.968745 119.301819 
Q 220.768726 119.863487 221.051217 120.601922 
Q 221.332032 121.33598 221.85753 121.625118 
Q 222.383928 121.912238 223.004156 121.674969 
Q 223.624383 121.437699 223.823286 120.873112 
Q 224.02163 120.307066 223.740815 119.573009 
Q 223.458324 118.834573 222.934501 118.549813 
Q 222.41012 118.263594 221.789893 118.500864 
z
M 222.51363 114.913266 
L 222.834642 115.752397 
Q 222.424787 115.72182 222.038683 115.770822 
Q 221.652022 115.818365 221.304694 115.951236 
Q 220.392595 116.300162 220.146602 117.100244 
Q 219.902068 117.899768 220.309692 119.17084 
Q 220.426361 118.671171 220.751112 118.304362 
Q 221.077322 117.936994 221.564748 117.750528 
Q 222.590677 117.358056 223.424482 117.753423 
Q 224.257728 118.147331 224.667507 119.2185 
Q 225.068912 120.267779 224.691537 121.13987 
Q 224.313604 122.010501 223.283297 122.404648 
Q 222.101216 122.856856 221.130476 122.190999 
Q 220.159177 121.523681 219.501522 119.804557 
Q 218.884062 118.190506 219.282876 116.93715 
Q 219.68169 115.683794 220.971763 115.190273 
Q 221.31909 115.057402 221.698494 114.990888 
Q 222.077898 114.924374 222.51363 114.913266 
z
" clip-path="url(#pc1fa218f0a)" style="fill: #cc4778"/>
   </g>
   <g id="text_16">
    <path d="M 256.76729 101.055675 
Q 257.482295 100.942812 258.025013 101.24788 
Q 258.568629 101.550928 258.82125 102.207104 
Q 259.208602 103.213241 258.728734 104.032543 
Q 258.248305 104.850387 256.972406 105.341594 
Q 256.545162 105.506078 256.059112 105.596093 
Q 255.573061 105.686109 255.025286 105.702778 
L 254.683406 104.814752 
Q 255.151338 104.890771 255.650074 104.829357 
Q 256.150269 104.767383 256.647505 104.575952 
Q 257.5122 104.243054 257.834328 103.727253 
Q 258.156456 103.211453 257.905519 102.559651 
Q 257.673669 101.957427 257.122018 101.78137 
Q 256.569805 101.603855 255.818848 101.892966 
L 255.025604 102.198356 
L 254.734248 101.441566 
L 255.563946 101.122141 
Q 256.241995 100.8611 256.497746 100.451219 
Q 256.753498 100.041339 256.557015 99.530979 
Q 256.35548 99.007496 255.875861 98.87068 
Q 255.39714 98.731843 254.704509 98.998499 
Q 254.325385 99.144457 253.924307 99.394303 
Q 253.522668 99.64269 253.069803 100.014605 
L 252.754307 99.195114 
Q 253.22311 98.8472 253.652907 98.598019 
Q 254.082703 98.348837 254.488074 98.192773 
Q 255.536498 97.789141 256.329584 98.031306 
Q 257.123567 98.271451 257.435694 99.082194 
Q 257.65351 99.647964 257.479684 100.161921 
Q 257.305859 100.675879 256.76729 101.055675 
z
M 261.822879 102.432803 
L 265.035227 101.196083 
L 265.33332 101.970371 
L 261.014221 103.633178 
L 260.716128 102.85889 
Q 261.030778 102.114915 261.58342 100.854046 
Q 262.136958 99.591156 262.266636 99.23651 
Q 262.517592 98.570634 262.560087 98.159141 
Q 262.60404 97.747086 262.476045 97.414623 
Q 262.267212 96.872184 261.755267 96.677492 
Q 261.24276 96.481342 260.631787 96.71656 
Q 260.198711 96.88329 259.775337 97.218737 
Q 259.353421 97.553622 258.924497 98.070355 
L 258.566337 97.140043 
Q 259.036009 96.703057 259.474875 96.403504 
Q 259.9152 96.103388 260.316197 95.949009 
Q 261.37337 95.542009 262.205622 95.82937 
Q 263.037312 96.115272 263.377508 96.998923 
Q 263.539186 97.418876 263.526539 97.855713 
Q 263.51479 98.29053 263.295694 98.960883 
Q 263.233043 99.137364 262.865147 100.00397 
Q 262.498709 100.870014 261.822879 102.432803 
z
" clip-path="url(#pc1fa218f0a)" style="fill: #e66c5c; stroke: #ffffff; stroke-width: 5"/>
    <path d="M 256.76729 101.055675 
Q 257.482295 100.942812 258.025013 101.24788 
Q 258.568629 101.550928 258.82125 102.207104 
Q 259.208602 103.213241 258.728734 104.032543 
Q 258.248305 104.850387 256.972406 105.341594 
Q 256.545162 105.506078 256.059112 105.596093 
Q 255.573061 105.686109 255.025286 105.702778 
L 254.683406 104.814752 
Q 255.151338 104.890771 255.650074 104.829357 
Q 256.150269 104.767383 256.647505 104.575952 
Q 257.5122 104.243054 257.834328 103.727253 
Q 258.156456 103.211453 257.905519 102.559651 
Q 257.673669 101.957427 257.122018 101.78137 
Q 256.569805 101.603855 255.818848 101.892966 
L 255.025604 102.198356 
L 254.734248 101.441566 
L 255.563946 101.122141 
Q 256.241995 100.8611 256.497746 100.451219 
Q 256.753498 100.041339 256.557015 99.530979 
Q 256.35548 99.007496 255.875861 98.87068 
Q 255.39714 98.731843 254.704509 98.998499 
Q 254.325385 99.144457 253.924307 99.394303 
Q 253.522668 99.64269 253.069803 100.014605 
L 252.754307 99.195114 
Q 253.22311 98.8472 253.652907 98.598019 
Q 254.082703 98.348837 254.488074 98.192773 
Q 255.536498 97.789141 256.329584 98.031306 
Q 257.123567 98.271451 257.435694 99.082194 
Q 257.65351 99.647964 257.479684 100.161921 
Q 257.305859 100.675879 256.76729 101.055675 
z
M 261.822879 102.432803 
L 265.035227 101.196083 
L 265.33332 101.970371 
L 261.014221 103.633178 
L 260.716128 102.85889 
Q 261.030778 102.114915 261.58342 100.854046 
Q 262.136958 99.591156 262.266636 99.23651 
Q 262.517592 98.570634 262.560087 98.159141 
Q 262.60404 97.747086 262.476045 97.414623 
Q 262.267212 96.872184 261.755267 96.677492 
Q 261.24276 96.481342 260.631787 96.71656 
Q 260.198711 96.88329 259.775337 97.218737 
Q 259.353421 97.553622 258.924497 98.070355 
L 258.566337 97.140043 
Q 259.036009 96.703057 259.474875 96.403504 
Q 259.9152 96.103388 260.316197 95.949009 
Q 261.37337 95.542009 262.205622 95.82937 
Q 263.037312 96.115272 263.377508 96.998923 
Q 263.539186 97.418876 263.526539 97.855713 
Q 263.51479 98.29053 263.295694 98.960883 
Q 263.233043 99.137364 262.865147 100.00397 
Q 262.498709 100.870014 261.822879 102.432803 
z
" clip-path="url(#pc1fa218f0a)" style="fill: #e66c5c"/>
   </g>
   <g id="text_17">
    <path d="M 296.198253 83.037158 
Q 295.588286 83.299682 295.410668 83.871139 
Q 295.233868 84.440542 295.546426 85.166762 
Q 295.857131 85.888676 296.394052 86.156005 
Q 296.931791 86.42128 297.541758 86.158756 
Q 298.151725 85.896232 298.32729 85.323958 
Q 298.502237 84.750249 298.191532 84.028334 
Q 297.878974 83.302114 297.343906 83.039092 
Q 296.80822 82.774634 296.198253 83.037158 
z
M 296.774145 79.422881 
L 297.129324 80.248131 
Q 296.71856 80.2344 296.334793 80.299206 
Q 295.950408 80.362577 295.608826 80.509591 
Q 294.711815 80.895656 294.498865 81.705159 
Q 294.287349 82.514046 294.746795 83.767318 
Q 294.84286 83.263281 295.152283 82.883453 
Q 295.463142 82.503008 295.942504 82.296695 
Q 296.951462 81.862449 297.80079 82.223264 
Q 298.6495 82.582643 299.102895 83.636093 
Q 299.547024 84.668014 299.205757 85.554857 
Q 298.863873 86.440266 297.85061 86.876364 
Q 296.688084 87.376704 295.690835 86.751247 
Q 294.692968 86.124354 293.965313 84.433668 
Q 293.282133 82.846318 293.629173 81.57765 
Q 293.976213 80.308983 295.244945 79.762933 
Q 295.586527 79.61592 295.962882 79.533891 
Q 296.339236 79.451862 296.774145 79.422881 
z
M 301.535133 78.134176 
L 300.786096 82.693922 
L 303.073832 81.709303 
L 301.535133 78.134176 
z
M 300.95715 77.447346 
L 302.096712 76.956889 
L 303.975149 81.321385 
L 304.931003 80.909994 
L 305.255298 81.663483 
L 304.299443 82.074874 
L 304.978917 83.653613 
L 304.077601 84.041531 
L 303.398127 82.462792 
L 300.375559 83.763675 
L 299.999378 82.889628 
L 300.95715 77.447346 
z
" clip-path="url(#pc1fa218f0a)" style="fill: #f89540; stroke: #ffffff; stroke-width: 5"/>
    <path d="M 296.198253 83.037158 
Q 295.588286 83.299682 295.410668 83.871139 
Q 295.233868 84.440542 295.546426 85.166762 
Q 295.857131 85.888676 296.394052 86.156005 
Q 296.931791 86.42128 297.541758 86.158756 
Q 298.151725 85.896232 298.32729 85.323958 
Q 298.502237 84.750249 298.191532 84.028334 
Q 297.878974 83.302114 297.343906 83.039092 
Q 296.80822 82.774634 296.198253 83.037158 
z
M 296.774145 79.422881 
L 297.129324 80.248131 
Q 296.71856 80.2344 296.334793 80.299206 
Q 295.950408 80.362577 295.608826 80.509591 
Q 294.711815 80.895656 294.498865 81.705159 
Q 294.287349 82.514046 294.746795 83.767318 
Q 294.84286 83.263281 295.152283 82.883453 
Q 295.463142 82.503008 295.942504 82.296695 
Q 296.951462 81.862449 297.80079 82.223264 
Q 298.6495 82.582643 299.102895 83.636093 
Q 299.547024 84.668014 299.205757 85.554857 
Q 298.863873 86.440266 297.85061 86.876364 
Q 296.688084 87.376704 295.690835 86.751247 
Q 294.692968 86.124354 293.965313 84.433668 
Q 293.282133 82.846318 293.629173 81.57765 
Q 293.976213 80.308983 295.244945 79.762933 
Q 295.586527 79.61592 295.962882 79.533891 
Q 296.339236 79.451862 296.774145 79.422881 
z
M 301.535133 78.134176 
L 300.786096 82.693922 
L 303.073832 81.709303 
L 301.535133 78.134176 
z
M 300.95715 77.447346 
L 302.096712 76.956889 
L 303.975149 81.321385 
L 304.931003 80.909994 
L 305.255298 81.663483 
L 304.299443 82.074874 
L 304.978917 83.653613 
L 304.077601 84.041531 
L 303.398127 82.462792 
L 300.375559 83.763675 
L 299.999378 82.889628 
L 300.95715 77.447346 
z
" clip-path="url(#pc1fa218f0a)" style="fill: #f89540"/>
   </g>
   <g id="text_18">
    <path d="M 332.64447 71.920377 
L 334.146783 71.338848 
L 332.138787 66.151425 
L 330.630784 67.112139 
L 330.306459 66.274282 
L 331.805719 65.316953 
L 332.725175 64.961041 
L 335.057496 70.98632 
L 336.559809 70.404791 
L 336.859316 71.178533 
L 332.943977 72.694119 
L 332.64447 71.920377 
z
M 339.210167 69.378866 
L 342.420249 68.136277 
L 342.719756 68.910019 
L 338.403704 70.580717 
L 338.104197 69.806975 
Q 338.417486 69.062427 338.967822 67.800549 
Q 339.519051 66.53665 339.648081 66.181768 
Q 339.89782 65.515434 339.939562 65.103864 
Q 339.982762 64.691729 339.85416 64.359501 
Q 339.644336 63.817444 339.132036 63.623689 
Q 338.619172 63.428476 338.008629 63.66481 
Q 337.575858 63.832331 337.153098 64.168551 
Q 336.731795 64.504207 336.303817 65.021723 
L 335.943957 64.092067 
Q 336.412829 63.654224 336.851147 63.353868 
Q 337.290923 63.052949 337.691636 62.897837 
Q 338.748064 62.488905 339.58084 62.774744 
Q 340.413051 63.059127 340.754862 63.942154 
Q 340.917307 64.361811 340.905459 64.79867 
Q 340.894504 65.233508 340.676634 65.90426 
Q 340.614305 66.080855 340.247994 66.948132 
Q 339.88314 67.814844 339.210167 69.378866 
z
M 345.367506 64.172247 
Q 344.711793 64.426067 344.471785 64.922762 
Q 344.233234 65.418892 344.470696 66.032348 
Q 344.708723 66.647262 345.219143 66.853474 
Q 345.73102 67.059122 346.386733 66.805302 
Q 347.042447 66.551482 347.283348 66.052767 
Q 347.525142 65.55203 347.288808 64.941488 
Q 347.051345 64.328031 346.539468 64.122383 
Q 346.029048 63.916172 345.367506 64.172247 
z
M 344.296886 64.137645 
Q 343.648882 64.220933 343.161307 63.943886 
Q 342.674625 63.664817 342.449008 63.081961 
Q 342.133707 62.267419 342.530335 61.569358 
Q 342.92842 60.870734 343.938219 60.479851 
Q 344.953847 60.086713 345.715646 60.336358 
Q 346.477445 60.586004 346.792746 61.400546 
Q 347.018363 61.983402 346.84496 62.517983 
Q 346.672451 63.050542 346.141627 63.423566 
Q 346.865872 63.320819 347.41084 63.629265 
Q 347.9567 63.935691 348.208264 64.585576 
Q 348.59125 65.574975 348.192741 66.337431 
Q 347.793668 67.098431 346.668755 67.533872 
Q 345.545299 67.96875 344.736402 67.675343 
Q 343.928397 67.379915 343.545412 66.390516 
Q 343.293848 65.740631 343.492587 65.145979 
Q 343.692218 64.549306 344.296886 64.137645 
z
M 343.397935 62.815169 
Q 343.602119 63.342655 344.045934 63.51098 
Q 344.491206 63.678742 345.087176 63.448048 
Q 345.680233 63.218482 345.899417 62.793517 
Q 346.120059 62.367987 345.915875 61.840502 
Q 345.711127 61.311559 345.261484 61.14549 
Q 344.813298 60.978856 344.220241 61.208422 
Q 343.62427 61.439116 343.408 61.862954 
Q 343.193187 62.286227 343.397935 62.815169 
z
" clip-path="url(#pc1fa218f0a)" style="fill: #fdc527; stroke: #ffffff; stroke-width: 5"/>
    <path d="M 332.64447 71.920377 
L 334.146783 71.338848 
L 332.138787 66.151425 
L 330.630784 67.112139 
L 330.306459 66.274282 
L 331.805719 65.316953 
L 332.725175 64.961041 
L 335.057496 70.98632 
L 336.559809 70.404791 
L 336.859316 71.178533 
L 332.943977 72.694119 
L 332.64447 71.920377 
z
M 339.210167 69.378866 
L 342.420249 68.136277 
L 342.719756 68.910019 
L 338.403704 70.580717 
L 338.104197 69.806975 
Q 338.417486 69.062427 338.967822 67.800549 
Q 339.519051 66.53665 339.648081 66.181768 
Q 339.89782 65.515434 339.939562 65.103864 
Q 339.982762 64.691729 339.85416 64.359501 
Q 339.644336 63.817444 339.132036 63.623689 
Q 338.619172 63.428476 338.008629 63.66481 
Q 337.575858 63.832331 337.153098 64.168551 
Q 336.731795 64.504207 336.303817 65.021723 
L 335.943957 64.092067 
Q 336.412829 63.654224 336.851147 63.353868 
Q 337.290923 63.052949 337.691636 62.897837 
Q 338.748064 62.488905 339.58084 62.774744 
Q 340.413051 63.059127 340.754862 63.942154 
Q 340.917307 64.361811 340.905459 64.79867 
Q 340.894504 65.233508 340.676634 65.90426 
Q 340.614305 66.080855 340.247994 66.948132 
Q 339.88314 67.814844 339.210167 69.378866 
z
M 345.367506 64.172247 
Q 344.711793 64.426067 344.471785 64.922762 
Q 344.233234 65.418892 344.470696 66.032348 
Q 344.708723 66.647262 345.219143 66.853474 
Q 345.73102 67.059122 346.386733 66.805302 
Q 347.042447 66.551482 347.283348 66.052767 
Q 347.525142 65.55203 347.288808 64.941488 
Q 347.051345 64.328031 346.539468 64.122383 
Q 346.029048 63.916172 345.367506 64.172247 
z
M 344.296886 64.137645 
Q 343.648882 64.220933 343.161307 63.943886 
Q 342.674625 63.664817 342.449008 63.081961 
Q 342.133707 62.267419 342.530335 61.569358 
Q 342.92842 60.870734 343.938219 60.479851 
Q 344.953847 60.086713 345.715646 60.336358 
Q 346.477445 60.586004 346.792746 61.400546 
Q 347.018363 61.983402 346.84496 62.517983 
Q 346.672451 63.050542 346.141627 63.423566 
Q 346.865872 63.320819 347.41084 63.629265 
Q 347.9567 63.935691 348.208264 64.585576 
Q 348.59125 65.574975 348.192741 66.337431 
Q 347.793668 67.098431 346.668755 67.533872 
Q 345.545299 67.96875 344.736402 67.675343 
Q 343.928397 67.379915 343.545412 66.390516 
Q 343.293848 65.740631 343.492587 65.145979 
Q 343.692218 64.549306 344.296886 64.137645 
z
M 343.397935 62.815169 
Q 343.602119 63.342655 344.045934 63.51098 
Q 344.491206 63.678742 345.087176 63.448048 
Q 345.680233 63.218482 345.899417 62.793517 
Q 346.120059 62.367987 345.915875 61.840502 
Q 345.711127 61.311559 345.261484 61.14549 
Q 344.813298 60.978856 344.220241 61.208422 
Q 343.62427 61.439116 343.408 61.862954 
Q 343.193187 62.286227 343.397935 62.815169 
z
" clip-path="url(#pc1fa218f0a)" style="fill: #fdc527"/>
   </g>
   <g id="patch_3">
    <path d="M 40.603125 301.735725 
L 40.603125 35.623725 
" style="fill: none; stroke: #cccccc; stroke-width: 0.8; stroke-linejoin: miter; stroke-linecap: square"/>
   </g>
   <g id="patch_4">
    <path d="M 397.723125 301.735725 
L 397.723125 35.623725 
" style="fill: none; stroke: #cccccc; stroke-width: 0.8; stroke-linejoin: miter; stroke-linecap: square"/>
   </g>
   <g id="patch_5">
    <path d="M 40.603125 301.735725 
L 397.723125 301.735725 
" style="fill: none; stroke: #cccccc; stroke-width: 0.8; stroke-linejoin: miter; stroke-linecap: square"/>
   </g>
   <g id="patch_6">
    <path d="M 40.603125 35.623725 
L 397.723125 35.623725 
" style="fill: none; stroke: #cccccc; stroke-width: 0.8; stroke-linejoin: miter; stroke-linecap: square"/>
   </g>
   <g id="text_19">
    <!-- Block Size = 2M, Read-Write Type = Random Write-only -->
    <g style="fill: #262626; opacity: 0.75" transform="translate(79.975625 30.882918) scale(0.1 -0.1)">
     <defs>
      <path id="DejaVuSans-6c" d="M 603 4863 
L 1178 4863 
L 1178 0 
L 603 0 
L 603 4863 
z
" transform="scale(0.015625)"/>
      <path id="DejaVuSans-63" d="M 3122 3366 
L 3122 2828 
Q 2878 2963 2633 3030 
Q 2388 3097 2138 3097 
Q 1578 3097 1268 2742 
Q 959 2388 959 1747 
Q 959 1106 1268 751 
Q 1578 397 2138 397 
Q 2388 397 2633 464 
Q 2878 531 3122 666 
L 3122 134 
Q 2881 22 2623 -34 
Q 2366 -91 2075 -91 
Q 1284 -91 818 406 
Q 353 903 353 1747 
Q 353 2603 823 3093 
Q 1294 3584 2113 3584 
Q 2378 3584 2631 3529 
Q 2884 3475 3122 3366 
z
" transform="scale(0.015625)"/>
      <path id="DejaVuSans-6b" d="M 581 4863 
L 1159 4863 
L 1159 1991 
L 2875 3500 
L 3609 3500 
L 1753 1863 
L 3688 0 
L 2938 0 
L 1159 1709 
L 1159 0 
L 581 0 
L 581 4863 
z
" transform="scale(0.015625)"/>
      <path id="DejaVuSans-53" d="M 3425 4513 
L 3425 3897 
Q 3066 4069 2747 4153 
Q 2428 4238 2131 4238 
Q 1616 4238 1336 4038 
Q 1056 3838 1056 3469 
Q 1056 3159 1242 3001 
Q 1428 2844 1947 2747 
L 2328 2669 
Q 3034 2534 3370 2195 
Q 3706 1856 3706 1288 
Q 3706 609 3251 259 
Q 2797 -91 1919 -91 
Q 1588 -91 1214 -16 
Q 841 59 441 206 
L 441 856 
Q 825 641 1194 531 
Q 1563 422 1919 422 
Q 2459 422 2753 634 
Q 3047 847 3047 1241 
Q 3047 1584 2836 1778 
Q 2625 1972 2144 2069 
L 1759 2144 
Q 1053 2284 737 2584 
Q 422 2884 422 3419 
Q 422 4038 858 4394 
Q 1294 4750 2059 4750 
Q 2388 4750 2728 4690 
Q 3069 4631 3425 4513 
z
" transform="scale(0.015625)"/>
      <path id="DejaVuSans-7a" d="M 353 3500 
L 3084 3500 
L 3084 2975 
L 922 459 
L 3084 459 
L 3084 0 
L 275 0 
L 275 525 
L 2438 3041 
L 353 3041 
L 353 3500 
z
" transform="scale(0.015625)"/>
      <path id="DejaVuSans-3d" d="M 678 2906 
L 4684 2906 
L 4684 2381 
L 678 2381 
L 678 2906 
z
M 678 1631 
L 4684 1631 
L 4684 1100 
L 678 1100 
L 678 1631 
z
" transform="scale(0.015625)"/>
      <path id="DejaVuSans-2c" d="M 750 794 
L 1409 794 
L 1409 256 
L 897 -744 
L 494 -744 
L 750 256 
L 750 794 
z
" transform="scale(0.015625)"/>
      <path id="DejaVuSans-52" d="M 2841 2188 
Q 3044 2119 3236 1894 
Q 3428 1669 3622 1275 
L 4263 0 
L 3584 0 
L 2988 1197 
Q 2756 1666 2539 1819 
Q 2322 1972 1947 1972 
L 1259 1972 
L 1259 0 
L 628 0 
L 628 4666 
L 2053 4666 
Q 2853 4666 3247 4331 
Q 3641 3997 3641 3322 
Q 3641 2881 3436 2590 
Q 3231 2300 2841 2188 
z
M 1259 4147 
L 1259 2491 
L 2053 2491 
Q 2509 2491 2742 2702 
Q 2975 2913 2975 3322 
Q 2975 3731 2742 3939 
Q 2509 4147 2053 4147 
L 1259 4147 
z
" transform="scale(0.015625)"/>
      <path id="DejaVuSans-2d" d="M 313 2009 
L 1997 2009 
L 1997 1497 
L 313 1497 
L 313 2009 
z
" transform="scale(0.015625)"/>
      <path id="DejaVuSans-57" d="M 213 4666 
L 850 4666 
L 1831 722 
L 2809 4666 
L 3519 4666 
L 4500 722 
L 5478 4666 
L 6119 4666 
L 4947 0 
L 4153 0 
L 3169 4050 
L 2175 0 
L 1381 0 
L 213 4666 
z
" transform="scale(0.015625)"/>
      <path id="DejaVuSans-54" d="M -19 4666 
L 3928 4666 
L 3928 4134 
L 2272 4134 
L 2272 0 
L 1638 0 
L 1638 4134 
L -19 4134 
L -19 4666 
z
" transform="scale(0.015625)"/>
      <path id="DejaVuSans-79" d="M 2059 -325 
Q 1816 -950 1584 -1140 
Q 1353 -1331 966 -1331 
L 506 -1331 
L 506 -850 
L 844 -850 
Q 1081 -850 1212 -737 
Q 1344 -625 1503 -206 
L 1606 56 
L 191 3500 
L 800 3500 
L 1894 763 
L 2988 3500 
L 3597 3500 
L 2059 -325 
z
" transform="scale(0.015625)"/>
      <path id="DejaVuSans-70" d="M 1159 525 
L 1159 -1331 
L 581 -1331 
L 581 3500 
L 1159 3500 
L 1159 2969 
Q 1341 3281 1617 3432 
Q 1894 3584 2278 3584 
Q 2916 3584 3314 3078 
Q 3713 2572 3713 1747 
Q 3713 922 3314 415 
Q 2916 -91 2278 -91 
Q 1894 -91 1617 61 
Q 1341 213 1159 525 
z
M 3116 1747 
Q 3116 2381 2855 2742 
Q 2594 3103 2138 3103 
Q 1681 3103 1420 2742 
Q 1159 2381 1159 1747 
Q 1159 1113 1420 752 
Q 1681 391 2138 391 
Q 2594 391 2855 752 
Q 3116 1113 3116 1747 
z
" transform="scale(0.015625)"/>
     </defs>
     <use xlink:href="#DejaVuSans-42"/>
     <use xlink:href="#DejaVuSans-6c" transform="translate(68.603516 0)"/>
     <use xlink:href="#DejaVuSans-6f" transform="translate(96.386719 0)"/>
     <use xlink:href="#DejaVuSans-63" transform="translate(157.568359 0)"/>
     <use xlink:href="#DejaVuSans-6b" transform="translate(212.548828 0)"/>
     <use xlink:href="#DejaVuSans-20" transform="translate(270.458984 0)"/>
     <use xlink:href="#DejaVuSans-53" transform="translate(302.246094 0)"/>
     <use xlink:href="#DejaVuSans-69" transform="translate(365.722656 0)"/>
     <use xlink:href="#DejaVuSans-7a" transform="translate(393.505859 0)"/>
     <use xlink:href="#DejaVuSans-65" transform="translate(445.996094 0)"/>
     <use xlink:href="#DejaVuSans-20" transform="translate(507.519531 0)"/>
     <use xlink:href="#DejaVuSans-3d" transform="translate(539.306641 0)"/>
     <use xlink:href="#DejaVuSans-20" transform="translate(623.095703 0)"/>
     <use xlink:href="#DejaVuSans-32" transform="translate(654.882812 0)"/>
     <use xlink:href="#DejaVuSans-4d" transform="translate(718.505859 0)"/>
     <use xlink:href="#DejaVuSans-2c" transform="translate(804.785156 0)"/>
     <use xlink:href="#DejaVuSans-20" transform="translate(836.572266 0)"/>
     <use xlink:href="#DejaVuSans-52" transform="translate(868.359375 0)"/>
     <use xlink:href="#DejaVuSans-65" transform="translate(933.341797 0)"/>
     <use xlink:href="#DejaVuSans-61" transform="translate(994.865234 0)"/>
     <use xlink:href="#DejaVuSans-64" transform="translate(1056.144531 0)"/>
     <use xlink:href="#DejaVuSans-2d" transform="translate(1119.621094 0)"/>
     <use xlink:href="#DejaVuSans-57" transform="translate(1151.705078 0)"/>
     <use xlink:href="#DejaVuSans-72" transform="translate(1246.082031 0)"/>
     <use xlink:href="#DejaVuSans-69" transform="translate(1287.195312 0)"/>
     <use xlink:href="#DejaVuSans-74" transform="translate(1314.978516 0)"/>
     <use xlink:href="#DejaVuSans-65" transform="translate(1354.1875 0)"/>
     <use xlink:href="#DejaVuSans-20" transform="translate(1415.710938 0)"/>
     <use xlink:href="#DejaVuSans-54" transform="translate(1447.498047 0)"/>
     <use xlink:href="#DejaVuSans-79" transform="translate(1492.957031 0)"/>
     <use xlink:href="#DejaVuSans-70" transform="translate(1552.136719 0)"/>
     <use xlink:href="#DejaVuSans-65" transform="translate(1615.613281 0)"/>
     <use xlink:href="#DejaVuSans-20" transform="translate(1677.136719 0)"/>
     <use xlink:href="#DejaVuSans-3d" transform="translate(1708.923828 0)"/>
     <use xlink:href="#DejaVuSans-20" transform="translate(1792.712891 0)"/>
     <use xlink:href="#DejaVuSans-52" transform="translate(1824.5 0)"/>
     <use xlink:href="#DejaVuSans-61" transform="translate(1891.732422 0)"/>
     <use xlink:href="#DejaVuSans-6e" transform="translate(1953.011719 0)"/>
     <use xlink:href="#DejaVuSans-64" transform="translate(2016.390625 0)"/>
     <use xlink:href="#DejaVuSans-6f" transform="translate(2079.867188 0)"/>
     <use xlink:href="#DejaVuSans-6d" transform="translate(2141.048828 0)"/>
     <use xlink:href="#DejaVuSans-20" transform="translate(2238.460938 0)"/>
     <use xlink:href="#DejaVuSans-57" transform="translate(2270.248047 0)"/>
     <use xlink:href="#DejaVuSans-72" transform="translate(2364.625 0)"/>
     <use xlink:href="#DejaVuSans-69" transform="translate(2405.738281 0)"/>
     <use xlink:href="#DejaVuSans-74" transform="translate(2433.521484 0)"/>
     <use xlink:href="#DejaVuSans-65" transform="translate(2472.730469 0)"/>
     <use xlink:href="#DejaVuSans-2d" transform="translate(2534.253906 0)"/>
     <use xlink:href="#DejaVuSans-6f" transform="translate(2572.212891 0)"/>
     <use xlink:href="#DejaVuSans-6e" transform="translate(2633.394531 0)"/>
     <use xlink:href="#DejaVuSans-6c" transform="translate(2696.773438 0)"/>
     <use xlink:href="#DejaVuSans-79" transform="translate(2724.556641 0)"/>
    </g>
   </g>
   <g id="text_20">
    <!-- Mean Bandwidth vs Number of Jobs -->
    <g style="fill: #262626" transform="translate(98.834063 16.318125) scale(0.12 -0.12)">
     <defs>
      <path id="DejaVuSans-Bold-4d" d="M 588 4666 
L 2119 4666 
L 3181 2169 
L 4250 4666 
L 5778 4666 
L 5778 0 
L 4641 0 
L 4641 3413 
L 3566 897 
L 2803 897 
L 1728 3413 
L 1728 0 
L 588 0 
L 588 4666 
z
" transform="scale(0.015625)"/>
      <path id="DejaVuSans-Bold-65" d="M 4031 1759 
L 4031 1441 
L 1416 1441 
Q 1456 1047 1700 850 
Q 1944 653 2381 653 
Q 2734 653 3104 758 
Q 3475 863 3866 1075 
L 3866 213 
Q 3469 63 3072 -14 
Q 2675 -91 2278 -91 
Q 1328 -91 801 392 
Q 275 875 275 1747 
Q 275 2603 792 3093 
Q 1309 3584 2216 3584 
Q 3041 3584 3536 3087 
Q 4031 2591 4031 1759 
z
M 2881 2131 
Q 2881 2450 2695 2645 
Q 2509 2841 2209 2841 
Q 1884 2841 1681 2658 
Q 1478 2475 1428 2131 
L 2881 2131 
z
" transform="scale(0.015625)"/>
      <path id="DejaVuSans-Bold-61" d="M 2106 1575 
Q 1756 1575 1579 1456 
Q 1403 1338 1403 1106 
Q 1403 894 1545 773 
Q 1688 653 1941 653 
Q 2256 653 2472 879 
Q 2688 1106 2688 1447 
L 2688 1575 
L 2106 1575 
z
M 3816 1997 
L 3816 0 
L 2688 0 
L 2688 519 
Q 2463 200 2181 54 
Q 1900 -91 1497 -91 
Q 953 -91 614 226 
Q 275 544 275 1050 
Q 275 1666 698 1953 
Q 1122 2241 2028 2241 
L 2688 2241 
L 2688 2328 
Q 2688 2594 2478 2717 
Q 2269 2841 1825 2841 
Q 1466 2841 1156 2769 
Q 847 2697 581 2553 
L 581 3406 
Q 941 3494 1303 3539 
Q 1666 3584 2028 3584 
Q 2975 3584 3395 3211 
Q 3816 2838 3816 1997 
z
" transform="scale(0.015625)"/>
      <path id="DejaVuSans-Bold-6e" d="M 4056 2131 
L 4056 0 
L 2931 0 
L 2931 347 
L 2931 1631 
Q 2931 2084 2911 2256 
Q 2891 2428 2841 2509 
Q 2775 2619 2662 2680 
Q 2550 2741 2406 2741 
Q 2056 2741 1856 2470 
Q 1656 2200 1656 1722 
L 1656 0 
L 538 0 
L 538 3500 
L 1656 3500 
L 1656 2988 
Q 1909 3294 2193 3439 
Q 2478 3584 2822 3584 
Q 3428 3584 3742 3212 
Q 4056 2841 4056 2131 
z
" transform="scale(0.015625)"/>
      <path id="DejaVuSans-Bold-20" transform="scale(0.015625)"/>
      <path id="DejaVuSans-Bold-42" d="M 2456 2859 
Q 2741 2859 2887 2984 
Q 3034 3109 3034 3353 
Q 3034 3594 2887 3720 
Q 2741 3847 2456 3847 
L 1791 3847 
L 1791 2859 
L 2456 2859 
z
M 2497 819 
Q 2859 819 3042 972 
Q 3225 1125 3225 1434 
Q 3225 1738 3044 1889 
Q 2863 2041 2497 2041 
L 1791 2041 
L 1791 819 
L 2497 819 
z
M 3616 2497 
Q 4003 2384 4215 2081 
Q 4428 1778 4428 1338 
Q 4428 663 3972 331 
Q 3516 0 2584 0 
L 588 0 
L 588 4666 
L 2394 4666 
Q 3366 4666 3802 4372 
Q 4238 4078 4238 3431 
Q 4238 3091 4078 2852 
Q 3919 2613 3616 2497 
z
" transform="scale(0.015625)"/>
      <path id="DejaVuSans-Bold-64" d="M 2919 2988 
L 2919 4863 
L 4044 4863 
L 4044 0 
L 2919 0 
L 2919 506 
Q 2688 197 2409 53 
Q 2131 -91 1766 -91 
Q 1119 -91 703 423 
Q 288 938 288 1747 
Q 288 2556 703 3070 
Q 1119 3584 1766 3584 
Q 2128 3584 2408 3439 
Q 2688 3294 2919 2988 
z
M 2181 722 
Q 2541 722 2730 984 
Q 2919 1247 2919 1747 
Q 2919 2247 2730 2509 
Q 2541 2772 2181 2772 
Q 1825 2772 1636 2509 
Q 1447 2247 1447 1747 
Q 1447 1247 1636 984 
Q 1825 722 2181 722 
z
" transform="scale(0.015625)"/>
      <path id="DejaVuSans-Bold-77" d="M 225 3500 
L 1313 3500 
L 1900 1088 
L 2491 3500 
L 3425 3500 
L 4013 1113 
L 4603 3500 
L 5691 3500 
L 4769 0 
L 3547 0 
L 2956 2406 
L 2369 0 
L 1147 0 
L 225 3500 
z
" transform="scale(0.015625)"/>
      <path id="DejaVuSans-Bold-69" d="M 538 3500 
L 1656 3500 
L 1656 0 
L 538 0 
L 538 3500 
z
M 538 4863 
L 1656 4863 
L 1656 3950 
L 538 3950 
L 538 4863 
z
" transform="scale(0.015625)"/>
      <path id="DejaVuSans-Bold-74" d="M 1759 4494 
L 1759 3500 
L 2913 3500 
L 2913 2700 
L 1759 2700 
L 1759 1216 
Q 1759 972 1856 886 
Q 1953 800 2241 800 
L 2816 800 
L 2816 0 
L 1856 0 
Q 1194 0 917 276 
Q 641 553 641 1216 
L 641 2700 
L 84 2700 
L 84 3500 
L 641 3500 
L 641 4494 
L 1759 4494 
z
" transform="scale(0.015625)"/>
      <path id="DejaVuSans-Bold-68" d="M 4056 2131 
L 4056 0 
L 2931 0 
L 2931 347 
L 2931 1625 
Q 2931 2084 2911 2256 
Q 2891 2428 2841 2509 
Q 2775 2619 2662 2680 
Q 2550 2741 2406 2741 
Q 2056 2741 1856 2470 
Q 1656 2200 1656 1722 
L 1656 0 
L 538 0 
L 538 4863 
L 1656 4863 
L 1656 2988 
Q 1909 3294 2193 3439 
Q 2478 3584 2822 3584 
Q 3428 3584 3742 3212 
Q 4056 2841 4056 2131 
z
" transform="scale(0.015625)"/>
      <path id="DejaVuSans-Bold-76" d="M 97 3500 
L 1216 3500 
L 2088 1081 
L 2956 3500 
L 4078 3500 
L 2700 0 
L 1472 0 
L 97 3500 
z
" transform="scale(0.015625)"/>
      <path id="DejaVuSans-Bold-73" d="M 3272 3391 
L 3272 2541 
Q 2913 2691 2578 2766 
Q 2244 2841 1947 2841 
Q 1628 2841 1473 2761 
Q 1319 2681 1319 2516 
Q 1319 2381 1436 2309 
Q 1553 2238 1856 2203 
L 2053 2175 
Q 2913 2066 3209 1816 
Q 3506 1566 3506 1031 
Q 3506 472 3093 190 
Q 2681 -91 1863 -91 
Q 1516 -91 1145 -36 
Q 775 19 384 128 
L 384 978 
Q 719 816 1070 734 
Q 1422 653 1784 653 
Q 2113 653 2278 743 
Q 2444 834 2444 1013 
Q 2444 1163 2330 1236 
Q 2216 1309 1875 1350 
L 1678 1375 
Q 931 1469 631 1722 
Q 331 1975 331 2491 
Q 331 3047 712 3315 
Q 1094 3584 1881 3584 
Q 2191 3584 2531 3537 
Q 2872 3491 3272 3391 
z
" transform="scale(0.015625)"/>
      <path id="DejaVuSans-Bold-4e" d="M 588 4666 
L 1931 4666 
L 3628 1466 
L 3628 4666 
L 4769 4666 
L 4769 0 
L 3425 0 
L 1728 3200 
L 1728 0 
L 588 0 
L 588 4666 
z
" transform="scale(0.015625)"/>
      <path id="DejaVuSans-Bold-75" d="M 500 1363 
L 500 3500 
L 1625 3500 
L 1625 3150 
Q 1625 2866 1622 2436 
Q 1619 2006 1619 1863 
Q 1619 1441 1641 1255 
Q 1663 1069 1716 984 
Q 1784 875 1895 815 
Q 2006 756 2150 756 
Q 2500 756 2700 1025 
Q 2900 1294 2900 1772 
L 2900 3500 
L 4019 3500 
L 4019 0 
L 2900 0 
L 2900 506 
Q 2647 200 2364 54 
Q 2081 -91 1741 -91 
Q 1134 -91 817 281 
Q 500 653 500 1363 
z
" transform="scale(0.015625)"/>
      <path id="DejaVuSans-Bold-6d" d="M 3781 2919 
Q 3994 3244 4286 3414 
Q 4578 3584 4928 3584 
Q 5531 3584 5847 3212 
Q 6163 2841 6163 2131 
L 6163 0 
L 5038 0 
L 5038 1825 
Q 5041 1866 5042 1909 
Q 5044 1953 5044 2034 
Q 5044 2406 4934 2573 
Q 4825 2741 4581 2741 
Q 4263 2741 4089 2478 
Q 3916 2216 3909 1719 
L 3909 0 
L 2784 0 
L 2784 1825 
Q 2784 2406 2684 2573 
Q 2584 2741 2328 2741 
Q 2006 2741 1831 2477 
Q 1656 2213 1656 1722 
L 1656 0 
L 531 0 
L 531 3500 
L 1656 3500 
L 1656 2988 
Q 1863 3284 2130 3434 
Q 2397 3584 2719 3584 
Q 3081 3584 3359 3409 
Q 3638 3234 3781 2919 
z
" transform="scale(0.015625)"/>
      <path id="DejaVuSans-Bold-62" d="M 2400 722 
Q 2759 722 2948 984 
Q 3138 1247 3138 1747 
Q 3138 2247 2948 2509 
Q 2759 2772 2400 2772 
Q 2041 2772 1848 2508 
Q 1656 2244 1656 1747 
Q 1656 1250 1848 986 
Q 2041 722 2400 722 
z
M 1656 2988 
Q 1888 3294 2169 3439 
Q 2450 3584 2816 3584 
Q 3463 3584 3878 3070 
Q 4294 2556 4294 1747 
Q 4294 938 3878 423 
Q 3463 -91 2816 -91 
Q 2450 -91 2169 54 
Q 1888 200 1656 506 
L 1656 0 
L 538 0 
L 538 4863 
L 1656 4863 
L 1656 2988 
z
" transform="scale(0.015625)"/>
      <path id="DejaVuSans-Bold-72" d="M 3138 2547 
Q 2991 2616 2845 2648 
Q 2700 2681 2553 2681 
Q 2122 2681 1889 2404 
Q 1656 2128 1656 1613 
L 1656 0 
L 538 0 
L 538 3500 
L 1656 3500 
L 1656 2925 
Q 1872 3269 2151 3426 
Q 2431 3584 2822 3584 
Q 2878 3584 2943 3579 
Q 3009 3575 3134 3559 
L 3138 2547 
z
" transform="scale(0.015625)"/>
      <path id="DejaVuSans-Bold-6f" d="M 2203 2784 
Q 1831 2784 1636 2517 
Q 1441 2250 1441 1747 
Q 1441 1244 1636 976 
Q 1831 709 2203 709 
Q 2569 709 2762 976 
Q 2956 1244 2956 1747 
Q 2956 2250 2762 2517 
Q 2569 2784 2203 2784 
z
M 2203 3584 
Q 3106 3584 3614 3096 
Q 4122 2609 4122 1747 
Q 4122 884 3614 396 
Q 3106 -91 2203 -91 
Q 1297 -91 786 396 
Q 275 884 275 1747 
Q 275 2609 786 3096 
Q 1297 3584 2203 3584 
z
" transform="scale(0.015625)"/>
      <path id="DejaVuSans-Bold-66" d="M 2841 4863 
L 2841 4128 
L 2222 4128 
Q 1984 4128 1890 4042 
Q 1797 3956 1797 3744 
L 1797 3500 
L 2753 3500 
L 2753 2700 
L 1797 2700 
L 1797 0 
L 678 0 
L 678 2700 
L 122 2700 
L 122 3500 
L 678 3500 
L 678 3744 
Q 678 4316 997 4589 
Q 1316 4863 1984 4863 
L 2841 4863 
z
" transform="scale(0.015625)"/>
      <path id="DejaVuSans-Bold-4a" d="M 588 4666 
L 1791 4666 
L 1791 453 
Q 1791 -419 1317 -850 
Q 844 -1281 -116 -1281 
L -359 -1281 
L -359 -372 
L -172 -372 
Q 203 -372 395 -162 
Q 588 47 588 453 
L 588 4666 
z
" transform="scale(0.015625)"/>
     </defs>
     <use xlink:href="#DejaVuSans-Bold-4d"/>
     <use xlink:href="#DejaVuSans-Bold-65" transform="translate(99.511719 0)"/>
     <use xlink:href="#DejaVuSans-Bold-61" transform="translate(167.333984 0)"/>
     <use xlink:href="#DejaVuSans-Bold-6e" transform="translate(234.814453 0)"/>
     <use xlink:href="#DejaVuSans-Bold-20" transform="translate(306.005859 0)"/>
     <use xlink:href="#DejaVuSans-Bold-42" transform="translate(340.820312 0)"/>
     <use xlink:href="#DejaVuSans-Bold-61" transform="translate(417.041016 0)"/>
     <use xlink:href="#DejaVuSans-Bold-6e" transform="translate(484.521484 0)"/>
     <use xlink:href="#DejaVuSans-Bold-64" transform="translate(555.712891 0)"/>
     <use xlink:href="#DejaVuSans-Bold-77" transform="translate(627.294922 0)"/>
     <use xlink:href="#DejaVuSans-Bold-69" transform="translate(719.677734 0)"/>
     <use xlink:href="#DejaVuSans-Bold-64" transform="translate(753.955078 0)"/>
     <use xlink:href="#DejaVuSans-Bold-74" transform="translate(825.537109 0)"/>
     <use xlink:href="#DejaVuSans-Bold-68" transform="translate(873.339844 0)"/>
     <use xlink:href="#DejaVuSans-Bold-20" transform="translate(944.53125 0)"/>
     <use xlink:href="#DejaVuSans-Bold-76" transform="translate(979.345703 0)"/>
     <use xlink:href="#DejaVuSans-Bold-73" transform="translate(1044.53125 0)"/>
     <use xlink:href="#DejaVuSans-Bold-20" transform="translate(1104.052734 0)"/>
     <use xlink:href="#DejaVuSans-Bold-4e" transform="translate(1138.867188 0)"/>
     <use xlink:href="#DejaVuSans-Bold-75" transform="translate(1222.558594 0)"/>
     <use xlink:href="#DejaVuSans-Bold-6d" transform="translate(1293.75 0)"/>
     <use xlink:href="#DejaVuSans-Bold-62" transform="translate(1397.949219 0)"/>
     <use xlink:href="#DejaVuSans-Bold-65" transform="translate(1469.53125 0)"/>
     <use xlink:href="#DejaVuSans-Bold-72" transform="translate(1537.353516 0)"/>
     <use xlink:href="#DejaVuSans-Bold-20" transform="translate(1586.669922 0)"/>
     <use xlink:href="#DejaVuSans-Bold-6f" transform="translate(1621.484375 0)"/>
     <use xlink:href="#DejaVuSans-Bold-66" transform="translate(1690.185547 0)"/>
     <use xlink:href="#DejaVuSans-Bold-20" transform="translate(1733.691406 0)"/>
     <use xlink:href="#DejaVuSans-Bold-4a" transform="translate(1768.505859 0)"/>
     <use xlink:href="#DejaVuSans-Bold-6f" transform="translate(1805.712891 0)"/>
     <use xlink:href="#DejaVuSans-Bold-62" transform="translate(1874.414062 0)"/>
     <use xlink:href="#DejaVuSans-Bold-73" transform="translate(1945.996094 0)"/>
    </g>
   </g>
   <g id="legend_1">
    <g id="text_21">
     <!-- IO Depth -->
     <g style="fill: #262626" transform="translate(432.229687 120.065663) scale(0.1 -0.1)">
      <defs>
       <path id="DejaVuSans-49" d="M 628 4666 
L 1259 4666 
L 1259 0 
L 628 0 
L 628 4666 
z
" transform="scale(0.015625)"/>
       <path id="DejaVuSans-4f" d="M 2522 4238 
Q 1834 4238 1429 3725 
Q 1025 3213 1025 2328 
Q 1025 1447 1429 934 
Q 1834 422 2522 422 
Q 3209 422 3611 934 
Q 4013 1447 4013 2328 
Q 4013 3213 3611 3725 
Q 3209 4238 2522 4238 
z
M 2522 4750 
Q 3503 4750 4090 4092 
Q 4678 3434 4678 2328 
Q 4678 1225 4090 567 
Q 3503 -91 2522 -91 
Q 1538 -91 948 565 
Q 359 1222 359 2328 
Q 359 3434 948 4092 
Q 1538 4750 2522 4750 
z
" transform="scale(0.015625)"/>
       <path id="DejaVuSans-44" d="M 1259 4147 
L 1259 519 
L 2022 519 
Q 2988 519 3436 956 
Q 3884 1394 3884 2338 
Q 3884 3275 3436 3711 
Q 2988 4147 2022 4147 
L 1259 4147 
z
M 628 4666 
L 1925 4666 
Q 3281 4666 3915 4102 
Q 4550 3538 4550 2338 
Q 4550 1131 3912 565 
Q 3275 0 1925 0 
L 628 0 
L 628 4666 
z
" transform="scale(0.015625)"/>
      </defs>
      <use xlink:href="#DejaVuSans-49"/>
      <use xlink:href="#DejaVuSans-4f" transform="translate(29.492188 0)"/>
      <use xlink:href="#DejaVuSans-20" transform="translate(108.203125 0)"/>
      <use xlink:href="#DejaVuSans-44" transform="translate(139.990234 0)"/>
      <use xlink:href="#DejaVuSans-65" transform="translate(216.992188 0)"/>
      <use xlink:href="#DejaVuSans-70" transform="translate(278.515625 0)"/>
      <use xlink:href="#DejaVuSans-74" transform="translate(341.992188 0)"/>
      <use xlink:href="#DejaVuSans-68" transform="translate(381.201172 0)"/>
     </g>
    </g>
    <g id="line2d_24">
     <path d="M 430.915625 131.243787 
L 440.915625 131.243787 
L 450.915625 131.243787 
" style="fill: none; stroke: #4c02a1; stroke-width: 1.5; stroke-linecap: round"/>
    </g>
    <g id="text_22">
     <!-- 1 -->
     <g style="fill: #262626" transform="translate(458.915625 134.743787) scale(0.1 -0.1)">
      <use xlink:href="#DejaVuSans-31"/>
     </g>
    </g>
    <g id="line2d_25">
     <path d="M 430.915625 145.921913 
L 440.915625 145.921913 
L 450.915625 145.921913 
" style="fill: none; stroke: #7e03a8; stroke-width: 1.5; stroke-linecap: round"/>
    </g>
    <g id="text_23">
     <!-- 4 -->
     <g style="fill: #262626" transform="translate(458.915625 149.421913) scale(0.1 -0.1)">
      <use xlink:href="#DejaVuSans-34"/>
     </g>
    </g>
    <g id="line2d_26">
     <path d="M 430.915625 160.600037 
L 440.915625 160.600037 
L 450.915625 160.600037 
" style="fill: none; stroke: #aa2395; stroke-width: 1.5; stroke-linecap: round"/>
    </g>
    <g id="text_24">
     <!-- 8 -->
     <g style="fill: #262626" transform="translate(458.915625 164.100037) scale(0.1 -0.1)">
      <use xlink:href="#DejaVuSans-38"/>
     </g>
    </g>
    <g id="line2d_27">
     <path d="M 430.915625 175.278163 
L 440.915625 175.278163 
L 450.915625 175.278163 
" style="fill: none; stroke: #cc4778; stroke-width: 1.5; stroke-linecap: round"/>
    </g>
    <g id="text_25">
     <!-- 16 -->
     <g style="fill: #262626" transform="translate(458.915625 178.778163) scale(0.1 -0.1)">
      <use xlink:href="#DejaVuSans-31"/>
      <use xlink:href="#DejaVuSans-36" transform="translate(63.623047 0)"/>
     </g>
    </g>
    <g id="line2d_28">
     <path d="M 430.915625 189.956288 
L 440.915625 189.956288 
L 450.915625 189.956288 
" style="fill: none; stroke: #e66c5c; stroke-width: 1.5; stroke-linecap: round"/>
    </g>
    <g id="text_26">
     <!-- 32 -->
     <g style="fill: #262626" transform="translate(458.915625 193.456288) scale(0.1 -0.1)">
      <use xlink:href="#DejaVuSans-33"/>
      <use xlink:href="#DejaVuSans-32" transform="translate(63.623047 0)"/>
     </g>
    </g>
    <g id="line2d_29">
     <path d="M 430.915625 204.634412 
L 440.915625 204.634412 
L 450.915625 204.634412 
" style="fill: none; stroke: #f89540; stroke-width: 1.5; stroke-linecap: round"/>
    </g>
    <g id="text_27">
     <!-- 64 -->
     <g style="fill: #262626" transform="translate(458.915625 208.134412) scale(0.1 -0.1)">
      <use xlink:href="#DejaVuSans-36"/>
      <use xlink:href="#DejaVuSans-34" transform="translate(63.623047 0)"/>
     </g>
    </g>
    <g id="line2d_30">
     <path d="M 430.915625 219.312537 
L 440.915625 219.312537 
L 450.915625 219.312537 
" style="fill: none; stroke: #fdc527; stroke-width: 1.5; stroke-linecap: round"/>
    </g>
    <g id="text_28">
     <!-- 128 -->
     <g style="fill: #262626" transform="translate(458.915625 222.812537) scale(0.1 -0.1)">
      <use xlink:href="#DejaVuSans-31"/>
      <use xlink:href="#DejaVuSans-32" transform="translate(63.623047 0)"/>
      <use xlink:href="#DejaVuSans-38" transform="translate(127.246094 0)"/>
     </g>
    </g>
   </g>
  </g>
 </g>
 <defs>
  <clipPath id="pc1fa218f0a">
   <rect x="40.603125" y="35.623725" width="357.12" height="266.112"/>
  </clipPath>
 </defs>
</svg>
