<?xml version="1.0" encoding="utf-8" standalone="no"?>
<!DOCTYPE svg PUBLIC "-//W3C//DTD SVG 1.1//EN"
  "http://www.w3.org/Graphics/SVG/1.1/DTD/svg11.dtd">
<svg xmlns:xlink="http://www.w3.org/1999/xlink" width="492.38125pt" height="339.291975pt" viewBox="0 0 492.38125 339.291975" xmlns="http://www.w3.org/2000/svg" version="1.1">
 <metadata>
  <rdf:RDF xmlns:dc="http://purl.org/dc/elements/1.1/" xmlns:cc="http://creativecommons.org/ns#" xmlns:rdf="http://www.w3.org/1999/02/22-rdf-syntax-ns#">
   <cc:Work>
    <dc:type rdf:resource="http://purl.org/dc/dcmitype/StillImage"/>
    <dc:date>2025-09-10T17:56:21.711138</dc:date>
    <dc:format>image/svg+xml</dc:format>
    <dc:creator>
     <cc:Agent>
      <dc:title>Matplotlib v3.10.6, https://matplotlib.org/</dc:title>
     </cc:Agent>
    </dc:creator>
   </cc:Work>
  </rdf:RDF>
 </metadata>
 <defs>
  <style type="text/css">*{stroke-linejoin: round; stroke-linecap: butt}</style>
 </defs>
 <g id="figure_1">
  <g id="patch_1">
   <path d="M 0 339.291975 
L 492.38125 339.291975 
L 492.38125 0 
L 0 0 
z
" style="fill: #ffffff"/>
  </g>
  <g id="axes_1">
   <g id="patch_2">
    <path d="M 43.78125 301.735725 
L 400.90125 301.735725 
L 400.90125 35.623725 
L 43.78125 35.623725 
z
" style="fill: #ffffff"/>
   </g>
   <g id="matplotlib.axis_1">
    <g id="xtick_1">
     <g id="line2d_1">
      <path d="M 60.013977 301.735725 
L 60.013977 35.623725 
" clip-path="url(#pace463cf22)" style="fill: none; stroke: #cccccc; stroke-width: 0.8; stroke-linecap: round"/>
     </g>
     <g id="text_1">
      <!-- 1 -->
      <g style="fill: #262626" transform="translate(56.832727 316.334162) scale(0.1 -0.1)">
       <defs>
        <path id="DejaVuSans-31" d="M 794 531 
L 1825 531 
L 1825 4091 
L 703 3866 
L 703 4441 
L 1819 4666 
L 2450 4666 
L 2450 531 
L 3481 531 
L 3481 0 
L 794 0 
L 794 531 
z
" transform="scale(0.015625)"/>
       </defs>
       <use xlink:href="#DejaVuSans-31"/>
      </g>
     </g>
    </g>
    <g id="xtick_2">
     <g id="line2d_2">
      <path d="M 139.260362 301.735725 
L 139.260362 35.623725 
" clip-path="url(#pace463cf22)" style="fill: none; stroke: #cccccc; stroke-width: 0.8; stroke-linecap: round"/>
     </g>
     <g id="text_2">
      <!-- 32 -->
      <g style="fill: #262626" transform="translate(132.897862 316.334162) scale(0.1 -0.1)">
       <defs>
        <path id="DejaVuSans-33" d="M 2597 2516 
Q 3050 2419 3304 2112 
Q 3559 1806 3559 1356 
Q 3559 666 3084 287 
Q 2609 -91 1734 -91 
Q 1441 -91 1130 -33 
Q 819 25 488 141 
L 488 750 
Q 750 597 1062 519 
Q 1375 441 1716 441 
Q 2309 441 2620 675 
Q 2931 909 2931 1356 
Q 2931 1769 2642 2001 
Q 2353 2234 1838 2234 
L 1294 2234 
L 1294 2753 
L 1863 2753 
Q 2328 2753 2575 2939 
Q 2822 3125 2822 3475 
Q 2822 3834 2567 4026 
Q 2313 4219 1838 4219 
Q 1578 4219 1281 4162 
Q 984 4106 628 3988 
L 628 4550 
Q 988 4650 1302 4700 
Q 1616 4750 1894 4750 
Q 2613 4750 3031 4423 
Q 3450 4097 3450 3541 
Q 3450 3153 3228 2886 
Q 3006 2619 2597 2516 
z
" transform="scale(0.015625)"/>
        <path id="DejaVuSans-32" d="M 1228 531 
L 3431 531 
L 3431 0 
L 469 0 
L 469 531 
Q 828 903 1448 1529 
Q 2069 2156 2228 2338 
Q 2531 2678 2651 2914 
Q 2772 3150 2772 3378 
Q 2772 3750 2511 3984 
Q 2250 4219 1831 4219 
Q 1534 4219 1204 4116 
Q 875 4013 500 3803 
L 500 4441 
Q 881 4594 1212 4672 
Q 1544 4750 1819 4750 
Q 2544 4750 2975 4387 
Q 3406 4025 3406 3419 
Q 3406 3131 3298 2873 
Q 3191 2616 2906 2266 
Q 2828 2175 2409 1742 
Q 1991 1309 1228 531 
z
" transform="scale(0.015625)"/>
       </defs>
       <use xlink:href="#DejaVuSans-33"/>
       <use xlink:href="#DejaVuSans-32" transform="translate(63.623047 0)"/>
      </g>
     </g>
    </g>
    <g id="xtick_3">
     <g id="line2d_3">
      <path d="M 221.063082 301.735725 
L 221.063082 35.623725 
" clip-path="url(#pace463cf22)" style="fill: none; stroke: #cccccc; stroke-width: 0.8; stroke-linecap: round"/>
     </g>
     <g id="text_3">
      <!-- 64 -->
      <g style="fill: #262626" transform="translate(214.700582 316.334162) scale(0.1 -0.1)">
       <defs>
        <path id="DejaVuSans-36" d="M 2113 2584 
Q 1688 2584 1439 2293 
Q 1191 2003 1191 1497 
Q 1191 994 1439 701 
Q 1688 409 2113 409 
Q 2538 409 2786 701 
Q 3034 994 3034 1497 
Q 3034 2003 2786 2293 
Q 2538 2584 2113 2584 
z
M 3366 4563 
L 3366 3988 
Q 3128 4100 2886 4159 
Q 2644 4219 2406 4219 
Q 1781 4219 1451 3797 
Q 1122 3375 1075 2522 
Q 1259 2794 1537 2939 
Q 1816 3084 2150 3084 
Q 2853 3084 3261 2657 
Q 3669 2231 3669 1497 
Q 3669 778 3244 343 
Q 2819 -91 2113 -91 
Q 1303 -91 875 529 
Q 447 1150 447 2328 
Q 447 3434 972 4092 
Q 1497 4750 2381 4750 
Q 2619 4750 2861 4703 
Q 3103 4656 3366 4563 
z
" transform="scale(0.015625)"/>
        <path id="DejaVuSans-34" d="M 2419 4116 
L 825 1625 
L 2419 1625 
L 2419 4116 
z
M 2253 4666 
L 3047 4666 
L 3047 1625 
L 3713 1625 
L 3713 1100 
L 3047 1100 
L 3047 0 
L 2419 0 
L 2419 1100 
L 313 1100 
L 313 1709 
L 2253 4666 
z
" transform="scale(0.015625)"/>
       </defs>
       <use xlink:href="#DejaVuSans-36"/>
       <use xlink:href="#DejaVuSans-34" transform="translate(63.623047 0)"/>
      </g>
     </g>
    </g>
    <g id="xtick_4">
     <g id="line2d_4">
      <path d="M 384.668523 301.735725 
L 384.668523 35.623725 
" clip-path="url(#pace463cf22)" style="fill: none; stroke: #cccccc; stroke-width: 0.8; stroke-linecap: round"/>
     </g>
     <g id="text_4">
      <!-- 128 -->
      <g style="fill: #262626" transform="translate(375.124773 316.334162) scale(0.1 -0.1)">
       <defs>
        <path id="DejaVuSans-38" d="M 2034 2216 
Q 1584 2216 1326 1975 
Q 1069 1734 1069 1313 
Q 1069 891 1326 650 
Q 1584 409 2034 409 
Q 2484 409 2743 651 
Q 3003 894 3003 1313 
Q 3003 1734 2745 1975 
Q 2488 2216 2034 2216 
z
M 1403 2484 
Q 997 2584 770 2862 
Q 544 3141 544 3541 
Q 544 4100 942 4425 
Q 1341 4750 2034 4750 
Q 2731 4750 3128 4425 
Q 3525 4100 3525 3541 
Q 3525 3141 3298 2862 
Q 3072 2584 2669 2484 
Q 3125 2378 3379 2068 
Q 3634 1759 3634 1313 
Q 3634 634 3220 271 
Q 2806 -91 2034 -91 
Q 1263 -91 848 271 
Q 434 634 434 1313 
Q 434 1759 690 2068 
Q 947 2378 1403 2484 
z
M 1172 3481 
Q 1172 3119 1398 2916 
Q 1625 2713 2034 2713 
Q 2441 2713 2670 2916 
Q 2900 3119 2900 3481 
Q 2900 3844 2670 4047 
Q 2441 4250 2034 4250 
Q 1625 4250 1398 4047 
Q 1172 3844 1172 3481 
z
" transform="scale(0.015625)"/>
       </defs>
       <use xlink:href="#DejaVuSans-31"/>
       <use xlink:href="#DejaVuSans-32" transform="translate(63.623047 0)"/>
       <use xlink:href="#DejaVuSans-38" transform="translate(127.246094 0)"/>
      </g>
     </g>
    </g>
    <g id="xtick_5">
     <g id="line2d_5">
      <path d="M 67.682982 301.735725 
L 67.682982 35.623725 
" clip-path="url(#pace463cf22)" style="fill: none; stroke: #cccccc; stroke-width: 0.8; stroke-linecap: round"/>
     </g>
     <g id="text_5">
      <!-- 4 -->
      <g style="fill: #262626" transform="translate(64.501732 316.334162) scale(0.1 -0.1)">
       <use xlink:href="#DejaVuSans-34"/>
      </g>
     </g>
    </g>
    <g id="xtick_6">
     <g id="line2d_6">
      <path d="M 98.359002 301.735725 
L 98.359002 35.623725 
" clip-path="url(#pace463cf22)" style="fill: none; stroke: #cccccc; stroke-width: 0.8; stroke-linecap: round"/>
     </g>
     <g id="text_6">
      <!-- 16 -->
      <g style="fill: #262626" transform="translate(91.996502 316.334162) scale(0.1 -0.1)">
       <use xlink:href="#DejaVuSans-31"/>
       <use xlink:href="#DejaVuSans-36" transform="translate(63.623047 0)"/>
      </g>
     </g>
    </g>
    <g id="xtick_7">
     <g id="line2d_7">
      <path d="M 77.908322 301.735725 
L 77.908322 35.623725 
" clip-path="url(#pace463cf22)" style="fill: none; stroke: #cccccc; stroke-width: 0.8; stroke-linecap: round"/>
     </g>
     <g id="text_7">
      <!-- 8 -->
      <g style="fill: #262626" transform="translate(74.727072 316.334162) scale(0.1 -0.1)">
       <use xlink:href="#DejaVuSans-38"/>
      </g>
     </g>
    </g>
    <g id="text_8">
     <!-- IO Depth -->
     <g style="fill: #262626" transform="translate(200.111563 330.012287) scale(0.1 -0.1)">
      <defs>
       <path id="DejaVuSans-49" d="M 628 4666 
L 1259 4666 
L 1259 0 
L 628 0 
L 628 4666 
z
" transform="scale(0.015625)"/>
       <path id="DejaVuSans-4f" d="M 2522 4238 
Q 1834 4238 1429 3725 
Q 1025 3213 1025 2328 
Q 1025 1447 1429 934 
Q 1834 422 2522 422 
Q 3209 422 3611 934 
Q 4013 1447 4013 2328 
Q 4013 3213 3611 3725 
Q 3209 4238 2522 4238 
z
M 2522 4750 
Q 3503 4750 4090 4092 
Q 4678 3434 4678 2328 
Q 4678 1225 4090 567 
Q 3503 -91 2522 -91 
Q 1538 -91 948 565 
Q 359 1222 359 2328 
Q 359 3434 948 4092 
Q 1538 4750 2522 4750 
z
" transform="scale(0.015625)"/>
       <path id="DejaVuSans-20" transform="scale(0.015625)"/>
       <path id="DejaVuSans-44" d="M 1259 4147 
L 1259 519 
L 2022 519 
Q 2988 519 3436 956 
Q 3884 1394 3884 2338 
Q 3884 3275 3436 3711 
Q 2988 4147 2022 4147 
L 1259 4147 
z
M 628 4666 
L 1925 4666 
Q 3281 4666 3915 4102 
Q 4550 3538 4550 2338 
Q 4550 1131 3912 565 
Q 3275 0 1925 0 
L 628 0 
L 628 4666 
z
" transform="scale(0.015625)"/>
       <path id="DejaVuSans-65" d="M 3597 1894 
L 3597 1613 
L 953 1613 
Q 991 1019 1311 708 
Q 1631 397 2203 397 
Q 2534 397 2845 478 
Q 3156 559 3463 722 
L 3463 178 
Q 3153 47 2828 -22 
Q 2503 -91 2169 -91 
Q 1331 -91 842 396 
Q 353 884 353 1716 
Q 353 2575 817 3079 
Q 1281 3584 2069 3584 
Q 2775 3584 3186 3129 
Q 3597 2675 3597 1894 
z
M 3022 2063 
Q 3016 2534 2758 2815 
Q 2500 3097 2075 3097 
Q 1594 3097 1305 2825 
Q 1016 2553 972 2059 
L 3022 2063 
z
" transform="scale(0.015625)"/>
       <path id="DejaVuSans-70" d="M 1159 525 
L 1159 -1331 
L 581 -1331 
L 581 3500 
L 1159 3500 
L 1159 2969 
Q 1341 3281 1617 3432 
Q 1894 3584 2278 3584 
Q 2916 3584 3314 3078 
Q 3713 2572 3713 1747 
Q 3713 922 3314 415 
Q 2916 -91 2278 -91 
Q 1894 -91 1617 61 
Q 1341 213 1159 525 
z
M 3116 1747 
Q 3116 2381 2855 2742 
Q 2594 3103 2138 3103 
Q 1681 3103 1420 2742 
Q 1159 2381 1159 1747 
Q 1159 1113 1420 752 
Q 1681 391 2138 391 
Q 2594 391 2855 752 
Q 3116 1113 3116 1747 
z
" transform="scale(0.015625)"/>
       <path id="DejaVuSans-74" d="M 1172 4494 
L 1172 3500 
L 2356 3500 
L 2356 3053 
L 1172 3053 
L 1172 1153 
Q 1172 725 1289 603 
Q 1406 481 1766 481 
L 2356 481 
L 2356 0 
L 1766 0 
Q 1100 0 847 248 
Q 594 497 594 1153 
L 594 3053 
L 172 3053 
L 172 3500 
L 594 3500 
L 594 4494 
L 1172 4494 
z
" transform="scale(0.015625)"/>
       <path id="DejaVuSans-68" d="M 3513 2113 
L 3513 0 
L 2938 0 
L 2938 2094 
Q 2938 2591 2744 2837 
Q 2550 3084 2163 3084 
Q 1697 3084 1428 2787 
Q 1159 2491 1159 1978 
L 1159 0 
L 581 0 
L 581 4863 
L 1159 4863 
L 1159 2956 
Q 1366 3272 1645 3428 
Q 1925 3584 2291 3584 
Q 2894 3584 3203 3211 
Q 3513 2838 3513 2113 
z
" transform="scale(0.015625)"/>
      </defs>
      <use xlink:href="#DejaVuSans-49"/>
      <use xlink:href="#DejaVuSans-4f" transform="translate(29.492188 0)"/>
      <use xlink:href="#DejaVuSans-20" transform="translate(108.203125 0)"/>
      <use xlink:href="#DejaVuSans-44" transform="translate(139.990234 0)"/>
      <use xlink:href="#DejaVuSans-65" transform="translate(216.992188 0)"/>
      <use xlink:href="#DejaVuSans-70" transform="translate(278.515625 0)"/>
      <use xlink:href="#DejaVuSans-74" transform="translate(341.992188 0)"/>
      <use xlink:href="#DejaVuSans-68" transform="translate(381.201172 0)"/>
     </g>
    </g>
   </g>
   <g id="matplotlib.axis_2">
    <g id="ytick_1">
     <g id="line2d_8">
      <path d="M 43.78125 256.733752 
L 400.90125 256.733752 
" clip-path="url(#pace463cf22)" style="fill: none; stroke: #cccccc; stroke-width: 0.8; stroke-linecap: round"/>
     </g>
     <g id="text_9">
      <!-- 3.0 -->
      <g style="fill: #262626" transform="translate(20.878125 260.532971) scale(0.1 -0.1)">
       <defs>
        <path id="DejaVuSans-2e" d="M 684 794 
L 1344 794 
L 1344 0 
L 684 0 
L 684 794 
z
" transform="scale(0.015625)"/>
        <path id="DejaVuSans-30" d="M 2034 4250 
Q 1547 4250 1301 3770 
Q 1056 3291 1056 2328 
Q 1056 1369 1301 889 
Q 1547 409 2034 409 
Q 2525 409 2770 889 
Q 3016 1369 3016 2328 
Q 3016 3291 2770 3770 
Q 2525 4250 2034 4250 
z
M 2034 4750 
Q 2819 4750 3233 4129 
Q 3647 3509 3647 2328 
Q 3647 1150 3233 529 
Q 2819 -91 2034 -91 
Q 1250 -91 836 529 
Q 422 1150 422 2328 
Q 422 3509 836 4129 
Q 1250 4750 2034 4750 
z
" transform="scale(0.015625)"/>
       </defs>
       <use xlink:href="#DejaVuSans-33"/>
       <use xlink:href="#DejaVuSans-2e" transform="translate(63.623047 0)"/>
       <use xlink:href="#DejaVuSans-30" transform="translate(95.410156 0)"/>
      </g>
     </g>
    </g>
    <g id="ytick_2">
     <g id="line2d_9">
      <path d="M 43.78125 199.132987 
L 400.90125 199.132987 
" clip-path="url(#pace463cf22)" style="fill: none; stroke: #cccccc; stroke-width: 0.8; stroke-linecap: round"/>
     </g>
     <g id="text_10">
      <!-- 3.5 -->
      <g style="fill: #262626" transform="translate(20.878125 202.932206) scale(0.1 -0.1)">
       <defs>
        <path id="DejaVuSans-35" d="M 691 4666 
L 3169 4666 
L 3169 4134 
L 1269 4134 
L 1269 2991 
Q 1406 3038 1543 3061 
Q 1681 3084 1819 3084 
Q 2600 3084 3056 2656 
Q 3513 2228 3513 1497 
Q 3513 744 3044 326 
Q 2575 -91 1722 -91 
Q 1428 -91 1123 -41 
Q 819 9 494 109 
L 494 744 
Q 775 591 1075 516 
Q 1375 441 1709 441 
Q 2250 441 2565 725 
Q 2881 1009 2881 1497 
Q 2881 1984 2565 2268 
Q 2250 2553 1709 2553 
Q 1456 2553 1204 2497 
Q 953 2441 691 2322 
L 691 4666 
z
" transform="scale(0.015625)"/>
       </defs>
       <use xlink:href="#DejaVuSans-33"/>
       <use xlink:href="#DejaVuSans-2e" transform="translate(63.623047 0)"/>
       <use xlink:href="#DejaVuSans-35" transform="translate(95.410156 0)"/>
      </g>
     </g>
    </g>
    <g id="ytick_3">
     <g id="line2d_10">
      <path d="M 43.78125 141.532222 
L 400.90125 141.532222 
" clip-path="url(#pace463cf22)" style="fill: none; stroke: #cccccc; stroke-width: 0.8; stroke-linecap: round"/>
     </g>
     <g id="text_11">
      <!-- 4.0 -->
      <g style="fill: #262626" transform="translate(20.878125 145.331441) scale(0.1 -0.1)">
       <use xlink:href="#DejaVuSans-34"/>
       <use xlink:href="#DejaVuSans-2e" transform="translate(63.623047 0)"/>
       <use xlink:href="#DejaVuSans-30" transform="translate(95.410156 0)"/>
      </g>
     </g>
    </g>
    <g id="ytick_4">
     <g id="line2d_11">
      <path d="M 43.78125 83.931457 
L 400.90125 83.931457 
" clip-path="url(#pace463cf22)" style="fill: none; stroke: #cccccc; stroke-width: 0.8; stroke-linecap: round"/>
     </g>
     <g id="text_12">
      <!-- 4.5 -->
      <g style="fill: #262626" transform="translate(20.878125 87.730676) scale(0.1 -0.1)">
       <use xlink:href="#DejaVuSans-34"/>
       <use xlink:href="#DejaVuSans-2e" transform="translate(63.623047 0)"/>
       <use xlink:href="#DejaVuSans-35" transform="translate(95.410156 0)"/>
      </g>
     </g>
    </g>
    <g id="text_13">
     <!-- Mean Bandwidth (GiB/s) -->
     <g style="fill: #262626" transform="translate(14.798438 228.984412) rotate(-90) scale(0.1 -0.1)">
      <defs>
       <path id="DejaVuSans-4d" d="M 628 4666 
L 1569 4666 
L 2759 1491 
L 3956 4666 
L 4897 4666 
L 4897 0 
L 4281 0 
L 4281 4097 
L 3078 897 
L 2444 897 
L 1241 4097 
L 1241 0 
L 628 0 
L 628 4666 
z
" transform="scale(0.015625)"/>
       <path id="DejaVuSans-61" d="M 2194 1759 
Q 1497 1759 1228 1600 
Q 959 1441 959 1056 
Q 959 750 1161 570 
Q 1363 391 1709 391 
Q 2188 391 2477 730 
Q 2766 1069 2766 1631 
L 2766 1759 
L 2194 1759 
z
M 3341 1997 
L 3341 0 
L 2766 0 
L 2766 531 
Q 2569 213 2275 61 
Q 1981 -91 1556 -91 
Q 1019 -91 701 211 
Q 384 513 384 1019 
Q 384 1609 779 1909 
Q 1175 2209 1959 2209 
L 2766 2209 
L 2766 2266 
Q 2766 2663 2505 2880 
Q 2244 3097 1772 3097 
Q 1472 3097 1187 3025 
Q 903 2953 641 2809 
L 641 3341 
Q 956 3463 1253 3523 
Q 1550 3584 1831 3584 
Q 2591 3584 2966 3190 
Q 3341 2797 3341 1997 
z
" transform="scale(0.015625)"/>
       <path id="DejaVuSans-6e" d="M 3513 2113 
L 3513 0 
L 2938 0 
L 2938 2094 
Q 2938 2591 2744 2837 
Q 2550 3084 2163 3084 
Q 1697 3084 1428 2787 
Q 1159 2491 1159 1978 
L 1159 0 
L 581 0 
L 581 3500 
L 1159 3500 
L 1159 2956 
Q 1366 3272 1645 3428 
Q 1925 3584 2291 3584 
Q 2894 3584 3203 3211 
Q 3513 2838 3513 2113 
z
" transform="scale(0.015625)"/>
       <path id="DejaVuSans-42" d="M 1259 2228 
L 1259 519 
L 2272 519 
Q 2781 519 3026 730 
Q 3272 941 3272 1375 
Q 3272 1813 3026 2020 
Q 2781 2228 2272 2228 
L 1259 2228 
z
M 1259 4147 
L 1259 2741 
L 2194 2741 
Q 2656 2741 2882 2914 
Q 3109 3088 3109 3444 
Q 3109 3797 2882 3972 
Q 2656 4147 2194 4147 
L 1259 4147 
z
M 628 4666 
L 2241 4666 
Q 2963 4666 3353 4366 
Q 3744 4066 3744 3513 
Q 3744 3084 3544 2831 
Q 3344 2578 2956 2516 
Q 3422 2416 3680 2098 
Q 3938 1781 3938 1306 
Q 3938 681 3513 340 
Q 3088 0 2303 0 
L 628 0 
L 628 4666 
z
" transform="scale(0.015625)"/>
       <path id="DejaVuSans-64" d="M 2906 2969 
L 2906 4863 
L 3481 4863 
L 3481 0 
L 2906 0 
L 2906 525 
Q 2725 213 2448 61 
Q 2172 -91 1784 -91 
Q 1150 -91 751 415 
Q 353 922 353 1747 
Q 353 2572 751 3078 
Q 1150 3584 1784 3584 
Q 2172 3584 2448 3432 
Q 2725 3281 2906 2969 
z
M 947 1747 
Q 947 1113 1208 752 
Q 1469 391 1925 391 
Q 2381 391 2643 752 
Q 2906 1113 2906 1747 
Q 2906 2381 2643 2742 
Q 2381 3103 1925 3103 
Q 1469 3103 1208 2742 
Q 947 2381 947 1747 
z
" transform="scale(0.015625)"/>
       <path id="DejaVuSans-77" d="M 269 3500 
L 844 3500 
L 1563 769 
L 2278 3500 
L 2956 3500 
L 3675 769 
L 4391 3500 
L 4966 3500 
L 4050 0 
L 3372 0 
L 2619 2869 
L 1863 0 
L 1184 0 
L 269 3500 
z
" transform="scale(0.015625)"/>
       <path id="DejaVuSans-69" d="M 603 3500 
L 1178 3500 
L 1178 0 
L 603 0 
L 603 3500 
z
M 603 4863 
L 1178 4863 
L 1178 4134 
L 603 4134 
L 603 4863 
z
" transform="scale(0.015625)"/>
       <path id="DejaVuSans-28" d="M 1984 4856 
Q 1566 4138 1362 3434 
Q 1159 2731 1159 2009 
Q 1159 1288 1364 580 
Q 1569 -128 1984 -844 
L 1484 -844 
Q 1016 -109 783 600 
Q 550 1309 550 2009 
Q 550 2706 781 3412 
Q 1013 4119 1484 4856 
L 1984 4856 
z
" transform="scale(0.015625)"/>
       <path id="DejaVuSans-47" d="M 3809 666 
L 3809 1919 
L 2778 1919 
L 2778 2438 
L 4434 2438 
L 4434 434 
Q 4069 175 3628 42 
Q 3188 -91 2688 -91 
Q 1594 -91 976 548 
Q 359 1188 359 2328 
Q 359 3472 976 4111 
Q 1594 4750 2688 4750 
Q 3144 4750 3555 4637 
Q 3966 4525 4313 4306 
L 4313 3634 
Q 3963 3931 3569 4081 
Q 3175 4231 2741 4231 
Q 1884 4231 1454 3753 
Q 1025 3275 1025 2328 
Q 1025 1384 1454 906 
Q 1884 428 2741 428 
Q 3075 428 3337 486 
Q 3600 544 3809 666 
z
" transform="scale(0.015625)"/>
       <path id="DejaVuSans-2f" d="M 1625 4666 
L 2156 4666 
L 531 -594 
L 0 -594 
L 1625 4666 
z
" transform="scale(0.015625)"/>
       <path id="DejaVuSans-73" d="M 2834 3397 
L 2834 2853 
Q 2591 2978 2328 3040 
Q 2066 3103 1784 3103 
Q 1356 3103 1142 2972 
Q 928 2841 928 2578 
Q 928 2378 1081 2264 
Q 1234 2150 1697 2047 
L 1894 2003 
Q 2506 1872 2764 1633 
Q 3022 1394 3022 966 
Q 3022 478 2636 193 
Q 2250 -91 1575 -91 
Q 1294 -91 989 -36 
Q 684 19 347 128 
L 347 722 
Q 666 556 975 473 
Q 1284 391 1588 391 
Q 1994 391 2212 530 
Q 2431 669 2431 922 
Q 2431 1156 2273 1281 
Q 2116 1406 1581 1522 
L 1381 1569 
Q 847 1681 609 1914 
Q 372 2147 372 2553 
Q 372 3047 722 3315 
Q 1072 3584 1716 3584 
Q 2034 3584 2315 3537 
Q 2597 3491 2834 3397 
z
" transform="scale(0.015625)"/>
       <path id="DejaVuSans-29" d="M 513 4856 
L 1013 4856 
Q 1481 4119 1714 3412 
Q 1947 2706 1947 2009 
Q 1947 1309 1714 600 
Q 1481 -109 1013 -844 
L 513 -844 
Q 928 -128 1133 580 
Q 1338 1288 1338 2009 
Q 1338 2731 1133 3434 
Q 928 4138 513 4856 
z
" transform="scale(0.015625)"/>
      </defs>
      <use xlink:href="#DejaVuSans-4d"/>
      <use xlink:href="#DejaVuSans-65" transform="translate(86.279297 0)"/>
      <use xlink:href="#DejaVuSans-61" transform="translate(147.802734 0)"/>
      <use xlink:href="#DejaVuSans-6e" transform="translate(209.082031 0)"/>
      <use xlink:href="#DejaVuSans-20" transform="translate(272.460938 0)"/>
      <use xlink:href="#DejaVuSans-42" transform="translate(304.248047 0)"/>
      <use xlink:href="#DejaVuSans-61" transform="translate(372.851562 0)"/>
      <use xlink:href="#DejaVuSans-6e" transform="translate(434.130859 0)"/>
      <use xlink:href="#DejaVuSans-64" transform="translate(497.509766 0)"/>
      <use xlink:href="#DejaVuSans-77" transform="translate(560.986328 0)"/>
      <use xlink:href="#DejaVuSans-69" transform="translate(642.773438 0)"/>
      <use xlink:href="#DejaVuSans-64" transform="translate(670.556641 0)"/>
      <use xlink:href="#DejaVuSans-74" transform="translate(734.033203 0)"/>
      <use xlink:href="#DejaVuSans-68" transform="translate(773.242188 0)"/>
      <use xlink:href="#DejaVuSans-20" transform="translate(836.621094 0)"/>
      <use xlink:href="#DejaVuSans-28" transform="translate(868.408203 0)"/>
      <use xlink:href="#DejaVuSans-47" transform="translate(907.421875 0)"/>
      <use xlink:href="#DejaVuSans-69" transform="translate(984.912109 0)"/>
      <use xlink:href="#DejaVuSans-42" transform="translate(1012.695312 0)"/>
      <use xlink:href="#DejaVuSans-2f" transform="translate(1081.298828 0)"/>
      <use xlink:href="#DejaVuSans-73" transform="translate(1114.990234 0)"/>
      <use xlink:href="#DejaVuSans-29" transform="translate(1167.089844 0)"/>
     </g>
    </g>
   </g>
   <g id="FillBetweenPolyCollection_1"/>
   <g id="FillBetweenPolyCollection_2"/>
   <g id="FillBetweenPolyCollection_3"/>
   <g id="FillBetweenPolyCollection_4"/>
   <g id="line2d_12">
    <path d="M 60.013977 190.984681 
L 67.682982 47.719725 
L 77.908322 151.259799 
L 98.359002 134.861932 
L 139.260362 173.862824 
L 221.063082 149.605976 
L 384.668523 149.741497 
" clip-path="url(#pace463cf22)" style="fill: none; stroke: #3b0f70; stroke-width: 1.5; stroke-linecap: round"/>
   </g>
   <g id="line2d_13">
    <path d="M 60.013977 165.829256 
L 67.682982 185.147533 
L 77.908322 195.769849 
L 98.359002 140.621844 
L 139.260362 198.786794 
L 221.063082 200.593277 
L 384.668523 212.394904 
" clip-path="url(#pace463cf22)" style="fill: none; stroke: #8c2981; stroke-width: 1.5; stroke-linecap: round"/>
   </g>
   <g id="line2d_14">
    <path d="M 60.013977 215.844272 
L 67.682982 239.129438 
L 77.908322 289.639725 
L 98.359002 207.564156 
L 139.260362 210.018374 
L 221.063082 252.637218 
L 384.668523 270.773351 
" clip-path="url(#pace463cf22)" style="fill: none; stroke: #de4968; stroke-width: 1.5; stroke-linecap: round"/>
   </g>
   <g id="line2d_15">
    <path d="M 60.013977 214.672849 
L 67.682982 156.060471 
L 77.908322 195.350839 
L 98.359002 184.666779 
L 139.260362 186.66701 
L 221.063082 199.512802 
L 384.668523 106.866642 
" clip-path="url(#pace463cf22)" style="fill: none; stroke: #fe9f6d; stroke-width: 1.5; stroke-linecap: round"/>
   </g>
   <g id="line2d_16"/>
   <g id="line2d_17"/>
   <g id="line2d_18"/>
   <g id="line2d_19"/>
   <g id="text_14">
    <path d="M 120.88038 159.003205 
L 122.046248 160.114902 
L 125.884891 156.089206 
L 124.373508 155.133819 
L 124.993513 154.483602 
L 126.498112 155.432519 
L 127.211655 156.112907 
L 122.753007 160.788821 
L 123.918875 161.900518 
L 123.346314 162.500979 
L 120.307818 159.603666 
L 120.88038 159.003205 
z
M 129.190143 162.494466 
Q 128.709547 162.036201 128.114198 162.096779 
Q 127.521058 162.157304 126.975453 162.729495 
Q 126.433083 163.298294 126.397591 163.897034 
Q 126.364309 164.49572 126.844904 164.953985 
Q 127.3255 165.41225 127.920797 165.349464 
Q 128.517172 165.285547 129.059542 164.716748 
Q 129.605147 164.144556 129.637403 163.549209 
Q 129.670738 162.952731 129.190143 162.494466 
z
M 132.740949 161.60766 
L 132.120944 162.257877 
Q 131.972576 161.874598 131.762537 161.546938 
Q 131.553577 161.218148 131.284443 160.96152 
Q 130.577685 160.287601 129.749486 160.408975 
Q 128.922419 160.531427 127.949506 161.445332 
Q 128.450865 161.336153 128.92158 161.471944 
Q 129.393426 161.608813 129.771118 161.968956 
Q 130.56608 162.72698 130.56703 163.649772 
Q 130.569059 164.571432 129.777608 165.401449 
Q 129.002332 166.214504 128.052688 166.248143 
Q 127.104123 166.280651 126.305769 165.519392 
Q 125.38981 164.645993 125.57435 163.483389 
Q 125.759968 162.319654 127.03017 160.987556 
Q 128.222737 159.736876 129.525917 159.558893 
Q 130.829096 159.38091 131.828735 160.334101 
Q 132.097868 160.590729 132.320846 160.904819 
Q 132.543824 161.218909 132.740949 161.60766 
z
" clip-path="url(#pace463cf22)" style="fill: #3b0f70; stroke: #ffffff; stroke-width: 5"/>
    <path d="M 120.88038 159.003205 
L 122.046248 160.114902 
L 125.884891 156.089206 
L 124.373508 155.133819 
L 124.993513 154.483602 
L 126.498112 155.432519 
L 127.211655 156.112907 
L 122.753007 160.788821 
L 123.918875 161.900518 
L 123.346314 162.500979 
L 120.307818 159.603666 
L 120.88038 159.003205 
z
M 129.190143 162.494466 
Q 128.709547 162.036201 128.114198 162.096779 
Q 127.521058 162.157304 126.975453 162.729495 
Q 126.433083 163.298294 126.397591 163.897034 
Q 126.364309 164.49572 126.844904 164.953985 
Q 127.3255 165.41225 127.920797 165.349464 
Q 128.517172 165.285547 129.059542 164.716748 
Q 129.605147 164.144556 129.637403 163.549209 
Q 129.670738 162.952731 129.190143 162.494466 
z
M 132.740949 161.60766 
L 132.120944 162.257877 
Q 131.972576 161.874598 131.762537 161.546938 
Q 131.553577 161.218148 131.284443 160.96152 
Q 130.577685 160.287601 129.749486 160.408975 
Q 128.922419 160.531427 127.949506 161.445332 
Q 128.450865 161.336153 128.92158 161.471944 
Q 129.393426 161.608813 129.771118 161.968956 
Q 130.56608 162.72698 130.56703 163.649772 
Q 130.569059 164.571432 129.777608 165.401449 
Q 129.002332 166.214504 128.052688 166.248143 
Q 127.104123 166.280651 126.305769 165.519392 
Q 125.38981 164.645993 125.57435 163.483389 
Q 125.759968 162.319654 127.03017 160.987556 
Q 128.222737 159.736876 129.525917 159.558893 
Q 130.829096 159.38091 131.828735 160.334101 
Q 132.097868 160.590729 132.320846 160.904819 
Q 132.543824 161.218909 132.740949 161.60766 
z
" clip-path="url(#pace463cf22)" style="fill: #3b0f70"/>
   </g>
   <g id="text_15">
    <path d="M 187.922197 198.689253 
Q 188.626491 198.856406 189.012678 199.344738 
Q 189.400463 199.831544 189.384939 200.534497 
Q 189.361136 201.612359 188.606055 202.188016 
Q 187.851009 202.762111 186.484155 202.731927 
Q 186.026454 202.721819 185.542636 202.620488 
Q 185.058817 202.519156 184.545758 202.326532 
L 184.566766 201.375201 
Q 184.970763 201.623244 185.455454 201.755852 
Q 185.941706 201.888495 186.474389 201.900258 
Q 187.400726 201.920715 187.894617 201.565908 
Q 188.388508 201.2111 188.403928 200.512833 
Q 188.418176 199.867678 187.974726 199.495297 
Q 187.531312 199.121353 186.72682 199.103587 
L 185.877028 199.084821 
L 185.894931 198.274081 
L 186.783777 198.29371 
Q 187.510163 198.309751 187.902423 198.027718 
Q 188.294682 197.745684 188.306756 197.198942 
Q 188.319141 196.638142 187.927424 196.329418 
Q 187.537303 196.019167 186.795297 196.002781 
Q 186.389146 195.993812 185.92323 196.072607 
Q 185.457349 196.14984 184.897164 196.321889 
L 184.916551 195.443978 
Q 185.482364 195.300185 185.974594 195.232911 
Q 186.466824 195.165637 186.901093 195.175227 
Q 188.024257 195.200031 188.665942 195.725263 
Q 189.309224 196.248968 189.290044 197.117507 
Q 189.276659 197.723609 188.920658 198.133036 
Q 188.564657 198.542464 187.922197 198.689253 
z
M 192.075933 201.8833 
L 195.517282 201.959297 
L 195.498964 202.788782 
L 190.871967 202.686602 
L 190.890285 201.857117 
Q 191.463919 201.288393 192.454027 200.331895 
Q 193.445733 199.373869 193.700388 199.095048 
Q 194.185439 198.57438 194.381035 198.209859 
Q 194.578193 197.845373 194.586058 197.48921 
Q 194.598891 196.908102 194.19925 196.533562 
Q 193.799644 196.157461 193.145116 196.143006 
Q 192.681166 196.132761 192.162114 196.282275 
Q 191.644624 196.431824 191.051585 196.746933 
L 191.073594 195.750301 
Q 191.674039 195.52444 192.193791 195.414013 
Q 192.715105 195.303621 193.144688 195.313107 
Q 194.277225 195.338118 194.937976 195.920035 
Q 195.598761 196.50039 195.577856 197.447034 
Q 195.567921 197.896925 195.390312 198.296226 
Q 195.214299 198.693999 194.757021 199.230909 
Q 194.632037 199.370371 193.962572 200.032315 
Q 193.294669 200.694293 192.075933 201.8833 
z
" clip-path="url(#pace463cf22)" style="fill: #8c2981; stroke: #ffffff; stroke-width: 5"/>
    <path d="M 187.922197 198.689253 
Q 188.626491 198.856406 189.012678 199.344738 
Q 189.400463 199.831544 189.384939 200.534497 
Q 189.361136 201.612359 188.606055 202.188016 
Q 187.851009 202.762111 186.484155 202.731927 
Q 186.026454 202.721819 185.542636 202.620488 
Q 185.058817 202.519156 184.545758 202.326532 
L 184.566766 201.375201 
Q 184.970763 201.623244 185.455454 201.755852 
Q 185.941706 201.888495 186.474389 201.900258 
Q 187.400726 201.920715 187.894617 201.565908 
Q 188.388508 201.2111 188.403928 200.512833 
Q 188.418176 199.867678 187.974726 199.495297 
Q 187.531312 199.121353 186.72682 199.103587 
L 185.877028 199.084821 
L 185.894931 198.274081 
L 186.783777 198.29371 
Q 187.510163 198.309751 187.902423 198.027718 
Q 188.294682 197.745684 188.306756 197.198942 
Q 188.319141 196.638142 187.927424 196.329418 
Q 187.537303 196.019167 186.795297 196.002781 
Q 186.389146 195.993812 185.92323 196.072607 
Q 185.457349 196.14984 184.897164 196.321889 
L 184.916551 195.443978 
Q 185.482364 195.300185 185.974594 195.232911 
Q 186.466824 195.165637 186.901093 195.175227 
Q 188.024257 195.200031 188.665942 195.725263 
Q 189.309224 196.248968 189.290044 197.117507 
Q 189.276659 197.723609 188.920658 198.133036 
Q 188.564657 198.542464 187.922197 198.689253 
z
M 192.075933 201.8833 
L 195.517282 201.959297 
L 195.498964 202.788782 
L 190.871967 202.686602 
L 190.890285 201.857117 
Q 191.463919 201.288393 192.454027 200.331895 
Q 193.445733 199.373869 193.700388 199.095048 
Q 194.185439 198.57438 194.381035 198.209859 
Q 194.578193 197.845373 194.586058 197.48921 
Q 194.598891 196.908102 194.19925 196.533562 
Q 193.799644 196.157461 193.145116 196.143006 
Q 192.681166 196.132761 192.162114 196.282275 
Q 191.644624 196.431824 191.051585 196.746933 
L 191.073594 195.750301 
Q 191.674039 195.52444 192.193791 195.414013 
Q 192.715105 195.303621 193.144688 195.313107 
Q 194.277225 195.338118 194.937976 195.920035 
Q 195.598761 196.50039 195.577856 197.447034 
Q 195.567921 197.896925 195.390312 198.296226 
Q 195.214299 198.693999 194.757021 199.230909 
Q 194.632037 199.370371 193.962572 200.032315 
Q 193.294669 200.694293 192.075933 201.8833 
z
" clip-path="url(#pace463cf22)" style="fill: #8c2981"/>
   </g>
   <g id="text_16">
    <path d="M 251.580569 254.734215 
Q 250.92055 254.66105 250.483759 255.070103 
Q 250.048694 255.477775 249.961584 256.263587 
Q 249.874991 257.04474 250.209691 257.542459 
Q 250.546117 258.038797 251.206136 258.111962 
Q 251.866156 258.185127 252.301565 257.774349 
Q 252.737147 257.362018 252.82374 256.580865 
Q 252.910849 255.795054 252.575633 255.301993 
Q 252.240589 254.80738 251.580569 254.734215 
z
M 253.867153 251.876561 
L 253.768165 252.769529 
Q 253.417835 252.554622 253.052169 252.421334 
Q 252.686676 252.286494 252.317065 252.245522 
Q 251.346448 252.137926 250.761313 252.736476 
Q 250.177732 253.335198 249.957895 254.651805 
Q 250.29047 254.261069 250.747163 254.083744 
Q 251.205408 253.906592 251.724106 253.964091 
Q 252.815856 254.085115 253.375966 254.818479 
Q 253.936247 255.55029 253.809887 256.690182 
Q 253.686109 257.80678 252.951203 258.409165 
Q 252.216469 259.009996 251.12006 258.888456 
Q 249.86214 258.749012 249.304196 257.712478 
Q 248.746425 256.674392 248.949221 254.844973 
Q 249.139622 253.127369 250.068217 252.195883 
Q 250.996813 251.264398 252.369653 251.416581 
Q 252.739264 251.457554 253.106996 251.572205 
Q 253.474728 251.686857 253.867153 251.876561 
z
M 258.643092 253.108703 
L 255.738797 256.702782 
L 258.214259 256.977195 
L 258.643092 253.108703 
z
M 258.47998 252.225983 
L 259.713052 252.362672 
L 259.189535 257.085307 
L 260.223824 257.199961 
L 260.133444 258.015279 
L 259.099154 257.900625 
L 258.909786 259.608911 
L 257.93451 259.500799 
L 258.123878 257.792513 
L 254.853287 257.429958 
L 254.958128 256.484189 
L 258.47998 252.225983 
z
" clip-path="url(#pace463cf22)" style="fill: #de4968; stroke: #ffffff; stroke-width: 5"/>
    <path d="M 251.580569 254.734215 
Q 250.92055 254.66105 250.483759 255.070103 
Q 250.048694 255.477775 249.961584 256.263587 
Q 249.874991 257.04474 250.209691 257.542459 
Q 250.546117 258.038797 251.206136 258.111962 
Q 251.866156 258.185127 252.301565 257.774349 
Q 252.737147 257.362018 252.82374 256.580865 
Q 252.910849 255.795054 252.575633 255.301993 
Q 252.240589 254.80738 251.580569 254.734215 
z
M 253.867153 251.876561 
L 253.768165 252.769529 
Q 253.417835 252.554622 253.052169 252.421334 
Q 252.686676 252.286494 252.317065 252.245522 
Q 251.346448 252.137926 250.761313 252.736476 
Q 250.177732 253.335198 249.957895 254.651805 
Q 250.29047 254.261069 250.747163 254.083744 
Q 251.205408 253.906592 251.724106 253.964091 
Q 252.815856 254.085115 253.375966 254.818479 
Q 253.936247 255.55029 253.809887 256.690182 
Q 253.686109 257.80678 252.951203 258.409165 
Q 252.216469 259.009996 251.12006 258.888456 
Q 249.86214 258.749012 249.304196 257.712478 
Q 248.746425 256.674392 248.949221 254.844973 
Q 249.139622 253.127369 250.068217 252.195883 
Q 250.996813 251.264398 252.369653 251.416581 
Q 252.739264 251.457554 253.106996 251.572205 
Q 253.474728 251.686857 253.867153 251.876561 
z
M 258.643092 253.108703 
L 255.738797 256.702782 
L 258.214259 256.977195 
L 258.643092 253.108703 
z
M 258.47998 252.225983 
L 259.713052 252.362672 
L 259.189535 257.085307 
L 260.223824 257.199961 
L 260.133444 258.015279 
L 259.099154 257.900625 
L 258.909786 259.608911 
L 257.93451 259.500799 
L 258.123878 257.792513 
L 254.853287 257.429958 
L 254.958128 256.484189 
L 258.47998 252.225983 
z
" clip-path="url(#pace463cf22)" style="fill: #de4968"/>
   </g>
   <g id="text_17">
    <path d="M 312.489409 149.957691 
L 313.891194 149.163891 
L 311.150236 144.323586 
L 309.797959 145.493368 
L 309.355248 144.711577 
L 310.699367 143.546414 
L 311.557297 143.060587 
L 314.740967 148.682683 
L 316.142752 147.888883 
L 316.551586 148.61085 
L 312.898243 150.679658 
L 312.489409 149.957691 
z
M 318.61576 146.488473 
L 321.611039 144.792313 
L 322.019873 145.51428 
L 317.99263 147.794818 
L 317.583796 147.072852 
Q 317.785491 146.290661 318.146488 144.962171 
Q 318.508075 143.631551 318.584129 143.261678 
Q 318.734322 142.566112 318.715774 142.152846 
Q 318.698586 141.738811 318.523042 141.428813 
Q 318.236627 140.923029 317.701598 140.805826 
Q 317.165799 140.687264 316.596111 141.009865 
Q 316.192299 141.238535 315.822922 141.632655 
Q 315.454905 142.026006 315.106727 142.600254 
L 314.61551 141.732806 
Q 315.015732 141.231437 315.405717 140.870538 
Q 315.797062 140.508869 316.170962 140.297138 
Q 317.156698 139.738937 318.022186 139.900644 
Q 318.886905 140.060992 319.353484 140.884931 
Q 319.575224 141.276507 319.627026 141.710445 
Q 319.679418 142.142255 319.561398 142.837558 
Q 319.52541 143.02134 319.289103 143.932664 
Q 319.054155 144.843218 318.61576 146.488473 
z
M 323.95056 140.441853 
Q 323.338724 140.788323 323.173491 141.314638 
Q 323.009619 141.840183 323.33376 142.412589 
Q 323.658671 142.986356 324.193651 143.116156 
Q 324.729991 143.245186 325.341828 142.898716 
Q 325.953664 142.552247 326.119486 142.023802 
Q 326.285898 141.493228 325.963297 140.923541 
Q 325.639155 140.351134 325.102815 140.222104 
Q 324.567835 140.092304 323.95056 140.441853 
z
M 322.886288 140.563298 
Q 322.257282 140.739927 321.734604 140.536723 
Q 321.212515 140.331389 320.904542 139.787534 
Q 320.47415 139.027498 320.765057 138.279183 
Q 321.057324 137.530098 321.999552 136.996535 
Q 322.947219 136.459892 323.737222 136.596111 
Q 324.527226 136.73233 324.957618 137.492367 
Q 325.265591 138.036221 325.171764 138.590334 
Q 325.078528 139.142318 324.607588 139.588564 
Q 325.309194 139.381596 325.893221 139.607521 
Q 326.477837 139.831316 326.821227 140.437714 
Q 327.344011 141.360907 327.060607 142.173207 
Q 326.776433 142.984147 325.726794 143.578534 
Q 324.678514 144.172152 323.83555 143.999485 
Q 322.993175 143.824689 322.470391 142.901496 
Q 322.127001 142.295099 322.237159 141.677868 
Q 322.347907 141.058509 322.886288 140.563298 
z
M 321.80459 139.385595 
Q 322.083305 139.877783 322.546879 139.979785 
Q 323.011813 140.081016 323.567904 139.766114 
Q 324.121276 139.452752 324.276337 139.000431 
Q 324.432757 138.547341 324.154041 138.055152 
Q 323.874556 137.561604 323.405543 137.462683 
Q 322.93789 137.362991 322.384518 137.676353 
Q 321.828427 137.991255 321.676086 138.442036 
Q 321.525104 138.892047 321.80459 139.385595 
z
" clip-path="url(#pace463cf22)" style="fill: #fe9f6d; stroke: #ffffff; stroke-width: 5"/>
    <path d="M 312.489409 149.957691 
L 313.891194 149.163891 
L 311.150236 144.323586 
L 309.797959 145.493368 
L 309.355248 144.711577 
L 310.699367 143.546414 
L 311.557297 143.060587 
L 314.740967 148.682683 
L 316.142752 147.888883 
L 316.551586 148.61085 
L 312.898243 150.679658 
L 312.489409 149.957691 
z
M 318.61576 146.488473 
L 321.611039 144.792313 
L 322.019873 145.51428 
L 317.99263 147.794818 
L 317.583796 147.072852 
Q 317.785491 146.290661 318.146488 144.962171 
Q 318.508075 143.631551 318.584129 143.261678 
Q 318.734322 142.566112 318.715774 142.152846 
Q 318.698586 141.738811 318.523042 141.428813 
Q 318.236627 140.923029 317.701598 140.805826 
Q 317.165799 140.687264 316.596111 141.009865 
Q 316.192299 141.238535 315.822922 141.632655 
Q 315.454905 142.026006 315.106727 142.600254 
L 314.61551 141.732806 
Q 315.015732 141.231437 315.405717 140.870538 
Q 315.797062 140.508869 316.170962 140.297138 
Q 317.156698 139.738937 318.022186 139.900644 
Q 318.886905 140.060992 319.353484 140.884931 
Q 319.575224 141.276507 319.627026 141.710445 
Q 319.679418 142.142255 319.561398 142.837558 
Q 319.52541 143.02134 319.289103 143.932664 
Q 319.054155 144.843218 318.61576 146.488473 
z
M 323.95056 140.441853 
Q 323.338724 140.788323 323.173491 141.314638 
Q 323.009619 141.840183 323.33376 142.412589 
Q 323.658671 142.986356 324.193651 143.116156 
Q 324.729991 143.245186 325.341828 142.898716 
Q 325.953664 142.552247 326.119486 142.023802 
Q 326.285898 141.493228 325.963297 140.923541 
Q 325.639155 140.351134 325.102815 140.222104 
Q 324.567835 140.092304 323.95056 140.441853 
z
M 322.886288 140.563298 
Q 322.257282 140.739927 321.734604 140.536723 
Q 321.212515 140.331389 320.904542 139.787534 
Q 320.47415 139.027498 320.765057 138.279183 
Q 321.057324 137.530098 321.999552 136.996535 
Q 322.947219 136.459892 323.737222 136.596111 
Q 324.527226 136.73233 324.957618 137.492367 
Q 325.265591 138.036221 325.171764 138.590334 
Q 325.078528 139.142318 324.607588 139.588564 
Q 325.309194 139.381596 325.893221 139.607521 
Q 326.477837 139.831316 326.821227 140.437714 
Q 327.344011 141.360907 327.060607 142.173207 
Q 326.776433 142.984147 325.726794 143.578534 
Q 324.678514 144.172152 323.83555 143.999485 
Q 322.993175 143.824689 322.470391 142.901496 
Q 322.127001 142.295099 322.237159 141.677868 
Q 322.347907 141.058509 322.886288 140.563298 
z
M 321.80459 139.385595 
Q 322.083305 139.877783 322.546879 139.979785 
Q 323.011813 140.081016 323.567904 139.766114 
Q 324.121276 139.452752 324.276337 139.000431 
Q 324.432757 138.547341 324.154041 138.055152 
Q 323.874556 137.561604 323.405543 137.462683 
Q 322.93789 137.362991 322.384518 137.676353 
Q 321.828427 137.991255 321.676086 138.442036 
Q 321.525104 138.892047 321.80459 139.385595 
z
" clip-path="url(#pace463cf22)" style="fill: #fe9f6d"/>
   </g>
   <g id="patch_3">
    <path d="M 43.78125 301.735725 
L 43.78125 35.623725 
" style="fill: none; stroke: #cccccc; stroke-width: 0.8; stroke-linejoin: miter; stroke-linecap: square"/>
   </g>
   <g id="patch_4">
    <path d="M 400.90125 301.735725 
L 400.90125 35.623725 
" style="fill: none; stroke: #cccccc; stroke-width: 0.8; stroke-linejoin: miter; stroke-linecap: square"/>
   </g>
   <g id="patch_5">
    <path d="M 43.78125 301.735725 
L 400.90125 301.735725 
" style="fill: none; stroke: #cccccc; stroke-width: 0.8; stroke-linejoin: miter; stroke-linecap: square"/>
   </g>
   <g id="patch_6">
    <path d="M 43.78125 35.623725 
L 400.90125 35.623725 
" style="fill: none; stroke: #cccccc; stroke-width: 0.8; stroke-linejoin: miter; stroke-linecap: square"/>
   </g>
   <g id="text_18">
    <!-- Block Size = 4M, Read-Write Type = Sequential Balanced 1:1 -->
    <g style="fill: #262626; opacity: 0.75" transform="translate(70.132656 30.882918) scale(0.1 -0.1)">
     <defs>
      <path id="DejaVuSans-6c" d="M 603 4863 
L 1178 4863 
L 1178 0 
L 603 0 
L 603 4863 
z
" transform="scale(0.015625)"/>
      <path id="DejaVuSans-6f" d="M 1959 3097 
Q 1497 3097 1228 2736 
Q 959 2375 959 1747 
Q 959 1119 1226 758 
Q 1494 397 1959 397 
Q 2419 397 2687 759 
Q 2956 1122 2956 1747 
Q 2956 2369 2687 2733 
Q 2419 3097 1959 3097 
z
M 1959 3584 
Q 2709 3584 3137 3096 
Q 3566 2609 3566 1747 
Q 3566 888 3137 398 
Q 2709 -91 1959 -91 
Q 1206 -91 779 398 
Q 353 888 353 1747 
Q 353 2609 779 3096 
Q 1206 3584 1959 3584 
z
" transform="scale(0.015625)"/>
      <path id="DejaVuSans-63" d="M 3122 3366 
L 3122 2828 
Q 2878 2963 2633 3030 
Q 2388 3097 2138 3097 
Q 1578 3097 1268 2742 
Q 959 2388 959 1747 
Q 959 1106 1268 751 
Q 1578 397 2138 397 
Q 2388 397 2633 464 
Q 2878 531 3122 666 
L 3122 134 
Q 2881 22 2623 -34 
Q 2366 -91 2075 -91 
Q 1284 -91 818 406 
Q 353 903 353 1747 
Q 353 2603 823 3093 
Q 1294 3584 2113 3584 
Q 2378 3584 2631 3529 
Q 2884 3475 3122 3366 
z
" transform="scale(0.015625)"/>
      <path id="DejaVuSans-6b" d="M 581 4863 
L 1159 4863 
L 1159 1991 
L 2875 3500 
L 3609 3500 
L 1753 1863 
L 3688 0 
L 2938 0 
L 1159 1709 
L 1159 0 
L 581 0 
L 581 4863 
z
" transform="scale(0.015625)"/>
      <path id="DejaVuSans-53" d="M 3425 4513 
L 3425 3897 
Q 3066 4069 2747 4153 
Q 2428 4238 2131 4238 
Q 1616 4238 1336 4038 
Q 1056 3838 1056 3469 
Q 1056 3159 1242 3001 
Q 1428 2844 1947 2747 
L 2328 2669 
Q 3034 2534 3370 2195 
Q 3706 1856 3706 1288 
Q 3706 609 3251 259 
Q 2797 -91 1919 -91 
Q 1588 -91 1214 -16 
Q 841 59 441 206 
L 441 856 
Q 825 641 1194 531 
Q 1563 422 1919 422 
Q 2459 422 2753 634 
Q 3047 847 3047 1241 
Q 3047 1584 2836 1778 
Q 2625 1972 2144 2069 
L 1759 2144 
Q 1053 2284 737 2584 
Q 422 2884 422 3419 
Q 422 4038 858 4394 
Q 1294 4750 2059 4750 
Q 2388 4750 2728 4690 
Q 3069 4631 3425 4513 
z
" transform="scale(0.015625)"/>
      <path id="DejaVuSans-7a" d="M 353 3500 
L 3084 3500 
L 3084 2975 
L 922 459 
L 3084 459 
L 3084 0 
L 275 0 
L 275 525 
L 2438 3041 
L 353 3041 
L 353 3500 
z
" transform="scale(0.015625)"/>
      <path id="DejaVuSans-3d" d="M 678 2906 
L 4684 2906 
L 4684 2381 
L 678 2381 
L 678 2906 
z
M 678 1631 
L 4684 1631 
L 4684 1100 
L 678 1100 
L 678 1631 
z
" transform="scale(0.015625)"/>
      <path id="DejaVuSans-2c" d="M 750 794 
L 1409 794 
L 1409 256 
L 897 -744 
L 494 -744 
L 750 256 
L 750 794 
z
" transform="scale(0.015625)"/>
      <path id="DejaVuSans-52" d="M 2841 2188 
Q 3044 2119 3236 1894 
Q 3428 1669 3622 1275 
L 4263 0 
L 3584 0 
L 2988 1197 
Q 2756 1666 2539 1819 
Q 2322 1972 1947 1972 
L 1259 1972 
L 1259 0 
L 628 0 
L 628 4666 
L 2053 4666 
Q 2853 4666 3247 4331 
Q 3641 3997 3641 3322 
Q 3641 2881 3436 2590 
Q 3231 2300 2841 2188 
z
M 1259 4147 
L 1259 2491 
L 2053 2491 
Q 2509 2491 2742 2702 
Q 2975 2913 2975 3322 
Q 2975 3731 2742 3939 
Q 2509 4147 2053 4147 
L 1259 4147 
z
" transform="scale(0.015625)"/>
      <path id="DejaVuSans-2d" d="M 313 2009 
L 1997 2009 
L 1997 1497 
L 313 1497 
L 313 2009 
z
" transform="scale(0.015625)"/>
      <path id="DejaVuSans-57" d="M 213 4666 
L 850 4666 
L 1831 722 
L 2809 4666 
L 3519 4666 
L 4500 722 
L 5478 4666 
L 6119 4666 
L 4947 0 
L 4153 0 
L 3169 4050 
L 2175 0 
L 1381 0 
L 213 4666 
z
" transform="scale(0.015625)"/>
      <path id="DejaVuSans-72" d="M 2631 2963 
Q 2534 3019 2420 3045 
Q 2306 3072 2169 3072 
Q 1681 3072 1420 2755 
Q 1159 2438 1159 1844 
L 1159 0 
L 581 0 
L 581 3500 
L 1159 3500 
L 1159 2956 
Q 1341 3275 1631 3429 
Q 1922 3584 2338 3584 
Q 2397 3584 2469 3576 
Q 2541 3569 2628 3553 
L 2631 2963 
z
" transform="scale(0.015625)"/>
      <path id="DejaVuSans-54" d="M -19 4666 
L 3928 4666 
L 3928 4134 
L 2272 4134 
L 2272 0 
L 1638 0 
L 1638 4134 
L -19 4134 
L -19 4666 
z
" transform="scale(0.015625)"/>
      <path id="DejaVuSans-79" d="M 2059 -325 
Q 1816 -950 1584 -1140 
Q 1353 -1331 966 -1331 
L 506 -1331 
L 506 -850 
L 844 -850 
Q 1081 -850 1212 -737 
Q 1344 -625 1503 -206 
L 1606 56 
L 191 3500 
L 800 3500 
L 1894 763 
L 2988 3500 
L 3597 3500 
L 2059 -325 
z
" transform="scale(0.015625)"/>
      <path id="DejaVuSans-71" d="M 947 1747 
Q 947 1113 1208 752 
Q 1469 391 1925 391 
Q 2381 391 2643 752 
Q 2906 1113 2906 1747 
Q 2906 2381 2643 2742 
Q 2381 3103 1925 3103 
Q 1469 3103 1208 2742 
Q 947 2381 947 1747 
z
M 2906 525 
Q 2725 213 2448 61 
Q 2172 -91 1784 -91 
Q 1150 -91 751 415 
Q 353 922 353 1747 
Q 353 2572 751 3078 
Q 1150 3584 1784 3584 
Q 2172 3584 2448 3432 
Q 2725 3281 2906 2969 
L 2906 3500 
L 3481 3500 
L 3481 -1331 
L 2906 -1331 
L 2906 525 
z
" transform="scale(0.015625)"/>
      <path id="DejaVuSans-75" d="M 544 1381 
L 544 3500 
L 1119 3500 
L 1119 1403 
Q 1119 906 1312 657 
Q 1506 409 1894 409 
Q 2359 409 2629 706 
Q 2900 1003 2900 1516 
L 2900 3500 
L 3475 3500 
L 3475 0 
L 2900 0 
L 2900 538 
Q 2691 219 2414 64 
Q 2138 -91 1772 -91 
Q 1169 -91 856 284 
Q 544 659 544 1381 
z
M 1991 3584 
L 1991 3584 
z
" transform="scale(0.015625)"/>
      <path id="DejaVuSans-3a" d="M 750 794 
L 1409 794 
L 1409 0 
L 750 0 
L 750 794 
z
M 750 3309 
L 1409 3309 
L 1409 2516 
L 750 2516 
L 750 3309 
z
" transform="scale(0.015625)"/>
     </defs>
     <use xlink:href="#DejaVuSans-42"/>
     <use xlink:href="#DejaVuSans-6c" transform="translate(68.603516 0)"/>
     <use xlink:href="#DejaVuSans-6f" transform="translate(96.386719 0)"/>
     <use xlink:href="#DejaVuSans-63" transform="translate(157.568359 0)"/>
     <use xlink:href="#DejaVuSans-6b" transform="translate(212.548828 0)"/>
     <use xlink:href="#DejaVuSans-20" transform="translate(270.458984 0)"/>
     <use xlink:href="#DejaVuSans-53" transform="translate(302.246094 0)"/>
     <use xlink:href="#DejaVuSans-69" transform="translate(365.722656 0)"/>
     <use xlink:href="#DejaVuSans-7a" transform="translate(393.505859 0)"/>
     <use xlink:href="#DejaVuSans-65" transform="translate(445.996094 0)"/>
     <use xlink:href="#DejaVuSans-20" transform="translate(507.519531 0)"/>
     <use xlink:href="#DejaVuSans-3d" transform="translate(539.306641 0)"/>
     <use xlink:href="#DejaVuSans-20" transform="translate(623.095703 0)"/>
     <use xlink:href="#DejaVuSans-34" transform="translate(654.882812 0)"/>
     <use xlink:href="#DejaVuSans-4d" transform="translate(718.505859 0)"/>
     <use xlink:href="#DejaVuSans-2c" transform="translate(804.785156 0)"/>
     <use xlink:href="#DejaVuSans-20" transform="translate(836.572266 0)"/>
     <use xlink:href="#DejaVuSans-52" transform="translate(868.359375 0)"/>
     <use xlink:href="#DejaVuSans-65" transform="translate(933.341797 0)"/>
     <use xlink:href="#DejaVuSans-61" transform="translate(994.865234 0)"/>
     <use xlink:href="#DejaVuSans-64" transform="translate(1056.144531 0)"/>
     <use xlink:href="#DejaVuSans-2d" transform="translate(1119.621094 0)"/>
     <use xlink:href="#DejaVuSans-57" transform="translate(1151.705078 0)"/>
     <use xlink:href="#DejaVuSans-72" transform="translate(1246.082031 0)"/>
     <use xlink:href="#DejaVuSans-69" transform="translate(1287.195312 0)"/>
     <use xlink:href="#DejaVuSans-74" transform="translate(1314.978516 0)"/>
     <use xlink:href="#DejaVuSans-65" transform="translate(1354.1875 0)"/>
     <use xlink:href="#DejaVuSans-20" transform="translate(1415.710938 0)"/>
     <use xlink:href="#DejaVuSans-54" transform="translate(1447.498047 0)"/>
     <use xlink:href="#DejaVuSans-79" transform="translate(1492.957031 0)"/>
     <use xlink:href="#DejaVuSans-70" transform="translate(1552.136719 0)"/>
     <use xlink:href="#DejaVuSans-65" transform="translate(1615.613281 0)"/>
     <use xlink:href="#DejaVuSans-20" transform="translate(1677.136719 0)"/>
     <use xlink:href="#DejaVuSans-3d" transform="translate(1708.923828 0)"/>
     <use xlink:href="#DejaVuSans-20" transform="translate(1792.712891 0)"/>
     <use xlink:href="#DejaVuSans-53" transform="translate(1824.5 0)"/>
     <use xlink:href="#DejaVuSans-65" transform="translate(1887.976562 0)"/>
     <use xlink:href="#DejaVuSans-71" transform="translate(1949.5 0)"/>
     <use xlink:href="#DejaVuSans-75" transform="translate(2012.976562 0)"/>
     <use xlink:href="#DejaVuSans-65" transform="translate(2076.355469 0)"/>
     <use xlink:href="#DejaVuSans-6e" transform="translate(2137.878906 0)"/>
     <use xlink:href="#DejaVuSans-74" transform="translate(2201.257812 0)"/>
     <use xlink:href="#DejaVuSans-69" transform="translate(2240.466797 0)"/>
     <use xlink:href="#DejaVuSans-61" transform="translate(2268.25 0)"/>
     <use xlink:href="#DejaVuSans-6c" transform="translate(2329.529297 0)"/>
     <use xlink:href="#DejaVuSans-20" transform="translate(2357.3125 0)"/>
     <use xlink:href="#DejaVuSans-42" transform="translate(2389.099609 0)"/>
     <use xlink:href="#DejaVuSans-61" transform="translate(2457.703125 0)"/>
     <use xlink:href="#DejaVuSans-6c" transform="translate(2518.982422 0)"/>
     <use xlink:href="#DejaVuSans-61" transform="translate(2546.765625 0)"/>
     <use xlink:href="#DejaVuSans-6e" transform="translate(2608.044922 0)"/>
     <use xlink:href="#DejaVuSans-63" transform="translate(2671.423828 0)"/>
     <use xlink:href="#DejaVuSans-65" transform="translate(2726.404297 0)"/>
     <use xlink:href="#DejaVuSans-64" transform="translate(2787.927734 0)"/>
     <use xlink:href="#DejaVuSans-20" transform="translate(2851.404297 0)"/>
     <use xlink:href="#DejaVuSans-31" transform="translate(2883.191406 0)"/>
     <use xlink:href="#DejaVuSans-3a" transform="translate(2946.814453 0)"/>
     <use xlink:href="#DejaVuSans-31" transform="translate(2980.505859 0)"/>
    </g>
   </g>
   <g id="text_19">
    <!-- Mean Bandwidth vs IO Depth -->
    <g style="fill: #262626" transform="translate(124.103438 16.318125) scale(0.12 -0.12)">
     <defs>
      <path id="DejaVuSans-Bold-4d" d="M 588 4666 
L 2119 4666 
L 3181 2169 
L 4250 4666 
L 5778 4666 
L 5778 0 
L 4641 0 
L 4641 3413 
L 3566 897 
L 2803 897 
L 1728 3413 
L 1728 0 
L 588 0 
L 588 4666 
z
" transform="scale(0.015625)"/>
      <path id="DejaVuSans-Bold-65" d="M 4031 1759 
L 4031 1441 
L 1416 1441 
Q 1456 1047 1700 850 
Q 1944 653 2381 653 
Q 2734 653 3104 758 
Q 3475 863 3866 1075 
L 3866 213 
Q 3469 63 3072 -14 
Q 2675 -91 2278 -91 
Q 1328 -91 801 392 
Q 275 875 275 1747 
Q 275 2603 792 3093 
Q 1309 3584 2216 3584 
Q 3041 3584 3536 3087 
Q 4031 2591 4031 1759 
z
M 2881 2131 
Q 2881 2450 2695 2645 
Q 2509 2841 2209 2841 
Q 1884 2841 1681 2658 
Q 1478 2475 1428 2131 
L 2881 2131 
z
" transform="scale(0.015625)"/>
      <path id="DejaVuSans-Bold-61" d="M 2106 1575 
Q 1756 1575 1579 1456 
Q 1403 1338 1403 1106 
Q 1403 894 1545 773 
Q 1688 653 1941 653 
Q 2256 653 2472 879 
Q 2688 1106 2688 1447 
L 2688 1575 
L 2106 1575 
z
M 3816 1997 
L 3816 0 
L 2688 0 
L 2688 519 
Q 2463 200 2181 54 
Q 1900 -91 1497 -91 
Q 953 -91 614 226 
Q 275 544 275 1050 
Q 275 1666 698 1953 
Q 1122 2241 2028 2241 
L 2688 2241 
L 2688 2328 
Q 2688 2594 2478 2717 
Q 2269 2841 1825 2841 
Q 1466 2841 1156 2769 
Q 847 2697 581 2553 
L 581 3406 
Q 941 3494 1303 3539 
Q 1666 3584 2028 3584 
Q 2975 3584 3395 3211 
Q 3816 2838 3816 1997 
z
" transform="scale(0.015625)"/>
      <path id="DejaVuSans-Bold-6e" d="M 4056 2131 
L 4056 0 
L 2931 0 
L 2931 347 
L 2931 1631 
Q 2931 2084 2911 2256 
Q 2891 2428 2841 2509 
Q 2775 2619 2662 2680 
Q 2550 2741 2406 2741 
Q 2056 2741 1856 2470 
Q 1656 2200 1656 1722 
L 1656 0 
L 538 0 
L 538 3500 
L 1656 3500 
L 1656 2988 
Q 1909 3294 2193 3439 
Q 2478 3584 2822 3584 
Q 3428 3584 3742 3212 
Q 4056 2841 4056 2131 
z
" transform="scale(0.015625)"/>
      <path id="DejaVuSans-Bold-20" transform="scale(0.015625)"/>
      <path id="DejaVuSans-Bold-42" d="M 2456 2859 
Q 2741 2859 2887 2984 
Q 3034 3109 3034 3353 
Q 3034 3594 2887 3720 
Q 2741 3847 2456 3847 
L 1791 3847 
L 1791 2859 
L 2456 2859 
z
M 2497 819 
Q 2859 819 3042 972 
Q 3225 1125 3225 1434 
Q 3225 1738 3044 1889 
Q 2863 2041 2497 2041 
L 1791 2041 
L 1791 819 
L 2497 819 
z
M 3616 2497 
Q 4003 2384 4215 2081 
Q 4428 1778 4428 1338 
Q 4428 663 3972 331 
Q 3516 0 2584 0 
L 588 0 
L 588 4666 
L 2394 4666 
Q 3366 4666 3802 4372 
Q 4238 4078 4238 3431 
Q 4238 3091 4078 2852 
Q 3919 2613 3616 2497 
z
" transform="scale(0.015625)"/>
      <path id="DejaVuSans-Bold-64" d="M 2919 2988 
L 2919 4863 
L 4044 4863 
L 4044 0 
L 2919 0 
L 2919 506 
Q 2688 197 2409 53 
Q 2131 -91 1766 -91 
Q 1119 -91 703 423 
Q 288 938 288 1747 
Q 288 2556 703 3070 
Q 1119 3584 1766 3584 
Q 2128 3584 2408 3439 
Q 2688 3294 2919 2988 
z
M 2181 722 
Q 2541 722 2730 984 
Q 2919 1247 2919 1747 
Q 2919 2247 2730 2509 
Q 2541 2772 2181 2772 
Q 1825 2772 1636 2509 
Q 1447 2247 1447 1747 
Q 1447 1247 1636 984 
Q 1825 722 2181 722 
z
" transform="scale(0.015625)"/>
      <path id="DejaVuSans-Bold-77" d="M 225 3500 
L 1313 3500 
L 1900 1088 
L 2491 3500 
L 3425 3500 
L 4013 1113 
L 4603 3500 
L 5691 3500 
L 4769 0 
L 3547 0 
L 2956 2406 
L 2369 0 
L 1147 0 
L 225 3500 
z
" transform="scale(0.015625)"/>
      <path id="DejaVuSans-Bold-69" d="M 538 3500 
L 1656 3500 
L 1656 0 
L 538 0 
L 538 3500 
z
M 538 4863 
L 1656 4863 
L 1656 3950 
L 538 3950 
L 538 4863 
z
" transform="scale(0.015625)"/>
      <path id="DejaVuSans-Bold-74" d="M 1759 4494 
L 1759 3500 
L 2913 3500 
L 2913 2700 
L 1759 2700 
L 1759 1216 
Q 1759 972 1856 886 
Q 1953 800 2241 800 
L 2816 800 
L 2816 0 
L 1856 0 
Q 1194 0 917 276 
Q 641 553 641 1216 
L 641 2700 
L 84 2700 
L 84 3500 
L 641 3500 
L 641 4494 
L 1759 4494 
z
" transform="scale(0.015625)"/>
      <path id="DejaVuSans-Bold-68" d="M 4056 2131 
L 4056 0 
L 2931 0 
L 2931 347 
L 2931 1625 
Q 2931 2084 2911 2256 
Q 2891 2428 2841 2509 
Q 2775 2619 2662 2680 
Q 2550 2741 2406 2741 
Q 2056 2741 1856 2470 
Q 1656 2200 1656 1722 
L 1656 0 
L 538 0 
L 538 4863 
L 1656 4863 
L 1656 2988 
Q 1909 3294 2193 3439 
Q 2478 3584 2822 3584 
Q 3428 3584 3742 3212 
Q 4056 2841 4056 2131 
z
" transform="scale(0.015625)"/>
      <path id="DejaVuSans-Bold-76" d="M 97 3500 
L 1216 3500 
L 2088 1081 
L 2956 3500 
L 4078 3500 
L 2700 0 
L 1472 0 
L 97 3500 
z
" transform="scale(0.015625)"/>
      <path id="DejaVuSans-Bold-73" d="M 3272 3391 
L 3272 2541 
Q 2913 2691 2578 2766 
Q 2244 2841 1947 2841 
Q 1628 2841 1473 2761 
Q 1319 2681 1319 2516 
Q 1319 2381 1436 2309 
Q 1553 2238 1856 2203 
L 2053 2175 
Q 2913 2066 3209 1816 
Q 3506 1566 3506 1031 
Q 3506 472 3093 190 
Q 2681 -91 1863 -91 
Q 1516 -91 1145 -36 
Q 775 19 384 128 
L 384 978 
Q 719 816 1070 734 
Q 1422 653 1784 653 
Q 2113 653 2278 743 
Q 2444 834 2444 1013 
Q 2444 1163 2330 1236 
Q 2216 1309 1875 1350 
L 1678 1375 
Q 931 1469 631 1722 
Q 331 1975 331 2491 
Q 331 3047 712 3315 
Q 1094 3584 1881 3584 
Q 2191 3584 2531 3537 
Q 2872 3491 3272 3391 
z
" transform="scale(0.015625)"/>
      <path id="DejaVuSans-Bold-49" d="M 588 4666 
L 1791 4666 
L 1791 0 
L 588 0 
L 588 4666 
z
" transform="scale(0.015625)"/>
      <path id="DejaVuSans-Bold-4f" d="M 2719 3878 
Q 2169 3878 1866 3472 
Q 1563 3066 1563 2328 
Q 1563 1594 1866 1187 
Q 2169 781 2719 781 
Q 3272 781 3575 1187 
Q 3878 1594 3878 2328 
Q 3878 3066 3575 3472 
Q 3272 3878 2719 3878 
z
M 2719 4750 
Q 3844 4750 4481 4106 
Q 5119 3463 5119 2328 
Q 5119 1197 4481 553 
Q 3844 -91 2719 -91 
Q 1597 -91 958 553 
Q 319 1197 319 2328 
Q 319 3463 958 4106 
Q 1597 4750 2719 4750 
z
" transform="scale(0.015625)"/>
      <path id="DejaVuSans-Bold-44" d="M 1791 3756 
L 1791 909 
L 2222 909 
Q 2959 909 3348 1275 
Q 3738 1641 3738 2338 
Q 3738 3031 3350 3393 
Q 2963 3756 2222 3756 
L 1791 3756 
z
M 588 4666 
L 1856 4666 
Q 2919 4666 3439 4514 
Q 3959 4363 4331 4000 
Q 4659 3684 4818 3271 
Q 4978 2859 4978 2338 
Q 4978 1809 4818 1395 
Q 4659 981 4331 666 
Q 3956 303 3431 151 
Q 2906 0 1856 0 
L 588 0 
L 588 4666 
z
" transform="scale(0.015625)"/>
      <path id="DejaVuSans-Bold-70" d="M 1656 506 
L 1656 -1331 
L 538 -1331 
L 538 3500 
L 1656 3500 
L 1656 2988 
Q 1888 3294 2169 3439 
Q 2450 3584 2816 3584 
Q 3463 3584 3878 3070 
Q 4294 2556 4294 1747 
Q 4294 938 3878 423 
Q 3463 -91 2816 -91 
Q 2450 -91 2169 54 
Q 1888 200 1656 506 
z
M 2400 2772 
Q 2041 2772 1848 2508 
Q 1656 2244 1656 1747 
Q 1656 1250 1848 986 
Q 2041 722 2400 722 
Q 2759 722 2948 984 
Q 3138 1247 3138 1747 
Q 3138 2247 2948 2509 
Q 2759 2772 2400 2772 
z
" transform="scale(0.015625)"/>
     </defs>
     <use xlink:href="#DejaVuSans-Bold-4d"/>
     <use xlink:href="#DejaVuSans-Bold-65" transform="translate(99.511719 0)"/>
     <use xlink:href="#DejaVuSans-Bold-61" transform="translate(167.333984 0)"/>
     <use xlink:href="#DejaVuSans-Bold-6e" transform="translate(234.814453 0)"/>
     <use xlink:href="#DejaVuSans-Bold-20" transform="translate(306.005859 0)"/>
     <use xlink:href="#DejaVuSans-Bold-42" transform="translate(340.820312 0)"/>
     <use xlink:href="#DejaVuSans-Bold-61" transform="translate(417.041016 0)"/>
     <use xlink:href="#DejaVuSans-Bold-6e" transform="translate(484.521484 0)"/>
     <use xlink:href="#DejaVuSans-Bold-64" transform="translate(555.712891 0)"/>
     <use xlink:href="#DejaVuSans-Bold-77" transform="translate(627.294922 0)"/>
     <use xlink:href="#DejaVuSans-Bold-69" transform="translate(719.677734 0)"/>
     <use xlink:href="#DejaVuSans-Bold-64" transform="translate(753.955078 0)"/>
     <use xlink:href="#DejaVuSans-Bold-74" transform="translate(825.537109 0)"/>
     <use xlink:href="#DejaVuSans-Bold-68" transform="translate(873.339844 0)"/>
     <use xlink:href="#DejaVuSans-Bold-20" transform="translate(944.53125 0)"/>
     <use xlink:href="#DejaVuSans-Bold-76" transform="translate(979.345703 0)"/>
     <use xlink:href="#DejaVuSans-Bold-73" transform="translate(1044.53125 0)"/>
     <use xlink:href="#DejaVuSans-Bold-20" transform="translate(1104.052734 0)"/>
     <use xlink:href="#DejaVuSans-Bold-49" transform="translate(1138.867188 0)"/>
     <use xlink:href="#DejaVuSans-Bold-4f" transform="translate(1176.074219 0)"/>
     <use xlink:href="#DejaVuSans-Bold-20" transform="translate(1261.083984 0)"/>
     <use xlink:href="#DejaVuSans-Bold-44" transform="translate(1295.898438 0)"/>
     <use xlink:href="#DejaVuSans-Bold-65" transform="translate(1378.90625 0)"/>
     <use xlink:href="#DejaVuSans-Bold-70" transform="translate(1446.728516 0)"/>
     <use xlink:href="#DejaVuSans-Bold-74" transform="translate(1518.310547 0)"/>
     <use xlink:href="#DejaVuSans-Bold-68" transform="translate(1566.113281 0)"/>
    </g>
   </g>
   <g id="legend_1">
    <g id="text_20">
     <!-- Number of Jobs -->
     <g style="fill: #262626" transform="translate(404.3875 142.08285) scale(0.1 -0.1)">
      <defs>
       <path id="DejaVuSans-4e" d="M 628 4666 
L 1478 4666 
L 3547 763 
L 3547 4666 
L 4159 4666 
L 4159 0 
L 3309 0 
L 1241 3903 
L 1241 0 
L 628 0 
L 628 4666 
z
" transform="scale(0.015625)"/>
       <path id="DejaVuSans-6d" d="M 3328 2828 
Q 3544 3216 3844 3400 
Q 4144 3584 4550 3584 
Q 5097 3584 5394 3201 
Q 5691 2819 5691 2113 
L 5691 0 
L 5113 0 
L 5113 2094 
Q 5113 2597 4934 2840 
Q 4756 3084 4391 3084 
Q 3944 3084 3684 2787 
Q 3425 2491 3425 1978 
L 3425 0 
L 2847 0 
L 2847 2094 
Q 2847 2600 2669 2842 
Q 2491 3084 2119 3084 
Q 1678 3084 1418 2786 
Q 1159 2488 1159 1978 
L 1159 0 
L 581 0 
L 581 3500 
L 1159 3500 
L 1159 2956 
Q 1356 3278 1631 3431 
Q 1906 3584 2284 3584 
Q 2666 3584 2933 3390 
Q 3200 3197 3328 2828 
z
" transform="scale(0.015625)"/>
       <path id="DejaVuSans-62" d="M 3116 1747 
Q 3116 2381 2855 2742 
Q 2594 3103 2138 3103 
Q 1681 3103 1420 2742 
Q 1159 2381 1159 1747 
Q 1159 1113 1420 752 
Q 1681 391 2138 391 
Q 2594 391 2855 752 
Q 3116 1113 3116 1747 
z
M 1159 2969 
Q 1341 3281 1617 3432 
Q 1894 3584 2278 3584 
Q 2916 3584 3314 3078 
Q 3713 2572 3713 1747 
Q 3713 922 3314 415 
Q 2916 -91 2278 -91 
Q 1894 -91 1617 61 
Q 1341 213 1159 525 
L 1159 0 
L 581 0 
L 581 4863 
L 1159 4863 
L 1159 2969 
z
" transform="scale(0.015625)"/>
       <path id="DejaVuSans-66" d="M 2375 4863 
L 2375 4384 
L 1825 4384 
Q 1516 4384 1395 4259 
Q 1275 4134 1275 3809 
L 1275 3500 
L 2222 3500 
L 2222 3053 
L 1275 3053 
L 1275 0 
L 697 0 
L 697 3053 
L 147 3053 
L 147 3500 
L 697 3500 
L 697 3744 
Q 697 4328 969 4595 
Q 1241 4863 1831 4863 
L 2375 4863 
z
" transform="scale(0.015625)"/>
       <path id="DejaVuSans-4a" d="M 628 4666 
L 1259 4666 
L 1259 325 
Q 1259 -519 939 -900 
Q 619 -1281 -91 -1281 
L -331 -1281 
L -331 -750 
L -134 -750 
Q 284 -750 456 -515 
Q 628 -281 628 325 
L 628 4666 
z
" transform="scale(0.015625)"/>
      </defs>
      <use xlink:href="#DejaVuSans-4e"/>
      <use xlink:href="#DejaVuSans-75" transform="translate(74.804688 0)"/>
      <use xlink:href="#DejaVuSans-6d" transform="translate(138.183594 0)"/>
      <use xlink:href="#DejaVuSans-62" transform="translate(235.595703 0)"/>
      <use xlink:href="#DejaVuSans-65" transform="translate(299.072266 0)"/>
      <use xlink:href="#DejaVuSans-72" transform="translate(360.595703 0)"/>
      <use xlink:href="#DejaVuSans-20" transform="translate(401.708984 0)"/>
      <use xlink:href="#DejaVuSans-6f" transform="translate(433.496094 0)"/>
      <use xlink:href="#DejaVuSans-66" transform="translate(494.677734 0)"/>
      <use xlink:href="#DejaVuSans-20" transform="translate(529.882812 0)"/>
      <use xlink:href="#DejaVuSans-4a" transform="translate(561.669922 0)"/>
      <use xlink:href="#DejaVuSans-6f" transform="translate(591.162109 0)"/>
      <use xlink:href="#DejaVuSans-62" transform="translate(652.34375 0)"/>
      <use xlink:href="#DejaVuSans-73" transform="translate(715.820312 0)"/>
     </g>
    </g>
    <g id="line2d_20">
     <path d="M 419.240625 153.260975 
L 429.240625 153.260975 
L 439.240625 153.260975 
" style="fill: none; stroke: #3b0f70; stroke-width: 1.5; stroke-linecap: round"/>
    </g>
    <g id="text_21">
     <!-- 16 -->
     <g style="fill: #262626" transform="translate(447.240625 156.760975) scale(0.1 -0.1)">
      <use xlink:href="#DejaVuSans-31"/>
      <use xlink:href="#DejaVuSans-36" transform="translate(63.623047 0)"/>
     </g>
    </g>
    <g id="line2d_21">
     <path d="M 419.240625 167.9391 
L 429.240625 167.9391 
L 439.240625 167.9391 
" style="fill: none; stroke: #8c2981; stroke-width: 1.5; stroke-linecap: round"/>
    </g>
    <g id="text_22">
     <!-- 32 -->
     <g style="fill: #262626" transform="translate(447.240625 171.4391) scale(0.1 -0.1)">
      <use xlink:href="#DejaVuSans-33"/>
      <use xlink:href="#DejaVuSans-32" transform="translate(63.623047 0)"/>
     </g>
    </g>
    <g id="line2d_22">
     <path d="M 419.240625 182.617225 
L 429.240625 182.617225 
L 439.240625 182.617225 
" style="fill: none; stroke: #de4968; stroke-width: 1.5; stroke-linecap: round"/>
    </g>
    <g id="text_23">
     <!-- 64 -->
     <g style="fill: #262626" transform="translate(447.240625 186.117225) scale(0.1 -0.1)">
      <use xlink:href="#DejaVuSans-36"/>
      <use xlink:href="#DejaVuSans-34" transform="translate(63.623047 0)"/>
     </g>
    </g>
    <g id="line2d_23">
     <path d="M 419.240625 197.29535 
L 429.240625 197.29535 
L 439.240625 197.29535 
" style="fill: none; stroke: #fe9f6d; stroke-width: 1.5; stroke-linecap: round"/>
    </g>
    <g id="text_24">
     <!-- 128 -->
     <g style="fill: #262626" transform="translate(447.240625 200.79535) scale(0.1 -0.1)">
      <use xlink:href="#DejaVuSans-31"/>
      <use xlink:href="#DejaVuSans-32" transform="translate(63.623047 0)"/>
      <use xlink:href="#DejaVuSans-38" transform="translate(127.246094 0)"/>
     </g>
    </g>
   </g>
  </g>
 </g>
 <defs>
  <clipPath id="pace463cf22">
   <rect x="43.78125" y="35.623725" width="357.12" height="266.112"/>
  </clipPath>
 </defs>
</svg>
