<?xml version="1.0" encoding="utf-8" standalone="no"?>
<!DOCTYPE svg PUBLIC "-//W3C//DTD SVG 1.1//EN"
  "http://www.w3.org/Graphics/SVG/1.1/DTD/svg11.dtd">
<svg xmlns:xlink="http://www.w3.org/1999/xlink" width="492.38125pt" height="339.291975pt" viewBox="0 0 492.38125 339.291975" xmlns="http://www.w3.org/2000/svg" version="1.1">
 <metadata>
  <rdf:RDF xmlns:dc="http://purl.org/dc/elements/1.1/" xmlns:cc="http://creativecommons.org/ns#" xmlns:rdf="http://www.w3.org/1999/02/22-rdf-syntax-ns#">
   <cc:Work>
    <dc:type rdf:resource="http://purl.org/dc/dcmitype/StillImage"/>
    <dc:date>2025-09-10T17:56:35.980190</dc:date>
    <dc:format>image/svg+xml</dc:format>
    <dc:creator>
     <cc:Agent>
      <dc:title>Matplotlib v3.10.6, https://matplotlib.org/</dc:title>
     </cc:Agent>
    </dc:creator>
   </cc:Work>
  </rdf:RDF>
 </metadata>
 <defs>
  <style type="text/css">*{stroke-linejoin: round; stroke-linecap: butt}</style>
 </defs>
 <g id="figure_1">
  <g id="patch_1">
   <path d="M 0 339.291975 
L 492.38125 339.291975 
L 492.38125 0 
L 0 0 
z
" style="fill: #ffffff"/>
  </g>
  <g id="axes_1">
   <g id="patch_2">
    <path d="M 43.78125 301.735725 
L 400.90125 301.735725 
L 400.90125 35.623725 
L 43.78125 35.623725 
z
" style="fill: #ffffff"/>
   </g>
   <g id="matplotlib.axis_1">
    <g id="xtick_1">
     <g id="line2d_1">
      <path d="M 60.013977 301.735725 
L 60.013977 35.623725 
" clip-path="url(#p598f2632d0)" style="fill: none; stroke: #cccccc; stroke-width: 0.8; stroke-linecap: round"/>
     </g>
     <g id="text_1">
      <!-- 1 -->
      <g style="fill: #262626" transform="translate(56.832727 316.334162) scale(0.1 -0.1)">
       <defs>
        <path id="DejaVuSans-31" d="M 794 531 
L 1825 531 
L 1825 4091 
L 703 3866 
L 703 4441 
L 1819 4666 
L 2450 4666 
L 2450 531 
L 3481 531 
L 3481 0 
L 794 0 
L 794 531 
z
" transform="scale(0.015625)"/>
       </defs>
       <use xlink:href="#DejaVuSans-31"/>
      </g>
     </g>
    </g>
    <g id="xtick_2">
     <g id="line2d_2">
      <path d="M 221.063082 301.735725 
L 221.063082 35.623725 
" clip-path="url(#p598f2632d0)" style="fill: none; stroke: #cccccc; stroke-width: 0.8; stroke-linecap: round"/>
     </g>
     <g id="text_2">
      <!-- 64 -->
      <g style="fill: #262626" transform="translate(214.700582 316.334162) scale(0.1 -0.1)">
       <defs>
        <path id="DejaVuSans-36" d="M 2113 2584 
Q 1688 2584 1439 2293 
Q 1191 2003 1191 1497 
Q 1191 994 1439 701 
Q 1688 409 2113 409 
Q 2538 409 2786 701 
Q 3034 994 3034 1497 
Q 3034 2003 2786 2293 
Q 2538 2584 2113 2584 
z
M 3366 4563 
L 3366 3988 
Q 3128 4100 2886 4159 
Q 2644 4219 2406 4219 
Q 1781 4219 1451 3797 
Q 1122 3375 1075 2522 
Q 1259 2794 1537 2939 
Q 1816 3084 2150 3084 
Q 2853 3084 3261 2657 
Q 3669 2231 3669 1497 
Q 3669 778 3244 343 
Q 2819 -91 2113 -91 
Q 1303 -91 875 529 
Q 447 1150 447 2328 
Q 447 3434 972 4092 
Q 1497 4750 2381 4750 
Q 2619 4750 2861 4703 
Q 3103 4656 3366 4563 
z
" transform="scale(0.015625)"/>
        <path id="DejaVuSans-34" d="M 2419 4116 
L 825 1625 
L 2419 1625 
L 2419 4116 
z
M 2253 4666 
L 3047 4666 
L 3047 1625 
L 3713 1625 
L 3713 1100 
L 3047 1100 
L 3047 0 
L 2419 0 
L 2419 1100 
L 313 1100 
L 313 1709 
L 2253 4666 
z
" transform="scale(0.015625)"/>
       </defs>
       <use xlink:href="#DejaVuSans-36"/>
       <use xlink:href="#DejaVuSans-34" transform="translate(63.623047 0)"/>
      </g>
     </g>
    </g>
    <g id="xtick_3">
     <g id="line2d_3">
      <path d="M 77.908322 301.735725 
L 77.908322 35.623725 
" clip-path="url(#p598f2632d0)" style="fill: none; stroke: #cccccc; stroke-width: 0.8; stroke-linecap: round"/>
     </g>
     <g id="text_3">
      <!-- 8 -->
      <g style="fill: #262626" transform="translate(74.727072 316.334162) scale(0.1 -0.1)">
       <defs>
        <path id="DejaVuSans-38" d="M 2034 2216 
Q 1584 2216 1326 1975 
Q 1069 1734 1069 1313 
Q 1069 891 1326 650 
Q 1584 409 2034 409 
Q 2484 409 2743 651 
Q 3003 894 3003 1313 
Q 3003 1734 2745 1975 
Q 2488 2216 2034 2216 
z
M 1403 2484 
Q 997 2584 770 2862 
Q 544 3141 544 3541 
Q 544 4100 942 4425 
Q 1341 4750 2034 4750 
Q 2731 4750 3128 4425 
Q 3525 4100 3525 3541 
Q 3525 3141 3298 2862 
Q 3072 2584 2669 2484 
Q 3125 2378 3379 2068 
Q 3634 1759 3634 1313 
Q 3634 634 3220 271 
Q 2806 -91 2034 -91 
Q 1263 -91 848 271 
Q 434 634 434 1313 
Q 434 1759 690 2068 
Q 947 2378 1403 2484 
z
M 1172 3481 
Q 1172 3119 1398 2916 
Q 1625 2713 2034 2713 
Q 2441 2713 2670 2916 
Q 2900 3119 2900 3481 
Q 2900 3844 2670 4047 
Q 2441 4250 2034 4250 
Q 1625 4250 1398 4047 
Q 1172 3844 1172 3481 
z
" transform="scale(0.015625)"/>
       </defs>
       <use xlink:href="#DejaVuSans-38"/>
      </g>
     </g>
    </g>
    <g id="xtick_4">
     <g id="line2d_4">
      <path d="M 384.668523 301.735725 
L 384.668523 35.623725 
" clip-path="url(#p598f2632d0)" style="fill: none; stroke: #cccccc; stroke-width: 0.8; stroke-linecap: round"/>
     </g>
     <g id="text_4">
      <!-- 128 -->
      <g style="fill: #262626" transform="translate(375.124773 316.334162) scale(0.1 -0.1)">
       <defs>
        <path id="DejaVuSans-32" d="M 1228 531 
L 3431 531 
L 3431 0 
L 469 0 
L 469 531 
Q 828 903 1448 1529 
Q 2069 2156 2228 2338 
Q 2531 2678 2651 2914 
Q 2772 3150 2772 3378 
Q 2772 3750 2511 3984 
Q 2250 4219 1831 4219 
Q 1534 4219 1204 4116 
Q 875 4013 500 3803 
L 500 4441 
Q 881 4594 1212 4672 
Q 1544 4750 1819 4750 
Q 2544 4750 2975 4387 
Q 3406 4025 3406 3419 
Q 3406 3131 3298 2873 
Q 3191 2616 2906 2266 
Q 2828 2175 2409 1742 
Q 1991 1309 1228 531 
z
" transform="scale(0.015625)"/>
       </defs>
       <use xlink:href="#DejaVuSans-31"/>
       <use xlink:href="#DejaVuSans-32" transform="translate(63.623047 0)"/>
       <use xlink:href="#DejaVuSans-38" transform="translate(127.246094 0)"/>
      </g>
     </g>
    </g>
    <g id="xtick_5">
     <g id="line2d_5">
      <path d="M 67.682982 301.735725 
L 67.682982 35.623725 
" clip-path="url(#p598f2632d0)" style="fill: none; stroke: #cccccc; stroke-width: 0.8; stroke-linecap: round"/>
     </g>
     <g id="text_5">
      <!-- 4 -->
      <g style="fill: #262626" transform="translate(64.501732 316.334162) scale(0.1 -0.1)">
       <use xlink:href="#DejaVuSans-34"/>
      </g>
     </g>
    </g>
    <g id="xtick_6">
     <g id="line2d_6">
      <path d="M 139.260362 301.735725 
L 139.260362 35.623725 
" clip-path="url(#p598f2632d0)" style="fill: none; stroke: #cccccc; stroke-width: 0.8; stroke-linecap: round"/>
     </g>
     <g id="text_6">
      <!-- 32 -->
      <g style="fill: #262626" transform="translate(132.897862 316.334162) scale(0.1 -0.1)">
       <defs>
        <path id="DejaVuSans-33" d="M 2597 2516 
Q 3050 2419 3304 2112 
Q 3559 1806 3559 1356 
Q 3559 666 3084 287 
Q 2609 -91 1734 -91 
Q 1441 -91 1130 -33 
Q 819 25 488 141 
L 488 750 
Q 750 597 1062 519 
Q 1375 441 1716 441 
Q 2309 441 2620 675 
Q 2931 909 2931 1356 
Q 2931 1769 2642 2001 
Q 2353 2234 1838 2234 
L 1294 2234 
L 1294 2753 
L 1863 2753 
Q 2328 2753 2575 2939 
Q 2822 3125 2822 3475 
Q 2822 3834 2567 4026 
Q 2313 4219 1838 4219 
Q 1578 4219 1281 4162 
Q 984 4106 628 3988 
L 628 4550 
Q 988 4650 1302 4700 
Q 1616 4750 1894 4750 
Q 2613 4750 3031 4423 
Q 3450 4097 3450 3541 
Q 3450 3153 3228 2886 
Q 3006 2619 2597 2516 
z
" transform="scale(0.015625)"/>
       </defs>
       <use xlink:href="#DejaVuSans-33"/>
       <use xlink:href="#DejaVuSans-32" transform="translate(63.623047 0)"/>
      </g>
     </g>
    </g>
    <g id="xtick_7">
     <g id="line2d_7">
      <path d="M 98.359002 301.735725 
L 98.359002 35.623725 
" clip-path="url(#p598f2632d0)" style="fill: none; stroke: #cccccc; stroke-width: 0.8; stroke-linecap: round"/>
     </g>
     <g id="text_7">
      <!-- 16 -->
      <g style="fill: #262626" transform="translate(91.996502 316.334162) scale(0.1 -0.1)">
       <use xlink:href="#DejaVuSans-31"/>
       <use xlink:href="#DejaVuSans-36" transform="translate(63.623047 0)"/>
      </g>
     </g>
    </g>
    <g id="text_8">
     <!-- IO Depth -->
     <g style="fill: #262626" transform="translate(200.111563 330.012287) scale(0.1 -0.1)">
      <defs>
       <path id="DejaVuSans-49" d="M 628 4666 
L 1259 4666 
L 1259 0 
L 628 0 
L 628 4666 
z
" transform="scale(0.015625)"/>
       <path id="DejaVuSans-4f" d="M 2522 4238 
Q 1834 4238 1429 3725 
Q 1025 3213 1025 2328 
Q 1025 1447 1429 934 
Q 1834 422 2522 422 
Q 3209 422 3611 934 
Q 4013 1447 4013 2328 
Q 4013 3213 3611 3725 
Q 3209 4238 2522 4238 
z
M 2522 4750 
Q 3503 4750 4090 4092 
Q 4678 3434 4678 2328 
Q 4678 1225 4090 567 
Q 3503 -91 2522 -91 
Q 1538 -91 948 565 
Q 359 1222 359 2328 
Q 359 3434 948 4092 
Q 1538 4750 2522 4750 
z
" transform="scale(0.015625)"/>
       <path id="DejaVuSans-20" transform="scale(0.015625)"/>
       <path id="DejaVuSans-44" d="M 1259 4147 
L 1259 519 
L 2022 519 
Q 2988 519 3436 956 
Q 3884 1394 3884 2338 
Q 3884 3275 3436 3711 
Q 2988 4147 2022 4147 
L 1259 4147 
z
M 628 4666 
L 1925 4666 
Q 3281 4666 3915 4102 
Q 4550 3538 4550 2338 
Q 4550 1131 3912 565 
Q 3275 0 1925 0 
L 628 0 
L 628 4666 
z
" transform="scale(0.015625)"/>
       <path id="DejaVuSans-65" d="M 3597 1894 
L 3597 1613 
L 953 1613 
Q 991 1019 1311 708 
Q 1631 397 2203 397 
Q 2534 397 2845 478 
Q 3156 559 3463 722 
L 3463 178 
Q 3153 47 2828 -22 
Q 2503 -91 2169 -91 
Q 1331 -91 842 396 
Q 353 884 353 1716 
Q 353 2575 817 3079 
Q 1281 3584 2069 3584 
Q 2775 3584 3186 3129 
Q 3597 2675 3597 1894 
z
M 3022 2063 
Q 3016 2534 2758 2815 
Q 2500 3097 2075 3097 
Q 1594 3097 1305 2825 
Q 1016 2553 972 2059 
L 3022 2063 
z
" transform="scale(0.015625)"/>
       <path id="DejaVuSans-70" d="M 1159 525 
L 1159 -1331 
L 581 -1331 
L 581 3500 
L 1159 3500 
L 1159 2969 
Q 1341 3281 1617 3432 
Q 1894 3584 2278 3584 
Q 2916 3584 3314 3078 
Q 3713 2572 3713 1747 
Q 3713 922 3314 415 
Q 2916 -91 2278 -91 
Q 1894 -91 1617 61 
Q 1341 213 1159 525 
z
M 3116 1747 
Q 3116 2381 2855 2742 
Q 2594 3103 2138 3103 
Q 1681 3103 1420 2742 
Q 1159 2381 1159 1747 
Q 1159 1113 1420 752 
Q 1681 391 2138 391 
Q 2594 391 2855 752 
Q 3116 1113 3116 1747 
z
" transform="scale(0.015625)"/>
       <path id="DejaVuSans-74" d="M 1172 4494 
L 1172 3500 
L 2356 3500 
L 2356 3053 
L 1172 3053 
L 1172 1153 
Q 1172 725 1289 603 
Q 1406 481 1766 481 
L 2356 481 
L 2356 0 
L 1766 0 
Q 1100 0 847 248 
Q 594 497 594 1153 
L 594 3053 
L 172 3053 
L 172 3500 
L 594 3500 
L 594 4494 
L 1172 4494 
z
" transform="scale(0.015625)"/>
       <path id="DejaVuSans-68" d="M 3513 2113 
L 3513 0 
L 2938 0 
L 2938 2094 
Q 2938 2591 2744 2837 
Q 2550 3084 2163 3084 
Q 1697 3084 1428 2787 
Q 1159 2491 1159 1978 
L 1159 0 
L 581 0 
L 581 4863 
L 1159 4863 
L 1159 2956 
Q 1366 3272 1645 3428 
Q 1925 3584 2291 3584 
Q 2894 3584 3203 3211 
Q 3513 2838 3513 2113 
z
" transform="scale(0.015625)"/>
      </defs>
      <use xlink:href="#DejaVuSans-49"/>
      <use xlink:href="#DejaVuSans-4f" transform="translate(29.492188 0)"/>
      <use xlink:href="#DejaVuSans-20" transform="translate(108.203125 0)"/>
      <use xlink:href="#DejaVuSans-44" transform="translate(139.990234 0)"/>
      <use xlink:href="#DejaVuSans-65" transform="translate(216.992188 0)"/>
      <use xlink:href="#DejaVuSans-70" transform="translate(278.515625 0)"/>
      <use xlink:href="#DejaVuSans-74" transform="translate(341.992188 0)"/>
      <use xlink:href="#DejaVuSans-68" transform="translate(381.201172 0)"/>
     </g>
    </g>
   </g>
   <g id="matplotlib.axis_2">
    <g id="ytick_1">
     <g id="line2d_8">
      <path d="M 43.78125 276.068874 
L 400.90125 276.068874 
" clip-path="url(#p598f2632d0)" style="fill: none; stroke: #cccccc; stroke-width: 0.8; stroke-linecap: round"/>
     </g>
     <g id="text_9">
      <!-- 2.4 -->
      <g style="fill: #262626" transform="translate(20.878125 279.868092) scale(0.1 -0.1)">
       <defs>
        <path id="DejaVuSans-2e" d="M 684 794 
L 1344 794 
L 1344 0 
L 684 0 
L 684 794 
z
" transform="scale(0.015625)"/>
       </defs>
       <use xlink:href="#DejaVuSans-32"/>
       <use xlink:href="#DejaVuSans-2e" transform="translate(63.623047 0)"/>
       <use xlink:href="#DejaVuSans-34" transform="translate(95.410156 0)"/>
      </g>
     </g>
    </g>
    <g id="ytick_2">
     <g id="line2d_9">
      <path d="M 43.78125 241.715308 
L 400.90125 241.715308 
" clip-path="url(#p598f2632d0)" style="fill: none; stroke: #cccccc; stroke-width: 0.8; stroke-linecap: round"/>
     </g>
     <g id="text_10">
      <!-- 2.6 -->
      <g style="fill: #262626" transform="translate(20.878125 245.514526) scale(0.1 -0.1)">
       <use xlink:href="#DejaVuSans-32"/>
       <use xlink:href="#DejaVuSans-2e" transform="translate(63.623047 0)"/>
       <use xlink:href="#DejaVuSans-36" transform="translate(95.410156 0)"/>
      </g>
     </g>
    </g>
    <g id="ytick_3">
     <g id="line2d_10">
      <path d="M 43.78125 207.361741 
L 400.90125 207.361741 
" clip-path="url(#p598f2632d0)" style="fill: none; stroke: #cccccc; stroke-width: 0.8; stroke-linecap: round"/>
     </g>
     <g id="text_11">
      <!-- 2.8 -->
      <g style="fill: #262626" transform="translate(20.878125 211.16096) scale(0.1 -0.1)">
       <use xlink:href="#DejaVuSans-32"/>
       <use xlink:href="#DejaVuSans-2e" transform="translate(63.623047 0)"/>
       <use xlink:href="#DejaVuSans-38" transform="translate(95.410156 0)"/>
      </g>
     </g>
    </g>
    <g id="ytick_4">
     <g id="line2d_11">
      <path d="M 43.78125 173.008175 
L 400.90125 173.008175 
" clip-path="url(#p598f2632d0)" style="fill: none; stroke: #cccccc; stroke-width: 0.8; stroke-linecap: round"/>
     </g>
     <g id="text_12">
      <!-- 3.0 -->
      <g style="fill: #262626" transform="translate(20.878125 176.807394) scale(0.1 -0.1)">
       <defs>
        <path id="DejaVuSans-30" d="M 2034 4250 
Q 1547 4250 1301 3770 
Q 1056 3291 1056 2328 
Q 1056 1369 1301 889 
Q 1547 409 2034 409 
Q 2525 409 2770 889 
Q 3016 1369 3016 2328 
Q 3016 3291 2770 3770 
Q 2525 4250 2034 4250 
z
M 2034 4750 
Q 2819 4750 3233 4129 
Q 3647 3509 3647 2328 
Q 3647 1150 3233 529 
Q 2819 -91 2034 -91 
Q 1250 -91 836 529 
Q 422 1150 422 2328 
Q 422 3509 836 4129 
Q 1250 4750 2034 4750 
z
" transform="scale(0.015625)"/>
       </defs>
       <use xlink:href="#DejaVuSans-33"/>
       <use xlink:href="#DejaVuSans-2e" transform="translate(63.623047 0)"/>
       <use xlink:href="#DejaVuSans-30" transform="translate(95.410156 0)"/>
      </g>
     </g>
    </g>
    <g id="ytick_5">
     <g id="line2d_12">
      <path d="M 43.78125 138.654609 
L 400.90125 138.654609 
" clip-path="url(#p598f2632d0)" style="fill: none; stroke: #cccccc; stroke-width: 0.8; stroke-linecap: round"/>
     </g>
     <g id="text_13">
      <!-- 3.2 -->
      <g style="fill: #262626" transform="translate(20.878125 142.453828) scale(0.1 -0.1)">
       <use xlink:href="#DejaVuSans-33"/>
       <use xlink:href="#DejaVuSans-2e" transform="translate(63.623047 0)"/>
       <use xlink:href="#DejaVuSans-32" transform="translate(95.410156 0)"/>
      </g>
     </g>
    </g>
    <g id="ytick_6">
     <g id="line2d_13">
      <path d="M 43.78125 104.301043 
L 400.90125 104.301043 
" clip-path="url(#p598f2632d0)" style="fill: none; stroke: #cccccc; stroke-width: 0.8; stroke-linecap: round"/>
     </g>
     <g id="text_14">
      <!-- 3.4 -->
      <g style="fill: #262626" transform="translate(20.878125 108.100262) scale(0.1 -0.1)">
       <use xlink:href="#DejaVuSans-33"/>
       <use xlink:href="#DejaVuSans-2e" transform="translate(63.623047 0)"/>
       <use xlink:href="#DejaVuSans-34" transform="translate(95.410156 0)"/>
      </g>
     </g>
    </g>
    <g id="ytick_7">
     <g id="line2d_14">
      <path d="M 43.78125 69.947477 
L 400.90125 69.947477 
" clip-path="url(#p598f2632d0)" style="fill: none; stroke: #cccccc; stroke-width: 0.8; stroke-linecap: round"/>
     </g>
     <g id="text_15">
      <!-- 3.6 -->
      <g style="fill: #262626" transform="translate(20.878125 73.746696) scale(0.1 -0.1)">
       <use xlink:href="#DejaVuSans-33"/>
       <use xlink:href="#DejaVuSans-2e" transform="translate(63.623047 0)"/>
       <use xlink:href="#DejaVuSans-36" transform="translate(95.410156 0)"/>
      </g>
     </g>
    </g>
    <g id="text_16">
     <!-- Mean Bandwidth (GiB/s) -->
     <g style="fill: #262626" transform="translate(14.798438 228.984412) rotate(-90) scale(0.1 -0.1)">
      <defs>
       <path id="DejaVuSans-4d" d="M 628 4666 
L 1569 4666 
L 2759 1491 
L 3956 4666 
L 4897 4666 
L 4897 0 
L 4281 0 
L 4281 4097 
L 3078 897 
L 2444 897 
L 1241 4097 
L 1241 0 
L 628 0 
L 628 4666 
z
" transform="scale(0.015625)"/>
       <path id="DejaVuSans-61" d="M 2194 1759 
Q 1497 1759 1228 1600 
Q 959 1441 959 1056 
Q 959 750 1161 570 
Q 1363 391 1709 391 
Q 2188 391 2477 730 
Q 2766 1069 2766 1631 
L 2766 1759 
L 2194 1759 
z
M 3341 1997 
L 3341 0 
L 2766 0 
L 2766 531 
Q 2569 213 2275 61 
Q 1981 -91 1556 -91 
Q 1019 -91 701 211 
Q 384 513 384 1019 
Q 384 1609 779 1909 
Q 1175 2209 1959 2209 
L 2766 2209 
L 2766 2266 
Q 2766 2663 2505 2880 
Q 2244 3097 1772 3097 
Q 1472 3097 1187 3025 
Q 903 2953 641 2809 
L 641 3341 
Q 956 3463 1253 3523 
Q 1550 3584 1831 3584 
Q 2591 3584 2966 3190 
Q 3341 2797 3341 1997 
z
" transform="scale(0.015625)"/>
       <path id="DejaVuSans-6e" d="M 3513 2113 
L 3513 0 
L 2938 0 
L 2938 2094 
Q 2938 2591 2744 2837 
Q 2550 3084 2163 3084 
Q 1697 3084 1428 2787 
Q 1159 2491 1159 1978 
L 1159 0 
L 581 0 
L 581 3500 
L 1159 3500 
L 1159 2956 
Q 1366 3272 1645 3428 
Q 1925 3584 2291 3584 
Q 2894 3584 3203 3211 
Q 3513 2838 3513 2113 
z
" transform="scale(0.015625)"/>
       <path id="DejaVuSans-42" d="M 1259 2228 
L 1259 519 
L 2272 519 
Q 2781 519 3026 730 
Q 3272 941 3272 1375 
Q 3272 1813 3026 2020 
Q 2781 2228 2272 2228 
L 1259 2228 
z
M 1259 4147 
L 1259 2741 
L 2194 2741 
Q 2656 2741 2882 2914 
Q 3109 3088 3109 3444 
Q 3109 3797 2882 3972 
Q 2656 4147 2194 4147 
L 1259 4147 
z
M 628 4666 
L 2241 4666 
Q 2963 4666 3353 4366 
Q 3744 4066 3744 3513 
Q 3744 3084 3544 2831 
Q 3344 2578 2956 2516 
Q 3422 2416 3680 2098 
Q 3938 1781 3938 1306 
Q 3938 681 3513 340 
Q 3088 0 2303 0 
L 628 0 
L 628 4666 
z
" transform="scale(0.015625)"/>
       <path id="DejaVuSans-64" d="M 2906 2969 
L 2906 4863 
L 3481 4863 
L 3481 0 
L 2906 0 
L 2906 525 
Q 2725 213 2448 61 
Q 2172 -91 1784 -91 
Q 1150 -91 751 415 
Q 353 922 353 1747 
Q 353 2572 751 3078 
Q 1150 3584 1784 3584 
Q 2172 3584 2448 3432 
Q 2725 3281 2906 2969 
z
M 947 1747 
Q 947 1113 1208 752 
Q 1469 391 1925 391 
Q 2381 391 2643 752 
Q 2906 1113 2906 1747 
Q 2906 2381 2643 2742 
Q 2381 3103 1925 3103 
Q 1469 3103 1208 2742 
Q 947 2381 947 1747 
z
" transform="scale(0.015625)"/>
       <path id="DejaVuSans-77" d="M 269 3500 
L 844 3500 
L 1563 769 
L 2278 3500 
L 2956 3500 
L 3675 769 
L 4391 3500 
L 4966 3500 
L 4050 0 
L 3372 0 
L 2619 2869 
L 1863 0 
L 1184 0 
L 269 3500 
z
" transform="scale(0.015625)"/>
       <path id="DejaVuSans-69" d="M 603 3500 
L 1178 3500 
L 1178 0 
L 603 0 
L 603 3500 
z
M 603 4863 
L 1178 4863 
L 1178 4134 
L 603 4134 
L 603 4863 
z
" transform="scale(0.015625)"/>
       <path id="DejaVuSans-28" d="M 1984 4856 
Q 1566 4138 1362 3434 
Q 1159 2731 1159 2009 
Q 1159 1288 1364 580 
Q 1569 -128 1984 -844 
L 1484 -844 
Q 1016 -109 783 600 
Q 550 1309 550 2009 
Q 550 2706 781 3412 
Q 1013 4119 1484 4856 
L 1984 4856 
z
" transform="scale(0.015625)"/>
       <path id="DejaVuSans-47" d="M 3809 666 
L 3809 1919 
L 2778 1919 
L 2778 2438 
L 4434 2438 
L 4434 434 
Q 4069 175 3628 42 
Q 3188 -91 2688 -91 
Q 1594 -91 976 548 
Q 359 1188 359 2328 
Q 359 3472 976 4111 
Q 1594 4750 2688 4750 
Q 3144 4750 3555 4637 
Q 3966 4525 4313 4306 
L 4313 3634 
Q 3963 3931 3569 4081 
Q 3175 4231 2741 4231 
Q 1884 4231 1454 3753 
Q 1025 3275 1025 2328 
Q 1025 1384 1454 906 
Q 1884 428 2741 428 
Q 3075 428 3337 486 
Q 3600 544 3809 666 
z
" transform="scale(0.015625)"/>
       <path id="DejaVuSans-2f" d="M 1625 4666 
L 2156 4666 
L 531 -594 
L 0 -594 
L 1625 4666 
z
" transform="scale(0.015625)"/>
       <path id="DejaVuSans-73" d="M 2834 3397 
L 2834 2853 
Q 2591 2978 2328 3040 
Q 2066 3103 1784 3103 
Q 1356 3103 1142 2972 
Q 928 2841 928 2578 
Q 928 2378 1081 2264 
Q 1234 2150 1697 2047 
L 1894 2003 
Q 2506 1872 2764 1633 
Q 3022 1394 3022 966 
Q 3022 478 2636 193 
Q 2250 -91 1575 -91 
Q 1294 -91 989 -36 
Q 684 19 347 128 
L 347 722 
Q 666 556 975 473 
Q 1284 391 1588 391 
Q 1994 391 2212 530 
Q 2431 669 2431 922 
Q 2431 1156 2273 1281 
Q 2116 1406 1581 1522 
L 1381 1569 
Q 847 1681 609 1914 
Q 372 2147 372 2553 
Q 372 3047 722 3315 
Q 1072 3584 1716 3584 
Q 2034 3584 2315 3537 
Q 2597 3491 2834 3397 
z
" transform="scale(0.015625)"/>
       <path id="DejaVuSans-29" d="M 513 4856 
L 1013 4856 
Q 1481 4119 1714 3412 
Q 1947 2706 1947 2009 
Q 1947 1309 1714 600 
Q 1481 -109 1013 -844 
L 513 -844 
Q 928 -128 1133 580 
Q 1338 1288 1338 2009 
Q 1338 2731 1133 3434 
Q 928 4138 513 4856 
z
" transform="scale(0.015625)"/>
      </defs>
      <use xlink:href="#DejaVuSans-4d"/>
      <use xlink:href="#DejaVuSans-65" transform="translate(86.279297 0)"/>
      <use xlink:href="#DejaVuSans-61" transform="translate(147.802734 0)"/>
      <use xlink:href="#DejaVuSans-6e" transform="translate(209.082031 0)"/>
      <use xlink:href="#DejaVuSans-20" transform="translate(272.460938 0)"/>
      <use xlink:href="#DejaVuSans-42" transform="translate(304.248047 0)"/>
      <use xlink:href="#DejaVuSans-61" transform="translate(372.851562 0)"/>
      <use xlink:href="#DejaVuSans-6e" transform="translate(434.130859 0)"/>
      <use xlink:href="#DejaVuSans-64" transform="translate(497.509766 0)"/>
      <use xlink:href="#DejaVuSans-77" transform="translate(560.986328 0)"/>
      <use xlink:href="#DejaVuSans-69" transform="translate(642.773438 0)"/>
      <use xlink:href="#DejaVuSans-64" transform="translate(670.556641 0)"/>
      <use xlink:href="#DejaVuSans-74" transform="translate(734.033203 0)"/>
      <use xlink:href="#DejaVuSans-68" transform="translate(773.242188 0)"/>
      <use xlink:href="#DejaVuSans-20" transform="translate(836.621094 0)"/>
      <use xlink:href="#DejaVuSans-28" transform="translate(868.408203 0)"/>
      <use xlink:href="#DejaVuSans-47" transform="translate(907.421875 0)"/>
      <use xlink:href="#DejaVuSans-69" transform="translate(984.912109 0)"/>
      <use xlink:href="#DejaVuSans-42" transform="translate(1012.695312 0)"/>
      <use xlink:href="#DejaVuSans-2f" transform="translate(1081.298828 0)"/>
      <use xlink:href="#DejaVuSans-73" transform="translate(1114.990234 0)"/>
      <use xlink:href="#DejaVuSans-29" transform="translate(1167.089844 0)"/>
     </g>
    </g>
   </g>
   <g id="FillBetweenPolyCollection_1"/>
   <g id="FillBetweenPolyCollection_2"/>
   <g id="FillBetweenPolyCollection_3"/>
   <g id="FillBetweenPolyCollection_4"/>
   <g id="line2d_15">
    <path d="M 60.013977 180.501018 
L 67.682982 47.719725 
L 77.908322 177.612756 
L 98.359002 48.826263 
L 139.260362 181.908392 
L 221.063082 199.28914 
L 384.668523 200.410513 
" clip-path="url(#p598f2632d0)" style="fill: none; stroke: #3b0f70; stroke-width: 1.5; stroke-linecap: round"/>
   </g>
   <g id="line2d_16">
    <path d="M 60.013977 201.421773 
L 67.682982 167.741817 
L 77.908322 289.639725 
L 98.359002 233.565917 
L 139.260362 195.979263 
L 221.063082 249.550317 
L 384.668523 190.263381 
" clip-path="url(#p598f2632d0)" style="fill: none; stroke: #8c2981; stroke-width: 1.5; stroke-linecap: round"/>
   </g>
   <g id="line2d_17">
    <path d="M 60.013977 269.211296 
L 67.682982 237.228529 
L 77.908322 194.957488 
L 98.359002 262.582677 
L 139.260362 239.558009 
L 221.063082 258.728868 
L 384.668523 261.134452 
" clip-path="url(#p598f2632d0)" style="fill: none; stroke: #de4968; stroke-width: 1.5; stroke-linecap: round"/>
   </g>
   <g id="line2d_18">
    <path d="M 60.013977 199.078315 
L 67.682982 182.828591 
L 77.908322 129.349471 
L 98.359002 177.729203 
L 139.260362 183.337065 
L 221.063082 161.676296 
L 384.668523 194.404132 
" clip-path="url(#p598f2632d0)" style="fill: none; stroke: #fe9f6d; stroke-width: 1.5; stroke-linecap: round"/>
   </g>
   <g id="line2d_19"/>
   <g id="line2d_20"/>
   <g id="line2d_21"/>
   <g id="line2d_22"/>
   <g id="text_17">
    <path d="M 122.56962 134.169698 
L 123.042878 135.709551 
L 128.359926 134.075413 
L 127.508848 132.502928 
L 128.367641 132.238988 
L 129.215965 133.802511 
L 129.505611 134.744943 
L 123.32977 136.643022 
L 123.803027 138.182875 
L 123.00995 138.426618 
L 121.776544 134.413442 
L 122.56962 134.169698 
z
M 128.110444 141.278871 
Q 127.915357 140.644112 127.366435 140.405794 
Q 126.819466 140.168511 126.063729 140.400779 
Q 125.312471 140.631669 124.988699 141.136565 
Q 124.66688 141.642496 124.861966 142.277256 
Q 125.057053 142.912016 125.607009 143.148381 
Q 126.158459 143.384287 126.909716 143.153396 
Q 127.665454 142.921129 127.984745 142.41761 
Q 128.30553 141.913631 128.110444 141.278871 
z
M 131.641346 142.241878 
L 130.782553 142.505819 
Q 130.840583 142.098942 130.817618 141.71042 
Q 130.796146 141.321438 130.686898 140.965973 
Q 130.400006 140.032502 129.618247 139.733339 
Q 128.836948 139.43567 127.541373 139.757023 
Q 128.03208 139.906982 128.376255 140.25563 
Q 128.720889 140.605773 128.874204 141.104619 
Q 129.1969 142.154587 128.746437 142.959961 
Q 128.297466 143.764876 127.201198 144.101802 
Q 126.127334 144.431843 125.282552 143.99676 
Q 124.439263 143.561218 124.11519 142.50677 
Q 123.743378 141.296992 124.472917 140.373154 
Q 125.203949 139.448858 126.963355 138.908123 
Q 128.615224 138.400439 129.838971 138.882514 
Q 131.062718 139.36459 131.468499 140.68489 
Q 131.577747 141.040356 131.618635 141.42337 
Q 131.659522 141.806384 131.641346 142.241878 
z
" clip-path="url(#p598f2632d0)" style="fill: #3b0f70; stroke: #ffffff; stroke-width: 5"/>
    <path d="M 122.56962 134.169698 
L 123.042878 135.709551 
L 128.359926 134.075413 
L 127.508848 132.502928 
L 128.367641 132.238988 
L 129.215965 133.802511 
L 129.505611 134.744943 
L 123.32977 136.643022 
L 123.803027 138.182875 
L 123.00995 138.426618 
L 121.776544 134.413442 
L 122.56962 134.169698 
z
M 128.110444 141.278871 
Q 127.915357 140.644112 127.366435 140.405794 
Q 126.819466 140.168511 126.063729 140.400779 
Q 125.312471 140.631669 124.988699 141.136565 
Q 124.66688 141.642496 124.861966 142.277256 
Q 125.057053 142.912016 125.607009 143.148381 
Q 126.158459 143.384287 126.909716 143.153396 
Q 127.665454 142.921129 127.984745 142.41761 
Q 128.30553 141.913631 128.110444 141.278871 
z
M 131.641346 142.241878 
L 130.782553 142.505819 
Q 130.840583 142.098942 130.817618 141.71042 
Q 130.796146 141.321438 130.686898 140.965973 
Q 130.400006 140.032502 129.618247 139.733339 
Q 128.836948 139.43567 127.541373 139.757023 
Q 128.03208 139.906982 128.376255 140.25563 
Q 128.720889 140.605773 128.874204 141.104619 
Q 129.1969 142.154587 128.746437 142.959961 
Q 128.297466 143.764876 127.201198 144.101802 
Q 126.127334 144.431843 125.282552 143.99676 
Q 124.439263 143.561218 124.11519 142.50677 
Q 123.743378 141.296992 124.472917 140.373154 
Q 125.203949 139.448858 126.963355 138.908123 
Q 128.615224 138.400439 129.838971 138.882514 
Q 131.062718 139.36459 131.468499 140.68489 
Q 131.577747 141.040356 131.618635 141.42337 
Q 131.659522 141.806384 131.641346 142.241878 
z
" clip-path="url(#p598f2632d0)" style="fill: #3b0f70"/>
   </g>
   <g id="text_18">
    <path d="M 188.914429 227.095968 
Q 189.423532 227.61054 189.492747 228.229264 
Q 189.564126 228.847536 189.178915 229.435752 
Q 188.588258 230.337682 187.64293 230.426478 
Q 186.698459 230.513967 185.554707 229.764946 
Q 185.171714 229.51413 184.814841 229.172092 
Q 184.457968 228.830054 184.124602 228.395081 
L 184.645921 227.59903 
Q 184.857421 228.023302 185.198481 228.392339 
Q 185.540847 228.762232 185.986584 229.054136 
Q 186.761721 229.561759 187.368553 229.52211 
Q 187.975384 229.482462 188.358027 228.898168 
Q 188.711566 228.358317 188.532398 227.807668 
Q 188.354087 227.255713 187.680907 226.81486 
L 186.969821 226.349183 
L 187.414097 225.670774 
L 188.157863 226.157852 
Q 188.765685 226.555904 189.247771 226.524213 
Q 189.729856 226.492522 190.029465 226.035021 
Q 190.336778 225.565756 190.167812 225.096498 
Q 190.00101 224.626789 189.380116 224.220177 
Q 189.040259 223.997611 188.603243 223.817879 
Q 188.167084 223.636839 187.600729 223.486338 
L 188.081815 222.751722 
Q 188.63799 222.929177 189.091234 223.132611 
Q 189.544479 223.336046 189.907865 223.57402 
Q 190.847703 224.189502 191.114169 224.974757 
Q 191.382799 225.75956 190.906849 226.486333 
Q 190.574712 226.993505 190.055967 227.152476 
Q 189.537222 227.311446 188.914429 227.095968 
z
M 190.74827 232.004378 
L 193.627911 233.8902 
L 193.173362 234.584294 
L 189.301598 232.048749 
L 189.756147 231.354655 
Q 190.543854 231.17571 191.890155 230.888173 
Q 193.238619 230.600184 193.602252 230.498391 
Q 194.289365 230.313338 194.648244 230.107574 
Q 195.008431 229.902667 195.203604 229.604638 
Q 195.522045 229.11838 195.38119 228.589086 
Q 195.241191 228.058484 194.693497 227.69981 
Q 194.305275 227.445571 193.785747 227.297718 
Q 193.267526 227.150722 192.597581 227.104214 
L 193.143725 226.270255 
Q 193.772719 226.396407 194.272154 226.577794 
Q 194.772896 226.760037 195.132361 226.995444 
Q 196.080041 227.616061 196.332684 228.459502 
Q 196.586182 229.301635 196.067431 230.093765 
Q 195.820896 230.470222 195.45887 230.715015 
Q 195.099007 230.959357 194.426862 231.172891 
Q 194.247007 231.225071 193.328654 231.43239 
Q 192.411609 231.640566 190.74827 232.004378 
z
" clip-path="url(#p598f2632d0)" style="fill: #8c2981; stroke: #ffffff; stroke-width: 5"/>
    <path d="M 188.914429 227.095968 
Q 189.423532 227.61054 189.492747 228.229264 
Q 189.564126 228.847536 189.178915 229.435752 
Q 188.588258 230.337682 187.64293 230.426478 
Q 186.698459 230.513967 185.554707 229.764946 
Q 185.171714 229.51413 184.814841 229.172092 
Q 184.457968 228.830054 184.124602 228.395081 
L 184.645921 227.59903 
Q 184.857421 228.023302 185.198481 228.392339 
Q 185.540847 228.762232 185.986584 229.054136 
Q 186.761721 229.561759 187.368553 229.52211 
Q 187.975384 229.482462 188.358027 228.898168 
Q 188.711566 228.358317 188.532398 227.807668 
Q 188.354087 227.255713 187.680907 226.81486 
L 186.969821 226.349183 
L 187.414097 225.670774 
L 188.157863 226.157852 
Q 188.765685 226.555904 189.247771 226.524213 
Q 189.729856 226.492522 190.029465 226.035021 
Q 190.336778 225.565756 190.167812 225.096498 
Q 190.00101 224.626789 189.380116 224.220177 
Q 189.040259 223.997611 188.603243 223.817879 
Q 188.167084 223.636839 187.600729 223.486338 
L 188.081815 222.751722 
Q 188.63799 222.929177 189.091234 223.132611 
Q 189.544479 223.336046 189.907865 223.57402 
Q 190.847703 224.189502 191.114169 224.974757 
Q 191.382799 225.75956 190.906849 226.486333 
Q 190.574712 226.993505 190.055967 227.152476 
Q 189.537222 227.311446 188.914429 227.095968 
z
M 190.74827 232.004378 
L 193.627911 233.8902 
L 193.173362 234.584294 
L 189.301598 232.048749 
L 189.756147 231.354655 
Q 190.543854 231.17571 191.890155 230.888173 
Q 193.238619 230.600184 193.602252 230.498391 
Q 194.289365 230.313338 194.648244 230.107574 
Q 195.008431 229.902667 195.203604 229.604638 
Q 195.522045 229.11838 195.38119 228.589086 
Q 195.241191 228.058484 194.693497 227.69981 
Q 194.305275 227.445571 193.785747 227.297718 
Q 193.267526 227.150722 192.597581 227.104214 
L 193.143725 226.270255 
Q 193.772719 226.396407 194.272154 226.577794 
Q 194.772896 226.760037 195.132361 226.995444 
Q 196.080041 227.616061 196.332684 228.459502 
Q 196.586182 229.301635 196.067431 230.093765 
Q 195.820896 230.470222 195.45887 230.715015 
Q 195.099007 230.959357 194.426862 231.172891 
Q 194.247007 231.225071 193.328654 231.43239 
Q 192.411609 231.640566 190.74827 232.004378 
z
" clip-path="url(#p598f2632d0)" style="fill: #8c2981"/>
   </g>
   <g id="text_19">
    <path d="M 251.440234 257.897258 
Q 250.776244 257.887495 250.380538 258.336413 
Q 249.986418 258.783792 249.974795 259.574332 
Q 249.96324 260.360184 250.343967 260.823644 
Q 250.72628 261.285565 251.390271 261.295328 
Q 252.054261 261.305091 252.448427 260.854587 
Q 252.842616 260.402521 252.854171 259.616669 
Q 252.865795 258.826129 252.484998 258.367356 
Q 252.104225 257.907021 251.440234 257.897258 
z
M 253.443296 254.834188 
L 253.430088 255.732528 
Q 253.060826 255.55208 252.684097 255.454343 
Q 252.307391 255.355044 251.935556 255.349577 
Q 250.959099 255.33522 250.433836 255.986943 
Q 249.910135 256.638689 249.81711 257.970277 
Q 250.110828 257.54955 250.548487 257.329398 
Q 250.987708 257.109269 251.509526 257.116942 
Q 252.607845 257.133091 253.235467 257.809579 
Q 253.863112 258.484505 253.846251 259.631256 
Q 253.829734 260.754572 253.155751 261.424423 
Q 252.48179 262.092712 251.378785 262.076493 
Q 250.113296 262.057886 249.458861 261.079409 
Q 248.804449 260.099369 248.83151 258.258943 
Q 248.856917 256.531005 249.692256 255.515051 
Q 250.527595 254.499098 251.908696 254.519405 
Q 252.280531 254.524872 252.657535 254.603861 
Q 253.03454 254.68285 253.443296 254.834188 
z
M 258.315118 255.604334 
L 255.767539 259.459484 
L 258.257895 259.496101 
L 258.315118 255.604334 
z
M 258.068405 254.741239 
L 259.308896 254.759478 
L 259.239039 259.510527 
L 260.279551 259.525827 
L 260.267491 260.34605 
L 259.226978 260.330751 
L 259.201709 262.049315 
L 258.220565 262.034889 
L 258.245834 260.316325 
L 254.955565 260.267946 
L 254.969555 259.316487 
L 258.068405 254.741239 
z
" clip-path="url(#p598f2632d0)" style="fill: #de4968; stroke: #ffffff; stroke-width: 5"/>
    <path d="M 251.440234 257.897258 
Q 250.776244 257.887495 250.380538 258.336413 
Q 249.986418 258.783792 249.974795 259.574332 
Q 249.96324 260.360184 250.343967 260.823644 
Q 250.72628 261.285565 251.390271 261.295328 
Q 252.054261 261.305091 252.448427 260.854587 
Q 252.842616 260.402521 252.854171 259.616669 
Q 252.865795 258.826129 252.484998 258.367356 
Q 252.104225 257.907021 251.440234 257.897258 
z
M 253.443296 254.834188 
L 253.430088 255.732528 
Q 253.060826 255.55208 252.684097 255.454343 
Q 252.307391 255.355044 251.935556 255.349577 
Q 250.959099 255.33522 250.433836 255.986943 
Q 249.910135 256.638689 249.81711 257.970277 
Q 250.110828 257.54955 250.548487 257.329398 
Q 250.987708 257.109269 251.509526 257.116942 
Q 252.607845 257.133091 253.235467 257.809579 
Q 253.863112 258.484505 253.846251 259.631256 
Q 253.829734 260.754572 253.155751 261.424423 
Q 252.48179 262.092712 251.378785 262.076493 
Q 250.113296 262.057886 249.458861 261.079409 
Q 248.804449 260.099369 248.83151 258.258943 
Q 248.856917 256.531005 249.692256 255.515051 
Q 250.527595 254.499098 251.908696 254.519405 
Q 252.280531 254.524872 252.657535 254.603861 
Q 253.03454 254.68285 253.443296 254.834188 
z
M 258.315118 255.604334 
L 255.767539 259.459484 
L 258.257895 259.496101 
L 258.315118 255.604334 
z
M 258.068405 254.741239 
L 259.308896 254.759478 
L 259.239039 259.510527 
L 260.279551 259.525827 
L 260.267491 260.34605 
L 259.226978 260.330751 
L 259.201709 262.049315 
L 258.220565 262.034889 
L 258.245834 260.316325 
L 254.955565 260.267946 
L 254.969555 259.316487 
L 258.068405 254.741239 
z
" clip-path="url(#p598f2632d0)" style="fill: #de4968"/>
   </g>
   <g id="text_20">
    <path d="M 310.243313 181.483939 
L 311.822954 181.799932 
L 312.914067 176.345495 
L 311.126039 176.346344 
L 311.302272 175.46536 
L 313.081107 175.462673 
L 314.04789 175.656069 
L 312.780545 181.99149 
L 314.360187 182.307483 
L 314.197439 183.121052 
L 310.080565 182.297508 
L 310.243313 181.483939 
z
M 317.146967 182.864954 
L 320.522283 183.540157 
L 320.359536 184.353726 
L 315.821322 183.445896 
L 315.984069 182.632327 
Q 316.648124 182.172399 317.789918 181.403302 
Q 318.933551 180.632978 319.232944 180.40286 
Q 319.801391 179.974798 320.057581 179.649991 
Q 320.315303 179.32549 320.385183 178.976161 
Q 320.499198 178.406203 320.171027 177.967687 
Q 319.843163 177.527638 319.201194 177.399218 
Q 318.746147 177.30819 318.20897 177.364858 
Q 317.673326 177.421833 317.034408 177.628649 
L 317.22995 176.65114 
Q 317.860591 176.533496 318.391637 176.515437 
Q 318.924216 176.497685 319.345556 176.581971 
Q 320.456361 176.804178 321.005459 177.492444 
Q 321.554863 178.179179 321.369129 179.107659 
Q 321.280859 179.548917 321.036313 179.911109 
Q 320.793605 180.272076 320.249671 180.720976 
Q 320.102273 180.836495 319.327593 181.371494 
Q 318.554445 181.906799 317.146967 182.864954 
z
M 325.137019 181.77832 
Q 324.447554 181.640399 323.978396 181.930571 
Q 323.51077 182.221049 323.381737 182.866082 
Q 323.252397 183.512648 323.572294 183.960663 
Q 323.893722 184.408985 324.583188 184.546907 
Q 325.272653 184.684828 325.74365 184.393431 
Q 326.216485 184.100807 326.344905 183.458838 
Q 326.473939 182.813805 326.15251 182.365483 
Q 325.832613 181.917468 325.137019 181.77832 
z
M 324.252376 181.174309 
Q 323.660974 180.896659 323.398382 180.401148 
Q 323.137628 179.904413 323.260225 179.291555 
Q 323.431554 178.435086 324.140958 178.059122 
Q 324.851894 177.683465 325.913671 177.895865 
Q 326.981576 178.10949 327.490227 178.729114 
Q 327.998879 179.348739 327.82755 180.205208 
Q 327.704953 180.818066 327.271645 181.175961 
Q 326.840175 181.53263 326.192071 181.562328 
Q 326.858241 181.864496 327.152394 182.41731 
Q 327.448385 182.968898 327.311689 183.652235 
Q 327.103581 184.692562 326.358016 185.121843 
Q 325.612758 185.549591 324.429942 185.312979 
Q 323.248658 185.076674 322.723768 184.394843 
Q 322.200716 183.711786 322.408825 182.67146 
Q 322.54552 181.988123 323.032455 181.593152 
Q 323.521229 181.196956 324.252376 181.174309 
z
M 324.204023 179.57596 
Q 324.093073 180.130597 324.377119 180.51089 
Q 324.662699 180.891489 325.289346 181.016844 
Q 325.912929 181.141587 326.326008 180.900748 
Q 326.740619 180.660216 326.85157 180.105579 
Q 326.962826 179.54941 326.672651 179.167892 
Q 326.384007 178.78668 325.760424 178.661937 
Q 325.133777 178.536582 324.723762 178.778034 
Q 324.315279 179.019792 324.204023 179.57596 
z
" clip-path="url(#p598f2632d0)" style="fill: #fe9f6d; stroke: #ffffff; stroke-width: 5"/>
    <path d="M 310.243313 181.483939 
L 311.822954 181.799932 
L 312.914067 176.345495 
L 311.126039 176.346344 
L 311.302272 175.46536 
L 313.081107 175.462673 
L 314.04789 175.656069 
L 312.780545 181.99149 
L 314.360187 182.307483 
L 314.197439 183.121052 
L 310.080565 182.297508 
L 310.243313 181.483939 
z
M 317.146967 182.864954 
L 320.522283 183.540157 
L 320.359536 184.353726 
L 315.821322 183.445896 
L 315.984069 182.632327 
Q 316.648124 182.172399 317.789918 181.403302 
Q 318.933551 180.632978 319.232944 180.40286 
Q 319.801391 179.974798 320.057581 179.649991 
Q 320.315303 179.32549 320.385183 178.976161 
Q 320.499198 178.406203 320.171027 177.967687 
Q 319.843163 177.527638 319.201194 177.399218 
Q 318.746147 177.30819 318.20897 177.364858 
Q 317.673326 177.421833 317.034408 177.628649 
L 317.22995 176.65114 
Q 317.860591 176.533496 318.391637 176.515437 
Q 318.924216 176.497685 319.345556 176.581971 
Q 320.456361 176.804178 321.005459 177.492444 
Q 321.554863 178.179179 321.369129 179.107659 
Q 321.280859 179.548917 321.036313 179.911109 
Q 320.793605 180.272076 320.249671 180.720976 
Q 320.102273 180.836495 319.327593 181.371494 
Q 318.554445 181.906799 317.146967 182.864954 
z
M 325.137019 181.77832 
Q 324.447554 181.640399 323.978396 181.930571 
Q 323.51077 182.221049 323.381737 182.866082 
Q 323.252397 183.512648 323.572294 183.960663 
Q 323.893722 184.408985 324.583188 184.546907 
Q 325.272653 184.684828 325.74365 184.393431 
Q 326.216485 184.100807 326.344905 183.458838 
Q 326.473939 182.813805 326.15251 182.365483 
Q 325.832613 181.917468 325.137019 181.77832 
z
M 324.252376 181.174309 
Q 323.660974 180.896659 323.398382 180.401148 
Q 323.137628 179.904413 323.260225 179.291555 
Q 323.431554 178.435086 324.140958 178.059122 
Q 324.851894 177.683465 325.913671 177.895865 
Q 326.981576 178.10949 327.490227 178.729114 
Q 327.998879 179.348739 327.82755 180.205208 
Q 327.704953 180.818066 327.271645 181.175961 
Q 326.840175 181.53263 326.192071 181.562328 
Q 326.858241 181.864496 327.152394 182.41731 
Q 327.448385 182.968898 327.311689 183.652235 
Q 327.103581 184.692562 326.358016 185.121843 
Q 325.612758 185.549591 324.429942 185.312979 
Q 323.248658 185.076674 322.723768 184.394843 
Q 322.200716 183.711786 322.408825 182.67146 
Q 322.54552 181.988123 323.032455 181.593152 
Q 323.521229 181.196956 324.252376 181.174309 
z
M 324.204023 179.57596 
Q 324.093073 180.130597 324.377119 180.51089 
Q 324.662699 180.891489 325.289346 181.016844 
Q 325.912929 181.141587 326.326008 180.900748 
Q 326.740619 180.660216 326.85157 180.105579 
Q 326.962826 179.54941 326.672651 179.167892 
Q 326.384007 178.78668 325.760424 178.661937 
Q 325.133777 178.536582 324.723762 178.778034 
Q 324.315279 179.019792 324.204023 179.57596 
z
" clip-path="url(#p598f2632d0)" style="fill: #fe9f6d"/>
   </g>
   <g id="patch_3">
    <path d="M 43.78125 301.735725 
L 43.78125 35.623725 
" style="fill: none; stroke: #cccccc; stroke-width: 0.8; stroke-linejoin: miter; stroke-linecap: square"/>
   </g>
   <g id="patch_4">
    <path d="M 400.90125 301.735725 
L 400.90125 35.623725 
" style="fill: none; stroke: #cccccc; stroke-width: 0.8; stroke-linejoin: miter; stroke-linecap: square"/>
   </g>
   <g id="patch_5">
    <path d="M 43.78125 301.735725 
L 400.90125 301.735725 
" style="fill: none; stroke: #cccccc; stroke-width: 0.8; stroke-linejoin: miter; stroke-linecap: square"/>
   </g>
   <g id="patch_6">
    <path d="M 43.78125 35.623725 
L 400.90125 35.623725 
" style="fill: none; stroke: #cccccc; stroke-width: 0.8; stroke-linejoin: miter; stroke-linecap: square"/>
   </g>
   <g id="text_21">
    <!-- Block Size = 4M, Read-Write Type = Random Read-heavy 4:1 -->
    <g style="fill: #262626; opacity: 0.75" transform="translate(69.595938 30.882918) scale(0.1 -0.1)">
     <defs>
      <path id="DejaVuSans-6c" d="M 603 4863 
L 1178 4863 
L 1178 0 
L 603 0 
L 603 4863 
z
" transform="scale(0.015625)"/>
      <path id="DejaVuSans-6f" d="M 1959 3097 
Q 1497 3097 1228 2736 
Q 959 2375 959 1747 
Q 959 1119 1226 758 
Q 1494 397 1959 397 
Q 2419 397 2687 759 
Q 2956 1122 2956 1747 
Q 2956 2369 2687 2733 
Q 2419 3097 1959 3097 
z
M 1959 3584 
Q 2709 3584 3137 3096 
Q 3566 2609 3566 1747 
Q 3566 888 3137 398 
Q 2709 -91 1959 -91 
Q 1206 -91 779 398 
Q 353 888 353 1747 
Q 353 2609 779 3096 
Q 1206 3584 1959 3584 
z
" transform="scale(0.015625)"/>
      <path id="DejaVuSans-63" d="M 3122 3366 
L 3122 2828 
Q 2878 2963 2633 3030 
Q 2388 3097 2138 3097 
Q 1578 3097 1268 2742 
Q 959 2388 959 1747 
Q 959 1106 1268 751 
Q 1578 397 2138 397 
Q 2388 397 2633 464 
Q 2878 531 3122 666 
L 3122 134 
Q 2881 22 2623 -34 
Q 2366 -91 2075 -91 
Q 1284 -91 818 406 
Q 353 903 353 1747 
Q 353 2603 823 3093 
Q 1294 3584 2113 3584 
Q 2378 3584 2631 3529 
Q 2884 3475 3122 3366 
z
" transform="scale(0.015625)"/>
      <path id="DejaVuSans-6b" d="M 581 4863 
L 1159 4863 
L 1159 1991 
L 2875 3500 
L 3609 3500 
L 1753 1863 
L 3688 0 
L 2938 0 
L 1159 1709 
L 1159 0 
L 581 0 
L 581 4863 
z
" transform="scale(0.015625)"/>
      <path id="DejaVuSans-53" d="M 3425 4513 
L 3425 3897 
Q 3066 4069 2747 4153 
Q 2428 4238 2131 4238 
Q 1616 4238 1336 4038 
Q 1056 3838 1056 3469 
Q 1056 3159 1242 3001 
Q 1428 2844 1947 2747 
L 2328 2669 
Q 3034 2534 3370 2195 
Q 3706 1856 3706 1288 
Q 3706 609 3251 259 
Q 2797 -91 1919 -91 
Q 1588 -91 1214 -16 
Q 841 59 441 206 
L 441 856 
Q 825 641 1194 531 
Q 1563 422 1919 422 
Q 2459 422 2753 634 
Q 3047 847 3047 1241 
Q 3047 1584 2836 1778 
Q 2625 1972 2144 2069 
L 1759 2144 
Q 1053 2284 737 2584 
Q 422 2884 422 3419 
Q 422 4038 858 4394 
Q 1294 4750 2059 4750 
Q 2388 4750 2728 4690 
Q 3069 4631 3425 4513 
z
" transform="scale(0.015625)"/>
      <path id="DejaVuSans-7a" d="M 353 3500 
L 3084 3500 
L 3084 2975 
L 922 459 
L 3084 459 
L 3084 0 
L 275 0 
L 275 525 
L 2438 3041 
L 353 3041 
L 353 3500 
z
" transform="scale(0.015625)"/>
      <path id="DejaVuSans-3d" d="M 678 2906 
L 4684 2906 
L 4684 2381 
L 678 2381 
L 678 2906 
z
M 678 1631 
L 4684 1631 
L 4684 1100 
L 678 1100 
L 678 1631 
z
" transform="scale(0.015625)"/>
      <path id="DejaVuSans-2c" d="M 750 794 
L 1409 794 
L 1409 256 
L 897 -744 
L 494 -744 
L 750 256 
L 750 794 
z
" transform="scale(0.015625)"/>
      <path id="DejaVuSans-52" d="M 2841 2188 
Q 3044 2119 3236 1894 
Q 3428 1669 3622 1275 
L 4263 0 
L 3584 0 
L 2988 1197 
Q 2756 1666 2539 1819 
Q 2322 1972 1947 1972 
L 1259 1972 
L 1259 0 
L 628 0 
L 628 4666 
L 2053 4666 
Q 2853 4666 3247 4331 
Q 3641 3997 3641 3322 
Q 3641 2881 3436 2590 
Q 3231 2300 2841 2188 
z
M 1259 4147 
L 1259 2491 
L 2053 2491 
Q 2509 2491 2742 2702 
Q 2975 2913 2975 3322 
Q 2975 3731 2742 3939 
Q 2509 4147 2053 4147 
L 1259 4147 
z
" transform="scale(0.015625)"/>
      <path id="DejaVuSans-2d" d="M 313 2009 
L 1997 2009 
L 1997 1497 
L 313 1497 
L 313 2009 
z
" transform="scale(0.015625)"/>
      <path id="DejaVuSans-57" d="M 213 4666 
L 850 4666 
L 1831 722 
L 2809 4666 
L 3519 4666 
L 4500 722 
L 5478 4666 
L 6119 4666 
L 4947 0 
L 4153 0 
L 3169 4050 
L 2175 0 
L 1381 0 
L 213 4666 
z
" transform="scale(0.015625)"/>
      <path id="DejaVuSans-72" d="M 2631 2963 
Q 2534 3019 2420 3045 
Q 2306 3072 2169 3072 
Q 1681 3072 1420 2755 
Q 1159 2438 1159 1844 
L 1159 0 
L 581 0 
L 581 3500 
L 1159 3500 
L 1159 2956 
Q 1341 3275 1631 3429 
Q 1922 3584 2338 3584 
Q 2397 3584 2469 3576 
Q 2541 3569 2628 3553 
L 2631 2963 
z
" transform="scale(0.015625)"/>
      <path id="DejaVuSans-54" d="M -19 4666 
L 3928 4666 
L 3928 4134 
L 2272 4134 
L 2272 0 
L 1638 0 
L 1638 4134 
L -19 4134 
L -19 4666 
z
" transform="scale(0.015625)"/>
      <path id="DejaVuSans-79" d="M 2059 -325 
Q 1816 -950 1584 -1140 
Q 1353 -1331 966 -1331 
L 506 -1331 
L 506 -850 
L 844 -850 
Q 1081 -850 1212 -737 
Q 1344 -625 1503 -206 
L 1606 56 
L 191 3500 
L 800 3500 
L 1894 763 
L 2988 3500 
L 3597 3500 
L 2059 -325 
z
" transform="scale(0.015625)"/>
      <path id="DejaVuSans-6d" d="M 3328 2828 
Q 3544 3216 3844 3400 
Q 4144 3584 4550 3584 
Q 5097 3584 5394 3201 
Q 5691 2819 5691 2113 
L 5691 0 
L 5113 0 
L 5113 2094 
Q 5113 2597 4934 2840 
Q 4756 3084 4391 3084 
Q 3944 3084 3684 2787 
Q 3425 2491 3425 1978 
L 3425 0 
L 2847 0 
L 2847 2094 
Q 2847 2600 2669 2842 
Q 2491 3084 2119 3084 
Q 1678 3084 1418 2786 
Q 1159 2488 1159 1978 
L 1159 0 
L 581 0 
L 581 3500 
L 1159 3500 
L 1159 2956 
Q 1356 3278 1631 3431 
Q 1906 3584 2284 3584 
Q 2666 3584 2933 3390 
Q 3200 3197 3328 2828 
z
" transform="scale(0.015625)"/>
      <path id="DejaVuSans-76" d="M 191 3500 
L 800 3500 
L 1894 563 
L 2988 3500 
L 3597 3500 
L 2284 0 
L 1503 0 
L 191 3500 
z
" transform="scale(0.015625)"/>
      <path id="DejaVuSans-3a" d="M 750 794 
L 1409 794 
L 1409 0 
L 750 0 
L 750 794 
z
M 750 3309 
L 1409 3309 
L 1409 2516 
L 750 2516 
L 750 3309 
z
" transform="scale(0.015625)"/>
     </defs>
     <use xlink:href="#DejaVuSans-42"/>
     <use xlink:href="#DejaVuSans-6c" transform="translate(68.603516 0)"/>
     <use xlink:href="#DejaVuSans-6f" transform="translate(96.386719 0)"/>
     <use xlink:href="#DejaVuSans-63" transform="translate(157.568359 0)"/>
     <use xlink:href="#DejaVuSans-6b" transform="translate(212.548828 0)"/>
     <use xlink:href="#DejaVuSans-20" transform="translate(270.458984 0)"/>
     <use xlink:href="#DejaVuSans-53" transform="translate(302.246094 0)"/>
     <use xlink:href="#DejaVuSans-69" transform="translate(365.722656 0)"/>
     <use xlink:href="#DejaVuSans-7a" transform="translate(393.505859 0)"/>
     <use xlink:href="#DejaVuSans-65" transform="translate(445.996094 0)"/>
     <use xlink:href="#DejaVuSans-20" transform="translate(507.519531 0)"/>
     <use xlink:href="#DejaVuSans-3d" transform="translate(539.306641 0)"/>
     <use xlink:href="#DejaVuSans-20" transform="translate(623.095703 0)"/>
     <use xlink:href="#DejaVuSans-34" transform="translate(654.882812 0)"/>
     <use xlink:href="#DejaVuSans-4d" transform="translate(718.505859 0)"/>
     <use xlink:href="#DejaVuSans-2c" transform="translate(804.785156 0)"/>
     <use xlink:href="#DejaVuSans-20" transform="translate(836.572266 0)"/>
     <use xlink:href="#DejaVuSans-52" transform="translate(868.359375 0)"/>
     <use xlink:href="#DejaVuSans-65" transform="translate(933.341797 0)"/>
     <use xlink:href="#DejaVuSans-61" transform="translate(994.865234 0)"/>
     <use xlink:href="#DejaVuSans-64" transform="translate(1056.144531 0)"/>
     <use xlink:href="#DejaVuSans-2d" transform="translate(1119.621094 0)"/>
     <use xlink:href="#DejaVuSans-57" transform="translate(1151.705078 0)"/>
     <use xlink:href="#DejaVuSans-72" transform="translate(1246.082031 0)"/>
     <use xlink:href="#DejaVuSans-69" transform="translate(1287.195312 0)"/>
     <use xlink:href="#DejaVuSans-74" transform="translate(1314.978516 0)"/>
     <use xlink:href="#DejaVuSans-65" transform="translate(1354.1875 0)"/>
     <use xlink:href="#DejaVuSans-20" transform="translate(1415.710938 0)"/>
     <use xlink:href="#DejaVuSans-54" transform="translate(1447.498047 0)"/>
     <use xlink:href="#DejaVuSans-79" transform="translate(1492.957031 0)"/>
     <use xlink:href="#DejaVuSans-70" transform="translate(1552.136719 0)"/>
     <use xlink:href="#DejaVuSans-65" transform="translate(1615.613281 0)"/>
     <use xlink:href="#DejaVuSans-20" transform="translate(1677.136719 0)"/>
     <use xlink:href="#DejaVuSans-3d" transform="translate(1708.923828 0)"/>
     <use xlink:href="#DejaVuSans-20" transform="translate(1792.712891 0)"/>
     <use xlink:href="#DejaVuSans-52" transform="translate(1824.5 0)"/>
     <use xlink:href="#DejaVuSans-61" transform="translate(1891.732422 0)"/>
     <use xlink:href="#DejaVuSans-6e" transform="translate(1953.011719 0)"/>
     <use xlink:href="#DejaVuSans-64" transform="translate(2016.390625 0)"/>
     <use xlink:href="#DejaVuSans-6f" transform="translate(2079.867188 0)"/>
     <use xlink:href="#DejaVuSans-6d" transform="translate(2141.048828 0)"/>
     <use xlink:href="#DejaVuSans-20" transform="translate(2238.460938 0)"/>
     <use xlink:href="#DejaVuSans-52" transform="translate(2270.248047 0)"/>
     <use xlink:href="#DejaVuSans-65" transform="translate(2335.230469 0)"/>
     <use xlink:href="#DejaVuSans-61" transform="translate(2396.753906 0)"/>
     <use xlink:href="#DejaVuSans-64" transform="translate(2458.033203 0)"/>
     <use xlink:href="#DejaVuSans-2d" transform="translate(2521.509766 0)"/>
     <use xlink:href="#DejaVuSans-68" transform="translate(2557.59375 0)"/>
     <use xlink:href="#DejaVuSans-65" transform="translate(2620.972656 0)"/>
     <use xlink:href="#DejaVuSans-61" transform="translate(2682.496094 0)"/>
     <use xlink:href="#DejaVuSans-76" transform="translate(2743.775391 0)"/>
     <use xlink:href="#DejaVuSans-79" transform="translate(2802.955078 0)"/>
     <use xlink:href="#DejaVuSans-20" transform="translate(2862.134766 0)"/>
     <use xlink:href="#DejaVuSans-34" transform="translate(2893.921875 0)"/>
     <use xlink:href="#DejaVuSans-3a" transform="translate(2957.544922 0)"/>
     <use xlink:href="#DejaVuSans-31" transform="translate(2991.236328 0)"/>
    </g>
   </g>
   <g id="text_22">
    <!-- Mean Bandwidth vs IO Depth -->
    <g style="fill: #262626" transform="translate(124.103438 16.318125) scale(0.12 -0.12)">
     <defs>
      <path id="DejaVuSans-Bold-4d" d="M 588 4666 
L 2119 4666 
L 3181 2169 
L 4250 4666 
L 5778 4666 
L 5778 0 
L 4641 0 
L 4641 3413 
L 3566 897 
L 2803 897 
L 1728 3413 
L 1728 0 
L 588 0 
L 588 4666 
z
" transform="scale(0.015625)"/>
      <path id="DejaVuSans-Bold-65" d="M 4031 1759 
L 4031 1441 
L 1416 1441 
Q 1456 1047 1700 850 
Q 1944 653 2381 653 
Q 2734 653 3104 758 
Q 3475 863 3866 1075 
L 3866 213 
Q 3469 63 3072 -14 
Q 2675 -91 2278 -91 
Q 1328 -91 801 392 
Q 275 875 275 1747 
Q 275 2603 792 3093 
Q 1309 3584 2216 3584 
Q 3041 3584 3536 3087 
Q 4031 2591 4031 1759 
z
M 2881 2131 
Q 2881 2450 2695 2645 
Q 2509 2841 2209 2841 
Q 1884 2841 1681 2658 
Q 1478 2475 1428 2131 
L 2881 2131 
z
" transform="scale(0.015625)"/>
      <path id="DejaVuSans-Bold-61" d="M 2106 1575 
Q 1756 1575 1579 1456 
Q 1403 1338 1403 1106 
Q 1403 894 1545 773 
Q 1688 653 1941 653 
Q 2256 653 2472 879 
Q 2688 1106 2688 1447 
L 2688 1575 
L 2106 1575 
z
M 3816 1997 
L 3816 0 
L 2688 0 
L 2688 519 
Q 2463 200 2181 54 
Q 1900 -91 1497 -91 
Q 953 -91 614 226 
Q 275 544 275 1050 
Q 275 1666 698 1953 
Q 1122 2241 2028 2241 
L 2688 2241 
L 2688 2328 
Q 2688 2594 2478 2717 
Q 2269 2841 1825 2841 
Q 1466 2841 1156 2769 
Q 847 2697 581 2553 
L 581 3406 
Q 941 3494 1303 3539 
Q 1666 3584 2028 3584 
Q 2975 3584 3395 3211 
Q 3816 2838 3816 1997 
z
" transform="scale(0.015625)"/>
      <path id="DejaVuSans-Bold-6e" d="M 4056 2131 
L 4056 0 
L 2931 0 
L 2931 347 
L 2931 1631 
Q 2931 2084 2911 2256 
Q 2891 2428 2841 2509 
Q 2775 2619 2662 2680 
Q 2550 2741 2406 2741 
Q 2056 2741 1856 2470 
Q 1656 2200 1656 1722 
L 1656 0 
L 538 0 
L 538 3500 
L 1656 3500 
L 1656 2988 
Q 1909 3294 2193 3439 
Q 2478 3584 2822 3584 
Q 3428 3584 3742 3212 
Q 4056 2841 4056 2131 
z
" transform="scale(0.015625)"/>
      <path id="DejaVuSans-Bold-20" transform="scale(0.015625)"/>
      <path id="DejaVuSans-Bold-42" d="M 2456 2859 
Q 2741 2859 2887 2984 
Q 3034 3109 3034 3353 
Q 3034 3594 2887 3720 
Q 2741 3847 2456 3847 
L 1791 3847 
L 1791 2859 
L 2456 2859 
z
M 2497 819 
Q 2859 819 3042 972 
Q 3225 1125 3225 1434 
Q 3225 1738 3044 1889 
Q 2863 2041 2497 2041 
L 1791 2041 
L 1791 819 
L 2497 819 
z
M 3616 2497 
Q 4003 2384 4215 2081 
Q 4428 1778 4428 1338 
Q 4428 663 3972 331 
Q 3516 0 2584 0 
L 588 0 
L 588 4666 
L 2394 4666 
Q 3366 4666 3802 4372 
Q 4238 4078 4238 3431 
Q 4238 3091 4078 2852 
Q 3919 2613 3616 2497 
z
" transform="scale(0.015625)"/>
      <path id="DejaVuSans-Bold-64" d="M 2919 2988 
L 2919 4863 
L 4044 4863 
L 4044 0 
L 2919 0 
L 2919 506 
Q 2688 197 2409 53 
Q 2131 -91 1766 -91 
Q 1119 -91 703 423 
Q 288 938 288 1747 
Q 288 2556 703 3070 
Q 1119 3584 1766 3584 
Q 2128 3584 2408 3439 
Q 2688 3294 2919 2988 
z
M 2181 722 
Q 2541 722 2730 984 
Q 2919 1247 2919 1747 
Q 2919 2247 2730 2509 
Q 2541 2772 2181 2772 
Q 1825 2772 1636 2509 
Q 1447 2247 1447 1747 
Q 1447 1247 1636 984 
Q 1825 722 2181 722 
z
" transform="scale(0.015625)"/>
      <path id="DejaVuSans-Bold-77" d="M 225 3500 
L 1313 3500 
L 1900 1088 
L 2491 3500 
L 3425 3500 
L 4013 1113 
L 4603 3500 
L 5691 3500 
L 4769 0 
L 3547 0 
L 2956 2406 
L 2369 0 
L 1147 0 
L 225 3500 
z
" transform="scale(0.015625)"/>
      <path id="DejaVuSans-Bold-69" d="M 538 3500 
L 1656 3500 
L 1656 0 
L 538 0 
L 538 3500 
z
M 538 4863 
L 1656 4863 
L 1656 3950 
L 538 3950 
L 538 4863 
z
" transform="scale(0.015625)"/>
      <path id="DejaVuSans-Bold-74" d="M 1759 4494 
L 1759 3500 
L 2913 3500 
L 2913 2700 
L 1759 2700 
L 1759 1216 
Q 1759 972 1856 886 
Q 1953 800 2241 800 
L 2816 800 
L 2816 0 
L 1856 0 
Q 1194 0 917 276 
Q 641 553 641 1216 
L 641 2700 
L 84 2700 
L 84 3500 
L 641 3500 
L 641 4494 
L 1759 4494 
z
" transform="scale(0.015625)"/>
      <path id="DejaVuSans-Bold-68" d="M 4056 2131 
L 4056 0 
L 2931 0 
L 2931 347 
L 2931 1625 
Q 2931 2084 2911 2256 
Q 2891 2428 2841 2509 
Q 2775 2619 2662 2680 
Q 2550 2741 2406 2741 
Q 2056 2741 1856 2470 
Q 1656 2200 1656 1722 
L 1656 0 
L 538 0 
L 538 4863 
L 1656 4863 
L 1656 2988 
Q 1909 3294 2193 3439 
Q 2478 3584 2822 3584 
Q 3428 3584 3742 3212 
Q 4056 2841 4056 2131 
z
" transform="scale(0.015625)"/>
      <path id="DejaVuSans-Bold-76" d="M 97 3500 
L 1216 3500 
L 2088 1081 
L 2956 3500 
L 4078 3500 
L 2700 0 
L 1472 0 
L 97 3500 
z
" transform="scale(0.015625)"/>
      <path id="DejaVuSans-Bold-73" d="M 3272 3391 
L 3272 2541 
Q 2913 2691 2578 2766 
Q 2244 2841 1947 2841 
Q 1628 2841 1473 2761 
Q 1319 2681 1319 2516 
Q 1319 2381 1436 2309 
Q 1553 2238 1856 2203 
L 2053 2175 
Q 2913 2066 3209 1816 
Q 3506 1566 3506 1031 
Q 3506 472 3093 190 
Q 2681 -91 1863 -91 
Q 1516 -91 1145 -36 
Q 775 19 384 128 
L 384 978 
Q 719 816 1070 734 
Q 1422 653 1784 653 
Q 2113 653 2278 743 
Q 2444 834 2444 1013 
Q 2444 1163 2330 1236 
Q 2216 1309 1875 1350 
L 1678 1375 
Q 931 1469 631 1722 
Q 331 1975 331 2491 
Q 331 3047 712 3315 
Q 1094 3584 1881 3584 
Q 2191 3584 2531 3537 
Q 2872 3491 3272 3391 
z
" transform="scale(0.015625)"/>
      <path id="DejaVuSans-Bold-49" d="M 588 4666 
L 1791 4666 
L 1791 0 
L 588 0 
L 588 4666 
z
" transform="scale(0.015625)"/>
      <path id="DejaVuSans-Bold-4f" d="M 2719 3878 
Q 2169 3878 1866 3472 
Q 1563 3066 1563 2328 
Q 1563 1594 1866 1187 
Q 2169 781 2719 781 
Q 3272 781 3575 1187 
Q 3878 1594 3878 2328 
Q 3878 3066 3575 3472 
Q 3272 3878 2719 3878 
z
M 2719 4750 
Q 3844 4750 4481 4106 
Q 5119 3463 5119 2328 
Q 5119 1197 4481 553 
Q 3844 -91 2719 -91 
Q 1597 -91 958 553 
Q 319 1197 319 2328 
Q 319 3463 958 4106 
Q 1597 4750 2719 4750 
z
" transform="scale(0.015625)"/>
      <path id="DejaVuSans-Bold-44" d="M 1791 3756 
L 1791 909 
L 2222 909 
Q 2959 909 3348 1275 
Q 3738 1641 3738 2338 
Q 3738 3031 3350 3393 
Q 2963 3756 2222 3756 
L 1791 3756 
z
M 588 4666 
L 1856 4666 
Q 2919 4666 3439 4514 
Q 3959 4363 4331 4000 
Q 4659 3684 4818 3271 
Q 4978 2859 4978 2338 
Q 4978 1809 4818 1395 
Q 4659 981 4331 666 
Q 3956 303 3431 151 
Q 2906 0 1856 0 
L 588 0 
L 588 4666 
z
" transform="scale(0.015625)"/>
      <path id="DejaVuSans-Bold-70" d="M 1656 506 
L 1656 -1331 
L 538 -1331 
L 538 3500 
L 1656 3500 
L 1656 2988 
Q 1888 3294 2169 3439 
Q 2450 3584 2816 3584 
Q 3463 3584 3878 3070 
Q 4294 2556 4294 1747 
Q 4294 938 3878 423 
Q 3463 -91 2816 -91 
Q 2450 -91 2169 54 
Q 1888 200 1656 506 
z
M 2400 2772 
Q 2041 2772 1848 2508 
Q 1656 2244 1656 1747 
Q 1656 1250 1848 986 
Q 2041 722 2400 722 
Q 2759 722 2948 984 
Q 3138 1247 3138 1747 
Q 3138 2247 2948 2509 
Q 2759 2772 2400 2772 
z
" transform="scale(0.015625)"/>
     </defs>
     <use xlink:href="#DejaVuSans-Bold-4d"/>
     <use xlink:href="#DejaVuSans-Bold-65" transform="translate(99.511719 0)"/>
     <use xlink:href="#DejaVuSans-Bold-61" transform="translate(167.333984 0)"/>
     <use xlink:href="#DejaVuSans-Bold-6e" transform="translate(234.814453 0)"/>
     <use xlink:href="#DejaVuSans-Bold-20" transform="translate(306.005859 0)"/>
     <use xlink:href="#DejaVuSans-Bold-42" transform="translate(340.820312 0)"/>
     <use xlink:href="#DejaVuSans-Bold-61" transform="translate(417.041016 0)"/>
     <use xlink:href="#DejaVuSans-Bold-6e" transform="translate(484.521484 0)"/>
     <use xlink:href="#DejaVuSans-Bold-64" transform="translate(555.712891 0)"/>
     <use xlink:href="#DejaVuSans-Bold-77" transform="translate(627.294922 0)"/>
     <use xlink:href="#DejaVuSans-Bold-69" transform="translate(719.677734 0)"/>
     <use xlink:href="#DejaVuSans-Bold-64" transform="translate(753.955078 0)"/>
     <use xlink:href="#DejaVuSans-Bold-74" transform="translate(825.537109 0)"/>
     <use xlink:href="#DejaVuSans-Bold-68" transform="translate(873.339844 0)"/>
     <use xlink:href="#DejaVuSans-Bold-20" transform="translate(944.53125 0)"/>
     <use xlink:href="#DejaVuSans-Bold-76" transform="translate(979.345703 0)"/>
     <use xlink:href="#DejaVuSans-Bold-73" transform="translate(1044.53125 0)"/>
     <use xlink:href="#DejaVuSans-Bold-20" transform="translate(1104.052734 0)"/>
     <use xlink:href="#DejaVuSans-Bold-49" transform="translate(1138.867188 0)"/>
     <use xlink:href="#DejaVuSans-Bold-4f" transform="translate(1176.074219 0)"/>
     <use xlink:href="#DejaVuSans-Bold-20" transform="translate(1261.083984 0)"/>
     <use xlink:href="#DejaVuSans-Bold-44" transform="translate(1295.898438 0)"/>
     <use xlink:href="#DejaVuSans-Bold-65" transform="translate(1378.90625 0)"/>
     <use xlink:href="#DejaVuSans-Bold-70" transform="translate(1446.728516 0)"/>
     <use xlink:href="#DejaVuSans-Bold-74" transform="translate(1518.310547 0)"/>
     <use xlink:href="#DejaVuSans-Bold-68" transform="translate(1566.113281 0)"/>
    </g>
   </g>
   <g id="legend_1">
    <g id="text_23">
     <!-- Number of Jobs -->
     <g style="fill: #262626" transform="translate(404.3875 142.08285) scale(0.1 -0.1)">
      <defs>
       <path id="DejaVuSans-4e" d="M 628 4666 
L 1478 4666 
L 3547 763 
L 3547 4666 
L 4159 4666 
L 4159 0 
L 3309 0 
L 1241 3903 
L 1241 0 
L 628 0 
L 628 4666 
z
" transform="scale(0.015625)"/>
       <path id="DejaVuSans-75" d="M 544 1381 
L 544 3500 
L 1119 3500 
L 1119 1403 
Q 1119 906 1312 657 
Q 1506 409 1894 409 
Q 2359 409 2629 706 
Q 2900 1003 2900 1516 
L 2900 3500 
L 3475 3500 
L 3475 0 
L 2900 0 
L 2900 538 
Q 2691 219 2414 64 
Q 2138 -91 1772 -91 
Q 1169 -91 856 284 
Q 544 659 544 1381 
z
M 1991 3584 
L 1991 3584 
z
" transform="scale(0.015625)"/>
       <path id="DejaVuSans-62" d="M 3116 1747 
Q 3116 2381 2855 2742 
Q 2594 3103 2138 3103 
Q 1681 3103 1420 2742 
Q 1159 2381 1159 1747 
Q 1159 1113 1420 752 
Q 1681 391 2138 391 
Q 2594 391 2855 752 
Q 3116 1113 3116 1747 
z
M 1159 2969 
Q 1341 3281 1617 3432 
Q 1894 3584 2278 3584 
Q 2916 3584 3314 3078 
Q 3713 2572 3713 1747 
Q 3713 922 3314 415 
Q 2916 -91 2278 -91 
Q 1894 -91 1617 61 
Q 1341 213 1159 525 
L 1159 0 
L 581 0 
L 581 4863 
L 1159 4863 
L 1159 2969 
z
" transform="scale(0.015625)"/>
       <path id="DejaVuSans-66" d="M 2375 4863 
L 2375 4384 
L 1825 4384 
Q 1516 4384 1395 4259 
Q 1275 4134 1275 3809 
L 1275 3500 
L 2222 3500 
L 2222 3053 
L 1275 3053 
L 1275 0 
L 697 0 
L 697 3053 
L 147 3053 
L 147 3500 
L 697 3500 
L 697 3744 
Q 697 4328 969 4595 
Q 1241 4863 1831 4863 
L 2375 4863 
z
" transform="scale(0.015625)"/>
       <path id="DejaVuSans-4a" d="M 628 4666 
L 1259 4666 
L 1259 325 
Q 1259 -519 939 -900 
Q 619 -1281 -91 -1281 
L -331 -1281 
L -331 -750 
L -134 -750 
Q 284 -750 456 -515 
Q 628 -281 628 325 
L 628 4666 
z
" transform="scale(0.015625)"/>
      </defs>
      <use xlink:href="#DejaVuSans-4e"/>
      <use xlink:href="#DejaVuSans-75" transform="translate(74.804688 0)"/>
      <use xlink:href="#DejaVuSans-6d" transform="translate(138.183594 0)"/>
      <use xlink:href="#DejaVuSans-62" transform="translate(235.595703 0)"/>
      <use xlink:href="#DejaVuSans-65" transform="translate(299.072266 0)"/>
      <use xlink:href="#DejaVuSans-72" transform="translate(360.595703 0)"/>
      <use xlink:href="#DejaVuSans-20" transform="translate(401.708984 0)"/>
      <use xlink:href="#DejaVuSans-6f" transform="translate(433.496094 0)"/>
      <use xlink:href="#DejaVuSans-66" transform="translate(494.677734 0)"/>
      <use xlink:href="#DejaVuSans-20" transform="translate(529.882812 0)"/>
      <use xlink:href="#DejaVuSans-4a" transform="translate(561.669922 0)"/>
      <use xlink:href="#DejaVuSans-6f" transform="translate(591.162109 0)"/>
      <use xlink:href="#DejaVuSans-62" transform="translate(652.34375 0)"/>
      <use xlink:href="#DejaVuSans-73" transform="translate(715.820312 0)"/>
     </g>
    </g>
    <g id="line2d_23">
     <path d="M 419.240625 153.260975 
L 429.240625 153.260975 
L 439.240625 153.260975 
" style="fill: none; stroke: #3b0f70; stroke-width: 1.5; stroke-linecap: round"/>
    </g>
    <g id="text_24">
     <!-- 16 -->
     <g style="fill: #262626" transform="translate(447.240625 156.760975) scale(0.1 -0.1)">
      <use xlink:href="#DejaVuSans-31"/>
      <use xlink:href="#DejaVuSans-36" transform="translate(63.623047 0)"/>
     </g>
    </g>
    <g id="line2d_24">
     <path d="M 419.240625 167.9391 
L 429.240625 167.9391 
L 439.240625 167.9391 
" style="fill: none; stroke: #8c2981; stroke-width: 1.5; stroke-linecap: round"/>
    </g>
    <g id="text_25">
     <!-- 32 -->
     <g style="fill: #262626" transform="translate(447.240625 171.4391) scale(0.1 -0.1)">
      <use xlink:href="#DejaVuSans-33"/>
      <use xlink:href="#DejaVuSans-32" transform="translate(63.623047 0)"/>
     </g>
    </g>
    <g id="line2d_25">
     <path d="M 419.240625 182.617225 
L 429.240625 182.617225 
L 439.240625 182.617225 
" style="fill: none; stroke: #de4968; stroke-width: 1.5; stroke-linecap: round"/>
    </g>
    <g id="text_26">
     <!-- 64 -->
     <g style="fill: #262626" transform="translate(447.240625 186.117225) scale(0.1 -0.1)">
      <use xlink:href="#DejaVuSans-36"/>
      <use xlink:href="#DejaVuSans-34" transform="translate(63.623047 0)"/>
     </g>
    </g>
    <g id="line2d_26">
     <path d="M 419.240625 197.29535 
L 429.240625 197.29535 
L 439.240625 197.29535 
" style="fill: none; stroke: #fe9f6d; stroke-width: 1.5; stroke-linecap: round"/>
    </g>
    <g id="text_27">
     <!-- 128 -->
     <g style="fill: #262626" transform="translate(447.240625 200.79535) scale(0.1 -0.1)">
      <use xlink:href="#DejaVuSans-31"/>
      <use xlink:href="#DejaVuSans-32" transform="translate(63.623047 0)"/>
      <use xlink:href="#DejaVuSans-38" transform="translate(127.246094 0)"/>
     </g>
    </g>
   </g>
  </g>
 </g>
 <defs>
  <clipPath id="p598f2632d0">
   <rect x="43.78125" y="35.623725" width="357.12" height="266.112"/>
  </clipPath>
 </defs>
</svg>
