<?xml version="1.0" encoding="utf-8" standalone="no"?>
<!DOCTYPE svg PUBLIC "-//W3C//DTD SVG 1.1//EN"
  "http://www.w3.org/Graphics/SVG/1.1/DTD/svg11.dtd">
<svg xmlns:xlink="http://www.w3.org/1999/xlink" width="498.74375pt" height="339.291975pt" viewBox="0 0 498.74375 339.291975" xmlns="http://www.w3.org/2000/svg" version="1.1">
 <metadata>
  <rdf:RDF xmlns:dc="http://purl.org/dc/elements/1.1/" xmlns:cc="http://creativecommons.org/ns#" xmlns:rdf="http://www.w3.org/1999/02/22-rdf-syntax-ns#">
   <cc:Work>
    <dc:type rdf:resource="http://purl.org/dc/dcmitype/StillImage"/>
    <dc:date>2025-09-10T17:53:41.423651</dc:date>
    <dc:format>image/svg+xml</dc:format>
    <dc:creator>
     <cc:Agent>
      <dc:title>Matplotlib v3.10.6, https://matplotlib.org/</dc:title>
     </cc:Agent>
    </dc:creator>
   </cc:Work>
  </rdf:RDF>
 </metadata>
 <defs>
  <style type="text/css">*{stroke-linejoin: round; stroke-linecap: butt}</style>
 </defs>
 <g id="figure_1">
  <g id="patch_1">
   <path d="M 0 339.291975 
L 498.74375 339.291975 
L 498.74375 0 
L 0 0 
z
" style="fill: #ffffff"/>
  </g>
  <g id="axes_1">
   <g id="patch_2">
    <path d="M 50.14375 301.735725 
L 407.26375 301.735725 
L 407.26375 35.623725 
L 50.14375 35.623725 
z
" style="fill: #ffffff"/>
   </g>
   <g id="matplotlib.axis_1">
    <g id="xtick_1">
     <g id="line2d_1">
      <path d="M 66.376477 301.735725 
L 66.376477 35.623725 
" clip-path="url(#pf22140e7db)" style="fill: none; stroke: #cccccc; stroke-width: 0.8; stroke-linecap: round"/>
     </g>
     <g id="text_1">
      <!-- 16 -->
      <g style="fill: #262626" transform="translate(60.013977 316.334162) scale(0.1 -0.1)">
       <defs>
        <path id="DejaVuSans-31" d="M 794 531 
L 1825 531 
L 1825 4091 
L 703 3866 
L 703 4441 
L 1819 4666 
L 2450 4666 
L 2450 531 
L 3481 531 
L 3481 0 
L 794 0 
L 794 531 
z
" transform="scale(0.015625)"/>
        <path id="DejaVuSans-36" d="M 2113 2584 
Q 1688 2584 1439 2293 
Q 1191 2003 1191 1497 
Q 1191 994 1439 701 
Q 1688 409 2113 409 
Q 2538 409 2786 701 
Q 3034 994 3034 1497 
Q 3034 2003 2786 2293 
Q 2538 2584 2113 2584 
z
M 3366 4563 
L 3366 3988 
Q 3128 4100 2886 4159 
Q 2644 4219 2406 4219 
Q 1781 4219 1451 3797 
Q 1122 3375 1075 2522 
Q 1259 2794 1537 2939 
Q 1816 3084 2150 3084 
Q 2853 3084 3261 2657 
Q 3669 2231 3669 1497 
Q 3669 778 3244 343 
Q 2819 -91 2113 -91 
Q 1303 -91 875 529 
Q 447 1150 447 2328 
Q 447 3434 972 4092 
Q 1497 4750 2381 4750 
Q 2619 4750 2861 4703 
Q 3103 4656 3366 4563 
z
" transform="scale(0.015625)"/>
       </defs>
       <use xlink:href="#DejaVuSans-31"/>
       <use xlink:href="#DejaVuSans-36" transform="translate(63.623047 0)"/>
      </g>
     </g>
    </g>
    <g id="xtick_2">
     <g id="line2d_2">
      <path d="M 391.031023 301.735725 
L 391.031023 35.623725 
" clip-path="url(#pf22140e7db)" style="fill: none; stroke: #cccccc; stroke-width: 0.8; stroke-linecap: round"/>
     </g>
     <g id="text_2">
      <!-- 128 -->
      <g style="fill: #262626" transform="translate(381.487273 316.334162) scale(0.1 -0.1)">
       <defs>
        <path id="DejaVuSans-32" d="M 1228 531 
L 3431 531 
L 3431 0 
L 469 0 
L 469 531 
Q 828 903 1448 1529 
Q 2069 2156 2228 2338 
Q 2531 2678 2651 2914 
Q 2772 3150 2772 3378 
Q 2772 3750 2511 3984 
Q 2250 4219 1831 4219 
Q 1534 4219 1204 4116 
Q 875 4013 500 3803 
L 500 4441 
Q 881 4594 1212 4672 
Q 1544 4750 1819 4750 
Q 2544 4750 2975 4387 
Q 3406 4025 3406 3419 
Q 3406 3131 3298 2873 
Q 3191 2616 2906 2266 
Q 2828 2175 2409 1742 
Q 1991 1309 1228 531 
z
" transform="scale(0.015625)"/>
        <path id="DejaVuSans-38" d="M 2034 2216 
Q 1584 2216 1326 1975 
Q 1069 1734 1069 1313 
Q 1069 891 1326 650 
Q 1584 409 2034 409 
Q 2484 409 2743 651 
Q 3003 894 3003 1313 
Q 3003 1734 2745 1975 
Q 2488 2216 2034 2216 
z
M 1403 2484 
Q 997 2584 770 2862 
Q 544 3141 544 3541 
Q 544 4100 942 4425 
Q 1341 4750 2034 4750 
Q 2731 4750 3128 4425 
Q 3525 4100 3525 3541 
Q 3525 3141 3298 2862 
Q 3072 2584 2669 2484 
Q 3125 2378 3379 2068 
Q 3634 1759 3634 1313 
Q 3634 634 3220 271 
Q 2806 -91 2034 -91 
Q 1263 -91 848 271 
Q 434 634 434 1313 
Q 434 1759 690 2068 
Q 947 2378 1403 2484 
z
M 1172 3481 
Q 1172 3119 1398 2916 
Q 1625 2713 2034 2713 
Q 2441 2713 2670 2916 
Q 2900 3119 2900 3481 
Q 2900 3844 2670 4047 
Q 2441 4250 2034 4250 
Q 1625 4250 1398 4047 
Q 1172 3844 1172 3481 
z
" transform="scale(0.015625)"/>
       </defs>
       <use xlink:href="#DejaVuSans-31"/>
       <use xlink:href="#DejaVuSans-32" transform="translate(63.623047 0)"/>
       <use xlink:href="#DejaVuSans-38" transform="translate(127.246094 0)"/>
      </g>
     </g>
    </g>
    <g id="xtick_3">
     <g id="line2d_3">
      <path d="M 112.755698 301.735725 
L 112.755698 35.623725 
" clip-path="url(#pf22140e7db)" style="fill: none; stroke: #cccccc; stroke-width: 0.8; stroke-linecap: round"/>
     </g>
     <g id="text_3">
      <!-- 32 -->
      <g style="fill: #262626" transform="translate(106.393198 316.334162) scale(0.1 -0.1)">
       <defs>
        <path id="DejaVuSans-33" d="M 2597 2516 
Q 3050 2419 3304 2112 
Q 3559 1806 3559 1356 
Q 3559 666 3084 287 
Q 2609 -91 1734 -91 
Q 1441 -91 1130 -33 
Q 819 25 488 141 
L 488 750 
Q 750 597 1062 519 
Q 1375 441 1716 441 
Q 2309 441 2620 675 
Q 2931 909 2931 1356 
Q 2931 1769 2642 2001 
Q 2353 2234 1838 2234 
L 1294 2234 
L 1294 2753 
L 1863 2753 
Q 2328 2753 2575 2939 
Q 2822 3125 2822 3475 
Q 2822 3834 2567 4026 
Q 2313 4219 1838 4219 
Q 1578 4219 1281 4162 
Q 984 4106 628 3988 
L 628 4550 
Q 988 4650 1302 4700 
Q 1616 4750 1894 4750 
Q 2613 4750 3031 4423 
Q 3450 4097 3450 3541 
Q 3450 3153 3228 2886 
Q 3006 2619 2597 2516 
z
" transform="scale(0.015625)"/>
       </defs>
       <use xlink:href="#DejaVuSans-33"/>
       <use xlink:href="#DejaVuSans-32" transform="translate(63.623047 0)"/>
      </g>
     </g>
    </g>
    <g id="xtick_4">
     <g id="line2d_4">
      <path d="M 205.51414 301.735725 
L 205.51414 35.623725 
" clip-path="url(#pf22140e7db)" style="fill: none; stroke: #cccccc; stroke-width: 0.8; stroke-linecap: round"/>
     </g>
     <g id="text_4">
      <!-- 64 -->
      <g style="fill: #262626" transform="translate(199.15164 316.334162) scale(0.1 -0.1)">
       <defs>
        <path id="DejaVuSans-34" d="M 2419 4116 
L 825 1625 
L 2419 1625 
L 2419 4116 
z
M 2253 4666 
L 3047 4666 
L 3047 1625 
L 3713 1625 
L 3713 1100 
L 3047 1100 
L 3047 0 
L 2419 0 
L 2419 1100 
L 313 1100 
L 313 1709 
L 2253 4666 
z
" transform="scale(0.015625)"/>
       </defs>
       <use xlink:href="#DejaVuSans-36"/>
       <use xlink:href="#DejaVuSans-34" transform="translate(63.623047 0)"/>
      </g>
     </g>
    </g>
    <g id="text_5">
     <!-- Number of Jobs -->
     <g style="fill: #262626" transform="translate(190.306875 330.012287) scale(0.1 -0.1)">
      <defs>
       <path id="DejaVuSans-4e" d="M 628 4666 
L 1478 4666 
L 3547 763 
L 3547 4666 
L 4159 4666 
L 4159 0 
L 3309 0 
L 1241 3903 
L 1241 0 
L 628 0 
L 628 4666 
z
" transform="scale(0.015625)"/>
       <path id="DejaVuSans-75" d="M 544 1381 
L 544 3500 
L 1119 3500 
L 1119 1403 
Q 1119 906 1312 657 
Q 1506 409 1894 409 
Q 2359 409 2629 706 
Q 2900 1003 2900 1516 
L 2900 3500 
L 3475 3500 
L 3475 0 
L 2900 0 
L 2900 538 
Q 2691 219 2414 64 
Q 2138 -91 1772 -91 
Q 1169 -91 856 284 
Q 544 659 544 1381 
z
M 1991 3584 
L 1991 3584 
z
" transform="scale(0.015625)"/>
       <path id="DejaVuSans-6d" d="M 3328 2828 
Q 3544 3216 3844 3400 
Q 4144 3584 4550 3584 
Q 5097 3584 5394 3201 
Q 5691 2819 5691 2113 
L 5691 0 
L 5113 0 
L 5113 2094 
Q 5113 2597 4934 2840 
Q 4756 3084 4391 3084 
Q 3944 3084 3684 2787 
Q 3425 2491 3425 1978 
L 3425 0 
L 2847 0 
L 2847 2094 
Q 2847 2600 2669 2842 
Q 2491 3084 2119 3084 
Q 1678 3084 1418 2786 
Q 1159 2488 1159 1978 
L 1159 0 
L 581 0 
L 581 3500 
L 1159 3500 
L 1159 2956 
Q 1356 3278 1631 3431 
Q 1906 3584 2284 3584 
Q 2666 3584 2933 3390 
Q 3200 3197 3328 2828 
z
" transform="scale(0.015625)"/>
       <path id="DejaVuSans-62" d="M 3116 1747 
Q 3116 2381 2855 2742 
Q 2594 3103 2138 3103 
Q 1681 3103 1420 2742 
Q 1159 2381 1159 1747 
Q 1159 1113 1420 752 
Q 1681 391 2138 391 
Q 2594 391 2855 752 
Q 3116 1113 3116 1747 
z
M 1159 2969 
Q 1341 3281 1617 3432 
Q 1894 3584 2278 3584 
Q 2916 3584 3314 3078 
Q 3713 2572 3713 1747 
Q 3713 922 3314 415 
Q 2916 -91 2278 -91 
Q 1894 -91 1617 61 
Q 1341 213 1159 525 
L 1159 0 
L 581 0 
L 581 4863 
L 1159 4863 
L 1159 2969 
z
" transform="scale(0.015625)"/>
       <path id="DejaVuSans-65" d="M 3597 1894 
L 3597 1613 
L 953 1613 
Q 991 1019 1311 708 
Q 1631 397 2203 397 
Q 2534 397 2845 478 
Q 3156 559 3463 722 
L 3463 178 
Q 3153 47 2828 -22 
Q 2503 -91 2169 -91 
Q 1331 -91 842 396 
Q 353 884 353 1716 
Q 353 2575 817 3079 
Q 1281 3584 2069 3584 
Q 2775 3584 3186 3129 
Q 3597 2675 3597 1894 
z
M 3022 2063 
Q 3016 2534 2758 2815 
Q 2500 3097 2075 3097 
Q 1594 3097 1305 2825 
Q 1016 2553 972 2059 
L 3022 2063 
z
" transform="scale(0.015625)"/>
       <path id="DejaVuSans-72" d="M 2631 2963 
Q 2534 3019 2420 3045 
Q 2306 3072 2169 3072 
Q 1681 3072 1420 2755 
Q 1159 2438 1159 1844 
L 1159 0 
L 581 0 
L 581 3500 
L 1159 3500 
L 1159 2956 
Q 1341 3275 1631 3429 
Q 1922 3584 2338 3584 
Q 2397 3584 2469 3576 
Q 2541 3569 2628 3553 
L 2631 2963 
z
" transform="scale(0.015625)"/>
       <path id="DejaVuSans-20" transform="scale(0.015625)"/>
       <path id="DejaVuSans-6f" d="M 1959 3097 
Q 1497 3097 1228 2736 
Q 959 2375 959 1747 
Q 959 1119 1226 758 
Q 1494 397 1959 397 
Q 2419 397 2687 759 
Q 2956 1122 2956 1747 
Q 2956 2369 2687 2733 
Q 2419 3097 1959 3097 
z
M 1959 3584 
Q 2709 3584 3137 3096 
Q 3566 2609 3566 1747 
Q 3566 888 3137 398 
Q 2709 -91 1959 -91 
Q 1206 -91 779 398 
Q 353 888 353 1747 
Q 353 2609 779 3096 
Q 1206 3584 1959 3584 
z
" transform="scale(0.015625)"/>
       <path id="DejaVuSans-66" d="M 2375 4863 
L 2375 4384 
L 1825 4384 
Q 1516 4384 1395 4259 
Q 1275 4134 1275 3809 
L 1275 3500 
L 2222 3500 
L 2222 3053 
L 1275 3053 
L 1275 0 
L 697 0 
L 697 3053 
L 147 3053 
L 147 3500 
L 697 3500 
L 697 3744 
Q 697 4328 969 4595 
Q 1241 4863 1831 4863 
L 2375 4863 
z
" transform="scale(0.015625)"/>
       <path id="DejaVuSans-4a" d="M 628 4666 
L 1259 4666 
L 1259 325 
Q 1259 -519 939 -900 
Q 619 -1281 -91 -1281 
L -331 -1281 
L -331 -750 
L -134 -750 
Q 284 -750 456 -515 
Q 628 -281 628 325 
L 628 4666 
z
" transform="scale(0.015625)"/>
       <path id="DejaVuSans-73" d="M 2834 3397 
L 2834 2853 
Q 2591 2978 2328 3040 
Q 2066 3103 1784 3103 
Q 1356 3103 1142 2972 
Q 928 2841 928 2578 
Q 928 2378 1081 2264 
Q 1234 2150 1697 2047 
L 1894 2003 
Q 2506 1872 2764 1633 
Q 3022 1394 3022 966 
Q 3022 478 2636 193 
Q 2250 -91 1575 -91 
Q 1294 -91 989 -36 
Q 684 19 347 128 
L 347 722 
Q 666 556 975 473 
Q 1284 391 1588 391 
Q 1994 391 2212 530 
Q 2431 669 2431 922 
Q 2431 1156 2273 1281 
Q 2116 1406 1581 1522 
L 1381 1569 
Q 847 1681 609 1914 
Q 372 2147 372 2553 
Q 372 3047 722 3315 
Q 1072 3584 1716 3584 
Q 2034 3584 2315 3537 
Q 2597 3491 2834 3397 
z
" transform="scale(0.015625)"/>
      </defs>
      <use xlink:href="#DejaVuSans-4e"/>
      <use xlink:href="#DejaVuSans-75" transform="translate(74.804688 0)"/>
      <use xlink:href="#DejaVuSans-6d" transform="translate(138.183594 0)"/>
      <use xlink:href="#DejaVuSans-62" transform="translate(235.595703 0)"/>
      <use xlink:href="#DejaVuSans-65" transform="translate(299.072266 0)"/>
      <use xlink:href="#DejaVuSans-72" transform="translate(360.595703 0)"/>
      <use xlink:href="#DejaVuSans-20" transform="translate(401.708984 0)"/>
      <use xlink:href="#DejaVuSans-6f" transform="translate(433.496094 0)"/>
      <use xlink:href="#DejaVuSans-66" transform="translate(494.677734 0)"/>
      <use xlink:href="#DejaVuSans-20" transform="translate(529.882812 0)"/>
      <use xlink:href="#DejaVuSans-4a" transform="translate(561.669922 0)"/>
      <use xlink:href="#DejaVuSans-6f" transform="translate(591.162109 0)"/>
      <use xlink:href="#DejaVuSans-62" transform="translate(652.34375 0)"/>
      <use xlink:href="#DejaVuSans-73" transform="translate(715.820312 0)"/>
     </g>
    </g>
   </g>
   <g id="matplotlib.axis_2">
    <g id="ytick_1">
     <g id="line2d_5">
      <path d="M 50.14375 287.297258 
L 407.26375 287.297258 
" clip-path="url(#pf22140e7db)" style="fill: none; stroke: #cccccc; stroke-width: 0.8; stroke-linecap: round"/>
     </g>
     <g id="text_6">
      <!-- 2.75 -->
      <g style="fill: #262626" transform="translate(20.878125 291.096477) scale(0.1 -0.1)">
       <defs>
        <path id="DejaVuSans-2e" d="M 684 794 
L 1344 794 
L 1344 0 
L 684 0 
L 684 794 
z
" transform="scale(0.015625)"/>
        <path id="DejaVuSans-37" d="M 525 4666 
L 3525 4666 
L 3525 4397 
L 1831 0 
L 1172 0 
L 2766 4134 
L 525 4134 
L 525 4666 
z
" transform="scale(0.015625)"/>
        <path id="DejaVuSans-35" d="M 691 4666 
L 3169 4666 
L 3169 4134 
L 1269 4134 
L 1269 2991 
Q 1406 3038 1543 3061 
Q 1681 3084 1819 3084 
Q 2600 3084 3056 2656 
Q 3513 2228 3513 1497 
Q 3513 744 3044 326 
Q 2575 -91 1722 -91 
Q 1428 -91 1123 -41 
Q 819 9 494 109 
L 494 744 
Q 775 591 1075 516 
Q 1375 441 1709 441 
Q 2250 441 2565 725 
Q 2881 1009 2881 1497 
Q 2881 1984 2565 2268 
Q 2250 2553 1709 2553 
Q 1456 2553 1204 2497 
Q 953 2441 691 2322 
L 691 4666 
z
" transform="scale(0.015625)"/>
       </defs>
       <use xlink:href="#DejaVuSans-32"/>
       <use xlink:href="#DejaVuSans-2e" transform="translate(63.623047 0)"/>
       <use xlink:href="#DejaVuSans-37" transform="translate(95.410156 0)"/>
       <use xlink:href="#DejaVuSans-35" transform="translate(159.033203 0)"/>
      </g>
     </g>
    </g>
    <g id="ytick_2">
     <g id="line2d_6">
      <path d="M 50.14375 256.994893 
L 407.26375 256.994893 
" clip-path="url(#pf22140e7db)" style="fill: none; stroke: #cccccc; stroke-width: 0.8; stroke-linecap: round"/>
     </g>
     <g id="text_7">
      <!-- 3.00 -->
      <g style="fill: #262626" transform="translate(20.878125 260.794111) scale(0.1 -0.1)">
       <defs>
        <path id="DejaVuSans-30" d="M 2034 4250 
Q 1547 4250 1301 3770 
Q 1056 3291 1056 2328 
Q 1056 1369 1301 889 
Q 1547 409 2034 409 
Q 2525 409 2770 889 
Q 3016 1369 3016 2328 
Q 3016 3291 2770 3770 
Q 2525 4250 2034 4250 
z
M 2034 4750 
Q 2819 4750 3233 4129 
Q 3647 3509 3647 2328 
Q 3647 1150 3233 529 
Q 2819 -91 2034 -91 
Q 1250 -91 836 529 
Q 422 1150 422 2328 
Q 422 3509 836 4129 
Q 1250 4750 2034 4750 
z
" transform="scale(0.015625)"/>
       </defs>
       <use xlink:href="#DejaVuSans-33"/>
       <use xlink:href="#DejaVuSans-2e" transform="translate(63.623047 0)"/>
       <use xlink:href="#DejaVuSans-30" transform="translate(95.410156 0)"/>
       <use xlink:href="#DejaVuSans-30" transform="translate(159.033203 0)"/>
      </g>
     </g>
    </g>
    <g id="ytick_3">
     <g id="line2d_7">
      <path d="M 50.14375 226.692528 
L 407.26375 226.692528 
" clip-path="url(#pf22140e7db)" style="fill: none; stroke: #cccccc; stroke-width: 0.8; stroke-linecap: round"/>
     </g>
     <g id="text_8">
      <!-- 3.25 -->
      <g style="fill: #262626" transform="translate(20.878125 230.491746) scale(0.1 -0.1)">
       <use xlink:href="#DejaVuSans-33"/>
       <use xlink:href="#DejaVuSans-2e" transform="translate(63.623047 0)"/>
       <use xlink:href="#DejaVuSans-32" transform="translate(95.410156 0)"/>
       <use xlink:href="#DejaVuSans-35" transform="translate(159.033203 0)"/>
      </g>
     </g>
    </g>
    <g id="ytick_4">
     <g id="line2d_8">
      <path d="M 50.14375 196.390163 
L 407.26375 196.390163 
" clip-path="url(#pf22140e7db)" style="fill: none; stroke: #cccccc; stroke-width: 0.8; stroke-linecap: round"/>
     </g>
     <g id="text_9">
      <!-- 3.50 -->
      <g style="fill: #262626" transform="translate(20.878125 200.189381) scale(0.1 -0.1)">
       <use xlink:href="#DejaVuSans-33"/>
       <use xlink:href="#DejaVuSans-2e" transform="translate(63.623047 0)"/>
       <use xlink:href="#DejaVuSans-35" transform="translate(95.410156 0)"/>
       <use xlink:href="#DejaVuSans-30" transform="translate(159.033203 0)"/>
      </g>
     </g>
    </g>
    <g id="ytick_5">
     <g id="line2d_9">
      <path d="M 50.14375 166.087798 
L 407.26375 166.087798 
" clip-path="url(#pf22140e7db)" style="fill: none; stroke: #cccccc; stroke-width: 0.8; stroke-linecap: round"/>
     </g>
     <g id="text_10">
      <!-- 3.75 -->
      <g style="fill: #262626" transform="translate(20.878125 169.887016) scale(0.1 -0.1)">
       <use xlink:href="#DejaVuSans-33"/>
       <use xlink:href="#DejaVuSans-2e" transform="translate(63.623047 0)"/>
       <use xlink:href="#DejaVuSans-37" transform="translate(95.410156 0)"/>
       <use xlink:href="#DejaVuSans-35" transform="translate(159.033203 0)"/>
      </g>
     </g>
    </g>
    <g id="ytick_6">
     <g id="line2d_10">
      <path d="M 50.14375 135.785432 
L 407.26375 135.785432 
" clip-path="url(#pf22140e7db)" style="fill: none; stroke: #cccccc; stroke-width: 0.8; stroke-linecap: round"/>
     </g>
     <g id="text_11">
      <!-- 4.00 -->
      <g style="fill: #262626" transform="translate(20.878125 139.584651) scale(0.1 -0.1)">
       <use xlink:href="#DejaVuSans-34"/>
       <use xlink:href="#DejaVuSans-2e" transform="translate(63.623047 0)"/>
       <use xlink:href="#DejaVuSans-30" transform="translate(95.410156 0)"/>
       <use xlink:href="#DejaVuSans-30" transform="translate(159.033203 0)"/>
      </g>
     </g>
    </g>
    <g id="ytick_7">
     <g id="line2d_11">
      <path d="M 50.14375 105.483067 
L 407.26375 105.483067 
" clip-path="url(#pf22140e7db)" style="fill: none; stroke: #cccccc; stroke-width: 0.8; stroke-linecap: round"/>
     </g>
     <g id="text_12">
      <!-- 4.25 -->
      <g style="fill: #262626" transform="translate(20.878125 109.282286) scale(0.1 -0.1)">
       <use xlink:href="#DejaVuSans-34"/>
       <use xlink:href="#DejaVuSans-2e" transform="translate(63.623047 0)"/>
       <use xlink:href="#DejaVuSans-32" transform="translate(95.410156 0)"/>
       <use xlink:href="#DejaVuSans-35" transform="translate(159.033203 0)"/>
      </g>
     </g>
    </g>
    <g id="ytick_8">
     <g id="line2d_12">
      <path d="M 50.14375 75.180702 
L 407.26375 75.180702 
" clip-path="url(#pf22140e7db)" style="fill: none; stroke: #cccccc; stroke-width: 0.8; stroke-linecap: round"/>
     </g>
     <g id="text_13">
      <!-- 4.50 -->
      <g style="fill: #262626" transform="translate(20.878125 78.979921) scale(0.1 -0.1)">
       <use xlink:href="#DejaVuSans-34"/>
       <use xlink:href="#DejaVuSans-2e" transform="translate(63.623047 0)"/>
       <use xlink:href="#DejaVuSans-35" transform="translate(95.410156 0)"/>
       <use xlink:href="#DejaVuSans-30" transform="translate(159.033203 0)"/>
      </g>
     </g>
    </g>
    <g id="ytick_9">
     <g id="line2d_13">
      <path d="M 50.14375 44.878337 
L 407.26375 44.878337 
" clip-path="url(#pf22140e7db)" style="fill: none; stroke: #cccccc; stroke-width: 0.8; stroke-linecap: round"/>
     </g>
     <g id="text_14">
      <!-- 4.75 -->
      <g style="fill: #262626" transform="translate(20.878125 48.677556) scale(0.1 -0.1)">
       <use xlink:href="#DejaVuSans-34"/>
       <use xlink:href="#DejaVuSans-2e" transform="translate(63.623047 0)"/>
       <use xlink:href="#DejaVuSans-37" transform="translate(95.410156 0)"/>
       <use xlink:href="#DejaVuSans-35" transform="translate(159.033203 0)"/>
      </g>
     </g>
    </g>
    <g id="text_15">
     <!-- Mean Bandwidth (GiB/s) -->
     <g style="fill: #262626" transform="translate(14.798438 228.984412) rotate(-90) scale(0.1 -0.1)">
      <defs>
       <path id="DejaVuSans-4d" d="M 628 4666 
L 1569 4666 
L 2759 1491 
L 3956 4666 
L 4897 4666 
L 4897 0 
L 4281 0 
L 4281 4097 
L 3078 897 
L 2444 897 
L 1241 4097 
L 1241 0 
L 628 0 
L 628 4666 
z
" transform="scale(0.015625)"/>
       <path id="DejaVuSans-61" d="M 2194 1759 
Q 1497 1759 1228 1600 
Q 959 1441 959 1056 
Q 959 750 1161 570 
Q 1363 391 1709 391 
Q 2188 391 2477 730 
Q 2766 1069 2766 1631 
L 2766 1759 
L 2194 1759 
z
M 3341 1997 
L 3341 0 
L 2766 0 
L 2766 531 
Q 2569 213 2275 61 
Q 1981 -91 1556 -91 
Q 1019 -91 701 211 
Q 384 513 384 1019 
Q 384 1609 779 1909 
Q 1175 2209 1959 2209 
L 2766 2209 
L 2766 2266 
Q 2766 2663 2505 2880 
Q 2244 3097 1772 3097 
Q 1472 3097 1187 3025 
Q 903 2953 641 2809 
L 641 3341 
Q 956 3463 1253 3523 
Q 1550 3584 1831 3584 
Q 2591 3584 2966 3190 
Q 3341 2797 3341 1997 
z
" transform="scale(0.015625)"/>
       <path id="DejaVuSans-6e" d="M 3513 2113 
L 3513 0 
L 2938 0 
L 2938 2094 
Q 2938 2591 2744 2837 
Q 2550 3084 2163 3084 
Q 1697 3084 1428 2787 
Q 1159 2491 1159 1978 
L 1159 0 
L 581 0 
L 581 3500 
L 1159 3500 
L 1159 2956 
Q 1366 3272 1645 3428 
Q 1925 3584 2291 3584 
Q 2894 3584 3203 3211 
Q 3513 2838 3513 2113 
z
" transform="scale(0.015625)"/>
       <path id="DejaVuSans-42" d="M 1259 2228 
L 1259 519 
L 2272 519 
Q 2781 519 3026 730 
Q 3272 941 3272 1375 
Q 3272 1813 3026 2020 
Q 2781 2228 2272 2228 
L 1259 2228 
z
M 1259 4147 
L 1259 2741 
L 2194 2741 
Q 2656 2741 2882 2914 
Q 3109 3088 3109 3444 
Q 3109 3797 2882 3972 
Q 2656 4147 2194 4147 
L 1259 4147 
z
M 628 4666 
L 2241 4666 
Q 2963 4666 3353 4366 
Q 3744 4066 3744 3513 
Q 3744 3084 3544 2831 
Q 3344 2578 2956 2516 
Q 3422 2416 3680 2098 
Q 3938 1781 3938 1306 
Q 3938 681 3513 340 
Q 3088 0 2303 0 
L 628 0 
L 628 4666 
z
" transform="scale(0.015625)"/>
       <path id="DejaVuSans-64" d="M 2906 2969 
L 2906 4863 
L 3481 4863 
L 3481 0 
L 2906 0 
L 2906 525 
Q 2725 213 2448 61 
Q 2172 -91 1784 -91 
Q 1150 -91 751 415 
Q 353 922 353 1747 
Q 353 2572 751 3078 
Q 1150 3584 1784 3584 
Q 2172 3584 2448 3432 
Q 2725 3281 2906 2969 
z
M 947 1747 
Q 947 1113 1208 752 
Q 1469 391 1925 391 
Q 2381 391 2643 752 
Q 2906 1113 2906 1747 
Q 2906 2381 2643 2742 
Q 2381 3103 1925 3103 
Q 1469 3103 1208 2742 
Q 947 2381 947 1747 
z
" transform="scale(0.015625)"/>
       <path id="DejaVuSans-77" d="M 269 3500 
L 844 3500 
L 1563 769 
L 2278 3500 
L 2956 3500 
L 3675 769 
L 4391 3500 
L 4966 3500 
L 4050 0 
L 3372 0 
L 2619 2869 
L 1863 0 
L 1184 0 
L 269 3500 
z
" transform="scale(0.015625)"/>
       <path id="DejaVuSans-69" d="M 603 3500 
L 1178 3500 
L 1178 0 
L 603 0 
L 603 3500 
z
M 603 4863 
L 1178 4863 
L 1178 4134 
L 603 4134 
L 603 4863 
z
" transform="scale(0.015625)"/>
       <path id="DejaVuSans-74" d="M 1172 4494 
L 1172 3500 
L 2356 3500 
L 2356 3053 
L 1172 3053 
L 1172 1153 
Q 1172 725 1289 603 
Q 1406 481 1766 481 
L 2356 481 
L 2356 0 
L 1766 0 
Q 1100 0 847 248 
Q 594 497 594 1153 
L 594 3053 
L 172 3053 
L 172 3500 
L 594 3500 
L 594 4494 
L 1172 4494 
z
" transform="scale(0.015625)"/>
       <path id="DejaVuSans-68" d="M 3513 2113 
L 3513 0 
L 2938 0 
L 2938 2094 
Q 2938 2591 2744 2837 
Q 2550 3084 2163 3084 
Q 1697 3084 1428 2787 
Q 1159 2491 1159 1978 
L 1159 0 
L 581 0 
L 581 4863 
L 1159 4863 
L 1159 2956 
Q 1366 3272 1645 3428 
Q 1925 3584 2291 3584 
Q 2894 3584 3203 3211 
Q 3513 2838 3513 2113 
z
" transform="scale(0.015625)"/>
       <path id="DejaVuSans-28" d="M 1984 4856 
Q 1566 4138 1362 3434 
Q 1159 2731 1159 2009 
Q 1159 1288 1364 580 
Q 1569 -128 1984 -844 
L 1484 -844 
Q 1016 -109 783 600 
Q 550 1309 550 2009 
Q 550 2706 781 3412 
Q 1013 4119 1484 4856 
L 1984 4856 
z
" transform="scale(0.015625)"/>
       <path id="DejaVuSans-47" d="M 3809 666 
L 3809 1919 
L 2778 1919 
L 2778 2438 
L 4434 2438 
L 4434 434 
Q 4069 175 3628 42 
Q 3188 -91 2688 -91 
Q 1594 -91 976 548 
Q 359 1188 359 2328 
Q 359 3472 976 4111 
Q 1594 4750 2688 4750 
Q 3144 4750 3555 4637 
Q 3966 4525 4313 4306 
L 4313 3634 
Q 3963 3931 3569 4081 
Q 3175 4231 2741 4231 
Q 1884 4231 1454 3753 
Q 1025 3275 1025 2328 
Q 1025 1384 1454 906 
Q 1884 428 2741 428 
Q 3075 428 3337 486 
Q 3600 544 3809 666 
z
" transform="scale(0.015625)"/>
       <path id="DejaVuSans-2f" d="M 1625 4666 
L 2156 4666 
L 531 -594 
L 0 -594 
L 1625 4666 
z
" transform="scale(0.015625)"/>
       <path id="DejaVuSans-29" d="M 513 4856 
L 1013 4856 
Q 1481 4119 1714 3412 
Q 1947 2706 1947 2009 
Q 1947 1309 1714 600 
Q 1481 -109 1013 -844 
L 513 -844 
Q 928 -128 1133 580 
Q 1338 1288 1338 2009 
Q 1338 2731 1133 3434 
Q 928 4138 513 4856 
z
" transform="scale(0.015625)"/>
      </defs>
      <use xlink:href="#DejaVuSans-4d"/>
      <use xlink:href="#DejaVuSans-65" transform="translate(86.279297 0)"/>
      <use xlink:href="#DejaVuSans-61" transform="translate(147.802734 0)"/>
      <use xlink:href="#DejaVuSans-6e" transform="translate(209.082031 0)"/>
      <use xlink:href="#DejaVuSans-20" transform="translate(272.460938 0)"/>
      <use xlink:href="#DejaVuSans-42" transform="translate(304.248047 0)"/>
      <use xlink:href="#DejaVuSans-61" transform="translate(372.851562 0)"/>
      <use xlink:href="#DejaVuSans-6e" transform="translate(434.130859 0)"/>
      <use xlink:href="#DejaVuSans-64" transform="translate(497.509766 0)"/>
      <use xlink:href="#DejaVuSans-77" transform="translate(560.986328 0)"/>
      <use xlink:href="#DejaVuSans-69" transform="translate(642.773438 0)"/>
      <use xlink:href="#DejaVuSans-64" transform="translate(670.556641 0)"/>
      <use xlink:href="#DejaVuSans-74" transform="translate(734.033203 0)"/>
      <use xlink:href="#DejaVuSans-68" transform="translate(773.242188 0)"/>
      <use xlink:href="#DejaVuSans-20" transform="translate(836.621094 0)"/>
      <use xlink:href="#DejaVuSans-28" transform="translate(868.408203 0)"/>
      <use xlink:href="#DejaVuSans-47" transform="translate(907.421875 0)"/>
      <use xlink:href="#DejaVuSans-69" transform="translate(984.912109 0)"/>
      <use xlink:href="#DejaVuSans-42" transform="translate(1012.695312 0)"/>
      <use xlink:href="#DejaVuSans-2f" transform="translate(1081.298828 0)"/>
      <use xlink:href="#DejaVuSans-73" transform="translate(1114.990234 0)"/>
      <use xlink:href="#DejaVuSans-29" transform="translate(1167.089844 0)"/>
     </g>
    </g>
   </g>
   <g id="FillBetweenPolyCollection_1"/>
   <g id="FillBetweenPolyCollection_2"/>
   <g id="FillBetweenPolyCollection_3"/>
   <g id="FillBetweenPolyCollection_4"/>
   <g id="FillBetweenPolyCollection_5"/>
   <g id="FillBetweenPolyCollection_6"/>
   <g id="FillBetweenPolyCollection_7"/>
   <g id="line2d_14">
    <path d="M 66.376477 103.338372 
L 112.755698 238.107097 
L 205.51414 289.639725 
L 391.031023 182.561491 
" clip-path="url(#pf22140e7db)" style="fill: none; stroke: #4c02a1; stroke-width: 1.5; stroke-linecap: round"/>
   </g>
   <g id="line2d_15">
    <path d="M 66.376477 47.719725 
L 112.755698 205.096121 
L 205.51414 184.40746 
L 391.031023 176.005159 
" clip-path="url(#pf22140e7db)" style="fill: none; stroke: #7e03a8; stroke-width: 1.5; stroke-linecap: round"/>
   </g>
   <g id="line2d_16">
    <path d="M 66.376477 56.688735 
L 112.755698 235.39795 
L 205.51414 180.573069 
L 391.031023 164.837406 
" clip-path="url(#pf22140e7db)" style="fill: none; stroke: #aa2395; stroke-width: 1.5; stroke-linecap: round"/>
   </g>
   <g id="line2d_17">
    <path d="M 66.376477 55.377959 
L 112.755698 218.704045 
L 205.51414 178.122624 
L 391.031023 175.58179 
" clip-path="url(#pf22140e7db)" style="fill: none; stroke: #cc4778; stroke-width: 1.5; stroke-linecap: round"/>
   </g>
   <g id="line2d_18">
    <path d="M 66.376477 152.226082 
L 112.755698 209.718633 
L 205.51414 214.222859 
L 391.031023 183.930411 
" clip-path="url(#pf22140e7db)" style="fill: none; stroke: #e66c5c; stroke-width: 1.5; stroke-linecap: round"/>
   </g>
   <g id="line2d_19">
    <path d="M 66.376477 156.277169 
L 112.755698 229.065439 
L 205.51414 188.299116 
L 391.031023 132.999623 
" clip-path="url(#pf22140e7db)" style="fill: none; stroke: #f89540; stroke-width: 1.5; stroke-linecap: round"/>
   </g>
   <g id="line2d_20">
    <path d="M 66.376477 173.97639 
L 112.755698 173.836994 
L 205.51414 159.290051 
L 391.031023 163.989981 
" clip-path="url(#pf22140e7db)" style="fill: none; stroke: #fdc527; stroke-width: 1.5; stroke-linecap: round"/>
   </g>
   <g id="line2d_21"/>
   <g id="line2d_22"/>
   <g id="line2d_23"/>
   <g id="line2d_24"/>
   <g id="line2d_25"/>
   <g id="line2d_26"/>
   <g id="line2d_27"/>
   <g id="text_16">
    <path d="M 105.719592 223.591619 
L 106.243806 225.114879 
L 111.503557 223.304791 
L 110.600647 221.761485 
L 111.450185 221.469125 
L 112.350045 223.003567 
L 112.670878 223.935843 
L 106.561588 226.03829 
L 107.085801 227.56155 
L 106.301271 227.831538 
L 104.935062 223.861607 
L 105.719592 223.591619 
z
" clip-path="url(#pf22140e7db)" style="fill: #4c02a1; stroke: #ffffff; stroke-width: 5"/>
    <path d="M 105.719592 223.591619 
L 106.243806 225.114879 
L 111.503557 223.304791 
L 110.600647 221.761485 
L 111.450185 221.469125 
L 112.350045 223.003567 
L 112.670878 223.935843 
L 106.561588 226.03829 
L 107.085801 227.56155 
L 106.301271 227.831538 
L 104.935062 223.861607 
L 105.719592 223.591619 
z
" clip-path="url(#pf22140e7db)" style="fill: #4c02a1"/>
   </g>
   <g id="text_17">
    <path d="M 148.136508 193.442758 
L 146.5529 197.783785 
L 148.983796 197.241603 
L 148.136508 193.442758 
z
M 147.696277 192.660455 
L 148.90715 192.390385 
L 149.941513 197.027996 
L 150.957182 196.801463 
L 151.135755 197.602103 
L 150.120086 197.828636 
L 150.49424 199.506167 
L 149.536522 199.719774 
L 149.162369 198.042243 
L 145.950659 198.758577 
L 145.743514 197.829834 
L 147.696277 192.660455 
z
" clip-path="url(#pf22140e7db)" style="fill: #7e03a8; stroke: #ffffff; stroke-width: 5"/>
    <path d="M 148.136508 193.442758 
L 146.5529 197.783785 
L 148.983796 197.241603 
L 148.136508 193.442758 
z
M 147.696277 192.660455 
L 148.90715 192.390385 
L 149.941513 197.027996 
L 150.957182 196.801463 
L 151.135755 197.602103 
L 150.120086 197.828636 
L 150.49424 199.506167 
L 149.536522 199.719774 
L 149.162369 198.042243 
L 145.950659 198.758577 
L 145.743514 197.829834 
L 147.696277 192.660455 
z
" clip-path="url(#pf22140e7db)" style="fill: #7e03a8"/>
   </g>
   <g id="text_18">
    <path d="M 188.167296 190.009164 
Q 187.561995 190.366928 187.406557 190.896218 
Q 187.252465 191.424713 187.587173 191.991007 
Q 187.922675 192.558645 188.459972 192.678495 
Q 188.998614 192.79755 189.603916 192.439786 
Q 190.209217 192.082023 190.365205 191.550592 
Q 190.521742 191.017021 190.188624 190.453418 
Q 189.853917 189.887125 189.315275 189.76807 
Q 188.777978 189.64822 188.167296 190.009164 
z
M 187.105461 190.150337 
Q 186.479841 190.338608 185.953482 190.145138 
Q 185.427673 189.949528 185.109661 189.411482 
Q 184.665239 188.659563 184.94221 187.905979 
Q 185.220526 187.151599 186.15269 186.600644 
Q 187.090235 186.046508 187.88263 186.168043 
Q 188.675026 186.289578 189.119447 187.041497 
Q 189.437459 187.579543 189.353932 188.135302 
Q 189.270954 188.688921 188.808376 189.143829 
Q 189.506021 188.923878 190.09414 189.138926 
Q 190.682808 189.351833 191.037392 189.951754 
Q 191.577217 190.865087 191.308936 191.682506 
Q 191.039859 192.49858 190.001431 193.112344 
Q 188.964347 193.725312 188.118324 193.568318 
Q 187.27285 193.409184 186.733025 192.495851 
Q 186.378442 191.89593 186.477127 191.276761 
Q 186.576362 190.655453 187.105461 190.150337 
z
M 186.002094 188.99291 
Q 186.289895 189.479841 186.755282 189.573223 
Q 187.222014 189.665809 187.772166 189.340642 
Q 188.319628 189.017065 188.466268 188.561945 
Q 188.614253 188.106029 188.326452 187.619098 
Q 188.037857 187.130821 187.567089 187.04062 
Q 187.097667 186.949624 186.550205 187.273201 
Q 186.000053 187.598368 185.856103 188.051898 
Q 185.713498 188.504633 186.002094 188.99291 
z
" clip-path="url(#pf22140e7db)" style="fill: #aa2395; stroke: #ffffff; stroke-width: 5"/>
    <path d="M 188.167296 190.009164 
Q 187.561995 190.366928 187.406557 190.896218 
Q 187.252465 191.424713 187.587173 191.991007 
Q 187.922675 192.558645 188.459972 192.678495 
Q 188.998614 192.79755 189.603916 192.439786 
Q 190.209217 192.082023 190.365205 191.550592 
Q 190.521742 191.017021 190.188624 190.453418 
Q 189.853917 189.887125 189.315275 189.76807 
Q 188.777978 189.64822 188.167296 190.009164 
z
M 187.105461 190.150337 
Q 186.479841 190.338608 185.953482 190.145138 
Q 185.427673 189.949528 185.109661 189.411482 
Q 184.665239 188.659563 184.94221 187.905979 
Q 185.220526 187.151599 186.15269 186.600644 
Q 187.090235 186.046508 187.88263 186.168043 
Q 188.675026 186.289578 189.119447 187.041497 
Q 189.437459 187.579543 189.353932 188.135302 
Q 189.270954 188.688921 188.808376 189.143829 
Q 189.506021 188.923878 190.09414 189.138926 
Q 190.682808 189.351833 191.037392 189.951754 
Q 191.577217 190.865087 191.308936 191.682506 
Q 191.039859 192.49858 190.001431 193.112344 
Q 188.964347 193.725312 188.118324 193.568318 
Q 187.27285 193.409184 186.733025 192.495851 
Q 186.378442 191.89593 186.477127 191.276761 
Q 186.576362 190.655453 187.105461 190.150337 
z
M 186.002094 188.99291 
Q 186.289895 189.479841 186.755282 189.573223 
Q 187.222014 189.665809 187.772166 189.340642 
Q 188.319628 189.017065 188.466268 188.561945 
Q 188.614253 188.106029 188.326452 187.619098 
Q 188.037857 187.130821 187.567089 187.04062 
Q 187.097667 186.949624 186.550205 187.273201 
Q 186.000053 187.598368 185.856103 188.051898 
Q 185.713498 188.504633 186.002094 188.99291 
z
" clip-path="url(#pf22140e7db)" style="fill: #aa2395"/>
   </g>
   <g id="text_19">
    <path d="M 223.608782 179.804669 
L 225.219568 179.782607 
L 225.143392 174.220629 
L 223.395245 174.596167 
L 223.382942 173.697814 
L 225.121714 173.322404 
L 226.107559 173.308902 
L 226.196039 179.769234 
L 227.806826 179.747172 
L 227.818188 180.576782 
L 223.620144 180.634278 
L 223.608782 179.804669 
z
M 231.987304 176.481803 
Q 231.323304 176.490897 230.940505 176.95087 
Q 230.559246 177.40926 230.570074 178.19981 
Q 230.580837 178.985674 230.97457 179.438137 
Q 231.369844 179.889016 232.033845 179.879922 
Q 232.697845 179.870828 233.07906 179.409314 
Q 233.460254 178.946238 233.449491 178.160374 
Q 233.438664 177.369823 233.044995 176.922047 
Q 232.651304 176.472709 231.987304 176.481803 
z
M 233.902586 173.363094 
L 233.91489 174.261447 
Q 233.540654 174.091557 233.161302 174.004556 
Q 232.781928 173.915993 232.410088 173.921086 
Q 231.433617 173.93446 230.92707 174.600834 
Q 230.422086 175.267187 230.366908 176.60088 
Q 230.648561 176.171983 231.079792 175.939493 
Q 231.512586 175.706982 232.034412 175.699835 
Q 233.132747 175.684792 233.779324 176.343187 
Q 234.42588 177.000019 234.441586 178.146786 
Q 234.456971 179.270118 233.802279 179.958836 
Q 233.147565 180.645992 232.044544 180.661099 
Q 230.779037 180.678431 230.097083 179.71893 
Q 229.415108 178.757867 229.389901 176.917415 
Q 229.366235 175.189452 230.172391 174.150189 
Q 230.978546 173.110927 232.359667 173.092011 
Q 232.731507 173.086918 233.110602 173.155171 
Q 233.489697 173.223423 233.902586 173.363094 
z
" clip-path="url(#pf22140e7db)" style="fill: #cc4778; stroke: #ffffff; stroke-width: 5"/>
    <path d="M 223.608782 179.804669 
L 225.219568 179.782607 
L 225.143392 174.220629 
L 223.395245 174.596167 
L 223.382942 173.697814 
L 225.121714 173.322404 
L 226.107559 173.308902 
L 226.196039 179.769234 
L 227.806826 179.747172 
L 227.818188 180.576782 
L 223.620144 180.634278 
L 223.608782 179.804669 
z
M 231.987304 176.481803 
Q 231.323304 176.490897 230.940505 176.95087 
Q 230.559246 177.40926 230.570074 178.19981 
Q 230.580837 178.985674 230.97457 179.438137 
Q 231.369844 179.889016 232.033845 179.879922 
Q 232.697845 179.870828 233.07906 179.409314 
Q 233.460254 178.946238 233.449491 178.160374 
Q 233.438664 177.369823 233.044995 176.922047 
Q 232.651304 176.472709 231.987304 176.481803 
z
M 233.902586 173.363094 
L 233.91489 174.261447 
Q 233.540654 174.091557 233.161302 174.004556 
Q 232.781928 173.915993 232.410088 173.921086 
Q 231.433617 173.93446 230.92707 174.600834 
Q 230.422086 175.267187 230.366908 176.60088 
Q 230.648561 176.171983 231.079792 175.939493 
Q 231.512586 175.706982 232.034412 175.699835 
Q 233.132747 175.684792 233.779324 176.343187 
Q 234.42588 177.000019 234.441586 178.146786 
Q 234.456971 179.270118 233.802279 179.958836 
Q 233.147565 180.645992 232.044544 180.661099 
Q 230.779037 180.678431 230.097083 179.71893 
Q 229.415108 178.757867 229.389901 176.917415 
Q 229.366235 175.189452 230.172391 174.150189 
Q 230.978546 173.110927 232.359667 173.092011 
Q 232.731507 173.086918 233.110602 173.155171 
Q 233.489697 173.223423 233.902586 173.363094 
z
" clip-path="url(#pf22140e7db)" style="fill: #cc4778"/>
   </g>
   <g id="text_20">
    <path d="M 266.416335 203.090943 
Q 267.139321 203.126459 267.608312 203.535919 
Q 268.078592 203.943585 268.191903 204.63752 
Q 268.365645 205.701554 267.728591 206.405606 
Q 267.091285 207.108117 265.741967 207.328443 
Q 265.290139 207.40222 264.795948 207.39109 
Q 264.301757 207.379959 263.762121 207.284425 
L 263.608774 206.345299 
Q 264.051324 206.515265 264.552093 206.556986 
Q 265.054403 206.598454 265.580252 206.51259 
Q 266.494704 206.363272 266.915368 205.924116 
Q 267.336033 205.48496 267.223478 204.795651 
Q 267.119484 204.158773 266.615406 203.873782 
Q 266.111076 203.587248 265.316906 203.716926 
L 264.478016 203.853905 
L 264.347332 203.053567 
L 265.224774 202.910292 
Q 265.94184 202.793205 266.275898 202.444184 
Q 266.609956 202.095163 266.521826 201.555436 
Q 266.431429 201.00183 265.989854 200.76996 
Q 265.549569 200.536297 264.817082 200.655902 
Q 264.416142 200.72137 263.972497 200.884053 
Q 263.528601 201.045195 263.009334 201.316801 
L 262.867822 200.450153 
Q 263.39779 200.205297 263.869412 200.049128 
Q 264.341034 199.892959 264.769732 199.822958 
Q 265.878486 199.641913 266.605413 200.04092 
Q 267.33363 200.438133 267.473631 201.295528 
Q 267.57133 201.893854 267.29622 202.361488 
Q 267.021109 202.829122 266.416335 203.090943 
z
M 271.084202 205.47138 
L 274.481399 204.916663 
L 274.615105 205.735506 
L 270.047472 206.48134 
L 269.913766 205.662497 
Q 270.373701 204.998448 271.172162 203.876991 
Q 271.971913 202.75374 272.171276 202.433046 
Q 272.552913 201.832444 272.678537 201.438298 
Q 272.805703 201.043899 272.748293 200.692306 
Q 272.654623 200.118653 272.193219 199.823527 
Q 271.731564 199.526859 271.085434 199.632363 
Q 270.627437 199.707148 270.144487 199.949076 
Q 269.663079 200.190753 269.137678 200.609014 
L 268.977029 199.625169 
Q 269.526035 199.293295 270.016822 199.089667 
Q 270.509151 198.885787 270.933222 198.816542 
Q 272.051229 198.633986 272.807268 199.085234 
Q 273.563055 199.53494 273.715646 200.469439 
Q 273.788165 200.913557 273.686585 201.338608 
Q 273.586295 201.761864 273.234934 202.373354 
Q 273.137566 202.533324 272.600465 203.306548 
Q 272.064906 204.07952 271.084202 205.47138 
z
" clip-path="url(#pf22140e7db)" style="fill: #e66c5c; stroke: #ffffff; stroke-width: 5"/>
    <path d="M 266.416335 203.090943 
Q 267.139321 203.126459 267.608312 203.535919 
Q 268.078592 203.943585 268.191903 204.63752 
Q 268.365645 205.701554 267.728591 206.405606 
Q 267.091285 207.108117 265.741967 207.328443 
Q 265.290139 207.40222 264.795948 207.39109 
Q 264.301757 207.379959 263.762121 207.284425 
L 263.608774 206.345299 
Q 264.051324 206.515265 264.552093 206.556986 
Q 265.054403 206.598454 265.580252 206.51259 
Q 266.494704 206.363272 266.915368 205.924116 
Q 267.336033 205.48496 267.223478 204.795651 
Q 267.119484 204.158773 266.615406 203.873782 
Q 266.111076 203.587248 265.316906 203.716926 
L 264.478016 203.853905 
L 264.347332 203.053567 
L 265.224774 202.910292 
Q 265.94184 202.793205 266.275898 202.444184 
Q 266.609956 202.095163 266.521826 201.555436 
Q 266.431429 201.00183 265.989854 200.76996 
Q 265.549569 200.536297 264.817082 200.655902 
Q 264.416142 200.72137 263.972497 200.884053 
Q 263.528601 201.045195 263.009334 201.316801 
L 262.867822 200.450153 
Q 263.39779 200.205297 263.869412 200.049128 
Q 264.341034 199.892959 264.769732 199.822958 
Q 265.878486 199.641913 266.605413 200.04092 
Q 267.33363 200.438133 267.473631 201.295528 
Q 267.57133 201.893854 267.29622 202.361488 
Q 267.021109 202.829122 266.416335 203.090943 
z
M 271.084202 205.47138 
L 274.481399 204.916663 
L 274.615105 205.735506 
L 270.047472 206.48134 
L 269.913766 205.662497 
Q 270.373701 204.998448 271.172162 203.876991 
Q 271.971913 202.75374 272.171276 202.433046 
Q 272.552913 201.832444 272.678537 201.438298 
Q 272.805703 201.043899 272.748293 200.692306 
Q 272.654623 200.118653 272.193219 199.823527 
Q 271.731564 199.526859 271.085434 199.632363 
Q 270.627437 199.707148 270.144487 199.949076 
Q 269.663079 200.190753 269.137678 200.609014 
L 268.977029 199.625169 
Q 269.526035 199.293295 270.016822 199.089667 
Q 270.509151 198.885787 270.933222 198.816542 
Q 272.051229 198.633986 272.807268 199.085234 
Q 273.563055 199.53494 273.715646 200.469439 
Q 273.788165 200.913557 273.686585 201.338608 
Q 273.586295 201.761864 273.234934 202.373354 
Q 273.137566 202.533324 272.600465 203.306548 
Q 272.064906 204.07952 271.084202 205.47138 
z
" clip-path="url(#pf22140e7db)" style="fill: #e66c5c"/>
   </g>
   <g id="text_21">
    <path d="M 305.757249 157.084615 
Q 305.120857 157.274312 304.877894 157.821194 
Q 304.635982 158.366131 304.861834 159.123811 
Q 305.086346 159.876999 305.588479 160.20504 
Q 306.091663 160.531138 306.728054 160.341441 
Q 307.364445 160.151743 307.605465 159.603811 
Q 307.846038 159.054381 307.621525 158.301193 
Q 307.395674 157.543513 306.89488 157.219964 
Q 306.39364 156.894917 305.757249 157.084615 
z
M 306.750158 153.562004 
L 307.006808 154.423004 
Q 306.600438 154.361527 306.211735 154.381197 
Q 305.822585 154.39937 305.466206 154.5056 
Q 304.530337 154.784568 304.224556 155.563761 
Q 303.920273 156.342509 304.23063 157.640762 
Q 304.384744 157.151343 304.736298 156.810137 
Q 305.08935 156.468484 305.589478 156.319404 
Q 306.642144 156.005622 307.44367 156.462898 
Q 308.24475 156.918677 308.572369 158.017762 
Q 308.893293 159.094387 308.451062 159.935449 
Q 308.008386 160.775015 306.951228 161.090136 
Q 305.738341 161.451677 304.820722 160.714332 
Q 303.902657 159.975488 303.37686 158.211562 
Q 302.8832 156.555447 303.375633 155.335831 
Q 303.868067 154.116215 305.191761 153.721644 
Q 305.54814 153.615414 305.931487 153.577775 
Q 306.314834 153.540136 306.750158 153.562004 
z
M 311.628836 152.836559 
L 310.353846 157.278038 
L 312.740687 156.56656 
L 311.628836 152.836559 
z
M 311.134778 152.087087 
L 312.323706 151.732687 
L 313.681049 156.286254 
L 314.678311 155.988986 
L 314.912644 156.775117 
L 313.915381 157.072384 
L 314.406363 158.719514 
L 313.466001 158.999821 
L 312.975019 157.35269 
L 309.821514 158.292698 
L 309.549688 157.380787 
L 311.134778 152.087087 
z
" clip-path="url(#pf22140e7db)" style="fill: #f89540; stroke: #ffffff; stroke-width: 5"/>
    <path d="M 305.757249 157.084615 
Q 305.120857 157.274312 304.877894 157.821194 
Q 304.635982 158.366131 304.861834 159.123811 
Q 305.086346 159.876999 305.588479 160.20504 
Q 306.091663 160.531138 306.728054 160.341441 
Q 307.364445 160.151743 307.605465 159.603811 
Q 307.846038 159.054381 307.621525 158.301193 
Q 307.395674 157.543513 306.89488 157.219964 
Q 306.39364 156.894917 305.757249 157.084615 
z
M 306.750158 153.562004 
L 307.006808 154.423004 
Q 306.600438 154.361527 306.211735 154.381197 
Q 305.822585 154.39937 305.466206 154.5056 
Q 304.530337 154.784568 304.224556 155.563761 
Q 303.920273 156.342509 304.23063 157.640762 
Q 304.384744 157.151343 304.736298 156.810137 
Q 305.08935 156.468484 305.589478 156.319404 
Q 306.642144 156.005622 307.44367 156.462898 
Q 308.24475 156.918677 308.572369 158.017762 
Q 308.893293 159.094387 308.451062 159.935449 
Q 308.008386 160.775015 306.951228 161.090136 
Q 305.738341 161.451677 304.820722 160.714332 
Q 303.902657 159.975488 303.37686 158.211562 
Q 302.8832 156.555447 303.375633 155.335831 
Q 303.868067 154.116215 305.191761 153.721644 
Q 305.54814 153.615414 305.931487 153.577775 
Q 306.314834 153.540136 306.750158 153.562004 
z
M 311.628836 152.836559 
L 310.353846 157.278038 
L 312.740687 156.56656 
L 311.628836 152.836559 
z
M 311.134778 152.087087 
L 312.323706 151.732687 
L 313.681049 156.286254 
L 314.678311 155.988986 
L 314.912644 156.775117 
L 313.915381 157.072384 
L 314.406363 158.719514 
L 313.466001 158.999821 
L 312.975019 157.35269 
L 309.821514 158.292698 
L 309.549688 157.380787 
L 311.134778 152.087087 
z
" clip-path="url(#pf22140e7db)" style="fill: #f89540"/>
   </g>
   <g id="text_22">
    <path d="M 340.882417 164.649811 
L 342.492838 164.69061 
L 342.633714 159.129894 
L 340.872248 159.436944 
L 340.895002 158.538794 
L 342.647096 158.231507 
L 343.632717 158.256477 
L 343.469087 164.715342 
L 345.079508 164.756141 
L 345.058495 165.585562 
L 340.861404 165.479232 
L 340.882417 164.649811 
z
M 347.920588 164.828118 
L 351.361672 164.915295 
L 351.340659 165.744716 
L 346.714018 165.627504 
L 346.735031 164.798082 
Q 347.310509 164.231225 348.303721 163.277949 
Q 349.298534 162.32315 349.554094 162.045158 
Q 350.040834 161.526068 350.237613 161.162185 
Q 350.435954 160.798342 350.444976 160.442206 
Q 350.459697 159.861143 350.061275 159.485307 
Q 349.662893 159.107909 349.008415 159.091328 
Q 348.544502 159.079575 348.024966 159.227402 
Q 347.506993 159.375269 346.912933 159.688449 
L 346.93818 158.691894 
Q 347.539356 158.467985 348.059464 158.359247 
Q 348.581134 158.250549 349.010684 158.261432 
Q 350.143133 158.290121 350.80199 158.874183 
Q 351.460886 159.456682 351.436906 160.403253 
Q 351.425509 160.853109 351.246604 161.25183 
Q 351.0693 161.64903 350.61028 162.184452 
Q 350.484843 162.323507 349.813231 162.983272 
Q 349.14318 163.643076 347.920588 164.828118 
z
M 355.606502 162.389177 
Q 354.903603 162.37137 354.49107 162.737602 
Q 354.0801 163.103874 354.06344 163.761475 
Q 354.04674 164.420639 354.438637 164.80725 
Q 354.832096 165.193902 355.534995 165.211709 
Q 356.237895 165.229516 356.652029 164.861762 
Q 357.067765 164.492485 357.084345 163.838007 
Q 357.101005 163.180406 356.707546 162.793755 
Q 356.31565 162.407143 355.606502 162.389177 
z
M 354.631486 161.945591 
Q 354.001272 161.773325 353.657699 161.330107 
Q 353.315728 160.885366 353.331557 160.260566 
Q 353.353678 159.387409 353.988214 158.895509 
Q 354.624313 158.403649 355.706778 158.431072 
Q 356.795491 158.458654 357.402744 158.982014 
Q 358.009996 159.505373 357.987875 160.378531 
Q 357.972047 161.00333 357.606432 161.430145 
Q 357.242419 161.855437 356.608977 161.99569 
Q 357.317053 162.179306 357.701534 162.673577 
Q 358.087616 163.166326 358.069967 163.862977 
Q 358.043097 164.923575 357.382065 165.474197 
Q 356.721072 166.023258 355.515209 165.992708 
Q 354.310908 165.962198 353.677004 165.380332 
Q 353.044701 164.796944 353.07157 163.736347 
Q 353.08922 163.039695 353.501319 162.567168 
Q 353.91502 162.093118 354.631486 161.945591 
z
M 354.310118 160.379137 
Q 354.295793 160.944581 354.640771 161.27061 
Q 354.987312 161.596679 355.626169 161.612864 
Q 356.261903 161.62897 356.627634 161.320946 
Q 356.994927 161.012962 357.009252 160.447518 
Q 357.023616 159.880512 356.67239 159.554325 
Q 356.322725 159.228177 355.686992 159.212072 
Q 355.048134 159.195887 354.685527 159.503989 
Q 354.324482 159.812132 354.310118 160.379137 
z
" clip-path="url(#pf22140e7db)" style="fill: #fdc527; stroke: #ffffff; stroke-width: 5"/>
    <path d="M 340.882417 164.649811 
L 342.492838 164.69061 
L 342.633714 159.129894 
L 340.872248 159.436944 
L 340.895002 158.538794 
L 342.647096 158.231507 
L 343.632717 158.256477 
L 343.469087 164.715342 
L 345.079508 164.756141 
L 345.058495 165.585562 
L 340.861404 165.479232 
L 340.882417 164.649811 
z
M 347.920588 164.828118 
L 351.361672 164.915295 
L 351.340659 165.744716 
L 346.714018 165.627504 
L 346.735031 164.798082 
Q 347.310509 164.231225 348.303721 163.277949 
Q 349.298534 162.32315 349.554094 162.045158 
Q 350.040834 161.526068 350.237613 161.162185 
Q 350.435954 160.798342 350.444976 160.442206 
Q 350.459697 159.861143 350.061275 159.485307 
Q 349.662893 159.107909 349.008415 159.091328 
Q 348.544502 159.079575 348.024966 159.227402 
Q 347.506993 159.375269 346.912933 159.688449 
L 346.93818 158.691894 
Q 347.539356 158.467985 348.059464 158.359247 
Q 348.581134 158.250549 349.010684 158.261432 
Q 350.143133 158.290121 350.80199 158.874183 
Q 351.460886 159.456682 351.436906 160.403253 
Q 351.425509 160.853109 351.246604 161.25183 
Q 351.0693 161.64903 350.61028 162.184452 
Q 350.484843 162.323507 349.813231 162.983272 
Q 349.14318 163.643076 347.920588 164.828118 
z
M 355.606502 162.389177 
Q 354.903603 162.37137 354.49107 162.737602 
Q 354.0801 163.103874 354.06344 163.761475 
Q 354.04674 164.420639 354.438637 164.80725 
Q 354.832096 165.193902 355.534995 165.211709 
Q 356.237895 165.229516 356.652029 164.861762 
Q 357.067765 164.492485 357.084345 163.838007 
Q 357.101005 163.180406 356.707546 162.793755 
Q 356.31565 162.407143 355.606502 162.389177 
z
M 354.631486 161.945591 
Q 354.001272 161.773325 353.657699 161.330107 
Q 353.315728 160.885366 353.331557 160.260566 
Q 353.353678 159.387409 353.988214 158.895509 
Q 354.624313 158.403649 355.706778 158.431072 
Q 356.795491 158.458654 357.402744 158.982014 
Q 358.009996 159.505373 357.987875 160.378531 
Q 357.972047 161.00333 357.606432 161.430145 
Q 357.242419 161.855437 356.608977 161.99569 
Q 357.317053 162.179306 357.701534 162.673577 
Q 358.087616 163.166326 358.069967 163.862977 
Q 358.043097 164.923575 357.382065 165.474197 
Q 356.721072 166.023258 355.515209 165.992708 
Q 354.310908 165.962198 353.677004 165.380332 
Q 353.044701 164.796944 353.07157 163.736347 
Q 353.08922 163.039695 353.501319 162.567168 
Q 353.91502 162.093118 354.631486 161.945591 
z
M 354.310118 160.379137 
Q 354.295793 160.944581 354.640771 161.27061 
Q 354.987312 161.596679 355.626169 161.612864 
Q 356.261903 161.62897 356.627634 161.320946 
Q 356.994927 161.012962 357.009252 160.447518 
Q 357.023616 159.880512 356.67239 159.554325 
Q 356.322725 159.228177 355.686992 159.212072 
Q 355.048134 159.195887 354.685527 159.503989 
Q 354.324482 159.812132 354.310118 160.379137 
z
" clip-path="url(#pf22140e7db)" style="fill: #fdc527"/>
   </g>
   <g id="patch_3">
    <path d="M 50.14375 301.735725 
L 50.14375 35.623725 
" style="fill: none; stroke: #cccccc; stroke-width: 0.8; stroke-linejoin: miter; stroke-linecap: square"/>
   </g>
   <g id="patch_4">
    <path d="M 407.26375 301.735725 
L 407.26375 35.623725 
" style="fill: none; stroke: #cccccc; stroke-width: 0.8; stroke-linejoin: miter; stroke-linecap: square"/>
   </g>
   <g id="patch_5">
    <path d="M 50.14375 301.735725 
L 407.26375 301.735725 
" style="fill: none; stroke: #cccccc; stroke-width: 0.8; stroke-linejoin: miter; stroke-linecap: square"/>
   </g>
   <g id="patch_6">
    <path d="M 50.14375 35.623725 
L 407.26375 35.623725 
" style="fill: none; stroke: #cccccc; stroke-width: 0.8; stroke-linejoin: miter; stroke-linecap: square"/>
   </g>
   <g id="text_23">
    <!-- Block Size = 4M, Read-Write Type = Random Balanced 1:1 -->
    <g style="fill: #262626; opacity: 0.75" transform="translate(82.438125 30.882918) scale(0.1 -0.1)">
     <defs>
      <path id="DejaVuSans-6c" d="M 603 4863 
L 1178 4863 
L 1178 0 
L 603 0 
L 603 4863 
z
" transform="scale(0.015625)"/>
      <path id="DejaVuSans-63" d="M 3122 3366 
L 3122 2828 
Q 2878 2963 2633 3030 
Q 2388 3097 2138 3097 
Q 1578 3097 1268 2742 
Q 959 2388 959 1747 
Q 959 1106 1268 751 
Q 1578 397 2138 397 
Q 2388 397 2633 464 
Q 2878 531 3122 666 
L 3122 134 
Q 2881 22 2623 -34 
Q 2366 -91 2075 -91 
Q 1284 -91 818 406 
Q 353 903 353 1747 
Q 353 2603 823 3093 
Q 1294 3584 2113 3584 
Q 2378 3584 2631 3529 
Q 2884 3475 3122 3366 
z
" transform="scale(0.015625)"/>
      <path id="DejaVuSans-6b" d="M 581 4863 
L 1159 4863 
L 1159 1991 
L 2875 3500 
L 3609 3500 
L 1753 1863 
L 3688 0 
L 2938 0 
L 1159 1709 
L 1159 0 
L 581 0 
L 581 4863 
z
" transform="scale(0.015625)"/>
      <path id="DejaVuSans-53" d="M 3425 4513 
L 3425 3897 
Q 3066 4069 2747 4153 
Q 2428 4238 2131 4238 
Q 1616 4238 1336 4038 
Q 1056 3838 1056 3469 
Q 1056 3159 1242 3001 
Q 1428 2844 1947 2747 
L 2328 2669 
Q 3034 2534 3370 2195 
Q 3706 1856 3706 1288 
Q 3706 609 3251 259 
Q 2797 -91 1919 -91 
Q 1588 -91 1214 -16 
Q 841 59 441 206 
L 441 856 
Q 825 641 1194 531 
Q 1563 422 1919 422 
Q 2459 422 2753 634 
Q 3047 847 3047 1241 
Q 3047 1584 2836 1778 
Q 2625 1972 2144 2069 
L 1759 2144 
Q 1053 2284 737 2584 
Q 422 2884 422 3419 
Q 422 4038 858 4394 
Q 1294 4750 2059 4750 
Q 2388 4750 2728 4690 
Q 3069 4631 3425 4513 
z
" transform="scale(0.015625)"/>
      <path id="DejaVuSans-7a" d="M 353 3500 
L 3084 3500 
L 3084 2975 
L 922 459 
L 3084 459 
L 3084 0 
L 275 0 
L 275 525 
L 2438 3041 
L 353 3041 
L 353 3500 
z
" transform="scale(0.015625)"/>
      <path id="DejaVuSans-3d" d="M 678 2906 
L 4684 2906 
L 4684 2381 
L 678 2381 
L 678 2906 
z
M 678 1631 
L 4684 1631 
L 4684 1100 
L 678 1100 
L 678 1631 
z
" transform="scale(0.015625)"/>
      <path id="DejaVuSans-2c" d="M 750 794 
L 1409 794 
L 1409 256 
L 897 -744 
L 494 -744 
L 750 256 
L 750 794 
z
" transform="scale(0.015625)"/>
      <path id="DejaVuSans-52" d="M 2841 2188 
Q 3044 2119 3236 1894 
Q 3428 1669 3622 1275 
L 4263 0 
L 3584 0 
L 2988 1197 
Q 2756 1666 2539 1819 
Q 2322 1972 1947 1972 
L 1259 1972 
L 1259 0 
L 628 0 
L 628 4666 
L 2053 4666 
Q 2853 4666 3247 4331 
Q 3641 3997 3641 3322 
Q 3641 2881 3436 2590 
Q 3231 2300 2841 2188 
z
M 1259 4147 
L 1259 2491 
L 2053 2491 
Q 2509 2491 2742 2702 
Q 2975 2913 2975 3322 
Q 2975 3731 2742 3939 
Q 2509 4147 2053 4147 
L 1259 4147 
z
" transform="scale(0.015625)"/>
      <path id="DejaVuSans-2d" d="M 313 2009 
L 1997 2009 
L 1997 1497 
L 313 1497 
L 313 2009 
z
" transform="scale(0.015625)"/>
      <path id="DejaVuSans-57" d="M 213 4666 
L 850 4666 
L 1831 722 
L 2809 4666 
L 3519 4666 
L 4500 722 
L 5478 4666 
L 6119 4666 
L 4947 0 
L 4153 0 
L 3169 4050 
L 2175 0 
L 1381 0 
L 213 4666 
z
" transform="scale(0.015625)"/>
      <path id="DejaVuSans-54" d="M -19 4666 
L 3928 4666 
L 3928 4134 
L 2272 4134 
L 2272 0 
L 1638 0 
L 1638 4134 
L -19 4134 
L -19 4666 
z
" transform="scale(0.015625)"/>
      <path id="DejaVuSans-79" d="M 2059 -325 
Q 1816 -950 1584 -1140 
Q 1353 -1331 966 -1331 
L 506 -1331 
L 506 -850 
L 844 -850 
Q 1081 -850 1212 -737 
Q 1344 -625 1503 -206 
L 1606 56 
L 191 3500 
L 800 3500 
L 1894 763 
L 2988 3500 
L 3597 3500 
L 2059 -325 
z
" transform="scale(0.015625)"/>
      <path id="DejaVuSans-70" d="M 1159 525 
L 1159 -1331 
L 581 -1331 
L 581 3500 
L 1159 3500 
L 1159 2969 
Q 1341 3281 1617 3432 
Q 1894 3584 2278 3584 
Q 2916 3584 3314 3078 
Q 3713 2572 3713 1747 
Q 3713 922 3314 415 
Q 2916 -91 2278 -91 
Q 1894 -91 1617 61 
Q 1341 213 1159 525 
z
M 3116 1747 
Q 3116 2381 2855 2742 
Q 2594 3103 2138 3103 
Q 1681 3103 1420 2742 
Q 1159 2381 1159 1747 
Q 1159 1113 1420 752 
Q 1681 391 2138 391 
Q 2594 391 2855 752 
Q 3116 1113 3116 1747 
z
" transform="scale(0.015625)"/>
      <path id="DejaVuSans-3a" d="M 750 794 
L 1409 794 
L 1409 0 
L 750 0 
L 750 794 
z
M 750 3309 
L 1409 3309 
L 1409 2516 
L 750 2516 
L 750 3309 
z
" transform="scale(0.015625)"/>
     </defs>
     <use xlink:href="#DejaVuSans-42"/>
     <use xlink:href="#DejaVuSans-6c" transform="translate(68.603516 0)"/>
     <use xlink:href="#DejaVuSans-6f" transform="translate(96.386719 0)"/>
     <use xlink:href="#DejaVuSans-63" transform="translate(157.568359 0)"/>
     <use xlink:href="#DejaVuSans-6b" transform="translate(212.548828 0)"/>
     <use xlink:href="#DejaVuSans-20" transform="translate(270.458984 0)"/>
     <use xlink:href="#DejaVuSans-53" transform="translate(302.246094 0)"/>
     <use xlink:href="#DejaVuSans-69" transform="translate(365.722656 0)"/>
     <use xlink:href="#DejaVuSans-7a" transform="translate(393.505859 0)"/>
     <use xlink:href="#DejaVuSans-65" transform="translate(445.996094 0)"/>
     <use xlink:href="#DejaVuSans-20" transform="translate(507.519531 0)"/>
     <use xlink:href="#DejaVuSans-3d" transform="translate(539.306641 0)"/>
     <use xlink:href="#DejaVuSans-20" transform="translate(623.095703 0)"/>
     <use xlink:href="#DejaVuSans-34" transform="translate(654.882812 0)"/>
     <use xlink:href="#DejaVuSans-4d" transform="translate(718.505859 0)"/>
     <use xlink:href="#DejaVuSans-2c" transform="translate(804.785156 0)"/>
     <use xlink:href="#DejaVuSans-20" transform="translate(836.572266 0)"/>
     <use xlink:href="#DejaVuSans-52" transform="translate(868.359375 0)"/>
     <use xlink:href="#DejaVuSans-65" transform="translate(933.341797 0)"/>
     <use xlink:href="#DejaVuSans-61" transform="translate(994.865234 0)"/>
     <use xlink:href="#DejaVuSans-64" transform="translate(1056.144531 0)"/>
     <use xlink:href="#DejaVuSans-2d" transform="translate(1119.621094 0)"/>
     <use xlink:href="#DejaVuSans-57" transform="translate(1151.705078 0)"/>
     <use xlink:href="#DejaVuSans-72" transform="translate(1246.082031 0)"/>
     <use xlink:href="#DejaVuSans-69" transform="translate(1287.195312 0)"/>
     <use xlink:href="#DejaVuSans-74" transform="translate(1314.978516 0)"/>
     <use xlink:href="#DejaVuSans-65" transform="translate(1354.1875 0)"/>
     <use xlink:href="#DejaVuSans-20" transform="translate(1415.710938 0)"/>
     <use xlink:href="#DejaVuSans-54" transform="translate(1447.498047 0)"/>
     <use xlink:href="#DejaVuSans-79" transform="translate(1492.957031 0)"/>
     <use xlink:href="#DejaVuSans-70" transform="translate(1552.136719 0)"/>
     <use xlink:href="#DejaVuSans-65" transform="translate(1615.613281 0)"/>
     <use xlink:href="#DejaVuSans-20" transform="translate(1677.136719 0)"/>
     <use xlink:href="#DejaVuSans-3d" transform="translate(1708.923828 0)"/>
     <use xlink:href="#DejaVuSans-20" transform="translate(1792.712891 0)"/>
     <use xlink:href="#DejaVuSans-52" transform="translate(1824.5 0)"/>
     <use xlink:href="#DejaVuSans-61" transform="translate(1891.732422 0)"/>
     <use xlink:href="#DejaVuSans-6e" transform="translate(1953.011719 0)"/>
     <use xlink:href="#DejaVuSans-64" transform="translate(2016.390625 0)"/>
     <use xlink:href="#DejaVuSans-6f" transform="translate(2079.867188 0)"/>
     <use xlink:href="#DejaVuSans-6d" transform="translate(2141.048828 0)"/>
     <use xlink:href="#DejaVuSans-20" transform="translate(2238.460938 0)"/>
     <use xlink:href="#DejaVuSans-42" transform="translate(2270.248047 0)"/>
     <use xlink:href="#DejaVuSans-61" transform="translate(2338.851562 0)"/>
     <use xlink:href="#DejaVuSans-6c" transform="translate(2400.130859 0)"/>
     <use xlink:href="#DejaVuSans-61" transform="translate(2427.914062 0)"/>
     <use xlink:href="#DejaVuSans-6e" transform="translate(2489.193359 0)"/>
     <use xlink:href="#DejaVuSans-63" transform="translate(2552.572266 0)"/>
     <use xlink:href="#DejaVuSans-65" transform="translate(2607.552734 0)"/>
     <use xlink:href="#DejaVuSans-64" transform="translate(2669.076172 0)"/>
     <use xlink:href="#DejaVuSans-20" transform="translate(2732.552734 0)"/>
     <use xlink:href="#DejaVuSans-31" transform="translate(2764.339844 0)"/>
     <use xlink:href="#DejaVuSans-3a" transform="translate(2827.962891 0)"/>
     <use xlink:href="#DejaVuSans-31" transform="translate(2861.654297 0)"/>
    </g>
   </g>
   <g id="text_24">
    <!-- Mean Bandwidth vs Number of Jobs -->
    <g style="fill: #262626" transform="translate(108.374688 16.318125) scale(0.12 -0.12)">
     <defs>
      <path id="DejaVuSans-Bold-4d" d="M 588 4666 
L 2119 4666 
L 3181 2169 
L 4250 4666 
L 5778 4666 
L 5778 0 
L 4641 0 
L 4641 3413 
L 3566 897 
L 2803 897 
L 1728 3413 
L 1728 0 
L 588 0 
L 588 4666 
z
" transform="scale(0.015625)"/>
      <path id="DejaVuSans-Bold-65" d="M 4031 1759 
L 4031 1441 
L 1416 1441 
Q 1456 1047 1700 850 
Q 1944 653 2381 653 
Q 2734 653 3104 758 
Q 3475 863 3866 1075 
L 3866 213 
Q 3469 63 3072 -14 
Q 2675 -91 2278 -91 
Q 1328 -91 801 392 
Q 275 875 275 1747 
Q 275 2603 792 3093 
Q 1309 3584 2216 3584 
Q 3041 3584 3536 3087 
Q 4031 2591 4031 1759 
z
M 2881 2131 
Q 2881 2450 2695 2645 
Q 2509 2841 2209 2841 
Q 1884 2841 1681 2658 
Q 1478 2475 1428 2131 
L 2881 2131 
z
" transform="scale(0.015625)"/>
      <path id="DejaVuSans-Bold-61" d="M 2106 1575 
Q 1756 1575 1579 1456 
Q 1403 1338 1403 1106 
Q 1403 894 1545 773 
Q 1688 653 1941 653 
Q 2256 653 2472 879 
Q 2688 1106 2688 1447 
L 2688 1575 
L 2106 1575 
z
M 3816 1997 
L 3816 0 
L 2688 0 
L 2688 519 
Q 2463 200 2181 54 
Q 1900 -91 1497 -91 
Q 953 -91 614 226 
Q 275 544 275 1050 
Q 275 1666 698 1953 
Q 1122 2241 2028 2241 
L 2688 2241 
L 2688 2328 
Q 2688 2594 2478 2717 
Q 2269 2841 1825 2841 
Q 1466 2841 1156 2769 
Q 847 2697 581 2553 
L 581 3406 
Q 941 3494 1303 3539 
Q 1666 3584 2028 3584 
Q 2975 3584 3395 3211 
Q 3816 2838 3816 1997 
z
" transform="scale(0.015625)"/>
      <path id="DejaVuSans-Bold-6e" d="M 4056 2131 
L 4056 0 
L 2931 0 
L 2931 347 
L 2931 1631 
Q 2931 2084 2911 2256 
Q 2891 2428 2841 2509 
Q 2775 2619 2662 2680 
Q 2550 2741 2406 2741 
Q 2056 2741 1856 2470 
Q 1656 2200 1656 1722 
L 1656 0 
L 538 0 
L 538 3500 
L 1656 3500 
L 1656 2988 
Q 1909 3294 2193 3439 
Q 2478 3584 2822 3584 
Q 3428 3584 3742 3212 
Q 4056 2841 4056 2131 
z
" transform="scale(0.015625)"/>
      <path id="DejaVuSans-Bold-20" transform="scale(0.015625)"/>
      <path id="DejaVuSans-Bold-42" d="M 2456 2859 
Q 2741 2859 2887 2984 
Q 3034 3109 3034 3353 
Q 3034 3594 2887 3720 
Q 2741 3847 2456 3847 
L 1791 3847 
L 1791 2859 
L 2456 2859 
z
M 2497 819 
Q 2859 819 3042 972 
Q 3225 1125 3225 1434 
Q 3225 1738 3044 1889 
Q 2863 2041 2497 2041 
L 1791 2041 
L 1791 819 
L 2497 819 
z
M 3616 2497 
Q 4003 2384 4215 2081 
Q 4428 1778 4428 1338 
Q 4428 663 3972 331 
Q 3516 0 2584 0 
L 588 0 
L 588 4666 
L 2394 4666 
Q 3366 4666 3802 4372 
Q 4238 4078 4238 3431 
Q 4238 3091 4078 2852 
Q 3919 2613 3616 2497 
z
" transform="scale(0.015625)"/>
      <path id="DejaVuSans-Bold-64" d="M 2919 2988 
L 2919 4863 
L 4044 4863 
L 4044 0 
L 2919 0 
L 2919 506 
Q 2688 197 2409 53 
Q 2131 -91 1766 -91 
Q 1119 -91 703 423 
Q 288 938 288 1747 
Q 288 2556 703 3070 
Q 1119 3584 1766 3584 
Q 2128 3584 2408 3439 
Q 2688 3294 2919 2988 
z
M 2181 722 
Q 2541 722 2730 984 
Q 2919 1247 2919 1747 
Q 2919 2247 2730 2509 
Q 2541 2772 2181 2772 
Q 1825 2772 1636 2509 
Q 1447 2247 1447 1747 
Q 1447 1247 1636 984 
Q 1825 722 2181 722 
z
" transform="scale(0.015625)"/>
      <path id="DejaVuSans-Bold-77" d="M 225 3500 
L 1313 3500 
L 1900 1088 
L 2491 3500 
L 3425 3500 
L 4013 1113 
L 4603 3500 
L 5691 3500 
L 4769 0 
L 3547 0 
L 2956 2406 
L 2369 0 
L 1147 0 
L 225 3500 
z
" transform="scale(0.015625)"/>
      <path id="DejaVuSans-Bold-69" d="M 538 3500 
L 1656 3500 
L 1656 0 
L 538 0 
L 538 3500 
z
M 538 4863 
L 1656 4863 
L 1656 3950 
L 538 3950 
L 538 4863 
z
" transform="scale(0.015625)"/>
      <path id="DejaVuSans-Bold-74" d="M 1759 4494 
L 1759 3500 
L 2913 3500 
L 2913 2700 
L 1759 2700 
L 1759 1216 
Q 1759 972 1856 886 
Q 1953 800 2241 800 
L 2816 800 
L 2816 0 
L 1856 0 
Q 1194 0 917 276 
Q 641 553 641 1216 
L 641 2700 
L 84 2700 
L 84 3500 
L 641 3500 
L 641 4494 
L 1759 4494 
z
" transform="scale(0.015625)"/>
      <path id="DejaVuSans-Bold-68" d="M 4056 2131 
L 4056 0 
L 2931 0 
L 2931 347 
L 2931 1625 
Q 2931 2084 2911 2256 
Q 2891 2428 2841 2509 
Q 2775 2619 2662 2680 
Q 2550 2741 2406 2741 
Q 2056 2741 1856 2470 
Q 1656 2200 1656 1722 
L 1656 0 
L 538 0 
L 538 4863 
L 1656 4863 
L 1656 2988 
Q 1909 3294 2193 3439 
Q 2478 3584 2822 3584 
Q 3428 3584 3742 3212 
Q 4056 2841 4056 2131 
z
" transform="scale(0.015625)"/>
      <path id="DejaVuSans-Bold-76" d="M 97 3500 
L 1216 3500 
L 2088 1081 
L 2956 3500 
L 4078 3500 
L 2700 0 
L 1472 0 
L 97 3500 
z
" transform="scale(0.015625)"/>
      <path id="DejaVuSans-Bold-73" d="M 3272 3391 
L 3272 2541 
Q 2913 2691 2578 2766 
Q 2244 2841 1947 2841 
Q 1628 2841 1473 2761 
Q 1319 2681 1319 2516 
Q 1319 2381 1436 2309 
Q 1553 2238 1856 2203 
L 2053 2175 
Q 2913 2066 3209 1816 
Q 3506 1566 3506 1031 
Q 3506 472 3093 190 
Q 2681 -91 1863 -91 
Q 1516 -91 1145 -36 
Q 775 19 384 128 
L 384 978 
Q 719 816 1070 734 
Q 1422 653 1784 653 
Q 2113 653 2278 743 
Q 2444 834 2444 1013 
Q 2444 1163 2330 1236 
Q 2216 1309 1875 1350 
L 1678 1375 
Q 931 1469 631 1722 
Q 331 1975 331 2491 
Q 331 3047 712 3315 
Q 1094 3584 1881 3584 
Q 2191 3584 2531 3537 
Q 2872 3491 3272 3391 
z
" transform="scale(0.015625)"/>
      <path id="DejaVuSans-Bold-4e" d="M 588 4666 
L 1931 4666 
L 3628 1466 
L 3628 4666 
L 4769 4666 
L 4769 0 
L 3425 0 
L 1728 3200 
L 1728 0 
L 588 0 
L 588 4666 
z
" transform="scale(0.015625)"/>
      <path id="DejaVuSans-Bold-75" d="M 500 1363 
L 500 3500 
L 1625 3500 
L 1625 3150 
Q 1625 2866 1622 2436 
Q 1619 2006 1619 1863 
Q 1619 1441 1641 1255 
Q 1663 1069 1716 984 
Q 1784 875 1895 815 
Q 2006 756 2150 756 
Q 2500 756 2700 1025 
Q 2900 1294 2900 1772 
L 2900 3500 
L 4019 3500 
L 4019 0 
L 2900 0 
L 2900 506 
Q 2647 200 2364 54 
Q 2081 -91 1741 -91 
Q 1134 -91 817 281 
Q 500 653 500 1363 
z
" transform="scale(0.015625)"/>
      <path id="DejaVuSans-Bold-6d" d="M 3781 2919 
Q 3994 3244 4286 3414 
Q 4578 3584 4928 3584 
Q 5531 3584 5847 3212 
Q 6163 2841 6163 2131 
L 6163 0 
L 5038 0 
L 5038 1825 
Q 5041 1866 5042 1909 
Q 5044 1953 5044 2034 
Q 5044 2406 4934 2573 
Q 4825 2741 4581 2741 
Q 4263 2741 4089 2478 
Q 3916 2216 3909 1719 
L 3909 0 
L 2784 0 
L 2784 1825 
Q 2784 2406 2684 2573 
Q 2584 2741 2328 2741 
Q 2006 2741 1831 2477 
Q 1656 2213 1656 1722 
L 1656 0 
L 531 0 
L 531 3500 
L 1656 3500 
L 1656 2988 
Q 1863 3284 2130 3434 
Q 2397 3584 2719 3584 
Q 3081 3584 3359 3409 
Q 3638 3234 3781 2919 
z
" transform="scale(0.015625)"/>
      <path id="DejaVuSans-Bold-62" d="M 2400 722 
Q 2759 722 2948 984 
Q 3138 1247 3138 1747 
Q 3138 2247 2948 2509 
Q 2759 2772 2400 2772 
Q 2041 2772 1848 2508 
Q 1656 2244 1656 1747 
Q 1656 1250 1848 986 
Q 2041 722 2400 722 
z
M 1656 2988 
Q 1888 3294 2169 3439 
Q 2450 3584 2816 3584 
Q 3463 3584 3878 3070 
Q 4294 2556 4294 1747 
Q 4294 938 3878 423 
Q 3463 -91 2816 -91 
Q 2450 -91 2169 54 
Q 1888 200 1656 506 
L 1656 0 
L 538 0 
L 538 4863 
L 1656 4863 
L 1656 2988 
z
" transform="scale(0.015625)"/>
      <path id="DejaVuSans-Bold-72" d="M 3138 2547 
Q 2991 2616 2845 2648 
Q 2700 2681 2553 2681 
Q 2122 2681 1889 2404 
Q 1656 2128 1656 1613 
L 1656 0 
L 538 0 
L 538 3500 
L 1656 3500 
L 1656 2925 
Q 1872 3269 2151 3426 
Q 2431 3584 2822 3584 
Q 2878 3584 2943 3579 
Q 3009 3575 3134 3559 
L 3138 2547 
z
" transform="scale(0.015625)"/>
      <path id="DejaVuSans-Bold-6f" d="M 2203 2784 
Q 1831 2784 1636 2517 
Q 1441 2250 1441 1747 
Q 1441 1244 1636 976 
Q 1831 709 2203 709 
Q 2569 709 2762 976 
Q 2956 1244 2956 1747 
Q 2956 2250 2762 2517 
Q 2569 2784 2203 2784 
z
M 2203 3584 
Q 3106 3584 3614 3096 
Q 4122 2609 4122 1747 
Q 4122 884 3614 396 
Q 3106 -91 2203 -91 
Q 1297 -91 786 396 
Q 275 884 275 1747 
Q 275 2609 786 3096 
Q 1297 3584 2203 3584 
z
" transform="scale(0.015625)"/>
      <path id="DejaVuSans-Bold-66" d="M 2841 4863 
L 2841 4128 
L 2222 4128 
Q 1984 4128 1890 4042 
Q 1797 3956 1797 3744 
L 1797 3500 
L 2753 3500 
L 2753 2700 
L 1797 2700 
L 1797 0 
L 678 0 
L 678 2700 
L 122 2700 
L 122 3500 
L 678 3500 
L 678 3744 
Q 678 4316 997 4589 
Q 1316 4863 1984 4863 
L 2841 4863 
z
" transform="scale(0.015625)"/>
      <path id="DejaVuSans-Bold-4a" d="M 588 4666 
L 1791 4666 
L 1791 453 
Q 1791 -419 1317 -850 
Q 844 -1281 -116 -1281 
L -359 -1281 
L -359 -372 
L -172 -372 
Q 203 -372 395 -162 
Q 588 47 588 453 
L 588 4666 
z
" transform="scale(0.015625)"/>
     </defs>
     <use xlink:href="#DejaVuSans-Bold-4d"/>
     <use xlink:href="#DejaVuSans-Bold-65" transform="translate(99.511719 0)"/>
     <use xlink:href="#DejaVuSans-Bold-61" transform="translate(167.333984 0)"/>
     <use xlink:href="#DejaVuSans-Bold-6e" transform="translate(234.814453 0)"/>
     <use xlink:href="#DejaVuSans-Bold-20" transform="translate(306.005859 0)"/>
     <use xlink:href="#DejaVuSans-Bold-42" transform="translate(340.820312 0)"/>
     <use xlink:href="#DejaVuSans-Bold-61" transform="translate(417.041016 0)"/>
     <use xlink:href="#DejaVuSans-Bold-6e" transform="translate(484.521484 0)"/>
     <use xlink:href="#DejaVuSans-Bold-64" transform="translate(555.712891 0)"/>
     <use xlink:href="#DejaVuSans-Bold-77" transform="translate(627.294922 0)"/>
     <use xlink:href="#DejaVuSans-Bold-69" transform="translate(719.677734 0)"/>
     <use xlink:href="#DejaVuSans-Bold-64" transform="translate(753.955078 0)"/>
     <use xlink:href="#DejaVuSans-Bold-74" transform="translate(825.537109 0)"/>
     <use xlink:href="#DejaVuSans-Bold-68" transform="translate(873.339844 0)"/>
     <use xlink:href="#DejaVuSans-Bold-20" transform="translate(944.53125 0)"/>
     <use xlink:href="#DejaVuSans-Bold-76" transform="translate(979.345703 0)"/>
     <use xlink:href="#DejaVuSans-Bold-73" transform="translate(1044.53125 0)"/>
     <use xlink:href="#DejaVuSans-Bold-20" transform="translate(1104.052734 0)"/>
     <use xlink:href="#DejaVuSans-Bold-4e" transform="translate(1138.867188 0)"/>
     <use xlink:href="#DejaVuSans-Bold-75" transform="translate(1222.558594 0)"/>
     <use xlink:href="#DejaVuSans-Bold-6d" transform="translate(1293.75 0)"/>
     <use xlink:href="#DejaVuSans-Bold-62" transform="translate(1397.949219 0)"/>
     <use xlink:href="#DejaVuSans-Bold-65" transform="translate(1469.53125 0)"/>
     <use xlink:href="#DejaVuSans-Bold-72" transform="translate(1537.353516 0)"/>
     <use xlink:href="#DejaVuSans-Bold-20" transform="translate(1586.669922 0)"/>
     <use xlink:href="#DejaVuSans-Bold-6f" transform="translate(1621.484375 0)"/>
     <use xlink:href="#DejaVuSans-Bold-66" transform="translate(1690.185547 0)"/>
     <use xlink:href="#DejaVuSans-Bold-20" transform="translate(1733.691406 0)"/>
     <use xlink:href="#DejaVuSans-Bold-4a" transform="translate(1768.505859 0)"/>
     <use xlink:href="#DejaVuSans-Bold-6f" transform="translate(1805.712891 0)"/>
     <use xlink:href="#DejaVuSans-Bold-62" transform="translate(1874.414062 0)"/>
     <use xlink:href="#DejaVuSans-Bold-73" transform="translate(1945.996094 0)"/>
    </g>
   </g>
   <g id="legend_1">
    <g id="text_25">
     <!-- IO Depth -->
     <g style="fill: #262626" transform="translate(441.770312 120.065663) scale(0.1 -0.1)">
      <defs>
       <path id="DejaVuSans-49" d="M 628 4666 
L 1259 4666 
L 1259 0 
L 628 0 
L 628 4666 
z
" transform="scale(0.015625)"/>
       <path id="DejaVuSans-4f" d="M 2522 4238 
Q 1834 4238 1429 3725 
Q 1025 3213 1025 2328 
Q 1025 1447 1429 934 
Q 1834 422 2522 422 
Q 3209 422 3611 934 
Q 4013 1447 4013 2328 
Q 4013 3213 3611 3725 
Q 3209 4238 2522 4238 
z
M 2522 4750 
Q 3503 4750 4090 4092 
Q 4678 3434 4678 2328 
Q 4678 1225 4090 567 
Q 3503 -91 2522 -91 
Q 1538 -91 948 565 
Q 359 1222 359 2328 
Q 359 3434 948 4092 
Q 1538 4750 2522 4750 
z
" transform="scale(0.015625)"/>
       <path id="DejaVuSans-44" d="M 1259 4147 
L 1259 519 
L 2022 519 
Q 2988 519 3436 956 
Q 3884 1394 3884 2338 
Q 3884 3275 3436 3711 
Q 2988 4147 2022 4147 
L 1259 4147 
z
M 628 4666 
L 1925 4666 
Q 3281 4666 3915 4102 
Q 4550 3538 4550 2338 
Q 4550 1131 3912 565 
Q 3275 0 1925 0 
L 628 0 
L 628 4666 
z
" transform="scale(0.015625)"/>
      </defs>
      <use xlink:href="#DejaVuSans-49"/>
      <use xlink:href="#DejaVuSans-4f" transform="translate(29.492188 0)"/>
      <use xlink:href="#DejaVuSans-20" transform="translate(108.203125 0)"/>
      <use xlink:href="#DejaVuSans-44" transform="translate(139.990234 0)"/>
      <use xlink:href="#DejaVuSans-65" transform="translate(216.992188 0)"/>
      <use xlink:href="#DejaVuSans-70" transform="translate(278.515625 0)"/>
      <use xlink:href="#DejaVuSans-74" transform="translate(341.992188 0)"/>
      <use xlink:href="#DejaVuSans-68" transform="translate(381.201172 0)"/>
     </g>
    </g>
    <g id="line2d_28">
     <path d="M 440.45625 131.243787 
L 450.45625 131.243787 
L 460.45625 131.243787 
" style="fill: none; stroke: #4c02a1; stroke-width: 1.5; stroke-linecap: round"/>
    </g>
    <g id="text_26">
     <!-- 1 -->
     <g style="fill: #262626" transform="translate(468.45625 134.743787) scale(0.1 -0.1)">
      <use xlink:href="#DejaVuSans-31"/>
     </g>
    </g>
    <g id="line2d_29">
     <path d="M 440.45625 145.921913 
L 450.45625 145.921913 
L 460.45625 145.921913 
" style="fill: none; stroke: #7e03a8; stroke-width: 1.5; stroke-linecap: round"/>
    </g>
    <g id="text_27">
     <!-- 4 -->
     <g style="fill: #262626" transform="translate(468.45625 149.421913) scale(0.1 -0.1)">
      <use xlink:href="#DejaVuSans-34"/>
     </g>
    </g>
    <g id="line2d_30">
     <path d="M 440.45625 160.600037 
L 450.45625 160.600037 
L 460.45625 160.600037 
" style="fill: none; stroke: #aa2395; stroke-width: 1.5; stroke-linecap: round"/>
    </g>
    <g id="text_28">
     <!-- 8 -->
     <g style="fill: #262626" transform="translate(468.45625 164.100037) scale(0.1 -0.1)">
      <use xlink:href="#DejaVuSans-38"/>
     </g>
    </g>
    <g id="line2d_31">
     <path d="M 440.45625 175.278163 
L 450.45625 175.278163 
L 460.45625 175.278163 
" style="fill: none; stroke: #cc4778; stroke-width: 1.5; stroke-linecap: round"/>
    </g>
    <g id="text_29">
     <!-- 16 -->
     <g style="fill: #262626" transform="translate(468.45625 178.778163) scale(0.1 -0.1)">
      <use xlink:href="#DejaVuSans-31"/>
      <use xlink:href="#DejaVuSans-36" transform="translate(63.623047 0)"/>
     </g>
    </g>
    <g id="line2d_32">
     <path d="M 440.45625 189.956288 
L 450.45625 189.956288 
L 460.45625 189.956288 
" style="fill: none; stroke: #e66c5c; stroke-width: 1.5; stroke-linecap: round"/>
    </g>
    <g id="text_30">
     <!-- 32 -->
     <g style="fill: #262626" transform="translate(468.45625 193.456288) scale(0.1 -0.1)">
      <use xlink:href="#DejaVuSans-33"/>
      <use xlink:href="#DejaVuSans-32" transform="translate(63.623047 0)"/>
     </g>
    </g>
    <g id="line2d_33">
     <path d="M 440.45625 204.634412 
L 450.45625 204.634412 
L 460.45625 204.634412 
" style="fill: none; stroke: #f89540; stroke-width: 1.5; stroke-linecap: round"/>
    </g>
    <g id="text_31">
     <!-- 64 -->
     <g style="fill: #262626" transform="translate(468.45625 208.134412) scale(0.1 -0.1)">
      <use xlink:href="#DejaVuSans-36"/>
      <use xlink:href="#DejaVuSans-34" transform="translate(63.623047 0)"/>
     </g>
    </g>
    <g id="line2d_34">
     <path d="M 440.45625 219.312537 
L 450.45625 219.312537 
L 460.45625 219.312537 
" style="fill: none; stroke: #fdc527; stroke-width: 1.5; stroke-linecap: round"/>
    </g>
    <g id="text_32">
     <!-- 128 -->
     <g style="fill: #262626" transform="translate(468.45625 222.812537) scale(0.1 -0.1)">
      <use xlink:href="#DejaVuSans-31"/>
      <use xlink:href="#DejaVuSans-32" transform="translate(63.623047 0)"/>
      <use xlink:href="#DejaVuSans-38" transform="translate(127.246094 0)"/>
     </g>
    </g>
   </g>
  </g>
 </g>
 <defs>
  <clipPath id="pf22140e7db">
   <rect x="50.14375" y="35.623725" width="357.12" height="266.112"/>
  </clipPath>
 </defs>
</svg>
