<?xml version="1.0" encoding="utf-8" standalone="no"?>
<!DOCTYPE svg PUBLIC "-//W3C//DTD SVG 1.1//EN"
  "http://www.w3.org/Graphics/SVG/1.1/DTD/svg11.dtd">
<svg xmlns:xlink="http://www.w3.org/1999/xlink" width="492.38125pt" height="339.291975pt" viewBox="0 0 492.38125 339.291975" xmlns="http://www.w3.org/2000/svg" version="1.1">
 <metadata>
  <rdf:RDF xmlns:dc="http://purl.org/dc/elements/1.1/" xmlns:cc="http://creativecommons.org/ns#" xmlns:rdf="http://www.w3.org/1999/02/22-rdf-syntax-ns#">
   <cc:Work>
    <dc:type rdf:resource="http://purl.org/dc/dcmitype/StillImage"/>
    <dc:date>2025-09-11T08:59:56.153014</dc:date>
    <dc:format>image/svg+xml</dc:format>
    <dc:creator>
     <cc:Agent>
      <dc:title>Matplotlib v3.10.6, https://matplotlib.org/</dc:title>
     </cc:Agent>
    </dc:creator>
   </cc:Work>
  </rdf:RDF>
 </metadata>
 <defs>
  <style type="text/css">*{stroke-linejoin: round; stroke-linecap: butt}</style>
 </defs>
 <g id="figure_1">
  <g id="patch_1">
   <path d="M 0 339.291975 
L 492.38125 339.291975 
L 492.38125 0 
L 0 0 
z
" style="fill: #ffffff"/>
  </g>
  <g id="axes_1">
   <g id="patch_2">
    <path d="M 43.78125 301.735725 
L 400.90125 301.735725 
L 400.90125 35.623725 
L 43.78125 35.623725 
z
" style="fill: #ffffff"/>
   </g>
   <g id="matplotlib.axis_1">
    <g id="xtick_1">
     <g id="line2d_1">
      <path d="M 199.15164 301.735725 
L 199.15164 35.623725 
" clip-path="url(#pc9f1873774)" style="fill: none; stroke: #cccccc; stroke-width: 0.8; stroke-linecap: round"/>
     </g>
     <g id="text_1">
      <!-- 64 -->
      <g style="fill: #262626" transform="translate(192.78914 316.334162) scale(0.1 -0.1)">
       <defs>
        <path id="DejaVuSans-36" d="M 2113 2584 
Q 1688 2584 1439 2293 
Q 1191 2003 1191 1497 
Q 1191 994 1439 701 
Q 1688 409 2113 409 
Q 2538 409 2786 701 
Q 3034 994 3034 1497 
Q 3034 2003 2786 2293 
Q 2538 2584 2113 2584 
z
M 3366 4563 
L 3366 3988 
Q 3128 4100 2886 4159 
Q 2644 4219 2406 4219 
Q 1781 4219 1451 3797 
Q 1122 3375 1075 2522 
Q 1259 2794 1537 2939 
Q 1816 3084 2150 3084 
Q 2853 3084 3261 2657 
Q 3669 2231 3669 1497 
Q 3669 778 3244 343 
Q 2819 -91 2113 -91 
Q 1303 -91 875 529 
Q 447 1150 447 2328 
Q 447 3434 972 4092 
Q 1497 4750 2381 4750 
Q 2619 4750 2861 4703 
Q 3103 4656 3366 4563 
z
" transform="scale(0.015625)"/>
        <path id="DejaVuSans-34" d="M 2419 4116 
L 825 1625 
L 2419 1625 
L 2419 4116 
z
M 2253 4666 
L 3047 4666 
L 3047 1625 
L 3713 1625 
L 3713 1100 
L 3047 1100 
L 3047 0 
L 2419 0 
L 2419 1100 
L 313 1100 
L 313 1709 
L 2253 4666 
z
" transform="scale(0.015625)"/>
       </defs>
       <use xlink:href="#DejaVuSans-36"/>
       <use xlink:href="#DejaVuSans-34" transform="translate(63.623047 0)"/>
      </g>
     </g>
    </g>
    <g id="xtick_2">
     <g id="line2d_2">
      <path d="M 384.668523 301.735725 
L 384.668523 35.623725 
" clip-path="url(#pc9f1873774)" style="fill: none; stroke: #cccccc; stroke-width: 0.8; stroke-linecap: round"/>
     </g>
     <g id="text_2">
      <!-- 128 -->
      <g style="fill: #262626" transform="translate(375.124773 316.334162) scale(0.1 -0.1)">
       <defs>
        <path id="DejaVuSans-31" d="M 794 531 
L 1825 531 
L 1825 4091 
L 703 3866 
L 703 4441 
L 1819 4666 
L 2450 4666 
L 2450 531 
L 3481 531 
L 3481 0 
L 794 0 
L 794 531 
z
" transform="scale(0.015625)"/>
        <path id="DejaVuSans-32" d="M 1228 531 
L 3431 531 
L 3431 0 
L 469 0 
L 469 531 
Q 828 903 1448 1529 
Q 2069 2156 2228 2338 
Q 2531 2678 2651 2914 
Q 2772 3150 2772 3378 
Q 2772 3750 2511 3984 
Q 2250 4219 1831 4219 
Q 1534 4219 1204 4116 
Q 875 4013 500 3803 
L 500 4441 
Q 881 4594 1212 4672 
Q 1544 4750 1819 4750 
Q 2544 4750 2975 4387 
Q 3406 4025 3406 3419 
Q 3406 3131 3298 2873 
Q 3191 2616 2906 2266 
Q 2828 2175 2409 1742 
Q 1991 1309 1228 531 
z
" transform="scale(0.015625)"/>
        <path id="DejaVuSans-38" d="M 2034 2216 
Q 1584 2216 1326 1975 
Q 1069 1734 1069 1313 
Q 1069 891 1326 650 
Q 1584 409 2034 409 
Q 2484 409 2743 651 
Q 3003 894 3003 1313 
Q 3003 1734 2745 1975 
Q 2488 2216 2034 2216 
z
M 1403 2484 
Q 997 2584 770 2862 
Q 544 3141 544 3541 
Q 544 4100 942 4425 
Q 1341 4750 2034 4750 
Q 2731 4750 3128 4425 
Q 3525 4100 3525 3541 
Q 3525 3141 3298 2862 
Q 3072 2584 2669 2484 
Q 3125 2378 3379 2068 
Q 3634 1759 3634 1313 
Q 3634 634 3220 271 
Q 2806 -91 2034 -91 
Q 1263 -91 848 271 
Q 434 634 434 1313 
Q 434 1759 690 2068 
Q 947 2378 1403 2484 
z
M 1172 3481 
Q 1172 3119 1398 2916 
Q 1625 2713 2034 2713 
Q 2441 2713 2670 2916 
Q 2900 3119 2900 3481 
Q 2900 3844 2670 4047 
Q 2441 4250 2034 4250 
Q 1625 4250 1398 4047 
Q 1172 3844 1172 3481 
z
" transform="scale(0.015625)"/>
       </defs>
       <use xlink:href="#DejaVuSans-31"/>
       <use xlink:href="#DejaVuSans-32" transform="translate(63.623047 0)"/>
       <use xlink:href="#DejaVuSans-38" transform="translate(127.246094 0)"/>
      </g>
     </g>
    </g>
    <g id="xtick_3">
     <g id="line2d_3">
      <path d="M 106.393198 301.735725 
L 106.393198 35.623725 
" clip-path="url(#pc9f1873774)" style="fill: none; stroke: #cccccc; stroke-width: 0.8; stroke-linecap: round"/>
     </g>
     <g id="text_3">
      <!-- 32 -->
      <g style="fill: #262626" transform="translate(100.030698 316.334162) scale(0.1 -0.1)">
       <defs>
        <path id="DejaVuSans-33" d="M 2597 2516 
Q 3050 2419 3304 2112 
Q 3559 1806 3559 1356 
Q 3559 666 3084 287 
Q 2609 -91 1734 -91 
Q 1441 -91 1130 -33 
Q 819 25 488 141 
L 488 750 
Q 750 597 1062 519 
Q 1375 441 1716 441 
Q 2309 441 2620 675 
Q 2931 909 2931 1356 
Q 2931 1769 2642 2001 
Q 2353 2234 1838 2234 
L 1294 2234 
L 1294 2753 
L 1863 2753 
Q 2328 2753 2575 2939 
Q 2822 3125 2822 3475 
Q 2822 3834 2567 4026 
Q 2313 4219 1838 4219 
Q 1578 4219 1281 4162 
Q 984 4106 628 3988 
L 628 4550 
Q 988 4650 1302 4700 
Q 1616 4750 1894 4750 
Q 2613 4750 3031 4423 
Q 3450 4097 3450 3541 
Q 3450 3153 3228 2886 
Q 3006 2619 2597 2516 
z
" transform="scale(0.015625)"/>
       </defs>
       <use xlink:href="#DejaVuSans-33"/>
       <use xlink:href="#DejaVuSans-32" transform="translate(63.623047 0)"/>
      </g>
     </g>
    </g>
    <g id="xtick_4">
     <g id="line2d_4">
      <path d="M 60.013977 301.735725 
L 60.013977 35.623725 
" clip-path="url(#pc9f1873774)" style="fill: none; stroke: #cccccc; stroke-width: 0.8; stroke-linecap: round"/>
     </g>
     <g id="text_4">
      <!-- 16 -->
      <g style="fill: #262626" transform="translate(53.651477 316.334162) scale(0.1 -0.1)">
       <use xlink:href="#DejaVuSans-31"/>
       <use xlink:href="#DejaVuSans-36" transform="translate(63.623047 0)"/>
      </g>
     </g>
    </g>
    <g id="text_5">
     <!-- Number of Jobs -->
     <g style="fill: #262626" transform="translate(183.944375 330.012287) scale(0.1 -0.1)">
      <defs>
       <path id="DejaVuSans-4e" d="M 628 4666 
L 1478 4666 
L 3547 763 
L 3547 4666 
L 4159 4666 
L 4159 0 
L 3309 0 
L 1241 3903 
L 1241 0 
L 628 0 
L 628 4666 
z
" transform="scale(0.015625)"/>
       <path id="DejaVuSans-75" d="M 544 1381 
L 544 3500 
L 1119 3500 
L 1119 1403 
Q 1119 906 1312 657 
Q 1506 409 1894 409 
Q 2359 409 2629 706 
Q 2900 1003 2900 1516 
L 2900 3500 
L 3475 3500 
L 3475 0 
L 2900 0 
L 2900 538 
Q 2691 219 2414 64 
Q 2138 -91 1772 -91 
Q 1169 -91 856 284 
Q 544 659 544 1381 
z
M 1991 3584 
L 1991 3584 
z
" transform="scale(0.015625)"/>
       <path id="DejaVuSans-6d" d="M 3328 2828 
Q 3544 3216 3844 3400 
Q 4144 3584 4550 3584 
Q 5097 3584 5394 3201 
Q 5691 2819 5691 2113 
L 5691 0 
L 5113 0 
L 5113 2094 
Q 5113 2597 4934 2840 
Q 4756 3084 4391 3084 
Q 3944 3084 3684 2787 
Q 3425 2491 3425 1978 
L 3425 0 
L 2847 0 
L 2847 2094 
Q 2847 2600 2669 2842 
Q 2491 3084 2119 3084 
Q 1678 3084 1418 2786 
Q 1159 2488 1159 1978 
L 1159 0 
L 581 0 
L 581 3500 
L 1159 3500 
L 1159 2956 
Q 1356 3278 1631 3431 
Q 1906 3584 2284 3584 
Q 2666 3584 2933 3390 
Q 3200 3197 3328 2828 
z
" transform="scale(0.015625)"/>
       <path id="DejaVuSans-62" d="M 3116 1747 
Q 3116 2381 2855 2742 
Q 2594 3103 2138 3103 
Q 1681 3103 1420 2742 
Q 1159 2381 1159 1747 
Q 1159 1113 1420 752 
Q 1681 391 2138 391 
Q 2594 391 2855 752 
Q 3116 1113 3116 1747 
z
M 1159 2969 
Q 1341 3281 1617 3432 
Q 1894 3584 2278 3584 
Q 2916 3584 3314 3078 
Q 3713 2572 3713 1747 
Q 3713 922 3314 415 
Q 2916 -91 2278 -91 
Q 1894 -91 1617 61 
Q 1341 213 1159 525 
L 1159 0 
L 581 0 
L 581 4863 
L 1159 4863 
L 1159 2969 
z
" transform="scale(0.015625)"/>
       <path id="DejaVuSans-65" d="M 3597 1894 
L 3597 1613 
L 953 1613 
Q 991 1019 1311 708 
Q 1631 397 2203 397 
Q 2534 397 2845 478 
Q 3156 559 3463 722 
L 3463 178 
Q 3153 47 2828 -22 
Q 2503 -91 2169 -91 
Q 1331 -91 842 396 
Q 353 884 353 1716 
Q 353 2575 817 3079 
Q 1281 3584 2069 3584 
Q 2775 3584 3186 3129 
Q 3597 2675 3597 1894 
z
M 3022 2063 
Q 3016 2534 2758 2815 
Q 2500 3097 2075 3097 
Q 1594 3097 1305 2825 
Q 1016 2553 972 2059 
L 3022 2063 
z
" transform="scale(0.015625)"/>
       <path id="DejaVuSans-72" d="M 2631 2963 
Q 2534 3019 2420 3045 
Q 2306 3072 2169 3072 
Q 1681 3072 1420 2755 
Q 1159 2438 1159 1844 
L 1159 0 
L 581 0 
L 581 3500 
L 1159 3500 
L 1159 2956 
Q 1341 3275 1631 3429 
Q 1922 3584 2338 3584 
Q 2397 3584 2469 3576 
Q 2541 3569 2628 3553 
L 2631 2963 
z
" transform="scale(0.015625)"/>
       <path id="DejaVuSans-20" transform="scale(0.015625)"/>
       <path id="DejaVuSans-6f" d="M 1959 3097 
Q 1497 3097 1228 2736 
Q 959 2375 959 1747 
Q 959 1119 1226 758 
Q 1494 397 1959 397 
Q 2419 397 2687 759 
Q 2956 1122 2956 1747 
Q 2956 2369 2687 2733 
Q 2419 3097 1959 3097 
z
M 1959 3584 
Q 2709 3584 3137 3096 
Q 3566 2609 3566 1747 
Q 3566 888 3137 398 
Q 2709 -91 1959 -91 
Q 1206 -91 779 398 
Q 353 888 353 1747 
Q 353 2609 779 3096 
Q 1206 3584 1959 3584 
z
" transform="scale(0.015625)"/>
       <path id="DejaVuSans-66" d="M 2375 4863 
L 2375 4384 
L 1825 4384 
Q 1516 4384 1395 4259 
Q 1275 4134 1275 3809 
L 1275 3500 
L 2222 3500 
L 2222 3053 
L 1275 3053 
L 1275 0 
L 697 0 
L 697 3053 
L 147 3053 
L 147 3500 
L 697 3500 
L 697 3744 
Q 697 4328 969 4595 
Q 1241 4863 1831 4863 
L 2375 4863 
z
" transform="scale(0.015625)"/>
       <path id="DejaVuSans-4a" d="M 628 4666 
L 1259 4666 
L 1259 325 
Q 1259 -519 939 -900 
Q 619 -1281 -91 -1281 
L -331 -1281 
L -331 -750 
L -134 -750 
Q 284 -750 456 -515 
Q 628 -281 628 325 
L 628 4666 
z
" transform="scale(0.015625)"/>
       <path id="DejaVuSans-73" d="M 2834 3397 
L 2834 2853 
Q 2591 2978 2328 3040 
Q 2066 3103 1784 3103 
Q 1356 3103 1142 2972 
Q 928 2841 928 2578 
Q 928 2378 1081 2264 
Q 1234 2150 1697 2047 
L 1894 2003 
Q 2506 1872 2764 1633 
Q 3022 1394 3022 966 
Q 3022 478 2636 193 
Q 2250 -91 1575 -91 
Q 1294 -91 989 -36 
Q 684 19 347 128 
L 347 722 
Q 666 556 975 473 
Q 1284 391 1588 391 
Q 1994 391 2212 530 
Q 2431 669 2431 922 
Q 2431 1156 2273 1281 
Q 2116 1406 1581 1522 
L 1381 1569 
Q 847 1681 609 1914 
Q 372 2147 372 2553 
Q 372 3047 722 3315 
Q 1072 3584 1716 3584 
Q 2034 3584 2315 3537 
Q 2597 3491 2834 3397 
z
" transform="scale(0.015625)"/>
      </defs>
      <use xlink:href="#DejaVuSans-4e"/>
      <use xlink:href="#DejaVuSans-75" transform="translate(74.804688 0)"/>
      <use xlink:href="#DejaVuSans-6d" transform="translate(138.183594 0)"/>
      <use xlink:href="#DejaVuSans-62" transform="translate(235.595703 0)"/>
      <use xlink:href="#DejaVuSans-65" transform="translate(299.072266 0)"/>
      <use xlink:href="#DejaVuSans-72" transform="translate(360.595703 0)"/>
      <use xlink:href="#DejaVuSans-20" transform="translate(401.708984 0)"/>
      <use xlink:href="#DejaVuSans-6f" transform="translate(433.496094 0)"/>
      <use xlink:href="#DejaVuSans-66" transform="translate(494.677734 0)"/>
      <use xlink:href="#DejaVuSans-20" transform="translate(529.882812 0)"/>
      <use xlink:href="#DejaVuSans-4a" transform="translate(561.669922 0)"/>
      <use xlink:href="#DejaVuSans-6f" transform="translate(591.162109 0)"/>
      <use xlink:href="#DejaVuSans-62" transform="translate(652.34375 0)"/>
      <use xlink:href="#DejaVuSans-73" transform="translate(715.820312 0)"/>
     </g>
    </g>
   </g>
   <g id="matplotlib.axis_2">
    <g id="ytick_1">
     <g id="line2d_5">
      <path d="M 43.78125 262.674442 
L 400.90125 262.674442 
" clip-path="url(#pc9f1873774)" style="fill: none; stroke: #cccccc; stroke-width: 0.8; stroke-linecap: round"/>
     </g>
     <g id="text_6">
      <!-- 3.0 -->
      <g style="fill: #262626" transform="translate(20.878125 266.47366) scale(0.1 -0.1)">
       <defs>
        <path id="DejaVuSans-2e" d="M 684 794 
L 1344 794 
L 1344 0 
L 684 0 
L 684 794 
z
" transform="scale(0.015625)"/>
        <path id="DejaVuSans-30" d="M 2034 4250 
Q 1547 4250 1301 3770 
Q 1056 3291 1056 2328 
Q 1056 1369 1301 889 
Q 1547 409 2034 409 
Q 2525 409 2770 889 
Q 3016 1369 3016 2328 
Q 3016 3291 2770 3770 
Q 2525 4250 2034 4250 
z
M 2034 4750 
Q 2819 4750 3233 4129 
Q 3647 3509 3647 2328 
Q 3647 1150 3233 529 
Q 2819 -91 2034 -91 
Q 1250 -91 836 529 
Q 422 1150 422 2328 
Q 422 3509 836 4129 
Q 1250 4750 2034 4750 
z
" transform="scale(0.015625)"/>
       </defs>
       <use xlink:href="#DejaVuSans-33"/>
       <use xlink:href="#DejaVuSans-2e" transform="translate(63.623047 0)"/>
       <use xlink:href="#DejaVuSans-30" transform="translate(95.410156 0)"/>
      </g>
     </g>
    </g>
    <g id="ytick_2">
     <g id="line2d_6">
      <path d="M 43.78125 206.372878 
L 400.90125 206.372878 
" clip-path="url(#pc9f1873774)" style="fill: none; stroke: #cccccc; stroke-width: 0.8; stroke-linecap: round"/>
     </g>
     <g id="text_7">
      <!-- 3.5 -->
      <g style="fill: #262626" transform="translate(20.878125 210.172097) scale(0.1 -0.1)">
       <defs>
        <path id="DejaVuSans-35" d="M 691 4666 
L 3169 4666 
L 3169 4134 
L 1269 4134 
L 1269 2991 
Q 1406 3038 1543 3061 
Q 1681 3084 1819 3084 
Q 2600 3084 3056 2656 
Q 3513 2228 3513 1497 
Q 3513 744 3044 326 
Q 2575 -91 1722 -91 
Q 1428 -91 1123 -41 
Q 819 9 494 109 
L 494 744 
Q 775 591 1075 516 
Q 1375 441 1709 441 
Q 2250 441 2565 725 
Q 2881 1009 2881 1497 
Q 2881 1984 2565 2268 
Q 2250 2553 1709 2553 
Q 1456 2553 1204 2497 
Q 953 2441 691 2322 
L 691 4666 
z
" transform="scale(0.015625)"/>
       </defs>
       <use xlink:href="#DejaVuSans-33"/>
       <use xlink:href="#DejaVuSans-2e" transform="translate(63.623047 0)"/>
       <use xlink:href="#DejaVuSans-35" transform="translate(95.410156 0)"/>
      </g>
     </g>
    </g>
    <g id="ytick_3">
     <g id="line2d_7">
      <path d="M 43.78125 150.071315 
L 400.90125 150.071315 
" clip-path="url(#pc9f1873774)" style="fill: none; stroke: #cccccc; stroke-width: 0.8; stroke-linecap: round"/>
     </g>
     <g id="text_8">
      <!-- 4.0 -->
      <g style="fill: #262626" transform="translate(20.878125 153.870534) scale(0.1 -0.1)">
       <use xlink:href="#DejaVuSans-34"/>
       <use xlink:href="#DejaVuSans-2e" transform="translate(63.623047 0)"/>
       <use xlink:href="#DejaVuSans-30" transform="translate(95.410156 0)"/>
      </g>
     </g>
    </g>
    <g id="ytick_4">
     <g id="line2d_8">
      <path d="M 43.78125 93.769752 
L 400.90125 93.769752 
" clip-path="url(#pc9f1873774)" style="fill: none; stroke: #cccccc; stroke-width: 0.8; stroke-linecap: round"/>
     </g>
     <g id="text_9">
      <!-- 4.5 -->
      <g style="fill: #262626" transform="translate(20.878125 97.568971) scale(0.1 -0.1)">
       <use xlink:href="#DejaVuSans-34"/>
       <use xlink:href="#DejaVuSans-2e" transform="translate(63.623047 0)"/>
       <use xlink:href="#DejaVuSans-35" transform="translate(95.410156 0)"/>
      </g>
     </g>
    </g>
    <g id="ytick_5">
     <g id="line2d_9">
      <path d="M 43.78125 37.468189 
L 400.90125 37.468189 
" clip-path="url(#pc9f1873774)" style="fill: none; stroke: #cccccc; stroke-width: 0.8; stroke-linecap: round"/>
     </g>
     <g id="text_10">
      <!-- 5.0 -->
      <g style="fill: #262626" transform="translate(20.878125 41.267408) scale(0.1 -0.1)">
       <use xlink:href="#DejaVuSans-35"/>
       <use xlink:href="#DejaVuSans-2e" transform="translate(63.623047 0)"/>
       <use xlink:href="#DejaVuSans-30" transform="translate(95.410156 0)"/>
      </g>
     </g>
    </g>
    <g id="text_11">
     <!-- Mean Bandwidth (GiB/s) -->
     <g style="fill: #262626" transform="translate(14.798438 228.984412) rotate(-90) scale(0.1 -0.1)">
      <defs>
       <path id="DejaVuSans-4d" d="M 628 4666 
L 1569 4666 
L 2759 1491 
L 3956 4666 
L 4897 4666 
L 4897 0 
L 4281 0 
L 4281 4097 
L 3078 897 
L 2444 897 
L 1241 4097 
L 1241 0 
L 628 0 
L 628 4666 
z
" transform="scale(0.015625)"/>
       <path id="DejaVuSans-61" d="M 2194 1759 
Q 1497 1759 1228 1600 
Q 959 1441 959 1056 
Q 959 750 1161 570 
Q 1363 391 1709 391 
Q 2188 391 2477 730 
Q 2766 1069 2766 1631 
L 2766 1759 
L 2194 1759 
z
M 3341 1997 
L 3341 0 
L 2766 0 
L 2766 531 
Q 2569 213 2275 61 
Q 1981 -91 1556 -91 
Q 1019 -91 701 211 
Q 384 513 384 1019 
Q 384 1609 779 1909 
Q 1175 2209 1959 2209 
L 2766 2209 
L 2766 2266 
Q 2766 2663 2505 2880 
Q 2244 3097 1772 3097 
Q 1472 3097 1187 3025 
Q 903 2953 641 2809 
L 641 3341 
Q 956 3463 1253 3523 
Q 1550 3584 1831 3584 
Q 2591 3584 2966 3190 
Q 3341 2797 3341 1997 
z
" transform="scale(0.015625)"/>
       <path id="DejaVuSans-6e" d="M 3513 2113 
L 3513 0 
L 2938 0 
L 2938 2094 
Q 2938 2591 2744 2837 
Q 2550 3084 2163 3084 
Q 1697 3084 1428 2787 
Q 1159 2491 1159 1978 
L 1159 0 
L 581 0 
L 581 3500 
L 1159 3500 
L 1159 2956 
Q 1366 3272 1645 3428 
Q 1925 3584 2291 3584 
Q 2894 3584 3203 3211 
Q 3513 2838 3513 2113 
z
" transform="scale(0.015625)"/>
       <path id="DejaVuSans-42" d="M 1259 2228 
L 1259 519 
L 2272 519 
Q 2781 519 3026 730 
Q 3272 941 3272 1375 
Q 3272 1813 3026 2020 
Q 2781 2228 2272 2228 
L 1259 2228 
z
M 1259 4147 
L 1259 2741 
L 2194 2741 
Q 2656 2741 2882 2914 
Q 3109 3088 3109 3444 
Q 3109 3797 2882 3972 
Q 2656 4147 2194 4147 
L 1259 4147 
z
M 628 4666 
L 2241 4666 
Q 2963 4666 3353 4366 
Q 3744 4066 3744 3513 
Q 3744 3084 3544 2831 
Q 3344 2578 2956 2516 
Q 3422 2416 3680 2098 
Q 3938 1781 3938 1306 
Q 3938 681 3513 340 
Q 3088 0 2303 0 
L 628 0 
L 628 4666 
z
" transform="scale(0.015625)"/>
       <path id="DejaVuSans-64" d="M 2906 2969 
L 2906 4863 
L 3481 4863 
L 3481 0 
L 2906 0 
L 2906 525 
Q 2725 213 2448 61 
Q 2172 -91 1784 -91 
Q 1150 -91 751 415 
Q 353 922 353 1747 
Q 353 2572 751 3078 
Q 1150 3584 1784 3584 
Q 2172 3584 2448 3432 
Q 2725 3281 2906 2969 
z
M 947 1747 
Q 947 1113 1208 752 
Q 1469 391 1925 391 
Q 2381 391 2643 752 
Q 2906 1113 2906 1747 
Q 2906 2381 2643 2742 
Q 2381 3103 1925 3103 
Q 1469 3103 1208 2742 
Q 947 2381 947 1747 
z
" transform="scale(0.015625)"/>
       <path id="DejaVuSans-77" d="M 269 3500 
L 844 3500 
L 1563 769 
L 2278 3500 
L 2956 3500 
L 3675 769 
L 4391 3500 
L 4966 3500 
L 4050 0 
L 3372 0 
L 2619 2869 
L 1863 0 
L 1184 0 
L 269 3500 
z
" transform="scale(0.015625)"/>
       <path id="DejaVuSans-69" d="M 603 3500 
L 1178 3500 
L 1178 0 
L 603 0 
L 603 3500 
z
M 603 4863 
L 1178 4863 
L 1178 4134 
L 603 4134 
L 603 4863 
z
" transform="scale(0.015625)"/>
       <path id="DejaVuSans-74" d="M 1172 4494 
L 1172 3500 
L 2356 3500 
L 2356 3053 
L 1172 3053 
L 1172 1153 
Q 1172 725 1289 603 
Q 1406 481 1766 481 
L 2356 481 
L 2356 0 
L 1766 0 
Q 1100 0 847 248 
Q 594 497 594 1153 
L 594 3053 
L 172 3053 
L 172 3500 
L 594 3500 
L 594 4494 
L 1172 4494 
z
" transform="scale(0.015625)"/>
       <path id="DejaVuSans-68" d="M 3513 2113 
L 3513 0 
L 2938 0 
L 2938 2094 
Q 2938 2591 2744 2837 
Q 2550 3084 2163 3084 
Q 1697 3084 1428 2787 
Q 1159 2491 1159 1978 
L 1159 0 
L 581 0 
L 581 4863 
L 1159 4863 
L 1159 2956 
Q 1366 3272 1645 3428 
Q 1925 3584 2291 3584 
Q 2894 3584 3203 3211 
Q 3513 2838 3513 2113 
z
" transform="scale(0.015625)"/>
       <path id="DejaVuSans-28" d="M 1984 4856 
Q 1566 4138 1362 3434 
Q 1159 2731 1159 2009 
Q 1159 1288 1364 580 
Q 1569 -128 1984 -844 
L 1484 -844 
Q 1016 -109 783 600 
Q 550 1309 550 2009 
Q 550 2706 781 3412 
Q 1013 4119 1484 4856 
L 1984 4856 
z
" transform="scale(0.015625)"/>
       <path id="DejaVuSans-47" d="M 3809 666 
L 3809 1919 
L 2778 1919 
L 2778 2438 
L 4434 2438 
L 4434 434 
Q 4069 175 3628 42 
Q 3188 -91 2688 -91 
Q 1594 -91 976 548 
Q 359 1188 359 2328 
Q 359 3472 976 4111 
Q 1594 4750 2688 4750 
Q 3144 4750 3555 4637 
Q 3966 4525 4313 4306 
L 4313 3634 
Q 3963 3931 3569 4081 
Q 3175 4231 2741 4231 
Q 1884 4231 1454 3753 
Q 1025 3275 1025 2328 
Q 1025 1384 1454 906 
Q 1884 428 2741 428 
Q 3075 428 3337 486 
Q 3600 544 3809 666 
z
" transform="scale(0.015625)"/>
       <path id="DejaVuSans-2f" d="M 1625 4666 
L 2156 4666 
L 531 -594 
L 0 -594 
L 1625 4666 
z
" transform="scale(0.015625)"/>
       <path id="DejaVuSans-29" d="M 513 4856 
L 1013 4856 
Q 1481 4119 1714 3412 
Q 1947 2706 1947 2009 
Q 1947 1309 1714 600 
Q 1481 -109 1013 -844 
L 513 -844 
Q 928 -128 1133 580 
Q 1338 1288 1338 2009 
Q 1338 2731 1133 3434 
Q 928 4138 513 4856 
z
" transform="scale(0.015625)"/>
      </defs>
      <use xlink:href="#DejaVuSans-4d"/>
      <use xlink:href="#DejaVuSans-65" transform="translate(86.279297 0)"/>
      <use xlink:href="#DejaVuSans-61" transform="translate(147.802734 0)"/>
      <use xlink:href="#DejaVuSans-6e" transform="translate(209.082031 0)"/>
      <use xlink:href="#DejaVuSans-20" transform="translate(272.460938 0)"/>
      <use xlink:href="#DejaVuSans-42" transform="translate(304.248047 0)"/>
      <use xlink:href="#DejaVuSans-61" transform="translate(372.851562 0)"/>
      <use xlink:href="#DejaVuSans-6e" transform="translate(434.130859 0)"/>
      <use xlink:href="#DejaVuSans-64" transform="translate(497.509766 0)"/>
      <use xlink:href="#DejaVuSans-77" transform="translate(560.986328 0)"/>
      <use xlink:href="#DejaVuSans-69" transform="translate(642.773438 0)"/>
      <use xlink:href="#DejaVuSans-64" transform="translate(670.556641 0)"/>
      <use xlink:href="#DejaVuSans-74" transform="translate(734.033203 0)"/>
      <use xlink:href="#DejaVuSans-68" transform="translate(773.242188 0)"/>
      <use xlink:href="#DejaVuSans-20" transform="translate(836.621094 0)"/>
      <use xlink:href="#DejaVuSans-28" transform="translate(868.408203 0)"/>
      <use xlink:href="#DejaVuSans-47" transform="translate(907.421875 0)"/>
      <use xlink:href="#DejaVuSans-69" transform="translate(984.912109 0)"/>
      <use xlink:href="#DejaVuSans-42" transform="translate(1012.695312 0)"/>
      <use xlink:href="#DejaVuSans-2f" transform="translate(1081.298828 0)"/>
      <use xlink:href="#DejaVuSans-73" transform="translate(1114.990234 0)"/>
      <use xlink:href="#DejaVuSans-29" transform="translate(1167.089844 0)"/>
     </g>
    </g>
   </g>
   <g id="FillBetweenPolyCollection_1"/>
   <g id="FillBetweenPolyCollection_2"/>
   <g id="FillBetweenPolyCollection_3"/>
   <g id="FillBetweenPolyCollection_4"/>
   <g id="FillBetweenPolyCollection_5"/>
   <g id="FillBetweenPolyCollection_6"/>
   <g id="FillBetweenPolyCollection_7"/>
   <g id="line2d_10">
    <path d="M 60.013977 73.421794 
L 106.393198 144.185008 
L 199.15164 274.169283 
L 384.668523 227.945177 
" clip-path="url(#pc9f1873774)" style="fill: none; stroke: #4c02a1; stroke-width: 1.5; stroke-linecap: round"/>
   </g>
   <g id="line2d_11">
    <path d="M 60.013977 122.865965 
L 106.393198 92.189946 
L 199.15164 124.78365 
L 384.668523 265.466579 
" clip-path="url(#pc9f1873774)" style="fill: none; stroke: #7e03a8; stroke-width: 1.5; stroke-linecap: round"/>
   </g>
   <g id="line2d_12">
    <path d="M 60.013977 159.714441 
L 106.393198 127.359936 
L 199.15164 269.16381 
L 384.668523 289.639725 
" clip-path="url(#pc9f1873774)" style="fill: none; stroke: #aa2395; stroke-width: 1.5; stroke-linecap: round"/>
   </g>
   <g id="line2d_13">
    <path d="M 60.013977 47.719725 
L 106.393198 171.783369 
L 199.15164 128.905356 
L 384.668523 273.598589 
" clip-path="url(#pc9f1873774)" style="fill: none; stroke: #cc4778; stroke-width: 1.5; stroke-linecap: round"/>
   </g>
   <g id="line2d_14">
    <path d="M 60.013977 81.002582 
L 106.393198 164.369208 
L 199.15164 117.305847 
L 384.668523 249.962511 
" clip-path="url(#pc9f1873774)" style="fill: none; stroke: #e66c5c; stroke-width: 1.5; stroke-linecap: round"/>
   </g>
   <g id="line2d_15">
    <path d="M 60.013977 106.381492 
L 106.393198 121.284776 
L 199.15164 186.848607 
L 384.668523 226.340938 
" clip-path="url(#pc9f1873774)" style="fill: none; stroke: #f89540; stroke-width: 1.5; stroke-linecap: round"/>
   </g>
   <g id="line2d_16">
    <path d="M 60.013977 98.978383 
L 106.393198 85.3227 
L 199.15164 205.983189 
L 384.668523 257.105744 
" clip-path="url(#pc9f1873774)" style="fill: none; stroke: #fdc527; stroke-width: 1.5; stroke-linecap: round"/>
   </g>
   <g id="line2d_17"/>
   <g id="line2d_18"/>
   <g id="line2d_19"/>
   <g id="line2d_20"/>
   <g id="line2d_21"/>
   <g id="line2d_22"/>
   <g id="line2d_23"/>
   <g id="text_12">
    <path d="M 99.135532 136.631855 
L 100.018596 137.979193 
L 104.670895 134.930009 
L 103.415853 133.656466 
L 104.167278 133.163972 
L 105.417181 134.429674 
L 105.95764 135.254281 
L 100.553916 138.795959 
L 101.43698 140.143296 
L 100.743056 140.598104 
L 98.441608 137.086663 
L 99.135532 136.631855 
z
" clip-path="url(#pc9f1873774)" style="fill: #4c02a1; stroke: #ffffff; stroke-width: 5"/>
    <path d="M 99.135532 136.631855 
L 100.018596 137.979193 
L 104.670895 134.930009 
L 103.415853 133.656466 
L 104.167278 133.163972 
L 105.417181 134.429674 
L 105.95764 135.254281 
L 100.553916 138.795959 
L 101.43698 140.143296 
L 100.743056 140.598104 
L 98.441608 137.086663 
L 99.135532 136.631855 
z
" clip-path="url(#pc9f1873774)" style="fill: #4c02a1"/>
   </g>
   <g id="text_13">
    <path d="M 143.771118 101.431935 
L 140.131028 104.27835 
L 142.48081 105.104023 
L 143.771118 101.431935 
z
M 143.811304 100.535171 
L 144.981773 100.946454 
L 143.406571 105.42932 
L 144.38835 105.774299 
L 144.116406 106.548224 
L 143.134628 106.203244 
L 142.564841 107.8248 
L 141.63908 107.499504 
L 142.208866 105.877948 
L 139.104323 104.787065 
L 139.419778 103.889313 
L 143.811304 100.535171 
z
" clip-path="url(#pc9f1873774)" style="fill: #7e03a8; stroke: #ffffff; stroke-width: 5"/>
    <path d="M 143.771118 101.431935 
L 140.131028 104.27835 
L 142.48081 105.104023 
L 143.771118 101.431935 
z
M 143.811304 100.535171 
L 144.981773 100.946454 
L 143.406571 105.42932 
L 144.38835 105.774299 
L 144.116406 106.548224 
L 143.134628 106.203244 
L 142.564841 107.8248 
L 141.63908 107.499504 
L 142.208866 105.877948 
L 139.104323 104.787065 
L 139.419778 103.889313 
L 143.811304 100.535171 
z
" clip-path="url(#pc9f1873774)" style="fill: #7e03a8"/>
   </g>
   <g id="text_14">
    <path d="M 182.751957 242.808458 
Q 182.367054 242.220041 181.831247 242.088818 
Q 181.296294 241.958903 180.745797 242.319001 
Q 180.193993 242.679954 180.098685 243.222142 
Q 180.004232 243.765638 180.389134 244.354055 
Q 180.774037 244.942473 181.312007 245.074147 
Q 181.852141 245.206274 182.400023 244.847887 
Q 182.95052 244.48779 183.044972 243.944294 
Q 183.14028 243.402106 182.751957 242.808458 
z
M 182.562673 241.754135 
Q 182.346165 241.137718 182.515514 240.60311 
Q 182.687026 240.068955 183.210063 239.726819 
Q 183.941008 239.248685 184.706401 239.491122 
Q 185.472649 239.734867 186.065399 240.641029 
Q 186.661571 241.552422 186.576172 242.349522 
Q 186.490774 243.146622 185.759829 243.624756 
Q 185.236791 243.966892 184.677811 243.908708 
Q 184.120993 243.850976 183.645532 243.409549 
Q 183.896961 244.096478 183.708863 244.693762 
Q 183.522928 245.291498 182.939742 245.672979 
Q 182.051885 246.253754 181.223118 246.022898 
Q 180.395659 245.791187 179.735338 244.781725 
Q 179.075871 243.77357 179.194255 242.921286 
Q 179.314801 242.069454 180.202657 241.488679 
Q 180.785844 241.107198 181.408857 241.177642 
Q 182.034033 241.248539 182.562673 241.754135 
z
M 183.668761 240.599308 
Q 183.195412 240.908941 183.123277 241.378091 
Q 183.051997 241.848549 183.401831 242.383355 
Q 183.749954 242.915545 184.211268 243.04135 
Q 184.673437 243.168463 185.146786 242.858831 
Q 185.621443 242.548343 185.690156 242.073962 
Q 185.759725 241.600889 185.411602 241.068699 
Q 185.061769 240.533893 184.602165 240.410703 
Q 184.143417 240.28882 183.668761 240.599308 
z
" clip-path="url(#pc9f1873774)" style="fill: #aa2395; stroke: #ffffff; stroke-width: 5"/>
    <path d="M 182.751957 242.808458 
Q 182.367054 242.220041 181.831247 242.088818 
Q 181.296294 241.958903 180.745797 242.319001 
Q 180.193993 242.679954 180.098685 243.222142 
Q 180.004232 243.765638 180.389134 244.354055 
Q 180.774037 244.942473 181.312007 245.074147 
Q 181.852141 245.206274 182.400023 244.847887 
Q 182.95052 244.48779 183.044972 243.944294 
Q 183.14028 243.402106 182.751957 242.808458 
z
M 182.562673 241.754135 
Q 182.346165 241.137718 182.515514 240.60311 
Q 182.687026 240.068955 183.210063 239.726819 
Q 183.941008 239.248685 184.706401 239.491122 
Q 185.472649 239.734867 186.065399 240.641029 
Q 186.661571 241.552422 186.576172 242.349522 
Q 186.490774 243.146622 185.759829 243.624756 
Q 185.236791 243.966892 184.677811 243.908708 
Q 184.120993 243.850976 183.645532 243.409549 
Q 183.896961 244.096478 183.708863 244.693762 
Q 183.522928 245.291498 182.939742 245.672979 
Q 182.051885 246.253754 181.223118 246.022898 
Q 180.395659 245.791187 179.735338 244.781725 
Q 179.075871 243.77357 179.194255 242.921286 
Q 179.314801 242.069454 180.202657 241.488679 
Q 180.785844 241.107198 181.408857 241.177642 
Q 182.034033 241.248539 182.562673 241.754135 
z
M 183.668761 240.599308 
Q 183.195412 240.908941 183.123277 241.378091 
Q 183.051997 241.848549 183.401831 242.383355 
Q 183.749954 242.915545 184.211268 243.04135 
Q 184.673437 243.168463 185.146786 242.858831 
Q 185.621443 242.548343 185.690156 242.073962 
Q 185.759725 241.600889 185.411602 241.068699 
Q 185.061769 240.533893 184.602165 240.410703 
Q 184.143417 240.28882 183.668761 240.599308 
z
" clip-path="url(#pc9f1873774)" style="fill: #aa2395"/>
   </g>
   <g id="text_15">
    <path d="M 217.115766 145.363631 
L 218.386027 146.354367 
L 221.806996 141.968209 
L 220.208404 141.167242 
L 220.760948 140.458804 
L 222.352147 141.254005 
L 223.129581 141.860362 
L 219.156069 146.954958 
L 220.42633 147.945694 
L 219.916068 148.599921 
L 216.605504 146.017859 
L 217.115766 145.363631 
z
M 225.730507 148.014539 
Q 225.206879 147.606137 224.620459 147.725392 
Q 224.036232 147.844377 223.549993 148.467803 
Q 223.066637 149.087533 223.090633 149.686843 
Q 223.116821 150.285882 223.640449 150.694284 
Q 224.164078 151.102686 224.750227 150.981237 
Q 225.337336 150.858556 225.820692 150.238827 
Q 226.306931 149.615401 226.280053 149.019787 
Q 226.254136 148.422941 225.730507 148.014539 
z
M 229.175999 146.780344 
L 228.623455 147.488782 
Q 228.437849 147.122086 228.196385 146.816845 
Q 227.955882 146.510372 227.66265 146.281667 
Q 226.892608 145.681075 226.080507 145.883895 
Q 225.269637 146.087676 224.392043 147.093465 
Q 224.880121 146.935157 225.361973 147.02365 
Q 225.845056 147.113104 226.256567 147.43406 
Q 227.12271 148.109605 227.215069 149.027764 
Q 227.308389 149.94469 226.603055 150.849028 
Q 225.912134 151.734884 224.970494 151.862431 
Q 224.029815 151.988745 223.159976 151.310317 
Q 222.162002 150.531951 222.230464 149.356785 
Q 222.299887 148.180386 223.431882 146.729011 
Q 224.494688 145.366346 225.773826 145.060142 
Q 227.052963 144.753939 228.142111 145.603415 
Q 228.435342 145.832121 228.688338 146.122577 
Q 228.941334 146.413033 229.175999 146.780344 
z
" clip-path="url(#pc9f1873774)" style="fill: #cc4778; stroke: #ffffff; stroke-width: 5"/>
    <path d="M 217.115766 145.363631 
L 218.386027 146.354367 
L 221.806996 141.968209 
L 220.208404 141.167242 
L 220.760948 140.458804 
L 222.352147 141.254005 
L 223.129581 141.860362 
L 219.156069 146.954958 
L 220.42633 147.945694 
L 219.916068 148.599921 
L 216.605504 146.017859 
L 217.115766 145.363631 
z
M 225.730507 148.014539 
Q 225.206879 147.606137 224.620459 147.725392 
Q 224.036232 147.844377 223.549993 148.467803 
Q 223.066637 149.087533 223.090633 149.686843 
Q 223.116821 150.285882 223.640449 150.694284 
Q 224.164078 151.102686 224.750227 150.981237 
Q 225.337336 150.858556 225.820692 150.238827 
Q 226.306931 149.615401 226.280053 149.019787 
Q 226.254136 148.422941 225.730507 148.014539 
z
M 229.175999 146.780344 
L 228.623455 147.488782 
Q 228.437849 147.122086 228.196385 146.816845 
Q 227.955882 146.510372 227.66265 146.281667 
Q 226.892608 145.681075 226.080507 145.883895 
Q 225.269637 146.087676 224.392043 147.093465 
Q 224.880121 146.935157 225.361973 147.02365 
Q 225.845056 147.113104 226.256567 147.43406 
Q 227.12271 148.109605 227.215069 149.027764 
Q 227.308389 149.94469 226.603055 150.849028 
Q 225.912134 151.734884 224.970494 151.862431 
Q 224.029815 151.988745 223.159976 151.310317 
Q 222.162002 150.531951 222.230464 149.356785 
Q 222.299887 148.180386 223.431882 146.729011 
Q 224.494688 145.366346 225.773826 145.060142 
Q 227.052963 144.753939 228.142111 145.603415 
Q 228.435342 145.832121 228.688338 146.122577 
Q 228.941334 146.413033 229.175999 146.780344 
z
" clip-path="url(#pc9f1873774)" style="fill: #cc4778"/>
   </g>
   <g id="text_16">
    <path d="M 261.32417 160.322607 
Q 261.811771 160.857597 261.855589 161.478637 
Q 261.901586 162.099314 261.492608 162.671259 
Q 260.865508 163.548242 259.917337 163.598248 
Q 258.970075 163.646983 257.857959 162.851748 
Q 257.485559 162.585457 257.142994 162.22909 
Q 256.800429 161.872724 256.485157 161.424463 
L 257.038641 160.65043 
Q 257.232587 161.083007 257.558247 161.465703 
Q 257.885177 161.849307 258.318584 162.159222 
Q 259.072281 162.698164 259.680228 162.683402 
Q 260.288174 162.66864 260.694426 162.100507 
Q 261.069777 161.575589 260.913312 161.018064 
Q 260.757756 160.459269 260.103196 159.991216 
L 259.411778 159.496806 
L 259.883466 158.837163 
L 260.606659 159.354293 
Q 261.197669 159.776904 261.680648 159.764983 
Q 262.163627 159.753063 262.481721 159.308216 
Q 262.807995 158.851931 262.65839 158.376147 
Q 262.510965 157.9 261.907245 157.468301 
Q 261.576787 157.232002 261.147499 157.034523 
Q 260.71912 156.835773 260.159405 156.662202 
L 260.670173 155.947906 
Q 261.218614 156.14799 261.663146 156.369816 
Q 262.107679 156.591643 262.461014 156.8443 
Q 263.374856 157.497757 263.608939 158.293266 
Q 263.845202 159.088413 263.339886 159.795083 
Q 262.987256 160.288227 262.462436 160.425819 
Q 261.937616 160.56341 261.32417 160.322607 
z
M 262.955449 165.302004 
L 265.755439 167.304179 
L 265.272845 167.979075 
L 261.508173 165.287089 
L 261.990767 164.612194 
Q 262.785141 164.465659 264.142089 164.233501 
Q 265.501217 164.00098 265.868713 163.914166 
Q 266.562829 163.757408 266.929834 163.566515 
Q 267.29811 163.376531 267.505326 163.086746 
Q 267.843415 162.613937 267.724355 162.079318 
Q 267.606204 161.543428 267.073659 161.162624 
Q 266.696175 160.892699 266.183138 160.723693 
Q 265.671372 160.555596 265.003894 160.481689 
L 265.583735 159.670798 
Q 266.207034 159.822604 266.698621 160.024293 
Q 267.19148 160.226891 267.541002 160.476822 
Q 268.462469 161.135732 268.680357 161.988811 
Q 268.899153 162.84062 268.348396 163.61084 
Q 268.08665 163.976885 267.714902 164.206646 
Q 267.345334 164.436044 266.665008 164.621871 
Q 266.483166 164.666641 265.557093 164.836176 
Q 264.632292 165.006619 262.955449 165.302004 
z
" clip-path="url(#pc9f1873774)" style="fill: #e66c5c; stroke: #ffffff; stroke-width: 5"/>
    <path d="M 261.32417 160.322607 
Q 261.811771 160.857597 261.855589 161.478637 
Q 261.901586 162.099314 261.492608 162.671259 
Q 260.865508 163.548242 259.917337 163.598248 
Q 258.970075 163.646983 257.857959 162.851748 
Q 257.485559 162.585457 257.142994 162.22909 
Q 256.800429 161.872724 256.485157 161.424463 
L 257.038641 160.65043 
Q 257.232587 161.083007 257.558247 161.465703 
Q 257.885177 161.849307 258.318584 162.159222 
Q 259.072281 162.698164 259.680228 162.683402 
Q 260.288174 162.66864 260.694426 162.100507 
Q 261.069777 161.575589 260.913312 161.018064 
Q 260.757756 160.459269 260.103196 159.991216 
L 259.411778 159.496806 
L 259.883466 158.837163 
L 260.606659 159.354293 
Q 261.197669 159.776904 261.680648 159.764983 
Q 262.163627 159.753063 262.481721 159.308216 
Q 262.807995 158.851931 262.65839 158.376147 
Q 262.510965 157.9 261.907245 157.468301 
Q 261.576787 157.232002 261.147499 157.034523 
Q 260.71912 156.835773 260.159405 156.662202 
L 260.670173 155.947906 
Q 261.218614 156.14799 261.663146 156.369816 
Q 262.107679 156.591643 262.461014 156.8443 
Q 263.374856 157.497757 263.608939 158.293266 
Q 263.845202 159.088413 263.339886 159.795083 
Q 262.987256 160.288227 262.462436 160.425819 
Q 261.937616 160.56341 261.32417 160.322607 
z
M 262.955449 165.302004 
L 265.755439 167.304179 
L 265.272845 167.979075 
L 261.508173 165.287089 
L 261.990767 164.612194 
Q 262.785141 164.465659 264.142089 164.233501 
Q 265.501217 164.00098 265.868713 163.914166 
Q 266.562829 163.757408 266.929834 163.566515 
Q 267.29811 163.376531 267.505326 163.086746 
Q 267.843415 162.613937 267.724355 162.079318 
Q 267.606204 161.543428 267.073659 161.162624 
Q 266.696175 160.892699 266.183138 160.723693 
Q 265.671372 160.555596 265.003894 160.481689 
L 265.583735 159.670798 
Q 266.207034 159.822604 266.698621 160.024293 
Q 267.19148 160.226891 267.541002 160.476822 
Q 268.462469 161.135732 268.680357 161.988811 
Q 268.899153 162.84062 268.348396 163.61084 
Q 268.08665 163.976885 267.714902 164.206646 
Q 267.345334 164.436044 266.665008 164.621871 
Q 266.483166 164.666641 265.557093 164.836176 
Q 264.632292 165.006619 262.955449 165.302004 
z
" clip-path="url(#pc9f1873774)" style="fill: #e66c5c"/>
   </g>
   <g id="text_17">
    <path d="M 299.965517 207.002827 
Q 299.316009 206.864562 298.840802 207.228277 
Q 298.367448 207.590789 298.202831 208.364086 
Q 298.039189 209.132799 298.322875 209.66126 
Q 298.608414 210.188518 299.257923 210.326784 
Q 299.907431 210.46505 300.381435 210.099481 
Q 300.855765 209.732384 301.019406 208.963671 
Q 301.184024 208.190374 300.899362 207.666498 
Q 300.615026 207.141093 299.965517 207.002827 
z
M 302.524252 204.386049 
L 302.337187 205.264796 
Q 302.009899 205.016202 301.659256 204.847305 
Q 301.308937 204.67688 300.945213 204.599451 
Q 299.990053 204.396119 299.348439 204.933684 
Q 298.708353 205.471574 298.359017 206.759886 
Q 298.728706 206.404061 299.200735 206.272906 
Q 299.674291 206.142076 300.184728 206.250737 
Q 301.259092 206.479444 301.743704 207.264745 
Q 302.228642 208.048517 301.989849 209.170257 
Q 301.755936 210.269072 300.964908 210.795598 
Q 300.174206 211.320596 299.095257 211.090912 
Q 297.85737 210.827394 297.404982 209.740633 
Q 296.952919 208.652345 297.336158 206.852059 
Q 297.695975 205.161808 298.712377 204.327015 
Q 299.728779 203.492221 301.079757 203.779814 
Q 301.443482 203.857243 301.798029 204.007801 
Q 302.152577 204.158359 302.524252 204.386049 
z
M 307.154438 206.085798 
L 303.907998 209.374106 
L 306.344038 209.892683 
L 307.154438 206.085798 
z
M 307.079679 205.191252 
L 308.293114 205.449565 
L 307.303783 210.096991 
L 308.321601 210.313661 
L 308.150803 211.115996 
L 307.132984 210.899325 
L 306.77512 212.580407 
L 305.815375 212.376099 
L 306.173239 210.695017 
L 302.954733 210.00987 
L 303.152859 209.079163 
L 307.079679 205.191252 
z
" clip-path="url(#pc9f1873774)" style="fill: #f89540; stroke: #ffffff; stroke-width: 5"/>
    <path d="M 299.965517 207.002827 
Q 299.316009 206.864562 298.840802 207.228277 
Q 298.367448 207.590789 298.202831 208.364086 
Q 298.039189 209.132799 298.322875 209.66126 
Q 298.608414 210.188518 299.257923 210.326784 
Q 299.907431 210.46505 300.381435 210.099481 
Q 300.855765 209.732384 301.019406 208.963671 
Q 301.184024 208.190374 300.899362 207.666498 
Q 300.615026 207.141093 299.965517 207.002827 
z
M 302.524252 204.386049 
L 302.337187 205.264796 
Q 302.009899 205.016202 301.659256 204.847305 
Q 301.308937 204.67688 300.945213 204.599451 
Q 299.990053 204.396119 299.348439 204.933684 
Q 298.708353 205.471574 298.359017 206.759886 
Q 298.728706 206.404061 299.200735 206.272906 
Q 299.674291 206.142076 300.184728 206.250737 
Q 301.259092 206.479444 301.743704 207.264745 
Q 302.228642 208.048517 301.989849 209.170257 
Q 301.755936 210.269072 300.964908 210.795598 
Q 300.174206 211.320596 299.095257 211.090912 
Q 297.85737 210.827394 297.404982 209.740633 
Q 296.952919 208.652345 297.336158 206.852059 
Q 297.695975 205.161808 298.712377 204.327015 
Q 299.728779 203.492221 301.079757 203.779814 
Q 301.443482 203.857243 301.798029 204.007801 
Q 302.152577 204.158359 302.524252 204.386049 
z
M 307.154438 206.085798 
L 303.907998 209.374106 
L 306.344038 209.892683 
L 307.154438 206.085798 
z
M 307.079679 205.191252 
L 308.293114 205.449565 
L 307.303783 210.096991 
L 308.321601 210.313661 
L 308.150803 211.115996 
L 307.132984 210.899325 
L 306.77512 212.580407 
L 305.815375 212.376099 
L 306.173239 210.695017 
L 302.954733 210.00987 
L 303.152859 209.079163 
L 307.079679 205.191252 
z
" clip-path="url(#pc9f1873774)" style="fill: #f89540"/>
   </g>
   <g id="text_18">
    <path d="M 334.351844 245.241682 
L 335.904893 245.669653 
L 337.382659 240.30704 
L 335.599134 240.180224 
L 335.837818 239.314072 
L 337.612305 239.438397 
L 338.562813 239.700327 
L 336.846363 245.929092 
L 338.399412 246.357063 
L 338.178992 247.156936 
L 334.131425 246.041555 
L 334.351844 245.241682 
z
M 341.139278 247.112083 
L 344.457771 248.026554 
L 344.237351 248.826427 
L 339.775537 247.596893 
L 339.995956 246.79702 
Q 340.691155 246.385679 341.884947 245.700066 
Q 343.080661 245.013363 343.39572 244.805208 
Q 343.99328 244.418824 344.272006 244.113138 
Q 344.552239 243.807866 344.646882 243.464418 
Q 344.8013 242.904055 344.505277 242.443227 
Q 344.209668 241.980892 343.578506 241.806964 
Q 343.13112 241.683679 342.591268 241.701849 
Q 342.052923 241.720434 341.400869 241.881105 
L 341.665705 240.920052 
Q 342.303136 240.847735 342.834116 240.867638 
Q 343.366603 240.887957 343.78085 241.00211 
Q 344.872955 241.303059 345.37151 242.028774 
Q 345.870481 242.752983 345.618929 243.665832 
Q 345.499379 244.099662 345.229596 244.443469 
Q 344.961735 244.786186 344.387139 245.195105 
Q 344.231869 245.299805 343.420968 245.778127 
Q 342.611574 246.256865 341.139278 247.112083 
z
M 349.186522 246.598699 
Q 348.508663 246.411903 348.019985 246.667837 
Q 347.532813 246.924187 347.358055 247.558361 
Q 347.182881 248.194041 347.469974 248.663753 
Q 347.758573 249.133881 348.436431 249.320677 
Q 349.11429 249.507473 349.60489 249.250448 
Q 350.097411 248.992331 350.271339 248.361169 
Q 350.446097 247.726995 350.157498 247.256868 
Q 349.870406 246.787156 349.186522 246.598699 
z
M 348.347261 245.933067 
Q 347.777193 245.6139 347.550649 245.100906 
Q 347.326027 244.586821 347.492069 243.98428 
Q 347.724111 243.142229 348.458547 242.817876 
Q 349.19449 242.493937 350.238392 242.781603 
Q 351.288319 243.07093 351.751433 243.72529 
Q 352.214546 244.37965 351.982504 245.221701 
Q 351.816462 245.824242 351.358707 246.150286 
Q 350.902873 246.475238 350.254303 246.458587 
Q 350.897198 246.807547 351.15113 247.379952 
Q 351.406983 247.951266 351.221847 248.623099 
Q 350.939992 249.645912 350.16568 250.020865 
Q 349.391784 250.394312 348.22888 250.073853 
Q 347.067483 249.753809 346.592614 249.036242 
Q 346.119666 248.317583 346.401521 247.294771 
Q 346.586657 246.622938 347.10055 246.263741 
Q 347.616364 245.903453 348.347261 245.933067 
z
M 348.413151 244.335345 
Q 348.262884 244.880645 348.519054 245.280247 
Q 348.77673 245.680265 349.392828 245.850042 
Q 350.005913 246.018989 350.435133 245.808258 
Q 350.86586 245.597942 351.016127 245.052643 
Q 351.16681 244.505837 350.904615 244.104574 
Q 350.643926 243.703726 350.030841 243.534779 
Q 349.414743 243.365002 348.988535 243.576563 
Q 348.563834 243.78854 348.413151 244.335345 
z
" clip-path="url(#pc9f1873774)" style="fill: #fdc527; stroke: #ffffff; stroke-width: 5"/>
    <path d="M 334.351844 245.241682 
L 335.904893 245.669653 
L 337.382659 240.30704 
L 335.599134 240.180224 
L 335.837818 239.314072 
L 337.612305 239.438397 
L 338.562813 239.700327 
L 336.846363 245.929092 
L 338.399412 246.357063 
L 338.178992 247.156936 
L 334.131425 246.041555 
L 334.351844 245.241682 
z
M 341.139278 247.112083 
L 344.457771 248.026554 
L 344.237351 248.826427 
L 339.775537 247.596893 
L 339.995956 246.79702 
Q 340.691155 246.385679 341.884947 245.700066 
Q 343.080661 245.013363 343.39572 244.805208 
Q 343.99328 244.418824 344.272006 244.113138 
Q 344.552239 243.807866 344.646882 243.464418 
Q 344.8013 242.904055 344.505277 242.443227 
Q 344.209668 241.980892 343.578506 241.806964 
Q 343.13112 241.683679 342.591268 241.701849 
Q 342.052923 241.720434 341.400869 241.881105 
L 341.665705 240.920052 
Q 342.303136 240.847735 342.834116 240.867638 
Q 343.366603 240.887957 343.78085 241.00211 
Q 344.872955 241.303059 345.37151 242.028774 
Q 345.870481 242.752983 345.618929 243.665832 
Q 345.499379 244.099662 345.229596 244.443469 
Q 344.961735 244.786186 344.387139 245.195105 
Q 344.231869 245.299805 343.420968 245.778127 
Q 342.611574 246.256865 341.139278 247.112083 
z
M 349.186522 246.598699 
Q 348.508663 246.411903 348.019985 246.667837 
Q 347.532813 246.924187 347.358055 247.558361 
Q 347.182881 248.194041 347.469974 248.663753 
Q 347.758573 249.133881 348.436431 249.320677 
Q 349.11429 249.507473 349.60489 249.250448 
Q 350.097411 248.992331 350.271339 248.361169 
Q 350.446097 247.726995 350.157498 247.256868 
Q 349.870406 246.787156 349.186522 246.598699 
z
M 348.347261 245.933067 
Q 347.777193 245.6139 347.550649 245.100906 
Q 347.326027 244.586821 347.492069 243.98428 
Q 347.724111 243.142229 348.458547 242.817876 
Q 349.19449 242.493937 350.238392 242.781603 
Q 351.288319 243.07093 351.751433 243.72529 
Q 352.214546 244.37965 351.982504 245.221701 
Q 351.816462 245.824242 351.358707 246.150286 
Q 350.902873 246.475238 350.254303 246.458587 
Q 350.897198 246.807547 351.15113 247.379952 
Q 351.406983 247.951266 351.221847 248.623099 
Q 350.939992 249.645912 350.16568 250.020865 
Q 349.391784 250.394312 348.22888 250.073853 
Q 347.067483 249.753809 346.592614 249.036242 
Q 346.119666 248.317583 346.401521 247.294771 
Q 346.586657 246.622938 347.10055 246.263741 
Q 347.616364 245.903453 348.347261 245.933067 
z
M 348.413151 244.335345 
Q 348.262884 244.880645 348.519054 245.280247 
Q 348.77673 245.680265 349.392828 245.850042 
Q 350.005913 246.018989 350.435133 245.808258 
Q 350.86586 245.597942 351.016127 245.052643 
Q 351.16681 244.505837 350.904615 244.104574 
Q 350.643926 243.703726 350.030841 243.534779 
Q 349.414743 243.365002 348.988535 243.576563 
Q 348.563834 243.78854 348.413151 244.335345 
z
" clip-path="url(#pc9f1873774)" style="fill: #fdc527"/>
   </g>
   <g id="patch_3">
    <path d="M 43.78125 301.735725 
L 43.78125 35.623725 
" style="fill: none; stroke: #cccccc; stroke-width: 0.8; stroke-linejoin: miter; stroke-linecap: square"/>
   </g>
   <g id="patch_4">
    <path d="M 400.90125 301.735725 
L 400.90125 35.623725 
" style="fill: none; stroke: #cccccc; stroke-width: 0.8; stroke-linejoin: miter; stroke-linecap: square"/>
   </g>
   <g id="patch_5">
    <path d="M 43.78125 301.735725 
L 400.90125 301.735725 
" style="fill: none; stroke: #cccccc; stroke-width: 0.8; stroke-linejoin: miter; stroke-linecap: square"/>
   </g>
   <g id="patch_6">
    <path d="M 43.78125 35.623725 
L 400.90125 35.623725 
" style="fill: none; stroke: #cccccc; stroke-width: 0.8; stroke-linejoin: miter; stroke-linecap: square"/>
   </g>
   <g id="text_19">
    <!-- Block Size = 1M, Read-Write Type = Random Balanced 1:1 -->
    <g style="fill: #262626; opacity: 0.75" transform="translate(76.075625 30.882918) scale(0.1 -0.1)">
     <defs>
      <path id="DejaVuSans-6c" d="M 603 4863 
L 1178 4863 
L 1178 0 
L 603 0 
L 603 4863 
z
" transform="scale(0.015625)"/>
      <path id="DejaVuSans-63" d="M 3122 3366 
L 3122 2828 
Q 2878 2963 2633 3030 
Q 2388 3097 2138 3097 
Q 1578 3097 1268 2742 
Q 959 2388 959 1747 
Q 959 1106 1268 751 
Q 1578 397 2138 397 
Q 2388 397 2633 464 
Q 2878 531 3122 666 
L 3122 134 
Q 2881 22 2623 -34 
Q 2366 -91 2075 -91 
Q 1284 -91 818 406 
Q 353 903 353 1747 
Q 353 2603 823 3093 
Q 1294 3584 2113 3584 
Q 2378 3584 2631 3529 
Q 2884 3475 3122 3366 
z
" transform="scale(0.015625)"/>
      <path id="DejaVuSans-6b" d="M 581 4863 
L 1159 4863 
L 1159 1991 
L 2875 3500 
L 3609 3500 
L 1753 1863 
L 3688 0 
L 2938 0 
L 1159 1709 
L 1159 0 
L 581 0 
L 581 4863 
z
" transform="scale(0.015625)"/>
      <path id="DejaVuSans-53" d="M 3425 4513 
L 3425 3897 
Q 3066 4069 2747 4153 
Q 2428 4238 2131 4238 
Q 1616 4238 1336 4038 
Q 1056 3838 1056 3469 
Q 1056 3159 1242 3001 
Q 1428 2844 1947 2747 
L 2328 2669 
Q 3034 2534 3370 2195 
Q 3706 1856 3706 1288 
Q 3706 609 3251 259 
Q 2797 -91 1919 -91 
Q 1588 -91 1214 -16 
Q 841 59 441 206 
L 441 856 
Q 825 641 1194 531 
Q 1563 422 1919 422 
Q 2459 422 2753 634 
Q 3047 847 3047 1241 
Q 3047 1584 2836 1778 
Q 2625 1972 2144 2069 
L 1759 2144 
Q 1053 2284 737 2584 
Q 422 2884 422 3419 
Q 422 4038 858 4394 
Q 1294 4750 2059 4750 
Q 2388 4750 2728 4690 
Q 3069 4631 3425 4513 
z
" transform="scale(0.015625)"/>
      <path id="DejaVuSans-7a" d="M 353 3500 
L 3084 3500 
L 3084 2975 
L 922 459 
L 3084 459 
L 3084 0 
L 275 0 
L 275 525 
L 2438 3041 
L 353 3041 
L 353 3500 
z
" transform="scale(0.015625)"/>
      <path id="DejaVuSans-3d" d="M 678 2906 
L 4684 2906 
L 4684 2381 
L 678 2381 
L 678 2906 
z
M 678 1631 
L 4684 1631 
L 4684 1100 
L 678 1100 
L 678 1631 
z
" transform="scale(0.015625)"/>
      <path id="DejaVuSans-2c" d="M 750 794 
L 1409 794 
L 1409 256 
L 897 -744 
L 494 -744 
L 750 256 
L 750 794 
z
" transform="scale(0.015625)"/>
      <path id="DejaVuSans-52" d="M 2841 2188 
Q 3044 2119 3236 1894 
Q 3428 1669 3622 1275 
L 4263 0 
L 3584 0 
L 2988 1197 
Q 2756 1666 2539 1819 
Q 2322 1972 1947 1972 
L 1259 1972 
L 1259 0 
L 628 0 
L 628 4666 
L 2053 4666 
Q 2853 4666 3247 4331 
Q 3641 3997 3641 3322 
Q 3641 2881 3436 2590 
Q 3231 2300 2841 2188 
z
M 1259 4147 
L 1259 2491 
L 2053 2491 
Q 2509 2491 2742 2702 
Q 2975 2913 2975 3322 
Q 2975 3731 2742 3939 
Q 2509 4147 2053 4147 
L 1259 4147 
z
" transform="scale(0.015625)"/>
      <path id="DejaVuSans-2d" d="M 313 2009 
L 1997 2009 
L 1997 1497 
L 313 1497 
L 313 2009 
z
" transform="scale(0.015625)"/>
      <path id="DejaVuSans-57" d="M 213 4666 
L 850 4666 
L 1831 722 
L 2809 4666 
L 3519 4666 
L 4500 722 
L 5478 4666 
L 6119 4666 
L 4947 0 
L 4153 0 
L 3169 4050 
L 2175 0 
L 1381 0 
L 213 4666 
z
" transform="scale(0.015625)"/>
      <path id="DejaVuSans-54" d="M -19 4666 
L 3928 4666 
L 3928 4134 
L 2272 4134 
L 2272 0 
L 1638 0 
L 1638 4134 
L -19 4134 
L -19 4666 
z
" transform="scale(0.015625)"/>
      <path id="DejaVuSans-79" d="M 2059 -325 
Q 1816 -950 1584 -1140 
Q 1353 -1331 966 -1331 
L 506 -1331 
L 506 -850 
L 844 -850 
Q 1081 -850 1212 -737 
Q 1344 -625 1503 -206 
L 1606 56 
L 191 3500 
L 800 3500 
L 1894 763 
L 2988 3500 
L 3597 3500 
L 2059 -325 
z
" transform="scale(0.015625)"/>
      <path id="DejaVuSans-70" d="M 1159 525 
L 1159 -1331 
L 581 -1331 
L 581 3500 
L 1159 3500 
L 1159 2969 
Q 1341 3281 1617 3432 
Q 1894 3584 2278 3584 
Q 2916 3584 3314 3078 
Q 3713 2572 3713 1747 
Q 3713 922 3314 415 
Q 2916 -91 2278 -91 
Q 1894 -91 1617 61 
Q 1341 213 1159 525 
z
M 3116 1747 
Q 3116 2381 2855 2742 
Q 2594 3103 2138 3103 
Q 1681 3103 1420 2742 
Q 1159 2381 1159 1747 
Q 1159 1113 1420 752 
Q 1681 391 2138 391 
Q 2594 391 2855 752 
Q 3116 1113 3116 1747 
z
" transform="scale(0.015625)"/>
      <path id="DejaVuSans-3a" d="M 750 794 
L 1409 794 
L 1409 0 
L 750 0 
L 750 794 
z
M 750 3309 
L 1409 3309 
L 1409 2516 
L 750 2516 
L 750 3309 
z
" transform="scale(0.015625)"/>
     </defs>
     <use xlink:href="#DejaVuSans-42"/>
     <use xlink:href="#DejaVuSans-6c" transform="translate(68.603516 0)"/>
     <use xlink:href="#DejaVuSans-6f" transform="translate(96.386719 0)"/>
     <use xlink:href="#DejaVuSans-63" transform="translate(157.568359 0)"/>
     <use xlink:href="#DejaVuSans-6b" transform="translate(212.548828 0)"/>
     <use xlink:href="#DejaVuSans-20" transform="translate(270.458984 0)"/>
     <use xlink:href="#DejaVuSans-53" transform="translate(302.246094 0)"/>
     <use xlink:href="#DejaVuSans-69" transform="translate(365.722656 0)"/>
     <use xlink:href="#DejaVuSans-7a" transform="translate(393.505859 0)"/>
     <use xlink:href="#DejaVuSans-65" transform="translate(445.996094 0)"/>
     <use xlink:href="#DejaVuSans-20" transform="translate(507.519531 0)"/>
     <use xlink:href="#DejaVuSans-3d" transform="translate(539.306641 0)"/>
     <use xlink:href="#DejaVuSans-20" transform="translate(623.095703 0)"/>
     <use xlink:href="#DejaVuSans-31" transform="translate(654.882812 0)"/>
     <use xlink:href="#DejaVuSans-4d" transform="translate(718.505859 0)"/>
     <use xlink:href="#DejaVuSans-2c" transform="translate(804.785156 0)"/>
     <use xlink:href="#DejaVuSans-20" transform="translate(836.572266 0)"/>
     <use xlink:href="#DejaVuSans-52" transform="translate(868.359375 0)"/>
     <use xlink:href="#DejaVuSans-65" transform="translate(933.341797 0)"/>
     <use xlink:href="#DejaVuSans-61" transform="translate(994.865234 0)"/>
     <use xlink:href="#DejaVuSans-64" transform="translate(1056.144531 0)"/>
     <use xlink:href="#DejaVuSans-2d" transform="translate(1119.621094 0)"/>
     <use xlink:href="#DejaVuSans-57" transform="translate(1151.705078 0)"/>
     <use xlink:href="#DejaVuSans-72" transform="translate(1246.082031 0)"/>
     <use xlink:href="#DejaVuSans-69" transform="translate(1287.195312 0)"/>
     <use xlink:href="#DejaVuSans-74" transform="translate(1314.978516 0)"/>
     <use xlink:href="#DejaVuSans-65" transform="translate(1354.1875 0)"/>
     <use xlink:href="#DejaVuSans-20" transform="translate(1415.710938 0)"/>
     <use xlink:href="#DejaVuSans-54" transform="translate(1447.498047 0)"/>
     <use xlink:href="#DejaVuSans-79" transform="translate(1492.957031 0)"/>
     <use xlink:href="#DejaVuSans-70" transform="translate(1552.136719 0)"/>
     <use xlink:href="#DejaVuSans-65" transform="translate(1615.613281 0)"/>
     <use xlink:href="#DejaVuSans-20" transform="translate(1677.136719 0)"/>
     <use xlink:href="#DejaVuSans-3d" transform="translate(1708.923828 0)"/>
     <use xlink:href="#DejaVuSans-20" transform="translate(1792.712891 0)"/>
     <use xlink:href="#DejaVuSans-52" transform="translate(1824.5 0)"/>
     <use xlink:href="#DejaVuSans-61" transform="translate(1891.732422 0)"/>
     <use xlink:href="#DejaVuSans-6e" transform="translate(1953.011719 0)"/>
     <use xlink:href="#DejaVuSans-64" transform="translate(2016.390625 0)"/>
     <use xlink:href="#DejaVuSans-6f" transform="translate(2079.867188 0)"/>
     <use xlink:href="#DejaVuSans-6d" transform="translate(2141.048828 0)"/>
     <use xlink:href="#DejaVuSans-20" transform="translate(2238.460938 0)"/>
     <use xlink:href="#DejaVuSans-42" transform="translate(2270.248047 0)"/>
     <use xlink:href="#DejaVuSans-61" transform="translate(2338.851562 0)"/>
     <use xlink:href="#DejaVuSans-6c" transform="translate(2400.130859 0)"/>
     <use xlink:href="#DejaVuSans-61" transform="translate(2427.914062 0)"/>
     <use xlink:href="#DejaVuSans-6e" transform="translate(2489.193359 0)"/>
     <use xlink:href="#DejaVuSans-63" transform="translate(2552.572266 0)"/>
     <use xlink:href="#DejaVuSans-65" transform="translate(2607.552734 0)"/>
     <use xlink:href="#DejaVuSans-64" transform="translate(2669.076172 0)"/>
     <use xlink:href="#DejaVuSans-20" transform="translate(2732.552734 0)"/>
     <use xlink:href="#DejaVuSans-31" transform="translate(2764.339844 0)"/>
     <use xlink:href="#DejaVuSans-3a" transform="translate(2827.962891 0)"/>
     <use xlink:href="#DejaVuSans-31" transform="translate(2861.654297 0)"/>
    </g>
   </g>
   <g id="text_20">
    <!-- Mean Bandwidth vs Number of Jobs -->
    <g style="fill: #262626" transform="translate(102.012188 16.318125) scale(0.12 -0.12)">
     <defs>
      <path id="DejaVuSans-Bold-4d" d="M 588 4666 
L 2119 4666 
L 3181 2169 
L 4250 4666 
L 5778 4666 
L 5778 0 
L 4641 0 
L 4641 3413 
L 3566 897 
L 2803 897 
L 1728 3413 
L 1728 0 
L 588 0 
L 588 4666 
z
" transform="scale(0.015625)"/>
      <path id="DejaVuSans-Bold-65" d="M 4031 1759 
L 4031 1441 
L 1416 1441 
Q 1456 1047 1700 850 
Q 1944 653 2381 653 
Q 2734 653 3104 758 
Q 3475 863 3866 1075 
L 3866 213 
Q 3469 63 3072 -14 
Q 2675 -91 2278 -91 
Q 1328 -91 801 392 
Q 275 875 275 1747 
Q 275 2603 792 3093 
Q 1309 3584 2216 3584 
Q 3041 3584 3536 3087 
Q 4031 2591 4031 1759 
z
M 2881 2131 
Q 2881 2450 2695 2645 
Q 2509 2841 2209 2841 
Q 1884 2841 1681 2658 
Q 1478 2475 1428 2131 
L 2881 2131 
z
" transform="scale(0.015625)"/>
      <path id="DejaVuSans-Bold-61" d="M 2106 1575 
Q 1756 1575 1579 1456 
Q 1403 1338 1403 1106 
Q 1403 894 1545 773 
Q 1688 653 1941 653 
Q 2256 653 2472 879 
Q 2688 1106 2688 1447 
L 2688 1575 
L 2106 1575 
z
M 3816 1997 
L 3816 0 
L 2688 0 
L 2688 519 
Q 2463 200 2181 54 
Q 1900 -91 1497 -91 
Q 953 -91 614 226 
Q 275 544 275 1050 
Q 275 1666 698 1953 
Q 1122 2241 2028 2241 
L 2688 2241 
L 2688 2328 
Q 2688 2594 2478 2717 
Q 2269 2841 1825 2841 
Q 1466 2841 1156 2769 
Q 847 2697 581 2553 
L 581 3406 
Q 941 3494 1303 3539 
Q 1666 3584 2028 3584 
Q 2975 3584 3395 3211 
Q 3816 2838 3816 1997 
z
" transform="scale(0.015625)"/>
      <path id="DejaVuSans-Bold-6e" d="M 4056 2131 
L 4056 0 
L 2931 0 
L 2931 347 
L 2931 1631 
Q 2931 2084 2911 2256 
Q 2891 2428 2841 2509 
Q 2775 2619 2662 2680 
Q 2550 2741 2406 2741 
Q 2056 2741 1856 2470 
Q 1656 2200 1656 1722 
L 1656 0 
L 538 0 
L 538 3500 
L 1656 3500 
L 1656 2988 
Q 1909 3294 2193 3439 
Q 2478 3584 2822 3584 
Q 3428 3584 3742 3212 
Q 4056 2841 4056 2131 
z
" transform="scale(0.015625)"/>
      <path id="DejaVuSans-Bold-20" transform="scale(0.015625)"/>
      <path id="DejaVuSans-Bold-42" d="M 2456 2859 
Q 2741 2859 2887 2984 
Q 3034 3109 3034 3353 
Q 3034 3594 2887 3720 
Q 2741 3847 2456 3847 
L 1791 3847 
L 1791 2859 
L 2456 2859 
z
M 2497 819 
Q 2859 819 3042 972 
Q 3225 1125 3225 1434 
Q 3225 1738 3044 1889 
Q 2863 2041 2497 2041 
L 1791 2041 
L 1791 819 
L 2497 819 
z
M 3616 2497 
Q 4003 2384 4215 2081 
Q 4428 1778 4428 1338 
Q 4428 663 3972 331 
Q 3516 0 2584 0 
L 588 0 
L 588 4666 
L 2394 4666 
Q 3366 4666 3802 4372 
Q 4238 4078 4238 3431 
Q 4238 3091 4078 2852 
Q 3919 2613 3616 2497 
z
" transform="scale(0.015625)"/>
      <path id="DejaVuSans-Bold-64" d="M 2919 2988 
L 2919 4863 
L 4044 4863 
L 4044 0 
L 2919 0 
L 2919 506 
Q 2688 197 2409 53 
Q 2131 -91 1766 -91 
Q 1119 -91 703 423 
Q 288 938 288 1747 
Q 288 2556 703 3070 
Q 1119 3584 1766 3584 
Q 2128 3584 2408 3439 
Q 2688 3294 2919 2988 
z
M 2181 722 
Q 2541 722 2730 984 
Q 2919 1247 2919 1747 
Q 2919 2247 2730 2509 
Q 2541 2772 2181 2772 
Q 1825 2772 1636 2509 
Q 1447 2247 1447 1747 
Q 1447 1247 1636 984 
Q 1825 722 2181 722 
z
" transform="scale(0.015625)"/>
      <path id="DejaVuSans-Bold-77" d="M 225 3500 
L 1313 3500 
L 1900 1088 
L 2491 3500 
L 3425 3500 
L 4013 1113 
L 4603 3500 
L 5691 3500 
L 4769 0 
L 3547 0 
L 2956 2406 
L 2369 0 
L 1147 0 
L 225 3500 
z
" transform="scale(0.015625)"/>
      <path id="DejaVuSans-Bold-69" d="M 538 3500 
L 1656 3500 
L 1656 0 
L 538 0 
L 538 3500 
z
M 538 4863 
L 1656 4863 
L 1656 3950 
L 538 3950 
L 538 4863 
z
" transform="scale(0.015625)"/>
      <path id="DejaVuSans-Bold-74" d="M 1759 4494 
L 1759 3500 
L 2913 3500 
L 2913 2700 
L 1759 2700 
L 1759 1216 
Q 1759 972 1856 886 
Q 1953 800 2241 800 
L 2816 800 
L 2816 0 
L 1856 0 
Q 1194 0 917 276 
Q 641 553 641 1216 
L 641 2700 
L 84 2700 
L 84 3500 
L 641 3500 
L 641 4494 
L 1759 4494 
z
" transform="scale(0.015625)"/>
      <path id="DejaVuSans-Bold-68" d="M 4056 2131 
L 4056 0 
L 2931 0 
L 2931 347 
L 2931 1625 
Q 2931 2084 2911 2256 
Q 2891 2428 2841 2509 
Q 2775 2619 2662 2680 
Q 2550 2741 2406 2741 
Q 2056 2741 1856 2470 
Q 1656 2200 1656 1722 
L 1656 0 
L 538 0 
L 538 4863 
L 1656 4863 
L 1656 2988 
Q 1909 3294 2193 3439 
Q 2478 3584 2822 3584 
Q 3428 3584 3742 3212 
Q 4056 2841 4056 2131 
z
" transform="scale(0.015625)"/>
      <path id="DejaVuSans-Bold-76" d="M 97 3500 
L 1216 3500 
L 2088 1081 
L 2956 3500 
L 4078 3500 
L 2700 0 
L 1472 0 
L 97 3500 
z
" transform="scale(0.015625)"/>
      <path id="DejaVuSans-Bold-73" d="M 3272 3391 
L 3272 2541 
Q 2913 2691 2578 2766 
Q 2244 2841 1947 2841 
Q 1628 2841 1473 2761 
Q 1319 2681 1319 2516 
Q 1319 2381 1436 2309 
Q 1553 2238 1856 2203 
L 2053 2175 
Q 2913 2066 3209 1816 
Q 3506 1566 3506 1031 
Q 3506 472 3093 190 
Q 2681 -91 1863 -91 
Q 1516 -91 1145 -36 
Q 775 19 384 128 
L 384 978 
Q 719 816 1070 734 
Q 1422 653 1784 653 
Q 2113 653 2278 743 
Q 2444 834 2444 1013 
Q 2444 1163 2330 1236 
Q 2216 1309 1875 1350 
L 1678 1375 
Q 931 1469 631 1722 
Q 331 1975 331 2491 
Q 331 3047 712 3315 
Q 1094 3584 1881 3584 
Q 2191 3584 2531 3537 
Q 2872 3491 3272 3391 
z
" transform="scale(0.015625)"/>
      <path id="DejaVuSans-Bold-4e" d="M 588 4666 
L 1931 4666 
L 3628 1466 
L 3628 4666 
L 4769 4666 
L 4769 0 
L 3425 0 
L 1728 3200 
L 1728 0 
L 588 0 
L 588 4666 
z
" transform="scale(0.015625)"/>
      <path id="DejaVuSans-Bold-75" d="M 500 1363 
L 500 3500 
L 1625 3500 
L 1625 3150 
Q 1625 2866 1622 2436 
Q 1619 2006 1619 1863 
Q 1619 1441 1641 1255 
Q 1663 1069 1716 984 
Q 1784 875 1895 815 
Q 2006 756 2150 756 
Q 2500 756 2700 1025 
Q 2900 1294 2900 1772 
L 2900 3500 
L 4019 3500 
L 4019 0 
L 2900 0 
L 2900 506 
Q 2647 200 2364 54 
Q 2081 -91 1741 -91 
Q 1134 -91 817 281 
Q 500 653 500 1363 
z
" transform="scale(0.015625)"/>
      <path id="DejaVuSans-Bold-6d" d="M 3781 2919 
Q 3994 3244 4286 3414 
Q 4578 3584 4928 3584 
Q 5531 3584 5847 3212 
Q 6163 2841 6163 2131 
L 6163 0 
L 5038 0 
L 5038 1825 
Q 5041 1866 5042 1909 
Q 5044 1953 5044 2034 
Q 5044 2406 4934 2573 
Q 4825 2741 4581 2741 
Q 4263 2741 4089 2478 
Q 3916 2216 3909 1719 
L 3909 0 
L 2784 0 
L 2784 1825 
Q 2784 2406 2684 2573 
Q 2584 2741 2328 2741 
Q 2006 2741 1831 2477 
Q 1656 2213 1656 1722 
L 1656 0 
L 531 0 
L 531 3500 
L 1656 3500 
L 1656 2988 
Q 1863 3284 2130 3434 
Q 2397 3584 2719 3584 
Q 3081 3584 3359 3409 
Q 3638 3234 3781 2919 
z
" transform="scale(0.015625)"/>
      <path id="DejaVuSans-Bold-62" d="M 2400 722 
Q 2759 722 2948 984 
Q 3138 1247 3138 1747 
Q 3138 2247 2948 2509 
Q 2759 2772 2400 2772 
Q 2041 2772 1848 2508 
Q 1656 2244 1656 1747 
Q 1656 1250 1848 986 
Q 2041 722 2400 722 
z
M 1656 2988 
Q 1888 3294 2169 3439 
Q 2450 3584 2816 3584 
Q 3463 3584 3878 3070 
Q 4294 2556 4294 1747 
Q 4294 938 3878 423 
Q 3463 -91 2816 -91 
Q 2450 -91 2169 54 
Q 1888 200 1656 506 
L 1656 0 
L 538 0 
L 538 4863 
L 1656 4863 
L 1656 2988 
z
" transform="scale(0.015625)"/>
      <path id="DejaVuSans-Bold-72" d="M 3138 2547 
Q 2991 2616 2845 2648 
Q 2700 2681 2553 2681 
Q 2122 2681 1889 2404 
Q 1656 2128 1656 1613 
L 1656 0 
L 538 0 
L 538 3500 
L 1656 3500 
L 1656 2925 
Q 1872 3269 2151 3426 
Q 2431 3584 2822 3584 
Q 2878 3584 2943 3579 
Q 3009 3575 3134 3559 
L 3138 2547 
z
" transform="scale(0.015625)"/>
      <path id="DejaVuSans-Bold-6f" d="M 2203 2784 
Q 1831 2784 1636 2517 
Q 1441 2250 1441 1747 
Q 1441 1244 1636 976 
Q 1831 709 2203 709 
Q 2569 709 2762 976 
Q 2956 1244 2956 1747 
Q 2956 2250 2762 2517 
Q 2569 2784 2203 2784 
z
M 2203 3584 
Q 3106 3584 3614 3096 
Q 4122 2609 4122 1747 
Q 4122 884 3614 396 
Q 3106 -91 2203 -91 
Q 1297 -91 786 396 
Q 275 884 275 1747 
Q 275 2609 786 3096 
Q 1297 3584 2203 3584 
z
" transform="scale(0.015625)"/>
      <path id="DejaVuSans-Bold-66" d="M 2841 4863 
L 2841 4128 
L 2222 4128 
Q 1984 4128 1890 4042 
Q 1797 3956 1797 3744 
L 1797 3500 
L 2753 3500 
L 2753 2700 
L 1797 2700 
L 1797 0 
L 678 0 
L 678 2700 
L 122 2700 
L 122 3500 
L 678 3500 
L 678 3744 
Q 678 4316 997 4589 
Q 1316 4863 1984 4863 
L 2841 4863 
z
" transform="scale(0.015625)"/>
      <path id="DejaVuSans-Bold-4a" d="M 588 4666 
L 1791 4666 
L 1791 453 
Q 1791 -419 1317 -850 
Q 844 -1281 -116 -1281 
L -359 -1281 
L -359 -372 
L -172 -372 
Q 203 -372 395 -162 
Q 588 47 588 453 
L 588 4666 
z
" transform="scale(0.015625)"/>
     </defs>
     <use xlink:href="#DejaVuSans-Bold-4d"/>
     <use xlink:href="#DejaVuSans-Bold-65" transform="translate(99.511719 0)"/>
     <use xlink:href="#DejaVuSans-Bold-61" transform="translate(167.333984 0)"/>
     <use xlink:href="#DejaVuSans-Bold-6e" transform="translate(234.814453 0)"/>
     <use xlink:href="#DejaVuSans-Bold-20" transform="translate(306.005859 0)"/>
     <use xlink:href="#DejaVuSans-Bold-42" transform="translate(340.820312 0)"/>
     <use xlink:href="#DejaVuSans-Bold-61" transform="translate(417.041016 0)"/>
     <use xlink:href="#DejaVuSans-Bold-6e" transform="translate(484.521484 0)"/>
     <use xlink:href="#DejaVuSans-Bold-64" transform="translate(555.712891 0)"/>
     <use xlink:href="#DejaVuSans-Bold-77" transform="translate(627.294922 0)"/>
     <use xlink:href="#DejaVuSans-Bold-69" transform="translate(719.677734 0)"/>
     <use xlink:href="#DejaVuSans-Bold-64" transform="translate(753.955078 0)"/>
     <use xlink:href="#DejaVuSans-Bold-74" transform="translate(825.537109 0)"/>
     <use xlink:href="#DejaVuSans-Bold-68" transform="translate(873.339844 0)"/>
     <use xlink:href="#DejaVuSans-Bold-20" transform="translate(944.53125 0)"/>
     <use xlink:href="#DejaVuSans-Bold-76" transform="translate(979.345703 0)"/>
     <use xlink:href="#DejaVuSans-Bold-73" transform="translate(1044.53125 0)"/>
     <use xlink:href="#DejaVuSans-Bold-20" transform="translate(1104.052734 0)"/>
     <use xlink:href="#DejaVuSans-Bold-4e" transform="translate(1138.867188 0)"/>
     <use xlink:href="#DejaVuSans-Bold-75" transform="translate(1222.558594 0)"/>
     <use xlink:href="#DejaVuSans-Bold-6d" transform="translate(1293.75 0)"/>
     <use xlink:href="#DejaVuSans-Bold-62" transform="translate(1397.949219 0)"/>
     <use xlink:href="#DejaVuSans-Bold-65" transform="translate(1469.53125 0)"/>
     <use xlink:href="#DejaVuSans-Bold-72" transform="translate(1537.353516 0)"/>
     <use xlink:href="#DejaVuSans-Bold-20" transform="translate(1586.669922 0)"/>
     <use xlink:href="#DejaVuSans-Bold-6f" transform="translate(1621.484375 0)"/>
     <use xlink:href="#DejaVuSans-Bold-66" transform="translate(1690.185547 0)"/>
     <use xlink:href="#DejaVuSans-Bold-20" transform="translate(1733.691406 0)"/>
     <use xlink:href="#DejaVuSans-Bold-4a" transform="translate(1768.505859 0)"/>
     <use xlink:href="#DejaVuSans-Bold-6f" transform="translate(1805.712891 0)"/>
     <use xlink:href="#DejaVuSans-Bold-62" transform="translate(1874.414062 0)"/>
     <use xlink:href="#DejaVuSans-Bold-73" transform="translate(1945.996094 0)"/>
    </g>
   </g>
   <g id="legend_1">
    <g id="text_21">
     <!-- IO Depth -->
     <g style="fill: #262626" transform="translate(435.407813 120.065663) scale(0.1 -0.1)">
      <defs>
       <path id="DejaVuSans-49" d="M 628 4666 
L 1259 4666 
L 1259 0 
L 628 0 
L 628 4666 
z
" transform="scale(0.015625)"/>
       <path id="DejaVuSans-4f" d="M 2522 4238 
Q 1834 4238 1429 3725 
Q 1025 3213 1025 2328 
Q 1025 1447 1429 934 
Q 1834 422 2522 422 
Q 3209 422 3611 934 
Q 4013 1447 4013 2328 
Q 4013 3213 3611 3725 
Q 3209 4238 2522 4238 
z
M 2522 4750 
Q 3503 4750 4090 4092 
Q 4678 3434 4678 2328 
Q 4678 1225 4090 567 
Q 3503 -91 2522 -91 
Q 1538 -91 948 565 
Q 359 1222 359 2328 
Q 359 3434 948 4092 
Q 1538 4750 2522 4750 
z
" transform="scale(0.015625)"/>
       <path id="DejaVuSans-44" d="M 1259 4147 
L 1259 519 
L 2022 519 
Q 2988 519 3436 956 
Q 3884 1394 3884 2338 
Q 3884 3275 3436 3711 
Q 2988 4147 2022 4147 
L 1259 4147 
z
M 628 4666 
L 1925 4666 
Q 3281 4666 3915 4102 
Q 4550 3538 4550 2338 
Q 4550 1131 3912 565 
Q 3275 0 1925 0 
L 628 0 
L 628 4666 
z
" transform="scale(0.015625)"/>
      </defs>
      <use xlink:href="#DejaVuSans-49"/>
      <use xlink:href="#DejaVuSans-4f" transform="translate(29.492188 0)"/>
      <use xlink:href="#DejaVuSans-20" transform="translate(108.203125 0)"/>
      <use xlink:href="#DejaVuSans-44" transform="translate(139.990234 0)"/>
      <use xlink:href="#DejaVuSans-65" transform="translate(216.992188 0)"/>
      <use xlink:href="#DejaVuSans-70" transform="translate(278.515625 0)"/>
      <use xlink:href="#DejaVuSans-74" transform="translate(341.992188 0)"/>
      <use xlink:href="#DejaVuSans-68" transform="translate(381.201172 0)"/>
     </g>
    </g>
    <g id="line2d_24">
     <path d="M 434.09375 131.243787 
L 444.09375 131.243787 
L 454.09375 131.243787 
" style="fill: none; stroke: #4c02a1; stroke-width: 1.5; stroke-linecap: round"/>
    </g>
    <g id="text_22">
     <!-- 1 -->
     <g style="fill: #262626" transform="translate(462.09375 134.743787) scale(0.1 -0.1)">
      <use xlink:href="#DejaVuSans-31"/>
     </g>
    </g>
    <g id="line2d_25">
     <path d="M 434.09375 145.921913 
L 444.09375 145.921913 
L 454.09375 145.921913 
" style="fill: none; stroke: #7e03a8; stroke-width: 1.5; stroke-linecap: round"/>
    </g>
    <g id="text_23">
     <!-- 4 -->
     <g style="fill: #262626" transform="translate(462.09375 149.421913) scale(0.1 -0.1)">
      <use xlink:href="#DejaVuSans-34"/>
     </g>
    </g>
    <g id="line2d_26">
     <path d="M 434.09375 160.600037 
L 444.09375 160.600037 
L 454.09375 160.600037 
" style="fill: none; stroke: #aa2395; stroke-width: 1.5; stroke-linecap: round"/>
    </g>
    <g id="text_24">
     <!-- 8 -->
     <g style="fill: #262626" transform="translate(462.09375 164.100037) scale(0.1 -0.1)">
      <use xlink:href="#DejaVuSans-38"/>
     </g>
    </g>
    <g id="line2d_27">
     <path d="M 434.09375 175.278163 
L 444.09375 175.278163 
L 454.09375 175.278163 
" style="fill: none; stroke: #cc4778; stroke-width: 1.5; stroke-linecap: round"/>
    </g>
    <g id="text_25">
     <!-- 16 -->
     <g style="fill: #262626" transform="translate(462.09375 178.778163) scale(0.1 -0.1)">
      <use xlink:href="#DejaVuSans-31"/>
      <use xlink:href="#DejaVuSans-36" transform="translate(63.623047 0)"/>
     </g>
    </g>
    <g id="line2d_28">
     <path d="M 434.09375 189.956288 
L 444.09375 189.956288 
L 454.09375 189.956288 
" style="fill: none; stroke: #e66c5c; stroke-width: 1.5; stroke-linecap: round"/>
    </g>
    <g id="text_26">
     <!-- 32 -->
     <g style="fill: #262626" transform="translate(462.09375 193.456288) scale(0.1 -0.1)">
      <use xlink:href="#DejaVuSans-33"/>
      <use xlink:href="#DejaVuSans-32" transform="translate(63.623047 0)"/>
     </g>
    </g>
    <g id="line2d_29">
     <path d="M 434.09375 204.634412 
L 444.09375 204.634412 
L 454.09375 204.634412 
" style="fill: none; stroke: #f89540; stroke-width: 1.5; stroke-linecap: round"/>
    </g>
    <g id="text_27">
     <!-- 64 -->
     <g style="fill: #262626" transform="translate(462.09375 208.134412) scale(0.1 -0.1)">
      <use xlink:href="#DejaVuSans-36"/>
      <use xlink:href="#DejaVuSans-34" transform="translate(63.623047 0)"/>
     </g>
    </g>
    <g id="line2d_30">
     <path d="M 434.09375 219.312537 
L 444.09375 219.312537 
L 454.09375 219.312537 
" style="fill: none; stroke: #fdc527; stroke-width: 1.5; stroke-linecap: round"/>
    </g>
    <g id="text_28">
     <!-- 128 -->
     <g style="fill: #262626" transform="translate(462.09375 222.812537) scale(0.1 -0.1)">
      <use xlink:href="#DejaVuSans-31"/>
      <use xlink:href="#DejaVuSans-32" transform="translate(63.623047 0)"/>
      <use xlink:href="#DejaVuSans-38" transform="translate(127.246094 0)"/>
     </g>
    </g>
   </g>
  </g>
 </g>
 <defs>
  <clipPath id="pc9f1873774">
   <rect x="43.78125" y="35.623725" width="357.12" height="266.112"/>
  </clipPath>
 </defs>
</svg>
