<?xml version="1.0" encoding="utf-8" standalone="no"?>
<!DOCTYPE svg PUBLIC "-//W3C//DTD SVG 1.1//EN"
  "http://www.w3.org/Graphics/SVG/1.1/DTD/svg11.dtd">
<svg xmlns:xlink="http://www.w3.org/1999/xlink" width="447.543175pt" height="336.501495pt" viewBox="0 0 447.543175 336.501495" xmlns="http://www.w3.org/2000/svg" version="1.1">
 <metadata>
  <rdf:RDF xmlns:dc="http://purl.org/dc/elements/1.1/" xmlns:cc="http://creativecommons.org/ns#" xmlns:rdf="http://www.w3.org/1999/02/22-rdf-syntax-ns#">
   <cc:Work>
    <dc:type rdf:resource="http://purl.org/dc/dcmitype/StillImage"/>
    <dc:date>2025-10-10T09:33:58.565038</dc:date>
    <dc:format>image/svg+xml</dc:format>
    <dc:creator>
     <cc:Agent>
      <dc:title>Matplotlib v3.10.6, https://matplotlib.org/</dc:title>
     </cc:Agent>
    </dc:creator>
   </cc:Work>
  </rdf:RDF>
 </metadata>
 <defs>
  <style type="text/css">*{stroke-linejoin: round; stroke-linecap: butt}</style>
 </defs>
 <g id="figure_1">
  <g id="patch_1">
   <path d="M 0 336.501495 
L 447.543175 336.501495 
L 447.543175 0 
L 0 0 
z
" style="fill: #ffffff"/>
  </g>
  <g id="axes_1">
   <g id="patch_2">
    <path d="M 43.78125 298.945245 
L 361.94325 298.945245 
L 361.94325 35.490845 
L 43.78125 35.490845 
z
" style="fill: #ffffff"/>
   </g>
   <g id="matplotlib.axis_1">
    <g id="xtick_1">
     <g id="line2d_1">
      <path d="M 58.243159 298.945245 
L 58.243159 35.490845 
" clip-path="url(#p4fa33f47ea)" style="fill: none; stroke: #cccccc; stroke-width: 0.8; stroke-linecap: round"/>
     </g>
     <g id="text_1">
      <!-- 16 -->
      <g style="fill: #262626" transform="translate(51.880659 313.543682) scale(0.1 -0.1)">
       <defs>
        <path id="DejaVuSans-31" d="M 794 531 
L 1825 531 
L 1825 4091 
L 703 3866 
L 703 4441 
L 1819 4666 
L 2450 4666 
L 2450 531 
L 3481 531 
L 3481 0 
L 794 0 
L 794 531 
z
" transform="scale(0.015625)"/>
        <path id="DejaVuSans-36" d="M 2113 2584 
Q 1688 2584 1439 2293 
Q 1191 2003 1191 1497 
Q 1191 994 1439 701 
Q 1688 409 2113 409 
Q 2538 409 2786 701 
Q 3034 994 3034 1497 
Q 3034 2003 2786 2293 
Q 2538 2584 2113 2584 
z
M 3366 4563 
L 3366 3988 
Q 3128 4100 2886 4159 
Q 2644 4219 2406 4219 
Q 1781 4219 1451 3797 
Q 1122 3375 1075 2522 
Q 1259 2794 1537 2939 
Q 1816 3084 2150 3084 
Q 2853 3084 3261 2657 
Q 3669 2231 3669 1497 
Q 3669 778 3244 343 
Q 2819 -91 2113 -91 
Q 1303 -91 875 529 
Q 447 1150 447 2328 
Q 447 3434 972 4092 
Q 1497 4750 2381 4750 
Q 2619 4750 2861 4703 
Q 3103 4656 3366 4563 
z
" transform="scale(0.015625)"/>
       </defs>
       <use xlink:href="#DejaVuSans-31"/>
       <use xlink:href="#DejaVuSans-36" transform="translate(63.623047 0)"/>
      </g>
     </g>
    </g>
    <g id="xtick_2">
     <g id="line2d_2">
      <path d="M 347.481341 298.945245 
L 347.481341 35.490845 
" clip-path="url(#p4fa33f47ea)" style="fill: none; stroke: #cccccc; stroke-width: 0.8; stroke-linecap: round"/>
     </g>
     <g id="text_2">
      <!-- 128 -->
      <g style="fill: #262626" transform="translate(337.937591 313.543682) scale(0.1 -0.1)">
       <defs>
        <path id="DejaVuSans-32" d="M 1228 531 
L 3431 531 
L 3431 0 
L 469 0 
L 469 531 
Q 828 903 1448 1529 
Q 2069 2156 2228 2338 
Q 2531 2678 2651 2914 
Q 2772 3150 2772 3378 
Q 2772 3750 2511 3984 
Q 2250 4219 1831 4219 
Q 1534 4219 1204 4116 
Q 875 4013 500 3803 
L 500 4441 
Q 881 4594 1212 4672 
Q 1544 4750 1819 4750 
Q 2544 4750 2975 4387 
Q 3406 4025 3406 3419 
Q 3406 3131 3298 2873 
Q 3191 2616 2906 2266 
Q 2828 2175 2409 1742 
Q 1991 1309 1228 531 
z
" transform="scale(0.015625)"/>
        <path id="DejaVuSans-38" d="M 2034 2216 
Q 1584 2216 1326 1975 
Q 1069 1734 1069 1313 
Q 1069 891 1326 650 
Q 1584 409 2034 409 
Q 2484 409 2743 651 
Q 3003 894 3003 1313 
Q 3003 1734 2745 1975 
Q 2488 2216 2034 2216 
z
M 1403 2484 
Q 997 2584 770 2862 
Q 544 3141 544 3541 
Q 544 4100 942 4425 
Q 1341 4750 2034 4750 
Q 2731 4750 3128 4425 
Q 3525 4100 3525 3541 
Q 3525 3141 3298 2862 
Q 3072 2584 2669 2484 
Q 3125 2378 3379 2068 
Q 3634 1759 3634 1313 
Q 3634 634 3220 271 
Q 2806 -91 2034 -91 
Q 1263 -91 848 271 
Q 434 634 434 1313 
Q 434 1759 690 2068 
Q 947 2378 1403 2484 
z
M 1172 3481 
Q 1172 3119 1398 2916 
Q 1625 2713 2034 2713 
Q 2441 2713 2670 2916 
Q 2900 3119 2900 3481 
Q 2900 3844 2670 4047 
Q 2441 4250 2034 4250 
Q 1625 4250 1398 4047 
Q 1172 3844 1172 3481 
z
" transform="scale(0.015625)"/>
       </defs>
       <use xlink:href="#DejaVuSans-31"/>
       <use xlink:href="#DejaVuSans-32" transform="translate(63.623047 0)"/>
       <use xlink:href="#DejaVuSans-38" transform="translate(127.246094 0)"/>
      </g>
     </g>
    </g>
    <g id="xtick_3">
     <g id="line2d_3">
      <path d="M 182.20238 298.945245 
L 182.20238 35.490845 
" clip-path="url(#p4fa33f47ea)" style="fill: none; stroke: #cccccc; stroke-width: 0.8; stroke-linecap: round"/>
     </g>
     <g id="text_3">
      <!-- 64 -->
      <g style="fill: #262626" transform="translate(175.83988 313.543682) scale(0.1 -0.1)">
       <defs>
        <path id="DejaVuSans-34" d="M 2419 4116 
L 825 1625 
L 2419 1625 
L 2419 4116 
z
M 2253 4666 
L 3047 4666 
L 3047 1625 
L 3713 1625 
L 3713 1100 
L 3047 1100 
L 3047 0 
L 2419 0 
L 2419 1100 
L 313 1100 
L 313 1709 
L 2253 4666 
z
" transform="scale(0.015625)"/>
       </defs>
       <use xlink:href="#DejaVuSans-36"/>
       <use xlink:href="#DejaVuSans-34" transform="translate(63.623047 0)"/>
      </g>
     </g>
    </g>
    <g id="xtick_4">
     <g id="line2d_4">
      <path d="M 99.562899 298.945245 
L 99.562899 35.490845 
" clip-path="url(#p4fa33f47ea)" style="fill: none; stroke: #cccccc; stroke-width: 0.8; stroke-linecap: round"/>
     </g>
     <g id="text_4">
      <!-- 32 -->
      <g style="fill: #262626" transform="translate(93.200399 313.543682) scale(0.1 -0.1)">
       <defs>
        <path id="DejaVuSans-33" d="M 2597 2516 
Q 3050 2419 3304 2112 
Q 3559 1806 3559 1356 
Q 3559 666 3084 287 
Q 2609 -91 1734 -91 
Q 1441 -91 1130 -33 
Q 819 25 488 141 
L 488 750 
Q 750 597 1062 519 
Q 1375 441 1716 441 
Q 2309 441 2620 675 
Q 2931 909 2931 1356 
Q 2931 1769 2642 2001 
Q 2353 2234 1838 2234 
L 1294 2234 
L 1294 2753 
L 1863 2753 
Q 2328 2753 2575 2939 
Q 2822 3125 2822 3475 
Q 2822 3834 2567 4026 
Q 2313 4219 1838 4219 
Q 1578 4219 1281 4162 
Q 984 4106 628 3988 
L 628 4550 
Q 988 4650 1302 4700 
Q 1616 4750 1894 4750 
Q 2613 4750 3031 4423 
Q 3450 4097 3450 3541 
Q 3450 3153 3228 2886 
Q 3006 2619 2597 2516 
z
" transform="scale(0.015625)"/>
       </defs>
       <use xlink:href="#DejaVuSans-33"/>
       <use xlink:href="#DejaVuSans-32" transform="translate(63.623047 0)"/>
      </g>
     </g>
    </g>
    <g id="text_5">
     <!-- Number of Jobs -->
     <g style="fill: #262626" transform="translate(164.465375 327.221807) scale(0.1 -0.1)">
      <defs>
       <path id="DejaVuSans-4e" d="M 628 4666 
L 1478 4666 
L 3547 763 
L 3547 4666 
L 4159 4666 
L 4159 0 
L 3309 0 
L 1241 3903 
L 1241 0 
L 628 0 
L 628 4666 
z
" transform="scale(0.015625)"/>
       <path id="DejaVuSans-75" d="M 544 1381 
L 544 3500 
L 1119 3500 
L 1119 1403 
Q 1119 906 1312 657 
Q 1506 409 1894 409 
Q 2359 409 2629 706 
Q 2900 1003 2900 1516 
L 2900 3500 
L 3475 3500 
L 3475 0 
L 2900 0 
L 2900 538 
Q 2691 219 2414 64 
Q 2138 -91 1772 -91 
Q 1169 -91 856 284 
Q 544 659 544 1381 
z
M 1991 3584 
L 1991 3584 
z
" transform="scale(0.015625)"/>
       <path id="DejaVuSans-6d" d="M 3328 2828 
Q 3544 3216 3844 3400 
Q 4144 3584 4550 3584 
Q 5097 3584 5394 3201 
Q 5691 2819 5691 2113 
L 5691 0 
L 5113 0 
L 5113 2094 
Q 5113 2597 4934 2840 
Q 4756 3084 4391 3084 
Q 3944 3084 3684 2787 
Q 3425 2491 3425 1978 
L 3425 0 
L 2847 0 
L 2847 2094 
Q 2847 2600 2669 2842 
Q 2491 3084 2119 3084 
Q 1678 3084 1418 2786 
Q 1159 2488 1159 1978 
L 1159 0 
L 581 0 
L 581 3500 
L 1159 3500 
L 1159 2956 
Q 1356 3278 1631 3431 
Q 1906 3584 2284 3584 
Q 2666 3584 2933 3390 
Q 3200 3197 3328 2828 
z
" transform="scale(0.015625)"/>
       <path id="DejaVuSans-62" d="M 3116 1747 
Q 3116 2381 2855 2742 
Q 2594 3103 2138 3103 
Q 1681 3103 1420 2742 
Q 1159 2381 1159 1747 
Q 1159 1113 1420 752 
Q 1681 391 2138 391 
Q 2594 391 2855 752 
Q 3116 1113 3116 1747 
z
M 1159 2969 
Q 1341 3281 1617 3432 
Q 1894 3584 2278 3584 
Q 2916 3584 3314 3078 
Q 3713 2572 3713 1747 
Q 3713 922 3314 415 
Q 2916 -91 2278 -91 
Q 1894 -91 1617 61 
Q 1341 213 1159 525 
L 1159 0 
L 581 0 
L 581 4863 
L 1159 4863 
L 1159 2969 
z
" transform="scale(0.015625)"/>
       <path id="DejaVuSans-65" d="M 3597 1894 
L 3597 1613 
L 953 1613 
Q 991 1019 1311 708 
Q 1631 397 2203 397 
Q 2534 397 2845 478 
Q 3156 559 3463 722 
L 3463 178 
Q 3153 47 2828 -22 
Q 2503 -91 2169 -91 
Q 1331 -91 842 396 
Q 353 884 353 1716 
Q 353 2575 817 3079 
Q 1281 3584 2069 3584 
Q 2775 3584 3186 3129 
Q 3597 2675 3597 1894 
z
M 3022 2063 
Q 3016 2534 2758 2815 
Q 2500 3097 2075 3097 
Q 1594 3097 1305 2825 
Q 1016 2553 972 2059 
L 3022 2063 
z
" transform="scale(0.015625)"/>
       <path id="DejaVuSans-72" d="M 2631 2963 
Q 2534 3019 2420 3045 
Q 2306 3072 2169 3072 
Q 1681 3072 1420 2755 
Q 1159 2438 1159 1844 
L 1159 0 
L 581 0 
L 581 3500 
L 1159 3500 
L 1159 2956 
Q 1341 3275 1631 3429 
Q 1922 3584 2338 3584 
Q 2397 3584 2469 3576 
Q 2541 3569 2628 3553 
L 2631 2963 
z
" transform="scale(0.015625)"/>
       <path id="DejaVuSans-20" transform="scale(0.015625)"/>
       <path id="DejaVuSans-6f" d="M 1959 3097 
Q 1497 3097 1228 2736 
Q 959 2375 959 1747 
Q 959 1119 1226 758 
Q 1494 397 1959 397 
Q 2419 397 2687 759 
Q 2956 1122 2956 1747 
Q 2956 2369 2687 2733 
Q 2419 3097 1959 3097 
z
M 1959 3584 
Q 2709 3584 3137 3096 
Q 3566 2609 3566 1747 
Q 3566 888 3137 398 
Q 2709 -91 1959 -91 
Q 1206 -91 779 398 
Q 353 888 353 1747 
Q 353 2609 779 3096 
Q 1206 3584 1959 3584 
z
" transform="scale(0.015625)"/>
       <path id="DejaVuSans-66" d="M 2375 4863 
L 2375 4384 
L 1825 4384 
Q 1516 4384 1395 4259 
Q 1275 4134 1275 3809 
L 1275 3500 
L 2222 3500 
L 2222 3053 
L 1275 3053 
L 1275 0 
L 697 0 
L 697 3053 
L 147 3053 
L 147 3500 
L 697 3500 
L 697 3744 
Q 697 4328 969 4595 
Q 1241 4863 1831 4863 
L 2375 4863 
z
" transform="scale(0.015625)"/>
       <path id="DejaVuSans-4a" d="M 628 4666 
L 1259 4666 
L 1259 325 
Q 1259 -519 939 -900 
Q 619 -1281 -91 -1281 
L -331 -1281 
L -331 -750 
L -134 -750 
Q 284 -750 456 -515 
Q 628 -281 628 325 
L 628 4666 
z
" transform="scale(0.015625)"/>
       <path id="DejaVuSans-73" d="M 2834 3397 
L 2834 2853 
Q 2591 2978 2328 3040 
Q 2066 3103 1784 3103 
Q 1356 3103 1142 2972 
Q 928 2841 928 2578 
Q 928 2378 1081 2264 
Q 1234 2150 1697 2047 
L 1894 2003 
Q 2506 1872 2764 1633 
Q 3022 1394 3022 966 
Q 3022 478 2636 193 
Q 2250 -91 1575 -91 
Q 1294 -91 989 -36 
Q 684 19 347 128 
L 347 722 
Q 666 556 975 473 
Q 1284 391 1588 391 
Q 1994 391 2212 530 
Q 2431 669 2431 922 
Q 2431 1156 2273 1281 
Q 2116 1406 1581 1522 
L 1381 1569 
Q 847 1681 609 1914 
Q 372 2147 372 2553 
Q 372 3047 722 3315 
Q 1072 3584 1716 3584 
Q 2034 3584 2315 3537 
Q 2597 3491 2834 3397 
z
" transform="scale(0.015625)"/>
      </defs>
      <use xlink:href="#DejaVuSans-4e"/>
      <use xlink:href="#DejaVuSans-75" transform="translate(74.804688 0)"/>
      <use xlink:href="#DejaVuSans-6d" transform="translate(138.183594 0)"/>
      <use xlink:href="#DejaVuSans-62" transform="translate(235.595703 0)"/>
      <use xlink:href="#DejaVuSans-65" transform="translate(299.072266 0)"/>
      <use xlink:href="#DejaVuSans-72" transform="translate(360.595703 0)"/>
      <use xlink:href="#DejaVuSans-20" transform="translate(401.708984 0)"/>
      <use xlink:href="#DejaVuSans-6f" transform="translate(433.496094 0)"/>
      <use xlink:href="#DejaVuSans-66" transform="translate(494.677734 0)"/>
      <use xlink:href="#DejaVuSans-20" transform="translate(529.882812 0)"/>
      <use xlink:href="#DejaVuSans-4a" transform="translate(561.669922 0)"/>
      <use xlink:href="#DejaVuSans-6f" transform="translate(591.162109 0)"/>
      <use xlink:href="#DejaVuSans-62" transform="translate(652.34375 0)"/>
      <use xlink:href="#DejaVuSans-73" transform="translate(715.820312 0)"/>
     </g>
    </g>
   </g>
   <g id="matplotlib.axis_2">
    <g id="ytick_1">
     <g id="line2d_5">
      <path d="M 43.78125 255.933297 
L 361.94325 255.933297 
" clip-path="url(#p4fa33f47ea)" style="fill: none; stroke: #cccccc; stroke-width: 0.8; stroke-linecap: round"/>
     </g>
     <g id="text_6">
      <!-- 5.0 -->
      <g style="fill: #262626" transform="translate(20.878125 259.732516) scale(0.1 -0.1)">
       <defs>
        <path id="DejaVuSans-35" d="M 691 4666 
L 3169 4666 
L 3169 4134 
L 1269 4134 
L 1269 2991 
Q 1406 3038 1543 3061 
Q 1681 3084 1819 3084 
Q 2600 3084 3056 2656 
Q 3513 2228 3513 1497 
Q 3513 744 3044 326 
Q 2575 -91 1722 -91 
Q 1428 -91 1123 -41 
Q 819 9 494 109 
L 494 744 
Q 775 591 1075 516 
Q 1375 441 1709 441 
Q 2250 441 2565 725 
Q 2881 1009 2881 1497 
Q 2881 1984 2565 2268 
Q 2250 2553 1709 2553 
Q 1456 2553 1204 2497 
Q 953 2441 691 2322 
L 691 4666 
z
" transform="scale(0.015625)"/>
        <path id="DejaVuSans-2e" d="M 684 794 
L 1344 794 
L 1344 0 
L 684 0 
L 684 794 
z
" transform="scale(0.015625)"/>
        <path id="DejaVuSans-30" d="M 2034 4250 
Q 1547 4250 1301 3770 
Q 1056 3291 1056 2328 
Q 1056 1369 1301 889 
Q 1547 409 2034 409 
Q 2525 409 2770 889 
Q 3016 1369 3016 2328 
Q 3016 3291 2770 3770 
Q 2525 4250 2034 4250 
z
M 2034 4750 
Q 2819 4750 3233 4129 
Q 3647 3509 3647 2328 
Q 3647 1150 3233 529 
Q 2819 -91 2034 -91 
Q 1250 -91 836 529 
Q 422 1150 422 2328 
Q 422 3509 836 4129 
Q 1250 4750 2034 4750 
z
" transform="scale(0.015625)"/>
       </defs>
       <use xlink:href="#DejaVuSans-35"/>
       <use xlink:href="#DejaVuSans-2e" transform="translate(63.623047 0)"/>
       <use xlink:href="#DejaVuSans-30" transform="translate(95.410156 0)"/>
      </g>
     </g>
    </g>
    <g id="ytick_2">
     <g id="line2d_6">
      <path d="M 43.78125 202.13427 
L 361.94325 202.13427 
" clip-path="url(#p4fa33f47ea)" style="fill: none; stroke: #cccccc; stroke-width: 0.8; stroke-linecap: round"/>
     </g>
     <g id="text_7">
      <!-- 5.5 -->
      <g style="fill: #262626" transform="translate(20.878125 205.933489) scale(0.1 -0.1)">
       <use xlink:href="#DejaVuSans-35"/>
       <use xlink:href="#DejaVuSans-2e" transform="translate(63.623047 0)"/>
       <use xlink:href="#DejaVuSans-35" transform="translate(95.410156 0)"/>
      </g>
     </g>
    </g>
    <g id="ytick_3">
     <g id="line2d_7">
      <path d="M 43.78125 148.335244 
L 361.94325 148.335244 
" clip-path="url(#p4fa33f47ea)" style="fill: none; stroke: #cccccc; stroke-width: 0.8; stroke-linecap: round"/>
     </g>
     <g id="text_8">
      <!-- 6.0 -->
      <g style="fill: #262626" transform="translate(20.878125 152.134462) scale(0.1 -0.1)">
       <use xlink:href="#DejaVuSans-36"/>
       <use xlink:href="#DejaVuSans-2e" transform="translate(63.623047 0)"/>
       <use xlink:href="#DejaVuSans-30" transform="translate(95.410156 0)"/>
      </g>
     </g>
    </g>
    <g id="ytick_4">
     <g id="line2d_8">
      <path d="M 43.78125 94.536217 
L 361.94325 94.536217 
" clip-path="url(#p4fa33f47ea)" style="fill: none; stroke: #cccccc; stroke-width: 0.8; stroke-linecap: round"/>
     </g>
     <g id="text_9">
      <!-- 6.5 -->
      <g style="fill: #262626" transform="translate(20.878125 98.335435) scale(0.1 -0.1)">
       <use xlink:href="#DejaVuSans-36"/>
       <use xlink:href="#DejaVuSans-2e" transform="translate(63.623047 0)"/>
       <use xlink:href="#DejaVuSans-35" transform="translate(95.410156 0)"/>
      </g>
     </g>
    </g>
    <g id="ytick_5">
     <g id="line2d_9">
      <path d="M 43.78125 40.73719 
L 361.94325 40.73719 
" clip-path="url(#p4fa33f47ea)" style="fill: none; stroke: #cccccc; stroke-width: 0.8; stroke-linecap: round"/>
     </g>
     <g id="text_10">
      <!-- 7.0 -->
      <g style="fill: #262626" transform="translate(20.878125 44.536409) scale(0.1 -0.1)">
       <defs>
        <path id="DejaVuSans-37" d="M 525 4666 
L 3525 4666 
L 3525 4397 
L 1831 0 
L 1172 0 
L 2766 4134 
L 525 4134 
L 525 4666 
z
" transform="scale(0.015625)"/>
       </defs>
       <use xlink:href="#DejaVuSans-37"/>
       <use xlink:href="#DejaVuSans-2e" transform="translate(63.623047 0)"/>
       <use xlink:href="#DejaVuSans-30" transform="translate(95.410156 0)"/>
      </g>
     </g>
    </g>
    <g id="text_11">
     <!-- Mean Bandwidth (GiB/s) -->
     <g style="fill: #262626" transform="translate(14.798438 227.522732) rotate(-90) scale(0.1 -0.1)">
      <defs>
       <path id="DejaVuSans-4d" d="M 628 4666 
L 1569 4666 
L 2759 1491 
L 3956 4666 
L 4897 4666 
L 4897 0 
L 4281 0 
L 4281 4097 
L 3078 897 
L 2444 897 
L 1241 4097 
L 1241 0 
L 628 0 
L 628 4666 
z
" transform="scale(0.015625)"/>
       <path id="DejaVuSans-61" d="M 2194 1759 
Q 1497 1759 1228 1600 
Q 959 1441 959 1056 
Q 959 750 1161 570 
Q 1363 391 1709 391 
Q 2188 391 2477 730 
Q 2766 1069 2766 1631 
L 2766 1759 
L 2194 1759 
z
M 3341 1997 
L 3341 0 
L 2766 0 
L 2766 531 
Q 2569 213 2275 61 
Q 1981 -91 1556 -91 
Q 1019 -91 701 211 
Q 384 513 384 1019 
Q 384 1609 779 1909 
Q 1175 2209 1959 2209 
L 2766 2209 
L 2766 2266 
Q 2766 2663 2505 2880 
Q 2244 3097 1772 3097 
Q 1472 3097 1187 3025 
Q 903 2953 641 2809 
L 641 3341 
Q 956 3463 1253 3523 
Q 1550 3584 1831 3584 
Q 2591 3584 2966 3190 
Q 3341 2797 3341 1997 
z
" transform="scale(0.015625)"/>
       <path id="DejaVuSans-6e" d="M 3513 2113 
L 3513 0 
L 2938 0 
L 2938 2094 
Q 2938 2591 2744 2837 
Q 2550 3084 2163 3084 
Q 1697 3084 1428 2787 
Q 1159 2491 1159 1978 
L 1159 0 
L 581 0 
L 581 3500 
L 1159 3500 
L 1159 2956 
Q 1366 3272 1645 3428 
Q 1925 3584 2291 3584 
Q 2894 3584 3203 3211 
Q 3513 2838 3513 2113 
z
" transform="scale(0.015625)"/>
       <path id="DejaVuSans-42" d="M 1259 2228 
L 1259 519 
L 2272 519 
Q 2781 519 3026 730 
Q 3272 941 3272 1375 
Q 3272 1813 3026 2020 
Q 2781 2228 2272 2228 
L 1259 2228 
z
M 1259 4147 
L 1259 2741 
L 2194 2741 
Q 2656 2741 2882 2914 
Q 3109 3088 3109 3444 
Q 3109 3797 2882 3972 
Q 2656 4147 2194 4147 
L 1259 4147 
z
M 628 4666 
L 2241 4666 
Q 2963 4666 3353 4366 
Q 3744 4066 3744 3513 
Q 3744 3084 3544 2831 
Q 3344 2578 2956 2516 
Q 3422 2416 3680 2098 
Q 3938 1781 3938 1306 
Q 3938 681 3513 340 
Q 3088 0 2303 0 
L 628 0 
L 628 4666 
z
" transform="scale(0.015625)"/>
       <path id="DejaVuSans-64" d="M 2906 2969 
L 2906 4863 
L 3481 4863 
L 3481 0 
L 2906 0 
L 2906 525 
Q 2725 213 2448 61 
Q 2172 -91 1784 -91 
Q 1150 -91 751 415 
Q 353 922 353 1747 
Q 353 2572 751 3078 
Q 1150 3584 1784 3584 
Q 2172 3584 2448 3432 
Q 2725 3281 2906 2969 
z
M 947 1747 
Q 947 1113 1208 752 
Q 1469 391 1925 391 
Q 2381 391 2643 752 
Q 2906 1113 2906 1747 
Q 2906 2381 2643 2742 
Q 2381 3103 1925 3103 
Q 1469 3103 1208 2742 
Q 947 2381 947 1747 
z
" transform="scale(0.015625)"/>
       <path id="DejaVuSans-77" d="M 269 3500 
L 844 3500 
L 1563 769 
L 2278 3500 
L 2956 3500 
L 3675 769 
L 4391 3500 
L 4966 3500 
L 4050 0 
L 3372 0 
L 2619 2869 
L 1863 0 
L 1184 0 
L 269 3500 
z
" transform="scale(0.015625)"/>
       <path id="DejaVuSans-69" d="M 603 3500 
L 1178 3500 
L 1178 0 
L 603 0 
L 603 3500 
z
M 603 4863 
L 1178 4863 
L 1178 4134 
L 603 4134 
L 603 4863 
z
" transform="scale(0.015625)"/>
       <path id="DejaVuSans-74" d="M 1172 4494 
L 1172 3500 
L 2356 3500 
L 2356 3053 
L 1172 3053 
L 1172 1153 
Q 1172 725 1289 603 
Q 1406 481 1766 481 
L 2356 481 
L 2356 0 
L 1766 0 
Q 1100 0 847 248 
Q 594 497 594 1153 
L 594 3053 
L 172 3053 
L 172 3500 
L 594 3500 
L 594 4494 
L 1172 4494 
z
" transform="scale(0.015625)"/>
       <path id="DejaVuSans-68" d="M 3513 2113 
L 3513 0 
L 2938 0 
L 2938 2094 
Q 2938 2591 2744 2837 
Q 2550 3084 2163 3084 
Q 1697 3084 1428 2787 
Q 1159 2491 1159 1978 
L 1159 0 
L 581 0 
L 581 4863 
L 1159 4863 
L 1159 2956 
Q 1366 3272 1645 3428 
Q 1925 3584 2291 3584 
Q 2894 3584 3203 3211 
Q 3513 2838 3513 2113 
z
" transform="scale(0.015625)"/>
       <path id="DejaVuSans-28" d="M 1984 4856 
Q 1566 4138 1362 3434 
Q 1159 2731 1159 2009 
Q 1159 1288 1364 580 
Q 1569 -128 1984 -844 
L 1484 -844 
Q 1016 -109 783 600 
Q 550 1309 550 2009 
Q 550 2706 781 3412 
Q 1013 4119 1484 4856 
L 1984 4856 
z
" transform="scale(0.015625)"/>
       <path id="DejaVuSans-47" d="M 3809 666 
L 3809 1919 
L 2778 1919 
L 2778 2438 
L 4434 2438 
L 4434 434 
Q 4069 175 3628 42 
Q 3188 -91 2688 -91 
Q 1594 -91 976 548 
Q 359 1188 359 2328 
Q 359 3472 976 4111 
Q 1594 4750 2688 4750 
Q 3144 4750 3555 4637 
Q 3966 4525 4313 4306 
L 4313 3634 
Q 3963 3931 3569 4081 
Q 3175 4231 2741 4231 
Q 1884 4231 1454 3753 
Q 1025 3275 1025 2328 
Q 1025 1384 1454 906 
Q 1884 428 2741 428 
Q 3075 428 3337 486 
Q 3600 544 3809 666 
z
" transform="scale(0.015625)"/>
       <path id="DejaVuSans-2f" d="M 1625 4666 
L 2156 4666 
L 531 -594 
L 0 -594 
L 1625 4666 
z
" transform="scale(0.015625)"/>
       <path id="DejaVuSans-29" d="M 513 4856 
L 1013 4856 
Q 1481 4119 1714 3412 
Q 1947 2706 1947 2009 
Q 1947 1309 1714 600 
Q 1481 -109 1013 -844 
L 513 -844 
Q 928 -128 1133 580 
Q 1338 1288 1338 2009 
Q 1338 2731 1133 3434 
Q 928 4138 513 4856 
z
" transform="scale(0.015625)"/>
      </defs>
      <use xlink:href="#DejaVuSans-4d"/>
      <use xlink:href="#DejaVuSans-65" transform="translate(86.279297 0)"/>
      <use xlink:href="#DejaVuSans-61" transform="translate(147.802734 0)"/>
      <use xlink:href="#DejaVuSans-6e" transform="translate(209.082031 0)"/>
      <use xlink:href="#DejaVuSans-20" transform="translate(272.460938 0)"/>
      <use xlink:href="#DejaVuSans-42" transform="translate(304.248047 0)"/>
      <use xlink:href="#DejaVuSans-61" transform="translate(372.851562 0)"/>
      <use xlink:href="#DejaVuSans-6e" transform="translate(434.130859 0)"/>
      <use xlink:href="#DejaVuSans-64" transform="translate(497.509766 0)"/>
      <use xlink:href="#DejaVuSans-77" transform="translate(560.986328 0)"/>
      <use xlink:href="#DejaVuSans-69" transform="translate(642.773438 0)"/>
      <use xlink:href="#DejaVuSans-64" transform="translate(670.556641 0)"/>
      <use xlink:href="#DejaVuSans-74" transform="translate(734.033203 0)"/>
      <use xlink:href="#DejaVuSans-68" transform="translate(773.242188 0)"/>
      <use xlink:href="#DejaVuSans-20" transform="translate(836.621094 0)"/>
      <use xlink:href="#DejaVuSans-28" transform="translate(868.408203 0)"/>
      <use xlink:href="#DejaVuSans-47" transform="translate(907.421875 0)"/>
      <use xlink:href="#DejaVuSans-69" transform="translate(984.912109 0)"/>
      <use xlink:href="#DejaVuSans-42" transform="translate(1012.695312 0)"/>
      <use xlink:href="#DejaVuSans-2f" transform="translate(1081.298828 0)"/>
      <use xlink:href="#DejaVuSans-73" transform="translate(1114.990234 0)"/>
      <use xlink:href="#DejaVuSans-29" transform="translate(1167.089844 0)"/>
     </g>
    </g>
   </g>
   <g id="FillBetweenPolyCollection_1"/>
   <g id="FillBetweenPolyCollection_2"/>
   <g id="FillBetweenPolyCollection_3"/>
   <g id="FillBetweenPolyCollection_4"/>
   <g id="FillBetweenPolyCollection_5"/>
   <g id="FillBetweenPolyCollection_6"/>
   <g id="FillBetweenPolyCollection_7"/>
   <g id="line2d_10">
    <path d="M 58.243159 149.094468 
L 99.562899 63.029931 
L 182.20238 253.348688 
L 347.481341 286.970045 
" clip-path="url(#p4fa33f47ea)" style="fill: none; stroke: #4c02a1; stroke-width: 1.5; stroke-linecap: round"/>
   </g>
   <g id="line2d_11">
    <path d="M 58.243159 52.484639 
L 99.562899 96.951782 
L 182.20238 124.976896 
L 347.481341 125.487506 
" clip-path="url(#p4fa33f47ea)" style="fill: none; stroke: #7e03a8; stroke-width: 1.5; stroke-linecap: round"/>
   </g>
   <g id="line2d_12">
    <path d="M 58.243159 194.590915 
L 99.562899 171.116107 
L 182.20238 199.962399 
L 347.481341 277.793642 
" clip-path="url(#p4fa33f47ea)" style="fill: none; stroke: #aa2395; stroke-width: 1.5; stroke-linecap: round"/>
   </g>
   <g id="line2d_13">
    <path d="M 58.243159 152.990628 
L 99.562899 86.165402 
L 182.20238 127.174037 
L 347.481341 175.697013 
" clip-path="url(#p4fa33f47ea)" style="fill: none; stroke: #cc4778; stroke-width: 1.5; stroke-linecap: round"/>
   </g>
   <g id="line2d_14">
    <path d="M 58.243159 144.043169 
L 99.562899 137.176597 
L 182.20238 93.63875 
L 347.481341 99.866848 
" clip-path="url(#p4fa33f47ea)" style="fill: none; stroke: #e66c5c; stroke-width: 1.5; stroke-linecap: round"/>
   </g>
   <g id="line2d_15">
    <path d="M 58.243159 170.720678 
L 99.562899 178.131075 
L 182.20238 70.539222 
L 347.481341 47.466045 
" clip-path="url(#p4fa33f47ea)" style="fill: none; stroke: #f89540; stroke-width: 1.5; stroke-linecap: round"/>
   </g>
   <g id="line2d_16">
    <path d="M 58.243159 167.966898 
L 99.562899 177.408328 
L 182.20238 108.418701 
L 347.481341 140.53553 
" clip-path="url(#p4fa33f47ea)" style="fill: none; stroke: #fdc527; stroke-width: 1.5; stroke-linecap: round"/>
   </g>
   <g id="line2d_17"/>
   <g id="line2d_18"/>
   <g id="line2d_19"/>
   <g id="line2d_20"/>
   <g id="line2d_21"/>
   <g id="line2d_22"/>
   <g id="line2d_23"/>
   <g id="text_12">
    <path d="M 96.38225 74.113432 
L 97.079473 72.661193 
L 92.06495 70.253711 
L 91.623117 71.986289 
L 90.813187 71.597441 
L 91.250963 69.873314 
L 91.677682 68.984504 
L 97.502135 71.780834 
L 98.199358 70.328595 
L 98.94731 70.687688 
L 97.130203 74.472526 
L 96.38225 74.113432 
z
" clip-path="url(#p4fa33f47ea)" style="fill: #4c02a1; stroke: #ffffff; stroke-width: 5"/>
    <path d="M 96.38225 74.113432 
L 97.079473 72.661193 
L 92.06495 70.253711 
L 91.623117 71.986289 
L 90.813187 71.597441 
L 91.250963 69.873314 
L 91.677682 68.984504 
L 97.502135 71.780834 
L 98.199358 70.328595 
L 98.94731 70.687688 
L 97.130203 74.472526 
L 96.38225 74.113432 
z
" clip-path="url(#p4fa33f47ea)" style="fill: #4c02a1"/>
   </g>
   <g id="text_13">
    <path d="M 133.021794 104.421257 
L 129.413096 107.307367 
L 131.77178 108.107255 
L 133.021794 104.421257 
z
M 133.052156 103.524106 
L 134.227059 103.922545 
L 132.701048 108.422393 
L 133.686546 108.7566 
L 133.423094 109.533457 
L 132.437597 109.19925 
L 131.885603 110.826949 
L 130.956335 110.511811 
L 131.508328 108.884112 
L 128.392024 107.827295 
L 128.697628 106.926142 
L 133.052156 103.524106 
z
" clip-path="url(#p4fa33f47ea)" style="fill: #7e03a8; stroke: #ffffff; stroke-width: 5"/>
    <path d="M 133.021794 104.421257 
L 129.413096 107.307367 
L 131.77178 108.107255 
L 133.021794 104.421257 
z
M 133.052156 103.524106 
L 134.227059 103.922545 
L 132.701048 108.422393 
L 133.686546 108.7566 
L 133.423094 109.533457 
L 132.437597 109.19925 
L 131.885603 110.826949 
L 130.956335 110.511811 
L 131.508328 108.884112 
L 128.392024 107.827295 
L 128.697628 106.926142 
L 133.052156 103.524106 
z
" clip-path="url(#p4fa33f47ea)" style="fill: #7e03a8"/>
   </g>
   <g id="text_14">
    <path d="M 167.297797 194.015048 
Q 166.633953 193.783325 166.129248 194.005996 
Q 165.626019 194.229182 165.40923 194.850245 
Q 165.191925 195.472784 165.446954 195.960649 
Q 165.703457 196.449029 166.367302 196.680751 
Q 167.031146 196.912474 167.537841 196.688843 
Q 168.046526 196.464251 168.262285 195.846138 
Q 168.479075 195.225075 168.222571 194.736695 
Q 167.967543 194.24883 167.297797 194.015048 
z
M 166.504944 193.294765 
Q 165.957503 192.938178 165.765783 192.411179 
Q 165.576054 191.883219 165.78203 191.293135 
Q 166.069881 190.468493 166.82437 190.193995 
Q 167.580334 189.920013 168.602654 190.276866 
Q 169.630875 190.635779 170.049178 191.319653 
Q 170.467481 192.003527 170.17963 192.828169 
Q 169.973654 193.418253 169.495113 193.712946 
Q 169.018563 194.006678 168.372559 193.946678 
Q 168.990671 194.337863 169.205743 194.925972 
Q 169.422805 195.513121 169.193142 196.171065 
Q 168.843499 197.172732 168.045839 197.495049 
Q 167.248694 197.81589 166.109832 197.418356 
Q 164.972445 197.021338 164.546641 196.273612 
Q 164.122828 195.524926 164.472472 194.523259 
Q 164.702135 193.865315 165.238904 193.5413 
Q 165.777665 193.216324 166.504944 193.294765 
z
M 166.677565 191.705029 
Q 166.491157 192.239055 166.720022 192.654899 
Q 166.950361 193.071258 167.553722 193.281868 
Q 168.154133 193.491449 168.596488 193.309902 
Q 169.040319 193.128871 169.226727 192.594845 
Q 169.41365 192.059344 169.178885 191.64144 
Q 168.945595 191.224051 168.345184 191.014471 
Q 167.741823 190.803861 167.302418 190.986437 
Q 166.864488 191.169528 166.677565 191.705029 
z
" clip-path="url(#p4fa33f47ea)" style="fill: #aa2395; stroke: #ffffff; stroke-width: 5"/>
    <path d="M 167.297797 194.015048 
Q 166.633953 193.783325 166.129248 194.005996 
Q 165.626019 194.229182 165.40923 194.850245 
Q 165.191925 195.472784 165.446954 195.960649 
Q 165.703457 196.449029 166.367302 196.680751 
Q 167.031146 196.912474 167.537841 196.688843 
Q 168.046526 196.464251 168.262285 195.846138 
Q 168.479075 195.225075 168.222571 194.736695 
Q 167.967543 194.24883 167.297797 194.015048 
z
M 166.504944 193.294765 
Q 165.957503 192.938178 165.765783 192.411179 
Q 165.576054 191.883219 165.78203 191.293135 
Q 166.069881 190.468493 166.82437 190.193995 
Q 167.580334 189.920013 168.602654 190.276866 
Q 169.630875 190.635779 170.049178 191.319653 
Q 170.467481 192.003527 170.17963 192.828169 
Q 169.973654 193.418253 169.495113 193.712946 
Q 169.018563 194.006678 168.372559 193.946678 
Q 168.990671 194.337863 169.205743 194.925972 
Q 169.422805 195.513121 169.193142 196.171065 
Q 168.843499 197.172732 168.045839 197.495049 
Q 167.248694 197.81589 166.109832 197.418356 
Q 164.972445 197.021338 164.546641 196.273612 
Q 164.122828 195.524926 164.472472 194.523259 
Q 164.702135 193.865315 165.238904 193.5413 
Q 165.777665 193.216324 166.504944 193.294765 
z
M 166.677565 191.705029 
Q 166.491157 192.239055 166.720022 192.654899 
Q 166.950361 193.071258 167.553722 193.281868 
Q 168.154133 193.491449 168.596488 193.309902 
Q 169.040319 193.128871 169.226727 192.594845 
Q 169.41365 192.059344 169.178885 191.64144 
Q 168.945595 191.224051 168.345184 191.014471 
Q 167.741823 190.803861 167.302418 190.986437 
Q 166.864488 191.169528 166.677565 191.705029 
z
" clip-path="url(#p4fa33f47ea)" style="fill: #aa2395"/>
   </g>
   <g id="text_15">
    <path d="M 197.404208 133.648154 
L 198.949909 134.101945 
L 200.51683 128.764701 
L 198.735665 128.608183 
L 198.988749 127.746128 
L 200.760918 127.900006 
L 201.70693 128.177738 
L 199.886925 134.377036 
L 201.432627 134.830827 
L 201.19891 135.626916 
L 197.17049 134.444243 
L 197.404208 133.648154 
z
M 206.389966 132.943016 
Q 205.752795 132.755954 205.251405 133.082633 
Q 204.751955 133.408252 204.529241 134.16686 
Q 204.307848 134.920971 204.550693 135.4694 
Q 204.795477 136.01677 205.432648 136.203832 
Q 206.069819 136.390894 206.57015 136.062277 
Q 207.070921 135.73216 207.292314 134.978049 
Q 207.515028 134.219441 207.270862 133.675509 
Q 207.027137 133.130079 206.389966 132.943016 
z
M 209.139545 130.527552 
L 208.886461 131.389607 
Q 208.578942 131.116939 208.242098 130.921969 
Q 207.905694 130.7255 207.548878 130.620745 
Q 206.611862 130.345654 205.931376 130.833079 
Q 205.252389 131.320944 204.806481 132.579097 
Q 205.202058 132.252294 205.682664 132.157267 
Q 206.164769 132.06268 206.66551 132.209689 
Q 207.719466 132.519112 208.143208 133.338861 
Q 208.56739 134.15711 208.244322 135.257542 
Q 207.927857 136.335485 207.099223 136.800586 
Q 206.271028 137.264188 205.212575 136.953445 
Q 203.998202 136.596927 203.629424 135.479024 
Q 203.261086 134.359623 203.779579 132.593535 
Q 204.26638 130.935391 205.34309 130.179977 
Q 206.419799 129.424564 207.745115 129.813653 
Q 208.101931 129.918408 208.444056 130.095386 
Q 208.786182 130.272365 209.139545 130.527552 
z
" clip-path="url(#p4fa33f47ea)" style="fill: #cc4778; stroke: #ffffff; stroke-width: 5"/>
    <path d="M 197.404208 133.648154 
L 198.949909 134.101945 
L 200.51683 128.764701 
L 198.735665 128.608183 
L 198.988749 127.746128 
L 200.760918 127.900006 
L 201.70693 128.177738 
L 199.886925 134.377036 
L 201.432627 134.830827 
L 201.19891 135.626916 
L 197.17049 134.444243 
L 197.404208 133.648154 
z
M 206.389966 132.943016 
Q 205.752795 132.755954 205.251405 133.082633 
Q 204.751955 133.408252 204.529241 134.16686 
Q 204.307848 134.920971 204.550693 135.4694 
Q 204.795477 136.01677 205.432648 136.203832 
Q 206.069819 136.390894 206.57015 136.062277 
Q 207.070921 135.73216 207.292314 134.978049 
Q 207.515028 134.219441 207.270862 133.675509 
Q 207.027137 133.130079 206.389966 132.943016 
z
M 209.139545 130.527552 
L 208.886461 131.389607 
Q 208.578942 131.116939 208.242098 130.921969 
Q 207.905694 130.7255 207.548878 130.620745 
Q 206.611862 130.345654 205.931376 130.833079 
Q 205.252389 131.320944 204.806481 132.579097 
Q 205.202058 132.252294 205.682664 132.157267 
Q 206.164769 132.06268 206.66551 132.209689 
Q 207.719466 132.519112 208.143208 133.338861 
Q 208.56739 134.15711 208.244322 135.257542 
Q 207.927857 136.335485 207.099223 136.800586 
Q 206.271028 137.264188 205.212575 136.953445 
Q 203.998202 136.596927 203.629424 135.479024 
Q 203.261086 134.359623 203.779579 132.593535 
Q 204.26638 130.935391 205.34309 130.179977 
Q 206.419799 129.424564 207.745115 129.813653 
Q 208.101931 129.918408 208.444056 130.095386 
Q 208.786182 130.272365 209.139545 130.527552 
z
" clip-path="url(#p4fa33f47ea)" style="fill: #cc4778"/>
   </g>
   <g id="text_16">
    <path d="M 236.39655 94.508206 
Q 237.098153 94.686314 237.476684 95.180606 
Q 237.856834 95.673395 237.830358 96.376022 
Q 237.78976 97.453382 237.0258 98.017202 
Q 236.261899 98.579461 234.895681 98.527978 
Q 234.438193 98.510739 233.956013 98.40188 
Q 233.473832 98.293021 232.963837 98.092425 
L 232.999668 97.141537 
Q 233.399751 97.395845 233.882316 97.535991 
Q 234.366442 97.676196 234.898877 97.696259 
Q 235.824782 97.731149 236.324143 97.384082 
Q 236.823504 97.037014 236.849804 96.339072 
Q 236.874103 95.694217 236.436511 95.314971 
Q 235.998978 94.934162 235.194861 94.903861 
L 234.345464 94.871854 
L 234.376001 94.061492 
L 235.264432 94.09497 
Q 235.99048 94.122329 236.387087 93.846443 
Q 236.783695 93.570557 236.804287 93.02407 
Q 236.82541 92.46353 236.438552 92.148739 
Q 236.053314 91.832446 235.311653 91.804499 
Q 234.905691 91.789201 234.438604 91.860726 
Q 233.971575 91.930689 233.408777 92.093988 
L 233.441843 91.216485 
Q 234.009828 91.081527 234.503047 91.021933 
Q 234.996266 90.962338 235.430333 90.978694 
Q 236.552974 91.020998 237.186396 91.556167 
Q 237.821438 92.089834 237.788725 92.957967 
Q 237.765896 93.563787 237.403558 93.967617 
Q 237.041219 94.371447 236.39655 94.508206 
z
M 240.500005 97.766598 
L 243.939752 97.896215 
L 243.908509 98.725315 
L 239.283667 98.55104 
L 239.314909 97.721941 
Q 239.897336 97.162225 240.902231 96.221273 
Q 241.908746 95.278818 242.167716 95.004 
Q 242.660822 94.490954 242.862074 94.129526 
Q 243.064888 93.768157 243.078303 93.412159 
Q 243.10019 92.831322 242.706435 92.450599 
Q 242.312738 92.068316 241.658515 92.043663 
Q 241.194782 92.026189 240.673462 92.167596 
Q 240.153704 92.309062 239.555827 92.61489 
L 239.593364 91.618722 
Q 240.197257 91.402246 240.718667 91.299933 
Q 241.241638 91.197678 241.671021 91.213858 
Q 242.80303 91.256515 243.454632 91.848659 
Q 244.106293 92.439241 244.070638 93.385445 
Q 244.053693 93.835126 243.869883 94.23161 
Q 243.687693 94.626593 243.222103 95.156311 
Q 243.09496 95.293809 242.415261 95.945239 
Q 241.737123 96.596727 240.500005 97.766598 
z
" clip-path="url(#p4fa33f47ea)" style="fill: #e66c5c; stroke: #ffffff; stroke-width: 5"/>
    <path d="M 236.39655 94.508206 
Q 237.098153 94.686314 237.476684 95.180606 
Q 237.856834 95.673395 237.830358 96.376022 
Q 237.78976 97.453382 237.0258 98.017202 
Q 236.261899 98.579461 234.895681 98.527978 
Q 234.438193 98.510739 233.956013 98.40188 
Q 233.473832 98.293021 232.963837 98.092425 
L 232.999668 97.141537 
Q 233.399751 97.395845 233.882316 97.535991 
Q 234.366442 97.676196 234.898877 97.696259 
Q 235.824782 97.731149 236.324143 97.384082 
Q 236.823504 97.037014 236.849804 96.339072 
Q 236.874103 95.694217 236.436511 95.314971 
Q 235.998978 94.934162 235.194861 94.903861 
L 234.345464 94.871854 
L 234.376001 94.061492 
L 235.264432 94.09497 
Q 235.99048 94.122329 236.387087 93.846443 
Q 236.783695 93.570557 236.804287 93.02407 
Q 236.82541 92.46353 236.438552 92.148739 
Q 236.053314 91.832446 235.311653 91.804499 
Q 234.905691 91.789201 234.438604 91.860726 
Q 233.971575 91.930689 233.408777 92.093988 
L 233.441843 91.216485 
Q 234.009828 91.081527 234.503047 91.021933 
Q 234.996266 90.962338 235.430333 90.978694 
Q 236.552974 91.020998 237.186396 91.556167 
Q 237.821438 92.089834 237.788725 92.957967 
Q 237.765896 93.563787 237.403558 93.967617 
Q 237.041219 94.371447 236.39655 94.508206 
z
M 240.500005 97.766598 
L 243.939752 97.896215 
L 243.908509 98.725315 
L 239.283667 98.55104 
L 239.314909 97.721941 
Q 239.897336 97.162225 240.902231 96.221273 
Q 241.908746 95.278818 242.167716 95.004 
Q 242.660822 94.490954 242.862074 94.129526 
Q 243.064888 93.768157 243.078303 93.412159 
Q 243.10019 92.831322 242.706435 92.450599 
Q 242.312738 92.068316 241.658515 92.043663 
Q 241.194782 92.026189 240.673462 92.167596 
Q 240.153704 92.309062 239.555827 92.61489 
L 239.593364 91.618722 
Q 240.197257 91.402246 240.718667 91.299933 
Q 241.241638 91.197678 241.671021 91.213858 
Q 242.80303 91.256515 243.454632 91.848659 
Q 244.106293 92.439241 244.070638 93.385445 
Q 244.053693 93.835126 243.869883 94.23161 
Q 243.687693 94.626593 243.222103 95.156311 
Q 243.09496 95.293809 242.415261 95.945239 
Q 241.737123 96.596727 240.500005 97.766598 
z
" clip-path="url(#p4fa33f47ea)" style="fill: #e66c5c"/>
   </g>
   <g id="text_17">
    <path d="M 271.240446 56.818863 
Q 270.582761 56.910676 270.2603 57.414789 
Q 269.939171 57.917138 270.048484 58.70017 
Q 270.157148 59.478559 270.604224 59.878399 
Q 271.052631 60.276475 271.710316 60.184661 
Q 272.368001 60.092847 272.688698 59.587403 
Q 273.009179 59.080412 272.900514 58.302022 
Q 272.791202 57.518991 272.344774 57.123793 
Q 271.89813 56.727049 271.240446 56.818863 
z
M 272.751927 53.485684 
L 272.876146 54.375493 
Q 272.483647 54.25359 272.096407 54.214567 
Q 271.708952 54.173997 271.340649 54.225413 
Q 270.373465 54.360433 269.953958 55.084766 
Q 269.535998 55.808883 269.647541 57.139049 
Q 269.873519 56.67838 270.272398 56.393937 
Q 270.672824 56.109277 271.189687 56.037123 
Q 272.277575 55.885252 273.001198 56.45789 
Q 273.724605 57.028982 273.883173 58.164842 
Q 274.0385 59.27749 273.474789 60.042463 
Q 272.910863 60.805889 271.818332 60.958408 
Q 270.564862 61.133394 269.768595 60.26641 
Q 268.972112 59.397878 268.717626 57.574931 
Q 268.478694 55.863403 269.148979 54.731735 
Q 269.819264 53.600067 271.187248 53.409095 
Q 271.555552 53.357679 271.940198 53.378132 
Q 272.324845 53.398584 272.751927 53.485684 
z
M 277.684218 53.50234 
L 275.755649 57.701502 
L 278.222354 57.357146 
L 277.684218 53.50234 
z
M 277.308516 52.68708 
L 278.537226 52.51555 
L 279.19418 57.221478 
L 280.224811 57.077601 
L 280.338228 57.890035 
L 279.307597 58.033912 
L 279.545232 59.736155 
L 278.573406 59.871824 
L 278.335771 58.169581 
L 275.07675 58.624545 
L 274.945186 57.682121 
L 277.308516 52.68708 
z
" clip-path="url(#p4fa33f47ea)" style="fill: #f89540; stroke: #ffffff; stroke-width: 5"/>
    <path d="M 271.240446 56.818863 
Q 270.582761 56.910676 270.2603 57.414789 
Q 269.939171 57.917138 270.048484 58.70017 
Q 270.157148 59.478559 270.604224 59.878399 
Q 271.052631 60.276475 271.710316 60.184661 
Q 272.368001 60.092847 272.688698 59.587403 
Q 273.009179 59.080412 272.900514 58.302022 
Q 272.791202 57.518991 272.344774 57.123793 
Q 271.89813 56.727049 271.240446 56.818863 
z
M 272.751927 53.485684 
L 272.876146 54.375493 
Q 272.483647 54.25359 272.096407 54.214567 
Q 271.708952 54.173997 271.340649 54.225413 
Q 270.373465 54.360433 269.953958 55.084766 
Q 269.535998 55.808883 269.647541 57.139049 
Q 269.873519 56.67838 270.272398 56.393937 
Q 270.672824 56.109277 271.189687 56.037123 
Q 272.277575 55.885252 273.001198 56.45789 
Q 273.724605 57.028982 273.883173 58.164842 
Q 274.0385 59.27749 273.474789 60.042463 
Q 272.910863 60.805889 271.818332 60.958408 
Q 270.564862 61.133394 269.768595 60.26641 
Q 268.972112 59.397878 268.717626 57.574931 
Q 268.478694 55.863403 269.148979 54.731735 
Q 269.819264 53.600067 271.187248 53.409095 
Q 271.555552 53.357679 271.940198 53.378132 
Q 272.324845 53.398584 272.751927 53.485684 
z
M 277.684218 53.50234 
L 275.755649 57.701502 
L 278.222354 57.357146 
L 277.684218 53.50234 
z
M 277.308516 52.68708 
L 278.537226 52.51555 
L 279.19418 57.221478 
L 280.224811 57.077601 
L 280.338228 57.890035 
L 279.307597 58.033912 
L 279.545232 59.736155 
L 278.573406 59.871824 
L 278.335771 58.169581 
L 275.07675 58.624545 
L 274.945186 57.682121 
L 277.308516 52.68708 
z
" clip-path="url(#p4fa33f47ea)" style="fill: #f89540"/>
   </g>
   <g id="text_18">
    <path d="M 301.723168 133.609634 
L 303.304527 133.916921 
L 304.365579 128.456557 
L 302.577583 128.467254 
L 302.748961 127.585314 
L 304.527754 127.572828 
L 305.495588 127.760897 
L 304.263158 134.103202 
L 305.844516 134.410489 
L 305.686253 135.224943 
L 301.564905 134.424087 
L 301.723168 133.609634 
z
M 308.634325 134.952602 
L 312.013309 135.609202 
L 311.855045 136.423656 
L 307.3119 135.540836 
L 307.470163 134.726383 
Q 308.131675 134.262805 309.269215 133.48743 
Q 310.408588 132.710819 310.706708 132.479055 
Q 311.272789 132.047869 311.527186 131.721655 
Q 311.783116 131.39574 311.851071 131.046031 
Q 311.961945 130.475454 311.631364 130.038752 
Q 311.301081 129.600516 310.658415 129.475633 
Q 310.202873 129.387113 309.666017 129.44674 
Q 309.130694 129.506664 308.492925 129.716996 
L 308.68308 128.738425 
Q 309.313063 128.617309 309.844002 128.596326 
Q 310.376475 128.57564 310.798273 128.657604 
Q 311.910285 128.873689 312.463166 129.558921 
Q 313.016344 130.242619 312.835727 131.172108 
Q 312.749889 131.613845 312.507341 131.977379 
Q 312.266625 132.339677 311.725172 132.791567 
Q 311.578413 132.907895 310.806691 133.447153 
Q 310.036504 133.986709 308.634325 134.952602 
z
M 316.61827 133.821974 
Q 315.928056 133.687853 315.460503 133.980604 
Q 314.994484 134.273654 314.869006 134.919388 
Q 314.74323 135.566656 315.065589 136.012903 
Q 315.389483 136.459448 316.079697 136.593569 
Q 316.769912 136.727691 317.239296 136.433703 
Q 317.710513 136.13848 317.835395 135.495814 
Q 317.960873 134.85008 317.63698 134.403535 
Q 317.31462 133.957288 316.61827 133.821974 
z
M 315.730313 133.222845 
Q 315.137391 132.948456 314.872074 132.4544 
Q 314.608588 131.959108 314.727807 131.345584 
Q 314.894416 130.488184 315.601739 130.108319 
Q 316.310594 129.728752 317.373525 129.9353 
Q 318.442591 130.143039 318.954647 130.759853 
Q 319.466704 131.376666 319.300095 132.234066 
Q 319.180876 132.84759 318.749546 133.207866 
Q 318.320047 133.566906 317.672117 133.600174 
Q 318.339941 133.898668 318.637134 134.449853 
Q 318.936159 134.999803 318.803229 135.683882 
Q 318.600854 136.725339 317.857665 137.15872 
Q 317.114774 137.590568 315.930673 137.360474 
Q 314.748105 137.130679 314.219468 136.45175 
Q 313.692662 135.771585 313.895037 134.730128 
Q 314.027966 134.046048 314.512718 133.648401 
Q 314.999303 133.249519 315.730313 133.222845 
z
M 315.673157 131.624787 
Q 315.565264 132.180026 315.851401 132.558749 
Q 316.139072 132.937769 316.7664 133.059671 
Q 317.390661 133.180976 317.802407 132.937866 
Q 318.215688 132.695054 318.323581 132.139814 
Q 318.431773 131.583041 318.1395 131.203127 
Q 317.848761 130.82351 317.224501 130.702205 
Q 316.597172 130.580303 316.188494 130.824009 
Q 315.781349 131.068014 315.673157 131.624787 
z
" clip-path="url(#p4fa33f47ea)" style="fill: #fdc527; stroke: #ffffff; stroke-width: 5"/>
    <path d="M 301.723168 133.609634 
L 303.304527 133.916921 
L 304.365579 128.456557 
L 302.577583 128.467254 
L 302.748961 127.585314 
L 304.527754 127.572828 
L 305.495588 127.760897 
L 304.263158 134.103202 
L 305.844516 134.410489 
L 305.686253 135.224943 
L 301.564905 134.424087 
L 301.723168 133.609634 
z
M 308.634325 134.952602 
L 312.013309 135.609202 
L 311.855045 136.423656 
L 307.3119 135.540836 
L 307.470163 134.726383 
Q 308.131675 134.262805 309.269215 133.48743 
Q 310.408588 132.710819 310.706708 132.479055 
Q 311.272789 132.047869 311.527186 131.721655 
Q 311.783116 131.39574 311.851071 131.046031 
Q 311.961945 130.475454 311.631364 130.038752 
Q 311.301081 129.600516 310.658415 129.475633 
Q 310.202873 129.387113 309.666017 129.44674 
Q 309.130694 129.506664 308.492925 129.716996 
L 308.68308 128.738425 
Q 309.313063 128.617309 309.844002 128.596326 
Q 310.376475 128.57564 310.798273 128.657604 
Q 311.910285 128.873689 312.463166 129.558921 
Q 313.016344 130.242619 312.835727 131.172108 
Q 312.749889 131.613845 312.507341 131.977379 
Q 312.266625 132.339677 311.725172 132.791567 
Q 311.578413 132.907895 310.806691 133.447153 
Q 310.036504 133.986709 308.634325 134.952602 
z
M 316.61827 133.821974 
Q 315.928056 133.687853 315.460503 133.980604 
Q 314.994484 134.273654 314.869006 134.919388 
Q 314.74323 135.566656 315.065589 136.012903 
Q 315.389483 136.459448 316.079697 136.593569 
Q 316.769912 136.727691 317.239296 136.433703 
Q 317.710513 136.13848 317.835395 135.495814 
Q 317.960873 134.85008 317.63698 134.403535 
Q 317.31462 133.957288 316.61827 133.821974 
z
M 315.730313 133.222845 
Q 315.137391 132.948456 314.872074 132.4544 
Q 314.608588 131.959108 314.727807 131.345584 
Q 314.894416 130.488184 315.601739 130.108319 
Q 316.310594 129.728752 317.373525 129.9353 
Q 318.442591 130.143039 318.954647 130.759853 
Q 319.466704 131.376666 319.300095 132.234066 
Q 319.180876 132.84759 318.749546 133.207866 
Q 318.320047 133.566906 317.672117 133.600174 
Q 318.339941 133.898668 318.637134 134.449853 
Q 318.936159 134.999803 318.803229 135.683882 
Q 318.600854 136.725339 317.857665 137.15872 
Q 317.114774 137.590568 315.930673 137.360474 
Q 314.748105 137.130679 314.219468 136.45175 
Q 313.692662 135.771585 313.895037 134.730128 
Q 314.027966 134.046048 314.512718 133.648401 
Q 314.999303 133.249519 315.730313 133.222845 
z
M 315.673157 131.624787 
Q 315.565264 132.180026 315.851401 132.558749 
Q 316.139072 132.937769 316.7664 133.059671 
Q 317.390661 133.180976 317.802407 132.937866 
Q 318.215688 132.695054 318.323581 132.139814 
Q 318.431773 131.583041 318.1395 131.203127 
Q 317.848761 130.82351 317.224501 130.702205 
Q 316.597172 130.580303 316.188494 130.824009 
Q 315.781349 131.068014 315.673157 131.624787 
z
" clip-path="url(#p4fa33f47ea)" style="fill: #fdc527"/>
   </g>
   <g id="patch_3">
    <path d="M 43.78125 298.945245 
L 43.78125 35.490845 
" style="fill: none; stroke: #cccccc; stroke-width: 0.8; stroke-linejoin: miter; stroke-linecap: square"/>
   </g>
   <g id="patch_4">
    <path d="M 361.94325 298.945245 
L 361.94325 35.490845 
" style="fill: none; stroke: #cccccc; stroke-width: 0.8; stroke-linejoin: miter; stroke-linecap: square"/>
   </g>
   <g id="patch_5">
    <path d="M 43.78125 298.945245 
L 361.94325 298.945245 
" style="fill: none; stroke: #cccccc; stroke-width: 0.8; stroke-linejoin: miter; stroke-linecap: square"/>
   </g>
   <g id="patch_6">
    <path d="M 43.78125 35.490845 
L 361.94325 35.490845 
" style="fill: none; stroke: #cccccc; stroke-width: 0.8; stroke-linejoin: miter; stroke-linecap: square"/>
   </g>
   <g id="text_19">
    <!-- Block Size = 1M, Read-Write Type = Random Write-heavy 1:4 -->
    <g style="fill: #262626; opacity: 0.75" transform="translate(49.481 30.776614) scale(0.1 -0.1)">
     <defs>
      <path id="DejaVuSans-6c" d="M 603 4863 
L 1178 4863 
L 1178 0 
L 603 0 
L 603 4863 
z
" transform="scale(0.015625)"/>
      <path id="DejaVuSans-63" d="M 3122 3366 
L 3122 2828 
Q 2878 2963 2633 3030 
Q 2388 3097 2138 3097 
Q 1578 3097 1268 2742 
Q 959 2388 959 1747 
Q 959 1106 1268 751 
Q 1578 397 2138 397 
Q 2388 397 2633 464 
Q 2878 531 3122 666 
L 3122 134 
Q 2881 22 2623 -34 
Q 2366 -91 2075 -91 
Q 1284 -91 818 406 
Q 353 903 353 1747 
Q 353 2603 823 3093 
Q 1294 3584 2113 3584 
Q 2378 3584 2631 3529 
Q 2884 3475 3122 3366 
z
" transform="scale(0.015625)"/>
      <path id="DejaVuSans-6b" d="M 581 4863 
L 1159 4863 
L 1159 1991 
L 2875 3500 
L 3609 3500 
L 1753 1863 
L 3688 0 
L 2938 0 
L 1159 1709 
L 1159 0 
L 581 0 
L 581 4863 
z
" transform="scale(0.015625)"/>
      <path id="DejaVuSans-53" d="M 3425 4513 
L 3425 3897 
Q 3066 4069 2747 4153 
Q 2428 4238 2131 4238 
Q 1616 4238 1336 4038 
Q 1056 3838 1056 3469 
Q 1056 3159 1242 3001 
Q 1428 2844 1947 2747 
L 2328 2669 
Q 3034 2534 3370 2195 
Q 3706 1856 3706 1288 
Q 3706 609 3251 259 
Q 2797 -91 1919 -91 
Q 1588 -91 1214 -16 
Q 841 59 441 206 
L 441 856 
Q 825 641 1194 531 
Q 1563 422 1919 422 
Q 2459 422 2753 634 
Q 3047 847 3047 1241 
Q 3047 1584 2836 1778 
Q 2625 1972 2144 2069 
L 1759 2144 
Q 1053 2284 737 2584 
Q 422 2884 422 3419 
Q 422 4038 858 4394 
Q 1294 4750 2059 4750 
Q 2388 4750 2728 4690 
Q 3069 4631 3425 4513 
z
" transform="scale(0.015625)"/>
      <path id="DejaVuSans-7a" d="M 353 3500 
L 3084 3500 
L 3084 2975 
L 922 459 
L 3084 459 
L 3084 0 
L 275 0 
L 275 525 
L 2438 3041 
L 353 3041 
L 353 3500 
z
" transform="scale(0.015625)"/>
      <path id="DejaVuSans-3d" d="M 678 2906 
L 4684 2906 
L 4684 2381 
L 678 2381 
L 678 2906 
z
M 678 1631 
L 4684 1631 
L 4684 1100 
L 678 1100 
L 678 1631 
z
" transform="scale(0.015625)"/>
      <path id="DejaVuSans-2c" d="M 750 794 
L 1409 794 
L 1409 256 
L 897 -744 
L 494 -744 
L 750 256 
L 750 794 
z
" transform="scale(0.015625)"/>
      <path id="DejaVuSans-52" d="M 2841 2188 
Q 3044 2119 3236 1894 
Q 3428 1669 3622 1275 
L 4263 0 
L 3584 0 
L 2988 1197 
Q 2756 1666 2539 1819 
Q 2322 1972 1947 1972 
L 1259 1972 
L 1259 0 
L 628 0 
L 628 4666 
L 2053 4666 
Q 2853 4666 3247 4331 
Q 3641 3997 3641 3322 
Q 3641 2881 3436 2590 
Q 3231 2300 2841 2188 
z
M 1259 4147 
L 1259 2491 
L 2053 2491 
Q 2509 2491 2742 2702 
Q 2975 2913 2975 3322 
Q 2975 3731 2742 3939 
Q 2509 4147 2053 4147 
L 1259 4147 
z
" transform="scale(0.015625)"/>
      <path id="DejaVuSans-2d" d="M 313 2009 
L 1997 2009 
L 1997 1497 
L 313 1497 
L 313 2009 
z
" transform="scale(0.015625)"/>
      <path id="DejaVuSans-57" d="M 213 4666 
L 850 4666 
L 1831 722 
L 2809 4666 
L 3519 4666 
L 4500 722 
L 5478 4666 
L 6119 4666 
L 4947 0 
L 4153 0 
L 3169 4050 
L 2175 0 
L 1381 0 
L 213 4666 
z
" transform="scale(0.015625)"/>
      <path id="DejaVuSans-54" d="M -19 4666 
L 3928 4666 
L 3928 4134 
L 2272 4134 
L 2272 0 
L 1638 0 
L 1638 4134 
L -19 4134 
L -19 4666 
z
" transform="scale(0.015625)"/>
      <path id="DejaVuSans-79" d="M 2059 -325 
Q 1816 -950 1584 -1140 
Q 1353 -1331 966 -1331 
L 506 -1331 
L 506 -850 
L 844 -850 
Q 1081 -850 1212 -737 
Q 1344 -625 1503 -206 
L 1606 56 
L 191 3500 
L 800 3500 
L 1894 763 
L 2988 3500 
L 3597 3500 
L 2059 -325 
z
" transform="scale(0.015625)"/>
      <path id="DejaVuSans-70" d="M 1159 525 
L 1159 -1331 
L 581 -1331 
L 581 3500 
L 1159 3500 
L 1159 2969 
Q 1341 3281 1617 3432 
Q 1894 3584 2278 3584 
Q 2916 3584 3314 3078 
Q 3713 2572 3713 1747 
Q 3713 922 3314 415 
Q 2916 -91 2278 -91 
Q 1894 -91 1617 61 
Q 1341 213 1159 525 
z
M 3116 1747 
Q 3116 2381 2855 2742 
Q 2594 3103 2138 3103 
Q 1681 3103 1420 2742 
Q 1159 2381 1159 1747 
Q 1159 1113 1420 752 
Q 1681 391 2138 391 
Q 2594 391 2855 752 
Q 3116 1113 3116 1747 
z
" transform="scale(0.015625)"/>
      <path id="DejaVuSans-76" d="M 191 3500 
L 800 3500 
L 1894 563 
L 2988 3500 
L 3597 3500 
L 2284 0 
L 1503 0 
L 191 3500 
z
" transform="scale(0.015625)"/>
      <path id="DejaVuSans-3a" d="M 750 794 
L 1409 794 
L 1409 0 
L 750 0 
L 750 794 
z
M 750 3309 
L 1409 3309 
L 1409 2516 
L 750 2516 
L 750 3309 
z
" transform="scale(0.015625)"/>
     </defs>
     <use xlink:href="#DejaVuSans-42"/>
     <use xlink:href="#DejaVuSans-6c" transform="translate(68.603516 0)"/>
     <use xlink:href="#DejaVuSans-6f" transform="translate(96.386719 0)"/>
     <use xlink:href="#DejaVuSans-63" transform="translate(157.568359 0)"/>
     <use xlink:href="#DejaVuSans-6b" transform="translate(212.548828 0)"/>
     <use xlink:href="#DejaVuSans-20" transform="translate(270.458984 0)"/>
     <use xlink:href="#DejaVuSans-53" transform="translate(302.246094 0)"/>
     <use xlink:href="#DejaVuSans-69" transform="translate(365.722656 0)"/>
     <use xlink:href="#DejaVuSans-7a" transform="translate(393.505859 0)"/>
     <use xlink:href="#DejaVuSans-65" transform="translate(445.996094 0)"/>
     <use xlink:href="#DejaVuSans-20" transform="translate(507.519531 0)"/>
     <use xlink:href="#DejaVuSans-3d" transform="translate(539.306641 0)"/>
     <use xlink:href="#DejaVuSans-20" transform="translate(623.095703 0)"/>
     <use xlink:href="#DejaVuSans-31" transform="translate(654.882812 0)"/>
     <use xlink:href="#DejaVuSans-4d" transform="translate(718.505859 0)"/>
     <use xlink:href="#DejaVuSans-2c" transform="translate(804.785156 0)"/>
     <use xlink:href="#DejaVuSans-20" transform="translate(836.572266 0)"/>
     <use xlink:href="#DejaVuSans-52" transform="translate(868.359375 0)"/>
     <use xlink:href="#DejaVuSans-65" transform="translate(933.341797 0)"/>
     <use xlink:href="#DejaVuSans-61" transform="translate(994.865234 0)"/>
     <use xlink:href="#DejaVuSans-64" transform="translate(1056.144531 0)"/>
     <use xlink:href="#DejaVuSans-2d" transform="translate(1119.621094 0)"/>
     <use xlink:href="#DejaVuSans-57" transform="translate(1151.705078 0)"/>
     <use xlink:href="#DejaVuSans-72" transform="translate(1246.082031 0)"/>
     <use xlink:href="#DejaVuSans-69" transform="translate(1287.195312 0)"/>
     <use xlink:href="#DejaVuSans-74" transform="translate(1314.978516 0)"/>
     <use xlink:href="#DejaVuSans-65" transform="translate(1354.1875 0)"/>
     <use xlink:href="#DejaVuSans-20" transform="translate(1415.710938 0)"/>
     <use xlink:href="#DejaVuSans-54" transform="translate(1447.498047 0)"/>
     <use xlink:href="#DejaVuSans-79" transform="translate(1492.957031 0)"/>
     <use xlink:href="#DejaVuSans-70" transform="translate(1552.136719 0)"/>
     <use xlink:href="#DejaVuSans-65" transform="translate(1615.613281 0)"/>
     <use xlink:href="#DejaVuSans-20" transform="translate(1677.136719 0)"/>
     <use xlink:href="#DejaVuSans-3d" transform="translate(1708.923828 0)"/>
     <use xlink:href="#DejaVuSans-20" transform="translate(1792.712891 0)"/>
     <use xlink:href="#DejaVuSans-52" transform="translate(1824.5 0)"/>
     <use xlink:href="#DejaVuSans-61" transform="translate(1891.732422 0)"/>
     <use xlink:href="#DejaVuSans-6e" transform="translate(1953.011719 0)"/>
     <use xlink:href="#DejaVuSans-64" transform="translate(2016.390625 0)"/>
     <use xlink:href="#DejaVuSans-6f" transform="translate(2079.867188 0)"/>
     <use xlink:href="#DejaVuSans-6d" transform="translate(2141.048828 0)"/>
     <use xlink:href="#DejaVuSans-20" transform="translate(2238.460938 0)"/>
     <use xlink:href="#DejaVuSans-57" transform="translate(2270.248047 0)"/>
     <use xlink:href="#DejaVuSans-72" transform="translate(2364.625 0)"/>
     <use xlink:href="#DejaVuSans-69" transform="translate(2405.738281 0)"/>
     <use xlink:href="#DejaVuSans-74" transform="translate(2433.521484 0)"/>
     <use xlink:href="#DejaVuSans-65" transform="translate(2472.730469 0)"/>
     <use xlink:href="#DejaVuSans-2d" transform="translate(2534.253906 0)"/>
     <use xlink:href="#DejaVuSans-68" transform="translate(2570.337891 0)"/>
     <use xlink:href="#DejaVuSans-65" transform="translate(2633.716797 0)"/>
     <use xlink:href="#DejaVuSans-61" transform="translate(2695.240234 0)"/>
     <use xlink:href="#DejaVuSans-76" transform="translate(2756.519531 0)"/>
     <use xlink:href="#DejaVuSans-79" transform="translate(2815.699219 0)"/>
     <use xlink:href="#DejaVuSans-20" transform="translate(2874.878906 0)"/>
     <use xlink:href="#DejaVuSans-31" transform="translate(2906.666016 0)"/>
     <use xlink:href="#DejaVuSans-3a" transform="translate(2970.289062 0)"/>
     <use xlink:href="#DejaVuSans-34" transform="translate(3003.980469 0)"/>
    </g>
   </g>
   <g id="text_20">
    <!-- Mean Bandwidth vs Number of Jobs -->
    <g style="fill: #262626" transform="translate(82.533188 16.318125) scale(0.12 -0.12)">
     <defs>
      <path id="DejaVuSans-Bold-4d" d="M 588 4666 
L 2119 4666 
L 3181 2169 
L 4250 4666 
L 5778 4666 
L 5778 0 
L 4641 0 
L 4641 3413 
L 3566 897 
L 2803 897 
L 1728 3413 
L 1728 0 
L 588 0 
L 588 4666 
z
" transform="scale(0.015625)"/>
      <path id="DejaVuSans-Bold-65" d="M 4031 1759 
L 4031 1441 
L 1416 1441 
Q 1456 1047 1700 850 
Q 1944 653 2381 653 
Q 2734 653 3104 758 
Q 3475 863 3866 1075 
L 3866 213 
Q 3469 63 3072 -14 
Q 2675 -91 2278 -91 
Q 1328 -91 801 392 
Q 275 875 275 1747 
Q 275 2603 792 3093 
Q 1309 3584 2216 3584 
Q 3041 3584 3536 3087 
Q 4031 2591 4031 1759 
z
M 2881 2131 
Q 2881 2450 2695 2645 
Q 2509 2841 2209 2841 
Q 1884 2841 1681 2658 
Q 1478 2475 1428 2131 
L 2881 2131 
z
" transform="scale(0.015625)"/>
      <path id="DejaVuSans-Bold-61" d="M 2106 1575 
Q 1756 1575 1579 1456 
Q 1403 1338 1403 1106 
Q 1403 894 1545 773 
Q 1688 653 1941 653 
Q 2256 653 2472 879 
Q 2688 1106 2688 1447 
L 2688 1575 
L 2106 1575 
z
M 3816 1997 
L 3816 0 
L 2688 0 
L 2688 519 
Q 2463 200 2181 54 
Q 1900 -91 1497 -91 
Q 953 -91 614 226 
Q 275 544 275 1050 
Q 275 1666 698 1953 
Q 1122 2241 2028 2241 
L 2688 2241 
L 2688 2328 
Q 2688 2594 2478 2717 
Q 2269 2841 1825 2841 
Q 1466 2841 1156 2769 
Q 847 2697 581 2553 
L 581 3406 
Q 941 3494 1303 3539 
Q 1666 3584 2028 3584 
Q 2975 3584 3395 3211 
Q 3816 2838 3816 1997 
z
" transform="scale(0.015625)"/>
      <path id="DejaVuSans-Bold-6e" d="M 4056 2131 
L 4056 0 
L 2931 0 
L 2931 347 
L 2931 1631 
Q 2931 2084 2911 2256 
Q 2891 2428 2841 2509 
Q 2775 2619 2662 2680 
Q 2550 2741 2406 2741 
Q 2056 2741 1856 2470 
Q 1656 2200 1656 1722 
L 1656 0 
L 538 0 
L 538 3500 
L 1656 3500 
L 1656 2988 
Q 1909 3294 2193 3439 
Q 2478 3584 2822 3584 
Q 3428 3584 3742 3212 
Q 4056 2841 4056 2131 
z
" transform="scale(0.015625)"/>
      <path id="DejaVuSans-Bold-20" transform="scale(0.015625)"/>
      <path id="DejaVuSans-Bold-42" d="M 2456 2859 
Q 2741 2859 2887 2984 
Q 3034 3109 3034 3353 
Q 3034 3594 2887 3720 
Q 2741 3847 2456 3847 
L 1791 3847 
L 1791 2859 
L 2456 2859 
z
M 2497 819 
Q 2859 819 3042 972 
Q 3225 1125 3225 1434 
Q 3225 1738 3044 1889 
Q 2863 2041 2497 2041 
L 1791 2041 
L 1791 819 
L 2497 819 
z
M 3616 2497 
Q 4003 2384 4215 2081 
Q 4428 1778 4428 1338 
Q 4428 663 3972 331 
Q 3516 0 2584 0 
L 588 0 
L 588 4666 
L 2394 4666 
Q 3366 4666 3802 4372 
Q 4238 4078 4238 3431 
Q 4238 3091 4078 2852 
Q 3919 2613 3616 2497 
z
" transform="scale(0.015625)"/>
      <path id="DejaVuSans-Bold-64" d="M 2919 2988 
L 2919 4863 
L 4044 4863 
L 4044 0 
L 2919 0 
L 2919 506 
Q 2688 197 2409 53 
Q 2131 -91 1766 -91 
Q 1119 -91 703 423 
Q 288 938 288 1747 
Q 288 2556 703 3070 
Q 1119 3584 1766 3584 
Q 2128 3584 2408 3439 
Q 2688 3294 2919 2988 
z
M 2181 722 
Q 2541 722 2730 984 
Q 2919 1247 2919 1747 
Q 2919 2247 2730 2509 
Q 2541 2772 2181 2772 
Q 1825 2772 1636 2509 
Q 1447 2247 1447 1747 
Q 1447 1247 1636 984 
Q 1825 722 2181 722 
z
" transform="scale(0.015625)"/>
      <path id="DejaVuSans-Bold-77" d="M 225 3500 
L 1313 3500 
L 1900 1088 
L 2491 3500 
L 3425 3500 
L 4013 1113 
L 4603 3500 
L 5691 3500 
L 4769 0 
L 3547 0 
L 2956 2406 
L 2369 0 
L 1147 0 
L 225 3500 
z
" transform="scale(0.015625)"/>
      <path id="DejaVuSans-Bold-69" d="M 538 3500 
L 1656 3500 
L 1656 0 
L 538 0 
L 538 3500 
z
M 538 4863 
L 1656 4863 
L 1656 3950 
L 538 3950 
L 538 4863 
z
" transform="scale(0.015625)"/>
      <path id="DejaVuSans-Bold-74" d="M 1759 4494 
L 1759 3500 
L 2913 3500 
L 2913 2700 
L 1759 2700 
L 1759 1216 
Q 1759 972 1856 886 
Q 1953 800 2241 800 
L 2816 800 
L 2816 0 
L 1856 0 
Q 1194 0 917 276 
Q 641 553 641 1216 
L 641 2700 
L 84 2700 
L 84 3500 
L 641 3500 
L 641 4494 
L 1759 4494 
z
" transform="scale(0.015625)"/>
      <path id="DejaVuSans-Bold-68" d="M 4056 2131 
L 4056 0 
L 2931 0 
L 2931 347 
L 2931 1625 
Q 2931 2084 2911 2256 
Q 2891 2428 2841 2509 
Q 2775 2619 2662 2680 
Q 2550 2741 2406 2741 
Q 2056 2741 1856 2470 
Q 1656 2200 1656 1722 
L 1656 0 
L 538 0 
L 538 4863 
L 1656 4863 
L 1656 2988 
Q 1909 3294 2193 3439 
Q 2478 3584 2822 3584 
Q 3428 3584 3742 3212 
Q 4056 2841 4056 2131 
z
" transform="scale(0.015625)"/>
      <path id="DejaVuSans-Bold-76" d="M 97 3500 
L 1216 3500 
L 2088 1081 
L 2956 3500 
L 4078 3500 
L 2700 0 
L 1472 0 
L 97 3500 
z
" transform="scale(0.015625)"/>
      <path id="DejaVuSans-Bold-73" d="M 3272 3391 
L 3272 2541 
Q 2913 2691 2578 2766 
Q 2244 2841 1947 2841 
Q 1628 2841 1473 2761 
Q 1319 2681 1319 2516 
Q 1319 2381 1436 2309 
Q 1553 2238 1856 2203 
L 2053 2175 
Q 2913 2066 3209 1816 
Q 3506 1566 3506 1031 
Q 3506 472 3093 190 
Q 2681 -91 1863 -91 
Q 1516 -91 1145 -36 
Q 775 19 384 128 
L 384 978 
Q 719 816 1070 734 
Q 1422 653 1784 653 
Q 2113 653 2278 743 
Q 2444 834 2444 1013 
Q 2444 1163 2330 1236 
Q 2216 1309 1875 1350 
L 1678 1375 
Q 931 1469 631 1722 
Q 331 1975 331 2491 
Q 331 3047 712 3315 
Q 1094 3584 1881 3584 
Q 2191 3584 2531 3537 
Q 2872 3491 3272 3391 
z
" transform="scale(0.015625)"/>
      <path id="DejaVuSans-Bold-4e" d="M 588 4666 
L 1931 4666 
L 3628 1466 
L 3628 4666 
L 4769 4666 
L 4769 0 
L 3425 0 
L 1728 3200 
L 1728 0 
L 588 0 
L 588 4666 
z
" transform="scale(0.015625)"/>
      <path id="DejaVuSans-Bold-75" d="M 500 1363 
L 500 3500 
L 1625 3500 
L 1625 3150 
Q 1625 2866 1622 2436 
Q 1619 2006 1619 1863 
Q 1619 1441 1641 1255 
Q 1663 1069 1716 984 
Q 1784 875 1895 815 
Q 2006 756 2150 756 
Q 2500 756 2700 1025 
Q 2900 1294 2900 1772 
L 2900 3500 
L 4019 3500 
L 4019 0 
L 2900 0 
L 2900 506 
Q 2647 200 2364 54 
Q 2081 -91 1741 -91 
Q 1134 -91 817 281 
Q 500 653 500 1363 
z
" transform="scale(0.015625)"/>
      <path id="DejaVuSans-Bold-6d" d="M 3781 2919 
Q 3994 3244 4286 3414 
Q 4578 3584 4928 3584 
Q 5531 3584 5847 3212 
Q 6163 2841 6163 2131 
L 6163 0 
L 5038 0 
L 5038 1825 
Q 5041 1866 5042 1909 
Q 5044 1953 5044 2034 
Q 5044 2406 4934 2573 
Q 4825 2741 4581 2741 
Q 4263 2741 4089 2478 
Q 3916 2216 3909 1719 
L 3909 0 
L 2784 0 
L 2784 1825 
Q 2784 2406 2684 2573 
Q 2584 2741 2328 2741 
Q 2006 2741 1831 2477 
Q 1656 2213 1656 1722 
L 1656 0 
L 531 0 
L 531 3500 
L 1656 3500 
L 1656 2988 
Q 1863 3284 2130 3434 
Q 2397 3584 2719 3584 
Q 3081 3584 3359 3409 
Q 3638 3234 3781 2919 
z
" transform="scale(0.015625)"/>
      <path id="DejaVuSans-Bold-62" d="M 2400 722 
Q 2759 722 2948 984 
Q 3138 1247 3138 1747 
Q 3138 2247 2948 2509 
Q 2759 2772 2400 2772 
Q 2041 2772 1848 2508 
Q 1656 2244 1656 1747 
Q 1656 1250 1848 986 
Q 2041 722 2400 722 
z
M 1656 2988 
Q 1888 3294 2169 3439 
Q 2450 3584 2816 3584 
Q 3463 3584 3878 3070 
Q 4294 2556 4294 1747 
Q 4294 938 3878 423 
Q 3463 -91 2816 -91 
Q 2450 -91 2169 54 
Q 1888 200 1656 506 
L 1656 0 
L 538 0 
L 538 4863 
L 1656 4863 
L 1656 2988 
z
" transform="scale(0.015625)"/>
      <path id="DejaVuSans-Bold-72" d="M 3138 2547 
Q 2991 2616 2845 2648 
Q 2700 2681 2553 2681 
Q 2122 2681 1889 2404 
Q 1656 2128 1656 1613 
L 1656 0 
L 538 0 
L 538 3500 
L 1656 3500 
L 1656 2925 
Q 1872 3269 2151 3426 
Q 2431 3584 2822 3584 
Q 2878 3584 2943 3579 
Q 3009 3575 3134 3559 
L 3138 2547 
z
" transform="scale(0.015625)"/>
      <path id="DejaVuSans-Bold-6f" d="M 2203 2784 
Q 1831 2784 1636 2517 
Q 1441 2250 1441 1747 
Q 1441 1244 1636 976 
Q 1831 709 2203 709 
Q 2569 709 2762 976 
Q 2956 1244 2956 1747 
Q 2956 2250 2762 2517 
Q 2569 2784 2203 2784 
z
M 2203 3584 
Q 3106 3584 3614 3096 
Q 4122 2609 4122 1747 
Q 4122 884 3614 396 
Q 3106 -91 2203 -91 
Q 1297 -91 786 396 
Q 275 884 275 1747 
Q 275 2609 786 3096 
Q 1297 3584 2203 3584 
z
" transform="scale(0.015625)"/>
      <path id="DejaVuSans-Bold-66" d="M 2841 4863 
L 2841 4128 
L 2222 4128 
Q 1984 4128 1890 4042 
Q 1797 3956 1797 3744 
L 1797 3500 
L 2753 3500 
L 2753 2700 
L 1797 2700 
L 1797 0 
L 678 0 
L 678 2700 
L 122 2700 
L 122 3500 
L 678 3500 
L 678 3744 
Q 678 4316 997 4589 
Q 1316 4863 1984 4863 
L 2841 4863 
z
" transform="scale(0.015625)"/>
      <path id="DejaVuSans-Bold-4a" d="M 588 4666 
L 1791 4666 
L 1791 453 
Q 1791 -419 1317 -850 
Q 844 -1281 -116 -1281 
L -359 -1281 
L -359 -372 
L -172 -372 
Q 203 -372 395 -162 
Q 588 47 588 453 
L 588 4666 
z
" transform="scale(0.015625)"/>
     </defs>
     <use xlink:href="#DejaVuSans-Bold-4d"/>
     <use xlink:href="#DejaVuSans-Bold-65" transform="translate(99.511719 0)"/>
     <use xlink:href="#DejaVuSans-Bold-61" transform="translate(167.333984 0)"/>
     <use xlink:href="#DejaVuSans-Bold-6e" transform="translate(234.814453 0)"/>
     <use xlink:href="#DejaVuSans-Bold-20" transform="translate(306.005859 0)"/>
     <use xlink:href="#DejaVuSans-Bold-42" transform="translate(340.820312 0)"/>
     <use xlink:href="#DejaVuSans-Bold-61" transform="translate(417.041016 0)"/>
     <use xlink:href="#DejaVuSans-Bold-6e" transform="translate(484.521484 0)"/>
     <use xlink:href="#DejaVuSans-Bold-64" transform="translate(555.712891 0)"/>
     <use xlink:href="#DejaVuSans-Bold-77" transform="translate(627.294922 0)"/>
     <use xlink:href="#DejaVuSans-Bold-69" transform="translate(719.677734 0)"/>
     <use xlink:href="#DejaVuSans-Bold-64" transform="translate(753.955078 0)"/>
     <use xlink:href="#DejaVuSans-Bold-74" transform="translate(825.537109 0)"/>
     <use xlink:href="#DejaVuSans-Bold-68" transform="translate(873.339844 0)"/>
     <use xlink:href="#DejaVuSans-Bold-20" transform="translate(944.53125 0)"/>
     <use xlink:href="#DejaVuSans-Bold-76" transform="translate(979.345703 0)"/>
     <use xlink:href="#DejaVuSans-Bold-73" transform="translate(1044.53125 0)"/>
     <use xlink:href="#DejaVuSans-Bold-20" transform="translate(1104.052734 0)"/>
     <use xlink:href="#DejaVuSans-Bold-4e" transform="translate(1138.867188 0)"/>
     <use xlink:href="#DejaVuSans-Bold-75" transform="translate(1222.558594 0)"/>
     <use xlink:href="#DejaVuSans-Bold-6d" transform="translate(1293.75 0)"/>
     <use xlink:href="#DejaVuSans-Bold-62" transform="translate(1397.949219 0)"/>
     <use xlink:href="#DejaVuSans-Bold-65" transform="translate(1469.53125 0)"/>
     <use xlink:href="#DejaVuSans-Bold-72" transform="translate(1537.353516 0)"/>
     <use xlink:href="#DejaVuSans-Bold-20" transform="translate(1586.669922 0)"/>
     <use xlink:href="#DejaVuSans-Bold-6f" transform="translate(1621.484375 0)"/>
     <use xlink:href="#DejaVuSans-Bold-66" transform="translate(1690.185547 0)"/>
     <use xlink:href="#DejaVuSans-Bold-20" transform="translate(1733.691406 0)"/>
     <use xlink:href="#DejaVuSans-Bold-4a" transform="translate(1768.505859 0)"/>
     <use xlink:href="#DejaVuSans-Bold-6f" transform="translate(1805.712891 0)"/>
     <use xlink:href="#DejaVuSans-Bold-62" transform="translate(1874.414062 0)"/>
     <use xlink:href="#DejaVuSans-Bold-73" transform="translate(1945.996094 0)"/>
    </g>
   </g>
   <g id="legend_1">
    <g id="patch_7">
     <path d="M 380.991925 228.398357 
L 438.343175 228.398357 
Q 440.343175 228.398357 440.343175 226.398357 
L 440.343175 108.037733 
Q 440.343175 106.037733 438.343175 106.037733 
L 380.991925 106.037733 
Q 378.991925 106.037733 378.991925 108.037733 
L 378.991925 226.398357 
Q 378.991925 228.398357 380.991925 228.398357 
z
" style="fill: #ffffff; opacity: 0.8; stroke: #cccccc; stroke-linejoin: miter"/>
    </g>
    <g id="text_21">
     <!-- IO Depth -->
     <g style="fill: #262626" transform="translate(382.991925 119.155857) scale(0.12 -0.12)">
      <defs>
       <path id="DejaVuSans-49" d="M 628 4666 
L 1259 4666 
L 1259 0 
L 628 0 
L 628 4666 
z
" transform="scale(0.015625)"/>
       <path id="DejaVuSans-4f" d="M 2522 4238 
Q 1834 4238 1429 3725 
Q 1025 3213 1025 2328 
Q 1025 1447 1429 934 
Q 1834 422 2522 422 
Q 3209 422 3611 934 
Q 4013 1447 4013 2328 
Q 4013 3213 3611 3725 
Q 3209 4238 2522 4238 
z
M 2522 4750 
Q 3503 4750 4090 4092 
Q 4678 3434 4678 2328 
Q 4678 1225 4090 567 
Q 3503 -91 2522 -91 
Q 1538 -91 948 565 
Q 359 1222 359 2328 
Q 359 3434 948 4092 
Q 1538 4750 2522 4750 
z
" transform="scale(0.015625)"/>
       <path id="DejaVuSans-44" d="M 1259 4147 
L 1259 519 
L 2022 519 
Q 2988 519 3436 956 
Q 3884 1394 3884 2338 
Q 3884 3275 3436 3711 
Q 2988 4147 2022 4147 
L 1259 4147 
z
M 628 4666 
L 1925 4666 
Q 3281 4666 3915 4102 
Q 4550 3538 4550 2338 
Q 4550 1131 3912 565 
Q 3275 0 1925 0 
L 628 0 
L 628 4666 
z
" transform="scale(0.015625)"/>
      </defs>
      <use xlink:href="#DejaVuSans-49"/>
      <use xlink:href="#DejaVuSans-4f" transform="translate(29.492188 0)"/>
      <use xlink:href="#DejaVuSans-20" transform="translate(108.203125 0)"/>
      <use xlink:href="#DejaVuSans-44" transform="translate(139.990234 0)"/>
      <use xlink:href="#DejaVuSans-65" transform="translate(216.992188 0)"/>
      <use xlink:href="#DejaVuSans-70" transform="translate(278.515625 0)"/>
      <use xlink:href="#DejaVuSans-74" transform="translate(341.992188 0)"/>
      <use xlink:href="#DejaVuSans-68" transform="translate(381.201172 0)"/>
     </g>
    </g>
    <g id="line2d_24">
     <path d="M 386.1238 130.74992 
L 396.1238 130.74992 
L 406.1238 130.74992 
" style="fill: none; stroke: #4c02a1; stroke-width: 1.5; stroke-linecap: round"/>
    </g>
    <g id="text_22">
     <!-- 1 -->
     <g style="fill: #262626" transform="translate(414.1238 134.24992) scale(0.1 -0.1)">
      <use xlink:href="#DejaVuSans-31"/>
     </g>
    </g>
    <g id="line2d_25">
     <path d="M 386.1238 145.428045 
L 396.1238 145.428045 
L 406.1238 145.428045 
" style="fill: none; stroke: #7e03a8; stroke-width: 1.5; stroke-linecap: round"/>
    </g>
    <g id="text_23">
     <!-- 4 -->
     <g style="fill: #262626" transform="translate(414.1238 148.928045) scale(0.1 -0.1)">
      <use xlink:href="#DejaVuSans-34"/>
     </g>
    </g>
    <g id="line2d_26">
     <path d="M 386.1238 160.10617 
L 396.1238 160.10617 
L 406.1238 160.10617 
" style="fill: none; stroke: #aa2395; stroke-width: 1.5; stroke-linecap: round"/>
    </g>
    <g id="text_24">
     <!-- 8 -->
     <g style="fill: #262626" transform="translate(414.1238 163.60617) scale(0.1 -0.1)">
      <use xlink:href="#DejaVuSans-38"/>
     </g>
    </g>
    <g id="line2d_27">
     <path d="M 386.1238 174.784295 
L 396.1238 174.784295 
L 406.1238 174.784295 
" style="fill: none; stroke: #cc4778; stroke-width: 1.5; stroke-linecap: round"/>
    </g>
    <g id="text_25">
     <!-- 16 -->
     <g style="fill: #262626" transform="translate(414.1238 178.284295) scale(0.1 -0.1)">
      <use xlink:href="#DejaVuSans-31"/>
      <use xlink:href="#DejaVuSans-36" transform="translate(63.623047 0)"/>
     </g>
    </g>
    <g id="line2d_28">
     <path d="M 386.1238 189.46242 
L 396.1238 189.46242 
L 406.1238 189.46242 
" style="fill: none; stroke: #e66c5c; stroke-width: 1.5; stroke-linecap: round"/>
    </g>
    <g id="text_26">
     <!-- 32 -->
     <g style="fill: #262626" transform="translate(414.1238 192.96242) scale(0.1 -0.1)">
      <use xlink:href="#DejaVuSans-33"/>
      <use xlink:href="#DejaVuSans-32" transform="translate(63.623047 0)"/>
     </g>
    </g>
    <g id="line2d_29">
     <path d="M 386.1238 204.140545 
L 396.1238 204.140545 
L 406.1238 204.140545 
" style="fill: none; stroke: #f89540; stroke-width: 1.5; stroke-linecap: round"/>
    </g>
    <g id="text_27">
     <!-- 64 -->
     <g style="fill: #262626" transform="translate(414.1238 207.640545) scale(0.1 -0.1)">
      <use xlink:href="#DejaVuSans-36"/>
      <use xlink:href="#DejaVuSans-34" transform="translate(63.623047 0)"/>
     </g>
    </g>
    <g id="line2d_30">
     <path d="M 386.1238 218.81867 
L 396.1238 218.81867 
L 406.1238 218.81867 
" style="fill: none; stroke: #fdc527; stroke-width: 1.5; stroke-linecap: round"/>
    </g>
    <g id="text_28">
     <!-- 128 -->
     <g style="fill: #262626" transform="translate(414.1238 222.31867) scale(0.1 -0.1)">
      <use xlink:href="#DejaVuSans-31"/>
      <use xlink:href="#DejaVuSans-32" transform="translate(63.623047 0)"/>
      <use xlink:href="#DejaVuSans-38" transform="translate(127.246094 0)"/>
     </g>
    </g>
   </g>
  </g>
 </g>
 <defs>
  <clipPath id="p4fa33f47ea">
   <rect x="43.78125" y="35.490845" width="318.162" height="263.4544"/>
  </clipPath>
 </defs>
</svg>
