<?xml version="1.0" encoding="utf-8" standalone="no"?>
<!DOCTYPE svg PUBLIC "-//W3C//DTD SVG 1.1//EN"
  "http://www.w3.org/Graphics/SVG/1.1/DTD/svg11.dtd">
<svg xmlns:xlink="http://www.w3.org/1999/xlink" width="695.940496pt" height="351.674688pt" viewBox="0 0 695.940496 351.674688" xmlns="http://www.w3.org/2000/svg" version="1.1">
 <metadata>
  <rdf:RDF xmlns:dc="http://purl.org/dc/elements/1.1/" xmlns:cc="http://creativecommons.org/ns#" xmlns:rdf="http://www.w3.org/1999/02/22-rdf-syntax-ns#">
   <cc:Work>
    <dc:type rdf:resource="http://purl.org/dc/dcmitype/StillImage"/>
    <dc:date>2025-09-04T23:52:16.111966</dc:date>
    <dc:format>image/svg+xml</dc:format>
    <dc:creator>
     <cc:Agent>
      <dc:title>Matplotlib v3.6.3, https://matplotlib.org/</dc:title>
     </cc:Agent>
    </dc:creator>
   </cc:Work>
  </rdf:RDF>
 </metadata>
 <defs>
  <style type="text/css">*{stroke-linejoin: round; stroke-linecap: butt}</style>
 </defs>
 <g id="figure_1">
  <g id="patch_1">
   <path d="M 0 351.674688 
L 695.940496 351.674688 
L 695.940496 0 
L 0 0 
z
" style="fill: #ffffff"/>
  </g>
  <g id="axes_1">
   <g id="patch_2">
    <path d="M 40.603125 314.118438 
L 514.448796 314.118438 
L 514.448796 20.798437 
L 40.603125 20.798437 
z
" style="fill: #ffffff"/>
   </g>
   <g id="matplotlib.axis_1">
    <g id="xtick_1">
     <g id="text_1">
      <!-- 4K -->
      <g style="fill: #262626" transform="translate(73.630108 328.716875) scale(0.1 -0.1)">
       <defs>
        <path id="DejaVuSans-34" d="M 2419 4116 
L 825 1625 
L 2419 1625 
L 2419 4116 
z
M 2253 4666 
L 3047 4666 
L 3047 1625 
L 3713 1625 
L 3713 1100 
L 3047 1100 
L 3047 0 
L 2419 0 
L 2419 1100 
L 313 1100 
L 313 1709 
L 2253 4666 
z
" transform="scale(0.015625)"/>
        <path id="DejaVuSans-4b" d="M 628 4666 
L 1259 4666 
L 1259 2694 
L 3353 4666 
L 4166 4666 
L 1850 2491 
L 4331 0 
L 3500 0 
L 1259 2247 
L 1259 0 
L 628 0 
L 628 4666 
z
" transform="scale(0.015625)"/>
       </defs>
       <use xlink:href="#DejaVuSans-34"/>
       <use xlink:href="#DejaVuSans-4b" x="63.623047"/>
      </g>
     </g>
    </g>
    <g id="xtick_2">
     <g id="text_2">
      <!-- 16K -->
      <g style="fill: #262626" transform="translate(160.192356 328.716875) scale(0.1 -0.1)">
       <defs>
        <path id="DejaVuSans-31" d="M 794 531 
L 1825 531 
L 1825 4091 
L 703 3866 
L 703 4441 
L 1819 4666 
L 2450 4666 
L 2450 531 
L 3481 531 
L 3481 0 
L 794 0 
L 794 531 
z
" transform="scale(0.015625)"/>
        <path id="DejaVuSans-36" d="M 2113 2584 
Q 1688 2584 1439 2293 
Q 1191 2003 1191 1497 
Q 1191 994 1439 701 
Q 1688 409 2113 409 
Q 2538 409 2786 701 
Q 3034 994 3034 1497 
Q 3034 2003 2786 2293 
Q 2538 2584 2113 2584 
z
M 3366 4563 
L 3366 3988 
Q 3128 4100 2886 4159 
Q 2644 4219 2406 4219 
Q 1781 4219 1451 3797 
Q 1122 3375 1075 2522 
Q 1259 2794 1537 2939 
Q 1816 3084 2150 3084 
Q 2853 3084 3261 2657 
Q 3669 2231 3669 1497 
Q 3669 778 3244 343 
Q 2819 -91 2113 -91 
Q 1303 -91 875 529 
Q 447 1150 447 2328 
Q 447 3434 972 4092 
Q 1497 4750 2381 4750 
Q 2619 4750 2861 4703 
Q 3103 4656 3366 4563 
z
" transform="scale(0.015625)"/>
       </defs>
       <use xlink:href="#DejaVuSans-31"/>
       <use xlink:href="#DejaVuSans-36" x="63.623047"/>
       <use xlink:href="#DejaVuSans-4b" x="127.246094"/>
      </g>
     </g>
    </g>
    <g id="xtick_3">
     <g id="text_3">
      <!-- 1M -->
      <g style="fill: #262626" transform="translate(252.081949 328.716875) scale(0.1 -0.1)">
       <defs>
        <path id="DejaVuSans-4d" d="M 628 4666 
L 1569 4666 
L 2759 1491 
L 3956 4666 
L 4897 4666 
L 4897 0 
L 4281 0 
L 4281 4097 
L 3078 897 
L 2444 897 
L 1241 4097 
L 1241 0 
L 628 0 
L 628 4666 
z
" transform="scale(0.015625)"/>
       </defs>
       <use xlink:href="#DejaVuSans-31"/>
       <use xlink:href="#DejaVuSans-4d" x="63.623047"/>
      </g>
     </g>
    </g>
    <g id="xtick_4">
     <g id="text_4">
      <!-- 2M -->
      <g style="fill: #262626" transform="translate(341.825447 328.716875) scale(0.1 -0.1)">
       <defs>
        <path id="DejaVuSans-32" d="M 1228 531 
L 3431 531 
L 3431 0 
L 469 0 
L 469 531 
Q 828 903 1448 1529 
Q 2069 2156 2228 2338 
Q 2531 2678 2651 2914 
Q 2772 3150 2772 3378 
Q 2772 3750 2511 3984 
Q 2250 4219 1831 4219 
Q 1534 4219 1204 4116 
Q 875 4013 500 3803 
L 500 4441 
Q 881 4594 1212 4672 
Q 1544 4750 1819 4750 
Q 2544 4750 2975 4387 
Q 3406 4025 3406 3419 
Q 3406 3131 3298 2873 
Q 3191 2616 2906 2266 
Q 2828 2175 2409 1742 
Q 1991 1309 1228 531 
z
" transform="scale(0.015625)"/>
       </defs>
       <use xlink:href="#DejaVuSans-32"/>
       <use xlink:href="#DejaVuSans-4d" x="63.623047"/>
      </g>
     </g>
    </g>
    <g id="xtick_5">
     <g id="text_5">
      <!-- 4M -->
      <g style="fill: #262626" transform="translate(431.568945 328.716875) scale(0.1 -0.1)">
       <use xlink:href="#DejaVuSans-34"/>
       <use xlink:href="#DejaVuSans-4d" x="63.623047"/>
      </g>
     </g>
    </g>
    <g id="text_6">
     <!-- job options.bs -->
     <g style="fill: #262626" transform="translate(242.530648 342.395) scale(0.1 -0.1)">
      <defs>
       <path id="DejaVuSans-6a" d="M 603 3500 
L 1178 3500 
L 1178 -63 
Q 1178 -731 923 -1031 
Q 669 -1331 103 -1331 
L -116 -1331 
L -116 -844 
L 38 -844 
Q 366 -844 484 -692 
Q 603 -541 603 -63 
L 603 3500 
z
M 603 4863 
L 1178 4863 
L 1178 4134 
L 603 4134 
L 603 4863 
z
" transform="scale(0.015625)"/>
       <path id="DejaVuSans-6f" d="M 1959 3097 
Q 1497 3097 1228 2736 
Q 959 2375 959 1747 
Q 959 1119 1226 758 
Q 1494 397 1959 397 
Q 2419 397 2687 759 
Q 2956 1122 2956 1747 
Q 2956 2369 2687 2733 
Q 2419 3097 1959 3097 
z
M 1959 3584 
Q 2709 3584 3137 3096 
Q 3566 2609 3566 1747 
Q 3566 888 3137 398 
Q 2709 -91 1959 -91 
Q 1206 -91 779 398 
Q 353 888 353 1747 
Q 353 2609 779 3096 
Q 1206 3584 1959 3584 
z
" transform="scale(0.015625)"/>
       <path id="DejaVuSans-62" d="M 3116 1747 
Q 3116 2381 2855 2742 
Q 2594 3103 2138 3103 
Q 1681 3103 1420 2742 
Q 1159 2381 1159 1747 
Q 1159 1113 1420 752 
Q 1681 391 2138 391 
Q 2594 391 2855 752 
Q 3116 1113 3116 1747 
z
M 1159 2969 
Q 1341 3281 1617 3432 
Q 1894 3584 2278 3584 
Q 2916 3584 3314 3078 
Q 3713 2572 3713 1747 
Q 3713 922 3314 415 
Q 2916 -91 2278 -91 
Q 1894 -91 1617 61 
Q 1341 213 1159 525 
L 1159 0 
L 581 0 
L 581 4863 
L 1159 4863 
L 1159 2969 
z
" transform="scale(0.015625)"/>
       <path id="DejaVuSans-20" transform="scale(0.015625)"/>
       <path id="DejaVuSans-70" d="M 1159 525 
L 1159 -1331 
L 581 -1331 
L 581 3500 
L 1159 3500 
L 1159 2969 
Q 1341 3281 1617 3432 
Q 1894 3584 2278 3584 
Q 2916 3584 3314 3078 
Q 3713 2572 3713 1747 
Q 3713 922 3314 415 
Q 2916 -91 2278 -91 
Q 1894 -91 1617 61 
Q 1341 213 1159 525 
z
M 3116 1747 
Q 3116 2381 2855 2742 
Q 2594 3103 2138 3103 
Q 1681 3103 1420 2742 
Q 1159 2381 1159 1747 
Q 1159 1113 1420 752 
Q 1681 391 2138 391 
Q 2594 391 2855 752 
Q 3116 1113 3116 1747 
z
" transform="scale(0.015625)"/>
       <path id="DejaVuSans-74" d="M 1172 4494 
L 1172 3500 
L 2356 3500 
L 2356 3053 
L 1172 3053 
L 1172 1153 
Q 1172 725 1289 603 
Q 1406 481 1766 481 
L 2356 481 
L 2356 0 
L 1766 0 
Q 1100 0 847 248 
Q 594 497 594 1153 
L 594 3053 
L 172 3053 
L 172 3500 
L 594 3500 
L 594 4494 
L 1172 4494 
z
" transform="scale(0.015625)"/>
       <path id="DejaVuSans-69" d="M 603 3500 
L 1178 3500 
L 1178 0 
L 603 0 
L 603 3500 
z
M 603 4863 
L 1178 4863 
L 1178 4134 
L 603 4134 
L 603 4863 
z
" transform="scale(0.015625)"/>
       <path id="DejaVuSans-6e" d="M 3513 2113 
L 3513 0 
L 2938 0 
L 2938 2094 
Q 2938 2591 2744 2837 
Q 2550 3084 2163 3084 
Q 1697 3084 1428 2787 
Q 1159 2491 1159 1978 
L 1159 0 
L 581 0 
L 581 3500 
L 1159 3500 
L 1159 2956 
Q 1366 3272 1645 3428 
Q 1925 3584 2291 3584 
Q 2894 3584 3203 3211 
Q 3513 2838 3513 2113 
z
" transform="scale(0.015625)"/>
       <path id="DejaVuSans-73" d="M 2834 3397 
L 2834 2853 
Q 2591 2978 2328 3040 
Q 2066 3103 1784 3103 
Q 1356 3103 1142 2972 
Q 928 2841 928 2578 
Q 928 2378 1081 2264 
Q 1234 2150 1697 2047 
L 1894 2003 
Q 2506 1872 2764 1633 
Q 3022 1394 3022 966 
Q 3022 478 2636 193 
Q 2250 -91 1575 -91 
Q 1294 -91 989 -36 
Q 684 19 347 128 
L 347 722 
Q 666 556 975 473 
Q 1284 391 1588 391 
Q 1994 391 2212 530 
Q 2431 669 2431 922 
Q 2431 1156 2273 1281 
Q 2116 1406 1581 1522 
L 1381 1569 
Q 847 1681 609 1914 
Q 372 2147 372 2553 
Q 372 3047 722 3315 
Q 1072 3584 1716 3584 
Q 2034 3584 2315 3537 
Q 2597 3491 2834 3397 
z
" transform="scale(0.015625)"/>
       <path id="DejaVuSans-2e" d="M 684 794 
L 1344 794 
L 1344 0 
L 684 0 
L 684 794 
z
" transform="scale(0.015625)"/>
      </defs>
      <use xlink:href="#DejaVuSans-6a"/>
      <use xlink:href="#DejaVuSans-6f" x="27.783203"/>
      <use xlink:href="#DejaVuSans-62" x="88.964844"/>
      <use xlink:href="#DejaVuSans-20" x="152.441406"/>
      <use xlink:href="#DejaVuSans-6f" x="184.228516"/>
      <use xlink:href="#DejaVuSans-70" x="245.410156"/>
      <use xlink:href="#DejaVuSans-74" x="308.886719"/>
      <use xlink:href="#DejaVuSans-69" x="348.095703"/>
      <use xlink:href="#DejaVuSans-6f" x="375.878906"/>
      <use xlink:href="#DejaVuSans-6e" x="437.060547"/>
      <use xlink:href="#DejaVuSans-73" x="500.439453"/>
      <use xlink:href="#DejaVuSans-2e" x="552.539062"/>
      <use xlink:href="#DejaVuSans-62" x="584.326172"/>
      <use xlink:href="#DejaVuSans-73" x="647.802734"/>
     </g>
    </g>
   </g>
   <g id="matplotlib.axis_2">
    <g id="ytick_1">
     <g id="line2d_1">
      <path d="M 40.603125 314.118438 
L 514.448796 314.118438 
" clip-path="url(#pa5bc2e6217)" style="fill: none; stroke: #cccccc; stroke-width: 0.8; stroke-linecap: round"/>
     </g>
     <g id="text_7">
      <!-- 0 -->
      <g style="fill: #262626" transform="translate(27.240625 317.917656) scale(0.1 -0.1)">
       <defs>
        <path id="DejaVuSans-30" d="M 2034 4250 
Q 1547 4250 1301 3770 
Q 1056 3291 1056 2328 
Q 1056 1369 1301 889 
Q 1547 409 2034 409 
Q 2525 409 2770 889 
Q 3016 1369 3016 2328 
Q 3016 3291 2770 3770 
Q 2525 4250 2034 4250 
z
M 2034 4750 
Q 2819 4750 3233 4129 
Q 3647 3509 3647 2328 
Q 3647 1150 3233 529 
Q 2819 -91 2034 -91 
Q 1250 -91 836 529 
Q 422 1150 422 2328 
Q 422 3509 836 4129 
Q 1250 4750 2034 4750 
z
" transform="scale(0.015625)"/>
       </defs>
       <use xlink:href="#DejaVuSans-30"/>
      </g>
     </g>
    </g>
    <g id="ytick_2">
     <g id="line2d_2">
      <path d="M 40.603125 256.614876 
L 514.448796 256.614876 
" clip-path="url(#pa5bc2e6217)" style="fill: none; stroke: #cccccc; stroke-width: 0.8; stroke-linecap: round"/>
     </g>
     <g id="text_8">
      <!-- 2 -->
      <g style="fill: #262626" transform="translate(27.240625 260.414095) scale(0.1 -0.1)">
       <use xlink:href="#DejaVuSans-32"/>
      </g>
     </g>
    </g>
    <g id="ytick_3">
     <g id="line2d_3">
      <path d="M 40.603125 199.111315 
L 514.448796 199.111315 
" clip-path="url(#pa5bc2e6217)" style="fill: none; stroke: #cccccc; stroke-width: 0.8; stroke-linecap: round"/>
     </g>
     <g id="text_9">
      <!-- 4 -->
      <g style="fill: #262626" transform="translate(27.240625 202.910534) scale(0.1 -0.1)">
       <use xlink:href="#DejaVuSans-34"/>
      </g>
     </g>
    </g>
    <g id="ytick_4">
     <g id="line2d_4">
      <path d="M 40.603125 141.607754 
L 514.448796 141.607754 
" clip-path="url(#pa5bc2e6217)" style="fill: none; stroke: #cccccc; stroke-width: 0.8; stroke-linecap: round"/>
     </g>
     <g id="text_10">
      <!-- 6 -->
      <g style="fill: #262626" transform="translate(27.240625 145.406973) scale(0.1 -0.1)">
       <use xlink:href="#DejaVuSans-36"/>
      </g>
     </g>
    </g>
    <g id="ytick_5">
     <g id="line2d_5">
      <path d="M 40.603125 84.104193 
L 514.448796 84.104193 
" clip-path="url(#pa5bc2e6217)" style="fill: none; stroke: #cccccc; stroke-width: 0.8; stroke-linecap: round"/>
     </g>
     <g id="text_11">
      <!-- 8 -->
      <g style="fill: #262626" transform="translate(27.240625 87.903411) scale(0.1 -0.1)">
       <defs>
        <path id="DejaVuSans-38" d="M 2034 2216 
Q 1584 2216 1326 1975 
Q 1069 1734 1069 1313 
Q 1069 891 1326 650 
Q 1584 409 2034 409 
Q 2484 409 2743 651 
Q 3003 894 3003 1313 
Q 3003 1734 2745 1975 
Q 2488 2216 2034 2216 
z
M 1403 2484 
Q 997 2584 770 2862 
Q 544 3141 544 3541 
Q 544 4100 942 4425 
Q 1341 4750 2034 4750 
Q 2731 4750 3128 4425 
Q 3525 4100 3525 3541 
Q 3525 3141 3298 2862 
Q 3072 2584 2669 2484 
Q 3125 2378 3379 2068 
Q 3634 1759 3634 1313 
Q 3634 634 3220 271 
Q 2806 -91 2034 -91 
Q 1263 -91 848 271 
Q 434 634 434 1313 
Q 434 1759 690 2068 
Q 947 2378 1403 2484 
z
M 1172 3481 
Q 1172 3119 1398 2916 
Q 1625 2713 2034 2713 
Q 2441 2713 2670 2916 
Q 2900 3119 2900 3481 
Q 2900 3844 2670 4047 
Q 2441 4250 2034 4250 
Q 1625 4250 1398 4047 
Q 1172 3844 1172 3481 
z
" transform="scale(0.015625)"/>
       </defs>
       <use xlink:href="#DejaVuSans-38"/>
      </g>
     </g>
    </g>
    <g id="ytick_6">
     <g id="line2d_6">
      <path d="M 40.603125 26.600631 
L 514.448796 26.600631 
" clip-path="url(#pa5bc2e6217)" style="fill: none; stroke: #cccccc; stroke-width: 0.8; stroke-linecap: round"/>
     </g>
     <g id="text_12">
      <!-- 10 -->
      <g style="fill: #262626" transform="translate(20.878125 30.39985) scale(0.1 -0.1)">
       <use xlink:href="#DejaVuSans-31"/>
       <use xlink:href="#DejaVuSans-30" x="63.623047"/>
      </g>
     </g>
    </g>
    <g id="text_13">
     <!-- Bandwidth (GiB/s) -->
     <g style="fill: #262626" transform="translate(14.798438 212.550625) rotate(-90) scale(0.1 -0.1)">
      <defs>
       <path id="DejaVuSans-42" d="M 1259 2228 
L 1259 519 
L 2272 519 
Q 2781 519 3026 730 
Q 3272 941 3272 1375 
Q 3272 1813 3026 2020 
Q 2781 2228 2272 2228 
L 1259 2228 
z
M 1259 4147 
L 1259 2741 
L 2194 2741 
Q 2656 2741 2882 2914 
Q 3109 3088 3109 3444 
Q 3109 3797 2882 3972 
Q 2656 4147 2194 4147 
L 1259 4147 
z
M 628 4666 
L 2241 4666 
Q 2963 4666 3353 4366 
Q 3744 4066 3744 3513 
Q 3744 3084 3544 2831 
Q 3344 2578 2956 2516 
Q 3422 2416 3680 2098 
Q 3938 1781 3938 1306 
Q 3938 681 3513 340 
Q 3088 0 2303 0 
L 628 0 
L 628 4666 
z
" transform="scale(0.015625)"/>
       <path id="DejaVuSans-61" d="M 2194 1759 
Q 1497 1759 1228 1600 
Q 959 1441 959 1056 
Q 959 750 1161 570 
Q 1363 391 1709 391 
Q 2188 391 2477 730 
Q 2766 1069 2766 1631 
L 2766 1759 
L 2194 1759 
z
M 3341 1997 
L 3341 0 
L 2766 0 
L 2766 531 
Q 2569 213 2275 61 
Q 1981 -91 1556 -91 
Q 1019 -91 701 211 
Q 384 513 384 1019 
Q 384 1609 779 1909 
Q 1175 2209 1959 2209 
L 2766 2209 
L 2766 2266 
Q 2766 2663 2505 2880 
Q 2244 3097 1772 3097 
Q 1472 3097 1187 3025 
Q 903 2953 641 2809 
L 641 3341 
Q 956 3463 1253 3523 
Q 1550 3584 1831 3584 
Q 2591 3584 2966 3190 
Q 3341 2797 3341 1997 
z
" transform="scale(0.015625)"/>
       <path id="DejaVuSans-64" d="M 2906 2969 
L 2906 4863 
L 3481 4863 
L 3481 0 
L 2906 0 
L 2906 525 
Q 2725 213 2448 61 
Q 2172 -91 1784 -91 
Q 1150 -91 751 415 
Q 353 922 353 1747 
Q 353 2572 751 3078 
Q 1150 3584 1784 3584 
Q 2172 3584 2448 3432 
Q 2725 3281 2906 2969 
z
M 947 1747 
Q 947 1113 1208 752 
Q 1469 391 1925 391 
Q 2381 391 2643 752 
Q 2906 1113 2906 1747 
Q 2906 2381 2643 2742 
Q 2381 3103 1925 3103 
Q 1469 3103 1208 2742 
Q 947 2381 947 1747 
z
" transform="scale(0.015625)"/>
       <path id="DejaVuSans-77" d="M 269 3500 
L 844 3500 
L 1563 769 
L 2278 3500 
L 2956 3500 
L 3675 769 
L 4391 3500 
L 4966 3500 
L 4050 0 
L 3372 0 
L 2619 2869 
L 1863 0 
L 1184 0 
L 269 3500 
z
" transform="scale(0.015625)"/>
       <path id="DejaVuSans-68" d="M 3513 2113 
L 3513 0 
L 2938 0 
L 2938 2094 
Q 2938 2591 2744 2837 
Q 2550 3084 2163 3084 
Q 1697 3084 1428 2787 
Q 1159 2491 1159 1978 
L 1159 0 
L 581 0 
L 581 4863 
L 1159 4863 
L 1159 2956 
Q 1366 3272 1645 3428 
Q 1925 3584 2291 3584 
Q 2894 3584 3203 3211 
Q 3513 2838 3513 2113 
z
" transform="scale(0.015625)"/>
       <path id="DejaVuSans-28" d="M 1984 4856 
Q 1566 4138 1362 3434 
Q 1159 2731 1159 2009 
Q 1159 1288 1364 580 
Q 1569 -128 1984 -844 
L 1484 -844 
Q 1016 -109 783 600 
Q 550 1309 550 2009 
Q 550 2706 781 3412 
Q 1013 4119 1484 4856 
L 1984 4856 
z
" transform="scale(0.015625)"/>
       <path id="DejaVuSans-47" d="M 3809 666 
L 3809 1919 
L 2778 1919 
L 2778 2438 
L 4434 2438 
L 4434 434 
Q 4069 175 3628 42 
Q 3188 -91 2688 -91 
Q 1594 -91 976 548 
Q 359 1188 359 2328 
Q 359 3472 976 4111 
Q 1594 4750 2688 4750 
Q 3144 4750 3555 4637 
Q 3966 4525 4313 4306 
L 4313 3634 
Q 3963 3931 3569 4081 
Q 3175 4231 2741 4231 
Q 1884 4231 1454 3753 
Q 1025 3275 1025 2328 
Q 1025 1384 1454 906 
Q 1884 428 2741 428 
Q 3075 428 3337 486 
Q 3600 544 3809 666 
z
" transform="scale(0.015625)"/>
       <path id="DejaVuSans-2f" d="M 1625 4666 
L 2156 4666 
L 531 -594 
L 0 -594 
L 1625 4666 
z
" transform="scale(0.015625)"/>
       <path id="DejaVuSans-29" d="M 513 4856 
L 1013 4856 
Q 1481 4119 1714 3412 
Q 1947 2706 1947 2009 
Q 1947 1309 1714 600 
Q 1481 -109 1013 -844 
L 513 -844 
Q 928 -128 1133 580 
Q 1338 1288 1338 2009 
Q 1338 2731 1133 3434 
Q 928 4138 513 4856 
z
" transform="scale(0.015625)"/>
      </defs>
      <use xlink:href="#DejaVuSans-42"/>
      <use xlink:href="#DejaVuSans-61" x="68.603516"/>
      <use xlink:href="#DejaVuSans-6e" x="129.882812"/>
      <use xlink:href="#DejaVuSans-64" x="193.261719"/>
      <use xlink:href="#DejaVuSans-77" x="256.738281"/>
      <use xlink:href="#DejaVuSans-69" x="338.525391"/>
      <use xlink:href="#DejaVuSans-64" x="366.308594"/>
      <use xlink:href="#DejaVuSans-74" x="429.785156"/>
      <use xlink:href="#DejaVuSans-68" x="468.994141"/>
      <use xlink:href="#DejaVuSans-20" x="532.373047"/>
      <use xlink:href="#DejaVuSans-28" x="564.160156"/>
      <use xlink:href="#DejaVuSans-47" x="603.173828"/>
      <use xlink:href="#DejaVuSans-69" x="680.664062"/>
      <use xlink:href="#DejaVuSans-42" x="708.447266"/>
      <use xlink:href="#DejaVuSans-2f" x="777.050781"/>
      <use xlink:href="#DejaVuSans-73" x="810.742188"/>
      <use xlink:href="#DejaVuSans-29" x="862.841797"/>
     </g>
    </g>
   </g>
   <g id="patch_3">
    <path d="M 80.090264 314.118438 
L 87.269744 314.118438 
L 87.269744 310.023062 
L 80.090264 310.023062 
z
" clip-path="url(#pa5bc2e6217)" style="fill: #845b53; stroke: #ffffff; stroke-linejoin: miter"/>
   </g>
   <g id="patch_4">
    <path d="M 169.833763 314.118438 
L 177.013243 314.118438 
L 177.013243 295.146456 
L 169.833763 295.146456 
z
" clip-path="url(#pa5bc2e6217)" style="fill: #845b53; stroke: #ffffff; stroke-linejoin: miter"/>
   </g>
   <g id="patch_5">
    <path d="M 259.577261 314.118438 
L 266.756741 314.118438 
L 266.756741 204.694022 
L 259.577261 204.694022 
z
" clip-path="url(#pa5bc2e6217)" style="fill: #845b53; stroke: #ffffff; stroke-linejoin: miter"/>
   </g>
   <g id="patch_6">
    <path d="M 349.320759 314.118438 
L 356.500239 314.118438 
L 356.500239 205.872702 
L 349.320759 205.872702 
z
" clip-path="url(#pa5bc2e6217)" style="fill: #845b53; stroke: #ffffff; stroke-linejoin: miter"/>
   </g>
   <g id="patch_7">
    <path d="M 439.064258 314.118438 
L 446.243738 314.118438 
L 446.243738 214.129551 
L 439.064258 214.129551 
z
" clip-path="url(#pa5bc2e6217)" style="fill: #845b53; stroke: #ffffff; stroke-linejoin: miter"/>
   </g>
   <g id="patch_8">
    <path d="M 87.269744 314.118438 
L 94.449224 314.118438 
L 94.449224 309.241356 
L 87.269744 309.241356 
z
" clip-path="url(#pa5bc2e6217)" style="fill: #d684bd; stroke: #ffffff; stroke-linejoin: miter"/>
   </g>
   <g id="patch_9">
    <path d="M 177.013243 314.118438 
L 184.192722 314.118438 
L 184.192722 295.40968 
L 177.013243 295.40968 
z
" clip-path="url(#pa5bc2e6217)" style="fill: #d684bd; stroke: #ffffff; stroke-linejoin: miter"/>
   </g>
   <g id="patch_10">
    <path d="M 266.756741 314.118438 
L 273.936221 314.118438 
L 273.936221 213.980426 
L 266.756741 213.980426 
z
" clip-path="url(#pa5bc2e6217)" style="fill: #d684bd; stroke: #ffffff; stroke-linejoin: miter"/>
   </g>
   <g id="patch_11">
    <path d="M 356.500239 314.118438 
L 363.679719 314.118438 
L 363.679719 203.333199 
L 356.500239 203.333199 
z
" clip-path="url(#pa5bc2e6217)" style="fill: #d684bd; stroke: #ffffff; stroke-linejoin: miter"/>
   </g>
   <g id="patch_12">
    <path d="M 446.243738 314.118438 
L 453.423218 314.118438 
L 453.423218 227.196116 
L 446.243738 227.196116 
z
" clip-path="url(#pa5bc2e6217)" style="fill: #d684bd; stroke: #ffffff; stroke-linejoin: miter"/>
   </g>
   <g id="patch_13">
    <path d="M 94.449224 314.118438 
L 101.628704 314.118438 
L 101.628704 308.85301 
L 94.449224 308.85301 
z
" clip-path="url(#pa5bc2e6217)" style="fill: #7f7f7f; stroke: #ffffff; stroke-linejoin: miter"/>
   </g>
   <g id="patch_14">
    <path d="M 184.192722 314.118438 
L 191.372202 314.118438 
L 191.372202 295.622976 
L 184.192722 295.622976 
z
" clip-path="url(#pa5bc2e6217)" style="fill: #7f7f7f; stroke: #ffffff; stroke-linejoin: miter"/>
   </g>
   <g id="patch_15">
    <path d="M 273.936221 314.118438 
L 281.115701 314.118438 
L 281.115701 184.696843 
L 273.936221 184.696843 
z
" clip-path="url(#pa5bc2e6217)" style="fill: #7f7f7f; stroke: #ffffff; stroke-linejoin: miter"/>
   </g>
   <g id="patch_16">
    <path d="M 363.679719 314.118438 
L 370.859199 314.118438 
L 370.859199 188.420856 
L 363.679719 188.420856 
z
" clip-path="url(#pa5bc2e6217)" style="fill: #7f7f7f; stroke: #ffffff; stroke-linejoin: miter"/>
   </g>
   <g id="patch_17">
    <path d="M 453.423218 314.118438 
L 460.602697 314.118438 
L 460.602697 204.513281 
L 453.423218 204.513281 
z
" clip-path="url(#pa5bc2e6217)" style="fill: #7f7f7f; stroke: #ffffff; stroke-linejoin: miter"/>
   </g>
   <g id="patch_18">
    <path d="M 101.628704 314.118438 
L 108.808184 314.118438 
L 108.808184 308.439032 
L 101.628704 308.439032 
z
" clip-path="url(#pa5bc2e6217)" style="fill: #a9aa35; stroke: #ffffff; stroke-linejoin: miter"/>
   </g>
   <g id="patch_19">
    <path d="M 191.372202 314.118438 
L 198.551682 314.118438 
L 198.551682 293.843616 
L 191.372202 293.843616 
z
" clip-path="url(#pa5bc2e6217)" style="fill: #a9aa35; stroke: #ffffff; stroke-linejoin: miter"/>
   </g>
   <g id="patch_20">
    <path d="M 281.115701 314.118438 
L 288.295181 314.118438 
L 288.295181 146.210106 
L 281.115701 146.210106 
z
" clip-path="url(#pa5bc2e6217)" style="fill: #a9aa35; stroke: #ffffff; stroke-linejoin: miter"/>
   </g>
   <g id="patch_21">
    <path d="M 370.859199 314.118438 
L 378.038679 314.118438 
L 378.038679 147.969659 
L 370.859199 147.969659 
z
" clip-path="url(#pa5bc2e6217)" style="fill: #a9aa35; stroke: #ffffff; stroke-linejoin: miter"/>
   </g>
   <g id="patch_22">
    <path d="M 460.602697 314.118438 
L 467.782177 314.118438 
L 467.782177 149.984067 
L 460.602697 149.984067 
z
" clip-path="url(#pa5bc2e6217)" style="fill: #a9aa35; stroke: #ffffff; stroke-linejoin: miter"/>
   </g>
   <g id="patch_23">
    <path d="M 108.808184 314.118438 
L 115.987664 314.118438 
L 115.987664 308.306623 
L 108.808184 308.306623 
z
" clip-path="url(#pa5bc2e6217)" style="fill: #2eabb8; stroke: #ffffff; stroke-linejoin: miter"/>
   </g>
   <g id="patch_24">
    <path d="M 198.551682 314.118438 
L 205.731162 314.118438 
L 205.731162 291.402819 
L 198.551682 291.402819 
z
" clip-path="url(#pa5bc2e6217)" style="fill: #2eabb8; stroke: #ffffff; stroke-linejoin: miter"/>
   </g>
   <g id="patch_25">
    <path d="M 288.295181 314.118438 
L 295.47466 314.118438 
L 295.47466 46.444151 
L 288.295181 46.444151 
z
" clip-path="url(#pa5bc2e6217)" style="fill: #2eabb8; stroke: #ffffff; stroke-linejoin: miter"/>
   </g>
   <g id="patch_26">
    <path d="M 378.038679 314.118438 
L 385.218159 314.118438 
L 385.218159 42.010503 
L 378.038679 42.010503 
z
" clip-path="url(#pa5bc2e6217)" style="fill: #2eabb8; stroke: #ffffff; stroke-linejoin: miter"/>
   </g>
   <g id="patch_27">
    <path d="M 467.782177 314.118438 
L 474.961657 314.118438 
L 474.961657 41.757081 
L 467.782177 41.757081 
z
" clip-path="url(#pa5bc2e6217)" style="fill: #2eabb8; stroke: #ffffff; stroke-linejoin: miter"/>
   </g>
   <g id="patch_28">
    <path d="M 80.090264 314.118438 
L 80.090264 314.118438 
L 80.090264 314.118438 
L 80.090264 314.118438 
z
" clip-path="url(#pa5bc2e6217)" style="fill: #3274a1; stroke: #ffffff; stroke-linejoin: miter"/>
   </g>
   <g id="patch_29">
    <path d="M 80.090264 314.118438 
L 80.090264 314.118438 
L 80.090264 314.118438 
L 80.090264 314.118438 
z
" clip-path="url(#pa5bc2e6217)" style="fill: #e1812c; stroke: #ffffff; stroke-linejoin: miter"/>
   </g>
   <g id="patch_30">
    <path d="M 80.090264 314.118438 
L 80.090264 314.118438 
L 80.090264 314.118438 
L 80.090264 314.118438 
z
" clip-path="url(#pa5bc2e6217)" style="fill: #3a923a; stroke: #ffffff; stroke-linejoin: miter"/>
   </g>
   <g id="patch_31">
    <path d="M 80.090264 314.118438 
L 80.090264 314.118438 
L 80.090264 314.118438 
L 80.090264 314.118438 
z
" clip-path="url(#pa5bc2e6217)" style="fill: #c03d3e; stroke: #ffffff; stroke-linejoin: miter"/>
   </g>
   <g id="patch_32">
    <path d="M 80.090264 314.118438 
L 80.090264 314.118438 
L 80.090264 314.118438 
L 80.090264 314.118438 
z
" clip-path="url(#pa5bc2e6217)" style="fill: #9372b2; stroke: #ffffff; stroke-linejoin: miter"/>
   </g>
   <g id="patch_33">
    <path d="M 80.090264 314.118438 
L 80.090264 314.118438 
L 80.090264 314.118438 
L 80.090264 314.118438 
z
" clip-path="url(#pa5bc2e6217)" style="fill: #845b53; stroke: #ffffff; stroke-linejoin: miter"/>
   </g>
   <g id="patch_34">
    <path d="M 80.090264 314.118438 
L 80.090264 314.118438 
L 80.090264 314.118438 
L 80.090264 314.118438 
z
" clip-path="url(#pa5bc2e6217)" style="fill: #d684bd; stroke: #ffffff; stroke-linejoin: miter"/>
   </g>
   <g id="patch_35">
    <path d="M 80.090264 314.118438 
L 80.090264 314.118438 
L 80.090264 314.118438 
L 80.090264 314.118438 
z
" clip-path="url(#pa5bc2e6217)" style="fill: #7f7f7f; stroke: #ffffff; stroke-linejoin: miter"/>
   </g>
   <g id="patch_36">
    <path d="M 80.090264 314.118438 
L 80.090264 314.118438 
L 80.090264 314.118438 
L 80.090264 314.118438 
z
" clip-path="url(#pa5bc2e6217)" style="fill: #a9aa35; stroke: #ffffff; stroke-linejoin: miter"/>
   </g>
   <g id="patch_37">
    <path d="M 80.090264 314.118438 
L 80.090264 314.118438 
L 80.090264 314.118438 
L 80.090264 314.118438 
z
" clip-path="url(#pa5bc2e6217)" style="fill: #2eabb8; stroke: #ffffff; stroke-linejoin: miter"/>
   </g>
   <g id="line2d_7">
    <path d="M 83.680004 310.193479 
L 83.680004 309.807214 
" clip-path="url(#pa5bc2e6217)" style="fill: none; stroke: #424242; stroke-width: 2.25; stroke-linecap: round"/>
   </g>
   <g id="line2d_8">
    <path d="M 173.423503 298.025926 
L 173.423503 293.599893 
" clip-path="url(#pa5bc2e6217)" style="fill: none; stroke: #424242; stroke-width: 2.25; stroke-linecap: round"/>
   </g>
   <g id="line2d_9">
    <path d="M 263.167001 217.150075 
L 263.167001 196.059081 
" clip-path="url(#pa5bc2e6217)" style="fill: none; stroke: #424242; stroke-width: 2.25; stroke-linecap: round"/>
   </g>
   <g id="line2d_10">
    <path d="M 352.910499 214.199771 
L 352.910499 195.111624 
" clip-path="url(#pa5bc2e6217)" style="fill: none; stroke: #424242; stroke-width: 2.25; stroke-linecap: round"/>
   </g>
   <g id="line2d_11">
    <path d="M 442.653998 221.968726 
L 442.653998 208.140781 
" clip-path="url(#pa5bc2e6217)" style="fill: none; stroke: #424242; stroke-width: 2.25; stroke-linecap: round"/>
   </g>
   <g id="line2d_12">
    <path d="M 90.859484 309.905025 
L 90.859484 308.873422 
" clip-path="url(#pa5bc2e6217)" style="fill: none; stroke: #424242; stroke-width: 2.25; stroke-linecap: round"/>
   </g>
   <g id="line2d_13">
    <path d="M 180.602982 296.808236 
L 180.602982 294.008754 
" clip-path="url(#pa5bc2e6217)" style="fill: none; stroke: #424242; stroke-width: 2.25; stroke-linecap: round"/>
   </g>
   <g id="line2d_14">
    <path d="M 270.346481 228.374798 
L 270.346481 191.980935 
" clip-path="url(#pa5bc2e6217)" style="fill: none; stroke: #424242; stroke-width: 2.25; stroke-linecap: round"/>
   </g>
   <g id="line2d_15">
    <path d="M 360.089979 219.299577 
L 360.089979 193.448055 
" clip-path="url(#pa5bc2e6217)" style="fill: none; stroke: #424242; stroke-width: 2.25; stroke-linecap: round"/>
   </g>
   <g id="line2d_16">
    <path d="M 449.833478 228.633845 
L 449.833478 226.171485 
" clip-path="url(#pa5bc2e6217)" style="fill: none; stroke: #424242; stroke-width: 2.25; stroke-linecap: round"/>
   </g>
   <g id="line2d_17">
    <path d="M 98.038964 309.235811 
L 98.038964 308.531846 
" clip-path="url(#pa5bc2e6217)" style="fill: none; stroke: #424242; stroke-width: 2.25; stroke-linecap: round"/>
   </g>
   <g id="line2d_18">
    <path d="M 187.782462 296.847814 
L 187.782462 293.196356 
" clip-path="url(#pa5bc2e6217)" style="fill: none; stroke: #424242; stroke-width: 2.25; stroke-linecap: round"/>
   </g>
   <g id="line2d_19">
    <path d="M 277.525961 201.573565 
L 277.525961 172.977134 
" clip-path="url(#pa5bc2e6217)" style="fill: none; stroke: #424242; stroke-width: 2.25; stroke-linecap: round"/>
   </g>
   <g id="line2d_20">
    <path d="M 367.269459 198.361663 
L 367.269459 182.974583 
" clip-path="url(#pa5bc2e6217)" style="fill: none; stroke: #424242; stroke-width: 2.25; stroke-linecap: round"/>
   </g>
   <g id="line2d_21">
    <path d="M 457.012957 215.415902 
L 457.012957 191.414632 
" clip-path="url(#pa5bc2e6217)" style="fill: none; stroke: #424242; stroke-width: 2.25; stroke-linecap: round"/>
   </g>
   <g id="line2d_22">
    <path d="M 105.218444 308.692903 
L 105.218444 308.202186 
" clip-path="url(#pa5bc2e6217)" style="fill: none; stroke: #424242; stroke-width: 2.25; stroke-linecap: round"/>
   </g>
   <g id="line2d_23">
    <path d="M 194.961942 295.003037 
L 194.961942 292.714545 
" clip-path="url(#pa5bc2e6217)" style="fill: none; stroke: #424242; stroke-width: 2.25; stroke-linecap: round"/>
   </g>
   <g id="line2d_24">
    <path d="M 284.705441 153.967949 
L 284.705441 141.81063 
" clip-path="url(#pa5bc2e6217)" style="fill: none; stroke: #424242; stroke-width: 2.25; stroke-linecap: round"/>
   </g>
   <g id="line2d_25">
    <path d="M 374.448939 152.259663 
L 374.448939 144.980391 
" clip-path="url(#pa5bc2e6217)" style="fill: none; stroke: #424242; stroke-width: 2.25; stroke-linecap: round"/>
   </g>
   <g id="line2d_26">
    <path d="M 464.192437 161.230194 
L 464.192437 142.704545 
" clip-path="url(#pa5bc2e6217)" style="fill: none; stroke: #424242; stroke-width: 2.25; stroke-linecap: round"/>
   </g>
   <g id="line2d_27">
    <path d="M 112.397924 308.880405 
L 112.397924 307.481507 
" clip-path="url(#pa5bc2e6217)" style="fill: none; stroke: #424242; stroke-width: 2.25; stroke-linecap: round"/>
   </g>
   <g id="line2d_28">
    <path d="M 202.141422 292.833693 
L 202.141422 288.678121 
" clip-path="url(#pa5bc2e6217)" style="fill: none; stroke: #424242; stroke-width: 2.25; stroke-linecap: round"/>
   </g>
   <g id="line2d_29">
    <path d="M 291.88492 56.19496 
L 291.88492 37.68082 
" clip-path="url(#pa5bc2e6217)" style="fill: none; stroke: #424242; stroke-width: 2.25; stroke-linecap: round"/>
   </g>
   <g id="line2d_30">
    <path d="M 381.628419 48.772367 
L 381.628419 34.766057 
" clip-path="url(#pa5bc2e6217)" style="fill: none; stroke: #424242; stroke-width: 2.25; stroke-linecap: round"/>
   </g>
   <g id="line2d_31">
    <path d="M 471.371917 46.349685 
L 471.371917 37.545375 
" clip-path="url(#pa5bc2e6217)" style="fill: none; stroke: #424242; stroke-width: 2.25; stroke-linecap: round"/>
   </g>
   <g id="patch_38">
    <path d="M 40.603125 314.118438 
L 40.603125 20.798437 
" style="fill: none; stroke: #cccccc; stroke-width: 0.8; stroke-linejoin: miter; stroke-linecap: square"/>
   </g>
   <g id="patch_39">
    <path d="M 40.603125 314.118438 
L 514.448796 314.118438 
" style="fill: none; stroke: #cccccc; stroke-width: 0.8; stroke-linejoin: miter; stroke-linecap: square"/>
   </g>
   <g id="text_14">
    <!-- job options.numjobs = 16 -->
    <g style="fill: #262626" transform="translate(213.143929 14.798437) scale(0.1 -0.1)">
     <defs>
      <path id="DejaVuSans-75" d="M 544 1381 
L 544 3500 
L 1119 3500 
L 1119 1403 
Q 1119 906 1312 657 
Q 1506 409 1894 409 
Q 2359 409 2629 706 
Q 2900 1003 2900 1516 
L 2900 3500 
L 3475 3500 
L 3475 0 
L 2900 0 
L 2900 538 
Q 2691 219 2414 64 
Q 2138 -91 1772 -91 
Q 1169 -91 856 284 
Q 544 659 544 1381 
z
M 1991 3584 
L 1991 3584 
z
" transform="scale(0.015625)"/>
      <path id="DejaVuSans-6d" d="M 3328 2828 
Q 3544 3216 3844 3400 
Q 4144 3584 4550 3584 
Q 5097 3584 5394 3201 
Q 5691 2819 5691 2113 
L 5691 0 
L 5113 0 
L 5113 2094 
Q 5113 2597 4934 2840 
Q 4756 3084 4391 3084 
Q 3944 3084 3684 2787 
Q 3425 2491 3425 1978 
L 3425 0 
L 2847 0 
L 2847 2094 
Q 2847 2600 2669 2842 
Q 2491 3084 2119 3084 
Q 1678 3084 1418 2786 
Q 1159 2488 1159 1978 
L 1159 0 
L 581 0 
L 581 3500 
L 1159 3500 
L 1159 2956 
Q 1356 3278 1631 3431 
Q 1906 3584 2284 3584 
Q 2666 3584 2933 3390 
Q 3200 3197 3328 2828 
z
" transform="scale(0.015625)"/>
      <path id="DejaVuSans-3d" d="M 678 2906 
L 4684 2906 
L 4684 2381 
L 678 2381 
L 678 2906 
z
M 678 1631 
L 4684 1631 
L 4684 1100 
L 678 1100 
L 678 1631 
z
" transform="scale(0.015625)"/>
     </defs>
     <use xlink:href="#DejaVuSans-6a"/>
     <use xlink:href="#DejaVuSans-6f" x="27.783203"/>
     <use xlink:href="#DejaVuSans-62" x="88.964844"/>
     <use xlink:href="#DejaVuSans-20" x="152.441406"/>
     <use xlink:href="#DejaVuSans-6f" x="184.228516"/>
     <use xlink:href="#DejaVuSans-70" x="245.410156"/>
     <use xlink:href="#DejaVuSans-74" x="308.886719"/>
     <use xlink:href="#DejaVuSans-69" x="348.095703"/>
     <use xlink:href="#DejaVuSans-6f" x="375.878906"/>
     <use xlink:href="#DejaVuSans-6e" x="437.060547"/>
     <use xlink:href="#DejaVuSans-73" x="500.439453"/>
     <use xlink:href="#DejaVuSans-2e" x="552.539062"/>
     <use xlink:href="#DejaVuSans-6e" x="584.326172"/>
     <use xlink:href="#DejaVuSans-75" x="647.705078"/>
     <use xlink:href="#DejaVuSans-6d" x="711.083984"/>
     <use xlink:href="#DejaVuSans-6a" x="808.496094"/>
     <use xlink:href="#DejaVuSans-6f" x="836.279297"/>
     <use xlink:href="#DejaVuSans-62" x="897.460938"/>
     <use xlink:href="#DejaVuSans-73" x="960.9375"/>
     <use xlink:href="#DejaVuSans-20" x="1013.037109"/>
     <use xlink:href="#DejaVuSans-3d" x="1044.824219"/>
     <use xlink:href="#DejaVuSans-20" x="1128.613281"/>
     <use xlink:href="#DejaVuSans-31" x="1160.400391"/>
     <use xlink:href="#DejaVuSans-36" x="1224.023438"/>
    </g>
   </g>
  </g>
  <g id="legend_1">
   <g id="text_15">
    <!-- rw_full -->
    <g style="fill: #262626" transform="translate(588.490496 105.067031) scale(0.1 -0.1)">
     <defs>
      <path id="DejaVuSans-72" d="M 2631 2963 
Q 2534 3019 2420 3045 
Q 2306 3072 2169 3072 
Q 1681 3072 1420 2755 
Q 1159 2438 1159 1844 
L 1159 0 
L 581 0 
L 581 3500 
L 1159 3500 
L 1159 2956 
Q 1341 3275 1631 3429 
Q 1922 3584 2338 3584 
Q 2397 3584 2469 3576 
Q 2541 3569 2628 3553 
L 2631 2963 
z
" transform="scale(0.015625)"/>
      <path id="DejaVuSans-5f" d="M 3263 -1063 
L 3263 -1509 
L -63 -1509 
L -63 -1063 
L 3263 -1063 
z
" transform="scale(0.015625)"/>
      <path id="DejaVuSans-66" d="M 2375 4863 
L 2375 4384 
L 1825 4384 
Q 1516 4384 1395 4259 
Q 1275 4134 1275 3809 
L 1275 3500 
L 2222 3500 
L 2222 3053 
L 1275 3053 
L 1275 0 
L 697 0 
L 697 3053 
L 147 3053 
L 147 3500 
L 697 3500 
L 697 3744 
Q 697 4328 969 4595 
Q 1241 4863 1831 4863 
L 2375 4863 
z
" transform="scale(0.015625)"/>
      <path id="DejaVuSans-6c" d="M 603 4863 
L 1178 4863 
L 1178 0 
L 603 0 
L 603 4863 
z
" transform="scale(0.015625)"/>
     </defs>
     <use xlink:href="#DejaVuSans-72"/>
     <use xlink:href="#DejaVuSans-77" x="41.113281"/>
     <use xlink:href="#DejaVuSans-5f" x="122.900391"/>
     <use xlink:href="#DejaVuSans-66" x="172.900391"/>
     <use xlink:href="#DejaVuSans-75" x="208.105469"/>
     <use xlink:href="#DejaVuSans-6c" x="271.484375"/>
     <use xlink:href="#DejaVuSans-6c" x="299.267578"/>
    </g>
   </g>
   <g id="patch_40">
    <path d="M 522.743621 120.023281 
L 542.743621 120.023281 
L 542.743621 113.023281 
L 522.743621 113.023281 
z
" style="fill: #3274a1; stroke: #ffffff; stroke-linejoin: miter"/>
   </g>
   <g id="text_16">
    <!-- Sequential Read-only -->
    <g style="fill: #262626" transform="translate(550.743621 120.023281) scale(0.1 -0.1)">
     <defs>
      <path id="DejaVuSans-53" d="M 3425 4513 
L 3425 3897 
Q 3066 4069 2747 4153 
Q 2428 4238 2131 4238 
Q 1616 4238 1336 4038 
Q 1056 3838 1056 3469 
Q 1056 3159 1242 3001 
Q 1428 2844 1947 2747 
L 2328 2669 
Q 3034 2534 3370 2195 
Q 3706 1856 3706 1288 
Q 3706 609 3251 259 
Q 2797 -91 1919 -91 
Q 1588 -91 1214 -16 
Q 841 59 441 206 
L 441 856 
Q 825 641 1194 531 
Q 1563 422 1919 422 
Q 2459 422 2753 634 
Q 3047 847 3047 1241 
Q 3047 1584 2836 1778 
Q 2625 1972 2144 2069 
L 1759 2144 
Q 1053 2284 737 2584 
Q 422 2884 422 3419 
Q 422 4038 858 4394 
Q 1294 4750 2059 4750 
Q 2388 4750 2728 4690 
Q 3069 4631 3425 4513 
z
" transform="scale(0.015625)"/>
      <path id="DejaVuSans-65" d="M 3597 1894 
L 3597 1613 
L 953 1613 
Q 991 1019 1311 708 
Q 1631 397 2203 397 
Q 2534 397 2845 478 
Q 3156 559 3463 722 
L 3463 178 
Q 3153 47 2828 -22 
Q 2503 -91 2169 -91 
Q 1331 -91 842 396 
Q 353 884 353 1716 
Q 353 2575 817 3079 
Q 1281 3584 2069 3584 
Q 2775 3584 3186 3129 
Q 3597 2675 3597 1894 
z
M 3022 2063 
Q 3016 2534 2758 2815 
Q 2500 3097 2075 3097 
Q 1594 3097 1305 2825 
Q 1016 2553 972 2059 
L 3022 2063 
z
" transform="scale(0.015625)"/>
      <path id="DejaVuSans-71" d="M 947 1747 
Q 947 1113 1208 752 
Q 1469 391 1925 391 
Q 2381 391 2643 752 
Q 2906 1113 2906 1747 
Q 2906 2381 2643 2742 
Q 2381 3103 1925 3103 
Q 1469 3103 1208 2742 
Q 947 2381 947 1747 
z
M 2906 525 
Q 2725 213 2448 61 
Q 2172 -91 1784 -91 
Q 1150 -91 751 415 
Q 353 922 353 1747 
Q 353 2572 751 3078 
Q 1150 3584 1784 3584 
Q 2172 3584 2448 3432 
Q 2725 3281 2906 2969 
L 2906 3500 
L 3481 3500 
L 3481 -1331 
L 2906 -1331 
L 2906 525 
z
" transform="scale(0.015625)"/>
      <path id="DejaVuSans-52" d="M 2841 2188 
Q 3044 2119 3236 1894 
Q 3428 1669 3622 1275 
L 4263 0 
L 3584 0 
L 2988 1197 
Q 2756 1666 2539 1819 
Q 2322 1972 1947 1972 
L 1259 1972 
L 1259 0 
L 628 0 
L 628 4666 
L 2053 4666 
Q 2853 4666 3247 4331 
Q 3641 3997 3641 3322 
Q 3641 2881 3436 2590 
Q 3231 2300 2841 2188 
z
M 1259 4147 
L 1259 2491 
L 2053 2491 
Q 2509 2491 2742 2702 
Q 2975 2913 2975 3322 
Q 2975 3731 2742 3939 
Q 2509 4147 2053 4147 
L 1259 4147 
z
" transform="scale(0.015625)"/>
      <path id="DejaVuSans-2d" d="M 313 2009 
L 1997 2009 
L 1997 1497 
L 313 1497 
L 313 2009 
z
" transform="scale(0.015625)"/>
      <path id="DejaVuSans-79" d="M 2059 -325 
Q 1816 -950 1584 -1140 
Q 1353 -1331 966 -1331 
L 506 -1331 
L 506 -850 
L 844 -850 
Q 1081 -850 1212 -737 
Q 1344 -625 1503 -206 
L 1606 56 
L 191 3500 
L 800 3500 
L 1894 763 
L 2988 3500 
L 3597 3500 
L 2059 -325 
z
" transform="scale(0.015625)"/>
     </defs>
     <use xlink:href="#DejaVuSans-53"/>
     <use xlink:href="#DejaVuSans-65" x="63.476562"/>
     <use xlink:href="#DejaVuSans-71" x="125"/>
     <use xlink:href="#DejaVuSans-75" x="188.476562"/>
     <use xlink:href="#DejaVuSans-65" x="251.855469"/>
     <use xlink:href="#DejaVuSans-6e" x="313.378906"/>
     <use xlink:href="#DejaVuSans-74" x="376.757812"/>
     <use xlink:href="#DejaVuSans-69" x="415.966797"/>
     <use xlink:href="#DejaVuSans-61" x="443.75"/>
     <use xlink:href="#DejaVuSans-6c" x="505.029297"/>
     <use xlink:href="#DejaVuSans-20" x="532.8125"/>
     <use xlink:href="#DejaVuSans-52" x="564.599609"/>
     <use xlink:href="#DejaVuSans-65" x="629.582031"/>
     <use xlink:href="#DejaVuSans-61" x="691.105469"/>
     <use xlink:href="#DejaVuSans-64" x="752.384766"/>
     <use xlink:href="#DejaVuSans-2d" x="815.861328"/>
     <use xlink:href="#DejaVuSans-6f" x="853.820312"/>
     <use xlink:href="#DejaVuSans-6e" x="915.001953"/>
     <use xlink:href="#DejaVuSans-6c" x="978.380859"/>
     <use xlink:href="#DejaVuSans-79" x="1006.164062"/>
    </g>
   </g>
   <g id="patch_41">
    <path d="M 522.743621 134.701406 
L 542.743621 134.701406 
L 542.743621 127.701406 
L 522.743621 127.701406 
z
" style="fill: #e1812c; stroke: #ffffff; stroke-linejoin: miter"/>
   </g>
   <g id="text_17">
    <!-- Sequential Read-heavy 4:1 -->
    <g style="fill: #262626" transform="translate(550.743621 134.701406) scale(0.1 -0.1)">
     <defs>
      <path id="DejaVuSans-76" d="M 191 3500 
L 800 3500 
L 1894 563 
L 2988 3500 
L 3597 3500 
L 2284 0 
L 1503 0 
L 191 3500 
z
" transform="scale(0.015625)"/>
      <path id="DejaVuSans-3a" d="M 750 794 
L 1409 794 
L 1409 0 
L 750 0 
L 750 794 
z
M 750 3309 
L 1409 3309 
L 1409 2516 
L 750 2516 
L 750 3309 
z
" transform="scale(0.015625)"/>
     </defs>
     <use xlink:href="#DejaVuSans-53"/>
     <use xlink:href="#DejaVuSans-65" x="63.476562"/>
     <use xlink:href="#DejaVuSans-71" x="125"/>
     <use xlink:href="#DejaVuSans-75" x="188.476562"/>
     <use xlink:href="#DejaVuSans-65" x="251.855469"/>
     <use xlink:href="#DejaVuSans-6e" x="313.378906"/>
     <use xlink:href="#DejaVuSans-74" x="376.757812"/>
     <use xlink:href="#DejaVuSans-69" x="415.966797"/>
     <use xlink:href="#DejaVuSans-61" x="443.75"/>
     <use xlink:href="#DejaVuSans-6c" x="505.029297"/>
     <use xlink:href="#DejaVuSans-20" x="532.8125"/>
     <use xlink:href="#DejaVuSans-52" x="564.599609"/>
     <use xlink:href="#DejaVuSans-65" x="629.582031"/>
     <use xlink:href="#DejaVuSans-61" x="691.105469"/>
     <use xlink:href="#DejaVuSans-64" x="752.384766"/>
     <use xlink:href="#DejaVuSans-2d" x="815.861328"/>
     <use xlink:href="#DejaVuSans-68" x="851.945312"/>
     <use xlink:href="#DejaVuSans-65" x="915.324219"/>
     <use xlink:href="#DejaVuSans-61" x="976.847656"/>
     <use xlink:href="#DejaVuSans-76" x="1038.126953"/>
     <use xlink:href="#DejaVuSans-79" x="1097.306641"/>
     <use xlink:href="#DejaVuSans-20" x="1156.486328"/>
     <use xlink:href="#DejaVuSans-34" x="1188.273438"/>
     <use xlink:href="#DejaVuSans-3a" x="1251.896484"/>
     <use xlink:href="#DejaVuSans-31" x="1285.587891"/>
    </g>
   </g>
   <g id="patch_42">
    <path d="M 522.743621 149.379531 
L 542.743621 149.379531 
L 542.743621 142.379531 
L 522.743621 142.379531 
z
" style="fill: #3a923a; stroke: #ffffff; stroke-linejoin: miter"/>
   </g>
   <g id="text_18">
    <!-- Sequential Balanced 1:1 -->
    <g style="fill: #262626" transform="translate(550.743621 149.379531) scale(0.1 -0.1)">
     <defs>
      <path id="DejaVuSans-63" d="M 3122 3366 
L 3122 2828 
Q 2878 2963 2633 3030 
Q 2388 3097 2138 3097 
Q 1578 3097 1268 2742 
Q 959 2388 959 1747 
Q 959 1106 1268 751 
Q 1578 397 2138 397 
Q 2388 397 2633 464 
Q 2878 531 3122 666 
L 3122 134 
Q 2881 22 2623 -34 
Q 2366 -91 2075 -91 
Q 1284 -91 818 406 
Q 353 903 353 1747 
Q 353 2603 823 3093 
Q 1294 3584 2113 3584 
Q 2378 3584 2631 3529 
Q 2884 3475 3122 3366 
z
" transform="scale(0.015625)"/>
     </defs>
     <use xlink:href="#DejaVuSans-53"/>
     <use xlink:href="#DejaVuSans-65" x="63.476562"/>
     <use xlink:href="#DejaVuSans-71" x="125"/>
     <use xlink:href="#DejaVuSans-75" x="188.476562"/>
     <use xlink:href="#DejaVuSans-65" x="251.855469"/>
     <use xlink:href="#DejaVuSans-6e" x="313.378906"/>
     <use xlink:href="#DejaVuSans-74" x="376.757812"/>
     <use xlink:href="#DejaVuSans-69" x="415.966797"/>
     <use xlink:href="#DejaVuSans-61" x="443.75"/>
     <use xlink:href="#DejaVuSans-6c" x="505.029297"/>
     <use xlink:href="#DejaVuSans-20" x="532.8125"/>
     <use xlink:href="#DejaVuSans-42" x="564.599609"/>
     <use xlink:href="#DejaVuSans-61" x="633.203125"/>
     <use xlink:href="#DejaVuSans-6c" x="694.482422"/>
     <use xlink:href="#DejaVuSans-61" x="722.265625"/>
     <use xlink:href="#DejaVuSans-6e" x="783.544922"/>
     <use xlink:href="#DejaVuSans-63" x="846.923828"/>
     <use xlink:href="#DejaVuSans-65" x="901.904297"/>
     <use xlink:href="#DejaVuSans-64" x="963.427734"/>
     <use xlink:href="#DejaVuSans-20" x="1026.904297"/>
     <use xlink:href="#DejaVuSans-31" x="1058.691406"/>
     <use xlink:href="#DejaVuSans-3a" x="1122.314453"/>
     <use xlink:href="#DejaVuSans-31" x="1156.005859"/>
    </g>
   </g>
   <g id="patch_43">
    <path d="M 522.743621 164.057656 
L 542.743621 164.057656 
L 542.743621 157.057656 
L 522.743621 157.057656 
z
" style="fill: #c03d3e; stroke: #ffffff; stroke-linejoin: miter"/>
   </g>
   <g id="text_19">
    <!-- Sequential Write-heavy 1:4 -->
    <g style="fill: #262626" transform="translate(550.743621 164.057656) scale(0.1 -0.1)">
     <defs>
      <path id="DejaVuSans-57" d="M 213 4666 
L 850 4666 
L 1831 722 
L 2809 4666 
L 3519 4666 
L 4500 722 
L 5478 4666 
L 6119 4666 
L 4947 0 
L 4153 0 
L 3169 4050 
L 2175 0 
L 1381 0 
L 213 4666 
z
" transform="scale(0.015625)"/>
     </defs>
     <use xlink:href="#DejaVuSans-53"/>
     <use xlink:href="#DejaVuSans-65" x="63.476562"/>
     <use xlink:href="#DejaVuSans-71" x="125"/>
     <use xlink:href="#DejaVuSans-75" x="188.476562"/>
     <use xlink:href="#DejaVuSans-65" x="251.855469"/>
     <use xlink:href="#DejaVuSans-6e" x="313.378906"/>
     <use xlink:href="#DejaVuSans-74" x="376.757812"/>
     <use xlink:href="#DejaVuSans-69" x="415.966797"/>
     <use xlink:href="#DejaVuSans-61" x="443.75"/>
     <use xlink:href="#DejaVuSans-6c" x="505.029297"/>
     <use xlink:href="#DejaVuSans-20" x="532.8125"/>
     <use xlink:href="#DejaVuSans-57" x="564.599609"/>
     <use xlink:href="#DejaVuSans-72" x="658.976562"/>
     <use xlink:href="#DejaVuSans-69" x="700.089844"/>
     <use xlink:href="#DejaVuSans-74" x="727.873047"/>
     <use xlink:href="#DejaVuSans-65" x="767.082031"/>
     <use xlink:href="#DejaVuSans-2d" x="828.605469"/>
     <use xlink:href="#DejaVuSans-68" x="864.689453"/>
     <use xlink:href="#DejaVuSans-65" x="928.068359"/>
     <use xlink:href="#DejaVuSans-61" x="989.591797"/>
     <use xlink:href="#DejaVuSans-76" x="1050.871094"/>
     <use xlink:href="#DejaVuSans-79" x="1110.050781"/>
     <use xlink:href="#DejaVuSans-20" x="1169.230469"/>
     <use xlink:href="#DejaVuSans-31" x="1201.017578"/>
     <use xlink:href="#DejaVuSans-3a" x="1264.640625"/>
     <use xlink:href="#DejaVuSans-34" x="1298.332031"/>
    </g>
   </g>
   <g id="patch_44">
    <path d="M 522.743621 178.735781 
L 542.743621 178.735781 
L 542.743621 171.735781 
L 522.743621 171.735781 
z
" style="fill: #9372b2; stroke: #ffffff; stroke-linejoin: miter"/>
   </g>
   <g id="text_20">
    <!-- Sequential Write-only -->
    <g style="fill: #262626" transform="translate(550.743621 178.735781) scale(0.1 -0.1)">
     <use xlink:href="#DejaVuSans-53"/>
     <use xlink:href="#DejaVuSans-65" x="63.476562"/>
     <use xlink:href="#DejaVuSans-71" x="125"/>
     <use xlink:href="#DejaVuSans-75" x="188.476562"/>
     <use xlink:href="#DejaVuSans-65" x="251.855469"/>
     <use xlink:href="#DejaVuSans-6e" x="313.378906"/>
     <use xlink:href="#DejaVuSans-74" x="376.757812"/>
     <use xlink:href="#DejaVuSans-69" x="415.966797"/>
     <use xlink:href="#DejaVuSans-61" x="443.75"/>
     <use xlink:href="#DejaVuSans-6c" x="505.029297"/>
     <use xlink:href="#DejaVuSans-20" x="532.8125"/>
     <use xlink:href="#DejaVuSans-57" x="564.599609"/>
     <use xlink:href="#DejaVuSans-72" x="658.976562"/>
     <use xlink:href="#DejaVuSans-69" x="700.089844"/>
     <use xlink:href="#DejaVuSans-74" x="727.873047"/>
     <use xlink:href="#DejaVuSans-65" x="767.082031"/>
     <use xlink:href="#DejaVuSans-2d" x="828.605469"/>
     <use xlink:href="#DejaVuSans-6f" x="866.564453"/>
     <use xlink:href="#DejaVuSans-6e" x="927.746094"/>
     <use xlink:href="#DejaVuSans-6c" x="991.125"/>
     <use xlink:href="#DejaVuSans-79" x="1018.908203"/>
    </g>
   </g>
   <g id="patch_45">
    <path d="M 522.743621 193.413906 
L 542.743621 193.413906 
L 542.743621 186.413906 
L 522.743621 186.413906 
z
" style="fill: #845b53; stroke: #ffffff; stroke-linejoin: miter"/>
   </g>
   <g id="text_21">
    <!-- Random Read-only -->
    <g style="fill: #262626" transform="translate(550.743621 193.413906) scale(0.1 -0.1)">
     <use xlink:href="#DejaVuSans-52"/>
     <use xlink:href="#DejaVuSans-61" x="67.232422"/>
     <use xlink:href="#DejaVuSans-6e" x="128.511719"/>
     <use xlink:href="#DejaVuSans-64" x="191.890625"/>
     <use xlink:href="#DejaVuSans-6f" x="255.367188"/>
     <use xlink:href="#DejaVuSans-6d" x="316.548828"/>
     <use xlink:href="#DejaVuSans-20" x="413.960938"/>
     <use xlink:href="#DejaVuSans-52" x="445.748047"/>
     <use xlink:href="#DejaVuSans-65" x="510.730469"/>
     <use xlink:href="#DejaVuSans-61" x="572.253906"/>
     <use xlink:href="#DejaVuSans-64" x="633.533203"/>
     <use xlink:href="#DejaVuSans-2d" x="697.009766"/>
     <use xlink:href="#DejaVuSans-6f" x="734.96875"/>
     <use xlink:href="#DejaVuSans-6e" x="796.150391"/>
     <use xlink:href="#DejaVuSans-6c" x="859.529297"/>
     <use xlink:href="#DejaVuSans-79" x="887.3125"/>
    </g>
   </g>
   <g id="patch_46">
    <path d="M 522.743621 208.092031 
L 542.743621 208.092031 
L 542.743621 201.092031 
L 522.743621 201.092031 
z
" style="fill: #d684bd; stroke: #ffffff; stroke-linejoin: miter"/>
   </g>
   <g id="text_22">
    <!-- Random Read-heavy 4:1 -->
    <g style="fill: #262626" transform="translate(550.743621 208.092031) scale(0.1 -0.1)">
     <use xlink:href="#DejaVuSans-52"/>
     <use xlink:href="#DejaVuSans-61" x="67.232422"/>
     <use xlink:href="#DejaVuSans-6e" x="128.511719"/>
     <use xlink:href="#DejaVuSans-64" x="191.890625"/>
     <use xlink:href="#DejaVuSans-6f" x="255.367188"/>
     <use xlink:href="#DejaVuSans-6d" x="316.548828"/>
     <use xlink:href="#DejaVuSans-20" x="413.960938"/>
     <use xlink:href="#DejaVuSans-52" x="445.748047"/>
     <use xlink:href="#DejaVuSans-65" x="510.730469"/>
     <use xlink:href="#DejaVuSans-61" x="572.253906"/>
     <use xlink:href="#DejaVuSans-64" x="633.533203"/>
     <use xlink:href="#DejaVuSans-2d" x="697.009766"/>
     <use xlink:href="#DejaVuSans-68" x="733.09375"/>
     <use xlink:href="#DejaVuSans-65" x="796.472656"/>
     <use xlink:href="#DejaVuSans-61" x="857.996094"/>
     <use xlink:href="#DejaVuSans-76" x="919.275391"/>
     <use xlink:href="#DejaVuSans-79" x="978.455078"/>
     <use xlink:href="#DejaVuSans-20" x="1037.634766"/>
     <use xlink:href="#DejaVuSans-34" x="1069.421875"/>
     <use xlink:href="#DejaVuSans-3a" x="1133.044922"/>
     <use xlink:href="#DejaVuSans-31" x="1166.736328"/>
    </g>
   </g>
   <g id="patch_47">
    <path d="M 522.743621 222.770156 
L 542.743621 222.770156 
L 542.743621 215.770156 
L 522.743621 215.770156 
z
" style="fill: #7f7f7f; stroke: #ffffff; stroke-linejoin: miter"/>
   </g>
   <g id="text_23">
    <!-- Random Balanced 1:1 -->
    <g style="fill: #262626" transform="translate(550.743621 222.770156) scale(0.1 -0.1)">
     <use xlink:href="#DejaVuSans-52"/>
     <use xlink:href="#DejaVuSans-61" x="67.232422"/>
     <use xlink:href="#DejaVuSans-6e" x="128.511719"/>
     <use xlink:href="#DejaVuSans-64" x="191.890625"/>
     <use xlink:href="#DejaVuSans-6f" x="255.367188"/>
     <use xlink:href="#DejaVuSans-6d" x="316.548828"/>
     <use xlink:href="#DejaVuSans-20" x="413.960938"/>
     <use xlink:href="#DejaVuSans-42" x="445.748047"/>
     <use xlink:href="#DejaVuSans-61" x="514.351562"/>
     <use xlink:href="#DejaVuSans-6c" x="575.630859"/>
     <use xlink:href="#DejaVuSans-61" x="603.414062"/>
     <use xlink:href="#DejaVuSans-6e" x="664.693359"/>
     <use xlink:href="#DejaVuSans-63" x="728.072266"/>
     <use xlink:href="#DejaVuSans-65" x="783.052734"/>
     <use xlink:href="#DejaVuSans-64" x="844.576172"/>
     <use xlink:href="#DejaVuSans-20" x="908.052734"/>
     <use xlink:href="#DejaVuSans-31" x="939.839844"/>
     <use xlink:href="#DejaVuSans-3a" x="1003.462891"/>
     <use xlink:href="#DejaVuSans-31" x="1037.154297"/>
    </g>
   </g>
   <g id="patch_48">
    <path d="M 522.743621 237.448281 
L 542.743621 237.448281 
L 542.743621 230.448281 
L 522.743621 230.448281 
z
" style="fill: #a9aa35; stroke: #ffffff; stroke-linejoin: miter"/>
   </g>
   <g id="text_24">
    <!-- Random Write-heavy 1:4 -->
    <g style="fill: #262626" transform="translate(550.743621 237.448281) scale(0.1 -0.1)">
     <use xlink:href="#DejaVuSans-52"/>
     <use xlink:href="#DejaVuSans-61" x="67.232422"/>
     <use xlink:href="#DejaVuSans-6e" x="128.511719"/>
     <use xlink:href="#DejaVuSans-64" x="191.890625"/>
     <use xlink:href="#DejaVuSans-6f" x="255.367188"/>
     <use xlink:href="#DejaVuSans-6d" x="316.548828"/>
     <use xlink:href="#DejaVuSans-20" x="413.960938"/>
     <use xlink:href="#DejaVuSans-57" x="445.748047"/>
     <use xlink:href="#DejaVuSans-72" x="540.125"/>
     <use xlink:href="#DejaVuSans-69" x="581.238281"/>
     <use xlink:href="#DejaVuSans-74" x="609.021484"/>
     <use xlink:href="#DejaVuSans-65" x="648.230469"/>
     <use xlink:href="#DejaVuSans-2d" x="709.753906"/>
     <use xlink:href="#DejaVuSans-68" x="745.837891"/>
     <use xlink:href="#DejaVuSans-65" x="809.216797"/>
     <use xlink:href="#DejaVuSans-61" x="870.740234"/>
     <use xlink:href="#DejaVuSans-76" x="932.019531"/>
     <use xlink:href="#DejaVuSans-79" x="991.199219"/>
     <use xlink:href="#DejaVuSans-20" x="1050.378906"/>
     <use xlink:href="#DejaVuSans-31" x="1082.166016"/>
     <use xlink:href="#DejaVuSans-3a" x="1145.789062"/>
     <use xlink:href="#DejaVuSans-34" x="1179.480469"/>
    </g>
   </g>
   <g id="patch_49">
    <path d="M 522.743621 252.126406 
L 542.743621 252.126406 
L 542.743621 245.126406 
L 522.743621 245.126406 
z
" style="fill: #2eabb8; stroke: #ffffff; stroke-linejoin: miter"/>
   </g>
   <g id="text_25">
    <!-- Random Write-only -->
    <g style="fill: #262626" transform="translate(550.743621 252.126406) scale(0.1 -0.1)">
     <use xlink:href="#DejaVuSans-52"/>
     <use xlink:href="#DejaVuSans-61" x="67.232422"/>
     <use xlink:href="#DejaVuSans-6e" x="128.511719"/>
     <use xlink:href="#DejaVuSans-64" x="191.890625"/>
     <use xlink:href="#DejaVuSans-6f" x="255.367188"/>
     <use xlink:href="#DejaVuSans-6d" x="316.548828"/>
     <use xlink:href="#DejaVuSans-20" x="413.960938"/>
     <use xlink:href="#DejaVuSans-57" x="445.748047"/>
     <use xlink:href="#DejaVuSans-72" x="540.125"/>
     <use xlink:href="#DejaVuSans-69" x="581.238281"/>
     <use xlink:href="#DejaVuSans-74" x="609.021484"/>
     <use xlink:href="#DejaVuSans-65" x="648.230469"/>
     <use xlink:href="#DejaVuSans-2d" x="709.753906"/>
     <use xlink:href="#DejaVuSans-6f" x="747.712891"/>
     <use xlink:href="#DejaVuSans-6e" x="808.894531"/>
     <use xlink:href="#DejaVuSans-6c" x="872.273438"/>
     <use xlink:href="#DejaVuSans-79" x="900.056641"/>
    </g>
   </g>
  </g>
 </g>
 <defs>
  <clipPath id="pa5bc2e6217">
   <rect x="40.603125" y="20.798437" width="473.845671" height="293.32"/>
  </clipPath>
 </defs>
</svg>
