<?xml version="1.0" encoding="utf-8" standalone="no"?>
<!DOCTYPE svg PUBLIC "-//W3C//DTD SVG 1.1//EN"
  "http://www.w3.org/Graphics/SVG/1.1/DTD/svg11.dtd">
<svg xmlns:xlink="http://www.w3.org/1999/xlink" width="408.10125pt" height="325.986375pt" viewBox="0 0 408.10125 325.986375" xmlns="http://www.w3.org/2000/svg" version="1.1">
 <metadata>
  <rdf:RDF xmlns:dc="http://purl.org/dc/elements/1.1/" xmlns:cc="http://creativecommons.org/ns#" xmlns:rdf="http://www.w3.org/1999/02/22-rdf-syntax-ns#">
   <cc:Work>
    <dc:type rdf:resource="http://purl.org/dc/dcmitype/StillImage"/>
    <dc:date>2025-09-08T07:57:13.597624</dc:date>
    <dc:format>image/svg+xml</dc:format>
    <dc:creator>
     <cc:Agent>
      <dc:title>Matplotlib v3.10.6, https://matplotlib.org/</dc:title>
     </cc:Agent>
    </dc:creator>
   </cc:Work>
  </rdf:RDF>
 </metadata>
 <defs>
  <style type="text/css">*{stroke-linejoin: round; stroke-linecap: butt}</style>
 </defs>
 <g id="figure_1">
  <g id="patch_1">
   <path d="M 0 325.986375 
L 408.10125 325.986375 
L 408.10125 0 
L 0 0 
z
" style="fill: #ffffff"/>
  </g>
  <g id="axes_1">
   <g id="patch_2">
    <path d="M 43.78125 288.430125 
L 400.90125 288.430125 
L 400.90125 22.318125 
L 43.78125 22.318125 
z
" style="fill: #ffffff"/>
   </g>
   <g id="matplotlib.axis_1">
    <g id="xtick_1">
     <g id="line2d_1">
      <path d="M 199.15164 288.430125 
L 199.15164 22.318125 
" clip-path="url(#p6695bffe19)" style="fill: none; stroke: #cccccc; stroke-width: 0.8; stroke-linecap: round"/>
     </g>
     <g id="text_1">
      <!-- 64 -->
      <g style="fill: #262626" transform="translate(192.78914 303.028562) scale(0.1 -0.1)">
       <defs>
        <path id="DejaVuSans-36" d="M 2113 2584 
Q 1688 2584 1439 2293 
Q 1191 2003 1191 1497 
Q 1191 994 1439 701 
Q 1688 409 2113 409 
Q 2538 409 2786 701 
Q 3034 994 3034 1497 
Q 3034 2003 2786 2293 
Q 2538 2584 2113 2584 
z
M 3366 4563 
L 3366 3988 
Q 3128 4100 2886 4159 
Q 2644 4219 2406 4219 
Q 1781 4219 1451 3797 
Q 1122 3375 1075 2522 
Q 1259 2794 1537 2939 
Q 1816 3084 2150 3084 
Q 2853 3084 3261 2657 
Q 3669 2231 3669 1497 
Q 3669 778 3244 343 
Q 2819 -91 2113 -91 
Q 1303 -91 875 529 
Q 447 1150 447 2328 
Q 447 3434 972 4092 
Q 1497 4750 2381 4750 
Q 2619 4750 2861 4703 
Q 3103 4656 3366 4563 
z
" transform="scale(0.015625)"/>
        <path id="DejaVuSans-34" d="M 2419 4116 
L 825 1625 
L 2419 1625 
L 2419 4116 
z
M 2253 4666 
L 3047 4666 
L 3047 1625 
L 3713 1625 
L 3713 1100 
L 3047 1100 
L 3047 0 
L 2419 0 
L 2419 1100 
L 313 1100 
L 313 1709 
L 2253 4666 
z
" transform="scale(0.015625)"/>
       </defs>
       <use xlink:href="#DejaVuSans-36"/>
       <use xlink:href="#DejaVuSans-34" transform="translate(63.623047 0)"/>
      </g>
     </g>
    </g>
    <g id="xtick_2">
     <g id="line2d_2">
      <path d="M 106.393198 288.430125 
L 106.393198 22.318125 
" clip-path="url(#p6695bffe19)" style="fill: none; stroke: #cccccc; stroke-width: 0.8; stroke-linecap: round"/>
     </g>
     <g id="text_2">
      <!-- 32 -->
      <g style="fill: #262626" transform="translate(100.030698 303.028562) scale(0.1 -0.1)">
       <defs>
        <path id="DejaVuSans-33" d="M 2597 2516 
Q 3050 2419 3304 2112 
Q 3559 1806 3559 1356 
Q 3559 666 3084 287 
Q 2609 -91 1734 -91 
Q 1441 -91 1130 -33 
Q 819 25 488 141 
L 488 750 
Q 750 597 1062 519 
Q 1375 441 1716 441 
Q 2309 441 2620 675 
Q 2931 909 2931 1356 
Q 2931 1769 2642 2001 
Q 2353 2234 1838 2234 
L 1294 2234 
L 1294 2753 
L 1863 2753 
Q 2328 2753 2575 2939 
Q 2822 3125 2822 3475 
Q 2822 3834 2567 4026 
Q 2313 4219 1838 4219 
Q 1578 4219 1281 4162 
Q 984 4106 628 3988 
L 628 4550 
Q 988 4650 1302 4700 
Q 1616 4750 1894 4750 
Q 2613 4750 3031 4423 
Q 3450 4097 3450 3541 
Q 3450 3153 3228 2886 
Q 3006 2619 2597 2516 
z
" transform="scale(0.015625)"/>
        <path id="DejaVuSans-32" d="M 1228 531 
L 3431 531 
L 3431 0 
L 469 0 
L 469 531 
Q 828 903 1448 1529 
Q 2069 2156 2228 2338 
Q 2531 2678 2651 2914 
Q 2772 3150 2772 3378 
Q 2772 3750 2511 3984 
Q 2250 4219 1831 4219 
Q 1534 4219 1204 4116 
Q 875 4013 500 3803 
L 500 4441 
Q 881 4594 1212 4672 
Q 1544 4750 1819 4750 
Q 2544 4750 2975 4387 
Q 3406 4025 3406 3419 
Q 3406 3131 3298 2873 
Q 3191 2616 2906 2266 
Q 2828 2175 2409 1742 
Q 1991 1309 1228 531 
z
" transform="scale(0.015625)"/>
       </defs>
       <use xlink:href="#DejaVuSans-33"/>
       <use xlink:href="#DejaVuSans-32" transform="translate(63.623047 0)"/>
      </g>
     </g>
    </g>
    <g id="xtick_3">
     <g id="line2d_3">
      <path d="M 60.013977 288.430125 
L 60.013977 22.318125 
" clip-path="url(#p6695bffe19)" style="fill: none; stroke: #cccccc; stroke-width: 0.8; stroke-linecap: round"/>
     </g>
     <g id="text_3">
      <!-- 16 -->
      <g style="fill: #262626" transform="translate(53.651477 303.028562) scale(0.1 -0.1)">
       <defs>
        <path id="DejaVuSans-31" d="M 794 531 
L 1825 531 
L 1825 4091 
L 703 3866 
L 703 4441 
L 1819 4666 
L 2450 4666 
L 2450 531 
L 3481 531 
L 3481 0 
L 794 0 
L 794 531 
z
" transform="scale(0.015625)"/>
       </defs>
       <use xlink:href="#DejaVuSans-31"/>
       <use xlink:href="#DejaVuSans-36" transform="translate(63.623047 0)"/>
      </g>
     </g>
    </g>
    <g id="xtick_4">
     <g id="line2d_4">
      <path d="M 384.668523 288.430125 
L 384.668523 22.318125 
" clip-path="url(#p6695bffe19)" style="fill: none; stroke: #cccccc; stroke-width: 0.8; stroke-linecap: round"/>
     </g>
     <g id="text_4">
      <!-- 128 -->
      <g style="fill: #262626" transform="translate(375.124773 303.028562) scale(0.1 -0.1)">
       <defs>
        <path id="DejaVuSans-38" d="M 2034 2216 
Q 1584 2216 1326 1975 
Q 1069 1734 1069 1313 
Q 1069 891 1326 650 
Q 1584 409 2034 409 
Q 2484 409 2743 651 
Q 3003 894 3003 1313 
Q 3003 1734 2745 1975 
Q 2488 2216 2034 2216 
z
M 1403 2484 
Q 997 2584 770 2862 
Q 544 3141 544 3541 
Q 544 4100 942 4425 
Q 1341 4750 2034 4750 
Q 2731 4750 3128 4425 
Q 3525 4100 3525 3541 
Q 3525 3141 3298 2862 
Q 3072 2584 2669 2484 
Q 3125 2378 3379 2068 
Q 3634 1759 3634 1313 
Q 3634 634 3220 271 
Q 2806 -91 2034 -91 
Q 1263 -91 848 271 
Q 434 634 434 1313 
Q 434 1759 690 2068 
Q 947 2378 1403 2484 
z
M 1172 3481 
Q 1172 3119 1398 2916 
Q 1625 2713 2034 2713 
Q 2441 2713 2670 2916 
Q 2900 3119 2900 3481 
Q 2900 3844 2670 4047 
Q 2441 4250 2034 4250 
Q 1625 4250 1398 4047 
Q 1172 3844 1172 3481 
z
" transform="scale(0.015625)"/>
       </defs>
       <use xlink:href="#DejaVuSans-31"/>
       <use xlink:href="#DejaVuSans-32" transform="translate(63.623047 0)"/>
       <use xlink:href="#DejaVuSans-38" transform="translate(127.246094 0)"/>
      </g>
     </g>
    </g>
    <g id="text_5">
     <!-- Number of Jobs -->
     <g style="fill: #262626" transform="translate(183.944375 316.706687) scale(0.1 -0.1)">
      <defs>
       <path id="DejaVuSans-4e" d="M 628 4666 
L 1478 4666 
L 3547 763 
L 3547 4666 
L 4159 4666 
L 4159 0 
L 3309 0 
L 1241 3903 
L 1241 0 
L 628 0 
L 628 4666 
z
" transform="scale(0.015625)"/>
       <path id="DejaVuSans-75" d="M 544 1381 
L 544 3500 
L 1119 3500 
L 1119 1403 
Q 1119 906 1312 657 
Q 1506 409 1894 409 
Q 2359 409 2629 706 
Q 2900 1003 2900 1516 
L 2900 3500 
L 3475 3500 
L 3475 0 
L 2900 0 
L 2900 538 
Q 2691 219 2414 64 
Q 2138 -91 1772 -91 
Q 1169 -91 856 284 
Q 544 659 544 1381 
z
M 1991 3584 
L 1991 3584 
z
" transform="scale(0.015625)"/>
       <path id="DejaVuSans-6d" d="M 3328 2828 
Q 3544 3216 3844 3400 
Q 4144 3584 4550 3584 
Q 5097 3584 5394 3201 
Q 5691 2819 5691 2113 
L 5691 0 
L 5113 0 
L 5113 2094 
Q 5113 2597 4934 2840 
Q 4756 3084 4391 3084 
Q 3944 3084 3684 2787 
Q 3425 2491 3425 1978 
L 3425 0 
L 2847 0 
L 2847 2094 
Q 2847 2600 2669 2842 
Q 2491 3084 2119 3084 
Q 1678 3084 1418 2786 
Q 1159 2488 1159 1978 
L 1159 0 
L 581 0 
L 581 3500 
L 1159 3500 
L 1159 2956 
Q 1356 3278 1631 3431 
Q 1906 3584 2284 3584 
Q 2666 3584 2933 3390 
Q 3200 3197 3328 2828 
z
" transform="scale(0.015625)"/>
       <path id="DejaVuSans-62" d="M 3116 1747 
Q 3116 2381 2855 2742 
Q 2594 3103 2138 3103 
Q 1681 3103 1420 2742 
Q 1159 2381 1159 1747 
Q 1159 1113 1420 752 
Q 1681 391 2138 391 
Q 2594 391 2855 752 
Q 3116 1113 3116 1747 
z
M 1159 2969 
Q 1341 3281 1617 3432 
Q 1894 3584 2278 3584 
Q 2916 3584 3314 3078 
Q 3713 2572 3713 1747 
Q 3713 922 3314 415 
Q 2916 -91 2278 -91 
Q 1894 -91 1617 61 
Q 1341 213 1159 525 
L 1159 0 
L 581 0 
L 581 4863 
L 1159 4863 
L 1159 2969 
z
" transform="scale(0.015625)"/>
       <path id="DejaVuSans-65" d="M 3597 1894 
L 3597 1613 
L 953 1613 
Q 991 1019 1311 708 
Q 1631 397 2203 397 
Q 2534 397 2845 478 
Q 3156 559 3463 722 
L 3463 178 
Q 3153 47 2828 -22 
Q 2503 -91 2169 -91 
Q 1331 -91 842 396 
Q 353 884 353 1716 
Q 353 2575 817 3079 
Q 1281 3584 2069 3584 
Q 2775 3584 3186 3129 
Q 3597 2675 3597 1894 
z
M 3022 2063 
Q 3016 2534 2758 2815 
Q 2500 3097 2075 3097 
Q 1594 3097 1305 2825 
Q 1016 2553 972 2059 
L 3022 2063 
z
" transform="scale(0.015625)"/>
       <path id="DejaVuSans-72" d="M 2631 2963 
Q 2534 3019 2420 3045 
Q 2306 3072 2169 3072 
Q 1681 3072 1420 2755 
Q 1159 2438 1159 1844 
L 1159 0 
L 581 0 
L 581 3500 
L 1159 3500 
L 1159 2956 
Q 1341 3275 1631 3429 
Q 1922 3584 2338 3584 
Q 2397 3584 2469 3576 
Q 2541 3569 2628 3553 
L 2631 2963 
z
" transform="scale(0.015625)"/>
       <path id="DejaVuSans-20" transform="scale(0.015625)"/>
       <path id="DejaVuSans-6f" d="M 1959 3097 
Q 1497 3097 1228 2736 
Q 959 2375 959 1747 
Q 959 1119 1226 758 
Q 1494 397 1959 397 
Q 2419 397 2687 759 
Q 2956 1122 2956 1747 
Q 2956 2369 2687 2733 
Q 2419 3097 1959 3097 
z
M 1959 3584 
Q 2709 3584 3137 3096 
Q 3566 2609 3566 1747 
Q 3566 888 3137 398 
Q 2709 -91 1959 -91 
Q 1206 -91 779 398 
Q 353 888 353 1747 
Q 353 2609 779 3096 
Q 1206 3584 1959 3584 
z
" transform="scale(0.015625)"/>
       <path id="DejaVuSans-66" d="M 2375 4863 
L 2375 4384 
L 1825 4384 
Q 1516 4384 1395 4259 
Q 1275 4134 1275 3809 
L 1275 3500 
L 2222 3500 
L 2222 3053 
L 1275 3053 
L 1275 0 
L 697 0 
L 697 3053 
L 147 3053 
L 147 3500 
L 697 3500 
L 697 3744 
Q 697 4328 969 4595 
Q 1241 4863 1831 4863 
L 2375 4863 
z
" transform="scale(0.015625)"/>
       <path id="DejaVuSans-4a" d="M 628 4666 
L 1259 4666 
L 1259 325 
Q 1259 -519 939 -900 
Q 619 -1281 -91 -1281 
L -331 -1281 
L -331 -750 
L -134 -750 
Q 284 -750 456 -515 
Q 628 -281 628 325 
L 628 4666 
z
" transform="scale(0.015625)"/>
       <path id="DejaVuSans-73" d="M 2834 3397 
L 2834 2853 
Q 2591 2978 2328 3040 
Q 2066 3103 1784 3103 
Q 1356 3103 1142 2972 
Q 928 2841 928 2578 
Q 928 2378 1081 2264 
Q 1234 2150 1697 2047 
L 1894 2003 
Q 2506 1872 2764 1633 
Q 3022 1394 3022 966 
Q 3022 478 2636 193 
Q 2250 -91 1575 -91 
Q 1294 -91 989 -36 
Q 684 19 347 128 
L 347 722 
Q 666 556 975 473 
Q 1284 391 1588 391 
Q 1994 391 2212 530 
Q 2431 669 2431 922 
Q 2431 1156 2273 1281 
Q 2116 1406 1581 1522 
L 1381 1569 
Q 847 1681 609 1914 
Q 372 2147 372 2553 
Q 372 3047 722 3315 
Q 1072 3584 1716 3584 
Q 2034 3584 2315 3537 
Q 2597 3491 2834 3397 
z
" transform="scale(0.015625)"/>
      </defs>
      <use xlink:href="#DejaVuSans-4e"/>
      <use xlink:href="#DejaVuSans-75" transform="translate(74.804688 0)"/>
      <use xlink:href="#DejaVuSans-6d" transform="translate(138.183594 0)"/>
      <use xlink:href="#DejaVuSans-62" transform="translate(235.595703 0)"/>
      <use xlink:href="#DejaVuSans-65" transform="translate(299.072266 0)"/>
      <use xlink:href="#DejaVuSans-72" transform="translate(360.595703 0)"/>
      <use xlink:href="#DejaVuSans-20" transform="translate(401.708984 0)"/>
      <use xlink:href="#DejaVuSans-6f" transform="translate(433.496094 0)"/>
      <use xlink:href="#DejaVuSans-66" transform="translate(494.677734 0)"/>
      <use xlink:href="#DejaVuSans-20" transform="translate(529.882812 0)"/>
      <use xlink:href="#DejaVuSans-4a" transform="translate(561.669922 0)"/>
      <use xlink:href="#DejaVuSans-6f" transform="translate(591.162109 0)"/>
      <use xlink:href="#DejaVuSans-62" transform="translate(652.34375 0)"/>
      <use xlink:href="#DejaVuSans-73" transform="translate(715.820312 0)"/>
     </g>
    </g>
   </g>
   <g id="matplotlib.axis_2">
    <g id="ytick_1">
     <g id="line2d_5">
      <path d="M 43.78125 278.130684 
L 400.90125 278.130684 
" clip-path="url(#p6695bffe19)" style="fill: none; stroke: #cccccc; stroke-width: 0.8; stroke-linecap: round"/>
     </g>
     <g id="text_6">
      <!-- 0.0 -->
      <g style="fill: #262626" transform="translate(20.878125 281.929903) scale(0.1 -0.1)">
       <defs>
        <path id="DejaVuSans-30" d="M 2034 4250 
Q 1547 4250 1301 3770 
Q 1056 3291 1056 2328 
Q 1056 1369 1301 889 
Q 1547 409 2034 409 
Q 2525 409 2770 889 
Q 3016 1369 3016 2328 
Q 3016 3291 2770 3770 
Q 2525 4250 2034 4250 
z
M 2034 4750 
Q 2819 4750 3233 4129 
Q 3647 3509 3647 2328 
Q 3647 1150 3233 529 
Q 2819 -91 2034 -91 
Q 1250 -91 836 529 
Q 422 1150 422 2328 
Q 422 3509 836 4129 
Q 1250 4750 2034 4750 
z
" transform="scale(0.015625)"/>
        <path id="DejaVuSans-2e" d="M 684 794 
L 1344 794 
L 1344 0 
L 684 0 
L 684 794 
z
" transform="scale(0.015625)"/>
       </defs>
       <use xlink:href="#DejaVuSans-30"/>
       <use xlink:href="#DejaVuSans-2e" transform="translate(63.623047 0)"/>
       <use xlink:href="#DejaVuSans-30" transform="translate(95.410156 0)"/>
      </g>
     </g>
    </g>
    <g id="ytick_2">
     <g id="line2d_6">
      <path d="M 43.78125 247.496546 
L 400.90125 247.496546 
" clip-path="url(#p6695bffe19)" style="fill: none; stroke: #cccccc; stroke-width: 0.8; stroke-linecap: round"/>
     </g>
     <g id="text_7">
      <!-- 0.2 -->
      <g style="fill: #262626" transform="translate(20.878125 251.295765) scale(0.1 -0.1)">
       <use xlink:href="#DejaVuSans-30"/>
       <use xlink:href="#DejaVuSans-2e" transform="translate(63.623047 0)"/>
       <use xlink:href="#DejaVuSans-32" transform="translate(95.410156 0)"/>
      </g>
     </g>
    </g>
    <g id="ytick_3">
     <g id="line2d_7">
      <path d="M 43.78125 216.862409 
L 400.90125 216.862409 
" clip-path="url(#p6695bffe19)" style="fill: none; stroke: #cccccc; stroke-width: 0.8; stroke-linecap: round"/>
     </g>
     <g id="text_8">
      <!-- 0.4 -->
      <g style="fill: #262626" transform="translate(20.878125 220.661627) scale(0.1 -0.1)">
       <use xlink:href="#DejaVuSans-30"/>
       <use xlink:href="#DejaVuSans-2e" transform="translate(63.623047 0)"/>
       <use xlink:href="#DejaVuSans-34" transform="translate(95.410156 0)"/>
      </g>
     </g>
    </g>
    <g id="ytick_4">
     <g id="line2d_8">
      <path d="M 43.78125 186.228271 
L 400.90125 186.228271 
" clip-path="url(#p6695bffe19)" style="fill: none; stroke: #cccccc; stroke-width: 0.8; stroke-linecap: round"/>
     </g>
     <g id="text_9">
      <!-- 0.6 -->
      <g style="fill: #262626" transform="translate(20.878125 190.027489) scale(0.1 -0.1)">
       <use xlink:href="#DejaVuSans-30"/>
       <use xlink:href="#DejaVuSans-2e" transform="translate(63.623047 0)"/>
       <use xlink:href="#DejaVuSans-36" transform="translate(95.410156 0)"/>
      </g>
     </g>
    </g>
    <g id="ytick_5">
     <g id="line2d_9">
      <path d="M 43.78125 155.594133 
L 400.90125 155.594133 
" clip-path="url(#p6695bffe19)" style="fill: none; stroke: #cccccc; stroke-width: 0.8; stroke-linecap: round"/>
     </g>
     <g id="text_10">
      <!-- 0.8 -->
      <g style="fill: #262626" transform="translate(20.878125 159.393352) scale(0.1 -0.1)">
       <use xlink:href="#DejaVuSans-30"/>
       <use xlink:href="#DejaVuSans-2e" transform="translate(63.623047 0)"/>
       <use xlink:href="#DejaVuSans-38" transform="translate(95.410156 0)"/>
      </g>
     </g>
    </g>
    <g id="ytick_6">
     <g id="line2d_10">
      <path d="M 43.78125 124.959995 
L 400.90125 124.959995 
" clip-path="url(#p6695bffe19)" style="fill: none; stroke: #cccccc; stroke-width: 0.8; stroke-linecap: round"/>
     </g>
     <g id="text_11">
      <!-- 1.0 -->
      <g style="fill: #262626" transform="translate(20.878125 128.759214) scale(0.1 -0.1)">
       <use xlink:href="#DejaVuSans-31"/>
       <use xlink:href="#DejaVuSans-2e" transform="translate(63.623047 0)"/>
       <use xlink:href="#DejaVuSans-30" transform="translate(95.410156 0)"/>
      </g>
     </g>
    </g>
    <g id="ytick_7">
     <g id="line2d_11">
      <path d="M 43.78125 94.325857 
L 400.90125 94.325857 
" clip-path="url(#p6695bffe19)" style="fill: none; stroke: #cccccc; stroke-width: 0.8; stroke-linecap: round"/>
     </g>
     <g id="text_12">
      <!-- 1.2 -->
      <g style="fill: #262626" transform="translate(20.878125 98.125076) scale(0.1 -0.1)">
       <use xlink:href="#DejaVuSans-31"/>
       <use xlink:href="#DejaVuSans-2e" transform="translate(63.623047 0)"/>
       <use xlink:href="#DejaVuSans-32" transform="translate(95.410156 0)"/>
      </g>
     </g>
    </g>
    <g id="ytick_8">
     <g id="line2d_12">
      <path d="M 43.78125 63.69172 
L 400.90125 63.69172 
" clip-path="url(#p6695bffe19)" style="fill: none; stroke: #cccccc; stroke-width: 0.8; stroke-linecap: round"/>
     </g>
     <g id="text_13">
      <!-- 1.4 -->
      <g style="fill: #262626" transform="translate(20.878125 67.490938) scale(0.1 -0.1)">
       <use xlink:href="#DejaVuSans-31"/>
       <use xlink:href="#DejaVuSans-2e" transform="translate(63.623047 0)"/>
       <use xlink:href="#DejaVuSans-34" transform="translate(95.410156 0)"/>
      </g>
     </g>
    </g>
    <g id="ytick_9">
     <g id="line2d_13">
      <path d="M 43.78125 33.057582 
L 400.90125 33.057582 
" clip-path="url(#p6695bffe19)" style="fill: none; stroke: #cccccc; stroke-width: 0.8; stroke-linecap: round"/>
     </g>
     <g id="text_14">
      <!-- 1.6 -->
      <g style="fill: #262626" transform="translate(20.878125 36.856801) scale(0.1 -0.1)">
       <use xlink:href="#DejaVuSans-31"/>
       <use xlink:href="#DejaVuSans-2e" transform="translate(63.623047 0)"/>
       <use xlink:href="#DejaVuSans-36" transform="translate(95.410156 0)"/>
      </g>
     </g>
    </g>
    <g id="text_15">
     <!-- Mean Latency (ns) -->
     <g style="fill: #262626" transform="translate(14.798438 201.61475) rotate(-90) scale(0.1 -0.1)">
      <defs>
       <path id="DejaVuSans-4d" d="M 628 4666 
L 1569 4666 
L 2759 1491 
L 3956 4666 
L 4897 4666 
L 4897 0 
L 4281 0 
L 4281 4097 
L 3078 897 
L 2444 897 
L 1241 4097 
L 1241 0 
L 628 0 
L 628 4666 
z
" transform="scale(0.015625)"/>
       <path id="DejaVuSans-61" d="M 2194 1759 
Q 1497 1759 1228 1600 
Q 959 1441 959 1056 
Q 959 750 1161 570 
Q 1363 391 1709 391 
Q 2188 391 2477 730 
Q 2766 1069 2766 1631 
L 2766 1759 
L 2194 1759 
z
M 3341 1997 
L 3341 0 
L 2766 0 
L 2766 531 
Q 2569 213 2275 61 
Q 1981 -91 1556 -91 
Q 1019 -91 701 211 
Q 384 513 384 1019 
Q 384 1609 779 1909 
Q 1175 2209 1959 2209 
L 2766 2209 
L 2766 2266 
Q 2766 2663 2505 2880 
Q 2244 3097 1772 3097 
Q 1472 3097 1187 3025 
Q 903 2953 641 2809 
L 641 3341 
Q 956 3463 1253 3523 
Q 1550 3584 1831 3584 
Q 2591 3584 2966 3190 
Q 3341 2797 3341 1997 
z
" transform="scale(0.015625)"/>
       <path id="DejaVuSans-6e" d="M 3513 2113 
L 3513 0 
L 2938 0 
L 2938 2094 
Q 2938 2591 2744 2837 
Q 2550 3084 2163 3084 
Q 1697 3084 1428 2787 
Q 1159 2491 1159 1978 
L 1159 0 
L 581 0 
L 581 3500 
L 1159 3500 
L 1159 2956 
Q 1366 3272 1645 3428 
Q 1925 3584 2291 3584 
Q 2894 3584 3203 3211 
Q 3513 2838 3513 2113 
z
" transform="scale(0.015625)"/>
       <path id="DejaVuSans-4c" d="M 628 4666 
L 1259 4666 
L 1259 531 
L 3531 531 
L 3531 0 
L 628 0 
L 628 4666 
z
" transform="scale(0.015625)"/>
       <path id="DejaVuSans-74" d="M 1172 4494 
L 1172 3500 
L 2356 3500 
L 2356 3053 
L 1172 3053 
L 1172 1153 
Q 1172 725 1289 603 
Q 1406 481 1766 481 
L 2356 481 
L 2356 0 
L 1766 0 
Q 1100 0 847 248 
Q 594 497 594 1153 
L 594 3053 
L 172 3053 
L 172 3500 
L 594 3500 
L 594 4494 
L 1172 4494 
z
" transform="scale(0.015625)"/>
       <path id="DejaVuSans-63" d="M 3122 3366 
L 3122 2828 
Q 2878 2963 2633 3030 
Q 2388 3097 2138 3097 
Q 1578 3097 1268 2742 
Q 959 2388 959 1747 
Q 959 1106 1268 751 
Q 1578 397 2138 397 
Q 2388 397 2633 464 
Q 2878 531 3122 666 
L 3122 134 
Q 2881 22 2623 -34 
Q 2366 -91 2075 -91 
Q 1284 -91 818 406 
Q 353 903 353 1747 
Q 353 2603 823 3093 
Q 1294 3584 2113 3584 
Q 2378 3584 2631 3529 
Q 2884 3475 3122 3366 
z
" transform="scale(0.015625)"/>
       <path id="DejaVuSans-79" d="M 2059 -325 
Q 1816 -950 1584 -1140 
Q 1353 -1331 966 -1331 
L 506 -1331 
L 506 -850 
L 844 -850 
Q 1081 -850 1212 -737 
Q 1344 -625 1503 -206 
L 1606 56 
L 191 3500 
L 800 3500 
L 1894 763 
L 2988 3500 
L 3597 3500 
L 2059 -325 
z
" transform="scale(0.015625)"/>
       <path id="DejaVuSans-28" d="M 1984 4856 
Q 1566 4138 1362 3434 
Q 1159 2731 1159 2009 
Q 1159 1288 1364 580 
Q 1569 -128 1984 -844 
L 1484 -844 
Q 1016 -109 783 600 
Q 550 1309 550 2009 
Q 550 2706 781 3412 
Q 1013 4119 1484 4856 
L 1984 4856 
z
" transform="scale(0.015625)"/>
       <path id="DejaVuSans-29" d="M 513 4856 
L 1013 4856 
Q 1481 4119 1714 3412 
Q 1947 2706 1947 2009 
Q 1947 1309 1714 600 
Q 1481 -109 1013 -844 
L 513 -844 
Q 928 -128 1133 580 
Q 1338 1288 1338 2009 
Q 1338 2731 1133 3434 
Q 928 4138 513 4856 
z
" transform="scale(0.015625)"/>
      </defs>
      <use xlink:href="#DejaVuSans-4d"/>
      <use xlink:href="#DejaVuSans-65" transform="translate(86.279297 0)"/>
      <use xlink:href="#DejaVuSans-61" transform="translate(147.802734 0)"/>
      <use xlink:href="#DejaVuSans-6e" transform="translate(209.082031 0)"/>
      <use xlink:href="#DejaVuSans-20" transform="translate(272.460938 0)"/>
      <use xlink:href="#DejaVuSans-4c" transform="translate(304.248047 0)"/>
      <use xlink:href="#DejaVuSans-61" transform="translate(359.960938 0)"/>
      <use xlink:href="#DejaVuSans-74" transform="translate(421.240234 0)"/>
      <use xlink:href="#DejaVuSans-65" transform="translate(460.449219 0)"/>
      <use xlink:href="#DejaVuSans-6e" transform="translate(521.972656 0)"/>
      <use xlink:href="#DejaVuSans-63" transform="translate(585.351562 0)"/>
      <use xlink:href="#DejaVuSans-79" transform="translate(640.332031 0)"/>
      <use xlink:href="#DejaVuSans-20" transform="translate(699.511719 0)"/>
      <use xlink:href="#DejaVuSans-28" transform="translate(731.298828 0)"/>
      <use xlink:href="#DejaVuSans-6e" transform="translate(770.3125 0)"/>
      <use xlink:href="#DejaVuSans-73" transform="translate(833.691406 0)"/>
      <use xlink:href="#DejaVuSans-29" transform="translate(885.791016 0)"/>
     </g>
    </g>
    <g id="text_16">
     <!-- 1e8 -->
     <g style="fill: #262626" transform="translate(43.78125 19.318125) scale(0.1 -0.1)">
      <use xlink:href="#DejaVuSans-31"/>
      <use xlink:href="#DejaVuSans-65" transform="translate(63.623047 0)"/>
      <use xlink:href="#DejaVuSans-38" transform="translate(125.146484 0)"/>
     </g>
    </g>
   </g>
   <g id="FillBetweenPolyCollection_1">
    <defs>
     <path id="m998482ea84" d="M 60.013977 -59.423098 
L 60.013977 -52.91003 
L 106.393198 -60.200975 
L 199.15164 -78.170539 
L 384.668523 -81.385317 
L 384.668523 -192.600446 
L 384.668523 -192.600446 
L 199.15164 -115.861437 
L 106.393198 -74.386192 
L 60.013977 -59.423098 
z
" style="stroke: #e98768; stroke-opacity: 0.2"/>
    </defs>
    <g clip-path="url(#p6695bffe19)">
     <use xlink:href="#m998482ea84" x="0" y="325.986375" style="fill: #e98768; fill-opacity: 0.2; stroke: #e98768; stroke-opacity: 0.2"/>
    </g>
   </g>
   <g id="FillBetweenPolyCollection_2">
    <defs>
     <path id="m2ef2f88b1d" d="M 60.013977 -62.172954 
L 60.013977 -54.454844 
L 106.393198 -63.451609 
L 199.15164 -91.913651 
L 384.668523 -89.136383 
L 384.668523 -249.978421 
L 384.668523 -249.978421 
L 199.15164 -150.400026 
L 106.393198 -84.534959 
L 60.013977 -62.172954 
z
" style="stroke: #de5d5c; stroke-opacity: 0.2"/>
    </defs>
    <g clip-path="url(#p6695bffe19)">
     <use xlink:href="#m2ef2f88b1d" x="0" y="325.986375" style="fill: #de5d5c; fill-opacity: 0.2; stroke: #de5d5c; stroke-opacity: 0.2"/>
    </g>
   </g>
   <g id="FillBetweenPolyCollection_3">
    <defs>
     <path id="m36413594d7" d="M 60.013977 -58.300003 
L 60.013977 -52.27994 
L 106.393198 -59.497152 
L 199.15164 -60.652513 
L 384.668523 -85.818121 
L 384.668523 -197.948768 
L 384.668523 -197.948768 
L 199.15164 -125.929243 
L 106.393198 -73.041211 
L 60.013977 -58.300003 
z
" style="stroke: #c14168; stroke-opacity: 0.2"/>
    </defs>
    <g clip-path="url(#p6695bffe19)">
     <use xlink:href="#m36413594d7" x="0" y="325.986375" style="fill: #c14168; fill-opacity: 0.2; stroke: #c14168; stroke-opacity: 0.2"/>
    </g>
   </g>
   <g id="FillBetweenPolyCollection_4">
    <defs>
     <path id="mae73e9fae2" d="M 60.013977 -55.226869 
L 60.013977 -51.218645 
L 106.393198 -55.406203 
L 199.15164 -66.423962 
L 384.668523 -65.66238 
L 384.668523 -131.504994 
L 384.668523 -131.504994 
L 199.15164 -87.161989 
L 106.393198 -63.792578 
L 60.013977 -55.226869 
z
" style="stroke: #9a3670; stroke-opacity: 0.2"/>
    </defs>
    <g clip-path="url(#p6695bffe19)">
     <use xlink:href="#mae73e9fae2" x="0" y="325.986375" style="fill: #9a3670; fill-opacity: 0.2; stroke: #9a3670; stroke-opacity: 0.2"/>
    </g>
   </g>
   <g id="FillBetweenPolyCollection_5">
    <defs>
     <path id="m9f04f55edd" d="M 60.013977 -55.294873 
L 60.013977 -51.34831 
L 106.393198 -56.262871 
L 199.15164 -55.212698 
L 384.668523 -68.652118 
L 384.668523 -129.75729 
L 384.668523 -129.75729 
L 199.15164 -87.011729 
L 106.393198 -64.308853 
L 60.013977 -55.294873 
z
" style="stroke: #722c6e; stroke-opacity: 0.2"/>
    </defs>
    <g clip-path="url(#p6695bffe19)">
     <use xlink:href="#m9f04f55edd" x="0" y="325.986375" style="fill: #722c6e; fill-opacity: 0.2; stroke: #722c6e; stroke-opacity: 0.2"/>
    </g>
   </g>
   <g id="FillBetweenPolyCollection_6">
    <defs>
     <path id="m21927486d9" d="M 60.013977 -60.967529 
L 60.013977 -52.634924 
L 106.393198 -62.880459 
L 199.15164 -64.94977 
L 384.668523 -87.004707 
L 384.668523 -242.356959 
L 384.668523 -242.356959 
L 199.15164 -142.95817 
L 106.393198 -81.610968 
L 60.013977 -60.967529 
z
" style="stroke: #76b791; stroke-opacity: 0.2"/>
    </defs>
    <g clip-path="url(#p6695bffe19)">
     <use xlink:href="#m21927486d9" x="0" y="325.986375" style="fill: #76b791; fill-opacity: 0.2; stroke: #76b791; stroke-opacity: 0.2"/>
    </g>
   </g>
   <g id="FillBetweenPolyCollection_7">
    <defs>
     <path id="m76c5d23226" d="M 60.013977 -64.709942 
L 60.013977 -53.207263 
L 106.393198 -62.47113 
L 199.15164 -67.183047 
L 384.668523 -98.88876 
L 384.668523 -283.829978 
L 384.668523 -283.829978 
L 199.15164 -167.975304 
L 106.393198 -82.784698 
L 60.013977 -64.709942 
z
" style="stroke: #509e90; stroke-opacity: 0.2"/>
    </defs>
    <g clip-path="url(#p6695bffe19)">
     <use xlink:href="#m76c5d23226" x="0" y="325.986375" style="fill: #509e90; fill-opacity: 0.2; stroke: #509e90; stroke-opacity: 0.2"/>
    </g>
   </g>
   <g id="FillBetweenPolyCollection_8">
    <defs>
     <path id="m8e58c12c36" d="M 60.013977 -52.786581 
L 60.013977 -49.65225 
L 106.393198 -52.080877 
L 199.15164 -52.248385 
L 384.668523 -58.589385 
L 384.668523 -88.881532 
L 384.668523 -88.881532 
L 199.15164 -67.172833 
L 106.393198 -55.888028 
L 60.013977 -52.786581 
z
" style="stroke: #33858d; stroke-opacity: 0.2"/>
    </defs>
    <g clip-path="url(#p6695bffe19)">
     <use xlink:href="#m8e58c12c36" x="0" y="325.986375" style="fill: #33858d; fill-opacity: 0.2; stroke: #33858d; stroke-opacity: 0.2"/>
    </g>
   </g>
   <g id="FillBetweenPolyCollection_9">
    <defs>
     <path id="m34ca5ef99c" d="M 60.013977 -62.226983 
L 60.013977 -54.031504 
L 106.393198 -62.547032 
L 199.15164 -92.16055 
L 384.668523 -98.862868 
L 384.668523 -291.57225 
L 384.668523 -291.57225 
L 199.15164 -146.332232 
L 106.393198 -83.305235 
L 60.013977 -62.226983 
z
" style="stroke: #1d6c8a; stroke-opacity: 0.2"/>
    </defs>
    <g clip-path="url(#p6695bffe19)">
     <use xlink:href="#m34ca5ef99c" x="0" y="325.986375" style="fill: #1d6c8a; fill-opacity: 0.2; stroke: #1d6c8a; stroke-opacity: 0.2"/>
    </g>
   </g>
   <g id="FillBetweenPolyCollection_10">
    <defs>
     <path id="m6844a670c7" d="M 60.013977 -52.023212 
L 60.013977 -49.871023 
L 106.393198 -52.938506 
L 199.15164 -57.612226 
L 384.668523 -58.239996 
L 384.668523 -86.731519 
L 384.668523 -86.731519 
L 199.15164 -68.078307 
L 106.393198 -58.038071 
L 60.013977 -52.023212 
z
" style="stroke: #234f81; stroke-opacity: 0.2"/>
    </defs>
    <g clip-path="url(#p6695bffe19)">
     <use xlink:href="#m6844a670c7" x="0" y="325.986375" style="fill: #234f81; fill-opacity: 0.2; stroke: #234f81; stroke-opacity: 0.2"/>
    </g>
   </g>
   <g id="line2d_14">
    <path d="M 60.013977 270.005064 
L 106.393198 259.096127 
L 199.15164 229.838382 
L 384.668523 192.347521 
" clip-path="url(#p6695bffe19)" style="fill: none; stroke: #e98768; stroke-width: 1.5; stroke-linecap: round"/>
   </g>
   <g id="line2d_15">
    <path d="M 60.013977 267.839186 
L 106.393198 252.669216 
L 199.15164 207.549289 
L 384.668523 163.88837 
" clip-path="url(#p6695bffe19)" style="fill: none; stroke-dasharray: 6,2.25; stroke-dashoffset: 0; stroke: #de5d5c; stroke-width: 1.5"/>
   </g>
   <g id="line2d_16">
    <path d="M 60.013977 270.930794 
L 106.393198 260.244479 
L 199.15164 238.359835 
L 384.668523 189.969615 
" clip-path="url(#p6695bffe19)" style="fill: none; stroke-dasharray: 1.5,1.5; stroke-dashoffset: 0; stroke: #c14168; stroke-width: 1.5"/>
   </g>
   <g id="line2d_17">
    <path d="M 60.013977 272.757019 
L 106.393198 266.308211 
L 199.15164 249.722379 
L 384.668523 230.68286 
" clip-path="url(#p6695bffe19)" style="fill: none; stroke-dasharray: 4.5,1.875,2.25,1.875; stroke-dashoffset: 0; stroke: #9a3670; stroke-width: 1.5"/>
   </g>
   <g id="line2d_18">
    <path d="M 60.013977 272.845203 
L 106.393198 265.691535 
L 199.15164 256.989994 
L 384.668523 227.916641 
" clip-path="url(#p6695bffe19)" style="fill: none; stroke-dasharray: 7.5,1.5,1.5,1.5; stroke-dashoffset: 0; stroke: #722c6e; stroke-width: 1.5"/>
   </g>
   <g id="line2d_19">
    <path d="M 60.013977 269.289383 
L 106.393198 255.152522 
L 199.15164 228.472764 
L 384.668523 168.021525 
" clip-path="url(#p6695bffe19)" style="fill: none; stroke-dasharray: 4.5,1.875,1.875,1.875,1.875,1.875; stroke-dashoffset: 0; stroke: #76b791; stroke-width: 1.5"/>
   </g>
   <g id="line2d_20">
    <path d="M 60.013977 267.404528 
L 106.393198 253.936555 
L 199.15164 215.575778 
L 384.668523 142.540776 
" clip-path="url(#p6695bffe19)" style="fill: none; stroke-dasharray: 6,1.5,6,1.5,1.5,1.5; stroke-dashoffset: 0; stroke: #509e90; stroke-width: 1.5"/>
   </g>
   <g id="line2d_21">
    <path d="M 60.013977 274.887445 
L 106.393198 272.035268 
L 199.15164 267.46128 
L 384.668523 253.206833 
" clip-path="url(#p6695bffe19)" style="fill: none; stroke-dasharray: 4.5,1.875,4.5,1.875,1.875,1.875; stroke-dashoffset: 0; stroke: #33858d; stroke-width: 1.5"/>
   </g>
   <g id="line2d_22">
    <path d="M 60.013977 268.283621 
L 106.393198 253.309799 
L 199.15164 207.813718 
L 384.668523 136.851453 
" clip-path="url(#p6695bffe19)" style="fill: none; stroke-dasharray: 6,1.5,1.5,1.5,1.5,1.5; stroke-dashoffset: 0; stroke: #1d6c8a; stroke-width: 1.5"/>
   </g>
   <g id="line2d_23">
    <path d="M 60.013977 275.064579 
L 106.393198 270.509289 
L 199.15164 263.182678 
L 384.668523 254.765102 
" clip-path="url(#p6695bffe19)" style="fill: none; stroke-dasharray: 4.5,1.875,1.875,1.875,1.875,1.875,1.875,1.875; stroke-dashoffset: 0; stroke: #234f81; stroke-width: 1.5"/>
   </g>
   <g id="line2d_24"/>
   <g id="line2d_25"/>
   <g id="line2d_26"/>
   <g id="line2d_27"/>
   <g id="line2d_28"/>
   <g id="line2d_29"/>
   <g id="line2d_30"/>
   <g id="line2d_31"/>
   <g id="line2d_32"/>
   <g id="line2d_33"/>
   <g id="patch_3">
    <path d="M 43.78125 288.430125 
L 43.78125 22.318125 
" style="fill: none; stroke: #cccccc; stroke-width: 0.8; stroke-linejoin: miter; stroke-linecap: square"/>
   </g>
   <g id="patch_4">
    <path d="M 400.90125 288.430125 
L 400.90125 22.318125 
" style="fill: none; stroke: #cccccc; stroke-width: 0.8; stroke-linejoin: miter; stroke-linecap: square"/>
   </g>
   <g id="patch_5">
    <path d="M 43.78125 288.430125 
L 400.90125 288.430125 
" style="fill: none; stroke: #cccccc; stroke-width: 0.8; stroke-linejoin: miter; stroke-linecap: square"/>
   </g>
   <g id="patch_6">
    <path d="M 43.78125 22.318125 
L 400.90125 22.318125 
" style="fill: none; stroke: #cccccc; stroke-width: 0.8; stroke-linejoin: miter; stroke-linecap: square"/>
   </g>
   <g id="text_17">
    <!-- Mean Latency (ns) vs Number of Jobs  -->
    <g style="fill: #262626" transform="translate(108.37875 16.318125) scale(0.12 -0.12)">
     <defs>
      <path id="DejaVuSans-76" d="M 191 3500 
L 800 3500 
L 1894 563 
L 2988 3500 
L 3597 3500 
L 2284 0 
L 1503 0 
L 191 3500 
z
" transform="scale(0.015625)"/>
     </defs>
     <use xlink:href="#DejaVuSans-4d"/>
     <use xlink:href="#DejaVuSans-65" transform="translate(86.279297 0)"/>
     <use xlink:href="#DejaVuSans-61" transform="translate(147.802734 0)"/>
     <use xlink:href="#DejaVuSans-6e" transform="translate(209.082031 0)"/>
     <use xlink:href="#DejaVuSans-20" transform="translate(272.460938 0)"/>
     <use xlink:href="#DejaVuSans-4c" transform="translate(304.248047 0)"/>
     <use xlink:href="#DejaVuSans-61" transform="translate(359.960938 0)"/>
     <use xlink:href="#DejaVuSans-74" transform="translate(421.240234 0)"/>
     <use xlink:href="#DejaVuSans-65" transform="translate(460.449219 0)"/>
     <use xlink:href="#DejaVuSans-6e" transform="translate(521.972656 0)"/>
     <use xlink:href="#DejaVuSans-63" transform="translate(585.351562 0)"/>
     <use xlink:href="#DejaVuSans-79" transform="translate(640.332031 0)"/>
     <use xlink:href="#DejaVuSans-20" transform="translate(699.511719 0)"/>
     <use xlink:href="#DejaVuSans-28" transform="translate(731.298828 0)"/>
     <use xlink:href="#DejaVuSans-6e" transform="translate(770.3125 0)"/>
     <use xlink:href="#DejaVuSans-73" transform="translate(833.691406 0)"/>
     <use xlink:href="#DejaVuSans-29" transform="translate(885.791016 0)"/>
     <use xlink:href="#DejaVuSans-20" transform="translate(924.804688 0)"/>
     <use xlink:href="#DejaVuSans-76" transform="translate(956.591797 0)"/>
     <use xlink:href="#DejaVuSans-73" transform="translate(1015.771484 0)"/>
     <use xlink:href="#DejaVuSans-20" transform="translate(1067.871094 0)"/>
     <use xlink:href="#DejaVuSans-4e" transform="translate(1099.658203 0)"/>
     <use xlink:href="#DejaVuSans-75" transform="translate(1174.462891 0)"/>
     <use xlink:href="#DejaVuSans-6d" transform="translate(1237.841797 0)"/>
     <use xlink:href="#DejaVuSans-62" transform="translate(1335.253906 0)"/>
     <use xlink:href="#DejaVuSans-65" transform="translate(1398.730469 0)"/>
     <use xlink:href="#DejaVuSans-72" transform="translate(1460.253906 0)"/>
     <use xlink:href="#DejaVuSans-20" transform="translate(1501.367188 0)"/>
     <use xlink:href="#DejaVuSans-6f" transform="translate(1533.154297 0)"/>
     <use xlink:href="#DejaVuSans-66" transform="translate(1594.335938 0)"/>
     <use xlink:href="#DejaVuSans-20" transform="translate(1629.541016 0)"/>
     <use xlink:href="#DejaVuSans-4a" transform="translate(1661.328125 0)"/>
     <use xlink:href="#DejaVuSans-6f" transform="translate(1690.820312 0)"/>
     <use xlink:href="#DejaVuSans-62" transform="translate(1752.001953 0)"/>
     <use xlink:href="#DejaVuSans-73" transform="translate(1815.478516 0)"/>
     <use xlink:href="#DejaVuSans-20" transform="translate(1867.578125 0)"/>
    </g>
   </g>
   <g id="legend_1">
    <g id="patch_7">
     <path d="M 50.78125 192.055625 
L 218.978125 192.055625 
Q 220.978125 192.055625 220.978125 190.055625 
L 220.978125 29.318125 
Q 220.978125 27.318125 218.978125 27.318125 
L 50.78125 27.318125 
Q 48.78125 27.318125 48.78125 29.318125 
L 48.78125 190.055625 
Q 48.78125 192.055625 50.78125 192.055625 
z
" style="fill: #ffffff; opacity: 0.8; stroke: #cccccc; stroke-linejoin: miter"/>
    </g>
    <g id="text_18">
     <!-- rw_full -->
     <g style="fill: #262626" transform="translate(118.528125 38.916562) scale(0.1 -0.1)">
      <defs>
       <path id="DejaVuSans-77" d="M 269 3500 
L 844 3500 
L 1563 769 
L 2278 3500 
L 2956 3500 
L 3675 769 
L 4391 3500 
L 4966 3500 
L 4050 0 
L 3372 0 
L 2619 2869 
L 1863 0 
L 1184 0 
L 269 3500 
z
" transform="scale(0.015625)"/>
       <path id="DejaVuSans-5f" d="M 3263 -1063 
L 3263 -1509 
L -63 -1509 
L -63 -1063 
L 3263 -1063 
z
" transform="scale(0.015625)"/>
       <path id="DejaVuSans-6c" d="M 603 4863 
L 1178 4863 
L 1178 0 
L 603 0 
L 603 4863 
z
" transform="scale(0.015625)"/>
      </defs>
      <use xlink:href="#DejaVuSans-72"/>
      <use xlink:href="#DejaVuSans-77" transform="translate(41.113281 0)"/>
      <use xlink:href="#DejaVuSans-5f" transform="translate(122.900391 0)"/>
      <use xlink:href="#DejaVuSans-66" transform="translate(172.900391 0)"/>
      <use xlink:href="#DejaVuSans-75" transform="translate(208.105469 0)"/>
      <use xlink:href="#DejaVuSans-6c" transform="translate(271.484375 0)"/>
      <use xlink:href="#DejaVuSans-6c" transform="translate(299.267578 0)"/>
     </g>
    </g>
    <g id="line2d_34">
     <path d="M 52.78125 50.372812 
L 62.78125 50.372812 
L 72.78125 50.372812 
" style="fill: none; stroke: #e98768; stroke-width: 1.5; stroke-linecap: round"/>
    </g>
    <g id="text_19">
     <!-- Sequential Balanced 1:1 -->
     <g style="fill: #262626" transform="translate(80.78125 53.872812) scale(0.1 -0.1)">
      <defs>
       <path id="DejaVuSans-53" d="M 3425 4513 
L 3425 3897 
Q 3066 4069 2747 4153 
Q 2428 4238 2131 4238 
Q 1616 4238 1336 4038 
Q 1056 3838 1056 3469 
Q 1056 3159 1242 3001 
Q 1428 2844 1947 2747 
L 2328 2669 
Q 3034 2534 3370 2195 
Q 3706 1856 3706 1288 
Q 3706 609 3251 259 
Q 2797 -91 1919 -91 
Q 1588 -91 1214 -16 
Q 841 59 441 206 
L 441 856 
Q 825 641 1194 531 
Q 1563 422 1919 422 
Q 2459 422 2753 634 
Q 3047 847 3047 1241 
Q 3047 1584 2836 1778 
Q 2625 1972 2144 2069 
L 1759 2144 
Q 1053 2284 737 2584 
Q 422 2884 422 3419 
Q 422 4038 858 4394 
Q 1294 4750 2059 4750 
Q 2388 4750 2728 4690 
Q 3069 4631 3425 4513 
z
" transform="scale(0.015625)"/>
       <path id="DejaVuSans-71" d="M 947 1747 
Q 947 1113 1208 752 
Q 1469 391 1925 391 
Q 2381 391 2643 752 
Q 2906 1113 2906 1747 
Q 2906 2381 2643 2742 
Q 2381 3103 1925 3103 
Q 1469 3103 1208 2742 
Q 947 2381 947 1747 
z
M 2906 525 
Q 2725 213 2448 61 
Q 2172 -91 1784 -91 
Q 1150 -91 751 415 
Q 353 922 353 1747 
Q 353 2572 751 3078 
Q 1150 3584 1784 3584 
Q 2172 3584 2448 3432 
Q 2725 3281 2906 2969 
L 2906 3500 
L 3481 3500 
L 3481 -1331 
L 2906 -1331 
L 2906 525 
z
" transform="scale(0.015625)"/>
       <path id="DejaVuSans-69" d="M 603 3500 
L 1178 3500 
L 1178 0 
L 603 0 
L 603 3500 
z
M 603 4863 
L 1178 4863 
L 1178 4134 
L 603 4134 
L 603 4863 
z
" transform="scale(0.015625)"/>
       <path id="DejaVuSans-42" d="M 1259 2228 
L 1259 519 
L 2272 519 
Q 2781 519 3026 730 
Q 3272 941 3272 1375 
Q 3272 1813 3026 2020 
Q 2781 2228 2272 2228 
L 1259 2228 
z
M 1259 4147 
L 1259 2741 
L 2194 2741 
Q 2656 2741 2882 2914 
Q 3109 3088 3109 3444 
Q 3109 3797 2882 3972 
Q 2656 4147 2194 4147 
L 1259 4147 
z
M 628 4666 
L 2241 4666 
Q 2963 4666 3353 4366 
Q 3744 4066 3744 3513 
Q 3744 3084 3544 2831 
Q 3344 2578 2956 2516 
Q 3422 2416 3680 2098 
Q 3938 1781 3938 1306 
Q 3938 681 3513 340 
Q 3088 0 2303 0 
L 628 0 
L 628 4666 
z
" transform="scale(0.015625)"/>
       <path id="DejaVuSans-64" d="M 2906 2969 
L 2906 4863 
L 3481 4863 
L 3481 0 
L 2906 0 
L 2906 525 
Q 2725 213 2448 61 
Q 2172 -91 1784 -91 
Q 1150 -91 751 415 
Q 353 922 353 1747 
Q 353 2572 751 3078 
Q 1150 3584 1784 3584 
Q 2172 3584 2448 3432 
Q 2725 3281 2906 2969 
z
M 947 1747 
Q 947 1113 1208 752 
Q 1469 391 1925 391 
Q 2381 391 2643 752 
Q 2906 1113 2906 1747 
Q 2906 2381 2643 2742 
Q 2381 3103 1925 3103 
Q 1469 3103 1208 2742 
Q 947 2381 947 1747 
z
" transform="scale(0.015625)"/>
       <path id="DejaVuSans-3a" d="M 750 794 
L 1409 794 
L 1409 0 
L 750 0 
L 750 794 
z
M 750 3309 
L 1409 3309 
L 1409 2516 
L 750 2516 
L 750 3309 
z
" transform="scale(0.015625)"/>
      </defs>
      <use xlink:href="#DejaVuSans-53"/>
      <use xlink:href="#DejaVuSans-65" transform="translate(63.476562 0)"/>
      <use xlink:href="#DejaVuSans-71" transform="translate(125 0)"/>
      <use xlink:href="#DejaVuSans-75" transform="translate(188.476562 0)"/>
      <use xlink:href="#DejaVuSans-65" transform="translate(251.855469 0)"/>
      <use xlink:href="#DejaVuSans-6e" transform="translate(313.378906 0)"/>
      <use xlink:href="#DejaVuSans-74" transform="translate(376.757812 0)"/>
      <use xlink:href="#DejaVuSans-69" transform="translate(415.966797 0)"/>
      <use xlink:href="#DejaVuSans-61" transform="translate(443.75 0)"/>
      <use xlink:href="#DejaVuSans-6c" transform="translate(505.029297 0)"/>
      <use xlink:href="#DejaVuSans-20" transform="translate(532.8125 0)"/>
      <use xlink:href="#DejaVuSans-42" transform="translate(564.599609 0)"/>
      <use xlink:href="#DejaVuSans-61" transform="translate(633.203125 0)"/>
      <use xlink:href="#DejaVuSans-6c" transform="translate(694.482422 0)"/>
      <use xlink:href="#DejaVuSans-61" transform="translate(722.265625 0)"/>
      <use xlink:href="#DejaVuSans-6e" transform="translate(783.544922 0)"/>
      <use xlink:href="#DejaVuSans-63" transform="translate(846.923828 0)"/>
      <use xlink:href="#DejaVuSans-65" transform="translate(901.904297 0)"/>
      <use xlink:href="#DejaVuSans-64" transform="translate(963.427734 0)"/>
      <use xlink:href="#DejaVuSans-20" transform="translate(1026.904297 0)"/>
      <use xlink:href="#DejaVuSans-31" transform="translate(1058.691406 0)"/>
      <use xlink:href="#DejaVuSans-3a" transform="translate(1122.314453 0)"/>
      <use xlink:href="#DejaVuSans-31" transform="translate(1156.005859 0)"/>
     </g>
    </g>
    <g id="line2d_35">
     <path d="M 52.78125 65.050937 
L 62.78125 65.050937 
L 72.78125 65.050937 
" style="fill: none; stroke-dasharray: 6,2.25; stroke-dashoffset: 0; stroke: #de5d5c; stroke-width: 1.5"/>
    </g>
    <g id="text_20">
     <!-- Sequential Read-heavy 4:1 -->
     <g style="fill: #262626" transform="translate(80.78125 68.550937) scale(0.1 -0.1)">
      <defs>
       <path id="DejaVuSans-52" d="M 2841 2188 
Q 3044 2119 3236 1894 
Q 3428 1669 3622 1275 
L 4263 0 
L 3584 0 
L 2988 1197 
Q 2756 1666 2539 1819 
Q 2322 1972 1947 1972 
L 1259 1972 
L 1259 0 
L 628 0 
L 628 4666 
L 2053 4666 
Q 2853 4666 3247 4331 
Q 3641 3997 3641 3322 
Q 3641 2881 3436 2590 
Q 3231 2300 2841 2188 
z
M 1259 4147 
L 1259 2491 
L 2053 2491 
Q 2509 2491 2742 2702 
Q 2975 2913 2975 3322 
Q 2975 3731 2742 3939 
Q 2509 4147 2053 4147 
L 1259 4147 
z
" transform="scale(0.015625)"/>
       <path id="DejaVuSans-2d" d="M 313 2009 
L 1997 2009 
L 1997 1497 
L 313 1497 
L 313 2009 
z
" transform="scale(0.015625)"/>
       <path id="DejaVuSans-68" d="M 3513 2113 
L 3513 0 
L 2938 0 
L 2938 2094 
Q 2938 2591 2744 2837 
Q 2550 3084 2163 3084 
Q 1697 3084 1428 2787 
Q 1159 2491 1159 1978 
L 1159 0 
L 581 0 
L 581 4863 
L 1159 4863 
L 1159 2956 
Q 1366 3272 1645 3428 
Q 1925 3584 2291 3584 
Q 2894 3584 3203 3211 
Q 3513 2838 3513 2113 
z
" transform="scale(0.015625)"/>
      </defs>
      <use xlink:href="#DejaVuSans-53"/>
      <use xlink:href="#DejaVuSans-65" transform="translate(63.476562 0)"/>
      <use xlink:href="#DejaVuSans-71" transform="translate(125 0)"/>
      <use xlink:href="#DejaVuSans-75" transform="translate(188.476562 0)"/>
      <use xlink:href="#DejaVuSans-65" transform="translate(251.855469 0)"/>
      <use xlink:href="#DejaVuSans-6e" transform="translate(313.378906 0)"/>
      <use xlink:href="#DejaVuSans-74" transform="translate(376.757812 0)"/>
      <use xlink:href="#DejaVuSans-69" transform="translate(415.966797 0)"/>
      <use xlink:href="#DejaVuSans-61" transform="translate(443.75 0)"/>
      <use xlink:href="#DejaVuSans-6c" transform="translate(505.029297 0)"/>
      <use xlink:href="#DejaVuSans-20" transform="translate(532.8125 0)"/>
      <use xlink:href="#DejaVuSans-52" transform="translate(564.599609 0)"/>
      <use xlink:href="#DejaVuSans-65" transform="translate(629.582031 0)"/>
      <use xlink:href="#DejaVuSans-61" transform="translate(691.105469 0)"/>
      <use xlink:href="#DejaVuSans-64" transform="translate(752.384766 0)"/>
      <use xlink:href="#DejaVuSans-2d" transform="translate(815.861328 0)"/>
      <use xlink:href="#DejaVuSans-68" transform="translate(851.945312 0)"/>
      <use xlink:href="#DejaVuSans-65" transform="translate(915.324219 0)"/>
      <use xlink:href="#DejaVuSans-61" transform="translate(976.847656 0)"/>
      <use xlink:href="#DejaVuSans-76" transform="translate(1038.126953 0)"/>
      <use xlink:href="#DejaVuSans-79" transform="translate(1097.306641 0)"/>
      <use xlink:href="#DejaVuSans-20" transform="translate(1156.486328 0)"/>
      <use xlink:href="#DejaVuSans-34" transform="translate(1188.273438 0)"/>
      <use xlink:href="#DejaVuSans-3a" transform="translate(1251.896484 0)"/>
      <use xlink:href="#DejaVuSans-31" transform="translate(1285.587891 0)"/>
     </g>
    </g>
    <g id="line2d_36">
     <path d="M 52.78125 79.729062 
L 62.78125 79.729062 
L 72.78125 79.729062 
" style="fill: none; stroke-dasharray: 1.5,1.5; stroke-dashoffset: 0; stroke: #c14168; stroke-width: 1.5"/>
    </g>
    <g id="text_21">
     <!-- Random Balanced 1:1 -->
     <g style="fill: #262626" transform="translate(80.78125 83.229062) scale(0.1 -0.1)">
      <use xlink:href="#DejaVuSans-52"/>
      <use xlink:href="#DejaVuSans-61" transform="translate(67.232422 0)"/>
      <use xlink:href="#DejaVuSans-6e" transform="translate(128.511719 0)"/>
      <use xlink:href="#DejaVuSans-64" transform="translate(191.890625 0)"/>
      <use xlink:href="#DejaVuSans-6f" transform="translate(255.367188 0)"/>
      <use xlink:href="#DejaVuSans-6d" transform="translate(316.548828 0)"/>
      <use xlink:href="#DejaVuSans-20" transform="translate(413.960938 0)"/>
      <use xlink:href="#DejaVuSans-42" transform="translate(445.748047 0)"/>
      <use xlink:href="#DejaVuSans-61" transform="translate(514.351562 0)"/>
      <use xlink:href="#DejaVuSans-6c" transform="translate(575.630859 0)"/>
      <use xlink:href="#DejaVuSans-61" transform="translate(603.414062 0)"/>
      <use xlink:href="#DejaVuSans-6e" transform="translate(664.693359 0)"/>
      <use xlink:href="#DejaVuSans-63" transform="translate(728.072266 0)"/>
      <use xlink:href="#DejaVuSans-65" transform="translate(783.052734 0)"/>
      <use xlink:href="#DejaVuSans-64" transform="translate(844.576172 0)"/>
      <use xlink:href="#DejaVuSans-20" transform="translate(908.052734 0)"/>
      <use xlink:href="#DejaVuSans-31" transform="translate(939.839844 0)"/>
      <use xlink:href="#DejaVuSans-3a" transform="translate(1003.462891 0)"/>
      <use xlink:href="#DejaVuSans-31" transform="translate(1037.154297 0)"/>
     </g>
    </g>
    <g id="line2d_37">
     <path d="M 52.78125 94.407187 
L 62.78125 94.407187 
L 72.78125 94.407187 
" style="fill: none; stroke-dasharray: 4.5,1.875,2.25,1.875; stroke-dashoffset: 0; stroke: #9a3670; stroke-width: 1.5"/>
    </g>
    <g id="text_22">
     <!-- Sequential Write-heavy 1:4 -->
     <g style="fill: #262626" transform="translate(80.78125 97.907187) scale(0.1 -0.1)">
      <defs>
       <path id="DejaVuSans-57" d="M 213 4666 
L 850 4666 
L 1831 722 
L 2809 4666 
L 3519 4666 
L 4500 722 
L 5478 4666 
L 6119 4666 
L 4947 0 
L 4153 0 
L 3169 4050 
L 2175 0 
L 1381 0 
L 213 4666 
z
" transform="scale(0.015625)"/>
      </defs>
      <use xlink:href="#DejaVuSans-53"/>
      <use xlink:href="#DejaVuSans-65" transform="translate(63.476562 0)"/>
      <use xlink:href="#DejaVuSans-71" transform="translate(125 0)"/>
      <use xlink:href="#DejaVuSans-75" transform="translate(188.476562 0)"/>
      <use xlink:href="#DejaVuSans-65" transform="translate(251.855469 0)"/>
      <use xlink:href="#DejaVuSans-6e" transform="translate(313.378906 0)"/>
      <use xlink:href="#DejaVuSans-74" transform="translate(376.757812 0)"/>
      <use xlink:href="#DejaVuSans-69" transform="translate(415.966797 0)"/>
      <use xlink:href="#DejaVuSans-61" transform="translate(443.75 0)"/>
      <use xlink:href="#DejaVuSans-6c" transform="translate(505.029297 0)"/>
      <use xlink:href="#DejaVuSans-20" transform="translate(532.8125 0)"/>
      <use xlink:href="#DejaVuSans-57" transform="translate(564.599609 0)"/>
      <use xlink:href="#DejaVuSans-72" transform="translate(658.976562 0)"/>
      <use xlink:href="#DejaVuSans-69" transform="translate(700.089844 0)"/>
      <use xlink:href="#DejaVuSans-74" transform="translate(727.873047 0)"/>
      <use xlink:href="#DejaVuSans-65" transform="translate(767.082031 0)"/>
      <use xlink:href="#DejaVuSans-2d" transform="translate(828.605469 0)"/>
      <use xlink:href="#DejaVuSans-68" transform="translate(864.689453 0)"/>
      <use xlink:href="#DejaVuSans-65" transform="translate(928.068359 0)"/>
      <use xlink:href="#DejaVuSans-61" transform="translate(989.591797 0)"/>
      <use xlink:href="#DejaVuSans-76" transform="translate(1050.871094 0)"/>
      <use xlink:href="#DejaVuSans-79" transform="translate(1110.050781 0)"/>
      <use xlink:href="#DejaVuSans-20" transform="translate(1169.230469 0)"/>
      <use xlink:href="#DejaVuSans-31" transform="translate(1201.017578 0)"/>
      <use xlink:href="#DejaVuSans-3a" transform="translate(1264.640625 0)"/>
      <use xlink:href="#DejaVuSans-34" transform="translate(1298.332031 0)"/>
     </g>
    </g>
    <g id="line2d_38">
     <path d="M 52.78125 109.085312 
L 62.78125 109.085312 
L 72.78125 109.085312 
" style="fill: none; stroke-dasharray: 7.5,1.5,1.5,1.5; stroke-dashoffset: 0; stroke: #722c6e; stroke-width: 1.5"/>
    </g>
    <g id="text_23">
     <!-- Random Write-heavy 1:4 -->
     <g style="fill: #262626" transform="translate(80.78125 112.585312) scale(0.1 -0.1)">
      <use xlink:href="#DejaVuSans-52"/>
      <use xlink:href="#DejaVuSans-61" transform="translate(67.232422 0)"/>
      <use xlink:href="#DejaVuSans-6e" transform="translate(128.511719 0)"/>
      <use xlink:href="#DejaVuSans-64" transform="translate(191.890625 0)"/>
      <use xlink:href="#DejaVuSans-6f" transform="translate(255.367188 0)"/>
      <use xlink:href="#DejaVuSans-6d" transform="translate(316.548828 0)"/>
      <use xlink:href="#DejaVuSans-20" transform="translate(413.960938 0)"/>
      <use xlink:href="#DejaVuSans-57" transform="translate(445.748047 0)"/>
      <use xlink:href="#DejaVuSans-72" transform="translate(540.125 0)"/>
      <use xlink:href="#DejaVuSans-69" transform="translate(581.238281 0)"/>
      <use xlink:href="#DejaVuSans-74" transform="translate(609.021484 0)"/>
      <use xlink:href="#DejaVuSans-65" transform="translate(648.230469 0)"/>
      <use xlink:href="#DejaVuSans-2d" transform="translate(709.753906 0)"/>
      <use xlink:href="#DejaVuSans-68" transform="translate(745.837891 0)"/>
      <use xlink:href="#DejaVuSans-65" transform="translate(809.216797 0)"/>
      <use xlink:href="#DejaVuSans-61" transform="translate(870.740234 0)"/>
      <use xlink:href="#DejaVuSans-76" transform="translate(932.019531 0)"/>
      <use xlink:href="#DejaVuSans-79" transform="translate(991.199219 0)"/>
      <use xlink:href="#DejaVuSans-20" transform="translate(1050.378906 0)"/>
      <use xlink:href="#DejaVuSans-31" transform="translate(1082.166016 0)"/>
      <use xlink:href="#DejaVuSans-3a" transform="translate(1145.789062 0)"/>
      <use xlink:href="#DejaVuSans-34" transform="translate(1179.480469 0)"/>
     </g>
    </g>
    <g id="line2d_39">
     <path d="M 52.78125 123.763437 
L 62.78125 123.763437 
L 72.78125 123.763437 
" style="fill: none; stroke-dasharray: 4.5,1.875,1.875,1.875,1.875,1.875; stroke-dashoffset: 0; stroke: #76b791; stroke-width: 1.5"/>
    </g>
    <g id="text_24">
     <!-- Random Read-heavy 4:1 -->
     <g style="fill: #262626" transform="translate(80.78125 127.263437) scale(0.1 -0.1)">
      <use xlink:href="#DejaVuSans-52"/>
      <use xlink:href="#DejaVuSans-61" transform="translate(67.232422 0)"/>
      <use xlink:href="#DejaVuSans-6e" transform="translate(128.511719 0)"/>
      <use xlink:href="#DejaVuSans-64" transform="translate(191.890625 0)"/>
      <use xlink:href="#DejaVuSans-6f" transform="translate(255.367188 0)"/>
      <use xlink:href="#DejaVuSans-6d" transform="translate(316.548828 0)"/>
      <use xlink:href="#DejaVuSans-20" transform="translate(413.960938 0)"/>
      <use xlink:href="#DejaVuSans-52" transform="translate(445.748047 0)"/>
      <use xlink:href="#DejaVuSans-65" transform="translate(510.730469 0)"/>
      <use xlink:href="#DejaVuSans-61" transform="translate(572.253906 0)"/>
      <use xlink:href="#DejaVuSans-64" transform="translate(633.533203 0)"/>
      <use xlink:href="#DejaVuSans-2d" transform="translate(697.009766 0)"/>
      <use xlink:href="#DejaVuSans-68" transform="translate(733.09375 0)"/>
      <use xlink:href="#DejaVuSans-65" transform="translate(796.472656 0)"/>
      <use xlink:href="#DejaVuSans-61" transform="translate(857.996094 0)"/>
      <use xlink:href="#DejaVuSans-76" transform="translate(919.275391 0)"/>
      <use xlink:href="#DejaVuSans-79" transform="translate(978.455078 0)"/>
      <use xlink:href="#DejaVuSans-20" transform="translate(1037.634766 0)"/>
      <use xlink:href="#DejaVuSans-34" transform="translate(1069.421875 0)"/>
      <use xlink:href="#DejaVuSans-3a" transform="translate(1133.044922 0)"/>
      <use xlink:href="#DejaVuSans-31" transform="translate(1166.736328 0)"/>
     </g>
    </g>
    <g id="line2d_40">
     <path d="M 52.78125 138.441562 
L 62.78125 138.441562 
L 72.78125 138.441562 
" style="fill: none; stroke-dasharray: 6,1.5,6,1.5,1.5,1.5; stroke-dashoffset: 0; stroke: #509e90; stroke-width: 1.5"/>
    </g>
    <g id="text_25">
     <!-- Random Read-only -->
     <g style="fill: #262626" transform="translate(80.78125 141.941562) scale(0.1 -0.1)">
      <use xlink:href="#DejaVuSans-52"/>
      <use xlink:href="#DejaVuSans-61" transform="translate(67.232422 0)"/>
      <use xlink:href="#DejaVuSans-6e" transform="translate(128.511719 0)"/>
      <use xlink:href="#DejaVuSans-64" transform="translate(191.890625 0)"/>
      <use xlink:href="#DejaVuSans-6f" transform="translate(255.367188 0)"/>
      <use xlink:href="#DejaVuSans-6d" transform="translate(316.548828 0)"/>
      <use xlink:href="#DejaVuSans-20" transform="translate(413.960938 0)"/>
      <use xlink:href="#DejaVuSans-52" transform="translate(445.748047 0)"/>
      <use xlink:href="#DejaVuSans-65" transform="translate(510.730469 0)"/>
      <use xlink:href="#DejaVuSans-61" transform="translate(572.253906 0)"/>
      <use xlink:href="#DejaVuSans-64" transform="translate(633.533203 0)"/>
      <use xlink:href="#DejaVuSans-2d" transform="translate(697.009766 0)"/>
      <use xlink:href="#DejaVuSans-6f" transform="translate(734.96875 0)"/>
      <use xlink:href="#DejaVuSans-6e" transform="translate(796.150391 0)"/>
      <use xlink:href="#DejaVuSans-6c" transform="translate(859.529297 0)"/>
      <use xlink:href="#DejaVuSans-79" transform="translate(887.3125 0)"/>
     </g>
    </g>
    <g id="line2d_41">
     <path d="M 52.78125 153.119687 
L 62.78125 153.119687 
L 72.78125 153.119687 
" style="fill: none; stroke-dasharray: 4.5,1.875,4.5,1.875,1.875,1.875; stroke-dashoffset: 0; stroke: #33858d; stroke-width: 1.5"/>
    </g>
    <g id="text_26">
     <!-- Random Write-only -->
     <g style="fill: #262626" transform="translate(80.78125 156.619687) scale(0.1 -0.1)">
      <use xlink:href="#DejaVuSans-52"/>
      <use xlink:href="#DejaVuSans-61" transform="translate(67.232422 0)"/>
      <use xlink:href="#DejaVuSans-6e" transform="translate(128.511719 0)"/>
      <use xlink:href="#DejaVuSans-64" transform="translate(191.890625 0)"/>
      <use xlink:href="#DejaVuSans-6f" transform="translate(255.367188 0)"/>
      <use xlink:href="#DejaVuSans-6d" transform="translate(316.548828 0)"/>
      <use xlink:href="#DejaVuSans-20" transform="translate(413.960938 0)"/>
      <use xlink:href="#DejaVuSans-57" transform="translate(445.748047 0)"/>
      <use xlink:href="#DejaVuSans-72" transform="translate(540.125 0)"/>
      <use xlink:href="#DejaVuSans-69" transform="translate(581.238281 0)"/>
      <use xlink:href="#DejaVuSans-74" transform="translate(609.021484 0)"/>
      <use xlink:href="#DejaVuSans-65" transform="translate(648.230469 0)"/>
      <use xlink:href="#DejaVuSans-2d" transform="translate(709.753906 0)"/>
      <use xlink:href="#DejaVuSans-6f" transform="translate(747.712891 0)"/>
      <use xlink:href="#DejaVuSans-6e" transform="translate(808.894531 0)"/>
      <use xlink:href="#DejaVuSans-6c" transform="translate(872.273438 0)"/>
      <use xlink:href="#DejaVuSans-79" transform="translate(900.056641 0)"/>
     </g>
    </g>
    <g id="line2d_42">
     <path d="M 52.78125 167.797812 
L 62.78125 167.797812 
L 72.78125 167.797812 
" style="fill: none; stroke-dasharray: 6,1.5,1.5,1.5,1.5,1.5; stroke-dashoffset: 0; stroke: #1d6c8a; stroke-width: 1.5"/>
    </g>
    <g id="text_27">
     <!-- Sequential Read-only -->
     <g style="fill: #262626" transform="translate(80.78125 171.297812) scale(0.1 -0.1)">
      <use xlink:href="#DejaVuSans-53"/>
      <use xlink:href="#DejaVuSans-65" transform="translate(63.476562 0)"/>
      <use xlink:href="#DejaVuSans-71" transform="translate(125 0)"/>
      <use xlink:href="#DejaVuSans-75" transform="translate(188.476562 0)"/>
      <use xlink:href="#DejaVuSans-65" transform="translate(251.855469 0)"/>
      <use xlink:href="#DejaVuSans-6e" transform="translate(313.378906 0)"/>
      <use xlink:href="#DejaVuSans-74" transform="translate(376.757812 0)"/>
      <use xlink:href="#DejaVuSans-69" transform="translate(415.966797 0)"/>
      <use xlink:href="#DejaVuSans-61" transform="translate(443.75 0)"/>
      <use xlink:href="#DejaVuSans-6c" transform="translate(505.029297 0)"/>
      <use xlink:href="#DejaVuSans-20" transform="translate(532.8125 0)"/>
      <use xlink:href="#DejaVuSans-52" transform="translate(564.599609 0)"/>
      <use xlink:href="#DejaVuSans-65" transform="translate(629.582031 0)"/>
      <use xlink:href="#DejaVuSans-61" transform="translate(691.105469 0)"/>
      <use xlink:href="#DejaVuSans-64" transform="translate(752.384766 0)"/>
      <use xlink:href="#DejaVuSans-2d" transform="translate(815.861328 0)"/>
      <use xlink:href="#DejaVuSans-6f" transform="translate(853.820312 0)"/>
      <use xlink:href="#DejaVuSans-6e" transform="translate(915.001953 0)"/>
      <use xlink:href="#DejaVuSans-6c" transform="translate(978.380859 0)"/>
      <use xlink:href="#DejaVuSans-79" transform="translate(1006.164062 0)"/>
     </g>
    </g>
    <g id="line2d_43">
     <path d="M 52.78125 182.475937 
L 62.78125 182.475937 
L 72.78125 182.475937 
" style="fill: none; stroke-dasharray: 4.5,1.875,1.875,1.875,1.875,1.875,1.875,1.875; stroke-dashoffset: 0; stroke: #234f81; stroke-width: 1.5"/>
    </g>
    <g id="text_28">
     <!-- Sequential Write-only -->
     <g style="fill: #262626" transform="translate(80.78125 185.975937) scale(0.1 -0.1)">
      <use xlink:href="#DejaVuSans-53"/>
      <use xlink:href="#DejaVuSans-65" transform="translate(63.476562 0)"/>
      <use xlink:href="#DejaVuSans-71" transform="translate(125 0)"/>
      <use xlink:href="#DejaVuSans-75" transform="translate(188.476562 0)"/>
      <use xlink:href="#DejaVuSans-65" transform="translate(251.855469 0)"/>
      <use xlink:href="#DejaVuSans-6e" transform="translate(313.378906 0)"/>
      <use xlink:href="#DejaVuSans-74" transform="translate(376.757812 0)"/>
      <use xlink:href="#DejaVuSans-69" transform="translate(415.966797 0)"/>
      <use xlink:href="#DejaVuSans-61" transform="translate(443.75 0)"/>
      <use xlink:href="#DejaVuSans-6c" transform="translate(505.029297 0)"/>
      <use xlink:href="#DejaVuSans-20" transform="translate(532.8125 0)"/>
      <use xlink:href="#DejaVuSans-57" transform="translate(564.599609 0)"/>
      <use xlink:href="#DejaVuSans-72" transform="translate(658.976562 0)"/>
      <use xlink:href="#DejaVuSans-69" transform="translate(700.089844 0)"/>
      <use xlink:href="#DejaVuSans-74" transform="translate(727.873047 0)"/>
      <use xlink:href="#DejaVuSans-65" transform="translate(767.082031 0)"/>
      <use xlink:href="#DejaVuSans-2d" transform="translate(828.605469 0)"/>
      <use xlink:href="#DejaVuSans-6f" transform="translate(866.564453 0)"/>
      <use xlink:href="#DejaVuSans-6e" transform="translate(927.746094 0)"/>
      <use xlink:href="#DejaVuSans-6c" transform="translate(991.125 0)"/>
      <use xlink:href="#DejaVuSans-79" transform="translate(1018.908203 0)"/>
     </g>
    </g>
   </g>
  </g>
 </g>
 <defs>
  <clipPath id="p6695bffe19">
   <rect x="43.78125" y="22.318125" width="357.12" height="266.112"/>
  </clipPath>
 </defs>
</svg>
