<?xml version="1.0" encoding="utf-8" standalone="no"?>
<!DOCTYPE svg PUBLIC "-//W3C//DTD SVG 1.1//EN"
  "http://www.w3.org/Graphics/SVG/1.1/DTD/svg11.dtd">
<svg xmlns:xlink="http://www.w3.org/1999/xlink" width="430.373125pt" height="339.291975pt" viewBox="0 0 430.373125 339.291975" xmlns="http://www.w3.org/2000/svg" version="1.1">
 <metadata>
  <rdf:RDF xmlns:dc="http://purl.org/dc/elements/1.1/" xmlns:cc="http://creativecommons.org/ns#" xmlns:rdf="http://www.w3.org/1999/02/22-rdf-syntax-ns#">
   <cc:Work>
    <dc:type rdf:resource="http://purl.org/dc/dcmitype/StillImage"/>
    <dc:date>2025-09-12T15:33:16.168408</dc:date>
    <dc:format>image/svg+xml</dc:format>
    <dc:creator>
     <cc:Agent>
      <dc:title>Matplotlib v3.10.6, https://matplotlib.org/</dc:title>
     </cc:Agent>
    </dc:creator>
   </cc:Work>
  </rdf:RDF>
 </metadata>
 <defs>
  <style type="text/css">*{stroke-linejoin: round; stroke-linecap: butt}</style>
 </defs>
 <g id="figure_1">
  <g id="patch_1">
   <path d="M 0 339.291975 
L 430.373125 339.291975 
L 430.373125 0 
L 0 0 
z
" style="fill: #ffffff"/>
  </g>
  <g id="axes_1">
   <g id="patch_2">
    <path d="M 66.053125 301.735725 
L 423.173125 301.735725 
L 423.173125 35.623725 
L 66.053125 35.623725 
z
" style="fill: #ffffff"/>
   </g>
   <g id="matplotlib.axis_1">
    <g id="xtick_1">
     <g id="line2d_1">
      <path d="M 79.729517 301.735725 
L 79.729517 35.623725 
" clip-path="url(#pc11bf9848d)" style="fill: none; stroke: #cccccc; stroke-width: 0.8; stroke-linecap: round"/>
     </g>
     <g id="text_1">
      <!-- 0 -->
      <g style="fill: #262626" transform="translate(76.548267 316.334162) scale(0.1 -0.1)">
       <defs>
        <path id="DejaVuSans-30" d="M 2034 4250 
Q 1547 4250 1301 3770 
Q 1056 3291 1056 2328 
Q 1056 1369 1301 889 
Q 1547 409 2034 409 
Q 2525 409 2770 889 
Q 3016 1369 3016 2328 
Q 3016 3291 2770 3770 
Q 2525 4250 2034 4250 
z
M 2034 4750 
Q 2819 4750 3233 4129 
Q 3647 3509 3647 2328 
Q 3647 1150 3233 529 
Q 2819 -91 2034 -91 
Q 1250 -91 836 529 
Q 422 1150 422 2328 
Q 422 3509 836 4129 
Q 1250 4750 2034 4750 
z
" transform="scale(0.015625)"/>
       </defs>
       <use xlink:href="#DejaVuSans-30"/>
      </g>
     </g>
    </g>
    <g id="xtick_2">
     <g id="line2d_2">
      <path d="M 143.637892 301.735725 
L 143.637892 35.623725 
" clip-path="url(#pc11bf9848d)" style="fill: none; stroke: #cccccc; stroke-width: 0.8; stroke-linecap: round"/>
     </g>
     <g id="text_2">
      <!-- 200 -->
      <g style="fill: #262626" transform="translate(134.094142 316.334162) scale(0.1 -0.1)">
       <defs>
        <path id="DejaVuSans-32" d="M 1228 531 
L 3431 531 
L 3431 0 
L 469 0 
L 469 531 
Q 828 903 1448 1529 
Q 2069 2156 2228 2338 
Q 2531 2678 2651 2914 
Q 2772 3150 2772 3378 
Q 2772 3750 2511 3984 
Q 2250 4219 1831 4219 
Q 1534 4219 1204 4116 
Q 875 4013 500 3803 
L 500 4441 
Q 881 4594 1212 4672 
Q 1544 4750 1819 4750 
Q 2544 4750 2975 4387 
Q 3406 4025 3406 3419 
Q 3406 3131 3298 2873 
Q 3191 2616 2906 2266 
Q 2828 2175 2409 1742 
Q 1991 1309 1228 531 
z
" transform="scale(0.015625)"/>
       </defs>
       <use xlink:href="#DejaVuSans-32"/>
       <use xlink:href="#DejaVuSans-30" transform="translate(63.623047 0)"/>
       <use xlink:href="#DejaVuSans-30" transform="translate(127.246094 0)"/>
      </g>
     </g>
    </g>
    <g id="xtick_3">
     <g id="line2d_3">
      <path d="M 207.546267 301.735725 
L 207.546267 35.623725 
" clip-path="url(#pc11bf9848d)" style="fill: none; stroke: #cccccc; stroke-width: 0.8; stroke-linecap: round"/>
     </g>
     <g id="text_3">
      <!-- 400 -->
      <g style="fill: #262626" transform="translate(198.002517 316.334162) scale(0.1 -0.1)">
       <defs>
        <path id="DejaVuSans-34" d="M 2419 4116 
L 825 1625 
L 2419 1625 
L 2419 4116 
z
M 2253 4666 
L 3047 4666 
L 3047 1625 
L 3713 1625 
L 3713 1100 
L 3047 1100 
L 3047 0 
L 2419 0 
L 2419 1100 
L 313 1100 
L 313 1709 
L 2253 4666 
z
" transform="scale(0.015625)"/>
       </defs>
       <use xlink:href="#DejaVuSans-34"/>
       <use xlink:href="#DejaVuSans-30" transform="translate(63.623047 0)"/>
       <use xlink:href="#DejaVuSans-30" transform="translate(127.246094 0)"/>
      </g>
     </g>
    </g>
    <g id="xtick_4">
     <g id="line2d_4">
      <path d="M 271.454643 301.735725 
L 271.454643 35.623725 
" clip-path="url(#pc11bf9848d)" style="fill: none; stroke: #cccccc; stroke-width: 0.8; stroke-linecap: round"/>
     </g>
     <g id="text_4">
      <!-- 600 -->
      <g style="fill: #262626" transform="translate(261.910893 316.334162) scale(0.1 -0.1)">
       <defs>
        <path id="DejaVuSans-36" d="M 2113 2584 
Q 1688 2584 1439 2293 
Q 1191 2003 1191 1497 
Q 1191 994 1439 701 
Q 1688 409 2113 409 
Q 2538 409 2786 701 
Q 3034 994 3034 1497 
Q 3034 2003 2786 2293 
Q 2538 2584 2113 2584 
z
M 3366 4563 
L 3366 3988 
Q 3128 4100 2886 4159 
Q 2644 4219 2406 4219 
Q 1781 4219 1451 3797 
Q 1122 3375 1075 2522 
Q 1259 2794 1537 2939 
Q 1816 3084 2150 3084 
Q 2853 3084 3261 2657 
Q 3669 2231 3669 1497 
Q 3669 778 3244 343 
Q 2819 -91 2113 -91 
Q 1303 -91 875 529 
Q 447 1150 447 2328 
Q 447 3434 972 4092 
Q 1497 4750 2381 4750 
Q 2619 4750 2861 4703 
Q 3103 4656 3366 4563 
z
" transform="scale(0.015625)"/>
       </defs>
       <use xlink:href="#DejaVuSans-36"/>
       <use xlink:href="#DejaVuSans-30" transform="translate(63.623047 0)"/>
       <use xlink:href="#DejaVuSans-30" transform="translate(127.246094 0)"/>
      </g>
     </g>
    </g>
    <g id="xtick_5">
     <g id="line2d_5">
      <path d="M 335.363018 301.735725 
L 335.363018 35.623725 
" clip-path="url(#pc11bf9848d)" style="fill: none; stroke: #cccccc; stroke-width: 0.8; stroke-linecap: round"/>
     </g>
     <g id="text_5">
      <!-- 800 -->
      <g style="fill: #262626" transform="translate(325.819268 316.334162) scale(0.1 -0.1)">
       <defs>
        <path id="DejaVuSans-38" d="M 2034 2216 
Q 1584 2216 1326 1975 
Q 1069 1734 1069 1313 
Q 1069 891 1326 650 
Q 1584 409 2034 409 
Q 2484 409 2743 651 
Q 3003 894 3003 1313 
Q 3003 1734 2745 1975 
Q 2488 2216 2034 2216 
z
M 1403 2484 
Q 997 2584 770 2862 
Q 544 3141 544 3541 
Q 544 4100 942 4425 
Q 1341 4750 2034 4750 
Q 2731 4750 3128 4425 
Q 3525 4100 3525 3541 
Q 3525 3141 3298 2862 
Q 3072 2584 2669 2484 
Q 3125 2378 3379 2068 
Q 3634 1759 3634 1313 
Q 3634 634 3220 271 
Q 2806 -91 2034 -91 
Q 1263 -91 848 271 
Q 434 634 434 1313 
Q 434 1759 690 2068 
Q 947 2378 1403 2484 
z
M 1172 3481 
Q 1172 3119 1398 2916 
Q 1625 2713 2034 2713 
Q 2441 2713 2670 2916 
Q 2900 3119 2900 3481 
Q 2900 3844 2670 4047 
Q 2441 4250 2034 4250 
Q 1625 4250 1398 4047 
Q 1172 3844 1172 3481 
z
" transform="scale(0.015625)"/>
       </defs>
       <use xlink:href="#DejaVuSans-38"/>
       <use xlink:href="#DejaVuSans-30" transform="translate(63.623047 0)"/>
       <use xlink:href="#DejaVuSans-30" transform="translate(127.246094 0)"/>
      </g>
     </g>
    </g>
    <g id="xtick_6">
     <g id="line2d_6">
      <path d="M 399.271393 301.735725 
L 399.271393 35.623725 
" clip-path="url(#pc11bf9848d)" style="fill: none; stroke: #cccccc; stroke-width: 0.8; stroke-linecap: round"/>
     </g>
     <g id="text_6">
      <!-- 1000 -->
      <g style="fill: #262626" transform="translate(386.546393 316.334162) scale(0.1 -0.1)">
       <defs>
        <path id="DejaVuSans-31" d="M 794 531 
L 1825 531 
L 1825 4091 
L 703 3866 
L 703 4441 
L 1819 4666 
L 2450 4666 
L 2450 531 
L 3481 531 
L 3481 0 
L 794 0 
L 794 531 
z
" transform="scale(0.015625)"/>
       </defs>
       <use xlink:href="#DejaVuSans-31"/>
       <use xlink:href="#DejaVuSans-30" transform="translate(63.623047 0)"/>
       <use xlink:href="#DejaVuSans-30" transform="translate(127.246094 0)"/>
       <use xlink:href="#DejaVuSans-30" transform="translate(190.869141 0)"/>
      </g>
     </g>
    </g>
    <g id="text_7">
     <!-- Number of Tasks -->
     <g style="fill: #262626" transform="translate(203.131875 330.012287) scale(0.1 -0.1)">
      <defs>
       <path id="DejaVuSans-4e" d="M 628 4666 
L 1478 4666 
L 3547 763 
L 3547 4666 
L 4159 4666 
L 4159 0 
L 3309 0 
L 1241 3903 
L 1241 0 
L 628 0 
L 628 4666 
z
" transform="scale(0.015625)"/>
       <path id="DejaVuSans-75" d="M 544 1381 
L 544 3500 
L 1119 3500 
L 1119 1403 
Q 1119 906 1312 657 
Q 1506 409 1894 409 
Q 2359 409 2629 706 
Q 2900 1003 2900 1516 
L 2900 3500 
L 3475 3500 
L 3475 0 
L 2900 0 
L 2900 538 
Q 2691 219 2414 64 
Q 2138 -91 1772 -91 
Q 1169 -91 856 284 
Q 544 659 544 1381 
z
M 1991 3584 
L 1991 3584 
z
" transform="scale(0.015625)"/>
       <path id="DejaVuSans-6d" d="M 3328 2828 
Q 3544 3216 3844 3400 
Q 4144 3584 4550 3584 
Q 5097 3584 5394 3201 
Q 5691 2819 5691 2113 
L 5691 0 
L 5113 0 
L 5113 2094 
Q 5113 2597 4934 2840 
Q 4756 3084 4391 3084 
Q 3944 3084 3684 2787 
Q 3425 2491 3425 1978 
L 3425 0 
L 2847 0 
L 2847 2094 
Q 2847 2600 2669 2842 
Q 2491 3084 2119 3084 
Q 1678 3084 1418 2786 
Q 1159 2488 1159 1978 
L 1159 0 
L 581 0 
L 581 3500 
L 1159 3500 
L 1159 2956 
Q 1356 3278 1631 3431 
Q 1906 3584 2284 3584 
Q 2666 3584 2933 3390 
Q 3200 3197 3328 2828 
z
" transform="scale(0.015625)"/>
       <path id="DejaVuSans-62" d="M 3116 1747 
Q 3116 2381 2855 2742 
Q 2594 3103 2138 3103 
Q 1681 3103 1420 2742 
Q 1159 2381 1159 1747 
Q 1159 1113 1420 752 
Q 1681 391 2138 391 
Q 2594 391 2855 752 
Q 3116 1113 3116 1747 
z
M 1159 2969 
Q 1341 3281 1617 3432 
Q 1894 3584 2278 3584 
Q 2916 3584 3314 3078 
Q 3713 2572 3713 1747 
Q 3713 922 3314 415 
Q 2916 -91 2278 -91 
Q 1894 -91 1617 61 
Q 1341 213 1159 525 
L 1159 0 
L 581 0 
L 581 4863 
L 1159 4863 
L 1159 2969 
z
" transform="scale(0.015625)"/>
       <path id="DejaVuSans-65" d="M 3597 1894 
L 3597 1613 
L 953 1613 
Q 991 1019 1311 708 
Q 1631 397 2203 397 
Q 2534 397 2845 478 
Q 3156 559 3463 722 
L 3463 178 
Q 3153 47 2828 -22 
Q 2503 -91 2169 -91 
Q 1331 -91 842 396 
Q 353 884 353 1716 
Q 353 2575 817 3079 
Q 1281 3584 2069 3584 
Q 2775 3584 3186 3129 
Q 3597 2675 3597 1894 
z
M 3022 2063 
Q 3016 2534 2758 2815 
Q 2500 3097 2075 3097 
Q 1594 3097 1305 2825 
Q 1016 2553 972 2059 
L 3022 2063 
z
" transform="scale(0.015625)"/>
       <path id="DejaVuSans-72" d="M 2631 2963 
Q 2534 3019 2420 3045 
Q 2306 3072 2169 3072 
Q 1681 3072 1420 2755 
Q 1159 2438 1159 1844 
L 1159 0 
L 581 0 
L 581 3500 
L 1159 3500 
L 1159 2956 
Q 1341 3275 1631 3429 
Q 1922 3584 2338 3584 
Q 2397 3584 2469 3576 
Q 2541 3569 2628 3553 
L 2631 2963 
z
" transform="scale(0.015625)"/>
       <path id="DejaVuSans-20" transform="scale(0.015625)"/>
       <path id="DejaVuSans-6f" d="M 1959 3097 
Q 1497 3097 1228 2736 
Q 959 2375 959 1747 
Q 959 1119 1226 758 
Q 1494 397 1959 397 
Q 2419 397 2687 759 
Q 2956 1122 2956 1747 
Q 2956 2369 2687 2733 
Q 2419 3097 1959 3097 
z
M 1959 3584 
Q 2709 3584 3137 3096 
Q 3566 2609 3566 1747 
Q 3566 888 3137 398 
Q 2709 -91 1959 -91 
Q 1206 -91 779 398 
Q 353 888 353 1747 
Q 353 2609 779 3096 
Q 1206 3584 1959 3584 
z
" transform="scale(0.015625)"/>
       <path id="DejaVuSans-66" d="M 2375 4863 
L 2375 4384 
L 1825 4384 
Q 1516 4384 1395 4259 
Q 1275 4134 1275 3809 
L 1275 3500 
L 2222 3500 
L 2222 3053 
L 1275 3053 
L 1275 0 
L 697 0 
L 697 3053 
L 147 3053 
L 147 3500 
L 697 3500 
L 697 3744 
Q 697 4328 969 4595 
Q 1241 4863 1831 4863 
L 2375 4863 
z
" transform="scale(0.015625)"/>
       <path id="DejaVuSans-54" d="M -19 4666 
L 3928 4666 
L 3928 4134 
L 2272 4134 
L 2272 0 
L 1638 0 
L 1638 4134 
L -19 4134 
L -19 4666 
z
" transform="scale(0.015625)"/>
       <path id="DejaVuSans-61" d="M 2194 1759 
Q 1497 1759 1228 1600 
Q 959 1441 959 1056 
Q 959 750 1161 570 
Q 1363 391 1709 391 
Q 2188 391 2477 730 
Q 2766 1069 2766 1631 
L 2766 1759 
L 2194 1759 
z
M 3341 1997 
L 3341 0 
L 2766 0 
L 2766 531 
Q 2569 213 2275 61 
Q 1981 -91 1556 -91 
Q 1019 -91 701 211 
Q 384 513 384 1019 
Q 384 1609 779 1909 
Q 1175 2209 1959 2209 
L 2766 2209 
L 2766 2266 
Q 2766 2663 2505 2880 
Q 2244 3097 1772 3097 
Q 1472 3097 1187 3025 
Q 903 2953 641 2809 
L 641 3341 
Q 956 3463 1253 3523 
Q 1550 3584 1831 3584 
Q 2591 3584 2966 3190 
Q 3341 2797 3341 1997 
z
" transform="scale(0.015625)"/>
       <path id="DejaVuSans-73" d="M 2834 3397 
L 2834 2853 
Q 2591 2978 2328 3040 
Q 2066 3103 1784 3103 
Q 1356 3103 1142 2972 
Q 928 2841 928 2578 
Q 928 2378 1081 2264 
Q 1234 2150 1697 2047 
L 1894 2003 
Q 2506 1872 2764 1633 
Q 3022 1394 3022 966 
Q 3022 478 2636 193 
Q 2250 -91 1575 -91 
Q 1294 -91 989 -36 
Q 684 19 347 128 
L 347 722 
Q 666 556 975 473 
Q 1284 391 1588 391 
Q 1994 391 2212 530 
Q 2431 669 2431 922 
Q 2431 1156 2273 1281 
Q 2116 1406 1581 1522 
L 1381 1569 
Q 847 1681 609 1914 
Q 372 2147 372 2553 
Q 372 3047 722 3315 
Q 1072 3584 1716 3584 
Q 2034 3584 2315 3537 
Q 2597 3491 2834 3397 
z
" transform="scale(0.015625)"/>
       <path id="DejaVuSans-6b" d="M 581 4863 
L 1159 4863 
L 1159 1991 
L 2875 3500 
L 3609 3500 
L 1753 1863 
L 3688 0 
L 2938 0 
L 1159 1709 
L 1159 0 
L 581 0 
L 581 4863 
z
" transform="scale(0.015625)"/>
      </defs>
      <use xlink:href="#DejaVuSans-4e"/>
      <use xlink:href="#DejaVuSans-75" transform="translate(74.804688 0)"/>
      <use xlink:href="#DejaVuSans-6d" transform="translate(138.183594 0)"/>
      <use xlink:href="#DejaVuSans-62" transform="translate(235.595703 0)"/>
      <use xlink:href="#DejaVuSans-65" transform="translate(299.072266 0)"/>
      <use xlink:href="#DejaVuSans-72" transform="translate(360.595703 0)"/>
      <use xlink:href="#DejaVuSans-20" transform="translate(401.708984 0)"/>
      <use xlink:href="#DejaVuSans-6f" transform="translate(433.496094 0)"/>
      <use xlink:href="#DejaVuSans-66" transform="translate(494.677734 0)"/>
      <use xlink:href="#DejaVuSans-20" transform="translate(529.882812 0)"/>
      <use xlink:href="#DejaVuSans-54" transform="translate(561.669922 0)"/>
      <use xlink:href="#DejaVuSans-61" transform="translate(606.253906 0)"/>
      <use xlink:href="#DejaVuSans-73" transform="translate(667.533203 0)"/>
      <use xlink:href="#DejaVuSans-6b" transform="translate(719.632812 0)"/>
      <use xlink:href="#DejaVuSans-73" transform="translate(777.542969 0)"/>
     </g>
    </g>
   </g>
   <g id="matplotlib.axis_2">
    <g id="ytick_1">
     <g id="line2d_7">
      <path d="M 66.053125 290.185809 
L 423.173125 290.185809 
" clip-path="url(#pc11bf9848d)" style="fill: none; stroke: #cccccc; stroke-width: 0.8; stroke-linecap: round"/>
     </g>
     <g id="text_8">
      <!-- 0 -->
      <g style="fill: #262626" transform="translate(52.690625 293.985028) scale(0.1 -0.1)">
       <use xlink:href="#DejaVuSans-30"/>
      </g>
     </g>
    </g>
    <g id="ytick_2">
     <g id="line2d_8">
      <path d="M 66.053125 255.953208 
L 423.173125 255.953208 
" clip-path="url(#pc11bf9848d)" style="fill: none; stroke: #cccccc; stroke-width: 0.8; stroke-linecap: round"/>
     </g>
     <g id="text_9">
      <!-- 100000 -->
      <g style="fill: #262626" transform="translate(20.878125 259.752427) scale(0.1 -0.1)">
       <use xlink:href="#DejaVuSans-31"/>
       <use xlink:href="#DejaVuSans-30" transform="translate(63.623047 0)"/>
       <use xlink:href="#DejaVuSans-30" transform="translate(127.246094 0)"/>
       <use xlink:href="#DejaVuSans-30" transform="translate(190.869141 0)"/>
       <use xlink:href="#DejaVuSans-30" transform="translate(254.492188 0)"/>
       <use xlink:href="#DejaVuSans-30" transform="translate(318.115234 0)"/>
      </g>
     </g>
    </g>
    <g id="ytick_3">
     <g id="line2d_9">
      <path d="M 66.053125 221.720607 
L 423.173125 221.720607 
" clip-path="url(#pc11bf9848d)" style="fill: none; stroke: #cccccc; stroke-width: 0.8; stroke-linecap: round"/>
     </g>
     <g id="text_10">
      <!-- 200000 -->
      <g style="fill: #262626" transform="translate(20.878125 225.519826) scale(0.1 -0.1)">
       <use xlink:href="#DejaVuSans-32"/>
       <use xlink:href="#DejaVuSans-30" transform="translate(63.623047 0)"/>
       <use xlink:href="#DejaVuSans-30" transform="translate(127.246094 0)"/>
       <use xlink:href="#DejaVuSans-30" transform="translate(190.869141 0)"/>
       <use xlink:href="#DejaVuSans-30" transform="translate(254.492188 0)"/>
       <use xlink:href="#DejaVuSans-30" transform="translate(318.115234 0)"/>
      </g>
     </g>
    </g>
    <g id="ytick_4">
     <g id="line2d_10">
      <path d="M 66.053125 187.488007 
L 423.173125 187.488007 
" clip-path="url(#pc11bf9848d)" style="fill: none; stroke: #cccccc; stroke-width: 0.8; stroke-linecap: round"/>
     </g>
     <g id="text_11">
      <!-- 300000 -->
      <g style="fill: #262626" transform="translate(20.878125 191.287225) scale(0.1 -0.1)">
       <defs>
        <path id="DejaVuSans-33" d="M 2597 2516 
Q 3050 2419 3304 2112 
Q 3559 1806 3559 1356 
Q 3559 666 3084 287 
Q 2609 -91 1734 -91 
Q 1441 -91 1130 -33 
Q 819 25 488 141 
L 488 750 
Q 750 597 1062 519 
Q 1375 441 1716 441 
Q 2309 441 2620 675 
Q 2931 909 2931 1356 
Q 2931 1769 2642 2001 
Q 2353 2234 1838 2234 
L 1294 2234 
L 1294 2753 
L 1863 2753 
Q 2328 2753 2575 2939 
Q 2822 3125 2822 3475 
Q 2822 3834 2567 4026 
Q 2313 4219 1838 4219 
Q 1578 4219 1281 4162 
Q 984 4106 628 3988 
L 628 4550 
Q 988 4650 1302 4700 
Q 1616 4750 1894 4750 
Q 2613 4750 3031 4423 
Q 3450 4097 3450 3541 
Q 3450 3153 3228 2886 
Q 3006 2619 2597 2516 
z
" transform="scale(0.015625)"/>
       </defs>
       <use xlink:href="#DejaVuSans-33"/>
       <use xlink:href="#DejaVuSans-30" transform="translate(63.623047 0)"/>
       <use xlink:href="#DejaVuSans-30" transform="translate(127.246094 0)"/>
       <use xlink:href="#DejaVuSans-30" transform="translate(190.869141 0)"/>
       <use xlink:href="#DejaVuSans-30" transform="translate(254.492188 0)"/>
       <use xlink:href="#DejaVuSans-30" transform="translate(318.115234 0)"/>
      </g>
     </g>
    </g>
    <g id="ytick_5">
     <g id="line2d_11">
      <path d="M 66.053125 153.255406 
L 423.173125 153.255406 
" clip-path="url(#pc11bf9848d)" style="fill: none; stroke: #cccccc; stroke-width: 0.8; stroke-linecap: round"/>
     </g>
     <g id="text_12">
      <!-- 400000 -->
      <g style="fill: #262626" transform="translate(20.878125 157.054625) scale(0.1 -0.1)">
       <use xlink:href="#DejaVuSans-34"/>
       <use xlink:href="#DejaVuSans-30" transform="translate(63.623047 0)"/>
       <use xlink:href="#DejaVuSans-30" transform="translate(127.246094 0)"/>
       <use xlink:href="#DejaVuSans-30" transform="translate(190.869141 0)"/>
       <use xlink:href="#DejaVuSans-30" transform="translate(254.492188 0)"/>
       <use xlink:href="#DejaVuSans-30" transform="translate(318.115234 0)"/>
      </g>
     </g>
    </g>
    <g id="ytick_6">
     <g id="line2d_12">
      <path d="M 66.053125 119.022805 
L 423.173125 119.022805 
" clip-path="url(#pc11bf9848d)" style="fill: none; stroke: #cccccc; stroke-width: 0.8; stroke-linecap: round"/>
     </g>
     <g id="text_13">
      <!-- 500000 -->
      <g style="fill: #262626" transform="translate(20.878125 122.822024) scale(0.1 -0.1)">
       <defs>
        <path id="DejaVuSans-35" d="M 691 4666 
L 3169 4666 
L 3169 4134 
L 1269 4134 
L 1269 2991 
Q 1406 3038 1543 3061 
Q 1681 3084 1819 3084 
Q 2600 3084 3056 2656 
Q 3513 2228 3513 1497 
Q 3513 744 3044 326 
Q 2575 -91 1722 -91 
Q 1428 -91 1123 -41 
Q 819 9 494 109 
L 494 744 
Q 775 591 1075 516 
Q 1375 441 1709 441 
Q 2250 441 2565 725 
Q 2881 1009 2881 1497 
Q 2881 1984 2565 2268 
Q 2250 2553 1709 2553 
Q 1456 2553 1204 2497 
Q 953 2441 691 2322 
L 691 4666 
z
" transform="scale(0.015625)"/>
       </defs>
       <use xlink:href="#DejaVuSans-35"/>
       <use xlink:href="#DejaVuSans-30" transform="translate(63.623047 0)"/>
       <use xlink:href="#DejaVuSans-30" transform="translate(127.246094 0)"/>
       <use xlink:href="#DejaVuSans-30" transform="translate(190.869141 0)"/>
       <use xlink:href="#DejaVuSans-30" transform="translate(254.492188 0)"/>
       <use xlink:href="#DejaVuSans-30" transform="translate(318.115234 0)"/>
      </g>
     </g>
    </g>
    <g id="ytick_7">
     <g id="line2d_13">
      <path d="M 66.053125 84.790204 
L 423.173125 84.790204 
" clip-path="url(#pc11bf9848d)" style="fill: none; stroke: #cccccc; stroke-width: 0.8; stroke-linecap: round"/>
     </g>
     <g id="text_14">
      <!-- 600000 -->
      <g style="fill: #262626" transform="translate(20.878125 88.589423) scale(0.1 -0.1)">
       <use xlink:href="#DejaVuSans-36"/>
       <use xlink:href="#DejaVuSans-30" transform="translate(63.623047 0)"/>
       <use xlink:href="#DejaVuSans-30" transform="translate(127.246094 0)"/>
       <use xlink:href="#DejaVuSans-30" transform="translate(190.869141 0)"/>
       <use xlink:href="#DejaVuSans-30" transform="translate(254.492188 0)"/>
       <use xlink:href="#DejaVuSans-30" transform="translate(318.115234 0)"/>
      </g>
     </g>
    </g>
    <g id="ytick_8">
     <g id="line2d_14">
      <path d="M 66.053125 50.557603 
L 423.173125 50.557603 
" clip-path="url(#pc11bf9848d)" style="fill: none; stroke: #cccccc; stroke-width: 0.8; stroke-linecap: round"/>
     </g>
     <g id="text_15">
      <!-- 700000 -->
      <g style="fill: #262626" transform="translate(20.878125 54.356822) scale(0.1 -0.1)">
       <defs>
        <path id="DejaVuSans-37" d="M 525 4666 
L 3525 4666 
L 3525 4397 
L 1831 0 
L 1172 0 
L 2766 4134 
L 525 4134 
L 525 4666 
z
" transform="scale(0.015625)"/>
       </defs>
       <use xlink:href="#DejaVuSans-37"/>
       <use xlink:href="#DejaVuSans-30" transform="translate(63.623047 0)"/>
       <use xlink:href="#DejaVuSans-30" transform="translate(127.246094 0)"/>
       <use xlink:href="#DejaVuSans-30" transform="translate(190.869141 0)"/>
       <use xlink:href="#DejaVuSans-30" transform="translate(254.492188 0)"/>
       <use xlink:href="#DejaVuSans-30" transform="translate(318.115234 0)"/>
      </g>
     </g>
    </g>
    <g id="text_16">
     <!-- IOPS -->
     <g style="fill: #262626" transform="translate(14.798438 180.279725) rotate(-90) scale(0.1 -0.1)">
      <defs>
       <path id="DejaVuSans-49" d="M 628 4666 
L 1259 4666 
L 1259 0 
L 628 0 
L 628 4666 
z
" transform="scale(0.015625)"/>
       <path id="DejaVuSans-4f" d="M 2522 4238 
Q 1834 4238 1429 3725 
Q 1025 3213 1025 2328 
Q 1025 1447 1429 934 
Q 1834 422 2522 422 
Q 3209 422 3611 934 
Q 4013 1447 4013 2328 
Q 4013 3213 3611 3725 
Q 3209 4238 2522 4238 
z
M 2522 4750 
Q 3503 4750 4090 4092 
Q 4678 3434 4678 2328 
Q 4678 1225 4090 567 
Q 3503 -91 2522 -91 
Q 1538 -91 948 565 
Q 359 1222 359 2328 
Q 359 3434 948 4092 
Q 1538 4750 2522 4750 
z
" transform="scale(0.015625)"/>
       <path id="DejaVuSans-50" d="M 1259 4147 
L 1259 2394 
L 2053 2394 
Q 2494 2394 2734 2622 
Q 2975 2850 2975 3272 
Q 2975 3691 2734 3919 
Q 2494 4147 2053 4147 
L 1259 4147 
z
M 628 4666 
L 2053 4666 
Q 2838 4666 3239 4311 
Q 3641 3956 3641 3272 
Q 3641 2581 3239 2228 
Q 2838 1875 2053 1875 
L 1259 1875 
L 1259 0 
L 628 0 
L 628 4666 
z
" transform="scale(0.015625)"/>
       <path id="DejaVuSans-53" d="M 3425 4513 
L 3425 3897 
Q 3066 4069 2747 4153 
Q 2428 4238 2131 4238 
Q 1616 4238 1336 4038 
Q 1056 3838 1056 3469 
Q 1056 3159 1242 3001 
Q 1428 2844 1947 2747 
L 2328 2669 
Q 3034 2534 3370 2195 
Q 3706 1856 3706 1288 
Q 3706 609 3251 259 
Q 2797 -91 1919 -91 
Q 1588 -91 1214 -16 
Q 841 59 441 206 
L 441 856 
Q 825 641 1194 531 
Q 1563 422 1919 422 
Q 2459 422 2753 634 
Q 3047 847 3047 1241 
Q 3047 1584 2836 1778 
Q 2625 1972 2144 2069 
L 1759 2144 
Q 1053 2284 737 2584 
Q 422 2884 422 3419 
Q 422 4038 858 4394 
Q 1294 4750 2059 4750 
Q 2388 4750 2728 4690 
Q 3069 4631 3425 4513 
z
" transform="scale(0.015625)"/>
      </defs>
      <use xlink:href="#DejaVuSans-49"/>
      <use xlink:href="#DejaVuSans-4f" transform="translate(29.492188 0)"/>
      <use xlink:href="#DejaVuSans-50" transform="translate(108.203125 0)"/>
      <use xlink:href="#DejaVuSans-53" transform="translate(168.505859 0)"/>
     </g>
    </g>
   </g>
   <g id="FillBetweenPolyCollection_1">
    <path d="M 87.398522 230.32014 
L 87.398522 261.295807 
L 89.954857 264.058712 
L 95.067527 260.282795 
L 100.180197 238.739494 
L 110.405537 247.610404 
L 110.405537 93.499863 
L 110.405537 93.499863 
L 100.180197 129.804812 
L 95.067527 171.821691 
L 89.954857 211.852852 
L 87.398522 230.32014 
z
" clip-path="url(#pc11bf9848d)" style="fill: #3b0f70; fill-opacity: 0.2; stroke: #3b0f70; stroke-opacity: 0.2"/>
    <path d="M 120.630877 183.532468 
L 120.630877 268.432851 
L 141.081557 232.596546 
L 141.081557 48.42858 
L 141.081557 48.42858 
L 120.630877 183.532468 
z
" clip-path="url(#pc11bf9848d)" style="fill: #3b0f70; fill-opacity: 0.2; stroke: #3b0f70; stroke-opacity: 0.2"/>
    <path d="M 161.532237 75.363456 
L 161.532237 239.66129 
L 202.433597 171.525682 
L 202.433597 48.098429 
L 202.433597 48.098429 
L 161.532237 75.363456 
z
" clip-path="url(#pc11bf9848d)" style="fill: #3b0f70; fill-opacity: 0.2; stroke: #3b0f70; stroke-opacity: 0.2"/>
   </g>
   <g id="FillBetweenPolyCollection_2">
    <path d="M 87.398522 277.675423 
L 87.398522 284.126068 
L 89.954857 284.259165 
L 95.067527 283.230222 
L 100.180197 280.224898 
L 110.405537 283.681596 
L 110.405537 247.82631 
L 110.405537 247.82631 
L 100.180197 253.612046 
L 95.067527 265.183403 
L 89.954857 275.084534 
L 87.398522 277.675423 
z
" clip-path="url(#pc11bf9848d)" style="fill: #8c2981; fill-opacity: 0.2; stroke: #8c2981; stroke-opacity: 0.2"/>
    <path d="M 120.630877 265.478118 
L 120.630877 285.834218 
L 141.081557 281.572212 
L 141.081557 243.356355 
L 141.081557 243.356355 
L 120.630877 265.478118 
z
" clip-path="url(#pc11bf9848d)" style="fill: #8c2981; fill-opacity: 0.2; stroke: #8c2981; stroke-opacity: 0.2"/>
    <path d="M 161.532237 246.541973 
L 161.532237 282.149073 
L 202.433597 267.39002 
L 202.433597 243.09343 
L 202.433597 243.09343 
L 161.532237 246.541973 
z
" clip-path="url(#pc11bf9848d)" style="fill: #8c2981; fill-opacity: 0.2; stroke: #8c2981; stroke-opacity: 0.2"/>
   </g>
   <g id="FillBetweenPolyCollection_3">
    <path d="M 87.398522 281.409561 
L 87.398522 284.491864 
L 89.954857 284.967122 
L 95.067527 285.071244 
L 100.180197 282.51309 
L 110.405537 283.421723 
L 110.405537 260.589415 
L 110.405537 260.589415 
L 100.180197 259.551965 
L 95.067527 270.194072 
L 89.954857 277.919685 
L 87.398522 281.409561 
z
" clip-path="url(#pc11bf9848d)" style="fill: #de4968; fill-opacity: 0.2; stroke: #de4968; stroke-opacity: 0.2"/>
    <path d="M 120.630877 271.37662 
L 120.630877 286.232072 
L 141.081557 282.276739 
L 141.081557 251.785375 
L 141.081557 251.785375 
L 120.630877 271.37662 
z
" clip-path="url(#pc11bf9848d)" style="fill: #de4968; fill-opacity: 0.2; stroke: #de4968; stroke-opacity: 0.2"/>
    <path d="M 161.532237 256.712988 
L 161.532237 283.036837 
L 202.433597 272.621387 
L 202.433597 251.962243 
L 202.433597 251.962243 
L 161.532237 256.712988 
z
" clip-path="url(#pc11bf9848d)" style="fill: #de4968; fill-opacity: 0.2; stroke: #de4968; stroke-opacity: 0.2"/>
   </g>
   <g id="FillBetweenPolyCollection_4">
    <path d="M 87.398522 287.654244 
L 87.398522 289.182332 
L 89.954857 289.364145 
L 95.067527 289.250792 
L 100.180197 288.717031 
L 110.405537 289.224409 
L 110.405537 281.791196 
L 110.405537 281.791196 
L 100.180197 281.335531 
L 95.067527 285.014549 
L 89.954857 286.646686 
L 87.398522 287.654244 
z
" clip-path="url(#pc11bf9848d)" style="fill: #fe9f6d; fill-opacity: 0.2; stroke: #fe9f6d; stroke-opacity: 0.2"/>
    <path d="M 120.630877 287.2164 
L 120.630877 289.639725 
L 141.081557 289.204352 
L 141.081557 283.789435 
L 141.081557 283.789435 
L 120.630877 287.2164 
z
" clip-path="url(#pc11bf9848d)" style="fill: #fe9f6d; fill-opacity: 0.2; stroke: #fe9f6d; stroke-opacity: 0.2"/>
    <path d="M 161.532237 284.346224 
L 161.532237 289.305144 
L 202.433597 287.786602 
L 202.433597 283.981454 
L 202.433597 283.981454 
L 161.532237 284.346224 
z
" clip-path="url(#pc11bf9848d)" style="fill: #fe9f6d; fill-opacity: 0.2; stroke: #fe9f6d; stroke-opacity: 0.2"/>
   </g>
   <g id="line2d_15">
    <path d="M 82.285852 270.171202 
L 83.56402 258.8287 
L 84.842187 250.601576 
L 87.398522 245.807974 
L 89.954857 237.955782 
L 95.067527 220.581237 
L 100.180197 184.272153 
L 110.405537 178.522399 
L 114.24004 270.500687 
L 120.630877 225.982659 
L 141.081557 150.505838 
L 148.750562 247.972344 
L 161.532237 157.512373 
L 202.433597 109.812056 
L 217.771607 171.081561 
L 243.334957 173.209086 
L 325.137678 49.412562 
L 355.813698 47.719725 
L 406.940398 56.962219 
" clip-path="url(#pc11bf9848d)" style="fill: none; stroke: #3b0f70; stroke-width: 1.5; stroke-linecap: round"/>
   </g>
   <g id="line2d_16">
    <path d="M 82.285852 285.207146 
L 83.56402 282.700375 
L 84.842187 282.310953 
L 87.398522 280.900745 
L 89.954857 279.671849 
L 95.067527 275.5726 
L 100.180197 266.918472 
L 110.405537 266.173408 
L 114.24004 284.506462 
L 120.630877 275.656168 
L 141.081557 262.578774 
L 148.750562 281.462319 
L 161.532237 264.345523 
L 202.433597 255.241725 
L 217.771607 268.333244 
L 243.334957 270.119155 
L 325.137678 254.866027 
L 355.813698 256.168277 
L 406.940398 254.927373 
" clip-path="url(#pc11bf9848d)" style="fill: none; stroke: #8c2981; stroke-width: 1.5; stroke-linecap: round"/>
   </g>
   <g id="line2d_17">
    <path d="M 82.285852 286.110779 
L 83.56402 283.845083 
L 84.842187 283.132657 
L 87.398522 282.950713 
L 89.954857 281.443403 
L 95.067527 278.918781 
L 100.180197 271.032528 
L 110.405537 272.00912 
L 114.24004 285.828524 
L 120.630877 278.804346 
L 141.081557 266.883278 
L 148.750562 282.094625 
L 161.532237 269.874913 
L 202.433597 262.291815 
L 217.771607 275.444681 
L 243.334957 274.853198 
L 325.137678 257.386513 
L 355.813698 256.460576 
L 406.940398 260.122836 
" clip-path="url(#pc11bf9848d)" style="fill: none; stroke: #de4968; stroke-width: 1.5; stroke-linecap: round"/>
   </g>
   <g id="line2d_18">
    <path d="M 82.285852 289.293901 
L 83.56402 288.884339 
L 84.842187 288.289438 
L 87.398522 288.418288 
L 89.954857 288.005416 
L 95.067527 287.607774 
L 100.180197 285.026281 
L 110.405537 286.068334 
L 114.24004 289.572679 
L 120.630877 288.428063 
L 141.081557 286.772058 
L 148.750562 289.212731 
L 161.532237 286.825684 
L 202.433597 285.884028 
L 217.771607 288.096543 
L 243.334957 288.105402 
L 325.137678 285.775841 
L 355.813698 286.046413 
L 406.940398 286.320906 
" clip-path="url(#pc11bf9848d)" style="fill: none; stroke: #fe9f6d; stroke-width: 1.5; stroke-linecap: round"/>
   </g>
   <g id="line2d_19"/>
   <g id="line2d_20"/>
   <g id="line2d_21"/>
   <g id="line2d_22"/>
   <g id="text_17">
    <path d="M 145.608017 232.633759 
L 145.734381 234.239733 
L 151.279741 233.803405 
L 150.791745 232.083259 
L 151.687414 232.012784 
L 152.174675 233.723584 
L 152.252013 234.706484 
L 145.810983 235.213287 
L 145.937347 236.819261 
L 145.110216 236.884342 
L 144.780886 232.698841 
L 145.608017 232.633759 
z
M 149.466674 240.779423 
Q 149.414584 240.117407 148.930779 239.76521 
Q 148.448654 239.414447 147.660465 239.476465 
Q 146.876949 239.538114 146.450944 239.960332 
Q 146.026618 240.383984 146.078708 241.046 
Q 146.130797 241.708017 146.616037 242.058534 
Q 147.102835 242.408929 147.886351 242.347279 
Q 148.67454 242.285262 149.095873 241.863412 
Q 149.518763 241.44144 149.466674 240.779423 
z
M 152.702906 242.488649 
L 151.807237 242.559123 
Q 151.952528 242.174667 152.01477 241.790476 
Q 152.078571 241.406162 152.049401 241.035433 
Q 151.972798 240.061879 151.275009 239.599565 
Q 150.577342 239.138809 149.242876 239.170145 
Q 149.689118 239.423421 149.949055 239.838686 
Q 150.209115 240.255509 150.250051 240.775776 
Q 150.336214 241.870829 149.721088 242.558699 
Q 149.10752 243.246447 147.964179 243.336409 
Q 146.844203 243.424533 146.11452 242.815832 
Q 145.386395 242.207008 145.299865 241.107282 
Q 145.200588 239.845557 146.113895 239.102878 
Q 147.028761 238.360076 148.863714 238.215696 
Q 150.586515 238.08014 151.675818 238.817277 
Q 152.765121 239.554415 152.873468 240.931409 
Q 152.902638 241.302138 152.859087 241.684859 
Q 152.815537 242.067579 152.702906 242.488649 
z
M 153.026833 244.553783 
L 153.104171 245.536682 
L 150.032415 245.778379 
L 153.36082 248.798476 
L 153.460465 250.064874 
L 149.78864 246.723851 
L 146.212527 250.893777 
L 146.110676 249.59934 
L 149.33613 245.833165 
L 145.83601 246.108567 
L 145.758672 245.125667 
L 153.026833 244.553783 
z
" clip-path="url(#pc11bf9848d)" style="fill: #3b0f70; stroke: #ffffff; stroke-width: 5"/>
    <path d="M 145.608017 232.633759 
L 145.734381 234.239733 
L 151.279741 233.803405 
L 150.791745 232.083259 
L 151.687414 232.012784 
L 152.174675 233.723584 
L 152.252013 234.706484 
L 145.810983 235.213287 
L 145.937347 236.819261 
L 145.110216 236.884342 
L 144.780886 232.698841 
L 145.608017 232.633759 
z
M 149.466674 240.779423 
Q 149.414584 240.117407 148.930779 239.76521 
Q 148.448654 239.414447 147.660465 239.476465 
Q 146.876949 239.538114 146.450944 239.960332 
Q 146.026618 240.383984 146.078708 241.046 
Q 146.130797 241.708017 146.616037 242.058534 
Q 147.102835 242.408929 147.886351 242.347279 
Q 148.67454 242.285262 149.095873 241.863412 
Q 149.518763 241.44144 149.466674 240.779423 
z
M 152.702906 242.488649 
L 151.807237 242.559123 
Q 151.952528 242.174667 152.01477 241.790476 
Q 152.078571 241.406162 152.049401 241.035433 
Q 151.972798 240.061879 151.275009 239.599565 
Q 150.577342 239.138809 149.242876 239.170145 
Q 149.689118 239.423421 149.949055 239.838686 
Q 150.209115 240.255509 150.250051 240.775776 
Q 150.336214 241.870829 149.721088 242.558699 
Q 149.10752 243.246447 147.964179 243.336409 
Q 146.844203 243.424533 146.11452 242.815832 
Q 145.386395 242.207008 145.299865 241.107282 
Q 145.200588 239.845557 146.113895 239.102878 
Q 147.028761 238.360076 148.863714 238.215696 
Q 150.586515 238.08014 151.675818 238.817277 
Q 152.765121 239.554415 152.873468 240.931409 
Q 152.902638 241.302138 152.859087 241.684859 
Q 152.815537 242.067579 152.702906 242.488649 
z
M 153.026833 244.553783 
L 153.104171 245.536682 
L 150.032415 245.778379 
L 153.36082 248.798476 
L 153.460465 250.064874 
L 149.78864 246.723851 
L 146.212527 250.893777 
L 146.110676 249.59934 
L 149.33613 245.833165 
L 145.83601 246.108567 
L 145.758672 245.125667 
L 153.026833 244.553783 
z
" clip-path="url(#pc11bf9848d)" style="fill: #3b0f70"/>
   </g>
   <g id="text_18">
    <path d="M 206.462172 261.217274 
L 207.687469 262.263108 
L 211.298687 258.032208 
L 209.737004 257.161468 
L 210.320276 256.478107 
L 211.874829 257.34276 
L 212.624744 257.982839 
L 208.430253 262.8971 
L 209.65555 263.942933 
L 209.116911 264.574002 
L 205.923532 261.848344 
L 206.462172 261.217274 
z
M 215.298619 260.265083 
L 216.416955 261.219621 
L 214.610537 266.200086 
L 219.253797 263.640963 
L 220.372133 264.595501 
L 215.639003 270.140832 
L 214.906914 269.51597 
L 219.062858 264.64687 
L 214.387108 267.229618 
L 213.633628 266.586496 
L 215.449956 261.563133 
L 211.294012 266.432233 
L 210.565489 265.810413 
L 215.298619 260.265083 
z
" clip-path="url(#pc11bf9848d)" style="fill: #8c2981; stroke: #ffffff; stroke-width: 5"/>
    <path d="M 206.462172 261.217274 
L 207.687469 262.263108 
L 211.298687 258.032208 
L 209.737004 257.161468 
L 210.320276 256.478107 
L 211.874829 257.34276 
L 212.624744 257.982839 
L 208.430253 262.8971 
L 209.65555 263.942933 
L 209.116911 264.574002 
L 205.923532 261.848344 
L 206.462172 261.217274 
z
M 215.298619 260.265083 
L 216.416955 261.219621 
L 214.610537 266.200086 
L 219.253797 263.640963 
L 220.372133 264.595501 
L 215.639003 270.140832 
L 214.906914 269.51597 
L 219.062858 264.64687 
L 214.387108 267.229618 
L 213.633628 266.586496 
L 215.449956 261.563133 
L 211.294012 266.432233 
L 210.565489 265.810413 
L 215.298619 260.265083 
z
" clip-path="url(#pc11bf9848d)" style="fill: #8c2981"/>
   </g>
   <g id="text_19">
    <path d="M 271.703245 270.769129 
L 275.06955 270.050349 
L 275.242801 270.861746 
L 270.716702 271.828168 
L 270.543451 271.016771 
Q 270.970649 270.331202 271.713796 269.17235 
Q 272.458144 268.011644 272.641723 267.681661 
Q 272.993791 267.063261 273.100157 266.663487 
Q 273.208051 266.263387 273.133661 265.914991 
Q 273.012287 265.346554 272.537117 265.074147 
Q 272.06162 264.800211 271.421365 264.93692 
Q 270.967533 265.033823 270.496881 265.298883 
Q 270.027757 265.563617 269.523254 266.006861 
L 269.315091 265.031962 
Q 269.847361 264.673859 270.327697 264.446674 
Q 270.809562 264.219163 271.229777 264.129438 
Q 272.337617 263.89289 273.114646 264.30695 
Q 273.891349 264.719482 274.089071 265.645483 
Q 274.183037 266.085563 274.102186 266.515039 
Q 274.022536 266.94266 273.701236 267.570467 
Q 273.611739 267.73497 273.11276 268.533326 
Q 272.61531 269.331356 271.703245 270.769129 
z
M 275.65932 263.317842 
L 277.097219 263.010818 
L 279.951523 267.474127 
L 280.744687 262.232004 
L 282.182586 261.92498 
L 283.704978 269.054885 
L 282.763696 269.255869 
L 281.426954 262.995428 
L 280.632779 268.277711 
L 279.663992 268.484568 
L 276.781667 263.987299 
L 278.118409 270.24774 
L 277.181712 270.447746 
L 275.65932 263.317842 
z
" clip-path="url(#pc11bf9848d)" style="fill: #de4968; stroke: #ffffff; stroke-width: 5"/>
    <path d="M 271.703245 270.769129 
L 275.06955 270.050349 
L 275.242801 270.861746 
L 270.716702 271.828168 
L 270.543451 271.016771 
Q 270.970649 270.331202 271.713796 269.17235 
Q 272.458144 268.011644 272.641723 267.681661 
Q 272.993791 267.063261 273.100157 266.663487 
Q 273.208051 266.263387 273.133661 265.914991 
Q 273.012287 265.346554 272.537117 265.074147 
Q 272.06162 264.800211 271.421365 264.93692 
Q 270.967533 265.033823 270.496881 265.298883 
Q 270.027757 265.563617 269.523254 266.006861 
L 269.315091 265.031962 
Q 269.847361 264.673859 270.327697 264.446674 
Q 270.809562 264.219163 271.229777 264.129438 
Q 272.337617 263.89289 273.114646 264.30695 
Q 273.891349 264.719482 274.089071 265.645483 
Q 274.183037 266.085563 274.102186 266.515039 
Q 274.022536 266.94266 273.701236 267.570467 
Q 273.611739 267.73497 273.11276 268.533326 
Q 272.61531 269.331356 271.703245 270.769129 
z
M 275.65932 263.317842 
L 277.097219 263.010818 
L 279.951523 267.474127 
L 280.744687 262.232004 
L 282.182586 261.92498 
L 283.704978 269.054885 
L 282.763696 269.255869 
L 281.426954 262.995428 
L 280.632779 268.277711 
L 279.663992 268.484568 
L 276.781667 263.987299 
L 278.118409 270.24774 
L 277.181712 270.447746 
L 275.65932 263.317842 
z
" clip-path="url(#pc11bf9848d)" style="fill: #de4968"/>
   </g>
   <g id="text_20">
    <path d="M 337.35243 282.211561 
L 334.827573 286.08163 
L 337.318101 286.103597 
L 337.35243 282.211561 
z
M 337.100645 281.349932 
L 338.341222 281.360874 
L 338.299313 286.112252 
L 339.339898 286.12143 
L 339.332663 286.941711 
L 338.292078 286.932532 
L 338.276919 288.651216 
L 337.295707 288.642561 
L 337.310866 286.923878 
L 334.020369 286.894855 
L 334.028762 285.943329 
L 337.100645 281.349932 
z
M 340.923739 281.383653 
L 342.393994 281.396621 
L 344.209541 286.373765 
L 346.123536 281.429517 
L 347.593792 281.442485 
L 347.529488 288.732826 
L 346.567026 288.724337 
L 346.623488 282.323024 
L 344.699773 287.30625 
L 343.709187 287.297513 
L 341.873672 282.281129 
L 341.817211 288.682442 
L 340.859435 288.673994 
L 340.923739 281.383653 
z
" clip-path="url(#pc11bf9848d)" style="fill: #fe9f6d; stroke: #ffffff; stroke-width: 5"/>
    <path d="M 337.35243 282.211561 
L 334.827573 286.08163 
L 337.318101 286.103597 
L 337.35243 282.211561 
z
M 337.100645 281.349932 
L 338.341222 281.360874 
L 338.299313 286.112252 
L 339.339898 286.12143 
L 339.332663 286.941711 
L 338.292078 286.932532 
L 338.276919 288.651216 
L 337.295707 288.642561 
L 337.310866 286.923878 
L 334.020369 286.894855 
L 334.028762 285.943329 
L 337.100645 281.349932 
z
M 340.923739 281.383653 
L 342.393994 281.396621 
L 344.209541 286.373765 
L 346.123536 281.429517 
L 347.593792 281.442485 
L 347.529488 288.732826 
L 346.567026 288.724337 
L 346.623488 282.323024 
L 344.699773 287.30625 
L 343.709187 287.297513 
L 341.873672 282.281129 
L 341.817211 288.682442 
L 340.859435 288.673994 
L 340.923739 281.383653 
z
" clip-path="url(#pc11bf9848d)" style="fill: #fe9f6d"/>
   </g>
   <g id="patch_3">
    <path d="M 66.053125 301.735725 
L 66.053125 35.623725 
" style="fill: none; stroke: #cccccc; stroke-width: 0.8; stroke-linejoin: miter; stroke-linecap: square"/>
   </g>
   <g id="patch_4">
    <path d="M 423.173125 301.735725 
L 423.173125 35.623725 
" style="fill: none; stroke: #cccccc; stroke-width: 0.8; stroke-linejoin: miter; stroke-linecap: square"/>
   </g>
   <g id="patch_5">
    <path d="M 66.053125 301.735725 
L 423.173125 301.735725 
" style="fill: none; stroke: #cccccc; stroke-width: 0.8; stroke-linejoin: miter; stroke-linecap: square"/>
   </g>
   <g id="patch_6">
    <path d="M 66.053125 35.623725 
L 423.173125 35.623725 
" style="fill: none; stroke: #cccccc; stroke-width: 0.8; stroke-linejoin: miter; stroke-linecap: square"/>
   </g>
   <g id="text_21">
    <!-- b = [131072], s = [1] -->
    <g style="fill: #262626; opacity: 0.75" transform="translate(190.848281 30.882918) scale(0.1 -0.1)">
     <defs>
      <path id="DejaVuSans-3d" d="M 678 2906 
L 4684 2906 
L 4684 2381 
L 678 2381 
L 678 2906 
z
M 678 1631 
L 4684 1631 
L 4684 1100 
L 678 1100 
L 678 1631 
z
" transform="scale(0.015625)"/>
      <path id="DejaVuSans-5b" d="M 550 4863 
L 1875 4863 
L 1875 4416 
L 1125 4416 
L 1125 -397 
L 1875 -397 
L 1875 -844 
L 550 -844 
L 550 4863 
z
" transform="scale(0.015625)"/>
      <path id="DejaVuSans-5d" d="M 1947 4863 
L 1947 -844 
L 622 -844 
L 622 -397 
L 1369 -397 
L 1369 4416 
L 622 4416 
L 622 4863 
L 1947 4863 
z
" transform="scale(0.015625)"/>
      <path id="DejaVuSans-2c" d="M 750 794 
L 1409 794 
L 1409 256 
L 897 -744 
L 494 -744 
L 750 256 
L 750 794 
z
" transform="scale(0.015625)"/>
     </defs>
     <use xlink:href="#DejaVuSans-62"/>
     <use xlink:href="#DejaVuSans-20" transform="translate(63.476562 0)"/>
     <use xlink:href="#DejaVuSans-3d" transform="translate(95.263672 0)"/>
     <use xlink:href="#DejaVuSans-20" transform="translate(179.052734 0)"/>
     <use xlink:href="#DejaVuSans-5b" transform="translate(210.839844 0)"/>
     <use xlink:href="#DejaVuSans-31" transform="translate(249.853516 0)"/>
     <use xlink:href="#DejaVuSans-33" transform="translate(313.476562 0)"/>
     <use xlink:href="#DejaVuSans-31" transform="translate(377.099609 0)"/>
     <use xlink:href="#DejaVuSans-30" transform="translate(440.722656 0)"/>
     <use xlink:href="#DejaVuSans-37" transform="translate(504.345703 0)"/>
     <use xlink:href="#DejaVuSans-32" transform="translate(567.96875 0)"/>
     <use xlink:href="#DejaVuSans-5d" transform="translate(631.591797 0)"/>
     <use xlink:href="#DejaVuSans-2c" transform="translate(670.605469 0)"/>
     <use xlink:href="#DejaVuSans-20" transform="translate(702.392578 0)"/>
     <use xlink:href="#DejaVuSans-73" transform="translate(734.179688 0)"/>
     <use xlink:href="#DejaVuSans-20" transform="translate(786.279297 0)"/>
     <use xlink:href="#DejaVuSans-3d" transform="translate(818.066406 0)"/>
     <use xlink:href="#DejaVuSans-20" transform="translate(901.855469 0)"/>
     <use xlink:href="#DejaVuSans-5b" transform="translate(933.642578 0)"/>
     <use xlink:href="#DejaVuSans-31" transform="translate(972.65625 0)"/>
     <use xlink:href="#DejaVuSans-5d" transform="translate(1036.279297 0)"/>
    </g>
   </g>
   <g id="text_22">
    <!-- IOPS vs Number of Tasks -->
    <g style="fill: #262626" transform="translate(160.6225 16.318125) scale(0.12 -0.12)">
     <defs>
      <path id="DejaVuSans-Bold-49" d="M 588 4666 
L 1791 4666 
L 1791 0 
L 588 0 
L 588 4666 
z
" transform="scale(0.015625)"/>
      <path id="DejaVuSans-Bold-4f" d="M 2719 3878 
Q 2169 3878 1866 3472 
Q 1563 3066 1563 2328 
Q 1563 1594 1866 1187 
Q 2169 781 2719 781 
Q 3272 781 3575 1187 
Q 3878 1594 3878 2328 
Q 3878 3066 3575 3472 
Q 3272 3878 2719 3878 
z
M 2719 4750 
Q 3844 4750 4481 4106 
Q 5119 3463 5119 2328 
Q 5119 1197 4481 553 
Q 3844 -91 2719 -91 
Q 1597 -91 958 553 
Q 319 1197 319 2328 
Q 319 3463 958 4106 
Q 1597 4750 2719 4750 
z
" transform="scale(0.015625)"/>
      <path id="DejaVuSans-Bold-50" d="M 588 4666 
L 2584 4666 
Q 3475 4666 3951 4270 
Q 4428 3875 4428 3144 
Q 4428 2409 3951 2014 
Q 3475 1619 2584 1619 
L 1791 1619 
L 1791 0 
L 588 0 
L 588 4666 
z
M 1791 3794 
L 1791 2491 
L 2456 2491 
Q 2806 2491 2997 2661 
Q 3188 2831 3188 3144 
Q 3188 3456 2997 3625 
Q 2806 3794 2456 3794 
L 1791 3794 
z
" transform="scale(0.015625)"/>
      <path id="DejaVuSans-Bold-53" d="M 3834 4519 
L 3834 3531 
Q 3450 3703 3084 3790 
Q 2719 3878 2394 3878 
Q 1963 3878 1756 3759 
Q 1550 3641 1550 3391 
Q 1550 3203 1689 3098 
Q 1828 2994 2194 2919 
L 2706 2816 
Q 3484 2659 3812 2340 
Q 4141 2022 4141 1434 
Q 4141 663 3683 286 
Q 3225 -91 2284 -91 
Q 1841 -91 1394 -6 
Q 947 78 500 244 
L 500 1259 
Q 947 1022 1364 901 
Q 1781 781 2169 781 
Q 2563 781 2772 912 
Q 2981 1044 2981 1288 
Q 2981 1506 2839 1625 
Q 2697 1744 2272 1838 
L 1806 1941 
Q 1106 2091 782 2419 
Q 459 2747 459 3303 
Q 459 4000 909 4375 
Q 1359 4750 2203 4750 
Q 2588 4750 2994 4692 
Q 3400 4634 3834 4519 
z
" transform="scale(0.015625)"/>
      <path id="DejaVuSans-Bold-20" transform="scale(0.015625)"/>
      <path id="DejaVuSans-Bold-76" d="M 97 3500 
L 1216 3500 
L 2088 1081 
L 2956 3500 
L 4078 3500 
L 2700 0 
L 1472 0 
L 97 3500 
z
" transform="scale(0.015625)"/>
      <path id="DejaVuSans-Bold-73" d="M 3272 3391 
L 3272 2541 
Q 2913 2691 2578 2766 
Q 2244 2841 1947 2841 
Q 1628 2841 1473 2761 
Q 1319 2681 1319 2516 
Q 1319 2381 1436 2309 
Q 1553 2238 1856 2203 
L 2053 2175 
Q 2913 2066 3209 1816 
Q 3506 1566 3506 1031 
Q 3506 472 3093 190 
Q 2681 -91 1863 -91 
Q 1516 -91 1145 -36 
Q 775 19 384 128 
L 384 978 
Q 719 816 1070 734 
Q 1422 653 1784 653 
Q 2113 653 2278 743 
Q 2444 834 2444 1013 
Q 2444 1163 2330 1236 
Q 2216 1309 1875 1350 
L 1678 1375 
Q 931 1469 631 1722 
Q 331 1975 331 2491 
Q 331 3047 712 3315 
Q 1094 3584 1881 3584 
Q 2191 3584 2531 3537 
Q 2872 3491 3272 3391 
z
" transform="scale(0.015625)"/>
      <path id="DejaVuSans-Bold-4e" d="M 588 4666 
L 1931 4666 
L 3628 1466 
L 3628 4666 
L 4769 4666 
L 4769 0 
L 3425 0 
L 1728 3200 
L 1728 0 
L 588 0 
L 588 4666 
z
" transform="scale(0.015625)"/>
      <path id="DejaVuSans-Bold-75" d="M 500 1363 
L 500 3500 
L 1625 3500 
L 1625 3150 
Q 1625 2866 1622 2436 
Q 1619 2006 1619 1863 
Q 1619 1441 1641 1255 
Q 1663 1069 1716 984 
Q 1784 875 1895 815 
Q 2006 756 2150 756 
Q 2500 756 2700 1025 
Q 2900 1294 2900 1772 
L 2900 3500 
L 4019 3500 
L 4019 0 
L 2900 0 
L 2900 506 
Q 2647 200 2364 54 
Q 2081 -91 1741 -91 
Q 1134 -91 817 281 
Q 500 653 500 1363 
z
" transform="scale(0.015625)"/>
      <path id="DejaVuSans-Bold-6d" d="M 3781 2919 
Q 3994 3244 4286 3414 
Q 4578 3584 4928 3584 
Q 5531 3584 5847 3212 
Q 6163 2841 6163 2131 
L 6163 0 
L 5038 0 
L 5038 1825 
Q 5041 1866 5042 1909 
Q 5044 1953 5044 2034 
Q 5044 2406 4934 2573 
Q 4825 2741 4581 2741 
Q 4263 2741 4089 2478 
Q 3916 2216 3909 1719 
L 3909 0 
L 2784 0 
L 2784 1825 
Q 2784 2406 2684 2573 
Q 2584 2741 2328 2741 
Q 2006 2741 1831 2477 
Q 1656 2213 1656 1722 
L 1656 0 
L 531 0 
L 531 3500 
L 1656 3500 
L 1656 2988 
Q 1863 3284 2130 3434 
Q 2397 3584 2719 3584 
Q 3081 3584 3359 3409 
Q 3638 3234 3781 2919 
z
" transform="scale(0.015625)"/>
      <path id="DejaVuSans-Bold-62" d="M 2400 722 
Q 2759 722 2948 984 
Q 3138 1247 3138 1747 
Q 3138 2247 2948 2509 
Q 2759 2772 2400 2772 
Q 2041 2772 1848 2508 
Q 1656 2244 1656 1747 
Q 1656 1250 1848 986 
Q 2041 722 2400 722 
z
M 1656 2988 
Q 1888 3294 2169 3439 
Q 2450 3584 2816 3584 
Q 3463 3584 3878 3070 
Q 4294 2556 4294 1747 
Q 4294 938 3878 423 
Q 3463 -91 2816 -91 
Q 2450 -91 2169 54 
Q 1888 200 1656 506 
L 1656 0 
L 538 0 
L 538 4863 
L 1656 4863 
L 1656 2988 
z
" transform="scale(0.015625)"/>
      <path id="DejaVuSans-Bold-65" d="M 4031 1759 
L 4031 1441 
L 1416 1441 
Q 1456 1047 1700 850 
Q 1944 653 2381 653 
Q 2734 653 3104 758 
Q 3475 863 3866 1075 
L 3866 213 
Q 3469 63 3072 -14 
Q 2675 -91 2278 -91 
Q 1328 -91 801 392 
Q 275 875 275 1747 
Q 275 2603 792 3093 
Q 1309 3584 2216 3584 
Q 3041 3584 3536 3087 
Q 4031 2591 4031 1759 
z
M 2881 2131 
Q 2881 2450 2695 2645 
Q 2509 2841 2209 2841 
Q 1884 2841 1681 2658 
Q 1478 2475 1428 2131 
L 2881 2131 
z
" transform="scale(0.015625)"/>
      <path id="DejaVuSans-Bold-72" d="M 3138 2547 
Q 2991 2616 2845 2648 
Q 2700 2681 2553 2681 
Q 2122 2681 1889 2404 
Q 1656 2128 1656 1613 
L 1656 0 
L 538 0 
L 538 3500 
L 1656 3500 
L 1656 2925 
Q 1872 3269 2151 3426 
Q 2431 3584 2822 3584 
Q 2878 3584 2943 3579 
Q 3009 3575 3134 3559 
L 3138 2547 
z
" transform="scale(0.015625)"/>
      <path id="DejaVuSans-Bold-6f" d="M 2203 2784 
Q 1831 2784 1636 2517 
Q 1441 2250 1441 1747 
Q 1441 1244 1636 976 
Q 1831 709 2203 709 
Q 2569 709 2762 976 
Q 2956 1244 2956 1747 
Q 2956 2250 2762 2517 
Q 2569 2784 2203 2784 
z
M 2203 3584 
Q 3106 3584 3614 3096 
Q 4122 2609 4122 1747 
Q 4122 884 3614 396 
Q 3106 -91 2203 -91 
Q 1297 -91 786 396 
Q 275 884 275 1747 
Q 275 2609 786 3096 
Q 1297 3584 2203 3584 
z
" transform="scale(0.015625)"/>
      <path id="DejaVuSans-Bold-66" d="M 2841 4863 
L 2841 4128 
L 2222 4128 
Q 1984 4128 1890 4042 
Q 1797 3956 1797 3744 
L 1797 3500 
L 2753 3500 
L 2753 2700 
L 1797 2700 
L 1797 0 
L 678 0 
L 678 2700 
L 122 2700 
L 122 3500 
L 678 3500 
L 678 3744 
Q 678 4316 997 4589 
Q 1316 4863 1984 4863 
L 2841 4863 
z
" transform="scale(0.015625)"/>
      <path id="DejaVuSans-Bold-54" d="M 31 4666 
L 4331 4666 
L 4331 3756 
L 2784 3756 
L 2784 0 
L 1581 0 
L 1581 3756 
L 31 3756 
L 31 4666 
z
" transform="scale(0.015625)"/>
      <path id="DejaVuSans-Bold-61" d="M 2106 1575 
Q 1756 1575 1579 1456 
Q 1403 1338 1403 1106 
Q 1403 894 1545 773 
Q 1688 653 1941 653 
Q 2256 653 2472 879 
Q 2688 1106 2688 1447 
L 2688 1575 
L 2106 1575 
z
M 3816 1997 
L 3816 0 
L 2688 0 
L 2688 519 
Q 2463 200 2181 54 
Q 1900 -91 1497 -91 
Q 953 -91 614 226 
Q 275 544 275 1050 
Q 275 1666 698 1953 
Q 1122 2241 2028 2241 
L 2688 2241 
L 2688 2328 
Q 2688 2594 2478 2717 
Q 2269 2841 1825 2841 
Q 1466 2841 1156 2769 
Q 847 2697 581 2553 
L 581 3406 
Q 941 3494 1303 3539 
Q 1666 3584 2028 3584 
Q 2975 3584 3395 3211 
Q 3816 2838 3816 1997 
z
" transform="scale(0.015625)"/>
      <path id="DejaVuSans-Bold-6b" d="M 538 4863 
L 1656 4863 
L 1656 2216 
L 2944 3500 
L 4244 3500 
L 2534 1894 
L 4378 0 
L 3022 0 
L 1656 1459 
L 1656 0 
L 538 0 
L 538 4863 
z
" transform="scale(0.015625)"/>
     </defs>
     <use xlink:href="#DejaVuSans-Bold-49"/>
     <use xlink:href="#DejaVuSans-Bold-4f" transform="translate(37.207031 0)"/>
     <use xlink:href="#DejaVuSans-Bold-50" transform="translate(122.216797 0)"/>
     <use xlink:href="#DejaVuSans-Bold-53" transform="translate(195.507812 0)"/>
     <use xlink:href="#DejaVuSans-Bold-20" transform="translate(267.529297 0)"/>
     <use xlink:href="#DejaVuSans-Bold-76" transform="translate(302.34375 0)"/>
     <use xlink:href="#DejaVuSans-Bold-73" transform="translate(367.529297 0)"/>
     <use xlink:href="#DejaVuSans-Bold-20" transform="translate(427.050781 0)"/>
     <use xlink:href="#DejaVuSans-Bold-4e" transform="translate(461.865234 0)"/>
     <use xlink:href="#DejaVuSans-Bold-75" transform="translate(545.556641 0)"/>
     <use xlink:href="#DejaVuSans-Bold-6d" transform="translate(616.748047 0)"/>
     <use xlink:href="#DejaVuSans-Bold-62" transform="translate(720.947266 0)"/>
     <use xlink:href="#DejaVuSans-Bold-65" transform="translate(792.529297 0)"/>
     <use xlink:href="#DejaVuSans-Bold-72" transform="translate(860.351562 0)"/>
     <use xlink:href="#DejaVuSans-Bold-20" transform="translate(909.667969 0)"/>
     <use xlink:href="#DejaVuSans-Bold-6f" transform="translate(944.482422 0)"/>
     <use xlink:href="#DejaVuSans-Bold-66" transform="translate(1013.183594 0)"/>
     <use xlink:href="#DejaVuSans-Bold-20" transform="translate(1056.689453 0)"/>
     <use xlink:href="#DejaVuSans-Bold-54" transform="translate(1091.503906 0)"/>
     <use xlink:href="#DejaVuSans-Bold-61" transform="translate(1146.841797 0)"/>
     <use xlink:href="#DejaVuSans-Bold-73" transform="translate(1214.322266 0)"/>
     <use xlink:href="#DejaVuSans-Bold-6b" transform="translate(1273.84375 0)"/>
     <use xlink:href="#DejaVuSans-Bold-73" transform="translate(1340.347656 0)"/>
    </g>
   </g>
   <g id="legend_1">
    <g id="patch_7">
     <path d="M 364.890313 207.0141 
L 416.173125 207.0141 
Q 418.173125 207.0141 418.173125 205.0141 
L 418.173125 132.34535 
Q 418.173125 130.34535 416.173125 130.34535 
L 364.890313 130.34535 
Q 362.890313 130.34535 362.890313 132.34535 
L 362.890313 205.0141 
Q 362.890313 207.0141 364.890313 207.0141 
z
" style="fill: #ffffff; opacity: 0.8; stroke: #cccccc; stroke-linejoin: miter"/>
    </g>
    <g id="text_23">
     <!-- xfer_str -->
     <g style="fill: #262626" transform="translate(371.559844 141.943787) scale(0.1 -0.1)">
      <defs>
       <path id="DejaVuSans-78" d="M 3513 3500 
L 2247 1797 
L 3578 0 
L 2900 0 
L 1881 1375 
L 863 0 
L 184 0 
L 1544 1831 
L 300 3500 
L 978 3500 
L 1906 2253 
L 2834 3500 
L 3513 3500 
z
" transform="scale(0.015625)"/>
       <path id="DejaVuSans-5f" d="M 3263 -1063 
L 3263 -1509 
L -63 -1509 
L -63 -1063 
L 3263 -1063 
z
" transform="scale(0.015625)"/>
       <path id="DejaVuSans-74" d="M 1172 4494 
L 1172 3500 
L 2356 3500 
L 2356 3053 
L 1172 3053 
L 1172 1153 
Q 1172 725 1289 603 
Q 1406 481 1766 481 
L 2356 481 
L 2356 0 
L 1766 0 
Q 1100 0 847 248 
Q 594 497 594 1153 
L 594 3053 
L 172 3053 
L 172 3500 
L 594 3500 
L 594 4494 
L 1172 4494 
z
" transform="scale(0.015625)"/>
      </defs>
      <use xlink:href="#DejaVuSans-78"/>
      <use xlink:href="#DejaVuSans-66" transform="translate(59.179688 0)"/>
      <use xlink:href="#DejaVuSans-65" transform="translate(94.384766 0)"/>
      <use xlink:href="#DejaVuSans-72" transform="translate(155.908203 0)"/>
      <use xlink:href="#DejaVuSans-5f" transform="translate(197.021484 0)"/>
      <use xlink:href="#DejaVuSans-73" transform="translate(247.021484 0)"/>
      <use xlink:href="#DejaVuSans-74" transform="translate(299.121094 0)"/>
      <use xlink:href="#DejaVuSans-72" transform="translate(338.330078 0)"/>
     </g>
    </g>
    <g id="line2d_23">
     <path d="M 366.890313 153.400037 
L 376.890313 153.400037 
L 386.890313 153.400037 
" style="fill: none; stroke: #3b0f70; stroke-width: 1.5; stroke-linecap: round"/>
    </g>
    <g id="text_24">
     <!-- 16K -->
     <g style="fill: #262626" transform="translate(394.890313 156.900037) scale(0.1 -0.1)">
      <defs>
       <path id="DejaVuSans-4b" d="M 628 4666 
L 1259 4666 
L 1259 2694 
L 3353 4666 
L 4166 4666 
L 1850 2491 
L 4331 0 
L 3500 0 
L 1259 2247 
L 1259 0 
L 628 0 
L 628 4666 
z
" transform="scale(0.015625)"/>
      </defs>
      <use xlink:href="#DejaVuSans-31"/>
      <use xlink:href="#DejaVuSans-36" transform="translate(63.623047 0)"/>
      <use xlink:href="#DejaVuSans-4b" transform="translate(127.246094 0)"/>
     </g>
    </g>
    <g id="line2d_24">
     <path d="M 366.890313 168.078162 
L 376.890313 168.078162 
L 386.890313 168.078162 
" style="fill: none; stroke: #8c2981; stroke-width: 1.5; stroke-linecap: round"/>
    </g>
    <g id="text_25">
     <!-- 1M -->
     <g style="fill: #262626" transform="translate(394.890313 171.578162) scale(0.1 -0.1)">
      <defs>
       <path id="DejaVuSans-4d" d="M 628 4666 
L 1569 4666 
L 2759 1491 
L 3956 4666 
L 4897 4666 
L 4897 0 
L 4281 0 
L 4281 4097 
L 3078 897 
L 2444 897 
L 1241 4097 
L 1241 0 
L 628 0 
L 628 4666 
z
" transform="scale(0.015625)"/>
      </defs>
      <use xlink:href="#DejaVuSans-31"/>
      <use xlink:href="#DejaVuSans-4d" transform="translate(63.623047 0)"/>
     </g>
    </g>
    <g id="line2d_25">
     <path d="M 366.890313 182.756287 
L 376.890313 182.756287 
L 386.890313 182.756287 
" style="fill: none; stroke: #de4968; stroke-width: 1.5; stroke-linecap: round"/>
    </g>
    <g id="text_26">
     <!-- 2M -->
     <g style="fill: #262626" transform="translate(394.890313 186.256287) scale(0.1 -0.1)">
      <use xlink:href="#DejaVuSans-32"/>
      <use xlink:href="#DejaVuSans-4d" transform="translate(63.623047 0)"/>
     </g>
    </g>
    <g id="line2d_26">
     <path d="M 366.890313 197.434413 
L 376.890313 197.434413 
L 386.890313 197.434413 
" style="fill: none; stroke: #fe9f6d; stroke-width: 1.5; stroke-linecap: round"/>
    </g>
    <g id="text_27">
     <!-- 4M -->
     <g style="fill: #262626" transform="translate(394.890313 200.934413) scale(0.1 -0.1)">
      <use xlink:href="#DejaVuSans-34"/>
      <use xlink:href="#DejaVuSans-4d" transform="translate(63.623047 0)"/>
     </g>
    </g>
   </g>
  </g>
 </g>
 <defs>
  <clipPath id="pc11bf9848d">
   <rect x="66.053125" y="35.623725" width="357.12" height="266.112"/>
  </clipPath>
 </defs>
</svg>
